<svg width="48" height="48" viewBox="0 0 48 48" fill="none" xmlns="http://www.w3.org/2000/svg">
<path d="M22.4394 12.8506L22.6367 28.7608H25.1797L25.3926 12.8506H22.4394ZM22.9648 13.3583H24.8711L24.6719 28.247L23.1445 28.2509L22.9648 13.3583ZM23.9922 31.9892C23.4441 31.9892 23.0284 32.1472 22.7442 32.4618C22.4701 32.7663 22.332 33.1457 22.332 33.6024C22.332 34.0592 22.4701 34.4405 22.7442 34.745C23.0284 35.0394 23.4441 35.1864 23.9922 35.1864C24.5403 35.1864 24.956 35.0394 25.2402 34.745C25.5244 34.4405 25.668 34.0592 25.668 33.6024C25.668 33.1457 25.5244 32.7663 25.2402 32.4618C24.956 32.1472 24.5403 31.9892 23.9922 31.9892ZM23.8203 32.5028H24.1406C24.4745 32.5247 25.1185 32.685 25.1406 33.4911V33.8114C25.0288 34.5211 24.6187 34.6052 24.2012 34.6727H23.8809C23.23 34.6536 22.9216 34.3229 22.8477 33.7782V33.4579C22.9167 32.8655 23.1897 32.4921 23.8203 32.5028Z" fill="#333333"/>
<path fill-rule="evenodd" clip-rule="evenodd" d="M23.9998 4C12.9539 4 4 12.9542 4 23.9998C4 35.0456 12.9542 43.9995 23.9998 43.9995C35.0456 43.9995 43.9995 35.0453 43.9995 23.9998C43.9995 12.9539 35.0453 4 23.9998 4ZM23.9998 4.51757C34.7596 4.51757 43.4815 13.2399 43.4815 23.9993C43.4815 34.7588 34.7596 43.4811 23.9998 43.4811C13.2399 43.4811 4.51799 34.7592 4.51799 23.9993C4.51759 13.2395 13.2399 4.51757 23.9998 4.51757Z" fill="#333333"/>
</svg>
