<svg width="48" height="48" viewBox="0 0 48 48" fill="none" xmlns="http://www.w3.org/2000/svg">
<path d="M14.241 3.82324C13.3715 3.82324 12.6726 4.52216 12.6726 5.3916V42.2529C12.6726 43.1224 13.3715 43.8232 14.241 43.8232H33.946C34.8155 43.8232 35.5144 43.1224 35.5144 42.2529V5.3916C35.5144 4.52216 34.8155 3.82324 33.946 3.82324H14.241ZM14.6726 4.32324H33.5124C34.3437 4.32324 35.0144 5.00487 35.0144 5.85254V41.792C35.0144 42.6397 34.3437 43.3232 33.5124 43.3232H14.6726C13.8413 43.3232 13.1726 42.6397 13.1726 41.792V5.85254C13.1726 5.00487 13.8413 4.32324 14.6726 4.32324ZM30.9382 4.55762C30.8793 4.56117 30.8331 4.60961 30.8328 4.66895C30.8322 4.73169 30.8833 4.7826 30.946 4.78223C31.008 4.78173 31.0581 4.73093 31.0574 4.66895C31.0569 4.60772 31.0073 4.55837 30.946 4.55762C30.9434 4.55754 30.942 4.55754 30.9382 4.55762ZM30.9382 5.12012C30.8793 5.12367 30.8331 5.17211 30.8328 5.23145C30.8322 5.29419 30.8833 5.3451 30.946 5.34473C31.008 5.34423 31.0581 5.29343 31.0574 5.23145C31.0569 5.17022 31.0073 5.12087 30.946 5.12012C30.9434 5.12004 30.942 5.12004 30.9382 5.12012ZM30.9382 5.68262C30.8793 5.68617 30.8331 5.73461 30.8328 5.79395C30.8322 5.85668 30.8833 5.9076 30.946 5.90723C31.008 5.90673 31.0581 5.85593 31.0574 5.79395C31.0569 5.73272 31.0073 5.68337 30.946 5.68262C30.9434 5.68254 30.942 5.68254 30.9382 5.68262ZM30.9265 6.24512C30.8721 6.25268 30.8324 6.30126 30.8328 6.35644C30.8333 6.41843 30.8837 6.46815 30.946 6.46777C31.0073 6.46728 31.057 6.41805 31.0574 6.35644C31.0569 6.29522 31.0073 6.24587 30.946 6.24512C30.9384 6.24455 30.936 6.24455 30.9285 6.24512H30.9265ZM30.946 6.80566C30.8833 6.80506 30.8324 6.8562 30.8328 6.91894C30.8332 6.98093 30.8837 7.03065 30.946 7.03027C31.0073 7.02978 31.0566 6.98055 31.0574 6.91894C31.0579 6.85696 31.0084 6.80642 30.946 6.80566ZM30.9382 7.36816C30.8785 7.37175 30.832 7.42135 30.8328 7.48144C30.8333 7.54343 30.8837 7.59315 30.9461 7.59277C31.0073 7.59228 31.057 7.54305 31.0574 7.48144C31.058 7.41946 31.008 7.36892 30.9461 7.36816C30.9435 7.36805 30.9421 7.36805 30.9383 7.36816H30.9382ZM30.9382 7.93066C30.8785 7.93429 30.832 7.98385 30.8328 8.04394C30.8333 8.10593 30.8837 8.15565 30.9461 8.15527C31.0073 8.15482 31.057 8.10555 31.0574 8.04394C31.058 7.98196 31.008 7.93142 30.9461 7.93066C30.9435 7.93059 30.9421 7.93059 30.9383 7.93066H30.9382ZM30.9382 8.49316C30.8785 8.49675 30.832 8.54635 30.8328 8.60644C30.8333 8.66843 30.8837 8.71815 30.9461 8.71777C31.0073 8.71728 31.057 8.66805 31.0574 8.60644C31.058 8.54446 31.008 8.49392 30.9461 8.49316C30.9435 8.49309 30.9421 8.49309 30.9383 8.49316H30.9382ZM25.4187 8.87402V8.87597C25.1765 8.87927 24.9358 8.97681 24.7527 9.16504L22.9441 11.0225C22.578 11.3985 22.5852 11.9962 22.9617 12.3623C23.3379 12.7285 23.9354 12.7188 24.3015 12.3428L26.1101 10.4834C26.4762 10.107 26.469 9.50968 26.0925 9.14355C25.9044 8.96062 25.6609 8.87062 25.4187 8.87402ZM30.9382 9.05566C30.8793 9.05921 30.8332 9.10765 30.8328 9.16699C30.8322 9.22973 30.8833 9.28065 30.9461 9.28027C31.008 9.27978 31.0581 9.22898 31.0574 9.16699C31.0569 9.10576 31.0073 9.05642 30.9461 9.05566C30.9435 9.05559 30.9421 9.05559 30.9383 9.05566H30.9382ZM25.4832 9.3584C25.5619 9.3622 25.6425 9.39628 25.7273 9.46582C26.1339 9.82752 25.6524 10.2513 25.4773 10.4346L24.6121 11.3389C24.0048 11.9702 23.7408 12.3971 23.3171 11.9893C22.9574 11.6158 23.2754 11.3933 23.9636 10.6943L24.8289 9.79199C25.0343 9.59092 25.2469 9.34683 25.4832 9.3584ZM30.9382 9.61816C30.8793 9.62176 30.8332 9.67015 30.8328 9.72949C30.8322 9.79223 30.8833 9.84315 30.9461 9.84277C31.008 9.84228 31.0581 9.79147 31.0574 9.72949C31.0569 9.66826 31.0073 9.61892 30.9461 9.61816C30.9435 9.61805 30.9421 9.61805 30.9383 9.61816H30.9382ZM30.9265 10.1807C30.8721 10.1883 30.8324 10.2368 30.8328 10.292C30.8322 10.3547 30.8833 10.4057 30.9461 10.4053C31.008 10.4048 31.0581 10.354 31.0574 10.292C31.0569 10.2308 31.0073 10.1814 30.9461 10.1807C30.9385 10.1801 30.936 10.1801 30.9285 10.1807H30.9265ZM30.9461 10.7412C30.8833 10.7406 30.8324 10.7918 30.8328 10.8545C30.8333 10.9165 30.8837 10.9662 30.9461 10.9658C31.0073 10.9653 31.0566 10.9161 31.0574 10.8545C31.0579 10.7925 31.0084 10.742 30.9461 10.7412ZM19.8503 10.874V10.876C19.6082 10.8793 19.3674 10.9769 19.1843 11.1651L17.3757 13.0225C17.0096 13.3986 17.0169 13.9962 17.3933 14.3624C17.7696 14.7286 18.367 14.7196 18.7332 14.3428L20.5418 12.4834C20.9079 12.107 20.9006 11.5097 20.5242 11.1436C20.336 10.9607 20.0926 10.8707 19.8503 10.8741V10.874ZM30.9461 11.3037C30.8833 11.3031 30.8324 11.3543 30.8328 11.417C30.8333 11.479 30.8837 11.5291 30.9461 11.5283C31.0073 11.5279 31.0566 11.4782 31.0574 11.417C31.0579 11.355 31.0084 11.3045 30.9461 11.3037ZM19.9148 11.3584C19.9936 11.3622 20.0742 11.3963 20.1589 11.4658C20.5655 11.8275 20.0841 12.2513 19.9089 12.4346L19.0437 13.3389C18.4365 13.9702 18.1724 14.3971 17.7488 13.9893C17.3891 13.6158 17.707 13.3933 18.3953 12.6943L19.2605 11.792C19.4659 11.5909 19.6785 11.3468 19.9148 11.3584ZM30.9382 11.8662C30.8785 11.8698 30.832 11.9194 30.8328 11.9795C30.8333 12.0415 30.8837 12.0916 30.9461 12.0908C31.0073 12.0903 31.057 12.0407 31.0574 11.9795C31.058 11.9175 31.008 11.867 30.9461 11.8662C30.9435 11.8661 30.9421 11.8661 30.9382 11.8662ZM30.9382 12.4287C30.8785 12.4323 30.832 12.4819 30.8328 12.542C30.8333 12.604 30.8837 12.6541 30.9461 12.6533C31.0073 12.6528 31.057 12.6032 31.0574 12.542C31.058 12.48 31.008 12.4291 30.9461 12.4287C30.9435 12.4286 30.9421 12.4286 30.9382 12.4287ZM30.9382 12.9912C30.8793 12.9948 30.8331 13.0432 30.8328 13.1025C30.8322 13.1653 30.8833 13.2162 30.9461 13.2158C31.008 13.2153 31.0581 13.1645 31.0574 13.1025C31.0569 13.0413 31.0073 12.992 30.9461 12.9912C30.9435 12.9911 30.9421 12.9911 30.9382 12.9912ZM30.9382 13.5537C30.8793 13.5573 30.8331 13.6057 30.8328 13.665C30.8322 13.7278 30.8833 13.7787 30.9461 13.7783C31.008 13.7778 31.0581 13.727 31.0574 13.665C31.0569 13.6038 31.0073 13.5545 30.9461 13.5537C30.9435 13.5536 30.9421 13.5536 30.9382 13.5537ZM25.4187 13.5693V13.5713C25.1765 13.5746 24.9358 13.6722 24.7527 13.8604L22.9441 15.7178C22.578 16.0939 22.5852 16.6915 22.9617 17.0577C23.3379 17.4239 23.9354 17.4172 24.3015 17.0381L26.1101 15.1788C26.4762 14.8023 26.469 14.205 26.0925 13.8389C25.9044 13.656 25.6609 13.566 25.4187 13.5694V13.5693ZM25.4832 14.0557C25.5619 14.0595 25.6425 14.0936 25.7273 14.1631C26.1339 14.5248 25.6524 14.9466 25.4773 15.1299L24.6121 16.0342C24.0048 16.6656 23.7408 17.0924 23.3171 16.6846C22.9574 16.3112 23.2754 16.0906 23.9636 15.3916L24.8289 14.4873C25.0343 14.2862 25.2469 14.0441 25.4832 14.0557ZM30.9382 14.1162C30.8793 14.1198 30.8331 14.1686 30.8328 14.2275C30.8322 14.2903 30.8833 14.3412 30.946 14.3408C31.008 14.3404 31.0581 14.2895 31.0574 14.2275C31.0569 14.1663 31.0073 14.1166 30.946 14.1162C30.9434 14.1161 30.942 14.1161 30.9382 14.1162ZM30.9265 14.6787C30.8721 14.6863 30.8324 14.7352 30.8328 14.79C30.8322 14.8528 30.8833 14.9037 30.946 14.9033C31.008 14.9028 31.0581 14.852 31.0574 14.79C31.0569 14.7288 31.0073 14.6791 30.946 14.6787C30.9384 14.6782 30.936 14.6782 30.9285 14.6787H30.9265ZM30.9265 15.2412C30.8721 15.2488 30.8324 15.2974 30.8328 15.3525C30.8333 15.4145 30.8837 15.4643 30.946 15.4639C31.0073 15.4634 31.057 15.4138 31.0574 15.3525C31.0569 15.2913 31.0073 15.242 30.946 15.2412C30.9384 15.2407 30.936 15.2407 30.9285 15.2412H30.9265ZM30.946 15.8018C30.8833 15.8012 30.8324 15.8523 30.8328 15.915C30.8333 15.977 30.8837 16.0271 30.946 16.0264C31.0073 16.0259 31.0566 15.9763 31.0574 15.915C31.0579 15.8531 31.0084 15.8025 30.946 15.8018ZM19.8503 16.1338V16.1358C19.6081 16.1391 19.3674 16.2366 19.1843 16.4249L17.3757 18.2823C17.0096 18.6583 17.0169 19.256 17.3933 19.6221C17.7696 19.9884 18.367 19.9794 18.7332 19.6026L20.5417 17.7432C20.9079 17.3668 20.9006 16.7695 20.5242 16.4034C20.336 16.2204 20.0925 16.1304 19.8503 16.1338ZM30.9382 16.3643C30.8785 16.3679 30.832 16.4174 30.8328 16.4775C30.8333 16.5395 30.8837 16.5896 30.946 16.5889C31.0073 16.5884 31.057 16.5388 31.0574 16.4775C31.058 16.4156 31.008 16.365 30.946 16.3643C30.9434 16.3642 30.942 16.3642 30.9382 16.3643ZM19.9148 16.6182C19.9936 16.622 20.0742 16.656 20.1589 16.7256C20.5655 17.0873 20.0841 17.511 19.9089 17.6943L19.0437 18.5986C18.4365 19.23 18.1724 19.6568 17.7488 19.249C17.3891 18.8756 17.707 18.653 18.3953 17.9541L19.2605 17.0498C19.4659 16.8487 19.6785 16.6066 19.9148 16.6182ZM30.9382 16.9268C30.8785 16.9304 30.832 16.9799 30.8328 17.04C30.8333 17.102 30.8837 17.1517 30.946 17.1514C31.0073 17.1509 31.057 17.1016 31.0574 17.04C31.058 16.9781 31.008 16.9275 30.946 16.9268C30.9434 16.9267 30.942 16.9267 30.9382 16.9268ZM30.9382 17.4893C30.8793 17.4929 30.8331 17.5416 30.8328 17.6006C30.8322 17.6633 30.8833 17.7142 30.946 17.7139C31.008 17.7134 31.0581 17.6626 31.0574 17.6006C31.0569 17.5394 31.0073 17.4896 30.946 17.4893C30.9434 17.4892 30.942 17.4892 30.9382 17.4893ZM30.9382 18.0518C30.8793 18.0554 30.8331 18.1041 30.8328 18.1631C30.8322 18.2258 30.8833 18.2767 30.946 18.2764C31.008 18.2759 31.0581 18.2251 31.0574 18.1631C31.0569 18.1019 31.0073 18.0521 30.946 18.0518C30.9434 18.0516 30.942 18.0516 30.9382 18.0518ZM30.9382 18.6143C30.8793 18.6179 30.8331 18.6666 30.8328 18.7256C30.8322 18.7883 30.8833 18.8392 30.946 18.8389C31.008 18.8384 31.0581 18.7876 31.0574 18.7256C31.0569 18.6644 31.0073 18.6146 30.946 18.6143C30.9434 18.6141 30.942 18.6141 30.9382 18.6143ZM25.4187 18.7842V18.7862C25.1765 18.7895 24.9357 18.887 24.7527 19.0752L22.9441 20.9327C22.578 21.3087 22.5852 21.9064 22.9617 22.2725C23.3379 22.6387 23.9354 22.6321 24.3015 22.253L26.1101 20.3936C26.4762 20.0172 26.469 19.4199 26.0925 19.0538C25.9044 18.8708 25.6609 18.7808 25.4187 18.7842ZM30.9265 19.1768C30.8721 19.1844 30.8324 19.2329 30.8328 19.2881C30.8322 19.3508 30.8833 19.4017 30.946 19.4014C31.008 19.4009 31.0581 19.3501 31.0574 19.2881C31.0569 19.2269 31.0073 19.1775 30.946 19.1768C30.9384 19.1762 30.936 19.1762 30.9285 19.1768H30.9265ZM25.4832 19.2705C25.5619 19.2743 25.6425 19.3084 25.7273 19.3779C26.1339 19.7396 25.6524 20.1614 25.4773 20.3447L24.6121 21.249C24.0048 21.8804 23.7408 22.3072 23.3171 21.8994C22.9574 21.526 23.2754 21.3054 23.9636 20.6064L24.8289 19.7021C25.0343 19.5011 25.2469 19.2589 25.4832 19.2705ZM30.946 19.7373C30.8833 19.7367 30.8324 19.7878 30.8328 19.8506C30.8333 19.9126 30.8837 19.9627 30.946 19.9619C31.0073 19.9615 31.0566 19.9118 31.0574 19.8506C31.0579 19.7886 31.0084 19.7381 30.946 19.7373ZM30.9382 20.2998C30.8785 20.3034 30.832 20.353 30.8328 20.4131C30.8333 20.4751 30.8837 20.5252 30.9461 20.5244C31.0073 20.5239 31.057 20.4743 31.0574 20.4131C31.058 20.3511 31.008 20.3002 30.9461 20.2998C30.9435 20.2997 30.9421 20.2997 30.9383 20.2998H30.9382ZM30.9382 20.8623C30.8785 20.8659 30.832 20.9155 30.8328 20.9756C30.8333 21.0376 30.8837 21.0873 30.9461 21.0869C31.0073 21.0864 31.057 21.0372 31.0574 20.9756C31.058 20.9136 31.008 20.8631 30.9461 20.8623C30.9435 20.8622 30.9421 20.8622 30.9383 20.8623H30.9382ZM19.8504 21.3916V21.3936C19.6082 21.3969 19.3674 21.4944 19.1843 21.6827L17.3757 23.5401C17.0096 23.9161 17.0169 24.5138 17.3933 24.8799C17.7696 25.2462 18.3671 25.2395 18.7332 24.8604L20.5418 23.001C20.9079 22.6246 20.9006 22.0273 20.5242 21.6612C20.336 21.4782 20.0926 21.3882 19.8504 21.3916ZM30.9382 21.4248C30.8785 21.4284 30.832 21.478 30.8328 21.5381C30.8333 21.6001 30.8837 21.6498 30.9461 21.6494C31.0073 21.6489 31.057 21.5997 31.0574 21.5381C31.058 21.4761 31.008 21.4256 30.9461 21.4248C30.9435 21.4247 30.9421 21.4247 30.9383 21.4248H30.9382ZM19.9148 21.8779C19.9936 21.8817 20.0742 21.9158 20.1589 21.9853C20.5655 22.347 20.0841 22.7688 19.9089 22.9521L19.0437 23.8564C18.4365 24.4878 18.1724 24.9146 17.7488 24.5068C17.3891 24.1334 17.707 23.9128 18.3953 23.2139L19.2605 22.3096C19.4659 22.1085 19.6785 21.8664 19.9148 21.8779ZM30.9382 21.9873C30.8793 21.9909 30.8332 22.0397 30.8328 22.0986C30.8322 22.1614 30.8833 22.2123 30.9461 22.2119C31.008 22.2114 31.0581 22.1606 31.0574 22.0986C31.0569 22.0374 31.0073 21.9877 30.9461 21.9873C30.9435 21.9872 30.9421 21.9872 30.9383 21.9873H30.9382ZM30.9382 22.5498C30.8793 22.5534 30.8332 22.6022 30.8328 22.6611C30.8322 22.7239 30.8833 22.7748 30.9461 22.7744C31.008 22.7739 31.0581 22.7231 31.0574 22.6611C31.0569 22.5999 31.0073 22.5502 30.9461 22.5498C30.9435 22.5497 30.9421 22.5497 30.9383 22.5498H30.9382ZM30.9382 23.1123C30.8793 23.1159 30.8332 23.1643 30.8328 23.2236C30.8322 23.2864 30.8833 23.3373 30.9461 23.3369C31.008 23.3364 31.0581 23.2856 31.0574 23.2236C31.0569 23.1624 31.0073 23.1131 30.9461 23.1123C30.9435 23.1122 30.9421 23.1122 30.9383 23.1123H30.9382ZM30.9265 23.6748C30.8721 23.6824 30.8324 23.7309 30.8328 23.7861C30.8322 23.8489 30.8833 23.8998 30.9461 23.8994C31.008 23.8989 31.0581 23.8481 31.0574 23.7861C31.0569 23.7249 31.0073 23.6756 30.9461 23.6748C30.9385 23.6742 30.936 23.6742 30.9285 23.6748H30.9265ZM25.4187 23.999V24.001C25.1765 24.0043 24.9358 24.1019 24.7527 24.2901L22.9441 26.1475C22.578 26.5236 22.5852 27.1212 22.9617 27.4873C23.3379 27.8536 23.9354 27.8465 24.3015 27.4678L26.1101 25.6084C26.4762 25.232 26.469 24.6347 26.0925 24.2686C25.9044 24.0857 25.6609 23.9957 25.4187 23.9991V23.999ZM30.9265 24.2373C30.8721 24.2449 30.8324 24.2934 30.8328 24.3486C30.8333 24.4106 30.8837 24.4607 30.9461 24.46C31.0073 24.4595 31.057 24.4099 31.0574 24.3486C31.0569 24.2874 31.0073 24.2381 30.9461 24.2373C30.9385 24.2367 30.936 24.2367 30.9285 24.2373H30.9265ZM25.4832 24.4853C25.5619 24.4891 25.6425 24.5232 25.7273 24.5928C26.1339 24.9545 25.6524 25.3763 25.4773 25.5596L24.6121 26.4639C24.0048 27.0952 23.7408 27.5221 23.3171 27.1143C22.9575 26.7408 23.2754 26.5202 23.9636 25.8213L24.8289 24.917C25.0343 24.7159 25.2469 24.4738 25.4832 24.4853ZM30.9382 24.7978C30.8785 24.8014 30.832 24.851 30.8328 24.9111C30.8333 24.9731 30.8837 25.0228 30.9461 25.0225C31.0073 25.022 31.057 24.9727 31.0574 24.9111C31.058 24.8491 31.008 24.7986 30.9461 24.7978C30.9435 24.7978 30.9421 24.7978 30.9383 24.7978H30.9382ZM30.9382 25.3603C30.8785 25.3639 30.832 25.4135 30.8328 25.4736C30.8333 25.5356 30.8837 25.5853 30.9461 25.585C31.0073 25.5845 31.057 25.5352 31.0574 25.4736C31.058 25.4116 31.008 25.3611 30.9461 25.3603C30.9435 25.3603 30.9421 25.3603 30.9383 25.3603H30.9382ZM30.9382 25.9228C30.8785 25.9264 30.832 25.976 30.8328 26.0361C30.8333 26.0981 30.8837 26.1478 30.9461 26.1475C31.0073 26.147 31.057 26.0977 31.0574 26.0361C31.058 25.9741 31.008 25.9236 30.9461 25.9228C30.9435 25.9227 30.9421 25.9227 30.9383 25.9228H30.9382ZM30.9382 26.4853C30.8793 26.4889 30.8332 26.5373 30.8328 26.5967C30.8322 26.6594 30.8833 26.7103 30.9461 26.71C31.008 26.7095 31.0581 26.6587 31.0574 26.5967C31.0569 26.5354 31.0073 26.4861 30.9461 26.4853C30.9435 26.4852 30.9421 26.4852 30.9383 26.4853H30.9382ZM19.8504 26.6514V26.6534C19.6082 26.6567 19.3674 26.7542 19.1843 26.9424L17.3757 28.7998C17.0096 29.1759 17.0169 29.7736 17.3933 30.1397C17.7696 30.5059 18.367 30.497 18.7332 30.1202L20.5418 28.2608C20.9079 27.8843 20.9006 27.2871 20.5242 26.9209C20.336 26.738 20.0926 26.648 19.8504 26.6514ZM30.9382 27.0478C30.8793 27.0514 30.8332 27.0998 30.8328 27.1592C30.8322 27.2219 30.8833 27.2728 30.9461 27.2725C31.008 27.272 31.0581 27.2212 31.0574 27.1592C31.0569 27.0979 31.0073 27.0486 30.9461 27.0478C30.9435 27.0478 30.9421 27.0478 30.9383 27.0478H30.9382ZM19.9148 27.1357C19.9936 27.1395 20.0742 27.1736 20.1589 27.2432C20.5655 27.6049 20.0841 28.0286 19.9089 28.2119L19.0437 29.1162C18.4365 29.7476 18.1724 30.1744 17.7488 29.7666C17.3891 29.3932 17.707 29.1706 18.3953 28.4717L19.2605 27.5693C19.4659 27.3683 19.6785 27.1242 19.9148 27.1357ZM30.9382 27.6103C30.8793 27.6139 30.8332 27.6623 30.8328 27.7217C30.8322 27.7844 30.8833 27.8353 30.9461 27.835C31.008 27.8345 31.0581 27.7837 31.0574 27.7217C31.0569 27.6604 31.0073 27.6111 30.9461 27.6103C30.9435 27.6103 30.9421 27.6103 30.9383 27.6103H30.9382ZM30.9265 28.1728C30.8721 28.1804 30.8324 28.229 30.8328 28.2842C30.8333 28.3462 30.8837 28.3963 30.9461 28.3955C31.0073 28.395 31.057 28.3454 31.0574 28.2842C31.0569 28.2229 31.0073 28.1736 30.9461 28.1728C30.9385 28.1723 30.936 28.1723 30.9285 28.1728H30.9265ZM30.9461 28.7334C30.8833 28.7328 30.8324 28.7839 30.8328 28.8467C30.8333 28.9087 30.8837 28.9584 30.9461 28.958C31.0073 28.9575 31.0566 28.9083 31.0574 28.8467C31.0579 28.7847 31.0084 28.7341 30.9461 28.7334ZM25.4187 29.2139V29.2159C25.1765 29.2192 24.9358 29.3167 24.7527 29.5049L22.9441 31.3623C22.578 31.7384 22.5852 32.3361 22.9617 32.7022C23.3379 33.0684 23.9354 33.0617 24.3015 32.6827L26.1101 30.8233C26.4762 30.4468 26.469 29.8496 26.0925 29.4834C25.9044 29.3005 25.6609 29.2105 25.4187 29.2139ZM30.9382 29.2959C30.8785 29.2995 30.832 29.3491 30.8328 29.4092C30.8333 29.4712 30.8837 29.5209 30.9461 29.5205C31.0073 29.52 31.057 29.4708 31.0574 29.4092C31.058 29.3472 31.008 29.2966 30.9461 29.2959C30.9435 29.2958 30.9421 29.2958 30.9383 29.2959H30.9382ZM25.4832 29.7002C25.5619 29.704 25.6425 29.7381 25.7273 29.8076C26.1339 30.1693 25.6524 30.5911 25.4773 30.7744L24.6121 31.6787C24.0048 32.3101 23.7408 32.7369 23.3171 32.3291C22.9574 31.9557 23.2754 31.7351 23.9636 31.0361L24.8289 30.1318C25.0343 29.9308 25.2469 29.6886 25.4832 29.7002ZM30.9382 29.8584C30.8785 29.862 30.832 29.9116 30.8328 29.9717C30.8333 30.0337 30.8837 30.0834 30.9461 30.083C31.0073 30.0825 31.057 30.0333 31.0574 29.9717C31.058 29.9097 31.008 29.8591 30.9461 29.8584C30.9435 29.8583 30.9421 29.8583 30.9383 29.8584H30.9382ZM30.9382 30.4209C30.8785 30.4245 30.832 30.4741 30.8328 30.5342C30.8333 30.5962 30.8837 30.6463 30.9461 30.6455C31.0073 30.645 31.057 30.5954 31.0574 30.5342C31.058 30.4722 31.008 30.4216 30.9461 30.4209C30.9435 30.4208 30.9421 30.4208 30.9383 30.4209H30.9382ZM30.9382 30.9834C30.8793 30.987 30.8331 31.0354 30.8328 31.0947C30.8322 31.1575 30.8833 31.2084 30.9461 31.208C31.008 31.2075 31.0581 31.1567 31.0574 31.0947C31.0569 31.0335 31.0073 30.9841 30.9461 30.9834C30.9435 30.9833 30.9421 30.9833 30.9383 30.9834H30.9382ZM30.9382 31.5459C30.8793 31.5495 30.8331 31.5979 30.8328 31.6572C30.8322 31.72 30.8833 31.7709 30.9461 31.7705C31.008 31.77 31.0581 31.7192 31.0574 31.6572C31.0569 31.596 31.0073 31.5466 30.9461 31.5459C30.9435 31.5458 30.9421 31.5458 30.9383 31.5459H30.9382ZM19.8504 31.9111V31.9131C19.6082 31.9164 19.3674 32.014 19.1843 32.2022L17.3757 34.0596C17.0096 34.4357 17.0169 35.0333 17.3933 35.3995C17.7696 35.7657 18.367 35.7567 18.7332 35.3799L20.5418 33.5205C20.9079 33.1441 20.9006 32.5468 20.5242 32.1807C20.336 31.9978 20.0926 31.9078 19.8504 31.9112V31.9111ZM30.9265 32.1084C30.8721 32.116 30.8324 32.1645 30.8328 32.2197C30.8322 32.2825 30.8833 32.3334 30.9461 32.333C31.008 32.3325 31.0581 32.2817 31.0574 32.2197C31.0569 32.1585 31.0073 32.1091 30.9461 32.1084C30.9385 32.1078 30.936 32.1078 30.9285 32.1084H30.9265ZM19.9148 32.3955C19.9936 32.3993 20.0742 32.4334 20.1589 32.5029C20.5655 32.8646 20.0841 33.2884 19.9089 33.4717L19.0437 34.376C18.4365 35.0073 18.1724 35.4342 17.7488 35.0264C17.3891 34.6529 17.707 34.4304 18.3953 33.7314L19.2605 32.8271C19.4659 32.6261 19.6785 32.3839 19.9148 32.3955ZM30.9265 32.6709C30.8721 32.6785 30.8324 32.7274 30.8328 32.7822C30.8333 32.8442 30.8837 32.8939 30.9461 32.8935C31.0073 32.8931 31.057 32.8438 31.0574 32.7822C31.0569 32.721 31.0073 32.6713 30.9461 32.6709C30.9385 32.6703 30.936 32.6703 30.9285 32.6709H30.9265ZM30.9461 33.2314C30.8833 33.2308 30.8324 33.282 30.8328 33.3447C30.8333 33.4067 30.8837 33.4564 30.9461 33.456C31.0073 33.4556 31.0566 33.4063 31.0574 33.3447C31.0579 33.2827 31.0084 33.2322 30.9461 33.2314ZM30.9382 33.7939C30.8785 33.7975 30.832 33.8471 30.8328 33.9072C30.8333 33.9692 30.8837 34.0189 30.9461 34.0185C31.0073 34.0181 31.057 33.9688 31.0574 33.9072C31.058 33.8452 31.0081 33.7947 30.9461 33.7939C30.9435 33.7939 30.9421 33.7939 30.9383 33.7939H30.9382ZM30.9382 34.3564C30.8785 34.36 30.832 34.4096 30.8328 34.4697C30.8333 34.5317 30.8837 34.5814 30.9461 34.581C31.0073 34.5806 31.057 34.5313 31.0574 34.4697C31.058 34.4077 31.0081 34.3572 30.9461 34.3564C30.9435 34.3563 30.9421 34.3563 30.9383 34.3564H30.9382ZM23.8836 34.8252C23.6414 34.8285 23.4006 34.926 23.2175 35.1142L21.409 36.9717C21.0428 37.3477 21.0501 37.9454 21.4265 38.3115C21.8028 38.6777 22.4003 38.67 22.7664 38.2939L24.575 36.4346C24.9411 36.0581 24.9338 35.4608 24.5574 35.0947C24.3693 34.9118 24.1258 34.8218 23.8836 34.8252ZM30.9382 34.9189C30.8793 34.9225 30.8332 34.9709 30.8328 35.0303C30.8322 35.093 30.8833 35.1439 30.9461 35.1435C31.008 35.1431 31.0581 35.0922 31.0574 35.0303C31.0569 34.969 31.0073 34.9197 30.9461 34.9189C30.9435 34.9188 30.9421 34.9188 30.9383 34.9189H30.9382ZM23.948 35.3076C24.0268 35.3114 24.1074 35.3455 24.1922 35.415C24.5987 35.7767 24.1173 36.2005 23.9422 36.3838L23.0769 37.2881C22.4697 37.9194 22.2057 38.3463 21.782 37.9385C21.4223 37.565 21.7403 37.3425 22.4285 36.6435L23.2937 35.7392C23.4991 35.5382 23.7117 35.296 23.948 35.3076ZM30.9382 35.4814C30.8793 35.485 30.8332 35.5334 30.8328 35.5928C30.8322 35.6555 30.8833 35.7064 30.9461 35.706C31.008 35.7056 31.0581 35.6547 31.0574 35.5928C31.0569 35.5315 31.0073 35.4822 30.9461 35.4814C30.9435 35.4814 30.9421 35.4814 30.9383 35.4814H30.9382ZM30.9382 36.0439C30.8793 36.0475 30.8332 36.0959 30.8328 36.1553C30.8322 36.218 30.8833 36.2689 30.9461 36.2685C31.008 36.2681 31.0581 36.2172 31.0574 36.1553C31.0569 36.094 31.0073 36.0447 30.9461 36.0439C30.9435 36.0439 30.9421 36.0439 30.9383 36.0439H30.9382ZM30.9382 36.6064C30.8793 36.61 30.8332 36.6584 30.8328 36.7178C30.8322 36.7805 30.8833 36.8314 30.9461 36.831C31.008 36.8306 31.0581 36.7797 31.0574 36.7178C31.0569 36.6565 31.0073 36.6072 30.9461 36.6064C30.9435 36.6064 30.9421 36.6064 30.9383 36.6064H30.9382ZM30.9265 37.1689C30.8721 37.1765 30.8324 37.2251 30.8328 37.2803C30.8333 37.3422 30.8837 37.3923 30.9461 37.3916C31.0073 37.3911 31.057 37.3415 31.0574 37.2803C31.0569 37.219 31.0073 37.1697 30.9461 37.1689C30.9385 37.1684 30.936 37.1684 30.9285 37.1689H30.9265ZM30.9382 37.7295C30.8785 37.7331 30.832 37.7827 30.8328 37.8428C30.8333 37.9047 30.8837 37.9545 30.9461 37.9541C31.0073 37.9536 31.057 37.9044 31.0574 37.8428C31.058 37.7808 31.0081 37.7302 30.9461 37.7295C30.9435 37.7294 30.9421 37.7294 30.9383 37.7295H30.9382ZM30.9382 38.292C30.8785 38.2956 30.832 38.3452 30.8328 38.4053C30.8333 38.4672 30.8837 38.517 30.9461 38.5166C31.0073 38.5161 31.057 38.4669 31.0574 38.4053C31.058 38.3433 31.0081 38.2927 30.9461 38.292C30.9435 38.2919 30.9421 38.2919 30.9383 38.292H30.9382ZM30.9382 38.8545C30.8785 38.8581 30.832 38.9077 30.8328 38.9678C30.8333 39.0297 30.8837 39.0795 30.9461 39.0791C31.0073 39.0786 31.057 39.0294 31.0574 38.9678C31.058 38.9058 31.0081 38.8552 30.9461 38.8545C30.9435 38.8544 30.9421 38.8544 30.9383 38.8545H30.9382ZM30.9382 39.417C30.8793 39.4206 30.8332 39.469 30.8328 39.5283C30.8322 39.591 30.8833 39.642 30.9461 39.6416C31.008 39.6411 31.0581 39.5903 31.0574 39.5283C31.0569 39.4671 31.0073 39.4177 30.9461 39.417C30.9435 39.4169 30.9421 39.4169 30.9383 39.417H30.9382ZM30.9382 39.9795C30.8793 39.9831 30.8332 40.0315 30.8328 40.0908C30.8322 40.1535 30.8833 40.2045 30.9461 40.2041C31.008 40.2036 31.0581 40.1528 31.0574 40.0908C31.0569 40.0296 31.0073 39.9802 30.9461 39.9795C30.9435 39.9794 30.9421 39.9794 30.9383 39.9795H30.9382ZM30.9382 40.542C30.8793 40.5456 30.8332 40.594 30.8328 40.6533C30.8322 40.716 30.8833 40.767 30.9461 40.7666C31.008 40.7661 31.0581 40.7153 31.0574 40.6533C31.0569 40.5921 31.0073 40.5427 30.9461 40.542C30.9435 40.5419 30.9421 40.5419 30.9383 40.542H30.9382ZM30.9265 41.1045C30.8721 41.1121 30.8324 41.1606 30.8328 41.2158C30.8322 41.2785 30.8833 41.3295 30.9461 41.3291C31.008 41.3286 31.0581 41.2778 31.0574 41.2158C31.0569 41.1546 31.0073 41.1052 30.9461 41.1045C30.9385 41.1039 30.936 41.1039 30.9285 41.1045H30.9265ZM30.9265 41.667C30.8721 41.6746 30.8324 41.7231 30.8328 41.7783C30.8333 41.8403 30.8837 41.89 30.9461 41.8896C31.0073 41.8891 31.057 41.8399 31.0574 41.7783C31.0569 41.7171 31.0073 41.6677 30.9461 41.667C30.9385 41.6664 30.936 41.6664 30.9285 41.667H30.9265ZM30.9461 42.2275C30.8833 42.2269 30.8324 42.2781 30.8328 42.3408C30.8333 42.4028 30.8837 42.4525 30.9461 42.4521C31.0073 42.4516 31.0566 42.4024 31.0574 42.3408C31.058 42.2788 31.0084 42.2283 30.9461 42.2275ZM30.9383 42.79C30.8785 42.7936 30.832 42.8432 30.8328 42.9033C30.8333 42.9653 30.8837 43.015 30.9461 43.0146C31.0073 43.0141 31.057 42.9649 31.0574 42.9033C31.058 42.8413 31.0081 42.7908 30.9461 42.79C30.9435 42.7899 30.9421 42.7899 30.9383 42.79Z" fill="#333333"/>
</svg>
