<svg width="48" height="48" viewBox="0 0 48 48" fill="none" xmlns="http://www.w3.org/2000/svg">
<path fill-rule="evenodd" clip-rule="evenodd" d="M0 0.100098V48.1001H48V0.100098H0ZM28.9 4.0701C30.55 4.0701 32.2 4.0901 33.85 4.1201C34.72 4.1201 35.42 4.8201 35.42 5.6901V42.5501C35.42 43.4201 34.72 44.1201 33.85 44.1201H14.15C13.28 44.1201 12.58 43.4201 12.58 42.5501V5.6901C12.58 4.8201 13.28 4.1201 14.15 4.1201C19.12 4.1201 23.99 4.0601 28.91 4.0701H28.9ZM20.37 5.0501C20.3555 5.05135 20.3415 5.05546 20.3286 5.06218C20.3157 5.0689 20.3043 5.07811 20.295 5.08927C20.2857 5.10042 20.2787 5.11331 20.2744 5.12718C20.2701 5.14106 20.2686 5.15564 20.27 5.1701C20.2689 5.19077 20.2737 5.21133 20.2838 5.22942C20.2938 5.24751 20.3088 5.26238 20.327 5.27233C20.3451 5.28229 20.3657 5.28692 20.3864 5.28569C20.407 5.28446 20.4269 5.27743 20.4438 5.2654C20.4606 5.25336 20.4737 5.23682 20.4816 5.21767C20.4895 5.19852 20.4918 5.17753 20.4882 5.15713C20.4847 5.13673 20.4755 5.11774 20.4617 5.10235C20.4478 5.08695 20.4299 5.07577 20.41 5.0701L20.37 5.0501ZM27.62 5.0501C27.6055 5.05135 27.5915 5.05546 27.5786 5.06218C27.5657 5.0689 27.5543 5.07811 27.545 5.08927C27.5357 5.10042 27.5287 5.11331 27.5244 5.12718C27.5201 5.14106 27.5186 5.15564 27.52 5.1701C27.5189 5.19077 27.5237 5.21133 27.5338 5.22942C27.5438 5.24751 27.5588 5.26238 27.577 5.27233C27.5951 5.28229 27.6157 5.28692 27.6364 5.28569C27.657 5.28446 27.6769 5.27743 27.6938 5.2654C27.7106 5.25336 27.7237 5.23682 27.7316 5.21767C27.7395 5.19852 27.7418 5.17753 27.7382 5.15713C27.7347 5.13673 27.7255 5.11774 27.7117 5.10235C27.6978 5.08695 27.6799 5.07577 27.66 5.0701L27.62 5.0501ZM20.37 5.6201C20.346 5.61855 20.3222 5.62489 20.3022 5.63815C20.2822 5.65141 20.267 5.67086 20.2591 5.69353C20.2512 5.7162 20.2509 5.74084 20.2583 5.7637C20.2656 5.78655 20.2803 5.80636 20.3 5.8201C20.3239 5.83999 20.3547 5.84958 20.3856 5.84677C20.4166 5.84396 20.4451 5.82897 20.465 5.8051C20.4849 5.78123 20.4945 5.75043 20.4917 5.71949C20.4889 5.68855 20.4739 5.65999 20.45 5.6401C20.4269 5.62331 20.3983 5.61614 20.37 5.6201ZM27.62 5.6201C27.596 5.61855 27.5722 5.62489 27.5522 5.63815C27.5322 5.65141 27.517 5.67086 27.5091 5.69353C27.5012 5.7162 27.5009 5.74084 27.5083 5.7637C27.5156 5.78655 27.5303 5.80636 27.55 5.8201C27.5618 5.82995 27.5755 5.83737 27.5902 5.84195C27.6048 5.84652 27.6203 5.84816 27.6356 5.84677C27.6509 5.84538 27.6658 5.84098 27.6794 5.83383C27.6931 5.82668 27.7052 5.81692 27.715 5.8051C27.7248 5.79328 27.7323 5.77964 27.7369 5.76495C27.7414 5.75026 27.7431 5.73481 27.7417 5.71949C27.7403 5.70417 27.7359 5.68927 27.7287 5.67565C27.7216 5.66203 27.7118 5.64995 27.7 5.6401C27.6769 5.62331 27.6483 5.61614 27.62 5.6201ZM20.36 6.1801C20.3435 6.18097 20.3274 6.18555 20.3129 6.1935C20.2984 6.20144 20.2859 6.21256 20.2763 6.22601C20.2667 6.23946 20.2602 6.25491 20.2574 6.2712C20.2546 6.28748 20.2555 6.3042 20.26 6.3201C20.264 6.3506 20.2799 6.37827 20.3043 6.39702C20.3287 6.41578 20.3595 6.42408 20.39 6.4201C20.4205 6.41612 20.4482 6.40019 20.4669 6.37581C20.4857 6.35143 20.494 6.3206 20.49 6.2901C20.49 6.26092 20.4784 6.23295 20.4578 6.21232C20.4372 6.19169 20.4092 6.1801 20.38 6.1801H20.36ZM27.61 6.1801C27.5935 6.18097 27.5774 6.18555 27.5629 6.1935C27.5484 6.20144 27.5359 6.21256 27.5263 6.22601C27.5167 6.23946 27.5102 6.25491 27.5074 6.2712C27.5046 6.28748 27.5055 6.3042 27.51 6.3201C27.514 6.3506 27.5299 6.37827 27.5543 6.39702C27.5787 6.41578 27.6095 6.42408 27.64 6.4201C27.6705 6.41612 27.6982 6.40019 27.7169 6.37581C27.7357 6.35143 27.744 6.3206 27.74 6.2901C27.74 6.26092 27.7284 6.23295 27.7078 6.21232C27.6872 6.19169 27.6592 6.1801 27.63 6.1801H27.61ZM20.38 6.7401C20.3583 6.74059 20.3372 6.7475 20.3194 6.75995C20.3016 6.77241 20.2879 6.78986 20.28 6.8101C20.2712 6.82985 20.2683 6.85177 20.2719 6.87311C20.2755 6.89446 20.2852 6.91428 20.3 6.9301C20.3154 6.94643 20.3354 6.95767 20.3573 6.96232C20.3793 6.96696 20.4021 6.96479 20.4228 6.95608C20.4435 6.94738 20.461 6.93256 20.473 6.91362C20.485 6.89467 20.4909 6.87251 20.49 6.8501C20.49 6.83565 20.4872 6.82135 20.4816 6.808C20.4761 6.79466 20.468 6.78253 20.4578 6.77232C20.4476 6.7621 20.4354 6.754 20.4221 6.74847C20.4087 6.74294 20.3944 6.7401 20.38 6.7401ZM27.63 6.7401C27.6083 6.74059 27.5872 6.7475 27.5694 6.75995C27.5516 6.77241 27.5379 6.78986 27.53 6.8101C27.5212 6.82985 27.5183 6.85177 27.5219 6.87311C27.5255 6.89446 27.5352 6.91428 27.55 6.9301C27.5654 6.94643 27.5854 6.95767 27.6073 6.96232C27.6293 6.96696 27.6521 6.96479 27.6728 6.95608C27.6935 6.94738 27.711 6.93256 27.723 6.91362C27.735 6.89467 27.7409 6.87251 27.74 6.8501C27.74 6.83565 27.7372 6.82135 27.7316 6.808C27.7261 6.79466 27.718 6.78253 27.7078 6.77232C27.6976 6.7621 27.6854 6.754 27.6721 6.74847C27.6587 6.74294 27.6444 6.7401 27.63 6.7401ZM16.73 7.2401C16.5199 7.2401 16.3118 7.28148 16.1177 7.36189C15.9236 7.4423 15.7472 7.56015 15.5986 7.70873C15.4501 7.8573 15.3322 8.03368 15.2518 8.2278C15.1714 8.42193 15.13 8.62998 15.13 8.8401C15.13 9.05021 15.1714 9.25827 15.2518 9.45239C15.3322 9.64651 15.4501 9.82289 15.5986 9.97147C15.7472 10.12 15.9236 10.2379 16.1177 10.3183C16.3118 10.3987 16.5199 10.4401 16.73 10.4401C17.1543 10.4401 17.5613 10.2715 17.8614 9.97147C18.1614 9.67141 18.33 9.26444 18.33 8.8401C18.33 8.41575 18.1614 8.00879 17.8614 7.70873C17.5613 7.40867 17.1543 7.2401 16.73 7.2401ZM31.27 7.2401C31.0599 7.2355 30.8509 7.27234 30.655 7.3485C30.4592 7.42466 30.2802 7.53865 30.1284 7.68398C29.8218 7.97747 29.6443 8.38075 29.635 8.8051C29.6257 9.22944 29.7854 9.6401 30.0789 9.94672C30.3724 10.2533 30.7757 10.4308 31.2 10.4401C31.6243 10.4494 32.035 10.2897 32.3416 9.99622C32.6482 9.70272 32.8257 9.29944 32.835 8.8751C32.8443 8.45075 32.6846 8.0401 32.3911 7.73348C32.0976 7.42685 31.6943 7.24938 31.27 7.2401ZM20.37 7.3001C20.346 7.29855 20.3222 7.30489 20.3022 7.31815C20.2822 7.33141 20.267 7.35086 20.2591 7.37353C20.2512 7.3962 20.2509 7.42084 20.2583 7.4437C20.2656 7.46655 20.2803 7.48636 20.3 7.5001C20.3112 7.50995 20.3242 7.5175 20.3382 7.52233C20.3523 7.52716 20.3672 7.52916 20.3821 7.52823C20.3969 7.52731 20.4115 7.52346 20.4248 7.51692C20.4382 7.51037 20.4501 7.50126 20.46 7.4901C20.4698 7.47894 20.4774 7.46594 20.4822 7.45186C20.4871 7.43778 20.4891 7.42288 20.4881 7.40803C20.4872 7.39317 20.4834 7.37864 20.4768 7.36527C20.4703 7.3519 20.4612 7.33995 20.45 7.3301C20.4393 7.32001 20.4268 7.31217 20.413 7.30701C20.3993 7.30186 20.3847 7.29951 20.37 7.3001ZM27.62 7.3001C27.596 7.29855 27.5722 7.30489 27.5522 7.31815C27.5322 7.33141 27.517 7.35086 27.5091 7.37353C27.5012 7.3962 27.5009 7.42084 27.5083 7.4437C27.5156 7.46655 27.5303 7.48636 27.55 7.5001C27.5612 7.50995 27.5742 7.5175 27.5882 7.52233C27.6023 7.52716 27.6172 7.52916 27.6321 7.52823C27.6469 7.52731 27.6615 7.52346 27.6748 7.51692C27.6882 7.51037 27.7001 7.50126 27.71 7.4901C27.7198 7.47894 27.7274 7.46594 27.7322 7.45186C27.7371 7.43778 27.7391 7.42288 27.7381 7.40803C27.7372 7.39317 27.7334 7.37864 27.7268 7.36527C27.7203 7.3519 27.7112 7.33995 27.7 7.3301C27.6893 7.32001 27.6768 7.31217 27.663 7.30701C27.6493 7.30186 27.6347 7.29951 27.62 7.3001ZM20.37 7.8601C20.346 7.85855 20.3222 7.86489 20.3022 7.87815C20.2822 7.89141 20.267 7.91086 20.2591 7.93353C20.2512 7.9562 20.2509 7.98084 20.2583 8.0037C20.2656 8.02655 20.2803 8.04636 20.3 8.0601C20.3225 8.07999 20.3521 8.09011 20.3821 8.08823C20.4121 8.08636 20.4401 8.07264 20.46 8.0501C20.4799 8.02755 20.49 7.99803 20.4881 7.96803C20.4863 7.93802 20.4725 7.90999 20.45 7.8901C20.4393 7.88001 20.4268 7.87217 20.413 7.86701C20.3993 7.86186 20.3847 7.85951 20.37 7.8601ZM27.62 7.8601C27.596 7.85855 27.5722 7.86489 27.5522 7.87815C27.5322 7.89141 27.517 7.91086 27.5091 7.93353C27.5012 7.9562 27.5009 7.98084 27.5083 8.0037C27.5156 8.02655 27.5303 8.04636 27.55 8.0601C27.5612 8.06995 27.5742 8.0775 27.5882 8.08233C27.6023 8.08716 27.6172 8.08916 27.6321 8.08823C27.6469 8.08731 27.6615 8.08346 27.6748 8.07692C27.6882 8.07037 27.7001 8.06126 27.71 8.0501C27.7198 8.03894 27.7274 8.02594 27.7322 8.01186C27.7371 7.99778 27.7391 7.98288 27.7381 7.96803C27.7372 7.95317 27.7334 7.93864 27.7268 7.92527C27.7203 7.9119 27.7112 7.89995 27.7 7.8901C27.6893 7.88001 27.6768 7.87217 27.663 7.86701C27.6493 7.86186 27.6347 7.85951 27.62 7.8601ZM20.37 8.4301C20.3556 8.43075 20.3414 8.43425 20.3283 8.44038C20.3152 8.44652 20.3034 8.45517 20.2937 8.46585C20.274 8.48742 20.2637 8.51592 20.265 8.5451C20.2663 8.57427 20.2792 8.60172 20.3008 8.62141C20.3223 8.64111 20.3508 8.65142 20.38 8.6501C20.4092 8.64877 20.4366 8.63591 20.4563 8.61434C20.476 8.59278 20.4863 8.56427 20.485 8.5351C20.4837 8.50592 20.4708 8.47847 20.4492 8.45878C20.4277 8.43909 20.3992 8.42877 20.37 8.4301ZM27.62 8.4301C27.6056 8.43075 27.5914 8.43425 27.5783 8.44038C27.5652 8.44652 27.5534 8.45517 27.5437 8.46585C27.5339 8.47653 27.5264 8.48902 27.5215 8.50262C27.5165 8.51622 27.5143 8.53065 27.515 8.5451C27.5157 8.55954 27.5192 8.57372 27.5253 8.58681C27.5314 8.59991 27.5401 8.61166 27.5508 8.62141C27.5614 8.63116 27.5739 8.63872 27.5875 8.64364C27.6011 8.64856 27.6156 8.65075 27.63 8.6501C27.6592 8.64877 27.6866 8.63591 27.7063 8.61434C27.726 8.59278 27.7363 8.56427 27.735 8.5351C27.7337 8.50592 27.7208 8.47847 27.6992 8.45878C27.6777 8.43909 27.6492 8.42877 27.62 8.4301ZM20.37 8.9901C20.3426 8.9926 20.3171 9.00528 20.2986 9.02565C20.2801 9.04601 20.2699 9.07258 20.27 9.1001C20.27 9.1601 20.31 9.2101 20.37 9.2101C20.3853 9.21149 20.4007 9.20968 20.4152 9.20478C20.4297 9.19988 20.443 9.192 20.4543 9.18164C20.4656 9.17128 20.4746 9.15868 20.4808 9.14464C20.4869 9.13059 20.4901 9.11542 20.49 9.1001C20.4893 9.08471 20.4854 9.06963 20.4785 9.05585C20.4716 9.04207 20.4619 9.02989 20.45 9.0201C20.4393 9.01001 20.4268 9.00217 20.413 8.99701C20.3993 8.99186 20.3847 8.98951 20.37 8.9901ZM27.62 8.9901C27.5926 8.9926 27.5671 9.00528 27.5486 9.02565C27.5301 9.04601 27.5199 9.07258 27.52 9.1001C27.52 9.1601 27.56 9.2101 27.62 9.2101C27.6353 9.21149 27.6507 9.20968 27.6652 9.20478C27.6797 9.19988 27.693 9.192 27.7043 9.18164C27.7156 9.17128 27.7246 9.15868 27.7308 9.14464C27.7369 9.13059 27.7401 9.11542 27.74 9.1001C27.7393 9.08471 27.7354 9.06963 27.7285 9.05585C27.7216 9.04207 27.7119 9.02989 27.7 9.0201C27.6893 9.01001 27.6768 9.00217 27.663 8.99701C27.6493 8.99186 27.6347 8.98951 27.62 8.9901ZM24 9.0701C23.7899 9.0701 23.5818 9.11148 23.3877 9.19189C23.1936 9.2723 23.0172 9.39015 22.8686 9.53873C22.7201 9.6873 22.6022 9.86368 22.5218 10.0578C22.4414 10.2519 22.4 10.46 22.4 10.6701C22.4 10.8802 22.4414 11.0883 22.5218 11.2824C22.6022 11.4765 22.7201 11.6529 22.8686 11.8015C23.0172 11.95 23.1936 12.0679 23.3877 12.1483C23.5818 12.2287 23.7899 12.2701 24 12.2701C24.4243 12.2701 24.8313 12.1015 25.1314 11.8015C25.4314 11.5014 25.6 11.0944 25.6 10.6701C25.6 10.2458 25.4314 9.83879 25.1314 9.53873C24.8313 9.23867 24.4243 9.0701 24 9.0701ZM20.37 9.5501C20.3426 9.5526 20.3171 9.56528 20.2986 9.58565C20.2801 9.60601 20.2699 9.63258 20.27 9.6601C20.265 9.67714 20.2642 9.69514 20.2677 9.71255C20.2712 9.72997 20.2788 9.74628 20.29 9.7601C20.3003 9.77266 20.3133 9.78278 20.328 9.78973C20.3427 9.79667 20.3587 9.80028 20.375 9.80028C20.3913 9.80028 20.4073 9.79667 20.422 9.78973C20.4367 9.78278 20.4497 9.77266 20.46 9.7601C20.4729 9.74722 20.4824 9.73134 20.4876 9.71388C20.4929 9.69643 20.4937 9.67795 20.49 9.6601C20.4887 9.64563 20.4846 9.63155 20.4779 9.61868C20.4712 9.60581 20.462 9.5944 20.4508 9.5851C20.4397 9.5758 20.4268 9.56881 20.4129 9.56452C20.399 9.56022 20.3845 9.55872 20.37 9.5601V9.5501ZM27.62 9.5501C27.5926 9.5526 27.5671 9.56528 27.5486 9.58565C27.5301 9.60601 27.5199 9.63258 27.52 9.6601C27.515 9.67714 27.5142 9.69514 27.5177 9.71255C27.5212 9.72997 27.5288 9.74628 27.54 9.7601C27.5503 9.77266 27.5633 9.78278 27.578 9.78973C27.5927 9.79667 27.6087 9.80028 27.625 9.80028C27.6413 9.80028 27.6573 9.79667 27.672 9.78973C27.6867 9.78278 27.6997 9.77266 27.71 9.7601C27.7229 9.74722 27.7324 9.73134 27.7376 9.71388C27.7429 9.69643 27.7437 9.67795 27.74 9.6601C27.7387 9.64563 27.7346 9.63155 27.7279 9.61868C27.7212 9.60581 27.712 9.5944 27.7008 9.5851C27.6897 9.5758 27.6768 9.56881 27.6629 9.56452C27.649 9.56022 27.6345 9.55872 27.62 9.5601V9.5501ZM20.35 10.1101C20.3 10.1201 20.26 10.1701 20.26 10.2301C20.258 10.2464 20.2596 10.2629 20.2648 10.2785C20.27 10.2941 20.2786 10.3083 20.29 10.3201C20.302 10.3384 20.3193 10.3527 20.3395 10.3612C20.3597 10.3696 20.382 10.3718 20.4035 10.3675C20.425 10.3632 20.4447 10.3526 20.4601 10.337C20.4755 10.3215 20.4859 10.3016 20.49 10.2801V10.2301C20.4901 10.2135 20.4867 10.197 20.48 10.1817C20.4734 10.1665 20.4636 10.1528 20.4514 10.1415C20.4392 10.1302 20.4247 10.1216 20.409 10.1162C20.3933 10.1108 20.3766 10.1087 20.36 10.1101H20.35ZM27.6 10.1101C27.55 10.1201 27.51 10.1701 27.51 10.2301C27.508 10.2464 27.5096 10.2629 27.5148 10.2785C27.52 10.2941 27.5286 10.3083 27.54 10.3201C27.552 10.3384 27.5693 10.3527 27.5895 10.3612C27.6097 10.3696 27.632 10.3718 27.6535 10.3675C27.675 10.3632 27.6947 10.3526 27.7101 10.337C27.7255 10.3215 27.7359 10.3016 27.74 10.2801V10.2301C27.7401 10.2135 27.7367 10.197 27.73 10.1817C27.7234 10.1665 27.7136 10.1528 27.7014 10.1415C27.6892 10.1302 27.6747 10.1216 27.659 10.1162C27.6433 10.1108 27.6266 10.1087 27.61 10.1101H27.6ZM20.38 10.6701C20.3639 10.6685 20.3476 10.6706 20.3323 10.6761C20.317 10.6816 20.3032 10.6903 20.2917 10.7018C20.2802 10.7133 20.2715 10.7271 20.266 10.7424C20.2605 10.7577 20.2585 10.774 20.26 10.7901C20.26 10.8501 20.31 10.8901 20.38 10.8901C20.4058 10.8878 20.4299 10.8766 20.4482 10.8583C20.4665 10.84 20.4777 10.8159 20.48 10.7901C20.4814 10.7756 20.4799 10.7611 20.4756 10.7472C20.4713 10.7333 20.4643 10.7204 20.455 10.7093C20.4457 10.6981 20.4343 10.6889 20.4214 10.6822C20.4085 10.6755 20.3945 10.6714 20.38 10.6701ZM27.63 10.6701C27.6139 10.6685 27.5976 10.6706 27.5823 10.6761C27.567 10.6816 27.5532 10.6903 27.5417 10.7018C27.5302 10.7133 27.5215 10.7271 27.516 10.7424C27.5105 10.7577 27.5085 10.774 27.51 10.7901C27.51 10.8501 27.56 10.8901 27.63 10.8901C27.6558 10.8878 27.6799 10.8766 27.6982 10.8583C27.7165 10.84 27.7277 10.8159 27.73 10.7901C27.7314 10.7756 27.7299 10.7611 27.7256 10.7472C27.7213 10.7333 27.7143 10.7204 27.705 10.7093C27.6957 10.6981 27.6843 10.6889 27.6714 10.6822C27.6585 10.6755 27.6445 10.6714 27.63 10.6701ZM16.73 11.0701C16.3057 11.0701 15.8987 11.2387 15.5986 11.5387C15.2986 11.8388 15.13 12.2458 15.13 12.6701C15.13 13.0944 15.2986 13.5014 15.5986 13.8015C15.8987 14.1015 16.3057 14.2701 16.73 14.2701C17.1543 14.2701 17.5613 14.1015 17.8614 13.8015C18.1614 13.5014 18.33 13.0944 18.33 12.6701C18.33 12.2458 18.1614 11.8388 17.8614 11.5387C17.5613 11.2387 17.1543 11.0701 16.73 11.0701ZM31.27 11.0701C31.0599 11.0655 30.8509 11.1023 30.655 11.1785C30.4592 11.2547 30.2802 11.3687 30.1284 11.514C29.9766 11.6593 29.8548 11.8331 29.7702 12.0255C29.6855 12.2178 29.6396 12.425 29.635 12.6351C29.6304 12.8452 29.6672 13.0542 29.7434 13.2501C29.8196 13.4459 29.9336 13.6249 30.0789 13.7767C30.2242 13.9285 30.398 14.0503 30.5904 14.1349C30.7827 14.2196 30.9899 14.2655 31.2 14.2701C31.6243 14.2794 32.035 14.1197 32.3416 13.8262C32.6482 13.5327 32.8257 13.1294 32.835 12.7051C32.8443 12.2808 32.6846 11.8701 32.3911 11.5635C32.0976 11.2569 31.6943 11.0794 31.27 11.0701ZM20.37 11.2401C20.3494 11.2397 20.3291 11.2451 20.3114 11.2558C20.2937 11.2664 20.2794 11.2817 20.27 11.3001C20.2589 11.321 20.2548 11.345 20.2584 11.3684C20.262 11.3918 20.2731 11.4135 20.29 11.4301C20.3018 11.4415 20.316 11.4501 20.3316 11.4553C20.3472 11.4605 20.3637 11.4621 20.38 11.4601C20.4092 11.4601 20.4372 11.4485 20.4578 11.4279C20.4784 11.4073 20.49 11.3793 20.49 11.3501C20.49 11.3209 20.4784 11.2929 20.4578 11.2723C20.4372 11.2517 20.4092 11.2401 20.38 11.2401H20.37ZM27.63 11.2401C27.6062 11.2355 27.5815 11.2388 27.5598 11.2497C27.5381 11.2605 27.5206 11.2783 27.51 11.3001C27.5001 11.3221 27.4976 11.3467 27.503 11.3702C27.5085 11.3937 27.5214 11.4147 27.54 11.4301C27.5518 11.4415 27.566 11.4501 27.5816 11.4553C27.5972 11.4605 27.6137 11.4621 27.63 11.4601C27.6592 11.4601 27.6872 11.4485 27.7078 11.4279C27.7284 11.4073 27.74 11.3793 27.74 11.3501C27.74 11.3209 27.7284 11.2929 27.7078 11.2723C27.6872 11.2517 27.6592 11.2401 27.63 11.2401ZM20.37 11.8001C20.3395 11.8001 20.3102 11.8122 20.2887 11.8338C20.2671 11.8553 20.255 11.8846 20.255 11.9151C20.255 11.9456 20.2671 11.9748 20.2887 11.9964C20.3102 12.018 20.3395 12.0301 20.37 12.0301C20.3949 12.0345 20.4206 12.0302 20.4427 12.0179C20.4648 12.0057 20.482 11.9861 20.4914 11.9626C20.5008 11.9392 20.5018 11.9132 20.4942 11.889C20.4867 11.8649 20.4711 11.8441 20.45 11.8301C20.4393 11.82 20.4268 11.8122 20.413 11.807C20.3993 11.8019 20.3847 11.7995 20.37 11.8001ZM27.62 11.8001C27.5895 11.8001 27.5602 11.8122 27.5387 11.8338C27.5171 11.8553 27.505 11.8846 27.505 11.9151C27.505 11.9456 27.5171 11.9748 27.5387 11.9964C27.5602 12.018 27.5895 12.0301 27.62 12.0301C27.6449 12.0345 27.6706 12.0302 27.6927 12.0179C27.7148 12.0057 27.732 11.9861 27.7414 11.9626C27.7508 11.9392 27.7518 11.9132 27.7442 11.889C27.7367 11.8649 27.7211 11.8441 27.7 11.8301C27.6893 11.82 27.6768 11.8122 27.663 11.807C27.6493 11.8019 27.6347 11.7995 27.62 11.8001ZM20.37 12.3601C20.3395 12.3601 20.3102 12.3722 20.2887 12.3938C20.2671 12.4153 20.255 12.4446 20.255 12.4751C20.255 12.5056 20.2671 12.5348 20.2887 12.5564C20.3102 12.578 20.3395 12.5901 20.37 12.5901C20.389 12.5904 20.4078 12.5859 20.4245 12.5768C20.4412 12.5678 20.4552 12.5545 20.4653 12.5384C20.4754 12.5223 20.4811 12.5039 20.4819 12.4849C20.4827 12.4659 20.4786 12.447 20.47 12.4301C20.4621 12.4099 20.4484 12.3924 20.4306 12.38C20.4128 12.3675 20.3917 12.3606 20.37 12.3601ZM27.62 12.3601C27.5895 12.3601 27.5602 12.3722 27.5387 12.3938C27.5171 12.4153 27.505 12.4446 27.505 12.4751C27.505 12.5056 27.5171 12.5348 27.5387 12.5564C27.5602 12.578 27.5895 12.5901 27.62 12.5901C27.639 12.5904 27.6578 12.5859 27.6745 12.5768C27.6912 12.5678 27.7052 12.5545 27.7153 12.5384C27.7254 12.5223 27.7311 12.5039 27.7319 12.4849C27.7327 12.4659 27.7286 12.447 27.72 12.4301C27.7121 12.4099 27.6984 12.3924 27.6806 12.38C27.6628 12.3675 27.6417 12.3606 27.62 12.3601ZM24 12.9001C23.7899 12.9001 23.5818 12.9415 23.3877 13.0219C23.1936 13.1023 23.0172 13.2202 22.8686 13.3687C22.7201 13.5173 22.6022 13.6937 22.5218 13.8878C22.4414 14.0819 22.4 14.29 22.4 14.5001C22.4 14.7102 22.4414 14.9183 22.5218 15.1124C22.6022 15.3065 22.7201 15.4829 22.8686 15.6315C23.0172 15.78 23.1936 15.8979 23.3877 15.9783C23.5818 16.0587 23.7899 16.1001 24 16.1001C24.4243 16.1001 24.8313 15.9315 25.1314 15.6315C25.4314 15.3314 25.6 14.9244 25.6 14.5001C25.6 14.0758 25.4314 13.6688 25.1314 13.3687C24.8313 13.0687 24.4243 12.9001 24 12.9001ZM20.37 12.9301C20.3483 12.9306 20.3272 12.9375 20.3094 12.95C20.2916 12.9624 20.2779 12.9799 20.27 13.0001C20.2637 13.0143 20.2604 13.0296 20.2604 13.0451C20.2604 13.0606 20.2637 13.0759 20.27 13.0901C20.2777 13.1027 20.2879 13.1136 20.2999 13.1222C20.3119 13.1308 20.3256 13.1369 20.34 13.1401C20.3555 13.1468 20.3724 13.1499 20.3893 13.1491C20.4062 13.1482 20.4227 13.1435 20.4375 13.1353C20.4523 13.127 20.465 13.1154 20.4745 13.1015C20.4841 13.0875 20.4904 13.0715 20.4928 13.0548C20.4952 13.038 20.4936 13.0209 20.4884 13.0048C20.4831 12.9888 20.4741 12.9741 20.4622 12.962C20.4504 12.95 20.4359 12.9408 20.4199 12.9353C20.4039 12.9297 20.3868 12.928 20.37 12.9301ZM27.62 12.9301C27.5983 12.9306 27.5772 12.9375 27.5594 12.95C27.5416 12.9624 27.5279 12.9799 27.52 13.0001C27.5137 13.0143 27.5104 13.0296 27.5104 13.0451C27.5104 13.0606 27.5137 13.0759 27.52 13.0901C27.5277 13.1027 27.5379 13.1136 27.5499 13.1222C27.5619 13.1308 27.5756 13.1369 27.59 13.1401C27.6055 13.1468 27.6224 13.1499 27.6393 13.1491C27.6562 13.1482 27.6727 13.1435 27.6875 13.1353C27.7023 13.127 27.715 13.1154 27.7245 13.1015C27.7341 13.0875 27.7404 13.0715 27.7428 13.0548C27.7452 13.038 27.7436 13.0209 27.7384 13.0048C27.7331 12.9888 27.7241 12.9741 27.7122 12.962C27.7004 12.95 27.6859 12.9408 27.6699 12.9353C27.6539 12.9297 27.6368 12.928 27.62 12.9301ZM20.37 13.4901C20.3555 13.4914 20.3415 13.4955 20.3286 13.5022C20.3157 13.5089 20.3043 13.5181 20.295 13.5293C20.2857 13.5404 20.2787 13.5533 20.2744 13.5672C20.2701 13.5811 20.2686 13.5956 20.27 13.6101C20.2725 13.6375 20.2852 13.663 20.3056 13.6815C20.3259 13.7 20.3525 13.7102 20.38 13.7101C20.404 13.7116 20.4278 13.7053 20.4478 13.692C20.4678 13.6788 20.483 13.6593 20.4909 13.6367C20.4988 13.614 20.4991 13.5894 20.4917 13.5665C20.4844 13.5436 20.4697 13.5238 20.45 13.5101C20.4269 13.4933 20.3983 13.4861 20.37 13.4901ZM27.62 13.4901C27.596 13.4886 27.5722 13.4949 27.5522 13.5082C27.5322 13.5214 27.517 13.5409 27.5091 13.5635C27.5012 13.5862 27.5009 13.6108 27.5083 13.6337C27.5156 13.6566 27.5303 13.6764 27.55 13.6901C27.5639 13.6998 27.5799 13.7062 27.5967 13.7087C27.6135 13.7112 27.6306 13.7098 27.6467 13.7045C27.6629 13.6993 27.6776 13.6904 27.6898 13.6786C27.7019 13.6667 27.7111 13.6522 27.7167 13.6362C27.7223 13.6202 27.7242 13.6031 27.7221 13.5863C27.72 13.5694 27.714 13.5533 27.7046 13.5391C27.6953 13.525 27.6828 13.5132 27.6681 13.5047C27.6534 13.4962 27.6369 13.4912 27.62 13.4901ZM20.37 14.0501C20.3471 14.0513 20.3251 14.0597 20.3072 14.074C20.2892 14.0884 20.2762 14.108 20.27 14.1301C20.26 14.1558 20.26 14.1844 20.27 14.2101C20.2766 14.2246 20.2863 14.2374 20.2984 14.2478C20.3105 14.2581 20.3247 14.2658 20.34 14.2701C20.3692 14.2741 20.3987 14.2663 20.4222 14.2485C20.4456 14.2307 20.461 14.2043 20.465 14.1751C20.469 14.1459 20.4612 14.1164 20.4434 14.0929C20.4256 14.0695 20.3992 14.0541 20.37 14.0501ZM27.62 14.0501C27.5971 14.0513 27.5751 14.0597 27.5572 14.074C27.5392 14.0884 27.5262 14.108 27.52 14.1301C27.51 14.1558 27.51 14.1844 27.52 14.2101C27.5266 14.2246 27.5363 14.2374 27.5484 14.2478C27.5605 14.2581 27.5747 14.2658 27.59 14.2701C27.6044 14.2721 27.6191 14.2712 27.6332 14.2675C27.6473 14.2638 27.6606 14.2573 27.6722 14.2485C27.6838 14.2397 27.6935 14.2286 27.7009 14.2161C27.7082 14.2035 27.713 14.1895 27.715 14.1751C27.717 14.1607 27.7161 14.146 27.7124 14.1319C27.7087 14.1178 27.7022 14.1045 27.6934 14.0929C27.6846 14.0813 27.6735 14.0716 27.661 14.0642C27.6484 14.0569 27.6344 14.0521 27.62 14.0501ZM20.35 14.6101C20.3226 14.615 20.2981 14.6301 20.2814 14.6524C20.2647 14.6746 20.257 14.7024 20.26 14.7301C20.2621 14.7517 20.2705 14.7722 20.2842 14.7891C20.2979 14.8059 20.3163 14.8184 20.337 14.8248C20.3577 14.8312 20.3799 14.8313 20.4008 14.8252C20.4216 14.819 20.4401 14.8068 20.454 14.7901C20.4679 14.7734 20.4766 14.753 20.4789 14.7314C20.4812 14.7098 20.4771 14.688 20.467 14.6688C20.457 14.6495 20.4414 14.6337 20.4224 14.6232C20.4033 14.6128 20.3816 14.6082 20.36 14.6101H20.35ZM27.6 14.6101C27.5726 14.615 27.5481 14.6301 27.5314 14.6524C27.5147 14.6746 27.507 14.7024 27.51 14.7301C27.5121 14.7517 27.5205 14.7722 27.5342 14.7891C27.5479 14.8059 27.5663 14.8184 27.587 14.8248C27.6077 14.8312 27.6299 14.8313 27.6508 14.8252C27.6716 14.819 27.6901 14.8068 27.704 14.7901C27.7179 14.7734 27.7266 14.753 27.7289 14.7314C27.7312 14.7098 27.7271 14.688 27.717 14.6688C27.707 14.6495 27.6914 14.6337 27.6724 14.6232C27.6533 14.6128 27.6316 14.6082 27.61 14.6101H27.6ZM16.72 14.9101C16.5099 14.9048 16.3008 14.941 16.1047 15.0166C15.9085 15.0921 15.7292 15.2056 15.5769 15.3504C15.4246 15.4953 15.3024 15.6687 15.2171 15.8608C15.1318 16.053 15.0853 16.26 15.08 16.4701C15.0747 16.6802 15.1109 16.8893 15.1865 17.0854C15.262 17.2816 15.3755 17.4609 15.5203 17.6132C15.6652 17.7655 15.8386 17.8877 16.0308 17.973C16.2229 18.0583 16.4299 18.1048 16.64 18.1101C16.8501 18.1154 17.0592 18.0792 17.2553 18.0036C17.4515 17.9281 17.6308 17.8146 17.7831 17.6698C17.9354 17.5249 18.0576 17.3515 18.1429 17.1593C18.2282 16.9672 18.2747 16.7602 18.28 16.5501C18.2853 16.34 18.2491 16.1309 18.1735 15.9348C18.098 15.7386 17.9845 15.5593 17.8397 15.407C17.6948 15.2547 17.5214 15.1325 17.3292 15.0472C17.1371 14.9619 16.9301 14.9153 16.72 14.9101ZM31.27 14.9101C31.0599 14.9055 30.8509 14.9423 30.655 15.0185C30.4592 15.0947 30.2802 15.2087 30.1284 15.354C29.9766 15.4993 29.8548 15.6731 29.7702 15.8655C29.6855 16.0578 29.6396 16.265 29.635 16.4751C29.6304 16.6852 29.6672 16.8942 29.7434 17.0901C29.8196 17.2859 29.9336 17.4649 30.0789 17.6167C30.2242 17.7685 30.398 17.8903 30.5904 17.9749C30.7827 18.0596 30.9899 18.1055 31.2 18.1101C31.6243 18.1194 32.035 17.9597 32.3416 17.6662C32.6482 17.3727 32.8257 16.9694 32.835 16.5451C32.8443 16.1208 32.6846 15.7101 32.3911 15.4035C32.0976 15.0969 31.6943 14.9194 31.27 14.9101ZM20.36 15.1801C20.3369 15.1808 20.3146 15.1887 20.2962 15.2028C20.2779 15.2168 20.2645 15.2363 20.2578 15.2584C20.2512 15.2806 20.2517 15.3042 20.2593 15.3261C20.2668 15.3479 20.2811 15.3668 20.3 15.3801C20.3171 15.3946 20.3381 15.4035 20.3604 15.4057C20.3826 15.4079 20.4051 15.4033 20.4246 15.3924C20.4442 15.3815 20.4599 15.365 20.4698 15.3449C20.4797 15.3248 20.4833 15.3022 20.48 15.2801C20.4777 15.2543 20.4665 15.2302 20.4482 15.2119C20.4299 15.1936 20.4058 15.1824 20.38 15.1801H20.36ZM27.61 15.1801C27.5869 15.1808 27.5646 15.1887 27.5462 15.2028C27.5279 15.2168 27.5145 15.2363 27.5078 15.2584C27.5012 15.2806 27.5017 15.3042 27.5093 15.3261C27.5168 15.3479 27.5311 15.3668 27.55 15.3801C27.5671 15.3946 27.5881 15.4035 27.6104 15.4057C27.6326 15.4079 27.6551 15.4033 27.6746 15.3924C27.6942 15.3815 27.7099 15.365 27.7198 15.3449C27.7297 15.3248 27.7333 15.3022 27.73 15.2801C27.7277 15.2543 27.7165 15.2302 27.6982 15.2119C27.6799 15.1936 27.6558 15.1824 27.63 15.1801H27.61ZM20.38 15.7401C20.3562 15.7355 20.3315 15.7388 20.3098 15.7497C20.2881 15.7605 20.2706 15.7783 20.26 15.8001C20.2501 15.8221 20.2476 15.8467 20.253 15.8702C20.2585 15.8937 20.2714 15.9147 20.29 15.9301C20.3018 15.9415 20.316 15.9501 20.3316 15.9553C20.3472 15.9605 20.3637 15.9621 20.38 15.9601C20.4092 15.9601 20.4372 15.9485 20.4578 15.9279C20.4784 15.9073 20.49 15.8793 20.49 15.8501C20.49 15.8209 20.4784 15.7929 20.4578 15.7723C20.4372 15.7517 20.4092 15.7401 20.38 15.7401ZM27.63 15.7401C27.6062 15.7355 27.5815 15.7388 27.5598 15.7497C27.5381 15.7605 27.5206 15.7783 27.51 15.8001C27.5001 15.8221 27.4976 15.8467 27.503 15.8702C27.5085 15.8937 27.5214 15.9147 27.54 15.9301C27.5518 15.9415 27.566 15.9501 27.5816 15.9553C27.5972 15.9605 27.6137 15.9621 27.63 15.9601C27.6592 15.9601 27.6872 15.9485 27.7078 15.9279C27.7284 15.9073 27.74 15.8793 27.74 15.8501C27.74 15.8209 27.7284 15.7929 27.7078 15.7723C27.6872 15.7517 27.6592 15.7401 27.63 15.7401ZM20.37 16.3001C20.3426 16.3026 20.3171 16.3153 20.2986 16.3356C20.2801 16.356 20.2699 16.3826 20.27 16.4101C20.27 16.4701 20.31 16.5201 20.37 16.5201C20.3992 16.5201 20.4272 16.5085 20.4478 16.4879C20.4684 16.4672 20.48 16.4393 20.48 16.4101C20.48 16.3809 20.4684 16.3529 20.4478 16.3323C20.4272 16.3117 20.3992 16.3001 20.37 16.3001ZM27.62 16.3001C27.5926 16.3026 27.5671 16.3153 27.5486 16.3356C27.5301 16.356 27.5199 16.3826 27.52 16.4101C27.52 16.4701 27.56 16.5201 27.62 16.5201C27.6492 16.5201 27.6772 16.5085 27.6978 16.4879C27.7184 16.4672 27.73 16.4393 27.73 16.4101C27.73 16.3809 27.7184 16.3529 27.6978 16.3323C27.6772 16.3117 27.6492 16.3001 27.62 16.3001ZM24 16.7401C23.7899 16.7401 23.5818 16.7815 23.3877 16.8619C23.1936 16.9423 23.0172 17.0602 22.8686 17.2087C22.7201 17.3573 22.6022 17.5337 22.5218 17.7278C22.4414 17.9219 22.4 18.13 22.4 18.3401C22.4 18.5502 22.4414 18.7583 22.5218 18.9524C22.6022 19.1465 22.7201 19.3229 22.8686 19.4715C23.0172 19.62 23.1936 19.7379 23.3877 19.8183C23.5818 19.8987 23.7899 19.9401 24 19.9401C24.4243 19.9401 24.8313 19.7715 25.1314 19.4715C25.4314 19.1714 25.6 18.7644 25.6 18.3401C25.6 17.9158 25.4314 17.5088 25.1314 17.2087C24.8313 16.9087 24.4243 16.7401 24 16.7401ZM20.37 17.9901C20.3451 17.9857 20.3194 17.99 20.2973 18.0023C20.2752 18.0145 20.258 18.0341 20.2486 18.0575C20.2392 18.081 20.2382 18.107 20.2458 18.1312C20.2533 18.1553 20.2689 18.1761 20.29 18.1901C20.3038 18.2013 20.3201 18.2089 20.3375 18.2124C20.355 18.2159 20.373 18.2151 20.39 18.2101C20.4192 18.2074 20.4461 18.1933 20.4649 18.1708C20.4836 18.1483 20.4927 18.1193 20.49 18.0901C20.4873 18.0609 20.4732 18.034 20.4507 18.0152C20.4282 17.9965 20.3992 17.9874 20.37 17.9901ZM27.62 17.9901C27.5951 17.9857 27.5694 17.99 27.5473 18.0023C27.5252 18.0145 27.508 18.0341 27.4986 18.0575C27.4892 18.081 27.4882 18.107 27.4958 18.1312C27.5033 18.1553 27.5189 18.1761 27.54 18.1901C27.5538 18.2013 27.5701 18.2089 27.5875 18.2124C27.605 18.2159 27.623 18.2151 27.64 18.2101C27.6692 18.2074 27.6961 18.1933 27.7149 18.1708C27.7336 18.1483 27.7427 18.1193 27.74 18.0901C27.7373 18.0609 27.7232 18.034 27.7007 18.0152C27.6782 17.9965 27.6492 17.9874 27.62 17.9901ZM20.37 18.5501C20.3483 18.5506 20.3272 18.5575 20.3094 18.57C20.2916 18.5824 20.2779 18.5999 20.27 18.6201C20.2637 18.6343 20.2604 18.6496 20.2604 18.6651C20.2604 18.6806 20.2637 18.6959 20.27 18.7101C20.2766 18.7246 20.2863 18.7374 20.2984 18.7478C20.3105 18.7581 20.3247 18.7658 20.34 18.7701C20.3544 18.7721 20.3691 18.7712 20.3832 18.7675C20.3973 18.7638 20.4106 18.7573 20.4222 18.7485C20.4338 18.7397 20.4435 18.7286 20.4509 18.7161C20.4582 18.7035 20.463 18.6895 20.465 18.6751C20.467 18.6607 20.4661 18.646 20.4624 18.6319C20.4587 18.6178 20.4522 18.6045 20.4434 18.5929C20.4346 18.5813 20.4235 18.5716 20.411 18.5642C20.3984 18.5569 20.3844 18.5521 20.37 18.5501ZM27.62 18.5501C27.5983 18.5506 27.5772 18.5575 27.5594 18.57C27.5416 18.5824 27.5279 18.5999 27.52 18.6201C27.5137 18.6343 27.5104 18.6496 27.5104 18.6651C27.5104 18.6806 27.5137 18.6959 27.52 18.7101C27.5266 18.7246 27.5363 18.7374 27.5484 18.7478C27.5605 18.7581 27.5747 18.7658 27.59 18.7701C27.6044 18.7721 27.6191 18.7712 27.6332 18.7675C27.6473 18.7638 27.6606 18.7573 27.6722 18.7485C27.6838 18.7397 27.6935 18.7286 27.7009 18.7161C27.7082 18.7035 27.713 18.6895 27.715 18.6751C27.717 18.6607 27.7161 18.646 27.7124 18.6319C27.7087 18.6178 27.7022 18.6045 27.6934 18.5929C27.6846 18.5813 27.6735 18.5716 27.661 18.5642C27.6484 18.5569 27.6344 18.5521 27.62 18.5501ZM16.72 18.7501C16.2957 18.7501 15.8887 18.9187 15.5886 19.2187C15.2886 19.5188 15.12 19.9258 15.12 20.3501C15.12 20.7744 15.2886 21.1814 15.5886 21.4815C15.8887 21.7815 16.2957 21.9501 16.72 21.9501C17.1443 21.9501 17.5513 21.7815 17.8514 21.4815C18.1514 21.1814 18.32 20.7744 18.32 20.3501C18.32 19.9258 18.1514 19.5188 17.8514 19.2187C17.5513 18.9187 17.1443 18.7501 16.72 18.7501ZM31.27 18.7501C31.0599 18.7455 30.8509 18.7823 30.655 18.8585C30.4592 18.9347 30.2802 19.0487 30.1284 19.194C29.9766 19.3393 29.8548 19.5131 29.7702 19.7055C29.6855 19.8978 29.6396 20.105 29.635 20.3151C29.6304 20.5252 29.6672 20.7342 29.7434 20.9301C29.8196 21.1259 29.9336 21.3049 30.0789 21.4567C30.2242 21.6085 30.398 21.7303 30.5904 21.8149C30.7827 21.8996 30.9899 21.9455 31.2 21.9501C31.6243 21.9594 32.035 21.7997 32.3416 21.5062C32.6482 21.2127 32.8257 20.8094 32.835 20.3851C32.8443 19.9608 32.6846 19.5501 32.3911 19.2435C32.0976 18.9369 31.6943 18.7594 31.27 18.7501ZM20.36 19.1101C20.3326 19.1126 20.3071 19.1253 20.2886 19.1456C20.2701 19.166 20.2599 19.1926 20.26 19.2201C20.2556 19.245 20.2599 19.2707 20.2722 19.2928C20.2844 19.3149 20.304 19.3321 20.3275 19.3415C20.3509 19.3509 20.3769 19.3519 20.4011 19.3443C20.4252 19.3368 20.446 19.3212 20.46 19.3001C20.4715 19.2884 20.4802 19.2742 20.4855 19.2587C20.4908 19.2431 20.4925 19.2266 20.4906 19.2103C20.4887 19.194 20.4832 19.1784 20.4744 19.1645C20.4656 19.1506 20.4539 19.1388 20.44 19.1301C20.4196 19.1157 20.3949 19.1086 20.37 19.1101H20.35H20.36ZM27.61 19.1101C27.5826 19.1126 27.5571 19.1253 27.5386 19.1456C27.5201 19.166 27.5099 19.1926 27.51 19.2201C27.5056 19.245 27.5099 19.2707 27.5222 19.2928C27.5344 19.3149 27.554 19.3321 27.5775 19.3415C27.6009 19.3509 27.6269 19.3519 27.6511 19.3443C27.6752 19.3368 27.696 19.3212 27.71 19.3001C27.7215 19.2884 27.7302 19.2742 27.7355 19.2587C27.7408 19.2431 27.7425 19.2266 27.7406 19.2103C27.7387 19.194 27.7332 19.1784 27.7244 19.1645C27.7156 19.1506 27.7039 19.1388 27.69 19.1301C27.6696 19.1157 27.6449 19.1086 27.62 19.1101H27.6H27.61ZM20.38 19.6701C20.3647 19.6687 20.3493 19.6705 20.3348 19.6754C20.3203 19.6803 20.307 19.6882 20.2957 19.6986C20.2844 19.7089 20.2754 19.7215 20.2692 19.7356C20.2631 19.7496 20.2599 19.7648 20.26 19.7801C20.2585 19.7962 20.2605 19.8125 20.266 19.8278C20.2715 19.8431 20.2802 19.8569 20.2917 19.8684C20.3032 19.8798 20.317 19.8886 20.3323 19.8941C20.3476 19.8996 20.3639 19.9016 20.38 19.9001C20.4092 19.9054 20.4393 19.8989 20.4636 19.882C20.488 19.8651 20.5047 19.8393 20.51 19.8101C20.5153 19.7809 20.5088 19.7508 20.4919 19.7265C20.475 19.7021 20.4492 19.6854 20.42 19.6801H20.38V19.6701ZM27.63 19.6701C27.6147 19.6687 27.5993 19.6705 27.5848 19.6754C27.5703 19.6803 27.557 19.6882 27.5457 19.6986C27.5344 19.7089 27.5254 19.7215 27.5192 19.7356C27.5131 19.7496 27.5099 19.7648 27.51 19.7801C27.5085 19.7962 27.5105 19.8125 27.516 19.8278C27.5215 19.8431 27.5302 19.8569 27.5417 19.8684C27.5532 19.8798 27.567 19.8886 27.5823 19.8941C27.5976 19.8996 27.6139 19.9016 27.63 19.9001C27.6592 19.9054 27.6893 19.8989 27.7136 19.882C27.738 19.8651 27.7547 19.8393 27.76 19.8101C27.7653 19.7809 27.7588 19.7508 27.7419 19.7265C27.725 19.7021 27.6992 19.6854 27.67 19.6801H27.63V19.6701ZM20.37 20.2301C20.3471 20.2313 20.3251 20.2397 20.3072 20.254C20.2892 20.2684 20.2762 20.288 20.27 20.3101C20.2637 20.3243 20.2604 20.3396 20.2604 20.3551C20.2604 20.3706 20.2637 20.3859 20.27 20.4001C20.2777 20.4127 20.2879 20.4236 20.2999 20.4322C20.3119 20.4408 20.3256 20.4469 20.34 20.4501C20.3544 20.4521 20.3691 20.4512 20.3832 20.4475C20.3973 20.4438 20.4106 20.4373 20.4222 20.4285C20.4338 20.4197 20.4435 20.4086 20.4509 20.3961C20.4582 20.3835 20.463 20.3695 20.465 20.3551C20.467 20.3407 20.4661 20.326 20.4624 20.3119C20.4587 20.2978 20.4522 20.2845 20.4434 20.2729C20.4346 20.2613 20.4235 20.2516 20.411 20.2442C20.3984 20.2369 20.3844 20.2321 20.37 20.2301ZM27.62 20.2301C27.5971 20.2313 27.5751 20.2397 27.5572 20.254C27.5392 20.2684 27.5262 20.288 27.52 20.3101C27.5137 20.3243 27.5104 20.3396 27.5104 20.3551C27.5104 20.3706 27.5137 20.3859 27.52 20.4001C27.5277 20.4127 27.5379 20.4236 27.5499 20.4322C27.5619 20.4408 27.5756 20.4469 27.59 20.4501C27.6044 20.4521 27.6191 20.4512 27.6332 20.4475C27.6473 20.4438 27.6606 20.4373 27.6722 20.4285C27.6838 20.4197 27.6935 20.4086 27.7009 20.3961C27.7082 20.3835 27.713 20.3695 27.715 20.3551C27.717 20.3407 27.7161 20.326 27.7124 20.3119C27.7087 20.2978 27.7022 20.2845 27.6934 20.2729C27.6846 20.2613 27.6735 20.2516 27.661 20.2442C27.6484 20.2369 27.6344 20.2321 27.62 20.2301ZM24 20.5801C23.7899 20.5748 23.5808 20.611 23.3847 20.6866C23.1885 20.7621 23.0092 20.8756 22.8569 21.0204C22.7046 21.1653 22.5824 21.3387 22.4971 21.5308C22.4118 21.723 22.3653 21.93 22.36 22.1401C22.3547 22.3502 22.3909 22.5593 22.4665 22.7554C22.542 22.9516 22.6555 23.1309 22.8003 23.2832C22.9452 23.4355 23.1186 23.5577 23.3108 23.643C23.5029 23.7283 23.7099 23.7748 23.92 23.7801C24.3443 23.7907 24.7555 23.6323 25.0631 23.3398C25.3706 23.0472 25.5494 22.6444 25.56 22.2201C25.5706 21.7958 25.4122 21.3846 25.1197 21.077C24.8271 20.7695 24.4243 20.5907 24 20.5801ZM20.37 20.8001C20.3484 20.8022 20.3279 20.8106 20.311 20.8243C20.2942 20.838 20.2817 20.8564 20.2753 20.8771C20.2689 20.8978 20.2688 20.92 20.2749 20.9409C20.2811 20.9617 20.2933 20.9802 20.31 20.9941C20.3267 21.008 20.3471 21.0167 20.3687 21.019C20.3903 21.0213 20.4121 21.0172 20.4313 21.0071C20.4506 20.9971 20.4664 20.9815 20.4769 20.9625C20.4873 20.9434 20.4919 20.9217 20.49 20.9001C20.4887 20.8856 20.4846 20.8716 20.4779 20.8587C20.4712 20.8458 20.462 20.8344 20.4508 20.8251C20.4397 20.8158 20.4268 20.8088 20.4129 20.8045C20.399 20.8002 20.3845 20.7987 20.37 20.8001ZM27.62 20.8001C27.5984 20.8022 27.5779 20.8106 27.561 20.8243C27.5442 20.838 27.5317 20.8564 27.5253 20.8771C27.5189 20.8978 27.5188 20.92 27.5249 20.9409C27.5311 20.9617 27.5433 20.9802 27.56 20.9941C27.5767 21.008 27.5971 21.0167 27.6187 21.019C27.6403 21.0213 27.6621 21.0172 27.6813 21.0071C27.7006 20.9971 27.7164 20.9815 27.7269 20.9625C27.7373 20.9434 27.7419 20.9217 27.74 20.9001C27.7387 20.8856 27.7346 20.8716 27.7279 20.8587C27.7212 20.8458 27.712 20.8344 27.7008 20.8251C27.6897 20.8158 27.6768 20.8088 27.6629 20.8045C27.649 20.8002 27.6345 20.7987 27.62 20.8001ZM20.37 21.3601C20.3426 21.3626 20.3171 21.3753 20.2986 21.3956C20.2801 21.416 20.2699 21.4426 20.27 21.4701C20.2649 21.4866 20.2637 21.504 20.2665 21.521C20.2694 21.538 20.2762 21.5542 20.2864 21.5681C20.2966 21.5819 20.3099 21.5932 20.3253 21.601C20.3407 21.6088 20.3577 21.6129 20.375 21.6129C20.3923 21.6129 20.4093 21.6088 20.4247 21.601C20.4401 21.5932 20.4534 21.5819 20.4636 21.5681C20.4738 21.5542 20.4806 21.538 20.4835 21.521C20.4863 21.504 20.4851 21.4866 20.48 21.4701C20.48 21.4409 20.4684 21.4129 20.4478 21.3923C20.4272 21.3717 20.3992 21.3601 20.37 21.3601ZM27.62 21.3601C27.5926 21.3626 27.5671 21.3753 27.5486 21.3956C27.5301 21.416 27.5199 21.4426 27.52 21.4701C27.5149 21.4866 27.5137 21.504 27.5165 21.521C27.5194 21.538 27.5262 21.5542 27.5364 21.5681C27.5466 21.5819 27.5599 21.5932 27.5753 21.601C27.5907 21.6088 27.6077 21.6129 27.625 21.6129C27.6423 21.6129 27.6593 21.6088 27.6747 21.601C27.6901 21.5932 27.7034 21.5819 27.7136 21.5681C27.7238 21.5542 27.7306 21.538 27.7335 21.521C27.7363 21.504 27.7351 21.4866 27.73 21.4701C27.73 21.4409 27.7184 21.4129 27.6978 21.3923C27.6772 21.3717 27.6492 21.3601 27.62 21.3601ZM20.37 21.9201C20.3471 21.9213 20.3251 21.9297 20.3072 21.944C20.2892 21.9584 20.2762 21.978 20.27 22.0001C20.26 22.0258 20.26 22.0544 20.27 22.0801C20.2766 22.0946 20.2863 22.1074 20.2984 22.1178C20.3105 22.1281 20.3247 22.1358 20.34 22.1401C20.3692 22.1441 20.3987 22.1363 20.4222 22.1185C20.4456 22.1007 20.461 22.0743 20.465 22.0451C20.469 22.0159 20.4612 21.9864 20.4434 21.9629C20.4256 21.9395 20.3992 21.9241 20.37 21.9201ZM27.62 21.9201C27.5971 21.9213 27.5751 21.9297 27.5572 21.944C27.5392 21.9584 27.5262 21.978 27.52 22.0001C27.51 22.0258 27.51 22.0544 27.52 22.0801C27.5266 22.0946 27.5363 22.1074 27.5484 22.1178C27.5605 22.1281 27.5747 22.1358 27.59 22.1401C27.6192 22.1441 27.6487 22.1363 27.6722 22.1185C27.6956 22.1007 27.711 22.0743 27.715 22.0451C27.719 22.0159 27.7112 21.9864 27.6934 21.9629C27.6756 21.9395 27.6492 21.9241 27.62 21.9201ZM20.37 22.4801C20.3555 22.4814 20.3415 22.4855 20.3286 22.4922C20.3157 22.4989 20.3043 22.5081 20.295 22.5193C20.2857 22.5304 20.2787 22.5433 20.2744 22.5572C20.2701 22.5711 20.2686 22.5856 20.27 22.6001C20.2721 22.6217 20.2805 22.6422 20.2942 22.6591C20.3079 22.6759 20.3263 22.6884 20.347 22.6948C20.3677 22.7012 20.3899 22.7013 20.4108 22.6952C20.4316 22.689 20.4501 22.6768 20.464 22.6601C20.4779 22.6434 20.4866 22.623 20.4889 22.6014C20.4912 22.5798 20.4871 22.558 20.477 22.5388C20.467 22.5195 20.4514 22.5037 20.4324 22.4932C20.4133 22.4828 20.3916 22.4782 20.37 22.4801ZM27.62 22.4801C27.5971 22.4813 27.5751 22.4897 27.5572 22.504C27.5392 22.5184 27.5262 22.538 27.52 22.5601C27.5137 22.5743 27.5104 22.5896 27.5104 22.6051C27.5104 22.6206 27.5137 22.6359 27.52 22.6501C27.5277 22.6627 27.5379 22.6736 27.5499 22.6822C27.5619 22.6908 27.5756 22.6969 27.59 22.7001C27.6044 22.7021 27.6191 22.7012 27.6332 22.6975C27.6473 22.6938 27.6606 22.6873 27.6722 22.6785C27.6838 22.6697 27.6935 22.6586 27.7009 22.6461C27.7082 22.6335 27.713 22.6195 27.715 22.6051C27.717 22.5907 27.7161 22.576 27.7124 22.5619C27.7087 22.5478 27.7022 22.5345 27.6934 22.5229C27.6846 22.5113 27.6735 22.5016 27.661 22.4942C27.6484 22.4869 27.6344 22.4821 27.62 22.4801ZM16.72 22.5801C16.2957 22.5801 15.8887 22.7487 15.5886 23.0487C15.2886 23.3488 15.12 23.7558 15.12 24.1801C15.12 24.6044 15.2886 25.0114 15.5886 25.3115C15.8887 25.6115 16.2957 25.7801 16.72 25.7801C17.1443 25.7801 17.5513 25.6115 17.8514 25.3115C18.1514 25.0114 18.32 24.6044 18.32 24.1801C18.32 23.7558 18.1514 23.3488 17.8514 23.0487C17.5513 22.7487 17.1443 22.5801 16.72 22.5801ZM31.27 22.5801C30.8457 22.5801 30.4387 22.7487 30.1386 23.0487C29.8386 23.3488 29.67 23.7558 29.67 24.1801C29.67 24.6044 29.8386 25.0114 30.1386 25.3115C30.4387 25.6115 30.8457 25.7801 31.27 25.7801C31.6943 25.7801 32.1013 25.6115 32.4014 25.3115C32.7014 25.0114 32.87 24.6044 32.87 24.1801C32.87 23.7558 32.7014 23.3488 32.4014 23.0487C32.1013 22.7487 31.6943 22.5801 31.27 22.5801ZM20.37 23.0501C20.3555 23.0514 20.3415 23.0555 20.3286 23.0622C20.3157 23.0689 20.3043 23.0781 20.295 23.0893C20.2857 23.1004 20.2787 23.1133 20.2744 23.1272C20.2701 23.1411 20.2686 23.1556 20.27 23.1701C20.2725 23.1975 20.2852 23.223 20.3056 23.2415C20.3259 23.26 20.3525 23.2702 20.38 23.2701C20.3945 23.2688 20.4085 23.2647 20.4214 23.258C20.4343 23.2513 20.4457 23.2421 20.455 23.2309C20.4643 23.2198 20.4713 23.2069 20.4756 23.193C20.4799 23.1791 20.4814 23.1646 20.48 23.1501C20.4775 23.1227 20.4648 23.0972 20.4444 23.0787C20.4241 23.0602 20.3975 23.05 20.37 23.0501ZM27.62 23.0501C27.5984 23.0522 27.5779 23.0606 27.561 23.0743C27.5442 23.088 27.5317 23.1064 27.5253 23.1271C27.5189 23.1478 27.5188 23.17 27.5249 23.1909C27.5311 23.2117 27.5433 23.2302 27.56 23.2441C27.5767 23.258 27.5971 23.2667 27.6187 23.269C27.6403 23.2713 27.6621 23.2672 27.6813 23.2571C27.7006 23.2471 27.7164 23.2315 27.7269 23.2125C27.7373 23.1934 27.7419 23.1717 27.74 23.1501C27.7387 23.1356 27.7346 23.1216 27.7279 23.1087C27.7212 23.0958 27.712 23.0844 27.7008 23.0751C27.6897 23.0658 27.6768 23.0588 27.6629 23.0545C27.649 23.0502 27.6345 23.0487 27.62 23.0501ZM20.35 23.6101C20.3244 23.6148 20.3013 23.6285 20.2848 23.6486C20.2684 23.6688 20.2596 23.6941 20.26 23.7201C20.26 23.7419 20.2665 23.7631 20.2785 23.7812C20.2906 23.7993 20.3078 23.8134 20.3279 23.8217C20.348 23.83 20.3701 23.8322 20.3915 23.828C20.4128 23.8237 20.4324 23.8133 20.4478 23.7979C20.4632 23.7825 20.4736 23.7629 20.4779 23.7416C20.4821 23.7202 20.48 23.6981 20.4716 23.678C20.4633 23.6579 20.4492 23.6407 20.4311 23.6286C20.413 23.6165 20.3918 23.6101 20.37 23.6101H20.35ZM27.6 23.6101C27.5744 23.6148 27.5513 23.6285 27.5348 23.6486C27.5184 23.6688 27.5096 23.6941 27.51 23.7201C27.51 23.7419 27.5165 23.7631 27.5285 23.7812C27.5406 23.7993 27.5578 23.8134 27.5779 23.8217C27.598 23.83 27.6201 23.8322 27.6415 23.828C27.6628 23.8237 27.6824 23.8133 27.6978 23.7979C27.7132 23.7825 27.7236 23.7629 27.7279 23.7416C27.7321 23.7202 27.73 23.6981 27.7216 23.678C27.7133 23.6579 27.6992 23.6407 27.6811 23.6286C27.663 23.6165 27.6418 23.6101 27.62 23.6101H27.6ZM20.35 24.1701C20.3277 24.1726 20.3067 24.1819 20.2898 24.1966C20.2729 24.2114 20.261 24.231 20.2555 24.2527C20.2501 24.2745 20.2514 24.2974 20.2594 24.3184C20.2673 24.3394 20.2815 24.3574 20.3 24.3701C20.3164 24.3837 20.3364 24.3922 20.3576 24.3946C20.3788 24.3971 20.4002 24.3933 20.4193 24.3837C20.4384 24.3742 20.4543 24.3593 20.4651 24.3409C20.4758 24.3225 20.481 24.3014 20.48 24.2801C20.4777 24.2543 20.4665 24.2302 20.4482 24.2119C20.4299 24.1936 20.4058 24.1824 20.38 24.1801H20.36L20.35 24.1701ZM27.6 24.1701C27.5777 24.1726 27.5567 24.1819 27.5398 24.1966C27.5229 24.2114 27.511 24.231 27.5055 24.2527C27.5001 24.2745 27.5014 24.2974 27.5094 24.3184C27.5173 24.3394 27.5315 24.3574 27.55 24.3701C27.5664 24.3837 27.5864 24.3922 27.6076 24.3946C27.6288 24.3971 27.6502 24.3933 27.6693 24.3837C27.6884 24.3742 27.7043 24.3593 27.7151 24.3409C27.7258 24.3225 27.731 24.3014 27.73 24.2801C27.7277 24.2543 27.7165 24.2302 27.6982 24.2119C27.6799 24.1936 27.6558 24.1824 27.63 24.1801H27.61L27.6 24.1701ZM24 24.4101C23.7899 24.4048 23.5808 24.441 23.3847 24.5166C23.1885 24.5921 23.0092 24.7056 22.8569 24.8504C22.7046 24.9953 22.5824 25.1687 22.4971 25.3608C22.4118 25.553 22.3653 25.76 22.36 25.9701C22.3547 26.1802 22.3909 26.3893 22.4665 26.5854C22.542 26.7816 22.6555 26.9609 22.8003 27.1132C22.9452 27.2655 23.1186 27.3877 23.3108 27.473C23.5029 27.5583 23.7099 27.6048 23.92 27.6101C24.3443 27.6207 24.7555 27.4623 25.0631 27.1698C25.3706 26.8772 25.5494 26.4744 25.56 26.0501C25.5706 25.6258 25.4122 25.2146 25.1197 24.907C24.8271 24.5995 24.4243 24.4207 24 24.4101ZM20.37 24.7301C20.3471 24.7313 20.3251 24.7397 20.3072 24.754C20.2892 24.7684 20.2762 24.788 20.27 24.8101C20.26 24.8358 20.26 24.8644 20.27 24.8901C20.2766 24.9046 20.2863 24.9174 20.2984 24.9278C20.3105 24.9381 20.3247 24.9458 20.34 24.9501C20.3692 24.9541 20.3987 24.9463 20.4222 24.9285C20.4456 24.9107 20.461 24.8843 20.465 24.8551C20.469 24.8259 20.4612 24.7964 20.4434 24.7729C20.4256 24.7495 20.3992 24.7341 20.37 24.7301ZM27.62 24.7301C27.5971 24.7313 27.5751 24.7397 27.5572 24.754C27.5392 24.7684 27.5262 24.788 27.52 24.8101C27.51 24.8358 27.51 24.8644 27.52 24.8901C27.5266 24.9046 27.5363 24.9174 27.5484 24.9278C27.5605 24.9381 27.5747 24.9458 27.59 24.9501C27.6192 24.9541 27.6487 24.9463 27.6722 24.9285C27.6956 24.9107 27.711 24.8843 27.715 24.8551C27.719 24.8259 27.7112 24.7964 27.6934 24.7729C27.6756 24.7495 27.6492 24.7341 27.62 24.7301ZM20.37 25.3001C20.3442 25.3023 20.3201 25.3136 20.3018 25.3319C20.2835 25.3502 20.2723 25.3743 20.27 25.4001C20.27 25.4701 20.31 25.5201 20.37 25.5201C20.3844 25.5201 20.3988 25.5173 20.4121 25.5117C20.4254 25.5062 20.4376 25.4981 20.4478 25.4879C20.458 25.4777 20.4661 25.4655 20.4716 25.4522C20.4772 25.4388 20.48 25.4245 20.48 25.4101C20.48 25.3957 20.4772 25.3813 20.4716 25.368C20.4661 25.3547 20.458 25.3425 20.4478 25.3323C20.4376 25.3221 20.4254 25.314 20.4121 25.3085C20.3988 25.3029 20.3844 25.3001 20.37 25.3001ZM27.62 25.3001C27.5942 25.3023 27.5701 25.3136 27.5518 25.3319C27.5335 25.3502 27.5223 25.3743 27.52 25.4001C27.52 25.4701 27.56 25.5201 27.62 25.5201C27.6344 25.5201 27.6488 25.5173 27.6621 25.5117C27.6754 25.5062 27.6876 25.4981 27.6978 25.4879C27.708 25.4777 27.7161 25.4655 27.7216 25.4522C27.7272 25.4388 27.73 25.4245 27.73 25.4101C27.73 25.3957 27.7272 25.3813 27.7216 25.368C27.7161 25.3547 27.708 25.3425 27.6978 25.3323C27.6876 25.3221 27.6754 25.314 27.6621 25.3085C27.6488 25.3029 27.6344 25.3001 27.62 25.3001ZM20.37 25.8601C20.3483 25.8606 20.3272 25.8675 20.3094 25.88C20.2916 25.8924 20.2779 25.9099 20.27 25.9301C20.2637 25.9443 20.2604 25.9596 20.2604 25.9751C20.2604 25.9906 20.2637 26.0059 20.27 26.0201C20.2766 26.0346 20.2863 26.0474 20.2984 26.0578C20.3105 26.0681 20.3247 26.0758 20.34 26.0801C20.3544 26.0821 20.3691 26.0812 20.3832 26.0775C20.3973 26.0738 20.4106 26.0673 20.4222 26.0585C20.4338 26.0497 20.4435 26.0386 20.4509 26.0261C20.4582 26.0135 20.463 25.9995 20.465 25.9851C20.467 25.9707 20.4661 25.956 20.4624 25.9419C20.4587 25.9278 20.4522 25.9145 20.4434 25.9029C20.4346 25.8913 20.4235 25.8816 20.411 25.8742C20.3984 25.8669 20.3844 25.8621 20.37 25.8601ZM27.62 25.8601C27.5983 25.8606 27.5772 25.8675 27.5594 25.88C27.5416 25.8924 27.5279 25.9099 27.52 25.9301C27.5137 25.9443 27.5104 25.9596 27.5104 25.9751C27.5104 25.9906 27.5137 26.0059 27.52 26.0201C27.5266 26.0346 27.5363 26.0474 27.5484 26.0578C27.5605 26.0681 27.5747 26.0758 27.59 26.0801C27.6044 26.0821 27.6191 26.0812 27.6332 26.0775C27.6473 26.0738 27.6606 26.0673 27.6722 26.0585C27.6838 26.0497 27.6935 26.0386 27.7009 26.0261C27.7082 26.0135 27.713 25.9995 27.715 25.9851C27.717 25.9707 27.7161 25.956 27.7124 25.9419C27.7087 25.9278 27.7022 25.9145 27.6934 25.9029C27.6846 25.8913 27.6735 25.8816 27.661 25.8742C27.6484 25.8669 27.6344 25.8621 27.62 25.8601ZM20.37 26.4201C20.3556 26.4201 20.3413 26.4229 20.3279 26.4285C20.3146 26.434 20.3024 26.4421 20.2922 26.4523C20.282 26.4625 20.2739 26.4747 20.2684 26.488C20.2628 26.5013 20.26 26.5157 20.26 26.5301C20.26 26.5445 20.2628 26.5588 20.2684 26.5722C20.2739 26.5855 20.282 26.5977 20.2922 26.6079C20.3024 26.6181 20.3146 26.6262 20.3279 26.6317C20.3413 26.6373 20.3556 26.6401 20.37 26.6401C20.3992 26.6401 20.4272 26.6285 20.4478 26.6079C20.4684 26.5873 20.48 26.5593 20.48 26.5301C20.48 26.5009 20.4684 26.4729 20.4478 26.4523C20.4272 26.4317 20.3992 26.4201 20.37 26.4201ZM27.62 26.4201C27.6056 26.4201 27.5913 26.4229 27.5779 26.4285C27.5646 26.434 27.5524 26.4421 27.5422 26.4523C27.532 26.4625 27.5239 26.4747 27.5184 26.488C27.5128 26.5013 27.51 26.5157 27.51 26.5301C27.51 26.5445 27.5128 26.5588 27.5184 26.5722C27.5239 26.5855 27.532 26.5977 27.5422 26.6079C27.5524 26.6181 27.5646 26.6262 27.5779 26.6317C27.5913 26.6373 27.6056 26.6401 27.62 26.6401C27.6492 26.6401 27.6772 26.6285 27.6978 26.6079C27.7184 26.5873 27.73 26.5593 27.73 26.5301C27.73 26.5009 27.7184 26.4729 27.6978 26.4523C27.6772 26.4317 27.6492 26.4201 27.62 26.4201ZM16.72 26.4201C16.2957 26.4201 15.8887 26.5887 15.5886 26.8887C15.2886 27.1888 15.12 27.5958 15.12 28.0201C15.12 28.4444 15.2886 28.8514 15.5886 29.1515C15.8887 29.4515 16.2957 29.6201 16.72 29.6201C17.1443 29.6201 17.5513 29.4515 17.8514 29.1515C18.1514 28.8514 18.32 28.4444 18.32 28.0201C18.32 27.5958 18.1514 27.1888 17.8514 26.8887C17.5513 26.5887 17.1443 26.4201 16.72 26.4201ZM31.27 26.4201C30.8457 26.4201 30.4387 26.5887 30.1386 26.8887C29.8386 27.1888 29.67 27.5958 29.67 28.0201C29.67 28.4444 29.8386 28.8514 30.1386 29.1515C30.4387 29.4515 30.8457 29.6201 31.27 29.6201C31.6943 29.6201 32.1013 29.4515 32.4014 29.1515C32.7014 28.8514 32.87 28.4444 32.87 28.0201C32.87 27.5958 32.7014 27.1888 32.4014 26.8887C32.1013 26.5887 31.6943 26.4201 31.27 26.4201ZM20.37 26.9801C20.3555 26.9814 20.3415 26.9855 20.3286 26.9922C20.3157 26.9989 20.3043 27.0081 20.295 27.0193C20.2857 27.0304 20.2787 27.0433 20.2744 27.0572C20.2701 27.0711 20.2686 27.0856 20.27 27.1001C20.2725 27.1275 20.2852 27.153 20.3056 27.1715C20.3259 27.19 20.3525 27.2002 20.38 27.2001C20.4016 27.199 20.4223 27.1917 20.4397 27.1789C20.4571 27.1661 20.4704 27.1485 20.4779 27.1283C20.4853 27.108 20.4867 27.086 20.4817 27.065C20.4768 27.044 20.4657 27.0249 20.45 27.0101C20.4393 27 20.4268 26.9922 20.413 26.987C20.3993 26.9819 20.3847 26.9795 20.37 26.9801ZM27.62 26.9801C27.596 26.9786 27.5722 26.9849 27.5522 26.9982C27.5322 27.0114 27.517 27.0309 27.5091 27.0535C27.5012 27.0762 27.5009 27.1008 27.5083 27.1237C27.5156 27.1466 27.5303 27.1664 27.55 27.1801C27.5639 27.1898 27.5799 27.1962 27.5967 27.1987C27.6135 27.2012 27.6306 27.1998 27.6467 27.1945C27.6629 27.1893 27.6776 27.1804 27.6898 27.1686C27.7019 27.1567 27.7111 27.1422 27.7167 27.1262C27.7223 27.1102 27.7242 27.0931 27.7221 27.0763C27.72 27.0594 27.714 27.0433 27.7046 27.0291C27.6953 27.015 27.6828 27.0032 27.6681 26.9947C27.6534 26.9862 27.6369 26.9812 27.62 26.9801ZM20.37 27.5501C20.3408 27.5501 20.3128 27.5617 20.2922 27.5823C20.2716 27.6029 20.26 27.6309 20.26 27.6601C20.26 27.6893 20.2716 27.7172 20.2922 27.7379C20.3128 27.7585 20.3408 27.7701 20.37 27.7701C20.3992 27.7701 20.4272 27.7585 20.4478 27.7379C20.4684 27.7172 20.48 27.6893 20.48 27.6601C20.48 27.6309 20.4684 27.6029 20.4478 27.5823C20.4272 27.5617 20.3992 27.5501 20.37 27.5501ZM27.62 27.5501C27.5908 27.5501 27.5628 27.5617 27.5422 27.5823C27.5216 27.6029 27.51 27.6309 27.51 27.6601C27.51 27.6893 27.5216 27.7172 27.5422 27.7379C27.5628 27.7585 27.5908 27.7701 27.62 27.7701C27.6492 27.7701 27.6772 27.7585 27.6978 27.7379C27.7184 27.7172 27.73 27.6893 27.73 27.6601C27.73 27.6309 27.7184 27.6029 27.6978 27.5823C27.6772 27.5617 27.6492 27.5501 27.62 27.5501ZM20.35 28.1101C20.3277 28.1126 20.3067 28.1219 20.2898 28.1366C20.2729 28.1514 20.261 28.171 20.2555 28.1927C20.2501 28.2145 20.2514 28.2374 20.2594 28.2584C20.2673 28.2794 20.2815 28.2974 20.3 28.3101C20.3171 28.3246 20.3381 28.3335 20.3604 28.3357C20.3826 28.3379 20.4051 28.3333 20.4246 28.3224C20.4442 28.3115 20.4599 28.295 20.4698 28.2749C20.4797 28.2548 20.4833 28.2322 20.48 28.2101C20.4777 28.1843 20.4665 28.1602 20.4482 28.1419C20.4299 28.1236 20.4058 28.1124 20.38 28.1101H20.36H20.35ZM27.6 28.1101C27.5777 28.1126 27.5567 28.1219 27.5398 28.1366C27.5229 28.1514 27.511 28.171 27.5055 28.1927C27.5001 28.2145 27.5014 28.2374 27.5094 28.2584C27.5173 28.2794 27.5315 28.2974 27.55 28.3101C27.5671 28.3246 27.5881 28.3335 27.6104 28.3357C27.6326 28.3379 27.6551 28.3333 27.6746 28.3224C27.6942 28.3115 27.7099 28.295 27.7198 28.2749C27.7297 28.2548 27.7333 28.2322 27.73 28.2101C27.7277 28.1843 27.7165 28.1602 27.6982 28.1419C27.6799 28.1236 27.6558 28.1124 27.63 28.1101H27.61H27.6ZM24 28.2501C23.7899 28.2448 23.5808 28.281 23.3847 28.3566C23.1885 28.4321 23.0092 28.5456 22.8569 28.6904C22.7046 28.8353 22.5824 29.0087 22.4971 29.2008C22.4118 29.393 22.3653 29.6 22.36 29.8101C22.3547 30.0202 22.3909 30.2293 22.4665 30.4254C22.542 30.6216 22.6555 30.8009 22.8003 30.9532C22.9452 31.1055 23.1186 31.2277 23.3108 31.313C23.5029 31.3983 23.7099 31.4448 23.92 31.4501C24.3443 31.4607 24.7555 31.3023 25.0631 31.0098C25.3706 30.7172 25.5494 30.3144 25.56 29.8901C25.5706 29.4658 25.4122 29.0546 25.1197 28.747C24.8271 28.4395 24.4243 28.2607 24 28.2501ZM20.38 28.6701C20.3576 28.6692 20.3354 28.6751 20.3165 28.6871C20.2975 28.6991 20.2827 28.7166 20.274 28.7373C20.2653 28.758 20.2631 28.7808 20.2678 28.8028C20.2724 28.8247 20.2837 28.8447 20.3 28.8601C20.3131 28.8729 20.3292 28.8823 20.3468 28.8873C20.3644 28.8923 20.383 28.8929 20.4008 28.8889C20.4187 28.8849 20.4353 28.8766 20.4492 28.8645C20.463 28.8525 20.4736 28.8372 20.48 28.8201C20.49 28.7935 20.4893 28.7641 20.4782 28.738C20.467 28.7119 20.4461 28.6912 20.42 28.6801L20.38 28.6701ZM27.63 28.6701C27.6076 28.6692 27.5854 28.6751 27.5665 28.6871C27.5475 28.6991 27.5327 28.7166 27.524 28.7373C27.5153 28.758 27.5131 28.7808 27.5178 28.8028C27.5224 28.8247 27.5337 28.8447 27.55 28.8601C27.5631 28.8729 27.5792 28.8823 27.5968 28.8873C27.6144 28.8923 27.633 28.8929 27.6508 28.8889C27.6687 28.8849 27.6853 28.8766 27.6992 28.8645C27.713 28.8525 27.7236 28.8372 27.73 28.8201C27.74 28.7935 27.7393 28.7641 27.7282 28.738C27.717 28.7119 27.6961 28.6912 27.67 28.6801L27.63 28.6701ZM20.37 29.2301C20.3426 29.2326 20.3171 29.2453 20.2986 29.2656C20.2801 29.286 20.2699 29.3126 20.27 29.3401C20.2741 29.3616 20.2845 29.3815 20.2999 29.397C20.3153 29.4126 20.335 29.4232 20.3565 29.4275C20.378 29.4318 20.4003 29.4296 20.4205 29.4212C20.4407 29.4127 20.458 29.3984 20.47 29.3801C20.48 29.3544 20.48 29.3258 20.47 29.3001C20.4621 29.2799 20.4484 29.2624 20.4306 29.25C20.4128 29.2375 20.3917 29.2306 20.37 29.2301ZM27.62 29.2301C27.5926 29.2326 27.5671 29.2453 27.5486 29.2656C27.5301 29.286 27.5199 29.3126 27.52 29.3401C27.5241 29.3616 27.5345 29.3815 27.5499 29.397C27.5653 29.4126 27.585 29.4232 27.6065 29.4275C27.628 29.4318 27.6503 29.4296 27.6705 29.4212C27.6907 29.4127 27.708 29.3984 27.72 29.3801C27.73 29.3544 27.73 29.3258 27.72 29.3001C27.7121 29.2799 27.6984 29.2624 27.6806 29.25C27.6628 29.2375 27.6417 29.2306 27.62 29.2301ZM20.37 29.7901C20.3395 29.7901 20.3102 29.8022 20.2887 29.8238C20.2671 29.8453 20.255 29.8746 20.255 29.9051C20.255 29.9356 20.2671 29.9648 20.2887 29.9864C20.3102 30.008 20.3395 30.0201 20.37 30.0201C20.4005 30.0201 20.4298 30.008 20.4513 29.9864C20.4729 29.9648 20.485 29.9356 20.485 29.9051C20.485 29.8746 20.4729 29.8453 20.4513 29.8238C20.4298 29.8022 20.4005 29.7901 20.37 29.7901ZM27.62 29.7901C27.5895 29.7901 27.5602 29.8022 27.5387 29.8238C27.5171 29.8453 27.505 29.8746 27.505 29.9051C27.505 29.9356 27.5171 29.9648 27.5387 29.9864C27.5602 30.008 27.5895 30.0201 27.62 30.0201C27.6505 30.0201 27.6798 30.008 27.7013 29.9864C27.7229 29.9648 27.735 29.9356 27.735 29.9051C27.735 29.8746 27.7229 29.8453 27.7013 29.8238C27.6798 29.8022 27.6505 29.7901 27.62 29.7901ZM16.72 30.2601C16.2957 30.2601 15.8887 30.4287 15.5886 30.7287C15.2886 31.0288 15.12 31.4358 15.12 31.8601C15.12 32.2844 15.2886 32.6914 15.5886 32.9915C15.8887 33.2915 16.2957 33.4601 16.72 33.4601C17.1443 33.4601 17.5513 33.2915 17.8514 32.9915C18.1514 32.6914 18.32 32.2844 18.32 31.8601C18.32 31.4358 18.1514 31.0288 17.8514 30.7287C17.5513 30.4287 17.1443 30.2601 16.72 30.2601ZM31.27 30.2601C30.8457 30.2601 30.4387 30.4287 30.1386 30.7287C29.8386 31.0288 29.67 31.4358 29.67 31.8601C29.67 32.2844 29.8386 32.6914 30.1386 32.9915C30.4387 33.2915 30.8457 33.4601 31.27 33.4601C31.6943 33.4601 32.1013 33.2915 32.4014 32.9915C32.7014 32.6914 32.87 32.2844 32.87 31.8601C32.87 31.4358 32.7014 31.0288 32.4014 30.7287C32.1013 30.4287 31.6943 30.2601 31.27 30.2601ZM20.37 30.3601C20.3442 30.3624 20.3201 30.3736 20.3018 30.3919C20.2835 30.4102 20.2723 30.4343 20.27 30.4601C20.2687 30.4786 20.2721 30.4972 20.2799 30.514C20.2878 30.5309 20.2997 30.5455 20.3147 30.5564C20.3297 30.5674 20.3472 30.5744 20.3656 30.5768C20.384 30.5792 20.4027 30.5769 20.42 30.5701C20.4384 30.5607 20.4537 30.5464 20.4643 30.5287C20.475 30.511 20.4804 30.4907 20.48 30.4701C20.4806 30.4554 20.4782 30.4408 20.4731 30.4271C20.4679 30.4133 20.4601 30.4008 20.45 30.3901C20.4393 30.38 20.4268 30.3722 20.413 30.367C20.3993 30.3619 20.3847 30.3595 20.37 30.3601ZM27.62 30.3601C27.5942 30.3624 27.5701 30.3736 27.5518 30.3919C27.5335 30.4102 27.5223 30.4343 27.52 30.4601C27.5187 30.4786 27.5221 30.4972 27.5299 30.514C27.5378 30.5309 27.5497 30.5455 27.5647 30.5564C27.5797 30.5674 27.5972 30.5744 27.6156 30.5768C27.634 30.5792 27.6527 30.5769 27.67 30.5701C27.6884 30.5607 27.7037 30.5464 27.7143 30.5287C27.725 30.511 27.7304 30.4907 27.73 30.4701C27.7306 30.4554 27.7282 30.4408 27.7231 30.4271C27.7179 30.4133 27.7101 30.4008 27.7 30.3901C27.6893 30.38 27.6768 30.3722 27.663 30.367C27.6493 30.3619 27.6347 30.3595 27.62 30.3601ZM20.37 30.9201C20.3442 30.9224 20.3201 30.9336 20.3018 30.9519C20.2835 30.9702 20.2723 30.9943 20.27 31.0201C20.265 31.0371 20.2642 31.0551 20.2677 31.0726C20.2712 31.09 20.2788 31.1063 20.29 31.1201C20.302 31.1384 20.3193 31.1527 20.3395 31.1612C20.3597 31.1696 20.382 31.1718 20.4035 31.1675C20.425 31.1632 20.4447 31.1526 20.4601 31.137C20.4755 31.1215 20.4859 31.1016 20.49 31.0801V31.0301C20.4901 31.0148 20.4869 30.9996 20.4808 30.9856C20.4746 30.9715 20.4656 30.9589 20.4543 30.9486C20.443 30.9382 20.4297 30.9303 20.4152 30.9254C20.4007 30.9205 20.3853 30.9187 20.37 30.9201ZM27.62 30.9201C27.5942 30.9224 27.5701 30.9336 27.5518 30.9519C27.5335 30.9702 27.5223 30.9943 27.52 31.0201C27.515 31.0371 27.5142 31.0551 27.5177 31.0726C27.5212 31.09 27.5288 31.1063 27.54 31.1201C27.552 31.1384 27.5693 31.1527 27.5895 31.1612C27.6097 31.1696 27.632 31.1718 27.6535 31.1675C27.675 31.1632 27.6947 31.1526 27.7101 31.137C27.7255 31.1215 27.7359 31.1016 27.74 31.0801V31.0301C27.7401 31.0148 27.7369 30.9996 27.7308 30.9856C27.7246 30.9715 27.7156 30.9589 27.7043 30.9486C27.693 30.9382 27.6797 30.9303 27.6652 30.9254C27.6507 30.9205 27.6353 30.9187 27.62 30.9201ZM20.37 31.4801C20.3483 31.4806 20.3272 31.4875 20.3094 31.5C20.2916 31.5124 20.2779 31.5299 20.27 31.5501C20.2637 31.5643 20.2604 31.5796 20.2604 31.5951C20.2604 31.6106 20.2637 31.6259 20.27 31.6401C20.2766 31.6546 20.2863 31.6674 20.2984 31.6778C20.3105 31.6881 20.3247 31.6958 20.34 31.7001C20.3544 31.7021 20.3691 31.7012 20.3832 31.6975C20.3973 31.6938 20.4106 31.6873 20.4222 31.6785C20.4338 31.6697 20.4435 31.6586 20.4509 31.6461C20.4582 31.6335 20.463 31.6195 20.465 31.6051C20.467 31.5907 20.4661 31.576 20.4624 31.5619C20.4587 31.5478 20.4522 31.5345 20.4434 31.5229C20.4346 31.5113 20.4235 31.5016 20.411 31.4942C20.3984 31.4869 20.3844 31.4821 20.37 31.4801ZM27.62 31.4801C27.5983 31.4806 27.5772 31.4875 27.5594 31.5C27.5416 31.5124 27.5279 31.5299 27.52 31.5501C27.5137 31.5643 27.5104 31.5796 27.5104 31.5951C27.5104 31.6106 27.5137 31.6259 27.52 31.6401C27.5266 31.6546 27.5363 31.6674 27.5484 31.6778C27.5605 31.6881 27.5747 31.6958 27.59 31.7001C27.6044 31.7021 27.6191 31.7012 27.6332 31.6975C27.6473 31.6938 27.6606 31.6873 27.6722 31.6785C27.6838 31.6697 27.6935 31.6586 27.7009 31.6461C27.7082 31.6335 27.713 31.6195 27.715 31.6051C27.717 31.5907 27.7161 31.576 27.7124 31.5619C27.7087 31.5478 27.7022 31.5345 27.6934 31.5229C27.6846 31.5113 27.6735 31.5016 27.661 31.4942C27.6484 31.4869 27.6344 31.4821 27.62 31.4801ZM20.35 32.0401C20.3244 32.0448 20.3013 32.0585 20.2848 32.0786C20.2684 32.0988 20.2596 32.1241 20.26 32.1501C20.2597 32.1664 20.2631 32.1825 20.2698 32.1974C20.2765 32.2122 20.2865 32.2254 20.2989 32.2359C20.3114 32.2464 20.326 32.2541 20.3417 32.2582C20.3575 32.2624 20.374 32.2631 20.39 32.2601C20.4192 32.2574 20.4461 32.2433 20.4649 32.2208C20.4836 32.1983 20.4927 32.1693 20.49 32.1401C20.4873 32.1109 20.4732 32.084 20.4507 32.0652C20.4282 32.0465 20.3992 32.0374 20.37 32.0401H20.35ZM27.6 32.0401C27.5744 32.0448 27.5513 32.0585 27.5348 32.0786C27.5184 32.0988 27.5096 32.1241 27.51 32.1501C27.5097 32.1664 27.5131 32.1825 27.5198 32.1974C27.5265 32.2122 27.5365 32.2254 27.5489 32.2359C27.5614 32.2464 27.576 32.2541 27.5917 32.2582C27.6075 32.2624 27.624 32.2631 27.64 32.2601C27.6692 32.2574 27.6961 32.2433 27.7149 32.2208C27.7336 32.1983 27.7427 32.1693 27.74 32.1401C27.7373 32.1109 27.7232 32.084 27.7007 32.0652C27.6782 32.0465 27.6492 32.0374 27.62 32.0401H27.6ZM24 32.0801C23.5757 32.0801 23.1687 32.2487 22.8686 32.5487C22.5686 32.8488 22.4 33.2558 22.4 33.6801C22.4 34.1044 22.5686 34.5114 22.8686 34.8115C23.1687 35.1115 23.5757 35.2801 24 35.2801C24.4243 35.2801 24.8313 35.1115 25.1314 34.8115C25.4314 34.5114 25.6 34.1044 25.6 33.6801C25.6 33.2558 25.4314 32.8488 25.1314 32.5487C24.8313 32.2487 24.4243 32.0801 24 32.0801ZM20.36 32.6001C20.3369 32.6008 20.3146 32.6087 20.2962 32.6228C20.2779 32.6368 20.2645 32.6563 20.2578 32.6784C20.2512 32.7006 20.2517 32.7243 20.2593 32.7461C20.2668 32.7679 20.2811 32.7868 20.3 32.8001C20.3164 32.8137 20.3364 32.8222 20.3576 32.8246C20.3788 32.8271 20.4002 32.8233 20.4193 32.8137C20.4384 32.8042 20.4543 32.7893 20.4651 32.7709C20.4758 32.7525 20.481 32.7314 20.48 32.7101C20.4777 32.6843 20.4665 32.6602 20.4482 32.6419C20.4299 32.6236 20.4058 32.6124 20.38 32.6101H20.36V32.6001ZM27.61 32.6001C27.5869 32.6008 27.5646 32.6087 27.5462 32.6228C27.5279 32.6368 27.5145 32.6563 27.5078 32.6784C27.5012 32.7006 27.5017 32.7243 27.5093 32.7461C27.5168 32.7679 27.5311 32.7868 27.55 32.8001C27.5664 32.8137 27.5864 32.8222 27.6076 32.8246C27.6288 32.8271 27.6502 32.8233 27.6693 32.8137C27.6884 32.8042 27.7043 32.7893 27.7151 32.7709C27.7258 32.7525 27.731 32.7314 27.73 32.7101C27.7277 32.6843 27.7165 32.6602 27.6982 32.6419C27.6799 32.6236 27.6558 32.6124 27.63 32.6101H27.61V32.6001ZM20.38 33.1601C20.3639 33.1586 20.3476 33.1606 20.3323 33.1661C20.317 33.1716 20.3032 33.1803 20.2917 33.1918C20.2802 33.2033 20.2715 33.2171 20.266 33.2324C20.2605 33.2477 20.2585 33.264 20.26 33.2801C20.26 33.3401 20.31 33.3801 20.38 33.3801C20.4058 33.3778 20.4299 33.3666 20.4482 33.3483C20.4665 33.33 20.4777 33.3059 20.48 33.2801C20.4814 33.2656 20.4799 33.2511 20.4756 33.2372C20.4713 33.2233 20.4643 33.2104 20.455 33.1993C20.4457 33.1881 20.4343 33.1789 20.4214 33.1722C20.4085 33.1655 20.3945 33.1614 20.38 33.1601ZM27.63 33.1601C27.6139 33.1586 27.5976 33.1606 27.5823 33.1661C27.567 33.1716 27.5532 33.1803 27.5417 33.1918C27.5302 33.2033 27.5215 33.2171 27.516 33.2324C27.5105 33.2477 27.5085 33.264 27.51 33.2801C27.51 33.3401 27.56 33.3801 27.63 33.3801C27.6558 33.3778 27.6799 33.3666 27.6982 33.3483C27.7165 33.33 27.7277 33.3059 27.73 33.2801C27.7314 33.2656 27.7299 33.2511 27.7256 33.2372C27.7213 33.2233 27.7143 33.2104 27.705 33.1993C27.6957 33.1881 27.6843 33.1789 27.6714 33.1722C27.6585 33.1655 27.6445 33.1614 27.63 33.1601ZM20.37 33.7301C20.3408 33.7301 20.3128 33.7417 20.2922 33.7623C20.2716 33.7829 20.26 33.8109 20.26 33.8401C20.26 33.8693 20.2716 33.8973 20.2922 33.9179C20.3128 33.9385 20.3408 33.9501 20.37 33.9501C20.3992 33.9501 20.4272 33.9385 20.4478 33.9179C20.4684 33.8973 20.48 33.8693 20.48 33.8401C20.48 33.8109 20.4684 33.7829 20.4478 33.7623C20.4272 33.7417 20.3992 33.7301 20.37 33.7301ZM27.62 33.7301C27.5908 33.7301 27.5628 33.7417 27.5422 33.7623C27.5216 33.7829 27.51 33.8109 27.51 33.8401C27.51 33.8693 27.5216 33.8973 27.5422 33.9179C27.5628 33.9385 27.5908 33.9501 27.62 33.9501C27.6492 33.9501 27.6772 33.9385 27.6978 33.9179C27.7184 33.8973 27.73 33.8693 27.73 33.8401C27.73 33.8109 27.7184 33.7829 27.6978 33.7623C27.6772 33.7417 27.6492 33.7301 27.62 33.7301ZM16.72 34.0901C16.2957 34.0901 15.8887 34.2587 15.5886 34.5587C15.2886 34.8588 15.12 35.2658 15.12 35.6901C15.12 36.1144 15.2886 36.5214 15.5886 36.8215C15.8887 37.1215 16.2957 37.2901 16.72 37.2901C17.1443 37.2901 17.5513 37.1215 17.8514 36.8215C18.1514 36.5214 18.32 36.1144 18.32 35.6901C18.32 35.2658 18.1514 34.8588 17.8514 34.5587C17.5513 34.2587 17.1443 34.0901 16.72 34.0901ZM31.27 34.0901C30.8457 34.0901 30.4387 34.2587 30.1386 34.5587C29.8386 34.8588 29.67 35.2658 29.67 35.6901C29.67 36.1144 29.8386 36.5214 30.1386 36.8215C30.4387 37.1215 30.8457 37.2901 31.27 37.2901C31.6943 37.2901 32.1013 37.1215 32.4014 36.8215C32.7014 36.5214 32.87 36.1144 32.87 35.6901C32.87 35.2658 32.7014 34.8588 32.4014 34.5587C32.1013 34.2587 31.6943 34.0901 31.27 34.0901ZM20.37 34.2901C20.3408 34.2901 20.3128 34.3017 20.2922 34.3223C20.2716 34.3429 20.26 34.3709 20.26 34.4001C20.26 34.4293 20.2716 34.4573 20.2922 34.4779C20.3128 34.4985 20.3408 34.5101 20.37 34.5101C20.3992 34.5101 20.4272 34.4985 20.4478 34.4779C20.4684 34.4573 20.48 34.4293 20.48 34.4001C20.48 34.3709 20.4684 34.3429 20.4478 34.3223C20.4272 34.3017 20.3992 34.2901 20.37 34.2901ZM27.62 34.2901C27.5908 34.2901 27.5628 34.3017 27.5422 34.3223C27.5216 34.3429 27.51 34.3709 27.51 34.4001C27.51 34.4293 27.5216 34.4573 27.5422 34.4779C27.5628 34.4985 27.5908 34.5101 27.62 34.5101C27.6492 34.5101 27.6772 34.4985 27.6978 34.4779C27.7184 34.4573 27.73 34.4293 27.73 34.4001C27.73 34.3709 27.7184 34.3429 27.6978 34.3223C27.6772 34.3017 27.6492 34.2901 27.62 34.2901ZM20.37 34.8501C20.3395 34.8501 20.3102 34.8622 20.2887 34.8838C20.2671 34.9053 20.255 34.9346 20.255 34.9651C20.255 34.9956 20.2671 35.0249 20.2887 35.0464C20.3102 35.068 20.3395 35.0801 20.37 35.0801C20.4005 35.0801 20.4298 35.068 20.4513 35.0464C20.4729 35.0249 20.485 34.9956 20.485 34.9651C20.485 34.9346 20.4729 34.9053 20.4513 34.8838C20.4298 34.8622 20.4005 34.8501 20.37 34.8501ZM27.62 34.8501C27.5895 34.8501 27.5602 34.8622 27.5387 34.8838C27.5171 34.9053 27.505 34.9346 27.505 34.9651C27.505 34.9956 27.5171 35.0249 27.5387 35.0464C27.5602 35.068 27.5895 35.0801 27.62 35.0801C27.6505 35.0801 27.6798 35.068 27.7013 35.0464C27.7229 35.0249 27.735 34.9956 27.735 34.9651C27.735 34.9346 27.7229 34.9053 27.7013 34.8838C27.6798 34.8622 27.6505 34.8501 27.62 34.8501ZM20.37 35.4101C20.3471 35.4113 20.3251 35.4197 20.3072 35.434C20.2892 35.4484 20.2762 35.468 20.27 35.4901C20.2637 35.5043 20.2604 35.5196 20.2604 35.5351C20.2604 35.5506 20.2637 35.5659 20.27 35.5801C20.2777 35.5927 20.2879 35.6036 20.2999 35.6122C20.3119 35.6208 20.3256 35.6269 20.34 35.6301C20.3692 35.6341 20.3987 35.6263 20.4222 35.6085C20.4456 35.5907 20.461 35.5643 20.465 35.5351C20.469 35.5059 20.4612 35.4764 20.4434 35.4529C20.4256 35.4295 20.3992 35.4141 20.37 35.4101ZM27.62 35.4101C27.5971 35.4113 27.5751 35.4197 27.5572 35.434C27.5392 35.4484 27.5262 35.468 27.52 35.4901C27.5137 35.5043 27.5104 35.5196 27.5104 35.5351C27.5104 35.5506 27.5137 35.5659 27.52 35.5801C27.5277 35.5927 27.5379 35.6036 27.5499 35.6122C27.5619 35.6208 27.5756 35.6269 27.59 35.6301C27.6192 35.6341 27.6487 35.6263 27.6722 35.6085C27.6956 35.5907 27.711 35.5643 27.715 35.5351C27.719 35.5059 27.7112 35.4764 27.6934 35.4529C27.6756 35.4295 27.6492 35.4141 27.62 35.4101ZM24 35.9201C23.5757 35.9201 23.1687 36.0887 22.8686 36.3887C22.5686 36.6888 22.4 37.0958 22.4 37.5201C22.4 37.9444 22.5686 38.3514 22.8686 38.6515C23.1687 38.9515 23.5757 39.1201 24 39.1201C24.4243 39.1201 24.8313 38.9515 25.1314 38.6515C25.4314 38.3514 25.6 37.9444 25.6 37.5201C25.6 37.0958 25.4314 36.6888 25.1314 36.3887C24.8313 36.0887 24.4243 35.9201 24 35.9201ZM20.37 35.9801C20.3556 35.9808 20.3414 35.9843 20.3283 35.9904C20.3152 35.9965 20.3034 36.0052 20.2937 36.0159C20.2839 36.0265 20.2764 36.039 20.2715 36.0526C20.2665 36.0662 20.2643 36.0807 20.265 36.0951C20.2657 36.1095 20.2692 36.1237 20.2753 36.1368C20.2814 36.1499 20.2901 36.1617 20.3008 36.1714C20.3114 36.1812 20.3239 36.1887 20.3375 36.1936C20.3511 36.1986 20.3656 36.2008 20.38 36.2001C20.4092 36.1988 20.4366 36.1859 20.4563 36.1643C20.476 36.1428 20.4863 36.1143 20.485 36.0851C20.4837 36.0559 20.4708 36.0285 20.4492 36.0088C20.4277 35.9891 20.3992 35.9788 20.37 35.9801ZM27.62 35.9801C27.5983 35.9806 27.5772 35.9875 27.5594 36C27.5416 36.0124 27.5279 36.0299 27.52 36.0501C27.5137 36.0643 27.5104 36.0796 27.5104 36.0951C27.5104 36.1106 27.5137 36.1259 27.52 36.1401C27.5266 36.1546 27.5363 36.1674 27.5484 36.1778C27.5605 36.1881 27.5747 36.1958 27.59 36.2001C27.6044 36.2021 27.6191 36.2012 27.6332 36.1975C27.6473 36.1938 27.6606 36.1873 27.6722 36.1785C27.6838 36.1697 27.6935 36.1586 27.7009 36.1461C27.7082 36.1335 27.713 36.1195 27.715 36.1051C27.717 36.0907 27.7161 36.076 27.7124 36.0619C27.7087 36.0478 27.7022 36.0345 27.6934 36.0229C27.6846 36.0113 27.6735 36.0016 27.661 35.9942C27.6484 35.9869 27.6344 35.9821 27.62 35.9801ZM20.37 36.5401C20.3408 36.5401 20.3128 36.5517 20.2922 36.5723C20.2716 36.5929 20.26 36.6209 20.26 36.6501C20.26 36.6793 20.2716 36.7073 20.2922 36.7279C20.3128 36.7485 20.3408 36.7601 20.37 36.7601C20.3949 36.7645 20.4206 36.7602 20.4427 36.7479C20.4648 36.7357 20.482 36.7161 20.4914 36.6926C20.5008 36.6692 20.5018 36.6432 20.4942 36.619C20.4867 36.5949 20.4711 36.5741 20.45 36.5601C20.4269 36.5433 20.3983 36.5361 20.37 36.5401ZM27.62 36.5401C27.5908 36.5401 27.5628 36.5517 27.5422 36.5723C27.5216 36.5929 27.51 36.6209 27.51 36.6501C27.51 36.6793 27.5216 36.7073 27.5422 36.7279C27.5628 36.7485 27.5908 36.7601 27.62 36.7601C27.6449 36.7645 27.6706 36.7602 27.6927 36.7479C27.7148 36.7357 27.732 36.7161 27.7414 36.6926C27.7508 36.6692 27.7518 36.6432 27.7442 36.619C27.7367 36.5949 27.7211 36.5741 27.7 36.5601C27.6769 36.5433 27.6483 36.5361 27.62 36.5401ZM20.35 37.1001C20.3244 37.1048 20.3013 37.1185 20.2848 37.1386C20.2684 37.1588 20.2596 37.1841 20.26 37.2101C20.26 37.2701 20.31 37.3301 20.37 37.3201C20.44 37.3201 20.48 37.2701 20.49 37.2201C20.4914 37.2048 20.4896 37.1894 20.4847 37.1749C20.4798 37.1604 20.4719 37.1471 20.4615 37.1358C20.4512 37.1245 20.4386 37.1155 20.4245 37.1093C20.4105 37.1032 20.3953 37.1 20.38 37.1001H20.36H20.35ZM27.6 37.1001C27.5744 37.1048 27.5513 37.1185 27.5348 37.1386C27.5184 37.1588 27.5096 37.1841 27.51 37.2101C27.51 37.2701 27.56 37.3301 27.62 37.3201C27.69 37.3201 27.73 37.2701 27.74 37.2201C27.7414 37.2048 27.7396 37.1894 27.7347 37.1749C27.7298 37.1604 27.7219 37.1471 27.7115 37.1358C27.7012 37.1245 27.6886 37.1155 27.6745 37.1093C27.6605 37.1032 27.6453 37.1 27.63 37.1001H27.61H27.6ZM16.72 37.9001C16.3169 37.9001 15.9303 38.0602 15.6452 38.3453C15.3601 38.6304 15.2 39.017 15.2 39.4201C15.2 39.8232 15.3601 40.2098 15.6452 40.4949C15.9303 40.78 16.3169 40.9401 16.72 40.9401C17.1231 40.9401 17.5097 40.78 17.7948 40.4949C18.0799 40.2098 18.24 39.8232 18.24 39.4201C18.24 39.017 18.0799 38.6304 17.7948 38.3453C17.5097 38.0602 17.1231 37.9001 16.72 37.9001ZM31.27 37.9001C30.8669 37.9001 30.4803 38.0602 30.1952 38.3453C29.9101 38.6304 29.75 39.017 29.75 39.4201C29.75 39.8232 29.9101 40.2098 30.1952 40.4949C30.4803 40.78 30.8669 40.9401 31.27 40.9401C31.6731 40.9401 32.0597 40.78 32.3448 40.4949C32.6299 40.2098 32.79 39.8232 32.79 39.4201C32.79 39.017 32.6299 38.6304 32.3448 38.3453C32.0597 38.0602 31.6731 37.9001 31.27 37.9001ZM20.37 38.2301C20.3442 38.2324 20.3201 38.2436 20.3018 38.2619C20.2835 38.2802 20.2723 38.3043 20.27 38.3301C20.27 38.4001 20.31 38.4501 20.37 38.4501C20.4005 38.4501 20.4298 38.438 20.4513 38.4164C20.4729 38.3948 20.485 38.3656 20.485 38.3351C20.485 38.3046 20.4729 38.2753 20.4513 38.2538C20.4298 38.2322 20.4005 38.2201 20.37 38.2201V38.2301ZM27.62 38.2301C27.5942 38.2324 27.5701 38.2436 27.5518 38.2619C27.5335 38.2802 27.5223 38.3043 27.52 38.3301C27.52 38.4001 27.56 38.4501 27.62 38.4501C27.6505 38.4501 27.6798 38.438 27.7013 38.4164C27.7229 38.3948 27.735 38.3656 27.735 38.3351C27.735 38.3046 27.7229 38.2753 27.7013 38.2538C27.6798 38.2322 27.6505 38.2201 27.62 38.2201V38.2301ZM20.37 38.7901C20.3483 38.7906 20.3272 38.7975 20.3094 38.81C20.2916 38.8224 20.2779 38.8399 20.27 38.8601C20.2637 38.8743 20.2604 38.8896 20.2604 38.9051C20.2604 38.9206 20.2637 38.9359 20.27 38.9501C20.2766 38.9646 20.2863 38.9774 20.2984 38.9878C20.3105 38.9981 20.3247 39.0058 20.34 39.0101C20.3544 39.0121 20.3691 39.0112 20.3832 39.0075C20.3973 39.0038 20.4106 38.9973 20.4222 38.9885C20.4338 38.9797 20.4435 38.9686 20.4509 38.9561C20.4582 38.9435 20.463 38.9295 20.465 38.9151C20.467 38.9007 20.4661 38.886 20.4624 38.8719C20.4587 38.8578 20.4522 38.8445 20.4434 38.8329C20.4346 38.8213 20.4235 38.8116 20.411 38.8042C20.3984 38.7969 20.3844 38.7921 20.37 38.7901ZM27.62 38.7901C27.5983 38.7906 27.5772 38.7975 27.5594 38.81C27.5416 38.8224 27.5279 38.8399 27.52 38.8601C27.5137 38.8743 27.5104 38.8896 27.5104 38.9051C27.5104 38.9206 27.5137 38.9359 27.52 38.9501C27.5266 38.9646 27.5363 38.9774 27.5484 38.9878C27.5605 38.9981 27.5747 39.0058 27.59 39.0101C27.6044 39.0121 27.6191 39.0112 27.6332 39.0075C27.6473 39.0038 27.6606 38.9973 27.6722 38.9885C27.6838 38.9797 27.6935 38.9686 27.7009 38.9561C27.7082 38.9435 27.713 38.9295 27.715 38.9151C27.717 38.9007 27.7161 38.886 27.7124 38.8719C27.7087 38.8578 27.7022 38.8445 27.6934 38.8329C27.6846 38.8213 27.6735 38.8116 27.661 38.8042C27.6484 38.7969 27.6344 38.7921 27.62 38.7901ZM20.37 39.3501C20.3471 39.3513 20.3251 39.3597 20.3072 39.374C20.2892 39.3884 20.2762 39.408 20.27 39.4301C20.26 39.4558 20.26 39.4844 20.27 39.5101C20.2766 39.5246 20.2863 39.5374 20.2984 39.5478C20.3105 39.5581 20.3247 39.5658 20.34 39.5701C20.3692 39.5741 20.3987 39.5663 20.4222 39.5485C20.4456 39.5307 20.461 39.5043 20.465 39.4751C20.469 39.4459 20.4612 39.4164 20.4434 39.3929C20.4256 39.3695 20.3992 39.3541 20.37 39.3501ZM27.62 39.3501C27.5971 39.3513 27.5751 39.3597 27.5572 39.374C27.5392 39.3884 27.5262 39.408 27.52 39.4301C27.51 39.4558 27.51 39.4844 27.52 39.5101C27.5266 39.5246 27.5363 39.5374 27.5484 39.5478C27.5605 39.5581 27.5747 39.5658 27.59 39.5701C27.6192 39.5741 27.6487 39.5663 27.6722 39.5485C27.6956 39.5307 27.711 39.5043 27.715 39.4751C27.719 39.4459 27.7112 39.4164 27.6934 39.3929C27.6756 39.3695 27.6492 39.3541 27.62 39.3501ZM20.37 39.9101C20.3471 39.9113 20.3251 39.9197 20.3072 39.934C20.2892 39.9484 20.2762 39.968 20.27 39.9901C20.26 40.0158 20.26 40.0444 20.27 40.0701C20.2766 40.0846 20.2863 40.0974 20.2984 40.1078C20.3105 40.1181 20.3247 40.1258 20.34 40.1301C20.3544 40.1321 20.3691 40.1312 20.3832 40.1275C20.3973 40.1238 20.4106 40.1173 20.4222 40.1085C20.4338 40.0997 20.4435 40.0886 20.4509 40.0761C20.4582 40.0635 20.463 40.0495 20.465 40.0351C20.467 40.0207 20.4661 40.006 20.4624 39.9919C20.4587 39.9778 20.4522 39.9645 20.4434 39.9529C20.4346 39.9413 20.4235 39.9316 20.411 39.9242C20.3984 39.9169 20.3844 39.9121 20.37 39.9101ZM27.62 39.9101C27.5971 39.9113 27.5751 39.9197 27.5572 39.934C27.5392 39.9484 27.5262 39.968 27.52 39.9901C27.51 40.0158 27.51 40.0444 27.52 40.0701C27.5266 40.0846 27.5363 40.0974 27.5484 40.1078C27.5605 40.1181 27.5747 40.1258 27.59 40.1301C27.6044 40.1321 27.6191 40.1312 27.6332 40.1275C27.6473 40.1238 27.6606 40.1173 27.6722 40.1085C27.6838 40.0997 27.6935 40.0886 27.7009 40.0761C27.7082 40.0635 27.713 40.0495 27.715 40.0351C27.717 40.0207 27.7161 40.006 27.7124 39.9919C27.7087 39.9778 27.7022 39.9645 27.6934 39.9529C27.6846 39.9413 27.6735 39.9316 27.661 39.9242C27.6484 39.9169 27.6344 39.9121 27.62 39.9101ZM20.37 40.4801C20.3451 40.4757 20.3194 40.48 20.2973 40.4923C20.2752 40.5045 20.258 40.5241 20.2486 40.5476C20.2392 40.571 20.2382 40.597 20.2458 40.6212C20.2533 40.6453 20.2689 40.6661 20.29 40.6801C20.3016 40.6898 20.3151 40.6971 20.3296 40.7013C20.3441 40.7056 20.3593 40.7069 20.3744 40.705C20.3894 40.7031 20.4038 40.6982 20.4169 40.6904C20.4299 40.6827 20.4412 40.6724 20.45 40.6601C20.4677 40.6385 20.4765 40.611 20.4746 40.5831C20.4728 40.5553 20.4604 40.5292 20.44 40.5101C20.421 40.4921 20.3962 40.4814 20.37 40.4801ZM27.62 40.4801C27.5951 40.4757 27.5694 40.48 27.5473 40.4923C27.5252 40.5045 27.508 40.5241 27.4986 40.5476C27.4892 40.571 27.4882 40.597 27.4958 40.6212C27.5033 40.6453 27.5189 40.6661 27.54 40.6801C27.5516 40.6898 27.5651 40.6971 27.5796 40.7013C27.5941 40.7056 27.6093 40.7069 27.6244 40.705C27.6394 40.7031 27.6538 40.6982 27.6669 40.6904C27.6799 40.6827 27.6912 40.6724 27.7 40.6601C27.7177 40.6385 27.7265 40.611 27.7246 40.5831C27.7228 40.5553 27.7104 40.5292 27.69 40.5101C27.671 40.4921 27.6462 40.4814 27.62 40.4801ZM20.35 41.0401C20.326 41.0445 20.3042 41.0566 20.2879 41.0747C20.2716 41.0928 20.2618 41.1158 20.26 41.1401C20.258 41.1622 20.2627 41.1843 20.2735 41.2037C20.2843 41.223 20.3007 41.2387 20.3205 41.2486C20.3404 41.2584 20.3627 41.2621 20.3847 41.2591C20.4066 41.256 20.4271 41.2464 20.4435 41.2315C20.4599 41.2166 20.4715 41.1971 20.4766 41.1755C20.4817 41.1539 20.4802 41.1313 20.4722 41.1106C20.4643 41.09 20.4503 41.0722 20.432 41.0596C20.4138 41.047 20.3922 41.0402 20.37 41.0401H20.36H20.35ZM27.6 41.0401C27.576 41.0445 27.5542 41.0566 27.5379 41.0747C27.5216 41.0928 27.5118 41.1158 27.51 41.1401C27.508 41.1622 27.5127 41.1843 27.5235 41.2037C27.5343 41.223 27.5507 41.2387 27.5705 41.2486C27.5904 41.2584 27.6127 41.2621 27.6347 41.2591C27.6566 41.256 27.6771 41.2464 27.6935 41.2315C27.7099 41.2166 27.7215 41.1971 27.7266 41.1755C27.7317 41.1539 27.7302 41.1313 27.7222 41.1106C27.7143 41.09 27.7003 41.0722 27.682 41.0596C27.6638 41.047 27.6422 41.0402 27.62 41.0401H27.61H27.6ZM20.35 41.6001C20.3277 41.6026 20.3067 41.6119 20.2898 41.6266C20.2729 41.6414 20.261 41.661 20.2555 41.6827C20.2501 41.7045 20.2514 41.7274 20.2594 41.7484C20.2673 41.7694 20.2815 41.7874 20.3 41.8001C20.3164 41.8137 20.3364 41.8222 20.3576 41.8246C20.3788 41.8271 20.4002 41.8233 20.4193 41.8137C20.4384 41.8042 20.4543 41.7893 20.4651 41.7709C20.4758 41.7525 20.481 41.7314 20.48 41.7101C20.4801 41.6826 20.4699 41.656 20.4514 41.6357C20.4329 41.6153 20.4074 41.6026 20.38 41.6001H20.36H20.35ZM27.6 41.6001C27.5777 41.6026 27.5567 41.6119 27.5398 41.6266C27.5229 41.6414 27.511 41.661 27.5055 41.6827C27.5001 41.7045 27.5014 41.7274 27.5094 41.7484C27.5173 41.7694 27.5315 41.7874 27.55 41.8001C27.5664 41.8137 27.5864 41.8222 27.6076 41.8246C27.6288 41.8271 27.6502 41.8233 27.6693 41.8137C27.6884 41.8042 27.7043 41.7893 27.7151 41.7709C27.7258 41.7525 27.731 41.7314 27.73 41.7101C27.7301 41.6826 27.7199 41.656 27.7014 41.6357C27.6829 41.6153 27.6574 41.6026 27.63 41.6001H27.61H27.6ZM20.38 42.1601C20.3653 42.1595 20.3507 42.1619 20.337 42.167C20.3232 42.1722 20.3107 42.18 20.3 42.1901C20.2803 42.2038 20.2656 42.2236 20.2583 42.2465C20.2509 42.2694 20.2512 42.294 20.2591 42.3167C20.267 42.3393 20.2822 42.3588 20.3022 42.372C20.3222 42.3853 20.346 42.3916 20.37 42.3901C20.3861 42.3916 20.4024 42.3896 20.4177 42.3841C20.433 42.3786 20.4468 42.3699 20.4583 42.3584C20.4698 42.3469 20.4785 42.3331 20.484 42.3178C20.4895 42.3025 20.4915 42.2862 20.49 42.2701C20.49 42.2409 20.4784 42.2129 20.4578 42.1923C20.4372 42.1717 20.4092 42.1601 20.38 42.1601ZM27.63 42.1601C27.6083 42.1606 27.5872 42.1675 27.5694 42.18C27.5516 42.1924 27.5379 42.2099 27.53 42.2301C27.5232 42.2432 27.5191 42.2575 27.5179 42.2722C27.5167 42.2869 27.5185 42.3017 27.5232 42.3157C27.5279 42.3297 27.5353 42.3426 27.5451 42.3537C27.5548 42.3647 27.5667 42.3737 27.58 42.3801C27.6007 42.3877 27.6232 42.3889 27.6446 42.3836C27.666 42.3782 27.6853 42.3666 27.7 42.3501C27.7157 42.3353 27.7268 42.3162 27.7317 42.2952C27.7367 42.2742 27.7353 42.2522 27.7279 42.2319C27.7204 42.2117 27.7071 42.1941 27.6897 42.1813C27.6723 42.1685 27.6516 42.1612 27.63 42.1601ZM20.37 42.7201C20.3395 42.7201 20.3102 42.7322 20.2887 42.7538C20.2671 42.7753 20.255 42.8046 20.255 42.8351C20.255 42.8656 20.2671 42.8948 20.2887 42.9164C20.3102 42.938 20.3395 42.9501 20.37 42.9501C20.4005 42.9501 20.4298 42.938 20.4513 42.9164C20.4729 42.8948 20.485 42.8656 20.485 42.8351C20.485 42.8046 20.4729 42.7753 20.4513 42.7538C20.4298 42.7322 20.4005 42.7201 20.37 42.7201ZM27.62 42.7201C27.5895 42.7201 27.5602 42.7322 27.5387 42.7538C27.5171 42.7753 27.505 42.8046 27.505 42.8351C27.505 42.8656 27.5171 42.8948 27.5387 42.9164C27.5602 42.938 27.5895 42.9501 27.62 42.9501C27.6505 42.9501 27.6798 42.938 27.7013 42.9164C27.7229 42.8948 27.735 42.8656 27.735 42.8351C27.735 42.8046 27.7229 42.7753 27.7013 42.7538C27.6798 42.7322 27.6505 42.7201 27.62 42.7201Z" fill="#333333"/>
</svg>
