<svg width="48" height="48" viewBox="0 0 48 48" fill="none" xmlns="http://www.w3.org/2000/svg">
<path d="M14.346 4.09402C13.476 4.09402 12.777 4.79302 12.777 5.66202V42.523C12.777 43.393 13.477 44.093 14.346 44.093H34.05C34.92 44.093 35.618 43.393 35.618 42.523V5.66302C35.618 4.79302 34.919 4.09302 34.05 4.09302H14.346V4.09402ZM14.776 4.59402H33.616C34.446 4.59402 35.117 5.27702 35.117 6.12502V42.065C35.117 42.912 34.447 43.594 33.615 43.594H14.775C13.945 43.594 13.275 42.912 13.275 42.064V6.12502C13.275 5.27702 13.945 4.59402 14.775 4.59402H14.776ZM16.906 9.54402C16.4816 9.54402 16.0747 9.71259 15.7746 10.0126C15.4745 10.3127 15.306 10.7197 15.306 11.144C15.306 11.5684 15.4745 11.9753 15.7746 12.2754C16.0747 12.5754 16.4816 12.744 16.906 12.744C17.3303 12.744 17.7373 12.5754 18.0373 12.2754C18.3374 11.9753 18.506 11.5684 18.506 11.144C18.506 10.7197 18.3374 10.3127 18.0373 10.0126C17.7373 9.71259 17.3303 9.54402 16.906 9.54402ZM20.553 9.54402C20.1286 9.54402 19.7217 9.71259 19.4216 10.0126C19.1215 10.3127 18.953 10.7197 18.953 11.144C18.953 11.5684 19.1215 11.9753 19.4216 12.2754C19.7217 12.5754 20.1286 12.744 20.553 12.744C20.9773 12.744 21.3843 12.5754 21.6843 12.2754C21.9844 11.9753 22.153 11.5684 22.153 11.144C22.153 10.7197 21.9844 10.3127 21.6843 10.0126C21.3843 9.71259 20.9773 9.54402 20.553 9.54402ZM24.199 9.54402C23.7746 9.54402 23.3677 9.71259 23.0676 10.0126C22.7675 10.3127 22.599 10.7197 22.599 11.144C22.599 11.5684 22.7675 11.9753 23.0676 12.2754C23.3677 12.5754 23.7746 12.744 24.199 12.744C24.6233 12.744 25.0303 12.5754 25.3303 12.2754C25.6304 11.9753 25.799 11.5684 25.799 11.144C25.799 10.7197 25.6304 10.3127 25.3303 10.0126C25.0303 9.71259 24.6233 9.54402 24.199 9.54402ZM27.844 9.54402C27.4196 9.54402 27.0127 9.71259 26.7126 10.0126C26.4125 10.3127 26.244 10.7197 26.244 11.144C26.244 11.5684 26.4125 11.9753 26.7126 12.2754C27.0127 12.5754 27.4196 12.744 27.844 12.744C28.2683 12.744 28.6753 12.5754 28.9753 12.2754C29.2754 11.9753 29.444 11.5684 29.444 11.144C29.444 10.7197 29.2754 10.3127 28.9753 10.0126C28.6753 9.71259 28.2683 9.54402 27.844 9.54402ZM31.49 9.54402C31.0656 9.54402 30.6587 9.71259 30.3586 10.0126C30.0585 10.3127 29.89 10.7197 29.89 11.144C29.89 11.5684 30.0585 11.9753 30.3586 12.2754C30.6587 12.5754 31.0656 12.744 31.49 12.744C31.9143 12.744 32.3213 12.5754 32.6213 12.2754C32.9214 11.9753 33.09 11.5684 33.09 11.144C33.09 10.7197 32.9214 10.3127 32.6213 10.0126C32.3213 9.71259 31.9143 9.54402 31.49 9.54402ZM16.906 10.006C17.0554 10.0058 17.2033 10.035 17.3414 10.092C17.4795 10.149 17.605 10.2326 17.7108 10.3381C17.8165 10.4436 17.9005 10.5689 17.9578 10.7068C18.0152 10.8448 18.0448 10.9926 18.045 11.142C18.0452 11.2914 18.0159 11.4394 17.959 11.5774C17.902 11.7155 17.8184 11.841 17.7129 11.9468C17.6074 12.0526 17.4821 12.1365 17.3442 12.1939C17.2062 12.2512 17.0584 12.2808 16.909 12.281C16.6073 12.2814 16.3178 12.162 16.1042 11.9489C15.8906 11.7359 15.7704 11.4467 15.77 11.145C15.7696 10.8433 15.889 10.5538 16.1021 10.3402C16.3151 10.1266 16.6043 10.0064 16.906 10.006ZM20.553 10.006C20.7024 10.0059 20.8503 10.0352 20.9884 10.0922C21.1264 10.1493 21.2519 10.2329 21.3576 10.3385C21.4633 10.444 21.5472 10.5693 21.6045 10.7073C21.6618 10.8452 21.6913 10.9931 21.6915 11.1425C21.6916 11.2919 21.6623 11.4398 21.6053 11.5779C21.5482 11.716 21.4646 11.8414 21.359 11.9471C21.2535 12.0529 21.1282 12.1368 20.9902 12.194C20.8522 12.2513 20.7044 12.2809 20.555 12.281C20.2533 12.2813 19.9639 12.1617 19.7504 11.9486C19.5368 11.7354 19.4167 11.4462 19.4165 11.1445C19.4162 10.8428 19.5358 10.5534 19.7489 10.3399C19.9621 10.1264 20.2513 10.0063 20.553 10.006ZM24.199 10.006C24.3484 10.0058 24.4963 10.035 24.6344 10.092C24.7725 10.149 24.898 10.2326 25.0037 10.3381C25.1095 10.4436 25.1935 10.5689 25.2508 10.7068C25.3082 10.8448 25.3378 10.9926 25.338 11.142C25.3382 11.2914 25.3089 11.4394 25.252 11.5774C25.195 11.7155 25.1114 11.841 25.0059 11.9468C24.9004 12.0526 24.7751 12.1365 24.6372 12.1939C24.4992 12.2512 24.3514 12.2808 24.202 12.281C23.9003 12.2814 23.6108 12.162 23.3972 11.9489C23.1836 11.7359 23.0634 11.4467 23.063 11.145C23.0626 10.8433 23.182 10.5538 23.3951 10.3402C23.6081 10.1266 23.8973 10.0064 24.199 10.006ZM27.844 10.006C27.9934 10.0059 28.1413 10.0352 28.2794 10.0922C28.4174 10.1493 28.5429 10.2329 28.6486 10.3385C28.7543 10.444 28.8382 10.5693 28.8955 10.7073C28.9528 10.8452 28.9823 10.9931 28.9825 11.1425C28.9826 11.2919 28.9533 11.4398 28.8963 11.5779C28.8392 11.716 28.7556 11.8414 28.65 11.9471C28.5445 12.0529 28.4192 12.1368 28.2812 12.194C28.1432 12.2513 27.9954 12.2809 27.846 12.281C27.5443 12.2813 27.2549 12.1617 27.0413 11.9486C26.8278 11.7354 26.7077 11.4462 26.7075 11.1445C26.7072 10.8428 26.8268 10.5534 27.0399 10.3399C27.2531 10.1264 27.5423 10.0063 27.844 10.006ZM31.49 10.006C31.6394 10.0058 31.7873 10.035 31.9254 10.092C32.0635 10.149 32.189 10.2326 32.2948 10.3381C32.4005 10.4436 32.4845 10.5689 32.5418 10.7068C32.5992 10.8448 32.6288 10.9926 32.629 11.142C32.6292 11.2914 32.5999 11.4394 32.543 11.5774C32.486 11.7155 32.4024 11.841 32.2969 11.9468C32.1914 12.0526 32.0661 12.1365 31.9282 12.1939C31.7902 12.2512 31.6424 12.2808 31.493 12.281C31.1913 12.2814 30.9018 12.162 30.6882 11.9489C30.4746 11.7359 30.3544 11.4467 30.354 11.145C30.3536 10.8433 30.473 10.5538 30.6861 10.3402C30.8991 10.1266 31.1883 10.0064 31.49 10.006ZM13.795 14.98C13.7802 14.9801 13.7656 14.9832 13.752 14.989C13.7384 14.9948 13.726 15.0033 13.7157 15.0139C13.7054 15.0245 13.6973 15.037 13.6918 15.0508C13.6864 15.0645 13.6837 15.0792 13.684 15.094C13.684 15.155 13.734 15.206 13.794 15.207C13.857 15.207 13.907 15.157 13.908 15.094C13.9082 15.0791 13.9055 15.0642 13.8999 15.0503C13.8944 15.0364 13.8861 15.0238 13.8755 15.0132C13.865 15.0025 13.8525 14.9941 13.8386 14.9884C13.8248 14.9827 13.8099 14.9799 13.795 14.98ZM14.357 14.98C14.3269 14.9803 14.2982 14.9924 14.277 15.0138C14.2558 15.0351 14.244 15.064 14.244 15.094C14.244 15.155 14.296 15.207 14.357 15.207C14.419 15.207 14.468 15.155 14.469 15.094V15.074C14.4651 15.0473 14.4515 15.023 14.4309 15.0057C14.4102 14.9884 14.3839 14.9792 14.357 14.98ZM14.92 14.98C14.905 14.9799 14.8902 14.9827 14.8763 14.9884C14.8625 14.9941 14.8499 15.0025 14.8394 15.0132C14.8289 15.0238 14.8206 15.0364 14.815 15.0503C14.8094 15.0642 14.8067 15.0791 14.807 15.094C14.807 15.156 14.857 15.208 14.92 15.207C14.981 15.207 15.03 15.155 15.031 15.094V15.074C15.0271 15.0475 15.0137 15.0234 14.9932 15.0061C14.9728 14.9887 14.9468 14.9795 14.92 14.98ZM15.482 14.98C15.467 14.9799 15.4522 14.9827 15.4383 14.9884C15.4245 14.9941 15.4119 15.0025 15.4014 15.0132C15.3909 15.0238 15.3826 15.0364 15.377 15.0503C15.3714 15.0642 15.3687 15.0791 15.369 15.094C15.369 15.156 15.42 15.208 15.482 15.207C15.544 15.207 15.593 15.155 15.594 15.094V15.086C15.5924 15.0574 15.58 15.0304 15.5591 15.0107C15.5383 14.991 15.5107 14.98 15.482 14.98ZM16.045 14.98C16.03 14.9799 16.0152 14.9827 16.0013 14.9884C15.9875 14.9941 15.9749 15.0025 15.9644 15.0132C15.9539 15.0238 15.9456 15.0364 15.94 15.0503C15.9344 15.0642 15.9317 15.0791 15.932 15.094C15.932 15.156 15.982 15.208 16.045 15.207C16.106 15.207 16.155 15.155 16.156 15.094V15.086C16.1545 15.0575 16.1421 15.0307 16.1215 15.011C16.1009 14.9913 16.0735 14.9802 16.045 14.98ZM16.607 14.98C16.592 14.9799 16.5772 14.9827 16.5633 14.9884C16.5495 14.9941 16.5369 15.0025 16.5264 15.0132C16.5159 15.0238 16.5076 15.0364 16.502 15.0503C16.4964 15.0642 16.4937 15.0791 16.494 15.094C16.494 15.156 16.545 15.208 16.607 15.207C16.669 15.207 16.718 15.155 16.719 15.094V15.086C16.7174 15.0574 16.705 15.0304 16.6841 15.0107C16.6633 14.991 16.6357 14.98 16.607 14.98ZM17.168 14.98C17.1532 14.9801 17.1386 14.9832 17.125 14.989C17.1114 14.9948 17.099 15.0033 17.0887 15.0139C17.0784 15.0245 17.0703 15.037 17.0648 15.0508C17.0594 15.0645 17.0567 15.0792 17.057 15.094C17.057 15.155 17.107 15.207 17.168 15.207C17.1979 15.2068 17.2265 15.1948 17.2476 15.1736C17.2687 15.1525 17.2807 15.1239 17.281 15.094V15.086C17.2794 15.0572 17.2668 15.0301 17.2458 15.0103C17.2247 14.9906 17.1968 14.9797 17.168 14.98ZM17.731 14.98C17.7161 14.98 17.7014 14.983 17.6876 14.9887C17.6739 14.9945 17.6615 15.0029 17.6511 15.0135C17.6406 15.0241 17.6324 15.0367 17.6269 15.0505C17.6214 15.0644 17.6187 15.0791 17.619 15.094C17.619 15.155 17.669 15.207 17.73 15.207C17.76 15.207 17.7889 15.1951 17.8102 15.174C17.8316 15.1528 17.8437 15.1241 17.844 15.094V15.086C17.8424 15.057 17.8297 15.0298 17.8084 15.01C17.7871 14.9902 17.759 14.9795 17.73 14.98H17.731ZM18.293 14.98C18.2782 14.9801 18.2636 14.9832 18.25 14.989C18.2364 14.9948 18.224 15.0033 18.2137 15.0139C18.2034 15.0245 18.1953 15.037 18.1898 15.0508C18.1844 15.0645 18.1817 15.0792 18.182 15.094C18.182 15.155 18.232 15.207 18.293 15.207C18.3229 15.2068 18.3515 15.1948 18.3726 15.1736C18.3937 15.1525 18.4057 15.1239 18.406 15.094V15.086C18.4044 15.0572 18.3918 15.0301 18.3708 15.0103C18.3497 14.9906 18.3218 14.9797 18.293 14.98ZM18.856 14.98C18.8411 14.98 18.8264 14.983 18.8126 14.9887C18.7989 14.9945 18.7865 15.0029 18.7761 15.0135C18.7656 15.0241 18.7574 15.0367 18.7519 15.0505C18.7464 15.0644 18.7437 15.0791 18.744 15.094C18.744 15.155 18.794 15.207 18.855 15.207C18.917 15.207 18.966 15.155 18.967 15.094V15.074C18.9631 15.0475 18.9497 15.0234 18.9292 15.0061C18.9088 14.9887 18.8828 14.9795 18.856 14.98ZM19.418 14.98C19.403 14.9799 19.3882 14.9827 19.3743 14.9884C19.3605 14.9941 19.3479 15.0025 19.3374 15.0132C19.3269 15.0238 19.3186 15.0364 19.313 15.0503C19.3074 15.0642 19.3047 15.0791 19.305 15.094C19.305 15.156 19.356 15.208 19.418 15.207C19.479 15.207 19.528 15.155 19.529 15.094V15.086C19.5274 15.0575 19.5151 15.0307 19.4945 15.011C19.4739 14.9913 19.4465 14.9802 19.418 14.98ZM19.981 14.98C19.9659 14.9797 19.951 14.9825 19.937 14.9881C19.9231 14.9938 19.9104 15.0022 19.8998 15.0128C19.8891 15.0234 19.8807 15.0361 19.8751 15.0501C19.8695 15.064 19.8667 15.079 19.867 15.094C19.867 15.156 19.919 15.208 19.98 15.207C20.042 15.207 20.091 15.155 20.092 15.094V15.086C20.0904 15.0575 20.0781 15.0307 20.0575 15.011C20.0369 14.9913 20.0095 14.9802 19.981 14.98ZM20.543 14.98C20.528 14.9799 20.5132 14.9827 20.4993 14.9884C20.4855 14.9941 20.4729 15.0025 20.4624 15.0132C20.4519 15.0238 20.4436 15.0364 20.438 15.0503C20.4324 15.0642 20.4297 15.0791 20.43 15.094C20.43 15.156 20.481 15.208 20.543 15.207C20.604 15.207 20.653 15.155 20.654 15.094V15.086C20.6524 15.0575 20.6401 15.0307 20.6195 15.011C20.5989 14.9913 20.5715 14.9802 20.543 14.98ZM21.106 14.98C21.0909 14.9797 21.076 14.9825 21.062 14.9881C21.0481 14.9938 21.0354 15.0022 21.0248 15.0128C21.0141 15.0234 21.0057 15.0361 21.0001 15.0501C20.9945 15.064 20.9917 15.079 20.992 15.094C20.992 15.156 21.044 15.208 21.105 15.207C21.167 15.207 21.216 15.155 21.217 15.094V15.086C21.2154 15.0575 21.2031 15.0307 21.1825 15.011C21.1619 14.9913 21.1345 14.9802 21.106 14.98ZM21.666 14.98C21.6512 14.9801 21.6366 14.9832 21.623 14.989C21.6094 14.9948 21.597 15.0033 21.5867 15.0139C21.5764 15.0245 21.5683 15.037 21.5628 15.0508C21.5574 15.0645 21.5547 15.0792 21.555 15.094C21.555 15.155 21.605 15.207 21.666 15.207C21.6959 15.2068 21.7245 15.1948 21.7456 15.1736C21.7667 15.1525 21.7787 15.1239 21.779 15.094V15.086C21.7774 15.0572 21.7648 15.0301 21.7438 15.0103C21.7227 14.9906 21.6948 14.9797 21.666 14.98ZM22.229 14.98C22.2141 14.98 22.1994 14.983 22.1856 14.9887C22.1719 14.9945 22.1595 15.0029 22.1491 15.0135C22.1386 15.0241 22.1304 15.0367 22.1249 15.0505C22.1194 15.0644 22.1167 15.0791 22.117 15.094C22.117 15.155 22.167 15.207 22.228 15.207C22.258 15.207 22.2869 15.1951 22.3082 15.174C22.3296 15.1528 22.3417 15.1241 22.342 15.094V15.086C22.3404 15.0572 22.3278 15.0301 22.3068 15.0103C22.2857 14.9906 22.2578 14.9797 22.229 14.98ZM22.791 14.98C22.7762 14.9801 22.7616 14.9832 22.748 14.989C22.7344 14.9948 22.722 15.0033 22.7117 15.0139C22.7014 15.0245 22.6933 15.037 22.6878 15.0508C22.6824 15.0645 22.6797 15.0792 22.68 15.094C22.68 15.155 22.73 15.206 22.791 15.207C22.853 15.207 22.904 15.157 22.904 15.094C22.9042 15.0791 22.9015 15.0642 22.8959 15.0503C22.8904 15.0364 22.8821 15.0238 22.8715 15.0132C22.861 15.0025 22.8485 14.9941 22.8346 14.9884C22.8208 14.9827 22.8059 14.9799 22.791 14.98ZM23.354 14.98C23.3391 14.98 23.3244 14.983 23.3106 14.9887C23.2969 14.9945 23.2845 15.0029 23.2741 15.0135C23.2636 15.0241 23.2554 15.0367 23.2499 15.0505C23.2444 15.0644 23.2417 15.0791 23.242 15.094C23.242 15.155 23.292 15.207 23.353 15.207C23.3827 15.2065 23.411 15.1944 23.4319 15.1733C23.4529 15.1522 23.4647 15.1237 23.465 15.094V15.074C23.4609 15.0476 23.4474 15.0236 23.427 15.0063C23.4066 14.989 23.3807 14.9797 23.354 14.98ZM23.916 14.98C23.901 14.9799 23.8862 14.9827 23.8723 14.9884C23.8585 14.9941 23.8459 15.0025 23.8354 15.0132C23.8249 15.0238 23.8166 15.0364 23.811 15.0503C23.8054 15.0642 23.8027 15.0791 23.803 15.094C23.803 15.156 23.854 15.208 23.916 15.207C23.977 15.207 24.026 15.155 24.027 15.094V15.074C24.0231 15.0475 24.0097 15.0234 23.9892 15.0061C23.9688 14.9887 23.9428 14.9795 23.916 14.98ZM24.479 14.98C24.4639 14.9797 24.449 14.9825 24.435 14.9881C24.4211 14.9938 24.4084 15.0022 24.3978 15.0128C24.3871 15.0234 24.3787 15.0361 24.3731 15.0501C24.3675 15.064 24.3647 15.079 24.365 15.094C24.365 15.156 24.417 15.208 24.479 15.207C24.539 15.207 24.589 15.155 24.589 15.094V15.086C24.5875 15.0577 24.5753 15.031 24.5549 15.0114C24.5344 14.9917 24.5073 14.9805 24.479 14.98ZM25.041 14.98C25.026 14.9799 25.0112 14.9827 24.9973 14.9884C24.9835 14.9941 24.9709 15.0025 24.9604 15.0132C24.9499 15.0238 24.9416 15.0364 24.936 15.0503C24.9304 15.0642 24.9277 15.0791 24.928 15.094C24.928 15.156 24.979 15.208 25.041 15.207C25.102 15.207 25.151 15.155 25.152 15.094V15.086C25.1505 15.0575 25.1381 15.0307 25.1175 15.011C25.0969 14.9913 25.0695 14.9802 25.041 14.98ZM25.601 14.98C25.5863 14.9803 25.5718 14.9834 25.5583 14.9893C25.5448 14.9952 25.5326 15.0036 25.5224 15.0142C25.5121 15.0248 25.5041 15.0373 25.4987 15.051C25.4933 15.0647 25.4907 15.0793 25.491 15.094C25.491 15.155 25.541 15.207 25.601 15.207C25.631 15.207 25.6599 15.1951 25.6812 15.174C25.7026 15.1528 25.7147 15.1241 25.715 15.094V15.086C25.7134 15.0572 25.7008 15.0301 25.6798 15.0103C25.6587 14.9906 25.6308 14.9797 25.602 14.98H25.601ZM26.164 14.98C26.1492 14.9801 26.1346 14.9832 26.121 14.989C26.1074 14.9948 26.095 15.0033 26.0847 15.0139C26.0744 15.0245 26.0663 15.037 26.0608 15.0508C26.0554 15.0645 26.0527 15.0792 26.053 15.094C26.053 15.155 26.103 15.207 26.164 15.207C26.1939 15.2068 26.2225 15.1948 26.2436 15.1736C26.2647 15.1525 26.2767 15.1239 26.277 15.094V15.086C26.2754 15.0572 26.2628 15.0301 26.2418 15.0103C26.2207 14.9906 26.1928 14.9797 26.164 14.98ZM26.727 14.98C26.7121 14.98 26.6974 14.983 26.6836 14.9887C26.6699 14.9945 26.6575 15.0029 26.6471 15.0135C26.6366 15.0241 26.6284 15.0367 26.6229 15.0505C26.6174 15.0644 26.6147 15.0791 26.615 15.094C26.615 15.155 26.665 15.207 26.727 15.207C26.7569 15.2068 26.7855 15.1948 26.8066 15.1736C26.8277 15.1525 26.8397 15.1239 26.84 15.094V15.086C26.8384 15.0572 26.8258 15.0301 26.8048 15.0103C26.7837 14.9906 26.7558 14.9797 26.727 14.98ZM27.289 14.98C27.2742 14.9801 27.2596 14.9832 27.246 14.989C27.2324 14.9948 27.22 15.0033 27.2097 15.0139C27.1994 15.0245 27.1913 15.037 27.1858 15.0508C27.1804 15.0645 27.1777 15.0792 27.178 15.094C27.178 15.155 27.228 15.206 27.289 15.207C27.351 15.207 27.402 15.157 27.402 15.094C27.4022 15.0791 27.3995 15.0642 27.3939 15.0503C27.3884 15.0364 27.3801 15.0238 27.3695 15.0132C27.359 15.0025 27.3464 14.9941 27.3326 14.9884C27.3188 14.9827 27.3039 14.9799 27.289 14.98ZM27.852 14.98C27.8371 14.98 27.8224 14.983 27.8086 14.9887C27.7949 14.9945 27.7825 15.0029 27.7721 15.0135C27.7616 15.0241 27.7534 15.0367 27.7479 15.0505C27.7424 15.0644 27.7397 15.0791 27.74 15.094C27.74 15.155 27.79 15.207 27.852 15.207C27.912 15.207 27.962 15.155 27.962 15.094C27.964 15.086 27.964 15.082 27.962 15.074C27.9581 15.0477 27.9448 15.0237 27.9246 15.0064C27.9044 14.9891 27.8786 14.9797 27.852 14.98ZM28.414 14.98C28.399 14.9799 28.3842 14.9827 28.3703 14.9884C28.3565 14.9941 28.3439 15.0025 28.3334 15.0132C28.3229 15.0238 28.3146 15.0364 28.309 15.0503C28.3034 15.0642 28.3007 15.0791 28.301 15.094C28.301 15.156 28.352 15.208 28.414 15.207C28.475 15.207 28.524 15.155 28.525 15.094V15.086C28.5235 15.0577 28.5113 15.031 28.4909 15.0114C28.4704 14.9917 28.4433 14.9805 28.415 14.98H28.414ZM28.977 14.98C28.9619 14.9797 28.947 14.9825 28.933 14.9881C28.9191 14.9938 28.9064 15.0022 28.8958 15.0128C28.8851 15.0234 28.8767 15.0361 28.8711 15.0501C28.8655 15.064 28.8627 15.079 28.863 15.094C28.863 15.156 28.915 15.208 28.977 15.207C29.037 15.207 29.087 15.155 29.087 15.094V15.086C29.0855 15.0577 29.0733 15.031 29.0529 15.0114C29.0324 14.9917 29.0053 14.9805 28.977 14.98ZM29.539 14.98C29.524 14.9799 29.5092 14.9827 29.4953 14.9884C29.4815 14.9941 29.4689 15.0025 29.4584 15.0132C29.4479 15.0238 29.4396 15.0364 29.434 15.0503C29.4284 15.0642 29.4257 15.0791 29.426 15.094C29.426 15.156 29.477 15.208 29.539 15.207C29.6 15.207 29.649 15.155 29.65 15.094V15.086C29.6485 15.0577 29.6363 15.031 29.6159 15.0114C29.5954 14.9917 29.5683 14.9805 29.54 14.98H29.539ZM30.099 14.98C30.0843 14.9803 30.0698 14.9834 30.0563 14.9893C30.0428 14.9952 30.0306 15.0036 30.0204 15.0142C30.0101 15.0248 30.0021 15.0373 29.9967 15.051C29.9913 15.0647 29.9887 15.0793 29.989 15.094C29.989 15.155 30.038 15.207 30.099 15.207C30.129 15.207 30.1579 15.1951 30.1792 15.174C30.2006 15.1528 30.2127 15.1241 30.213 15.094V15.086C30.2114 15.0572 30.1988 15.0301 30.1778 15.0103C30.1567 14.9906 30.1288 14.9797 30.1 14.98H30.099ZM30.662 14.98C30.6472 14.9801 30.6326 14.9832 30.619 14.989C30.6054 14.9948 30.593 15.0033 30.5827 15.0139C30.5724 15.0245 30.5643 15.037 30.5588 15.0508C30.5534 15.0645 30.5507 15.0792 30.551 15.094C30.551 15.155 30.601 15.207 30.662 15.207C30.6919 15.2068 30.7205 15.1948 30.7416 15.1736C30.7627 15.1525 30.7747 15.1239 30.775 15.094V15.086C30.7734 15.0572 30.7608 15.0301 30.7398 15.0103C30.7187 14.9906 30.6908 14.9797 30.662 14.98ZM31.225 14.98C31.2101 14.98 31.1954 14.983 31.1817 14.9887C31.1679 14.9945 31.1555 15.0029 31.1451 15.0135C31.1346 15.0241 31.1264 15.0367 31.1209 15.0505C31.1154 15.0644 31.1127 15.0791 31.113 15.094C31.113 15.155 31.163 15.207 31.225 15.207C31.2549 15.2068 31.2835 15.1948 31.3046 15.1736C31.3257 15.1525 31.3377 15.1239 31.338 15.094V15.086C31.3364 15.0572 31.3238 15.0301 31.3028 15.0103C31.2817 14.9906 31.2538 14.9797 31.225 14.98ZM31.787 14.98C31.7722 14.9801 31.7576 14.9832 31.744 14.989C31.7304 14.9948 31.718 15.0033 31.7077 15.0139C31.6974 15.0245 31.6893 15.037 31.6838 15.0508C31.6784 15.0645 31.6757 15.0792 31.676 15.094C31.676 15.155 31.726 15.207 31.787 15.207C31.848 15.207 31.897 15.155 31.898 15.094V15.074C31.8941 15.0477 31.8808 15.0237 31.8606 15.0064C31.8404 14.9891 31.8146 14.9797 31.788 14.98H31.787ZM32.35 14.98C32.3349 14.9797 32.32 14.9825 32.306 14.9881C32.2921 14.9938 32.2794 15.0022 32.2688 15.0128C32.2581 15.0234 32.2497 15.0361 32.2441 15.0501C32.2385 15.064 32.2357 15.079 32.236 15.094C32.236 15.156 32.288 15.208 32.35 15.207C32.41 15.207 32.46 15.155 32.46 15.094C32.462 15.086 32.462 15.082 32.46 15.074C32.4561 15.0477 32.4428 15.0237 32.4226 15.0064C32.4024 14.9891 32.3766 14.9797 32.35 14.98ZM32.912 14.98C32.897 14.9799 32.8822 14.9827 32.8683 14.9884C32.8545 14.9941 32.8419 15.0025 32.8314 15.0132C32.8209 15.0238 32.8126 15.0364 32.807 15.0503C32.8014 15.0642 32.7987 15.0791 32.799 15.094C32.799 15.156 32.85 15.208 32.912 15.207C32.973 15.207 33.022 15.155 33.023 15.094V15.086C33.0215 15.0577 33.0093 15.031 32.9889 15.0114C32.9684 14.9917 32.9413 14.9805 32.913 14.98H32.912ZM33.475 14.98C33.4599 14.9797 33.445 14.9825 33.431 14.9881C33.4171 14.9938 33.4044 15.0022 33.3938 15.0128C33.3831 15.0234 33.3747 15.0361 33.3691 15.0501C33.3635 15.064 33.3607 15.079 33.361 15.094C33.361 15.156 33.413 15.208 33.475 15.207C33.5043 15.206 33.5322 15.1937 33.5527 15.1726C33.5732 15.1516 33.5847 15.1234 33.585 15.094V15.086C33.5835 15.0577 33.5713 15.031 33.5509 15.0114C33.5304 14.9917 33.5033 14.9805 33.475 14.98ZM34.037 14.98C34.022 14.9799 34.0072 14.9827 33.9933 14.9884C33.9795 14.9941 33.9669 15.0025 33.9564 15.0132C33.9459 15.0238 33.9376 15.0364 33.932 15.0503C33.9264 15.0642 33.9237 15.0791 33.924 15.094C33.924 15.156 33.975 15.208 34.037 15.207C34.0665 15.2062 34.0946 15.194 34.1153 15.1729C34.136 15.1519 34.1477 15.1236 34.148 15.094V15.086C34.1465 15.0577 34.1343 15.031 34.1139 15.0114C34.0934 14.9917 34.0663 14.9805 34.038 14.98H34.037ZM34.597 14.98C34.5823 14.9803 34.5678 14.9834 34.5543 14.9893C34.5408 14.9952 34.5286 15.0036 34.5184 15.0142C34.5081 15.0248 34.5001 15.0373 34.4947 15.051C34.4893 15.0647 34.4867 15.0793 34.487 15.094C34.487 15.155 34.536 15.207 34.597 15.207C34.627 15.207 34.6559 15.1951 34.6772 15.174C34.6986 15.1528 34.7107 15.1241 34.711 15.094V15.086C34.7094 15.0572 34.6968 15.0301 34.6758 15.0103C34.6547 14.9906 34.6268 14.9797 34.598 14.98H34.597ZM15.14 18.178C14.9252 18.1704 14.7112 18.2062 14.5105 18.2831C14.3099 18.36 14.1268 18.4766 13.9722 18.6258C13.8176 18.7751 13.6947 18.9539 13.6107 19.1517C13.5267 19.3495 13.4834 19.5621 13.4834 19.777C13.4834 19.9919 13.5267 20.2046 13.6107 20.4024C13.6947 20.6001 13.8176 20.779 13.9722 20.9282C14.1268 21.0774 14.3099 21.194 14.5105 21.2709C14.7112 21.3479 14.9252 21.3836 15.14 21.376C15.5543 21.3614 15.9467 21.1865 16.2346 20.8882C16.5225 20.5899 16.6834 20.1916 16.6834 19.777C16.6834 19.3625 16.5225 18.9641 16.2346 18.6658C15.9467 18.3676 15.5543 18.1927 15.14 18.178ZM18.763 18.178C18.5496 18.1727 18.3372 18.2101 18.1385 18.2881C17.9398 18.3661 17.7587 18.483 17.6058 18.6321C17.453 18.7811 17.3316 18.9593 17.2486 19.156C17.1657 19.3527 17.123 19.564 17.123 19.7775C17.123 19.991 17.1657 20.2023 17.2486 20.399C17.3316 20.5958 17.453 20.7739 17.6058 20.9229C17.7587 21.072 17.9398 21.189 18.1385 21.2669C18.3372 21.3449 18.5496 21.3824 18.763 21.377C19.1873 21.377 19.5943 21.2084 19.8943 20.9084C20.1944 20.6083 20.363 20.2014 20.363 19.777C20.363 19.3527 20.1944 18.9457 19.8943 18.6456C19.5943 18.3456 19.1873 18.177 18.763 18.177V18.178ZM22.386 18.178C22.1712 18.1704 21.9572 18.2062 21.7565 18.2831C21.5559 18.36 21.3728 18.4766 21.2182 18.6258C21.0636 18.7751 20.9407 18.9539 20.8567 19.1517C20.7727 19.3495 20.7294 19.5621 20.7294 19.777C20.7294 19.9919 20.7727 20.2046 20.8567 20.4024C20.9407 20.6001 21.0636 20.779 21.2182 20.9282C21.3728 21.0774 21.5559 21.194 21.7565 21.2709C21.9572 21.3479 22.1712 21.3836 22.386 21.376C22.8003 21.3614 23.1927 21.1865 23.4806 20.8882C23.7685 20.5899 23.9294 20.1916 23.9294 19.777C23.9294 19.3625 23.7685 18.9641 23.4806 18.6658C23.1927 18.3676 22.8003 18.1927 22.386 18.178ZM26.011 18.178C25.7962 18.1704 25.5822 18.2062 25.3815 18.2831C25.1809 18.36 24.9978 18.4766 24.8432 18.6258C24.6886 18.7751 24.5657 18.9539 24.4817 19.1517C24.3977 19.3495 24.3544 19.5621 24.3544 19.777C24.3544 19.9919 24.3977 20.2046 24.4817 20.4024C24.5657 20.6001 24.6886 20.779 24.8432 20.9282C24.9978 21.0774 25.1809 21.194 25.3815 21.2709C25.5822 21.3479 25.7962 21.3836 26.011 21.376C26.4253 21.3614 26.8177 21.1865 27.1056 20.8882C27.3935 20.5899 27.5544 20.1916 27.5544 19.777C27.5544 19.3625 27.3935 18.9641 27.1056 18.6658C26.8177 18.3676 26.4253 18.1927 26.011 18.178ZM29.634 18.178C29.4206 18.1727 29.2082 18.2101 29.0095 18.2881C28.8108 18.3661 28.6297 18.483 28.4768 18.6321C28.324 18.7811 28.2026 18.9593 28.1196 19.156C28.0367 19.3527 27.994 19.564 27.994 19.7775C27.994 19.991 28.0367 20.2023 28.1196 20.399C28.2026 20.5958 28.324 20.7739 28.4768 20.9229C28.6297 21.072 28.8108 21.189 29.0095 21.2669C29.2082 21.3449 29.4206 21.3824 29.634 21.377C30.0583 21.377 30.4653 21.2084 30.7653 20.9084C31.0654 20.6083 31.234 20.2014 31.234 19.777C31.234 19.3527 31.0654 18.9457 30.7653 18.6456C30.4653 18.3456 30.0583 18.177 29.634 18.177V18.178ZM33.259 18.178C33.0456 18.1727 32.8332 18.2101 32.6345 18.2881C32.4358 18.3661 32.2547 18.483 32.1018 18.6321C31.949 18.7811 31.8276 18.9593 31.7446 19.156C31.6617 19.3527 31.619 19.564 31.619 19.7775C31.619 19.991 31.6617 20.2023 31.7446 20.399C31.8276 20.5958 31.949 20.7739 32.1018 20.9229C32.2547 21.072 32.4358 21.189 32.6345 21.2669C32.8332 21.3449 33.0456 21.3824 33.259 21.377C33.6833 21.377 34.0903 21.2084 34.3903 20.9084C34.6904 20.6083 34.859 20.2014 34.859 19.777C34.859 19.3527 34.6904 18.9457 34.3903 18.6456C34.0903 18.3456 33.6833 18.177 33.259 18.177V18.178ZM15.139 18.638C15.2884 18.6378 15.4363 18.667 15.5744 18.724C15.7125 18.781 15.838 18.8646 15.9438 18.9701C16.0495 19.0756 16.1335 19.2009 16.1908 19.3388C16.2482 19.4768 16.2778 19.6246 16.278 19.774C16.2782 19.9234 16.2489 20.0714 16.192 20.2094C16.135 20.3475 16.0514 20.473 15.9459 20.5788C15.8404 20.6846 15.7151 20.7685 15.5772 20.8259C15.4392 20.8832 15.2914 20.9128 15.142 20.913C14.8404 20.9133 14.5511 20.7937 14.3377 20.5807C14.1243 20.3677 14.0042 20.0786 14.004 19.777C14.0037 19.4755 14.1232 19.1862 14.3363 18.9727C14.5493 18.7593 14.8384 18.6393 15.14 18.639L15.139 18.638ZM18.763 18.638C19.0647 18.6378 19.3541 18.7573 19.5676 18.9705C19.7811 19.1836 19.9012 19.4728 19.9015 19.7745C19.9017 20.0762 19.7822 20.3656 19.569 20.5791C19.3559 20.7927 19.0667 20.9128 18.765 20.913C18.4634 20.9133 18.1741 20.7937 17.9607 20.5807C17.7473 20.3677 17.6272 20.0786 17.627 19.777C17.6267 19.4755 17.7462 19.1862 17.9593 18.9727C18.1723 18.7593 18.4614 18.6393 18.763 18.639V18.638ZM22.386 18.638C22.6877 18.6378 22.9771 18.7573 23.1906 18.9705C23.4041 19.1836 23.5242 19.4728 23.5245 19.7745C23.5247 20.0762 23.4052 20.3656 23.192 20.5791C22.9789 20.7927 22.6897 20.9128 22.388 20.913C22.0864 20.9133 21.7971 20.7937 21.5837 20.5807C21.3703 20.3677 21.2502 20.0786 21.25 19.777C21.2497 19.4755 21.3692 19.1862 21.5823 18.9727C21.7953 18.7593 22.0844 18.6393 22.386 18.639V18.638ZM26.011 18.638C26.1604 18.6379 26.3083 18.6672 26.4464 18.7242C26.5844 18.7813 26.7099 18.8649 26.8156 18.9705C26.9213 19.076 27.0052 19.2013 27.0625 19.3393C27.1198 19.4772 27.1493 19.6251 27.1495 19.7745C27.1496 19.9239 27.1203 20.0718 27.0633 20.2099C27.0062 20.348 26.9226 20.4734 26.817 20.5791C26.7115 20.6849 26.5862 20.7688 26.4482 20.826C26.3102 20.8833 26.1624 20.9129 26.013 20.913C25.7114 20.9133 25.4221 20.7937 25.2087 20.5807C24.9953 20.3677 24.8752 20.0786 24.875 19.777C24.8747 19.4755 24.9942 19.1862 25.2073 18.9727C25.4203 18.7593 25.7094 18.6393 26.011 18.639V18.638ZM29.634 18.638C29.9357 18.6378 30.2251 18.7573 30.4386 18.9705C30.6521 19.1836 30.7722 19.4728 30.7725 19.7745C30.7727 20.0762 30.6532 20.3656 30.44 20.5791C30.2269 20.7927 29.9377 20.9128 29.636 20.913C29.3344 20.9133 29.0451 20.7937 28.8317 20.5807C28.6183 20.3677 28.4982 20.0786 28.498 19.777C28.4977 19.4755 28.6172 19.1862 28.8303 18.9727C29.0433 18.7593 29.3324 18.6393 29.634 18.639V18.638ZM33.259 18.638C33.4084 18.6379 33.5563 18.6672 33.6944 18.7242C33.8324 18.7813 33.9579 18.8649 34.0636 18.9705C34.1693 19.076 34.2532 19.2013 34.3105 19.3393C34.3678 19.4772 34.3973 19.6251 34.3975 19.7745C34.3976 19.9239 34.3683 20.0718 34.3113 20.2099C34.2542 20.348 34.1706 20.4734 34.065 20.5791C33.9595 20.6849 33.8342 20.7688 33.6962 20.826C33.5582 20.8833 33.4104 20.9129 33.261 20.913C32.9594 20.9133 32.6701 20.7937 32.4567 20.5807C32.2433 20.3677 32.1232 20.0786 32.123 19.777C32.1227 19.4755 32.2422 19.1862 32.4553 18.9727C32.6683 18.7593 32.9574 18.6393 33.259 18.639V18.638ZM13.795 23.98C13.7802 23.9801 13.7656 23.9832 13.752 23.989C13.7384 23.9948 13.726 24.0033 13.7157 24.0139C13.7054 24.0245 13.6973 24.037 13.6918 24.0508C13.6864 24.0645 13.6837 24.0792 13.684 24.094C13.684 24.155 13.734 24.206 13.794 24.207C13.857 24.207 13.907 24.157 13.908 24.094C13.9082 24.0791 13.9055 24.0642 13.8999 24.0503C13.8944 24.0364 13.8861 24.0238 13.8755 24.0132C13.865 24.0025 13.8525 23.9941 13.8386 23.9884C13.8248 23.9827 13.8099 23.9799 13.795 23.98ZM14.357 23.98C14.3269 23.9803 14.2982 23.9924 14.277 24.0138C14.2558 24.0351 14.244 24.064 14.244 24.094C14.244 24.155 14.296 24.207 14.357 24.207C14.419 24.207 14.468 24.155 14.469 24.094V24.074C14.4651 24.0473 14.4515 24.023 14.4309 24.0057C14.4102 23.9884 14.3839 23.9792 14.357 23.98ZM14.92 23.98C14.905 23.9799 14.8902 23.9827 14.8763 23.9884C14.8625 23.9941 14.8499 24.0025 14.8394 24.0132C14.8289 24.0238 14.8206 24.0364 14.815 24.0503C14.8094 24.0642 14.8067 24.0791 14.807 24.094C14.807 24.156 14.857 24.208 14.92 24.207C14.981 24.207 15.03 24.155 15.031 24.094V24.074C15.0271 24.0475 15.0137 24.0234 14.9932 24.0061C14.9728 23.9887 14.9468 23.9795 14.92 23.98ZM15.482 23.98C15.467 23.9799 15.4522 23.9827 15.4383 23.9884C15.4245 23.9941 15.4119 24.0025 15.4014 24.0132C15.3909 24.0238 15.3826 24.0364 15.377 24.0503C15.3714 24.0642 15.3687 24.0791 15.369 24.094C15.369 24.156 15.42 24.208 15.482 24.207C15.544 24.207 15.593 24.155 15.594 24.094V24.086C15.5922 24.0575 15.5796 24.0308 15.5588 24.0113C15.538 23.9918 15.5105 23.981 15.482 23.981V23.98ZM16.045 23.98C16.03 23.9799 16.0152 23.9827 16.0013 23.9884C15.9875 23.9941 15.9749 24.0025 15.9644 24.0132C15.9539 24.0238 15.9456 24.0364 15.94 24.0503C15.9344 24.0642 15.9317 24.0791 15.932 24.094C15.932 24.156 15.982 24.208 16.045 24.207C16.106 24.207 16.155 24.155 16.156 24.094V24.086C16.1542 24.0577 16.1418 24.0311 16.1212 24.0117C16.1006 23.9922 16.0733 23.9812 16.045 23.981V23.98ZM16.607 23.98C16.592 23.9799 16.5772 23.9827 16.5633 23.9884C16.5495 23.9941 16.5369 24.0025 16.5264 24.0132C16.5159 24.0238 16.5076 24.0364 16.502 24.0503C16.4964 24.0642 16.4937 24.0791 16.494 24.094C16.494 24.156 16.545 24.208 16.607 24.207C16.669 24.207 16.718 24.155 16.719 24.094V24.086C16.7172 24.0575 16.7046 24.0308 16.6838 24.0113C16.663 23.9918 16.6355 23.981 16.607 23.981V23.98ZM17.168 23.98C17.1532 23.9801 17.1386 23.9832 17.125 23.989C17.1114 23.9948 17.099 24.0033 17.0887 24.0139C17.0784 24.0245 17.0703 24.037 17.0648 24.0508C17.0594 24.0645 17.0567 24.0792 17.057 24.094C17.057 24.155 17.107 24.207 17.168 24.207C17.1979 24.2068 17.2265 24.1948 17.2476 24.1736C17.2687 24.1525 17.2807 24.1239 17.281 24.094V24.086C17.2792 24.0574 17.2665 24.0305 17.2454 24.011C17.2244 23.9914 17.1967 23.9807 17.168 23.981V23.98ZM17.731 23.98C17.7161 23.98 17.7014 23.983 17.6876 23.9887C17.6739 23.9945 17.6615 24.0029 17.6511 24.0135C17.6406 24.0241 17.6324 24.0367 17.6269 24.0505C17.6214 24.0644 17.6187 24.0791 17.619 24.094C17.619 24.155 17.669 24.207 17.73 24.207C17.76 24.207 17.7889 24.1951 17.8102 24.174C17.8316 24.1528 17.8437 24.1241 17.844 24.094V24.086C17.8422 24.0572 17.8293 24.0302 17.8081 24.0106C17.7868 23.991 17.7589 23.9804 17.73 23.981L17.731 23.98ZM18.293 23.98C18.2782 23.9801 18.2636 23.9832 18.25 23.989C18.2364 23.9948 18.224 24.0033 18.2137 24.0139C18.2034 24.0245 18.1953 24.037 18.1898 24.0508C18.1844 24.0645 18.1817 24.0792 18.182 24.094C18.182 24.155 18.232 24.207 18.293 24.207C18.3229 24.2068 18.3515 24.1948 18.3726 24.1736C18.3937 24.1525 18.4057 24.1239 18.406 24.094V24.086C18.4042 24.0574 18.3915 24.0305 18.3704 24.011C18.3494 23.9914 18.3217 23.9807 18.293 23.981V23.98ZM18.856 23.98C18.8411 23.98 18.8264 23.983 18.8126 23.9887C18.7989 23.9945 18.7865 24.0029 18.7761 24.0135C18.7656 24.0241 18.7574 24.0367 18.7519 24.0505C18.7464 24.0644 18.7437 24.0791 18.744 24.094C18.744 24.155 18.794 24.207 18.855 24.207C18.917 24.207 18.966 24.155 18.967 24.094V24.074C18.9631 24.0475 18.9497 24.0234 18.9292 24.0061C18.9088 23.9887 18.8828 23.9795 18.856 23.98ZM19.418 23.98C19.403 23.9799 19.3882 23.9827 19.3743 23.9884C19.3605 23.9941 19.3479 24.0025 19.3374 24.0132C19.3269 24.0238 19.3186 24.0364 19.313 24.0503C19.3074 24.0642 19.3047 24.0791 19.305 24.094C19.305 24.156 19.356 24.208 19.418 24.207C19.479 24.207 19.528 24.155 19.529 24.094V24.086C19.5272 24.0577 19.5148 24.0311 19.4942 24.0117C19.4736 23.9922 19.4463 23.9812 19.418 23.981V23.98ZM19.981 23.98C19.9659 23.9797 19.951 23.9825 19.937 23.9881C19.9231 23.9938 19.9104 24.0022 19.8998 24.0128C19.8891 24.0234 19.8807 24.0361 19.8751 24.0501C19.8695 24.064 19.8667 24.079 19.867 24.094C19.867 24.156 19.919 24.208 19.98 24.207C20.042 24.207 20.091 24.155 20.092 24.094V24.086C20.0902 24.0577 20.0778 24.0311 20.0572 24.0117C20.0366 23.9922 20.0093 23.9812 19.981 23.981V23.98ZM20.543 23.98C20.528 23.9799 20.5132 23.9827 20.4993 23.9884C20.4855 23.9941 20.4729 24.0025 20.4624 24.0132C20.4519 24.0238 20.4436 24.0364 20.438 24.0503C20.4324 24.0642 20.4297 24.0791 20.43 24.094C20.43 24.156 20.481 24.208 20.543 24.207C20.604 24.207 20.653 24.155 20.654 24.094V24.086C20.6522 24.0577 20.6398 24.0311 20.6192 24.0117C20.5986 23.9922 20.5713 23.9812 20.543 23.981V23.98ZM21.106 23.98C21.0909 23.9797 21.076 23.9825 21.062 23.9881C21.0481 23.9938 21.0354 24.0022 21.0248 24.0128C21.0141 24.0234 21.0057 24.0361 21.0001 24.0501C20.9945 24.064 20.9917 24.079 20.992 24.094C20.992 24.156 21.044 24.208 21.105 24.207C21.167 24.207 21.216 24.155 21.217 24.094V24.086C21.2152 24.0577 21.2028 24.0311 21.1822 24.0117C21.1616 23.9922 21.1343 23.9812 21.106 23.981V23.98ZM21.666 23.98C21.6512 23.9801 21.6366 23.9832 21.623 23.989C21.6094 23.9948 21.597 24.0033 21.5867 24.0139C21.5764 24.0245 21.5683 24.037 21.5628 24.0508C21.5574 24.0645 21.5547 24.0792 21.555 24.094C21.555 24.155 21.605 24.207 21.666 24.207C21.6959 24.2068 21.7245 24.1948 21.7456 24.1736C21.7667 24.1525 21.7787 24.1239 21.779 24.094V24.086C21.7772 24.0574 21.7645 24.0305 21.7434 24.011C21.7224 23.9914 21.6947 23.9807 21.666 23.981V23.98ZM22.229 23.98C22.2141 23.98 22.1994 23.983 22.1856 23.9887C22.1719 23.9945 22.1595 24.0029 22.1491 24.0135C22.1386 24.0241 22.1304 24.0367 22.1249 24.0505C22.1194 24.0644 22.1167 24.0791 22.117 24.094C22.117 24.155 22.167 24.207 22.228 24.207C22.258 24.207 22.2869 24.1951 22.3082 24.174C22.3296 24.1528 22.3417 24.1241 22.342 24.094V24.086C22.3402 24.0574 22.3275 24.0305 22.3064 24.011C22.2854 23.9914 22.2577 23.9807 22.229 23.981V23.98ZM22.791 23.98C22.7762 23.9801 22.7616 23.9832 22.748 23.989C22.7344 23.9948 22.722 24.0033 22.7117 24.0139C22.7014 24.0245 22.6933 24.037 22.6878 24.0508C22.6824 24.0645 22.6797 24.0792 22.68 24.094C22.68 24.155 22.73 24.206 22.791 24.207C22.853 24.207 22.904 24.157 22.904 24.094C22.9042 24.0791 22.9015 24.0642 22.8959 24.0503C22.8904 24.0364 22.8821 24.0238 22.8715 24.0132C22.861 24.0025 22.8485 23.9941 22.8346 23.9884C22.8208 23.9827 22.8059 23.9799 22.791 23.98ZM23.354 23.98C23.3391 23.98 23.3244 23.983 23.3106 23.9887C23.2969 23.9945 23.2845 24.0029 23.2741 24.0135C23.2636 24.0241 23.2554 24.0367 23.2499 24.0505C23.2444 24.0644 23.2417 24.0791 23.242 24.094C23.242 24.155 23.292 24.207 23.353 24.207C23.3827 24.2065 23.411 24.1944 23.4319 24.1733C23.4529 24.1522 23.4647 24.1237 23.465 24.094V24.074C23.4609 24.0476 23.4474 24.0236 23.427 24.0063C23.4066 23.989 23.3807 23.9797 23.354 23.98ZM23.916 23.98C23.901 23.9799 23.8862 23.9827 23.8723 23.9884C23.8585 23.9941 23.8459 24.0025 23.8354 24.0132C23.8249 24.0238 23.8166 24.0364 23.811 24.0503C23.8054 24.0642 23.8027 24.0791 23.803 24.094C23.803 24.156 23.854 24.208 23.916 24.207C23.977 24.207 24.026 24.155 24.027 24.094V24.074C24.0231 24.0475 24.0097 24.0234 23.9892 24.0061C23.9688 23.9887 23.9428 23.9795 23.916 23.98ZM24.479 23.98C24.4639 23.9797 24.449 23.9825 24.435 23.9881C24.4211 23.9938 24.4084 24.0022 24.3978 24.0128C24.3871 24.0234 24.3787 24.0361 24.3731 24.0501C24.3675 24.064 24.3647 24.079 24.365 24.094C24.365 24.156 24.417 24.208 24.479 24.207C24.539 24.207 24.589 24.155 24.589 24.094V24.086C24.5872 24.0579 24.5749 24.0315 24.5545 24.012C24.5341 23.9925 24.5072 23.9815 24.479 23.981V23.98ZM25.041 23.98C25.026 23.9799 25.0112 23.9827 24.9973 23.9884C24.9835 23.9941 24.9709 24.0025 24.9604 24.0132C24.9499 24.0238 24.9416 24.0364 24.936 24.0503C24.9304 24.0642 24.9277 24.0791 24.928 24.094C24.928 24.156 24.979 24.208 25.041 24.207C25.102 24.207 25.151 24.155 25.152 24.094V24.086C25.1502 24.0577 25.1378 24.0311 25.1172 24.0117C25.0966 23.9922 25.0693 23.9812 25.041 23.981V23.98ZM25.601 23.98C25.5863 23.9803 25.5718 23.9834 25.5583 23.9893C25.5448 23.9952 25.5326 24.0036 25.5224 24.0142C25.5121 24.0248 25.5041 24.0373 25.4987 24.051C25.4933 24.0647 25.4907 24.0793 25.491 24.094C25.491 24.155 25.541 24.207 25.601 24.207C25.631 24.207 25.6599 24.1951 25.6812 24.174C25.7026 24.1528 25.7147 24.1241 25.715 24.094V24.086C25.7132 24.0574 25.7005 24.0305 25.6794 24.011C25.6584 23.9914 25.6307 23.9807 25.602 23.981L25.601 23.98ZM26.164 23.98C26.1492 23.9801 26.1346 23.9832 26.121 23.989C26.1074 23.9948 26.095 24.0033 26.0847 24.0139C26.0744 24.0245 26.0663 24.037 26.0608 24.0508C26.0554 24.0645 26.0527 24.0792 26.053 24.094C26.053 24.155 26.103 24.207 26.164 24.207C26.1939 24.2068 26.2225 24.1948 26.2436 24.1736C26.2647 24.1525 26.2767 24.1239 26.277 24.094V24.086C26.2752 24.0574 26.2625 24.0305 26.2414 24.011C26.2204 23.9914 26.1927 23.9807 26.164 23.981V23.98ZM26.727 23.98C26.7121 23.98 26.6974 23.983 26.6836 23.9887C26.6699 23.9945 26.6575 24.0029 26.6471 24.0135C26.6366 24.0241 26.6284 24.0367 26.6229 24.0505C26.6174 24.0644 26.6147 24.0791 26.615 24.094C26.615 24.155 26.665 24.207 26.727 24.207C26.7569 24.2068 26.7855 24.1948 26.8066 24.1736C26.8277 24.1525 26.8397 24.1239 26.84 24.094V24.086C26.8382 24.0574 26.8255 24.0305 26.8044 24.011C26.7834 23.9914 26.7557 23.9807 26.727 23.981V23.98ZM27.289 23.98C27.2742 23.9801 27.2596 23.9832 27.246 23.989C27.2324 23.9948 27.22 24.0033 27.2097 24.0139C27.1994 24.0245 27.1913 24.037 27.1858 24.0508C27.1804 24.0645 27.1777 24.0792 27.178 24.094C27.178 24.155 27.228 24.206 27.289 24.207C27.351 24.207 27.402 24.157 27.402 24.094C27.4022 24.0791 27.3995 24.0642 27.3939 24.0503C27.3884 24.0364 27.3801 24.0238 27.3695 24.0132C27.359 24.0025 27.3464 23.9941 27.3326 23.9884C27.3188 23.9827 27.3039 23.9799 27.289 23.98ZM27.852 23.98C27.8371 23.98 27.8224 23.983 27.8086 23.9887C27.7949 23.9945 27.7825 24.0029 27.7721 24.0135C27.7616 24.0241 27.7534 24.0367 27.7479 24.0505C27.7424 24.0644 27.7397 24.0791 27.74 24.094C27.74 24.155 27.79 24.207 27.852 24.207C27.912 24.207 27.962 24.155 27.962 24.094C27.964 24.086 27.964 24.082 27.962 24.074C27.9581 24.0477 27.9448 24.0237 27.9246 24.0064C27.9044 23.9891 27.8786 23.9797 27.852 23.98ZM28.414 23.98C28.399 23.9799 28.3842 23.9827 28.3703 23.9884C28.3565 23.9941 28.3439 24.0025 28.3334 24.0132C28.3229 24.0238 28.3146 24.0364 28.309 24.0503C28.3034 24.0642 28.3007 24.0791 28.301 24.094C28.301 24.156 28.352 24.208 28.414 24.207C28.475 24.207 28.524 24.155 28.525 24.094V24.086C28.5232 24.0579 28.5109 24.0315 28.4905 24.012C28.4701 23.9925 28.4432 23.9815 28.415 23.981L28.414 23.98ZM28.977 23.98C28.9619 23.9797 28.947 23.9825 28.933 23.9881C28.9191 23.9938 28.9064 24.0022 28.8958 24.0128C28.8851 24.0234 28.8767 24.0361 28.8711 24.0501C28.8655 24.064 28.8627 24.079 28.863 24.094C28.863 24.156 28.915 24.208 28.977 24.207C29.037 24.207 29.087 24.155 29.087 24.094V24.086C29.0852 24.0579 29.0729 24.0315 29.0525 24.012C29.0321 23.9925 29.0052 23.9815 28.977 23.981V23.98ZM29.539 23.98C29.524 23.9799 29.5092 23.9827 29.4953 23.9884C29.4815 23.9941 29.4689 24.0025 29.4584 24.0132C29.4479 24.0238 29.4396 24.0364 29.434 24.0503C29.4284 24.0642 29.4257 24.0791 29.426 24.094C29.426 24.156 29.477 24.208 29.539 24.207C29.6 24.207 29.649 24.155 29.65 24.094V24.086C29.6482 24.0579 29.6359 24.0315 29.6155 24.012C29.5951 23.9925 29.5682 23.9815 29.54 23.981L29.539 23.98ZM30.099 23.98C30.0843 23.9803 30.0698 23.9834 30.0563 23.9893C30.0428 23.9952 30.0306 24.0036 30.0204 24.0142C30.0101 24.0248 30.0021 24.0373 29.9967 24.051C29.9913 24.0647 29.9887 24.0793 29.989 24.094C29.989 24.155 30.038 24.207 30.099 24.207C30.129 24.207 30.1579 24.1951 30.1792 24.174C30.2006 24.1528 30.2127 24.1241 30.213 24.094V24.086C30.2112 24.0574 30.1985 24.0305 30.1774 24.011C30.1564 23.9914 30.1287 23.9807 30.1 23.981L30.099 23.98ZM30.662 23.98C30.6472 23.9801 30.6326 23.9832 30.619 23.989C30.6054 23.9948 30.593 24.0033 30.5827 24.0139C30.5724 24.0245 30.5643 24.037 30.5588 24.0508C30.5534 24.0645 30.5507 24.0792 30.551 24.094C30.551 24.155 30.601 24.207 30.662 24.207C30.6919 24.2068 30.7205 24.1948 30.7416 24.1736C30.7627 24.1525 30.7747 24.1239 30.775 24.094V24.086C30.7732 24.0574 30.7605 24.0305 30.7394 24.011C30.7184 23.9914 30.6907 23.9807 30.662 23.981V23.98ZM31.225 23.98C31.2101 23.98 31.1954 23.983 31.1817 23.9887C31.1679 23.9945 31.1555 24.0029 31.1451 24.0135C31.1346 24.0241 31.1264 24.0367 31.1209 24.0505C31.1154 24.0644 31.1127 24.0791 31.113 24.094C31.113 24.155 31.163 24.207 31.225 24.207C31.2549 24.2068 31.2835 24.1948 31.3046 24.1736C31.3257 24.1525 31.3377 24.1239 31.338 24.094V24.086C31.3362 24.0574 31.3235 24.0305 31.3024 24.011C31.2814 23.9914 31.2537 23.9807 31.225 23.981V23.98ZM31.787 23.98C31.7722 23.9801 31.7576 23.9832 31.744 23.989C31.7304 23.9948 31.718 24.0033 31.7077 24.0139C31.6974 24.0245 31.6893 24.037 31.6838 24.0508C31.6784 24.0645 31.6757 24.0792 31.676 24.094C31.676 24.155 31.726 24.207 31.787 24.207C31.848 24.207 31.897 24.155 31.898 24.094V24.074C31.8941 24.0477 31.8808 24.0237 31.8606 24.0064C31.8404 23.9891 31.8146 23.9797 31.788 23.98H31.787ZM32.35 23.98C32.3349 23.9797 32.32 23.9825 32.306 23.9881C32.2921 23.9938 32.2794 24.0022 32.2688 24.0128C32.2581 24.0234 32.2497 24.0361 32.2441 24.0501C32.2385 24.064 32.2357 24.079 32.236 24.094C32.236 24.156 32.288 24.208 32.35 24.207C32.41 24.207 32.46 24.155 32.46 24.094C32.462 24.086 32.462 24.082 32.46 24.074C32.4561 24.0477 32.4428 24.0237 32.4226 24.0064C32.4024 23.9891 32.3766 23.9797 32.35 23.98ZM32.912 23.98C32.897 23.9799 32.8822 23.9827 32.8683 23.9884C32.8545 23.9941 32.8419 24.0025 32.8314 24.0132C32.8209 24.0238 32.8126 24.0364 32.807 24.0503C32.8014 24.0642 32.7987 24.0791 32.799 24.094C32.799 24.156 32.85 24.208 32.912 24.207C32.973 24.207 33.022 24.155 33.023 24.094V24.086C33.0212 24.0579 33.0089 24.0315 32.9885 24.012C32.9681 23.9925 32.9412 23.9815 32.913 23.981L32.912 23.98ZM33.475 23.98C33.4599 23.9797 33.445 23.9825 33.431 23.9881C33.4171 23.9938 33.4044 24.0022 33.3938 24.0128C33.3831 24.0234 33.3747 24.0361 33.3691 24.0501C33.3635 24.064 33.3607 24.079 33.361 24.094C33.361 24.156 33.413 24.208 33.475 24.207C33.5043 24.206 33.5322 24.1937 33.5527 24.1726C33.5732 24.1516 33.5847 24.1234 33.585 24.094V24.086C33.5832 24.0579 33.5709 24.0315 33.5505 24.012C33.5301 23.9925 33.5032 23.9815 33.475 23.981V23.98ZM34.037 23.98C34.022 23.9799 34.0072 23.9827 33.9933 23.9884C33.9795 23.9941 33.9669 24.0025 33.9564 24.0132C33.9459 24.0238 33.9376 24.0364 33.932 24.0503C33.9264 24.0642 33.9237 24.0791 33.924 24.094C33.924 24.156 33.975 24.208 34.037 24.207C34.0665 24.2062 34.0946 24.194 34.1153 24.1729C34.136 24.1519 34.1477 24.1236 34.148 24.094V24.086C34.1462 24.0579 34.1339 24.0315 34.1135 24.012C34.0931 23.9925 34.0662 23.9815 34.038 23.981L34.037 23.98ZM34.597 23.98C34.5823 23.9803 34.5678 23.9834 34.5543 23.9893C34.5408 23.9952 34.5286 24.0036 34.5184 24.0142C34.5081 24.0248 34.5001 24.0373 34.4947 24.051C34.4893 24.0647 34.4867 24.0793 34.487 24.094C34.487 24.155 34.536 24.207 34.597 24.207C34.627 24.207 34.6559 24.1951 34.6772 24.174C34.6986 24.1528 34.7107 24.1241 34.711 24.094V24.086C34.7092 24.0574 34.6965 24.0305 34.6754 24.011C34.6544 23.9914 34.6267 23.9807 34.598 23.981L34.597 23.98ZM15.14 26.81C14.7156 26.81 14.3087 26.9786 14.0086 27.2786C13.7085 27.5787 13.54 27.9857 13.54 28.41C13.54 28.8344 13.7085 29.2413 14.0086 29.5414C14.3087 29.8414 14.7156 30.01 15.14 30.01C15.5643 30.01 15.9713 29.8414 16.2713 29.5414C16.5714 29.2413 16.74 28.8344 16.74 28.41C16.74 27.9857 16.5714 27.5787 16.2713 27.2786C15.9713 26.9786 15.5643 26.81 15.14 26.81ZM18.763 26.81C18.3386 26.81 17.9317 26.9786 17.6316 27.2786C17.3315 27.5787 17.163 27.9857 17.163 28.41C17.163 28.8344 17.3315 29.2413 17.6316 29.5414C17.9317 29.8414 18.3386 30.01 18.763 30.01C19.1873 30.01 19.5943 29.8414 19.8943 29.5414C20.1944 29.2413 20.363 28.8344 20.363 28.41C20.363 27.9857 20.1944 27.5787 19.8943 27.2786C19.5943 26.9786 19.1873 26.81 18.763 26.81ZM22.388 26.81C21.9636 26.81 21.5567 26.9786 21.2566 27.2786C20.9565 27.5787 20.788 27.9857 20.788 28.41C20.788 28.8344 20.9565 29.2413 21.2566 29.5414C21.5567 29.8414 21.9636 30.01 22.388 30.01C22.8123 30.01 23.2193 29.8414 23.5193 29.5414C23.8194 29.2413 23.988 28.8344 23.988 28.41C23.988 27.9857 23.8194 27.5787 23.5193 27.2786C23.2193 26.9786 22.8123 26.81 22.388 26.81ZM26.011 26.81C25.5866 26.81 25.1797 26.9786 24.8796 27.2786C24.5795 27.5787 24.411 27.9857 24.411 28.41C24.411 28.8344 24.5795 29.2413 24.8796 29.5414C25.1797 29.8414 25.5866 30.01 26.011 30.01C26.4353 30.01 26.8423 29.8414 27.1423 29.5414C27.4424 29.2413 27.611 28.8344 27.611 28.41C27.611 27.9857 27.4424 27.5787 27.1423 27.2786C26.8423 26.9786 26.4353 26.81 26.011 26.81ZM29.634 26.81C29.2096 26.81 28.8027 26.9786 28.5026 27.2786C28.2025 27.5787 28.034 27.9857 28.034 28.41C28.034 28.8344 28.2025 29.2413 28.5026 29.5414C28.8027 29.8414 29.2096 30.01 29.634 30.01C30.0583 30.01 30.4653 29.8414 30.7653 29.5414C31.0654 29.2413 31.234 28.8344 31.234 28.41C31.234 27.9857 31.0654 27.5787 30.7653 27.2786C30.4653 26.9786 30.0583 26.81 29.634 26.81ZM33.259 26.81C32.8346 26.81 32.4277 26.9786 32.1276 27.2786C31.8275 27.5787 31.659 27.9857 31.659 28.41C31.659 28.8344 31.8275 29.2413 32.1276 29.5414C32.4277 29.8414 32.8346 30.01 33.259 30.01C33.6833 30.01 34.0903 29.8414 34.3903 29.5414C34.6904 29.2413 34.859 28.8344 34.859 28.41C34.859 27.9857 34.6904 27.5787 34.3903 27.2786C34.0903 26.9786 33.6833 26.81 33.259 26.81ZM15.139 27.272C15.2883 27.2718 15.4362 27.301 15.5742 27.358C15.7122 27.4149 15.8377 27.4985 15.9434 27.604C16.0491 27.7094 16.133 27.8346 16.1904 27.9725C16.2477 28.1104 16.2773 28.2582 16.2775 28.4075C16.2777 28.5568 16.2485 28.7047 16.1915 28.8427C16.1345 28.9808 16.051 29.1062 15.9455 29.2119C15.8401 29.3177 15.7148 29.4016 15.577 29.4589C15.4391 29.5162 15.2913 29.5458 15.142 29.546C14.8404 29.5463 14.5511 29.4267 14.3377 29.2137C14.1243 29.0007 14.0042 28.7116 14.004 28.41C14.0037 28.1085 14.1232 27.8192 14.3363 27.6057C14.5493 27.3923 14.8384 27.2723 15.14 27.272H15.139ZM18.763 27.272C18.9123 27.2719 19.0602 27.3012 19.1982 27.3582C19.3362 27.4152 19.4616 27.4988 19.5673 27.6043C19.6729 27.7098 19.7568 27.8351 19.814 27.973C19.8713 28.1109 19.9008 28.2587 19.901 28.408C19.9011 28.5573 19.8718 28.7052 19.8148 28.8432C19.7578 28.9812 19.6742 29.1066 19.5687 29.2123C19.4632 29.318 19.3379 29.4018 19.2 29.4591C19.0621 29.5163 18.9143 29.5459 18.765 29.546C18.4634 29.5463 18.1741 29.4267 17.9607 29.2137C17.7473 29.0007 17.6272 28.7116 17.627 28.41C17.6267 28.1085 17.7462 27.8192 17.9593 27.6057C18.1723 27.3923 18.4614 27.2723 18.763 27.272ZM22.388 27.272C22.6895 27.2718 22.9788 27.3913 23.1923 27.6043C23.4057 27.8174 23.5257 28.1065 23.526 28.408C23.5262 28.7096 23.4067 28.9989 23.1937 29.2123C22.9806 29.4257 22.6915 29.5458 22.39 29.546C22.0884 29.5463 21.7991 29.4267 21.5857 29.2137C21.3723 29.0007 21.2522 28.7116 21.252 28.41C21.2517 28.1085 21.3712 27.8192 21.5843 27.6057C21.7973 27.3923 22.0864 27.2723 22.388 27.272ZM26.011 27.272C26.1603 27.2719 26.3082 27.3012 26.4462 27.3582C26.5842 27.4152 26.7096 27.4988 26.8153 27.6043C26.9209 27.7098 27.0048 27.8351 27.062 27.973C27.1193 28.1109 27.1488 28.2587 27.149 28.408C27.1491 28.5573 27.1198 28.7052 27.0628 28.8432C27.0058 28.9812 26.9222 29.1066 26.8167 29.2123C26.7112 29.318 26.5859 29.4018 26.448 29.4591C26.3101 29.5163 26.1623 29.5459 26.013 29.546C25.7114 29.5463 25.4221 29.4267 25.2087 29.2137C24.9953 29.0007 24.8752 28.7116 24.875 28.41C24.8747 28.1085 24.9942 27.8192 25.2073 27.6057C25.4203 27.3923 25.7094 27.2723 26.011 27.272ZM29.634 27.272C29.9355 27.2718 30.2248 27.3913 30.4382 27.6043C30.6517 27.8174 30.7717 28.1065 30.772 28.408C30.7722 28.7096 30.6527 28.9989 30.4397 29.2123C30.2266 29.4257 29.9375 29.5458 29.636 29.546C29.3344 29.5463 29.0451 29.4267 28.8317 29.2137C28.6183 29.0007 28.4982 28.7116 28.498 28.41C28.4977 28.1085 28.6172 27.8192 28.8303 27.6057C29.0433 27.3923 29.3324 27.2723 29.634 27.272ZM33.259 27.272C33.5605 27.2718 33.8498 27.3913 34.0633 27.6043C34.2767 27.8174 34.3967 28.1065 34.397 28.408C34.3972 28.7096 34.2777 28.9989 34.0647 29.2123C33.8516 29.4257 33.5625 29.5458 33.261 29.546C32.9594 29.5463 32.6701 29.4267 32.4567 29.2137C32.2433 29.0007 32.1232 28.7116 32.123 28.41C32.1227 28.1085 32.2422 27.8192 32.4553 27.6057C32.6683 27.3923 32.9574 27.2723 33.259 27.272ZM13.795 32.98C13.7803 32.9801 13.7657 32.9832 13.7522 32.9889C13.7387 32.9947 13.7264 33.003 13.7161 33.0135C13.7058 33.024 13.6976 33.0364 13.6921 33.0501C13.6866 33.0637 13.6838 33.0783 13.684 33.093C13.684 33.154 13.734 33.205 13.794 33.206C13.857 33.206 13.907 33.156 13.908 33.093C13.9082 33.0781 13.9055 33.0632 13.8999 33.0493C13.8944 33.0354 13.8861 33.0228 13.8755 33.0122C13.865 33.0015 13.8525 32.9931 13.8386 32.9874C13.8248 32.9817 13.8099 32.9789 13.795 32.979V32.98ZM14.357 32.98C14.3271 32.9803 14.2985 32.9923 14.2774 33.0134C14.2562 33.0345 14.2442 33.0631 14.244 33.093C14.244 33.154 14.296 33.206 14.357 33.206C14.419 33.206 14.468 33.154 14.469 33.093V33.073C14.4648 33.0465 14.4512 33.0225 14.4306 33.0053C14.4099 32.9882 14.3838 32.9792 14.357 32.98ZM14.92 32.98C14.9051 32.9799 14.8903 32.9827 14.8766 32.9883C14.8628 32.994 14.8503 33.0023 14.8398 33.0128C14.8293 33.0233 14.8209 33.0358 14.8153 33.0496C14.8097 33.0634 14.8068 33.0781 14.807 33.093C14.807 33.155 14.857 33.207 14.92 33.206C14.981 33.206 15.03 33.154 15.031 33.093V33.073C15.0269 33.0467 15.0134 33.0228 14.9929 33.0057C14.9725 32.9886 14.9466 32.9795 14.92 32.98ZM15.482 32.98C15.4671 32.9799 15.4523 32.9827 15.4386 32.9883C15.4248 32.994 15.4123 33.0023 15.4018 33.0128C15.3913 33.0233 15.3829 33.0358 15.3773 33.0496C15.3717 33.0634 15.3688 33.0781 15.369 33.093C15.369 33.155 15.42 33.207 15.482 33.206C15.544 33.206 15.593 33.154 15.594 33.093V33.085C15.5922 33.0565 15.5796 33.0298 15.5588 33.0103C15.538 32.9908 15.5105 32.98 15.482 32.98ZM16.045 32.98C16.0301 32.9799 16.0153 32.9827 16.0016 32.9883C15.9878 32.994 15.9753 33.0023 15.9648 33.0128C15.9543 33.0233 15.9459 33.0358 15.9403 33.0496C15.9347 33.0634 15.9318 33.0781 15.932 33.093C15.932 33.155 15.982 33.207 16.045 33.206C16.106 33.206 16.155 33.154 16.156 33.093V33.085C16.1542 33.0567 16.1418 33.0301 16.1212 33.0106C16.1006 32.9912 16.0733 32.9802 16.045 32.98ZM16.607 32.98C16.5921 32.9799 16.5773 32.9827 16.5636 32.9883C16.5498 32.994 16.5373 33.0023 16.5268 33.0128C16.5163 33.0233 16.5079 33.0358 16.5023 33.0496C16.4967 33.0634 16.4938 33.0781 16.494 33.093C16.494 33.155 16.545 33.207 16.607 33.206C16.669 33.206 16.718 33.154 16.719 33.093V33.085C16.7172 33.0565 16.7046 33.0298 16.6838 33.0103C16.663 32.9908 16.6355 32.98 16.607 32.98ZM17.168 32.98C17.1533 32.9801 17.1387 32.9832 17.1252 32.9889C17.1117 32.9947 17.0994 33.003 17.0891 33.0135C17.0788 33.024 17.0706 33.0364 17.0651 33.0501C17.0596 33.0637 17.0568 33.0783 17.057 33.093C17.057 33.154 17.107 33.206 17.168 33.206C17.1979 33.2058 17.2265 33.1938 17.2476 33.1726C17.2687 33.1515 17.2807 33.1229 17.281 33.093V33.085C17.2792 33.0564 17.2665 33.0295 17.2454 33.01C17.2244 32.9904 17.1967 32.9797 17.168 32.98ZM17.731 32.98C17.7162 32.98 17.7015 32.9829 17.6879 32.9886C17.6742 32.9943 17.6618 33.0027 17.6514 33.0132C17.641 33.0237 17.6328 33.0361 17.6272 33.0498C17.6216 33.0636 17.6188 33.0782 17.619 33.093C17.619 33.154 17.669 33.206 17.73 33.206C17.76 33.206 17.7889 33.1941 17.8102 33.173C17.8316 33.1518 17.8437 33.1231 17.844 33.093V33.085C17.8422 33.0562 17.8293 33.0292 17.8081 33.0096C17.7868 32.99 17.7589 32.9794 17.73 32.98H17.731ZM18.293 32.98C18.2783 32.9801 18.2637 32.9832 18.2502 32.9889C18.2367 32.9947 18.2244 33.003 18.2141 33.0135C18.2038 33.024 18.1956 33.0364 18.1901 33.0501C18.1846 33.0637 18.1818 33.0783 18.182 33.093C18.182 33.154 18.232 33.206 18.293 33.206C18.3229 33.2058 18.3515 33.1938 18.3726 33.1726C18.3937 33.1515 18.4057 33.1229 18.406 33.093V33.085C18.4042 33.0564 18.3915 33.0295 18.3704 33.01C18.3494 32.9904 18.3217 32.9797 18.293 32.98ZM18.856 32.98C18.8412 32.98 18.8265 32.9829 18.8129 32.9886C18.7992 32.9943 18.7868 33.0027 18.7764 33.0132C18.766 33.0237 18.7578 33.0361 18.7522 33.0498C18.7466 33.0636 18.7438 33.0782 18.744 33.093C18.744 33.154 18.794 33.206 18.855 33.206C18.917 33.206 18.966 33.154 18.967 33.093V33.073C18.9629 33.0467 18.9494 33.0228 18.9289 33.0057C18.9085 32.9886 18.8826 32.9795 18.856 32.98ZM19.418 32.98C19.4031 32.9799 19.3883 32.9827 19.3746 32.9883C19.3608 32.994 19.3483 33.0023 19.3378 33.0128C19.3273 33.0233 19.3189 33.0358 19.3133 33.0496C19.3077 33.0634 19.3048 33.0781 19.305 33.093C19.305 33.155 19.356 33.207 19.418 33.206C19.479 33.206 19.528 33.154 19.529 33.093V33.085C19.5272 33.0567 19.5148 33.0301 19.4942 33.0106C19.4736 32.9912 19.4463 32.9802 19.418 32.98ZM19.981 32.98C19.966 32.9797 19.9512 32.9825 19.9373 32.9881C19.9234 32.9936 19.9108 33.0019 19.9001 33.0125C19.8895 33.023 19.8811 33.0355 19.8754 33.0494C19.8697 33.0632 19.8668 33.0781 19.867 33.093C19.867 33.155 19.919 33.207 19.98 33.206C20.042 33.206 20.091 33.154 20.092 33.093V33.085C20.0902 33.0567 20.0778 33.0301 20.0572 33.0106C20.0366 32.9912 20.0093 32.9802 19.981 32.98ZM20.543 32.98C20.5281 32.9799 20.5133 32.9827 20.4996 32.9883C20.4858 32.994 20.4733 33.0023 20.4628 33.0128C20.4523 33.0233 20.4439 33.0358 20.4383 33.0496C20.4327 33.0634 20.4298 33.0781 20.43 33.093C20.43 33.155 20.481 33.207 20.543 33.206C20.604 33.206 20.653 33.154 20.654 33.093V33.085C20.6522 33.0567 20.6398 33.0301 20.6192 33.0106C20.5986 32.9912 20.5713 32.9802 20.543 32.98ZM21.106 32.98C21.091 32.9797 21.0762 32.9825 21.0623 32.9881C21.0484 32.9936 21.0358 33.0019 21.0251 33.0125C21.0145 33.023 21.0061 33.0355 21.0004 33.0494C20.9947 33.0632 20.9918 33.0781 20.992 33.093C20.992 33.155 21.044 33.207 21.105 33.206C21.167 33.206 21.216 33.154 21.217 33.093V33.085C21.2152 33.0567 21.2028 33.0301 21.1822 33.0106C21.1616 32.9912 21.1343 32.9802 21.106 32.98ZM21.666 32.98C21.6513 32.9801 21.6367 32.9832 21.6232 32.9889C21.6097 32.9947 21.5974 33.003 21.5871 33.0135C21.5768 33.024 21.5686 33.0364 21.5631 33.0501C21.5576 33.0637 21.5548 33.0783 21.555 33.093C21.555 33.154 21.605 33.206 21.666 33.206C21.6959 33.2058 21.7245 33.1938 21.7456 33.1726C21.7667 33.1515 21.7787 33.1229 21.779 33.093V33.085C21.7772 33.0564 21.7645 33.0295 21.7434 33.01C21.7224 32.9904 21.6947 32.9797 21.666 32.98ZM22.229 32.98C22.2142 32.98 22.1995 32.9829 22.1859 32.9886C22.1722 32.9943 22.1598 33.0027 22.1494 33.0132C22.139 33.0237 22.1308 33.0361 22.1252 33.0498C22.1196 33.0636 22.1168 33.0782 22.117 33.093C22.117 33.154 22.167 33.206 22.228 33.206C22.258 33.206 22.2869 33.1941 22.3082 33.173C22.3296 33.1518 22.3417 33.1231 22.342 33.093V33.085C22.3402 33.0564 22.3275 33.0295 22.3064 33.01C22.2854 32.9904 22.2577 32.9797 22.229 32.98ZM22.791 32.98C22.7763 32.9801 22.7617 32.9832 22.7482 32.9889C22.7347 32.9947 22.7224 33.003 22.7121 33.0135C22.7018 33.024 22.6936 33.0364 22.6881 33.0501C22.6826 33.0637 22.6798 33.0783 22.68 33.093C22.68 33.154 22.73 33.205 22.791 33.206C22.853 33.206 22.904 33.156 22.904 33.093C22.9042 33.0781 22.9015 33.0632 22.8959 33.0493C22.8904 33.0354 22.8821 33.0228 22.8715 33.0122C22.861 33.0015 22.8485 32.9931 22.8346 32.9874C22.8208 32.9817 22.8059 32.9789 22.791 32.979V32.98ZM23.354 32.98C23.3392 32.98 23.3245 32.9829 23.3109 32.9886C23.2972 32.9943 23.2848 33.0027 23.2744 33.0132C23.264 33.0237 23.2558 33.0361 23.2502 33.0498C23.2446 33.0636 23.2418 33.0782 23.242 33.093C23.242 33.154 23.292 33.206 23.353 33.206C23.3827 33.2055 23.411 33.1934 23.4319 33.1723C23.4529 33.1512 23.4647 33.1227 23.465 33.093V33.073C23.4607 33.0468 23.4471 33.023 23.4267 33.0059C23.4064 32.9889 23.3805 32.9797 23.354 32.98ZM23.916 32.98C23.9011 32.9799 23.8863 32.9827 23.8726 32.9883C23.8588 32.994 23.8463 33.0023 23.8358 33.0128C23.8253 33.0233 23.8169 33.0358 23.8113 33.0496C23.8057 33.0634 23.8028 33.0781 23.803 33.093C23.803 33.155 23.854 33.207 23.916 33.206C23.977 33.206 24.026 33.154 24.027 33.093V33.073C24.0229 33.0467 24.0094 33.0228 23.9889 33.0057C23.9685 32.9886 23.9426 32.9795 23.916 32.98ZM24.479 32.98C24.464 32.9797 24.4492 32.9825 24.4353 32.9881C24.4214 32.9936 24.4088 33.0019 24.3981 33.0125C24.3875 33.023 24.3791 33.0355 24.3734 33.0494C24.3677 33.0632 24.3648 33.0781 24.365 33.093C24.365 33.155 24.417 33.207 24.479 33.206C24.539 33.206 24.589 33.154 24.589 33.093V33.085C24.5872 33.0569 24.5749 33.0305 24.5545 33.011C24.5341 32.9915 24.5072 32.9805 24.479 32.98ZM25.041 32.98C25.0261 32.9799 25.0113 32.9827 24.9976 32.9883C24.9838 32.994 24.9713 33.0023 24.9608 33.0128C24.9503 33.0233 24.9419 33.0358 24.9363 33.0496C24.9307 33.0634 24.9278 33.0781 24.928 33.093C24.928 33.155 24.979 33.207 25.041 33.206C25.102 33.206 25.151 33.154 25.152 33.093V33.085C25.1502 33.0567 25.1378 33.0301 25.1172 33.0106C25.0966 32.9912 25.0693 32.9802 25.041 32.98ZM25.601 32.98C25.5714 32.9805 25.5433 32.9927 25.5227 33.0139C25.5021 33.035 25.4907 33.0635 25.491 33.093C25.491 33.154 25.541 33.206 25.601 33.206C25.631 33.206 25.6599 33.1941 25.6812 33.173C25.7026 33.1518 25.7147 33.1231 25.715 33.093V33.085C25.7132 33.0564 25.7005 33.0295 25.6794 33.01C25.6584 32.9904 25.6307 32.9797 25.602 32.98H25.601ZM26.164 32.98C26.1493 32.9801 26.1347 32.9832 26.1212 32.9889C26.1077 32.9947 26.0954 33.003 26.0851 33.0135C26.0748 33.024 26.0666 33.0364 26.0611 33.0501C26.0556 33.0637 26.0528 33.0783 26.053 33.093C26.053 33.154 26.103 33.206 26.164 33.206C26.1939 33.2058 26.2225 33.1938 26.2436 33.1726C26.2647 33.1515 26.2767 33.1229 26.277 33.093V33.085C26.2752 33.0564 26.2625 33.0295 26.2414 33.01C26.2204 32.9904 26.1927 32.9797 26.164 32.98ZM26.727 32.98C26.7122 32.98 26.6975 32.9829 26.6839 32.9886C26.6702 32.9943 26.6578 33.0027 26.6474 33.0132C26.637 33.0237 26.6288 33.0361 26.6232 33.0498C26.6176 33.0636 26.6148 33.0782 26.615 33.093C26.615 33.154 26.665 33.206 26.727 33.206C26.7569 33.2058 26.7855 33.1938 26.8066 33.1726C26.8277 33.1515 26.8397 33.1229 26.84 33.093V33.085C26.8382 33.0564 26.8255 33.0295 26.8044 33.01C26.7834 32.9904 26.7557 32.9797 26.727 32.98ZM27.289 32.98C27.2743 32.9801 27.2597 32.9832 27.2462 32.9889C27.2327 32.9947 27.2204 33.003 27.2101 33.0135C27.1998 33.024 27.1916 33.0364 27.1861 33.0501C27.1806 33.0637 27.1778 33.0783 27.178 33.093C27.178 33.154 27.228 33.205 27.289 33.206C27.351 33.206 27.402 33.156 27.402 33.093C27.4022 33.0781 27.3995 33.0632 27.3939 33.0493C27.3884 33.0354 27.3801 33.0228 27.3695 33.0122C27.359 33.0015 27.3464 32.9931 27.3326 32.9874C27.3188 32.9817 27.3039 32.9789 27.289 32.979V32.98ZM27.852 32.98C27.8372 32.98 27.8225 32.9829 27.8089 32.9886C27.7952 32.9943 27.7828 33.0027 27.7724 33.0132C27.762 33.0237 27.7538 33.0361 27.7482 33.0498C27.7426 33.0636 27.7398 33.0782 27.74 33.093C27.74 33.154 27.79 33.206 27.852 33.206C27.912 33.206 27.962 33.154 27.962 33.093C27.964 33.085 27.964 33.081 27.962 33.073C27.9579 33.0469 27.9445 33.0231 27.9243 33.006C27.9041 32.9889 27.8784 32.9797 27.852 32.98ZM28.414 32.98C28.3991 32.9799 28.3843 32.9827 28.3706 32.9883C28.3568 32.994 28.3443 33.0023 28.3338 33.0128C28.3233 33.0233 28.3149 33.0358 28.3093 33.0496C28.3037 33.0634 28.3008 33.0781 28.301 33.093C28.301 33.155 28.352 33.207 28.414 33.206C28.475 33.206 28.524 33.154 28.525 33.093V33.085C28.5232 33.0569 28.5109 33.0305 28.4905 33.011C28.4701 32.9915 28.4432 32.9805 28.415 32.98H28.414ZM28.977 32.98C28.962 32.9797 28.9472 32.9825 28.9333 32.9881C28.9194 32.9936 28.9068 33.0019 28.8961 33.0125C28.8855 33.023 28.8771 33.0355 28.8714 33.0494C28.8657 33.0632 28.8628 33.0781 28.863 33.093C28.863 33.155 28.915 33.207 28.977 33.206C29.037 33.206 29.087 33.154 29.087 33.093V33.085C29.0852 33.0569 29.0729 33.0305 29.0525 33.011C29.0321 32.9915 29.0052 32.9805 28.977 32.98ZM29.539 32.98C29.5241 32.9799 29.5093 32.9827 29.4956 32.9883C29.4818 32.994 29.4693 33.0023 29.4588 33.0128C29.4483 33.0233 29.4399 33.0358 29.4343 33.0496C29.4287 33.0634 29.4258 33.0781 29.426 33.093C29.426 33.155 29.477 33.207 29.539 33.206C29.6 33.206 29.649 33.154 29.65 33.093V33.085C29.6482 33.0569 29.6359 33.0305 29.6155 33.011C29.5951 32.9915 29.5682 32.9805 29.54 32.98H29.539ZM30.099 32.98C30.0694 32.9805 30.0413 32.9927 30.0207 33.0139C30.0001 33.035 29.9887 33.0635 29.989 33.093C29.989 33.154 30.038 33.206 30.099 33.206C30.129 33.206 30.1579 33.1941 30.1792 33.173C30.2006 33.1518 30.2127 33.1231 30.213 33.093V33.085C30.2112 33.0564 30.1985 33.0295 30.1774 33.01C30.1564 32.9904 30.1287 32.9797 30.1 32.98H30.099ZM30.662 32.98C30.6473 32.9801 30.6327 32.9832 30.6192 32.9889C30.6057 32.9947 30.5934 33.003 30.5831 33.0135C30.5728 33.024 30.5646 33.0364 30.5591 33.0501C30.5536 33.0637 30.5508 33.0783 30.551 33.093C30.551 33.154 30.601 33.206 30.662 33.206C30.6919 33.2058 30.7205 33.1938 30.7416 33.1726C30.7627 33.1515 30.7747 33.1229 30.775 33.093V33.085C30.7732 33.0564 30.7605 33.0295 30.7394 33.01C30.7184 32.9904 30.6907 32.9797 30.662 32.98ZM31.225 32.98C31.2102 32.98 31.1955 32.9829 31.1819 32.9886C31.1682 32.9943 31.1558 33.0027 31.1454 33.0132C31.135 33.0237 31.1268 33.0361 31.1212 33.0498C31.1156 33.0636 31.1128 33.0782 31.113 33.093C31.113 33.154 31.163 33.206 31.225 33.206C31.2549 33.2058 31.2835 33.1938 31.3046 33.1726C31.3257 33.1515 31.3377 33.1229 31.338 33.093V33.085C31.3362 33.0564 31.3235 33.0295 31.3024 33.01C31.2814 32.9904 31.2537 32.9797 31.225 32.98ZM31.787 32.98C31.7723 32.9801 31.7577 32.9832 31.7442 32.9889C31.7307 32.9947 31.7184 33.003 31.7081 33.0135C31.6978 33.024 31.6896 33.0364 31.6841 33.0501C31.6786 33.0637 31.6758 33.0783 31.676 33.093C31.676 33.154 31.726 33.206 31.787 33.206C31.848 33.206 31.897 33.154 31.898 33.093V33.073C31.8939 33.0469 31.8805 33.0231 31.8603 33.006C31.8401 32.9889 31.8144 32.9797 31.788 32.98H31.787ZM32.35 32.98C32.335 32.9797 32.3202 32.9825 32.3063 32.9881C32.2924 32.9936 32.2798 33.0019 32.2691 33.0125C32.2585 33.023 32.2501 33.0355 32.2444 33.0494C32.2387 33.0632 32.2358 33.0781 32.236 33.093C32.236 33.155 32.288 33.207 32.35 33.206C32.41 33.206 32.46 33.154 32.46 33.093C32.462 33.085 32.462 33.081 32.46 33.073C32.4559 33.0469 32.4425 33.0231 32.4223 33.006C32.4021 32.9889 32.3764 32.9797 32.35 32.98ZM32.912 32.98C32.8971 32.9799 32.8823 32.9827 32.8686 32.9883C32.8548 32.994 32.8423 33.0023 32.8318 33.0128C32.8213 33.0233 32.8129 33.0358 32.8073 33.0496C32.8017 33.0634 32.7988 33.0781 32.799 33.093C32.799 33.155 32.85 33.207 32.912 33.206C32.973 33.206 33.022 33.154 33.023 33.093V33.085C33.0212 33.0569 33.0089 33.0305 32.9885 33.011C32.9681 32.9915 32.9412 32.9805 32.913 32.98H32.912ZM33.475 32.98C33.46 32.9797 33.4452 32.9825 33.4313 32.9881C33.4174 32.9936 33.4048 33.0019 33.3941 33.0125C33.3835 33.023 33.3751 33.0355 33.3694 33.0494C33.3637 33.0632 33.3608 33.0781 33.361 33.093C33.361 33.155 33.413 33.207 33.475 33.206C33.5043 33.205 33.5322 33.1927 33.5527 33.1716C33.5732 33.1506 33.5847 33.1224 33.585 33.093V33.085C33.5832 33.0569 33.5709 33.0305 33.5505 33.011C33.5301 32.9915 33.5032 32.9805 33.475 32.98ZM34.037 32.98C34.0221 32.9799 34.0073 32.9827 33.9936 32.9883C33.9798 32.994 33.9673 33.0023 33.9568 33.0128C33.9463 33.0233 33.9379 33.0358 33.9323 33.0496C33.9267 33.0634 33.9238 33.0781 33.924 33.093C33.924 33.155 33.975 33.207 34.037 33.206C34.0665 33.2052 34.0946 33.193 34.1153 33.1719C34.136 33.1509 34.1477 33.1226 34.148 33.093V33.085C34.1462 33.0569 34.1339 33.0305 34.1135 33.011C34.0931 32.9915 34.0662 32.9805 34.038 32.98H34.037ZM34.597 32.98C34.5674 32.9805 34.5393 32.9927 34.5187 33.0139C34.4981 33.035 34.4867 33.0635 34.487 33.093C34.487 33.154 34.536 33.206 34.597 33.206C34.627 33.206 34.6559 33.1941 34.6772 33.173C34.6986 33.1518 34.7107 33.1231 34.711 33.093V33.085C34.7092 33.0564 34.6965 33.0295 34.6754 33.01C34.6544 32.9904 34.6267 32.9797 34.598 32.98H34.597ZM15.157 35.438C14.7326 35.438 14.3257 35.6066 14.0256 35.9066C13.7255 36.2067 13.557 36.6137 13.557 37.038C13.557 37.4624 13.7255 37.8693 14.0256 38.1694C14.3257 38.4694 14.7326 38.638 15.157 38.638C15.5813 38.638 15.9883 38.4694 16.2883 38.1694C16.5884 37.8693 16.757 37.4624 16.757 37.038C16.757 36.6137 16.5884 36.2067 16.2883 35.9066C15.9883 35.6066 15.5813 35.438 15.157 35.438ZM18.779 35.438C18.3546 35.438 17.9477 35.6066 17.6476 35.9066C17.3475 36.2067 17.179 36.6137 17.179 37.038C17.179 37.4624 17.3475 37.8693 17.6476 38.1694C17.9477 38.4694 18.3546 38.638 18.779 38.638C19.2033 38.638 19.6103 38.4694 19.9103 38.1694C20.2104 37.8693 20.379 37.4624 20.379 37.038C20.379 36.6137 20.2104 36.2067 19.9103 35.9066C19.6103 35.6066 19.2033 35.438 18.779 35.438ZM22.404 35.438C21.9796 35.438 21.5727 35.6066 21.2726 35.9066C20.9725 36.2067 20.804 36.6137 20.804 37.038C20.804 37.4624 20.9725 37.8693 21.2726 38.1694C21.5727 38.4694 21.9796 38.638 22.404 38.638C22.8283 38.638 23.2353 38.4694 23.5353 38.1694C23.8354 37.8693 24.004 37.4624 24.004 37.038C24.004 36.6137 23.8354 36.2067 23.5353 35.9066C23.2353 35.6066 22.8283 35.438 22.404 35.438ZM26.027 35.438C25.6026 35.438 25.1957 35.6066 24.8956 35.9066C24.5955 36.2067 24.427 36.6137 24.427 37.038C24.427 37.4624 24.5955 37.8693 24.8956 38.1694C25.1957 38.4694 25.6026 38.638 26.027 38.638C26.4513 38.638 26.8583 38.4694 27.1583 38.1694C27.4584 37.8693 27.627 37.4624 27.627 37.038C27.627 36.6137 27.4584 36.2067 27.1583 35.9066C26.8583 35.6066 26.4513 35.438 26.027 35.438ZM29.65 35.438C29.2256 35.438 28.8187 35.6066 28.5186 35.9066C28.2185 36.2067 28.05 36.6137 28.05 37.038C28.05 37.4624 28.2185 37.8693 28.5186 38.1694C28.8187 38.4694 29.2256 38.638 29.65 38.638C30.0743 38.638 30.4813 38.4694 30.7813 38.1694C31.0814 37.8693 31.25 37.4624 31.25 37.038C31.25 36.6137 31.0814 36.2067 30.7813 35.9066C30.4813 35.6066 30.0743 35.438 29.65 35.438ZM33.275 35.438C32.8506 35.438 32.4437 35.6066 32.1436 35.9066C31.8435 36.2067 31.675 36.6137 31.675 37.038C31.675 37.4624 31.8435 37.8693 32.1436 38.1694C32.4437 38.4694 32.8506 38.638 33.275 38.638C33.6993 38.638 34.1063 38.4694 34.4063 38.1694C34.7064 37.8693 34.875 37.4624 34.875 37.038C34.875 36.6137 34.7064 36.2067 34.4063 35.9066C34.1063 35.6066 33.6993 35.438 33.275 35.438ZM15.156 35.899C15.3054 35.8988 15.4533 35.928 15.5914 35.985C15.7295 36.042 15.855 36.1256 15.9608 36.2311C16.0665 36.3366 16.1505 36.4619 16.2078 36.5998C16.2652 36.7378 16.2948 36.8856 16.295 37.035C16.2952 37.1844 16.2659 37.3324 16.209 37.4704C16.152 37.6085 16.0684 37.734 15.9629 37.8398C15.8574 37.9456 15.7321 38.0295 15.5942 38.0869C15.4562 38.1442 15.3084 38.1738 15.159 38.174C14.8573 38.1744 14.5678 38.055 14.3542 37.8419C14.1406 37.6289 14.0204 37.3397 14.02 37.038C14.0196 36.7363 14.139 36.4468 14.3521 36.2332C14.5651 36.0196 14.8543 35.8994 15.156 35.899ZM18.779 35.899C18.9284 35.8988 19.0763 35.928 19.2144 35.985C19.3525 36.042 19.478 36.1256 19.5837 36.2311C19.6895 36.3366 19.7735 36.4619 19.8308 36.5998C19.8882 36.7378 19.9178 36.8856 19.918 37.035C19.9182 37.1844 19.8889 37.3324 19.832 37.4704C19.775 37.6085 19.6914 37.734 19.5859 37.8398C19.4804 37.9456 19.3551 38.0295 19.2172 38.0869C19.0792 38.1442 18.9314 38.1738 18.782 38.174C18.4803 38.1744 18.1908 38.055 17.9772 37.8419C17.7636 37.6289 17.6434 37.3397 17.643 37.038C17.6426 36.7363 17.762 36.4468 17.9751 36.2332C18.1881 36.0196 18.4773 35.8994 18.779 35.899ZM22.404 35.899C22.5534 35.8988 22.7013 35.928 22.8394 35.985C22.9775 36.042 23.103 36.1256 23.2087 36.2311C23.3145 36.3366 23.3985 36.4619 23.4558 36.5998C23.5132 36.7378 23.5428 36.8856 23.543 37.035C23.5432 37.1844 23.5139 37.3324 23.457 37.4704C23.4 37.6085 23.3164 37.734 23.2109 37.8398C23.1054 37.9456 22.9801 38.0295 22.8422 38.0869C22.7042 38.1442 22.5564 38.1738 22.407 38.174C22.1053 38.1744 21.8158 38.055 21.6022 37.8419C21.3886 37.6289 21.2684 37.3397 21.268 37.038C21.2676 36.7363 21.387 36.4468 21.6001 36.2332C21.8131 36.0196 22.1023 35.8994 22.404 35.899ZM26.027 35.899C26.1764 35.8988 26.3243 35.928 26.4624 35.985C26.6005 36.042 26.726 36.1256 26.8318 36.2311C26.9375 36.3366 27.0215 36.4619 27.0788 36.5998C27.1362 36.7378 27.1658 36.8856 27.166 37.035C27.1662 37.1844 27.1369 37.3324 27.08 37.4704C27.023 37.6085 26.9394 37.734 26.8339 37.8398C26.7284 37.9456 26.6031 38.0295 26.4652 38.0869C26.3272 38.1442 26.1794 38.1738 26.03 38.174C25.7283 38.1744 25.4388 38.055 25.2252 37.8419C25.0116 37.6289 24.8914 37.3397 24.891 37.038C24.8906 36.7363 25.01 36.4468 25.2231 36.2332C25.4361 36.0196 25.7253 35.8994 26.027 35.899ZM29.65 35.899C29.7994 35.8988 29.9473 35.928 30.0854 35.985C30.2235 36.042 30.349 36.1256 30.4548 36.2311C30.5605 36.3366 30.6445 36.4619 30.7018 36.5998C30.7592 36.7378 30.7888 36.8856 30.789 37.035C30.7892 37.1844 30.7599 37.3324 30.703 37.4704C30.646 37.6085 30.5624 37.734 30.4569 37.8398C30.3514 37.9456 30.2261 38.0295 30.0882 38.0869C29.9502 38.1442 29.8024 38.1738 29.653 38.174C29.3513 38.1744 29.0618 38.055 28.8482 37.8419C28.6346 37.6289 28.5144 37.3397 28.514 37.038C28.5136 36.7363 28.633 36.4468 28.8461 36.2332C29.0591 36.0196 29.3483 35.8994 29.65 35.899ZM33.275 35.899C33.4244 35.8988 33.5723 35.928 33.7104 35.985C33.8485 36.042 33.974 36.1256 34.0798 36.2311C34.1855 36.3366 34.2695 36.4619 34.3268 36.5998C34.3842 36.7378 34.4138 36.8856 34.414 37.035C34.4142 37.1844 34.3849 37.3324 34.328 37.4704C34.271 37.6085 34.1874 37.734 34.0819 37.8398C33.9764 37.9456 33.8511 38.0295 33.7132 38.0869C33.5752 38.1442 33.4274 38.1738 33.278 38.174C32.9763 38.1744 32.6868 38.055 32.4732 37.8419C32.2596 37.6289 32.1394 37.3397 32.139 37.038C32.1386 36.7363 32.258 36.4468 32.4711 36.2332C32.6841 36.0196 32.9733 35.8994 33.275 35.899Z" fill="#333333"/>
</svg>
