<svg width="48" height="48" viewBox="0 0 48 48" fill="none" xmlns="http://www.w3.org/2000/svg">
<path fill-rule="evenodd" clip-rule="evenodd" d="M0.0880127 -0.0830078V47.917H48.088V-0.0830078H0.0880127ZM14.235 3.91699H33.94C34.81 3.91699 35.508 4.61599 35.508 5.48499V42.347C35.508 43.217 34.809 43.917 33.94 43.917H14.235C13.365 43.917 12.666 43.217 12.666 42.347V5.48499C12.666 4.61599 13.366 3.91699 14.235 3.91699ZM16.102 9.29999C15.8886 9.29466 15.6763 9.33208 15.4775 9.41006C15.2788 9.48805 15.0977 9.60501 14.9449 9.75407C14.792 9.90312 14.6706 10.0813 14.5877 10.278C14.5047 10.4747 14.462 10.686 14.462 10.8995C14.462 11.113 14.5047 11.3243 14.5877 11.521C14.6706 11.7177 14.792 11.8959 14.9449 12.0449C15.0977 12.194 15.2788 12.3109 15.4775 12.3889C15.6763 12.4669 15.8886 12.5043 16.102 12.499C16.5264 12.499 16.9333 12.3304 17.2334 12.0304C17.5334 11.7303 17.702 11.3233 17.702 10.899C17.702 10.4746 17.5334 10.0677 17.2334 9.76762C16.9333 9.46756 16.5264 9.29899 16.102 9.29899V9.29999ZM20.102 9.29999C19.8886 9.29466 19.6763 9.33208 19.4775 9.41006C19.2788 9.48805 19.0977 9.60501 18.9449 9.75407C18.792 9.90312 18.6706 10.0813 18.5877 10.278C18.5047 10.4747 18.462 10.686 18.462 10.8995C18.462 11.113 18.5047 11.3243 18.5877 11.521C18.6706 11.7177 18.792 11.8959 18.9449 12.0449C19.0977 12.194 19.2788 12.3109 19.4775 12.3889C19.6763 12.4669 19.8886 12.5043 20.102 12.499C20.5264 12.499 20.9333 12.3304 21.2334 12.0304C21.5334 11.7303 21.702 11.3233 21.702 10.899C21.702 10.4746 21.5334 10.0677 21.2334 9.76762C20.9333 9.46756 20.5264 9.29899 20.102 9.29899V9.29999ZM24.102 9.29999C23.8886 9.29466 23.6763 9.33208 23.4775 9.41006C23.2788 9.48805 23.0977 9.60501 22.9449 9.75407C22.792 9.90312 22.6706 10.0813 22.5877 10.278C22.5047 10.4747 22.462 10.686 22.462 10.8995C22.462 11.113 22.5047 11.3243 22.5877 11.521C22.6706 11.7177 22.792 11.8959 22.9449 12.0449C23.0977 12.194 23.2788 12.3109 23.4775 12.3889C23.6763 12.4669 23.8886 12.5043 24.102 12.499C24.5264 12.499 24.9333 12.3304 25.2334 12.0304C25.5334 11.7303 25.702 11.3233 25.702 10.899C25.702 10.4746 25.5334 10.0677 25.2334 9.76762C24.9333 9.46756 24.5264 9.29899 24.102 9.29899V9.29999ZM28.102 9.29999C27.8886 9.29466 27.6763 9.33208 27.4775 9.41006C27.2788 9.48805 27.0977 9.60501 26.9449 9.75407C26.792 9.90312 26.6706 10.0813 26.5877 10.278C26.5047 10.4747 26.462 10.686 26.462 10.8995C26.462 11.113 26.5047 11.3243 26.5877 11.521C26.6706 11.7177 26.792 11.8959 26.9449 12.0449C27.0977 12.194 27.2788 12.3109 27.4775 12.3889C27.6763 12.4669 27.8886 12.5043 28.102 12.499C28.5264 12.499 28.9333 12.3304 29.2334 12.0304C29.5334 11.7303 29.702 11.3233 29.702 10.899C29.702 10.4746 29.5334 10.0677 29.2334 9.76762C28.9333 9.46756 28.5264 9.29899 28.102 9.29899V9.29999ZM32.102 9.29999C31.8886 9.29466 31.6763 9.33208 31.4775 9.41006C31.2788 9.48805 31.0977 9.60501 30.9449 9.75407C30.792 9.90312 30.6706 10.0813 30.5877 10.278C30.5047 10.4747 30.462 10.686 30.462 10.8995C30.462 11.113 30.5047 11.3243 30.5877 11.521C30.6706 11.7177 30.792 11.8959 30.9449 12.0449C31.0977 12.194 31.2788 12.3109 31.4775 12.3889C31.6763 12.4669 31.8886 12.5043 32.102 12.499C32.5264 12.499 32.9333 12.3304 33.2334 12.0304C33.5334 11.7303 33.702 11.3233 33.702 10.899C33.702 10.4746 33.5334 10.0677 33.2334 9.76762C32.9333 9.46756 32.5264 9.29899 32.102 9.29899V9.29999ZM14.247 14.802C14.217 14.8025 14.1883 14.8149 14.1673 14.8364C14.1464 14.858 14.1347 14.8869 14.135 14.917C14.135 14.978 14.185 15.03 14.247 15.031C14.2769 15.0302 14.3054 15.0179 14.3264 14.9967C14.3475 14.9755 14.3595 14.9469 14.36 14.917C14.3605 14.9107 14.3605 14.9043 14.36 14.898C14.3555 14.8714 14.3416 14.8473 14.3209 14.8301C14.3002 14.8129 14.274 14.8036 14.247 14.804V14.802ZM14.809 14.802C14.7942 14.8023 14.7795 14.8054 14.7659 14.8114C14.7523 14.8173 14.74 14.8258 14.7297 14.8365C14.7194 14.8472 14.7113 14.8598 14.7058 14.8736C14.7004 14.8874 14.6977 14.9022 14.698 14.917C14.698 14.979 14.748 15.031 14.809 15.031C14.8389 15.0302 14.8674 15.0179 14.8884 14.9967C14.9095 14.9755 14.9215 14.9469 14.922 14.917C14.9225 14.9107 14.9225 14.9043 14.922 14.898C14.9175 14.8714 14.9036 14.8473 14.8829 14.8301C14.8622 14.8129 14.836 14.8036 14.809 14.804V14.802ZM18.745 14.802C18.715 14.8025 18.6863 14.8149 18.6653 14.8364C18.6444 14.858 18.6327 14.8869 18.633 14.917C18.633 14.978 18.683 15.03 18.745 15.031C18.7749 15.0302 18.8034 15.0179 18.8244 14.9967C18.8455 14.9755 18.8575 14.9469 18.858 14.917C18.8586 14.9107 18.8586 14.9043 18.858 14.898C18.8535 14.8714 18.8396 14.8473 18.8189 14.8301C18.7982 14.8129 18.772 14.8036 18.745 14.804V14.802ZM23.243 14.802C23.213 14.8025 23.1843 14.8149 23.1633 14.8364C23.1424 14.858 23.1307 14.8869 23.131 14.917C23.131 14.978 23.181 15.03 23.243 15.031C23.2729 15.0302 23.3014 15.0179 23.3224 14.9967C23.3435 14.9755 23.3555 14.9469 23.356 14.917C23.3565 14.9107 23.3565 14.9043 23.356 14.898C23.3515 14.8714 23.3376 14.8473 23.3169 14.8301C23.2962 14.8129 23.27 14.8036 23.243 14.804V14.802ZM23.805 14.802C23.7746 14.802 23.7455 14.8141 23.7241 14.8355C23.7026 14.857 23.6905 14.8861 23.6905 14.9165C23.6905 14.9469 23.7026 14.976 23.7241 14.9975C23.7455 15.0189 23.7746 15.031 23.805 15.031C23.866 15.031 23.915 14.978 23.916 14.917C23.9166 14.9107 23.9166 14.9043 23.916 14.898C23.9121 14.8717 23.8989 14.8476 23.8786 14.8304C23.8584 14.8131 23.8326 14.8037 23.806 14.804V14.802H23.805ZM27.741 14.802C27.711 14.8025 27.6823 14.8149 27.6613 14.8364C27.6404 14.858 27.6287 14.8869 27.629 14.917C27.629 14.978 27.679 15.03 27.741 15.031C27.7709 15.0302 27.7994 15.0179 27.8204 14.9967C27.8415 14.9755 27.8535 14.9469 27.854 14.917C27.8546 14.9107 27.8546 14.9043 27.854 14.898C27.8495 14.8714 27.8356 14.8473 27.8149 14.8301C27.7942 14.8129 27.768 14.8036 27.741 14.804V14.802ZM31.676 14.802C31.6461 14.8028 31.6177 14.8153 31.597 14.8368C31.5762 14.8583 31.5647 14.8871 31.565 14.917C31.565 14.978 31.615 15.03 31.676 15.031C31.7061 15.0305 31.7348 15.0183 31.7561 14.997C31.7773 14.9758 31.7895 14.9471 31.79 14.917C31.7905 14.9107 31.7905 14.9043 31.79 14.898C31.7855 14.8712 31.7714 14.847 31.7505 14.8298C31.7296 14.8125 31.7031 14.8034 31.676 14.804V14.802ZM32.239 14.802C32.2241 14.8021 32.2093 14.8052 32.1956 14.8111C32.1819 14.8169 32.1695 14.8255 32.159 14.8361C32.1486 14.8468 32.1404 14.8595 32.1349 14.8734C32.1294 14.8872 32.1267 14.9021 32.127 14.917C32.127 14.979 32.177 15.031 32.239 15.031C32.2689 15.0302 32.2974 15.0179 32.3184 14.9967C32.3395 14.9755 32.3515 14.9469 32.352 14.917C32.3526 14.9107 32.3526 14.9043 32.352 14.898C32.3475 14.8714 32.3336 14.8473 32.3129 14.8301C32.2922 14.8129 32.266 14.8036 32.239 14.804V14.802ZM13.684 14.804C13.6693 14.8041 13.6548 14.8071 13.6412 14.8129C13.6277 14.8186 13.6154 14.827 13.6051 14.8375C13.5948 14.848 13.5867 14.8604 13.5812 14.8741C13.5756 14.8877 13.5729 14.9023 13.573 14.917C13.573 14.978 13.623 15.03 13.684 15.031C13.7141 15.0307 13.7428 15.0186 13.764 14.9973C13.7851 14.9759 13.797 14.9471 13.797 14.917C13.797 14.887 13.7851 14.8583 13.7639 14.8371C13.7427 14.8159 13.714 14.804 13.684 14.804ZM15.372 14.804C15.3572 14.8039 15.3425 14.8067 15.3288 14.8123C15.315 14.818 15.3026 14.8263 15.2922 14.8368C15.2817 14.8474 15.2735 14.8599 15.268 14.8737C15.2625 14.8874 15.2597 14.9022 15.26 14.917C15.26 14.979 15.31 15.031 15.372 15.031C15.4019 15.0302 15.4304 15.0179 15.4514 14.9967C15.4725 14.9755 15.4845 14.9469 15.485 14.917V14.91C15.483 14.8813 15.4702 14.8545 15.4493 14.8348C15.4283 14.8152 15.4007 14.8042 15.372 14.804ZM15.934 14.804C15.9193 14.804 15.9047 14.8069 15.8911 14.8126C15.8775 14.8183 15.8651 14.8267 15.8548 14.8372C15.8445 14.8477 15.8363 14.8602 15.8309 14.8739C15.8254 14.8876 15.8227 14.9022 15.823 14.917C15.823 14.979 15.873 15.031 15.934 15.031C15.9639 15.0302 15.9924 15.0179 16.0134 14.9967C16.0345 14.9755 16.0465 14.9469 16.047 14.917V14.91C16.045 14.8813 16.0322 14.8545 16.0113 14.8348C15.9903 14.8152 15.9627 14.8042 15.934 14.804ZM16.497 14.804C16.4822 14.8039 16.4675 14.8067 16.4538 14.8123C16.44 14.818 16.4276 14.8263 16.4172 14.8368C16.4067 14.8474 16.3985 14.8599 16.393 14.8737C16.3875 14.8874 16.3847 14.9022 16.385 14.917C16.385 14.979 16.435 15.031 16.497 15.031C16.5269 15.0302 16.5554 15.0179 16.5764 14.9967C16.5975 14.9755 16.6095 14.9469 16.61 14.917V14.91C16.608 14.8813 16.5952 14.8545 16.5743 14.8348C16.5533 14.8152 16.5257 14.8042 16.497 14.804ZM17.057 14.804C17.0423 14.8041 17.0278 14.8071 17.0142 14.8129C17.0007 14.8186 16.9884 14.827 16.9781 14.8375C16.9678 14.848 16.9597 14.8604 16.9542 14.8741C16.9486 14.8877 16.9459 14.9023 16.946 14.917C16.946 14.978 16.996 15.03 17.057 15.031C17.0871 15.0307 17.1158 15.0186 17.137 14.9973C17.1581 14.9759 17.17 14.9471 17.17 14.917V14.91C17.1685 14.8812 17.1559 14.8541 17.1348 14.8343C17.1137 14.8146 17.0859 14.8037 17.057 14.804ZM17.62 14.804C17.6052 14.804 17.5906 14.8069 17.5769 14.8126C17.5633 14.8183 17.5509 14.8266 17.5405 14.8371C17.53 14.8477 17.5218 14.8601 17.5163 14.8738C17.5107 14.8875 17.5079 14.9022 17.508 14.917C17.508 14.978 17.558 15.03 17.62 15.031C17.6501 15.0307 17.6788 15.0186 17.7 14.9973C17.7211 14.9759 17.733 14.9471 17.733 14.917V14.91C17.7315 14.8812 17.7189 14.8541 17.6978 14.8343C17.6767 14.8146 17.6489 14.8037 17.62 14.804ZM18.182 14.804C18.1673 14.8041 18.1528 14.8071 18.1392 14.8129C18.1257 14.8186 18.1134 14.827 18.1031 14.8375C18.0928 14.848 18.0847 14.8604 18.0792 14.8741C18.0736 14.8877 18.0709 14.9023 18.071 14.917C18.071 14.978 18.121 15.03 18.182 15.031C18.2121 15.0307 18.2408 15.0186 18.262 14.9973C18.2831 14.9759 18.295 14.9471 18.295 14.917V14.91C18.2935 14.8812 18.2809 14.8541 18.2598 14.8343C18.2387 14.8146 18.2109 14.8037 18.182 14.804ZM19.307 14.804C19.2923 14.804 19.2777 14.8069 19.2641 14.8126C19.2505 14.8183 19.2381 14.8267 19.2278 14.8372C19.2175 14.8477 19.2093 14.8602 19.2039 14.8739C19.1984 14.8876 19.1957 14.9022 19.196 14.917C19.196 14.979 19.246 15.031 19.307 15.031C19.3369 15.0302 19.3654 15.0179 19.3864 14.9967C19.4075 14.9755 19.4195 14.9469 19.42 14.917V14.91C19.418 14.8813 19.4052 14.8545 19.3843 14.8348C19.3633 14.8152 19.3357 14.8042 19.307 14.804ZM19.87 14.804C19.8552 14.8039 19.8405 14.8067 19.8268 14.8123C19.813 14.818 19.8006 14.8263 19.7902 14.8368C19.7797 14.8474 19.7715 14.8599 19.766 14.8737C19.7605 14.8874 19.7577 14.9022 19.758 14.917C19.758 14.979 19.808 15.031 19.87 15.031C19.8999 15.0302 19.9284 15.0179 19.9494 14.9967C19.9705 14.9755 19.9825 14.9469 19.983 14.917V14.91C19.981 14.8813 19.9682 14.8545 19.9473 14.8348C19.9263 14.8152 19.8987 14.8042 19.87 14.804ZM20.432 14.804C20.4173 14.804 20.4027 14.8069 20.3891 14.8126C20.3755 14.8183 20.3631 14.8267 20.3528 14.8372C20.3425 14.8477 20.3343 14.8602 20.3289 14.8739C20.3234 14.8876 20.3207 14.9022 20.321 14.917C20.321 14.979 20.371 15.031 20.432 15.031C20.4619 15.0302 20.4904 15.0179 20.5114 14.9967C20.5325 14.9755 20.5445 14.9469 20.545 14.917V14.91C20.543 14.8813 20.5302 14.8545 20.5093 14.8348C20.4883 14.8152 20.4607 14.8042 20.432 14.804ZM20.995 14.804C20.9802 14.8039 20.9655 14.8067 20.9518 14.8123C20.938 14.818 20.9256 14.8263 20.9152 14.8368C20.9047 14.8474 20.8965 14.8599 20.891 14.8737C20.8855 14.8874 20.8827 14.9022 20.883 14.917C20.883 14.979 20.933 15.031 20.995 15.031C21.0249 15.0302 21.0534 15.0179 21.0744 14.9967C21.0955 14.9755 21.1075 14.9469 21.108 14.917V14.91C21.106 14.8813 21.0932 14.8545 21.0723 14.8348C21.0513 14.8152 21.0237 14.8042 20.995 14.804ZM21.555 14.804C21.5254 14.8045 21.4972 14.8167 21.4764 14.8378C21.4556 14.8589 21.444 14.8874 21.444 14.917C21.444 14.978 21.494 15.03 21.555 15.031C21.57 15.031 21.5848 15.028 21.5986 15.0223C21.6125 15.0166 21.625 15.0082 21.6356 14.9976C21.6462 14.987 21.6546 14.9744 21.6603 14.9606C21.6661 14.9468 21.669 14.932 21.669 14.917V14.91C21.6675 14.881 21.6547 14.8537 21.6334 14.834C21.6122 14.8142 21.5841 14.8034 21.555 14.804ZM22.118 14.804C22.0882 14.8043 22.0597 14.8163 22.0388 14.8374C22.0178 14.8586 22.006 14.8872 22.006 14.917C22.006 14.978 22.056 15.03 22.118 15.031C22.1481 15.0307 22.1768 15.0186 22.198 14.9973C22.2191 14.9759 22.231 14.9471 22.231 14.917V14.91C22.2295 14.8812 22.2169 14.8541 22.1958 14.8343C22.1747 14.8146 22.1469 14.8037 22.118 14.804ZM22.68 14.804C22.6653 14.804 22.6508 14.8069 22.6372 14.8126C22.6237 14.8184 22.6114 14.8267 22.6012 14.8373C22.5909 14.8478 22.5829 14.8603 22.5775 14.874C22.5722 14.8877 22.5696 14.9023 22.57 14.917C22.571 14.978 22.619 15.03 22.68 15.031C22.7102 15.031 22.7392 15.019 22.7606 14.9976C22.782 14.9762 22.794 14.9472 22.794 14.917C22.794 14.9021 22.7911 14.8873 22.7853 14.8735C22.7796 14.8597 22.7712 14.8472 22.7606 14.8367C22.75 14.8262 22.7374 14.8179 22.7236 14.8123C22.7097 14.8067 22.6949 14.8039 22.68 14.804ZM24.368 14.804C24.3532 14.8039 24.3385 14.8067 24.3248 14.8123C24.311 14.818 24.2986 14.8263 24.2882 14.8368C24.2777 14.8474 24.2695 14.8599 24.264 14.8737C24.2585 14.8874 24.2557 14.9022 24.256 14.917C24.256 14.979 24.306 15.031 24.368 15.031C24.3979 15.0302 24.4264 15.0179 24.4474 14.9967C24.4685 14.9755 24.4805 14.9469 24.481 14.917V14.91C24.479 14.8813 24.4662 14.8545 24.4453 14.8348C24.4243 14.8152 24.3967 14.8042 24.368 14.804ZM24.93 14.804C24.9 14.804 24.8713 14.8159 24.8501 14.8371C24.8289 14.8583 24.817 14.887 24.817 14.917C24.817 14.979 24.868 15.031 24.93 15.031C24.9601 15.0305 24.9888 15.0183 25.0101 14.997C25.0313 14.9758 25.0435 14.9471 25.044 14.917V14.91C25.042 14.8812 25.0291 14.8542 25.0079 14.8345C24.9868 14.8148 24.9589 14.8039 24.93 14.804ZM25.49 14.804C25.4605 14.8045 25.4324 14.8167 25.4118 14.8379C25.3912 14.859 25.3797 14.8875 25.38 14.917C25.38 14.978 25.43 15.03 25.49 15.031C25.5202 15.031 25.5492 15.019 25.5706 14.9976C25.592 14.9762 25.604 14.9472 25.604 14.917V14.91C25.6025 14.8812 25.5899 14.8541 25.5688 14.8343C25.5477 14.8146 25.5199 14.8037 25.491 14.804H25.49ZM26.053 14.804C26.0383 14.8041 26.0238 14.8071 26.0102 14.8129C25.9967 14.8186 25.9844 14.827 25.9741 14.8375C25.9638 14.848 25.9557 14.8604 25.9502 14.8741C25.9446 14.8877 25.9419 14.9023 25.942 14.917C25.942 14.978 25.992 15.03 26.053 15.031C26.0831 15.0307 26.1118 15.0186 26.133 14.9973C26.1541 14.9759 26.166 14.9471 26.166 14.917V14.91C26.1645 14.8812 26.1519 14.8541 26.1308 14.8343C26.1097 14.8146 26.0819 14.8037 26.053 14.804ZM26.616 14.804C26.6012 14.804 26.5866 14.8069 26.5729 14.8126C26.5593 14.8183 26.5469 14.8266 26.5365 14.8371C26.526 14.8477 26.5178 14.8601 26.5123 14.8738C26.5067 14.8875 26.5039 14.9022 26.504 14.917C26.504 14.978 26.554 15.03 26.616 15.031C26.6463 15.0307 26.6752 15.0187 26.6967 14.9974C26.7182 14.9761 26.7305 14.9472 26.731 14.917V14.91C26.729 14.881 26.7159 14.8539 26.6946 14.8342C26.6732 14.8145 26.6451 14.8037 26.616 14.804ZM27.178 14.804C27.1633 14.8041 27.1488 14.8071 27.1352 14.8129C27.1217 14.8186 27.1094 14.827 27.0991 14.8375C27.0888 14.848 27.0807 14.8604 27.0752 14.8741C27.0696 14.8877 27.0669 14.9023 27.067 14.917C27.067 14.978 27.117 15.03 27.178 15.031C27.2084 15.031 27.2376 15.019 27.2593 14.9977C27.281 14.9764 27.2935 14.9474 27.294 14.917C27.2939 14.9019 27.2908 14.8871 27.2849 14.8732C27.2789 14.8594 27.2704 14.8468 27.2596 14.8363C27.2488 14.8258 27.236 14.8175 27.222 14.812C27.208 14.8064 27.1931 14.8037 27.178 14.804ZM28.303 14.804C28.2883 14.804 28.2737 14.8069 28.2601 14.8126C28.2465 14.8183 28.2341 14.8267 28.2238 14.8372C28.2135 14.8477 28.2053 14.8602 28.1999 14.8739C28.1944 14.8876 28.1917 14.9022 28.192 14.917C28.192 14.979 28.242 15.031 28.303 15.031C28.3329 15.0302 28.3614 15.0179 28.3824 14.9967C28.4035 14.9755 28.4155 14.9469 28.416 14.917V14.91C28.414 14.8813 28.4012 14.8545 28.3803 14.8348C28.3593 14.8152 28.3317 14.8042 28.303 14.804ZM28.866 14.804C28.8511 14.8039 28.8363 14.8067 28.8225 14.8123C28.8086 14.8179 28.7961 14.8262 28.7855 14.8367C28.7749 14.8472 28.7665 14.8597 28.7607 14.8735C28.755 14.8873 28.752 14.9021 28.752 14.917C28.752 14.979 28.804 15.031 28.866 15.031C28.8959 15.0302 28.9244 15.0179 28.9454 14.9967C28.9665 14.9755 28.9785 14.9469 28.979 14.917V14.91C28.977 14.8813 28.9642 14.8545 28.9433 14.8348C28.9223 14.8152 28.8947 14.8042 28.866 14.804ZM29.428 14.804C29.398 14.804 29.3693 14.8159 29.3481 14.8371C29.3269 14.8583 29.315 14.887 29.315 14.917C29.315 14.979 29.366 15.031 29.428 15.031C29.4579 15.0302 29.4864 15.0179 29.5074 14.9967C29.5285 14.9755 29.5405 14.9469 29.541 14.917V14.91C29.539 14.8813 29.5262 14.8545 29.5053 14.8348C29.4843 14.8152 29.4567 14.8042 29.428 14.804ZM29.988 14.804C29.9586 14.8048 29.9306 14.817 29.91 14.8381C29.8895 14.8592 29.878 14.8875 29.878 14.917C29.878 14.978 29.928 15.03 29.988 15.031C30.0182 15.031 30.0472 15.019 30.0686 14.9976C30.09 14.9762 30.102 14.9472 30.102 14.917V14.91C30.1005 14.8812 30.0879 14.8541 30.0668 14.8343C30.0457 14.8146 30.0179 14.8037 29.989 14.804H29.988ZM30.551 14.804C30.5214 14.8045 30.4932 14.8167 30.4724 14.8378C30.4516 14.8589 30.44 14.8874 30.44 14.917C30.44 14.978 30.49 15.03 30.551 15.031C30.5814 15.031 30.6106 15.019 30.6323 14.9977C30.654 14.9764 30.6665 14.9474 30.667 14.917V14.91C30.665 14.8808 30.6518 14.8535 30.6302 14.8338C30.6086 14.8141 30.5803 14.8034 30.551 14.804ZM31.114 14.804C31.0842 14.8043 31.0557 14.8163 31.0348 14.8374C31.0138 14.8586 31.002 14.8872 31.002 14.917C31.002 14.978 31.052 15.03 31.114 15.031C31.1443 15.0307 31.1732 15.0187 31.1947 14.9974C31.2162 14.9761 31.2285 14.9472 31.229 14.917V14.91C31.227 14.881 31.2139 14.8539 31.1926 14.8342C31.1712 14.8145 31.1431 14.8037 31.114 14.804ZM32.801 14.804C32.771 14.804 32.7423 14.8159 32.7211 14.8371C32.6999 14.8583 32.688 14.887 32.688 14.917C32.688 14.979 32.739 15.031 32.801 15.031C32.8309 15.0302 32.8594 15.0179 32.8804 14.9967C32.9015 14.9755 32.9135 14.9469 32.914 14.917V14.91C32.912 14.8813 32.8992 14.8545 32.8783 14.8348C32.8573 14.8152 32.8297 14.8042 32.801 14.804ZM33.364 14.804C33.334 14.804 33.3053 14.8159 33.2841 14.8371C33.2629 14.8583 33.251 14.887 33.251 14.917C33.251 14.979 33.301 15.031 33.364 15.031C33.3939 15.0302 33.4224 15.0179 33.4434 14.9967C33.4645 14.9755 33.4765 14.9469 33.477 14.917V14.91C33.475 14.8813 33.4622 14.8545 33.4413 14.8348C33.4203 14.8152 33.3927 14.8042 33.364 14.804ZM33.926 14.804C33.9113 14.804 33.8967 14.8069 33.8831 14.8126C33.8695 14.8183 33.8571 14.8267 33.8468 14.8372C33.8365 14.8477 33.8283 14.8602 33.8229 14.8739C33.8174 14.8876 33.8147 14.9022 33.815 14.917C33.815 14.979 33.865 15.031 33.926 15.031C33.9559 15.0302 33.9844 15.0179 34.0054 14.9967C34.0265 14.9755 34.0385 14.9469 34.039 14.917V14.91C34.037 14.8813 34.0242 14.8545 34.0033 14.8348C33.9823 14.8152 33.9547 14.8042 33.926 14.804ZM34.486 14.804C34.4565 14.8045 34.4284 14.8167 34.4078 14.8379C34.3871 14.859 34.3757 14.8875 34.376 14.917C34.376 14.978 34.426 15.03 34.486 15.031C34.5162 15.031 34.5452 15.019 34.5666 14.9976C34.588 14.9762 34.6 14.9472 34.6 14.917V14.91C34.5985 14.8812 34.5858 14.8541 34.5648 14.8343C34.5437 14.8146 34.5159 14.8037 34.487 14.804H34.486ZM16.102 17.966C15.8886 17.9607 15.6763 17.9981 15.4775 18.0761C15.2788 18.154 15.0977 18.271 14.9449 18.4201C14.792 18.5691 14.6706 18.7473 14.5877 18.944C14.5047 19.1407 14.462 19.352 14.462 19.5655C14.462 19.779 14.5047 19.9903 14.5877 20.187C14.6706 20.3837 14.792 20.5619 14.9449 20.7109C15.0977 20.86 15.2788 20.9769 15.4775 21.0549C15.6763 21.1329 15.8886 21.1703 16.102 21.165C16.5264 21.165 16.9333 20.9964 17.2334 20.6964C17.5334 20.3963 17.702 19.9893 17.702 19.565C17.702 19.1406 17.5334 18.7337 17.2334 18.4336C16.9333 18.1336 16.5264 17.965 16.102 17.965V17.966ZM20.102 17.966C19.8886 17.9607 19.6763 17.9981 19.4775 18.0761C19.2788 18.154 19.0977 18.271 18.9449 18.4201C18.792 18.5691 18.6706 18.7473 18.5877 18.944C18.5047 19.1407 18.462 19.352 18.462 19.5655C18.462 19.779 18.5047 19.9903 18.5877 20.187C18.6706 20.3837 18.792 20.5619 18.9449 20.7109C19.0977 20.86 19.2788 20.9769 19.4775 21.0549C19.6763 21.1329 19.8886 21.1703 20.102 21.165C20.5264 21.165 20.9333 20.9964 21.2334 20.6964C21.5334 20.3963 21.702 19.9893 21.702 19.565C21.702 19.1406 21.5334 18.7337 21.2334 18.4336C20.9333 18.1336 20.5264 17.965 20.102 17.965V17.966ZM24.102 17.966C23.8886 17.9607 23.6763 17.9981 23.4775 18.0761C23.2788 18.154 23.0977 18.271 22.9449 18.4201C22.792 18.5691 22.6706 18.7473 22.5877 18.944C22.5047 19.1407 22.462 19.352 22.462 19.5655C22.462 19.779 22.5047 19.9903 22.5877 20.187C22.6706 20.3837 22.792 20.5619 22.9449 20.7109C23.0977 20.86 23.2788 20.9769 23.4775 21.0549C23.6763 21.1329 23.8886 21.1703 24.102 21.165C24.5264 21.165 24.9333 20.9964 25.2334 20.6964C25.5334 20.3963 25.702 19.9893 25.702 19.565C25.702 19.1406 25.5334 18.7337 25.2334 18.4336C24.9333 18.1336 24.5264 17.965 24.102 17.965V17.966ZM28.102 17.966C27.8886 17.9607 27.6763 17.9981 27.4775 18.0761C27.2788 18.154 27.0977 18.271 26.9449 18.4201C26.792 18.5691 26.6706 18.7473 26.5877 18.944C26.5047 19.1407 26.462 19.352 26.462 19.5655C26.462 19.779 26.5047 19.9903 26.5877 20.187C26.6706 20.3837 26.792 20.5619 26.9449 20.7109C27.0977 20.86 27.2788 20.9769 27.4775 21.0549C27.6763 21.1329 27.8886 21.1703 28.102 21.165C28.5264 21.165 28.9333 20.9964 29.2334 20.6964C29.5334 20.3963 29.702 19.9893 29.702 19.565C29.702 19.1406 29.5334 18.7337 29.2334 18.4336C28.9333 18.1336 28.5264 17.965 28.102 17.965V17.966ZM32.102 17.966C31.8886 17.9607 31.6763 17.9981 31.4775 18.0761C31.2788 18.154 31.0977 18.271 30.9449 18.4201C30.792 18.5691 30.6706 18.7473 30.5877 18.944C30.5047 19.1407 30.462 19.352 30.462 19.5655C30.462 19.779 30.5047 19.9903 30.5877 20.187C30.6706 20.3837 30.792 20.5619 30.9449 20.7109C31.0977 20.86 31.2788 20.9769 31.4775 21.0549C31.6763 21.1329 31.8886 21.1703 32.102 21.165C32.5264 21.165 32.9333 20.9964 33.2334 20.6964C33.5334 20.3963 33.702 19.9893 33.702 19.565C33.702 19.1406 33.5334 18.7337 33.2334 18.4336C32.9333 18.1336 32.5264 17.965 32.102 17.965V17.966ZM14.247 23.802C14.217 23.8025 14.1883 23.8149 14.1673 23.8364C14.1464 23.858 14.1347 23.8869 14.135 23.917C14.135 23.978 14.185 24.03 14.247 24.03C14.2767 24.0292 14.305 24.0171 14.3261 23.9961C14.3471 23.975 14.3593 23.9467 14.36 23.917C14.3605 23.9107 14.3605 23.9043 14.36 23.898C14.3555 23.8714 14.3416 23.8473 14.3209 23.8301C14.3002 23.8129 14.274 23.8036 14.247 23.804V23.802ZM14.809 23.802C14.7942 23.8023 14.7795 23.8054 14.7659 23.8114C14.7523 23.8173 14.74 23.8258 14.7297 23.8365C14.7194 23.8472 14.7113 23.8598 14.7058 23.8736C14.7004 23.8874 14.6977 23.9022 14.698 23.917C14.698 23.979 14.748 24.031 14.809 24.03C14.8387 24.0292 14.867 24.0171 14.8881 23.9961C14.9091 23.975 14.9213 23.9467 14.922 23.917C14.9225 23.9107 14.9225 23.9043 14.922 23.898C14.9175 23.8714 14.9036 23.8473 14.8829 23.8301C14.8622 23.8129 14.836 23.8036 14.809 23.804V23.802ZM18.745 23.802C18.715 23.8025 18.6863 23.8149 18.6653 23.8364C18.6444 23.858 18.6327 23.8869 18.633 23.917C18.633 23.978 18.683 24.03 18.745 24.03C18.7747 24.0292 18.803 24.0171 18.8241 23.9961C18.8451 23.975 18.8573 23.9467 18.858 23.917C18.8586 23.9107 18.8586 23.9043 18.858 23.898C18.8535 23.8714 18.8396 23.8473 18.8189 23.8301C18.7982 23.8129 18.772 23.8036 18.745 23.804V23.802ZM23.243 23.802C23.213 23.8025 23.1843 23.8149 23.1633 23.8364C23.1424 23.858 23.1307 23.8869 23.131 23.917C23.131 23.978 23.181 24.03 23.243 24.03C23.2727 24.0292 23.301 24.0171 23.3221 23.9961C23.3431 23.975 23.3553 23.9467 23.356 23.917C23.3565 23.9107 23.3565 23.9043 23.356 23.898C23.3515 23.8714 23.3376 23.8473 23.3169 23.8301C23.2962 23.8129 23.27 23.8036 23.243 23.804V23.802ZM23.805 23.802C23.7746 23.802 23.7455 23.8141 23.7241 23.8355C23.7026 23.857 23.6905 23.8861 23.6905 23.9165C23.6905 23.9469 23.7026 23.976 23.7241 23.9975C23.7455 24.0189 23.7746 24.031 23.805 24.031C23.866 24.031 23.915 23.978 23.916 23.917C23.9166 23.9107 23.9166 23.9043 23.916 23.898C23.9119 23.8718 23.8986 23.8479 23.8784 23.8306C23.8583 23.8134 23.8326 23.8039 23.806 23.804V23.802H23.805ZM27.741 23.802C27.711 23.8025 27.6823 23.8149 27.6613 23.8364C27.6404 23.858 27.6287 23.8869 27.629 23.917C27.629 23.978 27.679 24.03 27.741 24.03C27.7707 24.0292 27.799 24.0171 27.8201 23.9961C27.8411 23.975 27.8533 23.9467 27.854 23.917C27.8546 23.9107 27.8546 23.9043 27.854 23.898C27.8495 23.8714 27.8356 23.8473 27.8149 23.8301C27.7942 23.8129 27.768 23.8036 27.741 23.804V23.802ZM31.676 23.802C31.6461 23.8028 31.6177 23.8153 31.597 23.8368C31.5762 23.8583 31.5647 23.8871 31.565 23.917C31.565 23.978 31.615 24.03 31.676 24.03C31.7059 24.0295 31.7345 24.0174 31.7557 23.9964C31.777 23.9753 31.7892 23.9469 31.79 23.917C31.7905 23.9107 31.7905 23.9043 31.79 23.898C31.7855 23.8713 31.7714 23.847 31.7505 23.8298C31.7296 23.8125 31.7031 23.8034 31.676 23.804V23.802ZM32.239 23.802C32.2241 23.8021 32.2093 23.8052 32.1956 23.8111C32.1819 23.8169 32.1695 23.8255 32.159 23.8361C32.1486 23.8468 32.1404 23.8595 32.1349 23.8734C32.1294 23.8872 32.1267 23.9021 32.127 23.917C32.127 23.979 32.177 24.031 32.239 24.03C32.2687 24.0292 32.297 24.0171 32.3181 23.9961C32.3391 23.975 32.3513 23.9467 32.352 23.917C32.3526 23.9107 32.3526 23.9043 32.352 23.898C32.3475 23.8714 32.3336 23.8473 32.3129 23.8301C32.2922 23.8129 32.266 23.8036 32.239 23.804V23.802ZM13.684 23.804C13.6693 23.8041 13.6548 23.8071 13.6412 23.8129C13.6277 23.8186 13.6154 23.827 13.6051 23.8375C13.5948 23.848 13.5867 23.8604 13.5812 23.8741C13.5756 23.8877 13.5729 23.9023 13.573 23.917C13.573 23.978 13.623 24.03 13.684 24.03C13.7139 24.0297 13.7425 24.0177 13.7636 23.9966C13.7848 23.9755 13.7968 23.9469 13.797 23.917C13.797 23.887 13.7851 23.8583 13.7639 23.8371C13.7427 23.8159 13.714 23.804 13.684 23.804ZM15.372 23.804C15.3572 23.8039 15.3425 23.8067 15.3288 23.8123C15.315 23.818 15.3026 23.8263 15.2922 23.8368C15.2817 23.8474 15.2735 23.8599 15.268 23.8737C15.2625 23.8874 15.2597 23.9022 15.26 23.917C15.26 23.979 15.31 24.031 15.372 24.03C15.4017 24.0292 15.43 24.0171 15.4511 23.9961C15.4721 23.975 15.4843 23.9467 15.485 23.917V23.91C15.483 23.8813 15.4702 23.8545 15.4493 23.8348C15.4283 23.8152 15.4007 23.8042 15.372 23.804ZM15.934 23.804C15.9193 23.804 15.9047 23.8069 15.8911 23.8126C15.8775 23.8183 15.8651 23.8267 15.8548 23.8372C15.8445 23.8477 15.8363 23.8602 15.8309 23.8739C15.8254 23.8876 15.8227 23.9022 15.823 23.917C15.823 23.979 15.873 24.031 15.934 24.03C15.9637 24.0292 15.992 24.0171 16.0131 23.9961C16.0341 23.975 16.0463 23.9467 16.047 23.917V23.91C16.045 23.8813 16.0322 23.8545 16.0113 23.8348C15.9903 23.8152 15.9627 23.8042 15.934 23.804ZM16.497 23.804C16.4822 23.8039 16.4675 23.8067 16.4538 23.8123C16.44 23.818 16.4276 23.8263 16.4172 23.8368C16.4067 23.8474 16.3985 23.8599 16.393 23.8737C16.3875 23.8874 16.3847 23.9022 16.385 23.917C16.385 23.979 16.435 24.031 16.497 24.03C16.5267 24.0292 16.555 24.0171 16.5761 23.9961C16.5971 23.975 16.6093 23.9467 16.61 23.917V23.91C16.608 23.8813 16.5952 23.8545 16.5743 23.8348C16.5533 23.8152 16.5257 23.8042 16.497 23.804ZM17.057 23.804C17.0423 23.8041 17.0278 23.8071 17.0142 23.8129C17.0007 23.8186 16.9884 23.827 16.9781 23.8375C16.9678 23.848 16.9597 23.8604 16.9542 23.8741C16.9486 23.8877 16.9459 23.9023 16.946 23.917C16.946 23.978 16.996 24.03 17.057 24.03C17.0869 24.0297 17.1155 24.0177 17.1366 23.9966C17.1578 23.9755 17.1698 23.9469 17.17 23.917V23.91C17.1685 23.8812 17.1559 23.8541 17.1348 23.8343C17.1137 23.8146 17.0859 23.8037 17.057 23.804ZM17.62 23.804C17.6052 23.804 17.5906 23.8069 17.5769 23.8126C17.5633 23.8183 17.5509 23.8266 17.5405 23.8371C17.53 23.8477 17.5218 23.8601 17.5163 23.8738C17.5107 23.8875 17.5079 23.9022 17.508 23.917C17.508 23.978 17.558 24.03 17.62 24.03C17.6499 24.0297 17.6785 24.0177 17.6996 23.9966C17.7208 23.9755 17.7328 23.9469 17.733 23.917V23.91C17.7315 23.8812 17.7189 23.8541 17.6978 23.8343C17.6767 23.8146 17.6489 23.8037 17.62 23.804ZM18.182 23.804C18.1673 23.8041 18.1528 23.8071 18.1392 23.8129C18.1257 23.8186 18.1134 23.827 18.1031 23.8375C18.0928 23.848 18.0847 23.8604 18.0792 23.8741C18.0736 23.8877 18.0709 23.9023 18.071 23.917C18.071 23.978 18.121 24.03 18.182 24.03C18.2119 24.0297 18.2405 24.0177 18.2616 23.9966C18.2828 23.9755 18.2948 23.9469 18.295 23.917V23.91C18.2935 23.8812 18.2809 23.8541 18.2598 23.8343C18.2387 23.8146 18.2109 23.8037 18.182 23.804ZM19.307 23.804C19.2923 23.804 19.2777 23.8069 19.2641 23.8126C19.2505 23.8183 19.2381 23.8267 19.2278 23.8372C19.2175 23.8477 19.2093 23.8602 19.2039 23.8739C19.1984 23.8876 19.1957 23.9022 19.196 23.917C19.196 23.979 19.246 24.031 19.307 24.03C19.3367 24.0292 19.365 24.0171 19.3861 23.9961C19.4071 23.975 19.4193 23.9467 19.42 23.917V23.91C19.418 23.8813 19.4052 23.8545 19.3843 23.8348C19.3633 23.8152 19.3357 23.8042 19.307 23.804ZM19.87 23.804C19.8552 23.8039 19.8405 23.8067 19.8268 23.8123C19.813 23.818 19.8006 23.8263 19.7902 23.8368C19.7797 23.8474 19.7715 23.8599 19.766 23.8737C19.7605 23.8874 19.7577 23.9022 19.758 23.917C19.758 23.979 19.808 24.031 19.87 24.03C19.8997 24.0292 19.928 24.0171 19.9491 23.9961C19.9701 23.975 19.9823 23.9467 19.983 23.917V23.91C19.981 23.8813 19.9682 23.8545 19.9473 23.8348C19.9263 23.8152 19.8987 23.8042 19.87 23.804ZM20.432 23.804C20.4173 23.804 20.4027 23.8069 20.3891 23.8126C20.3755 23.8183 20.3631 23.8267 20.3528 23.8372C20.3425 23.8477 20.3343 23.8602 20.3289 23.8739C20.3234 23.8876 20.3207 23.9022 20.321 23.917C20.321 23.979 20.371 24.031 20.432 24.03C20.4617 24.0292 20.49 24.0171 20.5111 23.9961C20.5321 23.975 20.5443 23.9467 20.545 23.917V23.91C20.543 23.8813 20.5302 23.8545 20.5093 23.8348C20.4883 23.8152 20.4607 23.8042 20.432 23.804ZM20.995 23.804C20.9802 23.8039 20.9655 23.8067 20.9518 23.8123C20.938 23.818 20.9256 23.8263 20.9152 23.8368C20.9047 23.8474 20.8965 23.8599 20.891 23.8737C20.8855 23.8874 20.8827 23.9022 20.883 23.917C20.883 23.979 20.933 24.031 20.995 24.03C21.0247 24.0292 21.053 24.0171 21.0741 23.9961C21.0951 23.975 21.1073 23.9467 21.108 23.917V23.91C21.106 23.8813 21.0932 23.8545 21.0723 23.8348C21.0513 23.8152 21.0237 23.8042 20.995 23.804ZM21.555 23.804C21.5254 23.8045 21.4972 23.8167 21.4764 23.8378C21.4556 23.8589 21.444 23.8874 21.444 23.917C21.444 23.978 21.494 24.03 21.555 24.03C21.5851 24.03 21.6139 24.0181 21.6353 23.997C21.6566 23.9758 21.6688 23.9471 21.669 23.917V23.91C21.6675 23.881 21.6547 23.8537 21.6334 23.834C21.6122 23.8142 21.5841 23.8034 21.555 23.804ZM22.118 23.804C22.0882 23.8043 22.0597 23.8163 22.0388 23.8374C22.0178 23.8586 22.006 23.8872 22.006 23.917C22.006 23.978 22.056 24.03 22.118 24.03C22.1479 24.0297 22.1765 24.0177 22.1976 23.9966C22.2188 23.9755 22.2308 23.9469 22.231 23.917V23.91C22.2295 23.8812 22.2169 23.8541 22.1958 23.8343C22.1747 23.8146 22.1469 23.8037 22.118 23.804ZM22.68 23.804C22.6653 23.804 22.6508 23.8069 22.6372 23.8126C22.6237 23.8184 22.6114 23.8267 22.6012 23.8373C22.5909 23.8478 22.5829 23.8603 22.5775 23.874C22.5722 23.8877 22.5696 23.9023 22.57 23.917C22.571 23.978 22.619 24.03 22.68 24.03C22.7101 24.03 22.7389 24.0181 22.7603 23.997C22.7816 23.9758 22.7938 23.9471 22.794 23.917C22.794 23.9021 22.7911 23.8873 22.7853 23.8735C22.7796 23.8597 22.7712 23.8472 22.7606 23.8367C22.75 23.8262 22.7374 23.8179 22.7236 23.8123C22.7097 23.8067 22.6949 23.8039 22.68 23.804ZM24.368 23.804C24.3532 23.8039 24.3385 23.8067 24.3248 23.8123C24.311 23.818 24.2986 23.8263 24.2882 23.8368C24.2777 23.8474 24.2695 23.8599 24.264 23.8737C24.2585 23.8874 24.2557 23.9022 24.256 23.917C24.256 23.979 24.306 24.031 24.368 24.03C24.3977 24.0292 24.426 24.0171 24.4471 23.9961C24.4681 23.975 24.4803 23.9467 24.481 23.917V23.91C24.479 23.8813 24.4662 23.8545 24.4453 23.8348C24.4243 23.8152 24.3967 23.8042 24.368 23.804ZM24.93 23.804C24.9 23.804 24.8713 23.8159 24.8501 23.8371C24.8289 23.8583 24.817 23.887 24.817 23.917C24.817 23.979 24.868 24.031 24.93 24.03C24.9599 24.0295 24.9885 24.0174 25.0097 23.9964C25.031 23.9753 25.0432 23.9469 25.044 23.917V23.91C25.042 23.8812 25.0291 23.8542 25.0079 23.8345C24.9868 23.8148 24.9589 23.8039 24.93 23.804ZM25.49 23.804C25.4605 23.8045 25.4324 23.8167 25.4118 23.8379C25.3912 23.859 25.3797 23.8875 25.38 23.917C25.38 23.978 25.43 24.03 25.49 24.03C25.5201 24.03 25.5489 24.0181 25.5703 23.997C25.5916 23.9758 25.6038 23.9471 25.604 23.917V23.91C25.6025 23.8812 25.5899 23.8541 25.5688 23.8343C25.5477 23.8146 25.5199 23.8037 25.491 23.804H25.49ZM26.053 23.804C26.0383 23.8041 26.0238 23.8071 26.0102 23.8129C25.9967 23.8186 25.9844 23.827 25.9741 23.8375C25.9638 23.848 25.9557 23.8604 25.9502 23.8741C25.9446 23.8877 25.9419 23.9023 25.942 23.917C25.942 23.978 25.992 24.03 26.053 24.03C26.0829 24.0297 26.1115 24.0177 26.1326 23.9966C26.1538 23.9755 26.1658 23.9469 26.166 23.917V23.91C26.1645 23.8812 26.1519 23.8541 26.1308 23.8343C26.1097 23.8146 26.0819 23.8037 26.053 23.804ZM26.616 23.804C26.6012 23.804 26.5866 23.8069 26.5729 23.8126C26.5593 23.8183 26.5469 23.8266 26.5365 23.8371C26.526 23.8477 26.5178 23.8601 26.5123 23.8738C26.5067 23.8875 26.5039 23.9022 26.504 23.917C26.504 23.978 26.554 24.03 26.616 24.03C26.6461 24.0297 26.6749 24.0178 26.6964 23.9967C26.7178 23.9757 26.7302 23.9471 26.731 23.917V23.91C26.729 23.881 26.7159 23.8539 26.6946 23.8342C26.6732 23.8145 26.6451 23.8037 26.616 23.804ZM27.178 23.804C27.1633 23.8041 27.1488 23.8071 27.1352 23.8129C27.1217 23.8186 27.1094 23.827 27.0991 23.8375C27.0888 23.848 27.0807 23.8604 27.0752 23.8741C27.0696 23.8877 27.0669 23.9023 27.067 23.917C27.067 23.978 27.117 24.03 27.178 24.03C27.2083 24.03 27.2373 24.0182 27.259 23.9971C27.2807 23.976 27.2932 23.9472 27.294 23.917C27.2939 23.9019 27.2908 23.8871 27.2849 23.8732C27.2789 23.8594 27.2704 23.8468 27.2596 23.8363C27.2488 23.8258 27.236 23.8175 27.222 23.812C27.208 23.8064 27.1931 23.8037 27.178 23.804ZM28.303 23.804C28.2883 23.804 28.2737 23.8069 28.2601 23.8126C28.2465 23.8183 28.2341 23.8267 28.2238 23.8372C28.2135 23.8477 28.2053 23.8602 28.1999 23.8739C28.1944 23.8876 28.1917 23.9022 28.192 23.917C28.192 23.979 28.242 24.031 28.303 24.03C28.3327 24.0292 28.361 24.0171 28.3821 23.9961C28.4031 23.975 28.4153 23.9467 28.416 23.917V23.91C28.414 23.8813 28.4012 23.8545 28.3803 23.8348C28.3593 23.8152 28.3317 23.8042 28.303 23.804ZM28.866 23.804C28.8511 23.8039 28.8363 23.8067 28.8225 23.8123C28.8086 23.8179 28.7961 23.8262 28.7855 23.8367C28.7749 23.8472 28.7665 23.8597 28.7607 23.8735C28.755 23.8873 28.752 23.9021 28.752 23.917C28.752 23.979 28.804 24.031 28.866 24.03C28.8957 24.0292 28.924 24.0171 28.9451 23.9961C28.9661 23.975 28.9783 23.9467 28.979 23.917V23.91C28.977 23.8813 28.9642 23.8545 28.9433 23.8348C28.9223 23.8152 28.8947 23.8042 28.866 23.804ZM29.428 23.804C29.398 23.804 29.3693 23.8159 29.3481 23.8371C29.3269 23.8583 29.315 23.887 29.315 23.917C29.315 23.979 29.366 24.031 29.428 24.03C29.4577 24.0292 29.486 24.0171 29.5071 23.9961C29.5281 23.975 29.5403 23.9467 29.541 23.917V23.91C29.539 23.8813 29.5262 23.8545 29.5053 23.8348C29.4843 23.8152 29.4567 23.8042 29.428 23.804ZM29.988 23.804C29.9586 23.8048 29.9306 23.817 29.91 23.8381C29.8895 23.8592 29.878 23.8875 29.878 23.917C29.878 23.978 29.928 24.03 29.988 24.03C30.0181 24.03 30.0469 24.0181 30.0683 23.997C30.0896 23.9758 30.1017 23.9471 30.102 23.917V23.91C30.1005 23.8812 30.0879 23.8541 30.0668 23.8343C30.0457 23.8146 30.0179 23.8037 29.989 23.804H29.988ZM30.551 23.804C30.5214 23.8045 30.4932 23.8167 30.4724 23.8378C30.4516 23.8589 30.44 23.8874 30.44 23.917C30.44 23.978 30.49 24.03 30.551 24.03C30.5813 24.03 30.6103 24.0182 30.632 23.9971C30.6537 23.976 30.6662 23.9472 30.667 23.917V23.91C30.665 23.8808 30.6518 23.8535 30.6302 23.8338C30.6086 23.8141 30.5803 23.8034 30.551 23.804ZM31.114 23.804C31.0842 23.8043 31.0557 23.8163 31.0348 23.8374C31.0138 23.8586 31.002 23.8872 31.002 23.917C31.002 23.978 31.052 24.03 31.114 24.03C31.1441 24.0297 31.1729 24.0178 31.1944 23.9967C31.2158 23.9757 31.2282 23.9471 31.229 23.917V23.91C31.227 23.881 31.2139 23.8539 31.1926 23.8342C31.1712 23.8145 31.1431 23.8037 31.114 23.804ZM32.801 23.804C32.771 23.804 32.7423 23.8159 32.7211 23.8371C32.6999 23.8583 32.688 23.887 32.688 23.917C32.688 23.979 32.739 24.031 32.801 24.03C32.8307 24.0292 32.859 24.0171 32.8801 23.9961C32.9011 23.975 32.9133 23.9467 32.914 23.917V23.91C32.912 23.8813 32.8992 23.8545 32.8783 23.8348C32.8573 23.8152 32.8297 23.8042 32.801 23.804ZM33.364 23.804C33.334 23.804 33.3053 23.8159 33.2841 23.8371C33.2629 23.8583 33.251 23.887 33.251 23.917C33.251 23.979 33.301 24.031 33.364 24.03C33.3937 24.0292 33.422 24.0171 33.4431 23.9961C33.4641 23.975 33.4763 23.9467 33.477 23.917V23.91C33.475 23.8813 33.4622 23.8545 33.4413 23.8348C33.4203 23.8152 33.3927 23.8042 33.364 23.804ZM33.926 23.804C33.9113 23.804 33.8967 23.8069 33.8831 23.8126C33.8695 23.8183 33.8571 23.8267 33.8468 23.8372C33.8365 23.8477 33.8283 23.8602 33.8229 23.8739C33.8174 23.8876 33.8147 23.9022 33.815 23.917C33.815 23.979 33.865 24.031 33.926 24.03C33.9557 24.0292 33.984 24.0171 34.0051 23.9961C34.0261 23.975 34.0383 23.9467 34.039 23.917V23.91C34.037 23.8813 34.0242 23.8545 34.0033 23.8348C33.9823 23.8152 33.9547 23.8042 33.926 23.804ZM34.486 23.804C34.4565 23.8045 34.4284 23.8167 34.4078 23.8379C34.3871 23.859 34.3757 23.8875 34.376 23.917C34.376 23.978 34.426 24.03 34.486 24.03C34.5161 24.03 34.5449 24.0181 34.5663 23.997C34.5876 23.9758 34.5997 23.9471 34.6 23.917V23.91C34.5985 23.8812 34.5858 23.8541 34.5648 23.8343C34.5437 23.8146 34.5159 23.8037 34.487 23.804H34.486ZM16.102 26.634C15.8886 26.6287 15.6763 26.6661 15.4775 26.7441C15.2788 26.822 15.0977 26.939 14.9449 27.0881C14.792 27.2371 14.6706 27.4153 14.5877 27.612C14.5047 27.8087 14.462 28.02 14.462 28.2335C14.462 28.447 14.5047 28.6583 14.5877 28.855C14.6706 29.0517 14.792 29.2299 14.9449 29.3789C15.0977 29.528 15.2788 29.6449 15.4775 29.7229C15.6763 29.8009 15.8886 29.8383 16.102 29.833C16.5264 29.833 16.9333 29.6644 17.2334 29.3644C17.5334 29.0643 17.702 28.6573 17.702 28.233C17.702 27.8086 17.5334 27.4017 17.2334 27.1016C16.9333 26.8016 16.5264 26.633 16.102 26.633V26.634ZM20.102 26.634C19.8886 26.6287 19.6763 26.6661 19.4775 26.7441C19.2788 26.822 19.0977 26.939 18.9449 27.0881C18.792 27.2371 18.6706 27.4153 18.5877 27.612C18.5047 27.8087 18.462 28.02 18.462 28.2335C18.462 28.447 18.5047 28.6583 18.5877 28.855C18.6706 29.0517 18.792 29.2299 18.9449 29.3789C19.0977 29.528 19.2788 29.6449 19.4775 29.7229C19.6763 29.8009 19.8886 29.8383 20.102 29.833C20.5264 29.833 20.9333 29.6644 21.2334 29.3644C21.5334 29.0643 21.702 28.6573 21.702 28.233C21.702 27.8086 21.5334 27.4017 21.2334 27.1016C20.9333 26.8016 20.5264 26.633 20.102 26.633V26.634ZM24.102 26.634C23.8886 26.6287 23.6763 26.6661 23.4775 26.7441C23.2788 26.822 23.0977 26.939 22.9449 27.0881C22.792 27.2371 22.6706 27.4153 22.5877 27.612C22.5047 27.8087 22.462 28.02 22.462 28.2335C22.462 28.447 22.5047 28.6583 22.5877 28.855C22.6706 29.0517 22.792 29.2299 22.9449 29.3789C23.0977 29.528 23.2788 29.6449 23.4775 29.7229C23.6763 29.8009 23.8886 29.8383 24.102 29.833C24.5264 29.833 24.9333 29.6644 25.2334 29.3644C25.5334 29.0643 25.702 28.6573 25.702 28.233C25.702 27.8086 25.5334 27.4017 25.2334 27.1016C24.9333 26.8016 24.5264 26.633 24.102 26.633V26.634ZM28.102 26.634C27.8886 26.6287 27.6763 26.6661 27.4775 26.7441C27.2788 26.822 27.0977 26.939 26.9449 27.0881C26.792 27.2371 26.6706 27.4153 26.5877 27.612C26.5047 27.8087 26.462 28.02 26.462 28.2335C26.462 28.447 26.5047 28.6583 26.5877 28.855C26.6706 29.0517 26.792 29.2299 26.9449 29.3789C27.0977 29.528 27.2788 29.6449 27.4775 29.7229C27.6763 29.8009 27.8886 29.8383 28.102 29.833C28.5264 29.833 28.9333 29.6644 29.2334 29.3644C29.5334 29.0643 29.702 28.6573 29.702 28.233C29.702 27.8086 29.5334 27.4017 29.2334 27.1016C28.9333 26.8016 28.5264 26.633 28.102 26.633V26.634ZM32.102 26.634C31.8886 26.6287 31.6763 26.6661 31.4775 26.7441C31.2788 26.822 31.0977 26.939 30.9449 27.0881C30.792 27.2371 30.6706 27.4153 30.5877 27.612C30.5047 27.8087 30.462 28.02 30.462 28.2335C30.462 28.447 30.5047 28.6583 30.5877 28.855C30.6706 29.0517 30.792 29.2299 30.9449 29.3789C31.0977 29.528 31.2788 29.6449 31.4775 29.7229C31.6763 29.8009 31.8886 29.8383 32.102 29.833C32.5264 29.833 32.9333 29.6644 33.2334 29.3644C33.5334 29.0643 33.702 28.6573 33.702 28.233C33.702 27.8086 33.5334 27.4017 33.2334 27.1016C32.9333 26.8016 32.5264 26.633 32.102 26.633V26.634ZM14.247 32.802C14.217 32.8025 14.1883 32.8149 14.1673 32.8364C14.1464 32.858 14.1347 32.8869 14.135 32.917C14.135 32.978 14.185 33.03 14.247 33.03C14.2767 33.0292 14.305 33.0171 14.3261 32.9961C14.3471 32.975 14.3593 32.9467 14.36 32.917V32.898C14.3555 32.8714 14.3416 32.8473 14.3209 32.8301C14.3002 32.8129 14.274 32.8036 14.247 32.804V32.802ZM14.809 32.802C14.7942 32.8022 14.7795 32.8054 14.7659 32.8114C14.7523 32.8173 14.74 32.8258 14.7297 32.8365C14.7194 32.8472 14.7113 32.8598 14.7058 32.8736C14.7004 32.8874 14.6977 32.9022 14.698 32.917C14.698 32.979 14.748 33.031 14.809 33.03C14.8387 33.0292 14.867 33.0171 14.8881 32.9961C14.9091 32.975 14.9213 32.9467 14.922 32.917V32.898C14.9175 32.8714 14.9036 32.8473 14.8829 32.8301C14.8622 32.8129 14.836 32.8036 14.809 32.804V32.802ZM18.745 32.802C18.715 32.8025 18.6863 32.8149 18.6653 32.8364C18.6444 32.858 18.6327 32.8869 18.633 32.917C18.633 32.978 18.683 33.03 18.745 33.03C18.7747 33.0292 18.803 33.0171 18.8241 32.9961C18.8451 32.975 18.8573 32.9467 18.858 32.917V32.898C18.8535 32.8714 18.8396 32.8473 18.8189 32.8301C18.7982 32.8129 18.772 32.8036 18.745 32.804V32.802ZM23.243 32.802C23.213 32.8025 23.1843 32.8149 23.1633 32.8364C23.1424 32.858 23.1307 32.8869 23.131 32.917C23.131 32.978 23.181 33.03 23.243 33.03C23.2727 33.0292 23.301 33.0171 23.3221 32.9961C23.3431 32.975 23.3553 32.9467 23.356 32.917V32.898C23.3515 32.8714 23.3376 32.8473 23.3169 32.8301C23.2962 32.8129 23.27 32.8036 23.243 32.804V32.802ZM23.805 32.802C23.79 32.8021 23.7752 32.8052 23.7615 32.8111C23.7477 32.8169 23.7352 32.8254 23.7247 32.8361C23.7142 32.8468 23.7059 32.8594 23.7003 32.8733C23.6947 32.8872 23.6919 32.902 23.692 32.917C23.692 32.979 23.743 33.031 23.805 33.03C23.866 33.03 23.915 32.978 23.916 32.917V32.898C23.9121 32.8717 23.8989 32.8476 23.8786 32.8304C23.8584 32.8131 23.8326 32.8037 23.806 32.804V32.802H23.805ZM27.741 32.802C27.711 32.8025 27.6823 32.8149 27.6613 32.8364C27.6404 32.858 27.6287 32.8869 27.629 32.917C27.629 32.978 27.679 33.03 27.741 33.03C27.7707 33.0292 27.799 33.0171 27.8201 32.9961C27.8411 32.975 27.8533 32.9467 27.854 32.917V32.898C27.8495 32.8714 27.8356 32.8473 27.8149 32.8301C27.7942 32.8129 27.768 32.8036 27.741 32.804V32.802ZM31.676 32.802C31.6461 32.8028 31.6177 32.8153 31.597 32.8368C31.5762 32.8583 31.5647 32.8871 31.565 32.917C31.565 32.978 31.615 33.03 31.676 33.03C31.7059 33.0295 31.7345 33.0175 31.7557 32.9964C31.777 32.9753 31.7892 32.9469 31.79 32.917V32.898C31.7855 32.8712 31.7714 32.847 31.7505 32.8298C31.7296 32.8125 31.7031 32.8034 31.676 32.804V32.802ZM32.239 32.802C32.2241 32.8021 32.2093 32.8052 32.1956 32.8111C32.1819 32.8169 32.1695 32.8255 32.159 32.8361C32.1486 32.8468 32.1404 32.8595 32.1349 32.8734C32.1294 32.8872 32.1267 32.9021 32.127 32.917C32.127 32.979 32.177 33.031 32.239 33.03C32.2687 33.0292 32.297 33.0171 32.3181 32.9961C32.3391 32.975 32.3513 32.9467 32.352 32.917V32.898C32.3475 32.8714 32.3336 32.8473 32.3129 32.8301C32.2922 32.8129 32.266 32.8036 32.239 32.804V32.802ZM13.684 32.804C13.6693 32.8041 13.6548 32.8072 13.6412 32.8129C13.6277 32.8186 13.6154 32.827 13.6051 32.8375C13.5948 32.848 13.5867 32.8604 13.5812 32.8741C13.5756 32.8877 13.5729 32.9023 13.573 32.917C13.573 32.978 13.623 33.03 13.684 33.031C13.7141 33.0307 13.7428 33.0186 13.764 32.9972C13.7851 32.9759 13.797 32.9471 13.797 32.917C13.797 32.887 13.7851 32.8583 13.7639 32.8371C13.7427 32.8159 13.714 32.804 13.684 32.804ZM15.372 32.804C15.3571 32.8037 15.3424 32.8065 15.3286 32.8121C15.3148 32.8176 15.3023 32.826 15.2918 32.8365C15.2814 32.8471 15.2732 32.8597 15.2677 32.8735C15.2622 32.8873 15.2596 32.9021 15.26 32.917C15.26 32.979 15.31 33.031 15.372 33.031C15.4019 33.0302 15.4304 33.0179 15.4514 32.9967C15.4725 32.9755 15.4845 32.9469 15.485 32.917V32.91C15.483 32.8813 15.4702 32.8545 15.4493 32.8348C15.4283 32.8152 15.4007 32.8042 15.372 32.804ZM15.934 32.804C15.9192 32.8039 15.9046 32.8067 15.8909 32.8124C15.8772 32.818 15.8649 32.8264 15.8545 32.8369C15.8441 32.8475 15.836 32.86 15.8306 32.8737C15.8252 32.8875 15.8226 32.9022 15.823 32.917C15.823 32.979 15.873 33.031 15.934 33.031C15.9639 33.0302 15.9924 33.0179 16.0134 32.9967C16.0345 32.9755 16.0465 32.9469 16.047 32.917V32.91C16.045 32.8813 16.0322 32.8545 16.0113 32.8348C15.9903 32.8152 15.9627 32.8042 15.934 32.804ZM16.497 32.804C16.4821 32.8037 16.4674 32.8065 16.4536 32.8121C16.4398 32.8176 16.4273 32.826 16.4168 32.8365C16.4064 32.8471 16.3982 32.8597 16.3927 32.8735C16.3872 32.8873 16.3846 32.9021 16.385 32.917C16.385 32.979 16.435 33.031 16.497 33.031C16.5269 33.0302 16.5554 33.0179 16.5764 32.9967C16.5975 32.9755 16.6095 32.9469 16.61 32.917V32.91C16.608 32.8813 16.5952 32.8545 16.5743 32.8348C16.5533 32.8152 16.5257 32.8042 16.497 32.804ZM17.057 32.804C17.0287 32.8066 17.0025 32.8198 16.9834 32.8407C16.9643 32.8617 16.9537 32.8891 16.9537 32.9175C16.9537 32.9459 16.9643 32.9732 16.9834 32.9942C17.0025 33.0152 17.0287 33.0283 17.057 33.031C17.0871 33.0307 17.1158 33.0186 17.137 32.9972C17.1581 32.9759 17.17 32.9471 17.17 32.917V32.91C17.1685 32.8812 17.1559 32.854 17.1348 32.8343C17.1137 32.8146 17.0859 32.8037 17.057 32.804ZM17.62 32.804C17.5918 32.8066 17.5655 32.8198 17.5464 32.8407C17.5273 32.8617 17.5167 32.8891 17.5167 32.9175C17.5167 32.9459 17.5273 32.9732 17.5464 32.9942C17.5655 33.0152 17.5918 33.0283 17.62 33.031C17.6501 33.0307 17.6788 33.0186 17.7 32.9972C17.7211 32.9759 17.733 32.9471 17.733 32.917V32.91C17.7315 32.8812 17.7189 32.854 17.6978 32.8343C17.6767 32.8146 17.6489 32.8037 17.62 32.804ZM18.182 32.804C18.1537 32.8066 18.1275 32.8198 18.1084 32.8407C18.0893 32.8617 18.0787 32.8891 18.0787 32.9175C18.0787 32.9459 18.0893 32.9732 18.1084 32.9942C18.1275 33.0152 18.1537 33.0283 18.182 33.031C18.2121 33.0307 18.2408 33.0186 18.262 32.9972C18.2831 32.9759 18.295 32.9471 18.295 32.917V32.91C18.2935 32.8812 18.2809 32.854 18.2598 32.8343C18.2387 32.8146 18.2109 32.8037 18.182 32.804ZM19.307 32.804C19.2923 32.804 19.2777 32.8069 19.2641 32.8126C19.2505 32.8183 19.2381 32.8267 19.2278 32.8372C19.2175 32.8477 19.2093 32.8602 19.2039 32.8739C19.1984 32.8876 19.1957 32.9022 19.196 32.917C19.196 32.979 19.246 33.031 19.307 33.031C19.3369 33.0302 19.3654 33.0179 19.3864 32.9967C19.4075 32.9755 19.4195 32.9469 19.42 32.917V32.91C19.418 32.8813 19.4052 32.8545 19.3843 32.8348C19.3633 32.8152 19.3357 32.8042 19.307 32.804ZM19.87 32.804C19.8552 32.8039 19.8405 32.8067 19.8268 32.8123C19.813 32.818 19.8006 32.8263 19.7902 32.8368C19.7797 32.8474 19.7715 32.8599 19.766 32.8737C19.7605 32.8874 19.7577 32.9022 19.758 32.917C19.758 32.979 19.808 33.031 19.87 33.031C19.8999 33.0302 19.9284 33.0179 19.9494 32.9967C19.9705 32.9755 19.9825 32.9469 19.983 32.917V32.91C19.981 32.8813 19.9682 32.8545 19.9473 32.8348C19.9263 32.8152 19.8987 32.8042 19.87 32.804ZM20.432 32.804C20.4173 32.804 20.4027 32.8069 20.3891 32.8126C20.3755 32.8183 20.3631 32.8267 20.3528 32.8372C20.3425 32.8477 20.3343 32.8602 20.3289 32.8739C20.3234 32.8876 20.3207 32.9022 20.321 32.917C20.321 32.979 20.371 33.031 20.432 33.031C20.4619 33.0302 20.4904 33.0179 20.5114 32.9967C20.5325 32.9755 20.5445 32.9469 20.545 32.917V32.91C20.543 32.8813 20.5302 32.8545 20.5093 32.8348C20.4883 32.8152 20.4607 32.8042 20.432 32.804ZM20.995 32.804C20.9802 32.8039 20.9655 32.8067 20.9518 32.8123C20.938 32.818 20.9256 32.8263 20.9152 32.8368C20.9047 32.8474 20.8965 32.8599 20.891 32.8737C20.8855 32.8874 20.8827 32.9022 20.883 32.917C20.883 32.979 20.933 33.031 20.995 33.031C21.0249 33.0302 21.0534 33.0179 21.0744 32.9967C21.0955 32.9755 21.1075 32.9469 21.108 32.917V32.91C21.106 32.8813 21.0932 32.8545 21.0723 32.8348C21.0513 32.8152 21.0237 32.8042 20.995 32.804ZM21.555 32.804C21.5254 32.8045 21.4972 32.8167 21.4764 32.8378C21.4556 32.8589 21.444 32.8874 21.444 32.917C21.444 32.978 21.494 33.03 21.555 33.031C21.5852 33.031 21.6142 33.019 21.6356 32.9976C21.657 32.9762 21.669 32.9472 21.669 32.917V32.91C21.6675 32.881 21.6547 32.8537 21.6334 32.834C21.6122 32.8142 21.5841 32.8034 21.555 32.804ZM22.118 32.804C22.0882 32.8043 22.0597 32.8163 22.0388 32.8374C22.0178 32.8586 22.006 32.8872 22.006 32.917C22.006 32.978 22.056 33.03 22.118 33.031C22.1481 33.0307 22.1768 33.0186 22.198 32.9972C22.2191 32.9759 22.231 32.9471 22.231 32.917V32.91C22.2295 32.8812 22.2169 32.854 22.1958 32.8343C22.1747 32.8146 22.1469 32.8037 22.118 32.804ZM22.68 32.804C22.6653 32.804 22.6508 32.8069 22.6372 32.8126C22.6237 32.8184 22.6114 32.8267 22.6012 32.8373C22.5909 32.8478 22.5829 32.8603 22.5775 32.874C22.5722 32.8877 22.5696 32.9023 22.57 32.917C22.571 32.978 22.619 33.03 22.68 33.031C22.7102 33.031 22.7392 33.019 22.7606 32.9976C22.782 32.9762 22.794 32.9472 22.794 32.917C22.794 32.9021 22.7911 32.8873 22.7853 32.8735C22.7796 32.8597 22.7712 32.8472 22.7606 32.8367C22.75 32.8262 22.7374 32.8179 22.7236 32.8123C22.7097 32.8067 22.6949 32.8039 22.68 32.804ZM24.368 32.804C24.3532 32.8039 24.3385 32.8067 24.3248 32.8123C24.311 32.818 24.2986 32.8263 24.2882 32.8368C24.2777 32.8474 24.2695 32.8599 24.264 32.8737C24.2585 32.8874 24.2557 32.9022 24.256 32.917C24.256 32.979 24.306 33.031 24.368 33.031C24.3979 33.0302 24.4264 33.0179 24.4474 32.9967C24.4685 32.9755 24.4805 32.9469 24.481 32.917V32.91C24.479 32.8813 24.4662 32.8545 24.4453 32.8348C24.4243 32.8152 24.3967 32.8042 24.368 32.804ZM24.93 32.804C24.9 32.804 24.8713 32.8159 24.8501 32.8371C24.8289 32.8583 24.817 32.887 24.817 32.917C24.817 32.979 24.868 33.031 24.93 33.031C24.9601 33.0305 24.9888 33.0183 25.0101 32.997C25.0313 32.9758 25.0435 32.9471 25.044 32.917V32.91C25.042 32.8812 25.0291 32.8542 25.0079 32.8345C24.9868 32.8148 24.9589 32.8039 24.93 32.804ZM25.49 32.804C25.4605 32.8045 25.4324 32.8167 25.4118 32.8379C25.3912 32.859 25.3797 32.8875 25.38 32.917C25.38 32.978 25.43 33.03 25.49 33.031C25.5202 33.031 25.5492 33.019 25.5706 32.9976C25.592 32.9762 25.604 32.9472 25.604 32.917V32.91C25.6025 32.8812 25.5899 32.854 25.5688 32.8343C25.5477 32.8146 25.5199 32.8037 25.491 32.804H25.49ZM26.053 32.804C26.0247 32.8066 25.9985 32.8198 25.9794 32.8407C25.9603 32.8617 25.9497 32.8891 25.9497 32.9175C25.9497 32.9459 25.9603 32.9732 25.9794 32.9942C25.9985 33.0152 26.0247 33.0283 26.053 33.031C26.0831 33.0307 26.1118 33.0186 26.133 32.9972C26.1541 32.9759 26.166 32.9471 26.166 32.917V32.91C26.1645 32.8812 26.1519 32.854 26.1308 32.8343C26.1097 32.8146 26.0819 32.8037 26.053 32.804ZM26.616 32.804C26.5877 32.8066 26.5615 32.8198 26.5424 32.8407C26.5233 32.8617 26.5127 32.8891 26.5127 32.9175C26.5127 32.9459 26.5233 32.9732 26.5424 32.9942C26.5615 33.0152 26.5877 33.0283 26.616 33.031C26.6463 33.0307 26.6752 33.0187 26.6967 32.9974C26.7182 32.9761 26.7305 32.9472 26.731 32.917V32.91C26.729 32.881 26.7159 32.8539 26.6946 32.8342C26.6732 32.8145 26.6451 32.8037 26.616 32.804ZM27.178 32.804C27.1633 32.8041 27.1488 32.8072 27.1352 32.8129C27.1217 32.8186 27.1094 32.827 27.0991 32.8375C27.0888 32.848 27.0807 32.8604 27.0752 32.8741C27.0696 32.8877 27.0669 32.9023 27.067 32.917C27.067 32.978 27.117 33.03 27.178 33.031C27.2084 33.031 27.2376 33.0191 27.2593 32.9977C27.281 32.9764 27.2935 32.9474 27.294 32.917C27.2939 32.9019 27.2908 32.8871 27.2849 32.8732C27.2789 32.8594 27.2704 32.8468 27.2596 32.8363C27.2488 32.8258 27.236 32.8175 27.222 32.812C27.208 32.8064 27.1931 32.8037 27.178 32.804ZM28.303 32.804C28.2883 32.804 28.2737 32.8069 28.2601 32.8126C28.2465 32.8183 28.2341 32.8267 28.2238 32.8372C28.2135 32.8477 28.2053 32.8602 28.1999 32.8739C28.1944 32.8876 28.1917 32.9022 28.192 32.917C28.192 32.979 28.242 33.031 28.303 33.031C28.3329 33.0302 28.3614 33.0179 28.3824 32.9967C28.4035 32.9755 28.4155 32.9469 28.416 32.917V32.91C28.414 32.8813 28.4012 32.8545 28.3803 32.8348C28.3593 32.8152 28.3317 32.8042 28.303 32.804ZM28.866 32.804C28.8511 32.8039 28.8363 32.8067 28.8225 32.8123C28.8086 32.8179 28.7961 32.8262 28.7855 32.8367C28.7749 32.8472 28.7665 32.8597 28.7607 32.8735C28.755 32.8873 28.752 32.9021 28.752 32.917C28.752 32.979 28.804 33.031 28.866 33.031C28.8959 33.0302 28.9244 33.0179 28.9454 32.9967C28.9665 32.9755 28.9785 32.9469 28.979 32.917V32.91C28.977 32.8813 28.9642 32.8545 28.9433 32.8348C28.9223 32.8152 28.8947 32.8042 28.866 32.804ZM29.428 32.804C29.398 32.804 29.3693 32.8159 29.3481 32.8371C29.3269 32.8583 29.315 32.887 29.315 32.917C29.315 32.979 29.366 33.031 29.428 33.031C29.4579 33.0302 29.4864 33.0179 29.5074 32.9967C29.5285 32.9755 29.5405 32.9469 29.541 32.917V32.91C29.539 32.8813 29.5262 32.8545 29.5053 32.8348C29.4843 32.8152 29.4567 32.8042 29.428 32.804ZM29.988 32.804C29.9586 32.8048 29.9306 32.817 29.91 32.8381C29.8895 32.8592 29.878 32.8875 29.878 32.917C29.878 32.978 29.928 33.03 29.988 33.031C30.0182 33.031 30.0472 33.019 30.0686 32.9976C30.09 32.9762 30.102 32.9472 30.102 32.917V32.91C30.1005 32.8812 30.0879 32.854 30.0668 32.8343C30.0457 32.8146 30.0179 32.8037 29.989 32.804H29.988ZM30.551 32.804C30.5214 32.8045 30.4932 32.8167 30.4724 32.8378C30.4516 32.8589 30.44 32.8874 30.44 32.917C30.44 32.978 30.49 33.03 30.551 33.031C30.5814 33.031 30.6106 33.0191 30.6323 32.9977C30.654 32.9764 30.6665 32.9474 30.667 32.917V32.91C30.665 32.8808 30.6518 32.8535 30.6302 32.8338C30.6086 32.8141 30.5803 32.8034 30.551 32.804ZM31.114 32.804C31.0842 32.8043 31.0557 32.8163 31.0348 32.8374C31.0138 32.8586 31.002 32.8872 31.002 32.917C31.002 32.978 31.052 33.03 31.114 33.031C31.1443 33.0307 31.1732 33.0187 31.1947 32.9974C31.2162 32.9761 31.2285 32.9472 31.229 32.917V32.91C31.227 32.881 31.2139 32.8539 31.1926 32.8342C31.1712 32.8145 31.1431 32.8037 31.114 32.804ZM32.801 32.804C32.771 32.804 32.7423 32.8159 32.7211 32.8371C32.6999 32.8583 32.688 32.887 32.688 32.917C32.688 32.979 32.739 33.031 32.801 33.031C32.8309 33.0302 32.8594 33.0179 32.8804 32.9967C32.9015 32.9755 32.9135 32.9469 32.914 32.917V32.91C32.912 32.8813 32.8992 32.8545 32.8783 32.8348C32.8573 32.8152 32.8297 32.8042 32.801 32.804ZM33.364 32.804C33.334 32.804 33.3053 32.8159 33.2841 32.8371C33.2629 32.8583 33.251 32.887 33.251 32.917C33.251 32.979 33.301 33.031 33.364 33.031C33.394 33.0305 33.4226 33.0183 33.4437 32.997C33.4648 32.9757 33.4768 32.947 33.477 32.917V32.91C33.475 32.8813 33.4622 32.8545 33.4413 32.8348C33.4203 32.8152 33.3927 32.8042 33.364 32.804ZM33.926 32.804C33.9113 32.804 33.8967 32.8069 33.8831 32.8126C33.8695 32.8183 33.8571 32.8267 33.8468 32.8372C33.8365 32.8477 33.8283 32.8602 33.8229 32.8739C33.8174 32.8876 33.8147 32.9022 33.815 32.917C33.815 32.979 33.865 33.031 33.926 33.031C33.956 33.0305 33.9846 33.0183 34.0057 32.997C34.0268 32.9757 34.0388 32.947 34.039 32.917V32.91C34.037 32.8813 34.0242 32.8545 34.0033 32.8348C33.9823 32.8152 33.9547 32.8042 33.926 32.804ZM34.486 32.804C34.4577 32.8066 34.4315 32.8198 34.4124 32.8407C34.3933 32.8617 34.3827 32.8891 34.3827 32.9175C34.3827 32.9459 34.3933 32.9732 34.4124 32.9942C34.4315 33.0152 34.4577 33.0283 34.486 33.031C34.5162 33.031 34.5452 33.019 34.5666 32.9976C34.588 32.9762 34.6 32.9472 34.6 32.917V32.91C34.5985 32.8812 34.5858 32.854 34.5648 32.8343C34.5437 32.8146 34.5159 32.8037 34.487 32.804H34.486ZM16.103 35.3C15.8896 35.2947 15.6773 35.3321 15.4785 35.4101C15.2798 35.488 15.0987 35.605 14.9459 35.7541C14.793 35.9031 14.6716 36.0813 14.5887 36.278C14.5057 36.4747 14.463 36.686 14.463 36.8995C14.463 37.113 14.5057 37.3243 14.5887 37.521C14.6716 37.7177 14.793 37.8959 14.9459 38.0449C15.0987 38.194 15.2798 38.3109 15.4785 38.3889C15.6773 38.4669 15.8896 38.5043 16.103 38.499C16.5274 38.499 16.9343 38.3304 17.2344 38.0304C17.5344 37.7303 17.703 37.3233 17.703 36.899C17.703 36.4746 17.5344 36.0677 17.2344 35.7676C16.9343 35.4676 16.5274 35.299 16.103 35.299V35.3ZM20.103 35.3C19.8896 35.2947 19.6773 35.3321 19.4785 35.4101C19.2798 35.488 19.0987 35.605 18.9459 35.7541C18.793 35.9031 18.6716 36.0813 18.5887 36.278C18.5057 36.4747 18.463 36.686 18.463 36.8995C18.463 37.113 18.5057 37.3243 18.5887 37.521C18.6716 37.7177 18.793 37.8959 18.9459 38.0449C19.0987 38.194 19.2798 38.3109 19.4785 38.3889C19.6773 38.4669 19.8896 38.5043 20.103 38.499C20.5274 38.499 20.9343 38.3304 21.2344 38.0304C21.5344 37.7303 21.703 37.3233 21.703 36.899C21.703 36.4746 21.5344 36.0677 21.2344 35.7676C20.9343 35.4676 20.5274 35.299 20.103 35.299V35.3ZM24.103 35.3C23.8896 35.2947 23.6773 35.3321 23.4785 35.4101C23.2798 35.488 23.0987 35.605 22.9459 35.7541C22.793 35.9031 22.6716 36.0813 22.5887 36.278C22.5057 36.4747 22.463 36.686 22.463 36.8995C22.463 37.113 22.5057 37.3243 22.5887 37.521C22.6716 37.7177 22.793 37.8959 22.9459 38.0449C23.0987 38.194 23.2798 38.3109 23.4785 38.3889C23.6773 38.4669 23.8896 38.5043 24.103 38.499C24.5274 38.499 24.9343 38.3304 25.2344 38.0304C25.5344 37.7303 25.703 37.3233 25.703 36.899C25.703 36.4746 25.5344 36.0677 25.2344 35.7676C24.9343 35.4676 24.5274 35.299 24.103 35.299V35.3ZM28.103 35.3C27.8896 35.2947 27.6773 35.3321 27.4785 35.4101C27.2798 35.488 27.0987 35.605 26.9459 35.7541C26.793 35.9031 26.6716 36.0813 26.5887 36.278C26.5057 36.4747 26.463 36.686 26.463 36.8995C26.463 37.113 26.5057 37.3243 26.5887 37.521C26.6716 37.7177 26.793 37.8959 26.9459 38.0449C27.0987 38.194 27.2798 38.3109 27.4785 38.3889C27.6773 38.4669 27.8896 38.5043 28.103 38.499C28.5274 38.499 28.9343 38.3304 29.2344 38.0304C29.5344 37.7303 29.703 37.3233 29.703 36.899C29.703 36.4746 29.5344 36.0677 29.2344 35.7676C28.9343 35.4676 28.5274 35.299 28.103 35.299V35.3ZM32.103 35.3C31.8896 35.2947 31.6773 35.3321 31.4785 35.4101C31.2798 35.488 31.0987 35.605 30.9459 35.7541C30.793 35.9031 30.6716 36.0813 30.5887 36.278C30.5057 36.4747 30.463 36.686 30.463 36.8995C30.463 37.113 30.5057 37.3243 30.5887 37.521C30.6716 37.7177 30.793 37.8959 30.9459 38.0449C31.0987 38.194 31.2798 38.3109 31.4785 38.3889C31.6773 38.4669 31.8896 38.5043 32.103 38.499C32.5274 38.499 32.9343 38.3304 33.2344 38.0304C33.5344 37.7303 33.703 37.3233 33.703 36.899C33.703 36.4746 33.5344 36.0677 33.2344 35.7676C32.9343 35.4676 32.5274 35.299 32.103 35.299V35.3Z" fill="#333333"/>
</svg>
