<svg width="48" height="48" viewBox="0 0 48 48" fill="none" xmlns="http://www.w3.org/2000/svg">
<path fill-rule="evenodd" clip-rule="evenodd" d="M0.0889893 0.0939941V48.094H48.089V0.0939941H0.0889893ZM14.235 4.09399H33.94C34.81 4.09399 35.509 4.79399 35.509 5.66299V42.524C35.509 43.394 34.809 44.094 33.94 44.094H14.235C13.365 44.094 12.667 43.394 12.667 42.524V5.66299C12.667 4.79299 13.366 4.09399 14.235 4.09399ZM16.795 9.54499C16.3706 9.54499 15.9637 9.71356 15.6636 10.0136C15.3636 10.3137 15.195 10.7206 15.195 11.145C15.195 11.5693 15.3636 11.9763 15.6636 12.2764C15.9637 12.5764 16.3706 12.745 16.795 12.745C17.2193 12.745 17.6263 12.5764 17.9264 12.2764C18.2264 11.9763 18.395 11.5693 18.395 11.145C18.395 10.7206 18.2264 10.3137 17.9264 10.0136C17.6263 9.71356 17.2193 9.54499 16.795 9.54499ZM20.442 9.54499C20.2286 9.53966 20.0163 9.57708 19.8175 9.65507C19.6188 9.73305 19.4377 9.85001 19.2849 9.99907C19.132 10.1481 19.0106 10.3263 18.9276 10.523C18.8447 10.7197 18.802 10.931 18.802 11.1445C18.802 11.358 18.8447 11.5693 18.9276 11.766C19.0106 11.9627 19.132 12.1409 19.2849 12.2899C19.4377 12.439 19.6188 12.5559 19.8175 12.6339C20.0163 12.7119 20.2286 12.7493 20.442 12.744C20.8593 12.7336 21.256 12.5605 21.5474 12.2616C21.8389 11.9628 22.002 11.5619 22.002 11.1445C22.002 10.7271 21.8389 10.3262 21.5474 10.0274C21.256 9.72853 20.8593 9.55543 20.442 9.54499ZM24.089 9.54499C23.8756 9.53966 23.6632 9.57708 23.4645 9.65507C23.2658 9.73305 23.0847 9.85001 22.9319 9.99907C22.779 10.1481 22.6576 10.3263 22.5746 10.523C22.4917 10.7197 22.449 10.931 22.449 11.1445C22.449 11.358 22.4917 11.5693 22.5746 11.766C22.6576 11.9627 22.779 12.1409 22.9319 12.2899C23.0847 12.439 23.2658 12.5559 23.4645 12.6339C23.6632 12.7119 23.8756 12.7493 24.089 12.744C24.5063 12.7336 24.903 12.5605 25.1944 12.2616C25.4859 11.9628 25.649 11.5619 25.649 11.1445C25.649 10.7271 25.4859 10.3262 25.1944 10.0274C24.903 9.72853 24.5063 9.55543 24.089 9.54499ZM27.733 9.54499C27.5196 9.53966 27.3072 9.57708 27.1085 9.65507C26.9098 9.73305 26.7287 9.85001 26.5759 9.99907C26.423 10.1481 26.3016 10.3263 26.2186 10.523C26.1357 10.7197 26.093 10.931 26.093 11.1445C26.093 11.358 26.1357 11.5693 26.2186 11.766C26.3016 11.9627 26.423 12.1409 26.5759 12.2899C26.7287 12.439 26.9098 12.5559 27.1085 12.6339C27.3072 12.7119 27.5196 12.7493 27.733 12.744C28.1503 12.7336 28.547 12.5605 28.8384 12.2616C29.1299 11.9628 29.293 11.5619 29.293 11.1445C29.293 10.7271 29.1299 10.3262 28.8384 10.0274C28.547 9.72853 28.1503 9.55543 27.733 9.54499ZM31.38 9.54499C31.1666 9.53966 30.9543 9.57708 30.7555 9.65507C30.5568 9.73305 30.3757 9.85001 30.2229 9.99907C30.07 10.1481 29.9486 10.3263 29.8656 10.523C29.7827 10.7197 29.74 10.931 29.74 11.1445C29.74 11.358 29.7827 11.5693 29.8656 11.766C29.9486 11.9627 30.07 12.1409 30.2229 12.2899C30.3757 12.439 30.5568 12.5559 30.7555 12.6339C30.9543 12.7119 31.1666 12.7493 31.38 12.744C31.7973 12.7336 32.194 12.5605 32.4854 12.2616C32.7769 11.9628 32.94 11.5619 32.94 11.1445C32.94 10.7271 32.7769 10.3262 32.4854 10.0274C32.194 9.72853 31.7973 9.55543 31.38 9.54499ZM14.247 14.98C14.2171 14.9803 14.1885 14.9922 14.1674 15.0134C14.1462 15.0345 14.1343 15.0631 14.134 15.093C14.134 15.155 14.185 15.206 14.247 15.207C14.308 15.207 14.357 15.155 14.358 15.093C14.3586 15.0867 14.3586 15.0803 14.358 15.074C14.3539 15.0479 14.3405 15.0241 14.3203 15.007C14.3001 14.9899 14.2744 14.9807 14.248 14.981V14.98H14.247ZM14.81 14.98C14.7951 14.9799 14.7803 14.9827 14.7664 14.9883C14.7526 14.9939 14.74 15.0022 14.7294 15.0127C14.7188 15.0232 14.7104 15.0357 14.7047 15.0495C14.6989 15.0633 14.696 15.0781 14.696 15.093C14.696 15.155 14.748 15.207 14.81 15.207C14.87 15.207 14.92 15.155 14.92 15.093C14.9206 15.0867 14.9206 15.0803 14.92 15.074C14.9159 15.0479 14.9025 15.0241 14.8823 15.007C14.8621 14.9899 14.8364 14.9807 14.81 14.981V14.98ZM15.372 14.98C15.3416 14.98 15.3125 14.9921 15.291 15.0135C15.2696 15.035 15.2575 15.0641 15.2575 15.0945C15.2575 15.1249 15.2696 15.154 15.291 15.1755C15.3125 15.1969 15.3416 15.209 15.372 15.209C15.3873 15.2086 15.4024 15.2052 15.4164 15.1988C15.4303 15.1925 15.4429 15.1834 15.4532 15.1721C15.4636 15.1608 15.4716 15.1475 15.4767 15.1331C15.4818 15.1186 15.4839 15.1033 15.483 15.088C15.4815 15.0597 15.4693 15.033 15.4489 15.0133C15.4285 14.9937 15.4013 14.9825 15.373 14.982V14.98H15.372ZM15.935 14.98C15.9046 14.98 15.8755 14.9921 15.854 15.0135C15.8326 15.035 15.8205 15.0641 15.8205 15.0945C15.8205 15.1249 15.8326 15.154 15.854 15.1755C15.8755 15.1969 15.9046 15.209 15.935 15.209C15.9502 15.2085 15.9652 15.2049 15.9791 15.1985C15.9929 15.1921 16.0053 15.183 16.0156 15.1717C16.0258 15.1605 16.0337 15.1472 16.0388 15.1328C16.0438 15.1185 16.0459 15.1032 16.045 15.088C16.0435 15.0597 16.0313 15.033 16.0109 15.0133C15.9905 14.9937 15.9633 14.9825 15.935 14.982V14.98ZM16.497 14.98C16.4666 14.98 16.4375 14.9921 16.416 15.0135C16.3946 15.035 16.3825 15.0641 16.3825 15.0945C16.3825 15.1249 16.3946 15.154 16.416 15.1755C16.4375 15.1969 16.4666 15.209 16.497 15.209C16.5123 15.2086 16.5274 15.2052 16.5414 15.1988C16.5553 15.1925 16.5679 15.1834 16.5782 15.1721C16.5886 15.1608 16.5966 15.1475 16.6017 15.1331C16.6068 15.1186 16.6089 15.1033 16.608 15.088C16.6065 15.0597 16.5943 15.033 16.5739 15.0133C16.5534 14.9937 16.5263 14.9825 16.498 14.982V14.98H16.497ZM17.057 14.98C17.0273 14.981 16.9991 14.9936 16.9786 15.0151C16.9581 15.0366 16.9467 15.0653 16.947 15.095C16.947 15.157 16.996 15.208 17.057 15.209C17.0726 15.209 17.088 15.2059 17.1023 15.1997C17.1166 15.1935 17.1295 15.1845 17.1402 15.1732C17.1509 15.1618 17.1591 15.1484 17.1644 15.1338C17.1697 15.1191 17.1719 15.1035 17.171 15.088C17.1694 15.0592 17.1568 15.0321 17.1358 15.0123C17.1147 14.9926 17.0869 14.9817 17.058 14.982V14.98H17.057ZM17.62 14.98C17.5901 14.9808 17.5617 14.9933 17.541 15.0148C17.5202 15.0363 17.5087 15.0651 17.509 15.095C17.509 15.157 17.559 15.208 17.62 15.209C17.6355 15.2089 17.6508 15.2056 17.665 15.1994C17.6792 15.1932 17.6919 15.1841 17.7025 15.1728C17.7131 15.1615 17.7213 15.1481 17.7265 15.1335C17.7317 15.119 17.7339 15.1035 17.733 15.088C17.7314 15.0592 17.7188 15.0321 17.6978 15.0123C17.6767 14.9926 17.6489 14.9817 17.62 14.982V14.98ZM18.183 14.98C18.1529 14.9805 18.1243 14.9929 18.1033 15.0144C18.0823 15.036 18.0707 15.0649 18.071 15.095C18.071 15.157 18.121 15.208 18.183 15.209C18.1985 15.2089 18.2138 15.2056 18.228 15.1994C18.2422 15.1932 18.2549 15.1841 18.2655 15.1728C18.2761 15.1615 18.2843 15.1481 18.2895 15.1335C18.2947 15.119 18.2969 15.1035 18.296 15.088C18.2944 15.0592 18.2818 15.0321 18.2608 15.0123C18.2397 14.9926 18.2119 14.9817 18.183 14.982V14.98ZM18.745 14.98C18.7303 14.9801 18.7157 14.9832 18.7022 14.9889C18.6887 14.9947 18.6764 15.003 18.6661 15.0135C18.6558 15.024 18.6476 15.0364 18.6421 15.0501C18.6366 15.0637 18.6339 15.0783 18.634 15.093C18.634 15.155 18.684 15.206 18.745 15.207C18.806 15.207 18.855 15.155 18.856 15.093C18.8566 15.0867 18.8566 15.0803 18.856 15.074C18.8519 15.0479 18.8385 15.0241 18.8183 15.007C18.7981 14.9899 18.7724 14.9807 18.746 14.981V14.98H18.745ZM19.308 14.98C19.2776 14.98 19.2485 14.9921 19.227 15.0135C19.2056 15.035 19.1935 15.0641 19.1935 15.0945C19.1935 15.1249 19.2056 15.154 19.227 15.1755C19.2485 15.1969 19.2776 15.209 19.308 15.209C19.3232 15.2085 19.3382 15.2049 19.352 15.1985C19.3659 15.1921 19.3783 15.183 19.3886 15.1717C19.3988 15.1605 19.4067 15.1472 19.4118 15.1328C19.4168 15.1185 19.4189 15.1032 19.418 15.088C19.4165 15.0597 19.4043 15.033 19.3839 15.0133C19.3635 14.9937 19.3363 14.9825 19.308 14.982V14.98ZM19.87 14.98C19.8396 14.98 19.8105 14.9921 19.789 15.0135C19.7676 15.035 19.7555 15.0641 19.7555 15.0945C19.7555 15.1249 19.7676 15.154 19.789 15.1755C19.8105 15.1969 19.8396 15.209 19.87 15.209C19.8853 15.2086 19.9004 15.2052 19.9144 15.1988C19.9283 15.1925 19.9408 15.1834 19.9512 15.1721C19.9616 15.1608 19.9696 15.1475 19.9747 15.1331C19.9798 15.1186 19.9819 15.1033 19.981 15.088C19.9795 15.0597 19.9673 15.033 19.9469 15.0133C19.9265 14.9937 19.8993 14.9825 19.871 14.982V14.98H19.87ZM20.433 14.98C20.4026 14.98 20.3735 14.9921 20.352 15.0135C20.3306 15.035 20.3185 15.0641 20.3185 15.0945C20.3185 15.1249 20.3306 15.154 20.352 15.1755C20.3735 15.1969 20.4026 15.209 20.433 15.209C20.4482 15.2085 20.4632 15.2049 20.477 15.1985C20.4909 15.1921 20.5033 15.183 20.5136 15.1717C20.5238 15.1605 20.5317 15.1472 20.5368 15.1328C20.5418 15.1185 20.5439 15.1032 20.543 15.088C20.5415 15.0597 20.5293 15.033 20.5089 15.0133C20.4885 14.9937 20.4613 14.9825 20.433 14.982V14.98ZM20.995 14.98C20.9646 14.98 20.9355 14.9921 20.914 15.0135C20.8926 15.035 20.8805 15.0641 20.8805 15.0945C20.8805 15.1249 20.8926 15.154 20.914 15.1755C20.9355 15.1969 20.9646 15.209 20.995 15.209C21.0103 15.2086 21.0254 15.2052 21.0394 15.1988C21.0533 15.1925 21.0658 15.1834 21.0762 15.1721C21.0866 15.1608 21.0946 15.1475 21.0997 15.1331C21.1048 15.1186 21.1069 15.1033 21.106 15.088C21.1045 15.0597 21.0923 15.033 21.0719 15.0133C21.0515 14.9937 21.0243 14.9825 20.996 14.982V14.98H20.995ZM21.555 14.98C21.5253 14.981 21.4972 14.9936 21.4766 15.0151C21.4561 15.0366 21.4447 15.0653 21.445 15.095C21.445 15.157 21.495 15.208 21.555 15.209C21.5706 15.209 21.586 15.2059 21.6003 15.1997C21.6146 15.1935 21.6275 15.1845 21.6382 15.1732C21.6489 15.1618 21.6571 15.1484 21.6624 15.1338C21.6677 15.1191 21.6699 15.1035 21.669 15.088C21.6674 15.0592 21.6548 15.0321 21.6338 15.0123C21.6127 14.9926 21.5849 14.9817 21.556 14.982V14.98H21.555ZM22.118 14.98C22.0881 14.9808 22.0597 14.9933 22.039 15.0148C22.0182 15.0363 22.0067 15.0651 22.007 15.095C22.007 15.157 22.057 15.208 22.118 15.209C22.1335 15.2089 22.1488 15.2056 22.163 15.1994C22.1772 15.1932 22.1899 15.1841 22.2005 15.1728C22.2111 15.1615 22.2193 15.1481 22.2245 15.1335C22.2297 15.119 22.2319 15.1035 22.231 15.088C22.2294 15.0592 22.2168 15.0321 22.1958 15.0123C22.1747 14.9926 22.1469 14.9817 22.118 14.982V14.98ZM23.243 14.98C23.2134 14.9805 23.1851 14.9927 23.1644 15.0138C23.1436 15.0349 23.132 15.0634 23.132 15.093C23.132 15.155 23.182 15.206 23.243 15.207C23.304 15.207 23.354 15.155 23.355 15.093C23.3556 15.0867 23.3556 15.0803 23.355 15.074C23.3507 15.0476 23.3369 15.0237 23.3164 15.0066C23.2958 14.9895 23.2697 14.9804 23.243 14.981V14.98ZM23.806 14.98C23.7911 14.9799 23.7763 14.9827 23.7624 14.9883C23.7486 14.9939 23.736 15.0022 23.7254 15.0127C23.7148 15.0232 23.7064 15.0357 23.7007 15.0495C23.6949 15.0633 23.692 15.0781 23.692 15.093C23.692 15.155 23.744 15.207 23.806 15.207C23.866 15.207 23.916 15.155 23.917 15.093C23.9176 15.0867 23.9176 15.0803 23.917 15.074C23.9129 15.0477 23.8994 15.0238 23.879 15.0067C23.8585 14.9895 23.8326 14.9804 23.806 14.981V14.98ZM24.368 14.98C24.3376 14.98 24.3085 14.9921 24.287 15.0135C24.2656 15.035 24.2535 15.0641 24.2535 15.0945C24.2535 15.1249 24.2656 15.154 24.287 15.1755C24.3085 15.1969 24.3376 15.209 24.368 15.209C24.3834 15.2088 24.3986 15.2054 24.4127 15.1991C24.4267 15.1928 24.4394 15.1838 24.4499 15.1724C24.4603 15.1611 24.4684 15.1478 24.4736 15.1333C24.4788 15.1188 24.4809 15.1034 24.48 15.088C24.4785 15.0593 24.466 15.0324 24.4451 15.0126C24.4243 14.9929 24.3967 14.982 24.368 14.982V14.98ZM24.931 14.98C24.9006 14.98 24.8715 14.9921 24.85 15.0135C24.8286 15.035 24.8165 15.0641 24.8165 15.0945C24.8165 15.1249 24.8286 15.154 24.85 15.1755C24.8715 15.1969 24.9006 15.209 24.931 15.209C24.9463 15.2086 24.9614 15.2052 24.9754 15.1988C24.9893 15.1925 25.0019 15.1834 25.0122 15.1721C25.0226 15.1608 25.0306 15.1475 25.0357 15.1331C25.0408 15.1186 25.0429 15.1033 25.042 15.088C25.0405 15.0595 25.0281 15.0327 25.0075 15.013C24.9869 14.9933 24.9595 14.9822 24.931 14.982V14.98ZM25.491 14.98C25.4611 14.9808 25.4327 14.9933 25.412 15.0148C25.3912 15.0363 25.3797 15.0651 25.38 15.095C25.38 15.157 25.43 15.208 25.491 15.209C25.5066 15.209 25.522 15.2059 25.5363 15.1997C25.5506 15.1935 25.5635 15.1845 25.5742 15.1732C25.5849 15.1618 25.5931 15.1484 25.5984 15.1338C25.6037 15.1191 25.6059 15.1035 25.605 15.088C25.6034 15.059 25.5907 15.0317 25.5694 15.012C25.5481 14.9922 25.52 14.9814 25.491 14.982V14.98ZM26.054 14.98C26.0239 14.9805 25.9953 14.9929 25.9743 15.0144C25.9533 15.036 25.9417 15.0649 25.942 15.095C25.942 15.157 25.992 15.208 26.054 15.209C26.0695 15.2089 26.0848 15.2056 26.099 15.1994C26.1132 15.1932 26.1259 15.1841 26.1365 15.1728C26.1471 15.1615 26.1553 15.1481 26.1605 15.1335C26.1657 15.119 26.1679 15.1035 26.167 15.088C26.1654 15.0592 26.1528 15.0321 26.1318 15.0123C26.1107 14.9926 26.0829 14.9817 26.054 14.982V14.98ZM26.616 14.98C26.5861 14.9808 26.5577 14.9933 26.537 15.0148C26.5162 15.0363 26.5047 15.0651 26.505 15.095C26.505 15.157 26.555 15.208 26.616 15.209C26.6316 15.209 26.647 15.2059 26.6613 15.1997C26.6756 15.1935 26.6885 15.1845 26.6992 15.1732C26.7099 15.1618 26.7181 15.1484 26.7234 15.1338C26.7287 15.1191 26.7309 15.1035 26.73 15.088C26.7284 15.059 26.7157 15.0317 26.6944 15.012C26.6731 14.9922 26.645 14.9814 26.616 14.982V14.98ZM27.741 14.98C27.7263 14.9801 27.7117 14.9832 27.6982 14.9889C27.6847 14.9947 27.6724 15.003 27.6621 15.0135C27.6518 15.024 27.6436 15.0364 27.6381 15.0501C27.6326 15.0637 27.6299 15.0783 27.63 15.093C27.63 15.155 27.68 15.206 27.741 15.207C27.802 15.207 27.851 15.155 27.852 15.093C27.8526 15.0867 27.8526 15.0803 27.852 15.074C27.8479 15.0479 27.8345 15.0241 27.8143 15.007C27.7941 14.9899 27.7684 14.9807 27.742 14.981V14.98H27.741ZM28.304 14.98C28.2736 14.98 28.2445 14.9921 28.223 15.0135C28.2016 15.035 28.1895 15.0641 28.1895 15.0945C28.1895 15.1249 28.2016 15.154 28.223 15.1755C28.2445 15.1969 28.2736 15.209 28.304 15.209C28.3193 15.2086 28.3344 15.2052 28.3484 15.1988C28.3623 15.1925 28.3748 15.1834 28.3852 15.1721C28.3956 15.1608 28.4036 15.1475 28.4087 15.1331C28.4138 15.1186 28.4159 15.1033 28.415 15.088C28.4135 15.0595 28.4011 15.0327 28.3805 15.013C28.3599 14.9933 28.3325 14.9822 28.304 14.982V14.98ZM28.866 14.98C28.8356 14.98 28.8065 14.9921 28.785 15.0135C28.7636 15.035 28.7515 15.0641 28.7515 15.0945C28.7515 15.1249 28.7636 15.154 28.785 15.1755C28.8065 15.1969 28.8356 15.209 28.866 15.209C28.8813 15.2086 28.8964 15.2052 28.9104 15.1988C28.9243 15.1925 28.9368 15.1834 28.9472 15.1721C28.9576 15.1608 28.9656 15.1475 28.9707 15.1331C28.9758 15.1186 28.9779 15.1033 28.977 15.088C28.9755 15.0597 28.9633 15.033 28.9429 15.0133C28.9225 14.9937 28.8953 14.9825 28.867 14.982V14.98H28.866ZM29.429 14.98C29.3986 14.98 29.3695 14.9921 29.348 15.0135C29.3266 15.035 29.3145 15.0641 29.3145 15.0945C29.3145 15.1249 29.3266 15.154 29.348 15.1755C29.3695 15.1969 29.3986 15.209 29.429 15.209C29.4443 15.2086 29.4594 15.2052 29.4734 15.1988C29.4873 15.1925 29.4998 15.1834 29.5102 15.1721C29.5206 15.1608 29.5286 15.1475 29.5337 15.1331C29.5388 15.1186 29.5409 15.1033 29.54 15.088C29.5385 15.0595 29.5261 15.0327 29.5055 15.013C29.4849 14.9933 29.4575 14.9822 29.429 14.982V14.98ZM29.989 14.98C29.9591 14.9808 29.9307 14.9933 29.91 15.0148C29.8892 15.0363 29.8777 15.0651 29.878 15.095C29.878 15.157 29.928 15.208 29.989 15.209C30.0045 15.2089 30.0198 15.2056 30.034 15.1994C30.0482 15.1932 30.0609 15.1841 30.0715 15.1728C30.0821 15.1615 30.0903 15.1481 30.0955 15.1335C30.1007 15.119 30.1029 15.1035 30.102 15.088C30.1004 15.0592 30.0878 15.0321 30.0668 15.0123C30.0457 14.9926 30.0179 14.9817 29.989 14.982V14.98ZM30.552 14.98C30.5219 14.9805 30.4933 14.9929 30.4723 15.0144C30.4513 15.036 30.4397 15.0649 30.44 15.095C30.44 15.157 30.49 15.208 30.552 15.209C30.5675 15.2089 30.5828 15.2056 30.597 15.1994C30.6112 15.1932 30.6239 15.1841 30.6345 15.1728C30.6451 15.1615 30.6533 15.1481 30.6585 15.1335C30.6637 15.119 30.6659 15.1035 30.665 15.088C30.6634 15.0592 30.6508 15.0321 30.6298 15.0123C30.6087 14.9926 30.5809 14.9817 30.552 14.982V14.98ZM31.114 14.98C31.0841 14.9808 31.0557 14.9933 31.035 15.0148C31.0142 15.0363 31.0027 15.0651 31.003 15.095C31.003 15.157 31.053 15.208 31.114 15.209C31.1295 15.2089 31.1448 15.2056 31.159 15.1994C31.1732 15.1932 31.1859 15.1841 31.1965 15.1728C31.2071 15.1615 31.2153 15.1481 31.2205 15.1335C31.2257 15.119 31.2279 15.1035 31.227 15.088C31.2254 15.0592 31.2128 15.0321 31.1918 15.0123C31.1707 14.9926 31.1429 14.9817 31.114 14.982V14.98ZM31.677 14.98C31.6622 14.98 31.6476 14.9829 31.6339 14.9886C31.6202 14.9943 31.6079 15.0026 31.5974 15.0132C31.587 15.0237 31.5788 15.0361 31.5732 15.0498C31.5677 15.0635 31.5649 15.0782 31.565 15.093C31.565 15.155 31.615 15.206 31.677 15.207C31.738 15.207 31.787 15.155 31.788 15.093C31.7885 15.0867 31.7885 15.0803 31.788 15.074C31.7839 15.0477 31.7704 15.0238 31.75 15.0067C31.7295 14.9895 31.7036 14.9804 31.677 14.981V14.98ZM32.239 14.98C32.209 14.98 32.1803 14.9919 32.1591 15.0131C32.1379 15.0343 32.126 15.063 32.126 15.093C32.126 15.155 32.177 15.207 32.239 15.207C32.301 15.207 32.349 15.155 32.351 15.093C32.3515 15.0867 32.3515 15.0803 32.351 15.074C32.3469 15.0475 32.3332 15.0234 32.3126 15.0063C32.292 14.9892 32.2658 14.9802 32.239 14.981V14.98ZM32.802 14.98C32.7716 14.98 32.7425 14.9921 32.721 15.0135C32.6996 15.035 32.6875 15.0641 32.6875 15.0945C32.6875 15.1249 32.6996 15.154 32.721 15.1755C32.7425 15.1969 32.7716 15.209 32.802 15.209C32.8173 15.2086 32.8324 15.2052 32.8464 15.1988C32.8603 15.1925 32.8729 15.1834 32.8832 15.1721C32.8936 15.1608 32.9016 15.1475 32.9067 15.1331C32.9118 15.1186 32.9139 15.1033 32.913 15.088C32.9115 15.0595 32.8991 15.0327 32.8785 15.013C32.8579 14.9933 32.8305 14.9822 32.802 14.982V14.98ZM33.364 14.98C33.3336 14.98 33.3045 14.9921 33.283 15.0135C33.2616 15.035 33.2495 15.0641 33.2495 15.0945C33.2495 15.1249 33.2616 15.154 33.283 15.1755C33.3045 15.1969 33.3336 15.209 33.364 15.209C33.3794 15.2088 33.3946 15.2054 33.4087 15.1991C33.4227 15.1928 33.4354 15.1838 33.4459 15.1724C33.4563 15.1611 33.4644 15.1478 33.4696 15.1333C33.4748 15.1188 33.4769 15.1034 33.476 15.088C33.4745 15.0593 33.462 15.0324 33.4411 15.0126C33.4203 14.9929 33.3927 14.982 33.364 14.982V14.98ZM33.927 14.98C33.8966 14.98 33.8675 14.9921 33.846 15.0135C33.8246 15.035 33.8125 15.0641 33.8125 15.0945C33.8125 15.1249 33.8246 15.154 33.846 15.1755C33.8675 15.1969 33.8966 15.209 33.927 15.209C33.9423 15.2086 33.9574 15.2052 33.9714 15.1988C33.9853 15.1925 33.9979 15.1834 34.0082 15.1721C34.0186 15.1608 34.0266 15.1475 34.0317 15.1331C34.0368 15.1186 34.0389 15.1033 34.038 15.088C34.0365 15.0595 34.0241 15.0327 34.0035 15.013C33.9829 14.9933 33.9555 14.9822 33.927 14.982V14.98ZM34.487 14.98C34.4571 14.9808 34.4287 14.9933 34.408 15.0148C34.3872 15.0363 34.3757 15.0651 34.376 15.095C34.376 15.157 34.426 15.208 34.487 15.209C34.5026 15.209 34.518 15.2059 34.5323 15.1997C34.5466 15.1935 34.5595 15.1845 34.5702 15.1732C34.5809 15.1618 34.5891 15.1484 34.5944 15.1338C34.5997 15.1191 34.6019 15.1035 34.601 15.088C34.5994 15.059 34.5867 15.0317 34.5654 15.012C34.5441 14.9922 34.516 14.9814 34.487 14.982V14.98ZM13.685 14.982C13.6552 14.9823 13.6267 14.9943 13.6057 15.0154C13.5848 15.0366 13.573 15.0652 13.573 15.095C13.573 15.157 13.623 15.208 13.685 15.209C13.7151 15.2087 13.7438 15.1966 13.765 15.1753C13.7861 15.1539 13.798 15.1251 13.798 15.095C13.798 15.065 13.7861 15.0363 13.7649 15.0151C13.7437 14.9939 13.715 14.982 13.685 14.982ZM22.681 14.982C22.6512 14.9823 22.6227 14.9943 22.6017 15.0154C22.5808 15.0366 22.569 15.0652 22.569 15.095C22.569 15.157 22.619 15.208 22.681 15.209C22.7111 15.2087 22.7398 15.1966 22.761 15.1753C22.7821 15.1539 22.794 15.1251 22.794 15.095C22.7941 15.0801 22.7913 15.0654 22.7857 15.0516C22.78 15.0378 22.7717 15.0253 22.7612 15.0148C22.7507 15.0043 22.7382 14.996 22.7244 14.9903C22.7106 14.9847 22.6959 14.9819 22.681 14.982ZM27.179 14.982C27.1642 14.982 27.1496 14.9849 27.1359 14.9906C27.1222 14.9963 27.1099 15.0046 27.0994 15.0152C27.089 15.0257 27.0808 15.0381 27.0752 15.0518C27.0697 15.0655 27.0669 15.0802 27.067 15.095C27.067 15.157 27.117 15.208 27.179 15.209C27.2091 15.2087 27.2378 15.1966 27.259 15.1753C27.2801 15.1539 27.292 15.1251 27.292 15.095C27.2921 15.0801 27.2893 15.0654 27.2837 15.0516C27.278 15.0378 27.2697 15.0253 27.2592 15.0148C27.2487 15.0043 27.2362 14.996 27.2224 14.9903C27.2086 14.9847 27.1939 14.9819 27.179 14.982ZM15.029 18.179C14.8156 18.1736 14.6032 18.211 14.4045 18.2889C14.2057 18.3668 14.0246 18.4837 13.8717 18.6327C13.7188 18.7817 13.5973 18.9598 13.5143 19.1565C13.4314 19.3532 13.3886 19.5645 13.3885 19.778C13.3884 19.9915 13.4311 20.2028 13.5139 20.3995C13.5968 20.5963 13.7182 20.7745 13.871 20.9236C14.0238 21.0727 14.2049 21.1897 14.4036 21.2677C14.6023 21.3458 14.8146 21.3833 15.028 21.378C15.4453 21.3676 15.842 21.1945 16.1334 20.8956C16.4249 20.5968 16.588 20.1959 16.588 19.7785C16.588 19.3611 16.4249 18.9602 16.1334 18.6614C15.842 18.3625 15.4453 18.1894 15.028 18.179H15.029ZM18.651 18.179C18.4376 18.1737 18.2253 18.2111 18.0265 18.2891C17.8278 18.3671 17.6467 18.484 17.4939 18.6331C17.341 18.7821 17.2196 18.9603 17.1366 19.157C17.0537 19.3537 17.011 19.565 17.011 19.7785C17.011 19.992 17.0537 20.2033 17.1366 20.4C17.2196 20.5967 17.341 20.7749 17.4939 20.9239C17.6467 21.073 17.8278 21.1899 18.0265 21.2679C18.2253 21.3459 18.4376 21.3833 18.651 21.378C19.0683 21.3676 19.465 21.1945 19.7564 20.8956C20.0479 20.5968 20.211 20.1959 20.211 19.7785C20.211 19.3611 20.0479 18.9602 19.7564 18.6614C19.465 18.3625 19.0683 18.1894 18.651 18.179ZM22.274 18.179C22.0606 18.1737 21.8482 18.2111 21.6495 18.2891C21.4508 18.3671 21.2697 18.484 21.1169 18.6331C20.964 18.7821 20.8426 18.9603 20.7596 19.157C20.6767 19.3537 20.634 19.565 20.634 19.7785C20.634 19.992 20.6767 20.2033 20.7596 20.4C20.8426 20.5967 20.964 20.7749 21.1169 20.9239C21.2697 21.073 21.4508 21.1899 21.6495 21.2679C21.8482 21.3459 22.0606 21.3833 22.274 21.378C22.6913 21.3676 23.088 21.1945 23.3794 20.8956C23.6709 20.5968 23.834 20.1959 23.834 19.7785C23.834 19.3611 23.6709 18.9602 23.3794 18.6614C23.088 18.3625 22.6913 18.1894 22.274 18.179ZM25.899 18.179C25.6856 18.1737 25.4732 18.2111 25.2745 18.2891C25.0758 18.3671 24.8947 18.484 24.7419 18.6331C24.589 18.7821 24.4676 18.9603 24.3846 19.157C24.3017 19.3537 24.259 19.565 24.259 19.7785C24.259 19.992 24.3017 20.2033 24.3846 20.4C24.4676 20.5967 24.589 20.7749 24.7419 20.9239C24.8947 21.073 25.0758 21.1899 25.2745 21.2679C25.4732 21.3459 25.6856 21.3833 25.899 21.378C26.3163 21.3676 26.713 21.1945 27.0044 20.8956C27.2959 20.5968 27.459 20.1959 27.459 19.7785C27.459 19.3611 27.2959 18.9602 27.0044 18.6614C26.713 18.3625 26.3163 18.1894 25.899 18.179ZM29.522 18.179C29.3086 18.1737 29.0963 18.2111 28.8975 18.2891C28.6988 18.3671 28.5177 18.484 28.3649 18.6331C28.212 18.7821 28.0906 18.9603 28.0076 19.157C27.9247 19.3537 27.882 19.565 27.882 19.7785C27.882 19.992 27.9247 20.2033 28.0076 20.4C28.0906 20.5967 28.212 20.7749 28.3649 20.9239C28.5177 21.073 28.6988 21.1899 28.8975 21.2679C29.0963 21.3459 29.3086 21.3833 29.522 21.378C29.9393 21.3676 30.336 21.1945 30.6274 20.8956C30.9189 20.5968 31.082 20.1959 31.082 19.7785C31.082 19.3611 30.9189 18.9602 30.6274 18.6614C30.336 18.3625 29.9393 18.1894 29.522 18.179ZM33.148 18.179C32.9346 18.1736 32.7222 18.211 32.5235 18.2889C32.3247 18.3668 32.1436 18.4837 31.9907 18.6327C31.8378 18.7817 31.7163 18.9598 31.6333 19.1565C31.5503 19.3532 31.5076 19.5645 31.5075 19.778C31.5074 19.9915 31.5501 20.2028 31.6329 20.3995C31.7158 20.5963 31.8372 20.7745 31.99 20.9236C32.1428 21.0727 32.3239 21.1897 32.5226 21.2677C32.7213 21.3458 32.9336 21.3833 33.147 21.378C33.5643 21.3676 33.961 21.1945 34.2524 20.8956C34.5439 20.5968 34.707 20.1959 34.707 19.7785C34.707 19.3611 34.5439 18.9602 34.2524 18.6614C33.961 18.3625 33.5643 18.1894 33.147 18.179H33.148ZM14.248 23.98C14.2179 23.98 14.1891 23.9919 14.1677 24.013C14.1464 24.0342 14.1343 24.0629 14.134 24.093C14.134 24.155 14.185 24.206 14.247 24.207C14.308 24.207 14.357 24.155 14.358 24.093C14.3585 24.087 14.3585 24.081 14.358 24.075C14.3539 24.0488 14.3406 24.0249 14.3204 24.0076C14.3002 23.9904 14.2745 23.9809 14.248 23.981V23.98ZM14.81 23.98C14.7951 23.9799 14.7803 23.9827 14.7664 23.9883C14.7526 23.9939 14.74 24.0022 14.7294 24.0127C14.7188 24.0232 14.7104 24.0357 14.7047 24.0495C14.6989 24.0633 14.696 24.0781 14.696 24.093C14.696 24.155 14.748 24.208 14.81 24.207C14.87 24.207 14.92 24.155 14.92 24.093C14.9205 24.087 14.9205 24.081 14.92 24.075C14.9159 24.0488 14.9026 24.0249 14.8824 24.0076C14.8622 23.9904 14.8365 23.9809 14.81 23.981V23.98ZM15.372 23.98C15.3416 23.98 15.3125 23.9921 15.291 24.0135C15.2696 24.035 15.2575 24.0641 15.2575 24.0945C15.2575 24.1249 15.2696 24.154 15.291 24.1755C15.3125 24.1969 15.3416 24.209 15.372 24.209C15.433 24.209 15.482 24.157 15.483 24.095V24.088C15.4815 24.0597 15.4693 24.033 15.4489 24.0133C15.4285 23.9937 15.4013 23.9825 15.373 23.982V23.98H15.372ZM15.935 23.98C15.9046 23.98 15.8755 23.9921 15.854 24.0135C15.8326 24.035 15.8205 24.0641 15.8205 24.0945C15.8205 24.1249 15.8326 24.154 15.854 24.1755C15.8755 24.1969 15.9046 24.209 15.935 24.209C15.995 24.209 16.045 24.157 16.045 24.095V24.088C16.0435 24.0597 16.0313 24.033 16.0109 24.0133C15.9905 23.9937 15.9633 23.9825 15.935 23.982V23.98ZM16.497 23.98C16.4666 23.98 16.4375 23.9921 16.416 24.0135C16.3946 24.035 16.3825 24.0641 16.3825 24.0945C16.3825 24.1249 16.3946 24.154 16.416 24.1755C16.4375 24.1969 16.4666 24.209 16.497 24.209C16.558 24.209 16.607 24.157 16.608 24.095V24.088C16.6065 24.0597 16.5943 24.033 16.5739 24.0133C16.5534 23.9937 16.5263 23.9825 16.498 23.982V23.98H16.497ZM17.057 23.98C17.0273 23.981 16.9991 23.9936 16.9786 24.0151C16.9581 24.0366 16.9467 24.0653 16.947 24.095C16.947 24.156 16.996 24.208 17.057 24.209C17.0872 24.209 17.1162 24.197 17.1376 24.1756C17.159 24.1542 17.171 24.1252 17.171 24.095V24.088C17.1694 24.0592 17.1568 24.0321 17.1358 24.0123C17.1147 23.9926 17.0869 23.9817 17.058 23.982V23.98H17.057ZM17.62 23.98C17.5901 23.9808 17.5617 23.9933 17.541 24.0148C17.5202 24.0363 17.5087 24.0651 17.509 24.095C17.509 24.156 17.559 24.208 17.62 24.209C17.6501 24.2087 17.6788 24.1966 17.7 24.1753C17.7211 24.1539 17.733 24.1251 17.733 24.095V24.088C17.7314 24.0592 17.7188 24.0321 17.6978 24.0123C17.6767 23.9926 17.6489 23.9817 17.62 23.982V23.98ZM18.183 23.98C18.1529 23.9805 18.1243 23.9929 18.1033 24.0144C18.0823 24.036 18.0707 24.0649 18.071 24.095C18.071 24.156 18.121 24.208 18.183 24.209C18.2131 24.2087 18.2418 24.1966 18.263 24.1753C18.2841 24.1539 18.296 24.1251 18.296 24.095V24.088C18.2944 24.0592 18.2818 24.0321 18.2608 24.0123C18.2397 23.9926 18.2119 23.9817 18.183 23.982V23.98ZM18.745 23.98C18.7303 23.9801 18.7157 23.9832 18.7022 23.9889C18.6887 23.9946 18.6764 24.003 18.6661 24.0135C18.6558 24.024 18.6476 24.0364 18.6421 24.0501C18.6366 24.0637 18.6339 24.0783 18.634 24.093C18.634 24.155 18.684 24.206 18.745 24.207C18.806 24.207 18.855 24.155 18.856 24.093C18.8565 24.087 18.8565 24.081 18.856 24.075C18.8521 24.0487 18.8388 24.0246 18.8186 24.0074C18.7984 23.9901 18.7726 23.9807 18.746 23.981V23.98H18.745ZM19.308 23.98C19.2776 23.98 19.2485 23.9921 19.227 24.0135C19.2056 24.035 19.1935 24.0641 19.1935 24.0945C19.1935 24.1249 19.2056 24.154 19.227 24.1755C19.2485 24.1969 19.2776 24.209 19.308 24.209C19.368 24.209 19.418 24.157 19.418 24.095V24.088C19.4165 24.0597 19.4043 24.033 19.3839 24.0133C19.3635 23.9937 19.3363 23.9825 19.308 23.982V23.98ZM19.87 23.98C19.8396 23.98 19.8105 23.9921 19.789 24.0135C19.7676 24.035 19.7555 24.0641 19.7555 24.0945C19.7555 24.1249 19.7676 24.154 19.789 24.1755C19.8105 24.1969 19.8396 24.209 19.87 24.209C19.931 24.209 19.98 24.157 19.981 24.095V24.088C19.9795 24.0597 19.9673 24.033 19.9469 24.0133C19.9265 23.9937 19.8993 23.9825 19.871 23.982V23.98H19.87ZM20.433 23.98C20.4026 23.98 20.3735 23.9921 20.352 24.0135C20.3306 24.035 20.3185 24.0641 20.3185 24.0945C20.3185 24.1249 20.3306 24.154 20.352 24.1755C20.3735 24.1969 20.4026 24.209 20.433 24.209C20.493 24.209 20.543 24.157 20.543 24.095V24.088C20.5415 24.0597 20.5293 24.033 20.5089 24.0133C20.4885 23.9937 20.4613 23.9825 20.433 23.982V23.98ZM20.995 23.98C20.9646 23.98 20.9355 23.9921 20.914 24.0135C20.8926 24.035 20.8805 24.0641 20.8805 24.0945C20.8805 24.1249 20.8926 24.154 20.914 24.1755C20.9355 24.1969 20.9646 24.209 20.995 24.209C21.056 24.209 21.105 24.157 21.106 24.095V24.088C21.1045 24.0597 21.0923 24.033 21.0719 24.0133C21.0515 23.9937 21.0243 23.9825 20.996 23.982V23.98H20.995ZM21.555 23.98C21.5253 23.981 21.4972 23.9936 21.4766 24.0151C21.4561 24.0366 21.4447 24.0653 21.445 24.095C21.445 24.156 21.495 24.208 21.555 24.209C21.5852 24.209 21.6142 24.197 21.6356 24.1756C21.657 24.1542 21.669 24.1252 21.669 24.095V24.088C21.6674 24.0592 21.6548 24.0321 21.6338 24.0123C21.6127 23.9926 21.5849 23.9817 21.556 23.982V23.98H21.555ZM22.118 23.98C22.0881 23.9808 22.0597 23.9933 22.039 24.0148C22.0182 24.0363 22.0067 24.0651 22.007 24.095C22.007 24.156 22.057 24.208 22.118 24.209C22.1481 24.2087 22.1768 24.1966 22.198 24.1753C22.2191 24.1539 22.231 24.1251 22.231 24.095V24.088C22.2294 24.0592 22.2168 24.0321 22.1958 24.0123C22.1747 23.9926 22.1469 23.9817 22.118 23.982V23.98ZM23.243 23.98C23.2134 23.9805 23.1851 23.9927 23.1644 24.0138C23.1436 24.0349 23.132 24.0634 23.132 24.093C23.132 24.155 23.182 24.206 23.243 24.207C23.304 24.207 23.354 24.155 23.355 24.093C23.3555 24.087 23.3555 24.081 23.355 24.075C23.3509 24.0484 23.3373 24.0242 23.3167 24.0069C23.2961 23.9897 23.2699 23.9804 23.243 23.981V23.98ZM23.806 23.98C23.7911 23.9799 23.7763 23.9827 23.7624 23.9883C23.7486 23.9939 23.736 24.0022 23.7254 24.0127C23.7148 24.0232 23.7064 24.0357 23.7007 24.0495C23.6949 24.0633 23.692 24.0781 23.692 24.093C23.692 24.155 23.744 24.208 23.806 24.207C23.866 24.207 23.916 24.155 23.917 24.093C23.9175 24.087 23.9175 24.081 23.917 24.075C23.9131 24.0485 23.8997 24.0243 23.8792 24.007C23.8588 23.9897 23.8328 23.9805 23.806 23.981V23.98ZM24.368 23.98C24.3376 23.98 24.3085 23.9921 24.287 24.0135C24.2656 24.035 24.2535 24.0641 24.2535 24.0945C24.2535 24.1249 24.2656 24.154 24.287 24.1755C24.3085 24.1969 24.3376 24.209 24.368 24.209C24.429 24.209 24.478 24.157 24.48 24.095V24.088C24.4785 24.0593 24.466 24.0324 24.4451 24.0126C24.4243 23.9929 24.3967 23.982 24.368 23.982V23.98ZM24.931 23.98C24.9006 23.98 24.8715 23.9921 24.85 24.0135C24.8286 24.035 24.8165 24.0641 24.8165 24.0945C24.8165 24.1249 24.8286 24.154 24.85 24.1755C24.8715 24.1969 24.9006 24.209 24.931 24.209C24.991 24.209 25.041 24.157 25.042 24.095V24.088C25.0405 24.0595 25.0281 24.0327 25.0075 24.013C24.9869 23.9933 24.9595 23.9822 24.931 23.982V23.98ZM25.491 23.98C25.4611 23.9808 25.4327 23.9933 25.412 24.0148C25.3912 24.0363 25.3797 24.0651 25.38 24.095C25.38 24.156 25.43 24.208 25.491 24.209C25.506 24.209 25.5208 24.206 25.5346 24.2003C25.5484 24.1946 25.561 24.1862 25.5716 24.1756C25.5822 24.165 25.5906 24.1525 25.5963 24.1386C25.602 24.1248 25.605 24.11 25.605 24.095V24.088C25.6034 24.059 25.5907 24.0317 25.5694 24.012C25.5481 23.9922 25.52 23.9814 25.491 23.982V23.98ZM26.054 23.98C26.0239 23.9805 25.9953 23.9929 25.9743 24.0144C25.9533 24.036 25.9417 24.0649 25.942 24.095C25.942 24.156 25.992 24.208 26.054 24.209C26.0841 24.2087 26.1128 24.1966 26.134 24.1753C26.1551 24.1539 26.167 24.1251 26.167 24.095V24.088C26.1654 24.0592 26.1528 24.0321 26.1318 24.0123C26.1107 23.9926 26.0829 23.9817 26.054 23.982V23.98ZM26.616 23.98C26.5861 23.9808 26.5577 23.9933 26.537 24.0148C26.5162 24.0363 26.5047 24.0651 26.505 24.095C26.505 24.156 26.555 24.208 26.616 24.209C26.6462 24.209 26.6752 24.197 26.6966 24.1756C26.718 24.1542 26.73 24.1252 26.73 24.095V24.088C26.7284 24.059 26.7157 24.0317 26.6944 24.012C26.6731 23.9922 26.645 23.9814 26.616 23.982V23.98ZM27.741 23.98C27.7263 23.9801 27.7117 23.9832 27.6982 23.9889C27.6847 23.9946 27.6724 24.003 27.6621 24.0135C27.6518 24.024 27.6436 24.0364 27.6381 24.0501C27.6326 24.0637 27.6299 24.0783 27.63 24.093C27.63 24.155 27.68 24.206 27.741 24.207C27.802 24.207 27.851 24.155 27.852 24.093C27.8525 24.087 27.8525 24.081 27.852 24.075C27.8481 24.0487 27.8348 24.0246 27.8146 24.0074C27.7944 23.9901 27.7686 23.9807 27.742 23.981V23.98H27.741ZM28.304 23.98C28.2736 23.98 28.2445 23.9921 28.223 24.0135C28.2016 24.035 28.1895 24.0641 28.1895 24.0945C28.1895 24.1249 28.2016 24.154 28.223 24.1755C28.2445 24.1969 28.2736 24.209 28.304 24.209C28.364 24.209 28.414 24.157 28.415 24.095V24.088C28.4135 24.0595 28.4011 24.0327 28.3805 24.013C28.3599 23.9933 28.3325 23.9822 28.304 23.982V23.98ZM28.866 23.98C28.8356 23.98 28.8065 23.9921 28.785 24.0135C28.7636 24.035 28.7515 24.0641 28.7515 24.0945C28.7515 24.1249 28.7636 24.154 28.785 24.1755C28.8065 24.1969 28.8356 24.209 28.866 24.209C28.927 24.209 28.976 24.157 28.977 24.095V24.088C28.9755 24.0597 28.9633 24.033 28.9429 24.0133C28.9225 23.9937 28.8953 23.9825 28.867 23.982V23.98H28.866ZM29.429 23.98C29.3986 23.98 29.3695 23.9921 29.348 24.0135C29.3266 24.035 29.3145 24.0641 29.3145 24.0945C29.3145 24.1249 29.3266 24.154 29.348 24.1755C29.3695 24.1969 29.3986 24.209 29.429 24.209C29.489 24.209 29.539 24.157 29.54 24.095V24.088C29.5385 24.0595 29.5261 24.0327 29.5055 24.013C29.4849 23.9933 29.4575 23.9822 29.429 23.982V23.98ZM29.989 23.98C29.9591 23.9808 29.9307 23.9933 29.91 24.0148C29.8892 24.0363 29.8777 24.0651 29.878 24.095C29.878 24.156 29.928 24.208 29.989 24.209C30.0191 24.2087 30.0478 24.1966 30.069 24.1753C30.0901 24.1539 30.102 24.1251 30.102 24.095V24.088C30.1004 24.0592 30.0878 24.0321 30.0668 24.0123C30.0457 23.9926 30.0179 23.9817 29.989 23.982V23.98ZM30.552 23.98C30.5219 23.9805 30.4933 23.9929 30.4723 24.0144C30.4513 24.036 30.4397 24.0649 30.44 24.095C30.44 24.156 30.49 24.208 30.552 24.209C30.5821 24.2087 30.6108 24.1966 30.632 24.1753C30.6531 24.1539 30.665 24.1251 30.665 24.095V24.088C30.6634 24.0592 30.6508 24.0321 30.6298 24.0123C30.6087 23.9926 30.5809 23.9817 30.552 23.982V23.98ZM31.114 23.98C31.0841 23.9808 31.0557 23.9933 31.035 24.0148C31.0142 24.0363 31.0027 24.0651 31.003 24.095C31.003 24.156 31.053 24.208 31.114 24.209C31.1441 24.2087 31.1728 24.1966 31.194 24.1753C31.2151 24.1539 31.227 24.1251 31.227 24.095V24.088C31.2254 24.0592 31.2128 24.0321 31.1918 24.0123C31.1707 23.9926 31.1429 23.9817 31.114 23.982V23.98ZM31.677 23.98C31.6622 23.98 31.6476 23.9829 31.6339 23.9886C31.6202 23.9943 31.6079 24.0026 31.5974 24.0132C31.587 24.0237 31.5788 24.0361 31.5732 24.0498C31.5677 24.0635 31.5649 24.0782 31.565 24.093C31.565 24.155 31.615 24.206 31.677 24.207C31.738 24.207 31.787 24.155 31.788 24.093C31.7884 24.087 31.7884 24.081 31.788 24.075C31.7839 24.0486 31.7704 24.0245 31.75 24.0073C31.7296 23.99 31.7037 23.9807 31.677 23.981V23.98ZM32.239 23.98C32.209 23.98 32.1803 23.9919 32.1591 24.0131C32.1379 24.0343 32.126 24.063 32.126 24.093C32.126 24.155 32.177 24.208 32.239 24.207C32.301 24.207 32.349 24.155 32.351 24.093C32.3514 24.087 32.3514 24.081 32.351 24.075C32.3469 24.0484 32.3333 24.0242 32.3127 24.0069C32.2921 23.9897 32.2659 23.9804 32.239 23.981V23.98ZM32.802 23.98C32.7716 23.98 32.7425 23.9921 32.721 24.0135C32.6996 24.035 32.6875 24.0641 32.6875 24.0945C32.6875 24.1249 32.6996 24.154 32.721 24.1755C32.7425 24.1969 32.7716 24.209 32.802 24.209C32.863 24.209 32.912 24.157 32.913 24.095V24.088C32.9115 24.0595 32.8991 24.0327 32.8785 24.013C32.8579 23.9933 32.8305 23.9822 32.802 23.982V23.98ZM33.364 23.98C33.3336 23.98 33.3045 23.9921 33.283 24.0135C33.2616 24.035 33.2495 24.0641 33.2495 24.0945C33.2495 24.1249 33.2616 24.154 33.283 24.1755C33.3045 24.1969 33.3336 24.209 33.364 24.209C33.426 24.209 33.475 24.157 33.476 24.095V24.088C33.4745 24.0593 33.462 24.0324 33.4411 24.0126C33.4203 23.9929 33.3927 23.982 33.364 23.982V23.98ZM33.927 23.98C33.8966 23.98 33.8675 23.9921 33.846 24.0135C33.8246 24.035 33.8125 24.0641 33.8125 24.0945C33.8125 24.1249 33.8246 24.154 33.846 24.1755C33.8675 24.1969 33.8966 24.209 33.927 24.209C33.988 24.209 34.037 24.157 34.038 24.095V24.088C34.0365 24.0595 34.0241 24.0327 34.0035 24.013C33.9829 23.9933 33.9555 23.9822 33.927 23.982V23.98ZM34.487 23.98C34.4571 23.9808 34.4287 23.9933 34.408 24.0148C34.3872 24.0363 34.3757 24.0651 34.376 24.095C34.376 24.156 34.426 24.208 34.487 24.209C34.5172 24.209 34.5462 24.197 34.5676 24.1756C34.589 24.1542 34.601 24.1252 34.601 24.095V24.088C34.5994 24.059 34.5867 24.0317 34.5654 24.012C34.5441 23.9922 34.516 23.9814 34.487 23.982V23.98ZM13.685 23.982C13.6552 23.9823 13.6267 23.9943 13.6057 24.0154C13.5848 24.0366 13.573 24.0652 13.573 24.095C13.573 24.157 13.623 24.208 13.685 24.209C13.7151 24.2087 13.7438 24.1966 13.765 24.1753C13.7861 24.1539 13.798 24.1251 13.798 24.095C13.798 24.065 13.7861 24.0363 13.7649 24.0151C13.7437 23.9939 13.715 23.982 13.685 23.982ZM22.681 23.982C22.6512 23.9823 22.6227 23.9943 22.6017 24.0154C22.5808 24.0366 22.569 24.0652 22.569 24.095C22.569 24.157 22.619 24.208 22.681 24.209C22.7111 24.2087 22.7398 24.1966 22.761 24.1753C22.7821 24.1539 22.794 24.1251 22.794 24.095C22.7941 24.0801 22.7913 24.0654 22.7857 24.0516C22.78 24.0378 22.7717 24.0253 22.7612 24.0148C22.7507 24.0043 22.7382 23.996 22.7244 23.9903C22.7106 23.9847 22.6959 23.9819 22.681 23.982ZM27.179 23.982C27.1642 23.982 27.1496 23.9849 27.1359 23.9906C27.1222 23.9963 27.1099 24.0046 27.0994 24.0152C27.089 24.0257 27.0808 24.0381 27.0752 24.0518C27.0697 24.0655 27.0669 24.0802 27.067 24.095C27.067 24.157 27.117 24.208 27.179 24.209C27.2091 24.2087 27.2378 24.1966 27.259 24.1753C27.2801 24.1539 27.292 24.1251 27.292 24.095C27.2921 24.0801 27.2893 24.0654 27.2837 24.0516C27.278 24.0378 27.2697 24.0253 27.2592 24.0148C27.2487 24.0043 27.2362 23.996 27.2224 23.9903C27.2086 23.9847 27.1939 23.9819 27.179 23.982ZM15.029 26.812C14.6046 26.812 14.1977 26.9806 13.8976 27.2806C13.5976 27.5807 13.429 27.9876 13.429 28.412C13.429 28.8363 13.5976 29.2433 13.8976 29.5434C14.1977 29.8434 14.6046 30.012 15.029 30.012C15.4533 30.012 15.8603 29.8434 16.1604 29.5434C16.4604 29.2433 16.629 28.8363 16.629 28.412C16.629 27.9876 16.4604 27.5807 16.1604 27.2806C15.8603 26.9806 15.4533 26.812 15.029 26.812ZM18.651 26.812C18.4376 26.8067 18.2253 26.8441 18.0265 26.9221C17.8278 27.0001 17.6467 27.117 17.4939 27.2661C17.341 27.4151 17.2196 27.5933 17.1366 27.79C17.0537 27.9867 17.011 28.198 17.011 28.4115C17.011 28.625 17.0537 28.8363 17.1366 29.033C17.2196 29.2297 17.341 29.4079 17.4939 29.5569C17.6467 29.706 17.8278 29.8229 18.0265 29.9009C18.2253 29.9789 18.4376 30.0163 18.651 30.011C19.0683 30.0006 19.465 29.8275 19.7564 29.5286C20.0479 29.2298 20.211 28.8289 20.211 28.4115C20.211 27.9941 20.0479 27.5932 19.7564 27.2944C19.465 26.9955 19.0683 26.8224 18.651 26.812ZM22.276 26.812C22.0626 26.8067 21.8503 26.8441 21.6515 26.9221C21.4528 27.0001 21.2717 27.117 21.1189 27.2661C20.966 27.4151 20.8446 27.5933 20.7616 27.79C20.6787 27.9867 20.636 28.198 20.636 28.4115C20.636 28.625 20.6787 28.8363 20.7616 29.033C20.8446 29.2297 20.966 29.4079 21.1189 29.5569C21.2717 29.706 21.4528 29.8229 21.6515 29.9009C21.8503 29.9789 22.0626 30.0163 22.276 30.011C22.6933 30.0006 23.09 29.8275 23.3814 29.5286C23.6729 29.2298 23.836 28.8289 23.836 28.4115C23.836 27.9941 23.6729 27.5932 23.3814 27.2944C23.09 26.9955 22.6933 26.8224 22.276 26.812ZM25.899 26.812C25.4746 26.812 25.0677 26.9806 24.7676 27.2806C24.4676 27.5807 24.299 27.9876 24.299 28.412C24.299 28.8363 24.4676 29.2433 24.7676 29.5434C25.0677 29.8434 25.4746 30.012 25.899 30.012C26.3233 30.012 26.7303 29.8434 27.0304 29.5434C27.3304 29.2433 27.499 28.8363 27.499 28.412C27.499 27.9876 27.3304 27.5807 27.0304 27.2806C26.7303 26.9806 26.3233 26.812 25.899 26.812ZM29.522 26.812C29.3086 26.8067 29.0963 26.8441 28.8975 26.9221C28.6988 27.0001 28.5177 27.117 28.3649 27.2661C28.212 27.4151 28.0906 27.5933 28.0076 27.79C27.9247 27.9867 27.882 28.198 27.882 28.4115C27.882 28.625 27.9247 28.8363 28.0076 29.033C28.0906 29.2297 28.212 29.4079 28.3649 29.5569C28.5177 29.706 28.6988 29.8229 28.8975 29.9009C29.0963 29.9789 29.3086 30.0163 29.522 30.011C29.9393 30.0006 30.336 29.8275 30.6274 29.5286C30.9189 29.2298 31.082 28.8289 31.082 28.4115C31.082 27.9941 30.9189 27.5932 30.6274 27.2944C30.336 26.9955 29.9393 26.8224 29.522 26.812ZM33.148 26.812C32.9346 26.8067 32.7222 26.8441 32.5235 26.9221C32.3248 27.0001 32.1437 27.117 31.9909 27.2661C31.838 27.4151 31.7166 27.5933 31.6336 27.79C31.5507 27.9867 31.508 28.198 31.508 28.4115C31.508 28.625 31.5507 28.8363 31.6336 29.033C31.7166 29.2297 31.838 29.4079 31.9909 29.5569C32.1437 29.706 32.3248 29.8229 32.5235 29.9009C32.7222 29.9789 32.9346 30.0163 33.148 30.011C33.5653 30.0006 33.962 29.8275 34.2534 29.5286C34.5449 29.2298 34.708 28.8289 34.708 28.4115C34.708 27.9941 34.5449 27.5932 34.2534 27.2944C33.962 26.9955 33.5653 26.8224 33.148 26.812ZM14.248 32.98C14.2179 32.98 14.1891 32.9919 14.1677 33.013C14.1464 33.0342 14.1343 33.0629 14.134 33.093C14.134 33.155 14.185 33.206 14.247 33.207C14.308 33.207 14.357 33.155 14.358 33.093C14.3585 33.087 14.3585 33.081 14.358 33.075C14.3539 33.0488 14.3406 33.0249 14.3204 33.0076C14.3002 32.9904 14.2745 32.9809 14.248 32.981V32.98ZM14.81 32.98C14.7951 32.9799 14.7803 32.9827 14.7664 32.9883C14.7526 32.9939 14.74 33.0022 14.7294 33.0127C14.7188 33.0232 14.7104 33.0357 14.7047 33.0495C14.6989 33.0633 14.696 33.0781 14.696 33.093C14.696 33.155 14.748 33.208 14.81 33.207C14.87 33.207 14.92 33.155 14.92 33.093C14.9205 33.087 14.9205 33.081 14.92 33.075C14.9159 33.0488 14.9026 33.0249 14.8824 33.0076C14.8622 32.9904 14.8365 32.9809 14.81 32.981V32.98ZM15.372 32.98C15.357 32.9801 15.3422 32.9832 15.3284 32.9891C15.3147 32.9949 15.3022 33.0034 15.2917 33.0141C15.2812 33.0248 15.2729 33.0374 15.2673 33.0513C15.2617 33.0652 15.2589 33.08 15.259 33.095C15.259 33.157 15.31 33.209 15.372 33.209C15.433 33.209 15.482 33.157 15.483 33.095V33.088C15.4815 33.0597 15.4693 33.033 15.4489 33.0133C15.4285 32.9937 15.4013 32.9825 15.373 32.982V32.98H15.372ZM15.935 32.98C15.9199 32.98 15.905 32.983 15.8911 32.9888C15.8772 32.9946 15.8646 33.003 15.854 33.0137C15.8434 33.0244 15.835 33.0371 15.8294 33.0511C15.8237 33.065 15.8209 33.0799 15.821 33.095C15.821 33.157 15.873 33.209 15.935 33.209C15.995 33.209 16.045 33.157 16.045 33.095V33.088C16.0435 33.0597 16.0313 33.033 16.0109 33.0133C15.9905 32.9937 15.9633 32.9825 15.935 32.982V32.98ZM16.497 32.98C16.482 32.9801 16.4672 32.9832 16.4534 32.9891C16.4397 32.9949 16.4272 33.0034 16.4167 33.0141C16.4062 33.0248 16.3979 33.0374 16.3923 33.0513C16.3867 33.0652 16.3839 33.08 16.384 33.095C16.384 33.157 16.435 33.209 16.497 33.209C16.558 33.209 16.607 33.157 16.608 33.095V33.088C16.6065 33.0597 16.5943 33.033 16.5739 33.0133C16.5534 32.9937 16.5263 32.9825 16.498 32.982V32.98H16.497ZM17.057 32.98C17.0273 32.981 16.9991 32.9936 16.9786 33.0151C16.9581 33.0366 16.9467 33.0653 16.947 33.095C16.947 33.157 16.996 33.208 17.057 33.209C17.0872 33.209 17.1162 33.197 17.1376 33.1756C17.159 33.1542 17.171 33.1252 17.171 33.095V33.088C17.1694 33.0592 17.1568 33.0321 17.1358 33.0123C17.1147 32.9926 17.0869 32.9817 17.058 32.982V32.98H17.057ZM17.62 32.98C17.5901 32.9808 17.5617 32.9933 17.541 33.0148C17.5202 33.0363 17.5087 33.0651 17.509 33.095C17.509 33.157 17.559 33.208 17.62 33.209C17.6501 33.2087 17.6788 33.1966 17.7 33.1753C17.7211 33.1539 17.733 33.1251 17.733 33.095V33.088C17.7314 33.0592 17.7188 33.0321 17.6978 33.0123C17.6767 32.9926 17.6489 32.9817 17.62 32.982V32.98ZM18.183 32.98C18.1529 32.9805 18.1243 32.9929 18.1033 33.0144C18.0823 33.036 18.0707 33.0649 18.071 33.095C18.071 33.157 18.121 33.208 18.183 33.209C18.2131 33.2087 18.2418 33.1966 18.263 33.1753C18.2841 33.1539 18.296 33.1251 18.296 33.095V33.088C18.2944 33.0592 18.2818 33.0321 18.2608 33.0123C18.2397 32.9926 18.2119 32.9817 18.183 32.982V32.98ZM18.745 32.98C18.7303 32.9801 18.7157 32.9832 18.7022 32.9889C18.6887 32.9946 18.6764 33.003 18.6661 33.0135C18.6558 33.024 18.6476 33.0364 18.6421 33.0501C18.6366 33.0637 18.6339 33.0783 18.634 33.093C18.634 33.155 18.684 33.206 18.745 33.207C18.806 33.207 18.855 33.155 18.856 33.093C18.8565 33.087 18.8565 33.081 18.856 33.075C18.8519 33.0488 18.8386 33.0249 18.8184 33.0076C18.7982 32.9904 18.7725 32.9809 18.746 32.981L18.745 32.98ZM19.308 32.98C19.2776 32.98 19.2485 32.9921 19.227 33.0135C19.2056 33.035 19.1935 33.0641 19.1935 33.0945C19.1935 33.1249 19.2056 33.154 19.227 33.1755C19.2485 33.1969 19.2776 33.209 19.308 33.209C19.368 33.209 19.418 33.157 19.418 33.095V33.088C19.4165 33.0597 19.4043 33.033 19.3839 33.0133C19.3635 32.9937 19.3363 32.9825 19.308 32.982V32.98ZM19.87 32.98C19.8396 32.98 19.8105 32.9921 19.789 33.0135C19.7676 33.035 19.7555 33.0641 19.7555 33.0945C19.7555 33.1249 19.7676 33.154 19.789 33.1755C19.8105 33.1969 19.8396 33.209 19.87 33.209C19.931 33.209 19.98 33.157 19.981 33.095V33.088C19.9795 33.0597 19.9673 33.033 19.9469 33.0133C19.9265 32.9937 19.8993 32.9825 19.871 32.982V32.98H19.87ZM20.433 32.98C20.4026 32.98 20.3735 32.9921 20.352 33.0135C20.3306 33.035 20.3185 33.0641 20.3185 33.0945C20.3185 33.1249 20.3306 33.154 20.352 33.1755C20.3735 33.1969 20.4026 33.209 20.433 33.209C20.493 33.209 20.543 33.157 20.543 33.095V33.088C20.5415 33.0597 20.5293 33.033 20.5089 33.0133C20.4885 32.9937 20.4613 32.9825 20.433 32.982V32.98ZM20.995 32.98C20.9646 32.98 20.9355 32.9921 20.914 33.0135C20.8926 33.035 20.8805 33.0641 20.8805 33.0945C20.8805 33.1249 20.8926 33.154 20.914 33.1755C20.9355 33.1969 20.9646 33.209 20.995 33.209C21.056 33.209 21.105 33.157 21.106 33.095V33.088C21.1045 33.0597 21.0923 33.033 21.0719 33.0133C21.0515 32.9937 21.0243 32.9825 20.996 32.982V32.98H20.995ZM21.555 32.98C21.5253 32.981 21.4972 32.9936 21.4766 33.0151C21.4561 33.0366 21.4447 33.0653 21.445 33.095C21.445 33.157 21.495 33.208 21.555 33.209C21.5852 33.209 21.6142 33.197 21.6356 33.1756C21.657 33.1542 21.669 33.1252 21.669 33.095V33.088C21.6674 33.0592 21.6548 33.0321 21.6338 33.0123C21.6127 32.9926 21.5849 32.9817 21.556 32.982V32.98H21.555ZM22.118 32.98C22.0881 32.9808 22.0597 32.9933 22.039 33.0148C22.0182 33.0363 22.0067 33.0651 22.007 33.095C22.007 33.157 22.057 33.208 22.118 33.209C22.1481 33.2087 22.1768 33.1966 22.198 33.1753C22.2191 33.1539 22.231 33.1251 22.231 33.095V33.088C22.2294 33.0592 22.2168 33.0321 22.1958 33.0123C22.1747 32.9926 22.1469 32.9817 22.118 32.982V32.98ZM23.243 32.98C23.2283 32.9801 23.2137 32.9832 23.2002 32.9889C23.1867 32.9946 23.1744 33.003 23.1641 33.0135C23.1538 33.024 23.1456 33.0364 23.1401 33.0501C23.1346 33.0637 23.1319 33.0783 23.132 33.093C23.132 33.155 23.182 33.206 23.243 33.207C23.304 33.207 23.354 33.155 23.355 33.093C23.3555 33.087 23.3555 33.081 23.355 33.075C23.3509 33.0484 23.3373 33.0242 23.3167 33.0069C23.2961 32.9897 23.2699 32.9804 23.243 32.981V32.98ZM23.806 32.98C23.7911 32.9799 23.7763 32.9827 23.7624 32.9883C23.7486 32.9939 23.736 33.0022 23.7254 33.0127C23.7148 33.0232 23.7064 33.0357 23.7007 33.0495C23.6949 33.0633 23.692 33.0781 23.692 33.093C23.692 33.155 23.744 33.208 23.806 33.207C23.866 33.207 23.916 33.155 23.917 33.093C23.9175 33.087 23.9175 33.081 23.917 33.075C23.9129 33.0486 23.8994 33.0245 23.879 33.0073C23.8586 32.99 23.8327 32.9807 23.806 32.981V32.98ZM24.368 32.98C24.353 32.9801 24.3382 32.9832 24.3244 32.9891C24.3107 32.9949 24.2982 33.0034 24.2877 33.0141C24.2772 33.0248 24.2689 33.0374 24.2633 33.0513C24.2577 33.0652 24.2549 33.08 24.255 33.095C24.255 33.157 24.306 33.209 24.368 33.209C24.429 33.209 24.478 33.157 24.48 33.095V33.088C24.4785 33.0593 24.466 33.0324 24.4451 33.0126C24.4243 32.9929 24.3967 32.9819 24.368 32.982V32.98ZM24.931 32.98C24.9159 32.98 24.901 32.983 24.8871 32.9888C24.8732 32.9946 24.8606 33.003 24.85 33.0137C24.8394 33.0244 24.831 33.0371 24.8254 33.0511C24.8197 33.065 24.8169 33.0799 24.817 33.095C24.817 33.157 24.869 33.209 24.931 33.209C24.991 33.209 25.041 33.157 25.042 33.095V33.088C25.0405 33.0595 25.0281 33.0327 25.0075 33.013C24.9869 32.9933 24.9595 32.9822 24.931 32.982V32.98ZM25.491 32.98C25.4611 32.9808 25.4327 32.9933 25.412 33.0148C25.3912 33.0363 25.3797 33.0651 25.38 33.095C25.38 33.157 25.43 33.208 25.491 33.209C25.5212 33.209 25.5502 33.197 25.5716 33.1756C25.593 33.1542 25.605 33.1252 25.605 33.095V33.088C25.6034 33.059 25.5907 33.0317 25.5694 33.012C25.5481 32.9922 25.52 32.9814 25.491 32.982V32.98ZM26.054 32.98C26.0239 32.9805 25.9953 32.9929 25.9743 33.0144C25.9533 33.036 25.9417 33.0649 25.942 33.095C25.942 33.157 25.992 33.208 26.054 33.209C26.0841 33.2087 26.1128 33.1966 26.134 33.1753C26.1551 33.1539 26.167 33.1251 26.167 33.095V33.088C26.1654 33.0592 26.1528 33.0321 26.1318 33.0123C26.1107 32.9926 26.0829 32.9817 26.054 32.982V32.98ZM26.616 32.98C26.5861 32.9808 26.5577 32.9933 26.537 33.0148C26.5162 33.0363 26.5047 33.0651 26.505 33.095C26.505 33.157 26.555 33.208 26.616 33.209C26.6462 33.209 26.6752 33.197 26.6966 33.1756C26.718 33.1542 26.73 33.1252 26.73 33.095V33.088C26.7284 33.059 26.7157 33.0317 26.6944 33.012C26.6731 32.9922 26.645 32.9814 26.616 32.982V32.98ZM27.741 32.98C27.7263 32.9801 27.7117 32.9832 27.6982 32.9889C27.6847 32.9946 27.6724 33.003 27.6621 33.0135C27.6518 33.024 27.6436 33.0364 27.6381 33.0501C27.6326 33.0637 27.6299 33.0783 27.63 33.093C27.63 33.155 27.68 33.206 27.741 33.207C27.802 33.207 27.851 33.155 27.852 33.093C27.8525 33.087 27.8525 33.081 27.852 33.075C27.8479 33.0488 27.8346 33.0249 27.8144 33.0076C27.7942 32.9904 27.7685 32.9809 27.742 32.981L27.741 32.98ZM28.304 32.98C28.2736 32.98 28.2445 32.9921 28.223 33.0135C28.2016 33.035 28.1895 33.0641 28.1895 33.0945C28.1895 33.1249 28.2016 33.154 28.223 33.1755C28.2445 33.1969 28.2736 33.209 28.304 33.209C28.364 33.209 28.414 33.157 28.415 33.095V33.088C28.4135 33.0595 28.4011 33.0327 28.3805 33.013C28.3599 32.9933 28.3325 32.9822 28.304 32.982V32.98ZM28.866 32.98C28.8356 32.98 28.8065 32.9921 28.785 33.0135C28.7636 33.035 28.7515 33.0641 28.7515 33.0945C28.7515 33.1249 28.7636 33.154 28.785 33.1755C28.8065 33.1969 28.8356 33.209 28.866 33.209C28.927 33.209 28.976 33.157 28.977 33.095V33.088C28.9755 33.0597 28.9633 33.033 28.9429 33.0133C28.9225 32.9937 28.8953 32.9825 28.867 32.982V32.98H28.866ZM29.429 32.98C29.3986 32.98 29.3695 32.9921 29.348 33.0135C29.3266 33.035 29.3145 33.0641 29.3145 33.0945C29.3145 33.1249 29.3266 33.154 29.348 33.1755C29.3695 33.1969 29.3986 33.209 29.429 33.209C29.489 33.209 29.539 33.157 29.54 33.095V33.088C29.5385 33.0595 29.5261 33.0327 29.5055 33.013C29.4849 32.9933 29.4575 32.9822 29.429 32.982V32.98ZM29.989 32.98C29.9591 32.9808 29.9307 32.9933 29.91 33.0148C29.8892 33.0363 29.8777 33.0651 29.878 33.095C29.878 33.157 29.928 33.208 29.989 33.209C30.0191 33.2087 30.0478 33.1966 30.069 33.1753C30.0901 33.1539 30.102 33.1251 30.102 33.095V33.088C30.1004 33.0592 30.0878 33.0321 30.0668 33.0123C30.0457 32.9926 30.0179 32.9817 29.989 32.982V32.98ZM30.552 32.98C30.5219 32.9805 30.4933 32.9929 30.4723 33.0144C30.4513 33.036 30.4397 33.0649 30.44 33.095C30.44 33.157 30.49 33.208 30.552 33.209C30.5821 33.2087 30.6108 33.1966 30.632 33.1753C30.6531 33.1539 30.665 33.1251 30.665 33.095V33.088C30.6634 33.0592 30.6508 33.0321 30.6298 33.0123C30.6087 32.9926 30.5809 32.9817 30.552 32.982V32.98ZM31.114 32.98C31.0841 32.9808 31.0557 32.9933 31.035 33.0148C31.0142 33.0363 31.0027 33.0651 31.003 33.095C31.003 33.157 31.053 33.208 31.114 33.209C31.1441 33.2087 31.1728 33.1966 31.194 33.1753C31.2151 33.1539 31.227 33.1251 31.227 33.095V33.088C31.2254 33.0592 31.2128 33.0321 31.1918 33.0123C31.1707 32.9926 31.1429 32.9817 31.114 32.982V32.98ZM31.677 32.98C31.6622 32.98 31.6476 32.9829 31.6339 32.9886C31.6202 32.9943 31.6079 33.0026 31.5974 33.0131C31.587 33.0237 31.5788 33.0361 31.5732 33.0498C31.5677 33.0635 31.5649 33.0782 31.565 33.093C31.565 33.155 31.615 33.206 31.677 33.207C31.738 33.207 31.787 33.155 31.788 33.093C31.7884 33.087 31.7884 33.081 31.788 33.075C31.7839 33.0486 31.7704 33.0245 31.75 33.0073C31.7296 32.99 31.7037 32.9807 31.677 32.981V32.98ZM32.239 32.98C32.209 32.98 32.1803 32.9919 32.1591 33.0131C32.1379 33.0343 32.126 33.063 32.126 33.093C32.126 33.155 32.177 33.208 32.239 33.207C32.301 33.207 32.349 33.155 32.351 33.093C32.3514 33.087 32.3514 33.081 32.351 33.075C32.3469 33.0484 32.3333 33.0242 32.3127 33.0069C32.2921 32.9897 32.2659 32.9804 32.239 32.981V32.98ZM32.802 32.98C32.7869 32.98 32.772 32.983 32.7581 32.9888C32.7442 32.9946 32.7316 33.003 32.721 33.0137C32.7104 33.0244 32.702 33.0371 32.6964 33.0511C32.6907 33.065 32.6879 33.0799 32.688 33.095C32.689 33.157 32.74 33.209 32.802 33.209C32.863 33.209 32.912 33.157 32.913 33.095V33.088C32.9115 33.0595 32.8991 33.0327 32.8785 33.013C32.8579 32.9933 32.8305 32.9822 32.802 32.982V32.98ZM33.364 32.98C33.349 32.9801 33.3342 32.9832 33.3204 32.9891C33.3067 32.9949 33.2942 33.0034 33.2837 33.0141C33.2732 33.0248 33.2649 33.0374 33.2593 33.0513C33.2537 33.0652 33.2509 33.08 33.251 33.095C33.251 33.157 33.302 33.209 33.364 33.209C33.426 33.209 33.475 33.157 33.476 33.095V33.088C33.4745 33.0593 33.462 33.0324 33.4411 33.0126C33.4203 32.9929 33.3927 32.9819 33.364 32.982V32.98ZM33.927 32.98C33.9119 32.98 33.897 32.983 33.8831 32.9888C33.8692 32.9946 33.8566 33.003 33.846 33.0137C33.8354 33.0244 33.827 33.0371 33.8214 33.0511C33.8157 33.065 33.8129 33.0799 33.813 33.095C33.814 33.157 33.865 33.209 33.927 33.209C33.988 33.209 34.037 33.157 34.038 33.095V33.088C34.0365 33.0595 34.0241 33.0327 34.0035 33.013C33.9829 32.9933 33.9555 32.9822 33.927 32.982V32.98ZM34.487 32.98C34.4571 32.9808 34.4287 32.9933 34.408 33.0148C34.3872 33.0363 34.3757 33.0651 34.376 33.095C34.376 33.157 34.426 33.208 34.487 33.209C34.5172 33.209 34.5462 33.197 34.5676 33.1756C34.589 33.1542 34.601 33.1252 34.601 33.095V33.088C34.5994 33.059 34.5867 33.0317 34.5654 33.012C34.5441 32.9922 34.516 32.9814 34.487 32.982V32.98ZM13.685 32.982C13.6552 32.9823 13.6267 32.9943 13.6057 33.0154C13.5848 33.0366 13.573 33.0652 13.573 33.095C13.573 33.157 13.623 33.208 13.685 33.209C13.7151 33.2087 13.7438 33.1966 13.765 33.1753C13.7861 33.1539 13.798 33.1251 13.798 33.095C13.798 33.065 13.7861 33.0363 13.7649 33.0151C13.7437 32.9939 13.715 32.982 13.685 32.982ZM22.681 32.982C22.6512 32.9823 22.6227 32.9943 22.6017 33.0154C22.5808 33.0366 22.569 33.0652 22.569 33.095C22.569 33.157 22.619 33.208 22.681 33.209C22.7111 33.2087 22.7398 33.1966 22.761 33.1753C22.7821 33.1539 22.794 33.1251 22.794 33.095C22.794 33.065 22.7821 33.0363 22.7609 33.0151C22.7397 32.9939 22.711 32.982 22.681 32.982ZM27.179 32.982C27.1642 32.982 27.1496 32.9849 27.1359 32.9906C27.1222 32.9963 27.1099 33.0046 27.0994 33.0151C27.089 33.0257 27.0808 33.0381 27.0752 33.0518C27.0697 33.0655 27.0669 33.0802 27.067 33.095C27.067 33.157 27.117 33.208 27.179 33.209C27.2091 33.2087 27.2378 33.1966 27.259 33.1753C27.2801 33.1539 27.292 33.1251 27.292 33.095C27.292 33.065 27.2801 33.0363 27.2589 33.0151C27.2377 32.9939 27.209 32.982 27.179 32.982ZM16.796 35.445C16.5826 35.4397 16.3703 35.4771 16.1715 35.5551C15.9728 35.633 15.7917 35.75 15.6389 35.8991C15.486 36.0481 15.3646 36.2263 15.2816 36.423C15.1987 36.6197 15.156 36.831 15.156 37.0445C15.156 37.258 15.1987 37.4693 15.2816 37.666C15.3646 37.8627 15.486 38.0409 15.6389 38.1899C15.7917 38.339 15.9728 38.4559 16.1715 38.5339C16.3703 38.6119 16.5826 38.6493 16.796 38.644C17.2203 38.644 17.6273 38.4754 17.9274 38.1754C18.2274 37.8753 18.396 37.4683 18.396 37.044C18.396 36.6196 18.2274 36.2127 17.9274 35.9126C17.6273 35.6126 17.2203 35.444 16.796 35.444V35.445ZM20.442 35.445C20.2286 35.4397 20.0163 35.4771 19.8175 35.5551C19.6188 35.633 19.4377 35.75 19.2849 35.8991C19.132 36.0481 19.0106 36.2263 18.9276 36.423C18.8447 36.6197 18.802 36.831 18.802 37.0445C18.802 37.258 18.8447 37.4693 18.9276 37.666C19.0106 37.8627 19.132 38.0409 19.2849 38.1899C19.4377 38.339 19.6188 38.4559 19.8175 38.5339C20.0163 38.6119 20.2286 38.6493 20.442 38.644C20.8663 38.644 21.2733 38.4754 21.5734 38.1754C21.8734 37.8753 22.042 37.4683 22.042 37.044C22.042 36.6196 21.8734 36.2127 21.5734 35.9126C21.2733 35.6126 20.8663 35.444 20.442 35.444V35.445ZM24.089 35.445C23.8756 35.4397 23.6632 35.4771 23.4645 35.5551C23.2658 35.633 23.0847 35.75 22.9319 35.8991C22.779 36.0481 22.6576 36.2263 22.5746 36.423C22.4917 36.6197 22.449 36.831 22.449 37.0445C22.449 37.258 22.4917 37.4693 22.5746 37.666C22.6576 37.8627 22.779 38.0409 22.9319 38.1899C23.0847 38.339 23.2658 38.4559 23.4645 38.5339C23.6632 38.6119 23.8756 38.6493 24.089 38.644C24.5133 38.644 24.9203 38.4754 25.2204 38.1754C25.5204 37.8753 25.689 37.4683 25.689 37.044C25.689 36.6196 25.5204 36.2127 25.2204 35.9126C24.9203 35.6126 24.5133 35.444 24.089 35.444V35.445ZM27.735 35.445C27.5216 35.4397 27.3092 35.4771 27.1105 35.5551C26.9118 35.633 26.7307 35.75 26.5779 35.8991C26.425 36.0481 26.3036 36.2263 26.2206 36.423C26.1377 36.6197 26.095 36.831 26.095 37.0445C26.095 37.258 26.1377 37.4693 26.2206 37.666C26.3036 37.8627 26.425 38.0409 26.5779 38.1899C26.7307 38.339 26.9118 38.4559 27.1105 38.5339C27.3092 38.6119 27.5216 38.6493 27.735 38.644C28.1593 38.644 28.5663 38.4754 28.8664 38.1754C29.1664 37.8753 29.335 37.4683 29.335 37.044C29.335 36.6196 29.1664 36.2127 28.8664 35.9126C28.5663 35.6126 28.1593 35.444 27.735 35.444V35.445ZM31.38 35.445C31.1666 35.4397 30.9543 35.4771 30.7555 35.5551C30.5568 35.633 30.3757 35.75 30.2229 35.8991C30.07 36.0481 29.9486 36.2263 29.8656 36.423C29.7827 36.6197 29.74 36.831 29.74 37.0445C29.74 37.258 29.7827 37.4693 29.8656 37.666C29.9486 37.8627 30.07 38.0409 30.2229 38.1899C30.3757 38.339 30.5568 38.4559 30.7555 38.5339C30.9543 38.6119 31.1666 38.6493 31.38 38.644C31.8043 38.644 32.2113 38.4754 32.5114 38.1754C32.8114 37.8753 32.98 37.4683 32.98 37.044C32.98 36.6196 32.8114 36.2127 32.5114 35.9126C32.2113 35.6126 31.8043 35.444 31.38 35.444V35.445Z" fill="#333333"/>
</svg>
