<svg width="48" height="48" viewBox="0 0 48 48" fill="none" xmlns="http://www.w3.org/2000/svg">
<path d="M28.906 4.08205C23.986 4.06805 19.122 4.12505 14.146 4.12505C13.277 4.12505 12.58 4.82405 12.58 5.69305V42.554C12.58 43.424 13.277 44.124 14.146 44.124H33.852C34.721 44.124 35.42 43.424 35.42 42.554V5.69405C35.42 4.82405 34.721 4.12405 33.852 4.12405C32.2034 4.09983 30.5547 4.08583 28.906 4.08205ZM20.367 5.06405H20.375C20.4043 5.0651 20.4321 5.07762 20.4522 5.09893C20.4724 5.12024 20.4835 5.14862 20.4829 5.17798C20.4824 5.20733 20.4704 5.2353 20.4494 5.25588C20.4285 5.27645 20.4003 5.28798 20.371 5.28798C20.3416 5.28798 20.3134 5.27645 20.2925 5.25588C20.2715 5.2353 20.2595 5.20733 20.259 5.17798C20.2584 5.14862 20.2695 5.12024 20.2897 5.09893C20.3099 5.07762 20.3376 5.0651 20.367 5.06405ZM27.617 5.06405H27.625C27.6543 5.0651 27.682 5.07762 27.7022 5.09893C27.7224 5.12024 27.7335 5.14862 27.7329 5.17798C27.7324 5.20733 27.7204 5.2353 27.6994 5.25588C27.6785 5.27645 27.6503 5.28798 27.621 5.28798C27.5916 5.28798 27.5634 5.27645 27.5425 5.25588C27.5215 5.2353 27.5095 5.20733 27.509 5.17798C27.5084 5.14862 27.5195 5.12024 27.5397 5.09893C27.5599 5.07762 27.5876 5.0651 27.617 5.06405ZM31.893 5.15405C32.0174 5.15252 32.1409 5.17559 32.2564 5.22193C32.3719 5.26826 32.4771 5.33695 32.566 5.42405C32.6554 5.51067 32.7269 5.61413 32.7763 5.72847C32.8256 5.84281 32.8519 5.96578 32.8536 6.09031C32.8552 6.21483 32.8323 6.33846 32.786 6.45409C32.7397 6.56971 32.6711 6.67505 32.584 6.76405L30.775 8.62405C30.6887 8.71523 30.5852 8.78837 30.4704 8.8392C30.3557 8.89003 30.232 8.91754 30.1065 8.92013C29.981 8.92272 29.8563 8.90034 29.7395 8.8543C29.6227 8.80825 29.5163 8.73945 29.4264 8.6519C29.3364 8.56435 29.2648 8.4598 29.2156 8.34432C29.1665 8.22884 29.1407 8.10474 29.1399 7.97923C29.1392 7.85373 29.1633 7.72931 29.2111 7.61323C29.2588 7.49715 29.3291 7.39171 29.418 7.30305L31.227 5.44505C31.3134 5.35535 31.4168 5.28364 31.5311 5.23404C31.6454 5.18444 31.7684 5.15794 31.893 5.15605V5.15405ZM17.893 5.15605C18.0174 5.15452 18.1409 5.17759 18.2564 5.22393C18.3719 5.27026 18.4771 5.33895 18.566 5.42605C18.6554 5.51267 18.7269 5.61613 18.7763 5.73047C18.8256 5.84481 18.8519 5.96778 18.8536 6.0923C18.8552 6.21683 18.8323 6.34046 18.786 6.45609C18.7397 6.57171 18.6711 6.67705 18.584 6.76605L16.775 8.62505C16.6882 8.71415 16.5846 8.78528 16.4704 8.83438C16.3561 8.88348 16.2332 8.90959 16.1088 8.91122C15.9844 8.91284 15.861 8.88995 15.7454 8.84385C15.6299 8.79776 15.5246 8.72935 15.4355 8.64255C15.3464 8.55574 15.2752 8.45224 15.2261 8.33795C15.177 8.22365 15.1509 8.10081 15.1493 7.97642C15.1477 7.85204 15.1706 7.72855 15.2167 7.61301C15.2627 7.49748 15.3312 7.39215 15.418 7.30305L17.227 5.44505C17.3134 5.35535 17.4168 5.28364 17.5311 5.23404C17.6454 5.18444 17.7684 5.15794 17.893 5.15605ZM24.893 5.15605C25.0174 5.15452 25.1409 5.17759 25.2564 5.22393C25.3719 5.27026 25.4771 5.33895 25.566 5.42605C25.6554 5.51267 25.7269 5.61613 25.7763 5.73047C25.8256 5.84481 25.8519 5.96778 25.8536 6.0923C25.8552 6.21683 25.8323 6.34046 25.786 6.45609C25.7397 6.57171 25.6711 6.67705 25.584 6.76605L23.775 8.62505C23.5996 8.805 23.36 8.90794 23.1088 8.91122C22.8576 8.9145 22.6154 8.81786 22.4355 8.64255C22.2555 8.46724 22.1526 8.22763 22.1493 7.97642C22.146 7.72522 22.2426 7.483 22.418 7.30305L24.227 5.44505C24.3134 5.35535 24.4168 5.28364 24.5311 5.23404C24.6454 5.18444 24.7684 5.15794 24.893 5.15605ZM20.367 5.62605H20.375C20.4043 5.6271 20.4321 5.63962 20.4522 5.66093C20.4724 5.68224 20.4835 5.71062 20.4829 5.73998C20.4824 5.76933 20.4704 5.7973 20.4494 5.81788C20.4285 5.83845 20.4003 5.84998 20.371 5.84998C20.3416 5.84998 20.3134 5.83845 20.2925 5.81788C20.2715 5.7973 20.2595 5.76933 20.259 5.73998C20.2584 5.71062 20.2695 5.68224 20.2897 5.66093C20.3099 5.63962 20.3376 5.6271 20.367 5.62605ZM27.617 5.62605H27.625C27.6543 5.6271 27.682 5.63962 27.7022 5.66093C27.7224 5.68224 27.7335 5.71062 27.7329 5.73998C27.7324 5.76933 27.7204 5.7973 27.6994 5.81788C27.6785 5.83845 27.6503 5.84998 27.621 5.84998C27.5916 5.84998 27.5634 5.83845 27.5425 5.81788C27.5215 5.7973 27.5095 5.76933 27.509 5.73998C27.5084 5.71062 27.5195 5.68224 27.5397 5.66093C27.5599 5.63962 27.5876 5.6271 27.617 5.62605ZM20.357 6.18905H20.375C20.436 6.19005 20.485 6.23905 20.486 6.30105C20.486 6.36205 20.436 6.41105 20.375 6.41105C20.3473 6.41034 20.3209 6.39943 20.3009 6.38044C20.2808 6.36144 20.2684 6.33569 20.2662 6.30814C20.264 6.28059 20.272 6.25318 20.2888 6.2312C20.3055 6.20921 20.3298 6.1942 20.357 6.18905ZM27.607 6.18905H27.625C27.686 6.19005 27.735 6.23905 27.736 6.30105C27.736 6.36205 27.686 6.41105 27.625 6.41105C27.5973 6.41034 27.5709 6.39943 27.5509 6.38044C27.5308 6.36144 27.5184 6.33569 27.5162 6.30814C27.514 6.28059 27.522 6.25318 27.5388 6.2312C27.5555 6.20921 27.5798 6.1942 27.607 6.18905ZM20.377 6.74905C20.4068 6.74931 20.4353 6.76142 20.4562 6.78271C20.4771 6.80399 20.4887 6.83271 20.4885 6.86255C20.4882 6.89238 20.4761 6.92089 20.4548 6.9418C20.4335 6.96271 20.4048 6.97431 20.375 6.97405C20.3453 6.97378 20.3169 6.96173 20.2961 6.94054C20.2752 6.91934 20.2637 6.89075 20.264 6.86105C20.2642 6.83134 20.2763 6.80296 20.2975 6.78214C20.3187 6.76133 20.3473 6.74978 20.377 6.75005V6.74905ZM27.627 6.74905C27.6568 6.74931 27.6853 6.76142 27.7062 6.78271C27.7271 6.80399 27.7387 6.83271 27.7385 6.86255C27.7382 6.89238 27.7261 6.92089 27.7048 6.9418C27.6835 6.96271 27.6548 6.97431 27.625 6.97405C27.5953 6.97378 27.5669 6.96173 27.5461 6.94054C27.5252 6.91934 27.5137 6.89075 27.514 6.86105C27.5142 6.83134 27.5263 6.80296 27.5475 6.78214C27.5687 6.76133 27.5973 6.74978 27.627 6.75005V6.74905ZM20.367 7.31205H20.375C20.4043 7.3131 20.4321 7.32562 20.4522 7.34693C20.4724 7.36824 20.4835 7.39662 20.4829 7.42598C20.4824 7.45533 20.4704 7.4833 20.4494 7.50388C20.4285 7.52445 20.4003 7.53598 20.371 7.53598C20.3416 7.53598 20.3134 7.52445 20.2925 7.50388C20.2715 7.4833 20.2595 7.45533 20.259 7.42598C20.2584 7.39662 20.2695 7.36824 20.2897 7.34693C20.3099 7.32562 20.3376 7.3131 20.367 7.31205ZM27.617 7.31205H27.625C27.6543 7.3131 27.682 7.32562 27.7022 7.34693C27.7224 7.36824 27.7335 7.39662 27.7329 7.42598C27.7324 7.45533 27.7204 7.4833 27.6994 7.50388C27.6785 7.52445 27.6503 7.53598 27.621 7.53598C27.5916 7.53598 27.5634 7.52445 27.5425 7.50388C27.5215 7.4833 27.5095 7.45533 27.509 7.42598C27.5084 7.39662 27.5195 7.36824 27.5397 7.34693C27.5599 7.32562 27.5876 7.3131 27.617 7.31205ZM20.367 7.87205H20.375C20.4043 7.8731 20.4321 7.88562 20.4522 7.90693C20.4724 7.92824 20.4835 7.95662 20.4829 7.98598C20.4824 8.01533 20.4704 8.0433 20.4494 8.06388C20.4285 8.08445 20.4003 8.09598 20.371 8.09598C20.3416 8.09598 20.3134 8.08445 20.2925 8.06388C20.2715 8.0433 20.2595 8.01533 20.259 7.98598C20.2584 7.95662 20.2695 7.92824 20.2897 7.90693C20.3099 7.88562 20.3376 7.8731 20.367 7.87205ZM27.617 7.87205H27.625C27.6543 7.8731 27.682 7.88562 27.7022 7.90693C27.7224 7.92824 27.7335 7.95662 27.7329 7.98598C27.7324 8.01533 27.7204 8.0433 27.6994 8.06388C27.6785 8.08445 27.6503 8.09598 27.621 8.09598C27.5916 8.09598 27.5634 8.08445 27.5425 8.06388C27.5215 8.0433 27.5095 8.01533 27.509 7.98598C27.5084 7.95662 27.5195 7.92824 27.5397 7.90693C27.5599 7.88562 27.5876 7.8731 27.617 7.87205ZM20.367 8.43505H20.375C20.4043 8.4361 20.4321 8.44862 20.4522 8.46993C20.4724 8.49124 20.4835 8.51962 20.4829 8.54898C20.4824 8.57833 20.4704 8.6063 20.4494 8.62688C20.4285 8.64745 20.4003 8.65898 20.371 8.65898C20.3416 8.65898 20.3134 8.64745 20.2925 8.62688C20.2715 8.6063 20.2595 8.57833 20.259 8.54898C20.2584 8.51962 20.2695 8.49124 20.2897 8.46993C20.3099 8.44862 20.3376 8.4361 20.367 8.43505ZM27.617 8.43505H27.625C27.6543 8.4361 27.682 8.44862 27.7022 8.46993C27.7224 8.49124 27.7335 8.51962 27.7329 8.54898C27.7324 8.57833 27.7204 8.6063 27.6994 8.62688C27.6785 8.64745 27.6503 8.65898 27.621 8.65898C27.5916 8.65898 27.5634 8.64745 27.5425 8.62688C27.5215 8.6063 27.5095 8.57833 27.509 8.54898C27.5084 8.51962 27.5195 8.49124 27.5397 8.46993C27.5599 8.44862 27.5876 8.4361 27.617 8.43505ZM17.893 8.94905C18.0174 8.94752 18.1409 8.97059 18.2564 9.01693C18.3719 9.06326 18.4771 9.13195 18.566 9.21905C18.6554 9.30567 18.7269 9.40913 18.7763 9.52347C18.8256 9.63781 18.8519 9.76078 18.8536 9.8853C18.8552 10.0098 18.8323 10.1335 18.786 10.2491C18.7397 10.3647 18.6711 10.4701 18.584 10.559L16.775 12.418C16.6882 12.5071 16.5846 12.5783 16.4704 12.6274C16.3561 12.6765 16.2332 12.7026 16.1088 12.7042C15.9844 12.7058 15.861 12.683 15.7454 12.6369C15.6299 12.5908 15.5246 12.5224 15.4355 12.4355C15.3464 12.3487 15.2752 12.2452 15.2261 12.1309C15.177 12.0167 15.1509 11.8938 15.1493 11.7694C15.1477 11.645 15.1706 11.5216 15.2167 11.406C15.2627 11.2905 15.3312 11.1851 15.418 11.096L17.227 9.23805C17.3134 9.14835 17.4168 9.07664 17.5311 9.02704C17.6454 8.97744 17.7684 8.95094 17.893 8.94905ZM24.893 8.94905C25.0174 8.94752 25.1409 8.97059 25.2564 9.01693C25.3719 9.06326 25.4771 9.13195 25.566 9.21905C25.6554 9.30567 25.7269 9.40913 25.7763 9.52347C25.8256 9.63781 25.8519 9.76078 25.8536 9.8853C25.8552 10.0098 25.8323 10.1335 25.786 10.2491C25.7397 10.3647 25.6711 10.4701 25.584 10.559L23.775 12.418C23.6882 12.5071 23.5846 12.5783 23.4704 12.6274C23.3561 12.6765 23.2332 12.7026 23.1088 12.7042C22.9844 12.7058 22.861 12.683 22.7454 12.6369C22.6299 12.5908 22.5246 12.5224 22.4355 12.4355C22.3464 12.3487 22.2752 12.2452 22.2261 12.1309C22.177 12.0167 22.1509 11.8938 22.1493 11.7694C22.1477 11.645 22.1706 11.5216 22.2167 11.406C22.2627 11.2905 22.3312 11.1851 22.418 11.096L24.227 9.23805C24.3134 9.14835 24.4168 9.07664 24.5311 9.02704C24.6454 8.97744 24.7684 8.95094 24.893 8.94905ZM31.893 8.94905C32.0174 8.94752 32.1409 8.97059 32.2564 9.01693C32.3719 9.06326 32.4771 9.13195 32.566 9.21905C32.6554 9.30567 32.7269 9.40913 32.7763 9.52347C32.8256 9.63781 32.8519 9.76078 32.8536 9.8853C32.8552 10.0098 32.8323 10.1335 32.786 10.2491C32.7397 10.3647 32.6711 10.4701 32.584 10.559L30.775 12.418C30.6882 12.5071 30.5846 12.5783 30.4704 12.6274C30.3561 12.6765 30.2332 12.7026 30.1088 12.7042C29.9844 12.7058 29.861 12.683 29.7454 12.6369C29.6299 12.5908 29.5246 12.5224 29.4355 12.4355C29.3464 12.3487 29.2752 12.2452 29.2261 12.1309C29.177 12.0167 29.1509 11.8938 29.1493 11.7694C29.1477 11.645 29.1706 11.5216 29.2167 11.406C29.2627 11.2905 29.3312 11.1851 29.418 11.096L31.227 9.23805C31.3134 9.14835 31.4168 9.07664 31.5311 9.02704C31.6454 8.97744 31.7684 8.95094 31.893 8.94905ZM20.367 8.99805H20.375C20.4043 8.9991 20.4321 9.01162 20.4522 9.03293C20.4724 9.05424 20.4835 9.08262 20.4829 9.11198C20.4824 9.14133 20.4704 9.1693 20.4494 9.18988C20.4285 9.21045 20.4003 9.22198 20.371 9.22198C20.3416 9.22198 20.3134 9.21045 20.2925 9.18988C20.2715 9.1693 20.2595 9.14133 20.259 9.11198C20.2584 9.08262 20.2695 9.05424 20.2897 9.03293C20.3099 9.01162 20.3376 8.9991 20.367 8.99805ZM27.617 8.99805H27.625C27.6543 8.9991 27.682 9.01162 27.7022 9.03293C27.7224 9.05424 27.7335 9.08262 27.7329 9.11198C27.7324 9.14133 27.7204 9.1693 27.6994 9.18988C27.6785 9.21045 27.6503 9.22198 27.621 9.22198C27.5916 9.22198 27.5634 9.21045 27.5425 9.18988C27.5215 9.1693 27.5095 9.14133 27.509 9.11198C27.5084 9.08262 27.5195 9.05424 27.5397 9.03293C27.5599 9.01162 27.5876 8.9991 27.617 8.99805ZM20.367 9.56005H20.375C20.4043 9.5611 20.4321 9.57362 20.4522 9.59493C20.4724 9.61624 20.4835 9.64462 20.4829 9.67398C20.4824 9.70333 20.4704 9.7313 20.4494 9.75188C20.4285 9.77245 20.4003 9.78398 20.371 9.78398C20.3416 9.78398 20.3134 9.77245 20.2925 9.75188C20.2715 9.7313 20.2595 9.70333 20.259 9.67398C20.2584 9.64462 20.2695 9.61624 20.2897 9.59493C20.3099 9.57362 20.3376 9.5611 20.367 9.56005ZM27.617 9.56005H27.625C27.6543 9.5611 27.682 9.57362 27.7022 9.59493C27.7224 9.61624 27.7335 9.64462 27.7329 9.67398C27.7324 9.70333 27.7204 9.7313 27.6994 9.75188C27.6785 9.77245 27.6503 9.78398 27.621 9.78398C27.5916 9.78398 27.5634 9.77245 27.5425 9.75188C27.5215 9.7313 27.5095 9.70333 27.509 9.67398C27.5084 9.64462 27.5195 9.61624 27.5397 9.59493C27.5599 9.57362 27.5876 9.5611 27.617 9.56005ZM20.355 10.123H20.375C20.436 10.123 20.485 10.175 20.486 10.236C20.487 10.298 20.437 10.349 20.375 10.349C20.3601 10.3492 20.3453 10.3463 20.3316 10.3407C20.3178 10.3351 20.3053 10.3268 20.2948 10.3162C20.2842 10.3057 20.2759 10.2932 20.2703 10.2794C20.2647 10.2657 20.2618 10.2509 20.262 10.236C20.262 10.181 20.301 10.13 20.355 10.123ZM27.605 10.123H27.625C27.686 10.123 27.735 10.175 27.736 10.236C27.737 10.298 27.687 10.349 27.625 10.349C27.6101 10.3492 27.5953 10.3463 27.5816 10.3407C27.5678 10.3351 27.5553 10.3268 27.5448 10.3162C27.5342 10.3057 27.5259 10.2932 27.5203 10.2794C27.5147 10.2657 27.5118 10.2509 27.512 10.236C27.512 10.181 27.551 10.13 27.605 10.123ZM20.377 10.683C20.439 10.684 20.489 10.737 20.488 10.799C20.4878 10.8135 20.4849 10.8278 20.4792 10.8411C20.4736 10.8544 20.4653 10.8664 20.455 10.8765C20.4447 10.8867 20.4325 10.8947 20.4191 10.9001C20.4057 10.9055 20.3914 10.9082 20.377 10.908C20.3623 10.9084 20.3476 10.9059 20.3339 10.9006C20.3202 10.8952 20.3078 10.8872 20.2972 10.8769C20.2867 10.8667 20.2783 10.8544 20.2726 10.8408C20.2669 10.8273 20.264 10.8127 20.264 10.798C20.264 10.736 20.314 10.683 20.377 10.683ZM27.627 10.683C27.689 10.684 27.739 10.737 27.738 10.799C27.7378 10.8135 27.7349 10.8278 27.7292 10.8411C27.7236 10.8544 27.7153 10.8664 27.705 10.8765C27.6947 10.8867 27.6825 10.8947 27.6691 10.9001C27.6557 10.9055 27.6414 10.9082 27.627 10.908C27.6123 10.9084 27.5976 10.9059 27.5839 10.9006C27.5702 10.8952 27.5578 10.8872 27.5472 10.8769C27.5367 10.8667 27.5283 10.8544 27.5226 10.8408C27.5169 10.8273 27.514 10.8127 27.514 10.798C27.514 10.736 27.564 10.683 27.627 10.683ZM20.377 11.246C20.3917 11.2462 20.4063 11.2492 20.4199 11.255C20.4335 11.2608 20.4459 11.2692 20.4562 11.2797C20.4666 11.2902 20.4747 11.3027 20.4803 11.3164C20.4858 11.3301 20.4886 11.3448 20.4885 11.3595C20.4883 11.3743 20.4853 11.3889 20.4795 11.4025C20.4737 11.4161 20.4653 11.4285 20.4548 11.4388C20.4443 11.4492 20.4318 11.4573 20.4181 11.4629C20.4044 11.4684 20.3897 11.4712 20.375 11.471C20.3451 11.4708 20.3166 11.4587 20.2957 11.4374C20.2748 11.4161 20.2632 11.3874 20.2635 11.3575C20.2637 11.3277 20.2758 11.2992 20.2971 11.2783C20.3184 11.2574 20.3471 11.2458 20.377 11.246ZM27.627 11.246C27.6417 11.2462 27.6563 11.2492 27.6699 11.255C27.6835 11.2608 27.6959 11.2692 27.7062 11.2797C27.7166 11.2902 27.7247 11.3027 27.7303 11.3164C27.7358 11.3301 27.7386 11.3448 27.7385 11.3595C27.7383 11.3743 27.7353 11.3889 27.7295 11.4025C27.7237 11.4161 27.7153 11.4285 27.7048 11.4388C27.6943 11.4492 27.6818 11.4573 27.6681 11.4629C27.6544 11.4684 27.6397 11.4712 27.625 11.471C27.5951 11.4708 27.5666 11.4587 27.5457 11.4374C27.5248 11.4161 27.5132 11.3874 27.5135 11.3575C27.5137 11.3277 27.5258 11.2992 27.5471 11.2783C27.5684 11.2574 27.5971 11.2458 27.627 11.246ZM20.367 11.808C20.3824 11.8069 20.3979 11.8091 20.4125 11.8142C20.4271 11.8194 20.4405 11.8276 20.4517 11.8382C20.463 11.8488 20.472 11.8617 20.478 11.8759C20.4841 11.8902 20.4871 11.9056 20.487 11.921C20.486 11.983 20.437 12.035 20.375 12.035C20.3465 12.0336 20.3196 12.0215 20.2996 12.0011C20.2796 11.9808 20.2679 11.9537 20.2669 11.9252C20.2659 11.8967 20.2756 11.8689 20.2941 11.8472C20.3127 11.8255 20.3386 11.8115 20.367 11.808ZM27.617 11.808C27.6324 11.8069 27.6479 11.8091 27.6625 11.8142C27.6771 11.8194 27.6905 11.8276 27.7017 11.8382C27.713 11.8488 27.722 11.8617 27.728 11.8759C27.7341 11.8902 27.7371 11.9056 27.737 11.921C27.736 11.983 27.687 12.035 27.625 12.035C27.5965 12.0336 27.5696 12.0215 27.5496 12.0011C27.5296 11.9808 27.5179 11.9537 27.5169 11.9252C27.5159 11.8967 27.5256 11.8689 27.5441 11.8472C27.5627 11.8255 27.5886 11.8115 27.617 11.808ZM20.367 12.371H20.375C20.437 12.371 20.487 12.422 20.486 12.484C20.486 12.545 20.436 12.597 20.375 12.598C20.3465 12.5966 20.3196 12.5845 20.2996 12.5641C20.2796 12.5438 20.2679 12.5167 20.2669 12.4882C20.2659 12.4597 20.2756 12.4319 20.2941 12.4102C20.3127 12.3885 20.3386 12.3745 20.367 12.371ZM27.617 12.371H27.625C27.687 12.371 27.737 12.422 27.736 12.484C27.736 12.545 27.686 12.597 27.625 12.598C27.5965 12.5966 27.5696 12.5845 27.5496 12.5641C27.5296 12.5438 27.5179 12.5167 27.5169 12.4882C27.5159 12.4597 27.5256 12.4319 27.5441 12.4102C27.5627 12.3885 27.5886 12.3745 27.617 12.371ZM17.893 12.742C18.0174 12.7405 18.1409 12.7636 18.2564 12.8099C18.3719 12.8563 18.4771 12.9249 18.566 13.012C18.6554 13.0987 18.7269 13.2021 18.7763 13.3165C18.8256 13.4308 18.8519 13.5538 18.8536 13.6783C18.8552 13.8028 18.8323 13.9265 18.786 14.0421C18.7397 14.1577 18.6711 14.2631 18.584 14.352L16.775 16.211C16.6882 16.3001 16.5846 16.3713 16.4704 16.4204C16.3561 16.4695 16.2332 16.4956 16.1088 16.4972C15.9844 16.4988 15.861 16.476 15.7454 16.4299C15.6299 16.3838 15.5246 16.3154 15.4355 16.2285C15.3464 16.1417 15.2752 16.0382 15.2261 15.9239C15.177 15.8097 15.1509 15.6868 15.1493 15.5624C15.1477 15.438 15.1706 15.3146 15.2167 15.199C15.2627 15.0835 15.3312 14.9781 15.418 14.889L17.227 13.031C17.3135 12.9414 17.4168 12.8697 17.5311 12.8201C17.6454 12.7705 17.7684 12.744 17.893 12.742ZM24.893 12.742C25.0174 12.7405 25.1409 12.7636 25.2564 12.8099C25.3719 12.8563 25.4771 12.9249 25.566 13.012C25.6554 13.0987 25.7269 13.2021 25.7763 13.3165C25.8256 13.4308 25.8519 13.5538 25.8536 13.6783C25.8552 13.8028 25.8323 13.9265 25.786 14.0421C25.7397 14.1577 25.6711 14.2631 25.584 14.352L23.775 16.211C23.5996 16.391 23.36 16.4939 23.1088 16.4972C22.8576 16.5005 22.6154 16.4039 22.4355 16.2285C22.2555 16.0532 22.1526 15.8136 22.1493 15.5624C22.146 15.3112 22.2426 15.069 22.418 14.889L24.227 13.031C24.3135 12.9414 24.4168 12.8697 24.5311 12.8201C24.6454 12.7705 24.7684 12.744 24.893 12.742ZM31.893 12.742C32.0174 12.7405 32.1409 12.7636 32.2564 12.8099C32.3719 12.8563 32.4771 12.9249 32.566 13.012C32.6554 13.0987 32.7269 13.2021 32.7763 13.3165C32.8256 13.4308 32.8519 13.5538 32.8536 13.6783C32.8552 13.8028 32.8323 13.9265 32.786 14.0421C32.7397 14.1577 32.6711 14.2631 32.584 14.352L30.775 16.211C30.6882 16.3001 30.5846 16.3713 30.4704 16.4204C30.3561 16.4695 30.2332 16.4956 30.1088 16.4972C29.8576 16.5005 29.6154 16.4039 29.4355 16.2285C29.3464 16.1417 29.2752 16.0382 29.2261 15.9239C29.177 15.8097 29.1509 15.6868 29.1493 15.5624C29.146 15.3112 29.2426 15.069 29.418 14.889L31.227 13.031C31.3135 12.9414 31.4168 12.8697 31.5311 12.8201C31.6454 12.7705 31.7684 12.744 31.893 12.742ZM20.367 12.933H20.375C20.4043 12.9341 20.4321 12.9466 20.4522 12.9679C20.4724 12.9892 20.4835 13.0176 20.4829 13.047C20.4824 13.0763 20.4704 13.1043 20.4494 13.1249C20.4285 13.1454 20.4003 13.157 20.371 13.157C20.3416 13.157 20.3134 13.1454 20.2925 13.1249C20.2715 13.1043 20.2595 13.0763 20.259 13.047C20.2584 13.0176 20.2695 12.9892 20.2897 12.9679C20.3099 12.9466 20.3376 12.9341 20.367 12.933ZM27.617 12.933H27.625C27.6543 12.9341 27.682 12.9466 27.7022 12.9679C27.7224 12.9892 27.7335 13.0176 27.7329 13.047C27.7324 13.0763 27.7204 13.1043 27.6994 13.1249C27.6785 13.1454 27.6503 13.157 27.621 13.157C27.5916 13.157 27.5634 13.1454 27.5425 13.1249C27.5215 13.1043 27.5095 13.0763 27.509 13.047C27.5084 13.0176 27.5195 12.9892 27.5397 12.9679C27.5599 12.9466 27.5876 12.9341 27.617 12.933ZM20.367 13.496H20.375C20.4043 13.4971 20.4321 13.5096 20.4522 13.5309C20.4724 13.5522 20.4835 13.5806 20.4829 13.61C20.4824 13.6393 20.4704 13.6673 20.4494 13.6879C20.4285 13.7084 20.4003 13.72 20.371 13.72C20.3416 13.72 20.3134 13.7084 20.2925 13.6879C20.2715 13.6673 20.2595 13.6393 20.259 13.61C20.2584 13.5806 20.2695 13.5522 20.2897 13.5309C20.3099 13.5096 20.3376 13.4971 20.367 13.496ZM27.617 13.496H27.625C27.6543 13.4971 27.682 13.5096 27.7022 13.5309C27.7224 13.5522 27.7335 13.5806 27.7329 13.61C27.7324 13.6393 27.7204 13.6673 27.6994 13.6879C27.6785 13.7084 27.6503 13.72 27.621 13.72C27.5916 13.72 27.5634 13.7084 27.5425 13.6879C27.5215 13.6673 27.5095 13.6393 27.509 13.61C27.5084 13.5806 27.5195 13.5522 27.5397 13.5309C27.5599 13.5096 27.5876 13.4971 27.617 13.496ZM20.355 14.621H20.375C20.3971 14.6212 20.4187 14.628 20.437 14.6405C20.4553 14.653 20.4695 14.6706 20.4778 14.6911C20.4861 14.7117 20.4881 14.7342 20.4836 14.7559C20.4791 14.7776 20.4682 14.7974 20.4524 14.8129C20.4366 14.8285 20.4166 14.839 20.3948 14.8431C20.3731 14.8472 20.3506 14.8448 20.3302 14.8361C20.3098 14.8275 20.2924 14.813 20.2803 14.7944C20.2681 14.7759 20.2618 14.7542 20.262 14.732C20.262 14.678 20.301 14.629 20.355 14.621ZM27.605 14.621H27.625C27.6471 14.6212 27.6687 14.628 27.687 14.6405C27.7053 14.653 27.7195 14.6706 27.7278 14.6911C27.7361 14.7117 27.7381 14.7342 27.7336 14.7559C27.7291 14.7776 27.7182 14.7974 27.7024 14.8129C27.6866 14.8285 27.6666 14.839 27.6448 14.8431C27.6231 14.8472 27.6006 14.8448 27.5802 14.8361C27.5598 14.8275 27.5424 14.813 27.5303 14.7944C27.5181 14.7759 27.5118 14.7542 27.512 14.732C27.512 14.678 27.551 14.629 27.605 14.621ZM20.355 15.183H20.375C20.436 15.184 20.485 15.233 20.486 15.295C20.4857 15.3164 20.4793 15.3372 20.4676 15.355C20.4559 15.3728 20.4394 15.3869 20.42 15.3957C20.4005 15.4045 20.379 15.4075 20.3579 15.4044C20.3368 15.4014 20.317 15.3924 20.3009 15.3784C20.2847 15.3645 20.2729 15.3463 20.2667 15.3259C20.2606 15.3055 20.2604 15.2837 20.2662 15.2632C20.272 15.2427 20.2835 15.2242 20.2994 15.21C20.3153 15.1958 20.3349 15.1865 20.356 15.183H20.355ZM27.605 15.183H27.625C27.686 15.184 27.735 15.233 27.736 15.295C27.7357 15.3164 27.7293 15.3372 27.7176 15.355C27.7059 15.3728 27.6894 15.3869 27.67 15.3957C27.6505 15.4045 27.629 15.4075 27.6079 15.4044C27.5868 15.4014 27.567 15.3924 27.5509 15.3784C27.5347 15.3645 27.5229 15.3463 27.5167 15.3259C27.5106 15.3055 27.5104 15.2837 27.5162 15.2632C27.522 15.2427 27.5335 15.2242 27.5494 15.21C27.5653 15.1958 27.5849 15.1865 27.606 15.183H27.605ZM20.377 15.744C20.3917 15.7442 20.4063 15.7472 20.4199 15.753C20.4335 15.7588 20.4459 15.7672 20.4562 15.7777C20.4666 15.7882 20.4747 15.8007 20.4803 15.8144C20.4858 15.8281 20.4886 15.8428 20.4885 15.8575C20.4883 15.8723 20.4853 15.8869 20.4795 15.9005C20.4737 15.9141 20.4653 15.9265 20.4548 15.9368C20.4443 15.9472 20.4318 15.9553 20.4181 15.9609C20.4044 15.9664 20.3897 15.9692 20.375 15.969C20.3451 15.9688 20.3166 15.9567 20.2957 15.9354C20.2748 15.9141 20.2632 15.8854 20.2635 15.8555C20.2637 15.8257 20.2758 15.7972 20.2971 15.7763C20.3184 15.7554 20.3471 15.7438 20.377 15.744ZM27.627 15.744C27.6417 15.7442 27.6563 15.7472 27.6699 15.753C27.6835 15.7588 27.6959 15.7672 27.7062 15.7777C27.7166 15.7882 27.7247 15.8007 27.7303 15.8144C27.7358 15.8281 27.7386 15.8428 27.7385 15.8575C27.7383 15.8723 27.7353 15.8869 27.7295 15.9005C27.7237 15.9141 27.7153 15.9265 27.7048 15.9368C27.6943 15.9472 27.6818 15.9553 27.6681 15.9609C27.6544 15.9664 27.6397 15.9692 27.625 15.969C27.5951 15.9688 27.5666 15.9567 27.5457 15.9354C27.5248 15.9141 27.5132 15.8854 27.5135 15.8555C27.5137 15.8257 27.5258 15.7972 27.5471 15.7763C27.5684 15.7554 27.5971 15.7438 27.627 15.744ZM17.893 16.535C18.0174 16.5335 18.1409 16.5566 18.2564 16.6029C18.3719 16.6493 18.4771 16.7179 18.566 16.805C18.6554 16.8917 18.7269 16.9951 18.7763 17.1095C18.8256 17.2238 18.8519 17.3468 18.8536 17.4713C18.8552 17.5958 18.8323 17.7195 18.786 17.8351C18.7397 17.9507 18.6711 18.0561 18.584 18.145L16.775 20.004C16.6881 20.0931 16.5845 20.1643 16.4702 20.2133C16.3558 20.2624 16.2329 20.2885 16.1085 20.2901C15.984 20.2917 15.8605 20.2687 15.745 20.2225C15.6294 20.1764 15.5241 20.1079 15.435 20.021C15.3459 19.9342 15.2747 19.8306 15.2257 19.7163C15.1766 19.6019 15.1505 19.479 15.1489 19.3546C15.1474 19.2301 15.1703 19.1066 15.2165 18.9911C15.2626 18.8755 15.3311 18.7701 15.418 18.681L17.227 16.824C17.3134 16.7343 17.4168 16.6626 17.5311 16.613C17.6454 16.5634 17.7684 16.5369 17.893 16.535ZM24.893 16.535C25.0174 16.5335 25.1409 16.5566 25.2564 16.6029C25.3719 16.6493 25.4771 16.7179 25.566 16.805C25.6554 16.8917 25.7269 16.9951 25.7763 17.1095C25.8256 17.2238 25.8519 17.3468 25.8536 17.4713C25.8552 17.5958 25.8323 17.7195 25.786 17.8351C25.7397 17.9507 25.6711 18.0561 25.584 18.145L23.775 20.004C23.6881 20.0931 23.5845 20.1643 23.4702 20.2133C23.3558 20.2624 23.2329 20.2885 23.1085 20.2901C22.984 20.2917 22.8605 20.2687 22.745 20.2225C22.6294 20.1764 22.5241 20.1079 22.435 20.021C22.3459 19.9342 22.2747 19.8306 22.2257 19.7163C22.1766 19.6019 22.1505 19.479 22.1489 19.3546C22.1474 19.2301 22.1703 19.1066 22.2165 18.9911C22.2626 18.8755 22.3311 18.7701 22.418 18.681L24.227 16.824C24.3134 16.7343 24.4168 16.6626 24.5311 16.613C24.6454 16.5634 24.7684 16.5369 24.893 16.535ZM31.893 16.535C32.0174 16.5335 32.1409 16.5566 32.2564 16.6029C32.3719 16.6493 32.4771 16.7179 32.566 16.805C32.6554 16.8917 32.7269 16.9951 32.7763 17.1095C32.8256 17.2238 32.8519 17.3468 32.8536 17.4713C32.8552 17.5958 32.8323 17.7195 32.786 17.8351C32.7397 17.9507 32.6711 18.0561 32.584 18.145L30.775 20.004C30.6881 20.0931 30.5845 20.1643 30.4702 20.2133C30.3558 20.2624 30.2329 20.2885 30.1085 20.2901C29.984 20.2917 29.8605 20.2687 29.745 20.2225C29.6294 20.1764 29.5241 20.1079 29.435 20.021C29.3459 19.9342 29.2747 19.8306 29.2257 19.7163C29.1766 19.6019 29.1505 19.479 29.1489 19.3546C29.1474 19.2301 29.1703 19.1066 29.2165 18.9911C29.2626 18.8755 29.3311 18.7701 29.418 18.681L31.227 16.824C31.3134 16.7343 31.4168 16.6626 31.5311 16.613C31.6454 16.5634 31.7684 16.5369 31.893 16.535ZM20.367 17.432C20.3822 17.431 20.3976 17.433 20.412 17.4381C20.4265 17.4432 20.4398 17.4511 20.451 17.4615C20.4623 17.4719 20.4713 17.4845 20.4774 17.4986C20.4836 17.5126 20.4869 17.5277 20.487 17.543C20.487 17.5729 20.4751 17.6015 20.454 17.6226C20.4329 17.6437 20.4043 17.6555 20.3745 17.6555C20.3446 17.6555 20.316 17.6437 20.2949 17.6226C20.2738 17.6015 20.262 17.5729 20.262 17.543C20.262 17.483 20.308 17.435 20.367 17.432ZM27.617 17.432C27.6322 17.431 27.6476 17.433 27.662 17.4381C27.6765 17.4432 27.6898 17.4511 27.701 17.4615C27.7123 17.4719 27.7213 17.4845 27.7274 17.4986C27.7336 17.5126 27.7369 17.5277 27.737 17.543C27.737 17.5729 27.7251 17.6015 27.704 17.6226C27.6829 17.6437 27.6543 17.6555 27.6245 17.6555C27.5946 17.6555 27.566 17.6437 27.5449 17.6226C27.5238 17.6015 27.512 17.5729 27.512 17.543C27.512 17.483 27.558 17.435 27.617 17.432ZM20.355 19.119H20.375C20.3971 19.1192 20.4187 19.126 20.437 19.1385C20.4553 19.151 20.4695 19.1686 20.4778 19.1891C20.4861 19.2097 20.4881 19.2322 20.4836 19.2539C20.4791 19.2756 20.4682 19.2954 20.4524 19.3109C20.4366 19.3265 20.4166 19.337 20.3948 19.3411C20.3731 19.3452 20.3506 19.3428 20.3302 19.3341C20.3098 19.3255 20.2924 19.311 20.2803 19.2924C20.2681 19.2739 20.2618 19.2522 20.262 19.23C20.2614 19.2034 20.2705 19.1775 20.2876 19.1571C20.3047 19.1367 20.3286 19.1232 20.355 19.119ZM27.605 19.119H27.625C27.6471 19.1192 27.6687 19.126 27.687 19.1385C27.7053 19.151 27.7195 19.1686 27.7278 19.1891C27.7361 19.2097 27.7381 19.2322 27.7336 19.2539C27.7291 19.2756 27.7182 19.2954 27.7024 19.3109C27.6866 19.3265 27.6666 19.337 27.6448 19.3411C27.6231 19.3452 27.6006 19.3428 27.5802 19.3341C27.5598 19.3255 27.5424 19.311 27.5303 19.2924C27.5181 19.2739 27.5118 19.2522 27.512 19.23C27.5114 19.2034 27.5205 19.1775 27.5376 19.1571C27.5547 19.1367 27.5786 19.1232 27.605 19.119ZM20.377 19.679C20.4068 19.6793 20.4353 19.6914 20.4562 19.7127C20.4771 19.734 20.4887 19.7627 20.4885 19.7925C20.4882 19.8224 20.4761 19.8509 20.4548 19.8718C20.4335 19.8927 20.4048 19.9043 20.375 19.904C20.3453 19.9038 20.3169 19.8917 20.2961 19.8705C20.2752 19.8493 20.2637 19.8208 20.264 19.791C20.2642 19.7613 20.2763 19.733 20.2975 19.7121C20.3187 19.6913 20.3473 19.6798 20.377 19.68V19.679ZM27.627 19.679C27.6568 19.6793 27.6853 19.6914 27.7062 19.7127C27.7271 19.734 27.7387 19.7627 27.7385 19.7925C27.7382 19.8224 27.7261 19.8509 27.7048 19.8718C27.6835 19.8927 27.6548 19.9043 27.625 19.904C27.5953 19.9038 27.5669 19.8917 27.5461 19.8705C27.5252 19.8493 27.5137 19.8208 27.514 19.791C27.5142 19.7613 27.5263 19.733 27.5475 19.7121C27.5687 19.6913 27.5973 19.6798 27.627 19.68V19.679ZM20.367 20.242H20.375C20.4043 20.2431 20.4321 20.2556 20.4522 20.2769C20.4724 20.2982 20.4835 20.3266 20.4829 20.356C20.4824 20.3853 20.4704 20.4133 20.4494 20.4339C20.4285 20.4544 20.4003 20.466 20.371 20.466C20.3416 20.466 20.3134 20.4544 20.2925 20.4339C20.2715 20.4133 20.2595 20.3853 20.259 20.356C20.2584 20.3266 20.2695 20.2982 20.2897 20.2769C20.3099 20.2556 20.3376 20.2431 20.367 20.242ZM27.617 20.242H27.625C27.6543 20.2431 27.682 20.2556 27.7022 20.2769C27.7224 20.2982 27.7335 20.3266 27.7329 20.356C27.7324 20.3853 27.7204 20.4133 27.6994 20.4339C27.6785 20.4544 27.6503 20.466 27.621 20.466C27.5916 20.466 27.5634 20.4544 27.5425 20.4339C27.5215 20.4133 27.5095 20.3853 27.509 20.356C27.5084 20.3266 27.5195 20.2982 27.5397 20.2769C27.5599 20.2556 27.5876 20.2431 27.617 20.242ZM17.893 20.328V20.33C18.0174 20.3285 18.1409 20.3516 18.2564 20.3979C18.3719 20.4443 18.4771 20.5129 18.566 20.6C18.6554 20.6867 18.7269 20.7901 18.7763 20.9045C18.8256 21.0188 18.8519 21.1418 18.8536 21.2663C18.8552 21.3908 18.8323 21.5145 18.786 21.6301C18.7397 21.7457 18.6711 21.8511 18.584 21.94L16.775 23.799C16.5993 23.9787 16.3597 24.0813 16.1085 24.0845C15.8573 24.0877 15.6151 23.9911 15.435 23.816C15.3455 23.7294 15.2742 23.6258 15.2249 23.5115C15.1756 23.3971 15.1494 23.2741 15.1479 23.1496C15.1463 23.0251 15.1693 22.9014 15.2157 22.7859C15.262 22.6703 15.3308 22.565 15.418 22.476L17.227 20.619C17.3134 20.5291 17.4167 20.4571 17.531 20.4072C17.6452 20.3573 17.7683 20.3304 17.893 20.328ZM24.893 20.328V20.33C25.0174 20.3285 25.1409 20.3516 25.2564 20.3979C25.3719 20.4443 25.4771 20.5129 25.566 20.6C25.6554 20.6867 25.7269 20.7901 25.7763 20.9045C25.8256 21.0188 25.8519 21.1418 25.8536 21.2663C25.8552 21.3908 25.8323 21.5145 25.786 21.6301C25.7397 21.7457 25.6711 21.8511 25.584 21.94L23.775 23.799C23.5993 23.9787 23.3597 24.0813 23.1085 24.0845C22.8573 24.0877 22.6151 23.9911 22.435 23.816C22.3455 23.7294 22.2742 23.6258 22.2249 23.5115C22.1756 23.3971 22.1494 23.2741 22.1479 23.1496C22.1463 23.0251 22.1693 22.9014 22.2157 22.7859C22.262 22.6703 22.3308 22.565 22.418 22.476L24.227 20.619C24.3134 20.5291 24.4167 20.4571 24.531 20.4072C24.6452 20.3573 24.7683 20.3304 24.893 20.328ZM31.893 20.328V20.33C32.0174 20.3285 32.1409 20.3516 32.2564 20.3979C32.3719 20.4443 32.4771 20.5129 32.566 20.6C32.6554 20.6867 32.7269 20.7901 32.7763 20.9045C32.8256 21.0188 32.8519 21.1418 32.8536 21.2663C32.8552 21.3908 32.8323 21.5145 32.786 21.6301C32.7397 21.7457 32.6711 21.8511 32.584 21.94L30.775 23.799C30.5993 23.9787 30.3597 24.0813 30.1085 24.0845C29.8573 24.0877 29.6151 23.9911 29.435 23.816C29.3455 23.7294 29.2742 23.6258 29.2249 23.5115C29.1756 23.3971 29.1494 23.2741 29.1479 23.1496C29.1463 23.0251 29.1693 22.9014 29.2157 22.7859C29.262 22.6703 29.3308 22.565 29.418 22.476L31.227 20.619C31.3134 20.5291 31.4167 20.4571 31.531 20.4072C31.6452 20.3573 31.7683 20.3304 31.893 20.328ZM20.367 20.805H20.375C20.4043 20.8061 20.4321 20.8186 20.4522 20.8399C20.4724 20.8612 20.4835 20.8896 20.4829 20.919C20.4824 20.9483 20.4704 20.9763 20.4494 20.9969C20.4285 21.0174 20.4003 21.029 20.371 21.029C20.3416 21.029 20.3134 21.0174 20.2925 20.9969C20.2715 20.9763 20.2595 20.9483 20.259 20.919C20.2584 20.8896 20.2695 20.8612 20.2897 20.8399C20.3099 20.8186 20.3376 20.8061 20.367 20.805ZM27.617 20.805H27.625C27.6543 20.8061 27.682 20.8186 27.7022 20.8399C27.7224 20.8612 27.7335 20.8896 27.7329 20.919C27.7324 20.9483 27.7204 20.9763 27.6994 20.9969C27.6785 21.0174 27.6503 21.029 27.621 21.029C27.5916 21.029 27.5634 21.0174 27.5425 20.9969C27.5215 20.9763 27.5095 20.9483 27.509 20.919C27.5084 20.8896 27.5195 20.8612 27.5397 20.8399C27.5599 20.8186 27.5876 20.8061 27.617 20.805ZM20.367 21.367H20.375C20.4043 21.3681 20.4321 21.3806 20.4522 21.4019C20.4724 21.4232 20.4835 21.4516 20.4829 21.481C20.4824 21.5103 20.4704 21.5383 20.4494 21.5589C20.4285 21.5794 20.4003 21.591 20.371 21.591C20.3416 21.591 20.3134 21.5794 20.2925 21.5589C20.2715 21.5383 20.2595 21.5103 20.259 21.481C20.2584 21.4516 20.2695 21.4232 20.2897 21.4019C20.3099 21.3806 20.3376 21.3681 20.367 21.367ZM27.617 21.367H27.625C27.6543 21.3681 27.682 21.3806 27.7022 21.4019C27.7224 21.4232 27.7335 21.4516 27.7329 21.481C27.7324 21.5103 27.7204 21.5383 27.6994 21.5589C27.6785 21.5794 27.6503 21.591 27.621 21.591C27.5916 21.591 27.5634 21.5794 27.5425 21.5589C27.5215 21.5383 27.5095 21.5103 27.509 21.481C27.5084 21.4516 27.5195 21.4232 27.5397 21.4019C27.5599 21.3806 27.5876 21.3681 27.617 21.367ZM20.367 23.055H20.375C20.4043 23.0561 20.4321 23.0686 20.4522 23.0899C20.4724 23.1112 20.4835 23.1396 20.4829 23.169C20.4824 23.1983 20.4704 23.2263 20.4494 23.2469C20.4285 23.2674 20.4003 23.279 20.371 23.279C20.3416 23.279 20.3134 23.2674 20.2925 23.2469C20.2715 23.2263 20.2595 23.1983 20.259 23.169C20.2584 23.1396 20.2695 23.1112 20.2897 23.0899C20.3099 23.0686 20.3376 23.0561 20.367 23.055ZM27.617 23.055H27.625C27.6543 23.0561 27.682 23.0686 27.7022 23.0899C27.7224 23.1112 27.7335 23.1396 27.7329 23.169C27.7324 23.1983 27.7204 23.2263 27.6994 23.2469C27.6785 23.2674 27.6503 23.279 27.621 23.279C27.5916 23.279 27.5634 23.2674 27.5425 23.2469C27.5215 23.2263 27.5095 23.1983 27.509 23.169C27.5084 23.1396 27.5195 23.1112 27.5397 23.0899C27.5599 23.0686 27.5876 23.0561 27.617 23.055ZM20.355 23.617H20.375C20.3971 23.6172 20.4187 23.624 20.437 23.6365C20.4553 23.649 20.4695 23.6666 20.4778 23.6871C20.4861 23.7077 20.4881 23.7302 20.4836 23.7519C20.4791 23.7736 20.4682 23.7934 20.4524 23.8089C20.4366 23.8245 20.4166 23.835 20.3948 23.8391C20.3731 23.8432 20.3506 23.8408 20.3302 23.8321C20.3098 23.8235 20.2924 23.809 20.2803 23.7904C20.2681 23.7719 20.2618 23.7502 20.262 23.728C20.262 23.674 20.301 23.625 20.355 23.617ZM27.605 23.617H27.625C27.6471 23.6172 27.6687 23.624 27.687 23.6365C27.7053 23.649 27.7195 23.6666 27.7278 23.6871C27.7361 23.7077 27.7381 23.7302 27.7336 23.7519C27.7291 23.7736 27.7182 23.7934 27.7024 23.8089C27.6866 23.8245 27.6666 23.835 27.6448 23.8391C27.6231 23.8432 27.6006 23.8408 27.5802 23.8321C27.5598 23.8235 27.5424 23.809 27.5303 23.7904C27.5181 23.7719 27.5118 23.7502 27.512 23.728C27.512 23.674 27.551 23.625 27.605 23.617ZM31.893 24.121C32.0174 24.1195 32.1409 24.1426 32.2564 24.1889C32.3719 24.2353 32.4771 24.3039 32.566 24.391C32.6554 24.4777 32.7269 24.5811 32.7763 24.6955C32.8256 24.8098 32.8519 24.9328 32.8536 25.0573C32.8552 25.1818 32.8323 25.3055 32.786 25.4211C32.7397 25.5367 32.6711 25.6421 32.584 25.731L30.775 27.591C30.5995 27.7708 30.3599 27.8736 30.1087 27.877C29.8575 27.8804 29.6152 27.784 29.435 27.609C29.3455 27.5224 29.2742 27.4188 29.2249 27.3045C29.1756 27.1901 29.1494 27.0671 29.1479 26.9426C29.1463 26.8181 29.1693 26.6944 29.2157 26.5789C29.262 26.4633 29.3308 26.358 29.418 26.269L31.227 24.412C31.3134 24.3222 31.4167 24.2503 31.531 24.2005C31.6453 24.1507 31.7683 24.1241 31.893 24.122V24.121ZM17.893 24.123C18.0174 24.1215 18.1409 24.1446 18.2564 24.1909C18.3719 24.2373 18.4771 24.3059 18.566 24.393C18.6554 24.4797 18.7269 24.5831 18.7763 24.6975C18.8256 24.8118 18.8519 24.9348 18.8536 25.0593C18.8552 25.1838 18.8323 25.3075 18.786 25.4231C18.7397 25.5387 18.6711 25.6441 18.584 25.733L16.775 27.592C16.5993 27.7717 16.3597 27.8743 16.1085 27.8775C15.8573 27.8807 15.6151 27.7841 15.435 27.609C15.3455 27.5224 15.2742 27.4188 15.2249 27.3045C15.1756 27.1901 15.1494 27.0671 15.1479 26.9426C15.1463 26.8181 15.1693 26.6944 15.2157 26.5789C15.262 26.4633 15.3308 26.358 15.418 26.269L17.227 24.412C17.3133 24.3222 17.4167 24.2503 17.531 24.2005C17.6453 24.1507 17.7683 24.1241 17.893 24.122V24.123ZM24.893 24.123C25.0174 24.1215 25.1409 24.1446 25.2564 24.1909C25.3719 24.2373 25.4771 24.3059 25.566 24.393C25.6554 24.4797 25.7269 24.5831 25.7763 24.6975C25.8256 24.8118 25.8519 24.9348 25.8536 25.0593C25.8552 25.1838 25.8323 25.3075 25.786 25.4231C25.7397 25.5387 25.6711 25.6441 25.584 25.733L23.775 27.592C23.5993 27.7717 23.3597 27.8743 23.1085 27.8775C22.8573 27.8807 22.6151 27.7841 22.435 27.609C22.3455 27.5224 22.2742 27.4188 22.2249 27.3045C22.1756 27.1901 22.1494 27.0671 22.1479 26.9426C22.1463 26.8181 22.1693 26.6944 22.2157 26.5789C22.262 26.4633 22.3308 26.358 22.418 26.269L24.227 24.412C24.3133 24.3222 24.4167 24.2503 24.531 24.2005C24.6453 24.1507 24.7683 24.1241 24.893 24.122V24.123ZM20.355 24.179H20.375C20.436 24.18 20.485 24.229 20.486 24.291C20.4859 24.3124 20.4797 24.3333 20.4681 24.3513C20.4565 24.3692 20.4401 24.3835 20.4206 24.3924C20.4012 24.4013 20.3797 24.4045 20.3585 24.4015C20.3374 24.3986 20.3175 24.3896 20.3012 24.3758C20.285 24.3619 20.273 24.3437 20.2668 24.3232C20.2606 24.3028 20.2603 24.281 20.2661 24.2604C20.2718 24.2399 20.2834 24.2214 20.2993 24.2071C20.3152 24.1929 20.3349 24.1835 20.356 24.18L20.355 24.179ZM27.605 24.179H27.625C27.686 24.18 27.735 24.229 27.736 24.291C27.7359 24.3124 27.7297 24.3333 27.7181 24.3513C27.7065 24.3692 27.6901 24.3835 27.6706 24.3924C27.6512 24.4013 27.6297 24.4045 27.6085 24.4015C27.5874 24.3986 27.5675 24.3896 27.5512 24.3758C27.535 24.3619 27.523 24.3437 27.5168 24.3232C27.5106 24.3028 27.5103 24.281 27.5161 24.2604C27.5218 24.2399 27.5334 24.2214 27.5493 24.2071C27.5652 24.1929 27.5849 24.1835 27.606 24.18L27.605 24.179ZM17.893 27.916C18.0174 27.9145 18.1409 27.9376 18.2564 27.9839C18.3719 28.0303 18.4771 28.0989 18.566 28.186C18.6554 28.2727 18.7269 28.3761 18.7763 28.4905C18.8256 28.6048 18.8519 28.7278 18.8536 28.8523C18.8552 28.9768 18.8323 29.1005 18.786 29.2161C18.7397 29.3317 18.6711 29.437 18.584 29.526L16.775 31.385C16.5993 31.5647 16.3597 31.6673 16.1085 31.6705C15.8573 31.6737 15.6151 31.5771 15.435 31.402C15.3455 31.3154 15.2742 31.2118 15.2249 31.0975C15.1756 30.9831 15.1494 30.8601 15.1479 30.7356C15.1463 30.6111 15.1693 30.4874 15.2157 30.3719C15.262 30.2563 15.3308 30.151 15.418 30.062L17.227 28.205C17.3133 28.1152 17.4167 28.0433 17.531 27.9935C17.6453 27.9437 17.7683 27.9171 17.893 27.915V27.916ZM24.893 27.916C25.0174 27.9145 25.1409 27.9376 25.2564 27.9839C25.3719 28.0303 25.4771 28.0989 25.566 28.186C25.6554 28.2727 25.7269 28.3761 25.7763 28.4905C25.8256 28.6048 25.8519 28.7278 25.8536 28.8523C25.8552 28.9768 25.8323 29.1005 25.786 29.2161C25.7397 29.3317 25.6711 29.437 25.584 29.526L23.775 31.385C23.5993 31.5647 23.3597 31.6673 23.1085 31.6705C22.8573 31.6737 22.6151 31.5771 22.435 31.402C22.3455 31.3154 22.2742 31.2118 22.2249 31.0975C22.1756 30.9831 22.1494 30.8601 22.1479 30.7356C22.1463 30.6111 22.1693 30.4874 22.2157 30.3719C22.262 30.2563 22.3308 30.151 22.418 30.062L24.227 28.205C24.3133 28.1152 24.4167 28.0433 24.531 27.9935C24.6453 27.9437 24.7683 27.9171 24.893 27.915V27.916ZM31.893 27.916C32.0174 27.9145 32.1409 27.9376 32.2564 27.9839C32.3719 28.0303 32.4771 28.0989 32.566 28.186C32.6554 28.2727 32.7269 28.3761 32.7763 28.4905C32.8256 28.6048 32.8519 28.7278 32.8536 28.8523C32.8552 28.9768 32.8323 29.1005 32.786 29.2161C32.7397 29.3317 32.6711 29.437 32.584 29.526L30.775 31.385C30.5993 31.5647 30.3597 31.6673 30.1085 31.6705C29.8573 31.6737 29.6151 31.5771 29.435 31.402C29.3455 31.3154 29.2742 31.2118 29.2249 31.0975C29.1756 30.9831 29.1494 30.8601 29.1479 30.7356C29.1463 30.6111 29.1693 30.4874 29.2157 30.3719C29.262 30.2563 29.3308 30.151 29.418 30.062L31.227 28.205C31.3134 28.1152 31.4167 28.0433 31.531 27.9935C31.6453 27.9437 31.7683 27.9171 31.893 27.915V27.916ZM20.355 28.116H20.357C20.365 28.114 20.367 28.114 20.375 28.116C20.436 28.116 20.485 28.166 20.486 28.226C20.4861 28.2475 20.48 28.2684 20.4686 28.2865C20.4571 28.3046 20.4407 28.319 20.4213 28.3281C20.4019 28.3371 20.3803 28.3404 20.3591 28.3376C20.3379 28.3348 20.318 28.3259 20.3016 28.3121C20.2853 28.2983 20.2732 28.28 20.2669 28.2596C20.2606 28.2391 20.2603 28.2173 20.266 28.1967C20.2717 28.176 20.2833 28.1575 20.2992 28.1432C20.3151 28.1289 20.3348 28.1195 20.356 28.116H20.355ZM27.605 28.116H27.607C27.615 28.114 27.617 28.114 27.625 28.116C27.686 28.116 27.735 28.166 27.736 28.226C27.7361 28.2475 27.73 28.2684 27.7186 28.2865C27.7071 28.3046 27.6907 28.319 27.6713 28.3281C27.6519 28.3371 27.6303 28.3404 27.6091 28.3376C27.5879 28.3348 27.568 28.3259 27.5516 28.3121C27.5353 28.2983 27.5232 28.28 27.5169 28.2596C27.5106 28.2391 27.5103 28.2173 27.516 28.1967C27.5217 28.176 27.5333 28.1575 27.5492 28.1432C27.5651 28.1289 27.5848 28.1195 27.606 28.116H27.605ZM20.377 28.676C20.3917 28.6762 20.4062 28.6792 20.4197 28.685C20.4333 28.6907 20.4456 28.6991 20.4559 28.7096C20.4662 28.7201 20.4743 28.7325 20.4798 28.7461C20.4853 28.7598 20.4881 28.7743 20.488 28.789C20.4878 28.8038 20.4848 28.8183 20.479 28.8318C20.4733 28.8454 20.4649 28.8576 20.4544 28.868C20.444 28.8783 20.4315 28.8864 20.4179 28.8919C20.4043 28.8974 20.3897 28.9002 20.375 28.9C20.3453 28.8998 20.3169 28.8877 20.2961 28.8665C20.2752 28.8453 20.2637 28.8168 20.264 28.787C20.2642 28.7573 20.2763 28.729 20.2975 28.7081C20.3187 28.6873 20.3473 28.6758 20.377 28.676ZM27.627 28.676C27.6417 28.6762 27.6562 28.6792 27.6697 28.685C27.6833 28.6907 27.6956 28.6991 27.7059 28.7096C27.7162 28.7201 27.7243 28.7325 27.7298 28.7461C27.7353 28.7598 27.7381 28.7743 27.738 28.789C27.7378 28.8038 27.7348 28.8183 27.729 28.8318C27.7233 28.8454 27.7149 28.8576 27.7044 28.868C27.694 28.8783 27.6815 28.8864 27.6679 28.8919C27.6543 28.8974 27.6397 28.9002 27.625 28.9C27.5953 28.8998 27.5669 28.8877 27.5461 28.8665C27.5252 28.8453 27.5137 28.8168 27.514 28.787C27.5142 28.7573 27.5263 28.729 27.5475 28.7081C27.5687 28.6873 27.5973 28.6758 27.627 28.676ZM20.367 30.923C20.3823 30.9222 20.3977 30.9246 20.4122 30.9299C20.4267 30.9352 20.4399 30.9433 20.4511 30.9539C20.4623 30.9645 20.4713 30.9772 20.4774 30.9913C20.4836 31.0054 20.4868 31.0206 20.487 31.036C20.487 31.0659 20.4751 31.0945 20.454 31.1156C20.4329 31.1367 20.4043 31.1485 20.3745 31.1485C20.3446 31.1485 20.316 31.1367 20.2949 31.1156C20.2738 31.0945 20.262 31.0659 20.262 31.036C20.262 30.978 20.308 30.927 20.367 30.924V30.923ZM27.617 30.923C27.6323 30.9222 27.6477 30.9246 27.6622 30.9299C27.6767 30.9352 27.6899 30.9433 27.7011 30.9539C27.7123 30.9645 27.7213 30.9772 27.7274 30.9913C27.7336 31.0054 27.7368 31.0206 27.737 31.036C27.737 31.0659 27.7251 31.0945 27.704 31.1156C27.6829 31.1367 27.6543 31.1485 27.6245 31.1485C27.5946 31.1485 27.566 31.1367 27.5449 31.1156C27.5238 31.0945 27.512 31.0659 27.512 31.036C27.512 30.978 27.558 30.927 27.617 30.924V30.923ZM17.893 31.709C18.0174 31.7075 18.1409 31.7306 18.2564 31.7769C18.3719 31.8233 18.4771 31.8919 18.566 31.979C18.6554 32.0657 18.7269 32.1691 18.7763 32.2835C18.8256 32.3978 18.8519 32.5208 18.8536 32.6453C18.8552 32.7698 18.8323 32.8935 18.786 33.0091C18.7397 33.1247 18.6711 33.2301 18.584 33.319L16.775 35.178C16.5993 35.3577 16.3597 35.4603 16.1085 35.4635C15.8573 35.4667 15.6151 35.3701 15.435 35.195C15.3455 35.1084 15.2742 35.0048 15.2249 34.8905C15.1756 34.7761 15.1494 34.6531 15.1479 34.5286C15.1463 34.4041 15.1693 34.2804 15.2157 34.1649C15.262 34.0493 15.3308 33.944 15.418 33.855L17.227 31.998C17.3133 31.9082 17.4167 31.8363 17.531 31.7865C17.6453 31.7367 17.7683 31.7101 17.893 31.708V31.709ZM24.893 31.709C25.0174 31.7075 25.1409 31.7306 25.2564 31.7769C25.3719 31.8233 25.4771 31.8919 25.566 31.979C25.6554 32.0657 25.7269 32.1691 25.7763 32.2835C25.8256 32.3978 25.8519 32.5208 25.8536 32.6453C25.8552 32.7698 25.8323 32.8935 25.786 33.0091C25.7397 33.1247 25.6711 33.2301 25.584 33.319L23.775 35.178C23.5993 35.3577 23.3597 35.4603 23.1085 35.4635C22.8573 35.4667 22.6151 35.3701 22.435 35.195C22.3455 35.1084 22.2742 35.0048 22.2249 34.8905C22.1756 34.7761 22.1494 34.6531 22.1479 34.5286C22.1463 34.4041 22.1693 34.2804 22.2157 34.1649C22.262 34.0493 22.3308 33.944 22.418 33.855L24.227 31.998C24.3133 31.9082 24.4167 31.8363 24.531 31.7865C24.6453 31.7367 24.7683 31.7101 24.893 31.708V31.709ZM31.893 31.709C32.0174 31.7075 32.1409 31.7306 32.2564 31.7769C32.3719 31.8233 32.4771 31.8919 32.566 31.979C32.6554 32.0657 32.7269 32.1691 32.7763 32.2835C32.8256 32.3978 32.8519 32.5208 32.8536 32.6453C32.8552 32.7698 32.8323 32.8935 32.786 33.0091C32.7397 33.1247 32.6711 33.2301 32.584 33.319L30.775 35.178C30.5993 35.3577 30.3597 35.4603 30.1085 35.4635C29.8573 35.4667 29.6151 35.3701 29.435 35.195C29.3455 35.1084 29.2742 35.0048 29.2249 34.8905C29.1756 34.7761 29.1494 34.6531 29.1479 34.5286C29.1463 34.4041 29.1693 34.2804 29.2157 34.1649C29.262 34.0493 29.3308 33.944 29.418 33.855L31.227 31.998C31.3134 31.9082 31.4167 31.8363 31.531 31.7865C31.6453 31.7367 31.7683 31.7101 31.893 31.708V31.709ZM20.355 32.049H20.375C20.3971 32.0492 20.4187 32.056 20.437 32.0685C20.4553 32.0809 20.4695 32.0986 20.4778 32.1191C20.4861 32.1397 20.4881 32.1622 20.4836 32.1839C20.4791 32.2056 20.4682 32.2254 20.4524 32.2409C20.4366 32.2565 20.4166 32.267 20.3948 32.2711C20.3731 32.2752 20.3506 32.2728 20.3302 32.2641C20.3098 32.2555 20.2924 32.241 20.2803 32.2224C20.2681 32.2039 20.2618 32.1822 20.262 32.16C20.262 32.105 20.301 32.056 20.355 32.049ZM27.605 32.049H27.625C27.6471 32.0492 27.6687 32.056 27.687 32.0685C27.7053 32.0809 27.7195 32.0986 27.7278 32.1191C27.7361 32.1397 27.7381 32.1622 27.7336 32.1839C27.7291 32.2056 27.7182 32.2254 27.7024 32.2409C27.6866 32.2565 27.6666 32.267 27.6448 32.2711C27.6231 32.2752 27.6006 32.2728 27.5802 32.2641C27.5598 32.2555 27.5424 32.241 27.5303 32.2224C27.5181 32.2039 27.5118 32.1822 27.512 32.16C27.512 32.105 27.551 32.056 27.605 32.049ZM20.355 32.611H20.375C20.436 32.611 20.485 32.661 20.486 32.722C20.4859 32.7434 20.4797 32.7643 20.4681 32.7823C20.4565 32.8002 20.4401 32.8145 20.4206 32.8234C20.4012 32.8323 20.3797 32.8355 20.3585 32.8325C20.3374 32.8296 20.3175 32.8206 20.3012 32.8068C20.285 32.7929 20.273 32.7747 20.2668 32.7542C20.2606 32.7338 20.2603 32.712 20.2661 32.6914C20.2718 32.6709 20.2834 32.6524 20.2993 32.6381C20.3152 32.6239 20.3349 32.6145 20.356 32.611H20.355ZM27.605 32.611H27.625C27.686 32.611 27.735 32.661 27.736 32.722C27.7359 32.7434 27.7297 32.7643 27.7181 32.7823C27.7065 32.8002 27.6901 32.8145 27.6706 32.8234C27.6512 32.8323 27.6297 32.8355 27.6085 32.8325C27.5874 32.8296 27.5675 32.8206 27.5512 32.8068C27.535 32.7929 27.523 32.7747 27.5168 32.7542C27.5106 32.7338 27.5103 32.712 27.5161 32.6914C27.5218 32.6709 27.5334 32.6524 27.5493 32.6381C27.5652 32.6239 27.5849 32.6145 27.606 32.611H27.605ZM20.377 33.171C20.439 33.173 20.489 33.225 20.488 33.287C20.488 33.3016 20.4851 33.316 20.4795 33.3294C20.4739 33.3428 20.4657 33.355 20.4554 33.3652C20.4451 33.3754 20.4328 33.3835 20.4194 33.389C20.4059 33.3944 20.3915 33.3972 20.377 33.397C20.3623 33.3974 20.3476 33.3949 20.3339 33.3896C20.3202 33.3842 20.3078 33.3762 20.2972 33.3659C20.2867 33.3557 20.2783 33.3434 20.2726 33.3298C20.2669 33.3163 20.264 33.3017 20.264 33.287C20.264 33.224 20.314 33.171 20.377 33.172V33.171ZM27.627 33.171C27.689 33.173 27.739 33.225 27.738 33.287C27.738 33.3016 27.7351 33.316 27.7295 33.3294C27.7239 33.3428 27.7157 33.355 27.7054 33.3652C27.6951 33.3754 27.6828 33.3835 27.6694 33.389C27.6559 33.3944 27.6415 33.3972 27.627 33.397C27.6123 33.3974 27.5976 33.3949 27.5839 33.3896C27.5702 33.3842 27.5578 33.3762 27.5472 33.3659C27.5367 33.3557 27.5283 33.3434 27.5226 33.3298C27.5169 33.3163 27.514 33.3017 27.514 33.287C27.514 33.224 27.564 33.171 27.627 33.172V33.171ZM20.367 33.734H20.375C20.4043 33.7351 20.4321 33.7476 20.4522 33.7689C20.4724 33.7902 20.4835 33.8186 20.4829 33.848C20.4824 33.8773 20.4704 33.9053 20.4494 33.9259C20.4285 33.9464 20.4003 33.958 20.371 33.958C20.3416 33.958 20.3134 33.9464 20.2925 33.9259C20.2715 33.9053 20.2595 33.8773 20.259 33.848C20.2584 33.8186 20.2695 33.7902 20.2897 33.7689C20.3099 33.7476 20.3376 33.7351 20.367 33.734ZM27.617 33.734H27.625C27.6543 33.7351 27.682 33.7476 27.7022 33.7689C27.7224 33.7902 27.7335 33.8186 27.7329 33.848C27.7324 33.8773 27.7204 33.9053 27.6994 33.9259C27.6785 33.9464 27.6503 33.958 27.621 33.958C27.5916 33.958 27.5634 33.9464 27.5425 33.9259C27.5215 33.9053 27.5095 33.8773 27.509 33.848C27.5084 33.8186 27.5195 33.7902 27.5397 33.7689C27.5599 33.7476 27.5876 33.7351 27.617 33.734ZM17.893 35.502C18.0174 35.5005 18.1409 35.5236 18.2564 35.5699C18.3719 35.6163 18.4771 35.6849 18.566 35.772C18.6554 35.8587 18.7269 35.9621 18.7763 36.0765C18.8256 36.1908 18.8519 36.3138 18.8536 36.4383C18.8552 36.5628 18.8323 36.6865 18.786 36.8021C18.7397 36.9177 18.6711 37.023 18.584 37.112L16.775 38.97C16.5995 39.1498 16.3599 39.2526 16.1087 39.256C15.8575 39.2594 15.6152 39.163 15.435 38.988C15.3455 38.9014 15.2742 38.7978 15.2249 38.6835C15.1756 38.5691 15.1494 38.4461 15.1479 38.3216C15.1463 38.1971 15.1693 38.0734 15.2157 37.9579C15.262 37.8423 15.3308 37.737 15.418 37.648L17.227 35.791C17.3133 35.7012 17.4167 35.6293 17.531 35.5795C17.6453 35.5297 17.7683 35.5031 17.893 35.501V35.502ZM24.893 35.502C25.0174 35.5005 25.1409 35.5236 25.2564 35.5699C25.3719 35.6163 25.4771 35.6849 25.566 35.772C25.6554 35.8587 25.7269 35.9621 25.7763 36.0765C25.8256 36.1908 25.8519 36.3138 25.8536 36.4383C25.8552 36.5628 25.8323 36.6865 25.786 36.8021C25.7397 36.9177 25.6711 37.023 25.584 37.112L23.775 38.97C23.5995 39.1498 23.3599 39.2526 23.1087 39.256C22.8575 39.2594 22.6152 39.163 22.435 38.988C22.3455 38.9014 22.2742 38.7978 22.2249 38.6835C22.1756 38.5691 22.1494 38.4461 22.1479 38.3216C22.1463 38.1971 22.1693 38.0734 22.2157 37.9579C22.262 37.8423 22.3308 37.737 22.418 37.648L24.227 35.791C24.3133 35.7012 24.4167 35.6293 24.531 35.5795C24.6453 35.5297 24.7683 35.5031 24.893 35.501V35.502ZM31.893 35.502C32.0174 35.5005 32.1409 35.5236 32.2564 35.5699C32.3719 35.6163 32.4771 35.6849 32.566 35.772C32.6554 35.8587 32.7269 35.9621 32.7763 36.0765C32.8256 36.1908 32.8519 36.3138 32.8536 36.4383C32.8552 36.5628 32.8323 36.6865 32.786 36.8021C32.7397 36.9177 32.6711 37.023 32.584 37.112L30.775 38.97C30.5995 39.1498 30.3599 39.2526 30.1087 39.256C29.8575 39.2594 29.6152 39.163 29.435 38.988C29.3455 38.9014 29.2742 38.7978 29.2249 38.6835C29.1756 38.5691 29.1494 38.4461 29.1479 38.3216C29.1463 38.1971 29.1693 38.0734 29.2157 37.9579C29.262 37.8423 29.3308 37.737 29.418 37.648L31.227 35.791C31.3134 35.7012 31.4167 35.6293 31.531 35.5795C31.6453 35.5297 31.7683 35.5031 31.893 35.501V35.502ZM20.355 37.109H20.375C20.436 37.11 20.485 37.159 20.486 37.22C20.4861 37.2415 20.48 37.2624 20.4686 37.2805C20.4571 37.2986 20.4407 37.313 20.4213 37.3221C20.4019 37.3311 20.3803 37.3344 20.3591 37.3316C20.3379 37.3288 20.318 37.3199 20.3016 37.3061C20.2853 37.2923 20.2732 37.274 20.2669 37.2536C20.2606 37.2331 20.2603 37.2113 20.266 37.1907C20.2717 37.17 20.2833 37.1515 20.2992 37.1372C20.3151 37.1229 20.3348 37.1135 20.356 37.11L20.355 37.109ZM27.605 37.109H27.625C27.686 37.11 27.735 37.159 27.736 37.22C27.7361 37.2415 27.73 37.2624 27.7186 37.2805C27.7071 37.2986 27.6907 37.313 27.6713 37.3221C27.6519 37.3311 27.6303 37.3344 27.6091 37.3316C27.5879 37.3288 27.568 37.3199 27.5516 37.3061C27.5353 37.2923 27.5232 37.274 27.5169 37.2536C27.5106 37.2331 27.5103 37.2113 27.516 37.1907C27.5217 37.17 27.5333 37.1515 27.5492 37.1372C27.5651 37.1229 27.5848 37.1135 27.606 37.11L27.605 37.109ZM17.893 39.295C18.0174 39.2935 18.1409 39.3166 18.2564 39.3629C18.3719 39.4093 18.4771 39.4779 18.566 39.565C18.6554 39.6517 18.7269 39.7551 18.7763 39.8695C18.8256 39.9838 18.8519 40.1068 18.8536 40.2313C18.8552 40.3558 18.8323 40.4795 18.786 40.5951C18.7397 40.7107 18.6711 40.816 18.584 40.905L16.775 42.763C16.5995 42.9428 16.3599 43.0456 16.1087 43.049C15.8575 43.0524 15.6152 42.956 15.435 42.781C15.3455 42.6944 15.2742 42.5908 15.2249 42.4765C15.1756 42.3621 15.1494 42.2391 15.1479 42.1146C15.1463 41.9901 15.1693 41.8664 15.2157 41.7509C15.262 41.6353 15.3308 41.53 15.418 41.441L17.227 39.584C17.3133 39.4942 17.4167 39.4223 17.531 39.3725C17.6453 39.3227 17.7683 39.2961 17.893 39.294V39.295ZM24.893 39.295C25.0174 39.2935 25.1409 39.3166 25.2564 39.3629C25.3719 39.4093 25.4771 39.4779 25.566 39.565C25.6554 39.6517 25.7269 39.7551 25.7763 39.8695C25.8256 39.9838 25.8519 40.1068 25.8536 40.2313C25.8552 40.3558 25.8323 40.4795 25.786 40.5951C25.7397 40.7107 25.6711 40.816 25.584 40.905L23.775 42.763C23.5995 42.9428 23.3599 43.0456 23.1087 43.049C22.8575 43.0524 22.6152 42.956 22.435 42.781C22.3455 42.6944 22.2742 42.5908 22.2249 42.4765C22.1756 42.3621 22.1494 42.2391 22.1479 42.1146C22.1463 41.9901 22.1693 41.8664 22.2157 41.7509C22.262 41.6353 22.3308 41.53 22.418 41.441L24.227 39.584C24.3133 39.4942 24.4167 39.4223 24.531 39.3725C24.6453 39.3227 24.7683 39.2961 24.893 39.294V39.295ZM31.893 39.295C32.0174 39.2935 32.1409 39.3166 32.2564 39.3629C32.3719 39.4093 32.4771 39.4779 32.566 39.565C32.6554 39.6517 32.7269 39.7551 32.7763 39.8695C32.8256 39.9838 32.8519 40.1068 32.8536 40.2313C32.8552 40.3558 32.8323 40.4795 32.786 40.5951C32.7397 40.7107 32.6711 40.816 32.584 40.905L30.775 42.763C30.5995 42.9428 30.3599 43.0456 30.1087 43.049C29.8575 43.0524 29.6152 42.956 29.435 42.781C29.3455 42.6944 29.2742 42.5908 29.2249 42.4765C29.1756 42.3621 29.1494 42.2391 29.1479 42.1146C29.1463 41.9901 29.1693 41.8664 29.2157 41.7509C29.262 41.6353 29.3308 41.53 29.418 41.441L31.227 39.584C31.3134 39.4942 31.4167 39.4223 31.531 39.3725C31.6453 39.3227 31.7683 39.2961 31.893 39.294V39.295ZM20.355 41.045H20.375C20.3971 41.0452 20.4187 41.052 20.437 41.0645C20.4553 41.0769 20.4695 41.0946 20.4778 41.1151C20.4861 41.1356 20.4881 41.1582 20.4836 41.1799C20.4791 41.2016 20.4682 41.2214 20.4524 41.2369C20.4366 41.2525 20.4166 41.263 20.3948 41.2671C20.3731 41.2712 20.3506 41.2688 20.3302 41.2601C20.3098 41.2515 20.2924 41.237 20.2803 41.2184C20.2681 41.1999 20.2618 41.1782 20.262 41.156C20.2614 41.1294 20.2705 41.1035 20.2876 41.0831C20.3047 41.0627 20.3286 41.0492 20.355 41.045ZM27.605 41.045H27.625C27.6471 41.0452 27.6687 41.052 27.687 41.0645C27.7053 41.0769 27.7195 41.0946 27.7278 41.1151C27.7361 41.1356 27.7381 41.1582 27.7336 41.1799C27.7291 41.2016 27.7182 41.2214 27.7024 41.2369C27.6866 41.2525 27.6666 41.263 27.6448 41.2671C27.6231 41.2712 27.6006 41.2688 27.5802 41.2601C27.5598 41.2515 27.5424 41.237 27.5303 41.2184C27.5181 41.1999 27.5118 41.1782 27.512 41.156C27.5114 41.1294 27.5205 41.1035 27.5376 41.0831C27.5547 41.0627 27.5786 41.0492 27.605 41.045ZM20.355 41.607H20.375C20.436 41.608 20.485 41.657 20.486 41.719C20.486 41.78 20.436 41.829 20.375 41.829C20.3454 41.8293 20.317 41.8179 20.2958 41.7973C20.2747 41.7767 20.2625 41.7486 20.262 41.719C20.2611 41.6923 20.2702 41.6661 20.2873 41.6455C20.3044 41.6248 20.3285 41.6112 20.355 41.607ZM27.605 41.607H27.625C27.686 41.608 27.735 41.657 27.736 41.719C27.736 41.78 27.686 41.829 27.625 41.829C27.5954 41.8293 27.567 41.8179 27.5458 41.7973C27.5247 41.7767 27.5125 41.7486 27.512 41.719C27.5111 41.6923 27.5202 41.6661 27.5373 41.6455C27.5544 41.6248 27.5785 41.6112 27.605 41.607ZM20.377 42.167C20.4068 42.1673 20.4353 42.1794 20.4562 42.2007C20.4771 42.222 20.4887 42.2507 20.4885 42.2805C20.4882 42.3104 20.4761 42.3389 20.4548 42.3598C20.4335 42.3807 20.4048 42.3923 20.375 42.392C20.3602 42.3919 20.3457 42.3889 20.3322 42.3831C20.3186 42.3774 20.3064 42.369 20.2961 42.3585C20.2857 42.348 20.2776 42.3356 20.2721 42.322C20.2666 42.3083 20.2638 42.2938 20.264 42.279C20.2641 42.2643 20.2671 42.2498 20.2729 42.2363C20.2786 42.2227 20.287 42.2104 20.2975 42.2001C20.308 42.1898 20.3204 42.1817 20.334 42.1762C20.3477 42.1707 20.3622 42.1679 20.377 42.168V42.167ZM27.627 42.167C27.6568 42.1673 27.6853 42.1794 27.7062 42.2007C27.7271 42.222 27.7387 42.2507 27.7385 42.2805C27.7382 42.3104 27.7261 42.3389 27.7048 42.3598C27.6835 42.3807 27.6548 42.3923 27.625 42.392C27.5953 42.3918 27.5669 42.3797 27.5461 42.3585C27.5252 42.3373 27.5137 42.3088 27.514 42.279C27.5142 42.2493 27.5263 42.221 27.5475 42.2001C27.5687 42.1793 27.5973 42.1678 27.627 42.168V42.167Z" fill="#333333"/>
</svg>
