<svg width="48" height="48" viewBox="0 0 48 48" fill="none" xmlns="http://www.w3.org/2000/svg">
<path fill-rule="evenodd" clip-rule="evenodd" d="M0 0V48H48V0H0ZM14.24 4.1H33.94C34.81 4.1 35.51 4.8 35.51 5.66V42.52C35.51 43.39 34.81 44.09 33.94 44.09H14.24C13.37 44.09 12.67 43.39 12.67 42.52V5.66C12.67 4.79 13.37 4.09 14.24 4.09V4.1V4.1ZM16.31 8.43C16.0999 8.43 15.8918 8.47139 15.6977 8.55179C15.5036 8.6322 15.3272 8.75006 15.1786 8.89863C15.0301 9.0472 14.9122 9.22359 14.8318 9.41771C14.7514 9.61183 14.71 9.81988 14.71 10.03C14.71 10.2401 14.7514 10.4482 14.8318 10.6423C14.9122 10.8364 15.0301 11.0128 15.1786 11.1614C15.3272 11.3099 15.5036 11.4278 15.6977 11.5082C15.8918 11.5886 16.0999 11.63 16.31 11.63C16.7343 11.63 17.1413 11.4614 17.4414 11.1614C17.7414 10.8613 17.91 10.4543 17.91 10.03C17.91 9.60565 17.7414 9.19869 17.4414 8.89863C17.1413 8.59857 16.7343 8.43 16.31 8.43ZM20.14 8.43C19.9299 8.43 19.7218 8.47139 19.5277 8.55179C19.3336 8.6322 19.1572 8.75006 19.0086 8.89863C18.8601 9.0472 18.7422 9.22359 18.6618 9.41771C18.5814 9.61183 18.54 9.81988 18.54 10.03C18.54 10.2401 18.5814 10.4482 18.6618 10.6423C18.7422 10.8364 18.8601 11.0128 19.0086 11.1614C19.1572 11.3099 19.3336 11.4278 19.5277 11.5082C19.7218 11.5886 19.9299 11.63 20.14 11.63C20.5643 11.63 20.9713 11.4614 21.2714 11.1614C21.5714 10.8613 21.74 10.4543 21.74 10.03C21.74 9.60565 21.5714 9.19869 21.2714 8.89863C20.9713 8.59857 20.5643 8.43 20.14 8.43ZM23.98 8.43C23.7699 8.43 23.5618 8.47139 23.3677 8.55179C23.1736 8.6322 22.9972 8.75006 22.8486 8.89863C22.7001 9.0472 22.5822 9.22359 22.5018 9.41771C22.4214 9.61183 22.38 9.81988 22.38 10.03C22.38 10.2401 22.4214 10.4482 22.5018 10.6423C22.5822 10.8364 22.7001 11.0128 22.8486 11.1614C22.9972 11.3099 23.1736 11.4278 23.3677 11.5082C23.5618 11.5886 23.7699 11.63 23.98 11.63C24.4043 11.63 24.8113 11.4614 25.1114 11.1614C25.4114 10.8613 25.58 10.4543 25.58 10.03C25.58 9.60565 25.4114 9.19869 25.1114 8.89863C24.8113 8.59857 24.4043 8.43 23.98 8.43ZM27.81 8.43C27.5999 8.43 27.3918 8.47139 27.1977 8.55179C27.0036 8.6322 26.8272 8.75006 26.6786 8.89863C26.5301 9.0472 26.4122 9.22359 26.3318 9.41771C26.2514 9.61183 26.21 9.81988 26.21 10.03C26.21 10.2401 26.2514 10.4482 26.3318 10.6423C26.4122 10.8364 26.5301 11.0128 26.6786 11.1614C26.8272 11.3099 27.0036 11.4278 27.1977 11.5082C27.3918 11.5886 27.5999 11.63 27.81 11.63C28.2343 11.63 28.6413 11.4614 28.9414 11.1614C29.2414 10.8613 29.41 10.4543 29.41 10.03C29.41 9.60565 29.2414 9.19869 28.9414 8.89863C28.6413 8.59857 28.2343 8.43 27.81 8.43ZM31.65 8.43C31.4399 8.43 31.2318 8.47139 31.0377 8.55179C30.8436 8.6322 30.6672 8.75006 30.5186 8.89863C30.3701 9.0472 30.2522 9.22359 30.1718 9.41771C30.0914 9.61183 30.05 9.81988 30.05 10.03C30.05 10.2401 30.0914 10.4482 30.1718 10.6423C30.2522 10.8364 30.3701 11.0128 30.5186 11.1614C30.6672 11.3099 30.8436 11.4278 31.0377 11.5082C31.2318 11.5886 31.4399 11.63 31.65 11.63C32.0743 11.63 32.4813 11.4614 32.7814 11.1614C33.0814 10.8613 33.25 10.4543 33.25 10.03C33.25 9.60565 33.0814 9.19869 32.7814 8.89863C32.4813 8.59857 32.0743 8.43 31.65 8.43ZM13.69 14.03C13.6747 14.0299 13.6595 14.0331 13.6455 14.0392C13.6314 14.0454 13.6188 14.0544 13.6085 14.0657C13.5981 14.077 13.5902 14.0903 13.5853 14.1048C13.5804 14.1194 13.5786 14.1347 13.58 14.15C13.58 14.21 13.63 14.26 13.68 14.26C13.7061 14.2693 13.7347 14.2685 13.7601 14.2577C13.7856 14.2469 13.8061 14.2268 13.8174 14.2016C13.8288 14.1763 13.8302 14.1478 13.8214 14.1215C13.8126 14.0953 13.7943 14.0733 13.77 14.06C13.7469 14.0432 13.7183 14.036 13.69 14.04V14.03ZM14.25 14.03C14.2347 14.0299 14.2195 14.0331 14.2055 14.0392C14.1914 14.0454 14.1788 14.0544 14.1685 14.0657C14.1581 14.077 14.1502 14.0903 14.1453 14.1048C14.1404 14.1194 14.1386 14.1347 14.14 14.15C14.14 14.21 14.19 14.26 14.25 14.26C14.31 14.26 14.36 14.21 14.36 14.15V14.13C14.3575 14.1026 14.3448 14.0771 14.3244 14.0586C14.3041 14.0401 14.2775 14.0299 14.25 14.03V14.03ZM14.81 14.03C14.7947 14.0299 14.7795 14.0331 14.7655 14.0392C14.7514 14.0454 14.7388 14.0544 14.7285 14.0657C14.7181 14.077 14.7102 14.0903 14.7053 14.1048C14.7004 14.1194 14.6986 14.1347 14.7 14.15C14.7 14.21 14.75 14.26 14.81 14.26C14.87 14.26 14.92 14.21 14.92 14.15V14.13C14.9177 14.1042 14.9065 14.0801 14.8882 14.0618C14.8699 14.0435 14.8458 14.0323 14.82 14.03H14.81ZM15.37 14.03C15.3471 14.0312 15.3251 14.0396 15.3072 14.0539C15.2892 14.0683 15.2762 14.0879 15.27 14.11V14.15C15.27 14.21 15.31 14.26 15.37 14.26C15.3949 14.2644 15.4206 14.2601 15.4427 14.2478C15.4648 14.2356 15.482 14.216 15.4914 14.1925C15.5008 14.1691 15.5018 14.1431 15.4942 14.1189C15.4867 14.0948 15.4711 14.074 15.45 14.06C15.4296 14.0456 15.4049 14.0385 15.38 14.04L15.37 14.03ZM15.94 14.03C15.9166 14.0284 15.8933 14.0344 15.8735 14.0469C15.8537 14.0595 15.8385 14.0781 15.83 14.1L15.82 14.15C15.82 14.21 15.88 14.26 15.94 14.26C15.9629 14.2588 15.9849 14.2504 16.0028 14.2361C16.0208 14.2217 16.0338 14.2021 16.04 14.18C16.0445 14.1641 16.0454 14.1474 16.0426 14.1311C16.0398 14.1148 16.0333 14.0994 16.0237 14.0859C16.0141 14.0725 16.0016 14.0613 15.9871 14.0534C15.9726 14.0454 15.9565 14.0409 15.94 14.04V14.03ZM16.5 14.03C16.4771 14.0312 16.4551 14.0396 16.4372 14.0539C16.4192 14.0683 16.4062 14.0879 16.4 14.11L16.39 14.15C16.39 14.21 16.44 14.26 16.5 14.26C16.5249 14.2644 16.5506 14.2601 16.5727 14.2478C16.5948 14.2356 16.612 14.216 16.6214 14.1925C16.6308 14.1691 16.6318 14.1431 16.6242 14.1189C16.6167 14.0948 16.6011 14.074 16.58 14.06C16.5569 14.0432 16.5283 14.036 16.5 14.04V14.03V14.03ZM17.06 14.03C17.0447 14.0299 17.0295 14.0331 17.0155 14.0392C17.0014 14.0454 16.9888 14.0544 16.9785 14.0657C16.9681 14.077 16.9602 14.0903 16.9553 14.1048C16.9504 14.1194 16.9486 14.1347 16.95 14.15C16.95 14.1718 16.9565 14.193 16.9685 14.2111C16.9806 14.2292 16.9978 14.2433 17.0179 14.2516C17.038 14.26 17.0601 14.2621 17.0815 14.2579C17.1028 14.2536 17.1224 14.2432 17.1378 14.2278C17.1532 14.2124 17.1636 14.1928 17.1679 14.1715C17.1721 14.1501 17.17 14.128 17.1616 14.1079C17.1533 14.0878 17.1392 14.0706 17.1211 14.0585C17.103 14.0465 17.0818 14.04 17.06 14.04V14.03ZM17.62 14.03C17.5971 14.0312 17.5751 14.0396 17.5572 14.0539C17.5392 14.0683 17.5262 14.0879 17.52 14.11V14.15C17.52 14.21 17.56 14.26 17.62 14.26C17.6449 14.2644 17.6706 14.2601 17.6927 14.2478C17.7148 14.2356 17.732 14.216 17.7414 14.1925C17.7508 14.1691 17.7518 14.1431 17.7442 14.1189C17.7367 14.0948 17.7211 14.074 17.7 14.06C17.6769 14.0432 17.6483 14.036 17.62 14.04V14.03ZM18.19 14.03C18.1666 14.0284 18.1433 14.0344 18.1235 14.0469C18.1037 14.0595 18.0885 14.0781 18.08 14.1L18.07 14.15C18.07 14.1718 18.0765 14.193 18.0885 14.2111C18.1006 14.2292 18.1178 14.2433 18.1379 14.2516C18.158 14.26 18.1801 14.2621 18.2015 14.2579C18.2228 14.2536 18.2424 14.2432 18.2578 14.2278C18.2732 14.2124 18.2836 14.1928 18.2879 14.1715C18.2921 14.1501 18.29 14.128 18.2816 14.1079C18.2733 14.0878 18.2592 14.0706 18.2411 14.0585C18.223 14.0465 18.2018 14.04 18.18 14.04L18.19 14.03V14.03ZM18.75 14.03C18.7271 14.0312 18.7051 14.0396 18.6872 14.0539C18.6692 14.0683 18.6562 14.0879 18.65 14.11L18.64 14.15C18.64 14.21 18.69 14.26 18.74 14.26C18.81 14.26 18.86 14.21 18.86 14.15V14.13C18.8575 14.1026 18.8448 14.0771 18.8244 14.0586C18.8041 14.0401 18.7775 14.0299 18.75 14.03V14.03ZM19.31 14.03C19.2947 14.0299 19.2795 14.0331 19.2655 14.0392C19.2514 14.0454 19.2388 14.0544 19.2285 14.0657C19.2181 14.077 19.2102 14.0903 19.2053 14.1048C19.2004 14.1194 19.1986 14.1347 19.2 14.15C19.2 14.21 19.25 14.26 19.31 14.26C19.37 14.26 19.42 14.21 19.42 14.15C19.4201 14.1225 19.4099 14.0959 19.3914 14.0756C19.3729 14.0552 19.3474 14.0425 19.32 14.04L19.31 14.03V14.03ZM19.87 14.03C19.8471 14.0312 19.8251 14.0396 19.8072 14.0539C19.7892 14.0683 19.7762 14.0879 19.77 14.11L19.76 14.15C19.76 14.21 19.81 14.26 19.87 14.26C19.93 14.26 19.98 14.21 19.98 14.15C19.9801 14.1225 19.9699 14.0959 19.9514 14.0756C19.9329 14.0552 19.9074 14.0425 19.88 14.04L19.87 14.03V14.03ZM20.44 14.03C20.4166 14.0284 20.3933 14.0344 20.3735 14.0469C20.3537 14.0595 20.3385 14.0781 20.33 14.1L20.32 14.15C20.32 14.21 20.37 14.26 20.44 14.26C20.5 14.26 20.54 14.21 20.54 14.15C20.5401 14.1225 20.5299 14.0959 20.5114 14.0756C20.4929 14.0552 20.4674 14.0425 20.44 14.04V14.03V14.03ZM21 14.03C20.9771 14.0312 20.9551 14.0396 20.9372 14.0539C20.9192 14.0683 20.9062 14.0879 20.9 14.11C20.89 14.12 20.88 14.14 20.89 14.15C20.89 14.21 20.94 14.26 20.99 14.26C21.0149 14.2644 21.0406 14.2601 21.0627 14.2478C21.0848 14.2356 21.102 14.216 21.1114 14.1925C21.1208 14.1691 21.1218 14.1431 21.1142 14.1189C21.1067 14.0948 21.0911 14.074 21.07 14.06C21.0496 14.0456 21.0249 14.0385 21 14.04V14.03V14.03ZM21.56 14.03C21.5447 14.0299 21.5295 14.0331 21.5155 14.0392C21.5014 14.0454 21.4888 14.0544 21.4785 14.0657C21.4681 14.077 21.4602 14.0903 21.4553 14.1048C21.4504 14.1194 21.4486 14.1347 21.45 14.15C21.45 14.21 21.5 14.26 21.55 14.26C21.5792 14.26 21.6072 14.2484 21.6278 14.2278C21.6484 14.2072 21.66 14.1792 21.66 14.15C21.66 14.1208 21.6484 14.0928 21.6278 14.0722C21.6072 14.0516 21.5792 14.04 21.55 14.04L21.56 14.03V14.03ZM22.12 14.03C22.1047 14.0299 22.0895 14.0331 22.0755 14.0392C22.0614 14.0454 22.0488 14.0544 22.0385 14.0657C22.0281 14.077 22.0202 14.0903 22.0153 14.1048C22.0104 14.1194 22.0086 14.1347 22.01 14.15C22.0101 14.1713 22.0164 14.1921 22.0281 14.2099C22.0398 14.2278 22.0564 14.2418 22.0759 14.2503C22.0954 14.2589 22.117 14.2615 22.138 14.2581C22.1591 14.2546 22.1786 14.245 22.1943 14.2306C22.21 14.2162 22.2212 14.1976 22.2265 14.1769C22.2318 14.1563 22.231 14.1346 22.2242 14.1144C22.2174 14.0942 22.2049 14.0764 22.1882 14.0632C22.1714 14.05 22.1512 14.0419 22.13 14.04L22.12 14.03ZM22.68 14.03C22.6571 14.0312 22.6351 14.0396 22.6172 14.0539C22.5992 14.0683 22.5862 14.0879 22.58 14.11C22.5773 14.1232 22.5773 14.1368 22.58 14.15C22.58 14.21 22.62 14.26 22.68 14.26C22.7092 14.26 22.7372 14.2484 22.7578 14.2278C22.7784 14.2072 22.79 14.1792 22.79 14.15C22.79 14.1208 22.7784 14.0928 22.7578 14.0722C22.7372 14.0516 22.7092 14.04 22.68 14.04V14.03V14.03ZM23.25 14.03C23.2347 14.0299 23.2195 14.0331 23.2055 14.0392C23.1914 14.0454 23.1788 14.0544 23.1685 14.0657C23.1581 14.077 23.1502 14.0903 23.1453 14.1048C23.1404 14.1194 23.1386 14.1347 23.14 14.15C23.14 14.21 23.18 14.26 23.24 14.26C23.31 14.26 23.36 14.21 23.36 14.15V14.13C23.3575 14.1026 23.3448 14.0771 23.3244 14.0586C23.3041 14.0401 23.2775 14.0299 23.25 14.03V14.03ZM23.81 14.03C23.7947 14.0299 23.7795 14.0331 23.7655 14.0392C23.7514 14.0454 23.7388 14.0544 23.7285 14.0657C23.7181 14.077 23.7102 14.0903 23.7053 14.1048C23.7004 14.1194 23.6986 14.1347 23.7 14.15C23.7 14.21 23.75 14.26 23.8 14.26C23.87 14.26 23.92 14.21 23.92 14.15V14.13C23.9175 14.1026 23.9048 14.0771 23.8844 14.0586C23.8641 14.0401 23.8375 14.0299 23.81 14.03V14.03ZM24.37 14.03C24.3471 14.0312 24.3251 14.0396 24.3072 14.0539C24.2892 14.0683 24.2762 14.0879 24.27 14.11L24.26 14.15C24.26 14.21 24.31 14.26 24.37 14.26C24.3949 14.2644 24.4206 14.2601 24.4427 14.2478C24.4648 14.2356 24.482 14.216 24.4914 14.1925C24.5008 14.1691 24.5018 14.1431 24.4942 14.1189C24.4867 14.0948 24.4711 14.074 24.45 14.06C24.4269 14.0432 24.3983 14.036 24.37 14.04V14.03V14.03ZM24.93 14.03C24.9147 14.0299 24.8995 14.0331 24.8855 14.0392C24.8714 14.0454 24.8588 14.0544 24.8485 14.0657C24.8381 14.077 24.8302 14.0903 24.8253 14.1048C24.8204 14.1194 24.8186 14.1347 24.82 14.15C24.8204 14.1677 24.8251 14.185 24.8336 14.2005C24.8421 14.216 24.8542 14.2293 24.869 14.2391C24.8837 14.2489 24.9005 14.255 24.9181 14.2569C24.9357 14.2588 24.9535 14.2564 24.97 14.25C24.9919 14.2415 25.0105 14.2263 25.0231 14.2065C25.0356 14.1867 25.0416 14.1634 25.04 14.14C25.0377 14.1142 25.0265 14.0901 25.0082 14.0718C24.9899 14.0535 24.9658 14.0423 24.94 14.04L24.93 14.03V14.03ZM25.49 14.03C25.4671 14.0312 25.4451 14.0396 25.4272 14.0539C25.4092 14.0683 25.3962 14.0879 25.39 14.11V14.15C25.39 14.21 25.43 14.26 25.49 14.26C25.5149 14.2644 25.5406 14.2601 25.5627 14.2478C25.5848 14.2356 25.602 14.216 25.6114 14.1925C25.6208 14.1691 25.6218 14.1431 25.6142 14.1189C25.6067 14.0948 25.5911 14.074 25.57 14.06C25.5469 14.0432 25.5183 14.036 25.49 14.04V14.03ZM26.06 14.03C26.0447 14.0299 26.0295 14.0331 26.0155 14.0392C26.0014 14.0454 25.9888 14.0544 25.9785 14.0657C25.9681 14.077 25.9602 14.0903 25.9553 14.1048C25.9504 14.1194 25.9486 14.1347 25.95 14.15C25.95 14.21 26 14.26 26.05 14.26C26.0749 14.2644 26.1006 14.2601 26.1227 14.2478C26.1448 14.2356 26.162 14.216 26.1714 14.1925C26.1808 14.1691 26.1818 14.1431 26.1742 14.1189C26.1667 14.0948 26.1511 14.074 26.13 14.06C26.1096 14.0456 26.0849 14.0385 26.06 14.04V14.03ZM26.62 14.03C26.5971 14.0312 26.5751 14.0396 26.5572 14.0539C26.5392 14.0683 26.5262 14.0879 26.52 14.11L26.51 14.15C26.51 14.21 26.56 14.26 26.61 14.26C26.6361 14.2693 26.6647 14.2685 26.6901 14.2577C26.7156 14.2469 26.7361 14.2268 26.7474 14.2016C26.7588 14.1763 26.7602 14.1478 26.7514 14.1215C26.7426 14.0953 26.7243 14.0733 26.7 14.06C26.6769 14.0432 26.6483 14.036 26.62 14.04V14.03ZM27.18 14.03C27.1647 14.0299 27.1495 14.0331 27.1355 14.0392C27.1214 14.0454 27.1088 14.0544 27.0985 14.0657C27.0881 14.077 27.0802 14.0903 27.0753 14.1048C27.0704 14.1194 27.0686 14.1347 27.07 14.15C27.07 14.21 27.12 14.26 27.18 14.26C27.2092 14.26 27.2372 14.2484 27.2578 14.2278C27.2784 14.2072 27.29 14.1792 27.29 14.15C27.29 14.1208 27.2784 14.0928 27.2578 14.0722C27.2372 14.0516 27.2092 14.04 27.18 14.04V14.03V14.03ZM27.74 14.03C27.7171 14.0312 27.6951 14.0396 27.6772 14.0539C27.6592 14.0683 27.6462 14.0879 27.64 14.11V14.15C27.64 14.21 27.68 14.26 27.74 14.26C27.81 14.26 27.85 14.21 27.86 14.15V14.13C27.8575 14.1026 27.8448 14.0771 27.8244 14.0586C27.8041 14.0401 27.7775 14.0299 27.75 14.03H27.74ZM28.31 14.03C28.2866 14.0284 28.2633 14.0344 28.2435 14.0469C28.2237 14.0595 28.2085 14.0781 28.2 14.1L28.19 14.15C28.19 14.21 28.24 14.26 28.31 14.26C28.37 14.26 28.41 14.21 28.41 14.15C28.4101 14.1225 28.3999 14.0959 28.3814 14.0756C28.3629 14.0552 28.3374 14.0425 28.31 14.04V14.03V14.03ZM28.87 14.03C28.8471 14.0312 28.8251 14.0396 28.8072 14.0539C28.7892 14.0683 28.7762 14.0879 28.77 14.11L28.76 14.15C28.76 14.21 28.81 14.26 28.86 14.26C28.93 14.26 28.98 14.21 28.98 14.15C28.98 14.1208 28.9684 14.0928 28.9478 14.0722C28.9272 14.0516 28.8992 14.04 28.87 14.04V14.03ZM29.43 14.03C29.4147 14.0299 29.3995 14.0331 29.3855 14.0392C29.3714 14.0454 29.3588 14.0544 29.3485 14.0657C29.3381 14.077 29.3302 14.0903 29.3253 14.1048C29.3204 14.1194 29.3186 14.1347 29.32 14.15C29.32 14.21 29.37 14.26 29.43 14.26C29.4549 14.2644 29.4806 14.2601 29.5027 14.2478C29.5248 14.2356 29.542 14.216 29.5514 14.1925C29.5608 14.1691 29.5618 14.1431 29.5542 14.1189C29.5467 14.0948 29.5311 14.074 29.51 14.06C29.4869 14.0432 29.4583 14.036 29.43 14.04V14.03ZM29.99 14.03C29.9671 14.0312 29.9451 14.0396 29.9272 14.0539C29.9092 14.0683 29.8962 14.0879 29.89 14.11C29.8873 14.1232 29.8873 14.1368 29.89 14.15C29.89 14.21 29.93 14.26 29.99 14.26C30.0149 14.2644 30.0406 14.2601 30.0627 14.2478C30.0848 14.2356 30.102 14.216 30.1114 14.1925C30.1208 14.1691 30.1218 14.1431 30.1142 14.1189C30.1067 14.0948 30.0911 14.074 30.07 14.06C30.0469 14.0432 30.0183 14.036 29.99 14.04V14.03ZM30.56 14.03C30.5366 14.0284 30.5133 14.0344 30.4935 14.0469C30.4737 14.0595 30.4585 14.0781 30.45 14.1L30.44 14.15C30.44 14.21 30.49 14.26 30.55 14.26C30.5685 14.2613 30.5871 14.2579 30.6039 14.2501C30.6208 14.2422 30.6354 14.2303 30.6463 14.2153C30.6573 14.2003 30.6643 14.1828 30.6667 14.1644C30.6691 14.146 30.6668 14.1273 30.66 14.11C30.6515 14.0881 30.6363 14.0695 30.6165 14.0569C30.5967 14.0444 30.5734 14.0384 30.55 14.04L30.56 14.03ZM31.12 14.03C31.1047 14.0299 31.0895 14.0331 31.0755 14.0392C31.0614 14.0454 31.0488 14.0544 31.0385 14.0657C31.0281 14.077 31.0202 14.0903 31.0153 14.1048C31.0104 14.1194 31.0086 14.1347 31.01 14.15C31.01 14.21 31.06 14.26 31.11 14.26C31.1392 14.2613 31.1677 14.251 31.1892 14.2313C31.2108 14.2116 31.2237 14.1842 31.225 14.155C31.2263 14.1258 31.216 14.0973 31.1963 14.0758C31.1766 14.0542 31.1492 14.0413 31.12 14.04V14.03V14.03ZM31.68 14.03C31.6647 14.0299 31.6495 14.0331 31.6355 14.0392C31.6214 14.0454 31.6088 14.0544 31.5985 14.0657C31.5881 14.077 31.5802 14.0903 31.5753 14.1048C31.5704 14.1194 31.5686 14.1347 31.57 14.15C31.57 14.21 31.62 14.26 31.68 14.26C31.74 14.26 31.79 14.21 31.79 14.15V14.13C31.7875 14.1026 31.7748 14.0771 31.7544 14.0586C31.7341 14.0401 31.7075 14.0299 31.68 14.03V14.03ZM32.24 14.03C32.2171 14.0312 32.1951 14.0396 32.1772 14.0539C32.1592 14.0683 32.1462 14.0879 32.14 14.11L32.13 14.15C32.13 14.21 32.18 14.26 32.24 14.26C32.3 14.26 32.35 14.21 32.35 14.15V14.13C32.3477 14.1042 32.3365 14.0801 32.3182 14.0618C32.2999 14.0435 32.2758 14.0323 32.25 14.03H32.24ZM32.8 14.03C32.7771 14.0312 32.7551 14.0396 32.7372 14.0539C32.7192 14.0683 32.7062 14.0879 32.7 14.11C32.6973 14.1232 32.6973 14.1368 32.7 14.15C32.7 14.21 32.74 14.26 32.8 14.26C32.8249 14.2644 32.8506 14.2601 32.8727 14.2478C32.8948 14.2356 32.912 14.216 32.9214 14.1925C32.9308 14.1691 32.9318 14.1431 32.9242 14.1189C32.9167 14.0948 32.9011 14.074 32.88 14.06C32.8569 14.0432 32.8283 14.036 32.8 14.04V14.03ZM33.37 14.03C33.3471 14.0312 33.3251 14.0396 33.3072 14.0539C33.2892 14.0683 33.2762 14.0879 33.27 14.11L33.25 14.15C33.25 14.21 33.3 14.26 33.37 14.26C33.394 14.2615 33.4178 14.2552 33.4378 14.2419C33.4578 14.2287 33.473 14.2092 33.4809 14.1866C33.4888 14.1639 33.4891 14.1393 33.4818 14.1164C33.4744 14.0935 33.4597 14.0737 33.44 14.06C33.4196 14.0456 33.3949 14.0385 33.37 14.04V14.03V14.03ZM33.93 14.03C33.9147 14.0299 33.8995 14.0331 33.8855 14.0392C33.8714 14.0454 33.8588 14.0544 33.8485 14.0657C33.8381 14.077 33.8302 14.0903 33.8253 14.1048C33.8204 14.1194 33.8186 14.1347 33.82 14.15C33.82 14.21 33.87 14.26 33.93 14.26C33.9549 14.2644 33.9806 14.2601 34.0027 14.2478C34.0248 14.2356 34.042 14.216 34.0514 14.1925C34.0608 14.1691 34.0618 14.1431 34.0542 14.1189C34.0467 14.0948 34.0311 14.074 34.01 14.06C33.9869 14.0432 33.9583 14.036 33.93 14.04V14.03ZM34.49 14.03C34.4671 14.0312 34.4451 14.0396 34.4272 14.0539C34.4092 14.0683 34.3962 14.0879 34.39 14.11L34.38 14.15C34.38 14.21 34.43 14.26 34.49 14.26C34.5149 14.2644 34.5406 14.2601 34.5627 14.2478C34.5848 14.2356 34.602 14.216 34.6114 14.1925C34.6208 14.1691 34.6218 14.1431 34.6142 14.1189C34.6067 14.0948 34.5911 14.074 34.57 14.06C34.5469 14.0432 34.5183 14.036 34.49 14.04V14.03ZM16.31 15.7C15.8857 15.7 15.4787 15.8686 15.1786 16.1686C14.8786 16.4687 14.71 16.8757 14.71 17.3C14.71 17.7243 14.8786 18.1313 15.1786 18.4314C15.4787 18.7314 15.8857 18.9 16.31 18.9C16.7343 18.9 17.1413 18.7314 17.4414 18.4314C17.7414 18.1313 17.91 17.7243 17.91 17.3C17.91 16.8757 17.7414 16.4687 17.4414 16.1686C17.1413 15.8686 16.7343 15.7 16.31 15.7V15.7ZM20.14 15.7C19.7157 15.7 19.3087 15.8686 19.0086 16.1686C18.7086 16.4687 18.54 16.8757 18.54 17.3C18.54 17.7243 18.7086 18.1313 19.0086 18.4314C19.3087 18.7314 19.7157 18.9 20.14 18.9C20.5643 18.9 20.9713 18.7314 21.2714 18.4314C21.5714 18.1313 21.74 17.7243 21.74 17.3C21.74 16.8757 21.5714 16.4687 21.2714 16.1686C20.9713 15.8686 20.5643 15.7 20.14 15.7V15.7ZM23.98 15.7C23.5557 15.7 23.1487 15.8686 22.8486 16.1686C22.5486 16.4687 22.38 16.8757 22.38 17.3C22.38 17.7243 22.5486 18.1313 22.8486 18.4314C23.1487 18.7314 23.5557 18.9 23.98 18.9C24.4043 18.9 24.8113 18.7314 25.1114 18.4314C25.4114 18.1313 25.58 17.7243 25.58 17.3C25.58 16.8757 25.4114 16.4687 25.1114 16.1686C24.8113 15.8686 24.4043 15.7 23.98 15.7V15.7ZM27.81 15.7C27.3857 15.7 26.9787 15.8686 26.6786 16.1686C26.3786 16.4687 26.21 16.8757 26.21 17.3C26.21 17.7243 26.3786 18.1313 26.6786 18.4314C26.9787 18.7314 27.3857 18.9 27.81 18.9C28.2343 18.9 28.6413 18.7314 28.9414 18.4314C29.2414 18.1313 29.41 17.7243 29.41 17.3C29.41 16.8757 29.2414 16.4687 28.9414 16.1686C28.6413 15.8686 28.2343 15.7 27.81 15.7V15.7ZM31.65 15.7C31.2257 15.7 30.8187 15.8686 30.5186 16.1686C30.2186 16.4687 30.05 16.8757 30.05 17.3C30.05 17.7243 30.2186 18.1313 30.5186 18.4314C30.8187 18.7314 31.2257 18.9 31.65 18.9C32.0743 18.9 32.4813 18.7314 32.7814 18.4314C33.0814 18.1313 33.25 17.7243 33.25 17.3C33.25 16.8757 33.0814 16.4687 32.7814 16.1686C32.4813 15.8686 32.0743 15.7 31.65 15.7V15.7ZM13.69 20.68C13.6625 20.6799 13.6359 20.6901 13.6156 20.7086C13.5952 20.7271 13.5825 20.7526 13.58 20.78C13.58 20.85 13.63 20.9 13.68 20.9C13.6944 20.9007 13.7089 20.8985 13.7225 20.8935C13.7361 20.8886 13.7486 20.8811 13.7592 20.8713C13.7699 20.8616 13.7786 20.8498 13.7847 20.8367C13.7908 20.8236 13.7943 20.8094 13.795 20.795C13.7957 20.7806 13.7935 20.7661 13.7885 20.7525C13.7836 20.7389 13.7761 20.7264 13.7663 20.7158C13.7566 20.7051 13.7448 20.6964 13.7317 20.6903C13.7186 20.6842 13.7044 20.6807 13.69 20.68V20.68ZM14.25 20.68C14.2225 20.6799 14.1959 20.6901 14.1756 20.7086C14.1552 20.7271 14.1425 20.7526 14.14 20.78C14.14 20.85 14.19 20.9 14.25 20.9C14.31 20.9 14.36 20.85 14.36 20.79V20.77C14.3575 20.7426 14.3448 20.7171 14.3244 20.6986C14.3041 20.6801 14.2775 20.6699 14.25 20.67V20.68V20.68ZM14.81 20.68C14.7953 20.6794 14.7807 20.6818 14.767 20.6869C14.7532 20.6921 14.7407 20.6999 14.73 20.71C14.7199 20.7207 14.7121 20.7332 14.7069 20.747C14.7018 20.7607 14.6994 20.7753 14.7 20.79C14.7 20.85 14.75 20.9 14.81 20.9C14.87 20.9 14.92 20.85 14.92 20.79V20.77C14.9177 20.7442 14.9065 20.7201 14.8882 20.7018C14.8699 20.6835 14.8458 20.6723 14.82 20.67L14.81 20.68ZM15.37 20.68C15.3442 20.6823 15.3201 20.6935 15.3018 20.7118C15.2835 20.7301 15.2723 20.7542 15.27 20.78C15.27 20.85 15.31 20.9 15.37 20.9C15.3934 20.9016 15.4167 20.8956 15.4365 20.8831C15.4563 20.8705 15.4715 20.8519 15.48 20.83C15.4868 20.8127 15.4891 20.794 15.4867 20.7756C15.4843 20.7572 15.4773 20.7397 15.4663 20.7247C15.4554 20.7097 15.4408 20.6978 15.4239 20.6899C15.4071 20.6821 15.3885 20.6787 15.37 20.68V20.68ZM15.94 20.68C15.9253 20.6794 15.9107 20.6818 15.897 20.6869C15.8832 20.6921 15.8707 20.6999 15.86 20.71C15.8481 20.7198 15.8384 20.732 15.8315 20.7458C15.8246 20.7595 15.8207 20.7746 15.82 20.79C15.82 20.85 15.88 20.9 15.94 20.9C15.9614 20.8983 15.982 20.891 15.9996 20.8787C16.0172 20.8664 16.0311 20.8495 16.04 20.83C16.0507 20.8046 16.0515 20.7762 16.0422 20.7503C16.033 20.7244 16.0143 20.7029 15.99 20.69C15.9743 20.6828 15.9572 20.6794 15.94 20.68V20.68ZM16.5 20.68C16.4725 20.6799 16.4459 20.6901 16.4256 20.7086C16.4052 20.7271 16.3925 20.7526 16.39 20.78C16.39 20.85 16.44 20.9 16.5 20.9C16.5144 20.9 16.5287 20.8972 16.5421 20.8916C16.5554 20.8861 16.5676 20.878 16.5778 20.8678C16.588 20.8576 16.5961 20.8454 16.6016 20.8321C16.6072 20.8188 16.61 20.8044 16.61 20.79C16.61 20.7756 16.6072 20.7613 16.6016 20.7479C16.5961 20.7346 16.588 20.7224 16.5778 20.7122C16.5676 20.702 16.5554 20.6939 16.5421 20.6884C16.5287 20.6828 16.5144 20.68 16.5 20.68V20.68ZM17.06 20.68C17.0325 20.6799 17.0059 20.6901 16.9855 20.7086C16.9652 20.7271 16.9525 20.7526 16.95 20.78C16.95 20.85 17 20.9 17.06 20.9C17.09 20.9 17.12 20.89 17.14 20.87C17.1514 20.8582 17.16 20.844 17.1652 20.8284C17.1704 20.8128 17.172 20.7963 17.17 20.78C17.1677 20.7542 17.1565 20.7301 17.1382 20.7118C17.1199 20.6935 17.0958 20.6823 17.07 20.68H17.06V20.68ZM17.62 20.68C17.5983 20.6805 17.5772 20.6874 17.5594 20.6999C17.5416 20.7123 17.5279 20.7298 17.52 20.75V20.79C17.52 20.85 17.56 20.9 17.62 20.9C17.6434 20.9016 17.6667 20.8956 17.6865 20.8831C17.7063 20.8705 17.7215 20.8519 17.73 20.83C17.7376 20.8093 17.7388 20.7868 17.7335 20.7654C17.7281 20.744 17.7165 20.7247 17.7 20.71C17.6893 20.6999 17.6768 20.6921 17.663 20.6869C17.6493 20.6818 17.6347 20.6794 17.62 20.68V20.68ZM18.19 20.68C18.1692 20.6783 18.1483 20.6832 18.1303 20.6939C18.1124 20.7047 18.0983 20.7208 18.09 20.74L18.07 20.78C18.07 20.85 18.12 20.9 18.18 20.9C18.1963 20.9014 18.2126 20.8994 18.2281 20.8943C18.2436 20.8891 18.2578 20.8809 18.27 20.87C18.2814 20.8582 18.29 20.844 18.2952 20.8284C18.3004 20.8128 18.302 20.7963 18.3 20.78C18.2975 20.7526 18.2848 20.7271 18.2645 20.7086C18.2441 20.6901 18.2175 20.6799 18.19 20.68V20.68ZM18.75 20.68C18.7283 20.6805 18.7072 20.6874 18.6894 20.6999C18.6716 20.7123 18.6579 20.7298 18.65 20.75L18.64 20.79C18.64 20.85 18.69 20.9 18.74 20.9C18.81 20.9 18.86 20.85 18.86 20.79V20.77C18.8575 20.7426 18.8448 20.7171 18.8244 20.6986C18.8041 20.6801 18.7775 20.6699 18.75 20.67V20.68ZM19.31 20.68C19.2825 20.6799 19.2559 20.6901 19.2355 20.7086C19.2152 20.7271 19.2025 20.7526 19.2 20.78C19.2 20.85 19.25 20.9 19.31 20.9C19.37 20.9 19.42 20.85 19.42 20.79C19.4201 20.7625 19.4099 20.7359 19.3914 20.7156C19.3729 20.6952 19.3474 20.6825 19.32 20.68H19.31V20.68ZM19.87 20.68C19.8483 20.6805 19.8272 20.6874 19.8094 20.6999C19.7916 20.7123 19.7779 20.7298 19.77 20.75L19.76 20.79C19.76 20.85 19.81 20.9 19.87 20.9C19.93 20.9 19.98 20.85 19.98 20.79C19.9801 20.7625 19.9699 20.7359 19.9514 20.7156C19.9329 20.6952 19.9074 20.6825 19.88 20.68H19.87V20.68ZM20.44 20.68C20.4192 20.6783 20.3983 20.6832 20.3803 20.6939C20.3624 20.7047 20.3483 20.7208 20.34 20.74L20.32 20.78C20.32 20.85 20.37 20.9 20.44 20.9C20.5 20.9 20.54 20.85 20.54 20.79C20.5401 20.7625 20.5299 20.7359 20.5114 20.7156C20.4929 20.6952 20.4674 20.6825 20.44 20.68V20.68ZM21 20.68C20.9783 20.6805 20.9572 20.6874 20.9394 20.6999C20.9216 20.7123 20.9079 20.7298 20.9 20.75C20.89 20.75 20.88 20.77 20.89 20.79C20.89 20.85 20.94 20.9 20.99 20.9C21.0134 20.9016 21.0367 20.8956 21.0565 20.8831C21.0763 20.8705 21.0915 20.8519 21.1 20.83C21.1064 20.8135 21.1088 20.7957 21.1069 20.7781C21.105 20.7605 21.0989 20.7437 21.0891 20.729C21.0793 20.7142 21.066 20.7021 21.0505 20.6936C21.035 20.6851 21.0177 20.6804 21 20.68V20.68ZM21.56 20.68C21.5325 20.6799 21.5059 20.6901 21.4855 20.7086C21.4652 20.7271 21.4525 20.7526 21.45 20.78C21.45 20.85 21.5 20.9 21.55 20.9C21.5679 20.9029 21.5861 20.9016 21.6034 20.8964C21.6207 20.8912 21.6367 20.8822 21.65 20.87C21.6596 20.8573 21.6664 20.8427 21.6699 20.8272C21.6733 20.8117 21.6734 20.7956 21.67 20.78C21.6675 20.7526 21.6548 20.7271 21.6344 20.7086C21.6141 20.6901 21.5875 20.6799 21.56 20.68V20.68ZM22.12 20.68C22.0925 20.6799 22.0659 20.6901 22.0456 20.7086C22.0252 20.7271 22.0125 20.7526 22.01 20.78C22.01 20.85 22.06 20.9 22.12 20.9C22.1492 20.9013 22.1777 20.891 22.1992 20.8713C22.2208 20.8516 22.2337 20.8242 22.235 20.795C22.2363 20.7658 22.226 20.7373 22.2063 20.7158C22.1866 20.6942 22.1592 20.6813 22.13 20.68H22.12V20.68ZM22.68 20.68C22.6542 20.6823 22.6301 20.6935 22.6118 20.7118C22.5935 20.7301 22.5823 20.7542 22.58 20.78C22.58 20.85 22.62 20.9 22.68 20.9C22.75 20.9 22.8 20.85 22.8 20.79C22.8001 20.7747 22.7969 20.7595 22.7908 20.7455C22.7846 20.7314 22.7756 20.7188 22.7643 20.7085C22.753 20.6981 22.7397 20.6902 22.7252 20.6853C22.7106 20.6804 22.6953 20.6786 22.68 20.68V20.68ZM23.25 20.68C23.2225 20.6799 23.1959 20.6901 23.1756 20.7086C23.1552 20.7271 23.1425 20.7526 23.14 20.78C23.14 20.85 23.18 20.9 23.24 20.9C23.31 20.9 23.36 20.85 23.36 20.79V20.77C23.3575 20.7426 23.3448 20.7171 23.3244 20.6986C23.3041 20.6801 23.2775 20.6699 23.25 20.67V20.68V20.68ZM23.81 20.68C23.7953 20.6794 23.7807 20.6818 23.767 20.6869C23.7532 20.6921 23.7407 20.6999 23.73 20.71C23.7181 20.7198 23.7084 20.732 23.7015 20.7458C23.6946 20.7595 23.6907 20.7746 23.69 20.79C23.69 20.85 23.75 20.9 23.81 20.9C23.87 20.9 23.91 20.85 23.91 20.79V20.77C23.9077 20.7442 23.8965 20.7201 23.8782 20.7018C23.8599 20.6835 23.8358 20.6723 23.81 20.67V20.68V20.68ZM24.37 20.68C24.3425 20.6799 24.3159 20.6901 24.2956 20.7086C24.2752 20.7271 24.2625 20.7526 24.26 20.78C24.26 20.85 24.31 20.9 24.37 20.9C24.3924 20.9009 24.4146 20.895 24.4335 20.883C24.4525 20.871 24.4673 20.8535 24.476 20.8328C24.4847 20.8121 24.4869 20.7893 24.4822 20.7673C24.4776 20.7454 24.4663 20.7254 24.45 20.71C24.431 20.692 24.4062 20.6813 24.38 20.68H24.37V20.68ZM24.93 20.68C24.9153 20.6794 24.9007 20.6818 24.887 20.6869C24.8732 20.6921 24.8607 20.6999 24.85 20.71C24.8399 20.7207 24.8321 20.7332 24.8269 20.747C24.8218 20.7607 24.8194 20.7753 24.82 20.79C24.82 20.85 24.87 20.9 24.93 20.9C24.9514 20.8983 24.972 20.891 24.9896 20.8787C25.0072 20.8664 25.0211 20.8495 25.03 20.83C25.0407 20.8046 25.0415 20.7762 25.0322 20.7503C25.023 20.7244 25.0043 20.7029 24.98 20.69C24.9643 20.6828 24.9472 20.6794 24.93 20.68V20.68ZM25.49 20.68C25.4683 20.6805 25.4472 20.6874 25.4294 20.6999C25.4116 20.7123 25.3979 20.7298 25.39 20.75V20.79C25.39 20.85 25.43 20.9 25.49 20.9C25.5134 20.9016 25.5367 20.8956 25.5565 20.8831C25.5763 20.8705 25.5915 20.8519 25.6 20.83C25.6076 20.8093 25.6088 20.7868 25.6035 20.7654C25.5981 20.744 25.5865 20.7247 25.57 20.71C25.5593 20.6999 25.5468 20.6921 25.533 20.6869C25.5193 20.6818 25.5047 20.6794 25.49 20.68V20.68ZM26.06 20.68C26.0325 20.6799 26.0059 20.6901 25.9855 20.7086C25.9652 20.7271 25.9525 20.7526 25.95 20.78C25.95 20.85 26 20.9 26.05 20.9C26.0734 20.9016 26.0967 20.8956 26.1165 20.8831C26.1363 20.8705 26.1515 20.8519 26.16 20.83C26.1676 20.8093 26.1688 20.7868 26.1635 20.7654C26.1581 20.744 26.1465 20.7247 26.13 20.71C26.111 20.692 26.0862 20.6813 26.06 20.68V20.68ZM26.62 20.68C26.5983 20.6805 26.5772 20.6874 26.5594 20.6999C26.5416 20.7123 26.5279 20.7298 26.52 20.75L26.51 20.79C26.51 20.85 26.56 20.9 26.61 20.9C26.6333 20.9034 26.657 20.8992 26.6777 20.8881C26.6985 20.8769 26.7151 20.8595 26.7251 20.8382C26.7352 20.817 26.7382 20.793 26.7337 20.77C26.7291 20.7469 26.7173 20.7259 26.7 20.71C26.6893 20.6999 26.6768 20.6921 26.663 20.6869C26.6493 20.6818 26.6347 20.6794 26.62 20.68V20.68ZM27.18 20.68C27.1525 20.6799 27.1259 20.6901 27.1056 20.7086C27.0852 20.7271 27.0725 20.7526 27.07 20.78C27.07 20.85 27.12 20.9 27.18 20.9C27.2049 20.9044 27.2306 20.9001 27.2527 20.8878C27.2748 20.8756 27.292 20.856 27.3014 20.8325C27.3108 20.8091 27.3118 20.7831 27.3042 20.7589C27.2967 20.7348 27.2811 20.714 27.26 20.7C27.2369 20.6832 27.2083 20.676 27.18 20.68V20.68ZM27.74 20.68C27.7183 20.6805 27.6972 20.6874 27.6794 20.6999C27.6616 20.7123 27.6479 20.7298 27.64 20.75V20.79C27.64 20.85 27.68 20.9 27.74 20.9C27.81 20.9 27.85 20.85 27.86 20.79V20.77C27.8575 20.7426 27.8448 20.7171 27.8244 20.6986C27.8041 20.6801 27.7775 20.6699 27.75 20.67L27.74 20.68ZM28.31 20.68C28.2891 20.6783 28.2683 20.6832 28.2503 20.6939C28.2324 20.7047 28.2183 20.7208 28.21 20.74L28.19 20.78C28.19 20.85 28.24 20.9 28.31 20.9C28.37 20.9 28.41 20.85 28.41 20.79C28.4101 20.7625 28.3999 20.7359 28.3814 20.7156C28.3629 20.6952 28.3374 20.6825 28.31 20.68V20.68ZM28.87 20.68C28.8483 20.6805 28.8272 20.6874 28.8094 20.6999C28.7916 20.7123 28.7779 20.7298 28.77 20.75L28.76 20.79C28.76 20.85 28.81 20.9 28.86 20.9C28.93 20.9 28.98 20.85 28.98 20.79C28.98 20.7608 28.9684 20.7328 28.9478 20.7122C28.9272 20.6916 28.8992 20.68 28.87 20.68ZM29.43 20.68C29.4025 20.6799 29.3759 20.6901 29.3556 20.7086C29.3352 20.7271 29.3225 20.7526 29.32 20.78C29.32 20.85 29.37 20.9 29.43 20.9C29.4524 20.9009 29.4746 20.895 29.4935 20.883C29.5125 20.871 29.5273 20.8535 29.536 20.8328C29.5447 20.8121 29.5469 20.7893 29.5422 20.7673C29.5376 20.7454 29.5263 20.7254 29.51 20.71C29.491 20.692 29.4662 20.6813 29.44 20.68H29.43V20.68ZM29.99 20.68C29.9642 20.6823 29.9401 20.6935 29.9218 20.7118C29.9035 20.7301 29.8923 20.7542 29.89 20.78C29.89 20.85 29.93 20.9 29.99 20.9C30.0117 20.8995 30.0328 20.8926 30.0506 20.8801C30.0684 20.8677 30.0821 20.8502 30.09 20.83C30.0988 20.8102 30.1017 20.7883 30.0981 20.767C30.0945 20.7456 30.0848 20.7258 30.07 20.71C30.0593 20.6999 30.0468 20.6921 30.033 20.6869C30.0193 20.6818 30.0047 20.6794 29.99 20.68V20.68ZM30.56 20.68C30.5391 20.6783 30.5183 20.6832 30.5003 20.6939C30.4824 20.7047 30.4683 20.7208 30.46 20.74L30.44 20.78C30.44 20.85 30.49 20.9 30.55 20.9C30.5685 20.9013 30.5871 20.8979 30.6039 20.8901C30.6208 20.8822 30.6354 20.8703 30.6463 20.8553C30.6573 20.8403 30.6643 20.8228 30.6667 20.8044C30.6691 20.786 30.6668 20.7673 30.66 20.75C30.6515 20.7281 30.6363 20.7095 30.6165 20.6969C30.5967 20.6844 30.5734 20.6784 30.55 20.68H30.56ZM31.12 20.68C31.0925 20.6799 31.0659 20.6901 31.0456 20.7086C31.0252 20.7271 31.0125 20.7526 31.01 20.78C31.01 20.85 31.06 20.9 31.11 20.9C31.1244 20.9007 31.1389 20.8985 31.1525 20.8935C31.1661 20.8886 31.1786 20.8811 31.1892 20.8713C31.1999 20.8616 31.2086 20.8498 31.2147 20.8367C31.2208 20.8236 31.2243 20.8094 31.225 20.795C31.2257 20.7806 31.2235 20.7661 31.2185 20.7525C31.2136 20.7389 31.2061 20.7264 31.1963 20.7158C31.1866 20.7051 31.1748 20.6964 31.1617 20.6903C31.1486 20.6842 31.1344 20.6807 31.12 20.68V20.68ZM31.68 20.68C31.6525 20.6799 31.6259 20.6901 31.6056 20.7086C31.5852 20.7271 31.5725 20.7526 31.57 20.78C31.57 20.85 31.62 20.9 31.68 20.9C31.74 20.9 31.79 20.85 31.79 20.79V20.77C31.7875 20.7426 31.7748 20.7171 31.7544 20.6986C31.7341 20.6801 31.7075 20.6699 31.68 20.67V20.68V20.68ZM32.24 20.68C32.2183 20.6805 32.1972 20.6874 32.1794 20.6999C32.1616 20.7123 32.1479 20.7298 32.14 20.75L32.13 20.79C32.13 20.85 32.18 20.9 32.24 20.9C32.3 20.9 32.35 20.85 32.35 20.79V20.77C32.3477 20.7442 32.3365 20.7201 32.3182 20.7018C32.2999 20.6835 32.2758 20.6723 32.25 20.67L32.24 20.68ZM32.8 20.68C32.7742 20.6823 32.7501 20.6935 32.7318 20.7118C32.7135 20.7301 32.7023 20.7542 32.7 20.78C32.7 20.85 32.74 20.9 32.8 20.9C32.8234 20.9016 32.8467 20.8956 32.8665 20.8831C32.8863 20.8705 32.9015 20.8519 32.91 20.83C32.9168 20.8127 32.9191 20.794 32.9167 20.7756C32.9143 20.7572 32.9073 20.7397 32.8963 20.7247C32.8854 20.7097 32.8708 20.6978 32.8539 20.6899C32.8371 20.6821 32.8185 20.6787 32.8 20.68V20.68ZM33.37 20.68C33.3483 20.6805 33.3272 20.6874 33.3094 20.6999C33.2916 20.7123 33.2779 20.7298 33.27 20.75L33.25 20.79C33.25 20.85 33.3 20.9 33.37 20.9C33.3929 20.8988 33.4149 20.8904 33.4328 20.8761C33.4508 20.8617 33.4638 20.8421 33.47 20.82C33.4745 20.8041 33.4754 20.7874 33.4726 20.7711C33.4698 20.7548 33.4633 20.7394 33.4537 20.7259C33.4441 20.7125 33.4316 20.7013 33.4171 20.6934C33.4026 20.6854 33.3865 20.6809 33.37 20.68V20.68ZM33.93 20.68C33.9025 20.6799 33.8759 20.6901 33.8555 20.7086C33.8352 20.7271 33.8225 20.7526 33.82 20.78C33.82 20.85 33.87 20.9 33.93 20.9C33.9444 20.9 33.9587 20.8972 33.9721 20.8916C33.9854 20.8861 33.9976 20.878 34.0078 20.8678C34.018 20.8576 34.0261 20.8454 34.0316 20.8321C34.0372 20.8188 34.04 20.8044 34.04 20.79C34.04 20.7756 34.0372 20.7613 34.0316 20.7479C34.0261 20.7346 34.018 20.7224 34.0078 20.7122C33.9976 20.702 33.9854 20.6939 33.9721 20.6884C33.9587 20.6828 33.9444 20.68 33.93 20.68V20.68ZM34.49 20.68C34.4683 20.6805 34.4472 20.6874 34.4294 20.6999C34.4116 20.7123 34.3979 20.7298 34.39 20.75L34.38 20.79C34.38 20.85 34.43 20.9 34.49 20.9C34.5117 20.8995 34.5328 20.8926 34.5506 20.8801C34.5684 20.8677 34.5821 20.8502 34.59 20.83C34.5988 20.8102 34.6017 20.7883 34.5981 20.767C34.5945 20.7456 34.5848 20.7258 34.57 20.71C34.5593 20.6999 34.5468 20.6921 34.533 20.6869C34.5193 20.6818 34.5047 20.6794 34.49 20.68V20.68ZM16.31 22.5C15.8857 22.5 15.4787 22.6686 15.1786 22.9686C14.8786 23.2687 14.71 23.6757 14.71 24.1C14.71 24.5243 14.8786 24.9313 15.1786 25.2314C15.4787 25.5314 15.8857 25.7 16.31 25.7C16.7343 25.7 17.1413 25.5314 17.4414 25.2314C17.7414 24.9313 17.91 24.5243 17.91 24.1C17.91 23.6757 17.7414 23.2687 17.4414 22.9686C17.1413 22.6686 16.7343 22.5 16.31 22.5ZM20.14 22.5C19.9299 22.4928 19.7204 22.527 19.5235 22.6007C19.3266 22.6745 19.1462 22.7863 18.9925 22.9297C18.8388 23.0732 18.7149 23.2455 18.6278 23.4369C18.5408 23.6283 18.4922 23.8349 18.485 24.045C18.4778 24.2551 18.512 24.4646 18.5857 24.6615C18.6595 24.8584 18.7713 25.0388 18.9147 25.1925C19.0582 25.3462 19.2305 25.4701 19.4219 25.5572C19.6132 25.6442 19.8199 25.6928 20.03 25.7C20.4543 25.7146 20.8671 25.56 21.1775 25.2703C21.4879 24.9805 21.6704 24.5793 21.685 24.155C21.6996 23.7307 21.545 23.3179 21.2553 23.0075C20.9655 22.6971 20.5643 22.5146 20.14 22.5ZM23.98 22.5C23.5557 22.4841 23.1424 22.6374 22.8311 22.9262C22.5197 23.215 22.3359 23.6157 22.32 24.04C22.3041 24.4643 22.4574 24.8776 22.7462 25.1889C23.035 25.5003 23.4357 25.6841 23.86 25.7C24.2843 25.7159 24.6976 25.5626 25.0089 25.2738C25.3203 24.985 25.5041 24.5843 25.52 24.16C25.5359 23.7357 25.3826 23.3224 25.0938 23.0111C24.805 22.6997 24.4043 22.5159 23.98 22.5V22.5ZM27.81 22.5C27.3857 22.5 26.9787 22.6686 26.6786 22.9686C26.3786 23.2687 26.21 23.6757 26.21 24.1C26.21 24.5243 26.3786 24.9313 26.6786 25.2314C26.9787 25.5314 27.3857 25.7 27.81 25.7C28.2343 25.7 28.6413 25.5314 28.9414 25.2314C29.2414 24.9313 29.41 24.5243 29.41 24.1C29.41 23.6757 29.2414 23.2687 28.9414 22.9686C28.6413 22.6686 28.2343 22.5 27.81 22.5ZM31.65 22.5C31.4399 22.4928 31.2304 22.527 31.0335 22.6007C30.8366 22.6745 30.6562 22.7863 30.5025 22.9297C30.3488 23.0732 30.2249 23.2455 30.1378 23.4369C30.0508 23.6283 30.0022 23.8349 29.995 24.045C29.9878 24.2551 30.022 24.4646 30.0957 24.6615C30.1695 24.8584 30.2813 25.0388 30.4247 25.1925C30.5682 25.3462 30.7405 25.4701 30.9319 25.5572C31.1232 25.6442 31.3299 25.6928 31.54 25.7C31.9643 25.7146 32.3771 25.56 32.6875 25.2703C32.9979 24.9805 33.1804 24.5793 33.195 24.155C33.2096 23.7307 33.055 23.3179 32.7653 23.0075C32.4755 22.6971 32.0743 22.5146 31.65 22.5V22.5ZM13.69 27.3C13.6683 27.3005 13.6472 27.3074 13.6294 27.3199C13.6116 27.3323 13.5979 27.3498 13.59 27.37L13.58 27.42C13.58 27.48 13.63 27.53 13.68 27.53C13.7092 27.53 13.7372 27.5184 13.7578 27.4978C13.7784 27.4772 13.79 27.4492 13.79 27.42C13.79 27.3908 13.7784 27.3628 13.7578 27.3422C13.7372 27.3216 13.7092 27.31 13.68 27.31L13.69 27.3ZM14.25 27.3C14.2347 27.2999 14.2195 27.3031 14.2055 27.3092C14.1914 27.3154 14.1788 27.3244 14.1685 27.3357C14.1581 27.347 14.1502 27.3603 14.1453 27.3748C14.1404 27.3894 14.1386 27.4047 14.14 27.42C14.14 27.48 14.19 27.53 14.25 27.53C14.31 27.53 14.36 27.48 14.36 27.42V27.4C14.3575 27.3726 14.3448 27.3471 14.3244 27.3286C14.3041 27.3101 14.2775 27.2999 14.25 27.3V27.3ZM14.81 27.3C14.7795 27.3 14.7502 27.3121 14.7287 27.3337C14.7071 27.3552 14.695 27.3845 14.695 27.415C14.695 27.4455 14.7071 27.4748 14.7287 27.4963C14.7502 27.5179 14.7795 27.53 14.81 27.53C14.87 27.53 14.92 27.48 14.92 27.42V27.4C14.9177 27.3742 14.9065 27.3501 14.8882 27.3318C14.8699 27.3135 14.8458 27.3023 14.82 27.3H14.81ZM15.37 27.3C15.3483 27.3005 15.3272 27.3074 15.3094 27.3199C15.2916 27.3323 15.2779 27.3498 15.27 27.37V27.42C15.27 27.48 15.31 27.53 15.37 27.53C15.3934 27.5316 15.4167 27.5256 15.4365 27.5131C15.4563 27.5005 15.4715 27.4819 15.48 27.46C15.4868 27.4427 15.4891 27.424 15.4867 27.4056C15.4843 27.3872 15.4773 27.3697 15.4663 27.3547C15.4554 27.3397 15.4408 27.3278 15.4239 27.3199C15.4071 27.3121 15.3885 27.3087 15.37 27.31V27.3ZM15.94 27.3C15.9095 27.3 15.8802 27.3121 15.8587 27.3337C15.8371 27.3552 15.825 27.3845 15.825 27.415C15.825 27.4455 15.8371 27.4748 15.8587 27.4963C15.8802 27.5179 15.9095 27.53 15.94 27.53C15.9555 27.53 15.9708 27.5264 15.9847 27.5194C15.9986 27.5125 16.0107 27.5024 16.02 27.49C16.0395 27.4679 16.0502 27.4394 16.05 27.41C16.0475 27.3826 16.0348 27.3571 16.0145 27.3386C15.9941 27.3201 15.9675 27.3099 15.94 27.31V27.3V27.3ZM16.5 27.3C16.4783 27.3005 16.4572 27.3074 16.4394 27.3199C16.4216 27.3323 16.4079 27.3498 16.4 27.37L16.39 27.42C16.3904 27.4377 16.3951 27.455 16.4036 27.4705C16.4121 27.486 16.4242 27.4993 16.439 27.5091C16.4537 27.5189 16.4705 27.525 16.4881 27.5269C16.5057 27.5288 16.5235 27.5264 16.54 27.52C16.5624 27.5098 16.5808 27.4923 16.5922 27.4705C16.6035 27.4486 16.6071 27.4235 16.6025 27.3993C16.5979 27.3751 16.5853 27.3531 16.5667 27.3369C16.5481 27.3207 16.5246 27.3112 16.5 27.31V27.3V27.3ZM17.06 27.3C17.0447 27.2999 17.0295 27.3031 17.0155 27.3092C17.0014 27.3154 16.9888 27.3244 16.9785 27.3357C16.9681 27.347 16.9602 27.3603 16.9553 27.3748C16.9504 27.3894 16.9486 27.4047 16.95 27.42C16.95 27.48 17 27.53 17.06 27.53C17.0817 27.5295 17.1028 27.5226 17.1206 27.5101C17.1384 27.4977 17.1521 27.4802 17.16 27.46C17.1688 27.4402 17.1717 27.4183 17.1681 27.397C17.1645 27.3756 17.1548 27.3558 17.14 27.34C17.1293 27.3299 17.1168 27.3221 17.103 27.3169C17.0893 27.3118 17.0747 27.3094 17.06 27.31V27.3V27.3ZM17.62 27.3C17.5971 27.3012 17.5751 27.3096 17.5572 27.3239C17.5392 27.3383 17.5262 27.3579 17.52 27.38C17.5173 27.3932 17.5173 27.4068 17.52 27.42C17.52 27.48 17.56 27.53 17.62 27.53C17.6363 27.532 17.6528 27.5304 17.6684 27.5252C17.684 27.52 17.6982 27.5114 17.71 27.5C17.7214 27.4882 17.73 27.474 17.7352 27.4584C17.7404 27.4428 17.742 27.4263 17.74 27.41C17.7388 27.3871 17.7304 27.3651 17.7161 27.3472C17.7017 27.3292 17.6821 27.3162 17.66 27.31C17.6468 27.3073 17.6332 27.3073 17.62 27.31V27.3V27.3ZM18.19 27.3C18.1683 27.3005 18.1472 27.3074 18.1294 27.3199C18.1116 27.3323 18.0979 27.3498 18.09 27.37L18.07 27.42C18.07 27.48 18.12 27.53 18.18 27.53C18.2034 27.5316 18.2267 27.5256 18.2465 27.5131C18.2663 27.5005 18.2815 27.4819 18.29 27.46C18.2976 27.4393 18.2988 27.4168 18.2935 27.3954C18.2881 27.374 18.2765 27.3547 18.26 27.34C18.241 27.322 18.2162 27.3113 18.19 27.31V27.3V27.3ZM18.75 27.3C18.7347 27.2999 18.7195 27.3031 18.7055 27.3092C18.6914 27.3154 18.6788 27.3244 18.6685 27.3357C18.6581 27.347 18.6502 27.3603 18.6453 27.3748C18.6404 27.3894 18.6386 27.4047 18.64 27.42C18.64 27.48 18.69 27.53 18.74 27.53C18.81 27.53 18.86 27.48 18.86 27.42V27.4C18.8575 27.3726 18.8448 27.3471 18.8244 27.3286C18.8041 27.3101 18.7775 27.2999 18.75 27.3V27.3ZM19.31 27.3C19.2947 27.2999 19.2795 27.3031 19.2655 27.3092C19.2514 27.3154 19.2388 27.3244 19.2285 27.3357C19.2181 27.347 19.2102 27.3603 19.2053 27.3748C19.2004 27.3894 19.1986 27.4047 19.2 27.42C19.2 27.48 19.25 27.53 19.31 27.53C19.37 27.53 19.42 27.48 19.42 27.42V27.41C19.4177 27.3842 19.4065 27.3601 19.3882 27.3418C19.3699 27.3235 19.3458 27.3123 19.32 27.31L19.31 27.3V27.3ZM19.87 27.3C19.8547 27.2999 19.8395 27.3031 19.8255 27.3092C19.8114 27.3154 19.7988 27.3244 19.7885 27.3357C19.7781 27.347 19.7702 27.3603 19.7653 27.3748C19.7604 27.3894 19.7586 27.4047 19.76 27.42C19.76 27.48 19.81 27.53 19.87 27.53C19.93 27.53 19.98 27.48 19.98 27.42V27.41C19.9777 27.3842 19.9665 27.3601 19.9482 27.3418C19.9299 27.3235 19.9058 27.3123 19.88 27.31L19.87 27.3V27.3ZM20.44 27.3C20.4166 27.2984 20.3933 27.3044 20.3735 27.3169C20.3537 27.3295 20.3385 27.3481 20.33 27.37L20.32 27.42C20.32 27.48 20.37 27.53 20.44 27.53C20.5 27.53 20.54 27.48 20.54 27.42V27.41C20.5377 27.3842 20.5265 27.3601 20.5082 27.3418C20.4899 27.3235 20.4658 27.3123 20.44 27.31V27.3V27.3ZM21 27.3C20.9847 27.2999 20.9695 27.3031 20.9555 27.3092C20.9414 27.3154 20.9288 27.3244 20.9185 27.3357C20.9081 27.347 20.9002 27.3603 20.8953 27.3748C20.8904 27.3894 20.8886 27.4047 20.89 27.42C20.89 27.48 20.94 27.53 20.99 27.53C21.0134 27.5316 21.0367 27.5256 21.0565 27.5131C21.0763 27.5005 21.0915 27.4819 21.1 27.46C21.1064 27.4435 21.1088 27.4257 21.1069 27.4081C21.105 27.3905 21.0989 27.3737 21.0891 27.359C21.0793 27.3442 21.066 27.3321 21.0505 27.3236C21.035 27.3151 21.0177 27.3104 21 27.31V27.3ZM21.56 27.3C21.5447 27.2999 21.5295 27.3031 21.5155 27.3092C21.5014 27.3154 21.4888 27.3244 21.4785 27.3357C21.4681 27.347 21.4602 27.3603 21.4553 27.3748C21.4504 27.3894 21.4486 27.4047 21.45 27.42C21.45 27.48 21.5 27.53 21.55 27.53C21.5733 27.5334 21.597 27.5292 21.6177 27.5181C21.6384 27.5069 21.6551 27.4895 21.6651 27.4682C21.6752 27.447 21.6782 27.4231 21.6737 27.4C21.6691 27.3769 21.6573 27.3559 21.64 27.34C21.6293 27.3299 21.6168 27.3221 21.603 27.3169C21.5893 27.3118 21.5747 27.3094 21.56 27.31V27.3V27.3ZM22.12 27.3C22.1047 27.2999 22.0895 27.3031 22.0755 27.3092C22.0614 27.3154 22.0488 27.3244 22.0385 27.3357C22.0281 27.347 22.0202 27.3603 22.0153 27.3748C22.0104 27.3894 22.0086 27.4047 22.01 27.42C22.01 27.4492 22.0216 27.4772 22.0422 27.4978C22.0628 27.5184 22.0908 27.53 22.12 27.53C22.1492 27.53 22.1772 27.5184 22.1978 27.4978C22.2184 27.4772 22.23 27.4492 22.23 27.42V27.41C22.2277 27.3842 22.2165 27.3601 22.1982 27.3418C22.1799 27.3235 22.1558 27.3123 22.13 27.31L22.12 27.3V27.3ZM22.68 27.3C22.6583 27.3005 22.6372 27.3074 22.6194 27.3199C22.6016 27.3323 22.5879 27.3498 22.58 27.37V27.42C22.58 27.48 22.62 27.53 22.68 27.53C22.7092 27.53 22.7372 27.5184 22.7578 27.4978C22.7784 27.4772 22.79 27.4492 22.79 27.42C22.79 27.3908 22.7784 27.3628 22.7578 27.3422C22.7372 27.3216 22.7092 27.31 22.68 27.31V27.3ZM23.25 27.3C23.2347 27.2999 23.2195 27.3031 23.2055 27.3092C23.1914 27.3154 23.1788 27.3244 23.1685 27.3357C23.1581 27.347 23.1502 27.3603 23.1453 27.3748C23.1404 27.3894 23.1386 27.4047 23.14 27.42C23.14 27.48 23.18 27.53 23.24 27.53C23.31 27.53 23.36 27.48 23.36 27.42V27.4C23.3575 27.3726 23.3448 27.3471 23.3244 27.3286C23.3041 27.3101 23.2775 27.2999 23.25 27.3V27.3ZM23.81 27.3C23.7795 27.3 23.7503 27.3121 23.7287 27.3337C23.7071 27.3552 23.695 27.3845 23.695 27.415C23.695 27.4455 23.7071 27.4748 23.7287 27.4963C23.7503 27.5179 23.7795 27.53 23.81 27.53C23.87 27.53 23.91 27.48 23.91 27.42V27.4C23.9077 27.3742 23.8965 27.3501 23.8782 27.3318C23.8599 27.3135 23.8358 27.3023 23.81 27.3ZM24.37 27.3C24.3483 27.3005 24.3272 27.3074 24.3094 27.3199C24.2916 27.3323 24.2779 27.3498 24.27 27.37L24.26 27.42C24.2604 27.4377 24.2651 27.455 24.2736 27.4705C24.2821 27.486 24.2942 27.4993 24.309 27.5091C24.3237 27.5189 24.3405 27.525 24.3581 27.5269C24.3757 27.5288 24.3935 27.5264 24.41 27.52C24.4319 27.5115 24.4505 27.4963 24.4631 27.4765C24.4756 27.4567 24.4816 27.4334 24.48 27.41C24.4777 27.3842 24.4665 27.3601 24.4482 27.3418C24.4299 27.3235 24.4058 27.3123 24.38 27.31L24.37 27.3V27.3ZM24.93 27.3C24.8995 27.3 24.8702 27.3121 24.8487 27.3337C24.8271 27.3552 24.815 27.3845 24.815 27.415C24.815 27.4455 24.8271 27.4748 24.8487 27.4963C24.8702 27.5179 24.8995 27.53 24.93 27.53C24.9455 27.53 24.9608 27.5264 24.9747 27.5194C24.9886 27.5125 25.0007 27.5024 25.01 27.49C25.0295 27.4679 25.0402 27.4394 25.04 27.41C25.0377 27.3842 25.0265 27.3601 25.0082 27.3418C24.9899 27.3235 24.9658 27.3123 24.94 27.31L24.93 27.3V27.3ZM25.49 27.3C25.4671 27.3012 25.4451 27.3096 25.4272 27.3239C25.4092 27.3383 25.3962 27.3579 25.39 27.38C25.3873 27.3932 25.3873 27.4068 25.39 27.42C25.39 27.48 25.43 27.53 25.49 27.53C25.5063 27.532 25.5228 27.5304 25.5384 27.5252C25.554 27.52 25.5682 27.5114 25.58 27.5C25.5914 27.4882 25.6 27.474 25.6052 27.4584C25.6104 27.4428 25.612 27.4263 25.61 27.41C25.6088 27.3871 25.6004 27.3651 25.5861 27.3472C25.5717 27.3292 25.5521 27.3162 25.53 27.31C25.5168 27.3073 25.5032 27.3073 25.49 27.31V27.3V27.3ZM26.06 27.3C26.0383 27.3005 26.0172 27.3074 25.9994 27.3199C25.9816 27.3323 25.9679 27.3498 25.96 27.37L25.94 27.42C25.94 27.48 25.99 27.53 26.06 27.53C26.0747 27.5306 26.0893 27.5282 26.103 27.5231C26.1168 27.5179 26.1293 27.5101 26.14 27.5C26.1514 27.4882 26.16 27.474 26.1652 27.4584C26.1704 27.4428 26.172 27.4263 26.17 27.41C26.1675 27.3826 26.1548 27.3571 26.1344 27.3386C26.1141 27.3201 26.0875 27.3099 26.06 27.31V27.3V27.3ZM26.62 27.3C26.6047 27.2999 26.5895 27.3031 26.5755 27.3092C26.5614 27.3154 26.5488 27.3244 26.5385 27.3357C26.5281 27.347 26.5202 27.3603 26.5153 27.3748C26.5104 27.3894 26.5086 27.4047 26.51 27.42C26.51 27.48 26.56 27.53 26.61 27.53C26.6278 27.5347 26.6466 27.5344 26.6642 27.5291C26.6819 27.5238 26.6977 27.5137 26.71 27.5C26.7196 27.4873 26.7264 27.4727 26.7299 27.4572C26.7333 27.4417 26.7334 27.4256 26.73 27.41C26.7275 27.3826 26.7148 27.3571 26.6944 27.3386C26.6741 27.3201 26.6475 27.3099 26.62 27.31V27.3V27.3ZM27.18 27.3C27.1583 27.3005 27.1372 27.3074 27.1194 27.3199C27.1016 27.3323 27.0879 27.3498 27.08 27.37L27.07 27.42C27.07 27.4418 27.0765 27.463 27.0885 27.4811C27.1006 27.4992 27.1178 27.5133 27.1379 27.5216C27.158 27.53 27.1801 27.5321 27.2015 27.5279C27.2228 27.5236 27.2424 27.5132 27.2578 27.4978C27.2732 27.4824 27.2836 27.4628 27.2879 27.4415C27.2921 27.4201 27.29 27.398 27.2816 27.3779C27.2733 27.3578 27.2592 27.3406 27.2411 27.3285C27.223 27.3165 27.2018 27.31 27.18 27.31V27.3V27.3ZM27.74 27.3C27.7171 27.3012 27.6951 27.3096 27.6772 27.3239C27.6592 27.3383 27.6462 27.3579 27.64 27.38C27.6373 27.3932 27.6373 27.4068 27.64 27.42C27.64 27.48 27.68 27.53 27.74 27.53C27.81 27.53 27.85 27.48 27.86 27.42V27.4C27.8575 27.3726 27.8448 27.3471 27.8244 27.3286C27.8041 27.3101 27.7775 27.2999 27.75 27.3H27.74V27.3ZM28.31 27.3C28.2866 27.2984 28.2633 27.3044 28.2435 27.3169C28.2237 27.3295 28.2085 27.3481 28.2 27.37L28.19 27.42C28.19 27.48 28.24 27.53 28.31 27.53C28.37 27.53 28.41 27.48 28.41 27.42V27.41C28.4077 27.3842 28.3965 27.3601 28.3782 27.3418C28.3599 27.3235 28.3358 27.3123 28.31 27.31V27.3V27.3ZM28.87 27.3C28.8547 27.2999 28.8395 27.3031 28.8255 27.3092C28.8114 27.3154 28.7988 27.3244 28.7885 27.3357C28.7781 27.347 28.7702 27.3603 28.7653 27.3748C28.7604 27.3894 28.7586 27.4047 28.76 27.42C28.76 27.48 28.81 27.53 28.86 27.53C28.93 27.53 28.98 27.48 28.98 27.42V27.41C28.9775 27.3826 28.9648 27.3571 28.9444 27.3386C28.9241 27.3201 28.8975 27.3099 28.87 27.31V27.3V27.3ZM29.43 27.3C29.4147 27.2999 29.3995 27.3031 29.3855 27.3092C29.3714 27.3154 29.3588 27.3244 29.3485 27.3357C29.3381 27.347 29.3302 27.3603 29.3253 27.3748C29.3204 27.3894 29.3186 27.4047 29.32 27.42C29.3204 27.4377 29.3251 27.455 29.3336 27.4705C29.3421 27.486 29.3542 27.4993 29.369 27.5091C29.3837 27.5189 29.4005 27.525 29.4181 27.5269C29.4357 27.5288 29.4535 27.5264 29.47 27.52C29.4919 27.5115 29.5105 27.4963 29.5231 27.4765C29.5356 27.4567 29.5416 27.4334 29.54 27.41C29.5377 27.3842 29.5265 27.3601 29.5082 27.3418C29.4899 27.3235 29.4658 27.3123 29.44 27.31L29.43 27.3V27.3ZM29.99 27.3C29.9671 27.3012 29.9451 27.3096 29.9272 27.3239C29.9092 27.3383 29.8962 27.3579 29.89 27.38C29.8873 27.3932 29.8873 27.4068 29.89 27.42C29.89 27.48 29.93 27.53 29.99 27.53C30.0047 27.5306 30.0193 27.5282 30.033 27.5231C30.0468 27.5179 30.0593 27.5101 30.07 27.5C30.0832 27.4891 30.0937 27.4753 30.1006 27.4597C30.1076 27.4441 30.1108 27.4271 30.11 27.41C30.1088 27.3871 30.1004 27.3651 30.0861 27.3472C30.0717 27.3292 30.0521 27.3162 30.03 27.31C30.0168 27.3073 30.0032 27.3073 29.99 27.31V27.3V27.3ZM30.56 27.3C30.5383 27.3005 30.5172 27.3074 30.4994 27.3199C30.4816 27.3323 30.4679 27.3498 30.46 27.37L30.44 27.42C30.44 27.48 30.49 27.53 30.55 27.53C30.5653 27.5314 30.5807 27.5296 30.5952 27.5247C30.6097 27.5198 30.623 27.5119 30.6343 27.5015C30.6456 27.4912 30.6546 27.4786 30.6608 27.4645C30.6669 27.4505 30.6701 27.4353 30.67 27.42V27.41C30.6688 27.3871 30.6604 27.3651 30.6461 27.3472C30.6317 27.3292 30.6121 27.3162 30.59 27.31C30.5768 27.3073 30.5632 27.3073 30.55 27.31L30.56 27.3V27.3ZM31.12 27.3C31.1047 27.2999 31.0895 27.3031 31.0755 27.3092C31.0614 27.3154 31.0488 27.3244 31.0385 27.3357C31.0281 27.347 31.0202 27.3603 31.0153 27.3748C31.0104 27.3894 31.0086 27.4047 31.01 27.42C31.01 27.48 31.06 27.53 31.11 27.53C31.1253 27.5314 31.1406 27.5296 31.1552 27.5247C31.1697 27.5198 31.183 27.5119 31.1943 27.5015C31.2056 27.4912 31.2146 27.4786 31.2208 27.4645C31.2269 27.4505 31.2301 27.4353 31.23 27.42V27.41C31.2275 27.3826 31.2148 27.3571 31.1944 27.3386C31.1741 27.3201 31.1475 27.3099 31.12 27.31V27.3V27.3ZM31.68 27.3C31.6583 27.3005 31.6372 27.3074 31.6194 27.3199C31.6016 27.3323 31.5879 27.3498 31.58 27.37L31.57 27.42C31.57 27.48 31.62 27.53 31.68 27.53C31.74 27.53 31.79 27.48 31.79 27.42V27.4C31.7875 27.3726 31.7748 27.3471 31.7544 27.3286C31.7341 27.3101 31.7075 27.2999 31.68 27.3V27.3ZM32.24 27.3C32.2247 27.2999 32.2095 27.3031 32.1955 27.3092C32.1814 27.3154 32.1688 27.3244 32.1585 27.3357C32.1481 27.347 32.1402 27.3603 32.1353 27.3748C32.1304 27.3894 32.1286 27.4047 32.13 27.42C32.13 27.48 32.18 27.53 32.24 27.53C32.3 27.53 32.35 27.48 32.35 27.42V27.4C32.3477 27.3742 32.3365 27.3501 32.3182 27.3318C32.2999 27.3135 32.2758 27.3023 32.25 27.3H32.24ZM32.8 27.3C32.7771 27.3012 32.7551 27.3096 32.7372 27.3239C32.7192 27.3383 32.7062 27.3579 32.7 27.38C32.6973 27.3932 32.6973 27.4068 32.7 27.42C32.7 27.48 32.74 27.53 32.8 27.53C32.8234 27.5316 32.8467 27.5256 32.8665 27.5131C32.8863 27.5005 32.9015 27.4819 32.91 27.46C32.9168 27.4427 32.9191 27.424 32.9167 27.4056C32.9143 27.3872 32.9073 27.3697 32.8963 27.3547C32.8854 27.3397 32.8708 27.3278 32.8539 27.3199C32.8371 27.3121 32.8185 27.3087 32.8 27.31V27.3V27.3ZM33.37 27.3C33.3466 27.2984 33.3233 27.3044 33.3035 27.3169C33.2837 27.3295 33.2685 27.3481 33.26 27.37L33.25 27.42C33.25 27.48 33.3 27.53 33.37 27.53C33.3929 27.5288 33.4149 27.5204 33.4328 27.5061C33.4508 27.4917 33.4638 27.4721 33.47 27.45C33.4745 27.4341 33.4754 27.4174 33.4726 27.4011C33.4698 27.3848 33.4633 27.3694 33.4537 27.3559C33.4441 27.3425 33.4316 27.3313 33.4171 27.3234C33.4026 27.3154 33.3865 27.3109 33.37 27.31V27.3ZM33.93 27.3C33.9147 27.2999 33.8995 27.3031 33.8855 27.3092C33.8714 27.3154 33.8588 27.3244 33.8485 27.3357C33.8381 27.347 33.8302 27.3603 33.8253 27.3748C33.8204 27.3894 33.8186 27.4047 33.82 27.42C33.8204 27.4377 33.8251 27.455 33.8336 27.4705C33.8421 27.486 33.8542 27.4993 33.869 27.5091C33.8837 27.5189 33.9005 27.525 33.9181 27.5269C33.9357 27.5288 33.9535 27.5264 33.97 27.52C33.9924 27.5098 34.0108 27.4923 34.0222 27.4705C34.0335 27.4486 34.0371 27.4235 34.0325 27.3993C34.0279 27.3751 34.0153 27.3531 33.9967 27.3369C33.9781 27.3207 33.9546 27.3112 33.93 27.31V27.3ZM34.49 27.3C34.4747 27.2999 34.4595 27.3031 34.4455 27.3092C34.4314 27.3154 34.4188 27.3244 34.4085 27.3357C34.3981 27.347 34.3902 27.3603 34.3853 27.3748C34.3804 27.3894 34.3786 27.4047 34.38 27.42C34.38 27.48 34.43 27.53 34.49 27.53C34.5047 27.5306 34.5193 27.5282 34.533 27.5231C34.5468 27.5179 34.5593 27.5101 34.57 27.5C34.5814 27.4882 34.59 27.474 34.5952 27.4584C34.6004 27.4428 34.602 27.4263 34.6 27.41C34.5975 27.3826 34.5848 27.3571 34.5644 27.3386C34.5441 27.3201 34.5175 27.3099 34.49 27.31V27.3V27.3ZM16.29 29.34C15.8927 29.3259 15.5044 29.4602 15.2007 29.7168C14.897 29.9733 14.6997 30.3338 14.6472 30.7278C14.5948 31.1219 14.6909 31.5214 14.9169 31.8485C15.1429 32.1756 15.4825 32.4068 15.8697 32.4971C16.2568 32.5875 16.6637 32.5304 17.0111 32.3372C17.3585 32.1439 17.6216 31.8282 17.7489 31.4516C17.8763 31.075 17.8589 30.6644 17.7001 30.3C17.5413 29.9355 17.2525 29.6432 16.89 29.48C16.6979 29.3936 16.4906 29.3461 16.28 29.34H16.29V29.34ZM20.12 29.34C19.9099 29.3347 19.7008 29.3709 19.5047 29.4465C19.3085 29.522 19.1292 29.6355 18.9769 29.7803C18.8246 29.9252 18.7024 30.0986 18.6171 30.2908C18.5318 30.4829 18.4853 30.6899 18.48 30.9C18.4747 31.1101 18.5109 31.3192 18.5865 31.5153C18.662 31.7115 18.7755 31.8908 18.9203 32.0431C19.0652 32.1954 19.2386 32.3176 19.4308 32.4029C19.6229 32.4882 19.8299 32.5347 20.04 32.54C20.4643 32.5506 20.8755 32.3922 21.1831 32.0997C21.4906 31.8071 21.6694 31.4043 21.68 30.98C21.6906 30.5557 21.5322 30.1445 21.2397 29.8369C20.9471 29.5294 20.5443 29.3506 20.12 29.34V29.34ZM23.95 29.34C23.7399 29.3354 23.5309 29.3722 23.335 29.4484C23.1392 29.5246 22.9602 29.6386 22.8084 29.7839C22.5018 30.0774 22.3243 30.4807 22.315 30.905C22.3057 31.3293 22.4654 31.74 22.7589 32.0466C23.0524 32.3532 23.4557 32.5307 23.88 32.54C24.3043 32.5493 24.715 32.3896 25.0216 32.0961C25.3282 31.8026 25.5057 31.3993 25.515 30.975C25.5243 30.5507 25.3646 30.14 25.0711 29.8334C24.7776 29.5268 24.3743 29.3493 23.95 29.34V29.34ZM27.79 29.34C27.5799 29.3347 27.3708 29.3709 27.1747 29.4465C26.9785 29.522 26.7992 29.6355 26.6469 29.7803C26.4946 29.9252 26.3724 30.0986 26.2871 30.2908C26.2018 30.4829 26.1553 30.6899 26.15 30.9C26.1447 31.1101 26.1809 31.3192 26.2565 31.5153C26.332 31.7115 26.4455 31.8908 26.5903 32.0431C26.7352 32.1954 26.9086 32.3176 27.1008 32.4029C27.2929 32.4882 27.4999 32.5347 27.71 32.54C28.1343 32.5506 28.5455 32.3922 28.8531 32.0997C29.1606 31.8071 29.3394 31.4043 29.35 30.98C29.3606 30.5557 29.2022 30.1445 28.9097 29.8369C28.6171 29.5294 28.2143 29.3506 27.79 29.34V29.34ZM31.63 29.34C31.2057 29.3294 30.7945 29.4878 30.4869 29.7803C30.1794 30.0729 30.0006 30.4757 29.99 30.9C29.9794 31.3243 30.1378 31.7355 30.4303 32.0431C30.7229 32.3506 31.1257 32.5294 31.55 32.54C31.7601 32.5453 31.9692 32.5091 32.1653 32.4335C32.3615 32.358 32.5408 32.2445 32.6931 32.0997C32.8454 31.9548 32.9676 31.7814 33.0529 31.5892C33.1382 31.3971 33.1847 31.1901 33.19 30.98C33.1953 30.7699 33.1591 30.5608 33.0835 30.3647C33.008 30.1685 32.8945 29.9892 32.7497 29.8369C32.6048 29.6846 32.4314 29.5624 32.2393 29.4771C32.0471 29.3918 31.8401 29.3453 31.63 29.34V29.34ZM13.69 33.94C13.6625 33.9399 13.6359 33.9501 13.6156 33.9686C13.5952 33.9871 13.5825 34.0126 13.58 34.04C13.58 34.11 13.63 34.16 13.68 34.16C13.7105 34.16 13.7398 34.1479 13.7613 34.1263C13.7829 34.1047 13.795 34.0755 13.795 34.045C13.795 34.0145 13.7829 33.9853 13.7613 33.9637C13.7398 33.9421 13.7105 33.93 13.68 33.93L13.69 33.94ZM14.25 33.94C14.2225 33.9399 14.1959 33.9501 14.1756 33.9686C14.1552 33.9871 14.1425 34.0126 14.14 34.04C14.14 34.11 14.19 34.16 14.25 34.16C14.31 34.16 14.36 34.11 14.36 34.05V34.03C14.3575 34.0026 14.3448 33.9771 14.3244 33.9586C14.3041 33.9401 14.2775 33.9299 14.25 33.93V33.94V33.94ZM14.81 33.94C14.7953 33.9394 14.7807 33.9418 14.767 33.9469C14.7532 33.9521 14.7407 33.9599 14.73 33.97C14.7199 33.9807 14.7121 33.9932 14.7069 34.007C14.7018 34.0207 14.6994 34.0353 14.7 34.05C14.7 34.11 14.75 34.16 14.81 34.16C14.87 34.16 14.92 34.11 14.92 34.05V34.03C14.9177 34.0042 14.9065 33.9801 14.8882 33.9618C14.8699 33.9435 14.8458 33.9323 14.82 33.93L14.81 33.94V33.94ZM15.37 33.94C15.3408 33.94 15.3128 33.9516 15.2922 33.9722C15.2716 33.9928 15.26 34.0208 15.26 34.05C15.26 34.0792 15.2716 34.1072 15.2922 34.1278C15.3128 34.1484 15.3408 34.16 15.37 34.16C15.3934 34.1616 15.4167 34.1556 15.4365 34.1431C15.4563 34.1305 15.4715 34.1119 15.48 34.09C15.4868 34.0727 15.4891 34.054 15.4867 34.0356C15.4843 34.0172 15.4773 33.9997 15.4663 33.9847C15.4554 33.9697 15.4408 33.9578 15.4239 33.9499C15.4071 33.9421 15.3885 33.9387 15.37 33.94ZM15.94 33.94C15.9253 33.9394 15.9107 33.9418 15.897 33.9469C15.8832 33.9521 15.8707 33.9599 15.86 33.97C15.8481 33.9798 15.8384 33.992 15.8315 34.0058C15.8246 34.0195 15.8207 34.0346 15.82 34.05C15.82 34.11 15.88 34.16 15.94 34.16C15.9555 34.16 15.9708 34.1564 15.9847 34.1494C15.9986 34.1425 16.0107 34.1324 16.02 34.12C16.0395 34.0979 16.0502 34.0694 16.05 34.04C16.0475 34.0126 16.0348 33.9871 16.0145 33.9686C15.9941 33.9501 15.9675 33.9399 15.94 33.94V33.94ZM16.5 33.94C16.4708 33.94 16.4428 33.9516 16.4222 33.9722C16.4016 33.9928 16.39 34.0208 16.39 34.05C16.39 34.0792 16.4016 34.1072 16.4222 34.1278C16.4428 34.1484 16.4708 34.16 16.5 34.16C16.5292 34.16 16.5572 34.1484 16.5778 34.1278C16.5984 34.1072 16.61 34.0792 16.61 34.05C16.61 34.0208 16.5984 33.9928 16.5778 33.9722C16.5572 33.9516 16.5292 33.94 16.5 33.94ZM17.06 33.94C17.0325 33.9399 17.0059 33.9501 16.9855 33.9686C16.9652 33.9871 16.9525 34.0126 16.95 34.04C16.95 34.11 17 34.16 17.06 34.16C17.0817 34.1595 17.1028 34.1526 17.1206 34.1401C17.1384 34.1277 17.1521 34.1102 17.16 34.09C17.1711 34.0691 17.1752 34.0451 17.1716 34.0217C17.168 33.9983 17.1569 33.9766 17.14 33.96C17.1293 33.9499 17.1168 33.9421 17.103 33.9369C17.0893 33.9318 17.0747 33.9294 17.06 33.93V33.94V33.94ZM17.62 33.94C17.5992 33.9383 17.5783 33.9432 17.5603 33.9539C17.5424 33.9647 17.5283 33.9808 17.52 34V34.05C17.52 34.11 17.56 34.16 17.62 34.16C17.6372 34.1617 17.6545 34.1589 17.6703 34.1518C17.686 34.1448 17.6997 34.1339 17.71 34.12C17.7201 34.1093 17.7279 34.0968 17.7331 34.083C17.7382 34.0693 17.7406 34.0547 17.74 34.04C17.7388 34.0171 17.7304 33.9951 17.7161 33.9772C17.7017 33.9592 17.6821 33.9462 17.66 33.94C17.6468 33.9373 17.6332 33.9373 17.62 33.94V33.94ZM18.19 33.94C18.1692 33.9383 18.1483 33.9432 18.1303 33.9539C18.1124 33.9647 18.0983 33.9808 18.09 34L18.07 34.04C18.07 34.11 18.12 34.16 18.18 34.16C18.2034 34.1616 18.2267 34.1556 18.2465 34.1431C18.2663 34.1305 18.2815 34.1119 18.29 34.09C18.2999 34.068 18.3024 34.0434 18.297 34.0199C18.2915 33.9964 18.2786 33.9754 18.26 33.96C18.241 33.942 18.2162 33.9313 18.19 33.93V33.94V33.94ZM18.75 33.94C18.7292 33.9383 18.7083 33.9432 18.6903 33.9539C18.6724 33.9647 18.6583 33.9808 18.65 34L18.64 34.05C18.64 34.11 18.69 34.16 18.74 34.16C18.81 34.16 18.86 34.11 18.86 34.05V34.03C18.8575 34.0026 18.8448 33.9771 18.8244 33.9586C18.8041 33.9401 18.7775 33.9299 18.75 33.93V33.94V33.94ZM19.31 33.94C19.2825 33.9399 19.2559 33.9501 19.2355 33.9686C19.2152 33.9871 19.2025 34.0126 19.2 34.04C19.2 34.11 19.25 34.16 19.31 34.16C19.37 34.16 19.42 34.11 19.42 34.05V34.04C19.4177 34.0142 19.4065 33.9901 19.3882 33.9718C19.3699 33.9535 19.3458 33.9423 19.32 33.94H19.31V33.94ZM19.87 33.94C19.8492 33.9383 19.8283 33.9432 19.8103 33.9539C19.7924 33.9647 19.7783 33.9808 19.77 34L19.76 34.05C19.7604 34.0677 19.7651 34.085 19.7736 34.1005C19.7821 34.116 19.7942 34.1293 19.809 34.1391C19.8237 34.1489 19.8405 34.155 19.8581 34.1569C19.8757 34.1588 19.8935 34.1564 19.91 34.15C19.9319 34.1415 19.9505 34.1263 19.9631 34.1065C19.9756 34.0867 19.9816 34.0634 19.98 34.04C19.9777 34.0142 19.9665 33.9901 19.9482 33.9718C19.9299 33.9535 19.9058 33.9423 19.88 33.94H19.87V33.94ZM20.44 33.94C20.4192 33.9383 20.3983 33.9432 20.3803 33.9539C20.3624 33.9647 20.3483 33.9808 20.34 34L20.32 34.04C20.32 34.11 20.37 34.16 20.44 34.16C20.5 34.16 20.54 34.11 20.54 34.05V34.04C20.5377 34.0142 20.5265 33.9901 20.5082 33.9718C20.4899 33.9535 20.4658 33.9423 20.44 33.94V33.94ZM21 33.94C20.9792 33.9383 20.9583 33.9432 20.9403 33.9539C20.9224 33.9647 20.9083 33.9808 20.9 34C20.89 34.02 20.88 34.03 20.89 34.05C20.89 34.11 20.94 34.16 20.99 34.16C21.0134 34.1616 21.0367 34.1556 21.0565 34.1431C21.0763 34.1305 21.0915 34.1119 21.1 34.09C21.1064 34.0735 21.1088 34.0557 21.1069 34.0381C21.105 34.0205 21.0989 34.0037 21.0891 33.989C21.0793 33.9742 21.066 33.9621 21.0505 33.9536C21.035 33.9451 21.0177 33.9404 21 33.94V33.94ZM21.56 33.94C21.5325 33.9399 21.5059 33.9501 21.4855 33.9686C21.4652 33.9871 21.4525 34.0126 21.45 34.04C21.45 34.11 21.5 34.16 21.55 34.16C21.575 34.1639 21.6006 34.1591 21.6224 34.1463C21.6443 34.1336 21.6611 34.1137 21.67 34.09C21.6799 34.068 21.6824 34.0434 21.677 34.0199C21.6715 33.9964 21.6586 33.9754 21.64 33.96C21.6293 33.9499 21.6168 33.9421 21.603 33.9369C21.5893 33.9318 21.5747 33.9294 21.56 33.93V33.94V33.94ZM22.12 33.94C22.0925 33.9399 22.0659 33.9501 22.0456 33.9686C22.0252 33.9871 22.0125 34.0126 22.01 34.04C22.01 34.11 22.06 34.16 22.12 34.16C22.1355 34.16 22.1508 34.1564 22.1647 34.1494C22.1786 34.1425 22.1907 34.1324 22.2 34.12C22.2101 34.1093 22.2179 34.0968 22.2231 34.083C22.2282 34.0693 22.2306 34.0547 22.23 34.04C22.2277 34.0142 22.2165 33.9901 22.1982 33.9718C22.1799 33.9535 22.1558 33.9423 22.13 33.94H22.12V33.94ZM22.68 33.94C22.6542 33.9423 22.6301 33.9535 22.6118 33.9718C22.5935 33.9901 22.5823 34.0142 22.58 34.04C22.58 34.11 22.62 34.16 22.68 34.16C22.7105 34.16 22.7398 34.1479 22.7613 34.1263C22.7829 34.1047 22.795 34.0755 22.795 34.045C22.795 34.0145 22.7829 33.9853 22.7613 33.9637C22.7398 33.9421 22.7105 33.93 22.68 33.93V33.94ZM23.25 33.94C23.2225 33.9399 23.1959 33.9501 23.1756 33.9686C23.1552 33.9871 23.1425 34.0126 23.14 34.04C23.14 34.11 23.18 34.16 23.24 34.16C23.31 34.16 23.36 34.11 23.36 34.05V34.03C23.3575 34.0026 23.3448 33.9771 23.3244 33.9586C23.3041 33.9401 23.2775 33.9299 23.25 33.93V33.94V33.94ZM23.81 33.94C23.7953 33.9394 23.7807 33.9418 23.767 33.9469C23.7532 33.9521 23.7407 33.9599 23.73 33.97C23.7181 33.9798 23.7084 33.992 23.7015 34.0058C23.6946 34.0195 23.6907 34.0346 23.69 34.05C23.69 34.11 23.75 34.16 23.81 34.16C23.87 34.16 23.91 34.11 23.91 34.05V34.03C23.9077 34.0042 23.8965 33.9801 23.8782 33.9618C23.8599 33.9435 23.8358 33.9323 23.81 33.93V33.94V33.94ZM24.37 33.94C24.3478 33.9401 24.3262 33.9469 24.308 33.9595C24.2897 33.9721 24.2757 33.9899 24.2678 34.0105C24.2598 34.0312 24.2583 34.0538 24.2634 34.0754C24.2685 34.097 24.2801 34.1165 24.2965 34.1314C24.3129 34.1463 24.3334 34.1559 24.3553 34.159C24.3773 34.162 24.3996 34.1583 24.4195 34.1485C24.4393 34.1386 24.4557 34.1229 24.4665 34.1036C24.4773 34.0842 24.482 34.0621 24.48 34.04C24.4777 34.0142 24.4665 33.9901 24.4482 33.9718C24.4299 33.9535 24.4058 33.9423 24.38 33.94H24.37V33.94ZM24.93 33.94C24.9153 33.9394 24.9007 33.9418 24.887 33.9469C24.8732 33.9521 24.8607 33.9599 24.85 33.97C24.8399 33.9807 24.8321 33.9932 24.8269 34.007C24.8218 34.0207 24.8194 34.0353 24.82 34.05C24.82 34.11 24.87 34.16 24.93 34.16C24.9455 34.16 24.9608 34.1564 24.9747 34.1494C24.9886 34.1425 25.0007 34.1324 25.01 34.12C25.0295 34.0979 25.0402 34.0694 25.04 34.04C25.0377 34.0142 25.0265 33.9901 25.0082 33.9718C24.9899 33.9535 24.9658 33.9423 24.94 33.94H24.93V33.94ZM25.49 33.94C25.4691 33.9383 25.4483 33.9432 25.4303 33.9539C25.4124 33.9647 25.3983 33.9808 25.39 34V34.05C25.39 34.11 25.43 34.16 25.49 34.16C25.5072 34.1617 25.5245 34.1589 25.5403 34.1518C25.556 34.1448 25.5697 34.1339 25.58 34.12C25.5901 34.1093 25.5979 34.0968 25.6031 34.083C25.6082 34.0693 25.6106 34.0547 25.61 34.04C25.6088 34.0171 25.6004 33.9951 25.5861 33.9772C25.5717 33.9592 25.5521 33.9462 25.53 33.94C25.5168 33.9373 25.5032 33.9373 25.49 33.94V33.94ZM26.06 33.94C26.0325 33.9399 26.0059 33.9501 25.9855 33.9686C25.9652 33.9871 25.9525 34.0126 25.95 34.04C25.95 34.11 26 34.16 26.05 34.16C26.0672 34.1617 26.0845 34.1589 26.1003 34.1518C26.116 34.1448 26.1297 34.1339 26.14 34.12C26.1501 34.1093 26.1579 34.0968 26.1631 34.083C26.1682 34.0693 26.1706 34.0547 26.17 34.04C26.1675 34.0126 26.1548 33.9871 26.1344 33.9686C26.1141 33.9501 26.0875 33.9399 26.06 33.94V33.94ZM26.62 33.94C26.5992 33.9383 26.5783 33.9432 26.5603 33.9539C26.5424 33.9647 26.5283 33.9808 26.52 34L26.51 34.05C26.51 34.11 26.56 34.16 26.61 34.16C26.6287 34.1625 26.6477 34.1601 26.6652 34.1531C26.6827 34.1461 26.6982 34.1347 26.71 34.12C26.7268 34.0969 26.734 34.0683 26.73 34.04C26.7275 34.0126 26.7148 33.9871 26.6944 33.9686C26.6741 33.9501 26.6475 33.9399 26.62 33.94V33.94ZM27.18 33.94C27.1525 33.9399 27.1259 33.9501 27.1056 33.9686C27.0852 33.9871 27.0725 34.0126 27.07 34.04C27.07 34.11 27.12 34.16 27.18 34.16C27.2105 34.16 27.2398 34.1479 27.2613 34.1263C27.2829 34.1047 27.295 34.0755 27.295 34.045C27.295 34.0145 27.2829 33.9853 27.2613 33.9637C27.2398 33.9421 27.2105 33.93 27.18 33.93V33.94ZM27.74 33.94C27.7191 33.9383 27.6983 33.9432 27.6803 33.9539C27.6624 33.9647 27.6483 33.9808 27.64 34V34.05C27.64 34.11 27.68 34.16 27.74 34.16C27.81 34.16 27.85 34.11 27.86 34.05V34.03C27.8575 34.0026 27.8448 33.9771 27.8244 33.9586C27.8041 33.9401 27.7775 33.9299 27.75 33.93L27.74 33.94V33.94ZM28.31 33.94C28.2891 33.9383 28.2683 33.9432 28.2503 33.9539C28.2324 33.9647 28.2183 33.9808 28.21 34L28.19 34.04C28.19 34.11 28.24 34.16 28.31 34.16C28.37 34.16 28.41 34.11 28.41 34.05V34.04C28.4077 34.0142 28.3965 33.9901 28.3782 33.9718C28.3599 33.9535 28.3358 33.9423 28.31 33.94V33.94ZM28.87 33.94C28.8492 33.9383 28.8283 33.9432 28.8103 33.9539C28.7924 33.9647 28.7783 33.9808 28.77 34L28.76 34.05C28.76 34.11 28.81 34.16 28.86 34.16C28.93 34.16 28.98 34.11 28.98 34.05V34.04C28.9775 34.0126 28.9648 33.9871 28.9444 33.9686C28.9241 33.9501 28.8975 33.9399 28.87 33.94V33.94ZM29.43 33.94C29.4025 33.9399 29.3759 33.9501 29.3556 33.9686C29.3352 33.9871 29.3225 34.0126 29.32 34.04C29.32 34.11 29.37 34.16 29.43 34.16C29.4524 34.1609 29.4746 34.155 29.4935 34.143C29.5125 34.131 29.5273 34.1135 29.536 34.0928C29.5447 34.0721 29.5469 34.0493 29.5422 34.0273C29.5376 34.0054 29.5263 33.9854 29.51 33.97C29.491 33.952 29.4662 33.9413 29.44 33.94H29.43V33.94ZM29.99 33.94C29.9642 33.9423 29.9401 33.9535 29.9218 33.9718C29.9035 33.9901 29.8923 34.0142 29.89 34.04C29.89 34.11 29.93 34.16 29.99 34.16C30.0055 34.16 30.0208 34.1564 30.0347 34.1494C30.0486 34.1425 30.0607 34.1324 30.07 34.12C30.0819 34.1102 30.0916 34.098 30.0985 34.0842C30.1054 34.0705 30.1093 34.0554 30.11 34.04C30.1088 34.0171 30.1004 33.9951 30.0861 33.9772C30.0717 33.9592 30.0521 33.9462 30.03 33.94C30.0168 33.9373 30.0032 33.9373 29.99 33.94V33.94ZM30.56 33.94C30.5391 33.9383 30.5183 33.9432 30.5003 33.9539C30.4824 33.9647 30.4683 33.9808 30.46 34L30.44 34.04C30.44 34.11 30.49 34.16 30.55 34.16C30.5653 34.1614 30.5807 34.1596 30.5952 34.1547C30.6097 34.1498 30.623 34.1419 30.6343 34.1315C30.6456 34.1212 30.6546 34.1086 30.6608 34.0945C30.6669 34.0805 30.6701 34.0653 30.67 34.05V34.04C30.6688 34.0171 30.6604 33.9951 30.6461 33.9772C30.6317 33.9592 30.6121 33.9462 30.59 33.94C30.5768 33.9373 30.5632 33.9373 30.55 33.94H30.56V33.94ZM31.12 33.94C31.0925 33.9399 31.0659 33.9501 31.0456 33.9686C31.0252 33.9871 31.0125 34.0126 31.01 34.04C31.01 34.11 31.06 34.16 31.11 34.16C31.1253 34.1614 31.1406 34.1596 31.1552 34.1547C31.1697 34.1498 31.183 34.1419 31.1943 34.1315C31.2056 34.1212 31.2146 34.1086 31.2208 34.0945C31.2269 34.0805 31.2301 34.0653 31.23 34.05V34.04C31.2275 34.0126 31.2148 33.9871 31.1944 33.9686C31.1741 33.9501 31.1475 33.9399 31.12 33.94V33.94ZM31.68 33.94C31.6525 33.9399 31.6259 33.9501 31.6056 33.9686C31.5852 33.9871 31.5725 34.0126 31.57 34.04C31.57 34.11 31.62 34.16 31.68 34.16C31.74 34.16 31.79 34.11 31.79 34.05V34.03C31.7875 34.0026 31.7748 33.9771 31.7544 33.9586C31.7341 33.9401 31.7075 33.9299 31.68 33.93V33.94V33.94ZM32.24 33.94C32.2192 33.9383 32.1983 33.9432 32.1803 33.9539C32.1624 33.9647 32.1483 33.9808 32.14 34L32.13 34.05C32.13 34.11 32.18 34.16 32.24 34.16C32.3 34.16 32.35 34.11 32.35 34.05V34.03C32.3477 34.0042 32.3365 33.9801 32.3182 33.9618C32.2999 33.9435 32.2758 33.9323 32.25 33.93L32.24 33.94V33.94ZM32.8 33.94C32.7742 33.9423 32.7501 33.9535 32.7318 33.9718C32.7135 33.9901 32.7023 34.0142 32.7 34.04C32.7 34.11 32.74 34.16 32.8 34.16C32.8234 34.1616 32.8467 34.1556 32.8665 34.1431C32.8863 34.1305 32.9015 34.1119 32.91 34.09C32.9168 34.0727 32.9191 34.054 32.9167 34.0356C32.9143 34.0172 32.9073 33.9997 32.8963 33.9847C32.8854 33.9697 32.8708 33.9578 32.8539 33.9499C32.8371 33.9421 32.8185 33.9387 32.8 33.94ZM33.37 33.94C33.3491 33.9383 33.3283 33.9432 33.3103 33.9539C33.2924 33.9647 33.2783 33.9808 33.27 34L33.25 34.05C33.25 34.11 33.3 34.16 33.37 34.16C33.3929 34.1588 33.4149 34.1504 33.4328 34.1361C33.4508 34.1217 33.4638 34.1021 33.47 34.08C33.4745 34.0641 33.4754 34.0474 33.4726 34.0311C33.4698 34.0148 33.4633 33.9994 33.4537 33.9859C33.4441 33.9725 33.4316 33.9613 33.4171 33.9534C33.4026 33.9454 33.3865 33.9409 33.37 33.94V33.94ZM33.93 33.94C33.9025 33.9399 33.8759 33.9501 33.8555 33.9686C33.8352 33.9871 33.8225 34.0126 33.82 34.04C33.82 34.11 33.87 34.16 33.93 34.16C33.9592 34.16 33.9872 34.1484 34.0078 34.1278C34.0284 34.1072 34.04 34.0792 34.04 34.05C34.04 34.0208 34.0284 33.9928 34.0078 33.9722C33.9872 33.9516 33.9592 33.94 33.93 33.94ZM34.49 33.94C34.4692 33.9383 34.4483 33.9432 34.4303 33.9539C34.4124 33.9647 34.3983 33.9808 34.39 34L34.38 34.05C34.38 34.11 34.43 34.16 34.49 34.16C34.5055 34.16 34.5208 34.1564 34.5347 34.1494C34.5486 34.1425 34.5607 34.1324 34.57 34.12C34.5801 34.1093 34.5879 34.0968 34.5931 34.083C34.5982 34.0693 34.6006 34.0547 34.6 34.04C34.5975 34.0126 34.5848 33.9871 34.5644 33.9686C34.5441 33.9501 34.5175 33.9399 34.49 33.94V33.94ZM16.29 36.68C15.9197 36.6678 15.5566 36.7845 15.2628 37.0101C14.9689 37.2358 14.7625 37.5564 14.6787 37.9173C14.5949 38.2782 14.639 38.657 14.8034 38.9891C14.9678 39.3211 15.2423 39.5858 15.5802 39.738C15.918 39.8901 16.2981 39.9203 16.6557 39.8234C17.0133 39.7266 17.3262 39.5086 17.541 39.2067C17.7558 38.9048 17.8591 38.5377 17.8334 38.1681C17.8077 37.7985 17.6545 37.4492 17.4 37.18C17.1 36.87 16.7 36.69 16.28 36.68H16.29ZM20.12 36.68C19.6957 36.68 19.2887 36.8486 18.9886 37.1486C18.6886 37.4487 18.52 37.8557 18.52 38.28C18.52 38.7043 18.6886 39.1113 18.9886 39.4114C19.2887 39.7114 19.6957 39.88 20.12 39.88C20.5443 39.88 20.9513 39.7114 21.2514 39.4114C21.5514 39.1113 21.72 38.7043 21.72 38.28C21.72 37.8557 21.5514 37.4487 21.2514 37.1486C20.9513 36.8486 20.5443 36.68 20.12 36.68ZM23.95 36.68C23.7399 36.6754 23.5309 36.7122 23.335 36.7884C23.1392 36.8646 22.9602 36.9786 22.8084 37.1239C22.6566 37.2692 22.5348 37.443 22.4502 37.6354C22.3655 37.8277 22.3196 38.0349 22.315 38.245C22.3104 38.4551 22.3472 38.6641 22.4234 38.86C22.4996 39.0558 22.6136 39.2348 22.7589 39.3866C22.9042 39.5384 23.078 39.6602 23.2704 39.7448C23.4627 39.8295 23.6699 39.8754 23.88 39.88C24.3043 39.8893 24.715 39.7296 25.0216 39.4361C25.3282 39.1426 25.5057 38.7393 25.515 38.315C25.5243 37.8907 25.3646 37.48 25.0711 37.1734C24.7776 36.8668 24.3743 36.6893 23.95 36.68V36.68ZM27.79 36.68C27.5799 36.6747 27.3708 36.7109 27.1747 36.7865C26.9785 36.862 26.7992 36.9755 26.6469 37.1203C26.4946 37.2652 26.3724 37.4386 26.2871 37.6308C26.2018 37.8229 26.1553 38.0299 26.15 38.24C26.1447 38.4501 26.1809 38.6592 26.2565 38.8553C26.332 39.0515 26.4455 39.2308 26.5903 39.3831C26.7352 39.5354 26.9086 39.6576 27.1008 39.7429C27.2929 39.8282 27.4999 39.8747 27.71 39.88C28.1343 39.8906 28.5455 39.7322 28.8531 39.4397C29.1606 39.1471 29.3394 38.7443 29.35 38.32C29.3606 37.8957 29.2022 37.4845 28.9097 37.1769C28.6171 36.8694 28.2143 36.6906 27.79 36.68ZM31.63 36.68C31.4199 36.6747 31.2108 36.7109 31.0147 36.7865C30.8185 36.862 30.6392 36.9755 30.4869 37.1203C30.3346 37.2652 30.2124 37.4386 30.1271 37.6308C30.0418 37.8229 29.9953 38.0299 29.99 38.24C29.9847 38.4501 30.0209 38.6592 30.0965 38.8553C30.172 39.0515 30.2855 39.2308 30.4303 39.3831C30.5752 39.5354 30.7486 39.6576 30.9408 39.7429C31.1329 39.8282 31.3399 39.8747 31.55 39.88C31.9743 39.8906 32.3855 39.7322 32.6931 39.4397C33.0006 39.1471 33.1794 38.7443 33.19 38.32C33.2006 37.8957 33.0422 37.4845 32.7497 37.1769C32.4571 36.8694 32.0543 36.6906 31.63 36.68V36.68Z" fill="#333333"/>
</svg>
