<svg width="48" height="48" viewBox="0 0 48 48" fill="none" xmlns="http://www.w3.org/2000/svg">
<path fill-rule="evenodd" clip-rule="evenodd" d="M0.0200195 0V48H48.02V0H0.0200195ZM28.84 4C30.54 4 32.22 4.01 33.87 4.04C34.74 4.04 35.44 4.74 35.44 5.61V42.47C35.44 43.34 34.74 44.04 33.87 44.04H14.17C13.3 44.04 12.6 43.34 12.6 42.47V5.6C12.6 4.73 13.3 4.03 14.17 4.03C18.62 4.03 23.77 3.97 28.84 3.99V4ZM20.39 4.98C20.3756 4.98066 20.3614 4.98415 20.3483 4.99029C20.3352 4.99642 20.3235 5.00508 20.3137 5.01575C20.304 5.02643 20.2964 5.03893 20.2915 5.05252C20.2866 5.06612 20.2844 5.08055 20.285 5.095C20.2857 5.10945 20.2892 5.12362 20.2953 5.13671C20.3014 5.14981 20.3101 5.16157 20.3208 5.17132C20.3315 5.18107 20.3439 5.18862 20.3575 5.19354C20.3711 5.19846 20.3856 5.20066 20.4 5.2C20.4292 5.19867 20.4566 5.18581 20.4763 5.16425C20.496 5.14268 20.5063 5.11417 20.505 5.085C20.5037 5.05583 20.4908 5.02837 20.4693 5.00868C20.4477 4.98899 20.4192 4.97867 20.39 4.98ZM27.64 4.98C27.6256 4.98066 27.6114 4.98415 27.5983 4.99029C27.5852 4.99642 27.5735 5.00508 27.5637 5.01575C27.554 5.02643 27.5464 5.03893 27.5415 5.05252C27.5366 5.06612 27.5344 5.08055 27.535 5.095C27.5357 5.10945 27.5392 5.12362 27.5453 5.13671C27.5514 5.14981 27.5601 5.16157 27.5708 5.17132C27.5815 5.18107 27.5939 5.18862 27.6075 5.19354C27.6211 5.19846 27.6356 5.20066 27.65 5.2C27.6792 5.19867 27.7066 5.18581 27.7263 5.16425C27.746 5.14268 27.7563 5.11417 27.755 5.085C27.7537 5.05583 27.7408 5.02837 27.7193 5.00868C27.6977 4.98899 27.6692 4.97867 27.64 4.98ZM20.38 6.1C20.3623 6.1004 20.345 6.10505 20.3295 6.11357C20.314 6.1221 20.3008 6.13423 20.291 6.14896C20.2811 6.16368 20.275 6.18055 20.2731 6.19814C20.2712 6.21573 20.2736 6.23352 20.28 6.25C20.284 6.2805 20.2999 6.30817 20.3243 6.32692C20.3487 6.34568 20.3795 6.35398 20.41 6.35C20.4405 6.34602 20.4682 6.33009 20.4869 6.30571C20.5057 6.28133 20.514 6.2505 20.51 6.22C20.5114 6.20474 20.5096 6.18935 20.5047 6.17483C20.4998 6.16031 20.4919 6.14697 20.4816 6.13567C20.4712 6.12437 20.4586 6.11536 20.4446 6.10922C20.4305 6.10308 20.4153 6.09994 20.4 6.1H20.38ZM27.63 6.1C27.6123 6.1004 27.595 6.10505 27.5795 6.11357C27.564 6.1221 27.5508 6.13423 27.541 6.14896C27.5311 6.16368 27.525 6.18055 27.5231 6.19814C27.5212 6.21573 27.5236 6.23352 27.53 6.25C27.534 6.2805 27.5499 6.30817 27.5743 6.32692C27.5987 6.34568 27.6295 6.35398 27.66 6.35C27.6905 6.34602 27.7182 6.33009 27.7369 6.30571C27.7557 6.28133 27.764 6.2505 27.76 6.22C27.7614 6.20474 27.7596 6.18935 27.7547 6.17483C27.7498 6.16031 27.7419 6.14697 27.7316 6.13567C27.7212 6.12437 27.7086 6.11536 27.6946 6.10922C27.6805 6.10308 27.6653 6.09994 27.65 6.1H27.63ZM20.4 6.66C20.3695 6.66 20.3403 6.67212 20.3187 6.69368C20.2971 6.71525 20.285 6.7445 20.285 6.775C20.285 6.8055 20.2971 6.83475 20.3187 6.85632C20.3403 6.87788 20.3695 6.89 20.4 6.89C20.4305 6.89 20.4598 6.87788 20.4813 6.85632C20.5029 6.83475 20.515 6.8055 20.515 6.775C20.515 6.7445 20.5029 6.71525 20.4813 6.69368C20.4598 6.67212 20.4305 6.66 20.4 6.66ZM27.65 6.66C27.6195 6.66 27.5903 6.67212 27.5687 6.69368C27.5471 6.71525 27.535 6.7445 27.535 6.775C27.535 6.8055 27.5471 6.83475 27.5687 6.85632C27.5903 6.87788 27.6195 6.89 27.65 6.89C27.6805 6.89 27.7098 6.87788 27.7313 6.85632C27.7529 6.83475 27.765 6.8055 27.765 6.775C27.765 6.7445 27.7529 6.71525 27.7313 6.69368C27.7098 6.67212 27.6805 6.66 27.65 6.66ZM20.39 7.23C20.3608 7.23 20.3329 7.24159 20.3122 7.26222C20.2916 7.28285 20.28 7.31083 20.28 7.34C20.28 7.36917 20.2916 7.39715 20.3122 7.41778C20.3329 7.43841 20.3608 7.45 20.39 7.45C20.4192 7.45 20.4472 7.43841 20.4678 7.41778C20.4884 7.39715 20.5 7.36917 20.5 7.34C20.5 7.31083 20.4884 7.28285 20.4678 7.26222C20.4472 7.24159 20.4192 7.23 20.39 7.23ZM17.15 7.41C16.7257 7.41 16.3187 7.57857 16.0186 7.87863C15.7186 8.17869 15.55 8.58565 15.55 9.01C15.55 9.43435 15.7186 9.84131 16.0186 10.1414C16.3187 10.4414 16.7257 10.61 17.15 10.61C17.5744 10.61 17.9813 10.4414 18.2814 10.1414C18.5814 9.84131 18.75 9.43435 18.75 9.01C18.75 8.58565 18.5814 8.17869 18.2814 7.87863C17.9813 7.57857 17.5744 7.41 17.15 7.41ZM24.25 7.41C23.8257 7.41 23.4187 7.57857 23.1186 7.87863C22.8186 8.17869 22.65 8.58565 22.65 9.01C22.65 9.43435 22.8186 9.84131 23.1186 10.1414C23.4187 10.4414 23.8257 10.61 24.25 10.61C24.6744 10.61 25.0813 10.4414 25.3814 10.1414C25.6814 9.84131 25.85 9.43435 25.85 9.01C25.85 8.58565 25.6814 8.17869 25.3814 7.87863C25.0813 7.57857 24.6744 7.41 24.25 7.41ZM31.15 7.41C30.7257 7.41 30.3187 7.57857 30.0186 7.87863C29.7186 8.17869 29.55 8.58565 29.55 9.01C29.55 9.43435 29.7186 9.84131 30.0186 10.1414C30.3187 10.4414 30.7257 10.61 31.15 10.61C31.5744 10.61 31.9813 10.4414 32.2814 10.1414C32.5814 9.84131 32.75 9.43435 32.75 9.01C32.75 8.58565 32.5814 8.17869 32.2814 7.87863C31.9813 7.57857 31.5744 7.41 31.15 7.41ZM20.39 7.79C20.373 7.79246 20.3568 7.79889 20.3426 7.80876C20.3285 7.81864 20.317 7.83169 20.3088 7.84686C20.3007 7.86203 20.2962 7.8789 20.2958 7.89611C20.2953 7.91333 20.299 7.9304 20.3063 7.94596C20.3137 7.96152 20.3246 7.97514 20.3382 7.98571C20.3518 7.99628 20.3677 8.00351 20.3846 8.00682C20.4015 8.01013 20.4189 8.00943 20.4355 8.00477C20.4521 8.00011 20.4673 7.99163 20.48 7.98C20.4901 7.96934 20.498 7.95677 20.5031 7.94303C20.5083 7.92929 20.5106 7.91466 20.51 7.9C20.5101 7.88467 20.5069 7.8695 20.5008 7.85546C20.4947 7.84142 20.4856 7.82881 20.4743 7.81846C20.4631 7.8081 20.4497 7.80022 20.4352 7.79532C20.4207 7.79042 20.4053 7.78861 20.39 7.79ZM20.39 8.35C20.3608 8.35 20.3329 8.36159 20.3122 8.38222C20.2916 8.40285 20.28 8.43083 20.28 8.46C20.28 8.48917 20.2916 8.51715 20.3122 8.53778C20.3329 8.55841 20.3608 8.57 20.39 8.57C20.4077 8.5696 20.425 8.56495 20.4405 8.55643C20.4561 8.5479 20.4693 8.53577 20.4791 8.52104C20.4889 8.50632 20.495 8.48945 20.4969 8.47186C20.4988 8.45427 20.4965 8.43648 20.49 8.42C20.4845 8.40652 20.4763 8.39428 20.466 8.38398C20.4557 8.37368 20.4435 8.36553 20.43 8.36L20.39 8.35ZM20.39 8.91C20.3661 8.90845 20.3422 8.9148 20.3222 8.92805C20.3022 8.94131 20.287 8.96076 20.2791 8.98343C20.2712 9.0061 20.2709 9.03075 20.2783 9.0536C20.2857 9.07645 20.3003 9.09626 20.32 9.11C20.331 9.12028 20.3439 9.12821 20.358 9.1333C20.3722 9.13839 20.3872 9.14054 20.4022 9.1396C20.4172 9.13866 20.4318 9.13467 20.4452 9.12786C20.4586 9.12104 20.4704 9.11157 20.48 9.1C20.4991 9.08381 20.512 9.06161 20.5168 9.03706C20.5215 9.0125 20.5178 8.98707 20.5061 8.96494C20.4945 8.94281 20.4757 8.92531 20.4527 8.91532C20.4298 8.90533 20.4042 8.90346 20.38 8.91H20.39ZM27.64 8.91C27.6161 8.90845 27.5922 8.9148 27.5722 8.92805C27.5522 8.94131 27.537 8.96076 27.5291 8.98343C27.5212 9.0061 27.5209 9.03075 27.5283 9.0536C27.5357 9.07645 27.5503 9.09626 27.57 9.11C27.581 9.12028 27.5939 9.12821 27.608 9.1333C27.6222 9.13839 27.6372 9.14054 27.6522 9.1396C27.6672 9.13866 27.6818 9.13467 27.6952 9.12786C27.7086 9.12104 27.7204 9.11157 27.73 9.1C27.7491 9.08381 27.762 9.06161 27.7668 9.03706C27.7715 9.0125 27.7678 8.98707 27.7561 8.96494C27.7445 8.94281 27.7257 8.92531 27.7027 8.91532C27.6798 8.90533 27.6542 8.90346 27.63 8.91H27.64ZM20.39 9.48C20.3756 9.48066 20.3614 9.48415 20.3483 9.49029C20.3352 9.49642 20.3235 9.50508 20.3137 9.51575C20.304 9.52643 20.2964 9.53893 20.2915 9.55252C20.2866 9.56612 20.2844 9.58055 20.285 9.595C20.2857 9.60945 20.2892 9.62362 20.2953 9.63671C20.3014 9.64981 20.3101 9.66157 20.3208 9.67132C20.3315 9.68107 20.3439 9.68862 20.3575 9.69354C20.3711 9.69846 20.3856 9.70066 20.4 9.7C20.4292 9.69867 20.4566 9.68581 20.4763 9.66425C20.496 9.64268 20.5063 9.61417 20.505 9.585C20.5037 9.55583 20.4908 9.52837 20.4693 9.50868C20.4477 9.48899 20.4192 9.47867 20.39 9.48ZM27.64 9.48C27.6256 9.48066 27.6114 9.48415 27.5983 9.49029C27.5852 9.49642 27.5735 9.50508 27.5637 9.51575C27.544 9.53732 27.5337 9.56583 27.535 9.595C27.5363 9.62417 27.5492 9.65163 27.5708 9.67132C27.5923 9.69101 27.6208 9.70133 27.65 9.7C27.6792 9.69867 27.7066 9.68581 27.7263 9.66425C27.746 9.64268 27.7563 9.61417 27.755 9.585C27.7537 9.55583 27.7408 9.52837 27.7193 9.50868C27.6977 9.48899 27.6692 9.47867 27.64 9.48ZM20.38 10.04C20.3526 10.0425 20.3271 10.0552 20.3086 10.0756C20.2901 10.0959 20.2799 10.1225 20.28 10.15C20.28 10.1805 20.2921 10.2098 20.3137 10.2313C20.3353 10.2529 20.3645 10.265 20.395 10.265C20.4255 10.265 20.4548 10.2529 20.4763 10.2313C20.4979 10.2098 20.51 10.1805 20.51 10.15C20.51 10.1208 20.4984 10.0928 20.4778 10.0722C20.4572 10.0516 20.4292 10.04 20.4 10.04H20.38ZM27.63 10.04C27.6026 10.0425 27.5771 10.0552 27.5586 10.0756C27.5401 10.0959 27.5299 10.1225 27.53 10.15C27.53 10.1805 27.5421 10.2098 27.5637 10.2313C27.5853 10.2529 27.6145 10.265 27.645 10.265C27.6755 10.265 27.7048 10.2529 27.7263 10.2313C27.7479 10.2098 27.76 10.1805 27.76 10.15C27.76 10.1208 27.7484 10.0928 27.7278 10.0722C27.7072 10.0516 27.6792 10.04 27.65 10.04H27.63ZM20.4 10.6C20.3708 10.6 20.3429 10.6116 20.3222 10.6322C20.3016 10.6528 20.29 10.6808 20.29 10.71C20.29 10.78 20.34 10.82 20.39 10.82C20.4063 10.822 20.4228 10.8204 20.4384 10.8152C20.454 10.81 20.4682 10.8014 20.48 10.79C20.4901 10.7793 20.498 10.7668 20.5031 10.753C20.5083 10.7393 20.5106 10.7247 20.51 10.71C20.51 10.6808 20.4984 10.6528 20.4778 10.6322C20.4572 10.6116 20.4292 10.6 20.4 10.6ZM27.65 10.6C27.6208 10.6 27.5929 10.6116 27.5722 10.6322C27.5516 10.6528 27.54 10.6808 27.54 10.71C27.54 10.78 27.59 10.82 27.64 10.82C27.6563 10.822 27.6728 10.8204 27.6884 10.8152C27.704 10.81 27.7182 10.8014 27.73 10.79C27.7401 10.7793 27.748 10.7668 27.7531 10.753C27.7583 10.7393 27.7606 10.7247 27.76 10.71C27.76 10.6808 27.7484 10.6528 27.7278 10.6322C27.7072 10.6116 27.6792 10.6 27.65 10.6ZM20.4 11.16C20.3695 11.16 20.3403 11.1721 20.3187 11.1937C20.2971 11.2152 20.285 11.2445 20.285 11.275C20.285 11.3055 20.2971 11.3348 20.3187 11.3563C20.3403 11.3779 20.3695 11.39 20.4 11.39C20.4305 11.39 20.4598 11.3779 20.4813 11.3563C20.5029 11.3348 20.515 11.3055 20.515 11.275C20.515 11.2445 20.5029 11.2152 20.4813 11.1937C20.4598 11.1721 20.4305 11.16 20.4 11.16ZM27.65 11.16C27.6195 11.16 27.5903 11.1721 27.5687 11.1937C27.5471 11.2152 27.535 11.2445 27.535 11.275C27.535 11.3055 27.5471 11.3348 27.5687 11.3563C27.5903 11.3779 27.6195 11.39 27.65 11.39C27.6805 11.39 27.7098 11.3779 27.7313 11.3563C27.7529 11.3348 27.765 11.3055 27.765 11.275C27.765 11.2445 27.7529 11.2152 27.7313 11.1937C27.7098 11.1721 27.6805 11.16 27.65 11.16ZM17.15 11.24C16.7257 11.24 16.3187 11.4086 16.0186 11.7086C15.7186 12.0087 15.55 12.4157 15.55 12.84C15.55 13.2643 15.7186 13.6713 16.0186 13.9714C16.3187 14.2714 16.7257 14.44 17.15 14.44C17.5744 14.44 17.9813 14.2714 18.2814 13.9714C18.5814 13.6713 18.75 13.2643 18.75 12.84C18.75 12.4157 18.5814 12.0087 18.2814 11.7086C17.9813 11.4086 17.5744 11.24 17.15 11.24ZM24.25 11.24C23.8257 11.24 23.4187 11.4086 23.1186 11.7086C22.8186 12.0087 22.65 12.4157 22.65 12.84C22.65 13.2643 22.8186 13.6713 23.1186 13.9714C23.4187 14.2714 23.8257 14.44 24.25 14.44C24.6744 14.44 25.0813 14.2714 25.3814 13.9714C25.6814 13.6713 25.85 13.2643 25.85 12.84C25.85 12.4157 25.6814 12.0087 25.3814 11.7086C25.0813 11.4086 24.6744 11.24 24.25 11.24ZM31.15 11.24C30.7257 11.24 30.3187 11.4086 30.0186 11.7086C29.7186 12.0087 29.55 12.4157 29.55 12.84C29.55 13.2643 29.7186 13.6713 30.0186 13.9714C30.3187 14.2714 30.7257 14.44 31.15 14.44C31.5744 14.44 31.9813 14.2714 32.2814 13.9714C32.5814 13.6713 32.75 13.2643 32.75 12.84C32.75 12.4157 32.5814 12.0087 32.2814 11.7086C31.9813 11.4086 31.5744 11.24 31.15 11.24ZM20.39 11.72C20.3756 11.7213 20.3615 11.7254 20.3486 11.7321C20.3357 11.7388 20.3243 11.748 20.315 11.7592C20.3057 11.7703 20.2987 11.7832 20.2944 11.7971C20.2901 11.811 20.2886 11.8255 20.29 11.84C20.2899 11.8675 20.3001 11.8941 20.3186 11.9144C20.3371 11.9348 20.3626 11.9475 20.39 11.95C20.4149 11.9544 20.4406 11.9501 20.4627 11.9378C20.4848 11.9256 20.502 11.906 20.5114 11.8825C20.5208 11.8591 20.5218 11.8331 20.5143 11.8089C20.5067 11.7848 20.4911 11.764 20.47 11.75C20.4594 11.7399 20.4468 11.7321 20.4331 11.7269C20.4193 11.7218 20.4047 11.7194 20.39 11.72ZM27.64 11.72C27.6256 11.7213 27.6115 11.7254 27.5986 11.7321C27.5857 11.7388 27.5743 11.748 27.565 11.7592C27.5557 11.7703 27.5487 11.7832 27.5444 11.7971C27.5401 11.811 27.5386 11.8255 27.54 11.84C27.5399 11.8675 27.5501 11.8941 27.5686 11.9144C27.5871 11.9348 27.6126 11.9475 27.64 11.95C27.6649 11.9544 27.6906 11.9501 27.7127 11.9378C27.7348 11.9256 27.752 11.906 27.7614 11.8825C27.7708 11.8591 27.7718 11.8331 27.7643 11.8089C27.7567 11.7848 27.7411 11.764 27.72 11.75C27.7094 11.7399 27.6968 11.7321 27.6831 11.7269C27.6693 11.7218 27.6547 11.7194 27.64 11.72ZM20.39 12.29C20.3626 12.2925 20.3371 12.3052 20.3186 12.3256C20.3001 12.3459 20.2899 12.3725 20.29 12.4C20.2899 12.4275 20.3001 12.4541 20.3186 12.4744C20.3371 12.4948 20.3626 12.5075 20.39 12.51C20.46 12.51 20.51 12.46 20.51 12.4C20.5101 12.3847 20.5069 12.3695 20.5008 12.3555C20.4947 12.3414 20.4856 12.3288 20.4743 12.3185C20.4631 12.3081 20.4497 12.3002 20.4352 12.2953C20.4207 12.2904 20.4053 12.2886 20.39 12.29ZM27.64 12.29C27.6126 12.2925 27.5871 12.3052 27.5686 12.3256C27.5501 12.3459 27.5399 12.3725 27.54 12.4C27.5399 12.4275 27.5501 12.4541 27.5686 12.4744C27.5871 12.4948 27.6126 12.5075 27.64 12.51C27.71 12.51 27.76 12.46 27.76 12.4C27.7601 12.3847 27.7569 12.3695 27.7508 12.3555C27.7447 12.3414 27.7356 12.3288 27.7243 12.3185C27.7131 12.3081 27.6997 12.3002 27.6852 12.2953C27.6707 12.2904 27.6553 12.2886 27.64 12.29ZM20.39 12.85C20.3754 12.8494 20.3607 12.8518 20.347 12.8569C20.3332 12.8621 20.3207 12.8699 20.31 12.88C20.2916 12.8974 20.2797 12.9207 20.2765 12.9459C20.2733 12.9711 20.2789 12.9966 20.2923 13.0182C20.3058 13.0397 20.3262 13.0559 20.3503 13.0641C20.3743 13.0722 20.4005 13.0718 20.4242 13.0629C20.448 13.054 20.468 13.0371 20.4807 13.0152C20.4935 12.9932 20.4982 12.9675 20.4942 12.9425C20.4902 12.9174 20.4776 12.8945 20.4586 12.8776C20.4396 12.8608 20.4154 12.851 20.39 12.85ZM27.64 12.85C27.6254 12.8494 27.6107 12.8518 27.597 12.8569C27.5832 12.8621 27.5707 12.8699 27.56 12.88C27.5416 12.8974 27.5297 12.9207 27.5265 12.9459C27.5233 12.9711 27.5289 12.9966 27.5423 13.0182C27.5558 13.0397 27.5762 13.0559 27.6003 13.0641C27.6243 13.0722 27.6505 13.0718 27.6742 13.0629C27.698 13.054 27.718 13.0371 27.7307 13.0152C27.7435 12.9932 27.7482 12.9675 27.7442 12.9425C27.7402 12.9174 27.7276 12.8945 27.7086 12.8776C27.6896 12.8608 27.6654 12.851 27.64 12.85ZM20.39 13.41C20.3746 13.4107 20.3596 13.4146 20.3458 13.4215C20.332 13.4284 20.3198 13.4381 20.31 13.45C20.294 13.4695 20.2852 13.4938 20.285 13.519C20.2848 13.5442 20.2932 13.5687 20.3089 13.5885C20.3247 13.6082 20.3467 13.6219 20.3713 13.6273C20.3959 13.6327 20.4216 13.6295 20.4442 13.6183C20.4667 13.607 20.4847 13.5883 20.4951 13.5654C20.5055 13.5424 20.5078 13.5166 20.5014 13.4922C20.4951 13.4678 20.4806 13.4463 20.4603 13.4314C20.44 13.4164 20.4152 13.4089 20.39 13.41ZM27.64 13.41C27.6246 13.4107 27.6096 13.4146 27.5958 13.4215C27.582 13.4284 27.5698 13.4381 27.56 13.45C27.544 13.4695 27.5352 13.4938 27.535 13.519C27.5348 13.5442 27.5432 13.5687 27.5589 13.5885C27.5747 13.6082 27.5967 13.6219 27.6213 13.6273C27.6459 13.6327 27.6716 13.6295 27.6942 13.6183C27.7167 13.607 27.7347 13.5883 27.7451 13.5654C27.7555 13.5424 27.7578 13.5166 27.7514 13.4922C27.7451 13.4678 27.7306 13.4463 27.7103 13.4314C27.69 13.4164 27.6652 13.4089 27.64 13.41ZM20.39 13.97C20.3746 13.9707 20.3596 13.9746 20.3458 13.9815C20.332 13.9884 20.3198 13.9981 20.31 14.01C20.294 14.0295 20.2852 14.0538 20.285 14.079C20.2848 14.1042 20.2932 14.1287 20.3089 14.1485C20.3247 14.1682 20.3467 14.1819 20.3713 14.1873C20.3959 14.1927 20.4216 14.1895 20.4442 14.1783C20.4667 14.167 20.4847 14.1483 20.4951 14.1254C20.5055 14.1024 20.5078 14.0766 20.5014 14.0522C20.4951 14.0278 20.4806 14.0063 20.4603 13.9914C20.44 13.9764 20.4152 13.9689 20.39 13.97ZM27.64 13.97C27.6246 13.9707 27.6096 13.9746 27.5958 13.9815C27.582 13.9884 27.5698 13.9981 27.56 14.01C27.544 14.0295 27.5352 14.0538 27.535 14.079C27.5348 14.1042 27.5432 14.1287 27.5589 14.1485C27.5747 14.1682 27.5967 14.1819 27.6213 14.1873C27.6459 14.1927 27.6716 14.1895 27.6942 14.1783C27.7167 14.167 27.7347 14.1483 27.7451 14.1254C27.7555 14.1024 27.7578 14.0766 27.7514 14.0522C27.7451 14.0278 27.7306 14.0063 27.7103 13.9914C27.69 13.9764 27.6652 13.9689 27.64 13.97ZM20.38 14.54C20.3543 14.5423 20.3301 14.5535 20.3118 14.5718C20.2935 14.5901 20.2823 14.6142 20.28 14.64C20.2707 14.6661 20.2715 14.6947 20.2823 14.7201C20.2932 14.7456 20.3132 14.7661 20.3384 14.7774C20.3637 14.7888 20.3923 14.7902 20.4185 14.7814C20.4447 14.7726 20.4667 14.7543 20.48 14.73C20.5011 14.716 20.5167 14.6952 20.5243 14.6711C20.5318 14.6469 20.5308 14.6209 20.5214 14.5975C20.512 14.574 20.4948 14.5544 20.4727 14.5422C20.4506 14.5299 20.4249 14.5256 20.4 14.53H20.38V14.54ZM27.63 14.54C27.6043 14.5423 27.5801 14.5535 27.5618 14.5718C27.5435 14.5901 27.5323 14.6142 27.53 14.64C27.5207 14.6661 27.5215 14.6947 27.5323 14.7201C27.5432 14.7456 27.5632 14.7661 27.5884 14.7774C27.6137 14.7888 27.6423 14.7902 27.6685 14.7814C27.6947 14.7726 27.7167 14.7543 27.73 14.73C27.7511 14.716 27.7667 14.6952 27.7743 14.6711C27.7818 14.6469 27.7808 14.6209 27.7714 14.5975C27.762 14.574 27.7448 14.5544 27.7227 14.5422C27.7006 14.5299 27.6749 14.5256 27.65 14.53H27.63V14.54ZM17.15 15.08C16.9399 15.08 16.7318 15.1214 16.5377 15.2018C16.3436 15.2822 16.1672 15.4001 16.0186 15.5486C15.8701 15.6972 15.7522 15.8736 15.6718 16.0677C15.5914 16.2618 15.55 16.4699 15.55 16.68C15.55 16.8901 15.5914 17.0982 15.6718 17.2923C15.7522 17.4864 15.8701 17.6628 16.0186 17.8114C16.1672 17.9599 16.3436 18.0778 16.5377 18.1582C16.7318 18.2386 16.9399 18.28 17.15 18.28C17.5744 18.28 17.9813 18.1114 18.2814 17.8114C18.5814 17.5113 18.75 17.1043 18.75 16.68C18.75 16.2557 18.5814 15.8487 18.2814 15.5486C17.9813 15.2486 17.5744 15.08 17.15 15.08ZM24.25 15.08C24.0399 15.08 23.8318 15.1214 23.6377 15.2018C23.4436 15.2822 23.2672 15.4001 23.1186 15.5486C22.9701 15.6972 22.8522 15.8736 22.7718 16.0677C22.6914 16.2618 22.65 16.4699 22.65 16.68C22.65 16.8901 22.6914 17.0982 22.7718 17.2923C22.8522 17.4864 22.9701 17.6628 23.1186 17.8114C23.2672 17.9599 23.4436 18.0778 23.6377 18.1582C23.8318 18.2386 24.0399 18.28 24.25 18.28C24.6744 18.28 25.0813 18.1114 25.3814 17.8114C25.6814 17.5113 25.85 17.1043 25.85 16.68C25.85 16.2557 25.6814 15.8487 25.3814 15.5486C25.0813 15.2486 24.6744 15.08 24.25 15.08ZM31.15 15.08C30.9399 15.08 30.7318 15.1214 30.5377 15.2018C30.3436 15.2822 30.1672 15.4001 30.0186 15.5486C29.8701 15.6972 29.7522 15.8736 29.6718 16.0677C29.5914 16.2618 29.55 16.4699 29.55 16.68C29.55 16.8901 29.5914 17.0982 29.6718 17.2923C29.7522 17.4864 29.8701 17.6628 30.0186 17.8114C30.1672 17.9599 30.3436 18.0778 30.5377 18.1582C30.7318 18.2386 30.9399 18.28 31.15 18.28C31.5744 18.28 31.9813 18.1114 32.2814 17.8114C32.5814 17.5113 32.75 17.1043 32.75 16.68C32.75 16.2557 32.5814 15.8487 32.2814 15.5486C31.9813 15.2486 31.5744 15.08 31.15 15.08ZM20.38 15.1C20.3595 15.1038 20.3406 15.1133 20.3253 15.1275C20.31 15.1416 20.2991 15.1598 20.2937 15.1799C20.2884 15.2 20.2889 15.2213 20.2951 15.2411C20.3013 15.261 20.3131 15.2787 20.329 15.2921C20.3449 15.3056 20.3643 15.3142 20.3849 15.3171C20.4055 15.32 20.4265 15.3169 20.4455 15.3083C20.4644 15.2997 20.4806 15.2859 20.492 15.2685C20.5034 15.2511 20.5097 15.2308 20.51 15.21C20.51 15.1808 20.4984 15.1528 20.4778 15.1322C20.4572 15.1116 20.4292 15.1 20.4 15.1H20.38ZM27.63 15.1C27.6095 15.1038 27.5906 15.1133 27.5753 15.1275C27.56 15.1416 27.5491 15.1598 27.5437 15.1799C27.5384 15.2 27.5389 15.2213 27.5451 15.2411C27.5513 15.261 27.5631 15.2787 27.579 15.2921C27.5949 15.3056 27.6143 15.3142 27.6349 15.3171C27.6555 15.32 27.6765 15.3169 27.6955 15.3083C27.7144 15.2997 27.7306 15.2859 27.742 15.2685C27.7534 15.2511 27.7597 15.2308 27.76 15.21C27.76 15.1808 27.7484 15.1528 27.7278 15.1322C27.7072 15.1116 27.6792 15.1 27.65 15.1H27.63ZM20.4 15.66C20.3695 15.66 20.3403 15.6721 20.3187 15.6937C20.2971 15.7152 20.285 15.7445 20.285 15.775C20.285 15.8055 20.2971 15.8348 20.3187 15.8563C20.3403 15.8779 20.3695 15.89 20.4 15.89C20.4305 15.89 20.4598 15.8779 20.4813 15.8563C20.5029 15.8348 20.515 15.8055 20.515 15.775C20.515 15.7445 20.5029 15.7152 20.4813 15.6937C20.4598 15.6721 20.4305 15.66 20.4 15.66ZM27.65 15.66C27.6195 15.66 27.5903 15.6721 27.5687 15.6937C27.5471 15.7152 27.535 15.7445 27.535 15.775C27.535 15.8055 27.5471 15.8348 27.5687 15.8563C27.5903 15.8779 27.6195 15.89 27.65 15.89C27.6805 15.89 27.7098 15.8779 27.7313 15.8563C27.7529 15.8348 27.765 15.8055 27.765 15.775C27.765 15.7445 27.7529 15.7152 27.7313 15.6937C27.7098 15.6721 27.6805 15.66 27.65 15.66ZM20.39 16.22C20.3699 16.2195 20.3501 16.2246 20.3326 16.2347C20.3152 16.2447 20.3009 16.2594 20.2912 16.277C20.2815 16.2946 20.2768 16.3146 20.2777 16.3347C20.2785 16.3548 20.2849 16.3742 20.296 16.391C20.3072 16.4077 20.3227 16.4211 20.341 16.4296C20.3592 16.4381 20.3794 16.4415 20.3994 16.4393C20.4194 16.4372 20.4384 16.4296 20.4544 16.4173C20.4704 16.4051 20.4827 16.3887 20.49 16.37C20.5 16.3434 20.4994 16.314 20.4882 16.2879C20.477 16.2618 20.4562 16.2411 20.43 16.23H20.39V16.22ZM20.39 16.79C20.3754 16.7894 20.3607 16.7918 20.347 16.7969C20.3332 16.8021 20.3207 16.8099 20.31 16.82C20.2916 16.8374 20.2797 16.8607 20.2765 16.8859C20.2733 16.9111 20.2789 16.9366 20.2923 16.9582C20.3058 16.9797 20.3262 16.9959 20.3503 17.0041C20.3743 17.0122 20.4005 17.0118 20.4242 17.0029C20.448 16.994 20.468 16.9771 20.4807 16.9552C20.4935 16.9332 20.4982 16.9075 20.4942 16.8825C20.4902 16.8574 20.4776 16.8345 20.4586 16.8176C20.4396 16.8008 20.4154 16.791 20.39 16.79ZM20.39 17.35C20.3747 17.3499 20.3595 17.3531 20.3455 17.3592C20.3314 17.3654 20.3188 17.3744 20.3085 17.3857C20.2981 17.397 20.2902 17.4103 20.2853 17.4248C20.2804 17.4393 20.2786 17.4547 20.28 17.47C20.2813 17.4845 20.2854 17.4985 20.2921 17.5114C20.2988 17.5243 20.308 17.5357 20.3192 17.545C20.3303 17.5543 20.3432 17.5613 20.3571 17.5656C20.371 17.5699 20.3856 17.5714 20.4 17.57C20.4292 17.5687 20.4566 17.5558 20.4763 17.5342C20.496 17.5127 20.5063 17.4842 20.505 17.455C20.5037 17.4258 20.4908 17.3984 20.4693 17.3787C20.4477 17.359 20.4192 17.3487 20.39 17.35ZM27.64 17.35C27.6247 17.3499 27.6095 17.3531 27.5955 17.3592C27.5814 17.3654 27.5688 17.3744 27.5585 17.3857C27.5481 17.397 27.5402 17.4103 27.5353 17.4248C27.5304 17.4393 27.5286 17.4547 27.53 17.47C27.5313 17.4845 27.5354 17.4985 27.5421 17.5114C27.5488 17.5243 27.558 17.5357 27.5692 17.545C27.5803 17.5543 27.5932 17.5613 27.6071 17.5656C27.621 17.5699 27.6356 17.5714 27.65 17.57C27.6792 17.5687 27.7066 17.5558 27.7263 17.5342C27.746 17.5127 27.7563 17.4842 27.755 17.455C27.7537 17.4258 27.7408 17.3984 27.7193 17.3787C27.6977 17.359 27.6692 17.3487 27.64 17.35ZM20.39 17.91C20.3747 17.9099 20.3595 17.9131 20.3455 17.9192C20.3314 17.9254 20.3188 17.9344 20.3085 17.9457C20.2981 17.957 20.2902 17.9703 20.2853 17.9848C20.2804 17.9993 20.2786 18.0147 20.28 18.03C20.2813 18.0445 20.2854 18.0585 20.2921 18.0714C20.2988 18.0843 20.308 18.0957 20.3192 18.105C20.3303 18.1143 20.3432 18.1213 20.3571 18.1256C20.371 18.1299 20.3856 18.1314 20.4 18.13C20.4292 18.1287 20.4566 18.1158 20.4763 18.0942C20.496 18.0727 20.5063 18.0442 20.505 18.015C20.5037 17.9858 20.4908 17.9584 20.4693 17.9387C20.4477 17.919 20.4192 17.9087 20.39 17.91ZM27.64 17.91C27.6247 17.9099 27.6095 17.9131 27.5955 17.9192C27.5814 17.9254 27.5688 17.9344 27.5585 17.9457C27.5481 17.957 27.5402 17.9703 27.5353 17.9848C27.5304 17.9993 27.5286 18.0147 27.53 18.03C27.5313 18.0445 27.5354 18.0585 27.5421 18.0714C27.5488 18.0843 27.558 18.0957 27.5692 18.105C27.5803 18.1143 27.5932 18.1213 27.6071 18.1256C27.621 18.1299 27.6356 18.1314 27.65 18.13C27.6792 18.1287 27.7066 18.1158 27.7263 18.0942C27.746 18.0727 27.7563 18.0442 27.755 18.015C27.7537 17.9858 27.7408 17.9584 27.7193 17.9387C27.6977 17.919 27.6692 17.9087 27.64 17.91ZM20.39 18.47C20.3671 18.4712 20.3451 18.4796 20.3272 18.4939C20.3092 18.5083 20.2963 18.5279 20.29 18.55C20.28 18.5757 20.28 18.6043 20.29 18.63C20.2968 18.6484 20.3083 18.6647 20.3234 18.6772C20.3386 18.6897 20.3568 18.6979 20.3762 18.7009C20.3956 18.704 20.4154 18.7018 20.4337 18.6946C20.4519 18.6874 20.4679 18.6755 20.48 18.66C20.4991 18.6438 20.512 18.6216 20.5168 18.5971C20.5215 18.5725 20.5178 18.5471 20.5061 18.5249C20.4945 18.5028 20.4757 18.4853 20.4527 18.4753C20.4298 18.4653 20.4042 18.4635 20.38 18.47H20.39ZM27.64 18.47C27.6171 18.4712 27.5951 18.4796 27.5772 18.4939C27.5592 18.5083 27.5463 18.5279 27.54 18.55C27.53 18.5757 27.53 18.6043 27.54 18.63C27.5468 18.6484 27.5583 18.6647 27.5734 18.6772C27.5886 18.6897 27.6068 18.6979 27.6262 18.7009C27.6456 18.704 27.6654 18.7018 27.6837 18.6946C27.7019 18.6874 27.7179 18.6755 27.73 18.66C27.7491 18.6438 27.762 18.6216 27.7668 18.5971C27.7715 18.5725 27.7678 18.5471 27.7561 18.5249C27.7445 18.5028 27.7257 18.4853 27.7027 18.4753C27.6798 18.4653 27.6542 18.4635 27.63 18.47H27.64ZM17.15 18.92C16.7257 18.92 16.3187 19.0886 16.0186 19.3886C15.7186 19.6887 15.55 20.0957 15.55 20.52C15.55 20.9443 15.7186 21.3513 16.0186 21.6514C16.3187 21.9514 16.7257 22.12 17.15 22.12C17.5744 22.12 17.9813 21.9514 18.2814 21.6514C18.5814 21.3513 18.75 20.9443 18.75 20.52C18.75 20.0957 18.5814 19.6887 18.2814 19.3886C17.9813 19.0886 17.5744 18.92 17.15 18.92ZM24.25 18.92C23.8257 18.92 23.4187 19.0886 23.1186 19.3886C22.8186 19.6887 22.65 20.0957 22.65 20.52C22.65 20.9443 22.8186 21.3513 23.1186 21.6514C23.4187 21.9514 23.8257 22.12 24.25 22.12C24.6744 22.12 25.0813 21.9514 25.3814 21.6514C25.6814 21.3513 25.85 20.9443 25.85 20.52C25.85 20.0957 25.6814 19.6887 25.3814 19.3886C25.0813 19.0886 24.6744 18.92 24.25 18.92ZM31.15 18.92C30.7257 18.92 30.3187 19.0886 30.0186 19.3886C29.7186 19.6887 29.55 20.0957 29.55 20.52C29.55 20.9443 29.7186 21.3513 30.0186 21.6514C30.3187 21.9514 30.7257 22.12 31.15 22.12C31.5744 22.12 31.9813 21.9514 32.2814 21.6514C32.5814 21.3513 32.75 20.9443 32.75 20.52C32.75 20.0957 32.5814 19.6887 32.2814 19.3886C31.9813 19.0886 31.5744 18.92 31.15 18.92ZM20.38 19.04C20.3543 19.0423 20.3301 19.0535 20.3118 19.0718C20.2935 19.0901 20.2823 19.1142 20.28 19.14C20.2707 19.1661 20.2715 19.1947 20.2823 19.2201C20.2932 19.2456 20.3132 19.2661 20.3384 19.2774C20.3637 19.2888 20.3923 19.2902 20.4185 19.2814C20.4447 19.2726 20.4667 19.2543 20.48 19.23C20.5011 19.216 20.5167 19.1952 20.5243 19.1711C20.5318 19.1469 20.5308 19.1209 20.5214 19.0975C20.512 19.074 20.4948 19.0544 20.4727 19.0422C20.4506 19.0299 20.4249 19.0256 20.4 19.03H20.38V19.04ZM27.63 19.04C27.6043 19.0423 27.5801 19.0535 27.5618 19.0718C27.5435 19.0901 27.5323 19.1142 27.53 19.14C27.5207 19.1661 27.5215 19.1947 27.5323 19.2201C27.5432 19.2456 27.5632 19.2661 27.5884 19.2774C27.6137 19.2888 27.6423 19.2902 27.6685 19.2814C27.6947 19.2726 27.7167 19.2543 27.73 19.23C27.7511 19.216 27.7667 19.1952 27.7743 19.1711C27.7818 19.1469 27.7808 19.1209 27.7714 19.0975C27.762 19.074 27.7448 19.0544 27.7227 19.0422C27.7006 19.0299 27.6749 19.0256 27.65 19.03H27.63V19.04ZM20.4 19.6C20.3783 19.6005 20.3572 19.6074 20.3394 19.6199C20.3216 19.6323 20.3079 19.6498 20.3 19.67L20.28 19.71C20.28 19.77 20.34 19.82 20.4 19.82C20.4292 19.82 20.4572 19.8084 20.4778 19.7878C20.4984 19.7672 20.51 19.7392 20.51 19.71C20.51 19.6808 20.4984 19.6528 20.4778 19.6322C20.4572 19.6116 20.4292 19.6 20.4 19.6ZM27.65 19.6C27.6283 19.6005 27.6072 19.6074 27.5894 19.6199C27.5716 19.6323 27.5579 19.6498 27.55 19.67L27.53 19.71C27.53 19.77 27.59 19.82 27.65 19.82C27.6792 19.82 27.7072 19.8084 27.7278 19.7878C27.7484 19.7672 27.76 19.7392 27.76 19.71C27.76 19.6808 27.7484 19.6528 27.7278 19.6322C27.7072 19.6116 27.6792 19.6 27.65 19.6ZM20.39 20.16C20.3626 20.1625 20.3371 20.1752 20.3186 20.1956C20.3001 20.2159 20.2899 20.2425 20.29 20.27C20.2901 20.2922 20.2969 20.3138 20.3095 20.332C20.3221 20.3503 20.3399 20.3643 20.3606 20.3722C20.3813 20.3802 20.4039 20.3817 20.4254 20.3766C20.447 20.3715 20.4665 20.3599 20.4814 20.3435C20.4963 20.3271 20.5059 20.3066 20.509 20.2847C20.512 20.2627 20.5084 20.2404 20.4985 20.2205C20.4886 20.2007 20.473 20.1843 20.4536 20.1735C20.4343 20.1627 20.4121 20.158 20.39 20.16ZM27.64 20.16C27.6126 20.1625 27.5871 20.1752 27.5686 20.1956C27.5501 20.2159 27.5399 20.2425 27.54 20.27C27.5401 20.2922 27.5469 20.3138 27.5595 20.332C27.5721 20.3503 27.5899 20.3643 27.6106 20.3722C27.6313 20.3802 27.6539 20.3817 27.6754 20.3766C27.697 20.3715 27.7165 20.3599 27.7314 20.3435C27.7463 20.3271 27.7559 20.3066 27.759 20.2847C27.762 20.2627 27.7584 20.2404 27.7485 20.2205C27.7386 20.2007 27.723 20.1843 27.7036 20.1735C27.6843 20.1627 27.6621 20.158 27.64 20.16ZM20.39 20.72C20.3746 20.7207 20.3596 20.7246 20.3458 20.7315C20.332 20.7384 20.3198 20.7481 20.31 20.76C20.2927 20.7759 20.2809 20.7969 20.2764 20.82C20.2718 20.8431 20.2748 20.867 20.2849 20.8882C20.295 20.9095 20.3116 20.9269 20.3323 20.9381C20.353 20.9492 20.3767 20.9534 20.4 20.95C20.4305 20.95 20.4598 20.9379 20.4813 20.9163C20.5029 20.8948 20.515 20.8655 20.515 20.835C20.515 20.8045 20.5029 20.7752 20.4813 20.7537C20.4598 20.7321 20.4305 20.72 20.4 20.72H20.39ZM20.39 21.28C20.3756 21.2813 20.3615 21.2854 20.3486 21.2921C20.3357 21.2988 20.3243 21.308 20.315 21.3192C20.3057 21.3303 20.2987 21.3432 20.2944 21.3571C20.2901 21.371 20.2886 21.3855 20.29 21.4C20.2921 21.4216 20.3005 21.4421 20.3142 21.459C20.3279 21.4758 20.3463 21.4883 20.367 21.4947C20.3878 21.5011 20.41 21.5012 20.4308 21.4951C20.4516 21.4889 20.4701 21.4767 20.484 21.46C20.4979 21.4433 20.5066 21.4229 20.5089 21.4013C20.5112 21.3797 20.5071 21.3579 20.497 21.3387C20.487 21.3194 20.4714 21.3036 20.4524 21.2931C20.4334 21.2827 20.4117 21.2781 20.39 21.28ZM27.64 21.28C27.6256 21.2813 27.6115 21.2854 27.5986 21.2921C27.5857 21.2988 27.5743 21.308 27.565 21.3192C27.5557 21.3303 27.5487 21.3432 27.5444 21.3571C27.5401 21.371 27.5386 21.3855 27.54 21.4C27.5421 21.4216 27.5505 21.4421 27.5642 21.459C27.5779 21.4758 27.5963 21.4883 27.617 21.4947C27.6378 21.5011 27.66 21.5012 27.6808 21.4951C27.7016 21.4889 27.7201 21.4767 27.734 21.46C27.7479 21.4433 27.7566 21.4229 27.7589 21.4013C27.7612 21.3797 27.7571 21.3579 27.747 21.3387C27.737 21.3194 27.7214 21.3036 27.7024 21.2931C27.6834 21.2827 27.6617 21.2781 27.64 21.28ZM20.39 21.85C20.3747 21.8499 20.3595 21.8531 20.3455 21.8592C20.3314 21.8654 20.3188 21.8744 20.3085 21.8857C20.2981 21.897 20.2902 21.9103 20.2853 21.9248C20.2804 21.9393 20.2786 21.9547 20.28 21.97C20.2813 21.9845 20.2854 21.9985 20.2921 22.0114C20.2988 22.0243 20.308 22.0357 20.3192 22.045C20.3303 22.0543 20.3432 22.0613 20.3571 22.0656C20.371 22.0699 20.3856 22.0714 20.4 22.07C20.4292 22.0687 20.4566 22.0558 20.4763 22.0342C20.496 22.0127 20.5063 21.9842 20.505 21.955C20.5037 21.9258 20.4908 21.8984 20.4693 21.8787C20.4477 21.859 20.4192 21.8487 20.39 21.85ZM27.64 21.85C27.6247 21.8499 27.6095 21.8531 27.5955 21.8592C27.5814 21.8654 27.5688 21.8744 27.5585 21.8857C27.5481 21.897 27.5402 21.9103 27.5353 21.9248C27.5304 21.9393 27.5286 21.9547 27.53 21.97C27.5313 21.9845 27.5354 21.9985 27.5421 22.0114C27.5488 22.0243 27.558 22.0357 27.5692 22.045C27.5803 22.0543 27.5932 22.0613 27.6071 22.0656C27.621 22.0699 27.6356 22.0714 27.65 22.07C27.6792 22.0687 27.7066 22.0558 27.7263 22.0342C27.746 22.0127 27.7563 21.9842 27.755 21.955C27.7537 21.9258 27.7408 21.8984 27.7193 21.8787C27.6977 21.859 27.6692 21.8487 27.64 21.85ZM20.39 22.41C20.3756 22.4113 20.3615 22.4154 20.3486 22.4221C20.3357 22.4288 20.3243 22.438 20.315 22.4492C20.3057 22.4603 20.2987 22.4732 20.2944 22.4871C20.2901 22.501 20.2886 22.5155 20.29 22.53C20.2911 22.5516 20.2984 22.5723 20.3112 22.5897C20.324 22.6071 20.3416 22.6204 20.3619 22.6279C20.3821 22.6353 20.4041 22.6367 20.4251 22.6317C20.4461 22.6268 20.4652 22.6157 20.48 22.6C20.5065 22.5867 20.5267 22.5635 20.5361 22.5354C20.5455 22.5072 20.5433 22.4765 20.53 22.45C20.5168 22.4235 20.4935 22.4033 20.4654 22.3939C20.4372 22.3846 20.4065 22.3867 20.38 22.4L20.39 22.41ZM27.64 22.41C27.6256 22.4113 27.6115 22.4154 27.5986 22.4221C27.5857 22.4288 27.5743 22.438 27.565 22.4492C27.5557 22.4603 27.5487 22.4732 27.5444 22.4871C27.5401 22.501 27.5386 22.5155 27.54 22.53C27.5431 22.5539 27.5539 22.5761 27.5708 22.5933C27.5877 22.6105 27.6097 22.6216 27.6336 22.625C27.6574 22.6284 27.6817 22.6239 27.7028 22.6122C27.7238 22.6004 27.7404 22.5821 27.75 22.56C27.7564 22.5458 27.7596 22.5305 27.7596 22.515C27.7596 22.4995 27.7564 22.4842 27.75 22.47C27.74 22.45 27.7241 22.4335 27.7044 22.4228C27.6847 22.4121 27.6623 22.4076 27.64 22.41ZM17.15 22.75C16.7257 22.7394 16.3145 22.8978 16.0069 23.1903C15.6994 23.4829 15.5206 23.8857 15.51 24.31C15.4994 24.7343 15.6578 25.1455 15.9504 25.4531C16.2429 25.7606 16.6457 25.9394 17.07 25.95C17.2801 25.9553 17.4892 25.9191 17.6854 25.8435C17.8815 25.768 18.0608 25.6545 18.2131 25.5097C18.3654 25.3648 18.4877 25.1914 18.5729 24.9992C18.6582 24.8071 18.7048 24.6001 18.71 24.39C18.7153 24.1799 18.6791 23.9708 18.6035 23.7747C18.528 23.5785 18.4145 23.3992 18.2697 23.2469C18.1248 23.0946 17.9514 22.9724 17.7593 22.8871C17.5672 22.8018 17.3601 22.7553 17.15 22.75ZM24.25 22.75C24.0399 22.7454 23.8309 22.7822 23.6351 22.8584C23.4392 22.9346 23.2602 23.0486 23.1084 23.1939C22.9566 23.3392 22.8349 23.513 22.7502 23.7054C22.6656 23.8977 22.6196 24.1049 22.615 24.315C22.6104 24.5251 22.6473 24.7341 22.7234 24.93C22.7996 25.1258 22.9136 25.3048 23.0589 25.4566C23.2042 25.6084 23.378 25.7302 23.5704 25.8148C23.7628 25.8995 23.9699 25.9454 24.18 25.95C24.6044 25.9606 25.0155 25.8022 25.3231 25.5097C25.6307 25.2171 25.8094 24.8143 25.82 24.39C25.8306 23.9657 25.6722 23.5545 25.3797 23.2469C25.0871 22.9394 24.6844 22.7606 24.26 22.75H24.25ZM31.15 22.75C30.7257 22.7394 30.3145 22.8978 30.0069 23.1903C29.6994 23.4829 29.5206 23.8857 29.51 24.31C29.4994 24.7343 29.6578 25.1455 29.9504 25.4531C30.2429 25.7606 30.6457 25.9394 31.07 25.95C31.4944 25.9606 31.9055 25.8022 32.2131 25.5097C32.5207 25.2171 32.6994 24.8143 32.71 24.39C32.7206 23.9657 32.5622 23.5545 32.2697 23.2469C31.9771 22.9394 31.5744 22.7606 31.15 22.75ZM20.38 23.53C20.3656 23.5313 20.3515 23.5354 20.3386 23.5421C20.3257 23.5488 20.3143 23.558 20.305 23.5692C20.2957 23.5803 20.2887 23.5932 20.2844 23.6071C20.2801 23.621 20.2786 23.6355 20.28 23.65C20.2785 23.674 20.2848 23.6978 20.2981 23.7178C20.3113 23.7378 20.3308 23.753 20.3535 23.7609C20.3761 23.7688 20.4008 23.7691 20.4236 23.7617C20.4465 23.7544 20.4663 23.7397 20.48 23.72C20.4964 23.7046 20.5076 23.6846 20.5122 23.6627C20.5169 23.6407 20.5147 23.6179 20.506 23.5972C20.4973 23.5765 20.4825 23.559 20.4635 23.547C20.4446 23.535 20.4224 23.5291 20.4 23.53H20.38ZM27.63 23.53C27.6156 23.5313 27.6015 23.5354 27.5886 23.5421C27.5757 23.5488 27.5643 23.558 27.555 23.5692C27.5457 23.5803 27.5387 23.5932 27.5344 23.6071C27.5301 23.621 27.5286 23.6355 27.53 23.65C27.5285 23.674 27.5348 23.6978 27.5481 23.7178C27.5613 23.7378 27.5808 23.753 27.6035 23.7609C27.6261 23.7688 27.6508 23.7691 27.6736 23.7617C27.6965 23.7544 27.7163 23.7397 27.73 23.72C27.7464 23.7046 27.7576 23.6846 27.7622 23.6627C27.7669 23.6407 27.7647 23.6179 27.756 23.5972C27.7473 23.5765 27.7325 23.559 27.7135 23.547C27.6946 23.535 27.6724 23.5291 27.65 23.53H27.63ZM20.38 24.1C20.3592 24.1039 20.3399 24.1138 20.3245 24.1284C20.3091 24.1431 20.2983 24.1618 20.2933 24.1825C20.2884 24.2031 20.2895 24.2248 20.2966 24.2448C20.3037 24.2648 20.3164 24.2824 20.3333 24.2953C20.3501 24.3082 20.3703 24.316 20.3915 24.3178C20.4126 24.3195 20.4338 24.315 20.4525 24.3049C20.4712 24.2949 20.4866 24.2796 20.4968 24.261C20.507 24.2424 20.5116 24.2212 20.51 24.2C20.5075 24.1726 20.4948 24.1471 20.4745 24.1286C20.4541 24.1101 20.4275 24.0999 20.4 24.1H20.38ZM27.63 24.1C27.6092 24.1039 27.5899 24.1138 27.5745 24.1284C27.5591 24.1431 27.5483 24.1618 27.5433 24.1825C27.5384 24.2031 27.5395 24.2248 27.5466 24.2448C27.5537 24.2648 27.5664 24.2824 27.5833 24.2953C27.6001 24.3082 27.6203 24.316 27.6415 24.3178C27.6626 24.3195 27.6838 24.315 27.7025 24.3049C27.7212 24.2949 27.7366 24.2796 27.7468 24.261C27.757 24.2424 27.7616 24.2212 27.76 24.2C27.7575 24.1726 27.7448 24.1471 27.7245 24.1286C27.7041 24.1101 27.6775 24.0999 27.65 24.1H27.63ZM20.39 24.66C20.3754 24.6594 20.3607 24.6618 20.347 24.6669C20.3332 24.6721 20.3207 24.6799 20.31 24.69C20.2916 24.7074 20.2797 24.7307 20.2765 24.7559C20.2733 24.7811 20.2789 24.8066 20.2923 24.8282C20.3058 24.8497 20.3262 24.8659 20.3503 24.8741C20.3743 24.8822 20.4005 24.8818 20.4242 24.8729C20.448 24.864 20.468 24.8471 20.4807 24.8252C20.4935 24.8032 20.4982 24.7775 20.4942 24.7525C20.4902 24.7274 20.4776 24.7045 20.4586 24.6876C20.4396 24.6708 20.4154 24.661 20.39 24.66ZM27.64 24.66C27.6108 24.66 27.5829 24.6716 27.5622 24.6922C27.5416 24.7128 27.53 24.7408 27.53 24.77C27.53 24.7992 27.5416 24.8272 27.5622 24.8478C27.5829 24.8684 27.6108 24.88 27.64 24.88C27.6692 24.88 27.6972 24.8684 27.7178 24.8478C27.7384 24.8272 27.75 24.7992 27.75 24.77C27.75 24.7408 27.7384 24.7128 27.7178 24.6922C27.6972 24.6716 27.6692 24.66 27.64 24.66ZM20.39 25.22C20.3608 25.216 20.3313 25.2238 20.3078 25.2416C20.2844 25.2594 20.269 25.2858 20.265 25.315C20.261 25.3442 20.2688 25.3737 20.2866 25.3972C20.3044 25.4206 20.3308 25.436 20.36 25.44C20.3807 25.4476 20.4032 25.4488 20.4246 25.4435C20.446 25.4381 20.4653 25.4265 20.48 25.41C20.5065 25.3967 20.5267 25.3735 20.5361 25.3454C20.5455 25.3172 20.5433 25.2865 20.53 25.26C20.5168 25.2335 20.4935 25.2133 20.4654 25.2039C20.4372 25.1946 20.4065 25.1967 20.38 25.21L20.39 25.22ZM27.64 25.22C27.6137 25.223 27.5893 25.2355 27.5714 25.2551C27.5536 25.2746 27.5433 25.3 27.5427 25.3265C27.542 25.353 27.5509 25.3789 27.5678 25.3993C27.5847 25.4198 27.6084 25.4334 27.6346 25.4378C27.6607 25.4421 27.6876 25.4369 27.7102 25.423C27.7328 25.4092 27.7496 25.3876 27.7576 25.3623C27.7655 25.337 27.7641 25.3097 27.7535 25.2854C27.7429 25.2611 27.7239 25.2414 27.7 25.23C27.6814 25.2211 27.6606 25.2176 27.64 25.22ZM20.39 25.78C20.373 25.7825 20.3568 25.7889 20.3426 25.7988C20.3285 25.8086 20.317 25.8217 20.3088 25.8369C20.3007 25.852 20.2962 25.8689 20.2958 25.8861C20.2953 25.9033 20.299 25.9204 20.3063 25.936C20.3137 25.9515 20.3246 25.9651 20.3382 25.9757C20.3518 25.9863 20.3677 25.9935 20.3846 25.9968C20.4015 26.0001 20.4189 25.9994 20.4355 25.9948C20.4521 25.9901 20.4673 25.9816 20.48 25.97C20.4991 25.9538 20.512 25.9316 20.5168 25.9071C20.5215 25.8825 20.5178 25.8571 20.5061 25.8349C20.4945 25.8128 20.4757 25.7953 20.4527 25.7853C20.4298 25.7753 20.4042 25.7735 20.38 25.78H20.39ZM27.64 25.78C27.6256 25.7813 27.6115 25.7854 27.5986 25.7921C27.5857 25.7988 27.5743 25.808 27.565 25.8192C27.5557 25.8303 27.5487 25.8432 27.5444 25.8571C27.5401 25.871 27.5386 25.8855 27.54 25.9C27.54 25.96 27.58 26 27.64 26C27.6692 26 27.6972 25.9884 27.7178 25.9678C27.7384 25.9472 27.75 25.9192 27.75 25.89C27.7475 25.8626 27.7348 25.8371 27.7145 25.8186C27.6941 25.8001 27.6675 25.7899 27.64 25.79V25.78ZM20.39 26.34C20.3595 26.34 20.3303 26.3521 20.3087 26.3737C20.2871 26.3952 20.275 26.4245 20.275 26.455C20.275 26.4855 20.2871 26.5148 20.3087 26.5363C20.3303 26.5579 20.3595 26.57 20.39 26.57C20.4205 26.57 20.4498 26.5579 20.4713 26.5363C20.4929 26.5148 20.505 26.4855 20.505 26.455C20.505 26.4245 20.4929 26.3952 20.4713 26.3737C20.4498 26.3521 20.4205 26.34 20.39 26.34ZM27.64 26.34C27.6095 26.34 27.5803 26.3521 27.5587 26.3737C27.5371 26.3952 27.525 26.4245 27.525 26.455C27.525 26.4855 27.5371 26.5148 27.5587 26.5363C27.5803 26.5579 27.6095 26.57 27.64 26.57C27.6705 26.57 27.6998 26.5579 27.7213 26.5363C27.7429 26.5148 27.755 26.4855 27.755 26.455C27.755 26.4245 27.7429 26.3952 27.7213 26.3737C27.6998 26.3521 27.6705 26.34 27.64 26.34ZM17.15 26.59C16.7257 26.5794 16.3145 26.7378 16.0069 27.0303C15.6994 27.3229 15.5206 27.7257 15.51 28.15C15.4994 28.5743 15.6578 28.9855 15.9504 29.2931C16.2429 29.6006 16.6457 29.7794 17.07 29.79C17.2801 29.7953 17.4892 29.7591 17.6854 29.6835C17.8815 29.608 18.0608 29.4945 18.2131 29.3497C18.3654 29.2048 18.4877 29.0314 18.5729 28.8392C18.6582 28.6471 18.7048 28.4401 18.71 28.23C18.7153 28.0199 18.6791 27.8108 18.6035 27.6147C18.528 27.4185 18.4145 27.2392 18.2697 27.0869C18.1248 26.9346 17.9514 26.8124 17.7593 26.7271C17.5672 26.6418 17.3601 26.5953 17.15 26.59ZM24.25 26.59C24.0399 26.5854 23.8309 26.6222 23.6351 26.6984C23.4392 26.7746 23.2602 26.8886 23.1084 27.0339C22.9566 27.1792 22.8349 27.353 22.7502 27.5454C22.6656 27.7377 22.6196 27.9449 22.615 28.155C22.6104 28.3651 22.6473 28.5741 22.7234 28.77C22.7996 28.9658 22.9136 29.1448 23.0589 29.2966C23.2042 29.4484 23.378 29.5702 23.5704 29.6548C23.7628 29.7395 23.9699 29.7854 24.18 29.79C24.6044 29.8006 25.0155 29.6422 25.3231 29.3497C25.6307 29.0571 25.8094 28.6543 25.82 28.23C25.8306 27.8057 25.6722 27.3945 25.3797 27.0869C25.0871 26.7794 24.6844 26.6006 24.26 26.59H24.25ZM31.15 26.59C30.7257 26.5794 30.3145 26.7378 30.0069 27.0303C29.6994 27.3229 29.5206 27.7257 29.51 28.15C29.4994 28.5743 29.6578 28.9855 29.9504 29.2931C30.2429 29.6006 30.6457 29.7794 31.07 29.79C31.4944 29.8006 31.9055 29.6422 32.2131 29.3497C32.5207 29.0571 32.6994 28.6543 32.71 28.23C32.7206 27.8057 32.5622 27.3945 32.2697 27.0869C31.9771 26.7794 31.5744 26.6006 31.15 26.59ZM20.39 26.91C20.3661 26.913 20.3439 26.9238 20.3267 26.9407C20.3095 26.9576 20.2984 26.9797 20.295 27.0036C20.2916 27.0274 20.2961 27.0517 20.3078 27.0728C20.3196 27.0938 20.3379 27.1104 20.36 27.12C20.3807 27.1276 20.4032 27.1288 20.4246 27.1235C20.446 27.1181 20.4653 27.1065 20.48 27.09C20.4945 27.0729 20.5034 27.0519 20.5056 27.0296C20.5078 27.0074 20.5032 26.9849 20.4923 26.9654C20.4815 26.9458 20.4649 26.9301 20.4448 26.9202C20.4248 26.9103 20.4021 26.9067 20.38 26.91H20.39ZM27.64 26.91C27.6161 26.913 27.5939 26.9238 27.5767 26.9407C27.5595 26.9576 27.5484 26.9797 27.545 27.0036C27.5416 27.0274 27.5461 27.0517 27.5578 27.0728C27.5696 27.0938 27.5879 27.1104 27.61 27.12C27.6307 27.1276 27.6532 27.1288 27.6746 27.1235C27.696 27.1181 27.7153 27.1065 27.73 27.09C27.7445 27.0729 27.7534 27.0519 27.7556 27.0296C27.7578 27.0074 27.7532 26.9849 27.7423 26.9654C27.7315 26.9458 27.7149 26.9301 27.6948 26.9202C27.6748 26.9103 27.6521 26.9067 27.63 26.91H27.64ZM20.39 27.47C20.3754 27.4694 20.3607 27.4718 20.347 27.4769C20.3332 27.4821 20.3207 27.4899 20.31 27.5C20.2916 27.5174 20.2797 27.5407 20.2765 27.5659C20.2733 27.5911 20.2789 27.6166 20.2923 27.6382C20.3058 27.6597 20.3262 27.6759 20.3503 27.6841C20.3743 27.6922 20.4005 27.6918 20.4242 27.6829C20.448 27.674 20.468 27.6571 20.4807 27.6352C20.4935 27.6132 20.4982 27.5875 20.4942 27.5625C20.4902 27.5374 20.4776 27.5145 20.4586 27.4976C20.4396 27.4808 20.4154 27.471 20.39 27.47ZM27.64 27.47C27.6254 27.4694 27.6107 27.4718 27.597 27.4769C27.5832 27.4821 27.5707 27.4899 27.56 27.5C27.5416 27.5174 27.5297 27.5407 27.5265 27.5659C27.5233 27.5911 27.5289 27.6166 27.5423 27.6382C27.5558 27.6597 27.5762 27.6759 27.6003 27.6841C27.6243 27.6922 27.6505 27.6918 27.6742 27.6829C27.698 27.674 27.718 27.6571 27.7307 27.6352C27.7435 27.6132 27.7482 27.5875 27.7442 27.5625C27.7402 27.5374 27.7276 27.5145 27.7086 27.4976C27.6896 27.4808 27.6654 27.471 27.64 27.47ZM20.38 28.03C20.3569 28.0307 20.3346 28.0386 20.3163 28.0527C20.2979 28.0667 20.2845 28.0862 20.2778 28.1083C20.2712 28.1305 20.2717 28.1542 20.2793 28.176C20.2868 28.1978 20.3011 28.2167 20.32 28.23C20.3359 28.2473 20.3569 28.2591 20.38 28.2637C20.4031 28.2682 20.427 28.2652 20.4482 28.2551C20.4695 28.2451 20.487 28.2284 20.4981 28.2077C20.5092 28.187 20.5134 28.1633 20.51 28.14C20.5075 28.1126 20.4948 28.0871 20.4745 28.0686C20.4541 28.0501 20.4275 28.0399 20.4 28.04H20.38V28.03ZM27.63 28.03C27.6069 28.0307 27.5846 28.0386 27.5663 28.0527C27.5479 28.0667 27.5345 28.0862 27.5278 28.1083C27.5212 28.1305 27.5217 28.1542 27.5293 28.176C27.5368 28.1978 27.5511 28.2167 27.57 28.23C27.5859 28.2473 27.6069 28.2591 27.63 28.2637C27.6531 28.2682 27.677 28.2652 27.6982 28.2551C27.7195 28.2451 27.737 28.2284 27.7481 28.2077C27.7592 28.187 27.7634 28.1633 27.76 28.14C27.7575 28.1126 27.7448 28.0871 27.7245 28.0686C27.7041 28.0501 27.6775 28.0399 27.65 28.04H27.63V28.03ZM20.4 28.59C20.3837 28.5897 20.3676 28.5931 20.3527 28.5998C20.3379 28.6065 20.3247 28.6165 20.3142 28.6289C20.3037 28.6414 20.2961 28.656 20.2919 28.6717C20.2877 28.6875 20.2871 28.704 20.29 28.72C20.2907 28.7344 20.2942 28.7486 20.3003 28.7617C20.3064 28.7748 20.3151 28.7866 20.3258 28.7963C20.3365 28.8061 20.3489 28.8136 20.3625 28.8185C20.3761 28.8235 20.3906 28.8257 20.405 28.825C20.4195 28.8243 20.4336 28.8208 20.4467 28.8147C20.4598 28.8086 20.4716 28.7999 20.4813 28.7892C20.4911 28.7786 20.4986 28.7661 20.5036 28.7525C20.5085 28.7389 20.5107 28.7244 20.51 28.71C20.5114 28.6947 20.5096 28.6793 20.5047 28.6648C20.4998 28.6503 20.4919 28.637 20.4816 28.6257C20.4712 28.6144 20.4586 28.6054 20.4446 28.5992C20.4305 28.5931 20.4153 28.5899 20.4 28.59ZM27.65 28.59C27.6337 28.5897 27.6176 28.5931 27.6027 28.5998C27.5879 28.6065 27.5747 28.6165 27.5642 28.6289C27.5537 28.6414 27.5461 28.656 27.5419 28.6717C27.5377 28.6875 27.5371 28.704 27.54 28.72C27.5413 28.7492 27.5542 28.7766 27.5758 28.7963C27.5973 28.816 27.6258 28.8263 27.655 28.825C27.6842 28.8237 27.7116 28.8108 27.7313 28.7892C27.751 28.7677 27.7613 28.7392 27.76 28.71C27.7614 28.6947 27.7596 28.6793 27.7547 28.6648C27.7498 28.6503 27.7419 28.637 27.7316 28.6257C27.7212 28.6144 27.7086 28.6054 27.6946 28.5992C27.6805 28.5931 27.6653 28.5899 27.65 28.59ZM20.39 29.72C20.3608 29.72 20.3329 29.7316 20.3122 29.7522C20.2916 29.7728 20.28 29.8008 20.28 29.83C20.28 29.8592 20.2916 29.8872 20.3122 29.9078C20.3329 29.9284 20.3608 29.94 20.39 29.94C20.4192 29.94 20.4472 29.9284 20.4678 29.9078C20.4884 29.8872 20.5 29.8592 20.5 29.83C20.5 29.8008 20.4884 29.7728 20.4678 29.7522C20.4472 29.7316 20.4192 29.72 20.39 29.72ZM20.39 30.28C20.3756 30.2807 20.3614 30.2842 20.3483 30.2903C20.3352 30.2964 20.3235 30.3051 20.3137 30.3158C20.304 30.3264 20.2964 30.3389 20.2915 30.3525C20.2866 30.3661 20.2844 30.3806 20.285 30.395C20.2857 30.4094 20.2892 30.4236 20.2953 30.4367C20.3014 30.4498 20.3101 30.4616 20.3208 30.4713C20.3315 30.4811 20.3439 30.4886 20.3575 30.4935C20.3711 30.4985 20.3856 30.5007 20.4 30.5C20.4292 30.4987 20.4566 30.4858 20.4763 30.4642C20.496 30.4427 20.5063 30.4142 20.505 30.385C20.5037 30.3558 20.4908 30.3284 20.4693 30.3087C20.4477 30.289 20.4192 30.2787 20.39 30.28ZM27.64 30.28C27.6256 30.2807 27.6114 30.2842 27.5983 30.2903C27.5852 30.2964 27.5735 30.3051 27.5637 30.3158C27.554 30.3264 27.5464 30.3389 27.5415 30.3525C27.5366 30.3661 27.5344 30.3806 27.535 30.395C27.5357 30.4094 27.5392 30.4236 27.5453 30.4367C27.5514 30.4498 27.5601 30.4616 27.5708 30.4713C27.5815 30.4811 27.5939 30.4886 27.6075 30.4935C27.6211 30.4985 27.6356 30.5007 27.65 30.5C27.6792 30.4987 27.7066 30.4858 27.7263 30.4642C27.746 30.4427 27.7563 30.4142 27.755 30.385C27.7537 30.3558 27.7408 30.3284 27.7193 30.3087C27.6977 30.289 27.6692 30.2787 27.64 30.28ZM17.15 30.42C16.7257 30.42 16.3187 30.5886 16.0186 30.8886C15.7186 31.1887 15.55 31.5957 15.55 32.02C15.55 32.4443 15.7186 32.8513 16.0186 33.1514C16.3187 33.4514 16.7257 33.62 17.15 33.62C17.5744 33.62 17.9813 33.4514 18.2814 33.1514C18.5814 32.8513 18.75 32.4443 18.75 32.02C18.75 31.5957 18.5814 31.1887 18.2814 30.8886C17.9813 30.5886 17.5744 30.42 17.15 30.42ZM24.25 30.42C23.8257 30.42 23.4187 30.5886 23.1186 30.8886C22.8186 31.1887 22.65 31.5957 22.65 32.02C22.65 32.4443 22.8186 32.8513 23.1186 33.1514C23.4187 33.4514 23.8257 33.62 24.25 33.62C24.6744 33.62 25.0813 33.4514 25.3814 33.1514C25.6814 32.8513 25.85 32.4443 25.85 32.02C25.85 31.5957 25.6814 31.1887 25.3814 30.8886C25.0813 30.5886 24.6744 30.42 24.25 30.42ZM31.15 30.42C30.7257 30.42 30.3187 30.5886 30.0186 30.8886C29.7186 31.1887 29.55 31.5957 29.55 32.02C29.55 32.4443 29.7186 32.8513 30.0186 33.1514C30.3187 33.4514 30.7257 33.62 31.15 33.62C31.5744 33.62 31.9813 33.4514 32.2814 33.1514C32.5814 32.8513 32.75 32.4443 32.75 32.02C32.75 31.5957 32.5814 31.1887 32.2814 30.8886C31.9813 30.5886 31.5744 30.42 31.15 30.42ZM20.39 30.84C20.3661 30.8385 20.3422 30.8448 20.3222 30.8581C20.3022 30.8713 20.287 30.8908 20.2791 30.9134C20.2712 30.9361 20.2709 30.9607 20.2783 30.9836C20.2857 31.0065 20.3003 31.0263 20.32 31.04C20.3359 31.0573 20.3569 31.0691 20.38 31.0737C20.4031 31.0782 20.427 31.0752 20.4482 31.0651C20.4695 31.0551 20.487 31.0385 20.4981 31.0177C20.5092 30.997 20.5134 30.9733 20.51 30.95C20.5075 30.9275 20.4986 30.9061 20.4845 30.8884C20.4703 30.8707 20.4514 30.8574 20.43 30.85L20.39 30.84ZM27.64 30.84C27.6161 30.8385 27.5922 30.8448 27.5722 30.8581C27.5522 30.8713 27.537 30.8908 27.5291 30.9134C27.5212 30.9361 27.5209 30.9607 27.5283 30.9836C27.5357 31.0065 27.5503 31.0263 27.57 31.04C27.5859 31.0573 27.6069 31.0691 27.63 31.0737C27.6531 31.0782 27.677 31.0752 27.6982 31.0651C27.7195 31.0551 27.737 31.0385 27.7481 31.0177C27.7592 30.997 27.7634 30.9733 27.76 30.95C27.7575 30.9275 27.7486 30.9061 27.7345 30.8884C27.7203 30.8707 27.7014 30.8574 27.68 30.85L27.64 30.84ZM20.39 31.4C20.3608 31.396 20.3313 31.4038 20.3078 31.4216C20.2844 31.4394 20.269 31.4658 20.265 31.495C20.261 31.5242 20.2688 31.5537 20.2866 31.5772C20.3044 31.6006 20.3308 31.616 20.36 31.62C20.3807 31.6276 20.4032 31.6288 20.4246 31.6235C20.446 31.6181 20.4653 31.6065 20.48 31.59C20.4991 31.5738 20.512 31.5516 20.5168 31.5271C20.5215 31.5025 20.5178 31.4771 20.5061 31.4549C20.4945 31.4328 20.4757 31.4153 20.4527 31.4053C20.4298 31.3953 20.4042 31.3935 20.38 31.4H20.39ZM27.64 31.4C27.6108 31.396 27.5813 31.4038 27.5578 31.4216C27.5344 31.4394 27.519 31.4658 27.515 31.495C27.511 31.5242 27.5188 31.5537 27.5366 31.5772C27.5544 31.6006 27.5808 31.616 27.61 31.62C27.6307 31.6276 27.6532 31.6288 27.6746 31.6235C27.696 31.6181 27.7153 31.6065 27.73 31.59C27.7491 31.5738 27.762 31.5516 27.7668 31.5271C27.7715 31.5025 27.7678 31.4771 27.7561 31.4549C27.7445 31.4328 27.7257 31.4153 27.7027 31.4053C27.6798 31.3953 27.6542 31.3935 27.63 31.4H27.64ZM20.38 31.97C20.3543 31.9723 20.3301 31.9835 20.3118 32.0018C20.2935 32.0201 20.2823 32.0442 20.28 32.07C20.2781 32.0916 20.2827 32.1133 20.2932 32.1324C20.3036 32.1514 20.3194 32.167 20.3387 32.177C20.3579 32.1871 20.3797 32.1912 20.4013 32.1889C20.4229 32.1866 20.4433 32.1779 20.46 32.164C20.4767 32.1501 20.4889 32.1316 20.4951 32.1108C20.5012 32.0899 20.5011 32.0677 20.4947 32.047C20.4883 32.0263 20.4759 32.0079 20.459 31.9942C20.4422 31.9805 20.4216 31.9721 20.4 31.97H20.38ZM27.63 31.97C27.6043 31.9723 27.5801 31.9835 27.5618 32.0018C27.5435 32.0201 27.5323 32.0442 27.53 32.07C27.5281 32.0916 27.5327 32.1133 27.5432 32.1324C27.5536 32.1514 27.5694 32.167 27.5887 32.177C27.6079 32.1871 27.6297 32.1912 27.6513 32.1889C27.6729 32.1866 27.6933 32.1779 27.71 32.164C27.7267 32.1501 27.7389 32.1316 27.7451 32.1108C27.7512 32.0899 27.7511 32.0677 27.7447 32.047C27.7383 32.0263 27.7259 32.0079 27.709 31.9942C27.6922 31.9805 27.6716 31.9721 27.65 31.97H27.63ZM20.38 32.53C20.3592 32.5339 20.3399 32.5438 20.3245 32.5584C20.3091 32.5731 20.2983 32.5918 20.2933 32.6125C20.2884 32.6331 20.2895 32.6548 20.2966 32.6748C20.3037 32.6948 20.3164 32.7124 20.3333 32.7253C20.3501 32.7382 20.3703 32.746 20.3915 32.7478C20.4126 32.7495 20.4338 32.745 20.4525 32.7349C20.4712 32.7249 20.4866 32.7096 20.4968 32.691C20.507 32.6724 20.5116 32.6512 20.51 32.63C20.5075 32.6026 20.4948 32.5771 20.4745 32.5586C20.4541 32.5401 20.4275 32.5299 20.4 32.53H20.38ZM27.63 32.53C27.6092 32.5339 27.5899 32.5438 27.5745 32.5584C27.5591 32.5731 27.5483 32.5918 27.5433 32.6125C27.5384 32.6331 27.5395 32.6548 27.5466 32.6748C27.5537 32.6948 27.5664 32.7124 27.5833 32.7253C27.6001 32.7382 27.6203 32.746 27.6415 32.7478C27.6626 32.7495 27.6838 32.745 27.7025 32.7349C27.7212 32.7249 27.7366 32.7096 27.7468 32.691C27.757 32.6724 27.7616 32.6512 27.76 32.63C27.7575 32.6026 27.7448 32.5771 27.7245 32.5586C27.7041 32.5401 27.6775 32.5299 27.65 32.53H27.63ZM20.4 33.09C20.3783 33.0905 20.3572 33.0974 20.3394 33.1099C20.3216 33.1223 20.3079 33.1398 20.3 33.16L20.28 33.2C20.28 33.27 20.34 33.31 20.4 33.31C20.4147 33.3106 20.4293 33.3082 20.4431 33.3031C20.4568 33.2979 20.4694 33.2901 20.48 33.28C20.4901 33.2693 20.498 33.2568 20.5031 33.243C20.5083 33.2293 20.5106 33.2147 20.51 33.2C20.51 33.1708 20.4984 33.1428 20.4778 33.1222C20.4572 33.1016 20.4292 33.09 20.4 33.09ZM27.65 33.09C27.6283 33.0905 27.6072 33.0974 27.5894 33.1099C27.5716 33.1223 27.5579 33.1398 27.55 33.16L27.53 33.2C27.53 33.27 27.59 33.31 27.65 33.31C27.6647 33.3106 27.6793 33.3082 27.6931 33.3031C27.7068 33.2979 27.7194 33.2901 27.73 33.28C27.7401 33.2693 27.748 33.2568 27.7531 33.243C27.7583 33.2293 27.7606 33.2147 27.76 33.2C27.76 33.1708 27.7484 33.1428 27.7278 33.1222C27.7072 33.1016 27.6792 33.09 27.65 33.09ZM20.39 33.65C20.3747 33.6499 20.3595 33.6531 20.3455 33.6592C20.3314 33.6654 20.3188 33.6744 20.3085 33.6857C20.2981 33.697 20.2902 33.7103 20.2853 33.7248C20.2804 33.7393 20.2786 33.7547 20.28 33.77C20.2813 33.7845 20.2854 33.7985 20.2921 33.8114C20.2988 33.8243 20.308 33.8357 20.3192 33.845C20.3303 33.8543 20.3432 33.8613 20.3571 33.8656C20.371 33.8699 20.3856 33.8714 20.4 33.87C20.4292 33.87 20.4572 33.8584 20.4778 33.8378C20.4984 33.8172 20.51 33.7892 20.51 33.76C20.51 33.7308 20.4984 33.7028 20.4778 33.6822C20.4572 33.6616 20.4292 33.65 20.4 33.65H20.39ZM20.39 34.21C20.3671 34.2112 20.3451 34.2196 20.3272 34.2339C20.3092 34.2483 20.2963 34.2679 20.29 34.29C20.28 34.3157 20.28 34.3443 20.29 34.37C20.2968 34.3884 20.3083 34.4047 20.3234 34.4172C20.3386 34.4297 20.3568 34.4379 20.3762 34.4409C20.3956 34.444 20.4154 34.4418 20.4337 34.4346C20.4519 34.4274 20.4679 34.4155 20.48 34.4C20.4991 34.3838 20.512 34.3616 20.5168 34.3371C20.5215 34.3125 20.5178 34.2871 20.5061 34.2649C20.4945 34.2428 20.4757 34.2253 20.4527 34.2153C20.4298 34.2053 20.4042 34.2035 20.38 34.21H20.39ZM17.15 34.26C16.9399 34.2547 16.7308 34.2909 16.5347 34.3665C16.3386 34.442 16.1592 34.5555 16.0069 34.7003C15.8546 34.8452 15.7324 35.0186 15.6471 35.2108C15.5619 35.4029 15.5153 35.6099 15.51 35.82C15.5048 36.0301 15.541 36.2392 15.6165 36.4353C15.6921 36.6315 15.8055 36.8108 15.9504 36.9631C16.0952 37.1154 16.2687 37.2376 16.4608 37.3229C16.6529 37.4082 16.8599 37.4547 17.07 37.46C17.4944 37.4706 17.9055 37.3122 18.2131 37.0197C18.5207 36.7271 18.6994 36.3243 18.71 35.9C18.7206 35.4757 18.5622 35.0645 18.2697 34.7569C17.9771 34.4494 17.5744 34.2706 17.15 34.26ZM24.25 34.26C23.8257 34.2507 23.415 34.4104 23.1084 34.7039C22.8018 34.9974 22.6243 35.4007 22.615 35.825C22.6057 36.2493 22.7654 36.66 23.0589 36.9666C23.3524 37.2732 23.7557 37.4507 24.18 37.46C24.3901 37.4653 24.5992 37.4291 24.7954 37.3535C24.9915 37.278 25.1708 37.1645 25.3231 37.0197C25.4754 36.8748 25.5977 36.7014 25.6829 36.5092C25.7682 36.3171 25.8148 36.1101 25.82 35.9C25.8253 35.6899 25.7891 35.4808 25.7135 35.2847C25.638 35.0885 25.5245 34.9092 25.3797 34.7569C25.2348 34.6046 25.0614 34.4824 24.8693 34.3971C24.6772 34.3118 24.4701 34.2653 24.26 34.26H24.25ZM31.15 34.26C30.7257 34.2494 30.3145 34.4078 30.0069 34.7003C29.6994 34.9929 29.5206 35.3957 29.51 35.82C29.4994 36.2443 29.6578 36.6555 29.9504 36.9631C30.2429 37.2706 30.6457 37.4494 31.07 37.46C31.4944 37.4706 31.9055 37.3122 32.2131 37.0197C32.5207 36.7271 32.6994 36.3243 32.71 35.9C32.7206 35.4757 32.5622 35.0645 32.2697 34.7569C31.9771 34.4494 31.5744 34.2706 31.15 34.26ZM20.39 34.78C20.3661 34.783 20.3439 34.7938 20.3267 34.8107C20.3095 34.8276 20.2984 34.8497 20.295 34.8736C20.2916 34.8974 20.2961 34.9217 20.3078 34.9428C20.3196 34.9638 20.3379 34.9804 20.36 34.99C20.3807 34.9976 20.4032 34.9988 20.4246 34.9935C20.446 34.9881 20.4653 34.9765 20.48 34.96C20.4945 34.9429 20.5034 34.9219 20.5056 34.8996C20.5078 34.8774 20.5032 34.8549 20.4923 34.8354C20.4815 34.8158 20.4649 34.8 20.4448 34.7902C20.4248 34.7803 20.4021 34.7767 20.38 34.78H20.39ZM27.64 34.78C27.6161 34.783 27.5939 34.7938 27.5767 34.8107C27.5595 34.8276 27.5484 34.8497 27.545 34.8736C27.5416 34.8974 27.5461 34.9217 27.5578 34.9428C27.5696 34.9638 27.5879 34.9804 27.61 34.99C27.6307 34.9976 27.6532 34.9988 27.6746 34.9935C27.696 34.9881 27.7153 34.9765 27.73 34.96C27.7445 34.9429 27.7534 34.9219 27.7556 34.8996C27.7578 34.8774 27.7532 34.8549 27.7423 34.8354C27.7315 34.8158 27.7149 34.8 27.6948 34.7902C27.6748 34.7803 27.6521 34.7767 27.63 34.78H27.64ZM20.39 35.34C20.3608 35.336 20.3313 35.3438 20.3078 35.3616C20.2844 35.3794 20.269 35.4058 20.265 35.435C20.261 35.4642 20.2688 35.4937 20.2866 35.5172C20.3044 35.5406 20.3308 35.556 20.36 35.56C20.3817 35.5665 20.4049 35.5661 20.4263 35.559C20.4478 35.5518 20.4666 35.5382 20.48 35.52C20.4945 35.5029 20.5034 35.4819 20.5056 35.4596C20.5078 35.4373 20.5032 35.4149 20.4923 35.3954C20.4815 35.3758 20.4649 35.3601 20.4448 35.3502C20.4248 35.3403 20.4021 35.3367 20.38 35.34H20.39ZM27.64 35.34C27.6108 35.336 27.5813 35.3438 27.5578 35.3616C27.5344 35.3794 27.519 35.4058 27.515 35.435C27.511 35.4642 27.5188 35.4937 27.5366 35.5172C27.5544 35.5406 27.5808 35.556 27.61 35.56C27.6317 35.5665 27.6549 35.5661 27.6763 35.559C27.6978 35.5518 27.7166 35.5382 27.73 35.52C27.7445 35.5029 27.7534 35.4819 27.7556 35.4596C27.7578 35.4373 27.7532 35.4149 27.7423 35.3954C27.7315 35.3758 27.7149 35.3601 27.6948 35.3502C27.6748 35.3403 27.6521 35.3367 27.63 35.34H27.64ZM20.39 35.9C20.3608 35.896 20.3313 35.9038 20.3078 35.9216C20.2844 35.9394 20.269 35.9658 20.265 35.995C20.261 36.0242 20.2688 36.0537 20.2866 36.0772C20.3044 36.1006 20.3308 36.116 20.36 36.12C20.3807 36.1276 20.4032 36.1288 20.4246 36.1235C20.446 36.1181 20.4653 36.1065 20.48 36.09C20.4991 36.0738 20.512 36.0516 20.5168 36.0271C20.5215 36.0025 20.5178 35.9771 20.5061 35.9549C20.4945 35.9328 20.4757 35.9153 20.4527 35.9053C20.4298 35.8953 20.4042 35.8935 20.38 35.9H20.39ZM27.64 35.9C27.6108 35.896 27.5813 35.9038 27.5578 35.9216C27.5344 35.9394 27.519 35.9658 27.515 35.995C27.511 36.0242 27.5188 36.0537 27.5366 36.0772C27.5544 36.1006 27.5808 36.116 27.61 36.12C27.6307 36.1276 27.6532 36.1288 27.6746 36.1235C27.696 36.1181 27.7153 36.1065 27.73 36.09C27.7491 36.0738 27.762 36.0516 27.7668 36.0271C27.7715 36.0025 27.7678 35.9771 27.7561 35.9549C27.7445 35.9328 27.7257 35.9153 27.7027 35.9053C27.6798 35.8953 27.6542 35.8935 27.63 35.9H27.64ZM20.39 36.46C20.3746 36.4607 20.3596 36.4646 20.3458 36.4715C20.332 36.4784 20.3198 36.4881 20.31 36.5C20.294 36.5195 20.2852 36.5438 20.285 36.569C20.2848 36.5942 20.2932 36.6187 20.3089 36.6385C20.3247 36.6582 20.3467 36.6719 20.3713 36.6773C20.3959 36.6827 20.4216 36.6795 20.4442 36.6683C20.4667 36.657 20.4847 36.6383 20.4951 36.6154C20.5055 36.5924 20.5078 36.5666 20.5014 36.5422C20.4951 36.5178 20.4806 36.4963 20.4603 36.4814C20.44 36.4664 20.4152 36.4589 20.39 36.46ZM27.64 36.46C27.6246 36.4607 27.6096 36.4646 27.5958 36.4715C27.582 36.4784 27.5698 36.4881 27.56 36.5C27.544 36.5195 27.5352 36.5438 27.535 36.569C27.5348 36.5942 27.5432 36.6187 27.5589 36.6385C27.5747 36.6582 27.5967 36.6719 27.6213 36.6773C27.6459 36.6827 27.6716 36.6795 27.6942 36.6683C27.7167 36.657 27.7347 36.6383 27.7451 36.6154C27.7555 36.5924 27.7578 36.5666 27.7514 36.5422C27.7451 36.5178 27.7306 36.4963 27.7103 36.4814C27.69 36.4664 27.6652 36.4589 27.64 36.46ZM20.38 37.03C20.3593 37.0327 20.3398 37.0414 20.3238 37.0548C20.3077 37.0682 20.2959 37.086 20.2896 37.1059C20.2833 37.1259 20.2828 37.1472 20.2882 37.1674C20.2936 37.1876 20.3046 37.2058 20.32 37.22C20.3354 37.2363 20.3554 37.2476 20.3773 37.2522C20.3993 37.2569 20.4221 37.2547 20.4428 37.246C20.4635 37.2373 20.481 37.2225 20.493 37.2035C20.505 37.1846 20.511 37.1624 20.51 37.14C20.51 37.1108 20.4984 37.0828 20.4778 37.0622C20.4572 37.0416 20.4292 37.03 20.4 37.03H20.38ZM27.63 37.03C27.6093 37.0327 27.5898 37.0414 27.5738 37.0548C27.5577 37.0682 27.5459 37.086 27.5396 37.1059C27.5333 37.1259 27.5328 37.1472 27.5382 37.1674C27.5436 37.1876 27.5546 37.2058 27.57 37.22C27.5854 37.2363 27.6054 37.2476 27.6273 37.2522C27.6493 37.2569 27.6721 37.2547 27.6928 37.246C27.7135 37.2373 27.731 37.2225 27.743 37.2035C27.755 37.1846 27.761 37.1624 27.76 37.14C27.76 37.1108 27.7484 37.0828 27.7278 37.0622C27.7072 37.0416 27.6792 37.03 27.65 37.03H27.63ZM20.39 37.59C20.3608 37.59 20.3329 37.6016 20.3122 37.6222C20.2916 37.6428 20.28 37.6708 20.28 37.7C20.28 37.7292 20.2916 37.7572 20.3122 37.7778C20.3329 37.7984 20.3608 37.81 20.39 37.81C20.4192 37.81 20.4472 37.7984 20.4678 37.7778C20.4884 37.7572 20.5 37.7292 20.5 37.7C20.5 37.6708 20.4884 37.6428 20.4678 37.6222C20.4472 37.6016 20.4192 37.59 20.39 37.59ZM27.64 37.59C27.6108 37.59 27.5829 37.6016 27.5622 37.6222C27.5416 37.6428 27.53 37.6708 27.53 37.7C27.53 37.7292 27.5416 37.7572 27.5622 37.7778C27.5829 37.7984 27.6108 37.81 27.64 37.81C27.6692 37.81 27.6972 37.7984 27.7178 37.7778C27.7384 37.7572 27.75 37.7292 27.75 37.7C27.75 37.6708 27.7384 37.6428 27.7178 37.6222C27.6972 37.6016 27.6692 37.59 27.64 37.59ZM17.15 38.07C16.7469 38.07 16.3603 38.2301 16.0752 38.5152C15.7902 38.8003 15.63 39.1869 15.63 39.59C15.63 39.9931 15.7902 40.3797 16.0752 40.6648C16.3603 40.9499 16.7469 41.11 17.15 41.11C17.5531 41.11 17.9398 40.9499 18.2248 40.6648C18.5099 40.3797 18.67 39.9931 18.67 39.59C18.67 39.1869 18.5099 38.8003 18.2248 38.5152C17.9398 38.2301 17.5531 38.07 17.15 38.07ZM24.25 38.07C23.8469 38.07 23.4603 38.2301 23.1752 38.5152C22.8902 38.8003 22.73 39.1869 22.73 39.59C22.73 39.9931 22.8902 40.3797 23.1752 40.6648C23.4603 40.9499 23.8469 41.11 24.25 41.11C24.6531 41.11 25.0398 40.9499 25.3248 40.6648C25.6099 40.3797 25.77 39.9931 25.77 39.59C25.77 39.1869 25.6099 38.8003 25.3248 38.5152C25.0398 38.2301 24.6531 38.07 24.25 38.07ZM31.15 38.07C30.7469 38.07 30.3603 38.2301 30.0752 38.5152C29.7902 38.8003 29.63 39.1869 29.63 39.59C29.63 39.9931 29.7902 40.3797 30.0752 40.6648C30.3603 40.9499 30.7469 41.11 31.15 41.11C31.5531 41.11 31.9398 40.9499 32.2248 40.6648C32.5099 40.3797 32.67 39.9931 32.67 39.59C32.67 39.1869 32.5099 38.8003 32.2248 38.5152C31.9398 38.2301 31.5531 38.07 31.15 38.07ZM20.39 38.15C20.3637 38.153 20.3393 38.1655 20.3214 38.1851C20.3036 38.2046 20.2933 38.23 20.2927 38.2565C20.292 38.283 20.3009 38.3089 20.3178 38.3293C20.3347 38.3498 20.3584 38.3634 20.3846 38.3678C20.4107 38.3721 20.4376 38.3669 20.4602 38.353C20.4828 38.3392 20.4996 38.3176 20.5076 38.2923C20.5155 38.267 20.5141 38.2397 20.5035 38.2154C20.4929 38.1911 20.4739 38.1714 20.45 38.16C20.4314 38.1511 20.4106 38.1476 20.39 38.15ZM27.64 38.15C27.6137 38.153 27.5893 38.1655 27.5714 38.1851C27.5536 38.2046 27.5433 38.23 27.5427 38.2565C27.542 38.283 27.5509 38.3089 27.5678 38.3293C27.5847 38.3498 27.6084 38.3634 27.6346 38.3678C27.6607 38.3721 27.6876 38.3669 27.7102 38.353C27.7328 38.3392 27.7496 38.3176 27.7576 38.2923C27.7655 38.267 27.7641 38.2397 27.7535 38.2154C27.7429 38.1911 27.7239 38.1714 27.7 38.16C27.6814 38.1511 27.6606 38.1476 27.64 38.15ZM20.39 38.71C20.3608 38.71 20.3329 38.7216 20.3122 38.7422C20.2916 38.7628 20.28 38.7908 20.28 38.82C20.28 38.8492 20.2916 38.8772 20.3122 38.8978C20.3329 38.9184 20.3608 38.93 20.39 38.93C20.4192 38.93 20.4472 38.9184 20.4678 38.8978C20.4884 38.8772 20.5 38.8492 20.5 38.82C20.5 38.7908 20.4884 38.7628 20.4678 38.7422C20.4472 38.7216 20.4192 38.71 20.39 38.71ZM27.64 38.71C27.6108 38.71 27.5829 38.7216 27.5622 38.7422C27.5416 38.7628 27.53 38.7908 27.53 38.82C27.53 38.8492 27.5416 38.8772 27.5622 38.8978C27.5829 38.9184 27.6108 38.93 27.64 38.93C27.6692 38.93 27.6972 38.9184 27.7178 38.8978C27.7384 38.8772 27.75 38.8492 27.75 38.82C27.75 38.7908 27.7384 38.7628 27.7178 38.7422C27.6972 38.7216 27.6692 38.71 27.64 38.71ZM20.39 39.27C20.3595 39.27 20.3303 39.2821 20.3087 39.3037C20.2871 39.3253 20.275 39.3545 20.275 39.385C20.275 39.4155 20.2871 39.4447 20.3087 39.4663C20.3303 39.4879 20.3595 39.5 20.39 39.5C20.4205 39.5 20.4498 39.4879 20.4713 39.4663C20.4929 39.4447 20.505 39.4155 20.505 39.385C20.505 39.3545 20.4929 39.3253 20.4713 39.3037C20.4498 39.2821 20.4205 39.27 20.39 39.27ZM27.64 39.27C27.6095 39.27 27.5803 39.2821 27.5587 39.3037C27.5371 39.3253 27.525 39.3545 27.525 39.385C27.525 39.4155 27.5371 39.4447 27.5587 39.4663C27.5803 39.4879 27.6095 39.5 27.64 39.5C27.6705 39.5 27.6998 39.4879 27.7213 39.4663C27.7429 39.4447 27.755 39.4155 27.755 39.385C27.755 39.3545 27.7429 39.3253 27.7213 39.3037C27.6998 39.2821 27.6705 39.27 27.64 39.27ZM20.39 39.84C20.3661 39.843 20.3439 39.8538 20.3267 39.8707C20.3095 39.8876 20.2984 39.9097 20.295 39.9336C20.2916 39.9574 20.2961 39.9817 20.3078 40.0028C20.3196 40.0238 20.3379 40.0404 20.36 40.05C20.3807 40.0576 20.4032 40.0588 20.4246 40.0535C20.446 40.0481 20.4653 40.0365 20.48 40.02C20.4945 40.0029 20.5034 39.9819 20.5056 39.9596C20.5078 39.9373 20.5032 39.9149 20.4923 39.8954C20.4815 39.8758 20.4649 39.8601 20.4448 39.8502C20.4248 39.8403 20.4021 39.8367 20.38 39.84H20.39ZM27.64 39.84C27.6161 39.843 27.5939 39.8538 27.5767 39.8707C27.5595 39.8876 27.5484 39.9097 27.545 39.9336C27.5416 39.9574 27.5461 39.9817 27.5578 40.0028C27.5696 40.0238 27.5879 40.0404 27.61 40.05C27.6307 40.0576 27.6532 40.0588 27.6746 40.0535C27.696 40.0481 27.7153 40.0365 27.73 40.02C27.7445 40.0029 27.7534 39.9819 27.7556 39.9596C27.7578 39.9373 27.7532 39.9149 27.7423 39.8954C27.7315 39.8758 27.7149 39.8601 27.6948 39.8502C27.6748 39.8403 27.6521 39.8367 27.63 39.84H27.64ZM20.39 40.4C20.3608 40.396 20.3313 40.4038 20.3078 40.4216C20.2844 40.4394 20.269 40.4658 20.265 40.495C20.261 40.5242 20.2688 40.5537 20.2866 40.5772C20.3044 40.6006 20.3308 40.616 20.36 40.62C20.3807 40.6276 20.4032 40.6288 20.4246 40.6235C20.446 40.6181 20.4653 40.6065 20.48 40.59C20.5065 40.5767 20.5267 40.5535 20.5361 40.5254C20.5455 40.4972 20.5433 40.4665 20.53 40.44C20.5168 40.4135 20.4935 40.3933 20.4654 40.3839C20.4372 40.3746 20.4065 40.3767 20.38 40.39L20.39 40.4ZM27.64 40.4C27.6108 40.396 27.5813 40.4038 27.5578 40.4216C27.5344 40.4394 27.519 40.4658 27.515 40.495C27.511 40.5242 27.5188 40.5537 27.5366 40.5772C27.5544 40.6006 27.5808 40.616 27.61 40.62C27.6307 40.6276 27.6532 40.6288 27.6746 40.6235C27.696 40.6181 27.7153 40.6065 27.73 40.59C27.7565 40.5767 27.7767 40.5535 27.7861 40.5254C27.7955 40.4972 27.7933 40.4665 27.78 40.44C27.7668 40.4135 27.7435 40.3933 27.7154 40.3839C27.6872 40.3746 27.6565 40.3767 27.63 40.39L27.64 40.4ZM20.38 40.96C20.3526 40.9625 20.3271 40.9752 20.3086 40.9956C20.2901 41.0159 20.2799 41.0425 20.28 41.07C20.2781 41.0916 20.2827 41.1133 20.2932 41.1324C20.3036 41.1514 20.3194 41.167 20.3387 41.177C20.3579 41.1871 20.3797 41.1912 20.4013 41.1889C20.4229 41.1866 20.4433 41.1779 20.46 41.164C20.4767 41.1501 20.4889 41.1316 20.4951 41.1108C20.5012 41.0899 20.5011 41.0677 20.4947 41.047C20.4883 41.0263 20.4759 41.0079 20.459 40.9942C20.4422 40.9805 20.4216 40.9721 20.4 40.97H20.38V40.96ZM27.63 40.96C27.6026 40.9625 27.5771 40.9752 27.5586 40.9956C27.5401 41.0159 27.5299 41.0425 27.53 41.07C27.5281 41.0916 27.5327 41.1133 27.5432 41.1324C27.5536 41.1514 27.5694 41.167 27.5887 41.177C27.6079 41.1871 27.6297 41.1912 27.6513 41.1889C27.6729 41.1866 27.6933 41.1779 27.71 41.164C27.7267 41.1501 27.7389 41.1316 27.7451 41.1108C27.7512 41.0899 27.7511 41.0677 27.7447 41.047C27.7383 41.0263 27.7259 41.0079 27.709 40.9942C27.6922 40.9805 27.6716 40.9721 27.65 40.97H27.63V40.96ZM20.38 41.52C20.36 41.5238 20.3415 41.5331 20.3264 41.5469C20.3114 41.5606 20.3005 41.5782 20.2949 41.5978C20.2893 41.6174 20.2893 41.6382 20.2948 41.6578C20.3003 41.6774 20.3111 41.6951 20.3261 41.7089C20.341 41.7227 20.3595 41.7321 20.3795 41.736C20.3995 41.7399 20.4202 41.7382 20.4392 41.7311C20.4583 41.7239 20.475 41.7116 20.4875 41.6955C20.5 41.6795 20.5078 41.6602 20.51 41.64C20.5114 41.6247 20.5096 41.6094 20.5047 41.5948C20.4998 41.5803 20.4919 41.567 20.4816 41.5557C20.4712 41.5444 20.4586 41.5354 20.4446 41.5292C20.4305 41.5231 20.4153 41.5199 20.4 41.52H20.38ZM27.63 41.52C27.61 41.5238 27.5915 41.5331 27.5764 41.5469C27.5614 41.5606 27.5505 41.5782 27.5449 41.5978C27.5393 41.6174 27.5393 41.6382 27.5448 41.6578C27.5503 41.6774 27.5611 41.6951 27.5761 41.7089C27.591 41.7227 27.6095 41.7321 27.6295 41.736C27.6495 41.7399 27.6702 41.7382 27.6892 41.7311C27.7083 41.7239 27.725 41.7116 27.7375 41.6955C27.75 41.6795 27.7578 41.6602 27.76 41.64C27.7614 41.6247 27.7596 41.6094 27.7547 41.5948C27.7498 41.5803 27.7419 41.567 27.7316 41.5557C27.7212 41.5444 27.7086 41.5354 27.6946 41.5292C27.6805 41.5231 27.6653 41.5199 27.65 41.52H27.63ZM20.4 42.08C20.375 42.0761 20.3494 42.0809 20.3276 42.0937C20.3057 42.1064 20.2889 42.1263 20.28 42.15C20.2701 42.172 20.2676 42.1966 20.2731 42.2201C20.2785 42.2436 20.2915 42.2646 20.31 42.28C20.3218 42.2914 20.336 42.3 20.3516 42.3052C20.3672 42.3104 20.3837 42.312 20.4 42.31C20.4305 42.31 20.4598 42.2979 20.4813 42.2763C20.5029 42.2548 20.515 42.2255 20.515 42.195C20.515 42.1645 20.5029 42.1352 20.4813 42.1137C20.4598 42.0921 20.4305 42.08 20.4 42.08ZM27.65 42.08C27.625 42.0761 27.5994 42.0809 27.5776 42.0937C27.5557 42.1064 27.5389 42.1263 27.53 42.15C27.5201 42.172 27.5176 42.1966 27.5231 42.2201C27.5285 42.2436 27.5415 42.2646 27.56 42.28C27.5718 42.2914 27.586 42.3 27.6016 42.3052C27.6172 42.3104 27.6337 42.312 27.65 42.31C27.6805 42.31 27.7098 42.2979 27.7313 42.2763C27.7529 42.2548 27.765 42.2255 27.765 42.195C27.765 42.1645 27.7529 42.1352 27.7313 42.1137C27.7098 42.0921 27.6805 42.08 27.65 42.08ZM20.39 42.65C20.3756 42.6513 20.3615 42.6554 20.3486 42.6621C20.3357 42.6688 20.3243 42.678 20.315 42.6892C20.3057 42.7003 20.2987 42.7132 20.2944 42.7271C20.2901 42.741 20.2886 42.7555 20.29 42.77C20.2921 42.7916 20.3005 42.8121 20.3142 42.829C20.3279 42.8458 20.3463 42.8583 20.367 42.8647C20.3878 42.8711 20.41 42.8712 20.4308 42.8651C20.4516 42.8589 20.4701 42.8467 20.484 42.83C20.4979 42.8133 20.5066 42.7929 20.5089 42.7713C20.5112 42.7497 20.5071 42.7279 20.497 42.7087C20.487 42.6894 20.4714 42.6736 20.4524 42.6631C20.4334 42.6527 20.4117 42.6481 20.39 42.65Z" fill="#333333"/>
</svg>
