<svg width="48" height="48" viewBox="0 0 48 48" fill="none" xmlns="http://www.w3.org/2000/svg">
<path d="M14.346 4.09402C13.476 4.09402 12.777 4.79302 12.777 5.66202V42.523C12.777 43.393 13.477 44.093 14.346 44.093H34.05C34.92 44.093 35.618 43.393 35.618 42.523V5.66302C35.618 4.79302 34.919 4.09302 34.05 4.09302H14.346V4.09402ZM14.776 4.59402H33.616C34.446 4.59402 35.117 5.27702 35.117 6.12502V42.065C35.117 42.912 34.447 43.594 33.615 43.594H14.775C13.945 43.594 13.275 42.912 13.275 42.064V6.12502C13.275 5.27702 13.945 4.59402 14.775 4.59402H14.776ZM17.088 9.21402V9.21702C16.9634 9.21891 16.8404 9.24541 16.7261 9.29501C16.6118 9.34461 16.5085 9.41632 16.422 9.50602L14.613 11.363C14.5261 11.4523 14.4578 11.5578 14.4118 11.6736C14.3659 11.7894 14.3433 11.9131 14.3454 12.0376C14.3474 12.1621 14.374 12.285 14.4237 12.3992C14.4734 12.5134 14.5452 12.6167 14.635 12.703C14.7241 12.79 14.8295 12.8585 14.9452 12.9046C15.0609 12.9507 15.1846 12.9735 15.3091 12.9716C15.4337 12.9698 15.5566 12.9433 15.6709 12.8938C15.7851 12.8443 15.8885 12.7726 15.975 12.683L17.783 10.824C17.8699 10.7348 17.9383 10.6293 17.9844 10.5136C18.0304 10.3979 18.053 10.2742 18.0511 10.1497C18.0491 10.0251 18.0226 9.90221 17.973 9.78797C17.9234 9.67374 17.8517 9.57044 17.762 9.48402C17.673 9.3968 17.5676 9.32804 17.4519 9.2817C17.3363 9.23537 17.2126 9.21236 17.088 9.21402ZM21.088 9.21402V9.21702C20.9634 9.21891 20.8404 9.24541 20.7261 9.29501C20.6118 9.34461 20.5085 9.41632 20.422 9.50602L18.613 11.363C18.5261 11.4523 18.4578 11.5578 18.4118 11.6736C18.3659 11.7894 18.3433 11.9131 18.3454 12.0376C18.3474 12.1621 18.374 12.285 18.4237 12.3992C18.4734 12.5134 18.5452 12.6167 18.635 12.703C18.7241 12.79 18.8295 12.8585 18.9452 12.9046C19.0609 12.9507 19.1846 12.9735 19.3091 12.9716C19.4337 12.9698 19.5566 12.9433 19.6709 12.8938C19.7851 12.8443 19.8885 12.7726 19.975 12.683L21.783 10.824C21.8699 10.7348 21.9383 10.6293 21.9844 10.5136C22.0304 10.3979 22.053 10.2742 22.0511 10.1497C22.0491 10.0251 22.0226 9.90221 21.973 9.78797C21.9234 9.67374 21.8517 9.57044 21.762 9.48402C21.673 9.3968 21.5676 9.32804 21.4519 9.2817C21.3363 9.23537 21.2126 9.21236 21.088 9.21402ZM25.088 9.21402V9.21702C24.9634 9.21891 24.8404 9.24541 24.7261 9.29501C24.6118 9.34461 24.5085 9.41632 24.422 9.50602L22.613 11.363C22.5261 11.4523 22.4578 11.5578 22.4118 11.6736C22.3659 11.7894 22.3433 11.9131 22.3454 12.0376C22.3474 12.1621 22.374 12.285 22.4237 12.3992C22.4734 12.5134 22.5452 12.6167 22.635 12.703C22.7241 12.79 22.8295 12.8585 22.9452 12.9046C23.0609 12.9507 23.1846 12.9735 23.3091 12.9716C23.4337 12.9698 23.5566 12.9433 23.6709 12.8938C23.7851 12.8443 23.8885 12.7726 23.975 12.683L25.783 10.824C25.8699 10.7348 25.9383 10.6293 25.9844 10.5136C26.0304 10.3979 26.053 10.2742 26.0511 10.1497C26.0491 10.0251 26.0226 9.90221 25.973 9.78797C25.9234 9.67374 25.8517 9.57044 25.762 9.48402C25.673 9.3968 25.5676 9.32804 25.4519 9.2817C25.3363 9.23537 25.2126 9.21236 25.088 9.21402ZM29.088 9.21402V9.21702C28.9634 9.21891 28.8404 9.24541 28.7261 9.29501C28.6118 9.34461 28.5085 9.41632 28.422 9.50602L26.613 11.363C26.5261 11.4523 26.4578 11.5578 26.4118 11.6736C26.3659 11.7894 26.3433 11.9131 26.3454 12.0376C26.3474 12.1621 26.374 12.285 26.4237 12.3992C26.4734 12.5134 26.5452 12.6167 26.635 12.703C26.7241 12.79 26.8295 12.8585 26.9452 12.9046C27.0609 12.9507 27.1846 12.9735 27.3091 12.9716C27.4337 12.9698 27.5566 12.9433 27.6709 12.8938C27.7851 12.8443 27.8885 12.7726 27.975 12.683L29.783 10.824C29.8699 10.7348 29.9383 10.6293 29.9844 10.5136C30.0304 10.3979 30.053 10.2742 30.0511 10.1497C30.0491 10.0251 30.0226 9.90221 29.973 9.78797C29.9234 9.67374 29.8517 9.57044 29.762 9.48402C29.673 9.3968 29.5676 9.32804 29.4519 9.2817C29.3363 9.23537 29.2126 9.21236 29.088 9.21402ZM33.088 9.21402V9.21702C32.9634 9.21891 32.8404 9.24541 32.7261 9.29501C32.6118 9.34461 32.5085 9.41632 32.422 9.50602L30.613 11.363C30.5261 11.4523 30.4578 11.5578 30.4118 11.6736C30.3659 11.7894 30.3433 11.9131 30.3454 12.0376C30.3474 12.1621 30.374 12.285 30.4237 12.3992C30.4734 12.5134 30.5452 12.6167 30.635 12.703C30.7241 12.79 30.8295 12.8585 30.9452 12.9046C31.0609 12.9507 31.1846 12.9735 31.3091 12.9716C31.4337 12.9698 31.5566 12.9433 31.6709 12.8938C31.7851 12.8443 31.8885 12.7726 31.975 12.683L33.783 10.824C33.8699 10.7348 33.9383 10.6293 33.9844 10.5136C34.0304 10.3979 34.053 10.2742 34.0511 10.1497C34.0491 10.0251 34.0226 9.90221 33.973 9.78797C33.9234 9.67374 33.8517 9.57044 33.762 9.48402C33.673 9.3968 33.5676 9.32804 33.4519 9.2817C33.3363 9.23537 33.2126 9.21236 33.088 9.21402ZM17.152 9.69702V9.70002C17.2432 9.70833 17.3293 9.74545 17.398 9.80602C17.805 10.167 17.324 10.591 17.148 10.774L16.283 11.679C15.676 12.31 15.412 12.737 14.988 12.329C14.628 11.956 14.945 11.733 15.633 11.034L16.498 10.132C16.703 9.93102 16.916 9.68702 17.152 9.69802V9.69702ZM21.152 9.69702V9.70002C21.2432 9.70833 21.3293 9.74545 21.398 9.80602C21.805 10.167 21.324 10.591 21.148 10.774L20.283 11.679C19.676 12.31 19.412 12.737 18.988 12.329C18.628 11.956 18.945 11.733 19.633 11.034L20.498 10.132C20.703 9.93102 20.916 9.68702 21.152 9.69802V9.69702ZM25.152 9.69702V9.70002C25.2432 9.70833 25.3293 9.74545 25.398 9.80602C25.805 10.167 25.324 10.591 25.148 10.774L24.283 11.679C23.676 12.31 23.412 12.737 22.988 12.329C22.628 11.956 22.945 11.733 23.633 11.034L24.498 10.132C24.703 9.93102 24.916 9.68702 25.152 9.69802V9.69702ZM29.152 9.69702V9.70002C29.2432 9.70833 29.3293 9.74545 29.398 9.80602C29.805 10.167 29.324 10.591 29.148 10.774L28.283 11.679C27.676 12.31 27.412 12.737 26.988 12.329C26.628 11.956 26.945 11.733 27.633 11.034L28.498 10.132C28.703 9.93102 28.916 9.68702 29.152 9.69802V9.69702ZM33.152 9.69702V9.70002C33.2432 9.70833 33.3293 9.74545 33.398 9.80602C33.805 10.167 33.324 10.591 33.148 10.774L32.283 11.679C31.676 12.31 31.412 12.737 30.988 12.329C30.628 11.956 30.945 11.733 31.633 11.034L32.498 10.132C32.703 9.93102 32.916 9.68702 33.152 9.69802V9.69702ZM13.795 14.981C13.7803 14.9811 13.7657 14.9842 13.7522 14.9899C13.7387 14.9957 13.7264 15.004 13.7161 15.0145C13.7058 15.025 13.6976 15.0374 13.6921 15.0511C13.6866 15.0647 13.6838 15.0793 13.684 15.094C13.684 15.155 13.734 15.206 13.794 15.207C13.857 15.207 13.907 15.157 13.908 15.094C13.9082 15.0791 13.9055 15.0642 13.8999 15.0503C13.8944 15.0364 13.8861 15.0238 13.8755 15.0132C13.865 15.0025 13.8525 14.9941 13.8386 14.9884C13.8248 14.9827 13.8099 14.9799 13.795 14.98V14.981ZM14.357 14.981C14.3271 14.9813 14.2985 14.9933 14.2774 15.0144C14.2562 15.0355 14.2442 15.0641 14.244 15.094C14.244 15.155 14.296 15.207 14.357 15.207C14.419 15.207 14.468 15.155 14.469 15.094V15.074C14.4651 15.0473 14.4515 15.023 14.4309 15.0057C14.4102 14.9884 14.3839 14.9792 14.357 14.98V14.981ZM14.92 14.981C14.9051 14.9809 14.8903 14.9837 14.8766 14.9893C14.8628 14.995 14.8503 15.0033 14.8398 15.0138C14.8293 15.0243 14.8209 15.0368 14.8153 15.0506C14.8097 15.0644 14.8068 15.0791 14.807 15.094C14.807 15.156 14.857 15.208 14.92 15.207C14.981 15.207 15.03 15.155 15.031 15.094V15.074C15.0271 15.0475 15.0137 15.0234 14.9932 15.0061C14.9728 14.9887 14.9468 14.9795 14.92 14.98V14.981ZM15.482 14.981C15.4671 14.9809 15.4523 14.9837 15.4386 14.9893C15.4248 14.995 15.4123 15.0033 15.4018 15.0138C15.3913 15.0243 15.3829 15.0368 15.3773 15.0506C15.3717 15.0644 15.3688 15.0791 15.369 15.094C15.369 15.156 15.42 15.208 15.482 15.207C15.544 15.207 15.593 15.155 15.594 15.094V15.086C15.5924 15.0574 15.58 15.0304 15.5591 15.0107C15.5383 14.991 15.5107 14.98 15.482 14.98V14.981ZM16.045 14.981C16.0301 14.9809 16.0153 14.9837 16.0016 14.9893C15.9878 14.995 15.9753 15.0033 15.9648 15.0138C15.9543 15.0243 15.9459 15.0368 15.9403 15.0506C15.9347 15.0644 15.9318 15.0791 15.932 15.094C15.932 15.156 15.982 15.208 16.045 15.207C16.106 15.207 16.155 15.155 16.156 15.094V15.086C16.1545 15.0575 16.1421 15.0307 16.1215 15.011C16.1009 14.9913 16.0735 14.9802 16.045 14.98V14.981ZM16.607 14.981C16.5921 14.9809 16.5773 14.9837 16.5636 14.9893C16.5498 14.995 16.5373 15.0033 16.5268 15.0138C16.5163 15.0243 16.5079 15.0368 16.5023 15.0506C16.4967 15.0644 16.4938 15.0791 16.494 15.094C16.494 15.156 16.545 15.208 16.607 15.207C16.669 15.207 16.718 15.155 16.719 15.094V15.086C16.7174 15.0574 16.705 15.0304 16.6841 15.0107C16.6633 14.991 16.6357 14.98 16.607 14.98V14.981ZM17.168 14.981C17.1533 14.9811 17.1387 14.9842 17.1252 14.9899C17.1117 14.9957 17.0994 15.004 17.0891 15.0145C17.0788 15.025 17.0706 15.0374 17.0651 15.0511C17.0596 15.0647 17.0568 15.0793 17.057 15.094C17.057 15.155 17.107 15.207 17.168 15.207C17.1979 15.2068 17.2265 15.1948 17.2476 15.1736C17.2687 15.1525 17.2807 15.1239 17.281 15.094V15.086C17.2794 15.0572 17.2668 15.0301 17.2458 15.0103C17.2247 14.9906 17.1968 14.9797 17.168 14.98V14.981ZM17.731 14.981C17.7162 14.981 17.7015 14.9839 17.6879 14.9896C17.6742 14.9953 17.6618 15.0037 17.6514 15.0142C17.641 15.0247 17.6328 15.0371 17.6272 15.0508C17.6216 15.0646 17.6188 15.0792 17.619 15.094C17.619 15.155 17.669 15.207 17.73 15.207C17.76 15.207 17.7889 15.1951 17.8102 15.174C17.8316 15.1528 17.8437 15.1241 17.844 15.094V15.086C17.8424 15.057 17.8297 15.0298 17.8084 15.01C17.7871 14.9902 17.759 14.9795 17.73 14.98L17.731 14.981ZM18.293 14.981C18.2783 14.9811 18.2637 14.9842 18.2502 14.9899C18.2367 14.9957 18.2244 15.004 18.2141 15.0145C18.2038 15.025 18.1956 15.0374 18.1901 15.0511C18.1846 15.0647 18.1818 15.0793 18.182 15.094C18.182 15.155 18.232 15.207 18.293 15.207C18.3229 15.2068 18.3515 15.1948 18.3726 15.1736C18.3937 15.1525 18.4057 15.1239 18.406 15.094V15.086C18.4044 15.0572 18.3918 15.0301 18.3708 15.0103C18.3497 14.9906 18.3218 14.9797 18.293 14.98V14.981ZM18.856 14.981C18.8412 14.981 18.8265 14.9839 18.8129 14.9896C18.7992 14.9953 18.7868 15.0037 18.7764 15.0142C18.766 15.0247 18.7578 15.0371 18.7522 15.0508C18.7466 15.0646 18.7438 15.0792 18.744 15.094C18.744 15.155 18.794 15.207 18.855 15.207C18.917 15.207 18.966 15.155 18.967 15.094V15.074C18.9631 15.0475 18.9497 15.0234 18.9292 15.0061C18.9088 14.9887 18.8828 14.9795 18.856 14.98V14.981ZM19.418 14.981C19.4031 14.9809 19.3883 14.9837 19.3746 14.9893C19.3608 14.995 19.3483 15.0033 19.3378 15.0138C19.3273 15.0243 19.3189 15.0368 19.3133 15.0506C19.3077 15.0644 19.3048 15.0791 19.305 15.094C19.305 15.156 19.356 15.208 19.418 15.207C19.479 15.207 19.528 15.155 19.529 15.094V15.086C19.5274 15.0575 19.5151 15.0307 19.4945 15.011C19.4739 14.9913 19.4465 14.9802 19.418 14.98V14.981ZM19.981 14.981C19.966 14.9808 19.9512 14.9835 19.9373 14.9891C19.9234 14.9946 19.9108 15.0029 19.9001 15.0135C19.8895 15.024 19.8811 15.0365 19.8754 15.0504C19.8697 15.0642 19.8668 15.0791 19.867 15.094C19.867 15.156 19.919 15.208 19.98 15.207C20.042 15.207 20.091 15.155 20.092 15.094V15.086C20.0904 15.0575 20.0781 15.0307 20.0575 15.011C20.0369 14.9913 20.0095 14.9802 19.981 14.98V14.981ZM20.543 14.981C20.5281 14.9809 20.5133 14.9837 20.4996 14.9893C20.4858 14.995 20.4733 15.0033 20.4628 15.0138C20.4523 15.0243 20.4439 15.0368 20.4383 15.0506C20.4327 15.0644 20.4298 15.0791 20.43 15.094C20.43 15.156 20.481 15.208 20.543 15.207C20.604 15.207 20.653 15.155 20.654 15.094V15.086C20.6524 15.0575 20.6401 15.0307 20.6195 15.011C20.5989 14.9913 20.5715 14.9802 20.543 14.98V14.981ZM21.106 14.981C21.091 14.9808 21.0762 14.9835 21.0623 14.9891C21.0484 14.9946 21.0358 15.0029 21.0251 15.0135C21.0145 15.024 21.0061 15.0365 21.0004 15.0504C20.9947 15.0642 20.9918 15.0791 20.992 15.094C20.992 15.156 21.044 15.208 21.105 15.207C21.167 15.207 21.216 15.155 21.217 15.094V15.086C21.2154 15.0575 21.2031 15.0307 21.1825 15.011C21.1619 14.9913 21.1345 14.9802 21.106 14.98V14.981ZM21.666 14.981C21.6513 14.9811 21.6367 14.9842 21.6232 14.9899C21.6097 14.9957 21.5974 15.004 21.5871 15.0145C21.5768 15.025 21.5686 15.0374 21.5631 15.0511C21.5576 15.0647 21.5548 15.0793 21.555 15.094C21.555 15.155 21.605 15.207 21.666 15.207C21.6959 15.2068 21.7245 15.1948 21.7456 15.1736C21.7667 15.1525 21.7787 15.1239 21.779 15.094V15.086C21.7774 15.0572 21.7648 15.0301 21.7438 15.0103C21.7227 14.9906 21.6948 14.9797 21.666 14.98V14.981ZM22.229 14.981C22.2142 14.981 22.1995 14.9839 22.1859 14.9896C22.1722 14.9953 22.1598 15.0037 22.1494 15.0142C22.139 15.0247 22.1308 15.0371 22.1252 15.0508C22.1196 15.0646 22.1168 15.0792 22.117 15.094C22.117 15.155 22.167 15.207 22.228 15.207C22.258 15.207 22.2869 15.1951 22.3082 15.174C22.3296 15.1528 22.3417 15.1241 22.342 15.094V15.086C22.3404 15.0572 22.3278 15.0301 22.3068 15.0103C22.2857 14.9906 22.2578 14.9797 22.229 14.98V14.981ZM22.791 14.981C22.7763 14.9811 22.7617 14.9842 22.7482 14.9899C22.7347 14.9957 22.7224 15.004 22.7121 15.0145C22.7018 15.025 22.6936 15.0374 22.6881 15.0511C22.6826 15.0647 22.6798 15.0793 22.68 15.094C22.68 15.155 22.73 15.206 22.791 15.207C22.853 15.207 22.904 15.157 22.904 15.094C22.9042 15.0791 22.9015 15.0642 22.8959 15.0503C22.8904 15.0364 22.8821 15.0238 22.8715 15.0132C22.861 15.0025 22.8485 14.9941 22.8346 14.9884C22.8208 14.9827 22.8059 14.9799 22.791 14.98V14.981ZM23.354 14.981C23.3392 14.981 23.3245 14.9839 23.3109 14.9896C23.2972 14.9953 23.2848 15.0037 23.2744 15.0142C23.264 15.0247 23.2558 15.0371 23.2502 15.0508C23.2446 15.0646 23.2418 15.0792 23.242 15.094C23.242 15.155 23.292 15.207 23.353 15.207C23.3827 15.2065 23.411 15.1944 23.4319 15.1733C23.4529 15.1522 23.4647 15.1237 23.465 15.094V15.074C23.4609 15.0476 23.4474 15.0236 23.427 15.0063C23.4066 14.989 23.3807 14.9797 23.354 14.98V14.981ZM23.916 14.981C23.9011 14.9809 23.8863 14.9837 23.8726 14.9893C23.8588 14.995 23.8463 15.0033 23.8358 15.0138C23.8253 15.0243 23.8169 15.0368 23.8113 15.0506C23.8057 15.0644 23.8028 15.0791 23.803 15.094C23.803 15.156 23.854 15.208 23.916 15.207C23.977 15.207 24.026 15.155 24.027 15.094V15.074C24.0231 15.0475 24.0097 15.0234 23.9892 15.0061C23.9688 14.9887 23.9428 14.9795 23.916 14.98V14.981ZM24.479 14.981C24.464 14.9808 24.4492 14.9835 24.4353 14.9891C24.4214 14.9946 24.4088 15.0029 24.3981 15.0135C24.3875 15.024 24.3791 15.0365 24.3734 15.0504C24.3677 15.0642 24.3648 15.0791 24.365 15.094C24.365 15.156 24.417 15.208 24.479 15.207C24.539 15.207 24.589 15.155 24.589 15.094V15.086C24.5875 15.0577 24.5753 15.031 24.5549 15.0114C24.5344 14.9917 24.5073 14.9805 24.479 14.98V14.981ZM25.041 14.981C25.0261 14.9809 25.0113 14.9837 24.9976 14.9893C24.9838 14.995 24.9713 15.0033 24.9608 15.0138C24.9503 15.0243 24.9419 15.0368 24.9363 15.0506C24.9307 15.0644 24.9278 15.0791 24.928 15.094C24.928 15.156 24.979 15.208 25.041 15.207C25.102 15.207 25.151 15.155 25.152 15.094V15.086C25.1505 15.0575 25.1381 15.0307 25.1175 15.011C25.0969 14.9913 25.0695 14.9802 25.041 14.98V14.981ZM25.601 14.981C25.5714 14.9815 25.5433 14.9937 25.5227 15.0149C25.5021 15.036 25.4907 15.0645 25.491 15.094C25.491 15.155 25.541 15.207 25.601 15.207C25.631 15.207 25.6599 15.1951 25.6812 15.174C25.7026 15.1528 25.7147 15.1241 25.715 15.094V15.086C25.7134 15.0572 25.7008 15.0301 25.6798 15.0103C25.6587 14.9906 25.6308 14.9797 25.602 14.98L25.601 14.981ZM26.164 14.981C26.1493 14.9811 26.1347 14.9842 26.1212 14.9899C26.1077 14.9957 26.0954 15.004 26.0851 15.0145C26.0748 15.025 26.0666 15.0374 26.0611 15.0511C26.0556 15.0647 26.0528 15.0793 26.053 15.094C26.053 15.155 26.103 15.207 26.164 15.207C26.1939 15.2068 26.2225 15.1948 26.2436 15.1736C26.2647 15.1525 26.2767 15.1239 26.277 15.094V15.086C26.2754 15.0572 26.2628 15.0301 26.2418 15.0103C26.2207 14.9906 26.1928 14.9797 26.164 14.98V14.981ZM26.727 14.981C26.7122 14.981 26.6975 14.9839 26.6839 14.9896C26.6702 14.9953 26.6578 15.0037 26.6474 15.0142C26.637 15.0247 26.6288 15.0371 26.6232 15.0508C26.6176 15.0646 26.6148 15.0792 26.615 15.094C26.615 15.155 26.665 15.207 26.727 15.207C26.7569 15.2068 26.7855 15.1948 26.8066 15.1736C26.8277 15.1525 26.8397 15.1239 26.84 15.094V15.086C26.8384 15.0572 26.8258 15.0301 26.8048 15.0103C26.7837 14.9906 26.7558 14.9797 26.727 14.98V14.981ZM27.289 14.981C27.2743 14.9811 27.2597 14.9842 27.2462 14.9899C27.2327 14.9957 27.2204 15.004 27.2101 15.0145C27.1998 15.025 27.1916 15.0374 27.1861 15.0511C27.1806 15.0647 27.1778 15.0793 27.178 15.094C27.178 15.155 27.228 15.206 27.289 15.207C27.351 15.207 27.402 15.157 27.402 15.094C27.4022 15.0791 27.3995 15.0642 27.3939 15.0503C27.3884 15.0364 27.3801 15.0238 27.3695 15.0132C27.359 15.0025 27.3464 14.9941 27.3326 14.9884C27.3188 14.9827 27.3039 14.9799 27.289 14.98V14.981ZM27.852 14.981C27.8372 14.981 27.8225 14.9839 27.8089 14.9896C27.7952 14.9953 27.7828 15.0037 27.7724 15.0142C27.762 15.0247 27.7538 15.0371 27.7482 15.0508C27.7426 15.0646 27.7398 15.0792 27.74 15.094C27.74 15.155 27.79 15.207 27.852 15.207C27.912 15.207 27.962 15.155 27.962 15.094C27.964 15.086 27.964 15.082 27.962 15.074C27.9581 15.0477 27.9448 15.0237 27.9246 15.0064C27.9044 14.9891 27.8786 14.9797 27.852 14.98V14.981ZM28.414 14.981C28.3991 14.9809 28.3843 14.9837 28.3706 14.9893C28.3568 14.995 28.3443 15.0033 28.3338 15.0138C28.3233 15.0243 28.3149 15.0368 28.3093 15.0506C28.3037 15.0644 28.3008 15.0791 28.301 15.094C28.301 15.156 28.352 15.208 28.414 15.207C28.475 15.207 28.524 15.155 28.525 15.094V15.086C28.5235 15.0577 28.5113 15.031 28.4909 15.0114C28.4704 14.9917 28.4433 14.9805 28.415 14.98L28.414 14.981ZM28.977 14.981C28.962 14.9808 28.9472 14.9835 28.9333 14.9891C28.9194 14.9946 28.9068 15.0029 28.8961 15.0135C28.8855 15.024 28.8771 15.0365 28.8714 15.0504C28.8657 15.0642 28.8628 15.0791 28.863 15.094C28.863 15.156 28.915 15.208 28.977 15.207C29.037 15.207 29.087 15.155 29.087 15.094V15.086C29.0855 15.0577 29.0733 15.031 29.0529 15.0114C29.0324 14.9917 29.0053 14.9805 28.977 14.98V14.981ZM29.539 14.981C29.5241 14.9809 29.5093 14.9837 29.4956 14.9893C29.4818 14.995 29.4693 15.0033 29.4588 15.0138C29.4483 15.0243 29.4399 15.0368 29.4343 15.0506C29.4287 15.0644 29.4258 15.0791 29.426 15.094C29.426 15.156 29.477 15.208 29.539 15.207C29.6 15.207 29.649 15.155 29.65 15.094V15.086C29.6485 15.0577 29.6363 15.031 29.6159 15.0114C29.5954 14.9917 29.5683 14.9805 29.54 14.98L29.539 14.981ZM30.099 14.981C30.0694 14.9815 30.0413 14.9937 30.0207 15.0149C30.0001 15.036 29.9887 15.0645 29.989 15.094C29.989 15.155 30.038 15.207 30.099 15.207C30.129 15.207 30.1579 15.1951 30.1792 15.174C30.2006 15.1528 30.2127 15.1241 30.213 15.094V15.086C30.2114 15.0572 30.1988 15.0301 30.1778 15.0103C30.1567 14.9906 30.1288 14.9797 30.1 14.98L30.099 14.981ZM30.662 14.981C30.6473 14.9811 30.6327 14.9842 30.6192 14.9899C30.6057 14.9957 30.5934 15.004 30.5831 15.0145C30.5728 15.025 30.5646 15.0374 30.5591 15.0511C30.5536 15.0647 30.5508 15.0793 30.551 15.094C30.551 15.155 30.601 15.207 30.662 15.207C30.6919 15.2068 30.7205 15.1948 30.7416 15.1736C30.7627 15.1525 30.7747 15.1239 30.775 15.094V15.086C30.7734 15.0572 30.7608 15.0301 30.7398 15.0103C30.7187 14.9906 30.6908 14.9797 30.662 14.98V14.981ZM31.225 14.981C31.2102 14.981 31.1955 14.9839 31.1819 14.9896C31.1682 14.9953 31.1558 15.0037 31.1454 15.0142C31.135 15.0247 31.1268 15.0371 31.1212 15.0508C31.1156 15.0646 31.1128 15.0792 31.113 15.094C31.113 15.155 31.163 15.207 31.225 15.207C31.2549 15.2068 31.2835 15.1948 31.3046 15.1736C31.3257 15.1525 31.3377 15.1239 31.338 15.094V15.086C31.3364 15.0572 31.3238 15.0301 31.3028 15.0103C31.2817 14.9906 31.2538 14.9797 31.225 14.98V14.981ZM31.787 14.981C31.7723 14.9811 31.7577 14.9842 31.7442 14.9899C31.7307 14.9957 31.7184 15.004 31.7081 15.0145C31.6978 15.025 31.6896 15.0374 31.6841 15.0511C31.6786 15.0647 31.6758 15.0793 31.676 15.094C31.676 15.155 31.726 15.207 31.787 15.207C31.848 15.207 31.897 15.155 31.898 15.094V15.074C31.8941 15.0477 31.8808 15.0237 31.8606 15.0064C31.8404 14.9891 31.8146 14.9797 31.788 14.98L31.787 14.981ZM32.35 14.981C32.335 14.9808 32.3202 14.9835 32.3063 14.9891C32.2924 14.9946 32.2798 15.0029 32.2691 15.0135C32.2585 15.024 32.2501 15.0365 32.2444 15.0504C32.2387 15.0642 32.2358 15.0791 32.236 15.094C32.236 15.156 32.288 15.208 32.35 15.207C32.41 15.207 32.46 15.155 32.46 15.094C32.462 15.086 32.462 15.082 32.46 15.074C32.4561 15.0477 32.4428 15.0237 32.4226 15.0064C32.4024 14.9891 32.3766 14.9797 32.35 14.98V14.981ZM32.912 14.981C32.8971 14.9809 32.8823 14.9837 32.8686 14.9893C32.8548 14.995 32.8423 15.0033 32.8318 15.0138C32.8213 15.0243 32.8129 15.0368 32.8073 15.0506C32.8017 15.0644 32.7988 15.0791 32.799 15.094C32.799 15.156 32.85 15.208 32.912 15.207C32.973 15.207 33.022 15.155 33.023 15.094V15.086C33.0215 15.0577 33.0093 15.031 32.9889 15.0114C32.9684 14.9917 32.9413 14.9805 32.913 14.98L32.912 14.981ZM33.475 14.981C33.46 14.9808 33.4452 14.9835 33.4313 14.9891C33.4174 14.9946 33.4048 15.0029 33.3941 15.0135C33.3835 15.024 33.3751 15.0365 33.3694 15.0504C33.3637 15.0642 33.3608 15.0791 33.361 15.094C33.361 15.156 33.413 15.208 33.475 15.207C33.5043 15.206 33.5322 15.1937 33.5527 15.1726C33.5732 15.1516 33.5847 15.1234 33.585 15.094V15.086C33.5835 15.0577 33.5713 15.031 33.5509 15.0114C33.5304 14.9917 33.5033 14.9805 33.475 14.98V14.981ZM34.037 14.981C34.0221 14.9809 34.0073 14.9837 33.9936 14.9893C33.9798 14.995 33.9673 15.0033 33.9568 15.0138C33.9463 15.0243 33.9379 15.0368 33.9323 15.0506C33.9267 15.0644 33.9238 15.0791 33.924 15.094C33.924 15.156 33.975 15.208 34.037 15.207C34.0665 15.2062 34.0946 15.194 34.1153 15.1729C34.136 15.1519 34.1477 15.1236 34.148 15.094V15.086C34.1465 15.0577 34.1343 15.031 34.1139 15.0114C34.0934 14.9917 34.0663 14.9805 34.038 14.98L34.037 14.981ZM34.597 14.981C34.5674 14.9815 34.5393 14.9937 34.5187 15.0149C34.4981 15.036 34.4867 15.0645 34.487 15.094C34.487 15.155 34.536 15.207 34.597 15.207C34.627 15.207 34.6559 15.1951 34.6772 15.174C34.6986 15.1528 34.7107 15.1241 34.711 15.094V15.086C34.7094 15.0572 34.6968 15.0301 34.6758 15.0103C34.6547 14.9906 34.6268 14.9797 34.598 14.98L34.597 14.981ZM17.087 17.883C16.9626 17.885 16.8398 17.9116 16.7257 17.9612C16.6115 18.0108 16.5083 18.0824 16.422 18.172L14.613 20.029C14.5261 20.1183 14.4578 20.2238 14.4118 20.3396C14.3659 20.4554 14.3433 20.5791 14.3454 20.7036C14.3474 20.8281 14.374 20.951 14.4237 21.0652C14.4734 21.1794 14.5452 21.2827 14.635 21.369C14.7239 21.4562 14.8292 21.5249 14.9448 21.5713C15.0604 21.6177 15.184 21.6407 15.3085 21.6391C15.433 21.6375 15.556 21.6114 15.6704 21.5621C15.7848 21.5128 15.8883 21.4414 15.975 21.352L17.783 19.492C17.8699 19.4028 17.9383 19.2973 17.9844 19.1816C18.0304 19.0659 18.053 18.9422 18.0511 18.8176C18.0491 18.6931 18.0226 18.5702 17.973 18.456C17.9234 18.3417 17.8517 18.2384 17.762 18.152C17.673 18.0648 17.5676 17.996 17.4519 17.9497C17.3363 17.9034 17.2126 17.8804 17.088 17.882L17.087 17.883ZM21.087 17.883C20.9626 17.885 20.8398 17.9116 20.7257 17.9612C20.6115 18.0108 20.5083 18.0824 20.422 18.172L18.613 20.029C18.5261 20.1183 18.4578 20.2238 18.4118 20.3396C18.3659 20.4554 18.3433 20.5791 18.3454 20.7036C18.3474 20.8281 18.374 20.951 18.4237 21.0652C18.4734 21.1794 18.5452 21.2827 18.635 21.369C18.7239 21.4562 18.8292 21.5249 18.9448 21.5713C19.0604 21.6177 19.184 21.6407 19.3085 21.6391C19.433 21.6375 19.556 21.6114 19.6704 21.5621C19.7848 21.5128 19.8883 21.4414 19.975 21.352L21.783 19.492C21.8699 19.4028 21.9383 19.2973 21.9844 19.1816C22.0304 19.0659 22.053 18.9422 22.0511 18.8176C22.0491 18.6931 22.0226 18.5702 21.973 18.456C21.9234 18.3417 21.8517 18.2384 21.762 18.152C21.673 18.0648 21.5676 17.996 21.4519 17.9497C21.3363 17.9034 21.2126 17.8804 21.088 17.882L21.087 17.883ZM25.087 17.883C24.9626 17.885 24.8398 17.9116 24.7257 17.9612C24.6115 18.0108 24.5083 18.0824 24.422 18.172L22.613 20.029C22.5261 20.1183 22.4578 20.2238 22.4118 20.3396C22.3659 20.4554 22.3433 20.5791 22.3454 20.7036C22.3474 20.8281 22.374 20.951 22.4237 21.0652C22.4734 21.1794 22.5452 21.2827 22.635 21.369C22.7239 21.4562 22.8292 21.5249 22.9448 21.5713C23.0604 21.6177 23.184 21.6407 23.3085 21.6391C23.433 21.6375 23.556 21.6114 23.6704 21.5621C23.7848 21.5128 23.8883 21.4414 23.975 21.352L25.783 19.492C25.8699 19.4028 25.9383 19.2973 25.9844 19.1816C26.0304 19.0659 26.053 18.9422 26.0511 18.8176C26.0491 18.6931 26.0226 18.5702 25.973 18.456C25.9234 18.3417 25.8517 18.2384 25.762 18.152C25.673 18.0648 25.5676 17.996 25.4519 17.9497C25.3363 17.9034 25.2126 17.8804 25.088 17.882L25.087 17.883ZM29.087 17.883C28.9626 17.885 28.8398 17.9116 28.7257 17.9612C28.6115 18.0108 28.5083 18.0824 28.422 18.172L26.613 20.029C26.5261 20.1183 26.4578 20.2238 26.4118 20.3396C26.3659 20.4554 26.3433 20.5791 26.3454 20.7036C26.3474 20.8281 26.374 20.951 26.4237 21.0652C26.4734 21.1794 26.5452 21.2827 26.635 21.369C26.7239 21.4562 26.8292 21.5249 26.9448 21.5713C27.0604 21.6177 27.184 21.6407 27.3085 21.6391C27.433 21.6375 27.556 21.6114 27.6704 21.5621C27.7848 21.5128 27.8883 21.4414 27.975 21.352L29.783 19.492C29.8699 19.4028 29.9383 19.2973 29.9844 19.1816C30.0304 19.0659 30.053 18.9422 30.0511 18.8176C30.0491 18.6931 30.0226 18.5702 29.973 18.456C29.9234 18.3417 29.8517 18.2384 29.762 18.152C29.673 18.0648 29.5676 17.996 29.4519 17.9497C29.3363 17.9034 29.2126 17.8804 29.088 17.882L29.087 17.883ZM33.087 17.883C32.9626 17.885 32.8398 17.9116 32.7257 17.9612C32.6115 18.0108 32.5083 18.0824 32.422 18.172L30.613 20.029C30.5261 20.1183 30.4578 20.2238 30.4118 20.3396C30.3659 20.4554 30.3433 20.5791 30.3454 20.7036C30.3474 20.8281 30.374 20.951 30.4237 21.0652C30.4734 21.1794 30.5452 21.2827 30.635 21.369C30.7239 21.4562 30.8292 21.5249 30.9448 21.5713C31.0604 21.6177 31.184 21.6407 31.3085 21.6391C31.433 21.6375 31.556 21.6114 31.6704 21.5621C31.7848 21.5128 31.8883 21.4414 31.975 21.352L33.783 19.492C33.8699 19.4028 33.9383 19.2973 33.9844 19.1816C34.0304 19.0659 34.053 18.9422 34.0511 18.8176C34.0491 18.6931 34.0226 18.5702 33.973 18.456C33.9234 18.3417 33.8517 18.2384 33.762 18.152C33.673 18.0648 33.5676 17.996 33.4519 17.9497C33.3363 17.9034 33.2126 17.8804 33.088 17.882L33.087 17.883ZM17.152 18.363V18.365C17.2432 18.3733 17.3293 18.4105 17.398 18.471C17.805 18.832 17.324 19.256 17.148 19.439L16.283 20.344C15.676 20.975 15.412 21.402 14.988 20.994C14.628 20.621 14.945 20.398 15.633 19.699L16.498 18.797C16.703 18.596 16.916 18.352 17.152 18.363ZM21.152 18.363V18.365C21.2432 18.3733 21.3293 18.4105 21.398 18.471C21.805 18.832 21.324 19.256 21.148 19.439L20.283 20.344C19.676 20.975 19.412 21.402 18.988 20.994C18.628 20.621 18.945 20.398 19.633 19.699L20.498 18.797C20.703 18.596 20.916 18.352 21.152 18.363ZM25.152 18.363V18.365C25.2432 18.3733 25.3293 18.4105 25.398 18.471C25.805 18.832 25.324 19.256 25.148 19.439L24.283 20.344C23.676 20.975 23.412 21.402 22.988 20.994C22.628 20.621 22.945 20.398 23.633 19.699L24.498 18.797C24.703 18.596 24.916 18.352 25.152 18.363ZM29.152 18.363V18.365C29.2432 18.3733 29.3293 18.4105 29.398 18.471C29.805 18.832 29.324 19.256 29.148 19.439L28.283 20.344C27.676 20.975 27.412 21.402 26.988 20.994C26.628 20.621 26.945 20.398 27.633 19.699L28.498 18.797C28.703 18.596 28.916 18.352 29.152 18.363ZM33.152 18.363V18.365C33.2432 18.3733 33.3293 18.4105 33.398 18.471C33.805 18.832 33.324 19.256 33.148 19.439L32.283 20.344C31.676 20.975 31.412 21.402 30.988 20.994C30.628 20.621 30.945 20.398 31.633 19.699L32.498 18.797C32.703 18.596 32.916 18.352 33.152 18.363ZM13.795 23.98C13.7802 23.9801 13.7656 23.9832 13.752 23.989C13.7384 23.9948 13.726 24.0033 13.7157 24.0139C13.7054 24.0245 13.6973 24.037 13.6918 24.0508C13.6864 24.0645 13.6837 24.0792 13.684 24.094C13.684 24.155 13.734 24.206 13.794 24.207C13.857 24.207 13.907 24.157 13.908 24.094C13.9082 24.0791 13.9055 24.0642 13.8999 24.0503C13.8944 24.0364 13.8861 24.0238 13.8755 24.0132C13.865 24.0025 13.8525 23.9941 13.8386 23.9884C13.8248 23.9827 13.8099 23.9799 13.795 23.98ZM14.357 23.98C14.3269 23.9803 14.2982 23.9924 14.277 24.0138C14.2558 24.0351 14.244 24.064 14.244 24.094C14.244 24.155 14.296 24.207 14.357 24.207C14.419 24.207 14.468 24.155 14.469 24.094V24.074C14.4651 24.0473 14.4515 24.023 14.4309 24.0057C14.4102 23.9884 14.3839 23.9792 14.357 23.98ZM14.92 23.98C14.905 23.9799 14.8902 23.9827 14.8763 23.9884C14.8625 23.9941 14.8499 24.0025 14.8394 24.0132C14.8289 24.0238 14.8206 24.0364 14.815 24.0503C14.8094 24.0642 14.8067 24.0791 14.807 24.094C14.807 24.156 14.857 24.208 14.92 24.207C14.981 24.207 15.03 24.155 15.031 24.094V24.074C15.0271 24.0475 15.0137 24.0234 14.9932 24.0061C14.9728 23.9887 14.9468 23.9795 14.92 23.98ZM15.482 23.98C15.467 23.9799 15.4522 23.9827 15.4383 23.9884C15.4245 23.9941 15.4119 24.0025 15.4014 24.0132C15.3909 24.0238 15.3826 24.0364 15.377 24.0503C15.3714 24.0642 15.3687 24.0791 15.369 24.094C15.369 24.156 15.42 24.208 15.482 24.207C15.544 24.207 15.593 24.155 15.594 24.094V24.086C15.5922 24.0575 15.5796 24.0308 15.5588 24.0113C15.538 23.9918 15.5105 23.981 15.482 23.981V23.98ZM16.045 23.98C16.03 23.9799 16.0152 23.9827 16.0013 23.9884C15.9875 23.9941 15.9749 24.0025 15.9644 24.0132C15.9539 24.0238 15.9456 24.0364 15.94 24.0503C15.9344 24.0642 15.9317 24.0791 15.932 24.094C15.932 24.156 15.982 24.208 16.045 24.207C16.106 24.207 16.155 24.155 16.156 24.094V24.086C16.1542 24.0577 16.1418 24.0311 16.1212 24.0117C16.1006 23.9922 16.0733 23.9812 16.045 23.981V23.98ZM16.607 23.98C16.592 23.9799 16.5772 23.9827 16.5633 23.9884C16.5495 23.9941 16.5369 24.0025 16.5264 24.0132C16.5159 24.0238 16.5076 24.0364 16.502 24.0503C16.4964 24.0642 16.4937 24.0791 16.494 24.094C16.494 24.156 16.545 24.208 16.607 24.207C16.669 24.207 16.718 24.155 16.719 24.094V24.086C16.7172 24.0575 16.7046 24.0308 16.6838 24.0113C16.663 23.9918 16.6355 23.981 16.607 23.981V23.98ZM17.168 23.98C17.1532 23.9801 17.1386 23.9832 17.125 23.989C17.1114 23.9948 17.099 24.0033 17.0887 24.0139C17.0784 24.0245 17.0703 24.037 17.0648 24.0508C17.0594 24.0645 17.0567 24.0792 17.057 24.094C17.057 24.155 17.107 24.207 17.168 24.207C17.1979 24.2068 17.2265 24.1948 17.2476 24.1736C17.2687 24.1525 17.2807 24.1239 17.281 24.094V24.086C17.2792 24.0574 17.2665 24.0305 17.2454 24.011C17.2244 23.9914 17.1967 23.9807 17.168 23.981V23.98ZM17.731 23.98C17.7161 23.98 17.7014 23.983 17.6876 23.9887C17.6739 23.9945 17.6615 24.0029 17.6511 24.0135C17.6406 24.0241 17.6324 24.0367 17.6269 24.0505C17.6214 24.0644 17.6187 24.0791 17.619 24.094C17.619 24.155 17.669 24.207 17.73 24.207C17.76 24.207 17.7889 24.1951 17.8102 24.174C17.8316 24.1528 17.8437 24.1241 17.844 24.094V24.086C17.8422 24.0572 17.8293 24.0302 17.8081 24.0106C17.7868 23.991 17.7589 23.9804 17.73 23.981L17.731 23.98ZM18.293 23.98C18.2782 23.9801 18.2636 23.9832 18.25 23.989C18.2364 23.9948 18.224 24.0033 18.2137 24.0139C18.2034 24.0245 18.1953 24.037 18.1898 24.0508C18.1844 24.0645 18.1817 24.0792 18.182 24.094C18.182 24.155 18.232 24.207 18.293 24.207C18.3229 24.2068 18.3515 24.1948 18.3726 24.1736C18.3937 24.1525 18.4057 24.1239 18.406 24.094V24.086C18.4042 24.0574 18.3915 24.0305 18.3704 24.011C18.3494 23.9914 18.3217 23.9807 18.293 23.981V23.98ZM18.856 23.98C18.8411 23.98 18.8264 23.983 18.8126 23.9887C18.7989 23.9945 18.7865 24.0029 18.7761 24.0135C18.7656 24.0241 18.7574 24.0367 18.7519 24.0505C18.7464 24.0644 18.7437 24.0791 18.744 24.094C18.744 24.155 18.794 24.207 18.855 24.207C18.917 24.207 18.966 24.155 18.967 24.094V24.074C18.9631 24.0475 18.9497 24.0234 18.9292 24.0061C18.9088 23.9887 18.8828 23.9795 18.856 23.98ZM19.418 23.98C19.403 23.9799 19.3882 23.9827 19.3743 23.9884C19.3605 23.9941 19.3479 24.0025 19.3374 24.0132C19.3269 24.0238 19.3186 24.0364 19.313 24.0503C19.3074 24.0642 19.3047 24.0791 19.305 24.094C19.305 24.156 19.356 24.208 19.418 24.207C19.479 24.207 19.528 24.155 19.529 24.094V24.086C19.5272 24.0577 19.5148 24.0311 19.4942 24.0117C19.4736 23.9922 19.4463 23.9812 19.418 23.981V23.98ZM19.981 23.98C19.9659 23.9797 19.951 23.9825 19.937 23.9881C19.9231 23.9938 19.9104 24.0022 19.8998 24.0128C19.8891 24.0234 19.8807 24.0361 19.8751 24.0501C19.8695 24.064 19.8667 24.079 19.867 24.094C19.867 24.156 19.919 24.208 19.98 24.207C20.042 24.207 20.091 24.155 20.092 24.094V24.086C20.0902 24.0577 20.0778 24.0311 20.0572 24.0117C20.0366 23.9922 20.0093 23.9812 19.981 23.981V23.98ZM20.543 23.98C20.528 23.9799 20.5132 23.9827 20.4993 23.9884C20.4855 23.9941 20.4729 24.0025 20.4624 24.0132C20.4519 24.0238 20.4436 24.0364 20.438 24.0503C20.4324 24.0642 20.4297 24.0791 20.43 24.094C20.43 24.156 20.481 24.208 20.543 24.207C20.604 24.207 20.653 24.155 20.654 24.094V24.086C20.6522 24.0577 20.6398 24.0311 20.6192 24.0117C20.5986 23.9922 20.5713 23.9812 20.543 23.981V23.98ZM21.106 23.98C21.0909 23.9797 21.076 23.9825 21.062 23.9881C21.0481 23.9938 21.0354 24.0022 21.0248 24.0128C21.0141 24.0234 21.0057 24.0361 21.0001 24.0501C20.9945 24.064 20.9917 24.079 20.992 24.094C20.992 24.156 21.044 24.208 21.105 24.207C21.167 24.207 21.216 24.155 21.217 24.094V24.086C21.2152 24.0577 21.2028 24.0311 21.1822 24.0117C21.1616 23.9922 21.1343 23.9812 21.106 23.981V23.98ZM21.666 23.98C21.6512 23.9801 21.6366 23.9832 21.623 23.989C21.6094 23.9948 21.597 24.0033 21.5867 24.0139C21.5764 24.0245 21.5683 24.037 21.5628 24.0508C21.5574 24.0645 21.5547 24.0792 21.555 24.094C21.555 24.155 21.605 24.207 21.666 24.207C21.6959 24.2068 21.7245 24.1948 21.7456 24.1736C21.7667 24.1525 21.7787 24.1239 21.779 24.094V24.086C21.7772 24.0574 21.7645 24.0305 21.7434 24.011C21.7224 23.9914 21.6947 23.9807 21.666 23.981V23.98ZM22.229 23.98C22.2141 23.98 22.1994 23.983 22.1856 23.9887C22.1719 23.9945 22.1595 24.0029 22.1491 24.0135C22.1386 24.0241 22.1304 24.0367 22.1249 24.0505C22.1194 24.0644 22.1167 24.0791 22.117 24.094C22.117 24.155 22.167 24.207 22.228 24.207C22.258 24.207 22.2869 24.1951 22.3082 24.174C22.3296 24.1528 22.3417 24.1241 22.342 24.094V24.086C22.3402 24.0574 22.3275 24.0305 22.3064 24.011C22.2854 23.9914 22.2577 23.9807 22.229 23.981V23.98ZM22.791 23.98C22.7762 23.9801 22.7616 23.9832 22.748 23.989C22.7344 23.9948 22.722 24.0033 22.7117 24.0139C22.7014 24.0245 22.6933 24.037 22.6878 24.0508C22.6824 24.0645 22.6797 24.0792 22.68 24.094C22.68 24.155 22.73 24.206 22.791 24.207C22.853 24.207 22.904 24.157 22.904 24.094C22.9042 24.0791 22.9015 24.0642 22.8959 24.0503C22.8904 24.0364 22.8821 24.0238 22.8715 24.0132C22.861 24.0025 22.8485 23.9941 22.8346 23.9884C22.8208 23.9827 22.8059 23.9799 22.791 23.98ZM23.354 23.98C23.3391 23.98 23.3244 23.983 23.3106 23.9887C23.2969 23.9945 23.2845 24.0029 23.2741 24.0135C23.2636 24.0241 23.2554 24.0367 23.2499 24.0505C23.2444 24.0644 23.2417 24.0791 23.242 24.094C23.242 24.155 23.292 24.207 23.353 24.207C23.3827 24.2065 23.411 24.1944 23.4319 24.1733C23.4529 24.1522 23.4647 24.1237 23.465 24.094V24.074C23.4609 24.0476 23.4474 24.0236 23.427 24.0063C23.4066 23.989 23.3807 23.9797 23.354 23.98ZM23.916 23.98C23.901 23.9799 23.8862 23.9827 23.8723 23.9884C23.8585 23.9941 23.8459 24.0025 23.8354 24.0132C23.8249 24.0238 23.8166 24.0364 23.811 24.0503C23.8054 24.0642 23.8027 24.0791 23.803 24.094C23.803 24.156 23.854 24.208 23.916 24.207C23.977 24.207 24.026 24.155 24.027 24.094V24.074C24.0231 24.0475 24.0097 24.0234 23.9892 24.0061C23.9688 23.9887 23.9428 23.9795 23.916 23.98ZM24.479 23.98C24.4639 23.9797 24.449 23.9825 24.435 23.9881C24.4211 23.9938 24.4084 24.0022 24.3978 24.0128C24.3871 24.0234 24.3787 24.0361 24.3731 24.0501C24.3675 24.064 24.3647 24.079 24.365 24.094C24.365 24.156 24.417 24.208 24.479 24.207C24.539 24.207 24.589 24.155 24.589 24.094V24.086C24.5872 24.0579 24.5749 24.0315 24.5545 24.012C24.5341 23.9925 24.5072 23.9815 24.479 23.981V23.98ZM25.041 23.98C25.026 23.9799 25.0112 23.9827 24.9973 23.9884C24.9835 23.9941 24.9709 24.0025 24.9604 24.0132C24.9499 24.0238 24.9416 24.0364 24.936 24.0503C24.9304 24.0642 24.9277 24.0791 24.928 24.094C24.928 24.156 24.979 24.208 25.041 24.207C25.102 24.207 25.151 24.155 25.152 24.094V24.086C25.1502 24.0577 25.1378 24.0311 25.1172 24.0117C25.0966 23.9922 25.0693 23.9812 25.041 23.981V23.98ZM25.601 23.98C25.5863 23.9803 25.5718 23.9834 25.5583 23.9893C25.5448 23.9952 25.5326 24.0036 25.5224 24.0142C25.5121 24.0248 25.5041 24.0373 25.4987 24.051C25.4933 24.0647 25.4907 24.0793 25.491 24.094C25.491 24.155 25.541 24.207 25.601 24.207C25.631 24.207 25.6599 24.1951 25.6812 24.174C25.7026 24.1528 25.7147 24.1241 25.715 24.094V24.086C25.7132 24.0574 25.7005 24.0305 25.6794 24.011C25.6584 23.9914 25.6307 23.9807 25.602 23.981L25.601 23.98ZM26.164 23.98C26.1492 23.9801 26.1346 23.9832 26.121 23.989C26.1074 23.9948 26.095 24.0033 26.0847 24.0139C26.0744 24.0245 26.0663 24.037 26.0608 24.0508C26.0554 24.0645 26.0527 24.0792 26.053 24.094C26.053 24.155 26.103 24.207 26.164 24.207C26.1939 24.2068 26.2225 24.1948 26.2436 24.1736C26.2647 24.1525 26.2767 24.1239 26.277 24.094V24.086C26.2752 24.0574 26.2625 24.0305 26.2414 24.011C26.2204 23.9914 26.1927 23.9807 26.164 23.981V23.98ZM26.727 23.98C26.7121 23.98 26.6974 23.983 26.6836 23.9887C26.6699 23.9945 26.6575 24.0029 26.6471 24.0135C26.6366 24.0241 26.6284 24.0367 26.6229 24.0505C26.6174 24.0644 26.6147 24.0791 26.615 24.094C26.615 24.155 26.665 24.207 26.727 24.207C26.7569 24.2068 26.7855 24.1948 26.8066 24.1736C26.8277 24.1525 26.8397 24.1239 26.84 24.094V24.086C26.8382 24.0574 26.8255 24.0305 26.8044 24.011C26.7834 23.9914 26.7557 23.9807 26.727 23.981V23.98ZM27.289 23.98C27.2742 23.9801 27.2596 23.9832 27.246 23.989C27.2324 23.9948 27.22 24.0033 27.2097 24.0139C27.1994 24.0245 27.1913 24.037 27.1858 24.0508C27.1804 24.0645 27.1777 24.0792 27.178 24.094C27.178 24.155 27.228 24.206 27.289 24.207C27.351 24.207 27.402 24.157 27.402 24.094C27.4022 24.0791 27.3995 24.0642 27.3939 24.0503C27.3884 24.0364 27.3801 24.0238 27.3695 24.0132C27.359 24.0025 27.3464 23.9941 27.3326 23.9884C27.3188 23.9827 27.3039 23.9799 27.289 23.98ZM27.852 23.98C27.8371 23.98 27.8224 23.983 27.8086 23.9887C27.7949 23.9945 27.7825 24.0029 27.7721 24.0135C27.7616 24.0241 27.7534 24.0367 27.7479 24.0505C27.7424 24.0644 27.7397 24.0791 27.74 24.094C27.74 24.155 27.79 24.207 27.852 24.207C27.912 24.207 27.962 24.155 27.962 24.094C27.964 24.086 27.964 24.082 27.962 24.074C27.9581 24.0477 27.9448 24.0237 27.9246 24.0064C27.9044 23.9891 27.8786 23.9797 27.852 23.98ZM28.414 23.98C28.399 23.9799 28.3842 23.9827 28.3703 23.9884C28.3565 23.9941 28.3439 24.0025 28.3334 24.0132C28.3229 24.0238 28.3146 24.0364 28.309 24.0503C28.3034 24.0642 28.3007 24.0791 28.301 24.094C28.301 24.156 28.352 24.208 28.414 24.207C28.475 24.207 28.524 24.155 28.525 24.094V24.086C28.5232 24.0579 28.5109 24.0315 28.4905 24.012C28.4701 23.9925 28.4432 23.9815 28.415 23.981L28.414 23.98ZM28.977 23.98C28.9619 23.9797 28.947 23.9825 28.933 23.9881C28.9191 23.9938 28.9064 24.0022 28.8958 24.0128C28.8851 24.0234 28.8767 24.0361 28.8711 24.0501C28.8655 24.064 28.8627 24.079 28.863 24.094C28.863 24.156 28.915 24.208 28.977 24.207C29.037 24.207 29.087 24.155 29.087 24.094V24.086C29.0852 24.0579 29.0729 24.0315 29.0525 24.012C29.0321 23.9925 29.0052 23.9815 28.977 23.981V23.98ZM29.539 23.98C29.524 23.9799 29.5092 23.9827 29.4953 23.9884C29.4815 23.9941 29.4689 24.0025 29.4584 24.0132C29.4479 24.0238 29.4396 24.0364 29.434 24.0503C29.4284 24.0642 29.4257 24.0791 29.426 24.094C29.426 24.156 29.477 24.208 29.539 24.207C29.6 24.207 29.649 24.155 29.65 24.094V24.086C29.6482 24.0579 29.6359 24.0315 29.6155 24.012C29.5951 23.9925 29.5682 23.9815 29.54 23.981L29.539 23.98ZM30.099 23.98C30.0843 23.9803 30.0698 23.9834 30.0563 23.9893C30.0428 23.9952 30.0306 24.0036 30.0204 24.0142C30.0101 24.0248 30.0021 24.0373 29.9967 24.051C29.9913 24.0647 29.9887 24.0793 29.989 24.094C29.989 24.155 30.038 24.207 30.099 24.207C30.129 24.207 30.1579 24.1951 30.1792 24.174C30.2006 24.1528 30.2127 24.1241 30.213 24.094V24.086C30.2112 24.0574 30.1985 24.0305 30.1774 24.011C30.1564 23.9914 30.1287 23.9807 30.1 23.981L30.099 23.98ZM30.662 23.98C30.6472 23.9801 30.6326 23.9832 30.619 23.989C30.6054 23.9948 30.593 24.0033 30.5827 24.0139C30.5724 24.0245 30.5643 24.037 30.5588 24.0508C30.5534 24.0645 30.5507 24.0792 30.551 24.094C30.551 24.155 30.601 24.207 30.662 24.207C30.6919 24.2068 30.7205 24.1948 30.7416 24.1736C30.7627 24.1525 30.7747 24.1239 30.775 24.094V24.086C30.7732 24.0574 30.7605 24.0305 30.7394 24.011C30.7184 23.9914 30.6907 23.9807 30.662 23.981V23.98ZM31.225 23.98C31.2101 23.98 31.1954 23.983 31.1817 23.9887C31.1679 23.9945 31.1555 24.0029 31.1451 24.0135C31.1346 24.0241 31.1264 24.0367 31.1209 24.0505C31.1154 24.0644 31.1127 24.0791 31.113 24.094C31.113 24.155 31.163 24.207 31.225 24.207C31.2549 24.2068 31.2835 24.1948 31.3046 24.1736C31.3257 24.1525 31.3377 24.1239 31.338 24.094V24.086C31.3362 24.0574 31.3235 24.0305 31.3024 24.011C31.2814 23.9914 31.2537 23.9807 31.225 23.981V23.98ZM31.787 23.98C31.7722 23.9801 31.7576 23.9832 31.744 23.989C31.7304 23.9948 31.718 24.0033 31.7077 24.0139C31.6974 24.0245 31.6893 24.037 31.6838 24.0508C31.6784 24.0645 31.6757 24.0792 31.676 24.094C31.676 24.155 31.726 24.207 31.787 24.207C31.848 24.207 31.897 24.155 31.898 24.094V24.074C31.8941 24.0477 31.8808 24.0237 31.8606 24.0064C31.8404 23.9891 31.8146 23.9797 31.788 23.98H31.787ZM32.35 23.98C32.3349 23.9797 32.32 23.9825 32.306 23.9881C32.2921 23.9938 32.2794 24.0022 32.2688 24.0128C32.2581 24.0234 32.2497 24.0361 32.2441 24.0501C32.2385 24.064 32.2357 24.079 32.236 24.094C32.236 24.156 32.288 24.208 32.35 24.207C32.41 24.207 32.46 24.155 32.46 24.094C32.462 24.086 32.462 24.082 32.46 24.074C32.4561 24.0477 32.4428 24.0237 32.4226 24.0064C32.4024 23.9891 32.3766 23.9797 32.35 23.98ZM32.912 23.98C32.897 23.9799 32.8822 23.9827 32.8683 23.9884C32.8545 23.9941 32.8419 24.0025 32.8314 24.0132C32.8209 24.0238 32.8126 24.0364 32.807 24.0503C32.8014 24.0642 32.7987 24.0791 32.799 24.094C32.799 24.156 32.85 24.208 32.912 24.207C32.973 24.207 33.022 24.155 33.023 24.094V24.086C33.0212 24.0579 33.0089 24.0315 32.9885 24.012C32.9681 23.9925 32.9412 23.9815 32.913 23.981L32.912 23.98ZM33.475 23.98C33.4599 23.9797 33.445 23.9825 33.431 23.9881C33.4171 23.9938 33.4044 24.0022 33.3938 24.0128C33.3831 24.0234 33.3747 24.0361 33.3691 24.0501C33.3635 24.064 33.3607 24.079 33.361 24.094C33.361 24.156 33.413 24.208 33.475 24.207C33.5043 24.206 33.5322 24.1937 33.5527 24.1726C33.5732 24.1516 33.5847 24.1234 33.585 24.094V24.086C33.5832 24.0579 33.5709 24.0315 33.5505 24.012C33.5301 23.9925 33.5032 23.9815 33.475 23.981V23.98ZM34.037 23.98C34.022 23.9799 34.0072 23.9827 33.9933 23.9884C33.9795 23.9941 33.9669 24.0025 33.9564 24.0132C33.9459 24.0238 33.9376 24.0364 33.932 24.0503C33.9264 24.0642 33.9237 24.0791 33.924 24.094C33.924 24.156 33.975 24.208 34.037 24.207C34.0665 24.2062 34.0946 24.194 34.1153 24.1729C34.136 24.1519 34.1477 24.1236 34.148 24.094V24.086C34.1462 24.0579 34.1339 24.0315 34.1135 24.012C34.0931 23.9925 34.0662 23.9815 34.038 23.981L34.037 23.98ZM34.597 23.98C34.5823 23.9803 34.5678 23.9834 34.5543 23.9893C34.5408 23.9952 34.5286 24.0036 34.5184 24.0142C34.5081 24.0248 34.5001 24.0373 34.4947 24.051C34.4893 24.0647 34.4867 24.0793 34.487 24.094C34.487 24.155 34.536 24.207 34.597 24.207C34.627 24.207 34.6559 24.1951 34.6772 24.174C34.6986 24.1528 34.7107 24.1241 34.711 24.094V24.086C34.7092 24.0574 34.6965 24.0305 34.6754 24.011C34.6544 23.9914 34.6267 23.9807 34.598 23.981L34.597 23.98ZM17.087 26.549V26.551C16.9626 26.553 16.8398 26.5796 16.7257 26.6292C16.6115 26.6788 16.5083 26.7504 16.422 26.84L14.613 28.697C14.5261 28.7863 14.4578 28.8918 14.4118 29.0076C14.3659 29.1234 14.3433 29.2471 14.3454 29.3716C14.3474 29.4961 14.374 29.619 14.4237 29.7332C14.4734 29.8474 14.5452 29.9507 14.635 30.037C14.7241 30.124 14.8295 30.1925 14.9452 30.2386C15.0609 30.2847 15.1846 30.3075 15.3091 30.3056C15.4337 30.3038 15.5566 30.2773 15.6709 30.2278C15.7851 30.1783 15.8885 30.1066 15.975 30.017L17.783 28.158C17.8699 28.0688 17.9383 27.9633 17.9844 27.8476C18.0304 27.7319 18.053 27.6082 18.0511 27.4837C18.0491 27.3591 18.0226 27.2362 17.973 27.122C17.9234 27.0077 17.8517 26.9044 17.762 26.818C17.673 26.7308 17.5676 26.662 17.4519 26.6157C17.3363 26.5694 17.2126 26.5464 17.088 26.548L17.087 26.549ZM21.087 26.549V26.551C20.9626 26.553 20.8398 26.5796 20.7257 26.6292C20.6115 26.6788 20.5083 26.7504 20.422 26.84L18.613 28.697C18.5261 28.7863 18.4578 28.8918 18.4118 29.0076C18.3659 29.1234 18.3433 29.2471 18.3454 29.3716C18.3474 29.4961 18.374 29.619 18.4237 29.7332C18.4734 29.8474 18.5452 29.9507 18.635 30.037C18.7241 30.124 18.8295 30.1925 18.9452 30.2386C19.0609 30.2847 19.1846 30.3075 19.3091 30.3056C19.4337 30.3038 19.5566 30.2773 19.6709 30.2278C19.7851 30.1783 19.8885 30.1066 19.975 30.017L21.783 28.158C21.8699 28.0688 21.9383 27.9633 21.9844 27.8476C22.0304 27.7319 22.053 27.6082 22.0511 27.4837C22.0491 27.3591 22.0226 27.2362 21.973 27.122C21.9234 27.0077 21.8517 26.9044 21.762 26.818C21.673 26.7308 21.5676 26.662 21.4519 26.6157C21.3363 26.5694 21.2126 26.5464 21.088 26.548L21.087 26.549ZM25.087 26.549V26.551C24.9626 26.553 24.8398 26.5796 24.7257 26.6292C24.6115 26.6788 24.5083 26.7504 24.422 26.84L22.613 28.697C22.5261 28.7863 22.4578 28.8918 22.4118 29.0076C22.3659 29.1234 22.3433 29.2471 22.3454 29.3716C22.3474 29.4961 22.374 29.619 22.4237 29.7332C22.4734 29.8474 22.5452 29.9507 22.635 30.037C22.7241 30.124 22.8295 30.1925 22.9452 30.2386C23.0609 30.2847 23.1846 30.3075 23.3091 30.3056C23.4337 30.3038 23.5566 30.2773 23.6709 30.2278C23.7851 30.1783 23.8885 30.1066 23.975 30.017L25.783 28.158C25.8699 28.0688 25.9383 27.9633 25.9844 27.8476C26.0304 27.7319 26.053 27.6082 26.0511 27.4837C26.0491 27.3591 26.0226 27.2362 25.973 27.122C25.9234 27.0077 25.8517 26.9044 25.762 26.818C25.673 26.7308 25.5676 26.662 25.4519 26.6157C25.3363 26.5694 25.2126 26.5464 25.088 26.548L25.087 26.549ZM29.087 26.549V26.551C28.9626 26.553 28.8398 26.5796 28.7257 26.6292C28.6115 26.6788 28.5083 26.7504 28.422 26.84L26.613 28.697C26.5261 28.7863 26.4578 28.8918 26.4118 29.0076C26.3659 29.1234 26.3433 29.2471 26.3454 29.3716C26.3474 29.4961 26.374 29.619 26.4237 29.7332C26.4734 29.8474 26.5452 29.9507 26.635 30.037C26.7241 30.124 26.8295 30.1925 26.9452 30.2386C27.0609 30.2847 27.1846 30.3075 27.3091 30.3056C27.4337 30.3038 27.5566 30.2773 27.6709 30.2278C27.7851 30.1783 27.8885 30.1066 27.975 30.017L29.783 28.158C29.8699 28.0688 29.9383 27.9633 29.9844 27.8476C30.0304 27.7319 30.053 27.6082 30.0511 27.4837C30.0491 27.3591 30.0226 27.2362 29.973 27.122C29.9234 27.0077 29.8517 26.9044 29.762 26.818C29.673 26.7308 29.5676 26.662 29.4519 26.6157C29.3363 26.5694 29.2126 26.5464 29.088 26.548L29.087 26.549ZM33.087 26.549V26.551C32.9626 26.553 32.8398 26.5796 32.7257 26.6292C32.6115 26.6788 32.5083 26.7504 32.422 26.84L30.613 28.697C30.5261 28.7863 30.4578 28.8918 30.4118 29.0076C30.3659 29.1234 30.3433 29.2471 30.3454 29.3716C30.3474 29.4961 30.374 29.619 30.4237 29.7332C30.4734 29.8474 30.5452 29.9507 30.635 30.037C30.7241 30.124 30.8295 30.1925 30.9452 30.2386C31.0609 30.2847 31.1846 30.3075 31.3091 30.3056C31.4337 30.3038 31.5566 30.2773 31.6709 30.2278C31.7851 30.1783 31.8885 30.1066 31.975 30.017L33.783 28.158C33.8699 28.0688 33.9383 27.9633 33.9844 27.8476C34.0304 27.7319 34.053 27.6082 34.0511 27.4837C34.0491 27.3591 34.0226 27.2362 33.973 27.122C33.9234 27.0077 33.8517 26.9044 33.762 26.818C33.673 26.7308 33.5676 26.662 33.4519 26.6157C33.3363 26.5694 33.2126 26.5464 33.088 26.548L33.087 26.549ZM17.152 27.031V27.033C17.2432 27.0413 17.3294 27.0784 17.398 27.139C17.805 27.5 17.324 27.924 17.148 28.107L16.283 29.012C15.676 29.643 15.412 30.07 14.988 29.662C14.628 29.289 14.945 29.066 15.633 28.367L16.498 27.465C16.703 27.264 16.916 27.02 17.152 27.031ZM21.152 27.031V27.033C21.2432 27.0413 21.3294 27.0784 21.398 27.139C21.805 27.5 21.324 27.924 21.148 28.107L20.283 29.012C19.676 29.643 19.412 30.07 18.988 29.662C18.628 29.289 18.945 29.066 19.633 28.367L20.498 27.465C20.703 27.264 20.916 27.02 21.152 27.031ZM25.152 27.031V27.033C25.2432 27.0413 25.3294 27.0784 25.398 27.139C25.805 27.5 25.324 27.924 25.148 28.107L24.283 29.012C23.676 29.643 23.412 30.07 22.988 29.662C22.628 29.289 22.945 29.066 23.633 28.367L24.498 27.465C24.703 27.264 24.916 27.02 25.152 27.031ZM29.152 27.031V27.033C29.2432 27.0413 29.3294 27.0784 29.398 27.139C29.805 27.5 29.324 27.924 29.148 28.107L28.283 29.012C27.676 29.643 27.412 30.07 26.988 29.662C26.628 29.289 26.945 29.066 27.633 28.367L28.498 27.465C28.703 27.264 28.916 27.02 29.152 27.031ZM33.152 27.031V27.033C33.2432 27.0413 33.3294 27.0784 33.398 27.139C33.805 27.5 33.324 27.924 33.148 28.107L32.283 29.012C31.676 29.643 31.412 30.07 30.988 29.662C30.628 29.289 30.945 29.066 31.633 28.367L32.498 27.465C32.703 27.264 32.916 27.02 33.152 27.031ZM13.795 32.981C13.7803 32.9811 13.7657 32.9842 13.7522 32.9899C13.7387 32.9957 13.7264 33.004 13.7161 33.0145C13.7058 33.025 13.6976 33.0374 13.6921 33.0511C13.6866 33.0647 13.6838 33.0793 13.684 33.094C13.684 33.155 13.734 33.206 13.794 33.207C13.857 33.207 13.907 33.157 13.908 33.094C13.9082 33.0791 13.9055 33.0642 13.8999 33.0503C13.8944 33.0364 13.8861 33.0238 13.8755 33.0132C13.865 33.0025 13.8525 32.9941 13.8386 32.9884C13.8248 32.9827 13.8099 32.9799 13.795 32.98V32.981ZM14.357 32.981C14.3271 32.9813 14.2985 32.9933 14.2774 33.0144C14.2562 33.0355 14.2442 33.0641 14.244 33.094C14.244 33.155 14.296 33.207 14.357 33.207C14.419 33.207 14.468 33.155 14.469 33.094V33.074C14.4648 33.0475 14.4512 33.0235 14.4306 33.0063C14.4099 32.9892 14.3838 32.9802 14.357 32.981ZM14.92 32.981C14.9051 32.9809 14.8903 32.9837 14.8766 32.9893C14.8628 32.995 14.8503 33.0033 14.8398 33.0138C14.8293 33.0243 14.8209 33.0368 14.8153 33.0506C14.8097 33.0644 14.8068 33.0791 14.807 33.094C14.807 33.156 14.857 33.208 14.92 33.207C14.981 33.207 15.03 33.155 15.031 33.094V33.074C15.0269 33.0477 15.0134 33.0238 14.9929 33.0067C14.9725 32.9896 14.9466 32.9805 14.92 32.981ZM15.482 32.981C15.4671 32.9809 15.4523 32.9837 15.4386 32.9893C15.4248 32.995 15.4123 33.0033 15.4018 33.0138C15.3913 33.0243 15.3829 33.0368 15.3773 33.0506C15.3717 33.0644 15.3688 33.0791 15.369 33.094C15.369 33.156 15.42 33.208 15.482 33.207C15.544 33.207 15.593 33.155 15.594 33.094V33.086C15.5922 33.0575 15.5796 33.0308 15.5588 33.0113C15.538 32.9918 15.5105 32.981 15.482 32.981ZM16.045 32.981C16.0301 32.9809 16.0153 32.9837 16.0016 32.9893C15.9878 32.995 15.9753 33.0033 15.9648 33.0138C15.9543 33.0243 15.9459 33.0368 15.9403 33.0506C15.9347 33.0644 15.9318 33.0791 15.932 33.094C15.932 33.156 15.982 33.208 16.045 33.207C16.106 33.207 16.155 33.155 16.156 33.094V33.086C16.1542 33.0577 16.1418 33.0311 16.1212 33.0116C16.1006 32.9922 16.0733 32.9812 16.045 32.981ZM16.607 32.981C16.5921 32.9809 16.5773 32.9837 16.5636 32.9893C16.5498 32.995 16.5373 33.0033 16.5268 33.0138C16.5163 33.0243 16.5079 33.0368 16.5023 33.0506C16.4967 33.0644 16.4938 33.0791 16.494 33.094C16.494 33.156 16.545 33.208 16.607 33.207C16.669 33.207 16.718 33.155 16.719 33.094V33.086C16.7172 33.0575 16.7046 33.0308 16.6838 33.0113C16.663 32.9918 16.6355 32.981 16.607 32.981ZM17.168 32.981C17.1533 32.9811 17.1387 32.9842 17.1252 32.9899C17.1117 32.9957 17.0994 33.004 17.0891 33.0145C17.0788 33.025 17.0706 33.0374 17.0651 33.0511C17.0596 33.0647 17.0568 33.0793 17.057 33.094C17.057 33.155 17.107 33.207 17.168 33.207C17.1979 33.2068 17.2265 33.1948 17.2476 33.1736C17.2687 33.1525 17.2807 33.1239 17.281 33.094V33.086C17.2792 33.0574 17.2665 33.0305 17.2454 33.011C17.2244 32.9914 17.1967 32.9807 17.168 32.981ZM17.731 32.981C17.7162 32.981 17.7015 32.9839 17.6879 32.9896C17.6742 32.9953 17.6618 33.0037 17.6514 33.0142C17.641 33.0247 17.6328 33.0371 17.6272 33.0508C17.6216 33.0646 17.6188 33.0792 17.619 33.094C17.619 33.155 17.669 33.207 17.73 33.207C17.76 33.207 17.7889 33.1951 17.8102 33.174C17.8316 33.1528 17.8437 33.1241 17.844 33.094V33.086C17.8422 33.0572 17.8293 33.0302 17.8081 33.0106C17.7868 32.991 17.7589 32.9804 17.73 32.981H17.731ZM18.293 32.981C18.2783 32.9811 18.2637 32.9842 18.2502 32.9899C18.2367 32.9957 18.2244 33.004 18.2141 33.0145C18.2038 33.025 18.1956 33.0374 18.1901 33.0511C18.1846 33.0647 18.1818 33.0793 18.182 33.094C18.182 33.155 18.232 33.207 18.293 33.207C18.3229 33.2068 18.3515 33.1948 18.3726 33.1736C18.3937 33.1525 18.4057 33.1239 18.406 33.094V33.086C18.4042 33.0574 18.3915 33.0305 18.3704 33.011C18.3494 32.9914 18.3217 32.9807 18.293 32.981ZM18.856 32.981C18.8412 32.981 18.8265 32.9839 18.8129 32.9896C18.7992 32.9953 18.7868 33.0037 18.7764 33.0142C18.766 33.0247 18.7578 33.0371 18.7522 33.0508C18.7466 33.0646 18.7438 33.0792 18.744 33.094C18.744 33.155 18.794 33.207 18.855 33.207C18.917 33.207 18.966 33.155 18.967 33.094V33.074C18.9629 33.0477 18.9494 33.0238 18.9289 33.0067C18.9085 32.9896 18.8826 32.9805 18.856 32.981ZM19.418 32.981C19.4031 32.9809 19.3883 32.9837 19.3746 32.9893C19.3608 32.995 19.3483 33.0033 19.3378 33.0138C19.3273 33.0243 19.3189 33.0368 19.3133 33.0506C19.3077 33.0644 19.3048 33.0791 19.305 33.094C19.305 33.156 19.356 33.208 19.418 33.207C19.479 33.207 19.528 33.155 19.529 33.094V33.086C19.5272 33.0577 19.5148 33.0311 19.4942 33.0116C19.4736 32.9922 19.4463 32.9812 19.418 32.981ZM19.981 32.981C19.966 32.9807 19.9512 32.9835 19.9373 32.9891C19.9234 32.9946 19.9108 33.0029 19.9001 33.0135C19.8895 33.024 19.8811 33.0365 19.8754 33.0504C19.8697 33.0642 19.8668 33.0791 19.867 33.094C19.867 33.156 19.919 33.208 19.98 33.207C20.042 33.207 20.091 33.155 20.092 33.094V33.086C20.0902 33.0577 20.0778 33.0311 20.0572 33.0116C20.0366 32.9922 20.0093 32.9812 19.981 32.981ZM20.543 32.981C20.5281 32.9809 20.5133 32.9837 20.4996 32.9893C20.4858 32.995 20.4733 33.0033 20.4628 33.0138C20.4523 33.0243 20.4439 33.0368 20.4383 33.0506C20.4327 33.0644 20.4298 33.0791 20.43 33.094C20.43 33.156 20.481 33.208 20.543 33.207C20.604 33.207 20.653 33.155 20.654 33.094V33.086C20.6522 33.0577 20.6398 33.0311 20.6192 33.0116C20.5986 32.9922 20.5713 32.9812 20.543 32.981ZM21.106 32.981C21.091 32.9807 21.0762 32.9835 21.0623 32.9891C21.0484 32.9946 21.0358 33.0029 21.0251 33.0135C21.0145 33.024 21.0061 33.0365 21.0004 33.0504C20.9947 33.0642 20.9918 33.0791 20.992 33.094C20.992 33.156 21.044 33.208 21.105 33.207C21.167 33.207 21.216 33.155 21.217 33.094V33.086C21.2152 33.0577 21.2028 33.0311 21.1822 33.0116C21.1616 32.9922 21.1343 32.9812 21.106 32.981ZM21.666 32.981C21.6513 32.9811 21.6367 32.9842 21.6232 32.9899C21.6097 32.9957 21.5974 33.004 21.5871 33.0145C21.5768 33.025 21.5686 33.0374 21.5631 33.0511C21.5576 33.0647 21.5548 33.0793 21.555 33.094C21.555 33.155 21.605 33.207 21.666 33.207C21.6959 33.2068 21.7245 33.1948 21.7456 33.1736C21.7667 33.1525 21.7787 33.1239 21.779 33.094V33.086C21.7772 33.0574 21.7645 33.0305 21.7434 33.011C21.7224 32.9914 21.6947 32.9807 21.666 32.981ZM22.229 32.981C22.2142 32.981 22.1995 32.9839 22.1859 32.9896C22.1722 32.9953 22.1598 33.0037 22.1494 33.0142C22.139 33.0247 22.1308 33.0371 22.1252 33.0508C22.1196 33.0646 22.1168 33.0792 22.117 33.094C22.117 33.155 22.167 33.207 22.228 33.207C22.258 33.207 22.2869 33.1951 22.3082 33.174C22.3296 33.1528 22.3417 33.1241 22.342 33.094V33.086C22.3402 33.0574 22.3275 33.0305 22.3064 33.011C22.2854 32.9914 22.2577 32.9807 22.229 32.981ZM22.791 32.981C22.7763 32.9811 22.7617 32.9842 22.7482 32.9899C22.7347 32.9957 22.7224 33.004 22.7121 33.0145C22.7018 33.025 22.6936 33.0374 22.6881 33.0511C22.6826 33.0647 22.6798 33.0793 22.68 33.094C22.68 33.155 22.73 33.206 22.791 33.207C22.853 33.207 22.904 33.157 22.904 33.094C22.9042 33.0791 22.9015 33.0642 22.8959 33.0503C22.8904 33.0364 22.8821 33.0238 22.8715 33.0132C22.861 33.0025 22.8485 32.9941 22.8346 32.9884C22.8208 32.9827 22.8059 32.9799 22.791 32.98V32.981ZM23.354 32.981C23.3392 32.981 23.3245 32.9839 23.3109 32.9896C23.2972 32.9953 23.2848 33.0037 23.2744 33.0142C23.264 33.0247 23.2558 33.0371 23.2502 33.0508C23.2446 33.0646 23.2418 33.0792 23.242 33.094C23.242 33.155 23.292 33.207 23.353 33.207C23.3827 33.2065 23.411 33.1944 23.4319 33.1733C23.4529 33.1522 23.4647 33.1237 23.465 33.094V33.074C23.4607 33.0478 23.4471 33.024 23.4267 33.0069C23.4064 32.9899 23.3805 32.9807 23.354 32.981ZM23.916 32.981C23.9011 32.9809 23.8863 32.9837 23.8726 32.9893C23.8588 32.995 23.8463 33.0033 23.8358 33.0138C23.8253 33.0243 23.8169 33.0368 23.8113 33.0506C23.8057 33.0644 23.8028 33.0791 23.803 33.094C23.803 33.156 23.854 33.208 23.916 33.207C23.977 33.207 24.026 33.155 24.027 33.094V33.074C24.0229 33.0477 24.0094 33.0238 23.9889 33.0067C23.9685 32.9896 23.9426 32.9805 23.916 32.981ZM24.479 32.981C24.464 32.9807 24.4492 32.9835 24.4353 32.9891C24.4214 32.9946 24.4088 33.0029 24.3981 33.0135C24.3875 33.024 24.3791 33.0365 24.3734 33.0504C24.3677 33.0642 24.3648 33.0791 24.365 33.094C24.365 33.156 24.417 33.208 24.479 33.207C24.539 33.207 24.589 33.155 24.589 33.094V33.086C24.5872 33.0579 24.5749 33.0315 24.5545 33.012C24.5341 32.9925 24.5072 32.9815 24.479 32.981ZM25.041 32.981C25.0261 32.9809 25.0113 32.9837 24.9976 32.9893C24.9838 32.995 24.9713 33.0033 24.9608 33.0138C24.9503 33.0243 24.9419 33.0368 24.9363 33.0506C24.9307 33.0644 24.9278 33.0791 24.928 33.094C24.928 33.156 24.979 33.208 25.041 33.207C25.102 33.207 25.151 33.155 25.152 33.094V33.086C25.1502 33.0577 25.1378 33.0311 25.1172 33.0116C25.0966 32.9922 25.0693 32.9812 25.041 32.981ZM25.601 32.981C25.5714 32.9815 25.5433 32.9937 25.5227 33.0149C25.5021 33.036 25.4907 33.0645 25.491 33.094C25.491 33.155 25.541 33.207 25.601 33.207C25.631 33.207 25.6599 33.1951 25.6812 33.174C25.7026 33.1528 25.7147 33.1241 25.715 33.094V33.086C25.7132 33.0574 25.7005 33.0305 25.6794 33.011C25.6584 32.9914 25.6307 32.9807 25.602 32.981H25.601ZM26.164 32.981C26.1493 32.9811 26.1347 32.9842 26.1212 32.9899C26.1077 32.9957 26.0954 33.004 26.0851 33.0145C26.0748 33.025 26.0666 33.0374 26.0611 33.0511C26.0556 33.0647 26.0528 33.0793 26.053 33.094C26.053 33.155 26.103 33.207 26.164 33.207C26.1939 33.2068 26.2225 33.1948 26.2436 33.1736C26.2647 33.1525 26.2767 33.1239 26.277 33.094V33.086C26.2752 33.0574 26.2625 33.0305 26.2414 33.011C26.2204 32.9914 26.1927 32.9807 26.164 32.981ZM26.727 32.981C26.7122 32.981 26.6975 32.9839 26.6839 32.9896C26.6702 32.9953 26.6578 33.0037 26.6474 33.0142C26.637 33.0247 26.6288 33.0371 26.6232 33.0508C26.6176 33.0646 26.6148 33.0792 26.615 33.094C26.615 33.155 26.665 33.207 26.727 33.207C26.7569 33.2068 26.7855 33.1948 26.8066 33.1736C26.8277 33.1525 26.8397 33.1239 26.84 33.094V33.086C26.8382 33.0574 26.8255 33.0305 26.8044 33.011C26.7834 32.9914 26.7557 32.9807 26.727 32.981ZM27.289 32.981C27.2743 32.9811 27.2597 32.9842 27.2462 32.9899C27.2327 32.9957 27.2204 33.004 27.2101 33.0145C27.1998 33.025 27.1916 33.0374 27.1861 33.0511C27.1806 33.0647 27.1778 33.0793 27.178 33.094C27.178 33.155 27.228 33.206 27.289 33.207C27.351 33.207 27.402 33.157 27.402 33.094C27.4022 33.0791 27.3995 33.0642 27.3939 33.0503C27.3884 33.0364 27.3801 33.0238 27.3695 33.0132C27.359 33.0025 27.3464 32.9941 27.3326 32.9884C27.3188 32.9827 27.3039 32.9799 27.289 32.98V32.981ZM27.852 32.981C27.8372 32.981 27.8225 32.9839 27.8089 32.9896C27.7952 32.9953 27.7828 33.0037 27.7724 33.0142C27.762 33.0247 27.7538 33.0371 27.7482 33.0508C27.7426 33.0646 27.7398 33.0792 27.74 33.094C27.74 33.155 27.79 33.207 27.852 33.207C27.912 33.207 27.962 33.155 27.962 33.094C27.964 33.086 27.964 33.082 27.962 33.074C27.9579 33.0479 27.9445 33.0241 27.9243 33.007C27.9041 32.9899 27.8784 32.9807 27.852 32.981ZM28.414 32.981C28.3991 32.9809 28.3843 32.9837 28.3706 32.9893C28.3568 32.995 28.3443 33.0033 28.3338 33.0138C28.3233 33.0243 28.3149 33.0368 28.3093 33.0506C28.3037 33.0644 28.3008 33.0791 28.301 33.094C28.301 33.156 28.352 33.208 28.414 33.207C28.475 33.207 28.524 33.155 28.525 33.094V33.086C28.5232 33.0579 28.5109 33.0315 28.4905 33.012C28.4701 32.9925 28.4432 32.9815 28.415 32.981H28.414ZM28.977 32.981C28.962 32.9807 28.9472 32.9835 28.9333 32.9891C28.9194 32.9946 28.9068 33.0029 28.8961 33.0135C28.8855 33.024 28.8771 33.0365 28.8714 33.0504C28.8657 33.0642 28.8628 33.0791 28.863 33.094C28.863 33.156 28.915 33.208 28.977 33.207C29.037 33.207 29.087 33.155 29.087 33.094V33.086C29.0852 33.0579 29.0729 33.0315 29.0525 33.012C29.0321 32.9925 29.0052 32.9815 28.977 32.981ZM29.539 32.981C29.5241 32.9809 29.5093 32.9837 29.4956 32.9893C29.4818 32.995 29.4693 33.0033 29.4588 33.0138C29.4483 33.0243 29.4399 33.0368 29.4343 33.0506C29.4287 33.0644 29.4258 33.0791 29.426 33.094C29.426 33.156 29.477 33.208 29.539 33.207C29.6 33.207 29.649 33.155 29.65 33.094V33.086C29.6482 33.0579 29.6359 33.0315 29.6155 33.012C29.5951 32.9925 29.5682 32.9815 29.54 32.981H29.539ZM30.099 32.981C30.0694 32.9815 30.0413 32.9937 30.0207 33.0149C30.0001 33.036 29.9887 33.0645 29.989 33.094C29.989 33.155 30.038 33.207 30.099 33.207C30.129 33.207 30.1579 33.1951 30.1792 33.174C30.2006 33.1528 30.2127 33.1241 30.213 33.094V33.086C30.2112 33.0574 30.1985 33.0305 30.1774 33.011C30.1564 32.9914 30.1287 32.9807 30.1 32.981H30.099ZM30.662 32.981C30.6473 32.9811 30.6327 32.9842 30.6192 32.9899C30.6057 32.9957 30.5934 33.004 30.5831 33.0145C30.5728 33.025 30.5646 33.0374 30.5591 33.0511C30.5536 33.0647 30.5508 33.0793 30.551 33.094C30.551 33.155 30.601 33.207 30.662 33.207C30.6919 33.2068 30.7205 33.1948 30.7416 33.1736C30.7627 33.1525 30.7747 33.1239 30.775 33.094V33.086C30.7732 33.0574 30.7605 33.0305 30.7394 33.011C30.7184 32.9914 30.6907 32.9807 30.662 32.981ZM31.225 32.981C31.2102 32.981 31.1955 32.9839 31.1819 32.9896C31.1682 32.9953 31.1558 33.0037 31.1454 33.0142C31.135 33.0247 31.1268 33.0371 31.1212 33.0508C31.1156 33.0646 31.1128 33.0792 31.113 33.094C31.113 33.155 31.163 33.207 31.225 33.207C31.2549 33.2068 31.2835 33.1948 31.3046 33.1736C31.3257 33.1525 31.3377 33.1239 31.338 33.094V33.086C31.3362 33.0574 31.3235 33.0305 31.3024 33.011C31.2814 32.9914 31.2537 32.9807 31.225 32.981ZM31.787 32.981C31.7723 32.9811 31.7577 32.9842 31.7442 32.9899C31.7307 32.9957 31.7184 33.004 31.7081 33.0145C31.6978 33.025 31.6896 33.0374 31.6841 33.0511C31.6786 33.0647 31.6758 33.0793 31.676 33.094C31.676 33.155 31.726 33.207 31.787 33.207C31.848 33.207 31.897 33.155 31.898 33.094V33.074C31.8939 33.0479 31.8805 33.0241 31.8603 33.007C31.8401 32.9899 31.8144 32.9807 31.788 32.981H31.787ZM32.35 32.981C32.335 32.9807 32.3202 32.9835 32.3063 32.9891C32.2924 32.9946 32.2798 33.0029 32.2691 33.0135C32.2585 33.024 32.2501 33.0365 32.2444 33.0504C32.2387 33.0642 32.2358 33.0791 32.236 33.094C32.236 33.156 32.288 33.208 32.35 33.207C32.41 33.207 32.46 33.155 32.46 33.094C32.462 33.086 32.462 33.082 32.46 33.074C32.4559 33.0479 32.4425 33.0241 32.4223 33.007C32.4021 32.9899 32.3764 32.9807 32.35 32.981ZM32.912 32.981C32.8971 32.9809 32.8823 32.9837 32.8686 32.9893C32.8548 32.995 32.8423 33.0033 32.8318 33.0138C32.8213 33.0243 32.8129 33.0368 32.8073 33.0506C32.8017 33.0644 32.7988 33.0791 32.799 33.094C32.799 33.156 32.85 33.208 32.912 33.207C32.973 33.207 33.022 33.155 33.023 33.094V33.086C33.0212 33.0579 33.0089 33.0315 32.9885 33.012C32.9681 32.9925 32.9412 32.9815 32.913 32.981H32.912ZM33.475 32.981C33.46 32.9807 33.4452 32.9835 33.4313 32.9891C33.4174 32.9946 33.4048 33.0029 33.3941 33.0135C33.3835 33.024 33.3751 33.0365 33.3694 33.0504C33.3637 33.0642 33.3608 33.0791 33.361 33.094C33.361 33.156 33.413 33.208 33.475 33.207C33.5043 33.206 33.5322 33.1937 33.5527 33.1726C33.5732 33.1516 33.5847 33.1234 33.585 33.094V33.086C33.5832 33.0579 33.5709 33.0315 33.5505 33.012C33.5301 32.9925 33.5032 32.9815 33.475 32.981ZM34.037 32.981C34.0221 32.9809 34.0073 32.9837 33.9936 32.9893C33.9798 32.995 33.9673 33.0033 33.9568 33.0138C33.9463 33.0243 33.9379 33.0368 33.9323 33.0506C33.9267 33.0644 33.9238 33.0791 33.924 33.094C33.924 33.156 33.975 33.208 34.037 33.207C34.0665 33.2062 34.0946 33.194 34.1153 33.1729C34.136 33.1519 34.1477 33.1236 34.148 33.094V33.086C34.1462 33.0579 34.1339 33.0315 34.1135 33.012C34.0931 32.9925 34.0662 32.9815 34.038 32.981H34.037ZM34.597 32.981C34.5674 32.9815 34.5393 32.9937 34.5187 33.0149C34.4981 33.036 34.4867 33.0645 34.487 33.094C34.487 33.155 34.536 33.207 34.597 33.207C34.627 33.207 34.6559 33.1951 34.6772 33.174C34.6986 33.1528 34.7107 33.1241 34.711 33.094V33.086C34.7092 33.0574 34.6965 33.0305 34.6754 33.011C34.6544 32.9914 34.6267 32.9807 34.598 32.981H34.597ZM17.087 35.215V35.217C16.9626 35.219 16.8398 35.2456 16.7257 35.2952C16.6115 35.3448 16.5083 35.4164 16.422 35.506L14.613 37.363C14.5261 37.4523 14.4578 37.5578 14.4118 37.6736C14.3659 37.7894 14.3433 37.9131 14.3454 38.0376C14.3474 38.1621 14.374 38.285 14.4237 38.3992C14.4734 38.5134 14.5452 38.6167 14.635 38.703C14.7241 38.79 14.8295 38.8585 14.9452 38.9046C15.0609 38.9507 15.1846 38.9735 15.3091 38.9716C15.4337 38.9698 15.5566 38.9433 15.6709 38.8938C15.7851 38.8443 15.8885 38.7726 15.975 38.683L17.783 36.824C17.8699 36.7348 17.9383 36.6293 17.9844 36.5136C18.0304 36.3979 18.053 36.2742 18.0511 36.1497C18.0491 36.0251 18.0226 35.9022 17.973 35.788C17.9234 35.6737 17.8517 35.5704 17.762 35.484C17.673 35.3968 17.5676 35.328 17.4519 35.2817C17.3363 35.2354 17.2126 35.2124 17.088 35.214L17.087 35.215ZM21.087 35.215V35.217C20.9626 35.219 20.8398 35.2456 20.7257 35.2952C20.6115 35.3448 20.5083 35.4164 20.422 35.506L18.613 37.363C18.5261 37.4523 18.4578 37.5578 18.4118 37.6736C18.3659 37.7894 18.3433 37.9131 18.3454 38.0376C18.3474 38.1621 18.374 38.285 18.4237 38.3992C18.4734 38.5134 18.5452 38.6167 18.635 38.703C18.7241 38.79 18.8295 38.8585 18.9452 38.9046C19.0609 38.9507 19.1846 38.9735 19.3091 38.9716C19.4337 38.9698 19.5566 38.9433 19.6709 38.8938C19.7851 38.8443 19.8885 38.7726 19.975 38.683L21.783 36.824C21.8699 36.7348 21.9383 36.6293 21.9844 36.5136C22.0304 36.3979 22.053 36.2742 22.0511 36.1497C22.0491 36.0251 22.0226 35.9022 21.973 35.788C21.9234 35.6737 21.8517 35.5704 21.762 35.484C21.673 35.3968 21.5676 35.328 21.4519 35.2817C21.3363 35.2354 21.2126 35.2124 21.088 35.214L21.087 35.215ZM25.087 35.215V35.217C24.9626 35.219 24.8398 35.2456 24.7257 35.2952C24.6115 35.3448 24.5083 35.4164 24.422 35.506L22.613 37.363C22.5261 37.4523 22.4578 37.5578 22.4118 37.6736C22.3659 37.7894 22.3433 37.9131 22.3454 38.0376C22.3474 38.1621 22.374 38.285 22.4237 38.3992C22.4734 38.5134 22.5452 38.6167 22.635 38.703C22.7241 38.79 22.8295 38.8585 22.9452 38.9046C23.0609 38.9507 23.1846 38.9735 23.3091 38.9716C23.4337 38.9698 23.5566 38.9433 23.6709 38.8938C23.7851 38.8443 23.8885 38.7726 23.975 38.683L25.783 36.824C25.8699 36.7348 25.9383 36.6293 25.9844 36.5136C26.0304 36.3979 26.053 36.2742 26.0511 36.1497C26.0491 36.0251 26.0226 35.9022 25.973 35.788C25.9234 35.6737 25.8517 35.5704 25.762 35.484C25.673 35.3968 25.5676 35.328 25.4519 35.2817C25.3363 35.2354 25.2126 35.2124 25.088 35.214L25.087 35.215ZM29.087 35.215V35.217C28.9626 35.219 28.8398 35.2456 28.7257 35.2952C28.6115 35.3448 28.5083 35.4164 28.422 35.506L26.613 37.363C26.5261 37.4523 26.4578 37.5578 26.4118 37.6736C26.3659 37.7894 26.3433 37.9131 26.3454 38.0376C26.3474 38.1621 26.374 38.285 26.4237 38.3992C26.4734 38.5134 26.5452 38.6167 26.635 38.703C26.7241 38.79 26.8295 38.8585 26.9452 38.9046C27.0609 38.9507 27.1846 38.9735 27.3091 38.9716C27.4337 38.9698 27.5566 38.9433 27.6709 38.8938C27.7851 38.8443 27.8885 38.7726 27.975 38.683L29.783 36.824C29.8699 36.7348 29.9383 36.6293 29.9844 36.5136C30.0304 36.3979 30.053 36.2742 30.0511 36.1497C30.0491 36.0251 30.0226 35.9022 29.973 35.788C29.9234 35.6737 29.8517 35.5704 29.762 35.484C29.673 35.3968 29.5676 35.328 29.4519 35.2817C29.3363 35.2354 29.2126 35.2124 29.088 35.214L29.087 35.215ZM33.087 35.215V35.217C32.9626 35.219 32.8398 35.2456 32.7257 35.2952C32.6115 35.3448 32.5083 35.4164 32.422 35.506L30.613 37.363C30.5261 37.4523 30.4578 37.5578 30.4118 37.6736C30.3659 37.7894 30.3433 37.9131 30.3454 38.0376C30.3474 38.1621 30.374 38.285 30.4237 38.3992C30.4734 38.5134 30.5452 38.6167 30.635 38.703C30.7241 38.79 30.8295 38.8585 30.9452 38.9046C31.0609 38.9507 31.1846 38.9735 31.3091 38.9716C31.4337 38.9698 31.5566 38.9433 31.6709 38.8938C31.7851 38.8443 31.8885 38.7726 31.975 38.683L33.783 36.824C33.8699 36.7348 33.9383 36.6293 33.9844 36.5136C34.0304 36.3979 34.053 36.2742 34.0511 36.1497C34.0491 36.0251 34.0226 35.9022 33.973 35.788C33.9234 35.6737 33.8517 35.5704 33.762 35.484C33.673 35.3968 33.5676 35.328 33.4519 35.2817C33.3363 35.2354 33.2126 35.2124 33.088 35.214L33.087 35.215ZM17.152 35.697V35.699C17.2432 35.7073 17.3293 35.7445 17.398 35.805C17.805 36.166 17.324 36.59 17.148 36.773L16.283 37.678C15.676 38.309 15.412 38.736 14.988 38.328C14.628 37.955 14.945 37.732 15.633 37.033L16.498 36.131C16.703 35.93 16.916 35.686 17.152 35.697ZM21.152 35.697V35.699C21.2432 35.7073 21.3293 35.7445 21.398 35.805C21.805 36.166 21.324 36.59 21.148 36.773L20.283 37.678C19.676 38.309 19.412 38.736 18.988 38.328C18.628 37.955 18.945 37.732 19.633 37.033L20.498 36.131C20.703 35.93 20.916 35.686 21.152 35.697ZM25.152 35.697V35.699C25.2432 35.7073 25.3293 35.7445 25.398 35.805C25.805 36.166 25.324 36.59 25.148 36.773L24.283 37.678C23.676 38.309 23.412 38.736 22.988 38.328C22.628 37.955 22.945 37.732 23.633 37.033L24.498 36.131C24.703 35.93 24.916 35.686 25.152 35.697ZM29.152 35.697V35.699C29.2432 35.7073 29.3293 35.7445 29.398 35.805C29.805 36.166 29.324 36.59 29.148 36.773L28.283 37.678C27.676 38.309 27.412 38.736 26.988 38.328C26.628 37.955 26.945 37.732 27.633 37.033L28.498 36.131C28.703 35.93 28.916 35.686 29.152 35.697ZM33.152 35.697V35.699C33.2432 35.7073 33.3293 35.7445 33.398 35.805C33.805 36.166 33.324 36.59 33.148 36.773L32.283 37.678C31.676 38.309 31.412 38.736 30.988 38.328C30.628 37.955 30.945 37.732 31.633 37.033L32.498 36.131C32.703 35.93 32.916 35.686 33.152 35.697Z" fill="#333333"/>
</svg>
