<svg width="48" height="48" viewBox="0 0 48 48" fill="none" xmlns="http://www.w3.org/2000/svg">
<path d="M14.24 4.10009C13.37 4.10009 12.67 4.80009 12.67 5.66009V42.5201C12.67 43.3901 13.37 44.0901 14.24 44.0901H33.94C34.81 44.0901 35.51 43.3901 35.51 42.5201V5.66009C35.51 4.79009 34.81 4.09009 33.94 4.09009H14.24V4.10009ZM16.31 8.43009C16.5201 8.42352 16.7294 8.45841 16.9261 8.53275C17.1227 8.60709 17.3028 8.71943 17.456 8.86336C17.6092 9.00729 17.7326 9.17999 17.8191 9.3716C17.9055 9.56321 17.9534 9.76997 17.96 9.98009C17.9665 10.1902 17.9317 10.3996 17.8573 10.5962C17.783 10.7928 17.6706 10.9729 17.5267 11.1261C17.3828 11.2793 17.2101 11.4027 17.0185 11.4892C16.8269 11.5756 16.6201 11.6235 16.41 11.6301C15.9856 11.6433 15.5734 11.4875 15.264 11.1968C14.9545 10.9061 14.7732 10.5044 14.76 10.0801C14.7467 9.65574 14.9026 9.24351 15.1933 8.93407C15.4839 8.62464 15.8856 8.44335 16.31 8.43009ZM20.14 8.43009C20.3501 8.43009 20.5582 8.47147 20.7523 8.55188C20.9464 8.63229 21.1228 8.75014 21.2714 8.89872C21.4199 9.04729 21.5378 9.22367 21.6182 9.41779C21.6986 9.61192 21.74 9.81997 21.74 10.0301C21.74 10.2402 21.6986 10.4483 21.6182 10.6424C21.5378 10.8365 21.4199 11.0129 21.2714 11.1615C21.1228 11.31 20.9464 11.4279 20.7523 11.5083C20.5582 11.5887 20.3501 11.6301 20.14 11.6301C19.7156 11.6301 19.3087 11.4615 19.0086 11.1615C18.7086 10.8614 18.54 10.4544 18.54 10.0301C18.54 9.60574 18.7086 9.19878 19.0086 8.89872C19.3087 8.59866 19.7156 8.43009 20.14 8.43009ZM23.98 8.43009C24.1901 8.43009 24.3982 8.47147 24.5923 8.55188C24.7864 8.63229 24.9628 8.75014 25.1114 8.89872C25.2599 9.04729 25.3778 9.22367 25.4582 9.41779C25.5386 9.61192 25.58 9.81997 25.58 10.0301C25.58 10.2402 25.5386 10.4483 25.4582 10.6424C25.3778 10.8365 25.2599 11.0129 25.1114 11.1615C24.9628 11.31 24.7864 11.4279 24.5923 11.5083C24.3982 11.5887 24.1901 11.6301 23.98 11.6301C23.5556 11.6301 23.1487 11.4615 22.8486 11.1615C22.5486 10.8614 22.38 10.4544 22.38 10.0301C22.38 9.60574 22.5486 9.19878 22.8486 8.89872C23.1487 8.59866 23.5556 8.43009 23.98 8.43009ZM27.81 8.43009C28.0201 8.43009 28.2282 8.47147 28.4223 8.55188C28.6164 8.63229 28.7928 8.75014 28.9414 8.89872C29.0899 9.04729 29.2078 9.22367 29.2882 9.41779C29.3686 9.61192 29.41 9.81997 29.41 10.0301C29.41 10.2402 29.3686 10.4483 29.2882 10.6424C29.2078 10.8365 29.0899 11.0129 28.9414 11.1615C28.7928 11.31 28.6164 11.4279 28.4223 11.5083C28.2282 11.5887 28.0201 11.6301 27.81 11.6301C27.3856 11.6301 26.9787 11.4615 26.6786 11.1615C26.3786 10.8614 26.21 10.4544 26.21 10.0301C26.21 9.60574 26.3786 9.19878 26.6786 8.89872C26.9787 8.59866 27.3856 8.43009 27.81 8.43009ZM31.65 8.43009C31.8601 8.43009 32.0682 8.47147 32.2623 8.55188C32.4564 8.63229 32.6328 8.75014 32.7814 8.89872C32.9299 9.04729 33.0478 9.22367 33.1282 9.41779C33.2086 9.61192 33.25 9.81997 33.25 10.0301C33.25 10.2402 33.2086 10.4483 33.1282 10.6424C33.0478 10.8365 32.9299 11.0129 32.7814 11.1615C32.6328 11.31 32.4564 11.4279 32.2623 11.5083C32.0682 11.5887 31.8601 11.6301 31.65 11.6301C31.2256 11.6301 30.8187 11.4615 30.5186 11.1615C30.2186 10.8614 30.05 10.4544 30.05 10.0301C30.05 9.60574 30.2186 9.19878 30.5186 8.89872C30.8187 8.59866 31.2256 8.43009 31.65 8.43009ZM13.69 14.0301C13.7149 14.0257 13.7405 14.03 13.7627 14.0422C13.7848 14.0545 13.802 14.0741 13.8114 14.0975C13.8207 14.121 13.8218 14.147 13.8142 14.1712C13.8067 14.1953 13.7911 14.2161 13.77 14.2301C13.7593 14.2402 13.7468 14.248 13.733 14.2532C13.7193 14.2583 13.7046 14.2607 13.69 14.2601C13.6608 14.2601 13.6328 14.2485 13.6122 14.2279C13.5916 14.2072 13.58 14.1793 13.58 14.1501C13.58 14.0901 13.63 14.0401 13.68 14.0401L13.69 14.0301ZM14.25 14.0301C14.2775 14.03 14.3041 14.0402 14.3244 14.0587C14.3448 14.0772 14.3575 14.1027 14.36 14.1301V14.1501C14.36 14.2101 14.31 14.2601 14.25 14.2601C14.2208 14.2601 14.1928 14.2485 14.1722 14.2279C14.1516 14.2072 14.14 14.1793 14.14 14.1501C14.14 14.0901 14.19 14.0401 14.25 14.0401V14.0301ZM14.81 14.0301C14.8375 14.03 14.8641 14.0402 14.8844 14.0587C14.9048 14.0772 14.9175 14.1027 14.92 14.1301V14.1501C14.92 14.2101 14.87 14.2601 14.82 14.2601C14.8047 14.2615 14.7893 14.2597 14.7748 14.2548C14.7603 14.2499 14.747 14.242 14.7357 14.2316C14.7244 14.2213 14.7153 14.2087 14.7092 14.1946C14.7031 14.1806 14.6999 14.1654 14.7 14.1501C14.7 14.0901 14.75 14.0401 14.81 14.0401V14.0301ZM15.37 14.0301C15.3861 14.0285 15.4024 14.0306 15.4177 14.0361C15.4329 14.0415 15.4468 14.0503 15.4583 14.0618C15.4697 14.0733 15.4785 14.0871 15.484 14.1024C15.4895 14.1177 15.4915 14.1339 15.49 14.1501C15.49 14.2101 15.44 14.2601 15.37 14.2601C15.3408 14.2601 15.3128 14.2485 15.2922 14.2279C15.2716 14.2072 15.26 14.1793 15.26 14.1501C15.26 14.1209 15.2716 14.0929 15.2922 14.0723C15.3128 14.0517 15.3408 14.0401 15.37 14.0401V14.0301ZM15.94 14.0301C15.9544 14.0313 15.9685 14.0354 15.9814 14.0422C15.9943 14.0489 16.0057 14.0581 16.015 14.0693C16.0243 14.0804 16.0313 14.0933 16.0356 14.1072C16.0399 14.121 16.0414 14.1356 16.04 14.1501C16.04 14.2101 16 14.2601 15.94 14.2601C15.9247 14.2615 15.9093 14.2597 15.8948 14.2548C15.8803 14.2499 15.867 14.242 15.8557 14.2316C15.8444 14.2213 15.8353 14.2087 15.8292 14.1946C15.8231 14.1806 15.8199 14.1654 15.82 14.1501C15.82 14.0901 15.87 14.0401 15.94 14.0401V14.0301ZM16.5 14.0301C16.5153 14.03 16.5305 14.0332 16.5445 14.0393C16.5586 14.0454 16.5712 14.0545 16.5815 14.0658C16.5919 14.0771 16.5998 14.0904 16.6047 14.1049C16.6096 14.1194 16.6114 14.1348 16.61 14.1501C16.61 14.2101 16.56 14.2601 16.5 14.2601C16.4708 14.2601 16.4428 14.2485 16.4222 14.2279C16.4016 14.2072 16.39 14.1793 16.39 14.1501C16.39 14.1209 16.4016 14.0929 16.4222 14.0723C16.4428 14.0517 16.4708 14.0401 16.5 14.0401V14.0301ZM17.06 14.0301C17.0754 14.0308 17.0905 14.0347 17.1042 14.0416C17.118 14.0485 17.1302 14.0582 17.14 14.0701C17.1501 14.0807 17.1579 14.0933 17.1631 14.1071C17.1682 14.1208 17.1706 14.1354 17.17 14.1501C17.1701 14.1776 17.1599 14.2042 17.1414 14.2245C17.1229 14.2449 17.0974 14.2576 17.07 14.2601C17.0408 14.2614 17.0123 14.2511 16.9907 14.2314C16.9692 14.2117 16.9563 14.1843 16.955 14.1551C16.9537 14.1259 16.964 14.0974 16.9837 14.0758C17.0034 14.0543 17.0308 14.0414 17.06 14.0401V14.0301ZM17.62 14.0301C17.6429 14.0313 17.6649 14.0397 17.6828 14.054C17.7008 14.0684 17.7138 14.088 17.72 14.1101L17.74 14.1501C17.74 14.1654 17.7369 14.1806 17.7308 14.1946C17.7246 14.2087 17.7156 14.2213 17.7043 14.2316C17.693 14.242 17.6797 14.2499 17.6652 14.2548C17.6506 14.2597 17.6352 14.2615 17.62 14.2601C17.5908 14.2601 17.5628 14.2485 17.5422 14.2279C17.5216 14.2072 17.51 14.1793 17.51 14.1501C17.51 14.1209 17.5216 14.0929 17.5422 14.0723C17.5628 14.0517 17.5908 14.0401 17.62 14.0401V14.0301ZM18.19 14.0301C18.2129 14.0313 18.2349 14.0397 18.2528 14.054C18.2708 14.0684 18.2838 14.088 18.29 14.1101V14.1501C18.2901 14.1776 18.2799 14.2042 18.2614 14.2245C18.2429 14.2449 18.2174 14.2576 18.19 14.2601C18.1608 14.2601 18.1328 14.2485 18.1122 14.2279C18.0916 14.2072 18.08 14.1793 18.08 14.1501C18.08 14.1209 18.0916 14.0929 18.1122 14.0723C18.1328 14.0517 18.1608 14.0401 18.19 14.0401V14.0301ZM18.75 14.0301C18.7757 14.0323 18.7999 14.0436 18.8182 14.0619C18.8365 14.0802 18.8477 14.1043 18.85 14.1301V14.1501C18.85 14.2101 18.81 14.2601 18.75 14.2601C18.7208 14.2601 18.6928 14.2485 18.6722 14.2279C18.6516 14.2072 18.64 14.1793 18.64 14.1501C18.64 14.0901 18.69 14.0401 18.74 14.0401L18.75 14.0301ZM19.31 14.0301C19.3253 14.03 19.3405 14.0332 19.3545 14.0393C19.3686 14.0454 19.3812 14.0545 19.3915 14.0658C19.4019 14.0771 19.4098 14.0904 19.4147 14.1049C19.4196 14.1194 19.4214 14.1348 19.42 14.1501C19.42 14.2101 19.37 14.2601 19.32 14.2601C19.3047 14.2615 19.2893 14.2597 19.2748 14.2548C19.2603 14.2499 19.247 14.242 19.2357 14.2316C19.2244 14.2213 19.2153 14.2087 19.2092 14.1946C19.2031 14.1806 19.1999 14.1654 19.2 14.1501C19.2 14.0901 19.25 14.0401 19.31 14.0401V14.0301ZM19.87 14.0301C19.8853 14.03 19.9005 14.0332 19.9145 14.0393C19.9286 14.0454 19.9412 14.0545 19.9515 14.0658C19.9619 14.0771 19.9698 14.0904 19.9747 14.1049C19.9796 14.1194 19.9814 14.1348 19.98 14.1501C19.98 14.2101 19.93 14.2601 19.88 14.2601C19.8508 14.2601 19.8228 14.2485 19.8022 14.2279C19.7816 14.2072 19.77 14.1793 19.77 14.1501C19.77 14.1209 19.7816 14.0929 19.8022 14.0723C19.8228 14.0517 19.8508 14.0401 19.88 14.0401L19.87 14.0301ZM20.44 14.0301C20.4545 14.0313 20.4685 14.0354 20.4814 14.0422C20.4943 14.0489 20.5057 14.0581 20.515 14.0693C20.5243 14.0804 20.5313 14.0933 20.5356 14.1072C20.5399 14.121 20.5414 14.1356 20.54 14.1501C20.54 14.2101 20.5 14.2601 20.44 14.2601C20.4247 14.2615 20.4093 14.2597 20.3948 14.2548C20.3803 14.2499 20.367 14.242 20.3557 14.2316C20.3444 14.2213 20.3353 14.2087 20.3292 14.1946C20.3231 14.1806 20.3199 14.1654 20.32 14.1501C20.32 14.0901 20.37 14.0401 20.44 14.0401V14.0301ZM21 14.0301C21.0145 14.0313 21.0285 14.0354 21.0414 14.0422C21.0543 14.0489 21.0657 14.0581 21.075 14.0693C21.0843 14.0804 21.0913 14.0933 21.0956 14.1072C21.0999 14.121 21.1014 14.1356 21.1 14.1501C21.1 14.2101 21.06 14.2601 21 14.2601C20.9708 14.2601 20.9428 14.2485 20.9222 14.2279C20.9016 14.2072 20.89 14.1793 20.89 14.1501C20.89 14.1209 20.9016 14.0929 20.9222 14.0723C20.9428 14.0517 20.9708 14.0401 21 14.0401V14.0301ZM21.56 14.0301C21.5754 14.0308 21.5905 14.0347 21.6042 14.0416C21.618 14.0485 21.6302 14.0582 21.64 14.0701C21.6501 14.0807 21.6579 14.0933 21.6631 14.1071C21.6682 14.1208 21.6706 14.1354 21.67 14.1501C21.67 14.1793 21.6584 14.2072 21.6378 14.2279C21.6171 14.2485 21.5892 14.2601 21.56 14.2601C21.5308 14.2601 21.5028 14.2485 21.4822 14.2279C21.4616 14.2072 21.45 14.1793 21.45 14.1501C21.45 14.1209 21.4616 14.0929 21.4822 14.0723C21.5028 14.0517 21.5308 14.0401 21.56 14.0401V14.0301ZM22.12 14.0301C22.1429 14.0313 22.1649 14.0397 22.1828 14.054C22.2008 14.0684 22.2138 14.088 22.22 14.1101L22.23 14.1501C22.2301 14.1776 22.2199 14.2042 22.2014 14.2245C22.1829 14.2449 22.1574 14.2576 22.13 14.2601C22.1008 14.2601 22.0728 14.2485 22.0522 14.2279C22.0316 14.2072 22.02 14.1793 22.02 14.1501C22.02 14.1209 22.0316 14.0929 22.0522 14.0723C22.0728 14.0517 22.1008 14.0401 22.13 14.0401L22.12 14.0301ZM22.68 14.0301C22.7049 14.0257 22.7306 14.03 22.7527 14.0422C22.7748 14.0545 22.792 14.0741 22.8014 14.0975C22.8107 14.121 22.8118 14.147 22.8042 14.1712C22.7967 14.1953 22.7811 14.2161 22.76 14.2301C22.7493 14.2402 22.7368 14.248 22.723 14.2532C22.7093 14.2583 22.6946 14.2607 22.68 14.2601C22.6508 14.2601 22.6228 14.2485 22.6022 14.2279C22.5816 14.2072 22.57 14.1793 22.57 14.1501C22.57 14.1209 22.5816 14.0929 22.6022 14.0723C22.6228 14.0517 22.6508 14.0401 22.68 14.0401V14.0301ZM23.25 14.0301C23.3 14.0301 23.35 14.0801 23.35 14.1301V14.1501C23.35 14.2101 23.31 14.2601 23.25 14.2601C23.2208 14.2601 23.1928 14.2485 23.1722 14.2279C23.1516 14.2072 23.14 14.1793 23.14 14.1501C23.14 14.1209 23.1516 14.0929 23.1722 14.0723C23.1928 14.0517 23.2208 14.0401 23.25 14.0401V14.0301ZM23.81 14.0301C23.8357 14.0323 23.8599 14.0436 23.8782 14.0619C23.8965 14.0802 23.9077 14.1043 23.91 14.1301V14.1501C23.91 14.2101 23.87 14.2601 23.81 14.2601C23.7808 14.2601 23.7528 14.2485 23.7322 14.2279C23.7116 14.2072 23.7 14.1793 23.7 14.1501C23.7 14.0901 23.75 14.0401 23.8 14.0401L23.81 14.0301ZM24.37 14.0301C24.3853 14.03 24.4005 14.0332 24.4145 14.0393C24.4286 14.0454 24.4412 14.0545 24.4515 14.0658C24.4619 14.0771 24.4698 14.0904 24.4747 14.1049C24.4796 14.1194 24.4814 14.1348 24.48 14.1501C24.48 14.2101 24.43 14.2601 24.38 14.2601C24.3647 14.2615 24.3493 14.2597 24.3348 14.2548C24.3203 14.2499 24.307 14.242 24.2957 14.2316C24.2844 14.2213 24.2753 14.2087 24.2692 14.1946C24.2631 14.1806 24.2599 14.1654 24.26 14.1501C24.26 14.0901 24.31 14.0401 24.37 14.0401V14.0301ZM24.93 14.0301C24.9453 14.03 24.9605 14.0332 24.9745 14.0393C24.9886 14.0454 25.0012 14.0545 25.0115 14.0658C25.0219 14.0771 25.0298 14.0904 25.0347 14.1049C25.0396 14.1194 25.0414 14.1348 25.04 14.1501C25.04 14.2101 24.99 14.2601 24.94 14.2601C24.9247 14.2615 24.9093 14.2597 24.8948 14.2548C24.8803 14.2499 24.867 14.242 24.8557 14.2316C24.8444 14.2213 24.8353 14.2087 24.8292 14.1946C24.8231 14.1806 24.8199 14.1654 24.82 14.1501C24.82 14.0901 24.87 14.0401 24.93 14.0401V14.0301ZM25.49 14.0301C25.5129 14.0313 25.5349 14.0397 25.5528 14.054C25.5708 14.0684 25.5838 14.088 25.59 14.1101L25.61 14.1501C25.61 14.1654 25.6069 14.1806 25.6008 14.1946C25.5946 14.2087 25.5856 14.2213 25.5743 14.2316C25.563 14.242 25.5497 14.2499 25.5352 14.2548C25.5206 14.2597 25.5052 14.2615 25.49 14.2601C25.4608 14.2601 25.4328 14.2485 25.4122 14.2279C25.3916 14.2072 25.38 14.1793 25.38 14.1501C25.38 14.1209 25.3916 14.0929 25.4122 14.0723C25.4328 14.0517 25.4608 14.0401 25.49 14.0401V14.0301ZM26.06 14.0301C26.0829 14.0313 26.1049 14.0397 26.1228 14.054C26.1408 14.0684 26.1538 14.088 26.16 14.1101L26.17 14.1501C26.17 14.1793 26.1584 14.2072 26.1378 14.2279C26.1171 14.2485 26.0892 14.2601 26.06 14.2601C26.0308 14.2601 26.0028 14.2485 25.9822 14.2279C25.9616 14.2072 25.95 14.1793 25.95 14.1501C25.95 14.1209 25.9616 14.0929 25.9822 14.0723C26.0028 14.0517 26.0308 14.0401 26.06 14.0401V14.0301ZM26.62 14.0301C26.6429 14.0313 26.6649 14.0397 26.6828 14.054C26.7008 14.0684 26.7138 14.088 26.72 14.1101L26.73 14.1501C26.73 14.1793 26.7184 14.2072 26.6978 14.2279C26.6771 14.2485 26.6492 14.2601 26.62 14.2601C26.5908 14.2601 26.5628 14.2485 26.5422 14.2279C26.5216 14.2072 26.51 14.1793 26.51 14.1501C26.51 14.1209 26.5216 14.0929 26.5422 14.0723C26.5628 14.0517 26.5908 14.0401 26.62 14.0401V14.0301ZM27.18 14.0301C27.24 14.0301 27.3 14.0901 27.3 14.1501C27.3 14.1654 27.2969 14.1806 27.2908 14.1946C27.2846 14.2087 27.2756 14.2213 27.2643 14.2316C27.253 14.242 27.2397 14.2499 27.2252 14.2548C27.2106 14.2597 27.1952 14.2615 27.18 14.2601C27.1508 14.2601 27.1228 14.2485 27.1022 14.2279C27.0816 14.2072 27.07 14.1793 27.07 14.1501C27.07 14.1209 27.0816 14.0929 27.1022 14.0723C27.1228 14.0517 27.1508 14.0401 27.18 14.0401V14.0301ZM27.74 14.0301C27.7544 14.0287 27.769 14.0302 27.7829 14.0345C27.7968 14.0388 27.8097 14.0458 27.8208 14.0551C27.832 14.0644 27.8412 14.0758 27.8479 14.0887C27.8546 14.1015 27.8587 14.1156 27.86 14.1301V14.1501C27.86 14.2101 27.81 14.2601 27.75 14.2601C27.7208 14.2601 27.6928 14.2485 27.6722 14.2279C27.6516 14.2072 27.64 14.1793 27.64 14.1501C27.64 14.1209 27.6516 14.0929 27.6722 14.0723C27.6928 14.0517 27.7208 14.0401 27.75 14.0401L27.74 14.0301ZM28.31 14.0301C28.37 14.0301 28.41 14.0801 28.41 14.1401V14.1501C28.41 14.2101 28.37 14.2601 28.31 14.2601C28.2947 14.2615 28.2793 14.2597 28.2648 14.2548C28.2503 14.2499 28.237 14.242 28.2257 14.2316C28.2144 14.2213 28.2053 14.2087 28.1992 14.1946C28.1931 14.1806 28.1899 14.1654 28.19 14.1501C28.19 14.0901 28.24 14.0401 28.31 14.0401V14.0301ZM28.87 14.0301C28.93 14.0301 28.97 14.0801 28.98 14.1401V14.1501C28.98 14.2101 28.93 14.2601 28.87 14.2601C28.8553 14.2607 28.8407 14.2583 28.827 14.2532C28.8132 14.248 28.8006 14.2402 28.79 14.2301C28.7799 14.2194 28.7721 14.2069 28.7669 14.1931C28.7617 14.1794 28.7594 14.1647 28.76 14.1501C28.76 14.0901 28.81 14.0401 28.86 14.0401L28.87 14.0301ZM29.43 14.0301C29.4453 14.03 29.4605 14.0332 29.4745 14.0393C29.4886 14.0454 29.5012 14.0545 29.5115 14.0658C29.5219 14.0771 29.5298 14.0904 29.5347 14.1049C29.5396 14.1194 29.5414 14.1348 29.54 14.1501C29.54 14.2101 29.49 14.2601 29.44 14.2601C29.4247 14.2615 29.4093 14.2597 29.3948 14.2548C29.3803 14.2499 29.367 14.242 29.3557 14.2316C29.3444 14.2213 29.3353 14.2087 29.3292 14.1946C29.3231 14.1806 29.3199 14.1654 29.32 14.1501C29.32 14.0901 29.37 14.0401 29.43 14.0401V14.0301ZM29.99 14.0301C30.0129 14.0313 30.0349 14.0397 30.0528 14.054C30.0708 14.0684 30.0838 14.088 30.09 14.1101L30.11 14.1501C30.11 14.1654 30.1069 14.1806 30.1008 14.1946C30.0946 14.2087 30.0856 14.2213 30.0743 14.2316C30.063 14.242 30.0497 14.2499 30.0352 14.2548C30.0206 14.2597 30.0052 14.2615 29.99 14.2601C29.9608 14.2601 29.9328 14.2485 29.9122 14.2279C29.8916 14.2072 29.88 14.1793 29.88 14.1501C29.88 14.1209 29.8916 14.0929 29.9122 14.0723C29.9328 14.0517 29.9608 14.0401 29.99 14.0401V14.0301ZM30.56 14.0301C30.61 14.0301 30.66 14.0801 30.66 14.1401V14.1501C30.6601 14.1776 30.6499 14.2042 30.6314 14.2245C30.6129 14.2449 30.5874 14.2576 30.56 14.2601C30.5308 14.2601 30.5028 14.2485 30.4822 14.2279C30.4616 14.2072 30.45 14.1793 30.45 14.1501C30.45 14.1209 30.4616 14.0929 30.4822 14.0723C30.5028 14.0517 30.5308 14.0401 30.56 14.0401V14.0301ZM31.12 14.0301C31.18 14.0301 31.22 14.0801 31.23 14.1401V14.1501C31.23 14.1793 31.2184 14.2072 31.1978 14.2279C31.1771 14.2485 31.1492 14.2601 31.12 14.2601C31.0908 14.2601 31.0628 14.2485 31.0422 14.2279C31.0216 14.2072 31.01 14.1793 31.01 14.1501C31.01 14.1209 31.0216 14.0929 31.0422 14.0723C31.0628 14.0517 31.0908 14.0401 31.12 14.0401V14.0301ZM31.68 14.0301C31.7075 14.03 31.7341 14.0402 31.7544 14.0587C31.7748 14.0772 31.7875 14.1027 31.79 14.1301V14.1501C31.79 14.2101 31.74 14.2601 31.68 14.2601C31.6508 14.2601 31.6228 14.2485 31.6022 14.2279C31.5816 14.2072 31.57 14.1793 31.57 14.1501C31.57 14.1209 31.5816 14.0929 31.6022 14.0723C31.6228 14.0517 31.6508 14.0401 31.68 14.0401V14.0301ZM32.24 14.0301C32.2675 14.03 32.2941 14.0402 32.3144 14.0587C32.3348 14.0772 32.3475 14.1027 32.35 14.1301V14.1501C32.35 14.2101 32.3 14.2601 32.25 14.2601C32.2347 14.2615 32.2193 14.2597 32.2048 14.2548C32.1903 14.2499 32.1769 14.242 32.1657 14.2316C32.1544 14.2213 32.1453 14.2087 32.1392 14.1946C32.1331 14.1806 32.1299 14.1654 32.13 14.1501C32.13 14.0901 32.18 14.0401 32.24 14.0401V14.0301ZM32.8 14.0301C32.8161 14.0285 32.8324 14.0306 32.8477 14.0361C32.8629 14.0415 32.8768 14.0503 32.8883 14.0618C32.8997 14.0733 32.9085 14.0871 32.914 14.1024C32.9195 14.1177 32.9215 14.1339 32.92 14.1501C32.92 14.2101 32.87 14.2601 32.8 14.2601C32.7726 14.2576 32.7471 14.2449 32.7286 14.2245C32.7101 14.2042 32.6999 14.1776 32.7 14.1501C32.7 14.0901 32.74 14.0401 32.8 14.0401V14.0301ZM33.37 14.0301C33.3844 14.0313 33.3985 14.0354 33.4114 14.0422C33.4243 14.0489 33.4357 14.0581 33.445 14.0693C33.4543 14.0804 33.4613 14.0933 33.4656 14.1072C33.4699 14.121 33.4714 14.1356 33.47 14.1501C33.47 14.2101 33.43 14.2601 33.37 14.2601C33.3547 14.2615 33.3393 14.2597 33.3248 14.2548C33.3103 14.2499 33.297 14.242 33.2857 14.2316C33.2744 14.2213 33.2653 14.2087 33.2592 14.1946C33.2531 14.1806 33.2499 14.1654 33.25 14.1501C33.25 14.0901 33.3 14.0401 33.37 14.0401V14.0301ZM33.93 14.0301C33.9453 14.03 33.9605 14.0332 33.9745 14.0393C33.9886 14.0454 34.0012 14.0545 34.0115 14.0658C34.0219 14.0771 34.0298 14.0904 34.0347 14.1049C34.0396 14.1194 34.0414 14.1348 34.04 14.1501C34.04 14.2101 33.99 14.2601 33.93 14.2601C33.9008 14.2601 33.8728 14.2485 33.8522 14.2279C33.8316 14.2072 33.82 14.1793 33.82 14.1501C33.82 14.0901 33.87 14.0401 33.93 14.0401V14.0301ZM34.49 14.0301C34.5129 14.0313 34.5349 14.0397 34.5528 14.054C34.5708 14.0684 34.5838 14.088 34.59 14.1101L34.6 14.1501C34.6 14.1793 34.5884 14.2072 34.5678 14.2279C34.5471 14.2485 34.5192 14.2601 34.49 14.2601C34.4608 14.2601 34.4328 14.2485 34.4122 14.2279C34.3916 14.2072 34.38 14.1793 34.38 14.1501C34.38 14.1209 34.3916 14.0929 34.4122 14.0723C34.4328 14.0517 34.4608 14.0401 34.49 14.0401V14.0301ZM16.31 15.7001C16.7343 15.7001 17.1413 15.8687 17.4414 16.1687C17.7414 16.4688 17.91 16.8757 17.91 17.3001C17.91 17.7244 17.7414 18.1314 17.4414 18.4315C17.1413 18.7315 16.7343 18.9001 16.31 18.9001C15.8856 18.9001 15.4787 18.7315 15.1786 18.4315C14.8786 18.1314 14.71 17.7244 14.71 17.3001C14.71 16.8757 14.8786 16.4688 15.1786 16.1687C15.4787 15.8687 15.8856 15.7001 16.31 15.7001ZM20.14 15.7001C20.5643 15.7001 20.9713 15.8687 21.2714 16.1687C21.5714 16.4688 21.74 16.8757 21.74 17.3001C21.74 17.7244 21.5714 18.1314 21.2714 18.4315C20.9713 18.7315 20.5643 18.9001 20.14 18.9001C19.7156 18.9001 19.3087 18.7315 19.0086 18.4315C18.7086 18.1314 18.54 17.7244 18.54 17.3001C18.54 16.8757 18.7086 16.4688 19.0086 16.1687C19.3087 15.8687 19.7156 15.7001 20.14 15.7001ZM23.98 15.7001C24.4043 15.7001 24.8113 15.8687 25.1114 16.1687C25.4114 16.4688 25.58 16.8757 25.58 17.3001C25.58 17.7244 25.4114 18.1314 25.1114 18.4315C24.8113 18.7315 24.4043 18.9001 23.98 18.9001C23.5556 18.9001 23.1487 18.7315 22.8486 18.4315C22.5486 18.1314 22.38 17.7244 22.38 17.3001C22.38 16.8757 22.5486 16.4688 22.8486 16.1687C23.1487 15.8687 23.5556 15.7001 23.98 15.7001ZM27.81 15.7001C28.2343 15.7001 28.6413 15.8687 28.9414 16.1687C29.2414 16.4688 29.41 16.8757 29.41 17.3001C29.41 17.7244 29.2414 18.1314 28.9414 18.4315C28.6413 18.7315 28.2343 18.9001 27.81 18.9001C27.3856 18.9001 26.9787 18.7315 26.6786 18.4315C26.3786 18.1314 26.21 17.7244 26.21 17.3001C26.21 16.8757 26.3786 16.4688 26.6786 16.1687C26.9787 15.8687 27.3856 15.7001 27.81 15.7001ZM31.65 15.7001C32.0743 15.7001 32.4813 15.8687 32.7814 16.1687C33.0814 16.4688 33.25 16.8757 33.25 17.3001C33.25 17.7244 33.0814 18.1314 32.7814 18.4315C32.4813 18.7315 32.0743 18.9001 31.65 18.9001C31.2256 18.9001 30.8187 18.7315 30.5186 18.4315C30.2186 18.1314 30.05 17.7244 30.05 17.3001C30.05 16.8757 30.2186 16.4688 30.5186 16.1687C30.8187 15.8687 31.2256 15.7001 31.65 15.7001ZM13.69 20.6801C13.7124 20.6791 13.7346 20.6851 13.7535 20.6971C13.7724 20.7091 13.7873 20.7266 13.796 20.7473C13.8047 20.768 13.8068 20.7908 13.8022 20.8128C13.7976 20.8347 13.7863 20.8547 13.77 20.8701C13.7593 20.8802 13.7468 20.888 13.733 20.8932C13.7193 20.8983 13.7046 20.9007 13.69 20.9001C13.6608 20.9001 13.6328 20.8885 13.6122 20.8679C13.5916 20.8472 13.58 20.8193 13.58 20.7901C13.58 20.7301 13.63 20.6801 13.68 20.6801H13.69ZM14.25 20.6801C14.276 20.6797 14.3013 20.6885 14.3215 20.7049C14.3416 20.7214 14.3553 20.7445 14.36 20.7701V20.7901C14.36 20.8501 14.31 20.9001 14.25 20.9001C14.2208 20.9001 14.1928 20.8885 14.1722 20.8679C14.1516 20.8472 14.14 20.8193 14.14 20.7901C14.14 20.7301 14.19 20.6801 14.25 20.6801ZM14.81 20.6801C14.836 20.6797 14.8613 20.6885 14.8815 20.7049C14.9016 20.7214 14.9153 20.7445 14.92 20.7701V20.7901C14.92 20.8501 14.87 20.9001 14.82 20.9001C14.8047 20.9015 14.7893 20.8997 14.7748 20.8948C14.7603 20.8899 14.747 20.882 14.7357 20.8716C14.7244 20.8613 14.7153 20.8487 14.7092 20.8346C14.7031 20.8206 14.6999 20.8054 14.7 20.7901C14.7 20.7301 14.75 20.6701 14.81 20.6801ZM15.37 20.6801C15.3844 20.6787 15.399 20.6802 15.4129 20.6845C15.4268 20.6888 15.4397 20.6958 15.4508 20.7051C15.462 20.7144 15.4712 20.7258 15.4779 20.7387C15.4846 20.7515 15.4887 20.7656 15.49 20.7801C15.49 20.8501 15.44 20.9001 15.37 20.9001C15.3408 20.9001 15.3128 20.8885 15.2922 20.8679C15.2716 20.8472 15.26 20.8193 15.26 20.7901C15.26 20.7609 15.2716 20.7329 15.2922 20.7123C15.3128 20.6917 15.3408 20.6801 15.37 20.6801ZM15.94 20.6801C15.9657 20.6823 15.9899 20.6936 16.0082 20.7119C16.0265 20.7302 16.0377 20.7543 16.04 20.7801C16.04 20.8501 16 20.9001 15.94 20.9001C15.9247 20.9015 15.9093 20.8997 15.8948 20.8948C15.8803 20.8899 15.867 20.882 15.8557 20.8716C15.8444 20.8613 15.8353 20.8487 15.8292 20.8346C15.8231 20.8206 15.8199 20.8054 15.82 20.7901C15.82 20.7301 15.87 20.6701 15.94 20.6801ZM16.5 20.6801C16.5275 20.68 16.5541 20.6902 16.5744 20.7087C16.5948 20.7272 16.6075 20.7527 16.61 20.7801C16.61 20.8501 16.56 20.9001 16.5 20.9001C16.4708 20.9001 16.4428 20.8885 16.4222 20.8679C16.4016 20.8472 16.39 20.8193 16.39 20.7901C16.39 20.7609 16.4016 20.7329 16.4222 20.7123C16.4428 20.6917 16.4708 20.6801 16.5 20.6801ZM17.06 20.6801C17.0875 20.68 17.1141 20.6902 17.1344 20.7087C17.1548 20.7272 17.1675 20.7527 17.17 20.7801C17.1714 20.7945 17.1699 20.8091 17.1656 20.823C17.1613 20.8369 17.1543 20.8498 17.145 20.8609C17.1357 20.8721 17.1243 20.8813 17.1114 20.888C17.0985 20.8947 17.0845 20.8988 17.07 20.9001C17.0408 20.9014 17.0123 20.8911 16.9907 20.8714C16.9692 20.8517 16.9563 20.8243 16.955 20.7951C16.9537 20.7659 16.964 20.7374 16.9837 20.7158C17.0034 20.6943 17.0308 20.6814 17.06 20.6801ZM17.62 20.6801C17.6417 20.6806 17.6628 20.6875 17.6806 20.6999C17.6984 20.7124 17.7121 20.7298 17.72 20.7501L17.74 20.7901C17.74 20.8054 17.7369 20.8206 17.7308 20.8346C17.7246 20.8487 17.7156 20.8613 17.7043 20.8716C17.693 20.882 17.6797 20.8899 17.6652 20.8948C17.6506 20.8997 17.6352 20.9015 17.62 20.9001C17.5908 20.9001 17.5628 20.8885 17.5422 20.8679C17.5216 20.8472 17.51 20.8193 17.51 20.7901C17.51 20.7609 17.5216 20.7329 17.5422 20.7123C17.5628 20.6917 17.5908 20.6801 17.62 20.6801ZM18.19 20.6801C18.2117 20.6806 18.2328 20.6875 18.2506 20.6999C18.2684 20.7124 18.2821 20.7298 18.29 20.7501V20.7901C18.2901 20.8176 18.2799 20.8442 18.2614 20.8645C18.2429 20.8849 18.2174 20.8976 18.19 20.9001C18.1608 20.9001 18.1328 20.8885 18.1122 20.8679C18.0916 20.8472 18.08 20.8193 18.08 20.7901C18.08 20.7609 18.0916 20.7329 18.1122 20.7123C18.1328 20.6917 18.1608 20.6801 18.19 20.6801ZM18.75 20.6801C18.7743 20.6819 18.7972 20.6917 18.8153 20.708C18.8334 20.7243 18.8456 20.7461 18.85 20.7701V20.7901C18.85 20.8501 18.81 20.9001 18.75 20.9001C18.7208 20.9001 18.6928 20.8885 18.6722 20.8679C18.6516 20.8472 18.64 20.8193 18.64 20.7901C18.64 20.7301 18.69 20.6801 18.74 20.6801H18.75ZM19.31 20.6801C19.3375 20.68 19.3641 20.6902 19.3844 20.7087C19.4048 20.7272 19.4175 20.7527 19.42 20.7801C19.42 20.8501 19.37 20.9001 19.32 20.9001C19.3047 20.9015 19.2893 20.8997 19.2748 20.8948C19.2603 20.8899 19.247 20.882 19.2357 20.8716C19.2244 20.8613 19.2153 20.8487 19.2092 20.8346C19.2031 20.8206 19.1999 20.8054 19.2 20.7901C19.2 20.7301 19.25 20.6701 19.31 20.6801ZM19.87 20.6801C19.8975 20.68 19.9241 20.6902 19.9444 20.7087C19.9648 20.7272 19.9775 20.7527 19.98 20.7801C19.98 20.8501 19.93 20.9001 19.88 20.9001C19.8508 20.9001 19.8228 20.8885 19.8022 20.8679C19.7816 20.8472 19.77 20.8193 19.77 20.7901C19.77 20.7609 19.7816 20.7329 19.8022 20.7123C19.8228 20.6917 19.8508 20.6801 19.88 20.6801H19.87ZM20.44 20.6801C20.4657 20.6823 20.4899 20.6936 20.5082 20.7119C20.5265 20.7302 20.5377 20.7543 20.54 20.7801C20.54 20.8501 20.5 20.9001 20.44 20.9001C20.4253 20.9007 20.4107 20.8983 20.397 20.8932C20.3832 20.888 20.3706 20.8802 20.36 20.8701C20.3481 20.8603 20.3384 20.8481 20.3315 20.8343C20.3246 20.8206 20.3207 20.8055 20.32 20.7901C20.32 20.7301 20.37 20.6701 20.44 20.6801ZM21 20.6801C21.0257 20.6823 21.0499 20.6936 21.0682 20.7119C21.0865 20.7302 21.0977 20.7543 21.1 20.7801C21.1 20.8501 21.06 20.9001 21 20.9001C20.9708 20.9001 20.9428 20.8885 20.9222 20.8679C20.9016 20.8472 20.89 20.8193 20.89 20.7901C20.89 20.7609 20.9016 20.7329 20.9222 20.7123C20.9428 20.6917 20.9708 20.6801 21 20.6801ZM21.56 20.6801C21.5875 20.68 21.6141 20.6902 21.6344 20.7087C21.6548 20.7272 21.6675 20.7527 21.67 20.7801C21.6714 20.7954 21.6696 20.8107 21.6647 20.8253C21.6598 20.8398 21.6519 20.8531 21.6415 20.8644C21.6312 20.8757 21.6186 20.8847 21.6045 20.8909C21.5905 20.897 21.5753 20.9002 21.56 20.9001C21.5308 20.9001 21.5028 20.8885 21.4822 20.8679C21.4616 20.8472 21.45 20.8193 21.45 20.7901C21.45 20.7609 21.4616 20.7329 21.4822 20.7123C21.5028 20.6917 21.5308 20.6801 21.56 20.6801ZM22.12 20.6801C22.1417 20.6806 22.1628 20.6875 22.1806 20.6999C22.1984 20.7124 22.2121 20.7298 22.22 20.7501L22.23 20.7901C22.2301 20.8176 22.2199 20.8442 22.2014 20.8645C22.1829 20.8849 22.1574 20.8976 22.13 20.9001C22.1008 20.9001 22.0728 20.8885 22.0522 20.8679C22.0316 20.8472 22.02 20.8193 22.02 20.7901C22.02 20.7609 22.0316 20.7329 22.0522 20.7123C22.0728 20.6917 22.1008 20.6801 22.13 20.6801H22.12ZM22.68 20.6801C22.7024 20.6791 22.7246 20.6851 22.7435 20.6971C22.7624 20.7091 22.7773 20.7266 22.786 20.7473C22.7947 20.768 22.7968 20.7908 22.7922 20.8128C22.7876 20.8347 22.7763 20.8547 22.76 20.8701C22.7493 20.8802 22.7368 20.888 22.723 20.8932C22.7093 20.8983 22.6946 20.9007 22.68 20.9001C22.6508 20.9001 22.6228 20.8885 22.6022 20.8679C22.5816 20.8472 22.57 20.8193 22.57 20.7901C22.57 20.7609 22.5816 20.7329 22.6022 20.7123C22.6228 20.6917 22.6508 20.6801 22.68 20.6801ZM23.25 20.6801C23.3 20.6801 23.35 20.7201 23.35 20.7701V20.7901C23.35 20.8501 23.31 20.9001 23.25 20.9001C23.2208 20.9001 23.1928 20.8885 23.1722 20.8679C23.1516 20.8472 23.14 20.8193 23.14 20.7901C23.14 20.7609 23.1516 20.7329 23.1722 20.7123C23.1928 20.6917 23.2208 20.6801 23.25 20.6801ZM23.81 20.6801C23.8343 20.6819 23.8572 20.6917 23.8753 20.708C23.8934 20.7243 23.9056 20.7461 23.91 20.7701V20.7901C23.91 20.8501 23.87 20.9001 23.81 20.9001C23.7953 20.9007 23.7807 20.8983 23.767 20.8932C23.7532 20.888 23.7406 20.8802 23.73 20.8701C23.7181 20.8603 23.7084 20.8481 23.7015 20.8343C23.6946 20.8206 23.6907 20.8055 23.69 20.7901C23.69 20.7301 23.74 20.6701 23.81 20.6801ZM24.37 20.6801C24.3975 20.68 24.4241 20.6902 24.4444 20.7087C24.4648 20.7272 24.4775 20.7527 24.48 20.7801C24.48 20.8501 24.43 20.9001 24.38 20.9001C24.3647 20.9015 24.3493 20.8997 24.3348 20.8948C24.3203 20.8899 24.307 20.882 24.2957 20.8716C24.2844 20.8613 24.2753 20.8487 24.2692 20.8346C24.2631 20.8206 24.2599 20.8054 24.26 20.7901C24.26 20.7301 24.31 20.6701 24.37 20.6801ZM24.93 20.6801C24.9575 20.68 24.9841 20.6902 25.0044 20.7087C25.0248 20.7272 25.0375 20.7527 25.04 20.7801C25.04 20.8501 24.99 20.9001 24.94 20.9001C24.9247 20.9015 24.9093 20.8997 24.8948 20.8948C24.8803 20.8899 24.867 20.882 24.8557 20.8716C24.8444 20.8613 24.8353 20.8487 24.8292 20.8346C24.8231 20.8206 24.8199 20.8054 24.82 20.7901C24.82 20.7301 24.87 20.6701 24.93 20.6801ZM25.49 20.6801C25.5117 20.6806 25.5328 20.6875 25.5506 20.6999C25.5684 20.7124 25.5821 20.7298 25.59 20.7501L25.61 20.7901C25.61 20.8054 25.6069 20.8206 25.6008 20.8346C25.5946 20.8487 25.5856 20.8613 25.5743 20.8716C25.563 20.882 25.5497 20.8899 25.5352 20.8948C25.5206 20.8997 25.5052 20.9015 25.49 20.9001C25.4608 20.9001 25.4328 20.8885 25.4122 20.8679C25.3916 20.8472 25.38 20.8193 25.38 20.7901C25.38 20.7609 25.3916 20.7329 25.4122 20.7123C25.4328 20.6917 25.4608 20.6801 25.49 20.6801ZM26.06 20.6801C26.0817 20.6806 26.1028 20.6875 26.1206 20.6999C26.1384 20.7124 26.1521 20.7298 26.16 20.7501L26.17 20.7901C26.17 20.8193 26.1584 20.8472 26.1378 20.8679C26.1171 20.8885 26.0892 20.9001 26.06 20.9001C26.0308 20.9001 26.0028 20.8885 25.9822 20.8679C25.9616 20.8472 25.95 20.8193 25.95 20.7901C25.95 20.7609 25.9616 20.7329 25.9822 20.7123C26.0028 20.6917 26.0308 20.6801 26.06 20.6801ZM26.62 20.6801C26.6417 20.6806 26.6628 20.6875 26.6806 20.6999C26.6984 20.7124 26.7121 20.7298 26.72 20.7501L26.73 20.7901C26.73 20.8193 26.7184 20.8472 26.6978 20.8679C26.6771 20.8885 26.6492 20.9001 26.62 20.9001C26.5908 20.9001 26.5628 20.8885 26.5422 20.8679C26.5216 20.8472 26.51 20.8193 26.51 20.7901C26.51 20.7609 26.5216 20.7329 26.5422 20.7123C26.5628 20.6917 26.5908 20.6801 26.62 20.6801ZM27.18 20.6801C27.24 20.6801 27.3 20.7301 27.3 20.7801C27.3015 20.7962 27.2995 20.8125 27.294 20.8278C27.2885 20.843 27.2797 20.8569 27.2683 20.8684C27.2568 20.8798 27.2429 20.8886 27.2277 20.8941C27.2124 20.8996 27.1961 20.9016 27.18 20.9001C27.1508 20.9001 27.1228 20.8885 27.1022 20.8679C27.0816 20.8472 27.07 20.8193 27.07 20.7901C27.07 20.7609 27.0816 20.7329 27.1022 20.7123C27.1228 20.6917 27.1508 20.6801 27.18 20.6801ZM27.74 20.6801C27.7677 20.6771 27.7954 20.6848 27.8177 20.7015C27.84 20.7182 27.8551 20.7427 27.86 20.7701V20.7901C27.86 20.8501 27.81 20.9001 27.75 20.9001C27.7208 20.9001 27.6928 20.8885 27.6722 20.8679C27.6516 20.8472 27.64 20.8193 27.64 20.7901C27.64 20.7609 27.6516 20.7329 27.6722 20.7123C27.6928 20.6917 27.7208 20.6801 27.75 20.6801H27.74ZM28.31 20.6801C28.37 20.6801 28.41 20.7201 28.41 20.7801C28.41 20.8501 28.37 20.9001 28.31 20.9001C28.2947 20.9015 28.2793 20.8997 28.2648 20.8948C28.2503 20.8899 28.237 20.882 28.2257 20.8716C28.2144 20.8613 28.2053 20.8487 28.1992 20.8346C28.1931 20.8206 28.1899 20.8054 28.19 20.7901C28.19 20.7301 28.24 20.6701 28.31 20.6801ZM28.87 20.6801C28.93 20.6801 28.97 20.7201 28.98 20.7801C28.98 20.8501 28.93 20.9001 28.87 20.9001C28.8553 20.9007 28.8407 20.8983 28.827 20.8932C28.8132 20.888 28.8006 20.8802 28.79 20.8701C28.7799 20.8594 28.7721 20.8469 28.7669 20.8331C28.7617 20.8194 28.7594 20.8048 28.76 20.7901C28.76 20.7301 28.81 20.6701 28.86 20.6801H28.87ZM29.43 20.6801C29.4575 20.68 29.4841 20.6902 29.5044 20.7087C29.5248 20.7272 29.5375 20.7527 29.54 20.7801C29.54 20.8501 29.49 20.9001 29.44 20.9001C29.4247 20.9015 29.4093 20.8997 29.3948 20.8948C29.3803 20.8899 29.367 20.882 29.3557 20.8716C29.3444 20.8613 29.3353 20.8487 29.3292 20.8346C29.3231 20.8206 29.3199 20.8054 29.32 20.7901C29.32 20.7301 29.37 20.6701 29.43 20.6801ZM29.99 20.6801C30.0117 20.6806 30.0328 20.6875 30.0506 20.6999C30.0684 20.7124 30.0821 20.7298 30.09 20.7501L30.11 20.7901C30.11 20.8054 30.1069 20.8206 30.1008 20.8346C30.0946 20.8487 30.0856 20.8613 30.0743 20.8716C30.063 20.882 30.0497 20.8899 30.0352 20.8948C30.0206 20.8997 30.0052 20.9015 29.99 20.9001C29.9608 20.9001 29.9328 20.8885 29.9122 20.8679C29.8916 20.8472 29.88 20.8193 29.88 20.7901C29.88 20.7609 29.8916 20.7329 29.9122 20.7123C29.9328 20.6917 29.9608 20.6801 29.99 20.6801ZM30.56 20.6801C30.61 20.6801 30.66 20.7201 30.66 20.7801C30.6614 20.7945 30.6599 20.8091 30.6556 20.823C30.6513 20.8369 30.6443 20.8498 30.635 20.8609C30.6257 20.8721 30.6143 20.8813 30.6014 20.888C30.5885 20.8947 30.5744 20.8988 30.56 20.9001C30.5308 20.9001 30.5028 20.8885 30.4822 20.8679C30.4616 20.8472 30.45 20.8193 30.45 20.7901C30.45 20.7609 30.4616 20.7329 30.4822 20.7123C30.5028 20.6917 30.5308 20.6801 30.56 20.6801ZM31.12 20.6801C31.18 20.6801 31.22 20.7201 31.23 20.7801C31.2314 20.7954 31.2296 20.8107 31.2247 20.8253C31.2198 20.8398 31.2119 20.8531 31.2015 20.8644C31.1912 20.8757 31.1786 20.8847 31.1645 20.8909C31.1505 20.897 31.1353 20.9002 31.12 20.9001C31.0908 20.9001 31.0628 20.8885 31.0422 20.8679C31.0216 20.8472 31.01 20.8193 31.01 20.7901C31.01 20.7609 31.0216 20.7329 31.0422 20.7123C31.0628 20.6917 31.0908 20.6801 31.12 20.6801ZM31.68 20.6801C31.706 20.6797 31.7313 20.6885 31.7515 20.7049C31.7716 20.7214 31.7853 20.7445 31.79 20.7701V20.7901C31.79 20.8501 31.74 20.9001 31.68 20.9001C31.6508 20.9001 31.6228 20.8885 31.6022 20.8679C31.5816 20.8472 31.57 20.8193 31.57 20.7901C31.57 20.7609 31.5816 20.7329 31.6022 20.7123C31.6228 20.6917 31.6508 20.6801 31.68 20.6801ZM32.24 20.6801C32.266 20.6797 32.2913 20.6885 32.3115 20.7049C32.3316 20.7214 32.3453 20.7445 32.35 20.7701V20.7901C32.35 20.8501 32.3 20.9001 32.25 20.9001C32.2347 20.9015 32.2193 20.8997 32.2048 20.8948C32.1903 20.8899 32.1769 20.882 32.1657 20.8716C32.1544 20.8613 32.1453 20.8487 32.1392 20.8346C32.1331 20.8206 32.1299 20.8054 32.13 20.7901C32.13 20.7301 32.18 20.6701 32.24 20.6801ZM32.8 20.6801C32.8144 20.6787 32.829 20.6802 32.8429 20.6845C32.8568 20.6888 32.8697 20.6958 32.8808 20.7051C32.892 20.7144 32.9012 20.7258 32.9079 20.7387C32.9146 20.7515 32.9187 20.7656 32.92 20.7801C32.92 20.8501 32.87 20.9001 32.8 20.9001C32.7726 20.8976 32.7471 20.8849 32.7286 20.8645C32.7101 20.8442 32.6999 20.8176 32.7 20.7901C32.7 20.7301 32.74 20.6701 32.8 20.6801ZM33.37 20.6801C33.3957 20.6823 33.4199 20.6936 33.4382 20.7119C33.4565 20.7302 33.4677 20.7543 33.47 20.7801C33.47 20.8501 33.43 20.9001 33.37 20.9001C33.3547 20.9015 33.3393 20.8997 33.3248 20.8948C33.3103 20.8899 33.297 20.882 33.2857 20.8716C33.2744 20.8613 33.2653 20.8487 33.2592 20.8346C33.2531 20.8206 33.2499 20.8054 33.25 20.7901C33.25 20.7301 33.3 20.6701 33.37 20.6801ZM33.93 20.6801C33.9575 20.68 33.9841 20.6902 34.0044 20.7087C34.0248 20.7272 34.0375 20.7527 34.04 20.7801C34.04 20.8501 33.99 20.9001 33.93 20.9001C33.9008 20.9001 33.8728 20.8885 33.8522 20.8679C33.8316 20.8472 33.82 20.8193 33.82 20.7901C33.82 20.7301 33.87 20.6701 33.93 20.6801ZM34.49 20.6801C34.5117 20.6806 34.5328 20.6875 34.5506 20.6999C34.5684 20.7124 34.5821 20.7298 34.59 20.7501L34.6 20.7901C34.6 20.8193 34.5884 20.8472 34.5678 20.8679C34.5471 20.8885 34.5192 20.9001 34.49 20.9001C34.4608 20.9001 34.4328 20.8885 34.4122 20.8679C34.3916 20.8472 34.38 20.8193 34.38 20.7901C34.38 20.7609 34.3916 20.7329 34.4122 20.7123C34.4328 20.6917 34.4608 20.6801 34.49 20.6801ZM16.31 22.5001C16.5201 22.4929 16.7296 22.5271 16.9265 22.6008C17.1233 22.6746 17.3038 22.7864 17.4575 22.9298C17.6111 23.0733 17.7351 23.2456 17.8221 23.437C17.9092 23.6283 17.9578 23.835 17.965 24.0451C17.9722 24.2552 17.938 24.4647 17.8642 24.6616C17.7905 24.8585 17.6787 25.0389 17.5352 25.1926C17.3918 25.3462 17.2194 25.4702 17.0281 25.5572C16.8367 25.6443 16.6301 25.6929 16.42 25.7001C15.9956 25.7147 15.5829 25.5601 15.2725 25.2703C14.9621 24.9806 14.7796 24.5794 14.765 24.1551C14.7504 23.7307 14.905 23.318 15.1947 23.0076C15.4845 22.6972 15.8856 22.5147 16.31 22.5001ZM20.14 22.5001C20.5643 22.5001 20.9713 22.6687 21.2714 22.9687C21.5714 23.2688 21.74 23.6757 21.74 24.1001C21.74 24.5244 21.5714 24.9314 21.2714 25.2315C20.9713 25.5315 20.5643 25.7001 20.14 25.7001C19.7156 25.7001 19.3087 25.5315 19.0086 25.2315C18.7086 24.9314 18.54 24.5244 18.54 24.1001C18.54 23.6757 18.7086 23.2688 19.0086 22.9687C19.3087 22.6687 19.7156 22.5001 20.14 22.5001ZM23.98 22.5001C24.1901 22.4929 24.3996 22.5271 24.5965 22.6008C24.7933 22.6746 24.9738 22.7864 25.1275 22.9298C25.2811 23.0733 25.4051 23.2456 25.4921 23.437C25.5792 23.6283 25.6278 23.835 25.635 24.0451C25.6422 24.2552 25.608 24.4647 25.5342 24.6616C25.4605 24.8585 25.3487 25.0389 25.2052 25.1926C25.0618 25.3462 24.8894 25.4702 24.6981 25.5572C24.5067 25.6443 24.3001 25.6929 24.09 25.7001C23.6656 25.7147 23.2529 25.5601 22.9425 25.2703C22.6321 24.9806 22.4496 24.5794 22.435 24.1551C22.4204 23.7307 22.575 23.318 22.8647 23.0076C23.1545 22.6972 23.5556 22.5147 23.98 22.5001ZM27.81 22.5001C28.2343 22.5001 28.6413 22.6687 28.9414 22.9687C29.2414 23.2688 29.41 23.6757 29.41 24.1001C29.41 24.5244 29.2414 24.9314 28.9414 25.2315C28.6413 25.5315 28.2343 25.7001 27.81 25.7001C27.3856 25.7001 26.9787 25.5315 26.6786 25.2315C26.3786 24.9314 26.21 24.5244 26.21 24.1001C26.21 23.6757 26.3786 23.2688 26.6786 22.9687C26.9787 22.6687 27.3856 22.5001 27.81 22.5001ZM31.65 22.5001C31.8601 22.4929 32.0696 22.5271 32.2665 22.6008C32.4633 22.6746 32.6438 22.7864 32.7975 22.9298C32.9511 23.0733 33.0751 23.2456 33.1621 23.437C33.2492 23.6283 33.2978 23.835 33.305 24.0451C33.3122 24.2552 33.278 24.4647 33.2042 24.6616C33.1305 24.8585 33.0187 25.0389 32.8752 25.1926C32.7318 25.3462 32.5594 25.4702 32.3681 25.5572C32.1767 25.6443 31.9701 25.6929 31.76 25.7001C31.3356 25.7147 30.9229 25.5601 30.6125 25.2703C30.3021 24.9806 30.1196 24.5794 30.105 24.1551C30.0904 23.7307 30.245 23.318 30.5347 23.0076C30.8245 22.6972 31.2256 22.5147 31.65 22.5001ZM13.69 27.3001C13.75 27.3001 13.8 27.3601 13.8 27.4201C13.8 27.4493 13.7884 27.4772 13.7678 27.4979C13.7471 27.5185 13.7192 27.5301 13.69 27.5301C13.6608 27.5301 13.6328 27.5185 13.6122 27.4979C13.5916 27.4772 13.58 27.4493 13.58 27.4201C13.58 27.3601 13.63 27.3101 13.68 27.3101L13.69 27.3001ZM14.25 27.3001C14.2775 27.3 14.3041 27.3102 14.3244 27.3287C14.3448 27.3472 14.3575 27.3727 14.36 27.4001V27.4201C14.36 27.4801 14.31 27.5301 14.25 27.5301C14.2208 27.5301 14.1928 27.5185 14.1722 27.4979C14.1516 27.4772 14.14 27.4493 14.14 27.4201C14.14 27.3601 14.19 27.3101 14.25 27.3101V27.3001ZM14.81 27.3001C14.8375 27.3 14.8641 27.3102 14.8844 27.3287C14.9048 27.3472 14.9175 27.3727 14.92 27.4001V27.4201C14.92 27.4801 14.87 27.5301 14.82 27.5301C14.8047 27.5315 14.7893 27.5297 14.7748 27.5248C14.7603 27.5199 14.747 27.512 14.7357 27.5016C14.7244 27.4913 14.7153 27.4787 14.7092 27.4646C14.7031 27.4506 14.6999 27.4354 14.7 27.4201C14.7 27.3501 14.75 27.3001 14.81 27.3101V27.3001ZM15.37 27.3001C15.3861 27.2985 15.4024 27.3006 15.4177 27.3061C15.4329 27.3115 15.4468 27.3203 15.4583 27.3318C15.4697 27.3433 15.4785 27.3571 15.484 27.3724C15.4895 27.3877 15.4915 27.4039 15.49 27.4201C15.49 27.4801 15.44 27.5301 15.37 27.5301C15.3426 27.5276 15.3171 27.5149 15.2986 27.4945C15.2801 27.4742 15.2699 27.4476 15.27 27.4201C15.27 27.3501 15.31 27.3001 15.37 27.3101V27.3001ZM15.94 27.3001C15.9544 27.3013 15.9685 27.3054 15.9814 27.3122C15.9943 27.3189 16.0057 27.3281 16.015 27.3393C16.0243 27.3504 16.0313 27.3633 16.0356 27.3772C16.0399 27.391 16.0414 27.4056 16.04 27.4201C16.04 27.4801 16 27.5301 15.94 27.5301C15.9247 27.5315 15.9093 27.5297 15.8948 27.5248C15.8803 27.5199 15.867 27.512 15.8557 27.5016C15.8444 27.4913 15.8353 27.4787 15.8292 27.4646C15.8231 27.4506 15.8199 27.4354 15.82 27.4201C15.82 27.3501 15.87 27.3001 15.94 27.3101V27.3001ZM16.5 27.3001C16.5153 27.3 16.5305 27.3032 16.5445 27.3093C16.5586 27.3154 16.5712 27.3245 16.5815 27.3358C16.5919 27.3471 16.5998 27.3604 16.6047 27.3749C16.6096 27.3894 16.6114 27.4048 16.61 27.4201C16.61 27.4801 16.56 27.5301 16.5 27.5301C16.4708 27.5301 16.4428 27.5185 16.4222 27.4979C16.4016 27.4772 16.39 27.4493 16.39 27.4201C16.39 27.3501 16.44 27.3001 16.5 27.3101V27.3001ZM17.06 27.3001C17.0753 27.3 17.0905 27.3032 17.1045 27.3093C17.1186 27.3154 17.1312 27.3245 17.1415 27.3358C17.1519 27.3471 17.1598 27.3604 17.1647 27.3749C17.1696 27.3894 17.1714 27.4048 17.17 27.4201C17.1701 27.4476 17.1599 27.4742 17.1414 27.4945C17.1229 27.5149 17.0974 27.5276 17.07 27.5301C17.0547 27.5315 17.0393 27.5297 17.0248 27.5248C17.0103 27.5199 16.997 27.512 16.9857 27.5016C16.9744 27.4913 16.9653 27.4787 16.9592 27.4646C16.9531 27.4506 16.9499 27.4354 16.95 27.4201C16.95 27.3601 17 27.3101 17.06 27.3101V27.3001ZM17.62 27.3001C17.6417 27.3006 17.6628 27.3075 17.6806 27.3199C17.6984 27.3324 17.7121 27.3499 17.72 27.3701L17.74 27.4201C17.74 27.4354 17.7369 27.4506 17.7308 27.4646C17.7246 27.4787 17.7156 27.4913 17.7043 27.5016C17.693 27.512 17.6797 27.5199 17.6652 27.5248C17.6506 27.5297 17.6352 27.5315 17.62 27.5301C17.5926 27.5276 17.5671 27.5149 17.5486 27.4945C17.5301 27.4742 17.5199 27.4476 17.52 27.4201C17.52 27.3601 17.56 27.3101 17.62 27.3101V27.3001ZM18.19 27.3001C18.2117 27.3006 18.2328 27.3075 18.2506 27.3199C18.2684 27.3324 18.2821 27.3499 18.29 27.3701V27.4201C18.2901 27.4476 18.2799 27.4742 18.2614 27.4945C18.2429 27.5149 18.2174 27.5276 18.19 27.5301C18.1747 27.5315 18.1593 27.5297 18.1448 27.5248C18.1303 27.5199 18.117 27.512 18.1057 27.5016C18.0944 27.4913 18.0853 27.4787 18.0792 27.4646C18.0731 27.4506 18.0699 27.4354 18.07 27.4201C18.07 27.3601 18.12 27.3101 18.18 27.3101L18.19 27.3001ZM18.75 27.3001C18.7757 27.3023 18.7999 27.3136 18.8182 27.3319C18.8365 27.3502 18.8477 27.3743 18.85 27.4001V27.4201C18.85 27.4801 18.81 27.5301 18.75 27.5301C18.7208 27.5301 18.6928 27.5185 18.6722 27.4979C18.6516 27.4772 18.64 27.4493 18.64 27.4201C18.64 27.3601 18.69 27.3101 18.74 27.3101L18.75 27.3001ZM19.31 27.3001C19.3253 27.3 19.3405 27.3032 19.3545 27.3093C19.3686 27.3154 19.3812 27.3245 19.3915 27.3358C19.4019 27.3471 19.4098 27.3604 19.4147 27.3749C19.4196 27.3894 19.4214 27.4048 19.42 27.4201C19.42 27.4801 19.37 27.5301 19.32 27.5301C19.3047 27.5315 19.2893 27.5297 19.2748 27.5248C19.2603 27.5199 19.247 27.512 19.2357 27.5016C19.2244 27.4913 19.2153 27.4787 19.2092 27.4646C19.2031 27.4506 19.1999 27.4354 19.2 27.4201C19.2 27.3501 19.25 27.3001 19.31 27.3101V27.3001ZM19.87 27.3001C19.8853 27.3 19.9005 27.3032 19.9145 27.3093C19.9286 27.3154 19.9412 27.3245 19.9515 27.3358C19.9619 27.3471 19.9698 27.3604 19.9747 27.3749C19.9796 27.3894 19.9814 27.4048 19.98 27.4201C19.98 27.4801 19.93 27.5301 19.88 27.5301C19.8647 27.5315 19.8493 27.5297 19.8348 27.5248C19.8203 27.5199 19.807 27.512 19.7957 27.5016C19.7844 27.4913 19.7753 27.4787 19.7692 27.4646C19.7631 27.4506 19.7599 27.4354 19.76 27.4201C19.76 27.3501 19.81 27.3001 19.87 27.3101V27.3001ZM20.44 27.3001C20.4545 27.3013 20.4685 27.3054 20.4814 27.3122C20.4943 27.3189 20.5057 27.3281 20.515 27.3393C20.5243 27.3504 20.5313 27.3633 20.5356 27.3772C20.5399 27.391 20.5414 27.4056 20.54 27.4201C20.54 27.4801 20.5 27.5301 20.44 27.5301C20.4247 27.5315 20.4093 27.5297 20.3948 27.5248C20.3803 27.5199 20.367 27.512 20.3557 27.5016C20.3444 27.4913 20.3353 27.4787 20.3292 27.4646C20.3231 27.4506 20.3199 27.4354 20.32 27.4201C20.32 27.3501 20.37 27.3001 20.44 27.3101V27.3001ZM21 27.3001C21.0145 27.3013 21.0285 27.3054 21.0414 27.3122C21.0543 27.3189 21.0657 27.3281 21.075 27.3393C21.0843 27.3504 21.0913 27.3633 21.0956 27.3772C21.0999 27.391 21.1014 27.4056 21.1 27.4201C21.1 27.4801 21.06 27.5301 21 27.5301C20.9708 27.5301 20.9428 27.5185 20.9222 27.4979C20.9016 27.4772 20.89 27.4493 20.89 27.4201C20.89 27.3501 20.93 27.3001 20.99 27.3101L21 27.3001ZM21.56 27.3001C21.5753 27.3 21.5905 27.3032 21.6045 27.3093C21.6186 27.3154 21.6312 27.3245 21.6415 27.3358C21.6519 27.3471 21.6598 27.3604 21.6647 27.3749C21.6696 27.3894 21.6714 27.4048 21.67 27.4201C21.67 27.4493 21.6584 27.4772 21.6378 27.4979C21.6171 27.5185 21.5892 27.5301 21.56 27.5301C21.5308 27.5301 21.5028 27.5185 21.4822 27.4979C21.4616 27.4772 21.45 27.4493 21.45 27.4201C21.45 27.3601 21.5 27.3101 21.55 27.3101L21.56 27.3001ZM22.12 27.3001C22.1417 27.3006 22.1628 27.3075 22.1806 27.3199C22.1984 27.3324 22.2121 27.3499 22.22 27.3701L22.23 27.4201C22.2301 27.4476 22.2199 27.4742 22.2014 27.4945C22.1829 27.5149 22.1574 27.5276 22.13 27.5301C22.1147 27.5315 22.0993 27.5297 22.0848 27.5248C22.0703 27.5199 22.057 27.512 22.0457 27.5016C22.0344 27.4913 22.0253 27.4787 22.0192 27.4646C22.0131 27.4506 22.0099 27.4354 22.01 27.4201C22.01 27.3601 22.06 27.3101 22.12 27.3101V27.3001ZM22.68 27.3001C22.75 27.3001 22.8 27.3601 22.8 27.4201C22.8 27.4354 22.7969 27.4506 22.7908 27.4646C22.7846 27.4787 22.7756 27.4913 22.7643 27.5016C22.753 27.512 22.7397 27.5199 22.7252 27.5248C22.7106 27.5297 22.6952 27.5315 22.68 27.5301C22.6526 27.5276 22.6271 27.5149 22.6086 27.4945C22.5901 27.4742 22.5799 27.4476 22.58 27.4201C22.58 27.3601 22.62 27.3101 22.68 27.3101V27.3001ZM23.25 27.3001C23.3 27.3001 23.35 27.3401 23.35 27.4001V27.4201C23.35 27.4801 23.31 27.5301 23.25 27.5301C23.2208 27.5301 23.1928 27.5185 23.1722 27.4979C23.1516 27.4772 23.14 27.4493 23.14 27.4201C23.14 27.3909 23.1516 27.3629 23.1722 27.3423C23.1928 27.3217 23.2208 27.3101 23.25 27.3101V27.3001ZM23.81 27.3001C23.8357 27.3023 23.8599 27.3136 23.8782 27.3319C23.8965 27.3502 23.9077 27.3743 23.91 27.4001V27.4201C23.91 27.4801 23.87 27.5301 23.81 27.5301C23.7808 27.5301 23.7528 27.5185 23.7322 27.4979C23.7116 27.4772 23.7 27.4493 23.7 27.4201C23.7 27.3501 23.75 27.3001 23.8 27.3101L23.81 27.3001ZM24.37 27.3001C24.3853 27.3 24.4005 27.3032 24.4145 27.3093C24.4286 27.3154 24.4412 27.3245 24.4515 27.3358C24.4619 27.3471 24.4698 27.3604 24.4747 27.3749C24.4796 27.3894 24.4814 27.4048 24.48 27.4201C24.48 27.4801 24.43 27.5301 24.38 27.5301C24.3647 27.5315 24.3493 27.5297 24.3348 27.5248C24.3203 27.5199 24.307 27.512 24.2957 27.5016C24.2844 27.4913 24.2753 27.4787 24.2692 27.4646C24.2631 27.4506 24.2599 27.4354 24.26 27.4201C24.26 27.3501 24.31 27.3001 24.37 27.3101V27.3001ZM24.93 27.3001C24.9453 27.3 24.9605 27.3032 24.9745 27.3093C24.9886 27.3154 25.0012 27.3245 25.0115 27.3358C25.0219 27.3471 25.0298 27.3604 25.0347 27.3749C25.0396 27.3894 25.0414 27.4048 25.04 27.4201C25.04 27.4801 24.99 27.5301 24.94 27.5301C24.9247 27.5315 24.9093 27.5297 24.8948 27.5248C24.8803 27.5199 24.867 27.512 24.8557 27.5016C24.8444 27.4913 24.8353 27.4787 24.8292 27.4646C24.8231 27.4506 24.8199 27.4354 24.82 27.4201C24.82 27.3501 24.87 27.3001 24.93 27.3101V27.3001ZM25.49 27.3001C25.5117 27.3006 25.5328 27.3075 25.5506 27.3199C25.5684 27.3324 25.5821 27.3499 25.59 27.3701L25.61 27.4201C25.61 27.4354 25.6069 27.4506 25.6008 27.4646C25.5946 27.4787 25.5856 27.4913 25.5743 27.5016C25.563 27.512 25.5497 27.5199 25.5352 27.5248C25.5206 27.5297 25.5052 27.5315 25.49 27.5301C25.4626 27.5276 25.4371 27.5149 25.4186 27.4945C25.4001 27.4742 25.3899 27.4476 25.39 27.4201C25.39 27.3601 25.43 27.3101 25.49 27.3101V27.3001ZM26.06 27.3001C26.0817 27.3006 26.1028 27.3075 26.1206 27.3199C26.1384 27.3324 26.1521 27.3499 26.16 27.3701L26.17 27.4201C26.17 27.4493 26.1584 27.4772 26.1378 27.4979C26.1171 27.5185 26.0892 27.5301 26.06 27.5301C26.0308 27.5301 26.0028 27.5185 25.9822 27.4979C25.9616 27.4772 25.95 27.4493 25.95 27.4201C25.95 27.3601 26 27.3101 26.05 27.3101L26.06 27.3001ZM26.62 27.3001C26.6417 27.3006 26.6628 27.3075 26.6806 27.3199C26.6984 27.3324 26.7121 27.3499 26.72 27.3701L26.73 27.4201C26.73 27.4493 26.7184 27.4772 26.6978 27.4979C26.6771 27.5185 26.6492 27.5301 26.62 27.5301C26.5908 27.5301 26.5628 27.5185 26.5422 27.4979C26.5216 27.4772 26.51 27.4493 26.51 27.4201C26.51 27.3601 26.56 27.3101 26.61 27.3101L26.62 27.3001ZM27.18 27.3001C27.1945 27.3013 27.2085 27.3054 27.2214 27.3122C27.2343 27.3189 27.2457 27.3281 27.255 27.3393C27.2643 27.3504 27.2713 27.3633 27.2756 27.3772C27.2799 27.391 27.2814 27.4056 27.28 27.4201C27.2801 27.4476 27.2699 27.4742 27.2514 27.4945C27.2329 27.5149 27.2074 27.5276 27.18 27.5301C27.1508 27.5301 27.1228 27.5185 27.1022 27.4979C27.0816 27.4772 27.07 27.4493 27.07 27.4201C27.07 27.3601 27.12 27.3101 27.18 27.3101V27.3001ZM27.74 27.3001C27.7544 27.2987 27.769 27.3002 27.7829 27.3045C27.7968 27.3088 27.8097 27.3158 27.8208 27.3251C27.832 27.3344 27.8412 27.3458 27.8479 27.3587C27.8546 27.3715 27.8587 27.3856 27.86 27.4001V27.4201C27.86 27.4801 27.81 27.5301 27.75 27.5301C27.7208 27.5301 27.6928 27.5185 27.6722 27.4979C27.6516 27.4772 27.64 27.4493 27.64 27.4201C27.64 27.3909 27.6516 27.3629 27.6722 27.3423C27.6928 27.3217 27.7208 27.3101 27.75 27.3101L27.74 27.3001ZM28.31 27.3001C28.37 27.3001 28.41 27.3501 28.41 27.4101C28.41 27.4801 28.37 27.5301 28.31 27.5301C28.2947 27.5315 28.2793 27.5297 28.2648 27.5248C28.2503 27.5199 28.237 27.512 28.2257 27.5016C28.2144 27.4913 28.2053 27.4787 28.1992 27.4646C28.1931 27.4506 28.1899 27.4354 28.19 27.4201C28.19 27.3501 28.24 27.3001 28.31 27.3101V27.3001ZM28.87 27.3001C28.93 27.3001 28.97 27.3501 28.98 27.4101C28.98 27.4801 28.93 27.5301 28.87 27.5301C28.8408 27.5301 28.8128 27.5185 28.7922 27.4979C28.7716 27.4772 28.76 27.4493 28.76 27.4201C28.76 27.3501 28.81 27.3001 28.86 27.3101L28.87 27.3001ZM29.43 27.3001C29.4453 27.3 29.4605 27.3032 29.4745 27.3093C29.4886 27.3154 29.5012 27.3245 29.5115 27.3358C29.5219 27.3471 29.5298 27.3604 29.5347 27.3749C29.5396 27.3894 29.5414 27.4048 29.54 27.4201C29.54 27.4801 29.49 27.5301 29.44 27.5301C29.4247 27.5315 29.4093 27.5297 29.3948 27.5248C29.3803 27.5199 29.367 27.512 29.3557 27.5016C29.3444 27.4913 29.3353 27.4787 29.3292 27.4646C29.3231 27.4506 29.3199 27.4354 29.32 27.4201C29.32 27.3501 29.37 27.3001 29.43 27.3101V27.3001ZM29.99 27.3001C30.0117 27.3006 30.0328 27.3075 30.0506 27.3199C30.0684 27.3324 30.0821 27.3499 30.09 27.3701L30.11 27.4201C30.11 27.4354 30.1069 27.4506 30.1008 27.4646C30.0946 27.4787 30.0856 27.4913 30.0743 27.5016C30.063 27.512 30.0497 27.5199 30.0352 27.5248C30.0206 27.5297 30.0052 27.5315 29.99 27.5301C29.9626 27.5276 29.9371 27.5149 29.9186 27.4945C29.9001 27.4742 29.8899 27.4476 29.89 27.4201C29.89 27.3601 29.93 27.3101 29.99 27.3101V27.3001ZM30.56 27.3001C30.61 27.3001 30.66 27.3501 30.66 27.4101C30.6614 27.4245 30.6599 27.4391 30.6556 27.453C30.6513 27.4669 30.6443 27.4798 30.635 27.4909C30.6257 27.5021 30.6143 27.5113 30.6014 27.518C30.5885 27.5247 30.5744 27.5288 30.56 27.5301C30.5447 27.5315 30.5293 27.5297 30.5148 27.5248C30.5003 27.5199 30.487 27.512 30.4757 27.5016C30.4644 27.4913 30.4553 27.4787 30.4492 27.4646C30.4431 27.4506 30.4399 27.4354 30.44 27.4201C30.44 27.3601 30.49 27.3101 30.55 27.3101L30.56 27.3001ZM31.12 27.3001C31.18 27.3001 31.22 27.3501 31.23 27.4101C31.2314 27.4254 31.2296 27.4407 31.2247 27.4553C31.2198 27.4698 31.2119 27.4831 31.2015 27.4944C31.1912 27.5057 31.1786 27.5147 31.1645 27.5209C31.1505 27.527 31.1353 27.5302 31.12 27.5301C31.0908 27.5301 31.0628 27.5185 31.0422 27.4979C31.0216 27.4772 31.01 27.4493 31.01 27.4201C31.01 27.3601 31.06 27.3101 31.11 27.3101L31.12 27.3001ZM31.68 27.3001C31.7075 27.3 31.7341 27.3102 31.7544 27.3287C31.7748 27.3472 31.7875 27.3727 31.79 27.4001V27.4201C31.79 27.4801 31.74 27.5301 31.68 27.5301C31.6508 27.5301 31.6228 27.5185 31.6022 27.4979C31.5816 27.4772 31.57 27.4493 31.57 27.4201C31.57 27.3909 31.5816 27.3629 31.6022 27.3423C31.6228 27.3217 31.6508 27.3101 31.68 27.3101V27.3001ZM32.24 27.3001C32.2675 27.3 32.2941 27.3102 32.3144 27.3287C32.3348 27.3472 32.3475 27.3727 32.35 27.4001V27.4201C32.35 27.4801 32.3 27.5301 32.25 27.5301C32.2347 27.5315 32.2193 27.5297 32.2048 27.5248C32.1903 27.5199 32.1769 27.512 32.1657 27.5016C32.1544 27.4913 32.1453 27.4787 32.1392 27.4646C32.1331 27.4506 32.1299 27.4354 32.13 27.4201C32.13 27.3501 32.18 27.3001 32.24 27.3101V27.3001ZM32.8 27.3001C32.8161 27.2985 32.8324 27.3006 32.8477 27.3061C32.8629 27.3115 32.8768 27.3203 32.8883 27.3318C32.8997 27.3433 32.9085 27.3571 32.914 27.3724C32.9195 27.3877 32.9215 27.4039 32.92 27.4201C32.92 27.4801 32.87 27.5301 32.8 27.5301C32.7726 27.5276 32.7471 27.5149 32.7286 27.4945C32.7101 27.4742 32.6999 27.4476 32.7 27.4201C32.7 27.3501 32.74 27.3001 32.8 27.3101V27.3001ZM33.37 27.3001C33.3844 27.3013 33.3985 27.3054 33.4114 27.3122C33.4243 27.3189 33.4357 27.3281 33.445 27.3393C33.4543 27.3504 33.4613 27.3633 33.4656 27.3772C33.4699 27.391 33.4714 27.4056 33.47 27.4201C33.47 27.4801 33.43 27.5301 33.37 27.5301C33.3547 27.5315 33.3393 27.5297 33.3248 27.5248C33.3103 27.5199 33.297 27.512 33.2857 27.5016C33.2744 27.4913 33.2653 27.4787 33.2592 27.4646C33.2531 27.4506 33.2499 27.4354 33.25 27.4201C33.25 27.3501 33.3 27.3001 33.37 27.3101V27.3001ZM33.93 27.3001C33.9453 27.3 33.9605 27.3032 33.9745 27.3093C33.9886 27.3154 34.0012 27.3245 34.0115 27.3358C34.0219 27.3471 34.0298 27.3604 34.0347 27.3749C34.0396 27.3894 34.0414 27.4048 34.04 27.4201C34.04 27.4801 33.99 27.5301 33.93 27.5301C33.9008 27.5301 33.8728 27.5185 33.8522 27.4979C33.8316 27.4772 33.82 27.4493 33.82 27.4201C33.82 27.3501 33.87 27.3001 33.93 27.3101V27.3001ZM34.49 27.3001C34.5117 27.3006 34.5328 27.3075 34.5506 27.3199C34.5684 27.3324 34.5821 27.3499 34.59 27.3701L34.6 27.4201C34.6 27.4493 34.5884 27.4772 34.5678 27.4979C34.5471 27.5185 34.5192 27.5301 34.49 27.5301C34.4608 27.5301 34.4328 27.5185 34.4122 27.4979C34.3916 27.4772 34.38 27.4493 34.38 27.4201C34.38 27.3601 34.43 27.3101 34.49 27.3101V27.3001ZM16.29 29.3401C16.7143 29.3308 17.125 29.4905 17.4316 29.784C17.7382 30.0775 17.9157 30.4807 17.925 30.9051C17.9343 31.3294 17.7746 31.7401 17.4811 32.0467C17.1876 32.3533 16.7843 32.5308 16.36 32.5401C15.9356 32.5507 15.5245 32.3923 15.2169 32.0997C14.9093 31.8072 14.7306 31.4044 14.72 30.9801C14.7094 30.5557 14.8678 30.1446 15.1603 29.837C15.4529 29.5294 15.8556 29.3507 16.28 29.3401H16.29ZM20.12 29.3401C20.5443 29.3401 20.9513 29.5087 21.2514 29.8087C21.5514 30.1088 21.72 30.5157 21.72 30.9401C21.72 31.3644 21.5514 31.7714 21.2514 32.0715C20.9513 32.3715 20.5443 32.5401 20.12 32.5401C19.6956 32.5401 19.2887 32.3715 18.9886 32.0715C18.6886 31.7714 18.52 31.3644 18.52 30.9401C18.52 30.5157 18.6886 30.1088 18.9886 29.8087C19.2887 29.5087 19.6956 29.3401 20.12 29.3401ZM23.95 29.3401C24.3743 29.3295 24.7855 29.4879 25.0931 29.7804C25.4006 30.073 25.5794 30.4757 25.59 30.9001C25.6006 31.3244 25.4422 31.7356 25.1496 32.0432C24.8571 32.3507 24.4543 32.5295 24.03 32.5401C23.8199 32.5453 23.6108 32.5092 23.4146 32.4336C23.2185 32.358 23.0392 32.2446 22.8869 32.0997C22.7346 31.9549 22.6123 31.7814 22.5271 31.5893C22.4418 31.3972 22.3952 31.1902 22.39 30.9801C22.3847 30.77 22.4209 30.5609 22.4965 30.3647C22.572 30.1686 22.6855 29.9893 22.8303 29.837C22.9752 29.6847 23.1486 29.5624 23.3407 29.4772C23.5328 29.3919 23.7399 29.3453 23.95 29.3401ZM27.79 29.3401C28.2143 29.3401 28.6213 29.5087 28.9214 29.8087C29.2214 30.1088 29.39 30.5157 29.39 30.9401C29.39 31.3644 29.2214 31.7714 28.9214 32.0715C28.6213 32.3715 28.2143 32.5401 27.79 32.5401C27.3656 32.5401 26.9587 32.3715 26.6586 32.0715C26.3586 31.7714 26.19 31.3644 26.19 30.9401C26.19 30.5157 26.3586 30.1088 26.6586 29.8087C26.9587 29.5087 27.3656 29.3401 27.79 29.3401ZM31.63 29.3401C32.0543 29.3295 32.4655 29.4879 32.7731 29.7804C33.0806 30.073 33.2594 30.4757 33.27 30.9001C33.2806 31.3244 33.1222 31.7356 32.8296 32.0432C32.5371 32.3507 32.1343 32.5295 31.71 32.5401C31.4999 32.5453 31.2908 32.5092 31.0946 32.4336C30.8985 32.358 30.7192 32.2446 30.5669 32.0997C30.4146 31.9549 30.2923 31.7814 30.2071 31.5893C30.1218 31.3972 30.0752 31.1902 30.07 30.9801C30.0647 30.77 30.1009 30.5609 30.1765 30.3647C30.252 30.1686 30.3655 29.9893 30.5103 29.837C30.6552 29.6847 30.8286 29.5624 31.0207 29.4772C31.2128 29.3919 31.4199 29.3453 31.63 29.3401ZM13.69 33.9401C13.7192 33.9401 13.7471 33.9517 13.7678 33.9723C13.7884 33.9929 13.8 34.0209 13.8 34.0501C13.8 34.0793 13.7884 34.1072 13.7678 34.1279C13.7471 34.1485 13.7192 34.1601 13.69 34.1601C13.6608 34.1601 13.6328 34.1485 13.6122 34.1279C13.5916 34.1072 13.58 34.0793 13.58 34.0501C13.58 33.9901 13.63 33.9301 13.68 33.9301L13.69 33.9401ZM14.25 33.9401C14.276 33.9397 14.3013 33.9485 14.3215 33.9649C14.3416 33.9814 14.3553 34.0045 14.36 34.0301V34.0501C14.36 34.1101 14.31 34.1601 14.25 34.1601C14.2216 34.1578 14.1949 34.1455 14.1747 34.1253C14.1546 34.1052 14.1423 34.0785 14.14 34.0501C14.14 33.9901 14.19 33.9301 14.25 33.9301V33.9401ZM14.81 33.9401C14.836 33.9397 14.8613 33.9485 14.8815 33.9649C14.9016 33.9814 14.9153 34.0045 14.92 34.0301V34.0501C14.92 34.1101 14.87 34.1601 14.82 34.1601C14.8047 34.1615 14.7893 34.1597 14.7748 34.1548C14.7603 34.1499 14.747 34.142 14.7357 34.1316C14.7244 34.1213 14.7153 34.1087 14.7092 34.0946C14.7031 34.0806 14.6999 34.0654 14.7 34.0501C14.7 33.9801 14.75 33.9301 14.81 33.9301V33.9401ZM15.37 33.9401C15.3844 33.9387 15.399 33.9402 15.4129 33.9445C15.4268 33.9488 15.4397 33.9558 15.4508 33.9651C15.462 33.9744 15.4712 33.9858 15.4779 33.9987C15.4846 34.0115 15.4887 34.0256 15.49 34.0401C15.49 34.1101 15.44 34.1601 15.37 34.1601C15.3426 34.1576 15.3171 34.1449 15.2986 34.1245C15.2801 34.1042 15.2699 34.0776 15.27 34.0501C15.27 33.9801 15.31 33.9301 15.37 33.9301V33.9401ZM15.94 33.9401C15.9657 33.9423 15.9899 33.9536 16.0082 33.9719C16.0265 33.9902 16.0377 34.0143 16.04 34.0401C16.04 34.1101 16 34.1601 15.94 34.1601C15.9247 34.1615 15.9093 34.1597 15.8948 34.1548C15.8803 34.1499 15.867 34.142 15.8557 34.1316C15.8444 34.1213 15.8353 34.1087 15.8292 34.0946C15.8231 34.0806 15.8199 34.0654 15.82 34.0501C15.82 33.9801 15.87 33.9301 15.94 33.9301V33.9401ZM16.5 33.9401C16.5275 33.94 16.5541 33.9502 16.5744 33.9687C16.5948 33.9872 16.6075 34.0127 16.61 34.0401C16.61 34.1101 16.56 34.1601 16.5 34.1601C16.4708 34.1601 16.4428 34.1485 16.4222 34.1279C16.4016 34.1072 16.39 34.0793 16.39 34.0501C16.39 33.9801 16.44 33.9301 16.5 33.9301V33.9401ZM17.06 33.9401C17.0746 33.9395 17.0893 33.9419 17.103 33.947C17.1168 33.9522 17.1293 33.96 17.14 33.9701C17.1501 33.9807 17.1579 33.9933 17.1631 34.0071C17.1682 34.0208 17.1706 34.0354 17.17 34.0501C17.1701 34.0776 17.1599 34.1042 17.1414 34.1245C17.1229 34.1449 17.0974 34.1576 17.07 34.1601C17.0547 34.1615 17.0393 34.1597 17.0248 34.1548C17.0103 34.1499 16.997 34.142 16.9857 34.1316C16.9744 34.1213 16.9653 34.1087 16.9592 34.0946C16.9531 34.0806 16.9499 34.0654 16.95 34.0501C16.95 33.9901 17 33.9301 17.06 33.9301V33.9401ZM17.62 33.9401C17.6406 33.9397 17.6609 33.9451 17.6786 33.9557C17.6963 33.9664 17.7106 33.9817 17.72 34.0001L17.74 34.0501C17.74 34.0654 17.7369 34.0806 17.7308 34.0946C17.7246 34.1087 17.7156 34.1213 17.7043 34.1316C17.693 34.142 17.6797 34.1499 17.6652 34.1548C17.6506 34.1597 17.6352 34.1615 17.62 34.1601C17.5926 34.1576 17.5671 34.1449 17.5486 34.1245C17.5301 34.1042 17.5199 34.0776 17.52 34.0501C17.52 33.9901 17.56 33.9301 17.62 33.9301V33.9401ZM18.19 33.9401C18.2106 33.9397 18.2309 33.9451 18.2486 33.9557C18.2663 33.9664 18.2806 33.9817 18.29 34.0001V34.0501C18.2901 34.0776 18.2799 34.1042 18.2614 34.1245C18.2429 34.1449 18.2174 34.1576 18.19 34.1601C18.1747 34.1615 18.1593 34.1597 18.1448 34.1548C18.1303 34.1499 18.117 34.142 18.1057 34.1316C18.0944 34.1213 18.0853 34.1087 18.0792 34.0946C18.0731 34.0806 18.0699 34.0654 18.07 34.0501C18.07 33.9901 18.12 33.9301 18.18 33.9301L18.19 33.9401ZM18.75 33.9401C18.7743 33.9419 18.7972 33.9517 18.8153 33.968C18.8334 33.9843 18.8456 34.0061 18.85 34.0301V34.0501C18.85 34.1101 18.81 34.1601 18.75 34.1601C18.7208 34.1601 18.6928 34.1485 18.6722 34.1279C18.6516 34.1072 18.64 34.0793 18.64 34.0501C18.64 33.9901 18.69 33.9301 18.74 33.9301L18.75 33.9401ZM19.31 33.9401C19.3375 33.94 19.3641 33.9502 19.3844 33.9687C19.4048 33.9872 19.4175 34.0127 19.42 34.0401C19.42 34.1101 19.37 34.1601 19.32 34.1601C19.3047 34.1615 19.2893 34.1597 19.2748 34.1548C19.2603 34.1499 19.247 34.142 19.2357 34.1316C19.2244 34.1213 19.2153 34.1087 19.2092 34.0946C19.2031 34.0806 19.1999 34.0654 19.2 34.0501C19.2 33.9801 19.25 33.9301 19.31 33.9301V33.9401ZM19.87 33.9401C19.8975 33.94 19.9241 33.9502 19.9444 33.9687C19.9648 33.9872 19.9775 34.0127 19.98 34.0401C19.98 34.1101 19.93 34.1601 19.88 34.1601C19.8647 34.1615 19.8493 34.1597 19.8348 34.1548C19.8203 34.1499 19.807 34.142 19.7957 34.1316C19.7844 34.1213 19.7753 34.1087 19.7692 34.0946C19.7631 34.0806 19.7599 34.0654 19.76 34.0501C19.76 33.9801 19.81 33.9301 19.87 33.9301V33.9401ZM20.44 33.9401C20.4657 33.9423 20.4899 33.9536 20.5082 33.9719C20.5265 33.9902 20.5377 34.0143 20.54 34.0401C20.54 34.1101 20.5 34.1601 20.44 34.1601C20.4247 34.1615 20.4093 34.1597 20.3948 34.1548C20.3803 34.1499 20.367 34.142 20.3557 34.1316C20.3444 34.1213 20.3353 34.1087 20.3292 34.0946C20.3231 34.0806 20.3199 34.0654 20.32 34.0501C20.32 33.9801 20.37 33.9301 20.44 33.9301V33.9401ZM21 33.9401C21.0257 33.9423 21.0499 33.9536 21.0682 33.9719C21.0865 33.9902 21.0977 34.0143 21.1 34.0401C21.1 34.1101 21.06 34.1601 21 34.1601C20.9708 34.1601 20.9428 34.1485 20.9222 34.1279C20.9016 34.1072 20.89 34.0793 20.89 34.0501C20.89 33.9801 20.93 33.9301 20.99 33.9301L21 33.9401ZM21.56 33.9401C21.5746 33.9395 21.5893 33.9419 21.603 33.947C21.6168 33.9522 21.6293 33.96 21.64 33.9701C21.6501 33.9807 21.6579 33.9933 21.6631 34.0071C21.6682 34.0208 21.6706 34.0354 21.67 34.0501C21.67 34.0793 21.6584 34.1072 21.6378 34.1279C21.6171 34.1485 21.5892 34.1601 21.56 34.1601C21.5308 34.1601 21.5028 34.1485 21.4822 34.1279C21.4616 34.1072 21.45 34.0793 21.45 34.0501C21.45 33.9901 21.5 33.9301 21.55 33.9301L21.56 33.9401ZM22.12 33.9401C22.1406 33.9397 22.1609 33.9451 22.1786 33.9557C22.1963 33.9664 22.2106 33.9817 22.22 34.0001L22.23 34.0501C22.2301 34.0776 22.2199 34.1042 22.2014 34.1245C22.1829 34.1449 22.1574 34.1576 22.13 34.1601C22.1147 34.1615 22.0993 34.1597 22.0848 34.1548C22.0703 34.1499 22.057 34.142 22.0457 34.1316C22.0344 34.1213 22.0253 34.1087 22.0192 34.0946C22.0131 34.0806 22.0099 34.0654 22.01 34.0501C22.01 33.9901 22.06 33.9301 22.12 33.9301V33.9401ZM22.68 33.9401C22.7092 33.9401 22.7371 33.9517 22.7578 33.9723C22.7784 33.9929 22.79 34.0209 22.79 34.0501C22.79 34.0793 22.7784 34.1072 22.7578 34.1279C22.7371 34.1485 22.7092 34.1601 22.68 34.1601C22.6526 34.1576 22.6271 34.1449 22.6086 34.1245C22.5901 34.1042 22.5799 34.0776 22.58 34.0501C22.58 33.9901 22.62 33.9301 22.68 33.9301V33.9401ZM23.25 33.9401C23.3 33.9401 23.35 33.9701 23.35 34.0301V34.0501C23.35 34.1101 23.31 34.1601 23.25 34.1601C23.2208 34.1601 23.1928 34.1485 23.1722 34.1279C23.1516 34.1072 23.14 34.0793 23.14 34.0501C23.14 33.9901 23.18 33.9301 23.24 33.9301L23.25 33.9401ZM23.81 33.9401C23.8343 33.9419 23.8572 33.9517 23.8753 33.968C23.8934 33.9843 23.9056 34.0061 23.91 34.0301V34.0501C23.91 34.1101 23.87 34.1601 23.81 34.1601C23.7808 34.1601 23.7528 34.1485 23.7322 34.1279C23.7116 34.1072 23.7 34.0793 23.7 34.0501C23.7 33.9801 23.75 33.9301 23.8 33.9301L23.81 33.9401ZM24.37 33.9401C24.3975 33.94 24.4241 33.9502 24.4444 33.9687C24.4648 33.9872 24.4775 34.0127 24.48 34.0401C24.48 34.1101 24.43 34.1601 24.38 34.1601C24.3647 34.1615 24.3493 34.1597 24.3348 34.1548C24.3203 34.1499 24.307 34.142 24.2957 34.1316C24.2844 34.1213 24.2753 34.1087 24.2692 34.0946C24.2631 34.0806 24.2599 34.0654 24.26 34.0501C24.26 33.9801 24.31 33.9301 24.37 33.9301V33.9401ZM24.93 33.9401C24.9575 33.94 24.9841 33.9502 25.0044 33.9687C25.0248 33.9872 25.0375 34.0127 25.04 34.0401C25.04 34.1101 24.99 34.1601 24.94 34.1601C24.9247 34.1615 24.9093 34.1597 24.8948 34.1548C24.8803 34.1499 24.867 34.142 24.8557 34.1316C24.8444 34.1213 24.8353 34.1087 24.8292 34.0946C24.8231 34.0806 24.8199 34.0654 24.82 34.0501C24.82 33.9801 24.87 33.9301 24.93 33.9301V33.9401ZM25.49 33.9401C25.5106 33.9397 25.5309 33.9451 25.5486 33.9557C25.5663 33.9664 25.5806 33.9817 25.59 34.0001L25.61 34.0501C25.61 34.0654 25.6069 34.0806 25.6008 34.0946C25.5946 34.1087 25.5856 34.1213 25.5743 34.1316C25.563 34.142 25.5497 34.1499 25.5352 34.1548C25.5206 34.1597 25.5052 34.1615 25.49 34.1601C25.4626 34.1576 25.4371 34.1449 25.4186 34.1245C25.4001 34.1042 25.3899 34.0776 25.39 34.0501C25.39 33.9901 25.43 33.9301 25.49 33.9301V33.9401ZM26.06 33.9401C26.0806 33.9397 26.1009 33.9451 26.1186 33.9557C26.1363 33.9664 26.1506 33.9817 26.16 34.0001L26.17 34.0501C26.17 34.0793 26.1584 34.1072 26.1378 34.1279C26.1171 34.1485 26.0892 34.1601 26.06 34.1601C26.0308 34.1601 26.0028 34.1485 25.9822 34.1279C25.9616 34.1072 25.95 34.0793 25.95 34.0501C25.95 33.9901 26 33.9301 26.05 33.9301L26.06 33.9401ZM26.62 33.9401C26.6406 33.9397 26.6609 33.9451 26.6786 33.9557C26.6963 33.9664 26.7106 33.9817 26.72 34.0001L26.73 34.0501C26.73 34.0793 26.7184 34.1072 26.6978 34.1279C26.6771 34.1485 26.6492 34.1601 26.62 34.1601C26.5908 34.1601 26.5628 34.1485 26.5422 34.1279C26.5216 34.1072 26.51 34.0793 26.51 34.0501C26.51 33.9901 26.56 33.9301 26.61 33.9301L26.62 33.9401ZM27.18 33.9401C27.2024 33.9391 27.2246 33.9451 27.2435 33.9571C27.2624 33.9691 27.2773 33.9866 27.286 34.0073C27.2947 34.028 27.2968 34.0508 27.2922 34.0728C27.2876 34.0947 27.2763 34.1147 27.26 34.1301C27.2493 34.1402 27.2368 34.148 27.223 34.1532C27.2093 34.1583 27.1946 34.1607 27.18 34.1601C27.1508 34.1601 27.1228 34.1485 27.1022 34.1279C27.0816 34.1072 27.07 34.0793 27.07 34.0501C27.07 33.9901 27.12 33.9301 27.18 33.9301V33.9401ZM27.74 33.9401C27.7677 33.9371 27.7954 33.9448 27.8177 33.9615C27.84 33.9782 27.8551 34.0027 27.86 34.0301V34.0501C27.86 34.1101 27.81 34.1601 27.75 34.1601C27.7347 34.1615 27.7193 34.1597 27.7048 34.1548C27.6903 34.1499 27.6769 34.142 27.6657 34.1316C27.6544 34.1213 27.6453 34.1087 27.6392 34.0946C27.6331 34.0806 27.6299 34.0654 27.63 34.0501C27.63 33.9901 27.68 33.9301 27.74 33.9301V33.9401ZM28.31 33.9401C28.37 33.9401 28.41 33.9801 28.41 34.0401C28.41 34.1101 28.37 34.1601 28.31 34.1601C28.2947 34.1615 28.2793 34.1597 28.2648 34.1548C28.2503 34.1499 28.237 34.142 28.2257 34.1316C28.2144 34.1213 28.2053 34.1087 28.1992 34.0946C28.1931 34.0806 28.1899 34.0654 28.19 34.0501C28.19 33.9801 28.24 33.9301 28.31 33.9301V33.9401ZM28.87 33.9401C28.93 33.9401 28.97 33.9801 28.98 34.0401C28.98 34.1101 28.93 34.1601 28.87 34.1601C28.8408 34.1601 28.8128 34.1485 28.7922 34.1279C28.7716 34.1072 28.76 34.0793 28.76 34.0501C28.76 33.9801 28.81 33.9301 28.86 33.9301L28.87 33.9401ZM29.43 33.9401C29.4575 33.94 29.4841 33.9502 29.5044 33.9687C29.5248 33.9872 29.5375 34.0127 29.54 34.0401C29.54 34.1101 29.49 34.1601 29.44 34.1601C29.4247 34.1615 29.4093 34.1597 29.3948 34.1548C29.3803 34.1499 29.367 34.142 29.3557 34.1316C29.3444 34.1213 29.3353 34.1087 29.3292 34.0946C29.3231 34.0806 29.3199 34.0654 29.32 34.0501C29.32 33.9801 29.37 33.9301 29.43 33.9301V33.9401ZM29.99 33.9401C30.0106 33.9397 30.0309 33.9451 30.0486 33.9557C30.0663 33.9664 30.0806 33.9817 30.09 34.0001L30.11 34.0501C30.11 34.0654 30.1069 34.0806 30.1008 34.0946C30.0946 34.1087 30.0856 34.1213 30.0743 34.1316C30.063 34.142 30.0497 34.1499 30.0352 34.1548C30.0206 34.1597 30.0052 34.1615 29.99 34.1601C29.9626 34.1576 29.9371 34.1449 29.9186 34.1245C29.9001 34.1042 29.8899 34.0776 29.89 34.0501C29.89 33.9901 29.93 33.9301 29.99 33.9301V33.9401ZM30.56 33.9401C30.61 33.9401 30.66 33.9801 30.66 34.0401C30.6614 34.0545 30.6599 34.0691 30.6556 34.083C30.6513 34.0969 30.6443 34.1098 30.635 34.1209C30.6257 34.1321 30.6143 34.1413 30.6014 34.148C30.5885 34.1547 30.5744 34.1588 30.56 34.1601C30.5447 34.1615 30.5293 34.1597 30.5148 34.1548C30.5003 34.1499 30.487 34.142 30.4757 34.1316C30.4644 34.1213 30.4553 34.1087 30.4492 34.0946C30.4431 34.0806 30.4399 34.0654 30.44 34.0501C30.44 33.9901 30.49 33.9301 30.55 33.9301L30.56 33.9401ZM31.12 33.9401C31.18 33.9401 31.22 33.9801 31.23 34.0401C31.2314 34.0554 31.2296 34.0707 31.2247 34.0853C31.2198 34.0998 31.2119 34.1131 31.2015 34.1244C31.1912 34.1357 31.1786 34.1447 31.1645 34.1509C31.1505 34.157 31.1353 34.1602 31.12 34.1601C31.0908 34.1601 31.0628 34.1485 31.0422 34.1279C31.0216 34.1072 31.01 34.0793 31.01 34.0501C31.01 33.9901 31.06 33.9301 31.11 33.9301L31.12 33.9401ZM31.68 33.9401C31.706 33.9397 31.7313 33.9485 31.7515 33.9649C31.7716 33.9814 31.7853 34.0045 31.79 34.0301V34.0501C31.79 34.1101 31.74 34.1601 31.68 34.1601C31.6508 34.1601 31.6228 34.1485 31.6022 34.1279C31.5816 34.1072 31.57 34.0793 31.57 34.0501C31.57 33.9901 31.62 33.9301 31.68 33.9301V33.9401ZM32.24 33.9401C32.266 33.9397 32.2913 33.9485 32.3115 33.9649C32.3316 33.9814 32.3453 34.0045 32.35 34.0301V34.0501C32.35 34.1101 32.3 34.1601 32.25 34.1601C32.2347 34.1615 32.2193 34.1597 32.2048 34.1548C32.1903 34.1499 32.1769 34.142 32.1657 34.1316C32.1544 34.1213 32.1453 34.1087 32.1392 34.0946C32.1331 34.0806 32.1299 34.0654 32.13 34.0501C32.13 33.9801 32.18 33.9301 32.24 33.9301V33.9401ZM32.8 33.9401C32.8144 33.9387 32.829 33.9402 32.8429 33.9445C32.8568 33.9488 32.8697 33.9558 32.8808 33.9651C32.892 33.9744 32.9012 33.9858 32.9079 33.9987C32.9146 34.0115 32.9187 34.0256 32.92 34.0401C32.92 34.1101 32.87 34.1601 32.8 34.1601C32.7726 34.1576 32.7471 34.1449 32.7286 34.1245C32.7101 34.1042 32.6999 34.0776 32.7 34.0501C32.7 33.9801 32.74 33.9301 32.8 33.9301V33.9401ZM33.37 33.9401C33.3957 33.9423 33.4199 33.9536 33.4382 33.9719C33.4565 33.9902 33.4677 34.0143 33.47 34.0401C33.47 34.1101 33.43 34.1601 33.37 34.1601C33.3547 34.1615 33.3393 34.1597 33.3248 34.1548C33.3103 34.1499 33.297 34.142 33.2857 34.1316C33.2744 34.1213 33.2653 34.1087 33.2592 34.0946C33.2531 34.0806 33.2499 34.0654 33.25 34.0501C33.25 33.9801 33.3 33.9301 33.37 33.9301V33.9401ZM33.93 33.9401C33.9575 33.94 33.9841 33.9502 34.0044 33.9687C34.0248 33.9872 34.0375 34.0127 34.04 34.0401C34.04 34.1101 33.99 34.1601 33.93 34.1601C33.9008 34.1601 33.8728 34.1485 33.8522 34.1279C33.8316 34.1072 33.82 34.0793 33.82 34.0501C33.82 33.9801 33.87 33.9301 33.93 33.9301V33.9401ZM34.49 33.9401C34.5106 33.9397 34.5309 33.9451 34.5486 33.9557C34.5663 33.9664 34.5806 33.9817 34.59 34.0001L34.6 34.0501C34.6 34.0793 34.5884 34.1072 34.5678 34.1279C34.5471 34.1485 34.5192 34.1601 34.49 34.1601C34.4608 34.1601 34.4328 34.1485 34.4122 34.1279C34.3916 34.1072 34.38 34.0793 34.38 34.0501C34.38 33.9901 34.43 33.9301 34.49 33.9301V33.9401ZM16.29 36.6801C16.7143 36.6708 17.125 36.8305 17.4316 37.124C17.7382 37.4175 17.9157 37.8207 17.925 38.2451C17.9343 38.6694 17.7746 39.0801 17.4811 39.3867C17.1876 39.6933 16.7843 39.8708 16.36 39.8801C15.9356 39.8907 15.5245 39.7323 15.2169 39.4397C14.9093 39.1472 14.7306 38.7444 14.72 38.3201C14.7094 37.8957 14.8678 37.4846 15.1603 37.177C15.4529 36.8694 15.8556 36.6907 16.28 36.6801H16.29ZM20.12 36.6801C20.5443 36.6801 20.9513 36.8487 21.2514 37.1487C21.5514 37.4488 21.72 37.8557 21.72 38.2801C21.72 38.7044 21.5514 39.1114 21.2514 39.4115C20.9513 39.7115 20.5443 39.8801 20.12 39.8801C19.6956 39.8801 19.2887 39.7115 18.9886 39.4115C18.6886 39.1114 18.52 38.7044 18.52 38.2801C18.52 37.8557 18.6886 37.4488 18.9886 37.1487C19.2887 36.8487 19.6956 36.6801 20.12 36.6801ZM23.95 36.6801C24.1601 36.6748 24.3692 36.711 24.5653 36.7866C24.7615 36.8621 24.9408 36.9756 25.0931 37.1204C25.2454 37.2653 25.3676 37.4387 25.4529 37.6308C25.5381 37.823 25.5847 38.03 25.59 38.2401C25.5952 38.4502 25.5591 38.6593 25.4835 38.8554C25.4079 39.0516 25.2945 39.2309 25.1496 39.3832C25.0048 39.5355 24.8313 39.6577 24.6392 39.743C24.4471 39.8282 24.2401 39.8748 24.03 39.8801C23.6056 39.8907 23.1945 39.7323 22.8869 39.4397C22.5793 39.1472 22.4006 38.7444 22.39 38.3201C22.3794 37.8957 22.5378 37.4846 22.8303 37.177C23.1229 36.8694 23.5256 36.6907 23.95 36.6801ZM27.79 36.6801C28.2143 36.6801 28.6213 36.8487 28.9214 37.1487C29.2214 37.4488 29.39 37.8557 29.39 38.2801C29.39 38.7044 29.2214 39.1114 28.9214 39.4115C28.6213 39.7115 28.2143 39.8801 27.79 39.8801C27.3656 39.8801 26.9587 39.7115 26.6586 39.4115C26.3586 39.1114 26.19 38.7044 26.19 38.2801C26.19 37.8557 26.3586 37.4488 26.6586 37.1487C26.9587 36.8487 27.3656 36.6801 27.79 36.6801ZM31.63 36.6801C31.8401 36.6748 32.0492 36.711 32.2453 36.7866C32.4415 36.8621 32.6208 36.9756 32.7731 37.1204C32.9254 37.2653 33.0476 37.4387 33.1329 37.6308C33.2181 37.823 33.2647 38.03 33.27 38.2401C33.2752 38.4502 33.2391 38.6593 33.1635 38.8554C33.0879 39.0516 32.9745 39.2309 32.8296 39.3832C32.6848 39.5355 32.5113 39.6577 32.3192 39.743C32.1271 39.8282 31.9201 39.8748 31.71 39.8801C31.2856 39.8907 30.8745 39.7323 30.5669 39.4397C30.2593 39.1472 30.0806 38.7444 30.07 38.3201C30.0594 37.8957 30.2178 37.4846 30.5103 37.177C30.8029 36.8694 31.2056 36.6907 31.63 36.6801Z" fill="#333333"/>
</svg>
