<svg width="48" height="48" viewBox="0 0 48 48" fill="none" xmlns="http://www.w3.org/2000/svg">
<path d="M14.346 4.09402C13.476 4.09402 12.777 4.79302 12.777 5.66202V42.523C12.777 43.393 13.477 44.093 14.346 44.093H34.05C34.92 44.093 35.618 43.393 35.618 42.523V5.66302C35.618 4.79302 34.919 4.09302 34.05 4.09302H14.346V4.09402ZM17.088 9.21402C17.2126 9.21236 17.3363 9.23537 17.4519 9.2817C17.5676 9.32804 17.673 9.3968 17.762 9.48402C17.8517 9.57044 17.9234 9.67374 17.973 9.78797C18.0226 9.90221 18.0491 10.0251 18.0511 10.1497C18.053 10.2742 18.0304 10.3979 17.9844 10.5136C17.9383 10.6293 17.8699 10.7348 17.783 10.824L15.975 12.684C15.8885 12.7736 15.7851 12.8453 15.6709 12.8948C15.5566 12.9443 15.4337 12.9708 15.3091 12.9726C15.1846 12.9745 15.0609 12.9517 14.9452 12.9056C14.8295 12.8595 14.7241 12.791 14.635 12.704C14.5452 12.6177 14.4734 12.5144 14.4237 12.4002C14.374 12.286 14.3474 12.1631 14.3454 12.0386C14.3433 11.9141 14.3659 11.7904 14.4118 11.6746C14.4578 11.5588 14.5261 11.4533 14.613 11.364L16.422 9.50602C16.5084 9.41614 16.6117 9.34424 16.726 9.29447C16.8403 9.2447 16.9633 9.21803 17.088 9.21602V9.21502V9.21402ZM21.088 9.21402C21.2126 9.21236 21.3363 9.23537 21.4519 9.2817C21.5676 9.32804 21.673 9.3968 21.762 9.48402C21.8517 9.57044 21.9234 9.67374 21.973 9.78797C22.0226 9.90221 22.0491 10.0251 22.0511 10.1497C22.053 10.2742 22.0304 10.3979 21.9844 10.5136C21.9383 10.6293 21.8699 10.7348 21.783 10.824L19.975 12.684C19.8885 12.7736 19.7851 12.8453 19.6709 12.8948C19.5566 12.9443 19.4337 12.9708 19.3091 12.9726C19.1846 12.9745 19.0609 12.9517 18.9452 12.9056C18.8295 12.8595 18.7241 12.791 18.635 12.704C18.5452 12.6177 18.4734 12.5144 18.4237 12.4002C18.374 12.286 18.3474 12.1631 18.3454 12.0386C18.3433 11.9141 18.3659 11.7904 18.4118 11.6746C18.4578 11.5588 18.5261 11.4533 18.613 11.364L20.422 9.50602C20.5084 9.41614 20.6117 9.34424 20.726 9.29447C20.8403 9.2447 20.9633 9.21803 21.088 9.21602V9.21502V9.21402ZM25.088 9.21402C25.2126 9.21236 25.3363 9.23537 25.4519 9.2817C25.5676 9.32804 25.673 9.3968 25.762 9.48402C25.8517 9.57044 25.9234 9.67374 25.973 9.78797C26.0226 9.90221 26.0491 10.0251 26.0511 10.1497C26.053 10.2742 26.0304 10.3979 25.9844 10.5136C25.9383 10.6293 25.8699 10.7348 25.783 10.824L23.975 12.684C23.8885 12.7736 23.7851 12.8453 23.6709 12.8948C23.5566 12.9443 23.4337 12.9708 23.3091 12.9726C23.1846 12.9745 23.0609 12.9517 22.9452 12.9056C22.8295 12.8595 22.7241 12.791 22.635 12.704C22.5452 12.6177 22.4734 12.5144 22.4237 12.4002C22.374 12.286 22.3474 12.1631 22.3454 12.0386C22.3433 11.9141 22.3659 11.7904 22.4118 11.6746C22.4578 11.5588 22.5261 11.4533 22.613 11.364L24.422 9.50602C24.5084 9.41614 24.6117 9.34424 24.726 9.29447C24.8403 9.2447 24.9633 9.21803 25.088 9.21602V9.21502V9.21402ZM29.088 9.21402C29.2126 9.21236 29.3363 9.23537 29.4519 9.2817C29.5676 9.32804 29.673 9.3968 29.762 9.48402C29.8517 9.57044 29.9234 9.67374 29.973 9.78797C30.0226 9.90221 30.0491 10.0251 30.0511 10.1497C30.053 10.2742 30.0304 10.3979 29.9844 10.5136C29.9383 10.6293 29.8699 10.7348 29.783 10.824L27.975 12.684C27.8885 12.7736 27.7851 12.8453 27.6709 12.8948C27.5566 12.9443 27.4337 12.9708 27.3091 12.9726C27.1846 12.9745 27.0609 12.9517 26.9452 12.9056C26.8295 12.8595 26.7241 12.791 26.635 12.704C26.5452 12.6177 26.4734 12.5144 26.4237 12.4002C26.374 12.286 26.3474 12.1631 26.3454 12.0386C26.3433 11.9141 26.3659 11.7904 26.4118 11.6746C26.4578 11.5588 26.5261 11.4533 26.613 11.364L28.422 9.50602C28.5084 9.41614 28.6117 9.34424 28.726 9.29447C28.8403 9.2447 28.9633 9.21803 29.088 9.21602V9.21502V9.21402ZM33.088 9.21402C33.2126 9.21236 33.3363 9.23537 33.4519 9.2817C33.5676 9.32804 33.673 9.3968 33.762 9.48402C33.8517 9.57044 33.9234 9.67374 33.973 9.78797C34.0226 9.90221 34.0491 10.0251 34.0511 10.1497C34.053 10.2742 34.0304 10.3979 33.9844 10.5136C33.9383 10.6293 33.8699 10.7348 33.783 10.824L31.975 12.684C31.8885 12.7736 31.7851 12.8453 31.6709 12.8948C31.5566 12.9443 31.4337 12.9708 31.3091 12.9726C31.1846 12.9745 31.0609 12.9517 30.9452 12.9056C30.8295 12.8595 30.7241 12.791 30.635 12.704C30.5452 12.6177 30.4734 12.5144 30.4237 12.4002C30.374 12.286 30.3474 12.1631 30.3454 12.0386C30.3433 11.9141 30.3659 11.7904 30.4118 11.6746C30.4578 11.5588 30.5261 11.4533 30.613 11.364L32.422 9.50602C32.5084 9.41614 32.6117 9.34424 32.726 9.29447C32.8403 9.2447 32.9633 9.21803 33.088 9.21602V9.21502V9.21402ZM13.795 14.98C13.8232 14.9827 13.8495 14.9958 13.8686 15.0168C13.8877 15.0378 13.8983 15.0651 13.8983 15.0935C13.8983 15.1219 13.8877 15.1493 13.8686 15.1703C13.8495 15.1913 13.8232 15.2044 13.795 15.207C13.7654 15.2062 13.7374 15.194 13.7166 15.1729C13.6959 15.1519 13.6842 15.1236 13.684 15.094C13.684 15.031 13.733 14.981 13.794 14.98H13.795ZM14.357 14.98C14.3839 14.9792 14.4102 14.9884 14.4309 15.0057C14.4515 15.023 14.4651 15.0473 14.469 15.074V15.094C14.468 15.155 14.419 15.207 14.357 15.207C14.3272 15.2065 14.2987 15.1944 14.2776 15.1734C14.2566 15.1523 14.2445 15.1238 14.244 15.094C14.244 15.031 14.295 14.981 14.357 14.98ZM14.92 14.98C14.9468 14.9795 14.9728 14.9887 14.9932 15.0061C15.0137 15.0234 15.0271 15.0475 15.031 15.074V15.094C15.031 15.155 14.981 15.207 14.92 15.207C14.8901 15.2068 14.8615 15.1948 14.8404 15.1736C14.8192 15.1525 14.8072 15.1239 14.807 15.094C14.807 15.031 14.857 14.98 14.92 14.98ZM15.482 14.98C15.4969 14.98 15.5116 14.983 15.5253 14.9887C15.539 14.9945 15.5515 15.0029 15.5619 15.0135C15.5723 15.0241 15.5805 15.0367 15.586 15.0505C15.5915 15.0644 15.5942 15.0791 15.594 15.094C15.593 15.155 15.544 15.207 15.482 15.207C15.4521 15.2068 15.4235 15.1948 15.4024 15.1736C15.3812 15.1525 15.3692 15.1239 15.369 15.094C15.369 15.031 15.419 14.98 15.482 14.98ZM16.045 14.98C16.0598 14.9801 16.0744 14.9832 16.088 14.989C16.1016 14.9948 16.1139 15.0033 16.1242 15.0139C16.1346 15.0245 16.1427 15.037 16.1481 15.0508C16.1536 15.0645 16.1562 15.0792 16.156 15.094C16.156 15.155 16.106 15.207 16.045 15.207C16.0151 15.2068 15.9865 15.1948 15.9654 15.1736C15.9442 15.1525 15.9322 15.1239 15.932 15.094C15.932 15.031 15.982 14.98 16.045 14.98ZM16.607 14.98C16.6219 14.98 16.6366 14.983 16.6503 14.9887C16.664 14.9945 16.6765 15.0029 16.6869 15.0135C16.6973 15.0241 16.7055 15.0367 16.711 15.0505C16.7165 15.0644 16.7192 15.0791 16.719 15.094C16.718 15.155 16.669 15.207 16.607 15.207C16.5771 15.2068 16.5485 15.1948 16.5274 15.1736C16.5062 15.1525 16.4942 15.1239 16.494 15.094C16.494 15.031 16.544 14.98 16.607 14.98ZM17.168 14.98C17.1829 14.9799 17.1978 14.9827 17.2116 14.9884C17.2254 14.9941 17.238 15.0025 17.2485 15.0132C17.2591 15.0238 17.2674 15.0364 17.2729 15.0503C17.2785 15.0642 17.2812 15.0791 17.281 15.094C17.2807 15.1239 17.2687 15.1525 17.2476 15.1736C17.2265 15.1948 17.1979 15.2068 17.168 15.207C17.1384 15.2062 17.1104 15.194 17.0896 15.1729C17.0689 15.1519 17.0572 15.1236 17.057 15.094C17.057 15.031 17.106 14.981 17.168 14.98ZM17.731 14.98C17.7459 14.9799 17.7608 14.9827 17.7746 14.9884C17.7884 14.9941 17.801 15.0025 17.8115 15.0132C17.8221 15.0238 17.8304 15.0364 17.8359 15.0503C17.8415 15.0642 17.8442 15.0791 17.844 15.094C17.8437 15.1241 17.8316 15.1528 17.8102 15.174C17.7889 15.1951 17.76 15.207 17.73 15.207C17.7006 15.206 17.6728 15.1937 17.6523 15.1726C17.6318 15.1516 17.6202 15.1234 17.62 15.094C17.619 15.031 17.669 14.981 17.73 14.98H17.731ZM18.293 14.98C18.3079 14.9799 18.3228 14.9827 18.3366 14.9884C18.3504 14.9941 18.363 15.0025 18.3735 15.0132C18.3841 15.0238 18.3924 15.0364 18.3979 15.0503C18.4035 15.0642 18.4062 15.0791 18.406 15.094C18.4057 15.1239 18.3937 15.1525 18.3726 15.1736C18.3515 15.1948 18.3229 15.2068 18.293 15.207C18.2634 15.2062 18.2354 15.194 18.2146 15.1729C18.1939 15.1519 18.1822 15.1236 18.182 15.094C18.182 15.031 18.231 14.981 18.293 14.98ZM18.856 14.98C18.8826 14.9797 18.9084 14.9891 18.9286 15.0064C18.9488 15.0237 18.9621 15.0477 18.966 15.074V15.094C18.966 15.155 18.916 15.207 18.856 15.207C18.8263 15.2065 18.7979 15.1944 18.777 15.1733C18.7561 15.1522 18.7442 15.1237 18.744 15.094C18.744 15.031 18.794 14.981 18.855 14.98H18.856ZM19.418 14.98C19.4328 14.9801 19.4474 14.9832 19.461 14.989C19.4746 14.9948 19.4869 15.0033 19.4972 15.0139C19.5076 15.0245 19.5157 15.037 19.5211 15.0508C19.5266 15.0645 19.5292 15.0792 19.529 15.094C19.529 15.155 19.479 15.207 19.418 15.207C19.3881 15.2068 19.3595 15.1948 19.3384 15.1736C19.3172 15.1525 19.3052 15.1239 19.305 15.094C19.305 15.031 19.355 14.98 19.418 14.98ZM19.981 14.98C19.9957 14.9803 20.0102 14.9834 20.0237 14.9893C20.0372 14.9952 20.0494 15.0036 20.0596 15.0142C20.0698 15.0248 20.0778 15.0373 20.0832 15.051C20.0886 15.0647 20.0912 15.0793 20.091 15.094C20.091 15.155 20.041 15.207 19.981 15.207C19.9509 15.207 19.9221 15.1951 19.9007 15.174C19.8794 15.1528 19.8672 15.1241 19.867 15.094C19.867 15.031 19.917 14.98 19.98 14.98H19.981ZM20.543 14.98C20.5578 14.9801 20.5724 14.9832 20.586 14.989C20.5996 14.9948 20.6119 15.0033 20.6222 15.0139C20.6326 15.0245 20.6407 15.037 20.6461 15.0508C20.6516 15.0645 20.6542 15.0792 20.654 15.094C20.654 15.155 20.604 15.207 20.543 15.207C20.5131 15.2068 20.4845 15.1948 20.4634 15.1736C20.4422 15.1525 20.4302 15.1239 20.43 15.094C20.43 15.031 20.48 14.98 20.543 14.98ZM21.106 14.98C21.1207 14.9803 21.1352 14.9834 21.1487 14.9893C21.1622 14.9952 21.1744 15.0036 21.1846 15.0142C21.1948 15.0248 21.2028 15.0373 21.2082 15.051C21.2136 15.0647 21.2162 15.0793 21.216 15.094C21.216 15.155 21.166 15.207 21.106 15.207C21.0759 15.207 21.0471 15.1951 21.0257 15.174C21.0044 15.1528 20.9922 15.1241 20.992 15.094C20.992 15.031 21.042 14.98 21.105 14.98H21.106ZM21.666 14.98C21.6809 14.9799 21.6958 14.9827 21.7096 14.9884C21.7235 14.9941 21.736 15.0025 21.7465 15.0132C21.7571 15.0238 21.7654 15.0364 21.7709 15.0503C21.7765 15.0642 21.7792 15.0791 21.779 15.094C21.7787 15.1239 21.7667 15.1525 21.7456 15.1736C21.7245 15.1948 21.6959 15.2068 21.666 15.207C21.6364 15.2062 21.6084 15.194 21.5876 15.1729C21.5669 15.1519 21.5552 15.1236 21.555 15.094C21.555 15.031 21.604 14.981 21.666 14.98ZM22.229 14.98C22.2439 14.9799 22.2588 14.9827 22.2726 14.9884C22.2865 14.9941 22.299 15.0025 22.3095 15.0132C22.3201 15.0238 22.3284 15.0364 22.3339 15.0503C22.3395 15.0642 22.3422 15.0791 22.342 15.094C22.3417 15.1239 22.3297 15.1525 22.3086 15.1736C22.2875 15.1948 22.2589 15.2068 22.229 15.207C22.1993 15.2065 22.1709 15.1944 22.15 15.1733C22.1291 15.1522 22.1172 15.1237 22.117 15.094C22.117 15.031 22.167 14.981 22.228 14.98H22.229ZM22.791 14.98C22.8192 14.9827 22.8455 14.9958 22.8646 15.0168C22.8837 15.0378 22.8943 15.0651 22.8943 15.0935C22.8943 15.1219 22.8837 15.1493 22.8646 15.1703C22.8455 15.1913 22.8192 15.2044 22.791 15.207C22.7614 15.2062 22.7334 15.194 22.7126 15.1729C22.6919 15.1519 22.6802 15.1236 22.68 15.094C22.68 15.031 22.729 14.981 22.791 14.98ZM23.354 14.98C23.408 14.98 23.457 15.02 23.464 15.074V15.094C23.464 15.155 23.414 15.207 23.354 15.207C23.3243 15.2065 23.2959 15.1944 23.275 15.1733C23.2541 15.1522 23.2422 15.1237 23.242 15.094C23.242 15.031 23.292 14.981 23.353 14.98H23.354ZM23.916 14.98C23.9428 14.9795 23.9688 14.9887 23.9892 15.0061C24.0097 15.0234 24.0231 15.0475 24.027 15.074V15.094C24.027 15.155 23.977 15.207 23.916 15.207C23.8861 15.2068 23.8575 15.1948 23.8364 15.1736C23.8152 15.1525 23.8032 15.1239 23.803 15.094C23.803 15.031 23.853 14.98 23.916 14.98ZM24.479 14.98C24.4937 14.9803 24.5082 14.9834 24.5217 14.9893C24.5352 14.9952 24.5474 15.0036 24.5576 15.0142C24.5678 15.0248 24.5758 15.0373 24.5812 15.051C24.5866 15.0647 24.5892 15.0793 24.589 15.094C24.589 15.155 24.539 15.207 24.479 15.207C24.4489 15.207 24.4201 15.1951 24.3987 15.174C24.3774 15.1528 24.3652 15.1241 24.365 15.094C24.365 15.031 24.415 14.98 24.479 14.98ZM25.041 14.98C25.0558 14.9801 25.0704 14.9832 25.084 14.989C25.0976 14.9948 25.1099 15.0033 25.1202 15.0139C25.1306 15.0245 25.1387 15.037 25.1441 15.0508C25.1496 15.0645 25.1522 15.0792 25.152 15.094C25.152 15.155 25.102 15.207 25.041 15.207C25.0111 15.2068 24.9825 15.1948 24.9614 15.1736C24.9402 15.1525 24.9282 15.1239 24.928 15.094C24.928 15.031 24.978 14.98 25.041 14.98ZM25.601 14.98C25.616 14.9797 25.631 14.9825 25.6449 14.9881C25.6589 14.9938 25.6716 15.0022 25.6822 15.0128C25.6928 15.0234 25.7012 15.0361 25.7069 15.0501C25.7125 15.064 25.7152 15.079 25.715 15.094C25.7147 15.1239 25.7027 15.1525 25.6816 15.1736C25.6605 15.1948 25.6319 15.2068 25.602 15.207C25.5723 15.2065 25.5439 15.1944 25.523 15.1733C25.5021 15.1522 25.4902 15.1237 25.49 15.094C25.49 15.031 25.54 14.981 25.602 14.98H25.601ZM26.164 14.98C26.1789 14.9799 26.1938 14.9827 26.2076 14.9884C26.2214 14.9941 26.234 15.0025 26.2445 15.0132C26.2551 15.0238 26.2634 15.0364 26.2689 15.0503C26.2745 15.0642 26.2772 15.0791 26.277 15.094C26.2767 15.1239 26.2647 15.1525 26.2436 15.1736C26.2225 15.1948 26.1939 15.2068 26.164 15.207C26.1344 15.2062 26.1064 15.194 26.0856 15.1729C26.0649 15.1519 26.0532 15.1236 26.053 15.094C26.053 15.031 26.103 14.981 26.164 14.98ZM26.727 14.98C26.7419 14.9799 26.7568 14.9827 26.7706 14.9884C26.7844 14.9941 26.797 15.0025 26.8075 15.0132C26.8181 15.0238 26.8264 15.0364 26.8319 15.0503C26.8375 15.0642 26.8402 15.0791 26.84 15.094C26.8397 15.1239 26.8277 15.1525 26.8066 15.1736C26.7855 15.1948 26.7569 15.2068 26.727 15.207C26.6973 15.2065 26.6689 15.1944 26.648 15.1733C26.6271 15.1522 26.6152 15.1237 26.615 15.094C26.615 15.031 26.665 14.981 26.727 14.98ZM27.289 14.98C27.3172 14.9827 27.3435 14.9958 27.3626 15.0168C27.3817 15.0378 27.3923 15.0651 27.3923 15.0935C27.3923 15.1219 27.3817 15.1493 27.3626 15.1703C27.3435 15.1913 27.3172 15.2044 27.289 15.207C27.2594 15.2062 27.2314 15.194 27.2106 15.1729C27.1899 15.1519 27.1782 15.1236 27.178 15.094C27.178 15.031 27.228 14.981 27.289 14.98ZM27.852 14.98C27.8786 14.9797 27.9044 14.9891 27.9246 15.0064C27.9448 15.0237 27.9581 15.0477 27.962 15.074C27.964 15.082 27.964 15.086 27.962 15.094C27.962 15.155 27.912 15.207 27.852 15.207C27.8223 15.2065 27.7939 15.1944 27.773 15.1733C27.7521 15.1522 27.7402 15.1237 27.74 15.094C27.74 15.031 27.79 14.981 27.852 14.98ZM28.414 14.98C28.4288 14.9801 28.4434 14.9832 28.457 14.989C28.4706 14.9948 28.4829 15.0033 28.4932 15.0139C28.5036 15.0245 28.5117 15.037 28.5171 15.0508C28.5226 15.0645 28.5252 15.0792 28.525 15.094C28.525 15.155 28.475 15.207 28.415 15.207C28.3849 15.207 28.3561 15.1951 28.3347 15.174C28.3134 15.1528 28.3012 15.1241 28.301 15.094C28.301 15.031 28.351 14.98 28.414 14.98ZM28.977 14.98C28.9917 14.9803 29.0062 14.9834 29.0197 14.9893C29.0332 14.9952 29.0454 15.0036 29.0556 15.0142C29.0658 15.0248 29.0738 15.0373 29.0792 15.051C29.0846 15.0647 29.0872 15.0793 29.087 15.094C29.087 15.155 29.037 15.207 28.977 15.207C28.9469 15.207 28.9181 15.1951 28.8967 15.174C28.8754 15.1528 28.8632 15.1241 28.863 15.094C28.863 15.031 28.913 14.98 28.977 14.98ZM29.539 14.98C29.5538 14.9801 29.5684 14.9832 29.582 14.989C29.5956 14.9948 29.6079 15.0033 29.6182 15.0139C29.6286 15.0245 29.6367 15.037 29.6421 15.0508C29.6476 15.0645 29.6502 15.0792 29.65 15.094C29.65 15.155 29.6 15.207 29.54 15.207C29.5099 15.207 29.4811 15.1951 29.4597 15.174C29.4384 15.1528 29.4262 15.1241 29.426 15.094C29.426 15.031 29.476 14.98 29.539 14.98ZM30.099 14.98C30.114 14.9797 30.129 14.9825 30.1429 14.9881C30.1569 14.9938 30.1695 15.0022 30.1802 15.0128C30.1908 15.0234 30.1992 15.0361 30.2049 15.0501C30.2105 15.064 30.2132 15.079 30.213 15.094C30.2127 15.1239 30.2007 15.1525 30.1796 15.1736C30.1585 15.1948 30.1299 15.2068 30.1 15.207C30.0703 15.2065 30.0419 15.1944 30.021 15.1733C30.0001 15.1522 29.9882 15.1237 29.988 15.094C29.988 15.031 30.038 14.981 30.1 14.98H30.099ZM30.662 14.98C30.6769 14.9799 30.6918 14.9827 30.7056 14.9884C30.7194 14.9941 30.732 15.0025 30.7425 15.0132C30.7531 15.0238 30.7614 15.0364 30.7669 15.0503C30.7725 15.0642 30.7752 15.0791 30.775 15.094C30.7747 15.1239 30.7627 15.1525 30.7416 15.1736C30.7205 15.1948 30.6919 15.2068 30.662 15.207C30.6324 15.2062 30.6044 15.194 30.5836 15.1729C30.5629 15.1519 30.5512 15.1236 30.551 15.094C30.551 15.031 30.601 14.981 30.662 14.98ZM31.225 14.98C31.2399 14.9799 31.2548 14.9827 31.2686 14.9884C31.2824 14.9941 31.295 15.0025 31.3055 15.0132C31.3161 15.0238 31.3244 15.0364 31.3299 15.0503C31.3355 15.0642 31.3382 15.0791 31.338 15.094C31.3377 15.1239 31.3257 15.1525 31.3046 15.1736C31.2835 15.1948 31.2549 15.2068 31.225 15.207C31.1953 15.2065 31.1669 15.1944 31.146 15.1733C31.1251 15.1522 31.1132 15.1237 31.113 15.094C31.113 15.031 31.163 14.981 31.225 14.98ZM31.787 14.98C31.8138 14.9795 31.8398 14.9887 31.8602 15.0061C31.8807 15.0234 31.8941 15.0475 31.898 15.074V15.094C31.898 15.155 31.848 15.207 31.788 15.207C31.7583 15.2065 31.7299 15.1944 31.709 15.1733C31.6881 15.1522 31.6762 15.1237 31.676 15.094C31.675 15.031 31.726 14.981 31.787 14.98ZM32.35 14.98C32.3766 14.9797 32.4024 14.9891 32.4226 15.0064C32.4428 15.0237 32.4561 15.0477 32.46 15.074C32.462 15.082 32.462 15.086 32.46 15.094C32.46 15.155 32.41 15.207 32.35 15.207C32.3199 15.207 32.2911 15.1951 32.2697 15.174C32.2484 15.1528 32.2362 15.1241 32.236 15.094C32.236 15.031 32.286 14.98 32.35 14.98ZM32.912 14.98C32.9268 14.9801 32.9414 14.9832 32.955 14.989C32.9686 14.9948 32.9809 15.0033 32.9912 15.0139C33.0016 15.0245 33.0097 15.037 33.0151 15.0508C33.0206 15.0645 33.0232 15.0792 33.023 15.094C33.023 15.155 32.973 15.207 32.913 15.207C32.8829 15.207 32.8541 15.1951 32.8327 15.174C32.8114 15.1528 32.7992 15.1241 32.799 15.094C32.799 15.031 32.849 14.98 32.912 14.98ZM33.475 14.98C33.4897 14.9803 33.5042 14.9834 33.5177 14.9893C33.5312 14.9952 33.5434 15.0036 33.5536 15.0142C33.5638 15.0248 33.5718 15.0373 33.5772 15.051C33.5826 15.0647 33.5852 15.0793 33.585 15.094C33.585 15.155 33.535 15.207 33.475 15.207C33.4449 15.207 33.4161 15.1951 33.3947 15.174C33.3734 15.1528 33.3612 15.1241 33.361 15.094C33.361 15.031 33.411 14.98 33.475 14.98ZM34.037 14.98C34.0518 14.9801 34.0664 14.9832 34.08 14.989C34.0936 14.9948 34.1059 15.0033 34.1162 15.0139C34.1266 15.0245 34.1347 15.037 34.1401 15.0508C34.1456 15.0645 34.1482 15.0792 34.148 15.094C34.148 15.155 34.098 15.207 34.038 15.207C34.0079 15.207 33.9791 15.1951 33.9577 15.174C33.9364 15.1528 33.9242 15.1241 33.924 15.094C33.924 15.031 33.974 14.98 34.037 14.98ZM34.597 14.98C34.612 14.9797 34.627 14.9825 34.6409 14.9881C34.6549 14.9938 34.6676 15.0022 34.6782 15.0128C34.6888 15.0234 34.6972 15.0361 34.7029 15.0501C34.7085 15.064 34.7112 15.079 34.711 15.094C34.7107 15.1239 34.6987 15.1525 34.6776 15.1736C34.6565 15.1948 34.6279 15.2068 34.598 15.207C34.5683 15.2065 34.5399 15.1944 34.519 15.1733C34.4981 15.1522 34.4862 15.1237 34.486 15.094C34.486 15.031 34.536 14.981 34.598 14.98H34.597ZM17.09 17.88C17.2146 17.8784 17.3382 17.9014 17.4539 17.9478C17.5696 17.9941 17.6749 18.0628 17.764 18.15C17.8536 18.2365 17.9252 18.3399 17.9747 18.4541C18.0243 18.5684 18.0507 18.6913 18.0526 18.8159C18.0545 18.9404 18.0317 19.0641 17.9856 19.1798C17.9395 19.2954 17.871 19.4009 17.784 19.49L15.974 21.35C15.8876 21.4399 15.7843 21.5117 15.67 21.5614C15.5558 21.6111 15.4328 21.6376 15.3081 21.6395C15.1835 21.6413 15.0598 21.6185 14.9441 21.5722C14.8284 21.526 14.723 21.4573 14.634 21.37C14.5444 21.2835 14.4727 21.1802 14.4232 21.0659C14.3737 20.9516 14.3472 20.8287 14.3454 20.7042C14.3435 20.5796 14.3663 20.456 14.4124 20.3403C14.4585 20.2246 14.527 20.1191 14.614 20.03L16.422 18.172C16.5084 18.0821 16.6117 18.0102 16.726 17.9605C16.8403 17.9107 16.9633 17.884 17.088 17.882L17.09 17.881V17.88ZM25.088 17.88C25.2126 17.8784 25.3363 17.9014 25.4519 17.9477C25.5676 17.994 25.673 18.0628 25.762 18.15C25.8517 18.2364 25.9234 18.3397 25.973 18.454C26.0226 18.5682 26.0491 18.6911 26.0511 18.8157C26.053 18.9402 26.0304 19.0639 25.9844 19.1796C25.9383 19.2953 25.8699 19.4008 25.783 19.49L23.975 21.35C23.8886 21.4399 23.7853 21.5117 23.671 21.5614C23.5568 21.6111 23.4338 21.6376 23.3091 21.6395C23.1845 21.6413 23.0608 21.6185 22.9451 21.5722C22.8294 21.526 22.724 21.4573 22.635 21.37C22.5452 21.2837 22.4734 21.1804 22.4237 21.0662C22.374 20.952 22.3474 20.8291 22.3454 20.7046C22.3433 20.5801 22.3659 20.4564 22.4118 20.3406C22.4578 20.2248 22.5261 20.1193 22.613 20.03L24.422 18.172C24.5084 18.0821 24.6117 18.0102 24.726 17.9605C24.8403 17.9107 24.9633 17.884 25.088 17.882V17.881V17.88ZM29.088 17.88C29.2126 17.8784 29.3363 17.9014 29.4519 17.9477C29.5676 17.994 29.673 18.0628 29.762 18.15C29.8517 18.2364 29.9234 18.3397 29.973 18.454C30.0226 18.5682 30.0491 18.6911 30.0511 18.8157C30.053 18.9402 30.0304 19.0639 29.9844 19.1796C29.9383 19.2953 29.8699 19.4008 29.783 19.49L27.975 21.35C27.8886 21.4399 27.7853 21.5117 27.671 21.5614C27.5568 21.6111 27.4338 21.6376 27.3091 21.6395C27.1845 21.6413 27.0608 21.6185 26.9451 21.5722C26.8294 21.526 26.724 21.4573 26.635 21.37C26.5452 21.2837 26.4734 21.1804 26.4237 21.0662C26.374 20.952 26.3474 20.8291 26.3454 20.7046C26.3433 20.5801 26.3659 20.4564 26.4118 20.3406C26.4578 20.2248 26.5261 20.1193 26.613 20.03L28.422 18.172C28.5084 18.0821 28.6117 18.0102 28.726 17.9605C28.8403 17.9107 28.9633 17.884 29.088 17.882V17.881V17.88ZM33.088 17.88C33.2126 17.8784 33.3363 17.9014 33.4519 17.9477C33.5676 17.994 33.673 18.0628 33.762 18.15C33.8517 18.2364 33.9234 18.3397 33.973 18.454C34.0226 18.5682 34.0491 18.6911 34.0511 18.8157C34.053 18.9402 34.0304 19.0639 33.9844 19.1796C33.9383 19.2953 33.8699 19.4008 33.783 19.49L31.975 21.35C31.8886 21.4399 31.7853 21.5117 31.671 21.5614C31.5568 21.6111 31.4338 21.6376 31.3091 21.6395C31.1845 21.6413 31.0608 21.6185 30.9451 21.5722C30.8294 21.526 30.724 21.4573 30.635 21.37C30.5452 21.2837 30.4734 21.1804 30.4237 21.0662C30.374 20.952 30.3474 20.8291 30.3454 20.7046C30.3433 20.5801 30.3659 20.4564 30.4118 20.3406C30.4578 20.2248 30.5261 20.1193 30.613 20.03L32.422 18.172C32.5084 18.0821 32.6117 18.0102 32.726 17.9605C32.8403 17.9107 32.9633 17.884 33.088 17.882V17.881V17.88ZM21.088 17.883C21.2126 17.8814 21.3363 17.9044 21.4519 17.9507C21.5676 17.997 21.673 18.0658 21.762 18.153C21.8517 18.2394 21.9234 18.3427 21.973 18.457C22.0226 18.5712 22.0491 18.6941 22.0511 18.8187C22.053 18.9432 22.0304 19.0669 21.9844 19.1826C21.9383 19.2983 21.8699 19.4038 21.783 19.493L19.975 21.35C19.8886 21.4399 19.7853 21.5117 19.671 21.5614C19.5568 21.6111 19.4338 21.6376 19.3091 21.6395C19.1845 21.6413 19.0608 21.6185 18.9451 21.5722C18.8294 21.526 18.724 21.4573 18.635 21.37C18.5452 21.2837 18.4734 21.1804 18.4237 21.0662C18.374 20.952 18.3474 20.8291 18.3454 20.7046C18.3433 20.5801 18.3659 20.4564 18.4118 20.3406C18.4578 20.2248 18.5261 20.1193 18.613 20.03L20.422 18.172C20.5084 18.0821 20.6117 18.0102 20.726 17.9605C20.8403 17.9107 20.9633 17.884 21.088 17.882V17.883ZM13.795 23.981C13.858 23.981 13.909 24.031 13.908 24.094C13.9077 24.1239 13.8957 24.1525 13.8746 24.1736C13.8535 24.1948 13.8249 24.2068 13.795 24.207C13.7654 24.2062 13.7374 24.194 13.7166 24.1729C13.6959 24.1519 13.6842 24.1236 13.684 24.094C13.684 24.031 13.733 23.981 13.794 23.98L13.795 23.981ZM14.357 23.981C14.3838 23.9802 14.4099 23.9892 14.4306 24.0063C14.4512 24.0235 14.4648 24.0475 14.469 24.074V24.094C14.468 24.155 14.419 24.207 14.357 24.207C14.3272 24.2065 14.2987 24.1944 14.2776 24.1734C14.2566 24.1523 14.2445 24.1238 14.244 24.094C14.244 24.031 14.295 23.981 14.357 23.98V23.981ZM14.92 23.981C14.9466 23.9805 14.9725 23.9896 14.9929 24.0067C15.0134 24.0238 15.0269 24.0477 15.031 24.074V24.094C15.031 24.155 14.981 24.207 14.92 24.207C14.8901 24.2068 14.8615 24.1948 14.8404 24.1736C14.8192 24.1525 14.8072 24.1239 14.807 24.094C14.807 24.031 14.857 23.98 14.92 23.98V23.981ZM15.482 23.981C15.4968 23.981 15.5114 23.9839 15.5251 23.9896C15.5387 23.9953 15.5511 24.0037 15.5615 24.0142C15.5719 24.0247 15.5802 24.0371 15.5857 24.0508C15.5913 24.0646 15.5941 24.0792 15.594 24.094C15.593 24.155 15.544 24.207 15.482 24.207C15.4521 24.2068 15.4235 24.1948 15.4024 24.1736C15.3812 24.1525 15.3692 24.1239 15.369 24.094C15.369 24.031 15.419 23.98 15.482 23.98V23.981ZM16.045 23.981C16.0597 23.9811 16.0742 23.9842 16.0878 23.9899C16.1013 23.9957 16.1136 24.004 16.1239 24.0145C16.1342 24.025 16.1423 24.0374 16.1478 24.0511C16.1533 24.0647 16.1561 24.0793 16.156 24.094C16.156 24.155 16.106 24.207 16.045 24.207C16.0151 24.2068 15.9865 24.1948 15.9654 24.1736C15.9442 24.1525 15.9322 24.1239 15.932 24.094C15.932 24.031 15.982 23.98 16.045 23.98V23.981ZM16.607 23.981C16.6218 23.981 16.6364 23.9839 16.6501 23.9896C16.6637 23.9953 16.6761 24.0037 16.6865 24.0142C16.6969 24.0247 16.7052 24.0371 16.7107 24.0508C16.7163 24.0646 16.7191 24.0792 16.719 24.094C16.718 24.155 16.669 24.207 16.607 24.207C16.5771 24.2068 16.5485 24.1948 16.5274 24.1736C16.5062 24.1525 16.4942 24.1239 16.494 24.094C16.494 24.031 16.544 23.98 16.607 23.98V23.981ZM17.168 23.981C17.1829 23.9809 17.1976 23.9837 17.2114 23.9893C17.2251 23.995 17.2377 24.0033 17.2482 24.0138C17.2587 24.0243 17.267 24.0368 17.2726 24.0506C17.2783 24.0644 17.2811 24.0791 17.281 24.094C17.2807 24.1239 17.2687 24.1525 17.2476 24.1736C17.2265 24.1948 17.1979 24.2068 17.168 24.207C17.1384 24.2062 17.1104 24.194 17.0896 24.1729C17.0689 24.1519 17.0572 24.1236 17.057 24.094C17.057 24.031 17.106 23.981 17.168 23.98V23.981ZM17.731 23.981C17.7459 23.9809 17.7606 23.9837 17.7744 23.9893C17.7881 23.995 17.8007 24.0033 17.8112 24.0138C17.8217 24.0243 17.83 24.0368 17.8356 24.0506C17.8413 24.0644 17.8441 24.0791 17.844 24.094C17.8437 24.1241 17.8316 24.1528 17.8102 24.174C17.7889 24.1951 17.76 24.207 17.73 24.207C17.7006 24.206 17.6728 24.1937 17.6523 24.1726C17.6318 24.1516 17.6202 24.1234 17.62 24.094C17.619 24.031 17.669 23.981 17.73 23.98L17.731 23.981ZM18.293 23.981C18.3079 23.9809 18.3226 23.9837 18.3364 23.9893C18.3501 23.995 18.3627 24.0033 18.3732 24.0138C18.3837 24.0243 18.392 24.0368 18.3976 24.0506C18.4033 24.0644 18.4061 24.0791 18.406 24.094C18.4057 24.1239 18.3937 24.1525 18.3726 24.1736C18.3515 24.1948 18.3229 24.2068 18.293 24.207C18.2634 24.2062 18.2354 24.194 18.2146 24.1729C18.1939 24.1519 18.1822 24.1236 18.182 24.094C18.182 24.031 18.231 23.981 18.293 23.98V23.981ZM18.856 23.981C18.8824 23.9807 18.9081 23.9899 18.9283 24.007C18.9485 24.0241 18.9619 24.0479 18.966 24.074V24.094C18.966 24.155 18.916 24.207 18.856 24.207C18.8263 24.2065 18.7979 24.1944 18.777 24.1733C18.7561 24.1522 18.7442 24.1237 18.744 24.094C18.744 24.031 18.794 23.981 18.855 23.98L18.856 23.981ZM19.418 23.981C19.4327 23.9811 19.4472 23.9842 19.4608 23.9899C19.4743 23.9957 19.4866 24.004 19.4969 24.0145C19.5072 24.025 19.5153 24.0374 19.5208 24.0511C19.5263 24.0647 19.5291 24.0793 19.529 24.094C19.529 24.155 19.479 24.207 19.418 24.207C19.3881 24.2068 19.3595 24.1948 19.3384 24.1736C19.3172 24.1525 19.3052 24.1239 19.305 24.094C19.305 24.031 19.355 23.98 19.418 23.98V23.981ZM19.981 23.981C20.0105 23.9815 20.0386 23.9937 20.0592 24.0149C20.0798 24.036 20.0912 24.0645 20.091 24.094C20.091 24.155 20.041 24.207 19.981 24.207C19.9509 24.207 19.9221 24.1951 19.9007 24.174C19.8794 24.1528 19.8672 24.1241 19.867 24.094C19.867 24.031 19.917 23.98 19.98 23.98L19.981 23.981ZM20.543 23.981C20.5577 23.9811 20.5722 23.9842 20.5858 23.9899C20.5993 23.9957 20.6116 24.004 20.6219 24.0145C20.6322 24.025 20.6403 24.0374 20.6458 24.0511C20.6513 24.0647 20.6541 24.0793 20.654 24.094C20.654 24.155 20.604 24.207 20.543 24.207C20.5131 24.2068 20.4845 24.1948 20.4634 24.1736C20.4422 24.1525 20.4302 24.1239 20.43 24.094C20.43 24.031 20.48 23.98 20.543 23.98V23.981ZM21.106 23.981C21.1355 23.9815 21.1636 23.9937 21.1842 24.0149C21.2048 24.036 21.2162 24.0645 21.216 24.094C21.216 24.155 21.166 24.207 21.106 24.207C21.0759 24.207 21.0471 24.1951 21.0257 24.174C21.0044 24.1528 20.9922 24.1241 20.992 24.094C20.992 24.031 21.042 23.98 21.105 23.98L21.106 23.981ZM21.666 23.981C21.6809 23.9809 21.6956 23.9837 21.7094 23.9893C21.7231 23.995 21.7357 24.0033 21.7462 24.0138C21.7567 24.0243 21.765 24.0368 21.7706 24.0506C21.7763 24.0644 21.7791 24.0791 21.779 24.094C21.7787 24.1239 21.7667 24.1525 21.7456 24.1736C21.7245 24.1948 21.6959 24.2068 21.666 24.207C21.6364 24.2062 21.6084 24.194 21.5876 24.1729C21.5669 24.1519 21.5552 24.1236 21.555 24.094C21.555 24.031 21.604 23.981 21.666 23.98V23.981ZM22.229 23.981C22.2439 23.9809 22.2586 23.9837 22.2724 23.9893C22.2861 23.995 22.2987 24.0033 22.3092 24.0138C22.3197 24.0243 22.328 24.0368 22.3336 24.0506C22.3393 24.0644 22.3421 24.0791 22.342 24.094C22.3417 24.1239 22.3297 24.1525 22.3086 24.1736C22.2875 24.1948 22.2589 24.2068 22.229 24.207C22.1993 24.2065 22.1709 24.1944 22.15 24.1733C22.1291 24.1522 22.1172 24.1237 22.117 24.094C22.117 24.031 22.167 23.981 22.228 23.98L22.229 23.981ZM22.791 23.981C22.854 23.981 22.905 24.031 22.904 24.094C22.9037 24.1239 22.8917 24.1525 22.8706 24.1736C22.8495 24.1948 22.8209 24.2068 22.791 24.207C22.7614 24.2062 22.7334 24.194 22.7126 24.1729C22.6919 24.1519 22.6802 24.1236 22.68 24.094C22.68 24.031 22.729 23.981 22.791 23.98V23.981ZM23.354 23.981C23.408 23.981 23.457 24.02 23.464 24.074V24.094C23.464 24.155 23.414 24.207 23.354 24.207C23.3243 24.2065 23.2959 24.1944 23.275 24.1733C23.2541 24.1522 23.2422 24.1237 23.242 24.094C23.242 24.031 23.292 23.981 23.353 23.98L23.354 23.981ZM23.916 23.981C23.9426 23.9805 23.9685 23.9896 23.9889 24.0067C24.0094 24.0238 24.0229 24.0477 24.027 24.074V24.094C24.027 24.155 23.977 24.207 23.916 24.207C23.8861 24.2068 23.8575 24.1948 23.8364 24.1736C23.8152 24.1525 23.8032 24.1239 23.803 24.094C23.803 24.031 23.853 23.98 23.916 23.98V23.981ZM24.479 23.981C24.5085 23.9815 24.5366 23.9937 24.5572 24.0149C24.5778 24.036 24.5892 24.0645 24.589 24.094C24.589 24.155 24.539 24.207 24.479 24.207C24.4489 24.207 24.4201 24.1951 24.3987 24.174C24.3774 24.1528 24.3652 24.1241 24.365 24.094C24.365 24.031 24.415 23.98 24.479 23.98V23.981ZM25.041 23.981C25.0557 23.9811 25.0702 23.9842 25.0838 23.9899C25.0973 23.9957 25.1096 24.004 25.1199 24.0145C25.1302 24.025 25.1383 24.0374 25.1438 24.0511C25.1493 24.0647 25.1521 24.0793 25.152 24.094C25.152 24.155 25.102 24.207 25.041 24.207C25.0111 24.2068 24.9825 24.1948 24.9614 24.1736C24.9402 24.1525 24.9282 24.1239 24.928 24.094C24.928 24.031 24.978 23.98 25.041 23.98V23.981ZM25.601 23.981C25.6159 23.9808 25.6308 23.9835 25.6447 23.9891C25.6586 23.9946 25.6712 24.0029 25.6818 24.0135C25.6925 24.024 25.7009 24.0365 25.7066 24.0504C25.7122 24.0642 25.7151 24.0791 25.715 24.094C25.7147 24.1239 25.7027 24.1525 25.6816 24.1736C25.6605 24.1948 25.6319 24.2068 25.602 24.207C25.5723 24.2065 25.5439 24.1944 25.523 24.1733C25.5021 24.1522 25.4902 24.1237 25.49 24.094C25.49 24.031 25.54 23.981 25.602 23.98L25.601 23.981ZM26.164 23.981C26.1789 23.9809 26.1936 23.9837 26.2074 23.9893C26.2211 23.995 26.2337 24.0033 26.2442 24.0138C26.2547 24.0243 26.263 24.0368 26.2686 24.0506C26.2743 24.0644 26.2771 24.0791 26.277 24.094C26.2767 24.1239 26.2647 24.1525 26.2436 24.1736C26.2225 24.1948 26.1939 24.2068 26.164 24.207C26.1344 24.2062 26.1064 24.194 26.0856 24.1729C26.0649 24.1519 26.0532 24.1236 26.053 24.094C26.053 24.031 26.103 23.981 26.164 23.98V23.981ZM26.727 23.981C26.7419 23.9809 26.7566 23.9837 26.7704 23.9893C26.7841 23.995 26.7967 24.0033 26.8072 24.0138C26.8177 24.0243 26.826 24.0368 26.8316 24.0506C26.8373 24.0644 26.8401 24.0791 26.84 24.094C26.8397 24.1239 26.8277 24.1525 26.8066 24.1736C26.7855 24.1948 26.7569 24.2068 26.727 24.207C26.6973 24.2065 26.6689 24.1944 26.648 24.1733C26.6271 24.1522 26.6152 24.1237 26.615 24.094C26.615 24.031 26.665 23.981 26.727 23.98V23.981ZM27.289 23.981C27.352 23.981 27.403 24.031 27.402 24.094C27.4017 24.1239 27.3897 24.1525 27.3686 24.1736C27.3475 24.1948 27.3189 24.2068 27.289 24.207C27.2594 24.2062 27.2314 24.194 27.2106 24.1729C27.1899 24.1519 27.1782 24.1236 27.178 24.094C27.178 24.031 27.228 23.981 27.289 23.98V23.981ZM27.852 23.981C27.8784 23.9807 27.9041 23.9899 27.9243 24.007C27.9445 24.0241 27.9579 24.0479 27.962 24.074C27.964 24.082 27.964 24.086 27.962 24.094C27.962 24.155 27.912 24.207 27.852 24.207C27.8223 24.2065 27.7939 24.1944 27.773 24.1733C27.7521 24.1522 27.7402 24.1237 27.74 24.094C27.74 24.031 27.79 23.981 27.852 23.98V23.981ZM28.414 23.981C28.4287 23.9811 28.4432 23.9842 28.4568 23.9899C28.4703 23.9957 28.4826 24.004 28.4929 24.0145C28.5032 24.025 28.5113 24.0374 28.5168 24.0511C28.5223 24.0647 28.5251 24.0793 28.525 24.094C28.525 24.155 28.475 24.207 28.415 24.207C28.3849 24.207 28.3561 24.1951 28.3347 24.174C28.3134 24.1528 28.3012 24.1241 28.301 24.094C28.301 24.031 28.351 23.98 28.414 23.98V23.981ZM28.977 23.981C29.0065 23.9815 29.0346 23.9937 29.0552 24.0149C29.0758 24.036 29.0872 24.0645 29.087 24.094C29.087 24.155 29.037 24.207 28.977 24.207C28.9469 24.207 28.9181 24.1951 28.8967 24.174C28.8754 24.1528 28.8632 24.1241 28.863 24.094C28.863 24.031 28.913 23.98 28.977 23.98V23.981ZM29.539 23.981C29.5537 23.9811 29.5682 23.9842 29.5818 23.9899C29.5953 23.9957 29.6076 24.004 29.6179 24.0145C29.6282 24.025 29.6363 24.0374 29.6418 24.0511C29.6473 24.0647 29.6501 24.0793 29.65 24.094C29.65 24.155 29.6 24.207 29.54 24.207C29.5099 24.207 29.4811 24.1951 29.4597 24.174C29.4384 24.1528 29.4262 24.1241 29.426 24.094C29.426 24.031 29.476 23.98 29.539 23.98V23.981ZM30.099 23.981C30.1139 23.9808 30.1288 23.9835 30.1427 23.9891C30.1566 23.9946 30.1692 24.0029 30.1798 24.0135C30.1905 24.024 30.1989 24.0365 30.2046 24.0504C30.2102 24.0642 30.2131 24.0791 30.213 24.094C30.2127 24.1239 30.2007 24.1525 30.1796 24.1736C30.1585 24.1948 30.1299 24.2068 30.1 24.207C30.0703 24.2065 30.0419 24.1944 30.021 24.1733C30.0001 24.1522 29.9882 24.1237 29.988 24.094C29.988 24.031 30.038 23.981 30.1 23.98L30.099 23.981ZM30.662 23.981C30.6769 23.9809 30.6916 23.9837 30.7054 23.9893C30.7191 23.995 30.7317 24.0033 30.7422 24.0138C30.7527 24.0243 30.761 24.0368 30.7666 24.0506C30.7723 24.0644 30.7751 24.0791 30.775 24.094C30.7747 24.1239 30.7627 24.1525 30.7416 24.1736C30.7205 24.1948 30.6919 24.2068 30.662 24.207C30.6324 24.2062 30.6044 24.194 30.5836 24.1729C30.5629 24.1519 30.5512 24.1236 30.551 24.094C30.551 24.031 30.601 23.981 30.662 23.98V23.981ZM31.225 23.981C31.2399 23.9809 31.2546 23.9837 31.2684 23.9893C31.2821 23.995 31.2947 24.0033 31.3052 24.0138C31.3157 24.0243 31.324 24.0368 31.3296 24.0506C31.3353 24.0644 31.3381 24.0791 31.338 24.094C31.3377 24.1239 31.3257 24.1525 31.3046 24.1736C31.2835 24.1948 31.2549 24.2068 31.225 24.207C31.1953 24.2065 31.1669 24.1944 31.146 24.1733C31.1251 24.1522 31.1132 24.1237 31.113 24.094C31.113 24.031 31.163 23.981 31.225 23.98V23.981ZM31.787 23.981C31.8136 23.9805 31.8395 23.9896 31.8599 24.0067C31.8804 24.0238 31.8939 24.0477 31.898 24.074V24.094C31.898 24.155 31.848 24.207 31.788 24.207C31.7583 24.2065 31.7299 24.1944 31.709 24.1733C31.6881 24.1522 31.6762 24.1237 31.676 24.094C31.675 24.031 31.726 23.981 31.787 23.98V23.981ZM32.35 23.981C32.3764 23.9807 32.4021 23.9899 32.4223 24.007C32.4425 24.0241 32.4559 24.0479 32.46 24.074C32.462 24.082 32.462 24.086 32.46 24.094C32.46 24.155 32.41 24.207 32.35 24.207C32.3199 24.207 32.2911 24.1951 32.2697 24.174C32.2484 24.1528 32.2362 24.1241 32.236 24.094C32.236 24.031 32.286 23.98 32.35 23.98V23.981ZM32.912 23.981C32.9267 23.9811 32.9412 23.9842 32.9548 23.9899C32.9683 23.9957 32.9806 24.004 32.9909 24.0145C33.0012 24.025 33.0093 24.0374 33.0148 24.0511C33.0203 24.0647 33.0231 24.0793 33.023 24.094C33.023 24.155 32.973 24.207 32.913 24.207C32.8829 24.207 32.8541 24.1951 32.8327 24.174C32.8114 24.1528 32.7992 24.1241 32.799 24.094C32.799 24.031 32.849 23.98 32.912 23.98V23.981ZM33.475 23.981C33.5045 23.9815 33.5326 23.9937 33.5532 24.0149C33.5738 24.036 33.5852 24.0645 33.585 24.094C33.585 24.155 33.535 24.207 33.475 24.207C33.4449 24.207 33.4161 24.1951 33.3947 24.174C33.3734 24.1528 33.3612 24.1241 33.361 24.094C33.361 24.031 33.411 23.98 33.475 23.98V23.981ZM34.037 23.981C34.0517 23.9811 34.0662 23.9842 34.0798 23.9899C34.0933 23.9957 34.1056 24.004 34.1159 24.0145C34.1262 24.025 34.1343 24.0374 34.1398 24.0511C34.1453 24.0647 34.1481 24.0793 34.148 24.094C34.148 24.155 34.098 24.207 34.038 24.207C34.0079 24.207 33.9791 24.1951 33.9577 24.174C33.9364 24.1528 33.9242 24.1241 33.924 24.094C33.924 24.031 33.974 23.98 34.037 23.98V23.981ZM34.597 23.981C34.6119 23.9808 34.6268 23.9835 34.6407 23.9891C34.6546 23.9946 34.6672 24.0029 34.6778 24.0135C34.6885 24.024 34.6969 24.0365 34.7026 24.0504C34.7083 24.0642 34.7111 24.0791 34.711 24.094C34.7107 24.1239 34.6987 24.1525 34.6776 24.1736C34.6565 24.1948 34.6279 24.2068 34.598 24.207C34.5683 24.2065 34.5399 24.1944 34.519 24.1733C34.4981 24.1522 34.4862 24.1237 34.486 24.094C34.486 24.031 34.536 23.981 34.598 23.98L34.597 23.981ZM17.087 26.551H17.09C17.2777 26.5473 17.4623 26.5996 17.6202 26.7012C17.7781 26.8028 17.9022 26.9492 17.9765 27.1216C18.0509 27.2941 18.0722 27.4847 18.0377 27.6693C18.0032 27.8539 17.9146 28.024 17.783 28.158L15.975 30.018C15.8885 30.1076 15.7851 30.1793 15.6709 30.2288C15.5566 30.2783 15.4337 30.3048 15.3091 30.3066C15.1846 30.3085 15.0609 30.2857 14.9452 30.2396C14.8295 30.1935 14.7241 30.125 14.635 30.038C14.5452 29.9517 14.4734 29.8484 14.4237 29.7342C14.374 29.62 14.3474 29.4971 14.3454 29.3726C14.3433 29.2481 14.3659 29.1244 14.4118 29.0086C14.4578 28.8928 14.5261 28.7873 14.613 28.698L16.422 26.84C16.5084 26.7501 16.6117 26.6782 16.726 26.6285C16.8403 26.5787 16.9633 26.552 17.088 26.55L17.087 26.551ZM21.087 26.551C21.2115 26.5487 21.3353 26.5711 21.4512 26.617C21.5671 26.6628 21.6727 26.7311 21.762 26.818C21.8517 26.9044 21.9234 27.0077 21.973 27.122C22.0226 27.2362 22.0491 27.3591 22.0511 27.4837C22.053 27.6082 22.0304 27.7319 21.9844 27.8476C21.9383 27.9633 21.8699 28.0688 21.783 28.158L19.975 30.018C19.8885 30.1076 19.7851 30.1793 19.6709 30.2288C19.5566 30.2783 19.4337 30.3048 19.3091 30.3066C19.1846 30.3085 19.0609 30.2857 18.9452 30.2396C18.8295 30.1935 18.7241 30.125 18.635 30.038C18.5452 29.9517 18.4734 29.8484 18.4237 29.7342C18.374 29.62 18.3474 29.4971 18.3454 29.3726C18.3433 29.2481 18.3659 29.1244 18.4118 29.0086C18.4578 28.8928 18.5261 28.7873 18.613 28.698L20.422 26.84C20.5084 26.7501 20.6117 26.6782 20.726 26.6285C20.8403 26.5787 20.9633 26.552 21.088 26.55L21.087 26.551ZM25.087 26.551C25.2115 26.5487 25.3353 26.5711 25.4512 26.617C25.5671 26.6628 25.6727 26.7311 25.762 26.818C25.8517 26.9044 25.9234 27.0077 25.973 27.122C26.0226 27.2362 26.0491 27.3591 26.0511 27.4837C26.053 27.6082 26.0304 27.7319 25.9844 27.8476C25.9383 27.9633 25.8699 28.0688 25.783 28.158L23.975 30.018C23.8885 30.1076 23.7851 30.1793 23.6709 30.2288C23.5566 30.2783 23.4337 30.3048 23.3091 30.3066C23.1846 30.3085 23.0609 30.2857 22.9452 30.2396C22.8295 30.1935 22.7241 30.125 22.635 30.038C22.5452 29.9517 22.4734 29.8484 22.4237 29.7342C22.374 29.62 22.3474 29.4971 22.3454 29.3726C22.3433 29.2481 22.3659 29.1244 22.4118 29.0086C22.4578 28.8928 22.5261 28.7873 22.613 28.698L24.422 26.84C24.5084 26.7501 24.6117 26.6782 24.726 26.6285C24.8403 26.5787 24.9633 26.552 25.088 26.55L25.087 26.551ZM29.087 26.551C29.2115 26.5487 29.3353 26.5711 29.4512 26.617C29.5671 26.6628 29.6727 26.7311 29.762 26.818C29.8517 26.9044 29.9234 27.0077 29.973 27.122C30.0226 27.2362 30.0491 27.3591 30.0511 27.4837C30.053 27.6082 30.0304 27.7319 29.9844 27.8476C29.9383 27.9633 29.8699 28.0688 29.783 28.158L27.975 30.018C27.8885 30.1076 27.7851 30.1793 27.6709 30.2288C27.5566 30.2783 27.4337 30.3048 27.3091 30.3066C27.1846 30.3085 27.0609 30.2857 26.9452 30.2396C26.8295 30.1935 26.7241 30.125 26.635 30.038C26.5452 29.9517 26.4734 29.8484 26.4237 29.7342C26.374 29.62 26.3474 29.4971 26.3454 29.3726C26.3433 29.2481 26.3659 29.1244 26.4118 29.0086C26.4578 28.8928 26.5261 28.7873 26.613 28.698L28.422 26.84C28.5084 26.7501 28.6117 26.6782 28.726 26.6285C28.8403 26.5787 28.9633 26.552 29.088 26.55L29.087 26.551ZM33.087 26.551C33.2115 26.5487 33.3353 26.5711 33.4512 26.617C33.5671 26.6628 33.6727 26.7311 33.762 26.818C33.8517 26.9044 33.9234 27.0077 33.973 27.122C34.0226 27.2362 34.0491 27.3591 34.0511 27.4837C34.053 27.6082 34.0304 27.7319 33.9844 27.8476C33.9383 27.9633 33.8699 28.0688 33.783 28.158L31.975 30.018C31.8885 30.1076 31.7851 30.1793 31.6709 30.2288C31.5566 30.2783 31.4337 30.3048 31.3091 30.3066C31.1846 30.3085 31.0609 30.2857 30.9452 30.2396C30.8295 30.1935 30.7241 30.125 30.635 30.038C30.5452 29.9517 30.4734 29.8484 30.4237 29.7342C30.374 29.62 30.3474 29.4971 30.3454 29.3726C30.3433 29.2481 30.3659 29.1244 30.4118 29.0086C30.4578 28.8928 30.5261 28.7873 30.613 28.698L32.422 26.84C32.5084 26.7501 32.6117 26.6782 32.726 26.6285C32.8403 26.5787 32.9633 26.552 33.088 26.55L33.087 26.551ZM13.795 32.981C13.858 32.981 13.909 33.031 13.908 33.094C13.9077 33.1239 13.8957 33.1525 13.8746 33.1736C13.8535 33.1948 13.8249 33.2068 13.795 33.207C13.7654 33.2062 13.7374 33.194 13.7166 33.1729C13.6959 33.1519 13.6842 33.1236 13.684 33.094C13.684 33.031 13.733 32.981 13.794 32.98L13.795 32.981ZM14.357 32.981C14.3838 32.9802 14.4099 32.9892 14.4306 33.0063C14.4512 33.0235 14.4648 33.0475 14.469 33.074V33.094C14.468 33.155 14.419 33.207 14.357 33.207C14.3272 33.2065 14.2987 33.1944 14.2776 33.1734C14.2566 33.1523 14.2445 33.1238 14.244 33.094C14.244 33.031 14.295 32.981 14.357 32.98V32.981ZM14.92 32.981C14.9466 32.9805 14.9725 32.9896 14.9929 33.0067C15.0134 33.0238 15.0269 33.0477 15.031 33.074V33.094C15.031 33.155 14.981 33.207 14.92 33.207C14.8901 33.2068 14.8615 33.1948 14.8404 33.1736C14.8192 33.1525 14.8072 33.1239 14.807 33.094C14.807 33.031 14.857 32.98 14.92 32.98V32.981ZM15.482 32.981C15.542 32.981 15.59 33.027 15.594 33.086V33.094C15.593 33.155 15.544 33.207 15.482 33.207C15.4521 33.2068 15.4235 33.1948 15.4024 33.1736C15.3812 33.1525 15.3692 33.1239 15.369 33.094C15.369 33.031 15.419 32.98 15.482 32.98V32.981ZM16.045 32.981C16.105 32.981 16.153 33.027 16.156 33.086V33.094C16.156 33.155 16.106 33.207 16.045 33.207C16.0151 33.2068 15.9865 33.1948 15.9654 33.1736C15.9442 33.1525 15.9322 33.1239 15.932 33.094C15.932 33.031 15.982 32.98 16.045 32.98V32.981ZM16.607 32.981C16.667 32.981 16.715 33.027 16.719 33.086V33.094C16.718 33.155 16.669 33.207 16.607 33.207C16.5771 33.2068 16.5485 33.1948 16.5274 33.1736C16.5062 33.1525 16.4942 33.1239 16.494 33.094C16.494 33.031 16.544 32.98 16.607 32.98V32.981ZM17.168 32.981C17.228 32.98 17.278 33.026 17.281 33.086V33.094C17.2807 33.1239 17.2687 33.1525 17.2476 33.1736C17.2265 33.1948 17.1979 33.2068 17.168 33.207C17.1384 33.2062 17.1104 33.194 17.0896 33.1729C17.0689 33.1519 17.0572 33.1236 17.057 33.094C17.057 33.031 17.106 32.981 17.168 32.98V32.981ZM17.731 32.981C17.791 32.98 17.841 33.026 17.844 33.086V33.094C17.8437 33.1241 17.8316 33.1528 17.8102 33.174C17.7889 33.1951 17.76 33.207 17.73 33.207C17.7006 33.206 17.6728 33.1937 17.6523 33.1726C17.6318 33.1516 17.6202 33.1234 17.62 33.094C17.619 33.031 17.669 32.981 17.73 32.98L17.731 32.981ZM18.293 32.981C18.353 32.98 18.403 33.026 18.406 33.086V33.094C18.4057 33.1239 18.3937 33.1525 18.3726 33.1736C18.3515 33.1948 18.3229 33.2068 18.293 33.207C18.2634 33.2062 18.2354 33.194 18.2146 33.1729C18.1939 33.1519 18.1822 33.1236 18.182 33.094C18.182 33.031 18.231 32.981 18.293 32.98V32.981ZM18.856 32.981C18.8824 32.9807 18.9081 32.9899 18.9283 33.007C18.9485 33.0241 18.9619 33.0479 18.966 33.074V33.094C18.966 33.155 18.916 33.207 18.856 33.207C18.8263 33.2065 18.7979 33.1944 18.777 33.1733C18.7561 33.1522 18.7442 33.1237 18.744 33.094C18.744 33.031 18.794 32.981 18.855 32.98L18.856 32.981ZM19.418 32.981C19.478 32.981 19.526 33.027 19.529 33.086V33.094C19.529 33.155 19.479 33.207 19.418 33.207C19.3881 33.2068 19.3595 33.1948 19.3384 33.1736C19.3172 33.1525 19.3052 33.1239 19.305 33.094C19.305 33.031 19.355 32.98 19.418 32.98V32.981ZM19.981 32.981C20.04 32.981 20.088 33.027 20.091 33.086V33.094C20.091 33.155 20.041 33.207 19.981 33.207C19.9509 33.207 19.9221 33.1951 19.9007 33.174C19.8794 33.1528 19.8672 33.1241 19.867 33.094C19.867 33.031 19.917 32.98 19.98 32.98L19.981 32.981ZM20.543 32.981C20.603 32.981 20.651 33.027 20.654 33.086V33.094C20.654 33.155 20.604 33.207 20.543 33.207C20.5131 33.2068 20.4845 33.1948 20.4634 33.1736C20.4422 33.1525 20.4302 33.1239 20.43 33.094C20.43 33.031 20.48 32.98 20.543 32.98V32.981ZM21.106 32.981C21.165 32.981 21.213 33.027 21.216 33.086V33.094C21.216 33.155 21.166 33.207 21.106 33.207C21.0759 33.207 21.0471 33.1951 21.0257 33.174C21.0044 33.1528 20.9922 33.1241 20.992 33.094C20.992 33.031 21.042 32.98 21.105 32.98L21.106 32.981ZM21.666 32.981C21.726 32.98 21.776 33.026 21.779 33.086V33.094C21.7787 33.1239 21.7667 33.1525 21.7456 33.1736C21.7245 33.1948 21.6959 33.2068 21.666 33.207C21.6364 33.2062 21.6084 33.194 21.5876 33.1729C21.5669 33.1519 21.5552 33.1236 21.555 33.094C21.555 33.031 21.604 32.981 21.666 32.98V32.981ZM22.229 32.981C22.289 32.98 22.339 33.026 22.342 33.086V33.094C22.3417 33.1239 22.3297 33.1525 22.3086 33.1736C22.2875 33.1948 22.2589 33.2068 22.229 33.207C22.1993 33.2065 22.1709 33.1944 22.15 33.1733C22.1291 33.1522 22.1172 33.1237 22.117 33.094C22.117 33.031 22.167 32.981 22.228 32.98L22.229 32.981ZM22.791 32.981C22.854 32.981 22.905 33.031 22.904 33.094C22.9037 33.1239 22.8917 33.1525 22.8706 33.1736C22.8495 33.1948 22.8209 33.2068 22.791 33.207C22.7614 33.2062 22.7334 33.194 22.7126 33.1729C22.6919 33.1519 22.6802 33.1236 22.68 33.094C22.68 33.031 22.729 32.981 22.791 32.98V32.981ZM23.354 32.981C23.408 32.981 23.457 33.02 23.464 33.074V33.094C23.464 33.155 23.414 33.207 23.354 33.207C23.3243 33.2065 23.2959 33.1944 23.275 33.1733C23.2541 33.1522 23.2422 33.1237 23.242 33.094C23.242 33.031 23.292 32.981 23.353 32.98L23.354 32.981ZM23.916 32.981C23.9426 32.9805 23.9685 32.9896 23.9889 33.0067C24.0094 33.0238 24.0229 33.0477 24.027 33.074V33.094C24.027 33.155 23.977 33.207 23.916 33.207C23.8861 33.2068 23.8575 33.1948 23.8364 33.1736C23.8152 33.1525 23.8032 33.1239 23.803 33.094C23.803 33.031 23.853 32.98 23.916 32.98V32.981ZM24.479 32.981C24.538 32.981 24.586 33.027 24.589 33.086V33.094C24.589 33.155 24.539 33.207 24.479 33.207C24.4489 33.207 24.4201 33.1951 24.3987 33.174C24.3774 33.1528 24.3652 33.1241 24.365 33.094C24.365 33.031 24.415 32.98 24.479 32.98V32.981ZM25.041 32.981C25.101 32.981 25.149 33.027 25.152 33.086V33.094C25.152 33.155 25.102 33.207 25.041 33.207C25.0111 33.2068 24.9825 33.1948 24.9614 33.1736C24.9402 33.1525 24.9282 33.1239 24.928 33.094C24.928 33.031 24.978 32.98 25.041 32.98V32.981ZM25.601 32.981C25.661 32.98 25.711 33.026 25.715 33.086V33.094C25.7147 33.1239 25.7027 33.1525 25.6816 33.1736C25.6605 33.1948 25.6319 33.2068 25.602 33.207C25.5723 33.2065 25.5439 33.1944 25.523 33.1733C25.5021 33.1522 25.4902 33.1237 25.49 33.094C25.49 33.031 25.54 32.981 25.602 32.98L25.601 32.981ZM26.164 32.981C26.224 32.98 26.274 33.026 26.277 33.086V33.094C26.2767 33.1239 26.2647 33.1525 26.2436 33.1736C26.2225 33.1948 26.1939 33.2068 26.164 33.207C26.1344 33.2062 26.1064 33.194 26.0856 33.1729C26.0649 33.1519 26.0532 33.1236 26.053 33.094C26.053 33.031 26.103 32.981 26.164 32.98V32.981ZM26.727 32.981C26.787 32.98 26.837 33.026 26.84 33.086V33.094C26.8397 33.1239 26.8277 33.1525 26.8066 33.1736C26.7855 33.1948 26.7569 33.2068 26.727 33.207C26.6973 33.2065 26.6689 33.1944 26.648 33.1733C26.6271 33.1522 26.6152 33.1237 26.615 33.094C26.615 33.031 26.665 32.981 26.727 32.98V32.981ZM27.289 32.981C27.352 32.981 27.403 33.031 27.402 33.094C27.4017 33.1239 27.3897 33.1525 27.3686 33.1736C27.3475 33.1948 27.3189 33.2068 27.289 33.207C27.2594 33.2062 27.2314 33.194 27.2106 33.1729C27.1899 33.1519 27.1782 33.1236 27.178 33.094C27.178 33.031 27.228 32.981 27.289 32.98V32.981ZM27.852 32.981C27.8784 32.9807 27.9041 32.9899 27.9243 33.007C27.9445 33.0241 27.9579 33.0479 27.962 33.074C27.964 33.082 27.964 33.086 27.962 33.094C27.962 33.155 27.912 33.207 27.852 33.207C27.8223 33.2065 27.7939 33.1944 27.773 33.1733C27.7521 33.1522 27.7402 33.1237 27.74 33.094C27.74 33.031 27.79 32.981 27.852 32.98V32.981ZM28.414 32.981C28.474 32.981 28.522 33.027 28.525 33.086V33.094C28.525 33.155 28.475 33.207 28.415 33.207C28.3849 33.207 28.3561 33.1951 28.3347 33.174C28.3134 33.1528 28.3012 33.1241 28.301 33.094C28.301 33.031 28.351 32.98 28.414 32.98V32.981ZM28.977 32.981C29.036 32.981 29.084 33.027 29.087 33.086V33.094C29.087 33.155 29.037 33.207 28.977 33.207C28.9469 33.207 28.9181 33.1951 28.8967 33.174C28.8754 33.1528 28.8632 33.1241 28.863 33.094C28.863 33.031 28.913 32.98 28.977 32.98V32.981ZM29.539 32.981C29.599 32.981 29.647 33.027 29.65 33.086V33.094C29.65 33.155 29.6 33.207 29.54 33.207C29.5099 33.207 29.4811 33.1951 29.4597 33.174C29.4384 33.1528 29.4262 33.1241 29.426 33.094C29.426 33.031 29.476 32.98 29.539 32.98V32.981ZM30.099 32.981C30.159 32.98 30.209 33.026 30.213 33.086V33.094C30.2127 33.1239 30.2007 33.1525 30.1796 33.1736C30.1585 33.1948 30.1299 33.2068 30.1 33.207C30.0703 33.2065 30.0419 33.1944 30.021 33.1733C30.0001 33.1522 29.9882 33.1237 29.988 33.094C29.988 33.031 30.038 32.981 30.1 32.98L30.099 32.981ZM30.662 32.981C30.722 32.98 30.772 33.026 30.775 33.086V33.094C30.7747 33.1239 30.7627 33.1525 30.7416 33.1736C30.7205 33.1948 30.6919 33.2068 30.662 33.207C30.6324 33.2062 30.6044 33.194 30.5836 33.1729C30.5629 33.1519 30.5512 33.1236 30.551 33.094C30.551 33.031 30.601 32.981 30.662 32.98V32.981ZM31.225 32.981C31.285 32.98 31.335 33.026 31.338 33.086V33.094C31.3377 33.1239 31.3257 33.1525 31.3046 33.1736C31.2835 33.1948 31.2549 33.2068 31.225 33.207C31.1953 33.2065 31.1669 33.1944 31.146 33.1733C31.1251 33.1522 31.1132 33.1237 31.113 33.094C31.113 33.031 31.163 32.981 31.225 32.98V32.981ZM31.787 32.981C31.8136 32.9805 31.8395 32.9896 31.8599 33.0067C31.8804 33.0238 31.8939 33.0477 31.898 33.074V33.094C31.898 33.155 31.848 33.207 31.788 33.207C31.7583 33.2065 31.7299 33.1944 31.709 33.1733C31.6881 33.1522 31.6762 33.1237 31.676 33.094C31.675 33.031 31.726 32.981 31.787 32.98V32.981ZM32.35 32.981C32.3764 32.9807 32.4021 32.9899 32.4223 33.007C32.4425 33.0241 32.4559 33.0479 32.46 33.074C32.462 33.082 32.462 33.086 32.46 33.094C32.46 33.155 32.41 33.207 32.35 33.207C32.3199 33.207 32.2911 33.1951 32.2697 33.174C32.2484 33.1528 32.2362 33.1241 32.236 33.094C32.236 33.031 32.286 32.98 32.35 32.98V32.981ZM32.912 32.981C32.972 32.981 33.02 33.027 33.023 33.086V33.094C33.023 33.155 32.973 33.207 32.913 33.207C32.8829 33.207 32.8541 33.1951 32.8327 33.174C32.8114 33.1528 32.7992 33.1241 32.799 33.094C32.799 33.031 32.849 32.98 32.912 32.98V32.981ZM33.475 32.981C33.534 32.981 33.582 33.027 33.585 33.086V33.094C33.585 33.155 33.535 33.207 33.475 33.207C33.4449 33.207 33.4161 33.1951 33.3947 33.174C33.3734 33.1528 33.3612 33.1241 33.361 33.094C33.361 33.031 33.411 32.98 33.475 32.98V32.981ZM34.037 32.981C34.097 32.981 34.145 33.027 34.148 33.086V33.094C34.148 33.155 34.098 33.207 34.038 33.207C34.0079 33.207 33.9791 33.1951 33.9577 33.174C33.9364 33.1528 33.9242 33.1241 33.924 33.094C33.924 33.031 33.974 32.98 34.037 32.98V32.981ZM34.597 32.981C34.657 32.98 34.707 33.026 34.711 33.086V33.094C34.7107 33.1239 34.6987 33.1525 34.6776 33.1736C34.6565 33.1948 34.6279 33.2068 34.598 33.207C34.5683 33.2065 34.5399 33.1944 34.519 33.1733C34.4981 33.1522 34.4862 33.1237 34.486 33.094C34.486 33.031 34.536 32.981 34.598 32.98L34.597 32.981ZM17.087 35.217H17.09C17.2777 35.2133 17.4623 35.2656 17.6202 35.3672C17.7781 35.4688 17.9022 35.6152 17.9765 35.7876C18.0509 35.9601 18.0722 36.1507 18.0377 36.3353C18.0032 36.5199 17.9146 36.6901 17.783 36.824L15.975 38.684C15.8885 38.7736 15.7851 38.8453 15.6709 38.8948C15.5566 38.9443 15.4337 38.9708 15.3091 38.9726C15.1846 38.9745 15.0609 38.9517 14.9452 38.9056C14.8295 38.8595 14.7241 38.791 14.635 38.704C14.5452 38.6177 14.4734 38.5144 14.4237 38.4002C14.374 38.286 14.3474 38.1631 14.3454 38.0386C14.3433 37.9141 14.3659 37.7904 14.4118 37.6746C14.4578 37.5588 14.5261 37.4533 14.613 37.364L16.422 35.506C16.5084 35.4161 16.6117 35.3442 16.726 35.2945C16.8403 35.2447 16.9633 35.218 17.088 35.216L17.087 35.217ZM21.087 35.217C21.2115 35.2147 21.3353 35.2371 21.4512 35.283C21.5671 35.3288 21.6727 35.3971 21.762 35.484C21.8517 35.5704 21.9234 35.6737 21.973 35.788C22.0226 35.9022 22.0491 36.0251 22.0511 36.1497C22.053 36.2742 22.0304 36.3979 21.9844 36.5136C21.9383 36.6293 21.8699 36.7348 21.783 36.824L19.975 38.684C19.8885 38.7736 19.7851 38.8453 19.6709 38.8948C19.5566 38.9443 19.4337 38.9708 19.3091 38.9726C19.1846 38.9745 19.0609 38.9517 18.9452 38.9056C18.8295 38.8595 18.7241 38.791 18.635 38.704C18.5452 38.6177 18.4734 38.5144 18.4237 38.4002C18.374 38.286 18.3474 38.1631 18.3454 38.0386C18.3433 37.9141 18.3659 37.7904 18.4118 37.6746C18.4578 37.5588 18.5261 37.4533 18.613 37.364L20.422 35.506C20.5084 35.4161 20.6117 35.3442 20.726 35.2945C20.8403 35.2447 20.9633 35.218 21.088 35.216L21.087 35.217ZM25.087 35.217C25.2115 35.2147 25.3353 35.2371 25.4512 35.283C25.5671 35.3288 25.6727 35.3971 25.762 35.484C25.8517 35.5704 25.9234 35.6737 25.973 35.788C26.0226 35.9022 26.0491 36.0251 26.0511 36.1497C26.053 36.2742 26.0304 36.3979 25.9844 36.5136C25.9383 36.6293 25.8699 36.7348 25.783 36.824L23.975 38.684C23.8885 38.7736 23.7851 38.8453 23.6709 38.8948C23.5566 38.9443 23.4337 38.9708 23.3091 38.9726C23.1846 38.9745 23.0609 38.9517 22.9452 38.9056C22.8295 38.8595 22.7241 38.791 22.635 38.704C22.5452 38.6177 22.4734 38.5144 22.4237 38.4002C22.374 38.286 22.3474 38.1631 22.3454 38.0386C22.3433 37.9141 22.3659 37.7904 22.4118 37.6746C22.4578 37.5588 22.5261 37.4533 22.613 37.364L24.422 35.506C24.5084 35.4161 24.6117 35.3442 24.726 35.2945C24.8403 35.2447 24.9633 35.218 25.088 35.216L25.087 35.217ZM29.087 35.217C29.2115 35.2147 29.3353 35.2371 29.4512 35.283C29.5671 35.3288 29.6727 35.3971 29.762 35.484C29.8517 35.5704 29.9234 35.6737 29.973 35.788C30.0226 35.9022 30.0491 36.0251 30.0511 36.1497C30.053 36.2742 30.0304 36.3979 29.9844 36.5136C29.9383 36.6293 29.8699 36.7348 29.783 36.824L27.975 38.684C27.8885 38.7736 27.7851 38.8453 27.6709 38.8948C27.5566 38.9443 27.4337 38.9708 27.3091 38.9726C27.1846 38.9745 27.0609 38.9517 26.9452 38.9056C26.8295 38.8595 26.7241 38.791 26.635 38.704C26.5452 38.6177 26.4734 38.5144 26.4237 38.4002C26.374 38.286 26.3474 38.1631 26.3454 38.0386C26.3433 37.9141 26.3659 37.7904 26.4118 37.6746C26.4578 37.5588 26.5261 37.4533 26.613 37.364L28.422 35.506C28.5084 35.4161 28.6117 35.3442 28.726 35.2945C28.8403 35.2447 28.9633 35.218 29.088 35.216L29.087 35.217ZM33.087 35.217C33.2115 35.2147 33.3353 35.2371 33.4512 35.283C33.5671 35.3288 33.6727 35.3971 33.762 35.484C33.8517 35.5704 33.9234 35.6737 33.973 35.788C34.0226 35.9022 34.0491 36.0251 34.0511 36.1497C34.053 36.2742 34.0304 36.3979 33.9844 36.5136C33.9383 36.6293 33.8699 36.7348 33.783 36.824L31.975 38.684C31.8885 38.7736 31.7851 38.8453 31.6709 38.8948C31.5566 38.9443 31.4337 38.9708 31.3091 38.9726C31.1846 38.9745 31.0609 38.9517 30.9452 38.9056C30.8295 38.8595 30.7241 38.791 30.635 38.704C30.5452 38.6177 30.4734 38.5144 30.4237 38.4002C30.374 38.286 30.3474 38.1631 30.3454 38.0386C30.3433 37.9141 30.3659 37.7904 30.4118 37.6746C30.4578 37.5588 30.5261 37.4533 30.613 37.364L32.422 35.506C32.5084 35.4161 32.6117 35.3442 32.726 35.2945C32.8403 35.2447 32.9633 35.218 33.088 35.216L33.087 35.217Z" fill="#333333"/>
</svg>
