<svg width="48" height="48" viewBox="0 0 48 48" fill="none" xmlns="http://www.w3.org/2000/svg">
<path d="M23.998 4.09211C20.73 4.10211 17.463 4.12511 14.146 4.12511C13.277 4.12511 12.58 4.82411 12.58 5.69311V42.5551C12.58 43.4251 13.277 44.1251 14.146 44.1251H33.852C34.721 44.1251 35.42 43.4251 35.42 42.5551V5.69311C35.42 4.82311 34.721 4.12511 33.852 4.12511C30.5675 4.08705 27.2827 4.07605 23.998 4.09211ZM23.992 5.16011H24C24.061 5.16011 24.11 5.21211 24.111 5.27311C24.111 5.30282 24.0992 5.33131 24.0782 5.35231C24.0572 5.37331 24.0287 5.38512 23.999 5.38512C23.9693 5.38512 23.9408 5.37331 23.9198 5.35231C23.8988 5.33131 23.887 5.30282 23.887 5.27311C23.887 5.21411 23.933 5.16311 23.992 5.16011ZM23.992 5.72311H24C24.061 5.72311 24.11 5.77511 24.111 5.83611C24.111 5.86582 24.0992 5.89431 24.0782 5.91531C24.0572 5.93631 24.0287 5.94811 23.999 5.94811C23.9693 5.94811 23.9408 5.93631 23.9198 5.91531C23.8988 5.89431 23.887 5.86582 23.887 5.83611C23.887 5.77711 23.933 5.72611 23.992 5.72311ZM20.295 6.21911C20.4196 6.21746 20.5433 6.24046 20.659 6.2868C20.7747 6.33314 20.88 6.4019 20.969 6.48911C21.58 7.94411 20.209 8.62911 19.178 9.68811C19.0911 9.77728 18.9876 9.84847 18.8732 9.8976C18.7588 9.94674 18.6359 9.97287 18.5114 9.97449C18.3869 9.97612 18.2633 9.95321 18.1477 9.90707C18.0321 9.86094 17.9267 9.79248 17.8375 9.70561C17.7483 9.61875 17.6772 9.51516 17.628 9.40078C17.5789 9.2864 17.5528 9.16347 17.5511 9.03899C17.5495 8.91451 17.5724 8.79093 17.6186 8.67531C17.6647 8.55969 17.7331 8.45428 17.82 8.36511L19.629 6.50811C19.7154 6.41828 19.8188 6.34641 19.9331 6.29664C20.0474 6.24687 20.1704 6.22019 20.295 6.21811V6.21911ZM29.488 6.21911C29.6126 6.21746 29.7363 6.24046 29.852 6.2868C29.9677 6.33314 30.073 6.4019 30.162 6.48911C30.2515 6.57574 30.323 6.6792 30.3723 6.79354C30.4217 6.90788 30.448 7.03084 30.4496 7.15537C30.4513 7.2799 30.4283 7.40353 30.3821 7.51915C30.3358 7.63478 30.2671 7.74012 30.18 7.82911L28.37 9.68712C28.2842 9.78045 28.1805 9.85561 28.0651 9.90815C27.9496 9.96069 27.8249 9.98954 27.6981 9.993C27.5713 9.99645 27.4451 9.97443 27.327 9.92825C27.2089 9.88207 27.1013 9.81266 27.0105 9.72413C26.9197 9.63561 26.8476 9.52977 26.7984 9.41287C26.7493 9.29598 26.724 9.17041 26.7243 9.04359C26.7245 8.91678 26.7502 8.7913 26.7998 8.67459C26.8494 8.55788 26.9219 8.4523 27.013 8.36412L28.821 6.50711C28.9074 6.41723 29.0107 6.34534 29.125 6.29557C29.2393 6.2458 29.3624 6.21913 29.487 6.21711L29.488 6.21911ZM23.982 6.28511H24C24.061 6.28511 24.111 6.33511 24.111 6.39611C24.111 6.45811 24.061 6.50711 24.001 6.50811C23.9723 6.50901 23.9443 6.49882 23.9229 6.47966C23.9015 6.4605 23.8882 6.43383 23.8859 6.40518C23.8836 6.37653 23.8924 6.34808 23.9105 6.32574C23.9285 6.30339 23.9545 6.28884 23.983 6.28511H23.982ZM24.002 6.84511C24.0303 6.84777 24.0565 6.86088 24.0756 6.88187C24.0948 6.90286 24.1054 6.93023 24.1054 6.95861C24.1054 6.987 24.0948 7.01437 24.0756 7.03536C24.0565 7.05635 24.0303 7.06946 24.002 7.07211C23.9721 7.07185 23.9435 7.05986 23.9224 7.03873C23.9013 7.01759 23.8893 6.989 23.889 6.95911C23.889 6.89611 23.939 6.84511 24.002 6.84611V6.84511ZM23.992 7.40811H24C24.0294 7.40916 24.0571 7.42169 24.0773 7.443C24.0975 7.4643 24.1085 7.49269 24.108 7.52204C24.1075 7.5514 24.0954 7.57937 24.0745 7.59994C24.0536 7.62052 24.0254 7.63204 23.996 7.63204C23.9667 7.63204 23.9385 7.62052 23.9175 7.59994C23.8966 7.57937 23.8846 7.5514 23.884 7.52204C23.8835 7.49269 23.8945 7.4643 23.9147 7.443C23.9349 7.42169 23.9627 7.40916 23.992 7.40811ZM23.992 7.96811H24C24.0158 7.96663 24.0318 7.96846 24.0468 7.97349C24.0619 7.97852 24.0757 7.98663 24.0874 7.99732C24.0992 8.008 24.1085 8.02102 24.115 8.03553C24.1214 8.05005 24.1247 8.06574 24.1247 8.08161C24.1247 8.09748 24.1214 8.11318 24.115 8.1277C24.1085 8.14221 24.0992 8.15523 24.0874 8.16591C24.0757 8.1766 24.0619 8.18471 24.0468 8.18974C24.0318 8.19477 24.0158 8.1966 24 8.19511C23.9701 8.19485 23.9415 8.18286 23.9204 8.16173C23.8993 8.14059 23.8873 8.112 23.887 8.08211C23.886 8.02211 23.933 7.97211 23.992 7.96911V7.96811ZM23.992 8.53112H24C24.0294 8.53216 24.0571 8.54469 24.0773 8.566C24.0975 8.58731 24.1085 8.61569 24.108 8.64504C24.1075 8.6744 24.0954 8.70237 24.0745 8.72294C24.0536 8.74352 24.0254 8.75504 23.996 8.75504C23.9667 8.75504 23.9385 8.74352 23.9175 8.72294C23.8966 8.70237 23.8846 8.6744 23.884 8.64504C23.8835 8.61569 23.8945 8.58731 23.9147 8.566C23.9349 8.54469 23.9627 8.53216 23.992 8.53112ZM23.992 9.09411H24C24.061 9.09411 24.11 9.14411 24.111 9.20511C24.112 9.26711 24.061 9.32011 24 9.32011C23.985 9.31998 23.9702 9.31691 23.9565 9.31106C23.9427 9.30521 23.9302 9.2967 23.9197 9.28602C23.9092 9.27534 23.9009 9.2627 23.8953 9.24882C23.8897 9.23494 23.8869 9.22009 23.887 9.20511C23.887 9.14611 23.933 9.09711 23.992 9.09411ZM23.992 9.65612H24C24.061 9.65711 24.11 9.70611 24.111 9.76811C24.112 9.83011 24.061 9.88212 24 9.88312C23.985 9.88298 23.9702 9.87991 23.9565 9.87406C23.9427 9.86821 23.9302 9.8597 23.9197 9.84902C23.9092 9.83834 23.9009 9.8257 23.8953 9.81182C23.8897 9.79794 23.8869 9.78309 23.887 9.76811C23.887 9.70811 23.933 9.66012 23.992 9.65612ZM20.295 10.2161C20.4196 10.2145 20.5433 10.2375 20.659 10.2838C20.7747 10.3301 20.88 10.3989 20.969 10.4861C21.0584 10.5728 21.1298 10.6763 21.1791 10.7907C21.2284 10.9051 21.2545 11.0281 21.2561 11.1526C21.2577 11.2771 21.2347 11.4007 21.1883 11.5163C21.1419 11.6319 21.0732 11.7372 20.986 11.8261L19.178 13.6871C19.0912 13.7763 18.9877 13.8475 18.8734 13.8966C18.7591 13.9458 18.6362 13.972 18.5117 13.9736C18.3873 13.9753 18.2638 13.9525 18.1482 13.9064C18.0326 13.8603 17.9272 13.7919 17.838 13.7051C17.7488 13.6183 17.6777 13.5148 17.6285 13.4005C17.5793 13.2862 17.5532 13.1633 17.5515 13.0388C17.5481 12.7875 17.6447 12.5452 17.82 12.3651L19.629 10.5081C19.7154 10.4183 19.8188 10.3464 19.9331 10.2966C20.0474 10.2469 20.1704 10.2202 20.295 10.2181V10.2171V10.2161ZM29.488 10.2161C29.6126 10.2145 29.7363 10.2375 29.852 10.2838C29.9677 10.3301 30.073 10.3989 30.162 10.4861C30.2515 10.5727 30.323 10.6762 30.3723 10.7905C30.4217 10.9049 30.448 11.0278 30.4496 11.1524C30.4513 11.2769 30.4283 11.4005 30.3821 11.5162C30.3358 11.6318 30.2671 11.7371 30.18 11.8261L28.371 13.6871C28.1933 13.8556 27.9572 13.9488 27.7124 13.9471C27.4675 13.9454 27.2327 13.849 27.0573 13.6782C26.8819 13.5073 26.7794 13.2751 26.7713 13.0303C26.7633 12.7856 26.8502 12.5472 27.014 12.3651L28.822 10.5081C28.9084 10.4182 29.0117 10.3463 29.126 10.2966C29.2403 10.2468 29.3634 10.2201 29.488 10.2181V10.2171V10.2161ZM23.98 10.2191H24C24.061 10.2191 24.11 10.2711 24.111 10.3321C24.111 10.3618 24.0992 10.3903 24.0782 10.4113C24.0572 10.4323 24.0287 10.4441 23.999 10.4441C23.9693 10.4441 23.9408 10.4323 23.9198 10.4113C23.8988 10.3903 23.887 10.3618 23.887 10.3321C23.887 10.2771 23.926 10.2261 23.98 10.2191ZM24.002 10.7791C24.064 10.7801 24.114 10.8331 24.113 10.8951C24.1129 10.9096 24.1099 10.9238 24.1043 10.9371C24.0986 10.9504 24.0904 10.9625 24.0801 10.9726C24.0698 10.9827 24.0576 10.9907 24.0442 10.9961C24.0308 11.0015 24.0165 11.0042 24.002 11.0041C23.9873 11.0045 23.9727 11.002 23.959 10.9966C23.9453 10.9913 23.9328 10.9832 23.9223 10.973C23.9118 10.9627 23.9034 10.9505 23.8977 10.9369C23.892 10.9234 23.889 10.9088 23.889 10.8941C23.889 10.8321 23.939 10.7791 24.002 10.7791ZM24.002 11.3421C24.064 11.3421 24.114 11.3931 24.113 11.4551C24.113 11.5161 24.063 11.5681 24.002 11.5681C23.972 11.5681 23.9433 11.5562 23.9221 11.535C23.9009 11.5138 23.889 11.4851 23.889 11.4551C23.889 11.4251 23.9009 11.3964 23.9221 11.3752C23.9433 11.354 23.972 11.3421 24.002 11.3421ZM23.992 11.9041C24.0075 11.903 24.023 11.9051 24.0376 11.9103C24.0522 11.9155 24.0655 11.9237 24.0768 11.9343C24.0881 11.9449 24.097 11.9578 24.1031 11.972C24.1092 11.9863 24.1122 12.0016 24.112 12.0171C24.111 12.0791 24.062 12.1321 24 12.1331C23.9699 12.1326 23.9411 12.1202 23.92 12.0987C23.8989 12.0772 23.887 12.0483 23.887 12.0181C23.886 11.9581 23.932 11.9081 23.992 11.9041ZM23.992 12.4671C24.0076 12.4663 24.0231 12.4687 24.0377 12.4741C24.0523 12.4795 24.0657 12.4879 24.0769 12.4986C24.0881 12.5094 24.0971 12.5224 24.1031 12.5367C24.1091 12.5511 24.1122 12.5665 24.112 12.5821C24.111 12.6431 24.062 12.6951 24 12.6951C23.9701 12.6949 23.9415 12.6829 23.9204 12.6617C23.8993 12.6406 23.8873 12.612 23.887 12.5821C23.886 12.5221 23.932 12.4701 23.992 12.4671ZM23.992 13.0291C24.0074 13.0283 24.0228 13.0306 24.0373 13.0359C24.0517 13.0412 24.065 13.0494 24.0762 13.06C24.0874 13.0705 24.0963 13.0832 24.1025 13.0974C24.1087 13.1115 24.1119 13.1267 24.112 13.1421C24.112 13.172 24.1002 13.2006 24.0791 13.2217C24.058 13.2428 24.0294 13.2546 23.9995 13.2546C23.9697 13.2546 23.9411 13.2428 23.92 13.2217C23.8989 13.2006 23.887 13.172 23.887 13.1421C23.887 13.0841 23.933 13.0321 23.992 13.0291ZM23.992 13.5921C24.0074 13.5913 24.0228 13.5936 24.0373 13.5989C24.0517 13.6042 24.065 13.6124 24.0762 13.623C24.0874 13.6335 24.0963 13.6462 24.1025 13.6604C24.1087 13.6745 24.1119 13.6897 24.112 13.7051C24.112 13.735 24.1002 13.7636 24.0791 13.7847C24.058 13.8058 24.0294 13.8176 23.9995 13.8176C23.9697 13.8176 23.9411 13.8058 23.92 13.7847C23.8989 13.7636 23.887 13.735 23.887 13.7051C23.887 13.6461 23.933 13.5951 23.992 13.5921ZM23.992 14.1541C24.0074 14.1533 24.0228 14.1556 24.0373 14.1609C24.0517 14.1662 24.065 14.1744 24.0762 14.185C24.0874 14.1955 24.0963 14.2082 24.1025 14.2224C24.1087 14.2365 24.1119 14.2517 24.112 14.2671C24.112 14.297 24.1002 14.3256 24.0791 14.3467C24.058 14.3678 24.0294 14.3796 23.9995 14.3796C23.9697 14.3796 23.9411 14.3678 23.92 14.3467C23.8989 14.3256 23.887 14.297 23.887 14.2671C23.887 14.2091 23.933 14.1571 23.992 14.1541ZM20.295 14.2191C20.4196 14.2175 20.5433 14.2405 20.659 14.2868C20.7747 14.3331 20.88 14.4019 20.969 14.4891C21.0584 14.5758 21.1298 14.6793 21.1791 14.7937C21.2284 14.9081 21.2545 15.0311 21.2561 15.1556C21.2577 15.2801 21.2347 15.4037 21.1883 15.5193C21.1419 15.6349 21.0732 15.7402 20.986 15.8291L19.178 17.6871C19.0027 17.8672 18.763 17.9703 18.5117 17.9736C18.2604 17.977 18.0181 17.8804 17.838 17.7051C17.6579 17.5298 17.5549 17.2901 17.5515 17.0388C17.5481 16.7875 17.6447 16.5452 17.82 16.3651L19.629 14.5081C19.7154 14.4183 19.8188 14.3464 19.9331 14.2966C20.0474 14.2469 20.1704 14.2202 20.295 14.2181V14.2191ZM29.488 14.2191C29.6126 14.2175 29.7363 14.2405 29.852 14.2868C29.9677 14.3331 30.073 14.4019 30.162 14.4891C30.2515 14.5757 30.323 14.6792 30.3723 14.7935C30.4217 14.9079 30.448 15.0308 30.4496 15.1554C30.4513 15.2799 30.4283 15.4035 30.3821 15.5192C30.3358 15.6348 30.2671 15.7401 30.18 15.8291L28.371 17.6871C28.1933 17.8556 27.9572 17.9488 27.7124 17.9471C27.4675 17.9454 27.2327 17.849 27.0573 17.6782C26.8819 17.5073 26.7794 17.2751 26.7713 17.0303C26.7633 16.7856 26.8502 16.5472 27.014 16.3651L28.822 14.5081C28.9084 14.4182 29.0117 14.3463 29.126 14.2966C29.2403 14.2468 29.3634 14.2201 29.488 14.2181V14.2191ZM23.98 14.7171H24C24.0222 14.7173 24.0438 14.7241 24.0621 14.7365C24.0804 14.749 24.0946 14.7666 24.1029 14.7872C24.1112 14.8077 24.1132 14.8303 24.1087 14.8519C24.1041 14.8736 24.0933 14.8935 24.0775 14.909C24.0617 14.9245 24.0416 14.935 24.0199 14.9391C23.9981 14.9433 23.9756 14.9409 23.9552 14.9322C23.9348 14.9235 23.9175 14.909 23.9053 14.8905C23.8932 14.872 23.8868 14.8503 23.887 14.8281C23.887 14.7731 23.926 14.7241 23.98 14.7171ZM23.98 15.2791H24C24.061 15.2801 24.11 15.3291 24.111 15.3911C24.1107 15.4124 24.1044 15.4332 24.0927 15.4511C24.081 15.4689 24.0645 15.483 24.045 15.4918C24.0256 15.5005 24.0041 15.5036 23.983 15.5005C23.9619 15.4974 23.9421 15.4884 23.9259 15.4745C23.9098 15.4606 23.8979 15.4424 23.8918 15.4219C23.8856 15.4015 23.8854 15.3798 23.8912 15.3593C23.897 15.3387 23.9085 15.3203 23.9244 15.3061C23.9403 15.2919 23.96 15.2825 23.981 15.2791H23.98ZM24.002 15.8391C24.0319 15.8394 24.0604 15.8515 24.0813 15.8728C24.1022 15.8941 24.1138 15.9228 24.1135 15.9526C24.1133 15.9825 24.1011 16.011 24.0799 16.0319C24.0586 16.0528 24.0299 16.0644 24 16.0641C23.9853 16.064 23.9708 16.061 23.9572 16.0552C23.9437 16.0495 23.9314 16.0411 23.9211 16.0306C23.9108 16.0201 23.9027 16.0077 23.8972 15.9941C23.8917 15.9804 23.8889 15.9658 23.889 15.9511C23.8891 15.9364 23.8922 15.9219 23.8979 15.9083C23.9037 15.8948 23.912 15.8825 23.9225 15.8722C23.933 15.8619 23.9454 15.8538 23.9591 15.8483C23.9727 15.8427 23.9873 15.84 24.002 15.8401V15.8391ZM23.992 17.5271C24.0073 17.526 24.0226 17.5281 24.0371 17.5331C24.0516 17.5382 24.0648 17.5462 24.0761 17.5566C24.0873 17.567 24.0963 17.5796 24.1025 17.5936C24.1087 17.6077 24.1119 17.6228 24.112 17.6381C24.112 17.668 24.1002 17.6966 24.0791 17.7177C24.058 17.7388 24.0294 17.7506 23.9995 17.7506C23.9697 17.7506 23.9411 17.7388 23.92 17.7177C23.8989 17.6966 23.887 17.668 23.887 17.6381C23.887 17.5801 23.933 17.5311 23.992 17.5281V17.5271ZM20.295 18.2191C20.4826 18.2158 20.6669 18.2684 20.8245 18.3701C20.9821 18.4719 21.1058 18.6183 21.1799 18.7907C21.254 18.963 21.2752 19.1535 21.2406 19.3379C21.2061 19.5223 21.1175 19.6923 20.986 19.8261L19.178 21.6861C19.0918 21.7773 18.9884 21.8504 18.8737 21.9012C18.759 21.952 18.6353 21.9796 18.5099 21.9822C18.3845 21.9848 18.2598 21.9625 18.143 21.9166C18.0263 21.8706 17.9199 21.8019 17.8299 21.7145C17.74 21.627 17.6683 21.5226 17.619 21.4072C17.5698 21.2918 17.5439 21.1678 17.543 21.0424C17.5421 20.9169 17.5661 20.7925 17.6137 20.6764C17.6612 20.5604 17.7314 20.4549 17.82 20.3661L19.629 18.5081C19.7154 18.4182 19.8187 18.3463 19.933 18.2966C20.0473 18.2468 20.1704 18.2201 20.295 18.2181V18.2191ZM29.488 18.2191C29.6756 18.2158 29.8599 18.2684 30.0175 18.3701C30.1751 18.4719 30.2988 18.6183 30.3729 18.7907C30.447 18.963 30.4682 19.1535 30.4336 19.3379C30.3991 19.5223 30.3105 19.6923 30.179 19.8261L28.371 21.6861C28.2854 21.7797 28.1819 21.8551 28.0666 21.9079C27.9513 21.9607 27.8266 21.9899 27.6999 21.9936C27.5731 21.9973 27.4469 21.9755 27.3287 21.9295C27.2105 21.8835 27.1028 21.8142 27.0119 21.7258C26.921 21.6374 26.8488 21.5316 26.7996 21.4147C26.7503 21.2979 26.725 21.1723 26.7252 21.0455C26.7254 20.9187 26.7511 20.7932 26.8007 20.6765C26.8503 20.5598 26.9228 20.4543 27.014 20.3661L28.822 18.5081C28.9084 18.4182 29.0117 18.3463 29.126 18.2966C29.2403 18.2468 29.3634 18.2201 29.488 18.2181V18.2191ZM23.992 18.6521C24.0073 18.651 24.0226 18.6531 24.0371 18.6581C24.0516 18.6632 24.0648 18.6712 24.0761 18.6816C24.0873 18.692 24.0963 18.7046 24.1025 18.7186C24.1087 18.7327 24.1119 18.7478 24.112 18.7631C24.112 18.793 24.1002 18.8216 24.0791 18.8427C24.058 18.8638 24.0294 18.8756 23.9995 18.8756C23.9697 18.8756 23.9411 18.8638 23.92 18.8427C23.8989 18.8216 23.887 18.793 23.887 18.7631C23.887 18.7051 23.933 18.6561 23.992 18.6531V18.6521ZM23.98 19.2151H24C24.0225 19.2151 24.0444 19.2218 24.063 19.2343C24.0816 19.2468 24.0961 19.2646 24.1046 19.2853C24.1131 19.3061 24.1152 19.3289 24.1107 19.3509C24.1062 19.3729 24.0952 19.393 24.0792 19.4087C24.0632 19.4244 24.0429 19.4351 24.0208 19.4392C23.9988 19.4433 23.976 19.4408 23.9554 19.4319C23.9348 19.4231 23.9173 19.4083 23.9051 19.3894C23.8929 19.3706 23.8866 19.3485 23.887 19.3261C23.887 19.2711 23.926 19.2221 23.98 19.2151ZM24.002 19.7751C24.0319 19.7754 24.0604 19.7875 24.0813 19.8088C24.1022 19.8301 24.1138 19.8588 24.1135 19.8886C24.1133 19.9185 24.1011 19.947 24.0799 19.9679C24.0586 19.9888 24.0299 20.0004 24 20.0001C23.9852 20 23.9706 19.9969 23.957 19.9912C23.9434 19.9854 23.9311 19.977 23.9208 19.9665C23.9104 19.9559 23.9022 19.9434 23.8967 19.9297C23.8912 19.916 23.8884 19.9014 23.8885 19.8866C23.8886 19.8718 23.8917 19.8572 23.8975 19.8436C23.9032 19.83 23.9116 19.8177 23.9222 19.8074C23.9327 19.797 23.9452 19.7888 23.9589 19.7833C23.9726 19.7778 23.9872 19.775 24.002 19.7751ZM23.992 20.3381H24C24.0294 20.3392 24.0571 20.3517 24.0773 20.373C24.0975 20.3943 24.1085 20.4227 24.108 20.452C24.1075 20.4814 24.0954 20.5094 24.0745 20.5299C24.0536 20.5505 24.0254 20.562 23.996 20.562C23.9667 20.562 23.9385 20.5505 23.9175 20.5299C23.8966 20.5094 23.8846 20.4814 23.884 20.452C23.8835 20.4227 23.8945 20.3943 23.9147 20.373C23.9349 20.3517 23.9627 20.3392 23.992 20.3381ZM23.992 21.4631H24C24.0296 21.4642 24.0576 21.4768 24.078 21.4983C24.0984 21.5198 24.1095 21.5484 24.109 21.578C24.1085 21.6077 24.0963 21.6359 24.0752 21.6567C24.0541 21.6774 24.0256 21.689 23.996 21.689C23.9664 21.689 23.938 21.6774 23.9168 21.6567C23.8957 21.6359 23.8836 21.6077 23.883 21.578C23.8825 21.5484 23.8936 21.5198 23.914 21.4983C23.9344 21.4768 23.9624 21.4642 23.992 21.4631ZM20.295 22.2171C20.4196 22.2155 20.5433 22.2385 20.659 22.2848C20.7747 22.3311 20.88 22.3999 20.969 22.4871C21.0584 22.5738 21.1298 22.6773 21.1791 22.7917C21.2284 22.9061 21.2545 23.0291 21.2561 23.1536C21.2577 23.2781 21.2347 23.4017 21.1883 23.5173C21.1419 23.6329 21.0732 23.7382 20.986 23.8271L19.178 25.6861C19.0918 25.7773 18.9884 25.8504 18.8737 25.9012C18.759 25.952 18.6353 25.9796 18.5099 25.9822C18.3845 25.9848 18.2598 25.9625 18.143 25.9166C18.0263 25.8706 17.9199 25.8019 17.8299 25.7145C17.74 25.627 17.6683 25.5226 17.619 25.4072C17.5698 25.2918 17.5439 25.1678 17.543 25.0424C17.5421 24.9169 17.5661 24.7925 17.6137 24.6764C17.6612 24.5604 17.7314 24.4549 17.82 24.3661L19.629 22.5081C19.7154 22.4182 19.8187 22.3463 19.933 22.2966C20.0473 22.2468 20.1704 22.2201 20.295 22.2181V22.2171ZM29.488 22.2171C29.6126 22.2155 29.7363 22.2385 29.852 22.2849C29.9676 22.3312 30.073 22.3999 30.162 22.4871C30.2515 22.5737 30.323 22.6772 30.3723 22.7915C30.4217 22.9059 30.448 23.0288 30.4496 23.1534C30.4513 23.2779 30.4283 23.4015 30.3821 23.5172C30.3358 23.6328 30.2671 23.7381 30.18 23.8271L28.37 25.6861C28.2844 25.7797 28.1809 25.8551 28.0656 25.9079C27.9503 25.9607 27.8256 25.9899 27.6989 25.9936C27.5721 25.9973 27.4459 25.9755 27.3277 25.9295C27.2095 25.8835 27.1018 25.8142 27.0109 25.7258C26.92 25.6374 26.8478 25.5316 26.7986 25.4147C26.7493 25.2979 26.724 25.1723 26.7242 25.0455C26.7244 24.9187 26.7501 24.7932 26.7997 24.6765C26.8493 24.5598 26.9218 24.4543 27.013 24.3661L28.823 22.5081C28.9093 22.4184 29.0125 22.3465 29.1266 22.2968C29.2407 22.247 29.3635 22.2203 29.488 22.2181V22.2171ZM23.992 23.1501H24C24.0296 23.1512 24.0576 23.1638 24.078 23.1853C24.0984 23.2068 24.1095 23.2354 24.109 23.265C24.1085 23.2947 24.0963 23.3229 24.0752 23.3437C24.0541 23.3644 24.0256 23.376 23.996 23.376C23.9664 23.376 23.938 23.3644 23.9168 23.3437C23.8957 23.3229 23.8836 23.2947 23.883 23.265C23.8825 23.2354 23.8936 23.2068 23.914 23.1853C23.9344 23.1638 23.9624 23.1512 23.992 23.1501ZM23.98 23.7131H24C24.0222 23.7133 24.0438 23.7201 24.0621 23.7325C24.0804 23.745 24.0946 23.7626 24.1029 23.7832C24.1112 23.8037 24.1132 23.8263 24.1087 23.8479C24.1041 23.8696 24.0933 23.8895 24.0775 23.905C24.0617 23.9205 24.0416 23.931 24.0199 23.9351C23.9981 23.9393 23.9756 23.9369 23.9552 23.9282C23.9348 23.9195 23.9175 23.905 23.9053 23.8865C23.8932 23.868 23.8868 23.8463 23.887 23.8241C23.887 23.7691 23.926 23.7201 23.98 23.7131ZM23.98 24.2751H24C24.061 24.2761 24.11 24.3251 24.111 24.3871C24.111 24.4168 24.0992 24.4453 24.0782 24.4663C24.0572 24.4873 24.0287 24.4991 23.999 24.4991C23.9693 24.4991 23.9408 24.4873 23.9198 24.4663C23.8988 24.4453 23.887 24.4168 23.887 24.3871C23.887 24.3321 23.926 24.2831 23.98 24.2751ZM20.295 26.2171C20.4196 26.2155 20.5433 26.2385 20.659 26.2848C20.7747 26.3311 20.88 26.3999 20.969 26.4871C21.0584 26.5738 21.1298 26.6773 21.1791 26.7917C21.2284 26.9061 21.2545 27.0291 21.2561 27.1536C21.2577 27.2781 21.2347 27.4017 21.1883 27.5173C21.1419 27.6329 21.0732 27.7382 20.986 27.8271L19.178 29.6861C19.0918 29.7773 18.9884 29.8504 18.8737 29.9012C18.759 29.952 18.6353 29.9796 18.5099 29.9822C18.3845 29.9848 18.2598 29.9625 18.143 29.9166C18.0263 29.8706 17.9199 29.8019 17.8299 29.7145C17.74 29.627 17.6683 29.5226 17.619 29.4072C17.5698 29.2918 17.5439 29.1678 17.543 29.0424C17.5421 28.9169 17.5661 28.7925 17.6137 28.6764C17.6612 28.5604 17.7314 28.4549 17.82 28.3661L19.629 26.5081C19.7154 26.4182 19.8187 26.3463 19.933 26.2966C20.0473 26.2468 20.1704 26.2201 20.295 26.2181V26.2171ZM29.488 26.2171C29.6126 26.2155 29.7363 26.2385 29.852 26.2849C29.9676 26.3312 30.073 26.3999 30.162 26.4871C30.2515 26.5737 30.323 26.6772 30.3723 26.7915C30.4217 26.9059 30.448 27.0288 30.4496 27.1534C30.4513 27.2779 30.4283 27.4015 30.3821 27.5172C30.3358 27.6328 30.2671 27.7381 30.18 27.8271L28.37 29.6861C28.2844 29.7797 28.1809 29.8551 28.0656 29.9079C27.9503 29.9607 27.8256 29.9899 27.6989 29.9936C27.5721 29.9973 27.4459 29.9755 27.3277 29.9295C27.2095 29.8835 27.1018 29.8142 27.0109 29.7258C26.92 29.6374 26.8478 29.5316 26.7986 29.4147C26.7493 29.2979 26.724 29.1723 26.7242 29.0455C26.7244 28.9187 26.7501 28.7932 26.7997 28.6765C26.8493 28.5598 26.9218 28.4543 27.013 28.3661L28.823 26.5081C28.9093 26.4184 29.0125 26.3465 29.1266 26.2968C29.2407 26.247 29.3635 26.2203 29.488 26.2181V26.2171ZM23.98 28.2111H24C24.061 28.2111 24.11 28.2611 24.111 28.3221C24.1109 28.3435 24.1047 28.3644 24.0932 28.3823C24.0816 28.4003 24.0651 28.4146 24.0457 28.4235C24.0263 28.4324 24.0047 28.4355 23.9836 28.4326C23.9624 28.4296 23.9425 28.4207 23.9263 28.4068C23.91 28.393 23.8981 28.3747 23.8919 28.3543C23.8857 28.3339 23.8854 28.3121 23.8912 28.2915C23.8969 28.2709 23.9084 28.2524 23.9243 28.2382C23.9403 28.2239 23.9599 28.2145 23.981 28.2111H23.98ZM24.002 28.7711C24.0319 28.7714 24.0604 28.7835 24.0813 28.8048C24.1022 28.8261 24.1138 28.8548 24.1135 28.8846C24.1133 28.9145 24.1011 28.943 24.0799 28.9639C24.0586 28.9848 24.0299 28.9964 24 28.9961C23.9703 28.9958 23.9419 28.9838 23.9211 28.9626C23.9003 28.9414 23.8888 28.9128 23.889 28.8831C23.8893 28.8534 23.9013 28.825 23.9225 28.8042C23.9437 28.7834 23.9723 28.7718 24.002 28.7721V28.7711ZM23.992 29.3341H24C24.0294 29.3352 24.0571 29.3477 24.0773 29.369C24.0975 29.3903 24.1085 29.4187 24.108 29.448C24.1075 29.4774 24.0954 29.5054 24.0745 29.5259C24.0536 29.5465 24.0254 29.558 23.996 29.558C23.9667 29.558 23.9385 29.5465 23.9175 29.5259C23.8966 29.5054 23.8846 29.4774 23.884 29.448C23.8835 29.4187 23.8945 29.3903 23.9147 29.369C23.9349 29.3477 23.9627 29.3352 23.992 29.3341ZM23.992 29.8971H24C24.0294 29.8982 24.0571 29.9107 24.0773 29.932C24.0975 29.9533 24.1085 29.9817 24.108 30.011C24.1075 30.0404 24.0954 30.0684 24.0745 30.0889C24.0536 30.1095 24.0254 30.121 23.996 30.121C23.9667 30.121 23.9385 30.1095 23.9175 30.0889C23.8966 30.0684 23.8846 30.0404 23.884 30.011C23.8835 29.9817 23.8945 29.9533 23.9147 29.932C23.9349 29.9107 23.9627 29.8982 23.992 29.8971ZM20.295 30.2171C20.4196 30.2155 20.5433 30.2385 20.659 30.2849C20.7746 30.3312 20.88 30.3999 20.969 30.4871C21.0584 30.5738 21.1298 30.6773 21.1791 30.7917C21.2284 30.9061 21.2545 31.0291 21.2561 31.1536C21.2577 31.2781 21.2347 31.4017 21.1883 31.5173C21.1419 31.6329 21.0732 31.7382 20.986 31.8271L19.177 33.6861C19.0914 33.7797 18.9879 33.8551 18.8726 33.9079C18.7573 33.9607 18.6326 33.9899 18.5059 33.9936C18.3791 33.9973 18.2529 33.9755 18.1347 33.9295C18.0165 33.8835 17.9088 33.8142 17.8179 33.7258C17.727 33.6374 17.6548 33.5316 17.6056 33.4147C17.5563 33.2979 17.531 33.1723 17.5312 33.0455C17.5314 32.9187 17.5571 32.7932 17.6067 32.6765C17.6563 32.5598 17.7288 32.4543 17.82 32.3661L19.629 30.5081C19.7154 30.4182 19.8187 30.3463 19.933 30.2966C20.0473 30.2468 20.1704 30.2201 20.295 30.2181V30.2171ZM29.488 30.2171C29.6126 30.2155 29.7363 30.2385 29.852 30.2848C29.9677 30.3311 30.073 30.3999 30.162 30.4871C30.2515 30.5737 30.323 30.6772 30.3723 30.7915C30.4217 30.9059 30.448 31.0288 30.4496 31.1534C30.4513 31.2779 30.4283 31.4015 30.3821 31.5172C30.3358 31.6328 30.2671 31.7381 30.18 31.8271L28.37 33.6861C28.2844 33.7797 28.1809 33.8551 28.0656 33.9079C27.9503 33.9607 27.8256 33.9899 27.6989 33.9936C27.5721 33.9973 27.4459 33.9755 27.3277 33.9295C27.2095 33.8835 27.1018 33.8142 27.0109 33.7258C26.92 33.6374 26.8478 33.5316 26.7986 33.4147C26.7493 33.2979 26.724 33.1723 26.7242 33.0455C26.7244 32.9187 26.7501 32.7932 26.7997 32.6765C26.8493 32.5598 26.9218 32.4543 27.013 32.3661L28.823 30.5081C28.9093 30.4184 29.0125 30.3465 29.1266 30.2968C29.2407 30.247 29.3635 30.2203 29.488 30.2181V30.2171ZM23.992 31.0191C24.0074 31.0183 24.0228 31.0206 24.0373 31.0259C24.0517 31.0312 24.065 31.0394 24.0762 31.05C24.0874 31.0605 24.0963 31.0732 24.1025 31.0874C24.1087 31.1015 24.1119 31.1167 24.112 31.1321C24.112 31.162 24.1002 31.1906 24.0791 31.2117C24.058 31.2328 24.0294 31.2446 23.9995 31.2446C23.9697 31.2446 23.9411 31.2328 23.92 31.2117C23.8989 31.1906 23.887 31.162 23.887 31.1321C23.887 31.0731 23.933 31.0231 23.992 31.0201V31.0191ZM23.98 32.1451H24C24.0222 32.1453 24.0438 32.1521 24.0622 32.1646C24.0805 32.1771 24.0947 32.1948 24.103 32.2154C24.1112 32.236 24.1132 32.2586 24.1086 32.2803C24.104 32.302 24.093 32.3219 24.0771 32.3374C24.0612 32.3528 24.0411 32.3633 24.0192 32.3673C23.9974 32.3713 23.9749 32.3687 23.9545 32.3599C23.9342 32.3511 23.9169 32.3364 23.9048 32.3178C23.8928 32.2991 23.8866 32.2773 23.887 32.2551C23.887 32.2011 23.926 32.1521 23.98 32.1451ZM23.98 32.7071H24C24.061 32.7071 24.11 32.7571 24.111 32.8181C24.1109 32.8395 24.1047 32.8604 24.0932 32.8783C24.0816 32.8963 24.0651 32.9106 24.0457 32.9195C24.0263 32.9284 24.0047 32.9315 23.9836 32.9286C23.9624 32.9256 23.9425 32.9167 23.9263 32.9028C23.91 32.889 23.8981 32.8707 23.8919 32.8503C23.8857 32.8299 23.8854 32.8081 23.8912 32.7875C23.8969 32.7669 23.9084 32.7484 23.9243 32.7342C23.9403 32.7199 23.9599 32.7105 23.981 32.7071H23.98ZM24.002 33.2671C24.064 33.2681 24.114 33.3211 24.113 33.3831C24.113 33.3976 24.1101 33.412 24.1045 33.4254C24.099 33.4389 24.0908 33.451 24.0804 33.4613C24.0701 33.4715 24.0579 33.4796 24.0444 33.485C24.031 33.4905 24.0165 33.4932 24.002 33.4931C23.9873 33.4935 23.9727 33.491 23.959 33.4856C23.9453 33.4803 23.9328 33.4722 23.9223 33.462C23.9118 33.4517 23.9034 33.4395 23.8977 33.4259C23.892 33.4124 23.889 33.3978 23.889 33.3831C23.889 33.3201 23.939 33.2671 24.002 33.2681V33.2671ZM23.992 33.8301H24C24.0294 33.8312 24.0571 33.8437 24.0773 33.865C24.0975 33.8863 24.1085 33.9147 24.108 33.944C24.1075 33.9734 24.0954 34.0014 24.0745 34.0219C24.0536 34.0425 24.0254 34.054 23.996 34.054C23.9667 34.054 23.9385 34.0425 23.9175 34.0219C23.8966 34.0014 23.8846 33.9734 23.884 33.944C23.8835 33.9147 23.8945 33.8863 23.9147 33.865C23.9349 33.8437 23.9627 33.8312 23.992 33.8301ZM20.295 34.2171C20.4194 34.2156 20.543 34.2387 20.6584 34.285C20.7739 34.3313 20.8791 34.4 20.968 34.4871C21.0575 34.5737 21.129 34.6772 21.1783 34.7915C21.2277 34.9059 21.254 35.0288 21.2556 35.1534C21.2573 35.2779 21.2343 35.4015 21.1881 35.5172C21.1418 35.6328 21.0731 35.7381 20.986 35.8271L19.177 37.6861C19.0914 37.7797 18.9879 37.8551 18.8726 37.9079C18.7573 37.9607 18.6326 37.9899 18.5059 37.9936C18.3791 37.9973 18.2529 37.9755 18.1347 37.9295C18.0165 37.8835 17.9088 37.8142 17.8179 37.7258C17.727 37.6374 17.6548 37.5316 17.6056 37.4147C17.5563 37.2979 17.531 37.1723 17.5312 37.0455C17.5314 36.9187 17.5571 36.7932 17.6067 36.6765C17.6563 36.5598 17.7288 36.4543 17.82 36.3661L19.629 34.5081C19.7154 34.4182 19.8187 34.3463 19.933 34.2966C20.0473 34.2468 20.1704 34.2201 20.295 34.2181V34.2171ZM29.488 34.2171C29.6126 34.2155 29.7363 34.2385 29.852 34.2848C29.9677 34.3311 30.073 34.3999 30.162 34.4871C30.2515 34.5737 30.323 34.6772 30.3723 34.7915C30.4217 34.9059 30.448 35.0288 30.4496 35.1534C30.4513 35.2779 30.4283 35.4015 30.3821 35.5172C30.3358 35.6328 30.2671 35.7381 30.18 35.8271L28.37 37.6861C28.2844 37.7797 28.1809 37.8551 28.0656 37.9079C27.9503 37.9607 27.8256 37.9899 27.6989 37.9936C27.5721 37.9973 27.4459 37.9755 27.3277 37.9295C27.2095 37.8835 27.1018 37.8142 27.0109 37.7258C26.92 37.6374 26.8478 37.5316 26.7986 37.4147C26.7493 37.2979 26.724 37.1723 26.7242 37.0455C26.7244 36.9187 26.7501 36.7932 26.7997 36.6765C26.8493 36.5598 26.9218 36.4543 27.013 36.3661L28.822 34.5081C28.9084 34.4182 29.0117 34.3463 29.126 34.2966C29.2403 34.2468 29.3634 34.2201 29.488 34.2181V34.2171ZM23.992 35.5181H24C24.0296 35.5192 24.0576 35.5318 24.078 35.5533C24.0984 35.5748 24.1095 35.6034 24.109 35.633C24.1085 35.6627 24.0963 35.6909 24.0752 35.7117C24.0541 35.7324 24.0256 35.744 23.996 35.744C23.9664 35.744 23.938 35.7324 23.9168 35.7117C23.8957 35.6909 23.8836 35.6627 23.883 35.633C23.8825 35.6034 23.8936 35.5748 23.914 35.5533C23.9344 35.5318 23.9624 35.5192 23.992 35.5181ZM23.992 36.0801H24C24.0296 36.0812 24.0576 36.0938 24.078 36.1153C24.0984 36.1368 24.1095 36.1654 24.109 36.195C24.1085 36.2247 24.0963 36.2529 24.0752 36.2737C24.0541 36.2944 24.0256 36.306 23.996 36.306C23.9664 36.306 23.938 36.2944 23.9168 36.2737C23.8957 36.2529 23.8836 36.2247 23.883 36.195C23.8825 36.1654 23.8936 36.1368 23.914 36.1153C23.9344 36.0938 23.9624 36.0812 23.992 36.0801ZM23.992 36.6431H24C24.0296 36.6442 24.0576 36.6568 24.078 36.6783C24.0984 36.6998 24.1095 36.7284 24.109 36.758C24.1085 36.7877 24.0963 36.8159 24.0752 36.8367C24.0541 36.8574 24.0256 36.869 23.996 36.869C23.9664 36.869 23.938 36.8574 23.9168 36.8367C23.8957 36.8159 23.8836 36.7877 23.883 36.758C23.8825 36.7284 23.8936 36.6998 23.914 36.6783C23.9344 36.6568 23.9624 36.6442 23.992 36.6431ZM23.98 37.2051H24C24.061 37.2051 24.11 37.2551 24.111 37.3161C24.111 37.3458 24.0992 37.3743 24.0782 37.3953C24.0572 37.4163 24.0287 37.4281 23.999 37.4281C23.9693 37.4281 23.9408 37.4163 23.9198 37.3953C23.8988 37.3743 23.887 37.3458 23.887 37.3161C23.887 37.2611 23.926 37.2131 23.98 37.2061V37.2051ZM20.295 38.2171C20.4194 38.2156 20.543 38.2387 20.6584 38.285C20.7739 38.3313 20.8791 38.4 20.968 38.4871C21.0575 38.5737 21.129 38.6772 21.1783 38.7915C21.2277 38.9059 21.254 39.0288 21.2556 39.1534C21.2573 39.2779 21.2343 39.4015 21.1881 39.5172C21.1418 39.6328 21.0731 39.7381 20.986 39.8271L19.177 41.6861C19.0914 41.7797 18.9879 41.8551 18.8726 41.9079C18.7573 41.9607 18.6326 41.9899 18.5059 41.9936C18.3791 41.9973 18.2529 41.9755 18.1347 41.9295C18.0165 41.8835 17.9088 41.8142 17.8179 41.7258C17.727 41.6374 17.6548 41.5316 17.6056 41.4147C17.5563 41.2979 17.531 41.1723 17.5312 41.0455C17.5314 40.9187 17.5571 40.7932 17.6067 40.6765C17.6563 40.5598 17.7288 40.4543 17.82 40.3661L19.629 38.5081C19.7154 38.4182 19.8187 38.3463 19.933 38.2966C20.0473 38.2468 20.1704 38.2201 20.295 38.2181V38.2171ZM29.488 38.2171C29.6126 38.2155 29.7363 38.2385 29.852 38.2848C29.9677 38.3311 30.073 38.3999 30.162 38.4871C30.2515 38.5737 30.323 38.6772 30.3723 38.7915C30.4217 38.9059 30.448 39.0288 30.4496 39.1534C30.4513 39.2779 30.4283 39.4015 30.3821 39.5172C30.3358 39.6328 30.2671 39.7381 30.18 39.8271L28.37 41.6861C28.2844 41.7797 28.1809 41.8551 28.0656 41.9079C27.9503 41.9607 27.8256 41.9899 27.6989 41.9936C27.5721 41.9973 27.4459 41.9755 27.3277 41.9295C27.2095 41.8835 27.1018 41.8142 27.0109 41.7258C26.92 41.6374 26.8478 41.5316 26.7986 41.4147C26.7493 41.2979 26.724 41.1723 26.7242 41.0455C26.7244 40.9187 26.7501 40.7932 26.7997 40.6765C26.8493 40.5598 26.9218 40.4543 27.013 40.3661L28.822 38.5081C28.9084 38.4182 29.0117 38.3463 29.126 38.2966C29.2403 38.2468 29.3634 38.2201 29.488 38.2181V38.2171ZM23.98 41.1411H24C24.0222 41.1413 24.0438 41.1481 24.0621 41.1605C24.0804 41.173 24.0946 41.1906 24.1029 41.2112C24.1112 41.2317 24.1132 41.2543 24.1087 41.2759C24.1041 41.2976 24.0933 41.3175 24.0775 41.333C24.0617 41.3485 24.0416 41.359 24.0199 41.3631C23.9981 41.3673 23.9756 41.3649 23.9552 41.3562C23.9348 41.3475 23.9175 41.333 23.9053 41.3145C23.8932 41.296 23.8868 41.2743 23.887 41.2521C23.887 41.1971 23.926 41.1481 23.98 41.1411ZM23.98 41.7031H24C24.061 41.7031 24.11 41.7531 24.111 41.8141C24.111 41.8761 24.061 41.9251 24 41.9261C23.9853 41.9262 23.9707 41.9235 23.9571 41.918C23.9434 41.9125 23.931 41.9043 23.9205 41.894C23.91 41.8837 23.9017 41.8714 23.8959 41.8579C23.8902 41.8444 23.8871 41.8298 23.887 41.8151C23.8862 41.7883 23.8952 41.7621 23.9123 41.7415C23.9295 41.7209 23.9535 41.7072 23.98 41.7031ZM24.002 42.2631C24.0168 42.2632 24.0314 42.2663 24.045 42.2721C24.0586 42.2778 24.0709 42.2862 24.0813 42.2968C24.0916 42.3073 24.0998 42.3198 24.1053 42.3335C24.1109 42.3472 24.1136 42.3618 24.1135 42.3766C24.1134 42.3914 24.1103 42.406 24.1046 42.4196C24.0988 42.4332 24.0904 42.4455 24.0799 42.4559C24.0693 42.4662 24.0568 42.4744 24.0431 42.4799C24.0294 42.4855 24.0148 42.4882 24 42.4881C23.9853 42.488 23.9708 42.485 23.9572 42.4792C23.9437 42.4735 23.9314 42.4651 23.9211 42.4546C23.9108 42.4441 23.9027 42.4317 23.8972 42.4181C23.8917 42.4044 23.8889 42.3898 23.889 42.3751C23.8891 42.3604 23.8922 42.3459 23.8979 42.3323C23.9037 42.3188 23.912 42.3065 23.9225 42.2962C23.933 42.2859 23.9454 42.2778 23.9591 42.2723C23.9727 42.2668 23.9873 42.264 24.002 42.2641V42.2631Z" fill="#333333"/>
</svg>
