<svg width="48" height="48" viewBox="0 0 48 48" fill="none" xmlns="http://www.w3.org/2000/svg">
<path d="M23.818 4.13708C20.532 4.14508 17.298 4.15908 14.125 4.15808C13.919 4.15768 13.7149 4.19802 13.5245 4.27676C13.3342 4.35551 13.1612 4.47111 13.0157 4.61693C12.8702 4.76274 12.7549 4.93589 12.6765 5.12641C12.5981 5.31693 12.5582 5.52107 12.559 5.72708V42.5871C12.559 43.4571 13.256 44.1581 14.125 44.1581H33.83C34.7 44.1581 35.398 43.4571 35.398 42.5881V5.72708C35.398 4.85708 34.699 4.15808 33.83 4.15808C30.444 4.12808 27.105 4.12808 23.818 4.13708ZM14.561 4.65708L14.559 4.65808H33.396C34.226 4.65808 34.898 5.33808 34.898 6.18808V42.1271C34.898 42.9741 34.228 43.6571 33.396 43.6571H14.561C13.729 43.6571 13.061 42.9741 13.061 42.1271V6.18708C13.061 5.34008 13.729 4.65708 14.561 4.65708ZM19.961 5.19708C19.9356 5.20069 19.9122 5.21307 19.895 5.23208C19.8845 5.24256 19.8763 5.25499 19.8707 5.26867C19.8651 5.28235 19.8623 5.29701 19.8624 5.31179C19.8625 5.32657 19.8655 5.34118 19.8712 5.35479C19.877 5.3684 19.8854 5.38073 19.896 5.39108C19.9065 5.40104 19.9189 5.40882 19.9325 5.41397C19.946 5.41912 19.9605 5.42153 19.975 5.42108C20.0039 5.42173 20.0319 5.41095 20.053 5.39108C20.0745 5.3703 20.087 5.34196 20.088 5.31208C20.0882 5.28235 20.0769 5.25369 20.0564 5.23221C20.0358 5.21073 20.0077 5.19812 19.978 5.19708H19.971C19.9676 5.19693 19.9643 5.19693 19.961 5.19708ZM27.961 5.19708C27.9356 5.20069 27.9122 5.21307 27.895 5.23208C27.8845 5.24256 27.8763 5.25499 27.8707 5.26867C27.8651 5.28235 27.8623 5.29701 27.8624 5.31179C27.8625 5.32657 27.8655 5.34118 27.8712 5.35479C27.877 5.3684 27.8854 5.38073 27.896 5.39108C27.9065 5.40104 27.9189 5.40882 27.9325 5.41397C27.946 5.41912 27.9605 5.42153 27.975 5.42108C28.0039 5.42173 28.0319 5.41095 28.053 5.39108C28.0745 5.3703 28.087 5.34196 28.088 5.31208C28.0883 5.28235 28.0769 5.25369 28.0564 5.23221C28.0358 5.21073 28.0077 5.19812 27.978 5.19708H27.971C27.9676 5.19693 27.9643 5.19693 27.961 5.19708ZM19.971 5.76208C19.9561 5.76255 19.9415 5.76595 19.928 5.77208C19.9016 5.78543 19.8812 5.8083 19.871 5.83608C19.866 5.85006 19.864 5.86491 19.865 5.8797C19.8661 5.8945 19.8701 5.90892 19.877 5.92208C19.8863 5.94223 19.9016 5.95911 19.9206 5.97052C19.9397 5.98193 19.9618 5.98735 19.984 5.98608C20.0138 5.98455 20.0419 5.97125 20.062 5.94908C20.0718 5.93792 20.0793 5.92494 20.0841 5.91087C20.0889 5.8968 20.0909 5.88192 20.09 5.86708C20.0884 5.83721 20.0751 5.80916 20.053 5.78908C20.0303 5.76958 20.0008 5.75987 19.971 5.76208ZM27.971 5.76208C27.9561 5.76255 27.9415 5.76595 27.928 5.77208C27.9147 5.77877 27.9028 5.78794 27.893 5.79908C27.8831 5.81024 27.8756 5.82323 27.8707 5.83732C27.8659 5.8514 27.8639 5.86629 27.8648 5.88115C27.8658 5.89601 27.8696 5.91054 27.8762 5.92391C27.8827 5.93728 27.8918 5.94923 27.903 5.95908C27.9141 5.96893 27.9271 5.97648 27.9412 5.98131C27.9553 5.98614 27.9702 5.98814 27.985 5.98722C27.9999 5.98629 28.0144 5.98244 28.0278 5.9759C28.0412 5.96935 28.0531 5.96024 28.063 5.94908C28.0825 5.9264 28.0922 5.89691 28.09 5.86708C28.0884 5.83721 28.0751 5.80916 28.053 5.78908C28.0303 5.76958 28.0008 5.75987 27.971 5.76208ZM19.961 6.32408C19.9341 6.32795 19.9096 6.34144 19.8919 6.36204C19.8743 6.38264 19.8647 6.40895 19.865 6.43608C19.866 6.46561 19.8785 6.49359 19.8997 6.51412C19.921 6.53464 19.9494 6.5461 19.979 6.54608C19.9934 6.54614 20.0078 6.54334 20.0212 6.53785C20.0345 6.53236 20.0467 6.52428 20.057 6.51408C20.0674 6.5039 20.0756 6.49177 20.0813 6.47838C20.0869 6.46499 20.0899 6.45062 20.09 6.43608C20.09 6.37508 20.04 6.32608 19.979 6.32408H19.961ZM27.961 6.32408C27.9341 6.32795 27.9096 6.34144 27.8919 6.36204C27.8743 6.38264 27.8647 6.40895 27.865 6.43608C27.866 6.46561 27.8785 6.49359 27.8997 6.51412C27.921 6.53464 27.9494 6.5461 27.979 6.54608C27.9934 6.54614 28.0078 6.54334 28.0212 6.53785C28.0345 6.53236 28.0467 6.52428 28.057 6.51408C28.0674 6.5039 28.0756 6.49177 28.0813 6.47838C28.0869 6.46499 28.0899 6.45062 28.09 6.43608C28.09 6.37508 28.04 6.32608 27.979 6.32408H27.961ZM24.197 6.61708V6.61908C23.9835 6.6136 23.7711 6.65085 23.5722 6.72864C23.3734 6.80644 23.1921 6.9232 23.039 7.07208C22.886 7.22208 22.767 7.40108 22.684 7.59808C22.6008 7.79423 22.5576 8.00502 22.557 8.21808C22.557 8.53951 22.6539 8.85347 22.8349 9.11906C23.016 9.38465 23.2728 9.58956 23.572 9.70708C23.772 9.78508 23.984 9.82408 24.197 9.81808C24.5135 9.81813 24.823 9.72428 25.0862 9.54841C25.3494 9.37255 25.5545 9.12256 25.6756 8.83008C25.7966 8.5376 25.8282 8.21579 25.7664 7.90534C25.7045 7.5949 25.5519 7.30979 25.328 7.08608C25.0283 6.78622 24.6219 6.61754 24.198 6.61708H24.197ZM19.969 6.88508C19.9431 6.88701 19.9186 6.89799 19.9 6.91608C19.89 6.92682 19.8822 6.93938 19.877 6.95308C19.8709 6.96654 19.8676 6.9811 19.8672 6.99587C19.8669 7.01065 19.8695 7.02534 19.875 7.03908C19.8868 7.06583 19.9082 7.08721 19.935 7.09908C19.95 7.10608 19.964 7.10908 19.979 7.10908C20.0085 7.10883 20.0368 7.09712 20.0579 7.07641C20.079 7.0557 20.0912 7.02762 20.092 6.99808C20.092 6.96808 20.082 6.93908 20.061 6.91808C20.0397 6.89699 20.0109 6.88514 19.981 6.88508C19.977 6.88486 19.973 6.88486 19.969 6.88508ZM27.969 6.88508C27.9431 6.88701 27.9186 6.89799 27.9 6.91608C27.89 6.92682 27.8822 6.93938 27.877 6.95308C27.8709 6.96654 27.8676 6.9811 27.8672 6.99587C27.8669 7.01065 27.8695 7.02534 27.875 7.03908C27.8868 7.06583 27.9082 7.08721 27.935 7.09908C27.95 7.10608 27.964 7.10908 27.979 7.10908C28.0085 7.10883 28.0368 7.09712 28.0579 7.07641C28.079 7.0557 28.0912 7.02762 28.092 6.99808C28.092 6.96808 28.082 6.93908 28.061 6.91808C28.0397 6.89699 28.0109 6.88514 27.981 6.88508C27.977 6.88486 27.973 6.88486 27.969 6.88508ZM24.197 7.08008C24.3493 7.0753 24.5011 7.10115 24.6432 7.15609C24.7854 7.21103 24.9151 7.29394 25.0246 7.39991C25.1342 7.50588 25.2213 7.63276 25.2809 7.77303C25.3405 7.9133 25.3714 8.06411 25.3717 8.21652C25.3719 8.36893 25.3416 8.51984 25.2825 8.66032C25.2234 8.8008 25.1367 8.92799 25.0275 9.03434C24.9183 9.1407 24.7889 9.22407 24.6469 9.2795C24.505 9.33494 24.3533 9.36132 24.201 9.35708C23.9048 9.34884 23.6236 9.22554 23.4168 9.01335C23.2101 8.80116 23.0942 8.51677 23.0937 8.22052C23.0931 7.92427 23.2081 7.63948 23.414 7.42656C23.62 7.21364 23.9009 7.08936 24.197 7.08008ZM19.971 7.44508V7.44708C19.9421 7.44859 19.9149 7.46112 19.895 7.48208C19.875 7.50348 19.8643 7.53184 19.865 7.56108C19.8653 7.57943 19.8701 7.59742 19.879 7.61347C19.888 7.62952 19.9007 7.64313 19.9161 7.65311C19.9315 7.66308 19.9491 7.66912 19.9674 7.67068C19.9857 7.67225 20.0041 7.66929 20.021 7.66208C20.0377 7.65434 20.0524 7.64265 20.0636 7.628C20.0749 7.61335 20.0824 7.59619 20.0856 7.57798C20.0887 7.55978 20.0874 7.54109 20.0817 7.52351C20.076 7.50593 20.0662 7.49 20.053 7.47708C20.0422 7.46639 20.0294 7.45803 20.0153 7.45252C20.0012 7.44701 19.9861 7.44448 19.971 7.44508ZM27.971 7.44508V7.44708C27.9421 7.44859 27.9149 7.46112 27.895 7.48208C27.875 7.50348 27.8643 7.53184 27.865 7.56108C27.8653 7.57943 27.8701 7.59742 27.879 7.61347C27.888 7.62952 27.9007 7.64313 27.9161 7.65311C27.9315 7.66308 27.9491 7.66912 27.9674 7.67068C27.9857 7.67225 28.0041 7.66929 28.021 7.66208C28.0377 7.65434 28.0524 7.64265 28.0636 7.628C28.0749 7.61335 28.0824 7.59619 28.0856 7.57798C28.0887 7.55978 28.0874 7.54109 28.0817 7.52351C28.076 7.50593 28.0662 7.49 28.053 7.47708C28.0422 7.46639 28.0294 7.45803 28.0153 7.45252C28.0012 7.44701 27.9861 7.44448 27.971 7.44508ZM19.961 8.00808C19.9358 8.01099 19.9124 8.02267 19.895 8.04108C19.8742 8.0622 19.8627 8.09068 19.8629 8.12029C19.863 8.14989 19.875 8.17822 19.896 8.19908C19.9064 8.20922 19.9188 8.21718 19.9324 8.2225C19.9459 8.22783 19.9604 8.2304 19.975 8.23008C20.0039 8.23073 20.0319 8.21995 20.053 8.20008C20.0745 8.1793 20.087 8.15096 20.088 8.12108C20.0883 8.09141 20.0772 8.06275 20.057 8.04108C20.0363 8.02029 20.0083 8.00845 19.979 8.00808H19.971C19.9676 8.00792 19.9643 8.00792 19.961 8.00808ZM27.961 8.00808C27.9358 8.01099 27.9124 8.02267 27.895 8.04108C27.8742 8.0622 27.8627 8.09068 27.8629 8.12029C27.863 8.14989 27.875 8.17822 27.896 8.19908C27.9064 8.20922 27.9188 8.21718 27.9324 8.2225C27.9459 8.22783 27.9604 8.2304 27.975 8.23008C28.0039 8.23073 28.0319 8.21995 28.053 8.20008C28.0745 8.1793 28.087 8.15096 28.088 8.12108C28.0883 8.09141 28.0772 8.06275 28.057 8.04108C28.0363 8.02029 28.0083 8.00845 27.979 8.00808H27.971C27.9676 8.00792 27.9643 8.00792 27.961 8.00808ZM19.961 8.57008C19.9356 8.57369 19.9122 8.58607 19.895 8.60508C19.8794 8.62058 19.8688 8.64041 19.8646 8.66199C19.8603 8.68358 19.8627 8.70594 19.8713 8.72618C19.8799 8.74642 19.8944 8.76361 19.9129 8.77554C19.9313 8.78746 19.953 8.79357 19.975 8.79308C20.004 8.79346 20.0321 8.78232 20.053 8.76208C20.0742 8.74154 20.0868 8.71361 20.088 8.68408C20.088 8.65452 20.0765 8.62612 20.056 8.60485C20.0355 8.58358 20.0075 8.57112 19.978 8.57008H19.971C19.9676 8.56993 19.9643 8.56993 19.961 8.57008ZM27.961 8.57008C27.9356 8.57369 27.9122 8.58607 27.895 8.60508C27.8794 8.62058 27.8688 8.64041 27.8646 8.66199C27.8603 8.68358 27.8627 8.70594 27.8713 8.72618C27.8799 8.74642 27.8944 8.76361 27.9129 8.77554C27.9313 8.78746 27.953 8.79357 27.975 8.79308C28.004 8.79346 28.0321 8.78232 28.053 8.76208C28.0742 8.74154 28.0868 8.71361 28.088 8.68408C28.088 8.65452 28.0765 8.62612 28.056 8.60485C28.0355 8.58358 28.0075 8.57112 27.978 8.57008H27.971C27.9676 8.56993 27.9643 8.56993 27.961 8.57008ZM19.971 9.13308C19.9419 9.13541 19.9148 9.14863 19.895 9.17008C19.8846 9.18098 19.8766 9.19387 19.8715 9.20797C19.8663 9.22208 19.8641 9.23709 19.865 9.25208C19.8664 9.26638 19.8704 9.28029 19.877 9.29308C19.8862 9.31332 19.9014 9.33028 19.9205 9.3417C19.9396 9.35313 19.9618 9.35849 19.984 9.35708C19.9986 9.35636 20.013 9.35271 20.0262 9.34636C20.0394 9.34 20.0513 9.33107 20.061 9.32008C20.0809 9.29772 20.0913 9.26838 20.0898 9.23844C20.0883 9.20849 20.0751 9.18034 20.053 9.16008C20.0302 9.14068 20.0008 9.13098 19.971 9.13308ZM27.971 9.13308C27.9419 9.13541 27.9148 9.14863 27.895 9.17008C27.8846 9.18098 27.8766 9.19387 27.8715 9.20797C27.8663 9.22208 27.8641 9.23709 27.865 9.25208C27.8664 9.26638 27.8704 9.28029 27.877 9.29308C27.8862 9.31332 27.9014 9.33028 27.9205 9.3417C27.9396 9.35313 27.9618 9.35849 27.984 9.35708C27.9986 9.35636 28.013 9.35271 28.0262 9.34636C28.0394 9.34 28.0513 9.33107 28.061 9.32008C28.0809 9.29772 28.0913 9.26838 28.0898 9.23844C28.0883 9.20849 28.0751 9.18034 28.053 9.16008C28.0302 9.14068 28.0008 9.13098 27.971 9.13308ZM16.604 9.43208C16.3941 9.43146 16.1861 9.4723 15.992 9.55227C15.7979 9.63224 15.6215 9.74976 15.473 9.89808C15.249 10.122 15.0964 10.4072 15.0344 10.7178C14.9725 11.0284 15.004 11.3504 15.125 11.6431C15.2261 11.8858 15.3854 12.0999 15.5888 12.2665C15.7923 12.4331 16.0335 12.5472 16.2914 12.5986C16.5493 12.6499 16.8158 12.6371 17.0676 12.5611C17.3193 12.4852 17.5485 12.3485 17.735 12.1631C17.9586 11.9393 18.1109 11.6543 18.1725 11.344C18.2342 11.0337 18.2025 10.7122 18.0815 10.4199C17.9604 10.1276 17.7555 9.87778 17.4925 9.70196C17.2295 9.52614 16.9203 9.43223 16.604 9.43208ZM31.354 9.43208C31.1441 9.43146 30.9361 9.4723 30.742 9.55227C30.5479 9.63224 30.3715 9.74976 30.223 9.89808C29.999 10.122 29.8464 10.4072 29.7844 10.7178C29.7225 11.0284 29.754 11.3504 29.875 11.6431C29.9761 11.8858 30.1354 12.0999 30.3388 12.2665C30.5423 12.4331 30.7835 12.5472 31.0414 12.5986C31.2993 12.6499 31.5658 12.6371 31.8176 12.5611C32.0693 12.4852 32.2985 12.3485 32.485 12.1631C32.7086 11.9393 32.8609 11.6543 32.9225 11.344C32.9842 11.0337 32.9525 10.7122 32.8315 10.4199C32.7104 10.1276 32.5055 9.87778 32.2425 9.70196C31.9795 9.52614 31.6703 9.43223 31.354 9.43208ZM19.961 9.69508C19.9453 9.69707 19.9302 9.70243 19.9168 9.71078C19.9033 9.71914 19.8918 9.7303 19.8831 9.74349C19.8744 9.75668 19.8686 9.77161 19.8662 9.78724C19.8637 9.80287 19.8647 9.81885 19.869 9.83408C19.8742 9.85589 19.8856 9.8757 19.902 9.89108C19.9176 9.90623 19.9375 9.91633 19.959 9.92008C19.981 9.92408 20.003 9.92008 20.023 9.91008C20.0435 9.90196 20.0612 9.88807 20.074 9.87008C20.0856 9.85243 20.0921 9.83185 20.0927 9.8107C20.0932 9.78955 20.0878 9.76866 20.0771 9.75042C20.0664 9.73218 20.0507 9.71733 20.032 9.70754C20.0132 9.69776 19.9921 9.69344 19.971 9.69508C19.9676 9.69493 19.9643 9.69493 19.961 9.69508ZM27.961 9.69508C27.9453 9.69707 27.9302 9.70243 27.9168 9.71078C27.9033 9.71914 27.8918 9.7303 27.8831 9.74349C27.8744 9.75668 27.8686 9.77161 27.8662 9.78724C27.8637 9.80287 27.8647 9.81885 27.869 9.83408C27.8741 9.85591 27.8856 9.87574 27.902 9.89108C27.9176 9.90623 27.9375 9.91633 27.959 9.92008C27.981 9.92408 28.003 9.92008 28.023 9.91008C28.0435 9.90196 28.0612 9.88807 28.074 9.87008C28.0856 9.85243 28.0921 9.83185 28.0927 9.8107C28.0932 9.78955 28.0878 9.76866 28.0771 9.75042C28.0664 9.73218 28.0507 9.71733 28.032 9.70754C28.0132 9.69776 27.9921 9.69344 27.971 9.69508C27.9676 9.69493 27.9643 9.69493 27.961 9.69508ZM16.623 9.89308C16.9265 9.89308 17.2176 10.0137 17.4323 10.2283C17.6469 10.4429 17.7675 10.734 17.7675 11.0376C17.7675 11.3411 17.6469 11.6322 17.4323 11.8469C17.2176 12.0615 16.9265 12.1821 16.623 12.1821C16.3193 12.1821 16.0281 12.0614 15.8133 11.8467C15.5986 11.632 15.478 11.3408 15.478 11.0371C15.478 10.7334 15.5986 10.4422 15.8133 10.2274C16.0281 10.0127 16.3193 9.89208 16.623 9.89208V9.89308ZM31.398 9.92008C31.551 9.91555 31.7033 9.94178 31.846 9.99721C31.9887 10.0526 32.1188 10.1361 32.2287 10.2428C32.3385 10.3494 32.4258 10.477 32.4854 10.618C32.5451 10.759 32.5758 10.9105 32.5758 11.0636C32.5758 11.2167 32.5451 11.3682 32.4854 11.5092C32.4258 11.6502 32.3385 11.7777 32.2287 11.8844C32.1188 11.991 31.9887 12.0745 31.846 12.1299C31.7033 12.1854 31.551 12.2116 31.398 12.2071C31.1006 12.1983 30.8183 12.0739 30.611 11.8605C30.4037 11.647 30.2878 11.3611 30.2878 11.0636C30.2878 10.766 30.4037 10.4802 30.611 10.2667C30.8183 10.0532 31.1006 9.92887 31.398 9.92008ZM19.959 10.2581C19.9324 10.2626 19.9083 10.2764 19.891 10.2971C19.8737 10.3178 19.8645 10.3441 19.865 10.3711C19.865 10.4341 19.915 10.4841 19.979 10.4841C20.0086 10.4831 20.0366 10.4705 20.057 10.4491C20.0778 10.4285 20.0897 10.4004 20.09 10.3711C20.09 10.3415 20.0783 10.313 20.0576 10.2919C20.0368 10.2707 20.0086 10.2586 19.979 10.2581H19.959ZM27.959 10.2581C27.9324 10.2626 27.9083 10.2764 27.891 10.2971C27.8737 10.3178 27.8645 10.3441 27.865 10.3711C27.865 10.4341 27.915 10.4841 27.979 10.4841C28.0086 10.4831 28.0366 10.4705 28.057 10.4491C28.0778 10.4285 28.0897 10.4004 28.09 10.3711C28.09 10.3415 28.0783 10.313 28.0576 10.2919C28.0368 10.2707 28.0086 10.2586 27.979 10.2581H27.959ZM19.969 10.8181C19.9576 10.8192 19.9465 10.8219 19.936 10.8261C19.9223 10.8322 19.9101 10.8411 19.9 10.8521C19.8893 10.8627 19.8808 10.8752 19.875 10.8891C19.8694 10.9034 19.8667 10.9187 19.867 10.9341C19.867 10.9961 19.918 11.0431 19.98 11.0431C19.9946 11.0437 20.0091 11.0413 20.0227 11.0359C20.0363 11.0306 20.0487 11.0225 20.059 11.0121C20.0698 11.0023 20.0784 10.9902 20.0841 10.9767C20.0898 10.9633 20.0925 10.9487 20.092 10.9341C20.0924 10.9191 20.0898 10.9041 20.0843 10.8901C20.0789 10.8762 20.0707 10.8634 20.0603 10.8526C20.0499 10.8418 20.0374 10.8332 20.0236 10.8272C20.0098 10.8213 19.995 10.8182 19.98 10.8181C19.9763 10.8179 19.9726 10.8179 19.969 10.8181ZM27.969 10.8181C27.9576 10.8192 27.9465 10.8219 27.936 10.8261C27.9223 10.8322 27.9101 10.8411 27.9 10.8521C27.8893 10.8627 27.8808 10.8752 27.875 10.8891C27.8694 10.9034 27.8667 10.9187 27.867 10.9341C27.867 10.9961 27.918 11.0431 27.98 11.0431C27.9946 11.0437 28.0091 11.0413 28.0227 11.0359C28.0363 11.0306 28.0487 11.0225 28.059 11.0121C28.0698 11.0023 28.0784 10.9902 28.0841 10.9767C28.0898 10.9633 28.0925 10.9487 28.092 10.9341C28.0924 10.9191 28.0898 10.9041 28.0843 10.8901C28.0789 10.8762 28.0707 10.8634 28.0603 10.8526C28.0499 10.8418 28.0374 10.8332 28.0236 10.8272C28.0098 10.8213 27.995 10.8182 27.98 10.8181C27.9763 10.8179 27.9726 10.8179 27.969 10.8181ZM19.969 11.3811C19.958 11.3821 19.9472 11.3848 19.937 11.3891C19.9232 11.395 19.9106 11.4035 19.9 11.4141C19.8901 11.4241 19.8823 11.436 19.877 11.4491C19.871 11.4626 19.8677 11.4771 19.8674 11.4919C19.867 11.5066 19.8696 11.5213 19.875 11.5351C19.8809 11.5489 19.8894 11.5614 19.9 11.5721C19.9212 11.592 19.9489 11.6037 19.978 11.6051C20.008 11.6051 20.037 11.5931 20.058 11.5721C20.079 11.5514 20.0911 11.5232 20.0917 11.4937C20.0922 11.4642 20.0812 11.4356 20.061 11.4141C20.0397 11.393 20.0109 11.3811 19.981 11.3811C19.977 11.3809 19.973 11.3809 19.969 11.3811ZM27.969 11.3811C27.958 11.3821 27.9472 11.3848 27.937 11.3891C27.9232 11.395 27.9106 11.4035 27.9 11.4141C27.8901 11.4241 27.8823 11.436 27.877 11.4491C27.871 11.4626 27.8677 11.4771 27.8674 11.4919C27.867 11.5066 27.8696 11.5213 27.875 11.5351C27.8809 11.5489 27.8894 11.5614 27.9 11.5721C27.9212 11.592 27.9489 11.6037 27.978 11.6051C28.008 11.6051 28.037 11.5931 28.058 11.5721C28.079 11.5514 28.0911 11.5232 28.0917 11.4937C28.0922 11.4642 28.0812 11.4356 28.061 11.4141C28.0397 11.393 28.0109 11.3811 27.981 11.3811C27.977 11.3809 27.973 11.3809 27.969 11.3811ZM24.197 11.7911C23.8736 11.7794 23.5542 11.8661 23.2812 12.0399C23.0082 12.2136 22.7943 12.4661 22.668 12.7641C22.5423 13.0622 22.5095 13.3913 22.5739 13.7084C22.6383 14.0254 22.7969 14.3156 23.029 14.5411C23.1836 14.6903 23.3667 14.8069 23.5674 14.8837C23.7681 14.9605 23.9822 14.996 24.197 14.9881C24.5063 14.9781 24.8061 14.8785 25.0599 14.7013C25.3136 14.524 25.5104 14.2769 25.6263 13.9899C25.7422 13.7029 25.7723 13.3884 25.7127 13.0847C25.6532 12.781 25.5066 12.5011 25.291 12.2791C25.0034 11.9807 24.6111 11.8057 24.197 11.7911ZM19.971 11.9431C19.9427 11.9466 19.9167 11.9605 19.8982 11.9822C19.8796 12.0039 19.8699 12.0317 19.8709 12.0602C19.8719 12.0888 19.8836 12.1158 19.9036 12.1362C19.9236 12.1565 19.9505 12.1686 19.979 12.1701C20.0085 12.1689 20.0364 12.1563 20.057 12.1351C20.0777 12.1143 20.0895 12.0864 20.09 12.0571C20.0897 12.0416 20.0863 12.0262 20.08 12.0121C20.074 11.9979 20.0652 11.985 20.0543 11.9742C20.0433 11.9634 20.0303 11.9548 20.016 11.9491C20.0016 11.944 19.9862 11.9419 19.971 11.9431ZM27.971 11.9431C27.9427 11.9466 27.9167 11.9605 27.8982 11.9822C27.8796 12.0039 27.8699 12.0317 27.8709 12.0602C27.8719 12.0888 27.8836 12.1158 27.9036 12.1362C27.9236 12.1565 27.9505 12.1686 27.979 12.1701C28.0085 12.1689 28.0364 12.1563 28.057 12.1351C28.0777 12.1143 28.0895 12.0864 28.09 12.0571C28.0897 12.0416 28.0863 12.0262 28.08 12.0121C28.074 11.9979 28.0652 11.985 28.0543 11.9742C28.0433 11.9634 28.0303 11.9548 28.016 11.9491C28.0016 11.944 27.9862 11.9419 27.971 11.9431ZM24.197 12.2521C24.3551 12.2532 24.5112 12.2872 24.6555 12.3519C24.7997 12.4167 24.9288 12.5108 25.0347 12.6283C25.1405 12.7457 25.2207 12.884 25.2702 13.0341C25.3196 13.1843 25.3372 13.3431 25.3219 13.5005C25.3065 13.6579 25.2586 13.8103 25.181 13.9481C25.1035 14.0859 24.9981 14.206 24.8716 14.3008C24.745 14.3956 24.6001 14.463 24.4461 14.4987C24.2921 14.5344 24.1323 14.5376 23.977 14.5081C23.756 14.4647 23.5527 14.3568 23.393 14.1981C23.2337 14.0382 23.1254 13.8346 23.082 13.6131C23.0376 13.3925 23.0598 13.1638 23.1456 12.9559C23.2314 12.7479 23.377 12.5702 23.564 12.4451C23.7512 12.3196 23.9715 12.2524 24.197 12.2521ZM19.971 12.5061C19.9436 12.5106 19.9188 12.5249 19.9013 12.5463C19.8837 12.5678 19.8746 12.5949 19.8756 12.6226C19.8765 12.6503 19.8876 12.6767 19.9066 12.6968C19.9256 12.717 19.9514 12.7295 19.979 12.7321C20.0085 12.7309 20.0364 12.7183 20.057 12.6971C20.0777 12.6763 20.0895 12.6484 20.09 12.6191C20.0897 12.6036 20.0863 12.5882 20.08 12.5741C20.0743 12.5602 20.0657 12.5476 20.055 12.5371C20.0434 12.5267 20.0298 12.5189 20.015 12.5141C20.001 12.5085 19.986 12.5058 19.971 12.5061ZM27.971 12.5061C27.9436 12.5106 27.9188 12.5249 27.9013 12.5463C27.8837 12.5678 27.8746 12.5949 27.8756 12.6226C27.8765 12.6503 27.8876 12.6767 27.9066 12.6968C27.9256 12.717 27.9514 12.7295 27.979 12.7321C28.0085 12.7309 28.0364 12.7183 28.057 12.6971C28.0777 12.6763 28.0895 12.6484 28.09 12.6191C28.0897 12.6036 28.0863 12.5882 28.08 12.5741C28.0743 12.5602 28.0657 12.5476 28.055 12.5371C28.0434 12.5267 28.0298 12.5189 28.015 12.5141C28.001 12.5085 27.986 12.5058 27.971 12.5061ZM19.961 13.0681C19.9453 13.0701 19.9302 13.0754 19.9168 13.0838C19.9033 13.0921 19.8918 13.1033 19.8831 13.1165C19.8744 13.1297 19.8686 13.1446 19.8662 13.1602C19.8637 13.1759 19.8647 13.1919 19.869 13.2071C19.8742 13.2289 19.8856 13.2487 19.902 13.2641C19.9176 13.2793 19.9375 13.2894 19.959 13.2931C19.981 13.2971 20.003 13.2931 20.023 13.2831C20.0435 13.275 20.0612 13.2611 20.074 13.2431C20.0856 13.2254 20.0921 13.2049 20.0927 13.1837C20.0932 13.1625 20.0878 13.1417 20.0771 13.1234C20.0664 13.1052 20.0507 13.0903 20.032 13.0805C20.0132 13.0708 19.9921 13.0664 19.971 13.0681C19.9676 13.0679 19.9643 13.0679 19.961 13.0681ZM27.961 13.0681C27.9453 13.0701 27.9302 13.0754 27.9168 13.0838C27.9033 13.0921 27.8918 13.1033 27.8831 13.1165C27.8744 13.1297 27.8686 13.1446 27.8662 13.1602C27.8637 13.1759 27.8647 13.1919 27.869 13.2071C27.8741 13.2289 27.8856 13.2487 27.902 13.2641C27.9176 13.2793 27.9375 13.2894 27.959 13.2931C27.981 13.2971 28.003 13.2931 28.023 13.2831C28.0435 13.275 28.0612 13.2611 28.074 13.2431C28.0856 13.2254 28.0921 13.2049 28.0927 13.1837C28.0932 13.1625 28.0878 13.1417 28.0771 13.1234C28.0664 13.1052 28.0507 13.0903 28.032 13.0805C28.0132 13.0708 27.9921 13.0664 27.971 13.0681C27.9676 13.0679 27.9643 13.0679 27.961 13.0681ZM19.971 13.6311C19.949 13.6326 19.9279 13.6404 19.9102 13.6535C19.8925 13.6666 19.8789 13.6845 19.871 13.7051C19.8659 13.719 19.8638 13.7339 19.8648 13.7487C19.8659 13.7635 19.87 13.778 19.877 13.7911C19.8862 13.8113 19.9014 13.8283 19.9205 13.8397C19.9396 13.8511 19.9618 13.8565 19.984 13.8551C19.9986 13.8544 20.013 13.8507 20.0262 13.8444C20.0394 13.838 20.0513 13.8291 20.061 13.8181C20.0809 13.7957 20.0913 13.7664 20.0898 13.7364C20.0883 13.7065 20.0751 13.6783 20.053 13.6581C20.0303 13.6386 20.0008 13.6289 19.971 13.6311ZM27.971 13.6311C27.949 13.6326 27.9279 13.6404 27.9102 13.6535C27.8925 13.6666 27.8789 13.6845 27.871 13.7051C27.8659 13.719 27.8638 13.7339 27.8648 13.7487C27.8659 13.7635 27.87 13.778 27.877 13.7911C27.8862 13.8113 27.9014 13.8283 27.9205 13.8397C27.9396 13.8511 27.9618 13.8565 27.984 13.8551C27.9986 13.8544 28.013 13.8507 28.0262 13.8444C28.0394 13.838 28.0513 13.8291 28.061 13.8181C28.0809 13.7957 28.0913 13.7664 28.0898 13.7364C28.0883 13.7065 28.0751 13.6783 28.053 13.6581C28.0303 13.6386 28.0008 13.6289 27.971 13.6311ZM19.959 14.1931C19.9482 14.1949 19.9378 14.1983 19.928 14.2031C19.9153 14.2098 19.9041 14.219 19.895 14.2301C19.8845 14.241 19.8764 14.2539 19.871 14.2681C19.8661 14.2821 19.8642 14.2969 19.8652 14.3117C19.8662 14.3265 19.8702 14.3409 19.877 14.3541C19.8829 14.3673 19.8914 14.3792 19.902 14.3891C19.913 14.3991 19.927 14.4051 19.942 14.4101C19.9626 14.4173 19.985 14.4183 20.0062 14.4128C20.0274 14.4072 20.0465 14.3955 20.061 14.3791C20.0767 14.3629 20.087 14.3423 20.0906 14.32C20.0942 14.2977 20.0908 14.2749 20.081 14.2546C20.0712 14.2343 20.0554 14.2175 20.0357 14.2065C20.016 14.1955 19.9934 14.1908 19.971 14.1931C19.967 14.1929 19.963 14.1929 19.959 14.1931ZM27.959 14.1931C27.9482 14.1949 27.9378 14.1983 27.928 14.2031C27.9153 14.2098 27.9041 14.219 27.895 14.2301C27.8845 14.241 27.8764 14.2539 27.871 14.2681C27.8661 14.2821 27.8642 14.2969 27.8652 14.3117C27.8662 14.3265 27.8702 14.3409 27.877 14.3541C27.8829 14.3673 27.8914 14.3792 27.902 14.3891C27.913 14.3991 27.927 14.4051 27.942 14.4101C27.9626 14.4173 27.985 14.4183 28.0062 14.4128C28.0274 14.4072 28.0465 14.3955 28.061 14.3791C28.0767 14.3629 28.087 14.3423 28.0906 14.32C28.0942 14.2977 28.0908 14.2749 28.081 14.2546C28.0712 14.2343 28.0554 14.2175 28.0357 14.2065C28.016 14.1955 27.9934 14.1908 27.971 14.1931C27.967 14.1929 27.963 14.1929 27.959 14.1931ZM16.604 14.7251C16.3907 14.7197 16.1785 14.7571 15.9799 14.8351C15.7813 14.913 15.6003 15.0299 15.4475 15.1789C15.2948 15.3278 15.1734 15.5058 15.0906 15.7024C15.0077 15.899 14.965 16.1102 14.965 16.3236C14.965 16.5369 15.0077 16.7481 15.0906 16.9447C15.1734 17.1413 15.2948 17.3193 15.4475 17.4683C15.6003 17.6173 15.7813 17.7341 15.9799 17.8121C16.1785 17.89 16.3907 17.9274 16.604 17.9221C17.021 17.9116 17.4174 17.7387 17.7087 17.44C18 17.1414 18.163 16.7407 18.163 16.3236C18.163 15.9064 18 15.5058 17.7087 15.2071C17.4174 14.9085 17.021 14.7355 16.604 14.7251ZM31.354 14.7251C31.1407 14.7197 30.9285 14.7571 30.7299 14.8351C30.5313 14.913 30.3503 15.0299 30.1975 15.1789C30.0448 15.3278 29.9234 15.5058 29.8406 15.7024C29.7577 15.899 29.715 16.1102 29.715 16.3236C29.715 16.5369 29.7577 16.7481 29.8406 16.9447C29.9234 17.1413 30.0448 17.3193 30.1975 17.4683C30.3503 17.6173 30.5313 17.7341 30.7299 17.8121C30.9285 17.89 31.1407 17.9274 31.354 17.9221C31.771 17.9116 32.1674 17.7387 32.4587 17.44C32.75 17.1414 32.913 16.7407 32.913 16.3236C32.913 15.9064 32.75 15.5058 32.4587 15.2071C32.1674 14.9085 31.771 14.7355 31.354 14.7251ZM19.959 14.7551C19.9328 14.7593 19.909 14.7727 19.8918 14.7929C19.8746 14.813 19.8651 14.8386 19.865 14.8651C19.865 14.8881 19.872 14.9121 19.885 14.9321C19.8978 14.9504 19.916 14.9643 19.937 14.9721C19.9529 14.9789 19.9703 14.9819 19.9876 14.9808C20.0049 14.9797 20.0217 14.9744 20.0367 14.9656C20.0516 14.9567 20.0642 14.9444 20.0735 14.9297C20.0827 14.915 20.0884 14.8984 20.09 14.8811C20.093 14.858 20.0888 14.8346 20.078 14.8141C20.0667 14.7941 20.0496 14.778 20.029 14.7681C20.0087 14.7574 19.9857 14.7532 19.963 14.7561H19.959V14.7551ZM27.959 14.7551C27.9328 14.7593 27.909 14.7727 27.8918 14.7929C27.8746 14.813 27.8651 14.8386 27.865 14.8651C27.865 14.8881 27.872 14.9121 27.885 14.9321C27.8978 14.9504 27.916 14.9643 27.937 14.9721C27.9529 14.9789 27.9703 14.9819 27.9876 14.9808C28.0049 14.9797 28.0217 14.9744 28.0367 14.9656C28.0516 14.9567 28.0642 14.9444 28.0735 14.9297C28.0827 14.915 28.0884 14.8984 28.09 14.8811C28.093 14.858 28.0888 14.8346 28.078 14.8141C28.0667 14.7941 28.0496 14.778 28.029 14.7681C28.0087 14.7574 27.9857 14.7532 27.963 14.7561H27.959V14.7551ZM16.604 15.1851C16.764 15.1835 16.9226 15.2156 17.0694 15.2793C17.2162 15.3431 17.3479 15.437 17.456 15.555C17.5641 15.673 17.6462 15.8125 17.6968 15.9643C17.7474 16.1161 17.7656 16.2769 17.75 16.4362C17.7344 16.5954 17.6854 16.7497 17.6062 16.8888C17.5271 17.0279 17.4196 17.1487 17.2906 17.2435C17.1617 17.3383 17.0142 17.4049 16.8578 17.4389C16.7014 17.473 16.5397 17.4737 16.383 17.4411C16.1621 17.3973 15.9591 17.289 15.7998 17.1299C15.6405 16.9708 15.532 16.7679 15.488 16.5471C15.4552 16.382 15.4594 16.2117 15.5002 16.0485C15.5411 15.8852 15.6177 15.733 15.7244 15.6029C15.8311 15.4727 15.9653 15.3679 16.1174 15.2958C16.2695 15.2237 16.4357 15.1862 16.604 15.1861V15.1851ZM31.354 15.1851C31.514 15.1835 31.6726 15.2156 31.8194 15.2793C31.9662 15.3431 32.0979 15.437 32.206 15.555C32.3141 15.673 32.3962 15.8125 32.4468 15.9643C32.4974 16.1161 32.5156 16.2769 32.5 16.4362C32.4844 16.5954 32.4354 16.7497 32.3562 16.8888C32.2771 17.0279 32.1696 17.1487 32.0406 17.2435C31.9117 17.3383 31.7642 17.4049 31.6078 17.4389C31.4514 17.473 31.2896 17.4737 31.133 17.4411C30.9121 17.3973 30.7091 17.289 30.5498 17.1299C30.3905 16.9708 30.282 16.7679 30.238 16.5471C30.2052 16.382 30.2094 16.2117 30.2502 16.0485C30.2911 15.8852 30.3677 15.733 30.4744 15.6029C30.5811 15.4727 30.7153 15.3679 30.8674 15.2958C31.0195 15.2237 31.1857 15.1862 31.354 15.1861V15.1851ZM19.959 15.3181C19.9379 15.3215 19.9182 15.3308 19.9023 15.345C19.8864 15.3591 19.8748 15.3776 19.869 15.3981C19.8629 15.4186 19.8629 15.4405 19.869 15.4611C19.8756 15.4813 19.8877 15.4993 19.9039 15.5131C19.9202 15.5269 19.9399 15.5359 19.961 15.5391C19.9822 15.542 20.0037 15.5389 20.0232 15.53C20.0427 15.5212 20.0592 15.507 20.071 15.4891C20.0831 15.4714 20.0897 15.4505 20.09 15.4291C20.0892 15.4 20.0772 15.3723 20.0566 15.3518C20.0359 15.3313 20.0081 15.3196 19.979 15.3191C19.9783 15.3191 19.9776 15.3191 19.977 15.3191C19.9763 15.3191 19.9756 15.3191 19.975 15.3191C19.973 15.3188 19.971 15.3188 19.969 15.3191C19.9683 15.3191 19.9676 15.3191 19.967 15.3191C19.965 15.3188 19.963 15.3188 19.961 15.3191H19.959V15.3181ZM27.959 15.3181C27.9379 15.3215 27.9182 15.3308 27.9023 15.345C27.8864 15.3591 27.8748 15.3776 27.869 15.3981C27.8629 15.4186 27.8629 15.4405 27.869 15.4611C27.8756 15.4813 27.8877 15.4993 27.9039 15.5131C27.9202 15.5269 27.9399 15.5359 27.961 15.5391C27.9822 15.542 28.0037 15.5389 28.0232 15.53C28.0427 15.5212 28.0592 15.507 28.071 15.4891C28.0831 15.4714 28.0897 15.4505 28.09 15.4291C28.0892 15.4 28.0772 15.3723 28.0566 15.3518C28.0359 15.3313 28.0081 15.3196 27.979 15.3191C27.9783 15.3191 27.9776 15.3191 27.977 15.3191C27.9763 15.3191 27.9756 15.3191 27.975 15.3191C27.973 15.3188 27.971 15.3188 27.969 15.3191C27.9683 15.3191 27.9676 15.3191 27.967 15.3191C27.965 15.3188 27.963 15.3188 27.961 15.3191H27.959V15.3181ZM19.969 15.8771C19.9579 15.8788 19.9471 15.8822 19.937 15.8871C19.9232 15.8925 19.9106 15.9006 19.9 15.9109C19.8893 15.9212 19.8808 15.9335 19.875 15.9471C19.8695 15.9607 19.8668 15.9754 19.867 15.9901C19.867 16.0051 19.869 16.0201 19.875 16.0331C19.8839 16.0534 19.8984 16.0708 19.9168 16.0832C19.9352 16.0956 19.9568 16.1025 19.979 16.1031C20.009 16.1031 20.037 16.0911 20.059 16.0701C20.0799 16.0492 20.0918 16.021 20.0922 15.9915C20.0926 15.962 20.0814 15.9335 20.061 15.9121C20.0397 15.891 20.0109 15.8791 19.981 15.8791V15.8771C19.977 15.8769 19.973 15.8769 19.969 15.8771ZM27.969 15.8771C27.9579 15.8788 27.9471 15.8822 27.937 15.8871C27.9232 15.8925 27.9106 15.9006 27.9 15.9109C27.8893 15.9212 27.8808 15.9335 27.875 15.9471C27.8695 15.9607 27.8668 15.9754 27.867 15.9901C27.867 16.0051 27.869 16.0201 27.875 16.0331C27.8809 16.0469 27.8894 16.0594 27.9 16.0701C27.9212 16.09 27.9489 16.1017 27.978 16.1031C28.008 16.1031 28.037 16.0911 28.058 16.0701C28.079 16.0494 28.0911 16.0212 28.0917 15.9917C28.0922 15.9622 28.0812 15.9336 28.061 15.9121C28.0397 15.891 28.0109 15.8791 27.981 15.8791V15.8771C27.977 15.8769 27.973 15.8769 27.969 15.8771ZM19.971 16.4411C19.942 16.443 19.9148 16.4558 19.895 16.4771C19.8754 16.4983 19.8646 16.5262 19.865 16.5551C19.865 16.5771 19.872 16.5991 19.885 16.6171C19.8979 16.6353 19.916 16.6492 19.937 16.6571C19.958 16.6631 19.98 16.6671 20.002 16.6621C20.0239 16.6571 20.0437 16.6456 20.059 16.6291C20.0746 16.6128 20.085 16.592 20.0885 16.5697C20.0921 16.5474 20.0888 16.5245 20.079 16.5041C20.0688 16.4841 20.0527 16.4677 20.033 16.4571C20.0144 16.4456 19.9928 16.44 19.971 16.4411ZM27.971 16.4411C27.942 16.443 27.9148 16.4558 27.895 16.4771C27.8754 16.4983 27.8646 16.5262 27.865 16.5551C27.865 16.5771 27.872 16.5991 27.885 16.6171C27.8979 16.6353 27.916 16.6492 27.937 16.6571C27.958 16.6631 27.98 16.6671 28.002 16.6621C28.0239 16.6571 28.0437 16.6456 28.059 16.6291C28.0746 16.6128 28.085 16.592 28.0885 16.5697C28.0921 16.5474 28.0888 16.5245 28.079 16.5041C28.0688 16.4841 28.0527 16.4677 28.033 16.4571C28.0144 16.4456 27.9928 16.44 27.971 16.4411ZM19.971 17.0041C19.9421 17.0057 19.915 17.0182 19.895 17.0391C19.8754 17.0603 19.8646 17.0882 19.865 17.1171C19.8635 17.1327 19.8653 17.1485 19.8703 17.1635C19.8753 17.1784 19.8833 17.1921 19.8939 17.2038C19.9045 17.2154 19.9174 17.2247 19.9318 17.231C19.9462 17.2374 19.9617 17.2407 19.9775 17.2407C19.9932 17.2407 20.0088 17.2374 20.0232 17.231C20.0376 17.2247 20.0505 17.2154 20.061 17.2038C20.0716 17.1921 20.0797 17.1784 20.0847 17.1635C20.0896 17.1485 20.0915 17.1327 20.09 17.1171C20.0897 17.1016 20.0863 17.0862 20.08 17.0721C20.0677 17.0438 20.0446 17.0215 20.016 17.0101C20.0016 17.005 19.9862 17.0029 19.971 17.0041ZM27.971 17.0041C27.9421 17.0057 27.915 17.0182 27.895 17.0391C27.8754 17.0603 27.8646 17.0882 27.865 17.1171C27.8635 17.1327 27.8653 17.1485 27.8703 17.1635C27.8753 17.1784 27.8833 17.1921 27.8939 17.2038C27.9045 17.2154 27.9174 17.2247 27.9318 17.231C27.9462 17.2374 27.9617 17.2407 27.9775 17.2407C27.9932 17.2407 28.0088 17.2374 28.0232 17.231C28.0375 17.2247 28.0505 17.2154 28.061 17.2038C28.0716 17.1921 28.0797 17.1784 28.0847 17.1635C28.0896 17.1485 28.0914 17.1327 28.09 17.1171C28.0897 17.1016 28.0863 17.0862 28.08 17.0721C28.0677 17.0438 28.0446 17.0215 28.016 17.0101C28.0016 17.005 27.9862 17.0029 27.971 17.0041ZM24.197 17.0251C23.9834 17.0197 23.771 17.0571 23.5721 17.1351C23.3732 17.2131 23.192 17.33 23.039 17.4791C22.8867 17.6286 22.7656 17.8069 22.6829 18.0037C22.6001 18.2004 22.5573 18.4116 22.557 18.6251C22.5572 18.9463 22.6542 19.2601 22.8352 19.5255C23.0162 19.7909 23.273 19.9956 23.572 20.1131C23.7895 20.1989 24.0232 20.2359 24.2566 20.2216C24.49 20.2074 24.7174 20.1421 24.9228 20.0305C25.1283 19.9188 25.3068 19.7635 25.4457 19.5755C25.5847 19.3874 25.6807 19.1712 25.7271 18.942C25.7735 18.7128 25.7691 18.4763 25.7142 18.249C25.6593 18.0217 25.5553 17.8092 25.4094 17.6265C25.2635 17.4437 25.0794 17.2952 24.8699 17.1913C24.6604 17.0874 24.4307 17.0306 24.197 17.0251ZM24.197 17.4711C24.5005 17.4711 24.7916 17.5917 25.0063 17.8063C25.2209 18.0209 25.3415 18.312 25.3415 18.6156C25.3415 18.9191 25.2209 19.2102 25.0063 19.4249C24.7916 19.6395 24.5005 19.7601 24.197 19.7601C23.8933 19.7601 23.6021 19.6394 23.3873 19.4247C23.1726 19.21 23.052 18.9188 23.052 18.6151C23.052 18.3114 23.1726 18.0202 23.3873 17.8054C23.6021 17.5907 23.8933 17.4701 24.197 17.4701V17.4711ZM19.961 17.5661C19.9351 17.5704 19.9117 17.5839 19.895 17.6041C19.8797 17.6203 19.8696 17.6409 19.8663 17.6629C19.8629 17.685 19.8663 17.7076 19.8761 17.7277C19.8859 17.7477 19.9015 17.7644 19.921 17.7753C19.9404 17.7863 19.9627 17.7911 19.985 17.7891C19.998 17.7891 20.015 17.7861 20.027 17.7791C20.04 17.7724 20.0515 17.7632 20.061 17.7521C20.071 17.7414 20.0788 17.7288 20.084 17.7151C20.0888 17.7011 20.0908 17.6862 20.0897 17.6715C20.0887 17.6567 20.0847 17.6423 20.078 17.6291C20.072 17.6159 20.0635 17.604 20.053 17.5941C20.0412 17.5841 20.0276 17.5767 20.013 17.5721C19.9995 17.5674 19.9852 17.5653 19.971 17.5661C19.9676 17.5659 19.9643 17.5659 19.961 17.5661ZM27.961 17.5661C27.9351 17.5704 27.9117 17.5839 27.895 17.6041C27.8797 17.6203 27.8696 17.6409 27.8663 17.6629C27.8629 17.685 27.8663 17.7076 27.8761 17.7277C27.8859 17.7477 27.9015 17.7644 27.921 17.7753C27.9404 17.7863 27.9627 17.7911 27.985 17.7891C27.998 17.7891 28.015 17.7861 28.027 17.7791C28.04 17.7724 28.0515 17.7632 28.061 17.7521C28.071 17.7414 28.0788 17.7288 28.084 17.7151C28.0888 17.7011 28.0908 17.6862 28.0897 17.6715C28.0887 17.6567 28.0847 17.6423 28.078 17.6291C28.072 17.6159 28.0635 17.604 28.053 17.5941C28.0412 17.5841 28.0276 17.5767 28.013 17.5721C27.9995 17.5674 27.9852 17.5653 27.971 17.5661C27.9676 17.5659 27.9643 17.5659 27.961 17.5661ZM19.971 18.1291C19.949 18.1306 19.9279 18.1384 19.9102 18.1515C19.8925 18.1646 19.8789 18.1825 19.871 18.2031C19.8659 18.217 19.8638 18.2319 19.8648 18.2467C19.8659 18.2615 19.87 18.276 19.877 18.2891C19.8861 18.3095 19.9012 18.3267 19.9203 18.3383C19.9394 18.3499 19.9616 18.3554 19.984 18.3541C19.9987 18.3532 20.0131 18.3494 20.0263 18.3429C20.0396 18.3364 20.0513 18.3273 20.061 18.3161C20.0809 18.2937 20.0913 18.2644 20.0898 18.2344C20.0883 18.2045 20.0751 18.1763 20.053 18.1561C20.0303 18.1366 20.0008 18.1269 19.971 18.1291ZM27.971 18.1291C27.949 18.1306 27.9279 18.1384 27.9102 18.1515C27.8925 18.1646 27.8789 18.1825 27.871 18.2031C27.8659 18.217 27.8638 18.2319 27.8648 18.2467C27.8659 18.2615 27.87 18.276 27.877 18.2891C27.8861 18.3095 27.9012 18.3267 27.9203 18.3383C27.9394 18.3499 27.9616 18.3554 27.984 18.3541C27.9987 18.3532 28.0131 18.3494 28.0263 18.3429C28.0396 18.3364 28.0513 18.3273 28.061 18.3161C28.0809 18.2937 28.0913 18.2644 28.0898 18.2344C28.0883 18.2045 28.0751 18.1763 28.053 18.1561C28.0303 18.1366 28.0008 18.1269 27.971 18.1291ZM19.971 18.6911C19.9428 18.6943 19.9168 18.7081 19.8983 18.7296C19.8798 18.751 19.87 18.7787 19.871 18.8071C19.8722 18.8356 19.884 18.8627 19.904 18.8831C19.924 18.9031 19.95 18.9151 19.979 18.9161C20.0086 18.9152 20.0366 18.9026 20.057 18.8811C20.0772 18.8586 20.0879 18.8293 20.087 18.7991C20.0867 18.7845 20.0836 18.7701 20.0777 18.7567C20.0719 18.7433 20.0635 18.7312 20.053 18.7211C20.0306 18.7007 20.0012 18.6899 19.971 18.6911ZM27.971 18.6911C27.9428 18.6943 27.9168 18.7081 27.8983 18.7296C27.8798 18.751 27.87 18.7787 27.871 18.8071C27.8722 18.8356 27.884 18.8627 27.904 18.8831C27.924 18.9031 27.95 18.9151 27.979 18.9161C28.0086 18.9152 28.0366 18.9026 28.057 18.8811C28.0772 18.8586 28.0879 18.8293 28.087 18.7991C28.0867 18.7845 28.0836 18.7701 28.0777 18.7567C28.0719 18.7433 28.0635 18.7312 28.053 18.7211C28.0306 18.7007 28.0012 18.6899 27.971 18.6911ZM19.959 19.2541C19.9327 19.2581 19.9088 19.2715 19.8916 19.2917C19.8743 19.3118 19.8649 19.3375 19.865 19.3641C19.865 19.3841 19.871 19.4071 19.883 19.4261C19.8947 19.445 19.9117 19.4599 19.932 19.4691C19.9524 19.4778 19.9749 19.4803 19.9968 19.4764C20.0186 19.4725 20.0388 19.4623 20.055 19.4471C20.0707 19.4313 20.0816 19.4113 20.0864 19.3895C20.0912 19.3677 20.0897 19.345 20.082 19.3241C20.0735 19.3036 20.0593 19.2861 20.041 19.2736C20.0227 19.2612 20.0011 19.2544 19.979 19.2541H19.959ZM27.959 19.2541C27.9327 19.2581 27.9088 19.2715 27.8916 19.2917C27.8743 19.3118 27.8649 19.3375 27.865 19.3641C27.865 19.3841 27.871 19.4071 27.883 19.4261C27.8947 19.445 27.9117 19.4599 27.932 19.4691C27.9524 19.4778 27.9749 19.4803 27.9968 19.4764C28.0186 19.4725 28.0388 19.4623 28.055 19.4471C28.0707 19.4313 28.0816 19.4113 28.0864 19.3895C28.0912 19.3677 28.0897 19.345 28.082 19.3241C28.0735 19.3036 28.0593 19.2861 28.041 19.2736C28.0227 19.2612 28.0011 19.2544 27.979 19.2541H27.959ZM19.98 19.8141C19.9652 19.8138 19.9505 19.8164 19.9367 19.8219C19.923 19.8274 19.9105 19.8356 19.9 19.8461C19.879 19.8674 19.8672 19.8961 19.8672 19.9261C19.8672 19.956 19.879 19.9848 19.9 20.0061C19.9155 20.0217 19.9352 20.0323 19.9567 20.0368C19.9782 20.0412 20.0006 20.0392 20.021 20.0311C20.0352 20.0253 20.0481 20.0168 20.059 20.0061C20.069 19.9961 20.079 19.9841 20.084 19.9711C20.0895 19.9574 20.0922 19.9428 20.092 19.9281C20.0925 19.9055 20.0862 19.8833 20.0739 19.8644C20.0616 19.8455 20.0438 19.8307 20.023 19.8221C20.0093 19.8166 19.9947 19.8138 19.98 19.8141ZM27.98 19.8141C27.9652 19.8138 27.9505 19.8164 27.9367 19.8219C27.923 19.8274 27.9105 19.8356 27.9 19.8461C27.879 19.8674 27.8672 19.8961 27.8672 19.9261C27.8672 19.956 27.879 19.9848 27.9 20.0061C27.9155 20.0217 27.9352 20.0323 27.9567 20.0368C27.9782 20.0412 28.0006 20.0392 28.021 20.0311C28.0352 20.0253 28.0481 20.0168 28.059 20.0061C28.069 19.9961 28.079 19.9841 28.084 19.9711C28.0895 19.9574 28.0922 19.9428 28.092 19.9281C28.0925 19.9055 28.0862 19.8833 28.0739 19.8644C28.0616 19.8455 28.0438 19.8307 28.023 19.8221C28.0093 19.8166 27.9947 19.8138 27.98 19.8141ZM16.604 19.9591C16.3893 19.9518 16.1753 19.9876 15.9747 20.0644C15.7741 20.1411 15.5909 20.2573 15.436 20.4061C15.2023 20.6307 15.0426 20.9211 14.9779 21.2387C14.9133 21.5563 14.9468 21.886 15.074 22.1841C15.1769 22.4276 15.3387 22.6417 15.5447 22.8073C15.7508 22.9729 15.9947 23.0848 16.2547 23.133C16.5146 23.1812 16.7824 23.1641 17.0342 23.0833C17.2859 23.0025 17.5136 22.8605 17.697 22.6701C17.9119 22.4477 18.0578 22.1679 18.117 21.8643C18.1762 21.5608 18.1462 21.2466 18.0305 20.9598C17.9149 20.6729 17.7186 20.4258 17.4654 20.2482C17.2122 20.0706 16.913 19.9702 16.604 19.9591ZM31.354 19.9591C31.1393 19.9518 30.9253 19.9876 30.7247 20.0644C30.5241 20.1411 30.3409 20.2573 30.186 20.4061C29.9523 20.6307 29.7926 20.9211 29.7279 21.2387C29.6633 21.5563 29.6968 21.886 29.824 22.1841C29.9269 22.4276 30.0887 22.6417 30.2947 22.8073C30.5008 22.9729 30.7447 23.0848 31.0047 23.133C31.2646 23.1812 31.5324 23.1641 31.7842 23.0833C32.0359 23.0025 32.2636 22.8605 32.447 22.6701C32.6619 22.4477 32.8078 22.1679 32.867 21.8643C32.9262 21.5608 32.8962 21.2466 32.7805 20.9598C32.6649 20.6729 32.4686 20.4258 32.2154 20.2482C31.9622 20.0706 31.663 19.9702 31.354 19.9591ZM19.971 20.3771C19.9421 20.3786 19.9149 20.3911 19.895 20.4121C19.8753 20.4332 19.8645 20.4612 19.865 20.4901C19.865 20.5521 19.915 20.6031 19.979 20.6021C20.009 20.6018 20.0378 20.5897 20.0589 20.5683C20.0801 20.547 20.092 20.5181 20.092 20.4881C20.0919 20.4735 20.0889 20.4592 20.0833 20.4458C20.0776 20.4324 20.0694 20.4203 20.059 20.4101C20.0377 20.389 20.0089 20.3771 19.979 20.3771H19.971ZM27.971 20.3771C27.9421 20.3786 27.9149 20.3911 27.895 20.4121C27.8753 20.4332 27.8645 20.4612 27.865 20.4901C27.865 20.5521 27.915 20.6031 27.979 20.6021C28.009 20.6018 28.0378 20.5897 28.0589 20.5683C28.0801 20.547 28.092 20.5181 28.092 20.4881C28.0919 20.4735 28.0889 20.4592 28.0833 20.4458C28.0776 20.4324 28.0694 20.4203 28.059 20.4101C28.0377 20.389 28.0089 20.3771 27.979 20.3771H27.971ZM16.557 20.4201C16.5726 20.4198 16.5883 20.4198 16.604 20.4201C16.7537 20.42 16.9019 20.4494 17.0403 20.5067C17.1786 20.5639 17.3043 20.6478 17.4102 20.7536C17.5161 20.8594 17.6002 20.9851 17.6575 21.1234C17.7149 21.2616 17.7444 21.4099 17.7445 21.5596C17.7445 21.7093 17.7151 21.8575 17.6579 21.9959C17.6007 22.1342 17.5167 22.2599 17.4109 22.3658C17.3051 22.4717 17.1795 22.5558 17.0412 22.6131C16.9029 22.6705 16.7547 22.7 16.605 22.7001C16.3026 22.7064 16.0101 22.5924 15.7918 22.3832C15.5735 22.1739 15.4473 21.8864 15.441 21.5841C15.4346 21.2817 15.5486 20.9892 15.7579 20.7709C15.9672 20.5527 16.2546 20.4264 16.557 20.4201ZM31.307 20.4201C31.3226 20.4198 31.3383 20.4198 31.354 20.4201C31.5037 20.42 31.6519 20.4494 31.7903 20.5067C31.9286 20.5639 32.0543 20.6478 32.1602 20.7536C32.2661 20.8594 32.3502 20.9851 32.4075 21.1234C32.4649 21.2616 32.4944 21.4099 32.4945 21.5596C32.4945 21.7093 32.4651 21.8575 32.4079 21.9959C32.3507 22.1342 32.2667 22.2599 32.1609 22.3658C32.0551 22.4717 31.9295 22.5558 31.7912 22.6131C31.6529 22.6705 31.5047 22.7 31.355 22.7001C31.2053 22.7032 31.0564 22.6769 30.9169 22.6225C30.7774 22.5681 30.6499 22.4868 30.5418 22.3832C30.4338 22.2795 30.3471 22.1556 30.2869 22.0185C30.2267 21.8814 30.1941 21.7338 30.191 21.5841C30.1878 21.4344 30.2142 21.2855 30.2686 21.146C30.3229 21.0065 30.4043 20.879 30.5079 20.7709C30.6115 20.6629 30.7354 20.5762 30.8725 20.516C31.0096 20.4558 31.1573 20.4232 31.307 20.4201ZM19.971 20.9401C19.9566 20.9406 19.9425 20.944 19.9295 20.95C19.9164 20.956 19.9047 20.9645 19.895 20.9751C19.8743 20.9966 19.8629 21.0253 19.863 21.0551C19.8636 21.0837 19.8755 21.111 19.896 21.1311C19.917 21.1511 19.946 21.1641 19.975 21.1641C20.0042 21.1633 20.0321 21.1515 20.053 21.1311C20.0742 21.1113 20.0868 21.084 20.088 21.0551C20.0885 21.0252 20.0773 20.9963 20.0567 20.9746C20.0361 20.9529 20.0079 20.9401 19.978 20.9391H19.971V20.9401ZM27.971 20.9401C27.9566 20.9406 27.9425 20.944 27.9295 20.95C27.9164 20.956 27.9047 20.9645 27.895 20.9751C27.8743 20.9966 27.8629 21.0253 27.863 21.0551C27.8636 21.0837 27.8755 21.111 27.896 21.1311C27.917 21.1511 27.946 21.1641 27.975 21.1641C28.0042 21.1633 28.0321 21.1515 28.053 21.1311C28.0742 21.1113 28.0868 21.084 28.088 21.0551C28.0885 21.0252 28.0773 20.9963 28.0567 20.9746C28.0361 20.9529 28.0079 20.9401 27.978 20.9391H27.971V20.9401ZM19.971 21.5021C19.9421 21.5036 19.9149 21.5161 19.895 21.5371C19.8753 21.5582 19.8645 21.5862 19.865 21.6151C19.8635 21.6307 19.8653 21.6465 19.8703 21.6615C19.8753 21.6764 19.8833 21.6901 19.8939 21.7018C19.9045 21.7134 19.9174 21.7227 19.9318 21.729C19.9462 21.7354 19.9617 21.7387 19.9775 21.7387C19.9932 21.7387 20.0088 21.7354 20.0232 21.729C20.0376 21.7227 20.0505 21.7134 20.061 21.7018C20.0716 21.6901 20.0797 21.6764 20.0847 21.6615C20.0896 21.6465 20.0915 21.6307 20.09 21.6151C20.0898 21.5851 20.078 21.5564 20.057 21.5351C20.0364 21.5142 20.0083 21.5023 19.979 21.5021H19.971ZM27.971 21.5021C27.9421 21.5036 27.9149 21.5161 27.895 21.5371C27.8753 21.5582 27.8645 21.5862 27.865 21.6151C27.8635 21.6307 27.8653 21.6465 27.8703 21.6615C27.8753 21.6764 27.8833 21.6901 27.8939 21.7018C27.9045 21.7134 27.9174 21.7227 27.9318 21.729C27.9462 21.7354 27.9617 21.7387 27.9775 21.7387C27.9932 21.7387 28.0088 21.7354 28.0232 21.729C28.0375 21.7227 28.0505 21.7134 28.061 21.7018C28.0716 21.6901 28.0797 21.6764 28.0847 21.6615C28.0896 21.6465 28.0914 21.6307 28.09 21.6151C28.0898 21.5851 28.078 21.5564 28.057 21.5351C28.0364 21.5142 28.0083 21.5023 27.979 21.5021H27.971ZM19.959 22.0641C19.9482 22.0659 19.9378 22.0693 19.928 22.0741C19.9152 22.0811 19.904 22.0906 19.895 22.1021C19.8795 22.1185 19.8695 22.1394 19.8662 22.1617C19.863 22.1841 19.8668 22.2069 19.877 22.2271C19.8904 22.2532 19.9133 22.2733 19.941 22.2831C19.9621 22.2905 19.9849 22.2915 20.0066 22.2859C20.0283 22.2804 20.0479 22.2687 20.063 22.2521C20.0825 22.2294 20.0922 22.1999 20.09 22.1701C20.0884 22.1402 20.0751 22.1122 20.053 22.0921C20.0418 22.0822 20.0288 22.0747 20.0148 22.0699C20.0007 22.0651 19.9858 22.0631 19.971 22.0641C19.967 22.0639 19.963 22.0639 19.959 22.0641ZM27.959 22.0641C27.9482 22.0659 27.9378 22.0693 27.928 22.0741C27.9152 22.0811 27.904 22.0906 27.895 22.1021C27.8795 22.1185 27.8695 22.1394 27.8662 22.1617C27.863 22.1841 27.8668 22.2069 27.877 22.2271C27.8904 22.2532 27.9133 22.2733 27.941 22.2831C27.9621 22.2905 27.9849 22.2915 28.0066 22.2859C28.0283 22.2804 28.0479 22.2687 28.063 22.2521C28.0825 22.2294 28.0922 22.1999 28.09 22.1701C28.0884 22.1402 28.0751 22.1122 28.053 22.0921C28.0418 22.0822 28.0288 22.0747 28.0148 22.0699C28.0007 22.0651 27.9858 22.0631 27.971 22.0641C27.967 22.0639 27.963 22.0639 27.959 22.0641ZM24.197 22.2601C23.9867 22.2597 23.7785 22.3008 23.5842 22.3811C23.3899 22.4613 23.2134 22.5792 23.0647 22.7278C22.9161 22.8765 22.7982 23.053 22.718 23.2473C22.6377 23.4416 22.5966 23.6499 22.597 23.8601C22.597 24.1765 22.6908 24.4859 22.8666 24.749C23.0424 25.0121 23.2923 25.2172 23.5847 25.3383C23.877 25.4594 24.1987 25.4911 24.5091 25.4293C24.8195 25.3676 25.1046 25.2152 25.3283 24.9914C25.5521 24.7677 25.7045 24.4826 25.7662 24.1722C25.828 23.8619 25.7963 23.5401 25.6752 23.2478C25.5541 22.9554 25.349 22.7055 25.0859 22.5297C24.8228 22.3539 24.5134 22.2601 24.197 22.2601ZM19.971 22.6271C19.9566 22.6283 19.9427 22.6323 19.93 22.6391C19.9165 22.6453 19.9044 22.6541 19.8944 22.6651C19.8844 22.6761 19.8767 22.6889 19.8718 22.7029C19.8669 22.7169 19.8648 22.7317 19.8657 22.7465C19.8666 22.7613 19.8704 22.7758 19.877 22.7891C19.8837 22.8017 19.8929 22.8129 19.904 22.8221C19.915 22.8321 19.928 22.8411 19.941 22.8461C19.9548 22.8509 19.9694 22.853 19.984 22.8521C20.0142 22.8495 20.0422 22.8351 20.062 22.8121C20.0811 22.7896 20.0907 22.7605 20.0889 22.7311C20.087 22.7016 20.0738 22.674 20.052 22.6541C20.0295 22.6348 20.0005 22.6251 19.971 22.6271ZM27.971 22.6271C27.9566 22.6283 27.9427 22.6323 27.93 22.6391C27.9165 22.6453 27.9044 22.6541 27.8944 22.6651C27.8844 22.6761 27.8767 22.6889 27.8718 22.7029C27.8669 22.7169 27.8648 22.7317 27.8657 22.7465C27.8666 22.7613 27.8704 22.7758 27.877 22.7891C27.8837 22.8017 27.8929 22.8129 27.904 22.8221C27.915 22.8321 27.928 22.8411 27.941 22.8461C27.9548 22.8509 27.9694 22.853 27.984 22.8521C28.0142 22.8495 28.0422 22.8351 28.062 22.8121C28.0811 22.7896 28.0907 22.7605 28.0889 22.7311C28.087 22.7016 28.0738 22.674 28.052 22.6541C28.0295 22.6348 28.0005 22.6251 27.971 22.6271ZM24.209 22.7171C24.5125 22.7171 24.8036 22.8377 25.0183 23.0523C25.2329 23.2669 25.3535 23.558 25.3535 23.8616C25.3535 24.1651 25.2329 24.4562 25.0183 24.6709C24.8036 24.8855 24.5125 25.0061 24.209 25.0061C23.9053 25.0061 23.6141 24.8854 23.3993 24.6707C23.1846 24.456 23.064 24.1648 23.064 23.8611C23.064 23.5574 23.1846 23.2662 23.3993 23.0514C23.6141 22.8367 23.9053 22.7161 24.209 22.7161V22.7171ZM19.961 23.1891C19.9354 23.1929 19.912 23.2056 19.895 23.2251C19.8743 23.2466 19.8629 23.2753 19.863 23.3051C19.8636 23.3337 19.8755 23.361 19.896 23.3811C19.917 23.4011 19.946 23.4141 19.975 23.4141C20.0042 23.4133 20.0321 23.4015 20.053 23.3811C20.0742 23.3613 20.0868 23.334 20.088 23.3051C20.0885 23.2752 20.0773 23.2463 20.0567 23.2246C20.0361 23.2029 20.0079 23.1901 19.978 23.1891H19.971C19.9676 23.1889 19.9643 23.1889 19.961 23.1891ZM27.961 23.1891C27.9354 23.1929 27.912 23.2056 27.895 23.2251C27.8743 23.2466 27.8629 23.2753 27.863 23.3051C27.8636 23.3337 27.8755 23.361 27.896 23.3811C27.917 23.4011 27.946 23.4141 27.975 23.4141C28.0042 23.4133 28.0321 23.4015 28.053 23.3811C28.0742 23.3613 28.0868 23.334 28.088 23.3051C28.0885 23.2752 28.0773 23.2463 28.0567 23.2246C28.0361 23.2029 28.0079 23.1901 27.978 23.1891H27.971C27.9676 23.1889 27.9643 23.1889 27.961 23.1891ZM19.959 23.7521C19.9326 23.7559 19.9085 23.769 19.891 23.7891C19.8737 23.8098 19.8645 23.8361 19.865 23.8631C19.8639 23.8787 19.8659 23.8944 19.8711 23.9092C19.8763 23.924 19.8844 23.9375 19.895 23.9491C19.9054 23.961 19.9184 23.9705 19.9329 23.9769C19.9474 23.9832 19.9631 23.9864 19.979 23.9861C19.9945 23.986 20.0098 23.9827 20.0239 23.9763C20.0381 23.97 20.0507 23.9607 20.061 23.9491C20.0716 23.9375 20.0797 23.924 20.0848 23.9092C20.09 23.8944 20.0921 23.8787 20.091 23.8631C20.0897 23.8339 20.0775 23.8062 20.0567 23.7856C20.036 23.765 20.0082 23.7531 19.979 23.7521H19.959ZM27.959 23.7521C27.9326 23.7559 27.9085 23.769 27.891 23.7891C27.8737 23.8098 27.8645 23.8361 27.865 23.8631C27.8639 23.8787 27.8659 23.8944 27.8711 23.9092C27.8763 23.924 27.8844 23.9375 27.895 23.9491C27.9054 23.961 27.9184 23.9705 27.9329 23.9769C27.9474 23.9832 27.9631 23.9864 27.979 23.9861C27.9945 23.986 28.0098 23.9827 28.0239 23.9763C28.0381 23.97 28.0507 23.9607 28.061 23.9491C28.0716 23.9375 28.0797 23.924 28.0848 23.9092C28.09 23.8944 28.0921 23.8787 28.091 23.8631C28.0897 23.8339 28.0775 23.8062 28.0567 23.7856C28.036 23.765 28.0082 23.7531 27.979 23.7521H27.959ZM19.959 24.3141C19.9325 24.3181 19.9083 24.3316 19.891 24.3521C19.8737 24.3728 19.8645 24.3991 19.865 24.4261C19.865 24.4891 19.915 24.5381 19.979 24.5371C20.039 24.5371 20.089 24.4871 20.089 24.4261C20.0887 24.3968 20.0771 24.3688 20.0566 24.3479C20.0361 24.327 20.0082 24.3149 19.979 24.3141H19.959ZM27.959 24.3141C27.9325 24.3181 27.9083 24.3316 27.891 24.3521C27.8737 24.3728 27.8645 24.3991 27.865 24.4261C27.865 24.4891 27.915 24.5381 27.979 24.5371C28.039 24.5371 28.089 24.4871 28.089 24.4261C28.0887 24.3968 28.0771 24.3688 28.0566 24.3479C28.0361 24.327 28.0082 24.3149 27.979 24.3141H27.959ZM19.971 24.8731C19.942 24.8751 19.9148 24.8882 19.8951 24.9095C19.8754 24.9309 19.8646 24.959 19.865 24.9881C19.865 25.0501 19.915 25.1011 19.979 25.1001C20.009 25.0982 20.037 25.0845 20.057 25.0621C20.0672 25.0515 20.0752 25.039 20.0805 25.0253C20.0858 25.0116 20.0884 24.9969 20.088 24.9822C20.0876 24.9675 20.0844 24.9531 20.0783 24.9396C20.0723 24.9262 20.0637 24.9141 20.053 24.9041C20.0307 24.8834 20.0013 24.8723 19.971 24.8731ZM27.971 24.8731C27.942 24.8751 27.9148 24.8882 27.8951 24.9095C27.8754 24.9309 27.8646 24.959 27.865 24.9881C27.865 25.0501 27.915 25.1011 27.979 25.1001C28.009 25.0982 28.037 25.0845 28.057 25.0621C28.0672 25.0515 28.0752 25.039 28.0805 25.0253C28.0858 25.0116 28.0884 24.9969 28.088 24.9822C28.0876 24.9675 28.0844 24.9531 28.0783 24.9396C28.0723 24.9262 28.0637 24.9141 28.053 24.9041C28.0307 24.8834 28.0013 24.8723 27.971 24.8731ZM16.604 25.1931C16.2802 25.1813 15.9604 25.2683 15.6872 25.4424C15.4139 25.6165 15.2001 25.8696 15.074 26.1681C14.9474 26.4658 14.9143 26.7949 14.9789 27.1119C15.0436 27.4288 15.203 27.7187 15.436 27.9431C15.5906 28.0925 15.7737 28.2093 15.9743 28.2866C16.1749 28.3639 16.3891 28.4001 16.604 28.3931C17.0283 28.3931 17.4353 28.2245 17.7353 27.9244C18.0354 27.6244 18.204 27.2174 18.204 26.7931C18.204 26.3687 18.0354 25.9618 17.7353 25.6617C17.4353 25.3616 17.0283 25.1931 16.604 25.1931ZM31.354 25.1931C31.0302 25.1813 30.7104 25.2683 30.4372 25.4424C30.1639 25.6165 29.9501 25.8696 29.824 26.1681C29.6974 26.4658 29.6643 26.7949 29.7289 27.1119C29.7936 27.4288 29.953 27.7187 30.186 27.9431C30.3406 28.0925 30.5237 28.2093 30.7243 28.2866C30.9249 28.3639 31.1391 28.4001 31.354 28.3931C31.7783 28.3931 32.1853 28.2245 32.4853 27.9244C32.7854 27.6244 32.954 27.2174 32.954 26.7931C32.954 26.3687 32.7854 25.9618 32.4853 25.6617C32.1853 25.3616 31.7783 25.1931 31.354 25.1931ZM19.961 25.4371C19.9354 25.4409 19.912 25.4536 19.895 25.4731C19.8797 25.4886 19.8694 25.5084 19.8654 25.5298C19.8614 25.5512 19.8638 25.5733 19.8724 25.5934C19.881 25.6134 19.8953 25.6304 19.9135 25.6423C19.9318 25.6542 19.9532 25.6604 19.975 25.6601C20.004 25.6605 20.0321 25.6493 20.053 25.6291C20.0742 25.6085 20.0868 25.5806 20.088 25.5511C20.0878 25.5359 20.0847 25.521 20.0787 25.5071C20.0728 25.4931 20.0641 25.4806 20.0532 25.47C20.0423 25.4595 20.0294 25.4513 20.0153 25.4458C20.0012 25.4403 19.9861 25.4377 19.971 25.4381C19.9676 25.4379 19.9643 25.4379 19.961 25.4381V25.4371ZM27.961 25.4371C27.9354 25.4409 27.912 25.4536 27.895 25.4731C27.8797 25.4886 27.8694 25.5084 27.8654 25.5298C27.8614 25.5512 27.8638 25.5733 27.8724 25.5934C27.881 25.6134 27.8953 25.6304 27.9135 25.6423C27.9318 25.6542 27.9532 25.6604 27.975 25.6601C28.004 25.6605 28.0321 25.6493 28.053 25.6291C28.0742 25.6085 28.0868 25.5806 28.088 25.5511C28.0878 25.5359 28.0847 25.521 28.0787 25.5071C28.0728 25.4931 28.0641 25.4806 28.0532 25.47C28.0423 25.4595 28.0294 25.4513 28.0153 25.4458C28.0012 25.4403 27.9861 25.4377 27.971 25.4381C27.9676 25.4379 27.9643 25.4379 27.961 25.4381V25.4371ZM31.338 25.6761C31.6415 25.6761 31.9326 25.7967 32.1473 26.0113C32.3619 26.2259 32.4825 26.517 32.4825 26.8206C32.4825 27.1241 32.3619 27.4152 32.1473 27.6299C31.9326 27.8445 31.6415 27.9651 31.338 27.9651C31.0343 27.9651 30.7431 27.8444 30.5283 27.6297C30.3136 27.415 30.193 27.1238 30.193 26.8201C30.193 26.5164 30.3136 26.2252 30.5283 26.0104C30.7431 25.7957 31.0343 25.6751 31.338 25.6751V25.6761ZM16.543 25.6781C16.8465 25.6781 17.1376 25.7987 17.3523 26.0133C17.5669 26.2279 17.6875 26.519 17.6875 26.8226C17.6875 27.1261 17.5669 27.4172 17.3523 27.6319C17.1376 27.8465 16.8465 27.9671 16.543 27.9671C16.2393 27.9671 15.9481 27.8464 15.7333 27.6317C15.5186 27.417 15.398 27.1258 15.398 26.8221C15.398 26.5184 15.5186 26.2272 15.7333 26.0124C15.9481 25.7977 16.2393 25.6771 16.543 25.6771V25.6781ZM19.971 26.0001C19.9429 26.0035 19.9172 26.0174 19.8988 26.0389C19.8805 26.0604 19.8709 26.088 19.8719 26.1162C19.8729 26.1445 19.8844 26.1713 19.9043 26.1915C19.9241 26.2116 19.9507 26.2236 19.979 26.2251C19.9936 26.2236 20.0078 26.2195 20.021 26.2131C20.0346 26.2069 20.0469 26.1981 20.057 26.1871C20.0664 26.1763 20.0735 26.1637 20.078 26.1501C20.0834 26.1364 20.0861 26.1218 20.086 26.1071C20.0851 26.0775 20.0725 26.0494 20.051 26.0291C20.0402 26.0197 20.0276 26.0126 20.014 26.0081C20.0003 26.0026 19.9857 25.9998 19.971 26.0001ZM27.971 26.0001C27.9429 26.0035 27.9172 26.0174 27.8988 26.0389C27.8805 26.0604 27.8709 26.088 27.8719 26.1162C27.8729 26.1445 27.8844 26.1713 27.9043 26.1915C27.9241 26.2116 27.9507 26.2236 27.979 26.2251C28.0011 26.2237 28.0223 26.216 28.0401 26.2027C28.0578 26.1895 28.0714 26.1714 28.079 26.1506C28.0866 26.1298 28.0881 26.1072 28.0831 26.0857C28.0781 26.0641 28.0669 26.0444 28.051 26.0291C28.0402 26.0192 28.0276 26.0115 28.0139 26.0065C28.0002 26.0015 27.9856 25.9994 27.971 26.0001ZM19.971 26.5631C19.9561 26.5636 19.9415 26.5669 19.928 26.5731C19.9079 26.5832 19.8911 26.5988 19.8796 26.6181C19.8681 26.6374 19.8623 26.6596 19.863 26.6821C19.8662 26.7116 19.8805 26.7387 19.903 26.7581C19.913 26.7681 19.926 26.7761 19.939 26.7811C19.9565 26.7869 19.9752 26.7884 19.9934 26.7855C20.0117 26.7825 20.0289 26.7751 20.0437 26.764C20.0584 26.7529 20.0703 26.7383 20.0782 26.7216C20.086 26.7049 20.0898 26.6865 20.089 26.6681C20.087 26.6381 20.0733 26.6101 20.051 26.5901C20.0401 26.5804 20.0275 26.5731 20.0137 26.5684C20 26.5638 19.9854 26.562 19.971 26.5631ZM27.971 26.5631C27.9561 26.5636 27.9415 26.5669 27.928 26.5731C27.9079 26.5832 27.8911 26.5988 27.8796 26.6181C27.8681 26.6374 27.8623 26.6596 27.863 26.6821C27.8662 26.7116 27.8805 26.7387 27.903 26.7581C27.913 26.7681 27.926 26.7761 27.939 26.7811C27.9565 26.7869 27.9752 26.7884 27.9934 26.7855C28.0117 26.7825 28.0289 26.7751 28.0437 26.764C28.0584 26.7529 28.0703 26.7383 28.0782 26.7216C28.086 26.7049 28.0898 26.6865 28.089 26.6681C28.087 26.6381 28.0733 26.6101 28.051 26.5901C28.0401 26.5804 28.0275 26.5731 28.0137 26.5684C28 26.5638 27.9854 26.562 27.971 26.5631ZM19.971 27.1251C19.956 27.1263 19.9414 27.1303 19.928 27.1371C19.9148 27.143 19.9029 27.1515 19.893 27.1621C19.8833 27.1728 19.8758 27.1854 19.871 27.1991C19.8616 27.2273 19.863 27.2579 19.875 27.2851C19.8816 27.2984 19.8908 27.3103 19.902 27.3201C19.913 27.3301 19.926 27.3391 19.939 27.3441C19.9528 27.3489 19.9674 27.351 19.982 27.3501C20.0126 27.3477 20.041 27.3333 20.061 27.3101C20.0801 27.2876 20.0897 27.2585 20.0879 27.2291C20.086 27.1996 20.0728 27.172 20.051 27.1521C20.0401 27.1425 20.0274 27.1352 20.0137 27.1305C20 27.1259 19.9854 27.124 19.971 27.1251ZM27.971 27.1251C27.956 27.1263 27.9414 27.1303 27.928 27.1371C27.9148 27.143 27.9029 27.1515 27.893 27.1621C27.8833 27.1728 27.8758 27.1854 27.871 27.1991C27.8616 27.2273 27.863 27.2579 27.875 27.2851C27.8816 27.2984 27.8908 27.3103 27.902 27.3201C27.913 27.3301 27.926 27.3391 27.939 27.3441C27.9528 27.3489 27.9674 27.351 27.982 27.3501C28.0126 27.3477 28.041 27.3333 28.061 27.3101C28.0801 27.2876 28.0897 27.2585 28.0879 27.2291C28.086 27.1996 28.0728 27.172 28.051 27.1521C28.0401 27.1425 28.0274 27.1352 28.0137 27.1305C28 27.1259 27.9854 27.124 27.971 27.1251ZM24.195 27.4921V27.4941C23.8734 27.4854 23.5568 27.5743 23.2867 27.7491C23.0167 27.9238 22.8058 28.1762 22.682 28.4731C22.5991 28.6697 22.5564 28.8809 22.5564 29.0942C22.5564 29.3076 22.5992 29.5187 22.6821 29.7153C22.7651 29.9119 22.8866 30.0898 23.0394 30.2387C23.1922 30.3876 23.3733 30.5043 23.572 30.5821C23.772 30.6601 23.982 30.6991 24.195 30.6931C24.6194 30.6928 25.0264 30.5242 25.3268 30.2243C25.6271 29.9243 25.7962 29.5175 25.797 29.0931C25.7959 28.6687 25.6267 28.2621 25.3265 27.9622C25.0262 27.6623 24.6193 27.4936 24.195 27.4931V27.4921ZM19.959 27.6871C19.9482 27.6889 19.9378 27.6923 19.928 27.6971C19.9077 27.7072 19.8908 27.723 19.8793 27.7425C19.8678 27.762 19.8621 27.7844 19.863 27.8071C19.8662 27.8366 19.8805 27.8637 19.903 27.8831C19.913 27.8931 19.926 27.9011 19.939 27.9061C19.9565 27.9119 19.9752 27.9134 19.9934 27.9105C20.0117 27.9075 20.0289 27.9001 20.0437 27.889C20.0584 27.8779 20.0703 27.8633 20.0782 27.8466C20.086 27.8299 20.0898 27.8115 20.089 27.7931C20.087 27.7631 20.0733 27.7351 20.051 27.7151C20.0401 27.7054 20.0275 27.6981 20.0137 27.6934C20 27.6888 19.9854 27.687 19.971 27.6881C19.967 27.6879 19.963 27.6879 19.959 27.6881V27.6871ZM27.959 27.6871C27.9482 27.6889 27.9378 27.6923 27.928 27.6971C27.9077 27.7072 27.8908 27.723 27.8793 27.7425C27.8678 27.762 27.8621 27.7844 27.863 27.8071C27.8662 27.8366 27.8805 27.8637 27.903 27.8831C27.913 27.8931 27.926 27.9011 27.939 27.9061C27.9565 27.9119 27.9752 27.9134 27.9934 27.9105C28.0117 27.9075 28.0289 27.9001 28.0437 27.889C28.0584 27.8779 28.0703 27.8633 28.0782 27.8466C28.086 27.8299 28.0898 27.8115 28.089 27.7931C28.087 27.7631 28.0733 27.7351 28.051 27.7151C28.0401 27.7054 28.0275 27.6981 28.0137 27.6934C28 27.6888 27.9854 27.687 27.971 27.6881C27.967 27.6879 27.963 27.6879 27.959 27.6881V27.6871ZM24.195 27.9551C24.825 27.9551 25.339 28.4651 25.335 29.0941C25.3228 29.3876 25.1976 29.665 24.9854 29.8682C24.7733 30.0714 24.4907 30.1846 24.197 30.1841C23.9034 30.1846 23.6211 30.0713 23.4093 29.8681C23.1974 29.6648 23.0726 29.3874 23.061 29.0941C23.0606 28.9448 23.0896 28.7969 23.1464 28.6589C23.2032 28.5208 23.2866 28.3954 23.3919 28.2896C23.4972 28.1838 23.6224 28.0998 23.7602 28.0424C23.898 27.985 24.0457 27.9553 24.195 27.9551ZM19.959 28.2501C19.9322 28.2537 19.9077 28.267 19.89 28.2874C19.8723 28.3079 19.8627 28.3341 19.863 28.3611C19.863 28.4231 19.916 28.4751 19.979 28.4731C20.039 28.4731 20.088 28.4231 20.088 28.3611C20.088 28.3011 20.038 28.2511 19.978 28.2501H19.959ZM27.959 28.2501C27.9322 28.2537 27.9077 28.267 27.89 28.2874C27.8723 28.3079 27.8627 28.3341 27.863 28.3611C27.863 28.4231 27.916 28.4751 27.979 28.4731C28.039 28.4731 28.088 28.4231 28.088 28.3611C28.088 28.3011 28.038 28.2511 27.978 28.2501H27.959ZM19.959 28.8091C19.9505 28.8097 19.9421 28.8114 19.934 28.8141C19.9188 28.8192 19.9048 28.8273 19.893 28.8381C19.8814 28.8488 19.872 28.8618 19.8655 28.8762C19.859 28.8907 19.8554 28.9063 19.855 28.9221C19.855 28.9381 19.859 28.9521 19.865 28.9671C19.8708 28.9817 19.8797 28.995 19.891 29.0061C19.9027 29.0169 19.9167 29.0252 19.9318 29.0304C19.947 29.0355 19.963 29.0375 19.979 29.0361C20.0065 29.0332 20.0321 29.0205 20.051 29.0003C20.0699 28.9801 20.0809 28.9537 20.082 28.9261C20.0823 28.8972 20.0716 28.8693 20.052 28.8481C20.0334 28.8272 20.0077 28.814 19.98 28.8111H19.979C19.9724 28.8098 19.9657 28.8091 19.959 28.8091ZM27.959 28.8091C27.9505 28.8097 27.9421 28.8114 27.934 28.8141C27.9188 28.8192 27.9048 28.8273 27.893 28.8381C27.8814 28.8488 27.872 28.8618 27.8655 28.8762C27.859 28.8907 27.8554 28.9063 27.855 28.9221C27.855 28.9381 27.859 28.9521 27.865 28.9671C27.8708 28.9817 27.8797 28.995 27.891 29.0061C27.9027 29.0169 27.9167 29.0252 27.9318 29.0304C27.947 29.0355 27.963 29.0375 27.979 29.0361C28.0065 29.0332 28.0321 29.0205 28.051 29.0003C28.0699 28.9801 28.0809 28.9537 28.082 28.9261C28.0823 28.8972 28.0716 28.8693 28.052 28.8481C28.0334 28.8272 28.0077 28.814 27.98 28.8111H27.979C27.9724 28.8098 27.9657 28.8091 27.959 28.8091ZM19.969 29.3731C19.9407 29.3748 19.9142 29.3873 19.895 29.4081C19.8794 29.4241 19.869 29.4444 19.865 29.4664C19.8611 29.4883 19.8638 29.511 19.8729 29.5314C19.8819 29.5518 19.8968 29.5691 19.9157 29.581C19.9346 29.5929 19.9567 29.5988 19.979 29.5981C20.039 29.5981 20.088 29.5481 20.088 29.4861C20.088 29.4561 20.078 29.4271 20.057 29.4061C20.0364 29.3852 20.0083 29.3733 19.979 29.3731H19.969ZM27.969 29.3731C27.9407 29.3748 27.9142 29.3873 27.895 29.4081C27.8794 29.4241 27.869 29.4444 27.865 29.4664C27.8611 29.4883 27.8638 29.511 27.8729 29.5314C27.8819 29.5518 27.8968 29.5691 27.9157 29.581C27.9346 29.5929 27.9567 29.5988 27.979 29.5981C28.039 29.5981 28.088 29.5481 28.088 29.4861C28.088 29.4561 28.078 29.4271 28.057 29.4061C28.0364 29.3852 28.0083 29.3733 27.979 29.3731H27.969ZM19.969 29.9361C19.9546 29.9366 19.9405 29.94 19.9275 29.946C19.9144 29.952 19.9027 29.9605 19.893 29.9711C19.8777 29.9866 19.8674 30.0064 19.8634 30.0278C19.8594 30.0492 19.8618 30.0713 19.8704 30.0914C19.879 30.1114 19.8933 30.1284 19.9115 30.1403C19.9298 30.1522 19.9512 30.1584 19.973 30.1581C20.002 30.1585 20.0301 30.1473 20.051 30.1271C20.0722 30.1065 20.0848 30.0786 20.086 30.0491C20.0857 30.0197 20.0742 29.9915 20.0537 29.9705C20.0332 29.9494 20.0053 29.9371 19.976 29.9361H19.969ZM27.969 29.9361C27.9546 29.9366 27.9405 29.94 27.9275 29.946C27.9144 29.952 27.9027 29.9605 27.893 29.9711C27.8777 29.9866 27.8674 30.0064 27.8634 30.0278C27.8594 30.0492 27.8618 30.0713 27.8704 30.0914C27.879 30.1114 27.8933 30.1284 27.9115 30.1403C27.9298 30.1522 27.9512 30.1584 27.973 30.1581C28.002 30.1585 28.0301 30.1473 28.051 30.1271C28.0722 30.1065 28.0848 30.0786 28.086 30.0491C28.0857 30.0197 28.0742 29.9915 28.0537 29.9705C28.0332 29.9494 28.0053 29.9371 27.976 29.9361H27.969ZM16.604 30.4281C16.3937 30.4277 16.1855 30.4688 15.9912 30.5491C15.7969 30.6293 15.6204 30.7472 15.4717 30.8958C15.3231 31.0445 15.2052 31.221 15.125 31.4153C15.0447 31.6096 15.0036 31.8179 15.004 32.0281C15.004 32.3445 15.0978 32.6539 15.2736 32.917C15.4494 33.1801 15.6993 33.3852 15.9917 33.5063C16.284 33.6274 16.6057 33.6591 16.9161 33.5973C17.2265 33.5356 17.5116 33.3832 17.7353 33.1594C17.9591 32.9357 18.1115 32.6506 18.1732 32.3402C18.235 32.0299 18.2033 31.7081 18.0822 31.4158C17.9611 31.1234 17.756 30.8735 17.4929 30.6977C17.2298 30.5219 16.9204 30.4281 16.604 30.4281ZM31.354 30.4281C31.1437 30.4277 30.9355 30.4688 30.7412 30.5491C30.5469 30.6293 30.3704 30.7472 30.2217 30.8958C30.0731 31.0445 29.9552 31.221 29.875 31.4153C29.7947 31.6096 29.7536 31.8179 29.754 32.0281C29.754 32.3445 29.8478 32.6539 30.0236 32.917C30.1994 33.1801 30.4493 33.3852 30.7417 33.5063C31.034 33.6274 31.3557 33.6591 31.6661 33.5973C31.9765 33.5356 32.2616 33.3832 32.4853 33.1594C32.7091 32.9357 32.8615 32.6506 32.9232 32.3402C32.985 32.0299 32.9533 31.7081 32.8322 31.4158C32.7111 31.1234 32.506 30.8735 32.2429 30.6977C31.9798 30.5219 31.6704 30.4281 31.354 30.4281ZM19.971 30.4961C19.9418 30.4982 19.9146 30.5115 19.895 30.5331C19.8794 30.5491 19.869 30.5694 19.865 30.5914C19.8611 30.6133 19.8638 30.636 19.8729 30.6564C19.8819 30.6768 19.8968 30.6941 19.9157 30.706C19.9346 30.7179 19.9567 30.7238 19.979 30.7231C19.9936 30.7229 20.008 30.7198 20.0214 30.7139C20.0348 30.7081 20.0469 30.6996 20.057 30.6891C20.0676 30.6788 20.076 30.6665 20.0817 30.653C20.0875 30.6394 20.0904 30.6248 20.0904 30.6101C20.0904 30.5953 20.0875 30.5808 20.0817 30.5672C20.076 30.5536 20.0676 30.5413 20.057 30.5311C20.0459 30.5197 20.0324 30.5108 20.0176 30.5051C20.0027 30.4994 19.9868 30.497 19.971 30.4981V30.4961ZM27.971 30.4961C27.9418 30.4982 27.9146 30.5115 27.895 30.5331C27.8794 30.5491 27.869 30.5694 27.865 30.5914C27.8611 30.6133 27.8638 30.636 27.8729 30.6564C27.8819 30.6768 27.8968 30.6941 27.9157 30.706C27.9346 30.7179 27.9567 30.7238 27.979 30.7231C27.9936 30.7229 28.008 30.7198 28.0214 30.7139C28.0348 30.7081 28.0469 30.6996 28.057 30.6891C28.0676 30.6788 28.076 30.6665 28.0817 30.653C28.0875 30.6394 28.0904 30.6248 28.0904 30.6101C28.0904 30.5953 28.0875 30.5808 28.0817 30.5672C28.076 30.5536 28.0676 30.5413 28.057 30.5311C28.0459 30.5197 28.0324 30.5108 28.0176 30.5051C28.0027 30.4994 27.9868 30.497 27.971 30.4981V30.4961ZM16.596 30.8891C16.5986 30.8891 16.6013 30.8891 16.604 30.8891C16.8289 30.8885 17.049 30.9547 17.2363 31.0793C17.4236 31.2039 17.5696 31.3813 17.656 31.5891C17.7501 31.8143 17.7693 32.0639 17.7108 32.3009C17.6523 32.5379 17.5193 32.7498 17.3312 32.9055C17.1431 33.0611 16.9101 33.1522 16.6663 33.1654C16.4225 33.1785 16.181 33.113 15.9773 32.9785C15.7736 32.844 15.6185 32.6476 15.5349 32.4182C15.4512 32.1889 15.4435 31.9387 15.5128 31.7047C15.5821 31.4706 15.7248 31.265 15.9198 31.1181C16.1148 30.9713 16.3519 30.891 16.596 30.8891ZM31.348 30.8911C31.651 30.8911 31.9417 31.0113 32.1562 31.2254C32.3707 31.4396 32.4914 31.73 32.492 32.0331C32.4921 32.1834 32.4626 32.3323 32.4052 32.4712C32.3477 32.6101 32.2635 32.7363 32.1573 32.8427C32.051 32.949 31.9249 33.0333 31.786 33.0909C31.6471 33.1485 31.4983 33.1781 31.348 33.1781C31.1976 33.1782 31.0486 33.1487 30.9096 33.0912C30.7707 33.0337 30.6444 32.9494 30.538 32.843C30.4317 32.7367 30.3474 32.6104 30.2899 32.4714C30.2324 32.3324 30.2028 32.1835 30.203 32.0331C30.2035 31.7298 30.3244 31.4392 30.5391 31.2251C30.7538 31.011 31.0447 30.8908 31.348 30.8911ZM19.968 31.0591C19.9395 31.0613 19.9129 31.0742 19.8935 31.0951C19.874 31.116 19.8631 31.1435 19.863 31.1721C19.8632 31.2021 19.8754 31.2309 19.8967 31.252C19.9181 31.2732 19.9469 31.2851 19.977 31.2851C20.0069 31.2848 20.0354 31.2728 20.0566 31.2517C20.0777 31.2306 20.0897 31.202 20.09 31.1721C20.0897 31.1566 20.0863 31.1412 20.08 31.1271C20.0735 31.1131 20.0644 31.1005 20.053 31.0901C20.0416 31.0787 20.028 31.0699 20.013 31.0641C19.9994 31.0597 19.9852 31.058 19.971 31.0591H19.969H19.968ZM19.971 31.6211C19.9436 31.6255 19.9187 31.6397 19.901 31.6611C19.8881 31.6771 19.8797 31.6963 19.8769 31.7167C19.874 31.7371 19.8767 31.7579 19.8847 31.7769C19.8927 31.7959 19.9057 31.8123 19.9223 31.8245C19.9389 31.8367 19.9585 31.8441 19.979 31.8461C19.9937 31.845 20.008 31.841 20.021 31.8341C20.0345 31.8282 20.0468 31.8197 20.057 31.8091C20.0665 31.798 20.0736 31.785 20.078 31.7711C20.0833 31.7577 20.086 31.7435 20.086 31.7291C20.0855 31.7069 20.0783 31.6853 20.0655 31.6671C20.0527 31.6489 20.0347 31.635 20.014 31.6271C20.0002 31.6222 19.9856 31.6201 19.971 31.6211ZM27.971 31.6211C27.9436 31.6255 27.9187 31.6397 27.901 31.6611C27.8881 31.6771 27.8797 31.6963 27.8769 31.7167C27.874 31.7371 27.8767 31.7579 27.8847 31.7769C27.8927 31.7959 27.9057 31.8123 27.9223 31.8245C27.9389 31.8367 27.9585 31.8441 27.979 31.8461C27.9937 31.845 28.008 31.841 28.021 31.8341C28.0345 31.8282 28.0468 31.8197 28.057 31.8091C28.0665 31.798 28.0736 31.785 28.078 31.7711C28.0833 31.7577 28.086 31.7435 28.086 31.7291C28.0855 31.7069 28.0783 31.6853 28.0655 31.6671C28.0527 31.6489 28.0347 31.635 28.014 31.6271C28.0002 31.6222 27.9856 31.6201 27.971 31.6211ZM19.959 32.1841C19.9326 32.1878 19.9084 32.2009 19.891 32.2211C19.875 32.2398 19.8656 32.2632 19.8642 32.2877C19.8627 32.3123 19.8693 32.3366 19.883 32.3571C19.8952 32.3756 19.9127 32.39 19.9332 32.3984C19.9537 32.4068 19.9763 32.4087 19.998 32.4041C20.0194 32.3999 20.0392 32.3895 20.0548 32.3742C20.0705 32.359 20.0813 32.3394 20.086 32.3181C20.0892 32.3021 20.0889 32.2855 20.085 32.2696C20.0812 32.2538 20.0739 32.2389 20.0637 32.2262C20.0535 32.2134 20.0406 32.203 20.026 32.1957C20.0114 32.1885 19.9953 32.1845 19.979 32.1841H19.959ZM27.959 32.1841C27.9326 32.1878 27.9084 32.2009 27.891 32.2211C27.875 32.2398 27.8656 32.2632 27.8642 32.2877C27.8627 32.3123 27.8693 32.3366 27.883 32.3571C27.8952 32.3756 27.9127 32.39 27.9332 32.3984C27.9537 32.4068 27.9763 32.4087 27.998 32.4041C28.0194 32.3999 28.0392 32.3895 28.0548 32.3742C28.0705 32.359 28.0813 32.3394 28.086 32.3181C28.0892 32.3021 28.0889 32.2855 28.085 32.2696C28.0812 32.2538 28.0739 32.2389 28.0637 32.2262C28.0535 32.2134 28.0406 32.203 28.026 32.1957C28.0114 32.1885 27.9953 32.1845 27.979 32.1841H27.959ZM24.195 32.7291C23.9818 32.7234 23.7696 32.7605 23.571 32.8383C23.3724 32.9161 23.1915 33.033 23.039 33.1821C22.7743 33.4397 22.6069 33.781 22.5652 34.148C22.5235 34.5151 22.6101 34.8852 22.8103 35.1956C23.0105 35.5061 23.3119 35.7377 23.6634 35.8512C24.0149 35.9647 24.3949 35.9531 24.7388 35.8183C25.0827 35.6835 25.3694 35.4339 25.5502 35.1118C25.731 34.7897 25.7948 34.415 25.7308 34.0512C25.6667 33.6874 25.4788 33.357 25.1989 33.116C24.9189 32.875 24.5642 32.7383 24.195 32.7291ZM19.959 32.7461C19.9379 32.7495 19.9182 32.7588 19.9023 32.773C19.8864 32.7871 19.8748 32.8056 19.869 32.8261C19.8629 32.8466 19.8629 32.8685 19.869 32.8891C19.8739 32.9042 19.882 32.9181 19.8926 32.9299C19.9032 32.9418 19.9162 32.9513 19.9306 32.9578C19.9451 32.9644 19.9608 32.9679 19.9767 32.9681C19.9926 32.9683 20.0083 32.9653 20.023 32.9591C20.0426 32.9503 20.0592 32.9359 20.0707 32.9178C20.0823 32.8997 20.0883 32.8786 20.088 32.8571C20.088 32.7971 20.038 32.7471 19.978 32.7471H19.959V32.7461ZM27.959 32.7461C27.9379 32.7495 27.9182 32.7588 27.9023 32.773C27.8864 32.7871 27.8748 32.8056 27.869 32.8261C27.8629 32.8466 27.8629 32.8685 27.869 32.8891C27.8739 32.9042 27.882 32.9181 27.8926 32.9299C27.9032 32.9418 27.9162 32.9513 27.9306 32.9578C27.9451 32.9644 27.9608 32.9679 27.9767 32.9681C27.9926 32.9683 28.0083 32.9653 28.023 32.9591C28.0426 32.9503 28.0592 32.9359 28.0707 32.9178C28.0823 32.8997 28.0883 32.8786 28.088 32.8571C28.088 32.7971 28.038 32.7471 27.978 32.7471H27.959V32.7461ZM24.141 33.2011C24.1566 33.2008 24.1723 33.2008 24.188 33.2011C24.341 33.1966 24.4933 33.2228 24.636 33.2782C24.7787 33.3336 24.9088 33.4171 25.0187 33.5238C25.1285 33.6304 25.2158 33.758 25.2754 33.899C25.3351 34.04 25.3658 34.1915 25.3658 34.3446C25.3658 34.4977 25.3351 34.6492 25.2754 34.7902C25.2158 34.9312 25.1285 35.0587 25.0187 35.1654C24.9088 35.272 24.7787 35.3555 24.636 35.4109C24.4933 35.4664 24.341 35.4926 24.188 35.4881C23.8888 35.4879 23.6016 35.3704 23.3879 35.161C23.1743 34.9515 23.0512 34.6667 23.045 34.3676C23.0389 34.0684 23.1502 33.7788 23.355 33.5608C23.5599 33.3427 23.842 33.2136 24.141 33.2011ZM19.969 33.3071C19.9577 33.3078 19.9466 33.3102 19.936 33.3141C19.9223 33.32 19.9101 33.3286 19.8999 33.3394C19.8898 33.3503 19.8819 33.3631 19.877 33.3771C19.87 33.3911 19.866 33.4064 19.865 33.4221C19.865 33.4841 19.915 33.5321 19.979 33.5321C20.0088 33.5324 20.0376 33.5209 20.059 33.5001C20.069 33.4894 20.0768 33.4768 20.082 33.4631C20.0881 33.4502 20.0915 33.4363 20.092 33.4221C20.0918 33.3915 20.08 33.3622 20.059 33.3401C20.0487 33.3296 20.0364 33.3212 20.0228 33.3156C20.0092 33.3099 19.9947 33.307 19.98 33.3071C19.9763 33.3069 19.9726 33.3069 19.969 33.3071ZM27.969 33.3071C27.9577 33.3078 27.9466 33.3102 27.936 33.3141C27.9223 33.32 27.9101 33.3286 27.8999 33.3394C27.8898 33.3503 27.8819 33.3631 27.877 33.3771C27.87 33.3911 27.866 33.4064 27.865 33.4221C27.865 33.4841 27.915 33.5321 27.979 33.5321C28.0088 33.5324 28.0376 33.5209 28.059 33.5001C28.069 33.4894 28.0768 33.4768 28.082 33.4631C28.0881 33.4502 28.0915 33.4363 28.092 33.4221C28.0918 33.3915 28.08 33.3622 28.059 33.3401C28.0487 33.3296 28.0364 33.3212 28.0228 33.3156C28.0092 33.3099 27.9947 33.307 27.98 33.3071C27.9763 33.3069 27.9726 33.3069 27.969 33.3071ZM19.971 33.8691C19.9429 33.8725 19.9172 33.8864 19.8988 33.9079C19.8805 33.9294 19.8709 33.957 19.8719 33.9852C19.8729 34.0135 19.8844 34.0403 19.9043 34.0605C19.9241 34.0806 19.9507 34.0926 19.979 34.0941C20.039 34.0941 20.088 34.0421 20.088 33.9821C20.0883 33.9674 20.0858 33.9527 20.0804 33.939C20.0751 33.9253 20.0671 33.9127 20.057 33.9021C20.0467 33.892 20.0344 33.8841 20.021 33.8791C20.0078 33.8731 19.9935 33.8697 19.979 33.8691H19.971ZM27.971 33.8691C27.9429 33.8725 27.9172 33.8864 27.8988 33.9079C27.8805 33.9294 27.8709 33.957 27.8719 33.9852C27.8729 34.0135 27.8844 34.0403 27.9043 34.0605C27.9241 34.0806 27.9507 34.0926 27.979 34.0941C28.039 34.0941 28.088 34.0421 28.088 33.9821C28.0883 33.9674 28.0858 33.9527 28.0804 33.939C28.0751 33.9253 28.0671 33.9127 28.057 33.9021C28.0467 33.892 28.0344 33.8841 28.021 33.8791C28.0078 33.8731 27.9935 33.8697 27.979 33.8691H27.971ZM19.971 34.4321C19.9417 34.4324 19.9136 34.4443 19.893 34.4651C19.8723 34.4866 19.8609 34.5153 19.861 34.5451C19.862 34.5746 19.8745 34.6026 19.8957 34.6231C19.917 34.6436 19.9454 34.6551 19.975 34.6551C20.0041 34.6551 20.0321 34.6435 20.0528 34.6229C20.0734 34.6022 20.085 34.5742 20.085 34.5451C20.0856 34.5155 20.0749 34.4869 20.055 34.4651C20.0442 34.4538 20.0311 34.4451 20.0166 34.4394C20.0021 34.4337 19.9865 34.4312 19.971 34.4321ZM27.971 34.4321C27.9417 34.4324 27.9136 34.4443 27.893 34.4651C27.8723 34.4866 27.8609 34.5153 27.861 34.5451C27.862 34.5746 27.8745 34.6026 27.8957 34.6231C27.917 34.6436 27.9454 34.6551 27.975 34.6551C28.0041 34.6551 28.0321 34.6435 28.0528 34.6229C28.0734 34.6022 28.085 34.5742 28.085 34.5451C28.0856 34.5155 28.0749 34.4869 28.055 34.4651C28.0442 34.4538 28.0311 34.4451 28.0166 34.4394C28.0021 34.4337 27.9865 34.4312 27.971 34.4321ZM19.959 34.9941C19.9336 34.9978 19.9103 35.0101 19.893 35.0291C19.8826 35.0396 19.8745 35.0521 19.869 35.0659C19.8635 35.0796 19.8608 35.0943 19.861 35.1091C19.862 35.1391 19.877 35.1671 19.898 35.1871C19.9139 35.2027 19.9342 35.2132 19.9562 35.2174C19.9781 35.2215 20.0008 35.219 20.0214 35.2102C20.0419 35.2014 20.0594 35.1868 20.0716 35.168C20.0838 35.1493 20.0902 35.1274 20.09 35.1051C20.0899 35.0905 20.0869 35.0762 20.0813 35.0628C20.0756 35.0494 20.0674 35.0373 20.057 35.0271C20.0459 35.0157 20.0324 35.0068 20.0176 35.0011C20.0027 34.9954 19.9868 34.993 19.971 34.9941C19.967 34.9939 19.963 34.9939 19.959 34.9941ZM27.959 34.9941C27.9336 34.9978 27.9103 35.0101 27.893 35.0291C27.8826 35.0396 27.8745 35.0521 27.869 35.0659C27.8635 35.0796 27.8608 35.0943 27.861 35.1091C27.862 35.1391 27.877 35.1671 27.898 35.1871C27.9139 35.2027 27.9342 35.2132 27.9562 35.2174C27.9781 35.2215 28.0008 35.219 28.0214 35.2102C28.0419 35.2014 28.0594 35.1868 28.0716 35.168C28.0838 35.1493 28.0902 35.1274 28.09 35.1051C28.0899 35.0905 28.0869 35.0762 28.0813 35.0628C28.0756 35.0494 28.0674 35.0373 28.057 35.0271C28.0459 35.0157 28.0324 35.0068 28.0176 35.0011C28.0027 34.9954 27.9868 34.993 27.971 34.9941C27.967 34.9939 27.963 34.9939 27.959 34.9941ZM19.971 35.5571C19.9417 35.5574 19.9136 35.5693 19.893 35.5901C19.8723 35.6116 19.8609 35.6403 19.861 35.6701C19.862 35.6996 19.8745 35.7276 19.8957 35.7481C19.917 35.7686 19.9454 35.7801 19.975 35.7801C20.0041 35.7801 20.0321 35.7685 20.0528 35.7479C20.0734 35.7272 20.085 35.6992 20.085 35.6701C20.0856 35.6405 20.0749 35.6119 20.055 35.5901C20.0451 35.5798 20.0333 35.5717 20.0203 35.566C20.0072 35.5603 19.9932 35.5573 19.979 35.5571H19.971ZM27.971 35.5571C27.9417 35.5574 27.9136 35.5693 27.893 35.5901C27.8723 35.6116 27.8609 35.6403 27.861 35.6701C27.862 35.6996 27.8745 35.7276 27.8957 35.7481C27.917 35.7686 27.9454 35.7801 27.975 35.7801C28.0041 35.7801 28.0321 35.7685 28.0528 35.7479C28.0734 35.7272 28.085 35.6992 28.085 35.6701C28.0856 35.6405 28.0749 35.6119 28.055 35.5901C28.0451 35.5798 28.0333 35.5717 28.0203 35.566C28.0072 35.5603 27.9932 35.5573 27.979 35.5571H27.971ZM16.604 35.6601V35.6621C16.2822 35.6541 15.9654 35.7432 15.695 35.9178C15.4246 36.0924 15.2131 36.3445 15.088 36.6411C15.0051 36.8377 14.9624 37.0489 14.9624 37.2622C14.9624 37.4756 15.0052 37.6867 15.0881 37.8833C15.1711 38.0799 15.2926 38.2578 15.4454 38.4067C15.5982 38.5556 15.7793 38.6723 15.978 38.7501C16.178 38.8281 16.39 38.8671 16.604 38.8611C16.9206 38.8614 17.2303 38.7677 17.4936 38.5918C17.757 38.416 17.9622 38.1659 18.0832 37.8732C18.2043 37.5806 18.2357 37.2586 18.1735 36.9481C18.1113 36.6376 17.9584 36.3525 17.734 36.1291C17.4343 35.8292 17.0279 35.6605 16.604 35.6601ZM31.354 35.6601V35.6621C31.0322 35.6541 30.7154 35.7432 30.445 35.9178C30.1746 36.0924 29.9631 36.3445 29.838 36.6411C29.7551 36.8377 29.7124 37.0489 29.7124 37.2622C29.7124 37.4756 29.7552 37.6867 29.8381 37.8833C29.9211 38.0799 30.0426 38.2578 30.1954 38.4067C30.3482 38.5556 30.5293 38.6723 30.728 38.7501C30.928 38.8281 31.14 38.8671 31.354 38.8611C31.6706 38.8614 31.9803 38.7677 32.2436 38.5918C32.507 38.416 32.7122 38.1659 32.8332 37.8732C32.9543 37.5806 32.9857 37.2586 32.9235 36.9481C32.8613 36.6376 32.7084 36.3525 32.484 36.1291C32.1843 35.8292 31.7779 35.6605 31.354 35.6601ZM19.971 36.1201C19.9418 36.1211 19.9141 36.1333 19.8936 36.1541C19.8732 36.175 19.8615 36.2029 19.861 36.2321C19.861 36.2621 19.876 36.2901 19.896 36.3111C19.917 36.3311 19.946 36.3441 19.975 36.3441C20.0042 36.3433 20.0321 36.3312 20.0526 36.3103C20.0731 36.2894 20.0847 36.2614 20.085 36.2321C20.0856 36.2031 20.0748 36.1751 20.055 36.1541C20.0352 36.1329 20.0079 36.1203 19.979 36.1191H19.971V36.1201ZM27.971 36.1201C27.9418 36.1211 27.9141 36.1333 27.8936 36.1541C27.8732 36.175 27.8615 36.2029 27.861 36.2321C27.861 36.2621 27.876 36.2901 27.896 36.3111C27.917 36.3311 27.946 36.3441 27.975 36.3441C28.0042 36.3433 28.0321 36.3312 28.0526 36.3103C28.0731 36.2894 28.0847 36.2614 28.085 36.2321C28.0856 36.2031 28.0748 36.1751 28.055 36.1541C28.0352 36.1329 28.0079 36.1203 27.979 36.1191H27.971V36.1201ZM16.604 36.1231C16.7584 36.1152 16.9128 36.1387 17.0579 36.1924C17.2029 36.246 17.3355 36.3286 17.4476 36.4351C17.5597 36.5416 17.649 36.6698 17.71 36.8118C17.771 36.9539 17.8024 37.107 17.8024 37.2616C17.8024 37.4162 17.771 37.5692 17.71 37.7113C17.649 37.8534 17.5597 37.9816 17.4476 38.0881C17.3355 38.1946 17.2029 38.2772 17.0579 38.3308C16.9128 38.3844 16.7584 38.408 16.604 38.4001C16.3121 38.3851 16.0372 38.2586 15.8359 38.0467C15.6347 37.8349 15.5224 37.5538 15.5224 37.2616C15.5224 36.9694 15.6347 36.6883 15.8359 36.4764C16.0372 36.2646 16.3121 36.1381 16.604 36.1231ZM31.354 36.1231C31.5084 36.1152 31.6628 36.1387 31.8079 36.1924C31.9529 36.246 32.0855 36.3286 32.1976 36.4351C32.3097 36.5416 32.399 36.6698 32.46 36.8118C32.521 36.9539 32.5524 37.107 32.5524 37.2616C32.5524 37.4162 32.521 37.5692 32.46 37.7113C32.399 37.8534 32.3097 37.9816 32.1976 38.0881C32.0855 38.1946 31.9529 38.2772 31.8079 38.3308C31.6628 38.3844 31.5084 38.408 31.354 38.4001C31.0621 38.3851 30.7872 38.2586 30.5859 38.0467C30.3847 37.8349 30.2724 37.5538 30.2724 37.2616C30.2724 36.9694 30.3847 36.6883 30.5859 36.4764C30.7872 36.2646 31.0621 36.1381 31.354 36.1231ZM19.971 36.6821C19.9563 36.6825 19.9419 36.6858 19.9285 36.6918C19.9151 36.6978 19.903 36.7064 19.893 36.7171C19.8826 36.7275 19.8744 36.74 19.8689 36.7537C19.8634 36.7673 19.8607 36.782 19.861 36.7967C19.8613 36.8115 19.8645 36.826 19.8705 36.8394C19.8765 36.8529 19.8852 36.865 19.896 36.8751C19.9179 36.8951 19.9467 36.9061 19.9764 36.9057C20.0061 36.9053 20.0345 36.8937 20.056 36.8731C20.077 36.8518 20.0888 36.823 20.0888 36.7931C20.0888 36.7631 20.077 36.7344 20.056 36.7131C20.0458 36.7031 20.0338 36.6952 20.0206 36.6899C20.0074 36.6846 19.9932 36.6819 19.979 36.6821H19.971ZM27.971 36.6821C27.9563 36.6825 27.9419 36.6858 27.9285 36.6918C27.9151 36.6978 27.903 36.7064 27.893 36.7171C27.8826 36.7275 27.8744 36.74 27.8689 36.7537C27.8634 36.7673 27.8607 36.782 27.861 36.7967C27.8613 36.8115 27.8645 36.826 27.8705 36.8394C27.8765 36.8529 27.8852 36.865 27.896 36.8751C27.9179 36.8951 27.9467 36.9061 27.9764 36.9057C28.0061 36.9053 28.0345 36.8937 28.056 36.8731C28.077 36.8518 28.0888 36.823 28.0888 36.7931C28.0888 36.7631 28.077 36.7344 28.056 36.7131C28.0458 36.7031 28.0338 36.6952 28.0206 36.6899C28.0074 36.6846 27.9932 36.6819 27.979 36.6821H27.971ZM19.959 37.2441C19.9322 37.2477 19.9077 37.261 19.89 37.2815C19.8723 37.3019 19.8627 37.3281 19.863 37.3551C19.863 37.4171 19.916 37.4681 19.979 37.4671C20.0067 37.4644 20.0325 37.4516 20.0512 37.4309C20.07 37.4103 20.0804 37.3835 20.0804 37.3556C20.0804 37.3277 20.07 37.3008 20.0512 37.2802C20.0325 37.2596 20.0067 37.2467 19.979 37.2441H19.959ZM27.959 37.2441C27.9322 37.2477 27.9077 37.261 27.89 37.2815C27.8723 37.3019 27.8627 37.3281 27.863 37.3551C27.863 37.4171 27.916 37.4681 27.979 37.4671C28.0067 37.4644 28.0325 37.4516 28.0512 37.4309C28.07 37.4103 28.0804 37.3835 28.0804 37.3556C28.0804 37.3277 28.07 37.3008 28.0512 37.2802C28.0325 37.2596 28.0067 37.2467 27.979 37.2441H27.959ZM19.959 37.8041C19.9337 37.8076 19.9105 37.8196 19.893 37.8381C19.8723 37.8596 19.8609 37.8883 19.861 37.9181C19.862 37.9476 19.8745 37.9756 19.8957 37.9961C19.917 38.0166 19.9454 38.0281 19.975 38.0281C20.0041 38.0281 20.0321 38.0165 20.0528 37.9959C20.0734 37.9752 20.085 37.9473 20.085 37.9181C20.0856 37.8885 20.0749 37.8599 20.055 37.8381C20.0442 37.8268 20.0311 37.818 20.0166 37.8123C20.0021 37.8066 19.9865 37.8041 19.971 37.8051C19.967 37.8049 19.963 37.8049 19.959 37.8051V37.8041ZM27.959 37.8041C27.9337 37.8076 27.9105 37.8196 27.893 37.8381C27.8723 37.8596 27.8609 37.8883 27.861 37.9181C27.862 37.9476 27.8745 37.9756 27.8957 37.9961C27.917 38.0166 27.9454 38.0281 27.975 38.0281C28.0041 38.0281 28.0321 38.0165 28.0528 37.9959C28.0734 37.9752 28.085 37.9473 28.085 37.9181C28.0856 37.8885 28.0749 37.8599 28.055 37.8381C28.0442 37.8268 28.0311 37.818 28.0166 37.8123C28.0021 37.8066 27.9865 37.8041 27.971 37.8051C27.967 37.8049 27.963 37.8049 27.959 37.8051V37.8041ZM24.195 37.9981C23.8716 37.9864 23.5522 38.0731 23.2792 38.2469C23.0062 38.4206 22.7923 38.6731 22.666 38.9711C22.5403 39.2692 22.5075 39.5983 22.5719 39.9154C22.6363 40.2324 22.7949 40.5226 23.027 40.7481C23.1817 40.8972 23.3648 41.0136 23.5655 41.0904C23.7662 41.1672 23.9802 41.2028 24.195 41.1951C24.6091 41.1806 25.0015 41.0061 25.2896 40.7082C25.5778 40.4104 25.7392 40.0125 25.74 39.5981C25.7402 39.1831 25.5792 38.7842 25.291 38.4857C25.0027 38.1872 24.6097 38.0123 24.195 37.9981ZM19.971 38.3681C19.9439 38.3726 19.9193 38.3868 19.9019 38.408C19.8846 38.4293 19.8755 38.4562 19.8765 38.4836C19.8775 38.511 19.8884 38.5372 19.9073 38.5572C19.9261 38.5771 19.9516 38.5895 19.979 38.5921C19.9935 38.5919 20.0079 38.5889 20.0212 38.5832C20.0346 38.5775 20.0467 38.5692 20.0568 38.5588C20.067 38.5484 20.0749 38.5361 20.0803 38.5226C20.0856 38.509 20.0882 38.4946 20.088 38.4801C20.0883 38.465 20.0855 38.4501 20.08 38.4361C20.0736 38.4217 20.0644 38.4088 20.053 38.3981C20.0425 38.3873 20.0299 38.3788 20.016 38.3731C20.0015 38.368 19.9862 38.366 19.971 38.3671V38.3681ZM27.971 38.3681C27.9439 38.3726 27.9193 38.3868 27.9019 38.408C27.8846 38.4293 27.8755 38.4562 27.8765 38.4836C27.8775 38.511 27.8884 38.5372 27.9073 38.5572C27.9261 38.5771 27.9516 38.5895 27.979 38.5921C27.9935 38.5919 28.0079 38.5889 28.0212 38.5832C28.0346 38.5775 28.0467 38.5692 28.0568 38.5588C28.067 38.5484 28.0749 38.5361 28.0803 38.5226C28.0856 38.509 28.0882 38.4946 28.088 38.4801C28.0883 38.465 28.0855 38.4501 28.08 38.4361C28.0736 38.4217 28.0644 38.4088 28.053 38.3981C28.0425 38.3873 28.0299 38.3788 28.016 38.3731C28.0015 38.368 27.9862 38.366 27.971 38.3671V38.3681ZM24.195 38.4591C24.825 38.4591 25.339 38.9691 25.335 39.5981C25.3228 39.8916 25.1976 40.169 24.9854 40.3722C24.7733 40.5754 24.4907 40.6886 24.197 40.6881C23.9034 40.6886 23.6211 40.5753 23.4093 40.3721C23.1974 40.1688 23.0726 39.8914 23.061 39.5981C23.0606 39.4488 23.0896 39.3009 23.1464 39.1629C23.2032 39.0248 23.2866 38.8994 23.3919 38.7936C23.4972 38.6878 23.6224 38.6038 23.7602 38.5464C23.898 38.489 24.0457 38.4593 24.195 38.4591ZM19.959 38.9291C19.9337 38.9326 19.9105 38.9446 19.893 38.9631C19.8723 38.9846 19.8609 39.0133 19.861 39.0431C19.862 39.0726 19.8745 39.1006 19.8957 39.1211C19.917 39.1416 19.9454 39.1531 19.975 39.1531C20.0041 39.1531 20.0321 39.1415 20.0528 39.1209C20.0734 39.1002 20.085 39.0723 20.085 39.0431C20.0856 39.0135 20.0749 38.9849 20.055 38.9631C20.0442 38.9518 20.0311 38.943 20.0166 38.9373C20.0021 38.9316 19.9865 38.9291 19.971 38.9301C19.967 38.9299 19.963 38.9299 19.959 38.9301V38.9291ZM27.959 38.9291C27.9337 38.9326 27.9105 38.9446 27.893 38.9631C27.8723 38.9846 27.8609 39.0133 27.861 39.0431C27.862 39.0726 27.8745 39.1006 27.8957 39.1211C27.917 39.1416 27.9454 39.1531 27.975 39.1531C28.0041 39.1531 28.0321 39.1415 28.0528 39.1209C28.0734 39.1002 28.085 39.0723 28.085 39.0431C28.0856 39.0135 28.0749 38.9849 28.055 38.9631C28.0442 38.9518 28.0311 38.943 28.0166 38.9373C28.0021 38.9316 27.9865 38.9291 27.971 38.9301C27.967 38.9299 27.963 38.9299 27.959 38.9301V38.9291ZM19.959 39.4921C19.9482 39.4939 19.9378 39.4973 19.928 39.5021C19.9016 39.5154 19.8812 39.5383 19.871 39.5661C19.8616 39.5943 19.863 39.6249 19.875 39.6521C19.8882 39.6786 19.9111 39.699 19.939 39.7091C19.9526 39.7145 19.9673 39.7173 19.982 39.7171C20.0126 39.7147 20.041 39.7003 20.061 39.6771C20.0798 39.6546 20.0893 39.6258 20.0874 39.5966C20.0855 39.5673 20.0725 39.54 20.051 39.5201C20.0402 39.5103 20.0275 39.5028 20.0138 39.498C20.0001 39.4932 19.9855 39.4912 19.971 39.4921C19.967 39.4919 19.963 39.4919 19.959 39.4921ZM27.959 39.4921C27.9482 39.4939 27.9378 39.4973 27.928 39.5021C27.9016 39.5154 27.8812 39.5383 27.871 39.5661C27.8616 39.5943 27.863 39.6249 27.875 39.6521C27.8882 39.6786 27.9111 39.699 27.939 39.7091C27.9526 39.7145 27.9673 39.7173 27.982 39.7171C28.0126 39.7147 28.041 39.7003 28.061 39.6771C28.0798 39.6546 28.0893 39.6258 28.0874 39.5966C28.0855 39.5673 28.0725 39.54 28.051 39.5201C28.0402 39.5103 28.0275 39.5028 28.0138 39.498C28.0001 39.4932 27.9855 39.4912 27.971 39.4921C27.967 39.4919 27.963 39.4919 27.959 39.4921ZM19.971 40.0551C19.956 40.0557 19.9414 40.0593 19.9278 40.0657C19.9143 40.072 19.9022 40.081 19.8921 40.092C19.8821 40.1031 19.8743 40.1161 19.8693 40.1301C19.8643 40.1442 19.8622 40.1592 19.863 40.1741C19.8642 40.1888 19.8684 40.2031 19.8752 40.2161C19.8821 40.2292 19.8915 40.2407 19.903 40.2501C19.9136 40.2602 19.9262 40.268 19.9399 40.2732C19.9537 40.2783 19.9683 40.2807 19.983 40.2801C19.9975 40.2781 20.0116 40.2741 20.025 40.2681C20.0387 40.262 20.0509 40.2532 20.061 40.2421C20.0704 40.2306 20.0776 40.2173 20.082 40.2031C20.0874 40.1894 20.0902 40.1748 20.09 40.1601C20.0884 40.1378 20.0803 40.1165 20.0668 40.0988C20.0533 40.081 20.035 40.0676 20.014 40.0601C20.0001 40.0556 19.9855 40.0539 19.971 40.0551ZM27.971 40.0551C27.9561 40.0556 27.9415 40.059 27.928 40.0651C27.9079 40.0752 27.8911 40.0908 27.8796 40.1101C27.8681 40.1294 27.8623 40.1516 27.863 40.1741C27.8662 40.2036 27.8805 40.2307 27.903 40.2501C27.913 40.2601 27.926 40.2701 27.939 40.2731C27.9565 40.2789 27.9752 40.2804 27.9934 40.2775C28.0117 40.2745 28.0289 40.2671 28.0437 40.256C28.0584 40.2449 28.0703 40.2303 28.0782 40.2136C28.086 40.1969 28.0898 40.1785 28.089 40.1601C28.087 40.1301 28.0733 40.1021 28.051 40.0821C28.0401 40.0724 28.0275 40.0651 28.0137 40.0604C28 40.0558 27.9854 40.054 27.971 40.0551ZM19.959 40.6171C19.9482 40.6189 19.9378 40.6223 19.928 40.6271C19.9016 40.6404 19.8812 40.6633 19.871 40.6911C19.8616 40.7193 19.863 40.7499 19.875 40.7771C19.8882 40.8036 19.9111 40.824 19.939 40.8341C19.9526 40.8395 19.9673 40.8423 19.982 40.8421C20.0126 40.8397 20.041 40.8253 20.061 40.8021C20.0798 40.7796 20.0893 40.7508 20.0874 40.7216C20.0855 40.6923 20.0725 40.665 20.051 40.6451C20.0402 40.6353 20.0275 40.6278 20.0138 40.623C20.0001 40.6182 19.9855 40.6162 19.971 40.6171C19.967 40.6169 19.963 40.6169 19.959 40.6171ZM27.959 40.6171C27.9482 40.6189 27.9378 40.6223 27.928 40.6271C27.9016 40.6404 27.8812 40.6633 27.871 40.6911C27.8616 40.7193 27.863 40.7499 27.875 40.7771C27.8882 40.8036 27.9111 40.824 27.939 40.8341C27.9526 40.8395 27.9673 40.8423 27.982 40.8421C28.0126 40.8397 28.041 40.8253 28.061 40.8021C28.0798 40.7796 28.0893 40.7508 28.0874 40.7216C28.0855 40.6923 28.0725 40.665 28.051 40.6451C28.0402 40.6353 28.0275 40.6278 28.0138 40.623C28.0001 40.6182 27.9855 40.6162 27.971 40.6171C27.967 40.6169 27.963 40.6169 27.959 40.6171ZM19.959 41.1801C19.9326 41.1838 19.9084 41.1969 19.891 41.2171C19.8748 41.2359 19.8652 41.2595 19.8638 41.2842C19.8623 41.309 19.8691 41.3335 19.883 41.3541C19.895 41.3721 19.913 41.3881 19.933 41.3961C19.9535 41.4046 19.9762 41.4067 19.998 41.4021C20.0201 41.3985 20.0406 41.3884 20.057 41.3731C20.0725 41.3571 20.0831 41.3371 20.0875 41.3153C20.092 41.2934 20.09 41.2708 20.082 41.2501C20.0737 41.2295 20.0594 41.2119 20.0411 41.1994C20.0228 41.187 20.0011 41.1802 19.979 41.1801H19.959ZM27.959 41.1801C27.9326 41.1838 27.9084 41.1969 27.891 41.2171C27.8748 41.2359 27.8652 41.2595 27.8638 41.2842C27.8623 41.309 27.8691 41.3335 27.883 41.3541C27.895 41.3721 27.913 41.3881 27.933 41.3961C27.9535 41.4046 27.9762 41.4067 27.998 41.4021C28.0201 41.3985 28.0406 41.3884 28.057 41.3731C28.0725 41.3571 28.0831 41.3371 28.0875 41.3153C28.092 41.2934 28.09 41.2708 28.082 41.2501C28.0737 41.2295 28.0594 41.2119 28.0411 41.1994C28.0228 41.187 28.0011 41.1802 27.979 41.1801H27.959ZM19.959 41.7421C19.932 41.7458 19.9074 41.7592 19.8897 41.7798C19.872 41.8005 19.8625 41.8269 19.863 41.8541C19.863 41.9161 19.916 41.9681 19.979 41.9641C20.0058 41.9605 20.0305 41.9472 20.0483 41.9268C20.0662 41.9064 20.076 41.8802 20.076 41.8531C20.076 41.826 20.0662 41.7998 20.0483 41.7794C20.0305 41.7589 20.0058 41.7457 19.979 41.7421H19.959ZM27.959 41.7421C27.932 41.7458 27.9074 41.7592 27.8897 41.7798C27.872 41.8005 27.8625 41.8269 27.863 41.8541C27.863 41.9161 27.916 41.9681 27.979 41.9641C28.0058 41.9605 28.0305 41.9472 28.0483 41.9268C28.0662 41.9064 28.076 41.8802 28.076 41.8531C28.076 41.826 28.0662 41.7998 28.0483 41.7794C28.0305 41.7589 28.0058 41.7457 27.979 41.7421H27.959ZM19.969 42.3021C19.9429 42.3036 19.9181 42.3142 19.899 42.3321C19.8883 42.3436 19.8801 42.3572 19.875 42.3721C19.8689 42.3853 19.8655 42.3996 19.865 42.4141C19.865 42.4291 19.869 42.4441 19.875 42.4571C19.8802 42.4708 19.888 42.4834 19.898 42.4941C19.908 42.5041 19.922 42.5121 19.936 42.5181C19.949 42.5231 19.964 42.5281 19.979 42.5281C20.0087 42.5278 20.0371 42.516 20.0582 42.4951C20.0793 42.4741 20.0915 42.4458 20.092 42.4161C20.0917 42.3864 20.0799 42.3579 20.0589 42.3368C20.038 42.3157 20.0097 42.3036 19.98 42.3031H19.979C19.9756 42.3029 19.9723 42.3029 19.969 42.3031V42.3021ZM27.979 42.3021C27.9642 42.3018 27.9495 42.3044 27.9357 42.3099C27.922 42.3154 27.9095 42.3236 27.899 42.3341C27.878 42.3554 27.8662 42.3841 27.8662 42.4141C27.8662 42.444 27.878 42.4728 27.899 42.4941C27.9203 42.5151 27.949 42.5269 27.979 42.5269C28.0089 42.5269 28.0376 42.5151 28.059 42.4941C28.0694 42.4839 28.0776 42.4718 28.0833 42.4584C28.0889 42.445 28.0919 42.4306 28.092 42.4161C28.0917 42.3864 28.0799 42.3579 28.0589 42.3368C28.038 42.3157 28.0097 42.3036 27.98 42.3031H27.979V42.3021ZM19.959 42.8651C19.9335 42.8686 19.9102 42.881 19.893 42.9001C19.8774 42.9156 19.8668 42.9354 19.8626 42.957C19.8583 42.9786 19.8607 43.0009 19.8693 43.0212C19.8779 43.0414 19.8924 43.0586 19.9109 43.0705C19.9293 43.0825 19.951 43.0886 19.973 43.0881C20.002 43.0885 20.0301 43.0773 20.051 43.0571C20.0722 43.0365 20.0848 43.0086 20.086 42.9791C20.086 42.964 20.083 42.9491 20.0772 42.9352C20.0714 42.9213 20.0629 42.9087 20.0522 42.8981C20.0415 42.8875 20.0289 42.8791 20.0149 42.8735C20.001 42.8678 19.986 42.8649 19.971 42.8651H19.969C19.9656 42.8649 19.9623 42.8649 19.959 42.8651ZM27.959 42.8651C27.9335 42.8686 27.9102 42.881 27.893 42.9001C27.8774 42.9156 27.8668 42.9354 27.8626 42.957C27.8583 42.9786 27.8607 43.0009 27.8693 43.0212C27.8779 43.0414 27.8924 43.0586 27.9109 43.0705C27.9293 43.0825 27.951 43.0886 27.973 43.0881C28.002 43.0885 28.0301 43.0773 28.051 43.0571C28.0722 43.0365 28.0848 43.0086 28.086 42.9791C28.086 42.964 28.083 42.9491 28.0772 42.9352C28.0714 42.9213 28.0629 42.9087 28.0522 42.8981C28.0415 42.8875 28.0289 42.8791 28.0149 42.8735C28.001 42.8678 27.986 42.8649 27.971 42.8651H27.969C27.9656 42.8649 27.9623 42.8649 27.959 42.8651Z" fill="#333333"/>
</svg>
