<svg width="48" height="48" viewBox="0 0 48 48" fill="none" xmlns="http://www.w3.org/2000/svg">
<path d="M14.346 4.09402C13.476 4.09402 12.777 4.79302 12.777 5.66202V42.523C12.777 43.393 13.477 44.093 14.346 44.093H34.05C34.92 44.093 35.618 43.393 35.618 42.523V5.66302C35.618 4.79302 34.919 4.09302 34.05 4.09302H14.346V4.09402ZM14.776 4.59402H33.616C34.446 4.59402 35.117 5.27702 35.117 6.12502V42.065C35.117 42.912 34.447 43.594 33.615 43.594H14.775C13.945 43.594 13.275 42.912 13.275 42.064V6.12502C13.275 5.27702 13.945 4.59402 14.775 4.59402H14.776ZM16.456 9.23802V9.24002C16.3312 9.2419 16.2079 9.2685 16.0935 9.31828C15.979 9.36805 15.8755 9.44002 15.789 9.53002L13.98 11.387C13.8931 11.4763 13.8248 11.5818 13.7788 11.6976C13.7329 11.8134 13.7103 11.9371 13.7124 12.0616C13.7144 12.1861 13.741 12.309 13.7907 12.4232C13.8404 12.5374 13.9122 12.6407 14.002 12.727C14.0908 12.8146 14.1961 12.8837 14.3119 12.9301C14.4276 12.9766 14.5514 12.9996 14.6762 12.9977C14.8009 12.9959 14.924 12.9692 15.0383 12.9193C15.1526 12.8694 15.2558 12.7972 15.342 12.707L17.15 10.847C17.2369 10.7578 17.3053 10.6523 17.3514 10.5366C17.3974 10.4209 17.4201 10.2972 17.4181 10.1727C17.4161 10.0481 17.3896 9.92521 17.34 9.81097C17.2904 9.69674 17.2187 9.59344 17.129 9.50702C17.0399 9.41998 16.9345 9.35141 16.8188 9.30524C16.7032 9.25908 16.5795 9.23623 16.455 9.23802H16.456ZM23.395 9.23802V9.24002C23.2703 9.24203 23.1473 9.2687 23.033 9.31847C22.9187 9.36824 22.8154 9.44014 22.729 9.53002L20.919 11.387C20.8321 11.4763 20.7638 11.5818 20.7178 11.6976C20.6719 11.8134 20.6493 11.9371 20.6514 12.0616C20.6534 12.1861 20.68 12.309 20.7297 12.4232C20.7794 12.5374 20.8512 12.6407 20.941 12.727C21.0298 12.8146 21.1351 12.8837 21.2509 12.9301C21.3666 12.9766 21.4904 12.9996 21.6152 12.9977C21.7399 12.9959 21.863 12.9692 21.9773 12.9193C22.0916 12.8694 22.1948 12.7972 22.281 12.707L24.09 10.847C24.1768 10.7578 24.2452 10.6522 24.2911 10.5364C24.3371 10.4207 24.3596 10.297 24.3576 10.1724C24.3556 10.0479 24.3289 9.92502 24.2792 9.81082C24.2295 9.69662 24.1577 9.59338 24.068 9.50702C23.9789 9.41998 23.8735 9.35141 23.7578 9.30524C23.6422 9.25908 23.5185 9.23623 23.394 9.23802H23.395ZM26.957 9.23802V9.24002C26.8323 9.24203 26.7093 9.2687 26.595 9.31847C26.4807 9.36824 26.3774 9.44014 26.291 9.53002L24.482 11.387C24.3951 11.4763 24.3268 11.5818 24.2808 11.6976C24.2349 11.8134 24.2123 11.9371 24.2144 12.0616C24.2164 12.1861 24.243 12.309 24.2927 12.4232C24.3424 12.5374 24.4142 12.6407 24.504 12.727C24.5928 12.8146 24.6981 12.8837 24.8139 12.9301C24.9296 12.9766 25.0534 12.9996 25.1782 12.9977C25.3029 12.9959 25.426 12.9692 25.5403 12.9193C25.6546 12.8694 25.7578 12.7972 25.844 12.707L27.652 10.847C27.7389 10.7578 27.8073 10.6523 27.8534 10.5366C27.8994 10.4209 27.9221 10.2972 27.9201 10.1727C27.9181 10.0481 27.8916 9.92521 27.842 9.81097C27.7924 9.69674 27.7207 9.59344 27.631 9.50702C27.5419 9.41998 27.4365 9.35141 27.3208 9.30524C27.2052 9.25908 27.0815 9.23623 26.957 9.23802ZM30.158 9.23802V9.24002C30.0333 9.24203 29.9103 9.2687 29.796 9.31847C29.6817 9.36824 29.5784 9.44014 29.492 9.53002L27.684 11.387C27.5971 11.4762 27.5286 11.5817 27.4826 11.6974C27.4366 11.8132 27.4139 11.9369 27.4159 12.0614C27.4178 12.1859 27.4444 12.3088 27.494 12.4231C27.5436 12.5373 27.6153 12.6406 27.705 12.727C27.7938 12.8146 27.8991 12.8837 28.0149 12.9301C28.1306 12.9766 28.2544 12.9996 28.3792 12.9977C28.5039 12.9959 28.627 12.9692 28.7413 12.9193C28.8556 12.8694 28.9588 12.7972 29.045 12.707L30.853 10.847C30.9399 10.7578 31.0083 10.6523 31.0544 10.5366C31.1004 10.4209 31.1231 10.2972 31.1211 10.1727C31.1191 10.0481 31.0926 9.92521 31.043 9.81097C30.9934 9.69674 30.9217 9.59344 30.832 9.50702C30.7429 9.41998 30.6375 9.35141 30.5218 9.30524C30.4062 9.25908 30.2825 9.23623 30.158 9.23802ZM33.721 9.23802V9.24002C33.5963 9.24203 33.4733 9.2687 33.359 9.31847C33.2447 9.36824 33.1414 9.44014 33.055 9.53002L31.246 11.387C31.1591 11.4763 31.0908 11.5818 31.0448 11.6976C30.9989 11.8134 30.9763 11.9371 30.9784 12.0616C30.9804 12.1861 31.007 12.309 31.0567 12.4232C31.1064 12.5374 31.1782 12.6407 31.268 12.727C31.3568 12.8146 31.4621 12.8837 31.5779 12.9301C31.6936 12.9766 31.8174 12.9996 31.9422 12.9977C32.0669 12.9959 32.19 12.9692 32.3043 12.9193C32.4186 12.8694 32.5218 12.7972 32.608 12.707L34.416 10.847C34.5029 10.7578 34.5713 10.6523 34.6174 10.5366C34.6634 10.4209 34.686 10.2972 34.6841 10.1727C34.6821 10.0481 34.6556 9.92521 34.606 9.81097C34.5564 9.69674 34.4847 9.59344 34.395 9.50702C34.3059 9.41998 34.2005 9.35141 34.0848 9.30524C33.9692 9.25908 33.8455 9.23623 33.721 9.23802ZM20.018 9.24002C19.8933 9.24203 19.7703 9.2687 19.656 9.31847C19.5417 9.36824 19.4384 9.44014 19.352 9.53002L17.543 11.387C17.4561 11.4762 17.3876 11.5817 17.3416 11.6974C17.2956 11.8132 17.2729 11.9369 17.2749 12.0614C17.2768 12.1859 17.3034 12.3088 17.353 12.4231C17.4026 12.5373 17.4743 12.6406 17.564 12.727C17.6528 12.8146 17.7581 12.8837 17.8739 12.9301C17.9896 12.9766 18.1134 12.9996 18.2382 12.9977C18.3629 12.9959 18.486 12.9692 18.6003 12.9193C18.7146 12.8694 18.8178 12.7972 18.904 12.707L20.713 10.852C20.7998 10.7628 20.8682 10.6572 20.9141 10.5414C20.9601 10.4257 20.9826 10.302 20.9806 10.1774C20.9786 10.0529 20.9519 9.93002 20.9022 9.81582C20.8525 9.70162 20.7807 9.59838 20.691 9.51202C20.6021 9.42492 20.4969 9.35623 20.3814 9.3099C20.2659 9.26356 20.1424 9.24049 20.018 9.24202V9.24002ZM16.52 9.72302C16.6114 9.73105 16.6978 9.76861 16.766 9.83002C17.172 10.192 16.691 10.616 16.516 10.799L15.65 11.703C15.043 12.335 14.78 12.761 14.355 12.353C13.995 11.98 14.312 11.758 15 11.059L15.865 10.156C16.071 9.95602 16.283 9.71102 16.52 9.72302ZM20.082 9.72302C20.1734 9.73105 20.2598 9.76861 20.328 9.83002C20.735 10.192 20.253 10.616 20.078 10.799L19.213 11.703C18.606 12.335 18.342 12.761 17.918 12.353C17.558 11.98 17.874 11.758 18.563 11.059L19.428 10.156C19.633 9.95602 19.846 9.71102 20.082 9.72302ZM23.459 9.72302C23.5504 9.73105 23.6368 9.76861 23.705 9.83002C24.112 10.192 23.63 10.616 23.455 10.799L22.59 11.703C21.983 12.335 21.719 12.761 21.295 12.353C20.935 11.98 21.251 11.758 21.939 11.059L22.805 10.156C23.01 9.95602 23.223 9.71102 23.459 9.72302ZM27.022 9.72302C27.1134 9.73105 27.1998 9.76861 27.268 9.83002C27.674 10.192 27.193 10.616 27.018 10.799L26.152 11.703C25.545 12.335 25.282 12.761 24.857 12.353C24.497 11.98 24.814 11.758 25.502 11.059L26.367 10.156C26.573 9.95602 26.785 9.71102 27.021 9.72302H27.022ZM30.222 9.72302C30.3138 9.73084 30.4005 9.76841 30.469 9.83002C30.875 10.192 30.394 10.616 30.219 10.799L29.353 11.703C28.746 12.335 28.483 12.761 28.059 12.353C27.699 11.98 28.015 11.758 28.703 11.059L29.568 10.156C29.774 9.95602 29.986 9.71102 30.223 9.72302H30.222ZM33.785 9.72302C33.8764 9.73105 33.9628 9.76861 34.031 9.83002C34.438 10.192 33.956 10.616 33.781 10.799L32.916 11.703C32.309 12.335 32.045 12.761 31.621 12.353C31.261 11.98 31.577 11.758 32.266 11.059L33.131 10.156C33.336 9.95602 33.549 9.71102 33.785 9.72302ZM13.795 14.98C13.7802 14.9801 13.7656 14.9832 13.752 14.989C13.7384 14.9948 13.726 15.0033 13.7157 15.0139C13.7054 15.0245 13.6973 15.037 13.6918 15.0508C13.6864 15.0645 13.6837 15.0792 13.684 15.094C13.684 15.155 13.734 15.206 13.794 15.207C13.857 15.207 13.907 15.157 13.908 15.094C13.9082 15.0791 13.9055 15.0642 13.8999 15.0503C13.8944 15.0364 13.8861 15.0238 13.8755 15.0132C13.865 15.0025 13.8525 14.9941 13.8386 14.9884C13.8248 14.9827 13.8099 14.9799 13.795 14.98ZM14.357 14.98C14.3269 14.9803 14.2982 14.9924 14.277 15.0138C14.2558 15.0351 14.244 15.064 14.244 15.094C14.244 15.155 14.296 15.207 14.357 15.207C14.419 15.207 14.468 15.155 14.469 15.094V15.074C14.4651 15.0473 14.4515 15.023 14.4309 15.0057C14.4102 14.9884 14.3839 14.9792 14.357 14.98ZM14.92 14.98C14.905 14.9799 14.8902 14.9827 14.8763 14.9884C14.8625 14.9941 14.8499 15.0025 14.8394 15.0132C14.8289 15.0238 14.8206 15.0364 14.815 15.0503C14.8094 15.0642 14.8067 15.0791 14.807 15.094C14.807 15.156 14.857 15.208 14.92 15.207C14.981 15.207 15.03 15.155 15.031 15.094V15.074C15.0271 15.0475 15.0137 15.0234 14.9932 15.0061C14.9728 14.9887 14.9468 14.9795 14.92 14.98ZM15.482 14.98C15.467 14.9799 15.4522 14.9827 15.4383 14.9884C15.4245 14.9941 15.4119 15.0025 15.4014 15.0132C15.3909 15.0238 15.3826 15.0364 15.377 15.0503C15.3714 15.0642 15.3687 15.0791 15.369 15.094C15.369 15.156 15.42 15.208 15.482 15.207C15.544 15.207 15.593 15.155 15.594 15.094V15.086C15.5924 15.0574 15.58 15.0304 15.5591 15.0107C15.5383 14.991 15.5107 14.98 15.482 14.98ZM16.045 14.98C16.03 14.9799 16.0152 14.9827 16.0013 14.9884C15.9875 14.9941 15.9749 15.0025 15.9644 15.0132C15.9539 15.0238 15.9456 15.0364 15.94 15.0503C15.9344 15.0642 15.9317 15.0791 15.932 15.094C15.932 15.156 15.982 15.208 16.045 15.207C16.106 15.207 16.155 15.155 16.156 15.094V15.086C16.1545 15.0575 16.1421 15.0307 16.1215 15.011C16.1009 14.9913 16.0735 14.9802 16.045 14.98ZM16.607 14.98C16.592 14.9799 16.5772 14.9827 16.5633 14.9884C16.5495 14.9941 16.5369 15.0025 16.5264 15.0132C16.5159 15.0238 16.5076 15.0364 16.502 15.0503C16.4964 15.0642 16.4937 15.0791 16.494 15.094C16.494 15.156 16.545 15.208 16.607 15.207C16.669 15.207 16.718 15.155 16.719 15.094V15.086C16.7174 15.0574 16.705 15.0304 16.6841 15.0107C16.6633 14.991 16.6357 14.98 16.607 14.98ZM17.168 14.98C17.1532 14.9801 17.1386 14.9832 17.125 14.989C17.1114 14.9948 17.099 15.0033 17.0887 15.0139C17.0784 15.0245 17.0703 15.037 17.0648 15.0508C17.0594 15.0645 17.0567 15.0792 17.057 15.094C17.057 15.155 17.107 15.207 17.168 15.207C17.1979 15.2068 17.2265 15.1948 17.2476 15.1736C17.2687 15.1525 17.2807 15.1239 17.281 15.094V15.086C17.2794 15.0572 17.2668 15.0301 17.2458 15.0103C17.2247 14.9906 17.1968 14.9797 17.168 14.98ZM17.731 14.98C17.7161 14.98 17.7014 14.983 17.6876 14.9887C17.6739 14.9945 17.6615 15.0029 17.6511 15.0135C17.6406 15.0241 17.6324 15.0367 17.6269 15.0505C17.6214 15.0644 17.6187 15.0791 17.619 15.094C17.619 15.155 17.669 15.207 17.73 15.207C17.76 15.207 17.7889 15.1951 17.8102 15.174C17.8316 15.1528 17.8437 15.1241 17.844 15.094V15.086C17.8424 15.057 17.8297 15.0298 17.8084 15.01C17.7871 14.9902 17.759 14.9795 17.73 14.98H17.731ZM18.293 14.98C18.2782 14.9801 18.2636 14.9832 18.25 14.989C18.2364 14.9948 18.224 15.0033 18.2137 15.0139C18.2034 15.0245 18.1953 15.037 18.1898 15.0508C18.1844 15.0645 18.1817 15.0792 18.182 15.094C18.182 15.155 18.232 15.207 18.293 15.207C18.3229 15.2068 18.3515 15.1948 18.3726 15.1736C18.3937 15.1525 18.4057 15.1239 18.406 15.094V15.086C18.4044 15.0572 18.3918 15.0301 18.3708 15.0103C18.3497 14.9906 18.3218 14.9797 18.293 14.98ZM18.856 14.98C18.8411 14.98 18.8264 14.983 18.8126 14.9887C18.7989 14.9945 18.7865 15.0029 18.7761 15.0135C18.7656 15.0241 18.7574 15.0367 18.7519 15.0505C18.7464 15.0644 18.7437 15.0791 18.744 15.094C18.744 15.155 18.794 15.207 18.855 15.207C18.917 15.207 18.966 15.155 18.967 15.094V15.074C18.9631 15.0475 18.9497 15.0234 18.9292 15.0061C18.9088 14.9887 18.8828 14.9795 18.856 14.98ZM19.418 14.98C19.403 14.9799 19.3882 14.9827 19.3743 14.9884C19.3605 14.9941 19.3479 15.0025 19.3374 15.0132C19.3269 15.0238 19.3186 15.0364 19.313 15.0503C19.3074 15.0642 19.3047 15.0791 19.305 15.094C19.305 15.156 19.356 15.208 19.418 15.207C19.479 15.207 19.528 15.155 19.529 15.094V15.086C19.5274 15.0575 19.5151 15.0307 19.4945 15.011C19.4739 14.9913 19.4465 14.9802 19.418 14.98ZM19.981 14.98C19.9659 14.9797 19.951 14.9825 19.937 14.9881C19.9231 14.9938 19.9104 15.0022 19.8998 15.0128C19.8891 15.0234 19.8807 15.0361 19.8751 15.0501C19.8695 15.064 19.8667 15.079 19.867 15.094C19.867 15.156 19.919 15.208 19.98 15.207C20.042 15.207 20.091 15.155 20.092 15.094V15.086C20.0904 15.0575 20.0781 15.0307 20.0575 15.011C20.0369 14.9913 20.0095 14.9802 19.981 14.98ZM20.543 14.98C20.528 14.9799 20.5132 14.9827 20.4993 14.9884C20.4855 14.9941 20.4729 15.0025 20.4624 15.0132C20.4519 15.0238 20.4436 15.0364 20.438 15.0503C20.4324 15.0642 20.4297 15.0791 20.43 15.094C20.43 15.156 20.481 15.208 20.543 15.207C20.604 15.207 20.653 15.155 20.654 15.094V15.086C20.6524 15.0575 20.6401 15.0307 20.6195 15.011C20.5989 14.9913 20.5715 14.9802 20.543 14.98ZM21.106 14.98C21.0909 14.9797 21.076 14.9825 21.062 14.9881C21.0481 14.9938 21.0354 15.0022 21.0248 15.0128C21.0141 15.0234 21.0057 15.0361 21.0001 15.0501C20.9945 15.064 20.9917 15.079 20.992 15.094C20.992 15.156 21.044 15.208 21.105 15.207C21.167 15.207 21.216 15.155 21.217 15.094V15.086C21.2154 15.0575 21.2031 15.0307 21.1825 15.011C21.1619 14.9913 21.1345 14.9802 21.106 14.98ZM21.666 14.98C21.6512 14.9801 21.6366 14.9832 21.623 14.989C21.6094 14.9948 21.597 15.0033 21.5867 15.0139C21.5764 15.0245 21.5683 15.037 21.5628 15.0508C21.5574 15.0645 21.5547 15.0792 21.555 15.094C21.555 15.155 21.605 15.207 21.666 15.207C21.6959 15.2068 21.7245 15.1948 21.7456 15.1736C21.7667 15.1525 21.7787 15.1239 21.779 15.094V15.086C21.7774 15.0572 21.7648 15.0301 21.7438 15.0103C21.7227 14.9906 21.6948 14.9797 21.666 14.98ZM22.229 14.98C22.2141 14.98 22.1994 14.983 22.1856 14.9887C22.1719 14.9945 22.1595 15.0029 22.1491 15.0135C22.1386 15.0241 22.1304 15.0367 22.1249 15.0505C22.1194 15.0644 22.1167 15.0791 22.117 15.094C22.117 15.155 22.167 15.207 22.228 15.207C22.258 15.207 22.2869 15.1951 22.3082 15.174C22.3296 15.1528 22.3417 15.1241 22.342 15.094V15.086C22.3404 15.0572 22.3278 15.0301 22.3068 15.0103C22.2857 14.9906 22.2578 14.9797 22.229 14.98ZM22.791 14.98C22.7762 14.9801 22.7616 14.9832 22.748 14.989C22.7344 14.9948 22.722 15.0033 22.7117 15.0139C22.7014 15.0245 22.6933 15.037 22.6878 15.0508C22.6824 15.0645 22.6797 15.0792 22.68 15.094C22.68 15.155 22.73 15.206 22.791 15.207C22.853 15.207 22.904 15.157 22.904 15.094C22.9042 15.0791 22.9015 15.0642 22.8959 15.0503C22.8904 15.0364 22.8821 15.0238 22.8715 15.0132C22.861 15.0025 22.8485 14.9941 22.8346 14.9884C22.8208 14.9827 22.8059 14.9799 22.791 14.98ZM23.354 14.98C23.3391 14.98 23.3244 14.983 23.3106 14.9887C23.2969 14.9945 23.2845 15.0029 23.2741 15.0135C23.2636 15.0241 23.2554 15.0367 23.2499 15.0505C23.2444 15.0644 23.2417 15.0791 23.242 15.094C23.242 15.155 23.292 15.207 23.353 15.207C23.3827 15.2065 23.411 15.1944 23.4319 15.1733C23.4529 15.1522 23.4647 15.1237 23.465 15.094V15.074C23.4609 15.0476 23.4474 15.0236 23.427 15.0063C23.4066 14.989 23.3807 14.9797 23.354 14.98ZM23.916 14.98C23.901 14.9799 23.8862 14.9827 23.8723 14.9884C23.8585 14.9941 23.8459 15.0025 23.8354 15.0132C23.8249 15.0238 23.8166 15.0364 23.811 15.0503C23.8054 15.0642 23.8027 15.0791 23.803 15.094C23.803 15.156 23.854 15.208 23.916 15.207C23.977 15.207 24.026 15.155 24.027 15.094V15.074C24.0231 15.0475 24.0097 15.0234 23.9892 15.0061C23.9688 14.9887 23.9428 14.9795 23.916 14.98ZM24.479 14.98C24.4639 14.9797 24.449 14.9825 24.435 14.9881C24.4211 14.9938 24.4084 15.0022 24.3978 15.0128C24.3871 15.0234 24.3787 15.0361 24.3731 15.0501C24.3675 15.064 24.3647 15.079 24.365 15.094C24.365 15.156 24.417 15.208 24.479 15.207C24.539 15.207 24.589 15.155 24.589 15.094V15.086C24.5875 15.0577 24.5753 15.031 24.5549 15.0114C24.5344 14.9917 24.5073 14.9805 24.479 14.98ZM25.041 14.98C25.026 14.9799 25.0112 14.9827 24.9973 14.9884C24.9835 14.9941 24.9709 15.0025 24.9604 15.0132C24.9499 15.0238 24.9416 15.0364 24.936 15.0503C24.9304 15.0642 24.9277 15.0791 24.928 15.094C24.928 15.156 24.979 15.208 25.041 15.207C25.102 15.207 25.151 15.155 25.152 15.094V15.086C25.1505 15.0575 25.1381 15.0307 25.1175 15.011C25.0969 14.9913 25.0695 14.9802 25.041 14.98ZM25.601 14.98C25.5863 14.9803 25.5718 14.9834 25.5583 14.9893C25.5448 14.9952 25.5326 15.0036 25.5224 15.0142C25.5121 15.0248 25.5041 15.0373 25.4987 15.051C25.4933 15.0647 25.4907 15.0793 25.491 15.094C25.491 15.155 25.541 15.207 25.601 15.207C25.631 15.207 25.6599 15.1951 25.6812 15.174C25.7026 15.1528 25.7147 15.1241 25.715 15.094V15.086C25.7134 15.0572 25.7008 15.0301 25.6798 15.0103C25.6587 14.9906 25.6308 14.9797 25.602 14.98H25.601ZM26.164 14.98C26.1492 14.9801 26.1346 14.9832 26.121 14.989C26.1074 14.9948 26.095 15.0033 26.0847 15.0139C26.0744 15.0245 26.0663 15.037 26.0608 15.0508C26.0554 15.0645 26.0527 15.0792 26.053 15.094C26.053 15.155 26.103 15.207 26.164 15.207C26.1939 15.2068 26.2225 15.1948 26.2436 15.1736C26.2647 15.1525 26.2767 15.1239 26.277 15.094V15.086C26.2754 15.0572 26.2628 15.0301 26.2418 15.0103C26.2207 14.9906 26.1928 14.9797 26.164 14.98ZM26.727 14.98C26.7121 14.98 26.6974 14.983 26.6836 14.9887C26.6699 14.9945 26.6575 15.0029 26.6471 15.0135C26.6366 15.0241 26.6284 15.0367 26.6229 15.0505C26.6174 15.0644 26.6147 15.0791 26.615 15.094C26.615 15.155 26.665 15.207 26.727 15.207C26.7569 15.2068 26.7855 15.1948 26.8066 15.1736C26.8277 15.1525 26.8397 15.1239 26.84 15.094V15.086C26.8384 15.0572 26.8258 15.0301 26.8048 15.0103C26.7837 14.9906 26.7558 14.9797 26.727 14.98ZM27.289 14.98C27.2742 14.9801 27.2596 14.9832 27.246 14.989C27.2324 14.9948 27.22 15.0033 27.2097 15.0139C27.1994 15.0245 27.1913 15.037 27.1858 15.0508C27.1804 15.0645 27.1777 15.0792 27.178 15.094C27.178 15.155 27.228 15.206 27.289 15.207C27.351 15.207 27.402 15.157 27.402 15.094C27.4022 15.0791 27.3995 15.0642 27.3939 15.0503C27.3884 15.0364 27.3801 15.0238 27.3695 15.0132C27.359 15.0025 27.3464 14.9941 27.3326 14.9884C27.3188 14.9827 27.3039 14.9799 27.289 14.98ZM27.852 14.98C27.8371 14.98 27.8224 14.983 27.8086 14.9887C27.7949 14.9945 27.7825 15.0029 27.7721 15.0135C27.7616 15.0241 27.7534 15.0367 27.7479 15.0505C27.7424 15.0644 27.7397 15.0791 27.74 15.094C27.74 15.155 27.79 15.207 27.852 15.207C27.912 15.207 27.962 15.155 27.962 15.094C27.964 15.086 27.964 15.082 27.962 15.074C27.9581 15.0477 27.9448 15.0237 27.9246 15.0064C27.9044 14.9891 27.8786 14.9797 27.852 14.98ZM28.414 14.98C28.399 14.9799 28.3842 14.9827 28.3703 14.9884C28.3565 14.9941 28.3439 15.0025 28.3334 15.0132C28.3229 15.0238 28.3146 15.0364 28.309 15.0503C28.3034 15.0642 28.3007 15.0791 28.301 15.094C28.301 15.156 28.352 15.208 28.414 15.207C28.475 15.207 28.524 15.155 28.525 15.094V15.086C28.5235 15.0577 28.5113 15.031 28.4909 15.0114C28.4704 14.9917 28.4433 14.9805 28.415 14.98H28.414ZM28.977 14.98C28.9619 14.9797 28.947 14.9825 28.933 14.9881C28.9191 14.9938 28.9064 15.0022 28.8958 15.0128C28.8851 15.0234 28.8767 15.0361 28.8711 15.0501C28.8655 15.064 28.8627 15.079 28.863 15.094C28.863 15.156 28.915 15.208 28.977 15.207C29.037 15.207 29.087 15.155 29.087 15.094V15.086C29.0855 15.0577 29.0733 15.031 29.0529 15.0114C29.0324 14.9917 29.0053 14.9805 28.977 14.98ZM29.539 14.98C29.524 14.9799 29.5092 14.9827 29.4953 14.9884C29.4815 14.9941 29.4689 15.0025 29.4584 15.0132C29.4479 15.0238 29.4396 15.0364 29.434 15.0503C29.4284 15.0642 29.4257 15.0791 29.426 15.094C29.426 15.156 29.477 15.208 29.539 15.207C29.6 15.207 29.649 15.155 29.65 15.094V15.086C29.6485 15.0577 29.6363 15.031 29.6159 15.0114C29.5954 14.9917 29.5683 14.9805 29.54 14.98H29.539ZM30.099 14.98C30.0843 14.9803 30.0698 14.9834 30.0563 14.9893C30.0428 14.9952 30.0306 15.0036 30.0204 15.0142C30.0101 15.0248 30.0021 15.0373 29.9967 15.051C29.9913 15.0647 29.9887 15.0793 29.989 15.094C29.989 15.155 30.038 15.207 30.099 15.207C30.129 15.207 30.1579 15.1951 30.1792 15.174C30.2006 15.1528 30.2127 15.1241 30.213 15.094V15.086C30.2114 15.0572 30.1988 15.0301 30.1778 15.0103C30.1567 14.9906 30.1288 14.9797 30.1 14.98H30.099ZM30.662 14.98C30.6472 14.9801 30.6326 14.9832 30.619 14.989C30.6054 14.9948 30.593 15.0033 30.5827 15.0139C30.5724 15.0245 30.5643 15.037 30.5588 15.0508C30.5534 15.0645 30.5507 15.0792 30.551 15.094C30.551 15.155 30.601 15.207 30.662 15.207C30.6919 15.2068 30.7205 15.1948 30.7416 15.1736C30.7627 15.1525 30.7747 15.1239 30.775 15.094V15.086C30.7734 15.0572 30.7608 15.0301 30.7398 15.0103C30.7187 14.9906 30.6908 14.9797 30.662 14.98ZM31.225 14.98C31.2101 14.98 31.1954 14.983 31.1817 14.9887C31.1679 14.9945 31.1555 15.0029 31.1451 15.0135C31.1346 15.0241 31.1264 15.0367 31.1209 15.0505C31.1154 15.0644 31.1127 15.0791 31.113 15.094C31.113 15.155 31.163 15.207 31.225 15.207C31.2549 15.2068 31.2835 15.1948 31.3046 15.1736C31.3257 15.1525 31.3377 15.1239 31.338 15.094V15.086C31.3364 15.0572 31.3238 15.0301 31.3028 15.0103C31.2817 14.9906 31.2538 14.9797 31.225 14.98ZM31.787 14.98C31.7722 14.9801 31.7576 14.9832 31.744 14.989C31.7304 14.9948 31.718 15.0033 31.7077 15.0139C31.6974 15.0245 31.6893 15.037 31.6838 15.0508C31.6784 15.0645 31.6757 15.0792 31.676 15.094C31.676 15.155 31.726 15.207 31.787 15.207C31.848 15.207 31.897 15.155 31.898 15.094V15.074C31.8941 15.0477 31.8808 15.0237 31.8606 15.0064C31.8404 14.9891 31.8146 14.9797 31.788 14.98H31.787ZM32.35 14.98C32.3349 14.9797 32.32 14.9825 32.306 14.9881C32.2921 14.9938 32.2794 15.0022 32.2688 15.0128C32.2581 15.0234 32.2497 15.0361 32.2441 15.0501C32.2385 15.064 32.2357 15.079 32.236 15.094C32.236 15.156 32.288 15.208 32.35 15.207C32.41 15.207 32.46 15.155 32.46 15.094C32.462 15.086 32.462 15.082 32.46 15.074C32.4561 15.0477 32.4428 15.0237 32.4226 15.0064C32.4024 14.9891 32.3766 14.9797 32.35 14.98ZM32.912 14.98C32.897 14.9799 32.8822 14.9827 32.8683 14.9884C32.8545 14.9941 32.8419 15.0025 32.8314 15.0132C32.8209 15.0238 32.8126 15.0364 32.807 15.0503C32.8014 15.0642 32.7987 15.0791 32.799 15.094C32.799 15.156 32.85 15.208 32.912 15.207C32.973 15.207 33.022 15.155 33.023 15.094V15.086C33.0215 15.0577 33.0093 15.031 32.9889 15.0114C32.9684 14.9917 32.9413 14.9805 32.913 14.98H32.912ZM33.475 14.98C33.4599 14.9797 33.445 14.9825 33.431 14.9881C33.4171 14.9938 33.4044 15.0022 33.3938 15.0128C33.3831 15.0234 33.3747 15.0361 33.3691 15.0501C33.3635 15.064 33.3607 15.079 33.361 15.094C33.361 15.156 33.413 15.208 33.475 15.207C33.5043 15.206 33.5322 15.1937 33.5527 15.1726C33.5732 15.1516 33.5847 15.1234 33.585 15.094V15.086C33.5835 15.0577 33.5713 15.031 33.5509 15.0114C33.5304 14.9917 33.5033 14.9805 33.475 14.98ZM34.037 14.98C34.022 14.9799 34.0072 14.9827 33.9933 14.9884C33.9795 14.9941 33.9669 15.0025 33.9564 15.0132C33.9459 15.0238 33.9376 15.0364 33.932 15.0503C33.9264 15.0642 33.9237 15.0791 33.924 15.094C33.924 15.156 33.975 15.208 34.037 15.207C34.0665 15.2062 34.0946 15.194 34.1153 15.1729C34.136 15.1519 34.1477 15.1236 34.148 15.094V15.086C34.1465 15.0577 34.1343 15.031 34.1139 15.0114C34.0934 14.9917 34.0663 14.9805 34.038 14.98H34.037ZM34.597 14.98C34.5823 14.9803 34.5678 14.9834 34.5543 14.9893C34.5408 14.9952 34.5286 15.0036 34.5184 15.0142C34.5081 15.0248 34.5001 15.0373 34.4947 15.051C34.4893 15.0647 34.4867 15.0793 34.487 15.094C34.487 15.155 34.536 15.207 34.597 15.207C34.627 15.207 34.6559 15.1951 34.6772 15.174C34.6986 15.1528 34.7107 15.1241 34.711 15.094V15.086C34.7094 15.0572 34.6968 15.0301 34.6758 15.0103C34.6547 14.9906 34.6268 14.9797 34.598 14.98H34.597ZM16.455 17.865C16.3303 17.867 16.2073 17.8937 16.093 17.9435C15.9787 17.9932 15.8754 18.0651 15.789 18.155L13.98 20.012C13.8931 20.1013 13.8248 20.2068 13.7788 20.3226C13.7329 20.4384 13.7103 20.5621 13.7124 20.6866C13.7144 20.8111 13.741 20.934 13.7907 21.0482C13.8404 21.1624 13.9122 21.2657 14.002 21.352C14.0907 21.4396 14.196 21.5087 14.3116 21.5553C14.4273 21.6019 14.5511 21.625 14.6757 21.6233C14.8004 21.6216 14.9235 21.5952 15.0379 21.5455C15.1523 21.4959 15.2556 21.424 15.342 21.334L17.15 19.474C17.2369 19.3848 17.3053 19.2793 17.3514 19.1636C17.3974 19.0479 17.4201 18.9242 17.4181 18.7997C17.4161 18.6751 17.3896 18.5522 17.34 18.438C17.2904 18.3237 17.2187 18.2204 17.129 18.134C17.0399 18.047 16.9345 17.9784 16.8188 17.9322C16.7032 17.8861 16.5795 17.8632 16.455 17.865ZM20.018 17.865C19.8933 17.867 19.7703 17.8937 19.656 17.9435C19.5417 17.9932 19.4384 18.0651 19.352 18.155L17.543 20.012C17.4561 20.1012 17.3876 20.2067 17.3416 20.3224C17.2956 20.4382 17.2729 20.5619 17.2749 20.6864C17.2768 20.8109 17.3034 20.9338 17.353 21.0481C17.4026 21.1623 17.4743 21.2656 17.564 21.352C17.6527 21.4396 17.758 21.5087 17.8736 21.5553C17.9893 21.6019 18.1131 21.625 18.2377 21.6233C18.3624 21.6216 18.4855 21.5952 18.5999 21.5455C18.7143 21.4959 18.8176 21.424 18.904 21.334L20.713 19.477C20.7998 19.3878 20.8682 19.2822 20.9141 19.1664C20.9601 19.0507 20.9826 18.927 20.9806 18.8024C20.9786 18.6779 20.9519 18.555 20.9022 18.4408C20.8525 18.3266 20.7807 18.2234 20.691 18.137C20.6021 18.0499 20.4969 17.9812 20.3814 17.9349C20.2659 17.8886 20.1424 17.8655 20.018 17.867V17.865ZM23.395 17.865C23.2703 17.8671 23.1473 17.8938 23.033 17.9435C22.9187 17.9933 22.8154 18.0652 22.729 18.155L20.919 20.012C20.8321 20.1013 20.7638 20.2068 20.7178 20.3226C20.6719 20.4384 20.6493 20.5621 20.6514 20.6866C20.6534 20.8111 20.68 20.934 20.7297 21.0482C20.7794 21.1624 20.8512 21.2657 20.941 21.352C21.0297 21.4396 21.135 21.5087 21.2506 21.5553C21.3663 21.6019 21.4901 21.625 21.6147 21.6233C21.7394 21.6216 21.8625 21.5952 21.9769 21.5455C22.0913 21.4959 22.1946 21.424 22.281 21.334L24.09 19.474C24.1768 19.3848 24.2452 19.2792 24.2911 19.1634C24.3371 19.0477 24.3596 18.924 24.3576 18.7994C24.3556 18.6749 24.3289 18.552 24.2792 18.4378C24.2295 18.3236 24.1577 18.2204 24.068 18.134C23.9789 18.047 23.8735 17.9784 23.7578 17.9322C23.6422 17.8861 23.5185 17.8632 23.394 17.865H23.395ZM26.957 17.865C26.8323 17.8671 26.7093 17.8938 26.595 17.9435C26.4807 17.9933 26.3774 18.0652 26.291 18.155L24.482 20.012C24.3951 20.1013 24.3268 20.2068 24.2808 20.3226C24.2349 20.4384 24.2123 20.5621 24.2144 20.6866C24.2164 20.8111 24.243 20.934 24.2927 21.0482C24.3424 21.1624 24.4142 21.2657 24.504 21.352C24.5927 21.4396 24.698 21.5087 24.8136 21.5553C24.9293 21.6019 25.0531 21.625 25.1777 21.6233C25.3024 21.6216 25.4255 21.5952 25.5399 21.5455C25.6543 21.4959 25.7576 21.424 25.844 21.334L27.652 19.474C27.7389 19.3848 27.8073 19.2793 27.8534 19.1636C27.8994 19.0479 27.9221 18.9242 27.9201 18.7997C27.9181 18.6751 27.8916 18.5522 27.842 18.438C27.7924 18.3237 27.7207 18.2204 27.631 18.134C27.5419 18.047 27.4365 17.9784 27.3208 17.9322C27.2052 17.8861 27.0815 17.8632 26.957 17.865ZM30.158 17.865C30.0333 17.867 29.9103 17.8937 29.796 17.9435C29.6817 17.9932 29.5784 18.0651 29.492 18.155L27.684 20.012C27.5971 20.1012 27.5286 20.2067 27.4826 20.3224C27.4366 20.4382 27.4139 20.5619 27.4159 20.6864C27.4178 20.8109 27.4444 20.9338 27.494 21.0481C27.5436 21.1623 27.6153 21.2656 27.705 21.352C27.7937 21.4396 27.899 21.5087 28.0146 21.5553C28.1303 21.6019 28.2541 21.625 28.3787 21.6233C28.5034 21.6216 28.6265 21.5952 28.7409 21.5455C28.8553 21.4959 28.9586 21.424 29.045 21.334L30.853 19.474C30.9399 19.3848 31.0083 19.2793 31.0544 19.1636C31.1004 19.0479 31.1231 18.9242 31.1211 18.7997C31.1191 18.6751 31.0926 18.5522 31.043 18.438C30.9934 18.3237 30.9217 18.2204 30.832 18.134C30.7429 18.047 30.6375 17.9784 30.5218 17.9322C30.4062 17.8861 30.2825 17.8632 30.158 17.865ZM33.721 17.865C33.5963 17.867 33.4733 17.8937 33.359 17.9435C33.2447 17.9932 33.1414 18.0651 33.055 18.155L31.246 20.012C31.1591 20.1013 31.0908 20.2068 31.0448 20.3226C30.9989 20.4384 30.9763 20.5621 30.9784 20.6866C30.9804 20.8111 31.007 20.934 31.0567 21.0482C31.1064 21.1624 31.1782 21.2657 31.268 21.352C31.3567 21.4396 31.462 21.5087 31.5776 21.5553C31.6933 21.6019 31.8171 21.625 31.9417 21.6233C32.0664 21.6216 32.1895 21.5952 32.3039 21.5455C32.4183 21.4959 32.5216 21.424 32.608 21.334L34.416 19.474C34.5029 19.3848 34.5713 19.2793 34.6174 19.1636C34.6634 19.0479 34.686 18.9242 34.6841 18.7997C34.6821 18.6751 34.6556 18.5522 34.606 18.438C34.5564 18.3237 34.4847 18.2204 34.395 18.134C34.3059 18.047 34.2005 17.9784 34.0848 17.9322C33.9692 17.8861 33.8455 17.8632 33.721 17.865ZM16.52 18.348C16.6114 18.356 16.6978 18.3936 16.766 18.455C17.172 18.817 16.691 19.241 16.516 19.424L15.65 20.328C15.043 20.959 14.78 21.386 14.355 20.978C13.995 20.605 14.312 20.382 15 19.684L15.865 18.781C16.071 18.581 16.283 18.336 16.52 18.348ZM20.082 18.348C20.1734 18.356 20.2598 18.3936 20.328 18.455C20.735 18.817 20.253 19.241 20.078 19.424L19.213 20.328C18.606 20.959 18.342 21.386 17.918 20.978C17.558 20.605 17.874 20.382 18.563 19.684L19.428 18.781C19.633 18.581 19.846 18.336 20.082 18.348ZM23.459 18.348C23.5504 18.356 23.6368 18.3936 23.705 18.455C24.112 18.817 23.63 19.241 23.455 19.424L22.59 20.328C21.983 20.959 21.719 21.386 21.295 20.978C20.935 20.605 21.251 20.382 21.939 19.684L22.805 18.781C23.01 18.581 23.223 18.336 23.459 18.348ZM27.022 18.348C27.1134 18.356 27.1998 18.3936 27.268 18.455C27.674 18.817 27.193 19.241 27.018 19.424L26.152 20.328C25.545 20.959 25.282 21.386 24.857 20.978C24.497 20.605 24.814 20.382 25.502 19.684L26.367 18.781C26.573 18.581 26.785 18.336 27.021 18.348H27.022ZM30.222 18.348C30.3138 18.3558 30.4005 18.3934 30.469 18.455C30.875 18.817 30.394 19.241 30.219 19.424L29.353 20.328C28.746 20.959 28.483 21.386 28.059 20.978C27.699 20.605 28.015 20.382 28.703 19.684L29.568 18.781C29.774 18.581 29.986 18.336 30.223 18.348H30.222ZM33.785 18.348C33.8764 18.356 33.9628 18.3936 34.031 18.455C34.438 18.817 33.956 19.241 33.781 19.424L32.916 20.328C32.309 20.959 32.045 21.386 31.621 20.978C31.261 20.605 31.577 20.382 32.266 19.684L33.131 18.781C33.336 18.581 33.549 18.336 33.785 18.348ZM13.795 23.981C13.7803 23.9811 13.7657 23.9842 13.7522 23.9899C13.7387 23.9957 13.7264 24.004 13.7161 24.0145C13.7058 24.025 13.6976 24.0374 13.6921 24.0511C13.6866 24.0647 13.6838 24.0793 13.684 24.094C13.684 24.155 13.734 24.206 13.794 24.207C13.857 24.207 13.907 24.157 13.908 24.094C13.9082 24.0791 13.9055 24.0642 13.8999 24.0503C13.8944 24.0364 13.8861 24.0238 13.8755 24.0132C13.865 24.0025 13.8525 23.9941 13.8386 23.9884C13.8248 23.9827 13.8099 23.9799 13.795 23.98V23.981ZM14.357 23.981C14.3271 23.9813 14.2985 23.9933 14.2774 24.0144C14.2562 24.0355 14.2442 24.0641 14.244 24.094C14.244 24.155 14.296 24.207 14.357 24.207C14.419 24.207 14.468 24.155 14.469 24.094V24.074C14.4651 24.0473 14.4515 24.023 14.4309 24.0057C14.4102 23.9884 14.3839 23.9792 14.357 23.98V23.981ZM14.92 23.981C14.9051 23.9809 14.8903 23.9837 14.8766 23.9893C14.8628 23.995 14.8503 24.0033 14.8398 24.0138C14.8293 24.0243 14.8209 24.0368 14.8153 24.0506C14.8097 24.0644 14.8068 24.0791 14.807 24.094C14.807 24.156 14.857 24.208 14.92 24.207C14.981 24.207 15.03 24.155 15.031 24.094V24.074C15.0271 24.0475 15.0137 24.0234 14.9932 24.0061C14.9728 23.9887 14.9468 23.9795 14.92 23.98V23.981ZM15.482 23.981C15.4671 23.9809 15.4523 23.9837 15.4386 23.9893C15.4248 23.995 15.4123 24.0033 15.4018 24.0138C15.3913 24.0243 15.3829 24.0368 15.3773 24.0506C15.3717 24.0644 15.3688 24.0791 15.369 24.094C15.369 24.156 15.42 24.208 15.482 24.207C15.544 24.207 15.593 24.155 15.594 24.094V24.086C15.5922 24.0575 15.5796 24.0308 15.5588 24.0113C15.538 23.9918 15.5105 23.981 15.482 23.981ZM16.045 23.981C16.0301 23.9809 16.0153 23.9837 16.0016 23.9893C15.9878 23.995 15.9753 24.0033 15.9648 24.0138C15.9543 24.0243 15.9459 24.0368 15.9403 24.0506C15.9347 24.0644 15.9318 24.0791 15.932 24.094C15.932 24.156 15.982 24.208 16.045 24.207C16.106 24.207 16.155 24.155 16.156 24.094V24.086C16.1542 24.0577 16.1418 24.0311 16.1212 24.0117C16.1006 23.9922 16.0733 23.9812 16.045 23.981ZM16.607 23.981C16.5921 23.9809 16.5773 23.9837 16.5636 23.9893C16.5498 23.995 16.5373 24.0033 16.5268 24.0138C16.5163 24.0243 16.5079 24.0368 16.5023 24.0506C16.4967 24.0644 16.4938 24.0791 16.494 24.094C16.494 24.156 16.545 24.208 16.607 24.207C16.669 24.207 16.718 24.155 16.719 24.094V24.086C16.7172 24.0575 16.7046 24.0308 16.6838 24.0113C16.663 23.9918 16.6355 23.981 16.607 23.981ZM17.168 23.981C17.1533 23.9811 17.1387 23.9842 17.1252 23.9899C17.1117 23.9957 17.0994 24.004 17.0891 24.0145C17.0788 24.025 17.0706 24.0374 17.0651 24.0511C17.0596 24.0647 17.0568 24.0793 17.057 24.094C17.057 24.155 17.107 24.207 17.168 24.207C17.1979 24.2068 17.2265 24.1948 17.2476 24.1736C17.2687 24.1525 17.2807 24.1239 17.281 24.094V24.086C17.2792 24.0574 17.2665 24.0305 17.2454 24.011C17.2244 23.9914 17.1967 23.9807 17.168 23.981ZM17.731 23.981C17.7162 23.981 17.7015 23.9839 17.6879 23.9896C17.6742 23.9953 17.6618 24.0037 17.6514 24.0142C17.641 24.0247 17.6328 24.0371 17.6272 24.0508C17.6216 24.0646 17.6188 24.0792 17.619 24.094C17.619 24.155 17.669 24.207 17.73 24.207C17.76 24.207 17.7889 24.1951 17.8102 24.174C17.8316 24.1528 17.8437 24.1241 17.844 24.094V24.086C17.8422 24.0572 17.8293 24.0302 17.8081 24.0106C17.7868 23.991 17.7589 23.9804 17.73 23.981H17.731ZM18.293 23.981C18.2783 23.9811 18.2637 23.9842 18.2502 23.9899C18.2367 23.9957 18.2244 24.004 18.2141 24.0145C18.2038 24.025 18.1956 24.0374 18.1901 24.0511C18.1846 24.0647 18.1818 24.0793 18.182 24.094C18.182 24.155 18.232 24.207 18.293 24.207C18.3229 24.2068 18.3515 24.1948 18.3726 24.1736C18.3937 24.1525 18.4057 24.1239 18.406 24.094V24.086C18.4042 24.0574 18.3915 24.0305 18.3704 24.011C18.3494 23.9914 18.3217 23.9807 18.293 23.981ZM18.856 23.981C18.8412 23.981 18.8265 23.9839 18.8129 23.9896C18.7992 23.9953 18.7868 24.0037 18.7764 24.0142C18.766 24.0247 18.7578 24.0371 18.7522 24.0508C18.7466 24.0646 18.7438 24.0792 18.744 24.094C18.744 24.155 18.794 24.207 18.855 24.207C18.917 24.207 18.966 24.155 18.967 24.094V24.074C18.9631 24.0475 18.9497 24.0234 18.9292 24.0061C18.9088 23.9887 18.8828 23.9795 18.856 23.98V23.981ZM19.418 23.981C19.4031 23.9809 19.3883 23.9837 19.3746 23.9893C19.3608 23.995 19.3483 24.0033 19.3378 24.0138C19.3273 24.0243 19.3189 24.0368 19.3133 24.0506C19.3077 24.0644 19.3048 24.0791 19.305 24.094C19.305 24.156 19.356 24.208 19.418 24.207C19.479 24.207 19.528 24.155 19.529 24.094V24.086C19.5272 24.0577 19.5148 24.0311 19.4942 24.0117C19.4736 23.9922 19.4463 23.9812 19.418 23.981ZM19.981 23.981C19.966 23.9808 19.9512 23.9835 19.9373 23.9891C19.9234 23.9946 19.9108 24.0029 19.9001 24.0135C19.8895 24.024 19.8811 24.0365 19.8754 24.0504C19.8697 24.0642 19.8668 24.0791 19.867 24.094C19.867 24.156 19.919 24.208 19.98 24.207C20.042 24.207 20.091 24.155 20.092 24.094V24.086C20.0902 24.0577 20.0778 24.0311 20.0572 24.0117C20.0366 23.9922 20.0093 23.9812 19.981 23.981ZM20.543 23.981C20.5281 23.9809 20.5133 23.9837 20.4996 23.9893C20.4858 23.995 20.4733 24.0033 20.4628 24.0138C20.4523 24.0243 20.4439 24.0368 20.4383 24.0506C20.4327 24.0644 20.4298 24.0791 20.43 24.094C20.43 24.156 20.481 24.208 20.543 24.207C20.604 24.207 20.653 24.155 20.654 24.094V24.086C20.6522 24.0577 20.6398 24.0311 20.6192 24.0117C20.5986 23.9922 20.5713 23.9812 20.543 23.981ZM21.106 23.981C21.091 23.9808 21.0762 23.9835 21.0623 23.9891C21.0484 23.9946 21.0358 24.0029 21.0251 24.0135C21.0145 24.024 21.0061 24.0365 21.0004 24.0504C20.9947 24.0642 20.9918 24.0791 20.992 24.094C20.992 24.156 21.044 24.208 21.105 24.207C21.167 24.207 21.216 24.155 21.217 24.094V24.086C21.2152 24.0577 21.2028 24.0311 21.1822 24.0117C21.1616 23.9922 21.1343 23.9812 21.106 23.981ZM21.666 23.981C21.6513 23.9811 21.6367 23.9842 21.6232 23.9899C21.6097 23.9957 21.5974 24.004 21.5871 24.0145C21.5768 24.025 21.5686 24.0374 21.5631 24.0511C21.5576 24.0647 21.5548 24.0793 21.555 24.094C21.555 24.155 21.605 24.207 21.666 24.207C21.6959 24.2068 21.7245 24.1948 21.7456 24.1736C21.7667 24.1525 21.7787 24.1239 21.779 24.094V24.086C21.7772 24.0574 21.7645 24.0305 21.7434 24.011C21.7224 23.9914 21.6947 23.9807 21.666 23.981ZM22.229 23.981C22.2142 23.981 22.1995 23.9839 22.1859 23.9896C22.1722 23.9953 22.1598 24.0037 22.1494 24.0142C22.139 24.0247 22.1308 24.0371 22.1252 24.0508C22.1196 24.0646 22.1168 24.0792 22.117 24.094C22.117 24.155 22.167 24.207 22.228 24.207C22.258 24.207 22.2869 24.1951 22.3082 24.174C22.3296 24.1528 22.3417 24.1241 22.342 24.094V24.086C22.3402 24.0574 22.3275 24.0305 22.3064 24.011C22.2854 23.9914 22.2577 23.9807 22.229 23.981ZM22.791 23.981C22.7763 23.9811 22.7617 23.9842 22.7482 23.9899C22.7347 23.9957 22.7224 24.004 22.7121 24.0145C22.7018 24.025 22.6936 24.0374 22.6881 24.0511C22.6826 24.0647 22.6798 24.0793 22.68 24.094C22.68 24.155 22.73 24.206 22.791 24.207C22.853 24.207 22.904 24.157 22.904 24.094C22.9042 24.0791 22.9015 24.0642 22.8959 24.0503C22.8904 24.0364 22.8821 24.0238 22.8715 24.0132C22.861 24.0025 22.8485 23.9941 22.8346 23.9884C22.8208 23.9827 22.8059 23.9799 22.791 23.98V23.981ZM23.354 23.981C23.3392 23.981 23.3245 23.9839 23.3109 23.9896C23.2972 23.9953 23.2848 24.0037 23.2744 24.0142C23.264 24.0247 23.2558 24.0371 23.2502 24.0508C23.2446 24.0646 23.2418 24.0792 23.242 24.094C23.242 24.155 23.292 24.207 23.353 24.207C23.3827 24.2065 23.411 24.1944 23.4319 24.1733C23.4529 24.1522 23.4647 24.1237 23.465 24.094V24.074C23.4609 24.0476 23.4474 24.0236 23.427 24.0063C23.4066 23.989 23.3807 23.9797 23.354 23.98V23.981ZM23.916 23.981C23.9011 23.9809 23.8863 23.9837 23.8726 23.9893C23.8588 23.995 23.8463 24.0033 23.8358 24.0138C23.8253 24.0243 23.8169 24.0368 23.8113 24.0506C23.8057 24.0644 23.8028 24.0791 23.803 24.094C23.803 24.156 23.854 24.208 23.916 24.207C23.977 24.207 24.026 24.155 24.027 24.094V24.074C24.0231 24.0475 24.0097 24.0234 23.9892 24.0061C23.9688 23.9887 23.9428 23.9795 23.916 23.98V23.981ZM24.479 23.981C24.464 23.9808 24.4492 23.9835 24.4353 23.9891C24.4214 23.9946 24.4088 24.0029 24.3981 24.0135C24.3875 24.024 24.3791 24.0365 24.3734 24.0504C24.3677 24.0642 24.3648 24.0791 24.365 24.094C24.365 24.156 24.417 24.208 24.479 24.207C24.539 24.207 24.589 24.155 24.589 24.094V24.086C24.5872 24.0579 24.5749 24.0315 24.5545 24.012C24.5341 23.9925 24.5072 23.9815 24.479 23.981ZM25.041 23.981C25.0261 23.9809 25.0113 23.9837 24.9976 23.9893C24.9838 23.995 24.9713 24.0033 24.9608 24.0138C24.9503 24.0243 24.9419 24.0368 24.9363 24.0506C24.9307 24.0644 24.9278 24.0791 24.928 24.094C24.928 24.156 24.979 24.208 25.041 24.207C25.102 24.207 25.151 24.155 25.152 24.094V24.086C25.1502 24.0577 25.1378 24.0311 25.1172 24.0117C25.0966 23.9922 25.0693 23.9812 25.041 23.981ZM25.601 23.981C25.5714 23.9815 25.5433 23.9937 25.5227 24.0149C25.5021 24.036 25.4907 24.0645 25.491 24.094C25.491 24.155 25.541 24.207 25.601 24.207C25.631 24.207 25.6599 24.1951 25.6812 24.174C25.7026 24.1528 25.7147 24.1241 25.715 24.094V24.086C25.7132 24.0574 25.7005 24.0305 25.6794 24.011C25.6584 23.9914 25.6307 23.9807 25.602 23.981H25.601ZM26.164 23.981C26.1493 23.9811 26.1347 23.9842 26.1212 23.9899C26.1077 23.9957 26.0954 24.004 26.0851 24.0145C26.0748 24.025 26.0666 24.0374 26.0611 24.0511C26.0556 24.0647 26.0528 24.0793 26.053 24.094C26.053 24.155 26.103 24.207 26.164 24.207C26.1939 24.2068 26.2225 24.1948 26.2436 24.1736C26.2647 24.1525 26.2767 24.1239 26.277 24.094V24.086C26.2752 24.0574 26.2625 24.0305 26.2414 24.011C26.2204 23.9914 26.1927 23.9807 26.164 23.981ZM26.727 23.981C26.7122 23.981 26.6975 23.9839 26.6839 23.9896C26.6702 23.9953 26.6578 24.0037 26.6474 24.0142C26.637 24.0247 26.6288 24.0371 26.6232 24.0508C26.6176 24.0646 26.6148 24.0792 26.615 24.094C26.615 24.155 26.665 24.207 26.727 24.207C26.7569 24.2068 26.7855 24.1948 26.8066 24.1736C26.8277 24.1525 26.8397 24.1239 26.84 24.094V24.086C26.8382 24.0574 26.8255 24.0305 26.8044 24.011C26.7834 23.9914 26.7557 23.9807 26.727 23.981ZM27.289 23.981C27.2743 23.9811 27.2597 23.9842 27.2462 23.9899C27.2327 23.9957 27.2204 24.004 27.2101 24.0145C27.1998 24.025 27.1916 24.0374 27.1861 24.0511C27.1806 24.0647 27.1778 24.0793 27.178 24.094C27.178 24.155 27.228 24.206 27.289 24.207C27.351 24.207 27.402 24.157 27.402 24.094C27.4022 24.0791 27.3995 24.0642 27.3939 24.0503C27.3884 24.0364 27.3801 24.0238 27.3695 24.0132C27.359 24.0025 27.3464 23.9941 27.3326 23.9884C27.3188 23.9827 27.3039 23.9799 27.289 23.98V23.981ZM27.852 23.981C27.8372 23.981 27.8225 23.9839 27.8089 23.9896C27.7952 23.9953 27.7828 24.0037 27.7724 24.0142C27.762 24.0247 27.7538 24.0371 27.7482 24.0508C27.7426 24.0646 27.7398 24.0792 27.74 24.094C27.74 24.155 27.79 24.207 27.852 24.207C27.912 24.207 27.962 24.155 27.962 24.094C27.964 24.086 27.964 24.082 27.962 24.074C27.9581 24.0477 27.9448 24.0237 27.9246 24.0064C27.9044 23.9891 27.8786 23.9797 27.852 23.98V23.981ZM28.414 23.981C28.3991 23.9809 28.3843 23.9837 28.3706 23.9893C28.3568 23.995 28.3443 24.0033 28.3338 24.0138C28.3233 24.0243 28.3149 24.0368 28.3093 24.0506C28.3037 24.0644 28.3008 24.0791 28.301 24.094C28.301 24.156 28.352 24.208 28.414 24.207C28.475 24.207 28.524 24.155 28.525 24.094V24.086C28.5232 24.0579 28.5109 24.0315 28.4905 24.012C28.4701 23.9925 28.4432 23.9815 28.415 23.981H28.414ZM28.977 23.981C28.962 23.9808 28.9472 23.9835 28.9333 23.9891C28.9194 23.9946 28.9068 24.0029 28.8961 24.0135C28.8855 24.024 28.8771 24.0365 28.8714 24.0504C28.8657 24.0642 28.8628 24.0791 28.863 24.094C28.863 24.156 28.915 24.208 28.977 24.207C29.037 24.207 29.087 24.155 29.087 24.094V24.086C29.0852 24.0579 29.0729 24.0315 29.0525 24.012C29.0321 23.9925 29.0052 23.9815 28.977 23.981ZM29.539 23.981C29.5241 23.9809 29.5093 23.9837 29.4956 23.9893C29.4818 23.995 29.4693 24.0033 29.4588 24.0138C29.4483 24.0243 29.4399 24.0368 29.4343 24.0506C29.4287 24.0644 29.4258 24.0791 29.426 24.094C29.426 24.156 29.477 24.208 29.539 24.207C29.6 24.207 29.649 24.155 29.65 24.094V24.086C29.6482 24.0579 29.6359 24.0315 29.6155 24.012C29.5951 23.9925 29.5682 23.9815 29.54 23.981H29.539ZM30.099 23.981C30.0694 23.9815 30.0413 23.9937 30.0207 24.0149C30.0001 24.036 29.9887 24.0645 29.989 24.094C29.989 24.155 30.038 24.207 30.099 24.207C30.129 24.207 30.1579 24.1951 30.1792 24.174C30.2006 24.1528 30.2127 24.1241 30.213 24.094V24.086C30.2112 24.0574 30.1985 24.0305 30.1774 24.011C30.1564 23.9914 30.1287 23.9807 30.1 23.981H30.099ZM30.662 23.981C30.6473 23.9811 30.6327 23.9842 30.6192 23.9899C30.6057 23.9957 30.5934 24.004 30.5831 24.0145C30.5728 24.025 30.5646 24.0374 30.5591 24.0511C30.5536 24.0647 30.5508 24.0793 30.551 24.094C30.551 24.155 30.601 24.207 30.662 24.207C30.6919 24.2068 30.7205 24.1948 30.7416 24.1736C30.7627 24.1525 30.7747 24.1239 30.775 24.094V24.086C30.7732 24.0574 30.7605 24.0305 30.7394 24.011C30.7184 23.9914 30.6907 23.9807 30.662 23.981ZM31.225 23.981C31.2102 23.981 31.1955 23.9839 31.1819 23.9896C31.1682 23.9953 31.1558 24.0037 31.1454 24.0142C31.135 24.0247 31.1268 24.0371 31.1212 24.0508C31.1156 24.0646 31.1128 24.0792 31.113 24.094C31.113 24.155 31.163 24.207 31.225 24.207C31.2549 24.2068 31.2835 24.1948 31.3046 24.1736C31.3257 24.1525 31.3377 24.1239 31.338 24.094V24.086C31.3362 24.0574 31.3235 24.0305 31.3024 24.011C31.2814 23.9914 31.2537 23.9807 31.225 23.981ZM31.787 23.981C31.7723 23.9811 31.7577 23.9842 31.7442 23.9899C31.7307 23.9957 31.7184 24.004 31.7081 24.0145C31.6978 24.025 31.6896 24.0374 31.6841 24.0511C31.6786 24.0647 31.6758 24.0793 31.676 24.094C31.676 24.155 31.726 24.207 31.787 24.207C31.848 24.207 31.897 24.155 31.898 24.094V24.074C31.8941 24.0477 31.8808 24.0237 31.8606 24.0064C31.8404 23.9891 31.8146 23.9797 31.788 23.98L31.787 23.981ZM32.35 23.981C32.335 23.9808 32.3202 23.9835 32.3063 23.9891C32.2924 23.9946 32.2798 24.0029 32.2691 24.0135C32.2585 24.024 32.2501 24.0365 32.2444 24.0504C32.2387 24.0642 32.2358 24.0791 32.236 24.094C32.236 24.156 32.288 24.208 32.35 24.207C32.41 24.207 32.46 24.155 32.46 24.094C32.462 24.086 32.462 24.082 32.46 24.074C32.4561 24.0477 32.4428 24.0237 32.4226 24.0064C32.4024 23.9891 32.3766 23.9797 32.35 23.98V23.981ZM32.912 23.981C32.8971 23.9809 32.8823 23.9837 32.8686 23.9893C32.8548 23.995 32.8423 24.0033 32.8318 24.0138C32.8213 24.0243 32.8129 24.0368 32.8073 24.0506C32.8017 24.0644 32.7988 24.0791 32.799 24.094C32.799 24.156 32.85 24.208 32.912 24.207C32.973 24.207 33.022 24.155 33.023 24.094V24.086C33.0212 24.0579 33.0089 24.0315 32.9885 24.012C32.9681 23.9925 32.9412 23.9815 32.913 23.981H32.912ZM33.475 23.981C33.46 23.9808 33.4452 23.9835 33.4313 23.9891C33.4174 23.9946 33.4048 24.0029 33.3941 24.0135C33.3835 24.024 33.3751 24.0365 33.3694 24.0504C33.3637 24.0642 33.3608 24.0791 33.361 24.094C33.361 24.156 33.413 24.208 33.475 24.207C33.5043 24.206 33.5322 24.1937 33.5527 24.1726C33.5732 24.1516 33.5847 24.1234 33.585 24.094V24.086C33.5832 24.0579 33.5709 24.0315 33.5505 24.012C33.5301 23.9925 33.5032 23.9815 33.475 23.981ZM34.037 23.981C34.0221 23.9809 34.0073 23.9837 33.9936 23.9893C33.9798 23.995 33.9673 24.0033 33.9568 24.0138C33.9463 24.0243 33.9379 24.0368 33.9323 24.0506C33.9267 24.0644 33.9238 24.0791 33.924 24.094C33.924 24.156 33.975 24.208 34.037 24.207C34.0665 24.2062 34.0946 24.194 34.1153 24.1729C34.136 24.1519 34.1477 24.1236 34.148 24.094V24.086C34.1462 24.0579 34.1339 24.0315 34.1135 24.012C34.0931 23.9925 34.0662 23.9815 34.038 23.981H34.037ZM34.597 23.981C34.5674 23.9815 34.5393 23.9937 34.5187 24.0149C34.4981 24.036 34.4867 24.0645 34.487 24.094C34.487 24.155 34.536 24.207 34.597 24.207C34.627 24.207 34.6559 24.1951 34.6772 24.174C34.6986 24.1528 34.7107 24.1241 34.711 24.094V24.086C34.7092 24.0574 34.6965 24.0305 34.6754 24.011C34.6544 23.9914 34.6267 23.9807 34.598 23.981H34.597ZM16.455 26.533C16.3303 26.535 16.2073 26.5617 16.093 26.6115C15.9787 26.6612 15.8754 26.7331 15.789 26.823L13.98 28.68C13.8931 28.7693 13.8248 28.8748 13.7788 28.9906C13.7329 29.1064 13.7103 29.2301 13.7124 29.3546C13.7144 29.4791 13.741 29.602 13.7907 29.7162C13.8404 29.8304 13.9122 29.9337 14.002 30.02C14.0908 30.1074 14.1961 30.1763 14.3118 30.2227C14.4274 30.2691 14.5511 30.2921 14.6757 30.2905C14.8003 30.2888 14.9234 30.2624 15.0377 30.2129C15.1521 30.1634 15.2555 30.0917 15.342 30.002L17.15 28.142C17.2369 28.0528 17.3053 27.9473 17.3514 27.8316C17.3974 27.7159 17.4201 27.5922 17.4181 27.4677C17.4161 27.3431 17.3896 27.2202 17.34 27.106C17.2904 26.9917 17.2187 26.8884 17.129 26.802C17.0399 26.715 16.9345 26.6464 16.8188 26.6002C16.7032 26.5541 16.5795 26.5312 16.455 26.533ZM20.018 26.533C19.8933 26.535 19.7703 26.5617 19.656 26.6115C19.5417 26.6612 19.4384 26.7331 19.352 26.823L17.543 28.68C17.4561 28.7692 17.3876 28.8747 17.3416 28.9904C17.2956 29.1062 17.2729 29.2299 17.2749 29.3544C17.2768 29.4789 17.3034 29.6018 17.353 29.7161C17.4026 29.8303 17.4743 29.9336 17.564 30.02C17.6528 30.1074 17.7581 30.1763 17.8738 30.2227C17.9894 30.2691 18.1131 30.2921 18.2377 30.2905C18.3623 30.2888 18.4854 30.2624 18.5997 30.2129C18.7141 30.1634 18.8175 30.0917 18.904 30.002L20.713 28.145C20.7998 28.0558 20.8682 27.9502 20.9141 27.8344C20.9601 27.7187 20.9826 27.595 20.9806 27.4704C20.9786 27.3459 20.9519 27.223 20.9022 27.1088C20.8525 26.9946 20.7807 26.8914 20.691 26.805C20.6021 26.7179 20.4969 26.6492 20.3814 26.6029C20.2659 26.5566 20.1424 26.5335 20.018 26.535V26.533ZM23.395 26.533C23.2703 26.535 23.1473 26.5617 23.033 26.6115C22.9187 26.6612 22.8154 26.7331 22.729 26.823L20.919 28.68C20.8321 28.7693 20.7638 28.8748 20.7178 28.9906C20.6719 29.1064 20.6493 29.2301 20.6514 29.3546C20.6534 29.4791 20.68 29.602 20.7297 29.7162C20.7794 29.8304 20.8512 29.9337 20.941 30.02C21.0298 30.1074 21.1351 30.1763 21.2508 30.2227C21.3664 30.2691 21.4901 30.2921 21.6147 30.2905C21.7393 30.2888 21.8624 30.2624 21.9767 30.2129C22.0911 30.1634 22.1945 30.0917 22.281 30.002L24.09 28.142C24.1768 28.0528 24.2452 27.9472 24.2911 27.8314C24.3371 27.7157 24.3596 27.592 24.3576 27.4674C24.3556 27.3429 24.3289 27.22 24.2792 27.1058C24.2295 26.9916 24.1577 26.8884 24.068 26.802C23.9789 26.715 23.8735 26.6465 23.7578 26.6003C23.6421 26.5542 23.5185 26.5313 23.394 26.533H23.395ZM26.957 26.533C26.8323 26.535 26.7093 26.5617 26.595 26.6115C26.4807 26.6612 26.3774 26.7331 26.291 26.823L24.482 28.68C24.3951 28.7693 24.3268 28.8748 24.2808 28.9906C24.2349 29.1064 24.2123 29.2301 24.2144 29.3546C24.2164 29.4791 24.243 29.602 24.2927 29.7162C24.3424 29.8304 24.4142 29.9337 24.504 30.02C24.5928 30.1074 24.6981 30.1763 24.8138 30.2227C24.9294 30.2691 25.0531 30.2921 25.1777 30.2905C25.3023 30.2888 25.4254 30.2624 25.5397 30.2129C25.6541 30.1634 25.7575 30.0917 25.844 30.002L27.652 28.142C27.7389 28.0528 27.8073 27.9473 27.8534 27.8316C27.8994 27.7159 27.9221 27.5922 27.9201 27.4677C27.9181 27.3431 27.8916 27.2202 27.842 27.106C27.7924 26.9917 27.7207 26.8884 27.631 26.802C27.5419 26.715 27.4365 26.6465 27.3208 26.6003C27.2051 26.5542 27.0815 26.5313 26.957 26.533ZM30.158 26.533C30.0333 26.535 29.9103 26.5617 29.796 26.6115C29.6817 26.6612 29.5784 26.7331 29.492 26.823L27.684 28.68C27.5971 28.7692 27.5286 28.8747 27.4826 28.9904C27.4366 29.1062 27.4139 29.2299 27.4159 29.3544C27.4178 29.4789 27.4444 29.6018 27.494 29.7161C27.5436 29.8303 27.6153 29.9336 27.705 30.02C27.7938 30.1074 27.8991 30.1763 28.0148 30.2227C28.1304 30.2691 28.2541 30.2921 28.3787 30.2905C28.5033 30.2888 28.6264 30.2624 28.7407 30.2129C28.8551 30.1634 28.9585 30.0917 29.045 30.002L30.853 28.142C30.9399 28.0528 31.0083 27.9473 31.0544 27.8316C31.1004 27.7159 31.1231 27.5922 31.1211 27.4677C31.1191 27.3431 31.0926 27.2202 31.043 27.106C30.9934 26.9917 30.9217 26.8884 30.832 26.802C30.7429 26.715 30.6375 26.6464 30.5218 26.6002C30.4062 26.5541 30.2825 26.5312 30.158 26.533ZM33.721 26.533C33.5963 26.535 33.4733 26.5617 33.359 26.6115C33.2447 26.6612 33.1414 26.7331 33.055 26.823L31.246 28.68C31.1591 28.7693 31.0908 28.8748 31.0448 28.9906C30.9989 29.1064 30.9763 29.2301 30.9784 29.3546C30.9804 29.4791 31.007 29.602 31.0567 29.7162C31.1064 29.8304 31.1782 29.9337 31.268 30.02C31.3568 30.1074 31.4621 30.1763 31.5778 30.2227C31.6934 30.2691 31.8171 30.2921 31.9417 30.2905C32.0663 30.2888 32.1894 30.2624 32.3037 30.2129C32.4181 30.1634 32.5215 30.0917 32.608 30.002L34.416 28.142C34.5029 28.0528 34.5713 27.9473 34.6174 27.8316C34.6634 27.7159 34.686 27.5922 34.6841 27.4677C34.6821 27.3431 34.6556 27.2202 34.606 27.106C34.5564 26.9917 34.4847 26.8884 34.395 26.802C34.3059 26.715 34.2005 26.6464 34.0848 26.6002C33.9692 26.5541 33.8455 26.5312 33.721 26.533ZM16.52 27.016C16.6114 27.024 16.6978 27.0616 16.766 27.123C17.172 27.485 16.691 27.908 16.516 28.092L15.65 28.996C15.043 29.628 14.78 30.054 14.355 29.646C13.995 29.273 14.312 29.05 15 28.352L15.865 27.449C16.071 27.249 16.283 27.004 16.52 27.016ZM20.082 27.016C20.1734 27.024 20.2598 27.0616 20.328 27.123C20.735 27.485 20.253 27.908 20.078 28.092L19.213 28.996C18.606 29.628 18.342 30.054 17.918 29.646C17.558 29.273 17.874 29.05 18.563 28.352L19.428 27.449C19.633 27.249 19.846 27.004 20.082 27.016ZM23.459 27.016C23.5504 27.024 23.6368 27.0616 23.705 27.123C24.112 27.485 23.63 27.908 23.455 28.092L22.59 28.996C21.983 29.628 21.719 30.054 21.295 29.646C20.935 29.273 21.251 29.05 21.939 28.352L22.805 27.449C23.01 27.249 23.223 27.004 23.459 27.016ZM27.022 27.016C27.1134 27.024 27.1998 27.0616 27.268 27.123C27.674 27.485 27.193 27.908 27.018 28.092L26.152 28.996C25.545 29.628 25.282 30.054 24.857 29.646C24.497 29.273 24.814 29.05 25.502 28.352L26.367 27.449C26.573 27.249 26.785 27.004 27.021 27.016H27.022ZM30.222 27.016C30.3138 27.0238 30.4005 27.0614 30.469 27.123C30.875 27.485 30.394 27.908 30.219 28.092L29.353 28.996C28.746 29.628 28.483 30.054 28.059 29.646C27.699 29.273 28.015 29.05 28.703 28.352L29.568 27.449C29.774 27.249 29.986 27.004 30.223 27.016H30.222ZM33.785 27.016C33.8764 27.024 33.9628 27.0616 34.031 27.123C34.438 27.485 33.956 27.908 33.781 28.092L32.916 28.996C32.309 29.628 32.045 30.054 31.621 29.646C31.261 29.273 31.577 29.05 32.266 28.352L33.131 27.449C33.336 27.249 33.549 27.004 33.785 27.016ZM13.795 32.981C13.7803 32.9811 13.7657 32.9842 13.7522 32.9899C13.7387 32.9957 13.7264 33.004 13.7161 33.0145C13.7058 33.025 13.6976 33.0374 13.6921 33.0511C13.6866 33.0647 13.6838 33.0793 13.684 33.094C13.684 33.155 13.734 33.206 13.794 33.207C13.857 33.207 13.907 33.157 13.908 33.094C13.9082 33.0791 13.9055 33.0642 13.8999 33.0503C13.8944 33.0364 13.8861 33.0238 13.8755 33.0132C13.865 33.0025 13.8525 32.9941 13.8386 32.9884C13.8248 32.9827 13.8099 32.9799 13.795 32.98V32.981ZM14.357 32.981C14.3271 32.9813 14.2985 32.9933 14.2774 33.0144C14.2562 33.0355 14.2442 33.0641 14.244 33.094C14.244 33.155 14.296 33.207 14.357 33.207C14.419 33.207 14.468 33.155 14.469 33.094V33.074C14.4648 33.0475 14.4512 33.0235 14.4306 33.0063C14.4099 32.9892 14.3838 32.9802 14.357 32.981ZM14.92 32.981C14.9051 32.9809 14.8903 32.9837 14.8766 32.9893C14.8628 32.995 14.8503 33.0033 14.8398 33.0138C14.8293 33.0243 14.8209 33.0368 14.8153 33.0506C14.8097 33.0644 14.8068 33.0791 14.807 33.094C14.807 33.156 14.857 33.208 14.92 33.207C14.981 33.207 15.03 33.155 15.031 33.094V33.074C15.0269 33.0477 15.0134 33.0238 14.9929 33.0067C14.9725 32.9896 14.9466 32.9805 14.92 32.981ZM15.482 32.981C15.4671 32.9809 15.4523 32.9837 15.4386 32.9893C15.4248 32.995 15.4123 33.0033 15.4018 33.0138C15.3913 33.0243 15.3829 33.0368 15.3773 33.0506C15.3717 33.0644 15.3688 33.0791 15.369 33.094C15.369 33.156 15.42 33.208 15.482 33.207C15.544 33.207 15.593 33.155 15.594 33.094V33.086C15.5922 33.0575 15.5796 33.0308 15.5588 33.0113C15.538 32.9918 15.5105 32.981 15.482 32.981ZM16.045 32.981C16.0301 32.9809 16.0153 32.9837 16.0016 32.9893C15.9878 32.995 15.9753 33.0033 15.9648 33.0138C15.9543 33.0243 15.9459 33.0368 15.9403 33.0506C15.9347 33.0644 15.9318 33.0791 15.932 33.094C15.932 33.156 15.982 33.208 16.045 33.207C16.106 33.207 16.155 33.155 16.156 33.094V33.086C16.1542 33.0577 16.1418 33.0311 16.1212 33.0116C16.1006 32.9922 16.0733 32.9812 16.045 32.981ZM16.607 32.981C16.5921 32.9809 16.5773 32.9837 16.5636 32.9893C16.5498 32.995 16.5373 33.0033 16.5268 33.0138C16.5163 33.0243 16.5079 33.0368 16.5023 33.0506C16.4967 33.0644 16.4938 33.0791 16.494 33.094C16.494 33.156 16.545 33.208 16.607 33.207C16.669 33.207 16.718 33.155 16.719 33.094V33.086C16.7172 33.0575 16.7046 33.0308 16.6838 33.0113C16.663 32.9918 16.6355 32.981 16.607 32.981ZM17.168 32.981C17.1533 32.9811 17.1387 32.9842 17.1252 32.9899C17.1117 32.9957 17.0994 33.004 17.0891 33.0145C17.0788 33.025 17.0706 33.0374 17.0651 33.0511C17.0596 33.0647 17.0568 33.0793 17.057 33.094C17.057 33.155 17.107 33.207 17.168 33.207C17.1979 33.2068 17.2265 33.1948 17.2476 33.1736C17.2687 33.1525 17.2807 33.1239 17.281 33.094V33.086C17.2792 33.0574 17.2665 33.0305 17.2454 33.011C17.2244 32.9914 17.1967 32.9807 17.168 32.981ZM17.731 32.981C17.7162 32.981 17.7015 32.9839 17.6879 32.9896C17.6742 32.9953 17.6618 33.0037 17.6514 33.0142C17.641 33.0247 17.6328 33.0371 17.6272 33.0508C17.6216 33.0646 17.6188 33.0792 17.619 33.094C17.619 33.155 17.669 33.207 17.73 33.207C17.76 33.207 17.7889 33.1951 17.8102 33.174C17.8316 33.1528 17.8437 33.1241 17.844 33.094V33.086C17.8422 33.0572 17.8293 33.0302 17.8081 33.0106C17.7868 32.991 17.7589 32.9804 17.73 32.981H17.731ZM18.293 32.981C18.2783 32.9811 18.2637 32.9842 18.2502 32.9899C18.2367 32.9957 18.2244 33.004 18.2141 33.0145C18.2038 33.025 18.1956 33.0374 18.1901 33.0511C18.1846 33.0647 18.1818 33.0793 18.182 33.094C18.182 33.155 18.232 33.207 18.293 33.207C18.3229 33.2068 18.3515 33.1948 18.3726 33.1736C18.3937 33.1525 18.4057 33.1239 18.406 33.094V33.086C18.4042 33.0574 18.3915 33.0305 18.3704 33.011C18.3494 32.9914 18.3217 32.9807 18.293 32.981ZM18.856 32.981C18.8412 32.981 18.8265 32.9839 18.8129 32.9896C18.7992 32.9953 18.7868 33.0037 18.7764 33.0142C18.766 33.0247 18.7578 33.0371 18.7522 33.0508C18.7466 33.0646 18.7438 33.0792 18.744 33.094C18.744 33.155 18.794 33.207 18.855 33.207C18.917 33.207 18.966 33.155 18.967 33.094V33.074C18.9629 33.0477 18.9494 33.0238 18.9289 33.0067C18.9085 32.9896 18.8826 32.9805 18.856 32.981ZM19.418 32.981C19.4031 32.9809 19.3883 32.9837 19.3746 32.9893C19.3608 32.995 19.3483 33.0033 19.3378 33.0138C19.3273 33.0243 19.3189 33.0368 19.3133 33.0506C19.3077 33.0644 19.3048 33.0791 19.305 33.094C19.305 33.156 19.356 33.208 19.418 33.207C19.479 33.207 19.528 33.155 19.529 33.094V33.086C19.5272 33.0577 19.5148 33.0311 19.4942 33.0116C19.4736 32.9922 19.4463 32.9812 19.418 32.981ZM19.981 32.981C19.966 32.9807 19.9512 32.9835 19.9373 32.9891C19.9234 32.9946 19.9108 33.0029 19.9001 33.0135C19.8895 33.024 19.8811 33.0365 19.8754 33.0504C19.8697 33.0642 19.8668 33.0791 19.867 33.094C19.867 33.156 19.919 33.208 19.98 33.207C20.042 33.207 20.091 33.155 20.092 33.094V33.086C20.0902 33.0577 20.0778 33.0311 20.0572 33.0116C20.0366 32.9922 20.0093 32.9812 19.981 32.981ZM20.543 32.981C20.5281 32.9809 20.5133 32.9837 20.4996 32.9893C20.4858 32.995 20.4733 33.0033 20.4628 33.0138C20.4523 33.0243 20.4439 33.0368 20.4383 33.0506C20.4327 33.0644 20.4298 33.0791 20.43 33.094C20.43 33.156 20.481 33.208 20.543 33.207C20.604 33.207 20.653 33.155 20.654 33.094V33.086C20.6522 33.0577 20.6398 33.0311 20.6192 33.0116C20.5986 32.9922 20.5713 32.9812 20.543 32.981ZM21.106 32.981C21.091 32.9807 21.0762 32.9835 21.0623 32.9891C21.0484 32.9946 21.0358 33.0029 21.0251 33.0135C21.0145 33.024 21.0061 33.0365 21.0004 33.0504C20.9947 33.0642 20.9918 33.0791 20.992 33.094C20.992 33.156 21.044 33.208 21.105 33.207C21.167 33.207 21.216 33.155 21.217 33.094V33.086C21.2152 33.0577 21.2028 33.0311 21.1822 33.0116C21.1616 32.9922 21.1343 32.9812 21.106 32.981ZM21.666 32.981C21.6513 32.9811 21.6367 32.9842 21.6232 32.9899C21.6097 32.9957 21.5974 33.004 21.5871 33.0145C21.5768 33.025 21.5686 33.0374 21.5631 33.0511C21.5576 33.0647 21.5548 33.0793 21.555 33.094C21.555 33.155 21.605 33.207 21.666 33.207C21.6959 33.2068 21.7245 33.1948 21.7456 33.1736C21.7667 33.1525 21.7787 33.1239 21.779 33.094V33.086C21.7772 33.0574 21.7645 33.0305 21.7434 33.011C21.7224 32.9914 21.6947 32.9807 21.666 32.981ZM22.229 32.981C22.2142 32.981 22.1995 32.9839 22.1859 32.9896C22.1722 32.9953 22.1598 33.0037 22.1494 33.0142C22.139 33.0247 22.1308 33.0371 22.1252 33.0508C22.1196 33.0646 22.1168 33.0792 22.117 33.094C22.117 33.155 22.167 33.207 22.228 33.207C22.258 33.207 22.2869 33.1951 22.3082 33.174C22.3296 33.1528 22.3417 33.1241 22.342 33.094V33.086C22.3402 33.0574 22.3275 33.0305 22.3064 33.011C22.2854 32.9914 22.2577 32.9807 22.229 32.981ZM22.791 32.981C22.7763 32.9811 22.7617 32.9842 22.7482 32.9899C22.7347 32.9957 22.7224 33.004 22.7121 33.0145C22.7018 33.025 22.6936 33.0374 22.6881 33.0511C22.6826 33.0647 22.6798 33.0793 22.68 33.094C22.68 33.155 22.73 33.206 22.791 33.207C22.853 33.207 22.904 33.157 22.904 33.094C22.9042 33.0791 22.9015 33.0642 22.8959 33.0503C22.8904 33.0364 22.8821 33.0238 22.8715 33.0132C22.861 33.0025 22.8485 32.9941 22.8346 32.9884C22.8208 32.9827 22.8059 32.9799 22.791 32.98V32.981ZM23.354 32.981C23.3392 32.981 23.3245 32.9839 23.3109 32.9896C23.2972 32.9953 23.2848 33.0037 23.2744 33.0142C23.264 33.0247 23.2558 33.0371 23.2502 33.0508C23.2446 33.0646 23.2418 33.0792 23.242 33.094C23.242 33.155 23.292 33.207 23.353 33.207C23.3827 33.2065 23.411 33.1944 23.4319 33.1733C23.4529 33.1522 23.4647 33.1237 23.465 33.094V33.074C23.4607 33.0478 23.4471 33.024 23.4267 33.0069C23.4064 32.9899 23.3805 32.9807 23.354 32.981ZM23.916 32.981C23.9011 32.9809 23.8863 32.9837 23.8726 32.9893C23.8588 32.995 23.8463 33.0033 23.8358 33.0138C23.8253 33.0243 23.8169 33.0368 23.8113 33.0506C23.8057 33.0644 23.8028 33.0791 23.803 33.094C23.803 33.156 23.854 33.208 23.916 33.207C23.977 33.207 24.026 33.155 24.027 33.094V33.074C24.0229 33.0477 24.0094 33.0238 23.9889 33.0067C23.9685 32.9896 23.9426 32.9805 23.916 32.981ZM24.479 32.981C24.464 32.9807 24.4492 32.9835 24.4353 32.9891C24.4214 32.9946 24.4088 33.0029 24.3981 33.0135C24.3875 33.024 24.3791 33.0365 24.3734 33.0504C24.3677 33.0642 24.3648 33.0791 24.365 33.094C24.365 33.156 24.417 33.208 24.479 33.207C24.539 33.207 24.589 33.155 24.589 33.094V33.086C24.5872 33.0579 24.5749 33.0315 24.5545 33.012C24.5341 32.9925 24.5072 32.9815 24.479 32.981ZM25.041 32.981C25.0261 32.9809 25.0113 32.9837 24.9976 32.9893C24.9838 32.995 24.9713 33.0033 24.9608 33.0138C24.9503 33.0243 24.9419 33.0368 24.9363 33.0506C24.9307 33.0644 24.9278 33.0791 24.928 33.094C24.928 33.156 24.979 33.208 25.041 33.207C25.102 33.207 25.151 33.155 25.152 33.094V33.086C25.1502 33.0577 25.1378 33.0311 25.1172 33.0116C25.0966 32.9922 25.0693 32.9812 25.041 32.981ZM25.601 32.981C25.5714 32.9815 25.5433 32.9937 25.5227 33.0149C25.5021 33.036 25.4907 33.0645 25.491 33.094C25.491 33.155 25.541 33.207 25.601 33.207C25.631 33.207 25.6599 33.1951 25.6812 33.174C25.7026 33.1528 25.7147 33.1241 25.715 33.094V33.086C25.7132 33.0574 25.7005 33.0305 25.6794 33.011C25.6584 32.9914 25.6307 32.9807 25.602 32.981H25.601ZM26.164 32.981C26.1493 32.9811 26.1347 32.9842 26.1212 32.9899C26.1077 32.9957 26.0954 33.004 26.0851 33.0145C26.0748 33.025 26.0666 33.0374 26.0611 33.0511C26.0556 33.0647 26.0528 33.0793 26.053 33.094C26.053 33.155 26.103 33.207 26.164 33.207C26.1939 33.2068 26.2225 33.1948 26.2436 33.1736C26.2647 33.1525 26.2767 33.1239 26.277 33.094V33.086C26.2752 33.0574 26.2625 33.0305 26.2414 33.011C26.2204 32.9914 26.1927 32.9807 26.164 32.981ZM26.727 32.981C26.7122 32.981 26.6975 32.9839 26.6839 32.9896C26.6702 32.9953 26.6578 33.0037 26.6474 33.0142C26.637 33.0247 26.6288 33.0371 26.6232 33.0508C26.6176 33.0646 26.6148 33.0792 26.615 33.094C26.615 33.155 26.665 33.207 26.727 33.207C26.7569 33.2068 26.7855 33.1948 26.8066 33.1736C26.8277 33.1525 26.8397 33.1239 26.84 33.094V33.086C26.8382 33.0574 26.8255 33.0305 26.8044 33.011C26.7834 32.9914 26.7557 32.9807 26.727 32.981ZM27.289 32.981C27.2743 32.9811 27.2597 32.9842 27.2462 32.9899C27.2327 32.9957 27.2204 33.004 27.2101 33.0145C27.1998 33.025 27.1916 33.0374 27.1861 33.0511C27.1806 33.0647 27.1778 33.0793 27.178 33.094C27.178 33.155 27.228 33.206 27.289 33.207C27.351 33.207 27.402 33.157 27.402 33.094C27.4022 33.0791 27.3995 33.0642 27.3939 33.0503C27.3884 33.0364 27.3801 33.0238 27.3695 33.0132C27.359 33.0025 27.3464 32.9941 27.3326 32.9884C27.3188 32.9827 27.3039 32.9799 27.289 32.98V32.981ZM27.852 32.981C27.8372 32.981 27.8225 32.9839 27.8089 32.9896C27.7952 32.9953 27.7828 33.0037 27.7724 33.0142C27.762 33.0247 27.7538 33.0371 27.7482 33.0508C27.7426 33.0646 27.7398 33.0792 27.74 33.094C27.74 33.155 27.79 33.207 27.852 33.207C27.912 33.207 27.962 33.155 27.962 33.094C27.964 33.086 27.964 33.082 27.962 33.074C27.9579 33.0479 27.9445 33.0241 27.9243 33.007C27.9041 32.9899 27.8784 32.9807 27.852 32.981ZM28.414 32.981C28.3991 32.9809 28.3843 32.9837 28.3706 32.9893C28.3568 32.995 28.3443 33.0033 28.3338 33.0138C28.3233 33.0243 28.3149 33.0368 28.3093 33.0506C28.3037 33.0644 28.3008 33.0791 28.301 33.094C28.301 33.156 28.352 33.208 28.414 33.207C28.475 33.207 28.524 33.155 28.525 33.094V33.086C28.5232 33.0579 28.5109 33.0315 28.4905 33.012C28.4701 32.9925 28.4432 32.9815 28.415 32.981H28.414ZM28.977 32.981C28.962 32.9807 28.9472 32.9835 28.9333 32.9891C28.9194 32.9946 28.9068 33.0029 28.8961 33.0135C28.8855 33.024 28.8771 33.0365 28.8714 33.0504C28.8657 33.0642 28.8628 33.0791 28.863 33.094C28.863 33.156 28.915 33.208 28.977 33.207C29.037 33.207 29.087 33.155 29.087 33.094V33.086C29.0852 33.0579 29.0729 33.0315 29.0525 33.012C29.0321 32.9925 29.0052 32.9815 28.977 32.981ZM29.539 32.981C29.5241 32.9809 29.5093 32.9837 29.4956 32.9893C29.4818 32.995 29.4693 33.0033 29.4588 33.0138C29.4483 33.0243 29.4399 33.0368 29.4343 33.0506C29.4287 33.0644 29.4258 33.0791 29.426 33.094C29.426 33.156 29.477 33.208 29.539 33.207C29.6 33.207 29.649 33.155 29.65 33.094V33.086C29.6482 33.0579 29.6359 33.0315 29.6155 33.012C29.5951 32.9925 29.5682 32.9815 29.54 32.981H29.539ZM30.099 32.981C30.0694 32.9815 30.0413 32.9937 30.0207 33.0149C30.0001 33.036 29.9887 33.0645 29.989 33.094C29.989 33.155 30.038 33.207 30.099 33.207C30.129 33.207 30.1579 33.1951 30.1792 33.174C30.2006 33.1528 30.2127 33.1241 30.213 33.094V33.086C30.2112 33.0574 30.1985 33.0305 30.1774 33.011C30.1564 32.9914 30.1287 32.9807 30.1 32.981H30.099ZM30.662 32.981C30.6473 32.9811 30.6327 32.9842 30.6192 32.9899C30.6057 32.9957 30.5934 33.004 30.5831 33.0145C30.5728 33.025 30.5646 33.0374 30.5591 33.0511C30.5536 33.0647 30.5508 33.0793 30.551 33.094C30.551 33.155 30.601 33.207 30.662 33.207C30.6919 33.2068 30.7205 33.1948 30.7416 33.1736C30.7627 33.1525 30.7747 33.1239 30.775 33.094V33.086C30.7732 33.0574 30.7605 33.0305 30.7394 33.011C30.7184 32.9914 30.6907 32.9807 30.662 32.981ZM31.225 32.981C31.2102 32.981 31.1955 32.9839 31.1819 32.9896C31.1682 32.9953 31.1558 33.0037 31.1454 33.0142C31.135 33.0247 31.1268 33.0371 31.1212 33.0508C31.1156 33.0646 31.1128 33.0792 31.113 33.094C31.113 33.155 31.163 33.207 31.225 33.207C31.2549 33.2068 31.2835 33.1948 31.3046 33.1736C31.3257 33.1525 31.3377 33.1239 31.338 33.094V33.086C31.3362 33.0574 31.3235 33.0305 31.3024 33.011C31.2814 32.9914 31.2537 32.9807 31.225 32.981ZM31.787 32.981C31.7723 32.9811 31.7577 32.9842 31.7442 32.9899C31.7307 32.9957 31.7184 33.004 31.7081 33.0145C31.6978 33.025 31.6896 33.0374 31.6841 33.0511C31.6786 33.0647 31.6758 33.0793 31.676 33.094C31.676 33.155 31.726 33.207 31.787 33.207C31.848 33.207 31.897 33.155 31.898 33.094V33.074C31.8939 33.0479 31.8805 33.0241 31.8603 33.007C31.8401 32.9899 31.8144 32.9807 31.788 32.981H31.787ZM32.35 32.981C32.335 32.9807 32.3202 32.9835 32.3063 32.9891C32.2924 32.9946 32.2798 33.0029 32.2691 33.0135C32.2585 33.024 32.2501 33.0365 32.2444 33.0504C32.2387 33.0642 32.2358 33.0791 32.236 33.094C32.236 33.156 32.288 33.208 32.35 33.207C32.41 33.207 32.46 33.155 32.46 33.094C32.462 33.086 32.462 33.082 32.46 33.074C32.4559 33.0479 32.4425 33.0241 32.4223 33.007C32.4021 32.9899 32.3764 32.9807 32.35 32.981ZM32.912 32.981C32.8971 32.9809 32.8823 32.9837 32.8686 32.9893C32.8548 32.995 32.8423 33.0033 32.8318 33.0138C32.8213 33.0243 32.8129 33.0368 32.8073 33.0506C32.8017 33.0644 32.7988 33.0791 32.799 33.094C32.799 33.156 32.85 33.208 32.912 33.207C32.973 33.207 33.022 33.155 33.023 33.094V33.086C33.0212 33.0579 33.0089 33.0315 32.9885 33.012C32.9681 32.9925 32.9412 32.9815 32.913 32.981H32.912ZM33.475 32.981C33.46 32.9807 33.4452 32.9835 33.4313 32.9891C33.4174 32.9946 33.4048 33.0029 33.3941 33.0135C33.3835 33.024 33.3751 33.0365 33.3694 33.0504C33.3637 33.0642 33.3608 33.0791 33.361 33.094C33.361 33.156 33.413 33.208 33.475 33.207C33.5043 33.206 33.5322 33.1937 33.5527 33.1726C33.5732 33.1516 33.5847 33.1234 33.585 33.094V33.086C33.5832 33.0579 33.5709 33.0315 33.5505 33.012C33.5301 32.9925 33.5032 32.9815 33.475 32.981ZM34.037 32.981C34.0221 32.9809 34.0073 32.9837 33.9936 32.9893C33.9798 32.995 33.9673 33.0033 33.9568 33.0138C33.9463 33.0243 33.9379 33.0368 33.9323 33.0506C33.9267 33.0644 33.9238 33.0791 33.924 33.094C33.924 33.156 33.975 33.208 34.037 33.207C34.0665 33.2062 34.0946 33.194 34.1153 33.1729C34.136 33.1519 34.1477 33.1236 34.148 33.094V33.086C34.1462 33.0579 34.1339 33.0315 34.1135 33.012C34.0931 32.9925 34.0662 32.9815 34.038 32.981H34.037ZM34.597 32.981C34.5674 32.9815 34.5393 32.9937 34.5187 33.0149C34.4981 33.036 34.4867 33.0645 34.487 33.094C34.487 33.155 34.536 33.207 34.597 33.207C34.627 33.207 34.6559 33.1951 34.6772 33.174C34.6986 33.1528 34.7107 33.1241 34.711 33.094V33.086C34.7092 33.0574 34.6965 33.0305 34.6754 33.011C34.6544 32.9914 34.6267 32.9807 34.598 32.981H34.597ZM16.455 35.187V35.189C16.3303 35.191 16.2073 35.2177 16.093 35.2675C15.9787 35.3172 15.8754 35.3891 15.789 35.479L13.98 37.336C13.8931 37.4253 13.8248 37.5308 13.7788 37.6466C13.7329 37.7624 13.7103 37.8861 13.7124 38.0106C13.7144 38.1351 13.741 38.258 13.7907 38.3722C13.8404 38.4864 13.9122 38.5897 14.002 38.676C14.0909 38.7634 14.1963 38.8322 14.312 38.8785C14.4277 38.9249 14.5515 38.9478 14.6762 38.9459C14.8008 38.944 14.9238 38.9175 15.0381 38.8677C15.1524 38.8179 15.2557 38.746 15.342 38.656L17.15 36.796C17.2368 36.7068 17.3051 36.6014 17.351 36.4858C17.3969 36.3701 17.4195 36.2466 17.4176 36.1222C17.4156 35.9977 17.3891 35.8749 17.3396 35.7608C17.2901 35.6467 17.2185 35.5434 17.129 35.457C17.04 35.3698 16.9346 35.301 16.8189 35.2547C16.7033 35.2084 16.5796 35.1854 16.455 35.187ZM23.395 35.187V35.189C23.2703 35.1911 23.1473 35.2178 23.033 35.2675C22.9187 35.3173 22.8154 35.3892 22.729 35.479L20.919 37.336C20.8321 37.4253 20.7638 37.5308 20.7178 37.6466C20.6719 37.7624 20.6493 37.8861 20.6514 38.0106C20.6534 38.1351 20.68 38.258 20.7297 38.3722C20.7794 38.4864 20.8512 38.5897 20.941 38.676C21.0299 38.7634 21.1353 38.8322 21.251 38.8785C21.3667 38.9249 21.4905 38.9478 21.6152 38.9459C21.7398 38.944 21.8628 38.9175 21.9771 38.8677C22.0914 38.8179 22.1947 38.746 22.281 38.656L24.09 36.796C24.1767 36.7068 24.2449 36.6013 24.2908 36.4856C24.3366 36.3699 24.3591 36.2464 24.3571 36.1219C24.3551 35.9975 24.3285 35.8748 24.2788 35.7606C24.2292 35.6465 24.1576 35.5434 24.068 35.457C23.979 35.3698 23.8736 35.3011 23.7579 35.2548C23.6422 35.2084 23.5186 35.1854 23.394 35.187H23.395ZM26.957 35.187V35.189C26.8323 35.1911 26.7093 35.2178 26.595 35.2675C26.4807 35.3173 26.3774 35.3892 26.291 35.479L24.482 37.336C24.3951 37.4253 24.3268 37.5308 24.2808 37.6466C24.2349 37.7624 24.2123 37.8861 24.2144 38.0106C24.2164 38.1351 24.243 38.258 24.2927 38.3722C24.3424 38.4864 24.4142 38.5897 24.504 38.676C24.5929 38.7634 24.6983 38.8322 24.814 38.8785C24.9297 38.9249 25.0535 38.9478 25.1782 38.9459C25.3028 38.944 25.4258 38.9175 25.5401 38.8677C25.6544 38.8179 25.7577 38.746 25.844 38.656L27.652 36.796C27.7388 36.7068 27.8071 36.6014 27.853 36.4858C27.8989 36.3701 27.9215 36.2466 27.9196 36.1222C27.9176 35.9977 27.8911 35.8749 27.8416 35.7608C27.7921 35.6467 27.7205 35.5434 27.631 35.457C27.542 35.3698 27.4366 35.3011 27.3209 35.2548C27.2052 35.2084 27.0816 35.1854 26.957 35.187ZM30.158 35.187V35.189C30.0333 35.191 29.9103 35.2177 29.796 35.2675C29.6817 35.3172 29.5784 35.3891 29.492 35.479L27.684 37.336C27.5971 37.4252 27.5286 37.5307 27.4826 37.6464C27.4366 37.7622 27.4139 37.8859 27.4159 38.0104C27.4178 38.1349 27.4444 38.2578 27.494 38.3721C27.5436 38.4863 27.6153 38.5896 27.705 38.676C27.7939 38.7634 27.8993 38.8322 28.015 38.8785C28.1307 38.9249 28.2545 38.9478 28.3792 38.9459C28.5038 38.944 28.6268 38.9175 28.7411 38.8677C28.8554 38.8179 28.9587 38.746 29.045 38.656L30.853 36.796C30.9398 36.7068 31.0081 36.6014 31.054 36.4858C31.0999 36.3701 31.1225 36.2466 31.1206 36.1222C31.1186 35.9977 31.0921 35.8749 31.0426 35.7608C30.9931 35.6467 30.9215 35.5434 30.832 35.457C30.743 35.3698 30.6376 35.301 30.5219 35.2547C30.4063 35.2084 30.2826 35.1854 30.158 35.187ZM33.721 35.187V35.189C33.5963 35.191 33.4733 35.2177 33.359 35.2675C33.2447 35.3172 33.1414 35.3891 33.055 35.479L31.246 37.336C31.1591 37.4253 31.0908 37.5308 31.0448 37.6466C30.9989 37.7624 30.9763 37.8861 30.9784 38.0106C30.9804 38.1351 31.007 38.258 31.0567 38.3722C31.1064 38.4864 31.1782 38.5897 31.268 38.676C31.3569 38.7634 31.4623 38.8322 31.578 38.8785C31.6937 38.9249 31.8175 38.9478 31.9422 38.9459C32.0668 38.944 32.1898 38.9175 32.3041 38.8677C32.4184 38.8179 32.5217 38.746 32.608 38.656L34.416 36.796C34.5028 36.7068 34.5711 36.6014 34.617 36.4858C34.6629 36.3701 34.6855 36.2466 34.6836 36.1222C34.6816 35.9977 34.6551 35.8749 34.6056 35.7608C34.5561 35.6467 34.4845 35.5434 34.395 35.457C34.306 35.3698 34.2006 35.301 34.0849 35.2547C33.9693 35.2084 33.8456 35.1854 33.721 35.187ZM20.018 35.189C19.8933 35.191 19.7703 35.2177 19.656 35.2675C19.5417 35.3172 19.4384 35.3891 19.352 35.479L17.543 37.336C17.4561 37.4252 17.3876 37.5307 17.3416 37.6464C17.2956 37.7622 17.2729 37.8859 17.2749 38.0104C17.2768 38.1349 17.3034 38.2578 17.353 38.3721C17.4026 38.4863 17.4743 38.5896 17.564 38.676C17.6529 38.7634 17.7583 38.8322 17.874 38.8785C17.9897 38.9249 18.1135 38.9478 18.2382 38.9459C18.3628 38.944 18.4858 38.9175 18.6001 38.8677C18.7144 38.8179 18.8177 38.746 18.904 38.656L20.713 36.799C20.7998 36.7098 20.8682 36.6042 20.9141 36.4884C20.9601 36.3727 20.9826 36.249 20.9806 36.1244C20.9786 35.9999 20.9519 35.877 20.9022 35.7628C20.8525 35.6486 20.7807 35.5454 20.691 35.459C20.6021 35.3719 20.4969 35.3032 20.3814 35.2569C20.2659 35.2106 20.1424 35.1875 20.018 35.189ZM16.52 35.672C16.6114 35.68 16.6978 35.7176 16.766 35.779C17.172 36.141 16.691 36.565 16.516 36.748L15.65 37.652C15.043 38.284 14.78 38.711 14.355 38.302C13.995 37.929 14.312 37.707 15 37.008L15.865 36.105C16.071 35.905 16.283 35.66 16.52 35.672ZM20.082 35.672C20.1734 35.68 20.2598 35.7176 20.328 35.779C20.735 36.141 20.253 36.565 20.078 36.748L19.213 37.652C18.606 38.284 18.342 38.711 17.918 38.302C17.558 37.929 17.874 37.707 18.563 37.008L19.428 36.105C19.633 35.905 19.846 35.66 20.082 35.672ZM23.459 35.672C23.5504 35.68 23.6368 35.7176 23.705 35.779C24.112 36.141 23.63 36.565 23.455 36.748L22.59 37.652C21.983 38.284 21.719 38.711 21.295 38.302C20.935 37.929 21.251 37.707 21.939 37.008L22.805 36.105C23.01 35.905 23.223 35.66 23.459 35.672ZM27.022 35.672C27.1134 35.68 27.1998 35.7176 27.268 35.779C27.674 36.141 27.193 36.565 27.018 36.748L26.152 37.652C25.545 38.284 25.282 38.711 24.857 38.302C24.497 37.929 24.814 37.707 25.502 37.008L26.367 36.105C26.573 35.905 26.785 35.66 27.021 35.672H27.022ZM30.222 35.672C30.3138 35.6798 30.4005 35.7174 30.469 35.779C30.875 36.141 30.394 36.565 30.219 36.748L29.353 37.652C28.746 38.284 28.483 38.711 28.059 38.302C27.699 37.929 28.015 37.707 28.703 37.008L29.568 36.105C29.774 35.905 29.986 35.66 30.223 35.672H30.222ZM33.785 35.672C33.8764 35.68 33.9628 35.7176 34.031 35.779C34.438 36.141 33.956 36.565 33.781 36.748L32.916 37.652C32.309 38.284 32.045 38.711 31.621 38.302C31.261 37.929 31.577 37.707 32.266 37.008L33.131 36.105C33.336 35.905 33.549 35.66 33.785 35.672Z" fill="#333333"/>
</svg>
