<svg width="48" height="48" viewBox="0 0 48 48" fill="none" xmlns="http://www.w3.org/2000/svg">
<path d="M23.992 4.06494C23.953 4.06694 23.926 4.09294 23.908 4.12494H14.146C13.277 4.12494 12.58 4.82394 12.58 5.69294V42.5549C12.58 43.4249 13.277 44.1249 14.146 44.1249H33.852C34.721 44.1249 35.42 43.4249 35.42 42.5549V5.69294C35.42 4.82394 34.721 4.12494 33.852 4.12494H24.092C24.072 4.09094 24.042 4.06494 24 4.06494H23.992ZM14.58 4.62494H33.418C34.249 4.62494 34.92 5.30694 34.92 6.15494V42.0939C34.92 42.9409 34.25 43.6249 33.418 43.6249H14.58C13.749 43.6249 13.08 42.9409 13.08 42.0939V6.15394C13.08 5.30694 13.749 4.62494 14.58 4.62494ZM23.992 4.62694C23.9627 4.62799 23.9349 4.64052 23.9147 4.66182C23.8945 4.68313 23.8835 4.71152 23.884 4.74087C23.8846 4.77022 23.8966 4.7982 23.9175 4.81877C23.9385 4.83934 23.9667 4.85087 23.996 4.85087C24.0254 4.85087 24.0536 4.83934 24.0745 4.81877C24.0954 4.7982 24.1075 4.77022 24.108 4.74087C24.1085 4.71152 24.0975 4.68313 24.0773 4.66182C24.0571 4.64052 24.0294 4.62799 24 4.62694H23.992ZM23.992 5.18994C23.9773 5.19086 23.9629 5.19467 23.9497 5.20115C23.9365 5.20762 23.9246 5.21664 23.9149 5.22769C23.9051 5.23875 23.8976 5.25161 23.8929 5.26555C23.8881 5.27949 23.8861 5.29423 23.887 5.30894C23.8879 5.32365 23.8917 5.33803 23.8982 5.35127C23.9047 5.36451 23.9137 5.37634 23.9248 5.38609C23.9358 5.39584 23.9487 5.40332 23.9626 5.40809C23.9766 5.41287 23.9913 5.41486 24.006 5.41394C24.0357 5.41208 24.0635 5.3985 24.0832 5.37619C24.1029 5.35387 24.1129 5.32465 24.111 5.29494C24.1092 5.26524 24.0956 5.23749 24.0733 5.2178C24.0509 5.1981 24.0217 5.18808 23.992 5.18994ZM23.982 5.75194C23.9609 5.75519 23.9411 5.76444 23.925 5.77859C23.9089 5.79274 23.8973 5.81121 23.8914 5.83179C23.8855 5.85238 23.8856 5.87422 23.8917 5.89473C23.8978 5.91525 23.9097 5.93357 23.926 5.94754C23.9422 5.96151 23.9621 5.97053 23.9833 5.97353C24.0045 5.97654 24.0261 5.97341 24.0456 5.9645C24.0651 5.9556 24.0816 5.9413 24.0932 5.9233C24.1048 5.9053 24.111 5.88435 24.111 5.86294C24.111 5.80294 24.061 5.75294 24 5.75194H23.982ZM20.295 6.21694V6.21894C20.1704 6.22088 20.0475 6.24741 19.9332 6.29701C19.8189 6.3466 19.7155 6.41829 19.629 6.50794L17.82 8.36494C17.7288 8.45308 17.6563 8.55863 17.6067 8.67534C17.5571 8.79205 17.5314 8.91752 17.5312 9.04434C17.531 9.17115 17.5563 9.29671 17.6056 9.41356C17.6548 9.53042 17.727 9.6362 17.8179 9.72462C17.9088 9.81304 18.0165 9.88231 18.1347 9.9283C18.2529 9.9743 18.3791 9.9961 18.5059 9.9924C18.6326 9.9887 18.7573 9.95957 18.8726 9.90676C18.9879 9.85395 19.0914 9.77852 19.177 9.68494L20.987 7.82594C21.0741 7.73694 21.1428 7.63161 21.1891 7.51598C21.2353 7.40036 21.2583 7.27673 21.2566 7.1522C21.255 7.02767 21.2287 6.9047 21.1793 6.79036C21.13 6.67602 21.0585 6.57257 20.969 6.48594C20.88 6.39872 20.7747 6.32996 20.659 6.28363C20.5433 6.23729 20.4196 6.21429 20.295 6.21594V6.21694ZM29.488 6.21694V6.21894C29.3634 6.22083 29.2405 6.24733 29.1262 6.29693C29.0119 6.34653 28.9085 6.41824 28.822 6.50794L27.014 8.36494C26.9228 8.45308 26.8503 8.55863 26.8007 8.67534C26.7511 8.79205 26.7254 8.91752 26.7252 9.04434C26.725 9.17115 26.7503 9.29671 26.7996 9.41356C26.8488 9.53042 26.921 9.6362 27.0119 9.72462C27.1028 9.81304 27.2105 9.88231 27.3287 9.9283C27.4469 9.9743 27.5731 9.9961 27.6999 9.9924C27.8266 9.9887 27.9513 9.95957 28.0666 9.90676C28.1819 9.85395 28.2854 9.77852 28.371 9.68494L30.18 7.82594C30.2671 7.73694 30.3358 7.63161 30.3821 7.51598C30.4283 7.40036 30.4513 7.27673 30.4496 7.1522C30.448 7.02767 30.4217 6.9047 30.3723 6.79036C30.323 6.67602 30.2515 6.57257 30.162 6.48594C30.073 6.39872 29.9677 6.32996 29.852 6.28363C29.7363 6.23729 29.6126 6.21429 29.488 6.21594V6.21694ZM24.002 6.31294C23.9873 6.31281 23.9727 6.31558 23.9591 6.32108C23.9454 6.32659 23.933 6.33473 23.9225 6.34504C23.912 6.35535 23.9037 6.36762 23.8979 6.38116C23.8922 6.3947 23.8891 6.40923 23.889 6.42394C23.8889 6.43865 23.8917 6.45324 23.8972 6.46688C23.9027 6.48052 23.9108 6.49294 23.9211 6.50343C23.9314 6.51392 23.9437 6.52228 23.9572 6.52803C23.9708 6.53378 23.9853 6.53681 24 6.53694C24.0297 6.53721 24.0583 6.52566 24.0795 6.50484C24.1007 6.48403 24.1128 6.45565 24.113 6.42594C24.1133 6.39624 24.1017 6.36764 24.0809 6.34645C24.0601 6.32526 24.0317 6.31321 24.002 6.31294ZM20.359 6.70094H20.361C20.44 6.70494 20.521 6.73994 20.605 6.80894C21.012 7.16994 20.529 7.59394 20.353 7.77694L19.488 8.68194C18.881 9.31294 18.617 9.73994 18.193 9.33194C17.833 8.95894 18.153 8.73594 18.842 8.03694L19.707 7.13494C19.912 6.93494 20.124 6.69094 20.359 6.70094ZM29.553 6.70094H29.555C29.633 6.70494 29.715 6.73994 29.799 6.80894C30.205 7.16994 29.722 7.59394 29.547 7.77694L28.682 8.68194C28.074 9.31294 27.81 9.73994 27.387 9.33194C27.027 8.95894 27.347 8.73594 28.035 8.03694L28.9 7.13494C29.105 6.93494 29.317 6.69094 29.553 6.70094ZM23.993 6.87494C23.9637 6.87599 23.9359 6.88852 23.9157 6.90982C23.8955 6.93113 23.8845 6.95952 23.885 6.98887C23.8856 7.01822 23.8976 7.0462 23.9185 7.06677C23.9395 7.08734 23.9677 7.09887 23.997 7.09887C24.0264 7.09887 24.0546 7.08734 24.0755 7.06677C24.0964 7.0462 24.1085 7.01822 24.109 6.98887C24.1095 6.95952 24.0985 6.93113 24.0783 6.90982C24.0581 6.88852 24.0304 6.87599 24.001 6.87494H23.992H23.993ZM23.993 7.43494C23.9637 7.43599 23.9359 7.44852 23.9157 7.46982C23.8955 7.49113 23.8845 7.51952 23.885 7.54887C23.8856 7.57822 23.8976 7.6062 23.9185 7.62677C23.9395 7.64734 23.9677 7.65887 23.997 7.65887C24.0264 7.65887 24.0546 7.64734 24.0755 7.62677C24.0964 7.6062 24.1085 7.57822 24.109 7.54887C24.1095 7.51952 24.0985 7.49113 24.0783 7.46982C24.0581 7.44852 24.0304 7.43599 24.001 7.43494H23.992H23.993ZM23.993 7.99794C23.9637 7.99899 23.9359 8.01152 23.9157 8.03282C23.8955 8.05413 23.8845 8.08252 23.885 8.11187C23.8856 8.14122 23.8976 8.1692 23.9185 8.18977C23.9395 8.21034 23.9677 8.22187 23.997 8.22187C24.0264 8.22187 24.0546 8.21034 24.0755 8.18977C24.0964 8.1692 24.1085 8.14122 24.109 8.11187C24.1095 8.08252 24.0985 8.05413 24.0783 8.03282C24.0581 8.01152 24.0304 7.99899 24.001 7.99794H23.992H23.993ZM23.993 8.56094C23.9783 8.56179 23.9639 8.56554 23.9507 8.57195C23.9374 8.57837 23.9255 8.58734 23.9157 8.59834C23.9059 8.60935 23.8984 8.62217 23.8936 8.63609C23.8887 8.65 23.8867 8.66473 23.8875 8.67944C23.8884 8.69415 23.8921 8.70855 23.8985 8.72181C23.9049 8.73507 23.9139 8.74694 23.9249 8.75673C23.9359 8.76653 23.9487 8.77406 23.9627 8.7789C23.9766 8.78374 23.9913 8.78579 24.006 8.78494C24.0357 8.78308 24.0635 8.7695 24.0832 8.74719C24.1029 8.72487 24.1129 8.69565 24.111 8.66594C24.1092 8.63624 24.0956 8.60849 24.0733 8.5888C24.0509 8.5691 24.0217 8.55908 23.992 8.56094H23.993ZM23.993 9.12294C23.9637 9.12399 23.9359 9.13652 23.9157 9.15782C23.8955 9.17913 23.8845 9.20752 23.885 9.23687C23.8856 9.26622 23.8976 9.2942 23.9185 9.31477C23.9395 9.33534 23.9677 9.34687 23.997 9.34687C24.0264 9.34687 24.0546 9.33534 24.0755 9.31477C24.0964 9.2942 24.1085 9.26622 24.109 9.23687C24.1095 9.20752 24.0985 9.17913 24.0783 9.15782C24.0581 9.13652 24.0304 9.12399 24.001 9.12294H23.992H23.993ZM23.981 9.68594C23.9544 9.69047 23.9304 9.70435 23.9131 9.72507C23.8959 9.74579 23.8866 9.77199 23.887 9.79894C23.887 9.82865 23.8988 9.85713 23.9198 9.87814C23.9408 9.89914 23.9693 9.91094 23.999 9.91094C24.0287 9.91094 24.0572 9.89914 24.0782 9.87814C24.0992 9.85713 24.111 9.82865 24.111 9.79894C24.1108 9.76939 24.0991 9.7411 24.0783 9.72002C24.0576 9.69893 24.0296 9.68672 24 9.68594H23.98H23.981ZM20.295 10.2159V10.2189C20.1704 10.2208 20.0475 10.2473 19.9332 10.2969C19.8189 10.3465 19.7155 10.4182 19.629 10.5079L17.82 12.3649C17.7288 12.4531 17.6563 12.5586 17.6067 12.6753C17.5571 12.792 17.5314 12.9175 17.5312 13.0443C17.531 13.1711 17.5563 13.2967 17.6056 13.4136C17.6548 13.5304 17.727 13.6362 17.8179 13.7246C17.9088 13.813 18.0165 13.8823 18.1347 13.9283C18.2529 13.9743 18.3791 13.9961 18.5059 13.9924C18.6326 13.9887 18.7573 13.9596 18.8726 13.9068C18.9879 13.8539 19.0914 13.7785 19.177 13.6849L20.987 11.8259C21.0741 11.7369 21.1428 11.6316 21.1891 11.516C21.2353 11.4004 21.2583 11.2767 21.2566 11.1522C21.255 11.0277 21.2287 10.9047 21.1793 10.7904C21.13 10.676 21.0585 10.5726 20.969 10.4859C20.88 10.3987 20.7747 10.33 20.659 10.2836C20.5433 10.2373 20.4196 10.2143 20.295 10.2159ZM29.488 10.2159V10.2189C29.3634 10.2208 29.2405 10.2473 29.1262 10.2969C29.0119 10.3465 28.9085 10.4182 28.822 10.5079L27.014 12.3649C26.9228 12.4531 26.8503 12.5586 26.8007 12.6753C26.7511 12.792 26.7254 12.9175 26.7252 13.0443C26.725 13.1711 26.7503 13.2967 26.7996 13.4136C26.8488 13.5304 26.921 13.6362 27.0119 13.7246C27.1028 13.813 27.2105 13.8823 27.3287 13.9283C27.4469 13.9743 27.5731 13.9961 27.6999 13.9924C27.8266 13.9887 27.9513 13.9596 28.0666 13.9068C28.1819 13.8539 28.2854 13.7785 28.371 13.6849L30.18 11.8259C30.2671 11.7369 30.3358 11.6316 30.3821 11.516C30.4283 11.4004 30.4513 11.2767 30.4496 11.1522C30.448 11.0277 30.4217 10.9047 30.3723 10.7904C30.323 10.676 30.2515 10.5726 30.162 10.4859C30.073 10.3987 29.9677 10.33 29.852 10.2836C29.7363 10.2373 29.6126 10.2143 29.488 10.2159ZM24.002 10.2459C23.987 10.2461 23.9722 10.2492 23.9585 10.255C23.9447 10.2609 23.9322 10.2694 23.9217 10.28C23.9112 10.2907 23.9029 10.3034 23.8973 10.3172C23.8917 10.3311 23.8889 10.346 23.889 10.3609C23.889 10.4229 23.939 10.4709 24.002 10.4709C24.0165 10.4711 24.031 10.4683 24.0444 10.4629C24.0579 10.4574 24.0701 10.4493 24.0804 10.4391C24.0908 10.4289 24.099 10.4167 24.1045 10.4033C24.1101 10.3899 24.113 10.3755 24.113 10.3609C24.1133 10.331 24.1018 10.3022 24.081 10.2807C24.0603 10.2592 24.0319 10.2467 24.002 10.2459ZM20.359 10.7009H20.361C20.44 10.7049 20.521 10.7399 20.605 10.8089C21.012 11.1699 20.529 11.5939 20.353 11.7769L19.488 12.6819C18.881 13.3129 18.617 13.7399 18.193 13.3319C17.833 12.9589 18.153 12.7359 18.842 12.0369L19.707 11.1349C19.912 10.9349 20.124 10.6909 20.359 10.7009ZM29.553 10.7009H29.555C29.633 10.7049 29.715 10.7399 29.799 10.8089C30.205 11.1699 29.722 11.5939 29.547 11.7769L28.682 12.6819C28.074 13.3129 27.81 13.7399 27.387 13.3319C27.027 12.9589 27.347 12.7359 28.035 12.0369L28.9 11.1349C29.105 10.9349 29.317 10.6909 29.553 10.7009ZM24.002 10.8089C23.9723 10.8087 23.9437 10.8202 23.9225 10.841C23.9013 10.8619 23.8893 10.8902 23.889 10.9199C23.8888 10.9496 23.9003 10.9782 23.9211 10.9994C23.9419 11.0206 23.9703 11.0327 24 11.0329C24.0147 11.0331 24.0293 11.0303 24.043 11.0248C24.0566 11.0193 24.069 11.0112 24.0795 11.0008C24.09 10.9905 24.0984 10.9783 24.1041 10.9647C24.1099 10.9512 24.1129 10.9366 24.113 10.9219C24.1131 10.9072 24.1104 10.8926 24.1049 10.879C24.0994 10.8654 24.0912 10.8529 24.0809 10.8425C24.0706 10.832 24.0583 10.8236 24.0448 10.8178C24.0313 10.8121 24.0167 10.8091 24.002 10.8089ZM23.992 11.3709C23.9637 11.3744 23.9377 11.3884 23.9192 11.4101C23.9007 11.4318 23.891 11.4596 23.892 11.4881C23.893 11.5166 23.9046 11.5437 23.9246 11.564C23.9446 11.5844 23.9715 11.5965 24 11.5979C24.061 11.5979 24.11 11.5459 24.111 11.4839C24.111 11.4686 24.1079 11.4534 24.1019 11.4393C24.0958 11.4251 24.087 11.4124 24.0758 11.4018C24.0647 11.3913 24.0515 11.3831 24.0371 11.3778C24.0227 11.3724 24.0074 11.3701 23.992 11.3709ZM23.992 11.9339C23.9637 11.9374 23.9377 11.9514 23.9192 11.9731C23.9007 11.9948 23.891 12.0226 23.892 12.0511C23.893 12.0796 23.9046 12.1067 23.9246 12.127C23.9446 12.1474 23.9715 12.1595 24 12.1609C24.061 12.1599 24.11 12.1079 24.111 12.0469C24.1111 12.0322 24.1084 12.0176 24.1029 12.004C24.0974 11.9904 24.0892 11.9779 24.0789 11.9675C24.0686 11.957 24.0563 11.9486 24.0428 11.9428C24.0293 11.9371 24.0147 11.9341 24 11.9339H23.992ZM23.992 12.4959C23.9699 12.4973 23.9487 12.5051 23.9311 12.5184C23.9134 12.5318 23.9 12.55 23.8926 12.5708C23.8852 12.5917 23.884 12.6142 23.8893 12.6357C23.8946 12.6572 23.9061 12.6767 23.9223 12.6917C23.9385 12.7067 23.9588 12.7166 23.9807 12.7202C24.0025 12.7238 24.0249 12.7209 24.0451 12.7119C24.0653 12.7029 24.0824 12.6881 24.0943 12.6695C24.1062 12.6508 24.1124 12.6291 24.112 12.6069C24.111 12.5469 24.062 12.4969 24 12.4969H23.992V12.4959ZM23.992 13.0589C23.9627 13.06 23.9349 13.0725 23.9147 13.0938C23.8945 13.1151 23.8835 13.1435 23.884 13.1729C23.8846 13.2022 23.8966 13.2302 23.9175 13.2508C23.9385 13.2713 23.9667 13.2829 23.996 13.2829C24.0254 13.2829 24.0536 13.2713 24.0745 13.2508C24.0954 13.2302 24.1075 13.2022 24.108 13.1729C24.1085 13.1435 24.0975 13.1151 24.0773 13.0938C24.0571 13.0725 24.0294 13.06 24 13.0589H23.992ZM23.992 13.6209C23.9622 13.6228 23.9343 13.6364 23.9145 13.6588C23.8947 13.6813 23.8847 13.7106 23.8865 13.7404C23.8884 13.7703 23.902 13.7982 23.9244 13.8179C23.9468 13.8377 23.9762 13.8478 24.006 13.8459C24.0208 13.845 24.0352 13.8412 24.0485 13.8347C24.0618 13.8282 24.0737 13.8191 24.0835 13.808C24.0933 13.7969 24.1008 13.784 24.1056 13.77C24.1104 13.756 24.1124 13.7412 24.1115 13.7264C24.1106 13.7117 24.1068 13.6972 24.1003 13.6839C24.0938 13.6706 24.0847 13.6587 24.0736 13.6489C24.0625 13.6391 24.0496 13.6316 24.0356 13.6268C24.0216 13.622 24.0068 13.62 23.992 13.6209ZM23.98 14.1839C23.9538 14.1882 23.93 14.2018 23.9129 14.2222C23.8959 14.2426 23.8867 14.2684 23.887 14.2949C23.8868 14.318 23.8937 14.3406 23.9068 14.3596C23.9198 14.3787 23.9383 14.3933 23.9599 14.4014C23.9815 14.4096 24.005 14.411 24.0274 14.4054C24.0498 14.3998 24.0699 14.3875 24.0851 14.3702C24.1003 14.3528 24.1098 14.3312 24.1123 14.3083C24.1149 14.2853 24.1103 14.2622 24.0993 14.2419C24.0883 14.2216 24.0714 14.2052 24.0508 14.1948C24.0301 14.1845 24.0069 14.1807 23.984 14.1839H23.98ZM20.295 14.2169V14.2189C20.1704 14.2208 20.0475 14.2473 19.9332 14.2969C19.8189 14.3465 19.7155 14.4182 19.629 14.5079L17.82 16.3649C17.7288 16.4531 17.6563 16.5586 17.6067 16.6753C17.5571 16.792 17.5314 16.9175 17.5312 17.0443C17.531 17.1711 17.5563 17.2967 17.6056 17.4136C17.6548 17.5304 17.727 17.6362 17.8179 17.7246C17.9088 17.813 18.0165 17.8823 18.1347 17.9283C18.2529 17.9743 18.3791 17.9961 18.5059 17.9924C18.6326 17.9887 18.7573 17.9596 18.8726 17.9068C18.9879 17.8539 19.0914 17.7785 19.177 17.6849L20.987 15.8259C21.0741 15.7369 21.1428 15.6316 21.1891 15.516C21.2353 15.4004 21.2583 15.2767 21.2566 15.1522C21.255 15.0277 21.2287 14.9047 21.1793 14.7904C21.13 14.676 21.0585 14.5726 20.969 14.4859C20.88 14.3987 20.7747 14.33 20.659 14.2836C20.5433 14.2373 20.4196 14.2143 20.295 14.2159V14.2169ZM29.488 14.2169V14.2189C29.3634 14.2208 29.2405 14.2473 29.1262 14.2969C29.0119 14.3465 28.9085 14.4182 28.822 14.5079L27.014 16.3649C26.9228 16.4531 26.8503 16.5586 26.8007 16.6753C26.7511 16.792 26.7254 16.9175 26.7252 17.0443C26.725 17.1711 26.7503 17.2967 26.7996 17.4136C26.8488 17.5304 26.921 17.6362 27.0119 17.7246C27.1028 17.813 27.2105 17.8823 27.3287 17.9283C27.4469 17.9743 27.5731 17.9961 27.6999 17.9924C27.8266 17.9887 27.9513 17.9596 28.0666 17.9068C28.1819 17.8539 28.2854 17.7785 28.371 17.6849L30.18 15.8259C30.2671 15.7369 30.3358 15.6316 30.3821 15.516C30.4283 15.4004 30.4513 15.2767 30.4496 15.1522C30.448 15.0277 30.4217 14.9047 30.3723 14.7904C30.323 14.676 30.2515 14.5726 30.162 14.4859C30.073 14.3987 29.9677 14.33 29.852 14.2836C29.7363 14.2373 29.6126 14.2143 29.488 14.2159V14.2169ZM20.359 14.7009H20.361C20.44 14.7049 20.521 14.7399 20.605 14.8089C21.012 15.1699 20.529 15.5939 20.353 15.7769L19.488 16.6819C18.881 17.3129 18.617 17.7399 18.193 17.3319C17.833 16.9589 18.153 16.7359 18.842 16.0369L19.707 15.1349C19.912 14.9349 20.124 14.6909 20.359 14.7009ZM29.553 14.7009H29.555C29.633 14.7049 29.715 14.7399 29.799 14.8089C30.205 15.1699 29.722 15.5939 29.547 15.7769L28.682 16.6819C28.074 17.3129 27.81 17.7399 27.387 17.3319C27.027 16.9589 27.347 16.7359 28.035 16.0369L28.9 15.1349C29.105 14.9349 29.317 14.6909 29.553 14.7009ZM23.98 14.7459C23.9589 14.7494 23.9393 14.7588 23.9233 14.773C23.9074 14.7873 23.8959 14.8058 23.8902 14.8263C23.8844 14.8469 23.8847 14.8687 23.8909 14.8891C23.8971 14.9096 23.909 14.9278 23.9253 14.9417C23.9415 14.9555 23.9614 14.9645 23.9826 14.9674C24.0037 14.9704 24.0253 14.9672 24.0447 14.9583C24.0641 14.9494 24.0806 14.9351 24.0922 14.9172C24.1037 14.8992 24.1099 14.8783 24.11 14.8569C24.11 14.7969 24.061 14.7469 24 14.7469H23.98V14.7459ZM24.002 15.3059C23.9722 15.3057 23.9435 15.3173 23.9222 15.3382C23.9009 15.3591 23.8888 15.3876 23.8885 15.4174C23.8883 15.4473 23.8999 15.476 23.9208 15.4973C23.9417 15.5186 23.9702 15.5307 24 15.5309C24.0147 15.5311 24.0293 15.5283 24.043 15.5228C24.0566 15.5173 24.069 15.5092 24.0795 15.4988C24.09 15.4885 24.0984 15.4763 24.1041 15.4627C24.1099 15.4492 24.1129 15.4346 24.113 15.4199C24.1131 15.4052 24.1104 15.3906 24.1049 15.377C24.0994 15.3634 24.0912 15.3509 24.0809 15.3405C24.0706 15.33 24.0583 15.3216 24.0448 15.3158C24.0313 15.3101 24.0167 15.3071 24.002 15.3069V15.3059ZM23.992 15.8689C23.9632 15.8707 23.9362 15.8836 23.9166 15.9048C23.897 15.9261 23.8864 15.9541 23.887 15.9829C23.887 16.0439 23.937 16.0949 24 16.0929C24.0147 16.0924 24.0292 16.089 24.0426 16.0829C24.056 16.0768 24.068 16.0681 24.078 16.0573C24.0881 16.0465 24.0959 16.0339 24.101 16.0201C24.1062 16.0063 24.1085 15.9917 24.108 15.9769C24.1075 15.9622 24.1041 15.9478 24.098 15.9344C24.0918 15.921 24.0832 15.9089 24.0724 15.8989C24.0616 15.8889 24.049 15.8811 24.0352 15.8759C24.0214 15.8708 24.0067 15.8684 23.992 15.8689ZM23.992 16.4319C23.9627 16.433 23.9349 16.4455 23.9147 16.4668C23.8945 16.4881 23.8835 16.5165 23.884 16.5459C23.8846 16.5752 23.8966 16.6032 23.9175 16.6238C23.9385 16.6443 23.9667 16.6559 23.996 16.6559C24.0254 16.6559 24.0536 16.6443 24.0745 16.6238C24.0954 16.6032 24.1075 16.5752 24.108 16.5459C24.1085 16.5165 24.0975 16.4881 24.0773 16.4668C24.0571 16.4455 24.0294 16.433 24 16.4319C23.9974 16.4318 23.9947 16.4318 23.992 16.4319ZM23.992 16.9939C23.9772 16.9949 23.9628 16.9987 23.9495 17.0052C23.9362 17.0117 23.9243 17.0207 23.9145 17.0318C23.9047 17.0429 23.8972 17.0559 23.8924 17.0699C23.8876 17.0839 23.8856 17.0987 23.8865 17.1134C23.8874 17.1282 23.8913 17.1427 23.8978 17.156C23.9043 17.1693 23.9133 17.1811 23.9244 17.1909C23.9355 17.2007 23.9484 17.2083 23.9624 17.2131C23.9764 17.2179 23.9912 17.2199 24.006 17.2189C24.0359 17.2171 24.0637 17.2035 24.0835 17.181C24.1033 17.1586 24.1134 17.1293 24.1115 17.0994C24.1097 17.0696 24.096 17.0417 24.0736 17.0219C24.0512 17.0022 24.0219 16.9921 23.992 16.9939ZM23.992 17.5569C23.9773 17.5579 23.9629 17.5617 23.9497 17.5681C23.9365 17.5746 23.9246 17.5836 23.9149 17.5947C23.9051 17.6057 23.8976 17.6186 23.8929 17.6325C23.8881 17.6465 23.8861 17.6612 23.887 17.6759C23.8879 17.6906 23.8917 17.705 23.8982 17.7183C23.9047 17.7315 23.9137 17.7433 23.9248 17.7531C23.9358 17.7628 23.9487 17.7703 23.9626 17.7751C23.9766 17.7799 23.9913 17.7819 24.006 17.7809C24.0357 17.7791 24.0635 17.7655 24.0832 17.7432C24.1029 17.7209 24.1129 17.6916 24.111 17.6619C24.1092 17.6322 24.0956 17.6045 24.0733 17.5848C24.0509 17.5651 24.0217 17.5551 23.992 17.5569ZM23.992 18.1189C23.9772 18.1199 23.9628 18.1237 23.9495 18.1302C23.9362 18.1367 23.9243 18.1457 23.9145 18.1568C23.9047 18.1679 23.8972 18.1809 23.8924 18.1949C23.8876 18.2089 23.8856 18.2237 23.8865 18.2384C23.8874 18.2532 23.8913 18.2677 23.8978 18.281C23.9043 18.2943 23.9133 18.3061 23.9244 18.3159C23.9355 18.3257 23.9484 18.3333 23.9624 18.3381C23.9764 18.3429 23.9912 18.3449 24.006 18.3439C24.0359 18.3421 24.0637 18.3285 24.0835 18.306C24.1033 18.2836 24.1134 18.2543 24.1115 18.2244C24.1097 18.1946 24.096 18.1667 24.0736 18.1469C24.0512 18.1272 24.0219 18.1171 23.992 18.1189ZM20.295 18.2169V18.2189C20.1704 18.2208 20.0475 18.2473 19.9332 18.2969C19.8189 18.3465 19.7155 18.4182 19.629 18.5079L17.82 20.3649C17.7288 20.4531 17.6563 20.5586 17.6067 20.6753C17.5571 20.792 17.5314 20.9175 17.5312 21.0443C17.531 21.1711 17.5563 21.2967 17.6056 21.4136C17.6548 21.5304 17.727 21.6362 17.8179 21.7246C17.9088 21.813 18.0165 21.8823 18.1347 21.9283C18.2529 21.9743 18.3791 21.9961 18.5059 21.9924C18.6326 21.9887 18.7573 21.9596 18.8726 21.9068C18.9879 21.8539 19.0914 21.7785 19.177 21.6849L20.987 19.8259C21.0741 19.7369 21.1428 19.6316 21.1891 19.516C21.2353 19.4004 21.2583 19.2767 21.2566 19.1522C21.255 19.0277 21.2287 18.9047 21.1793 18.7904C21.13 18.676 21.0585 18.5726 20.969 18.4859C20.88 18.3987 20.7747 18.33 20.659 18.2836C20.5433 18.2373 20.4196 18.2143 20.295 18.2159V18.2169ZM29.488 18.2169V18.2189C29.3634 18.2208 29.2405 18.2473 29.1262 18.2969C29.0119 18.3465 28.9085 18.4182 28.822 18.5079L27.014 20.3649C26.9228 20.4531 26.8503 20.5586 26.8007 20.6753C26.7511 20.792 26.7254 20.9175 26.7252 21.0443C26.725 21.1711 26.7503 21.2967 26.7996 21.4136C26.8488 21.5304 26.921 21.6362 27.0119 21.7246C27.1028 21.813 27.2105 21.8823 27.3287 21.9283C27.4469 21.9743 27.5731 21.9961 27.6999 21.9924C27.8266 21.9887 27.9513 21.9596 28.0666 21.9068C28.1819 21.8539 28.2854 21.7785 28.371 21.6849L30.18 19.8259C30.2671 19.7369 30.3358 19.6316 30.3821 19.516C30.4283 19.4004 30.4513 19.2767 30.4496 19.1522C30.448 19.0277 30.4217 18.9047 30.3723 18.7904C30.323 18.676 30.2515 18.5726 30.162 18.4859C30.073 18.3987 29.9677 18.33 29.852 18.2836C29.7363 18.2373 29.6126 18.2143 29.488 18.2159V18.2169ZM23.98 18.6819C23.9537 18.686 23.9298 18.6996 23.9127 18.72C23.8956 18.7404 23.8865 18.7663 23.887 18.7929C23.8868 18.8151 23.8932 18.8368 23.9053 18.8553C23.9175 18.8739 23.9348 18.8884 23.9552 18.897C23.9756 18.9057 23.9981 18.9081 24.0199 18.904C24.0416 18.8998 24.0617 18.8894 24.0775 18.8738C24.0933 18.8583 24.1041 18.8385 24.1087 18.8168C24.1132 18.7951 24.1112 18.7725 24.1029 18.752C24.0946 18.7315 24.0804 18.7138 24.0621 18.7014C24.0438 18.6889 24.0222 18.6821 24 18.6819H23.98ZM20.36 18.7019H20.361C20.44 18.7049 20.521 18.7399 20.605 18.8089C21.012 19.1699 20.529 19.5939 20.353 19.7769L19.488 20.6819C18.881 21.3129 18.617 21.7399 18.193 21.3319C17.833 20.9589 18.153 20.7359 18.842 20.0369L19.707 19.1349C19.912 18.9349 20.124 18.6909 20.359 18.7009L20.36 18.7019ZM29.553 18.7019H29.555C29.633 18.7049 29.715 18.7399 29.799 18.8089C30.205 19.1699 29.722 19.5939 29.547 19.7769L28.682 20.6819C28.074 21.3129 27.81 21.7399 27.387 21.3319C27.027 20.9589 27.347 20.7359 28.035 20.0369L28.9 19.1349C29.105 18.9349 29.317 18.6909 29.553 18.7009V18.7019ZM24.002 19.2419C23.9872 19.2418 23.9726 19.2446 23.9589 19.2501C23.9452 19.2557 23.9327 19.2638 23.9222 19.2742C23.9009 19.2951 23.8888 19.3236 23.8885 19.3534C23.8883 19.3833 23.8999 19.412 23.9208 19.4333C23.9417 19.4546 23.9702 19.4667 24 19.4669C24.0299 19.4672 24.0586 19.4556 24.0799 19.4347C24.1011 19.4138 24.1133 19.3853 24.1135 19.3554C24.1138 19.3256 24.1022 19.2969 24.0813 19.2756C24.0604 19.2543 24.0319 19.2422 24.002 19.2419ZM23.992 19.8049C23.9634 19.8067 23.9365 19.8195 23.917 19.8405C23.8974 19.8615 23.8867 19.8892 23.887 19.9179C23.887 19.9476 23.8988 19.9761 23.9198 19.9971C23.9408 20.0181 23.9693 20.0299 23.999 20.0299C24.0287 20.0299 24.0572 20.0181 24.0782 19.9971C24.0992 19.9761 24.111 19.9476 24.111 19.9179C24.1111 19.9032 24.1084 19.8886 24.1029 19.875C24.0974 19.8614 24.0892 19.8489 24.0789 19.8385C24.0686 19.828 24.0563 19.8196 24.0428 19.8138C24.0293 19.8081 24.0147 19.8051 24 19.8049H23.992ZM23.992 20.3669C23.9627 20.368 23.9349 20.3805 23.9147 20.4018C23.8945 20.4231 23.8835 20.4515 23.884 20.4809C23.8846 20.5102 23.8966 20.5382 23.9175 20.5588C23.9385 20.5793 23.9667 20.5909 23.996 20.5909C24.0254 20.5909 24.0536 20.5793 24.0745 20.5588C24.0954 20.5382 24.1075 20.5102 24.108 20.4809C24.1085 20.4515 24.0975 20.4231 24.0773 20.4018C24.0571 20.3805 24.0294 20.368 24 20.3669H23.992ZM23.992 20.9299C23.9634 20.9317 23.9365 20.9445 23.917 20.9655C23.8974 20.9865 23.8867 21.0142 23.887 21.0429C23.887 21.0726 23.8988 21.1011 23.9198 21.1221C23.9408 21.1431 23.9693 21.1549 23.999 21.1549C24.0287 21.1549 24.0572 21.1431 24.0782 21.1221C24.0992 21.1011 24.111 21.0726 24.111 21.0429C24.1111 21.0282 24.1084 21.0136 24.1029 21C24.0974 20.9864 24.0892 20.9739 24.0789 20.9635C24.0686 20.953 24.0563 20.9446 24.0428 20.9388C24.0293 20.9331 24.0147 20.9301 24 20.9299H23.992ZM23.992 21.4919C23.9772 21.4929 23.9628 21.4967 23.9495 21.5032C23.9362 21.5097 23.9243 21.5187 23.9145 21.5298C23.9047 21.5409 23.8972 21.5539 23.8924 21.5679C23.8876 21.5819 23.8856 21.5967 23.8865 21.6114C23.8874 21.6262 23.8913 21.6407 23.8978 21.654C23.9043 21.6673 23.9133 21.6791 23.9244 21.6889C23.9355 21.6987 23.9484 21.7063 23.9624 21.7111C23.9764 21.7159 23.9912 21.7179 24.006 21.7169C24.0359 21.7151 24.0637 21.7015 24.0835 21.679C24.1033 21.6566 24.1134 21.6273 24.1115 21.5974C24.1097 21.5676 24.096 21.5397 24.0736 21.5199C24.0512 21.5002 24.0219 21.4901 23.992 21.4919ZM23.992 22.0549C23.9773 22.0559 23.9629 22.0597 23.9497 22.0661C23.9365 22.0726 23.9246 22.0816 23.9149 22.0927C23.9051 22.1037 23.8976 22.1166 23.8929 22.1305C23.8881 22.1445 23.8861 22.1592 23.887 22.1739C23.8879 22.1886 23.8917 22.203 23.8982 22.2163C23.9047 22.2295 23.9137 22.2413 23.9248 22.2511C23.9358 22.2608 23.9487 22.2683 23.9626 22.2731C23.9766 22.2779 23.9913 22.2799 24.006 22.2789C24.0357 22.2771 24.0635 22.2635 24.0832 22.2412C24.1029 22.2189 24.1129 22.1896 24.111 22.1599C24.1092 22.1302 24.0956 22.1025 24.0733 22.0828C24.0509 22.0631 24.0217 22.0531 23.992 22.0549ZM20.295 22.2169V22.2189C20.1704 22.2208 20.0475 22.2473 19.9332 22.2969C19.8189 22.3465 19.7155 22.4182 19.629 22.5079L17.82 24.3649C17.7288 24.4531 17.6563 24.5586 17.6067 24.6753C17.5571 24.792 17.5314 24.9175 17.5312 25.0443C17.531 25.1711 17.5563 25.2967 17.6056 25.4136C17.6548 25.5304 17.727 25.6362 17.8179 25.7246C17.9088 25.813 18.0165 25.8823 18.1347 25.9283C18.2529 25.9743 18.3791 25.9961 18.5059 25.9924C18.6326 25.9887 18.7573 25.9596 18.8726 25.9068C18.9879 25.8539 19.0914 25.7785 19.177 25.6849L20.987 23.8259C21.0741 23.7369 21.1428 23.6316 21.1891 23.516C21.2353 23.4004 21.2583 23.2767 21.2566 23.1522C21.255 23.0277 21.2287 22.9047 21.1793 22.7904C21.13 22.676 21.0585 22.5726 20.969 22.4859C20.88 22.3987 20.7747 22.33 20.659 22.2836C20.5433 22.2373 20.4196 22.2143 20.295 22.2159V22.2169ZM29.488 22.2169V22.2189C29.3634 22.2208 29.2405 22.2473 29.1262 22.2969C29.0119 22.3465 28.9085 22.4182 28.822 22.5079L27.014 24.3649C26.9228 24.4531 26.8503 24.5586 26.8007 24.6753C26.7511 24.792 26.7254 24.9175 26.7252 25.0443C26.725 25.1711 26.7503 25.2967 26.7996 25.4136C26.8488 25.5304 26.921 25.6362 27.0119 25.7246C27.1028 25.813 27.2105 25.8823 27.3287 25.9283C27.4469 25.9743 27.5731 25.9961 27.6999 25.9924C27.8266 25.9887 27.9513 25.9596 28.0666 25.9068C28.1819 25.8539 28.2854 25.7785 28.371 25.6849L30.18 23.8259C30.2671 23.7369 30.3358 23.6316 30.3821 23.516C30.4283 23.4004 30.4513 23.2767 30.4496 23.1522C30.448 23.0277 30.4217 22.9047 30.3723 22.7904C30.323 22.676 30.2515 22.5726 30.162 22.4859C30.073 22.3987 29.9677 22.33 29.852 22.2836C29.7363 22.2373 29.6126 22.2143 29.488 22.2159V22.2169ZM23.992 22.6169C23.9699 22.6183 23.9487 22.6261 23.9311 22.6395C23.9134 22.6528 23.9 22.671 23.8926 22.6918C23.8852 22.7127 23.884 22.7352 23.8893 22.7567C23.8946 22.7782 23.9061 22.7977 23.9223 22.8127C23.9385 22.8277 23.9588 22.8376 23.9807 22.8412C24.0025 22.8448 24.0249 22.8419 24.0451 22.8329C24.0653 22.8239 24.0824 22.8091 24.0943 22.7905C24.1062 22.7718 24.1124 22.7501 24.112 22.7279C24.111 22.6679 24.062 22.6179 24 22.6179H23.992V22.6169ZM20.359 22.7009H20.361C20.44 22.7049 20.521 22.7399 20.605 22.8089C21.012 23.1699 20.529 23.5939 20.353 23.7769L19.488 24.6819C18.881 25.3129 18.617 25.7399 18.193 25.3319C17.833 24.9589 18.153 24.7359 18.842 24.0369L19.707 23.1349C19.912 22.9349 20.124 22.6909 20.359 22.7009ZM29.553 22.7009H29.555C29.633 22.7049 29.715 22.7399 29.799 22.8089C30.205 23.1699 29.722 23.5939 29.547 23.7769L28.682 24.6819C28.074 25.3129 27.81 25.7399 27.387 25.3319C27.027 24.9589 27.347 24.7359 28.035 24.0369L28.9 23.1349C29.105 22.9349 29.317 22.6909 29.553 22.7009ZM23.98 23.1799C23.9538 23.1842 23.93 23.1978 23.9129 23.2182C23.8959 23.2386 23.8867 23.2644 23.887 23.2909C23.8849 23.3069 23.8862 23.3231 23.8908 23.3386C23.8955 23.354 23.9034 23.3682 23.914 23.3804C23.9246 23.3925 23.9377 23.4022 23.9523 23.4088C23.967 23.4155 23.9829 23.4189 23.999 23.4189C24.0151 23.4189 24.031 23.4155 24.0457 23.4088C24.0604 23.4022 24.0735 23.3925 24.0841 23.3804C24.0947 23.3682 24.1026 23.354 24.1072 23.3386C24.1119 23.3231 24.1132 23.3069 24.111 23.2909C24.111 23.2299 24.061 23.1809 24 23.1799H23.98ZM23.98 23.7419C23.9535 23.7461 23.9295 23.7597 23.9123 23.7804C23.8952 23.801 23.8862 23.8271 23.887 23.8539C23.887 23.9159 23.937 23.9659 24 23.9639C24.061 23.9639 24.11 23.9139 24.111 23.8539C24.111 23.7919 24.061 23.7429 24 23.7419H23.98ZM23.992 24.3019C23.9627 24.303 23.9349 24.3155 23.9147 24.3368C23.8945 24.3581 23.8835 24.3865 23.884 24.4159C23.8846 24.4452 23.8966 24.4732 23.9175 24.4938C23.9385 24.5143 23.9667 24.5259 23.996 24.5259C24.0254 24.5259 24.0536 24.5143 24.0745 24.4938C24.0954 24.4732 24.1075 24.4452 24.108 24.4159C24.1085 24.3865 24.0975 24.3581 24.0773 24.3368C24.0571 24.3155 24.0294 24.303 24 24.3019C23.9974 24.3018 23.9947 24.3018 23.992 24.3019ZM23.992 24.8649C23.9627 24.866 23.9349 24.8785 23.9147 24.8998C23.8945 24.9211 23.8835 24.9495 23.884 24.9789C23.8846 25.0082 23.8966 25.0362 23.9175 25.0568C23.9385 25.0773 23.9667 25.0889 23.996 25.0889C24.0254 25.0889 24.0536 25.0773 24.0745 25.0568C24.0954 25.0362 24.1075 25.0082 24.108 24.9789C24.1085 24.9495 24.0975 24.9211 24.0773 24.8998C24.0571 24.8785 24.0294 24.866 24 24.8649C23.9974 24.8648 23.9947 24.8648 23.992 24.8649ZM23.992 25.4279C23.9634 25.4297 23.9365 25.4425 23.917 25.4635C23.8974 25.4845 23.8867 25.5122 23.887 25.5409C23.887 25.6029 23.937 25.6529 24 25.6519C24.061 25.6519 24.11 25.6019 24.111 25.5419C24.1113 25.5265 24.1084 25.5111 24.1025 25.4968C24.0965 25.4825 24.0877 25.4696 24.0765 25.4588C24.0653 25.4481 24.0521 25.4399 24.0375 25.4345C24.023 25.4292 24.0075 25.427 23.992 25.4279ZM23.992 25.9899C23.9622 25.991 23.934 26.0039 23.9136 26.0257C23.8933 26.0476 23.8825 26.0766 23.8835 26.1064C23.8846 26.1363 23.8974 26.1645 23.9193 26.1848C23.9411 26.2052 23.9702 26.216 24 26.2149C24.0148 26.2144 24.0293 26.211 24.0428 26.2048C24.0562 26.1987 24.0683 26.19 24.0784 26.1792C24.0885 26.1683 24.0963 26.1556 24.1015 26.1418C24.1067 26.1279 24.109 26.1132 24.1085 26.0984C24.108 26.0837 24.1046 26.0691 24.0984 26.0557C24.0923 26.0422 24.0836 26.0301 24.0727 26.0201C24.0619 26.01 24.0492 26.0021 24.0354 25.997C24.0215 25.9918 24.0068 25.9894 23.992 25.9899ZM20.295 26.2169V26.2189C20.1704 26.2208 20.0475 26.2473 19.9332 26.2969C19.8189 26.3465 19.7155 26.4182 19.629 26.5079L17.82 28.3649C17.7288 28.4531 17.6563 28.5586 17.6067 28.6753C17.5571 28.792 17.5314 28.9175 17.5312 29.0443C17.531 29.1711 17.5563 29.2967 17.6056 29.4136C17.6548 29.5304 17.727 29.6362 17.8179 29.7246C17.9088 29.813 18.0165 29.8823 18.1347 29.9283C18.2529 29.9743 18.3791 29.9961 18.5059 29.9924C18.6326 29.9887 18.7573 29.9596 18.8726 29.9068C18.9879 29.8539 19.0914 29.7785 19.177 29.6849L20.987 27.8259C21.0741 27.7369 21.1428 27.6316 21.1891 27.516C21.2353 27.4004 21.2583 27.2767 21.2566 27.1522C21.255 27.0277 21.2287 26.9047 21.1793 26.7904C21.13 26.676 21.0585 26.5726 20.969 26.4859C20.88 26.3987 20.7747 26.33 20.659 26.2836C20.5433 26.2373 20.4196 26.2143 20.295 26.2159V26.2169ZM29.488 26.2169V26.2189C29.3634 26.2208 29.2405 26.2473 29.1262 26.2969C29.0119 26.3465 28.9085 26.4182 28.822 26.5079L27.014 28.3649C26.9228 28.4531 26.8503 28.5586 26.8007 28.6753C26.7511 28.792 26.7254 28.9175 26.7252 29.0443C26.725 29.1711 26.7503 29.2967 26.7996 29.4136C26.8488 29.5304 26.921 29.6362 27.0119 29.7246C27.1028 29.813 27.2105 29.8823 27.3287 29.9283C27.4469 29.9743 27.5731 29.9961 27.6999 29.9924C27.8266 29.9887 27.9513 29.9596 28.0666 29.9068C28.1819 29.8539 28.2854 29.7785 28.371 29.6849L30.18 27.8259C30.2671 27.7369 30.3358 27.6316 30.3821 27.516C30.4283 27.4004 30.4513 27.2767 30.4496 27.1522C30.448 27.0277 30.4217 26.9047 30.3723 26.7904C30.323 26.676 30.2515 26.5726 30.162 26.4859C30.073 26.3987 29.9677 26.33 29.852 26.2836C29.7363 26.2373 29.6126 26.2143 29.488 26.2159V26.2169ZM23.992 26.5529C23.9773 26.5535 23.9628 26.5569 23.9495 26.563C23.9361 26.5691 23.924 26.5778 23.914 26.5886C23.904 26.5993 23.8962 26.612 23.891 26.6258C23.8859 26.6396 23.8835 26.6542 23.884 26.6689C23.8845 26.6836 23.888 26.6981 23.8941 26.7115C23.9002 26.7249 23.9089 26.7369 23.9196 26.747C23.9304 26.757 23.9431 26.7648 23.9569 26.7699C23.9706 26.7751 23.9853 26.7775 24 26.7769C24.0297 26.7759 24.0578 26.7631 24.078 26.7413C24.0983 26.7196 24.1091 26.6906 24.108 26.6609C24.107 26.6312 24.0941 26.6032 24.0724 26.5829C24.0506 26.5627 24.0217 26.5519 23.992 26.5529ZM20.359 26.7009H20.361C20.44 26.7049 20.521 26.7399 20.605 26.8089C21.012 27.1699 20.529 27.5939 20.353 27.7769L19.488 28.6819C18.881 29.3129 18.617 29.7399 18.193 29.3319C17.833 28.9589 18.153 28.7359 18.842 28.0369L19.707 27.1349C19.912 26.9349 20.124 26.6909 20.359 26.7009ZM29.553 26.7009H29.555C29.633 26.7049 29.715 26.7399 29.799 26.8089C30.205 27.1699 29.722 27.5939 29.547 27.7769L28.682 28.6819C28.074 29.3129 27.81 29.7399 27.387 29.3319C27.027 28.9589 27.347 28.7359 28.035 28.0369L28.9 27.1349C29.105 26.9349 29.317 26.6909 29.553 26.7009ZM23.993 27.1149C23.9632 27.1167 23.9352 27.1302 23.9154 27.1525C23.8955 27.1748 23.8853 27.2041 23.887 27.2339C23.8887 27.2638 23.9022 27.2917 23.9246 27.3116C23.9469 27.3315 23.9762 27.3417 24.006 27.3399C24.0359 27.3381 24.0637 27.3245 24.0835 27.302C24.1033 27.2796 24.1134 27.2503 24.1115 27.2204C24.1097 27.1906 24.096 27.1627 24.0736 27.1429C24.0512 27.1232 24.0219 27.1131 23.992 27.1149H23.993ZM23.981 27.6779C23.9546 27.682 23.9306 27.6955 23.9133 27.7159C23.896 27.7363 23.8867 27.7622 23.887 27.7889C23.887 27.8509 23.937 27.9009 24 27.8999C24.061 27.8999 24.11 27.8499 24.111 27.7899C24.111 27.7279 24.061 27.6789 24 27.6779H23.98H23.981ZM24.002 28.2379C23.9872 28.2378 23.9726 28.2406 23.9589 28.2461C23.9452 28.2517 23.9327 28.2598 23.9222 28.2702C23.9009 28.2911 23.8888 28.3196 23.8885 28.3494C23.8883 28.3793 23.8999 28.408 23.9208 28.4293C23.9417 28.4506 23.9702 28.4627 24 28.4629C24.0299 28.4632 24.0586 28.4516 24.0799 28.4307C24.1011 28.4098 24.1133 28.3813 24.1135 28.3514C24.1138 28.3216 24.1022 28.2929 24.0813 28.2716C24.0604 28.2503 24.0319 28.2382 24.002 28.2379ZM23.992 28.8009C23.9634 28.8027 23.9365 28.8155 23.917 28.8365C23.8974 28.8575 23.8867 28.8852 23.887 28.9139C23.887 28.9759 23.937 29.0259 24 29.0249C24.061 29.0249 24.11 28.9749 24.111 28.9149C24.1114 28.9001 24.1088 28.8853 24.1035 28.8714C24.0981 28.8575 24.09 28.8449 24.0796 28.8342C24.0693 28.8234 24.0569 28.8149 24.0433 28.809C24.0296 28.8032 24.0149 28.8001 24 28.7999H23.992V28.8009ZM23.992 29.3629C23.9627 29.364 23.9349 29.3765 23.9147 29.3978C23.8945 29.4191 23.8835 29.4475 23.884 29.4769C23.8846 29.5062 23.8966 29.5342 23.9175 29.5548C23.9385 29.5753 23.9667 29.5869 23.996 29.5869C24.0254 29.5869 24.0536 29.5753 24.0745 29.5548C24.0954 29.5342 24.1075 29.5062 24.108 29.4769C24.1085 29.4475 24.0975 29.4191 24.0773 29.3978C24.0571 29.3765 24.0294 29.364 24 29.3629H23.992ZM23.992 29.9259C23.9634 29.9277 23.9365 29.9405 23.917 29.9615C23.8974 29.9825 23.8867 30.0102 23.887 30.0389C23.887 30.1009 23.937 30.1519 24 30.1499C24.0297 30.1489 24.0578 30.1361 24.078 30.1143C24.0983 30.0926 24.1091 30.0636 24.108 30.0339C24.107 30.0042 24.0941 29.9762 24.0724 29.9559C24.0506 29.9357 24.0217 29.9249 23.992 29.9259ZM20.295 30.2159V30.2189C20.1704 30.2208 20.0475 30.2473 19.9332 30.2969C19.8189 30.3465 19.7155 30.4182 19.629 30.5079L17.82 32.3649C17.7288 32.4531 17.6563 32.5586 17.6067 32.6753C17.5571 32.792 17.5314 32.9175 17.5312 33.0443C17.531 33.1711 17.5563 33.2967 17.6056 33.4136C17.6548 33.5304 17.727 33.6362 17.8179 33.7246C17.9088 33.813 18.0165 33.8823 18.1347 33.9283C18.2529 33.9743 18.3791 33.9961 18.5059 33.9924C18.6326 33.9887 18.7573 33.9596 18.8726 33.9068C18.9879 33.8539 19.0914 33.7785 19.177 33.6849L20.987 31.8259C21.0741 31.7369 21.1428 31.6316 21.1891 31.516C21.2353 31.4004 21.2583 31.2767 21.2566 31.1522C21.255 31.0277 21.2287 30.9047 21.1793 30.7904C21.13 30.676 21.0585 30.5726 20.969 30.4859C20.88 30.3987 20.7747 30.33 20.659 30.2836C20.5433 30.2373 20.4196 30.2143 20.295 30.2159ZM29.488 30.2159V30.2189C29.3634 30.2208 29.2405 30.2473 29.1262 30.2969C29.0119 30.3465 28.9085 30.4182 28.822 30.5079L27.014 32.3649C26.9228 32.4531 26.8503 32.5586 26.8007 32.6753C26.7511 32.792 26.7254 32.9175 26.7252 33.0443C26.725 33.1711 26.7503 33.2967 26.7996 33.4136C26.8488 33.5304 26.921 33.6362 27.0119 33.7246C27.1028 33.813 27.2105 33.8823 27.3287 33.9283C27.4469 33.9743 27.5731 33.9961 27.6999 33.9924C27.8266 33.9887 27.9513 33.9596 28.0666 33.9068C28.1819 33.8539 28.2854 33.7785 28.371 33.6849L30.18 31.8259C30.2671 31.7369 30.3358 31.6316 30.3821 31.516C30.4283 31.4004 30.4513 31.2767 30.4496 31.1522C30.448 31.0277 30.4217 30.9047 30.3723 30.7904C30.323 30.676 30.2515 30.5726 30.162 30.4859C30.073 30.3987 29.9677 30.33 29.852 30.2836C29.7363 30.2373 29.6126 30.2143 29.488 30.2159ZM23.992 30.4859C23.9634 30.4882 23.9366 30.5012 23.9172 30.5224C23.8977 30.5435 23.8869 30.5712 23.887 30.5999C23.887 30.6296 23.8988 30.6581 23.9198 30.6791C23.9408 30.7001 23.9693 30.7119 23.999 30.7119C24.0287 30.7119 24.0572 30.7001 24.0782 30.6791C24.0992 30.6581 24.111 30.6296 24.111 30.5999C24.111 30.5845 24.1079 30.5693 24.1019 30.5551C24.0958 30.541 24.087 30.5282 24.0759 30.5175C24.0648 30.5069 24.0516 30.4986 24.0372 30.4931C24.0228 30.4877 24.0074 30.4853 23.992 30.4859ZM20.359 30.7009H20.361C20.44 30.7049 20.521 30.7399 20.605 30.8089C21.012 31.1699 20.529 31.5939 20.353 31.7769L19.488 32.6819C18.881 33.3129 18.617 33.7399 18.193 33.3319C17.833 32.9589 18.153 32.7359 18.842 32.0369L19.707 31.1349C19.912 30.9349 20.124 30.6909 20.359 30.7009ZM29.553 30.7009H29.555C29.633 30.7049 29.715 30.7399 29.799 30.8089C30.205 31.1699 29.722 31.5939 29.547 31.7769L28.682 32.6819C28.074 33.3129 27.81 33.7399 27.387 33.3319C27.027 32.9589 27.347 32.7359 28.035 32.0369L28.9 31.1349C29.105 30.9349 29.317 30.6909 29.553 30.7009ZM23.993 31.0489C23.9783 31.0498 23.9639 31.0535 23.9507 31.06C23.9374 31.0664 23.9255 31.0753 23.9157 31.0863C23.9059 31.0973 23.8984 31.1102 23.8936 31.1241C23.8887 31.138 23.8867 31.1527 23.8875 31.1674C23.8884 31.1821 23.8921 31.1965 23.8985 31.2098C23.9049 31.2231 23.9139 31.2349 23.9249 31.2447C23.9359 31.2545 23.9487 31.2621 23.9627 31.2669C23.9766 31.2717 23.9913 31.2738 24.006 31.2729C24.0357 31.2711 24.0635 31.2575 24.0832 31.2352C24.1029 31.2129 24.1129 31.1836 24.111 31.1539C24.1092 31.1242 24.0956 31.0965 24.0733 31.0768C24.0509 31.0571 24.0217 31.0471 23.992 31.0489H23.993ZM23.981 31.6109C23.9543 31.6149 23.93 31.6284 23.9127 31.6491C23.8954 31.6697 23.8862 31.696 23.887 31.7229C23.887 31.745 23.8936 31.7667 23.9058 31.7851C23.9181 31.8035 23.9355 31.8178 23.9559 31.8263C23.9763 31.8348 23.9988 31.8371 24.0205 31.8329C24.0422 31.8286 24.0622 31.818 24.0779 31.8025C24.0936 31.7869 24.1043 31.7671 24.1087 31.7454C24.1132 31.7237 24.1111 31.7013 24.1028 31.6808C24.0945 31.6603 24.0803 31.6427 24.062 31.6303C24.0437 31.6179 24.0221 31.6111 24 31.6109H23.98H23.981ZM23.981 32.1739C23.9599 32.1774 23.9403 32.1868 23.9243 32.201C23.9084 32.2153 23.8969 32.2337 23.8912 32.2543C23.8854 32.2749 23.8857 32.2967 23.8919 32.3171C23.8981 32.3376 23.91 32.3558 23.9263 32.3697C23.9425 32.3835 23.9624 32.3925 23.9836 32.3954C24.0047 32.3984 24.0263 32.3952 24.0457 32.3863C24.0651 32.3774 24.0816 32.3631 24.0932 32.3452C24.1047 32.3272 24.1109 32.3063 24.111 32.2849C24.111 32.2239 24.061 32.1749 24 32.1739H23.98H23.981ZM24.002 32.7339C23.987 32.7341 23.9721 32.7372 23.9582 32.7431C23.9444 32.749 23.9318 32.7576 23.9213 32.7684C23.9108 32.7792 23.9026 32.7919 23.897 32.8059C23.8915 32.8199 23.8888 32.8349 23.889 32.8499C23.889 32.9119 23.939 32.9599 24.002 32.9589C24.0165 32.9591 24.031 32.9563 24.0444 32.9509C24.0579 32.9454 24.0701 32.9373 24.0804 32.9271C24.0908 32.9169 24.099 32.9047 24.1045 32.8913C24.1101 32.8779 24.113 32.8635 24.113 32.8489C24.1133 32.819 24.1018 32.7902 24.081 32.7687C24.0603 32.7472 24.0319 32.7347 24.002 32.7339ZM23.992 33.2969C23.9634 33.2987 23.9365 33.3115 23.917 33.3325C23.8974 33.3535 23.8867 33.3812 23.887 33.4099C23.887 33.4398 23.8989 33.4684 23.92 33.4895C23.9411 33.5106 23.9697 33.5224 23.9995 33.5224C24.0294 33.5224 24.058 33.5106 24.0791 33.4895C24.1002 33.4684 24.112 33.4398 24.112 33.4099C24.1121 33.3951 24.1094 33.3805 24.1038 33.3668C24.0982 33.3531 24.09 33.3406 24.0796 33.3301C24.0692 33.3196 24.0568 33.3113 24.0431 33.3056C24.0295 33.2999 24.0148 33.2969 24 33.2969H23.992ZM23.992 33.8589C23.9627 33.86 23.9349 33.8725 23.9147 33.8938C23.8945 33.9151 23.8835 33.9435 23.884 33.9729C23.8846 34.0022 23.8966 34.0302 23.9175 34.0508C23.9385 34.0713 23.9667 34.0829 23.996 34.0829C24.0254 34.0829 24.0536 34.0713 24.0745 34.0508C24.0954 34.0302 24.1075 34.0022 24.108 33.9729C24.1085 33.9435 24.0975 33.9151 24.0773 33.8938C24.0571 33.8725 24.0294 33.86 24 33.8589C23.9974 33.8588 23.9947 33.8588 23.992 33.8589ZM20.295 34.2169V34.2189C20.1704 34.2208 20.0475 34.2473 19.9332 34.2969C19.8189 34.3465 19.7155 34.4182 19.629 34.5079L17.82 36.3649C17.7288 36.4531 17.6563 36.5586 17.6067 36.6753C17.5571 36.792 17.5314 36.9175 17.5312 37.0443C17.531 37.1712 17.5563 37.2967 17.6056 37.4136C17.6548 37.5304 17.727 37.6362 17.8179 37.7246C17.9088 37.813 18.0165 37.8823 18.1347 37.9283C18.2529 37.9743 18.3791 37.9961 18.5059 37.9924C18.6326 37.9887 18.7573 37.9596 18.8726 37.9068C18.9879 37.8539 19.0914 37.7785 19.177 37.6849L20.987 35.8259C21.0741 35.7369 21.1428 35.6316 21.1891 35.516C21.2353 35.4004 21.2583 35.2767 21.2566 35.1522C21.255 35.0277 21.2287 34.9047 21.1793 34.7904C21.13 34.676 21.0585 34.5726 20.969 34.4859C20.88 34.3987 20.7747 34.33 20.659 34.2836C20.5433 34.2373 20.4196 34.2143 20.295 34.2159V34.2169ZM29.488 34.2169V34.2189C29.3634 34.2208 29.2405 34.2473 29.1262 34.2969C29.0119 34.3465 28.9085 34.4182 28.822 34.5079L27.014 36.3649C26.9228 36.4531 26.8503 36.5586 26.8007 36.6753C26.7511 36.792 26.7254 36.9175 26.7252 37.0443C26.725 37.1712 26.7503 37.2967 26.7996 37.4136C26.8488 37.5304 26.921 37.6362 27.0119 37.7246C27.1028 37.813 27.2105 37.8823 27.3287 37.9283C27.4469 37.9743 27.5731 37.9961 27.6999 37.9924C27.8266 37.9887 27.9513 37.9596 28.0666 37.9068C28.1819 37.8539 28.2854 37.7785 28.371 37.6849L30.18 35.8259C30.2671 35.7369 30.3358 35.6316 30.3821 35.516C30.4283 35.4004 30.4513 35.2767 30.4496 35.1522C30.448 35.0277 30.4217 34.9047 30.3723 34.7904C30.323 34.676 30.2515 34.5726 30.162 34.4859C30.073 34.3987 29.9677 34.33 29.852 34.2836C29.7363 34.2373 29.6126 34.2143 29.488 34.2159V34.2169ZM23.992 34.4219C23.9622 34.423 23.934 34.4359 23.9136 34.4577C23.8933 34.4796 23.8825 34.5086 23.8835 34.5384C23.8846 34.5683 23.8974 34.5965 23.9193 34.6168C23.9411 34.6372 23.9702 34.648 24 34.6469C24.0299 34.6469 24.0585 34.6351 24.0796 34.614C24.1007 34.5929 24.1125 34.5643 24.1125 34.5344C24.1125 34.5046 24.1007 34.476 24.0796 34.4549C24.0585 34.4338 24.0299 34.4219 24 34.4219C23.9974 34.4218 23.9947 34.4218 23.992 34.4219ZM20.359 34.7019H20.361C20.44 34.7049 20.521 34.7399 20.605 34.8089C21.012 35.1699 20.529 35.5939 20.353 35.7769L19.488 36.6819C18.881 37.3129 18.617 37.7399 18.193 37.3319C17.833 36.9589 18.153 36.7359 18.842 36.0369L19.707 35.1349C19.912 34.9349 20.124 34.6909 20.359 34.7009V34.7019ZM29.553 34.7019H29.555C29.633 34.7049 29.715 34.7399 29.799 34.8089C30.205 35.1699 29.722 35.5939 29.547 35.7769L28.682 36.6819C28.074 37.3129 27.81 37.7399 27.387 37.3319C27.027 36.9589 27.347 36.7359 28.035 36.0369L28.9 35.1349C29.105 34.9349 29.317 34.6909 29.553 34.7009V34.7019ZM23.993 34.9839C23.9636 34.9849 23.9358 34.9973 23.9155 35.0186C23.8952 35.0398 23.8841 35.0682 23.8845 35.0976C23.885 35.127 23.897 35.1551 23.9179 35.1757C23.9389 35.1963 23.9671 35.2079 23.9965 35.2079C24.0259 35.2079 24.0541 35.1963 24.0751 35.1757C24.096 35.1551 24.108 35.127 24.1085 35.0976C24.109 35.0682 24.0978 35.0398 24.0775 35.0186C24.0573 34.9973 24.0294 34.9849 24 34.9839H23.992H23.993ZM23.993 35.5469C23.9636 35.5479 23.9358 35.5603 23.9155 35.5816C23.8952 35.6028 23.8841 35.6312 23.8845 35.6606C23.885 35.69 23.897 35.7181 23.9179 35.7387C23.9389 35.7593 23.9671 35.7709 23.9965 35.7709C24.0259 35.7709 24.0541 35.7593 24.0751 35.7387C24.096 35.7181 24.108 35.69 24.1085 35.6606C24.109 35.6312 24.0978 35.6028 24.0775 35.5816C24.0573 35.5603 24.0294 35.5479 24 35.5469H23.992H23.993ZM23.993 36.1089C23.9632 36.1099 23.9349 36.1226 23.9145 36.1444C23.8941 36.1661 23.8831 36.1951 23.884 36.2249C23.8849 36.2548 23.8977 36.283 23.9194 36.3035C23.9412 36.3239 23.9702 36.3349 24 36.3339C24.0299 36.3339 24.0585 36.3221 24.0796 36.301C24.1007 36.2799 24.1125 36.2513 24.1125 36.2214C24.1125 36.1916 24.1007 36.163 24.0796 36.1419C24.0585 36.1208 24.0299 36.1089 24 36.1089H23.992H23.993ZM23.981 36.6719C23.9545 36.6758 23.9304 36.6893 23.9131 36.7097C23.8957 36.7301 23.8865 36.7562 23.887 36.7829C23.887 36.8128 23.8989 36.8414 23.92 36.8625C23.9411 36.8836 23.9697 36.8954 23.9995 36.8954C24.0294 36.8954 24.058 36.8836 24.0791 36.8625C24.1002 36.8414 24.112 36.8128 24.112 36.7829C24.111 36.7219 24.062 36.6729 24 36.6719H23.98H23.981ZM23.992 37.2319C23.9627 37.233 23.9349 37.2455 23.9147 37.2668C23.8945 37.2881 23.8835 37.3165 23.884 37.3459C23.8846 37.3752 23.8966 37.4032 23.9175 37.4238C23.9385 37.4443 23.9667 37.4559 23.996 37.4559C24.0254 37.4559 24.0536 37.4443 24.0745 37.4238C24.0954 37.4032 24.1075 37.3752 24.108 37.3459C24.1085 37.3165 24.0975 37.2881 24.0773 37.2668C24.0571 37.2455 24.0294 37.233 24 37.2319C23.9974 37.2318 23.9947 37.2318 23.992 37.2319ZM23.992 37.7949C23.9634 37.7967 23.9365 37.8095 23.917 37.8305C23.8974 37.8515 23.8867 37.8792 23.887 37.9079C23.887 37.9378 23.8989 37.9664 23.92 37.9875C23.9411 38.0086 23.9697 38.0204 23.9995 38.0204C24.0294 38.0204 24.058 38.0086 24.0791 37.9875C24.1002 37.9664 24.112 37.9378 24.112 37.9079C24.1122 37.8925 24.1092 37.8771 24.1031 37.8628C24.097 37.8486 24.0881 37.8357 24.0768 37.8251C24.0655 37.8145 24.0522 37.8063 24.0376 37.8011C24.023 37.7959 24.0075 37.7938 23.992 37.7949ZM20.295 38.2169V38.2189C20.1704 38.2208 20.0475 38.2473 19.9332 38.2969C19.8189 38.3465 19.7155 38.4182 19.629 38.5079L17.82 40.3649C17.7288 40.4531 17.6563 40.5586 17.6067 40.6753C17.5571 40.792 17.5314 40.9175 17.5312 41.0443C17.531 41.1712 17.5563 41.2967 17.6056 41.4136C17.6548 41.5304 17.727 41.6362 17.8179 41.7246C17.9088 41.813 18.0165 41.8823 18.1347 41.9283C18.2529 41.9743 18.3791 41.9961 18.5059 41.9924C18.6326 41.9887 18.7573 41.9596 18.8726 41.9068C18.9879 41.8539 19.0914 41.7785 19.177 41.6849L20.987 39.8259C21.0741 39.7369 21.1428 39.6316 21.1891 39.516C21.2353 39.4004 21.2583 39.2767 21.2566 39.1522C21.255 39.0277 21.2287 38.9047 21.1793 38.7904C21.13 38.676 21.0585 38.5726 20.969 38.4859C20.88 38.3987 20.7747 38.33 20.659 38.2836C20.5433 38.2373 20.4196 38.2143 20.295 38.2159V38.2169ZM29.488 38.2169V38.2189C29.3634 38.2208 29.2405 38.2473 29.1262 38.2969C29.0119 38.3465 28.9085 38.4182 28.822 38.5079L27.014 40.3649C26.9228 40.4531 26.8503 40.5586 26.8007 40.6753C26.7511 40.792 26.7254 40.9175 26.7252 41.0443C26.725 41.1712 26.7503 41.2967 26.7996 41.4136C26.8488 41.5304 26.921 41.6362 27.0119 41.7246C27.1028 41.813 27.2105 41.8823 27.3287 41.9283C27.4469 41.9743 27.5731 41.9961 27.6999 41.9924C27.8266 41.9887 27.9513 41.9596 28.0666 41.9068C28.1819 41.8539 28.2854 41.7785 28.371 41.6849L30.18 39.8259C30.2671 39.7369 30.3358 39.6316 30.3821 39.516C30.4283 39.4004 30.4513 39.2767 30.4496 39.1522C30.448 39.0277 30.4217 38.9047 30.3723 38.7904C30.323 38.676 30.2515 38.5726 30.162 38.4859C30.073 38.3987 29.9677 38.33 29.852 38.2836C29.7363 38.2373 29.6126 38.2143 29.488 38.2159V38.2169ZM23.992 38.3569C23.9627 38.358 23.9349 38.3705 23.9147 38.3918C23.8945 38.4131 23.8835 38.4415 23.884 38.4709C23.8846 38.5002 23.8966 38.5282 23.9175 38.5488C23.9385 38.5693 23.9667 38.5809 23.996 38.5809C24.0254 38.5809 24.0536 38.5693 24.0745 38.5488C24.0954 38.5282 24.1075 38.5002 24.108 38.4709C24.1085 38.4415 24.0975 38.4131 24.0773 38.3918C24.0571 38.3705 24.0294 38.358 24 38.3569C23.9974 38.3568 23.9947 38.3568 23.992 38.3569ZM20.359 38.7009H20.361C20.44 38.7049 20.521 38.7399 20.605 38.8089C21.012 39.1699 20.529 39.5939 20.353 39.7769L19.488 40.6819C18.881 41.3129 18.617 41.7399 18.193 41.3319C17.833 40.9589 18.153 40.7359 18.842 40.0369L19.707 39.1349C19.912 38.9349 20.124 38.6909 20.359 38.7009ZM29.553 38.7009H29.555C29.633 38.7049 29.715 38.7399 29.799 38.8089C30.205 39.1699 29.722 39.5939 29.547 39.7769L28.682 40.6819C28.074 41.3129 27.81 41.7399 27.387 41.3319C27.027 40.9589 27.347 40.7359 28.035 40.0369L28.9 39.1349C29.105 38.9349 29.317 38.6909 29.553 38.7009ZM23.993 38.9199C23.9632 38.9209 23.9349 38.9336 23.9145 38.9554C23.8941 38.9771 23.8831 39.0061 23.884 39.0359C23.8849 39.0658 23.8977 39.094 23.9194 39.1145C23.9412 39.1349 23.9702 39.1459 24 39.1449C24.0148 39.1444 24.0293 39.141 24.0428 39.1348C24.0562 39.1287 24.0683 39.12 24.0784 39.1092C24.0885 39.0983 24.0963 39.0857 24.1015 39.0718C24.1067 39.0579 24.109 39.0432 24.1085 39.0284C24.108 39.0137 24.1046 38.9991 24.0984 38.9857C24.0923 38.9722 24.0836 38.9601 24.0727 38.9501C24.0619 38.94 24.0492 38.9321 24.0354 38.927C24.0215 38.9218 24.0068 38.9194 23.992 38.9199H23.993ZM23.993 39.4829C23.9783 39.4838 23.9639 39.4875 23.9507 39.494C23.9374 39.5004 23.9255 39.5093 23.9157 39.5203C23.9059 39.5313 23.8984 39.5442 23.8936 39.5581C23.8887 39.572 23.8867 39.5867 23.8875 39.6014C23.8884 39.6162 23.8921 39.6305 23.8985 39.6438C23.9049 39.6571 23.9139 39.6689 23.9249 39.6787C23.9359 39.6885 23.9487 39.6961 23.9627 39.7009C23.9766 39.7057 23.9913 39.7078 24.006 39.7069C24.0357 39.7051 24.0635 39.6915 24.0832 39.6692C24.1029 39.6469 24.1129 39.6176 24.111 39.5879C24.1092 39.5582 24.0956 39.5305 24.0733 39.5108C24.0509 39.4911 24.0217 39.4811 23.992 39.4829H23.993ZM23.993 40.0449C23.9783 40.0458 23.9639 40.0495 23.9507 40.056C23.9374 40.0624 23.9255 40.0713 23.9157 40.0823C23.9059 40.0933 23.8984 40.1062 23.8936 40.1201C23.8887 40.134 23.8867 40.1487 23.8875 40.1634C23.8884 40.1782 23.8921 40.1925 23.8985 40.2058C23.9049 40.2191 23.9139 40.2309 23.9249 40.2407C23.9359 40.2505 23.9487 40.2581 23.9627 40.2629C23.9766 40.2677 23.9913 40.2698 24.006 40.2689C24.0357 40.2671 24.0635 40.2535 24.0832 40.2312C24.1029 40.2089 24.1129 40.1796 24.111 40.1499C24.1092 40.1202 24.0956 40.0925 24.0733 40.0728C24.0509 40.0531 24.0217 40.0431 23.992 40.0449H23.993ZM23.981 40.6079C23.9547 40.6118 23.9307 40.6251 23.9134 40.6453C23.8961 40.6655 23.8867 40.6913 23.887 40.7179C23.8864 40.7404 23.8925 40.7625 23.9046 40.7815C23.9166 40.8005 23.9341 40.8154 23.9547 40.8245C23.9752 40.8335 23.9981 40.8361 24.0202 40.8321C24.0423 40.8281 24.0627 40.8176 24.0788 40.8019C24.0949 40.7862 24.106 40.7661 24.1106 40.7441C24.1152 40.7221 24.1131 40.6992 24.1047 40.6784C24.0962 40.6576 24.0817 40.6398 24.0631 40.6272C24.0445 40.6147 24.0225 40.608 24 40.6079H23.98H23.981ZM23.981 41.1699C23.9545 41.1738 23.9304 41.1873 23.9131 41.2077C23.8957 41.2281 23.8865 41.2542 23.887 41.2809C23.887 41.3108 23.8989 41.3394 23.92 41.3605C23.9411 41.3816 23.9697 41.3934 23.9995 41.3934C24.0294 41.3934 24.058 41.3816 24.0791 41.3605C24.1002 41.3394 24.112 41.3108 24.112 41.2809C24.111 41.2209 24.062 41.1709 24 41.1699H23.98H23.981ZM24.002 41.7299C23.9872 41.7298 23.9726 41.7326 23.9589 41.7381C23.9452 41.7437 23.9327 41.7518 23.9222 41.7622C23.9009 41.7831 23.8888 41.8116 23.8885 41.8414C23.8883 41.8713 23.8999 41.9 23.9208 41.9213C23.9417 41.9426 23.9702 41.9547 24 41.9549C24.0147 41.9551 24.0293 41.9523 24.043 41.9468C24.0566 41.9413 24.069 41.9332 24.0795 41.9228C24.09 41.9125 24.0984 41.9003 24.1041 41.8867C24.1099 41.8732 24.1129 41.8587 24.113 41.8439C24.1131 41.8292 24.1104 41.8146 24.1049 41.801C24.0994 41.7874 24.0912 41.7749 24.0809 41.7645C24.0706 41.754 24.0583 41.7456 24.0448 41.7398C24.0313 41.7341 24.0167 41.7311 24.002 41.7309V41.7299ZM23.992 42.2929C23.9627 42.294 23.9349 42.3065 23.9147 42.3278C23.8945 42.3491 23.8835 42.3775 23.884 42.4069C23.8846 42.4362 23.8966 42.4642 23.9175 42.4848C23.9385 42.5053 23.9667 42.5169 23.996 42.5169C24.0254 42.5169 24.0536 42.5053 24.0745 42.4848C24.0954 42.4642 24.1075 42.4362 24.108 42.4069C24.1085 42.3775 24.0975 42.3491 24.0773 42.3278C24.0571 42.3065 24.0294 42.294 24 42.2929C23.9974 42.2928 23.9947 42.2928 23.992 42.2929Z" fill="#333333"/>
</svg>
