<svg width="48" height="48" viewBox="0 0 48 48" fill="none" xmlns="http://www.w3.org/2000/svg">
<path d="M14.1992 3.95703C13.3298 3.95703 12.6309 4.65601 12.6309 5.52545V42.3868C12.6309 43.2562 13.3298 43.9571 14.1992 43.9571H33.9043C34.7737 43.9571 35.4727 43.2562 35.4727 42.3868V5.52545C35.4727 4.65601 34.7737 3.95703 33.9043 3.95703H14.1992ZM30.8965 4.69141C30.9003 4.69134 30.9017 4.69134 30.9043 4.69141C30.9655 4.69217 31.0152 4.74172 31.0156 4.80295C31.0164 4.86493 30.9663 4.91557 30.9043 4.91633C30.8416 4.91671 30.7904 4.86569 30.791 4.80295C30.7914 4.74361 30.8375 4.69519 30.8965 4.69141ZM30.8965 5.25394C30.9003 5.25386 30.9017 5.25386 30.9043 5.25394C30.9655 5.25469 31.0152 5.3039 31.0156 5.36513C31.0164 5.42711 30.9663 5.47813 30.9043 5.47851C30.8416 5.47889 30.7904 5.42787 30.791 5.36513C30.7914 5.30579 30.8375 5.25734 30.8965 5.25394ZM30.8965 5.81646C30.9003 5.81638 30.9017 5.81638 30.9043 5.81646C30.9655 5.81722 31.0152 5.86668 31.0156 5.92753C31.0164 5.98952 30.9663 6.04016 30.9043 6.04092C30.8416 6.04129 30.7904 5.99027 30.791 5.92753C30.7914 5.8682 30.8375 5.81986 30.8965 5.81646ZM30.8848 6.37898H30.8867C30.8943 6.37842 30.8967 6.37842 30.9043 6.37898C30.9655 6.37974 31.0152 6.42918 31.0156 6.4904C31.0152 6.55201 30.9655 6.60118 30.9043 6.60194C30.8419 6.60232 30.7915 6.55239 30.791 6.4904C30.7906 6.43522 30.8303 6.38654 30.8848 6.37898ZM30.9043 6.93955C30.9667 6.9403 31.0162 6.99094 31.0156 7.05293C31.0149 7.11453 30.9655 7.16362 30.9043 7.164C30.8419 7.16438 30.7915 7.11491 30.791 7.05293C30.7907 6.99019 30.8416 6.93917 30.9043 6.93955ZM30.8965 7.50195C30.9003 7.50184 30.9017 7.50184 30.9043 7.50195C30.9663 7.50271 31.0162 7.55335 31.0156 7.61533C31.0153 7.67694 30.9655 7.72615 30.9043 7.72652C30.8419 7.7269 30.7915 7.67694 30.791 7.61533C30.7903 7.55524 30.8368 7.50573 30.8965 7.50195ZM30.8965 8.06448C30.9003 8.0644 30.9017 8.0644 30.9043 8.06448C30.9663 8.06523 31.0162 8.11587 31.0156 8.17786C31.0153 8.23946 30.9655 8.28864 30.9043 8.28939C30.8419 8.28977 30.7915 8.23984 30.791 8.17786C30.7903 8.11776 30.8368 8.06826 30.8965 8.06448ZM30.8965 8.627C30.9003 8.62692 30.9017 8.62692 30.9043 8.627C30.9663 8.62776 31.0162 8.6784 31.0156 8.74038C31.0153 8.80199 30.9655 8.85116 30.9043 8.85192C30.8419 8.85229 30.7915 8.80236 30.791 8.74038C30.7903 8.68029 30.8368 8.63078 30.8965 8.627ZM30.8965 9.18952C30.9003 9.18945 30.9017 9.18945 30.9043 9.18952C30.9655 9.19028 31.0152 9.23975 31.0156 9.3006C31.0164 9.36258 30.9663 9.4136 30.9043 9.41398C30.8416 9.41436 30.7904 9.36334 30.791 9.3006C30.7914 9.24126 30.8375 9.19292 30.8965 9.18952ZM25.373 9.19702C25.6153 9.19362 25.8587 9.28364 26.0469 9.46657C26.4233 9.83281 26.4306 10.4299 26.0644 10.8064L24.2559 12.6658C23.8897 13.0434 23.2923 13.0508 22.916 12.6846C22.5396 12.3184 22.5323 11.7209 22.8984 11.3448L24.707 9.48745C24.8901 9.29923 25.1309 9.20169 25.373 9.19829V9.19702ZM30.8965 9.75366C30.9003 9.75355 30.9017 9.75355 30.9043 9.75366C30.9655 9.75442 31.0152 9.80362 31.0156 9.86485C31.0164 9.92683 30.9663 9.97748 30.9043 9.97823C30.8416 9.97861 30.7904 9.92759 30.791 9.86485C30.7914 9.80551 30.8375 9.75706 30.8965 9.75366ZM30.8848 10.3162H30.8867C30.8943 10.3156 30.8967 10.3156 30.9043 10.3162C30.9655 10.3169 31.0152 10.3665 31.0156 10.4277C31.0164 10.4897 30.9663 10.5403 30.9043 10.5411C30.8416 10.5415 30.7904 10.4905 30.791 10.4277C30.7906 10.3725 30.8303 10.3237 30.8848 10.3162ZM30.9043 10.8767C30.9667 10.8775 31.0162 10.9281 31.0156 10.9901C31.0149 11.0517 30.9655 11.1009 30.9043 11.1013C30.8419 11.1017 30.7915 11.0517 30.791 10.9901C30.7907 10.9274 30.8416 10.8764 30.9043 10.8767ZM19.8106 11.0094C20.0528 11.006 20.2962 11.096 20.4844 11.2789C20.8608 11.6452 20.8681 12.2423 20.502 12.6188L18.6934 14.4781C18.3272 14.8556 17.7298 14.8645 17.3535 14.497C16.9771 14.1307 16.9698 13.5332 17.3359 13.1572L19.1445 11.2997C19.3276 11.1115 19.5684 11.0139 19.8106 11.0105V11.0094ZM30.9043 11.439C30.9667 11.4398 31.0162 11.4904 31.0156 11.5524C31.0149 11.6136 30.9655 11.6632 30.9043 11.6636C30.8419 11.6644 30.7915 11.614 30.791 11.5524C30.7907 11.4897 30.8416 11.4387 30.9043 11.439ZM30.8965 12.0016C30.9003 12.0014 30.9017 12.0014 30.9043 12.0016C30.9663 12.0023 31.0162 12.053 31.0156 12.1149C31.0153 12.1762 30.9655 12.2257 30.9043 12.2265C30.8419 12.2272 30.7915 12.1773 30.791 12.1149C30.7903 12.0548 30.8368 12.0053 30.8965 12.0016ZM30.8965 12.5641C30.9003 12.564 30.9017 12.564 30.9043 12.5641C30.9663 12.5645 31.0162 12.6155 31.0156 12.6775C31.0153 12.7387 30.9655 12.7882 30.9043 12.789C30.8419 12.7898 30.7915 12.7394 30.791 12.6775C30.7903 12.6174 30.8368 12.5679 30.8965 12.5641ZM30.8965 13.1266C30.9003 13.1265 30.9017 13.1265 30.9043 13.1266C30.9655 13.1274 31.0152 13.1765 31.0156 13.2377C31.0164 13.2997 30.9663 13.3507 30.9043 13.3511C30.8416 13.3514 30.7904 13.3004 30.791 13.2377C30.7914 13.1783 30.8375 13.13 30.8965 13.1266ZM30.8965 13.6891C30.9003 13.6891 30.9017 13.6891 30.9043 13.6891C30.9655 13.6899 31.0152 13.7394 31.0156 13.8002C31.0164 13.8622 30.9663 13.9128 30.9043 13.9136C30.8416 13.914 30.7904 13.8629 30.791 13.8002C30.7914 13.7409 30.8375 13.6925 30.8965 13.6891ZM25.3789 13.708C25.6211 13.7046 25.8646 13.7946 26.0527 13.9775C26.4292 14.3437 26.4364 14.9409 26.0703 15.3173L24.2617 17.1767C23.8956 17.5543 23.2981 17.5612 22.9219 17.1956C22.5454 16.8294 22.5382 16.2318 22.9043 15.8557L24.7129 13.9984C24.896 13.8101 25.1367 13.7126 25.3789 13.7092V13.708ZM30.8965 14.2529C30.9003 14.2528 30.9017 14.2528 30.9043 14.2529C30.9655 14.2533 31.0152 14.3031 31.0156 14.3643C31.0164 14.4263 30.9663 14.4771 30.9043 14.4778C30.8416 14.4782 30.7904 14.4271 30.791 14.3643C30.7914 14.3054 30.8375 14.2567 30.8965 14.2529ZM30.8848 14.8154H30.8867C30.8943 14.8149 30.8967 14.8149 30.9043 14.8154C30.9655 14.8158 31.0152 14.8656 31.0156 14.9269C31.0164 14.9888 30.9663 15.0395 30.9043 15.0402C30.8416 15.0406 30.7904 14.9896 30.791 14.9269C30.7906 14.8721 30.8303 14.823 30.8848 14.8154ZM30.8848 15.378H30.8867C30.8943 15.3774 30.8967 15.3774 30.9043 15.378C30.9655 15.3787 31.0152 15.4282 31.0156 15.4894C31.0152 15.5506 30.9655 15.6002 30.9043 15.6009C30.8419 15.6013 30.7915 15.5514 30.791 15.4894C30.7906 15.4342 30.8303 15.3855 30.8848 15.378ZM30.9043 15.9384C30.9667 15.9392 31.0162 15.9898 31.0156 16.0518C31.0149 16.113 30.9655 16.1626 30.9043 16.1633C30.8419 16.1641 30.7915 16.1138 30.791 16.0518C30.7907 15.9891 30.8416 15.938 30.9043 15.9384ZM19.8106 16.2707C20.0528 16.2673 20.2962 16.3572 20.4844 16.5402C20.8608 16.9064 20.8681 17.5035 20.502 17.88L18.6934 19.7394C18.3272 20.117 17.7298 20.1258 17.3535 19.7583C16.9771 19.3921 16.9698 18.7944 17.3359 18.4184L19.1445 16.561C19.3276 16.3728 19.5684 16.2753 19.8106 16.2719V16.2707ZM30.8965 16.5013C30.9003 16.5012 30.9017 16.5012 30.9043 16.5013C30.9663 16.502 31.0163 16.5527 31.0156 16.6147C31.0153 16.6759 30.9655 16.7253 30.9043 16.7261C30.842 16.7268 30.7915 16.6766 30.791 16.6147C30.7903 16.5546 30.8368 16.5051 30.8965 16.5013ZM30.8965 17.0637C30.9003 17.0636 30.9017 17.0636 30.9043 17.0637C30.9663 17.0644 31.0163 17.1151 31.0156 17.1771C31.0153 17.2387 30.9655 17.2879 30.9043 17.2886C30.842 17.289 30.7915 17.2391 30.791 17.1771C30.7903 17.117 30.8368 17.0675 30.8965 17.0637ZM30.8965 17.6262C30.9003 17.6261 30.9017 17.6261 30.9043 17.6262C30.9656 17.6266 31.0152 17.6762 31.0156 17.7374C31.0164 17.7994 30.9663 17.85 30.9043 17.8508C30.8416 17.8512 30.7904 17.8001 30.791 17.7374C30.7914 17.6784 30.8375 17.6296 30.8965 17.6262ZM30.8965 18.1887C30.9003 18.1886 30.9017 18.1886 30.9043 18.1887C30.9656 18.1891 31.0152 18.2389 31.0156 18.3002C31.0164 18.3621 30.9663 18.4132 30.9043 18.4135C30.8416 18.4139 30.7904 18.3629 30.791 18.3002C30.7914 18.2412 30.8375 18.1925 30.8965 18.1887ZM30.8965 18.7513C30.9003 18.7511 30.9017 18.7511 30.9043 18.7513C30.9656 18.7516 31.0152 18.8015 31.0156 18.8627C31.0164 18.9247 30.9663 18.9753 30.9043 18.9761C30.8416 18.9764 30.7904 18.9254 30.791 18.8627C30.7914 18.8037 30.8375 18.755 30.8965 18.7513ZM25.3789 18.9232C25.6211 18.9198 25.8646 19.0097 26.0527 19.1927C26.4292 19.5589 26.4364 20.156 26.0703 20.5325L24.2617 22.3919C23.8956 22.7695 23.2981 22.7764 22.9219 22.4108C22.5454 22.0446 22.5382 21.447 22.9043 21.0709L24.7129 19.2136C24.896 19.0253 25.1367 18.9278 25.3789 18.9244V18.9232ZM30.8848 19.3138H30.8867C30.8943 19.3132 30.8967 19.3132 30.9043 19.3138C30.9655 19.3145 31.0152 19.3641 31.0156 19.4253C31.0164 19.4873 30.9663 19.5379 30.9043 19.5387C30.8416 19.5391 30.7904 19.4881 30.791 19.4253C30.7906 19.3701 30.8303 19.3213 30.8848 19.3138ZM30.9043 19.8743C30.9667 19.8751 31.0162 19.9257 31.0156 19.9877C31.0149 20.049 30.9655 20.0985 30.9043 20.0993C30.842 20.1 30.7915 20.0501 30.791 19.9877C30.7907 19.925 30.8416 19.874 30.9043 19.8743ZM30.8965 20.4369C30.9003 20.4368 30.9017 20.4368 30.9043 20.4369C30.9663 20.4372 31.0163 20.4883 31.0156 20.5503C31.0153 20.6115 30.9655 20.661 30.9043 20.6618C30.842 20.6625 30.7915 20.6122 30.791 20.5503C30.7903 20.4902 30.8368 20.4406 30.8965 20.4369ZM30.8965 20.9994C30.9003 20.9993 30.9017 20.9993 30.9043 20.9994C30.9663 21.0001 31.0163 21.0508 31.0156 21.1128C31.0153 21.1744 30.9655 21.2234 30.9043 21.2242C30.842 21.2246 30.7915 21.1748 30.791 21.1128C30.7903 21.0527 30.8368 21.0032 30.8965 20.9994ZM19.8106 21.5307C20.0528 21.5273 20.2962 21.6172 20.4844 21.8001C20.8608 22.1663 20.8681 22.7635 20.502 23.1399L18.6934 24.9993C18.3272 25.3769 17.7298 25.3838 17.3535 25.0183C16.9771 24.652 16.9698 24.0544 17.3359 23.6783L19.1445 21.821C19.3276 21.6328 19.5684 21.5352 19.8106 21.5318V21.5307ZM30.8965 21.5609C30.9003 21.5608 30.9017 21.5608 30.9043 21.5609C30.9663 21.5616 31.0163 21.6123 31.0156 21.6743C31.0153 21.7359 30.9655 21.785 30.9043 21.7853C30.842 21.7857 30.7915 21.7362 30.791 21.6743C30.7903 21.6142 30.8368 21.5647 30.8965 21.5609ZM30.8965 22.1233C30.9003 22.1232 30.9017 22.1232 30.9043 22.1233C30.9655 22.1237 31.0152 22.1736 31.0156 22.2348C31.0164 22.2968 30.9663 22.3474 30.9043 22.3482C30.8416 22.3486 30.7904 22.2976 30.791 22.2348C30.7914 22.1759 30.8375 22.1271 30.8965 22.1233ZM30.8965 22.6858C30.9003 22.6857 30.9017 22.6857 30.9043 22.6858C30.9655 22.6862 31.0152 22.7361 31.0156 22.7973C31.0164 22.8593 30.9663 22.91 30.9043 22.9107C30.8416 22.9111 30.7904 22.8601 30.791 22.7973C30.7914 22.7384 30.8375 22.6896 30.8965 22.6858ZM30.8965 23.2483C30.9003 23.2483 30.9017 23.2483 30.9043 23.2483C30.9655 23.2491 31.0152 23.2986 31.0156 23.3599C31.0164 23.4219 30.9663 23.4725 30.9043 23.4732C30.8416 23.4736 30.7904 23.4226 30.791 23.3599C30.7914 23.3005 30.8375 23.2521 30.8965 23.2483ZM30.8848 23.8109H30.8867C30.8943 23.8103 30.8967 23.8103 30.9043 23.8109C30.9655 23.8116 31.0152 23.8611 31.0156 23.9219C31.0164 23.9839 30.9663 24.0349 30.9043 24.0353C30.8416 24.0357 30.7904 23.9847 30.791 23.9219C30.7906 23.8667 30.8303 23.8184 30.8848 23.8109ZM25.3789 24.137C25.6211 24.1336 25.8646 24.2236 26.0527 24.4065C26.4292 24.7727 26.4364 25.3699 26.0703 25.7463L24.2617 27.6057C23.8956 27.9833 23.2981 27.9902 22.9219 27.6246C22.5454 27.2584 22.5382 26.6608 22.9043 26.2847L24.7129 24.4274C24.896 24.2391 25.1367 24.1416 25.3789 24.1382V24.137ZM30.8848 24.3733H30.8867C30.8943 24.3727 30.8967 24.3727 30.9043 24.3733C30.9655 24.374 31.0152 24.4231 31.0156 24.4843C31.0153 24.5456 30.9655 24.5951 30.9043 24.5959C30.8419 24.5966 30.7915 24.5463 30.791 24.4843C30.7906 24.4292 30.8303 24.3808 30.8848 24.3733ZM30.8965 24.9338C30.9003 24.9337 30.9017 24.9337 30.9043 24.9338C30.9663 24.9346 31.0163 24.9852 31.0156 25.0472C31.0153 25.1088 30.9655 25.1579 30.9043 25.1586C30.842 25.159 30.7915 25.1092 30.791 25.0472C30.7903 24.9871 30.8368 24.9376 30.8965 24.9338ZM30.8965 25.4962C30.9003 25.4962 30.9017 25.4962 30.9043 25.4962C30.9663 25.497 31.0163 25.5476 31.0156 25.6096C31.0153 25.6712 30.9655 25.7204 30.9043 25.7208C30.842 25.7212 30.7915 25.6712 30.791 25.6096C30.7903 25.5495 30.8368 25.5 30.8965 25.4962ZM30.8965 26.0588C30.9003 26.0586 30.9017 26.0586 30.9043 26.0588C30.9663 26.0595 31.0163 26.1102 31.0156 26.1721C31.0153 26.2337 30.9655 26.2828 30.9043 26.2832C30.842 26.2836 30.7915 26.2341 30.791 26.1721C30.7903 26.112 30.8368 26.0625 30.8965 26.0588ZM30.8965 26.6213C30.9003 26.6212 30.9017 26.6212 30.9043 26.6213C30.9655 26.622 31.0152 26.6715 31.0156 26.7327C31.0164 26.7947 30.9663 26.8453 30.9043 26.8461C30.8416 26.8465 30.7904 26.7954 30.791 26.7327C30.7914 26.6734 30.8375 26.6251 30.8965 26.6213ZM19.8106 26.7871C20.0528 26.7837 20.2962 26.8738 20.4844 27.0567C20.8608 27.4229 20.8681 28.0201 20.502 28.3965L18.6934 30.2558C18.3272 30.6334 17.7298 30.6423 17.3535 30.2747C16.9771 29.9085 16.9698 29.311 17.3359 28.9349L19.1445 27.0776C19.3276 26.8894 19.5684 26.7918 19.8106 26.7884V26.7871ZM30.8965 27.1837C30.9003 27.1836 30.9017 27.1836 30.9043 27.1837C30.9655 27.1844 31.0152 27.2339 31.0156 27.2951C31.0164 27.3571 30.9663 27.4077 30.9043 27.4085C30.8416 27.4089 30.7904 27.3578 30.791 27.2951C30.7914 27.2358 30.8375 27.1875 30.8965 27.1837ZM30.8965 27.7462C30.9003 27.7461 30.9017 27.7461 30.9043 27.7462C30.9655 27.747 31.0152 27.7961 31.0156 27.8573C31.0164 27.9193 30.9663 27.9703 30.9043 27.9707C30.8416 27.971 30.7904 27.92 30.791 27.8573C30.7914 27.7979 30.8375 27.7496 30.8965 27.7462ZM30.8848 28.3086H30.8867C30.8943 28.308 30.8967 28.308 30.9043 28.3086C30.9655 28.3094 31.0152 28.359 31.0156 28.4198C31.0153 28.481 30.9655 28.5305 30.9043 28.5312C30.8419 28.532 30.7915 28.4818 30.791 28.4198C30.7906 28.3646 30.8303 28.3162 30.8848 28.3086ZM30.9043 28.8692C30.9667 28.8699 31.0162 28.9206 31.0156 28.9826C31.0149 29.0442 30.9655 29.0933 30.9043 29.0941C30.842 29.0945 30.7915 29.0445 30.791 28.9826C30.7907 28.9198 30.8416 28.8688 30.9043 28.8692ZM25.3789 29.3517C25.6211 29.3483 25.8646 29.4382 26.0528 29.6211C26.4292 29.9873 26.4365 30.5845 26.0703 30.9609L24.2617 32.8203C23.8956 33.1979 23.2981 33.2048 22.9219 32.8393C22.5455 32.473 22.5382 31.8754 22.9043 31.4993L24.7129 29.642C24.896 29.4537 25.1367 29.3562 25.3789 29.3528V29.3517ZM30.8965 29.4317C30.9003 29.4316 30.9017 29.4316 30.9043 29.4317C30.9663 29.4325 31.0163 29.4831 31.0157 29.5451C31.0153 29.6067 30.9656 29.6559 30.9043 29.6563C30.842 29.6567 30.7915 29.6071 30.791 29.5451C30.7903 29.485 30.8368 29.4355 30.8965 29.4317ZM30.8965 29.9942C30.9003 29.9941 30.9017 29.9941 30.9043 29.9942C30.9663 29.995 31.0163 30.0456 31.0157 30.1076C31.0153 30.1692 30.9656 30.2183 30.9043 30.2187C30.842 30.2191 30.7915 30.1692 30.791 30.1076C30.7903 30.0475 30.8368 29.998 30.8965 29.9942ZM30.8965 30.5567C30.9003 30.5566 30.9017 30.5566 30.9043 30.5567C30.9663 30.5575 31.0163 30.6081 31.0157 30.6701C31.0153 30.7314 30.9656 30.7808 30.9043 30.7812C30.842 30.782 30.7915 30.7321 30.791 30.6701C30.7903 30.61 30.8368 30.5605 30.8965 30.5567ZM30.8965 31.1193C30.9003 31.1192 30.9017 31.1192 30.9043 31.1193C30.9656 31.12 31.0152 31.1695 31.0157 31.2307C31.0164 31.2927 30.9663 31.3433 30.9043 31.3441C30.8416 31.3444 30.7904 31.2934 30.791 31.2307C30.7914 31.1714 30.8376 31.1231 30.8965 31.1193ZM30.8965 31.6818C30.9003 31.6817 30.9017 31.6817 30.9043 31.6818C30.9656 31.6825 31.0152 31.732 31.0157 31.7929C31.0164 31.8549 30.9663 31.9059 30.9043 31.9062C30.8416 31.9066 30.7904 31.8556 30.791 31.7929C30.7914 31.7335 30.8376 31.6852 30.8965 31.6818ZM19.8106 32.0469C20.0528 32.0434 20.2963 32.1334 20.4844 32.3163C20.8608 32.6825 20.8681 33.2798 20.502 33.6562L18.6934 35.5155C18.3273 35.8931 17.7298 35.902 17.3535 35.5344C16.9771 35.1682 16.9698 34.5707 17.336 34.1946L19.1446 32.3372C19.3276 32.1489 19.5684 32.0514 19.8106 32.048V32.0469ZM30.8848 32.2441H30.8867C30.8943 32.2435 30.8968 32.2435 30.9043 32.2441C30.9655 32.2448 31.0152 32.294 31.0156 32.3553C31.0164 32.4173 30.9663 32.4683 30.9043 32.4687C30.8416 32.469 30.7904 32.418 30.791 32.3553C30.7907 32.3001 30.8304 32.2516 30.8848 32.2441ZM30.8848 32.8066H30.8867C30.8943 32.806 30.8968 32.806 30.9043 32.8066C30.9655 32.807 31.0152 32.8569 31.0156 32.9178C31.0153 32.9794 30.9655 33.0285 30.9043 33.0292C30.842 33.0296 30.7915 32.9798 30.791 32.9178C30.7907 32.863 30.8304 32.8142 30.8848 32.8066ZM30.9043 33.3672C30.9667 33.3679 31.0162 33.4186 31.0157 33.4806C31.0149 33.5422 30.9656 33.5912 30.9043 33.5916C30.842 33.592 30.7915 33.5422 30.791 33.4806C30.7907 33.4178 30.8416 33.3668 30.9043 33.3672ZM30.8965 33.9297C30.9003 33.9297 30.9017 33.9297 30.9043 33.9297C30.9663 33.9305 31.0163 33.9811 31.0157 34.0431C31.0153 34.1047 30.9656 34.1538 30.9043 34.1542C30.842 34.1545 30.7915 34.1051 30.791 34.0431C30.7903 33.983 30.8368 33.9335 30.8965 33.9297ZM30.8965 34.4921C30.9003 34.492 30.9017 34.492 30.9043 34.4921C30.9663 34.4929 31.0163 34.5436 31.0157 34.6056C31.0153 34.6672 30.9656 34.7163 30.9043 34.7167C30.842 34.7171 30.7915 34.6672 30.791 34.6056C30.7903 34.5455 30.8368 34.4959 30.8965 34.4921ZM23.8418 34.9628C24.084 34.9594 24.3275 35.0494 24.5156 35.2324C24.8921 35.5986 24.8993 36.1957 24.5332 36.5722L22.7246 38.4316C22.3585 38.8092 21.761 38.8179 21.3848 38.4504C21.0083 38.0842 21.0011 37.4867 21.3672 37.1106L23.1758 35.2532C23.3589 35.065 23.5996 34.9675 23.8418 34.9641V34.9628ZM30.8965 35.0547C30.9003 35.0546 30.9017 35.0546 30.9043 35.0547C30.9656 35.0555 31.0152 35.1049 31.0157 35.1662C31.0164 35.2281 30.9663 35.2788 30.9043 35.2795C30.8416 35.2799 30.7904 35.2289 30.791 35.1662C30.7914 35.1068 30.8376 35.0585 30.8965 35.0547ZM30.8965 35.6173C30.9003 35.6172 30.9017 35.6172 30.9043 35.6173C30.9656 35.618 31.0152 35.6671 31.0157 35.7283C31.0164 35.7903 30.9663 35.8413 30.9043 35.8417C30.8416 35.8421 30.7904 35.7911 30.791 35.7283C30.7914 35.669 30.8376 35.6207 30.8965 35.6173ZM30.8965 36.1797C30.9003 36.1796 30.9017 36.1796 30.9043 36.1797C30.9656 36.1804 31.0152 36.23 31.0157 36.2909C31.0164 36.3528 30.9663 36.4039 30.9043 36.4042C30.8416 36.4046 30.7904 36.3536 30.791 36.2909C30.7914 36.2315 30.8376 36.1831 30.8965 36.1797ZM30.8965 36.7422C30.9003 36.7421 30.9017 36.7421 30.9043 36.7422C30.9656 36.743 31.0152 36.7922 31.0157 36.8534C31.0164 36.9154 30.9663 36.966 30.9043 36.9668C30.8416 36.9671 30.7904 36.9161 30.791 36.8534C30.7914 36.794 30.8376 36.7456 30.8965 36.7422ZM30.8848 37.3047H30.8867C30.8943 37.3041 30.8968 37.3041 30.9043 37.3047C30.9655 37.3055 31.0152 37.3549 31.0156 37.4161C31.0153 37.4774 30.9655 37.527 30.9043 37.5273C30.842 37.5281 30.7915 37.4781 30.791 37.4161C30.7907 37.361 30.8304 37.3123 30.8848 37.3047ZM30.8965 37.8653C30.9003 37.8652 30.9017 37.8652 30.9043 37.8653C30.9663 37.866 31.0163 37.9167 31.0157 37.9787C31.0153 38.0403 30.9656 38.0894 30.9043 38.0897C30.842 38.0901 30.7915 38.0403 30.791 37.9787C30.7903 37.9186 30.8368 37.8691 30.8965 37.8653ZM30.8965 38.4277C30.9003 38.4276 30.9017 38.4276 30.9043 38.4277C30.9663 38.4284 31.0163 38.4791 31.0157 38.5411C31.0153 38.6027 30.9656 38.6519 30.9043 38.6523C30.842 38.6526 30.7915 38.6031 30.791 38.5411C30.7903 38.481 30.8368 38.4315 30.8965 38.4277ZM30.8965 38.9902C30.9003 38.9901 30.9017 38.9901 30.9043 38.9902C30.9663 38.991 31.0163 39.0416 31.0157 39.1036C31.0153 39.1652 30.9656 39.2144 30.9043 39.2151C30.842 39.2155 30.7915 39.1656 30.791 39.1036C30.7903 39.0435 30.8368 38.994 30.8965 38.9902ZM30.8965 39.5527C30.9003 39.5527 30.9017 39.5527 30.9043 39.5527C30.9656 39.5535 31.0152 39.603 31.0157 39.6643C31.0164 39.7263 30.9663 39.7769 30.9043 39.7776C30.8416 39.778 30.7904 39.727 30.791 39.6643C30.7914 39.6049 30.8376 39.5565 30.8965 39.5527ZM30.8965 40.1153C30.9003 40.1152 30.9017 40.1152 30.9043 40.1153C30.9656 40.116 31.0152 40.1651 31.0157 40.2263C31.0164 40.2883 30.9663 40.3393 30.9043 40.3397C30.8416 40.3401 30.7904 40.2891 30.791 40.2263C30.7914 40.167 30.8376 40.1187 30.8965 40.1153ZM30.8965 40.6778C30.9003 40.6777 30.9017 40.6777 30.9043 40.6778C30.9656 40.6785 31.0152 40.728 31.0157 40.7889C31.0164 40.8508 30.9663 40.9015 30.9043 40.9022C30.8416 40.9026 30.7904 40.8516 30.791 40.7889C30.7914 40.7295 30.8376 40.6812 30.8965 40.6778ZM30.8848 41.2402H30.8867C30.8943 41.2396 30.8968 41.2396 30.9043 41.2402C30.9655 41.2409 31.0152 41.2905 31.0156 41.3517C31.0164 41.4137 30.9663 41.4643 30.9043 41.4651C30.8416 41.4655 30.7904 41.4145 30.791 41.3517C30.7907 41.2965 30.8304 41.2477 30.8848 41.2402ZM30.8848 41.8027H30.8867C30.8943 41.8021 30.8968 41.8021 30.9043 41.8027C30.9655 41.8035 31.0152 41.853 31.0156 41.9142C31.0153 41.9759 30.9655 42.0249 30.9043 42.0253C30.842 42.0257 30.7915 41.9762 30.791 41.9142C30.7907 41.8591 30.8304 41.8103 30.8848 41.8027ZM30.9043 42.3633C30.9667 42.364 31.0162 42.4147 31.0157 42.4767C31.0149 42.5383 30.9656 42.5875 30.9043 42.5878C30.842 42.5882 30.7915 42.5383 30.791 42.4767C30.7907 42.4139 30.8416 42.3629 30.9043 42.3633ZM30.8965 42.9258C30.9003 42.9257 30.9017 42.9257 30.9043 42.9258C30.9663 42.9266 31.0163 42.9772 31.0157 43.0392C31.0153 43.1008 30.9656 43.15 30.9043 43.1507C30.842 43.1511 30.7915 43.1012 30.791 43.0392C30.7903 42.9791 30.8368 42.9296 30.8965 42.9258Z" fill="#333333"/>
</svg>
