<svg width="48" height="48" viewBox="0 0 48 48" fill="none" xmlns="http://www.w3.org/2000/svg">
<path d="M0 0V48H48V0H0ZM33.85 4.02C34.72 4.02 35.42 4.72 35.42 5.59V42.45C35.42 43.32 34.72 44.02 33.85 44.02H14.15C13.28 44.02 12.58 43.32 12.58 42.45V5.59C12.58 4.72 13.28 4.02 14.15 4.02C20.91 4.02 27.58 3.95 33.85 4.02ZM18.9 5.05C18.83 5.05 18.8 5.12 18.8 5.17C18.8 5.22 18.83 5.27 18.9 5.27C18.99 5.28 19.02 5.22 19.02 5.16C19.02 5.11 18.97 5.06 18.9 5.05V5.05ZM18.9 5.6C18.83 5.6 18.8 5.67 18.8 5.72C18.8 5.77 18.83 5.83 18.9 5.82C18.99 5.83 19.02 5.77 19.02 5.72C19.02 5.66 18.97 5.61 18.9 5.6ZM18.9 6.16C18.83 6.16 18.8 6.23 18.8 6.27C18.8 6.33 18.83 6.39 18.9 6.38C18.99 6.38 19.02 6.33 19.02 6.27C19.02 6.21 18.97 6.16 18.9 6.16ZM18.9 6.71C18.83 6.71 18.8 6.78 18.8 6.83C18.8 6.88 18.83 6.94 18.9 6.93C18.99 6.94 19.02 6.88 19.02 6.83C19.02 6.77 18.97 6.71 18.9 6.71ZM18.9 7.26C18.83 7.26 18.8 7.33 18.8 7.38C18.8 7.43 18.83 7.49 18.9 7.48C18.99 7.5 19.02 7.43 19.02 7.38C19.02 7.32 18.97 7.27 18.9 7.26ZM18.9 7.82C18.83 7.82 18.8 7.89 18.8 7.93C18.8 7.99 18.83 8.05 18.9 8.04C18.99 8.05 19.02 7.99 19.02 7.93C19.02 7.88 18.97 7.82 18.9 7.82ZM18.9 8.37C18.83 8.37 18.8 8.44 18.8 8.49C18.8 8.54 18.83 8.6 18.9 8.59C18.99 8.6 19.02 8.54 19.02 8.49C19.02 8.43 18.97 8.37 18.9 8.37ZM18.9 8.93C18.83 8.93 18.8 8.99 18.8 9.04C18.8 9.1 18.83 9.16 18.9 9.15C18.99 9.15 19.02 9.1 19.02 9.04C19.02 8.98 18.97 8.93 18.9 8.93ZM18.9 9.48C18.83 9.48 18.8 9.55 18.8 9.6C18.8 9.65 18.83 9.7 18.9 9.7C18.99 9.71 19.02 9.65 19.02 9.59C19.02 9.54 18.97 9.49 18.9 9.48ZM18.9 10.03C18.83 10.03 18.8 10.1 18.8 10.15C18.8 10.2 18.83 10.26 18.9 10.25C18.99 10.27 19.02 10.2 19.02 10.15C19.02 10.09 18.97 10.03 18.9 10.03ZM18.9 10.59C18.83 10.59 18.8 10.65 18.8 10.7C18.8 10.76 18.83 10.82 18.9 10.81C18.99 10.81 19.02 10.76 19.02 10.7C19.02 10.64 18.97 10.59 18.9 10.59ZM18.9 11.14C18.83 11.14 18.8 11.21 18.8 11.26C18.8 11.31 18.83 11.37 18.9 11.36C18.99 11.37 19.02 11.31 19.02 11.26C19.02 11.2 18.97 11.14 18.9 11.14ZM18.9 11.69C18.83 11.69 18.8 11.76 18.8 11.81C18.8 11.86 18.83 11.92 18.9 11.91C18.99 11.93 19.02 11.86 19.02 11.81C19.02 11.75 18.97 11.7 18.9 11.69ZM18.9 12.25C18.83 12.25 18.8 12.32 18.8 12.36C18.8 12.42 18.83 12.48 18.9 12.47C18.99 12.48 19.02 12.42 19.02 12.36C19.02 12.31 18.97 12.25 18.9 12.25ZM18.9 12.8C18.83 12.8 18.8 12.87 18.8 12.92C18.8 12.97 18.83 13.03 18.9 13.02C18.99 13.03 19.02 12.97 19.02 12.92C19.02 12.86 18.97 12.8 18.9 12.8ZM18.9 13.36C18.83 13.36 18.8 13.42 18.8 13.47C18.8 13.52 18.83 13.59 18.9 13.58C18.99 13.58 19.02 13.53 19.02 13.47C19.02 13.41 18.97 13.36 18.9 13.36ZM18.9 13.91C18.83 13.91 18.8 13.98 18.8 14.03C18.8 14.08 18.83 14.13 18.9 14.13C18.99 14.14 19.02 14.08 19.02 14.02C19.02 13.97 18.97 13.92 18.9 13.91ZM18.9 14.46C18.83 14.46 18.8 14.53 18.8 14.58C18.8 14.63 18.83 14.69 18.9 14.68C18.99 14.7 19.02 14.63 19.02 14.58C19.02 14.52 18.97 14.46 18.9 14.46ZM18.9 15.02C18.83 15.02 18.8 15.09 18.8 15.13C18.8 15.19 18.83 15.25 18.9 15.24C18.99 15.24 19.02 15.19 19.02 15.13C19.02 15.07 18.97 15.02 18.9 15.02ZM18.9 15.57C18.83 15.57 18.8 15.64 18.8 15.69C18.8 15.74 18.83 15.8 18.9 15.79C18.99 15.8 19.02 15.74 19.02 15.69C19.02 15.63 18.97 15.57 18.9 15.57ZM18.9 16.12C18.83 16.12 18.8 16.19 18.8 16.24C18.8 16.29 18.83 16.35 18.9 16.34C18.99 16.36 19.02 16.29 19.02 16.24C19.02 16.18 18.97 16.13 18.9 16.12ZM18.9 16.68C18.83 16.68 18.8 16.75 18.8 16.79C18.8 16.85 18.83 16.91 18.9 16.9C18.99 16.91 19.02 16.85 19.02 16.79C19.02 16.74 18.97 16.68 18.9 16.68ZM18.9 17.23C18.83 17.23 18.8 17.3 18.8 17.35C18.8 17.4 18.83 17.46 18.9 17.45C18.99 17.46 19.02 17.4 19.02 17.35C19.02 17.29 18.97 17.23 18.9 17.23ZM18.9 17.79C18.83 17.79 18.8 17.85 18.8 17.9C18.8 17.95 18.83 18.02 18.9 18.01C18.99 18.01 19.02 17.96 19.02 17.9C19.02 17.84 18.97 17.79 18.9 17.79ZM18.9 18.34C18.83 18.34 18.8 18.41 18.8 18.45C18.8 18.51 18.83 18.57 18.9 18.56C18.99 18.57 19.02 18.51 19.02 18.45C19.02 18.4 18.97 18.35 18.9 18.34ZM18.9 18.89C18.83 18.89 18.8 18.96 18.8 19.01C18.8 19.06 18.83 19.12 18.9 19.11C18.99 19.13 19.02 19.06 19.02 19.01C19.02 18.95 18.97 18.89 18.9 18.89ZM18.9 19.45C18.83 19.45 18.8 19.52 18.8 19.56C18.8 19.62 18.83 19.68 18.9 19.67C18.99 19.67 19.02 19.62 19.02 19.56C19.02 19.5 18.97 19.45 18.9 19.45ZM18.9 20C18.83 20 18.8 20.07 18.8 20.12C18.8 20.17 18.83 20.23 18.9 20.22C18.99 20.23 19.02 20.17 19.02 20.12C19.02 20.06 18.97 20 18.9 20ZM18.9 20.55C18.83 20.55 18.8 20.62 18.8 20.67C18.8 20.72 18.83 20.78 18.9 20.77C18.99 20.79 19.02 20.72 19.02 20.67C19.02 20.61 18.97 20.56 18.9 20.55ZM18.9 21.11C18.83 21.11 18.8 21.18 18.8 21.22C18.8 21.28 18.83 21.34 18.9 21.33C18.99 21.34 19.02 21.28 19.02 21.22C19.02 21.17 18.97 21.11 18.9 21.11ZM18.9 21.66C18.83 21.66 18.8 21.73 18.8 21.78C18.8 21.83 18.83 21.89 18.9 21.88C18.99 21.89 19.02 21.83 19.02 21.78C19.02 21.72 18.97 21.66 18.9 21.66ZM18.9 22.22C18.83 22.22 18.8 22.28 18.8 22.33C18.8 22.39 18.83 22.45 18.9 22.44C18.99 22.44 19.02 22.39 19.02 22.33C19.02 22.27 18.97 22.22 18.9 22.22ZM18.9 22.77C18.83 22.77 18.8 22.84 18.8 22.89C18.8 22.94 18.83 22.99 18.9 22.99C18.99 23 19.02 22.94 19.02 22.88C19.02 22.83 18.97 22.78 18.9 22.77V22.77ZM18.9 23.32C18.83 23.32 18.8 23.39 18.8 23.44C18.8 23.49 18.83 23.55 18.9 23.54C18.99 23.56 19.02 23.49 19.02 23.44C19.02 23.38 18.97 23.32 18.9 23.32ZM18.9 23.88C18.83 23.88 18.8 23.95 18.8 23.99C18.8 24.05 18.83 24.11 18.9 24.1C18.99 24.1 19.02 24.05 19.02 23.99C19.02 23.93 18.97 23.88 18.9 23.88ZM18.9 24.43C18.83 24.43 18.8 24.5 18.8 24.55C18.8 24.6 18.83 24.66 18.9 24.65C18.99 24.66 19.02 24.6 19.02 24.55C19.02 24.49 18.97 24.43 18.9 24.43ZM18.9 24.98C18.83 24.98 18.8 25.05 18.8 25.1C18.8 25.15 18.83 25.21 18.9 25.21C18.99 25.21 19.02 25.16 19.02 25.09C19.02 25.04 18.97 24.99 18.9 24.99V24.98ZM18.9 25.54C18.83 25.54 18.8 25.61 18.8 25.65C18.8 25.71 18.83 25.77 18.9 25.76C18.99 25.77 19.02 25.71 19.02 25.65C19.02 25.6 18.97 25.54 18.9 25.54ZM18.9 26.09C18.83 26.09 18.8 26.16 18.8 26.21C18.8 26.26 18.83 26.32 18.9 26.31C18.99 26.32 19.02 26.26 19.02 26.21C19.02 26.15 18.97 26.09 18.9 26.09ZM18.9 26.65C18.83 26.65 18.8 26.72 18.8 26.76C18.8 26.81 18.83 26.87 18.9 26.87C18.99 26.87 19.02 26.82 19.02 26.76C19.02 26.7 18.97 26.65 18.9 26.65ZM18.9 27.2C18.83 27.2 18.8 27.27 18.8 27.32C18.8 27.37 18.83 27.42 18.9 27.42C18.99 27.43 19.02 27.37 19.02 27.31C19.02 27.26 18.97 27.21 18.9 27.2V27.2ZM18.9 27.75C18.83 27.75 18.8 27.82 18.8 27.87C18.8 27.92 18.83 27.98 18.9 27.97C18.99 27.99 19.02 27.92 19.02 27.87C19.02 27.81 18.97 27.75 18.9 27.75ZM18.9 28.31C18.83 28.31 18.8 28.38 18.8 28.42C18.8 28.48 18.83 28.54 18.9 28.53C18.99 28.53 19.02 28.48 19.02 28.42C19.02 28.36 18.97 28.31 18.9 28.31ZM18.9 28.86C18.83 28.86 18.8 28.93 18.8 28.98C18.8 29.03 18.83 29.09 18.9 29.08C18.99 29.09 19.02 29.03 19.02 28.98C19.02 28.92 18.97 28.86 18.9 28.86ZM18.9 29.41C18.83 29.41 18.8 29.48 18.8 29.53C18.8 29.58 18.83 29.64 18.9 29.64C18.99 29.64 19.02 29.59 19.02 29.52C19.02 29.47 18.97 29.42 18.9 29.42V29.41ZM18.9 29.97C18.83 29.97 18.8 30.04 18.8 30.08C18.8 30.14 18.83 30.2 18.9 30.19C18.99 30.2 19.02 30.14 19.02 30.08C19.02 30.03 18.97 29.97 18.9 29.97ZM18.9 30.52C18.83 30.52 18.8 30.59 18.8 30.64C18.8 30.69 18.83 30.75 18.9 30.74C18.99 30.75 19.02 30.69 19.02 30.64C19.02 30.58 18.97 30.52 18.9 30.52ZM18.9 31.08C18.83 31.08 18.8 31.15 18.8 31.19C18.8 31.24 18.83 31.3 18.9 31.3C18.99 31.3 19.02 31.25 19.02 31.19C19.02 31.13 18.97 31.08 18.9 31.08ZM18.9 31.63C18.83 31.63 18.8 31.7 18.8 31.75C18.8 31.8 18.83 31.85 18.9 31.85C18.99 31.86 19.02 31.8 19.02 31.74C19.02 31.69 18.97 31.64 18.9 31.63V31.63ZM18.9 32.18C18.83 32.18 18.8 32.25 18.8 32.3C18.8 32.35 18.83 32.41 18.9 32.4C18.99 32.42 19.02 32.35 19.02 32.3C19.02 32.24 18.97 32.19 18.9 32.18ZM18.9 32.74C18.83 32.74 18.8 32.81 18.8 32.85C18.8 32.91 18.83 32.97 18.9 32.96C18.99 32.96 19.02 32.91 19.02 32.85C19.02 32.79 18.97 32.74 18.9 32.74ZM18.9 33.29C18.83 33.29 18.8 33.36 18.8 33.41C18.8 33.46 18.83 33.52 18.9 33.51C18.99 33.52 19.02 33.46 19.02 33.41C19.02 33.35 18.97 33.29 18.9 33.29ZM18.9 33.84C18.83 33.84 18.8 33.91 18.8 33.96C18.8 34.01 18.83 34.07 18.9 34.07C18.99 34.07 19.02 34.02 19.02 33.95C19.02 33.9 18.97 33.85 18.9 33.85V33.84ZM18.9 34.4C18.83 34.4 18.8 34.47 18.8 34.51C18.8 34.57 18.83 34.63 18.9 34.62C18.99 34.63 19.02 34.57 19.02 34.51C19.02 34.46 18.97 34.4 18.9 34.4ZM18.9 34.95C18.83 34.95 18.8 35.02 18.8 35.07C18.8 35.12 18.83 35.18 18.9 35.17C18.99 35.18 19.02 35.12 19.02 35.07C19.02 35.01 18.97 34.95 18.9 34.95ZM18.9 35.51C18.83 35.51 18.8 35.58 18.8 35.62C18.8 35.67 18.83 35.74 18.9 35.73C18.99 35.73 19.02 35.68 19.02 35.62C19.02 35.56 18.97 35.51 18.9 35.51ZM18.9 36.06C18.83 36.06 18.8 36.13 18.8 36.18C18.8 36.23 18.83 36.28 18.9 36.28C18.99 36.29 19.02 36.23 19.02 36.17C19.02 36.12 18.97 36.07 18.9 36.06ZM18.9 36.61C18.83 36.61 18.8 36.68 18.8 36.73C18.8 36.78 18.83 36.84 18.9 36.83C18.99 36.85 19.02 36.78 19.02 36.73C19.02 36.67 18.97 36.62 18.9 36.61ZM18.9 37.17C18.83 37.17 18.8 37.24 18.8 37.28C18.8 37.34 18.83 37.4 18.9 37.39C18.99 37.39 19.02 37.34 19.02 37.28C19.02 37.22 18.97 37.17 18.9 37.17ZM18.9 37.72C18.83 37.72 18.8 37.79 18.8 37.84C18.8 37.89 18.83 37.95 18.9 37.94C18.99 37.95 19.02 37.89 19.02 37.84C19.02 37.78 18.97 37.72 18.9 37.72ZM18.9 38.27C18.83 38.27 18.8 38.34 18.8 38.39C18.8 38.44 18.83 38.5 18.9 38.5C18.99 38.5 19.02 38.45 19.02 38.38C19.02 38.33 18.97 38.28 18.9 38.28V38.27ZM18.9 38.83C18.83 38.83 18.8 38.9 18.8 38.94C18.8 39 18.83 39.06 18.9 39.05C18.99 39.06 19.02 39 19.02 38.94C19.02 38.89 18.97 38.83 18.9 38.83ZM18.9 39.38C18.83 39.38 18.8 39.45 18.8 39.5C18.8 39.55 18.83 39.61 18.9 39.6C18.99 39.61 19.02 39.55 19.02 39.5C19.02 39.44 18.97 39.38 18.9 39.38ZM18.9 39.94C18.83 39.94 18.8 40.01 18.8 40.05C18.8 40.1 18.83 40.17 18.9 40.16C18.99 40.16 19.02 40.11 19.02 40.05C19.02 39.99 18.97 39.94 18.9 39.94ZM18.9 40.49C18.83 40.49 18.8 40.56 18.8 40.61C18.8 40.66 18.83 40.71 18.9 40.71C18.99 40.72 19.02 40.66 19.02 40.6C19.02 40.55 18.97 40.5 18.9 40.49ZM18.9 41.04C18.83 41.04 18.8 41.11 18.8 41.16C18.8 41.21 18.83 41.27 18.9 41.26C18.99 41.28 19.02 41.21 19.02 41.16C19.02 41.1 18.97 41.05 18.9 41.04ZM18.9 41.6C18.83 41.6 18.8 41.67 18.8 41.71C18.8 41.77 18.83 41.83 18.9 41.82C18.99 41.82 19.02 41.77 19.02 41.71C19.02 41.65 18.97 41.6 18.9 41.6ZM18.9 42.15C18.83 42.15 18.8 42.22 18.8 42.27C18.8 42.32 18.83 42.38 18.9 42.37C18.99 42.38 19.02 42.32 19.02 42.27C19.02 42.21 18.97 42.15 18.9 42.15ZM18.9 42.7C18.83 42.7 18.8 42.77 18.8 42.82C18.8 42.87 18.83 42.93 18.9 42.93C18.99 42.93 19.02 42.88 19.02 42.81C19.02 42.76 18.97 42.71 18.9 42.71V42.7ZM24 5.05C23.92 5.05 23.9 5.12 23.9 5.17C23.9 5.22 23.93 5.27 24 5.27C24.08 5.28 24.1 5.22 24.1 5.16C24.1 5.11 24.06 5.06 24 5.05V5.05ZM24 5.6C23.92 5.6 23.9 5.67 23.9 5.72C23.9 5.77 23.93 5.83 24 5.82C24.08 5.83 24.1 5.77 24.1 5.72C24.1 5.66 24.06 5.61 24 5.6ZM24 6.16C23.92 6.16 23.9 6.23 23.9 6.27C23.9 6.33 23.93 6.39 24 6.38C24.08 6.38 24.1 6.33 24.1 6.27C24.1 6.21 24.06 6.16 24 6.16ZM24 6.71C23.92 6.71 23.9 6.78 23.9 6.83C23.9 6.88 23.93 6.94 24 6.93C24.08 6.94 24.1 6.88 24.1 6.83C24.1 6.77 24.06 6.71 24 6.71ZM24 7.26C23.92 7.26 23.9 7.33 23.9 7.38C23.9 7.43 23.93 7.49 24 7.48C24.08 7.5 24.1 7.43 24.1 7.38C24.1 7.32 24.06 7.27 24 7.26ZM24 7.82C23.92 7.82 23.9 7.89 23.9 7.93C23.9 7.99 23.93 8.05 24 8.04C24.08 8.05 24.1 7.99 24.1 7.93C24.1 7.88 24.06 7.82 24 7.82ZM24 8.37C23.92 8.37 23.9 8.44 23.9 8.49C23.9 8.54 23.93 8.6 24 8.59C24.08 8.6 24.1 8.54 24.1 8.49C24.1 8.43 24.06 8.37 24 8.37ZM24 8.93C23.92 8.93 23.9 8.99 23.9 9.04C23.9 9.1 23.93 9.16 24 9.15C24.08 9.15 24.1 9.1 24.1 9.04C24.1 8.98 24.06 8.93 24 8.93ZM24 9.48C23.92 9.48 23.9 9.55 23.9 9.6C23.9 9.65 23.93 9.7 24 9.7C24.08 9.71 24.1 9.65 24.1 9.59C24.1 9.54 24.06 9.49 24 9.48ZM24 10.03C23.92 10.03 23.9 10.1 23.9 10.15C23.9 10.2 23.93 10.26 24 10.25C24.08 10.27 24.1 10.2 24.1 10.15C24.1 10.09 24.06 10.03 24 10.03ZM24 10.59C23.92 10.59 23.9 10.65 23.9 10.7C23.9 10.76 23.93 10.82 24 10.81C24.08 10.81 24.1 10.76 24.1 10.7C24.1 10.64 24.06 10.59 24 10.59ZM24 11.14C23.92 11.14 23.9 11.21 23.9 11.26C23.9 11.31 23.93 11.37 24 11.36C24.08 11.37 24.1 11.31 24.1 11.26C24.1 11.2 24.06 11.14 24 11.14ZM24 11.69C23.92 11.69 23.9 11.76 23.9 11.81C23.9 11.86 23.93 11.92 24 11.91C24.08 11.93 24.1 11.86 24.1 11.81C24.1 11.75 24.06 11.7 24 11.69ZM24 12.25C23.92 12.25 23.9 12.32 23.9 12.36C23.9 12.42 23.93 12.48 24 12.47C24.08 12.48 24.1 12.42 24.1 12.36C24.1 12.31 24.06 12.25 24 12.25ZM24 12.8C23.92 12.8 23.9 12.87 23.9 12.92C23.9 12.97 23.93 13.03 24 13.02C24.08 13.03 24.1 12.97 24.1 12.92C24.1 12.86 24.06 12.8 24 12.8ZM24 13.36C23.92 13.36 23.9 13.42 23.9 13.47C23.9 13.52 23.93 13.59 24 13.58C24.08 13.58 24.1 13.53 24.1 13.47C24.1 13.41 24.06 13.36 24 13.36ZM24 13.91C23.92 13.91 23.9 13.98 23.9 14.03C23.9 14.08 23.93 14.13 24 14.13C24.08 14.14 24.1 14.08 24.1 14.02C24.1 13.97 24.06 13.92 24 13.91ZM24 14.46C23.92 14.46 23.9 14.53 23.9 14.58C23.9 14.63 23.93 14.69 24 14.68C24.08 14.7 24.1 14.63 24.1 14.58C24.1 14.52 24.06 14.46 24 14.46ZM24 15.02C23.92 15.02 23.9 15.09 23.9 15.13C23.9 15.19 23.93 15.25 24 15.24C24.08 15.24 24.1 15.19 24.1 15.13C24.1 15.07 24.06 15.02 24 15.02ZM24 15.57C23.92 15.57 23.9 15.64 23.9 15.69C23.9 15.74 23.93 15.8 24 15.79C24.08 15.8 24.1 15.74 24.1 15.69C24.1 15.63 24.06 15.57 24 15.57ZM24 16.12C23.92 16.12 23.9 16.19 23.9 16.24C23.9 16.29 23.93 16.35 24 16.34C24.08 16.36 24.1 16.29 24.1 16.24C24.1 16.18 24.06 16.13 24 16.12ZM24 16.68C23.92 16.68 23.9 16.75 23.9 16.79C23.9 16.85 23.93 16.91 24 16.9C24.08 16.91 24.1 16.85 24.1 16.79C24.1 16.74 24.06 16.68 24 16.68ZM24 17.23C23.92 17.23 23.9 17.3 23.9 17.35C23.9 17.4 23.93 17.46 24 17.45C24.08 17.46 24.1 17.4 24.1 17.35C24.1 17.29 24.06 17.23 24 17.23ZM24 17.79C23.92 17.79 23.9 17.85 23.9 17.9C23.9 17.95 23.93 18.02 24 18.01C24.08 18.01 24.1 17.96 24.1 17.9C24.1 17.84 24.06 17.79 24 17.79ZM24 18.34C23.92 18.34 23.9 18.41 23.9 18.45C23.9 18.51 23.93 18.57 24 18.56C24.08 18.57 24.1 18.51 24.1 18.45C24.1 18.4 24.06 18.35 24 18.34ZM24 18.89C23.92 18.89 23.9 18.96 23.9 19.01C23.9 19.06 23.93 19.12 24 19.11C24.08 19.13 24.1 19.06 24.1 19.01C24.1 18.95 24.06 18.89 24 18.89ZM24 19.45C23.92 19.45 23.9 19.52 23.9 19.56C23.9 19.62 23.93 19.68 24 19.67C24.08 19.67 24.1 19.62 24.1 19.56C24.1 19.5 24.06 19.45 24 19.45ZM24 20C23.92 20 23.9 20.07 23.9 20.12C23.9 20.17 23.93 20.23 24 20.22C24.08 20.23 24.1 20.17 24.1 20.12C24.1 20.06 24.06 20 24 20ZM24 20.55C23.92 20.55 23.9 20.62 23.9 20.67C23.9 20.72 23.93 20.78 24 20.77C24.08 20.79 24.1 20.72 24.1 20.67C24.1 20.61 24.06 20.56 24 20.55ZM24 21.11C23.92 21.11 23.9 21.18 23.9 21.22C23.9 21.28 23.93 21.34 24 21.33C24.08 21.34 24.1 21.28 24.1 21.22C24.1 21.17 24.06 21.11 24 21.11ZM24 21.66C23.92 21.66 23.9 21.73 23.9 21.78C23.9 21.83 23.93 21.89 24 21.88C24.08 21.89 24.1 21.83 24.1 21.78C24.1 21.72 24.06 21.66 24 21.66ZM24 22.22C23.92 22.22 23.9 22.28 23.9 22.33C23.9 22.39 23.93 22.45 24 22.44C24.08 22.44 24.1 22.39 24.1 22.33C24.1 22.27 24.06 22.22 24 22.22ZM24 22.77C23.92 22.77 23.9 22.84 23.9 22.89C23.9 22.94 23.93 22.99 24 22.99C24.08 23 24.1 22.94 24.1 22.88C24.1 22.83 24.06 22.78 24 22.77V22.77ZM24 23.32C23.92 23.32 23.9 23.39 23.9 23.44C23.9 23.49 23.93 23.55 24 23.54C24.08 23.56 24.1 23.49 24.1 23.44C24.1 23.38 24.06 23.32 24 23.32ZM24 23.88C23.92 23.88 23.9 23.95 23.9 23.99C23.9 24.05 23.93 24.11 24 24.1C24.08 24.1 24.1 24.05 24.1 23.99C24.1 23.93 24.06 23.88 24 23.88ZM24 24.43C23.92 24.43 23.9 24.5 23.9 24.55C23.9 24.6 23.93 24.66 24 24.65C24.08 24.66 24.1 24.6 24.1 24.55C24.1 24.49 24.06 24.43 24 24.43ZM24 24.98C23.92 24.98 23.9 25.05 23.9 25.1C23.9 25.15 23.93 25.21 24 25.21C24.08 25.21 24.1 25.16 24.1 25.09C24.1 25.04 24.06 24.99 24 24.99V24.98ZM24 25.54C23.92 25.54 23.9 25.61 23.9 25.65C23.9 25.71 23.93 25.77 24 25.76C24.08 25.77 24.1 25.71 24.1 25.65C24.1 25.6 24.06 25.54 24 25.54ZM24 26.09C23.92 26.09 23.9 26.16 23.9 26.21C23.9 26.26 23.93 26.32 24 26.31C24.08 26.32 24.1 26.26 24.1 26.21C24.1 26.15 24.06 26.09 24 26.09ZM24 26.65C23.92 26.65 23.9 26.72 23.9 26.76C23.9 26.81 23.93 26.87 24 26.87C24.08 26.87 24.1 26.82 24.1 26.76C24.1 26.7 24.06 26.65 24 26.65ZM24 27.2C23.92 27.2 23.9 27.27 23.9 27.32C23.9 27.37 23.93 27.42 24 27.42C24.08 27.43 24.1 27.37 24.1 27.31C24.1 27.26 24.06 27.21 24 27.2V27.2ZM24 27.75C23.92 27.75 23.9 27.82 23.9 27.87C23.9 27.92 23.93 27.98 24 27.97C24.08 27.99 24.1 27.92 24.1 27.87C24.1 27.81 24.06 27.75 24 27.75ZM24 28.31C23.92 28.31 23.9 28.38 23.9 28.42C23.9 28.48 23.93 28.54 24 28.53C24.08 28.53 24.1 28.48 24.1 28.42C24.1 28.36 24.06 28.31 24 28.31ZM24 28.86C23.92 28.86 23.9 28.93 23.9 28.98C23.9 29.03 23.93 29.09 24 29.08C24.08 29.09 24.1 29.03 24.1 28.98C24.1 28.92 24.06 28.86 24 28.86ZM24 29.41C23.92 29.41 23.9 29.48 23.9 29.53C23.9 29.58 23.93 29.64 24 29.64C24.08 29.64 24.1 29.59 24.1 29.52C24.1 29.47 24.06 29.42 24 29.42V29.41ZM24 29.97C23.92 29.97 23.9 30.04 23.9 30.08C23.9 30.14 23.93 30.2 24 30.19C24.08 30.2 24.1 30.14 24.1 30.08C24.1 30.03 24.06 29.97 24 29.97ZM24 30.52C23.92 30.52 23.9 30.59 23.9 30.64C23.9 30.69 23.93 30.75 24 30.74C24.08 30.75 24.1 30.69 24.1 30.64C24.1 30.58 24.06 30.52 24 30.52ZM24 31.08C23.92 31.08 23.9 31.15 23.9 31.19C23.9 31.24 23.93 31.3 24 31.3C24.08 31.3 24.1 31.25 24.1 31.19C24.1 31.13 24.06 31.08 24 31.08ZM24 31.63C23.92 31.63 23.9 31.7 23.9 31.75C23.9 31.8 23.93 31.85 24 31.85C24.08 31.86 24.1 31.8 24.1 31.74C24.1 31.69 24.06 31.64 24 31.63V31.63ZM24 32.18C23.92 32.18 23.9 32.25 23.9 32.3C23.9 32.35 23.93 32.41 24 32.4C24.08 32.42 24.1 32.35 24.1 32.3C24.1 32.24 24.06 32.19 24 32.18ZM24 32.74C23.92 32.74 23.9 32.81 23.9 32.85C23.9 32.91 23.93 32.97 24 32.96C24.08 32.96 24.1 32.91 24.1 32.85C24.1 32.79 24.06 32.74 24 32.74ZM24 33.29C23.92 33.29 23.9 33.36 23.9 33.41C23.9 33.46 23.93 33.52 24 33.51C24.08 33.52 24.1 33.46 24.1 33.41C24.1 33.35 24.06 33.29 24 33.29ZM24 33.84C23.92 33.84 23.9 33.91 23.9 33.96C23.9 34.01 23.93 34.07 24 34.07C24.08 34.07 24.1 34.02 24.1 33.95C24.1 33.9 24.06 33.85 24 33.85V33.84ZM24 34.4C23.92 34.4 23.9 34.47 23.9 34.51C23.9 34.57 23.93 34.63 24 34.62C24.08 34.63 24.1 34.57 24.1 34.51C24.1 34.46 24.06 34.4 24 34.4ZM24 34.95C23.92 34.95 23.9 35.02 23.9 35.07C23.9 35.12 23.93 35.18 24 35.17C24.08 35.18 24.1 35.12 24.1 35.07C24.1 35.01 24.06 34.95 24 34.95ZM24 35.51C23.92 35.51 23.9 35.58 23.9 35.62C23.9 35.67 23.93 35.74 24 35.73C24.08 35.73 24.1 35.68 24.1 35.62C24.1 35.56 24.06 35.51 24 35.51ZM24 36.06C23.92 36.06 23.9 36.13 23.9 36.18C23.9 36.23 23.93 36.28 24 36.28C24.08 36.29 24.1 36.23 24.1 36.17C24.1 36.12 24.06 36.07 24 36.06ZM24 36.61C23.92 36.61 23.9 36.68 23.9 36.73C23.9 36.78 23.93 36.84 24 36.83C24.08 36.85 24.1 36.78 24.1 36.73C24.1 36.67 24.06 36.62 24 36.61ZM24 37.17C23.92 37.17 23.9 37.24 23.9 37.28C23.9 37.34 23.93 37.4 24 37.39C24.08 37.39 24.1 37.34 24.1 37.28C24.1 37.22 24.06 37.17 24 37.17ZM24 37.72C23.92 37.72 23.9 37.79 23.9 37.84C23.9 37.89 23.93 37.95 24 37.94C24.08 37.95 24.1 37.89 24.1 37.84C24.1 37.78 24.06 37.72 24 37.72ZM24 38.27C23.92 38.27 23.9 38.34 23.9 38.39C23.9 38.44 23.93 38.5 24 38.5C24.08 38.5 24.1 38.45 24.1 38.38C24.1 38.33 24.06 38.28 24 38.28V38.27ZM24 38.83C23.92 38.83 23.9 38.9 23.9 38.94C23.9 39 23.93 39.06 24 39.05C24.08 39.06 24.1 39 24.1 38.94C24.1 38.89 24.06 38.83 24 38.83ZM24 39.38C23.92 39.38 23.9 39.45 23.9 39.5C23.9 39.55 23.93 39.61 24 39.6C24.08 39.61 24.1 39.55 24.1 39.5C24.1 39.44 24.06 39.38 24 39.38ZM24 39.94C23.92 39.94 23.9 40.01 23.9 40.05C23.9 40.1 23.93 40.17 24 40.16C24.08 40.16 24.1 40.11 24.1 40.05C24.1 39.99 24.06 39.94 24 39.94ZM24 40.49C23.92 40.49 23.9 40.56 23.9 40.61C23.9 40.66 23.93 40.71 24 40.71C24.08 40.72 24.1 40.66 24.1 40.6C24.1 40.55 24.06 40.5 24 40.49ZM24 41.04C23.92 41.04 23.9 41.11 23.9 41.16C23.9 41.21 23.93 41.27 24 41.26C24.08 41.28 24.1 41.21 24.1 41.16C24.1 41.1 24.06 41.05 24 41.04ZM24 41.6C23.92 41.6 23.9 41.67 23.9 41.71C23.9 41.77 23.93 41.83 24 41.82C24.08 41.82 24.1 41.77 24.1 41.71C24.1 41.65 24.06 41.6 24 41.6ZM24 42.15C23.92 42.15 23.9 42.22 23.9 42.27C23.9 42.32 23.93 42.38 24 42.37C24.08 42.38 24.1 42.32 24.1 42.27C24.1 42.21 24.06 42.15 24 42.15ZM24 42.7C23.92 42.7 23.9 42.77 23.9 42.82C23.9 42.87 23.93 42.93 24 42.93C24.08 42.93 24.1 42.88 24.1 42.81C24.1 42.76 24.06 42.71 24 42.71V42.7ZM29.08 5.05C29.02 5.05 28.98 5.12 28.98 5.17C28.98 5.22 29.02 5.27 29.08 5.27C29.18 5.28 29.2 5.22 29.2 5.16C29.2 5.11 29.15 5.06 29.08 5.05V5.05ZM29.08 5.6C29.02 5.6 28.98 5.67 28.98 5.72C28.98 5.77 29.02 5.83 29.08 5.82C29.18 5.83 29.2 5.77 29.2 5.72C29.2 5.66 29.15 5.61 29.08 5.6ZM29.08 6.16C29.02 6.16 28.98 6.23 28.98 6.27C28.98 6.33 29.02 6.39 29.08 6.38C29.18 6.38 29.2 6.33 29.2 6.27C29.2 6.21 29.15 6.16 29.08 6.16ZM29.08 6.71C29.02 6.71 28.98 6.78 28.98 6.83C28.98 6.88 29.02 6.94 29.08 6.93C29.18 6.94 29.2 6.88 29.2 6.83C29.2 6.77 29.15 6.71 29.08 6.71ZM29.08 7.26C29.02 7.26 28.98 7.33 28.98 7.38C28.98 7.43 29.02 7.49 29.08 7.48C29.18 7.5 29.2 7.43 29.2 7.38C29.2 7.32 29.15 7.27 29.08 7.26ZM29.08 7.82C29.02 7.82 28.98 7.89 28.98 7.93C28.98 7.99 29.02 8.05 29.08 8.04C29.18 8.05 29.2 7.99 29.2 7.93C29.2 7.88 29.15 7.82 29.08 7.82ZM29.08 8.37C29.02 8.37 28.98 8.44 28.98 8.49C28.98 8.54 29.02 8.6 29.08 8.59C29.18 8.6 29.2 8.54 29.2 8.49C29.2 8.43 29.15 8.37 29.08 8.37ZM29.08 8.93C29.02 8.93 28.98 8.99 28.98 9.04C28.98 9.1 29.02 9.16 29.08 9.15C29.18 9.15 29.2 9.1 29.2 9.04C29.2 8.98 29.15 8.93 29.08 8.93ZM29.08 9.48C29.02 9.48 28.98 9.55 28.98 9.6C28.98 9.65 29.02 9.7 29.08 9.7C29.18 9.71 29.2 9.65 29.2 9.59C29.2 9.54 29.15 9.49 29.08 9.48ZM29.08 10.03C29.02 10.03 28.98 10.1 28.98 10.15C28.98 10.2 29.02 10.26 29.08 10.25C29.18 10.27 29.2 10.2 29.2 10.15C29.2 10.09 29.15 10.03 29.08 10.03ZM29.08 10.59C29.02 10.59 28.98 10.65 28.98 10.7C28.98 10.76 29.02 10.82 29.08 10.81C29.18 10.81 29.2 10.76 29.2 10.7C29.2 10.64 29.15 10.59 29.08 10.59ZM29.08 11.14C29.02 11.14 28.98 11.21 28.98 11.26C28.98 11.31 29.02 11.37 29.08 11.36C29.18 11.37 29.2 11.31 29.2 11.26C29.2 11.2 29.15 11.14 29.08 11.14ZM29.08 11.69C29.02 11.69 28.98 11.76 28.98 11.81C28.98 11.86 29.02 11.92 29.08 11.91C29.18 11.93 29.2 11.86 29.2 11.81C29.2 11.75 29.15 11.7 29.08 11.69ZM29.08 12.25C29.02 12.25 28.98 12.32 28.98 12.36C28.98 12.42 29.02 12.48 29.08 12.47C29.18 12.48 29.2 12.42 29.2 12.36C29.2 12.31 29.15 12.25 29.08 12.25ZM29.08 12.8C29.02 12.8 28.98 12.87 28.98 12.92C28.98 12.97 29.02 13.03 29.08 13.02C29.18 13.03 29.2 12.97 29.2 12.92C29.2 12.86 29.15 12.8 29.08 12.8ZM29.08 13.36C29.02 13.36 28.98 13.42 28.98 13.47C28.98 13.52 29.02 13.59 29.08 13.58C29.18 13.58 29.2 13.53 29.2 13.47C29.2 13.41 29.15 13.36 29.08 13.36ZM29.08 13.91C29.02 13.91 28.98 13.98 28.98 14.03C28.98 14.08 29.02 14.13 29.08 14.13C29.18 14.14 29.2 14.08 29.2 14.02C29.2 13.97 29.15 13.92 29.08 13.91ZM29.08 14.46C29.02 14.46 28.98 14.53 28.98 14.58C28.98 14.63 29.02 14.69 29.08 14.68C29.18 14.7 29.2 14.63 29.2 14.58C29.2 14.52 29.15 14.46 29.08 14.46ZM29.08 15.02C29.02 15.02 28.98 15.09 28.98 15.13C28.98 15.19 29.02 15.25 29.08 15.24C29.18 15.24 29.2 15.19 29.2 15.13C29.2 15.07 29.15 15.02 29.08 15.02ZM29.08 15.57C29.02 15.57 28.98 15.64 28.98 15.69C28.98 15.74 29.02 15.8 29.08 15.79C29.18 15.8 29.2 15.74 29.2 15.69C29.2 15.63 29.15 15.57 29.08 15.57ZM29.08 16.12C29.02 16.12 28.98 16.19 28.98 16.24C28.98 16.29 29.02 16.35 29.08 16.34C29.18 16.36 29.2 16.29 29.2 16.24C29.2 16.18 29.15 16.13 29.08 16.12ZM29.08 16.68C29.02 16.68 28.98 16.75 28.98 16.79C28.98 16.85 29.02 16.91 29.08 16.9C29.18 16.91 29.2 16.85 29.2 16.79C29.2 16.74 29.15 16.68 29.08 16.68ZM29.08 17.23C29.02 17.23 28.98 17.3 28.98 17.35C28.98 17.4 29.02 17.46 29.08 17.45C29.18 17.46 29.2 17.4 29.2 17.35C29.2 17.29 29.15 17.23 29.08 17.23ZM29.08 17.79C29.02 17.79 28.98 17.85 28.98 17.9C28.98 17.95 29.02 18.02 29.08 18.01C29.18 18.01 29.2 17.96 29.2 17.9C29.2 17.84 29.15 17.79 29.08 17.79ZM29.08 18.34C29.02 18.34 28.98 18.41 28.98 18.45C28.98 18.51 29.02 18.57 29.08 18.56C29.18 18.57 29.2 18.51 29.2 18.45C29.2 18.4 29.15 18.35 29.08 18.34ZM29.08 18.89C29.02 18.89 28.98 18.96 28.98 19.01C28.98 19.06 29.02 19.12 29.08 19.11C29.18 19.13 29.2 19.06 29.2 19.01C29.2 18.95 29.15 18.89 29.08 18.89ZM29.08 19.45C29.02 19.45 28.98 19.52 28.98 19.56C28.98 19.62 29.02 19.68 29.08 19.67C29.18 19.67 29.2 19.62 29.2 19.56C29.2 19.5 29.15 19.45 29.08 19.45ZM29.08 20C29.02 20 28.98 20.07 28.98 20.12C28.98 20.17 29.02 20.23 29.08 20.22C29.18 20.23 29.2 20.17 29.2 20.12C29.2 20.06 29.15 20 29.08 20ZM29.08 20.55C29.02 20.55 28.98 20.62 28.98 20.67C28.98 20.72 29.02 20.78 29.08 20.77C29.18 20.79 29.2 20.72 29.2 20.67C29.2 20.61 29.15 20.56 29.08 20.55ZM29.08 21.11C29.02 21.11 28.98 21.18 28.98 21.22C28.98 21.28 29.02 21.34 29.08 21.33C29.18 21.34 29.2 21.28 29.2 21.22C29.2 21.17 29.15 21.11 29.08 21.11ZM29.08 21.66C29.02 21.66 28.98 21.73 28.98 21.78C28.98 21.83 29.02 21.89 29.08 21.88C29.18 21.89 29.2 21.83 29.2 21.78C29.2 21.72 29.15 21.66 29.08 21.66ZM29.08 22.22C29.02 22.22 28.98 22.28 28.98 22.33C28.98 22.39 29.02 22.45 29.08 22.44C29.18 22.44 29.2 22.39 29.2 22.33C29.2 22.27 29.15 22.22 29.08 22.22ZM29.08 22.77C29.02 22.77 28.98 22.84 28.98 22.89C28.98 22.94 29.02 22.99 29.08 22.99C29.18 23 29.2 22.94 29.2 22.88C29.2 22.83 29.15 22.78 29.08 22.77V22.77ZM29.08 23.32C29.02 23.32 28.98 23.39 28.98 23.44C28.98 23.49 29.02 23.55 29.08 23.54C29.18 23.56 29.2 23.49 29.2 23.44C29.2 23.38 29.15 23.32 29.08 23.32ZM29.08 23.88C29.02 23.88 28.98 23.95 28.98 23.99C28.98 24.05 29.02 24.11 29.08 24.1C29.18 24.1 29.2 24.05 29.2 23.99C29.2 23.93 29.15 23.88 29.08 23.88ZM29.08 24.43C29.02 24.43 28.98 24.5 28.98 24.55C28.98 24.6 29.02 24.66 29.08 24.65C29.18 24.66 29.2 24.6 29.2 24.55C29.2 24.49 29.15 24.43 29.08 24.43ZM29.08 24.98C29.02 24.98 28.98 25.05 28.98 25.1C28.98 25.15 29.02 25.21 29.08 25.21C29.18 25.21 29.2 25.16 29.2 25.09C29.2 25.04 29.15 24.99 29.08 24.99V24.98ZM29.08 25.54C29.02 25.54 28.98 25.61 28.98 25.65C28.98 25.71 29.02 25.77 29.08 25.76C29.18 25.77 29.2 25.71 29.2 25.65C29.2 25.6 29.15 25.54 29.08 25.54ZM29.08 26.09C29.02 26.09 28.98 26.16 28.98 26.21C28.98 26.26 29.02 26.32 29.08 26.31C29.18 26.32 29.2 26.26 29.2 26.21C29.2 26.15 29.15 26.09 29.08 26.09ZM29.08 26.65C29.02 26.65 28.98 26.72 28.98 26.76C28.98 26.81 29.02 26.87 29.08 26.87C29.18 26.87 29.2 26.82 29.2 26.76C29.2 26.7 29.15 26.65 29.08 26.65ZM29.08 27.2C29.02 27.2 28.98 27.27 28.98 27.32C28.98 27.37 29.02 27.42 29.08 27.42C29.18 27.43 29.2 27.37 29.2 27.31C29.2 27.26 29.15 27.21 29.08 27.2V27.2ZM29.08 27.75C29.02 27.75 28.98 27.82 28.98 27.87C28.98 27.92 29.02 27.98 29.08 27.97C29.18 27.99 29.2 27.92 29.2 27.87C29.2 27.81 29.15 27.75 29.08 27.75ZM29.08 28.31C29.02 28.31 28.98 28.38 28.98 28.42C28.98 28.48 29.02 28.54 29.08 28.53C29.18 28.53 29.2 28.48 29.2 28.42C29.2 28.36 29.15 28.31 29.08 28.31ZM29.08 28.86C29.02 28.86 28.98 28.93 28.98 28.98C28.98 29.03 29.02 29.09 29.08 29.08C29.18 29.09 29.2 29.03 29.2 28.98C29.2 28.92 29.15 28.86 29.08 28.86ZM29.08 29.41C29.02 29.41 28.98 29.48 28.98 29.53C28.98 29.58 29.02 29.64 29.08 29.64C29.18 29.64 29.2 29.59 29.2 29.52C29.2 29.47 29.15 29.42 29.08 29.42V29.41ZM29.08 29.97C29.02 29.97 28.98 30.04 28.98 30.08C28.98 30.14 29.02 30.2 29.08 30.19C29.18 30.2 29.2 30.14 29.2 30.08C29.2 30.03 29.15 29.97 29.08 29.97ZM29.08 30.52C29.02 30.52 28.98 30.59 28.98 30.64C28.98 30.69 29.02 30.75 29.08 30.74C29.18 30.75 29.2 30.69 29.2 30.64C29.2 30.58 29.15 30.52 29.08 30.52ZM29.08 31.08C29.02 31.08 28.98 31.15 28.98 31.19C28.98 31.24 29.02 31.3 29.08 31.3C29.18 31.3 29.2 31.25 29.2 31.19C29.2 31.13 29.15 31.08 29.08 31.08ZM29.08 31.63C29.02 31.63 28.98 31.7 28.98 31.75C28.98 31.8 29.02 31.85 29.08 31.85C29.18 31.86 29.2 31.8 29.2 31.74C29.2 31.69 29.15 31.64 29.08 31.63V31.63ZM29.08 32.18C29.02 32.18 28.98 32.25 28.98 32.3C28.98 32.35 29.02 32.41 29.08 32.4C29.18 32.42 29.2 32.35 29.2 32.3C29.2 32.24 29.15 32.19 29.08 32.18ZM29.08 32.74C29.02 32.74 28.98 32.81 28.98 32.85C28.98 32.91 29.02 32.97 29.08 32.96C29.18 32.96 29.2 32.91 29.2 32.85C29.2 32.79 29.15 32.74 29.08 32.74ZM29.08 33.29C29.02 33.29 28.98 33.36 28.98 33.41C28.98 33.46 29.02 33.52 29.08 33.51C29.18 33.52 29.2 33.46 29.2 33.41C29.2 33.35 29.15 33.29 29.08 33.29ZM29.08 33.84C29.02 33.84 28.98 33.91 28.98 33.96C28.98 34.01 29.02 34.07 29.08 34.07C29.18 34.07 29.2 34.02 29.2 33.95C29.2 33.9 29.15 33.85 29.08 33.85V33.84ZM29.08 34.4C29.02 34.4 28.98 34.47 28.98 34.51C28.98 34.57 29.02 34.63 29.08 34.62C29.18 34.63 29.2 34.57 29.2 34.51C29.2 34.46 29.15 34.4 29.08 34.4ZM29.08 34.95C29.02 34.95 28.98 35.02 28.98 35.07C28.98 35.12 29.02 35.18 29.08 35.17C29.18 35.18 29.2 35.12 29.2 35.07C29.2 35.01 29.15 34.95 29.08 34.95ZM29.08 35.51C29.02 35.51 28.98 35.58 28.98 35.62C28.98 35.67 29.02 35.74 29.08 35.73C29.18 35.73 29.2 35.68 29.2 35.62C29.2 35.56 29.15 35.51 29.08 35.51ZM29.08 36.06C29.02 36.06 28.98 36.13 28.98 36.18C28.98 36.23 29.02 36.28 29.08 36.28C29.18 36.29 29.2 36.23 29.2 36.17C29.2 36.12 29.15 36.07 29.08 36.06ZM29.08 36.61C29.02 36.61 28.98 36.68 28.98 36.73C28.98 36.78 29.02 36.84 29.08 36.83C29.18 36.85 29.2 36.78 29.2 36.73C29.2 36.67 29.15 36.62 29.08 36.61ZM29.08 37.17C29.02 37.17 28.98 37.24 28.98 37.28C28.98 37.34 29.02 37.4 29.08 37.39C29.18 37.39 29.2 37.34 29.2 37.28C29.2 37.22 29.15 37.17 29.08 37.17ZM29.08 37.72C29.02 37.72 28.98 37.79 28.98 37.84C28.98 37.89 29.02 37.95 29.08 37.94C29.18 37.95 29.2 37.89 29.2 37.84C29.2 37.78 29.15 37.72 29.08 37.72ZM29.08 38.27C29.02 38.27 28.98 38.34 28.98 38.39C28.98 38.44 29.02 38.5 29.08 38.5C29.18 38.5 29.2 38.45 29.2 38.38C29.2 38.33 29.15 38.28 29.08 38.28V38.27ZM29.08 38.83C29.02 38.83 28.98 38.9 28.98 38.94C28.98 39 29.02 39.06 29.08 39.05C29.18 39.06 29.2 39 29.2 38.94C29.2 38.89 29.15 38.83 29.08 38.83ZM29.08 39.38C29.02 39.38 28.98 39.45 28.98 39.5C28.98 39.55 29.02 39.61 29.08 39.6C29.18 39.61 29.2 39.55 29.2 39.5C29.2 39.44 29.15 39.38 29.08 39.38ZM29.08 39.94C29.02 39.94 28.98 40.01 28.98 40.05C28.98 40.1 29.02 40.17 29.08 40.16C29.18 40.16 29.2 40.11 29.2 40.05C29.2 39.99 29.15 39.94 29.08 39.94ZM29.08 40.49C29.02 40.49 28.98 40.56 28.98 40.61C28.98 40.66 29.02 40.71 29.08 40.71C29.18 40.72 29.2 40.66 29.2 40.6C29.2 40.55 29.15 40.5 29.08 40.49ZM29.08 41.04C29.02 41.04 28.98 41.11 28.98 41.16C28.98 41.21 29.02 41.27 29.08 41.26C29.18 41.28 29.2 41.21 29.2 41.16C29.2 41.1 29.15 41.05 29.08 41.04ZM29.08 41.6C29.02 41.6 28.98 41.67 28.98 41.71C28.98 41.77 29.02 41.83 29.08 41.82C29.18 41.82 29.2 41.77 29.2 41.71C29.2 41.65 29.15 41.6 29.08 41.6ZM29.08 42.15C29.02 42.15 28.98 42.22 28.98 42.27C28.98 42.32 29.02 42.38 29.08 42.37C29.18 42.38 29.2 42.32 29.2 42.27C29.2 42.21 29.15 42.15 29.08 42.15ZM29.08 42.7C29.02 42.7 28.98 42.77 28.98 42.82C28.98 42.87 29.02 42.93 29.08 42.93C29.18 42.93 29.2 42.88 29.2 42.81C29.2 42.76 29.15 42.71 29.08 42.71V42.7ZM16.66 8.42L14.86 10.27C14.47 10.68 14.35 11.23 14.75 11.67C15.19 12.09 15.74 12.03 16.21 11.59L18.02 9.73C18.38 9.3 18.38 8.75 18.02 8.41C17.68 8.05 17.03 8.06 16.66 8.42ZM21.69 8.42L19.89 10.27C19.49 10.68 19.37 11.23 19.78 11.67C20.22 12.09 20.76 12.03 21.24 11.59L23.04 9.73C23.41 9.3 23.41 8.75 23.04 8.41C22.7 8.05 22.06 8.06 21.69 8.42ZM26.76 8.42L24.96 10.27C24.57 10.68 24.45 11.23 24.86 11.67C25.3 12.09 25.84 12.03 26.31 11.59L28.12 9.73C28.48 9.3 28.48 8.75 28.12 8.41C27.78 8.05 27.13 8.06 26.76 8.42V8.42ZM31.84 8.42L30.04 10.27C29.64 10.68 29.52 11.23 29.93 11.67C30.37 12.09 30.91 12.03 31.39 11.59L33.19 9.73C33.56 9.3 33.56 8.75 33.19 8.41C32.85 8.05 32.21 8.06 31.84 8.42ZM16.68 12.39L14.88 14.24C14.48 14.65 14.36 15.21 14.77 15.64C15.21 16.06 15.76 16.01 16.23 15.56L18.03 13.7C18.4 13.27 18.4 12.73 18.03 12.39C17.69 12.02 17.05 12.03 16.68 12.39ZM21.7 12.39L19.9 14.24C19.51 14.65 19.39 15.21 19.8 15.64C20.24 16.06 20.78 16.01 21.25 15.56L23.06 13.7C23.43 13.27 23.42 12.73 23.06 12.39C22.72 12.02 22.08 12.03 21.7 12.39V12.39ZM26.78 12.39L24.98 14.24C24.58 14.65 24.46 15.21 24.87 15.64C25.31 16.06 25.86 16.01 26.33 15.56L28.13 13.7C28.5 13.27 28.5 12.73 28.13 12.39C27.79 12.02 27.15 12.03 26.78 12.39ZM31.85 12.39L30.05 14.24C29.66 14.65 29.54 15.21 29.95 15.64C30.39 16.06 30.93 16.01 31.4 15.56L33.21 13.7C33.58 13.27 33.57 12.73 33.21 12.39C32.87 12.02 32.23 12.03 31.85 12.39ZM16.7 16.37L14.9 18.22C14.51 18.62 14.39 19.18 14.8 19.61C15.24 20.03 15.78 19.98 16.25 19.54L18.06 17.68C18.42 17.24 18.42 16.7 18.06 16.36C17.72 16 17.08 16.01 16.7 16.36V16.37ZM21.73 16.37L19.93 18.22C19.53 18.62 19.41 19.18 19.82 19.61C20.26 20.03 20.81 19.98 21.28 19.54L23.08 17.68C23.45 17.24 23.45 16.7 23.08 16.36C22.74 16 22.1 16.01 21.73 16.36V16.37ZM26.8 16.37L25 18.22C24.61 18.62 24.49 19.18 24.9 19.61C25.34 20.03 25.88 19.98 26.35 19.54L28.16 17.68C28.53 17.24 28.52 16.7 28.16 16.36C27.82 16 27.18 16.01 26.8 16.36V16.37ZM31.88 16.37L30.08 18.22C29.68 18.62 29.56 19.18 29.97 19.61C30.41 20.03 30.96 19.98 31.43 19.54L33.23 17.68C33.6 17.24 33.6 16.7 33.23 16.36C32.89 16 32.25 16.01 31.88 16.36V16.37ZM16.7 20.34L14.9 22.19C14.5 22.59 14.38 23.15 14.79 23.59C15.23 24 15.78 23.95 16.25 23.51L18.05 21.65C18.42 21.22 18.42 20.67 18.05 20.33C17.71 19.97 17.07 19.98 16.7 20.33V20.34ZM21.72 20.34L19.92 22.19C19.53 22.59 19.41 23.15 19.82 23.59C20.26 24 20.8 23.95 21.27 23.51L23.08 21.65C23.45 21.22 23.44 20.67 23.08 20.33C22.74 19.97 22.1 19.98 21.72 20.33V20.34ZM26.8 20.34L25 22.19C24.6 22.59 24.48 23.15 24.89 23.59C25.33 24 25.88 23.95 26.35 23.51L28.15 21.65C28.52 21.22 28.52 20.67 28.15 20.33C27.81 19.97 27.17 19.98 26.8 20.33V20.34ZM31.87 20.34L30.07 22.19C29.68 22.59 29.56 23.15 29.97 23.59C30.41 24 30.95 23.95 31.42 23.51L33.23 21.65C33.6 21.22 33.59 20.67 33.23 20.33C32.89 19.97 32.25 19.98 31.87 20.33V20.34ZM16.72 24.3L14.92 26.15C14.53 26.56 14.41 27.12 14.82 27.55C15.26 27.97 15.8 27.91 16.27 27.47L18.08 25.61C18.45 25.18 18.45 24.63 18.08 24.29C17.74 23.93 17.1 23.94 16.72 24.3V24.3ZM21.75 24.3L19.95 26.15C19.56 26.56 19.43 27.12 19.84 27.55C20.28 27.97 20.83 27.91 21.3 27.47L23.11 25.61C23.47 25.18 23.47 24.63 23.11 24.29C22.77 23.93 22.12 23.94 21.75 24.3V24.3ZM26.82 24.3L25.02 26.15C24.64 26.56 24.51 27.12 24.92 27.55C25.36 27.97 25.9 27.91 26.37 27.47L28.18 25.61C28.55 25.18 28.55 24.63 28.18 24.29C27.84 23.93 27.2 23.94 26.82 24.3V24.3ZM31.9 24.3L30.1 26.15C29.71 26.56 29.58 27.12 29.99 27.55C30.43 27.97 30.98 27.91 31.45 27.47L33.26 25.61C33.62 25.18 33.62 24.63 33.26 24.29C32.92 23.93 32.27 23.94 31.9 24.3V24.3ZM16.74 28.27L14.94 30.12C14.55 30.53 14.43 31.09 14.83 31.52C15.27 31.94 15.82 31.89 16.29 31.44L18.1 29.58C18.46 29.15 18.46 28.61 18.1 28.27C17.75 27.91 17.11 27.91 16.74 28.27V28.27ZM21.77 28.27L19.97 30.12C19.57 30.53 19.45 31.09 19.86 31.52C20.3 31.94 20.84 31.89 21.32 31.44L23.12 29.58C23.49 29.15 23.49 28.61 23.12 28.27C22.78 27.91 22.14 27.91 21.77 28.27V28.27ZM26.84 28.27L25.04 30.12C24.65 30.53 24.53 31.09 24.94 31.52C25.37 31.94 25.92 31.89 26.39 31.44L28.2 29.58C28.56 29.15 28.56 28.61 28.2 28.27C27.86 27.91 27.21 27.91 26.84 28.27V28.27ZM31.92 28.27L30.12 30.12C29.72 30.53 29.6 31.09 30.01 31.52C30.45 31.94 30.99 31.89 31.47 31.44L33.27 29.58C33.64 29.15 33.64 28.61 33.27 28.27C32.93 27.91 32.29 27.91 31.92 28.27V28.27ZM16.76 32.25L14.96 34.1C14.56 34.5 14.44 35.06 14.85 35.49C15.29 35.91 15.84 35.86 16.31 35.42L18.11 33.56C18.48 33.12 18.48 32.58 18.11 32.24C17.77 31.88 17.13 31.89 16.76 32.24V32.25ZM21.78 32.25L19.98 34.1C19.59 34.5 19.47 35.06 19.88 35.49C20.32 35.91 20.86 35.86 21.33 35.42L23.14 33.56C23.5 33.12 23.5 32.58 23.14 32.24C22.8 31.88 22.16 31.89 21.78 32.24V32.25ZM26.86 32.25L25.06 34.1C24.66 34.5 24.54 35.06 24.95 35.49C25.39 35.91 25.94 35.86 26.41 35.42L28.21 33.56C28.58 33.12 28.58 32.58 28.21 32.24C27.87 31.88 27.23 31.89 26.86 32.24V32.25ZM31.93 32.25L30.13 34.1C29.74 34.5 29.62 35.06 30.03 35.49C30.47 35.91 31.01 35.86 31.48 35.42L33.29 33.56C33.66 33.12 33.65 32.58 33.29 32.24C32.95 31.88 32.31 31.89 31.93 32.24V32.25ZM16.8 36.45L15 38.3C14.6 38.7 14.48 39.26 14.88 39.69C15.33 40.11 15.88 40.06 16.35 39.62L18.15 37.76C18.52 37.32 18.52 36.78 18.15 36.44C17.81 36.08 17.17 36.09 16.79 36.44L16.8 36.45ZM21.82 36.45L20.02 38.3C19.63 38.7 19.51 39.26 19.92 39.69C20.35 40.11 20.9 40.06 21.37 39.62L23.18 37.76C23.54 37.32 23.54 36.78 23.18 36.44C22.84 36.08 22.19 36.09 21.82 36.44V36.45ZM26.9 36.45L25.1 38.3C24.7 38.7 24.58 39.26 24.99 39.69C25.43 40.11 25.97 40.06 26.45 39.62L28.25 37.76C28.62 37.32 28.62 36.78 28.25 36.44C27.91 36.08 27.27 36.09 26.9 36.44V36.45ZM31.97 36.45L30.17 38.3C29.78 38.7 29.66 39.26 30.07 39.69C30.51 40.11 31.05 40.06 31.52 39.62L33.33 37.76C33.69 37.32 33.69 36.78 33.33 36.44C32.99 36.08 32.34 36.09 31.97 36.44V36.45Z" fill="#333333"/>
</svg>
