<svg width="48" height="48" viewBox="0 0 48 48" fill="none" xmlns="http://www.w3.org/2000/svg">
<path fill-rule="evenodd" clip-rule="evenodd" d="M0 0.0490723V48.0491H48V0.0490723H0ZM14.146 4.04907H33.851C34.721 4.04907 35.419 4.74807 35.419 5.61707V42.4781C35.419 43.3481 34.721 44.0481 33.851 44.0481H14.146C13.276 44.0481 12.578 43.3481 12.578 42.4781V5.61807C12.578 4.74807 13.277 4.04807 14.146 4.04807V4.04907ZM14.956 9.39507C14.7426 9.38974 14.5303 9.42716 14.3315 9.50515C14.1328 9.58313 13.9517 9.70009 13.7989 9.84915C13.646 9.9982 13.5246 10.1763 13.4417 10.3731C13.3587 10.5698 13.316 10.7811 13.316 10.9946C13.316 11.2081 13.3587 11.4194 13.4417 11.6161C13.5246 11.8128 13.646 11.9909 13.7989 12.14C13.9517 12.2891 14.1328 12.406 14.3315 12.484C14.5303 12.562 14.7426 12.5994 14.956 12.5941C15.3803 12.5941 15.7873 12.4255 16.0874 12.1254C16.3874 11.8254 16.556 11.4184 16.556 10.9941C16.556 10.5697 16.3874 10.1628 16.0874 9.8627C15.7873 9.56264 15.3803 9.39407 14.956 9.39407V9.39507ZM18.58 9.39507C18.3653 9.38748 18.1512 9.42321 17.9506 9.50015C17.7499 9.57709 17.5668 9.69365 17.4122 9.84288C17.2576 9.99211 17.1347 10.171 17.0507 10.3687C16.9667 10.5665 16.9234 10.7792 16.9234 10.9941C16.9234 11.2089 16.9667 11.4216 17.0507 11.6194C17.1347 11.8172 17.2576 11.996 17.4122 12.1453C17.5668 12.2945 17.7499 12.4111 17.9506 12.488C18.1512 12.5649 18.3653 12.6007 18.58 12.5931C18.9943 12.5784 19.3867 12.4035 19.6746 12.1053C19.9625 11.807 20.1234 11.4086 20.1234 10.9941C20.1234 10.5795 19.9625 10.1811 19.6746 9.88288C19.3867 9.58461 18.9943 9.40973 18.58 9.39507ZM22.205 9.39507C21.9903 9.38748 21.7762 9.42321 21.5756 9.50015C21.3749 9.57709 21.1918 9.69365 21.0372 9.84288C20.8826 9.99211 20.7597 10.171 20.6757 10.3687C20.5917 10.5665 20.5484 10.7792 20.5484 10.9941C20.5484 11.2089 20.5917 11.4216 20.6757 11.6194C20.7597 11.8172 20.8826 11.996 21.0372 12.1453C21.1918 12.2945 21.3749 12.4111 21.5756 12.488C21.7762 12.5649 21.9903 12.6007 22.205 12.5931C22.6193 12.5784 23.0117 12.4035 23.2996 12.1053C23.5875 11.807 23.7484 11.4086 23.7484 10.9941C23.7484 10.5795 23.5875 10.1811 23.2996 9.88288C23.0117 9.58461 22.6193 9.40973 22.205 9.39507ZM25.828 9.39507C25.6146 9.38974 25.4023 9.42716 25.2035 9.50515C25.0048 9.58313 24.8237 9.70009 24.6709 9.84915C24.518 9.9982 24.3966 10.1763 24.3137 10.3731C24.2307 10.5698 24.188 10.7811 24.188 10.9946C24.188 11.2081 24.2307 11.4194 24.3137 11.6161C24.3966 11.8128 24.518 11.9909 24.6709 12.14C24.8237 12.2891 25.0048 12.406 25.2035 12.484C25.4023 12.562 25.6146 12.5994 25.828 12.5941C26.2523 12.5941 26.6593 12.4255 26.9594 12.1254C27.2594 11.8254 27.428 11.4184 27.428 10.9941C27.428 10.5697 27.2594 10.1628 26.9594 9.8627C26.6593 9.56264 26.2523 9.39407 25.828 9.39407V9.39507ZM29.451 9.39507C29.2363 9.38748 29.0222 9.42321 28.8216 9.50015C28.6209 9.57709 28.4378 9.69365 28.2832 9.84288C28.1286 9.99211 28.0057 10.171 27.9217 10.3687C27.8377 10.5665 27.7944 10.7792 27.7944 10.9941C27.7944 11.2089 27.8377 11.4216 27.9217 11.6194C28.0057 11.8172 28.1286 11.996 28.2832 12.1453C28.4378 12.2945 28.6209 12.4111 28.8216 12.488C29.0222 12.5649 29.2363 12.6007 29.451 12.5931C29.8653 12.5784 30.2577 12.4035 30.5456 12.1053C30.8335 11.807 30.9944 11.4086 30.9944 10.9941C30.9944 10.5795 30.8335 10.1811 30.5456 9.88288C30.2577 9.58461 29.8653 9.40973 29.451 9.39507ZM33.076 9.39507C32.8613 9.38748 32.6472 9.42321 32.4466 9.50015C32.2459 9.57709 32.0629 9.69365 31.9082 9.84288C31.7536 9.99211 31.6307 10.171 31.5467 10.3687C31.4627 10.5665 31.4194 10.7792 31.4194 10.9941C31.4194 11.2089 31.4627 11.4216 31.5467 11.6194C31.6307 11.8172 31.7536 11.996 31.9082 12.1453C32.0629 12.2945 32.2459 12.4111 32.4466 12.488C32.6472 12.5649 32.8613 12.6007 33.076 12.5931C33.4903 12.5784 33.8827 12.4035 34.1706 12.1053C34.4585 11.807 34.6194 11.4086 34.6194 10.9941C34.6194 10.5795 34.4585 10.1811 34.1706 9.88288C33.8827 9.58461 33.4903 9.40973 33.076 9.39507ZM13.596 14.9351C13.5811 14.9351 13.5664 14.938 13.5527 14.9438C13.539 14.9495 13.5265 14.958 13.5161 14.9686C13.5057 14.9792 13.4975 14.9918 13.4919 15.0056C13.4864 15.0194 13.4837 15.0342 13.484 15.0491C13.484 15.1101 13.534 15.1621 13.595 15.1621C13.6251 15.1621 13.6539 15.1502 13.6753 15.129C13.6966 15.1079 13.7087 15.0791 13.709 15.0491C13.7091 15.0341 13.7063 15.0193 13.7006 15.0054C13.6949 14.9916 13.6865 14.979 13.6759 14.9685C13.6652 14.958 13.6526 14.9497 13.6387 14.9441C13.6248 14.9385 13.61 14.9358 13.595 14.9361L13.596 14.9351ZM14.158 14.9351C14.143 14.9351 14.1282 14.938 14.1144 14.9438C14.1005 14.9495 14.088 14.9579 14.0774 14.9685C14.0668 14.979 14.0584 14.9916 14.0527 15.0054C14.0469 15.0193 14.044 15.0341 14.044 15.0491C14.044 15.1101 14.096 15.1621 14.158 15.1621C14.218 15.1621 14.268 15.1101 14.269 15.0491C14.2696 15.0428 14.2696 15.0364 14.269 15.0301C14.2651 15.0036 14.2517 14.9794 14.2313 14.9621C14.2108 14.9448 14.1848 14.9355 14.158 14.9361V14.9351ZM14.72 14.9351C14.7051 14.9351 14.6903 14.938 14.6765 14.9438C14.6627 14.9495 14.6502 14.9579 14.6397 14.9685C14.6292 14.9791 14.6209 14.9917 14.6153 15.0055C14.6097 15.0193 14.6069 15.0341 14.607 15.0491C14.607 15.1111 14.658 15.1631 14.72 15.1621C14.781 15.1621 14.83 15.1101 14.831 15.0491C14.8316 15.0428 14.8316 15.0364 14.831 15.0301C14.8271 15.0038 14.8139 14.9797 14.7936 14.9624C14.7734 14.9452 14.7476 14.9358 14.721 14.9361L14.72 14.9351ZM15.283 14.9351C15.268 14.9349 15.2531 14.9378 15.2392 14.9435C15.2253 14.9492 15.2127 14.9576 15.2021 14.9682C15.1915 14.9788 15.1831 14.9914 15.1774 15.0053C15.1717 15.0192 15.1689 15.0341 15.169 15.0491C15.169 15.1111 15.221 15.1631 15.283 15.1621C15.343 15.1621 15.393 15.1101 15.394 15.0491V15.0411C15.3922 15.0128 15.3798 14.9862 15.3592 14.9667C15.3386 14.9472 15.3114 14.9363 15.283 14.9361V14.9351ZM15.845 14.9351C15.8301 14.9351 15.8153 14.938 15.8015 14.9438C15.7877 14.9495 15.7752 14.9579 15.7647 14.9685C15.7542 14.9791 15.7459 14.9917 15.7403 15.0055C15.7347 15.0193 15.7319 15.0341 15.732 15.0491C15.732 15.1111 15.783 15.1631 15.845 15.1621C15.906 15.1621 15.955 15.1101 15.956 15.0491V15.0411C15.9542 15.0129 15.9419 14.9865 15.9216 14.967C15.9012 14.9476 15.8742 14.9365 15.846 14.9361L15.845 14.9351ZM16.408 14.9351C16.393 14.9349 16.3781 14.9378 16.3642 14.9435C16.3503 14.9492 16.3377 14.9576 16.3271 14.9682C16.3165 14.9788 16.3081 14.9914 16.3024 15.0053C16.2967 15.0192 16.2939 15.0341 16.294 15.0491C16.294 15.1111 16.346 15.1631 16.408 15.1621C16.468 15.1621 16.518 15.1101 16.519 15.0491V15.0411C16.5172 15.0128 16.5048 14.9862 16.4842 14.9667C16.4636 14.9472 16.4364 14.9363 16.408 14.9361V14.9351ZM16.968 14.9351C16.9532 14.9352 16.9386 14.9383 16.925 14.9441C16.9114 14.9499 16.8991 14.9583 16.8887 14.9689C16.8784 14.9795 16.8703 14.9921 16.8649 15.0058C16.8594 15.0196 16.8567 15.0343 16.857 15.0491C16.857 15.1101 16.907 15.1621 16.968 15.1621C16.9979 15.1618 17.0265 15.1498 17.0476 15.1287C17.0688 15.1076 17.0807 15.079 17.081 15.0491V15.0411C17.0792 15.0124 17.0665 14.9856 17.0455 14.966C17.0244 14.9465 16.9967 14.9358 16.968 14.9361V14.9351ZM17.531 14.9351C17.5161 14.9351 17.5014 14.938 17.4877 14.9438C17.474 14.9495 17.4615 14.958 17.4511 14.9686C17.4407 14.9792 17.4325 14.9918 17.4269 15.0056C17.4214 15.0194 17.4187 15.0342 17.419 15.0491C17.419 15.1101 17.469 15.1621 17.531 15.1621C17.5609 15.1618 17.5895 15.1498 17.6106 15.1287C17.6318 15.1076 17.6437 15.079 17.644 15.0491V15.0411C17.6422 15.0124 17.6295 14.9856 17.6085 14.966C17.5874 14.9465 17.5597 14.9358 17.531 14.9361V14.9351ZM18.093 14.9351C18.0782 14.9352 18.0636 14.9383 18.05 14.9441C18.0364 14.9499 18.0241 14.9583 18.0137 14.9689C18.0034 14.9795 17.9953 14.9921 17.9899 15.0058C17.9844 15.0196 17.9817 15.0343 17.982 15.0491C17.982 15.1101 18.032 15.1621 18.093 15.1621C18.1229 15.1618 18.1515 15.1498 18.1726 15.1287C18.1938 15.1076 18.2057 15.079 18.206 15.0491V15.0411C18.2042 15.0124 18.1915 14.9856 18.1705 14.966C18.1494 14.9465 18.1217 14.9358 18.093 14.9361V14.9351ZM18.656 14.9351C18.6411 14.9351 18.6264 14.938 18.6127 14.9438C18.599 14.9495 18.5865 14.958 18.5761 14.9686C18.5657 14.9792 18.5575 14.9918 18.5519 15.0056C18.5464 15.0194 18.5437 15.0342 18.544 15.0491C18.544 15.1101 18.594 15.1621 18.656 15.1621C18.717 15.1621 18.766 15.1101 18.767 15.0491C18.7676 15.0428 18.7676 15.0364 18.767 15.0301C18.7631 15.0036 18.7497 14.9794 18.7293 14.9621C18.7088 14.9448 18.6828 14.9355 18.656 14.9361V14.9351ZM19.218 14.9351C19.2031 14.9351 19.1883 14.938 19.1745 14.9438C19.1607 14.9495 19.1482 14.9579 19.1377 14.9685C19.1272 14.9791 19.1189 14.9917 19.1133 15.0055C19.1077 15.0193 19.1049 15.0341 19.105 15.0491C19.105 15.1111 19.156 15.1631 19.218 15.1621C19.279 15.1621 19.328 15.1101 19.33 15.0491V15.0411C19.3282 15.0126 19.3156 14.9859 19.2948 14.9664C19.274 14.9469 19.2465 14.936 19.218 14.9361V14.9351ZM19.781 14.9351C19.7661 14.9351 19.7513 14.938 19.7375 14.9438C19.7237 14.9495 19.7112 14.9579 19.7007 14.9685C19.6902 14.9791 19.6819 14.9917 19.6763 15.0055C19.6707 15.0193 19.6679 15.0341 19.668 15.0491C19.668 15.1111 19.718 15.1631 19.781 15.1621C19.842 15.1621 19.891 15.1101 19.892 15.0491V15.0411C19.8902 15.0128 19.8778 14.9862 19.8572 14.9667C19.8366 14.9472 19.8094 14.9363 19.781 14.9361V14.9351ZM20.343 14.9351C20.3281 14.9351 20.3133 14.938 20.2995 14.9438C20.2857 14.9495 20.2732 14.9579 20.2627 14.9685C20.2522 14.9791 20.2439 14.9917 20.2383 15.0055C20.2327 15.0193 20.2299 15.0341 20.23 15.0491C20.23 15.1111 20.281 15.1631 20.343 15.1621C20.404 15.1621 20.453 15.1101 20.455 15.0491V15.0411C20.4532 15.0126 20.4406 14.9859 20.4198 14.9664C20.399 14.9469 20.3715 14.936 20.343 14.9361V14.9351ZM20.906 14.9351C20.8911 14.9351 20.8763 14.938 20.8625 14.9438C20.8487 14.9495 20.8362 14.9579 20.8257 14.9685C20.8152 14.9791 20.8069 14.9917 20.8013 15.0055C20.7957 15.0193 20.7929 15.0341 20.793 15.0491C20.793 15.1111 20.843 15.1631 20.906 15.1621C20.967 15.1621 21.016 15.1101 21.017 15.0491V15.0411C21.0152 15.0128 21.0028 14.9862 20.9822 14.9667C20.9616 14.9472 20.9344 14.9363 20.906 14.9361V14.9351ZM21.466 14.9351C21.4512 14.9352 21.4366 14.9383 21.423 14.9441C21.4094 14.9499 21.3971 14.9583 21.3867 14.9689C21.3764 14.9795 21.3683 14.9921 21.3629 15.0058C21.3574 15.0196 21.3547 15.0343 21.355 15.0491C21.355 15.1101 21.405 15.1621 21.466 15.1621C21.4961 15.1621 21.5249 15.1502 21.5463 15.129C21.5676 15.1079 21.5797 15.0791 21.58 15.0491V15.0411C21.5782 15.0122 21.5653 14.9852 21.5441 14.9657C21.5229 14.9461 21.4949 14.9355 21.466 14.9361V14.9351ZM22.029 14.9351C22.0142 14.9352 21.9996 14.9383 21.986 14.9441C21.9724 14.9499 21.9601 14.9583 21.9497 14.9689C21.9394 14.9795 21.9313 14.9921 21.9259 15.0058C21.9204 15.0196 21.9177 15.0343 21.918 15.0491C21.918 15.1101 21.968 15.1621 22.028 15.1621C22.0581 15.1621 22.0869 15.1502 22.1083 15.129C22.1296 15.1079 22.1417 15.0791 22.142 15.0491V15.0411C22.1402 15.0124 22.1275 14.9856 22.1065 14.966C22.0854 14.9465 22.0577 14.9358 22.029 14.9361V14.9351ZM22.591 14.9351C22.5762 14.9352 22.5616 14.9383 22.548 14.9441C22.5344 14.9499 22.5221 14.9583 22.5117 14.9689C22.5014 14.9795 22.4933 14.9921 22.4879 15.0058C22.4824 15.0196 22.4797 15.0343 22.48 15.0491C22.48 15.1101 22.53 15.1621 22.591 15.1621C22.6211 15.1621 22.6499 15.1502 22.6713 15.129C22.6926 15.1079 22.7047 15.0791 22.705 15.0491C22.705 15.0341 22.702 15.0194 22.6963 15.0056C22.6906 14.9918 22.6821 14.9793 22.6716 14.9688C22.661 14.9583 22.6484 14.95 22.6346 14.9444C22.6207 14.9388 22.6059 14.9359 22.591 14.9361V14.9351ZM23.154 14.9351C23.1392 14.9352 23.1246 14.9383 23.111 14.9441C23.0974 14.9499 23.0851 14.9583 23.0747 14.9689C23.0644 14.9795 23.0563 14.9921 23.0509 15.0058C23.0454 15.0196 23.0427 15.0343 23.043 15.0491C23.043 15.1101 23.093 15.1621 23.153 15.1621C23.1827 15.1616 23.2111 15.1494 23.232 15.1283C23.2529 15.1072 23.2647 15.0788 23.265 15.0491C23.2656 15.0428 23.2656 15.0364 23.265 15.0301C23.2609 15.0037 23.2474 14.9796 23.227 14.9624C23.2067 14.9451 23.1807 14.9358 23.154 14.9361V14.9351ZM23.716 14.9351C23.7011 14.9351 23.6863 14.938 23.6725 14.9438C23.6588 14.9495 23.6462 14.9579 23.6357 14.9685C23.6252 14.9791 23.6169 14.9917 23.6113 15.0055C23.6057 15.0193 23.6029 15.0341 23.603 15.0491C23.603 15.1111 23.654 15.1631 23.716 15.1621C23.777 15.1621 23.826 15.1101 23.828 15.0491C23.8286 15.0428 23.8286 15.0364 23.828 15.0301C23.8241 15.0034 23.8105 14.9791 23.7899 14.9618C23.7692 14.9444 23.7429 14.9353 23.716 14.9361V14.9351ZM24.279 14.9351C24.2641 14.9351 24.2493 14.938 24.2355 14.9438C24.2218 14.9495 24.2092 14.9579 24.1987 14.9685C24.1882 14.9791 24.1799 14.9917 24.1743 15.0055C24.1687 15.0193 24.1659 15.0341 24.166 15.0491C24.166 15.1111 24.216 15.1631 24.279 15.1621C24.34 15.1621 24.389 15.1101 24.39 15.0491V15.0411C24.3882 15.0128 24.3758 14.9862 24.3552 14.9667C24.3346 14.9472 24.3074 14.9363 24.279 14.9361V14.9351ZM24.841 14.9351C24.8261 14.9351 24.8113 14.938 24.7975 14.9438C24.7838 14.9495 24.7712 14.9579 24.7607 14.9685C24.7502 14.9791 24.7419 14.9917 24.7363 15.0055C24.7307 15.0193 24.7279 15.0341 24.728 15.0491C24.728 15.1111 24.779 15.1631 24.841 15.1621C24.902 15.1621 24.951 15.1101 24.953 15.0491V15.0411C24.9512 15.0126 24.9386 14.9859 24.9178 14.9664C24.897 14.9469 24.8695 14.936 24.841 14.9361V14.9351ZM25.401 14.9351C25.3863 14.9353 25.3718 14.9385 25.3583 14.9444C25.3448 14.9502 25.3326 14.9587 25.3224 14.9693C25.3122 14.9799 25.3041 14.9924 25.2988 15.0061C25.2934 15.0197 25.2907 15.0344 25.291 15.0491C25.291 15.1101 25.341 15.1621 25.401 15.1621C25.4311 15.1621 25.4599 15.1502 25.4813 15.129C25.5026 15.1079 25.5147 15.0791 25.515 15.0491V15.0411C25.5132 15.0124 25.5005 14.9856 25.4795 14.966C25.4584 14.9465 25.4307 14.9358 25.402 14.9361L25.401 14.9351ZM25.964 14.9351C25.9492 14.9352 25.9346 14.9383 25.921 14.9441C25.9074 14.9499 25.8951 14.9583 25.8847 14.9689C25.8744 14.9795 25.8663 14.9921 25.8609 15.0058C25.8554 15.0196 25.8527 15.0343 25.853 15.0491C25.853 15.1101 25.903 15.1621 25.964 15.1621C25.9941 15.1621 26.0229 15.1502 26.0443 15.129C26.0656 15.1079 26.0777 15.0791 26.078 15.0491V15.0411C26.0762 15.0122 26.0633 14.9852 26.0421 14.9657C26.0209 14.9461 25.9929 14.9355 25.964 14.9361V14.9351ZM26.527 14.9351C26.5122 14.9352 26.4976 14.9383 26.484 14.9441C26.4704 14.9499 26.4581 14.9583 26.4477 14.9689C26.4374 14.9795 26.4293 14.9921 26.4239 15.0058C26.4184 15.0196 26.4157 15.0343 26.416 15.0491C26.416 15.1101 26.466 15.1621 26.526 15.1621C26.5561 15.1621 26.5849 15.1502 26.6063 15.129C26.6276 15.1079 26.6397 15.0791 26.64 15.0491V15.0411C26.6382 15.0124 26.6255 14.9856 26.6045 14.966C26.5834 14.9465 26.5557 14.9358 26.527 14.9361V14.9351ZM27.089 14.9351C27.0742 14.9352 27.0596 14.9383 27.046 14.9441C27.0324 14.9499 27.0201 14.9583 27.0097 14.9689C26.9994 14.9795 26.9913 14.9921 26.9859 15.0058C26.9804 15.0196 26.9777 15.0343 26.978 15.0491C26.978 15.1101 27.028 15.1621 27.089 15.1621C27.1191 15.1621 27.1479 15.1502 27.1693 15.129C27.1906 15.1079 27.2027 15.0791 27.203 15.0491C27.2031 15.0341 27.2003 15.0193 27.1946 15.0054C27.1889 14.9916 27.1805 14.979 27.1699 14.9685C27.1592 14.958 27.1466 14.9497 27.1327 14.9441C27.1188 14.9385 27.104 14.9358 27.089 14.9361V14.9351ZM27.652 14.9351C27.6372 14.9352 27.6226 14.9383 27.609 14.9441C27.5954 14.9499 27.5831 14.9583 27.5727 14.9689C27.5624 14.9795 27.5543 14.9921 27.5489 15.0058C27.5434 15.0196 27.5407 15.0343 27.541 15.0491C27.541 15.1101 27.591 15.1621 27.651 15.1621C27.713 15.1621 27.762 15.1101 27.763 15.0491C27.7635 15.0427 27.7635 15.0364 27.763 15.0301C27.7591 15.0036 27.7457 14.9794 27.7253 14.9621C27.7048 14.9448 27.6788 14.9355 27.652 14.9361V14.9351ZM28.214 14.9351C28.1991 14.9351 28.1843 14.938 28.1705 14.9438C28.1567 14.9495 28.1442 14.9579 28.1337 14.9685C28.1232 14.9791 28.1149 14.9917 28.1093 15.0055C28.1037 15.0193 28.1009 15.0341 28.101 15.0491C28.101 15.1111 28.152 15.1631 28.214 15.1621C28.276 15.1621 28.324 15.1101 28.326 15.0491V15.0411C28.3242 15.0126 28.3116 14.9859 28.2908 14.9664C28.27 14.9469 28.2425 14.936 28.214 14.9361V14.9351ZM28.777 14.9351C28.7621 14.9351 28.7473 14.938 28.7335 14.9438C28.7197 14.9495 28.7072 14.9579 28.6967 14.9685C28.6862 14.9791 28.6779 14.9917 28.6723 15.0055C28.6667 15.0193 28.6639 15.0341 28.664 15.0491C28.664 15.1111 28.714 15.1631 28.777 15.1621C28.838 15.1621 28.887 15.1101 28.888 15.0491V15.0411C28.8862 15.0128 28.8738 14.9862 28.8532 14.9667C28.8326 14.9472 28.8054 14.9363 28.777 14.9361V14.9351ZM29.339 14.9351C29.3241 14.9351 29.3093 14.938 29.2955 14.9438C29.2817 14.9495 29.2692 14.9579 29.2587 14.9685C29.2482 14.9791 29.2399 14.9917 29.2343 15.0055C29.2287 15.0193 29.2259 15.0341 29.226 15.0491C29.226 15.1111 29.277 15.1631 29.339 15.1621C29.401 15.1621 29.449 15.1101 29.451 15.0491V15.0411C29.4492 15.0126 29.4366 14.9859 29.4158 14.9664C29.395 14.9469 29.3675 14.936 29.339 14.9361V14.9351ZM29.899 14.9351C29.8843 14.9353 29.8698 14.9385 29.8563 14.9444C29.8428 14.9502 29.8306 14.9587 29.8204 14.9693C29.8102 14.9799 29.8021 14.9924 29.7968 15.0061C29.7914 15.0197 29.7887 15.0344 29.789 15.0491C29.789 15.1101 29.839 15.1621 29.899 15.1621C29.9291 15.1621 29.9579 15.1502 29.9793 15.129C30.0006 15.1079 30.0127 15.0791 30.013 15.0491V15.0411C30.0112 15.0124 29.9985 14.9856 29.9775 14.966C29.9564 14.9465 29.9287 14.9358 29.9 14.9361L29.899 14.9351ZM30.462 14.9351C30.4473 14.9353 30.4328 14.9385 30.4193 14.9444C30.4058 14.9502 30.3936 14.9587 30.3834 14.9693C30.3732 14.9799 30.3651 14.9924 30.3598 15.0061C30.3544 15.0197 30.3517 15.0344 30.352 15.0491C30.352 15.1101 30.401 15.1621 30.462 15.1621C30.4921 15.1621 30.5209 15.1502 30.5423 15.129C30.5636 15.1079 30.5757 15.0791 30.576 15.0491V15.0411C30.5742 15.0122 30.5613 14.9852 30.5401 14.9657C30.5189 14.9461 30.4909 14.9355 30.462 14.9361V14.9351ZM31.025 14.9351C31.0102 14.9352 30.9956 14.9383 30.982 14.9441C30.9684 14.9499 30.9561 14.9583 30.9457 14.9689C30.9354 14.9795 30.9273 14.9921 30.9219 15.0058C30.9164 15.0196 30.9137 15.0343 30.914 15.0491C30.914 15.1101 30.964 15.1621 31.024 15.1621C31.0541 15.1621 31.0829 15.1502 31.1043 15.129C31.1256 15.1079 31.1377 15.0791 31.138 15.0491V15.0411C31.1362 15.0124 31.1235 14.9856 31.1025 14.966C31.0814 14.9465 31.0537 14.9358 31.025 14.9361V14.9351ZM31.587 14.9351C31.5723 14.9353 31.5578 14.9385 31.5443 14.9444C31.5308 14.9502 31.5186 14.9587 31.5084 14.9693C31.4982 14.9799 31.4901 14.9924 31.4848 15.0061C31.4794 15.0197 31.4767 15.0344 31.477 15.0491C31.477 15.1101 31.527 15.1621 31.587 15.1621C31.649 15.1621 31.698 15.1101 31.699 15.0491C31.6996 15.0428 31.6996 15.0364 31.699 15.0301C31.6951 15.0034 31.6815 14.9791 31.6609 14.9618C31.6402 14.9444 31.6139 14.9353 31.587 14.9361V14.9351ZM32.15 14.9351C32.1351 14.9351 32.1203 14.938 32.1065 14.9438C32.0928 14.9495 32.0802 14.9579 32.0697 14.9685C32.0592 14.9791 32.0509 14.9917 32.0453 15.0055C32.0397 15.0193 32.0369 15.0341 32.037 15.0491C32.037 15.1111 32.087 15.1631 32.15 15.1621C32.211 15.1621 32.26 15.1101 32.261 15.0491C32.2616 15.0428 32.2616 15.0364 32.261 15.0301C32.2571 15.0036 32.2437 14.9794 32.2233 14.9621C32.2028 14.9448 32.1768 14.9355 32.15 14.9361V14.9351ZM32.712 14.9351C32.6971 14.9351 32.6823 14.938 32.6685 14.9438C32.6548 14.9495 32.6422 14.9579 32.6317 14.9685C32.6212 14.9791 32.6129 14.9917 32.6073 15.0055C32.6017 15.0193 32.5989 15.0341 32.599 15.0491C32.599 15.1111 32.65 15.1631 32.712 15.1621C32.774 15.1621 32.823 15.1101 32.824 15.0491V15.0411C32.8222 15.0126 32.8096 14.9859 32.7888 14.9664C32.768 14.9469 32.7405 14.936 32.712 14.9361V14.9351ZM33.275 14.9351C33.2601 14.9351 33.2453 14.938 33.2315 14.9438C33.2178 14.9495 33.2052 14.9579 33.1947 14.9685C33.1842 14.9791 33.1759 14.9917 33.1703 15.0055C33.1647 15.0193 33.1619 15.0341 33.162 15.0491C33.162 15.1111 33.212 15.1631 33.275 15.1621C33.336 15.1621 33.385 15.1101 33.386 15.0491V15.0411C33.3842 15.0128 33.3718 14.9862 33.3512 14.9667C33.3306 14.9472 33.3034 14.9363 33.275 14.9361V14.9351ZM33.837 14.9351C33.8221 14.9351 33.8073 14.938 33.7935 14.9438C33.7798 14.9495 33.7672 14.9579 33.7567 14.9685C33.7462 14.9791 33.7379 14.9917 33.7323 15.0055C33.7267 15.0193 33.7239 15.0341 33.724 15.0491C33.724 15.1111 33.775 15.1631 33.837 15.1621C33.899 15.1621 33.948 15.1101 33.949 15.0491V15.0411C33.9472 15.0126 33.9346 14.9859 33.9138 14.9664C33.893 14.9469 33.8655 14.936 33.837 14.9361V14.9351ZM34.397 14.9351C34.3823 14.9353 34.3678 14.9385 34.3543 14.9444C34.3408 14.9502 34.3286 14.9587 34.3184 14.9693C34.3082 14.9799 34.3001 14.9924 34.2948 15.0061C34.2894 15.0197 34.2867 15.0344 34.287 15.0491C34.287 15.1101 34.337 15.1621 34.397 15.1621C34.4271 15.1621 34.4559 15.1502 34.4773 15.129C34.4986 15.1079 34.5107 15.0791 34.511 15.0491V15.0411C34.5092 15.0124 34.4965 14.9856 34.4755 14.966C34.4544 14.9465 34.4267 14.9358 34.398 14.9361L34.397 14.9351ZM14.94 18.1341C14.7266 18.1287 14.5143 18.1662 14.3155 18.2441C14.1168 18.3221 13.9357 18.4391 13.7829 18.5881C13.63 18.7372 13.5086 18.9153 13.4257 19.1121C13.3427 19.3088 13.3 19.5201 13.3 19.7336C13.3 19.9471 13.3427 20.1584 13.4257 20.3551C13.5086 20.5518 13.63 20.7299 13.7829 20.879C13.9357 21.0281 14.1168 21.145 14.3155 21.223C14.5143 21.301 14.7266 21.3384 14.94 21.3331C15.3643 21.3331 15.7713 21.1645 16.0714 20.8644C16.3714 20.5644 16.54 20.1574 16.54 19.7331C16.54 19.3087 16.3714 18.9018 16.0714 18.6017C15.7713 18.3016 15.3643 18.1331 14.94 18.1331V18.1341ZM18.563 18.1341C18.3496 18.1287 18.1373 18.1662 17.9385 18.2441C17.7398 18.3221 17.5587 18.4391 17.4059 18.5881C17.253 18.7372 17.1316 18.9153 17.0487 19.1121C16.9657 19.3088 16.923 19.5201 16.923 19.7336C16.923 19.9471 16.9657 20.1584 17.0487 20.3551C17.1316 20.5518 17.253 20.7299 17.4059 20.879C17.5587 21.0281 17.7398 21.145 17.9385 21.223C18.1373 21.301 18.3496 21.3384 18.563 21.3331C18.9873 21.3331 19.3943 21.1645 19.6944 20.8644C19.9944 20.5644 20.163 20.1574 20.163 19.7331C20.163 19.3087 19.9944 18.9018 19.6944 18.6017C19.3943 18.3016 18.9873 18.1331 18.563 18.1331V18.1341ZM22.186 18.1341C21.9726 18.1287 21.7603 18.1662 21.5615 18.2441C21.3628 18.3221 21.1817 18.4391 21.0289 18.5881C20.876 18.7372 20.7546 18.9153 20.6717 19.1121C20.5887 19.3088 20.546 19.5201 20.546 19.7336C20.546 19.9471 20.5887 20.1584 20.6717 20.3551C20.7546 20.5518 20.876 20.7299 21.0289 20.879C21.1817 21.0281 21.3628 21.145 21.5615 21.223C21.7603 21.301 21.9726 21.3384 22.186 21.3331C22.6103 21.3331 23.0173 21.1645 23.3174 20.8644C23.6174 20.5644 23.786 20.1574 23.786 19.7331C23.786 19.3087 23.6174 18.9018 23.3174 18.6017C23.0173 18.3016 22.6103 18.1331 22.186 18.1331V18.1341ZM25.811 18.1341C25.5976 18.1287 25.3853 18.1662 25.1865 18.2441C24.9878 18.3221 24.8067 18.4391 24.6539 18.5881C24.501 18.7372 24.3796 18.9153 24.2967 19.1121C24.2137 19.3088 24.171 19.5201 24.171 19.7336C24.171 19.9471 24.2137 20.1584 24.2967 20.3551C24.3796 20.5518 24.501 20.7299 24.6539 20.879C24.8067 21.0281 24.9878 21.145 25.1865 21.223C25.3853 21.301 25.5976 21.3384 25.811 21.3331C26.2353 21.3331 26.6423 21.1645 26.9424 20.8644C27.2424 20.5644 27.411 20.1574 27.411 19.7331C27.411 19.3087 27.2424 18.9018 26.9424 18.6017C26.6423 18.3016 26.2353 18.1331 25.811 18.1331V18.1341ZM29.434 18.1341C29.2206 18.1287 29.0083 18.1662 28.8095 18.2441C28.6108 18.3221 28.4297 18.4391 28.2769 18.5881C28.124 18.7372 28.0026 18.9153 27.9197 19.1121C27.8367 19.3088 27.794 19.5201 27.794 19.7336C27.794 19.9471 27.8367 20.1584 27.9197 20.3551C28.0026 20.5518 28.124 20.7299 28.2769 20.879C28.4297 21.0281 28.6108 21.145 28.8095 21.223C29.0083 21.301 29.2206 21.3384 29.434 21.3331C29.8583 21.3331 30.2653 21.1645 30.5654 20.8644C30.8654 20.5644 31.034 20.1574 31.034 19.7331C31.034 19.3087 30.8654 18.9018 30.5654 18.6017C30.2653 18.3016 29.8583 18.1331 29.434 18.1331V18.1341ZM33.059 18.1341C32.8456 18.1287 32.6333 18.1662 32.4345 18.2441C32.2358 18.3221 32.0547 18.4391 31.9019 18.5881C31.749 18.7372 31.6276 18.9153 31.5447 19.1121C31.4617 19.3088 31.419 19.5201 31.419 19.7336C31.419 19.9471 31.4617 20.1584 31.5447 20.3551C31.6276 20.5518 31.749 20.7299 31.9019 20.879C32.0547 21.0281 32.2358 21.145 32.4345 21.223C32.6333 21.301 32.8456 21.3384 33.059 21.3331C33.4833 21.3331 33.8903 21.1645 34.1904 20.8644C34.4904 20.5644 34.659 20.1574 34.659 19.7331C34.659 19.3087 34.4904 18.9018 34.1904 18.6017C33.8903 18.3016 33.4833 18.1331 33.059 18.1331V18.1341ZM13.596 23.9371C13.5813 23.9372 13.5668 23.9402 13.5532 23.946C13.5397 23.9517 13.5274 23.9601 13.5171 23.9706C13.5068 23.9811 13.4986 23.9935 13.4931 24.0071C13.4876 24.0208 13.4849 24.0354 13.485 24.0501C13.485 24.1111 13.535 24.1631 13.596 24.1631C13.6261 24.1631 13.6549 24.1512 13.6763 24.13C13.6976 24.1089 13.7097 24.0801 13.71 24.0501C13.7101 24.0351 13.7073 24.0203 13.7016 24.0064C13.6959 23.9926 13.6875 23.98 13.6769 23.9695C13.6662 23.959 13.6536 23.9507 13.6397 23.9451C13.6258 23.9395 13.611 23.9368 13.596 23.9371ZM14.159 23.9371C14.1289 23.9371 14.1001 23.9489 14.0787 23.9701C14.0574 23.9913 14.0453 24.02 14.045 24.0501C14.045 24.1111 14.097 24.1631 14.159 24.1631C14.219 24.1631 14.269 24.1111 14.27 24.0501C14.2706 24.0438 14.2706 24.0374 14.27 24.0311C14.2661 24.0046 14.2527 23.9804 14.2323 23.9631C14.2118 23.9458 14.1858 23.9365 14.159 23.9371ZM14.721 23.9371C14.691 23.9371 14.6623 23.949 14.6411 23.9702C14.6199 23.9914 14.608 24.0201 14.608 24.0501C14.608 24.1121 14.659 24.1641 14.721 24.1631C14.782 24.1631 14.831 24.1111 14.832 24.0501C14.8326 24.0438 14.8326 24.0374 14.832 24.0311C14.8281 24.0048 14.8149 23.9807 14.7946 23.9634C14.7744 23.9462 14.7486 23.9368 14.722 23.9371H14.721ZM15.284 23.9371C15.2691 23.9369 15.2543 23.9398 15.2404 23.9454C15.2266 23.951 15.214 23.9593 15.2034 23.9698C15.1929 23.9803 15.1844 23.9928 15.1787 24.0066C15.173 24.0204 15.17 24.0351 15.17 24.0501C15.17 24.1121 15.222 24.1641 15.284 24.1631C15.2992 24.1627 15.3142 24.1593 15.3281 24.153C15.342 24.1467 15.3545 24.1377 15.3648 24.1265C15.3752 24.1153 15.3832 24.1022 15.3884 24.0878C15.3936 24.0735 15.3958 24.0583 15.395 24.0431C15.3935 24.0146 15.3811 23.9878 15.3605 23.9681C15.3399 23.9484 15.3125 23.9373 15.284 23.9371ZM15.846 23.9371C15.816 23.9371 15.7873 23.949 15.7661 23.9702C15.7449 23.9914 15.733 24.0201 15.733 24.0501C15.733 24.1121 15.784 24.1641 15.846 24.1631C15.8612 24.1627 15.8762 24.1593 15.8901 24.153C15.904 24.1467 15.9165 24.1377 15.9268 24.1265C15.9372 24.1153 15.9452 24.1022 15.9504 24.0878C15.9556 24.0735 15.9578 24.0583 15.957 24.0431C15.9555 24.0148 15.9433 23.9881 15.9229 23.9684C15.9025 23.9487 15.8753 23.9375 15.847 23.9371H15.846ZM16.409 23.9371C16.3941 23.9369 16.3793 23.9398 16.3654 23.9454C16.3516 23.951 16.339 23.9593 16.3284 23.9698C16.3179 23.9803 16.3094 23.9928 16.3037 24.0066C16.298 24.0204 16.295 24.0351 16.295 24.0501C16.295 24.1121 16.347 24.1641 16.409 24.1631C16.4242 24.1627 16.4392 24.1593 16.4531 24.153C16.467 24.1467 16.4795 24.1377 16.4898 24.1265C16.5002 24.1153 16.5082 24.1022 16.5134 24.0878C16.5186 24.0735 16.5208 24.0583 16.52 24.0431C16.5185 24.0146 16.5061 23.9878 16.4855 23.9681C16.4649 23.9484 16.4375 23.9373 16.409 23.9371ZM16.969 23.9371C16.9394 23.9376 16.9111 23.9497 16.8904 23.9709C16.8696 23.992 16.858 24.0204 16.858 24.0501C16.858 24.1111 16.908 24.1631 16.969 24.1631C16.9844 24.163 16.9996 24.1597 17.0137 24.1536C17.0279 24.1474 17.0406 24.1384 17.0512 24.1272C17.0617 24.116 17.0699 24.1028 17.0752 24.0883C17.0805 24.0738 17.0828 24.0585 17.082 24.0431C17.0805 24.0142 17.0678 23.9871 17.0468 23.9674C17.0257 23.9476 16.9979 23.9368 16.969 23.9371ZM17.532 23.9371C17.5022 23.9373 17.4737 23.9494 17.4527 23.9705C17.4318 23.9917 17.42 24.0203 17.42 24.0501C17.42 24.1111 17.47 24.1631 17.532 24.1631C17.5474 24.163 17.5626 24.1597 17.5767 24.1536C17.5909 24.1474 17.6036 24.1384 17.6142 24.1272C17.6247 24.116 17.6329 24.1028 17.6382 24.0883C17.6435 24.0738 17.6458 24.0585 17.645 24.0431C17.6435 24.0142 17.6308 23.9871 17.6098 23.9674C17.5887 23.9476 17.5609 23.9368 17.532 23.9371ZM18.094 23.9371C18.0644 23.9376 18.0361 23.9497 18.0154 23.9709C17.9946 23.992 17.983 24.0204 17.983 24.0501C17.983 24.1111 18.033 24.1631 18.094 24.1631C18.1094 24.163 18.1246 24.1597 18.1387 24.1536C18.1529 24.1474 18.1656 24.1384 18.1762 24.1272C18.1867 24.116 18.1949 24.1028 18.2002 24.0883C18.2055 24.0738 18.2078 24.0585 18.207 24.0431C18.2055 24.0142 18.1928 23.9871 18.1718 23.9674C18.1507 23.9476 18.1229 23.9368 18.094 23.9371ZM18.657 23.9371C18.6422 23.9371 18.6276 23.94 18.6139 23.9457C18.6003 23.9514 18.5879 23.9597 18.5774 23.9702C18.567 23.9807 18.5588 23.9932 18.5532 24.0069C18.5477 24.0206 18.5449 24.0353 18.545 24.0501C18.545 24.1111 18.595 24.1631 18.657 24.1631C18.718 24.1631 18.767 24.1111 18.768 24.0501C18.7686 24.0438 18.7686 24.0374 18.768 24.0311C18.7641 24.0046 18.7507 23.9804 18.7303 23.9631C18.7098 23.9458 18.6838 23.9365 18.657 23.9371ZM19.219 23.9371C19.189 23.9371 19.1603 23.949 19.1391 23.9702C19.1179 23.9914 19.106 24.0201 19.106 24.0501C19.106 24.1121 19.157 24.1641 19.219 24.1631C19.2343 24.1628 19.2494 24.1595 19.2634 24.1533C19.2774 24.1471 19.29 24.1381 19.3005 24.1269C19.311 24.1157 19.319 24.1025 19.3243 24.0881C19.3295 24.0737 19.3318 24.0584 19.331 24.0431C19.3295 24.0144 19.317 23.9875 19.2961 23.9677C19.2753 23.948 19.2477 23.937 19.219 23.9371ZM19.782 23.9371C19.752 23.9371 19.7233 23.949 19.7021 23.9702C19.6809 23.9914 19.669 24.0201 19.669 24.0501C19.669 24.1121 19.719 24.1641 19.782 24.1631C19.7972 24.1627 19.8122 24.1593 19.8261 24.153C19.84 24.1467 19.8525 24.1377 19.8628 24.1265C19.8732 24.1153 19.8812 24.1022 19.8864 24.0878C19.8916 24.0735 19.8938 24.0583 19.893 24.0431C19.8915 24.0146 19.8791 23.9878 19.8585 23.9681C19.8379 23.9484 19.8105 23.9373 19.782 23.9371ZM20.344 23.9371C20.314 23.9371 20.2853 23.949 20.2641 23.9702C20.2429 23.9914 20.231 24.0201 20.231 24.0501C20.231 24.1121 20.282 24.1641 20.344 24.1631C20.3593 24.1628 20.3744 24.1595 20.3884 24.1533C20.4024 24.1471 20.415 24.1381 20.4255 24.1269C20.436 24.1157 20.444 24.1025 20.4493 24.0881C20.4545 24.0737 20.4568 24.0584 20.456 24.0431C20.4545 24.0144 20.442 23.9875 20.4211 23.9677C20.4003 23.948 20.3727 23.937 20.344 23.9371ZM20.907 23.9371C20.877 23.9371 20.8483 23.949 20.8271 23.9702C20.8059 23.9914 20.794 24.0201 20.794 24.0501C20.794 24.1121 20.844 24.1641 20.907 24.1631C20.9222 24.1627 20.9372 24.1593 20.9511 24.153C20.965 24.1467 20.9775 24.1377 20.9878 24.1265C20.9982 24.1153 21.0062 24.1022 21.0114 24.0878C21.0166 24.0735 21.0188 24.0583 21.018 24.0431C21.0165 24.0146 21.0041 23.9878 20.9835 23.9681C20.9629 23.9484 20.9355 23.9373 20.907 23.9371ZM21.467 23.9371C21.4387 23.9397 21.4125 23.9528 21.3934 23.9738C21.3743 23.9948 21.3637 24.0222 21.3637 24.0506C21.3637 24.079 21.3743 24.1063 21.3934 24.1273C21.4125 24.1483 21.4387 24.1614 21.467 24.1641C21.4827 24.1641 21.4982 24.1609 21.5126 24.1547C21.5269 24.1485 21.5399 24.1394 21.5506 24.1279C21.5613 24.1165 21.5695 24.1029 21.5747 24.0882C21.58 24.0734 21.5821 24.0577 21.581 24.0421C21.5792 24.0132 21.5663 23.9862 21.5451 23.9667C21.5239 23.9471 21.4959 23.9365 21.467 23.9371ZM22.03 23.9371C22.0017 23.9397 21.9755 23.9528 21.9564 23.9738C21.9373 23.9948 21.9267 24.0222 21.9267 24.0506C21.9267 24.079 21.9373 24.1063 21.9564 24.1273C21.9755 24.1483 22.0017 24.1614 22.03 24.1641C22.0456 24.164 22.061 24.1607 22.0752 24.1544C22.0895 24.1481 22.1023 24.139 22.1129 24.1275C22.1235 24.1161 22.1316 24.1026 22.1368 24.0879C22.142 24.0732 22.1441 24.0576 22.143 24.0421C22.1412 24.0134 22.1285 23.9866 22.1075 23.967C22.0864 23.9475 22.0587 23.9368 22.03 23.9371ZM22.592 23.9371C22.5773 23.9372 22.5628 23.9402 22.5492 23.946C22.5357 23.9517 22.5234 23.9601 22.5131 23.9706C22.5028 23.9811 22.4946 23.9935 22.4891 24.0071C22.4836 24.0208 22.4809 24.0354 22.481 24.0501C22.481 24.1111 22.531 24.1631 22.592 24.1631C22.6221 24.1631 22.6509 24.1512 22.6723 24.13C22.6936 24.1089 22.7057 24.0801 22.706 24.0501C22.706 24.0351 22.703 24.0204 22.6973 24.0066C22.6916 23.9928 22.6831 23.9803 22.6726 23.9698C22.662 23.9593 22.6494 23.951 22.6355 23.9454C22.6217 23.9398 22.6069 23.9369 22.592 23.9371ZM23.155 23.9371C23.1267 23.9397 23.1005 23.9528 23.0814 23.9738C23.0623 23.9948 23.0517 24.0222 23.0517 24.0506C23.0517 24.079 23.0623 24.1063 23.0814 24.1273C23.1005 24.1483 23.1267 24.1614 23.155 24.1641C23.1847 24.1633 23.2129 24.1509 23.2337 24.1296C23.2544 24.1083 23.266 24.0798 23.266 24.0501C23.2666 24.0438 23.2666 24.0374 23.266 24.0311C23.2619 24.0047 23.2484 23.9806 23.228 23.9634C23.2077 23.9461 23.1817 23.9368 23.155 23.9371ZM23.717 23.9371C23.687 23.9371 23.6583 23.949 23.6371 23.9702C23.6159 23.9914 23.604 24.0201 23.604 24.0501C23.604 24.1121 23.655 24.1641 23.717 24.1631C23.778 24.1631 23.827 24.1111 23.829 24.0501C23.8296 24.0438 23.8296 24.0374 23.829 24.0311C23.8251 24.0044 23.8115 23.9801 23.7909 23.9628C23.7702 23.9454 23.7439 23.9363 23.717 23.9371ZM24.28 23.9371C24.25 23.9371 24.2213 23.949 24.2001 23.9702C24.1789 23.9914 24.167 24.0201 24.167 24.0501C24.167 24.1121 24.217 24.1641 24.28 24.1631C24.2952 24.1627 24.3102 24.1593 24.3241 24.153C24.338 24.1467 24.3505 24.1377 24.3608 24.1265C24.3712 24.1153 24.3792 24.1022 24.3844 24.0878C24.3896 24.0735 24.3918 24.0583 24.391 24.0431C24.3895 24.0146 24.3771 23.9878 24.3565 23.9681C24.3359 23.9484 24.3085 23.9373 24.28 23.9371ZM24.842 23.9371C24.812 23.9371 24.7833 23.949 24.7621 23.9702C24.7409 23.9914 24.729 24.0201 24.729 24.0501C24.729 24.1121 24.78 24.1641 24.842 24.1631C24.8573 24.1628 24.8724 24.1595 24.8864 24.1533C24.9004 24.1471 24.913 24.1381 24.9235 24.1269C24.934 24.1157 24.942 24.1025 24.9473 24.0881C24.9525 24.0737 24.9548 24.0584 24.954 24.0431C24.9525 24.0144 24.94 23.9875 24.9191 23.9677C24.8983 23.948 24.8707 23.937 24.842 23.9371ZM25.402 23.9371C25.3725 23.9376 25.3443 23.9498 25.3237 23.9709C25.3031 23.9921 25.2917 24.0205 25.292 24.0501C25.292 24.1111 25.342 24.1631 25.402 24.1631C25.4175 24.1631 25.4328 24.16 25.4471 24.1539C25.4613 24.1478 25.4741 24.1388 25.4848 24.1276C25.4955 24.1164 25.5037 24.1031 25.5091 24.0885C25.5145 24.074 25.5168 24.0585 25.516 24.0431C25.5145 24.0142 25.5018 23.9871 25.4808 23.9674C25.4597 23.9476 25.4319 23.9368 25.403 23.9371H25.402ZM25.965 23.9371C25.9354 23.9376 25.9071 23.9497 25.8864 23.9709C25.8656 23.992 25.854 24.0204 25.854 24.0501C25.854 24.1111 25.904 24.1631 25.965 24.1631C25.9805 24.1631 25.9958 24.16 26.0101 24.1539C26.0243 24.1478 26.0371 24.1388 26.0478 24.1276C26.0585 24.1164 26.0667 24.1031 26.0721 24.0885C26.0775 24.074 26.0798 24.0585 26.079 24.0431C26.0774 24.0141 26.0647 23.9868 26.0434 23.967C26.0222 23.9473 25.994 23.9365 25.965 23.9371ZM26.528 23.9371C26.5133 23.9372 26.4988 23.9402 26.4852 23.946C26.4717 23.9517 26.4594 23.9601 26.4491 23.9706C26.4388 23.9811 26.4306 23.9935 26.4251 24.0071C26.4196 24.0208 26.4169 24.0354 26.417 24.0501C26.417 24.1111 26.467 24.1631 26.527 24.1631C26.5425 24.1631 26.5578 24.16 26.5721 24.1539C26.5863 24.1478 26.5991 24.1388 26.6098 24.1276C26.6205 24.1164 26.6287 24.1031 26.6341 24.0885C26.6395 24.074 26.6418 24.0585 26.641 24.0431C26.6395 24.0142 26.6268 23.9871 26.6058 23.9674C26.5847 23.9476 26.5569 23.9368 26.528 23.9371ZM27.09 23.9371C27.0604 23.9376 27.0321 23.9497 27.0114 23.9709C26.9906 23.992 26.979 24.0204 26.979 24.0501C26.979 24.1111 27.029 24.1631 27.09 24.1631C27.1201 24.1631 27.1489 24.1512 27.1703 24.13C27.1916 24.1089 27.2037 24.0801 27.204 24.0501C27.2041 24.0351 27.2013 24.0203 27.1956 24.0064C27.1899 23.9926 27.1815 23.98 27.1709 23.9695C27.1602 23.959 27.1476 23.9507 27.1337 23.9451C27.1198 23.9395 27.105 23.9368 27.09 23.9371ZM27.653 23.9371C27.6383 23.9372 27.6238 23.9402 27.6102 23.946C27.5967 23.9517 27.5844 23.9601 27.5741 23.9706C27.5638 23.9811 27.5556 23.9935 27.5501 24.0071C27.5446 24.0208 27.5419 24.0354 27.542 24.0501C27.542 24.1111 27.592 24.1631 27.652 24.1631C27.714 24.1631 27.763 24.1111 27.764 24.0501C27.7645 24.0437 27.7645 24.0374 27.764 24.0311C27.7601 24.0046 27.7467 23.9804 27.7263 23.9631C27.7058 23.9458 27.6798 23.9365 27.653 23.9371ZM28.215 23.9371C28.185 23.9371 28.1563 23.949 28.1351 23.9702C28.1139 23.9914 28.102 24.0201 28.102 24.0501C28.102 24.1121 28.153 24.1641 28.215 24.1631C28.2303 24.1628 28.2454 24.1595 28.2594 24.1533C28.2734 24.1471 28.286 24.1381 28.2965 24.1269C28.307 24.1157 28.315 24.1025 28.3203 24.0881C28.3255 24.0737 28.3278 24.0584 28.327 24.0431C28.3255 24.0144 28.313 23.9875 28.2921 23.9677C28.2713 23.948 28.2437 23.937 28.215 23.9371ZM28.778 23.9371C28.748 23.9371 28.7193 23.949 28.6981 23.9702C28.6769 23.9914 28.665 24.0201 28.665 24.0501C28.665 24.1121 28.715 24.1641 28.778 24.1631C28.7932 24.1627 28.8082 24.1593 28.8221 24.153C28.836 24.1467 28.8485 24.1377 28.8588 24.1265C28.8692 24.1153 28.8772 24.1022 28.8824 24.0878C28.8876 24.0735 28.8898 24.0583 28.889 24.0431C28.8875 24.0146 28.8751 23.9878 28.8545 23.9681C28.8339 23.9484 28.8065 23.9373 28.778 23.9371ZM29.34 23.9371C29.31 23.9371 29.2813 23.949 29.2601 23.9702C29.2389 23.9914 29.227 24.0201 29.227 24.0501C29.227 24.1121 29.278 24.1641 29.34 24.1631C29.3553 24.1628 29.3704 24.1595 29.3844 24.1533C29.3984 24.1471 29.411 24.1381 29.4215 24.1269C29.432 24.1157 29.44 24.1025 29.4453 24.0881C29.4505 24.0737 29.4528 24.0584 29.452 24.0431C29.4505 24.0144 29.438 23.9875 29.4171 23.9677C29.3963 23.948 29.3687 23.937 29.34 23.9371ZM29.9 23.9371C29.8717 23.9397 29.8455 23.9528 29.8264 23.9738C29.8073 23.9948 29.7967 24.0222 29.7967 24.0506C29.7967 24.079 29.8073 24.1063 29.8264 24.1273C29.8455 24.1483 29.8717 24.1614 29.9 24.1641C29.9157 24.1641 29.9312 24.1609 29.9456 24.1547C29.9599 24.1485 29.9729 24.1394 29.9836 24.1279C29.9943 24.1165 30.0025 24.1029 30.0077 24.0882C30.013 24.0734 30.0151 24.0577 30.014 24.0421C30.0122 24.0134 29.9995 23.9866 29.9785 23.967C29.9574 23.9475 29.9297 23.9368 29.901 23.9371H29.9ZM30.463 23.9371C30.4347 23.9397 30.4085 23.9528 30.3894 23.9738C30.3703 23.9948 30.3597 24.0222 30.3597 24.0506C30.3597 24.079 30.3703 24.1063 30.3894 24.1273C30.4085 24.1483 30.4347 24.1614 30.463 24.1641C30.4787 24.1641 30.4942 24.1609 30.5086 24.1547C30.5229 24.1485 30.5359 24.1394 30.5466 24.1279C30.5573 24.1165 30.5655 24.1029 30.5707 24.0882C30.576 24.0734 30.5781 24.0577 30.577 24.0421C30.5752 24.0132 30.5623 23.9862 30.5411 23.9667C30.5199 23.9471 30.4919 23.9365 30.463 23.9371ZM31.026 23.9371C30.9977 23.9397 30.9715 23.9528 30.9524 23.9738C30.9333 23.9948 30.9227 24.0222 30.9227 24.0506C30.9227 24.079 30.9333 24.1063 30.9524 24.1273C30.9715 24.1483 30.9977 24.1614 31.026 24.1641C31.0416 24.164 31.057 24.1607 31.0712 24.1544C31.0855 24.1481 31.0983 24.139 31.1089 24.1275C31.1195 24.1161 31.1276 24.1026 31.1328 24.0879C31.138 24.0732 31.1401 24.0576 31.139 24.0421C31.1372 24.0134 31.1245 23.9866 31.1035 23.967C31.0824 23.9475 31.0547 23.9368 31.026 23.9371ZM31.588 23.9371C31.5585 23.9376 31.5303 23.9498 31.5097 23.9709C31.4891 23.9921 31.4777 24.0205 31.478 24.0501C31.478 24.1111 31.528 24.1631 31.588 24.1631C31.65 24.1631 31.699 24.1111 31.7 24.0501C31.7006 24.0438 31.7006 24.0374 31.7 24.0311C31.6961 24.0044 31.6825 23.9801 31.6619 23.9628C31.6412 23.9454 31.6149 23.9363 31.588 23.9371ZM32.151 23.9371C32.121 23.9371 32.0923 23.949 32.0711 23.9702C32.0499 23.9914 32.038 24.0201 32.038 24.0501C32.038 24.1121 32.088 24.1641 32.151 24.1631C32.212 24.1631 32.261 24.1111 32.262 24.0501C32.2626 24.0438 32.2626 24.0374 32.262 24.0311C32.2581 24.0046 32.2447 23.9804 32.2243 23.9631C32.2038 23.9458 32.1778 23.9365 32.151 23.9371ZM32.713 23.9371C32.683 23.9371 32.6543 23.949 32.6331 23.9702C32.6119 23.9914 32.6 24.0201 32.6 24.0501C32.6 24.1121 32.651 24.1641 32.713 24.1631C32.7283 24.1628 32.7434 24.1595 32.7574 24.1533C32.7714 24.1471 32.784 24.1381 32.7945 24.1269C32.805 24.1157 32.813 24.1025 32.8183 24.0881C32.8235 24.0737 32.8258 24.0584 32.825 24.0431C32.8235 24.0144 32.811 23.9875 32.7901 23.9677C32.7693 23.948 32.7417 23.937 32.713 23.9371ZM33.276 23.9371C33.246 23.9371 33.2173 23.949 33.1961 23.9702C33.1749 23.9914 33.163 24.0201 33.163 24.0501C33.163 24.1121 33.213 24.1641 33.276 24.1631C33.2912 24.1627 33.3062 24.1593 33.3201 24.153C33.334 24.1467 33.3465 24.1377 33.3568 24.1265C33.3672 24.1153 33.3752 24.1022 33.3804 24.0878C33.3856 24.0735 33.3878 24.0583 33.387 24.0431C33.3855 24.0146 33.3731 23.9878 33.3525 23.9681C33.3319 23.9484 33.3045 23.9373 33.276 23.9371ZM33.838 23.9371C33.808 23.9371 33.7793 23.949 33.7581 23.9702C33.7369 23.9914 33.725 24.0201 33.725 24.0501C33.725 24.1121 33.776 24.1641 33.838 24.1631C33.8533 24.1628 33.8684 24.1595 33.8824 24.1533C33.8964 24.1471 33.909 24.1381 33.9195 24.1269C33.93 24.1157 33.938 24.1025 33.9433 24.0881C33.9485 24.0737 33.9508 24.0584 33.95 24.0431C33.9485 24.0144 33.936 23.9875 33.9151 23.9677C33.8943 23.948 33.8667 23.937 33.838 23.9371ZM34.398 23.9371C34.3697 23.9397 34.3435 23.9528 34.3244 23.9738C34.3053 23.9948 34.2947 24.0222 34.2947 24.0506C34.2947 24.079 34.3053 24.1063 34.3244 24.1273C34.3435 24.1483 34.3697 24.1614 34.398 24.1641C34.4137 24.1641 34.4292 24.1609 34.4436 24.1547C34.4579 24.1485 34.4709 24.1394 34.4816 24.1279C34.4923 24.1165 34.5005 24.1029 34.5057 24.0882C34.511 24.0734 34.5131 24.0577 34.512 24.0421C34.5102 24.0134 34.4975 23.9866 34.4765 23.967C34.4554 23.9475 34.4277 23.9368 34.399 23.9371H34.398ZM14.94 26.7671C14.7253 26.7595 14.5112 26.7952 14.3106 26.8722C14.1099 26.9491 13.9268 27.0656 13.7722 27.2149C13.6176 27.3641 13.4947 27.543 13.4107 27.7407C13.3267 27.9385 13.2834 28.1512 13.2834 28.3661C13.2834 28.5809 13.3267 28.7936 13.4107 28.9914C13.4947 29.1892 13.6176 29.368 13.7722 29.5173C13.9268 29.6665 14.1099 29.7831 14.3106 29.86C14.5112 29.9369 14.7253 29.9727 14.94 29.9651C15.3543 29.9504 15.7467 29.7755 16.0346 29.4773C16.3225 29.179 16.4834 28.7806 16.4834 28.3661C16.4834 27.9515 16.3225 27.5531 16.0346 27.2549C15.7467 26.9566 15.3543 26.7817 14.94 26.7671ZM18.563 26.7671C18.3496 26.7617 18.1373 26.7992 17.9385 26.8771C17.7398 26.9551 17.5587 27.0721 17.4059 27.2211C17.253 27.3702 17.1316 27.5483 17.0487 27.7451C16.9657 27.9418 16.923 28.1531 16.923 28.3666C16.923 28.5801 16.9657 28.7914 17.0487 28.9881C17.1316 29.1848 17.253 29.3629 17.4059 29.512C17.5587 29.6611 17.7398 29.778 17.9385 29.856C18.1373 29.934 18.3496 29.9714 18.563 29.9661C18.9873 29.9661 19.3943 29.7975 19.6944 29.4974C19.9944 29.1974 20.163 28.7904 20.163 28.3661C20.163 27.9417 19.9944 27.5348 19.6944 27.2347C19.3943 26.9346 18.9873 26.7661 18.563 26.7661V26.7671ZM22.188 26.7671C21.9746 26.7617 21.7623 26.7992 21.5635 26.8771C21.3648 26.9551 21.1837 27.0721 21.0309 27.2211C20.878 27.3702 20.7566 27.5483 20.6737 27.7451C20.5907 27.9418 20.548 28.1531 20.548 28.3666C20.548 28.5801 20.5907 28.7914 20.6737 28.9881C20.7566 29.1848 20.878 29.3629 21.0309 29.512C21.1837 29.6611 21.3648 29.778 21.5635 29.856C21.7623 29.934 21.9746 29.9714 22.188 29.9661C22.6123 29.9661 23.0193 29.7975 23.3194 29.4974C23.6194 29.1974 23.788 28.7904 23.788 28.3661C23.788 27.9417 23.6194 27.5348 23.3194 27.2347C23.0193 26.9346 22.6123 26.7661 22.188 26.7661V26.7671ZM25.811 26.7671C25.5976 26.7617 25.3853 26.7992 25.1865 26.8771C24.9878 26.9551 24.8067 27.0721 24.6539 27.2211C24.501 27.3702 24.3796 27.5483 24.2967 27.7451C24.2137 27.9418 24.171 28.1531 24.171 28.3666C24.171 28.5801 24.2137 28.7914 24.2967 28.9881C24.3796 29.1848 24.501 29.3629 24.6539 29.512C24.8067 29.6611 24.9878 29.778 25.1865 29.856C25.3853 29.934 25.5976 29.9714 25.811 29.9661C26.2353 29.9661 26.6423 29.7975 26.9424 29.4974C27.2424 29.1974 27.411 28.7904 27.411 28.3661C27.411 27.9417 27.2424 27.5348 26.9424 27.2347C26.6423 26.9346 26.2353 26.7661 25.811 26.7661V26.7671ZM29.434 26.7671C29.2206 26.7617 29.0083 26.7992 28.8095 26.8771C28.6108 26.9551 28.4297 27.0721 28.2769 27.2211C28.124 27.3702 28.0026 27.5483 27.9197 27.7451C27.8367 27.9418 27.794 28.1531 27.794 28.3666C27.794 28.5801 27.8367 28.7914 27.9197 28.9881C28.0026 29.1848 28.124 29.3629 28.2769 29.512C28.4297 29.6611 28.6108 29.778 28.8095 29.856C29.0083 29.934 29.2206 29.9714 29.434 29.9661C29.8583 29.9661 30.2653 29.7975 30.5654 29.4974C30.8654 29.1974 31.034 28.7904 31.034 28.3661C31.034 27.9417 30.8654 27.5348 30.5654 27.2347C30.2653 26.9346 29.8583 26.7661 29.434 26.7661V26.7671ZM33.059 26.7671C32.8456 26.7617 32.6333 26.7992 32.4345 26.8771C32.2358 26.9551 32.0547 27.0721 31.9019 27.2211C31.749 27.3702 31.6276 27.5483 31.5447 27.7451C31.4617 27.9418 31.419 28.1531 31.419 28.3666C31.419 28.5801 31.4617 28.7914 31.5447 28.9881C31.6276 29.1848 31.749 29.3629 31.9019 29.512C32.0547 29.6611 32.2358 29.778 32.4345 29.856C32.6333 29.934 32.8456 29.9714 33.059 29.9661C33.4833 29.9661 33.8903 29.7975 34.1904 29.4974C34.4904 29.1974 34.659 28.7904 34.659 28.3661C34.659 27.9417 34.4904 27.5348 34.1904 27.2347C33.8903 26.9346 33.4833 26.7661 33.059 26.7661V26.7671ZM13.596 32.9371C13.5813 32.9372 13.5668 32.9402 13.5532 32.946C13.5397 32.9517 13.5274 32.9601 13.5171 32.9706C13.5068 32.9811 13.4986 32.9935 13.4931 33.0071C13.4876 33.0208 13.4849 33.0354 13.485 33.0501C13.485 33.1111 13.535 33.1631 13.596 33.1631C13.6261 33.1631 13.6549 33.1512 13.6763 33.13C13.6976 33.1089 13.7097 33.0801 13.71 33.0501C13.7101 33.0351 13.7073 33.0203 13.7016 33.0064C13.6959 32.9926 13.6875 32.98 13.6769 32.9695C13.6662 32.959 13.6536 32.9507 13.6397 32.9451C13.6258 32.9395 13.611 32.9368 13.596 32.9371ZM14.159 32.9371C14.1289 32.9371 14.1001 32.9489 14.0787 32.9701C14.0574 32.9913 14.0453 33.02 14.045 33.0501C14.045 33.1111 14.097 33.1631 14.159 33.1631C14.219 33.1631 14.269 33.1111 14.27 33.0501C14.2706 33.0438 14.2706 33.0374 14.27 33.0311C14.2661 33.0046 14.2527 32.9804 14.2323 32.9631C14.2118 32.9458 14.1858 32.9365 14.159 32.9371ZM14.721 32.9371C14.691 32.9371 14.6623 32.949 14.6411 32.9702C14.6199 32.9914 14.608 33.0201 14.608 33.0501C14.608 33.1121 14.659 33.1641 14.721 33.1631C14.782 33.1631 14.831 33.1111 14.832 33.0501C14.8326 33.0438 14.8326 33.0374 14.832 33.0311C14.8281 33.0047 14.8149 32.9807 14.7946 32.9634C14.7744 32.9462 14.7486 32.9368 14.722 32.9371H14.721ZM15.284 32.9371C15.2691 32.9369 15.2543 32.9398 15.2404 32.9454C15.2266 32.951 15.214 32.9593 15.2034 32.9698C15.1929 32.9803 15.1844 32.9928 15.1787 33.0066C15.173 33.0204 15.17 33.0351 15.17 33.0501C15.17 33.1121 15.222 33.1641 15.284 33.1631C15.344 33.1631 15.394 33.1111 15.395 33.0501V33.0421C15.3932 33.0138 15.3808 32.9872 15.3602 32.9677C15.3396 32.9482 15.3124 32.9373 15.284 32.9371ZM15.846 32.9371C15.816 32.9371 15.7873 32.949 15.7661 32.9702C15.7449 32.9914 15.733 33.0201 15.733 33.0501C15.733 33.1121 15.784 33.1641 15.846 33.1631C15.907 33.1631 15.956 33.1111 15.957 33.0501V33.0421C15.9552 33.0139 15.9429 32.9875 15.9226 32.968C15.9022 32.9486 15.8752 32.9375 15.847 32.9371H15.846ZM16.409 32.9371C16.3941 32.9369 16.3793 32.9398 16.3654 32.9454C16.3516 32.951 16.339 32.9593 16.3284 32.9698C16.3179 32.9803 16.3094 32.9928 16.3037 33.0066C16.298 33.0204 16.295 33.0351 16.295 33.0501C16.295 33.1121 16.347 33.1641 16.409 33.1631C16.469 33.1631 16.519 33.1111 16.52 33.0501V33.0421C16.5182 33.0138 16.5058 32.9872 16.4852 32.9677C16.4646 32.9482 16.4374 32.9373 16.409 32.9371ZM16.969 32.9371C16.9394 32.9376 16.9111 32.9497 16.8904 32.9709C16.8696 32.992 16.858 33.0204 16.858 33.0501C16.858 33.1111 16.908 33.1631 16.969 33.1631C16.9989 33.1628 17.0275 33.1508 17.0486 33.1297C17.0697 33.1086 17.0817 33.08 17.082 33.0501V33.0421C17.0802 33.0134 17.0675 32.9866 17.0465 32.967C17.0254 32.9475 16.9977 32.9368 16.969 32.9371ZM17.532 32.9371C17.5022 32.9373 17.4737 32.9494 17.4527 32.9705C17.4318 32.9917 17.42 33.0203 17.42 33.0501C17.42 33.1111 17.47 33.1631 17.532 33.1631C17.5619 33.1628 17.5905 33.1508 17.6116 33.1297C17.6327 33.1086 17.6447 33.08 17.645 33.0501V33.0421C17.6432 33.0134 17.6305 32.9866 17.6095 32.967C17.5884 32.9475 17.5607 32.9368 17.532 32.9371ZM18.094 32.9371C18.0644 32.9376 18.0361 32.9497 18.0154 32.9709C17.9946 32.992 17.983 33.0204 17.983 33.0501C17.983 33.1111 18.033 33.1631 18.094 33.1631C18.1239 33.1628 18.1525 33.1508 18.1736 33.1297C18.1947 33.1086 18.2067 33.08 18.207 33.0501V33.0421C18.2052 33.0134 18.1925 32.9866 18.1715 32.967C18.1504 32.9475 18.1227 32.9368 18.094 32.9371ZM18.657 32.9371C18.6422 32.9371 18.6276 32.94 18.6139 32.9457C18.6003 32.9514 18.5879 32.9597 18.5774 32.9702C18.567 32.9807 18.5588 32.9932 18.5532 33.0069C18.5477 33.0206 18.5449 33.0353 18.545 33.0501C18.545 33.1111 18.595 33.1631 18.657 33.1631C18.718 33.1631 18.767 33.1111 18.768 33.0501C18.7686 33.0438 18.7686 33.0374 18.768 33.0311C18.7641 33.0046 18.7507 32.9804 18.7303 32.9631C18.7098 32.9458 18.6838 32.9365 18.657 32.9371ZM19.219 32.9371C19.189 32.9371 19.1603 32.949 19.1391 32.9702C19.1179 32.9914 19.106 33.0201 19.106 33.0501C19.106 33.1121 19.157 33.1641 19.219 33.1631C19.28 33.1631 19.329 33.1111 19.331 33.0501V33.0421C19.3292 33.0136 19.3166 32.9869 19.2958 32.9674C19.275 32.9479 19.2475 32.937 19.219 32.9371ZM19.782 32.9371C19.752 32.9371 19.7233 32.949 19.7021 32.9702C19.6809 32.9914 19.669 33.0201 19.669 33.0501C19.669 33.1121 19.719 33.1641 19.782 33.1631C19.843 33.1631 19.892 33.1111 19.893 33.0501V33.0421C19.8912 33.0138 19.8788 32.9872 19.8582 32.9677C19.8376 32.9482 19.8104 32.9373 19.782 32.9371ZM20.344 32.9371C20.314 32.9371 20.2853 32.949 20.2641 32.9702C20.2429 32.9914 20.231 33.0201 20.231 33.0501C20.231 33.1121 20.282 33.1641 20.344 33.1631C20.405 33.1631 20.454 33.1111 20.456 33.0501V33.0421C20.4542 33.0136 20.4416 32.9869 20.4208 32.9674C20.4 32.9479 20.3725 32.937 20.344 32.9371ZM20.907 32.9371C20.877 32.9371 20.8483 32.949 20.8271 32.9702C20.8059 32.9914 20.794 33.0201 20.794 33.0501C20.794 33.1121 20.844 33.1641 20.907 33.1631C20.968 33.1631 21.017 33.1111 21.018 33.0501V33.0421C21.0162 33.0138 21.0038 32.9872 20.9832 32.9677C20.9626 32.9482 20.9354 32.9373 20.907 32.9371ZM21.467 32.9371C21.4523 32.9372 21.4378 32.9402 21.4242 32.946C21.4107 32.9517 21.3984 32.9601 21.3881 32.9706C21.3778 32.9811 21.3696 32.9935 21.3641 33.0071C21.3586 33.0208 21.3559 33.0354 21.356 33.0501C21.356 33.1111 21.406 33.1631 21.467 33.1631C21.4971 33.1631 21.5259 33.1512 21.5473 33.13C21.5686 33.1089 21.5807 33.0801 21.581 33.0501V33.0421C21.5792 33.0132 21.5663 32.9862 21.5451 32.9667C21.5239 32.9471 21.4959 32.9365 21.467 32.9371ZM22.03 32.9371C22.0153 32.9372 22.0008 32.9402 21.9872 32.946C21.9737 32.9517 21.9614 32.9601 21.9511 32.9706C21.9408 32.9811 21.9326 32.9935 21.9271 33.0071C21.9216 33.0208 21.9189 33.0354 21.919 33.0501C21.919 33.1111 21.969 33.1631 22.029 33.1631C22.0591 33.1631 22.0879 33.1512 22.1093 33.13C22.1306 33.1089 22.1427 33.0801 22.143 33.0501V33.0421C22.1412 33.0134 22.1285 32.9866 22.1075 32.967C22.0864 32.9475 22.0587 32.9368 22.03 32.9371ZM22.592 32.9371C22.5773 32.9372 22.5628 32.9402 22.5492 32.946C22.5357 32.9517 22.5234 32.9601 22.5131 32.9706C22.5028 32.9811 22.4946 32.9935 22.4891 33.0071C22.4836 33.0208 22.4809 33.0354 22.481 33.0501C22.481 33.1111 22.531 33.1631 22.592 33.1631C22.6221 33.1631 22.6509 33.1512 22.6723 33.13C22.6936 33.1089 22.7057 33.0801 22.706 33.0501C22.706 33.0351 22.703 33.0204 22.6973 33.0066C22.6916 32.9928 22.6831 32.9803 22.6726 32.9698C22.662 32.9593 22.6494 32.951 22.6355 32.9454C22.6217 32.9398 22.6069 32.9369 22.592 32.9371ZM23.155 32.9371C23.1403 32.9372 23.1258 32.9402 23.1122 32.946C23.0987 32.9517 23.0864 32.9601 23.0761 32.9706C23.0658 32.9811 23.0576 32.9935 23.0521 33.0071C23.0466 33.0208 23.0439 33.0354 23.044 33.0501C23.044 33.1111 23.094 33.1631 23.154 33.1631C23.1837 33.1626 23.212 33.1504 23.233 33.1293C23.2539 33.1082 23.2657 33.0798 23.266 33.0501C23.2666 33.0438 23.2666 33.0374 23.266 33.0311C23.2619 33.0047 23.2484 32.9806 23.228 32.9634C23.2077 32.9461 23.1817 32.9368 23.155 32.9371ZM23.717 32.9371C23.687 32.9371 23.6583 32.949 23.6371 32.9702C23.6159 32.9914 23.604 33.0201 23.604 33.0501C23.604 33.1121 23.655 33.1641 23.717 33.1631C23.778 33.1631 23.827 33.1111 23.829 33.0501C23.8296 33.0438 23.8296 33.0374 23.829 33.0311C23.8251 33.0044 23.8115 32.9801 23.7909 32.9628C23.7702 32.9454 23.7439 32.9363 23.717 32.9371ZM24.28 32.9371C24.25 32.9371 24.2213 32.949 24.2001 32.9702C24.1789 32.9914 24.167 33.0201 24.167 33.0501C24.167 33.1121 24.217 33.1641 24.28 33.1631C24.341 33.1631 24.39 33.1111 24.391 33.0501V33.0421C24.3892 33.0138 24.3768 32.9872 24.3562 32.9677C24.3356 32.9482 24.3084 32.9373 24.28 32.9371ZM24.842 32.9371C24.812 32.9371 24.7833 32.949 24.7621 32.9702C24.7409 32.9914 24.729 33.0201 24.729 33.0501C24.729 33.1121 24.78 33.1641 24.842 33.1631C24.903 33.1631 24.952 33.1111 24.954 33.0501V33.0421C24.9522 33.0136 24.9396 32.9869 24.9188 32.9674C24.898 32.9479 24.8705 32.937 24.842 32.9371ZM25.402 32.9371C25.3725 32.9376 25.3443 32.9498 25.3237 32.9709C25.3031 32.9921 25.2917 33.0205 25.292 33.0501C25.292 33.1111 25.342 33.1631 25.402 33.1631C25.4321 33.1631 25.4609 33.1512 25.4823 33.13C25.5036 33.1089 25.5157 33.0801 25.516 33.0501V33.0421C25.5142 33.0134 25.5015 32.9866 25.4805 32.967C25.4594 32.9475 25.4317 32.9368 25.403 32.9371H25.402ZM25.965 32.9371C25.9354 32.9376 25.9071 32.9497 25.8864 32.9709C25.8656 32.992 25.854 33.0204 25.854 33.0501C25.854 33.1111 25.904 33.1631 25.965 33.1631C25.9951 33.1631 26.0239 33.1512 26.0453 33.13C26.0666 33.1089 26.0787 33.0801 26.079 33.0501V33.0421C26.0772 33.0132 26.0643 32.9862 26.0431 32.9667C26.0219 32.9471 25.9939 32.9365 25.965 32.9371ZM26.528 32.9371C26.4984 32.9376 26.4701 32.9497 26.4494 32.9709C26.4286 32.992 26.417 33.0204 26.417 33.0501C26.417 33.1111 26.467 33.1631 26.527 33.1631C26.5571 33.1631 26.5859 33.1512 26.6073 33.13C26.6286 33.1089 26.6407 33.0801 26.641 33.0501V33.0421C26.6392 33.0134 26.6265 32.9866 26.6055 32.967C26.5844 32.9475 26.5567 32.9368 26.528 32.9371ZM27.09 32.9371C27.0604 32.9376 27.0321 32.9497 27.0114 32.9709C26.9906 32.992 26.979 33.0204 26.979 33.0501C26.979 33.1111 27.029 33.1631 27.09 33.1631C27.1201 33.1631 27.1489 33.1512 27.1703 33.13C27.1916 33.1089 27.2037 33.0801 27.204 33.0501C27.2041 33.0351 27.2013 33.0203 27.1956 33.0064C27.1899 32.9926 27.1815 32.98 27.1709 32.9695C27.1602 32.959 27.1476 32.9507 27.1337 32.9451C27.1198 32.9395 27.105 32.9368 27.09 32.9371ZM27.653 32.9371C27.6383 32.9372 27.6238 32.9402 27.6102 32.946C27.5967 32.9517 27.5844 32.9601 27.5741 32.9706C27.5638 32.9811 27.5556 32.9935 27.5501 33.0071C27.5446 33.0208 27.5419 33.0354 27.542 33.0501C27.542 33.1111 27.592 33.1631 27.652 33.1631C27.714 33.1631 27.763 33.1111 27.764 33.0501C27.7645 33.0437 27.7645 33.0374 27.764 33.0311C27.7601 33.0046 27.7467 32.9804 27.7263 32.9631C27.7058 32.9458 27.6798 32.9365 27.653 32.9371ZM28.215 32.9371C28.185 32.9371 28.1563 32.949 28.1351 32.9702C28.1139 32.9914 28.102 33.0201 28.102 33.0501C28.102 33.1121 28.153 33.1641 28.215 33.1631C28.277 33.1631 28.325 33.1111 28.327 33.0501V33.0421C28.3252 33.0136 28.3126 32.9869 28.2918 32.9674C28.271 32.9479 28.2435 32.937 28.215 32.9371ZM28.778 32.9371C28.748 32.9371 28.7193 32.949 28.6981 32.9702C28.6769 32.9914 28.665 33.0201 28.665 33.0501C28.665 33.1121 28.715 33.1641 28.778 33.1631C28.839 33.1631 28.888 33.1111 28.889 33.0501V33.0421C28.8872 33.0138 28.8748 32.9872 28.8542 32.9677C28.8336 32.9482 28.8064 32.9373 28.778 32.9371ZM29.34 32.9371C29.31 32.9371 29.2813 32.949 29.2601 32.9702C29.2389 32.9914 29.227 33.0201 29.227 33.0501C29.227 33.1121 29.278 33.1641 29.34 33.1631C29.402 33.1631 29.45 33.1111 29.452 33.0501V33.0421C29.4502 33.0136 29.4376 32.9869 29.4168 32.9674C29.396 32.9479 29.3685 32.937 29.34 32.9371ZM29.9 32.9371C29.8705 32.9376 29.8423 32.9498 29.8217 32.9709C29.8011 32.9921 29.7897 33.0205 29.79 33.0501C29.79 33.1111 29.84 33.1631 29.9 33.1631C29.9301 33.1631 29.9589 33.1512 29.9803 33.13C30.0016 33.1089 30.0137 33.0801 30.014 33.0501V33.0421C30.0122 33.0134 29.9995 32.9866 29.9785 32.967C29.9574 32.9475 29.9297 32.9368 29.901 32.9371H29.9ZM30.463 32.9371C30.4335 32.9376 30.4053 32.9498 30.3847 32.9709C30.3641 32.9921 30.3527 33.0205 30.353 33.0501C30.353 33.1111 30.402 33.1631 30.463 33.1631C30.4931 33.1631 30.5219 33.1512 30.5433 33.13C30.5646 33.1089 30.5767 33.0801 30.577 33.0501V33.0421C30.5752 33.0132 30.5623 32.9862 30.5411 32.9667C30.5199 32.9471 30.4919 32.9365 30.463 32.9371ZM31.026 32.9371C31.0113 32.9372 30.9968 32.9402 30.9832 32.946C30.9697 32.9517 30.9574 32.9601 30.9471 32.9706C30.9368 32.9811 30.9286 32.9935 30.9231 33.0071C30.9176 33.0208 30.9149 33.0354 30.915 33.0501C30.915 33.1111 30.965 33.1631 31.025 33.1631C31.0551 33.1631 31.0839 33.1512 31.1053 33.13C31.1266 33.1089 31.1387 33.0801 31.139 33.0501V33.0421C31.1372 33.0134 31.1245 32.9866 31.1035 32.967C31.0824 32.9475 31.0547 32.9368 31.026 32.9371ZM31.588 32.9371C31.5585 32.9376 31.5303 32.9498 31.5097 32.9709C31.4891 32.9921 31.4777 33.0205 31.478 33.0501C31.478 33.1111 31.528 33.1631 31.588 33.1631C31.65 33.1631 31.699 33.1111 31.7 33.0501C31.7006 33.0438 31.7006 33.0374 31.7 33.0311C31.6961 33.0044 31.6825 32.9801 31.6619 32.9628C31.6412 32.9454 31.6149 32.9363 31.588 32.9371ZM32.151 32.9371C32.121 32.9371 32.0923 32.949 32.0711 32.9702C32.0499 32.9914 32.038 33.0201 32.038 33.0501C32.038 33.1121 32.088 33.1641 32.151 33.1631C32.212 33.1631 32.261 33.1111 32.262 33.0501C32.2626 33.0438 32.2626 33.0374 32.262 33.0311C32.2581 33.0046 32.2447 32.9804 32.2243 32.9631C32.2038 32.9458 32.1778 32.9365 32.151 32.9371ZM32.713 32.9371C32.683 32.9371 32.6543 32.949 32.6331 32.9702C32.6119 32.9914 32.6 33.0201 32.6 33.0501C32.6 33.1121 32.651 33.1641 32.713 33.1631C32.775 33.1631 32.824 33.1111 32.825 33.0501V33.0421C32.8232 33.0136 32.8106 32.9869 32.7898 32.9674C32.769 32.9479 32.7415 32.937 32.713 32.9371ZM33.276 32.9371C33.246 32.9371 33.2173 32.949 33.1961 32.9702C33.1749 32.9914 33.163 33.0201 33.163 33.0501C33.163 33.1121 33.213 33.1641 33.276 33.1631C33.337 33.1631 33.386 33.1111 33.387 33.0501V33.0421C33.3852 33.0138 33.3728 32.9872 33.3522 32.9677C33.3316 32.9482 33.3044 32.9373 33.276 32.9371ZM33.838 32.9371C33.808 32.9371 33.7793 32.949 33.7581 32.9702C33.7369 32.9914 33.725 33.0201 33.725 33.0501C33.725 33.1121 33.776 33.1641 33.838 33.1631C33.9 33.1631 33.949 33.1111 33.95 33.0501V33.0421C33.9482 33.0136 33.9356 32.9869 33.9148 32.9674C33.894 32.9479 33.8665 32.937 33.838 32.9371ZM34.398 32.9371C34.3685 32.9376 34.3403 32.9498 34.3197 32.9709C34.2991 32.9921 34.2877 33.0205 34.288 33.0501C34.288 33.1111 34.338 33.1631 34.398 33.1631C34.4281 33.1631 34.4569 33.1512 34.4783 33.13C34.4996 33.1089 34.5117 33.0801 34.512 33.0501V33.0421C34.5102 33.0134 34.4975 32.9866 34.4765 32.967C34.4554 32.9475 34.4277 32.9368 34.399 32.9371H34.398ZM14.958 35.3961C14.7433 35.3884 14.5292 35.4241 14.3285 35.501C14.1279 35.5778 13.9448 35.6943 13.7901 35.8435C13.6355 35.9927 13.5124 36.1715 13.4284 36.3693C13.3444 36.567 13.301 36.7797 13.3009 36.9946C13.3009 37.2094 13.3441 37.4221 13.428 37.6199C13.5119 37.8177 13.6348 37.9966 13.7894 38.1459C13.9439 38.2952 14.127 38.4118 14.3276 38.4888C14.5282 38.5658 14.7423 38.6016 14.957 38.5941C15.3713 38.5794 15.7637 38.4045 16.0516 38.1063C16.3395 37.808 16.5004 37.4096 16.5004 36.9951C16.5004 36.5805 16.3395 36.1821 16.0516 35.8839C15.7637 35.5856 15.3713 35.4107 14.957 35.3961H14.958ZM18.581 35.3961C18.3663 35.3884 18.1522 35.4241 17.9515 35.501C17.7509 35.5778 17.5678 35.6943 17.4131 35.8435C17.2585 35.9927 17.1354 36.1715 17.0514 36.3693C16.9674 36.567 16.924 36.7797 16.9239 36.9946C16.9239 37.2094 16.9671 37.4221 17.051 37.6199C17.1349 37.8177 17.2578 37.9966 17.4124 38.1459C17.5669 38.2952 17.75 38.4118 17.9506 38.4888C18.1512 38.5658 18.3653 38.6016 18.58 38.5941C18.9943 38.5794 19.3867 38.4045 19.6746 38.1063C19.9625 37.808 20.1234 37.4096 20.1234 36.9951C20.1234 36.5805 19.9625 36.1821 19.6746 35.8839C19.3867 35.5856 18.9943 35.4107 18.58 35.3961H18.581ZM22.206 35.3961C21.9913 35.3884 21.7772 35.4241 21.5765 35.501C21.3759 35.5778 21.1928 35.6943 21.0381 35.8435C20.8835 35.9927 20.7604 36.1715 20.6764 36.3693C20.5924 36.567 20.549 36.7797 20.5489 36.9946C20.5489 37.2094 20.5921 37.4221 20.676 37.6199C20.7599 37.8177 20.8828 37.9966 21.0374 38.1459C21.1919 38.2952 21.375 38.4118 21.5756 38.4888C21.7762 38.5658 21.9903 38.6016 22.205 38.5941C22.6193 38.5794 23.0117 38.4045 23.2996 38.1063C23.5875 37.808 23.7484 37.4096 23.7484 36.9951C23.7484 36.5805 23.5875 36.1821 23.2996 35.8839C23.0117 35.5856 22.6193 35.4107 22.205 35.3961H22.206ZM25.829 35.3961C25.6143 35.3885 25.4002 35.4242 25.1996 35.5011C24.9989 35.5781 24.8158 35.6946 24.6612 35.8439C24.5066 35.9931 24.3837 36.172 24.2997 36.3697C24.2157 36.5675 24.1724 36.7802 24.1724 36.9951C24.1724 37.2099 24.2157 37.4226 24.2997 37.6204C24.3837 37.8182 24.5066 37.997 24.6612 38.1463C24.8158 38.2955 24.9989 38.4121 25.1996 38.489C25.4002 38.5659 25.6143 38.6017 25.829 38.5941C26.2433 38.5794 26.6357 38.4045 26.9236 38.1063C27.2115 37.808 27.3724 37.4096 27.3724 36.9951C27.3724 36.5805 27.2115 36.1821 26.9236 35.8839C26.6357 35.5856 26.2433 35.4107 25.829 35.3961ZM29.452 35.3961C29.2373 35.3884 29.0232 35.4241 28.8225 35.501C28.6219 35.5778 28.4388 35.6943 28.2841 35.8435C28.1295 35.9927 28.0064 36.1715 27.9224 36.3693C27.8384 36.567 27.795 36.7797 27.7949 36.9946C27.7949 37.2094 27.8381 37.4221 27.922 37.6199C28.0059 37.8177 28.1288 37.9966 28.2834 38.1459C28.4379 38.2952 28.621 38.4118 28.8216 38.4888C29.0222 38.5658 29.2363 38.6016 29.451 38.5941C29.8653 38.5794 30.2577 38.4045 30.5456 38.1063C30.8335 37.808 30.9944 37.4096 30.9944 36.9951C30.9944 36.5805 30.8335 36.1821 30.5456 35.8839C30.2577 35.5856 29.8653 35.4107 29.451 35.3961H29.452ZM33.077 35.3961C32.8623 35.3884 32.6482 35.4241 32.4475 35.501C32.2469 35.5778 32.0638 35.6943 31.9091 35.8435C31.7545 35.9927 31.6314 36.1715 31.5474 36.3693C31.4634 36.567 31.42 36.7797 31.4199 36.9946C31.4199 37.2094 31.4631 37.4221 31.547 37.6199C31.6309 37.8177 31.7538 37.9966 31.9084 38.1459C32.0629 38.2952 32.246 38.4118 32.4466 38.4888C32.6472 38.5658 32.8613 38.6016 33.076 38.5941C33.4903 38.5794 33.8827 38.4045 34.1706 38.1063C34.4585 37.808 34.6194 37.4096 34.6194 36.9951C34.6194 36.5805 34.4585 36.1821 34.1706 35.8839C33.8827 35.5856 33.4903 35.4107 33.076 35.3961H33.077Z" fill="#333333"/>
</svg>
