<svg width="48" height="48" viewBox="0 0 48 48" fill="none" xmlns="http://www.w3.org/2000/svg">
<path fill-rule="evenodd" clip-rule="evenodd" d="M0 0V48H48V0H0ZM14.24 4.1H33.94C34.81 4.1 35.51 4.8 35.51 5.66V42.52C35.51 43.39 34.81 44.09 33.94 44.09H14.24C13.37 44.09 12.67 43.39 12.67 42.52V5.66C12.67 4.79 13.37 4.09 14.24 4.09V4.1ZM16.31 8.43C16.0999 8.43 15.8918 8.47139 15.6977 8.55179C15.5036 8.6322 15.3272 8.75006 15.1786 8.89863C15.0301 9.0472 14.9122 9.22359 14.8318 9.41771C14.7514 9.61183 14.71 9.81988 14.71 10.03C14.71 10.2401 14.7514 10.4482 14.8318 10.6423C14.9122 10.8364 15.0301 11.0128 15.1786 11.1614C15.3272 11.3099 15.5036 11.4278 15.6977 11.5082C15.8918 11.5886 16.0999 11.63 16.31 11.63C16.7343 11.63 17.1413 11.4614 17.4414 11.1614C17.7414 10.8613 17.91 10.4543 17.91 10.03C17.91 9.60565 17.7414 9.19869 17.4414 8.89863C17.1413 8.59857 16.7343 8.43 16.31 8.43ZM20.14 8.43C19.9299 8.43 19.7218 8.47139 19.5277 8.55179C19.3336 8.6322 19.1572 8.75006 19.0086 8.89863C18.8601 9.0472 18.7422 9.22359 18.6618 9.41771C18.5814 9.61183 18.54 9.81988 18.54 10.03C18.54 10.2401 18.5814 10.4482 18.6618 10.6423C18.7422 10.8364 18.8601 11.0128 19.0086 11.1614C19.1572 11.3099 19.3336 11.4278 19.5277 11.5082C19.7218 11.5886 19.9299 11.63 20.14 11.63C20.5643 11.63 20.9713 11.4614 21.2714 11.1614C21.5714 10.8613 21.74 10.4543 21.74 10.03C21.74 9.60565 21.5714 9.19869 21.2714 8.89863C20.9713 8.59857 20.5643 8.43 20.14 8.43ZM23.98 8.43C23.7699 8.43 23.5618 8.47139 23.3677 8.55179C23.1736 8.6322 22.9972 8.75006 22.8486 8.89863C22.7001 9.0472 22.5822 9.22359 22.5018 9.41771C22.4214 9.61183 22.38 9.81988 22.38 10.03C22.38 10.2401 22.4214 10.4482 22.5018 10.6423C22.5822 10.8364 22.7001 11.0128 22.8486 11.1614C22.9972 11.3099 23.1736 11.4278 23.3677 11.5082C23.5618 11.5886 23.7699 11.63 23.98 11.63C24.4043 11.63 24.8113 11.4614 25.1114 11.1614C25.4114 10.8613 25.58 10.4543 25.58 10.03C25.58 9.60565 25.4114 9.19869 25.1114 8.89863C24.8113 8.59857 24.4043 8.43 23.98 8.43ZM27.81 8.43C27.5999 8.43 27.3918 8.47139 27.1977 8.55179C27.0036 8.6322 26.8272 8.75006 26.6786 8.89863C26.5301 9.0472 26.4122 9.22359 26.3318 9.41771C26.2514 9.61183 26.21 9.81988 26.21 10.03C26.21 10.2401 26.2514 10.4482 26.3318 10.6423C26.4122 10.8364 26.5301 11.0128 26.6786 11.1614C26.8272 11.3099 27.0036 11.4278 27.1977 11.5082C27.3918 11.5886 27.5999 11.63 27.81 11.63C28.2343 11.63 28.6413 11.4614 28.9414 11.1614C29.2414 10.8613 29.41 10.4543 29.41 10.03C29.41 9.60565 29.2414 9.19869 28.9414 8.89863C28.6413 8.59857 28.2343 8.43 27.81 8.43ZM31.65 8.43C31.4399 8.43 31.2318 8.47139 31.0377 8.55179C30.8436 8.6322 30.6672 8.75006 30.5186 8.89863C30.3701 9.0472 30.2522 9.22359 30.1718 9.41771C30.0914 9.61183 30.05 9.81988 30.05 10.03C30.05 10.2401 30.0914 10.4482 30.1718 10.6423C30.2522 10.8364 30.3701 11.0128 30.5186 11.1614C30.6672 11.3099 30.8436 11.4278 31.0377 11.5082C31.2318 11.5886 31.4399 11.63 31.65 11.63C32.0743 11.63 32.4813 11.4614 32.7814 11.1614C33.0814 10.8613 33.25 10.4543 33.25 10.03C33.25 9.60565 33.0814 9.19869 32.7814 8.89863C32.4813 8.59857 32.0743 8.43 31.65 8.43ZM13.69 14.03C13.6747 14.0299 13.6595 14.0331 13.6455 14.0392C13.6314 14.0454 13.6188 14.0544 13.6085 14.0657C13.5981 14.077 13.5902 14.0903 13.5853 14.1048C13.5804 14.1194 13.5786 14.1347 13.58 14.15C13.58 14.21 13.63 14.26 13.68 14.26C13.7061 14.2693 13.7347 14.2685 13.7601 14.2577C13.7856 14.2469 13.8061 14.2268 13.8174 14.2016C13.8288 14.1763 13.8302 14.1478 13.8214 14.1215C13.8126 14.0953 13.7943 14.0733 13.77 14.06C13.7469 14.0432 13.7183 14.036 13.69 14.04V14.03ZM14.25 14.03C14.2347 14.0299 14.2195 14.0331 14.2055 14.0392C14.1914 14.0454 14.1788 14.0544 14.1685 14.0657C14.1581 14.077 14.1502 14.0903 14.1453 14.1048C14.1404 14.1194 14.1386 14.1347 14.14 14.15C14.14 14.21 14.19 14.26 14.25 14.26C14.31 14.26 14.36 14.21 14.36 14.15V14.13C14.3575 14.1026 14.3448 14.0771 14.3244 14.0586C14.3041 14.0401 14.2775 14.0299 14.25 14.03ZM14.81 14.03C14.7947 14.0299 14.7795 14.0331 14.7655 14.0392C14.7514 14.0454 14.7388 14.0544 14.7285 14.0657C14.7181 14.077 14.7102 14.0903 14.7053 14.1048C14.7004 14.1194 14.6986 14.1347 14.7 14.15C14.7 14.21 14.75 14.26 14.81 14.26C14.87 14.26 14.92 14.21 14.92 14.15V14.13C14.9177 14.1042 14.9065 14.0801 14.8882 14.0618C14.8699 14.0435 14.8458 14.0323 14.82 14.03H14.81ZM15.37 14.03C15.3471 14.0312 15.3251 14.0396 15.3072 14.0539C15.2892 14.0683 15.2762 14.0879 15.27 14.11V14.15C15.27 14.21 15.31 14.26 15.37 14.26C15.3949 14.2644 15.4206 14.2601 15.4427 14.2478C15.4648 14.2356 15.482 14.216 15.4914 14.1925C15.5008 14.1691 15.5018 14.1431 15.4942 14.1189C15.4867 14.0948 15.4711 14.074 15.45 14.06C15.4296 14.0456 15.4049 14.0385 15.38 14.04L15.37 14.03ZM15.94 14.03C15.9239 14.0285 15.9076 14.0305 15.8923 14.036C15.877 14.0415 15.8632 14.0502 15.8517 14.0617C15.8402 14.0732 15.8315 14.087 15.826 14.1023C15.8205 14.1176 15.8185 14.1339 15.82 14.15C15.82 14.21 15.88 14.26 15.94 14.26C15.9545 14.2587 15.9685 14.2546 15.9814 14.2479C15.9943 14.2412 16.0057 14.232 16.015 14.2208C16.0243 14.2097 16.0313 14.1968 16.0356 14.1829C16.0399 14.169 16.0414 14.1545 16.04 14.14C16.0377 14.1142 16.0265 14.0901 16.0082 14.0718C15.9899 14.0535 15.9658 14.0423 15.94 14.04V14.03ZM16.5 14.03C16.4771 14.0312 16.4551 14.0396 16.4372 14.0539C16.4192 14.0683 16.4062 14.0879 16.4 14.11L16.39 14.15C16.39 14.21 16.44 14.26 16.5 14.26C16.5249 14.2644 16.5506 14.2601 16.5727 14.2478C16.5948 14.2356 16.612 14.216 16.6214 14.1925C16.6308 14.1691 16.6318 14.1431 16.6242 14.1189C16.6167 14.0948 16.6011 14.074 16.58 14.06C16.5569 14.0432 16.5283 14.036 16.5 14.04V14.03ZM17.06 14.03C17.0447 14.0299 17.0295 14.0331 17.0155 14.0392C17.0014 14.0454 16.9888 14.0544 16.9785 14.0657C16.9681 14.077 16.9602 14.0903 16.9553 14.1048C16.9504 14.1194 16.9486 14.1347 16.95 14.15C16.95 14.21 17 14.26 17.06 14.26C17.0892 14.26 17.1172 14.2484 17.1378 14.2278C17.1584 14.2072 17.17 14.1792 17.17 14.15C17.17 14.1208 17.1584 14.0928 17.1378 14.0722C17.1172 14.0516 17.0892 14.04 17.06 14.04V14.03ZM17.62 14.03C17.5971 14.0312 17.5751 14.0396 17.5572 14.0539C17.5392 14.0683 17.5262 14.0879 17.52 14.11V14.15C17.52 14.21 17.56 14.26 17.62 14.26C17.6449 14.2644 17.6706 14.2601 17.6927 14.2478C17.7148 14.2356 17.732 14.216 17.7414 14.1925C17.7508 14.1691 17.7518 14.1431 17.7442 14.1189C17.7367 14.0948 17.7211 14.074 17.7 14.06C17.6769 14.0432 17.6483 14.036 17.62 14.04V14.03ZM18.19 14.03C18.1739 14.0285 18.1576 14.0305 18.1423 14.036C18.127 14.0415 18.1132 14.0502 18.1017 14.0617C18.0902 14.0732 18.0815 14.087 18.076 14.1023C18.0705 14.1176 18.0685 14.1339 18.07 14.15C18.07 14.21 18.12 14.26 18.18 14.26C18.2092 14.26 18.2372 14.2484 18.2578 14.2278C18.2784 14.2072 18.29 14.1792 18.29 14.15C18.29 14.1208 18.2784 14.0928 18.2578 14.0722C18.2372 14.0516 18.2092 14.04 18.18 14.04L18.19 14.03ZM18.75 14.03C18.7271 14.0312 18.7051 14.0396 18.6872 14.0539C18.6692 14.0683 18.6562 14.0879 18.65 14.11L18.64 14.15C18.64 14.21 18.69 14.26 18.74 14.26C18.81 14.26 18.86 14.21 18.86 14.15V14.13C18.8575 14.1026 18.8448 14.0771 18.8244 14.0586C18.8041 14.0401 18.7775 14.0299 18.75 14.03ZM19.31 14.03C19.2947 14.0299 19.2795 14.0331 19.2655 14.0392C19.2514 14.0454 19.2388 14.0544 19.2285 14.0657C19.2181 14.077 19.2102 14.0903 19.2053 14.1048C19.2004 14.1194 19.1986 14.1347 19.2 14.15C19.2 14.21 19.25 14.26 19.31 14.26C19.37 14.26 19.42 14.21 19.42 14.15C19.4201 14.1225 19.4099 14.0959 19.3914 14.0756C19.3729 14.0552 19.3474 14.0425 19.32 14.04L19.31 14.03ZM19.87 14.03C19.8471 14.0312 19.8251 14.0396 19.8072 14.0539C19.7892 14.0683 19.7762 14.0879 19.77 14.11L19.76 14.15C19.76 14.21 19.81 14.26 19.87 14.26C19.93 14.26 19.98 14.21 19.98 14.15C19.9801 14.1225 19.9699 14.0959 19.9514 14.0756C19.9329 14.0552 19.9074 14.0425 19.88 14.04L19.87 14.03ZM20.44 14.03C20.4239 14.0285 20.4076 14.0305 20.3923 14.036C20.377 14.0415 20.3632 14.0502 20.3517 14.0617C20.3402 14.0732 20.3315 14.087 20.326 14.1023C20.3205 14.1176 20.3185 14.1339 20.32 14.15C20.32 14.21 20.37 14.26 20.44 14.26C20.5 14.26 20.54 14.21 20.54 14.15C20.5401 14.1225 20.5299 14.0959 20.5114 14.0756C20.4929 14.0552 20.4674 14.0425 20.44 14.04V14.03ZM21 14.03C20.9771 14.0312 20.9551 14.0396 20.9372 14.0539C20.9192 14.0683 20.9062 14.0879 20.9 14.11C20.89 14.12 20.88 14.14 20.89 14.15C20.89 14.21 20.94 14.26 20.99 14.26C21.0149 14.2644 21.0406 14.2601 21.0627 14.2478C21.0848 14.2356 21.102 14.216 21.1114 14.1925C21.1208 14.1691 21.1218 14.1431 21.1142 14.1189C21.1067 14.0948 21.0911 14.074 21.07 14.06C21.0496 14.0456 21.0249 14.0385 21 14.04V14.03ZM21.56 14.03C21.5447 14.0299 21.5295 14.0331 21.5155 14.0392C21.5014 14.0454 21.4888 14.0544 21.4785 14.0657C21.4681 14.077 21.4602 14.0903 21.4553 14.1048C21.4504 14.1194 21.4486 14.1347 21.45 14.15C21.45 14.21 21.5 14.26 21.55 14.26C21.5792 14.26 21.6072 14.2484 21.6278 14.2278C21.6484 14.2072 21.66 14.1792 21.66 14.15C21.66 14.1208 21.6484 14.0928 21.6278 14.0722C21.6072 14.0516 21.5792 14.04 21.55 14.04L21.56 14.03ZM22.12 14.03C22.1047 14.0299 22.0895 14.0331 22.0755 14.0392C22.0614 14.0454 22.0488 14.0544 22.0385 14.0657C22.0281 14.077 22.0202 14.0903 22.0153 14.1048C22.0104 14.1194 22.0086 14.1347 22.01 14.15C22.01 14.21 22.06 14.26 22.12 14.26C22.1492 14.26 22.1772 14.2484 22.1978 14.2278C22.2184 14.2072 22.23 14.1792 22.23 14.15C22.2301 14.1225 22.2199 14.0959 22.2014 14.0756C22.1829 14.0552 22.1574 14.0425 22.13 14.04L22.12 14.03ZM22.68 14.03C22.6655 14.0313 22.6515 14.0354 22.6386 14.0421C22.6257 14.0488 22.6143 14.058 22.605 14.0692C22.5957 14.0803 22.5887 14.0932 22.5844 14.1071C22.5801 14.121 22.5786 14.1355 22.58 14.15C22.58 14.21 22.62 14.26 22.68 14.26C22.7024 14.2609 22.7246 14.255 22.7435 14.243C22.7625 14.231 22.7773 14.2135 22.786 14.1928C22.7947 14.1721 22.7969 14.1493 22.7922 14.1273C22.7876 14.1054 22.7763 14.0854 22.76 14.07C22.7493 14.0599 22.7368 14.0521 22.723 14.0469C22.7093 14.0418 22.6947 14.0394 22.68 14.04V14.03ZM23.25 14.03C23.2347 14.0299 23.2195 14.0331 23.2055 14.0392C23.1914 14.0454 23.1788 14.0544 23.1685 14.0657C23.1581 14.077 23.1502 14.0903 23.1453 14.1048C23.1404 14.1194 23.1386 14.1347 23.14 14.15C23.14 14.21 23.18 14.26 23.24 14.26C23.31 14.26 23.36 14.21 23.36 14.15V14.13C23.3575 14.1026 23.3448 14.0771 23.3244 14.0586C23.3041 14.0401 23.2775 14.0299 23.25 14.03ZM23.81 14.03C23.7947 14.0299 23.7795 14.0331 23.7655 14.0392C23.7514 14.0454 23.7388 14.0544 23.7285 14.0657C23.7181 14.077 23.7102 14.0903 23.7053 14.1048C23.7004 14.1194 23.6986 14.1347 23.7 14.15C23.7 14.21 23.75 14.26 23.8 14.26C23.87 14.26 23.92 14.21 23.92 14.15V14.13C23.9175 14.1026 23.9048 14.0771 23.8844 14.0586C23.8641 14.0401 23.8375 14.0299 23.81 14.03ZM24.37 14.03C24.3471 14.0312 24.3251 14.0396 24.3072 14.0539C24.2892 14.0683 24.2762 14.0879 24.27 14.11L24.26 14.15C24.26 14.21 24.31 14.26 24.37 14.26C24.3949 14.2644 24.4206 14.2601 24.4427 14.2478C24.4648 14.2356 24.482 14.216 24.4914 14.1925C24.5008 14.1691 24.5018 14.1431 24.4942 14.1189C24.4867 14.0948 24.4711 14.074 24.45 14.06C24.4269 14.0432 24.3983 14.036 24.37 14.04V14.03ZM24.93 14.03C24.9147 14.0299 24.8995 14.0331 24.8855 14.0392C24.8714 14.0454 24.8588 14.0544 24.8485 14.0657C24.8381 14.077 24.8302 14.0903 24.8253 14.1048C24.8204 14.1194 24.8186 14.1347 24.82 14.15C24.82 14.21 24.87 14.26 24.93 14.26C24.9453 14.2601 24.9605 14.2569 24.9745 14.2508C24.9886 14.2446 25.0012 14.2356 25.0115 14.2243C25.0219 14.213 25.0298 14.1997 25.0347 14.1852C25.0396 14.1706 25.0414 14.1553 25.04 14.14C25.0377 14.1142 25.0265 14.0901 25.0082 14.0718C24.9899 14.0535 24.9658 14.0423 24.94 14.04L24.93 14.03ZM25.49 14.03C25.4671 14.0312 25.4451 14.0396 25.4272 14.0539C25.4092 14.0683 25.3962 14.0879 25.39 14.11V14.15C25.39 14.21 25.43 14.26 25.49 14.26C25.5149 14.2644 25.5406 14.2601 25.5627 14.2478C25.5848 14.2356 25.602 14.216 25.6114 14.1925C25.6208 14.1691 25.6218 14.1431 25.6142 14.1189C25.6067 14.0948 25.5911 14.074 25.57 14.06C25.5469 14.0432 25.5183 14.036 25.49 14.04V14.03ZM26.06 14.03C26.0447 14.0299 26.0295 14.0331 26.0155 14.0392C26.0014 14.0454 25.9888 14.0544 25.9785 14.0657C25.9681 14.077 25.9602 14.0903 25.9553 14.1048C25.9504 14.1194 25.9486 14.1347 25.95 14.15C25.95 14.21 26 14.26 26.05 14.26C26.0749 14.2644 26.1006 14.2601 26.1227 14.2478C26.1448 14.2356 26.162 14.216 26.1714 14.1925C26.1808 14.1691 26.1818 14.1431 26.1742 14.1189C26.1667 14.0948 26.1511 14.074 26.13 14.06C26.1096 14.0456 26.0849 14.0385 26.06 14.04V14.03ZM26.62 14.03C26.5971 14.0312 26.5751 14.0396 26.5572 14.0539C26.5392 14.0683 26.5262 14.0879 26.52 14.11L26.51 14.15C26.51 14.21 26.56 14.26 26.61 14.26C26.6361 14.2693 26.6647 14.2685 26.6901 14.2577C26.7156 14.2469 26.7361 14.2268 26.7474 14.2016C26.7588 14.1763 26.7602 14.1478 26.7514 14.1215C26.7426 14.0953 26.7243 14.0733 26.7 14.06C26.6769 14.0432 26.6483 14.036 26.62 14.04V14.03ZM27.18 14.03C27.1647 14.0299 27.1495 14.0331 27.1355 14.0392C27.1214 14.0454 27.1088 14.0544 27.0985 14.0657C27.0881 14.077 27.0802 14.0903 27.0753 14.1048C27.0704 14.1194 27.0686 14.1347 27.07 14.15C27.07 14.21 27.12 14.26 27.18 14.26C27.2024 14.2609 27.2246 14.255 27.2435 14.243C27.2625 14.231 27.2773 14.2135 27.286 14.1928C27.2947 14.1721 27.2969 14.1493 27.2922 14.1273C27.2876 14.1054 27.2763 14.0854 27.26 14.07C27.2493 14.0599 27.2368 14.0521 27.223 14.0469C27.2093 14.0418 27.1947 14.0394 27.18 14.04V14.03ZM27.74 14.03C27.7171 14.0312 27.6951 14.0396 27.6772 14.0539C27.6592 14.0683 27.6462 14.0879 27.64 14.11V14.15C27.64 14.21 27.68 14.26 27.74 14.26C27.81 14.26 27.85 14.21 27.86 14.15V14.13C27.8575 14.1026 27.8448 14.0771 27.8244 14.0586C27.8041 14.0401 27.7775 14.0299 27.75 14.03H27.74ZM28.31 14.03C28.2939 14.0285 28.2776 14.0305 28.2623 14.036C28.247 14.0415 28.2332 14.0502 28.2217 14.0617C28.2102 14.0732 28.2015 14.087 28.196 14.1023C28.1905 14.1176 28.1885 14.1339 28.19 14.15C28.19 14.21 28.24 14.26 28.31 14.26C28.37 14.26 28.41 14.21 28.41 14.15C28.4101 14.1225 28.3999 14.0959 28.3814 14.0756C28.3629 14.0552 28.3374 14.0425 28.31 14.04V14.03ZM28.87 14.03C28.8471 14.0312 28.8251 14.0396 28.8072 14.0539C28.7892 14.0683 28.7762 14.0879 28.77 14.11L28.76 14.15C28.76 14.21 28.81 14.26 28.86 14.26C28.93 14.26 28.98 14.21 28.98 14.15C28.98 14.1208 28.9684 14.0928 28.9478 14.0722C28.9272 14.0516 28.8992 14.04 28.87 14.04V14.03ZM29.43 14.03C29.4147 14.0299 29.3995 14.0331 29.3855 14.0392C29.3714 14.0454 29.3588 14.0544 29.3485 14.0657C29.3381 14.077 29.3302 14.0903 29.3253 14.1048C29.3204 14.1194 29.3186 14.1347 29.32 14.15C29.32 14.21 29.37 14.26 29.43 14.26C29.4549 14.2644 29.4806 14.2601 29.5027 14.2478C29.5248 14.2356 29.542 14.216 29.5514 14.1925C29.5608 14.1691 29.5618 14.1431 29.5542 14.1189C29.5467 14.0948 29.5311 14.074 29.51 14.06C29.4869 14.0432 29.4583 14.036 29.43 14.04V14.03ZM29.99 14.03C29.9755 14.0313 29.9615 14.0354 29.9486 14.0421C29.9357 14.0488 29.9243 14.058 29.915 14.0692C29.9057 14.0803 29.8987 14.0932 29.8944 14.1071C29.8901 14.121 29.8886 14.1355 29.89 14.15C29.89 14.21 29.93 14.26 29.99 14.26C30.0149 14.2644 30.0406 14.2601 30.0627 14.2478C30.0848 14.2356 30.102 14.216 30.1114 14.1925C30.1208 14.1691 30.1218 14.1431 30.1142 14.1189C30.1067 14.0948 30.0911 14.074 30.07 14.06C30.0469 14.0432 30.0183 14.036 29.99 14.04V14.03ZM30.56 14.03C30.5439 14.0285 30.5276 14.0305 30.5123 14.036C30.497 14.0415 30.4832 14.0502 30.4717 14.0617C30.4602 14.0732 30.4515 14.087 30.446 14.1023C30.4405 14.1176 30.4385 14.1339 30.44 14.15C30.44 14.21 30.49 14.26 30.55 14.26C30.5653 14.2614 30.5807 14.2596 30.5952 14.2547C30.6097 14.2498 30.623 14.2419 30.6343 14.2315C30.6456 14.2212 30.6546 14.2086 30.6608 14.1945C30.6669 14.1805 30.6701 14.1653 30.67 14.15C30.6701 14.1347 30.6669 14.1195 30.6608 14.1055C30.6546 14.0914 30.6456 14.0788 30.6343 14.0685C30.623 14.0581 30.6097 14.0502 30.5952 14.0453C30.5807 14.0404 30.5653 14.0386 30.55 14.04L30.56 14.03ZM31.12 14.03C31.1047 14.0299 31.0895 14.0331 31.0755 14.0392C31.0614 14.0454 31.0488 14.0544 31.0385 14.0657C31.0281 14.077 31.0202 14.0903 31.0153 14.1048C31.0104 14.1194 31.0086 14.1347 31.01 14.15C31.01 14.21 31.06 14.26 31.11 14.26C31.1253 14.2614 31.1406 14.2596 31.1552 14.2547C31.1697 14.2498 31.183 14.2419 31.1943 14.2315C31.2056 14.2212 31.2146 14.2086 31.2208 14.1945C31.2269 14.1805 31.2301 14.1653 31.23 14.15C31.23 14.1208 31.2184 14.0928 31.1978 14.0722C31.1772 14.0516 31.1492 14.04 31.12 14.04V14.03ZM31.68 14.03C31.6647 14.0299 31.6495 14.0331 31.6355 14.0392C31.6214 14.0454 31.6088 14.0544 31.5985 14.0657C31.5881 14.077 31.5802 14.0903 31.5753 14.1048C31.5704 14.1194 31.5686 14.1347 31.57 14.15C31.57 14.21 31.62 14.26 31.68 14.26C31.74 14.26 31.79 14.21 31.79 14.15V14.13C31.7875 14.1026 31.7748 14.0771 31.7544 14.0586C31.7341 14.0401 31.7075 14.0299 31.68 14.03ZM32.24 14.03C32.2171 14.0312 32.1951 14.0396 32.1772 14.0539C32.1592 14.0683 32.1462 14.0879 32.14 14.11L32.13 14.15C32.13 14.21 32.18 14.26 32.24 14.26C32.3 14.26 32.35 14.21 32.35 14.15V14.13C32.3477 14.1042 32.3365 14.0801 32.3182 14.0618C32.2999 14.0435 32.2758 14.0323 32.25 14.03H32.24ZM32.8 14.03C32.7855 14.0313 32.7715 14.0354 32.7586 14.0421C32.7457 14.0488 32.7343 14.058 32.725 14.0692C32.7157 14.0803 32.7087 14.0932 32.7044 14.1071C32.7001 14.121 32.6986 14.1355 32.7 14.15C32.7 14.21 32.74 14.26 32.8 14.26C32.8249 14.2644 32.8506 14.2601 32.8727 14.2478C32.8948 14.2356 32.912 14.216 32.9214 14.1925C32.9308 14.1691 32.9318 14.1431 32.9242 14.1189C32.9167 14.0948 32.9011 14.074 32.88 14.06C32.8569 14.0432 32.8283 14.036 32.8 14.04V14.03ZM33.37 14.03C33.3471 14.0312 33.3251 14.0396 33.3072 14.0539C33.2892 14.0683 33.2762 14.0879 33.27 14.11L33.25 14.15C33.25 14.21 33.3 14.26 33.37 14.26C33.394 14.2615 33.4178 14.2552 33.4378 14.2419C33.4578 14.2287 33.473 14.2092 33.4809 14.1866C33.4888 14.1639 33.4891 14.1393 33.4818 14.1164C33.4744 14.0935 33.4597 14.0737 33.44 14.06C33.4196 14.0456 33.3949 14.0385 33.37 14.04V14.03ZM33.93 14.03C33.9147 14.0299 33.8995 14.0331 33.8855 14.0392C33.8714 14.0454 33.8588 14.0544 33.8485 14.0657C33.8381 14.077 33.8302 14.0903 33.8253 14.1048C33.8204 14.1194 33.8186 14.1347 33.82 14.15C33.82 14.21 33.87 14.26 33.93 14.26C33.9549 14.2644 33.9806 14.2601 34.0027 14.2478C34.0248 14.2356 34.042 14.216 34.0514 14.1925C34.0608 14.1691 34.0618 14.1431 34.0542 14.1189C34.0467 14.0948 34.0311 14.074 34.01 14.06C33.9869 14.0432 33.9583 14.036 33.93 14.04V14.03ZM34.49 14.03C34.4671 14.0312 34.4451 14.0396 34.4272 14.0539C34.4092 14.0683 34.3962 14.0879 34.39 14.11L34.38 14.15C34.38 14.21 34.43 14.26 34.49 14.26C34.5149 14.2644 34.5406 14.2601 34.5627 14.2478C34.5848 14.2356 34.602 14.216 34.6114 14.1925C34.6208 14.1691 34.6218 14.1431 34.6142 14.1189C34.6067 14.0948 34.5911 14.074 34.57 14.06C34.5469 14.0432 34.5183 14.036 34.49 14.04V14.03ZM16.31 15.7C15.8857 15.7 15.4787 15.8686 15.1786 16.1686C14.8786 16.4687 14.71 16.8757 14.71 17.3C14.71 17.7243 14.8786 18.1313 15.1786 18.4314C15.4787 18.7314 15.8857 18.9 16.31 18.9C16.7343 18.9 17.1413 18.7314 17.4414 18.4314C17.7414 18.1313 17.91 17.7243 17.91 17.3C17.91 16.8757 17.7414 16.4687 17.4414 16.1686C17.1413 15.8686 16.7343 15.7 16.31 15.7ZM20.14 15.7C19.7157 15.7 19.3087 15.8686 19.0086 16.1686C18.7086 16.4687 18.54 16.8757 18.54 17.3C18.54 17.7243 18.7086 18.1313 19.0086 18.4314C19.3087 18.7314 19.7157 18.9 20.14 18.9C20.5643 18.9 20.9713 18.7314 21.2714 18.4314C21.5714 18.1313 21.74 17.7243 21.74 17.3C21.74 16.8757 21.5714 16.4687 21.2714 16.1686C20.9713 15.8686 20.5643 15.7 20.14 15.7ZM23.98 15.7C23.5557 15.7 23.1487 15.8686 22.8486 16.1686C22.5486 16.4687 22.38 16.8757 22.38 17.3C22.38 17.7243 22.5486 18.1313 22.8486 18.4314C23.1487 18.7314 23.5557 18.9 23.98 18.9C24.4043 18.9 24.8113 18.7314 25.1114 18.4314C25.4114 18.1313 25.58 17.7243 25.58 17.3C25.58 16.8757 25.4114 16.4687 25.1114 16.1686C24.8113 15.8686 24.4043 15.7 23.98 15.7ZM27.81 15.7C27.3857 15.7 26.9787 15.8686 26.6786 16.1686C26.3786 16.4687 26.21 16.8757 26.21 17.3C26.21 17.7243 26.3786 18.1313 26.6786 18.4314C26.9787 18.7314 27.3857 18.9 27.81 18.9C28.2343 18.9 28.6413 18.7314 28.9414 18.4314C29.2414 18.1313 29.41 17.7243 29.41 17.3C29.41 16.8757 29.2414 16.4687 28.9414 16.1686C28.6413 15.8686 28.2343 15.7 27.81 15.7ZM31.65 15.7C31.2257 15.7 30.8187 15.8686 30.5186 16.1686C30.2186 16.4687 30.05 16.8757 30.05 17.3C30.05 17.7243 30.2186 18.1313 30.5186 18.4314C30.8187 18.7314 31.2257 18.9 31.65 18.9C32.0743 18.9 32.4813 18.7314 32.7814 18.4314C33.0814 18.1313 33.25 17.7243 33.25 17.3C33.25 16.8757 33.0814 16.4687 32.7814 16.1686C32.4813 15.8686 32.0743 15.7 31.65 15.7ZM13.69 20.68C13.6625 20.6799 13.6359 20.6901 13.6156 20.7086C13.5952 20.7271 13.5825 20.7526 13.58 20.78C13.58 20.85 13.63 20.9 13.68 20.9C13.6985 20.9013 13.7171 20.8979 13.7339 20.8901C13.7508 20.8822 13.7654 20.8703 13.7763 20.8553C13.7873 20.8403 13.7943 20.8228 13.7967 20.8044C13.7991 20.786 13.7968 20.7673 13.79 20.75C13.7821 20.7298 13.7684 20.7123 13.7506 20.6999C13.7328 20.6874 13.7117 20.6805 13.69 20.68ZM14.25 20.68C14.2225 20.6799 14.1959 20.6901 14.1756 20.7086C14.1552 20.7271 14.1425 20.7526 14.14 20.78C14.14 20.85 14.19 20.9 14.25 20.9C14.31 20.9 14.36 20.85 14.36 20.79V20.77C14.3575 20.7426 14.3448 20.7171 14.3244 20.6986C14.3041 20.6801 14.2775 20.6699 14.25 20.67V20.68ZM14.81 20.68C14.7953 20.6794 14.7807 20.6818 14.767 20.6869C14.7532 20.6921 14.7407 20.6999 14.73 20.71C14.7199 20.7207 14.7121 20.7332 14.7069 20.747C14.7018 20.7607 14.6994 20.7753 14.7 20.79C14.7 20.85 14.75 20.9 14.81 20.9C14.87 20.9 14.92 20.85 14.92 20.79V20.77C14.9177 20.7442 14.9065 20.7201 14.8882 20.7018C14.8699 20.6835 14.8458 20.6723 14.82 20.67L14.81 20.68ZM15.37 20.68C15.3442 20.6823 15.3201 20.6935 15.3018 20.7118C15.2835 20.7301 15.2723 20.7542 15.27 20.78C15.27 20.85 15.31 20.9 15.37 20.9C15.3861 20.9015 15.4024 20.8995 15.4177 20.894C15.433 20.8885 15.4468 20.8798 15.4583 20.8683C15.4698 20.8568 15.4785 20.843 15.484 20.8277C15.4895 20.8124 15.4915 20.7961 15.49 20.78C15.4887 20.7655 15.4846 20.7515 15.4779 20.7386C15.4712 20.7257 15.462 20.7143 15.4508 20.705C15.4397 20.6957 15.4268 20.6887 15.4129 20.6844C15.399 20.6801 15.3845 20.6786 15.37 20.68ZM15.94 20.68C15.9253 20.6794 15.9107 20.6818 15.897 20.6869C15.8832 20.6921 15.8707 20.6999 15.86 20.71C15.8481 20.7198 15.8384 20.732 15.8315 20.7458C15.8246 20.7595 15.8207 20.7746 15.82 20.79C15.82 20.85 15.88 20.9 15.94 20.9C15.9614 20.8983 15.982 20.891 15.9996 20.8787C16.0172 20.8664 16.0311 20.8495 16.04 20.83C16.0464 20.8135 16.0488 20.7957 16.0469 20.7781C16.045 20.7605 16.0389 20.7437 16.0291 20.729C16.0193 20.7142 16.006 20.7021 15.9905 20.6936C15.975 20.6851 15.9577 20.6804 15.94 20.68ZM16.5 20.68C16.4725 20.6799 16.4459 20.6901 16.4256 20.7086C16.4052 20.7271 16.3925 20.7526 16.39 20.78C16.39 20.85 16.44 20.9 16.5 20.9C16.5153 20.9001 16.5305 20.8969 16.5445 20.8908C16.5586 20.8846 16.5712 20.8756 16.5815 20.8643C16.5919 20.853 16.5998 20.8397 16.6047 20.8252C16.6096 20.8107 16.6114 20.7953 16.61 20.78C16.6075 20.7526 16.5948 20.7271 16.5744 20.7086C16.5541 20.6901 16.5275 20.6799 16.5 20.68ZM17.06 20.68C17.0325 20.6799 17.0059 20.6901 16.9855 20.7086C16.9652 20.7271 16.9525 20.7526 16.95 20.78C16.95 20.85 17 20.9 17.06 20.9C17.0894 20.9002 17.1179 20.8895 17.14 20.87C17.1514 20.8582 17.16 20.844 17.1652 20.8284C17.1704 20.8128 17.172 20.7963 17.17 20.78C17.1677 20.7542 17.1565 20.7301 17.1382 20.7118C17.1199 20.6935 17.0958 20.6823 17.07 20.68H17.06ZM17.62 20.68C17.5983 20.6805 17.5772 20.6874 17.5594 20.6999C17.5416 20.7123 17.5279 20.7298 17.52 20.75V20.79C17.52 20.85 17.56 20.9 17.62 20.9C17.6434 20.9016 17.6667 20.8956 17.6865 20.8831C17.7063 20.8705 17.7215 20.8519 17.73 20.83C17.7376 20.8093 17.7388 20.7868 17.7335 20.7654C17.7281 20.744 17.7165 20.7247 17.7 20.71C17.6893 20.6999 17.6768 20.6921 17.663 20.6869C17.6493 20.6818 17.6347 20.6794 17.62 20.68ZM18.19 20.68C18.1755 20.6786 18.161 20.6801 18.1471 20.6844C18.1332 20.6887 18.1203 20.6957 18.1092 20.705C18.098 20.7143 18.0888 20.7257 18.0821 20.7386C18.0754 20.7515 18.0713 20.7655 18.07 20.78C18.07 20.85 18.12 20.9 18.18 20.9C18.1963 20.9014 18.2126 20.8994 18.2281 20.8943C18.2436 20.8891 18.2578 20.8809 18.27 20.87C18.2814 20.8582 18.29 20.844 18.2952 20.8284C18.3004 20.8128 18.302 20.7963 18.3 20.78C18.2975 20.7526 18.2848 20.7271 18.2645 20.7086C18.2441 20.6901 18.2175 20.6799 18.19 20.68ZM18.75 20.68C18.7283 20.6805 18.7072 20.6874 18.6894 20.6999C18.6716 20.7123 18.6579 20.7298 18.65 20.75L18.64 20.79C18.64 20.85 18.69 20.9 18.74 20.9C18.81 20.9 18.86 20.85 18.86 20.79V20.77C18.8575 20.7426 18.8448 20.7171 18.8244 20.6986C18.8041 20.6801 18.7775 20.6699 18.75 20.67V20.68ZM19.31 20.68C19.2825 20.6799 19.2559 20.6901 19.2355 20.7086C19.2152 20.7271 19.2025 20.7526 19.2 20.78C19.2 20.85 19.25 20.9 19.31 20.9C19.37 20.9 19.42 20.85 19.42 20.79C19.4201 20.7625 19.4099 20.7359 19.3914 20.7156C19.3729 20.6952 19.3474 20.6825 19.32 20.68H19.31ZM19.87 20.68C19.8483 20.6805 19.8272 20.6874 19.8094 20.6999C19.7916 20.7123 19.7779 20.7298 19.77 20.75L19.76 20.79C19.76 20.85 19.81 20.9 19.87 20.9C19.93 20.9 19.98 20.85 19.98 20.79C19.9801 20.7625 19.9699 20.7359 19.9514 20.7156C19.9329 20.6952 19.9074 20.6825 19.88 20.68H19.87ZM20.44 20.68C20.4255 20.6786 20.411 20.6801 20.3971 20.6844C20.3832 20.6887 20.3703 20.6957 20.3592 20.705C20.348 20.7143 20.3388 20.7257 20.3321 20.7386C20.3254 20.7515 20.3213 20.7655 20.32 20.78C20.32 20.85 20.37 20.9 20.44 20.9C20.5 20.9 20.54 20.85 20.54 20.79C20.5401 20.7625 20.5299 20.7359 20.5114 20.7156C20.4929 20.6952 20.4674 20.6825 20.44 20.68ZM21 20.68C20.9783 20.6805 20.9572 20.6874 20.9394 20.6999C20.9216 20.7123 20.9079 20.7298 20.9 20.75C20.89 20.75 20.88 20.77 20.89 20.79C20.89 20.85 20.94 20.9 20.99 20.9C21.0061 20.9015 21.0224 20.8995 21.0377 20.894C21.053 20.8885 21.0668 20.8798 21.0783 20.8683C21.0898 20.8568 21.0985 20.843 21.104 20.8277C21.1095 20.8124 21.1115 20.7961 21.11 20.78C21.1075 20.7526 21.0948 20.7271 21.0744 20.7086C21.0541 20.6901 21.0275 20.6799 21 20.68ZM21.56 20.68C21.5325 20.6799 21.5059 20.6901 21.4855 20.7086C21.4652 20.7271 21.4525 20.7526 21.45 20.78C21.45 20.85 21.5 20.9 21.55 20.9C21.5679 20.9029 21.5861 20.9016 21.6034 20.8964C21.6207 20.8912 21.6367 20.8822 21.65 20.87C21.6596 20.8573 21.6664 20.8427 21.6699 20.8272C21.6733 20.8117 21.6734 20.7956 21.67 20.78C21.6675 20.7526 21.6548 20.7271 21.6344 20.7086C21.6141 20.6901 21.5875 20.6799 21.56 20.68ZM22.12 20.68C22.0925 20.6799 22.0659 20.6901 22.0456 20.7086C22.0252 20.7271 22.0125 20.7526 22.01 20.78C22.01 20.85 22.06 20.9 22.12 20.9C22.1492 20.9 22.1772 20.8884 22.1978 20.8678C22.2184 20.8472 22.23 20.8192 22.23 20.79C22.2301 20.7625 22.2199 20.7359 22.2014 20.7156C22.1829 20.6952 22.1574 20.6825 22.13 20.68H22.12ZM22.68 20.68C22.6542 20.6823 22.6301 20.6935 22.6118 20.7118C22.5935 20.7301 22.5823 20.7542 22.58 20.78C22.58 20.85 22.62 20.9 22.68 20.9C22.75 20.9 22.8 20.85 22.8 20.79C22.8001 20.7747 22.7969 20.7595 22.7908 20.7455C22.7846 20.7314 22.7756 20.7188 22.7643 20.7085C22.753 20.6981 22.7397 20.6902 22.7252 20.6853C22.7106 20.6804 22.6953 20.6786 22.68 20.68ZM23.25 20.68C23.2225 20.6799 23.1959 20.6901 23.1756 20.7086C23.1552 20.7271 23.1425 20.7526 23.14 20.78C23.14 20.85 23.18 20.9 23.24 20.9C23.31 20.9 23.36 20.85 23.36 20.79V20.77C23.3575 20.7426 23.3448 20.7171 23.3244 20.6986C23.3041 20.6801 23.2775 20.6699 23.25 20.67V20.68ZM23.81 20.68C23.7953 20.6794 23.7807 20.6818 23.767 20.6869C23.7532 20.6921 23.7407 20.6999 23.73 20.71C23.7181 20.7198 23.7084 20.732 23.7015 20.7458C23.6946 20.7595 23.6907 20.7746 23.69 20.79C23.69 20.85 23.75 20.9 23.81 20.9C23.87 20.9 23.91 20.85 23.91 20.79V20.77C23.9077 20.7442 23.8965 20.7201 23.8782 20.7018C23.8599 20.6835 23.8358 20.6723 23.81 20.67V20.68ZM24.37 20.68C24.3425 20.6799 24.3159 20.6901 24.2956 20.7086C24.2752 20.7271 24.2625 20.7526 24.26 20.78C24.26 20.85 24.31 20.9 24.37 20.9C24.3853 20.9001 24.4005 20.8969 24.4145 20.8908C24.4286 20.8846 24.4412 20.8756 24.4515 20.8643C24.4619 20.853 24.4698 20.8397 24.4747 20.8252C24.4796 20.8107 24.4814 20.7953 24.48 20.78C24.4777 20.7542 24.4665 20.7301 24.4482 20.7118C24.4299 20.6935 24.4058 20.6823 24.38 20.68H24.37ZM24.93 20.68C24.9153 20.6794 24.9007 20.6818 24.887 20.6869C24.8732 20.6921 24.8607 20.6999 24.85 20.71C24.8399 20.7207 24.8321 20.7332 24.8269 20.747C24.8218 20.7607 24.8194 20.7753 24.82 20.79C24.82 20.85 24.87 20.9 24.93 20.9C24.9514 20.8983 24.972 20.891 24.9896 20.8787C25.0072 20.8664 25.0211 20.8495 25.03 20.83C25.0364 20.8135 25.0388 20.7957 25.0369 20.7781C25.035 20.7605 25.0289 20.7437 25.0191 20.729C25.0093 20.7142 24.996 20.7021 24.9805 20.6936C24.965 20.6851 24.9477 20.6804 24.93 20.68ZM25.49 20.68C25.4683 20.6805 25.4472 20.6874 25.4294 20.6999C25.4116 20.7123 25.3979 20.7298 25.39 20.75V20.79C25.39 20.85 25.43 20.9 25.49 20.9C25.5134 20.9016 25.5367 20.8956 25.5565 20.8831C25.5763 20.8705 25.5915 20.8519 25.6 20.83C25.6076 20.8093 25.6088 20.7868 25.6035 20.7654C25.5981 20.744 25.5865 20.7247 25.57 20.71C25.5593 20.6999 25.5468 20.6921 25.533 20.6869C25.5193 20.6818 25.5047 20.6794 25.49 20.68ZM26.06 20.68C26.0325 20.6799 26.0059 20.6901 25.9855 20.7086C25.9652 20.7271 25.9525 20.7526 25.95 20.78C25.95 20.85 26 20.9 26.05 20.9C26.0734 20.9016 26.0967 20.8956 26.1165 20.8831C26.1363 20.8705 26.1515 20.8519 26.16 20.83C26.1676 20.8093 26.1688 20.7868 26.1635 20.7654C26.1581 20.744 26.1465 20.7247 26.13 20.71C26.111 20.692 26.0862 20.6813 26.06 20.68ZM26.62 20.68C26.5983 20.6805 26.5772 20.6874 26.5594 20.6999C26.5416 20.7123 26.5279 20.7298 26.52 20.75L26.51 20.79C26.51 20.85 26.56 20.9 26.61 20.9C26.635 20.9039 26.6606 20.8991 26.6824 20.8863C26.7043 20.8736 26.7211 20.8537 26.73 20.83C26.7376 20.8093 26.7388 20.7868 26.7335 20.7654C26.7281 20.744 26.7165 20.7247 26.7 20.71C26.6893 20.6999 26.6768 20.6921 26.663 20.6869C26.6493 20.6818 26.6347 20.6794 26.62 20.68ZM27.18 20.68C27.1525 20.6799 27.1259 20.6901 27.1056 20.7086C27.0852 20.7271 27.0725 20.7526 27.07 20.78C27.07 20.85 27.12 20.9 27.18 20.9C27.2049 20.9044 27.2306 20.9001 27.2527 20.8878C27.2748 20.8756 27.292 20.856 27.3014 20.8325C27.3108 20.8091 27.3118 20.7831 27.3042 20.7589C27.2967 20.7348 27.2811 20.714 27.26 20.7C27.2369 20.6832 27.2083 20.676 27.18 20.68ZM27.74 20.68C27.7183 20.6805 27.6972 20.6874 27.6794 20.6999C27.6616 20.7123 27.6479 20.7298 27.64 20.75V20.79C27.64 20.85 27.68 20.9 27.74 20.9C27.81 20.9 27.85 20.85 27.86 20.79V20.77C27.8575 20.7426 27.8448 20.7171 27.8244 20.6986C27.8041 20.6801 27.7775 20.6699 27.75 20.67L27.74 20.68ZM28.31 20.68C28.2955 20.6786 28.281 20.6801 28.2671 20.6844C28.2532 20.6887 28.2403 20.6957 28.2292 20.705C28.218 20.7143 28.2088 20.7257 28.2021 20.7386C28.1954 20.7515 28.1913 20.7655 28.19 20.78C28.19 20.85 28.24 20.9 28.31 20.9C28.37 20.9 28.41 20.85 28.41 20.79C28.4101 20.7625 28.3999 20.7359 28.3814 20.7156C28.3629 20.6952 28.3374 20.6825 28.31 20.68ZM28.87 20.68C28.8483 20.6805 28.8272 20.6874 28.8094 20.6999C28.7916 20.7123 28.7779 20.7298 28.77 20.75L28.76 20.79C28.76 20.85 28.81 20.9 28.86 20.9C28.93 20.9 28.98 20.85 28.98 20.79C28.98 20.7608 28.9684 20.7328 28.9478 20.7122C28.9272 20.6916 28.8992 20.68 28.87 20.68ZM29.43 20.68C29.4025 20.6799 29.3759 20.6901 29.3556 20.7086C29.3352 20.7271 29.3225 20.7526 29.32 20.78C29.32 20.85 29.37 20.9 29.43 20.9C29.4453 20.9001 29.4605 20.8969 29.4745 20.8908C29.4886 20.8846 29.5012 20.8756 29.5115 20.8643C29.5219 20.853 29.5298 20.8397 29.5347 20.8252C29.5396 20.8107 29.5414 20.7953 29.54 20.78C29.5377 20.7542 29.5265 20.7301 29.5082 20.7118C29.4899 20.6935 29.4658 20.6823 29.44 20.68H29.43ZM29.99 20.68C29.9642 20.6823 29.9401 20.6935 29.9218 20.7118C29.9035 20.7301 29.8923 20.7542 29.89 20.78C29.89 20.85 29.93 20.9 29.99 20.9C30.0117 20.8995 30.0328 20.8926 30.0506 20.8801C30.0684 20.8677 30.0821 20.8502 30.09 20.83C30.0988 20.8102 30.1017 20.7883 30.0981 20.767C30.0945 20.7456 30.0848 20.7258 30.07 20.71C30.0593 20.6999 30.0468 20.6921 30.033 20.6869C30.0193 20.6818 30.0047 20.6794 29.99 20.68ZM30.56 20.68C30.5455 20.6786 30.531 20.6801 30.5171 20.6844C30.5032 20.6887 30.4903 20.6957 30.4792 20.705C30.468 20.7143 30.4588 20.7257 30.4521 20.7386C30.4454 20.7515 30.4413 20.7655 30.44 20.78C30.44 20.85 30.49 20.9 30.55 20.9C30.5653 20.9014 30.5807 20.8996 30.5952 20.8947C30.6097 20.8898 30.623 20.8819 30.6343 20.8715C30.6456 20.8612 30.6546 20.8486 30.6608 20.8345C30.6669 20.8205 30.6701 20.8053 30.67 20.79C30.6701 20.7747 30.6669 20.7595 30.6608 20.7455C30.6546 20.7314 30.6456 20.7188 30.6343 20.7085C30.623 20.6981 30.6097 20.6902 30.5952 20.6853C30.5807 20.6804 30.5653 20.6786 30.55 20.68H30.56ZM31.12 20.68C31.0925 20.6799 31.0659 20.6901 31.0456 20.7086C31.0252 20.7271 31.0125 20.7526 31.01 20.78C31.01 20.85 31.06 20.9 31.11 20.9C31.1253 20.9014 31.1406 20.8996 31.1552 20.8947C31.1697 20.8898 31.183 20.8819 31.1943 20.8715C31.2056 20.8612 31.2146 20.8486 31.2208 20.8345C31.2269 20.8205 31.2301 20.8053 31.23 20.79C31.23 20.7608 31.2184 20.7328 31.1978 20.7122C31.1772 20.6916 31.1492 20.68 31.12 20.68ZM31.68 20.68C31.6525 20.6799 31.6259 20.6901 31.6056 20.7086C31.5852 20.7271 31.5725 20.7526 31.57 20.78C31.57 20.85 31.62 20.9 31.68 20.9C31.74 20.9 31.79 20.85 31.79 20.79V20.77C31.7875 20.7426 31.7748 20.7171 31.7544 20.6986C31.7341 20.6801 31.7075 20.6699 31.68 20.67V20.68ZM32.24 20.68C32.2183 20.6805 32.1972 20.6874 32.1794 20.6999C32.1616 20.7123 32.1479 20.7298 32.14 20.75L32.13 20.79C32.13 20.85 32.18 20.9 32.24 20.9C32.3 20.9 32.35 20.85 32.35 20.79V20.77C32.3477 20.7442 32.3365 20.7201 32.3182 20.7018C32.2999 20.6835 32.2758 20.6723 32.25 20.67L32.24 20.68ZM32.8 20.68C32.7742 20.6823 32.7501 20.6935 32.7318 20.7118C32.7135 20.7301 32.7023 20.7542 32.7 20.78C32.7 20.85 32.74 20.9 32.8 20.9C32.8161 20.9015 32.8324 20.8995 32.8477 20.894C32.863 20.8885 32.8768 20.8798 32.8883 20.8683C32.8998 20.8568 32.9085 20.843 32.914 20.8277C32.9195 20.8124 32.9215 20.7961 32.92 20.78C32.9187 20.7655 32.9146 20.7515 32.9079 20.7386C32.9012 20.7257 32.892 20.7143 32.8808 20.705C32.8697 20.6957 32.8568 20.6887 32.8429 20.6844C32.829 20.6801 32.8145 20.6786 32.8 20.68ZM33.37 20.68C33.3483 20.6805 33.3272 20.6874 33.3094 20.6999C33.2916 20.7123 33.2779 20.7298 33.27 20.75L33.25 20.79C33.25 20.85 33.3 20.9 33.37 20.9C33.3845 20.8987 33.3985 20.8946 33.4114 20.8879C33.4243 20.8812 33.4357 20.872 33.445 20.8608C33.4543 20.8497 33.4613 20.8368 33.4656 20.8229C33.4699 20.809 33.4714 20.7945 33.47 20.78C33.4677 20.7542 33.4565 20.7301 33.4382 20.7118C33.4199 20.6935 33.3958 20.6823 33.37 20.68ZM33.93 20.68C33.9025 20.6799 33.8759 20.6901 33.8555 20.7086C33.8352 20.7271 33.8225 20.7526 33.82 20.78C33.82 20.85 33.87 20.9 33.93 20.9C33.9453 20.9001 33.9605 20.8969 33.9745 20.8908C33.9886 20.8846 34.0012 20.8756 34.0115 20.8643C34.0219 20.853 34.0298 20.8397 34.0347 20.8252C34.0396 20.8107 34.0414 20.7953 34.04 20.78C34.0375 20.7526 34.0248 20.7271 34.0044 20.7086C33.9841 20.6901 33.9575 20.6799 33.93 20.68ZM34.49 20.68C34.4683 20.6805 34.4472 20.6874 34.4294 20.6999C34.4116 20.7123 34.3979 20.7298 34.39 20.75L34.38 20.79C34.38 20.85 34.43 20.9 34.49 20.9C34.5117 20.8995 34.5328 20.8926 34.5506 20.8801C34.5684 20.8677 34.5821 20.8502 34.59 20.83C34.5988 20.8102 34.6017 20.7883 34.5981 20.767C34.5945 20.7456 34.5848 20.7258 34.57 20.71C34.5593 20.6999 34.5468 20.6921 34.533 20.6869C34.5193 20.6818 34.5047 20.6794 34.49 20.68ZM16.31 22.5C15.8857 22.5 15.4787 22.6686 15.1786 22.9686C14.8786 23.2687 14.71 23.6757 14.71 24.1C14.71 24.5243 14.8786 24.9313 15.1786 25.2314C15.4787 25.5314 15.8857 25.7 16.31 25.7C16.7343 25.7 17.1413 25.5314 17.4414 25.2314C17.7414 24.9313 17.91 24.5243 17.91 24.1C17.91 23.6757 17.7414 23.2687 17.4414 22.9686C17.1413 22.6686 16.7343 22.5 16.31 22.5ZM20.14 22.5C19.9299 22.4928 19.7204 22.527 19.5235 22.6007C19.3266 22.6745 19.1462 22.7863 18.9925 22.9297C18.8388 23.0732 18.7149 23.2455 18.6278 23.4369C18.5408 23.6283 18.4922 23.8349 18.485 24.045C18.4778 24.2551 18.512 24.4646 18.5857 24.6615C18.6595 24.8584 18.7713 25.0388 18.9147 25.1925C19.0582 25.3462 19.2305 25.4701 19.4219 25.5572C19.6132 25.6442 19.8199 25.6928 20.03 25.7C20.4543 25.7146 20.8671 25.56 21.1775 25.2703C21.4879 24.9805 21.6704 24.5793 21.685 24.155C21.6996 23.7307 21.545 23.3179 21.2553 23.0075C20.9655 22.6971 20.5643 22.5146 20.14 22.5ZM23.98 22.5C23.5557 22.4841 23.1424 22.6374 22.8311 22.9262C22.5197 23.215 22.3359 23.6157 22.32 24.04C22.3041 24.4643 22.4574 24.8776 22.7462 25.1889C23.035 25.5003 23.4357 25.6841 23.86 25.7C24.2843 25.7159 24.6976 25.5626 25.0089 25.2738C25.3203 24.985 25.5041 24.5843 25.52 24.16C25.5359 23.7357 25.3826 23.3224 25.0938 23.0111C24.805 22.6997 24.4043 22.5159 23.98 22.5ZM27.81 22.5C27.3857 22.5 26.9787 22.6686 26.6786 22.9686C26.3786 23.2687 26.21 23.6757 26.21 24.1C26.21 24.5243 26.3786 24.9313 26.6786 25.2314C26.9787 25.5314 27.3857 25.7 27.81 25.7C28.2343 25.7 28.6413 25.5314 28.9414 25.2314C29.2414 24.9313 29.41 24.5243 29.41 24.1C29.41 23.6757 29.2414 23.2687 28.9414 22.9686C28.6413 22.6686 28.2343 22.5 27.81 22.5ZM31.65 22.5C31.4399 22.4928 31.2304 22.527 31.0335 22.6007C30.8366 22.6745 30.6562 22.7863 30.5025 22.9297C30.3488 23.0732 30.2249 23.2455 30.1378 23.4369C30.0508 23.6283 30.0022 23.8349 29.995 24.045C29.9878 24.2551 30.022 24.4646 30.0957 24.6615C30.1695 24.8584 30.2813 25.0388 30.4247 25.1925C30.5682 25.3462 30.7405 25.4701 30.9319 25.5572C31.1232 25.6442 31.3299 25.6928 31.54 25.7C31.9643 25.7146 32.3771 25.56 32.6875 25.2703C32.9979 24.9805 33.1804 24.5793 33.195 24.155C33.2096 23.7307 33.055 23.3179 32.7653 23.0075C32.4755 22.6971 32.0743 22.5146 31.65 22.5ZM13.69 27.3C13.6683 27.3005 13.6472 27.3074 13.6294 27.3199C13.6116 27.3323 13.5979 27.3498 13.59 27.37L13.58 27.42C13.58 27.48 13.63 27.53 13.68 27.53C13.7092 27.53 13.7372 27.5184 13.7578 27.4978C13.7784 27.4772 13.79 27.4492 13.79 27.42C13.79 27.3908 13.7784 27.3628 13.7578 27.3422C13.7372 27.3216 13.7092 27.31 13.68 27.31L13.69 27.3ZM14.25 27.3C14.2347 27.2999 14.2195 27.3031 14.2055 27.3092C14.1914 27.3154 14.1788 27.3244 14.1685 27.3357C14.1581 27.347 14.1502 27.3603 14.1453 27.3748C14.1404 27.3894 14.1386 27.4047 14.14 27.42C14.14 27.48 14.19 27.53 14.25 27.53C14.31 27.53 14.36 27.48 14.36 27.42V27.4C14.3575 27.3726 14.3448 27.3471 14.3244 27.3286C14.3041 27.3101 14.2775 27.2999 14.25 27.3ZM14.81 27.3C14.7795 27.3 14.7502 27.3121 14.7287 27.3337C14.7071 27.3552 14.695 27.3845 14.695 27.415C14.695 27.4455 14.7071 27.4748 14.7287 27.4963C14.7502 27.5179 14.7795 27.53 14.81 27.53C14.87 27.53 14.92 27.48 14.92 27.42V27.4C14.9177 27.3742 14.9065 27.3501 14.8882 27.3318C14.8699 27.3135 14.8458 27.3023 14.82 27.3H14.81ZM15.37 27.3C15.3483 27.3005 15.3272 27.3074 15.3094 27.3199C15.2916 27.3323 15.2779 27.3498 15.27 27.37V27.42C15.27 27.48 15.31 27.53 15.37 27.53C15.3861 27.5315 15.4024 27.5295 15.4177 27.524C15.433 27.5185 15.4468 27.5098 15.4583 27.4983C15.4698 27.4868 15.4785 27.473 15.484 27.4577C15.4895 27.4424 15.4915 27.4261 15.49 27.41C15.4887 27.3955 15.4846 27.3815 15.4779 27.3686C15.4712 27.3557 15.462 27.3443 15.4508 27.335C15.4397 27.3257 15.4268 27.3187 15.4129 27.3144C15.399 27.3101 15.3845 27.3086 15.37 27.31V27.3ZM15.94 27.3C15.9095 27.3 15.8802 27.3121 15.8587 27.3337C15.8371 27.3552 15.825 27.3845 15.825 27.415C15.825 27.4455 15.8371 27.4748 15.8587 27.4963C15.8802 27.5179 15.9095 27.53 15.94 27.53C15.9554 27.5293 15.9705 27.5254 15.9842 27.5185C15.998 27.5116 16.0102 27.5019 16.02 27.49C16.0395 27.4679 16.0502 27.4394 16.05 27.41C16.0475 27.3826 16.0348 27.3571 16.0145 27.3386C15.9941 27.3201 15.9675 27.3099 15.94 27.31V27.3ZM16.5 27.3C16.4783 27.3005 16.4572 27.3074 16.4394 27.3199C16.4216 27.3323 16.4079 27.3498 16.4 27.37L16.39 27.42C16.39 27.48 16.44 27.53 16.5 27.53C16.5153 27.5301 16.5305 27.5269 16.5445 27.5208C16.5586 27.5146 16.5712 27.5056 16.5815 27.4943C16.5919 27.483 16.5998 27.4697 16.6047 27.4552C16.6096 27.4406 16.6114 27.4253 16.61 27.41C16.6075 27.3826 16.5948 27.3571 16.5744 27.3386C16.5541 27.3201 16.5275 27.3099 16.5 27.31V27.3ZM17.06 27.3C17.0447 27.2999 17.0295 27.3031 17.0155 27.3092C17.0014 27.3154 16.9888 27.3244 16.9785 27.3357C16.9681 27.347 16.9602 27.3603 16.9553 27.3748C16.9504 27.3894 16.9486 27.4047 16.95 27.42C16.95 27.48 17 27.53 17.06 27.53C17.0817 27.5295 17.1028 27.5226 17.1206 27.5101C17.1384 27.4977 17.1521 27.4802 17.16 27.46C17.1688 27.4402 17.1717 27.4183 17.1681 27.397C17.1645 27.3756 17.1548 27.3558 17.14 27.34C17.1293 27.3299 17.1168 27.3221 17.103 27.3169C17.0893 27.3118 17.0747 27.3094 17.06 27.31V27.3ZM17.62 27.3C17.6055 27.3013 17.5915 27.3054 17.5786 27.3121C17.5657 27.3188 17.5543 27.328 17.545 27.3392C17.5357 27.3503 17.5287 27.3632 17.5244 27.3771C17.5201 27.391 17.5186 27.4055 17.52 27.42C17.52 27.48 17.56 27.53 17.62 27.53C17.6363 27.532 17.6528 27.5304 17.6684 27.5252C17.684 27.52 17.6982 27.5114 17.71 27.5C17.7214 27.4882 17.73 27.474 17.7352 27.4584C17.7404 27.4428 17.742 27.4263 17.74 27.41C17.7387 27.3955 17.7346 27.3815 17.7279 27.3686C17.7212 27.3557 17.712 27.3443 17.7008 27.335C17.6897 27.3257 17.6768 27.3187 17.6629 27.3144C17.649 27.3101 17.6345 27.3086 17.62 27.31V27.3ZM18.19 27.3C18.1683 27.3005 18.1472 27.3074 18.1294 27.3199C18.1116 27.3323 18.0979 27.3498 18.09 27.37L18.07 27.42C18.07 27.48 18.12 27.53 18.18 27.53C18.2034 27.5316 18.2267 27.5256 18.2465 27.5131C18.2663 27.5005 18.2815 27.4819 18.29 27.46C18.2976 27.4393 18.2988 27.4168 18.2935 27.3954C18.2881 27.374 18.2765 27.3547 18.26 27.34C18.241 27.322 18.2162 27.3113 18.19 27.31V27.3ZM18.75 27.3C18.7347 27.2999 18.7195 27.3031 18.7055 27.3092C18.6914 27.3154 18.6788 27.3244 18.6685 27.3357C18.6581 27.347 18.6502 27.3603 18.6453 27.3748C18.6404 27.3894 18.6386 27.4047 18.64 27.42C18.64 27.48 18.69 27.53 18.74 27.53C18.81 27.53 18.86 27.48 18.86 27.42V27.4C18.8575 27.3726 18.8448 27.3471 18.8244 27.3286C18.8041 27.3101 18.7775 27.2999 18.75 27.3ZM19.31 27.3C19.2947 27.2999 19.2795 27.3031 19.2655 27.3092C19.2514 27.3154 19.2388 27.3244 19.2285 27.3357C19.2181 27.347 19.2102 27.3603 19.2053 27.3748C19.2004 27.3894 19.1986 27.4047 19.2 27.42C19.2 27.48 19.25 27.53 19.31 27.53C19.37 27.53 19.42 27.48 19.42 27.42V27.41C19.4177 27.3842 19.4065 27.3601 19.3882 27.3418C19.3699 27.3235 19.3458 27.3123 19.32 27.31L19.31 27.3ZM19.87 27.3C19.8547 27.2999 19.8395 27.3031 19.8255 27.3092C19.8114 27.3154 19.7988 27.3244 19.7885 27.3357C19.7781 27.347 19.7702 27.3603 19.7653 27.3748C19.7604 27.3894 19.7586 27.4047 19.76 27.42C19.76 27.48 19.81 27.53 19.87 27.53C19.93 27.53 19.98 27.48 19.98 27.42V27.41C19.9777 27.3842 19.9665 27.3601 19.9482 27.3418C19.9299 27.3235 19.9058 27.3123 19.88 27.31L19.87 27.3ZM20.44 27.3C20.4239 27.2985 20.4076 27.3005 20.3923 27.306C20.377 27.3115 20.3632 27.3202 20.3517 27.3317C20.3402 27.3432 20.3315 27.357 20.326 27.3723C20.3205 27.3876 20.3185 27.4039 20.32 27.42C20.32 27.48 20.37 27.53 20.44 27.53C20.5 27.53 20.54 27.48 20.54 27.42V27.41C20.5377 27.3842 20.5265 27.3601 20.5082 27.3418C20.4899 27.3235 20.4658 27.3123 20.44 27.31V27.3ZM21 27.3C20.9847 27.2999 20.9695 27.3031 20.9555 27.3092C20.9414 27.3154 20.9288 27.3244 20.9185 27.3357C20.9081 27.347 20.9002 27.3603 20.8953 27.3748C20.8904 27.3894 20.8886 27.4047 20.89 27.42C20.89 27.48 20.94 27.53 20.99 27.53C21.0061 27.5315 21.0224 27.5295 21.0377 27.524C21.053 27.5185 21.0668 27.5098 21.0783 27.4983C21.0898 27.4868 21.0985 27.473 21.104 27.4577C21.1095 27.4424 21.1115 27.4261 21.11 27.41C21.1075 27.3826 21.0948 27.3571 21.0744 27.3386C21.0541 27.3201 21.0275 27.3099 21 27.31V27.3ZM21.56 27.3C21.5447 27.2999 21.5295 27.3031 21.5155 27.3092C21.5014 27.3154 21.4888 27.3244 21.4785 27.3357C21.4681 27.347 21.4602 27.3603 21.4553 27.3748C21.4504 27.3894 21.4486 27.4047 21.45 27.42C21.45 27.48 21.5 27.53 21.55 27.53C21.575 27.5339 21.6006 27.5291 21.6224 27.5163C21.6443 27.5036 21.6611 27.4837 21.67 27.46C21.6776 27.4393 21.6788 27.4168 21.6735 27.3954C21.6681 27.374 21.6565 27.3547 21.64 27.34C21.6293 27.3299 21.6168 27.3221 21.603 27.3169C21.5893 27.3118 21.5747 27.3094 21.56 27.31V27.3ZM22.12 27.3C22.1047 27.2999 22.0895 27.3031 22.0755 27.3092C22.0614 27.3154 22.0488 27.3244 22.0385 27.3357C22.0281 27.347 22.0202 27.3603 22.0153 27.3748C22.0104 27.3894 22.0086 27.4047 22.01 27.42C22.01 27.48 22.06 27.53 22.12 27.53C22.1492 27.53 22.1772 27.5184 22.1978 27.4978C22.2184 27.4772 22.23 27.4492 22.23 27.42V27.41C22.2277 27.3842 22.2165 27.3601 22.1982 27.3418C22.1799 27.3235 22.1558 27.3123 22.13 27.31L22.12 27.3ZM22.68 27.3C22.6583 27.3005 22.6372 27.3074 22.6194 27.3199C22.6016 27.3323 22.5879 27.3498 22.58 27.37V27.42C22.58 27.48 22.62 27.53 22.68 27.53C22.7092 27.53 22.7372 27.5184 22.7578 27.4978C22.7784 27.4772 22.79 27.4492 22.79 27.42C22.79 27.3908 22.7784 27.3628 22.7578 27.3422C22.7372 27.3216 22.7092 27.31 22.68 27.31V27.3ZM23.25 27.3C23.2347 27.2999 23.2195 27.3031 23.2055 27.3092C23.1914 27.3154 23.1788 27.3244 23.1685 27.3357C23.1581 27.347 23.1502 27.3603 23.1453 27.3748C23.1404 27.3894 23.1386 27.4047 23.14 27.42C23.14 27.48 23.18 27.53 23.24 27.53C23.31 27.53 23.36 27.48 23.36 27.42V27.4C23.3575 27.3726 23.3448 27.3471 23.3244 27.3286C23.3041 27.3101 23.2775 27.2999 23.25 27.3ZM23.81 27.3C23.7795 27.3 23.7503 27.3121 23.7287 27.3337C23.7071 27.3552 23.695 27.3845 23.695 27.415C23.695 27.4455 23.7071 27.4748 23.7287 27.4963C23.7503 27.5179 23.7795 27.53 23.81 27.53C23.87 27.53 23.91 27.48 23.91 27.42V27.4C23.9077 27.3742 23.8965 27.3501 23.8782 27.3318C23.8599 27.3135 23.8358 27.3023 23.81 27.3ZM24.37 27.3C24.3483 27.3005 24.3272 27.3074 24.3094 27.3199C24.2916 27.3323 24.2779 27.3498 24.27 27.37L24.26 27.42C24.26 27.48 24.31 27.53 24.37 27.53C24.3853 27.5301 24.4005 27.5269 24.4145 27.5208C24.4286 27.5146 24.4412 27.5056 24.4515 27.4943C24.4619 27.483 24.4698 27.4697 24.4747 27.4552C24.4796 27.4406 24.4814 27.4253 24.48 27.41C24.4777 27.3842 24.4665 27.3601 24.4482 27.3418C24.4299 27.3235 24.4058 27.3123 24.38 27.31L24.37 27.3ZM24.93 27.3C24.8995 27.3 24.8702 27.3121 24.8487 27.3337C24.8271 27.3552 24.815 27.3845 24.815 27.415C24.815 27.4455 24.8271 27.4748 24.8487 27.4963C24.8702 27.5179 24.8995 27.53 24.93 27.53C24.9454 27.5293 24.9605 27.5254 24.9742 27.5185C24.988 27.5116 25.0002 27.5019 25.01 27.49C25.0295 27.4679 25.0402 27.4394 25.04 27.41C25.0377 27.3842 25.0265 27.3601 25.0082 27.3418C24.9899 27.3235 24.9658 27.3123 24.94 27.31L24.93 27.3ZM25.49 27.3C25.4755 27.3013 25.4615 27.3054 25.4486 27.3121C25.4357 27.3188 25.4243 27.328 25.415 27.3392C25.4057 27.3503 25.3987 27.3632 25.3944 27.3771C25.3901 27.391 25.3886 27.4055 25.39 27.42C25.39 27.48 25.43 27.53 25.49 27.53C25.5063 27.532 25.5228 27.5304 25.5384 27.5252C25.554 27.52 25.5682 27.5114 25.58 27.5C25.5914 27.4882 25.6 27.474 25.6052 27.4584C25.6104 27.4428 25.612 27.4263 25.61 27.41C25.6087 27.3955 25.6046 27.3815 25.5979 27.3686C25.5912 27.3557 25.582 27.3443 25.5708 27.335C25.5597 27.3257 25.5468 27.3187 25.5329 27.3144C25.519 27.3101 25.5045 27.3086 25.49 27.31V27.3ZM26.06 27.3C26.0383 27.3005 26.0172 27.3074 25.9994 27.3199C25.9816 27.3323 25.9679 27.3498 25.96 27.37L25.94 27.42C25.94 27.48 25.99 27.53 26.06 27.53C26.0747 27.5306 26.0893 27.5282 26.103 27.5231C26.1168 27.5179 26.1293 27.5101 26.14 27.5C26.1514 27.4882 26.16 27.474 26.1652 27.4584C26.1704 27.4428 26.172 27.4263 26.17 27.41C26.1675 27.3826 26.1548 27.3571 26.1344 27.3386C26.1141 27.3201 26.0875 27.3099 26.06 27.31V27.3ZM26.62 27.3C26.6047 27.2999 26.5895 27.3031 26.5755 27.3092C26.5614 27.3154 26.5488 27.3244 26.5385 27.3357C26.5281 27.347 26.5202 27.3603 26.5153 27.3748C26.5104 27.3894 26.5086 27.4047 26.51 27.42C26.51 27.48 26.56 27.53 26.61 27.53C26.6278 27.5337 26.6463 27.5329 26.6638 27.5276C26.6812 27.5224 26.6971 27.5129 26.71 27.5C26.7196 27.4873 26.7264 27.4727 26.7299 27.4572C26.7333 27.4417 26.7334 27.4256 26.73 27.41C26.7275 27.3826 26.7148 27.3571 26.6944 27.3386C26.6741 27.3201 26.6475 27.3099 26.62 27.31V27.3ZM27.18 27.3C27.1583 27.3005 27.1372 27.3074 27.1194 27.3199C27.1016 27.3323 27.0879 27.3498 27.08 27.37L27.07 27.42C27.07 27.48 27.12 27.53 27.18 27.53C27.2092 27.53 27.2372 27.5184 27.2578 27.4978C27.2784 27.4772 27.29 27.4492 27.29 27.42C27.29 27.3908 27.2784 27.3628 27.2578 27.3422C27.2372 27.3216 27.2092 27.31 27.18 27.31V27.3ZM27.74 27.3C27.7255 27.3013 27.7115 27.3054 27.6986 27.3121C27.6857 27.3188 27.6743 27.328 27.665 27.3392C27.6557 27.3503 27.6487 27.3632 27.6444 27.3771C27.6401 27.391 27.6386 27.4055 27.64 27.42C27.64 27.48 27.68 27.53 27.74 27.53C27.81 27.53 27.85 27.48 27.86 27.42V27.4C27.8575 27.3726 27.8448 27.3471 27.8244 27.3286C27.8041 27.3101 27.7775 27.2999 27.75 27.3H27.74ZM28.31 27.3C28.2939 27.2985 28.2776 27.3005 28.2623 27.306C28.247 27.3115 28.2332 27.3202 28.2217 27.3317C28.2102 27.3432 28.2015 27.357 28.196 27.3723C28.1905 27.3876 28.1885 27.4039 28.19 27.42C28.19 27.48 28.24 27.53 28.31 27.53C28.37 27.53 28.41 27.48 28.41 27.42V27.41C28.4077 27.3842 28.3965 27.3601 28.3782 27.3418C28.3599 27.3235 28.3358 27.3123 28.31 27.31V27.3ZM28.87 27.3C28.8547 27.2999 28.8395 27.3031 28.8255 27.3092C28.8114 27.3154 28.7988 27.3244 28.7885 27.3357C28.7781 27.347 28.7702 27.3603 28.7653 27.3748C28.7604 27.3894 28.7586 27.4047 28.76 27.42C28.76 27.48 28.81 27.53 28.86 27.53C28.93 27.53 28.98 27.48 28.98 27.42V27.41C28.9775 27.3826 28.9648 27.3571 28.9444 27.3386C28.9241 27.3201 28.8975 27.3099 28.87 27.31V27.3ZM29.43 27.3C29.4147 27.2999 29.3995 27.3031 29.3855 27.3092C29.3714 27.3154 29.3588 27.3244 29.3485 27.3357C29.3381 27.347 29.3302 27.3603 29.3253 27.3748C29.3204 27.3894 29.3186 27.4047 29.32 27.42C29.32 27.48 29.37 27.53 29.43 27.53C29.4453 27.5301 29.4605 27.5269 29.4745 27.5208C29.4886 27.5146 29.5012 27.5056 29.5115 27.4943C29.5219 27.483 29.5298 27.4697 29.5347 27.4552C29.5396 27.4406 29.5414 27.4253 29.54 27.41C29.5377 27.3842 29.5265 27.3601 29.5082 27.3418C29.4899 27.3235 29.4658 27.3123 29.44 27.31L29.43 27.3ZM29.99 27.3C29.9755 27.3013 29.9615 27.3054 29.9486 27.3121C29.9357 27.3188 29.9243 27.328 29.915 27.3392C29.9057 27.3503 29.8987 27.3632 29.8944 27.3771C29.8901 27.391 29.8886 27.4055 29.89 27.42C29.89 27.48 29.93 27.53 29.99 27.53C30.0047 27.5306 30.0193 27.5282 30.033 27.5231C30.0468 27.5179 30.0593 27.5101 30.07 27.5C30.0832 27.4891 30.0937 27.4753 30.1006 27.4597C30.1076 27.4441 30.1108 27.4271 30.11 27.41C30.1087 27.3955 30.1046 27.3815 30.0979 27.3686C30.0912 27.3557 30.082 27.3443 30.0708 27.335C30.0597 27.3257 30.0468 27.3187 30.0329 27.3144C30.019 27.3101 30.0045 27.3086 29.99 27.31V27.3ZM30.56 27.3C30.5383 27.3005 30.5172 27.3074 30.4994 27.3199C30.4816 27.3323 30.4679 27.3498 30.46 27.37L30.44 27.42C30.44 27.48 30.49 27.53 30.55 27.53C30.5653 27.5314 30.5807 27.5296 30.5952 27.5247C30.6097 27.5198 30.623 27.5119 30.6343 27.5015C30.6456 27.4912 30.6546 27.4786 30.6608 27.4645C30.6669 27.4505 30.6701 27.4353 30.67 27.42V27.41C30.6687 27.3955 30.6646 27.3815 30.6579 27.3686C30.6512 27.3557 30.642 27.3443 30.6308 27.335C30.6197 27.3257 30.6068 27.3187 30.5929 27.3144C30.579 27.3101 30.5645 27.3086 30.55 27.31L30.56 27.3ZM31.12 27.3C31.1047 27.2999 31.0895 27.3031 31.0755 27.3092C31.0614 27.3154 31.0488 27.3244 31.0385 27.3357C31.0281 27.347 31.0202 27.3603 31.0153 27.3748C31.0104 27.3894 31.0086 27.4047 31.01 27.42C31.01 27.48 31.06 27.53 31.11 27.53C31.1253 27.5314 31.1406 27.5296 31.1552 27.5247C31.1697 27.5198 31.183 27.5119 31.1943 27.5015C31.2056 27.4912 31.2146 27.4786 31.2208 27.4645C31.2269 27.4505 31.2301 27.4353 31.23 27.42V27.41C31.2275 27.3826 31.2148 27.3571 31.1944 27.3386C31.1741 27.3201 31.1475 27.3099 31.12 27.31V27.3ZM31.68 27.3C31.6583 27.3005 31.6372 27.3074 31.6194 27.3199C31.6016 27.3323 31.5879 27.3498 31.58 27.37L31.57 27.42C31.57 27.48 31.62 27.53 31.68 27.53C31.74 27.53 31.79 27.48 31.79 27.42V27.4C31.7875 27.3726 31.7748 27.3471 31.7544 27.3286C31.7341 27.3101 31.7075 27.2999 31.68 27.3ZM32.24 27.3C32.2247 27.2999 32.2095 27.3031 32.1955 27.3092C32.1814 27.3154 32.1688 27.3244 32.1585 27.3357C32.1481 27.347 32.1402 27.3603 32.1353 27.3748C32.1304 27.3894 32.1286 27.4047 32.13 27.42C32.13 27.48 32.18 27.53 32.24 27.53C32.3 27.53 32.35 27.48 32.35 27.42V27.4C32.3477 27.3742 32.3365 27.3501 32.3182 27.3318C32.2999 27.3135 32.2758 27.3023 32.25 27.3H32.24ZM32.8 27.3C32.7855 27.3013 32.7715 27.3054 32.7586 27.3121C32.7457 27.3188 32.7343 27.328 32.725 27.3392C32.7157 27.3503 32.7087 27.3632 32.7044 27.3771C32.7001 27.391 32.6986 27.4055 32.7 27.42C32.7 27.48 32.74 27.53 32.8 27.53C32.8161 27.5315 32.8324 27.5295 32.8477 27.524C32.863 27.5185 32.8768 27.5098 32.8883 27.4983C32.8998 27.4868 32.9085 27.473 32.914 27.4577C32.9195 27.4424 32.9215 27.4261 32.92 27.41C32.9187 27.3955 32.9146 27.3815 32.9079 27.3686C32.9012 27.3557 32.892 27.3443 32.8808 27.335C32.8697 27.3257 32.8568 27.3187 32.8429 27.3144C32.829 27.3101 32.8145 27.3086 32.8 27.31V27.3ZM33.37 27.3C33.3539 27.2985 33.3376 27.3005 33.3223 27.306C33.307 27.3115 33.2932 27.3202 33.2817 27.3317C33.2702 27.3432 33.2615 27.357 33.256 27.3723C33.2505 27.3876 33.2485 27.4039 33.25 27.42C33.25 27.48 33.3 27.53 33.37 27.53C33.3845 27.5287 33.3985 27.5246 33.4114 27.5179C33.4243 27.5112 33.4357 27.502 33.445 27.4908C33.4543 27.4797 33.4613 27.4668 33.4656 27.4529C33.4699 27.439 33.4714 27.4245 33.47 27.41C33.4677 27.3842 33.4565 27.3601 33.4382 27.3418C33.4199 27.3235 33.3958 27.3123 33.37 27.31V27.3ZM33.93 27.3C33.9147 27.2999 33.8995 27.3031 33.8855 27.3092C33.8714 27.3154 33.8588 27.3244 33.8485 27.3357C33.8381 27.347 33.8302 27.3603 33.8253 27.3748C33.8204 27.3894 33.8186 27.4047 33.82 27.42C33.82 27.48 33.87 27.53 33.93 27.53C33.9453 27.5301 33.9605 27.5269 33.9745 27.5208C33.9886 27.5146 34.0012 27.5056 34.0115 27.4943C34.0219 27.483 34.0298 27.4697 34.0347 27.4552C34.0396 27.4406 34.0414 27.4253 34.04 27.41C34.0375 27.3826 34.0248 27.3571 34.0044 27.3386C33.9841 27.3201 33.9575 27.3099 33.93 27.31V27.3ZM34.49 27.3C34.4747 27.2999 34.4595 27.3031 34.4455 27.3092C34.4314 27.3154 34.4188 27.3244 34.4085 27.3357C34.3981 27.347 34.3902 27.3603 34.3853 27.3748C34.3804 27.3894 34.3786 27.4047 34.38 27.42C34.38 27.48 34.43 27.53 34.49 27.53C34.5047 27.5306 34.5193 27.5282 34.533 27.5231C34.5468 27.5179 34.5593 27.5101 34.57 27.5C34.5814 27.4882 34.59 27.474 34.5952 27.4584C34.6004 27.4428 34.602 27.4263 34.6 27.41C34.5975 27.3826 34.5848 27.3571 34.5644 27.3386C34.5441 27.3201 34.5175 27.3099 34.49 27.31V27.3ZM16.29 29.34C16.0799 29.3341 15.8707 29.3696 15.6743 29.4446C15.4779 29.5195 15.2982 29.6324 15.1454 29.7768C14.9927 29.9212 14.8699 30.0943 14.784 30.2861C14.6981 30.478 14.6509 30.6849 14.645 30.895C14.6391 31.1051 14.6746 31.3143 14.7496 31.5107C14.8245 31.7071 14.9374 31.8868 15.0818 32.0396C15.2262 32.1923 15.3993 32.3151 15.5911 32.401C15.783 32.4869 15.9899 32.5341 16.2 32.54C16.4101 32.5453 16.6192 32.5091 16.8153 32.4335C17.0115 32.358 17.1908 32.2445 17.3431 32.0997C17.4954 31.9548 17.6176 31.7814 17.7029 31.5892C17.7882 31.3971 17.8347 31.1901 17.84 30.98C17.8453 30.7699 17.8091 30.5608 17.7335 30.3647C17.658 30.1685 17.5445 29.9892 17.3997 29.8369C17.2548 29.6846 17.0814 29.5624 16.8892 29.4771C16.6971 29.3918 16.4901 29.3453 16.28 29.34H16.29ZM20.12 29.34C19.6957 29.3294 19.2845 29.4878 18.9769 29.7803C18.6694 30.0729 18.4906 30.4757 18.48 30.9C18.4694 31.3243 18.6278 31.7355 18.9203 32.0431C19.2129 32.3506 19.6157 32.5294 20.04 32.54C20.2501 32.5453 20.4592 32.5091 20.6553 32.4335C20.8515 32.358 21.0308 32.2445 21.1831 32.0997C21.3354 31.9548 21.4576 31.7814 21.5429 31.5892C21.6282 31.3971 21.6747 31.1901 21.68 30.98C21.6853 30.7699 21.6491 30.5608 21.5735 30.3647C21.498 30.1685 21.3845 29.9892 21.2397 29.8369C21.0948 29.6846 20.9214 29.5624 20.7292 29.4771C20.5371 29.3918 20.3301 29.3453 20.12 29.34ZM23.95 29.34C23.5257 29.3307 23.115 29.4904 22.8084 29.7839C22.5018 30.0774 22.3243 30.4807 22.315 30.905C22.3057 31.3293 22.4654 31.74 22.7589 32.0466C23.0524 32.3532 23.4557 32.5307 23.88 32.54C24.0901 32.5446 24.2991 32.5078 24.495 32.4316C24.6908 32.3554 24.8698 32.2414 25.0216 32.0961C25.1734 31.9508 25.2952 31.777 25.3798 31.5846C25.4645 31.3923 25.5104 31.1851 25.515 30.975C25.5196 30.7649 25.4828 30.5559 25.4066 30.36C25.3304 30.1642 25.2164 29.9852 25.0711 29.8334C24.9258 29.6816 24.752 29.5598 24.5596 29.4752C24.3673 29.3905 24.1601 29.3446 23.95 29.34ZM27.79 29.34C27.3657 29.3294 26.9545 29.4878 26.6469 29.7803C26.3394 30.0729 26.1606 30.4757 26.15 30.9C26.1394 31.3243 26.2978 31.7355 26.5903 32.0431C26.8829 32.3506 27.2857 32.5294 27.71 32.54C27.9201 32.5453 28.1292 32.5091 28.3253 32.4335C28.5215 32.358 28.7008 32.2445 28.8531 32.0997C29.0054 31.9548 29.1276 31.7814 29.2129 31.5892C29.2982 31.3971 29.3447 31.1901 29.35 30.98C29.3553 30.7699 29.3191 30.5608 29.2435 30.3647C29.168 30.1685 29.0545 29.9892 28.9097 29.8369C28.7648 29.6846 28.5914 29.5624 28.3992 29.4771C28.2071 29.3918 28.0001 29.3453 27.79 29.34ZM31.63 29.34C31.2057 29.3294 30.7945 29.4878 30.4869 29.7803C30.1794 30.0729 30.0006 30.4757 29.99 30.9C29.9794 31.3243 30.1378 31.7355 30.4303 32.0431C30.7229 32.3506 31.1257 32.5294 31.55 32.54C31.9743 32.5506 32.3855 32.3922 32.6931 32.0997C33.0006 31.8071 33.1794 31.4043 33.19 30.98C33.2006 30.5557 33.0422 30.1445 32.7497 29.8369C32.4571 29.5294 32.0543 29.3506 31.63 29.34ZM13.69 33.94C13.6625 33.9399 13.6359 33.9501 13.6156 33.9686C13.5952 33.9871 13.5825 34.0126 13.58 34.04C13.58 34.11 13.63 34.16 13.68 34.16C13.7105 34.16 13.7398 34.1479 13.7613 34.1263C13.7829 34.1047 13.795 34.0755 13.795 34.045C13.795 34.0145 13.7829 33.9853 13.7613 33.9637C13.7398 33.9421 13.7105 33.93 13.68 33.93L13.69 33.94ZM14.25 33.94C14.2225 33.9399 14.1959 33.9501 14.1756 33.9686C14.1552 33.9871 14.1425 34.0126 14.14 34.04C14.14 34.11 14.19 34.16 14.25 34.16C14.31 34.16 14.36 34.11 14.36 34.05V34.03C14.3575 34.0026 14.3448 33.9771 14.3244 33.9586C14.3041 33.9401 14.2775 33.9299 14.25 33.93V33.94ZM14.81 33.94C14.7953 33.9394 14.7807 33.9418 14.767 33.9469C14.7532 33.9521 14.7407 33.9599 14.73 33.97C14.7199 33.9807 14.7121 33.9932 14.7069 34.007C14.7018 34.0207 14.6994 34.0353 14.7 34.05C14.7 34.11 14.75 34.16 14.81 34.16C14.87 34.16 14.92 34.11 14.92 34.05V34.03C14.9177 34.0042 14.9065 33.9801 14.8882 33.9618C14.8699 33.9435 14.8458 33.9323 14.82 33.93L14.81 33.94ZM15.37 33.94C15.3408 33.94 15.3128 33.9516 15.2922 33.9722C15.2716 33.9928 15.26 34.0208 15.26 34.05C15.26 34.0792 15.2716 34.1072 15.2922 34.1278C15.3128 34.1484 15.3408 34.16 15.37 34.16C15.3861 34.1615 15.4024 34.1595 15.4177 34.154C15.433 34.1485 15.4468 34.1398 15.4583 34.1283C15.4698 34.1168 15.4785 34.103 15.484 34.0877C15.4895 34.0724 15.4915 34.0561 15.49 34.04C15.4887 34.0255 15.4846 34.0115 15.4779 33.9986C15.4712 33.9857 15.462 33.9743 15.4508 33.965C15.4397 33.9557 15.4268 33.9487 15.4129 33.9444C15.399 33.9401 15.3845 33.9386 15.37 33.94ZM15.94 33.94C15.9253 33.9394 15.9107 33.9418 15.897 33.9469C15.8832 33.9521 15.8707 33.9599 15.86 33.97C15.8481 33.9798 15.8384 33.992 15.8315 34.0058C15.8246 34.0195 15.8207 34.0346 15.82 34.05C15.82 34.11 15.88 34.16 15.94 34.16C15.9554 34.1593 15.9705 34.1554 15.9842 34.1485C15.998 34.1416 16.0102 34.1319 16.02 34.12C16.0395 34.0979 16.0502 34.0694 16.05 34.04C16.0475 34.0126 16.0348 33.9871 16.0145 33.9686C15.9941 33.9501 15.9675 33.9399 15.94 33.94ZM16.5 33.94C16.4708 33.94 16.4428 33.9516 16.4222 33.9722C16.4016 33.9928 16.39 34.0208 16.39 34.05C16.39 34.0792 16.4016 34.1072 16.4222 34.1278C16.4428 34.1484 16.4708 34.16 16.5 34.16C16.5153 34.1601 16.5305 34.1569 16.5445 34.1508C16.5586 34.1446 16.5712 34.1356 16.5815 34.1243C16.5919 34.113 16.5998 34.0997 16.6047 34.0852C16.6096 34.0706 16.6114 34.0553 16.61 34.04C16.6075 34.0126 16.5948 33.9871 16.5744 33.9686C16.5541 33.9501 16.5275 33.9399 16.5 33.94ZM17.06 33.94C17.0325 33.9399 17.0059 33.9501 16.9855 33.9686C16.9652 33.9871 16.9525 34.0126 16.95 34.04C16.95 34.11 17 34.16 17.06 34.16C17.0817 34.1595 17.1028 34.1526 17.1206 34.1401C17.1384 34.1277 17.1521 34.1102 17.16 34.09C17.1711 34.0691 17.1752 34.0451 17.1716 34.0217C17.168 33.9983 17.1569 33.9766 17.14 33.96C17.1293 33.9499 17.1168 33.9421 17.103 33.9369C17.0893 33.9318 17.0747 33.9294 17.06 33.93V33.94ZM17.62 33.94C17.5994 33.9396 17.5791 33.945 17.5614 33.9557C17.5437 33.9663 17.5294 33.9816 17.52 34V34.05C17.52 34.11 17.56 34.16 17.62 34.16C17.6371 34.1608 17.6541 34.1576 17.6697 34.1506C17.6853 34.1437 17.6991 34.1332 17.71 34.12C17.7201 34.1093 17.7279 34.0968 17.7331 34.083C17.7382 34.0693 17.7406 34.0547 17.74 34.04C17.7387 34.0255 17.7346 34.0115 17.7279 33.9986C17.7212 33.9857 17.712 33.9743 17.7008 33.965C17.6897 33.9557 17.6768 33.9487 17.6629 33.9444C17.649 33.9401 17.6345 33.9386 17.62 33.94ZM18.19 33.94C18.1755 33.9386 18.161 33.9401 18.1471 33.9444C18.1332 33.9487 18.1203 33.9557 18.1092 33.965C18.098 33.9743 18.0888 33.9857 18.0821 33.9986C18.0754 34.0115 18.0713 34.0255 18.07 34.04C18.07 34.11 18.12 34.16 18.18 34.16C18.2034 34.1616 18.2267 34.1556 18.2465 34.1431C18.2663 34.1305 18.2815 34.1119 18.29 34.09C18.2999 34.068 18.3024 34.0434 18.297 34.0199C18.2915 33.9964 18.2786 33.9754 18.26 33.96C18.241 33.942 18.2162 33.9313 18.19 33.93V33.94ZM18.75 33.94C18.7294 33.9396 18.7091 33.945 18.6914 33.9557C18.6737 33.9663 18.6594 33.9816 18.65 34L18.64 34.05C18.64 34.11 18.69 34.16 18.74 34.16C18.81 34.16 18.86 34.11 18.86 34.05V34.03C18.8575 34.0026 18.8448 33.9771 18.8244 33.9586C18.8041 33.9401 18.7775 33.9299 18.75 33.93V33.94ZM19.31 33.94C19.2825 33.9399 19.2559 33.9501 19.2355 33.9686C19.2152 33.9871 19.2025 34.0126 19.2 34.04C19.2 34.11 19.25 34.16 19.31 34.16C19.37 34.16 19.42 34.11 19.42 34.05V34.04C19.4177 34.0142 19.4065 33.9901 19.3882 33.9718C19.3699 33.9535 19.3458 33.9423 19.32 33.94H19.31ZM19.87 33.94C19.8494 33.9396 19.8291 33.945 19.8114 33.9557C19.7937 33.9663 19.7794 33.9816 19.77 34L19.76 34.05C19.76 34.11 19.81 34.16 19.87 34.16C19.8853 34.1601 19.9005 34.1569 19.9145 34.1508C19.9286 34.1446 19.9412 34.1356 19.9515 34.1243C19.9619 34.113 19.9698 34.0997 19.9747 34.0852C19.9796 34.0706 19.9814 34.0553 19.98 34.04C19.9777 34.0142 19.9665 33.9901 19.9482 33.9718C19.9299 33.9535 19.9058 33.9423 19.88 33.94H19.87ZM20.44 33.94C20.4255 33.9386 20.411 33.9401 20.3971 33.9444C20.3832 33.9487 20.3703 33.9557 20.3592 33.965C20.348 33.9743 20.3388 33.9857 20.3321 33.9986C20.3254 34.0115 20.3213 34.0255 20.32 34.04C20.32 34.11 20.37 34.16 20.44 34.16C20.5 34.16 20.54 34.11 20.54 34.05V34.04C20.5377 34.0142 20.5265 33.9901 20.5082 33.9718C20.4899 33.9535 20.4658 33.9423 20.44 33.94ZM21 33.94C20.9794 33.9396 20.9591 33.945 20.9414 33.9557C20.9237 33.9663 20.9094 33.9816 20.9 34C20.89 34.02 20.88 34.03 20.89 34.05C20.89 34.11 20.94 34.16 20.99 34.16C21.0061 34.1615 21.0224 34.1595 21.0377 34.154C21.053 34.1485 21.0668 34.1398 21.0783 34.1283C21.0898 34.1168 21.0985 34.103 21.104 34.0877C21.1095 34.0724 21.1115 34.0561 21.11 34.04C21.1075 34.0126 21.0948 33.9871 21.0744 33.9686C21.0541 33.9501 21.0275 33.9399 21 33.94ZM21.56 33.94C21.5325 33.9399 21.5059 33.9501 21.4855 33.9686C21.4652 33.9871 21.4525 34.0126 21.45 34.04C21.45 34.11 21.5 34.16 21.55 34.16C21.575 34.1639 21.6006 34.1591 21.6224 34.1463C21.6443 34.1336 21.6611 34.1137 21.67 34.09C21.6799 34.068 21.6824 34.0434 21.677 34.0199C21.6715 33.9964 21.6586 33.9754 21.64 33.96C21.6293 33.9499 21.6168 33.9421 21.603 33.9369C21.5893 33.9318 21.5747 33.9294 21.56 33.93V33.94ZM22.12 33.94C22.0925 33.9399 22.0659 33.9501 22.0456 33.9686C22.0252 33.9871 22.0125 34.0126 22.01 34.04C22.01 34.11 22.06 34.16 22.12 34.16C22.1354 34.1593 22.1505 34.1554 22.1642 34.1485C22.178 34.1416 22.1902 34.1319 22.2 34.12C22.2101 34.1093 22.2179 34.0968 22.2231 34.083C22.2282 34.0693 22.2306 34.0547 22.23 34.04C22.2277 34.0142 22.2165 33.9901 22.1982 33.9718C22.1799 33.9535 22.1558 33.9423 22.13 33.94H22.12ZM22.68 33.94C22.6542 33.9423 22.6301 33.9535 22.6118 33.9718C22.5935 33.9901 22.5823 34.0142 22.58 34.04C22.58 34.11 22.62 34.16 22.68 34.16C22.7105 34.16 22.7398 34.1479 22.7613 34.1263C22.7829 34.1047 22.795 34.0755 22.795 34.045C22.795 34.0145 22.7829 33.9853 22.7613 33.9637C22.7398 33.9421 22.7105 33.93 22.68 33.93V33.94ZM23.25 33.94C23.2225 33.9399 23.1959 33.9501 23.1756 33.9686C23.1552 33.9871 23.1425 34.0126 23.14 34.04C23.14 34.11 23.18 34.16 23.24 34.16C23.31 34.16 23.36 34.11 23.36 34.05V34.03C23.3575 34.0026 23.3448 33.9771 23.3244 33.9586C23.3041 33.9401 23.2775 33.9299 23.25 33.93V33.94ZM23.81 33.94C23.7953 33.9394 23.7807 33.9418 23.767 33.9469C23.7532 33.9521 23.7407 33.9599 23.73 33.97C23.7181 33.9798 23.7084 33.992 23.7015 34.0058C23.6946 34.0195 23.6907 34.0346 23.69 34.05C23.69 34.11 23.75 34.16 23.81 34.16C23.87 34.16 23.91 34.11 23.91 34.05V34.03C23.9077 34.0042 23.8965 33.9801 23.8782 33.9618C23.8599 33.9435 23.8358 33.9323 23.81 33.93V33.94ZM24.37 33.94C24.3408 33.94 24.3128 33.9516 24.2922 33.9722C24.2716 33.9928 24.26 34.0208 24.26 34.05C24.26 34.0792 24.2716 34.1072 24.2922 34.1278C24.3128 34.1484 24.3408 34.16 24.37 34.16C24.3853 34.1601 24.4005 34.1569 24.4145 34.1508C24.4286 34.1446 24.4412 34.1356 24.4515 34.1243C24.4619 34.113 24.4698 34.0997 24.4747 34.0852C24.4796 34.0706 24.4814 34.0553 24.48 34.04C24.4777 34.0142 24.4665 33.9901 24.4482 33.9718C24.4299 33.9535 24.4058 33.9423 24.38 33.94H24.37ZM24.93 33.94C24.9153 33.9394 24.9007 33.9418 24.887 33.9469C24.8732 33.9521 24.8607 33.9599 24.85 33.97C24.8399 33.9807 24.8321 33.9932 24.8269 34.007C24.8218 34.0207 24.8194 34.0353 24.82 34.05C24.82 34.11 24.87 34.16 24.93 34.16C24.9454 34.1593 24.9605 34.1554 24.9742 34.1485C24.988 34.1416 25.0002 34.1319 25.01 34.12C25.0295 34.0979 25.0402 34.0694 25.04 34.04C25.0377 34.0142 25.0265 33.9901 25.0082 33.9718C24.9899 33.9535 24.9658 33.9423 24.94 33.94H24.93ZM25.49 33.94C25.4694 33.9396 25.4491 33.945 25.4314 33.9557C25.4137 33.9663 25.3994 33.9816 25.39 34V34.05C25.39 34.11 25.43 34.16 25.49 34.16C25.5071 34.1608 25.5241 34.1576 25.5397 34.1506C25.5553 34.1437 25.5691 34.1332 25.58 34.12C25.5901 34.1093 25.5979 34.0968 25.6031 34.083C25.6082 34.0693 25.6106 34.0547 25.61 34.04C25.6087 34.0255 25.6046 34.0115 25.5979 33.9986C25.5912 33.9857 25.582 33.9743 25.5708 33.965C25.5597 33.9557 25.5468 33.9487 25.5329 33.9444C25.519 33.9401 25.5045 33.9386 25.49 33.94ZM26.06 33.94C26.0325 33.9399 26.0059 33.9501 25.9855 33.9686C25.9652 33.9871 25.9525 34.0126 25.95 34.04C25.95 34.11 26 34.16 26.05 34.16C26.0671 34.1608 26.0841 34.1576 26.0997 34.1506C26.1154 34.1437 26.1291 34.1332 26.14 34.12C26.1501 34.1093 26.1579 34.0968 26.1631 34.083C26.1682 34.0693 26.1706 34.0547 26.17 34.04C26.1675 34.0126 26.1548 33.9871 26.1344 33.9686C26.1141 33.9501 26.0875 33.9399 26.06 33.94ZM26.62 33.94C26.5994 33.9396 26.5791 33.945 26.5614 33.9557C26.5437 33.9663 26.5294 33.9816 26.52 34L26.51 34.05C26.51 34.11 26.56 34.16 26.61 34.16C26.6287 34.1625 26.6477 34.1601 26.6652 34.1531C26.6827 34.1461 26.6982 34.1347 26.71 34.12C26.7268 34.0969 26.734 34.0683 26.73 34.04C26.7275 34.0126 26.7148 33.9871 26.6944 33.9686C26.6741 33.9501 26.6475 33.9399 26.62 33.94ZM27.18 33.94C27.1525 33.9399 27.1259 33.9501 27.1056 33.9686C27.0852 33.9871 27.0725 34.0126 27.07 34.04C27.07 34.11 27.12 34.16 27.18 34.16C27.2105 34.16 27.2398 34.1479 27.2613 34.1263C27.2829 34.1047 27.295 34.0755 27.295 34.045C27.295 34.0145 27.2829 33.9853 27.2613 33.9637C27.2398 33.9421 27.2105 33.93 27.18 33.93V33.94ZM27.74 33.94C27.7194 33.9396 27.6991 33.945 27.6814 33.9557C27.6637 33.9663 27.6494 33.9816 27.64 34V34.05C27.64 34.11 27.68 34.16 27.74 34.16C27.81 34.16 27.85 34.11 27.86 34.05V34.03C27.8575 34.0026 27.8448 33.9771 27.8244 33.9586C27.8041 33.9401 27.7775 33.9299 27.75 33.93L27.74 33.94ZM28.31 33.94C28.2955 33.9386 28.281 33.9401 28.2671 33.9444C28.2532 33.9487 28.2403 33.9557 28.2292 33.965C28.218 33.9743 28.2088 33.9857 28.2021 33.9986C28.1954 34.0115 28.1913 34.0255 28.19 34.04C28.19 34.11 28.24 34.16 28.31 34.16C28.37 34.16 28.41 34.11 28.41 34.05V34.04C28.4077 34.0142 28.3965 33.9901 28.3782 33.9718C28.3599 33.9535 28.3358 33.9423 28.31 33.94ZM28.87 33.94C28.8494 33.9396 28.8291 33.945 28.8114 33.9557C28.7937 33.9663 28.7794 33.9816 28.77 34L28.76 34.05C28.76 34.11 28.81 34.16 28.86 34.16C28.93 34.16 28.98 34.11 28.98 34.05V34.04C28.9775 34.0126 28.9648 33.9871 28.9444 33.9686C28.9241 33.9501 28.8975 33.9399 28.87 33.94ZM29.43 33.94C29.4025 33.9399 29.3759 33.9501 29.3556 33.9686C29.3352 33.9871 29.3225 34.0126 29.32 34.04C29.32 34.11 29.37 34.16 29.43 34.16C29.4453 34.1601 29.4605 34.1569 29.4745 34.1508C29.4886 34.1446 29.5012 34.1356 29.5115 34.1243C29.5219 34.113 29.5298 34.0997 29.5347 34.0852C29.5396 34.0706 29.5414 34.0553 29.54 34.04C29.5377 34.0142 29.5265 33.9901 29.5082 33.9718C29.4899 33.9535 29.4658 33.9423 29.44 33.94H29.43ZM29.99 33.94C29.9642 33.9423 29.9401 33.9535 29.9218 33.9718C29.9035 33.9901 29.8923 34.0142 29.89 34.04C29.89 34.11 29.93 34.16 29.99 34.16C30.0054 34.1593 30.0205 34.1554 30.0342 34.1485C30.048 34.1416 30.0602 34.1319 30.07 34.12C30.0819 34.1102 30.0916 34.098 30.0985 34.0842C30.1054 34.0705 30.1093 34.0554 30.11 34.04C30.1087 34.0255 30.1046 34.0115 30.0979 33.9986C30.0912 33.9857 30.082 33.9743 30.0708 33.965C30.0597 33.9557 30.0468 33.9487 30.0329 33.9444C30.019 33.9401 30.0045 33.9386 29.99 33.94ZM30.56 33.94C30.5455 33.9386 30.531 33.9401 30.5171 33.9444C30.5032 33.9487 30.4903 33.9557 30.4792 33.965C30.468 33.9743 30.4588 33.9857 30.4521 33.9986C30.4454 34.0115 30.4413 34.0255 30.44 34.04C30.44 34.11 30.49 34.16 30.55 34.16C30.5653 34.1614 30.5807 34.1596 30.5952 34.1547C30.6097 34.1498 30.623 34.1419 30.6343 34.1315C30.6456 34.1212 30.6546 34.1086 30.6608 34.0945C30.6669 34.0805 30.6701 34.0653 30.67 34.05V34.04C30.6687 34.0255 30.6646 34.0115 30.6579 33.9986C30.6512 33.9857 30.642 33.9743 30.6308 33.965C30.6197 33.9557 30.6068 33.9487 30.5929 33.9444C30.579 33.9401 30.5645 33.9386 30.55 33.94H30.56ZM31.12 33.94C31.0925 33.9399 31.0659 33.9501 31.0456 33.9686C31.0252 33.9871 31.0125 34.0126 31.01 34.04C31.01 34.11 31.06 34.16 31.11 34.16C31.1253 34.1614 31.1406 34.1596 31.1552 34.1547C31.1697 34.1498 31.183 34.1419 31.1943 34.1315C31.2056 34.1212 31.2146 34.1086 31.2208 34.0945C31.2269 34.0805 31.2301 34.0653 31.23 34.05V34.04C31.2275 34.0126 31.2148 33.9871 31.1944 33.9686C31.1741 33.9501 31.1475 33.9399 31.12 33.94ZM31.68 33.94C31.6525 33.9399 31.6259 33.9501 31.6056 33.9686C31.5852 33.9871 31.5725 34.0126 31.57 34.04C31.57 34.11 31.62 34.16 31.68 34.16C31.74 34.16 31.79 34.11 31.79 34.05V34.03C31.7875 34.0026 31.7748 33.9771 31.7544 33.9586C31.7341 33.9401 31.7075 33.9299 31.68 33.93V33.94ZM32.24 33.94C32.2194 33.9396 32.1991 33.945 32.1814 33.9557C32.1637 33.9663 32.1494 33.9816 32.14 34L32.13 34.05C32.13 34.11 32.18 34.16 32.24 34.16C32.3 34.16 32.35 34.11 32.35 34.05V34.03C32.3477 34.0042 32.3365 33.9801 32.3182 33.9618C32.2999 33.9435 32.2758 33.9323 32.25 33.93L32.24 33.94ZM32.8 33.94C32.7742 33.9423 32.7501 33.9535 32.7318 33.9718C32.7135 33.9901 32.7023 34.0142 32.7 34.04C32.7 34.11 32.74 34.16 32.8 34.16C32.8161 34.1615 32.8324 34.1595 32.8477 34.154C32.863 34.1485 32.8768 34.1398 32.8883 34.1283C32.8998 34.1168 32.9085 34.103 32.914 34.0877C32.9195 34.0724 32.9215 34.0561 32.92 34.04C32.9187 34.0255 32.9146 34.0115 32.9079 33.9986C32.9012 33.9857 32.892 33.9743 32.8808 33.965C32.8697 33.9557 32.8568 33.9487 32.8429 33.9444C32.829 33.9401 32.8145 33.9386 32.8 33.94ZM33.37 33.94C33.3494 33.9396 33.3291 33.945 33.3114 33.9557C33.2937 33.9663 33.2794 33.9816 33.27 34L33.25 34.05C33.25 34.11 33.3 34.16 33.37 34.16C33.3845 34.1587 33.3985 34.1546 33.4114 34.1479C33.4243 34.1412 33.4357 34.132 33.445 34.1208C33.4543 34.1097 33.4613 34.0968 33.4656 34.0829C33.4699 34.069 33.4714 34.0545 33.47 34.04C33.4677 34.0142 33.4565 33.9901 33.4382 33.9718C33.4199 33.9535 33.3958 33.9423 33.37 33.94ZM33.93 33.94C33.9025 33.9399 33.8759 33.9501 33.8555 33.9686C33.8352 33.9871 33.8225 34.0126 33.82 34.04C33.82 34.11 33.87 34.16 33.93 34.16C33.9453 34.1601 33.9605 34.1569 33.9745 34.1508C33.9886 34.1446 34.0012 34.1356 34.0115 34.1243C34.0219 34.113 34.0298 34.0997 34.0347 34.0852C34.0396 34.0706 34.0414 34.0553 34.04 34.04C34.0375 34.0126 34.0248 33.9871 34.0044 33.9686C33.9841 33.9501 33.9575 33.9399 33.93 33.94ZM34.49 33.94C34.4694 33.9396 34.4491 33.945 34.4314 33.9557C34.4137 33.9663 34.3994 33.9816 34.39 34L34.38 34.05C34.38 34.11 34.43 34.16 34.49 34.16C34.5054 34.1593 34.5205 34.1554 34.5342 34.1485C34.548 34.1416 34.5602 34.1319 34.57 34.12C34.5801 34.1093 34.5879 34.0968 34.5931 34.083C34.5982 34.0693 34.6006 34.0547 34.6 34.04C34.5975 34.0126 34.5848 33.9871 34.5644 33.9686C34.5441 33.9501 34.5175 33.9399 34.49 33.94ZM16.29 36.68C16.0799 36.6741 15.8707 36.7096 15.6743 36.7846C15.4779 36.8595 15.2982 36.9724 15.1454 37.1168C14.9927 37.2612 14.8699 37.4343 14.784 37.6261C14.6981 37.818 14.6509 38.0249 14.645 38.235C14.6391 38.4451 14.6746 38.6543 14.7496 38.8507C14.8245 39.0471 14.9374 39.2268 15.0818 39.3796C15.2262 39.5323 15.3993 39.6551 15.5911 39.741C15.783 39.8269 15.9899 39.8741 16.2 39.88C16.6243 39.8906 17.0355 39.7322 17.3431 39.4397C17.6506 39.1471 17.8294 38.7443 17.84 38.32C17.8506 37.8957 17.6922 37.4845 17.3997 37.1769C17.1071 36.8694 16.7043 36.6906 16.28 36.68H16.29ZM20.12 36.68C19.6957 36.68 19.2887 36.8486 18.9886 37.1486C18.6886 37.4487 18.52 37.8557 18.52 38.28C18.52 38.7043 18.6886 39.1113 18.9886 39.4114C19.2887 39.7114 19.6957 39.88 20.12 39.88C20.5443 39.88 20.9513 39.7114 21.2514 39.4114C21.5514 39.1113 21.72 38.7043 21.72 38.28C21.72 37.8557 21.5514 37.4487 21.2514 37.1486C20.9513 36.8486 20.5443 36.68 20.12 36.68ZM23.95 36.68C23.7399 36.6754 23.5309 36.7122 23.335 36.7884C23.1392 36.8646 22.9602 36.9786 22.8084 37.1239C22.5018 37.4174 22.3243 37.8207 22.315 38.245C22.3057 38.6693 22.4654 39.08 22.7589 39.3866C23.0524 39.6932 23.4557 39.8707 23.88 39.88C24.3043 39.8893 24.715 39.7296 25.0216 39.4361C25.3282 39.1426 25.5057 38.7393 25.515 38.315C25.5243 37.8907 25.3646 37.48 25.0711 37.1734C24.7776 36.8668 24.3743 36.6893 23.95 36.68ZM27.79 36.68C27.5799 36.6747 27.3708 36.7109 27.1747 36.7865C26.9785 36.862 26.7992 36.9755 26.6469 37.1203C26.4946 37.2652 26.3724 37.4386 26.2871 37.6308C26.2018 37.8229 26.1553 38.0299 26.15 38.24C26.1447 38.4501 26.1809 38.6592 26.2565 38.8553C26.332 39.0515 26.4455 39.2308 26.5903 39.3831C26.7352 39.5354 26.9086 39.6576 27.1008 39.7429C27.2929 39.8282 27.4999 39.8747 27.71 39.88C28.1343 39.8906 28.5455 39.7322 28.8531 39.4397C29.1606 39.1471 29.3394 38.7443 29.35 38.32C29.3606 37.8957 29.2022 37.4845 28.9097 37.1769C28.6171 36.8694 28.2143 36.6906 27.79 36.68ZM31.63 36.68C31.4199 36.6747 31.2108 36.7109 31.0147 36.7865C30.8185 36.862 30.6392 36.9755 30.4869 37.1203C30.3346 37.2652 30.2124 37.4386 30.1271 37.6308C30.0418 37.8229 29.9953 38.0299 29.99 38.24C29.9847 38.4501 30.0209 38.6592 30.0965 38.8553C30.172 39.0515 30.2855 39.2308 30.4303 39.3831C30.5752 39.5354 30.7486 39.6576 30.9408 39.7429C31.1329 39.8282 31.3399 39.8747 31.55 39.88C31.9743 39.8906 32.3855 39.7322 32.6931 39.4397C33.0006 39.1471 33.1794 38.7443 33.19 38.32C33.2006 37.8957 33.0422 37.4845 32.7497 37.1769C32.4571 36.8694 32.0543 36.6906 31.63 36.68Z" fill="#333333"/>
</svg>
