<svg width="48" height="48" viewBox="0 0 48 48" fill="none" xmlns="http://www.w3.org/2000/svg">
<path d="M24 4.10003C20.73 4.10003 17.46 4.13003 14.15 4.13003C13.28 4.13003 12.58 4.83003 12.58 5.69003V42.56C12.58 43.43 13.28 44.13 14.15 44.13H33.85C34.72 44.13 35.42 43.43 35.42 42.56V5.69003C35.42 4.82003 34.72 4.13003 33.85 4.13003C30.57 4.09003 27.28 4.08003 24 4.09003V4.10003ZM18.9 5.16003C18.97 5.16003 19.02 5.21003 19.02 5.27003C19.02 5.30053 19.0078 5.32978 18.9863 5.35135C18.9647 5.37292 18.9355 5.38503 18.905 5.38503C18.8745 5.38503 18.8452 5.37292 18.8236 5.35135C18.8021 5.32978 18.79 5.30053 18.79 5.27003C18.79 5.21003 18.84 5.17003 18.89 5.16003H18.9ZM24 5.16003C24.06 5.16003 24.11 5.21003 24.11 5.27003C24.11 5.28448 24.1071 5.29878 24.1016 5.31213C24.0961 5.32547 24.088 5.3376 24.0777 5.34781C24.0675 5.35803 24.0554 5.36613 24.0421 5.37166C24.0287 5.37719 24.0144 5.38003 24 5.38003C23.9855 5.38003 23.9712 5.37719 23.9579 5.37166C23.9445 5.36613 23.9324 5.35803 23.9222 5.34781C23.912 5.3376 23.9039 5.32547 23.8983 5.31213C23.8928 5.29878 23.89 5.28448 23.89 5.27003C23.89 5.21003 23.93 5.17003 23.99 5.16003H24ZM29.09 5.16003C29.15 5.16003 29.2 5.21003 29.2 5.27003C29.2 5.29921 29.1884 5.32719 29.1677 5.34781C29.1471 5.36844 29.1191 5.38003 29.09 5.38003C29.0608 5.38003 29.0328 5.36844 29.0122 5.34781C28.9915 5.32719 28.98 5.29921 28.98 5.27003C28.98 5.21003 29.03 5.17003 29.08 5.16003H29.09ZM18.89 5.72003H18.91C18.97 5.72003 19.01 5.77003 19.01 5.83003C19.01 5.85921 18.9984 5.88719 18.9777 5.90781C18.9571 5.92844 18.9291 5.94003 18.9 5.94003C18.8708 5.94003 18.8428 5.92844 18.8222 5.90781C18.8015 5.88719 18.79 5.85921 18.79 5.83003C18.79 5.78003 18.84 5.73003 18.89 5.73003V5.72003ZM23.99 5.72003H24C24.06 5.72003 24.11 5.77003 24.11 5.83003C24.11 5.84448 24.1071 5.85878 24.1016 5.87213C24.0961 5.88547 24.088 5.8976 24.0777 5.90781C24.0675 5.91803 24.0554 5.92613 24.0421 5.93166C24.0287 5.93719 24.0144 5.94003 24 5.94003C23.9855 5.94003 23.9712 5.93719 23.9579 5.93166C23.9445 5.92613 23.9324 5.91803 23.9222 5.90781C23.912 5.8976 23.9039 5.88547 23.8983 5.87213C23.8928 5.85878 23.89 5.84448 23.89 5.83003C23.89 5.78003 23.93 5.73003 23.99 5.73003V5.72003ZM29.09 5.72003C29.15 5.72003 29.2 5.77003 29.2 5.83003C29.2 5.85921 29.1884 5.88719 29.1677 5.90781C29.1471 5.92844 29.1191 5.94003 29.09 5.94003C29.0608 5.94003 29.0328 5.92844 29.0122 5.90781C28.9915 5.88719 28.98 5.85921 28.98 5.83003C28.98 5.78003 29.03 5.73003 29.08 5.73003L29.09 5.72003ZM18.89 6.28003H18.91C18.97 6.28003 19.01 6.34003 19.01 6.40003C19.0103 6.42065 19.0049 6.44096 18.9943 6.45864C18.9837 6.47632 18.9683 6.49066 18.95 6.50003H18.91C18.8955 6.50141 18.8809 6.49991 18.867 6.49561C18.8532 6.49132 18.8403 6.48433 18.8291 6.47503C18.818 6.46573 18.8088 6.45432 18.802 6.44145C18.7953 6.42858 18.7912 6.4145 18.79 6.40003C18.79 6.34003 18.83 6.30003 18.89 6.28003ZM23.99 6.28003H24C24.06 6.28003 24.11 6.34003 24.11 6.40003C24.1075 6.42744 24.0948 6.45291 24.0744 6.47143C24.054 6.48994 24.0275 6.50015 24 6.50003C23.9724 6.50015 23.9459 6.48994 23.9255 6.47143C23.9051 6.45291 23.8925 6.42744 23.89 6.40003C23.89 6.34003 23.93 6.30003 23.99 6.28003ZM29.08 6.28003H29.09C29.16 6.28003 29.2 6.34003 29.2 6.40003C29.1977 6.4258 29.1864 6.44994 29.1682 6.46823C29.1499 6.48652 29.1257 6.49778 29.1 6.50003C29.0855 6.50141 29.0709 6.49991 29.057 6.49561C29.0432 6.49132 29.0303 6.48433 29.0191 6.47503C29.008 6.46573 28.9988 6.45432 28.992 6.44145C28.9853 6.42858 28.9812 6.4145 28.98 6.40003C28.98 6.34003 29.02 6.30003 29.08 6.28003ZM18.91 6.84003C18.9349 6.83561 18.9605 6.8399 18.9826 6.85219C19.0047 6.86447 19.0219 6.884 19.0313 6.90748C19.0407 6.93097 19.0417 6.95697 19.0342 6.98111C19.0267 7.00525 19.011 7.02606 18.99 7.04003C18.976 7.06112 18.9552 7.07674 18.931 7.08428C18.9069 7.09181 18.8809 7.0908 18.8574 7.0814C18.8339 7.07201 18.8144 7.05481 18.8021 7.03271C18.7898 7.0106 18.7855 6.98493 18.79 6.96003C18.79 6.90003 18.84 6.84003 18.91 6.84003ZM24.01 6.84003C24.0315 6.84333 24.0517 6.85242 24.0684 6.86634C24.0852 6.88025 24.0978 6.89845 24.105 6.919C24.1122 6.93956 24.1137 6.96168 24.1093 6.983C24.1049 7.00432 24.0947 7.02403 24.08 7.04003C24.066 7.06112 24.0452 7.07674 24.021 7.08428C23.9969 7.09181 23.9709 7.0908 23.9474 7.0814C23.9239 7.07201 23.9044 7.05481 23.8921 7.03271C23.8798 7.0106 23.8755 6.98493 23.88 6.96003C23.88 6.90003 23.94 6.84003 24 6.84003H24.01ZM29.1 6.84003C29.1215 6.84333 29.1417 6.85242 29.1584 6.86634C29.1752 6.88025 29.1878 6.89845 29.195 6.919C29.2022 6.93956 29.2037 6.96168 29.1993 6.983C29.1949 7.00432 29.1847 7.02403 29.17 7.04003C29.1546 7.05637 29.1346 7.06761 29.1126 7.07225C29.0907 7.0769 29.0678 7.07472 29.0472 7.06602C29.0265 7.05731 29.009 7.04249 28.997 7.02355C28.985 7.00461 28.979 6.98244 28.98 6.96003C28.98 6.90003 29.03 6.84003 29.1 6.84003ZM18.9 7.41003C18.97 7.41003 19.02 7.46003 19.02 7.52003C19.02 7.55053 19.0078 7.57978 18.9863 7.60135C18.9647 7.62292 18.9355 7.63503 18.905 7.63503C18.8745 7.63503 18.8452 7.62292 18.8236 7.60135C18.8021 7.57978 18.79 7.55053 18.79 7.52003C18.79 7.46003 18.84 7.41003 18.89 7.41003H18.9ZM24 7.41003C24.0224 7.40909 24.0445 7.41503 24.0635 7.42704C24.0824 7.43906 24.0972 7.45658 24.1059 7.47725C24.1146 7.49792 24.1168 7.52076 24.1122 7.54271C24.1075 7.56466 24.0963 7.58466 24.08 7.60003C24.066 7.62112 24.0452 7.63674 24.021 7.64428C23.9969 7.65181 23.9709 7.6508 23.9474 7.6414C23.9239 7.63201 23.9044 7.61481 23.8921 7.59271C23.8798 7.5706 23.8755 7.54493 23.88 7.52003C23.88 7.46003 23.93 7.41003 23.99 7.41003H24ZM29.09 7.41003C29.1124 7.40909 29.1345 7.41503 29.1535 7.42704C29.1724 7.43906 29.1872 7.45658 29.1959 7.47725C29.2046 7.49792 29.2068 7.52076 29.2022 7.54271C29.1975 7.56466 29.1863 7.58466 29.17 7.60003C29.1546 7.61637 29.1346 7.62761 29.1126 7.63225C29.0907 7.6369 29.0678 7.63472 29.0472 7.62602C29.0265 7.61731 29.009 7.60249 28.997 7.58355C28.985 7.56461 28.979 7.54244 28.98 7.52003C28.98 7.46003 29.03 7.41003 29.08 7.41003H29.09ZM18.89 7.97003H18.91C18.97 7.97003 19.01 8.02003 19.01 8.08003C19.01 8.14003 18.97 8.19003 18.91 8.19003C18.8955 8.19141 18.8809 8.18991 18.867 8.18561C18.8532 8.18132 18.8403 8.17433 18.8291 8.16503C18.818 8.15573 18.8088 8.14432 18.802 8.13145C18.7953 8.11858 18.7912 8.1045 18.79 8.09003C18.79 8.02003 18.84 7.97003 18.89 7.97003ZM23.99 7.97003H24C24.0223 7.97174 24.0438 7.97968 24.0618 7.99295C24.0799 8.00622 24.0939 8.02429 24.1022 8.04512C24.1106 8.06594 24.1129 8.08868 24.109 8.11076C24.105 8.13284 24.095 8.15337 24.08 8.17003C24.0666 8.1943 24.0447 8.21265 24.0184 8.22144C23.9922 8.23023 23.9636 8.2288 23.9384 8.21745C23.9131 8.20609 23.8931 8.18564 23.8823 8.16017C23.8714 8.1347 23.8706 8.10609 23.88 8.08003C23.88 8.02003 23.93 7.97003 23.99 7.97003ZM29.09 7.97003C29.1123 7.97174 29.1338 7.97968 29.1518 7.99295C29.1699 8.00622 29.1839 8.02429 29.1922 8.04512C29.2006 8.06594 29.2029 8.08868 29.199 8.11076C29.195 8.13284 29.185 8.15337 29.17 8.17003C29.1541 8.18738 29.1331 8.19917 29.11 8.20369C29.0869 8.20822 29.063 8.20523 29.0417 8.19516C29.0205 8.18509 29.003 8.16848 28.9919 8.14776C28.9808 8.12704 28.9766 8.10331 28.98 8.08003C28.98 8.02003 29.03 7.97003 29.08 7.97003H29.09ZM17.33 8.23003C17.5179 8.22379 17.7034 8.27408 17.8625 8.3744C18.0216 8.47471 18.1469 8.62044 18.2223 8.79275C18.2977 8.96505 18.3197 9.156 18.2854 9.34092C18.2511 9.52584 18.1621 9.69622 18.03 9.83003L16.2 11.7C16.0689 11.8345 15.9009 11.927 15.7172 11.966C15.5335 12.005 15.3424 11.9887 15.168 11.9192C14.9936 11.8496 14.8437 11.7299 14.7372 11.5752C14.6308 11.4205 14.5726 11.2378 14.57 11.05C14.5699 10.9254 14.5946 10.8019 14.6426 10.6869C14.6907 10.5719 14.7612 10.4676 14.85 10.38L16.65 8.52003C16.7362 8.42808 16.8398 8.35421 16.9548 8.3027C17.0698 8.2512 17.194 8.2231 17.32 8.22003L17.33 8.23003ZM22.37 8.23003C22.5579 8.22379 22.7434 8.27408 22.9025 8.3744C23.0616 8.47471 23.1869 8.62044 23.2623 8.79275C23.3377 8.96505 23.3597 9.156 23.3254 9.34092C23.2911 9.52584 23.2021 9.69622 23.07 9.83003L21.25 11.7C21.069 11.8477 20.84 11.9236 20.6067 11.9132C20.3733 11.9027 20.152 11.8067 19.985 11.6434C19.818 11.4801 19.717 11.261 19.7013 11.0279C19.6856 10.7949 19.7564 10.5642 19.9 10.38L21.7 8.52003C21.7862 8.42808 21.8898 8.35421 22.0048 8.3027C22.1198 8.2512 22.244 8.2231 22.37 8.22003V8.23003ZM27.41 8.23003C27.5979 8.22379 27.7834 8.27408 27.9425 8.3744C28.1016 8.47471 28.2269 8.62044 28.3023 8.79275C28.3777 8.96505 28.3997 9.156 28.3654 9.34092C28.3311 9.52584 28.2421 9.69622 28.11 9.83003L26.3 11.7C26.1689 11.8345 26.0009 11.927 25.8172 11.966C25.6335 12.005 25.4424 11.9887 25.268 11.9192C25.0936 11.8496 24.9437 11.7299 24.8372 11.5752C24.7308 11.4205 24.6726 11.2378 24.67 11.05C24.6682 10.7999 24.7652 10.5591 24.94 10.38L26.74 8.52003C26.8262 8.42808 26.9298 8.35421 27.0448 8.3027C27.1598 8.2512 27.284 8.2231 27.41 8.22003V8.23003ZM32.45 8.23003C32.6379 8.22379 32.8234 8.27408 32.9825 8.3744C33.1416 8.47471 33.2669 8.62044 33.3423 8.79275C33.4177 8.96505 33.4397 9.156 33.4054 9.34092C33.3711 9.52584 33.2821 9.69622 33.15 9.83003L31.34 11.7C31.2089 11.8345 31.0409 11.927 30.8572 11.966C30.6735 12.005 30.4824 11.9887 30.308 11.9192C30.1336 11.8496 29.9837 11.7299 29.8772 11.5752C29.7708 11.4205 29.7126 11.2378 29.71 11.05C29.7082 10.7999 29.8052 10.5591 29.98 10.38L31.78 8.52003C31.8662 8.42808 31.9698 8.35421 32.0848 8.3027C32.1998 8.2512 32.324 8.2231 32.45 8.22003V8.23003ZM18.9 8.53003C18.97 8.53003 19.02 8.58003 19.02 8.65003C19.02 8.71003 18.97 8.75003 18.91 8.75003C18.8955 8.75141 18.8809 8.74991 18.867 8.74561C18.8532 8.74132 18.8403 8.73433 18.8291 8.72503C18.818 8.71573 18.8088 8.70432 18.802 8.69145C18.7953 8.67858 18.7912 8.6645 18.79 8.65003C18.79 8.59003 18.84 8.53003 18.89 8.53003H18.9ZM24 8.53003C24.06 8.53003 24.11 8.58003 24.11 8.65003C24.11 8.71003 24.06 8.75003 24 8.75003C23.9724 8.75015 23.9459 8.73994 23.9255 8.72143C23.9051 8.70291 23.8925 8.67744 23.89 8.65003C23.89 8.59003 23.93 8.53003 23.99 8.53003H24ZM29.09 8.53003C29.16 8.53003 29.21 8.58003 29.2 8.65003C29.2 8.71003 29.16 8.75003 29.1 8.75003C29.0855 8.75141 29.0709 8.74991 29.057 8.74561C29.0432 8.74132 29.0303 8.73433 29.0191 8.72503C29.008 8.71573 28.9988 8.70432 28.992 8.69145C28.9853 8.67858 28.9812 8.6645 28.98 8.65003C28.98 8.59003 29.03 8.53003 29.08 8.53003H29.09ZM18.89 9.09003H18.91C18.9405 9.09003 18.9697 9.10215 18.9913 9.12372C19.0128 9.14528 19.025 9.17453 19.025 9.20503C19.025 9.23553 19.0128 9.26478 18.9913 9.28635C18.9697 9.30792 18.9405 9.32003 18.91 9.32003C18.8795 9.32136 18.8497 9.31051 18.8272 9.28989C18.8047 9.26926 18.7913 9.24053 18.79 9.21003C18.7886 9.17953 18.7995 9.14976 18.8201 9.12725C18.8407 9.10475 18.8695 9.09136 18.9 9.09003H18.89ZM23.99 9.09003H24H23.99ZM29.09 9.09003C29.1205 9.09003 29.1497 9.10215 29.1713 9.12372C29.1928 9.14528 29.205 9.17453 29.205 9.20503C29.205 9.23553 29.1928 9.26478 29.1713 9.28635C29.1497 9.30792 29.1205 9.32003 29.09 9.32003C29.0595 9.32003 29.0302 9.30792 29.0086 9.28635C28.9871 9.26478 28.975 9.23553 28.975 9.20503C28.975 9.17453 28.9871 9.14528 29.0086 9.12372C29.0302 9.10215 29.0595 9.09003 29.09 9.09003ZM18.89 9.65003H18.91C18.9405 9.65003 18.9697 9.66215 18.9913 9.68371C19.0128 9.70528 19.025 9.73453 19.025 9.76503C19.025 9.79553 19.0128 9.82478 18.9913 9.84635C18.9697 9.86792 18.9405 9.88003 18.91 9.88003C18.8795 9.88136 18.8497 9.87051 18.8272 9.84988C18.8047 9.82926 18.7913 9.80053 18.79 9.77003C18.7886 9.73953 18.7995 9.70976 18.8201 9.68725C18.8407 9.66475 18.8695 9.65136 18.9 9.65003H18.89ZM23.99 9.65003H24H23.99ZM29.09 9.65003C29.1205 9.65003 29.1497 9.66215 29.1713 9.68371C29.1928 9.70528 29.205 9.73453 29.205 9.76503C29.205 9.79553 29.1928 9.82478 29.1713 9.84635C29.1497 9.86792 29.1205 9.88003 29.09 9.88003C29.0595 9.88003 29.0302 9.86792 29.0086 9.84635C28.9871 9.82478 28.975 9.79553 28.975 9.76503C28.975 9.73453 28.9871 9.70528 29.0086 9.68371C29.0302 9.66215 29.0595 9.65003 29.09 9.65003ZM18.89 10.22H18.91C18.97 10.22 19.01 10.27 19.01 10.33C19.01 10.3592 18.9984 10.3872 18.9777 10.4078C18.9571 10.4284 18.9291 10.44 18.9 10.44C18.8708 10.44 18.8428 10.4284 18.8222 10.4078C18.8015 10.3872 18.79 10.3592 18.79 10.33C18.79 10.28 18.83 10.23 18.89 10.22ZM23.99 10.22H24C24.06 10.22 24.11 10.27 24.11 10.33C24.11 10.3592 24.0984 10.3872 24.0777 10.4078C24.0571 10.4284 24.0291 10.44 24 10.44C23.9708 10.44 23.9428 10.4284 23.9222 10.4078C23.9015 10.3872 23.89 10.3592 23.89 10.33C23.89 10.28 23.93 10.23 23.98 10.22H23.99ZM29.07 10.22H29.09C29.15 10.22 29.2 10.27 29.2 10.33C29.2 10.3592 29.1884 10.3872 29.1677 10.4078C29.1471 10.4284 29.1191 10.44 29.09 10.44C29.0608 10.44 29.0328 10.4284 29.0122 10.4078C28.9915 10.3872 28.98 10.3592 28.98 10.33C28.98 10.28 29.02 10.23 29.08 10.22H29.07ZM18.91 10.78C18.9324 10.7791 18.9545 10.785 18.9735 10.797C18.9924 10.8091 19.0072 10.8266 19.0159 10.8472C19.0246 10.8679 19.0268 10.8908 19.0222 10.9127C19.0175 10.9347 19.0063 10.9547 18.99 10.97C18.9793 10.9801 18.9667 10.988 18.953 10.9931C18.9392 10.9983 18.9246 11.0006 18.91 11C18.8891 11.0017 18.8682 10.9969 18.8503 10.9861C18.8324 10.9754 18.8183 10.9592 18.81 10.94C18.8013 10.9231 18.7972 10.9042 18.798 10.8853C18.7989 10.8663 18.8046 10.8478 18.8146 10.8317C18.8247 10.8156 18.8388 10.8024 18.8555 10.7933C18.8722 10.7843 18.891 10.7797 18.91 10.78ZM24.01 10.78C24.029 10.7797 24.0477 10.7843 24.0644 10.7933C24.0811 10.8024 24.0952 10.8156 24.1053 10.8317C24.1153 10.8478 24.1211 10.8663 24.1219 10.8853C24.1227 10.9042 24.1186 10.9231 24.11 10.94C24.1017 10.9592 24.0875 10.9754 24.0696 10.9861C24.0517 10.9969 24.0308 11.0017 24.01 11C23.9953 11.003 23.9801 11.0027 23.9655 10.999C23.951 10.9954 23.9374 10.9885 23.9259 10.9789C23.9144 10.9693 23.9052 10.9572 23.899 10.9436C23.8927 10.9299 23.8897 10.915 23.89 10.9C23.89 10.83 23.94 10.78 24 10.78H24.01ZM29.1 10.78C29.119 10.7797 29.1377 10.7843 29.1544 10.7933C29.1711 10.8024 29.1852 10.8156 29.1953 10.8317C29.2053 10.8478 29.2111 10.8663 29.2119 10.8853C29.2127 10.9042 29.2086 10.9231 29.2 10.94C29.1917 10.9592 29.1775 10.9754 29.1596 10.9861C29.1417 10.9969 29.1208 11.0017 29.1 11C29.0791 11.0017 29.0582 10.9969 29.0403 10.9861C29.0224 10.9754 29.0083 10.9592 29 10.94C28.9938 10.9229 28.9916 10.9047 28.9935 10.8866C28.9955 10.8685 29.0015 10.8511 29.0111 10.8357C29.0207 10.8203 29.0337 10.8073 29.0491 10.7977C29.0645 10.788 29.0819 10.782 29.1 10.78ZM18.9 11.34C18.97 11.34 19.02 11.39 19.02 11.46C19.02 11.52 18.97 11.56 18.91 11.56C18.8891 11.5617 18.8682 11.5569 18.8503 11.5461C18.8324 11.5354 18.8183 11.5192 18.81 11.5C18.8013 11.4831 18.7972 11.4642 18.798 11.4453C18.7989 11.4263 18.8046 11.4078 18.8146 11.3917C18.8247 11.3756 18.8388 11.3624 18.8555 11.3533C18.8722 11.3443 18.891 11.3397 18.91 11.34H18.9ZM24 11.34C24.06 11.34 24.11 11.39 24.11 11.46C24.11 11.52 24.06 11.56 24.01 11.56C23.9953 11.563 23.9801 11.5627 23.9655 11.559C23.951 11.5554 23.9374 11.5485 23.9259 11.5389C23.9144 11.5293 23.9052 11.5172 23.899 11.5036C23.8927 11.4899 23.8897 11.475 23.89 11.46C23.89 11.39 23.94 11.34 24 11.34ZM29.1 11.34C29.16 11.34 29.2 11.39 29.2 11.46C29.2 11.52 29.16 11.56 29.1 11.56C29.0791 11.5617 29.0582 11.5569 29.0403 11.5461C29.0224 11.5354 29.0083 11.5192 29 11.5C28.9913 11.4831 28.9872 11.4642 28.988 11.4453C28.9889 11.4263 28.9946 11.4078 29.0046 11.3917C29.0147 11.3756 29.0288 11.3624 29.0455 11.3533C29.0622 11.3443 29.081 11.3397 29.1 11.34ZM18.9 11.9C18.9013 11.9145 18.8998 11.9291 18.8955 11.9429C18.8912 11.9568 18.8843 11.9697 18.875 11.9809C18.8657 11.992 18.8542 12.0012 18.8414 12.0079C18.8285 12.0147 18.8144 12.0188 18.8 12.02C18.8 11.96 18.84 11.91 18.9 11.9ZM24 11.9C24.0217 11.9005 24.0428 11.9074 24.0606 11.9199C24.0784 11.9323 24.0921 11.9498 24.1 11.97L24.11 12.02C24.11 12.08 24.06 12.13 24 12.13C23.9708 12.13 23.9428 12.1184 23.9222 12.0978C23.9015 12.0772 23.89 12.0492 23.89 12.02C23.89 11.96 23.93 11.91 23.99 11.9H24ZM29.09 11.9C29.0913 11.9145 29.0898 11.9291 29.0855 11.9429C29.0812 11.9568 29.0743 11.9697 29.065 11.9809C29.0557 11.992 29.0442 12.0012 29.0314 12.0079C29.0185 12.0147 29.0044 12.0188 28.99 12.02C28.98 11.96 29.03 11.91 29.09 11.9ZM17.33 12.23C17.515 12.2306 17.6959 12.2852 17.8504 12.3871C18.0049 12.489 18.1262 12.6339 18.1995 12.8038C18.2728 12.9738 18.2948 13.1614 18.2629 13.3437C18.231 13.526 18.1466 13.6951 18.02 13.83L16.22 15.7C16.0677 15.8606 15.8642 15.963 15.6445 15.9895C15.4248 16.016 15.2027 15.965 15.0166 15.8453C14.8305 15.7256 14.692 15.5447 14.6251 15.3337C14.5582 15.1228 14.567 14.8952 14.65 14.69C14.6957 14.5746 14.7637 14.4693 14.85 14.38L16.66 12.52C16.7462 12.4281 16.8498 12.3542 16.9648 12.3027C17.0798 12.2512 17.204 12.2231 17.33 12.22V12.23ZM22.37 12.23C22.555 12.2306 22.7359 12.2852 22.8904 12.3871C23.0449 12.489 23.1662 12.6339 23.2395 12.8038C23.3128 12.9738 23.3348 13.1614 23.3029 13.3437C23.271 13.526 23.1866 13.6951 23.06 13.83L21.26 15.7C21.1077 15.8606 20.9042 15.963 20.6845 15.9895C20.4648 16.016 20.2427 15.965 20.0566 15.8453C19.8705 15.7256 19.732 15.5447 19.6651 15.3337C19.5982 15.1228 19.607 14.8952 19.69 14.69C19.7355 14.5745 19.8035 14.4691 19.89 14.38L21.7 12.52C21.7862 12.4281 21.8898 12.3542 22.0048 12.3027C22.1198 12.2512 22.244 12.2231 22.37 12.22V12.23ZM27.41 12.23C27.5959 12.2286 27.7781 12.2818 27.9341 12.383C28.0901 12.4842 28.213 12.6289 28.2875 12.7992C28.362 12.9696 28.3849 13.158 28.3534 13.3413C28.3218 13.5245 28.2372 13.6944 28.11 13.83L26.3 15.7C26.1463 15.8541 25.9443 15.9507 25.7279 15.9738C25.5115 15.9968 25.2938 15.9448 25.1111 15.8266C24.9284 15.7083 24.7919 15.5309 24.7243 15.324C24.6568 15.1171 24.6623 14.8933 24.74 14.69C24.7855 14.5745 24.8535 14.4691 24.94 14.38L26.74 12.52C26.8262 12.4281 26.9298 12.3542 27.0448 12.3027C27.1598 12.2512 27.284 12.2231 27.41 12.22V12.23ZM32.45 12.23C32.6359 12.2286 32.8181 12.2818 32.9741 12.383C33.1301 12.4842 33.253 12.6289 33.3275 12.7992C33.402 12.9696 33.4249 13.158 33.3934 13.3413C33.3618 13.5245 33.2772 13.6944 33.15 13.83L31.34 15.7C31.2089 15.8345 31.0409 15.927 30.8572 15.966C30.6735 16.005 30.4824 15.9887 30.308 15.9192C30.1336 15.8496 29.9837 15.7299 29.8772 15.5752C29.7708 15.4205 29.7126 15.2378 29.71 15.05C29.7082 14.7999 29.8052 14.5591 29.98 14.38L31.78 12.52C31.8662 12.4281 31.9698 12.3542 32.0848 12.3027C32.1998 12.2512 32.324 12.2231 32.45 12.22V12.23ZM18.9 12.47C18.9206 12.4697 18.9409 12.4751 18.9586 12.4857C18.9762 12.4963 18.9906 12.5117 19 12.53C19.0086 12.547 19.0127 12.5658 19.0119 12.5848C19.0111 12.6038 19.0053 12.6222 18.9953 12.6384C18.9852 12.6545 18.9711 12.6677 18.9544 12.6768C18.9377 12.6858 18.919 12.6904 18.9 12.69C18.8725 12.6875 18.8471 12.6748 18.8286 12.6545C18.81 12.6341 18.7998 12.6076 18.8 12.58C18.8 12.52 18.84 12.47 18.9 12.47ZM24 12.47C24.0206 12.4697 24.0409 12.4751 24.0586 12.4857C24.0762 12.4963 24.0906 12.5117 24.1 12.53C24.1086 12.547 24.1127 12.5658 24.1119 12.5848C24.1111 12.6038 24.1053 12.6222 24.0953 12.6384C24.0852 12.6545 24.0711 12.6677 24.0544 12.6768C24.0377 12.6858 24.019 12.6904 24 12.69C23.9708 12.69 23.9428 12.6784 23.9222 12.6578C23.9015 12.6372 23.89 12.6092 23.89 12.58C23.89 12.52 23.93 12.47 23.99 12.47H24ZM29.09 12.47C29.1106 12.4697 29.1309 12.4751 29.1486 12.4857C29.1662 12.4963 29.1806 12.5117 29.19 12.53C29.1986 12.547 29.2027 12.5658 29.2019 12.5848C29.2011 12.6038 29.1953 12.6222 29.1853 12.6384C29.1752 12.6545 29.1611 12.6677 29.1444 12.6768C29.1277 12.6858 29.109 12.6904 29.09 12.69C29.0608 12.69 29.0328 12.6784 29.0122 12.6578C28.9915 12.6372 28.98 12.6092 28.98 12.58C28.98 12.5509 28.9915 12.5229 29.0122 12.5023C29.0328 12.4816 29.0608 12.47 29.09 12.47ZM18.89 14.15C18.9069 14.1468 18.9243 14.1476 18.9408 14.1523C18.9574 14.157 18.9726 14.1656 18.9852 14.1772C18.9979 14.1889 19.0076 14.2034 19.0136 14.2195C19.0197 14.2356 19.0218 14.2529 19.02 14.27C19.02 14.3005 19.0078 14.3298 18.9863 14.3513C18.9647 14.3729 18.9355 14.385 18.905 14.385C18.8745 14.385 18.8452 14.3729 18.8236 14.3513C18.8021 14.3298 18.79 14.3005 18.79 14.27C18.79 14.21 18.84 14.16 18.89 14.15ZM23.99 14.15C24.0061 14.1485 24.0224 14.1505 24.0376 14.156C24.0529 14.1615 24.0668 14.1703 24.0782 14.1817C24.0897 14.1932 24.0985 14.2071 24.104 14.2223C24.1095 14.2376 24.1115 14.2539 24.11 14.27C24.11 14.2992 24.0984 14.3272 24.0777 14.3478C24.0571 14.3684 24.0291 14.38 24 14.38C23.9708 14.38 23.9428 14.3684 23.9222 14.3478C23.9015 14.3272 23.89 14.2992 23.89 14.27C23.89 14.21 23.93 14.16 23.99 14.15ZM29.09 14.15C29.1061 14.1485 29.1224 14.1505 29.1376 14.156C29.1529 14.1615 29.1668 14.1703 29.1782 14.1817C29.1897 14.1932 29.1985 14.2071 29.204 14.2223C29.2095 14.2376 29.2115 14.2539 29.21 14.27C29.208 14.2908 29.2001 14.3106 29.1873 14.327C29.1745 14.3435 29.1573 14.356 29.1376 14.3631C29.118 14.3701 29.0968 14.3714 29.0764 14.3669C29.0561 14.3623 29.0374 14.3521 29.0227 14.3373C29.0079 14.3226 28.9977 14.3039 28.9931 14.2836C28.9886 14.2632 28.9899 14.242 28.9969 14.2223C29.004 14.2027 29.0165 14.1855 29.0329 14.1727C29.0494 14.1599 29.0692 14.152 29.09 14.15ZM18.89 14.72H18.91C18.97 14.72 19.01 14.77 19.01 14.82C19.01 14.8492 18.9984 14.8772 18.9777 14.8978C18.9571 14.9184 18.9291 14.93 18.9 14.93C18.8708 14.93 18.8428 14.9184 18.8222 14.8978C18.8015 14.8772 18.79 14.8492 18.79 14.82C18.79 14.77 18.83 14.72 18.89 14.72ZM23.99 14.72H24C24.06 14.72 24.11 14.77 24.11 14.82C24.11 14.8492 24.0984 14.8772 24.0777 14.8978C24.0571 14.9184 24.0291 14.93 24 14.93C23.9708 14.93 23.9428 14.9184 23.9222 14.8978C23.9015 14.8772 23.89 14.8492 23.89 14.82C23.89 14.77 23.93 14.72 23.98 14.72H23.99ZM29.07 14.72H29.09C29.16 14.72 29.2 14.77 29.2 14.82C29.2 14.8492 29.1884 14.8772 29.1677 14.8978C29.1471 14.9184 29.1191 14.93 29.09 14.93C29.0608 14.93 29.0328 14.9184 29.0122 14.8978C28.9915 14.8772 28.98 14.8492 28.98 14.82C28.98 14.77 29.02 14.72 29.08 14.72H29.07ZM18.89 15.28H18.91C18.9357 15.2823 18.9599 15.2935 18.9782 15.3118C18.9964 15.3301 19.0077 15.3543 19.01 15.38C19.01 15.45 18.97 15.5 18.91 15.5C18.8878 15.5033 18.8652 15.4998 18.8452 15.4899C18.8251 15.48 18.8085 15.4642 18.7977 15.4446C18.7868 15.4251 18.7821 15.4027 18.7843 15.3804C18.7865 15.3582 18.7955 15.3371 18.81 15.32C18.8197 15.3081 18.8319 15.2984 18.8457 15.2915C18.8595 15.2846 18.8746 15.2807 18.89 15.28ZM23.98 15.28H24C24.0275 15.2799 24.054 15.2901 24.0744 15.3086C24.0948 15.3272 24.1075 15.3526 24.11 15.38C24.11 15.45 24.06 15.5 24 15.5C23.9787 15.5011 23.9575 15.4959 23.9391 15.4851C23.9207 15.4743 23.9059 15.4584 23.8963 15.4394C23.8868 15.4203 23.883 15.3989 23.8854 15.3777C23.8878 15.3565 23.8964 15.3365 23.91 15.32C23.9274 15.2983 23.9524 15.284 23.98 15.28ZM29.08 15.28H29.09C29.1175 15.2799 29.144 15.2901 29.1644 15.3086C29.1848 15.3272 29.1975 15.3526 29.2 15.38C29.2 15.45 29.16 15.5 29.1 15.5C29.0847 15.5014 29.0693 15.4996 29.0548 15.4947C29.0403 15.4898 29.0269 15.4819 29.0156 15.4716C29.0043 15.4612 28.9953 15.4486 28.9892 15.4346C28.983 15.4205 28.9799 15.4054 28.98 15.39C28.9798 15.3625 28.99 15.3359 29.0086 15.3156C29.0271 15.2952 29.0525 15.2825 29.08 15.28ZM18.91 15.84C18.9349 15.8356 18.9605 15.8399 18.9826 15.8522C19.0047 15.8645 19.0219 15.884 19.0313 15.9075C19.0407 15.931 19.0417 15.957 19.0342 15.9811C19.0267 16.0053 19.011 16.0261 18.99 16.04C18.976 16.0611 18.9552 16.0767 18.931 16.0843C18.9069 16.0918 18.8809 16.0908 18.8574 16.0814C18.8339 16.072 18.8144 16.0548 18.8021 16.0327C18.7898 16.0106 18.7855 15.9849 18.79 15.96C18.79 15.89 18.84 15.84 18.91 15.84ZM24.01 15.84C24.0315 15.8433 24.0517 15.8524 24.0684 15.8663C24.0852 15.8802 24.0978 15.8985 24.105 15.919C24.1122 15.9396 24.1137 15.9617 24.1093 15.983C24.1049 16.0043 24.0947 16.024 24.08 16.04C24.066 16.0611 24.0452 16.0767 24.021 16.0843C23.9969 16.0918 23.9709 16.0908 23.9474 16.0814C23.9239 16.072 23.9044 16.0548 23.8921 16.0327C23.8798 16.0106 23.8755 15.9849 23.88 15.96C23.88 15.89 23.94 15.84 24 15.84H24.01ZM29.1 15.84C29.1215 15.8433 29.1417 15.8524 29.1584 15.8663C29.1752 15.8802 29.1878 15.8985 29.195 15.919C29.2022 15.9396 29.2037 15.9617 29.1993 15.983C29.1949 16.0043 29.1847 16.024 29.17 16.04C29.1546 16.0564 29.1346 16.0676 29.1126 16.0723C29.0907 16.0769 29.0678 16.0747 29.0472 16.066C29.0265 16.0573 29.009 16.0425 28.997 16.0236C28.985 16.0046 28.979 15.9824 28.98 15.96C28.98 15.89 29.03 15.84 29.1 15.84ZM17.33 16.23C17.515 16.2306 17.6959 16.2852 17.8504 16.3871C18.0049 16.489 18.1262 16.6339 18.1995 16.8038C18.2728 16.9738 18.2948 17.1614 18.2629 17.3437C18.231 17.526 18.1466 17.6951 18.02 17.83L16.22 19.7C16.0677 19.8606 15.8642 19.963 15.6445 19.9895C15.4248 20.016 15.2027 19.965 15.0166 19.8453C14.8305 19.7256 14.692 19.5447 14.6251 19.3337C14.5582 19.1228 14.567 18.8952 14.65 18.69C14.6957 18.5746 14.7637 18.4693 14.85 18.38L16.66 16.52C16.7462 16.4281 16.8498 16.3542 16.9648 16.3027C17.0798 16.2512 17.204 16.2231 17.33 16.22V16.23ZM22.37 16.23C22.555 16.2306 22.7359 16.2852 22.8904 16.3871C23.0449 16.489 23.1662 16.6339 23.2395 16.8038C23.3128 16.9738 23.3348 17.1614 23.3029 17.3437C23.271 17.526 23.1866 17.6951 23.06 17.83L21.26 19.7C21.1077 19.8606 20.9042 19.963 20.6845 19.9895C20.4648 20.016 20.2427 19.965 20.0566 19.8453C19.8705 19.7256 19.732 19.5447 19.6651 19.3337C19.5982 19.1228 19.607 18.8952 19.69 18.69C19.7355 18.5745 19.8035 18.4691 19.89 18.38L21.7 16.52C21.7862 16.4281 21.8898 16.3542 22.0048 16.3027C22.1198 16.2512 22.244 16.2231 22.37 16.22V16.23ZM27.41 16.23C27.5959 16.2286 27.7781 16.2818 27.9341 16.383C28.0901 16.4842 28.213 16.6289 28.2875 16.7992C28.362 16.9696 28.3849 17.158 28.3534 17.3413C28.3218 17.5245 28.2372 17.6944 28.11 17.83L26.3 19.7C26.1463 19.8541 25.9443 19.9507 25.7279 19.9738C25.5115 19.9968 25.2938 19.9448 25.1111 19.8266C24.9284 19.7083 24.7919 19.5309 24.7243 19.324C24.6568 19.1171 24.6623 18.8933 24.74 18.69C24.7855 18.5745 24.8535 18.4691 24.94 18.38L26.74 16.52C26.8262 16.4281 26.9298 16.3542 27.0448 16.3027C27.1598 16.2512 27.284 16.2231 27.41 16.22V16.23ZM32.45 16.23C32.6359 16.2286 32.8181 16.2818 32.9741 16.383C33.1301 16.4842 33.253 16.6289 33.3275 16.7992C33.402 16.9696 33.4249 17.158 33.3934 17.3413C33.3618 17.5245 33.2772 17.6944 33.15 17.83L31.34 19.7C31.2089 19.8345 31.0409 19.927 30.8572 19.966C30.6735 20.005 30.4824 19.9887 30.308 19.9192C30.1336 19.8496 29.9837 19.7299 29.8772 19.5752C29.7708 19.4205 29.7126 19.2378 29.71 19.05C29.7082 18.7999 29.8052 18.5591 29.98 18.38L31.78 16.52C31.8662 16.4281 31.9698 16.3542 32.0848 16.3027C32.1998 16.2512 32.324 16.2231 32.45 16.22V16.23ZM18.9 16.4C18.9217 16.4005 18.9428 16.4074 18.9606 16.4199C18.9784 16.4323 18.9921 16.4498 19 16.47C19.0063 16.4842 19.0096 16.4995 19.0096 16.515C19.0096 16.5305 19.0063 16.5459 19 16.56C18.9961 16.5729 18.9896 16.5848 18.9811 16.5951C18.9725 16.6054 18.9619 16.6139 18.95 16.62H18.91C18.8953 16.623 18.8801 16.6227 18.8655 16.619C18.851 16.6154 18.8374 16.6085 18.8259 16.5989C18.8144 16.5893 18.8052 16.5772 18.799 16.5636C18.7927 16.5499 18.7897 16.535 18.79 16.52C18.79 16.46 18.84 16.41 18.89 16.4H18.9ZM24 16.4C24.0217 16.4005 24.0428 16.4074 24.0606 16.4199C24.0784 16.4323 24.0921 16.4498 24.1 16.47C24.1063 16.4842 24.1096 16.4995 24.1096 16.515C24.1096 16.5305 24.1063 16.5459 24.1 16.56C24.095 16.5738 24.087 16.5863 24.0766 16.5967C24.0663 16.6071 24.0537 16.615 24.04 16.62H24C23.986 16.6214 23.9719 16.6199 23.9586 16.6155C23.9453 16.6111 23.9331 16.604 23.9227 16.5945C23.9123 16.5851 23.904 16.5736 23.8984 16.5608C23.8928 16.5479 23.8899 16.5341 23.89 16.52C23.89 16.46 23.93 16.41 23.99 16.4H24ZM29.09 16.4C29.1117 16.4005 29.1328 16.4074 29.1506 16.4199C29.1684 16.4323 29.1821 16.4498 29.19 16.47C29.1963 16.4842 29.1996 16.4995 29.1996 16.515C29.1996 16.5305 29.1963 16.5459 29.19 16.56C29.1861 16.5729 29.1796 16.5848 29.1711 16.5951C29.1625 16.6054 29.1519 16.6139 29.14 16.62H29.09C29.0691 16.6217 29.0482 16.6169 29.0303 16.6061C29.0124 16.5954 28.9983 16.5792 28.99 16.56C28.9813 16.5431 28.9772 16.5242 28.978 16.5053C28.9789 16.4863 28.9846 16.4678 28.9946 16.4517C29.0047 16.4356 29.0188 16.4224 29.0355 16.4133C29.0522 16.4043 29.071 16.3997 29.09 16.4ZM18.89 16.97C18.9138 16.9654 18.9385 16.9688 18.9602 16.9796C18.9819 16.9905 18.9994 17.0082 19.01 17.03V17.08C19.01 17.14 18.97 17.18 18.91 17.18C18.8893 17.1804 18.869 17.175 18.8514 17.1644C18.8337 17.1538 18.8193 17.1384 18.81 17.12C18.8013 17.1031 18.7972 17.0842 18.798 17.0653C18.7989 17.0463 18.8046 17.0278 18.8146 17.0117C18.8247 16.9956 18.8388 16.9824 18.8555 16.9733C18.8722 16.9643 18.891 16.9597 18.91 16.96L18.89 16.97ZM23.99 16.97C24.0122 16.9676 24.0347 16.9721 24.0543 16.9828C24.074 16.9936 24.0899 17.01 24.1 17.03L24.11 17.08C24.11 17.14 24.06 17.18 24 17.18C23.9793 17.1804 23.959 17.175 23.9414 17.1644C23.9237 17.1538 23.9093 17.1384 23.9 17.12C23.8913 17.1031 23.8872 17.0842 23.888 17.0653C23.8889 17.0463 23.8946 17.0278 23.9046 17.0117C23.9147 16.9956 23.9288 16.9824 23.9455 16.9733C23.9622 16.9643 23.981 16.9597 24 16.96L23.99 16.97ZM29.09 16.97C29.1106 16.9697 29.1309 16.9751 29.1486 16.9857C29.1662 16.9963 29.1806 17.0117 29.19 17.03L29.21 17.08C29.21 17.14 29.16 17.18 29.09 17.18C29.076 17.1814 29.0619 17.1799 29.0486 17.1755C29.0353 17.1711 29.0231 17.164 29.0127 17.1545C29.0023 17.1451 28.994 17.1336 28.9884 17.1208C28.9828 17.1079 28.9799 17.0941 28.98 17.08C28.98 17.02 29.03 16.97 29.08 16.97H29.09ZM18.89 17.53C18.906 17.5271 18.9225 17.5277 18.9382 17.5319C18.954 17.5361 18.9686 17.5437 18.981 17.5542C18.9935 17.5648 19.0034 17.5779 19.0101 17.5927C19.0169 17.6076 19.0202 17.6237 19.02 17.64C19.02 17.6705 19.0078 17.6998 18.9863 17.7213C18.9647 17.7429 18.9355 17.755 18.905 17.755C18.8745 17.755 18.8452 17.7429 18.8236 17.7213C18.8021 17.6998 18.79 17.6705 18.79 17.64C18.79 17.58 18.84 17.54 18.89 17.53ZM23.99 17.53C24.0052 17.5286 24.0206 17.5305 24.0351 17.5354C24.0496 17.5403 24.063 17.5481 24.0743 17.5585C24.0856 17.5688 24.0946 17.5815 24.1007 17.5955C24.1069 17.6095 24.11 17.6247 24.11 17.64C24.11 17.6692 24.0984 17.6972 24.0777 17.7178C24.0571 17.7384 24.0291 17.75 24 17.75C23.9708 17.75 23.9428 17.7384 23.9222 17.7178C23.9015 17.6972 23.89 17.6692 23.89 17.64C23.89 17.58 23.93 17.54 23.99 17.53ZM29.09 17.53C29.1052 17.5286 29.1206 17.5305 29.1351 17.5354C29.1497 17.5403 29.163 17.5481 29.1743 17.5585C29.1856 17.5688 29.1946 17.5815 29.2007 17.5955C29.2069 17.6095 29.21 17.6247 29.21 17.64C29.2099 17.6613 29.2036 17.6822 29.1919 17.7C29.1802 17.7178 29.1636 17.7318 29.144 17.7404C29.1245 17.7489 29.1029 17.7516 29.0819 17.7481C29.0609 17.7446 29.0413 17.7351 29.0256 17.7207C29.0099 17.7063 28.9987 17.6876 28.9934 17.667C28.9881 17.6463 28.9889 17.6246 28.9957 17.6044C29.0025 17.5842 29.0151 17.5664 29.0318 17.5532C29.0485 17.54 29.0687 17.532 29.09 17.53ZM18.89 18.09C18.906 18.0871 18.9225 18.0877 18.9382 18.0919C18.954 18.0961 18.9686 18.1037 18.981 18.1142C18.9935 18.1247 19.0034 18.1379 19.0101 18.1527C19.0169 18.1676 19.0202 18.1837 19.02 18.2C19.02 18.2305 19.0078 18.2598 18.9863 18.2813C18.9647 18.3029 18.9355 18.315 18.905 18.315C18.8745 18.315 18.8452 18.3029 18.8236 18.2813C18.8021 18.2598 18.79 18.2305 18.79 18.2C18.79 18.14 18.84 18.1 18.89 18.09ZM23.99 18.09C24.0052 18.0886 24.0206 18.0904 24.0351 18.0954C24.0496 18.1003 24.063 18.1081 24.0743 18.1185C24.0856 18.1288 24.0946 18.1415 24.1007 18.1555C24.1069 18.1695 24.11 18.1847 24.11 18.2C24.11 18.2292 24.0984 18.2572 24.0777 18.2778C24.0571 18.2984 24.0291 18.31 24 18.31C23.9708 18.31 23.9428 18.2984 23.9222 18.2778C23.9015 18.2572 23.89 18.2292 23.89 18.2C23.89 18.14 23.93 18.1 23.99 18.09ZM29.09 18.09C29.1052 18.0886 29.1206 18.0904 29.1351 18.0954C29.1497 18.1003 29.163 18.1081 29.1743 18.1185C29.1856 18.1288 29.1946 18.1415 29.2007 18.1555C29.2069 18.1695 29.21 18.1847 29.21 18.2C29.2099 18.2213 29.2036 18.2422 29.1919 18.26C29.1802 18.2778 29.1636 18.2918 29.144 18.3004C29.1245 18.3089 29.1029 18.3116 29.0819 18.3081C29.0609 18.3046 29.0413 18.2951 29.0256 18.2807C29.0099 18.2663 28.9987 18.2476 28.9934 18.227C28.9881 18.2063 28.9889 18.1846 28.9957 18.1644C29.0025 18.1442 29.0151 18.1264 29.0318 18.1132C29.0485 18.1 29.0687 18.092 29.09 18.09ZM23.99 18.65C24.0134 18.6484 24.0367 18.6544 24.0564 18.667C24.0762 18.6796 24.0915 18.6982 24.1 18.72C24.1097 18.734 24.116 18.7499 24.1185 18.7667C24.121 18.7835 24.1196 18.8006 24.1144 18.8168C24.1092 18.8329 24.1003 18.8476 24.0884 18.8598C24.0766 18.8719 24.0621 18.8812 24.0461 18.8868C24.03 18.8924 24.013 18.8942 23.9961 18.8921C23.9793 18.89 23.9631 18.884 23.949 18.8747C23.9349 18.8653 23.9231 18.8528 23.9146 18.8381C23.906 18.8234 23.901 18.807 23.9 18.79C23.8954 18.7741 23.8945 18.7574 23.8974 18.7411C23.9002 18.7248 23.9066 18.7094 23.9162 18.6959C23.9258 18.6825 23.9384 18.6714 23.9529 18.6634C23.9673 18.6555 23.9834 18.6509 24 18.65H23.99ZM18.89 19.21H18.91C18.97 19.21 19.01 19.27 19.01 19.33C19.01 19.3592 18.9984 19.3872 18.9777 19.4078C18.9571 19.4284 18.9291 19.44 18.9 19.44C18.8708 19.44 18.8428 19.4284 18.8222 19.4078C18.8015 19.3872 18.79 19.3592 18.79 19.33C18.79 19.27 18.83 19.23 18.89 19.21ZM23.99 19.21H24C24.06 19.21 24.11 19.27 24.11 19.33C24.11 19.3592 24.0984 19.3872 24.0777 19.4078C24.0571 19.4284 24.0291 19.44 24 19.44C23.9708 19.44 23.9428 19.4284 23.9222 19.4078C23.9015 19.3872 23.89 19.3592 23.89 19.33C23.89 19.27 23.93 19.23 23.98 19.21H23.99ZM29.07 19.21H29.09C29.15 19.21 29.2 19.27 29.2 19.33C29.2 19.3592 29.1884 19.3872 29.1677 19.4078C29.1471 19.4284 29.1191 19.44 29.09 19.44C29.0608 19.44 29.0328 19.4284 29.0122 19.4078C28.9915 19.3872 28.98 19.3592 28.98 19.33C28.98 19.27 29.02 19.23 29.08 19.21H29.07ZM18.91 19.77C18.97 19.77 19.02 19.83 19.01 19.89C19.003 19.9124 18.989 19.932 18.9701 19.9459C18.9512 19.9598 18.9284 19.9672 18.905 19.9672C18.8815 19.9672 18.8587 19.9598 18.8398 19.9459C18.8209 19.932 18.8069 19.9124 18.8 19.89C18.8 19.83 18.84 19.77 18.9 19.77H18.91ZM24.01 19.77C24.0339 19.7685 24.0577 19.7748 24.0778 19.7881C24.0978 19.8013 24.1129 19.8208 24.1209 19.8435C24.1288 19.8661 24.1291 19.8908 24.1217 19.9136C24.1143 19.9365 24.0997 19.9563 24.08 19.97C24.066 19.9911 24.0452 20.0067 24.021 20.0143C23.9969 20.0218 23.9709 20.0208 23.9474 20.0114C23.9239 20.002 23.9044 19.9848 23.8921 19.9627C23.8798 19.9406 23.8755 19.9149 23.88 19.89C23.88 19.83 23.94 19.77 24 19.77H24.01ZM29.1 19.77C29.16 19.77 29.2 19.83 29.2 19.89C29.2 19.9192 29.1884 19.9472 29.1677 19.9678C29.1471 19.9884 29.1191 20 29.09 20C29.0608 20 29.0328 19.9884 29.0122 19.9678C28.9915 19.9472 28.98 19.9192 28.98 19.89C28.98 19.83 29.03 19.77 29.1 19.77ZM17.33 20.23C17.515 20.2306 17.6959 20.2852 17.8504 20.3871C18.0049 20.489 18.1262 20.6339 18.1995 20.8038C18.2728 20.9738 18.2948 21.1614 18.2629 21.3437C18.231 21.526 18.1466 21.6951 18.02 21.83L16.22 23.7C16.0677 23.8606 15.8642 23.963 15.6445 23.9895C15.4248 24.016 15.2027 23.965 15.0166 23.8453C14.8305 23.7256 14.692 23.5447 14.6251 23.3337C14.5582 23.1228 14.567 22.8952 14.65 22.69C14.6957 22.5746 14.7637 22.4693 14.85 22.38L16.66 20.52C16.7462 20.4281 16.8498 20.3542 16.9648 20.3027C17.0798 20.2512 17.204 20.2231 17.33 20.22V20.23ZM22.37 20.23C22.555 20.2306 22.7359 20.2852 22.8904 20.3871C23.0449 20.489 23.1662 20.6339 23.2395 20.8038C23.3128 20.9738 23.3348 21.1614 23.3029 21.3437C23.271 21.526 23.1866 21.6951 23.06 21.83L21.26 23.7C21.1077 23.8606 20.9042 23.963 20.6845 23.9895C20.4648 24.016 20.2427 23.965 20.0566 23.8453C19.8705 23.7256 19.732 23.5447 19.6651 23.3337C19.5982 23.1228 19.607 22.8952 19.69 22.69C19.7355 22.5745 19.8035 22.4691 19.89 22.38L21.7 20.52C21.7862 20.4281 21.8898 20.3542 22.0048 20.3027C22.1198 20.2512 22.244 20.2231 22.37 20.22V20.23ZM27.41 20.23C27.5959 20.2286 27.7781 20.2818 27.9341 20.383C28.0901 20.4842 28.213 20.6289 28.2875 20.7992C28.362 20.9696 28.3849 21.158 28.3534 21.3413C28.3218 21.5245 28.2372 21.6944 28.11 21.83L26.3 23.7C26.1463 23.8541 25.9443 23.9507 25.7279 23.9738C25.5115 23.9968 25.2938 23.9448 25.1111 23.8266C24.9284 23.7083 24.7919 23.5309 24.7243 23.324C24.6568 23.1171 24.6623 22.8933 24.74 22.69C24.7855 22.5745 24.8535 22.4691 24.94 22.38L26.74 20.52C26.8262 20.4281 26.9298 20.3542 27.0448 20.3027C27.1598 20.2512 27.284 20.2231 27.41 20.22V20.23ZM32.45 20.23C32.6359 20.2286 32.8181 20.2818 32.9741 20.383C33.1301 20.4842 33.253 20.6289 33.3275 20.7992C33.402 20.9696 33.4249 21.158 33.3934 21.3413C33.3618 21.5245 33.2772 21.6944 33.15 21.83L31.34 23.7C31.2089 23.8345 31.0409 23.927 30.8572 23.966C30.6735 24.005 30.4824 23.9887 30.308 23.9192C30.1336 23.8496 29.9837 23.7299 29.8772 23.5752C29.7708 23.4205 29.7126 23.2378 29.71 23.05C29.7082 22.7999 29.8052 22.5591 29.98 22.38L31.78 20.52C31.8662 20.4281 31.9698 20.3542 32.0848 20.3027C32.1998 20.2512 32.324 20.2231 32.45 20.22V20.23ZM18.9 20.33C18.9229 20.3313 18.9449 20.3396 18.9628 20.354C18.9807 20.3683 18.9937 20.3879 19 20.41C19.0088 20.4298 19.0116 20.4517 19.0081 20.473C19.0045 20.4944 18.9947 20.5142 18.98 20.53C18.9646 20.5464 18.9446 20.5576 18.9226 20.5623C18.9007 20.5669 18.8778 20.5647 18.8572 20.556C18.8365 20.5473 18.819 20.5325 18.807 20.5136C18.795 20.4946 18.789 20.4724 18.79 20.45C18.79 20.39 18.84 20.34 18.89 20.34L18.9 20.33ZM24 20.33C24.0229 20.3313 24.0449 20.3396 24.0628 20.354C24.0807 20.3683 24.0937 20.3879 24.1 20.41C24.1088 20.4298 24.1116 20.4517 24.1081 20.473C24.1045 20.4944 24.0947 20.5142 24.08 20.53C24.066 20.5511 24.0452 20.5667 24.021 20.5743C23.9969 20.5818 23.9709 20.5808 23.9474 20.5714C23.9239 20.562 23.9044 20.5448 23.8921 20.5227C23.8798 20.5006 23.8755 20.4749 23.88 20.45C23.88 20.39 23.93 20.34 23.99 20.34L24 20.33ZM29.09 20.33C29.1129 20.3313 29.1349 20.3396 29.1528 20.354C29.1707 20.3683 29.1837 20.3879 29.19 20.41C29.1964 20.4265 29.1988 20.4443 29.1969 20.4619C29.195 20.4795 29.1888 20.4964 29.179 20.5111C29.1692 20.5258 29.156 20.5379 29.1405 20.5465C29.125 20.555 29.1076 20.5596 29.09 20.56C29.0624 20.5601 29.0359 20.5499 29.0155 20.5314C28.9951 20.5129 28.9825 20.4874 28.98 20.46C28.98 20.39 29.03 20.34 29.08 20.34L29.09 20.33ZM18.89 20.9C18.915 20.8961 18.9405 20.9009 18.9624 20.9137C18.9843 20.9264 19.0011 20.9463 19.01 20.97V21C19.0075 21.0223 18.9982 21.0433 18.9834 21.0602C18.9687 21.0771 18.9491 21.089 18.9273 21.0945C18.9056 21.0999 18.8827 21.0986 18.8617 21.0906C18.8407 21.0827 18.8227 21.0685 18.81 21.05L18.79 21C18.79 20.94 18.84 20.9 18.89 20.89V20.9ZM23.99 20.9C24.0134 20.8984 24.0367 20.9044 24.0564 20.917C24.0762 20.9296 24.0915 20.9482 24.1 20.97L24.11 21.01C24.111 21.0355 24.1031 21.0605 24.0877 21.0809C24.0723 21.1012 24.0503 21.1155 24.0255 21.1214C24.0007 21.1273 23.9746 21.1244 23.9517 21.1132C23.9288 21.102 23.9105 21.0832 23.9 21.06L23.89 21.01C23.89 20.95 23.93 20.91 23.99 20.9ZM29.09 20.9C29.1117 20.9005 29.1328 20.9074 29.1506 20.9199C29.1684 20.9323 29.1821 20.9498 29.19 20.97L29.21 21.01C29.2166 21.0392 29.2114 21.0698 29.1954 21.0951C29.1795 21.1205 29.1541 21.1384 29.125 21.145C29.0958 21.1517 29.0652 21.1464 29.0399 21.1305C29.0145 21.1146 28.9966 21.0892 28.99 21.06L28.98 21.01C28.98 20.95 29.03 20.91 29.08 20.9H29.09ZM18.89 21.46C18.915 21.4561 18.9405 21.4609 18.9624 21.4737C18.9843 21.4864 19.0011 21.5063 19.01 21.53C19.0163 21.5442 19.0196 21.5595 19.0196 21.575C19.0196 21.5905 19.0163 21.6059 19.01 21.62C19.005 21.6338 18.997 21.6463 18.9866 21.6567C18.9763 21.6671 18.9637 21.675 18.95 21.68H18.91C18.8953 21.683 18.8801 21.6827 18.8655 21.679C18.851 21.6754 18.8374 21.6685 18.8259 21.6589C18.8144 21.6493 18.8052 21.6372 18.799 21.6236C18.7927 21.6099 18.7897 21.595 18.79 21.58C18.79 21.52 18.84 21.47 18.89 21.46ZM23.99 21.46C24.0134 21.4584 24.0367 21.4644 24.0564 21.477C24.0762 21.4896 24.0915 21.5082 24.1 21.53C24.1063 21.5442 24.1096 21.5595 24.1096 21.575C24.1096 21.5905 24.1063 21.6059 24.1 21.62C24.095 21.6338 24.087 21.6463 24.0766 21.6567C24.0663 21.6671 24.0537 21.675 24.04 21.68H24C23.986 21.6814 23.9719 21.6799 23.9586 21.6755C23.9453 21.6711 23.9331 21.664 23.9227 21.6545C23.9123 21.6451 23.904 21.6336 23.8984 21.6208C23.8928 21.6079 23.8899 21.5941 23.89 21.58C23.89 21.52 23.93 21.47 23.99 21.46ZM29.09 21.46C29.1117 21.4605 29.1328 21.4674 29.1506 21.4799C29.1684 21.4923 29.1821 21.5098 29.19 21.53C29.1963 21.5442 29.1996 21.5595 29.1996 21.575C29.1996 21.5905 29.1963 21.6059 29.19 21.62C29.1861 21.6329 29.1796 21.6448 29.1711 21.6551C29.1625 21.6654 29.1519 21.6739 29.14 21.68H29.09C29.0691 21.6817 29.0482 21.6769 29.0303 21.6661C29.0124 21.6554 28.9983 21.6392 28.99 21.62C28.9813 21.6031 28.9772 21.5842 28.978 21.5653C28.9789 21.5463 28.9846 21.5278 28.9946 21.5117C29.0047 21.4956 29.0188 21.4824 29.0355 21.4733C29.0522 21.4643 29.071 21.4597 29.09 21.46ZM18.89 22.02C18.9069 22.0168 18.9243 22.0176 18.9408 22.0223C18.9574 22.027 18.9726 22.0356 18.9852 22.0472C18.9979 22.0589 19.0076 22.0734 19.0136 22.0895C19.0197 22.1056 19.0218 22.1229 19.02 22.14C19.02 22.1705 19.0078 22.1998 18.9863 22.2213C18.9647 22.2429 18.9355 22.255 18.905 22.255C18.8745 22.255 18.8452 22.2429 18.8236 22.2213C18.8021 22.1998 18.79 22.1705 18.79 22.14C18.79 22.08 18.84 22.03 18.89 22.02ZM23.99 22.02C24.0061 22.0185 24.0224 22.0205 24.0376 22.026C24.0529 22.0315 24.0668 22.0403 24.0782 22.0517C24.0897 22.0632 24.0985 22.0771 24.104 22.0923C24.1095 22.1076 24.1115 22.1239 24.11 22.14C24.11 22.1692 24.0984 22.1972 24.0777 22.2178C24.0571 22.2384 24.0291 22.25 24 22.25C23.9708 22.25 23.9428 22.2384 23.9222 22.2178C23.9015 22.1972 23.89 22.1692 23.89 22.14C23.89 22.08 23.93 22.03 23.99 22.02ZM29.09 22.02C29.1061 22.0185 29.1224 22.0205 29.1376 22.026C29.1529 22.0315 29.1668 22.0403 29.1782 22.0517C29.1897 22.0632 29.1985 22.0771 29.204 22.0923C29.2095 22.1076 29.2115 22.1239 29.21 22.14C29.21 22.1705 29.1978 22.1998 29.1763 22.2213C29.1547 22.2429 29.1255 22.255 29.095 22.255C29.0645 22.255 29.0352 22.2429 29.0136 22.2213C28.9921 22.1998 28.98 22.1705 28.98 22.14C28.98 22.08 29.03 22.03 29.08 22.02H29.09ZM18.89 22.59C18.9052 22.5872 18.9208 22.5876 18.9359 22.5912C18.9509 22.5948 18.9651 22.6015 18.9773 22.611C18.9896 22.6204 18.9997 22.6323 19.0071 22.6459C19.0144 22.6596 19.0188 22.6746 19.02 22.69C19.02 22.7205 19.0078 22.7498 18.9863 22.7713C18.9647 22.7929 18.9355 22.805 18.905 22.805C18.8745 22.805 18.8452 22.7929 18.8236 22.7713C18.8021 22.7498 18.79 22.7205 18.79 22.69C18.79 22.64 18.84 22.59 18.89 22.59ZM23.99 22.59C24.0044 22.5887 24.019 22.5902 24.0329 22.5944C24.0467 22.5987 24.0596 22.6057 24.0708 22.615C24.0819 22.6243 24.0911 22.6357 24.0979 22.6486C24.1046 22.6615 24.1087 22.6756 24.11 22.69C24.11 22.7192 24.0984 22.7472 24.0777 22.7678C24.0571 22.7884 24.0291 22.8 24 22.8C23.9708 22.8 23.9428 22.7884 23.9222 22.7678C23.9015 22.7472 23.89 22.7192 23.89 22.69C23.89 22.64 23.93 22.59 23.99 22.59ZM29.09 22.59C29.1044 22.5887 29.119 22.5902 29.1329 22.5944C29.1467 22.5987 29.1596 22.6057 29.1708 22.615C29.1819 22.6243 29.1911 22.6357 29.1979 22.6486C29.2046 22.6615 29.2087 22.6756 29.21 22.69C29.2118 22.7117 29.2073 22.7334 29.1968 22.7524C29.1864 22.7715 29.1705 22.787 29.1513 22.797C29.132 22.8071 29.1102 22.8112 29.0886 22.8089C29.0671 22.8066 29.0466 22.7979 29.0299 22.784C29.0133 22.7701 29.0011 22.7516 28.9949 22.7308C28.9887 22.71 28.9889 22.6878 28.9953 22.667C29.0017 22.6463 29.0141 22.6279 29.031 22.6142C29.0478 22.6005 29.0683 22.5921 29.09 22.59ZM18.89 23.15C18.906 23.1471 18.9225 23.1477 18.9382 23.1519C18.954 23.1561 18.9686 23.1637 18.981 23.1742C18.9935 23.1847 19.0034 23.1979 19.0101 23.2127C19.0169 23.2276 19.0202 23.2437 19.02 23.26C19.02 23.2905 19.0078 23.3198 18.9863 23.3414C18.9647 23.3629 18.9355 23.375 18.905 23.375C18.8745 23.375 18.8452 23.3629 18.8236 23.3414C18.8021 23.3198 18.79 23.2905 18.79 23.26C18.79 23.2 18.84 23.16 18.89 23.15ZM23.99 23.15C24.0052 23.1486 24.0206 23.1505 24.0351 23.1554C24.0496 23.1603 24.063 23.1681 24.0743 23.1785C24.0856 23.1888 24.0946 23.2015 24.1007 23.2155C24.1069 23.2295 24.11 23.2447 24.11 23.26C24.11 23.2892 24.0984 23.3172 24.0777 23.3378C24.0571 23.3584 24.0291 23.37 24 23.37C23.9708 23.37 23.9428 23.3584 23.9222 23.3378C23.9015 23.3172 23.89 23.2892 23.89 23.26C23.89 23.2 23.93 23.16 23.99 23.15ZM29.09 23.15C29.1052 23.1486 29.1206 23.1505 29.1351 23.1554C29.1497 23.1603 29.163 23.1681 29.1743 23.1785C29.1856 23.1888 29.1946 23.2015 29.2007 23.2155C29.2069 23.2295 29.21 23.2447 29.21 23.26C29.21 23.2905 29.1978 23.3198 29.1763 23.3414C29.1547 23.3629 29.1255 23.375 29.095 23.375C29.0645 23.375 29.0352 23.3629 29.0136 23.3414C28.9921 23.3198 28.98 23.2905 28.98 23.26C28.98 23.2 29.03 23.16 29.08 23.15H29.09ZM18.89 23.71H18.91C18.9265 23.7109 18.9426 23.7155 18.9571 23.7234C18.9716 23.7314 18.9841 23.7425 18.9937 23.7559C19.0033 23.7694 19.0097 23.7848 19.0126 23.8011C19.0154 23.8174 19.0145 23.8341 19.01 23.85C19.006 23.8792 18.9906 23.9056 18.9671 23.9234C18.9437 23.9412 18.9141 23.949 18.885 23.945C18.8558 23.9411 18.8294 23.9257 18.8116 23.9022C18.7938 23.8788 18.786 23.8492 18.79 23.82C18.79 23.77 18.83 23.72 18.89 23.72V23.71ZM23.99 23.71H24C24.0165 23.7109 24.0326 23.7155 24.0471 23.7234C24.0616 23.7314 24.0741 23.7425 24.0837 23.7559C24.0933 23.7694 24.0997 23.7848 24.1026 23.8011C24.1054 23.8174 24.1045 23.8341 24.1 23.85C24.0903 23.8721 24.0738 23.8905 24.0527 23.9022C24.0317 23.914 24.0074 23.9185 23.9835 23.9151C23.9597 23.9117 23.9376 23.9005 23.9207 23.8833C23.9038 23.8662 23.893 23.8439 23.89 23.82C23.89 23.77 23.93 23.72 23.98 23.72L23.99 23.71ZM29.07 23.71H29.09C29.1073 23.7094 29.1246 23.7128 29.1403 23.7201C29.1561 23.7274 29.1699 23.7383 29.1806 23.752C29.1914 23.7656 29.1987 23.7817 29.2021 23.7987C29.2054 23.8157 29.2047 23.8333 29.2 23.85C29.1945 23.8709 29.1831 23.8896 29.1671 23.904C29.151 23.9184 29.1311 23.9278 29.1098 23.931C29.0886 23.9342 29.0668 23.9311 29.0473 23.922C29.0277 23.9129 29.0113 23.8983 29 23.88C28.9896 23.8643 28.9834 23.8461 28.982 23.8273C28.9807 23.8085 28.9842 23.7896 28.9922 23.7726C29.0002 23.7555 29.0125 23.7408 29.0279 23.7298C29.0433 23.7189 29.0612 23.7121 29.08 23.71H29.07ZM17.33 24.23C17.515 24.2306 17.6959 24.2852 17.8504 24.3871C18.0049 24.489 18.1262 24.6339 18.1995 24.8038C18.2728 24.9738 18.2948 25.1614 18.2629 25.3437C18.231 25.526 18.1466 25.6951 18.02 25.83L16.22 27.7C16.0677 27.8606 15.8642 27.963 15.6445 27.9895C15.4248 28.016 15.2027 27.965 15.0166 27.8453C14.8305 27.7256 14.692 27.5447 14.6251 27.3337C14.5582 27.1228 14.567 26.8952 14.65 26.69C14.6957 26.5746 14.7637 26.4693 14.85 26.38L16.66 24.52C16.7462 24.4281 16.8498 24.3542 16.9648 24.3027C17.0798 24.2512 17.204 24.2231 17.33 24.22V24.23ZM22.37 24.23C22.555 24.2306 22.7359 24.2852 22.8904 24.3871C23.0449 24.489 23.1662 24.6339 23.2395 24.8038C23.3128 24.9738 23.3348 25.1614 23.3029 25.3437C23.271 25.526 23.1866 25.6951 23.06 25.83L21.26 27.7C21.1077 27.8606 20.9042 27.963 20.6845 27.9895C20.4648 28.016 20.2427 27.965 20.0566 27.8453C19.8705 27.7256 19.732 27.5447 19.6651 27.3337C19.5982 27.1228 19.607 26.8952 19.69 26.69C19.7355 26.5745 19.8035 26.4691 19.89 26.38L21.7 24.52C21.7862 24.4281 21.8898 24.3542 22.0048 24.3027C22.1198 24.2512 22.244 24.2231 22.37 24.22V24.23ZM27.41 24.23C27.5959 24.2286 27.7781 24.2818 27.9341 24.383C28.0901 24.4842 28.213 24.6289 28.2875 24.7992C28.362 24.9696 28.3849 25.158 28.3534 25.3413C28.3218 25.5245 28.2372 25.6944 28.11 25.83L26.3 27.7C26.1463 27.8541 25.9443 27.9507 25.7279 27.9738C25.5115 27.9968 25.2938 27.9448 25.1111 27.8266C24.9284 27.7083 24.7919 27.5309 24.7243 27.324C24.6568 27.1171 24.6623 26.8933 24.74 26.69C24.7855 26.5745 24.8535 26.4691 24.94 26.38L26.74 24.52C26.8262 24.4281 26.9298 24.3542 27.0448 24.3027C27.1598 24.2512 27.284 24.2231 27.41 24.22V24.23ZM32.45 24.23C32.6359 24.2286 32.8181 24.2818 32.9741 24.383C33.1301 24.4842 33.253 24.6289 33.3275 24.7992C33.402 24.9696 33.4249 25.158 33.3934 25.3413C33.3618 25.5245 33.2772 25.6944 33.15 25.83L31.34 27.7C31.2089 27.8345 31.0409 27.927 30.8572 27.966C30.6735 28.005 30.4824 27.9887 30.308 27.9192C30.1336 27.8496 29.9837 27.7299 29.8772 27.5752C29.7708 27.4205 29.7126 27.2378 29.71 27.05C29.7082 26.7999 29.8052 26.5591 29.98 26.38L31.78 24.52C31.8662 24.4281 31.9698 24.3542 32.0848 24.3027C32.1998 24.2512 32.324 24.2231 32.45 24.22V24.23ZM18.89 24.27H18.91C18.97 24.27 19.01 24.32 19.01 24.39C19.0087 24.4045 19.0046 24.4186 18.9979 24.4314C18.9911 24.4443 18.9819 24.4557 18.9708 24.465C18.9596 24.4743 18.9467 24.4813 18.9329 24.4856C18.919 24.4899 18.9044 24.4914 18.89 24.49C18.8608 24.49 18.8328 24.4784 18.8122 24.4578C18.7915 24.4372 18.78 24.4092 18.78 24.38C18.78 24.3509 18.7915 24.3229 18.8122 24.3022C18.8328 24.2816 18.8608 24.27 18.89 24.27ZM23.98 24.27H24C24.06 24.27 24.11 24.32 24.11 24.39C24.1103 24.4106 24.1049 24.431 24.0943 24.4486C24.0837 24.4663 24.0683 24.4807 24.05 24.49H23.98C23.9508 24.49 23.9228 24.4784 23.9022 24.4578C23.8815 24.4372 23.87 24.4092 23.87 24.38C23.87 24.3509 23.8815 24.3229 23.9022 24.3022C23.9228 24.2816 23.9508 24.27 23.98 24.27ZM29.08 24.27H29.09C29.16 24.27 29.2 24.32 29.2 24.39C29.2003 24.4106 29.1949 24.431 29.1843 24.4486C29.1737 24.4663 29.1583 24.4807 29.14 24.49H29.08C29.0508 24.49 29.0228 24.4784 29.0022 24.4578C28.9815 24.4372 28.97 24.4092 28.97 24.38C28.97 24.3509 28.9815 24.3229 29.0022 24.3022C29.0228 24.2816 29.0508 24.27 29.08 24.27ZM18.9 24.83C18.9217 24.8305 18.9428 24.8374 18.9606 24.8499C18.9784 24.8623 18.9921 24.8798 19 24.9C19.0111 24.921 19.0151 24.9449 19.0115 24.9684C19.0079 24.9918 18.9968 25.0134 18.98 25.03C18.9646 25.0464 18.9446 25.0576 18.9226 25.0623C18.9007 25.0669 18.8778 25.0647 18.8572 25.056C18.8365 25.0473 18.819 25.0325 18.807 25.0136C18.795 24.9946 18.789 24.9724 18.79 24.95C18.79 24.89 18.84 24.84 18.89 24.83H18.9ZM24 24.83C24.0217 24.8305 24.0428 24.8374 24.0606 24.8499C24.0784 24.8623 24.0921 24.8798 24.1 24.9C24.1111 24.921 24.1151 24.9449 24.1115 24.9684C24.1079 24.9918 24.0968 25.0134 24.08 25.03C24.066 25.0511 24.0452 25.0667 24.021 25.0743C23.9969 25.0818 23.9709 25.0808 23.9474 25.0714C23.9239 25.062 23.9044 25.0448 23.8921 25.0227C23.8798 25.0006 23.8755 24.9749 23.88 24.95C23.88 24.89 23.93 24.84 23.99 24.83H24ZM29.09 24.83C29.1117 24.8305 29.1328 24.8374 29.1506 24.8499C29.1684 24.8623 29.1821 24.8798 29.19 24.9C29.1986 24.917 29.2027 24.9358 29.2019 24.9548C29.2011 24.9738 29.1953 24.9922 29.1853 25.0084C29.1752 25.0245 29.1611 25.0377 29.1444 25.0467C29.1277 25.0558 29.109 25.0604 29.09 25.06C29.0608 25.06 29.0328 25.0484 29.0122 25.0278C28.9915 25.0072 28.98 24.9792 28.98 24.95C28.98 24.89 29.03 24.84 29.08 24.83H29.09ZM18.89 25.4C18.915 25.3961 18.9405 25.4009 18.9624 25.4137C18.9843 25.4264 19.0011 25.4463 19.01 25.47C19.02 25.4958 19.02 25.5243 19.01 25.55C19.005 25.5638 18.997 25.5763 18.9866 25.5867C18.9763 25.5971 18.9637 25.605 18.95 25.61L18.91 25.62C18.8953 25.623 18.8801 25.6227 18.8655 25.619C18.851 25.6154 18.8374 25.6085 18.8259 25.5989C18.8144 25.5893 18.8052 25.5772 18.799 25.5636C18.7927 25.5499 18.7897 25.535 18.79 25.52C18.79 25.45 18.84 25.4 18.89 25.4ZM23.99 25.4C24.0134 25.3984 24.0367 25.4044 24.0564 25.417C24.0762 25.4296 24.0915 25.4482 24.1 25.47C24.11 25.4958 24.11 25.5243 24.1 25.55C24.095 25.5638 24.087 25.5763 24.0766 25.5867C24.0663 25.5971 24.0537 25.605 24.04 25.61L24 25.62C23.986 25.6214 23.9719 25.6199 23.9586 25.6155C23.9453 25.6111 23.9331 25.604 23.9227 25.5945C23.9123 25.5851 23.904 25.5736 23.8984 25.5608C23.8928 25.5479 23.8899 25.5341 23.89 25.52C23.89 25.45 23.93 25.4 23.99 25.4ZM29.09 25.4C29.1117 25.4005 29.1328 25.4074 29.1506 25.4199C29.1684 25.4323 29.1821 25.4498 29.19 25.47C29.2 25.4958 29.2 25.5243 29.19 25.55C29.1861 25.5629 29.1796 25.5748 29.1711 25.5851C29.1625 25.5954 29.1519 25.6039 29.14 25.61L29.09 25.62C29.0691 25.6217 29.0482 25.6169 29.0303 25.6061C29.0124 25.5954 28.9983 25.5792 28.99 25.56C28.9838 25.5429 28.9816 25.5247 28.9835 25.5066C28.9855 25.4885 28.9915 25.4711 29.0011 25.4557C29.0107 25.4403 29.0237 25.4273 29.0391 25.4177C29.0545 25.408 29.0719 25.402 29.09 25.4ZM18.89 25.96C18.915 25.9561 18.9405 25.9609 18.9624 25.9737C18.9843 25.9864 19.0011 26.0063 19.01 26.03C19.0163 26.0442 19.0196 26.0595 19.0196 26.075C19.0196 26.0905 19.0163 26.1059 19.01 26.12C19.005 26.1338 18.997 26.1463 18.9866 26.1567C18.9763 26.1671 18.9637 26.175 18.95 26.18H18.91C18.8953 26.183 18.8801 26.1827 18.8655 26.179C18.851 26.1754 18.8374 26.1685 18.8259 26.1589C18.8144 26.1493 18.8052 26.1372 18.799 26.1236C18.7927 26.1099 18.7897 26.095 18.79 26.08C18.79 26.01 18.84 25.96 18.89 25.96ZM23.99 25.96C24.0134 25.9584 24.0367 25.9644 24.0564 25.977C24.0762 25.9896 24.0915 26.0082 24.1 26.03C24.1063 26.0442 24.1096 26.0595 24.1096 26.075C24.1096 26.0905 24.1063 26.1059 24.1 26.12C24.095 26.1338 24.087 26.1463 24.0766 26.1567C24.0663 26.1671 24.0537 26.175 24.04 26.18H24C23.986 26.1814 23.9719 26.1799 23.9586 26.1755C23.9453 26.1711 23.9331 26.164 23.9227 26.1545C23.9123 26.1451 23.904 26.1336 23.8984 26.1208C23.8928 26.1079 23.8899 26.0941 23.89 26.08C23.89 26.01 23.93 25.96 23.99 25.96ZM29.09 25.96C29.1117 25.9605 29.1328 25.9674 29.1506 25.9799C29.1684 25.9923 29.1821 26.0098 29.19 26.03C29.1963 26.0442 29.1996 26.0595 29.1996 26.075C29.1996 26.0905 29.1963 26.1059 29.19 26.12C29.1861 26.1329 29.1796 26.1448 29.1711 26.1551C29.1625 26.1654 29.1519 26.1739 29.14 26.18H29.09C29.0691 26.1817 29.0482 26.1769 29.0303 26.1661C29.0124 26.1554 28.9983 26.1392 28.99 26.12C28.9813 26.1031 28.9772 26.0842 28.978 26.0653C28.9789 26.0463 28.9846 26.0278 28.9946 26.0117C29.0047 25.9956 29.0188 25.9824 29.0355 25.9733C29.0522 25.9643 29.071 25.9597 29.09 25.96ZM18.89 26.52C18.9069 26.5168 18.9243 26.5176 18.9408 26.5223C18.9574 26.527 18.9726 26.5356 18.9852 26.5472C18.9979 26.5589 19.0076 26.5734 19.0136 26.5895C19.0197 26.6056 19.0218 26.6229 19.02 26.64C19.02 26.6705 19.0078 26.6998 18.9863 26.7213C18.9647 26.7429 18.9355 26.755 18.905 26.755C18.8745 26.755 18.8452 26.7429 18.8236 26.7213C18.8021 26.6998 18.79 26.6705 18.79 26.64C18.79 26.58 18.84 26.53 18.89 26.52ZM23.99 26.52C24.0061 26.5185 24.0224 26.5205 24.0376 26.526C24.0529 26.5315 24.0668 26.5403 24.0782 26.5517C24.0897 26.5632 24.0985 26.5771 24.104 26.5923C24.1095 26.6076 24.1115 26.6239 24.11 26.64C24.11 26.6692 24.0984 26.6972 24.0777 26.7178C24.0571 26.7384 24.0291 26.75 24 26.75C23.9708 26.75 23.9428 26.7384 23.9222 26.7178C23.9015 26.6972 23.89 26.6692 23.89 26.64C23.89 26.58 23.93 26.53 23.99 26.52ZM29.09 26.52C29.1061 26.5185 29.1224 26.5205 29.1376 26.526C29.1529 26.5315 29.1668 26.5403 29.1782 26.5517C29.1897 26.5632 29.1985 26.5771 29.204 26.5923C29.2095 26.6076 29.2115 26.6239 29.21 26.64C29.21 26.6705 29.1978 26.6998 29.1763 26.7213C29.1547 26.7429 29.1255 26.755 29.095 26.755C29.0645 26.755 29.0352 26.7429 29.0136 26.7213C28.9921 26.6998 28.98 26.6705 28.98 26.64C28.98 26.58 29.03 26.53 29.08 26.52H29.09ZM18.89 27.08C18.9069 27.0768 18.9243 27.0776 18.9408 27.0823C18.9574 27.087 18.9726 27.0956 18.9852 27.1072C18.9979 27.1189 19.0076 27.1334 19.0136 27.1495C19.0197 27.1656 19.0218 27.1829 19.02 27.2C19.02 27.2305 19.0078 27.2598 18.9863 27.2813C18.9647 27.3029 18.9355 27.315 18.905 27.315C18.8745 27.315 18.8452 27.3029 18.8236 27.2813C18.8021 27.2598 18.79 27.2305 18.79 27.2C18.79 27.14 18.84 27.09 18.89 27.08ZM23.99 27.08C24.0061 27.0785 24.0224 27.0805 24.0376 27.086C24.0529 27.0915 24.0668 27.1003 24.0782 27.1117C24.0897 27.1232 24.0985 27.1371 24.104 27.1523C24.1095 27.1676 24.1115 27.1839 24.11 27.2C24.11 27.2292 24.0984 27.2572 24.0777 27.2778C24.0571 27.2984 24.0291 27.31 24 27.31C23.9708 27.31 23.9428 27.2984 23.9222 27.2778C23.9015 27.2572 23.89 27.2292 23.89 27.2C23.89 27.14 23.93 27.09 23.99 27.08ZM29.09 27.08C29.1061 27.0785 29.1224 27.0805 29.1376 27.086C29.1529 27.0915 29.1668 27.1003 29.1782 27.1117C29.1897 27.1232 29.1985 27.1371 29.204 27.1523C29.2095 27.1676 29.2115 27.1839 29.21 27.2C29.208 27.2208 29.2001 27.2406 29.1873 27.257C29.1745 27.2735 29.1573 27.286 29.1376 27.2931C29.118 27.3001 29.0968 27.3014 29.0764 27.2969C29.0561 27.2923 29.0374 27.2821 29.0227 27.2673C29.0079 27.2526 28.9977 27.2339 28.9931 27.2136C28.9886 27.1932 28.9899 27.172 28.9969 27.1523C29.004 27.1327 29.0165 27.1155 29.0329 27.1027C29.0494 27.0899 29.0692 27.082 29.09 27.08ZM18.89 28.21H18.91C18.97 28.21 19.01 28.26 19.01 28.32C19.0103 28.3406 19.0049 28.361 18.9943 28.3786C18.9837 28.3963 18.9683 28.4107 18.95 28.42C18.9302 28.4289 18.9083 28.4317 18.8869 28.4281C18.8656 28.4246 18.8458 28.4148 18.83 28.4C18.8191 28.3897 18.8104 28.3774 18.8044 28.3636C18.7985 28.3498 18.7955 28.335 18.7955 28.32C18.7955 28.3051 18.7985 28.2902 18.8044 28.2765C18.8104 28.2627 18.8191 28.2503 18.83 28.24C18.8463 28.224 18.8673 28.2135 18.89 28.21ZM23.99 28.21H24C24.06 28.21 24.11 28.26 24.11 28.32C24.1102 28.3363 24.1069 28.3525 24.1001 28.3673C24.0934 28.3822 24.0835 28.3953 24.071 28.4058C24.0586 28.4164 24.044 28.424 24.0282 28.4282C24.0125 28.4324 23.996 28.433 23.98 28.43C23.9588 28.4269 23.939 28.4176 23.923 28.4034C23.9071 28.3892 23.8956 28.3707 23.89 28.35C23.8854 28.3341 23.8845 28.3174 23.8874 28.3011C23.8902 28.2848 23.8966 28.2694 23.9062 28.2559C23.9158 28.2425 23.9284 28.2314 23.9429 28.2234C23.9573 28.2155 23.9734 28.2109 23.99 28.21ZM29.07 28.21H29.09C29.16 28.21 29.2 28.26 29.2 28.32C29.2 28.3354 29.1969 28.3505 29.1907 28.3646C29.1846 28.3786 29.1756 28.3912 29.1643 28.4016C29.153 28.4119 29.1397 28.4198 29.1251 28.4247C29.1106 28.4296 29.0952 28.4314 29.08 28.43C29.057 28.4288 29.035 28.4204 29.0171 28.4061C28.9992 28.3917 28.9862 28.3721 28.98 28.35C28.9754 28.3341 28.9745 28.3174 28.9774 28.3011C28.9802 28.2848 28.9866 28.2694 28.9962 28.2559C29.0058 28.2425 29.0184 28.2314 29.0329 28.2234C29.0473 28.2155 29.0634 28.2109 29.08 28.21H29.07ZM17.33 28.23C17.515 28.2306 17.6959 28.2852 17.8504 28.3871C18.0049 28.489 18.1262 28.6339 18.1995 28.8038C18.2728 28.9738 18.2948 29.1614 18.2629 29.3437C18.231 29.526 18.1466 29.6951 18.02 29.83L16.22 31.7C16.0677 31.8606 15.8642 31.963 15.6445 31.9895C15.4248 32.016 15.2027 31.965 15.0166 31.8453C14.8305 31.7256 14.692 31.5447 14.6251 31.3337C14.5582 31.1228 14.567 30.8952 14.65 30.69C14.6957 30.5746 14.7637 30.4693 14.85 30.38L16.66 28.52C16.7462 28.4281 16.8498 28.3542 16.9648 28.3027C17.0798 28.2512 17.204 28.2231 17.33 28.22V28.23ZM22.37 28.23C22.555 28.2306 22.7359 28.2852 22.8904 28.3871C23.0449 28.489 23.1662 28.6339 23.2395 28.8038C23.3128 28.9738 23.3348 29.1614 23.3029 29.3437C23.271 29.526 23.1866 29.6951 23.06 29.83L21.26 31.7C21.1077 31.8606 20.9042 31.963 20.6845 31.9895C20.4648 32.016 20.2427 31.965 20.0566 31.8453C19.8705 31.7256 19.732 31.5447 19.6651 31.3337C19.5982 31.1228 19.607 30.8952 19.69 30.69C19.7355 30.5745 19.8035 30.4691 19.89 30.38L21.7 28.52C21.7862 28.4281 21.8898 28.3542 22.0048 28.3027C22.1198 28.2512 22.244 28.2231 22.37 28.22V28.23ZM27.41 28.23C27.5959 28.2286 27.7781 28.2818 27.9341 28.383C28.0901 28.4842 28.213 28.6289 28.2875 28.7992C28.362 28.9696 28.3849 29.158 28.3534 29.3413C28.3218 29.5245 28.2372 29.6944 28.11 29.83L26.3 31.7C26.1463 31.8541 25.9443 31.9507 25.7279 31.9738C25.5115 31.9968 25.2938 31.9448 25.1111 31.8266C24.9284 31.7083 24.7919 31.5309 24.7243 31.324C24.6568 31.1171 24.6623 30.8933 24.74 30.69C24.7855 30.5745 24.8535 30.4691 24.94 30.38L26.74 28.52C26.8262 28.4281 26.9298 28.3542 27.0448 28.3027C27.1598 28.2512 27.284 28.2231 27.41 28.22V28.23ZM32.45 28.23C32.6359 28.2286 32.8181 28.2818 32.9741 28.383C33.1301 28.4842 33.253 28.6289 33.3275 28.7992C33.402 28.9696 33.4249 29.158 33.3934 29.3413C33.3618 29.5245 33.2772 29.6944 33.15 29.83L31.34 31.7C31.2089 31.8345 31.0409 31.927 30.8572 31.966C30.6735 32.005 30.4824 31.9887 30.308 31.9192C30.1336 31.8496 29.9837 31.7299 29.8772 31.5752C29.7708 31.4205 29.7126 31.2378 29.71 31.05C29.7082 30.7999 29.8052 30.5591 29.98 30.38L31.78 28.52C31.8662 28.4281 31.9698 28.3542 32.0848 28.3027C32.1998 28.2512 32.324 28.2231 32.45 28.22V28.23ZM18.91 28.77C18.97 28.77 19.02 28.82 19.01 28.89C19.003 28.9124 18.989 28.932 18.9701 28.9459C18.9512 28.9598 18.9284 28.9672 18.905 28.9672C18.8815 28.9672 18.8587 28.9598 18.8398 28.9459C18.8209 28.932 18.8069 28.9124 18.8 28.89C18.8 28.82 18.84 28.77 18.9 28.77H18.91ZM24.01 28.77C24.0339 28.7685 24.0577 28.7748 24.0778 28.7881C24.0978 28.8013 24.1129 28.8208 24.1209 28.8435C24.1288 28.8661 24.1291 28.8908 24.1217 28.9136C24.1143 28.9365 24.0997 28.9563 24.08 28.97C24.066 28.9911 24.0452 29.0067 24.021 29.0143C23.9969 29.0218 23.9709 29.0208 23.9474 29.0114C23.9239 29.002 23.9044 28.9848 23.8921 28.9627C23.8798 28.9406 23.8755 28.9149 23.88 28.89C23.88 28.82 23.94 28.77 24 28.77H24.01ZM29.1 28.77C29.16 28.77 29.2 28.82 29.2 28.89C29.2 28.9192 29.1884 28.9472 29.1677 28.9678C29.1471 28.9884 29.1191 29 29.09 29C29.0608 29 29.0328 28.9884 29.0122 28.9678C28.9915 28.9472 28.98 28.9192 28.98 28.89C28.98 28.82 29.03 28.77 29.1 28.77ZM18.9 29.33C18.919 29.3297 18.9377 29.3343 18.9544 29.3433C18.9711 29.3524 18.9852 29.3656 18.9953 29.3817C19.0053 29.3978 19.0111 29.4163 19.0119 29.4353C19.0127 29.4542 19.0086 29.4731 19 29.49C18.9961 29.5029 18.9896 29.5148 18.9811 29.5251C18.9725 29.5354 18.9619 29.5439 18.95 29.55H18.91C18.8953 29.553 18.8801 29.5527 18.8655 29.549C18.851 29.5454 18.8374 29.5385 18.8259 29.5289C18.8144 29.5193 18.8052 29.5072 18.799 29.4936C18.7927 29.4799 18.7897 29.465 18.79 29.45C18.79 29.39 18.84 29.34 18.89 29.33H18.9ZM24 29.33C24.019 29.3297 24.0377 29.3343 24.0544 29.3433C24.0711 29.3524 24.0852 29.3656 24.0953 29.3817C24.1053 29.3978 24.1111 29.4163 24.1119 29.4353C24.1127 29.4542 24.1086 29.4731 24.1 29.49C24.0921 29.5103 24.0784 29.5277 24.0606 29.5402C24.0428 29.5526 24.0217 29.5595 24 29.56C23.9851 29.5616 23.9701 29.5598 23.9561 29.5549C23.942 29.5499 23.9292 29.5418 23.9187 29.5313C23.9081 29.5208 23.9001 29.508 23.8951 29.4939C23.8901 29.4799 23.8884 29.4649 23.89 29.45C23.89 29.39 23.93 29.34 23.99 29.33H24ZM29.09 29.33C29.109 29.3297 29.1277 29.3343 29.1444 29.3433C29.1611 29.3524 29.1752 29.3656 29.1853 29.3817C29.1953 29.3978 29.2011 29.4163 29.2019 29.4353C29.2027 29.4542 29.1986 29.4731 29.19 29.49C29.1821 29.5103 29.1684 29.5277 29.1506 29.5402C29.1328 29.5526 29.1117 29.5595 29.09 29.56C29.0679 29.561 29.0461 29.5547 29.028 29.5421C29.0099 29.5294 28.9966 29.5111 28.99 29.49C28.9813 29.4731 28.9772 29.4542 28.978 29.4353C28.9789 29.4163 28.9846 29.3978 28.9946 29.3817C29.0047 29.3656 29.0188 29.3524 29.0355 29.3433C29.0522 29.3343 29.071 29.3297 29.09 29.33ZM18.89 29.9H18.91C18.9276 29.9004 18.945 29.9051 18.9605 29.9136C18.976 29.9221 18.9892 29.9343 18.999 29.949C19.0088 29.9637 19.015 29.9806 19.0169 29.9982C19.0188 30.0158 19.0164 30.0336 19.01 30.05C19.005 30.0638 18.997 30.0763 18.9866 30.0867C18.9763 30.0971 18.9637 30.105 18.95 30.11L18.91 30.12C18.8944 30.1233 18.8782 30.1229 18.8629 30.1187C18.8475 30.1145 18.8334 30.1067 18.8216 30.0959C18.8099 30.0852 18.8009 30.0718 18.7954 30.0568C18.7899 30.0419 18.788 30.0258 18.79 30.01C18.79 29.95 18.84 29.9 18.89 29.89V29.9ZM23.99 29.9H24C24.0176 29.9004 24.035 29.9051 24.0505 29.9136C24.066 29.9221 24.0792 29.9343 24.089 29.949C24.0988 29.9637 24.105 29.9806 24.1069 29.9982C24.1088 30.0158 24.1064 30.0336 24.1 30.05C24.0921 30.0703 24.0784 30.0877 24.0606 30.1002C24.0428 30.1126 24.0217 30.1195 24 30.12C23.9851 30.1216 23.9701 30.1198 23.9561 30.1149C23.942 30.1099 23.9292 30.1018 23.9187 30.0913C23.9081 30.0808 23.9001 30.068 23.8951 30.0539C23.8901 30.0399 23.8884 30.0249 23.89 30.01C23.89 29.95 23.93 29.9 23.99 29.89V29.9ZM29.09 29.9C29.1076 29.9004 29.125 29.9051 29.1405 29.9136C29.156 29.9221 29.1692 29.9343 29.179 29.949C29.1888 29.9637 29.195 29.9806 29.1969 29.9982C29.1988 30.0158 29.1964 30.0336 29.19 30.05C29.1821 30.0703 29.1684 30.0877 29.1506 30.1002C29.1328 30.1126 29.1117 30.1195 29.09 30.12C29.0679 30.121 29.0461 30.1147 29.028 30.1021C29.0099 30.0894 28.9966 30.0711 28.99 30.05C28.9838 30.0329 28.9816 30.0147 28.9835 29.9966C28.9855 29.9785 28.9915 29.9611 29.0011 29.9457C29.0107 29.9303 29.0237 29.9173 29.0391 29.9077C29.0545 29.898 29.0719 29.892 29.09 29.89V29.9ZM18.89 30.46C18.915 30.4561 18.9405 30.4609 18.9624 30.4737C18.9843 30.4864 19.0011 30.5063 19.01 30.53C19.0176 30.5507 19.0188 30.5732 19.0134 30.5946C19.0081 30.616 18.9964 30.6353 18.98 30.65C18.9646 30.6664 18.9446 30.6776 18.9226 30.6823C18.9007 30.6869 18.8778 30.6847 18.8572 30.676C18.8365 30.6673 18.819 30.6525 18.807 30.6336C18.795 30.6146 18.789 30.5924 18.79 30.57C18.79 30.51 18.84 30.47 18.89 30.46ZM23.99 30.46C24.0134 30.4584 24.0367 30.4644 24.0564 30.477C24.0762 30.4896 24.0915 30.5082 24.1 30.53C24.1088 30.5498 24.1116 30.5717 24.1081 30.593C24.1045 30.6144 24.0947 30.6342 24.08 30.65C24.066 30.6711 24.0452 30.6867 24.021 30.6943C23.9969 30.7018 23.9709 30.7008 23.9474 30.6914C23.9239 30.682 23.9044 30.6648 23.8921 30.6427C23.8798 30.6206 23.8755 30.5949 23.88 30.57C23.88 30.51 23.93 30.47 23.99 30.46ZM29.09 30.46C29.1117 30.4605 29.1328 30.4674 29.1506 30.4799C29.1684 30.4923 29.1821 30.5098 29.19 30.53C29.1986 30.547 29.2027 30.5658 29.2019 30.5848C29.2011 30.6038 29.1953 30.6222 29.1853 30.6384C29.1752 30.6545 29.1611 30.6677 29.1444 30.6768C29.1277 30.6858 29.109 30.6904 29.09 30.69C29.0746 30.6901 29.0595 30.687 29.0454 30.6808C29.0314 30.6747 29.0188 30.6657 29.0084 30.6544C28.9981 30.6431 28.9902 30.6297 28.9853 30.6152C28.9804 30.6007 28.9786 30.5853 28.98 30.57C28.98 30.51 29.03 30.47 29.08 30.46H29.09ZM18.89 31.02C18.9057 31.0187 18.9216 31.0204 18.9367 31.0252C18.9518 31.03 18.9658 31.0378 18.9778 31.048C18.9899 31.0582 18.9999 31.0707 19.0071 31.0848C19.0143 31.0989 19.0187 31.1143 19.02 31.13C19.02 31.1605 19.0078 31.1898 18.9863 31.2113C18.9647 31.2329 18.9355 31.245 18.905 31.245C18.8745 31.245 18.8452 31.2329 18.8236 31.2113C18.8021 31.1898 18.79 31.1605 18.79 31.13C18.79 31.07 18.84 31.03 18.89 31.02ZM23.99 31.02C24.0201 31.0199 24.0492 31.0312 24.0715 31.0516C24.0937 31.072 24.1074 31.1 24.11 31.13C24.11 31.1592 24.0984 31.1872 24.0777 31.2078C24.0571 31.2284 24.0291 31.24 24 31.24C23.9708 31.24 23.9428 31.2284 23.9222 31.2078C23.9015 31.1872 23.89 31.1592 23.89 31.13C23.89 31.07 23.93 31.03 23.99 31.02ZM29.09 31.02C29.1201 31.0199 29.1492 31.0312 29.1715 31.0516C29.1937 31.072 29.2074 31.1 29.21 31.13C29.21 31.1605 29.1978 31.1898 29.1763 31.2113C29.1547 31.2329 29.1255 31.245 29.095 31.245C29.0645 31.245 29.0352 31.2329 29.0136 31.2113C28.9921 31.1898 28.98 31.1605 28.98 31.13C28.98 31.07 29.03 31.03 29.08 31.02H29.09ZM18.89 31.58C18.906 31.5771 18.9225 31.5777 18.9382 31.5819C18.954 31.5861 18.9686 31.5937 18.981 31.6042C18.9935 31.6147 19.0034 31.6279 19.0101 31.6427C19.0169 31.6576 19.0202 31.6737 19.02 31.69C19.02 31.7205 19.0078 31.7498 18.9863 31.7713C18.9647 31.7929 18.9355 31.805 18.905 31.805C18.8745 31.805 18.8452 31.7929 18.8236 31.7713C18.8021 31.7498 18.79 31.7205 18.79 31.69C18.79 31.63 18.84 31.59 18.89 31.58ZM23.99 31.58C24.0052 31.5786 24.0206 31.5805 24.0351 31.5854C24.0496 31.5903 24.063 31.5981 24.0743 31.6085C24.0856 31.6188 24.0946 31.6315 24.1007 31.6455C24.1069 31.6595 24.11 31.6747 24.11 31.69C24.11 31.7192 24.0984 31.7472 24.0777 31.7678C24.0571 31.7884 24.0291 31.8 24 31.8C23.9708 31.8 23.9428 31.7884 23.9222 31.7678C23.9015 31.7472 23.89 31.7192 23.89 31.69C23.89 31.63 23.93 31.59 23.99 31.58ZM29.09 31.58C29.1052 31.5786 29.1206 31.5805 29.1351 31.5854C29.1497 31.5903 29.163 31.5981 29.1743 31.6085C29.1856 31.6188 29.1946 31.6315 29.2007 31.6455C29.2069 31.6595 29.21 31.6747 29.21 31.69C29.2099 31.7113 29.2036 31.7322 29.1919 31.75C29.1802 31.7678 29.1636 31.7818 29.144 31.7904C29.1245 31.7989 29.1029 31.8016 29.0819 31.7981C29.0609 31.7946 29.0413 31.7851 29.0256 31.7707C29.0099 31.7563 28.9987 31.7376 28.9934 31.717C28.9881 31.6963 28.9889 31.6746 28.9957 31.6544C29.0025 31.6342 29.0151 31.6164 29.0318 31.6032C29.0485 31.59 29.0687 31.582 29.09 31.58ZM18.89 32.14H18.91C18.97 32.14 19.01 32.2 19.01 32.26C19.01 32.2892 18.9984 32.3172 18.9777 32.3378C18.9571 32.3584 18.9291 32.37 18.9 32.37C18.8708 32.37 18.8428 32.3584 18.8222 32.3378C18.8015 32.3172 18.79 32.2892 18.79 32.26C18.79 32.2 18.83 32.15 18.89 32.14ZM23.99 32.14H24C24.06 32.14 24.11 32.2 24.11 32.26C24.11 32.2892 24.0984 32.3172 24.0777 32.3378C24.0571 32.3584 24.0291 32.37 24 32.37C23.9708 32.37 23.9428 32.3584 23.9222 32.3378C23.9015 32.3172 23.89 32.2892 23.89 32.26C23.89 32.2 23.93 32.15 23.98 32.14H23.99ZM29.07 32.14H29.09C29.16 32.14 29.2 32.2 29.2 32.26C29.2 32.2892 29.1884 32.3172 29.1677 32.3378C29.1471 32.3584 29.1191 32.37 29.09 32.37C29.0608 32.37 29.0328 32.3584 29.0122 32.3378C28.9915 32.3172 28.98 32.2892 28.98 32.26C28.98 32.2 29.02 32.15 29.08 32.14H29.07ZM17.33 32.23C17.515 32.2306 17.6959 32.2852 17.8504 32.3871C18.0049 32.489 18.1262 32.6339 18.1995 32.8038C18.2728 32.9738 18.2948 33.1614 18.2629 33.3437C18.231 33.526 18.1466 33.6951 18.02 33.83L16.22 35.7C16.0677 35.8606 15.8642 35.963 15.6445 35.9895C15.4248 36.016 15.2027 35.965 15.0166 35.8453C14.8305 35.7256 14.692 35.5447 14.6251 35.3337C14.5582 35.1228 14.567 34.8952 14.65 34.69C14.6957 34.5746 14.7637 34.4693 14.85 34.38L16.66 32.52C16.7462 32.4281 16.8498 32.3542 16.9648 32.3027C17.0798 32.2512 17.204 32.2231 17.33 32.22V32.23ZM22.37 32.23C22.555 32.2306 22.7359 32.2852 22.8904 32.3871C23.0449 32.489 23.1662 32.6339 23.2395 32.8038C23.3128 32.9738 23.3348 33.1614 23.3029 33.3437C23.271 33.526 23.1866 33.6951 23.06 33.83L21.26 35.7C21.1077 35.8606 20.9042 35.963 20.6845 35.9895C20.4648 36.016 20.2427 35.965 20.0566 35.8453C19.8705 35.7256 19.732 35.5447 19.6651 35.3337C19.5982 35.1228 19.607 34.8952 19.69 34.69C19.7355 34.5745 19.8035 34.4691 19.89 34.38L21.7 32.52C21.7862 32.4281 21.8898 32.3542 22.0048 32.3027C22.1198 32.2512 22.244 32.2231 22.37 32.22V32.23ZM27.41 32.23C27.5959 32.2286 27.7781 32.2818 27.9341 32.383C28.0901 32.4842 28.213 32.6289 28.2875 32.7992C28.362 32.9696 28.3849 33.158 28.3534 33.3413C28.3218 33.5245 28.2372 33.6944 28.11 33.83L26.3 35.7C26.1463 35.8541 25.9443 35.9507 25.7279 35.9738C25.5115 35.9968 25.2938 35.9448 25.1111 35.8266C24.9284 35.7083 24.7919 35.5309 24.7243 35.324C24.6568 35.1171 24.6623 34.8933 24.74 34.69C24.7855 34.5745 24.8535 34.4691 24.94 34.38L26.74 32.52C26.8262 32.4281 26.9298 32.3542 27.0448 32.3027C27.1598 32.2512 27.284 32.2231 27.41 32.22V32.23ZM32.45 32.23C32.6359 32.2286 32.8181 32.2818 32.9741 32.383C33.1301 32.4842 33.253 32.6289 33.3275 32.7992C33.402 32.9696 33.4249 33.158 33.3934 33.3413C33.3618 33.5245 33.2772 33.6944 33.15 33.83L31.34 35.7C31.2089 35.8345 31.0409 35.927 30.8572 35.966C30.6735 36.005 30.4824 35.9887 30.308 35.9192C30.1336 35.8496 29.9837 35.7299 29.8772 35.5752C29.7708 35.4205 29.7126 35.2378 29.71 35.05C29.7082 34.7999 29.8052 34.5591 29.98 34.38L31.78 32.52C31.8662 32.4281 31.9698 32.3542 32.0848 32.3027C32.1998 32.2512 32.324 32.2231 32.45 32.22V32.23ZM18.89 32.71H18.91C18.97 32.71 19.01 32.76 19.01 32.81C19.01 32.88 18.97 32.93 18.91 32.93C18.8808 32.9327 18.8517 32.9236 18.8292 32.9049C18.8067 32.8861 18.7926 32.8592 18.79 32.83C18.7873 32.8009 18.7963 32.7718 18.8151 32.7493C18.8339 32.7268 18.8608 32.7127 18.89 32.71ZM23.98 32.71H24C24.06 32.71 24.11 32.76 24.11 32.81C24.1118 32.8271 24.1097 32.8444 24.1036 32.8606C24.0976 32.8767 24.0879 32.8911 24.0752 32.9028C24.0626 32.9145 24.0474 32.923 24.0308 32.9278C24.0143 32.9325 23.9969 32.9333 23.98 32.93C23.9588 32.9269 23.939 32.9176 23.923 32.9034C23.9071 32.8892 23.8956 32.8707 23.89 32.85C23.8854 32.8341 23.8845 32.8174 23.8874 32.8011C23.8902 32.7848 23.8966 32.7694 23.9062 32.7559C23.9158 32.7425 23.9284 32.7314 23.9429 32.7234C23.9573 32.7155 23.9734 32.7109 23.99 32.71H23.98ZM29.08 32.71H29.09C29.16 32.71 29.2 32.76 29.2 32.81C29.2015 32.8262 29.1995 32.8425 29.194 32.8577C29.1885 32.873 29.1797 32.8868 29.1682 32.8983C29.1568 32.9098 29.1429 32.9186 29.1276 32.9241C29.1124 32.9295 29.0961 32.9316 29.08 32.93C29.057 32.9288 29.035 32.9204 29.0171 32.9061C28.9992 32.8917 28.9862 32.8721 28.98 32.85C28.9754 32.8341 28.9745 32.8174 28.9774 32.8011C28.9802 32.7848 28.9866 32.7694 28.9962 32.7559C29.0058 32.7425 29.0184 32.7314 29.0329 32.7234C29.0473 32.7155 29.0634 32.7109 29.08 32.71ZM18.91 33.27C18.97 33.27 19.02 33.32 19.01 33.38C19.0101 33.4076 18.9999 33.4341 18.9813 33.4545C18.9628 33.4748 18.9374 33.4875 18.91 33.49C18.8879 33.491 18.8661 33.4847 18.848 33.4721C18.8299 33.4594 18.8166 33.4411 18.81 33.42C18.8013 33.4031 18.7972 33.3842 18.798 33.3653C18.7989 33.3463 18.8046 33.3278 18.8146 33.3117C18.8247 33.2956 18.8388 33.2824 18.8555 33.2733C18.8722 33.2643 18.891 33.2597 18.91 33.26V33.27ZM24.01 33.27C24.0315 33.2711 24.0523 33.2785 24.0697 33.2912C24.0871 33.304 24.1004 33.3216 24.1078 33.3419C24.1153 33.3621 24.1166 33.3841 24.1117 33.4051C24.1067 33.4262 24.0957 33.4452 24.08 33.46C24.0697 33.4706 24.0572 33.4788 24.0433 33.484C24.0295 33.4892 24.0147 33.4913 24 33.49C23.986 33.4914 23.9719 33.4899 23.9586 33.4855C23.9453 33.4811 23.9331 33.474 23.9227 33.4645C23.9123 33.4551 23.904 33.4436 23.8984 33.4308C23.8928 33.4179 23.8899 33.404 23.89 33.39C23.89 33.32 23.94 33.27 24 33.27H24.01ZM29.1 33.27C29.1215 33.2711 29.1423 33.2785 29.1597 33.2912C29.1771 33.304 29.1904 33.3216 29.1978 33.3419C29.2053 33.3621 29.2066 33.3841 29.2017 33.4051C29.1967 33.4262 29.1857 33.4452 29.17 33.46C29.1515 33.4789 29.1263 33.4897 29.1 33.49C29.0779 33.491 29.0561 33.4847 29.038 33.4721C29.0199 33.4594 29.0066 33.4411 29 33.42C28.9913 33.4031 28.9872 33.3842 28.988 33.3653C28.9889 33.3463 28.9946 33.3278 29.0046 33.3117C29.0147 33.2956 29.0288 33.2824 29.0455 33.2733C29.0622 33.2643 29.081 33.2597 29.1 33.26V33.27ZM18.9 33.83C18.97 33.83 19.02 33.88 19.02 33.94C19.02 33.9705 19.0078 33.9998 18.9863 34.0213C18.9647 34.0429 18.9355 34.055 18.905 34.055C18.8745 34.055 18.8452 34.0429 18.8236 34.0213C18.8021 33.9998 18.79 33.9705 18.79 33.94C18.79 33.88 18.84 33.84 18.89 33.83H18.9ZM24 33.83C24.06 33.83 24.11 33.88 24.11 33.94C24.11 33.9692 24.0984 33.9972 24.0777 34.0178C24.0571 34.0384 24.0291 34.05 24 34.05C23.9708 34.05 23.9428 34.0384 23.9222 34.0178C23.9015 33.9972 23.89 33.9692 23.89 33.94C23.89 33.88 23.93 33.84 23.99 33.83H24ZM29.09 33.83C29.16 33.83 29.21 33.88 29.2 33.94C29.2009 33.9624 29.195 33.9846 29.1829 34.0035C29.1709 34.0225 29.1534 34.0373 29.1327 34.046C29.1121 34.0547 29.0892 34.0569 29.0673 34.0523C29.0453 34.0476 29.0253 34.0364 29.01 34.02C28.9999 34.0094 28.992 33.9968 28.9869 33.9831C28.9817 33.9693 28.9794 33.9547 28.98 33.94C28.98 33.88 29.03 33.84 29.08 33.83H29.09ZM18.89 34.39C18.915 34.3861 18.9405 34.3909 18.9624 34.4037C18.9843 34.4164 19.0011 34.4363 19.01 34.46C19.0163 34.4742 19.0196 34.4895 19.0196 34.505C19.0196 34.5205 19.0163 34.5359 19.01 34.55C19.005 34.5638 18.997 34.5763 18.9866 34.5867C18.9763 34.5971 18.9637 34.605 18.95 34.61H18.91C18.8953 34.613 18.8801 34.6127 18.8655 34.609C18.851 34.6054 18.8374 34.5985 18.8259 34.5889C18.8144 34.5793 18.8052 34.5672 18.799 34.5536C18.7927 34.5399 18.7897 34.525 18.79 34.51C18.79 34.45 18.84 34.39 18.89 34.39ZM23.99 34.39C24.0134 34.3884 24.0367 34.3944 24.0564 34.407C24.0762 34.4196 24.0915 34.4382 24.1 34.46C24.1063 34.4742 24.1096 34.4895 24.1096 34.505C24.1096 34.5205 24.1063 34.5359 24.1 34.55C24.095 34.5638 24.087 34.5763 24.0766 34.5867C24.0663 34.5971 24.0537 34.605 24.04 34.61H24C23.986 34.6114 23.9719 34.6099 23.9586 34.6055C23.9453 34.6011 23.9331 34.594 23.9227 34.5845C23.9123 34.5751 23.904 34.5636 23.8984 34.5508C23.8928 34.5379 23.8899 34.524 23.89 34.51C23.89 34.45 23.93 34.39 23.99 34.39ZM29.09 34.39C29.1117 34.3905 29.1328 34.3974 29.1506 34.4099C29.1684 34.4223 29.1821 34.4398 29.19 34.46C29.1963 34.4742 29.1996 34.4895 29.1996 34.505C29.1996 34.5205 29.1963 34.5359 29.19 34.55C29.1861 34.5629 29.1796 34.5748 29.1711 34.5851C29.1625 34.5954 29.1519 34.6039 29.14 34.61H29.09C29.0691 34.6117 29.0482 34.6069 29.0303 34.5961C29.0124 34.5854 28.9983 34.5692 28.99 34.55C28.9813 34.5331 28.9772 34.5142 28.978 34.4953C28.9789 34.4763 28.9846 34.4578 28.9946 34.4417C29.0047 34.4256 29.0188 34.4124 29.0355 34.4033C29.0522 34.3943 29.071 34.3897 29.09 34.39ZM18.89 34.95C18.8913 34.9645 18.8898 34.9791 18.8855 34.9929C18.8812 35.0068 18.8743 35.0197 18.865 35.0309C18.8557 35.042 18.8442 35.0512 18.8314 35.0579C18.8185 35.0647 18.8044 35.0688 18.79 35.07C18.79 35.01 18.84 34.96 18.89 34.95ZM23.99 34.95C24.0061 34.9485 24.0224 34.9505 24.0376 34.956C24.0529 34.9615 24.0668 34.9703 24.0782 34.9817C24.0897 34.9932 24.0985 35.0071 24.104 35.0223C24.1095 35.0376 24.1115 35.0539 24.11 35.07C24.11 35.13 24.06 35.18 24 35.18C23.9708 35.18 23.9428 35.1684 23.9222 35.1478C23.9015 35.1272 23.89 35.0992 23.89 35.07C23.89 35.01 23.93 34.96 23.99 34.95ZM29.09 34.95C29.0913 34.9645 29.0898 34.9791 29.0855 34.9929C29.0812 35.0068 29.0743 35.0197 29.065 35.0309C29.0557 35.042 29.0442 35.0512 29.0314 35.0579C29.0185 35.0647 29.0044 35.0688 28.99 35.07C28.99 35.01 29.03 34.96 29.09 34.95ZM18.89 35.52H18.91C18.97 35.52 19.01 35.57 19.01 35.62C19.01 35.6492 18.9984 35.6772 18.9777 35.6978C18.9571 35.7184 18.9291 35.73 18.9 35.73C18.8708 35.73 18.8428 35.7184 18.8222 35.6978C18.8015 35.6772 18.79 35.6492 18.79 35.62C18.79 35.57 18.84 35.52 18.89 35.52ZM23.99 35.52H24C24.06 35.52 24.11 35.57 24.11 35.62C24.11 35.6492 24.0984 35.6772 24.0777 35.6978C24.0571 35.7184 24.0291 35.73 24 35.73C23.9708 35.73 23.9428 35.7184 23.9222 35.6978C23.9015 35.6772 23.89 35.6492 23.89 35.62C23.89 35.57 23.93 35.52 23.99 35.52ZM29.09 35.52C29.16 35.52 29.2 35.57 29.2 35.62C29.2 35.6492 29.1884 35.6772 29.1677 35.6978C29.1471 35.7184 29.1191 35.73 29.09 35.73C29.0608 35.73 29.0328 35.7184 29.0122 35.6978C28.9915 35.6772 28.98 35.6492 28.98 35.62C28.98 35.57 29.03 35.52 29.08 35.52H29.09ZM18.89 36.08H18.91C18.97 36.08 19.01 36.13 19.01 36.19C19.01 36.2192 18.9984 36.2472 18.9777 36.2678C18.9571 36.2884 18.9291 36.3 18.9 36.3C18.8708 36.3 18.8428 36.2884 18.8222 36.2678C18.8015 36.2472 18.79 36.2192 18.79 36.19C18.79 36.13 18.84 36.09 18.89 36.08ZM23.99 36.08H24C24.06 36.08 24.11 36.13 24.11 36.19C24.11 36.2192 24.0984 36.2472 24.0777 36.2678C24.0571 36.2884 24.0291 36.3 24 36.3C23.9708 36.3 23.9428 36.2884 23.9222 36.2678C23.9015 36.2472 23.89 36.2192 23.89 36.19C23.89 36.13 23.93 36.09 23.99 36.08ZM29.09 36.08C29.16 36.08 29.2 36.13 29.2 36.19C29.2 36.2192 29.1884 36.2472 29.1677 36.2678C29.1471 36.2884 29.1191 36.3 29.09 36.3C29.0608 36.3 29.0328 36.2884 29.0122 36.2678C28.9915 36.2472 28.98 36.2192 28.98 36.19C28.98 36.13 29.03 36.09 29.08 36.08H29.09ZM17.33 36.23C17.515 36.2306 17.6959 36.2852 17.8504 36.3871C18.0049 36.4891 18.1262 36.6339 18.1995 36.8038C18.2728 36.9738 18.2948 37.1614 18.2629 37.3437C18.231 37.526 18.1466 37.6951 18.02 37.83L16.22 39.7C16.0677 39.8606 15.8642 39.963 15.6445 39.9895C15.4248 40.016 15.2027 39.965 15.0166 39.8453C14.8305 39.7256 14.692 39.5447 14.6251 39.3337C14.5582 39.1228 14.567 38.8952 14.65 38.69C14.6957 38.5746 14.7637 38.4693 14.85 38.38L16.66 36.52C16.7462 36.4281 16.8498 36.3542 16.9648 36.3027C17.0798 36.2512 17.204 36.2231 17.33 36.22V36.23ZM22.37 36.23C22.4955 36.2279 22.6203 36.2506 22.737 36.2969C22.8537 36.3433 22.9601 36.4123 23.05 36.5C23.39 37.81 22.45 38.62 21.25 39.7C21.0963 39.8541 20.8943 39.9507 20.6779 39.9738C20.4615 39.9968 20.2438 39.9448 20.0611 39.8266C19.8784 39.7083 19.7419 39.5309 19.6743 39.324C19.6068 39.1171 19.6123 38.8933 19.69 38.69C19.7355 38.5745 19.8035 38.4691 19.89 38.38L21.7 36.52C21.7862 36.4281 21.8898 36.3542 22.0048 36.3027C22.1198 36.2512 22.244 36.2231 22.37 36.22V36.23ZM27.41 36.23C27.5959 36.2286 27.7781 36.2818 27.9341 36.383C28.0901 36.4842 28.213 36.6289 28.2875 36.7992C28.362 36.9696 28.3849 37.158 28.3534 37.3413C28.3218 37.5245 28.2372 37.6944 28.11 37.83L26.3 39.7C26.1463 39.8541 25.9443 39.9507 25.7279 39.9738C25.5115 39.9968 25.2938 39.9448 25.1111 39.8266C24.9284 39.7083 24.7919 39.5309 24.7243 39.324C24.6568 39.1171 24.6623 38.8933 24.74 38.69C24.7855 38.5745 24.8535 38.4691 24.94 38.38L26.74 36.52C26.8262 36.4281 26.9298 36.3542 27.0448 36.3027C27.1598 36.2512 27.284 36.2231 27.41 36.22V36.23ZM32.45 36.23C32.6359 36.2286 32.8181 36.2818 32.9741 36.383C33.1301 36.4842 33.253 36.6289 33.3275 36.7992C33.402 36.9696 33.4249 37.158 33.3934 37.3413C33.3618 37.5245 33.2772 37.6944 33.15 37.83L31.34 39.7C31.2089 39.8345 31.0409 39.927 30.8572 39.966C30.6735 40.005 30.4824 39.9887 30.308 39.9192C30.1336 39.8496 29.9837 39.7299 29.8772 39.5752C29.7708 39.4205 29.7126 39.2378 29.71 39.05C29.7082 38.7999 29.8052 38.5591 29.98 38.38L31.78 36.52C31.8662 36.4281 31.9698 36.3542 32.0848 36.3027C32.1998 36.2512 32.324 36.2231 32.45 36.22V36.23ZM18.9 36.64C18.9305 36.64 18.9597 36.6522 18.9813 36.6737C19.0028 36.6953 19.015 36.7245 19.015 36.755C19.015 36.7855 19.0028 36.8148 18.9813 36.8364C18.9597 36.8579 18.9305 36.87 18.9 36.87C18.8708 36.87 18.8428 36.8584 18.8222 36.8378C18.8015 36.8172 18.79 36.7892 18.79 36.76C18.7886 36.7456 18.7901 36.731 18.7944 36.7171C18.7987 36.7032 18.8057 36.6904 18.815 36.6792C18.8243 36.668 18.8357 36.6588 18.8485 36.6521C18.8614 36.6454 18.8755 36.6413 18.89 36.64H18.9ZM29.09 36.64C29.1205 36.64 29.1497 36.6522 29.1713 36.6737C29.1928 36.6953 29.205 36.7245 29.205 36.755C29.205 36.7855 29.1928 36.8148 29.1713 36.8364C29.1497 36.8579 29.1205 36.87 29.09 36.87C29.0608 36.87 29.0328 36.8584 29.0122 36.8378C28.9915 36.8172 28.98 36.7892 28.98 36.76C28.9786 36.7456 28.9801 36.731 28.9844 36.7171C28.9887 36.7032 28.9957 36.6904 29.005 36.6792C29.0143 36.668 29.0257 36.6588 29.0385 36.6521C29.0514 36.6454 29.0655 36.6413 29.08 36.64H29.09ZM18.89 37.2H18.91C18.9304 37.1985 18.9509 37.2028 18.9691 37.2123C18.9872 37.2219 19.0024 37.2363 19.0128 37.254C19.0232 37.2717 19.0284 37.2919 19.0279 37.3124C19.0274 37.3329 19.0212 37.3529 19.01 37.37C19.0025 37.3864 18.9911 37.4007 18.9768 37.4117C18.9625 37.4227 18.9457 37.43 18.9279 37.4329C18.9102 37.4359 18.8919 37.4344 18.8748 37.4287C18.8578 37.423 18.8423 37.4131 18.83 37.4C18.8174 37.3897 18.8073 37.3767 18.8003 37.362C18.7934 37.3473 18.7898 37.3313 18.7898 37.315C18.7898 37.2988 18.7934 37.2827 18.8003 37.268C18.8073 37.2533 18.8174 37.2404 18.83 37.23C18.8463 37.214 18.8673 37.2035 18.89 37.2ZM23.99 37.2H24C24.0281 37.2026 24.0543 37.216 24.0729 37.2373C24.0915 37.2586 24.1011 37.2863 24.0998 37.3146C24.0986 37.3429 24.0864 37.3696 24.0659 37.3891C24.0455 37.4087 24.0183 37.4196 23.99 37.4196C23.9616 37.4196 23.9344 37.4087 23.914 37.3891C23.8935 37.3696 23.8814 37.3429 23.8801 37.3146C23.8788 37.2863 23.8884 37.2586 23.907 37.2373C23.9257 37.216 23.9518 37.2026 23.98 37.2H23.99ZM29.07 37.2H29.09C29.1181 37.2026 29.1443 37.216 29.1629 37.2373C29.1815 37.2586 29.1911 37.2863 29.1898 37.3146C29.1886 37.3429 29.1764 37.3696 29.1559 37.3891C29.1355 37.4087 29.1083 37.4196 29.08 37.4196C29.0516 37.4196 29.0244 37.4087 29.004 37.3891C28.9835 37.3696 28.9714 37.3429 28.9701 37.3146C28.9688 37.2863 28.9784 37.2586 28.997 37.2373C29.0157 37.216 29.0418 37.2026 29.07 37.2ZM18.9 37.76C18.9217 37.7605 18.9428 37.7674 18.9606 37.7799C18.9784 37.7923 18.9921 37.8098 19 37.83C19.02 37.85 19.02 37.86 19.02 37.88C19.02 37.94 18.97 37.99 18.91 37.99C18.8882 37.9895 18.8672 37.9826 18.8494 37.9702C18.8316 37.9577 18.8178 37.9403 18.81 37.92L18.79 37.88C18.79 37.82 18.84 37.77 18.89 37.76H18.9ZM24 37.76C24.0217 37.7605 24.0428 37.7674 24.0606 37.7799C24.0784 37.7923 24.0921 37.8098 24.1 37.83L24.11 37.88C24.1096 37.8977 24.1049 37.9151 24.0964 37.9306C24.0879 37.9461 24.0757 37.9593 24.061 37.9691C24.0463 37.9789 24.0294 37.985 24.0118 37.9869C23.9942 37.9888 23.9764 37.9865 23.96 37.98C23.9397 37.9721 23.9223 37.9584 23.9098 37.9406C23.8974 37.9228 23.8904 37.9018 23.89 37.88C23.89 37.82 23.93 37.77 23.99 37.76H24ZM29.09 37.76C29.1117 37.7605 29.1328 37.7674 29.1506 37.7799C29.1684 37.7923 29.1821 37.8098 29.19 37.83L29.21 37.88C29.21 37.94 29.16 37.99 29.09 37.99C29.0682 37.9895 29.0472 37.9826 29.0294 37.9702C29.0116 37.9577 28.9978 37.9403 28.99 37.92L28.98 37.88C28.98 37.82 29.03 37.77 29.08 37.76H29.09ZM18.89 38.33C18.915 38.3261 18.9405 38.3309 18.9624 38.3437C18.9843 38.3564 19.0011 38.3763 19.01 38.4C19.02 38.4258 19.02 38.4543 19.01 38.48C19.005 38.4938 18.997 38.5063 18.9866 38.5167C18.9763 38.5271 18.9637 38.535 18.95 38.54L18.91 38.55C18.8953 38.553 18.8801 38.5527 18.8655 38.549C18.851 38.5454 18.8374 38.5385 18.8259 38.5289C18.8144 38.5193 18.8052 38.5072 18.799 38.4936C18.7927 38.4799 18.7897 38.465 18.79 38.45C18.79 38.38 18.84 38.33 18.89 38.33ZM23.99 38.33C24.0134 38.3285 24.0367 38.3344 24.0564 38.347C24.0762 38.3596 24.0915 38.3782 24.1 38.4C24.11 38.4258 24.11 38.4543 24.1 38.48C24.095 38.4938 24.087 38.5063 24.0766 38.5167C24.0663 38.5271 24.0537 38.535 24.04 38.54L24 38.55C23.986 38.5514 23.9719 38.5499 23.9586 38.5455C23.9453 38.5411 23.9331 38.534 23.9227 38.5245C23.9123 38.5151 23.904 38.5036 23.8984 38.4908C23.8928 38.4779 23.8899 38.4641 23.89 38.45C23.89 38.38 23.93 38.33 23.99 38.33ZM29.09 38.33C29.1117 38.3305 29.1328 38.3374 29.1506 38.3499C29.1684 38.3623 29.1821 38.3798 29.19 38.4C29.2 38.4258 29.2 38.4543 29.19 38.48C29.1861 38.4929 29.1796 38.5048 29.1711 38.5151C29.1625 38.5254 29.1519 38.5339 29.14 38.54L29.09 38.55C29.0679 38.551 29.0461 38.5447 29.028 38.5321C29.0099 38.5194 28.9966 38.5011 28.99 38.48C28.9813 38.4631 28.9772 38.4442 28.978 38.4253C28.9789 38.4063 28.9846 38.3878 28.9946 38.3717C29.0047 38.3556 29.0188 38.3424 29.0355 38.3333C29.0522 38.3243 29.071 38.3197 29.09 38.32V38.33ZM18.89 38.89C18.915 38.8861 18.9405 38.8909 18.9624 38.9037C18.9843 38.9164 19.0011 38.9363 19.01 38.96C19.0163 38.9742 19.0196 38.9895 19.0196 39.005C19.0196 39.0205 19.0163 39.0359 19.01 39.05C19.005 39.0638 18.997 39.0763 18.9866 39.0867C18.9763 39.0971 18.9637 39.105 18.95 39.11H18.91C18.8953 39.113 18.8801 39.1127 18.8655 39.109C18.851 39.1054 18.8374 39.0985 18.8259 39.0889C18.8144 39.0793 18.8052 39.0672 18.799 39.0536C18.7927 39.0399 18.7897 39.025 18.79 39.01C18.79 38.94 18.84 38.89 18.89 38.89ZM23.99 38.89C24.0134 38.8884 24.0367 38.8944 24.0564 38.907C24.0762 38.9196 24.0915 38.9382 24.1 38.96C24.1063 38.9742 24.1096 38.9895 24.1096 39.005C24.1096 39.0205 24.1063 39.0359 24.1 39.05C24.095 39.0638 24.087 39.0763 24.0766 39.0867C24.0663 39.0971 24.0537 39.105 24.04 39.11H24C23.986 39.1114 23.9719 39.1099 23.9586 39.1055C23.9453 39.1011 23.9331 39.094 23.9227 39.0845C23.9123 39.0751 23.904 39.0636 23.8984 39.0508C23.8928 39.0379 23.8899 39.0241 23.89 39.01C23.89 38.94 23.93 38.89 23.99 38.89ZM29.09 38.89C29.1117 38.8905 29.1328 38.8974 29.1506 38.9099C29.1684 38.9223 29.1821 38.9398 29.19 38.96C29.1963 38.9742 29.1996 38.9895 29.1996 39.005C29.1996 39.0205 29.1963 39.0359 29.19 39.05C29.1861 39.0629 29.1796 39.0748 29.1711 39.0851C29.1625 39.0954 29.1519 39.1039 29.14 39.11H29.09C29.0691 39.1118 29.0482 39.1069 29.0303 39.0961C29.0124 39.0854 28.9983 39.0692 28.99 39.05C28.9813 39.0331 28.9772 39.0142 28.978 38.9953C28.9789 38.9763 28.9846 38.9578 28.9946 38.9417C29.0047 38.9256 29.0188 38.9124 29.0355 38.9033C29.0522 38.8943 29.071 38.8897 29.09 38.89ZM18.89 39.45C18.9065 39.4486 18.9232 39.4507 18.939 39.4561C18.9547 39.4615 18.9691 39.4702 18.9813 39.4814C18.9936 39.4927 19.0033 39.5064 19.01 39.5217C19.0166 39.5369 19.02 39.5534 19.02 39.57C19.02 39.6005 19.0078 39.6298 18.9863 39.6514C18.9647 39.6729 18.9355 39.685 18.905 39.685C18.8745 39.685 18.8452 39.6729 18.8236 39.6514C18.8021 39.6298 18.79 39.6005 18.79 39.57C18.79 39.51 18.84 39.46 18.89 39.45ZM23.99 39.45C24.0218 39.45 24.0523 39.4627 24.0748 39.4852C24.0973 39.5077 24.11 39.5382 24.11 39.57C24.11 39.5992 24.0984 39.6272 24.0777 39.6478C24.0571 39.6684 24.0291 39.68 24 39.68C23.9708 39.68 23.9428 39.6684 23.9222 39.6478C23.9015 39.6272 23.89 39.5992 23.89 39.57C23.89 39.51 23.93 39.46 23.99 39.45ZM29.09 39.45C29.1218 39.45 29.1523 39.4627 29.1748 39.4852C29.1973 39.5077 29.21 39.5382 29.21 39.57C29.21 39.6005 29.1978 39.6298 29.1763 39.6514C29.1547 39.6729 29.1255 39.685 29.095 39.685C29.0645 39.685 29.0352 39.6729 29.0136 39.6514C28.9921 39.6298 28.98 39.6005 28.98 39.57C28.98 39.51 29.03 39.46 29.08 39.45H29.09ZM18.89 40.01C18.9069 40.0068 18.9243 40.0076 18.9408 40.0123C18.9574 40.017 18.9726 40.0256 18.9852 40.0373C18.9979 40.0489 19.0076 40.0634 19.0136 40.0795C19.0197 40.0956 19.0218 40.1129 19.02 40.13C19.02 40.1605 19.0078 40.1898 18.9863 40.2114C18.9647 40.2329 18.9355 40.245 18.905 40.245C18.8745 40.245 18.8452 40.2329 18.8236 40.2114C18.8021 40.1898 18.79 40.1605 18.79 40.13C18.79 40.07 18.84 40.02 18.89 40.01ZM23.99 40.01C24.0061 40.0085 24.0224 40.0105 24.0376 40.016C24.0529 40.0215 24.0668 40.0303 24.0782 40.0418C24.0897 40.0532 24.0985 40.0671 24.104 40.0823C24.1095 40.0976 24.1115 40.1139 24.11 40.13C24.11 40.1592 24.0984 40.1872 24.0777 40.2078C24.0571 40.2284 24.0291 40.24 24 40.24C23.9708 40.24 23.9428 40.2284 23.9222 40.2078C23.9015 40.1872 23.89 40.1592 23.89 40.13C23.89 40.07 23.93 40.02 23.99 40.01ZM29.09 40.01C29.1061 40.0085 29.1224 40.0105 29.1376 40.016C29.1529 40.0215 29.1668 40.0303 29.1782 40.0418C29.1897 40.0532 29.1985 40.0671 29.204 40.0823C29.2095 40.0976 29.2115 40.1139 29.21 40.13C29.208 40.1508 29.2001 40.1706 29.1873 40.187C29.1745 40.2035 29.1573 40.216 29.1376 40.2231C29.118 40.2301 29.0968 40.2314 29.0764 40.2269C29.0561 40.2223 29.0374 40.2121 29.0227 40.1973C29.0079 40.1826 28.9977 40.1639 28.9931 40.1436C28.9886 40.1232 28.9899 40.102 28.9969 40.0823C29.004 40.0627 29.0165 40.0455 29.0329 40.0327C29.0494 40.0199 29.0692 40.012 29.09 40.01ZM18.89 41.14H18.91C18.97 41.14 19.01 41.19 19.01 41.25C19.01 41.31 18.97 41.37 18.91 41.37C18.887 41.3688 18.865 41.3604 18.8471 41.3461C18.8292 41.3317 18.8162 41.3121 18.81 41.29L18.79 41.25C18.79 41.2 18.83 41.15 18.89 41.14ZM23.99 41.14H24C24.06 41.14 24.11 41.19 24.11 41.25C24.11 41.31 24.06 41.37 24 41.37C23.977 41.3688 23.955 41.3604 23.9371 41.3461C23.9192 41.3317 23.9062 41.3121 23.9 41.29L23.89 41.25C23.89 41.2 23.93 41.15 23.98 41.14H23.99ZM29.07 41.14H29.09C29.16 41.14 29.2 41.19 29.2 41.25C29.2 41.31 29.16 41.37 29.1 41.37C29.0838 41.3716 29.0675 41.3695 29.0523 41.3641C29.037 41.3586 29.0231 41.3498 29.0117 41.3383C29.0002 41.3269 28.9914 41.313 28.9859 41.2977C28.9804 41.2825 28.9784 41.2662 28.98 41.25C28.98 41.2 29.02 41.15 29.08 41.14H29.07ZM18.89 41.7H18.91C18.97 41.7 19.01 41.76 19.01 41.82C19.01 41.88 18.97 41.92 18.91 41.92C18.8953 41.923 18.8801 41.9227 18.8655 41.919C18.851 41.9154 18.8374 41.9085 18.8259 41.8989C18.8144 41.8893 18.8052 41.8772 18.799 41.8636C18.7927 41.8499 18.7897 41.835 18.79 41.82C18.79 41.76 18.83 41.71 18.89 41.7ZM23.98 41.7H24C24.06 41.7 24.11 41.76 24.11 41.82C24.11 41.88 24.06 41.92 24 41.92C23.986 41.9214 23.9719 41.9199 23.9586 41.9155C23.9453 41.9111 23.9331 41.904 23.9227 41.8945C23.9123 41.8851 23.904 41.8736 23.8984 41.8608C23.8928 41.8479 23.8899 41.8341 23.89 41.82C23.89 41.76 23.93 41.71 23.98 41.7ZM29.08 41.7H29.09C29.16 41.7 29.2 41.76 29.2 41.82C29.2 41.88 29.16 41.92 29.1 41.92C29.0836 41.9229 29.0669 41.9216 29.0512 41.9164C29.0355 41.9111 29.0213 41.9021 29.01 41.89C28.9911 41.8716 28.9803 41.8464 28.98 41.82C28.98 41.76 29.02 41.71 29.08 41.7ZM18.91 42.26C18.9349 42.2556 18.9605 42.2599 18.9826 42.2722C19.0047 42.2845 19.0219 42.304 19.0313 42.3275C19.0407 42.351 19.0417 42.377 19.0342 42.4011C19.0267 42.4253 19.011 42.4461 18.99 42.46C18.9793 42.4701 18.9667 42.478 18.953 42.4831C18.9392 42.4883 18.9246 42.4906 18.91 42.49C18.8879 42.491 18.8661 42.4847 18.848 42.4721C18.8299 42.4594 18.8166 42.4411 18.81 42.42C18.8013 42.4031 18.7972 42.3842 18.798 42.3653C18.7989 42.3463 18.8046 42.3278 18.8146 42.3117C18.8247 42.2956 18.8388 42.2824 18.8555 42.2733C18.8722 42.2643 18.891 42.2597 18.91 42.26ZM24.01 42.26C24.028 42.262 24.0454 42.268 24.0608 42.2777C24.0762 42.2873 24.0892 42.3003 24.0988 42.3157C24.1085 42.3311 24.1145 42.3485 24.1164 42.3666C24.1183 42.3847 24.1161 42.4029 24.11 42.42C24.1021 42.4403 24.0884 42.4577 24.0706 42.4702C24.0528 42.4826 24.0317 42.4895 24.01 42.49C23.9944 42.4933 23.9782 42.4929 23.9629 42.4887C23.9475 42.4845 23.9334 42.4767 23.9216 42.4659C23.9099 42.4552 23.9009 42.4418 23.8954 42.4268C23.8899 42.4119 23.888 42.3958 23.89 42.38C23.89 42.31 23.94 42.26 24 42.26H24.01ZM29.1 42.26C29.118 42.262 29.1354 42.268 29.1508 42.2777C29.1662 42.2873 29.1792 42.3003 29.1888 42.3157C29.1985 42.3311 29.2045 42.3485 29.2064 42.3666C29.2083 42.3847 29.2061 42.4029 29.2 42.42C29.1921 42.4403 29.1784 42.4577 29.1606 42.4702C29.1428 42.4826 29.1217 42.4895 29.1 42.49C29.0779 42.491 29.0561 42.4847 29.038 42.4721C29.0199 42.4594 29.0066 42.4411 29 42.42C28.9913 42.4031 28.9872 42.3842 28.988 42.3653C28.9889 42.3463 28.9946 42.3278 29.0046 42.3117C29.0147 42.2956 29.0288 42.2824 29.0455 42.2733C29.0622 42.2643 29.081 42.2597 29.1 42.26ZM18.9 42.82C18.9013 42.8345 18.8998 42.8491 18.8955 42.8629C18.8912 42.8768 18.8843 42.8897 18.875 42.9009C18.8657 42.912 18.8542 42.9212 18.8414 42.9279C18.8285 42.9347 18.8144 42.9388 18.8 42.94C18.8 42.88 18.84 42.83 18.9 42.82ZM24 42.82C24.0217 42.8205 24.0428 42.8274 24.0606 42.8399C24.0784 42.8523 24.0921 42.8698 24.1 42.89L24.11 42.94C24.11 43 24.06 43.05 24 43.05C23.9708 43.05 23.9428 43.0384 23.9222 43.0178C23.9015 42.9972 23.89 42.9692 23.89 42.94C23.89 42.88 23.93 42.83 23.99 42.82H24ZM29.09 42.82C29.0913 42.8345 29.0898 42.8491 29.0855 42.8629C29.0812 42.8768 29.0743 42.8897 29.065 42.9009C29.0557 42.912 29.0442 42.9212 29.0314 42.9279C29.0185 42.9347 29.0044 42.9388 28.99 42.94C28.98 42.88 29.03 42.83 29.09 42.82Z" fill="#333333"/>
</svg>
