<svg width="48" height="48" viewBox="0 0 48 48" fill="none" xmlns="http://www.w3.org/2000/svg">
<path fill-rule="evenodd" clip-rule="evenodd" d="M-0.0820312 -0.613037V48H48.002V-0.613037H-0.0820312ZM28.824 4.08196C30.464 4.08696 32.111 4.09996 33.769 4.12496C34.639 4.12496 35.338 4.82396 35.338 5.69296V42.555C35.338 43.425 34.638 44.125 33.769 44.125H14.064C13.195 44.125 12.498 43.425 12.498 42.555V5.69296C12.498 4.82296 13.195 4.12496 14.064 4.12496C19.04 4.12496 23.904 4.06796 28.824 4.08196ZM20.11 5.08596C20.0806 5.08701 20.0529 5.09954 20.0327 5.12085C20.0125 5.14215 20.0015 5.17054 20.002 5.19989C20.0025 5.22924 20.0145 5.25722 20.0355 5.27779C20.0564 5.29836 20.0846 5.30989 20.114 5.30989C20.1433 5.30989 20.1715 5.29836 20.1925 5.27779C20.2134 5.25722 20.2254 5.22924 20.226 5.19989C20.2265 5.17054 20.2155 5.14215 20.1953 5.12085C20.1751 5.09954 20.1473 5.08701 20.118 5.08596H20.11ZM27.36 5.08596C27.3306 5.08701 27.3029 5.09954 27.2827 5.12085C27.2625 5.14215 27.2515 5.17054 27.252 5.19989C27.2525 5.22924 27.2645 5.25722 27.2855 5.27779C27.3064 5.29836 27.3346 5.30989 27.364 5.30989C27.3933 5.30989 27.4215 5.29836 27.4425 5.27779C27.4634 5.25722 27.4754 5.22924 27.476 5.19989C27.4765 5.17054 27.4655 5.14215 27.4453 5.12085C27.4251 5.09954 27.3973 5.08701 27.368 5.08596H27.36ZM16.538 5.48996C16.1234 5.50462 15.7307 5.67961 15.4426 5.97807C15.1545 6.27652 14.9935 6.67515 14.9935 7.08996C14.9935 7.50478 15.1545 7.9034 15.4426 8.20186C15.7307 8.50031 16.1234 8.6753 16.538 8.68996C17.422 8.68996 18.136 7.97296 18.136 7.08996C18.136 6.20596 17.422 5.48996 16.538 5.48996ZM31.302 5.48996C30.418 5.48996 29.7 6.20596 29.7 7.08996C29.7 7.97296 30.418 8.68996 31.302 8.68996C32.185 8.68996 32.899 7.97296 32.899 7.08996C32.899 6.20596 32.185 5.48996 31.302 5.48996ZM20.11 5.64796C20.0952 5.64888 20.0807 5.6527 20.0674 5.6592C20.0542 5.66571 20.0423 5.67477 20.0325 5.68586C20.0227 5.69696 20.0152 5.70988 20.0104 5.72388C20.0056 5.73788 20.0035 5.75269 20.0045 5.76746C20.0054 5.78224 20.0092 5.79668 20.0157 5.80998C20.0222 5.82328 20.0313 5.83517 20.0424 5.84496C20.0535 5.85476 20.0664 5.86227 20.0804 5.86708C20.0944 5.87188 20.1092 5.87388 20.124 5.87296C20.1538 5.87111 20.1817 5.85747 20.2015 5.83506C20.2213 5.81265 20.2313 5.7833 20.2295 5.75346C20.2276 5.72363 20.214 5.69575 20.1916 5.67596C20.1692 5.65618 20.1398 5.64611 20.11 5.64796ZM27.36 5.64796C27.3452 5.64888 27.3307 5.6527 27.3174 5.6592C27.3042 5.66571 27.2923 5.67477 27.2825 5.68586C27.2727 5.69696 27.2652 5.70988 27.2604 5.72388C27.2556 5.73788 27.2535 5.75269 27.2545 5.76746C27.2554 5.78224 27.2592 5.79668 27.2657 5.80998C27.2722 5.82328 27.2813 5.83517 27.2924 5.84496C27.3035 5.85476 27.3164 5.86227 27.3304 5.86708C27.3444 5.87188 27.3592 5.87388 27.374 5.87296C27.4038 5.87111 27.4317 5.85747 27.4515 5.83506C27.4713 5.81265 27.4813 5.7833 27.4795 5.75346C27.4776 5.72363 27.464 5.69575 27.4416 5.67596C27.4192 5.65618 27.3898 5.64611 27.36 5.64796ZM20.1 6.21096C20.0736 6.21522 20.0495 6.22872 20.0321 6.24904C20.0147 6.26937 20.0051 6.29521 20.005 6.32196C20.005 6.35167 20.0168 6.38015 20.0378 6.40116C20.0588 6.42216 20.0873 6.43396 20.117 6.43396C20.1467 6.43396 20.1752 6.42216 20.1962 6.40116C20.2172 6.38015 20.229 6.35167 20.229 6.32196C20.229 6.26096 20.179 6.21196 20.119 6.21096C20.113 6.21036 20.107 6.21036 20.101 6.21096H20.1ZM27.35 6.21096C27.3288 6.21421 27.309 6.22346 27.2929 6.23761C27.2769 6.25177 27.2652 6.27023 27.2593 6.29081C27.2534 6.3114 27.2535 6.33324 27.2597 6.35375C27.2658 6.37427 27.2777 6.3926 27.2939 6.40656C27.3102 6.42053 27.33 6.42955 27.3512 6.43256C27.3724 6.43556 27.3941 6.43243 27.4135 6.42353C27.433 6.41462 27.4495 6.40032 27.4611 6.38232C27.4727 6.36432 27.4789 6.34338 27.479 6.32196C27.479 6.26096 27.429 6.21196 27.369 6.21096C27.363 6.21036 27.357 6.21036 27.351 6.21096H27.35ZM20.118 6.77096C20.1031 6.77082 20.0884 6.77369 20.0746 6.77941C20.0609 6.78512 20.0485 6.79356 20.0381 6.80422C20.0277 6.81488 20.0196 6.82753 20.0143 6.8414C20.0089 6.85528 20.0064 6.8701 20.007 6.88496C20.0068 6.89958 20.0096 6.91407 20.0151 6.9276C20.0207 6.94113 20.0288 6.95341 20.0392 6.96375C20.0495 6.97408 20.0618 6.98225 20.0753 6.98779C20.0889 6.99332 20.1034 6.9961 20.118 6.99596C20.179 6.99596 20.231 6.94596 20.231 6.88496C20.231 6.8549 20.2191 6.82606 20.1979 6.8047C20.1768 6.78335 20.148 6.77123 20.118 6.77096ZM27.368 6.77096C27.3531 6.77082 27.3384 6.77369 27.3246 6.77941C27.3109 6.78512 27.2985 6.79356 27.2881 6.80422C27.2777 6.81488 27.2696 6.82753 27.2643 6.8414C27.2589 6.85528 27.2564 6.8701 27.257 6.88496C27.2568 6.89958 27.2596 6.91407 27.2651 6.9276C27.2707 6.94113 27.2788 6.95341 27.2892 6.96375C27.2995 6.97408 27.3118 6.98225 27.3253 6.98779C27.3389 6.99332 27.3534 6.9961 27.368 6.99596C27.429 6.99596 27.481 6.94596 27.481 6.88496C27.481 6.8549 27.4691 6.82606 27.4479 6.8047C27.4268 6.78335 27.398 6.77123 27.368 6.77096ZM20.11 7.33396C20.0813 7.33576 20.0545 7.34848 20.0349 7.36951C20.0154 7.39053 20.0047 7.41826 20.005 7.44696C20.0052 7.46932 20.0121 7.49109 20.0248 7.50949C20.0375 7.52788 20.0555 7.54204 20.0763 7.55016C20.0971 7.55828 20.1199 7.55997 20.1417 7.55503C20.1635 7.55009 20.1834 7.53873 20.1986 7.52243C20.2139 7.50612 20.224 7.48561 20.2276 7.46354C20.2311 7.44146 20.2279 7.41883 20.2185 7.39856C20.2091 7.37829 20.1938 7.3613 20.1746 7.34979C20.1555 7.33828 20.1333 7.33277 20.111 7.33396H20.11ZM27.36 7.33396C27.3313 7.33576 27.3045 7.34848 27.2849 7.36951C27.2654 7.39053 27.2547 7.41826 27.255 7.44696C27.2552 7.46932 27.2621 7.49109 27.2748 7.50949C27.2875 7.52788 27.3055 7.54204 27.3263 7.55016C27.3471 7.55828 27.3699 7.55997 27.3917 7.55503C27.4135 7.55009 27.4334 7.53873 27.4486 7.52243C27.4639 7.50612 27.474 7.48561 27.4776 7.46354C27.4811 7.44146 27.4779 7.41883 27.4685 7.39856C27.4591 7.37829 27.4438 7.3613 27.4246 7.34979C27.4055 7.33828 27.3833 7.33277 27.361 7.33396H27.36ZM23.741 7.42596C22.858 7.42596 22.143 8.14196 22.143 9.02596C22.143 9.45004 22.3114 9.85676 22.6113 10.1566C22.9112 10.4565 23.3179 10.625 23.742 10.625C24.1661 10.625 24.5728 10.4565 24.8726 10.1566C25.1725 9.85676 25.341 9.45004 25.341 9.02596C25.341 8.60162 25.1724 8.19465 24.8723 7.89459C24.5723 7.59453 24.1653 7.42596 23.741 7.42596ZM20.111 7.89496C20.0816 7.89601 20.0539 7.90854 20.0337 7.92985C20.0135 7.95115 20.0025 7.97954 20.003 8.00889C20.0035 8.03825 20.0155 8.06622 20.0365 8.08679C20.0574 8.10736 20.0856 8.11889 20.115 8.11889C20.1443 8.11889 20.1725 8.10736 20.1935 8.08679C20.2144 8.06622 20.2264 8.03825 20.227 8.00889C20.2275 7.97954 20.2165 7.95115 20.1963 7.92985C20.1761 7.90854 20.1483 7.89601 20.119 7.89496H20.11H20.111ZM27.361 7.89496C27.3316 7.89601 27.3039 7.90854 27.2837 7.92985C27.2635 7.95115 27.2525 7.97954 27.253 8.00889C27.2535 8.03825 27.2655 8.06622 27.2865 8.08679C27.3074 8.10736 27.3356 8.11889 27.365 8.11889C27.3943 8.11889 27.4225 8.10736 27.4435 8.08679C27.4644 8.06622 27.4764 8.03825 27.477 8.00889C27.4775 7.97954 27.4665 7.95115 27.4463 7.92985C27.4261 7.90854 27.3983 7.89601 27.369 7.89496H27.36H27.361ZM20.111 8.45696C20.0821 8.45851 20.055 8.47112 20.0353 8.49218C20.0155 8.51323 20.0047 8.5411 20.005 8.56996C20.005 8.59967 20.0168 8.62815 20.0378 8.64916C20.0588 8.67016 20.0873 8.68196 20.117 8.68196C20.1467 8.68196 20.1752 8.67016 20.1962 8.64916C20.2172 8.62815 20.229 8.59967 20.229 8.56996C20.2291 8.55456 20.2261 8.53929 20.2201 8.52511C20.2141 8.51093 20.2053 8.49813 20.1941 8.48753C20.1829 8.47692 20.1697 8.46873 20.1552 8.46348C20.1407 8.45822 20.1253 8.456 20.11 8.45696H20.111ZM27.361 8.45696C27.3321 8.45851 27.305 8.47112 27.2853 8.49218C27.2655 8.51323 27.2547 8.5411 27.255 8.56996C27.255 8.5998 27.2668 8.62841 27.2879 8.64951C27.309 8.67061 27.3376 8.68246 27.3675 8.68246C27.3973 8.68246 27.4259 8.67061 27.447 8.64951C27.4681 8.62841 27.48 8.5998 27.48 8.56996C27.4801 8.55447 27.4771 8.53911 27.4711 8.52486C27.465 8.5106 27.456 8.49776 27.4448 8.48714C27.4335 8.47652 27.4201 8.46835 27.4055 8.46316C27.3909 8.45796 27.3754 8.45586 27.36 8.45696H27.361ZM20.111 9.01996C20.0813 9.02169 20.0535 9.03514 20.0337 9.05736C20.0139 9.07959 20.0037 9.10876 20.0055 9.13846C20.0072 9.16817 20.0206 9.19597 20.0429 9.21575C20.0651 9.23554 20.0943 9.24569 20.124 9.24396C20.1537 9.24211 20.1814 9.22853 20.2011 9.20621C20.2208 9.18389 20.2308 9.15467 20.229 9.12496C20.2271 9.09526 20.2135 9.06751 20.1912 9.04782C20.1689 9.02813 20.1397 9.01811 20.11 9.01996H20.111ZM27.361 9.01996C27.3313 9.02169 27.3035 9.03514 27.2837 9.05736C27.2639 9.07959 27.2537 9.10876 27.2555 9.13846C27.2572 9.16817 27.2706 9.19597 27.2929 9.21575C27.3151 9.23554 27.3443 9.24569 27.374 9.24396C27.4037 9.24211 27.4314 9.22853 27.4511 9.20621C27.4708 9.18389 27.4808 9.15467 27.479 9.12496C27.4771 9.09526 27.4635 9.06751 27.4412 9.04782C27.4189 9.02813 27.3897 9.01811 27.36 9.01996H27.361ZM16.538 9.32596C16.3244 9.32062 16.112 9.35808 15.9131 9.43611C15.7143 9.51414 15.533 9.63118 15.3801 9.78033C15.2272 9.92947 15.1057 10.1077 15.0227 10.3046C14.9397 10.5014 14.897 10.7128 14.897 10.9265C14.897 11.1401 14.9397 11.3515 15.0227 11.5484C15.1057 11.7452 15.2272 11.9235 15.3801 12.0726C15.533 12.2217 15.7143 12.3388 15.9131 12.4168C16.112 12.4949 16.3244 12.5323 16.538 12.527C16.9621 12.5264 17.3687 12.3575 17.6684 12.0573C17.9681 11.7571 18.1362 11.3501 18.136 10.926C18.136 10.042 17.422 9.32596 16.538 9.32596ZM31.302 9.32596C31.0884 9.32062 30.876 9.35808 30.6771 9.43611C30.4783 9.51414 30.297 9.63118 30.1441 9.78033C29.9912 9.92947 29.8697 10.1077 29.7867 10.3046C29.7037 10.5014 29.661 10.7128 29.661 10.9265C29.661 11.1401 29.7037 11.3515 29.7867 11.5484C29.8697 11.7452 29.9912 11.9235 30.1441 12.0726C30.297 12.2217 30.4783 12.3388 30.6771 12.4168C30.876 12.4949 31.0884 12.5323 31.302 12.527C31.726 12.5262 32.1323 12.3571 32.4318 12.0569C32.7312 11.7567 32.8992 11.35 32.899 10.926C32.899 10.042 32.185 9.32596 31.302 9.32596ZM20.11 9.58196C20.0879 9.58334 20.0667 9.59116 20.049 9.60447C20.0313 9.61778 20.018 9.63599 20.0105 9.65683C20.0031 9.67767 20.002 9.70024 20.0073 9.72172C20.0125 9.74321 20.024 9.76267 20.0403 9.7777C20.0565 9.79272 20.0768 9.80265 20.0986 9.80624C20.1205 9.80984 20.1429 9.80694 20.1631 9.79792C20.1833 9.7889 20.2004 9.77414 20.2123 9.75548C20.2242 9.73682 20.2303 9.71509 20.23 9.69296C20.2299 9.67764 20.2266 9.6625 20.2204 9.64848C20.2143 9.63446 20.2053 9.62186 20.194 9.61146C20.1828 9.60105 20.1695 9.59307 20.1551 9.58799C20.1406 9.58292 20.1253 9.58087 20.11 9.58196ZM27.36 9.58196C27.3379 9.58334 27.3167 9.59116 27.299 9.60447C27.2813 9.61778 27.268 9.63599 27.2605 9.65683C27.2531 9.67767 27.252 9.70024 27.2573 9.72172C27.2625 9.74321 27.274 9.76267 27.2903 9.7777C27.3065 9.79272 27.3268 9.80265 27.3486 9.80624C27.3705 9.80984 27.3929 9.80694 27.4131 9.79792C27.4333 9.7889 27.4504 9.77414 27.4623 9.75548C27.4742 9.73682 27.4803 9.71509 27.48 9.69296C27.4799 9.67764 27.4766 9.6625 27.4704 9.64848C27.4643 9.63446 27.4553 9.62186 27.444 9.61146C27.4328 9.60105 27.4195 9.59307 27.4051 9.58799C27.3906 9.58292 27.3753 9.58087 27.36 9.58196ZM20.099 10.145C20.0722 10.1494 20.0479 10.1632 20.0303 10.1839C20.0128 10.2046 20.0031 10.2308 20.003 10.258C20.003 10.2878 20.0148 10.3164 20.0359 10.3375C20.057 10.3586 20.0856 10.3705 20.1155 10.3705C20.1453 10.3705 20.1739 10.3586 20.195 10.3375C20.2161 10.3164 20.228 10.2878 20.228 10.258C20.2277 10.2282 20.2159 10.1998 20.1949 10.1787C20.174 10.1576 20.1457 10.1455 20.116 10.145H20.099ZM27.349 10.145C27.3222 10.1494 27.2979 10.1632 27.2803 10.1839C27.2628 10.2046 27.2531 10.2308 27.253 10.258C27.253 10.2878 27.2648 10.3164 27.2859 10.3375C27.307 10.3586 27.3356 10.3705 27.3655 10.3705C27.3953 10.3705 27.4239 10.3586 27.445 10.3375C27.4661 10.3164 27.478 10.2878 27.478 10.258C27.4777 10.2282 27.4659 10.1998 27.4449 10.1787C27.424 10.1576 27.3957 10.1455 27.366 10.145H27.349ZM20.119 10.705C20.104 10.705 20.0892 10.708 20.0754 10.7138C20.0616 10.7196 20.0491 10.7281 20.0387 10.7388C20.0283 10.7495 20.0201 10.7622 20.0146 10.7762C20.0092 10.7901 20.0066 10.805 20.007 10.82C20.007 10.882 20.056 10.93 20.118 10.93C20.1475 10.9302 20.1759 10.9188 20.1971 10.8982C20.2183 10.8776 20.2304 10.8495 20.231 10.82C20.231 10.7898 20.2191 10.7609 20.198 10.7393C20.1769 10.7178 20.1481 10.7055 20.118 10.705H20.119ZM27.369 10.705C27.354 10.705 27.3392 10.708 27.3254 10.7138C27.3116 10.7196 27.2991 10.7281 27.2887 10.7388C27.2783 10.7495 27.2701 10.7622 27.2646 10.7762C27.2592 10.7901 27.2566 10.805 27.257 10.82C27.257 10.882 27.306 10.93 27.368 10.93C27.3975 10.9302 27.4259 10.9188 27.4471 10.8982C27.4683 10.8776 27.4804 10.8495 27.481 10.82C27.4807 10.7899 27.4688 10.7611 27.4477 10.7396C27.4266 10.7182 27.398 10.7057 27.368 10.705H27.369ZM23.741 11.262C22.858 11.262 22.143 11.978 22.143 12.862C22.1354 13.0767 22.1711 13.2908 22.248 13.4914C22.325 13.692 22.4415 13.8751 22.5908 14.0297C22.74 14.1843 22.9188 14.3073 23.1166 14.3913C23.3144 14.4752 23.5271 14.5185 23.742 14.5185C23.9568 14.5185 24.1695 14.4752 24.3673 14.3913C24.5651 14.3073 24.7439 14.1843 24.8932 14.0297C25.0424 13.8751 25.159 13.692 25.2359 13.4914C25.3128 13.2908 25.3486 13.0767 25.341 12.862C25.341 12.4376 25.1724 12.0307 24.8723 11.7306C24.5723 11.4305 24.1653 11.262 23.741 11.262ZM20.118 11.27C20.1032 11.2698 20.0885 11.2727 20.0749 11.2783C20.0612 11.284 20.0488 11.2923 20.0385 11.3029C20.0281 11.3134 20.02 11.326 20.0146 11.3397C20.0091 11.3535 20.0066 11.3682 20.007 11.383C20.0068 11.3976 20.0096 11.4121 20.0151 11.4256C20.0207 11.4391 20.0288 11.4514 20.0392 11.4617C20.0495 11.4721 20.0618 11.4803 20.0753 11.4858C20.0889 11.4913 20.1034 11.4941 20.118 11.494C20.179 11.494 20.231 11.444 20.231 11.383C20.2307 11.3531 20.2187 11.3245 20.1976 11.3033C20.1764 11.2822 20.1479 11.2702 20.118 11.27ZM27.368 11.27C27.3532 11.2698 27.3385 11.2727 27.3249 11.2783C27.3112 11.284 27.2988 11.2923 27.2885 11.3029C27.2781 11.3134 27.27 11.326 27.2646 11.3397C27.2591 11.3535 27.2566 11.3682 27.257 11.383C27.2568 11.3976 27.2596 11.4121 27.2651 11.4256C27.2707 11.4391 27.2788 11.4514 27.2892 11.4617C27.2995 11.4721 27.3118 11.4803 27.3253 11.4858C27.3389 11.4913 27.3534 11.4941 27.368 11.494C27.429 11.494 27.481 11.444 27.481 11.383C27.4807 11.3531 27.4687 11.3245 27.4476 11.3033C27.4264 11.2822 27.3979 11.2702 27.368 11.27ZM20.11 11.832C20.0817 11.8354 20.0557 11.8494 20.0372 11.8711C20.0186 11.8928 20.0089 11.9206 20.0099 11.9491C20.0109 11.9776 20.0226 12.0047 20.0426 12.0251C20.0626 12.0454 20.0895 12.0575 20.118 12.059C20.1477 12.0582 20.1759 12.0458 20.1966 12.0245C20.2174 12.0032 20.229 11.9747 20.229 11.945C20.2291 11.9296 20.2261 11.9143 20.2201 11.9001C20.2141 11.8859 20.2053 11.8731 20.1941 11.8625C20.1829 11.8519 20.1697 11.8437 20.1552 11.8385C20.1407 11.8332 20.1253 11.831 20.11 11.832ZM27.36 11.832C27.3317 11.8354 27.3057 11.8494 27.2872 11.8711C27.2686 11.8928 27.2589 11.9206 27.2599 11.9491C27.2609 11.9776 27.2726 12.0047 27.2926 12.0251C27.3126 12.0454 27.3395 12.0575 27.368 12.059C27.429 12.059 27.479 12.006 27.479 11.945C27.4791 11.9296 27.4761 11.9143 27.4701 11.9001C27.4641 11.8859 27.4553 11.8731 27.4441 11.8625C27.4329 11.8519 27.4197 11.8437 27.4052 11.8385C27.3907 11.8332 27.3753 11.831 27.36 11.832ZM20.11 12.395C20.0817 12.3984 20.0557 12.4124 20.0372 12.4341C20.0186 12.4558 20.0089 12.4836 20.0099 12.5121C20.0109 12.5406 20.0226 12.5677 20.0426 12.5881C20.0626 12.6084 20.0895 12.6205 20.118 12.622C20.1477 12.6212 20.1759 12.6088 20.1966 12.5875C20.2174 12.5662 20.229 12.5377 20.229 12.508C20.2292 12.4784 20.2178 12.45 20.1972 12.4288C20.1766 12.4077 20.1485 12.3955 20.119 12.395H20.11ZM27.36 12.395C27.3317 12.3984 27.3057 12.4124 27.2872 12.4341C27.2686 12.4558 27.2589 12.4836 27.2599 12.5121C27.2609 12.5406 27.2726 12.5677 27.2926 12.5881C27.3126 12.6084 27.3395 12.6205 27.368 12.622C27.429 12.621 27.479 12.569 27.479 12.508C27.4792 12.4784 27.4678 12.45 27.4472 12.4288C27.4266 12.4077 27.3985 12.3955 27.369 12.395H27.36ZM20.11 12.955C20.0953 12.9559 20.0809 12.9597 20.0676 12.9662C20.0544 12.9726 20.0426 12.9817 20.0328 12.9927C20.0231 13.0038 20.0156 13.0166 20.0108 13.0306C20.006 13.0445 20.004 13.0593 20.005 13.074C20.0059 13.0887 20.0097 13.1031 20.0162 13.1163C20.0227 13.1295 20.0317 13.1414 20.0427 13.1511C20.0538 13.1609 20.0666 13.1683 20.0806 13.1731C20.0945 13.1779 20.1093 13.1799 20.124 13.179C20.1537 13.1771 20.1814 13.1635 20.2011 13.1412C20.2208 13.1189 20.2308 13.0897 20.229 13.06C20.2271 13.0303 20.2135 13.0025 20.1912 12.9828C20.1689 12.9631 20.1397 12.9531 20.11 12.955ZM27.36 12.955C27.3303 12.9568 27.3025 12.9704 27.2828 12.9927C27.2731 13.0038 27.2656 13.0166 27.2608 13.0306C27.256 13.0445 27.254 13.0593 27.255 13.074C27.2559 13.0887 27.2597 13.1031 27.2662 13.1163C27.2727 13.1295 27.2817 13.1414 27.2927 13.1511C27.315 13.1708 27.3443 13.1808 27.374 13.179C27.4037 13.1771 27.4314 13.1635 27.4511 13.1412C27.4708 13.1189 27.4808 13.0897 27.479 13.06C27.4771 13.0303 27.4635 13.0025 27.4412 12.9828C27.4189 12.9631 27.3897 12.9531 27.36 12.955ZM16.538 13.162C16.1234 13.1766 15.7307 13.3516 15.4426 13.6501C15.1545 13.9485 14.9935 14.3471 14.9935 14.762C14.9935 15.1768 15.1545 15.5754 15.4426 15.8739C15.7307 16.1723 16.1234 16.3473 16.538 16.362C17.422 16.362 18.136 15.645 18.136 14.762C18.136 13.878 17.422 13.162 16.538 13.162ZM31.302 13.162C30.418 13.162 29.7 13.878 29.7 14.762C29.7 15.645 30.418 16.362 31.302 16.362C32.185 16.362 32.899 15.645 32.899 14.762C32.899 13.878 32.185 13.162 31.302 13.162ZM20.11 13.518C20.0953 13.5189 20.0809 13.5227 20.0676 13.5292C20.0544 13.5356 20.0426 13.5447 20.0328 13.5557C20.0231 13.5668 20.0156 13.5796 20.0108 13.5936C20.006 13.6075 20.004 13.6223 20.005 13.637C20.0059 13.6517 20.0097 13.6661 20.0162 13.6793C20.0227 13.6925 20.0317 13.7044 20.0427 13.7141C20.0538 13.7239 20.0666 13.7313 20.0806 13.7361C20.0945 13.7409 20.1093 13.7429 20.124 13.742C20.1537 13.7401 20.1814 13.7265 20.2011 13.7042C20.2208 13.6819 20.2308 13.6527 20.229 13.623C20.2271 13.5933 20.2135 13.5655 20.1912 13.5458C20.1689 13.5261 20.1397 13.5161 20.11 13.518ZM27.36 13.518C27.3303 13.5198 27.3025 13.5334 27.2828 13.5557C27.2731 13.5668 27.2656 13.5796 27.2608 13.5936C27.256 13.6075 27.254 13.6223 27.255 13.637C27.2559 13.6517 27.2597 13.6661 27.2662 13.6793C27.2727 13.6925 27.2817 13.7044 27.2927 13.7141C27.315 13.7338 27.3443 13.7438 27.374 13.742C27.4037 13.7401 27.4314 13.7265 27.4511 13.7042C27.4708 13.6819 27.4808 13.6527 27.479 13.623C27.4771 13.5933 27.4635 13.5655 27.4412 13.5458C27.4189 13.5261 27.3897 13.5161 27.36 13.518ZM20.11 14.08C20.0953 14.0809 20.0809 14.0847 20.0676 14.0912C20.0544 14.0976 20.0426 14.1067 20.0328 14.1177C20.0231 14.1288 20.0156 14.1416 20.0108 14.1556C20.006 14.1695 20.004 14.1843 20.005 14.199C20.0059 14.2137 20.0097 14.2281 20.0162 14.2413C20.0227 14.2545 20.0317 14.2664 20.0427 14.2761C20.0538 14.2859 20.0666 14.2933 20.0806 14.2981C20.0945 14.3029 20.1093 14.3049 20.124 14.304C20.1537 14.3021 20.1814 14.2885 20.2011 14.2662C20.2208 14.2439 20.2308 14.2147 20.229 14.185C20.2271 14.1553 20.2135 14.1275 20.1912 14.1078C20.1689 14.0881 20.1397 14.0781 20.11 14.08ZM27.36 14.08C27.3303 14.0818 27.3025 14.0954 27.2828 14.1177C27.2731 14.1288 27.2656 14.1416 27.2608 14.1556C27.256 14.1695 27.254 14.1843 27.255 14.199C27.2559 14.2137 27.2597 14.2281 27.2662 14.2413C27.2727 14.2545 27.2817 14.2664 27.2927 14.2761C27.315 14.2958 27.3443 14.3058 27.374 14.304C27.4037 14.3021 27.4314 14.2885 27.4511 14.2662C27.4708 14.2439 27.4808 14.2147 27.479 14.185C27.4771 14.1553 27.4635 14.1275 27.4412 14.1078C27.4189 14.0881 27.3897 14.0781 27.36 14.08ZM20.099 14.643C20.0716 14.6481 20.0471 14.6631 20.0302 14.6852C20.0132 14.7073 20.005 14.7348 20.0071 14.7626C20.0092 14.7903 20.0215 14.8163 20.0416 14.8356C20.0617 14.8548 20.0882 14.866 20.116 14.867C20.1457 14.867 20.1742 14.8552 20.1952 14.8342C20.2162 14.8132 20.228 14.7847 20.228 14.755C20.228 14.7253 20.2162 14.6968 20.1952 14.6758C20.1742 14.6548 20.1457 14.643 20.116 14.643H20.099ZM27.349 14.643C27.3216 14.6481 27.2971 14.6631 27.2802 14.6852C27.2632 14.7073 27.255 14.7348 27.2571 14.7626C27.2592 14.7903 27.2715 14.8163 27.2916 14.8356C27.3117 14.8548 27.3382 14.866 27.366 14.867C27.3957 14.867 27.4242 14.8552 27.4452 14.8342C27.4662 14.8132 27.478 14.7847 27.478 14.755C27.478 14.7253 27.4662 14.6968 27.4452 14.6758C27.4242 14.6548 27.3957 14.643 27.366 14.643H27.349ZM23.741 15.098C22.858 15.098 22.143 15.814 22.143 16.698C22.143 17.122 22.3114 17.5288 22.6113 17.8286C22.9112 18.1285 23.3179 18.297 23.742 18.297C24.1661 18.297 24.5728 18.1285 24.8726 17.8286C25.1725 17.5288 25.341 17.122 25.341 16.698C25.341 16.2736 25.1724 15.8667 24.8723 15.5666C24.5723 15.2665 24.1653 15.098 23.741 15.098ZM20.099 15.205C20.0778 15.2082 20.058 15.2175 20.0419 15.2316C20.0259 15.2458 20.0142 15.2642 20.0083 15.2848C20.0024 15.3054 20.0025 15.3272 20.0087 15.3478C20.0148 15.3683 20.0267 15.3866 20.0429 15.4006C20.0592 15.4145 20.079 15.4235 20.1002 15.4266C20.1214 15.4296 20.1431 15.4264 20.1625 15.4175C20.182 15.4086 20.1985 15.3943 20.2101 15.3763C20.2217 15.3583 20.2279 15.3374 20.228 15.316C20.227 15.256 20.178 15.206 20.116 15.206C20.109 15.204 20.108 15.204 20.101 15.206H20.099V15.205ZM27.349 15.205C27.3278 15.2082 27.308 15.2175 27.2919 15.2316C27.2759 15.2458 27.2642 15.2642 27.2583 15.2848C27.2524 15.3054 27.2525 15.3272 27.2587 15.3478C27.2648 15.3683 27.2767 15.3866 27.2929 15.4006C27.3092 15.4145 27.329 15.4235 27.3502 15.4266C27.3714 15.4296 27.3931 15.4264 27.4125 15.4175C27.432 15.4086 27.4485 15.3943 27.4601 15.3763C27.4717 15.3583 27.4779 15.3374 27.478 15.316C27.477 15.256 27.428 15.206 27.366 15.206C27.359 15.204 27.358 15.204 27.351 15.206H27.349V15.205ZM20.119 15.765C20.104 15.7647 20.0892 15.7675 20.0753 15.7731C20.0615 15.7788 20.0489 15.7872 20.0384 15.7979C20.0279 15.8085 20.0197 15.8212 20.0143 15.8352C20.0089 15.8491 20.0064 15.864 20.007 15.879C20.0068 15.8936 20.0096 15.9081 20.0151 15.9216C20.0207 15.9351 20.0288 15.9474 20.0392 15.9578C20.0495 15.9681 20.0618 15.9763 20.0753 15.9818C20.0889 15.9873 20.1034 15.9901 20.118 15.99C20.179 15.99 20.231 15.94 20.231 15.879C20.2307 15.8491 20.2187 15.8205 20.1976 15.7993C20.1764 15.7782 20.1479 15.7662 20.118 15.766L20.119 15.765ZM27.369 15.765C27.354 15.7647 27.3392 15.7675 27.3253 15.7731C27.3115 15.7788 27.2989 15.7872 27.2884 15.7979C27.2779 15.8085 27.2697 15.8212 27.2643 15.8352C27.2589 15.8491 27.2564 15.864 27.257 15.879C27.2568 15.8936 27.2596 15.9081 27.2651 15.9216C27.2707 15.9351 27.2788 15.9474 27.2892 15.9578C27.2995 15.9681 27.3118 15.9763 27.3253 15.9818C27.3389 15.9873 27.3534 15.9901 27.368 15.99C27.429 15.99 27.481 15.94 27.481 15.879C27.4807 15.8491 27.4687 15.8205 27.4476 15.7993C27.4264 15.7782 27.3979 15.7662 27.368 15.766L27.369 15.765ZM20.11 16.328C20.0813 16.3298 20.0545 16.3425 20.0349 16.3635C20.0154 16.3845 20.0047 16.4123 20.005 16.441C20.0052 16.4633 20.0121 16.4851 20.0248 16.5035C20.0375 16.5219 20.0555 16.536 20.0763 16.5442C20.0971 16.5523 20.1199 16.554 20.1417 16.549C20.1635 16.5441 20.1834 16.5327 20.1986 16.5164C20.2139 16.5001 20.224 16.4796 20.2276 16.4575C20.2311 16.4355 20.2279 16.4128 20.2185 16.3926C20.2091 16.3723 20.1938 16.3553 20.1746 16.3438C20.1555 16.3323 20.1333 16.3268 20.111 16.328H20.11ZM27.36 16.328C27.3313 16.3298 27.3045 16.3425 27.2849 16.3635C27.2654 16.3845 27.2547 16.4123 27.255 16.441C27.2552 16.4633 27.2621 16.4851 27.2748 16.5035C27.2875 16.5219 27.3055 16.536 27.3263 16.5442C27.3471 16.5523 27.3699 16.554 27.3917 16.549C27.4135 16.5441 27.4334 16.5327 27.4486 16.5164C27.4639 16.5001 27.474 16.4796 27.4776 16.4575C27.4811 16.4355 27.4779 16.4128 27.4685 16.3926C27.4591 16.3723 27.4438 16.3553 27.4246 16.3438C27.4055 16.3323 27.3833 16.3268 27.361 16.328H27.36ZM20.11 16.891C20.0803 16.892 20.0522 16.9048 20.0319 16.9266C20.0117 16.9483 20.0009 16.9773 20.002 17.007C20.003 17.0367 20.0158 17.0647 20.0376 17.085C20.0594 17.1052 20.0883 17.116 20.118 17.115C20.1478 17.1139 20.176 17.101 20.1963 17.0792C20.2167 17.0573 20.2275 17.0283 20.2265 16.9985C20.2254 16.9686 20.2125 16.9404 20.1907 16.9201C20.1688 16.8997 20.1398 16.8889 20.11 16.89V16.891ZM27.36 16.891C27.3313 16.8928 27.3045 16.9055 27.2849 16.9265C27.2654 16.9475 27.2547 16.9753 27.255 17.004C27.255 17.066 27.305 17.116 27.368 17.115C27.429 17.115 27.479 17.065 27.479 17.004C27.4791 16.9886 27.4761 16.9733 27.4701 16.9591C27.4641 16.9449 27.4553 16.9321 27.4441 16.9215C27.4329 16.9109 27.4197 16.9027 27.4052 16.8975C27.3907 16.8922 27.3753 16.89 27.36 16.891ZM16.538 16.998C16.3244 16.9926 16.112 17.0301 15.9131 17.1081C15.7143 17.1861 15.533 17.3032 15.3801 17.4523C15.2272 17.6015 15.1057 17.7797 15.0227 17.9766C14.9397 18.1734 14.897 18.3848 14.897 18.5985C14.897 18.8121 14.9397 19.0235 15.0227 19.2204C15.1057 19.4172 15.2272 19.5955 15.3801 19.7446C15.533 19.8937 15.7143 20.0108 15.9131 20.0888C16.112 20.1669 16.3244 20.2043 16.538 20.199C16.9621 20.1984 17.3687 20.0295 17.6684 19.7293C17.9681 19.4291 18.1362 19.0221 18.136 18.598C18.136 17.714 17.422 16.998 16.538 16.998ZM31.302 16.998C31.0884 16.9926 30.876 17.0301 30.6771 17.1081C30.4783 17.1861 30.297 17.3032 30.1441 17.4523C29.9912 17.6015 29.8697 17.7797 29.7867 17.9766C29.7037 18.1734 29.661 18.3848 29.661 18.5985C29.661 18.8121 29.7037 19.0235 29.7867 19.2204C29.8697 19.4172 29.9912 19.5955 30.1441 19.7446C30.297 19.8937 30.4783 20.0108 30.6771 20.0888C30.876 20.1669 31.0884 20.2043 31.302 20.199C31.726 20.1982 32.1323 20.0291 32.4318 19.7289C32.7312 19.4287 32.8992 19.022 32.899 18.598C32.899 17.714 32.185 16.998 31.302 16.998ZM20.11 17.453C20.0952 17.4539 20.0807 17.4577 20.0674 17.4642C20.0542 17.4707 20.0423 17.4798 20.0325 17.4909C20.0227 17.502 20.0152 17.5149 20.0104 17.5289C20.0056 17.5429 20.0035 17.5577 20.0045 17.5725C20.0054 17.5872 20.0092 17.6017 20.0157 17.615C20.0222 17.6283 20.0313 17.6402 20.0424 17.65C20.0535 17.6598 20.0664 17.6673 20.0804 17.6721C20.0944 17.6769 20.1092 17.6789 20.124 17.678C20.1538 17.6761 20.1817 17.6625 20.2015 17.6401C20.2213 17.6177 20.2313 17.5883 20.2295 17.5585C20.2276 17.5286 20.214 17.5007 20.1916 17.481C20.1692 17.4612 20.1398 17.4511 20.11 17.453ZM27.36 17.453C27.3452 17.4539 27.3307 17.4577 27.3174 17.4642C27.3042 17.4707 27.2923 17.4798 27.2825 17.4909C27.2727 17.502 27.2652 17.5149 27.2604 17.5289C27.2556 17.5429 27.2535 17.5577 27.2545 17.5725C27.2554 17.5872 27.2592 17.6017 27.2657 17.615C27.2722 17.6283 27.2813 17.6402 27.2924 17.65C27.3035 17.6598 27.3164 17.6673 27.3304 17.6721C27.3444 17.6769 27.3592 17.6789 27.374 17.678C27.4038 17.6761 27.4317 17.6625 27.4515 17.6401C27.4713 17.6177 27.4813 17.5883 27.4795 17.5585C27.4776 17.5286 27.464 17.5007 27.4416 17.481C27.4192 17.4612 27.3898 17.4511 27.36 17.453ZM20.11 18.016C20.0953 18.0169 20.0809 18.0207 20.0676 18.0272C20.0544 18.0336 20.0426 18.0427 20.0328 18.0537C20.0231 18.0648 20.0156 18.0776 20.0108 18.0916C20.006 18.1055 20.004 18.1203 20.005 18.135C20.0059 18.1497 20.0097 18.1641 20.0162 18.1773C20.0227 18.1905 20.0317 18.2024 20.0427 18.2121C20.0538 18.2219 20.0666 18.2293 20.0806 18.2341C20.0945 18.2389 20.1093 18.2409 20.124 18.24C20.1537 18.2381 20.1814 18.2245 20.2011 18.2022C20.2208 18.1799 20.2308 18.1507 20.229 18.121C20.2271 18.0913 20.2135 18.0635 20.1912 18.0438C20.1689 18.0241 20.1397 18.0141 20.11 18.016ZM27.36 18.016C27.3453 18.0169 27.3309 18.0207 27.3176 18.0272C27.3044 18.0336 27.2926 18.0427 27.2828 18.0537C27.2731 18.0648 27.2656 18.0776 27.2608 18.0916C27.256 18.1055 27.254 18.1203 27.255 18.135C27.2559 18.1497 27.2597 18.1641 27.2662 18.1773C27.2727 18.1905 27.2817 18.2024 27.2927 18.2121C27.3038 18.2219 27.3166 18.2293 27.3306 18.2341C27.3445 18.2389 27.3593 18.2409 27.374 18.24C27.4037 18.2381 27.4314 18.2245 27.4511 18.2022C27.4708 18.1799 27.4808 18.1507 27.479 18.121C27.4771 18.0913 27.4635 18.0635 27.4412 18.0438C27.4189 18.0241 27.3897 18.0141 27.36 18.016ZM20.11 18.578C20.0952 18.5789 20.0807 18.5827 20.0674 18.5892C20.0542 18.5957 20.0423 18.6048 20.0325 18.6159C20.0227 18.627 20.0152 18.6399 20.0104 18.6539C20.0056 18.6679 20.0035 18.6827 20.0045 18.6975C20.0054 18.7122 20.0092 18.7267 20.0157 18.74C20.0222 18.7533 20.0313 18.7652 20.0424 18.775C20.0535 18.7848 20.0664 18.7923 20.0804 18.7971C20.0944 18.8019 20.1092 18.8039 20.124 18.803C20.1538 18.8011 20.1817 18.7875 20.2015 18.7651C20.2213 18.7427 20.2313 18.7133 20.2295 18.6835C20.2276 18.6536 20.214 18.6257 20.1916 18.606C20.1692 18.5862 20.1398 18.5761 20.11 18.578ZM27.36 18.578C27.3452 18.5789 27.3307 18.5827 27.3174 18.5892C27.3042 18.5957 27.2923 18.6048 27.2825 18.6159C27.2727 18.627 27.2652 18.6399 27.2604 18.6539C27.2556 18.6679 27.2535 18.6827 27.2545 18.6975C27.2554 18.7122 27.2592 18.7267 27.2657 18.74C27.2722 18.7533 27.2813 18.7652 27.2924 18.775C27.3035 18.7848 27.3164 18.7923 27.3304 18.7971C27.3444 18.8019 27.3592 18.8039 27.374 18.803C27.4038 18.8011 27.4317 18.7875 27.4515 18.7651C27.4713 18.7427 27.4813 18.7133 27.4795 18.6835C27.4776 18.6536 27.464 18.6257 27.4416 18.606C27.4192 18.5862 27.3898 18.5761 27.36 18.578ZM23.741 18.934C22.858 18.934 22.143 19.65 22.143 20.534C22.143 20.8505 22.2369 21.1599 22.4128 21.4231C22.5887 21.6862 22.8387 21.8913 23.1311 22.0124C23.4236 22.1334 23.7454 22.165 24.0559 22.1031C24.3663 22.0412 24.6514 21.8886 24.875 21.6646C25.0987 21.4407 25.251 21.1554 25.3125 20.8449C25.374 20.5344 25.342 20.2126 25.2206 19.9203C25.0992 19.628 24.8938 19.3782 24.6304 19.2026C24.367 19.0271 24.0575 18.9336 23.741 18.934ZM20.099 19.141C20.0724 19.145 20.0481 19.1584 20.0305 19.1788C20.0129 19.1991 20.0031 19.2251 20.003 19.252C20.0028 19.2741 20.0091 19.2958 20.0213 19.3144C20.0334 19.3329 20.0508 19.3474 20.0712 19.356C20.0916 19.3647 20.1141 19.3671 20.1358 19.363C20.1576 19.3589 20.1776 19.3484 20.1935 19.3329C20.2093 19.3173 20.2201 19.2975 20.2246 19.2758C20.2291 19.2541 20.2271 19.2316 20.2188 19.211C20.2105 19.1905 20.1963 19.1729 20.178 19.1604C20.1597 19.1479 20.1381 19.1412 20.116 19.141H20.099ZM27.349 19.141C27.3224 19.145 27.2981 19.1584 27.2805 19.1788C27.2629 19.1991 27.2531 19.2251 27.253 19.252C27.2528 19.2741 27.2591 19.2958 27.2713 19.3144C27.2834 19.3329 27.3008 19.3474 27.3212 19.356C27.3416 19.3647 27.3641 19.3671 27.3858 19.363C27.4076 19.3589 27.4276 19.3484 27.4435 19.3329C27.4593 19.3173 27.4701 19.2975 27.4746 19.2758C27.4791 19.2541 27.4771 19.2316 27.4688 19.211C27.4605 19.1905 27.4463 19.1729 27.428 19.1604C27.4097 19.1479 27.3881 19.1412 27.366 19.141H27.349ZM20.119 19.701C20.1041 19.7007 20.0893 19.7034 20.0756 19.709C20.0618 19.7146 20.0493 19.7229 20.0388 19.7335C20.0283 19.7441 20.0201 19.7566 20.0146 19.7705C20.0092 19.7843 20.0066 19.7991 20.007 19.814C20.0067 19.8287 20.0094 19.8433 20.0149 19.8569C20.0203 19.8706 20.0285 19.883 20.0388 19.8934C20.0492 19.9038 20.0615 19.9121 20.0751 19.9177C20.0887 19.9233 20.1033 19.9261 20.118 19.926C20.179 19.926 20.231 19.876 20.231 19.815C20.231 19.7849 20.2191 19.7561 20.1979 19.7347C20.1768 19.7134 20.148 19.7012 20.118 19.701H20.119ZM27.369 19.701C27.3541 19.7007 27.3393 19.7034 27.3256 19.709C27.3118 19.7146 27.2993 19.7229 27.2888 19.7335C27.2783 19.7441 27.2701 19.7566 27.2646 19.7705C27.2592 19.7843 27.2566 19.7991 27.257 19.814C27.2567 19.8287 27.2594 19.8433 27.2649 19.8569C27.2703 19.8706 27.2785 19.883 27.2888 19.8934C27.2992 19.9038 27.3115 19.9121 27.3251 19.9177C27.3387 19.9233 27.3533 19.9261 27.368 19.926C27.429 19.926 27.481 19.876 27.481 19.815C27.481 19.7849 27.4691 19.7561 27.4479 19.7347C27.4268 19.7134 27.398 19.7012 27.368 19.701H27.369ZM20.11 20.264C20.0813 20.2658 20.0545 20.2785 20.0349 20.2995C20.0154 20.3205 20.0047 20.3483 20.005 20.377C20.005 20.4067 20.0168 20.4352 20.0378 20.4562C20.0588 20.4772 20.0873 20.489 20.117 20.489C20.1467 20.489 20.1752 20.4772 20.1962 20.4562C20.2172 20.4352 20.229 20.4067 20.229 20.377C20.2291 20.3616 20.2261 20.3463 20.2201 20.3321C20.2141 20.3179 20.2053 20.3051 20.1941 20.2945C20.1829 20.2839 20.1697 20.2757 20.1552 20.2705C20.1407 20.2652 20.1253 20.263 20.11 20.264ZM27.36 20.264C27.3313 20.2658 27.3045 20.2785 27.2849 20.2995C27.2654 20.3205 27.2547 20.3483 27.255 20.377C27.255 20.439 27.305 20.489 27.368 20.488C27.3827 20.4874 27.3971 20.484 27.4105 20.4779C27.4239 20.4718 27.436 20.4631 27.446 20.4523C27.456 20.4416 27.4638 20.4289 27.469 20.4151C27.4741 20.4013 27.4765 20.3867 27.476 20.372C27.4754 20.3573 27.472 20.3428 27.4659 20.3294C27.4598 20.316 27.4511 20.304 27.4403 20.2939C27.4296 20.2839 27.4169 20.2761 27.4031 20.271C27.3893 20.2658 27.3747 20.2634 27.36 20.264ZM20.11 20.826C20.0813 20.8278 20.0545 20.8405 20.0349 20.8615C20.0154 20.8825 20.0047 20.9103 20.005 20.939C20.005 20.9688 20.0168 20.9974 20.0379 21.0185C20.059 21.0396 20.0876 21.0515 20.1175 21.0515C20.1473 21.0515 20.1759 21.0396 20.197 21.0185C20.2181 20.9974 20.23 20.9688 20.23 20.939C20.2301 20.9235 20.2271 20.9081 20.2211 20.8939C20.215 20.8796 20.206 20.8668 20.1948 20.8561C20.1835 20.8455 20.1701 20.8374 20.1555 20.8322C20.1409 20.827 20.1254 20.8249 20.11 20.826ZM27.36 20.826C27.3313 20.8278 27.3045 20.8405 27.2849 20.8615C27.2654 20.8825 27.2547 20.9103 27.255 20.939C27.255 20.9688 27.2668 20.9974 27.2879 21.0185C27.309 21.0396 27.3376 21.0515 27.3675 21.0515C27.3973 21.0515 27.4259 21.0396 27.447 21.0185C27.4681 20.9974 27.48 20.9688 27.48 20.939C27.4801 20.9235 27.4771 20.9081 27.4711 20.8939C27.465 20.8796 27.456 20.8668 27.4448 20.8561C27.4335 20.8455 27.4201 20.8374 27.4055 20.8322C27.3909 20.827 27.3754 20.8249 27.36 20.826ZM16.538 20.834C16.1234 20.8486 15.7307 21.0236 15.4426 21.3221C15.1545 21.6205 14.9935 22.0191 14.9935 22.434C14.9935 22.8488 15.1545 23.2474 15.4426 23.5459C15.7307 23.8443 16.1234 24.0193 16.538 24.034C17.422 24.034 18.136 23.317 18.136 22.434C18.136 21.55 17.422 20.834 16.538 20.834ZM31.302 20.834C30.418 20.834 29.7 21.55 29.7 22.434C29.7 23.317 30.418 24.034 31.302 24.034C32.185 24.034 32.899 23.317 32.899 22.434C32.899 21.55 32.185 20.834 31.302 20.834ZM20.11 21.389C20.0813 21.3908 20.0545 21.4035 20.0349 21.4245C20.0154 21.4455 20.0047 21.4733 20.005 21.502C20.005 21.564 20.055 21.614 20.118 21.613C20.1478 21.6119 20.176 21.599 20.1963 21.5772C20.2167 21.5553 20.2275 21.5263 20.2265 21.4965C20.2254 21.4666 20.2125 21.4384 20.1907 21.4181C20.1688 21.3977 20.1398 21.3869 20.11 21.388V21.389ZM27.36 21.389C27.3313 21.3908 27.3045 21.4035 27.2849 21.4245C27.2654 21.4455 27.2547 21.4733 27.255 21.502C27.255 21.564 27.305 21.614 27.368 21.613C27.3978 21.6119 27.426 21.599 27.4463 21.5772C27.4667 21.5553 27.4775 21.5263 27.4765 21.4965C27.4754 21.4666 27.4625 21.4384 27.4407 21.4181C27.4188 21.3977 27.3898 21.3869 27.36 21.388V21.389ZM20.11 21.951C20.0953 21.9519 20.0809 21.9557 20.0676 21.9622C20.0544 21.9686 20.0426 21.9777 20.0328 21.9887C20.0231 21.9998 20.0156 22.0126 20.0108 22.0266C20.006 22.0405 20.004 22.0553 20.005 22.07C20.0059 22.0847 20.0097 22.0991 20.0162 22.1123C20.0227 22.1255 20.0317 22.1374 20.0427 22.1471C20.0538 22.1569 20.0666 22.1643 20.0806 22.1691C20.0945 22.1739 20.1093 22.1759 20.124 22.175C20.1537 22.1731 20.1814 22.1595 20.2011 22.1372C20.2208 22.1149 20.2308 22.0857 20.229 22.056C20.2271 22.0263 20.2135 21.9985 20.1912 21.9788C20.1689 21.9591 20.1397 21.9491 20.11 21.951ZM27.36 21.951C27.3453 21.9519 27.3309 21.9557 27.3176 21.9622C27.3044 21.9686 27.2926 21.9777 27.2828 21.9887C27.2731 21.9998 27.2656 22.0126 27.2608 22.0266C27.256 22.0405 27.254 22.0553 27.255 22.07C27.2559 22.0847 27.2597 22.0991 27.2662 22.1123C27.2727 22.1255 27.2817 22.1374 27.2927 22.1471C27.3038 22.1569 27.3166 22.1643 27.3306 22.1691C27.3445 22.1739 27.3593 22.1759 27.374 22.175C27.4037 22.1731 27.4314 22.1595 27.4511 22.1372C27.4708 22.1149 27.4808 22.0857 27.479 22.056C27.4771 22.0263 27.4635 21.9985 27.4412 21.9788C27.4189 21.9591 27.3897 21.9491 27.36 21.951ZM20.11 22.514C20.0953 22.5149 20.0809 22.5187 20.0676 22.5252C20.0544 22.5316 20.0426 22.5407 20.0328 22.5517C20.0231 22.5628 20.0156 22.5756 20.0108 22.5896C20.006 22.6035 20.004 22.6183 20.005 22.633C20.0059 22.6477 20.0097 22.6621 20.0162 22.6753C20.0227 22.6885 20.0317 22.7004 20.0427 22.7101C20.0538 22.7199 20.0666 22.7273 20.0806 22.7321C20.0945 22.7369 20.1093 22.7389 20.124 22.738C20.1537 22.7361 20.1814 22.7225 20.2011 22.7002C20.2208 22.6779 20.2308 22.6487 20.229 22.619C20.2271 22.5893 20.2135 22.5615 20.1912 22.5418C20.1689 22.5221 20.1397 22.5121 20.11 22.514ZM27.36 22.514C27.3453 22.5149 27.3309 22.5187 27.3176 22.5252C27.3044 22.5316 27.2926 22.5407 27.2828 22.5517C27.2731 22.5628 27.2656 22.5756 27.2608 22.5896C27.256 22.6035 27.254 22.6183 27.255 22.633C27.2559 22.6477 27.2597 22.6621 27.2662 22.6753C27.2727 22.6885 27.2817 22.7004 27.2927 22.7101C27.3038 22.7199 27.3166 22.7273 27.3306 22.7321C27.3445 22.7369 27.3593 22.7389 27.374 22.738C27.4037 22.7361 27.4314 22.7225 27.4511 22.7002C27.4708 22.6779 27.4808 22.6487 27.479 22.619C27.4771 22.5893 27.4635 22.5615 27.4412 22.5418C27.4189 22.5221 27.3897 22.5121 27.36 22.514ZM23.741 22.77C22.858 22.77 22.143 23.485 22.143 24.37C22.143 24.794 22.3114 25.2008 22.6113 25.5006C22.9112 25.8005 23.3179 25.969 23.742 25.969C24.1661 25.969 24.5728 25.8005 24.8726 25.5006C25.1725 25.2008 25.341 24.794 25.341 24.37C25.341 24.1598 25.2996 23.9518 25.2192 23.7577C25.1388 23.5635 25.0209 23.3872 24.8723 23.2386C24.7238 23.09 24.5474 22.9722 24.3533 22.8918C24.1591 22.8113 23.9511 22.77 23.741 22.77ZM20.111 23.076C20.0813 23.0777 20.0535 23.0911 20.0337 23.1134C20.0239 23.1244 20.0163 23.1372 20.0115 23.1511C20.0067 23.165 20.0046 23.1798 20.0055 23.1945C20.0063 23.2092 20.0101 23.2236 20.0165 23.2368C20.0229 23.2501 20.0319 23.262 20.0429 23.2718C20.0651 23.2915 20.0943 23.3017 20.124 23.3C20.1537 23.2981 20.1814 23.2845 20.2011 23.2622C20.2208 23.2399 20.2308 23.2107 20.229 23.181C20.2271 23.1513 20.2135 23.1235 20.1912 23.1038C20.1689 23.0841 20.1397 23.0741 20.11 23.076H20.111ZM27.361 23.076C27.3313 23.0777 27.3035 23.0911 27.2837 23.1134C27.2639 23.1356 27.2537 23.1648 27.2555 23.1945C27.2572 23.2242 27.2706 23.252 27.2929 23.2718C27.3151 23.2915 27.3443 23.3017 27.374 23.3C27.4037 23.2981 27.4314 23.2845 27.4511 23.2622C27.4708 23.2399 27.4808 23.2107 27.479 23.181C27.4771 23.1513 27.4635 23.1235 27.4412 23.1038C27.4189 23.0841 27.3897 23.0741 27.36 23.076H27.361ZM20.099 23.639C20.0716 23.6441 20.0471 23.6591 20.0302 23.6812C20.0132 23.7033 20.005 23.7308 20.0071 23.7586C20.0092 23.7863 20.0215 23.8123 20.0416 23.8316C20.0617 23.8509 20.0882 23.862 20.116 23.863C20.1457 23.863 20.1742 23.8512 20.1952 23.8302C20.2162 23.8092 20.228 23.7807 20.228 23.751C20.228 23.7213 20.2162 23.6928 20.1952 23.6718C20.1742 23.6508 20.1457 23.639 20.116 23.639H20.099ZM27.349 23.639C27.3216 23.6441 27.2971 23.6591 27.2802 23.6812C27.2632 23.7033 27.255 23.7308 27.2571 23.7586C27.2592 23.7863 27.2715 23.8123 27.2916 23.8316C27.3117 23.8509 27.3382 23.862 27.366 23.863C27.3957 23.863 27.4242 23.8512 27.4452 23.8302C27.4662 23.8092 27.478 23.7807 27.478 23.751C27.478 23.7213 27.4662 23.6928 27.4452 23.6718C27.4242 23.6508 27.3957 23.639 27.366 23.639H27.349ZM20.099 24.201C20.0705 24.2047 20.0445 24.2192 20.0264 24.2416C20.0083 24.2639 19.9995 24.2924 20.0019 24.321C20.0042 24.3497 20.0174 24.3763 20.0388 24.3955C20.0603 24.4147 20.0882 24.4249 20.117 24.424C20.177 24.424 20.227 24.374 20.227 24.313C20.227 24.251 20.177 24.202 20.117 24.201H20.097H20.099ZM27.349 24.201C27.3205 24.2047 27.2945 24.2192 27.2764 24.2416C27.2583 24.2639 27.2495 24.2924 27.2519 24.321C27.2542 24.3497 27.2674 24.3763 27.2888 24.3955C27.3103 24.4147 27.3382 24.4249 27.367 24.424C27.427 24.424 27.477 24.374 27.477 24.313C27.477 24.251 27.427 24.202 27.367 24.201H27.347H27.349ZM16.539 24.67C16.1244 24.6846 15.7317 24.8596 15.4436 25.1581C15.1555 25.4565 14.9945 25.8551 14.9945 26.27C14.9945 26.6848 15.1555 27.0834 15.4436 27.3819C15.7317 27.6803 16.1244 27.8553 16.539 27.87C17.422 27.87 18.136 27.153 18.136 26.27C18.136 25.386 17.422 24.67 16.538 24.67H16.539ZM31.302 24.67C30.418 24.67 29.7 25.386 29.7 26.27C29.7 27.153 30.418 27.87 31.302 27.87C32.185 27.87 32.899 27.153 32.899 26.27C32.899 25.386 32.185 24.67 31.302 24.67ZM20.11 24.762C20.0813 24.7638 20.0545 24.7765 20.0349 24.7975C20.0154 24.8185 20.0047 24.8463 20.005 24.875C20.005 24.937 20.055 24.987 20.118 24.986C20.1478 24.9849 20.176 24.972 20.1963 24.9502C20.2167 24.9283 20.2275 24.8993 20.2265 24.8695C20.2254 24.8396 20.2125 24.8114 20.1907 24.7911C20.1688 24.7707 20.1398 24.7599 20.11 24.761V24.762ZM27.36 24.762C27.3313 24.7638 27.3045 24.7765 27.2849 24.7975C27.2654 24.8185 27.2547 24.8463 27.255 24.875C27.255 24.937 27.305 24.987 27.368 24.986C27.429 24.986 27.479 24.936 27.479 24.875C27.4791 24.8596 27.4761 24.8443 27.4701 24.8301C27.4641 24.8159 27.4553 24.8031 27.4441 24.7925C27.4329 24.7819 27.4197 24.7737 27.4052 24.7685C27.3907 24.7632 27.3753 24.761 27.36 24.762ZM20.11 25.324C20.0813 25.3258 20.0545 25.3385 20.0349 25.3595C20.0154 25.3805 20.0047 25.4083 20.005 25.437C20.005 25.5 20.055 25.55 20.118 25.549C20.1478 25.5479 20.176 25.535 20.1963 25.5132C20.2167 25.4913 20.2275 25.4623 20.2265 25.4325C20.2254 25.4026 20.2125 25.3744 20.1907 25.3541C20.1688 25.3337 20.1398 25.3229 20.11 25.324ZM27.36 25.324C27.3313 25.3258 27.3045 25.3385 27.2849 25.3595C27.2654 25.3805 27.2547 25.4083 27.255 25.437C27.255 25.5 27.305 25.55 27.368 25.549C27.429 25.549 27.479 25.499 27.479 25.438C27.4793 25.4225 27.4764 25.4071 27.4704 25.3928C27.4645 25.3785 27.4557 25.3656 27.4445 25.3549C27.4333 25.3442 27.42 25.3359 27.4055 25.3306C27.3909 25.3252 27.3754 25.323 27.36 25.324ZM20.11 25.887C20.0813 25.8888 20.0545 25.9015 20.0349 25.9225C20.0154 25.9435 20.0047 25.9713 20.005 26C20.005 26.062 20.055 26.112 20.118 26.111C20.1327 26.1104 20.1473 26.107 20.1607 26.1009C20.1742 26.0947 20.1863 26.086 20.1963 26.0752C20.2064 26.0644 20.2143 26.0517 20.2194 26.0378C20.2246 26.024 20.227 26.0092 20.2265 25.9945C20.2259 25.9797 20.2225 25.9652 20.2164 25.9517C20.2102 25.9383 20.2015 25.9262 20.1907 25.9161C20.1799 25.906 20.1672 25.8982 20.1533 25.893C20.1395 25.8878 20.1247 25.8854 20.11 25.886V25.887ZM27.36 25.887C27.3313 25.8888 27.3045 25.9015 27.2849 25.9225C27.2654 25.9435 27.2547 25.9713 27.255 26C27.255 26.062 27.305 26.112 27.368 26.111C27.429 26.111 27.479 26.062 27.479 26C27.4791 25.9846 27.4761 25.9693 27.4701 25.9551C27.4641 25.9409 27.4553 25.9281 27.4441 25.9175C27.4329 25.9069 27.4197 25.8987 27.4052 25.8935C27.3907 25.8882 27.3753 25.886 27.36 25.887ZM20.11 26.449C20.0952 26.4499 20.0807 26.4537 20.0674 26.4602C20.0542 26.4667 20.0423 26.4758 20.0325 26.4869C20.0227 26.498 20.0152 26.5109 20.0104 26.5249C20.0056 26.5389 20.0035 26.5537 20.0045 26.5685C20.0054 26.5832 20.0092 26.5977 20.0157 26.611C20.0222 26.6243 20.0313 26.6362 20.0424 26.646C20.0535 26.6558 20.0664 26.6633 20.0804 26.6681C20.0944 26.6729 20.1092 26.6749 20.124 26.674C20.1538 26.6721 20.1817 26.6585 20.2015 26.6361C20.2213 26.6137 20.2313 26.5843 20.2295 26.5545C20.2276 26.5246 20.214 26.4967 20.1916 26.477C20.1692 26.4572 20.1398 26.4471 20.11 26.449ZM27.36 26.449C27.3452 26.4499 27.3307 26.4537 27.3174 26.4602C27.3042 26.4667 27.2923 26.4758 27.2825 26.4869C27.2727 26.498 27.2652 26.5109 27.2604 26.5249C27.2556 26.5389 27.2535 26.5537 27.2545 26.5685C27.2554 26.5832 27.2592 26.5977 27.2657 26.611C27.2722 26.6243 27.2813 26.6362 27.2924 26.646C27.3035 26.6558 27.3164 26.6633 27.3304 26.6681C27.3444 26.6729 27.3592 26.6749 27.374 26.674C27.4038 26.6721 27.4317 26.6585 27.4515 26.6361C27.4713 26.6137 27.4813 26.5843 27.4795 26.5545C27.4776 26.5246 27.464 26.4967 27.4416 26.477C27.4192 26.4572 27.3898 26.4471 27.36 26.449ZM23.741 26.605C22.858 26.605 22.143 27.321 22.143 28.205C22.143 28.629 22.3114 29.0358 22.6113 29.3356C22.9112 29.6355 23.3179 29.804 23.742 29.804C24.1661 29.804 24.5728 29.6355 24.8726 29.3356C25.1725 29.0358 25.341 28.629 25.341 28.205C25.341 27.9948 25.2996 27.7868 25.2192 27.5927C25.1388 27.3986 25.0209 27.2222 24.8723 27.0736C24.7238 26.925 24.5474 26.8072 24.3533 26.7268C24.1591 26.6463 23.9511 26.605 23.741 26.605ZM20.111 27.012C20.0963 27.0128 20.0819 27.0166 20.0686 27.023C20.0553 27.0294 20.0435 27.0384 20.0337 27.0494C20.0239 27.0604 20.0163 27.0732 20.0115 27.0871C20.0067 27.101 20.0046 27.1158 20.0055 27.1305C20.0063 27.1452 20.0101 27.1596 20.0165 27.1728C20.0229 27.1861 20.0319 27.198 20.0429 27.2078C20.0539 27.2176 20.0667 27.2251 20.0806 27.2299C20.0945 27.2348 20.1093 27.2368 20.124 27.236C20.1537 27.2341 20.1814 27.2205 20.2011 27.1982C20.2208 27.1759 20.2308 27.1467 20.229 27.117C20.2271 27.0873 20.2135 27.0595 20.1912 27.0398C20.1689 27.0201 20.1397 27.0101 20.11 27.012H20.111ZM27.361 27.012C27.3463 27.0128 27.3319 27.0166 27.3186 27.023C27.3053 27.0294 27.2935 27.0384 27.2837 27.0494C27.2739 27.0604 27.2663 27.0732 27.2615 27.0871C27.2567 27.101 27.2546 27.1158 27.2555 27.1305C27.2563 27.1452 27.2601 27.1596 27.2665 27.1728C27.2729 27.1861 27.2819 27.198 27.2929 27.2078C27.3039 27.2176 27.3167 27.2251 27.3306 27.2299C27.3445 27.2348 27.3593 27.2368 27.374 27.236C27.4037 27.2341 27.4314 27.2205 27.4511 27.1982C27.4708 27.1759 27.4808 27.1467 27.479 27.117C27.4771 27.0873 27.4635 27.0595 27.4412 27.0398C27.4189 27.0201 27.3897 27.0101 27.36 27.012H27.361ZM20.111 27.574C20.0811 27.5757 20.0532 27.5892 20.0333 27.6115C20.0235 27.6226 20.0159 27.6354 20.011 27.6494C20.0062 27.6634 20.0041 27.6782 20.005 27.693C20.0058 27.7077 20.0096 27.7222 20.016 27.7355C20.0225 27.7488 20.0315 27.7608 20.0425 27.7706C20.0648 27.7905 20.0941 27.8007 20.124 27.799C20.1538 27.7971 20.1817 27.7835 20.2015 27.7611C20.2213 27.7387 20.2313 27.7093 20.2295 27.6795C20.2276 27.6496 20.214 27.6217 20.1916 27.602C20.1692 27.5822 20.1398 27.5721 20.11 27.574H20.111ZM27.361 27.574C27.3311 27.5757 27.3032 27.5892 27.2833 27.6115C27.2735 27.6226 27.2659 27.6354 27.261 27.6494C27.2562 27.6634 27.2541 27.6782 27.255 27.693C27.2558 27.7077 27.2596 27.7222 27.266 27.7355C27.2725 27.7488 27.2815 27.7608 27.2925 27.7706C27.3148 27.7905 27.3441 27.8007 27.374 27.799C27.3887 27.798 27.4032 27.7942 27.4165 27.7877C27.4298 27.7812 27.4417 27.7722 27.4515 27.7611C27.4613 27.75 27.4688 27.7371 27.4736 27.723C27.4784 27.709 27.4804 27.6942 27.4795 27.6795C27.4785 27.6647 27.4747 27.6502 27.4682 27.6369C27.4617 27.6236 27.4527 27.6118 27.4416 27.602C27.4305 27.5922 27.4176 27.5847 27.4036 27.5798C27.3896 27.575 27.3747 27.573 27.36 27.574H27.361ZM20.099 28.137C20.0778 28.1402 20.058 28.1495 20.0419 28.1636C20.0259 28.1778 20.0142 28.1962 20.0083 28.2168C20.0024 28.2374 20.0025 28.2592 20.0087 28.2798C20.0148 28.3003 20.0267 28.3186 20.0429 28.3326C20.0592 28.3465 20.079 28.3556 20.1002 28.3586C20.1214 28.3616 20.1431 28.3584 20.1625 28.3495C20.182 28.3406 20.1985 28.3263 20.2101 28.3083C20.2217 28.2903 20.2279 28.2694 20.228 28.248C20.227 28.187 20.178 28.138 20.116 28.137H20.099ZM27.349 28.137C27.3205 28.1407 27.2945 28.1552 27.2764 28.1776C27.2583 28.1999 27.2495 28.2284 27.2519 28.257C27.2542 28.2857 27.2674 28.3123 27.2888 28.3315C27.3103 28.3507 27.3382 28.3609 27.367 28.36C27.427 28.359 27.477 28.31 27.477 28.248C27.477 28.187 27.427 28.138 27.367 28.137H27.347H27.349ZM16.539 28.504C16.1214 28.5144 15.7245 28.6876 15.4328 28.9866C15.1412 29.2856 14.978 29.6868 14.978 30.1045C14.978 30.5221 15.1412 30.9233 15.4328 31.2223C15.7245 31.5213 16.1214 31.6945 16.539 31.705C17.422 31.705 18.136 30.989 18.136 30.105C18.1362 29.6808 17.9681 29.2739 17.6684 28.9737C17.3687 28.6734 16.9621 28.5045 16.538 28.504H16.539ZM31.302 28.504C30.8844 28.5144 30.4875 28.6876 30.1958 28.9866C29.9042 29.2856 29.741 29.6868 29.741 30.1045C29.741 30.5221 29.9042 30.9233 30.1958 31.2223C30.4875 31.5213 30.8844 31.6945 31.302 31.705C32.185 31.705 32.899 30.989 32.899 30.105C32.8992 29.681 32.7312 29.2742 32.4318 28.974C32.1323 28.6738 31.726 28.5048 31.302 28.504ZM20.118 28.697C20.1031 28.6968 20.0884 28.6997 20.0746 28.7054C20.0609 28.7111 20.0485 28.7196 20.0381 28.7302C20.0277 28.7409 20.0196 28.7535 20.0143 28.7674C20.0089 28.7813 20.0064 28.7961 20.007 28.811C20.007 28.8255 20.0098 28.8399 20.0154 28.8533C20.021 28.8667 20.0292 28.8789 20.0395 28.8891C20.0499 28.8993 20.0621 28.9074 20.0756 28.9129C20.089 28.9183 20.1034 28.9211 20.118 28.921C20.179 28.921 20.231 28.872 20.231 28.811C20.231 28.7809 20.2191 28.7521 20.1979 28.7307C20.1768 28.7094 20.148 28.6972 20.118 28.697ZM27.368 28.697C27.3531 28.6968 27.3384 28.6997 27.3246 28.7054C27.3109 28.7111 27.2985 28.7196 27.2881 28.7302C27.2777 28.7409 27.2696 28.7535 27.2643 28.7674C27.2589 28.7813 27.2564 28.7961 27.257 28.811C27.257 28.8255 27.2598 28.8399 27.2654 28.8533C27.271 28.8667 27.2792 28.8789 27.2895 28.8891C27.2999 28.8993 27.3121 28.9074 27.3256 28.9129C27.339 28.9183 27.3534 28.9211 27.368 28.921C27.429 28.921 27.481 28.872 27.481 28.811C27.481 28.7809 27.4691 28.7521 27.4479 28.7307C27.4268 28.7094 27.398 28.6972 27.368 28.697ZM20.11 29.26C20.0813 29.2618 20.0545 29.2745 20.0349 29.2955C20.0154 29.3165 20.0047 29.3443 20.005 29.373C20.005 29.435 20.055 29.485 20.118 29.484C20.1327 29.4834 20.1473 29.48 20.1607 29.4739C20.1742 29.4677 20.1863 29.459 20.1963 29.4482C20.2064 29.4374 20.2143 29.4247 20.2194 29.4108C20.2246 29.397 20.227 29.3822 20.2265 29.3675C20.2259 29.3527 20.2225 29.3382 20.2164 29.3247C20.2102 29.3113 20.2015 29.2992 20.1907 29.2891C20.1799 29.279 20.1672 29.2712 20.1533 29.266C20.1395 29.2608 20.1247 29.2584 20.11 29.259V29.26ZM27.36 29.26C27.3313 29.2618 27.3045 29.2745 27.2849 29.2955C27.2654 29.3165 27.2547 29.3443 27.255 29.373C27.255 29.435 27.305 29.485 27.368 29.484C27.3827 29.4834 27.3973 29.48 27.4107 29.4739C27.4242 29.4677 27.4363 29.459 27.4463 29.4482C27.4564 29.4374 27.4643 29.4247 27.4694 29.4108C27.4746 29.397 27.477 29.3822 27.4765 29.3675C27.4759 29.3527 27.4725 29.3382 27.4664 29.3247C27.4602 29.3113 27.4515 29.2992 27.4407 29.2891C27.4299 29.279 27.4172 29.2712 27.4033 29.266C27.3895 29.2608 27.3747 29.2584 27.36 29.259V29.26ZM20.11 29.822C20.0806 29.823 20.0529 29.8355 20.0327 29.8568C20.0125 29.8782 20.0015 29.9065 20.002 29.9359C20.0025 29.9652 20.0145 29.9932 20.0355 30.0138C20.0564 30.0344 20.0846 30.0459 20.114 30.0459C20.1433 30.0459 20.1715 30.0344 20.1925 30.0138C20.2134 29.9932 20.2254 29.9652 20.226 29.9359C20.2265 29.9065 20.2155 29.8782 20.1953 29.8568C20.1751 29.8355 20.1473 29.823 20.118 29.822C20.1153 29.8219 20.1126 29.8219 20.11 29.822ZM27.36 29.822C27.3306 29.823 27.3029 29.8355 27.2827 29.8568C27.2625 29.8782 27.2515 29.9065 27.252 29.9359C27.2525 29.9652 27.2645 29.9932 27.2855 30.0138C27.3064 30.0344 27.3346 30.0459 27.364 30.0459C27.3933 30.0459 27.4215 30.0344 27.4425 30.0138C27.4634 29.9932 27.4754 29.9652 27.476 29.9359C27.4765 29.9065 27.4655 29.8782 27.4453 29.8568C27.4251 29.8355 27.3973 29.823 27.368 29.822C27.3653 29.8219 27.3626 29.8219 27.36 29.822ZM20.11 30.385C20.0813 30.3868 20.0545 30.3995 20.0349 30.4205C20.0154 30.4415 20.0047 30.4693 20.005 30.498C20.005 30.56 20.055 30.61 20.118 30.609C20.1327 30.6084 20.1471 30.605 20.1605 30.5989C20.1739 30.5928 20.186 30.5841 20.196 30.5733C20.206 30.5626 20.2138 30.5499 20.219 30.5361C20.2241 30.5223 20.2265 30.5077 20.226 30.493C20.2254 30.4783 20.222 30.4638 20.2159 30.4504C20.2098 30.437 20.2011 30.425 20.1903 30.4149C20.1796 30.4049 20.1669 30.3971 20.1531 30.392C20.1393 30.3868 20.1247 30.3844 20.11 30.385ZM27.36 30.385C27.3313 30.3868 27.3045 30.3995 27.2849 30.4205C27.2654 30.4415 27.2547 30.4693 27.255 30.498C27.255 30.56 27.305 30.61 27.368 30.609C27.3827 30.6084 27.3971 30.605 27.4105 30.5989C27.4239 30.5928 27.436 30.5841 27.446 30.5733C27.456 30.5626 27.4638 30.5499 27.469 30.5361C27.4741 30.5223 27.4765 30.5077 27.476 30.493C27.4754 30.4783 27.472 30.4638 27.4659 30.4504C27.4598 30.437 27.4511 30.425 27.4403 30.4149C27.4296 30.4049 27.4169 30.3971 27.4031 30.392C27.3893 30.3868 27.3747 30.3844 27.36 30.385ZM23.741 30.439C23.5309 30.4392 23.3228 30.4809 23.1288 30.5615C22.9348 30.6422 22.7586 30.7602 22.6102 30.909C22.4618 31.0578 22.3442 31.2343 22.264 31.4285C22.1838 31.6227 22.1427 31.8308 22.143 32.041C22.143 32.465 22.3114 32.8718 22.6113 33.1716C22.9112 33.4715 23.3179 33.64 23.742 33.64C24.1661 33.64 24.5728 33.4715 24.8726 33.1716C25.1725 32.8718 25.341 32.465 25.341 32.041C25.341 31.157 24.625 30.44 23.741 30.44V30.439ZM20.111 30.945C20.0821 30.947 20.0552 30.9599 20.0355 30.9811C20.0158 31.0022 20.0049 31.0301 20.005 31.059C20.0028 31.0749 20.0041 31.0912 20.0088 31.1066C20.0134 31.122 20.0213 31.1363 20.0319 31.1484C20.0425 31.1605 20.0556 31.1702 20.0703 31.1769C20.0849 31.1835 20.1009 31.187 20.117 31.187C20.1331 31.187 20.149 31.1835 20.1637 31.1769C20.1783 31.1702 20.1914 31.1605 20.202 31.1484C20.2126 31.1363 20.2205 31.122 20.2252 31.1066C20.2298 31.0912 20.2311 31.0749 20.229 31.059C20.229 31.0436 20.2259 31.0283 20.2198 31.0142C20.2138 31 20.205 30.9872 20.1938 30.9765C20.1827 30.9659 20.1695 30.9576 20.1551 30.9522C20.1407 30.9467 20.1254 30.9443 20.11 30.945H20.111ZM27.361 30.945C27.3321 30.947 27.3052 30.9599 27.2855 30.9811C27.2658 31.0022 27.2549 31.0301 27.255 31.059C27.2528 31.0749 27.2541 31.0912 27.2588 31.1066C27.2634 31.122 27.2713 31.1363 27.2819 31.1484C27.2925 31.1605 27.3056 31.1702 27.3203 31.1769C27.3349 31.1835 27.3509 31.187 27.367 31.187C27.3831 31.187 27.399 31.1835 27.4137 31.1769C27.4283 31.1702 27.4414 31.1605 27.452 31.1484C27.4626 31.1363 27.4705 31.122 27.4752 31.1066C27.4798 31.0912 27.4811 31.0749 27.479 31.059C27.479 31.0436 27.4759 31.0283 27.4698 31.0142C27.4638 31 27.455 30.9872 27.4438 30.9765C27.4327 30.9659 27.4195 30.9576 27.4051 30.9522C27.3907 30.9467 27.3754 30.9443 27.36 30.945H27.361ZM20.111 31.508C20.0839 31.5124 20.0593 31.5265 20.0419 31.5476C20.0244 31.5688 20.0152 31.5956 20.0161 31.623C20.017 31.6505 20.0278 31.6766 20.0465 31.6967C20.0653 31.7167 20.0907 31.7293 20.118 31.732C20.1327 31.7314 20.1471 31.728 20.1605 31.7219C20.1739 31.7158 20.186 31.7071 20.196 31.6963C20.206 31.6856 20.2138 31.6729 20.219 31.6591C20.2241 31.6453 20.2265 31.6307 20.226 31.616C20.2254 31.6013 20.222 31.5868 20.2159 31.5734C20.2098 31.56 20.2011 31.548 20.1903 31.5379C20.1796 31.5279 20.1669 31.5201 20.1531 31.515C20.1393 31.5098 20.1247 31.5074 20.11 31.508H20.111ZM27.361 31.508C27.3339 31.5124 27.3093 31.5265 27.2919 31.5476C27.2744 31.5688 27.2652 31.5956 27.2661 31.623C27.267 31.6505 27.2778 31.6766 27.2965 31.6967C27.3153 31.7167 27.3407 31.7293 27.368 31.732C27.3827 31.7314 27.3971 31.728 27.4105 31.7219C27.4239 31.7158 27.436 31.7071 27.446 31.6963C27.456 31.6856 27.4638 31.6729 27.469 31.6591C27.4741 31.6453 27.4765 31.6307 27.476 31.616C27.4754 31.6013 27.472 31.5868 27.4659 31.5734C27.4598 31.56 27.4511 31.548 27.4403 31.5379C27.4296 31.5279 27.4169 31.5201 27.4031 31.515C27.3893 31.5098 27.3747 31.5074 27.36 31.508H27.361ZM20.099 32.07C20.0704 32.0738 20.0443 32.0884 20.0261 32.1108C20.0079 32.1332 19.999 32.1617 20.0011 32.1905C20.0033 32.2193 20.0164 32.2461 20.0378 32.2656C20.0591 32.285 20.0871 32.2955 20.116 32.295C20.1458 32.295 20.1744 32.2831 20.1955 32.262C20.2166 32.2409 20.2285 32.2123 20.2285 32.1825C20.2285 32.1526 20.2166 32.124 20.1955 32.1029C20.1744 32.0818 20.1458 32.07 20.116 32.07H20.099ZM27.349 32.07C27.3204 32.0738 27.2943 32.0884 27.2761 32.1108C27.2579 32.1332 27.249 32.1617 27.2511 32.1905C27.2533 32.2193 27.2664 32.2461 27.2878 32.2656C27.3091 32.285 27.3371 32.2955 27.366 32.295C27.3958 32.295 27.4244 32.2831 27.4455 32.262C27.4666 32.2409 27.4785 32.2123 27.4785 32.1825C27.4785 32.1526 27.4666 32.124 27.4455 32.1029C27.4244 32.0818 27.3958 32.07 27.366 32.07H27.349ZM16.539 32.342C16.1244 32.3566 15.7317 32.5316 15.4436 32.8301C15.1555 33.1285 14.9945 33.5271 14.9945 33.942C14.9945 34.3568 15.1555 34.7554 15.4436 35.0539C15.7317 35.3523 16.1244 35.5273 16.539 35.542C17.422 35.541 18.136 34.825 18.136 33.942C18.136 33.058 17.422 32.342 16.538 32.342H16.539ZM31.302 32.342C30.418 32.342 29.7 33.058 29.7 33.942C29.7 34.825 30.418 35.541 31.302 35.541C32.185 35.541 32.899 34.825 32.899 33.941C32.899 33.058 32.185 32.341 31.302 32.341V32.342ZM20.099 32.632C20.0722 32.636 20.0478 32.6496 20.0302 32.6701C20.0126 32.6907 20.0029 32.7169 20.003 32.744C20.003 32.7738 20.0148 32.8024 20.0359 32.8235C20.057 32.8446 20.0856 32.8565 20.1155 32.8565C20.1453 32.8565 20.1739 32.8446 20.195 32.8235C20.2161 32.8024 20.228 32.7738 20.228 32.744C20.2277 32.7144 20.2158 32.6862 20.1948 32.6654C20.1738 32.6446 20.1455 32.633 20.116 32.633H20.099V32.632ZM27.349 32.632C27.3222 32.636 27.2978 32.6496 27.2802 32.6701C27.2626 32.6907 27.2529 32.7169 27.253 32.744C27.253 32.7738 27.2648 32.8024 27.2859 32.8235C27.307 32.8446 27.3356 32.8565 27.3655 32.8565C27.3953 32.8565 27.4239 32.8446 27.445 32.8235C27.4661 32.8024 27.478 32.7738 27.478 32.744C27.4777 32.7144 27.4658 32.6862 27.4448 32.6654C27.4238 32.6446 27.3955 32.633 27.366 32.633H27.349V32.632ZM20.119 33.193C20.1039 33.193 20.089 33.196 20.0752 33.2019C20.0613 33.2077 20.0488 33.2163 20.0383 33.2272C20.0279 33.238 20.0197 33.2508 20.0143 33.2649C20.0089 33.2789 20.0064 33.2939 20.007 33.309C20.007 33.371 20.056 33.419 20.118 33.418C20.1475 33.4182 20.1759 33.4068 20.1971 33.3862C20.2183 33.3656 20.2304 33.3375 20.231 33.308C20.231 33.2778 20.2191 33.2489 20.198 33.2273C20.1769 33.2058 20.1481 33.1935 20.118 33.193H20.119ZM27.369 33.193C27.3539 33.193 27.339 33.196 27.3252 33.2019C27.3113 33.2077 27.2988 33.2163 27.2883 33.2272C27.2779 33.238 27.2697 33.2508 27.2643 33.2649C27.2589 33.2789 27.2564 33.2939 27.257 33.309C27.257 33.371 27.306 33.419 27.368 33.418C27.3975 33.4182 27.4259 33.4068 27.4471 33.3862C27.4683 33.3656 27.4804 33.3375 27.481 33.308C27.4807 33.2779 27.4688 33.2491 27.4477 33.2276C27.4266 33.2062 27.398 33.1937 27.368 33.193H27.369ZM20.11 33.756C20.0813 33.7578 20.0545 33.7705 20.0349 33.7915C20.0154 33.8125 20.0047 33.8403 20.005 33.869C20.005 33.931 20.055 33.982 20.118 33.98C20.179 33.98 20.229 33.93 20.229 33.87C20.2293 33.8545 20.2264 33.8391 20.2204 33.8248C20.2145 33.8105 20.2057 33.7976 20.1945 33.7869C20.1833 33.7762 20.17 33.7679 20.1555 33.7626C20.1409 33.7572 20.1254 33.755 20.11 33.756ZM27.36 33.756C27.3313 33.7578 27.3045 33.7705 27.2849 33.7915C27.2654 33.8125 27.2547 33.8403 27.255 33.869C27.255 33.931 27.305 33.982 27.368 33.98C27.3977 33.98 27.4262 33.9682 27.4472 33.9472C27.4682 33.9262 27.48 33.8977 27.48 33.868C27.48 33.8383 27.4682 33.8098 27.4472 33.7888C27.4262 33.7678 27.3977 33.756 27.368 33.756C27.3653 33.7559 27.3626 33.7559 27.36 33.756ZM23.741 34.277C22.858 34.277 22.143 34.993 22.143 35.877C22.143 36.301 22.3114 36.7078 22.6113 37.0076C22.9112 37.3075 23.3179 37.476 23.742 37.476C24.1661 37.476 24.5728 37.3075 24.8726 37.0076C25.1725 36.7078 25.341 36.301 25.341 35.877C25.341 35.6668 25.2996 35.4588 25.2192 35.2647C25.1388 35.0705 25.0209 34.8942 24.8723 34.7456C24.7238 34.597 24.5474 34.4792 24.3533 34.3988C24.1591 34.3183 23.9511 34.277 23.741 34.277ZM20.111 34.318C20.0816 34.319 20.0539 34.3315 20.0337 34.3528C20.0135 34.3742 20.0025 34.4025 20.003 34.4319C20.0035 34.4612 20.0155 34.4892 20.0365 34.5098C20.0574 34.5304 20.0856 34.5419 20.115 34.5419C20.1443 34.5419 20.1725 34.5304 20.1935 34.5098C20.2144 34.4892 20.2264 34.4612 20.227 34.4319C20.2275 34.4025 20.2165 34.3742 20.1963 34.3528C20.1761 34.3315 20.1483 34.319 20.119 34.318C20.116 34.3177 20.113 34.3177 20.11 34.318H20.111ZM27.361 34.318C27.3316 34.319 27.3039 34.3315 27.2837 34.3528C27.2635 34.3742 27.2525 34.4025 27.253 34.4319C27.2535 34.4612 27.2655 34.4892 27.2865 34.5098C27.3074 34.5304 27.3356 34.5419 27.365 34.5419C27.3943 34.5419 27.4225 34.5304 27.4435 34.5098C27.4644 34.4892 27.4764 34.4612 27.477 34.4319C27.4775 34.4025 27.4665 34.3742 27.4463 34.3528C27.4261 34.3315 27.3983 34.319 27.369 34.318C27.366 34.3177 27.363 34.3177 27.36 34.318H27.361ZM20.111 34.881C20.0889 34.8823 20.0677 34.8902 20.05 34.9035C20.0323 34.9168 20.019 34.935 20.0115 34.9558C20.0041 34.9767 20.003 34.9992 20.0083 35.0207C20.0135 35.0422 20.025 35.0617 20.0413 35.0767C20.0575 35.0917 20.0778 35.1017 20.0996 35.1052C20.1215 35.1088 20.1439 35.1059 20.1641 35.0969C20.1843 35.0879 20.2014 35.0731 20.2133 35.0545C20.2252 35.0358 20.2313 35.0141 20.231 34.992C20.2309 34.9766 20.2276 34.9615 20.2214 34.9475C20.2153 34.9335 20.2063 34.9209 20.195 34.9105C20.1838 34.9001 20.1705 34.8921 20.1561 34.887C20.1416 34.8819 20.1263 34.8799 20.111 34.881ZM27.361 34.881C27.3389 34.8823 27.3177 34.8902 27.3 34.9035C27.2823 34.9168 27.269 34.935 27.2615 34.9558C27.2541 34.9767 27.253 34.9992 27.2583 35.0207C27.2635 35.0422 27.275 35.0617 27.2913 35.0767C27.3075 35.0917 27.3278 35.1017 27.3496 35.1052C27.3715 35.1088 27.3939 35.1059 27.4141 35.0969C27.4343 35.0879 27.4514 35.0731 27.4633 35.0545C27.4752 35.0358 27.4813 35.0141 27.481 34.992C27.4809 34.9766 27.4776 34.9615 27.4714 34.9475C27.4653 34.9335 27.4563 34.9209 27.445 34.9105C27.4338 34.9001 27.4205 34.8921 27.4061 34.887C27.3916 34.8819 27.3763 34.8799 27.361 34.881ZM20.111 35.443C20.0962 35.4438 20.0817 35.4476 20.0684 35.454C20.0551 35.4605 20.0432 35.4695 20.0333 35.4805C20.0235 35.4916 20.0159 35.5044 20.011 35.5184C20.0062 35.5324 20.0041 35.5472 20.005 35.562C20.0058 35.5767 20.0096 35.5912 20.016 35.6045C20.0225 35.6178 20.0315 35.6298 20.0425 35.6396C20.0536 35.6494 20.0664 35.657 20.0804 35.6619C20.0944 35.6667 20.1092 35.6688 20.124 35.668C20.1538 35.6661 20.1817 35.6525 20.2015 35.6301C20.2213 35.6077 20.2313 35.5783 20.2295 35.5485C20.2276 35.5186 20.214 35.4907 20.1916 35.471C20.1692 35.4512 20.1398 35.4411 20.11 35.443H20.111ZM27.361 35.443C27.3462 35.4438 27.3317 35.4476 27.3184 35.454C27.3051 35.4605 27.2932 35.4695 27.2833 35.4805C27.2735 35.4916 27.2659 35.5044 27.261 35.5184C27.2562 35.5324 27.2541 35.5472 27.255 35.562C27.2558 35.5767 27.2596 35.5912 27.266 35.6045C27.2725 35.6178 27.2815 35.6298 27.2925 35.6396C27.3036 35.6494 27.3164 35.657 27.3304 35.6619C27.3444 35.6667 27.3592 35.6688 27.374 35.668C27.4038 35.6661 27.4317 35.6525 27.4515 35.6301C27.4713 35.6077 27.4813 35.5783 27.4795 35.5485C27.4776 35.5186 27.464 35.4907 27.4416 35.471C27.4192 35.4512 27.3898 35.4411 27.36 35.443H27.361ZM20.111 36.006C20.0963 36.0068 20.0819 36.0106 20.0686 36.017C20.0553 36.0234 20.0435 36.0324 20.0337 36.0434C20.0239 36.0544 20.0163 36.0672 20.0115 36.0811C20.0067 36.095 20.0046 36.1098 20.0055 36.1245C20.0063 36.1392 20.0101 36.1536 20.0165 36.1668C20.0229 36.1801 20.0319 36.192 20.0429 36.2018C20.0539 36.2116 20.0667 36.2191 20.0806 36.2239C20.0945 36.2288 20.1093 36.2308 20.124 36.23C20.1537 36.2281 20.1814 36.2145 20.2011 36.1922C20.2208 36.1699 20.2308 36.1407 20.229 36.111C20.2271 36.0813 20.2135 36.0535 20.1912 36.0338C20.1689 36.0141 20.1397 36.0041 20.11 36.006H20.111ZM27.361 36.006C27.3463 36.0068 27.3319 36.0106 27.3186 36.017C27.3053 36.0234 27.2935 36.0324 27.2837 36.0434C27.2739 36.0544 27.2663 36.0672 27.2615 36.0811C27.2567 36.095 27.2546 36.1098 27.2555 36.1245C27.2563 36.1392 27.2601 36.1536 27.2665 36.1668C27.2729 36.1801 27.2819 36.192 27.2929 36.2018C27.3039 36.2116 27.3167 36.2191 27.3306 36.2239C27.3445 36.2288 27.3593 36.2308 27.374 36.23C27.4037 36.2281 27.4314 36.2145 27.4511 36.1922C27.4708 36.1699 27.4808 36.1407 27.479 36.111C27.4771 36.0813 27.4635 36.0535 27.4412 36.0338C27.4189 36.0141 27.3897 36.0041 27.36 36.006H27.361ZM31.29 36.092C30.8658 36.0904 30.4583 36.2573 30.1572 36.556C29.856 36.8547 29.6858 37.2608 29.684 37.685C29.684 38.566 30.404 39.281 31.29 39.281C32.176 39.281 32.895 38.566 32.895 37.685C32.8931 37.261 32.723 36.855 32.4221 36.5563C32.1212 36.2577 31.714 36.0906 31.29 36.092ZM16.618 36.18C15.732 36.18 15.013 36.895 15.013 37.775C15.0146 38.1991 15.1845 38.6053 15.4855 38.9042C15.7865 39.2031 16.1938 39.3703 16.618 39.369C16.8281 39.3698 17.0363 39.3291 17.2307 39.2495C17.4251 39.1698 17.602 39.0526 17.7511 38.9046C17.9002 38.7566 18.0187 38.5806 18.0999 38.3868C18.181 38.193 18.2232 37.9851 18.224 37.775C18.224 36.895 17.504 36.18 16.618 36.18ZM20.11 36.568C20.0801 36.5698 20.0523 36.5835 20.0325 36.6059C20.0127 36.6283 20.0026 36.6576 20.0045 36.6875C20.0063 36.7173 20.02 36.7452 20.0424 36.765C20.0648 36.7847 20.0941 36.7948 20.124 36.793C20.1387 36.792 20.1532 36.7882 20.1665 36.7817C20.1798 36.7752 20.1917 36.7662 20.2015 36.7551C20.2113 36.744 20.2188 36.731 20.2236 36.717C20.2284 36.703 20.2304 36.6882 20.2295 36.6735C20.2285 36.6587 20.2247 36.6442 20.2182 36.6309C20.2117 36.6176 20.2027 36.6058 20.1916 36.596C20.1805 36.5862 20.1676 36.5786 20.1536 36.5738C20.1396 36.569 20.1247 36.567 20.11 36.568ZM27.36 36.568C27.3452 36.5689 27.3307 36.5727 27.3174 36.5792C27.3042 36.5857 27.2923 36.5948 27.2825 36.6059C27.2727 36.617 27.2652 36.6299 27.2604 36.6439C27.2556 36.6579 27.2535 36.6727 27.2545 36.6875C27.2554 36.7022 27.2592 36.7167 27.2657 36.73C27.2722 36.7433 27.2813 36.7552 27.2924 36.765C27.3035 36.7748 27.3164 36.7823 27.3304 36.7871C27.3444 36.7919 27.3592 36.7939 27.374 36.793C27.4038 36.7911 27.4317 36.7775 27.4515 36.7551C27.4713 36.7327 27.4813 36.7033 27.4795 36.6735C27.4776 36.6436 27.464 36.6157 27.4416 36.596C27.4192 36.5762 27.3898 36.5661 27.36 36.568ZM20.099 37.131C20.0723 37.1348 20.0479 37.1482 20.0303 37.1685C20.0126 37.1889 20.0029 37.215 20.003 37.242C20.003 37.304 20.053 37.355 20.116 37.353C20.177 37.353 20.227 37.303 20.228 37.243C20.227 37.181 20.178 37.132 20.116 37.131H20.099ZM27.349 37.131C27.3223 37.1348 27.2979 37.1482 27.2803 37.1685C27.2626 37.1889 27.2529 37.215 27.253 37.242C27.253 37.304 27.303 37.355 27.366 37.353C27.427 37.353 27.477 37.303 27.478 37.243C27.477 37.181 27.428 37.132 27.366 37.131H27.349ZM20.11 37.691C20.0806 37.692 20.0529 37.7045 20.0327 37.7258C20.0125 37.7472 20.0015 37.7755 20.002 37.8049C20.0025 37.8342 20.0145 37.8622 20.0355 37.8828C20.0564 37.9034 20.0846 37.9149 20.114 37.9149C20.1433 37.9149 20.1715 37.9034 20.1925 37.8828C20.2134 37.8622 20.2254 37.8342 20.226 37.8049C20.2265 37.7755 20.2155 37.7472 20.1953 37.7258C20.1751 37.7045 20.1473 37.692 20.118 37.691H20.11ZM27.36 37.691C27.3306 37.692 27.3029 37.7045 27.2827 37.7258C27.2625 37.7472 27.2515 37.7755 27.252 37.8049C27.2525 37.8342 27.2645 37.8622 27.2855 37.8828C27.3064 37.9034 27.3346 37.9149 27.364 37.9149C27.3933 37.9149 27.4215 37.9034 27.4425 37.8828C27.4634 37.8622 27.4754 37.8342 27.476 37.8049C27.4765 37.7755 27.4655 37.7472 27.4453 37.7258C27.4251 37.7045 27.3973 37.692 27.368 37.691H27.36ZM23.741 38.213C23.3168 38.2122 22.9097 38.3798 22.6091 38.6791C22.3085 38.9784 22.139 39.3848 22.138 39.809C22.138 40.689 22.855 41.402 23.741 41.402C24.1651 41.4036 24.5726 41.2366 24.8737 40.9379C25.1749 40.6392 25.3451 40.2331 25.347 39.809C25.347 38.929 24.627 38.213 23.741 38.213ZM20.111 38.253C20.082 38.2545 20.0547 38.2673 20.0349 38.2885C20.0152 38.3098 20.0044 38.3379 20.005 38.367C20.005 38.429 20.055 38.48 20.118 38.478C20.179 38.478 20.229 38.429 20.229 38.368C20.2293 38.3525 20.2264 38.3371 20.2204 38.3228C20.2145 38.3085 20.2057 38.2956 20.1945 38.2849C20.1833 38.2742 20.17 38.2659 20.1555 38.2606C20.1409 38.2552 20.1254 38.253 20.11 38.254L20.111 38.253ZM27.361 38.253C27.332 38.2545 27.3047 38.2673 27.2849 38.2885C27.2652 38.3098 27.2544 38.3379 27.255 38.367C27.255 38.429 27.305 38.48 27.368 38.478C27.429 38.478 27.479 38.429 27.479 38.368C27.4793 38.3525 27.4764 38.3371 27.4704 38.3228C27.4645 38.3085 27.4557 38.2956 27.4445 38.2849C27.4333 38.2742 27.42 38.2659 27.4055 38.2606C27.3909 38.2552 27.3754 38.253 27.36 38.254L27.361 38.253ZM20.111 38.816C20.0816 38.817 20.0539 38.8295 20.0337 38.8508C20.0135 38.8722 20.0025 38.9005 20.003 38.9299C20.0035 38.9592 20.0155 38.9872 20.0365 39.0078C20.0574 39.0284 20.0856 39.0399 20.115 39.0399C20.1443 39.0399 20.1725 39.0284 20.1935 39.0078C20.2144 38.9872 20.2264 38.9592 20.227 38.9299C20.2275 38.9005 20.2165 38.8722 20.1963 38.8508C20.1761 38.8295 20.1483 38.817 20.119 38.816C20.116 38.8158 20.113 38.8158 20.11 38.816H20.111ZM27.361 38.816C27.3316 38.817 27.3039 38.8295 27.2837 38.8508C27.2635 38.8722 27.2525 38.9005 27.253 38.9299C27.2535 38.9592 27.2655 38.9872 27.2865 39.0078C27.3074 39.0284 27.3356 39.0399 27.365 39.0399C27.3943 39.0399 27.4225 39.0284 27.4435 39.0078C27.4644 38.9872 27.4764 38.9592 27.477 38.9299C27.4775 38.9005 27.4665 38.8722 27.4463 38.8508C27.4261 38.8295 27.3983 38.817 27.369 38.816C27.366 38.8158 27.363 38.8158 27.36 38.816H27.361ZM20.111 39.379C20.0963 39.3798 20.0819 39.3836 20.0686 39.39C20.0553 39.3964 20.0435 39.4054 20.0337 39.4164C20.0239 39.4274 20.0163 39.4402 20.0115 39.4541C20.0067 39.468 20.0046 39.4828 20.0055 39.4975C20.0063 39.5122 20.0101 39.5266 20.0165 39.5398C20.0229 39.5531 20.0319 39.565 20.0429 39.5748C20.0539 39.5845 20.0667 39.5921 20.0806 39.5969C20.0945 39.6018 20.1093 39.6038 20.124 39.603C20.1387 39.602 20.1531 39.5982 20.1663 39.5918C20.1795 39.5853 20.1914 39.5763 20.2011 39.5652C20.2109 39.5542 20.2183 39.5413 20.2231 39.5274C20.2279 39.5134 20.2299 39.4987 20.229 39.484C20.2281 39.4693 20.2242 39.4549 20.2178 39.4416C20.2113 39.4284 20.2023 39.4166 20.1912 39.4068C20.1802 39.3971 20.1673 39.3896 20.1534 39.3848C20.1394 39.38 20.1247 39.378 20.11 39.379H20.111ZM27.361 39.379C27.3463 39.3798 27.3319 39.3836 27.3186 39.39C27.3053 39.3964 27.2935 39.4054 27.2837 39.4164C27.2739 39.4274 27.2663 39.4402 27.2615 39.4541C27.2567 39.468 27.2546 39.4828 27.2555 39.4975C27.2563 39.5122 27.2601 39.5266 27.2665 39.5398C27.2729 39.5531 27.2819 39.565 27.2929 39.5748C27.3039 39.5845 27.3167 39.5921 27.3306 39.5969C27.3445 39.6018 27.3593 39.6038 27.374 39.603C27.4037 39.6011 27.4314 39.5875 27.4511 39.5652C27.4708 39.5429 27.4808 39.5137 27.479 39.484C27.4771 39.4543 27.4635 39.4265 27.4412 39.4068C27.4189 39.3871 27.3897 39.3771 27.36 39.379H27.361ZM31.29 39.842C30.8658 39.8404 30.4583 40.0073 30.1572 40.306C29.856 40.6047 29.6858 41.0108 29.684 41.435C29.684 42.316 30.404 43.031 31.29 43.031C32.176 43.031 32.895 42.316 32.895 41.435C32.8931 41.011 32.723 40.605 32.4221 40.3063C32.1212 40.0077 31.714 39.8406 31.29 39.842ZM16.618 39.93C15.732 39.93 15.013 40.645 15.013 41.525C15.0146 41.9491 15.1845 42.3553 15.4855 42.6542C15.7865 42.9531 16.1938 43.1203 16.618 43.119C16.8281 43.1198 17.0363 43.0791 17.2307 42.9995C17.4251 42.9198 17.602 42.8026 17.7511 42.6546C17.9002 42.5066 18.0187 42.3306 18.0999 42.1368C18.181 41.943 18.2232 41.7351 18.224 41.525C18.224 40.645 17.504 39.93 16.618 39.93ZM20.11 39.941C20.0952 39.9419 20.0807 39.9457 20.0674 39.9522C20.0542 39.9587 20.0423 39.9678 20.0325 39.9789C20.0227 39.99 20.0152 40.0029 20.0104 40.0169C20.0056 40.0309 20.0035 40.0457 20.0045 40.0605C20.0054 40.0752 20.0092 40.0897 20.0157 40.103C20.0222 40.1163 20.0313 40.1282 20.0424 40.138C20.0535 40.1478 20.0664 40.1553 20.0804 40.1601C20.0944 40.1649 20.1092 40.1669 20.124 40.166C20.1538 40.1641 20.1817 40.1505 20.2015 40.1281C20.2213 40.1057 20.2313 40.0763 20.2295 40.0465C20.2276 40.0166 20.214 39.9888 20.1916 39.969C20.1692 39.9492 20.1398 39.9391 20.11 39.941ZM27.36 39.941C27.3452 39.9419 27.3307 39.9457 27.3174 39.9522C27.3042 39.9587 27.2923 39.9678 27.2825 39.9789C27.2727 39.99 27.2652 40.0029 27.2604 40.0169C27.2556 40.0309 27.2535 40.0457 27.2545 40.0605C27.2554 40.0752 27.2592 40.0897 27.2657 40.103C27.2722 40.1163 27.2813 40.1282 27.2924 40.138C27.3035 40.1478 27.3164 40.1553 27.3304 40.1601C27.3444 40.1649 27.3592 40.1669 27.374 40.166C27.4038 40.1641 27.4317 40.1505 27.4515 40.1281C27.4713 40.1057 27.4813 40.0763 27.4795 40.0465C27.4776 40.0166 27.464 39.9888 27.4416 39.969C27.4192 39.9492 27.3898 39.9391 27.36 39.941ZM20.11 40.504C20.0953 40.5049 20.0809 40.5087 20.0676 40.5152C20.0544 40.5216 20.0426 40.5307 20.0328 40.5417C20.0231 40.5528 20.0156 40.5656 20.0108 40.5796C20.006 40.5935 20.004 40.6083 20.005 40.623C20.0059 40.6377 20.0097 40.6521 20.0162 40.6653C20.0227 40.6785 20.0317 40.6904 20.0427 40.7001C20.0538 40.7099 20.0666 40.7173 20.0806 40.7221C20.0945 40.7269 20.1093 40.7289 20.124 40.728C20.1537 40.7261 20.1814 40.7125 20.2011 40.6902C20.2208 40.6679 20.2308 40.6387 20.229 40.609C20.2271 40.5793 20.2135 40.5515 20.1912 40.5318C20.1689 40.5121 20.1397 40.5021 20.11 40.504ZM27.36 40.504C27.3303 40.5058 27.3025 40.5194 27.2828 40.5417C27.2631 40.564 27.2531 40.5933 27.255 40.623C27.2568 40.6527 27.2704 40.6804 27.2927 40.7001C27.315 40.7198 27.3443 40.7298 27.374 40.728C27.3887 40.727 27.4031 40.7232 27.4163 40.7168C27.4295 40.7103 27.4414 40.7013 27.4511 40.6902C27.4609 40.6792 27.4683 40.6663 27.4731 40.6524C27.4779 40.6384 27.4799 40.6237 27.479 40.609C27.4781 40.5943 27.4742 40.5799 27.4678 40.5666C27.4613 40.5534 27.4523 40.5416 27.4412 40.5318C27.4302 40.5221 27.4173 40.5146 27.4034 40.5098C27.3894 40.505 27.3747 40.503 27.36 40.504ZM20.099 41.066C20.0722 41.07 20.0478 41.0836 20.0302 41.1041C20.0126 41.1247 20.0029 41.1509 20.003 41.178C20.003 41.2001 20.0095 41.2217 20.0218 41.2401C20.034 41.2585 20.0515 41.2728 20.0719 41.2813C20.0923 41.2898 20.1148 41.2921 20.1365 41.2879C20.1582 41.2836 20.1781 41.2731 20.1938 41.2575C20.2095 41.2419 20.2203 41.2221 20.2247 41.2004C20.2291 41.1788 20.2271 41.1563 20.2187 41.1358C20.2104 41.1153 20.1962 41.0977 20.1779 41.0853C20.1596 41.0729 20.1381 41.0662 20.116 41.066H20.099ZM27.349 41.066C27.3221 41.0698 27.2976 41.0833 27.2799 41.1039C27.2623 41.1245 27.2527 41.1508 27.253 41.178C27.253 41.2001 27.2595 41.2217 27.2718 41.2401C27.284 41.2585 27.3015 41.2728 27.3219 41.2813C27.3423 41.2898 27.3648 41.2921 27.3865 41.2879C27.4082 41.2836 27.4281 41.2731 27.4438 41.2575C27.4595 41.2419 27.4703 41.2221 27.4747 41.2004C27.4791 41.1788 27.4771 41.1563 27.4687 41.1358C27.4604 41.1153 27.4462 41.0977 27.4279 41.0853C27.4096 41.0729 27.3881 41.0662 27.366 41.066H27.349ZM20.099 41.629C20.0705 41.6327 20.0445 41.6472 20.0264 41.6696C20.0083 41.6919 19.9995 41.7204 20.0019 41.749C20.0042 41.7777 20.0174 41.8043 20.0388 41.8235C20.0603 41.8427 20.0882 41.8529 20.117 41.852C20.177 41.852 20.227 41.802 20.227 41.74C20.227 41.679 20.177 41.63 20.117 41.629H20.097H20.099ZM27.349 41.629C27.3205 41.6327 27.2945 41.6472 27.2764 41.6696C27.2583 41.6919 27.2495 41.7204 27.2519 41.749C27.2542 41.7777 27.2674 41.8043 27.2888 41.8235C27.3103 41.8427 27.3382 41.8529 27.367 41.852C27.427 41.852 27.477 41.802 27.477 41.74C27.477 41.679 27.427 41.63 27.367 41.629H27.347H27.349ZM20.119 42.189C20.104 42.1887 20.0892 42.1915 20.0753 42.1971C20.0615 42.2028 20.0489 42.2112 20.0384 42.2219C20.0279 42.2325 20.0197 42.2452 20.0143 42.2592C20.0089 42.2731 20.0064 42.288 20.007 42.303C20.0068 42.3176 20.0096 42.3321 20.0151 42.3456C20.0207 42.3591 20.0288 42.3714 20.0392 42.3817C20.0495 42.3921 20.0618 42.4003 20.0753 42.4058C20.0889 42.4113 20.1034 42.4141 20.118 42.414C20.179 42.414 20.231 42.364 20.231 42.303C20.231 42.2729 20.2191 42.2441 20.1979 42.2227C20.1768 42.2014 20.148 42.1892 20.118 42.189H20.119ZM27.369 42.189C27.354 42.1887 27.3392 42.1915 27.3253 42.1971C27.3115 42.2028 27.2989 42.2112 27.2884 42.2219C27.2779 42.2325 27.2697 42.2452 27.2643 42.2592C27.2589 42.2731 27.2564 42.288 27.257 42.303C27.2568 42.3176 27.2596 42.3321 27.2651 42.3456C27.2707 42.3591 27.2788 42.3714 27.2892 42.3817C27.2995 42.3921 27.3118 42.4003 27.3253 42.4058C27.3389 42.4113 27.3534 42.4141 27.368 42.414C27.429 42.414 27.481 42.364 27.481 42.303C27.481 42.2729 27.4691 42.2441 27.4479 42.2227C27.4268 42.2014 27.398 42.1892 27.368 42.189H27.369ZM20.11 42.752C20.0806 42.753 20.0529 42.7655 20.0327 42.7868C20.0125 42.8082 20.0015 42.8365 20.002 42.8659C20.0025 42.8952 20.0145 42.9232 20.0355 42.9438C20.0564 42.9644 20.0846 42.9759 20.114 42.9759C20.1433 42.9759 20.1715 42.9644 20.1925 42.9438C20.2134 42.9232 20.2254 42.8952 20.226 42.8659C20.2265 42.8365 20.2155 42.8082 20.1953 42.7868C20.1751 42.7655 20.1473 42.753 20.118 42.752C20.1153 42.7519 20.1126 42.7519 20.11 42.752ZM27.36 42.752C27.3306 42.753 27.3029 42.7655 27.2827 42.7868C27.2625 42.8082 27.2515 42.8365 27.252 42.8659C27.2525 42.8952 27.2645 42.9232 27.2855 42.9438C27.3064 42.9644 27.3346 42.9759 27.364 42.9759C27.3933 42.9759 27.4215 42.9644 27.4425 42.9438C27.4634 42.9232 27.4754 42.8952 27.476 42.8659C27.4765 42.8365 27.4655 42.8082 27.4453 42.7868C27.4251 42.7655 27.3973 42.753 27.368 42.752C27.3653 42.7519 27.3626 42.7519 27.36 42.752Z" fill="#333333"/>
</svg>
