<svg width="48" height="48" viewBox="0 0 48 48" fill="none" xmlns="http://www.w3.org/2000/svg">
<path d="M28.82 4.07994C23.74 4.06994 18.6 4.11994 14.15 4.11994C13.28 4.11994 12.58 4.81994 12.58 5.68994V42.5499C12.58 43.4199 13.28 44.1199 14.15 44.1199H33.85C34.72 44.1199 35.42 43.4199 35.42 42.5499V5.69994C35.42 4.82994 34.72 4.12994 33.85 4.12994L28.82 4.08994V4.07994ZM20.36 6.18994H20.38C20.44 6.18994 20.48 6.23994 20.48 6.29994C20.4801 6.31526 20.4769 6.33043 20.4708 6.34448C20.4647 6.35852 20.4556 6.37112 20.4443 6.38148C20.433 6.39184 20.4197 6.39972 20.4052 6.40462C20.3907 6.40952 20.3753 6.41133 20.36 6.40994C20.3308 6.40994 20.3029 6.39835 20.2822 6.37772C20.2616 6.35709 20.25 6.32911 20.25 6.29994C20.25 6.27076 20.2616 6.24278 20.2822 6.22215C20.3029 6.20152 20.3308 6.18994 20.36 6.18994ZM27.61 6.18994H27.63C27.69 6.18994 27.73 6.23994 27.73 6.29994C27.7301 6.31526 27.7269 6.33043 27.7208 6.34448C27.7147 6.35852 27.7056 6.37112 27.6943 6.38148C27.683 6.39184 27.6697 6.39972 27.6552 6.40462C27.6407 6.40952 27.6253 6.41133 27.61 6.40994C27.5808 6.40994 27.5529 6.39835 27.5322 6.37772C27.5116 6.35709 27.5 6.32911 27.5 6.29994C27.5 6.27076 27.5116 6.24278 27.5322 6.22215C27.5529 6.20152 27.5808 6.18994 27.61 6.18994ZM20.38 6.74994C20.3945 6.74994 20.4088 6.75278 20.4221 6.75831C20.4355 6.76384 20.4476 6.77194 20.4578 6.78215C20.468 6.79237 20.4761 6.80449 20.4816 6.81784C20.4872 6.83119 20.49 6.84549 20.49 6.85994C20.49 6.87438 20.4872 6.88869 20.4816 6.90203C20.4761 6.91538 20.468 6.9275 20.4578 6.93772C20.4476 6.94793 20.4355 6.95603 20.4221 6.96156C20.4088 6.96709 20.3945 6.96994 20.38 6.96994C20.3508 6.96994 20.3229 6.95835 20.3022 6.93772C20.2816 6.91709 20.27 6.88911 20.27 6.85994C20.27 6.83076 20.2816 6.80278 20.3022 6.78215C20.3229 6.76153 20.3508 6.74994 20.38 6.74994ZM27.63 6.74994C27.6445 6.74994 27.6588 6.75278 27.6721 6.75831C27.6855 6.76384 27.6976 6.77194 27.7078 6.78215C27.718 6.79237 27.7261 6.80449 27.7316 6.81784C27.7372 6.83119 27.74 6.84549 27.74 6.85994C27.74 6.87438 27.7372 6.88869 27.7316 6.90203C27.7261 6.91538 27.718 6.9275 27.7078 6.93772C27.6976 6.94793 27.6855 6.95603 27.6721 6.96156C27.6588 6.96709 27.6445 6.96994 27.63 6.96994C27.6008 6.96994 27.5729 6.95835 27.5522 6.93772C27.5316 6.91709 27.52 6.88911 27.52 6.85994C27.52 6.83076 27.5316 6.80278 27.5522 6.78215C27.5729 6.76153 27.6008 6.74994 27.63 6.74994ZM17.13 7.48994C17.5544 7.47933 17.9655 7.63772 18.2731 7.93028C18.5807 8.22284 18.7594 8.62559 18.77 9.04994C18.7806 9.47428 18.6222 9.88546 18.3297 10.193C18.0371 10.5006 17.6344 10.6793 17.21 10.6899C16.9999 10.6952 16.7908 10.659 16.5947 10.5834C16.3985 10.5079 16.2192 10.3944 16.0669 10.2496C15.9146 10.1047 15.7924 9.93129 15.7071 9.73918C15.6219 9.54707 15.5753 9.34005 15.57 9.12994C15.5648 8.91982 15.6009 8.71073 15.6765 8.5146C15.7521 8.31847 15.8655 8.13914 16.0104 7.98685C16.1552 7.83456 16.3287 7.7123 16.5208 7.62704C16.7129 7.54178 16.9199 7.49519 17.13 7.48994ZM24.23 7.48994C24.4401 7.48403 24.6494 7.51956 24.8457 7.59451C25.0421 7.66946 25.2218 7.78235 25.3746 7.92674C25.5273 8.07114 25.6501 8.24421 25.736 8.43607C25.8219 8.62793 25.8691 8.83482 25.875 9.04494C25.8809 9.25505 25.8454 9.46427 25.7704 9.66065C25.6955 9.85704 25.5826 10.0367 25.4382 10.1895C25.2938 10.3422 25.1207 10.4651 24.9289 10.5509C24.737 10.6368 24.5301 10.684 24.32 10.6899C24.1099 10.6952 23.9008 10.659 23.7047 10.5834C23.5085 10.5079 23.3292 10.3944 23.1769 10.2496C23.0246 10.1047 22.9024 9.93129 22.8171 9.73918C22.7319 9.54707 22.6853 9.34005 22.68 9.12994C22.6748 8.91982 22.7109 8.71073 22.7865 8.5146C22.8621 8.31847 22.9755 8.13914 23.1204 7.98685C23.2652 7.83456 23.4387 7.7123 23.6308 7.62704C23.8229 7.54178 24.0299 7.49519 24.24 7.48994H24.23ZM31.13 7.48994C31.5544 7.47933 31.9655 7.63772 32.2731 7.93028C32.5807 8.22284 32.7594 8.62559 32.77 9.04994C32.7806 9.47428 32.6222 9.88546 32.3297 10.193C32.0371 10.5006 31.6344 10.6793 31.21 10.6899C30.7857 10.7005 30.3745 10.5421 30.0669 10.2496C29.7594 9.95703 29.5806 9.55428 29.57 9.12994C29.5594 8.70559 29.7178 8.29441 30.0104 7.98685C30.3029 7.67929 30.7057 7.50054 31.13 7.48994ZM20.35 10.1199H20.37C20.44 10.1199 20.48 10.1699 20.49 10.2399C20.49 10.2704 20.4779 10.2997 20.4563 10.3213C20.4348 10.3428 20.4055 10.3549 20.375 10.3549C20.3445 10.3549 20.3153 10.3428 20.2937 10.3213C20.2721 10.2997 20.26 10.2704 20.26 10.2399C20.26 10.1799 20.3 10.1399 20.36 10.1199H20.35ZM27.6 10.1199H27.62C27.69 10.1199 27.73 10.1699 27.74 10.2399C27.74 10.2704 27.7279 10.2997 27.7063 10.3213C27.6848 10.3428 27.6555 10.3549 27.625 10.3549C27.5945 10.3549 27.5653 10.3428 27.5437 10.3213C27.5221 10.2997 27.51 10.2704 27.51 10.2399C27.51 10.1799 27.55 10.1399 27.61 10.1199H27.6ZM20.38 10.6799C20.4049 10.6755 20.4306 10.6798 20.4527 10.6921C20.4748 10.7044 20.492 10.7239 20.5014 10.7474C20.5108 10.7709 20.5118 10.7969 20.5043 10.821C20.4967 10.8452 20.4811 10.866 20.46 10.8799C20.4497 10.8905 20.4372 10.8987 20.4234 10.9039C20.4095 10.9091 20.3947 10.9112 20.38 10.9099C20.3583 10.9094 20.3372 10.9025 20.3194 10.8901C20.3016 10.8776 20.2879 10.8602 20.28 10.8399L20.26 10.7999C20.26 10.7399 20.31 10.6799 20.38 10.6799ZM27.63 10.6799C27.6549 10.6755 27.6806 10.6798 27.7027 10.6921C27.7248 10.7044 27.742 10.7239 27.7514 10.7474C27.7608 10.7709 27.7618 10.7969 27.7543 10.821C27.7467 10.8452 27.7311 10.866 27.71 10.8799C27.6997 10.8905 27.6872 10.8987 27.6734 10.9039C27.6595 10.9091 27.6447 10.9112 27.63 10.9099C27.6083 10.9094 27.5872 10.9025 27.5694 10.8901C27.5516 10.8776 27.5379 10.8602 27.53 10.8399L27.51 10.7999C27.51 10.7399 27.56 10.6799 27.63 10.6799ZM20.38 11.2499C20.4017 11.2504 20.4228 11.2573 20.4406 11.2698C20.4584 11.2822 20.4721 11.2997 20.48 11.3199C20.4876 11.3406 20.4888 11.3632 20.4835 11.3846C20.4781 11.406 20.4665 11.4252 20.45 11.4399C20.431 11.458 20.4062 11.4686 20.38 11.4699C20.3508 11.4699 20.3229 11.4583 20.3022 11.4377C20.2816 11.4171 20.27 11.3891 20.27 11.3599C20.27 11.3308 20.2816 11.3028 20.3022 11.2822C20.3229 11.2615 20.3508 11.2499 20.38 11.2499ZM27.63 11.2499C27.6517 11.2504 27.6728 11.2573 27.6906 11.2698C27.7084 11.2822 27.7221 11.2997 27.73 11.3199C27.7376 11.3406 27.7388 11.3632 27.7335 11.3846C27.7281 11.406 27.7165 11.4252 27.7 11.4399C27.681 11.458 27.6562 11.4686 27.63 11.4699C27.6008 11.4699 27.5729 11.4583 27.5522 11.4377C27.5316 11.4171 27.52 11.3891 27.52 11.3599C27.52 11.3308 27.5316 11.3028 27.5522 11.2822C27.5729 11.2615 27.6008 11.2499 27.63 11.2499ZM17.13 11.3299C17.5544 11.3299 17.9613 11.4985 18.2614 11.7986C18.5614 12.0986 18.73 12.5056 18.73 12.9299C18.73 13.3543 18.5614 13.7612 18.2614 14.0613C17.9613 14.3614 17.5544 14.5299 17.13 14.5299C16.7057 14.5299 16.2987 14.3614 15.9986 14.0613C15.6986 13.7612 15.53 13.3543 15.53 12.9299C15.53 12.5056 15.6986 12.0986 15.9986 11.7986C16.2987 11.4985 16.7057 11.3299 17.13 11.3299ZM24.23 11.3299C24.6544 11.3299 25.0613 11.4985 25.3614 11.7986C25.6614 12.0986 25.83 12.5056 25.83 12.9299C25.83 13.3543 25.6614 13.7612 25.3614 14.0613C25.0613 14.3614 24.6544 14.5299 24.23 14.5299C23.8057 14.5299 23.3987 14.3614 23.0986 14.0613C22.7986 13.7612 22.63 13.3543 22.63 12.9299C22.63 12.5056 22.7986 12.0986 23.0986 11.7986C23.3987 11.4985 23.8057 11.3299 24.23 11.3299ZM31.13 11.3299C31.5544 11.3299 31.9613 11.4985 32.2614 11.7986C32.5614 12.0986 32.73 12.5056 32.73 12.9299C32.73 13.3543 32.5614 13.7612 32.2614 14.0613C31.9613 14.3614 31.5544 14.5299 31.13 14.5299C30.7057 14.5299 30.2987 14.3614 29.9986 14.0613C29.6986 13.7612 29.53 13.3543 29.53 12.9299C29.53 12.5056 29.6986 12.0986 29.9986 11.7986C30.2987 11.4985 30.7057 11.3299 31.13 11.3299ZM20.37 11.8099C20.3853 11.8085 20.4007 11.8104 20.4152 11.8153C20.4297 11.8202 20.443 11.828 20.4543 11.8384C20.4656 11.8487 20.4747 11.8614 20.4808 11.8754C20.4869 11.8894 20.4901 11.9046 20.49 11.9199C20.49 11.9799 20.44 12.0299 20.38 12.0299C20.3508 12.0313 20.3223 12.0209 20.3008 12.0013C20.2792 11.9816 20.2663 11.9541 20.265 11.9249C20.2637 11.8958 20.274 11.8673 20.2937 11.8457C20.3134 11.8241 20.3408 11.8113 20.37 11.8099ZM27.62 11.8099C27.6353 11.8085 27.6507 11.8104 27.6652 11.8153C27.6797 11.8202 27.693 11.828 27.7043 11.8384C27.7156 11.8487 27.7247 11.8614 27.7308 11.8754C27.7369 11.8894 27.7401 11.9046 27.74 11.9199C27.74 11.9799 27.69 12.0299 27.63 12.0299C27.6008 12.0313 27.5723 12.0209 27.5508 12.0013C27.5292 11.9816 27.5163 11.9541 27.515 11.9249C27.5137 11.8958 27.524 11.8673 27.5437 11.8457C27.5634 11.8241 27.5908 11.8113 27.62 11.8099ZM20.37 12.3699C20.3853 12.3685 20.4007 12.3704 20.4152 12.3753C20.4297 12.3802 20.443 12.388 20.4543 12.3984C20.4656 12.4088 20.4747 12.4214 20.4808 12.4354C20.4869 12.4494 20.4901 12.4646 20.49 12.4799C20.49 12.5499 20.44 12.5999 20.38 12.5999C20.3495 12.6013 20.3197 12.5904 20.2972 12.5698C20.2747 12.5492 20.2613 12.5204 20.26 12.4899C20.2587 12.4594 20.2695 12.4297 20.2902 12.4072C20.3108 12.3846 20.3395 12.3713 20.37 12.3699ZM27.62 12.3699C27.6353 12.3685 27.6507 12.3704 27.6652 12.3753C27.6797 12.3802 27.693 12.388 27.7043 12.3984C27.7156 12.4088 27.7247 12.4214 27.7308 12.4354C27.7369 12.4494 27.7401 12.4646 27.74 12.4799C27.74 12.5499 27.69 12.5999 27.63 12.5999C27.6149 12.6006 27.5998 12.5983 27.5856 12.5931C27.5714 12.5879 27.5584 12.58 27.5472 12.5698C27.5361 12.5596 27.5271 12.5473 27.5207 12.5336C27.5143 12.5199 27.5107 12.505 27.51 12.4899C27.5094 12.4748 27.5117 12.4598 27.5169 12.4455C27.522 12.4313 27.53 12.4183 27.5402 12.4072C27.5504 12.396 27.5627 12.387 27.5764 12.3806C27.5901 12.3742 27.6049 12.3706 27.62 12.3699ZM20.35 14.6199H20.37C20.3874 14.6193 20.4046 14.6227 20.4204 14.63C20.4362 14.6373 20.45 14.6482 20.4607 14.6619C20.4714 14.6756 20.4788 14.6916 20.4821 14.7086C20.4855 14.7256 20.4848 14.7432 20.48 14.7599C20.4768 14.7759 20.4701 14.7909 20.4604 14.804C20.4507 14.817 20.4383 14.8277 20.4239 14.8354C20.4096 14.843 20.3937 14.8474 20.3775 14.8482C20.3612 14.849 20.345 14.8462 20.33 14.8399C20.3098 14.832 20.2923 14.8183 20.2799 14.8005C20.2674 14.7827 20.2605 14.7617 20.26 14.7399C20.26 14.6799 20.3 14.6299 20.36 14.6199H20.35ZM27.6 14.6199H27.62C27.6374 14.6193 27.6546 14.6227 27.6704 14.63C27.6862 14.6373 27.7 14.6482 27.7107 14.6619C27.7214 14.6756 27.7288 14.6916 27.7321 14.7086C27.7355 14.7256 27.7348 14.7432 27.73 14.7599C27.7268 14.7759 27.7201 14.7909 27.7104 14.804C27.7007 14.817 27.6883 14.8277 27.6739 14.8354C27.6596 14.843 27.6437 14.8474 27.6275 14.8482C27.6112 14.849 27.595 14.8462 27.58 14.8399C27.5598 14.832 27.5423 14.8183 27.5299 14.8005C27.5174 14.7827 27.5105 14.7617 27.51 14.7399C27.51 14.6799 27.55 14.6299 27.61 14.6199H27.6ZM17.13 15.1699C17.3401 15.1647 17.5492 15.2009 17.7454 15.2764C17.9415 15.352 18.1208 15.4654 18.2731 15.6103C18.4254 15.7551 18.5477 15.9286 18.6329 16.1207C18.7182 16.3128 18.7648 16.5198 18.77 16.7299C18.7753 16.9401 18.7391 17.1491 18.6635 17.3453C18.588 17.5414 18.4745 17.7207 18.3297 17.873C18.1848 18.0253 18.0114 18.1476 17.8193 18.2328C17.6272 18.3181 17.4201 18.3647 17.21 18.3699C16.7857 18.3805 16.3745 18.2221 16.0669 17.9296C15.7594 17.637 15.5806 17.2343 15.57 16.8099C15.5594 16.3856 15.7178 15.9744 16.0104 15.6668C16.3029 15.3593 16.7057 15.1805 17.13 15.1699ZM24.23 15.1699C24.4401 15.1647 24.6492 15.2009 24.8454 15.2764C25.0415 15.352 25.2208 15.4654 25.3731 15.6103C25.5254 15.7551 25.6477 15.9286 25.7329 16.1207C25.8182 16.3128 25.8648 16.5198 25.87 16.7299C25.8753 16.9401 25.8391 17.1491 25.7635 17.3453C25.688 17.5414 25.5745 17.7207 25.4297 17.873C25.2848 18.0253 25.1114 18.1476 24.9193 18.2328C24.7272 18.3181 24.5201 18.3647 24.31 18.3699C23.8857 18.3792 23.475 18.2195 23.1684 17.9261C22.8618 17.6326 22.6843 17.2293 22.675 16.8049C22.6657 16.3806 22.8254 15.9699 23.1189 15.6633C23.4124 15.3567 23.8157 15.1792 24.24 15.1699H24.23ZM31.13 15.1699C31.3401 15.1647 31.5492 15.2009 31.7454 15.2764C31.9415 15.352 32.1208 15.4654 32.2731 15.6103C32.4254 15.7551 32.5477 15.9286 32.6329 16.1207C32.7182 16.3128 32.7648 16.5198 32.77 16.7299C32.7753 16.9401 32.7391 17.1491 32.6635 17.3453C32.588 17.5414 32.4745 17.7207 32.3297 17.873C32.1848 18.0253 32.0114 18.1476 31.8193 18.2328C31.6272 18.3181 31.4201 18.3647 31.21 18.3699C30.7857 18.3805 30.3745 18.2221 30.0669 17.9296C29.7594 17.637 29.5806 17.2343 29.57 16.8099C29.5594 16.3856 29.7178 15.9744 30.0104 15.6668C30.3029 15.3593 30.7057 15.1805 31.13 15.1699ZM20.36 15.1799H20.38C20.44 15.1799 20.48 15.2299 20.48 15.2899C20.4804 15.3106 20.475 15.3309 20.4644 15.3485C20.4538 15.3662 20.4384 15.3806 20.42 15.3899C20.4063 15.3965 20.3914 15.4001 20.3762 15.4006C20.3611 15.401 20.346 15.3984 20.3319 15.3927C20.3178 15.3871 20.305 15.3786 20.2944 15.3678C20.2837 15.357 20.2754 15.3441 20.27 15.3299C20.2638 15.3142 20.2612 15.2973 20.2626 15.2804C20.2639 15.2635 20.2692 15.2472 20.2779 15.2327C20.2866 15.2181 20.2985 15.2058 20.3128 15.1967C20.327 15.1875 20.3432 15.1818 20.36 15.1799ZM27.61 15.1799H27.63C27.69 15.1799 27.73 15.2299 27.73 15.2899C27.7304 15.3106 27.725 15.3309 27.7144 15.3485C27.7038 15.3662 27.6884 15.3806 27.67 15.3899C27.6563 15.3965 27.6414 15.4001 27.6262 15.4006C27.6111 15.401 27.596 15.3984 27.5819 15.3927C27.5678 15.3871 27.555 15.3786 27.5444 15.3678C27.5337 15.357 27.5254 15.3441 27.52 15.3299C27.5138 15.3142 27.5112 15.2973 27.5126 15.2804C27.5139 15.2635 27.5192 15.2472 27.5279 15.2327C27.5366 15.2181 27.5485 15.2058 27.5628 15.1967C27.577 15.1875 27.5932 15.1818 27.61 15.1799ZM20.38 15.7399C20.4017 15.7404 20.4228 15.7473 20.4406 15.7598C20.4584 15.7722 20.4721 15.7897 20.48 15.8099C20.49 15.8319 20.4924 15.8565 20.487 15.88C20.4816 15.9035 20.4686 15.9245 20.45 15.9399C20.431 15.958 20.4062 15.9686 20.38 15.9699C20.3495 15.9699 20.3203 15.9578 20.2987 15.9363C20.2771 15.9147 20.265 15.8854 20.265 15.8549C20.265 15.8244 20.2771 15.7952 20.2987 15.7736C20.3203 15.7521 20.3495 15.7399 20.38 15.7399ZM27.63 15.7399C27.6517 15.7404 27.6728 15.7473 27.6906 15.7598C27.7084 15.7722 27.7221 15.7897 27.73 15.8099C27.74 15.8319 27.7424 15.8565 27.737 15.88C27.7316 15.9035 27.7186 15.9245 27.7 15.9399C27.681 15.958 27.6562 15.9686 27.63 15.9699C27.5995 15.9699 27.5703 15.9578 27.5487 15.9363C27.5271 15.9147 27.515 15.8854 27.515 15.8549C27.515 15.8244 27.5271 15.7952 27.5487 15.7736C27.5703 15.7521 27.5995 15.7399 27.63 15.7399ZM20.37 17.4399C20.3983 17.436 20.427 17.4431 20.45 17.4599C20.4619 17.4697 20.4716 17.4819 20.4785 17.4957C20.4854 17.5095 20.4893 17.5245 20.49 17.5399C20.49 17.5704 20.4779 17.5997 20.4563 17.6213C20.4348 17.6428 20.4055 17.6549 20.375 17.6549C20.3445 17.6549 20.3153 17.6428 20.2937 17.6213C20.2721 17.5997 20.26 17.5704 20.26 17.5399C20.26 17.4799 20.31 17.4399 20.36 17.4399H20.37ZM27.62 17.4399C27.6483 17.436 27.677 17.4431 27.7 17.4599C27.7119 17.4697 27.7216 17.4819 27.7285 17.4957C27.7354 17.5095 27.7393 17.5245 27.74 17.5399C27.74 17.5704 27.7279 17.5997 27.7063 17.6213C27.6848 17.6428 27.6555 17.6549 27.625 17.6549C27.5945 17.6549 27.5653 17.6428 27.5437 17.6213C27.5221 17.5997 27.51 17.5704 27.51 17.5399C27.51 17.4799 27.56 17.4399 27.61 17.4399H27.62ZM17.13 18.9999C17.3401 18.9947 17.5492 19.0309 17.7454 19.1064C17.9415 19.182 18.1208 19.2954 18.2731 19.4403C18.4254 19.5851 18.5477 19.7586 18.6329 19.9507C18.7182 20.1428 18.7648 20.3498 18.77 20.5599C18.7753 20.77 18.7391 20.9791 18.6635 21.1753C18.588 21.3714 18.4745 21.5507 18.3297 21.703C18.1848 21.8553 18.0114 21.9776 17.8193 22.0628C17.6272 22.1481 17.4201 22.1947 17.21 22.1999C16.7857 22.2105 16.3745 22.0521 16.0669 21.7596C15.7594 21.467 15.5806 21.0643 15.57 20.6399C15.5594 20.2156 15.7178 19.8044 16.0104 19.4969C16.3029 19.1893 16.7057 19.0105 17.13 18.9999ZM24.23 18.9999C24.4401 18.994 24.6494 19.0296 24.8457 19.1045C25.0421 19.1795 25.2218 19.2924 25.3746 19.4367C25.5273 19.5811 25.6501 19.7542 25.736 19.9461C25.8219 20.1379 25.8691 20.3448 25.875 20.5549C25.8809 20.7651 25.8454 20.9743 25.7704 21.1707C25.6955 21.367 25.5826 21.5467 25.4382 21.6995C25.2938 21.8522 25.1207 21.9751 24.9289 22.0609C24.737 22.1468 24.5301 22.194 24.32 22.1999C23.8957 22.2105 23.4845 22.0521 23.1769 21.7596C22.8694 21.467 22.6906 21.0643 22.68 20.6399C22.6694 20.2156 22.8278 19.8044 23.1204 19.4969C23.4129 19.1893 23.8157 19.0105 24.24 18.9999H24.23ZM31.13 18.9999C31.3401 18.9947 31.5492 19.0309 31.7454 19.1064C31.9415 19.182 32.1208 19.2954 32.2731 19.4403C32.4254 19.5851 32.5477 19.7586 32.6329 19.9507C32.7182 20.1428 32.7648 20.3498 32.77 20.5599C32.7753 20.77 32.7391 20.9791 32.6635 21.1753C32.588 21.3714 32.4745 21.5507 32.3297 21.703C32.1848 21.8553 32.0114 21.9776 31.8193 22.0628C31.6272 22.1481 31.4201 22.1947 31.21 22.1999C30.7857 22.2105 30.3745 22.0521 30.0669 21.7596C29.7594 21.467 29.5806 21.0643 29.57 20.6399C29.5594 20.2156 29.7178 19.8044 30.0104 19.4969C30.3029 19.1893 30.7057 19.0105 31.13 18.9999ZM20.36 19.1199H20.38C20.3955 19.1211 20.4105 19.1255 20.4241 19.1328C20.4377 19.1402 20.4497 19.1503 20.4591 19.1626C20.4685 19.1748 20.4753 19.189 20.4789 19.204C20.4825 19.2191 20.4829 19.2347 20.48 19.2499C20.4768 19.2659 20.4701 19.2809 20.4604 19.294C20.4507 19.307 20.4383 19.3177 20.4239 19.3254C20.4096 19.333 20.3937 19.3374 20.3775 19.3382C20.3612 19.339 20.345 19.3362 20.33 19.3299C20.3146 19.323 20.301 19.3126 20.2903 19.2996C20.2795 19.2866 20.2719 19.2712 20.2681 19.2548C20.2642 19.2384 20.2642 19.2213 20.268 19.2048C20.2718 19.1884 20.2793 19.173 20.29 19.1599C20.3074 19.1382 20.3325 19.1239 20.36 19.1199ZM27.61 19.1199H27.63C27.6455 19.1211 27.6605 19.1255 27.6741 19.1328C27.6877 19.1402 27.6997 19.1503 27.7091 19.1626C27.7185 19.1748 27.7253 19.189 27.7289 19.204C27.7325 19.2191 27.7329 19.2347 27.73 19.2499C27.7268 19.2659 27.7201 19.2809 27.7104 19.294C27.7007 19.307 27.6883 19.3177 27.6739 19.3254C27.6596 19.333 27.6437 19.3374 27.6275 19.3382C27.6112 19.339 27.595 19.3362 27.58 19.3299C27.5646 19.323 27.551 19.3126 27.5403 19.2996C27.5295 19.2866 27.5219 19.2712 27.5181 19.2548C27.5142 19.2384 27.5142 19.2213 27.518 19.2048C27.5218 19.1884 27.5293 19.173 27.54 19.1599C27.5574 19.1382 27.5825 19.1239 27.61 19.1199ZM20.38 19.6799C20.3978 19.6807 20.4151 19.6857 20.4304 19.6946C20.4458 19.7035 20.4588 19.7159 20.4683 19.7309C20.4778 19.7459 20.4836 19.763 20.485 19.7807C20.4865 19.7984 20.4837 19.8162 20.4768 19.8325C20.4699 19.8489 20.4592 19.8633 20.4455 19.8746C20.4318 19.886 20.4156 19.8938 20.3982 19.8975C20.3808 19.9011 20.3628 19.9005 20.3457 19.8958C20.3286 19.891 20.3129 19.8821 20.3 19.8699C20.2837 19.8546 20.2724 19.8346 20.2678 19.8126C20.2632 19.7907 20.2653 19.7678 20.274 19.7472C20.2827 19.7265 20.2976 19.709 20.3165 19.6969C20.3354 19.6849 20.3576 19.679 20.38 19.6799ZM27.63 19.6799C27.6478 19.6807 27.6651 19.6857 27.6804 19.6946C27.6958 19.7035 27.7088 19.7159 27.7183 19.7309C27.7278 19.7459 27.7336 19.763 27.735 19.7807C27.7365 19.7984 27.7337 19.8162 27.7268 19.8325C27.7199 19.8489 27.7092 19.8633 27.6955 19.8746C27.6818 19.886 27.6656 19.8938 27.6482 19.8975C27.6308 19.9011 27.6128 19.9005 27.5957 19.8958C27.5786 19.891 27.5629 19.8821 27.55 19.8699C27.5337 19.8546 27.5224 19.8346 27.5178 19.8126C27.5132 19.7907 27.5153 19.7678 27.524 19.7472C27.5327 19.7265 27.5476 19.709 27.5665 19.6969C27.5854 19.6849 27.6076 19.679 27.63 19.6799ZM17.13 22.8399C17.5544 22.8399 17.9613 23.0085 18.2614 23.3086C18.5614 23.6086 18.73 24.0156 18.73 24.4399C18.73 24.8643 18.5614 25.2712 18.2614 25.5713C17.9613 25.8714 17.5544 26.0399 17.13 26.0399C16.7057 26.0399 16.2987 25.8714 15.9986 25.5713C15.6986 25.2712 15.53 24.8643 15.53 24.4399C15.53 24.0156 15.6986 23.6086 15.9986 23.3086C16.2987 23.0085 16.7057 22.8399 17.13 22.8399ZM24.23 22.8399C24.6544 22.8399 25.0613 23.0085 25.3614 23.3086C25.6614 23.6086 25.83 24.0156 25.83 24.4399C25.83 24.8643 25.6614 25.2712 25.3614 25.5713C25.0613 25.8714 24.6544 26.0399 24.23 26.0399C23.8057 26.0399 23.3987 25.8714 23.0986 25.5713C22.7986 25.2712 22.63 24.8643 22.63 24.4399C22.63 24.0156 22.7986 23.6086 23.0986 23.3086C23.3987 23.0085 23.8057 22.8399 24.23 22.8399ZM31.13 22.8399C31.5544 22.8399 31.9613 23.0085 32.2614 23.3086C32.5614 23.6086 32.73 24.0156 32.73 24.4399C32.73 24.8643 32.5614 25.2712 32.2614 25.5713C31.9613 25.8714 31.5544 26.0399 31.13 26.0399C30.7057 26.0399 30.2987 25.8714 29.9986 25.5713C29.6986 25.2712 29.53 24.8643 29.53 24.4399C29.53 24.0156 29.6986 23.6086 29.9986 23.3086C30.2987 23.0085 30.7057 22.8399 31.13 22.8399ZM20.35 23.6199H20.37C20.3924 23.619 20.4146 23.6249 20.4335 23.6369C20.4525 23.649 20.4673 23.6665 20.476 23.6872C20.4847 23.7078 20.4869 23.7307 20.4822 23.7526C20.4776 23.7746 20.4664 23.7946 20.45 23.8099C20.4383 23.8214 20.4241 23.8301 20.4086 23.8354C20.3931 23.8407 20.3765 23.8425 20.3602 23.8406C20.3439 23.8386 20.3283 23.8331 20.3144 23.8243C20.3005 23.8156 20.2888 23.8038 20.28 23.7899C20.2676 23.7723 20.2607 23.7515 20.26 23.7299C20.26 23.6699 20.3 23.6299 20.36 23.6199H20.35ZM27.6 23.6199H27.62C27.6424 23.619 27.6646 23.6249 27.6835 23.6369C27.7025 23.649 27.7173 23.6665 27.726 23.6872C27.7347 23.7078 27.7369 23.7307 27.7322 23.7526C27.7276 23.7746 27.7164 23.7946 27.7 23.8099C27.6883 23.8214 27.6741 23.8301 27.6586 23.8354C27.6431 23.8407 27.6265 23.8425 27.6102 23.8406C27.5939 23.8386 27.5783 23.8331 27.5644 23.8243C27.5505 23.8156 27.5388 23.8038 27.53 23.7899C27.5176 23.7723 27.5107 23.7515 27.51 23.7299C27.51 23.6699 27.55 23.6299 27.61 23.6199H27.6ZM20.35 24.1799H20.37C20.44 24.1799 20.48 24.2299 20.49 24.2899C20.4895 24.3117 20.4826 24.3327 20.4702 24.3505C20.4577 24.3683 20.4403 24.382 20.42 24.3899C20.4057 24.3963 20.3901 24.3994 20.3745 24.3993C20.3588 24.3991 20.3433 24.3956 20.3291 24.389C20.3149 24.3823 20.3023 24.3727 20.2921 24.3608C20.2819 24.3489 20.2744 24.335 20.27 24.3199C20.2656 24.3048 20.2644 24.2889 20.2666 24.2732C20.2689 24.2576 20.2745 24.2426 20.283 24.2294C20.2915 24.2161 20.3028 24.2048 20.3161 24.1963C20.3294 24.1877 20.3444 24.1822 20.36 24.1799H20.35ZM27.6 24.1799H27.62C27.69 24.1799 27.73 24.2299 27.74 24.2899C27.7395 24.3117 27.7326 24.3327 27.7202 24.3505C27.7077 24.3683 27.6903 24.382 27.67 24.3899C27.6557 24.3963 27.6401 24.3994 27.6245 24.3993C27.6088 24.3991 27.5933 24.3956 27.5791 24.389C27.5649 24.3823 27.5523 24.3727 27.5421 24.3608C27.5319 24.3489 27.5244 24.335 27.52 24.3199C27.5156 24.3048 27.5144 24.2889 27.5166 24.2732C27.5189 24.2576 27.5245 24.2426 27.533 24.2294C27.5415 24.2161 27.5528 24.2048 27.5661 24.1963C27.5794 24.1877 27.5944 24.1822 27.61 24.1799H27.6ZM17.13 26.6799C17.5544 26.6799 17.9613 26.8485 18.2614 27.1486C18.5614 27.4486 18.73 27.8556 18.73 28.2799C18.73 28.7043 18.5614 29.1112 18.2614 29.4113C17.9613 29.7114 17.5544 29.8799 17.13 29.8799C16.7057 29.8799 16.2987 29.7114 15.9986 29.4113C15.6986 29.1112 15.53 28.7043 15.53 28.2799C15.53 27.8556 15.6986 27.4486 15.9986 27.1486C16.2987 26.8485 16.7057 26.6799 17.13 26.6799ZM24.23 26.6799C24.4482 26.6565 24.669 26.6781 24.8785 26.7436C25.088 26.8091 25.2817 26.9169 25.4478 27.0605C25.6138 27.2041 25.7485 27.3803 25.8435 27.5781C25.9385 27.776 25.9918 27.9913 26.0001 28.2106C26.0083 28.4299 25.9713 28.6486 25.8915 28.8531C25.8116 29.0575 25.6905 29.2433 25.5357 29.3989C25.381 29.5546 25.1958 29.6767 24.9918 29.7577C24.7879 29.8388 24.5694 29.877 24.35 29.8699C23.9257 29.8845 23.5129 29.7299 23.2025 29.4402C22.8922 29.1505 22.7096 28.7493 22.695 28.3249C22.6804 27.9006 22.835 27.4878 23.1248 27.1775C23.4145 26.8671 23.8157 26.6845 24.24 26.6699L24.23 26.6799ZM31.13 26.6799C31.5544 26.6799 31.9613 26.8485 32.2614 27.1486C32.5614 27.4486 32.73 27.8556 32.73 28.2799C32.73 28.7043 32.5614 29.1112 32.2614 29.4113C31.9613 29.7114 31.5544 29.8799 31.13 29.8799C30.7057 29.8799 30.2987 29.7114 29.9986 29.4113C29.6986 29.1112 29.53 28.7043 29.53 28.2799C29.53 27.8556 29.6986 27.4486 29.9986 27.1486C30.2987 26.8485 30.7057 26.6799 31.13 26.6799ZM20.36 28.0999H20.38C20.44 28.0999 20.48 28.1499 20.48 28.2199C20.478 28.2407 20.4702 28.2605 20.4574 28.2769C20.4446 28.2934 20.4273 28.3059 20.4077 28.313C20.3881 28.32 20.3668 28.3213 20.3465 28.3168C20.3261 28.3122 20.3075 28.302 20.2927 28.2872C20.278 28.2725 20.2677 28.2538 20.2632 28.2335C20.2586 28.2131 20.2599 28.1919 20.267 28.1722C20.274 28.1526 20.2865 28.1354 20.303 28.1226C20.3195 28.1098 20.3393 28.1019 20.36 28.0999ZM27.61 28.0999H27.63C27.69 28.0999 27.73 28.1499 27.73 28.2199C27.728 28.2407 27.7202 28.2605 27.7074 28.2769C27.6946 28.2934 27.6773 28.3059 27.6577 28.313C27.6381 28.32 27.6168 28.3213 27.5965 28.3168C27.5761 28.3122 27.5575 28.302 27.5427 28.2872C27.528 28.2725 27.5177 28.2538 27.5132 28.2335C27.5086 28.2131 27.5099 28.1919 27.517 28.1722C27.524 28.1526 27.5365 28.1354 27.553 28.1226C27.5695 28.1098 27.5893 28.1019 27.61 28.0999ZM20.38 28.6599C20.3961 28.6628 20.4114 28.6692 20.4247 28.6787C20.438 28.6882 20.449 28.7005 20.4569 28.7148C20.4649 28.7291 20.4695 28.745 20.4706 28.7613C20.4716 28.7776 20.469 28.7939 20.4629 28.8091C20.4568 28.8243 20.4475 28.8379 20.4355 28.849C20.4235 28.8601 20.4092 28.8684 20.3936 28.8732C20.378 28.8781 20.3615 28.8794 20.3453 28.8771C20.3291 28.8748 20.3136 28.869 20.3 28.8599C20.2789 28.846 20.2633 28.8252 20.2558 28.801C20.2482 28.7769 20.2493 28.7509 20.2586 28.7274C20.268 28.7039 20.2852 28.6844 20.3073 28.6721C20.3295 28.6598 20.3551 28.6555 20.38 28.6599ZM27.63 28.6599C27.6461 28.6628 27.6614 28.6692 27.6747 28.6787C27.688 28.6882 27.699 28.7005 27.7069 28.7148C27.7149 28.7291 27.7195 28.745 27.7206 28.7613C27.7216 28.7776 27.719 28.7939 27.7129 28.8091C27.7068 28.8243 27.6975 28.8379 27.6855 28.849C27.6735 28.8601 27.6592 28.8684 27.6436 28.8732C27.628 28.8781 27.6115 28.8794 27.5953 28.8771C27.5791 28.8748 27.5636 28.869 27.55 28.8599C27.5289 28.846 27.5133 28.8252 27.5058 28.801C27.4982 28.7769 27.4993 28.7509 27.5086 28.7274C27.518 28.7039 27.5352 28.6844 27.5573 28.6721C27.5795 28.6598 27.6051 28.6555 27.63 28.6599ZM17.13 30.4899C17.5544 30.4899 17.9613 30.6585 18.2614 30.9586C18.5614 31.2586 18.73 31.6656 18.73 32.0899C18.73 32.5143 18.5614 32.9212 18.2614 33.2213C17.9613 33.5214 17.5544 33.6899 17.13 33.6899C16.7057 33.6899 16.2987 33.5214 15.9986 33.2213C15.6986 32.9212 15.53 32.5143 15.53 32.0899C15.53 31.6656 15.6986 31.2586 15.9986 30.9586C16.2987 30.6585 16.7057 30.4899 17.13 30.4899ZM24.23 30.4899C24.6544 30.4899 25.0613 30.6585 25.3614 30.9586C25.6614 31.2586 25.83 31.6656 25.83 32.0899C25.83 32.5143 25.6614 32.9212 25.3614 33.2213C25.0613 33.5214 24.6544 33.6899 24.23 33.6899C23.8057 33.6899 23.3987 33.5214 23.0986 33.2213C22.7986 32.9212 22.63 32.5143 22.63 32.0899C22.63 31.6656 22.7986 31.2586 23.0986 30.9586C23.3987 30.6585 23.8057 30.4899 24.23 30.4899ZM31.13 30.4899C31.5544 30.4899 31.9613 30.6585 32.2614 30.9586C32.5614 31.2586 32.73 31.6656 32.73 32.0899C32.73 32.5143 32.5614 32.9212 32.2614 33.2213C31.9613 33.5214 31.5544 33.6899 31.13 33.6899C30.7057 33.6899 30.2987 33.5214 29.9986 33.2213C29.6986 32.9212 29.53 32.5143 29.53 32.0899C29.53 31.6656 29.6986 31.2586 29.9986 30.9586C30.2987 30.6585 30.7057 30.4899 31.13 30.4899ZM20.37 30.9099C20.3862 30.9084 20.4024 30.9104 20.4177 30.9159C20.433 30.9214 20.4468 30.9302 20.4583 30.9417C20.4698 30.9531 20.4786 30.967 20.484 30.9822C20.4895 30.9975 20.4916 31.0138 20.49 31.0299C20.49 31.0604 20.4779 31.0897 20.4563 31.1113C20.4348 31.1328 20.4055 31.1449 20.375 31.1449C20.3445 31.1449 20.3153 31.1328 20.2937 31.1113C20.2721 31.0897 20.26 31.0604 20.26 31.0299C20.26 30.9699 20.31 30.9199 20.36 30.9099H20.37ZM27.62 30.9099C27.6362 30.9084 27.6524 30.9104 27.6677 30.9159C27.683 30.9214 27.6968 30.9302 27.7083 30.9417C27.7198 30.9531 27.7286 30.967 27.734 30.9822C27.7395 30.9975 27.7416 31.0138 27.74 31.0299C27.74 31.0604 27.7279 31.0897 27.7063 31.1113C27.6848 31.1328 27.6555 31.1449 27.625 31.1449C27.5945 31.1449 27.5653 31.1328 27.5437 31.1113C27.5221 31.0897 27.51 31.0604 27.51 31.0299C27.51 30.9699 27.56 30.9199 27.61 30.9099H27.62ZM20.35 32.0399H20.37C20.3863 32.0397 20.4025 32.043 20.4173 32.0497C20.4321 32.0565 20.4453 32.0664 20.4558 32.0789C20.4664 32.0913 20.474 32.1059 20.4782 32.1217C20.4824 32.1374 20.483 32.1539 20.48 32.1699C20.4768 32.1859 20.4701 32.2009 20.4604 32.214C20.4507 32.227 20.4383 32.2377 20.4239 32.2454C20.4096 32.253 20.3937 32.2574 20.3775 32.2582C20.3612 32.259 20.345 32.2562 20.33 32.2499C20.3098 32.242 20.2923 32.2283 20.2799 32.2105C20.2674 32.1927 20.2605 32.1717 20.26 32.1499C20.26 32.0899 20.3 32.0499 20.36 32.0399H20.35ZM27.6 32.0399H27.62C27.6363 32.0397 27.6525 32.043 27.6673 32.0497C27.6821 32.0565 27.6953 32.0664 27.7058 32.0789C27.7164 32.0913 27.724 32.1059 27.7282 32.1217C27.7324 32.1374 27.733 32.1539 27.73 32.1699C27.7268 32.1859 27.7201 32.2009 27.7104 32.214C27.7007 32.227 27.6883 32.2377 27.6739 32.2454C27.6596 32.253 27.6437 32.2574 27.6275 32.2582C27.6112 32.259 27.595 32.2562 27.58 32.2499C27.5598 32.242 27.5423 32.2283 27.5299 32.2105C27.5174 32.1927 27.5105 32.1717 27.51 32.1499C27.51 32.0899 27.55 32.0499 27.61 32.0399H27.6ZM20.35 32.5999H20.37C20.3992 32.5999 20.4272 32.6115 20.4478 32.6322C20.4684 32.6528 20.48 32.6808 20.48 32.7099C20.48 32.7391 20.4684 32.7671 20.4478 32.7877C20.4272 32.8083 20.3992 32.8199 20.37 32.8199C20.3408 32.8226 20.3118 32.8135 20.2893 32.7948C20.2668 32.776 20.2527 32.7491 20.25 32.7199C20.2474 32.6908 20.2564 32.6617 20.2752 32.6392C20.2939 32.6167 20.3208 32.6026 20.35 32.5999ZM27.6 32.5999H27.62C27.6492 32.5999 27.6772 32.6115 27.6978 32.6322C27.7184 32.6528 27.73 32.6808 27.73 32.7099C27.73 32.7391 27.7184 32.7671 27.6978 32.7877C27.6772 32.8083 27.6492 32.8199 27.62 32.8199C27.5908 32.8226 27.5618 32.8135 27.5393 32.7948C27.5168 32.776 27.5027 32.7491 27.5 32.7199C27.4974 32.6908 27.5064 32.6617 27.5252 32.6392C27.5439 32.6167 27.5708 32.6026 27.6 32.5999ZM20.38 33.1599C20.3981 33.1619 20.4155 33.1679 20.4309 33.1776C20.4463 33.1872 20.4593 33.2002 20.4689 33.2156C20.4785 33.231 20.4845 33.2484 20.4865 33.2665C20.4884 33.2846 20.4862 33.3028 20.48 33.3199C20.475 33.3337 20.4671 33.3462 20.4567 33.3566C20.4463 33.367 20.4338 33.3749 20.42 33.3799H20.38C20.3594 33.3803 20.3391 33.3749 20.3214 33.3643C20.3037 33.3537 20.2894 33.3383 20.28 33.3199L20.26 33.2799C20.26 33.2099 20.31 33.1599 20.38 33.1599ZM27.63 33.1599C27.6481 33.1619 27.6655 33.1679 27.6809 33.1776C27.6963 33.1872 27.7093 33.2002 27.7189 33.2156C27.7285 33.231 27.7345 33.2484 27.7365 33.2665C27.7384 33.2846 27.7362 33.3028 27.73 33.3199C27.725 33.3337 27.7171 33.3462 27.7067 33.3566C27.6963 33.367 27.6838 33.3749 27.67 33.3799H27.63C27.6094 33.3803 27.5891 33.3749 27.5714 33.3643C27.5537 33.3537 27.5394 33.3383 27.53 33.3199L27.51 33.2799C27.51 33.2099 27.56 33.1599 27.63 33.1599ZM17.13 34.3399C17.5544 34.324 17.9677 34.4773 18.279 34.7661C18.5903 35.0549 18.7741 35.4556 18.79 35.8799C18.8059 36.3043 18.6526 36.7176 18.3638 37.0289C18.075 37.3402 17.6744 37.524 17.25 37.5399C16.8257 37.5558 16.4124 37.4025 16.1011 37.1137C15.7898 36.8249 15.6059 36.4243 15.59 35.9999C15.5741 35.5756 15.7274 35.1623 16.0162 34.851C16.305 34.5397 16.7057 34.3558 17.13 34.3399ZM24.23 34.3399C24.6544 34.324 25.0677 34.4773 25.379 34.7661C25.6903 35.0549 25.8741 35.4556 25.89 35.8799C25.9059 36.3043 25.7526 36.7176 25.4638 37.0289C25.175 37.3402 24.7744 37.524 24.35 37.5399C23.9257 37.5545 23.5129 37.3999 23.2025 37.1102C22.8922 36.8205 22.7096 36.4193 22.695 35.9949C22.6804 35.5706 22.835 35.1578 23.1248 34.8475C23.4145 34.5371 23.8157 34.3545 24.24 34.3399H24.23ZM31.13 34.3399C31.5544 34.324 31.9677 34.4773 32.279 34.7661C32.5903 35.0549 32.7741 35.4556 32.79 35.8799C32.8059 36.3043 32.6526 36.7176 32.3638 37.0289C32.075 37.3402 31.6744 37.524 31.25 37.5399C31.0399 37.5478 30.8303 37.5142 30.6332 37.4411C30.436 37.368 30.2552 37.2567 30.1011 37.1137C29.9469 36.9707 29.8225 36.7988 29.7348 36.6077C29.6471 36.4166 29.5979 36.2101 29.59 35.9999C29.5821 35.7898 29.6157 35.5802 29.6888 35.3831C29.762 35.1859 29.8732 35.0051 30.0162 34.851C30.1592 34.6968 30.3312 34.5724 30.5223 34.4847C30.7134 34.397 30.9199 34.3478 31.13 34.3399ZM20.35 37.0999H20.37C20.44 37.0999 20.48 37.1499 20.49 37.2099C20.4897 37.2308 20.4834 37.251 20.472 37.2685C20.4606 37.2859 20.4444 37.2997 20.4255 37.3083C20.4065 37.3169 20.3855 37.3199 20.3649 37.3171C20.3443 37.3142 20.3249 37.3055 20.309 37.2921C20.2931 37.2786 20.2813 37.2609 20.2751 37.2411C20.2688 37.2212 20.2684 37.2 20.2737 37.1799C20.2791 37.1597 20.29 37.1415 20.3053 37.1274C20.3206 37.1132 20.3395 37.1037 20.36 37.0999H20.35ZM27.6 37.0999H27.62C27.69 37.0999 27.73 37.1499 27.74 37.2099C27.7397 37.2308 27.7334 37.251 27.722 37.2685C27.7106 37.2859 27.6944 37.2997 27.6755 37.3083C27.6565 37.3169 27.6355 37.3199 27.6149 37.3171C27.5943 37.3142 27.5749 37.3055 27.559 37.2921C27.5431 37.2786 27.5313 37.2609 27.5251 37.2411C27.5188 37.2212 27.5184 37.2 27.5237 37.1799C27.5291 37.1597 27.54 37.1415 27.5553 37.1274C27.5706 37.1132 27.5895 37.1037 27.61 37.0999H27.6ZM17.13 38.1399C17.5345 38.1399 17.9224 38.3006 18.2084 38.5866C18.4943 38.8726 18.655 39.2605 18.655 39.6649C18.655 40.0694 18.4943 40.4573 18.2084 40.7433C17.9224 41.0293 17.5345 41.1899 17.13 41.1899C16.7256 41.1899 16.3377 41.0293 16.0517 40.7433C15.7657 40.4573 15.605 40.0694 15.605 39.6649C15.605 39.2605 15.7657 38.8726 16.0517 38.5866C16.3377 38.3006 16.7256 38.1399 17.13 38.1399ZM24.23 38.1399C24.6345 38.1399 25.0224 38.3006 25.3084 38.5866C25.5943 38.8726 25.755 39.2605 25.755 39.6649C25.755 40.0694 25.5943 40.4573 25.3084 40.7433C25.0224 41.0293 24.6345 41.1899 24.23 41.1899C23.8256 41.1899 23.4377 41.0293 23.1517 40.7433C22.8657 40.4573 22.705 40.0694 22.705 39.6649C22.705 39.2605 22.8657 38.8726 23.1517 38.5866C23.4377 38.3006 23.8256 38.1399 24.23 38.1399ZM31.13 38.1399C31.5345 38.1399 31.9224 38.3006 32.2084 38.5866C32.4943 38.8726 32.655 39.2605 32.655 39.6649C32.655 40.0694 32.4943 40.4573 32.2084 40.7433C31.9224 41.0293 31.5345 41.1899 31.13 41.1899C30.7256 41.1899 30.3377 41.0293 30.0517 40.7433C29.7657 40.4573 29.605 40.0694 29.605 39.6649C29.605 39.2605 29.7657 38.8726 30.0517 38.5866C30.3377 38.3006 30.7256 38.1399 31.13 38.1399ZM20.36 41.0399H20.38C20.3955 41.0411 20.4105 41.0455 20.4241 41.0528C20.4377 41.0602 20.4497 41.0703 20.4591 41.0826C20.4685 41.0948 20.4753 41.109 20.4789 41.124C20.4825 41.1391 20.4829 41.1547 20.48 41.1699C20.4768 41.1859 20.4701 41.2009 20.4604 41.214C20.4507 41.227 20.4383 41.2377 20.4239 41.2454C20.4096 41.253 20.3937 41.2574 20.3775 41.2582C20.3612 41.259 20.345 41.2562 20.33 41.2499C20.3098 41.242 20.2923 41.2283 20.2799 41.2105C20.2674 41.1927 20.2605 41.1717 20.26 41.1499C20.2586 41.1355 20.2601 41.1209 20.2644 41.107C20.2687 41.0931 20.2757 41.0803 20.285 41.0691C20.2943 41.0579 20.3057 41.0487 20.3186 41.042C20.3315 41.0353 20.3456 41.0312 20.36 41.0299V41.0399ZM27.61 41.0399H27.63C27.6455 41.0411 27.6605 41.0455 27.6741 41.0528C27.6877 41.0602 27.6997 41.0703 27.7091 41.0826C27.7185 41.0948 27.7253 41.109 27.7289 41.124C27.7325 41.1391 27.7329 41.1547 27.73 41.1699C27.7268 41.1859 27.7201 41.2009 27.7104 41.214C27.7007 41.227 27.6883 41.2377 27.6739 41.2454C27.6596 41.253 27.6437 41.2574 27.6275 41.2582C27.6112 41.259 27.595 41.2562 27.58 41.2499C27.5598 41.242 27.5423 41.2283 27.5299 41.2105C27.5174 41.1927 27.5105 41.1717 27.51 41.1499C27.5086 41.1355 27.5101 41.1209 27.5144 41.107C27.5187 41.0931 27.5257 41.0803 27.535 41.0691C27.5443 41.0579 27.5557 41.0487 27.5686 41.042C27.5815 41.0353 27.5956 41.0312 27.61 41.0299V41.0399ZM20.36 41.5999H20.38C20.44 41.5999 20.48 41.6499 20.48 41.6999C20.4805 41.7173 20.4769 41.7346 20.4694 41.7504C20.4619 41.7661 20.4508 41.7798 20.437 41.7904C20.4232 41.801 20.407 41.8082 20.3899 41.8113C20.3728 41.8145 20.3551 41.8135 20.3385 41.8085C20.3218 41.8035 20.3065 41.7946 20.2939 41.7825C20.2814 41.7705 20.2718 41.7556 20.2661 41.7392C20.2604 41.7227 20.2587 41.7051 20.2611 41.6879C20.2635 41.6706 20.27 41.6542 20.28 41.6399C20.2893 41.6275 20.3014 41.6174 20.3153 41.6105C20.3292 41.6035 20.3445 41.5999 20.36 41.5999ZM27.61 41.5999H27.63C27.69 41.5999 27.73 41.6499 27.73 41.6999C27.7305 41.7173 27.7269 41.7346 27.7194 41.7504C27.7119 41.7661 27.7008 41.7798 27.687 41.7904C27.6732 41.801 27.657 41.8082 27.6399 41.8113C27.6228 41.8145 27.6051 41.8135 27.5885 41.8085C27.5718 41.8035 27.5565 41.7946 27.5439 41.7825C27.5314 41.7705 27.5218 41.7556 27.5161 41.7392C27.5104 41.7227 27.5087 41.7051 27.5111 41.6879C27.5135 41.6706 27.52 41.6542 27.53 41.6399C27.5393 41.6275 27.5514 41.6174 27.5653 41.6105C27.5792 41.6035 27.5945 41.5999 27.61 41.5999ZM20.38 42.1599C20.4092 42.1599 20.4372 42.1715 20.4578 42.1922C20.4784 42.2128 20.49 42.2408 20.49 42.2699C20.49 42.2991 20.4784 42.3271 20.4578 42.3477C20.4372 42.3683 20.4092 42.3799 20.38 42.3799C20.3508 42.3799 20.3229 42.3683 20.3022 42.3477C20.2816 42.3271 20.27 42.2991 20.27 42.2699C20.27 42.2408 20.2816 42.2128 20.3022 42.1922C20.3229 42.1715 20.3508 42.1599 20.38 42.1599ZM27.63 42.1599C27.6592 42.1599 27.6872 42.1715 27.7078 42.1922C27.7284 42.2128 27.74 42.2408 27.74 42.2699C27.74 42.2991 27.7284 42.3271 27.7078 42.3477C27.6872 42.3683 27.6592 42.3799 27.63 42.3799C27.6008 42.3799 27.5729 42.3683 27.5522 42.3477C27.5316 42.3271 27.52 42.2991 27.52 42.2699C27.52 42.2408 27.5316 42.2128 27.5522 42.1922C27.5729 42.1715 27.6008 42.1599 27.63 42.1599Z" fill="#333333"/>
</svg>
