<svg width="48" height="48" viewBox="0 0 48 48" fill="none" xmlns="http://www.w3.org/2000/svg">
<g clip-path="url(#clip0)">
<path fill-rule="evenodd" clip-rule="evenodd" d="M0 0.100098V48.1001H48V0.100098H0ZM28.9 4.0701C30.55 4.0701 32.2 4.0901 33.85 4.1201C34.72 4.1201 35.42 4.8201 35.42 5.6901V42.5501C35.42 43.4201 34.72 44.1201 33.85 44.1201H14.15C13.28 44.1201 12.58 43.4201 12.58 42.5501V5.6901C12.58 4.8201 13.28 4.1201 14.15 4.1201C19.12 4.1201 23.99 4.0601 28.91 4.0701H28.9V4.0701ZM20.37 5.0501C20.3555 5.05135 20.3415 5.05546 20.3286 5.06218C20.3157 5.0689 20.3043 5.07811 20.295 5.08927C20.2857 5.10042 20.2787 5.11331 20.2744 5.12718C20.2701 5.14106 20.2686 5.15564 20.27 5.1701C20.269 5.19557 20.2769 5.2206 20.2923 5.24092C20.3077 5.26123 20.3296 5.27557 20.3544 5.28147C20.3792 5.28737 20.4053 5.28448 20.4282 5.27329C20.4511 5.26209 20.4694 5.24329 20.48 5.2201C20.4903 5.20068 20.494 5.1784 20.4903 5.15671C20.4867 5.13501 20.4761 5.11512 20.46 5.1001C20.4463 5.08578 20.4291 5.07542 20.41 5.0701L20.37 5.0501ZM27.62 5.0501C27.6055 5.05135 27.5915 5.05546 27.5786 5.06218C27.5657 5.0689 27.5543 5.07811 27.545 5.08927C27.5357 5.10042 27.5287 5.11331 27.5244 5.12718C27.5201 5.14106 27.5186 5.15564 27.52 5.1701C27.519 5.19557 27.5269 5.2206 27.5423 5.24092C27.5577 5.26123 27.5796 5.27557 27.6044 5.28147C27.6292 5.28737 27.6553 5.28448 27.6782 5.27329C27.7011 5.26209 27.7194 5.24329 27.73 5.2201C27.7403 5.20068 27.744 5.1784 27.7403 5.15671C27.7367 5.13501 27.7261 5.11512 27.71 5.1001C27.6963 5.08578 27.6791 5.07542 27.66 5.0701L27.62 5.0501ZM20.37 5.6201C20.346 5.61855 20.3222 5.62489 20.3022 5.63815C20.2822 5.65141 20.267 5.67086 20.2591 5.69353C20.2512 5.7162 20.2509 5.74084 20.2583 5.7637C20.2656 5.78655 20.2803 5.80636 20.3 5.8201C20.3243 5.83263 20.3521 5.8365 20.3789 5.83108C20.4056 5.82566 20.4297 5.81127 20.4472 5.79029C20.4647 5.76931 20.4745 5.74299 20.475 5.71568C20.4755 5.68837 20.4667 5.66171 20.45 5.6401C20.4269 5.62331 20.3983 5.61614 20.37 5.6201V5.6201ZM27.62 5.6201C27.596 5.61855 27.5722 5.62489 27.5522 5.63815C27.5322 5.65141 27.517 5.67086 27.5091 5.69353C27.5012 5.7162 27.5009 5.74084 27.5083 5.7637C27.5156 5.78655 27.5303 5.80636 27.55 5.8201C27.5743 5.83263 27.6021 5.8365 27.6289 5.83108C27.6556 5.82566 27.6797 5.81127 27.6972 5.79029C27.7147 5.76931 27.7245 5.74299 27.725 5.71568C27.7255 5.68837 27.7167 5.66171 27.7 5.6401C27.6769 5.62331 27.6483 5.61614 27.62 5.6201V5.6201ZM20.36 6.1801C20.3435 6.18097 20.3274 6.18555 20.3129 6.1935C20.2984 6.20144 20.2859 6.21256 20.2763 6.22601C20.2667 6.23946 20.2602 6.25491 20.2574 6.2712C20.2546 6.28748 20.2555 6.3042 20.26 6.3201C20.27 6.34457 20.2879 6.36504 20.3108 6.37832C20.3337 6.3916 20.3603 6.39695 20.3865 6.39353C20.4128 6.3901 20.4371 6.37811 20.4559 6.3594C20.4746 6.3407 20.4866 6.31633 20.49 6.2901C20.49 6.26092 20.4784 6.23295 20.4578 6.21232C20.4372 6.19169 20.4092 6.1801 20.38 6.1801H20.36V6.1801ZM27.61 6.1801C27.5935 6.18097 27.5774 6.18555 27.5629 6.1935C27.5484 6.20144 27.5359 6.21256 27.5263 6.22601C27.5167 6.23946 27.5102 6.25491 27.5074 6.2712C27.5046 6.28748 27.5055 6.3042 27.51 6.3201C27.52 6.34457 27.5379 6.36504 27.5608 6.37832C27.5837 6.3916 27.6103 6.39695 27.6365 6.39353C27.6628 6.3901 27.6871 6.37811 27.7059 6.3594C27.7246 6.3407 27.7366 6.31633 27.74 6.2901C27.74 6.26092 27.7284 6.23295 27.7078 6.21232C27.6872 6.19169 27.6592 6.1801 27.63 6.1801H27.61V6.1801ZM20.38 6.7401C20.3583 6.74059 20.3372 6.7475 20.3194 6.75995C20.3016 6.77241 20.2879 6.78986 20.28 6.8101C20.2731 6.82526 20.2697 6.84179 20.2702 6.85844C20.2706 6.87509 20.2748 6.89143 20.2825 6.90622C20.2901 6.921 20.301 6.93386 20.3144 6.94382C20.3278 6.95377 20.3432 6.96056 20.3596 6.96368C20.3759 6.96679 20.3928 6.96615 20.4089 6.96181C20.4249 6.95746 20.4398 6.94952 20.4524 6.93858C20.4649 6.92764 20.4748 6.91399 20.4814 6.89867C20.4879 6.88334 20.4908 6.86673 20.49 6.8501C20.4912 6.83537 20.4892 6.82057 20.484 6.80673C20.4788 6.7929 20.4706 6.78039 20.46 6.7701C20.4493 6.76001 20.4368 6.75217 20.423 6.74701C20.4093 6.74186 20.3947 6.73951 20.38 6.7401V6.7401ZM27.63 6.7401C27.6083 6.74059 27.5872 6.7475 27.5694 6.75995C27.5516 6.77241 27.5379 6.78986 27.53 6.8101C27.5231 6.82526 27.5197 6.84179 27.5202 6.85844C27.5206 6.87509 27.5248 6.89143 27.5325 6.90622C27.5401 6.921 27.551 6.93386 27.5644 6.94382C27.5778 6.95377 27.5932 6.96056 27.6096 6.96368C27.6259 6.96679 27.6428 6.96615 27.6589 6.96181C27.6749 6.95746 27.6898 6.94952 27.7024 6.93858C27.7149 6.92764 27.7248 6.91399 27.7314 6.89867C27.7379 6.88334 27.7408 6.86673 27.74 6.8501C27.7412 6.83537 27.7392 6.82057 27.734 6.80673C27.7288 6.7929 27.7206 6.78039 27.71 6.7701C27.6993 6.76001 27.6868 6.75217 27.673 6.74701C27.6593 6.74186 27.6447 6.73951 27.63 6.7401V6.7401ZM16.73 7.2401C16.5199 7.2401 16.3118 7.28148 16.1177 7.36189C15.9236 7.4423 15.7472 7.56015 15.5986 7.70873C15.4501 7.8573 15.3322 8.03368 15.2518 8.2278C15.1714 8.42193 15.13 8.62998 15.13 8.8401C15.13 9.05021 15.1714 9.25827 15.2518 9.45239C15.3322 9.64651 15.4501 9.82289 15.5986 9.97147C15.7472 10.12 15.9236 10.2379 16.1177 10.3183C16.3118 10.3987 16.5199 10.4401 16.73 10.4401C17.1543 10.4401 17.5613 10.2715 17.8614 9.97147C18.1614 9.67141 18.33 9.26444 18.33 8.8401C18.33 8.41575 18.1614 8.00879 17.8614 7.70873C17.5613 7.40867 17.1543 7.2401 16.73 7.2401ZM31.27 7.2401C31.0599 7.2355 30.8509 7.27234 30.655 7.3485C30.4592 7.42466 30.2802 7.53865 30.1284 7.68398C29.8218 7.97747 29.6443 8.38075 29.635 8.8051C29.6257 9.22944 29.7854 9.6401 30.0789 9.94672C30.3724 10.2533 30.7757 10.4308 31.2 10.4401C31.6243 10.4494 32.035 10.2897 32.3416 9.99622C32.6482 9.70272 32.8257 9.29944 32.835 8.8751C32.8443 8.45075 32.6846 8.0401 32.3911 7.73348C32.0976 7.42685 31.6943 7.24938 31.27 7.2401V7.2401ZM20.37 7.3001C20.346 7.29855 20.3222 7.30489 20.3022 7.31815C20.2822 7.33141 20.267 7.35086 20.2591 7.37353C20.2512 7.3962 20.2509 7.42084 20.2583 7.4437C20.2656 7.46655 20.2803 7.48636 20.3 7.5001C20.3158 7.51487 20.3356 7.52464 20.357 7.5282C20.3783 7.53175 20.4002 7.52894 20.42 7.5201C20.4342 7.51467 20.4471 7.50638 20.4579 7.49573C20.4687 7.48508 20.4772 7.47231 20.4828 7.45822C20.4884 7.44413 20.4911 7.42903 20.4906 7.41387C20.4901 7.3987 20.4865 7.3838 20.48 7.3701C20.4732 7.35464 20.4629 7.34095 20.45 7.3301C20.4393 7.32001 20.4268 7.31217 20.413 7.30701C20.3993 7.30186 20.3847 7.29951 20.37 7.3001V7.3001ZM27.62 7.3001C27.596 7.29855 27.5722 7.30489 27.5522 7.31815C27.5322 7.33141 27.517 7.35086 27.5091 7.37353C27.5012 7.3962 27.5009 7.42084 27.5083 7.4437C27.5156 7.46655 27.5303 7.48636 27.55 7.5001C27.5658 7.51487 27.5856 7.52464 27.607 7.5282C27.6283 7.53175 27.6502 7.52894 27.67 7.5201C27.6842 7.51467 27.6971 7.50638 27.7079 7.49573C27.7187 7.48508 27.7272 7.47231 27.7328 7.45822C27.7384 7.44413 27.7411 7.42903 27.7406 7.41387C27.7401 7.3987 27.7365 7.3838 27.73 7.3701C27.7232 7.35464 27.7129 7.34095 27.7 7.3301C27.6893 7.32001 27.6768 7.31217 27.663 7.30701C27.6493 7.30186 27.6347 7.29951 27.62 7.3001V7.3001ZM20.37 7.8601C20.346 7.85855 20.3222 7.86489 20.3022 7.87815C20.2822 7.89141 20.267 7.91086 20.2591 7.93353C20.2512 7.9562 20.2509 7.98084 20.2583 8.0037C20.2656 8.02655 20.2803 8.04636 20.3 8.0601C20.3225 8.07999 20.3521 8.09011 20.3821 8.08823C20.4121 8.08636 20.4401 8.07264 20.46 8.0501C20.4799 8.02755 20.49 7.99803 20.4881 7.96803C20.4863 7.93802 20.4725 7.90999 20.45 7.8901C20.4393 7.88001 20.4268 7.87217 20.413 7.86701C20.3993 7.86186 20.3847 7.85951 20.37 7.8601V7.8601ZM27.62 7.8601C27.596 7.85855 27.5722 7.86489 27.5522 7.87815C27.5322 7.89141 27.517 7.91086 27.5091 7.93353C27.5012 7.9562 27.5009 7.98084 27.5083 8.0037C27.5156 8.02655 27.5303 8.04636 27.55 8.0601C27.5658 8.07487 27.5856 8.08464 27.607 8.0882C27.6283 8.09175 27.6502 8.08894 27.67 8.0801C27.6842 8.07467 27.6971 8.06638 27.7079 8.05573C27.7187 8.04508 27.7272 8.03231 27.7328 8.01822C27.7384 8.00413 27.7411 7.98903 27.7406 7.97387C27.7401 7.9587 27.7365 7.9438 27.73 7.9301C27.7232 7.91464 27.7129 7.90095 27.7 7.8901C27.6893 7.88001 27.6768 7.87217 27.663 7.86701C27.6493 7.86186 27.6347 7.85951 27.62 7.8601V7.8601ZM20.37 8.4301C20.3556 8.43075 20.3414 8.43425 20.3283 8.44038C20.3152 8.44652 20.3034 8.45517 20.2937 8.46585C20.274 8.48742 20.2637 8.51592 20.265 8.5451C20.2663 8.57427 20.2792 8.60172 20.3008 8.62141C20.3223 8.64111 20.3508 8.65142 20.38 8.6501C20.4092 8.64877 20.4366 8.63591 20.4563 8.61434C20.476 8.59278 20.4863 8.56427 20.485 8.5351C20.4837 8.50592 20.4708 8.47847 20.4492 8.45878C20.4277 8.43909 20.3992 8.42877 20.37 8.4301V8.4301ZM27.62 8.4301C27.6056 8.43075 27.5914 8.43425 27.5783 8.44038C27.5652 8.44652 27.5534 8.45517 27.5437 8.46585C27.5339 8.47653 27.5264 8.48902 27.5215 8.50262C27.5165 8.51622 27.5143 8.53065 27.515 8.5451C27.5157 8.55954 27.5192 8.57372 27.5253 8.58681C27.5314 8.59991 27.5401 8.61166 27.5508 8.62141C27.5614 8.63116 27.5739 8.63872 27.5875 8.64364C27.6011 8.64856 27.6156 8.65075 27.63 8.6501C27.6592 8.64877 27.6866 8.63591 27.7063 8.61434C27.726 8.59278 27.7363 8.56427 27.735 8.5351C27.7337 8.50592 27.7208 8.47847 27.6992 8.45878C27.6777 8.43909 27.6492 8.42877 27.62 8.4301V8.4301ZM20.37 8.9901C20.3426 8.9926 20.3171 9.00528 20.2986 9.02565C20.2801 9.04601 20.2699 9.07258 20.27 9.1001C20.27 9.1601 20.31 9.2101 20.37 9.2101C20.3853 9.21149 20.4007 9.20968 20.4152 9.20478C20.4297 9.19988 20.443 9.192 20.4543 9.18164C20.4656 9.17128 20.4746 9.15868 20.4808 9.14464C20.4869 9.13059 20.4901 9.11542 20.49 9.1001C20.4893 9.08471 20.4854 9.06963 20.4785 9.05585C20.4716 9.04207 20.4619 9.02989 20.45 9.0201C20.4393 9.01001 20.4268 9.00217 20.413 8.99701C20.3993 8.99186 20.3847 8.98951 20.37 8.9901V8.9901ZM27.62 8.9901C27.5926 8.9926 27.5671 9.00528 27.5486 9.02565C27.5301 9.04601 27.5199 9.07258 27.52 9.1001C27.52 9.1601 27.56 9.2101 27.62 9.2101C27.6353 9.21149 27.6507 9.20968 27.6652 9.20478C27.6797 9.19988 27.693 9.192 27.7043 9.18164C27.7156 9.17128 27.7246 9.15868 27.7308 9.14464C27.7369 9.13059 27.7401 9.11542 27.74 9.1001C27.7393 9.08471 27.7354 9.06963 27.7285 9.05585C27.7216 9.04207 27.7119 9.02989 27.7 9.0201C27.6893 9.01001 27.6768 9.00217 27.663 8.99701C27.6493 8.99186 27.6347 8.98951 27.62 8.9901V8.9901ZM24 9.0701C23.7899 9.0701 23.5818 9.11148 23.3877 9.19189C23.1936 9.2723 23.0172 9.39015 22.8686 9.53873C22.7201 9.6873 22.6022 9.86368 22.5218 10.0578C22.4414 10.2519 22.4 10.46 22.4 10.6701C22.4 10.8802 22.4414 11.0883 22.5218 11.2824C22.6022 11.4765 22.7201 11.6529 22.8686 11.8015C23.0172 11.95 23.1936 12.0679 23.3877 12.1483C23.5818 12.2287 23.7899 12.2701 24 12.2701C24.4243 12.2701 24.8313 12.1015 25.1314 11.8015C25.4314 11.5014 25.6 11.0944 25.6 10.6701C25.6 10.2458 25.4314 9.83879 25.1314 9.53873C24.8313 9.23867 24.4243 9.0701 24 9.0701ZM20.37 9.5501C20.3426 9.5526 20.3171 9.56528 20.2986 9.58565C20.2801 9.60601 20.2699 9.63258 20.27 9.6601C20.2635 9.68423 20.2653 9.70988 20.2753 9.73281C20.2853 9.75573 20.3028 9.77457 20.3249 9.78622C20.3471 9.79787 20.3725 9.80163 20.3971 9.79688C20.4216 9.79213 20.4438 9.77916 20.46 9.7601C20.4729 9.74722 20.4824 9.73134 20.4876 9.71388C20.4929 9.69643 20.4937 9.67795 20.49 9.6601C20.4888 9.63716 20.4804 9.61519 20.4661 9.59726C20.4517 9.57932 20.4321 9.56633 20.41 9.5601H20.37V9.5501V9.5501ZM27.62 9.5501C27.5926 9.5526 27.5671 9.56528 27.5486 9.58565C27.5301 9.60601 27.5199 9.63258 27.52 9.6601C27.5135 9.68423 27.5153 9.70988 27.5253 9.73281C27.5353 9.75573 27.5528 9.77457 27.5749 9.78622C27.5971 9.79787 27.6225 9.80163 27.6471 9.79688C27.6716 9.79213 27.6938 9.77916 27.71 9.7601C27.7229 9.74722 27.7324 9.73134 27.7376 9.71388C27.7429 9.69643 27.7437 9.67795 27.74 9.6601C27.7388 9.63716 27.7304 9.61519 27.7161 9.59726C27.7017 9.57932 27.6821 9.56633 27.66 9.5601H27.62V9.5501V9.5501ZM20.35 10.1101C20.3 10.1201 20.26 10.1701 20.26 10.2301C20.258 10.2464 20.2596 10.2629 20.2648 10.2785C20.27 10.2941 20.2786 10.3083 20.29 10.3201C20.2987 10.334 20.3105 10.3457 20.3244 10.3545C20.3383 10.3633 20.3539 10.3688 20.3702 10.3707C20.3865 10.3726 20.403 10.3709 20.4186 10.3656C20.4341 10.3603 20.4483 10.3516 20.46 10.3401C20.476 10.3237 20.4865 10.3027 20.49 10.2801V10.2301C20.4894 10.2058 20.4814 10.1823 20.4671 10.1627C20.4528 10.143 20.4329 10.1282 20.41 10.1201L20.36 10.1101H20.35V10.1101ZM27.6 10.1101C27.55 10.1201 27.51 10.1701 27.51 10.2301C27.508 10.2464 27.5096 10.2629 27.5148 10.2785C27.52 10.2941 27.5286 10.3083 27.54 10.3201C27.5487 10.334 27.5605 10.3457 27.5744 10.3545C27.5883 10.3633 27.6039 10.3688 27.6202 10.3707C27.6365 10.3726 27.653 10.3709 27.6686 10.3656C27.6841 10.3603 27.6983 10.3516 27.71 10.3401C27.726 10.3237 27.7365 10.3027 27.74 10.2801V10.2301C27.7394 10.2058 27.7314 10.1823 27.7171 10.1627C27.7028 10.143 27.6829 10.1282 27.66 10.1201L27.61 10.1101H27.6V10.1101ZM20.38 10.6701C20.3563 10.6667 20.3322 10.6719 20.312 10.6847C20.2918 10.6975 20.2769 10.7172 20.27 10.7401L20.26 10.7901C20.26 10.8501 20.31 10.8901 20.38 10.8901C20.4015 10.886 20.4214 10.8756 20.4369 10.8602C20.4525 10.8448 20.4631 10.8251 20.4674 10.8036C20.4717 10.7821 20.4695 10.7598 20.4611 10.7396C20.4526 10.7194 20.4383 10.7021 20.42 10.6901C20.4082 10.6808 20.3946 10.674 20.38 10.6701ZM27.63 10.6701C27.6063 10.6667 27.5822 10.6719 27.562 10.6847C27.5418 10.6975 27.5269 10.7172 27.52 10.7401L27.51 10.7901C27.51 10.8501 27.56 10.8901 27.63 10.8901C27.6515 10.886 27.6714 10.8756 27.6869 10.8602C27.7025 10.8448 27.7131 10.8251 27.7174 10.8036C27.7217 10.7821 27.7195 10.7598 27.7111 10.7396C27.7026 10.7194 27.6883 10.7021 27.67 10.6901C27.6582 10.6808 27.6446 10.674 27.63 10.6701ZM16.73 11.0701C16.3057 11.0701 15.8987 11.2387 15.5986 11.5387C15.2986 11.8388 15.13 12.2458 15.13 12.6701C15.13 13.0944 15.2986 13.5014 15.5986 13.8015C15.8987 14.1015 16.3057 14.2701 16.73 14.2701C17.1543 14.2701 17.5613 14.1015 17.8614 13.8015C18.1614 13.5014 18.33 13.0944 18.33 12.6701C18.33 12.2458 18.1614 11.8388 17.8614 11.5387C17.5613 11.2387 17.1543 11.0701 16.73 11.0701V11.0701ZM31.27 11.0701C31.0599 11.0655 30.8509 11.1023 30.655 11.1785C30.4592 11.2547 30.2802 11.3687 30.1284 11.514C29.9766 11.6593 29.8548 11.8331 29.7702 12.0255C29.6855 12.2178 29.6396 12.425 29.635 12.6351C29.6304 12.8452 29.6672 13.0542 29.7434 13.2501C29.8196 13.4459 29.9336 13.6249 30.0789 13.7767C30.2242 13.9285 30.398 14.0503 30.5904 14.1349C30.7827 14.2196 30.9899 14.2655 31.2 14.2701C31.6243 14.2794 32.035 14.1197 32.3416 13.8262C32.6482 13.5327 32.8257 13.1294 32.835 12.7051C32.8443 12.2808 32.6846 11.8701 32.3911 11.5635C32.0976 11.2569 31.6943 11.0794 31.27 11.0701V11.0701ZM20.37 11.2401C20.3492 11.2384 20.3283 11.2432 20.3103 11.254C20.2924 11.2648 20.2783 11.2809 20.27 11.3001C20.2589 11.321 20.2548 11.345 20.2584 11.3684C20.262 11.3918 20.2731 11.4135 20.29 11.4301C20.3018 11.4415 20.316 11.4501 20.3316 11.4553C20.3472 11.4605 20.3637 11.4621 20.38 11.4601C20.4092 11.4601 20.4372 11.4485 20.4578 11.4279C20.4784 11.4073 20.49 11.3793 20.49 11.3501C20.49 11.3209 20.4784 11.2929 20.4578 11.2723C20.4372 11.2517 20.4092 11.2401 20.38 11.2401H20.37V11.2401ZM27.63 11.2401C27.6062 11.2355 27.5815 11.2388 27.5598 11.2497C27.5381 11.2605 27.5206 11.2783 27.51 11.3001C27.5001 11.3221 27.4976 11.3467 27.503 11.3702C27.5085 11.3937 27.5214 11.4147 27.54 11.4301C27.5518 11.4415 27.566 11.4501 27.5816 11.4553C27.5972 11.4605 27.6137 11.4621 27.63 11.4601C27.6592 11.4601 27.6872 11.4485 27.7078 11.4279C27.7284 11.4073 27.74 11.3793 27.74 11.3501C27.74 11.3209 27.7284 11.2929 27.7078 11.2723C27.6872 11.2517 27.6592 11.2401 27.63 11.2401V11.2401ZM20.37 11.8001C20.3395 11.8001 20.3102 11.8122 20.2887 11.8338C20.2671 11.8553 20.255 11.8846 20.255 11.9151C20.255 11.9456 20.2671 11.9748 20.2887 11.9964C20.3102 12.018 20.3395 12.0301 20.37 12.0301C20.3949 12.0345 20.4206 12.0302 20.4427 12.0179C20.4648 12.0057 20.482 11.9861 20.4914 11.9626C20.5008 11.9392 20.5018 11.9132 20.4942 11.889C20.4867 11.8649 20.4711 11.8441 20.45 11.8301C20.4393 11.82 20.4268 11.8122 20.413 11.807C20.3993 11.8019 20.3847 11.7995 20.37 11.8001V11.8001ZM27.62 11.8001C27.5895 11.8001 27.5602 11.8122 27.5387 11.8338C27.5171 11.8553 27.505 11.8846 27.505 11.9151C27.505 11.9456 27.5171 11.9748 27.5387 11.9964C27.5602 12.018 27.5895 12.0301 27.62 12.0301C27.6449 12.0345 27.6706 12.0302 27.6927 12.0179C27.7148 12.0057 27.732 11.9861 27.7414 11.9626C27.7508 11.9392 27.7518 11.9132 27.7442 11.889C27.7367 11.8649 27.7211 11.8441 27.7 11.8301C27.6893 11.82 27.6768 11.8122 27.663 11.807C27.6493 11.8019 27.6347 11.7995 27.62 11.8001ZM20.37 12.3601C20.3395 12.3601 20.3102 12.3722 20.2887 12.3938C20.2671 12.4153 20.255 12.4446 20.255 12.4751C20.255 12.5056 20.2671 12.5348 20.2887 12.5564C20.3102 12.578 20.3395 12.5901 20.37 12.5901C20.389 12.5904 20.4078 12.5859 20.4245 12.5768C20.4412 12.5678 20.4552 12.5545 20.4653 12.5384C20.4754 12.5223 20.4811 12.5039 20.4819 12.4849C20.4827 12.4659 20.4786 12.447 20.47 12.4301C20.4621 12.4099 20.4484 12.3924 20.4306 12.38C20.4128 12.3675 20.3917 12.3606 20.37 12.3601V12.3601ZM27.62 12.3601C27.5895 12.3601 27.5602 12.3722 27.5387 12.3938C27.5171 12.4153 27.505 12.4446 27.505 12.4751C27.505 12.5056 27.5171 12.5348 27.5387 12.5564C27.5602 12.578 27.5895 12.5901 27.62 12.5901C27.639 12.5904 27.6578 12.5859 27.6745 12.5768C27.6912 12.5678 27.7052 12.5545 27.7153 12.5384C27.7254 12.5223 27.7311 12.5039 27.7319 12.4849C27.7327 12.4659 27.7286 12.447 27.72 12.4301C27.7121 12.4099 27.6984 12.3924 27.6806 12.38C27.6628 12.3675 27.6417 12.3606 27.62 12.3601V12.3601ZM24 12.9001C23.7899 12.9001 23.5818 12.9415 23.3877 13.0219C23.1936 13.1023 23.0172 13.2202 22.8686 13.3687C22.7201 13.5173 22.6022 13.6937 22.5218 13.8878C22.4414 14.0819 22.4 14.29 22.4 14.5001C22.4 14.7102 22.4414 14.9183 22.5218 15.1124C22.6022 15.3065 22.7201 15.4829 22.8686 15.6315C23.0172 15.78 23.1936 15.8979 23.3877 15.9783C23.5818 16.0587 23.7899 16.1001 24 16.1001C24.4243 16.1001 24.8313 15.9315 25.1314 15.6315C25.4314 15.3314 25.6 14.9244 25.6 14.5001C25.6 14.0758 25.4314 13.6688 25.1314 13.3687C24.8313 13.0687 24.4243 12.9001 24 12.9001V12.9001ZM20.37 12.9301C20.3483 12.9306 20.3272 12.9375 20.3094 12.95C20.2916 12.9624 20.2779 12.9799 20.27 13.0001C20.2637 13.0143 20.2604 13.0296 20.2604 13.0451C20.2604 13.0606 20.2637 13.0759 20.27 13.0901C20.2777 13.1027 20.2879 13.1136 20.2999 13.1222C20.3119 13.1308 20.3256 13.1369 20.34 13.1401C20.3555 13.148 20.3726 13.1521 20.39 13.1521C20.4074 13.1521 20.4245 13.148 20.44 13.1401C20.4678 13.1308 20.4909 13.1108 20.504 13.0846C20.5171 13.0583 20.5193 13.0279 20.51 13.0001C20.5007 12.9722 20.4808 12.9492 20.4545 12.9361C20.4282 12.923 20.3978 12.9208 20.37 12.9301V12.9301ZM27.62 12.9301C27.5983 12.9306 27.5772 12.9375 27.5594 12.95C27.5416 12.9624 27.5279 12.9799 27.52 13.0001C27.5137 13.0143 27.5104 13.0296 27.5104 13.0451C27.5104 13.0606 27.5137 13.0759 27.52 13.0901C27.5277 13.1027 27.5379 13.1136 27.5499 13.1222C27.5619 13.1308 27.5756 13.1369 27.59 13.1401C27.6055 13.148 27.6226 13.1521 27.64 13.1521C27.6574 13.1521 27.6745 13.148 27.69 13.1401C27.7038 13.1355 27.7165 13.1282 27.7275 13.1187C27.7385 13.1092 27.7475 13.0976 27.754 13.0846C27.7605 13.0716 27.7644 13.0574 27.7654 13.0429C27.7664 13.0284 27.7646 13.0139 27.76 13.0001C27.7554 12.9863 27.7481 12.9736 27.7386 12.9626C27.7291 12.9516 27.7175 12.9426 27.7045 12.9361C27.6915 12.9296 27.6773 12.9257 27.6628 12.9247C27.6483 12.9237 27.6338 12.9255 27.62 12.9301V12.9301ZM20.37 13.4901C20.3471 13.4913 20.3251 13.4997 20.3072 13.514C20.2892 13.5284 20.2762 13.548 20.27 13.5701C20.2655 13.586 20.2646 13.6027 20.2674 13.619C20.2702 13.6353 20.2767 13.6507 20.2863 13.6642C20.2959 13.6776 20.3084 13.6888 20.3229 13.6967C20.3374 13.7046 20.3535 13.7092 20.37 13.7101C20.3949 13.7145 20.4206 13.7102 20.4427 13.6979C20.4648 13.6857 20.482 13.6661 20.4914 13.6426C20.5008 13.6192 20.5018 13.5932 20.4942 13.569C20.4867 13.5449 20.4711 13.5241 20.45 13.5101C20.4269 13.4933 20.3983 13.4861 20.37 13.4901ZM27.62 13.4901C27.6056 13.4894 27.5911 13.4916 27.5775 13.4966C27.5639 13.5015 27.5514 13.509 27.5408 13.5188C27.5301 13.5285 27.5214 13.5403 27.5153 13.5534C27.5092 13.5665 27.5057 13.5807 27.505 13.5951C27.5043 13.6095 27.5065 13.624 27.5115 13.6376C27.5164 13.6512 27.5239 13.6637 27.5337 13.6743C27.5434 13.685 27.5552 13.6937 27.5683 13.6998C27.5814 13.7059 27.5956 13.7094 27.61 13.7101C27.6392 13.7114 27.6677 13.7011 27.6892 13.6814C27.7108 13.6617 27.7237 13.6343 27.725 13.6051C27.7263 13.5759 27.716 13.5474 27.6963 13.5259C27.6766 13.5043 27.6492 13.4914 27.62 13.4901V13.4901ZM20.37 14.0501C20.3471 14.0513 20.3251 14.0597 20.3072 14.074C20.2892 14.0884 20.2762 14.108 20.27 14.1301C20.26 14.1558 20.26 14.1844 20.27 14.2101C20.2766 14.2246 20.2863 14.2374 20.2984 14.2478C20.3105 14.2581 20.3247 14.2658 20.34 14.2701C20.3692 14.2741 20.3987 14.2663 20.4222 14.2485C20.4456 14.2307 20.461 14.2043 20.465 14.1751C20.469 14.1459 20.4612 14.1164 20.4434 14.0929C20.4256 14.0695 20.3992 14.0541 20.37 14.0501V14.0501ZM27.62 14.0501C27.5971 14.0513 27.5751 14.0597 27.5572 14.074C27.5392 14.0884 27.5262 14.108 27.52 14.1301C27.51 14.1558 27.51 14.1844 27.52 14.2101C27.5266 14.2246 27.5363 14.2374 27.5484 14.2478C27.5605 14.2581 27.5747 14.2658 27.59 14.2701C27.6052 14.273 27.6209 14.2726 27.6359 14.269C27.651 14.2654 27.6651 14.2586 27.6774 14.2492C27.6896 14.2397 27.6998 14.2278 27.7071 14.2142C27.7145 14.2006 27.7189 14.1855 27.72 14.1701C27.7214 14.1556 27.7199 14.1411 27.7156 14.1272C27.7113 14.1133 27.7043 14.1004 27.695 14.0893C27.6857 14.0781 27.6743 14.0689 27.6614 14.0622C27.6485 14.0555 27.6345 14.0514 27.62 14.0501V14.0501ZM20.35 14.6101C20.3226 14.615 20.2981 14.6301 20.2814 14.6524C20.2647 14.6746 20.257 14.7024 20.26 14.7301C20.2609 14.7466 20.2654 14.7627 20.2734 14.7772C20.2813 14.7917 20.2925 14.8042 20.3059 14.8138C20.3194 14.8234 20.3348 14.8299 20.3511 14.8327C20.3674 14.8355 20.3841 14.8346 20.4 14.8301C20.4292 14.8248 20.455 14.8081 20.4719 14.7837C20.4888 14.7594 20.4953 14.7293 20.49 14.7001C20.4847 14.6709 20.468 14.6451 20.4436 14.6282C20.4193 14.6113 20.3892 14.6048 20.36 14.6101H20.35V14.6101ZM27.6 14.6101C27.5726 14.615 27.5481 14.6301 27.5314 14.6524C27.5147 14.6746 27.507 14.7024 27.51 14.7301C27.5109 14.7466 27.5154 14.7627 27.5234 14.7772C27.5313 14.7917 27.5425 14.8042 27.5559 14.8138C27.5694 14.8234 27.5848 14.8299 27.6011 14.8327C27.6174 14.8355 27.6341 14.8346 27.65 14.8301C27.6644 14.8275 27.6782 14.822 27.6906 14.8141C27.7029 14.8061 27.7136 14.7958 27.7219 14.7837C27.7303 14.7717 27.7362 14.7581 27.7393 14.7437C27.7424 14.7294 27.7426 14.7145 27.74 14.7001C27.7374 14.6857 27.7319 14.6719 27.724 14.6595C27.716 14.6472 27.7057 14.6365 27.6936 14.6282C27.6816 14.6198 27.668 14.6139 27.6536 14.6108C27.6393 14.6077 27.6244 14.6075 27.61 14.6101H27.6V14.6101ZM16.72 14.9101C16.5099 14.9048 16.3008 14.941 16.1047 15.0166C15.9085 15.0921 15.7292 15.2056 15.5769 15.3504C15.4246 15.4953 15.3024 15.6687 15.2171 15.8608C15.1318 16.053 15.0853 16.26 15.08 16.4701C15.0747 16.6802 15.1109 16.8893 15.1865 17.0854C15.262 17.2816 15.3755 17.4609 15.5203 17.6132C15.6652 17.7655 15.8386 17.8877 16.0308 17.973C16.2229 18.0583 16.4299 18.1048 16.64 18.1101C16.8501 18.1154 17.0592 18.0792 17.2553 18.0036C17.4515 17.9281 17.6308 17.8146 17.7831 17.6698C17.9354 17.5249 18.0576 17.3515 18.1429 17.1593C18.2282 16.9672 18.2747 16.7602 18.28 16.5501C18.2853 16.34 18.2491 16.1309 18.1735 15.9348C18.098 15.7386 17.9845 15.5593 17.8397 15.407C17.6948 15.2547 17.5214 15.1325 17.3292 15.0472C17.1371 14.9619 16.9301 14.9153 16.72 14.9101V14.9101ZM31.27 14.9101C31.0599 14.9055 30.8509 14.9423 30.655 15.0185C30.4592 15.0947 30.2802 15.2087 30.1284 15.354C29.9766 15.4993 29.8548 15.6731 29.7702 15.8655C29.6855 16.0578 29.6396 16.265 29.635 16.4751C29.6304 16.6852 29.6672 16.8942 29.7434 17.0901C29.8196 17.2859 29.9336 17.4649 30.0789 17.6167C30.2242 17.7685 30.398 17.8903 30.5904 17.9749C30.7827 18.0596 30.9899 18.1055 31.2 18.1101C31.6243 18.1194 32.035 17.9597 32.3416 17.6662C32.6482 17.3727 32.8257 16.9694 32.835 16.5451C32.8443 16.1208 32.6846 15.7101 32.3911 15.4035C32.0976 15.0969 31.6943 14.9194 31.27 14.9101V14.9101ZM20.36 15.1801C20.3369 15.1808 20.3146 15.1887 20.2962 15.2028C20.2779 15.2168 20.2645 15.2363 20.2578 15.2584C20.2512 15.2806 20.2517 15.3042 20.2593 15.3261C20.2668 15.3479 20.2811 15.3668 20.3 15.3801C20.3171 15.3946 20.3381 15.4035 20.3604 15.4057C20.3826 15.4079 20.4051 15.4033 20.4246 15.3924C20.4442 15.3815 20.4599 15.365 20.4698 15.3449C20.4797 15.3248 20.4833 15.3022 20.48 15.2801C20.4777 15.2543 20.4665 15.2302 20.4482 15.2119C20.4299 15.1936 20.4058 15.1824 20.38 15.1801H20.36ZM27.61 15.1801C27.5869 15.1808 27.5646 15.1887 27.5462 15.2028C27.5279 15.2168 27.5145 15.2363 27.5078 15.2584C27.5012 15.2806 27.5017 15.3042 27.5093 15.3261C27.5168 15.3479 27.5311 15.3668 27.55 15.3801C27.5671 15.3946 27.5881 15.4035 27.6104 15.4057C27.6326 15.4079 27.6551 15.4033 27.6746 15.3924C27.6942 15.3815 27.7099 15.365 27.7198 15.3449C27.7297 15.3248 27.7333 15.3022 27.73 15.2801C27.7277 15.2543 27.7165 15.2302 27.6982 15.2119C27.6799 15.1936 27.6558 15.1824 27.63 15.1801H27.61ZM20.38 15.7401C20.3562 15.7355 20.3315 15.7388 20.3098 15.7497C20.2881 15.7605 20.2706 15.7783 20.26 15.8001C20.2501 15.8221 20.2476 15.8467 20.253 15.8702C20.2585 15.8937 20.2714 15.9147 20.29 15.9301C20.3018 15.9415 20.316 15.9501 20.3316 15.9553C20.3472 15.9605 20.3637 15.9621 20.38 15.9601C20.4092 15.9601 20.4372 15.9485 20.4578 15.9279C20.4784 15.9073 20.49 15.8793 20.49 15.8501C20.49 15.8209 20.4784 15.7929 20.4578 15.7723C20.4372 15.7517 20.4092 15.7401 20.38 15.7401V15.7401ZM27.63 15.7401C27.6062 15.7355 27.5815 15.7388 27.5598 15.7497C27.5381 15.7605 27.5206 15.7783 27.51 15.8001C27.5001 15.8221 27.4976 15.8467 27.503 15.8702C27.5085 15.8937 27.5214 15.9147 27.54 15.9301C27.5518 15.9415 27.566 15.9501 27.5816 15.9553C27.5972 15.9605 27.6137 15.9621 27.63 15.9601C27.6592 15.9601 27.6872 15.9485 27.7078 15.9279C27.7284 15.9073 27.74 15.8793 27.74 15.8501C27.74 15.8209 27.7284 15.7929 27.7078 15.7723C27.6872 15.7517 27.6592 15.7401 27.63 15.7401V15.7401ZM20.37 16.3001C20.3426 16.3026 20.3171 16.3153 20.2986 16.3356C20.2801 16.356 20.2699 16.3826 20.27 16.4101C20.27 16.4701 20.31 16.5201 20.37 16.5201C20.3844 16.5201 20.3988 16.5173 20.4121 16.5117C20.4254 16.5062 20.4376 16.4981 20.4478 16.4879C20.458 16.4777 20.4661 16.4655 20.4716 16.4522C20.4772 16.4388 20.48 16.4245 20.48 16.4101C20.48 16.3957 20.4772 16.3813 20.4716 16.368C20.4661 16.3547 20.458 16.3425 20.4478 16.3323C20.4376 16.3221 20.4254 16.314 20.4121 16.3085C20.3988 16.3029 20.3844 16.3001 20.37 16.3001ZM27.62 16.3001C27.5926 16.3026 27.5671 16.3153 27.5486 16.3356C27.5301 16.356 27.5199 16.3826 27.52 16.4101C27.52 16.4701 27.56 16.5201 27.62 16.5201C27.6344 16.5201 27.6488 16.5173 27.6621 16.5117C27.6754 16.5062 27.6876 16.4981 27.6978 16.4879C27.708 16.4777 27.7161 16.4655 27.7216 16.4522C27.7272 16.4388 27.73 16.4245 27.73 16.4101C27.73 16.3957 27.7272 16.3813 27.7216 16.368C27.7161 16.3547 27.708 16.3425 27.6978 16.3323C27.6876 16.3221 27.6754 16.314 27.6621 16.3085C27.6488 16.3029 27.6344 16.3001 27.62 16.3001ZM24 16.7401C23.7899 16.7401 23.5818 16.7815 23.3877 16.8619C23.1936 16.9423 23.0172 17.0602 22.8686 17.2087C22.7201 17.3573 22.6022 17.5337 22.5218 17.7278C22.4414 17.9219 22.4 18.13 22.4 18.3401C22.4 18.5502 22.4414 18.7583 22.5218 18.9524C22.6022 19.1465 22.7201 19.3229 22.8686 19.4715C23.0172 19.62 23.1936 19.7379 23.3877 19.8183C23.5818 19.8987 23.7899 19.9401 24 19.9401C24.4243 19.9401 24.8313 19.7715 25.1314 19.4715C25.4314 19.1714 25.6 18.7644 25.6 18.3401C25.6 17.9158 25.4314 17.5088 25.1314 17.2087C24.8313 16.9087 24.4243 16.7401 24 16.7401V16.7401ZM20.37 17.9901C20.3451 17.9857 20.3194 17.99 20.2973 18.0023C20.2752 18.0145 20.258 18.0341 20.2486 18.0575C20.2392 18.081 20.2382 18.107 20.2458 18.1312C20.2533 18.1553 20.2689 18.1761 20.29 18.1901C20.3038 18.2013 20.3201 18.2089 20.3375 18.2124C20.355 18.2159 20.373 18.2151 20.39 18.2101C20.4131 18.2094 20.4354 18.2015 20.4538 18.1874C20.4721 18.1734 20.4855 18.1539 20.4922 18.1318C20.4988 18.1096 20.4983 18.0859 20.4907 18.0641C20.4832 18.0423 20.4689 18.0234 20.45 18.0101C20.4269 17.9933 20.3983 17.9861 20.37 17.9901V17.9901ZM27.62 17.9901C27.5951 17.9857 27.5694 17.99 27.5473 18.0023C27.5252 18.0145 27.508 18.0341 27.4986 18.0575C27.4892 18.081 27.4882 18.107 27.4958 18.1312C27.5033 18.1553 27.5189 18.1761 27.54 18.1901C27.5538 18.2013 27.5701 18.2089 27.5875 18.2124C27.605 18.2159 27.623 18.2151 27.64 18.2101C27.6631 18.2094 27.6854 18.2015 27.7038 18.1874C27.7221 18.1734 27.7355 18.1539 27.7422 18.1318C27.7488 18.1096 27.7483 18.0859 27.7407 18.0641C27.7332 18.0423 27.7189 18.0234 27.7 18.0101C27.6769 17.9933 27.6483 17.9861 27.62 17.9901V17.9901ZM20.37 18.5501C20.3483 18.5506 20.3272 18.5575 20.3094 18.57C20.2916 18.5824 20.2779 18.5999 20.27 18.6201C20.2637 18.6343 20.2604 18.6496 20.2604 18.6651C20.2604 18.6806 20.2637 18.6959 20.27 18.7101C20.2766 18.7246 20.2863 18.7374 20.2984 18.7478C20.3105 18.7581 20.3247 18.7658 20.34 18.7701C20.3552 18.773 20.3709 18.7726 20.3859 18.769C20.401 18.7654 20.4151 18.7586 20.4274 18.7492C20.4396 18.7397 20.4498 18.7278 20.4571 18.7142C20.4645 18.7006 20.4689 18.6855 20.47 18.6701C20.4714 18.6556 20.4699 18.6411 20.4656 18.6272C20.4613 18.6133 20.4543 18.6004 20.445 18.5893C20.4357 18.5781 20.4243 18.5689 20.4114 18.5622C20.3985 18.5555 20.3845 18.5514 20.37 18.5501V18.5501ZM27.62 18.5501C27.5983 18.5506 27.5772 18.5575 27.5594 18.57C27.5416 18.5824 27.5279 18.5999 27.52 18.6201C27.5137 18.6343 27.5104 18.6496 27.5104 18.6651C27.5104 18.6806 27.5137 18.6959 27.52 18.7101C27.5266 18.7246 27.5363 18.7374 27.5484 18.7478C27.5605 18.7581 27.5747 18.7658 27.59 18.7701C27.6052 18.773 27.6209 18.7726 27.6359 18.769C27.651 18.7654 27.6651 18.7586 27.6774 18.7492C27.6896 18.7397 27.6998 18.7278 27.7071 18.7142C27.7145 18.7006 27.7189 18.6855 27.72 18.6701C27.7214 18.6556 27.7199 18.6411 27.7156 18.6272C27.7113 18.6133 27.7043 18.6004 27.695 18.5893C27.6857 18.5781 27.6743 18.5689 27.6614 18.5622C27.6485 18.5555 27.6345 18.5514 27.62 18.5501V18.5501ZM16.72 18.7501C16.2957 18.7501 15.8887 18.9187 15.5886 19.2187C15.2886 19.5188 15.12 19.9258 15.12 20.3501C15.12 20.7744 15.2886 21.1814 15.5886 21.4815C15.8887 21.7815 16.2957 21.9501 16.72 21.9501C17.1443 21.9501 17.5513 21.7815 17.8514 21.4815C18.1514 21.1814 18.32 20.7744 18.32 20.3501C18.32 19.9258 18.1514 19.5188 17.8514 19.2187C17.5513 18.9187 17.1443 18.7501 16.72 18.7501ZM31.27 18.7501C31.0599 18.7455 30.8509 18.7823 30.655 18.8585C30.4592 18.9347 30.2802 19.0487 30.1284 19.194C29.9766 19.3393 29.8548 19.5131 29.7702 19.7055C29.6855 19.8978 29.6396 20.105 29.635 20.3151C29.6304 20.5252 29.6672 20.7342 29.7434 20.9301C29.8196 21.1259 29.9336 21.3049 30.0789 21.4567C30.2242 21.6085 30.398 21.7303 30.5904 21.8149C30.7827 21.8996 30.9899 21.9455 31.2 21.9501C31.6243 21.9594 32.035 21.7997 32.3416 21.5062C32.6482 21.2127 32.8257 20.8094 32.835 20.3851C32.8443 19.9608 32.6846 19.5501 32.3911 19.2435C32.0976 18.9369 31.6943 18.7594 31.27 18.7501ZM20.36 19.1101C20.3326 19.1126 20.3071 19.1253 20.2886 19.1456C20.2701 19.166 20.2599 19.1926 20.26 19.2201C20.2556 19.245 20.2599 19.2707 20.2722 19.2928C20.2844 19.3149 20.304 19.3321 20.3275 19.3415C20.3509 19.3509 20.3769 19.3519 20.4011 19.3443C20.4252 19.3368 20.446 19.3212 20.46 19.3001C20.4715 19.2884 20.4802 19.2742 20.4855 19.2587C20.4908 19.2431 20.4925 19.2266 20.4906 19.2103C20.4887 19.194 20.4832 19.1784 20.4744 19.1645C20.4656 19.1506 20.4539 19.1388 20.44 19.1301C20.4196 19.1157 20.3949 19.1086 20.37 19.1101H20.35H20.36V19.1101ZM27.61 19.1101C27.5826 19.1126 27.5571 19.1253 27.5386 19.1456C27.5201 19.166 27.5099 19.1926 27.51 19.2201C27.5056 19.245 27.5099 19.2707 27.5222 19.2928C27.5344 19.3149 27.554 19.3321 27.5775 19.3415C27.6009 19.3509 27.6269 19.3519 27.6511 19.3443C27.6752 19.3368 27.696 19.3212 27.71 19.3001C27.7215 19.2884 27.7302 19.2742 27.7355 19.2587C27.7408 19.2431 27.7425 19.2266 27.7406 19.2103C27.7387 19.194 27.7332 19.1784 27.7244 19.1645C27.7156 19.1506 27.7039 19.1388 27.69 19.1301C27.6696 19.1157 27.6449 19.1086 27.62 19.1101H27.6H27.61V19.1101ZM20.38 19.6701C20.3647 19.6687 20.3493 19.6705 20.3348 19.6754C20.3203 19.6803 20.307 19.6882 20.2957 19.6986C20.2844 19.7089 20.2754 19.7215 20.2692 19.7356C20.2631 19.7496 20.2599 19.7648 20.26 19.7801C20.2584 19.8035 20.2644 19.8268 20.2769 19.8466C20.2895 19.8664 20.3081 19.8816 20.33 19.8901L20.38 19.9001C20.4092 19.9054 20.4393 19.8989 20.4636 19.882C20.488 19.8651 20.5047 19.8393 20.51 19.8101C20.5153 19.7809 20.5088 19.7508 20.4919 19.7265C20.475 19.7021 20.4492 19.6854 20.42 19.6801H20.38V19.6701ZM27.63 19.6701C27.6147 19.6687 27.5993 19.6705 27.5848 19.6754C27.5703 19.6803 27.557 19.6882 27.5457 19.6986C27.5344 19.7089 27.5254 19.7215 27.5192 19.7356C27.5131 19.7496 27.5099 19.7648 27.51 19.7801C27.5084 19.8035 27.5144 19.8268 27.5269 19.8466C27.5395 19.8664 27.5581 19.8816 27.58 19.8901L27.63 19.9001C27.6592 19.9054 27.6893 19.8989 27.7136 19.882C27.738 19.8651 27.7547 19.8393 27.76 19.8101C27.7653 19.7809 27.7588 19.7508 27.7419 19.7265C27.725 19.7021 27.6992 19.6854 27.67 19.6801H27.63V19.6701ZM20.37 20.2301C20.3471 20.2313 20.3251 20.2397 20.3072 20.254C20.2892 20.2684 20.2762 20.288 20.27 20.3101C20.2637 20.3243 20.2604 20.3396 20.2604 20.3551C20.2604 20.3706 20.2637 20.3859 20.27 20.4001C20.2777 20.4127 20.2879 20.4236 20.2999 20.4322C20.3119 20.4408 20.3256 20.4469 20.34 20.4501C20.3552 20.453 20.3709 20.4526 20.3859 20.449C20.401 20.4454 20.4151 20.4386 20.4274 20.4292C20.4396 20.4197 20.4498 20.4078 20.4571 20.3942C20.4645 20.3806 20.4689 20.3655 20.47 20.3501C20.4714 20.3356 20.4699 20.3211 20.4656 20.3072C20.4613 20.2933 20.4543 20.2804 20.445 20.2693C20.4357 20.2581 20.4243 20.2489 20.4114 20.2422C20.3985 20.2355 20.3845 20.2314 20.37 20.2301V20.2301ZM27.62 20.2301C27.5971 20.2313 27.5751 20.2397 27.5572 20.254C27.5392 20.2684 27.5262 20.288 27.52 20.3101C27.5137 20.3243 27.5104 20.3396 27.5104 20.3551C27.5104 20.3706 27.5137 20.3859 27.52 20.4001C27.5277 20.4127 27.5379 20.4236 27.5499 20.4322C27.5619 20.4408 27.5756 20.4469 27.59 20.4501C27.6052 20.453 27.6209 20.4526 27.6359 20.449C27.651 20.4454 27.6651 20.4386 27.6774 20.4292C27.6896 20.4197 27.6998 20.4078 27.7071 20.3942C27.7145 20.3806 27.7189 20.3655 27.72 20.3501C27.7214 20.3356 27.7199 20.3211 27.7156 20.3072C27.7113 20.2933 27.7043 20.2804 27.695 20.2693C27.6857 20.2581 27.6743 20.2489 27.6614 20.2422C27.6485 20.2355 27.6345 20.2314 27.62 20.2301V20.2301ZM24 20.5801C23.7899 20.5748 23.5808 20.611 23.3847 20.6866C23.1885 20.7621 23.0092 20.8756 22.8569 21.0204C22.7046 21.1653 22.5824 21.3387 22.4971 21.5308C22.4118 21.723 22.3653 21.93 22.36 22.1401C22.3547 22.3502 22.3909 22.5593 22.4665 22.7554C22.542 22.9516 22.6555 23.1309 22.8003 23.2832C22.9452 23.4355 23.1186 23.5577 23.3108 23.643C23.5029 23.7283 23.7099 23.7748 23.92 23.7801C24.3443 23.7907 24.7555 23.6323 25.0631 23.3398C25.3706 23.0472 25.5494 22.6444 25.56 22.2201C25.5706 21.7958 25.4122 21.3846 25.1197 21.077C24.8271 20.7695 24.4243 20.5907 24 20.5801V20.5801ZM20.37 20.8001C20.3535 20.801 20.3374 20.8055 20.3229 20.8135C20.3084 20.8214 20.2959 20.8326 20.2863 20.846C20.2767 20.8595 20.2702 20.8749 20.2674 20.8912C20.2646 20.9075 20.2655 20.9242 20.27 20.9401C20.2757 20.96 20.2869 20.9779 20.3022 20.9918C20.3176 21.0056 20.3366 21.0148 20.357 21.0183C20.3774 21.0219 20.3984 21.0196 20.4176 21.0117C20.4367 21.0038 20.4533 20.9907 20.4653 20.9739C20.4773 20.957 20.4844 20.9371 20.4856 20.9165C20.4868 20.8958 20.4822 20.8752 20.4722 20.8571C20.4623 20.8389 20.4474 20.8239 20.4293 20.8139C20.4112 20.8038 20.3907 20.799 20.37 20.8001V20.8001ZM27.62 20.8001C27.6035 20.801 27.5874 20.8055 27.5729 20.8135C27.5584 20.8214 27.5459 20.8326 27.5363 20.846C27.5267 20.8595 27.5202 20.8749 27.5174 20.8912C27.5146 20.9075 27.5155 20.9242 27.52 20.9401C27.5257 20.96 27.5369 20.9779 27.5522 20.9918C27.5676 21.0056 27.5866 21.0148 27.607 21.0183C27.6274 21.0219 27.6484 21.0196 27.6676 21.0117C27.6867 21.0038 27.7033 20.9907 27.7153 20.9739C27.7273 20.957 27.7344 20.9371 27.7356 20.9165C27.7368 20.8958 27.7322 20.8752 27.7222 20.8571C27.7123 20.8389 27.6974 20.8239 27.6793 20.8139C27.6612 20.8038 27.6407 20.799 27.62 20.8001V20.8001ZM20.37 21.3601C20.3426 21.3626 20.3171 21.3753 20.2986 21.3956C20.2801 21.416 20.2699 21.4426 20.27 21.4701C20.265 21.4871 20.2642 21.5051 20.2677 21.5226C20.2712 21.54 20.2788 21.5563 20.29 21.5701C20.3003 21.5827 20.3133 21.5928 20.328 21.5997C20.3427 21.6067 20.3587 21.6103 20.375 21.6103C20.3913 21.6103 20.4073 21.6067 20.422 21.5997C20.4367 21.5928 20.4497 21.5827 20.46 21.5701C20.4712 21.5563 20.4788 21.54 20.4823 21.5226C20.4858 21.5051 20.485 21.4871 20.48 21.4701C20.48 21.4409 20.4684 21.4129 20.4478 21.3923C20.4272 21.3717 20.3992 21.3601 20.37 21.3601ZM27.62 21.3601C27.5926 21.3626 27.5671 21.3753 27.5486 21.3956C27.5301 21.416 27.5199 21.4426 27.52 21.4701C27.515 21.4871 27.5142 21.5051 27.5177 21.5226C27.5212 21.54 27.5288 21.5563 27.54 21.5701C27.5503 21.5827 27.5633 21.5928 27.578 21.5997C27.5927 21.6067 27.6087 21.6103 27.625 21.6103C27.6413 21.6103 27.6573 21.6067 27.672 21.5997C27.6867 21.5928 27.6997 21.5827 27.71 21.5701C27.7212 21.5563 27.7288 21.54 27.7323 21.5226C27.7358 21.5051 27.735 21.4871 27.73 21.4701C27.73 21.4409 27.7184 21.4129 27.6978 21.3923C27.6772 21.3717 27.6492 21.3601 27.62 21.3601ZM20.37 21.9201C20.3471 21.9213 20.3251 21.9297 20.3072 21.944C20.2892 21.9584 20.2762 21.978 20.27 22.0001C20.26 22.0258 20.26 22.0544 20.27 22.0801C20.2766 22.0946 20.2863 22.1074 20.2984 22.1178C20.3105 22.1281 20.3247 22.1358 20.34 22.1401C20.3692 22.1441 20.3987 22.1363 20.4222 22.1185C20.4456 22.1007 20.461 22.0743 20.465 22.0451C20.469 22.0159 20.4612 21.9864 20.4434 21.9629C20.4256 21.9395 20.3992 21.9241 20.37 21.9201V21.9201ZM27.62 21.9201C27.5971 21.9213 27.5751 21.9297 27.5572 21.944C27.5392 21.9584 27.5262 21.978 27.52 22.0001C27.51 22.0258 27.51 22.0544 27.52 22.0801C27.5266 22.0946 27.5363 22.1074 27.5484 22.1178C27.5605 22.1281 27.5747 22.1358 27.59 22.1401C27.6192 22.1441 27.6487 22.1363 27.6722 22.1185C27.6956 22.1007 27.711 22.0743 27.715 22.0451C27.719 22.0159 27.7112 21.9864 27.6934 21.9629C27.6756 21.9395 27.6492 21.9241 27.62 21.9201V21.9201ZM20.37 22.4801C20.3471 22.4813 20.3251 22.4897 20.3072 22.504C20.2892 22.5184 20.2762 22.538 20.27 22.5601C20.2641 22.577 20.2628 22.5952 20.2663 22.6128C20.2698 22.6304 20.278 22.6468 20.29 22.6601C20.3003 22.6727 20.3133 22.6828 20.328 22.6897C20.3427 22.6967 20.3587 22.7003 20.375 22.7003C20.3913 22.7003 20.4073 22.6967 20.422 22.6897C20.4367 22.6828 20.4497 22.6727 20.46 22.6601C20.4736 22.6437 20.4821 22.6236 20.4845 22.6025C20.487 22.5813 20.4832 22.5598 20.4736 22.5408C20.4641 22.5217 20.4492 22.5058 20.4308 22.495C20.4124 22.4843 20.3913 22.4791 20.37 22.4801V22.4801ZM27.62 22.4801C27.5971 22.4813 27.5751 22.4897 27.5572 22.504C27.5392 22.5184 27.5262 22.538 27.52 22.5601C27.5137 22.5743 27.5104 22.5896 27.5104 22.6051C27.5104 22.6206 27.5137 22.6359 27.52 22.6501C27.5277 22.6627 27.5379 22.6736 27.5499 22.6822C27.5619 22.6908 27.5756 22.6969 27.59 22.7001C27.6052 22.703 27.6209 22.7026 27.6359 22.699C27.651 22.6954 27.6651 22.6886 27.6774 22.6792C27.6896 22.6697 27.6998 22.6578 27.7071 22.6442C27.7145 22.6306 27.7189 22.6155 27.72 22.6001C27.7214 22.5856 27.7199 22.5711 27.7156 22.5572C27.7113 22.5433 27.7043 22.5304 27.695 22.5193C27.6857 22.5081 27.6743 22.4989 27.6614 22.4922C27.6485 22.4855 27.6345 22.4814 27.62 22.4801V22.4801ZM16.72 22.5801C16.2957 22.5801 15.8887 22.7487 15.5886 23.0487C15.2886 23.3488 15.12 23.7558 15.12 24.1801C15.12 24.6044 15.2886 25.0114 15.5886 25.3115C15.8887 25.6115 16.2957 25.7801 16.72 25.7801C17.1443 25.7801 17.5513 25.6115 17.8514 25.3115C18.1514 25.0114 18.32 24.6044 18.32 24.1801C18.32 23.7558 18.1514 23.3488 17.8514 23.0487C17.5513 22.7487 17.1443 22.5801 16.72 22.5801ZM31.27 22.5801C30.8457 22.5801 30.4387 22.7487 30.1386 23.0487C29.8386 23.3488 29.67 23.7558 29.67 24.1801C29.67 24.6044 29.8386 25.0114 30.1386 25.3115C30.4387 25.6115 30.8457 25.7801 31.27 25.7801C31.6943 25.7801 32.1013 25.6115 32.4014 25.3115C32.7014 25.0114 32.87 24.6044 32.87 24.1801C32.87 23.7558 32.7014 23.3488 32.4014 23.0487C32.1013 22.7487 31.6943 22.5801 31.27 22.5801ZM20.37 23.0501C20.3471 23.0513 20.3251 23.0597 20.3072 23.074C20.2892 23.0884 20.2762 23.108 20.27 23.1301C20.2655 23.146 20.2646 23.1627 20.2674 23.179C20.2702 23.1953 20.2767 23.2107 20.2863 23.2242C20.2959 23.2376 20.3084 23.2488 20.3229 23.2567C20.3374 23.2646 20.3535 23.2692 20.37 23.2701C20.3929 23.2689 20.4149 23.2605 20.4328 23.2461C20.4508 23.2318 20.4638 23.2122 20.47 23.1901C20.4745 23.1742 20.4754 23.1575 20.4726 23.1412C20.4698 23.1249 20.4633 23.1095 20.4537 23.096C20.4441 23.0826 20.4316 23.0714 20.4171 23.0635C20.4026 23.0555 20.3865 23.051 20.37 23.0501V23.0501ZM27.62 23.0501C27.6035 23.051 27.5874 23.0555 27.5729 23.0635C27.5584 23.0714 27.5459 23.0826 27.5363 23.096C27.5267 23.1095 27.5202 23.1249 27.5174 23.1412C27.5146 23.1575 27.5155 23.1742 27.52 23.1901C27.5257 23.21 27.5369 23.2279 27.5522 23.2418C27.5676 23.2556 27.5866 23.2648 27.607 23.2683C27.6274 23.2719 27.6484 23.2696 27.6676 23.2617C27.6867 23.2538 27.7033 23.2407 27.7153 23.2239C27.7273 23.207 27.7344 23.1871 27.7356 23.1665C27.7368 23.1458 27.7322 23.1252 27.7222 23.1071C27.7123 23.0889 27.6974 23.0739 27.6793 23.0639C27.6612 23.0538 27.6407 23.049 27.62 23.0501V23.0501ZM20.35 23.6101C20.3244 23.6148 20.3013 23.6285 20.2848 23.6486C20.2684 23.6688 20.2596 23.6941 20.26 23.7201C20.2611 23.7355 20.2655 23.7506 20.2729 23.7642C20.2802 23.7778 20.2904 23.7897 20.3026 23.7992C20.3149 23.8086 20.329 23.8154 20.3441 23.819C20.3591 23.8226 20.3748 23.823 20.39 23.8201C20.4047 23.8167 20.4186 23.8102 20.4307 23.8012C20.4429 23.7921 20.453 23.7807 20.4605 23.7675C20.468 23.7544 20.4728 23.7399 20.4744 23.7248C20.476 23.7098 20.4745 23.6945 20.47 23.6801C20.4621 23.6599 20.4484 23.6424 20.4306 23.63C20.4128 23.6175 20.3917 23.6106 20.37 23.6101H20.35V23.6101ZM27.6 23.6101C27.5744 23.6148 27.5513 23.6285 27.5348 23.6486C27.5184 23.6688 27.5096 23.6941 27.51 23.7201C27.5111 23.7355 27.5155 23.7506 27.5229 23.7642C27.5302 23.7778 27.5404 23.7897 27.5526 23.7992C27.5649 23.8086 27.579 23.8154 27.5941 23.819C27.6091 23.8226 27.6248 23.823 27.64 23.8201C27.6547 23.8167 27.6686 23.8102 27.6807 23.8012C27.6929 23.7921 27.703 23.7807 27.7105 23.7675C27.718 23.7544 27.7228 23.7399 27.7244 23.7248C27.726 23.7098 27.7245 23.6945 27.72 23.6801C27.7121 23.6599 27.6984 23.6424 27.6806 23.63C27.6628 23.6175 27.6417 23.6106 27.62 23.6101H27.6V23.6101ZM20.35 24.1701C20.3271 24.1713 20.3051 24.1797 20.2872 24.194C20.2692 24.2084 20.2562 24.228 20.25 24.2501C20.2445 24.2728 20.2464 24.2967 20.2554 24.3183C20.2644 24.3399 20.28 24.358 20.3 24.3701C20.3162 24.3846 20.3367 24.3934 20.3583 24.3952C20.38 24.397 20.4016 24.3917 20.42 24.3801C20.4384 24.3707 20.4537 24.3564 20.4643 24.3387C20.475 24.321 20.4804 24.3007 20.48 24.2801C20.4777 24.2543 20.4665 24.2302 20.4482 24.2119C20.4299 24.1936 20.4058 24.1824 20.38 24.1801H20.36L20.35 24.1701V24.1701ZM27.6 24.1701C27.5771 24.1713 27.5551 24.1797 27.5372 24.194C27.5192 24.2084 27.5062 24.228 27.5 24.2501C27.4945 24.2728 27.4964 24.2967 27.5054 24.3183C27.5144 24.3399 27.53 24.358 27.55 24.3701C27.5662 24.3846 27.5867 24.3934 27.6083 24.3952C27.63 24.397 27.6516 24.3917 27.67 24.3801C27.6884 24.3707 27.7037 24.3564 27.7143 24.3387C27.725 24.321 27.7304 24.3007 27.73 24.2801C27.7277 24.2543 27.7165 24.2302 27.6982 24.2119C27.6799 24.1936 27.6558 24.1824 27.63 24.1801H27.61L27.6 24.1701V24.1701ZM24 24.4101C23.7899 24.4048 23.5808 24.441 23.3847 24.5166C23.1885 24.5921 23.0092 24.7056 22.8569 24.8504C22.7046 24.9953 22.5824 25.1687 22.4971 25.3608C22.4118 25.553 22.3653 25.76 22.36 25.9701C22.3547 26.1802 22.3909 26.3893 22.4665 26.5854C22.542 26.7816 22.6555 26.9609 22.8003 27.1132C22.9452 27.2655 23.1186 27.3877 23.3108 27.473C23.5029 27.5583 23.7099 27.6048 23.92 27.6101C24.3443 27.6207 24.7555 27.4623 25.0631 27.1698C25.3706 26.8772 25.5494 26.4744 25.56 26.0501C25.5706 25.6258 25.4122 25.2146 25.1197 24.907C24.8271 24.5995 24.4243 24.4207 24 24.4101V24.4101ZM20.37 24.7301C20.3471 24.7313 20.3251 24.7397 20.3072 24.754C20.2892 24.7684 20.2762 24.788 20.27 24.8101C20.26 24.8358 20.26 24.8644 20.27 24.8901C20.2766 24.9046 20.2863 24.9174 20.2984 24.9278C20.3105 24.9381 20.3247 24.9458 20.34 24.9501C20.3692 24.9541 20.3987 24.9463 20.4222 24.9285C20.4456 24.9107 20.461 24.8843 20.465 24.8551C20.469 24.8259 20.4612 24.7964 20.4434 24.7729C20.4256 24.7495 20.3992 24.7341 20.37 24.7301V24.7301ZM27.62 24.7301C27.5971 24.7313 27.5751 24.7397 27.5572 24.754C27.5392 24.7684 27.5262 24.788 27.52 24.8101C27.51 24.8358 27.51 24.8644 27.52 24.8901C27.5266 24.9046 27.5363 24.9174 27.5484 24.9278C27.5605 24.9381 27.5747 24.9458 27.59 24.9501C27.6192 24.9541 27.6487 24.9463 27.6722 24.9285C27.6956 24.9107 27.711 24.8843 27.715 24.8551C27.719 24.8259 27.7112 24.7964 27.6934 24.7729C27.6756 24.7495 27.6492 24.7341 27.62 24.7301V24.7301ZM20.37 25.3001C20.3442 25.3023 20.3201 25.3136 20.3018 25.3319C20.2835 25.3502 20.2723 25.3743 20.27 25.4001C20.27 25.4701 20.31 25.5201 20.37 25.5201C20.3847 25.5213 20.3995 25.5193 20.4134 25.5141C20.4272 25.5089 20.4397 25.5007 20.45 25.4901C20.4663 25.4747 20.4776 25.4547 20.4822 25.4328C20.4869 25.4108 20.4847 25.388 20.476 25.3673C20.4673 25.3466 20.4525 25.3291 20.4335 25.3171C20.4146 25.3051 20.3924 25.2992 20.37 25.3001V25.3001ZM27.62 25.3001C27.5942 25.3023 27.5701 25.3136 27.5518 25.3319C27.5335 25.3502 27.5223 25.3743 27.52 25.4001C27.52 25.4701 27.56 25.5201 27.62 25.5201C27.6347 25.5213 27.6495 25.5193 27.6634 25.5141C27.6772 25.5089 27.6897 25.5007 27.7 25.4901C27.7163 25.4747 27.7276 25.4547 27.7322 25.4328C27.7369 25.4108 27.7347 25.388 27.726 25.3673C27.7173 25.3466 27.7025 25.3291 27.6835 25.3171C27.6646 25.3051 27.6424 25.2992 27.62 25.3001V25.3001ZM20.37 25.8601C20.3483 25.8606 20.3272 25.8675 20.3094 25.88C20.2916 25.8924 20.2779 25.9099 20.27 25.9301C20.2637 25.9443 20.2604 25.9596 20.2604 25.9751C20.2604 25.9906 20.2637 26.0059 20.27 26.0201C20.2766 26.0346 20.2863 26.0474 20.2984 26.0578C20.3105 26.0681 20.3247 26.0758 20.34 26.0801C20.3552 26.083 20.3709 26.0826 20.3859 26.079C20.401 26.0754 20.4151 26.0686 20.4274 26.0592C20.4396 26.0497 20.4498 26.0378 20.4571 26.0242C20.4645 26.0106 20.4689 25.9955 20.47 25.9801C20.4714 25.9656 20.4699 25.9511 20.4656 25.9372C20.4613 25.9233 20.4543 25.9104 20.445 25.8993C20.4357 25.8881 20.4243 25.8789 20.4114 25.8722C20.3985 25.8655 20.3845 25.8614 20.37 25.8601V25.8601ZM27.62 25.8601C27.5983 25.8606 27.5772 25.8675 27.5594 25.88C27.5416 25.8924 27.5279 25.9099 27.52 25.9301C27.5137 25.9443 27.5104 25.9596 27.5104 25.9751C27.5104 25.9906 27.5137 26.0059 27.52 26.0201C27.5266 26.0346 27.5363 26.0474 27.5484 26.0578C27.5605 26.0681 27.5747 26.0758 27.59 26.0801C27.6052 26.083 27.6209 26.0826 27.6359 26.079C27.651 26.0754 27.6651 26.0686 27.6774 26.0592C27.6896 26.0497 27.6998 26.0378 27.7071 26.0242C27.7145 26.0106 27.7189 25.9955 27.72 25.9801C27.7214 25.9656 27.7199 25.9511 27.7156 25.9372C27.7113 25.9233 27.7043 25.9104 27.695 25.8993C27.6857 25.8881 27.6743 25.8789 27.6614 25.8722C27.6485 25.8655 27.6345 25.8614 27.62 25.8601V25.8601ZM20.37 26.4201C20.3479 26.4191 20.3262 26.4254 20.3081 26.4381C20.29 26.4507 20.2766 26.469 20.27 26.4901C20.2645 26.5027 20.2617 26.5163 20.2617 26.5301C20.2617 26.5439 20.2645 26.5575 20.27 26.5701C20.2773 26.5888 20.2896 26.6052 20.3056 26.6174C20.3216 26.6297 20.3406 26.6373 20.3606 26.6394C20.3806 26.6416 20.4008 26.6382 20.4191 26.6297C20.4373 26.6212 20.4528 26.6078 20.464 26.5911C20.4751 26.5743 20.4815 26.5549 20.4824 26.5348C20.4832 26.5147 20.4785 26.4947 20.4689 26.4771C20.4592 26.4595 20.4448 26.4448 20.4274 26.4348C20.41 26.4247 20.3901 26.4196 20.37 26.4201V26.4201ZM27.62 26.4201C27.5979 26.4191 27.5762 26.4254 27.5581 26.4381C27.54 26.4507 27.5266 26.469 27.52 26.4901C27.5145 26.5027 27.5117 26.5163 27.5117 26.5301C27.5117 26.5439 27.5145 26.5575 27.52 26.5701C27.5273 26.5888 27.5396 26.6052 27.5556 26.6174C27.5716 26.6297 27.5906 26.6373 27.6106 26.6394C27.6306 26.6416 27.6508 26.6382 27.6691 26.6297C27.6873 26.6212 27.7028 26.6078 27.714 26.5911C27.7251 26.5743 27.7315 26.5549 27.7324 26.5348C27.7332 26.5147 27.7285 26.4947 27.7189 26.4771C27.7092 26.4595 27.6948 26.4448 27.6774 26.4348C27.66 26.4247 27.6401 26.4196 27.62 26.4201V26.4201ZM16.72 26.4201C16.2957 26.4201 15.8887 26.5887 15.5886 26.8887C15.2886 27.1888 15.12 27.5958 15.12 28.0201C15.12 28.4444 15.2886 28.8514 15.5886 29.1515C15.8887 29.4515 16.2957 29.6201 16.72 29.6201C17.1443 29.6201 17.5513 29.4515 17.8514 29.1515C18.1514 28.8514 18.32 28.4444 18.32 28.0201C18.32 27.5958 18.1514 27.1888 17.8514 26.8887C17.5513 26.5887 17.1443 26.4201 16.72 26.4201ZM31.27 26.4201C30.8457 26.4201 30.4387 26.5887 30.1386 26.8887C29.8386 27.1888 29.67 27.5958 29.67 28.0201C29.67 28.4444 29.8386 28.8514 30.1386 29.1515C30.4387 29.4515 30.8457 29.6201 31.27 29.6201C31.6943 29.6201 32.1013 29.4515 32.4014 29.1515C32.7014 28.8514 32.87 28.4444 32.87 28.0201C32.87 27.5958 32.7014 27.1888 32.4014 26.8887C32.1013 26.5887 31.6943 26.4201 31.27 26.4201ZM20.37 26.9801C20.3471 26.9813 20.3251 26.9897 20.3072 27.004C20.2892 27.0184 20.2762 27.038 20.27 27.0601C20.2655 27.076 20.2646 27.0927 20.2674 27.109C20.2702 27.1253 20.2767 27.1407 20.2863 27.1542C20.2959 27.1676 20.3084 27.1788 20.3229 27.1867C20.3374 27.1946 20.3535 27.1992 20.37 27.2001C20.3992 27.2001 20.4272 27.1885 20.4478 27.1679C20.4684 27.1473 20.48 27.1193 20.48 27.0901C20.48 27.0609 20.4684 27.0329 20.4478 27.0123C20.4272 26.9917 20.3992 26.9801 20.37 26.9801ZM27.62 26.9801C27.6056 26.9794 27.5911 26.9816 27.5775 26.9866C27.5639 26.9915 27.5514 26.999 27.5408 27.0088C27.5301 27.0185 27.5214 27.0303 27.5153 27.0434C27.5092 27.0565 27.5057 27.0707 27.505 27.0851C27.5043 27.0995 27.5065 27.114 27.5115 27.1276C27.5164 27.1412 27.5239 27.1537 27.5337 27.1643C27.5434 27.175 27.5552 27.1837 27.5683 27.1898C27.5814 27.1959 27.5956 27.1994 27.61 27.2001C27.6392 27.2014 27.6677 27.1911 27.6892 27.1714C27.7108 27.1517 27.7237 27.1243 27.725 27.0951C27.7263 27.0659 27.716 27.0374 27.6963 27.0159C27.6766 26.9943 27.6492 26.9814 27.62 26.9801V26.9801ZM20.37 27.5501C20.3408 27.5501 20.3128 27.5617 20.2922 27.5823C20.2716 27.6029 20.26 27.6309 20.26 27.6601C20.26 27.6893 20.2716 27.7172 20.2922 27.7379C20.3128 27.7585 20.3408 27.7701 20.37 27.7701C20.3992 27.7701 20.4272 27.7585 20.4478 27.7379C20.4684 27.7172 20.48 27.6893 20.48 27.6601C20.48 27.6309 20.4684 27.6029 20.4478 27.5823C20.4272 27.5617 20.3992 27.5501 20.37 27.5501ZM27.62 27.5501C27.5908 27.5501 27.5628 27.5617 27.5422 27.5823C27.5216 27.6029 27.51 27.6309 27.51 27.6601C27.51 27.6893 27.5216 27.7172 27.5422 27.7379C27.5628 27.7585 27.5908 27.7701 27.62 27.7701C27.6492 27.7701 27.6772 27.7585 27.6978 27.7379C27.7184 27.7172 27.73 27.6893 27.73 27.6601C27.73 27.6309 27.7184 27.6029 27.6978 27.5823C27.6772 27.5617 27.6492 27.5501 27.62 27.5501ZM20.35 28.1101C20.3271 28.1113 20.3051 28.1197 20.2872 28.134C20.2692 28.1484 20.2562 28.168 20.25 28.1901C20.2445 28.2128 20.2464 28.2367 20.2554 28.2583C20.2644 28.2799 20.28 28.298 20.3 28.3101C20.3171 28.3246 20.3381 28.3335 20.3604 28.3357C20.3826 28.3379 20.4051 28.3333 20.4246 28.3224C20.4442 28.3115 20.4599 28.295 20.4698 28.2749C20.4797 28.2548 20.4833 28.2322 20.48 28.2101C20.4777 28.1843 20.4665 28.1602 20.4482 28.1419C20.4299 28.1236 20.4058 28.1124 20.38 28.1101H20.35V28.1101ZM27.6 28.1101C27.5771 28.1113 27.5551 28.1197 27.5372 28.134C27.5192 28.1484 27.5062 28.168 27.5 28.1901C27.4945 28.2128 27.4964 28.2367 27.5054 28.2583C27.5144 28.2799 27.53 28.298 27.55 28.3101C27.5671 28.3246 27.5881 28.3335 27.6104 28.3357C27.6326 28.3379 27.6551 28.3333 27.6746 28.3224C27.6942 28.3115 27.7099 28.295 27.7198 28.2749C27.7297 28.2548 27.7333 28.2322 27.73 28.2101C27.7277 28.1843 27.7165 28.1602 27.6982 28.1419C27.6799 28.1236 27.6558 28.1124 27.63 28.1101H27.6V28.1101ZM24 28.2501C23.7899 28.2448 23.5808 28.281 23.3847 28.3566C23.1885 28.4321 23.0092 28.5456 22.8569 28.6904C22.7046 28.8353 22.5824 29.0087 22.4971 29.2008C22.4118 29.393 22.3653 29.6 22.36 29.8101C22.3547 30.0202 22.3909 30.2293 22.4665 30.4254C22.542 30.6216 22.6555 30.8009 22.8003 30.9532C22.9452 31.1055 23.1186 31.2277 23.3108 31.313C23.5029 31.3983 23.7099 31.4448 23.92 31.4501C24.3443 31.4607 24.7555 31.3023 25.0631 31.0098C25.3706 30.7172 25.5494 30.3144 25.56 29.8901C25.5706 29.4658 25.4122 29.0546 25.1197 28.747C24.8271 28.4395 24.4243 28.2607 24 28.2501V28.2501ZM20.38 28.6701C20.3508 28.6661 20.3213 28.6739 20.2978 28.6917C20.2744 28.7095 20.259 28.7359 20.255 28.7651C20.251 28.7943 20.2588 28.8238 20.2766 28.8473C20.2944 28.8707 20.3208 28.8861 20.35 28.8901C20.37 28.8956 20.3912 28.8953 20.4111 28.8893C20.4309 28.8833 20.4487 28.8718 20.4623 28.8561C20.4759 28.8404 20.4848 28.8212 20.4879 28.8006C20.491 28.7801 20.4883 28.7591 20.48 28.7401C20.4745 28.7266 20.4663 28.7144 20.456 28.7041C20.4457 28.6938 20.4335 28.6856 20.42 28.6801L20.38 28.6701ZM27.63 28.6701C27.6008 28.6661 27.5713 28.6739 27.5478 28.6917C27.5244 28.7095 27.509 28.7359 27.505 28.7651C27.501 28.7943 27.5088 28.8238 27.5266 28.8473C27.5444 28.8707 27.5708 28.8861 27.6 28.8901C27.62 28.8956 27.6412 28.8953 27.6611 28.8893C27.6809 28.8833 27.6987 28.8718 27.7123 28.8561C27.7259 28.8404 27.7348 28.8212 27.7379 28.8006C27.741 28.7801 27.7383 28.7591 27.73 28.7401C27.7245 28.7266 27.7163 28.7144 27.706 28.7041C27.6957 28.6938 27.6835 28.6856 27.67 28.6801L27.63 28.6701ZM20.37 29.2301C20.3426 29.2326 20.3171 29.2453 20.2986 29.2656C20.2801 29.286 20.2699 29.3126 20.27 29.3401C20.2741 29.3616 20.2845 29.3815 20.2999 29.397C20.3153 29.4126 20.335 29.4232 20.3565 29.4275C20.378 29.4318 20.4003 29.4296 20.4205 29.4212C20.4407 29.4127 20.458 29.3984 20.47 29.3801C20.4764 29.3636 20.4788 29.3458 20.4769 29.3282C20.475 29.3106 20.4689 29.2938 20.4591 29.2791C20.4493 29.2643 20.436 29.2522 20.4205 29.2437C20.405 29.2351 20.3877 29.2305 20.37 29.2301V29.2301ZM27.62 29.2301C27.5926 29.2326 27.5671 29.2453 27.5486 29.2656C27.5301 29.286 27.5199 29.3126 27.52 29.3401C27.5241 29.3616 27.5345 29.3815 27.5499 29.397C27.5653 29.4126 27.585 29.4232 27.6065 29.4275C27.628 29.4318 27.6503 29.4296 27.6705 29.4212C27.6907 29.4127 27.708 29.3984 27.72 29.3801C27.7264 29.3636 27.7288 29.3458 27.7269 29.3282C27.725 29.3106 27.7189 29.2938 27.7091 29.2791C27.6993 29.2643 27.686 29.2522 27.6705 29.2437C27.655 29.2351 27.6377 29.2305 27.62 29.2301V29.2301ZM20.37 29.7901C20.3395 29.7901 20.3102 29.8022 20.2887 29.8238C20.2671 29.8453 20.255 29.8746 20.255 29.9051C20.255 29.9356 20.2671 29.9648 20.2887 29.9864C20.3102 30.008 20.3395 30.0201 20.37 30.0201C20.4005 30.0201 20.4298 30.008 20.4513 29.9864C20.4729 29.9648 20.485 29.9356 20.485 29.9051C20.485 29.8746 20.4729 29.8453 20.4513 29.8238C20.4298 29.8022 20.4005 29.7901 20.37 29.7901V29.7901ZM27.62 29.7901C27.5895 29.7901 27.5602 29.8022 27.5387 29.8238C27.5171 29.8453 27.505 29.8746 27.505 29.9051C27.505 29.9356 27.5171 29.9648 27.5387 29.9864C27.5602 30.008 27.5895 30.0201 27.62 30.0201C27.6505 30.0201 27.6798 30.008 27.7013 29.9864C27.7229 29.9648 27.735 29.9356 27.735 29.9051C27.735 29.8746 27.7229 29.8453 27.7013 29.8238C27.6798 29.8022 27.6505 29.7901 27.62 29.7901V29.7901ZM16.72 30.2601C16.2957 30.2601 15.8887 30.4287 15.5886 30.7287C15.2886 31.0288 15.12 31.4358 15.12 31.8601C15.12 32.2844 15.2886 32.6914 15.5886 32.9915C15.8887 33.2915 16.2957 33.4601 16.72 33.4601C17.1443 33.4601 17.5513 33.2915 17.8514 32.9915C18.1514 32.6914 18.32 32.2844 18.32 31.8601C18.32 31.4358 18.1514 31.0288 17.8514 30.7287C17.5513 30.4287 17.1443 30.2601 16.72 30.2601ZM31.27 30.2601C30.8457 30.2601 30.4387 30.4287 30.1386 30.7287C29.8386 31.0288 29.67 31.4358 29.67 31.8601C29.67 32.2844 29.8386 32.6914 30.1386 32.9915C30.4387 33.2915 30.8457 33.4601 31.27 33.4601C31.6943 33.4601 32.1013 33.2915 32.4014 32.9915C32.7014 32.6914 32.87 32.2844 32.87 31.8601C32.87 31.4358 32.7014 31.0288 32.4014 30.7287C32.1013 30.4287 31.6943 30.2601 31.27 30.2601ZM20.37 30.3601C20.3442 30.3624 20.3201 30.3736 20.3018 30.3919C20.2835 30.4102 20.2723 30.4343 20.27 30.4601C20.2687 30.4786 20.2721 30.4972 20.2799 30.514C20.2878 30.5309 20.2997 30.5455 20.3147 30.5564C20.3297 30.5674 20.3472 30.5744 20.3656 30.5768C20.384 30.5792 20.4027 30.5769 20.42 30.5701C20.4384 30.5607 20.4537 30.5464 20.4643 30.5287C20.475 30.511 20.4804 30.4907 20.48 30.4701C20.4806 30.4554 20.4782 30.4408 20.4731 30.4271C20.4679 30.4133 20.4601 30.4008 20.45 30.3901C20.4393 30.38 20.4268 30.3722 20.413 30.367C20.3993 30.3619 20.3847 30.3595 20.37 30.3601V30.3601ZM27.62 30.3601C27.5942 30.3624 27.5701 30.3736 27.5518 30.3919C27.5335 30.4102 27.5223 30.4343 27.52 30.4601C27.5187 30.4786 27.5221 30.4972 27.5299 30.514C27.5378 30.5309 27.5497 30.5455 27.5647 30.5564C27.5797 30.5674 27.5972 30.5744 27.6156 30.5768C27.634 30.5792 27.6527 30.5769 27.67 30.5701C27.6884 30.5607 27.7037 30.5464 27.7143 30.5287C27.725 30.511 27.7304 30.4907 27.73 30.4701C27.7306 30.4554 27.7282 30.4408 27.7231 30.4271C27.7179 30.4133 27.7101 30.4008 27.7 30.3901C27.6893 30.38 27.6768 30.3722 27.663 30.367C27.6493 30.3619 27.6347 30.3595 27.62 30.3601V30.3601ZM20.37 30.9201C20.3442 30.9224 20.3201 30.9336 20.3018 30.9519C20.2835 30.9702 20.2723 30.9943 20.27 31.0201C20.265 31.0371 20.2642 31.0551 20.2677 31.0726C20.2712 31.09 20.2788 31.1063 20.29 31.1201C20.2987 31.134 20.3105 31.1457 20.3244 31.1545C20.3383 31.1633 20.3539 31.1688 20.3702 31.1707C20.3865 31.1726 20.403 31.1709 20.4186 31.1656C20.4341 31.1603 20.4483 31.1516 20.46 31.1401C20.476 31.1237 20.4865 31.1027 20.49 31.0801V31.0301C20.4901 31.0148 20.4869 30.9996 20.4808 30.9856C20.4746 30.9715 20.4656 30.9589 20.4543 30.9486C20.443 30.9382 20.4297 30.9303 20.4152 30.9254C20.4007 30.9205 20.3853 30.9187 20.37 30.9201V30.9201ZM27.62 30.9201C27.5942 30.9224 27.5701 30.9336 27.5518 30.9519C27.5335 30.9702 27.5223 30.9943 27.52 31.0201C27.515 31.0371 27.5142 31.0551 27.5177 31.0726C27.5212 31.09 27.5288 31.1063 27.54 31.1201C27.5487 31.134 27.5605 31.1457 27.5744 31.1545C27.5883 31.1633 27.6039 31.1688 27.6202 31.1707C27.6365 31.1726 27.653 31.1709 27.6686 31.1656C27.6841 31.1603 27.6983 31.1516 27.71 31.1401C27.726 31.1237 27.7365 31.1027 27.74 31.0801V31.0301C27.7401 31.0148 27.7369 30.9996 27.7308 30.9856C27.7246 30.9715 27.7156 30.9589 27.7043 30.9486C27.693 30.9382 27.6797 30.9303 27.6652 30.9254C27.6507 30.9205 27.6353 30.9187 27.62 30.9201V30.9201ZM20.37 31.4801C20.3483 31.4806 20.3272 31.4875 20.3094 31.5C20.2916 31.5124 20.2779 31.5299 20.27 31.5501C20.2637 31.5643 20.2604 31.5796 20.2604 31.5951C20.2604 31.6106 20.2637 31.6259 20.27 31.6401C20.2766 31.6546 20.2863 31.6674 20.2984 31.6778C20.3105 31.6881 20.3247 31.6958 20.34 31.7001C20.3552 31.703 20.3709 31.7026 20.3859 31.699C20.401 31.6954 20.4151 31.6886 20.4274 31.6792C20.4396 31.6697 20.4498 31.6578 20.4571 31.6442C20.4645 31.6306 20.4689 31.6155 20.47 31.6001C20.4714 31.5856 20.4699 31.5711 20.4656 31.5572C20.4613 31.5433 20.4543 31.5304 20.445 31.5193C20.4357 31.5081 20.4243 31.4989 20.4114 31.4922C20.3985 31.4855 20.3845 31.4814 20.37 31.4801V31.4801ZM27.62 31.4801C27.5983 31.4806 27.5772 31.4875 27.5594 31.5C27.5416 31.5124 27.5279 31.5299 27.52 31.5501C27.5137 31.5643 27.5104 31.5796 27.5104 31.5951C27.5104 31.6106 27.5137 31.6259 27.52 31.6401C27.5266 31.6546 27.5363 31.6674 27.5484 31.6778C27.5605 31.6881 27.5747 31.6958 27.59 31.7001C27.6052 31.703 27.6209 31.7026 27.6359 31.699C27.651 31.6954 27.6651 31.6886 27.6774 31.6792C27.6896 31.6697 27.6998 31.6578 27.7071 31.6442C27.7145 31.6306 27.7189 31.6155 27.72 31.6001C27.7214 31.5856 27.7199 31.5711 27.7156 31.5572C27.7113 31.5433 27.7043 31.5304 27.695 31.5193C27.6857 31.5081 27.6743 31.4989 27.6614 31.4922C27.6485 31.4855 27.6345 31.4814 27.62 31.4801V31.4801ZM20.35 32.0401C20.3244 32.0448 20.3013 32.0585 20.2848 32.0786C20.2684 32.0988 20.2596 32.1241 20.26 32.1501C20.2597 32.1664 20.2631 32.1825 20.2698 32.1974C20.2765 32.2122 20.2865 32.2254 20.2989 32.2359C20.3114 32.2464 20.326 32.2541 20.3417 32.2582C20.3575 32.2624 20.374 32.2631 20.39 32.2601C20.4131 32.2594 20.4354 32.2515 20.4538 32.2374C20.4721 32.2234 20.4855 32.2039 20.4922 32.1818C20.4988 32.1596 20.4983 32.1359 20.4907 32.1141C20.4832 32.0923 20.4689 32.0734 20.45 32.0601C20.4269 32.0433 20.3983 32.0361 20.37 32.0401H20.35V32.0401ZM27.6 32.0401C27.5744 32.0448 27.5513 32.0585 27.5348 32.0786C27.5184 32.0988 27.5096 32.1241 27.51 32.1501C27.5097 32.1664 27.5131 32.1825 27.5198 32.1974C27.5265 32.2122 27.5365 32.2254 27.5489 32.2359C27.5614 32.2464 27.576 32.2541 27.5917 32.2582C27.6075 32.2624 27.624 32.2631 27.64 32.2601C27.6631 32.2594 27.6854 32.2515 27.7038 32.2374C27.7221 32.2234 27.7355 32.2039 27.7422 32.1818C27.7488 32.1596 27.7483 32.1359 27.7407 32.1141C27.7332 32.0923 27.7189 32.0734 27.7 32.0601C27.6769 32.0433 27.6483 32.0361 27.62 32.0401H27.6V32.0401ZM24 32.0801C23.5757 32.0801 23.1687 32.2487 22.8686 32.5487C22.5686 32.8488 22.4 33.2558 22.4 33.6801C22.4 34.1044 22.5686 34.5114 22.8686 34.8115C23.1687 35.1115 23.5757 35.2801 24 35.2801C24.4243 35.2801 24.8313 35.1115 25.1314 34.8115C25.4314 34.5114 25.6 34.1044 25.6 33.6801C25.6 33.2558 25.4314 32.8488 25.1314 32.5487C24.8313 32.2487 24.4243 32.0801 24 32.0801ZM20.36 32.6001C20.3369 32.6008 20.3146 32.6087 20.2962 32.6228C20.2779 32.6368 20.2645 32.6563 20.2578 32.6784C20.2512 32.7006 20.2517 32.7243 20.2593 32.7461C20.2668 32.7679 20.2811 32.7868 20.3 32.8001C20.3162 32.8146 20.3367 32.8234 20.3583 32.8252C20.38 32.827 20.4016 32.8217 20.42 32.8101C20.4384 32.8007 20.4537 32.7864 20.4643 32.7687C20.475 32.751 20.4804 32.7307 20.48 32.7101C20.4777 32.6843 20.4665 32.6602 20.4482 32.6419C20.4299 32.6236 20.4058 32.6124 20.38 32.6101H20.36V32.6001ZM27.61 32.6001C27.5869 32.6008 27.5646 32.6087 27.5462 32.6228C27.5279 32.6368 27.5145 32.6563 27.5078 32.6784C27.5012 32.7006 27.5017 32.7243 27.5093 32.7461C27.5168 32.7679 27.5311 32.7868 27.55 32.8001C27.5662 32.8146 27.5867 32.8234 27.6083 32.8252C27.63 32.827 27.6516 32.8217 27.67 32.8101C27.6884 32.8007 27.7037 32.7864 27.7143 32.7687C27.725 32.751 27.7304 32.7307 27.73 32.7101C27.7277 32.6843 27.7165 32.6602 27.6982 32.6419C27.6799 32.6236 27.6558 32.6124 27.63 32.6101H27.61V32.6001ZM20.38 33.1601C20.3566 33.1585 20.3333 33.1645 20.3135 33.177C20.2937 33.1896 20.2785 33.2082 20.27 33.2301L20.26 33.2801C20.26 33.3401 20.31 33.3801 20.38 33.3801C20.4015 33.376 20.4214 33.3656 20.4369 33.3502C20.4525 33.3348 20.4631 33.3151 20.4674 33.2936C20.4717 33.2721 20.4695 33.2498 20.4611 33.2296C20.4526 33.2094 20.4383 33.1921 20.42 33.1801C20.4082 33.1708 20.3946 33.164 20.38 33.1601V33.1601ZM27.63 33.1601C27.6066 33.1585 27.5833 33.1645 27.5635 33.177C27.5437 33.1896 27.5285 33.2082 27.52 33.2301L27.51 33.2801C27.51 33.3401 27.56 33.3801 27.63 33.3801C27.6515 33.376 27.6714 33.3656 27.6869 33.3502C27.7025 33.3348 27.7131 33.3151 27.7174 33.2936C27.7217 33.2721 27.7195 33.2498 27.7111 33.2296C27.7026 33.2094 27.6883 33.1921 27.67 33.1801C27.6582 33.1708 27.6446 33.164 27.63 33.1601V33.1601ZM20.37 33.7301C20.3408 33.7301 20.3128 33.7417 20.2922 33.7623C20.2716 33.7829 20.26 33.8109 20.26 33.8401C20.26 33.8693 20.2716 33.8973 20.2922 33.9179C20.3128 33.9385 20.3408 33.9501 20.37 33.9501C20.3992 33.9501 20.4272 33.9385 20.4478 33.9179C20.4684 33.8973 20.48 33.8693 20.48 33.8401C20.48 33.8109 20.4684 33.7829 20.4478 33.7623C20.4272 33.7417 20.3992 33.7301 20.37 33.7301ZM27.62 33.7301C27.5908 33.7301 27.5628 33.7417 27.5422 33.7623C27.5216 33.7829 27.51 33.8109 27.51 33.8401C27.51 33.8693 27.5216 33.8973 27.5422 33.9179C27.5628 33.9385 27.5908 33.9501 27.62 33.9501C27.6492 33.9501 27.6772 33.9385 27.6978 33.9179C27.7184 33.8973 27.73 33.8693 27.73 33.8401C27.73 33.8109 27.7184 33.7829 27.6978 33.7623C27.6772 33.7417 27.6492 33.7301 27.62 33.7301ZM16.72 34.0901C16.2957 34.0901 15.8887 34.2587 15.5886 34.5587C15.2886 34.8588 15.12 35.2658 15.12 35.6901C15.12 36.1144 15.2886 36.5214 15.5886 36.8215C15.8887 37.1215 16.2957 37.2901 16.72 37.2901C17.1443 37.2901 17.5513 37.1215 17.8514 36.8215C18.1514 36.5214 18.32 36.1144 18.32 35.6901C18.32 35.2658 18.1514 34.8588 17.8514 34.5587C17.5513 34.2587 17.1443 34.0901 16.72 34.0901ZM31.27 34.0901C30.8457 34.0901 30.4387 34.2587 30.1386 34.5587C29.8386 34.8588 29.67 35.2658 29.67 35.6901C29.67 36.1144 29.8386 36.5214 30.1386 36.8215C30.4387 37.1215 30.8457 37.2901 31.27 37.2901C31.6943 37.2901 32.1013 37.1215 32.4014 36.8215C32.7014 36.5214 32.87 36.1144 32.87 35.6901C32.87 35.2658 32.7014 34.8588 32.4014 34.5587C32.1013 34.2587 31.6943 34.0901 31.27 34.0901ZM20.37 34.2901C20.3408 34.2901 20.3128 34.3017 20.2922 34.3223C20.2716 34.3429 20.26 34.3709 20.26 34.4001C20.26 34.4293 20.2716 34.4573 20.2922 34.4779C20.3128 34.4985 20.3408 34.5101 20.37 34.5101C20.3992 34.5101 20.4272 34.4985 20.4478 34.4779C20.4684 34.4573 20.48 34.4293 20.48 34.4001C20.48 34.3709 20.4684 34.3429 20.4478 34.3223C20.4272 34.3017 20.3992 34.2901 20.37 34.2901ZM27.62 34.2901C27.5908 34.2901 27.5628 34.3017 27.5422 34.3223C27.5216 34.3429 27.51 34.3709 27.51 34.4001C27.51 34.4293 27.5216 34.4573 27.5422 34.4779C27.5628 34.4985 27.5908 34.5101 27.62 34.5101C27.6492 34.5101 27.6772 34.4985 27.6978 34.4779C27.7184 34.4573 27.73 34.4293 27.73 34.4001C27.73 34.3709 27.7184 34.3429 27.6978 34.3223C27.6772 34.3017 27.6492 34.2901 27.62 34.2901ZM20.37 34.8501C20.3395 34.8501 20.3102 34.8622 20.2887 34.8838C20.2671 34.9053 20.255 34.9346 20.255 34.9651C20.255 34.9956 20.2671 35.0249 20.2887 35.0464C20.3102 35.068 20.3395 35.0801 20.37 35.0801C20.4005 35.0801 20.4298 35.068 20.4513 35.0464C20.4729 35.0249 20.485 34.9956 20.485 34.9651C20.485 34.9346 20.4729 34.9053 20.4513 34.8838C20.4298 34.8622 20.4005 34.8501 20.37 34.8501V34.8501ZM27.62 34.8501C27.5895 34.8501 27.5602 34.8622 27.5387 34.8838C27.5171 34.9053 27.505 34.9346 27.505 34.9651C27.505 34.9956 27.5171 35.0249 27.5387 35.0464C27.5602 35.068 27.5895 35.0801 27.62 35.0801C27.6505 35.0801 27.6798 35.068 27.7013 35.0464C27.7229 35.0249 27.735 34.9956 27.735 34.9651C27.735 34.9346 27.7229 34.9053 27.7013 34.8838C27.6798 34.8622 27.6505 34.8501 27.62 34.8501V34.8501ZM20.37 35.4101C20.3471 35.4113 20.3251 35.4197 20.3072 35.434C20.2892 35.4484 20.2762 35.468 20.27 35.4901C20.2637 35.5043 20.2604 35.5196 20.2604 35.5351C20.2604 35.5506 20.2637 35.5659 20.27 35.5801C20.2777 35.5927 20.2879 35.6036 20.2999 35.6122C20.3119 35.6208 20.3256 35.6269 20.34 35.6301C20.3692 35.6341 20.3987 35.6263 20.4222 35.6085C20.4456 35.5907 20.461 35.5643 20.465 35.5351C20.469 35.5059 20.4612 35.4764 20.4434 35.4529C20.4256 35.4295 20.3992 35.4141 20.37 35.4101V35.4101ZM27.62 35.4101C27.5971 35.4113 27.5751 35.4197 27.5572 35.434C27.5392 35.4484 27.5262 35.468 27.52 35.4901C27.5137 35.5043 27.5104 35.5196 27.5104 35.5351C27.5104 35.5506 27.5137 35.5659 27.52 35.5801C27.5277 35.5927 27.5379 35.6036 27.5499 35.6122C27.5619 35.6208 27.5756 35.6269 27.59 35.6301C27.6192 35.6341 27.6487 35.6263 27.6722 35.6085C27.6956 35.5907 27.711 35.5643 27.715 35.5351C27.719 35.5059 27.7112 35.4764 27.6934 35.4529C27.6756 35.4295 27.6492 35.4141 27.62 35.4101V35.4101ZM24 35.9201C23.5757 35.9201 23.1687 36.0887 22.8686 36.3887C22.5686 36.6888 22.4 37.0958 22.4 37.5201C22.4 37.9444 22.5686 38.3514 22.8686 38.6515C23.1687 38.9515 23.5757 39.1201 24 39.1201C24.4243 39.1201 24.8313 38.9515 25.1314 38.6515C25.4314 38.3514 25.6 37.9444 25.6 37.5201C25.6 37.0958 25.4314 36.6888 25.1314 36.3887C24.8313 36.0887 24.4243 35.9201 24 35.9201ZM20.37 35.9801C20.3546 35.9808 20.3395 35.9847 20.3258 35.9916C20.312 35.9985 20.2998 36.0082 20.29 36.0201C20.2812 36.0312 20.2748 36.0441 20.2714 36.0579C20.2679 36.0717 20.2675 36.0861 20.27 36.1001C20.2713 36.1263 20.282 36.1511 20.3 36.1701C20.3103 36.1807 20.3228 36.1889 20.3366 36.1941C20.3505 36.1993 20.3653 36.2013 20.38 36.2001C20.4092 36.1988 20.4366 36.1859 20.4563 36.1643C20.476 36.1428 20.4863 36.1143 20.485 36.0851C20.4837 36.0559 20.4708 36.0285 20.4492 36.0088C20.4277 35.9891 20.3992 35.9788 20.37 35.9801V35.9801ZM27.62 35.9801C27.5983 35.9806 27.5772 35.9875 27.5594 36C27.5416 36.0124 27.5279 36.0299 27.52 36.0501C27.5137 36.0643 27.5104 36.0796 27.5104 36.0951C27.5104 36.1106 27.5137 36.1259 27.52 36.1401C27.5266 36.1546 27.5363 36.1674 27.5484 36.1778C27.5605 36.1881 27.5747 36.1958 27.59 36.2001C27.6052 36.203 27.6209 36.2026 27.6359 36.199C27.651 36.1954 27.6651 36.1886 27.6774 36.1792C27.6896 36.1697 27.6998 36.1578 27.7071 36.1442C27.7145 36.1306 27.7189 36.1155 27.72 36.1001C27.7214 36.0856 27.7199 36.0711 27.7156 36.0572C27.7113 36.0433 27.7043 36.0304 27.695 36.0193C27.6857 36.0081 27.6743 35.9989 27.6614 35.9922C27.6485 35.9855 27.6345 35.9814 27.62 35.9801V35.9801ZM20.37 36.5401C20.3408 36.5401 20.3128 36.5517 20.2922 36.5723C20.2716 36.5929 20.26 36.6209 20.26 36.6501C20.26 36.6793 20.2716 36.7073 20.2922 36.7279C20.3128 36.7485 20.3408 36.7601 20.37 36.7601C20.3949 36.7645 20.4206 36.7602 20.4427 36.7479C20.4648 36.7357 20.482 36.7161 20.4914 36.6926C20.5008 36.6692 20.5018 36.6432 20.4942 36.619C20.4867 36.5949 20.4711 36.5741 20.45 36.5601C20.4269 36.5433 20.3983 36.5361 20.37 36.5401V36.5401ZM27.62 36.5401C27.5908 36.5401 27.5628 36.5517 27.5422 36.5723C27.5216 36.5929 27.51 36.6209 27.51 36.6501C27.51 36.6793 27.5216 36.7073 27.5422 36.7279C27.5628 36.7485 27.5908 36.7601 27.62 36.7601C27.6449 36.7645 27.6706 36.7602 27.6927 36.7479C27.7148 36.7357 27.732 36.7161 27.7414 36.6926C27.7508 36.6692 27.7518 36.6432 27.7442 36.619C27.7367 36.5949 27.7211 36.5741 27.7 36.5601C27.6769 36.5433 27.6483 36.5361 27.62 36.5401V36.5401ZM20.35 37.1001C20.3244 37.1048 20.3013 37.1185 20.2848 37.1386C20.2684 37.1588 20.2596 37.1841 20.26 37.2101C20.26 37.2701 20.31 37.3301 20.37 37.3201C20.44 37.3201 20.48 37.2701 20.49 37.2201C20.4914 37.2048 20.4896 37.1894 20.4847 37.1749C20.4798 37.1604 20.4719 37.1471 20.4615 37.1358C20.4512 37.1245 20.4386 37.1155 20.4245 37.1093C20.4105 37.1032 20.3953 37.1 20.38 37.1001H20.35ZM27.6 37.1001C27.5744 37.1048 27.5513 37.1185 27.5348 37.1386C27.5184 37.1588 27.5096 37.1841 27.51 37.2101C27.51 37.2701 27.56 37.3301 27.62 37.3201C27.69 37.3201 27.73 37.2701 27.74 37.2201C27.7414 37.2048 27.7396 37.1894 27.7347 37.1749C27.7298 37.1604 27.7219 37.1471 27.7115 37.1358C27.7012 37.1245 27.6886 37.1155 27.6745 37.1093C27.6605 37.1032 27.6453 37.1 27.63 37.1001H27.6ZM16.72 37.9001C16.3169 37.9001 15.9303 38.0602 15.6452 38.3453C15.3601 38.6304 15.2 39.017 15.2 39.4201C15.2 39.8232 15.3601 40.2098 15.6452 40.4949C15.9303 40.78 16.3169 40.9401 16.72 40.9401C17.1231 40.9401 17.5097 40.78 17.7948 40.4949C18.0799 40.2098 18.24 39.8232 18.24 39.4201C18.24 39.017 18.0799 38.6304 17.7948 38.3453C17.5097 38.0602 17.1231 37.9001 16.72 37.9001V37.9001ZM31.27 37.9001C30.8669 37.9001 30.4803 38.0602 30.1952 38.3453C29.9101 38.6304 29.75 39.017 29.75 39.4201C29.75 39.8232 29.9101 40.2098 30.1952 40.4949C30.4803 40.78 30.8669 40.9401 31.27 40.9401C31.6731 40.9401 32.0597 40.78 32.3448 40.4949C32.6299 40.2098 32.79 39.8232 32.79 39.4201C32.79 39.017 32.6299 38.6304 32.3448 38.3453C32.0597 38.0602 31.6731 37.9001 31.27 37.9001V37.9001ZM20.37 38.2301C20.3442 38.2324 20.3201 38.2436 20.3018 38.2619C20.2835 38.2802 20.2723 38.3043 20.27 38.3301C20.27 38.4001 20.31 38.4501 20.37 38.4501C20.4005 38.4501 20.4298 38.438 20.4513 38.4164C20.4729 38.3948 20.485 38.3656 20.485 38.3351C20.485 38.3046 20.4729 38.2753 20.4513 38.2538C20.4298 38.2322 20.4005 38.2201 20.37 38.2201V38.2301ZM27.62 38.2301C27.5942 38.2324 27.5701 38.2436 27.5518 38.2619C27.5335 38.2802 27.5223 38.3043 27.52 38.3301C27.52 38.4001 27.56 38.4501 27.62 38.4501C27.6505 38.4501 27.6798 38.438 27.7013 38.4164C27.7229 38.3948 27.735 38.3656 27.735 38.3351C27.735 38.3046 27.7229 38.2753 27.7013 38.2538C27.6798 38.2322 27.6505 38.2201 27.62 38.2201V38.2301ZM20.37 38.7901C20.3483 38.7906 20.3272 38.7975 20.3094 38.81C20.2916 38.8224 20.2779 38.8399 20.27 38.8601C20.2637 38.8743 20.2604 38.8896 20.2604 38.9051C20.2604 38.9206 20.2637 38.9359 20.27 38.9501C20.2766 38.9646 20.2863 38.9774 20.2984 38.9878C20.3105 38.9981 20.3247 39.0058 20.34 39.0101C20.3552 39.013 20.3709 39.0126 20.3859 39.009C20.401 39.0054 20.4151 38.9986 20.4274 38.9892C20.4396 38.9797 20.4498 38.9678 20.4571 38.9542C20.4645 38.9406 20.4689 38.9255 20.47 38.9101C20.4714 38.8956 20.4699 38.8811 20.4656 38.8672C20.4613 38.8533 20.4543 38.8404 20.445 38.8293C20.4357 38.8181 20.4243 38.8089 20.4114 38.8022C20.3985 38.7955 20.3845 38.7914 20.37 38.7901V38.7901ZM27.62 38.7901C27.5983 38.7906 27.5772 38.7975 27.5594 38.81C27.5416 38.8224 27.5279 38.8399 27.52 38.8601C27.5137 38.8743 27.5104 38.8896 27.5104 38.9051C27.5104 38.9206 27.5137 38.9359 27.52 38.9501C27.5266 38.9646 27.5363 38.9774 27.5484 38.9878C27.5605 38.9981 27.5747 39.0058 27.59 39.0101C27.6052 39.013 27.6209 39.0126 27.6359 39.009C27.651 39.0054 27.6651 38.9986 27.6774 38.9892C27.6896 38.9797 27.6998 38.9678 27.7071 38.9542C27.7145 38.9406 27.7189 38.9255 27.72 38.9101C27.7214 38.8956 27.7199 38.8811 27.7156 38.8672C27.7113 38.8533 27.7043 38.8404 27.695 38.8293C27.6857 38.8181 27.6743 38.8089 27.6614 38.8022C27.6485 38.7955 27.6345 38.7914 27.62 38.7901V38.7901ZM20.37 39.3501C20.3471 39.3513 20.3251 39.3597 20.3072 39.374C20.2892 39.3884 20.2762 39.408 20.27 39.4301C20.26 39.4558 20.26 39.4844 20.27 39.5101C20.2766 39.5246 20.2863 39.5374 20.2984 39.5478C20.3105 39.5581 20.3247 39.5658 20.34 39.5701C20.3544 39.5721 20.3691 39.5712 20.3832 39.5675C20.3973 39.5638 20.4106 39.5573 20.4222 39.5485C20.4338 39.5397 20.4435 39.5286 20.4509 39.5161C20.4582 39.5035 20.463 39.4895 20.465 39.4751C20.467 39.4607 20.4661 39.446 20.4624 39.4319C20.4587 39.4178 20.4522 39.4045 20.4434 39.3929C20.4346 39.3813 20.4235 39.3716 20.411 39.3642C20.3984 39.3569 20.3844 39.3521 20.37 39.3501V39.3501ZM27.62 39.3501C27.5971 39.3513 27.5751 39.3597 27.5572 39.374C27.5392 39.3884 27.5262 39.408 27.52 39.4301C27.51 39.4558 27.51 39.4844 27.52 39.5101C27.5266 39.5246 27.5363 39.5374 27.5484 39.5478C27.5605 39.5581 27.5747 39.5658 27.59 39.5701C27.6044 39.5721 27.6191 39.5712 27.6332 39.5675C27.6473 39.5638 27.6606 39.5573 27.6722 39.5485C27.6838 39.5397 27.6935 39.5286 27.7009 39.5161C27.7082 39.5035 27.713 39.4895 27.715 39.4751C27.717 39.4607 27.7161 39.446 27.7124 39.4319C27.7087 39.4178 27.7022 39.4045 27.6934 39.3929C27.6846 39.3813 27.6735 39.3716 27.661 39.3642C27.6484 39.3569 27.6344 39.3521 27.62 39.3501V39.3501ZM20.37 39.9101C20.3471 39.9113 20.3251 39.9197 20.3072 39.934C20.2892 39.9484 20.2762 39.968 20.27 39.9901C20.26 40.0158 20.26 40.0444 20.27 40.0701C20.2766 40.0846 20.2863 40.0974 20.2984 40.1078C20.3105 40.1181 20.3247 40.1258 20.34 40.1301C20.3552 40.133 20.3709 40.1326 20.3859 40.129C20.401 40.1254 20.4151 40.1186 20.4274 40.1092C20.4396 40.0997 20.4498 40.0878 20.4571 40.0742C20.4645 40.0606 20.4689 40.0455 20.47 40.0301C20.4714 40.0156 20.4699 40.0011 20.4656 39.9872C20.4613 39.9733 20.4543 39.9604 20.445 39.9493C20.4357 39.9381 20.4243 39.9289 20.4114 39.9222C20.3985 39.9155 20.3845 39.9114 20.37 39.9101V39.9101ZM27.62 39.9101C27.5971 39.9113 27.5751 39.9197 27.5572 39.934C27.5392 39.9484 27.5262 39.968 27.52 39.9901C27.51 40.0158 27.51 40.0444 27.52 40.0701C27.5266 40.0846 27.5363 40.0974 27.5484 40.1078C27.5605 40.1181 27.5747 40.1258 27.59 40.1301C27.6052 40.133 27.6209 40.1326 27.6359 40.129C27.651 40.1254 27.6651 40.1186 27.6774 40.1092C27.6896 40.0997 27.6998 40.0878 27.7071 40.0742C27.7145 40.0606 27.7189 40.0455 27.72 40.0301C27.7214 40.0156 27.7199 40.0011 27.7156 39.9872C27.7113 39.9733 27.7043 39.9604 27.695 39.9493C27.6857 39.9381 27.6743 39.9289 27.6614 39.9222C27.6485 39.9155 27.6345 39.9114 27.62 39.9101V39.9101ZM20.37 40.4801C20.3451 40.4757 20.3194 40.48 20.2973 40.4923C20.2752 40.5045 20.258 40.5241 20.2486 40.5476C20.2392 40.571 20.2382 40.597 20.2458 40.6212C20.2533 40.6453 20.2689 40.6661 20.29 40.6801C20.3069 40.697 20.3293 40.7074 20.3531 40.7092C20.377 40.711 20.4007 40.7043 20.42 40.6901C20.432 40.6824 20.4423 40.6721 20.45 40.6601C20.4677 40.6385 20.4765 40.611 20.4746 40.5831C20.4728 40.5553 20.4604 40.5292 20.44 40.5101C20.421 40.4921 20.3962 40.4814 20.37 40.4801ZM27.62 40.4801C27.5951 40.4757 27.5694 40.48 27.5473 40.4923C27.5252 40.5045 27.508 40.5241 27.4986 40.5476C27.4892 40.571 27.4882 40.597 27.4958 40.6212C27.5033 40.6453 27.5189 40.6661 27.54 40.6801C27.5569 40.697 27.5793 40.7074 27.6031 40.7092C27.627 40.711 27.6507 40.7043 27.67 40.6901C27.682 40.6824 27.6923 40.6721 27.7 40.6601C27.7177 40.6385 27.7265 40.611 27.7246 40.5831C27.7228 40.5553 27.7104 40.5292 27.69 40.5101C27.671 40.4921 27.6462 40.4814 27.62 40.4801ZM20.35 41.0401C20.326 41.0445 20.3042 41.0566 20.2879 41.0747C20.2716 41.0928 20.2618 41.1158 20.26 41.1401C20.258 41.1622 20.2627 41.1843 20.2735 41.2037C20.2843 41.223 20.3007 41.2387 20.3205 41.2486C20.3404 41.2584 20.3627 41.2621 20.3847 41.2591C20.4066 41.256 20.4271 41.2464 20.4435 41.2315C20.4599 41.2166 20.4715 41.1971 20.4766 41.1755C20.4817 41.1539 20.4802 41.1313 20.4722 41.1106C20.4643 41.09 20.4503 41.0722 20.432 41.0596C20.4138 41.047 20.3922 41.0402 20.37 41.0401H20.35ZM27.6 41.0401C27.576 41.0445 27.5542 41.0566 27.5379 41.0747C27.5216 41.0928 27.5118 41.1158 27.51 41.1401C27.508 41.1622 27.5127 41.1843 27.5235 41.2037C27.5343 41.223 27.5507 41.2387 27.5705 41.2486C27.5904 41.2584 27.6127 41.2621 27.6347 41.2591C27.6566 41.256 27.6771 41.2464 27.6935 41.2315C27.7099 41.2166 27.7215 41.1971 27.7266 41.1755C27.7317 41.1539 27.7302 41.1313 27.7222 41.1106C27.7143 41.09 27.7003 41.0722 27.682 41.0596C27.6638 41.047 27.6422 41.0402 27.62 41.0401H27.6ZM20.35 41.6001C20.3271 41.6013 20.3051 41.6097 20.2872 41.624C20.2692 41.6384 20.2562 41.658 20.25 41.6801C20.2445 41.7028 20.2464 41.7267 20.2554 41.7483C20.2644 41.7699 20.28 41.788 20.3 41.8001C20.3162 41.8146 20.3367 41.8234 20.3583 41.8252C20.38 41.827 20.4016 41.8217 20.42 41.8101C20.4384 41.8007 20.4537 41.7864 20.4643 41.7687C20.475 41.751 20.4804 41.7307 20.48 41.7101C20.4801 41.6826 20.4699 41.656 20.4514 41.6357C20.4329 41.6153 20.4074 41.6026 20.38 41.6001H20.35V41.6001ZM27.6 41.6001C27.5771 41.6013 27.5551 41.6097 27.5372 41.624C27.5192 41.6384 27.5062 41.658 27.5 41.6801C27.4945 41.7028 27.4964 41.7267 27.5054 41.7483C27.5144 41.7699 27.53 41.788 27.55 41.8001C27.5662 41.8146 27.5867 41.8234 27.6083 41.8252C27.63 41.827 27.6516 41.8217 27.67 41.8101C27.6884 41.8007 27.7037 41.7864 27.7143 41.7687C27.725 41.751 27.7304 41.7307 27.73 41.7101C27.7301 41.6826 27.7199 41.656 27.7014 41.6357C27.6829 41.6153 27.6574 41.6026 27.63 41.6001H27.6V41.6001ZM20.38 42.1601C20.3653 42.1595 20.3507 42.1619 20.337 42.167C20.3232 42.1722 20.3107 42.18 20.3 42.1901C20.2782 42.2027 20.2619 42.2231 20.2545 42.2472C20.2471 42.2714 20.249 42.2974 20.26 42.3201C20.2685 42.342 20.2837 42.3606 20.3035 42.3732C20.3233 42.3857 20.3466 42.3917 20.37 42.3901C20.3934 42.3917 20.4167 42.3857 20.4365 42.3732C20.4563 42.3606 20.4715 42.342 20.48 42.3201L20.49 42.2701C20.49 42.2409 20.4784 42.2129 20.4578 42.1923C20.4372 42.1717 20.4092 42.1601 20.38 42.1601V42.1601ZM27.63 42.1601C27.6083 42.1606 27.5872 42.1675 27.5694 42.18C27.5516 42.1924 27.5379 42.2099 27.53 42.2301C27.5212 42.2499 27.5183 42.2718 27.5219 42.2931C27.5255 42.3145 27.5352 42.3343 27.55 42.3501L27.58 42.3801C27.6007 42.3877 27.6232 42.3889 27.6446 42.3836C27.666 42.3782 27.6853 42.3666 27.7 42.3501C27.7157 42.3353 27.7268 42.3162 27.7317 42.2952C27.7367 42.2742 27.7353 42.2522 27.7279 42.2319C27.7204 42.2117 27.7071 42.1941 27.6897 42.1813C27.6723 42.1685 27.6516 42.1612 27.63 42.1601ZM20.37 42.7201C20.3395 42.7201 20.3102 42.7322 20.2887 42.7538C20.2671 42.7753 20.255 42.8046 20.255 42.8351C20.255 42.8656 20.2671 42.8948 20.2887 42.9164C20.3102 42.938 20.3395 42.9501 20.37 42.9501C20.4005 42.9501 20.4298 42.938 20.4513 42.9164C20.4729 42.8948 20.485 42.8656 20.485 42.8351C20.485 42.8046 20.4729 42.7753 20.4513 42.7538C20.4298 42.7322 20.4005 42.7201 20.37 42.7201V42.7201ZM27.62 42.7201C27.5895 42.7201 27.5602 42.7322 27.5387 42.7538C27.5171 42.7753 27.505 42.8046 27.505 42.8351C27.505 42.8656 27.5171 42.8948 27.5387 42.9164C27.5602 42.938 27.5895 42.9501 27.62 42.9501C27.6505 42.9501 27.6798 42.938 27.7013 42.9164C27.7229 42.8948 27.735 42.8656 27.735 42.8351C27.735 42.8046 27.7229 42.7753 27.7013 42.7538C27.6798 42.7322 27.6505 42.7201 27.62 42.7201V42.7201Z" fill="#333333"/>
</g>
<defs>
<clipPath id="clip0">
<rect width="48" height="48" fill="white"/>
</clipPath>
</defs>
</svg>
