<svg width="48" height="48" viewBox="0 0 48 48" fill="none" xmlns="http://www.w3.org/2000/svg">
<path d="M14.412 4.09402C13.542 4.09402 12.844 4.79302 12.844 5.66202V42.523C12.844 43.393 13.543 44.093 14.412 44.093H34.117C34.987 44.093 35.686 43.393 35.686 42.523V5.66302C35.686 4.79302 34.986 4.09302 34.117 4.09302H14.412V4.09402ZM17.297 9.20902C17.4216 9.20736 17.5453 9.23037 17.661 9.2767C17.7766 9.32304 17.882 9.3918 17.971 9.47902C18.0607 9.56544 18.1324 9.66874 18.182 9.78297C18.2316 9.89721 18.2582 10.0201 18.2601 10.1447C18.2621 10.2692 18.2394 10.3929 18.1934 10.5086C18.1474 10.6243 18.0789 10.7298 17.992 10.819L16.184 12.678C16.0976 12.7679 15.9943 12.8397 15.8801 12.8894C15.7658 12.9391 15.6428 12.9656 15.5182 12.9675C15.3936 12.9693 15.2698 12.9465 15.1541 12.9002C15.0384 12.854 14.933 12.7852 14.844 12.698C14.7543 12.6117 14.6825 12.5084 14.6328 12.3942C14.5831 12.28 14.5564 12.1571 14.5544 12.0326C14.5523 11.9081 14.5749 11.7844 14.6208 11.6686C14.6668 11.5528 14.7351 11.4473 14.822 11.358L16.631 9.50002C16.7174 9.41018 16.8208 9.33831 16.9351 9.28855C17.0493 9.23878 17.1724 9.21209 17.297 9.21002V9.20902ZM21.297 9.20902C21.4216 9.20736 21.5453 9.23037 21.661 9.2767C21.7766 9.32304 21.882 9.3918 21.971 9.47902C22.0607 9.56544 22.1324 9.66874 22.182 9.78297C22.2316 9.89721 22.2582 10.0201 22.2601 10.1447C22.2621 10.2692 22.2394 10.3929 22.1934 10.5086C22.1474 10.6243 22.0789 10.7298 21.992 10.819L20.184 12.678C20.0976 12.7679 19.9943 12.8397 19.8801 12.8894C19.7658 12.9391 19.6428 12.9656 19.5182 12.9675C19.3936 12.9693 19.2698 12.9465 19.1541 12.9002C19.0384 12.854 18.933 12.7852 18.844 12.698C18.7543 12.6117 18.6825 12.5084 18.6328 12.3942C18.5831 12.28 18.5564 12.1571 18.5544 12.0326C18.5523 11.9081 18.5749 11.7844 18.6208 11.6686C18.6668 11.5528 18.7351 11.4473 18.822 11.358L20.631 9.50002C20.7174 9.41018 20.8208 9.33831 20.9351 9.28855C21.0493 9.23878 21.1724 9.21209 21.297 9.21002V9.20902ZM25.297 9.20902C25.4216 9.20736 25.5453 9.23037 25.661 9.2767C25.7766 9.32304 25.882 9.3918 25.971 9.47902C26.0607 9.56544 26.1324 9.66874 26.182 9.78297C26.2316 9.89721 26.2582 10.0201 26.2601 10.1447C26.2621 10.2692 26.2394 10.3929 26.1934 10.5086C26.1474 10.6243 26.0789 10.7298 25.992 10.819L24.184 12.678C24.0976 12.7679 23.9943 12.8397 23.8801 12.8894C23.7658 12.9391 23.6428 12.9656 23.5182 12.9675C23.3936 12.9693 23.2698 12.9465 23.1541 12.9002C23.0384 12.854 22.933 12.7852 22.844 12.698C22.7543 12.6117 22.6825 12.5084 22.6328 12.3942C22.5831 12.28 22.5564 12.1571 22.5544 12.0326C22.5523 11.9081 22.5749 11.7844 22.6208 11.6686C22.6668 11.5528 22.7351 11.4473 22.822 11.358L24.631 9.50002C24.7174 9.41018 24.8208 9.33831 24.9351 9.28855C25.0493 9.23878 25.1724 9.21209 25.297 9.21002V9.20902ZM29.297 9.20902C29.4216 9.20736 29.5453 9.23037 29.661 9.2767C29.7766 9.32304 29.882 9.3918 29.971 9.47902C30.0607 9.56544 30.1324 9.66874 30.182 9.78297C30.2316 9.89721 30.2582 10.0201 30.2601 10.1447C30.2621 10.2692 30.2394 10.3929 30.1934 10.5086C30.1474 10.6243 30.0789 10.7298 29.992 10.819L28.184 12.678C28.0976 12.7679 27.9943 12.8397 27.8801 12.8894C27.7658 12.9391 27.6428 12.9656 27.5182 12.9675C27.3936 12.9693 27.2698 12.9465 27.1541 12.9002C27.0384 12.854 26.933 12.7852 26.844 12.698C26.7543 12.6117 26.6825 12.5084 26.6328 12.3942C26.5831 12.28 26.5564 12.1571 26.5544 12.0326C26.5523 11.9081 26.5749 11.7844 26.6208 11.6686C26.6668 11.5528 26.7351 11.4473 26.822 11.358L28.631 9.50002C28.7174 9.41018 28.8208 9.33831 28.9351 9.28855C29.0493 9.23878 29.1724 9.21209 29.297 9.21002V9.20902ZM33.016 9.22502C33.1406 9.22336 33.2643 9.24637 33.38 9.2927C33.4956 9.33904 33.601 9.4078 33.69 9.49502C33.7795 9.58149 33.851 9.68478 33.9004 9.79896C33.9498 9.91314 33.9763 10.036 33.9781 10.1604C33.98 10.2848 33.9572 10.4083 33.9112 10.5239C33.8652 10.6395 33.7968 10.7449 33.71 10.834L31.902 12.694C31.8156 12.7838 31.7122 12.8556 31.5979 12.9052C31.4836 12.9548 31.3606 12.9812 31.236 12.983C31.1114 12.9847 30.9876 12.9618 30.872 12.9155C30.7563 12.8691 30.6509 12.8003 30.562 12.713C30.4723 12.6266 30.4006 12.5233 30.351 12.4091C30.3014 12.2948 30.2748 12.1719 30.2729 12.0474C30.2709 11.9229 30.2936 11.7992 30.3396 11.6834C30.3856 11.5677 30.4541 11.4622 30.541 11.373L32.35 9.51602C32.4364 9.42618 32.5398 9.35431 32.6541 9.30455C32.7683 9.25478 32.8913 9.22809 33.016 9.22602V9.22502ZM13.863 14.037C13.926 14.037 13.977 14.087 13.977 14.15C13.977 14.1803 13.965 14.2092 13.9436 14.2306C13.9222 14.252 13.8932 14.264 13.863 14.264C13.8333 14.2632 13.8051 14.2509 13.7843 14.2296C13.7636 14.2083 13.752 14.1797 13.752 14.15C13.752 14.088 13.802 14.038 13.863 14.037ZM14.426 14.037C14.4528 14.0365 14.4788 14.0457 14.4992 14.0631C14.5197 14.0804 14.5331 14.1045 14.537 14.131V14.151C14.537 14.211 14.487 14.263 14.426 14.264C14.3958 14.2638 14.367 14.2517 14.3457 14.2303C14.3243 14.209 14.3123 14.1802 14.312 14.15C14.312 14.088 14.364 14.038 14.426 14.037ZM14.988 14.037C15.0149 14.0362 15.0412 14.0454 15.0619 14.0627C15.0825 14.08 15.0961 14.1043 15.1 14.131V14.151C15.099 14.211 15.05 14.263 14.988 14.264C14.9579 14.2638 14.9292 14.2516 14.908 14.2303C14.8869 14.2089 14.875 14.1801 14.875 14.15C14.875 14.088 14.925 14.036 14.988 14.037ZM15.551 14.037C15.611 14.037 15.658 14.084 15.662 14.143V14.15C15.662 14.212 15.612 14.263 15.551 14.264C15.536 14.264 15.5212 14.2611 15.5074 14.2553C15.4935 14.2496 15.481 14.2412 15.4704 14.2306C15.4598 14.22 15.4514 14.2075 15.4457 14.1936C15.4399 14.1798 15.437 14.165 15.437 14.15C15.437 14.088 15.488 14.036 15.551 14.037ZM16.113 14.037C16.173 14.037 16.221 14.084 16.225 14.143V14.15C16.224 14.212 16.175 14.263 16.113 14.264C16.0829 14.2638 16.0542 14.2516 16.033 14.2303C16.0119 14.2089 16 14.1801 16 14.15C16 14.088 16.05 14.036 16.113 14.037ZM16.676 14.037C16.736 14.037 16.784 14.084 16.787 14.143V14.15C16.787 14.212 16.737 14.263 16.676 14.264C16.6459 14.2638 16.6172 14.2516 16.596 14.2303C16.5749 14.2089 16.563 14.1801 16.563 14.15C16.563 14.088 16.613 14.036 16.676 14.037ZM17.236 14.037C17.296 14.037 17.346 14.083 17.35 14.143V14.15C17.35 14.1803 17.338 14.2092 17.3166 14.2306C17.2952 14.252 17.2662 14.264 17.236 14.264C17.2063 14.2632 17.1781 14.2509 17.1573 14.2296C17.1366 14.2083 17.125 14.1797 17.125 14.15C17.125 14.088 17.175 14.038 17.236 14.037ZM17.799 14.037C17.859 14.037 17.909 14.083 17.912 14.143V14.15C17.912 14.1801 17.9001 14.2089 17.879 14.2303C17.8578 14.2516 17.8291 14.2638 17.799 14.264C17.7693 14.2632 17.7411 14.2509 17.7203 14.2296C17.6996 14.2083 17.688 14.1797 17.688 14.15C17.688 14.088 17.737 14.038 17.798 14.037H17.799ZM18.361 14.037C18.421 14.037 18.471 14.083 18.475 14.143V14.15C18.475 14.1803 18.463 14.2092 18.4416 14.2306C18.4202 14.252 18.3912 14.264 18.361 14.264C18.3313 14.2632 18.3031 14.2509 18.2823 14.2296C18.2616 14.2083 18.25 14.1797 18.25 14.15C18.25 14.088 18.3 14.038 18.361 14.037ZM18.924 14.037C18.9508 14.0365 18.9768 14.0457 18.9972 14.0631C19.0177 14.0804 19.0311 14.1045 19.035 14.131V14.151C19.035 14.211 18.985 14.263 18.924 14.264C18.8943 14.2632 18.8661 14.2509 18.8453 14.2296C18.8246 14.2083 18.813 14.1797 18.813 14.15C18.812 14.088 18.862 14.038 18.923 14.037H18.924ZM19.486 14.037C19.546 14.037 19.594 14.084 19.598 14.143V14.15C19.597 14.212 19.548 14.263 19.486 14.264C19.4559 14.2638 19.4272 14.2516 19.406 14.2303C19.3849 14.2089 19.373 14.1801 19.373 14.15C19.373 14.088 19.423 14.036 19.486 14.037ZM20.049 14.037C20.109 14.037 20.157 14.084 20.16 14.143V14.15C20.16 14.212 20.11 14.263 20.049 14.264C20.0189 14.2638 19.9902 14.2516 19.969 14.2303C19.9479 14.2089 19.936 14.1801 19.936 14.15C19.936 14.088 19.986 14.036 20.049 14.037ZM20.611 14.037C20.671 14.037 20.719 14.084 20.723 14.143V14.15C20.722 14.212 20.673 14.263 20.611 14.264C20.5809 14.2638 20.5522 14.2516 20.531 14.2303C20.5099 14.2089 20.498 14.1801 20.498 14.15C20.498 14.088 20.548 14.036 20.611 14.037ZM21.174 14.037C21.234 14.037 21.282 14.084 21.285 14.143V14.15C21.285 14.212 21.235 14.263 21.174 14.264C21.1439 14.2638 21.1152 14.2516 21.094 14.2303C21.0729 14.2089 21.061 14.1801 21.061 14.15C21.061 14.088 21.111 14.036 21.174 14.037ZM21.734 14.037C21.794 14.037 21.844 14.083 21.848 14.143V14.15C21.848 14.1803 21.836 14.2092 21.8146 14.2306C21.7932 14.252 21.7642 14.264 21.734 14.264C21.7043 14.2632 21.6761 14.2509 21.6553 14.2296C21.6346 14.2083 21.623 14.1797 21.623 14.15C21.623 14.088 21.673 14.038 21.734 14.037ZM22.297 14.037C22.357 14.037 22.407 14.083 22.41 14.143V14.15C22.41 14.1801 22.3981 14.2089 22.377 14.2303C22.3558 14.2516 22.3271 14.2638 22.297 14.264C22.2673 14.2632 22.2391 14.2509 22.2183 14.2296C22.1976 14.2083 22.186 14.1797 22.186 14.15C22.186 14.088 22.235 14.038 22.296 14.037H22.297ZM22.859 14.037C22.922 14.037 22.973 14.087 22.973 14.15C22.973 14.1803 22.961 14.2092 22.9396 14.2306C22.9182 14.252 22.8892 14.264 22.859 14.264C22.8293 14.2632 22.8011 14.2509 22.7803 14.2296C22.7596 14.2083 22.748 14.1797 22.748 14.15C22.748 14.088 22.798 14.038 22.859 14.037ZM23.422 14.037C23.477 14.037 23.526 14.077 23.533 14.131V14.151C23.533 14.211 23.483 14.263 23.422 14.264C23.3923 14.2632 23.3641 14.2509 23.3433 14.2296C23.3226 14.2083 23.311 14.1797 23.311 14.15C23.311 14.088 23.36 14.038 23.421 14.037H23.422ZM23.984 14.037C24.0109 14.0362 24.0372 14.0454 24.0579 14.0627C24.0785 14.08 24.0921 14.1043 24.096 14.131V14.151C24.095 14.211 24.046 14.263 23.984 14.264C23.9539 14.2638 23.9252 14.2516 23.904 14.2303C23.8829 14.2089 23.871 14.1801 23.871 14.15C23.871 14.088 23.921 14.036 23.984 14.037ZM24.547 14.037C24.607 14.037 24.655 14.084 24.658 14.143V14.15C24.658 14.212 24.608 14.263 24.547 14.264C24.5169 14.2638 24.4882 14.2516 24.467 14.2303C24.4459 14.2089 24.434 14.1801 24.434 14.15C24.434 14.088 24.484 14.036 24.547 14.037ZM25.109 14.037C25.169 14.037 25.217 14.084 25.221 14.143V14.15C25.22 14.212 25.171 14.263 25.109 14.264C25.0789 14.2638 25.0502 14.2516 25.029 14.2303C25.0079 14.2089 24.996 14.1801 24.996 14.15C24.996 14.088 25.046 14.036 25.109 14.037ZM25.669 14.037C25.73 14.037 25.779 14.083 25.783 14.143V14.15C25.783 14.1801 25.7711 14.2089 25.75 14.2303C25.7288 14.2516 25.7001 14.2638 25.67 14.264C25.6403 14.2632 25.6121 14.2509 25.5913 14.2296C25.5706 14.2083 25.559 14.1797 25.559 14.15C25.558 14.088 25.608 14.038 25.669 14.037ZM26.232 14.037C26.292 14.037 26.342 14.083 26.346 14.143V14.15C26.346 14.1803 26.334 14.2092 26.3126 14.2306C26.2912 14.252 26.2622 14.264 26.232 14.264C26.2025 14.263 26.1745 14.2505 26.154 14.2292C26.1334 14.208 26.122 14.1796 26.122 14.15C26.121 14.088 26.17 14.038 26.232 14.037ZM26.795 14.037C26.855 14.037 26.905 14.083 26.908 14.143V14.15C26.908 14.1801 26.8961 14.2089 26.875 14.2303C26.8538 14.2516 26.8251 14.2638 26.795 14.264C26.7653 14.2632 26.7371 14.2509 26.7163 14.2296C26.6956 14.2083 26.684 14.1797 26.684 14.15C26.684 14.088 26.733 14.038 26.794 14.037H26.795ZM27.357 14.037C27.42 14.037 27.471 14.087 27.471 14.15C27.471 14.1803 27.459 14.2092 27.4376 14.2306C27.4162 14.252 27.3872 14.264 27.357 14.264C27.3275 14.263 27.2995 14.2505 27.279 14.2292C27.2584 14.208 27.247 14.1796 27.247 14.15C27.246 14.088 27.295 14.038 27.357 14.037ZM27.92 14.037C27.9468 14.0365 27.9728 14.0457 27.9932 14.0631C28.0137 14.0804 28.0271 14.1045 28.031 14.131V14.151C28.031 14.211 27.981 14.263 27.92 14.264C27.8903 14.2632 27.8621 14.2509 27.8413 14.2296C27.8206 14.2083 27.809 14.1797 27.809 14.15C27.808 14.088 27.858 14.038 27.919 14.037H27.92ZM28.482 14.037C28.542 14.037 28.59 14.084 28.594 14.143V14.15C28.593 14.212 28.544 14.263 28.482 14.264C28.4519 14.2638 28.4232 14.2516 28.402 14.2303C28.3809 14.2089 28.369 14.1801 28.369 14.15C28.369 14.088 28.419 14.036 28.482 14.037ZM29.045 14.037C29.105 14.037 29.153 14.084 29.156 14.143V14.15C29.156 14.212 29.106 14.263 29.045 14.264C29.0149 14.2638 28.9862 14.2516 28.965 14.2303C28.9439 14.2089 28.932 14.1801 28.932 14.15C28.932 14.088 28.982 14.036 29.045 14.037ZM29.607 14.037C29.667 14.037 29.715 14.084 29.719 14.143V14.15C29.718 14.212 29.669 14.263 29.607 14.264C29.5769 14.2638 29.5482 14.2516 29.527 14.2303C29.5059 14.2089 29.494 14.1801 29.494 14.15C29.494 14.088 29.544 14.036 29.607 14.037ZM30.168 14.037C30.228 14.037 30.278 14.083 30.281 14.143V14.15C30.281 14.1801 30.2691 14.2089 30.248 14.2303C30.2268 14.2516 30.1981 14.2638 30.168 14.264C30.1383 14.2632 30.1101 14.2509 30.0893 14.2296C30.0686 14.2083 30.057 14.1797 30.057 14.15C30.057 14.088 30.106 14.038 30.168 14.037ZM30.731 14.037C30.791 14.037 30.841 14.083 30.844 14.143V14.15C30.844 14.1803 30.832 14.2092 30.8106 14.2306C30.7892 14.252 30.7602 14.264 30.73 14.264C30.7005 14.263 30.6725 14.2505 30.652 14.2292C30.6314 14.208 30.62 14.1796 30.62 14.15C30.619 14.088 30.669 14.038 30.73 14.037H30.731ZM31.293 14.037C31.353 14.037 31.403 14.083 31.406 14.143V14.15C31.406 14.1801 31.3941 14.2089 31.373 14.2303C31.3518 14.2516 31.3231 14.2638 31.293 14.264C31.2633 14.2632 31.2351 14.2509 31.2143 14.2296C31.1936 14.2083 31.182 14.1797 31.182 14.15C31.182 14.088 31.231 14.038 31.293 14.037ZM31.856 14.037C31.8826 14.0367 31.9084 14.0461 31.9286 14.0634C31.9489 14.0807 31.9621 14.1047 31.966 14.131V14.151C31.966 14.211 31.916 14.263 31.856 14.264C31.8261 14.2635 31.7976 14.2513 31.7767 14.2299C31.7557 14.2086 31.744 14.1799 31.744 14.15C31.744 14.088 31.794 14.038 31.855 14.037H31.856ZM32.418 14.037C32.4448 14.0365 32.4708 14.0457 32.4912 14.0631C32.5117 14.0804 32.5251 14.1045 32.529 14.131V14.151C32.529 14.211 32.479 14.263 32.418 14.264C32.3879 14.2638 32.3592 14.2516 32.338 14.2303C32.3169 14.2089 32.305 14.1801 32.305 14.15C32.305 14.088 32.355 14.036 32.418 14.037ZM32.981 14.037C33.04 14.037 33.088 14.084 33.091 14.143V14.15C33.091 14.212 33.041 14.263 32.981 14.264C32.9508 14.264 32.9218 14.252 32.9004 14.2306C32.879 14.2092 32.867 14.1803 32.867 14.15C32.867 14.088 32.917 14.036 32.981 14.037ZM33.543 14.037C33.602 14.037 33.651 14.084 33.654 14.143V14.15C33.654 14.212 33.604 14.263 33.543 14.264C33.5129 14.2638 33.4842 14.2516 33.463 14.2303C33.4419 14.2089 33.43 14.1801 33.43 14.15C33.43 14.088 33.48 14.036 33.543 14.037ZM34.106 14.037C34.164 14.037 34.213 14.084 34.216 14.143V14.15C34.216 14.212 34.166 14.263 34.106 14.264C34.0758 14.264 34.0468 14.252 34.0254 14.2306C34.004 14.2092 33.992 14.1803 33.992 14.15C33.992 14.088 34.042 14.036 34.106 14.037ZM34.666 14.037C34.726 14.037 34.776 14.083 34.779 14.143V14.15C34.779 14.1801 34.7671 14.2089 34.746 14.2303C34.7248 14.2516 34.6961 14.2638 34.666 14.264C34.6363 14.2632 34.6081 14.2509 34.5873 14.2296C34.5666 14.2083 34.555 14.1797 34.555 14.15C34.555 14.088 34.604 14.038 34.666 14.037ZM17.296 15.74C17.4208 15.7382 17.5446 15.7612 17.6605 15.8075C17.7764 15.8539 17.8819 15.9227 17.971 16.01C18.0607 16.0964 18.1324 16.1997 18.182 16.314C18.2316 16.4282 18.2582 16.5511 18.2601 16.6757C18.2621 16.8002 18.2394 16.9239 18.1934 17.0396C18.1474 17.1553 18.0789 17.2608 17.992 17.35L16.184 19.209C16.0976 19.2989 15.9943 19.3707 15.8801 19.4204C15.7658 19.4701 15.6428 19.4966 15.5182 19.4985C15.3936 19.5003 15.2698 19.4775 15.1541 19.4312C15.0384 19.385 14.933 19.3162 14.844 19.229C14.7543 19.1427 14.6825 19.0394 14.6328 18.9252C14.5831 18.811 14.5564 18.6881 14.5544 18.5636C14.5523 18.4391 14.5749 18.3154 14.6208 18.1996C14.6668 18.0838 14.7351 17.9783 14.822 17.889L16.631 16.031C16.7175 15.9414 16.8209 15.8697 16.9352 15.8201C17.0495 15.7705 17.1724 15.744 17.297 15.742V15.74H17.296ZM21.296 15.74C21.4208 15.7382 21.5446 15.7612 21.6605 15.8075C21.7764 15.8539 21.8819 15.9227 21.971 16.01C22.0607 16.0964 22.1324 16.1997 22.182 16.314C22.2316 16.4282 22.2582 16.5511 22.2601 16.6757C22.2621 16.8002 22.2394 16.9239 22.1934 17.0396C22.1474 17.1553 22.0789 17.2608 21.992 17.35L20.184 19.209C20.0976 19.2989 19.9943 19.3707 19.8801 19.4204C19.7658 19.4701 19.6428 19.4966 19.5182 19.4985C19.3936 19.5003 19.2698 19.4775 19.1541 19.4312C19.0384 19.385 18.933 19.3162 18.844 19.229C18.7543 19.1427 18.6825 19.0394 18.6328 18.9252C18.5831 18.811 18.5564 18.6881 18.5544 18.5636C18.5523 18.4391 18.5749 18.3154 18.6208 18.1996C18.6668 18.0838 18.7351 17.9783 18.822 17.889L20.631 16.031C20.7175 15.9414 20.8209 15.8697 20.9352 15.8201C21.0495 15.7705 21.1724 15.744 21.297 15.742V15.74H21.296ZM25.296 15.74C25.4208 15.7382 25.5446 15.7612 25.6605 15.8075C25.7764 15.8539 25.8819 15.9227 25.971 16.01C26.0607 16.0964 26.1324 16.1997 26.182 16.314C26.2316 16.4282 26.2582 16.5511 26.2601 16.6757C26.2621 16.8002 26.2394 16.9239 26.1934 17.0396C26.1474 17.1553 26.0789 17.2608 25.992 17.35L24.184 19.209C24.0976 19.2989 23.9943 19.3707 23.8801 19.4204C23.7658 19.4701 23.6428 19.4966 23.5182 19.4985C23.3936 19.5003 23.2698 19.4775 23.1541 19.4312C23.0384 19.385 22.933 19.3162 22.844 19.229C22.7543 19.1427 22.6825 19.0394 22.6328 18.9252C22.5831 18.811 22.5564 18.6881 22.5544 18.5636C22.5523 18.4391 22.5749 18.3154 22.6208 18.1996C22.6668 18.0838 22.7351 17.9783 22.822 17.889L24.631 16.031C24.7175 15.9414 24.8209 15.8697 24.9352 15.8201C25.0495 15.7705 25.1724 15.744 25.297 15.742V15.74H25.296ZM29.296 15.74C29.4208 15.7382 29.5446 15.7612 29.6605 15.8075C29.7764 15.8539 29.8819 15.9227 29.971 16.01C30.0607 16.0964 30.1324 16.1997 30.182 16.314C30.2316 16.4282 30.2582 16.5511 30.2601 16.6757C30.2621 16.8002 30.2394 16.9239 30.1934 17.0396C30.1474 17.1553 30.0789 17.2608 29.992 17.35L28.184 19.209C28.0976 19.2989 27.9943 19.3707 27.8801 19.4204C27.7658 19.4701 27.6428 19.4966 27.5182 19.4985C27.3936 19.5003 27.2698 19.4775 27.1541 19.4312C27.0384 19.385 26.933 19.3162 26.844 19.229C26.7543 19.1427 26.6825 19.0394 26.6328 18.9252C26.5831 18.811 26.5564 18.6881 26.5544 18.5636C26.5523 18.4391 26.5749 18.3154 26.6208 18.1996C26.6668 18.0838 26.7351 17.9783 26.822 17.889L28.631 16.031C28.7175 15.9414 28.8209 15.8697 28.9352 15.8201C29.0495 15.7705 29.1724 15.744 29.297 15.742V15.74H29.296ZM33.016 15.756C33.1406 15.7544 33.2643 15.7774 33.3799 15.8238C33.4956 15.8701 33.601 15.9388 33.69 16.026C33.7796 16.1125 33.8512 16.2159 33.9008 16.3301C33.9503 16.4444 33.9768 16.5673 33.9786 16.6919C33.9805 16.8164 33.9577 16.9401 33.9116 17.0557C33.8655 17.1714 33.797 17.2769 33.71 17.366L31.902 19.225C31.8156 19.3149 31.7123 19.3867 31.5981 19.4364C31.4838 19.4861 31.3608 19.5126 31.2362 19.5145C31.1116 19.5163 30.9878 19.4935 30.8721 19.4472C30.7564 19.401 30.651 19.3322 30.562 19.245C30.4723 19.1586 30.4006 19.0553 30.351 18.9411C30.3014 18.8268 30.2748 18.7039 30.2729 18.5794C30.2709 18.4549 30.2936 18.3312 30.3396 18.2154C30.3856 18.0997 30.4541 17.9942 30.541 17.905L32.35 16.047C32.4364 15.9572 32.5398 15.8853 32.6541 15.8355C32.7683 15.7858 32.8913 15.7591 33.016 15.757V15.756ZM13.863 20.666C13.926 20.666 13.977 20.716 13.977 20.779C13.977 20.8093 13.965 20.8382 13.9436 20.8596C13.9222 20.881 13.8932 20.893 13.863 20.893C13.8333 20.8922 13.8051 20.8799 13.7843 20.8586C13.7636 20.8373 13.752 20.8087 13.752 20.779C13.752 20.717 13.802 20.666 13.863 20.666ZM14.426 20.666C14.4528 20.6655 14.4788 20.6747 14.4992 20.6921C14.5197 20.7094 14.5331 20.7335 14.537 20.76V20.78C14.537 20.84 14.487 20.892 14.426 20.893C14.3958 20.8928 14.367 20.8807 14.3457 20.8593C14.3243 20.838 14.3123 20.8092 14.312 20.779C14.312 20.717 14.364 20.666 14.426 20.666ZM14.988 20.666C15.0149 20.6652 15.0412 20.6744 15.0619 20.6917C15.0825 20.709 15.0961 20.7333 15.1 20.76V20.78C15.099 20.84 15.05 20.892 14.988 20.893C14.9579 20.8928 14.9292 20.8806 14.908 20.8593C14.8869 20.8379 14.875 20.8091 14.875 20.779C14.875 20.717 14.925 20.665 14.988 20.666ZM15.551 20.666C15.611 20.666 15.658 20.712 15.662 20.771V20.779C15.662 20.84 15.612 20.892 15.551 20.893C15.536 20.893 15.5212 20.8901 15.5074 20.8843C15.4935 20.8786 15.481 20.8702 15.4704 20.8596C15.4598 20.849 15.4514 20.8365 15.4457 20.8226C15.4399 20.8088 15.437 20.794 15.437 20.779C15.437 20.717 15.488 20.665 15.551 20.666ZM16.113 20.666C16.173 20.666 16.221 20.712 16.225 20.771V20.779C16.224 20.84 16.175 20.892 16.113 20.893C16.0829 20.8928 16.0542 20.8806 16.033 20.8593C16.0119 20.8379 16 20.8091 16 20.779C16 20.717 16.05 20.665 16.113 20.666ZM16.676 20.666C16.736 20.666 16.784 20.712 16.787 20.771V20.779C16.787 20.84 16.737 20.892 16.676 20.893C16.6459 20.8928 16.6172 20.8806 16.596 20.8593C16.5749 20.8379 16.563 20.8091 16.563 20.779C16.563 20.717 16.613 20.665 16.676 20.666ZM17.236 20.666C17.296 20.666 17.346 20.712 17.35 20.771V20.779C17.35 20.8093 17.338 20.8382 17.3166 20.8596C17.2952 20.881 17.2662 20.893 17.236 20.893C17.2063 20.8922 17.1781 20.8799 17.1573 20.8586C17.1366 20.8373 17.125 20.8087 17.125 20.779C17.125 20.717 17.175 20.666 17.236 20.666ZM17.799 20.666C17.859 20.666 17.909 20.712 17.912 20.771V20.779C17.912 20.8091 17.9001 20.8379 17.879 20.8593C17.8578 20.8806 17.8291 20.8928 17.799 20.893C17.7693 20.8922 17.7411 20.8799 17.7203 20.8586C17.6996 20.8373 17.688 20.8087 17.688 20.779C17.688 20.717 17.737 20.666 17.798 20.666H17.799ZM18.361 20.666C18.421 20.666 18.471 20.712 18.475 20.771V20.779C18.475 20.8093 18.463 20.8382 18.4416 20.8596C18.4202 20.881 18.3912 20.893 18.361 20.893C18.3313 20.8922 18.3031 20.8799 18.2823 20.8586C18.2616 20.8373 18.25 20.8087 18.25 20.779C18.25 20.717 18.3 20.666 18.361 20.666ZM18.924 20.666C18.9508 20.6655 18.9768 20.6747 18.9972 20.6921C19.0177 20.7094 19.0311 20.7335 19.035 20.76V20.78C19.035 20.84 18.985 20.892 18.924 20.893C18.8943 20.8922 18.8661 20.8799 18.8453 20.8586C18.8246 20.8373 18.813 20.8087 18.813 20.779C18.812 20.717 18.862 20.666 18.923 20.666H18.924ZM19.486 20.666C19.546 20.666 19.594 20.712 19.598 20.771V20.779C19.597 20.84 19.548 20.892 19.486 20.893C19.4559 20.8928 19.4272 20.8806 19.406 20.8593C19.3849 20.8379 19.373 20.8091 19.373 20.779C19.373 20.717 19.423 20.665 19.486 20.666ZM20.049 20.666C20.109 20.666 20.157 20.712 20.16 20.771V20.779C20.16 20.84 20.11 20.892 20.049 20.893C20.0189 20.8928 19.9902 20.8806 19.969 20.8593C19.9479 20.8379 19.936 20.8091 19.936 20.779C19.936 20.717 19.986 20.665 20.049 20.666ZM20.611 20.666C20.671 20.666 20.719 20.712 20.723 20.771V20.779C20.722 20.84 20.673 20.892 20.611 20.893C20.5809 20.8928 20.5522 20.8806 20.531 20.8593C20.5099 20.8379 20.498 20.8091 20.498 20.779C20.498 20.717 20.548 20.665 20.611 20.666ZM21.174 20.666C21.234 20.666 21.282 20.712 21.285 20.771V20.779C21.285 20.84 21.235 20.892 21.174 20.893C21.1439 20.8928 21.1152 20.8806 21.094 20.8593C21.0729 20.8379 21.061 20.8091 21.061 20.779C21.061 20.717 21.111 20.665 21.174 20.666ZM21.734 20.666C21.794 20.666 21.844 20.712 21.848 20.771V20.779C21.848 20.8093 21.836 20.8382 21.8146 20.8596C21.7932 20.881 21.7642 20.893 21.734 20.893C21.7043 20.8922 21.6761 20.8799 21.6553 20.8586C21.6346 20.8373 21.623 20.8087 21.623 20.779C21.623 20.717 21.673 20.666 21.734 20.666ZM22.297 20.666C22.357 20.666 22.407 20.712 22.41 20.771V20.779C22.41 20.8091 22.3981 20.8379 22.377 20.8593C22.3558 20.8806 22.3271 20.8928 22.297 20.893C22.2673 20.8922 22.2391 20.8799 22.2183 20.8586C22.1976 20.8373 22.186 20.8087 22.186 20.779C22.186 20.717 22.235 20.666 22.296 20.666H22.297ZM22.859 20.666C22.922 20.666 22.973 20.716 22.973 20.779C22.973 20.8093 22.961 20.8382 22.9396 20.8596C22.9182 20.881 22.8892 20.893 22.859 20.893C22.8293 20.8922 22.8011 20.8799 22.7803 20.8586C22.7596 20.8373 22.748 20.8087 22.748 20.779C22.748 20.717 22.798 20.666 22.859 20.666ZM23.422 20.666C23.477 20.666 23.526 20.706 23.533 20.76V20.78C23.533 20.84 23.483 20.892 23.422 20.893C23.3923 20.8922 23.3641 20.8799 23.3433 20.8586C23.3226 20.8373 23.311 20.8087 23.311 20.779C23.311 20.717 23.36 20.666 23.421 20.666H23.422ZM23.984 20.666C24.0109 20.6652 24.0372 20.6744 24.0579 20.6917C24.0785 20.709 24.0921 20.7333 24.096 20.76V20.78C24.095 20.84 24.046 20.892 23.984 20.893C23.9539 20.8928 23.9252 20.8806 23.904 20.8593C23.8829 20.8379 23.871 20.8091 23.871 20.779C23.871 20.717 23.921 20.665 23.984 20.666ZM24.547 20.666C24.607 20.666 24.655 20.712 24.658 20.771V20.779C24.658 20.84 24.608 20.892 24.547 20.893C24.5169 20.8928 24.4882 20.8806 24.467 20.8593C24.4459 20.8379 24.434 20.8091 24.434 20.779C24.434 20.717 24.484 20.665 24.547 20.666ZM25.109 20.666C25.169 20.666 25.217 20.712 25.221 20.771V20.779C25.22 20.84 25.171 20.892 25.109 20.893C25.0789 20.8928 25.0502 20.8806 25.029 20.8593C25.0079 20.8379 24.996 20.8091 24.996 20.779C24.996 20.717 25.046 20.665 25.109 20.666ZM25.669 20.666C25.73 20.666 25.779 20.712 25.783 20.771V20.779C25.783 20.8091 25.7711 20.8379 25.75 20.8593C25.7288 20.8806 25.7001 20.8928 25.67 20.893C25.6403 20.8922 25.6121 20.8799 25.5913 20.8586C25.5706 20.8373 25.559 20.8087 25.559 20.779C25.558 20.717 25.608 20.666 25.669 20.666ZM26.232 20.666C26.292 20.666 26.342 20.712 26.346 20.771V20.779C26.346 20.8093 26.334 20.8382 26.3126 20.8596C26.2912 20.881 26.2622 20.893 26.232 20.893C26.2025 20.892 26.1745 20.8795 26.154 20.8582C26.1334 20.837 26.122 20.8086 26.122 20.779C26.121 20.717 26.17 20.666 26.232 20.666ZM26.795 20.666C26.855 20.666 26.905 20.712 26.908 20.771V20.779C26.908 20.8091 26.8961 20.8379 26.875 20.8593C26.8538 20.8806 26.8251 20.8928 26.795 20.893C26.7653 20.8922 26.7371 20.8799 26.7163 20.8586C26.6956 20.8373 26.684 20.8087 26.684 20.779C26.684 20.717 26.733 20.666 26.794 20.666H26.795ZM27.357 20.666C27.42 20.666 27.471 20.716 27.471 20.779C27.471 20.8093 27.459 20.8382 27.4376 20.8596C27.4162 20.881 27.3872 20.893 27.357 20.893C27.3275 20.892 27.2995 20.8795 27.279 20.8582C27.2584 20.837 27.247 20.8086 27.247 20.779C27.246 20.717 27.295 20.666 27.357 20.666ZM27.92 20.666C27.9468 20.6655 27.9728 20.6747 27.9932 20.6921C28.0137 20.7094 28.0271 20.7335 28.031 20.76V20.78C28.031 20.84 27.981 20.892 27.92 20.893C27.8903 20.8922 27.8621 20.8799 27.8413 20.8586C27.8206 20.8373 27.809 20.8087 27.809 20.779C27.808 20.717 27.858 20.666 27.919 20.666H27.92ZM28.482 20.666C28.542 20.666 28.59 20.712 28.594 20.771V20.779C28.593 20.84 28.544 20.892 28.482 20.893C28.4519 20.8928 28.4232 20.8806 28.402 20.8593C28.3809 20.8379 28.369 20.8091 28.369 20.779C28.369 20.717 28.419 20.665 28.482 20.666ZM29.045 20.666C29.105 20.666 29.153 20.712 29.156 20.771V20.779C29.156 20.84 29.106 20.892 29.045 20.893C29.0149 20.8928 28.9862 20.8806 28.965 20.8593C28.9439 20.8379 28.932 20.8091 28.932 20.779C28.932 20.717 28.982 20.665 29.045 20.666ZM29.607 20.666C29.667 20.666 29.715 20.712 29.719 20.771V20.779C29.718 20.84 29.669 20.892 29.607 20.893C29.5769 20.8928 29.5482 20.8806 29.527 20.8593C29.5059 20.8379 29.494 20.8091 29.494 20.779C29.494 20.717 29.544 20.665 29.607 20.666ZM30.168 20.666C30.228 20.666 30.278 20.712 30.281 20.771V20.779C30.281 20.8091 30.2691 20.8379 30.248 20.8593C30.2268 20.8806 30.1981 20.8928 30.168 20.893C30.1383 20.8922 30.1101 20.8799 30.0893 20.8586C30.0686 20.8373 30.057 20.8087 30.057 20.779C30.057 20.717 30.106 20.666 30.168 20.666ZM30.731 20.666C30.791 20.666 30.841 20.712 30.844 20.771V20.779C30.844 20.8093 30.832 20.8382 30.8106 20.8596C30.7892 20.881 30.7602 20.893 30.73 20.893C30.7005 20.892 30.6725 20.8795 30.652 20.8582C30.6314 20.837 30.62 20.8086 30.62 20.779C30.619 20.717 30.669 20.666 30.73 20.666H30.731ZM31.293 20.666C31.353 20.666 31.403 20.712 31.406 20.771V20.779C31.406 20.8091 31.3941 20.8379 31.373 20.8593C31.3518 20.8806 31.3231 20.8928 31.293 20.893C31.2633 20.8922 31.2351 20.8799 31.2143 20.8586C31.1936 20.8373 31.182 20.8087 31.182 20.779C31.182 20.717 31.231 20.666 31.293 20.666ZM31.856 20.666C31.8826 20.6657 31.9084 20.6751 31.9286 20.6924C31.9489 20.7097 31.9621 20.7337 31.966 20.76V20.78C31.966 20.84 31.916 20.892 31.856 20.893C31.8261 20.8925 31.7976 20.8803 31.7767 20.8589C31.7557 20.8376 31.744 20.8089 31.744 20.779C31.744 20.717 31.794 20.666 31.855 20.666H31.856ZM32.418 20.666C32.4448 20.6655 32.4708 20.6747 32.4912 20.6921C32.5117 20.7094 32.5251 20.7335 32.529 20.76V20.78C32.529 20.84 32.479 20.892 32.418 20.893C32.3879 20.8928 32.3592 20.8806 32.338 20.8593C32.3169 20.8379 32.305 20.8091 32.305 20.779C32.305 20.717 32.355 20.665 32.418 20.666ZM32.981 20.666C33.04 20.666 33.088 20.712 33.091 20.771V20.779C33.091 20.84 33.041 20.892 32.981 20.893C32.9508 20.893 32.9218 20.881 32.9004 20.8596C32.879 20.8382 32.867 20.8093 32.867 20.779C32.867 20.717 32.917 20.665 32.981 20.666ZM33.543 20.666C33.602 20.666 33.651 20.712 33.654 20.771V20.779C33.654 20.84 33.604 20.892 33.543 20.893C33.5129 20.8928 33.4842 20.8806 33.463 20.8593C33.4419 20.8379 33.43 20.8091 33.43 20.779C33.43 20.717 33.48 20.665 33.543 20.666ZM34.106 20.666C34.164 20.666 34.213 20.712 34.216 20.771V20.779C34.216 20.84 34.166 20.892 34.106 20.893C34.0758 20.893 34.0468 20.881 34.0254 20.8596C34.004 20.8382 33.992 20.8093 33.992 20.779C33.992 20.717 34.042 20.665 34.106 20.666ZM34.666 20.666C34.726 20.666 34.776 20.712 34.779 20.771V20.779C34.779 20.8091 34.7671 20.8379 34.746 20.8593C34.7248 20.8806 34.6961 20.8928 34.666 20.893C34.6363 20.8922 34.6081 20.8799 34.5873 20.8586C34.5666 20.8373 34.555 20.8087 34.555 20.779C34.555 20.717 34.604 20.666 34.666 20.666ZM17.296 22.209C17.4208 22.2072 17.5446 22.2302 17.6605 22.2765C17.7764 22.3229 17.8819 22.3917 17.971 22.479C18.0607 22.5654 18.1324 22.6687 18.182 22.783C18.2316 22.8972 18.2582 23.0201 18.2601 23.1447C18.2621 23.2692 18.2394 23.3929 18.1934 23.5086C18.1474 23.6243 18.0789 23.7298 17.992 23.819L16.184 25.678C16.0976 25.7679 15.9943 25.8397 15.8801 25.8894C15.7658 25.9391 15.6428 25.9656 15.5182 25.9675C15.3936 25.9693 15.2698 25.9465 15.1541 25.9002C15.0384 25.854 14.933 25.7852 14.844 25.698C14.7543 25.6117 14.6825 25.5084 14.6328 25.3942C14.5831 25.28 14.5564 25.1571 14.5544 25.0326C14.5523 24.9081 14.5749 24.7844 14.6208 24.6686C14.6668 24.5528 14.7351 24.4473 14.822 24.358L16.631 22.5C16.7174 22.4102 16.8208 22.3383 16.9351 22.2885C17.0493 22.2388 17.1724 22.2121 17.297 22.21V22.209H17.296ZM21.296 22.209C21.4208 22.2072 21.5446 22.2302 21.6605 22.2765C21.7764 22.3229 21.8819 22.3917 21.971 22.479C22.0607 22.5654 22.1324 22.6687 22.182 22.783C22.2316 22.8972 22.2582 23.0201 22.2601 23.1447C22.2621 23.2692 22.2394 23.3929 22.1934 23.5086C22.1474 23.6243 22.0789 23.7298 21.992 23.819L20.184 25.678C20.0976 25.7679 19.9943 25.8397 19.8801 25.8894C19.7658 25.9391 19.6428 25.9656 19.5182 25.9675C19.3936 25.9693 19.2698 25.9465 19.1541 25.9002C19.0384 25.854 18.933 25.7852 18.844 25.698C18.7543 25.6117 18.6825 25.5084 18.6328 25.3942C18.5831 25.28 18.5564 25.1571 18.5544 25.0326C18.5523 24.9081 18.5749 24.7844 18.6208 24.6686C18.6668 24.5528 18.7351 24.4473 18.822 24.358L20.631 22.5C20.7174 22.4102 20.8208 22.3383 20.9351 22.2885C21.0493 22.2388 21.1724 22.2121 21.297 22.21V22.209H21.296ZM25.296 22.209C25.4208 22.2072 25.5446 22.2302 25.6605 22.2765C25.7764 22.3229 25.8819 22.3917 25.971 22.479C26.0607 22.5654 26.1324 22.6687 26.182 22.783C26.2316 22.8972 26.2582 23.0201 26.2601 23.1447C26.2621 23.2692 26.2394 23.3929 26.1934 23.5086C26.1474 23.6243 26.0789 23.7298 25.992 23.819L24.184 25.678C24.0976 25.7679 23.9943 25.8397 23.8801 25.8894C23.7658 25.9391 23.6428 25.9656 23.5182 25.9675C23.3936 25.9693 23.2698 25.9465 23.1541 25.9002C23.0384 25.854 22.933 25.7852 22.844 25.698C22.7543 25.6117 22.6825 25.5084 22.6328 25.3942C22.5831 25.28 22.5564 25.1571 22.5544 25.0326C22.5523 24.9081 22.5749 24.7844 22.6208 24.6686C22.6668 24.5528 22.7351 24.4473 22.822 24.358L24.631 22.5C24.7174 22.4102 24.8208 22.3383 24.9351 22.2885C25.0493 22.2388 25.1724 22.2121 25.297 22.21V22.209H25.296ZM29.296 22.209C29.4208 22.2072 29.5446 22.2302 29.6605 22.2765C29.7764 22.3229 29.8819 22.3917 29.971 22.479C30.0607 22.5654 30.1324 22.6687 30.182 22.783C30.2316 22.8972 30.2582 23.0201 30.2601 23.1447C30.2621 23.2692 30.2394 23.3929 30.1934 23.5086C30.1474 23.6243 30.0789 23.7298 29.992 23.819L28.184 25.678C28.0976 25.7679 27.9943 25.8397 27.8801 25.8894C27.7658 25.9391 27.6428 25.9656 27.5182 25.9675C27.3936 25.9693 27.2698 25.9465 27.1541 25.9002C27.0384 25.854 26.933 25.7852 26.844 25.698C26.7543 25.6117 26.6825 25.5084 26.6328 25.3942C26.5831 25.28 26.5564 25.1571 26.5544 25.0326C26.5523 24.9081 26.5749 24.7844 26.6208 24.6686C26.6668 24.5528 26.7351 24.4473 26.822 24.358L28.631 22.5C28.7174 22.4102 28.8208 22.3383 28.9351 22.2885C29.0493 22.2388 29.1724 22.2121 29.297 22.21V22.209H29.296ZM33.016 22.225C33.1406 22.2234 33.2643 22.2464 33.3799 22.2928C33.4956 22.3391 33.601 22.4078 33.69 22.495C33.7795 22.5815 33.851 22.6848 33.9004 22.799C33.9498 22.9131 33.9763 23.036 33.9781 23.1604C33.98 23.2848 33.9572 23.4083 33.9112 23.5239C33.8652 23.6395 33.7968 23.7449 33.71 23.834L31.902 25.694C31.8156 25.7838 31.7122 25.8556 31.5979 25.9052C31.4836 25.9548 31.3606 25.9812 31.236 25.983C31.1114 25.9847 30.9876 25.9618 30.872 25.9155C30.7563 25.8691 30.6509 25.8003 30.562 25.713C30.4723 25.6266 30.4006 25.5233 30.351 25.4091C30.3014 25.2948 30.2748 25.1719 30.2729 25.0474C30.2709 24.9229 30.2936 24.7992 30.3396 24.6834C30.3856 24.5677 30.4541 24.4622 30.541 24.373L32.35 22.516C32.4364 22.4262 32.5398 22.3543 32.6541 22.3045C32.7683 22.2548 32.8913 22.2281 33.016 22.226V22.225ZM13.863 27.295C13.926 27.295 13.977 27.345 13.977 27.408C13.9767 27.4381 13.9646 27.4668 13.9433 27.488C13.9219 27.5091 13.8931 27.521 13.863 27.521C13.8335 27.5202 13.8054 27.508 13.7847 27.4869C13.764 27.4659 13.7522 27.4376 13.752 27.408C13.752 27.346 13.802 27.295 13.863 27.295ZM14.426 27.295C14.4528 27.2945 14.4788 27.3037 14.4992 27.3211C14.5197 27.3384 14.5331 27.3625 14.537 27.389V27.409C14.537 27.469 14.487 27.521 14.426 27.522C14.3958 27.5218 14.367 27.5097 14.3457 27.4883C14.3243 27.467 14.3123 27.4382 14.312 27.408C14.312 27.346 14.364 27.295 14.426 27.295ZM14.988 27.295C15.0149 27.2942 15.0412 27.3034 15.0619 27.3207C15.0825 27.338 15.0961 27.3623 15.1 27.389V27.409C15.099 27.469 15.05 27.521 14.988 27.522C14.9579 27.5218 14.9292 27.5096 14.908 27.4883C14.8869 27.4669 14.875 27.4381 14.875 27.408C14.875 27.345 14.925 27.294 14.988 27.295ZM15.551 27.295C15.611 27.295 15.658 27.341 15.662 27.4V27.408C15.662 27.469 15.612 27.521 15.551 27.521C15.5209 27.521 15.4921 27.5091 15.4707 27.488C15.4494 27.4668 15.4373 27.4381 15.437 27.408C15.437 27.345 15.488 27.294 15.551 27.295ZM16.113 27.295C16.173 27.295 16.221 27.341 16.225 27.4V27.408C16.224 27.469 16.175 27.521 16.113 27.521C16.0831 27.5208 16.0545 27.5088 16.0334 27.4876C16.0122 27.4665 16.0003 27.4379 16 27.408C16 27.345 16.05 27.294 16.113 27.295ZM16.676 27.295C16.736 27.295 16.784 27.341 16.787 27.4V27.408C16.787 27.469 16.737 27.521 16.676 27.521C16.6461 27.5208 16.6175 27.5088 16.5964 27.4876C16.5752 27.4665 16.5633 27.4379 16.563 27.408C16.563 27.345 16.613 27.294 16.676 27.295ZM17.236 27.295C17.296 27.295 17.346 27.341 17.35 27.4V27.408C17.3497 27.4381 17.3376 27.4668 17.3163 27.488C17.2949 27.5091 17.2661 27.521 17.236 27.521C17.2065 27.5202 17.1784 27.508 17.1577 27.4869C17.137 27.4659 17.1252 27.4376 17.125 27.408C17.125 27.346 17.175 27.295 17.236 27.295ZM17.799 27.295C17.859 27.295 17.909 27.341 17.912 27.4V27.408C17.9117 27.4379 17.8997 27.4665 17.8786 27.4876C17.8575 27.5088 17.8289 27.5208 17.799 27.521C17.7695 27.5202 17.7414 27.508 17.7207 27.4869C17.7 27.4659 17.6882 27.4376 17.688 27.408C17.688 27.346 17.737 27.295 17.798 27.295H17.799ZM18.361 27.295C18.421 27.295 18.471 27.341 18.475 27.4V27.408C18.4747 27.4381 18.4626 27.4668 18.4413 27.488C18.4199 27.5091 18.3911 27.521 18.361 27.521C18.3315 27.5202 18.3034 27.508 18.2827 27.4869C18.262 27.4659 18.2502 27.4376 18.25 27.408C18.25 27.346 18.3 27.295 18.361 27.295ZM18.924 27.295C18.9508 27.2945 18.9768 27.3037 18.9972 27.3211C19.0177 27.3384 19.0311 27.3625 19.035 27.389V27.409C19.035 27.469 18.985 27.521 18.924 27.522C18.8943 27.5212 18.8661 27.5089 18.8453 27.4876C18.8246 27.4663 18.813 27.4377 18.813 27.408C18.812 27.346 18.862 27.295 18.923 27.295H18.924ZM19.486 27.295C19.546 27.295 19.594 27.341 19.598 27.4V27.408C19.597 27.469 19.548 27.521 19.486 27.521C19.4561 27.5208 19.4275 27.5088 19.4064 27.4876C19.3852 27.4665 19.3733 27.4379 19.373 27.408C19.373 27.345 19.423 27.294 19.486 27.295ZM20.049 27.295C20.109 27.295 20.157 27.341 20.16 27.4V27.408C20.16 27.469 20.11 27.521 20.049 27.521C20.0191 27.5208 19.9905 27.5088 19.9694 27.4876C19.9482 27.4665 19.9363 27.4379 19.936 27.408C19.936 27.345 19.986 27.294 20.049 27.295ZM20.611 27.295C20.671 27.295 20.719 27.341 20.723 27.4V27.408C20.722 27.469 20.673 27.521 20.611 27.521C20.5811 27.5208 20.5525 27.5088 20.5314 27.4876C20.5102 27.4665 20.4983 27.4379 20.498 27.408C20.498 27.345 20.548 27.294 20.611 27.295ZM21.174 27.295C21.234 27.295 21.282 27.341 21.285 27.4V27.408C21.285 27.469 21.235 27.521 21.174 27.521C21.1441 27.5208 21.1155 27.5088 21.0944 27.4876C21.0732 27.4665 21.0613 27.4379 21.061 27.408C21.061 27.345 21.111 27.294 21.174 27.295ZM21.734 27.295C21.794 27.295 21.844 27.341 21.848 27.4V27.408C21.8477 27.4381 21.8356 27.4668 21.8143 27.488C21.7929 27.5091 21.7641 27.521 21.734 27.521C21.7045 27.5202 21.6764 27.508 21.6557 27.4869C21.635 27.4659 21.6232 27.4376 21.623 27.408C21.623 27.346 21.673 27.295 21.734 27.295ZM22.297 27.295C22.357 27.295 22.407 27.341 22.41 27.4V27.408C22.4097 27.4379 22.3977 27.4665 22.3766 27.4876C22.3555 27.5088 22.3269 27.5208 22.297 27.521C22.2675 27.5202 22.2394 27.508 22.2187 27.4869C22.198 27.4659 22.1862 27.4376 22.186 27.408C22.186 27.346 22.235 27.295 22.296 27.295H22.297ZM22.859 27.295C22.922 27.295 22.973 27.345 22.973 27.408C22.9727 27.4381 22.9606 27.4668 22.9393 27.488C22.9179 27.5091 22.8891 27.521 22.859 27.521C22.8295 27.5202 22.8014 27.508 22.7807 27.4869C22.76 27.4659 22.7482 27.4376 22.748 27.408C22.748 27.346 22.798 27.295 22.859 27.295ZM23.422 27.295C23.477 27.295 23.526 27.335 23.533 27.389V27.409C23.533 27.469 23.483 27.521 23.422 27.522C23.3923 27.5212 23.3641 27.5089 23.3433 27.4876C23.3226 27.4663 23.311 27.4377 23.311 27.408C23.311 27.346 23.36 27.295 23.421 27.295H23.422ZM23.984 27.295C24.0109 27.2942 24.0372 27.3034 24.0579 27.3207C24.0785 27.338 24.0921 27.3623 24.096 27.389V27.409C24.095 27.469 24.046 27.521 23.984 27.522C23.9539 27.5218 23.9252 27.5096 23.904 27.4883C23.8829 27.4669 23.871 27.4381 23.871 27.408C23.871 27.345 23.921 27.294 23.984 27.295ZM24.547 27.295C24.607 27.295 24.655 27.341 24.658 27.4V27.408C24.658 27.469 24.608 27.521 24.547 27.521C24.5171 27.5208 24.4885 27.5088 24.4674 27.4876C24.4462 27.4665 24.4343 27.4379 24.434 27.408C24.434 27.345 24.484 27.294 24.547 27.295ZM25.109 27.295C25.169 27.295 25.217 27.341 25.221 27.4V27.408C25.22 27.469 25.171 27.521 25.109 27.521C25.0791 27.5208 25.0505 27.5088 25.0294 27.4876C25.0082 27.4665 24.9963 27.4379 24.996 27.408C24.996 27.345 25.046 27.294 25.109 27.295ZM25.669 27.295C25.73 27.295 25.779 27.341 25.783 27.4V27.408C25.7827 27.4379 25.7707 27.4665 25.7496 27.4876C25.7285 27.5088 25.6999 27.5208 25.67 27.521C25.6405 27.5202 25.6124 27.508 25.5917 27.4869C25.571 27.4659 25.5592 27.4376 25.559 27.408C25.558 27.346 25.608 27.295 25.669 27.295ZM26.232 27.295C26.292 27.295 26.342 27.341 26.346 27.4V27.408C26.3457 27.4381 26.3336 27.4668 26.3123 27.488C26.2909 27.5091 26.2621 27.521 26.232 27.521C26.2026 27.52 26.1748 27.5077 26.1543 27.4866C26.1338 27.4656 26.1222 27.4374 26.122 27.408C26.121 27.346 26.17 27.295 26.232 27.295ZM26.795 27.295C26.855 27.295 26.905 27.341 26.908 27.4V27.408C26.9077 27.4379 26.8957 27.4665 26.8746 27.4876C26.8535 27.5088 26.8249 27.5208 26.795 27.521C26.7655 27.5202 26.7374 27.508 26.7167 27.4869C26.696 27.4659 26.6842 27.4376 26.684 27.408C26.684 27.346 26.733 27.295 26.794 27.295H26.795ZM27.357 27.295C27.42 27.295 27.471 27.345 27.471 27.408C27.4707 27.4381 27.4586 27.4668 27.4373 27.488C27.4159 27.5091 27.3871 27.521 27.357 27.521C27.3276 27.52 27.2998 27.5077 27.2793 27.4866C27.2588 27.4656 27.2472 27.4374 27.247 27.408C27.246 27.346 27.295 27.295 27.357 27.295ZM27.92 27.295C27.9468 27.2945 27.9728 27.3037 27.9932 27.3211C28.0137 27.3384 28.0271 27.3625 28.031 27.389V27.409C28.031 27.469 27.981 27.521 27.92 27.522C27.8903 27.5212 27.8621 27.5089 27.8413 27.4876C27.8206 27.4663 27.809 27.4377 27.809 27.408C27.808 27.346 27.858 27.295 27.919 27.295H27.92ZM28.482 27.295C28.542 27.295 28.59 27.341 28.594 27.4V27.408C28.593 27.469 28.544 27.521 28.482 27.521C28.4521 27.5208 28.4235 27.5088 28.4024 27.4876C28.3812 27.4665 28.3693 27.4379 28.369 27.408C28.369 27.345 28.419 27.294 28.482 27.295ZM29.045 27.295C29.105 27.295 29.153 27.341 29.156 27.4V27.408C29.156 27.469 29.106 27.521 29.045 27.521C29.0151 27.5208 28.9865 27.5088 28.9654 27.4876C28.9442 27.4665 28.9323 27.4379 28.932 27.408C28.932 27.345 28.982 27.294 29.045 27.295ZM29.607 27.295C29.667 27.295 29.715 27.341 29.719 27.4V27.408C29.718 27.469 29.669 27.521 29.607 27.521C29.5771 27.5208 29.5485 27.5088 29.5274 27.4876C29.5062 27.4665 29.4943 27.4379 29.494 27.408C29.494 27.345 29.544 27.294 29.607 27.295ZM30.168 27.295C30.228 27.295 30.278 27.341 30.281 27.4V27.408C30.2807 27.4379 30.2687 27.4665 30.2476 27.4876C30.2265 27.5088 30.1979 27.5208 30.168 27.521C30.1385 27.5202 30.1104 27.508 30.0897 27.4869C30.069 27.4659 30.0572 27.4376 30.057 27.408C30.057 27.346 30.106 27.295 30.168 27.295ZM30.731 27.295C30.791 27.295 30.841 27.341 30.844 27.4V27.408C30.8437 27.4381 30.8316 27.4668 30.8103 27.488C30.7889 27.5091 30.7601 27.521 30.73 27.521C30.7006 27.52 30.6728 27.5077 30.6523 27.4866C30.6318 27.4656 30.6202 27.4374 30.62 27.408C30.619 27.346 30.669 27.295 30.73 27.295H30.731ZM31.293 27.295C31.353 27.295 31.403 27.341 31.406 27.4V27.408C31.4057 27.4379 31.3937 27.4665 31.3726 27.4876C31.3515 27.5088 31.3229 27.5208 31.293 27.521C31.2635 27.5202 31.2354 27.508 31.2147 27.4869C31.194 27.4659 31.1822 27.4376 31.182 27.408C31.182 27.346 31.231 27.295 31.293 27.295ZM31.856 27.295C31.8826 27.2947 31.9084 27.3041 31.9286 27.3214C31.9489 27.3387 31.9621 27.3627 31.966 27.389V27.409C31.966 27.469 31.916 27.521 31.856 27.522C31.8261 27.5215 31.7976 27.5093 31.7767 27.4879C31.7557 27.4666 31.744 27.4379 31.744 27.408C31.744 27.346 31.794 27.295 31.855 27.295H31.856ZM32.418 27.295C32.4448 27.2945 32.4708 27.3037 32.4912 27.3211C32.5117 27.3384 32.5251 27.3625 32.529 27.389V27.409C32.529 27.469 32.479 27.521 32.418 27.522C32.3879 27.5218 32.3592 27.5096 32.338 27.4883C32.3169 27.4669 32.305 27.4381 32.305 27.408C32.305 27.345 32.355 27.294 32.418 27.295ZM32.981 27.295C33.04 27.295 33.088 27.341 33.091 27.4V27.408C33.091 27.469 33.041 27.521 32.981 27.521C32.9509 27.521 32.9221 27.5091 32.9007 27.488C32.8794 27.4668 32.8673 27.4381 32.867 27.408C32.867 27.345 32.917 27.294 32.981 27.295ZM33.543 27.295C33.602 27.295 33.651 27.341 33.654 27.4V27.408C33.654 27.469 33.604 27.521 33.543 27.521C33.5131 27.5208 33.4845 27.5088 33.4634 27.4876C33.4422 27.4665 33.4303 27.4379 33.43 27.408C33.43 27.345 33.48 27.294 33.543 27.295ZM34.106 27.295C34.164 27.295 34.213 27.341 34.216 27.4V27.408C34.216 27.469 34.166 27.521 34.106 27.521C34.0759 27.521 34.0471 27.5091 34.0257 27.488C34.0044 27.4668 33.9923 27.4381 33.992 27.408C33.992 27.345 34.042 27.294 34.106 27.295ZM34.666 27.295C34.726 27.295 34.776 27.341 34.779 27.4V27.408C34.7787 27.4379 34.7667 27.4665 34.7456 27.4876C34.7245 27.5088 34.6959 27.5208 34.666 27.521C34.6365 27.5202 34.6084 27.508 34.5877 27.4869C34.567 27.4659 34.5552 27.4376 34.555 27.408C34.555 27.346 34.604 27.295 34.666 27.295ZM17.359 28.678C17.4836 28.6764 17.6073 28.6994 17.723 28.7457C17.8386 28.792 17.944 28.8608 18.033 28.948C18.1227 29.0344 18.1945 29.1376 18.2442 29.2518C18.2939 29.366 18.3206 29.4889 18.3226 29.6134C18.3247 29.738 18.3021 29.8617 18.2561 29.9774C18.2102 30.0932 18.1419 30.1988 18.055 30.288L16.246 32.147C16.1596 32.2368 16.0562 32.3086 15.9419 32.3582C15.8276 32.4078 15.7046 32.4342 15.58 32.436C15.4554 32.4377 15.3316 32.4148 15.216 32.3685C15.1003 32.3221 14.9949 32.2533 14.906 32.166C14.8163 32.0796 14.7446 31.9763 14.695 31.8621C14.6454 31.7478 14.6188 31.6249 14.6169 31.5004C14.6149 31.3759 14.6376 31.2522 14.6836 31.1364C14.7296 31.0207 14.7981 30.9152 14.885 30.826L16.693 28.969C16.7794 28.8792 16.8828 28.8073 16.997 28.7575C17.1113 28.7078 17.2343 28.6811 17.359 28.679V28.678ZM21.359 28.678C21.4836 28.6764 21.6073 28.6994 21.723 28.7457C21.8386 28.792 21.944 28.8608 22.033 28.948C22.1227 29.0344 22.1945 29.1376 22.2442 29.2518C22.2939 29.366 22.3206 29.4889 22.3226 29.6134C22.3247 29.738 22.3021 29.8617 22.2561 29.9774C22.2102 30.0932 22.1419 30.1988 22.055 30.288L20.246 32.147C20.1596 32.2368 20.0562 32.3086 19.9419 32.3582C19.8276 32.4078 19.7046 32.4342 19.58 32.436C19.4554 32.4377 19.3316 32.4148 19.216 32.3685C19.1003 32.3221 18.9949 32.2533 18.906 32.166C18.8163 32.0796 18.7446 31.9763 18.695 31.8621C18.6454 31.7478 18.6188 31.6249 18.6169 31.5004C18.6149 31.3759 18.6376 31.2522 18.6836 31.1364C18.7296 31.0207 18.7981 30.9152 18.885 30.826L20.693 28.969C20.7794 28.8792 20.8828 28.8073 20.997 28.7575C21.1113 28.7078 21.2344 28.6811 21.359 28.679V28.678ZM25.359 28.678C25.4836 28.6764 25.6073 28.6994 25.723 28.7457C25.8386 28.792 25.944 28.8608 26.033 28.948C26.1227 29.0344 26.1945 29.1376 26.2442 29.2518C26.2939 29.366 26.3206 29.4889 26.3226 29.6134C26.3247 29.738 26.3021 29.8617 26.2561 29.9774C26.2102 30.0932 26.1419 30.1988 26.055 30.288L24.246 32.147C24.1596 32.2368 24.0562 32.3086 23.9419 32.3582C23.8276 32.4078 23.7046 32.4342 23.58 32.436C23.4554 32.4377 23.3316 32.4148 23.216 32.3685C23.1003 32.3221 22.9949 32.2533 22.906 32.166C22.8163 32.0796 22.7446 31.9763 22.695 31.8621C22.6454 31.7478 22.6188 31.6249 22.6169 31.5004C22.6149 31.3759 22.6376 31.2522 22.6836 31.1364C22.7296 31.0207 22.7981 30.9152 22.885 30.826L24.693 28.969C24.7794 28.8792 24.8828 28.8073 24.997 28.7575C25.1113 28.7078 25.2344 28.6811 25.359 28.679V28.678ZM29.359 28.678C29.4836 28.6764 29.6073 28.6994 29.723 28.7457C29.8386 28.792 29.944 28.8608 30.033 28.948C30.1227 29.0344 30.1945 29.1376 30.2442 29.2518C30.2939 29.366 30.3206 29.4889 30.3226 29.6134C30.3247 29.738 30.3021 29.8617 30.2561 29.9774C30.2102 30.0932 30.1419 30.1988 30.055 30.288L28.246 32.147C28.1596 32.2368 28.0562 32.3086 27.9419 32.3582C27.8276 32.4078 27.7046 32.4342 27.58 32.436C27.4554 32.4377 27.3316 32.4148 27.216 32.3685C27.1003 32.3221 26.9949 32.2533 26.906 32.166C26.8163 32.0796 26.7446 31.9763 26.695 31.8621C26.6454 31.7478 26.6188 31.6249 26.6169 31.5004C26.6149 31.3759 26.6376 31.2522 26.6836 31.1364C26.7296 31.0207 26.7981 30.9152 26.885 30.826L28.693 28.969C28.7794 28.8792 28.8828 28.8073 28.997 28.7575C29.1113 28.7078 29.2344 28.6811 29.359 28.679V28.678ZM33.079 28.693C33.2034 28.6915 33.3269 28.7146 33.4424 28.761C33.5579 28.8073 33.6631 28.876 33.752 28.963C33.8417 29.0494 33.9134 29.1527 33.963 29.267C34.0126 29.3812 34.0392 29.5041 34.0411 29.6287C34.0431 29.7532 34.0204 29.8769 33.9744 29.9926C33.9284 30.1083 33.8599 30.2138 33.773 30.303L31.965 32.163C31.8786 32.2528 31.7752 32.3246 31.6609 32.3742C31.5466 32.4238 31.4236 32.4502 31.299 32.452C31.1744 32.4537 31.0506 32.4308 30.935 32.3845C30.8193 32.3381 30.7139 32.2693 30.625 32.182C30.5353 32.0956 30.4636 31.9923 30.414 31.8781C30.3644 31.7638 30.3378 31.6409 30.3359 31.5164C30.3339 31.3919 30.3566 31.2682 30.4026 31.1524C30.4486 31.0367 30.5171 30.9312 30.604 30.842L32.412 28.984C32.4985 28.8944 32.6019 28.8227 32.7162 28.7731C32.8305 28.7235 32.9534 28.697 33.078 28.695V28.693H33.079ZM13.863 33.923C13.8913 33.9257 13.9175 33.9388 13.9366 33.9598C13.9557 33.9808 13.9663 34.0081 13.9663 34.0365C13.9663 34.0649 13.9557 34.0923 13.9366 34.1133C13.9175 34.1343 13.8913 34.1474 13.863 34.15C13.8335 34.1492 13.8054 34.137 13.7847 34.1159C13.764 34.0949 13.7522 34.0666 13.752 34.037C13.752 33.975 13.802 33.924 13.863 33.924V33.923ZM14.426 33.923C14.4529 33.9225 14.4791 33.9319 14.4995 33.9494C14.52 33.9669 14.5333 33.9913 14.537 34.018V34.038C14.537 34.098 14.487 34.15 14.426 34.15C14.396 34.1498 14.3673 34.1378 14.346 34.1167C14.3247 34.0956 14.3125 34.067 14.312 34.037C14.312 33.975 14.364 33.924 14.426 33.924V33.923ZM14.988 33.923C15.0151 33.9223 15.0415 33.9316 15.0622 33.9491C15.0828 33.9666 15.0963 33.9912 15.1 34.018V34.038C15.099 34.098 15.05 34.15 14.988 34.15C14.9581 34.1498 14.9295 34.1378 14.9084 34.1166C14.8872 34.0955 14.8753 34.0669 14.875 34.037C14.875 33.974 14.925 33.923 14.988 33.924V33.923ZM15.551 33.923C15.611 33.924 15.658 33.97 15.662 34.029V34.037C15.662 34.098 15.612 34.15 15.551 34.15C15.5209 34.15 15.4921 34.1381 15.4707 34.117C15.4494 34.0958 15.4373 34.0671 15.437 34.037C15.437 33.974 15.488 33.923 15.551 33.924V33.923ZM16.113 33.923C16.173 33.924 16.221 33.97 16.225 34.029V34.037C16.224 34.098 16.175 34.15 16.113 34.15C16.0831 34.1498 16.0545 34.1378 16.0334 34.1166C16.0122 34.0955 16.0003 34.0669 16 34.037C16 33.974 16.05 33.923 16.113 33.924V33.923ZM16.676 33.923C16.736 33.924 16.784 33.97 16.787 34.029V34.037C16.787 34.098 16.737 34.15 16.676 34.15C16.6461 34.1498 16.6175 34.1378 16.5964 34.1166C16.5752 34.0955 16.5633 34.0669 16.563 34.037C16.563 33.974 16.613 33.923 16.676 33.924V33.923ZM17.236 33.923C17.296 33.923 17.346 33.97 17.35 34.029V34.037C17.3497 34.0671 17.3376 34.0958 17.3163 34.117C17.2949 34.1381 17.2661 34.15 17.236 34.15C17.2065 34.1492 17.1784 34.137 17.1577 34.1159C17.137 34.0949 17.1252 34.0666 17.125 34.037C17.125 33.975 17.175 33.924 17.236 33.924V33.923ZM17.799 33.923C17.859 33.923 17.909 33.97 17.912 34.029V34.037C17.9117 34.0669 17.8997 34.0955 17.8786 34.1166C17.8575 34.1378 17.8289 34.1498 17.799 34.15C17.7695 34.1492 17.7414 34.137 17.7207 34.1159C17.7 34.0949 17.6882 34.0666 17.688 34.037C17.688 33.975 17.737 33.924 17.798 33.924L17.799 33.923ZM18.361 33.923C18.421 33.923 18.471 33.97 18.475 34.029V34.037C18.4747 34.0671 18.4626 34.0958 18.4413 34.117C18.4199 34.1381 18.3911 34.15 18.361 34.15C18.3315 34.1492 18.3034 34.137 18.2827 34.1159C18.262 34.0949 18.2502 34.0666 18.25 34.037C18.25 33.975 18.3 33.924 18.361 33.924V33.923ZM18.924 33.923C18.9509 33.9225 18.9771 33.9319 18.9975 33.9494C19.018 33.9669 19.0313 33.9913 19.035 34.018V34.038C19.035 34.098 18.985 34.15 18.924 34.15C18.8945 34.1492 18.8664 34.137 18.8457 34.1159C18.825 34.0949 18.8132 34.0666 18.813 34.037C18.812 33.975 18.862 33.924 18.923 33.924L18.924 33.923ZM19.486 33.923C19.546 33.924 19.594 33.97 19.598 34.029V34.037C19.597 34.098 19.548 34.15 19.486 34.15C19.4561 34.1498 19.4275 34.1378 19.4064 34.1166C19.3852 34.0955 19.3733 34.0669 19.373 34.037C19.373 33.974 19.423 33.923 19.486 33.924V33.923ZM20.049 33.923C20.109 33.924 20.157 33.97 20.16 34.029V34.037C20.16 34.098 20.11 34.15 20.049 34.15C20.0191 34.1498 19.9905 34.1378 19.9694 34.1166C19.9482 34.0955 19.9363 34.0669 19.936 34.037C19.936 33.974 19.986 33.923 20.049 33.924V33.923ZM20.611 33.923C20.671 33.924 20.719 33.97 20.723 34.029V34.037C20.722 34.098 20.673 34.15 20.611 34.15C20.5811 34.1498 20.5525 34.1378 20.5314 34.1166C20.5102 34.0955 20.4983 34.0669 20.498 34.037C20.498 33.974 20.548 33.923 20.611 33.924V33.923ZM21.174 33.923C21.234 33.924 21.282 33.97 21.285 34.029V34.037C21.285 34.098 21.235 34.15 21.174 34.15C21.1441 34.1498 21.1155 34.1378 21.0944 34.1166C21.0732 34.0955 21.0613 34.0669 21.061 34.037C21.061 33.974 21.111 33.923 21.174 33.924V33.923ZM21.734 33.923C21.794 33.923 21.844 33.97 21.848 34.029V34.037C21.8477 34.0671 21.8356 34.0958 21.8143 34.117C21.7929 34.1381 21.7641 34.15 21.734 34.15C21.7045 34.1492 21.6764 34.137 21.6557 34.1159C21.635 34.0949 21.6232 34.0666 21.623 34.037C21.623 33.975 21.673 33.924 21.734 33.924V33.923ZM22.297 33.923C22.357 33.923 22.407 33.97 22.41 34.029V34.037C22.4097 34.0669 22.3977 34.0955 22.3766 34.1166C22.3555 34.1378 22.3269 34.1498 22.297 34.15C22.2675 34.1492 22.2394 34.137 22.2187 34.1159C22.198 34.0949 22.1862 34.0666 22.186 34.037C22.186 33.975 22.235 33.924 22.296 33.924L22.297 33.923ZM22.859 33.923C22.8873 33.9257 22.9135 33.9388 22.9326 33.9598C22.9517 33.9808 22.9623 34.0081 22.9623 34.0365C22.9623 34.0649 22.9517 34.0923 22.9326 34.1133C22.9135 34.1343 22.8873 34.1474 22.859 34.15C22.8295 34.1492 22.8014 34.137 22.7807 34.1159C22.76 34.0949 22.7482 34.0666 22.748 34.037C22.748 33.975 22.798 33.924 22.859 33.924V33.923ZM23.422 33.923C23.477 33.923 23.526 33.963 23.533 34.018V34.038C23.533 34.098 23.483 34.15 23.422 34.15C23.3925 34.1492 23.3644 34.137 23.3437 34.1159C23.323 34.0949 23.3112 34.0666 23.311 34.037C23.311 33.975 23.36 33.924 23.421 33.924L23.422 33.923ZM23.984 33.923C24.0111 33.9223 24.0375 33.9316 24.0582 33.9491C24.0788 33.9666 24.0923 33.9912 24.096 34.018V34.038C24.095 34.098 24.046 34.15 23.984 34.15C23.9541 34.1498 23.9255 34.1378 23.9044 34.1166C23.8832 34.0955 23.8713 34.0669 23.871 34.037C23.871 33.974 23.921 33.923 23.984 33.924V33.923ZM24.547 33.923C24.607 33.924 24.655 33.97 24.658 34.029V34.037C24.658 34.098 24.608 34.15 24.547 34.15C24.5171 34.1498 24.4885 34.1378 24.4674 34.1166C24.4462 34.0955 24.4343 34.0669 24.434 34.037C24.434 33.974 24.484 33.923 24.547 33.924V33.923ZM25.109 33.923C25.169 33.924 25.217 33.97 25.221 34.029V34.037C25.22 34.098 25.171 34.15 25.109 34.15C25.0791 34.1498 25.0505 34.1378 25.0294 34.1166C25.0082 34.0955 24.9963 34.0669 24.996 34.037C24.996 33.974 25.046 33.923 25.109 33.924V33.923ZM25.669 33.923C25.73 33.923 25.779 33.97 25.783 34.029V34.037C25.7827 34.0669 25.7707 34.0955 25.7496 34.1166C25.7285 34.1378 25.6999 34.1498 25.67 34.15C25.6405 34.1492 25.6124 34.137 25.5917 34.1159C25.571 34.0949 25.5592 34.0666 25.559 34.037C25.558 33.975 25.608 33.924 25.669 33.924V33.923ZM26.232 33.923C26.292 33.923 26.342 33.97 26.346 34.029V34.037C26.3457 34.0671 26.3336 34.0958 26.3123 34.117C26.2909 34.1381 26.2621 34.15 26.232 34.15C26.2026 34.149 26.1748 34.1367 26.1543 34.1156C26.1338 34.0946 26.1222 34.0664 26.122 34.037C26.121 33.975 26.17 33.924 26.232 33.924V33.923ZM26.795 33.923C26.855 33.923 26.905 33.97 26.908 34.029V34.037C26.9077 34.0669 26.8957 34.0955 26.8746 34.1166C26.8535 34.1378 26.8249 34.1498 26.795 34.15C26.7655 34.1492 26.7374 34.137 26.7167 34.1159C26.696 34.0949 26.6842 34.0666 26.684 34.037C26.684 33.975 26.733 33.924 26.794 33.924L26.795 33.923ZM27.357 33.923C27.3853 33.9257 27.4115 33.9388 27.4306 33.9598C27.4497 33.9808 27.4603 34.0081 27.4603 34.0365C27.4603 34.0649 27.4497 34.0923 27.4306 34.1133C27.4115 34.1343 27.3853 34.1474 27.357 34.15C27.3276 34.149 27.2998 34.1367 27.2793 34.1156C27.2588 34.0946 27.2472 34.0664 27.247 34.037C27.246 33.975 27.295 33.924 27.357 33.924V33.923ZM27.92 33.923C27.9469 33.9225 27.9731 33.9319 27.9935 33.9494C28.014 33.9669 28.0273 33.9913 28.031 34.018V34.038C28.031 34.098 27.981 34.15 27.92 34.15C27.8905 34.1492 27.8624 34.137 27.8417 34.1159C27.821 34.0949 27.8092 34.0666 27.809 34.037C27.808 33.975 27.858 33.924 27.919 33.924L27.92 33.923ZM28.482 33.923C28.542 33.924 28.59 33.97 28.594 34.029V34.037C28.593 34.098 28.544 34.15 28.482 34.15C28.4521 34.1498 28.4235 34.1378 28.4024 34.1166C28.3812 34.0955 28.3693 34.0669 28.369 34.037C28.369 33.974 28.419 33.923 28.482 33.924V33.923ZM29.045 33.923C29.105 33.924 29.153 33.97 29.156 34.029V34.037C29.156 34.098 29.106 34.15 29.045 34.15C29.0151 34.1498 28.9865 34.1378 28.9654 34.1166C28.9442 34.0955 28.9323 34.0669 28.932 34.037C28.932 33.974 28.982 33.923 29.045 33.924V33.923ZM29.607 33.923C29.667 33.924 29.715 33.97 29.719 34.029V34.037C29.718 34.098 29.669 34.15 29.607 34.15C29.5771 34.1498 29.5485 34.1378 29.5274 34.1166C29.5062 34.0955 29.4943 34.0669 29.494 34.037C29.494 33.974 29.544 33.923 29.607 33.924V33.923ZM30.168 33.923C30.228 33.923 30.278 33.97 30.281 34.029V34.037C30.2807 34.0669 30.2687 34.0955 30.2476 34.1166C30.2265 34.1378 30.1979 34.1498 30.168 34.15C30.1385 34.1492 30.1104 34.137 30.0897 34.1159C30.069 34.0949 30.0572 34.0666 30.057 34.037C30.057 33.975 30.106 33.924 30.168 33.924V33.923ZM30.731 33.923C30.791 33.923 30.841 33.97 30.844 34.029V34.037C30.8437 34.0671 30.8316 34.0958 30.8103 34.117C30.7889 34.1381 30.7601 34.15 30.73 34.15C30.7006 34.149 30.6728 34.1367 30.6523 34.1156C30.6318 34.0946 30.6202 34.0664 30.62 34.037C30.619 33.975 30.669 33.924 30.73 33.924L30.731 33.923ZM31.293 33.923C31.353 33.923 31.403 33.97 31.406 34.029V34.037C31.4057 34.0669 31.3937 34.0955 31.3726 34.1166C31.3515 34.1378 31.3229 34.1498 31.293 34.15C31.2635 34.1492 31.2354 34.137 31.2147 34.1159C31.194 34.0949 31.1822 34.0666 31.182 34.037C31.182 33.975 31.231 33.924 31.293 33.924V33.923ZM31.856 33.923C31.8827 33.9228 31.9087 33.9323 31.9289 33.9498C31.9492 33.9672 31.9623 33.9915 31.966 34.018V34.038C31.966 34.098 31.916 34.15 31.856 34.15C31.8263 34.1495 31.7979 34.1374 31.777 34.1163C31.7561 34.0952 31.7442 34.0667 31.744 34.037C31.744 33.975 31.794 33.924 31.855 33.924L31.856 33.923ZM32.418 33.923C32.4449 33.9225 32.4711 33.9319 32.4915 33.9494C32.512 33.9669 32.5253 33.9913 32.529 34.018V34.038C32.529 34.098 32.479 34.15 32.418 34.15C32.3881 34.1498 32.3595 34.1378 32.3384 34.1166C32.3172 34.0955 32.3053 34.0669 32.305 34.037C32.305 33.974 32.355 33.923 32.418 33.924V33.923ZM32.981 33.923C33.04 33.924 33.088 33.97 33.091 34.029V34.037C33.091 34.098 33.041 34.15 32.981 34.15C32.9509 34.15 32.9221 34.1381 32.9007 34.117C32.8794 34.0958 32.8673 34.0671 32.867 34.037C32.867 33.974 32.917 33.923 32.981 33.924V33.923ZM33.543 33.923C33.602 33.924 33.651 33.97 33.654 34.029V34.037C33.654 34.098 33.604 34.15 33.543 34.15C33.5131 34.1498 33.4845 34.1378 33.4634 34.1166C33.4422 34.0955 33.4303 34.0669 33.43 34.037C33.43 33.974 33.48 33.923 33.543 33.924V33.923ZM34.106 33.923C34.164 33.924 34.213 33.97 34.216 34.029V34.037C34.216 34.098 34.166 34.15 34.106 34.15C34.0759 34.15 34.0471 34.1381 34.0257 34.117C34.0044 34.0958 33.9923 34.0671 33.992 34.037C33.992 33.974 34.042 33.923 34.106 33.924V33.923ZM34.666 33.923C34.726 33.923 34.776 33.97 34.779 34.029V34.037C34.7787 34.0669 34.7667 34.0955 34.7456 34.1166C34.7245 34.1378 34.6959 34.1498 34.666 34.15C34.6365 34.1492 34.6084 34.137 34.5877 34.1159C34.567 34.0949 34.5552 34.0666 34.555 34.037C34.555 33.975 34.604 33.924 34.666 33.924V33.923ZM17.296 35.147C17.4207 35.1451 17.5445 35.1679 17.6604 35.214C17.7762 35.2602 17.8818 35.3289 17.971 35.416C18.0607 35.5024 18.1324 35.6057 18.182 35.72C18.2316 35.8342 18.2582 35.9571 18.2601 36.0817C18.2621 36.2062 18.2394 36.3299 18.1934 36.4456C18.1474 36.5613 18.0789 36.6668 17.992 36.756L16.184 38.616C16.0976 38.7058 15.9942 38.7776 15.8799 38.8272C15.7656 38.8768 15.6426 38.9032 15.518 38.905C15.3934 38.9067 15.2696 38.8838 15.154 38.8375C15.0383 38.7911 14.9329 38.7223 14.844 38.635C14.7543 38.5487 14.6825 38.4454 14.6328 38.3312C14.5831 38.217 14.5564 38.0941 14.5544 37.9696C14.5523 37.8451 14.5749 37.7214 14.6208 37.6056C14.6668 37.4898 14.7351 37.3843 14.822 37.295L16.631 35.437C16.7175 35.3474 16.8209 35.2757 16.9352 35.2261C17.0495 35.1765 17.1724 35.15 17.297 35.148V35.146L17.296 35.147ZM21.296 35.147C21.4207 35.1451 21.5445 35.1679 21.6604 35.214C21.7762 35.2602 21.8818 35.3289 21.971 35.416C22.0607 35.5024 22.1324 35.6057 22.182 35.72C22.2316 35.8342 22.2582 35.9571 22.2601 36.0817C22.2621 36.2062 22.2394 36.3299 22.1934 36.4456C22.1474 36.5613 22.0789 36.6668 21.992 36.756L20.184 38.616C20.0976 38.7058 19.9942 38.7776 19.8799 38.8272C19.7656 38.8768 19.6426 38.9032 19.518 38.905C19.3934 38.9067 19.2696 38.8838 19.154 38.8375C19.0383 38.7911 18.9329 38.7223 18.844 38.635C18.7543 38.5487 18.6825 38.4454 18.6328 38.3312C18.5831 38.217 18.5564 38.0941 18.5544 37.9696C18.5523 37.8451 18.5749 37.7214 18.6208 37.6056C18.6668 37.4898 18.7351 37.3843 18.822 37.295L20.631 35.437C20.7175 35.3474 20.8209 35.2757 20.9352 35.2261C21.0495 35.1765 21.1724 35.15 21.297 35.148V35.146L21.296 35.147ZM25.296 35.147C25.4207 35.1451 25.5445 35.1679 25.6604 35.214C25.7762 35.2602 25.8818 35.3289 25.971 35.416C26.0607 35.5024 26.1324 35.6057 26.182 35.72C26.2316 35.8342 26.2582 35.9571 26.2601 36.0817C26.2621 36.2062 26.2394 36.3299 26.1934 36.4456C26.1474 36.5613 26.0789 36.6668 25.992 36.756L24.184 38.616C24.0976 38.7058 23.9942 38.7776 23.8799 38.8272C23.7656 38.8768 23.6426 38.9032 23.518 38.905C23.3934 38.9067 23.2696 38.8838 23.154 38.8375C23.0383 38.7911 22.9329 38.7223 22.844 38.635C22.7543 38.5487 22.6825 38.4454 22.6328 38.3312C22.5831 38.217 22.5564 38.0941 22.5544 37.9696C22.5523 37.8451 22.5749 37.7214 22.6208 37.6056C22.6668 37.4898 22.7351 37.3843 22.822 37.295L24.631 35.437C24.7175 35.3474 24.8209 35.2757 24.9352 35.2261C25.0495 35.1765 25.1724 35.15 25.297 35.148V35.146L25.296 35.147ZM29.296 35.147C29.4207 35.1451 29.5445 35.1679 29.6604 35.214C29.7762 35.2602 29.8818 35.3289 29.971 35.416C30.0607 35.5024 30.1324 35.6057 30.182 35.72C30.2316 35.8342 30.2582 35.9571 30.2601 36.0817C30.2621 36.2062 30.2394 36.3299 30.1934 36.4456C30.1474 36.5613 30.0789 36.6668 29.992 36.756L28.184 38.616C28.0976 38.7058 27.9942 38.7776 27.8799 38.8272C27.7656 38.8768 27.6426 38.9032 27.518 38.905C27.3934 38.9067 27.2696 38.8838 27.154 38.8375C27.0383 38.7911 26.9329 38.7223 26.844 38.635C26.7543 38.5487 26.6825 38.4454 26.6328 38.3312C26.5831 38.217 26.5564 38.0941 26.5544 37.9696C26.5523 37.8451 26.5749 37.7214 26.6208 37.6056C26.6668 37.4898 26.7351 37.3843 26.822 37.295L28.631 35.437C28.7175 35.3474 28.8209 35.2757 28.9352 35.2261C29.0495 35.1765 29.1724 35.15 29.297 35.148V35.146L29.296 35.147ZM33.016 35.162C33.1406 35.1604 33.2643 35.1834 33.3799 35.2298C33.4956 35.2761 33.601 35.3448 33.69 35.432C33.7796 35.5185 33.8512 35.6219 33.9008 35.7361C33.9503 35.8504 33.9768 35.9733 33.9786 36.0979C33.9805 36.2224 33.9577 36.3461 33.9116 36.4618C33.8655 36.5774 33.797 36.6829 33.71 36.772L31.902 38.631C31.8156 38.7209 31.7123 38.7927 31.5981 38.8424C31.4838 38.8921 31.3608 38.9186 31.2362 38.9205C31.1116 38.9223 30.9878 38.8995 30.8721 38.8532C30.7564 38.807 30.651 38.7383 30.562 38.651C30.4723 38.5646 30.4006 38.4613 30.351 38.3471C30.3014 38.2328 30.2748 38.1099 30.2729 37.9854C30.2709 37.8609 30.2936 37.7372 30.3396 37.6214C30.3856 37.5057 30.4541 37.4002 30.541 37.311L32.35 35.453C32.4365 35.3634 32.5399 35.2917 32.6542 35.2421C32.7685 35.1925 32.8914 35.166 33.016 35.164V35.162Z" fill="#333333"/>
</svg>
