<svg width="48" height="48" viewBox="0 0 48 48" fill="none" xmlns="http://www.w3.org/2000/svg">
<path d="M14.346 4.09402C13.476 4.09402 12.777 4.79302 12.777 5.66202V42.523C12.777 43.393 13.477 44.093 14.346 44.093H34.05C34.92 44.093 35.618 43.393 35.618 42.523V5.66302C35.618 4.79302 34.919 4.09302 34.05 4.09302H14.346V4.09402ZM16.139 8.43902C16.2636 8.43736 16.3873 8.46037 16.5029 8.5067C16.6186 8.55304 16.724 8.6218 16.813 8.70902C17.189 9.07502 17.203 9.67202 16.836 10.049L15.027 11.909C14.9403 11.9983 14.8368 12.0697 14.7225 12.119C14.6083 12.1683 14.4854 12.1945 14.3609 12.1963C14.2365 12.1981 14.1129 12.1753 13.9972 12.1292C13.8816 12.0832 13.7762 12.0148 13.687 11.928C13.5972 11.8417 13.5253 11.7385 13.4755 11.6244C13.4257 11.5102 13.399 11.3873 13.3968 11.2628C13.3947 11.1383 13.4172 11.0145 13.4631 10.8987C13.5089 10.7829 13.5772 10.6773 13.664 10.588L15.473 8.73002C15.5595 8.64032 15.6628 8.56861 15.7771 8.51901C15.8914 8.46941 16.0144 8.44291 16.139 8.44102V8.44002V8.43902ZM19.119 8.43902C19.2436 8.43736 19.3673 8.46037 19.4829 8.5067C19.5986 8.55304 19.704 8.6218 19.793 8.70902C19.8827 8.79544 19.9544 8.89874 20.004 9.01297C20.0536 9.12721 20.0801 9.25012 20.0821 9.37465C20.084 9.49918 20.0614 9.62287 20.0154 9.7386C19.9693 9.85433 19.9009 9.95983 19.814 10.049L18.006 11.909C17.9193 11.9983 17.8158 12.0697 17.7015 12.119C17.5873 12.1683 17.4644 12.1945 17.3399 12.1963C17.2155 12.1981 17.0919 12.1753 16.9762 12.1292C16.8606 12.0832 16.7552 12.0148 16.666 11.928C16.5763 11.8416 16.5046 11.7383 16.455 11.6241C16.4054 11.5098 16.3788 11.3869 16.3769 11.2624C16.3749 11.1379 16.3976 11.0142 16.4436 10.8984C16.4896 10.7827 16.5581 10.6772 16.645 10.588L18.453 8.73002C18.5395 8.64036 18.6429 8.56868 18.7572 8.51909C18.8714 8.46949 18.9944 8.44296 19.119 8.44102V8.44002V8.43902ZM22.098 8.43902C22.2226 8.43736 22.3463 8.46037 22.4619 8.5067C22.5776 8.55304 22.683 8.6218 22.772 8.70902C22.8617 8.79544 22.9334 8.89874 22.983 9.01297C23.0326 9.12721 23.0591 9.25012 23.0611 9.37465C23.063 9.49918 23.0404 9.62287 22.9944 9.7386C22.9483 9.85433 22.8799 9.95983 22.793 10.049L20.984 11.909C20.8973 11.9983 20.7938 12.0697 20.6795 12.119C20.5653 12.1683 20.4424 12.1945 20.3179 12.1963C20.1935 12.1981 20.0699 12.1753 19.9542 12.1292C19.8386 12.0832 19.7332 12.0148 19.644 11.928C19.5543 11.8416 19.4826 11.7383 19.433 11.6241C19.3834 11.5098 19.3568 11.3869 19.3549 11.2624C19.3529 11.1379 19.3756 11.0142 19.4216 10.8984C19.4676 10.7827 19.5361 10.6772 19.623 10.588L21.432 8.73002C21.5185 8.64036 21.6219 8.56868 21.7362 8.51909C21.8504 8.46949 21.9734 8.44296 22.098 8.44102V8.44002V8.43902ZM25.076 8.43902C25.2006 8.43736 25.3243 8.46037 25.4399 8.5067C25.5556 8.55304 25.661 8.6218 25.75 8.70902C26.127 9.07502 26.14 9.67202 25.773 10.049L23.965 11.909C23.8783 11.9983 23.7748 12.0697 23.6605 12.119C23.5463 12.1683 23.4234 12.1945 23.2989 12.1963C23.1745 12.1981 23.0509 12.1753 22.9352 12.1292C22.8196 12.0832 22.7142 12.0148 22.625 11.928C22.5352 11.8417 22.4633 11.7385 22.4135 11.6244C22.3637 11.5102 22.337 11.3873 22.3348 11.2628C22.3327 11.1383 22.3552 11.0145 22.4011 10.8987C22.4469 10.7829 22.5152 10.6773 22.602 10.588L24.41 8.73002C24.4965 8.64032 24.5998 8.56861 24.7141 8.51901C24.8284 8.46941 24.9514 8.44291 25.076 8.44102V8.44002V8.43902ZM28.056 8.43902C28.1806 8.43736 28.3043 8.46037 28.4199 8.5067C28.5356 8.55304 28.641 8.6218 28.73 8.70902C28.8197 8.79538 28.8915 8.89862 28.9412 9.01282C28.9909 9.12702 29.0176 9.24991 29.0196 9.37444C29.0216 9.49897 28.9991 9.62268 28.9531 9.73844C28.9072 9.85421 28.8388 9.95976 28.752 10.049L26.943 11.909C26.8563 11.9983 26.7528 12.0697 26.6385 12.119C26.5243 12.1683 26.4014 12.1945 26.2769 12.1963C26.1525 12.1981 26.0289 12.1753 25.9132 12.1292C25.7976 12.0832 25.6922 12.0148 25.603 11.928C25.5133 11.8416 25.4416 11.7383 25.392 11.6241C25.3424 11.5098 25.3158 11.3869 25.3139 11.2624C25.3119 11.1379 25.3346 11.0142 25.3806 10.8984C25.4266 10.7827 25.4951 10.6772 25.582 10.588L27.391 8.73002C27.4775 8.64036 27.5809 8.56868 27.6952 8.51909C27.8094 8.46949 27.9324 8.44296 28.057 8.44102V8.44002L28.056 8.43902ZM31.036 8.43902C31.1604 8.43749 31.2839 8.46056 31.3994 8.5069C31.5149 8.55323 31.6201 8.62192 31.709 8.70902C31.7987 8.79544 31.8704 8.89874 31.92 9.01297C31.9696 9.12721 31.9961 9.25012 31.9981 9.37465C32 9.49918 31.9774 9.62287 31.9314 9.7386C31.8853 9.85433 31.8169 9.95983 31.73 10.049L29.922 11.909C29.8353 11.9983 29.7318 12.0697 29.6175 12.119C29.5033 12.1683 29.3804 12.1945 29.2559 12.1963C29.1315 12.1981 29.0079 12.1753 28.8922 12.1292C28.7766 12.0832 28.6712 12.0148 28.582 11.928C28.4923 11.8416 28.4206 11.7383 28.371 11.6241C28.3214 11.5098 28.2948 11.3869 28.2929 11.2624C28.2909 11.1379 28.3136 11.0142 28.3596 10.8984C28.4056 10.7827 28.4741 10.6772 28.561 10.588L30.369 8.73002C30.4555 8.64036 30.5589 8.56868 30.6731 8.51909C30.7874 8.46949 30.9104 8.44296 31.035 8.44102V8.44002L31.036 8.43902ZM34.014 8.43902C34.1384 8.43749 34.2619 8.46056 34.3774 8.5069C34.4929 8.55323 34.5981 8.62192 34.687 8.70902C35.064 9.07502 35.077 9.67202 34.711 10.049L32.902 11.909C32.8153 11.9983 32.7118 12.0697 32.5975 12.119C32.4833 12.1683 32.3604 12.1945 32.2359 12.1963C32.1115 12.1981 31.9879 12.1753 31.8722 12.1292C31.7566 12.0832 31.6512 12.0148 31.562 11.928C31.4722 11.8417 31.4003 11.7385 31.3505 11.6244C31.3007 11.5102 31.274 11.3873 31.2718 11.2628C31.2697 11.1383 31.2922 11.0145 31.3381 10.8987C31.3839 10.7829 31.4522 10.6773 31.539 10.588L33.348 8.73002C33.4345 8.64032 33.5378 8.56861 33.6521 8.51901C33.7664 8.46941 33.8894 8.44291 34.014 8.44102V8.44002V8.43902ZM13.794 14.98C13.8222 14.9827 13.8485 14.9958 13.8676 15.0168C13.8867 15.0378 13.8973 15.0651 13.8973 15.0935C13.8973 15.1219 13.8867 15.1493 13.8676 15.1703C13.8485 15.1913 13.8222 15.2044 13.794 15.207C13.7646 15.206 13.7368 15.1937 13.7163 15.1726C13.6958 15.1516 13.6842 15.1234 13.684 15.094C13.684 15.031 13.733 14.981 13.794 14.98ZM14.357 14.98C14.3839 14.9792 14.4102 14.9884 14.4309 15.0057C14.4515 15.023 14.4651 15.0473 14.469 15.074V15.094C14.468 15.155 14.419 15.207 14.357 15.207C14.3272 15.2065 14.2987 15.1944 14.2776 15.1734C14.2566 15.1523 14.2445 15.1238 14.244 15.094C14.244 15.031 14.295 14.981 14.357 14.98ZM14.92 14.98C14.9468 14.9795 14.9728 14.9887 14.9932 15.0061C15.0137 15.0234 15.0271 15.0475 15.031 15.074V15.094C15.031 15.155 14.981 15.207 14.92 15.207C14.8901 15.2068 14.8615 15.1948 14.8404 15.1736C14.8192 15.1525 14.8072 15.1239 14.807 15.094C14.807 15.031 14.857 14.98 14.92 14.98ZM15.482 14.98C15.542 14.98 15.59 15.027 15.594 15.086V15.094C15.593 15.155 15.544 15.207 15.482 15.207C15.4521 15.2068 15.4235 15.1948 15.4024 15.1736C15.3812 15.1525 15.3692 15.1239 15.369 15.094C15.369 15.031 15.419 14.98 15.482 14.98ZM16.045 14.98C16.105 14.98 16.153 15.027 16.156 15.086V15.094C16.156 15.155 16.106 15.207 16.045 15.207C16.0151 15.2068 15.9865 15.1948 15.9654 15.1736C15.9442 15.1525 15.9322 15.1239 15.932 15.094C15.932 15.031 15.982 14.98 16.045 14.98ZM16.607 14.98C16.667 14.98 16.715 15.027 16.719 15.086V15.094C16.718 15.155 16.669 15.207 16.607 15.207C16.5771 15.2068 16.5485 15.1948 16.5274 15.1736C16.5062 15.1525 16.4942 15.1239 16.494 15.094C16.494 15.031 16.544 14.98 16.607 14.98ZM17.168 14.98C17.228 14.98 17.278 15.026 17.281 15.086V15.094C17.2807 15.1239 17.2687 15.1525 17.2476 15.1736C17.2265 15.1948 17.1979 15.2068 17.168 15.207C17.1384 15.2062 17.1104 15.194 17.0896 15.1729C17.0689 15.1519 17.0572 15.1236 17.057 15.094C17.057 15.031 17.106 14.981 17.168 14.98ZM17.731 14.98C17.791 14.98 17.841 15.026 17.844 15.086V15.094C17.8437 15.1241 17.8316 15.1528 17.8102 15.174C17.7889 15.1951 17.76 15.207 17.73 15.207C17.7006 15.206 17.6728 15.1937 17.6523 15.1726C17.6318 15.1516 17.6202 15.1234 17.62 15.094C17.619 15.031 17.669 14.981 17.73 14.98H17.731ZM18.293 14.98C18.353 14.98 18.403 15.026 18.406 15.086V15.094C18.4057 15.1239 18.3937 15.1525 18.3726 15.1736C18.3515 15.1948 18.3229 15.2068 18.293 15.207C18.2634 15.2062 18.2354 15.194 18.2146 15.1729C18.1939 15.1519 18.1822 15.1236 18.182 15.094C18.182 15.031 18.231 14.981 18.293 14.98ZM18.856 14.98C18.8826 14.9797 18.9084 14.9891 18.9286 15.0064C18.9488 15.0237 18.9621 15.0477 18.966 15.074V15.094C18.966 15.155 18.916 15.207 18.856 15.207C18.8263 15.2065 18.7979 15.1944 18.777 15.1733C18.7561 15.1522 18.7442 15.1237 18.744 15.094C18.744 15.031 18.794 14.981 18.855 14.98H18.856ZM19.418 14.98C19.478 14.98 19.526 15.027 19.529 15.086V15.094C19.529 15.155 19.479 15.207 19.418 15.207C19.3881 15.2068 19.3595 15.1948 19.3384 15.1736C19.3172 15.1525 19.3052 15.1239 19.305 15.094C19.305 15.031 19.355 14.98 19.418 14.98ZM19.981 14.98C20.04 14.98 20.088 15.027 20.091 15.086V15.094C20.091 15.155 20.041 15.207 19.981 15.207C19.9509 15.207 19.9221 15.1951 19.9007 15.174C19.8794 15.1528 19.8672 15.1241 19.867 15.094C19.867 15.031 19.917 14.98 19.98 14.98H19.981ZM20.543 14.98C20.603 14.98 20.651 15.027 20.654 15.086V15.094C20.654 15.155 20.604 15.207 20.543 15.207C20.5131 15.2068 20.4845 15.1948 20.4634 15.1736C20.4422 15.1525 20.4302 15.1239 20.43 15.094C20.43 15.031 20.48 14.98 20.543 14.98ZM21.106 14.98C21.165 14.98 21.213 15.027 21.216 15.086V15.094C21.216 15.155 21.166 15.207 21.106 15.207C21.0759 15.207 21.0471 15.1951 21.0257 15.174C21.0044 15.1528 20.9922 15.1241 20.992 15.094C20.992 15.031 21.042 14.98 21.105 14.98H21.106ZM21.666 14.98C21.726 14.98 21.776 15.026 21.779 15.086V15.094C21.7787 15.1239 21.7667 15.1525 21.7456 15.1736C21.7245 15.1948 21.6959 15.2068 21.666 15.207C21.6364 15.2062 21.6084 15.194 21.5876 15.1729C21.5669 15.1519 21.5552 15.1236 21.555 15.094C21.555 15.031 21.604 14.981 21.666 14.98ZM22.229 14.98C22.289 14.98 22.339 15.026 22.342 15.086V15.094C22.3417 15.1239 22.3297 15.1525 22.3086 15.1736C22.2875 15.1948 22.2589 15.2068 22.229 15.207C22.1993 15.2065 22.1709 15.1944 22.15 15.1733C22.1291 15.1522 22.1172 15.1237 22.117 15.094C22.117 15.031 22.167 14.981 22.228 14.98H22.229ZM22.791 14.98C22.8192 14.9827 22.8455 14.9958 22.8646 15.0168C22.8837 15.0378 22.8943 15.0651 22.8943 15.0935C22.8943 15.1219 22.8837 15.1493 22.8646 15.1703C22.8455 15.1913 22.8192 15.2044 22.791 15.207C22.7614 15.2062 22.7334 15.194 22.7126 15.1729C22.6919 15.1519 22.6802 15.1236 22.68 15.094C22.68 15.031 22.729 14.981 22.791 14.98ZM23.354 14.98C23.408 14.98 23.457 15.02 23.464 15.074V15.094C23.464 15.155 23.414 15.207 23.354 15.207C23.3243 15.2065 23.2959 15.1944 23.275 15.1733C23.2541 15.1522 23.2422 15.1237 23.242 15.094C23.242 15.031 23.292 14.981 23.353 14.98H23.354ZM23.916 14.98C23.9428 14.9795 23.9688 14.9887 23.9892 15.0061C24.0097 15.0234 24.0231 15.0475 24.027 15.074V15.094C24.027 15.155 23.977 15.207 23.916 15.207C23.8861 15.2068 23.8575 15.1948 23.8364 15.1736C23.8152 15.1525 23.8032 15.1239 23.803 15.094C23.803 15.031 23.853 14.98 23.916 14.98ZM24.479 14.98C24.538 14.98 24.586 15.027 24.589 15.086V15.094C24.589 15.155 24.539 15.207 24.479 15.207C24.4489 15.207 24.4201 15.1951 24.3987 15.174C24.3774 15.1528 24.3652 15.1241 24.365 15.094C24.365 15.031 24.415 14.98 24.479 14.98ZM25.041 14.98C25.101 14.98 25.149 15.027 25.152 15.086V15.094C25.152 15.155 25.102 15.207 25.041 15.207C25.0111 15.2068 24.9825 15.1948 24.9614 15.1736C24.9402 15.1525 24.9282 15.1239 24.928 15.094C24.928 15.031 24.978 14.98 25.041 14.98ZM25.601 14.98C25.661 14.98 25.711 15.026 25.715 15.086V15.094C25.7147 15.1239 25.7027 15.1525 25.6816 15.1736C25.6605 15.1948 25.6319 15.2068 25.602 15.207C25.5723 15.2065 25.5439 15.1944 25.523 15.1733C25.5021 15.1522 25.4902 15.1237 25.49 15.094C25.49 15.031 25.54 14.981 25.602 14.98H25.601ZM26.164 14.98C26.224 14.98 26.274 15.026 26.277 15.086V15.094C26.2767 15.1239 26.2647 15.1525 26.2436 15.1736C26.2225 15.1948 26.1939 15.2068 26.164 15.207C26.1344 15.2062 26.1064 15.194 26.0856 15.1729C26.0649 15.1519 26.0532 15.1236 26.053 15.094C26.053 15.031 26.103 14.981 26.164 14.98ZM26.727 14.98C26.787 14.98 26.837 15.026 26.84 15.086V15.094C26.8397 15.1239 26.8277 15.1525 26.8066 15.1736C26.7855 15.1948 26.7569 15.2068 26.727 15.207C26.6973 15.2065 26.6689 15.1944 26.648 15.1733C26.6271 15.1522 26.6152 15.1237 26.615 15.094C26.615 15.031 26.665 14.981 26.727 14.98ZM27.289 14.98C27.3172 14.9827 27.3435 14.9958 27.3626 15.0168C27.3817 15.0378 27.3923 15.0651 27.3923 15.0935C27.3923 15.1219 27.3817 15.1493 27.3626 15.1703C27.3435 15.1913 27.3172 15.2044 27.289 15.207C27.2594 15.2062 27.2314 15.194 27.2106 15.1729C27.1899 15.1519 27.1782 15.1236 27.178 15.094C27.178 15.031 27.228 14.981 27.289 14.98ZM27.852 14.98C27.8786 14.9797 27.9044 14.9891 27.9246 15.0064C27.9448 15.0237 27.9581 15.0477 27.962 15.074C27.964 15.082 27.964 15.086 27.962 15.094C27.962 15.155 27.912 15.207 27.852 15.207C27.8223 15.2065 27.7939 15.1944 27.773 15.1733C27.7521 15.1522 27.7402 15.1237 27.74 15.094C27.74 15.031 27.79 14.981 27.852 14.98ZM28.414 14.98C28.474 14.98 28.522 15.027 28.525 15.086V15.094C28.525 15.155 28.475 15.207 28.415 15.207C28.3849 15.207 28.3561 15.1951 28.3347 15.174C28.3134 15.1528 28.3012 15.1241 28.301 15.094C28.301 15.031 28.351 14.98 28.414 14.98ZM28.977 14.98C29.036 14.98 29.084 15.027 29.087 15.086V15.094C29.087 15.155 29.037 15.207 28.977 15.207C28.9469 15.207 28.9181 15.1951 28.8967 15.174C28.8754 15.1528 28.8632 15.1241 28.863 15.094C28.863 15.031 28.913 14.98 28.977 14.98ZM29.539 14.98C29.599 14.98 29.647 15.027 29.65 15.086V15.094C29.65 15.155 29.6 15.207 29.54 15.207C29.5099 15.207 29.4811 15.1951 29.4597 15.174C29.4384 15.1528 29.4262 15.1241 29.426 15.094C29.426 15.031 29.476 14.98 29.539 14.98ZM30.099 14.98C30.159 14.98 30.209 15.026 30.213 15.086V15.094C30.2127 15.1239 30.2007 15.1525 30.1796 15.1736C30.1585 15.1948 30.1299 15.2068 30.1 15.207C30.0703 15.2065 30.0419 15.1944 30.021 15.1733C30.0001 15.1522 29.9882 15.1237 29.988 15.094C29.988 15.031 30.038 14.981 30.1 14.98H30.099ZM30.662 14.98C30.722 14.98 30.772 15.026 30.775 15.086V15.094C30.7747 15.1239 30.7627 15.1525 30.7416 15.1736C30.7205 15.1948 30.6919 15.2068 30.662 15.207C30.6324 15.2062 30.6044 15.194 30.5836 15.1729C30.5629 15.1519 30.5512 15.1236 30.551 15.094C30.551 15.031 30.601 14.981 30.662 14.98ZM31.225 14.98C31.285 14.98 31.335 15.026 31.338 15.086V15.094C31.3377 15.1239 31.3257 15.1525 31.3046 15.1736C31.2835 15.1948 31.2549 15.2068 31.225 15.207C31.1953 15.2065 31.1669 15.1944 31.146 15.1733C31.1251 15.1522 31.1132 15.1237 31.113 15.094C31.113 15.031 31.163 14.981 31.225 14.98ZM31.787 14.98C31.8138 14.9795 31.8398 14.9887 31.8602 15.0061C31.8807 15.0234 31.8941 15.0475 31.898 15.074V15.094C31.898 15.155 31.848 15.207 31.788 15.207C31.7583 15.2065 31.7299 15.1944 31.709 15.1733C31.6881 15.1522 31.6762 15.1237 31.676 15.094C31.675 15.031 31.726 14.981 31.787 14.98ZM32.35 14.98C32.3766 14.9797 32.4024 14.9891 32.4226 15.0064C32.4428 15.0237 32.4561 15.0477 32.46 15.074C32.462 15.082 32.462 15.086 32.46 15.094C32.46 15.155 32.41 15.207 32.35 15.207C32.3199 15.207 32.2911 15.1951 32.2697 15.174C32.2484 15.1528 32.2362 15.1241 32.236 15.094C32.236 15.031 32.286 14.98 32.35 14.98ZM32.912 14.98C32.972 14.98 33.02 15.027 33.023 15.086V15.094C33.023 15.155 32.973 15.207 32.913 15.207C32.8829 15.207 32.8541 15.1951 32.8327 15.174C32.8114 15.1528 32.7992 15.1241 32.799 15.094C32.799 15.031 32.849 14.98 32.912 14.98ZM33.475 14.98C33.534 14.98 33.582 15.027 33.585 15.086V15.094C33.585 15.155 33.535 15.207 33.475 15.207C33.4449 15.207 33.4161 15.1951 33.3947 15.174C33.3734 15.1528 33.3612 15.1241 33.361 15.094C33.361 15.031 33.411 14.98 33.475 14.98ZM34.037 14.98C34.097 14.98 34.145 15.027 34.148 15.086V15.094C34.148 15.155 34.098 15.207 34.038 15.207C34.0079 15.207 33.9791 15.1951 33.9577 15.174C33.9364 15.1528 33.9242 15.1241 33.924 15.094C33.924 15.031 33.974 14.98 34.037 14.98ZM34.597 14.98C34.657 14.98 34.707 15.026 34.711 15.086V15.094C34.7107 15.1239 34.6987 15.1525 34.6776 15.1736C34.6565 15.1948 34.6279 15.2068 34.598 15.207C34.5683 15.2065 34.5399 15.1944 34.519 15.1733C34.4981 15.1522 34.4862 15.1237 34.486 15.094C34.486 15.031 34.536 14.981 34.598 14.98H34.597ZM16.16 17.627C16.2846 17.6254 16.4083 17.6484 16.5239 17.6947C16.6396 17.741 16.745 17.8098 16.834 17.897C17.211 18.263 17.224 18.86 16.857 19.237L15.049 21.096C14.9623 21.1854 14.8589 21.2568 14.7447 21.3062C14.6304 21.3556 14.5076 21.3819 14.3831 21.3838C14.2587 21.3857 14.1351 21.363 14.0194 21.317C13.9037 21.2711 13.7982 21.2028 13.709 21.116C13.6191 21.0298 13.5472 20.9267 13.4973 20.8125C13.4474 20.6984 13.4206 20.5755 13.4183 20.451C13.4161 20.3265 13.4385 20.2027 13.4843 20.0869C13.53 19.9711 13.5982 19.8654 13.685 19.776L15.495 17.918C15.5813 17.8283 15.6844 17.7564 15.7985 17.7067C15.9127 17.6569 16.0355 17.6302 16.16 17.628V17.627ZM19.14 17.627C19.2646 17.6254 19.3882 17.6484 19.5039 17.6948C19.6196 17.7411 19.7249 17.8098 19.814 17.897C19.9037 17.9834 19.9755 18.0866 20.0252 18.2008C20.0749 18.315 20.1016 18.4379 20.1036 18.5624C20.1056 18.687 20.0831 18.8107 20.0371 18.9264C19.9912 19.0422 19.9228 19.1478 19.836 19.237L18.027 21.096C17.9403 21.1854 17.8369 21.2568 17.7227 21.3062C17.6084 21.3556 17.4856 21.3819 17.3611 21.3838C17.2367 21.3857 17.1131 21.363 16.9974 21.317C16.8817 21.2711 16.7762 21.2028 16.687 21.116C16.5973 21.0296 16.5256 20.9263 16.476 20.8121C16.4264 20.6978 16.3998 20.5749 16.3979 20.4504C16.3959 20.3259 16.4186 20.2022 16.4646 20.0864C16.5106 19.9707 16.5791 19.8652 16.666 19.776L18.475 17.918C18.5614 17.8281 18.6647 17.7562 18.779 17.7065C18.8933 17.6567 19.0163 17.63 19.141 17.628V17.627H19.14ZM22.12 17.627C22.2444 17.6255 22.3679 17.6486 22.4834 17.695C22.5989 17.7413 22.7041 17.81 22.793 17.897C22.8827 17.9834 22.9544 18.0867 23.004 18.201C23.0536 18.3152 23.0801 18.4381 23.0821 18.5627C23.084 18.6872 23.0614 18.8109 23.0154 18.9266C22.9693 19.0423 22.9009 19.1478 22.814 19.237L21.006 21.096C20.9193 21.1854 20.8159 21.2568 20.7017 21.3062C20.5874 21.3556 20.4646 21.3819 20.3401 21.3838C20.2157 21.3857 20.0921 21.363 19.9764 21.317C19.8607 21.2711 19.7552 21.2028 19.666 21.116C19.5763 21.0296 19.5046 20.9263 19.455 20.8121C19.4054 20.6978 19.3788 20.5749 19.3769 20.4504C19.3749 20.3259 19.3976 20.2022 19.4436 20.0864C19.4896 19.9707 19.5581 19.8652 19.645 19.776L21.453 17.918C21.5394 17.8281 21.6427 17.7562 21.757 17.7065C21.8713 17.6567 21.9943 17.63 22.119 17.628V17.627H22.12ZM25.098 17.627C25.2226 17.6254 25.3463 17.6484 25.4619 17.6947C25.5776 17.741 25.683 17.8098 25.772 17.897C26.148 18.263 26.161 18.86 25.795 19.237L23.986 21.096C23.8993 21.1854 23.7959 21.2568 23.6817 21.3062C23.5674 21.3556 23.4446 21.3819 23.3201 21.3838C23.1957 21.3857 23.0721 21.363 22.9564 21.317C22.8407 21.2711 22.7352 21.2028 22.646 21.116C22.5562 21.0297 22.4843 20.9265 22.4345 20.8124C22.3847 20.6982 22.358 20.5753 22.3558 20.4508C22.3537 20.3263 22.3762 20.2025 22.4221 20.0867C22.4679 19.9709 22.5362 19.8653 22.623 19.776L24.432 17.918C24.5184 17.8281 24.6217 17.7562 24.736 17.7065C24.8503 17.6567 24.9733 17.63 25.098 17.628V17.627ZM28.078 17.627C28.2026 17.6254 28.3262 17.6484 28.4419 17.6948C28.5576 17.7411 28.663 17.8098 28.752 17.897C28.8417 17.9834 28.9134 18.0867 28.963 18.201C29.0126 18.3152 29.0391 18.4381 29.0411 18.5627C29.043 18.6872 29.0204 18.8109 28.9744 18.9266C28.9283 19.0423 28.8599 19.1478 28.773 19.237L26.965 21.096C26.8783 21.1854 26.7749 21.2568 26.6607 21.3062C26.5464 21.3556 26.4236 21.3819 26.2991 21.3838C26.1747 21.3857 26.0511 21.363 25.9354 21.317C25.8197 21.2711 25.7142 21.2028 25.625 21.116C25.5353 21.0296 25.4636 20.9263 25.414 20.8121C25.3644 20.6978 25.3378 20.5749 25.3359 20.4504C25.3339 20.3259 25.3566 20.2022 25.4026 20.0864C25.4486 19.9707 25.5171 19.8652 25.604 19.776L27.412 17.918C27.4984 17.8281 27.6017 17.7562 27.716 17.7065C27.8303 17.6567 27.9533 17.63 28.078 17.628V17.627ZM31.057 17.627C31.1816 17.6254 31.3052 17.6484 31.4209 17.6948C31.5366 17.7411 31.642 17.8098 31.731 17.897C31.8207 17.9834 31.8924 18.0867 31.942 18.201C31.9916 18.3152 32.0181 18.4381 32.0201 18.5627C32.0221 18.6872 31.9994 18.8109 31.9534 18.9266C31.9073 19.0423 31.8389 19.1478 31.752 19.237L29.943 21.096C29.8563 21.1854 29.753 21.2568 29.6387 21.3062C29.5244 21.3556 29.4016 21.3819 29.2771 21.3838C29.1527 21.3857 29.0291 21.363 28.9134 21.317C28.7977 21.2711 28.6922 21.2028 28.603 21.116C28.5133 21.0296 28.4416 20.9263 28.392 20.8121C28.3424 20.6978 28.3158 20.5749 28.3139 20.4504C28.3119 20.3259 28.3346 20.2022 28.3806 20.0864C28.4266 19.9707 28.4951 19.8652 28.582 19.776L30.391 17.918C30.4774 17.8281 30.5807 17.7562 30.695 17.7065C30.8093 17.6567 30.9323 17.63 31.057 17.628V17.627ZM34.035 17.627C34.1596 17.6254 34.2833 17.6484 34.3989 17.6947C34.5146 17.741 34.62 17.8098 34.709 17.897C35.086 18.263 35.099 18.86 34.732 19.237L32.924 21.096C32.8373 21.1854 32.734 21.2568 32.6197 21.3062C32.5054 21.3556 32.3826 21.3819 32.2581 21.3838C32.1337 21.3857 32.0101 21.363 31.8944 21.317C31.7787 21.2711 31.6732 21.2028 31.584 21.116C31.4942 21.0297 31.4223 20.9265 31.3725 20.8124C31.3227 20.6982 31.296 20.5753 31.2938 20.4508C31.2917 20.3263 31.3142 20.2025 31.3601 20.0867C31.4059 19.9709 31.4742 19.8653 31.561 19.776L33.369 17.918C33.4554 17.8281 33.5587 17.7562 33.673 17.7065C33.7873 17.6567 33.9103 17.63 34.035 17.628V17.627ZM13.795 23.981C13.858 23.981 13.909 24.031 13.908 24.094C13.9077 24.1239 13.8957 24.1525 13.8746 24.1736C13.8535 24.1948 13.8249 24.2068 13.795 24.207C13.7654 24.2062 13.7374 24.194 13.7166 24.1729C13.6959 24.1519 13.6842 24.1236 13.684 24.094C13.684 24.031 13.733 23.981 13.794 23.98L13.795 23.981ZM14.357 23.981C14.3838 23.9802 14.4099 23.9892 14.4306 24.0063C14.4512 24.0235 14.4648 24.0475 14.469 24.074V24.094C14.468 24.155 14.419 24.207 14.357 24.207C14.3272 24.2065 14.2987 24.1944 14.2776 24.1734C14.2566 24.1523 14.2445 24.1238 14.244 24.094C14.244 24.031 14.295 23.981 14.357 23.98V23.981ZM14.92 23.981C14.9466 23.9805 14.9725 23.9896 14.9929 24.0067C15.0134 24.0238 15.0269 24.0477 15.031 24.074V24.094C15.031 24.155 14.981 24.207 14.92 24.207C14.8901 24.2068 14.8615 24.1948 14.8404 24.1736C14.8192 24.1525 14.8072 24.1239 14.807 24.094C14.807 24.031 14.857 23.98 14.92 23.98V23.981ZM15.482 23.981C15.542 23.981 15.59 24.027 15.594 24.086V24.094C15.593 24.155 15.544 24.207 15.482 24.207C15.4521 24.2068 15.4235 24.1948 15.4024 24.1736C15.3812 24.1525 15.3692 24.1239 15.369 24.094C15.369 24.031 15.419 23.98 15.482 23.98V23.981ZM16.045 23.981C16.105 23.981 16.153 24.027 16.156 24.086V24.094C16.156 24.155 16.106 24.207 16.045 24.207C16.0151 24.2068 15.9865 24.1948 15.9654 24.1736C15.9442 24.1525 15.9322 24.1239 15.932 24.094C15.932 24.031 15.982 23.98 16.045 23.98V23.981ZM16.607 23.981C16.667 23.981 16.715 24.027 16.719 24.086V24.094C16.718 24.155 16.669 24.207 16.607 24.207C16.5771 24.2068 16.5485 24.1948 16.5274 24.1736C16.5062 24.1525 16.4942 24.1239 16.494 24.094C16.494 24.031 16.544 23.98 16.607 23.98V23.981ZM17.168 23.981C17.228 23.98 17.278 24.026 17.281 24.086V24.094C17.2807 24.1239 17.2687 24.1525 17.2476 24.1736C17.2265 24.1948 17.1979 24.2068 17.168 24.207C17.1384 24.2062 17.1104 24.194 17.0896 24.1729C17.0689 24.1519 17.0572 24.1236 17.057 24.094C17.057 24.031 17.106 23.981 17.168 23.98V23.981ZM17.731 23.981C17.791 23.98 17.841 24.026 17.844 24.086V24.094C17.8437 24.1241 17.8316 24.1528 17.8102 24.174C17.7889 24.1951 17.76 24.207 17.73 24.207C17.7006 24.206 17.6728 24.1937 17.6523 24.1726C17.6318 24.1516 17.6202 24.1234 17.62 24.094C17.619 24.031 17.669 23.981 17.73 23.98L17.731 23.981ZM18.293 23.981C18.353 23.98 18.403 24.026 18.406 24.086V24.094C18.4057 24.1239 18.3937 24.1525 18.3726 24.1736C18.3515 24.1948 18.3229 24.2068 18.293 24.207C18.2634 24.2062 18.2354 24.194 18.2146 24.1729C18.1939 24.1519 18.1822 24.1236 18.182 24.094C18.182 24.031 18.231 23.981 18.293 23.98V23.981ZM18.856 23.981C18.8824 23.9807 18.9081 23.9899 18.9283 24.007C18.9485 24.0241 18.9619 24.0479 18.966 24.074V24.094C18.966 24.155 18.916 24.207 18.856 24.207C18.8263 24.2065 18.7979 24.1944 18.777 24.1733C18.7561 24.1522 18.7442 24.1237 18.744 24.094C18.744 24.031 18.794 23.981 18.855 23.98L18.856 23.981ZM19.418 23.981C19.478 23.981 19.526 24.027 19.529 24.086V24.094C19.529 24.155 19.479 24.207 19.418 24.207C19.3881 24.2068 19.3595 24.1948 19.3384 24.1736C19.3172 24.1525 19.3052 24.1239 19.305 24.094C19.305 24.031 19.355 23.98 19.418 23.98V23.981ZM19.981 23.981C20.04 23.981 20.088 24.027 20.091 24.086V24.094C20.091 24.155 20.041 24.207 19.981 24.207C19.9509 24.207 19.9221 24.1951 19.9007 24.174C19.8794 24.1528 19.8672 24.1241 19.867 24.094C19.867 24.031 19.917 23.98 19.98 23.98L19.981 23.981ZM20.543 23.981C20.603 23.981 20.651 24.027 20.654 24.086V24.094C20.654 24.155 20.604 24.207 20.543 24.207C20.5131 24.2068 20.4845 24.1948 20.4634 24.1736C20.4422 24.1525 20.4302 24.1239 20.43 24.094C20.43 24.031 20.48 23.98 20.543 23.98V23.981ZM21.106 23.981C21.165 23.981 21.213 24.027 21.216 24.086V24.094C21.216 24.155 21.166 24.207 21.106 24.207C21.0759 24.207 21.0471 24.1951 21.0257 24.174C21.0044 24.1528 20.9922 24.1241 20.992 24.094C20.992 24.031 21.042 23.98 21.105 23.98L21.106 23.981ZM21.666 23.981C21.726 23.98 21.776 24.026 21.779 24.086V24.094C21.7787 24.1239 21.7667 24.1525 21.7456 24.1736C21.7245 24.1948 21.6959 24.2068 21.666 24.207C21.6364 24.2062 21.6084 24.194 21.5876 24.1729C21.5669 24.1519 21.5552 24.1236 21.555 24.094C21.555 24.031 21.604 23.981 21.666 23.98V23.981ZM22.229 23.981C22.289 23.98 22.339 24.026 22.342 24.086V24.094C22.3417 24.1239 22.3297 24.1525 22.3086 24.1736C22.2875 24.1948 22.2589 24.2068 22.229 24.207C22.1993 24.2065 22.1709 24.1944 22.15 24.1733C22.1291 24.1522 22.1172 24.1237 22.117 24.094C22.117 24.031 22.167 23.981 22.228 23.98L22.229 23.981ZM22.791 23.981C22.854 23.981 22.905 24.031 22.904 24.094C22.9037 24.1239 22.8917 24.1525 22.8706 24.1736C22.8495 24.1948 22.8209 24.2068 22.791 24.207C22.7614 24.2062 22.7334 24.194 22.7126 24.1729C22.6919 24.1519 22.6802 24.1236 22.68 24.094C22.68 24.031 22.729 23.981 22.791 23.98V23.981ZM23.354 23.981C23.408 23.981 23.457 24.02 23.464 24.074V24.094C23.464 24.155 23.414 24.207 23.354 24.207C23.3243 24.2065 23.2959 24.1944 23.275 24.1733C23.2541 24.1522 23.2422 24.1237 23.242 24.094C23.242 24.031 23.292 23.981 23.353 23.98L23.354 23.981ZM23.916 23.981C23.9426 23.9805 23.9685 23.9896 23.9889 24.0067C24.0094 24.0238 24.0229 24.0477 24.027 24.074V24.094C24.027 24.155 23.977 24.207 23.916 24.207C23.8861 24.2068 23.8575 24.1948 23.8364 24.1736C23.8152 24.1525 23.8032 24.1239 23.803 24.094C23.803 24.031 23.853 23.98 23.916 23.98V23.981ZM24.479 23.981C24.538 23.981 24.586 24.027 24.589 24.086V24.094C24.589 24.155 24.539 24.207 24.479 24.207C24.4489 24.207 24.4201 24.1951 24.3987 24.174C24.3774 24.1528 24.3652 24.1241 24.365 24.094C24.365 24.031 24.415 23.98 24.479 23.98V23.981ZM25.041 23.981C25.101 23.981 25.149 24.027 25.152 24.086V24.094C25.152 24.155 25.102 24.207 25.041 24.207C25.0111 24.2068 24.9825 24.1948 24.9614 24.1736C24.9402 24.1525 24.9282 24.1239 24.928 24.094C24.928 24.031 24.978 23.98 25.041 23.98V23.981ZM25.601 23.981C25.661 23.98 25.711 24.026 25.715 24.086V24.094C25.7147 24.1239 25.7027 24.1525 25.6816 24.1736C25.6605 24.1948 25.6319 24.2068 25.602 24.207C25.5723 24.2065 25.5439 24.1944 25.523 24.1733C25.5021 24.1522 25.4902 24.1237 25.49 24.094C25.49 24.031 25.54 23.981 25.602 23.98L25.601 23.981ZM26.164 23.981C26.224 23.98 26.274 24.026 26.277 24.086V24.094C26.2767 24.1239 26.2647 24.1525 26.2436 24.1736C26.2225 24.1948 26.1939 24.2068 26.164 24.207C26.1344 24.2062 26.1064 24.194 26.0856 24.1729C26.0649 24.1519 26.0532 24.1236 26.053 24.094C26.053 24.031 26.103 23.981 26.164 23.98V23.981ZM26.727 23.981C26.787 23.98 26.837 24.026 26.84 24.086V24.094C26.8397 24.1239 26.8277 24.1525 26.8066 24.1736C26.7855 24.1948 26.7569 24.2068 26.727 24.207C26.6973 24.2065 26.6689 24.1944 26.648 24.1733C26.6271 24.1522 26.6152 24.1237 26.615 24.094C26.615 24.031 26.665 23.981 26.727 23.98V23.981ZM27.289 23.981C27.352 23.981 27.403 24.031 27.402 24.094C27.4017 24.1239 27.3897 24.1525 27.3686 24.1736C27.3475 24.1948 27.3189 24.2068 27.289 24.207C27.2594 24.2062 27.2314 24.194 27.2106 24.1729C27.1899 24.1519 27.1782 24.1236 27.178 24.094C27.178 24.031 27.228 23.981 27.289 23.98V23.981ZM27.852 23.981C27.8784 23.9807 27.9041 23.9899 27.9243 24.007C27.9445 24.0241 27.9579 24.0479 27.962 24.074C27.964 24.082 27.964 24.086 27.962 24.094C27.962 24.155 27.912 24.207 27.852 24.207C27.8223 24.2065 27.7939 24.1944 27.773 24.1733C27.7521 24.1522 27.7402 24.1237 27.74 24.094C27.74 24.031 27.79 23.981 27.852 23.98V23.981ZM28.414 23.981C28.474 23.981 28.522 24.027 28.525 24.086V24.094C28.525 24.155 28.475 24.207 28.415 24.207C28.3849 24.207 28.3561 24.1951 28.3347 24.174C28.3134 24.1528 28.3012 24.1241 28.301 24.094C28.301 24.031 28.351 23.98 28.414 23.98V23.981ZM28.977 23.981C29.036 23.981 29.084 24.027 29.087 24.086V24.094C29.087 24.155 29.037 24.207 28.977 24.207C28.9469 24.207 28.9181 24.1951 28.8967 24.174C28.8754 24.1528 28.8632 24.1241 28.863 24.094C28.863 24.031 28.913 23.98 28.977 23.98V23.981ZM29.539 23.981C29.599 23.981 29.647 24.027 29.65 24.086V24.094C29.65 24.155 29.6 24.207 29.54 24.207C29.5099 24.207 29.4811 24.1951 29.4597 24.174C29.4384 24.1528 29.4262 24.1241 29.426 24.094C29.426 24.031 29.476 23.98 29.539 23.98V23.981ZM30.099 23.981C30.159 23.98 30.209 24.026 30.213 24.086V24.094C30.2127 24.1239 30.2007 24.1525 30.1796 24.1736C30.1585 24.1948 30.1299 24.2068 30.1 24.207C30.0703 24.2065 30.0419 24.1944 30.021 24.1733C30.0001 24.1522 29.9882 24.1237 29.988 24.094C29.988 24.031 30.038 23.981 30.1 23.98L30.099 23.981ZM30.662 23.981C30.722 23.98 30.772 24.026 30.775 24.086V24.094C30.7747 24.1239 30.7627 24.1525 30.7416 24.1736C30.7205 24.1948 30.6919 24.2068 30.662 24.207C30.6324 24.2062 30.6044 24.194 30.5836 24.1729C30.5629 24.1519 30.5512 24.1236 30.551 24.094C30.551 24.031 30.601 23.981 30.662 23.98V23.981ZM31.225 23.981C31.285 23.98 31.335 24.026 31.338 24.086V24.094C31.3377 24.1239 31.3257 24.1525 31.3046 24.1736C31.2835 24.1948 31.2549 24.2068 31.225 24.207C31.1953 24.2065 31.1669 24.1944 31.146 24.1733C31.1251 24.1522 31.1132 24.1237 31.113 24.094C31.113 24.031 31.163 23.981 31.225 23.98V23.981ZM31.787 23.981C31.8136 23.9805 31.8395 23.9896 31.8599 24.0067C31.8804 24.0238 31.8939 24.0477 31.898 24.074V24.094C31.898 24.155 31.848 24.207 31.788 24.207C31.7583 24.2065 31.7299 24.1944 31.709 24.1733C31.6881 24.1522 31.6762 24.1237 31.676 24.094C31.675 24.031 31.726 23.981 31.787 23.98V23.981ZM32.35 23.981C32.3764 23.9807 32.4021 23.9899 32.4223 24.007C32.4425 24.0241 32.4559 24.0479 32.46 24.074C32.462 24.082 32.462 24.086 32.46 24.094C32.46 24.155 32.41 24.207 32.35 24.207C32.3199 24.207 32.2911 24.1951 32.2697 24.174C32.2484 24.1528 32.2362 24.1241 32.236 24.094C32.236 24.031 32.286 23.98 32.35 23.98V23.981ZM32.912 23.981C32.972 23.981 33.02 24.027 33.023 24.086V24.094C33.023 24.155 32.973 24.207 32.913 24.207C32.8829 24.207 32.8541 24.1951 32.8327 24.174C32.8114 24.1528 32.7992 24.1241 32.799 24.094C32.799 24.031 32.849 23.98 32.912 23.98V23.981ZM33.475 23.981C33.534 23.981 33.582 24.027 33.585 24.086V24.094C33.585 24.155 33.535 24.207 33.475 24.207C33.4449 24.207 33.4161 24.1951 33.3947 24.174C33.3734 24.1528 33.3612 24.1241 33.361 24.094C33.361 24.031 33.411 23.98 33.475 23.98V23.981ZM34.037 23.981C34.097 23.981 34.145 24.027 34.148 24.086V24.094C34.148 24.155 34.098 24.207 34.038 24.207C34.0079 24.207 33.9791 24.1951 33.9577 24.174C33.9364 24.1528 33.9242 24.1241 33.924 24.094C33.924 24.031 33.974 23.98 34.037 23.98V23.981ZM34.597 23.981C34.657 23.98 34.707 24.026 34.711 24.086V24.094C34.7107 24.1239 34.6987 24.1525 34.6776 24.1736C34.6565 24.1948 34.6279 24.2068 34.598 24.207C34.5683 24.2065 34.5399 24.1944 34.519 24.1733C34.4981 24.1522 34.4862 24.1237 34.486 24.094C34.486 24.031 34.536 23.981 34.598 23.98L34.597 23.981ZM16.14 26.804C16.2646 26.8024 16.3883 26.8254 16.5039 26.8717C16.6196 26.918 16.725 26.9868 16.814 27.074C17.19 27.439 17.204 28.037 16.837 28.414L15.028 30.272C14.9413 30.3614 14.8379 30.4328 14.7237 30.4822C14.6094 30.5316 14.4866 30.5579 14.3621 30.5598C14.2377 30.5617 14.1141 30.539 13.9984 30.493C13.8827 30.4471 13.7772 30.3788 13.688 30.292C13.5982 30.2057 13.5263 30.1025 13.4765 29.9884C13.4267 29.8742 13.4 29.7513 13.3978 29.6268C13.3957 29.5023 13.4182 29.3785 13.4641 29.2627C13.5099 29.1469 13.5782 29.0413 13.665 28.952L15.474 27.095C15.5604 27.0052 15.6637 26.9333 15.778 26.8835C15.8923 26.8338 16.0153 26.8071 16.14 26.805V26.804ZM19.12 26.804C19.2446 26.8024 19.3682 26.8254 19.4839 26.8718C19.5996 26.9181 19.7049 26.9868 19.794 27.074C19.8837 27.1604 19.9554 27.2637 20.005 27.378C20.0546 27.4922 20.0811 27.6151 20.0831 27.7397C20.0851 27.8642 20.0624 27.9879 20.0164 28.1036C19.9703 28.2193 19.9019 28.3248 19.815 28.414L18.007 30.272C17.9203 30.3614 17.817 30.4328 17.7027 30.4822C17.5884 30.5316 17.4656 30.5579 17.3411 30.5598C17.2167 30.5617 17.0931 30.539 16.9774 30.493C16.8617 30.4471 16.7562 30.3788 16.667 30.292C16.5773 30.2056 16.5056 30.1023 16.456 29.9881C16.4064 29.8738 16.3798 29.7509 16.3779 29.6264C16.3759 29.5019 16.3986 29.3782 16.4446 29.2624C16.4906 29.1467 16.5591 29.0412 16.646 28.952L18.454 27.095C18.5404 27.0052 18.6437 26.9333 18.758 26.8835C18.8723 26.8338 18.9953 26.8071 19.12 26.805V26.804ZM22.099 26.804C22.2236 26.8024 22.3473 26.8254 22.4629 26.8717C22.5786 26.918 22.684 26.9868 22.773 27.074C22.8627 27.1604 22.9344 27.2637 22.984 27.378C23.0336 27.4922 23.0601 27.6151 23.0621 27.7397C23.0641 27.8642 23.0414 27.9879 22.9954 28.1036C22.9493 28.2193 22.8809 28.3248 22.794 28.414L20.985 30.272C20.8983 30.3614 20.7949 30.4328 20.6807 30.4822C20.5664 30.5316 20.4436 30.5579 20.3191 30.5598C20.1947 30.5617 20.0711 30.539 19.9554 30.493C19.8397 30.4471 19.7342 30.3788 19.645 30.292C19.5553 30.2056 19.4836 30.1023 19.434 29.9881C19.3844 29.8738 19.3578 29.7509 19.3559 29.6264C19.3539 29.5019 19.3766 29.3782 19.4226 29.2624C19.4686 29.1467 19.5371 29.0412 19.624 28.952L21.433 27.095C21.5194 27.0052 21.6227 26.9333 21.737 26.8835C21.8513 26.8338 21.9743 26.8071 22.099 26.805V26.804ZM25.077 26.804C25.2016 26.8024 25.3253 26.8254 25.4409 26.8717C25.5566 26.918 25.662 26.9868 25.751 27.074C26.128 27.439 26.141 28.037 25.774 28.414L23.966 30.272C23.8793 30.3614 23.776 30.4328 23.6617 30.4822C23.5474 30.5316 23.4246 30.5579 23.3001 30.5598C23.1757 30.5617 23.0521 30.539 22.9364 30.493C22.8207 30.4471 22.7152 30.3788 22.626 30.292C22.5362 30.2057 22.4643 30.1025 22.4145 29.9884C22.3647 29.8742 22.338 29.7513 22.3358 29.6268C22.3337 29.5023 22.3562 29.3785 22.4021 29.2627C22.4479 29.1469 22.5162 29.0413 22.603 28.952L24.411 27.095C24.4974 27.0052 24.6007 26.9333 24.715 26.8835C24.8293 26.8338 24.9523 26.8071 25.077 26.805V26.804ZM28.057 26.804C28.1816 26.8024 28.3052 26.8254 28.4209 26.8718C28.5366 26.9181 28.642 26.9868 28.731 27.074C28.8207 27.1604 28.8925 27.2636 28.9422 27.3778C28.9919 27.492 29.0186 27.6149 29.0206 27.7394C29.0226 27.864 29.0001 27.9877 28.9541 28.1034C28.9082 28.2192 28.8398 28.3248 28.753 28.414L26.944 30.272C26.8573 30.3614 26.7539 30.4328 26.6397 30.4822C26.5254 30.5316 26.4026 30.5579 26.2781 30.5598C26.1537 30.5617 26.0301 30.539 25.9144 30.493C25.7987 30.4471 25.6932 30.3788 25.604 30.292C25.5143 30.2056 25.4426 30.1023 25.393 29.9881C25.3434 29.8738 25.3168 29.7509 25.3149 29.6264C25.3129 29.5019 25.3356 29.3782 25.3816 29.2624C25.4276 29.1467 25.4961 29.0412 25.583 28.952L27.392 27.095C27.4784 27.0052 27.5817 26.9333 27.696 26.8835C27.8103 26.8338 27.9333 26.8071 28.058 26.805V26.804H28.057ZM31.037 26.804C31.1614 26.8025 31.2849 26.8256 31.4004 26.8719C31.5159 26.9182 31.6211 26.9869 31.71 27.074C31.7997 27.1604 31.8714 27.2637 31.921 27.378C31.9706 27.4922 31.9971 27.6151 31.9991 27.7397C32.001 27.8642 31.9784 27.9879 31.9324 28.1036C31.8863 28.2193 31.8179 28.3248 31.731 28.414L29.923 30.272C29.8363 30.3614 29.733 30.4328 29.6187 30.4822C29.5044 30.5316 29.3816 30.5579 29.2571 30.5598C29.1327 30.5617 29.0091 30.539 28.8934 30.493C28.7777 30.4471 28.6722 30.3788 28.583 30.292C28.4933 30.2056 28.4216 30.1023 28.372 29.9881C28.3224 29.8738 28.2958 29.7509 28.2939 29.6264C28.2919 29.5019 28.3146 29.3782 28.3606 29.2624C28.4066 29.1467 28.4751 29.0412 28.562 28.952L30.37 27.095C30.4564 27.0052 30.5597 26.9333 30.674 26.8835C30.7883 26.8338 30.9113 26.8071 31.036 26.805V26.804H31.037ZM34.015 26.804C34.1394 26.8025 34.2629 26.8256 34.3784 26.8719C34.4939 26.9182 34.5991 26.9869 34.688 27.074C35.065 27.439 35.078 28.037 34.712 28.414L32.903 30.272C32.8163 30.3614 32.713 30.4328 32.5987 30.4822C32.4844 30.5316 32.3616 30.5579 32.2371 30.5598C32.1127 30.5617 31.9891 30.539 31.8734 30.493C31.7577 30.4471 31.6522 30.3788 31.563 30.292C31.4732 30.2057 31.4013 30.1025 31.3515 29.9884C31.3017 29.8742 31.275 29.7513 31.2728 29.6268C31.2707 29.5023 31.2932 29.3785 31.3391 29.2627C31.3849 29.1469 31.4532 29.0413 31.54 28.952L33.349 27.095C33.4354 27.0052 33.5387 26.9333 33.653 26.8835C33.7673 26.8338 33.8903 26.8071 34.015 26.805V26.804ZM13.795 32.979C13.8232 32.9817 13.8495 32.9948 13.8686 33.0158C13.8877 33.0368 13.8983 33.0641 13.8983 33.0925C13.8983 33.1209 13.8877 33.1483 13.8686 33.1693C13.8495 33.1903 13.8232 33.2034 13.795 33.206C13.7656 33.205 13.7378 33.1927 13.7173 33.1716C13.6968 33.1506 13.6852 33.1224 13.685 33.093C13.685 33.03 13.734 32.98 13.795 32.979ZM14.358 32.979C14.3849 32.9782 14.4112 32.9874 14.4319 33.0047C14.4525 33.022 14.4661 33.0464 14.47 33.073V33.093C14.469 33.154 14.42 33.206 14.358 33.206C14.3282 33.2055 14.2997 33.1934 14.2786 33.1723C14.2576 33.1513 14.2455 33.1228 14.245 33.093C14.245 33.03 14.296 32.98 14.358 32.979ZM14.921 32.979C14.9477 32.9785 14.9738 32.9877 14.9942 33.0051C15.0147 33.0224 15.0281 33.0465 15.032 33.073V33.093C15.032 33.154 14.982 33.206 14.921 33.206C14.8911 33.2058 14.8625 33.1938 14.8414 33.1726C14.8202 33.1515 14.8082 33.1229 14.808 33.093C14.808 33.03 14.858 32.979 14.921 32.979ZM15.483 32.979C15.543 32.979 15.591 33.026 15.595 33.085V33.093C15.594 33.154 15.545 33.206 15.483 33.206C15.4531 33.2058 15.4245 33.1938 15.4034 33.1726C15.3822 33.1515 15.3702 33.1229 15.37 33.093C15.37 33.03 15.42 32.979 15.483 32.979ZM16.046 32.979C16.106 32.979 16.154 33.026 16.157 33.085V33.093C16.157 33.154 16.107 33.206 16.046 33.206C16.0161 33.2058 15.9875 33.1938 15.9664 33.1726C15.9452 33.1515 15.9332 33.1229 15.933 33.093C15.933 33.03 15.983 32.979 16.046 32.979ZM16.608 32.979C16.668 32.979 16.716 33.026 16.72 33.085V33.093C16.719 33.154 16.67 33.206 16.608 33.206C16.5781 33.2058 16.5495 33.1938 16.5284 33.1726C16.5072 33.1515 16.4952 33.1229 16.495 33.093C16.495 33.03 16.545 32.979 16.608 32.979ZM17.169 32.979C17.229 32.979 17.279 33.025 17.282 33.085V33.093C17.2817 33.1229 17.2697 33.1515 17.2486 33.1726C17.2275 33.1938 17.1989 33.2058 17.169 33.206C17.1394 33.2052 17.1114 33.193 17.0906 33.1719C17.0699 33.1509 17.0582 33.1226 17.058 33.093C17.058 33.03 17.107 32.98 17.169 32.979ZM17.732 32.979C17.792 32.979 17.842 33.025 17.845 33.085V33.093C17.8447 33.1231 17.8326 33.1518 17.8112 33.173C17.7899 33.1941 17.761 33.206 17.731 33.206C17.7016 33.205 17.6738 33.1927 17.6533 33.1716C17.6328 33.1506 17.6212 33.1224 17.621 33.093C17.62 33.03 17.67 32.98 17.731 32.979H17.732ZM18.294 32.979C18.354 32.979 18.404 33.025 18.407 33.085V33.093C18.4067 33.1229 18.3947 33.1515 18.3736 33.1726C18.3525 33.1938 18.3239 33.2058 18.294 33.206C18.2644 33.2052 18.2364 33.193 18.2156 33.1719C18.1949 33.1509 18.1832 33.1226 18.183 33.093C18.183 33.03 18.232 32.98 18.294 32.979ZM18.857 32.979C18.8836 32.9787 18.9094 32.9881 18.9296 33.0054C18.9498 33.0227 18.9631 33.0467 18.967 33.073V33.093C18.967 33.154 18.917 33.206 18.857 33.206C18.8273 33.2055 18.7989 33.1934 18.778 33.1723C18.7571 33.1512 18.7452 33.1227 18.745 33.093C18.745 33.03 18.795 32.98 18.856 32.979H18.857ZM19.419 32.979C19.479 32.979 19.527 33.026 19.53 33.085V33.093C19.53 33.154 19.48 33.206 19.419 33.206C19.3891 33.2058 19.3605 33.1938 19.3394 33.1726C19.3182 33.1515 19.3062 33.1229 19.306 33.093C19.306 33.03 19.356 32.979 19.419 32.979ZM19.982 32.979C20.041 32.979 20.089 33.026 20.092 33.085V33.093C20.092 33.154 20.042 33.206 19.982 33.206C19.9519 33.206 19.9231 33.1941 19.9017 33.173C19.8804 33.1518 19.8682 33.1231 19.868 33.093C19.868 33.03 19.918 32.979 19.981 32.979H19.982ZM20.544 32.979C20.604 32.979 20.652 33.026 20.655 33.085V33.093C20.655 33.154 20.605 33.206 20.544 33.206C20.5141 33.2058 20.4855 33.1938 20.4644 33.1726C20.4432 33.1515 20.4312 33.1229 20.431 33.093C20.431 33.03 20.481 32.979 20.544 32.979ZM21.107 32.979C21.166 32.979 21.214 33.026 21.217 33.085V33.093C21.217 33.154 21.167 33.206 21.107 33.206C21.0769 33.206 21.0481 33.1941 21.0267 33.173C21.0054 33.1518 20.9932 33.1231 20.993 33.093C20.993 33.03 21.043 32.979 21.106 32.979H21.107ZM21.667 32.979C21.727 32.979 21.777 33.025 21.78 33.085V33.093C21.7797 33.1229 21.7677 33.1515 21.7466 33.1726C21.7255 33.1938 21.6969 33.2058 21.667 33.206C21.6374 33.2052 21.6094 33.193 21.5886 33.1719C21.5679 33.1509 21.5562 33.1226 21.556 33.093C21.556 33.03 21.605 32.98 21.667 32.979ZM22.23 32.979C22.29 32.979 22.34 33.025 22.343 33.085V33.093C22.3427 33.1229 22.3307 33.1515 22.3096 33.1726C22.2885 33.1938 22.2599 33.2058 22.23 33.206C22.2003 33.2055 22.1719 33.1934 22.151 33.1723C22.1301 33.1512 22.1182 33.1227 22.118 33.093C22.118 33.03 22.168 32.98 22.229 32.979H22.23ZM22.792 32.979C22.8202 32.9817 22.8465 32.9948 22.8656 33.0158C22.8847 33.0368 22.8953 33.0641 22.8953 33.0925C22.8953 33.1209 22.8847 33.1483 22.8656 33.1693C22.8465 33.1903 22.8202 33.2034 22.792 33.206C22.7624 33.2052 22.7344 33.193 22.7136 33.1719C22.6929 33.1509 22.6812 33.1226 22.681 33.093C22.681 33.03 22.73 32.98 22.792 32.979ZM23.355 32.979C23.409 32.979 23.458 33.019 23.465 33.073V33.093C23.465 33.154 23.415 33.206 23.355 33.206C23.3253 33.2055 23.2969 33.1934 23.276 33.1723C23.2551 33.1512 23.2432 33.1227 23.243 33.093C23.243 33.03 23.293 32.98 23.354 32.979H23.355ZM23.917 32.979C23.9438 32.9785 23.9698 32.9877 23.9902 33.0051C24.0107 33.0224 24.0241 33.0465 24.028 33.073V33.093C24.028 33.154 23.978 33.206 23.917 33.206C23.8871 33.2058 23.8585 33.1938 23.8374 33.1726C23.8162 33.1515 23.8042 33.1229 23.804 33.093C23.804 33.03 23.854 32.979 23.917 32.979ZM24.48 32.979C24.539 32.979 24.587 33.026 24.59 33.085V33.093C24.59 33.154 24.54 33.206 24.48 33.206C24.4499 33.206 24.4211 33.1941 24.3997 33.173C24.3784 33.1518 24.3662 33.1231 24.366 33.093C24.366 33.03 24.416 32.979 24.48 32.979ZM25.042 32.979C25.102 32.979 25.15 33.026 25.153 33.085V33.093C25.153 33.154 25.103 33.206 25.042 33.206C25.0121 33.2058 24.9835 33.1938 24.9624 33.1726C24.9412 33.1515 24.9292 33.1229 24.929 33.093C24.929 33.03 24.979 32.979 25.042 32.979ZM25.602 32.979C25.662 32.979 25.712 33.025 25.716 33.085V33.093C25.7157 33.1229 25.7037 33.1515 25.6826 33.1726C25.6615 33.1938 25.6329 33.2058 25.603 33.206C25.5733 33.2055 25.5449 33.1934 25.524 33.1723C25.5031 33.1512 25.4912 33.1227 25.491 33.093C25.491 33.03 25.541 32.98 25.603 32.979H25.602ZM26.165 32.979C26.225 32.979 26.275 33.025 26.278 33.085V33.093C26.2777 33.1229 26.2657 33.1515 26.2446 33.1726C26.2235 33.1938 26.1949 33.2058 26.165 33.206C26.1354 33.2052 26.1074 33.193 26.0866 33.1719C26.0659 33.1509 26.0542 33.1226 26.054 33.093C26.054 33.03 26.104 32.98 26.165 32.979ZM26.728 32.979C26.788 32.979 26.838 33.025 26.841 33.085V33.093C26.8407 33.1229 26.8287 33.1515 26.8076 33.1726C26.7865 33.1938 26.7579 33.2058 26.728 33.206C26.6983 33.2055 26.6699 33.1934 26.649 33.1723C26.6281 33.1512 26.6162 33.1227 26.616 33.093C26.616 33.03 26.666 32.98 26.728 32.979ZM27.29 32.979C27.3182 32.9817 27.3445 32.9948 27.3636 33.0158C27.3827 33.0368 27.3933 33.0641 27.3933 33.0925C27.3933 33.1209 27.3827 33.1483 27.3636 33.1693C27.3445 33.1903 27.3182 33.2034 27.29 33.206C27.2604 33.2052 27.2324 33.193 27.2116 33.1719C27.1909 33.1509 27.1792 33.1226 27.179 33.093C27.179 33.03 27.229 32.98 27.29 32.979ZM27.853 32.979C27.8796 32.9787 27.9054 32.9881 27.9256 33.0054C27.9458 33.0227 27.9591 33.0467 27.963 33.073C27.965 33.081 27.965 33.085 27.963 33.093C27.963 33.154 27.913 33.206 27.853 33.206C27.8233 33.2055 27.7949 33.1934 27.774 33.1723C27.7531 33.1512 27.7412 33.1227 27.741 33.093C27.741 33.03 27.791 32.98 27.853 32.979ZM28.415 32.979C28.475 32.979 28.523 33.026 28.526 33.085V33.093C28.526 33.154 28.476 33.206 28.416 33.206C28.3859 33.206 28.3571 33.1941 28.3357 33.173C28.3144 33.1518 28.3022 33.1231 28.302 33.093C28.302 33.03 28.352 32.979 28.415 32.979ZM28.978 32.979C29.037 32.979 29.085 33.026 29.088 33.085V33.093C29.088 33.154 29.038 33.206 28.978 33.206C28.9479 33.206 28.9191 33.1941 28.8977 33.173C28.8764 33.1518 28.8642 33.1231 28.864 33.093C28.864 33.03 28.914 32.979 28.978 32.979ZM29.54 32.979C29.6 32.979 29.648 33.026 29.651 33.085V33.093C29.651 33.154 29.601 33.206 29.541 33.206C29.5109 33.206 29.4821 33.1941 29.4607 33.173C29.4394 33.1518 29.4272 33.1231 29.427 33.093C29.427 33.03 29.477 32.979 29.54 32.979ZM30.1 32.979C30.16 32.979 30.21 33.025 30.214 33.085V33.093C30.2137 33.1229 30.2017 33.1515 30.1806 33.1726C30.1595 33.1938 30.1309 33.2058 30.101 33.206C30.0713 33.2055 30.0429 33.1934 30.022 33.1723C30.0011 33.1512 29.9892 33.1227 29.989 33.093C29.989 33.03 30.039 32.98 30.101 32.979H30.1ZM30.663 32.979C30.723 32.979 30.773 33.025 30.776 33.085V33.093C30.7757 33.1229 30.7637 33.1515 30.7426 33.1726C30.7215 33.1938 30.6929 33.2058 30.663 33.206C30.6334 33.2052 30.6054 33.193 30.5846 33.1719C30.5639 33.1509 30.5522 33.1226 30.552 33.093C30.552 33.03 30.602 32.98 30.663 32.979ZM31.226 32.979C31.286 32.979 31.336 33.025 31.339 33.085V33.093C31.3387 33.1229 31.3267 33.1515 31.3056 33.1726C31.2845 33.1938 31.2559 33.2058 31.226 33.206C31.1963 33.2055 31.1679 33.1934 31.147 33.1723C31.1261 33.1512 31.1142 33.1227 31.114 33.093C31.114 33.03 31.164 32.98 31.226 32.979ZM31.788 32.979C31.8148 32.9785 31.8408 32.9877 31.8612 33.0051C31.8817 33.0224 31.8951 33.0465 31.899 33.073V33.093C31.899 33.154 31.849 33.206 31.789 33.206C31.7593 33.2055 31.7309 33.1934 31.71 33.1723C31.6891 33.1512 31.6772 33.1227 31.677 33.093C31.676 33.03 31.727 32.98 31.788 32.979ZM32.351 32.979C32.3776 32.9787 32.4034 32.9881 32.4236 33.0054C32.4438 33.0227 32.4571 33.0467 32.461 33.073C32.463 33.081 32.463 33.085 32.461 33.093C32.461 33.154 32.411 33.206 32.351 33.206C32.3209 33.206 32.2921 33.1941 32.2707 33.173C32.2494 33.1518 32.2372 33.1231 32.237 33.093C32.237 33.03 32.287 32.979 32.351 32.979ZM32.913 32.979C32.973 32.979 33.021 33.026 33.024 33.085V33.093C33.024 33.154 32.974 33.206 32.914 33.206C32.8839 33.206 32.8551 33.1941 32.8337 33.173C32.8124 33.1518 32.8002 33.1231 32.8 33.093C32.8 33.03 32.85 32.979 32.913 32.979ZM33.476 32.979C33.535 32.979 33.583 33.026 33.586 33.085V33.093C33.586 33.154 33.536 33.206 33.476 33.206C33.4459 33.206 33.4171 33.1941 33.3957 33.173C33.3744 33.1518 33.3622 33.1231 33.362 33.093C33.362 33.03 33.412 32.979 33.476 32.979ZM34.038 32.979C34.098 32.979 34.146 33.026 34.149 33.085V33.093C34.149 33.154 34.099 33.206 34.039 33.206C34.0089 33.206 33.9801 33.1941 33.9587 33.173C33.9374 33.1518 33.9252 33.1231 33.925 33.093C33.925 33.03 33.975 32.979 34.038 32.979ZM34.598 32.979C34.658 32.979 34.708 33.025 34.712 33.085V33.093C34.7117 33.1229 34.6997 33.1515 34.6786 33.1726C34.6575 33.1938 34.6289 33.2058 34.599 33.206C34.5693 33.2055 34.5409 33.1934 34.52 33.1723C34.4991 33.1512 34.4872 33.1227 34.487 33.093C34.487 33.03 34.537 32.98 34.599 32.979H34.598ZM16.14 35.992C16.2646 35.9904 16.3883 36.0134 16.5039 36.0597C16.6196 36.106 16.725 36.1748 16.814 36.262C17.19 36.628 17.204 37.225 16.837 37.602L15.028 39.461C14.9413 39.5504 14.8379 39.6218 14.7237 39.6712C14.6094 39.7206 14.4866 39.7469 14.3621 39.7488C14.2377 39.7507 14.1141 39.728 13.9984 39.682C13.8827 39.6361 13.7772 39.5678 13.688 39.481C13.5982 39.3947 13.5263 39.2915 13.4765 39.1774C13.4267 39.0632 13.4 38.9403 13.3978 38.8158C13.3957 38.6913 13.4182 38.5675 13.4641 38.4517C13.5099 38.3359 13.5782 38.2303 13.665 38.141L15.474 36.283C15.5605 36.1934 15.6639 36.1217 15.7781 36.0721C15.8924 36.0225 16.0154 35.996 16.14 35.994V35.992ZM19.12 35.992C19.2446 35.9904 19.3682 36.0134 19.4839 36.0598C19.5996 36.1061 19.7049 36.1748 19.794 36.262C19.8837 36.3484 19.9554 36.4517 20.005 36.566C20.0546 36.6802 20.0811 36.8031 20.0831 36.9277C20.0851 37.0522 20.0624 37.1759 20.0164 37.2916C19.9703 37.4073 19.9019 37.5128 19.815 37.602L18.007 39.461C17.9203 39.5504 17.817 39.6218 17.7027 39.6712C17.5884 39.7206 17.4656 39.7469 17.3411 39.7488C17.2167 39.7507 17.0931 39.728 16.9774 39.682C16.8617 39.6361 16.7562 39.5678 16.667 39.481C16.5773 39.3946 16.5056 39.2913 16.456 39.1771C16.4064 39.0628 16.3798 38.9399 16.3779 38.8154C16.3759 38.6909 16.3986 38.5672 16.4446 38.4514C16.4906 38.3357 16.5591 38.2302 16.646 38.141L18.454 36.283C18.5405 36.1934 18.6439 36.1217 18.7582 36.0721C18.8724 36.0225 18.9954 35.996 19.12 35.994V35.992ZM22.099 35.992C22.2236 35.9904 22.3473 36.0134 22.4629 36.0597C22.5786 36.106 22.684 36.1748 22.773 36.262C22.8627 36.3484 22.9344 36.4517 22.984 36.566C23.0336 36.6802 23.0601 36.8031 23.0621 36.9277C23.0641 37.0522 23.0414 37.1759 22.9954 37.2916C22.9493 37.4073 22.8809 37.5128 22.794 37.602L20.985 39.461C20.8983 39.5504 20.7949 39.6218 20.6807 39.6712C20.5664 39.7206 20.4436 39.7469 20.3191 39.7488C20.1947 39.7507 20.0711 39.728 19.9554 39.682C19.8397 39.6361 19.7342 39.5678 19.645 39.481C19.5553 39.3946 19.4836 39.2913 19.434 39.1771C19.3844 39.0628 19.3578 38.9399 19.3559 38.8154C19.3539 38.6909 19.3766 38.5672 19.4226 38.4514C19.4686 38.3357 19.5371 38.2302 19.624 38.141L21.433 36.283C21.5195 36.1934 21.6229 36.1217 21.7372 36.0721C21.8514 36.0225 21.9744 35.996 22.099 35.994V35.992ZM25.077 35.992C25.2016 35.9904 25.3253 36.0134 25.4409 36.0597C25.5566 36.106 25.662 36.1748 25.751 36.262C26.128 36.628 26.141 37.225 25.774 37.602L23.966 39.461C23.8793 39.5504 23.776 39.6218 23.6617 39.6712C23.5474 39.7206 23.4246 39.7469 23.3001 39.7488C23.1757 39.7507 23.0521 39.728 22.9364 39.682C22.8207 39.6361 22.7152 39.5678 22.626 39.481C22.5362 39.3947 22.4643 39.2915 22.4145 39.1774C22.3647 39.0632 22.338 38.9403 22.3358 38.8158C22.3337 38.6913 22.3562 38.5675 22.4021 38.4517C22.4479 38.3359 22.5162 38.2303 22.603 38.141L24.411 36.283C24.4975 36.1934 24.6009 36.1217 24.7151 36.0721C24.8294 36.0225 24.9524 35.996 25.077 35.994V35.992ZM28.057 35.992C28.1816 35.9904 28.3052 36.0134 28.4209 36.0598C28.5366 36.1061 28.642 36.1748 28.731 36.262C28.8207 36.3484 28.8925 36.4516 28.9422 36.5658C28.9919 36.68 29.0186 36.8029 29.0206 36.9274C29.0226 37.052 29.0001 37.1757 28.9541 37.2914C28.9082 37.4072 28.8398 37.5128 28.753 37.602L26.944 39.461C26.8573 39.5504 26.7539 39.6218 26.6397 39.6712C26.5254 39.7206 26.4026 39.7469 26.2781 39.7488C26.1537 39.7507 26.0301 39.728 25.9144 39.682C25.7987 39.6361 25.6932 39.5678 25.604 39.481C25.5143 39.3946 25.4426 39.2913 25.393 39.1771C25.3434 39.0628 25.3168 38.9399 25.3149 38.8154C25.3129 38.6909 25.3356 38.5672 25.3816 38.4514C25.4276 38.3357 25.4961 38.2302 25.583 38.141L27.392 36.283C27.4785 36.1934 27.5819 36.1217 27.6961 36.0721C27.8104 36.0225 27.9334 35.996 28.058 35.994V35.992H28.057ZM31.037 35.992C31.1614 35.9905 31.2849 36.0136 31.4004 36.0599C31.5159 36.1062 31.6211 36.1749 31.71 36.262C31.7997 36.3484 31.8714 36.4517 31.921 36.566C31.9706 36.6802 31.9971 36.8031 31.9991 36.9277C32.001 37.0522 31.9784 37.1759 31.9324 37.2916C31.8863 37.4073 31.8179 37.5128 31.731 37.602L29.923 39.461C29.8363 39.5504 29.733 39.6218 29.6187 39.6712C29.5044 39.7206 29.3816 39.7469 29.2571 39.7488C29.1327 39.7507 29.0091 39.728 28.8934 39.682C28.7777 39.6361 28.6722 39.5678 28.583 39.481C28.4933 39.3946 28.4216 39.2913 28.372 39.1771C28.3224 39.0628 28.2958 38.9399 28.2939 38.8154C28.2919 38.6909 28.3146 38.5672 28.3606 38.4514C28.4066 38.3357 28.4751 38.2302 28.562 38.141L30.37 36.283C30.4565 36.1934 30.5599 36.1217 30.6742 36.0721C30.7884 36.0225 30.9114 35.996 31.036 35.994V35.992H31.037ZM34.015 35.992C34.1394 35.9905 34.2629 36.0136 34.3784 36.0599C34.4939 36.1062 34.5991 36.1749 34.688 36.262C35.065 36.628 35.078 37.225 34.712 37.602L32.903 39.461C32.8163 39.5504 32.713 39.6218 32.5987 39.6712C32.4844 39.7206 32.3616 39.7469 32.2371 39.7488C32.1127 39.7507 31.9891 39.728 31.8734 39.682C31.7577 39.6361 31.6522 39.5678 31.563 39.481C31.4732 39.3947 31.4013 39.2915 31.3515 39.1774C31.3017 39.0632 31.275 38.9403 31.2728 38.8158C31.2707 38.6913 31.2932 38.5675 31.3391 38.4517C31.3849 38.3359 31.4532 38.2303 31.54 38.141L33.349 36.283C33.4355 36.1934 33.5389 36.1217 33.6531 36.0721C33.7674 36.0225 33.8904 35.996 34.015 35.994V35.992Z" fill="#333333"/>
</svg>
