<svg width="48" height="48" viewBox="0 0 48 48" fill="none" xmlns="http://www.w3.org/2000/svg">
<path d="M28.854 4.05508C23.774 4.04008 18.628 4.09508 14.178 4.09808C13.308 4.09808 12.611 4.79708 12.611 5.66608V42.5271C12.611 43.3971 13.308 44.0971 14.178 44.0971H33.883C34.753 44.0971 35.451 43.3971 35.451 42.5271V5.66708C35.451 4.79708 34.752 4.09708 33.883 4.09708C32.233 4.07208 30.547 4.06008 28.853 4.05508H28.854ZM18.835 5.12908H18.843C18.8724 5.13013 18.9001 5.14265 18.9203 5.16396C18.9405 5.18527 18.9515 5.21365 18.951 5.24301C18.9505 5.27236 18.9385 5.30033 18.9175 5.32091C18.8966 5.34148 18.8684 5.35301 18.839 5.35301C18.8097 5.35301 18.7815 5.34148 18.7605 5.32091C18.7396 5.30033 18.7276 5.27236 18.727 5.24301C18.7265 5.21365 18.7375 5.18527 18.7577 5.16396C18.7779 5.14265 18.8057 5.13013 18.835 5.12908ZM24.022 5.12908H24.03C24.0594 5.13013 24.0871 5.14265 24.1073 5.16396C24.1275 5.18527 24.1385 5.21365 24.138 5.24301C24.1375 5.27236 24.1255 5.30033 24.1045 5.32091C24.0836 5.34148 24.0554 5.35301 24.026 5.35301C23.9967 5.35301 23.9685 5.34148 23.9475 5.32091C23.9266 5.30033 23.9146 5.27236 23.914 5.24301C23.9135 5.21365 23.9245 5.18527 23.9447 5.16396C23.9649 5.14265 23.9927 5.13013 24.022 5.12908ZM29.21 5.12908H29.218C29.2474 5.13013 29.2751 5.14265 29.2953 5.16396C29.3155 5.18527 29.3265 5.21365 29.326 5.24301C29.3255 5.27236 29.3135 5.30033 29.2925 5.32091C29.2716 5.34148 29.2434 5.35301 29.214 5.35301C29.1847 5.35301 29.1565 5.34148 29.1355 5.32091C29.1146 5.30033 29.1026 5.27236 29.102 5.24301C29.1015 5.21365 29.1125 5.18527 29.1327 5.16396C29.1529 5.14265 29.1807 5.13013 29.21 5.12908ZM18.835 5.69208H18.843C18.8724 5.69313 18.9001 5.70565 18.9203 5.72696C18.9405 5.74827 18.9515 5.77665 18.951 5.80601C18.9505 5.83536 18.9385 5.86333 18.9175 5.88391C18.8966 5.90448 18.8684 5.91601 18.839 5.91601C18.8097 5.91601 18.7815 5.90448 18.7605 5.88391C18.7396 5.86333 18.7276 5.83536 18.727 5.80601C18.7265 5.77665 18.7375 5.74827 18.7577 5.72696C18.7779 5.70565 18.8057 5.69313 18.835 5.69208ZM24.022 5.69208H24.03C24.0594 5.69313 24.0871 5.70565 24.1073 5.72696C24.1275 5.74827 24.1385 5.77665 24.138 5.80601C24.1375 5.83536 24.1255 5.86333 24.1045 5.88391C24.0836 5.90448 24.0554 5.91601 24.026 5.91601C23.9967 5.91601 23.9685 5.90448 23.9475 5.88391C23.9266 5.86333 23.9146 5.83536 23.914 5.80601C23.9135 5.77665 23.9245 5.74827 23.9447 5.72696C23.9649 5.70565 23.9927 5.69313 24.022 5.69208ZM29.21 5.69208H29.218C29.2474 5.69313 29.2751 5.70565 29.2953 5.72696C29.3155 5.74827 29.3265 5.77665 29.326 5.80601C29.3255 5.83536 29.3135 5.86333 29.2925 5.88391C29.2716 5.90448 29.2434 5.91601 29.214 5.91601C29.1847 5.91601 29.1565 5.90448 29.1355 5.88391C29.1146 5.86333 29.1026 5.83536 29.102 5.80601C29.1015 5.77665 29.1125 5.74827 29.1327 5.72696C29.1529 5.70565 29.1807 5.69313 29.21 5.69208ZM18.825 6.25408H18.844C18.905 6.25408 18.954 6.30408 18.955 6.36508C18.955 6.38649 18.9488 6.40744 18.9372 6.42544C18.9256 6.44344 18.9091 6.45774 18.8896 6.46664C18.8701 6.47554 18.8485 6.47868 18.8273 6.47567C18.8061 6.47266 18.7862 6.46364 18.77 6.44968C18.7537 6.43571 18.7419 6.41738 18.7357 6.39687C18.7296 6.37635 18.7295 6.35451 18.7354 6.33393C18.7413 6.31334 18.7529 6.29488 18.769 6.28073C18.7851 6.26658 18.8049 6.25733 18.826 6.25408H18.825ZM24.013 6.25408H24.03C24.092 6.25408 24.141 6.30408 24.142 6.36508C24.142 6.42708 24.092 6.47608 24.03 6.47708C24.0014 6.47765 23.9737 6.46725 23.9525 6.44801C23.9313 6.42877 23.9183 6.40215 23.9161 6.37361C23.9139 6.34508 23.9228 6.3168 23.9408 6.29457C23.9588 6.27234 23.9847 6.25785 24.013 6.25408ZM29.2 6.25408H29.22C29.281 6.25408 29.33 6.30408 29.331 6.36508C29.331 6.38649 29.3248 6.40744 29.3132 6.42544C29.3016 6.44344 29.2851 6.45774 29.2656 6.46664C29.2461 6.47554 29.2245 6.47868 29.2033 6.47567C29.1821 6.47266 29.1622 6.46364 29.146 6.44968C29.1297 6.43571 29.1179 6.41738 29.1117 6.39687C29.1056 6.37635 29.1055 6.35451 29.1114 6.33393C29.1173 6.31334 29.1289 6.29488 29.145 6.28073C29.1611 6.26658 29.1809 6.25733 29.202 6.25408H29.2ZM18.845 6.81408C18.8598 6.81421 18.8744 6.81725 18.888 6.82302C18.9016 6.8288 18.9139 6.8372 18.9243 6.84773C18.9346 6.85827 18.9428 6.87075 18.9483 6.88445C18.9539 6.89815 18.9567 6.9128 18.9565 6.92758C18.9564 6.94235 18.9534 6.95695 18.9476 6.97055C18.9418 6.98415 18.9334 6.99648 18.9229 7.00683C18.9123 7.01719 18.8998 7.02536 18.8862 7.0309C18.8725 7.03643 18.8578 7.03921 18.843 7.03908C18.8133 7.03881 18.7849 7.02676 18.7641 7.00557C18.7433 6.98437 18.7318 6.95578 18.732 6.92608C18.7323 6.89637 18.7443 6.86799 18.7655 6.84717C18.7867 6.82636 18.8153 6.81481 18.845 6.81508V6.81408ZM24.032 6.81408C24.0619 6.81434 24.0904 6.82645 24.1113 6.84773C24.1322 6.86902 24.1438 6.89774 24.1435 6.92758C24.1433 6.95741 24.1312 6.98592 24.1099 7.00683C24.0886 7.02774 24.0599 7.03934 24.03 7.03908C24.0003 7.03881 23.9719 7.02676 23.9511 7.00557C23.9303 6.98437 23.9188 6.95578 23.919 6.92608C23.9193 6.89637 23.9313 6.86799 23.9525 6.84717C23.9737 6.82636 24.0023 6.81481 24.032 6.81508V6.81408ZM29.22 6.81408C29.2499 6.81434 29.2784 6.82645 29.2993 6.84773C29.3202 6.86902 29.3318 6.89774 29.3315 6.92758C29.3313 6.95741 29.3192 6.98592 29.2979 7.00683C29.2766 7.02774 29.2479 7.03934 29.218 7.03908C29.1883 7.03881 29.1599 7.02676 29.1391 7.00557C29.1183 6.98437 29.1068 6.95578 29.107 6.92608C29.1073 6.89637 29.1193 6.86799 29.1405 6.84717C29.1617 6.82636 29.1903 6.81481 29.22 6.81508V6.81408ZM18.835 7.37708H18.843C18.8726 7.37813 18.9006 7.39076 18.921 7.41225C18.9414 7.43375 18.9525 7.46239 18.952 7.49201C18.9515 7.52163 18.9393 7.54985 18.9182 7.57061C18.8971 7.59137 18.8686 7.60301 18.839 7.60301C18.8094 7.60301 18.781 7.59137 18.7598 7.57061C18.7387 7.54985 18.7266 7.52163 18.726 7.49201C18.7255 7.46239 18.7366 7.43375 18.757 7.41225C18.7774 7.39076 18.8054 7.37813 18.835 7.37708ZM24.022 7.37708H24.03C24.0596 7.37813 24.0876 7.39076 24.108 7.41225C24.1284 7.43375 24.1395 7.46239 24.139 7.49201C24.1385 7.52163 24.1263 7.54985 24.1052 7.57061C24.0841 7.59137 24.0556 7.60301 24.026 7.60301C23.9964 7.60301 23.968 7.59137 23.9468 7.57061C23.9257 7.54985 23.9136 7.52163 23.913 7.49201C23.9125 7.46239 23.9236 7.43375 23.944 7.41225C23.9644 7.39076 23.9924 7.37813 24.022 7.37708ZM29.21 7.37708H29.218C29.2476 7.37813 29.2756 7.39076 29.296 7.41225C29.3164 7.43375 29.3275 7.46239 29.327 7.49201C29.3265 7.52163 29.3143 7.54985 29.2932 7.57061C29.2721 7.59137 29.2436 7.60301 29.214 7.60301C29.1844 7.60301 29.156 7.59137 29.1348 7.57061C29.1137 7.54985 29.1016 7.52163 29.101 7.49201C29.1005 7.46239 29.1116 7.43375 29.132 7.41225C29.1524 7.39076 29.1804 7.37813 29.21 7.37708ZM16.312 7.90808C16.7161 7.90808 17.1036 8.06859 17.3893 8.3543C17.675 8.64001 17.8355 9.02752 17.8355 9.43158C17.8355 9.83564 17.675 10.2231 17.3893 10.5089C17.1036 10.7946 16.7161 10.9551 16.312 10.9551C15.908 10.9551 15.5205 10.7946 15.2347 10.5089C14.949 10.2231 14.7885 9.83564 14.7885 9.43158C14.7885 9.02752 14.949 8.64001 15.2347 8.3543C15.5205 8.06859 15.908 7.90808 16.312 7.90808ZM21.405 7.90808C21.8091 7.90808 22.1966 8.06859 22.4823 8.3543C22.768 8.64001 22.9285 9.02752 22.9285 9.43158C22.9285 9.83564 22.768 10.2231 22.4823 10.5089C22.1966 10.7946 21.8091 10.9551 21.405 10.9551C21.001 10.9551 20.6135 10.7946 20.3277 10.5089C20.042 10.2231 19.8815 9.83564 19.8815 9.43158C19.8815 9.02752 20.042 8.64001 20.3277 8.3543C20.6135 8.06859 21.001 7.90808 21.405 7.90808ZM26.499 7.90808C26.9031 7.90808 27.2906 8.06859 27.5763 8.3543C27.862 8.64001 28.0225 9.02752 28.0225 9.43158C28.0225 9.83564 27.862 10.2231 27.5763 10.5089C27.2906 10.7946 26.9031 10.9551 26.499 10.9551C26.095 10.9551 25.7075 10.7946 25.4217 10.5089C25.136 10.2231 24.9755 9.83564 24.9755 9.43158C24.9755 9.02752 25.136 8.64001 25.4217 8.3543C25.7075 8.06859 26.095 7.90808 26.499 7.90808ZM31.718 7.90808C32.1221 7.90808 32.5096 8.06859 32.7953 8.3543C33.081 8.64001 33.2415 9.02752 33.2415 9.43158C33.2415 9.83564 33.081 10.2231 32.7953 10.5089C32.5096 10.7946 32.1221 10.9551 31.718 10.9551C31.314 10.9551 30.9265 10.7946 30.6407 10.5089C30.355 10.2231 30.1945 9.83564 30.1945 9.43158C30.1945 9.02752 30.355 8.64001 30.6407 8.3543C30.9265 8.06859 31.314 7.90808 31.718 7.90808ZM18.835 7.93808H18.843C18.8726 7.93913 18.9006 7.95176 18.921 7.97325C18.9414 7.99475 18.9525 8.02339 18.952 8.05301C18.9515 8.08263 18.9393 8.11085 18.9182 8.13161C18.8971 8.15237 18.8686 8.16401 18.839 8.16401C18.8094 8.16401 18.781 8.15237 18.7598 8.13161C18.7387 8.11085 18.7266 8.08263 18.726 8.05301C18.7255 8.02339 18.7366 7.99475 18.757 7.97325C18.7774 7.95176 18.8054 7.93913 18.835 7.93808ZM24.022 7.93808H24.03C24.0596 7.93913 24.0876 7.95176 24.108 7.97325C24.1284 7.99475 24.1395 8.02339 24.139 8.05301C24.1385 8.08263 24.1263 8.11085 24.1052 8.13161C24.0841 8.15237 24.0556 8.16401 24.026 8.16401C23.9964 8.16401 23.968 8.15237 23.9468 8.13161C23.9257 8.11085 23.9136 8.08263 23.913 8.05301C23.9125 8.02339 23.9236 7.99475 23.944 7.97325C23.9644 7.95176 23.9924 7.93913 24.022 7.93808ZM29.21 7.93808H29.218C29.2476 7.93913 29.2756 7.95176 29.296 7.97325C29.3164 7.99475 29.3275 8.02339 29.327 8.05301C29.3265 8.08263 29.3143 8.11085 29.2932 8.13161C29.2721 8.15237 29.2436 8.16401 29.214 8.16401C29.1844 8.16401 29.156 8.15237 29.1348 8.13161C29.1137 8.11085 29.1016 8.08263 29.101 8.05301C29.1005 8.02339 29.1116 7.99475 29.132 7.97325C29.1524 7.95176 29.1804 7.93913 29.21 7.93808ZM18.836 8.50008H18.844C18.8736 8.50113 18.9016 8.51376 18.922 8.53525C18.9424 8.55675 18.9535 8.58539 18.953 8.61501C18.9525 8.64462 18.9403 8.67285 18.9192 8.69361C18.8981 8.71437 18.8696 8.72601 18.84 8.72601C18.8104 8.72601 18.782 8.71437 18.7608 8.69361C18.7397 8.67285 18.7276 8.64462 18.727 8.61501C18.7265 8.58539 18.7376 8.55675 18.758 8.53525C18.7784 8.51376 18.8064 8.50113 18.836 8.50008ZM24.023 8.50008H24.031C24.0606 8.50113 24.0886 8.51376 24.109 8.53525C24.1294 8.55675 24.1405 8.58539 24.14 8.61501C24.1395 8.64462 24.1273 8.67285 24.1062 8.69361C24.0851 8.71437 24.0566 8.72601 24.027 8.72601C23.9974 8.72601 23.969 8.71437 23.9478 8.69361C23.9267 8.67285 23.9146 8.64462 23.914 8.61501C23.9135 8.58539 23.9246 8.55675 23.945 8.53525C23.9654 8.51376 23.9934 8.50113 24.023 8.50008ZM29.211 8.50008H29.219C29.2486 8.50113 29.2766 8.51376 29.297 8.53525C29.3174 8.55675 29.3285 8.58539 29.328 8.61501C29.3275 8.64462 29.3153 8.67285 29.2942 8.69361C29.2731 8.71437 29.2446 8.72601 29.215 8.72601C29.1854 8.72601 29.157 8.71437 29.1358 8.69361C29.1147 8.67285 29.1026 8.64462 29.102 8.61501C29.1015 8.58539 29.1126 8.55675 29.133 8.53525C29.1534 8.51376 29.1814 8.50113 29.211 8.50008ZM18.836 9.06308H18.844C18.8734 9.06413 18.9011 9.07665 18.9213 9.09796C18.9415 9.11927 18.9525 9.14765 18.952 9.17701C18.9515 9.20636 18.9395 9.23433 18.9185 9.25491C18.8976 9.27548 18.8694 9.28701 18.84 9.28701C18.8107 9.28701 18.7825 9.27548 18.7615 9.25491C18.7406 9.23433 18.7286 9.20636 18.728 9.17701C18.7275 9.14765 18.7385 9.11927 18.7587 9.09796C18.7789 9.07665 18.8067 9.06413 18.836 9.06308ZM24.023 9.06308H24.031C24.0604 9.06413 24.0881 9.07665 24.1083 9.09796C24.1285 9.11927 24.1395 9.14765 24.139 9.17701C24.1385 9.20636 24.1265 9.23433 24.1055 9.25491C24.0846 9.27548 24.0564 9.28701 24.027 9.28701C23.9977 9.28701 23.9695 9.27548 23.9485 9.25491C23.9276 9.23433 23.9156 9.20636 23.915 9.17701C23.9145 9.14765 23.9255 9.11927 23.9457 9.09796C23.9659 9.07665 23.9937 9.06413 24.023 9.06308ZM29.211 9.06308H29.219C29.2484 9.06413 29.2761 9.07665 29.2963 9.09796C29.3165 9.11927 29.3275 9.14765 29.327 9.17701C29.3265 9.20636 29.3145 9.23433 29.2935 9.25491C29.2726 9.27548 29.2444 9.28701 29.215 9.28701C29.1857 9.28701 29.1575 9.27548 29.1365 9.25491C29.1156 9.23433 29.1036 9.20636 29.103 9.17701C29.1025 9.14765 29.1135 9.11927 29.1337 9.09796C29.1539 9.07665 29.1817 9.06413 29.211 9.06308ZM18.836 9.62508H18.844C18.8734 9.62613 18.9011 9.63865 18.9213 9.65996C18.9415 9.68127 18.9525 9.70965 18.952 9.73901C18.9515 9.76836 18.9395 9.79633 18.9185 9.81691C18.8976 9.83748 18.8694 9.84901 18.84 9.84901C18.8107 9.84901 18.7825 9.83748 18.7615 9.81691C18.7406 9.79633 18.7286 9.76836 18.728 9.73901C18.7275 9.70965 18.7385 9.68127 18.7587 9.65996C18.7789 9.63865 18.8067 9.62613 18.836 9.62508ZM24.023 9.62508H24.031C24.0604 9.62613 24.0881 9.63865 24.1083 9.65996C24.1285 9.68127 24.1395 9.70965 24.139 9.73901C24.1385 9.76836 24.1265 9.79633 24.1055 9.81691C24.0846 9.83748 24.0564 9.84901 24.027 9.84901C23.9977 9.84901 23.9695 9.83748 23.9485 9.81691C23.9276 9.79633 23.9156 9.76836 23.915 9.73901C23.9145 9.70965 23.9255 9.68127 23.9457 9.65996C23.9659 9.63865 23.9937 9.62613 24.023 9.62508ZM29.211 9.62508H29.219C29.2484 9.62613 29.2761 9.63865 29.2963 9.65996C29.3165 9.68127 29.3275 9.70965 29.327 9.73901C29.3265 9.76836 29.3145 9.79633 29.2935 9.81691C29.2726 9.83748 29.2444 9.84901 29.215 9.84901C29.1857 9.84901 29.1575 9.83748 29.1365 9.81691C29.1156 9.79633 29.1036 9.76836 29.103 9.73901C29.1025 9.70965 29.1135 9.68127 29.1337 9.65996C29.1539 9.63865 29.1817 9.62613 29.211 9.62508ZM18.824 10.1881H18.844C18.905 10.1881 18.954 10.2401 18.955 10.3011C18.955 10.3308 18.9432 10.3593 18.9222 10.3803C18.9012 10.4013 18.8727 10.4131 18.843 10.4131C18.8133 10.4131 18.7848 10.4013 18.7638 10.3803C18.7428 10.3593 18.731 10.3308 18.731 10.3011C18.731 10.2461 18.77 10.1951 18.824 10.1881ZM24.012 10.1881H24.031C24.093 10.1881 24.142 10.2401 24.143 10.3011C24.143 10.3309 24.1312 10.3595 24.1101 10.3806C24.089 10.4017 24.0604 10.4136 24.0305 10.4136C24.0007 10.4136 23.9721 10.4017 23.951 10.3806C23.9299 10.3595 23.918 10.3309 23.918 10.3011C23.918 10.2461 23.958 10.1951 24.012 10.1881ZM29.199 10.1881H29.219C29.28 10.1881 29.329 10.2401 29.33 10.3011C29.33 10.3308 29.3182 10.3593 29.2972 10.3803C29.2762 10.4013 29.2477 10.4131 29.218 10.4131C29.1883 10.4131 29.1598 10.4013 29.1388 10.3803C29.1178 10.3593 29.106 10.3308 29.106 10.3011C29.106 10.2461 29.145 10.1951 29.199 10.1881ZM18.846 10.7481C18.908 10.7481 18.958 10.8011 18.957 10.8631C18.957 10.8776 18.9541 10.892 18.9486 10.9054C18.943 10.9188 18.9348 10.931 18.9245 10.9412C18.9141 10.9514 18.9019 10.9595 18.8884 10.965C18.875 10.9705 18.8606 10.9732 18.846 10.9731C18.8312 10.9736 18.8165 10.9712 18.8027 10.9659C18.7889 10.9606 18.7763 10.9526 18.7656 10.9423C18.755 10.932 18.7465 10.9197 18.7408 10.9061C18.735 10.8925 18.732 10.8779 18.732 10.8631C18.732 10.8011 18.783 10.7481 18.846 10.7481ZM24.033 10.7481C24.096 10.7481 24.145 10.8011 24.144 10.8631C24.144 10.8923 24.1324 10.9202 24.1118 10.9409C24.0912 10.9615 24.0632 10.9731 24.034 10.9731C24.0192 10.9736 24.0045 10.9712 23.9907 10.9659C23.9769 10.9606 23.9643 10.9526 23.9536 10.9423C23.943 10.932 23.9345 10.9197 23.9288 10.9061C23.923 10.8925 23.92 10.8779 23.92 10.8631C23.92 10.8011 23.97 10.7481 24.033 10.7481ZM29.221 10.7481C29.283 10.7481 29.333 10.8011 29.332 10.8631C29.332 10.8776 29.3291 10.892 29.3236 10.9054C29.318 10.9188 29.3098 10.931 29.2995 10.9412C29.2891 10.9514 29.2769 10.9595 29.2634 10.965C29.25 10.9705 29.2356 10.9732 29.221 10.9731C29.2062 10.9736 29.1915 10.9712 29.1777 10.9659C29.1639 10.9606 29.1513 10.9526 29.1406 10.9423C29.13 10.932 29.1215 10.9197 29.1158 10.9061C29.11 10.8925 29.107 10.8779 29.107 10.8631C29.107 10.8011 29.158 10.7481 29.221 10.7481ZM18.846 11.3111C18.8757 11.3111 18.9042 11.3229 18.9252 11.3439C18.9462 11.3649 18.958 11.3934 18.958 11.4231C18.958 11.4528 18.9462 11.4813 18.9252 11.5023C18.9042 11.5233 18.8757 11.5351 18.846 11.5351C18.818 11.5324 18.792 11.5194 18.7731 11.4986C18.7541 11.4778 18.7436 11.4507 18.7436 11.4226C18.7436 11.3944 18.7541 11.3673 18.7731 11.3465C18.792 11.3257 18.818 11.3127 18.846 11.3101V11.3111ZM24.033 11.3111C24.0627 11.3111 24.0912 11.3229 24.1122 11.3439C24.1332 11.3649 24.145 11.3934 24.145 11.4231C24.145 11.4528 24.1332 11.4813 24.1122 11.5023C24.0912 11.5233 24.0627 11.5351 24.033 11.5351C24.005 11.5324 23.979 11.5194 23.9601 11.4986C23.9411 11.4778 23.9306 11.4507 23.9306 11.4226C23.9306 11.3944 23.9411 11.3673 23.9601 11.3465C23.979 11.3257 24.005 11.3127 24.033 11.3101V11.3111ZM29.221 11.3111C29.2507 11.3111 29.2792 11.3229 29.3002 11.3439C29.3212 11.3649 29.333 11.3934 29.333 11.4231C29.333 11.4528 29.3212 11.4813 29.3002 11.5023C29.2792 11.5233 29.2507 11.5351 29.221 11.5351C29.193 11.5324 29.167 11.5194 29.1481 11.4986C29.1291 11.4778 29.1186 11.4507 29.1186 11.4226C29.1186 11.3944 29.1291 11.3673 29.1481 11.3465C29.167 11.3257 29.193 11.3127 29.221 11.3101V11.3111ZM18.836 11.8731C18.8514 11.8721 18.8669 11.8743 18.8814 11.8796C18.8959 11.8848 18.9092 11.893 18.9205 11.9036C18.9317 11.9142 18.9407 11.927 18.9468 11.9412C18.9529 11.9553 18.9561 11.9706 18.956 11.9861C18.955 12.0481 18.905 12.0991 18.844 12.1001C18.8155 12.0986 18.7886 12.0865 18.7686 12.0662C18.7486 12.0458 18.737 12.0187 18.736 11.9902C18.735 11.9617 18.7447 11.9339 18.7632 11.9122C18.7817 11.8905 18.8077 11.8766 18.836 11.8731ZM24.023 11.8731C24.0384 11.8721 24.0539 11.8743 24.0684 11.8796C24.0829 11.8848 24.0962 11.893 24.1075 11.9036C24.1187 11.9142 24.1277 11.927 24.1338 11.9412C24.1399 11.9553 24.1431 11.9706 24.143 11.9861C24.143 12.0481 24.093 12.0991 24.031 12.1001C24.0025 12.0986 23.9756 12.0865 23.9556 12.0662C23.9356 12.0458 23.924 12.0187 23.923 11.9902C23.922 11.9617 23.9317 11.9339 23.9502 11.9122C23.9687 11.8905 23.9947 11.8766 24.023 11.8731ZM29.211 11.8731C29.2264 11.8721 29.2419 11.8743 29.2564 11.8796C29.2709 11.8848 29.2842 11.893 29.2955 11.9036C29.3067 11.9142 29.3157 11.927 29.3218 11.9412C29.3279 11.9553 29.3311 11.9706 29.331 11.9861C29.33 12.0481 29.28 12.0991 29.219 12.1001C29.1905 12.0986 29.1636 12.0865 29.1436 12.0662C29.1236 12.0458 29.112 12.0187 29.111 11.9902C29.11 11.9617 29.1197 11.9339 29.1382 11.9122C29.1567 11.8905 29.1827 11.8766 29.211 11.8731ZM16.313 12.0921C16.5131 12.0921 16.7112 12.1315 16.896 12.208C17.0809 12.2846 17.2488 12.3968 17.3903 12.5383C17.5318 12.6798 17.644 12.8477 17.7206 13.0326C17.7971 13.2174 17.8365 13.4155 17.8365 13.6156C17.8365 13.8156 17.7971 14.0138 17.7206 14.1986C17.644 14.3834 17.5318 14.5514 17.3903 14.6929C17.2488 14.8343 17.0809 14.9465 16.896 15.0231C16.7112 15.0997 16.5131 15.1391 16.313 15.1391C15.909 15.1391 15.5215 14.9786 15.2357 14.6929C14.95 14.4071 14.7895 14.0196 14.7895 13.6156C14.7895 13.2115 14.95 12.824 15.2357 12.5383C15.5215 12.2526 15.909 12.0921 16.313 12.0921ZM21.406 12.0921C21.6061 12.0921 21.8042 12.1315 21.989 12.208C22.1739 12.2846 22.3418 12.3968 22.4833 12.5383C22.6248 12.6798 22.737 12.8477 22.8136 13.0326C22.8901 13.2174 22.9295 13.4155 22.9295 13.6156C22.9295 13.8156 22.8901 14.0138 22.8136 14.1986C22.737 14.3834 22.6248 14.5514 22.4833 14.6929C22.3418 14.8343 22.1739 14.9465 21.989 15.0231C21.8042 15.0997 21.6061 15.1391 21.406 15.1391C21.002 15.1391 20.6145 14.9786 20.3287 14.6929C20.043 14.4071 19.8825 14.0196 19.8825 13.6156C19.8825 13.2115 20.043 12.824 20.3287 12.5383C20.6145 12.2526 21.002 12.0921 21.406 12.0921ZM26.5 12.0921C26.7001 12.0921 26.8982 12.1315 27.083 12.208C27.2679 12.2846 27.4358 12.3968 27.5773 12.5383C27.7188 12.6798 27.831 12.8477 27.9076 13.0326C27.9841 13.2174 28.0235 13.4155 28.0235 13.6156C28.0235 13.8156 27.9841 14.0138 27.9076 14.1986C27.831 14.3834 27.7188 14.5514 27.5773 14.6929C27.4358 14.8343 27.2679 14.9465 27.083 15.0231C26.8982 15.0997 26.7001 15.1391 26.5 15.1391C26.096 15.1391 25.7085 14.9786 25.4227 14.6929C25.137 14.4071 24.9765 14.0196 24.9765 13.6156C24.9765 13.2115 25.137 12.824 25.4227 12.5383C25.7085 12.2526 26.096 12.0921 26.5 12.0921ZM31.719 12.0921C31.9191 12.0921 32.1172 12.1315 32.302 12.208C32.4869 12.2846 32.6548 12.3968 32.7963 12.5383C32.9378 12.6798 33.05 12.8477 33.1266 13.0326C33.2031 13.2174 33.2425 13.4155 33.2425 13.6156C33.2425 13.8156 33.2031 14.0138 33.1266 14.1986C33.05 14.3834 32.9378 14.5514 32.7963 14.6929C32.6548 14.8343 32.4869 14.9465 32.302 15.0231C32.1172 15.0997 31.9191 15.1391 31.719 15.1391C31.315 15.1391 30.9275 14.9786 30.6417 14.6929C30.356 14.4071 30.1955 14.0196 30.1955 13.6156C30.1955 13.2115 30.356 12.824 30.6417 12.5383C30.9275 12.2526 31.315 12.0921 31.719 12.0921ZM18.836 12.4361H18.844C18.906 12.4361 18.956 12.4861 18.955 12.5491C18.955 12.6101 18.905 12.6621 18.844 12.6621C18.8164 12.6595 18.7907 12.647 18.7717 12.6268C18.7526 12.6067 18.7416 12.5803 18.7406 12.5526C18.7396 12.5249 18.7488 12.4978 18.7663 12.4763C18.7839 12.4549 18.8087 12.4406 18.836 12.4361ZM24.023 12.4361H24.031C24.093 12.4361 24.143 12.4861 24.143 12.5491C24.143 12.6101 24.093 12.6621 24.031 12.6621C24.0034 12.6595 23.9777 12.647 23.9587 12.6268C23.9396 12.6067 23.9286 12.5803 23.9276 12.5526C23.9266 12.5249 23.9358 12.4978 23.9533 12.4763C23.9709 12.4549 23.9957 12.4406 24.023 12.4361ZM29.211 12.4361H29.219C29.281 12.4361 29.331 12.4861 29.33 12.5491C29.33 12.6101 29.28 12.6621 29.219 12.6621C29.1914 12.6595 29.1657 12.647 29.1467 12.6268C29.1276 12.6067 29.1166 12.5803 29.1156 12.5526C29.1146 12.5249 29.1238 12.4978 29.1413 12.4763C29.1589 12.4549 29.1837 12.4406 29.211 12.4361ZM18.836 12.9981H18.844C18.872 13.0007 18.898 13.0137 18.917 13.0345C18.9359 13.0553 18.9464 13.0824 18.9464 13.1106C18.9464 13.1387 18.9359 13.1658 18.917 13.1866C18.898 13.2074 18.872 13.2204 18.844 13.2231C18.8142 13.2241 18.7852 13.2133 18.7633 13.193C18.7415 13.1726 18.7286 13.1444 18.7275 13.1146C18.7265 13.0847 18.7373 13.0557 18.7576 13.0339C18.778 13.012 18.8062 12.9991 18.836 12.9981ZM24.023 12.9981H24.031C24.059 13.0007 24.085 13.0137 24.104 13.0345C24.1229 13.0553 24.1334 13.0824 24.1334 13.1106C24.1334 13.1387 24.1229 13.1658 24.104 13.1866C24.085 13.2074 24.059 13.2204 24.031 13.2231C24.0012 13.2241 23.9721 13.2133 23.9503 13.193C23.9285 13.1726 23.9156 13.1444 23.9145 13.1146C23.9135 13.0847 23.9243 13.0557 23.9446 13.0339C23.965 13.012 23.9932 12.9991 24.023 12.9981ZM29.211 12.9981H29.219C29.247 13.0007 29.273 13.0137 29.292 13.0345C29.3109 13.0553 29.3214 13.0824 29.3214 13.1106C29.3214 13.1387 29.3109 13.1658 29.292 13.1866C29.273 13.2074 29.247 13.2204 29.219 13.2231C29.1892 13.2241 29.1602 13.2133 29.1383 13.193C29.1165 13.1726 29.1036 13.1444 29.1025 13.1146C29.1015 13.0847 29.1123 13.0557 29.1326 13.0339C29.153 13.012 29.1812 12.9991 29.211 12.9981ZM18.836 13.5611H18.844C18.8712 13.5647 18.896 13.5781 18.9141 13.5987C18.9321 13.6193 18.942 13.6457 18.942 13.6731C18.942 13.7004 18.9321 13.7269 18.9141 13.7475C18.896 13.7681 18.8712 13.7814 18.844 13.7851C18.8143 13.7861 18.7854 13.7754 18.7637 13.7551C18.7419 13.7348 18.7291 13.7068 18.728 13.6771C18.727 13.6474 18.7377 13.6185 18.758 13.5967C18.7783 13.575 18.8063 13.5621 18.836 13.5611ZM24.023 13.5611H24.031C24.0582 13.5647 24.083 13.5781 24.1011 13.5987C24.1191 13.6193 24.129 13.6457 24.129 13.6731C24.129 13.7004 24.1191 13.7269 24.1011 13.7475C24.083 13.7681 24.0582 13.7814 24.031 13.7851C24.0163 13.7856 24.0016 13.7832 23.9879 13.7781C23.9741 13.7729 23.9614 13.7651 23.9507 13.7551C23.9399 13.7451 23.9312 13.733 23.9251 13.7196C23.919 13.7062 23.9155 13.6918 23.915 13.6771C23.9145 13.6624 23.9169 13.6477 23.922 13.6339C23.9272 13.6201 23.935 13.6075 23.945 13.5967C23.955 13.5859 23.9671 13.5772 23.9805 13.5711C23.9939 13.565 24.0083 13.5616 24.023 13.5611ZM29.211 13.5611H29.219C29.2462 13.5647 29.271 13.5781 29.2891 13.5987C29.3071 13.6193 29.317 13.6457 29.317 13.6731C29.317 13.7004 29.3071 13.7269 29.2891 13.7475C29.271 13.7681 29.2462 13.7814 29.219 13.7851C29.2043 13.7856 29.1896 13.7832 29.1759 13.7781C29.1621 13.7729 29.1494 13.7651 29.1387 13.7551C29.1169 13.7348 29.1041 13.7068 29.103 13.6771C29.102 13.6474 29.1127 13.6185 29.133 13.5967C29.1533 13.575 29.1813 13.5621 29.211 13.5611ZM18.824 14.6861H18.844C18.8661 14.6865 18.8876 14.6934 18.9058 14.706C18.924 14.7186 18.938 14.7363 18.9461 14.7568C18.9543 14.7774 18.9562 14.7999 18.9515 14.8215C18.9469 14.8431 18.936 14.8629 18.9202 14.8783C18.9043 14.8937 18.8843 14.9041 18.8625 14.9082C18.8408 14.9122 18.8183 14.9097 18.798 14.9011C18.7777 14.8924 18.7604 14.8779 18.7483 14.8594C18.7362 14.8409 18.7298 14.8192 18.73 14.7971C18.73 14.7421 18.77 14.6931 18.824 14.6861ZM24.012 14.6861H24.031C24.0532 14.6863 24.0748 14.693 24.0931 14.7055C24.1114 14.718 24.1256 14.7356 24.1339 14.7561C24.1422 14.7767 24.1442 14.7992 24.1397 14.8209C24.1352 14.8426 24.1243 14.8624 24.1085 14.878C24.0927 14.8935 24.0727 14.904 24.0509 14.9081C24.0291 14.9122 24.0066 14.9098 23.9862 14.9012C23.9658 14.8925 23.9485 14.878 23.9363 14.8595C23.9242 14.8409 23.9178 14.8192 23.918 14.7971C23.918 14.7421 23.958 14.6931 24.012 14.6861ZM29.199 14.6861H29.219C29.2411 14.6865 29.2626 14.6934 29.2808 14.706C29.299 14.7186 29.313 14.7363 29.3211 14.7568C29.3293 14.7774 29.3312 14.7999 29.3265 14.8215C29.3219 14.8431 29.311 14.8629 29.2952 14.8783C29.2793 14.8937 29.2593 14.9041 29.2375 14.9082C29.2158 14.9122 29.1933 14.9097 29.173 14.9011C29.1527 14.8924 29.1354 14.8779 29.1233 14.8594C29.1112 14.8409 29.1048 14.8192 29.105 14.7971C29.105 14.7421 29.145 14.6931 29.199 14.6861ZM18.824 15.2481H18.844C18.905 15.2481 18.954 15.2981 18.955 15.3601C18.9547 15.3814 18.9484 15.4022 18.9367 15.42C18.925 15.4379 18.9085 15.452 18.889 15.4607C18.8696 15.4695 18.8481 15.4725 18.827 15.4695C18.8059 15.4664 18.7861 15.4574 18.7699 15.4435C18.7538 15.4296 18.7419 15.4113 18.7358 15.3909C18.7296 15.3705 18.7294 15.3487 18.7352 15.3282C18.741 15.3077 18.7525 15.2893 18.7684 15.2751C18.7844 15.2609 18.804 15.2515 18.825 15.2481H18.824ZM24.012 15.2481H24.03C24.092 15.2481 24.141 15.2981 24.142 15.3601C24.1417 15.3813 24.1354 15.4021 24.1237 15.4199C24.112 15.4377 24.0955 15.4518 24.0762 15.4605C24.0568 15.4693 24.0353 15.4723 24.0142 15.4693C23.9932 15.4663 23.9734 15.4574 23.9573 15.4436C23.9411 15.4298 23.9292 15.4116 23.923 15.3913C23.9167 15.3709 23.9164 15.3493 23.922 15.3288C23.9277 15.3082 23.939 15.2898 23.9548 15.2755C23.9706 15.2612 23.9901 15.2517 24.011 15.2481H24.012ZM29.199 15.2481H29.22C29.281 15.2481 29.33 15.2981 29.331 15.3601C29.3307 15.3814 29.3244 15.4022 29.3127 15.42C29.301 15.4379 29.2845 15.452 29.265 15.4607C29.2456 15.4695 29.2241 15.4725 29.203 15.4695C29.1819 15.4664 29.1621 15.4574 29.1459 15.4435C29.1298 15.4296 29.1179 15.4113 29.1118 15.3909C29.1056 15.3705 29.1054 15.3487 29.1112 15.3282C29.117 15.3077 29.1285 15.2893 29.1444 15.2751C29.1604 15.2609 29.18 15.2515 29.201 15.2481H29.199ZM18.846 15.8081C18.8608 15.8082 18.8754 15.8112 18.889 15.817C18.9026 15.8228 18.9149 15.8312 18.9253 15.8417C18.9356 15.8523 18.9438 15.8647 18.9493 15.8784C18.9549 15.8921 18.9577 15.9068 18.9575 15.9216C18.9574 15.9364 18.9544 15.951 18.9486 15.9646C18.9428 15.9782 18.9344 15.9905 18.9239 16.0008C18.9133 16.0112 18.9009 16.0194 18.8872 16.0249C18.8735 16.0304 18.8588 16.0332 18.844 16.0331C18.8293 16.0329 18.8148 16.0299 18.8012 16.0242C18.7877 16.0184 18.7754 16.0101 18.7651 15.9996C18.7548 15.9891 18.7467 15.9767 18.7412 15.963C18.7357 15.9494 18.7329 15.9348 18.733 15.9201C18.7332 15.9054 18.7362 15.8908 18.7419 15.8773C18.7477 15.8638 18.756 15.8515 18.7665 15.8412C18.777 15.8309 18.7894 15.8227 18.8031 15.8172C18.8167 15.8117 18.8313 15.8089 18.846 15.8091V15.8081ZM24.033 15.8081C24.0629 15.8082 24.0914 15.8202 24.1124 15.8414C24.1334 15.8626 24.1452 15.8912 24.145 15.9211C24.1449 15.9509 24.1329 15.9795 24.1117 16.0005C24.0905 16.0215 24.0619 16.0332 24.032 16.0331C24.0023 16.0329 23.9739 16.021 23.953 15.9999C23.9321 15.9788 23.9204 15.9503 23.9205 15.9206C23.9207 15.8909 23.9326 15.8624 23.9537 15.8415C23.9748 15.8206 24.0033 15.8089 24.033 15.8091V15.8081ZM29.221 15.8081C29.2358 15.8082 29.2504 15.8112 29.264 15.817C29.2776 15.8228 29.2899 15.8312 29.3003 15.8417C29.3106 15.8523 29.3188 15.8647 29.3243 15.8784C29.3299 15.8921 29.3327 15.9068 29.3325 15.9216C29.3324 15.9364 29.3294 15.951 29.3236 15.9646C29.3178 15.9782 29.3094 15.9905 29.2989 16.0008C29.2883 16.0112 29.2759 16.0194 29.2622 16.0249C29.2485 16.0304 29.2338 16.0332 29.219 16.0331C29.1893 16.0328 29.1609 16.0208 29.1401 15.9996C29.1193 15.9784 29.1078 15.9498 29.108 15.9201C29.1083 15.8904 29.1203 15.862 29.1415 15.8412C29.1627 15.8204 29.1913 15.8088 29.221 15.8091V15.8081ZM16.312 16.2761C16.7159 16.2761 17.1033 16.4365 17.3889 16.7222C17.6746 17.0078 17.835 17.3952 17.835 17.7991C17.835 18.203 17.6746 18.5904 17.3889 18.876C17.1033 19.1616 16.7159 19.3221 16.312 19.3221C15.9081 19.3221 15.5207 19.1616 15.2351 18.876C14.9495 18.5904 14.789 18.203 14.789 17.7991C14.789 17.3952 14.9495 17.0078 15.2351 16.7222C15.5207 16.4365 15.9081 16.2761 16.312 16.2761ZM21.406 16.2761C21.8099 16.2761 22.1973 16.4365 22.4829 16.7222C22.7686 17.0078 22.929 17.3952 22.929 17.7991C22.929 18.203 22.7686 18.5904 22.4829 18.876C22.1973 19.1616 21.8099 19.3221 21.406 19.3221C21.0021 19.3221 20.6147 19.1616 20.3291 18.876C20.0435 18.5904 19.883 18.203 19.883 17.7991C19.883 17.3952 20.0435 17.0078 20.3291 16.7222C20.6147 16.4365 21.0021 16.2761 21.406 16.2761ZM26.5 16.2761C26.9039 16.2761 27.2913 16.4365 27.5769 16.7222C27.8626 17.0078 28.023 17.3952 28.023 17.7991C28.023 18.203 27.8626 18.5904 27.5769 18.876C27.2913 19.1616 26.9039 19.3221 26.5 19.3221C26.0961 19.3221 25.7087 19.1616 25.4231 18.876C25.1375 18.5904 24.977 18.203 24.977 17.7991C24.977 17.3952 25.1375 17.0078 25.4231 16.7222C25.7087 16.4365 26.0961 16.2761 26.5 16.2761ZM31.719 16.2761C32.1229 16.2761 32.5103 16.4365 32.7959 16.7222C33.0816 17.0078 33.242 17.3952 33.242 17.7991C33.242 18.203 33.0816 18.5904 32.7959 18.876C32.5103 19.1616 32.1229 19.3221 31.719 19.3221C31.3151 19.3221 30.9277 19.1616 30.6421 18.876C30.3565 18.5904 30.196 18.203 30.196 17.7991C30.196 17.3952 30.3565 17.0078 30.6421 16.7222C30.9277 16.4365 31.3151 16.2761 31.719 16.2761ZM18.836 17.4961C18.8513 17.495 18.8667 17.497 18.8811 17.5021C18.8956 17.5072 18.9088 17.5152 18.9201 17.5256C18.9313 17.536 18.9403 17.5486 18.9465 17.5626C18.9527 17.5766 18.9559 17.5918 18.956 17.6071C18.9564 17.629 18.9503 17.6505 18.9385 17.6689C18.9268 17.6874 18.9099 17.702 18.8899 17.711C18.87 17.7199 18.8478 17.7228 18.8262 17.7194C18.8046 17.7159 18.7845 17.7061 18.7684 17.6914C18.7522 17.6766 18.7408 17.6574 18.7354 17.6362C18.7301 17.6149 18.7311 17.5926 18.7383 17.5719C18.7455 17.5513 18.7586 17.5332 18.7759 17.5199C18.7933 17.5066 18.8142 17.4986 18.836 17.4971V17.4961ZM24.023 17.4961C24.0383 17.495 24.0537 17.497 24.0681 17.5021C24.0826 17.5072 24.0958 17.5152 24.1071 17.5256C24.1183 17.536 24.1273 17.5486 24.1335 17.5626C24.1397 17.5766 24.1429 17.5918 24.143 17.6071C24.1434 17.629 24.1373 17.6505 24.1255 17.6689C24.1138 17.6874 24.0969 17.702 24.0769 17.711C24.057 17.7199 24.0348 17.7228 24.0132 17.7194C23.9916 17.7159 23.9715 17.7061 23.9554 17.6914C23.9392 17.6766 23.9278 17.6574 23.9224 17.6362C23.9171 17.6149 23.9181 17.5926 23.9253 17.5719C23.9325 17.5513 23.9456 17.5332 23.9629 17.5199C23.9803 17.5066 24.0012 17.4986 24.023 17.4971V17.4961ZM29.211 17.4961C29.2263 17.495 29.2417 17.497 29.2561 17.5021C29.2706 17.5072 29.2838 17.5152 29.2951 17.5256C29.3063 17.536 29.3153 17.5486 29.3215 17.5626C29.3277 17.5766 29.3309 17.5918 29.331 17.6071C29.3314 17.629 29.3253 17.6505 29.3135 17.6689C29.3018 17.6874 29.2849 17.702 29.2649 17.711C29.245 17.7199 29.2228 17.7228 29.2012 17.7194C29.1796 17.7159 29.1595 17.7061 29.1434 17.6914C29.1272 17.6766 29.1158 17.6574 29.1104 17.6362C29.1051 17.6149 29.1061 17.5926 29.1133 17.5719C29.1205 17.5513 29.1336 17.5332 29.1509 17.5199C29.1683 17.5066 29.1892 17.4986 29.211 17.4971V17.4961ZM18.836 18.6211C18.8513 18.62 18.8667 18.622 18.8811 18.6271C18.8956 18.6322 18.9088 18.6402 18.9201 18.6506C18.9313 18.661 18.9403 18.6736 18.9465 18.6876C18.9527 18.7016 18.9559 18.7168 18.956 18.7321C18.9564 18.754 18.9503 18.7755 18.9385 18.7939C18.9268 18.8124 18.9099 18.827 18.8899 18.836C18.87 18.8449 18.8478 18.8478 18.8262 18.8444C18.8046 18.8409 18.7845 18.8311 18.7684 18.8164C18.7522 18.8016 18.7408 18.7824 18.7354 18.7612C18.7301 18.7399 18.7311 18.7176 18.7383 18.6969C18.7455 18.6763 18.7586 18.6582 18.7759 18.6449C18.7933 18.6316 18.8142 18.6236 18.836 18.6221V18.6211ZM24.023 18.6211C24.0383 18.62 24.0537 18.622 24.0681 18.6271C24.0826 18.6322 24.0958 18.6402 24.1071 18.6506C24.1183 18.661 24.1273 18.6736 24.1335 18.6876C24.1397 18.7016 24.1429 18.7168 24.143 18.7321C24.1434 18.754 24.1373 18.7755 24.1255 18.7939C24.1138 18.8124 24.0969 18.827 24.0769 18.836C24.057 18.8449 24.0348 18.8478 24.0132 18.8444C23.9916 18.8409 23.9715 18.8311 23.9554 18.8164C23.9392 18.8016 23.9278 18.7824 23.9224 18.7612C23.9171 18.7399 23.9181 18.7176 23.9253 18.6969C23.9325 18.6763 23.9456 18.6582 23.9629 18.6449C23.9803 18.6316 24.0012 18.6236 24.023 18.6221V18.6211ZM29.211 18.6211C29.2263 18.62 29.2417 18.622 29.2561 18.6271C29.2706 18.6322 29.2838 18.6402 29.2951 18.6506C29.3063 18.661 29.3153 18.6736 29.3215 18.6876C29.3277 18.7016 29.3309 18.7168 29.331 18.7321C29.3314 18.754 29.3253 18.7755 29.3135 18.7939C29.3018 18.8124 29.2849 18.827 29.2649 18.836C29.245 18.8449 29.2228 18.8478 29.2012 18.8444C29.1796 18.8409 29.1595 18.8311 29.1434 18.8164C29.1272 18.8016 29.1158 18.7824 29.1104 18.7612C29.1051 18.7399 29.1061 18.7176 29.1133 18.6969C29.1205 18.6763 29.1336 18.6582 29.1509 18.6449C29.1683 18.6316 29.1892 18.6236 29.211 18.6221V18.6211ZM18.824 19.1841H18.844C18.8661 19.1845 18.8876 19.1914 18.9058 19.204C18.924 19.2166 18.938 19.2343 18.9461 19.2548C18.9543 19.2754 18.9562 19.2979 18.9515 19.3195C18.9469 19.3411 18.936 19.3609 18.9202 19.3763C18.9043 19.3917 18.8843 19.4021 18.8625 19.4062C18.8408 19.4102 18.8183 19.4077 18.798 19.3991C18.7777 19.3904 18.7604 19.3759 18.7483 19.3574C18.7362 19.3389 18.7298 19.3172 18.73 19.2951C18.73 19.2401 18.77 19.1911 18.824 19.1841ZM24.012 19.1841H24.03C24.0522 19.1843 24.0738 19.191 24.0921 19.2035C24.1104 19.216 24.1246 19.2336 24.1329 19.2541C24.1412 19.2747 24.1432 19.2972 24.1387 19.3189C24.1342 19.3406 24.1233 19.3604 24.1075 19.376C24.0917 19.3915 24.0717 19.402 24.0499 19.4061C24.0281 19.4102 24.0056 19.4078 23.9852 19.3992C23.9648 19.3905 23.9475 19.376 23.9353 19.3575C23.9232 19.3389 23.9168 19.3172 23.917 19.2951C23.917 19.2401 23.957 19.1911 24.011 19.1841H24.012ZM29.199 19.1841H29.22C29.2421 19.1845 29.2636 19.1914 29.2818 19.204C29.3 19.2166 29.314 19.2343 29.3221 19.2548C29.3303 19.2754 29.3322 19.2979 29.3275 19.3195C29.3229 19.3411 29.312 19.3609 29.2962 19.3763C29.2803 19.3917 29.2603 19.4021 29.2385 19.4062C29.2168 19.4102 29.1943 19.4077 29.174 19.3991C29.1537 19.3904 29.1364 19.3759 29.1243 19.3574C29.1122 19.3389 29.1058 19.3172 29.106 19.2951C29.106 19.2401 29.146 19.1911 29.2 19.1841H29.199ZM18.846 19.7441C18.8759 19.7443 18.9044 19.7565 18.9253 19.7777C18.9462 19.799 18.9578 19.8277 18.9575 19.8576C18.9573 19.8874 18.9451 19.9159 18.9239 19.9368C18.9026 19.9577 18.8739 19.9693 18.844 19.9691C18.8292 19.9689 18.8146 19.9659 18.801 19.9601C18.7874 19.9544 18.7751 19.946 18.7648 19.9354C18.7544 19.9249 18.7462 19.9124 18.7407 19.8987C18.7352 19.885 18.7324 19.8703 18.7325 19.8556C18.7327 19.8408 18.7357 19.8262 18.7415 19.8126C18.7472 19.799 18.7556 19.7867 18.7662 19.7763C18.7767 19.766 18.7892 19.7578 18.8029 19.7523C18.8166 19.7467 18.8312 19.7439 18.846 19.7441ZM24.033 19.7441C24.0478 19.7442 24.0624 19.7472 24.076 19.753C24.0896 19.7588 24.1019 19.7672 24.1123 19.7777C24.1226 19.7883 24.1308 19.8007 24.1363 19.8144C24.1419 19.8281 24.1447 19.8428 24.1445 19.8576C24.1444 19.8724 24.1414 19.887 24.1356 19.9006C24.1298 19.9142 24.1214 19.9265 24.1109 19.9368C24.1003 19.9472 24.0878 19.9554 24.0742 19.9609C24.0605 19.9664 24.0458 19.9692 24.031 19.9691C24.0012 19.9688 23.9727 19.9567 23.9518 19.9354C23.9309 19.9141 23.9193 19.8854 23.9195 19.8556C23.9198 19.8257 23.9319 19.7972 23.9532 19.7763C23.9745 19.7554 24.0032 19.7438 24.033 19.7441ZM29.221 19.7441C29.2509 19.7443 29.2794 19.7565 29.3003 19.7777C29.3212 19.799 29.3328 19.8277 29.3325 19.8576C29.3323 19.8874 29.3202 19.9159 29.2989 19.9368C29.2776 19.9577 29.2489 19.9693 29.219 19.9691C29.2042 19.9689 29.1896 19.9659 29.176 19.9601C29.1624 19.9544 29.1501 19.946 29.1398 19.9354C29.1189 19.9141 29.1073 19.8854 29.1075 19.8556C29.1078 19.8257 29.1199 19.7972 29.1412 19.7763C29.1625 19.7554 29.1912 19.7438 29.221 19.7441ZM18.836 20.3071H18.844C18.8734 20.3081 18.9011 20.3207 18.9213 20.342C18.9415 20.3633 18.9525 20.3917 18.952 20.421C18.9515 20.4504 18.9395 20.4783 18.9185 20.4989C18.8976 20.5195 18.8694 20.531 18.84 20.531C18.8107 20.531 18.7825 20.5195 18.7615 20.4989C18.7406 20.4783 18.7286 20.4504 18.728 20.421C18.7275 20.3917 18.7385 20.3633 18.7587 20.342C18.7789 20.3207 18.8067 20.3081 18.836 20.3071ZM24.023 20.3071H24.031C24.0604 20.3081 24.0881 20.3207 24.1083 20.342C24.1285 20.3633 24.1395 20.3917 24.139 20.421C24.1385 20.4504 24.1265 20.4783 24.1055 20.4989C24.0846 20.5195 24.0564 20.531 24.027 20.531C23.9977 20.531 23.9695 20.5195 23.9485 20.4989C23.9276 20.4783 23.9156 20.4504 23.915 20.421C23.9145 20.3917 23.9255 20.3633 23.9457 20.342C23.9659 20.3207 23.9937 20.3081 24.023 20.3071ZM29.211 20.3071H29.219C29.2484 20.3081 29.2761 20.3207 29.2963 20.342C29.3165 20.3633 29.3275 20.3917 29.327 20.421C29.3265 20.4504 29.3145 20.4783 29.2935 20.4989C29.2726 20.5195 29.2444 20.531 29.215 20.531C29.1857 20.531 29.1575 20.5195 29.1365 20.4989C29.1156 20.4783 29.1036 20.4504 29.103 20.421C29.1025 20.3917 29.1135 20.3633 29.1337 20.342C29.1539 20.3207 29.1817 20.3081 29.211 20.3071ZM16.313 20.4591C16.7171 20.4591 17.1046 20.6196 17.3903 20.9053C17.676 21.191 17.8365 21.5785 17.8365 21.9826C17.8365 22.3866 17.676 22.7741 17.3903 23.0599C17.1046 23.3456 16.7171 23.5061 16.313 23.5061C15.909 23.5061 15.5215 23.3456 15.2357 23.0599C14.95 22.7741 14.7895 22.3866 14.7895 21.9826C14.7895 21.5785 14.95 21.191 15.2357 20.9053C15.5215 20.6196 15.909 20.4591 16.313 20.4591ZM21.406 20.4591C21.8101 20.4591 22.1976 20.6196 22.4833 20.9053C22.769 21.191 22.9295 21.5785 22.9295 21.9826C22.9295 22.3866 22.769 22.7741 22.4833 23.0599C22.1976 23.3456 21.8101 23.5061 21.406 23.5061C21.002 23.5061 20.6145 23.3456 20.3287 23.0599C20.043 22.7741 19.8825 22.3866 19.8825 21.9826C19.8825 21.5785 20.043 21.191 20.3287 20.9053C20.6145 20.6196 21.002 20.4591 21.406 20.4591ZM26.5 20.4591C26.9041 20.4591 27.2916 20.6196 27.5773 20.9053C27.863 21.191 28.0235 21.5785 28.0235 21.9826C28.0235 22.3866 27.863 22.7741 27.5773 23.0599C27.2916 23.3456 26.9041 23.5061 26.5 23.5061C26.096 23.5061 25.7085 23.3456 25.4227 23.0599C25.137 22.7741 24.9765 22.3866 24.9765 21.9826C24.9765 21.5785 25.137 21.191 25.4227 20.9053C25.7085 20.6196 26.096 20.4591 26.5 20.4591ZM31.719 20.4591C32.1231 20.4591 32.5106 20.6196 32.7963 20.9053C33.082 21.191 33.2425 21.5785 33.2425 21.9826C33.2425 22.3866 33.082 22.7741 32.7963 23.0599C32.5106 23.3456 32.1231 23.5061 31.719 23.5061C31.315 23.5061 30.9275 23.3456 30.6417 23.0599C30.356 22.7741 30.1955 22.3866 30.1955 21.9826C30.1955 21.5785 30.356 21.191 30.6417 20.9053C30.9275 20.6196 31.315 20.4591 31.719 20.4591ZM18.836 20.8691H18.844C18.8736 20.8701 18.9016 20.8828 18.922 20.9043C18.9424 20.9257 18.9535 20.9544 18.953 20.984C18.9525 21.0136 18.9403 21.0419 18.9192 21.0626C18.8981 21.0834 18.8696 21.095 18.84 21.095C18.8104 21.095 18.782 21.0834 18.7608 21.0626C18.7397 21.0419 18.7276 21.0136 18.727 20.984C18.7265 20.9544 18.7376 20.9257 18.758 20.9043C18.7784 20.8828 18.8064 20.8701 18.836 20.8691ZM24.023 20.8691H24.031C24.0606 20.8701 24.0886 20.8828 24.109 20.9043C24.1294 20.9257 24.1405 20.9544 24.14 20.984C24.1395 21.0136 24.1273 21.0419 24.1062 21.0626C24.0851 21.0834 24.0566 21.095 24.027 21.095C23.9974 21.095 23.969 21.0834 23.9478 21.0626C23.9267 21.0419 23.9146 21.0136 23.914 20.984C23.9135 20.9544 23.9246 20.9257 23.945 20.9043C23.9654 20.8828 23.9934 20.8701 24.023 20.8691ZM29.211 20.8691H29.219C29.2486 20.8701 29.2766 20.8828 29.297 20.9043C29.3174 20.9257 29.3285 20.9544 29.328 20.984C29.3275 21.0136 29.3153 21.0419 29.2942 21.0626C29.2731 21.0834 29.2446 21.095 29.215 21.095C29.1854 21.095 29.157 21.0834 29.1358 21.0626C29.1147 21.0419 29.1026 21.0136 29.102 20.984C29.1015 20.9544 29.1126 20.9257 29.133 20.9043C29.1534 20.8828 29.1814 20.8701 29.211 20.8691ZM18.836 21.4321H18.844C18.8736 21.4331 18.9016 21.4458 18.922 21.4673C18.9424 21.4887 18.9535 21.5174 18.953 21.547C18.9525 21.5766 18.9403 21.6049 18.9192 21.6256C18.8981 21.6464 18.8696 21.658 18.84 21.658C18.8104 21.658 18.782 21.6464 18.7608 21.6256C18.7397 21.6049 18.7276 21.5766 18.727 21.547C18.7265 21.5174 18.7376 21.4887 18.758 21.4673C18.7784 21.4458 18.8064 21.4331 18.836 21.4321ZM24.023 21.4321H24.031C24.0606 21.4331 24.0886 21.4458 24.109 21.4673C24.1294 21.4887 24.1405 21.5174 24.14 21.547C24.1395 21.5766 24.1273 21.6049 24.1062 21.6256C24.0851 21.6464 24.0566 21.658 24.027 21.658C23.9974 21.658 23.969 21.6464 23.9478 21.6256C23.9267 21.6049 23.9146 21.5766 23.914 21.547C23.9135 21.5174 23.9246 21.4887 23.945 21.4673C23.9654 21.4458 23.9934 21.4331 24.023 21.4321ZM29.211 21.4321H29.219C29.2486 21.4331 29.2766 21.4458 29.297 21.4673C29.3174 21.4887 29.3285 21.5174 29.328 21.547C29.3275 21.5766 29.3153 21.6049 29.2942 21.6256C29.2731 21.6464 29.2446 21.658 29.215 21.658C29.1854 21.658 29.157 21.6464 29.1358 21.6256C29.1147 21.6049 29.1026 21.5766 29.102 21.547C29.1015 21.5174 29.1126 21.4887 29.133 21.4673C29.1534 21.4458 29.1814 21.4331 29.211 21.4321ZM18.836 21.9941C18.8513 21.993 18.8667 21.995 18.8811 22.0001C18.8956 22.0052 18.9088 22.0132 18.9201 22.0236C18.9313 22.034 18.9403 22.0466 18.9465 22.0606C18.9527 22.0746 18.9559 22.0898 18.956 22.1051C18.9564 22.127 18.9503 22.1485 18.9385 22.1669C18.9268 22.1854 18.9099 22.2 18.8899 22.209C18.87 22.2179 18.8478 22.2208 18.8262 22.2174C18.8046 22.2139 18.7845 22.2041 18.7684 22.1894C18.7522 22.1746 18.7408 22.1554 18.7354 22.1342C18.7301 22.1129 18.7311 22.0906 18.7383 22.0699C18.7455 22.0493 18.7586 22.0312 18.7759 22.0179C18.7933 22.0046 18.8142 21.9966 18.836 21.9951V21.9941ZM24.023 21.9941C24.0383 21.993 24.0537 21.995 24.0681 22.0001C24.0826 22.0052 24.0958 22.0132 24.1071 22.0236C24.1183 22.034 24.1273 22.0466 24.1335 22.0606C24.1397 22.0746 24.1429 22.0898 24.143 22.1051C24.1434 22.127 24.1373 22.1485 24.1255 22.1669C24.1138 22.1854 24.0969 22.2 24.0769 22.209C24.057 22.2179 24.0348 22.2208 24.0132 22.2174C23.9916 22.2139 23.9715 22.2041 23.9554 22.1894C23.9392 22.1746 23.9278 22.1554 23.9224 22.1342C23.9171 22.1129 23.9181 22.0906 23.9253 22.0699C23.9325 22.0493 23.9456 22.0312 23.9629 22.0179C23.9803 22.0046 24.0012 21.9966 24.023 21.9951V21.9941ZM29.211 21.9941C29.2263 21.993 29.2417 21.995 29.2561 22.0001C29.2706 22.0052 29.2838 22.0132 29.2951 22.0236C29.3063 22.034 29.3153 22.0466 29.3215 22.0606C29.3277 22.0746 29.3309 22.0898 29.331 22.1051C29.3314 22.127 29.3253 22.1485 29.3135 22.1669C29.3018 22.1854 29.2849 22.2 29.2649 22.209C29.245 22.2179 29.2228 22.2208 29.2012 22.2174C29.1796 22.2139 29.1595 22.2041 29.1434 22.1894C29.1272 22.1746 29.1158 22.1554 29.1104 22.1342C29.1051 22.1129 29.1061 22.0906 29.1133 22.0699C29.1205 22.0493 29.1336 22.0312 29.1509 22.0179C29.1683 22.0046 29.1892 21.9966 29.211 21.9951V21.9941ZM18.836 23.1191H18.844C18.872 23.1217 18.898 23.1347 18.917 23.1555C18.9359 23.1763 18.9464 23.2034 18.9464 23.2316C18.9464 23.2597 18.9359 23.2868 18.917 23.3076C18.898 23.3284 18.872 23.3414 18.844 23.3441C18.8142 23.3451 18.7852 23.3343 18.7633 23.314C18.7415 23.2936 18.7286 23.2654 18.7275 23.2356C18.7265 23.2057 18.7373 23.1767 18.7576 23.1549C18.778 23.133 18.8062 23.1201 18.836 23.1191ZM24.023 23.1191H24.031C24.059 23.1217 24.085 23.1347 24.104 23.1555C24.1229 23.1763 24.1334 23.2034 24.1334 23.2316C24.1334 23.2597 24.1229 23.2868 24.104 23.3076C24.085 23.3284 24.059 23.3414 24.031 23.3441C24.0012 23.3451 23.9721 23.3343 23.9503 23.314C23.9285 23.2936 23.9156 23.2654 23.9145 23.2356C23.9135 23.2057 23.9243 23.1767 23.9446 23.1549C23.965 23.133 23.9932 23.1201 24.023 23.1191ZM29.211 23.1191H29.219C29.247 23.1217 29.273 23.1347 29.292 23.1555C29.3109 23.1763 29.3214 23.2034 29.3214 23.2316C29.3214 23.2597 29.3109 23.2868 29.292 23.3076C29.273 23.3284 29.247 23.3414 29.219 23.3441C29.1892 23.3451 29.1602 23.3343 29.1383 23.314C29.1165 23.2936 29.1036 23.2654 29.1025 23.2356C29.1015 23.2057 29.1123 23.1767 29.1326 23.1549C29.153 23.133 29.1812 23.1201 29.211 23.1191ZM18.824 23.6821H18.844C18.8712 23.6857 18.896 23.6991 18.9141 23.7197C18.9321 23.7403 18.942 23.7667 18.942 23.7941C18.942 23.8214 18.9321 23.8479 18.9141 23.8685C18.896 23.8891 18.8712 23.9024 18.844 23.9061C18.8291 23.9063 18.8142 23.9036 18.8003 23.898C18.7864 23.8925 18.7738 23.8842 18.7632 23.8736C18.7525 23.8631 18.7441 23.8505 18.7384 23.8367C18.7327 23.8229 18.7299 23.808 18.73 23.7931C18.73 23.7381 18.77 23.6891 18.824 23.6821ZM24.012 23.6821H24.03C24.0572 23.6857 24.082 23.6991 24.1001 23.7197C24.1181 23.7403 24.128 23.7667 24.128 23.7941C24.128 23.8214 24.1181 23.8479 24.1001 23.8685C24.082 23.8891 24.0572 23.9024 24.03 23.9061C24.0151 23.9062 24.0004 23.9034 23.9866 23.8977C23.9729 23.8921 23.9603 23.8838 23.9498 23.8733C23.9393 23.8628 23.931 23.8502 23.9254 23.8365C23.9197 23.8227 23.9169 23.808 23.917 23.7931C23.917 23.7381 23.957 23.6891 24.011 23.6821H24.012ZM29.199 23.6821H29.22C29.2472 23.6857 29.272 23.6991 29.2901 23.7197C29.3081 23.7403 29.318 23.7667 29.318 23.7941C29.318 23.8214 29.3081 23.8479 29.2901 23.8685C29.272 23.8891 29.2472 23.9024 29.22 23.9061C29.2051 23.9063 29.1902 23.9036 29.1763 23.898C29.1624 23.8925 29.1498 23.8842 29.1392 23.8736C29.1285 23.8631 29.1201 23.8505 29.1144 23.8367C29.1087 23.8229 29.1059 23.808 29.106 23.7931C29.106 23.7381 29.146 23.6891 29.2 23.6821H29.199ZM18.824 24.2441H18.844C18.905 24.2451 18.954 24.2941 18.955 24.3561C18.9547 24.3774 18.9484 24.3982 18.9367 24.416C18.925 24.4339 18.9085 24.448 18.889 24.4567C18.8696 24.4655 18.8481 24.4685 18.827 24.4655C18.8059 24.4624 18.7861 24.4534 18.7699 24.4395C18.7538 24.4256 18.7419 24.4073 18.7358 24.3869C18.7296 24.3665 18.7294 24.3447 18.7352 24.3242C18.741 24.3037 18.7525 24.2853 18.7684 24.2711C18.7844 24.2569 18.804 24.2475 18.825 24.2441H18.824ZM24.012 24.2441H24.03C24.092 24.2451 24.141 24.2941 24.142 24.3561C24.1417 24.3773 24.1354 24.3981 24.1237 24.4159C24.112 24.4337 24.0955 24.4478 24.0762 24.4565C24.0568 24.4653 24.0353 24.4683 24.0142 24.4653C23.9932 24.4623 23.9734 24.4534 23.9573 24.4396C23.9411 24.4258 23.9292 24.4076 23.923 24.3873C23.9167 24.3669 23.9164 24.3453 23.922 24.3248C23.9277 24.3042 23.939 24.2858 23.9548 24.2715C23.9706 24.2572 23.9901 24.2477 24.011 24.2441H24.012ZM29.199 24.2441H29.22C29.281 24.2451 29.33 24.2941 29.331 24.3561C29.3307 24.3774 29.3244 24.3982 29.3127 24.416C29.301 24.4339 29.2845 24.448 29.265 24.4567C29.2456 24.4655 29.2241 24.4685 29.203 24.4655C29.1819 24.4624 29.1621 24.4534 29.1459 24.4395C29.1298 24.4256 29.1179 24.4073 29.1118 24.3869C29.1056 24.3665 29.1054 24.3447 29.1112 24.3242C29.117 24.3037 29.1285 24.2853 29.1444 24.2711C29.1604 24.2569 29.18 24.2475 29.201 24.2441H29.199ZM16.312 24.6431C16.7159 24.6431 17.1033 24.8035 17.3889 25.0892C17.6746 25.3748 17.835 25.7622 17.835 26.1661C17.835 26.57 17.6746 26.9574 17.3889 27.243C17.1033 27.5286 16.7159 27.6891 16.312 27.6891C15.9081 27.6891 15.5207 27.5286 15.2351 27.243C14.9495 26.9574 14.789 26.57 14.789 26.1661C14.789 25.7622 14.9495 25.3748 15.2351 25.0892C15.5207 24.8035 15.9081 24.6431 16.312 24.6431ZM21.406 24.6431C21.8101 24.6431 22.1976 24.8036 22.4833 25.0893C22.769 25.375 22.9295 25.7625 22.9295 26.1666C22.9295 26.5706 22.769 26.9581 22.4833 27.2439C22.1976 27.5296 21.8101 27.6901 21.406 27.6901C21.002 27.6901 20.6145 27.5296 20.3287 27.2439C20.043 26.9581 19.8825 26.5706 19.8825 26.1666C19.8825 25.7625 20.043 25.375 20.3287 25.0893C20.6145 24.8036 21.002 24.6431 21.406 24.6431ZM26.5 24.6431C26.9039 24.6431 27.2913 24.8035 27.5769 25.0892C27.8626 25.3748 28.023 25.7622 28.023 26.1661C28.023 26.57 27.8626 26.9574 27.5769 27.243C27.2913 27.5286 26.9039 27.6891 26.5 27.6891C26.0961 27.6891 25.7087 27.5286 25.4231 27.243C25.1375 26.9574 24.977 26.57 24.977 26.1661C24.977 25.7622 25.1375 25.3748 25.4231 25.0892C25.7087 24.8035 26.0961 24.6431 26.5 24.6431ZM31.719 24.6431C32.1231 24.6431 32.5106 24.8036 32.7963 25.0893C33.082 25.375 33.2425 25.7625 33.2425 26.1666C33.2425 26.5706 33.082 26.9581 32.7963 27.2439C32.5106 27.5296 32.1231 27.6901 31.719 27.6901C31.315 27.6901 30.9275 27.5296 30.6417 27.2439C30.356 26.9581 30.1955 26.5706 30.1955 26.1666C30.1955 25.7625 30.356 25.375 30.6417 25.0893C30.9275 24.8036 31.315 24.6431 31.719 24.6431ZM18.824 28.1801H18.844C18.905 28.1801 18.954 28.2301 18.955 28.2911C18.955 28.3208 18.9432 28.3493 18.9222 28.3703C18.9012 28.3913 18.8727 28.4031 18.843 28.4031C18.8133 28.4031 18.7848 28.3913 18.7638 28.3703C18.7428 28.3493 18.731 28.3208 18.731 28.2911C18.731 28.2361 18.77 28.1871 18.824 28.1801ZM24.012 28.1801H24.03C24.092 28.1801 24.141 28.2301 24.142 28.2911C24.142 28.3209 24.1302 28.3495 24.1091 28.3706C24.088 28.3917 24.0594 28.4036 24.0295 28.4036C23.9997 28.4036 23.9711 28.3917 23.95 28.3706C23.9289 28.3495 23.917 28.3209 23.917 28.2911C23.917 28.2361 23.957 28.1871 24.011 28.1801H24.012ZM29.199 28.1801H29.22C29.281 28.1801 29.33 28.2301 29.331 28.2911C29.331 28.3208 29.3192 28.3493 29.2982 28.3703C29.2772 28.3913 29.2487 28.4031 29.219 28.4031C29.1893 28.4031 29.1608 28.3913 29.1398 28.3703C29.1188 28.3493 29.107 28.3208 29.107 28.2911C29.107 28.2361 29.146 28.1871 29.2 28.1801H29.199ZM18.846 28.7401C18.8608 28.7402 18.8754 28.7432 18.889 28.749C18.9026 28.7548 18.9149 28.7632 18.9253 28.7737C18.9356 28.7843 18.9438 28.7967 18.9493 28.8104C18.9549 28.8241 18.9577 28.8388 18.9575 28.8536C18.9574 28.8684 18.9544 28.883 18.9486 28.8966C18.9428 28.9102 18.9344 28.9225 18.9239 28.9328C18.9133 28.9432 18.9009 28.9514 18.8872 28.9569C18.8735 28.9624 18.8588 28.9652 18.844 28.9651C18.8142 28.9648 18.7857 28.9527 18.7648 28.9314C18.7439 28.9101 18.7323 28.8814 18.7325 28.8516C18.7328 28.8217 18.7449 28.7932 18.7662 28.7723C18.7875 28.7514 18.8162 28.7398 18.846 28.7401ZM24.033 28.7401C24.0478 28.7402 24.0624 28.7432 24.076 28.749C24.0896 28.7548 24.1019 28.7632 24.1123 28.7737C24.1226 28.7843 24.1308 28.7967 24.1363 28.8104C24.1419 28.8241 24.1447 28.8388 24.1445 28.8536C24.1444 28.8684 24.1414 28.883 24.1356 28.8966C24.1298 28.9102 24.1214 28.9225 24.1109 28.9328C24.1003 28.9432 24.0878 28.9514 24.0742 28.9569C24.0605 28.9624 24.0458 28.9652 24.031 28.9651C24.0012 28.9648 23.9727 28.9527 23.9518 28.9314C23.9309 28.9101 23.9193 28.8814 23.9195 28.8516C23.9198 28.8217 23.9319 28.7932 23.9532 28.7723C23.9745 28.7514 24.0032 28.7398 24.033 28.7401ZM29.221 28.7401C29.2358 28.7402 29.2504 28.7432 29.264 28.749C29.2776 28.7548 29.2899 28.7632 29.3003 28.7737C29.3106 28.7843 29.3188 28.7967 29.3243 28.8104C29.3299 28.8241 29.3327 28.8388 29.3325 28.8536C29.3324 28.8684 29.3294 28.883 29.3236 28.8966C29.3178 28.9102 29.3094 28.9225 29.2989 28.9328C29.2883 28.9432 29.2759 28.9514 29.2622 28.9569C29.2485 28.9624 29.2338 28.9652 29.219 28.9651C29.1892 28.9648 29.1607 28.9527 29.1398 28.9314C29.1189 28.9101 29.1073 28.8814 29.1075 28.8516C29.1078 28.8217 29.1199 28.7932 29.1412 28.7723C29.1625 28.7514 29.1912 28.7398 29.221 28.7401ZM16.312 28.8261C16.7161 28.8261 17.1036 28.9866 17.3893 29.2723C17.675 29.558 17.8355 29.9455 17.8355 30.3496C17.8355 30.7536 17.675 31.1411 17.3893 31.4269C17.1036 31.7126 16.7161 31.8731 16.312 31.8731C15.908 31.8731 15.5205 31.7126 15.2347 31.4269C14.949 31.1411 14.7885 30.7536 14.7885 30.3496C14.7885 29.9455 14.949 29.558 15.2347 29.2723C15.5205 28.9866 15.908 28.8261 16.312 28.8261ZM21.406 28.8261C21.8101 28.8261 22.1976 28.9866 22.4833 29.2723C22.769 29.558 22.9295 29.9455 22.9295 30.3496C22.9295 30.7536 22.769 31.1411 22.4833 31.4269C22.1976 31.7126 21.8101 31.8731 21.406 31.8731C21.002 31.8731 20.6145 31.7126 20.3287 31.4269C20.043 31.1411 19.8825 30.7536 19.8825 30.3496C19.8825 29.9455 20.043 29.558 20.3287 29.2723C20.6145 28.9866 21.002 28.8261 21.406 28.8261ZM26.5 28.8261C26.9041 28.8261 27.2916 28.9866 27.5773 29.2723C27.863 29.558 28.0235 29.9455 28.0235 30.3496C28.0235 30.7536 27.863 31.1411 27.5773 31.4269C27.2916 31.7126 26.9041 31.8731 26.5 31.8731C26.096 31.8731 25.7085 31.7126 25.4227 31.4269C25.137 31.1411 24.9765 30.7536 24.9765 30.3496C24.9765 29.9455 25.137 29.558 25.4227 29.2723C25.7085 28.9866 26.096 28.8261 26.5 28.8261ZM31.719 28.8261C32.1231 28.8261 32.5106 28.9866 32.7963 29.2723C33.082 29.558 33.2425 29.9455 33.2425 30.3496C33.2425 30.7536 33.082 31.1411 32.7963 31.4269C32.5106 31.7126 32.1231 31.8731 31.719 31.8731C31.315 31.8731 30.9275 31.7126 30.6417 31.4269C30.356 31.1411 30.1955 30.7536 30.1955 30.3496C30.1955 29.9455 30.356 29.558 30.6417 29.2723C30.9275 28.9866 31.315 28.8261 31.719 28.8261ZM18.836 29.3031H18.844C18.8736 29.3041 18.9016 29.3168 18.922 29.3383C18.9424 29.3597 18.9535 29.3884 18.953 29.418C18.9525 29.4476 18.9403 29.4759 18.9192 29.4966C18.8981 29.5174 18.8696 29.529 18.84 29.529C18.8104 29.529 18.782 29.5174 18.7608 29.4966C18.7397 29.4759 18.7276 29.4476 18.727 29.418C18.7265 29.3884 18.7376 29.3597 18.758 29.3383C18.7784 29.3168 18.8064 29.3041 18.836 29.3031ZM24.023 29.3031H24.031C24.0606 29.3041 24.0886 29.3168 24.109 29.3383C24.1294 29.3597 24.1405 29.3884 24.14 29.418C24.1395 29.4476 24.1273 29.4759 24.1062 29.4966C24.0851 29.5174 24.0566 29.529 24.027 29.529C23.9974 29.529 23.969 29.5174 23.9478 29.4966C23.9267 29.4759 23.9146 29.4476 23.914 29.418C23.9135 29.3884 23.9246 29.3597 23.945 29.3383C23.9654 29.3168 23.9934 29.3041 24.023 29.3031ZM29.211 29.3031H29.219C29.2486 29.3041 29.2766 29.3168 29.297 29.3383C29.3174 29.3597 29.3285 29.3884 29.328 29.418C29.3275 29.4476 29.3153 29.4759 29.2942 29.4966C29.2731 29.5174 29.2446 29.529 29.215 29.529C29.1854 29.529 29.157 29.5174 29.1358 29.4966C29.1147 29.4759 29.1026 29.4476 29.102 29.418C29.1015 29.3884 29.1126 29.3597 29.133 29.3383C29.1534 29.3168 29.1814 29.3041 29.211 29.3031ZM18.836 29.8651H18.844C18.8736 29.8661 18.9016 29.8788 18.922 29.9003C18.9424 29.9217 18.9535 29.9504 18.953 29.98C18.9525 30.0096 18.9403 30.0379 18.9192 30.0586C18.8981 30.0794 18.8696 30.091 18.84 30.091C18.8104 30.091 18.782 30.0794 18.7608 30.0586C18.7397 30.0379 18.7276 30.0096 18.727 29.98C18.7265 29.9504 18.7376 29.9217 18.758 29.9003C18.7784 29.8788 18.8064 29.8661 18.836 29.8651ZM24.023 29.8651H24.031C24.0606 29.8661 24.0886 29.8788 24.109 29.9003C24.1294 29.9217 24.1405 29.9504 24.14 29.98C24.1395 30.0096 24.1273 30.0379 24.1062 30.0586C24.0851 30.0794 24.0566 30.091 24.027 30.091C23.9974 30.091 23.969 30.0794 23.9478 30.0586C23.9267 30.0379 23.9146 30.0096 23.914 29.98C23.9135 29.9504 23.9246 29.9217 23.945 29.9003C23.9654 29.8788 23.9934 29.8661 24.023 29.8651ZM29.211 29.8651H29.219C29.2486 29.8661 29.2766 29.8788 29.297 29.9003C29.3174 29.9217 29.3285 29.9504 29.328 29.98C29.3275 30.0096 29.3153 30.0379 29.2942 30.0586C29.2731 30.0794 29.2446 30.091 29.215 30.091C29.1854 30.091 29.157 30.0794 29.1358 30.0586C29.1147 30.0379 29.1026 30.0096 29.102 29.98C29.1015 29.9504 29.1126 29.9217 29.133 29.9003C29.1534 29.8788 29.1814 29.8661 29.211 29.8651ZM18.836 30.9881C18.8514 30.9873 18.8668 30.9896 18.8813 30.9949C18.8957 31.0002 18.909 31.0084 18.9202 31.0189C18.9314 31.0295 18.9404 31.0422 18.9465 31.0563C18.9527 31.0704 18.9559 31.0857 18.956 31.1011C18.956 31.131 18.9441 31.1598 18.9229 31.181C18.9017 31.2022 18.873 31.2141 18.843 31.2141C18.8131 31.2141 18.7843 31.2022 18.7631 31.181C18.7419 31.1598 18.73 31.131 18.73 31.1011C18.73 31.0421 18.777 30.9921 18.836 30.9881ZM24.023 30.9881C24.0384 30.9873 24.0538 30.9896 24.0683 30.9949C24.0827 31.0002 24.096 31.0084 24.1072 31.0189C24.1184 31.0295 24.1274 31.0422 24.1335 31.0563C24.1397 31.0704 24.1429 31.0857 24.143 31.1011C24.143 31.1309 24.1312 31.1595 24.1101 31.1806C24.089 31.2017 24.0604 31.2136 24.0305 31.2136C24.0007 31.2136 23.9721 31.2017 23.951 31.1806C23.9299 31.1595 23.918 31.1309 23.918 31.1011C23.918 31.0421 23.965 30.9921 24.023 30.9881ZM29.211 30.9881C29.2264 30.9873 29.2418 30.9896 29.2563 30.9949C29.2707 31.0002 29.284 31.0084 29.2952 31.0189C29.3064 31.0295 29.3154 31.0422 29.3215 31.0563C29.3277 31.0704 29.3309 31.0857 29.331 31.1011C29.331 31.131 29.3191 31.1598 29.2979 31.181C29.2767 31.2022 29.248 31.2141 29.218 31.2141C29.1881 31.2141 29.1593 31.2022 29.1381 31.181C29.1169 31.1598 29.105 31.131 29.105 31.1011C29.105 31.0421 29.152 30.9921 29.211 30.9881ZM18.824 32.1131H18.844C18.8661 32.1135 18.8875 32.1204 18.9057 32.1329C18.9238 32.1455 18.9379 32.1631 18.9461 32.1836C18.9542 32.2041 18.9562 32.2265 18.9516 32.2481C18.9471 32.2697 18.9363 32.2895 18.9205 32.305C18.9048 32.3204 18.8848 32.3309 18.8631 32.335C18.8415 32.3392 18.8191 32.3369 18.7987 32.3283C18.7784 32.3198 18.761 32.3055 18.7488 32.2871C18.7365 32.2687 18.73 32.2471 18.73 32.2251C18.73 32.1701 18.77 32.1211 18.824 32.1131ZM24.012 32.1131H24.03C24.0521 32.1133 24.0737 32.12 24.092 32.1324C24.1103 32.1449 24.1245 32.1624 24.1328 32.1829C24.1411 32.2034 24.1432 32.2259 24.1387 32.2475C24.1343 32.2692 24.1236 32.2891 24.1079 32.3046C24.0922 32.3202 24.0722 32.3307 24.0505 32.335C24.0288 32.3392 24.0063 32.337 23.9859 32.3285C23.9655 32.3199 23.9481 32.3056 23.9358 32.2872C23.9236 32.2688 23.917 32.2472 23.917 32.2251C23.917 32.1701 23.957 32.1211 24.011 32.1131H24.012ZM29.199 32.1131H29.22C29.2421 32.1135 29.2635 32.1204 29.2817 32.1329C29.2998 32.1455 29.3139 32.1631 29.3221 32.1836C29.3302 32.2041 29.3322 32.2265 29.3276 32.2481C29.3231 32.2697 29.3123 32.2895 29.2965 32.305C29.2808 32.3204 29.2608 32.3309 29.2391 32.335C29.2175 32.3392 29.1951 32.3369 29.1747 32.3283C29.1544 32.3198 29.137 32.3055 29.1248 32.2871C29.1125 32.2687 29.106 32.2471 29.106 32.2251C29.106 32.1701 29.146 32.1211 29.2 32.1131H29.199ZM18.824 32.6761H18.844C18.905 32.6761 18.954 32.7261 18.955 32.7871C18.9549 32.8084 18.9487 32.8293 18.9372 32.8473C18.9256 32.8652 18.9091 32.8795 18.8897 32.8884C18.8703 32.8973 18.8487 32.9005 18.8276 32.8975C18.8064 32.8946 18.7865 32.8857 18.7703 32.8718C18.7541 32.8579 18.7421 32.8397 18.7359 32.8193C18.7297 32.7988 18.7294 32.777 18.7352 32.7565C18.7409 32.7359 18.7524 32.7174 18.7684 32.7031C18.7843 32.6889 18.8039 32.6795 18.825 32.6761H18.824ZM24.012 32.6761H24.03C24.092 32.6761 24.141 32.7261 24.142 32.7871C24.142 32.8491 24.092 32.8981 24.03 32.8981C24.0022 32.8978 23.9755 32.8872 23.9551 32.8684C23.9347 32.8496 23.922 32.8238 23.9195 32.7961C23.917 32.7685 23.9249 32.7408 23.9416 32.7187C23.9584 32.6965 23.9827 32.6813 24.01 32.6761H24.012ZM29.199 32.6761H29.22C29.281 32.6761 29.33 32.7261 29.331 32.7871C29.3309 32.8084 29.3247 32.8293 29.3132 32.8473C29.3016 32.8652 29.2851 32.8795 29.2657 32.8884C29.2463 32.8973 29.2247 32.9005 29.2036 32.8975C29.1824 32.8946 29.1625 32.8857 29.1463 32.8718C29.1301 32.8579 29.1181 32.8397 29.1119 32.8193C29.1057 32.7988 29.1054 32.777 29.1112 32.7565C29.1169 32.7359 29.1284 32.7174 29.1444 32.7031C29.1603 32.6889 29.1799 32.6795 29.201 32.6761H29.199ZM16.312 33.0121C16.7159 33.0121 17.1033 33.1725 17.3889 33.4582C17.6746 33.7438 17.835 34.1312 17.835 34.5351C17.835 34.939 17.6746 35.3264 17.3889 35.612C17.1033 35.8976 16.7159 36.0581 16.312 36.0581C15.9081 36.0581 15.5207 35.8976 15.2351 35.612C14.9495 35.3264 14.789 34.939 14.789 34.5351C14.789 34.1312 14.9495 33.7438 15.2351 33.4582C15.5207 33.1725 15.9081 33.0121 16.312 33.0121ZM21.406 33.0121C21.8101 33.0121 22.1976 33.1726 22.4833 33.4583C22.769 33.744 22.9295 34.1315 22.9295 34.5356C22.9295 34.9396 22.769 35.3271 22.4833 35.6129C22.1976 35.8986 21.8101 36.0591 21.406 36.0591C21.002 36.0591 20.6145 35.8986 20.3287 35.6129C20.043 35.3271 19.8825 34.9396 19.8825 34.5356C19.8825 34.1315 20.043 33.744 20.3287 33.4583C20.6145 33.1726 21.002 33.0121 21.406 33.0121ZM26.5 33.0121C26.9039 33.0121 27.2913 33.1725 27.5769 33.4582C27.8626 33.7438 28.023 34.1312 28.023 34.5351C28.023 34.939 27.8626 35.3264 27.5769 35.612C27.2913 35.8976 26.9039 36.0581 26.5 36.0581C26.0961 36.0581 25.7087 35.8976 25.4231 35.612C25.1375 35.3264 24.977 34.939 24.977 34.5351C24.977 34.1312 25.1375 33.7438 25.4231 33.4582C25.7087 33.1725 26.0961 33.0121 26.5 33.0121ZM31.719 33.0121C32.1231 33.0121 32.5106 33.1726 32.7963 33.4583C33.082 33.744 33.2425 34.1315 33.2425 34.5356C33.2425 34.9396 33.082 35.3271 32.7963 35.6129C32.5106 35.8986 32.1231 36.0591 31.719 36.0591C31.315 36.0591 30.9275 35.8986 30.6417 35.6129C30.356 35.3271 30.1955 34.9396 30.1955 34.5356C30.1955 34.1315 30.356 33.744 30.6417 33.4583C30.9275 33.1726 31.315 33.0121 31.719 33.0121ZM18.846 33.2361C18.908 33.2371 18.958 33.2901 18.957 33.3521C18.9569 33.3665 18.9539 33.3808 18.9483 33.3941C18.9426 33.4074 18.9344 33.4194 18.9241 33.4296C18.9138 33.4397 18.9016 33.4477 18.8882 33.4531C18.8748 33.4585 18.8605 33.4612 18.846 33.4611C18.8312 33.4616 18.8165 33.4592 18.8027 33.4539C18.7889 33.4486 18.7763 33.4406 18.7656 33.4303C18.755 33.42 18.7465 33.4077 18.7408 33.3941C18.735 33.3805 18.732 33.3659 18.732 33.3511C18.732 33.2891 18.783 33.2361 18.846 33.2361ZM24.033 33.2361C24.096 33.2371 24.145 33.2901 24.144 33.3521C24.1438 33.3811 24.1321 33.4088 24.1115 33.4292C24.0909 33.4496 24.063 33.4611 24.034 33.4611C24.0192 33.4616 24.0045 33.4592 23.9907 33.4539C23.9769 33.4486 23.9643 33.4406 23.9536 33.4303C23.943 33.42 23.9345 33.4077 23.9288 33.3941C23.923 33.3805 23.92 33.3659 23.92 33.3511C23.92 33.2891 23.97 33.2361 24.033 33.2361ZM29.221 33.2361C29.283 33.2371 29.333 33.2901 29.332 33.3521C29.3319 33.3665 29.3289 33.3808 29.3233 33.3941C29.3176 33.4074 29.3094 33.4194 29.2991 33.4296C29.2888 33.4397 29.2766 33.4477 29.2632 33.4531C29.2498 33.4585 29.2355 33.4612 29.221 33.4611C29.2062 33.4616 29.1915 33.4592 29.1777 33.4539C29.1639 33.4486 29.1513 33.4406 29.1406 33.4303C29.13 33.42 29.1215 33.4077 29.1158 33.3941C29.11 33.3805 29.107 33.3659 29.107 33.3511C29.107 33.2891 29.158 33.2361 29.221 33.2361ZM18.836 33.7991H18.844C18.8736 33.8001 18.9016 33.8128 18.922 33.8343C18.9424 33.8557 18.9535 33.8844 18.953 33.914C18.9525 33.9436 18.9403 33.9719 18.9192 33.9926C18.8981 34.0134 18.8696 34.025 18.84 34.025C18.8104 34.025 18.782 34.0134 18.7608 33.9926C18.7397 33.9719 18.7276 33.9436 18.727 33.914C18.7265 33.8844 18.7376 33.8557 18.758 33.8343C18.7784 33.8128 18.8064 33.8001 18.836 33.7991ZM24.023 33.7991H24.031C24.0606 33.8001 24.0886 33.8128 24.109 33.8343C24.1294 33.8557 24.1405 33.8844 24.14 33.914C24.1395 33.9436 24.1273 33.9719 24.1062 33.9926C24.0851 34.0134 24.0566 34.025 24.027 34.025C23.9974 34.025 23.969 34.0134 23.9478 33.9926C23.9267 33.9719 23.9146 33.9436 23.914 33.914C23.9135 33.8844 23.9246 33.8557 23.945 33.8343C23.9654 33.8128 23.9934 33.8001 24.023 33.7991ZM29.211 33.7991H29.219C29.2486 33.8001 29.2766 33.8128 29.297 33.8343C29.3174 33.8557 29.3285 33.8844 29.328 33.914C29.3275 33.9436 29.3153 33.9719 29.2942 33.9926C29.2731 34.0134 29.2446 34.025 29.215 34.025C29.1854 34.025 29.157 34.0134 29.1358 33.9926C29.1147 33.9719 29.1026 33.9436 29.102 33.914C29.1015 33.8844 29.1126 33.8557 29.133 33.8343C29.1534 33.8128 29.1814 33.8001 29.211 33.7991ZM18.836 35.4861C18.8513 35.4851 18.8666 35.4873 18.881 35.4924C18.8953 35.4975 18.9086 35.5055 18.9198 35.5159C18.931 35.5263 18.94 35.5388 18.9462 35.5528C18.9524 35.5667 18.9558 35.5818 18.956 35.5971C18.9564 35.619 18.9503 35.6405 18.9385 35.6589C18.9268 35.6774 18.9099 35.692 18.8899 35.701C18.87 35.7099 18.8478 35.7128 18.8262 35.7094C18.8046 35.7059 18.7845 35.6961 18.7684 35.6814C18.7522 35.6666 18.7408 35.6474 18.7354 35.6262C18.7301 35.6049 18.7311 35.5826 18.7383 35.562C18.7455 35.5413 18.7586 35.5232 18.7759 35.5099C18.7933 35.4966 18.8142 35.4886 18.836 35.4871V35.4861ZM24.023 35.4861C24.0383 35.4851 24.0536 35.4873 24.068 35.4924C24.0823 35.4975 24.0956 35.5055 24.1068 35.5159C24.118 35.5263 24.127 35.5388 24.1332 35.5528C24.1394 35.5667 24.1428 35.5818 24.143 35.5971C24.1434 35.619 24.1373 35.6405 24.1255 35.6589C24.1138 35.6774 24.0969 35.692 24.0769 35.701C24.057 35.7099 24.0348 35.7128 24.0132 35.7094C23.9916 35.7059 23.9715 35.6961 23.9554 35.6814C23.9392 35.6666 23.9278 35.6474 23.9224 35.6262C23.9171 35.6049 23.9181 35.5826 23.9253 35.562C23.9325 35.5413 23.9456 35.5232 23.9629 35.5099C23.9803 35.4966 24.0012 35.4886 24.023 35.4871V35.4861ZM29.211 35.4861C29.2263 35.4851 29.2416 35.4873 29.256 35.4924C29.2703 35.4975 29.2836 35.5055 29.2948 35.5159C29.306 35.5263 29.315 35.5388 29.3212 35.5528C29.3274 35.5667 29.3308 35.5818 29.331 35.5971C29.3314 35.619 29.3253 35.6405 29.3135 35.6589C29.3018 35.6774 29.2849 35.692 29.2649 35.701C29.245 35.7099 29.2228 35.7128 29.2012 35.7094C29.1796 35.7059 29.1595 35.6961 29.1434 35.6814C29.1272 35.6666 29.1158 35.6474 29.1104 35.6262C29.1051 35.6049 29.1061 35.5826 29.1133 35.562C29.1205 35.5413 29.1336 35.5232 29.1509 35.5099C29.1683 35.4966 29.1892 35.4886 29.211 35.4871V35.4861ZM18.824 37.1741H18.844C18.905 37.1741 18.954 37.2241 18.955 37.2851C18.9549 37.3064 18.9487 37.3273 18.9372 37.3453C18.9256 37.3632 18.9091 37.3775 18.8897 37.3864C18.8703 37.3953 18.8487 37.3985 18.8276 37.3955C18.8064 37.3926 18.7865 37.3837 18.7703 37.3698C18.7541 37.3559 18.7421 37.3377 18.7359 37.3173C18.7297 37.2968 18.7294 37.275 18.7352 37.2545C18.7409 37.2339 18.7524 37.2154 18.7684 37.2011C18.7843 37.1869 18.8039 37.1775 18.825 37.1741H18.824ZM24.012 37.1741H24.03C24.092 37.1741 24.141 37.2241 24.142 37.2851C24.1419 37.3064 24.1357 37.3272 24.1242 37.3451C24.1126 37.3631 24.0962 37.3773 24.0768 37.3862C24.0575 37.3951 24.036 37.3983 24.0149 37.3954C23.9937 37.3925 23.9739 37.3837 23.9576 37.3699C23.9414 37.3561 23.9294 37.338 23.9231 37.3176C23.9167 37.2973 23.9164 37.2755 23.922 37.255C23.9276 37.2344 23.9389 37.2159 23.9547 37.2016C23.9705 37.1872 23.99 37.1777 24.011 37.1741H24.012ZM29.199 37.1741H29.22C29.281 37.1741 29.33 37.2241 29.331 37.2851C29.3309 37.3064 29.3247 37.3273 29.3132 37.3453C29.3016 37.3632 29.2851 37.3775 29.2657 37.3864C29.2463 37.3953 29.2247 37.3985 29.2036 37.3955C29.1824 37.3926 29.1625 37.3837 29.1463 37.3698C29.1301 37.3559 29.1181 37.3377 29.1119 37.3173C29.1057 37.2968 29.1054 37.275 29.1112 37.2545C29.1169 37.2339 29.1284 37.2154 29.1444 37.2011C29.1603 37.1869 29.1799 37.1775 29.201 37.1741H29.199ZM16.312 37.1951C16.7161 37.1951 17.1036 37.3556 17.3893 37.6413C17.675 37.927 17.8355 38.3145 17.8355 38.7186C17.8355 39.1226 17.675 39.5101 17.3893 39.7959C17.1036 40.0816 16.7161 40.2421 16.312 40.2421C15.908 40.2421 15.5205 40.0816 15.2347 39.7959C14.949 39.5101 14.7885 39.1226 14.7885 38.7186C14.7885 38.3145 14.949 37.927 15.2347 37.6413C15.5205 37.3556 15.908 37.1951 16.312 37.1951ZM21.406 37.1951C21.8101 37.1951 22.1976 37.3556 22.4833 37.6413C22.769 37.927 22.9295 38.3145 22.9295 38.7186C22.9295 39.1226 22.769 39.5101 22.4833 39.7959C22.1976 40.0816 21.8101 40.2421 21.406 40.2421C21.002 40.2421 20.6145 40.0816 20.3287 39.7959C20.043 39.5101 19.8825 39.1226 19.8825 38.7186C19.8825 38.3145 20.043 37.927 20.3287 37.6413C20.6145 37.3556 21.002 37.1951 21.406 37.1951ZM26.5 37.1951C26.9041 37.1951 27.2916 37.3556 27.5773 37.6413C27.863 37.927 28.0235 38.3145 28.0235 38.7186C28.0235 39.1226 27.863 39.5101 27.5773 39.7959C27.2916 40.0816 26.9041 40.2421 26.5 40.2421C26.096 40.2421 25.7085 40.0816 25.4227 39.7959C25.137 39.5101 24.9765 39.1226 24.9765 38.7186C24.9765 38.3145 25.137 37.927 25.4227 37.6413C25.7085 37.3556 26.096 37.1951 26.5 37.1951ZM31.719 37.1951C32.1231 37.1951 32.5106 37.3556 32.7963 37.6413C33.082 37.927 33.2425 38.3145 33.2425 38.7186C33.2425 39.1226 33.082 39.5101 32.7963 39.7959C32.5106 40.0816 32.1231 40.2421 31.719 40.2421C31.315 40.2421 30.9275 40.0816 30.6417 39.7959C30.356 39.5101 30.1955 39.1226 30.1955 38.7186C30.1955 38.3145 30.356 37.927 30.6417 37.6413C30.9275 37.3556 31.315 37.1951 31.719 37.1951ZM18.824 41.1101H18.844C18.8662 41.1105 18.8877 41.1174 18.9059 41.1301C18.9241 41.1427 18.9381 41.1604 18.9462 41.1811C18.9543 41.2017 18.9562 41.2242 18.9514 41.2459C18.9467 41.2675 18.9357 41.2873 18.9198 41.3027C18.9038 41.318 18.8837 41.3283 18.8619 41.3323C18.8401 41.3362 18.8176 41.3336 18.7973 41.3248C18.777 41.3159 18.7598 41.3013 18.7478 41.2826C18.7358 41.264 18.7296 41.2422 18.73 41.2201C18.7297 41.1935 18.7391 41.1677 18.7564 41.1474C18.7737 41.1272 18.7977 41.1139 18.824 41.1101ZM24.012 41.1101H24.03C24.0522 41.1103 24.0738 41.1171 24.0922 41.1296C24.1105 41.1421 24.1247 41.1598 24.133 41.1804C24.1412 41.201 24.1432 41.2236 24.1386 41.2453C24.134 41.267 24.123 41.2868 24.1071 41.3023C24.0912 41.3178 24.0711 41.3282 24.0493 41.3322C24.0274 41.3362 24.0049 41.3337 23.9845 41.3249C23.9642 41.3161 23.9469 41.3014 23.9349 41.2827C23.9228 41.2641 23.9166 41.2423 23.917 41.2201C23.9167 41.1935 23.9261 41.1677 23.9434 41.1474C23.9607 41.1272 23.9847 41.1139 24.011 41.1101H24.012ZM29.199 41.1101H29.22C29.2422 41.1105 29.2637 41.1174 29.2819 41.1301C29.3001 41.1427 29.3141 41.1604 29.3222 41.1811C29.3303 41.2017 29.3322 41.2242 29.3274 41.2459C29.3227 41.2675 29.3117 41.2873 29.2958 41.3027C29.2798 41.318 29.2597 41.3283 29.2379 41.3323C29.2161 41.3362 29.1936 41.3336 29.1733 41.3248C29.153 41.3159 29.1358 41.3013 29.1238 41.2826C29.1118 41.264 29.1056 41.2422 29.106 41.2201C29.1057 41.1935 29.1151 41.1677 29.1324 41.1474C29.1497 41.1272 29.1737 41.1139 29.2 41.1101H29.199ZM18.824 41.6721H18.844C18.905 41.6721 18.954 41.7221 18.955 41.7831C18.955 41.8451 18.905 41.8941 18.844 41.8951C18.8291 41.8953 18.8144 41.8926 18.8005 41.8871C18.7867 41.8816 18.7741 41.8734 18.7635 41.863C18.7529 41.8526 18.7445 41.8401 18.7387 41.8264C18.733 41.8127 18.73 41.798 18.73 41.7831C18.7295 41.7563 18.7388 41.7303 18.7561 41.7098C18.7734 41.6894 18.7975 41.676 18.824 41.6721ZM24.012 41.6721H24.03C24.092 41.6721 24.141 41.7221 24.142 41.7831C24.142 41.8451 24.092 41.8941 24.03 41.8951C24.0152 41.8952 24.0006 41.8924 23.9869 41.8868C23.9732 41.8813 23.9607 41.873 23.9502 41.8626C23.9397 41.8522 23.9313 41.8398 23.9256 41.8262C23.92 41.8125 23.917 41.7979 23.917 41.7831C23.9165 41.7563 23.9258 41.7303 23.9431 41.7098C23.9604 41.6894 23.9845 41.676 24.011 41.6721H24.012ZM29.199 41.6721H29.22C29.281 41.6721 29.33 41.7221 29.331 41.7831C29.331 41.8451 29.281 41.8941 29.22 41.8951C29.2051 41.8953 29.1904 41.8926 29.1765 41.8871C29.1627 41.8816 29.1501 41.8734 29.1395 41.863C29.1289 41.8526 29.1205 41.8401 29.1147 41.8264C29.109 41.8127 29.106 41.798 29.106 41.7831C29.1055 41.7563 29.1148 41.7303 29.1321 41.7098C29.1494 41.6894 29.1735 41.676 29.2 41.6721H29.199ZM18.846 42.2321C18.8608 42.2322 18.8754 42.2352 18.889 42.241C18.9026 42.2468 18.9149 42.2552 18.9253 42.2657C18.9356 42.2763 18.9438 42.2887 18.9493 42.3024C18.9549 42.3161 18.9577 42.3308 18.9575 42.3456C18.9574 42.3604 18.9544 42.375 18.9486 42.3886C18.9428 42.4022 18.9344 42.4145 18.9239 42.4248C18.9133 42.4352 18.9009 42.4434 18.8872 42.4489C18.8735 42.4544 18.8588 42.4572 18.844 42.4571C18.8293 42.4569 18.8148 42.4539 18.8012 42.4482C18.7877 42.4424 18.7754 42.4341 18.7651 42.4236C18.7548 42.4131 18.7467 42.4007 18.7412 42.387C18.7357 42.3734 18.7329 42.3588 18.733 42.3441C18.7332 42.3294 18.7362 42.3148 18.7419 42.3013C18.7477 42.2878 18.756 42.2755 18.7665 42.2652C18.777 42.2549 18.7894 42.2467 18.8031 42.2412C18.8167 42.2357 18.8313 42.2329 18.846 42.2331V42.2321ZM24.033 42.2321C24.0629 42.2323 24.0914 42.2444 24.1123 42.2657C24.1332 42.287 24.1448 42.3157 24.1445 42.3456C24.1443 42.3754 24.1321 42.4039 24.1109 42.4248C24.0896 42.4457 24.0609 42.4573 24.031 42.4571C24.0013 42.4568 23.9729 42.4448 23.9521 42.4236C23.9313 42.4024 23.9198 42.3738 23.92 42.3441C23.9203 42.3144 23.9323 42.286 23.9535 42.2652C23.9747 42.2444 24.0033 42.2328 24.033 42.2331V42.2321ZM29.221 42.2321C29.2509 42.2323 29.2794 42.2444 29.3003 42.2657C29.3212 42.287 29.3328 42.3157 29.3325 42.3456C29.3323 42.3754 29.3202 42.4039 29.2989 42.4248C29.2776 42.4457 29.2489 42.4573 29.219 42.4571C29.1893 42.4568 29.1609 42.4448 29.1401 42.4236C29.1193 42.4024 29.1078 42.3738 29.108 42.3441C29.1083 42.3144 29.1203 42.286 29.1415 42.2652C29.1627 42.2444 29.1913 42.2328 29.221 42.2331V42.2321Z" fill="#333333"/>
</svg>
