<svg width="48" height="48" viewBox="0 0 48 48" fill="none" xmlns="http://www.w3.org/2000/svg">
<path fill-rule="evenodd" clip-rule="evenodd" d="M-0.000488281 0.0927734V48.0927H47.9995V0.0927734H-0.000488281ZM14.0659 4.18649H33.771C34.6404 4.18649 35.3394 4.88536 35.3394 5.7548V42.6161C35.3394 43.4856 34.6404 44.1864 33.771 44.1864H14.0659C13.1965 44.1864 12.4976 43.4856 12.4976 42.6161V5.7548C12.4976 4.88536 13.1965 4.18649 14.0659 4.18649ZM30.7632 4.92088C30.7042 4.92443 30.6581 4.97296 30.6577 5.0323C30.6571 5.09504 30.7083 5.14605 30.771 5.14568C30.833 5.14518 30.8831 5.09428 30.8823 5.0323C30.8819 4.97107 30.8322 4.92163 30.771 4.92088C30.7684 4.9208 30.767 4.9208 30.7632 4.92088ZM30.7632 5.4834C30.7042 5.48695 30.6581 5.53329 30.6577 5.59263C30.6571 5.65537 30.7083 5.70639 30.771 5.70601C30.833 5.70552 30.8831 5.65461 30.8823 5.59263C30.8819 5.5314 30.8322 5.48415 30.771 5.4834C30.7684 5.48332 30.767 5.48332 30.7632 5.4834ZM30.7632 6.04581C30.7042 6.04936 30.6581 6.09607 30.6577 6.15503C30.6571 6.21777 30.7083 6.26879 30.771 6.26842C30.833 6.26792 30.8831 6.21702 30.8823 6.15503C30.8819 6.09381 30.8322 6.04656 30.771 6.04581C30.7684 6.04573 30.767 6.04573 30.7632 6.04581ZM30.7515 6.60833C30.697 6.61589 30.6573 6.66434 30.6577 6.71952C30.6582 6.7815 30.7086 6.83132 30.771 6.83094C30.8322 6.83045 30.8819 6.78112 30.8823 6.71952C30.8819 6.65829 30.8322 6.60908 30.771 6.60833C30.7634 6.60776 30.761 6.60776 30.7534 6.60833H30.7515ZM30.771 7.16889C30.7083 7.16829 30.6573 7.21953 30.6577 7.28227C30.6582 7.34426 30.7086 7.39226 30.771 7.3915C30.8322 7.39101 30.8816 7.34388 30.8823 7.28227C30.8829 7.22029 30.8334 7.16965 30.771 7.16889ZM30.7632 7.73141C30.7035 7.735 30.657 7.7847 30.6577 7.8448C30.6582 7.90678 30.7086 7.9544 30.771 7.95402C30.8322 7.95353 30.8819 7.90602 30.8823 7.8448C30.8829 7.78281 30.833 7.73217 30.771 7.73141C30.7684 7.7313 30.767 7.7313 30.7632 7.73141ZM30.7632 8.29382C30.7035 8.29749 30.657 8.34722 30.6577 8.40732C30.6582 8.4693 30.7086 8.51915 30.771 8.51839C30.8322 8.51794 30.8819 8.46892 30.8823 8.40732C30.8829 8.34533 30.833 8.29458 30.771 8.29382C30.7684 8.29375 30.767 8.29375 30.7632 8.29382ZM30.7632 8.85634C30.7035 8.85993 30.657 8.90963 30.6577 8.96973C30.6582 9.03171 30.7086 9.08129 30.771 9.08092C30.8322 9.08042 30.8819 9.03133 30.8823 8.96973C30.8829 8.90774 30.833 8.8571 30.771 8.85634C30.7684 8.85627 30.767 8.85627 30.7632 8.85634ZM30.7632 9.41887C30.7042 9.42242 30.6581 9.46914 30.6577 9.5281C30.6571 9.59084 30.7083 9.64186 30.771 9.64148C30.833 9.64099 30.8831 9.59008 30.8823 9.5281C30.8819 9.46687 30.8322 9.41962 30.771 9.41887C30.7684 9.41879 30.767 9.41879 30.7632 9.41887ZM30.7632 9.98139C30.7042 9.98494 30.6581 10.0313 30.6577 10.0906C30.6571 10.1534 30.7083 10.2044 30.771 10.204C30.833 10.2035 30.8831 10.1526 30.8823 10.0906C30.8819 10.0294 30.8322 9.98215 30.771 9.98139C30.7684 9.98128 30.767 9.98128 30.7632 9.98139ZM30.7515 10.5439C30.697 10.5515 30.6573 10.6002 30.6577 10.655C30.6571 10.7177 30.7083 10.7687 30.771 10.7684C30.833 10.7679 30.8831 10.717 30.8823 10.655C30.8819 10.5938 30.8322 10.5447 30.771 10.5439C30.7634 10.5433 30.761 10.5433 30.7534 10.5439H30.7515ZM30.771 11.1045C30.7083 11.1039 30.6573 11.1551 30.6577 11.2179C30.6582 11.2798 30.7086 11.3275 30.771 11.3271C30.8322 11.3266 30.8816 11.2795 30.8823 11.2179C30.8829 11.1559 30.8334 11.1052 30.771 11.1045ZM30.771 11.667C30.7083 11.6664 30.6573 11.7176 30.6577 11.7804C30.6582 11.8424 30.7086 11.8907 30.771 11.8896C30.8322 11.8892 30.8816 11.8416 30.8823 11.7804C30.8829 11.7184 30.8334 11.6678 30.771 11.667ZM18.7163 12.0908C17.8327 12.0908 17.1167 12.8067 17.1167 13.6903C17.1167 14.574 17.8327 15.29 18.7163 15.29C19.5999 15.29 20.3159 14.574 20.3159 13.6903C20.3159 12.8067 19.5999 12.0908 18.7163 12.0908ZM30.7632 12.2276C30.7035 12.2312 30.657 12.2808 30.6577 12.3409C30.6582 12.4029 30.7086 12.4551 30.771 12.4543C30.8322 12.4538 30.882 12.4022 30.8823 12.3409C30.8829 12.279 30.833 12.2283 30.771 12.2276C30.7684 12.2274 30.767 12.2274 30.7632 12.2276ZM30.7632 12.7901C30.7035 12.7937 30.657 12.8452 30.6577 12.9053C30.6582 12.9673 30.7086 13.0176 30.771 13.0165C30.8322 13.016 30.882 12.9665 30.8823 12.9053C30.8829 12.8433 30.833 12.7905 30.771 12.7901C30.7684 12.79 30.767 12.79 30.7632 12.7901ZM30.7632 13.3525C30.7042 13.3561 30.6581 13.4047 30.6577 13.464C30.6571 13.5268 30.7083 13.5778 30.771 13.5774C30.833 13.5769 30.8831 13.526 30.8823 13.464C30.8819 13.4028 30.8322 13.3532 30.771 13.3525C30.7684 13.3524 30.767 13.3524 30.7632 13.3525ZM30.7632 13.915C30.7042 13.9186 30.6581 13.9676 30.6577 14.0266C30.6571 14.0893 30.7083 14.1403 30.771 14.1399C30.833 14.1394 30.8831 14.0885 30.8823 14.0266C30.8819 13.9653 30.8322 13.9158 30.771 13.915C30.7684 13.9149 30.767 13.9149 30.7632 13.915ZM30.7632 14.4775C30.7042 14.4811 30.6581 14.532 30.6577 14.5909C30.6571 14.6537 30.7083 14.7047 30.771 14.7043C30.833 14.7038 30.8831 14.6529 30.8823 14.5909C30.8819 14.5297 30.8322 14.4779 30.771 14.4775C30.7684 14.4774 30.767 14.4774 30.7632 14.4775ZM24.3726 14.7785C23.4889 14.7785 22.773 15.4944 22.773 16.378C22.773 17.2617 23.4889 17.9776 24.3726 17.9776C25.2562 17.9776 25.9721 17.2617 25.9722 16.378C25.9721 15.4944 25.2562 14.7785 24.3726 14.7785ZM30.7515 15.0423C30.6971 15.0498 30.6573 15.0985 30.6577 15.1533C30.6571 15.2161 30.7083 15.2671 30.771 15.2667C30.833 15.2662 30.8831 15.2153 30.8823 15.1533C30.8819 15.0921 30.8322 15.0426 30.771 15.0423C30.7634 15.0417 30.761 15.0417 30.7534 15.0423H30.7515ZM30.7515 15.6047C30.6971 15.6122 30.6573 15.661 30.6577 15.7162C30.6582 15.7782 30.7086 15.8276 30.771 15.8273C30.8322 15.8268 30.882 15.777 30.8823 15.7162C30.8819 15.655 30.8322 15.6054 30.771 15.6047C30.7634 15.6041 30.761 15.6041 30.7534 15.6047H30.7515ZM30.771 16.1652C30.7083 16.1646 30.6574 16.2159 30.6577 16.2786C30.6582 16.3406 30.7087 16.3909 30.771 16.3898C30.8322 16.3893 30.8816 16.3398 30.8823 16.2786C30.8829 16.2166 30.8334 16.166 30.771 16.1652ZM30.7632 16.7277C30.7035 16.7314 30.657 16.781 30.6577 16.8411C30.6582 16.9031 30.7086 16.9533 30.771 16.9522C30.8322 16.9517 30.882 16.902 30.8823 16.8411C30.8829 16.7791 30.833 16.7285 30.771 16.7277C30.7684 16.7277 30.767 16.7277 30.7632 16.7277ZM30.7632 17.2903C30.7035 17.2939 30.657 17.3436 30.6577 17.4036C30.6582 17.4656 30.7086 17.5156 30.771 17.5152C30.8322 17.5147 30.882 17.4653 30.8823 17.4036C30.8829 17.3417 30.833 17.291 30.771 17.2903C30.7684 17.2902 30.767 17.2902 30.7632 17.2903ZM18.7163 17.3243C17.8327 17.3243 17.1167 18.0402 17.1167 18.9239C17.1167 19.8075 17.8327 20.5235 18.7163 20.5235C19.5999 20.5235 20.3159 19.8075 20.3159 18.9239C20.3159 18.0402 19.5999 17.3243 18.7163 17.3243ZM30.7632 17.8516C30.7042 17.8552 30.6581 17.9041 30.6577 17.9627C30.6571 18.0255 30.7083 18.0765 30.771 18.0761C30.833 18.0756 30.8831 18.0247 30.8823 17.9627C30.8819 17.9015 30.8322 17.8516 30.771 17.8516C30.7684 17.8516 30.767 17.8516 30.7632 17.8516ZM30.7632 18.4142C30.7042 18.4178 30.6581 18.4663 30.6577 18.5252C30.6571 18.588 30.7083 18.641 30.771 18.6406C30.833 18.6401 30.8831 18.5872 30.8823 18.5252C30.8819 18.464 30.8322 18.4145 30.771 18.4142C30.7684 18.414 30.767 18.414 30.7632 18.4142ZM30.7632 18.9767C30.7042 18.9803 30.6581 19.0288 30.6577 19.0878C30.6571 19.1505 30.7083 19.2034 30.771 19.203C30.833 19.2025 30.8831 19.1497 30.8823 19.0878C30.8819 19.0265 30.8322 18.9767 30.771 18.9767C30.7684 18.9766 30.767 18.9766 30.7632 18.9767ZM30.7515 19.5391C30.6971 19.5466 30.6573 19.5954 30.6577 19.6506C30.6571 19.7134 30.7083 19.7662 30.771 19.7659C30.833 19.7654 30.8831 19.7126 30.8823 19.6506C30.8819 19.5894 30.8322 19.5398 30.771 19.5391C30.7634 19.5385 30.761 19.5385 30.7534 19.5391H30.7515ZM24.3726 20.0273C23.4889 20.0274 22.773 20.7434 22.773 21.627C22.773 22.5107 23.4889 23.2266 24.3726 23.2266C25.2562 23.2266 25.9721 22.5107 25.9722 21.627C25.9721 20.7434 25.2562 20.0274 24.3726 20.0273ZM30.771 20.0995C30.7083 20.0989 30.6573 20.1502 30.6577 20.2129C30.6582 20.2749 30.7086 20.3271 30.771 20.3263C30.8322 20.3258 30.8816 20.2741 30.8823 20.2129C30.8829 20.1509 30.8334 20.1003 30.771 20.0995ZM30.7632 20.6621C30.7035 20.6657 30.657 20.7153 30.6577 20.7754C30.6582 20.8374 30.7086 20.8896 30.771 20.8888C30.8322 20.8883 30.8819 20.8367 30.8823 20.7754C30.8829 20.7135 30.833 20.6624 30.771 20.6621C30.7684 20.662 30.767 20.662 30.7632 20.6621ZM30.7632 21.2246C30.7035 21.2282 30.657 21.2779 30.6577 21.338C30.6582 21.4 30.7086 21.4517 30.771 21.4513C30.8322 21.4509 30.8819 21.3996 30.8823 21.338C30.8829 21.276 30.833 21.2253 30.771 21.2246C30.7684 21.2245 30.767 21.2245 30.7632 21.2246ZM30.7632 21.7871C30.7035 21.7907 30.657 21.8404 30.6577 21.9005C30.6582 21.9625 30.7086 22.0128 30.771 22.012C30.8322 22.0115 30.8819 21.9621 30.8823 21.9005C30.8829 21.8385 30.833 21.7879 30.771 21.7871C30.7684 21.787 30.767 21.787 30.7632 21.7871ZM30.7632 22.3496C30.7042 22.3532 30.6581 22.4041 30.6577 22.463C30.6571 22.5258 30.7083 22.5768 30.771 22.5764C30.833 22.5759 30.8831 22.525 30.8823 22.463C30.8819 22.4018 30.8322 22.35 30.771 22.3496C30.7684 22.3495 30.767 22.3495 30.7632 22.3496ZM18.7163 22.5586C17.8327 22.5587 17.1167 23.2746 17.1167 24.1582C17.1167 25.0418 17.8327 25.7579 18.7163 25.7579C19.5999 25.7579 20.3159 25.0418 20.3159 24.1582C20.3159 23.2746 19.5999 22.5587 18.7163 22.5586ZM30.7632 22.912C30.7042 22.9156 30.6581 22.9642 30.6577 23.0231C30.6571 23.0859 30.7083 23.1387 30.771 23.1383C30.833 23.1378 30.8831 23.0851 30.8823 23.0231C30.8819 22.9619 30.8322 22.9124 30.771 22.912C30.7684 22.9119 30.767 22.9119 30.7632 22.912ZM30.7632 23.4744C30.7042 23.4781 30.6581 23.5266 30.6577 23.586C30.6571 23.6487 30.7083 23.7016 30.771 23.7012C30.833 23.7007 30.8831 23.648 30.8823 23.586C30.8819 23.5248 30.8322 23.4752 30.771 23.4744C30.7684 23.4744 30.767 23.4744 30.7632 23.4744ZM30.7515 24.037C30.697 24.0445 30.6573 24.0937 30.6577 24.1485C30.6571 24.2112 30.7083 24.2623 30.771 24.2619C30.833 24.2614 30.8831 24.2105 30.8823 24.1485C30.8819 24.0873 30.8322 24.0377 30.771 24.037C30.7634 24.0364 30.761 24.0364 30.7534 24.037H30.7515ZM30.7515 24.5995C30.697 24.607 30.6573 24.6558 30.6577 24.711C30.6582 24.773 30.7086 24.8232 30.771 24.8221C30.8322 24.8216 30.8819 24.7719 30.8823 24.711C30.8819 24.6498 30.8322 24.6002 30.771 24.5995C30.7634 24.5989 30.761 24.5989 30.7534 24.5995H30.7515ZM30.7632 25.1601C30.7035 25.1636 30.657 25.2133 30.6577 25.2734C30.6582 25.3354 30.7086 25.3872 30.771 25.3868C30.8322 25.3863 30.8819 25.335 30.8823 25.2734C30.8829 25.2115 30.833 25.1608 30.771 25.1601C30.7684 25.16 30.767 25.16 30.7632 25.1601ZM24.3726 25.2771C23.4889 25.2772 22.773 25.9932 22.7729 26.8768C22.773 27.7605 23.4889 28.4764 24.3726 28.4764C25.2562 28.4764 25.9721 27.7605 25.9722 26.8768C25.9721 25.9932 25.2562 25.2772 24.3726 25.2771ZM30.7632 25.7225C30.7035 25.7261 30.657 25.7757 30.6577 25.8358C30.6582 25.8978 30.7086 25.9478 30.771 25.9474C30.8322 25.9469 30.8819 25.8974 30.8823 25.8358C30.8829 25.7739 30.833 25.7232 30.771 25.7225C30.7684 25.7224 30.767 25.7224 30.7632 25.7225ZM30.7632 26.285C30.7035 26.2886 30.657 26.3383 30.6577 26.3984C30.6582 26.4604 30.7086 26.5107 30.771 26.5099C30.8322 26.5094 30.8819 26.46 30.8823 26.3984C30.8829 26.3364 30.833 26.2857 30.771 26.285C30.7684 26.2849 30.767 26.2849 30.7632 26.285ZM30.7632 26.8475C30.7042 26.8511 30.6581 26.8992 30.6577 26.9586C30.6571 27.0213 30.7083 27.0723 30.771 27.072C30.833 27.0715 30.8831 27.0206 30.8823 26.9586C30.8819 26.8974 30.8322 26.8483 30.771 26.8475C30.7684 26.8474 30.767 26.8474 30.7632 26.8475ZM30.7632 27.4099C30.7042 27.4135 30.6581 27.4621 30.6577 27.5215C30.6571 27.5842 30.7083 27.6352 30.771 27.6348C30.833 27.6343 30.8831 27.5834 30.8823 27.5215C30.8819 27.4602 30.8322 27.4107 30.771 27.4099C30.7684 27.4098 30.767 27.4098 30.7632 27.4099ZM18.7163 27.7929C17.8327 27.7929 17.1167 28.5088 17.1167 29.3924C17.1167 30.2761 17.8327 30.992 18.7163 30.992C19.5999 30.992 20.3159 30.2761 20.3159 29.3924C20.3159 28.5088 19.5999 27.7929 18.7163 27.7929ZM30.7632 27.9723C30.7042 27.9759 30.6581 28.0249 30.6577 28.0839C30.6571 28.1466 30.7083 28.1976 30.771 28.1972C30.833 28.1967 30.8831 28.1458 30.8823 28.0839C30.8819 28.0226 30.8322 27.9731 30.771 27.9723C30.7684 27.9722 30.767 27.9722 30.7632 27.9723ZM30.7515 28.5348C30.697 28.5424 30.6573 28.5916 30.6577 28.6464C30.6582 28.7084 30.7086 28.7586 30.771 28.7575C30.8322 28.757 30.8819 28.7076 30.8823 28.6464C30.8819 28.5852 30.8322 28.5356 30.771 28.5348C30.7634 28.5343 30.761 28.5343 30.7534 28.5348H30.7515ZM30.771 29.0954C30.7083 29.0948 30.6573 29.146 30.6577 29.2088C30.6582 29.2708 30.7086 29.3225 30.771 29.3222C30.8322 29.3217 30.8816 29.2704 30.8823 29.2088C30.8829 29.1468 30.8334 29.0962 30.771 29.0954ZM30.7632 29.6579C30.7035 29.6615 30.657 29.7112 30.6577 29.7713C30.6582 29.8333 30.7086 29.8835 30.771 29.8827C30.8322 29.8822 30.8819 29.8329 30.8823 29.7713C30.8829 29.7093 30.833 29.6587 30.771 29.6579C30.7684 29.6579 30.767 29.6579 30.7632 29.6579ZM30.7632 30.2203C30.7035 30.2239 30.657 30.2736 30.6577 30.3337C30.6582 30.3957 30.7086 30.4456 30.771 30.4453C30.8322 30.4448 30.8819 30.3953 30.8823 30.3337C30.8829 30.2717 30.833 30.2211 30.771 30.2203C30.7684 30.2203 30.767 30.2203 30.7632 30.2203ZM24.3726 30.5269C23.4889 30.527 22.773 31.2429 22.7729 32.1265C22.773 33.0101 23.4889 33.7262 24.3726 33.7262C25.2562 33.7262 25.9721 33.0101 25.9722 32.1265C25.9721 31.2429 25.2562 30.527 24.3726 30.5269ZM30.7632 30.7827C30.7035 30.7863 30.657 30.838 30.6577 30.8981C30.6582 30.9601 30.7086 31.0085 30.771 31.0073C30.8322 31.0069 30.8819 30.9593 30.8823 30.8981C30.8829 30.8361 30.833 30.7835 30.771 30.7827C30.7684 30.7826 30.767 30.7826 30.7632 30.7827ZM30.7632 31.3453C30.7042 31.3489 30.6581 31.3993 30.6577 31.4587C30.6571 31.5214 30.7083 31.5724 30.771 31.572C30.833 31.5715 30.8831 31.5206 30.8823 31.4587C30.8819 31.3974 30.8322 31.346 30.771 31.3453C30.7684 31.3452 30.767 31.3452 30.7632 31.3453ZM30.7632 31.9078C30.7042 31.9114 30.6581 31.9603 30.6577 32.0192C30.6571 32.082 30.7083 32.133 30.771 32.1326C30.833 32.1321 30.8831 32.0812 30.8823 32.0192C30.8819 31.958 30.8322 31.9085 30.771 31.9078C30.7684 31.9077 30.767 31.9077 30.7632 31.9078ZM30.7515 32.4703C30.697 32.4779 30.6573 32.5266 30.6577 32.5817C30.6571 32.6445 30.7083 32.6955 30.771 32.6951C30.833 32.6946 30.8831 32.6437 30.8823 32.5817C30.8819 32.5205 30.8322 32.4711 30.771 32.4703C30.7634 32.4697 30.761 32.4697 30.7534 32.4703H30.7515ZM18.7163 33.027C17.8327 33.027 17.1167 33.7429 17.1167 34.6265C17.1167 35.5102 17.8327 36.2261 18.7163 36.2261C19.5999 36.2261 20.3159 35.5102 20.3159 34.6265C20.3159 33.7429 19.5999 33.027 18.7163 33.027ZM30.7515 33.0345C30.697 33.042 30.6573 33.0912 30.6577 33.1456C30.6582 33.2076 30.7086 33.2574 30.771 33.2571C30.8322 33.2566 30.8819 33.2072 30.8823 33.1456C30.8819 33.0844 30.8322 33.0345 30.771 33.0345C30.7634 33.0339 30.761 33.0339 30.7534 33.0345H30.7515ZM30.771 33.597C30.7083 33.5964 30.6573 33.6476 30.6577 33.7104C30.6582 33.7723 30.7086 33.8222 30.771 33.8214C30.8322 33.8209 30.8816 33.772 30.8823 33.7104C30.8829 33.6484 30.8334 33.5977 30.771 33.597ZM30.7632 34.1595C30.7035 34.1631 30.657 34.2128 30.6577 34.2729C30.6582 34.3349 30.7086 34.3847 30.771 34.384C30.8322 34.3835 30.8819 34.3345 30.8823 34.2729C30.8829 34.2109 30.833 34.1603 30.771 34.1595C30.7684 34.1594 30.767 34.1594 30.7632 34.1595ZM30.7632 34.7219C30.7035 34.7255 30.657 34.7752 30.6577 34.8353C30.6582 34.8973 30.7086 34.9472 30.771 34.9468C30.8322 34.9463 30.8819 34.8973 30.8823 34.8353C30.8829 34.7733 30.833 34.7227 30.771 34.7219C30.7684 34.7218 30.767 34.7218 30.7632 34.7219ZM30.7632 35.2844C30.7042 35.288 30.6581 35.3366 30.6577 35.396C30.6571 35.4587 30.7083 35.5097 30.771 35.5093C30.833 35.5089 30.8831 35.458 30.8823 35.396C30.8819 35.3347 30.8322 35.2852 30.771 35.2844C30.7684 35.2843 30.767 35.2843 30.7632 35.2844ZM30.7632 35.847C30.7042 35.8505 30.6581 35.8972 30.6577 35.9562C30.6571 36.0189 30.7083 36.0719 30.771 36.0715C30.833 36.071 30.8831 36.0182 30.8823 35.9562C30.8819 35.895 30.8322 35.8477 30.771 35.847C30.7684 35.8469 30.767 35.8469 30.7632 35.847ZM30.7632 36.4095C30.7042 36.4131 30.6581 36.4597 30.6577 36.5187C30.6571 36.5814 30.7083 36.6343 30.771 36.6339C30.833 36.6334 30.8831 36.5807 30.8823 36.5187C30.8819 36.4575 30.8322 36.4102 30.771 36.4095C30.7684 36.4094 30.767 36.4094 30.7632 36.4095ZM30.7632 36.972C30.7042 36.9756 30.6581 37.0219 30.6577 37.0812C30.6571 37.144 30.7083 37.1968 30.771 37.1965C30.833 37.196 30.8831 37.1432 30.8823 37.0812C30.8819 37.02 30.8322 36.9728 30.771 36.972C30.7684 36.9719 30.767 36.9719 30.7632 36.972ZM30.7515 37.5344C30.697 37.542 30.6573 37.5908 30.6577 37.6459C30.6582 37.7079 30.7086 37.7582 30.771 37.757C30.8322 37.7565 30.8819 37.7068 30.8823 37.6459C30.8819 37.5847 30.8322 37.5352 30.771 37.5344C30.7634 37.5338 30.761 37.5338 30.7534 37.5344H30.7515ZM30.7632 38.095C30.7035 38.0986 30.657 38.1483 30.6577 38.2084C30.6582 38.2703 30.7086 38.3203 30.771 38.3195C30.8322 38.319 30.8819 38.27 30.8823 38.2084C30.8829 38.1464 30.833 38.0957 30.771 38.095C30.7684 38.0949 30.767 38.0949 30.7632 38.095ZM30.7632 38.6575C30.7035 38.6611 30.657 38.7108 30.6577 38.7709C30.6582 38.8329 30.7086 38.8832 30.771 38.8824C30.8322 38.8819 30.8819 38.8325 30.8823 38.7709C30.8829 38.7089 30.833 38.6582 30.771 38.6575C30.7684 38.6574 30.767 38.6574 30.7632 38.6575ZM30.7632 39.22C30.7035 39.2236 30.657 39.2733 30.6577 39.3334C30.6582 39.3954 30.7086 39.4453 30.771 39.4449C30.8322 39.4444 30.8819 39.395 30.8823 39.3334C30.8829 39.2714 30.833 39.2208 30.771 39.22C30.7684 39.2199 30.767 39.2199 30.7632 39.22ZM30.7632 39.7825C30.7042 39.7861 30.6581 39.8343 30.6577 39.8936C30.6571 39.9564 30.7083 40.0074 30.771 40.007C30.833 40.0065 30.8831 39.9556 30.8823 39.8936C30.8819 39.8324 30.8322 39.7833 30.771 39.7825C30.7684 39.7825 30.767 39.7825 30.7632 39.7825ZM30.7632 40.3451C30.7042 40.3487 30.6581 40.3953 30.6577 40.4543C30.6571 40.517 30.7083 40.5699 30.771 40.5695C30.833 40.5691 30.8831 40.5163 30.8823 40.4543C30.8819 40.3931 30.8322 40.3458 30.771 40.3451C30.7684 40.345 30.767 40.345 30.7632 40.3451ZM30.7632 40.9076C30.7042 40.9112 30.6581 40.9579 30.6577 41.0168C30.6571 41.0796 30.7083 41.1324 30.771 41.132C30.833 41.1315 30.8831 41.0788 30.8823 41.0168C30.8819 40.9556 30.8322 40.9083 30.771 40.9076C30.7684 40.9075 30.767 40.9075 30.7632 40.9076ZM30.7515 41.47C30.697 41.4776 30.6573 41.5263 30.6577 41.5815C30.6571 41.6443 30.7083 41.6953 30.771 41.6949C30.833 41.6944 30.8831 41.6435 30.8823 41.5815C30.8819 41.5203 30.8322 41.4707 30.771 41.47C30.7634 41.4694 30.761 41.4694 30.7534 41.47H30.7515ZM30.7515 42.0325C30.697 42.0401 30.6573 42.0889 30.6577 42.1441C30.6582 42.206 30.7086 42.2559 30.771 42.2551C30.8322 42.2546 30.8819 42.2057 30.8823 42.1441C30.8819 42.0828 30.8322 42.0333 30.771 42.0325C30.7634 42.0319 30.761 42.0319 30.7534 42.0325H30.7515ZM30.771 42.5931C30.7083 42.5925 30.6573 42.6437 30.6577 42.7065C30.6582 42.7684 30.7086 42.8179 30.771 42.8175C30.8322 42.817 30.8816 42.7681 30.8823 42.7065C30.8829 42.6445 30.8334 42.5938 30.771 42.5931ZM30.7632 43.1556C30.7035 43.1592 30.657 43.2089 30.6577 43.269C30.6582 43.331 30.7086 43.3808 30.771 43.3804C30.8322 43.3799 30.8819 43.3306 30.8823 43.269C30.8829 43.207 30.833 43.1564 30.771 43.1556C30.7684 43.1555 30.767 43.1555 30.7632 43.1556Z" fill="#333333"/>
</svg>
