<svg width="48" height="48" viewBox="0 0 48 48" fill="none" xmlns="http://www.w3.org/2000/svg">
<path d="M28.906 4.08205C23.986 4.06805 19.122 4.12505 14.146 4.12505C13.277 4.12505 12.58 4.82405 12.58 5.69305V42.554C12.58 43.424 13.277 44.124 14.146 44.124H33.852C34.721 44.124 35.42 43.424 35.42 42.554V5.69405C35.42 4.82405 34.721 4.12405 33.852 4.12405C32.2035 4.09983 30.5548 4.08583 28.906 4.08205ZM14.58 4.62505H33.418C34.249 4.62505 34.92 5.30605 34.92 6.15505V42.094C34.92 42.941 34.25 43.624 33.418 43.624H14.58C13.749 43.624 13.08 42.941 13.08 42.094V6.15405C13.08 5.30605 13.749 4.62405 14.58 4.62405V4.62505ZM20.367 5.06505C20.3377 5.0661 20.3099 5.07862 20.2897 5.09993C20.2695 5.12124 20.2585 5.14962 20.259 5.17898C20.2596 5.20833 20.2716 5.2363 20.2925 5.25688C20.3135 5.27745 20.3417 5.28898 20.371 5.28898C20.4004 5.28898 20.4286 5.27745 20.4495 5.25688C20.4704 5.2363 20.4825 5.20833 20.483 5.17898C20.4835 5.14962 20.4725 5.12124 20.4523 5.09993C20.4321 5.07862 20.4044 5.0661 20.375 5.06505H20.367ZM27.617 5.06505C27.5877 5.0661 27.5599 5.07862 27.5397 5.09993C27.5195 5.12124 27.5085 5.14962 27.509 5.17898C27.5096 5.20833 27.5216 5.2363 27.5425 5.25688C27.5635 5.27745 27.5917 5.28898 27.621 5.28898C27.6504 5.28898 27.6786 5.27745 27.6995 5.25688C27.7204 5.2363 27.7325 5.20833 27.733 5.17898C27.7335 5.14962 27.7225 5.12124 27.7023 5.09993C27.6821 5.07862 27.6544 5.0661 27.625 5.06505H27.617ZM16.707 5.28705C16.4936 5.28171 16.2813 5.31914 16.0826 5.39712C15.8838 5.4751 15.7027 5.59207 15.5499 5.74112C15.3971 5.89018 15.2756 6.06831 15.1927 6.26503C15.1097 6.46174 15.067 6.67307 15.067 6.88655C15.067 7.10003 15.1097 7.31135 15.1927 7.50807C15.2756 7.70478 15.3971 7.88292 15.5499 8.03197C15.7027 8.18103 15.8838 8.29799 16.0826 8.37598C16.2813 8.45396 16.4936 8.49138 16.707 8.48605C17.1314 8.48605 17.5383 8.31748 17.8384 8.01742C18.1384 7.71736 18.307 7.31039 18.307 6.88605C18.307 6.4617 18.1384 6.05473 17.8384 5.75468C17.5383 5.45462 17.1314 5.28605 16.707 5.28605V5.28705ZM24.004 5.28705C23.7906 5.28171 23.5783 5.31914 23.3795 5.39712C23.1808 5.4751 22.9997 5.59207 22.8469 5.74112C22.6941 5.89018 22.5726 6.06831 22.4897 6.26503C22.4067 6.46174 22.364 6.67307 22.364 6.88655C22.364 7.10003 22.4067 7.31135 22.4897 7.50807C22.5726 7.70478 22.6941 7.88292 22.8469 8.03197C22.9997 8.18103 23.1808 8.29799 23.3795 8.37598C23.5783 8.45396 23.7906 8.49138 24.004 8.48605C24.4284 8.48605 24.8353 8.31748 25.1354 8.01742C25.4354 7.71736 25.604 7.31039 25.604 6.88605C25.604 6.4617 25.4354 6.05473 25.1354 5.75468C24.8353 5.45462 24.4284 5.28605 24.004 5.28605V5.28705ZM31.301 5.28705C31.0876 5.28171 30.8753 5.31914 30.6765 5.39712C30.4778 5.4751 30.2967 5.59207 30.1439 5.74112C29.9911 5.89018 29.8696 6.06831 29.7867 6.26503C29.7037 6.46174 29.661 6.67307 29.661 6.88655C29.661 7.10003 29.7037 7.31135 29.7867 7.50807C29.8696 7.70478 29.9911 7.88292 30.1439 8.03197C30.2967 8.18103 30.4778 8.29799 30.6765 8.37598C30.8753 8.45396 31.0876 8.49138 31.301 8.48605C31.7254 8.48605 32.1323 8.31748 32.4324 8.01742C32.7324 7.71736 32.901 7.31039 32.901 6.88605C32.901 6.4617 32.7324 6.05473 32.4324 5.75468C32.1323 5.45462 31.7254 5.28605 31.301 5.28605V5.28705ZM20.367 5.62705C20.3377 5.6281 20.3099 5.64062 20.2897 5.66193C20.2695 5.68324 20.2585 5.71162 20.259 5.74098C20.2596 5.77033 20.2716 5.7983 20.2925 5.81888C20.3135 5.83945 20.3417 5.85098 20.371 5.85098C20.4004 5.85098 20.4286 5.83945 20.4495 5.81888C20.4704 5.7983 20.4825 5.77033 20.483 5.74098C20.4835 5.71162 20.4725 5.68324 20.4523 5.66193C20.4321 5.64062 20.4044 5.6281 20.375 5.62705H20.367ZM27.617 5.62705C27.5877 5.6281 27.5599 5.64062 27.5397 5.66193C27.5195 5.68324 27.5085 5.71162 27.509 5.74098C27.5096 5.77033 27.5216 5.7983 27.5425 5.81888C27.5635 5.83945 27.5917 5.85098 27.621 5.85098C27.6504 5.85098 27.6786 5.83945 27.6995 5.81888C27.7204 5.7983 27.7325 5.77033 27.733 5.74098C27.7335 5.71162 27.7225 5.68324 27.7023 5.66193C27.6821 5.64062 27.6544 5.6281 27.625 5.62705H27.617ZM16.707 5.75005C16.8563 5.74985 17.0042 5.77906 17.1422 5.83602C17.2803 5.89298 17.4057 5.97657 17.5114 6.08201C17.6172 6.18745 17.7011 6.31268 17.7584 6.45055C17.8157 6.58842 17.8453 6.73623 17.8455 6.88555C17.8457 7.03486 17.8165 7.18275 17.7595 7.32077C17.7026 7.4588 17.619 7.58425 17.5136 7.68997C17.4081 7.79569 17.2829 7.8796 17.145 7.93692C17.0071 7.99425 16.8593 8.02385 16.71 8.02405C16.4085 8.02445 16.1191 7.90504 15.9056 7.69209C15.6921 7.47914 15.5719 7.1901 15.5715 6.88855C15.5711 6.587 15.6905 6.29764 15.9035 6.08413C16.1164 5.87062 16.4055 5.75045 16.707 5.75005ZM24.004 5.75005C24.1533 5.74985 24.3012 5.77906 24.4392 5.83602C24.5773 5.89298 24.7027 5.97657 24.8084 6.08201C24.9142 6.18745 24.9981 6.31268 25.0554 6.45055C25.1127 6.58842 25.1423 6.73623 25.1425 6.88555C25.1427 7.03486 25.1135 7.18275 25.0565 7.32077C24.9996 7.4588 24.916 7.58425 24.8106 7.68997C24.7051 7.79569 24.5799 7.8796 24.442 7.93692C24.3041 7.99425 24.1563 8.02385 24.007 8.02405C23.7055 8.02445 23.4161 7.90504 23.2026 7.69209C22.9891 7.47914 22.8689 7.1901 22.8685 6.88855C22.8681 6.587 22.9875 6.29764 23.2005 6.08413C23.4134 5.87062 23.7025 5.75045 24.004 5.75005ZM31.301 5.75005C31.4503 5.74985 31.5982 5.77906 31.7362 5.83602C31.8743 5.89298 31.9997 5.97657 32.1054 6.08201C32.2112 6.18745 32.2951 6.31268 32.3524 6.45055C32.4097 6.58842 32.4393 6.73623 32.4395 6.88555C32.4397 7.03486 32.4105 7.18275 32.3535 7.32077C32.2966 7.4588 32.213 7.58425 32.1076 7.68997C32.0021 7.79569 31.8769 7.8796 31.739 7.93692C31.6011 7.99425 31.4533 8.02385 31.304 8.02405C31.0025 8.02458 30.7131 7.9053 30.4995 7.69244C30.2858 7.47959 30.1655 7.1906 30.165 6.88905C30.1645 6.5875 30.2838 6.29809 30.4966 6.08448C30.7095 5.87088 30.9985 5.75058 31.3 5.75005H31.301ZM20.357 6.19005C20.3359 6.1933 20.3161 6.20255 20.3 6.2167C20.2839 6.23085 20.2723 6.24931 20.2664 6.2699C20.2605 6.29048 20.2606 6.31232 20.2667 6.33284C20.2728 6.35335 20.2847 6.37168 20.301 6.38565C20.3172 6.39961 20.3371 6.40863 20.3583 6.41164C20.3795 6.41465 20.4011 6.41151 20.4206 6.40261C20.4401 6.39371 20.4566 6.37941 20.4682 6.36141C20.4798 6.34341 20.486 6.32246 20.486 6.30105C20.486 6.23905 20.436 6.19105 20.375 6.18905H20.357V6.19005ZM27.607 6.19005C27.5859 6.1933 27.5661 6.20255 27.55 6.2167C27.5339 6.23085 27.5223 6.24931 27.5164 6.2699C27.5105 6.29048 27.5106 6.31232 27.5167 6.33284C27.5228 6.35335 27.5347 6.37168 27.551 6.38565C27.5672 6.39961 27.5871 6.40863 27.6083 6.41164C27.6295 6.41465 27.6511 6.41151 27.6706 6.40261C27.6901 6.39371 27.7066 6.37941 27.7182 6.36141C27.7298 6.34341 27.736 6.32246 27.736 6.30105C27.736 6.23905 27.686 6.19105 27.625 6.18905H27.607V6.19005ZM20.377 6.75005C20.3622 6.74992 20.3476 6.7527 20.3339 6.75823C20.3202 6.76376 20.3077 6.77194 20.2972 6.78229C20.2866 6.79264 20.2782 6.80497 20.2725 6.81857C20.2667 6.83217 20.2636 6.84677 20.2635 6.86155C20.2634 6.87632 20.2662 6.89098 20.2717 6.90468C20.2772 6.91837 20.2854 6.93085 20.2958 6.94139C20.3061 6.95193 20.3184 6.96033 20.332 6.9661C20.3456 6.97188 20.3602 6.97492 20.375 6.97505C20.4049 6.97531 20.4336 6.96371 20.4549 6.9428C20.4761 6.92189 20.4883 6.89338 20.4885 6.86355C20.4888 6.83371 20.4772 6.80499 20.4563 6.7837C20.4354 6.76242 20.4069 6.75031 20.377 6.75005ZM27.627 6.75005C27.6122 6.74992 27.5976 6.7527 27.5839 6.75823C27.5702 6.76376 27.5577 6.77194 27.5472 6.78229C27.5259 6.8032 27.5138 6.83171 27.5135 6.86155C27.5133 6.89138 27.5249 6.9201 27.5458 6.94139C27.5667 6.96268 27.5952 6.97478 27.625 6.97505C27.6549 6.97531 27.6836 6.96371 27.7049 6.9428C27.7261 6.92189 27.7383 6.89338 27.7385 6.86355C27.7388 6.83371 27.7272 6.80499 27.7063 6.7837C27.6854 6.76242 27.6569 6.75031 27.627 6.75005ZM20.367 7.31205C20.3377 7.3131 20.3099 7.32562 20.2897 7.34693C20.2695 7.36824 20.2585 7.39662 20.259 7.42598C20.2596 7.45533 20.2716 7.4833 20.2925 7.50388C20.3135 7.52445 20.3417 7.53598 20.371 7.53598C20.4004 7.53598 20.4286 7.52445 20.4495 7.50388C20.4704 7.4833 20.4825 7.45533 20.483 7.42598C20.4835 7.39662 20.4725 7.36824 20.4523 7.34693C20.4321 7.32562 20.4044 7.3131 20.375 7.31205H20.367ZM27.617 7.31205C27.5877 7.3131 27.5599 7.32562 27.5397 7.34693C27.5195 7.36824 27.5085 7.39662 27.509 7.42598C27.5096 7.45533 27.5216 7.4833 27.5425 7.50388C27.5635 7.52445 27.5917 7.53598 27.621 7.53598C27.6504 7.53598 27.6786 7.52445 27.6995 7.50388C27.7204 7.4833 27.7325 7.45533 27.733 7.42598C27.7335 7.39662 27.7225 7.36824 27.7023 7.34693C27.6821 7.32562 27.6544 7.3131 27.625 7.31205H27.617ZM20.367 7.87205C20.3377 7.8731 20.3099 7.88562 20.2897 7.90693C20.2695 7.92824 20.2585 7.95662 20.259 7.98598C20.2596 8.01533 20.2716 8.0433 20.2925 8.06388C20.3135 8.08445 20.3417 8.09598 20.371 8.09598C20.4004 8.09598 20.4286 8.08445 20.4495 8.06388C20.4704 8.0433 20.4825 8.01533 20.483 7.98598C20.4835 7.95662 20.4725 7.92824 20.4523 7.90693C20.4321 7.88562 20.4044 7.8731 20.375 7.87205H20.367ZM27.617 7.87205C27.5877 7.8731 27.5599 7.88562 27.5397 7.90693C27.5195 7.92824 27.5085 7.95662 27.509 7.98598C27.5096 8.01533 27.5216 8.0433 27.5425 8.06388C27.5635 8.08445 27.5917 8.09598 27.621 8.09598C27.6504 8.09598 27.6786 8.08445 27.6995 8.06388C27.7204 8.0433 27.7325 8.01533 27.733 7.98598C27.7335 7.95662 27.7225 7.92824 27.7023 7.90693C27.6821 7.88562 27.6544 7.8731 27.625 7.87205H27.617ZM20.367 8.43505C20.3377 8.4361 20.3099 8.44862 20.2897 8.46993C20.2695 8.49124 20.2585 8.51962 20.259 8.54898C20.2596 8.57833 20.2716 8.6063 20.2925 8.62688C20.3135 8.64745 20.3417 8.65898 20.371 8.65898C20.4004 8.65898 20.4286 8.64745 20.4495 8.62688C20.4704 8.6063 20.4825 8.57833 20.483 8.54898C20.4835 8.51962 20.4725 8.49124 20.4523 8.46993C20.4321 8.44862 20.4044 8.4361 20.375 8.43505H20.367ZM27.617 8.43505C27.5877 8.4361 27.5599 8.44862 27.5397 8.46993C27.5195 8.49124 27.5085 8.51962 27.509 8.54898C27.5096 8.57833 27.5216 8.6063 27.5425 8.62688C27.5635 8.64745 27.5917 8.65898 27.621 8.65898C27.6504 8.65898 27.6786 8.64745 27.6995 8.62688C27.7204 8.6063 27.7325 8.57833 27.733 8.54898C27.7335 8.51962 27.7225 8.49124 27.7023 8.46993C27.6821 8.44862 27.6544 8.4361 27.625 8.43505H27.617ZM20.367 8.99805C20.3523 8.99897 20.3379 9.00277 20.3247 9.00925C20.3115 9.01573 20.2996 9.02475 20.2899 9.0358C20.2801 9.04685 20.2726 9.05971 20.2679 9.07365C20.2631 9.08759 20.2611 9.10234 20.262 9.11705C20.2629 9.13175 20.2667 9.14614 20.2732 9.15937C20.2797 9.17261 20.2887 9.18444 20.2998 9.19419C20.3108 9.20394 20.3237 9.21142 20.3376 9.2162C20.3516 9.22098 20.3663 9.22297 20.381 9.22205C20.4107 9.22019 20.4385 9.20661 20.4582 9.18429C20.4779 9.16198 20.4879 9.13275 20.486 9.10305C20.4842 9.07334 20.4706 9.04559 20.4483 9.0259C20.4259 9.00621 20.3967 8.99619 20.367 8.99805ZM27.617 8.99805C27.6023 8.99897 27.5879 9.00277 27.5747 9.00925C27.5615 9.01573 27.5496 9.02475 27.5399 9.0358C27.5301 9.04685 27.5226 9.05971 27.5179 9.07365C27.5131 9.08759 27.5111 9.10234 27.512 9.11705C27.5129 9.13175 27.5167 9.14614 27.5232 9.15937C27.5297 9.17261 27.5387 9.18444 27.5498 9.19419C27.5608 9.20394 27.5737 9.21142 27.5876 9.2162C27.6016 9.22098 27.6163 9.22297 27.631 9.22205C27.6607 9.22019 27.6885 9.20661 27.7082 9.18429C27.7279 9.16198 27.7379 9.13275 27.736 9.10305C27.7342 9.07334 27.7206 9.04559 27.6983 9.0259C27.6759 9.00621 27.6467 8.99619 27.617 8.99805ZM16.707 9.12305C16.4936 9.11771 16.2813 9.15514 16.0826 9.23312C15.8838 9.3111 15.7027 9.42807 15.5499 9.57712C15.3971 9.72618 15.2756 9.90431 15.1927 10.101C15.1097 10.2977 15.067 10.5091 15.067 10.7225C15.067 10.936 15.1097 11.1474 15.1927 11.3441C15.2756 11.5408 15.3971 11.7189 15.5499 11.868C15.7027 12.017 15.8838 12.134 16.0826 12.212C16.2813 12.29 16.4936 12.3274 16.707 12.322C17.1314 12.322 17.5383 12.1535 17.8384 11.8534C18.1384 11.5534 18.307 11.1464 18.307 10.722C18.307 10.2977 18.1384 9.89074 17.8384 9.59068C17.5383 9.29062 17.1314 9.12205 16.707 9.12205V9.12305ZM24.004 9.12305C23.7906 9.11771 23.5783 9.15514 23.3795 9.23312C23.1808 9.3111 22.9997 9.42807 22.8469 9.57712C22.6941 9.72618 22.5726 9.90431 22.4897 10.101C22.4067 10.2977 22.364 10.5091 22.364 10.7225C22.364 10.936 22.4067 11.1474 22.4897 11.3441C22.5726 11.5408 22.6941 11.7189 22.8469 11.868C22.9997 12.017 23.1808 12.134 23.3795 12.212C23.5783 12.29 23.7906 12.3274 24.004 12.322C24.4284 12.322 24.8353 12.1535 25.1354 11.8534C25.4354 11.5534 25.604 11.1464 25.604 10.722C25.604 10.2977 25.4354 9.89074 25.1354 9.59068C24.8353 9.29062 24.4284 9.12205 24.004 9.12205V9.12305ZM31.301 9.12305C31.0876 9.11771 30.8753 9.15514 30.6765 9.23312C30.4778 9.3111 30.2967 9.42807 30.1439 9.57712C29.9911 9.72618 29.8696 9.90431 29.7867 10.101C29.7037 10.2977 29.661 10.5091 29.661 10.7225C29.661 10.936 29.7037 11.1474 29.7867 11.3441C29.8696 11.5408 29.9911 11.7189 30.1439 11.868C30.2967 12.017 30.4778 12.134 30.6765 12.212C30.8753 12.29 31.0876 12.3274 31.301 12.322C31.7254 12.322 32.1323 12.1535 32.4324 11.8534C32.7324 11.5534 32.901 11.1464 32.901 10.722C32.901 10.2977 32.7324 9.89074 32.4324 9.59068C32.1323 9.29062 31.7254 9.12205 31.301 9.12205V9.12305ZM20.367 9.56005C20.3449 9.56142 20.3237 9.56925 20.3061 9.58256C20.2884 9.59587 20.275 9.61407 20.2676 9.63491C20.2602 9.65576 20.259 9.67832 20.2643 9.69981C20.2696 9.72129 20.2811 9.74076 20.2973 9.75578C20.3135 9.77081 20.3338 9.78073 20.3557 9.78433C20.3775 9.78792 20.3999 9.78503 20.4201 9.77601C20.4403 9.76698 20.4574 9.75223 20.4693 9.73357C20.4812 9.71491 20.4874 9.69317 20.487 9.67105C20.4868 9.65581 20.4834 9.64078 20.4772 9.62688C20.471 9.61298 20.4619 9.6005 20.4507 9.5902C20.4395 9.5799 20.4263 9.572 20.4119 9.56699C20.3975 9.56198 20.3822 9.55996 20.367 9.56105V9.56005ZM27.617 9.56005C27.5949 9.56142 27.5737 9.56925 27.5561 9.58256C27.5384 9.59587 27.525 9.61407 27.5176 9.63491C27.5102 9.65576 27.509 9.67832 27.5143 9.69981C27.5196 9.72129 27.5311 9.74076 27.5473 9.75578C27.5635 9.77081 27.5838 9.78073 27.6057 9.78433C27.6275 9.78792 27.6499 9.78503 27.6701 9.77601C27.6903 9.76698 27.7074 9.75223 27.7193 9.73357C27.7312 9.71491 27.7374 9.69317 27.737 9.67105C27.7368 9.65581 27.7334 9.64078 27.7272 9.62688C27.721 9.61298 27.7119 9.6005 27.7007 9.5902C27.6895 9.5799 27.6763 9.572 27.6619 9.56699C27.6475 9.56198 27.6322 9.55996 27.617 9.56105V9.56005ZM16.707 9.58405C17.0031 9.59282 17.2842 9.71662 17.4905 9.92917C17.6969 10.1417 17.8123 10.4263 17.8123 10.7225C17.8123 11.0188 17.6969 11.3034 17.4905 11.5159C17.2842 11.7285 17.0031 11.8523 16.707 11.861C16.4109 11.8523 16.1299 11.7285 15.9235 11.5159C15.7172 11.3034 15.6018 11.0188 15.6018 10.7225C15.6018 10.4263 15.7172 10.1417 15.9235 9.92917C16.1299 9.71662 16.4109 9.59282 16.707 9.58405ZM24.004 9.58405C24.3001 9.59282 24.5812 9.71662 24.7875 9.92917C24.9939 10.1417 25.1093 10.4263 25.1093 10.7225C25.1093 11.0188 24.9939 11.3034 24.7875 11.5159C24.5812 11.7285 24.3001 11.8523 24.004 11.861C23.7079 11.8523 23.4269 11.7285 23.2205 11.5159C23.0142 11.3034 22.8988 11.0188 22.8988 10.7225C22.8988 10.4263 23.0142 10.1417 23.2205 9.92917C23.4269 9.71662 23.7079 9.59282 24.004 9.58405ZM31.301 9.58405C31.603 9.58405 31.8925 9.704 32.1061 9.91751C32.3196 10.131 32.4395 10.4206 32.4395 10.7225C32.4395 11.0245 32.3196 11.3141 32.1061 11.5276C31.8925 11.7411 31.603 11.861 31.301 11.861C31.0049 11.8523 30.7239 11.7285 30.5175 11.5159C30.3112 11.3034 30.1958 11.0188 30.1958 10.7225C30.1958 10.4263 30.3112 10.1417 30.5175 9.92917C30.7239 9.71662 31.0049 9.59282 31.301 9.58405ZM20.356 10.123C20.3294 10.1276 20.3054 10.1415 20.2881 10.1622C20.2709 10.1829 20.2616 10.2091 20.262 10.236C20.262 10.2658 20.2738 10.2942 20.2948 10.3152C20.3158 10.3362 20.3443 10.348 20.374 10.348C20.4037 10.348 20.4322 10.3362 20.4532 10.3152C20.4742 10.2942 20.486 10.2658 20.486 10.236C20.4858 10.2065 20.4741 10.1782 20.4533 10.1571C20.4326 10.136 20.4046 10.1238 20.375 10.123H20.355H20.356ZM27.606 10.123C27.5794 10.1276 27.5554 10.1415 27.5381 10.1622C27.5209 10.1829 27.5116 10.2091 27.512 10.236C27.512 10.2658 27.5238 10.2942 27.5448 10.3152C27.5658 10.3362 27.5943 10.348 27.624 10.348C27.6537 10.348 27.6822 10.3362 27.7032 10.3152C27.7242 10.2942 27.736 10.2658 27.736 10.236C27.7358 10.2065 27.7241 10.1782 27.7033 10.1571C27.6826 10.136 27.6546 10.1238 27.625 10.123H27.605H27.606ZM20.377 10.683C20.362 10.6832 20.3471 10.6863 20.3332 10.6922C20.3194 10.6981 20.3068 10.7067 20.2963 10.7175C20.2858 10.7283 20.2776 10.741 20.272 10.755C20.2665 10.769 20.2638 10.784 20.264 10.799C20.264 10.861 20.314 10.909 20.377 10.908C20.3915 10.9082 20.406 10.9054 20.4194 10.9C20.4329 10.8945 20.4451 10.8864 20.4554 10.8762C20.4658 10.866 20.474 10.8538 20.4795 10.8404C20.4851 10.827 20.488 10.8126 20.488 10.798C20.4883 10.7682 20.4768 10.7393 20.456 10.7178C20.4353 10.6963 20.4069 10.6838 20.377 10.683ZM27.627 10.683C27.612 10.6832 27.5971 10.6863 27.5832 10.6922C27.5694 10.6981 27.5568 10.7067 27.5463 10.7175C27.5358 10.7283 27.5276 10.741 27.522 10.755C27.5165 10.769 27.5138 10.784 27.514 10.799C27.514 10.861 27.564 10.909 27.627 10.908C27.6415 10.9082 27.656 10.9054 27.6694 10.9C27.6829 10.8945 27.6951 10.8864 27.7054 10.8762C27.7158 10.866 27.724 10.8538 27.7295 10.8404C27.7351 10.827 27.738 10.8126 27.738 10.798C27.7383 10.7682 27.7268 10.7393 27.706 10.7178C27.6853 10.6963 27.6569 10.6838 27.627 10.683ZM20.377 11.246C20.3622 11.2459 20.3476 11.2487 20.3339 11.2542C20.3202 11.2598 20.3077 11.2679 20.2972 11.2783C20.2866 11.2886 20.2782 11.301 20.2725 11.3146C20.2667 11.3282 20.2636 11.3428 20.2635 11.3575C20.2634 11.3723 20.2662 11.387 20.2717 11.4007C20.2772 11.4144 20.2854 11.4269 20.2958 11.4374C20.3061 11.4479 20.3184 11.4563 20.332 11.4621C20.3456 11.4679 20.3602 11.4709 20.375 11.471C20.4049 11.4713 20.4336 11.4597 20.4549 11.4388C20.4761 11.4179 20.4883 11.3894 20.4885 11.3595C20.4888 11.3297 20.4772 11.301 20.4563 11.2797C20.4354 11.2584 20.4069 11.2463 20.377 11.246ZM27.627 11.246C27.6122 11.2459 27.5976 11.2487 27.5839 11.2542C27.5702 11.2598 27.5577 11.2679 27.5472 11.2783C27.5259 11.2992 27.5138 11.3277 27.5135 11.3575C27.5133 11.3874 27.5249 11.4161 27.5458 11.4374C27.5667 11.4587 27.5952 11.4708 27.625 11.471C27.6549 11.4713 27.6836 11.4597 27.7049 11.4388C27.7261 11.4179 27.7383 11.3894 27.7385 11.3595C27.7388 11.3297 27.7272 11.301 27.7063 11.2797C27.6854 11.2584 27.6569 11.2463 27.627 11.246ZM20.367 11.808C20.3387 11.8115 20.3127 11.8255 20.2942 11.8472C20.2757 11.8689 20.266 11.8967 20.267 11.9252C20.268 11.9537 20.2796 11.9808 20.2996 12.0011C20.3196 12.0215 20.3465 12.0336 20.375 12.035C20.436 12.035 20.485 11.983 20.486 11.922C20.4863 11.9066 20.4834 11.8912 20.4775 11.8769C20.4715 11.8626 20.4627 11.8497 20.4515 11.8389C20.4403 11.8282 20.4271 11.82 20.4125 11.8146C20.398 11.8093 20.3825 11.8071 20.367 11.808ZM27.617 11.808C27.5887 11.8115 27.5627 11.8255 27.5442 11.8472C27.5257 11.8689 27.516 11.8967 27.517 11.9252C27.518 11.9537 27.5296 11.9808 27.5496 12.0011C27.5696 12.0215 27.5965 12.0336 27.625 12.035C27.686 12.035 27.735 11.983 27.736 11.922C27.7363 11.9066 27.7334 11.8912 27.7275 11.8769C27.7215 11.8626 27.7127 11.8497 27.7015 11.8389C27.6903 11.8282 27.6771 11.82 27.6625 11.8146C27.648 11.8093 27.6325 11.8071 27.617 11.808ZM20.367 12.371C20.3387 12.3745 20.3127 12.3885 20.2942 12.4102C20.2757 12.4319 20.266 12.4597 20.267 12.4882C20.268 12.5167 20.2796 12.5438 20.2996 12.5641C20.3196 12.5845 20.3465 12.5966 20.375 12.598C20.436 12.597 20.485 12.545 20.486 12.484C20.4861 12.4693 20.4834 12.4548 20.4779 12.4411C20.4724 12.4275 20.4642 12.4151 20.4539 12.4046C20.4436 12.3941 20.4313 12.3857 20.4178 12.38C20.4043 12.3742 20.3897 12.3712 20.375 12.371H20.367ZM27.617 12.371C27.5887 12.3745 27.5627 12.3885 27.5442 12.4102C27.5257 12.4319 27.516 12.4597 27.517 12.4882C27.518 12.5167 27.5296 12.5438 27.5496 12.5641C27.5696 12.5845 27.5965 12.5966 27.625 12.598C27.686 12.597 27.735 12.545 27.736 12.484C27.7361 12.4693 27.7334 12.4548 27.7279 12.4411C27.7224 12.4275 27.7142 12.4151 27.7039 12.4046C27.6936 12.3941 27.6813 12.3857 27.6678 12.38C27.6543 12.3742 27.6397 12.3712 27.625 12.371H27.617ZM20.367 12.933C20.3377 12.9341 20.3099 12.9466 20.2897 12.9679C20.2695 12.9892 20.2585 13.0176 20.259 13.047C20.2596 13.0763 20.2716 13.1043 20.2925 13.1249C20.3135 13.1454 20.3417 13.157 20.371 13.157C20.4004 13.157 20.4286 13.1454 20.4495 13.1249C20.4704 13.1043 20.4825 13.0763 20.483 13.047C20.4835 13.0176 20.4725 12.9892 20.4523 12.9679C20.4321 12.9466 20.4044 12.9341 20.375 12.933H20.367ZM27.617 12.933C27.5877 12.9341 27.5599 12.9466 27.5397 12.9679C27.5195 12.9892 27.5085 13.0176 27.509 13.047C27.5096 13.0763 27.5216 13.1043 27.5425 13.1249C27.5635 13.1454 27.5917 13.157 27.621 13.157C27.6504 13.157 27.6786 13.1454 27.6995 13.1249C27.7204 13.1043 27.7325 13.0763 27.733 13.047C27.7335 13.0176 27.7225 12.9892 27.7023 12.9679C27.6821 12.9466 27.6544 12.9341 27.625 12.933H27.617ZM16.707 12.959C16.4936 12.9537 16.2813 12.9911 16.0826 13.0691C15.8838 13.1471 15.7027 13.2641 15.5499 13.4131C15.3971 13.5622 15.2756 13.7403 15.1927 13.937C15.1097 14.1337 15.067 14.3451 15.067 14.5585C15.067 14.772 15.1097 14.9834 15.1927 15.1801C15.2756 15.3768 15.3971 15.5549 15.5499 15.704C15.7027 15.853 15.8838 15.97 16.0826 16.048C16.2813 16.126 16.4936 16.1634 16.707 16.158C17.1314 16.158 17.5383 15.9895 17.8384 15.6894C18.1384 15.3894 18.307 14.9824 18.307 14.558C18.307 14.1337 18.1384 13.7267 17.8384 13.4267C17.5383 13.1266 17.1314 12.958 16.707 12.958V12.959ZM24.004 12.959C23.7906 12.9537 23.5783 12.9911 23.3795 13.0691C23.1808 13.1471 22.9997 13.2641 22.8469 13.4131C22.6941 13.5622 22.5726 13.7403 22.4897 13.937C22.4067 14.1337 22.364 14.3451 22.364 14.5585C22.364 14.772 22.4067 14.9834 22.4897 15.1801C22.5726 15.3768 22.6941 15.5549 22.8469 15.704C22.9997 15.853 23.1808 15.97 23.3795 16.048C23.5783 16.126 23.7906 16.1634 24.004 16.158C24.4284 16.158 24.8353 15.9895 25.1354 15.6894C25.4354 15.3894 25.604 14.9824 25.604 14.558C25.604 14.1337 25.4354 13.7267 25.1354 13.4267C24.8353 13.1266 24.4284 12.958 24.004 12.958V12.959ZM31.301 12.959C31.0876 12.9537 30.8753 12.9911 30.6765 13.0691C30.4778 13.1471 30.2967 13.2641 30.1439 13.4131C29.9911 13.5622 29.8696 13.7403 29.7867 13.937C29.7037 14.1337 29.661 14.3451 29.661 14.5585C29.661 14.772 29.7037 14.9834 29.7867 15.1801C29.8696 15.3768 29.9911 15.5549 30.1439 15.704C30.2967 15.853 30.4778 15.97 30.6765 16.048C30.8753 16.126 31.0876 16.1634 31.301 16.158C31.7254 16.158 32.1323 15.9895 32.4324 15.6894C32.7324 15.3894 32.901 14.9824 32.901 14.558C32.901 14.1337 32.7324 13.7267 32.4324 13.4267C32.1323 13.1266 31.7254 12.958 31.301 12.958V12.959ZM16.707 13.422C16.8563 13.4219 17.0042 13.4511 17.1422 13.508C17.2803 13.565 17.4057 13.6486 17.5114 13.754C17.6172 13.8594 17.7011 13.9847 17.7584 14.1226C17.8157 14.2604 17.8453 14.4082 17.8455 14.5575C17.8457 14.7069 17.8165 14.8548 17.7595 14.9928C17.7026 15.1308 17.619 15.2562 17.5136 15.362C17.4081 15.4677 17.2829 15.5516 17.145 15.6089C17.0071 15.6662 16.8593 15.6959 16.71 15.696C16.4085 15.6964 16.1191 15.577 15.9056 15.3641C15.6921 15.1511 15.5719 14.8621 15.5715 14.5605C15.5711 14.259 15.6905 13.9696 15.9035 13.7561C16.1164 13.5426 16.4055 13.4224 16.707 13.422ZM24.004 13.422C24.1533 13.4219 24.3012 13.4511 24.4392 13.508C24.5773 13.565 24.7027 13.6486 24.8084 13.754C24.9142 13.8594 24.9981 13.9847 25.0554 14.1226C25.1127 14.2604 25.1423 14.4082 25.1425 14.5575C25.1427 14.7069 25.1135 14.8548 25.0565 14.9928C24.9996 15.1308 24.916 15.2562 24.8106 15.362C24.7051 15.4677 24.5799 15.5516 24.442 15.6089C24.3041 15.6662 24.1563 15.6959 24.007 15.696C23.7055 15.6964 23.4161 15.577 23.2026 15.3641C22.9891 15.1511 22.8689 14.8621 22.8685 14.5605C22.8681 14.259 22.9875 13.9696 23.2005 13.7561C23.4134 13.5426 23.7025 13.4224 24.004 13.422ZM31.301 13.422C31.4503 13.4219 31.5982 13.4511 31.7362 13.508C31.8743 13.565 31.9997 13.6486 32.1054 13.754C32.2112 13.8594 32.2951 13.9847 32.3524 14.1226C32.4097 14.2604 32.4393 14.4082 32.4395 14.5575C32.4397 14.7069 32.4105 14.8548 32.3535 14.9928C32.2966 15.1308 32.213 15.2562 32.1076 15.362C32.0021 15.4677 31.8769 15.5516 31.739 15.6089C31.6011 15.6662 31.4533 15.6959 31.304 15.696C31.0025 15.6964 30.7131 15.577 30.4996 15.3641C30.2861 15.1511 30.1659 14.8621 30.1655 14.5605C30.1651 14.259 30.2845 13.9696 30.4975 13.7561C30.7104 13.5426 30.9995 13.4224 31.301 13.422ZM20.367 13.496C20.3377 13.4971 20.3099 13.5096 20.2897 13.5309C20.2695 13.5522 20.2585 13.5806 20.259 13.61C20.2596 13.6393 20.2716 13.6673 20.2925 13.6879C20.3135 13.7084 20.3417 13.72 20.371 13.72C20.4004 13.72 20.4286 13.7084 20.4495 13.6879C20.4704 13.6673 20.4825 13.6393 20.483 13.61C20.4835 13.5806 20.4725 13.5522 20.4523 13.5309C20.4321 13.5096 20.4044 13.4971 20.375 13.496H20.367ZM27.617 13.496C27.5877 13.4971 27.5599 13.5096 27.5397 13.5309C27.5195 13.5522 27.5085 13.5806 27.509 13.61C27.5096 13.6393 27.5216 13.6673 27.5425 13.6879C27.5635 13.7084 27.5917 13.72 27.621 13.72C27.6504 13.72 27.6786 13.7084 27.6995 13.6879C27.7204 13.6673 27.7325 13.6393 27.733 13.61C27.7335 13.5806 27.7225 13.5522 27.7023 13.5309C27.6821 13.5096 27.6544 13.4971 27.625 13.496H27.617ZM20.367 14.058C20.3372 14.0599 20.3093 14.0735 20.2895 14.0959C20.2697 14.1184 20.2597 14.1477 20.2615 14.1775C20.2634 14.2074 20.277 14.2353 20.2994 14.255C20.3218 14.2748 20.3512 14.2849 20.381 14.283C20.3958 14.2821 20.4102 14.2783 20.4235 14.2718C20.4368 14.2653 20.4487 14.2562 20.4585 14.2451C20.4683 14.2341 20.4758 14.2211 20.4806 14.2071C20.4854 14.1931 20.4874 14.1783 20.4865 14.1635C20.4856 14.1488 20.4818 14.1343 20.4753 14.121C20.4688 14.1077 20.4597 14.0958 20.4486 14.086C20.4375 14.0763 20.4246 14.0687 20.4106 14.0639C20.3966 14.0591 20.3818 14.0571 20.367 14.058ZM27.617 14.058C27.5872 14.0599 27.5593 14.0735 27.5395 14.0959C27.5197 14.1184 27.5097 14.1477 27.5115 14.1775C27.5134 14.2074 27.527 14.2353 27.5494 14.255C27.5718 14.2748 27.6012 14.2849 27.631 14.283C27.6458 14.2821 27.6602 14.2783 27.6735 14.2718C27.6868 14.2653 27.6987 14.2562 27.7085 14.2451C27.7183 14.2341 27.7258 14.2211 27.7306 14.2071C27.7354 14.1931 27.7374 14.1783 27.7365 14.1635C27.7356 14.1488 27.7318 14.1343 27.7253 14.121C27.7188 14.1077 27.7097 14.0958 27.6986 14.086C27.6875 14.0763 27.6746 14.0687 27.6606 14.0639C27.6466 14.0591 27.6318 14.0571 27.617 14.058ZM20.355 14.621C20.3288 14.6254 20.305 14.6389 20.2879 14.6593C20.2709 14.6797 20.2617 14.7055 20.262 14.732C20.2618 14.7542 20.2682 14.7759 20.2803 14.7944C20.2925 14.813 20.3098 14.8275 20.3302 14.8361C20.3506 14.8448 20.3731 14.8472 20.3949 14.8431C20.4166 14.839 20.4367 14.8285 20.4525 14.8129C20.4683 14.7974 20.4791 14.7776 20.4837 14.7559C20.4882 14.7342 20.4862 14.7117 20.4779 14.6911C20.4696 14.6706 20.4554 14.653 20.4371 14.6405C20.4188 14.628 20.3972 14.6212 20.375 14.621H20.355ZM27.605 14.621C27.5788 14.6254 27.555 14.6389 27.5379 14.6593C27.5209 14.6797 27.5117 14.7055 27.512 14.732C27.5118 14.7542 27.5182 14.7759 27.5303 14.7944C27.5425 14.813 27.5598 14.8275 27.5802 14.8361C27.6006 14.8448 27.6231 14.8472 27.6449 14.8431C27.6666 14.839 27.6867 14.8285 27.7025 14.8129C27.7183 14.7974 27.7291 14.7776 27.7337 14.7559C27.7382 14.7342 27.7362 14.7117 27.7279 14.6911C27.7196 14.6706 27.7054 14.653 27.6871 14.6405C27.6688 14.628 27.6472 14.6212 27.625 14.621H27.605ZM20.355 15.183C20.3339 15.1865 20.3143 15.1959 20.2983 15.2101C20.2824 15.2244 20.2709 15.2429 20.2652 15.2634C20.2594 15.284 20.2597 15.3058 20.2659 15.3262C20.2721 15.3467 20.284 15.3649 20.3003 15.3788C20.3165 15.3926 20.3364 15.4016 20.3576 15.4045C20.3787 15.4075 20.4003 15.4043 20.4197 15.3954C20.4391 15.3865 20.4556 15.3722 20.4672 15.3543C20.4787 15.3363 20.4849 15.3154 20.485 15.294C20.485 15.234 20.436 15.184 20.375 15.184H20.355V15.183ZM27.605 15.183C27.5839 15.1865 27.5643 15.1959 27.5483 15.2101C27.5324 15.2244 27.5209 15.2429 27.5152 15.2634C27.5094 15.284 27.5097 15.3058 27.5159 15.3262C27.5221 15.3467 27.534 15.3649 27.5503 15.3788C27.5665 15.3926 27.5864 15.4016 27.6076 15.4045C27.6287 15.4075 27.6503 15.4043 27.6697 15.3954C27.6891 15.3865 27.7056 15.3722 27.7172 15.3543C27.7287 15.3363 27.7349 15.3154 27.735 15.294C27.735 15.234 27.686 15.184 27.625 15.184H27.605V15.183ZM20.377 15.744C20.3622 15.7439 20.3476 15.7467 20.3339 15.7522C20.3202 15.7578 20.3077 15.7659 20.2972 15.7763C20.2759 15.7972 20.2638 15.8257 20.2635 15.8555C20.2633 15.8854 20.2749 15.9141 20.2958 15.9354C20.3167 15.9567 20.3452 15.9688 20.375 15.969C20.4049 15.9693 20.4336 15.9577 20.4549 15.9368C20.4761 15.9159 20.4883 15.8874 20.4885 15.8575C20.4888 15.8277 20.4772 15.799 20.4563 15.7777C20.4354 15.7564 20.4069 15.7443 20.377 15.744ZM27.627 15.744C27.6122 15.7439 27.5976 15.7467 27.5839 15.7522C27.5702 15.7578 27.5577 15.7659 27.5472 15.7763C27.5259 15.7972 27.5138 15.8257 27.5135 15.8555C27.5133 15.8854 27.5249 15.9141 27.5458 15.9354C27.5667 15.9567 27.5952 15.9688 27.625 15.969C27.6549 15.9693 27.6836 15.9577 27.7049 15.9368C27.7261 15.9159 27.7383 15.8874 27.7385 15.8575C27.7388 15.8277 27.7272 15.799 27.7063 15.7777C27.6854 15.7564 27.6569 15.7443 27.627 15.744ZM20.367 16.307C20.3384 16.3088 20.3115 16.3216 20.292 16.3426C20.2724 16.3636 20.2617 16.3913 20.262 16.42C20.262 16.482 20.312 16.532 20.375 16.531C20.3897 16.5305 20.4042 16.5271 20.4176 16.521C20.431 16.5149 20.443 16.5062 20.453 16.4954C20.4631 16.4846 20.4709 16.472 20.476 16.4582C20.4812 16.4444 20.4835 16.4298 20.483 16.415C20.4825 16.4003 20.4791 16.3859 20.473 16.3725C20.4668 16.3591 20.4582 16.3471 20.4474 16.337C20.4366 16.327 20.424 16.3192 20.4102 16.314C20.3964 16.3089 20.3817 16.3065 20.367 16.307ZM27.617 16.307C27.5884 16.3088 27.5615 16.3216 27.542 16.3426C27.5224 16.3636 27.5117 16.3913 27.512 16.42C27.512 16.482 27.562 16.532 27.625 16.531C27.6397 16.5305 27.6542 16.5271 27.6676 16.521C27.681 16.5149 27.693 16.5062 27.703 16.4954C27.7131 16.4846 27.7209 16.472 27.726 16.4582C27.7312 16.4444 27.7335 16.4298 27.733 16.415C27.7325 16.4003 27.7291 16.3859 27.723 16.3725C27.7168 16.3591 27.7082 16.3471 27.6974 16.337C27.6866 16.327 27.674 16.3192 27.6602 16.314C27.6464 16.3089 27.6317 16.3065 27.617 16.307ZM16.707 16.795C16.4936 16.7897 16.2813 16.8271 16.0826 16.9051C15.8838 16.9831 15.7027 17.1001 15.5499 17.2491C15.3971 17.3982 15.2756 17.5763 15.1927 17.773C15.1097 17.9697 15.067 18.1811 15.067 18.3945C15.067 18.608 15.1097 18.8194 15.1927 19.0161C15.2756 19.2128 15.3971 19.3909 15.5499 19.54C15.7027 19.689 15.8838 19.806 16.0826 19.884C16.2813 19.962 16.4936 19.9994 16.707 19.994C17.1314 19.994 17.5383 19.8255 17.8384 19.5254C18.1384 19.2254 18.307 18.8184 18.307 18.394C18.307 17.9697 18.1384 17.5627 17.8384 17.2627C17.5383 16.9626 17.1314 16.794 16.707 16.794V16.795ZM24.004 16.795C23.7906 16.7897 23.5783 16.8271 23.3795 16.9051C23.1808 16.9831 22.9997 17.1001 22.8469 17.2491C22.6941 17.3982 22.5726 17.5763 22.4897 17.773C22.4067 17.9697 22.364 18.1811 22.364 18.3945C22.364 18.608 22.4067 18.8194 22.4897 19.0161C22.5726 19.2128 22.6941 19.3909 22.8469 19.54C22.9997 19.689 23.1808 19.806 23.3795 19.884C23.5783 19.962 23.7906 19.9994 24.004 19.994C24.4284 19.994 24.8353 19.8255 25.1354 19.5254C25.4354 19.2254 25.604 18.8184 25.604 18.394C25.604 17.9697 25.4354 17.5627 25.1354 17.2627C24.8353 16.9626 24.4284 16.794 24.004 16.794V16.795ZM31.301 16.795C31.0876 16.7897 30.8753 16.8271 30.6765 16.9051C30.4778 16.9831 30.2967 17.1001 30.1439 17.2491C29.9911 17.3982 29.8696 17.5763 29.7867 17.773C29.7037 17.9697 29.661 18.1811 29.661 18.3945C29.661 18.608 29.7037 18.8194 29.7867 19.0161C29.8696 19.2128 29.9911 19.3909 30.1439 19.54C30.2967 19.689 30.4778 19.806 30.6765 19.884C30.8753 19.962 31.0876 19.9994 31.301 19.994C31.7254 19.994 32.1323 19.8255 32.4324 19.5254C32.7324 19.2254 32.901 18.8184 32.901 18.394C32.901 17.9697 32.7324 17.5627 32.4324 17.2627C32.1323 16.9626 31.7254 16.794 31.301 16.794V16.795ZM20.367 16.869C20.3377 16.8701 20.3099 16.8826 20.2897 16.9039C20.2695 16.9252 20.2585 16.9536 20.259 16.983C20.2596 17.0123 20.2716 17.0403 20.2925 17.0609C20.3135 17.0814 20.3417 17.093 20.371 17.093C20.4004 17.093 20.4286 17.0814 20.4495 17.0609C20.4704 17.0403 20.4825 17.0123 20.483 16.983C20.4835 16.9536 20.4725 16.9252 20.4523 16.9039C20.4321 16.8826 20.4044 16.8701 20.375 16.869C20.3724 16.8689 20.3697 16.8689 20.367 16.869ZM27.617 16.869C27.5877 16.8701 27.5599 16.8826 27.5397 16.9039C27.5195 16.9252 27.5085 16.9536 27.509 16.983C27.5096 17.0123 27.5216 17.0403 27.5425 17.0609C27.5635 17.0814 27.5917 17.093 27.621 17.093C27.6504 17.093 27.6786 17.0814 27.6995 17.0609C27.7204 17.0403 27.7325 17.0123 27.733 16.983C27.7335 16.9536 27.7225 16.9252 27.7023 16.9039C27.6821 16.8826 27.6544 16.8701 27.625 16.869C27.6224 16.8689 27.6197 16.8689 27.617 16.869ZM16.707 17.256C16.8565 17.256 17.0046 17.2855 17.1427 17.3427C17.2808 17.3999 17.4063 17.4838 17.5121 17.5895C17.6178 17.6952 17.7016 17.8207 17.7589 17.9589C17.8161 18.097 17.8455 18.245 17.8455 18.3945C17.8455 18.5441 17.8161 18.6921 17.7589 18.8302C17.7016 18.9684 17.6178 19.0939 17.5121 19.1996C17.4063 19.3053 17.2808 19.3892 17.1427 19.4464C17.0046 19.5036 16.8565 19.533 16.707 19.533C16.4109 19.5243 16.1299 19.4005 15.9235 19.1879C15.7172 18.9754 15.6018 18.6908 15.6018 18.3945C15.6018 18.0983 15.7172 17.8137 15.9235 17.6012C16.1299 17.3886 16.4109 17.2648 16.707 17.256ZM24.004 17.256C24.1535 17.256 24.3016 17.2855 24.4397 17.3427C24.5778 17.3999 24.7033 17.4838 24.8091 17.5895C24.9148 17.6952 24.9986 17.8207 25.0559 17.9589C25.1131 18.097 25.1425 18.245 25.1425 18.3945C25.1425 18.5441 25.1131 18.6921 25.0559 18.8302C24.9986 18.9684 24.9148 19.0939 24.8091 19.1996C24.7033 19.3053 24.5778 19.3892 24.4397 19.4464C24.3016 19.5036 24.1535 19.533 24.004 19.533C23.7079 19.5243 23.4269 19.4005 23.2205 19.1879C23.0142 18.9754 22.8988 18.6908 22.8988 18.3945C22.8988 18.0983 23.0142 17.8137 23.2205 17.6012C23.4269 17.3886 23.7079 17.2648 24.004 17.256ZM31.301 17.256C31.4505 17.256 31.5986 17.2855 31.7367 17.3427C31.8748 17.3999 32.0003 17.4838 32.1061 17.5895C32.2118 17.6952 32.2956 17.8207 32.3529 17.9589C32.4101 18.097 32.4395 18.245 32.4395 18.3945C32.4395 18.5441 32.4101 18.6921 32.3529 18.8302C32.2956 18.9684 32.2118 19.0939 32.1061 19.1996C32.0003 19.3053 31.8748 19.3892 31.7367 19.4464C31.5986 19.5036 31.4505 19.533 31.301 19.533C31.0049 19.5243 30.7239 19.4005 30.5175 19.1879C30.3112 18.9754 30.1958 18.6908 30.1958 18.3945C30.1958 18.0983 30.3112 17.8137 30.5175 17.6012C30.7239 17.3886 31.0049 17.2648 31.301 17.256ZM20.367 17.431C20.3522 17.432 20.3378 17.4358 20.3245 17.4423C20.3112 17.4488 20.2993 17.4579 20.2895 17.4689C20.2797 17.48 20.2722 17.493 20.2674 17.507C20.2626 17.521 20.2606 17.5358 20.2615 17.5505C20.2624 17.5653 20.2663 17.5798 20.2728 17.5931C20.2793 17.6064 20.2883 17.6182 20.2994 17.628C20.3105 17.6378 20.3234 17.6454 20.3374 17.6502C20.3514 17.655 20.3662 17.657 20.381 17.656C20.4107 17.6542 20.4385 17.6406 20.4582 17.6183C20.4779 17.596 20.4879 17.5668 20.486 17.537C20.4842 17.5073 20.4706 17.4796 20.4483 17.4599C20.4259 17.4402 20.3967 17.4302 20.367 17.432V17.431ZM27.617 17.431C27.6022 17.432 27.5878 17.4358 27.5745 17.4423C27.5612 17.4488 27.5493 17.4579 27.5395 17.4689C27.5297 17.48 27.5222 17.493 27.5174 17.507C27.5126 17.521 27.5106 17.5358 27.5115 17.5505C27.5124 17.5653 27.5163 17.5798 27.5228 17.5931C27.5293 17.6064 27.5383 17.6182 27.5494 17.628C27.5605 17.6378 27.5734 17.6454 27.5874 17.6502C27.6014 17.655 27.6162 17.657 27.631 17.656C27.6607 17.6542 27.6885 17.6406 27.7082 17.6183C27.7279 17.596 27.7379 17.5668 27.736 17.537C27.7342 17.5073 27.7206 17.4796 27.6983 17.4599C27.6759 17.4402 27.6467 17.4302 27.617 17.432V17.431ZM20.367 17.994C20.3523 17.995 20.3379 17.9988 20.3247 18.0053C20.3115 18.0117 20.2996 18.0208 20.2899 18.0318C20.2801 18.0429 20.2726 18.0557 20.2679 18.0697C20.2631 18.0836 20.2611 18.0983 20.262 18.113C20.2629 18.1278 20.2667 18.1421 20.2732 18.1554C20.2797 18.1686 20.2887 18.1804 20.2998 18.1902C20.3108 18.1999 20.3237 18.2074 20.3376 18.2122C20.3516 18.217 20.3663 18.219 20.381 18.218C20.4107 18.2162 20.4385 18.2026 20.4582 18.1803C20.4779 18.158 20.4879 18.1288 20.486 18.099C20.4842 18.0693 20.4706 18.0416 20.4483 18.0219C20.4259 18.0022 20.3967 17.9922 20.367 17.994ZM27.617 17.994C27.5873 17.9959 27.5596 18.0095 27.5399 18.0318C27.5202 18.0541 27.5102 18.0833 27.512 18.113C27.5139 18.1428 27.5275 18.1705 27.5498 18.1902C27.5721 18.2099 27.6013 18.2199 27.631 18.218C27.6457 18.2171 27.6601 18.2133 27.6733 18.2068C27.6866 18.2004 27.6984 18.1913 27.7082 18.1803C27.7179 18.1692 27.7254 18.1564 27.7302 18.1424C27.735 18.1285 27.7369 18.1138 27.736 18.099C27.7351 18.0843 27.7313 18.07 27.7248 18.0567C27.7183 18.0435 27.7093 18.0317 27.6983 18.0219C27.6872 18.0122 27.6743 18.0047 27.6604 17.9999C27.6465 17.9951 27.6317 17.9931 27.617 17.994ZM20.367 18.557C20.3523 18.558 20.3379 18.5618 20.3247 18.5683C20.3115 18.5747 20.2996 18.5838 20.2899 18.5948C20.2801 18.6059 20.2726 18.6187 20.2679 18.6327C20.2631 18.6466 20.2611 18.6613 20.262 18.676C20.2629 18.6908 20.2667 18.7051 20.2732 18.7184C20.2797 18.7316 20.2887 18.7434 20.2998 18.7532C20.3108 18.7629 20.3237 18.7704 20.3376 18.7752C20.3516 18.78 20.3663 18.782 20.381 18.781C20.4107 18.7792 20.4385 18.7656 20.4582 18.7433C20.4779 18.721 20.4879 18.6918 20.486 18.662C20.4842 18.6323 20.4706 18.6046 20.4483 18.5849C20.4259 18.5652 20.3967 18.5552 20.367 18.557ZM27.617 18.557C27.6023 18.558 27.5879 18.5618 27.5747 18.5683C27.5615 18.5747 27.5496 18.5838 27.5399 18.5948C27.5301 18.6059 27.5226 18.6187 27.5179 18.6327C27.5131 18.6466 27.5111 18.6613 27.512 18.676C27.5129 18.6908 27.5167 18.7051 27.5232 18.7184C27.5297 18.7316 27.5387 18.7434 27.5498 18.7532C27.5608 18.7629 27.5737 18.7704 27.5876 18.7752C27.6016 18.78 27.6163 18.782 27.631 18.781C27.6607 18.7792 27.6885 18.7656 27.7082 18.7433C27.7279 18.721 27.7379 18.6918 27.736 18.662C27.7342 18.6323 27.7206 18.6046 27.6983 18.5849C27.6759 18.5652 27.6467 18.5552 27.617 18.557ZM20.355 19.119C20.3287 19.1232 20.3048 19.1367 20.2877 19.1571C20.2706 19.1775 20.2615 19.2034 20.262 19.23C20.2616 19.2525 20.2679 19.2745 20.2801 19.2934C20.2923 19.3122 20.3098 19.327 20.3304 19.3359C20.351 19.3447 20.3738 19.3472 20.3958 19.3431C20.4179 19.339 20.4382 19.3284 20.4542 19.3127C20.4702 19.2969 20.4812 19.2768 20.4857 19.2548C20.4902 19.2329 20.4881 19.21 20.4796 19.1893C20.4711 19.1685 20.4566 19.1507 20.438 19.1382C20.4194 19.1257 20.3975 19.1191 20.375 19.119H20.355ZM27.605 19.119C27.5787 19.1232 27.5548 19.1367 27.5377 19.1571C27.5206 19.1775 27.5115 19.2034 27.512 19.23C27.5116 19.2525 27.5179 19.2745 27.5301 19.2934C27.5423 19.3122 27.5598 19.327 27.5804 19.3359C27.601 19.3447 27.6238 19.3472 27.6458 19.3431C27.6679 19.339 27.6882 19.3284 27.7042 19.3127C27.7202 19.2969 27.7312 19.2768 27.7357 19.2548C27.7402 19.2329 27.7381 19.21 27.7296 19.1893C27.7211 19.1685 27.7066 19.1507 27.688 19.1382C27.6694 19.1257 27.6475 19.1191 27.625 19.119H27.605ZM20.377 19.679C20.3622 19.6789 20.3476 19.6817 20.3339 19.6872C20.3202 19.6928 20.3077 19.7009 20.2972 19.7113C20.2866 19.7216 20.2782 19.734 20.2725 19.7476C20.2667 19.7612 20.2636 19.7758 20.2635 19.7905C20.2634 19.8053 20.2662 19.82 20.2717 19.8337C20.2772 19.8474 20.2854 19.8599 20.2958 19.8704C20.3061 19.8809 20.3184 19.8893 20.332 19.8951C20.3456 19.9009 20.3602 19.9039 20.375 19.904C20.3897 19.9042 20.4043 19.9014 20.418 19.8959C20.4316 19.8904 20.444 19.8823 20.4545 19.872C20.465 19.8616 20.4734 19.8494 20.4791 19.8358C20.4849 19.8223 20.4879 19.8078 20.488 19.793C20.4881 19.7783 20.4854 19.7637 20.4799 19.7501C20.4744 19.7365 20.4662 19.7241 20.4559 19.7136C20.4456 19.7031 20.4333 19.6947 20.4198 19.689C20.4063 19.6832 20.3917 19.6802 20.377 19.68V19.679ZM27.627 19.679C27.6122 19.6789 27.5976 19.6817 27.5839 19.6872C27.5702 19.6928 27.5577 19.7009 27.5472 19.7113C27.5366 19.7216 27.5282 19.734 27.5225 19.7476C27.5167 19.7612 27.5136 19.7758 27.5135 19.7905C27.5134 19.8053 27.5162 19.82 27.5217 19.8337C27.5272 19.8474 27.5354 19.8599 27.5458 19.8704C27.5561 19.8809 27.5684 19.8893 27.582 19.8951C27.5956 19.9009 27.6102 19.9039 27.625 19.904C27.6397 19.9042 27.6543 19.9014 27.668 19.8959C27.6816 19.8904 27.694 19.8823 27.7045 19.872C27.715 19.8616 27.7234 19.8494 27.7291 19.8358C27.7349 19.8223 27.7379 19.8078 27.738 19.793C27.7381 19.7783 27.7354 19.7637 27.7299 19.7501C27.7244 19.7365 27.7162 19.7241 27.7059 19.7136C27.6956 19.7031 27.6833 19.6947 27.6698 19.689C27.6563 19.6832 27.6417 19.6802 27.627 19.68V19.679ZM20.367 20.242C20.3384 20.2438 20.3115 20.2566 20.292 20.2776C20.2724 20.2986 20.2617 20.3263 20.262 20.355C20.2622 20.3771 20.2689 20.3986 20.2813 20.4169C20.2937 20.4352 20.3112 20.4494 20.3316 20.4577C20.352 20.4661 20.3745 20.4682 20.3961 20.4638C20.4177 20.4595 20.4376 20.4488 20.4532 20.4332C20.4688 20.4176 20.4795 20.3978 20.4838 20.3761C20.4882 20.3545 20.486 20.3321 20.4777 20.3116C20.4693 20.2912 20.4551 20.2737 20.4369 20.2613C20.4186 20.249 20.3971 20.2422 20.375 20.242H20.367ZM27.617 20.242C27.5884 20.2438 27.5615 20.2566 27.542 20.2776C27.5224 20.2986 27.5117 20.3263 27.512 20.355C27.5122 20.3771 27.5189 20.3986 27.5313 20.4169C27.5437 20.4352 27.5612 20.4494 27.5816 20.4577C27.602 20.4661 27.6245 20.4682 27.6461 20.4638C27.6677 20.4595 27.6876 20.4488 27.7032 20.4332C27.7188 20.4176 27.7295 20.3978 27.7338 20.3761C27.7382 20.3545 27.736 20.3321 27.7277 20.3116C27.7193 20.2912 27.7051 20.2737 27.6869 20.2613C27.6686 20.249 27.6471 20.2422 27.625 20.242H27.617ZM16.707 20.631C16.4936 20.6257 16.2813 20.6631 16.0826 20.7411C15.8838 20.8191 15.7027 20.9361 15.5499 21.0851C15.3971 21.2342 15.2756 21.4123 15.1927 21.609C15.1097 21.8057 15.067 22.0171 15.067 22.2305C15.067 22.444 15.1097 22.6554 15.1927 22.8521C15.2756 23.0488 15.3971 23.2269 15.5499 23.376C15.7027 23.525 15.8838 23.642 16.0826 23.72C16.2813 23.798 16.4936 23.8354 16.707 23.83C17.1314 23.83 17.5383 23.6615 17.8384 23.3614C18.1384 23.0614 18.307 22.6544 18.307 22.23C18.307 21.8057 18.1384 21.3987 17.8384 21.0987C17.5383 20.7986 17.1314 20.63 16.707 20.63V20.631ZM24.004 20.631C23.7893 20.6235 23.5752 20.6592 23.3746 20.7361C23.1739 20.8131 22.9909 20.9296 22.8363 21.0789C22.6817 21.2281 22.5587 21.4069 22.4747 21.6047C22.3907 21.8025 22.3475 22.0152 22.3475 22.23C22.3475 22.4449 22.3907 22.6576 22.4747 22.8554C22.5587 23.0532 22.6817 23.232 22.8363 23.3812C22.9909 23.5305 23.1739 23.647 23.3746 23.724C23.5752 23.8009 23.7893 23.8366 24.004 23.829C24.4183 23.8144 24.8107 23.6395 25.0987 23.3412C25.3866 23.043 25.5475 22.6446 25.5475 22.23C25.5475 21.8155 25.3866 21.4171 25.0987 21.1189C24.8107 20.8206 24.4183 20.6457 24.004 20.631ZM31.301 20.631C31.0863 20.6235 30.8722 20.6592 30.6716 20.7361C30.4709 20.8131 30.2879 20.9296 30.1333 21.0789C29.9787 21.2281 29.8557 21.4069 29.7717 21.6047C29.6877 21.8025 29.6445 22.0152 29.6445 22.23C29.6445 22.4449 29.6877 22.6576 29.7717 22.8554C29.8557 23.0532 29.9787 23.232 30.1333 23.3812C30.2879 23.5305 30.4709 23.647 30.6716 23.724C30.8722 23.8009 31.0863 23.8366 31.301 23.829C31.7153 23.8144 32.1077 23.6395 32.3957 23.3412C32.6836 23.043 32.8445 22.6446 32.8445 22.23C32.8445 21.8155 32.6836 21.4171 32.3957 21.1189C32.1077 20.8206 31.7153 20.6457 31.301 20.631ZM20.367 20.805C20.3384 20.8068 20.3115 20.8196 20.292 20.8406C20.2724 20.8616 20.2617 20.8893 20.262 20.918C20.262 20.98 20.312 21.03 20.375 21.029C20.436 21.029 20.485 20.979 20.486 20.918C20.4861 20.9033 20.4834 20.8888 20.4779 20.8751C20.4724 20.8615 20.4642 20.8491 20.4539 20.8386C20.4436 20.8281 20.4313 20.8197 20.4178 20.814C20.4043 20.8082 20.3897 20.8052 20.375 20.805H20.367ZM27.617 20.805C27.5884 20.8068 27.5615 20.8196 27.542 20.8406C27.5224 20.8616 27.5117 20.8893 27.512 20.918C27.512 20.98 27.562 21.03 27.625 21.029C27.686 21.029 27.735 20.979 27.736 20.918C27.7361 20.9033 27.7334 20.8888 27.7279 20.8751C27.7224 20.8615 27.7142 20.8491 27.7039 20.8386C27.6936 20.8281 27.6813 20.8197 27.6678 20.814C27.6543 20.8082 27.6397 20.8052 27.625 20.805H27.617ZM16.707 21.094C16.8563 21.0939 17.0042 21.1231 17.1422 21.18C17.2803 21.237 17.4057 21.3206 17.5114 21.426C17.6172 21.5314 17.7011 21.6567 17.7584 21.7945C17.8157 21.9324 17.8453 22.0802 17.8455 22.2295C17.8457 22.3789 17.8165 22.5267 17.7595 22.6648C17.7026 22.8028 17.619 22.9282 17.5136 23.034C17.4081 23.1397 17.2829 23.2236 17.145 23.2809C17.0071 23.3382 16.8593 23.3679 16.71 23.368C16.4085 23.3684 16.1191 23.249 15.9056 23.0361C15.6921 22.8231 15.5719 22.5341 15.5715 22.2325C15.5711 21.931 15.6905 21.6416 15.9035 21.4281C16.1164 21.2146 16.4055 21.0944 16.707 21.094ZM24.004 21.094C24.1533 21.0939 24.3012 21.1231 24.4392 21.18C24.5773 21.237 24.7027 21.3206 24.8084 21.426C24.9142 21.5314 24.9981 21.6567 25.0554 21.7945C25.1127 21.9324 25.1423 22.0802 25.1425 22.2295C25.1427 22.3789 25.1135 22.5267 25.0565 22.6648C24.9996 22.8028 24.916 22.9282 24.8106 23.034C24.7051 23.1397 24.5799 23.2236 24.442 23.2809C24.3041 23.3382 24.1563 23.3679 24.007 23.368C23.7055 23.3684 23.4161 23.249 23.2026 23.0361C22.9891 22.8231 22.8689 22.5341 22.8685 22.2325C22.8681 21.931 22.9875 21.6416 23.2005 21.4281C23.4134 21.2146 23.7025 21.0944 24.004 21.094ZM31.301 21.094C31.4503 21.0939 31.5982 21.1231 31.7362 21.18C31.8743 21.237 31.9997 21.3206 32.1054 21.426C32.2112 21.5314 32.2951 21.6567 32.3524 21.7945C32.4097 21.9324 32.4393 22.0802 32.4395 22.2295C32.4397 22.3789 32.4105 22.5267 32.3535 22.6648C32.2966 22.8028 32.213 22.9282 32.1076 23.034C32.0021 23.1397 31.8769 23.2236 31.739 23.2809C31.6011 23.3382 31.4533 23.3679 31.304 23.368C31.0025 23.3684 30.7131 23.249 30.4996 23.0361C30.2861 22.8231 30.1659 22.5341 30.1655 22.2325C30.1651 21.931 30.2845 21.6416 30.4975 21.4281C30.7104 21.2146 30.9995 21.0944 31.301 21.094ZM20.367 21.367C20.3384 21.3688 20.3115 21.3816 20.292 21.4026C20.2724 21.4236 20.2617 21.4513 20.262 21.48C20.262 21.5099 20.2739 21.5385 20.295 21.5596C20.3161 21.5807 20.3447 21.5925 20.3745 21.5925C20.4044 21.5925 20.433 21.5807 20.4541 21.5596C20.4752 21.5385 20.487 21.5099 20.487 21.48C20.4871 21.4653 20.4844 21.4506 20.4788 21.4369C20.4732 21.4232 20.465 21.4107 20.4546 21.4002C20.4442 21.3897 20.4318 21.3814 20.4181 21.3757C20.4045 21.37 20.3898 21.367 20.375 21.367H20.367ZM27.617 21.367C27.5884 21.3688 27.5615 21.3816 27.542 21.4026C27.5224 21.4236 27.5117 21.4513 27.512 21.48C27.512 21.5099 27.5239 21.5385 27.545 21.5596C27.5661 21.5807 27.5947 21.5925 27.6245 21.5925C27.6544 21.5925 27.683 21.5807 27.7041 21.5596C27.7252 21.5385 27.737 21.5099 27.737 21.48C27.7371 21.4653 27.7344 21.4506 27.7288 21.4369C27.7232 21.4232 27.715 21.4107 27.7046 21.4002C27.6942 21.3897 27.6818 21.3814 27.6681 21.3757C27.6545 21.37 27.6398 21.367 27.625 21.367H27.617ZM20.367 21.93C20.3523 21.931 20.3379 21.9348 20.3247 21.9413C20.3115 21.9477 20.2996 21.9568 20.2899 21.9678C20.2801 21.9789 20.2726 21.9917 20.2679 22.0057C20.2631 22.0196 20.2611 22.0343 20.262 22.049C20.2629 22.0638 20.2667 22.0781 20.2732 22.0914C20.2797 22.1046 20.2887 22.1164 20.2998 22.1262C20.3108 22.1359 20.3237 22.1434 20.3376 22.1482C20.3516 22.153 20.3663 22.155 20.381 22.154C20.4107 22.1522 20.4385 22.1386 20.4582 22.1163C20.4779 22.094 20.4879 22.0648 20.486 22.035C20.4842 22.0053 20.4706 21.9776 20.4483 21.9579C20.4259 21.9382 20.3967 21.9282 20.367 21.93ZM27.617 21.93C27.5873 21.9319 27.5596 21.9455 27.5399 21.9678C27.5202 21.9901 27.5102 22.0193 27.512 22.049C27.5139 22.0788 27.5275 22.1065 27.5498 22.1262C27.5721 22.1459 27.6013 22.1559 27.631 22.154C27.6457 22.1531 27.6601 22.1493 27.6733 22.1428C27.6866 22.1364 27.6984 22.1273 27.7082 22.1163C27.7179 22.1052 27.7254 22.0924 27.7302 22.0784C27.735 22.0645 27.7369 22.0498 27.736 22.035C27.7351 22.0203 27.7313 22.006 27.7248 21.9927C27.7183 21.9795 27.7093 21.9677 27.6983 21.9579C27.6872 21.9482 27.6743 21.9407 27.6604 21.9359C27.6465 21.9311 27.6317 21.9291 27.617 21.93ZM20.367 22.492C20.3523 22.493 20.3379 22.4968 20.3247 22.5033C20.3115 22.5097 20.2996 22.5188 20.2899 22.5298C20.2801 22.5409 20.2726 22.5537 20.2679 22.5677C20.2631 22.5816 20.2611 22.5963 20.262 22.611C20.2629 22.6258 20.2667 22.6401 20.2732 22.6534C20.2797 22.6666 20.2887 22.6784 20.2998 22.6882C20.3108 22.6979 20.3237 22.7054 20.3376 22.7102C20.3516 22.715 20.3663 22.717 20.381 22.716C20.4107 22.7142 20.4385 22.7006 20.4582 22.6783C20.4779 22.656 20.4879 22.6268 20.486 22.597C20.4842 22.5673 20.4706 22.5396 20.4483 22.5199C20.4259 22.5002 20.3967 22.4902 20.367 22.492ZM27.617 22.492C27.6023 22.493 27.5879 22.4968 27.5747 22.5033C27.5615 22.5097 27.5496 22.5188 27.5399 22.5298C27.5301 22.5409 27.5226 22.5537 27.5179 22.5677C27.5131 22.5816 27.5111 22.5963 27.512 22.611C27.5129 22.6258 27.5167 22.6401 27.5232 22.6534C27.5297 22.6666 27.5387 22.6784 27.5498 22.6882C27.5608 22.6979 27.5737 22.7054 27.5876 22.7102C27.6016 22.715 27.6163 22.717 27.631 22.716C27.6607 22.7142 27.6885 22.7006 27.7082 22.6783C27.7279 22.656 27.7379 22.6268 27.736 22.597C27.7342 22.5673 27.7206 22.5396 27.6983 22.5199C27.6759 22.5002 27.6467 22.4902 27.617 22.492ZM20.367 23.055C20.3377 23.0561 20.3099 23.0686 20.2897 23.0899C20.2695 23.1112 20.2585 23.1396 20.259 23.169C20.2596 23.1983 20.2716 23.2263 20.2925 23.2469C20.3135 23.2674 20.3417 23.279 20.371 23.279C20.4004 23.279 20.4286 23.2674 20.4495 23.2469C20.4704 23.2263 20.4825 23.1983 20.483 23.169C20.4835 23.1396 20.4725 23.1112 20.4523 23.0899C20.4321 23.0686 20.4044 23.0561 20.375 23.055H20.367ZM27.617 23.055C27.5877 23.0561 27.5599 23.0686 27.5397 23.0899C27.5195 23.1112 27.5085 23.1396 27.509 23.169C27.5096 23.1983 27.5216 23.2263 27.5425 23.2469C27.5635 23.2674 27.5917 23.279 27.621 23.279C27.6504 23.279 27.6786 23.2674 27.6995 23.2469C27.7204 23.2263 27.7325 23.1983 27.733 23.169C27.7335 23.1396 27.7225 23.1112 27.7023 23.0899C27.6821 23.0686 27.6544 23.0561 27.625 23.055H27.617ZM20.355 23.617C20.3288 23.6214 20.305 23.6349 20.2879 23.6553C20.2709 23.6757 20.2617 23.7015 20.262 23.728C20.2618 23.7502 20.2682 23.7719 20.2803 23.7904C20.2925 23.809 20.3098 23.8235 20.3302 23.8321C20.3506 23.8408 20.3731 23.8432 20.3949 23.8391C20.4166 23.835 20.4367 23.8245 20.4525 23.8089C20.4683 23.7934 20.4791 23.7736 20.4837 23.7519C20.4882 23.7302 20.4862 23.7077 20.4779 23.6871C20.4696 23.6666 20.4554 23.649 20.4371 23.6365C20.4188 23.624 20.3972 23.6172 20.375 23.617H20.355ZM27.605 23.617C27.5788 23.6214 27.555 23.6349 27.5379 23.6553C27.5209 23.6757 27.5117 23.7015 27.512 23.728C27.5118 23.7502 27.5182 23.7719 27.5303 23.7904C27.5425 23.809 27.5598 23.8235 27.5802 23.8321C27.6006 23.8408 27.6231 23.8432 27.6449 23.8391C27.6666 23.835 27.6867 23.8245 27.7025 23.8089C27.7183 23.7934 27.7291 23.7736 27.7337 23.7519C27.7382 23.7302 27.7362 23.7077 27.7279 23.6871C27.7196 23.6666 27.7054 23.649 27.6871 23.6365C27.6688 23.624 27.6472 23.6172 27.625 23.617H27.605ZM20.355 24.18C20.3289 24.1841 20.3051 24.1975 20.288 24.2177C20.2709 24.2379 20.2617 24.2636 20.262 24.29C20.262 24.3199 20.2739 24.3485 20.295 24.3696C20.3161 24.3907 20.3447 24.4025 20.3745 24.4025C20.4044 24.4025 20.433 24.3907 20.4541 24.3696C20.4752 24.3485 20.487 24.3199 20.487 24.29C20.486 24.23 20.437 24.18 20.375 24.18H20.355ZM27.605 24.18C27.5789 24.1841 27.5551 24.1975 27.538 24.2177C27.5209 24.2379 27.5117 24.2636 27.512 24.29C27.512 24.3199 27.5239 24.3485 27.545 24.3696C27.5661 24.3907 27.5947 24.4025 27.6245 24.4025C27.6544 24.4025 27.683 24.3907 27.7041 24.3696C27.7252 24.3485 27.737 24.3199 27.737 24.29C27.736 24.23 27.687 24.18 27.625 24.18H27.605ZM16.707 24.467C16.4936 24.4617 16.2813 24.4991 16.0826 24.5771C15.8838 24.6551 15.7027 24.7721 15.5499 24.9211C15.3971 25.0702 15.2756 25.2483 15.1927 25.445C15.1097 25.6417 15.067 25.8531 15.067 26.0665C15.067 26.28 15.1097 26.4914 15.1927 26.6881C15.2756 26.8848 15.3971 27.0629 15.5499 27.212C15.7027 27.361 15.8838 27.478 16.0826 27.556C16.2813 27.634 16.4936 27.6714 16.707 27.666C17.1314 27.666 17.5383 27.4975 17.8384 27.1974C18.1384 26.8974 18.307 26.4904 18.307 26.066C18.307 25.6417 18.1384 25.2347 17.8384 24.9347C17.5383 24.6346 17.1314 24.466 16.707 24.466V24.467ZM24.004 24.467C23.7906 24.4617 23.5783 24.4991 23.3795 24.5771C23.1808 24.6551 22.9997 24.7721 22.8469 24.9211C22.6941 25.0702 22.5726 25.2483 22.4897 25.445C22.4067 25.6417 22.364 25.8531 22.364 26.0665C22.364 26.28 22.4067 26.4914 22.4897 26.6881C22.5726 26.8848 22.6941 27.0629 22.8469 27.212C22.9997 27.361 23.1808 27.478 23.3795 27.556C23.5783 27.634 23.7906 27.6714 24.004 27.666C24.4284 27.666 24.8353 27.4975 25.1354 27.1974C25.4354 26.8974 25.604 26.4904 25.604 26.066C25.604 25.6417 25.4354 25.2347 25.1354 24.9347C24.8353 24.6346 24.4284 24.466 24.004 24.466V24.467ZM31.301 24.467C31.0876 24.4617 30.8753 24.4991 30.6765 24.5771C30.4778 24.6551 30.2967 24.7721 30.1439 24.9211C29.9911 25.0702 29.8696 25.2483 29.7867 25.445C29.7037 25.6417 29.661 25.8531 29.661 26.0665C29.661 26.28 29.7037 26.4914 29.7867 26.6881C29.8696 26.8848 29.9911 27.0629 30.1439 27.212C30.2967 27.361 30.4778 27.478 30.6765 27.556C30.8753 27.634 31.0876 27.6714 31.301 27.666C31.7254 27.666 32.1323 27.4975 32.4324 27.1974C32.7324 26.8974 32.901 26.4904 32.901 26.066C32.901 25.6417 32.7324 25.2347 32.4324 24.9347C32.1323 24.6346 31.7254 24.466 31.301 24.466V24.467ZM20.367 24.74C20.3377 24.7411 20.3099 24.7536 20.2897 24.7749C20.2695 24.7962 20.2585 24.8246 20.259 24.854C20.2596 24.8833 20.2716 24.9113 20.2925 24.9319C20.3135 24.9524 20.3417 24.964 20.371 24.964C20.4004 24.964 20.4286 24.9524 20.4495 24.9319C20.4704 24.9113 20.4825 24.8833 20.483 24.854C20.4835 24.8246 20.4725 24.7962 20.4523 24.7749C20.4321 24.7536 20.4044 24.7411 20.375 24.74C20.3724 24.7399 20.3697 24.7399 20.367 24.74ZM27.617 24.74C27.5877 24.7411 27.5599 24.7536 27.5397 24.7749C27.5195 24.7962 27.5085 24.8246 27.509 24.854C27.5096 24.8833 27.5216 24.9113 27.5425 24.9319C27.5635 24.9524 27.5917 24.964 27.621 24.964C27.6504 24.964 27.6786 24.9524 27.6995 24.9319C27.7204 24.9113 27.7325 24.8833 27.733 24.854C27.7335 24.8246 27.7225 24.7962 27.7023 24.7749C27.6821 24.7536 27.6544 24.7411 27.625 24.74C27.6224 24.7399 27.6197 24.7399 27.617 24.74ZM16.707 24.928C16.8563 24.9279 17.0042 24.9571 17.1422 25.014C17.2803 25.071 17.4057 25.1546 17.5114 25.26C17.6172 25.3654 17.7011 25.4907 17.7584 25.6286C17.8157 25.7664 17.8453 25.9142 17.8455 26.0635C17.8457 26.2129 17.8165 26.3608 17.7595 26.4988C17.7026 26.6368 17.619 26.7622 17.5136 26.868C17.4081 26.9737 17.2829 27.0576 17.145 27.1149C17.0071 27.1722 16.8593 27.2019 16.71 27.202C16.4085 27.2024 16.1191 27.083 15.9056 26.8701C15.6921 26.6571 15.5719 26.3681 15.5715 26.0665C15.5711 25.765 15.6905 25.4756 15.9035 25.2621C16.1164 25.0486 16.4055 24.9284 16.707 24.928ZM24.004 24.928C24.1533 24.9279 24.3012 24.9571 24.4392 25.014C24.5773 25.071 24.7027 25.1546 24.8084 25.26C24.9142 25.3654 24.9981 25.4907 25.0554 25.6286C25.1127 25.7664 25.1423 25.9142 25.1425 26.0635C25.1427 26.2129 25.1135 26.3608 25.0565 26.4988C24.9996 26.6368 24.916 26.7622 24.8106 26.868C24.7051 26.9737 24.5799 27.0576 24.442 27.1149C24.3041 27.1722 24.1563 27.2019 24.007 27.202C23.7055 27.2024 23.4161 27.083 23.2026 26.8701C22.9891 26.6571 22.8689 26.3681 22.8685 26.0665C22.8681 25.765 22.9875 25.4756 23.2005 25.2621C23.4134 25.0486 23.7025 24.9284 24.004 24.928ZM31.301 24.928C31.6026 24.9278 31.8919 25.0473 32.1053 25.2604C32.3187 25.4734 32.4388 25.7625 32.439 26.064C32.4393 26.3656 32.3197 26.6549 32.1067 26.8683C31.8937 27.0817 31.6046 27.2018 31.303 27.202C31.1537 27.2022 31.0058 27.1729 30.8678 27.1159C30.7298 27.0589 30.6044 26.9752 30.4987 26.8697C30.3931 26.7642 30.3092 26.639 30.2519 26.5011C30.1947 26.3632 30.1651 26.2154 30.165 26.066C30.1649 25.9167 30.1942 25.7689 30.2512 25.6309C30.3082 25.4929 30.3918 25.3674 30.4973 25.2618C30.6028 25.1561 30.7281 25.0722 30.866 25.015C31.0039 24.9577 31.1517 24.9282 31.301 24.928ZM20.367 25.303C20.3384 25.3048 20.3115 25.3176 20.292 25.3386C20.2724 25.3596 20.2617 25.3873 20.262 25.416C20.262 25.478 20.312 25.528 20.375 25.527C20.4049 25.526 20.433 25.5131 20.4534 25.4913C20.4737 25.4694 20.4846 25.4404 20.4835 25.4105C20.4825 25.3807 20.4696 25.3525 20.4477 25.3322C20.4259 25.3118 20.3969 25.301 20.367 25.302V25.303ZM27.617 25.303C27.5884 25.3048 27.5615 25.3176 27.542 25.3386C27.5224 25.3596 27.5117 25.3873 27.512 25.416C27.512 25.478 27.562 25.528 27.625 25.527C27.6549 25.526 27.683 25.5131 27.7034 25.4913C27.7237 25.4694 27.7346 25.4404 27.7335 25.4105C27.7325 25.3807 27.7196 25.3525 27.6977 25.3322C27.6759 25.3118 27.6469 25.301 27.617 25.302V25.303ZM20.367 25.865C20.3384 25.8668 20.3115 25.8796 20.292 25.9006C20.2724 25.9216 20.2617 25.9493 20.262 25.978C20.262 26.04 20.312 26.09 20.375 26.09C20.436 26.09 20.485 26.04 20.486 25.978C20.4862 25.9626 20.4832 25.9474 20.4772 25.9332C20.4712 25.919 20.4623 25.9062 20.4511 25.8956C20.44 25.885 20.4267 25.8768 20.4123 25.8716C20.3978 25.8663 20.3824 25.8641 20.367 25.865ZM27.617 25.865C27.5884 25.8668 27.5615 25.8796 27.542 25.9006C27.5224 25.9216 27.5117 25.9493 27.512 25.978C27.512 26.04 27.562 26.09 27.625 26.09C27.686 26.09 27.735 26.04 27.736 25.978C27.7362 25.9626 27.7332 25.9474 27.7272 25.9332C27.7212 25.919 27.7123 25.9062 27.7011 25.8956C27.69 25.885 27.6767 25.8768 27.6623 25.8716C27.6478 25.8663 27.6324 25.8641 27.617 25.865ZM20.367 26.428C20.3373 26.4291 20.3092 26.4419 20.289 26.4637C20.2687 26.4854 20.258 26.5143 20.259 26.544C20.2601 26.5738 20.2729 26.6018 20.2946 26.6221C20.3164 26.6423 20.3453 26.6531 20.375 26.652C20.3897 26.6515 20.4042 26.6481 20.4176 26.642C20.431 26.6359 20.443 26.6272 20.453 26.6164C20.4631 26.6056 20.4709 26.593 20.476 26.5792C20.4812 26.5654 20.4835 26.5508 20.483 26.536C20.4825 26.5213 20.4791 26.5069 20.473 26.4935C20.4668 26.4801 20.4582 26.4681 20.4474 26.458C20.4366 26.448 20.424 26.4402 20.4102 26.435C20.3964 26.4299 20.3817 26.4275 20.367 26.428ZM27.617 26.428C27.5873 26.4291 27.5592 26.4419 27.539 26.4637C27.5187 26.4854 27.508 26.5143 27.509 26.544C27.5101 26.5738 27.5229 26.6018 27.5446 26.6221C27.5664 26.6423 27.5953 26.6531 27.625 26.652C27.6397 26.6515 27.6542 26.6481 27.6676 26.642C27.681 26.6359 27.693 26.6272 27.703 26.6164C27.7131 26.6056 27.7209 26.593 27.726 26.5792C27.7312 26.5654 27.7335 26.5508 27.733 26.536C27.7325 26.5213 27.7291 26.5069 27.723 26.4935C27.7168 26.4801 27.7082 26.4681 27.6974 26.458C27.6866 26.448 27.674 26.4402 27.6602 26.435C27.6464 26.4299 27.6317 26.4275 27.617 26.428ZM20.367 26.99C20.3523 26.991 20.3379 26.9948 20.3247 27.0013C20.3115 27.0077 20.2996 27.0168 20.2899 27.0278C20.2801 27.0389 20.2726 27.0517 20.2679 27.0657C20.2631 27.0796 20.2611 27.0943 20.262 27.109C20.2629 27.1238 20.2667 27.1381 20.2732 27.1514C20.2797 27.1646 20.2887 27.1764 20.2998 27.1862C20.3108 27.1959 20.3237 27.2034 20.3376 27.2082C20.3516 27.213 20.3663 27.215 20.381 27.214C20.4107 27.2122 20.4385 27.1986 20.4582 27.1763C20.4779 27.154 20.4879 27.1248 20.486 27.095C20.4842 27.0653 20.4706 27.0376 20.4483 27.0179C20.4259 26.9982 20.3967 26.9882 20.367 26.99ZM27.617 26.99C27.6023 26.991 27.5879 26.9948 27.5747 27.0013C27.5615 27.0077 27.5496 27.0168 27.5399 27.0278C27.5301 27.0389 27.5226 27.0517 27.5179 27.0657C27.5131 27.0796 27.5111 27.0943 27.512 27.109C27.5129 27.1238 27.5167 27.1381 27.5232 27.1514C27.5297 27.1646 27.5387 27.1764 27.5498 27.1862C27.5608 27.1959 27.5737 27.2034 27.5876 27.2082C27.6016 27.213 27.6163 27.215 27.631 27.214C27.6607 27.2122 27.6885 27.1986 27.7082 27.1763C27.7279 27.154 27.7379 27.1248 27.736 27.095C27.7342 27.0653 27.7206 27.0376 27.6983 27.0179C27.6759 26.9982 27.6467 26.9882 27.617 26.99ZM20.367 27.553C20.3523 27.554 20.3379 27.5578 20.3247 27.5643C20.3115 27.5707 20.2996 27.5798 20.2899 27.5908C20.2801 27.6019 20.2726 27.6147 20.2679 27.6287C20.2631 27.6426 20.2611 27.6573 20.262 27.672C20.2629 27.6868 20.2667 27.7011 20.2732 27.7144C20.2797 27.7276 20.2887 27.7394 20.2998 27.7492C20.3108 27.7589 20.3237 27.7664 20.3376 27.7712C20.3516 27.776 20.3663 27.778 20.381 27.777C20.4107 27.7752 20.4385 27.7616 20.4582 27.7393C20.4779 27.717 20.4879 27.6878 20.486 27.658C20.4842 27.6283 20.4706 27.6006 20.4483 27.5809C20.4259 27.5612 20.3967 27.5512 20.367 27.553ZM27.617 27.553C27.6023 27.554 27.5879 27.5578 27.5747 27.5643C27.5615 27.5707 27.5496 27.5798 27.5399 27.5908C27.5301 27.6019 27.5226 27.6147 27.5179 27.6287C27.5131 27.6426 27.5111 27.6573 27.512 27.672C27.5129 27.6868 27.5167 27.7011 27.5232 27.7144C27.5297 27.7276 27.5387 27.7394 27.5498 27.7492C27.5608 27.7589 27.5737 27.7664 27.5876 27.7712C27.6016 27.776 27.6163 27.778 27.631 27.777C27.6607 27.7752 27.6885 27.7616 27.7082 27.7393C27.7279 27.717 27.7379 27.6878 27.736 27.658C27.7342 27.6283 27.7206 27.6006 27.6983 27.5809C27.6759 27.5612 27.6467 27.5512 27.617 27.553ZM20.355 28.115C20.3288 28.1194 20.305 28.1329 20.2879 28.1533C20.2709 28.1737 20.2617 28.1995 20.262 28.226C20.262 28.2559 20.2739 28.2845 20.295 28.3056C20.3161 28.3267 20.3447 28.3385 20.3745 28.3385C20.4044 28.3385 20.433 28.3267 20.4541 28.3056C20.4752 28.2845 20.487 28.2559 20.487 28.226C20.486 28.166 20.437 28.116 20.375 28.116C20.367 28.114 20.365 28.114 20.357 28.116H20.355V28.115ZM27.605 28.115C27.5788 28.1194 27.555 28.1329 27.5379 28.1533C27.5209 28.1737 27.5117 28.1995 27.512 28.226C27.512 28.2559 27.5239 28.2845 27.545 28.3056C27.5661 28.3267 27.5947 28.3385 27.6245 28.3385C27.6544 28.3385 27.683 28.3267 27.7041 28.3056C27.7252 28.2845 27.737 28.2559 27.737 28.226C27.736 28.166 27.687 28.116 27.625 28.116C27.617 28.114 27.615 28.114 27.607 28.116H27.605V28.115ZM16.707 28.301C16.2925 28.3157 15.8998 28.4907 15.6117 28.7892C15.3236 29.0876 15.1626 29.4862 15.1626 29.901C15.1626 30.3159 15.3236 30.7145 15.6117 31.0129C15.8998 31.3114 16.2925 31.4864 16.707 31.501C17.1246 31.4906 17.5215 31.3174 17.8131 31.0184C18.1048 30.7194 18.268 30.3182 18.268 29.9005C18.268 29.4829 18.1048 29.0817 17.8131 28.7827C17.5215 28.4837 17.1246 28.3105 16.707 28.3V28.301ZM24.004 28.301C23.5895 28.3157 23.1968 28.4907 22.9087 28.7892C22.6206 29.0876 22.4596 29.4862 22.4596 29.901C22.4596 30.3159 22.6206 30.7145 22.9087 31.0129C23.1968 31.3114 23.5895 31.4864 24.004 31.501C24.4284 31.501 24.8353 31.3325 25.1354 31.0324C25.4354 30.7324 25.604 30.3254 25.604 29.901C25.604 29.4767 25.4354 29.0697 25.1354 28.7697C24.8353 28.4696 24.4284 28.301 24.004 28.301ZM31.301 28.301C30.8865 28.3157 30.4938 28.4907 30.2057 28.7892C29.9176 29.0876 29.7566 29.4862 29.7566 29.901C29.7566 30.3159 29.9176 30.7145 30.2057 31.0129C30.4938 31.3114 30.8865 31.4864 31.301 31.501C31.7254 31.501 32.1323 31.3325 32.4324 31.0324C32.7324 30.7324 32.901 30.3254 32.901 29.901C32.901 29.4767 32.7324 29.0697 32.4324 28.7697C32.1323 28.4696 31.7254 28.301 31.301 28.301ZM20.377 28.676C20.3623 28.6759 20.3477 28.6787 20.3341 28.6842C20.3204 28.6897 20.308 28.6978 20.2975 28.7081C20.287 28.7185 20.2787 28.7307 20.2729 28.7443C20.2672 28.7578 20.2641 28.7723 20.264 28.787C20.2639 28.8018 20.2667 28.8163 20.2722 28.83C20.2777 28.8436 20.2858 28.856 20.2961 28.8665C20.3064 28.877 20.3187 28.8854 20.3322 28.8911C20.3458 28.8969 20.3603 28.8999 20.375 28.9C20.4047 28.9003 20.4333 28.8888 20.4545 28.868C20.4757 28.8471 20.4878 28.8188 20.488 28.789C20.4883 28.7593 20.4767 28.7308 20.4559 28.7096C20.4351 28.6884 20.4067 28.6763 20.377 28.676ZM27.627 28.676C27.6123 28.6759 27.5977 28.6787 27.5841 28.6842C27.5704 28.6897 27.558 28.6978 27.5475 28.7081C27.537 28.7185 27.5287 28.7307 27.5229 28.7443C27.5172 28.7578 27.5141 28.7723 27.514 28.787C27.5139 28.8018 27.5167 28.8163 27.5222 28.83C27.5277 28.8436 27.5358 28.856 27.5461 28.8665C27.5564 28.877 27.5687 28.8854 27.5822 28.8911C27.5958 28.8969 27.6103 28.8999 27.625 28.9C27.6547 28.9003 27.6833 28.8888 27.7045 28.868C27.7257 28.8471 27.7378 28.8188 27.738 28.789C27.7383 28.7593 27.7267 28.7308 27.7059 28.7096C27.6851 28.6884 27.6567 28.6763 27.627 28.676ZM16.707 28.764C16.8594 28.7595 17.0111 28.7856 17.1531 28.8408C17.2952 28.896 17.4248 28.9791 17.5341 29.0853C17.6435 29.1915 17.7304 29.3185 17.7898 29.4589C17.8492 29.5993 17.8798 29.7501 17.8798 29.9025C17.8798 30.055 17.8492 30.2058 17.7898 30.3462C17.7304 30.4866 17.6435 30.6136 17.5341 30.7198C17.4248 30.826 17.2952 30.9091 17.1531 30.9643C17.0111 31.0195 16.8594 31.0456 16.707 31.041C16.4109 31.0323 16.1299 30.9085 15.9235 30.6959C15.7172 30.4834 15.6018 30.1988 15.6018 29.9025C15.6018 29.6063 15.7172 29.3217 15.9235 29.1092C16.1299 28.8966 16.4109 28.7728 16.707 28.764ZM24.004 28.764C24.1564 28.7595 24.3081 28.7856 24.4501 28.8408C24.5922 28.896 24.7218 28.9791 24.8311 29.0853C24.9405 29.1915 25.0274 29.3185 25.0868 29.4589C25.1462 29.5993 25.1768 29.7501 25.1768 29.9025C25.1768 30.055 25.1462 30.2058 25.0868 30.3462C25.0274 30.4866 24.9405 30.6136 24.8311 30.7198C24.7218 30.826 24.5922 30.9091 24.4501 30.9643C24.3081 31.0195 24.1564 31.0456 24.004 31.041C23.7079 31.0323 23.4269 30.9085 23.2205 30.6959C23.0142 30.4834 22.8988 30.1988 22.8988 29.9025C22.8988 29.6063 23.0142 29.3217 23.2205 29.1092C23.4269 28.8966 23.7079 28.7728 24.004 28.764ZM31.301 28.764C31.5971 28.7728 31.8782 28.8966 32.0845 29.1092C32.2909 29.3217 32.4063 29.6063 32.4063 29.9025C32.4063 30.1988 32.2909 30.4834 32.0845 30.6959C31.8782 30.9085 31.5971 31.0323 31.301 31.041C31.1487 31.0456 30.997 31.0195 30.8549 30.9643C30.7128 30.9091 30.5833 30.826 30.4739 30.7198C30.3645 30.6136 30.2776 30.4866 30.2182 30.3462C30.1589 30.2058 30.1283 30.055 30.1283 29.9025C30.1283 29.7501 30.1589 29.5993 30.2182 29.4589C30.2776 29.3185 30.3645 29.1915 30.4739 29.0853C30.5833 28.9791 30.7128 28.896 30.8549 28.8408C30.997 28.7856 31.1487 28.7595 31.301 28.764ZM20.367 29.238C20.3384 29.2398 20.3115 29.2526 20.292 29.2736C20.2724 29.2946 20.2617 29.3223 20.262 29.351C20.262 29.3809 20.2739 29.4095 20.295 29.4306C20.3161 29.4517 20.3447 29.4635 20.3745 29.4635C20.4044 29.4635 20.433 29.4517 20.4541 29.4306C20.4752 29.4095 20.487 29.3809 20.487 29.351C20.4872 29.3356 20.4842 29.3202 20.4781 29.3059C20.472 29.2917 20.4631 29.2788 20.4518 29.2682C20.4405 29.2576 20.4272 29.2494 20.4126 29.2442C20.398 29.239 20.3825 29.2369 20.367 29.238ZM27.617 29.238C27.5884 29.2398 27.5615 29.2526 27.542 29.2736C27.5224 29.2946 27.5117 29.3223 27.512 29.351C27.512 29.3809 27.5239 29.4095 27.545 29.4306C27.5661 29.4517 27.5947 29.4635 27.6245 29.4635C27.6544 29.4635 27.683 29.4517 27.7041 29.4306C27.7252 29.4095 27.737 29.3809 27.737 29.351C27.7372 29.3356 27.7342 29.3202 27.7281 29.3059C27.722 29.2917 27.7131 29.2788 27.7018 29.2682C27.6905 29.2576 27.6772 29.2494 27.6626 29.2442C27.648 29.239 27.6325 29.2369 27.617 29.238ZM20.367 29.801C20.3377 29.8021 20.3099 29.8146 20.2897 29.8359C20.2695 29.8572 20.2585 29.8856 20.259 29.915C20.2596 29.9443 20.2716 29.9723 20.2925 29.9929C20.3135 30.0134 20.3417 30.025 20.371 30.025C20.4004 30.025 20.4286 30.0134 20.4495 29.9929C20.4704 29.9723 20.4825 29.9443 20.483 29.915C20.4835 29.8856 20.4725 29.8572 20.4523 29.8359C20.4321 29.8146 20.4044 29.8021 20.375 29.801C20.3724 29.8009 20.3697 29.8009 20.367 29.801ZM27.617 29.801C27.5877 29.8021 27.5599 29.8146 27.5397 29.8359C27.5195 29.8572 27.5085 29.8856 27.509 29.915C27.5096 29.9443 27.5216 29.9723 27.5425 29.9929C27.5635 30.0134 27.5917 30.025 27.621 30.025C27.6504 30.025 27.6786 30.0134 27.6995 29.9929C27.7204 29.9723 27.7325 29.9443 27.733 29.915C27.7335 29.8856 27.7225 29.8572 27.7023 29.8359C27.6821 29.8146 27.6544 29.8021 27.625 29.801C27.6224 29.8009 27.6197 29.8009 27.617 29.801ZM20.367 30.363C20.3384 30.3648 20.3115 30.3776 20.292 30.3986C20.2724 30.4196 20.2617 30.4473 20.262 30.476C20.2623 30.4984 20.2692 30.5203 20.282 30.5387C20.2947 30.5571 20.3127 30.5712 20.3336 30.5793C20.3545 30.5874 20.3773 30.589 20.3992 30.584C20.421 30.5789 20.4408 30.5675 20.4561 30.5511C20.4713 30.5347 20.4813 30.5141 20.4847 30.4919C20.4881 30.4698 20.4848 30.4471 20.4752 30.4269C20.4656 30.4067 20.4502 30.3897 20.4309 30.3784C20.4116 30.367 20.3894 30.3617 20.367 30.363ZM27.617 30.363C27.5884 30.3648 27.5615 30.3776 27.542 30.3986C27.5224 30.4196 27.5117 30.4473 27.512 30.476C27.5123 30.4984 27.5192 30.5203 27.532 30.5387C27.5447 30.5571 27.5627 30.5712 27.5836 30.5793C27.6045 30.5874 27.6273 30.589 27.6492 30.584C27.671 30.5789 27.6908 30.5675 27.7061 30.5511C27.7213 30.5347 27.7313 30.5141 27.7347 30.4919C27.7381 30.4698 27.7348 30.4471 27.7252 30.4269C27.7156 30.4067 27.7002 30.3897 27.6809 30.3784C27.6616 30.367 27.6394 30.3617 27.617 30.363ZM20.367 30.923C20.3384 30.9253 20.3116 30.9383 20.2922 30.9595C20.2727 30.9806 20.2619 31.0083 20.262 31.037C20.262 31.0668 20.2738 31.0952 20.2948 31.1162C20.3158 31.1372 20.3443 31.149 20.374 31.149C20.4037 31.149 20.4322 31.1372 20.4532 31.1162C20.4742 31.0952 20.486 31.0668 20.486 31.037C20.4859 31.0217 20.4827 31.0066 20.4766 30.9925C20.4705 30.9785 20.4616 30.9658 20.4505 30.9553C20.4394 30.9447 20.4263 30.9365 20.4119 30.9312C20.3976 30.9258 20.3823 30.9234 20.367 30.924V30.923ZM27.617 30.923C27.5884 30.9253 27.5616 30.9383 27.5422 30.9595C27.5227 30.9806 27.5119 31.0083 27.512 31.037C27.512 31.0668 27.5238 31.0952 27.5448 31.1162C27.5658 31.1372 27.5943 31.149 27.624 31.149C27.6537 31.149 27.6822 31.1372 27.7032 31.1162C27.7242 31.0952 27.736 31.0668 27.736 31.037C27.7359 31.0217 27.7327 31.0066 27.7266 30.9925C27.7205 30.9785 27.7116 30.9658 27.7005 30.9553C27.6894 30.9447 27.6763 30.9365 27.6619 30.9312C27.6476 30.9258 27.6323 30.9234 27.617 30.924V30.923ZM20.367 31.486C20.3523 31.487 20.3379 31.4908 20.3247 31.4973C20.3115 31.5037 20.2996 31.5128 20.2899 31.5238C20.2801 31.5349 20.2726 31.5477 20.2679 31.5617C20.2631 31.5756 20.2611 31.5903 20.262 31.605C20.2629 31.6198 20.2667 31.6341 20.2732 31.6474C20.2797 31.6606 20.2887 31.6724 20.2998 31.6822C20.3108 31.6919 20.3237 31.6994 20.3376 31.7042C20.3516 31.709 20.3663 31.711 20.381 31.71C20.4107 31.7082 20.4385 31.6946 20.4582 31.6723C20.4779 31.65 20.4879 31.6208 20.486 31.591C20.4842 31.5613 20.4706 31.5336 20.4483 31.5139C20.4259 31.4942 20.3967 31.4842 20.367 31.486ZM27.617 31.486C27.6023 31.487 27.5879 31.4908 27.5747 31.4973C27.5615 31.5037 27.5496 31.5128 27.5399 31.5238C27.5301 31.5349 27.5226 31.5477 27.5179 31.5617C27.5131 31.5756 27.5111 31.5903 27.512 31.605C27.5129 31.6198 27.5167 31.6341 27.5232 31.6474C27.5297 31.6606 27.5387 31.6724 27.5498 31.6822C27.5608 31.6919 27.5737 31.6994 27.5876 31.7042C27.6016 31.709 27.6163 31.711 27.631 31.71C27.6607 31.7082 27.6885 31.6946 27.7082 31.6723C27.7279 31.65 27.7379 31.6208 27.736 31.591C27.7342 31.5613 27.7206 31.5336 27.6983 31.5139C27.6759 31.4942 27.6467 31.4842 27.617 31.486ZM20.355 32.049C20.3288 32.0534 20.305 32.0669 20.2879 32.0873C20.2709 32.1077 20.2617 32.1335 20.262 32.16C20.2616 32.1825 20.2679 32.2045 20.2801 32.2234C20.2923 32.2422 20.3098 32.257 20.3304 32.2659C20.351 32.2747 20.3738 32.2772 20.3958 32.2731C20.4179 32.269 20.4382 32.2584 20.4542 32.2427C20.4702 32.2269 20.4812 32.2068 20.4857 32.1848C20.4902 32.1629 20.4881 32.14 20.4796 32.1193C20.4711 32.0985 20.4566 32.0807 20.438 32.0682C20.4194 32.0557 20.3975 32.0491 20.375 32.049H20.355ZM27.605 32.049C27.5788 32.0534 27.555 32.0669 27.5379 32.0873C27.5209 32.1077 27.5117 32.1335 27.512 32.16C27.5116 32.1825 27.5179 32.2045 27.5301 32.2234C27.5423 32.2422 27.5598 32.257 27.5804 32.2659C27.601 32.2747 27.6238 32.2772 27.6458 32.2731C27.6679 32.269 27.6882 32.2584 27.7042 32.2427C27.7202 32.2269 27.7312 32.2068 27.7357 32.1848C27.7402 32.1629 27.7381 32.14 27.7296 32.1193C27.7211 32.0985 27.7066 32.0807 27.688 32.0682C27.6694 32.0557 27.6475 32.0491 27.625 32.049H27.605ZM16.707 32.139C16.4923 32.1315 16.2782 32.1672 16.0776 32.2441C15.8769 32.3211 15.6939 32.4376 15.5393 32.5869C15.3847 32.7361 15.2617 32.9149 15.1777 33.1127C15.0937 33.3105 15.0505 33.5232 15.0505 33.738C15.0505 33.9529 15.0937 34.1656 15.1777 34.3634C15.2617 34.5612 15.3847 34.74 15.5393 34.8892C15.6939 35.0385 15.8769 35.155 16.0776 35.232C16.2782 35.3089 16.4923 35.3446 16.707 35.337C17.1243 35.3266 17.521 35.1535 17.8124 34.8547C18.1039 34.5559 18.267 34.155 18.267 33.7375C18.267 33.3201 18.1039 32.9192 17.8124 32.6204C17.521 32.3216 17.1243 32.1485 16.707 32.138V32.139ZM24.004 32.139C23.7893 32.1315 23.5752 32.1672 23.3746 32.2441C23.1739 32.3211 22.9909 32.4376 22.8363 32.5869C22.6817 32.7361 22.5587 32.9149 22.4747 33.1127C22.3907 33.3105 22.3475 33.5232 22.3475 33.738C22.3475 33.9529 22.3907 34.1656 22.4747 34.3634C22.5587 34.5612 22.6817 34.74 22.8363 34.8892C22.9909 35.0385 23.1739 35.155 23.3746 35.232C23.5752 35.3089 23.7893 35.3446 24.004 35.337C24.4213 35.3266 24.818 35.1535 25.1094 34.8547C25.4009 34.5559 25.564 34.155 25.564 33.7375C25.564 33.3201 25.4009 32.9192 25.1094 32.6204C24.818 32.3216 24.4213 32.1485 24.004 32.138V32.139ZM31.301 32.139C31.0863 32.1315 30.8722 32.1672 30.6716 32.2441C30.4709 32.3211 30.2879 32.4376 30.1333 32.5869C29.9787 32.7361 29.8557 32.9149 29.7717 33.1127C29.6877 33.3105 29.6445 33.5232 29.6445 33.738C29.6445 33.9529 29.6877 34.1656 29.7717 34.3634C29.8557 34.5612 29.9787 34.74 30.1333 34.8892C30.2879 35.0385 30.4709 35.155 30.6716 35.232C30.8722 35.3089 31.0863 35.3446 31.301 35.337C31.7183 35.3266 32.115 35.1535 32.4064 34.8547C32.6979 34.5559 32.861 34.155 32.861 33.7375C32.861 33.3201 32.6979 32.9192 32.4064 32.6204C32.115 32.3216 31.7183 32.1485 31.301 32.138V32.139ZM16.707 32.601C16.8564 32.6009 17.0043 32.6301 17.1424 32.6871C17.2805 32.744 17.406 32.8277 17.5118 32.9332C17.6176 33.0386 17.7015 33.1639 17.7589 33.3019C17.8162 33.4398 17.8458 33.5877 17.846 33.737C17.8462 33.8864 17.817 34.0344 17.76 34.1725C17.703 34.3105 17.6194 34.4361 17.5139 34.5418C17.4084 34.6476 17.2831 34.7315 17.1452 34.7889C17.0073 34.8462 16.8594 34.8759 16.71 34.876C16.4083 34.8764 16.1188 34.757 15.9052 34.5439C15.6916 34.3309 15.5714 34.0417 15.571 33.74C15.5706 33.4384 15.6901 33.1489 15.9031 32.9353C16.1162 32.7217 16.4053 32.6014 16.707 32.601ZM24.004 32.601C24.1534 32.6009 24.3014 32.6301 24.4394 32.6871C24.5775 32.744 24.703 32.8277 24.8088 32.9332C24.9146 33.0386 24.9985 33.1639 25.0559 33.3019C25.1132 33.4398 25.1428 33.5877 25.143 33.737C25.1432 33.8864 25.114 34.0344 25.057 34.1725C25 34.3105 24.9164 34.4361 24.8109 34.5418C24.7054 34.6476 24.5801 34.7315 24.4422 34.7889C24.3043 34.8462 24.1564 34.8759 24.007 34.876C23.7053 34.8764 23.4158 34.757 23.2022 34.5439C22.9886 34.3309 22.8684 34.0417 22.868 33.74C22.8676 33.4384 22.9871 33.1489 23.2001 32.9353C23.4132 32.7217 23.7023 32.6014 24.004 32.601ZM31.301 32.601C31.4504 32.6009 31.5984 32.6301 31.7364 32.6871C31.8745 32.744 32 32.8277 32.1058 32.9332C32.2116 33.0386 32.2955 33.1639 32.3529 33.3019C32.4102 33.4398 32.4398 33.5877 32.44 33.737C32.4402 33.8864 32.411 34.0344 32.354 34.1725C32.297 34.3105 32.2134 34.4361 32.1079 34.5418C32.0024 34.6476 31.8771 34.7315 31.7392 34.7889C31.6013 34.8462 31.4534 34.8759 31.304 34.876C31.0023 34.8764 30.7128 34.757 30.4992 34.5439C30.2856 34.3309 30.1654 34.0417 30.165 33.74C30.1646 33.4384 30.2841 33.1489 30.4971 32.9353C30.7102 32.7217 30.9993 32.6014 31.301 32.601ZM20.356 32.611C20.3349 32.6145 20.3153 32.6239 20.2993 32.6381C20.2834 32.6524 20.2719 32.6709 20.2662 32.6914C20.2604 32.712 20.2607 32.7338 20.2669 32.7542C20.2731 32.7747 20.285 32.7929 20.3013 32.8068C20.3175 32.8206 20.3374 32.8296 20.3586 32.8325C20.3797 32.8355 20.4013 32.8323 20.4207 32.8234C20.4401 32.8145 20.4566 32.8002 20.4682 32.7823C20.4797 32.7643 20.4859 32.7434 20.486 32.722C20.4855 32.6929 20.4736 32.665 20.4529 32.6445C20.4321 32.6239 20.4042 32.6123 20.375 32.612H20.355L20.356 32.611ZM27.606 32.611C27.5849 32.6145 27.5653 32.6239 27.5493 32.6381C27.5334 32.6524 27.5219 32.6709 27.5162 32.6914C27.5104 32.712 27.5107 32.7338 27.5169 32.7542C27.5231 32.7747 27.535 32.7929 27.5513 32.8068C27.5675 32.8206 27.5874 32.8296 27.6086 32.8325C27.6297 32.8355 27.6513 32.8323 27.6707 32.8234C27.6901 32.8145 27.7066 32.8002 27.7182 32.7823C27.7297 32.7643 27.7359 32.7434 27.736 32.722C27.7355 32.6929 27.7236 32.665 27.7029 32.6445C27.6821 32.6239 27.6542 32.6123 27.625 32.612H27.605L27.606 32.611ZM20.377 33.171C20.362 33.1712 20.3471 33.1743 20.3332 33.1802C20.3194 33.1861 20.3068 33.1947 20.2963 33.2055C20.2858 33.2163 20.2776 33.229 20.272 33.243C20.2665 33.257 20.2638 33.272 20.264 33.287C20.264 33.349 20.314 33.397 20.377 33.397C20.3915 33.3972 20.406 33.3944 20.4194 33.389C20.4329 33.3835 20.4451 33.3754 20.4554 33.3652C20.4658 33.355 20.474 33.3428 20.4795 33.3294C20.4851 33.316 20.488 33.3016 20.488 33.287C20.4883 33.2572 20.4768 33.2283 20.456 33.2068C20.4353 33.1853 20.4069 33.1728 20.377 33.172V33.171ZM27.627 33.171C27.612 33.1712 27.5971 33.1743 27.5832 33.1802C27.5694 33.1861 27.5568 33.1947 27.5463 33.2055C27.5358 33.2163 27.5276 33.229 27.522 33.243C27.5165 33.257 27.5138 33.272 27.514 33.287C27.514 33.349 27.564 33.397 27.627 33.397C27.6415 33.3972 27.656 33.3944 27.6694 33.389C27.6829 33.3835 27.6951 33.3754 27.7054 33.3652C27.7158 33.355 27.724 33.3428 27.7295 33.3294C27.7351 33.316 27.738 33.3016 27.738 33.287C27.7383 33.2572 27.7268 33.2283 27.706 33.2068C27.6853 33.1853 27.6569 33.1728 27.627 33.172V33.171ZM20.367 33.734C20.3384 33.7358 20.3115 33.7486 20.292 33.7696C20.2724 33.7906 20.2617 33.8183 20.262 33.847C20.262 33.91 20.312 33.96 20.375 33.959C20.436 33.959 20.485 33.909 20.486 33.847C20.4861 33.8323 20.4834 33.8177 20.4779 33.8041C20.4724 33.7905 20.4642 33.778 20.4539 33.7676C20.4436 33.7571 20.4313 33.7487 20.4178 33.743C20.4043 33.7372 20.3897 33.7342 20.375 33.734H20.367ZM27.617 33.734C27.5884 33.7358 27.5615 33.7486 27.542 33.7696C27.5224 33.7906 27.5117 33.8183 27.512 33.847C27.512 33.91 27.562 33.96 27.625 33.959C27.686 33.959 27.735 33.909 27.736 33.847C27.7361 33.8323 27.7334 33.8177 27.7279 33.8041C27.7224 33.7905 27.7142 33.778 27.7039 33.7676C27.6936 33.7571 27.6813 33.7487 27.6678 33.743C27.6543 33.7372 27.6397 33.7342 27.625 33.734H27.617ZM20.367 34.297C20.3377 34.2981 20.3099 34.3106 20.2897 34.3319C20.2695 34.3532 20.2585 34.3816 20.259 34.411C20.2596 34.4403 20.2716 34.4683 20.2925 34.4889C20.3135 34.5094 20.3417 34.521 20.371 34.521C20.4004 34.521 20.4286 34.5094 20.4495 34.4889C20.4704 34.4683 20.4825 34.4403 20.483 34.411C20.4835 34.3816 20.4725 34.3532 20.4523 34.3319C20.4321 34.3106 20.4044 34.2981 20.375 34.297C20.3724 34.2969 20.3697 34.2969 20.367 34.297ZM27.617 34.297C27.5877 34.2981 27.5599 34.3106 27.5397 34.3319C27.5195 34.3532 27.5085 34.3816 27.509 34.411C27.5096 34.4403 27.5216 34.4683 27.5425 34.4889C27.5635 34.5094 27.5917 34.521 27.621 34.521C27.6504 34.521 27.6786 34.5094 27.6995 34.4889C27.7204 34.4683 27.7325 34.4403 27.733 34.411C27.7335 34.3816 27.7225 34.3532 27.7023 34.3319C27.6821 34.3106 27.6544 34.2981 27.625 34.297C27.6224 34.2969 27.6197 34.2969 27.617 34.297ZM20.367 34.859C20.3372 34.8601 20.309 34.873 20.2886 34.8948C20.2683 34.9167 20.2575 34.9457 20.2585 34.9755C20.2596 35.0054 20.2724 35.0336 20.2943 35.0539C20.3161 35.0743 20.3452 35.0851 20.375 35.084C20.3898 35.0835 20.4043 35.0801 20.4178 35.074C20.4312 35.0678 20.4433 35.0591 20.4534 35.0483C20.4635 35.0375 20.4713 35.0248 20.4765 35.0109C20.4817 34.9971 20.484 34.9823 20.4835 34.9675C20.483 34.9528 20.4796 34.9382 20.4734 34.9248C20.4673 34.9114 20.4586 34.8992 20.4477 34.8892C20.4369 34.8791 20.4242 34.8712 20.4104 34.8661C20.3965 34.8609 20.3818 34.8585 20.367 34.859ZM27.617 34.859C27.5872 34.8601 27.559 34.873 27.5386 34.8948C27.5183 34.9167 27.5075 34.9457 27.5085 34.9755C27.5096 35.0054 27.5224 35.0336 27.5443 35.0539C27.5661 35.0743 27.5952 35.0851 27.625 35.084C27.6398 35.0835 27.6543 35.0801 27.6678 35.074C27.6812 35.0678 27.6933 35.0591 27.7034 35.0483C27.7135 35.0375 27.7213 35.0248 27.7265 35.0109C27.7317 34.9971 27.734 34.9823 27.7335 34.9675C27.733 34.9528 27.7296 34.9382 27.7234 34.9248C27.7173 34.9114 27.7086 34.8992 27.6977 34.8892C27.6869 34.8791 27.6742 34.8712 27.6604 34.8661C27.6465 34.8609 27.6318 34.8585 27.617 34.859ZM20.367 35.422C20.3523 35.423 20.3379 35.4268 20.3247 35.4333C20.3115 35.4397 20.2996 35.4488 20.2899 35.4598C20.2801 35.4709 20.2726 35.4837 20.2679 35.4977C20.2631 35.5116 20.2611 35.5263 20.262 35.541C20.2629 35.5558 20.2667 35.5701 20.2732 35.5834C20.2797 35.5966 20.2887 35.6084 20.2998 35.6182C20.3108 35.6279 20.3237 35.6354 20.3376 35.6402C20.3516 35.645 20.3663 35.647 20.381 35.646C20.4107 35.6442 20.4385 35.6306 20.4582 35.6083C20.4779 35.586 20.4879 35.5568 20.486 35.527C20.4842 35.4973 20.4706 35.4696 20.4483 35.4499C20.4259 35.4302 20.3967 35.4202 20.367 35.422ZM27.617 35.422C27.6023 35.423 27.5879 35.4268 27.5747 35.4333C27.5615 35.4397 27.5496 35.4488 27.5399 35.4598C27.5301 35.4709 27.5226 35.4837 27.5179 35.4977C27.5131 35.5116 27.5111 35.5263 27.512 35.541C27.5129 35.5558 27.5167 35.5701 27.5232 35.5834C27.5297 35.5966 27.5387 35.6084 27.5498 35.6182C27.5608 35.6279 27.5737 35.6354 27.5876 35.6402C27.6016 35.645 27.6163 35.647 27.631 35.646C27.6607 35.6442 27.6885 35.6306 27.7082 35.6083C27.7279 35.586 27.7379 35.5568 27.736 35.527C27.7342 35.4973 27.7206 35.4696 27.6983 35.4499C27.6759 35.4302 27.6467 35.4202 27.617 35.422ZM16.787 35.976C16.3628 35.9753 15.9557 36.1429 15.6551 36.4422C15.3545 36.7415 15.1851 37.1479 15.184 37.572C15.184 38.452 15.901 39.166 16.787 39.166C16.9971 39.1668 17.2053 39.1262 17.3998 39.0466C17.5942 38.9669 17.771 38.8497 17.9201 38.7017C18.0693 38.5536 18.1878 38.3777 18.2689 38.1839C18.3501 37.9901 18.3922 37.7822 18.393 37.572C18.393 36.692 17.673 35.976 16.787 35.976ZM24.084 35.976C23.8739 35.9755 23.6657 36.0164 23.4714 36.0963C23.2771 36.1762 23.1004 36.2936 22.9515 36.4418C22.8025 36.59 22.6842 36.7661 22.6033 36.9601C22.5224 37.154 22.4805 37.3619 22.48 37.572C22.48 38.452 23.198 39.166 24.084 39.166C24.5082 39.1674 24.9155 39.0002 25.2165 38.7013C25.5175 38.4024 25.6874 37.9962 25.689 37.572C25.689 36.692 24.969 35.976 24.084 35.976ZM31.381 35.976C31.1709 35.9755 30.9627 36.0164 30.7684 36.0963C30.5741 36.1762 30.3974 36.2936 30.2485 36.4418C30.0995 36.59 29.9812 36.7661 29.9003 36.9601C29.8194 37.154 29.7775 37.3619 29.777 37.572C29.777 38.452 30.495 39.166 31.381 39.166C31.8052 39.1674 32.2125 39.0002 32.5135 38.7013C32.8145 38.4024 32.9844 37.9962 32.986 37.572C32.986 36.692 32.266 35.976 31.381 35.976ZM20.367 35.984C20.3522 35.985 20.3378 35.9888 20.3245 35.9953C20.3112 36.0018 20.2993 36.0109 20.2895 36.0219C20.2797 36.033 20.2722 36.046 20.2674 36.06C20.2626 36.074 20.2606 36.0888 20.2615 36.1035C20.2624 36.1183 20.2663 36.1328 20.2728 36.1461C20.2793 36.1594 20.2883 36.1712 20.2994 36.181C20.3105 36.1908 20.3234 36.1984 20.3374 36.2032C20.3514 36.208 20.3662 36.21 20.381 36.209C20.4109 36.2072 20.4387 36.1936 20.4585 36.1711C20.4783 36.1487 20.4884 36.1194 20.4865 36.0895C20.4847 36.0597 20.471 36.0318 20.4486 36.012C20.4262 35.9923 20.3969 35.9822 20.367 35.984ZM27.617 35.984C27.6022 35.985 27.5878 35.9888 27.5745 35.9953C27.5612 36.0018 27.5493 36.0109 27.5395 36.0219C27.5297 36.033 27.5222 36.046 27.5174 36.06C27.5126 36.074 27.5106 36.0888 27.5115 36.1035C27.5124 36.1183 27.5163 36.1328 27.5228 36.1461C27.5293 36.1594 27.5383 36.1712 27.5494 36.181C27.5605 36.1908 27.5734 36.1984 27.5874 36.2032C27.6014 36.208 27.6162 36.21 27.631 36.209C27.6609 36.2072 27.6887 36.1936 27.7085 36.1711C27.7283 36.1487 27.7384 36.1194 27.7365 36.0895C27.7347 36.0597 27.721 36.0318 27.6986 36.012C27.6762 35.9923 27.6469 35.9822 27.617 35.984ZM16.787 36.437C17.417 36.437 17.929 36.946 17.93 37.572C17.93 38.199 17.418 38.708 16.787 38.707C16.157 38.707 15.647 38.199 15.648 37.572C15.648 36.946 16.158 36.438 16.788 36.437H16.787ZM24.084 36.437C24.714 36.437 25.226 36.946 25.227 37.572C25.227 38.199 24.715 38.708 24.084 38.707C23.454 38.707 22.944 38.199 22.945 37.572C22.945 36.946 23.455 36.438 24.084 36.437ZM31.381 36.437C32.011 36.437 32.523 36.946 32.523 37.572C32.524 38.199 32.012 38.708 31.381 38.707C30.751 38.707 30.241 38.199 30.242 37.572C30.242 36.946 30.752 36.438 31.381 36.437ZM20.367 36.547C20.3523 36.548 20.3379 36.5518 20.3247 36.5583C20.3115 36.5647 20.2996 36.5737 20.2899 36.5848C20.2801 36.5959 20.2726 36.6087 20.2679 36.6227C20.2631 36.6366 20.2611 36.6513 20.262 36.666C20.2629 36.6808 20.2667 36.6951 20.2732 36.7084C20.2797 36.7216 20.2887 36.7334 20.2998 36.7432C20.3108 36.7529 20.3237 36.7604 20.3376 36.7652C20.3516 36.77 20.3663 36.772 20.381 36.771C20.4107 36.7692 20.4385 36.7556 20.4582 36.7333C20.4779 36.711 20.4879 36.6818 20.486 36.652C20.4842 36.6223 20.4706 36.5946 20.4483 36.5749C20.4259 36.5552 20.3967 36.5452 20.367 36.547ZM27.617 36.547C27.6023 36.548 27.5879 36.5518 27.5747 36.5583C27.5615 36.5647 27.5496 36.5737 27.5399 36.5848C27.5301 36.5959 27.5226 36.6087 27.5179 36.6227C27.5131 36.6366 27.5111 36.6513 27.512 36.666C27.5129 36.6808 27.5167 36.6951 27.5232 36.7084C27.5297 36.7216 27.5387 36.7334 27.5498 36.7432C27.5608 36.7529 27.5737 36.7604 27.5876 36.7652C27.6016 36.77 27.6163 36.772 27.631 36.771C27.6607 36.7692 27.6885 36.7556 27.7082 36.7333C27.7279 36.711 27.7379 36.6818 27.736 36.652C27.7342 36.6223 27.7206 36.5946 27.6983 36.5749C27.6759 36.5552 27.6467 36.5452 27.617 36.547ZM20.355 37.109C20.3287 37.1132 20.3048 37.1267 20.2877 37.1471C20.2706 37.1675 20.2615 37.1934 20.262 37.22C20.262 37.2499 20.2739 37.2785 20.295 37.2996C20.3161 37.3207 20.3447 37.3325 20.3745 37.3325C20.4044 37.3325 20.433 37.3207 20.4541 37.2996C20.4752 37.2785 20.487 37.2499 20.487 37.22C20.486 37.16 20.437 37.11 20.375 37.11H20.355V37.109ZM27.605 37.109C27.5787 37.1132 27.5548 37.1267 27.5377 37.1471C27.5206 37.1675 27.5115 37.1934 27.512 37.22C27.512 37.2499 27.5239 37.2785 27.545 37.2996C27.5661 37.3207 27.5947 37.3325 27.6245 37.3325C27.6544 37.3325 27.683 37.3207 27.7041 37.2996C27.7252 37.2785 27.737 37.2499 27.737 37.22C27.736 37.16 27.687 37.11 27.625 37.11H27.605V37.109ZM20.367 37.669C20.3377 37.6701 20.3099 37.6826 20.2897 37.7039C20.2695 37.7252 20.2585 37.7536 20.259 37.783C20.2596 37.8123 20.2716 37.8403 20.2925 37.8609C20.3135 37.8814 20.3417 37.893 20.371 37.893C20.4004 37.893 20.4286 37.8814 20.4495 37.8609C20.4704 37.8403 20.4825 37.8123 20.483 37.783C20.4835 37.7536 20.4725 37.7252 20.4523 37.7039C20.4321 37.6826 20.4044 37.6701 20.375 37.669C20.3724 37.6689 20.3697 37.6689 20.367 37.669ZM27.617 37.669C27.5877 37.6701 27.5599 37.6826 27.5397 37.7039C27.5195 37.7252 27.5085 37.7536 27.509 37.783C27.5096 37.8123 27.5216 37.8403 27.5425 37.8609C27.5635 37.8814 27.5917 37.893 27.621 37.893C27.6504 37.893 27.6786 37.8814 27.6995 37.8609C27.7204 37.8403 27.7325 37.8123 27.733 37.783C27.7335 37.7536 27.7225 37.7252 27.7023 37.7039C27.6821 37.6826 27.6544 37.6701 27.625 37.669C27.6224 37.6689 27.6197 37.6689 27.617 37.669ZM20.367 38.232C20.3382 38.2338 20.3112 38.2467 20.2916 38.268C20.272 38.2892 20.2614 38.3172 20.262 38.346C20.262 38.408 20.312 38.458 20.375 38.456C20.436 38.456 20.485 38.407 20.486 38.346C20.4863 38.3306 20.4834 38.3152 20.4775 38.3009C20.4715 38.2866 20.4627 38.2737 20.4515 38.2629C20.4403 38.2522 20.4271 38.244 20.4125 38.2386C20.398 38.2333 20.3825 38.2311 20.367 38.232ZM27.617 38.232C27.5882 38.2338 27.5612 38.2467 27.5416 38.268C27.522 38.2892 27.5114 38.3172 27.512 38.346C27.512 38.408 27.562 38.458 27.625 38.456C27.686 38.456 27.735 38.407 27.736 38.346C27.7363 38.3306 27.7334 38.3152 27.7275 38.3009C27.7215 38.2866 27.7127 38.2737 27.7015 38.2629C27.6903 38.2522 27.6771 38.244 27.6625 38.2386C27.648 38.2333 27.6325 38.2311 27.617 38.232ZM20.367 38.795C20.3377 38.7961 20.3099 38.8086 20.2897 38.8299C20.2695 38.8512 20.2585 38.8796 20.259 38.909C20.2596 38.9383 20.2716 38.9663 20.2925 38.9869C20.3135 39.0074 20.3417 39.019 20.371 39.019C20.4004 39.019 20.4286 39.0074 20.4495 38.9869C20.4704 38.9663 20.4825 38.9383 20.483 38.909C20.4835 38.8796 20.4725 38.8512 20.4523 38.8299C20.4321 38.8086 20.4044 38.7961 20.375 38.795C20.3724 38.7948 20.3697 38.7948 20.367 38.795ZM27.617 38.795C27.5877 38.7961 27.5599 38.8086 27.5397 38.8299C27.5195 38.8512 27.5085 38.8796 27.509 38.909C27.5096 38.9383 27.5216 38.9663 27.5425 38.9869C27.5635 39.0074 27.5917 39.019 27.621 39.019C27.6504 39.019 27.6786 39.0074 27.6995 38.9869C27.7204 38.9663 27.7325 38.9383 27.733 38.909C27.7335 38.8796 27.7225 38.8512 27.7023 38.8299C27.6821 38.8086 27.6544 38.7961 27.625 38.795C27.6224 38.7948 27.6197 38.7948 27.617 38.795ZM20.367 39.357C20.3522 39.3576 20.3377 39.361 20.3243 39.3671C20.3108 39.3733 20.2987 39.382 20.2886 39.3928C20.2786 39.4036 20.2707 39.4163 20.2656 39.4302C20.2604 39.444 20.258 39.4588 20.2585 39.4735C20.259 39.4883 20.2625 39.5028 20.2686 39.5163C20.2748 39.5297 20.2835 39.5418 20.2943 39.5519C20.3051 39.562 20.3178 39.5698 20.3317 39.575C20.3455 39.5802 20.3602 39.5826 20.375 39.582C20.4049 39.581 20.433 39.5681 20.4534 39.5463C20.4737 39.5244 20.4846 39.4954 20.4835 39.4655C20.4825 39.4357 20.4696 39.4075 20.4477 39.3872C20.4259 39.3668 20.3969 39.356 20.367 39.357ZM27.617 39.357C27.6022 39.3576 27.5877 39.361 27.5743 39.3671C27.5608 39.3733 27.5487 39.382 27.5386 39.3928C27.5286 39.4036 27.5207 39.4163 27.5156 39.4302C27.5104 39.444 27.508 39.4588 27.5085 39.4735C27.509 39.4883 27.5125 39.5028 27.5186 39.5163C27.5248 39.5297 27.5335 39.5418 27.5443 39.5519C27.5551 39.562 27.5678 39.5698 27.5817 39.575C27.5955 39.5802 27.6102 39.5826 27.625 39.582C27.6549 39.581 27.683 39.5681 27.7034 39.5463C27.7237 39.5244 27.7346 39.4954 27.7335 39.4655C27.7325 39.4357 27.7196 39.4075 27.6977 39.3872C27.6759 39.3668 27.6469 39.356 27.617 39.357ZM16.787 39.727C16.363 39.7262 15.956 39.8938 15.6555 40.1928C15.3549 40.4919 15.1853 40.898 15.184 41.322C15.184 42.202 15.901 42.916 16.787 42.916C16.9971 42.9168 17.2053 42.8762 17.3998 42.7966C17.5942 42.7169 17.771 42.5997 17.9201 42.4517C18.0693 42.3036 18.1878 42.1277 18.2689 41.9339C18.3501 41.7401 18.3922 41.5322 18.393 41.322C18.393 40.442 17.673 39.726 16.787 39.726V39.727ZM24.084 39.727C23.6598 39.726 23.2526 39.8934 22.9518 40.1925C22.651 40.4916 22.4813 40.8979 22.48 41.322C22.48 42.202 23.198 42.916 24.084 42.916C24.5082 42.9174 24.9155 42.7502 25.2165 42.4513C25.5175 42.1524 25.6874 41.7462 25.689 41.322C25.689 40.442 24.969 39.726 24.084 39.726V39.727ZM31.381 39.727C30.9568 39.726 30.5496 39.8934 30.2488 40.1925C29.948 40.4916 29.7783 40.8979 29.777 41.322C29.777 42.202 30.495 42.916 31.381 42.916C31.8052 42.9174 32.2125 42.7502 32.5135 42.4513C32.8145 42.1524 32.9844 41.7462 32.986 41.322C32.986 40.442 32.266 39.726 31.381 39.726V39.727ZM20.367 39.92C20.3523 39.921 20.3379 39.9248 20.3247 39.9313C20.3115 39.9377 20.2996 39.9467 20.2899 39.9578C20.2801 39.9688 20.2726 39.9817 20.2679 39.9957C20.2631 40.0096 20.2611 40.0243 20.262 40.039C20.2629 40.0538 20.2667 40.0681 20.2732 40.0814C20.2797 40.0946 20.2887 40.1064 20.2998 40.1162C20.3108 40.1259 20.3237 40.1334 20.3376 40.1382C20.3516 40.143 20.3663 40.145 20.381 40.144C20.4107 40.1422 20.4385 40.1286 20.4582 40.1063C20.4779 40.084 20.4879 40.0548 20.486 40.025C20.4842 39.9953 20.4706 39.9676 20.4483 39.9479C20.4259 39.9282 20.3967 39.9182 20.367 39.92ZM27.617 39.92C27.6023 39.921 27.5879 39.9248 27.5747 39.9313C27.5615 39.9377 27.5496 39.9467 27.5399 39.9578C27.5301 39.9688 27.5226 39.9817 27.5179 39.9957C27.5131 40.0096 27.5111 40.0243 27.512 40.039C27.5129 40.0538 27.5167 40.0681 27.5232 40.0814C27.5297 40.0946 27.5387 40.1064 27.5498 40.1162C27.5608 40.1259 27.5737 40.1334 27.5876 40.1382C27.6016 40.143 27.6163 40.145 27.631 40.144C27.6607 40.1422 27.6885 40.1286 27.7082 40.1063C27.7279 40.084 27.7379 40.0548 27.736 40.025C27.7342 39.9953 27.7206 39.9676 27.6983 39.9479C27.6759 39.9282 27.6467 39.9182 27.617 39.92ZM16.787 40.187C17.417 40.187 17.929 40.696 17.93 41.322C17.93 41.949 17.418 42.458 16.787 42.457C16.157 42.457 15.647 41.949 15.648 41.322C15.648 40.696 16.158 40.188 16.788 40.187H16.787ZM24.084 40.187C24.714 40.187 25.226 40.696 25.227 41.322C25.227 41.949 24.715 42.458 24.084 42.457C23.454 42.457 22.944 41.949 22.945 41.322C22.945 40.696 23.455 40.188 24.084 40.187ZM31.381 40.187C32.011 40.187 32.523 40.696 32.523 41.322C32.524 41.949 32.012 42.458 31.381 42.457C30.751 42.457 30.241 41.949 30.242 41.322C30.242 40.696 30.752 40.188 31.381 40.187ZM20.367 40.482C20.3522 40.483 20.3378 40.4868 20.3245 40.4933C20.3112 40.4998 20.2993 40.5089 20.2895 40.5199C20.2797 40.531 20.2722 40.544 20.2674 40.558C20.2626 40.572 20.2606 40.5868 20.2615 40.6015C20.2624 40.6163 20.2663 40.6308 20.2728 40.6441C20.2793 40.6574 20.2883 40.6693 20.2994 40.679C20.3105 40.6888 20.3234 40.6964 20.3374 40.7012C20.3514 40.706 20.3662 40.708 20.381 40.707C20.4109 40.7052 20.4387 40.6916 20.4585 40.6691C20.4783 40.6467 20.4884 40.6174 20.4865 40.5875C20.4847 40.5577 20.471 40.5298 20.4486 40.51C20.4262 40.4903 20.3969 40.4802 20.367 40.482ZM27.617 40.482C27.5872 40.4839 27.5593 40.4975 27.5395 40.5199C27.5197 40.5424 27.5097 40.5717 27.5115 40.6015C27.5134 40.6314 27.527 40.6593 27.5494 40.679C27.5718 40.6988 27.6012 40.7089 27.631 40.707C27.6458 40.7061 27.6602 40.7023 27.6735 40.6958C27.6868 40.6893 27.6987 40.6802 27.7085 40.6691C27.7183 40.658 27.7258 40.6451 27.7306 40.6311C27.7354 40.6171 27.7374 40.6023 27.7365 40.5875C27.7356 40.5728 27.7318 40.5583 27.7253 40.545C27.7188 40.5317 27.7097 40.5198 27.6986 40.51C27.6875 40.5003 27.6746 40.4927 27.6606 40.4879C27.6466 40.4831 27.6318 40.4811 27.617 40.482ZM20.355 41.045C20.3287 41.0492 20.3048 41.0627 20.2877 41.0831C20.2706 41.1035 20.2615 41.1294 20.262 41.156C20.2599 41.172 20.2612 41.1882 20.2658 41.2037C20.2705 41.2191 20.2784 41.2333 20.289 41.2455C20.2996 41.2576 20.3127 41.2673 20.3273 41.2739C20.342 41.2806 20.3579 41.284 20.374 41.284C20.3901 41.284 20.406 41.2806 20.4207 41.2739C20.4354 41.2673 20.4485 41.2576 20.4591 41.2455C20.4697 41.2333 20.4776 41.2191 20.4822 41.2037C20.4869 41.1882 20.4882 41.172 20.486 41.156C20.486 41.095 20.436 41.046 20.375 41.045H20.355ZM27.605 41.045C27.5787 41.0492 27.5548 41.0627 27.5377 41.0831C27.5206 41.1035 27.5115 41.1294 27.512 41.156C27.5099 41.172 27.5112 41.1882 27.5158 41.2037C27.5205 41.2191 27.5284 41.2333 27.539 41.2455C27.5496 41.2576 27.5627 41.2673 27.5773 41.2739C27.592 41.2806 27.6079 41.284 27.624 41.284C27.6401 41.284 27.656 41.2806 27.6707 41.2739C27.6854 41.2673 27.6985 41.2576 27.7091 41.2455C27.7197 41.2333 27.7276 41.2191 27.7322 41.2037C27.7369 41.1882 27.7382 41.172 27.736 41.156C27.736 41.095 27.686 41.046 27.625 41.045H27.605ZM20.355 41.607C20.3285 41.6112 20.3045 41.6248 20.2873 41.6455C20.2702 41.6661 20.2612 41.6923 20.262 41.719C20.262 41.781 20.312 41.831 20.375 41.829C20.436 41.829 20.485 41.78 20.486 41.719C20.486 41.657 20.436 41.608 20.375 41.607H20.355ZM27.605 41.607C27.5785 41.6112 27.5545 41.6248 27.5373 41.6455C27.5202 41.6661 27.5112 41.6923 27.512 41.719C27.512 41.781 27.562 41.831 27.625 41.829C27.686 41.829 27.735 41.78 27.736 41.719C27.736 41.657 27.686 41.608 27.625 41.607H27.605ZM20.377 42.167C20.3622 42.1669 20.3475 42.1697 20.3337 42.1753C20.3199 42.1808 20.3074 42.189 20.2968 42.1994C20.2862 42.2098 20.2778 42.2222 20.272 42.2359C20.2662 42.2495 20.2631 42.2642 20.263 42.279C20.2629 42.2939 20.2657 42.3086 20.2712 42.3224C20.2768 42.3361 20.285 42.3487 20.2954 42.3592C20.3058 42.3698 20.3182 42.3783 20.3319 42.3841C20.3455 42.3899 20.3602 42.3929 20.375 42.393C20.4049 42.3933 20.4336 42.3817 20.4549 42.3608C20.4761 42.3399 20.4883 42.3114 20.4885 42.2815C20.4888 42.2517 20.4772 42.223 20.4563 42.2017C20.4354 42.1804 20.4069 42.1683 20.377 42.168V42.167ZM27.627 42.167C27.6122 42.1669 27.5975 42.1697 27.5837 42.1753C27.5699 42.1808 27.5574 42.189 27.5468 42.1994C27.5362 42.2098 27.5278 42.2222 27.522 42.2359C27.5162 42.2495 27.5131 42.2642 27.513 42.279C27.5129 42.2939 27.5157 42.3086 27.5212 42.3224C27.5268 42.3361 27.535 42.3487 27.5454 42.3592C27.5558 42.3698 27.5682 42.3783 27.5819 42.3841C27.5955 42.3899 27.6102 42.3929 27.625 42.393C27.6398 42.3932 27.6544 42.3904 27.6681 42.3849C27.6818 42.3793 27.6943 42.3712 27.7049 42.3608C27.7154 42.3504 27.7238 42.3381 27.7296 42.3245C27.7353 42.3109 27.7384 42.2963 27.7385 42.2815C27.7386 42.2668 27.7359 42.2521 27.7303 42.2384C27.7248 42.2247 27.7166 42.2122 27.7063 42.2017C27.6959 42.1912 27.6836 42.1828 27.67 42.177C27.6564 42.1712 27.6418 42.1682 27.627 42.168V42.167ZM20.367 42.73C20.3377 42.7311 20.3099 42.7436 20.2897 42.7649C20.2695 42.7862 20.2585 42.8146 20.259 42.844C20.2596 42.8733 20.2716 42.9013 20.2925 42.9219C20.3135 42.9424 20.3417 42.954 20.371 42.954C20.4004 42.954 20.4286 42.9424 20.4495 42.9219C20.4704 42.9013 20.4825 42.8733 20.483 42.844C20.4835 42.8146 20.4725 42.7862 20.4523 42.7649C20.4321 42.7436 20.4044 42.7311 20.375 42.73C20.3724 42.7299 20.3697 42.7299 20.367 42.73ZM27.617 42.73C27.5877 42.7311 27.5599 42.7436 27.5397 42.7649C27.5195 42.7862 27.5085 42.8146 27.509 42.844C27.5096 42.8733 27.5216 42.9013 27.5425 42.9219C27.5635 42.9424 27.5917 42.954 27.621 42.954C27.6504 42.954 27.6786 42.9424 27.6995 42.9219C27.7204 42.9013 27.7325 42.8733 27.733 42.844C27.7335 42.8146 27.7225 42.7862 27.7023 42.7649C27.6821 42.7436 27.6544 42.7311 27.625 42.73C27.6224 42.7299 27.6197 42.7299 27.617 42.73Z" fill="#333333"/>
</svg>
