<svg width="48" height="48" viewBox="0 0 48 48" fill="none" xmlns="http://www.w3.org/2000/svg">
<path d="M28.9 4.07998C23.99 4.06998 19.12 4.12998 14.15 4.12998C13.28 4.12998 12.58 4.82998 12.58 5.68998V42.56C12.58 43.43 13.28 44.13 14.15 44.13H33.85C34.72 44.13 35.42 43.43 35.42 42.56V5.68998C35.42 4.81998 34.72 4.12998 33.85 4.12998C32.2 4.09998 30.55 4.08998 28.91 4.07998H28.9ZM20.36 6.18998H20.38C20.44 6.18998 20.48 6.23998 20.48 6.29998C20.4801 6.31531 20.4769 6.33048 20.4708 6.34452C20.4647 6.35856 20.4556 6.37117 20.4443 6.38152C20.433 6.39188 20.4197 6.39976 20.4052 6.40466C20.3907 6.40956 20.3753 6.41137 20.36 6.40998C20.3308 6.40998 20.3029 6.39839 20.2822 6.37776C20.2616 6.35713 20.25 6.32916 20.25 6.29998C20.25 6.27081 20.2616 6.24283 20.2822 6.2222C20.3029 6.20157 20.3308 6.18998 20.36 6.18998ZM27.61 6.18998H27.63C27.69 6.18998 27.73 6.23998 27.73 6.29998C27.7301 6.31531 27.7269 6.33048 27.7208 6.34452C27.7147 6.35856 27.7056 6.37117 27.6943 6.38152C27.683 6.39188 27.6697 6.39976 27.6552 6.40466C27.6407 6.40956 27.6253 6.41137 27.61 6.40998C27.5808 6.40998 27.5529 6.39839 27.5322 6.37776C27.5116 6.35713 27.5 6.32916 27.5 6.29998C27.5 6.27081 27.5116 6.24283 27.5322 6.2222C27.5529 6.20157 27.5808 6.18998 27.61 6.18998ZM20.38 6.74998C20.3945 6.74998 20.4088 6.75283 20.4221 6.75835C20.4355 6.76388 20.4476 6.77199 20.4578 6.7822C20.468 6.79241 20.4761 6.80454 20.4816 6.81789C20.4872 6.83123 20.49 6.84554 20.49 6.85998C20.49 6.87443 20.4872 6.88873 20.4816 6.90208C20.4761 6.91542 20.468 6.92755 20.4578 6.93776C20.4476 6.94798 20.4355 6.95608 20.4221 6.96161C20.4088 6.96714 20.3945 6.96998 20.38 6.96998C20.3508 6.96998 20.3229 6.95839 20.3022 6.93776C20.2816 6.91713 20.27 6.88916 20.27 6.85998C20.27 6.83081 20.2816 6.80283 20.3022 6.7822C20.3229 6.76157 20.3508 6.74998 20.38 6.74998ZM27.63 6.74998C27.6445 6.74998 27.6588 6.75283 27.6721 6.75835C27.6855 6.76388 27.6976 6.77199 27.7078 6.7822C27.718 6.79241 27.7261 6.80454 27.7316 6.81789C27.7372 6.83123 27.74 6.84554 27.74 6.85998C27.74 6.87443 27.7372 6.88873 27.7316 6.90208C27.7261 6.91542 27.718 6.92755 27.7078 6.93776C27.6976 6.94798 27.6855 6.95608 27.6721 6.96161C27.6588 6.96714 27.6445 6.96998 27.63 6.96998C27.6008 6.96998 27.5729 6.95839 27.5522 6.93776C27.5316 6.91713 27.52 6.88916 27.52 6.85998C27.52 6.83081 27.5316 6.80283 27.5522 6.7822C27.5729 6.76157 27.6008 6.74998 27.63 6.74998ZM16.73 7.24998C16.9401 7.24539 17.1491 7.28222 17.345 7.35838C17.5409 7.43454 17.7198 7.54854 17.8716 7.69386C18.0235 7.83919 18.1452 8.01299 18.2298 8.20535C18.3145 8.39771 18.3604 8.60487 18.365 8.81498C18.3696 9.0251 18.3328 9.23406 18.2566 9.42994C18.1805 9.62582 18.0665 9.80478 17.9211 9.9566C17.7758 10.1084 17.602 10.2301 17.4096 10.3148C17.2173 10.3994 17.0101 10.4454 16.8 10.45C16.5899 10.4552 16.3808 10.4191 16.1847 10.3435C15.9885 10.2679 15.8092 10.1545 15.6569 10.0096C15.5046 9.86478 15.3824 9.69134 15.2971 9.49923C15.2119 9.30712 15.1653 9.1001 15.16 8.88998C15.1548 8.67987 15.1909 8.47078 15.2665 8.27464C15.3421 8.07851 15.4555 7.89918 15.6004 7.7469C15.7452 7.59461 15.9187 7.47234 16.1108 7.38708C16.3029 7.30182 16.5099 7.25523 16.72 7.24998H16.73ZM31.27 7.24998C31.6944 7.23805 32.1061 7.39517 32.4146 7.68679C32.7231 7.97841 32.9031 8.38064 32.915 8.80498C32.927 9.22933 32.7698 9.64104 32.4782 9.94953C32.1866 10.258 31.7844 10.438 31.36 10.45C30.9357 10.4619 30.524 10.3048 30.2155 10.0132C29.907 9.72155 29.727 9.31933 29.715 8.89498C29.7031 8.47064 29.8602 8.05893 30.1518 7.75043C30.4434 7.44193 30.8457 7.26192 31.27 7.24998ZM24 9.07998C24.4244 9.06937 24.8355 9.22777 25.1431 9.52033C25.4507 9.81288 25.6294 10.2156 25.64 10.64C25.6506 11.0643 25.4922 11.4755 25.1997 11.7831C24.9071 12.0906 24.5044 12.2694 24.08 12.28C23.6557 12.2906 23.2445 12.1322 22.9369 11.8396C22.6294 11.5471 22.4506 11.1443 22.44 10.72C22.4294 10.2956 22.5878 9.88446 22.8804 9.5769C23.1729 9.26934 23.5757 9.09059 24 9.07998ZM20.35 10.12H20.37C20.44 10.12 20.48 10.18 20.49 10.24C20.49 10.2705 20.4779 10.2997 20.4563 10.3213C20.4348 10.3429 20.4055 10.355 20.375 10.355C20.3445 10.355 20.3153 10.3429 20.2937 10.3213C20.2721 10.2997 20.26 10.2705 20.26 10.24C20.26 10.18 20.3 10.14 20.36 10.12H20.35ZM27.6 10.12H27.62C27.69 10.12 27.73 10.18 27.74 10.24C27.74 10.2705 27.7279 10.2997 27.7063 10.3213C27.6848 10.3429 27.6555 10.355 27.625 10.355C27.5945 10.355 27.5653 10.3429 27.5437 10.3213C27.5221 10.2997 27.51 10.2705 27.51 10.24C27.51 10.18 27.55 10.14 27.61 10.12H27.6ZM20.38 10.68C20.4049 10.6756 20.4306 10.6799 20.4527 10.6921C20.4748 10.7044 20.492 10.724 20.5014 10.7474C20.5108 10.7709 20.5118 10.7969 20.5043 10.8211C20.4967 10.8452 20.4811 10.866 20.46 10.88C20.4494 10.8901 20.4368 10.8979 20.423 10.9031C20.4093 10.9082 20.3947 10.9106 20.38 10.91C20.3583 10.9095 20.3372 10.9026 20.3194 10.8901C20.3016 10.8777 20.2879 10.8602 20.28 10.84L20.26 10.8C20.26 10.74 20.31 10.68 20.38 10.68ZM27.63 10.68C27.6549 10.6756 27.6806 10.6799 27.7027 10.6921C27.7248 10.7044 27.742 10.724 27.7514 10.7474C27.7608 10.7709 27.7618 10.7969 27.7543 10.8211C27.7467 10.8452 27.7311 10.866 27.71 10.88C27.6994 10.8901 27.6868 10.8979 27.673 10.9031C27.6593 10.9082 27.6447 10.9106 27.63 10.91C27.6083 10.9095 27.5872 10.9026 27.5694 10.8901C27.5516 10.8777 27.5379 10.8602 27.53 10.84L27.51 10.8C27.51 10.74 27.56 10.68 27.63 10.68ZM16.73 11.08C17.1544 11.0707 17.565 11.2304 17.8716 11.5239C18.1783 11.8174 18.3557 12.2206 18.365 12.645C18.3743 13.0693 18.2146 13.48 17.9211 13.7866C17.6276 14.0932 17.2244 14.2707 16.8 14.28C16.5899 14.2852 16.3808 14.2491 16.1847 14.1735C15.9885 14.0979 15.8092 13.9845 15.6569 13.8396C15.5046 13.6948 15.3824 13.5213 15.2971 13.3292C15.2119 13.1371 15.1653 12.9301 15.16 12.72C15.1548 12.5099 15.1909 12.3008 15.2665 12.1046C15.3421 11.9085 15.4555 11.7292 15.6004 11.5769C15.7452 11.4246 15.9187 11.3023 16.1108 11.2171C16.3029 11.1318 16.5099 11.0852 16.72 11.08H16.73ZM31.27 11.08C31.4801 11.0741 31.6894 11.1096 31.8857 11.1846C32.0821 11.2595 32.2618 11.3724 32.4146 11.5168C32.5673 11.6612 32.6901 11.8343 32.776 12.0261C32.8619 12.218 32.9091 12.4249 32.915 12.635C32.9209 12.8451 32.8854 13.0543 32.8104 13.2507C32.7355 13.4471 32.6226 13.6268 32.4782 13.7795C32.3338 13.9323 32.1607 14.0551 31.9689 14.141C31.777 14.2268 31.5701 14.2741 31.36 14.28C30.9357 14.2919 30.524 14.1348 30.2155 13.8432C29.907 13.5516 29.727 13.1493 29.715 12.725C29.7031 12.3006 29.8602 11.8889 30.1518 11.5804C30.4434 11.2719 30.8457 11.0919 31.27 11.08ZM20.37 11.25C20.3934 11.2484 20.4167 11.2543 20.4365 11.2669C20.4563 11.2795 20.4715 11.2981 20.48 11.32C20.4865 11.3365 20.4888 11.3543 20.4869 11.3718C20.485 11.3894 20.4789 11.4063 20.4691 11.421C20.4593 11.4357 20.446 11.4479 20.4305 11.4564C20.415 11.4649 20.3977 11.4696 20.38 11.47C20.3508 11.47 20.3229 11.4584 20.3022 11.4378C20.2816 11.4171 20.27 11.3892 20.27 11.36C20.27 11.3308 20.2816 11.3028 20.3022 11.2822C20.3229 11.2616 20.3508 11.25 20.38 11.25H20.37ZM27.63 11.25C27.6517 11.2505 27.6728 11.2574 27.6906 11.2698C27.7084 11.2823 27.7221 11.2997 27.73 11.32C27.7365 11.3365 27.7388 11.3543 27.7369 11.3718C27.735 11.3894 27.7289 11.4063 27.7191 11.421C27.7093 11.4357 27.696 11.4479 27.6805 11.4564C27.665 11.4649 27.6477 11.4696 27.63 11.47C27.6008 11.47 27.5729 11.4584 27.5522 11.4378C27.5316 11.4171 27.52 11.3892 27.52 11.36C27.52 11.3308 27.5316 11.3028 27.5522 11.2822C27.5729 11.2616 27.6008 11.25 27.63 11.25ZM20.37 11.81C20.3853 11.8086 20.4007 11.8104 20.4152 11.8153C20.4297 11.8202 20.443 11.8281 20.4543 11.8384C20.4656 11.8488 20.4747 11.8614 20.4808 11.8754C20.4869 11.8895 20.4901 11.9047 20.49 11.92C20.49 11.98 20.44 12.04 20.38 12.04C20.3495 12.0413 20.3197 12.0305 20.2972 12.0098C20.2747 11.9892 20.2613 11.9605 20.26 11.93C20.2587 11.8995 20.2695 11.8697 20.2902 11.8472C20.3108 11.8247 20.3395 11.8113 20.37 11.81ZM27.62 11.81C27.6353 11.8086 27.6507 11.8104 27.6652 11.8153C27.6797 11.8202 27.693 11.8281 27.7043 11.8384C27.7156 11.8488 27.7247 11.8614 27.7308 11.8754C27.7369 11.8895 27.7401 11.9047 27.74 11.92C27.74 11.98 27.69 12.04 27.63 12.04C27.6149 12.0406 27.5998 12.0383 27.5856 12.0331C27.5714 12.028 27.5584 12.02 27.5472 12.0098C27.5361 11.9996 27.5271 11.9873 27.5207 11.9736C27.5143 11.9599 27.5107 11.9451 27.51 11.93C27.5094 11.9149 27.5117 11.8998 27.5169 11.8856C27.522 11.8714 27.53 11.8583 27.5402 11.8472C27.5504 11.8361 27.5627 11.827 27.5764 11.8206C27.5901 11.8143 27.6049 11.8106 27.62 11.81ZM20.37 12.37C20.3853 12.3686 20.4007 12.3704 20.4152 12.3753C20.4297 12.3802 20.443 12.3881 20.4543 12.3984C20.4656 12.4088 20.4747 12.4214 20.4808 12.4354C20.4869 12.4495 20.4901 12.4647 20.49 12.48C20.49 12.55 20.44 12.6 20.38 12.6C20.3495 12.6013 20.3197 12.5905 20.2972 12.5698C20.2747 12.5492 20.2613 12.5205 20.26 12.49C20.2587 12.4595 20.2695 12.4297 20.2902 12.4072C20.3108 12.3847 20.3395 12.3713 20.37 12.37ZM27.62 12.37C27.6353 12.3686 27.6507 12.3704 27.6652 12.3753C27.6797 12.3802 27.693 12.3881 27.7043 12.3984C27.7156 12.4088 27.7247 12.4214 27.7308 12.4354C27.7369 12.4495 27.7401 12.4647 27.74 12.48C27.74 12.55 27.69 12.6 27.63 12.6C27.6149 12.6006 27.5998 12.5983 27.5856 12.5931C27.5714 12.588 27.5584 12.58 27.5472 12.5698C27.5361 12.5596 27.5271 12.5473 27.5207 12.5336C27.5143 12.5199 27.5107 12.5051 27.51 12.49C27.5094 12.4749 27.5117 12.4598 27.5169 12.4456C27.522 12.4314 27.53 12.4183 27.5402 12.4072C27.5504 12.3961 27.5627 12.387 27.5764 12.3806C27.5901 12.3743 27.6049 12.3706 27.62 12.37ZM24 12.91C24.2101 12.9047 24.4192 12.9409 24.6154 13.0165C24.8115 13.092 24.9908 13.2055 25.1431 13.3503C25.2954 13.4952 25.4177 13.6686 25.5029 13.8607C25.5882 14.0528 25.6348 14.2599 25.64 14.47C25.6453 14.6801 25.6091 14.8892 25.5335 15.0853C25.458 15.2815 25.3445 15.4608 25.1997 15.6131C25.0548 15.7654 24.8814 15.8876 24.6893 15.9729C24.4972 16.0581 24.2901 16.1047 24.08 16.11C23.6557 16.1206 23.2445 15.9622 22.9369 15.6696C22.6294 15.3771 22.4506 14.9743 22.44 14.55C22.4294 14.1256 22.5878 13.7145 22.8804 13.4069C23.1729 13.0993 23.5757 12.9206 24 12.91ZM20.36 14.62H20.38C20.4012 14.6219 20.4214 14.63 20.4382 14.6432C20.4549 14.6564 20.4674 14.6742 20.4742 14.6944C20.4811 14.7145 20.4819 14.7363 20.4766 14.7569C20.4712 14.7776 20.4601 14.7962 20.4443 14.8106C20.4286 14.825 20.4091 14.8345 20.3881 14.838C20.367 14.8415 20.3455 14.8388 20.3259 14.8303C20.3064 14.8218 20.2898 14.8077 20.2781 14.7899C20.2664 14.7721 20.2601 14.7513 20.26 14.73C20.26 14.68 20.3 14.63 20.36 14.63V14.62ZM27.61 14.62H27.63C27.6512 14.6219 27.6714 14.63 27.6882 14.6432C27.7049 14.6564 27.7174 14.6742 27.7242 14.6944C27.7311 14.7145 27.7319 14.7363 27.7266 14.7569C27.7212 14.7776 27.7101 14.7962 27.6943 14.8106C27.6786 14.825 27.6591 14.8345 27.6381 14.838C27.617 14.8415 27.5955 14.8388 27.5759 14.8303C27.5564 14.8218 27.5398 14.8077 27.5281 14.7899C27.5164 14.7721 27.5101 14.7513 27.51 14.73C27.51 14.68 27.55 14.63 27.61 14.63V14.62ZM16.72 14.92C17.1444 14.92 17.5513 15.0886 17.8514 15.3886C18.1514 15.6887 18.32 16.0956 18.32 16.52C18.32 16.9443 18.1514 17.3513 17.8514 17.6514C17.5513 17.9514 17.1444 18.12 16.72 18.12C16.2957 18.12 15.8887 17.9514 15.5886 17.6514C15.2886 17.3513 15.12 16.9443 15.12 16.52C15.12 16.0956 15.2886 15.6887 15.5886 15.3886C15.8887 15.0886 16.2957 14.92 16.72 14.92ZM31.27 14.92C31.6944 14.92 32.1013 15.0886 32.4014 15.3886C32.7014 15.6887 32.87 16.0956 32.87 16.52C32.87 16.9443 32.7014 17.3513 32.4014 17.6514C32.1013 17.9514 31.6944 18.12 31.27 18.12C30.8457 18.12 30.4387 17.9514 30.1386 17.6514C29.8386 17.3513 29.67 16.9443 29.67 16.52C29.67 16.0956 29.8386 15.6887 30.1386 15.3886C30.4387 15.0886 30.8457 14.92 31.27 14.92ZM20.36 15.18H20.38C20.44 15.18 20.48 15.23 20.48 15.3C20.4804 15.3206 20.475 15.3409 20.4644 15.3586C20.4538 15.3763 20.4384 15.3906 20.42 15.4C20.4057 15.4063 20.3901 15.4095 20.3745 15.4093C20.3588 15.4091 20.3433 15.4056 20.3291 15.399C20.3149 15.3924 20.3023 15.3828 20.2921 15.3709C20.2819 15.359 20.2744 15.345 20.27 15.33C20.2638 15.3143 20.2612 15.2973 20.2626 15.2804C20.2639 15.2636 20.2692 15.2472 20.2779 15.2327C20.2866 15.2182 20.2985 15.2059 20.3128 15.1967C20.327 15.1876 20.3432 15.1819 20.36 15.18ZM27.61 15.18H27.63C27.69 15.18 27.73 15.23 27.73 15.3C27.7304 15.3206 27.725 15.3409 27.7144 15.3586C27.7038 15.3763 27.6884 15.3906 27.67 15.4C27.6557 15.4063 27.6401 15.4095 27.6245 15.4093C27.6088 15.4091 27.5933 15.4056 27.5791 15.399C27.5649 15.3924 27.5523 15.3828 27.5421 15.3709C27.5319 15.359 27.5244 15.345 27.52 15.33C27.5138 15.3143 27.5112 15.2973 27.5126 15.2804C27.5139 15.2636 27.5192 15.2472 27.5279 15.2327C27.5366 15.2182 27.5485 15.2059 27.5628 15.1967C27.577 15.1876 27.5932 15.1819 27.61 15.18ZM20.38 15.74C20.4017 15.7405 20.4228 15.7474 20.4406 15.7598C20.4584 15.7723 20.4721 15.7897 20.48 15.81C20.4887 15.8269 20.4928 15.8458 20.4919 15.8648C20.4911 15.8837 20.4854 15.9022 20.4753 15.9183C20.4653 15.9344 20.4512 15.9476 20.4345 15.9567C20.4178 15.9658 20.399 15.9703 20.38 15.97C20.3495 15.97 20.3203 15.9579 20.2987 15.9363C20.2771 15.9147 20.265 15.8855 20.265 15.855C20.265 15.8245 20.2771 15.7952 20.2987 15.7737C20.3203 15.7521 20.3495 15.74 20.38 15.74ZM27.63 15.74C27.6517 15.7405 27.6728 15.7474 27.6906 15.7598C27.7084 15.7723 27.7221 15.7897 27.73 15.81C27.7387 15.8269 27.7428 15.8458 27.7419 15.8648C27.7411 15.8837 27.7354 15.9022 27.7253 15.9183C27.7153 15.9344 27.7012 15.9476 27.6845 15.9567C27.6678 15.9658 27.649 15.9703 27.63 15.97C27.5995 15.97 27.5703 15.9579 27.5487 15.9363C27.5271 15.9147 27.515 15.8855 27.515 15.855C27.515 15.8245 27.5271 15.7952 27.5487 15.7737C27.5703 15.7521 27.5995 15.74 27.63 15.74ZM24 16.74C24.2101 16.7347 24.4192 16.7709 24.6154 16.8465C24.8115 16.922 24.9908 17.0355 25.1431 17.1803C25.2954 17.3252 25.4177 17.4986 25.5029 17.6907C25.5882 17.8828 25.6348 18.0899 25.64 18.3C25.6453 18.5101 25.6091 18.7192 25.5335 18.9153C25.458 19.1115 25.3445 19.2908 25.1997 19.4431C25.0548 19.5954 24.8814 19.7176 24.6893 19.8029C24.4972 19.8881 24.2901 19.9347 24.08 19.94C23.6557 19.9506 23.2445 19.7922 22.9369 19.4996C22.6294 19.2071 22.4506 18.8043 22.44 18.38C22.4294 17.9556 22.5878 17.5445 22.8804 17.2369C23.1729 16.9293 23.5757 16.7506 24 16.74ZM20.37 17.44C20.3905 17.4409 20.4103 17.4474 20.4272 17.459C20.4441 17.4705 20.4575 17.4865 20.4658 17.5052C20.4741 17.5239 20.477 17.5446 20.4742 17.5648C20.4714 17.5851 20.4631 17.6042 20.45 17.62C20.4346 17.6363 20.4146 17.6476 20.3927 17.6522C20.3707 17.6568 20.3479 17.6547 20.3272 17.646C20.3066 17.6373 20.289 17.6224 20.277 17.6035C20.265 17.5846 20.2591 17.5624 20.26 17.54C20.26 17.48 20.31 17.44 20.36 17.44H20.37ZM27.62 17.44C27.6405 17.4409 27.6603 17.4474 27.6772 17.459C27.6941 17.4705 27.7075 17.4865 27.7158 17.5052C27.7241 17.5239 27.727 17.5446 27.7242 17.5648C27.7214 17.5851 27.7131 17.6042 27.7 17.62C27.6846 17.6363 27.6646 17.6476 27.6427 17.6522C27.6207 17.6568 27.5979 17.6547 27.5772 17.646C27.5566 17.6373 27.539 17.6224 27.527 17.6035C27.515 17.5846 27.5091 17.5624 27.51 17.54C27.51 17.48 27.56 17.44 27.61 17.44H27.62ZM16.72 18.76C17.1444 18.76 17.5513 18.9286 17.8514 19.2286C18.1514 19.5287 18.32 19.9356 18.32 20.36C18.32 20.7843 18.1514 21.1913 17.8514 21.4914C17.5513 21.7914 17.1444 21.96 16.72 21.96C16.2957 21.96 15.8887 21.7914 15.5886 21.4914C15.2886 21.1913 15.12 20.7843 15.12 20.36C15.12 19.9356 15.2886 19.5287 15.5886 19.2286C15.8887 18.9286 16.2957 18.76 16.72 18.76ZM31.27 18.76C31.6944 18.76 32.1013 18.9286 32.4014 19.2286C32.7014 19.5287 32.87 19.9356 32.87 20.36C32.87 20.7843 32.7014 21.1913 32.4014 21.4914C32.1013 21.7914 31.6944 21.96 31.27 21.96C30.8457 21.96 30.4387 21.7914 30.1386 21.4914C29.8386 21.1913 29.67 20.7843 29.67 20.36C29.67 19.9356 29.8386 19.5287 30.1386 19.2286C30.4387 18.9286 30.8457 18.76 31.27 18.76ZM20.36 19.12H20.38C20.4012 19.1219 20.4214 19.13 20.4382 19.1432C20.4549 19.1564 20.4674 19.1742 20.4742 19.1944C20.4811 19.2145 20.4819 19.2363 20.4766 19.2569C20.4712 19.2776 20.4601 19.2962 20.4443 19.3106C20.4286 19.325 20.4091 19.3345 20.3881 19.338C20.367 19.3415 20.3455 19.3388 20.3259 19.3303C20.3064 19.3218 20.2898 19.3077 20.2781 19.2899C20.2664 19.2721 20.2601 19.2513 20.26 19.23C20.2599 19.2025 20.2701 19.1759 20.2886 19.1555C20.3071 19.1352 20.3326 19.1225 20.36 19.12ZM27.61 19.12H27.63C27.6512 19.1219 27.6714 19.13 27.6882 19.1432C27.7049 19.1564 27.7174 19.1742 27.7242 19.1944C27.7311 19.2145 27.7319 19.2363 27.7266 19.2569C27.7212 19.2776 27.7101 19.2962 27.6943 19.3106C27.6786 19.325 27.6591 19.3345 27.6381 19.338C27.617 19.3415 27.5955 19.3388 27.5759 19.3303C27.5564 19.3218 27.5398 19.3077 27.5281 19.2899C27.5164 19.2721 27.5101 19.2513 27.51 19.23C27.5099 19.2025 27.5201 19.1759 27.5386 19.1555C27.5571 19.1352 27.5826 19.1225 27.61 19.12ZM20.38 19.68C20.404 19.6784 20.4278 19.6848 20.4478 19.698C20.4679 19.7113 20.483 19.7307 20.4909 19.7534C20.4989 19.7761 20.4992 19.8007 20.4918 19.8236C20.4844 19.8464 20.4697 19.8662 20.45 19.88C20.4297 19.899 20.4029 19.9095 20.375 19.9095C20.3472 19.9095 20.3204 19.899 20.3 19.88C20.2789 19.866 20.2633 19.8452 20.2558 19.8211C20.2482 19.7969 20.2493 19.7709 20.2586 19.7474C20.268 19.724 20.2852 19.7044 20.3073 19.6921C20.3295 19.6799 20.3551 19.6756 20.38 19.68ZM27.63 19.68C27.654 19.6784 27.6778 19.6848 27.6978 19.698C27.7179 19.7113 27.733 19.7307 27.7409 19.7534C27.7489 19.7761 27.7492 19.8007 27.7418 19.8236C27.7344 19.8464 27.7197 19.8662 27.7 19.88C27.6797 19.899 27.6529 19.9095 27.625 19.9095C27.5972 19.9095 27.5704 19.899 27.55 19.88C27.5289 19.866 27.5133 19.8452 27.5058 19.8211C27.4982 19.7969 27.4993 19.7709 27.5086 19.7474C27.518 19.724 27.5352 19.7044 27.5573 19.6921C27.5795 19.6799 27.6051 19.6756 27.63 19.68ZM24 20.58C24.4244 20.58 24.8313 20.7486 25.1314 21.0486C25.4314 21.3487 25.6 21.7556 25.6 22.18C25.6 22.6043 25.4314 23.0113 25.1314 23.3114C24.8313 23.6114 24.4244 23.78 24 23.78C23.5757 23.78 23.1687 23.6114 22.8686 23.3114C22.5686 23.0113 22.4 22.6043 22.4 22.18C22.4 21.7556 22.5686 21.3487 22.8686 21.0486C23.1687 20.7486 23.5757 20.58 24 20.58ZM20.37 22.49C20.3949 22.4856 20.4206 22.4899 20.4427 22.5021C20.4648 22.5144 20.482 22.5339 20.4914 22.5574C20.5008 22.5809 20.5018 22.6069 20.4943 22.6311C20.4867 22.6552 20.4711 22.676 20.45 22.69C20.4341 22.7073 20.4131 22.7191 20.39 22.7236C20.367 22.7282 20.343 22.7252 20.3218 22.7151C20.3005 22.705 20.2831 22.6884 20.272 22.6677C20.2608 22.647 20.2567 22.6233 20.26 22.6C20.26 22.55 20.31 22.5 20.36 22.5L20.37 22.49ZM27.62 22.49C27.6449 22.4856 27.6706 22.4899 27.6927 22.5021C27.7148 22.5144 27.732 22.5339 27.7414 22.5574C27.7508 22.5809 27.7518 22.6069 27.7443 22.6311C27.7367 22.6552 27.7211 22.676 27.7 22.69C27.6841 22.7073 27.6631 22.7191 27.64 22.7236C27.617 22.7282 27.593 22.7252 27.5718 22.7151C27.5505 22.705 27.5331 22.6884 27.522 22.6677C27.5108 22.647 27.5067 22.6233 27.51 22.6C27.51 22.55 27.56 22.5 27.61 22.5L27.62 22.49ZM16.72 22.59C17.1444 22.59 17.5513 22.7586 17.8514 23.0586C18.1514 23.3587 18.32 23.7656 18.32 24.19C18.32 24.6143 18.1514 25.0213 17.8514 25.3214C17.5513 25.6214 17.1444 25.79 16.72 25.79C16.2957 25.79 15.8887 25.6214 15.5886 25.3214C15.2886 25.0213 15.12 24.6143 15.12 24.19C15.12 23.7656 15.2886 23.3587 15.5886 23.0586C15.8887 22.7586 16.2957 22.59 16.72 22.59ZM31.27 22.59C31.6944 22.59 32.1013 22.7586 32.4014 23.0586C32.7014 23.3587 32.87 23.7656 32.87 24.19C32.87 24.6143 32.7014 25.0213 32.4014 25.3214C32.1013 25.6214 31.6944 25.79 31.27 25.79C30.8457 25.79 30.4387 25.6214 30.1386 25.3214C29.8386 25.0213 29.67 24.6143 29.67 24.19C29.67 23.7656 29.8386 23.3587 30.1386 23.0586C30.4387 22.7586 30.8457 22.59 31.27 22.59ZM20.36 23.62H20.38C20.3955 23.6211 20.4105 23.6255 20.4241 23.6329C20.4377 23.6402 20.4497 23.6503 20.4591 23.6626C20.4685 23.6749 20.4753 23.689 20.4789 23.7041C20.4825 23.7191 20.4829 23.7348 20.48 23.75C20.4759 23.7715 20.4655 23.7913 20.4501 23.8069C20.4347 23.8225 20.415 23.8331 20.3935 23.8374C20.372 23.8417 20.3497 23.8395 20.3295 23.831C20.3093 23.8226 20.2921 23.8083 20.28 23.79C20.2676 23.7724 20.2607 23.7515 20.26 23.73C20.26 23.67 20.3 23.63 20.36 23.62ZM27.61 23.62H27.63C27.6455 23.6211 27.6605 23.6255 27.6741 23.6329C27.6877 23.6402 27.6997 23.6503 27.7091 23.6626C27.7185 23.6749 27.7253 23.689 27.7289 23.7041C27.7325 23.7191 27.7329 23.7348 27.73 23.75C27.7259 23.7715 27.7155 23.7913 27.7001 23.8069C27.6847 23.8225 27.665 23.8331 27.6435 23.8374C27.622 23.8417 27.5997 23.8395 27.5795 23.831C27.5593 23.8226 27.5421 23.8083 27.53 23.79C27.5176 23.7724 27.5107 23.7515 27.51 23.73C27.51 23.67 27.55 23.63 27.61 23.62ZM20.36 24.18H20.38C20.44 24.18 20.48 24.23 20.48 24.29C20.4804 24.3106 20.475 24.3309 20.4644 24.3486C20.4538 24.3663 20.4384 24.3806 20.42 24.39C20.4057 24.3963 20.3901 24.3995 20.3745 24.3993C20.3588 24.3991 20.3433 24.3956 20.3291 24.389C20.3149 24.3824 20.3023 24.3728 20.2921 24.3609C20.2819 24.349 20.2744 24.335 20.27 24.32C20.2656 24.3048 20.2644 24.2889 20.2666 24.2733C20.2689 24.2576 20.2745 24.2427 20.283 24.2294C20.2915 24.2161 20.3028 24.2048 20.3161 24.1963C20.3294 24.1878 20.3444 24.1822 20.36 24.18ZM27.61 24.18H27.63C27.69 24.18 27.73 24.23 27.73 24.29C27.7304 24.3106 27.725 24.3309 27.7144 24.3486C27.7038 24.3663 27.6884 24.3806 27.67 24.39C27.6557 24.3963 27.6401 24.3995 27.6245 24.3993C27.6088 24.3991 27.5933 24.3956 27.5791 24.389C27.5649 24.3824 27.5523 24.3728 27.5421 24.3609C27.5319 24.349 27.5244 24.335 27.52 24.32C27.5156 24.3048 27.5144 24.2889 27.5166 24.2733C27.5189 24.2576 27.5245 24.2427 27.533 24.2294C27.5415 24.2161 27.5528 24.2048 27.5661 24.1963C27.5794 24.1878 27.5944 24.1822 27.61 24.18ZM24 24.42C24.2101 24.4147 24.4192 24.4509 24.6154 24.5265C24.8115 24.602 24.9908 24.7155 25.1431 24.8603C25.2954 25.0052 25.4177 25.1786 25.5029 25.3707C25.5882 25.5628 25.6348 25.7699 25.64 25.98C25.6453 26.1901 25.6091 26.3992 25.5335 26.5953C25.458 26.7915 25.3445 26.9708 25.1997 27.1231C25.0548 27.2754 24.8814 27.3976 24.6893 27.4829C24.4972 27.5681 24.2901 27.6147 24.08 27.62C23.6557 27.6306 23.2445 27.4722 22.9369 27.1796C22.6294 26.8871 22.4506 26.4843 22.44 26.06C22.4294 25.6356 22.5878 25.2245 22.8804 24.9169C23.1729 24.6093 23.5757 24.4306 24 24.42ZM16.72 26.43C16.9301 26.4221 17.1397 26.4557 17.3369 26.5288C17.534 26.6019 17.7148 26.7132 17.869 26.8562C18.0231 26.9992 18.1476 27.1711 18.2353 27.3623C18.323 27.5534 18.3721 27.7599 18.38 27.97C18.3879 28.1801 18.3543 28.3897 18.2812 28.5868C18.2081 28.784 18.0968 28.9648 17.9538 29.1189C17.8108 29.2731 17.6389 29.3975 17.4477 29.4852C17.2566 29.5729 17.0501 29.6221 16.84 29.63C16.4157 29.6459 16.0024 29.4926 15.6911 29.2038C15.3798 28.915 15.1959 28.5143 15.18 28.09C15.1641 27.6656 15.3174 27.2523 15.6062 26.941C15.895 26.6297 16.2957 26.4459 16.72 26.43ZM31.27 26.43C31.4801 26.4221 31.6897 26.4557 31.8869 26.5288C32.084 26.6019 32.2648 26.7132 32.419 26.8562C32.5731 26.9992 32.6976 27.1711 32.7853 27.3623C32.873 27.5534 32.9221 27.7599 32.93 27.97C32.9379 28.1801 32.9043 28.3897 32.8312 28.5868C32.7581 28.784 32.6468 28.9648 32.5038 29.1189C32.3608 29.2731 32.1888 29.3975 31.9977 29.4852C31.8066 29.5729 31.6001 29.6221 31.39 29.63C30.9657 29.6446 30.5529 29.49 30.2425 29.2002C29.9322 28.9105 29.7496 28.5093 29.735 28.085C29.7204 27.6606 29.875 27.2479 30.1648 26.9375C30.4545 26.6271 30.8557 26.4446 31.28 26.43H31.27ZM20.36 28.12H20.38C20.44 28.12 20.48 28.17 20.48 28.22C20.4804 28.2406 20.475 28.2609 20.4644 28.2786C20.4538 28.2963 20.4384 28.3106 20.42 28.32C20.4 28.34 20.38 28.34 20.36 28.34C20.3371 28.3388 20.3151 28.3304 20.2972 28.316C20.2792 28.3017 20.2662 28.2821 20.26 28.26C20.2555 28.2441 20.2546 28.2274 20.2574 28.2111C20.2602 28.1948 20.2667 28.1793 20.2763 28.1659C20.2859 28.1524 20.2984 28.1413 20.3129 28.1334C20.3274 28.1254 20.3435 28.1209 20.36 28.12ZM27.61 28.12H27.63C27.69 28.12 27.73 28.17 27.73 28.22C27.7304 28.2406 27.725 28.2609 27.7144 28.2786C27.7038 28.2963 27.6884 28.3106 27.67 28.32C27.65 28.34 27.63 28.34 27.61 28.34C27.5871 28.3388 27.5651 28.3304 27.5472 28.316C27.5292 28.3017 27.5162 28.2821 27.51 28.26C27.5055 28.2441 27.5046 28.2274 27.5074 28.2111C27.5102 28.1948 27.5167 28.1793 27.5263 28.1659C27.5359 28.1524 27.5484 28.1413 27.5629 28.1334C27.5774 28.1254 27.5935 28.1209 27.61 28.12ZM24 28.26C24.4244 28.26 24.8313 28.4286 25.1314 28.7286C25.4314 29.0287 25.6 29.4356 25.6 29.86C25.6 30.2843 25.4314 30.6913 25.1314 30.9914C24.8313 31.2914 24.4244 31.46 24 31.46C23.5757 31.46 23.1687 31.2914 22.8686 30.9914C22.5686 30.6913 22.4 30.2843 22.4 29.86C22.4 29.4356 22.5686 29.0287 22.8686 28.7286C23.1687 28.4286 23.5757 28.26 24 28.26ZM20.38 28.68C20.4058 28.6822 20.4299 28.6935 20.4482 28.7118C20.4665 28.7301 20.4778 28.7542 20.48 28.78C20.4825 28.7989 20.4799 28.8181 20.4727 28.8358C20.4655 28.8535 20.4538 28.8689 20.4387 28.8807C20.4237 28.8925 20.4059 28.9001 20.387 28.9029C20.3681 28.9057 20.3488 28.9035 20.3311 28.8966C20.3133 28.8897 20.2976 28.8783 20.2856 28.8634C20.2735 28.8486 20.2655 28.8309 20.2624 28.8121C20.2593 28.7933 20.2611 28.774 20.2677 28.7561C20.2743 28.7382 20.2854 28.7223 20.3 28.71C20.3107 28.6999 20.3232 28.692 20.337 28.6869C20.3507 28.6817 20.3654 28.6794 20.38 28.68ZM27.63 28.68C27.6477 28.6804 27.665 28.685 27.6805 28.6936C27.696 28.7021 27.7093 28.7142 27.7191 28.7289C27.7289 28.7437 27.735 28.7605 27.7369 28.7781C27.7388 28.7957 27.7365 28.8135 27.73 28.83C27.7227 28.8487 27.7104 28.8651 27.6944 28.8773C27.6784 28.8895 27.6594 28.8972 27.6394 28.8993C27.6194 28.9015 27.5992 28.8981 27.581 28.8896C27.5627 28.8811 27.5472 28.8677 27.536 28.851C27.5249 28.8342 27.5185 28.8148 27.5177 28.7947C27.5168 28.7746 27.5215 28.7546 27.5312 28.737C27.5409 28.7193 27.5552 28.7047 27.5726 28.6947C27.5901 28.6846 27.6099 28.6795 27.63 28.68ZM16.72 30.26C17.1444 30.26 17.5513 30.4286 17.8514 30.7286C18.1514 31.0287 18.32 31.4356 18.32 31.86C18.32 32.2843 18.1514 32.6913 17.8514 32.9914C17.5513 33.2914 17.1444 33.46 16.72 33.46C16.2957 33.46 15.8887 33.2914 15.5886 32.9914C15.2886 32.6913 15.12 32.2843 15.12 31.86C15.12 31.4356 15.2886 31.0287 15.5886 30.7286C15.8887 30.4286 16.2957 30.26 16.72 30.26ZM31.27 30.26C31.6944 30.26 32.1013 30.4286 32.4014 30.7286C32.7014 31.0287 32.87 31.4356 32.87 31.86C32.87 32.2843 32.7014 32.6913 32.4014 32.9914C32.1013 33.2914 31.6944 33.46 31.27 33.46C30.8457 33.46 30.4387 33.2914 30.1386 32.9914C29.8386 32.6913 29.67 32.2843 29.67 31.86C29.67 31.4356 29.8386 31.0287 30.1386 30.7286C30.4387 30.4286 30.8457 30.26 31.27 30.26ZM20.37 30.92C20.3862 30.9184 20.4024 30.9205 20.4177 30.926C20.433 30.9314 20.4468 30.9402 20.4583 30.9517C20.4698 30.9632 20.4786 30.977 20.484 30.9923C20.4895 31.0076 20.4916 31.0238 20.49 31.04C20.49 31.0705 20.4779 31.0997 20.4563 31.1213C20.4348 31.1429 20.4055 31.155 20.375 31.155C20.3445 31.155 20.3153 31.1429 20.2937 31.1213C20.2721 31.0997 20.26 31.0705 20.26 31.04C20.26 30.98 20.31 30.93 20.36 30.92H20.37ZM27.62 30.92C27.6362 30.9184 27.6524 30.9205 27.6677 30.926C27.683 30.9314 27.6968 30.9402 27.7083 30.9517C27.7198 30.9632 27.7286 30.977 27.734 30.9923C27.7395 31.0076 27.7416 31.0238 27.74 31.04C27.74 31.0705 27.7279 31.0997 27.7063 31.1213C27.6848 31.1429 27.6555 31.155 27.625 31.155C27.5945 31.155 27.5653 31.1429 27.5437 31.1213C27.5221 31.0997 27.51 31.0705 27.51 31.04C27.51 30.98 27.56 30.93 27.61 30.92H27.62ZM20.35 32.05H20.37C20.3921 32.048 20.4143 32.0527 20.4336 32.0635C20.453 32.0743 20.4686 32.0907 20.4785 32.1105C20.4884 32.1303 20.492 32.1527 20.489 32.1746C20.4859 32.1966 20.4763 32.2171 20.4614 32.2335C20.4465 32.2499 20.427 32.2614 20.4054 32.2666C20.3839 32.2717 20.3613 32.2702 20.3406 32.2622C20.3199 32.2543 20.3021 32.2402 20.2895 32.222C20.2769 32.2038 20.2701 32.1821 20.27 32.16C20.27 32.11 20.3 32.06 20.36 32.05H20.35ZM27.6 32.05H27.62C27.6421 32.048 27.6643 32.0527 27.6836 32.0635C27.703 32.0743 27.7186 32.0907 27.7285 32.1105C27.7384 32.1303 27.742 32.1527 27.739 32.1746C27.7359 32.1966 27.7263 32.2171 27.7114 32.2335C27.6965 32.2499 27.677 32.2614 27.6554 32.2666C27.6339 32.2717 27.6113 32.2702 27.5906 32.2622C27.5699 32.2543 27.5521 32.2402 27.5395 32.222C27.5269 32.2038 27.5201 32.1821 27.52 32.16C27.52 32.11 27.55 32.06 27.61 32.05H27.6ZM24 32.09C24.4244 32.09 24.8313 32.2586 25.1314 32.5586C25.4314 32.8587 25.6 33.2656 25.6 33.69C25.6 34.1143 25.4314 34.5213 25.1314 34.8214C24.8313 35.1214 24.4244 35.29 24 35.29C23.5757 35.29 23.1687 35.1214 22.8686 34.8214C22.5686 34.5213 22.4 34.1143 22.4 33.69C22.4 33.2656 22.5686 32.8587 22.8686 32.5586C23.1687 32.2586 23.5757 32.09 24 32.09ZM20.36 32.61H20.38C20.4105 32.61 20.4398 32.6221 20.4613 32.6437C20.4829 32.6652 20.495 32.6945 20.495 32.725C20.495 32.7555 20.4829 32.7847 20.4613 32.8063C20.4398 32.8279 20.4105 32.84 20.38 32.84C20.3639 32.8415 20.3476 32.8395 20.3323 32.834C20.3171 32.8285 20.3032 32.8197 20.2917 32.8083C20.2803 32.7968 20.2715 32.7829 20.266 32.7677C20.2605 32.7524 20.2585 32.7361 20.26 32.72C20.26 32.67 20.3 32.62 20.36 32.62V32.61ZM27.61 32.61H27.63C27.6605 32.61 27.6898 32.6221 27.7113 32.6437C27.7329 32.6652 27.745 32.6945 27.745 32.725C27.745 32.7555 27.7329 32.7847 27.7113 32.8063C27.6898 32.8279 27.6605 32.84 27.63 32.84C27.6139 32.8415 27.5976 32.8395 27.5823 32.834C27.5671 32.8285 27.5532 32.8197 27.5417 32.8083C27.5303 32.7968 27.5215 32.7829 27.516 32.7677C27.5105 32.7524 27.5085 32.7361 27.51 32.72C27.51 32.67 27.55 32.62 27.61 32.62V32.61ZM20.38 33.17C20.3981 33.1719 20.4155 33.178 20.4309 33.1876C20.4463 33.1973 20.4593 33.2103 20.4689 33.2257C20.4785 33.2411 20.4845 33.2585 20.4865 33.2766C20.4884 33.2946 20.4862 33.3129 20.48 33.33C20.475 33.3438 20.4671 33.3563 20.4567 33.3667C20.4463 33.377 20.4338 33.385 20.42 33.39H20.38C20.3594 33.3904 20.3391 33.3849 20.3214 33.3743C20.3037 33.3637 20.2894 33.3484 20.28 33.33L20.26 33.29C20.26 33.22 20.31 33.17 20.38 33.17ZM27.63 33.17C27.6481 33.1719 27.6655 33.178 27.6809 33.1876C27.6963 33.1973 27.7093 33.2103 27.7189 33.2257C27.7285 33.2411 27.7345 33.2585 27.7365 33.2766C27.7384 33.2946 27.7362 33.3129 27.73 33.33C27.725 33.3438 27.7171 33.3563 27.7067 33.3667C27.6963 33.377 27.6838 33.385 27.67 33.39H27.63C27.6094 33.3904 27.5891 33.3849 27.5714 33.3743C27.5537 33.3637 27.5394 33.3484 27.53 33.33L27.51 33.29C27.51 33.22 27.56 33.17 27.63 33.17ZM20.37 33.73C20.3853 33.7299 20.4005 33.7331 20.4146 33.7392C20.4286 33.7453 20.4412 33.7544 20.4516 33.7657C20.4619 33.777 20.4698 33.7903 20.4747 33.8048C20.4796 33.8193 20.4814 33.8347 20.48 33.85C20.4781 33.8712 20.47 33.8914 20.4568 33.9081C20.4436 33.9249 20.4258 33.9374 20.4056 33.9442C20.3855 33.951 20.3637 33.9518 20.3431 33.9465C20.3224 33.9412 20.3038 33.93 20.2894 33.9143C20.275 33.8986 20.2655 33.879 20.262 33.858C20.2585 33.837 20.2612 33.8154 20.2697 33.7959C20.2782 33.7764 20.2923 33.7597 20.3101 33.748C20.3279 33.7363 20.3487 33.7301 20.37 33.73ZM27.62 33.73C27.6353 33.7299 27.6505 33.7331 27.6646 33.7392C27.6786 33.7453 27.6912 33.7544 27.7016 33.7657C27.7119 33.777 27.7198 33.7903 27.7247 33.8048C27.7296 33.8193 27.7314 33.8347 27.73 33.85C27.7281 33.8712 27.72 33.8914 27.7068 33.9081C27.6936 33.9249 27.6758 33.9374 27.6556 33.9442C27.6355 33.951 27.6137 33.9518 27.5931 33.9465C27.5724 33.9412 27.5538 33.93 27.5394 33.9143C27.525 33.8986 27.5155 33.879 27.512 33.858C27.5085 33.837 27.5112 33.8154 27.5197 33.7959C27.5282 33.7764 27.5423 33.7597 27.5601 33.748C27.5779 33.7363 27.5987 33.7301 27.62 33.73ZM16.72 34.1C17.1444 34.1 17.5513 34.2686 17.8514 34.5686C18.1514 34.8687 18.32 35.2756 18.32 35.7C18.32 36.1243 18.1514 36.5313 17.8514 36.8314C17.5513 37.1314 17.1444 37.3 16.72 37.3C16.2957 37.3 15.8887 37.1314 15.5886 36.8314C15.2886 36.5313 15.12 36.1243 15.12 35.7C15.12 35.2756 15.2886 34.8687 15.5886 34.5686C15.8887 34.2686 16.2957 34.1 16.72 34.1ZM31.27 34.1C31.4801 34.0921 31.6897 34.1257 31.8869 34.1988C32.084 34.2719 32.2648 34.3832 32.419 34.5262C32.5731 34.6692 32.6976 34.8411 32.7853 35.0323C32.873 35.2234 32.9221 35.4299 32.93 35.64C32.9379 35.8501 32.9043 36.0597 32.8312 36.2568C32.7581 36.454 32.6468 36.6348 32.5038 36.7889C32.3608 36.9431 32.1888 37.0675 31.9977 37.1552C31.8066 37.2429 31.6001 37.2921 31.39 37.3C30.9657 37.3159 30.5524 37.1626 30.2411 36.8738C29.9298 36.585 29.7459 36.1843 29.73 35.76C29.7141 35.3356 29.8674 34.9223 30.1562 34.611C30.445 34.2997 30.8457 34.1159 31.27 34.1ZM20.37 35.42C20.3853 35.4199 20.4005 35.4231 20.4146 35.4292C20.4286 35.4353 20.4412 35.4444 20.4516 35.4557C20.4619 35.4669 20.4698 35.4803 20.4747 35.4948C20.4796 35.5093 20.4814 35.5247 20.48 35.54C20.4781 35.5612 20.47 35.5814 20.4568 35.5981C20.4436 35.6149 20.4258 35.6274 20.4056 35.6342C20.3855 35.641 20.3637 35.6418 20.3431 35.6365C20.3224 35.6312 20.3038 35.62 20.2894 35.6043C20.275 35.5886 20.2655 35.569 20.262 35.548C20.2585 35.527 20.2612 35.5054 20.2697 35.4859C20.2782 35.4664 20.2923 35.4497 20.3101 35.438C20.3279 35.4263 20.3487 35.4201 20.37 35.42ZM27.62 35.42C27.6353 35.4199 27.6505 35.4231 27.6646 35.4292C27.6786 35.4353 27.6912 35.4444 27.7016 35.4557C27.7119 35.4669 27.7198 35.4803 27.7247 35.4948C27.7296 35.5093 27.7314 35.5247 27.73 35.54C27.7281 35.5612 27.72 35.5814 27.7068 35.5981C27.6936 35.6149 27.6758 35.6274 27.6556 35.6342C27.6355 35.641 27.6137 35.6418 27.5931 35.6365C27.5724 35.6312 27.5538 35.62 27.5394 35.6043C27.525 35.5886 27.5155 35.569 27.512 35.548C27.5085 35.527 27.5112 35.5054 27.5197 35.4859C27.5282 35.4664 27.5423 35.4497 27.5601 35.438C27.5779 35.4263 27.5987 35.4201 27.62 35.42ZM24 35.92C24.2101 35.9128 24.4196 35.947 24.6165 36.0207C24.8134 36.0945 24.9938 36.2063 25.1475 36.3497C25.3012 36.4932 25.4251 36.6655 25.5122 36.8569C25.5993 37.0482 25.6478 37.2549 25.655 37.465C25.6622 37.6751 25.628 37.8846 25.5543 38.0815C25.4805 38.2783 25.3687 38.4588 25.2253 38.6125C25.0818 38.7661 24.9095 38.8901 24.7181 38.9771C24.5268 39.0642 24.3201 39.1128 24.11 39.12C23.6857 39.1346 23.2729 38.98 22.9625 38.6902C22.6522 38.4005 22.4696 37.9993 22.455 37.575C22.4404 37.1506 22.595 36.7379 22.8848 36.4275C23.1745 36.1171 23.5757 35.9346 24 35.92ZM20.37 35.98C20.3853 35.9799 20.4005 35.9831 20.4146 35.9892C20.4286 35.9953 20.4412 36.0044 20.4516 36.0157C20.4619 36.027 20.4698 36.0403 20.4747 36.0548C20.4796 36.0693 20.4814 36.0847 20.48 36.1C20.4781 36.1212 20.47 36.1414 20.4568 36.1581C20.4436 36.1749 20.4258 36.1874 20.4056 36.1942C20.3855 36.201 20.3637 36.2018 20.3431 36.1965C20.3224 36.1912 20.3038 36.18 20.2894 36.1643C20.275 36.1486 20.2655 36.129 20.262 36.108C20.2585 36.087 20.2612 36.0654 20.2697 36.0459C20.2782 36.0264 20.2923 36.0097 20.3101 35.998C20.3279 35.9863 20.3487 35.9801 20.37 35.98ZM27.62 35.98C27.6353 35.9799 27.6505 35.9831 27.6646 35.9892C27.6786 35.9953 27.6912 36.0044 27.7016 36.0157C27.7119 36.027 27.7198 36.0403 27.7247 36.0548C27.7296 36.0693 27.7314 36.0847 27.73 36.1C27.7281 36.1212 27.72 36.1414 27.7068 36.1581C27.6936 36.1749 27.6758 36.1874 27.6556 36.1942C27.6355 36.201 27.6137 36.2018 27.5931 36.1965C27.5724 36.1912 27.5538 36.18 27.5394 36.1643C27.525 36.1486 27.5155 36.129 27.512 36.108C27.5085 36.087 27.5112 36.0654 27.5197 36.0459C27.5282 36.0264 27.5423 36.0097 27.5601 35.998C27.5779 35.9863 27.5987 35.9801 27.62 35.98ZM20.37 36.55C20.3992 36.55 20.4272 36.5616 20.4478 36.5822C20.4684 36.6028 20.48 36.6308 20.48 36.66C20.48 36.6817 20.4736 36.703 20.4615 36.7211C20.4494 36.7392 20.4322 36.7533 20.4121 36.7616C20.392 36.7699 20.3699 36.7721 20.3486 36.7679C20.3272 36.7636 20.3076 36.7531 20.2922 36.7378C20.2769 36.7224 20.2664 36.7028 20.2621 36.6814C20.2579 36.6601 20.2601 36.638 20.2684 36.6179C20.2767 36.5978 20.2908 36.5806 20.3089 36.5685C20.327 36.5564 20.3483 36.55 20.37 36.55ZM27.62 36.55C27.6492 36.55 27.6772 36.5616 27.6978 36.5822C27.7184 36.6028 27.73 36.6308 27.73 36.66C27.73 36.6817 27.7236 36.703 27.7115 36.7211C27.6994 36.7392 27.6822 36.7533 27.6621 36.7616C27.642 36.7699 27.6199 36.7721 27.5986 36.7679C27.5772 36.7636 27.5576 36.7531 27.5422 36.7378C27.5269 36.7224 27.5164 36.7028 27.5121 36.6814C27.5079 36.6601 27.5101 36.638 27.5184 36.6179C27.5267 36.5978 27.5408 36.5806 27.5589 36.5685C27.577 36.5564 27.5983 36.55 27.62 36.55ZM20.35 37.11H20.37C20.44 37.11 20.48 37.16 20.49 37.22C20.4895 37.2417 20.4826 37.2628 20.4702 37.2806C20.4577 37.2984 20.4403 37.3121 20.42 37.32L20.36 37.33C20.3371 37.3288 20.3151 37.3204 20.2972 37.306C20.2792 37.2917 20.2662 37.2721 20.26 37.25C20.2555 37.2341 20.2546 37.2174 20.2574 37.2011C20.2602 37.1848 20.2667 37.1693 20.2763 37.1559C20.2859 37.1424 20.2984 37.1313 20.3129 37.1234C20.3274 37.1154 20.3435 37.1109 20.36 37.11H20.35ZM27.6 37.11H27.62C27.69 37.11 27.73 37.16 27.74 37.22C27.7395 37.2417 27.7326 37.2628 27.7202 37.2806C27.7077 37.2984 27.6903 37.3121 27.67 37.32L27.61 37.33C27.5871 37.3288 27.5651 37.3204 27.5472 37.306C27.5292 37.2917 27.5162 37.2721 27.51 37.25C27.5055 37.2341 27.5046 37.2174 27.5074 37.2011C27.5102 37.1848 27.5167 37.1693 27.5263 37.1559C27.5359 37.1424 27.5484 37.1313 27.5629 37.1234C27.5774 37.1154 27.5935 37.1109 27.61 37.11H27.6ZM16.72 37.91C17.1231 37.91 17.5098 38.0701 17.7948 38.3552C18.0799 38.6402 18.24 39.0269 18.24 39.43C18.24 39.8331 18.0799 40.2197 17.7948 40.5048C17.5098 40.7898 17.1231 40.95 16.72 40.95C16.3169 40.95 15.9303 40.7898 15.6452 40.5048C15.3602 40.2197 15.2 39.8331 15.2 39.43C15.2 39.0269 15.3602 38.6402 15.6452 38.3552C15.9303 38.0701 16.3169 37.91 16.72 37.91ZM31.27 37.91C31.6731 37.91 32.0598 38.0701 32.3448 38.3552C32.6299 38.6402 32.79 39.0269 32.79 39.43C32.79 39.8331 32.6299 40.2197 32.3448 40.5048C32.0598 40.7898 31.6731 40.95 31.27 40.95C30.8669 40.95 30.4803 40.7898 30.1952 40.5048C29.9102 40.2197 29.75 39.8331 29.75 39.43C29.75 39.0269 29.9102 38.6402 30.1952 38.3552C30.4803 38.0701 30.8669 37.91 31.27 37.91ZM20.36 41.05H20.38C20.4016 41.052 20.4222 41.0604 20.439 41.0742C20.4559 41.0879 20.4683 41.1062 20.4747 41.127C20.4811 41.1477 20.4812 41.1699 20.4751 41.1907C20.4689 41.2116 20.4567 41.2301 20.44 41.244C20.4233 41.2579 20.4029 41.2665 20.3813 41.2689C20.3597 41.2712 20.3379 41.267 20.3187 41.257C20.2994 41.2469 20.2836 41.2314 20.2731 41.2124C20.2627 41.1933 20.2581 41.1716 20.26 41.15C20.2623 41.1242 20.2735 41.1001 20.2918 41.0818C20.3101 41.0635 20.3343 41.0522 20.36 41.05ZM27.61 41.05H27.63C27.6516 41.052 27.6722 41.0604 27.689 41.0742C27.7059 41.0879 27.7183 41.1062 27.7247 41.127C27.7311 41.1477 27.7312 41.1699 27.7251 41.1907C27.7189 41.2116 27.7067 41.2301 27.69 41.244C27.6733 41.2579 27.6529 41.2665 27.6313 41.2689C27.6097 41.2712 27.5879 41.267 27.5687 41.257C27.5494 41.2469 27.5336 41.2314 27.5231 41.2124C27.5127 41.1933 27.5081 41.1716 27.51 41.15C27.5123 41.1242 27.5235 41.1001 27.5418 41.0818C27.5601 41.0635 27.5843 41.0522 27.61 41.05ZM20.36 41.61H20.38C20.44 41.61 20.48 41.66 20.48 41.71C20.481 41.7313 20.4758 41.7524 20.4651 41.7708C20.4543 41.7892 20.4384 41.8041 20.4193 41.8136C20.4003 41.8232 20.3788 41.8269 20.3577 41.8245C20.3365 41.8221 20.3164 41.8136 20.3 41.8C20.2796 41.7809 20.2673 41.7548 20.2654 41.727C20.2635 41.6991 20.2723 41.6716 20.29 41.65C20.3074 41.6283 20.3325 41.614 20.36 41.61ZM27.61 41.61H27.63C27.69 41.61 27.73 41.66 27.73 41.71C27.731 41.7313 27.7258 41.7524 27.7151 41.7708C27.7043 41.7892 27.6884 41.8041 27.6693 41.8136C27.6503 41.8232 27.6288 41.8269 27.6077 41.8245C27.5865 41.8221 27.5664 41.8136 27.55 41.8C27.5296 41.7809 27.5173 41.7548 27.5154 41.727C27.5135 41.6991 27.5223 41.6716 27.54 41.65C27.5574 41.6283 27.5825 41.614 27.61 41.61ZM20.38 42.17C20.404 42.1684 20.4278 42.1748 20.4478 42.188C20.4679 42.2013 20.483 42.2207 20.4909 42.2434C20.4989 42.2661 20.4992 42.2907 20.4918 42.3136C20.4844 42.3364 20.4697 42.3562 20.45 42.37C20.4284 42.3877 20.4009 42.3965 20.373 42.3946C20.3452 42.3927 20.3191 42.3804 20.3 42.36C20.2891 42.3497 20.2804 42.3373 20.2745 42.3235C20.2686 42.3098 20.2655 42.295 20.2655 42.28C20.2655 42.265 20.2686 42.2502 20.2745 42.2364C20.2804 42.2227 20.2891 42.2103 20.3 42.2C20.3107 42.1899 20.3232 42.182 20.337 42.1769C20.3507 42.1717 20.3654 42.1694 20.38 42.17ZM27.63 42.17C27.654 42.1684 27.6778 42.1748 27.6978 42.188C27.7179 42.2013 27.733 42.2207 27.7409 42.2434C27.7489 42.2661 27.7492 42.2907 27.7418 42.3136C27.7344 42.3364 27.7197 42.3562 27.7 42.37C27.6863 42.3826 27.6695 42.3916 27.6513 42.396C27.6331 42.4003 27.6141 42.4 27.5961 42.395C27.5781 42.39 27.5617 42.3805 27.5484 42.3673C27.535 42.3542 27.5253 42.3379 27.52 42.32C27.51 42.2943 27.51 42.2657 27.52 42.24C27.5255 42.2265 27.5337 42.2143 27.544 42.204C27.5543 42.1937 27.5665 42.1855 27.58 42.18L27.63 42.17Z" fill="#333333"/>
</svg>
