<svg width="48" height="48" viewBox="0 0 48 48" fill="none" xmlns="http://www.w3.org/2000/svg">
<path d="M33.8501 4.11983C30.4701 4.07983 17.2801 4.11983 14.1501 4.11983C13.2801 4.11983 12.5801 4.80983 12.5801 5.67983V42.5498C12.5801 43.4198 13.2801 44.1198 14.1501 44.1198H33.8501C34.7301 44.1198 35.4201 43.3898 35.4201 42.5498V5.67983C35.4201 4.81983 34.7201 4.11983 33.8501 4.11983V4.11983ZM14.6201 10.3998L16.5201 8.49983C16.7006 8.34757 16.9318 8.26884 17.1677 8.27928C17.4036 8.28972 17.627 8.38858 17.7933 8.55619C17.9597 8.7238 18.0568 8.94789 18.0655 9.18388C18.0742 9.41987 17.9937 9.65047 17.8401 9.82983L15.9401 11.7298C15.7596 11.8821 15.5284 11.9608 15.2924 11.9504C15.0565 11.9399 14.8332 11.8411 14.6668 11.6735C14.5005 11.5059 14.4033 11.2818 14.3946 11.0458C14.386 10.8098 14.4665 10.5792 14.6201 10.3998V10.3998ZM14.6401 14.3998L16.5401 12.5098C16.7206 12.3576 16.9518 12.2788 17.1877 12.2893C17.4236 12.2997 17.647 12.3986 17.8133 12.5662C17.9797 12.7338 18.0768 12.9579 18.0855 13.1939C18.0942 13.4299 18.0137 13.6605 17.8601 13.8398L15.9601 15.7398C15.7796 15.8921 15.5484 15.9708 15.3124 15.9604C15.0765 15.9499 14.8532 15.8511 14.6868 15.6835C14.5205 15.5159 14.4233 15.2918 14.4146 15.0558C14.406 14.8198 14.4865 14.5892 14.6401 14.4098V14.3998ZM14.6701 18.4198L16.5701 16.5198C16.7506 16.3676 16.9818 16.2888 17.2177 16.2993C17.4536 16.3097 17.677 16.4086 17.8433 16.5762C18.0097 16.7438 18.1068 16.9679 18.1155 17.2039C18.1242 17.4399 18.0437 17.6705 17.8901 17.8498L15.9901 19.7498C15.8096 19.9021 15.5784 19.9808 15.3424 19.9704C15.1065 19.9599 14.8832 19.8611 14.7168 19.6935C14.5505 19.5259 14.4533 19.3018 14.4446 19.0658C14.436 18.8298 14.5165 18.5992 14.6701 18.4198V18.4198ZM14.6901 22.4198L16.5901 20.5298C16.7706 20.3776 17.0018 20.2988 17.2377 20.3093C17.4736 20.3197 17.697 20.4186 17.8633 20.5862C18.0297 20.7538 18.1268 20.9779 18.1355 21.2139C18.1442 21.4499 18.0637 21.6805 17.9101 21.8598L16.0101 23.7598C15.8296 23.9121 15.5984 23.9908 15.3624 23.9804C15.1265 23.9699 14.9032 23.8711 14.7368 23.7035C14.5705 23.5359 14.4733 23.3118 14.4646 23.0758C14.456 22.8398 14.5365 22.6092 14.6901 22.4298V22.4198ZM14.7101 26.4398L16.6101 24.5398C16.7906 24.3876 17.0218 24.3088 17.2577 24.3193C17.4936 24.3297 17.717 24.4286 17.8833 24.5962C18.0497 24.7638 18.1468 24.9879 18.1555 25.2239C18.1642 25.4599 18.0837 25.6905 17.9301 25.8698L16.0301 27.7698C15.8496 27.9221 15.6184 28.0008 15.3824 27.9904C15.1465 27.9799 14.9232 27.8811 14.7568 27.7135C14.5905 27.5459 14.4933 27.3218 14.4846 27.0858C14.476 26.8498 14.5565 26.6192 14.7101 26.4398V26.4398ZM14.7301 30.4398L16.6301 28.5398C16.8064 28.3635 17.0457 28.2644 17.2951 28.2644C17.5445 28.2644 17.7837 28.3635 17.9601 28.5398C18.1364 28.7162 18.2355 28.9554 18.2355 29.2048C18.2355 29.4543 18.1364 29.6935 17.9601 29.8698L16.0601 31.7698C15.8837 31.9462 15.6445 32.0453 15.3951 32.0453C15.1457 32.0453 14.9064 31.9462 14.7301 31.7698C14.5537 31.5935 14.4546 31.3543 14.4546 31.1048C14.4546 30.8554 14.5537 30.6162 14.7301 30.4398V30.4398ZM14.7601 34.4498L16.6601 32.5498C16.8406 32.3976 17.0718 32.3188 17.3077 32.3293C17.5436 32.3397 17.767 32.4386 17.9333 32.6062C18.0997 32.7738 18.1968 32.9979 18.2055 33.2339C18.2142 33.4699 18.1337 33.7005 17.9801 33.8798L16.0801 35.7798C15.8996 35.9321 15.6684 36.0108 15.4324 36.0004C15.1965 35.9899 14.9732 35.8911 14.8068 35.7235C14.6405 35.5559 14.5433 35.3318 14.5346 35.0958C14.526 34.8598 14.6065 34.6292 14.7601 34.4498V34.4498ZM18.0001 37.8998L16.1001 39.7998C15.9196 39.9521 15.6884 40.0308 15.4524 40.0204C15.2165 40.0099 14.9932 39.9111 14.8268 39.7435C14.6605 39.5759 14.5633 39.3518 14.5546 39.1158C14.546 38.8798 14.6265 38.6492 14.7801 38.4698L16.6801 36.5698C16.8606 36.4176 17.0918 36.3388 17.3277 36.3493C17.5636 36.3597 17.787 36.4586 17.9533 36.6262C18.1197 36.7938 18.2168 37.0179 18.2255 37.2539C18.2342 37.4899 18.1537 37.7205 18.0001 37.8998V37.8998ZM18.8701 43.0298C18.8453 43.0224 18.8236 43.0073 18.8081 42.9865C18.7927 42.9658 18.7844 42.9407 18.7844 42.9148C18.7844 42.889 18.7927 42.8638 18.8081 42.8431C18.8236 42.8224 18.8453 42.8072 18.8701 42.7998C18.8948 42.8072 18.9166 42.8224 18.932 42.8431C18.9475 42.8638 18.9558 42.889 18.9558 42.9148C18.9558 42.9407 18.9475 42.9658 18.932 42.9865C18.9166 43.0073 18.8948 43.0224 18.8701 43.0298V43.0298ZM18.8701 42.4698C18.8453 42.4624 18.8236 42.4473 18.8081 42.4265C18.7927 42.4058 18.7844 42.3807 18.7844 42.3548C18.7844 42.329 18.7927 42.3038 18.8081 42.2831C18.8236 42.2624 18.8453 42.2472 18.8701 42.2398C18.8948 42.2472 18.9166 42.2624 18.932 42.2831C18.9475 42.3038 18.9558 42.329 18.9558 42.3548C18.9558 42.3807 18.9475 42.4058 18.932 42.4265C18.9166 42.4473 18.8948 42.4624 18.8701 42.4698V42.4698ZM18.8701 41.9098C18.8383 41.9098 18.8077 41.8972 18.7852 41.8747C18.7627 41.8522 18.7501 41.8217 18.7501 41.7898C18.7501 41.758 18.7627 41.7275 18.7852 41.705C18.8077 41.6825 18.8383 41.6698 18.8701 41.6698C18.9019 41.6698 18.9324 41.6825 18.9549 41.705C18.9774 41.7275 18.9901 41.758 18.9901 41.7898C18.9901 41.8217 18.9774 41.8522 18.9549 41.8747C18.9324 41.8972 18.9019 41.9098 18.8701 41.9098V41.9098ZM18.8701 41.3498C18.8383 41.3498 18.8077 41.3372 18.7852 41.3147C18.7627 41.2922 18.7501 41.2617 18.7501 41.2298C18.7501 41.198 18.7627 41.1675 18.7852 41.145C18.8077 41.1225 18.8383 41.1098 18.8701 41.1098C18.9019 41.1098 18.9324 41.1225 18.9549 41.145C18.9774 41.1675 18.9901 41.198 18.9901 41.2298C18.9901 41.2617 18.9774 41.2922 18.9549 41.3147C18.9324 41.3372 18.9019 41.3498 18.8701 41.3498V41.3498ZM18.8701 40.7898C18.8383 40.7898 18.8077 40.7772 18.7852 40.7547C18.7627 40.7322 18.7501 40.7017 18.7501 40.6698C18.7501 40.638 18.7627 40.6075 18.7852 40.585C18.8077 40.5625 18.8383 40.5498 18.8701 40.5498C18.9019 40.5498 18.9324 40.5625 18.9549 40.585C18.9774 40.6075 18.9901 40.638 18.9901 40.6698C18.9901 40.7017 18.9774 40.7322 18.9549 40.7547C18.9324 40.7772 18.9019 40.7898 18.8701 40.7898V40.7898ZM18.8701 40.2198C18.8453 40.2124 18.8236 40.1973 18.8081 40.1765C18.7927 40.1558 18.7844 40.1307 18.7844 40.1048C18.7844 40.079 18.7927 40.0538 18.8081 40.0331C18.8236 40.0124 18.8453 39.9972 18.8701 39.9898C18.8948 39.9972 18.9166 40.0124 18.932 40.0331C18.9475 40.0538 18.9558 40.079 18.9558 40.1048C18.9558 40.1307 18.9475 40.1558 18.932 40.1765C18.9166 40.1973 18.8948 40.2124 18.8701 40.2198V40.2198ZM18.8701 39.6598C18.8453 39.6524 18.8236 39.6373 18.8081 39.6165C18.7927 39.5958 18.7844 39.5707 18.7844 39.5448C18.7844 39.519 18.7927 39.4938 18.8081 39.4731C18.8236 39.4524 18.8453 39.4372 18.8701 39.4298C18.8948 39.4372 18.9166 39.4524 18.932 39.4731C18.9475 39.4938 18.9558 39.519 18.9558 39.5448C18.9558 39.5707 18.9475 39.5958 18.932 39.6165C18.9166 39.6373 18.8948 39.6524 18.8701 39.6598V39.6598ZM18.8701 39.0998C18.8383 39.0998 18.8077 39.0872 18.7852 39.0647C18.7627 39.0422 18.7501 39.0117 18.7501 38.9798C18.7501 38.948 18.7627 38.9175 18.7852 38.895C18.8077 38.8725 18.8383 38.8598 18.8701 38.8598C18.9019 38.8598 18.9324 38.8725 18.9549 38.895C18.9774 38.9175 18.9901 38.948 18.9901 38.9798C18.9901 39.0117 18.9774 39.0422 18.9549 39.0647C18.9324 39.0872 18.9019 39.0998 18.8701 39.0998V39.0998ZM18.8701 38.5398C18.8383 38.5398 18.8077 38.5272 18.7852 38.5047C18.7627 38.4822 18.7501 38.4517 18.7501 38.4198C18.7501 38.388 18.7627 38.3575 18.7852 38.335C18.8077 38.3125 18.8383 38.2998 18.8701 38.2998C18.9019 38.2998 18.9324 38.3125 18.9549 38.335C18.9774 38.3575 18.9901 38.388 18.9901 38.4198C18.9901 38.4517 18.9774 38.4822 18.9549 38.5047C18.9324 38.5272 18.9019 38.5398 18.8701 38.5398V38.5398ZM18.8701 37.9798C18.8383 37.9798 18.8077 37.9672 18.7852 37.9447C18.7627 37.9222 18.7501 37.8917 18.7501 37.8598C18.7501 37.828 18.7627 37.7975 18.7852 37.775C18.8077 37.7525 18.8383 37.7398 18.8701 37.7398C18.9019 37.7398 18.9324 37.7525 18.9549 37.775C18.9774 37.7975 18.9901 37.828 18.9901 37.8598C18.9901 37.8917 18.9774 37.9222 18.9549 37.9447C18.9324 37.9672 18.9019 37.9798 18.8701 37.9798V37.9798ZM18.8701 37.4198C18.8383 37.4198 18.8077 37.4072 18.7852 37.3847C18.7627 37.3622 18.7501 37.3317 18.7501 37.2998C18.7501 37.268 18.7627 37.2375 18.7852 37.215C18.8077 37.1925 18.8383 37.1798 18.8701 37.1798C18.9019 37.1798 18.9324 37.1925 18.9549 37.215C18.9774 37.2375 18.9901 37.268 18.9901 37.2998C18.9901 37.3317 18.9774 37.3622 18.9549 37.3847C18.9324 37.4072 18.9019 37.4198 18.8701 37.4198V37.4198ZM18.8701 36.8498C18.8453 36.8424 18.8236 36.8273 18.8081 36.8065C18.7927 36.7858 18.7844 36.7607 18.7844 36.7348C18.7844 36.709 18.7927 36.6838 18.8081 36.6631C18.8236 36.6424 18.8453 36.6272 18.8701 36.6198C18.8948 36.6272 18.9166 36.6424 18.932 36.6631C18.9475 36.6838 18.9558 36.709 18.9558 36.7348C18.9558 36.7607 18.9475 36.7858 18.932 36.8065C18.9166 36.8273 18.8948 36.8424 18.8701 36.8498V36.8498ZM18.8701 36.2898C18.8453 36.2824 18.8236 36.2673 18.8081 36.2465C18.7927 36.2258 18.7844 36.2007 18.7844 36.1748C18.7844 36.149 18.7927 36.1238 18.8081 36.1031C18.8236 36.0824 18.8453 36.0672 18.8701 36.0598C18.8948 36.0672 18.9166 36.0824 18.932 36.1031C18.9475 36.1238 18.9558 36.149 18.9558 36.1748C18.9558 36.2007 18.9475 36.2258 18.932 36.2465C18.9166 36.2673 18.8948 36.2824 18.8701 36.2898V36.2898ZM18.8701 35.7298C18.8383 35.7298 18.8077 35.7172 18.7852 35.6947C18.7627 35.6722 18.7501 35.6417 18.7501 35.6098C18.7501 35.578 18.7627 35.5475 18.7852 35.525C18.8077 35.5025 18.8383 35.4898 18.8701 35.4898C18.9019 35.4898 18.9324 35.5025 18.9549 35.525C18.9774 35.5475 18.9901 35.578 18.9901 35.6098C18.9901 35.6417 18.9774 35.6722 18.9549 35.6947C18.9324 35.7172 18.9019 35.7298 18.8701 35.7298V35.7298ZM18.8701 35.1698C18.8383 35.1698 18.8077 35.1572 18.7852 35.1347C18.7627 35.1122 18.7501 35.0817 18.7501 35.0498C18.7501 35.018 18.7627 34.9875 18.7852 34.965C18.8077 34.9425 18.8383 34.9298 18.8701 34.9298C18.9019 34.9298 18.9324 34.9425 18.9549 34.965C18.9774 34.9875 18.9901 35.018 18.9901 35.0498C18.9901 35.0817 18.9774 35.1122 18.9549 35.1347C18.9324 35.1572 18.9019 35.1698 18.8701 35.1698V35.1698ZM18.8701 34.6098C18.8383 34.6098 18.8077 34.5972 18.7852 34.5747C18.7627 34.5522 18.7501 34.5217 18.7501 34.4898C18.7501 34.458 18.7627 34.4275 18.7852 34.405C18.8077 34.3825 18.8383 34.3698 18.8701 34.3698C18.9019 34.3698 18.9324 34.3825 18.9549 34.405C18.9774 34.4275 18.9901 34.458 18.9901 34.4898C18.9901 34.5217 18.9774 34.5522 18.9549 34.5747C18.9324 34.5972 18.9019 34.6098 18.8701 34.6098V34.6098ZM18.8701 34.0398C18.8453 34.0324 18.8236 34.0173 18.8081 33.9965C18.7927 33.9758 18.7844 33.9507 18.7844 33.9248C18.7844 33.899 18.7927 33.8738 18.8081 33.8531C18.8236 33.8324 18.8453 33.8172 18.8701 33.8098C18.8948 33.8172 18.9166 33.8324 18.932 33.8531C18.9475 33.8738 18.9558 33.899 18.9558 33.9248C18.9558 33.9507 18.9475 33.9758 18.932 33.9965C18.9166 34.0173 18.8948 34.0324 18.8701 34.0398V34.0398ZM18.8701 33.4798C18.8453 33.4724 18.8236 33.4573 18.8081 33.4365C18.7927 33.4158 18.7844 33.3907 18.7844 33.3648C18.7844 33.339 18.7927 33.3138 18.8081 33.2931C18.8236 33.2724 18.8453 33.2572 18.8701 33.2498C18.8948 33.2572 18.9166 33.2724 18.932 33.2931C18.9475 33.3138 18.9558 33.339 18.9558 33.3648C18.9558 33.3907 18.9475 33.4158 18.932 33.4365C18.9166 33.4573 18.8948 33.4724 18.8701 33.4798V33.4798ZM18.8701 32.9198C18.8453 32.9124 18.8236 32.8973 18.8081 32.8765C18.7927 32.8558 18.7844 32.8307 18.7844 32.8048C18.7844 32.779 18.7927 32.7538 18.8081 32.7331C18.8236 32.7124 18.8453 32.6972 18.8701 32.6898C18.8948 32.6972 18.9166 32.7124 18.932 32.7331C18.9475 32.7538 18.9558 32.779 18.9558 32.8048C18.9558 32.8307 18.9475 32.8558 18.932 32.8765C18.9166 32.8973 18.8948 32.9124 18.8701 32.9198V32.9198ZM18.8701 32.3598C18.8383 32.3598 18.8077 32.3472 18.7852 32.3247C18.7627 32.3022 18.7501 32.2717 18.7501 32.2398C18.7501 32.208 18.7627 32.1775 18.7852 32.155C18.8077 32.1325 18.8383 32.1198 18.8701 32.1198C18.9019 32.1198 18.9324 32.1325 18.9549 32.155C18.9774 32.1775 18.9901 32.208 18.9901 32.2398C18.9901 32.2717 18.9774 32.3022 18.9549 32.3247C18.9324 32.3472 18.9019 32.3598 18.8701 32.3598V32.3598ZM18.8701 31.7998C18.8383 31.7998 18.8077 31.7872 18.7852 31.7647C18.7627 31.7422 18.7501 31.7117 18.7501 31.6798C18.7501 31.648 18.7627 31.6175 18.7852 31.595C18.8077 31.5725 18.8383 31.5598 18.8701 31.5598C18.9019 31.5598 18.9324 31.5725 18.9549 31.595C18.9774 31.6175 18.9901 31.648 18.9901 31.6798C18.9901 31.7117 18.9774 31.7422 18.9549 31.7647C18.9324 31.7872 18.9019 31.7998 18.8701 31.7998ZM18.8701 31.2398C18.8383 31.2398 18.8077 31.2272 18.7852 31.2047C18.7627 31.1822 18.7501 31.1517 18.7501 31.1198C18.7501 31.088 18.7627 31.0575 18.7852 31.035C18.8077 31.0125 18.8383 30.9998 18.8701 30.9998C18.9019 30.9998 18.9324 31.0125 18.9549 31.035C18.9774 31.0575 18.9901 31.088 18.9901 31.1198C18.9901 31.1517 18.9774 31.1822 18.9549 31.2047C18.9324 31.2272 18.9019 31.2398 18.8701 31.2398V31.2398ZM18.8701 30.6698C18.8453 30.6624 18.8236 30.6473 18.8081 30.6265C18.7927 30.6058 18.7844 30.5807 18.7844 30.5548C18.7844 30.529 18.7927 30.5038 18.8081 30.4831C18.8236 30.4624 18.8453 30.4472 18.8701 30.4398C18.8948 30.4472 18.9166 30.4624 18.932 30.4831C18.9475 30.5038 18.9558 30.529 18.9558 30.5548C18.9558 30.5807 18.9475 30.6058 18.932 30.6265C18.9166 30.6473 18.8948 30.6624 18.8701 30.6698V30.6698ZM18.8701 30.1098C18.8453 30.1024 18.8236 30.0873 18.8081 30.0665C18.7927 30.0458 18.7844 30.0207 18.7844 29.9948C18.7844 29.969 18.7927 29.9438 18.8081 29.9231C18.8236 29.9024 18.8453 29.8872 18.8701 29.8798C18.8948 29.8872 18.9166 29.9024 18.932 29.9231C18.9475 29.9438 18.9558 29.969 18.9558 29.9948C18.9558 30.0207 18.9475 30.0458 18.932 30.0665C18.9166 30.0873 18.8948 30.1024 18.8701 30.1098V30.1098ZM18.8701 29.5498C18.8383 29.5498 18.8077 29.5372 18.7852 29.5147C18.7627 29.4922 18.7501 29.4617 18.7501 29.4298C18.7501 29.398 18.7627 29.3675 18.7852 29.345C18.8077 29.3225 18.8383 29.3098 18.8701 29.3098C18.9019 29.3098 18.9324 29.3225 18.9549 29.345C18.9774 29.3675 18.9901 29.398 18.9901 29.4298C18.9901 29.4617 18.9774 29.4922 18.9549 29.5147C18.9324 29.5372 18.9019 29.5498 18.8701 29.5498ZM18.8701 28.9898C18.8383 28.9898 18.8077 28.9772 18.7852 28.9547C18.7627 28.9322 18.7501 28.9017 18.7501 28.8698C18.7501 28.838 18.7627 28.8075 18.7852 28.785C18.8077 28.7625 18.8383 28.7498 18.8701 28.7498C18.9019 28.7498 18.9324 28.7625 18.9549 28.785C18.9774 28.8075 18.9901 28.838 18.9901 28.8698C18.9901 28.9017 18.9774 28.9322 18.9549 28.9547C18.9324 28.9772 18.9019 28.9898 18.8701 28.9898V28.9898ZM18.8701 28.4298C18.8383 28.4298 18.8077 28.4172 18.7852 28.3947C18.7627 28.3722 18.7501 28.3417 18.7501 28.3098C18.7501 28.278 18.7627 28.2475 18.7852 28.225C18.8077 28.2025 18.8383 28.1898 18.8701 28.1898C18.9019 28.1898 18.9324 28.2025 18.9549 28.225C18.9774 28.2475 18.9901 28.278 18.9901 28.3098C18.9901 28.3417 18.9774 28.3722 18.9549 28.3947C18.9324 28.4172 18.9019 28.4298 18.8701 28.4298V28.4298ZM18.8701 27.8698C18.8383 27.8698 18.8077 27.8572 18.7852 27.8347C18.7627 27.8122 18.7501 27.7817 18.7501 27.7498C18.7501 27.718 18.7627 27.6875 18.7852 27.665C18.8077 27.6425 18.8383 27.6298 18.8701 27.6298C18.9019 27.6298 18.9324 27.6425 18.9549 27.665C18.9774 27.6875 18.9901 27.718 18.9901 27.7498C18.9901 27.7817 18.9774 27.8122 18.9549 27.8347C18.9324 27.8572 18.9019 27.8698 18.8701 27.8698V27.8698ZM18.8701 27.2998C18.8453 27.2924 18.8236 27.2773 18.8081 27.2565C18.7927 27.2358 18.7844 27.2107 18.7844 27.1848C18.7844 27.159 18.7927 27.1338 18.8081 27.1131C18.8236 27.0924 18.8453 27.0772 18.8701 27.0698C18.8948 27.0772 18.9166 27.0924 18.932 27.1131C18.9475 27.1338 18.9558 27.159 18.9558 27.1848C18.9558 27.2107 18.9475 27.2358 18.932 27.2565C18.9166 27.2773 18.8948 27.2924 18.8701 27.2998V27.2998ZM18.8701 26.7398C18.8453 26.7324 18.8236 26.7173 18.8081 26.6965C18.7927 26.6758 18.7844 26.6507 18.7844 26.6248C18.7844 26.599 18.7927 26.5738 18.8081 26.5531C18.8236 26.5324 18.8453 26.5172 18.8701 26.5098C18.8948 26.5172 18.9166 26.5324 18.932 26.5531C18.9475 26.5738 18.9558 26.599 18.9558 26.6248C18.9558 26.6507 18.9475 26.6758 18.932 26.6965C18.9166 26.7173 18.8948 26.7324 18.8701 26.7398V26.7398ZM18.8701 26.1798C18.8383 26.1798 18.8077 26.1672 18.7852 26.1447C18.7627 26.1222 18.7501 26.0917 18.7501 26.0598C18.7501 26.028 18.7627 25.9975 18.7852 25.975C18.8077 25.9525 18.8383 25.9398 18.8701 25.9398C18.9019 25.9398 18.9324 25.9525 18.9549 25.975C18.9774 25.9975 18.9901 26.028 18.9901 26.0598C18.9901 26.0917 18.9774 26.1222 18.9549 26.1447C18.9324 26.1672 18.9019 26.1798 18.8701 26.1798V26.1798ZM18.8701 25.6198C18.8383 25.6198 18.8077 25.6072 18.7852 25.5847C18.7627 25.5622 18.7501 25.5317 18.7501 25.4998C18.7501 25.468 18.7627 25.4375 18.7852 25.415C18.8077 25.3925 18.8383 25.3798 18.8701 25.3798C18.9019 25.3798 18.9324 25.3925 18.9549 25.415C18.9774 25.4375 18.9901 25.468 18.9901 25.4998C18.9901 25.5317 18.9774 25.5622 18.9549 25.5847C18.9324 25.6072 18.9019 25.6198 18.8701 25.6198V25.6198ZM18.8701 25.0598C18.8383 25.0598 18.8077 25.0472 18.7852 25.0247C18.7627 25.0022 18.7501 24.9717 18.7501 24.9398C18.7501 24.908 18.7627 24.8775 18.7852 24.855C18.8077 24.8325 18.8383 24.8198 18.8701 24.8198C18.9019 24.8198 18.9324 24.8325 18.9549 24.855C18.9774 24.8775 18.9901 24.908 18.9901 24.9398C18.9901 24.9717 18.9774 25.0022 18.9549 25.0247C18.9324 25.0472 18.9019 25.0598 18.8701 25.0598V25.0598ZM18.8701 24.4898C18.8453 24.4824 18.8236 24.4673 18.8081 24.4465C18.7927 24.4258 18.7844 24.4007 18.7844 24.3748C18.7844 24.349 18.7927 24.3238 18.8081 24.3031C18.8236 24.2824 18.8453 24.2672 18.8701 24.2598C18.8948 24.2672 18.9166 24.2824 18.932 24.3031C18.9475 24.3238 18.9558 24.349 18.9558 24.3748C18.9558 24.4007 18.9475 24.4258 18.932 24.4465C18.9166 24.4673 18.8948 24.4824 18.8701 24.4898V24.4898ZM18.8701 23.9298C18.8453 23.9224 18.8236 23.9073 18.8081 23.8865C18.7927 23.8658 18.7844 23.8407 18.7844 23.8148C18.7844 23.789 18.7927 23.7638 18.8081 23.7431C18.8236 23.7224 18.8453 23.7072 18.8701 23.6998C18.8948 23.7072 18.9166 23.7224 18.932 23.7431C18.9475 23.7638 18.9558 23.789 18.9558 23.8148C18.9558 23.8407 18.9475 23.8658 18.932 23.8865C18.9166 23.9073 18.8948 23.9224 18.8701 23.9298V23.9298ZM18.8701 23.3698C18.8453 23.3624 18.8236 23.3473 18.8081 23.3265C18.7927 23.3058 18.7844 23.2807 18.7844 23.2548C18.7844 23.229 18.7927 23.2038 18.8081 23.1831C18.8236 23.1624 18.8453 23.1472 18.8701 23.1398C18.8948 23.1472 18.9166 23.1624 18.932 23.1831C18.9475 23.2038 18.9558 23.229 18.9558 23.2548C18.9558 23.2807 18.9475 23.3058 18.932 23.3265C18.9166 23.3473 18.8948 23.3624 18.8701 23.3698V23.3698ZM18.8701 22.8098C18.8383 22.8098 18.8077 22.7972 18.7852 22.7747C18.7627 22.7522 18.7501 22.7217 18.7501 22.6898C18.7501 22.658 18.7627 22.6275 18.7852 22.605C18.8077 22.5825 18.8383 22.5698 18.8701 22.5698C18.9019 22.5698 18.9324 22.5825 18.9549 22.605C18.9774 22.6275 18.9901 22.658 18.9901 22.6898C18.9901 22.7217 18.9774 22.7522 18.9549 22.7747C18.9324 22.7972 18.9019 22.8098 18.8701 22.8098V22.8098ZM18.8701 22.2498C18.8383 22.2498 18.8077 22.2372 18.7852 22.2147C18.7627 22.1922 18.7501 22.1617 18.7501 22.1298C18.7501 22.098 18.7627 22.0675 18.7852 22.045C18.8077 22.0225 18.8383 22.0098 18.8701 22.0098C18.9019 22.0098 18.9324 22.0225 18.9549 22.045C18.9774 22.0675 18.9901 22.098 18.9901 22.1298C18.9901 22.1617 18.9774 22.1922 18.9549 22.2147C18.9324 22.2372 18.9019 22.2498 18.8701 22.2498V22.2498ZM18.8701 21.6898C18.8383 21.6898 18.8077 21.6772 18.7852 21.6547C18.7627 21.6322 18.7501 21.6017 18.7501 21.5698C18.7501 21.538 18.7627 21.5075 18.7852 21.485C18.8077 21.4625 18.8383 21.4498 18.8701 21.4498C18.9019 21.4498 18.9324 21.4625 18.9549 21.485C18.9774 21.5075 18.9901 21.538 18.9901 21.5698C18.9901 21.6017 18.9774 21.6322 18.9549 21.6547C18.9324 21.6772 18.9019 21.6898 18.8701 21.6898V21.6898ZM18.8701 21.1198C18.8453 21.1124 18.8236 21.0973 18.8081 21.0765C18.7927 21.0558 18.7844 21.0307 18.7844 21.0048C18.7844 20.979 18.7927 20.9538 18.8081 20.9331C18.8236 20.9124 18.8453 20.8972 18.8701 20.8898C18.8948 20.8972 18.9166 20.9124 18.932 20.9331C18.9475 20.9538 18.9558 20.979 18.9558 21.0048C18.9558 21.0307 18.9475 21.0558 18.932 21.0765C18.9166 21.0973 18.8948 21.1124 18.8701 21.1198V21.1198ZM18.8701 20.5598C18.8453 20.5524 18.8236 20.5373 18.8081 20.5165C18.7927 20.4958 18.7844 20.4707 18.7844 20.4448C18.7844 20.419 18.7927 20.3938 18.8081 20.3731C18.8236 20.3524 18.8453 20.3372 18.8701 20.3298C18.8948 20.3372 18.9166 20.3524 18.932 20.3731C18.9475 20.3938 18.9558 20.419 18.9558 20.4448C18.9558 20.4707 18.9475 20.4958 18.932 20.5165C18.9166 20.5373 18.8948 20.5524 18.8701 20.5598V20.5598ZM18.8701 19.9998C18.8383 19.9998 18.8077 19.9872 18.7852 19.9647C18.7627 19.9422 18.7501 19.9117 18.7501 19.8798C18.7501 19.848 18.7627 19.8175 18.7852 19.795C18.8077 19.7725 18.8383 19.7598 18.8701 19.7598C18.9019 19.7598 18.9324 19.7725 18.9549 19.795C18.9774 19.8175 18.9901 19.848 18.9901 19.8798C18.9901 19.9117 18.9774 19.9422 18.9549 19.9647C18.9324 19.9872 18.9019 19.9998 18.8701 19.9998V19.9998ZM18.8701 19.4398C18.8383 19.4398 18.8077 19.4272 18.7852 19.4047C18.7627 19.3822 18.7501 19.3517 18.7501 19.3198C18.7501 19.288 18.7627 19.2575 18.7852 19.235C18.8077 19.2125 18.8383 19.1998 18.8701 19.1998C18.9019 19.1998 18.9324 19.2125 18.9549 19.235C18.9774 19.2575 18.9901 19.288 18.9901 19.3198C18.9901 19.3517 18.9774 19.3822 18.9549 19.4047C18.9324 19.4272 18.9019 19.4398 18.8701 19.4398V19.4398ZM18.8701 18.8798C18.8383 18.8798 18.8077 18.8672 18.7852 18.8447C18.7627 18.8222 18.7501 18.7917 18.7501 18.7598C18.7501 18.728 18.7627 18.6975 18.7852 18.675C18.8077 18.6525 18.8383 18.6398 18.8701 18.6398C18.9019 18.6398 18.9324 18.6525 18.9549 18.675C18.9774 18.6975 18.9901 18.728 18.9901 18.7598C18.9901 18.7917 18.9774 18.8222 18.9549 18.8447C18.9324 18.8672 18.9019 18.8798 18.8701 18.8798V18.8798ZM18.8701 18.3198C18.8383 18.3198 18.8077 18.3072 18.7852 18.2847C18.7627 18.2622 18.7501 18.2317 18.7501 18.1998C18.7501 18.168 18.7627 18.1375 18.7852 18.115C18.8077 18.0925 18.8383 18.0798 18.8701 18.0798C18.9019 18.0798 18.9324 18.0925 18.9549 18.115C18.9774 18.1375 18.9901 18.168 18.9901 18.1998C18.9901 18.2317 18.9774 18.2622 18.9549 18.2847C18.9324 18.3072 18.9019 18.3198 18.8701 18.3198V18.3198ZM18.8701 17.7498C18.8453 17.7424 18.8236 17.7273 18.8081 17.7065C18.7927 17.6858 18.7844 17.6607 18.7844 17.6348C18.7844 17.609 18.7927 17.5838 18.8081 17.5631C18.8236 17.5424 18.8453 17.5272 18.8701 17.5198C18.8948 17.5272 18.9166 17.5424 18.932 17.5631C18.9475 17.5838 18.9558 17.609 18.9558 17.6348C18.9558 17.6607 18.9475 17.6858 18.932 17.7065C18.9166 17.7273 18.8948 17.7424 18.8701 17.7498V17.7498ZM18.8701 17.1898C18.8453 17.1824 18.8236 17.1673 18.8081 17.1465C18.7927 17.1258 18.7844 17.1007 18.7844 17.0748C18.7844 17.049 18.7927 17.0238 18.8081 17.0031C18.8236 16.9824 18.8453 16.9672 18.8701 16.9598C18.9401 16.9598 18.9901 17.0098 18.9901 17.0698C18.9901 17.1398 18.9401 17.1898 18.8701 17.1898ZM18.8701 16.6298C18.8383 16.6298 18.8077 16.6172 18.7852 16.5947C18.7627 16.5722 18.7501 16.5417 18.7501 16.5098C18.7501 16.478 18.7627 16.4475 18.7852 16.425C18.8077 16.4025 18.8383 16.3898 18.8701 16.3898C18.9019 16.3898 18.9324 16.4025 18.9549 16.425C18.9774 16.4475 18.9901 16.478 18.9901 16.5098C18.9901 16.5417 18.9774 16.5722 18.9549 16.5947C18.9324 16.6172 18.9019 16.6298 18.8701 16.6298V16.6298ZM18.8701 16.0698C18.8383 16.0698 18.8077 16.0572 18.7852 16.0347C18.7627 16.0122 18.7501 15.9817 18.7501 15.9498C18.7501 15.918 18.7627 15.8875 18.7852 15.865C18.8077 15.8425 18.8383 15.8298 18.8701 15.8298C18.9019 15.8298 18.9324 15.8425 18.9549 15.865C18.9774 15.8875 18.9901 15.918 18.9901 15.9498C18.9901 15.9817 18.9774 16.0122 18.9549 16.0347C18.9324 16.0572 18.9019 16.0698 18.8701 16.0698V16.0698ZM18.8701 15.5098C18.8383 15.5098 18.8077 15.4972 18.7852 15.4747C18.7627 15.4522 18.7501 15.4217 18.7501 15.3898C18.7501 15.358 18.7627 15.3275 18.7852 15.305C18.8077 15.2825 18.8383 15.2698 18.8701 15.2698C18.9019 15.2698 18.9324 15.2825 18.9549 15.305C18.9774 15.3275 18.9901 15.358 18.9901 15.3898C18.9901 15.4217 18.9774 15.4522 18.9549 15.4747C18.9324 15.4972 18.9019 15.5098 18.8701 15.5098V15.5098ZM18.8701 14.9398C18.8453 14.9324 18.8236 14.9173 18.8081 14.8965C18.7927 14.8758 18.7844 14.8507 18.7844 14.8248C18.7844 14.799 18.7927 14.7738 18.8081 14.7531C18.8236 14.7324 18.8453 14.7172 18.8701 14.7098C18.8948 14.7172 18.9166 14.7324 18.932 14.7531C18.9475 14.7738 18.9558 14.799 18.9558 14.8248C18.9558 14.8507 18.9475 14.8758 18.932 14.8965C18.9166 14.9173 18.8948 14.9324 18.8701 14.9398ZM18.8701 14.3798C18.8453 14.3724 18.8236 14.3573 18.8081 14.3365C18.7927 14.3158 18.7844 14.2907 18.7844 14.2648C18.7844 14.239 18.7927 14.2138 18.8081 14.1931C18.8236 14.1724 18.8453 14.1572 18.8701 14.1498C18.8948 14.1572 18.9166 14.1724 18.932 14.1931C18.9475 14.2138 18.9558 14.239 18.9558 14.2648C18.9558 14.2907 18.9475 14.3158 18.932 14.3365C18.9166 14.3573 18.8948 14.3724 18.8701 14.3798V14.3798ZM18.8701 13.8198C18.8453 13.8124 18.8236 13.7973 18.8081 13.7765C18.7927 13.7558 18.7844 13.7307 18.7844 13.7048C18.7844 13.679 18.7927 13.6538 18.8081 13.6331C18.8236 13.6124 18.8453 13.5972 18.8701 13.5898C18.8948 13.5972 18.9166 13.6124 18.932 13.6331C18.9475 13.6538 18.9558 13.679 18.9558 13.7048C18.9558 13.7307 18.9475 13.7558 18.932 13.7765C18.9166 13.7973 18.8948 13.8124 18.8701 13.8198ZM18.8701 13.2598C18.8383 13.2598 18.8077 13.2472 18.7852 13.2247C18.7627 13.2022 18.7501 13.1717 18.7501 13.1398C18.7501 13.108 18.7627 13.0775 18.7852 13.055C18.8077 13.0325 18.8383 13.0198 18.8701 13.0198C18.9019 13.0198 18.9324 13.0325 18.9549 13.055C18.9774 13.0775 18.9901 13.108 18.9901 13.1398C18.9901 13.1717 18.9774 13.2022 18.9549 13.2247C18.9324 13.2472 18.9019 13.2598 18.8701 13.2598V13.2598ZM18.8701 12.6998C18.8383 12.6998 18.8077 12.6872 18.7852 12.6647C18.7627 12.6422 18.7501 12.6117 18.7501 12.5798C18.7501 12.548 18.7627 12.5175 18.7852 12.495C18.8077 12.4725 18.8383 12.4598 18.8701 12.4598C18.9019 12.4598 18.9324 12.4725 18.9549 12.495C18.9774 12.5175 18.9901 12.548 18.9901 12.5798C18.9901 12.6117 18.9774 12.6422 18.9549 12.6647C18.9324 12.6872 18.9019 12.6998 18.8701 12.6998V12.6998ZM18.8701 12.1398C18.8383 12.1398 18.8077 12.1272 18.7852 12.1047C18.7627 12.0822 18.7501 12.0517 18.7501 12.0198C18.7501 11.988 18.7627 11.9575 18.7852 11.935C18.8077 11.9125 18.8383 11.8998 18.8701 11.8998C18.9019 11.8998 18.9324 11.9125 18.9549 11.935C18.9774 11.9575 18.9901 11.988 18.9901 12.0198C18.9901 12.0517 18.9774 12.0822 18.9549 12.1047C18.9324 12.1272 18.9019 12.1398 18.8701 12.1398V12.1398ZM18.8701 11.5698C18.8453 11.5624 18.8236 11.5473 18.8081 11.5265C18.7927 11.5058 18.7844 11.4807 18.7844 11.4548C18.7844 11.429 18.7927 11.4038 18.8081 11.3831C18.8236 11.3624 18.8453 11.3472 18.8701 11.3398C18.8948 11.3472 18.9166 11.3624 18.932 11.3831C18.9475 11.4038 18.9558 11.429 18.9558 11.4548C18.9558 11.4807 18.9475 11.5058 18.932 11.5265C18.9166 11.5473 18.8948 11.5624 18.8701 11.5698V11.5698ZM18.8701 11.0098C18.8453 11.0024 18.8236 10.9873 18.8081 10.9665C18.7927 10.9458 18.7844 10.9207 18.7844 10.8948C18.7844 10.869 18.7927 10.8438 18.8081 10.8231C18.8236 10.8024 18.8453 10.7872 18.8701 10.7798C18.8948 10.7872 18.9166 10.8024 18.932 10.8231C18.9475 10.8438 18.9558 10.869 18.9558 10.8948C18.9558 10.9207 18.9475 10.9458 18.932 10.9665C18.9166 10.9873 18.8948 11.0024 18.8701 11.0098ZM18.8701 10.4498C18.8383 10.4498 18.8077 10.4372 18.7852 10.4147C18.7627 10.3922 18.7501 10.3617 18.7501 10.3298C18.7501 10.298 18.7627 10.2675 18.7852 10.245C18.8077 10.2225 18.8383 10.2098 18.8701 10.2098C18.9019 10.2098 18.9324 10.2225 18.9549 10.245C18.9774 10.2675 18.9901 10.298 18.9901 10.3298C18.9901 10.3617 18.9774 10.3922 18.9549 10.4147C18.9324 10.4372 18.9019 10.4498 18.8701 10.4498V10.4498ZM18.8701 9.88983C18.8383 9.88983 18.8077 9.87719 18.7852 9.85468C18.7627 9.83218 18.7501 9.80166 18.7501 9.76983C18.7501 9.738 18.7627 9.70748 18.7852 9.68498C18.8077 9.66247 18.8383 9.64983 18.8701 9.64983C18.9019 9.64983 18.9324 9.66247 18.9549 9.68498C18.9774 9.70748 18.9901 9.738 18.9901 9.76983C18.9901 9.80166 18.9774 9.83218 18.9549 9.85468C18.9324 9.87719 18.9019 9.88983 18.8701 9.88983V9.88983ZM18.8701 9.32983C18.8383 9.32983 18.8077 9.31719 18.7852 9.29468C18.7627 9.27218 18.7501 9.24165 18.7501 9.20983C18.7501 9.178 18.7627 9.14748 18.7852 9.12498C18.8077 9.10247 18.8383 9.08983 18.8701 9.08983C18.9019 9.08983 18.9324 9.10247 18.9549 9.12498C18.9774 9.14748 18.9901 9.178 18.9901 9.20983C18.9901 9.24165 18.9774 9.27218 18.9549 9.29468C18.9324 9.31719 18.9019 9.32983 18.8701 9.32983V9.32983ZM18.8701 8.76983C18.8383 8.76983 18.8077 8.75719 18.7852 8.73468C18.7627 8.71218 18.7501 8.68165 18.7501 8.64983C18.7501 8.618 18.7627 8.58748 18.7852 8.56498C18.8077 8.54247 18.8383 8.52983 18.8701 8.52983C18.9019 8.52983 18.9324 8.54247 18.9549 8.56498C18.9774 8.58748 18.9901 8.618 18.9901 8.64983C18.9901 8.68165 18.9774 8.71218 18.9549 8.73468C18.9324 8.75719 18.9019 8.76983 18.8701 8.76983V8.76983ZM18.8701 8.19983C18.8453 8.19245 18.8236 8.17727 18.8081 8.15655C18.7927 8.13583 18.7844 8.11067 18.7844 8.08483C18.7844 8.05899 18.7927 8.03383 18.8081 8.01311C18.8236 7.99239 18.8453 7.97721 18.8701 7.96983C18.8948 7.97721 18.9166 7.99239 18.932 8.01311C18.9475 8.03383 18.9558 8.05899 18.9558 8.08483C18.9558 8.11067 18.9475 8.13583 18.932 8.15655C18.9166 8.17727 18.8948 8.19245 18.8701 8.19983ZM18.8701 7.63983C18.8453 7.63245 18.8236 7.61727 18.8081 7.59655C18.7927 7.57583 18.7844 7.55067 18.7844 7.52483C18.7844 7.49899 18.7927 7.47383 18.8081 7.45311C18.8236 7.43239 18.8453 7.41721 18.8701 7.40983C18.8948 7.41721 18.9166 7.43239 18.932 7.45311C18.9475 7.47383 18.9558 7.49899 18.9558 7.52483C18.9558 7.55067 18.9475 7.57583 18.932 7.59655C18.9166 7.61727 18.8948 7.63245 18.8701 7.63983ZM18.8701 7.07983C18.8383 7.07983 18.8077 7.06719 18.7852 7.04468C18.7627 7.02218 18.7501 6.99165 18.7501 6.95983C18.7501 6.928 18.7627 6.89748 18.7852 6.87498C18.8077 6.85247 18.8383 6.83983 18.8701 6.83983C18.9019 6.83983 18.9324 6.85247 18.9549 6.87498C18.9774 6.89748 18.9901 6.928 18.9901 6.95983C18.9901 6.99165 18.9774 7.02218 18.9549 7.04468C18.9324 7.06719 18.9019 7.07983 18.8701 7.07983V7.07983ZM18.8701 6.51983C18.8383 6.51983 18.8077 6.50719 18.7852 6.48468C18.7627 6.46218 18.7501 6.43165 18.7501 6.39983C18.7501 6.368 18.7627 6.33748 18.7852 6.31498C18.8077 6.29247 18.8383 6.27983 18.8701 6.27983C18.9019 6.27983 18.9324 6.29247 18.9549 6.31498C18.9774 6.33748 18.9901 6.368 18.9901 6.39983C18.9901 6.43165 18.9774 6.46218 18.9549 6.48468C18.9324 6.50719 18.9019 6.51983 18.8701 6.51983V6.51983ZM18.8701 5.95983C18.8383 5.95983 18.8077 5.94719 18.7852 5.92468C18.7627 5.90218 18.7501 5.87165 18.7501 5.83983C18.7501 5.808 18.7627 5.77748 18.7852 5.75498C18.8077 5.73247 18.8383 5.71983 18.8701 5.71983C18.9401 5.71983 18.9901 5.76983 18.9901 5.83983C18.9901 5.89983 18.9401 5.95983 18.8701 5.95983ZM18.8701 5.39983C18.8383 5.39983 18.8077 5.38719 18.7852 5.36468C18.7627 5.34218 18.7501 5.31165 18.7501 5.27983C18.7501 5.248 18.7627 5.21748 18.7852 5.19498C18.8077 5.17247 18.8383 5.15983 18.8701 5.15983C18.9019 5.15983 18.9324 5.17247 18.9549 5.19498C18.9774 5.21748 18.9901 5.248 18.9901 5.27983C18.9901 5.31165 18.9774 5.34218 18.9549 5.36468C18.9324 5.38719 18.9019 5.39983 18.8701 5.39983V5.39983ZM19.7801 10.4098L21.6801 8.50983C21.8564 8.33346 22.0957 8.23438 22.3451 8.23438C22.5945 8.23438 22.8337 8.33346 23.0101 8.50983C23.1864 8.6862 23.2855 8.92541 23.2855 9.17483C23.2855 9.42425 23.1864 9.66346 23.0101 9.83983L21.1101 11.7398C20.9337 11.9162 20.6945 12.0153 20.4451 12.0153C20.1957 12.0153 19.9564 11.9162 19.7801 11.7398C19.6037 11.5635 19.5046 11.3243 19.5046 11.0748C19.5046 10.8254 19.6037 10.5862 19.7801 10.4098ZM19.8101 14.4098L21.7101 12.5198C21.8906 12.3676 22.1218 12.2888 22.3577 12.2993C22.5936 12.3097 22.817 12.4086 22.9833 12.5762C23.1497 12.7438 23.2468 12.9679 23.2555 13.2039C23.2642 13.4399 23.1837 13.6705 23.0301 13.8498L21.1301 15.7498C20.9496 15.9021 20.7184 15.9808 20.4824 15.9704C20.2465 15.9599 20.0232 15.8611 19.8568 15.6935C19.6905 15.5259 19.5933 15.3018 19.5846 15.0658C19.576 14.8298 19.6565 14.5992 19.8101 14.4198V14.4098ZM19.8301 18.4298L21.7301 16.5298C21.9106 16.3776 22.1418 16.2988 22.3777 16.3093C22.6136 16.3197 22.837 16.4186 23.0033 16.5862C23.1697 16.7538 23.2668 16.9779 23.2755 17.2139C23.2842 17.4499 23.2037 17.6805 23.0501 17.8598L21.1501 19.7598C20.9696 19.9121 20.7384 19.9908 20.5024 19.9804C20.2665 19.9699 20.0432 19.8711 19.8768 19.7035C19.7105 19.5359 19.6133 19.3118 19.6046 19.0758C19.596 18.8398 19.6765 18.6092 19.8301 18.4298V18.4298ZM19.8501 22.4298L21.7501 20.5398C21.9264 20.3635 22.1657 20.2644 22.4151 20.2644C22.6645 20.2644 22.9037 20.3635 23.0801 20.5398C23.2564 20.7162 23.3555 20.9554 23.3555 21.2048C23.3555 21.4543 23.2564 21.6935 23.0801 21.8698L21.1801 23.7698C21.0037 23.9462 20.7645 24.0453 20.5151 24.0453C20.2657 24.0453 20.0264 23.9462 19.8501 23.7698C19.6737 23.5935 19.5746 23.3543 19.5746 23.1048C19.5746 22.8554 19.6737 22.6162 19.8501 22.4398V22.4298ZM19.8801 26.4498L21.7801 24.5498C21.9606 24.3976 22.1918 24.3188 22.4277 24.3293C22.6636 24.3397 22.887 24.4386 23.0533 24.6062C23.2197 24.7738 23.3168 24.9979 23.3255 25.2339C23.3342 25.4699 23.2537 25.7005 23.1001 25.8798L21.2001 27.7798C21.0196 27.9321 20.7884 28.0108 20.5524 28.0004C20.3165 27.9899 20.0932 27.8911 19.9268 27.7235C19.7605 27.5559 19.6633 27.3318 19.6546 27.0958C19.646 26.8598 19.7265 26.6292 19.8801 26.4498V26.4498ZM19.9001 30.4498L21.8001 28.5498C21.9806 28.3976 22.2118 28.3188 22.4477 28.3293C22.6836 28.3397 22.907 28.4386 23.0733 28.6062C23.2397 28.7738 23.3368 28.9979 23.3455 29.2339C23.3542 29.4699 23.2737 29.7005 23.1201 29.8798L21.2201 31.7798C21.0396 31.9321 20.8084 32.0108 20.5724 32.0004C20.3365 31.9899 20.1132 31.8911 19.9468 31.7235C19.7805 31.5559 19.6833 31.3318 19.6746 31.0958C19.666 30.8598 19.7465 30.6292 19.9001 30.4498V30.4498ZM19.9201 34.4598L21.8201 32.5598C22.0006 32.4076 22.2318 32.3288 22.4677 32.3393C22.7036 32.3497 22.927 32.4486 23.0933 32.6162C23.2597 32.7838 23.3568 33.0079 23.3655 33.2439C23.3742 33.4799 23.2937 33.7105 23.1401 33.8898L21.2401 35.7898C21.0596 35.9421 20.8284 36.0208 20.5924 36.0104C20.3565 35.9999 20.1332 35.9011 19.9668 35.7335C19.8005 35.5659 19.7033 35.3418 19.6946 35.1058C19.686 34.8698 19.7665 34.6392 19.9201 34.4598V34.4598ZM23.1701 37.8998L21.2701 39.7998C21.1827 39.8872 21.0791 39.9564 20.965 40.0037C20.8509 40.051 20.7286 40.0753 20.6051 40.0753C20.4816 40.0753 20.3593 40.051 20.2452 40.0037C20.1311 39.9564 20.0274 39.8872 19.9401 39.7998C19.8527 39.7125 19.7835 39.6088 19.7362 39.4947C19.689 39.3806 19.6646 39.2583 19.6646 39.1348C19.6646 39.0113 19.689 38.889 19.7362 38.7749C19.7835 38.6608 19.8527 38.5572 19.9401 38.4698L21.8401 36.5698C21.9274 36.4825 22.0311 36.4132 22.1452 36.366C22.2593 36.3187 22.3816 36.2944 22.5051 36.2944C22.6286 36.2944 22.7509 36.3187 22.865 36.366C22.9791 36.4132 23.0827 36.4825 23.1701 36.5698C23.2574 36.6572 23.3267 36.7608 23.3739 36.8749C23.4212 36.989 23.4455 37.1113 23.4455 37.2348C23.4455 37.3583 23.4212 37.4806 23.3739 37.5947C23.3267 37.7088 23.2574 37.8125 23.1701 37.8998ZM24.0101 43.0298C23.9853 43.0224 23.9636 43.0073 23.9481 42.9865C23.9327 42.9658 23.9244 42.9407 23.9244 42.9148C23.9244 42.889 23.9327 42.8638 23.9481 42.8431C23.9636 42.8224 23.9853 42.8072 24.0101 42.7998C24.0348 42.8072 24.0566 42.8224 24.072 42.8431C24.0875 42.8638 24.0958 42.889 24.0958 42.9148C24.0958 42.9407 24.0875 42.9658 24.072 42.9865C24.0566 43.0073 24.0348 43.0224 24.0101 43.0298V43.0298ZM24.0101 42.4698C23.9783 42.4698 23.9477 42.4572 23.9252 42.4347C23.9027 42.4122 23.8901 42.3817 23.8901 42.3498C23.8901 42.318 23.9027 42.2875 23.9252 42.265C23.9477 42.2425 23.9783 42.2298 24.0101 42.2298C24.0419 42.2298 24.0724 42.2425 24.0949 42.265C24.1174 42.2875 24.1301 42.318 24.1301 42.3498C24.1301 42.3817 24.1174 42.4122 24.0949 42.4347C24.0724 42.4572 24.0419 42.4698 24.0101 42.4698V42.4698ZM24.0101 41.9098C23.9783 41.9098 23.9477 41.8972 23.9252 41.8747C23.9027 41.8522 23.8901 41.8217 23.8901 41.7898C23.8901 41.758 23.9027 41.7275 23.9252 41.705C23.9477 41.6825 23.9783 41.6698 24.0101 41.6698C24.0419 41.6698 24.0724 41.6825 24.0949 41.705C24.1174 41.7275 24.1301 41.758 24.1301 41.7898C24.1301 41.8217 24.1174 41.8522 24.0949 41.8747C24.0724 41.8972 24.0419 41.9098 24.0101 41.9098V41.9098ZM24.0101 41.3498C23.9783 41.3498 23.9477 41.3372 23.9252 41.3147C23.9027 41.2922 23.8901 41.2617 23.8901 41.2298C23.8901 41.198 23.9027 41.1675 23.9252 41.145C23.9477 41.1225 23.9783 41.1098 24.0101 41.1098C24.0419 41.1098 24.0724 41.1225 24.0949 41.145C24.1174 41.1675 24.1301 41.198 24.1301 41.2298C24.1301 41.2617 24.1174 41.2922 24.0949 41.3147C24.0724 41.3372 24.0419 41.3498 24.0101 41.3498V41.3498ZM24.0101 40.7798C23.9853 40.7724 23.9636 40.7573 23.9481 40.7365C23.9327 40.7158 23.9244 40.6907 23.9244 40.6648C23.9244 40.639 23.9327 40.6138 23.9481 40.5931C23.9636 40.5724 23.9853 40.5572 24.0101 40.5498C24.0348 40.5572 24.0566 40.5724 24.072 40.5931C24.0875 40.6138 24.0958 40.639 24.0958 40.6648C24.0958 40.6907 24.0875 40.7158 24.072 40.7365C24.0566 40.7573 24.0348 40.7724 24.0101 40.7798V40.7798ZM24.0101 40.2198C23.9853 40.2124 23.9636 40.1973 23.9481 40.1765C23.9327 40.1558 23.9244 40.1307 23.9244 40.1048C23.9244 40.079 23.9327 40.0538 23.9481 40.0331C23.9636 40.0124 23.9853 39.9972 24.0101 39.9898C24.0348 39.9972 24.0566 40.0124 24.072 40.0331C24.0875 40.0538 24.0958 40.079 24.0958 40.1048C24.0958 40.1307 24.0875 40.1558 24.072 40.1765C24.0566 40.1973 24.0348 40.2124 24.0101 40.2198V40.2198ZM24.0101 39.6598C23.9783 39.6598 23.9477 39.6472 23.9252 39.6247C23.9027 39.6022 23.8901 39.5717 23.8901 39.5398C23.8901 39.508 23.9027 39.4775 23.9252 39.455C23.9477 39.4325 23.9783 39.4198 24.0101 39.4198C24.0419 39.4198 24.0724 39.4325 24.0949 39.455C24.1174 39.4775 24.1301 39.508 24.1301 39.5398C24.1301 39.5717 24.1174 39.6022 24.0949 39.6247C24.0724 39.6472 24.0419 39.6598 24.0101 39.6598V39.6598ZM24.0101 39.0998C23.9783 39.0998 23.9477 39.0872 23.9252 39.0647C23.9027 39.0422 23.8901 39.0117 23.8901 38.9798C23.8901 38.948 23.9027 38.9175 23.9252 38.895C23.9477 38.8725 23.9783 38.8598 24.0101 38.8598C24.0419 38.8598 24.0724 38.8725 24.0949 38.895C24.1174 38.9175 24.1301 38.948 24.1301 38.9798C24.1301 39.0117 24.1174 39.0422 24.0949 39.0647C24.0724 39.0872 24.0419 39.0998 24.0101 39.0998V39.0998ZM24.0101 38.5398C23.9783 38.5398 23.9477 38.5272 23.9252 38.5047C23.9027 38.4822 23.8901 38.4517 23.8901 38.4198C23.8901 38.388 23.9027 38.3575 23.9252 38.335C23.9477 38.3125 23.9783 38.2998 24.0101 38.2998C24.0419 38.2998 24.0724 38.3125 24.0949 38.335C24.1174 38.3575 24.1301 38.388 24.1301 38.4198C24.1301 38.4517 24.1174 38.4822 24.0949 38.5047C24.0724 38.5272 24.0419 38.5398 24.0101 38.5398V38.5398ZM24.0101 37.9798C23.9783 37.9798 23.9477 37.9672 23.9252 37.9447C23.9027 37.9222 23.8901 37.8917 23.8901 37.8598C23.8901 37.828 23.9027 37.7975 23.9252 37.775C23.9477 37.7525 23.9783 37.7398 24.0101 37.7398C24.0419 37.7398 24.0724 37.7525 24.0949 37.775C24.1174 37.7975 24.1301 37.828 24.1301 37.8598C24.1301 37.8917 24.1174 37.9222 24.0949 37.9447C24.0724 37.9672 24.0419 37.9798 24.0101 37.9798V37.9798ZM24.0101 37.4098C23.9853 37.4024 23.9636 37.3873 23.9481 37.3665C23.9327 37.3458 23.9244 37.3207 23.9244 37.2948C23.9244 37.269 23.9327 37.2438 23.9481 37.2231C23.9636 37.2024 23.9853 37.1872 24.0101 37.1798C24.0348 37.1872 24.0566 37.2024 24.072 37.2231C24.0875 37.2438 24.0958 37.269 24.0958 37.2948C24.0958 37.3207 24.0875 37.3458 24.072 37.3665C24.0566 37.3873 24.0348 37.4024 24.0101 37.4098V37.4098ZM24.0101 36.8498C23.9853 36.8424 23.9636 36.8273 23.9481 36.8065C23.9327 36.7858 23.9244 36.7607 23.9244 36.7348C23.9244 36.709 23.9327 36.6838 23.9481 36.6631C23.9636 36.6424 23.9853 36.6272 24.0101 36.6198C24.0348 36.6272 24.0566 36.6424 24.072 36.6631C24.0875 36.6838 24.0958 36.709 24.0958 36.7348C24.0958 36.7607 24.0875 36.7858 24.072 36.8065C24.0566 36.8273 24.0348 36.8424 24.0101 36.8498V36.8498ZM24.0101 36.2898C23.9783 36.2898 23.9477 36.2772 23.9252 36.2547C23.9027 36.2322 23.8901 36.2017 23.8901 36.1698C23.8901 36.138 23.9027 36.1075 23.9252 36.085C23.9477 36.0625 23.9783 36.0498 24.0101 36.0498C24.0419 36.0498 24.0724 36.0625 24.0949 36.085C24.1174 36.1075 24.1301 36.138 24.1301 36.1698C24.1301 36.2017 24.1174 36.2322 24.0949 36.2547C24.0724 36.2772 24.0419 36.2898 24.0101 36.2898V36.2898ZM24.0101 35.7298C23.9783 35.7298 23.9477 35.7172 23.9252 35.6947C23.9027 35.6722 23.8901 35.6417 23.8901 35.6098C23.8901 35.578 23.9027 35.5475 23.9252 35.525C23.9477 35.5025 23.9783 35.4898 24.0101 35.4898C24.0419 35.4898 24.0724 35.5025 24.0949 35.525C24.1174 35.5475 24.1301 35.578 24.1301 35.6098C24.1301 35.6417 24.1174 35.6722 24.0949 35.6947C24.0724 35.7172 24.0419 35.7298 24.0101 35.7298V35.7298ZM24.0101 35.1698C23.9783 35.1698 23.9477 35.1572 23.9252 35.1347C23.9027 35.1122 23.8901 35.0817 23.8901 35.0498C23.8901 35.018 23.9027 34.9875 23.9252 34.965C23.9477 34.9425 23.9783 34.9298 24.0101 34.9298C24.0419 34.9298 24.0724 34.9425 24.0949 34.965C24.1174 34.9875 24.1301 35.018 24.1301 35.0498C24.1301 35.0817 24.1174 35.1122 24.0949 35.1347C24.0724 35.1572 24.0419 35.1698 24.0101 35.1698V35.1698ZM24.0101 34.5998C23.9853 34.5924 23.9636 34.5773 23.9481 34.5565C23.9327 34.5358 23.9244 34.5107 23.9244 34.4848C23.9244 34.459 23.9327 34.4338 23.9481 34.4131C23.9636 34.3924 23.9853 34.3772 24.0101 34.3698C24.0348 34.3772 24.0566 34.3924 24.072 34.4131C24.0875 34.4338 24.0958 34.459 24.0958 34.4848C24.0958 34.5107 24.0875 34.5358 24.072 34.5565C24.0566 34.5773 24.0348 34.5924 24.0101 34.5998ZM24.0101 34.0398C23.9853 34.0324 23.9636 34.0173 23.9481 33.9965C23.9327 33.9758 23.9244 33.9507 23.9244 33.9248C23.9244 33.899 23.9327 33.8738 23.9481 33.8531C23.9636 33.8324 23.9853 33.8172 24.0101 33.8098C24.0348 33.8172 24.0566 33.8324 24.072 33.8531C24.0875 33.8738 24.0958 33.899 24.0958 33.9248C24.0958 33.9507 24.0875 33.9758 24.072 33.9965C24.0566 34.0173 24.0348 34.0324 24.0101 34.0398V34.0398ZM24.0101 33.4798C23.9853 33.4724 23.9636 33.4573 23.9481 33.4365C23.9327 33.4158 23.9244 33.3907 23.9244 33.3648C23.9244 33.339 23.9327 33.3138 23.9481 33.2931C23.9636 33.2724 23.9853 33.2572 24.0101 33.2498C24.0348 33.2572 24.0566 33.2724 24.072 33.2931C24.0875 33.3138 24.0958 33.339 24.0958 33.3648C24.0958 33.3907 24.0875 33.4158 24.072 33.4365C24.0566 33.4573 24.0348 33.4724 24.0101 33.4798ZM24.0101 32.9198C23.9783 32.9198 23.9477 32.9072 23.9252 32.8847C23.9027 32.8622 23.8901 32.8317 23.8901 32.7998C23.8901 32.768 23.9027 32.7375 23.9252 32.715C23.9477 32.6925 23.9783 32.6798 24.0101 32.6798C24.0419 32.6798 24.0724 32.6925 24.0949 32.715C24.1174 32.7375 24.1301 32.768 24.1301 32.7998C24.1301 32.8317 24.1174 32.8622 24.0949 32.8847C24.0724 32.9072 24.0419 32.9198 24.0101 32.9198V32.9198ZM24.0101 32.3598C23.9783 32.3598 23.9477 32.3472 23.9252 32.3247C23.9027 32.3022 23.8901 32.2717 23.8901 32.2398C23.8901 32.208 23.9027 32.1775 23.9252 32.155C23.9477 32.1325 23.9783 32.1198 24.0101 32.1198C24.0419 32.1198 24.0724 32.1325 24.0949 32.155C24.1174 32.1775 24.1301 32.208 24.1301 32.2398C24.1301 32.2717 24.1174 32.3022 24.0949 32.3247C24.0724 32.3472 24.0419 32.3598 24.0101 32.3598V32.3598ZM24.0101 31.7998C23.9783 31.7998 23.9477 31.7872 23.9252 31.7647C23.9027 31.7422 23.8901 31.7117 23.8901 31.6798C23.8901 31.648 23.9027 31.6175 23.9252 31.595C23.9477 31.5725 23.9783 31.5598 24.0101 31.5598C24.0419 31.5598 24.0724 31.5725 24.0949 31.595C24.1174 31.6175 24.1301 31.648 24.1301 31.6798C24.1301 31.7117 24.1174 31.7422 24.0949 31.7647C24.0724 31.7872 24.0419 31.7998 24.0101 31.7998V31.7998ZM24.0101 31.2298C23.9853 31.2224 23.9636 31.2073 23.9481 31.1865C23.9327 31.1658 23.9244 31.1407 23.9244 31.1148C23.9244 31.089 23.9327 31.0638 23.9481 31.0431C23.9636 31.0224 23.9853 31.0072 24.0101 30.9998C24.0348 31.0072 24.0566 31.0224 24.072 31.0431C24.0875 31.0638 24.0958 31.089 24.0958 31.1148C24.0958 31.1407 24.0875 31.1658 24.072 31.1865C24.0566 31.2073 24.0348 31.2224 24.0101 31.2298V31.2298ZM24.0101 30.6698C23.9853 30.6624 23.9636 30.6473 23.9481 30.6265C23.9327 30.6058 23.9244 30.5807 23.9244 30.5548C23.9244 30.529 23.9327 30.5038 23.9481 30.4831C23.9636 30.4624 23.9853 30.4472 24.0101 30.4398C24.0348 30.4472 24.0566 30.4624 24.072 30.4831C24.0875 30.5038 24.0958 30.529 24.0958 30.5548C24.0958 30.5807 24.0875 30.6058 24.072 30.6265C24.0566 30.6473 24.0348 30.6624 24.0101 30.6698V30.6698ZM24.0101 30.1098C23.9783 30.1098 23.9477 30.0972 23.9252 30.0747C23.9027 30.0522 23.8901 30.0217 23.8901 29.9898C23.8901 29.958 23.9027 29.9275 23.9252 29.905C23.9477 29.8825 23.9783 29.8698 24.0101 29.8698C24.0419 29.8698 24.0724 29.8825 24.0949 29.905C24.1174 29.9275 24.1301 29.958 24.1301 29.9898C24.1301 30.0217 24.1174 30.0522 24.0949 30.0747C24.0724 30.0972 24.0419 30.1098 24.0101 30.1098V30.1098ZM24.0101 29.5498C23.9783 29.5498 23.9477 29.5372 23.9252 29.5147C23.9027 29.4922 23.8901 29.4617 23.8901 29.4298C23.8901 29.398 23.9027 29.3675 23.9252 29.345C23.9477 29.3225 23.9783 29.3098 24.0101 29.3098C24.0419 29.3098 24.0724 29.3225 24.0949 29.345C24.1174 29.3675 24.1301 29.398 24.1301 29.4298C24.1301 29.4617 24.1174 29.4922 24.0949 29.5147C24.0724 29.5372 24.0419 29.5498 24.0101 29.5498ZM24.0101 28.9898C23.9783 28.9898 23.9477 28.9772 23.9252 28.9547C23.9027 28.9322 23.8901 28.9017 23.8901 28.8698C23.8901 28.838 23.9027 28.8075 23.9252 28.785C23.9477 28.7625 23.9783 28.7498 24.0101 28.7498C24.0419 28.7498 24.0724 28.7625 24.0949 28.785C24.1174 28.8075 24.1301 28.838 24.1301 28.8698C24.1301 28.9017 24.1174 28.9322 24.0949 28.9547C24.0724 28.9772 24.0419 28.9898 24.0101 28.9898V28.9898ZM24.0101 28.4298C23.9783 28.4298 23.9477 28.4172 23.9252 28.3947C23.9027 28.3722 23.8901 28.3417 23.8901 28.3098C23.8901 28.278 23.9027 28.2475 23.9252 28.225C23.9477 28.2025 23.9783 28.1898 24.0101 28.1898C24.0419 28.1898 24.0724 28.2025 24.0949 28.225C24.1174 28.2475 24.1301 28.278 24.1301 28.3098C24.1301 28.3417 24.1174 28.3722 24.0949 28.3947C24.0724 28.4172 24.0419 28.4298 24.0101 28.4298ZM24.0101 27.8598C23.9853 27.8524 23.9636 27.8373 23.9481 27.8165C23.9327 27.7958 23.9244 27.7707 23.9244 27.7448C23.9244 27.719 23.9327 27.6938 23.9481 27.6731C23.9636 27.6524 23.9853 27.6372 24.0101 27.6298C24.0348 27.6372 24.0566 27.6524 24.072 27.6731C24.0875 27.6938 24.0958 27.719 24.0958 27.7448C24.0958 27.7707 24.0875 27.7958 24.072 27.8165C24.0566 27.8373 24.0348 27.8524 24.0101 27.8598V27.8598ZM24.0101 27.2998C23.9853 27.2924 23.9636 27.2773 23.9481 27.2565C23.9327 27.2358 23.9244 27.2107 23.9244 27.1848C23.9244 27.159 23.9327 27.1338 23.9481 27.1131C23.9636 27.0924 23.9853 27.0772 24.0101 27.0698C24.0348 27.0772 24.0566 27.0924 24.072 27.1131C24.0875 27.1338 24.0958 27.159 24.0958 27.1848C24.0958 27.2107 24.0875 27.2358 24.072 27.2565C24.0566 27.2773 24.0348 27.2924 24.0101 27.2998V27.2998ZM24.0101 26.7398C23.9783 26.7398 23.9477 26.7272 23.9252 26.7047C23.9027 26.6822 23.8901 26.6517 23.8901 26.6198C23.8901 26.588 23.9027 26.5575 23.9252 26.535C23.9477 26.5125 23.9783 26.4998 24.0101 26.4998C24.0419 26.4998 24.0724 26.5125 24.0949 26.535C24.1174 26.5575 24.1301 26.588 24.1301 26.6198C24.1301 26.6517 24.1174 26.6822 24.0949 26.7047C24.0724 26.7272 24.0419 26.7398 24.0101 26.7398ZM24.0101 26.1798C23.9783 26.1798 23.9477 26.1672 23.9252 26.1447C23.9027 26.1222 23.8901 26.0917 23.8901 26.0598C23.8901 26.028 23.9027 25.9975 23.9252 25.975C23.9477 25.9525 23.9783 25.9398 24.0101 25.9398C24.0419 25.9398 24.0724 25.9525 24.0949 25.975C24.1174 25.9975 24.1301 26.028 24.1301 26.0598C24.1301 26.0917 24.1174 26.1222 24.0949 26.1447C24.0724 26.1672 24.0419 26.1798 24.0101 26.1798V26.1798ZM24.0101 25.6198C23.9783 25.6198 23.9477 25.6072 23.9252 25.5847C23.9027 25.5622 23.8901 25.5317 23.8901 25.4998C23.8901 25.468 23.9027 25.4375 23.9252 25.415C23.9477 25.3925 23.9783 25.3798 24.0101 25.3798C24.0419 25.3798 24.0724 25.3925 24.0949 25.415C24.1174 25.4375 24.1301 25.468 24.1301 25.4998C24.1301 25.5317 24.1174 25.5622 24.0949 25.5847C24.0724 25.6072 24.0419 25.6198 24.0101 25.6198ZM24.0101 25.0598C23.9783 25.0598 23.9477 25.0472 23.9252 25.0247C23.9027 25.0022 23.8901 24.9717 23.8901 24.9398C23.8901 24.908 23.9027 24.8775 23.9252 24.855C23.9477 24.8325 23.9783 24.8198 24.0101 24.8198C24.0419 24.8198 24.0724 24.8325 24.0949 24.855C24.1174 24.8775 24.1301 24.908 24.1301 24.9398C24.1301 24.9717 24.1174 25.0022 24.0949 25.0247C24.0724 25.0472 24.0419 25.0598 24.0101 25.0598V25.0598ZM24.0101 24.4898C23.9853 24.4824 23.9636 24.4673 23.9481 24.4465C23.9327 24.4258 23.9244 24.4007 23.9244 24.3748C23.9244 24.349 23.9327 24.3238 23.9481 24.3031C23.9636 24.2824 23.9853 24.2672 24.0101 24.2598C24.0348 24.2672 24.0566 24.2824 24.072 24.3031C24.0875 24.3238 24.0958 24.349 24.0958 24.3748C24.0958 24.4007 24.0875 24.4258 24.072 24.4465C24.0566 24.4673 24.0348 24.4824 24.0101 24.4898V24.4898ZM24.0101 23.9298C23.9853 23.9224 23.9636 23.9073 23.9481 23.8865C23.9327 23.8658 23.9244 23.8407 23.9244 23.8148C23.9244 23.789 23.9327 23.7638 23.9481 23.7431C23.9636 23.7224 23.9853 23.7072 24.0101 23.6998C24.0348 23.7072 24.0566 23.7224 24.072 23.7431C24.0875 23.7638 24.0958 23.789 24.0958 23.8148C24.0958 23.8407 24.0875 23.8658 24.072 23.8865C24.0566 23.9073 24.0348 23.9224 24.0101 23.9298V23.9298ZM24.0101 23.3698C23.9783 23.3698 23.9477 23.3572 23.9252 23.3347C23.9027 23.3122 23.8901 23.2817 23.8901 23.2498C23.8901 23.218 23.9027 23.1875 23.9252 23.165C23.9477 23.1425 23.9783 23.1298 24.0101 23.1298C24.0419 23.1298 24.0724 23.1425 24.0949 23.165C24.1174 23.1875 24.1301 23.218 24.1301 23.2498C24.1301 23.2817 24.1174 23.3122 24.0949 23.3347C24.0724 23.3572 24.0419 23.3698 24.0101 23.3698V23.3698ZM24.0101 22.8098C23.9783 22.8098 23.9477 22.7972 23.9252 22.7747C23.9027 22.7522 23.8901 22.7217 23.8901 22.6898C23.8901 22.658 23.9027 22.6275 23.9252 22.605C23.9477 22.5825 23.9783 22.5698 24.0101 22.5698C24.0419 22.5698 24.0724 22.5825 24.0949 22.605C24.1174 22.6275 24.1301 22.658 24.1301 22.6898C24.1301 22.7217 24.1174 22.7522 24.0949 22.7747C24.0724 22.7972 24.0419 22.8098 24.0101 22.8098ZM24.0101 22.2498C23.9783 22.2498 23.9477 22.2372 23.9252 22.2147C23.9027 22.1922 23.8901 22.1617 23.8901 22.1298C23.8901 22.098 23.9027 22.0675 23.9252 22.045C23.9477 22.0225 23.9783 22.0098 24.0101 22.0098C24.0419 22.0098 24.0724 22.0225 24.0949 22.045C24.1174 22.0675 24.1301 22.098 24.1301 22.1298C24.1301 22.1617 24.1174 22.1922 24.0949 22.2147C24.0724 22.2372 24.0419 22.2498 24.0101 22.2498V22.2498ZM24.0101 21.6798C23.9853 21.6724 23.9636 21.6573 23.9481 21.6365C23.9327 21.6158 23.9244 21.5907 23.9244 21.5648C23.9244 21.539 23.9327 21.5138 23.9481 21.4931C23.9636 21.4724 23.9853 21.4572 24.0101 21.4498C24.0348 21.4572 24.0566 21.4724 24.072 21.4931C24.0875 21.5138 24.0958 21.539 24.0958 21.5648C24.0958 21.5907 24.0875 21.6158 24.072 21.6365C24.0566 21.6573 24.0348 21.6724 24.0101 21.6798V21.6798ZM24.0101 21.1198C23.9853 21.1124 23.9636 21.0973 23.9481 21.0765C23.9327 21.0558 23.9244 21.0307 23.9244 21.0048C23.9244 20.979 23.9327 20.9538 23.9481 20.9331C23.9636 20.9124 23.9853 20.8972 24.0101 20.8898C24.0348 20.8972 24.0566 20.9124 24.072 20.9331C24.0875 20.9538 24.0958 20.979 24.0958 21.0048C24.0958 21.0307 24.0875 21.0558 24.072 21.0765C24.0566 21.0973 24.0348 21.1124 24.0101 21.1198V21.1198ZM24.0101 20.5598C23.9853 20.5524 23.9636 20.5373 23.9481 20.5165C23.9327 20.4958 23.9244 20.4707 23.9244 20.4448C23.9244 20.419 23.9327 20.3938 23.9481 20.3731C23.9636 20.3524 23.9853 20.3372 24.0101 20.3298C24.0348 20.3372 24.0566 20.3524 24.072 20.3731C24.0875 20.3938 24.0958 20.419 24.0958 20.4448C24.0958 20.4707 24.0875 20.4958 24.072 20.5165C24.0566 20.5373 24.0348 20.5524 24.0101 20.5598V20.5598ZM24.0101 19.9998C23.9783 19.9998 23.9477 19.9872 23.9252 19.9647C23.9027 19.9422 23.8901 19.9117 23.8901 19.8798C23.8901 19.848 23.9027 19.8175 23.9252 19.795C23.9477 19.7725 23.9783 19.7598 24.0101 19.7598C24.0419 19.7598 24.0724 19.7725 24.0949 19.795C24.1174 19.8175 24.1301 19.848 24.1301 19.8798C24.1301 19.9117 24.1174 19.9422 24.0949 19.9647C24.0724 19.9872 24.0419 19.9998 24.0101 19.9998ZM24.0101 19.4398C23.9783 19.4398 23.9477 19.4272 23.9252 19.4047C23.9027 19.3822 23.8901 19.3517 23.8901 19.3198C23.8901 19.288 23.9027 19.2575 23.9252 19.235C23.9477 19.2125 23.9783 19.1998 24.0101 19.1998C24.0419 19.1998 24.0724 19.2125 24.0949 19.235C24.1174 19.2575 24.1301 19.288 24.1301 19.3198C24.1301 19.3517 24.1174 19.3822 24.0949 19.4047C24.0724 19.4272 24.0419 19.4398 24.0101 19.4398V19.4398ZM24.0101 18.8798C23.9783 18.8798 23.9477 18.8672 23.9252 18.8447C23.9027 18.8222 23.8901 18.7917 23.8901 18.7598C23.8901 18.728 23.9027 18.6975 23.9252 18.675C23.9477 18.6525 23.9783 18.6398 24.0101 18.6398C24.0419 18.6398 24.0724 18.6525 24.0949 18.675C24.1174 18.6975 24.1301 18.728 24.1301 18.7598C24.1301 18.7917 24.1174 18.8222 24.0949 18.8447C24.0724 18.8672 24.0419 18.8798 24.0101 18.8798ZM24.0101 18.3098C23.9853 18.3024 23.9636 18.2873 23.9481 18.2665C23.9327 18.2458 23.9244 18.2207 23.9244 18.1948C23.9244 18.169 23.9327 18.1438 23.9481 18.1231C23.9636 18.1024 23.9853 18.0872 24.0101 18.0798C24.0348 18.0872 24.0566 18.1024 24.072 18.1231C24.0875 18.1438 24.0958 18.169 24.0958 18.1948C24.0958 18.2207 24.0875 18.2458 24.072 18.2665C24.0566 18.2873 24.0348 18.3024 24.0101 18.3098V18.3098ZM24.0101 17.7498C23.9853 17.7424 23.9636 17.7273 23.9481 17.7065C23.9327 17.6858 23.9244 17.6607 23.9244 17.6348C23.9244 17.609 23.9327 17.5838 23.9481 17.5631C23.9636 17.5424 23.9853 17.5272 24.0101 17.5198C24.0348 17.5272 24.0566 17.5424 24.072 17.5631C24.0875 17.5838 24.0958 17.609 24.0958 17.6348C24.0958 17.6607 24.0875 17.6858 24.072 17.7065C24.0566 17.7273 24.0348 17.7424 24.0101 17.7498V17.7498ZM24.0101 17.1898C23.9783 17.1898 23.9477 17.1772 23.9252 17.1547C23.9027 17.1322 23.8901 17.1017 23.8901 17.0698C23.8901 17.038 23.9027 17.0075 23.9252 16.985C23.9477 16.9625 23.9783 16.9498 24.0101 16.9498C24.0419 16.9498 24.0724 16.9625 24.0949 16.985C24.1174 17.0075 24.1301 17.038 24.1301 17.0698C24.1301 17.1017 24.1174 17.1322 24.0949 17.1547C24.0724 17.1772 24.0419 17.1898 24.0101 17.1898ZM24.0101 16.6298C23.9783 16.6298 23.9477 16.6172 23.9252 16.5947C23.9027 16.5722 23.8901 16.5417 23.8901 16.5098C23.8901 16.478 23.9027 16.4475 23.9252 16.425C23.9477 16.4025 23.9783 16.3898 24.0101 16.3898C24.0419 16.3898 24.0724 16.4025 24.0949 16.425C24.1174 16.4475 24.1301 16.478 24.1301 16.5098C24.1301 16.5417 24.1174 16.5722 24.0949 16.5947C24.0724 16.6172 24.0419 16.6298 24.0101 16.6298V16.6298ZM24.0101 16.0698C23.9783 16.0698 23.9477 16.0572 23.9252 16.0347C23.9027 16.0122 23.8901 15.9817 23.8901 15.9498C23.8901 15.918 23.9027 15.8875 23.9252 15.865C23.9477 15.8425 23.9783 15.8298 24.0101 15.8298C24.0419 15.8298 24.0724 15.8425 24.0949 15.865C24.1174 15.8875 24.1301 15.918 24.1301 15.9498C24.1301 15.9817 24.1174 16.0122 24.0949 16.0347C24.0724 16.0572 24.0419 16.0698 24.0101 16.0698V16.0698ZM24.0101 15.5098C23.9783 15.5098 23.9477 15.4972 23.9252 15.4747C23.9027 15.4522 23.8901 15.4217 23.8901 15.3898C23.8901 15.358 23.9027 15.3275 23.9252 15.305C23.9477 15.2825 23.9783 15.2698 24.0101 15.2698C24.0419 15.2698 24.0724 15.2825 24.0949 15.305C24.1174 15.3275 24.1301 15.358 24.1301 15.3898C24.1301 15.4217 24.1174 15.4522 24.0949 15.4747C24.0724 15.4972 24.0419 15.5098 24.0101 15.5098V15.5098ZM24.0101 14.9398C23.9853 14.9324 23.9636 14.9173 23.9481 14.8965C23.9327 14.8758 23.9244 14.8507 23.9244 14.8248C23.9244 14.799 23.9327 14.7738 23.9481 14.7531C23.9636 14.7324 23.9853 14.7172 24.0101 14.7098C24.0348 14.7172 24.0566 14.7324 24.072 14.7531C24.0875 14.7738 24.0958 14.799 24.0958 14.8248C24.0958 14.8507 24.0875 14.8758 24.072 14.8965C24.0566 14.9173 24.0348 14.9324 24.0101 14.9398ZM24.0101 14.3798C23.9853 14.3724 23.9636 14.3573 23.9481 14.3365C23.9327 14.3158 23.9244 14.2907 23.9244 14.2648C23.9244 14.239 23.9327 14.2138 23.9481 14.1931C23.9636 14.1724 23.9853 14.1572 24.0101 14.1498C24.0348 14.1572 24.0566 14.1724 24.072 14.1931C24.0875 14.2138 24.0958 14.239 24.0958 14.2648C24.0958 14.2907 24.0875 14.3158 24.072 14.3365C24.0566 14.3573 24.0348 14.3724 24.0101 14.3798V14.3798ZM24.0101 13.8198C23.9783 13.8198 23.9477 13.8072 23.9252 13.7847C23.9027 13.7622 23.8901 13.7317 23.8901 13.6998C23.8901 13.668 23.9027 13.6375 23.9252 13.615C23.9477 13.5925 23.9783 13.5798 24.0101 13.5798C24.0419 13.5798 24.0724 13.5925 24.0949 13.615C24.1174 13.6375 24.1301 13.668 24.1301 13.6998C24.1301 13.7317 24.1174 13.7622 24.0949 13.7847C24.0724 13.8072 24.0419 13.8198 24.0101 13.8198V13.8198ZM24.0101 13.2598C23.9783 13.2598 23.9477 13.2472 23.9252 13.2247C23.9027 13.2022 23.8901 13.1717 23.8901 13.1398C23.8901 13.108 23.9027 13.0775 23.9252 13.055C23.9477 13.0325 23.9783 13.0198 24.0101 13.0198C24.0419 13.0198 24.0724 13.0325 24.0949 13.055C24.1174 13.0775 24.1301 13.108 24.1301 13.1398C24.1301 13.1717 24.1174 13.2022 24.0949 13.2247C24.0724 13.2472 24.0419 13.2598 24.0101 13.2598V13.2598ZM24.0101 12.6998C23.9783 12.6998 23.9477 12.6872 23.9252 12.6647C23.9027 12.6422 23.8901 12.6117 23.8901 12.5798C23.8901 12.548 23.9027 12.5175 23.9252 12.495C23.9477 12.4725 23.9783 12.4598 24.0101 12.4598C24.0419 12.4598 24.0724 12.4725 24.0949 12.495C24.1174 12.5175 24.1301 12.548 24.1301 12.5798C24.1301 12.6117 24.1174 12.6422 24.0949 12.6647C24.0724 12.6872 24.0419 12.6998 24.0101 12.6998V12.6998ZM24.0101 12.1298C23.9853 12.1224 23.9636 12.1073 23.9481 12.0865C23.9327 12.0658 23.9244 12.0407 23.9244 12.0148C23.9244 11.989 23.9327 11.9638 23.9481 11.9431C23.9636 11.9224 23.9853 11.9072 24.0101 11.8998C24.0348 11.9072 24.0566 11.9224 24.072 11.9431C24.0875 11.9638 24.0958 11.989 24.0958 12.0148C24.0958 12.0407 24.0875 12.0658 24.072 12.0865C24.0566 12.1073 24.0348 12.1224 24.0101 12.1298ZM24.0101 11.5698C23.9853 11.5624 23.9636 11.5473 23.9481 11.5265C23.9327 11.5058 23.9244 11.4807 23.9244 11.4548C23.9244 11.429 23.9327 11.4038 23.9481 11.3831C23.9636 11.3624 23.9853 11.3472 24.0101 11.3398C24.0348 11.3472 24.0566 11.3624 24.072 11.3831C24.0875 11.4038 24.0958 11.429 24.0958 11.4548C24.0958 11.4807 24.0875 11.5058 24.072 11.5265C24.0566 11.5473 24.0348 11.5624 24.0101 11.5698V11.5698ZM24.0101 11.0098C23.9853 11.0024 23.9636 10.9873 23.9481 10.9665C23.9327 10.9458 23.9244 10.9207 23.9244 10.8948C23.9244 10.869 23.9327 10.8438 23.9481 10.8231C23.9636 10.8024 23.9853 10.7872 24.0101 10.7798C24.0348 10.7872 24.0566 10.8024 24.072 10.8231C24.0875 10.8438 24.0958 10.869 24.0958 10.8948C24.0958 10.9207 24.0875 10.9458 24.072 10.9665C24.0566 10.9873 24.0348 11.0024 24.0101 11.0098ZM24.0101 10.4498C23.9783 10.4498 23.9477 10.4372 23.9252 10.4147C23.9027 10.3922 23.8901 10.3617 23.8901 10.3298C23.8901 10.298 23.9027 10.2675 23.9252 10.245C23.9477 10.2225 23.9783 10.2098 24.0101 10.2098C24.0419 10.2098 24.0724 10.2225 24.0949 10.245C24.1174 10.2675 24.1301 10.298 24.1301 10.3298C24.1301 10.3617 24.1174 10.3922 24.0949 10.4147C24.0724 10.4372 24.0419 10.4498 24.0101 10.4498V10.4498ZM24.0101 9.88983C23.9783 9.88983 23.9477 9.87719 23.9252 9.85468C23.9027 9.83218 23.8901 9.80166 23.8901 9.76983C23.8901 9.738 23.9027 9.70748 23.9252 9.68498C23.9477 9.66247 23.9783 9.64983 24.0101 9.64983C24.0419 9.64983 24.0724 9.66247 24.0949 9.68498C24.1174 9.70748 24.1301 9.738 24.1301 9.76983C24.1301 9.80166 24.1174 9.83218 24.0949 9.85468C24.0724 9.87719 24.0419 9.88983 24.0101 9.88983V9.88983ZM24.0101 9.32983C23.9783 9.32983 23.9477 9.31719 23.9252 9.29468C23.9027 9.27218 23.8901 9.24165 23.8901 9.20983C23.8901 9.178 23.9027 9.14748 23.9252 9.12498C23.9477 9.10247 23.9783 9.08983 24.0101 9.08983C24.0419 9.08983 24.0724 9.10247 24.0949 9.12498C24.1174 9.14748 24.1301 9.178 24.1301 9.20983C24.1301 9.24165 24.1174 9.27218 24.0949 9.29468C24.0724 9.31719 24.0419 9.32983 24.0101 9.32983V9.32983ZM24.0101 8.75983C23.9853 8.75245 23.9636 8.73727 23.9481 8.71655C23.9327 8.69583 23.9244 8.67067 23.9244 8.64483C23.9244 8.61899 23.9327 8.59383 23.9481 8.57311C23.9636 8.55239 23.9853 8.53721 24.0101 8.52983C24.0348 8.53721 24.0566 8.55239 24.072 8.57311C24.0875 8.59383 24.0958 8.61899 24.0958 8.64483C24.0958 8.67067 24.0875 8.69583 24.072 8.71655C24.0566 8.73727 24.0348 8.75245 24.0101 8.75983V8.75983ZM24.0101 8.19983C23.9853 8.19245 23.9636 8.17727 23.9481 8.15655C23.9327 8.13583 23.9244 8.11067 23.9244 8.08483C23.9244 8.05899 23.9327 8.03383 23.9481 8.01311C23.9636 7.99239 23.9853 7.97721 24.0101 7.96983C24.0348 7.97721 24.0566 7.99239 24.072 8.01311C24.0875 8.03383 24.0958 8.05899 24.0958 8.08483C24.0958 8.11067 24.0875 8.13583 24.072 8.15655C24.0566 8.17727 24.0348 8.19245 24.0101 8.19983ZM24.0101 7.63983C23.9783 7.63983 23.9477 7.62719 23.9252 7.60468C23.9027 7.58218 23.8901 7.55165 23.8901 7.51983C23.8901 7.488 23.9027 7.45748 23.9252 7.43498C23.9477 7.41247 23.9783 7.39983 24.0101 7.39983C24.0419 7.39983 24.0724 7.41247 24.0949 7.43498C24.1174 7.45748 24.1301 7.488 24.1301 7.51983C24.1301 7.55165 24.1174 7.58218 24.0949 7.60468C24.0724 7.62719 24.0419 7.63983 24.0101 7.63983V7.63983ZM24.0101 7.07983C23.9783 7.07983 23.9477 7.06719 23.9252 7.04468C23.9027 7.02218 23.8901 6.99165 23.8901 6.95983C23.8901 6.928 23.9027 6.89748 23.9252 6.87498C23.9477 6.85247 23.9783 6.83983 24.0101 6.83983C24.0419 6.83983 24.0724 6.85247 24.0949 6.87498C24.1174 6.89748 24.1301 6.928 24.1301 6.95983C24.1301 6.99165 24.1174 7.02218 24.0949 7.04468C24.0724 7.06719 24.0419 7.07983 24.0101 7.07983V7.07983ZM24.0101 6.51983C23.9783 6.51983 23.9477 6.50719 23.9252 6.48468C23.9027 6.46218 23.8901 6.43165 23.8901 6.39983C23.8901 6.368 23.9027 6.33748 23.9252 6.31498C23.9477 6.29247 23.9783 6.27983 24.0101 6.27983C24.0419 6.27983 24.0724 6.29247 24.0949 6.31498C24.1174 6.33748 24.1301 6.368 24.1301 6.39983C24.1301 6.43165 24.1174 6.46218 24.0949 6.48468C24.0724 6.50719 24.0419 6.51983 24.0101 6.51983V6.51983ZM24.0101 5.95983C23.9783 5.95983 23.9477 5.94719 23.9252 5.92468C23.9027 5.90218 23.8901 5.87165 23.8901 5.83983C23.8901 5.808 23.9027 5.77748 23.9252 5.75498C23.9477 5.73247 23.9783 5.71983 24.0101 5.71983C24.0419 5.71983 24.0724 5.73247 24.0949 5.75498C24.1174 5.77748 24.1301 5.808 24.1301 5.83983C24.1301 5.87165 24.1174 5.90218 24.0949 5.92468C24.0724 5.94719 24.0419 5.95983 24.0101 5.95983V5.95983ZM24.0101 5.38983C23.9853 5.38245 23.9636 5.36727 23.9481 5.34655C23.9327 5.32583 23.9244 5.30067 23.9244 5.27483C23.9244 5.24899 23.9327 5.22383 23.9481 5.20311C23.9636 5.18239 23.9853 5.16721 24.0101 5.15983C24.0348 5.16721 24.0566 5.18239 24.072 5.20311C24.0875 5.22383 24.0958 5.24899 24.0958 5.27483C24.0958 5.30067 24.0875 5.32583 24.072 5.34655C24.0566 5.36727 24.0348 5.38245 24.0101 5.38983ZM24.9501 10.4098L26.8501 8.50983C27.0306 8.35757 27.2618 8.27884 27.4977 8.28928C27.7336 8.29972 27.957 8.39858 28.1233 8.56619C28.2897 8.73381 28.3868 8.95789 28.3955 9.19388C28.4042 9.42987 28.3237 9.66047 28.1701 9.83983L26.2701 11.7398C26.0896 11.8921 25.8584 11.9708 25.6224 11.9604C25.3865 11.9499 25.1632 11.8511 24.9968 11.6835C24.8305 11.5159 24.7333 11.2918 24.7246 11.0558C24.716 10.8198 24.7965 10.5892 24.9501 10.4098V10.4098ZM24.9701 14.4098L26.8701 12.5198C27.0506 12.3676 27.2818 12.2888 27.5177 12.2993C27.7536 12.3097 27.977 12.4086 28.1433 12.5762C28.3097 12.7438 28.4068 12.9679 28.4155 13.2039C28.4242 13.4399 28.3437 13.6705 28.1901 13.8498L26.2901 15.7498C26.1096 15.9021 25.8784 15.9808 25.6424 15.9704C25.4065 15.9599 25.1832 15.8611 25.0168 15.6935C24.8505 15.5259 24.7533 15.3018 24.7446 15.0658C24.736 14.8298 24.8165 14.5992 24.9701 14.4198V14.4098ZM24.9901 18.4298L26.8901 16.5298C27.0664 16.3535 27.3057 16.2544 27.5551 16.2544C27.8045 16.2544 28.0437 16.3535 28.2201 16.5298C28.3964 16.7062 28.4955 16.9454 28.4955 17.1948C28.4955 17.4443 28.3964 17.6835 28.2201 17.8598L26.3201 19.7598C26.1437 19.9362 25.9045 20.0353 25.6551 20.0353C25.4057 20.0353 25.1664 19.9362 24.9901 19.7598C24.8137 19.5835 24.7146 19.3443 24.7146 19.0948C24.7146 18.8454 24.8137 18.6062 24.9901 18.4298ZM25.0201 22.4298L26.9201 20.5398C27.1006 20.3876 27.3318 20.3088 27.5677 20.3193C27.8036 20.3297 28.027 20.4286 28.1933 20.5962C28.3597 20.7638 28.4568 20.9879 28.4655 21.2239C28.4742 21.4599 28.3937 21.6905 28.2401 21.8698L26.3401 23.7698C26.1596 23.9221 25.9284 24.0008 25.6924 23.9904C25.4565 23.9799 25.2332 23.8811 25.0668 23.7135C24.9005 23.5459 24.8033 23.3218 24.7946 23.0858C24.786 22.8498 24.8665 22.6192 25.0201 22.4398V22.4298ZM25.0401 26.4498L26.9401 24.5498C27.1206 24.3976 27.3518 24.3188 27.5877 24.3293C27.8236 24.3397 28.047 24.4386 28.2133 24.6062C28.3797 24.7738 28.4768 24.9979 28.4855 25.2339C28.4942 25.4699 28.4137 25.7005 28.2601 25.8798L26.3601 27.7798C26.1796 27.9321 25.9484 28.0108 25.7124 28.0004C25.4765 27.9899 25.2532 27.8911 25.0868 27.7235C24.9205 27.5559 24.8233 27.3318 24.8146 27.0958C24.806 26.8598 24.8865 26.6292 25.0401 26.4498V26.4498ZM25.0601 30.4498L26.9601 28.5498C27.1364 28.3735 27.3757 28.2744 27.6251 28.2744C27.8745 28.2744 28.1137 28.3735 28.2901 28.5498C28.4664 28.7262 28.5655 28.9654 28.5655 29.2148C28.5655 29.4643 28.4664 29.7035 28.2901 29.8798L26.3901 31.7798C26.2137 31.9562 25.9745 32.0553 25.7251 32.0553C25.4757 32.0553 25.2364 31.9562 25.0601 31.7798C24.8837 31.6035 24.7846 31.3643 24.7846 31.1148C24.7846 30.8654 24.8837 30.6262 25.0601 30.4498V30.4498ZM25.0901 34.4598L26.9901 32.5598C27.1706 32.4076 27.4018 32.3288 27.6377 32.3393C27.8736 32.3497 28.097 32.4486 28.2633 32.6162C28.4297 32.7838 28.5268 33.0079 28.5355 33.2439C28.5442 33.4799 28.4637 33.7105 28.3101 33.8898L26.4101 35.7898C26.2296 35.9421 25.9984 36.0208 25.7624 36.0104C25.5265 35.9999 25.3032 35.9011 25.1368 35.7335C24.9705 35.5659 24.8733 35.3418 24.8646 35.1058C24.856 34.8698 24.9365 34.6392 25.0901 34.4598V34.4598ZM28.3301 37.8998L26.4301 39.7998C26.2496 39.9521 26.0184 40.0308 25.7824 40.0204C25.5465 40.0099 25.3232 39.9111 25.1568 39.7435C24.9905 39.5759 24.8933 39.3518 24.8846 39.1158C24.876 38.8798 24.9565 38.6492 25.1101 38.4698L27.0101 36.5698C27.1906 36.4176 27.4218 36.3388 27.6577 36.3493C27.8936 36.3597 28.117 36.4586 28.2833 36.6262C28.4497 36.7938 28.5468 37.0179 28.5555 37.2539C28.5642 37.4899 28.4837 37.7205 28.3301 37.8998V37.8998ZM29.1301 43.0298C29.0983 43.0298 29.0677 43.0172 29.0452 42.9947C29.0227 42.9722 29.0101 42.9417 29.0101 42.9098C29.0101 42.878 29.0227 42.8475 29.0452 42.825C29.0677 42.8025 29.0983 42.7898 29.1301 42.7898C29.1619 42.7898 29.1924 42.8025 29.2149 42.825C29.2374 42.8475 29.2501 42.878 29.2501 42.9098C29.2501 42.9417 29.2374 42.9722 29.2149 42.9947C29.1924 43.0172 29.1619 43.0298 29.1301 43.0298V43.0298ZM29.1301 42.4698C29.0983 42.4698 29.0677 42.4572 29.0452 42.4347C29.0227 42.4122 29.0101 42.3817 29.0101 42.3498C29.0101 42.318 29.0227 42.2875 29.0452 42.265C29.0677 42.2425 29.0983 42.2298 29.1301 42.2298C29.1619 42.2298 29.1924 42.2425 29.2149 42.265C29.2374 42.2875 29.2501 42.318 29.2501 42.3498C29.2501 42.3817 29.2374 42.4122 29.2149 42.4347C29.1924 42.4572 29.1619 42.4698 29.1301 42.4698V42.4698ZM29.1301 41.9098C29.0983 41.9098 29.0677 41.8972 29.0452 41.8747C29.0227 41.8522 29.0101 41.8217 29.0101 41.7898C29.0101 41.758 29.0227 41.7275 29.0452 41.705C29.0677 41.6825 29.0983 41.6698 29.1301 41.6698C29.1619 41.6698 29.1924 41.6825 29.2149 41.705C29.2374 41.7275 29.2501 41.758 29.2501 41.7898C29.2501 41.8217 29.2374 41.8522 29.2149 41.8747C29.1924 41.8972 29.1619 41.9098 29.1301 41.9098V41.9098ZM29.1301 41.3398C29.1053 41.3324 29.0836 41.3173 29.0681 41.2965C29.0527 41.2758 29.0444 41.2507 29.0444 41.2248C29.0444 41.199 29.0527 41.1738 29.0681 41.1531C29.0836 41.1324 29.1053 41.1172 29.1301 41.1098C29.1548 41.1172 29.1766 41.1324 29.192 41.1531C29.2075 41.1738 29.2158 41.199 29.2158 41.2248C29.2158 41.2507 29.2075 41.2758 29.192 41.2965C29.1766 41.3173 29.1548 41.3324 29.1301 41.3398V41.3398ZM29.1301 40.7798C29.1053 40.7724 29.0836 40.7573 29.0681 40.7365C29.0527 40.7158 29.0444 40.6907 29.0444 40.6648C29.0444 40.639 29.0527 40.6138 29.0681 40.5931C29.0836 40.5724 29.1053 40.5572 29.1301 40.5498C29.1548 40.5572 29.1766 40.5724 29.192 40.5931C29.2075 40.6138 29.2158 40.639 29.2158 40.6648C29.2158 40.6907 29.2075 40.7158 29.192 40.7365C29.1766 40.7573 29.1548 40.7724 29.1301 40.7798V40.7798ZM29.1301 40.2198C29.0983 40.2198 29.0677 40.2072 29.0452 40.1847C29.0227 40.1622 29.0101 40.1317 29.0101 40.0998C29.0101 40.068 29.0227 40.0375 29.0452 40.015C29.0677 39.9925 29.0983 39.9798 29.1301 39.9798C29.1619 39.9798 29.1924 39.9925 29.2149 40.015C29.2374 40.0375 29.2501 40.068 29.2501 40.0998C29.2501 40.1317 29.2374 40.1622 29.2149 40.1847C29.1924 40.2072 29.1619 40.2198 29.1301 40.2198V40.2198ZM29.1301 39.6598C29.0983 39.6598 29.0677 39.6472 29.0452 39.6247C29.0227 39.6022 29.0101 39.5717 29.0101 39.5398C29.0101 39.508 29.0227 39.4775 29.0452 39.455C29.0677 39.4325 29.0983 39.4198 29.1301 39.4198C29.1619 39.4198 29.1924 39.4325 29.2149 39.455C29.2374 39.4775 29.2501 39.508 29.2501 39.5398C29.2501 39.5717 29.2374 39.6022 29.2149 39.6247C29.1924 39.6472 29.1619 39.6598 29.1301 39.6598V39.6598ZM29.1301 39.0998C29.0983 39.0998 29.0677 39.0872 29.0452 39.0647C29.0227 39.0422 29.0101 39.0117 29.0101 38.9798C29.0101 38.948 29.0227 38.9175 29.0452 38.895C29.0677 38.8725 29.0983 38.8598 29.1301 38.8598C29.1619 38.8598 29.1924 38.8725 29.2149 38.895C29.2374 38.9175 29.2501 38.948 29.2501 38.9798C29.2501 39.0117 29.2374 39.0422 29.2149 39.0647C29.1924 39.0872 29.1619 39.0998 29.1301 39.0998V39.0998ZM29.1301 38.5398C29.0983 38.5398 29.0677 38.5272 29.0452 38.5047C29.0227 38.4822 29.0101 38.4517 29.0101 38.4198C29.0101 38.388 29.0227 38.3575 29.0452 38.335C29.0677 38.3125 29.0983 38.2998 29.1301 38.2998C29.1619 38.2998 29.1924 38.3125 29.2149 38.335C29.2374 38.3575 29.2501 38.388 29.2501 38.4198C29.2501 38.4517 29.2374 38.4822 29.2149 38.5047C29.1924 38.5272 29.1619 38.5398 29.1301 38.5398V38.5398ZM29.1301 37.9698C29.1053 37.9624 29.0836 37.9473 29.0681 37.9265C29.0527 37.9058 29.0444 37.8807 29.0444 37.8548C29.0444 37.829 29.0527 37.8038 29.0681 37.7831C29.0836 37.7624 29.1053 37.7472 29.1301 37.7398C29.1548 37.7472 29.1766 37.7624 29.192 37.7831C29.2075 37.8038 29.2158 37.829 29.2158 37.8548C29.2158 37.8807 29.2075 37.9058 29.192 37.9265C29.1766 37.9473 29.1548 37.9624 29.1301 37.9698V37.9698ZM29.1301 37.4098C29.1053 37.4024 29.0836 37.3873 29.0681 37.3665C29.0527 37.3458 29.0444 37.3207 29.0444 37.2948C29.0444 37.269 29.0527 37.2438 29.0681 37.2231C29.0836 37.2024 29.1053 37.1872 29.1301 37.1798C29.1548 37.1872 29.1766 37.2024 29.192 37.2231C29.2075 37.2438 29.2158 37.269 29.2158 37.2948C29.2158 37.3207 29.2075 37.3458 29.192 37.3665C29.1766 37.3873 29.1548 37.4024 29.1301 37.4098V37.4098ZM29.1301 36.8498C29.0983 36.8498 29.0677 36.8372 29.0452 36.8147C29.0227 36.7922 29.0101 36.7617 29.0101 36.7298C29.0101 36.698 29.0227 36.6675 29.0452 36.645C29.0677 36.6225 29.0983 36.6098 29.1301 36.6098C29.1619 36.6098 29.1924 36.6225 29.2149 36.645C29.2374 36.6675 29.2501 36.698 29.2501 36.7298C29.2501 36.7617 29.2374 36.7922 29.2149 36.8147C29.1924 36.8372 29.1619 36.8498 29.1301 36.8498V36.8498ZM29.1301 36.2898C29.0983 36.2898 29.0677 36.2772 29.0452 36.2547C29.0227 36.2322 29.0101 36.2017 29.0101 36.1698C29.0101 36.138 29.0227 36.1075 29.0452 36.085C29.0677 36.0625 29.0983 36.0498 29.1301 36.0498C29.1619 36.0498 29.1924 36.0625 29.2149 36.085C29.2374 36.1075 29.2501 36.138 29.2501 36.1698C29.2501 36.2017 29.2374 36.2322 29.2149 36.2547C29.1924 36.2772 29.1619 36.2898 29.1301 36.2898V36.2898ZM29.1301 35.7298C29.0983 35.7298 29.0677 35.7172 29.0452 35.6947C29.0227 35.6722 29.0101 35.6417 29.0101 35.6098C29.0101 35.578 29.0227 35.5475 29.0452 35.525C29.0677 35.5025 29.0983 35.4898 29.1301 35.4898C29.1619 35.4898 29.1924 35.5025 29.2149 35.525C29.2374 35.5475 29.2501 35.578 29.2501 35.6098C29.2501 35.6417 29.2374 35.6722 29.2149 35.6947C29.1924 35.7172 29.1619 35.7298 29.1301 35.7298V35.7298ZM29.1301 35.1698C29.0983 35.1698 29.0677 35.1572 29.0452 35.1347C29.0227 35.1122 29.0101 35.0817 29.0101 35.0498C29.0101 35.018 29.0227 34.9875 29.0452 34.965C29.0677 34.9425 29.0983 34.9298 29.1301 34.9298C29.1619 34.9298 29.1924 34.9425 29.2149 34.965C29.2374 34.9875 29.2501 35.018 29.2501 35.0498C29.2501 35.0817 29.2374 35.1122 29.2149 35.1347C29.1924 35.1572 29.1619 35.1698 29.1301 35.1698V35.1698ZM29.1301 34.5998C29.1053 34.5924 29.0836 34.5773 29.0681 34.5565C29.0527 34.5358 29.0444 34.5107 29.0444 34.4848C29.0444 34.459 29.0527 34.4338 29.0681 34.4131C29.0836 34.3924 29.1053 34.3772 29.1301 34.3698C29.1548 34.3772 29.1766 34.3924 29.192 34.4131C29.2075 34.4338 29.2158 34.459 29.2158 34.4848C29.2158 34.5107 29.2075 34.5358 29.192 34.5565C29.1766 34.5773 29.1548 34.5924 29.1301 34.5998V34.5998ZM29.1301 34.0398C29.1053 34.0324 29.0836 34.0173 29.0681 33.9965C29.0527 33.9758 29.0444 33.9507 29.0444 33.9248C29.0444 33.899 29.0527 33.8738 29.0681 33.8531C29.0836 33.8324 29.1053 33.8172 29.1301 33.8098C29.1548 33.8172 29.1766 33.8324 29.192 33.8531C29.2075 33.8738 29.2158 33.899 29.2158 33.9248C29.2158 33.9507 29.2075 33.9758 29.192 33.9965C29.1766 34.0173 29.1548 34.0324 29.1301 34.0398V34.0398ZM29.1301 33.4798C29.0983 33.4798 29.0677 33.4672 29.0452 33.4447C29.0227 33.4222 29.0101 33.3917 29.0101 33.3598C29.0101 33.328 29.0227 33.2975 29.0452 33.275C29.0677 33.2525 29.0983 33.2398 29.1301 33.2398C29.1619 33.2398 29.1924 33.2525 29.2149 33.275C29.2374 33.2975 29.2501 33.328 29.2501 33.3598C29.2501 33.3917 29.2374 33.4222 29.2149 33.4447C29.1924 33.4672 29.1619 33.4798 29.1301 33.4798V33.4798ZM29.1301 32.9198C29.0983 32.9198 29.0677 32.9072 29.0452 32.8847C29.0227 32.8622 29.0101 32.8317 29.0101 32.7998C29.0101 32.768 29.0227 32.7375 29.0452 32.715C29.0677 32.6925 29.0983 32.6798 29.1301 32.6798C29.1619 32.6798 29.1924 32.6925 29.2149 32.715C29.2374 32.7375 29.2501 32.768 29.2501 32.7998C29.2501 32.8317 29.2374 32.8622 29.2149 32.8847C29.1924 32.9072 29.1619 32.9198 29.1301 32.9198V32.9198ZM29.1301 32.3598C29.0983 32.3598 29.0677 32.3472 29.0452 32.3247C29.0227 32.3022 29.0101 32.2717 29.0101 32.2398C29.0101 32.208 29.0227 32.1775 29.0452 32.155C29.0677 32.1325 29.0983 32.1198 29.1301 32.1198C29.1619 32.1198 29.1924 32.1325 29.2149 32.155C29.2374 32.1775 29.2501 32.208 29.2501 32.2398C29.2501 32.2717 29.2374 32.3022 29.2149 32.3247C29.1924 32.3472 29.1619 32.3598 29.1301 32.3598V32.3598ZM29.1301 31.7898C29.1053 31.7824 29.0836 31.7673 29.0681 31.7465C29.0527 31.7258 29.0444 31.7007 29.0444 31.6748C29.0444 31.649 29.0527 31.6238 29.0681 31.6031C29.0836 31.5824 29.1053 31.5672 29.1301 31.5598C29.1548 31.5672 29.1766 31.5824 29.192 31.6031C29.2075 31.6238 29.2158 31.649 29.2158 31.6748C29.2158 31.7007 29.2075 31.7258 29.192 31.7465C29.1766 31.7673 29.1548 31.7824 29.1301 31.7898V31.7898ZM29.1301 31.2298C29.1053 31.2224 29.0836 31.2073 29.0681 31.1865C29.0527 31.1658 29.0444 31.1407 29.0444 31.1148C29.0444 31.089 29.0527 31.0638 29.0681 31.0431C29.0836 31.0224 29.1053 31.0072 29.1301 30.9998C29.1548 31.0072 29.1766 31.0224 29.192 31.0431C29.2075 31.0638 29.2158 31.089 29.2158 31.1148C29.2158 31.1407 29.2075 31.1658 29.192 31.1865C29.1766 31.2073 29.1548 31.2224 29.1301 31.2298V31.2298ZM29.1301 30.6698C29.1053 30.6624 29.0836 30.6473 29.0681 30.6265C29.0527 30.6058 29.0444 30.5807 29.0444 30.5548C29.0444 30.529 29.0527 30.5038 29.0681 30.4831C29.0836 30.4624 29.1053 30.4472 29.1301 30.4398C29.1548 30.4472 29.1766 30.4624 29.192 30.4831C29.2075 30.5038 29.2158 30.529 29.2158 30.5548C29.2158 30.5807 29.2075 30.6058 29.192 30.6265C29.1766 30.6473 29.1548 30.6624 29.1301 30.6698V30.6698ZM29.1301 30.1098C29.0983 30.1098 29.0677 30.0972 29.0452 30.0747C29.0227 30.0522 29.0101 30.0217 29.0101 29.9898C29.0101 29.958 29.0227 29.9275 29.0452 29.905C29.0677 29.8825 29.0983 29.8698 29.1301 29.8698C29.1619 29.8698 29.1924 29.8825 29.2149 29.905C29.2374 29.9275 29.2501 29.958 29.2501 29.9898C29.2501 30.0217 29.2374 30.0522 29.2149 30.0747C29.1924 30.0972 29.1619 30.1098 29.1301 30.1098V30.1098ZM29.1301 29.5498C29.0983 29.5498 29.0677 29.5372 29.0452 29.5147C29.0227 29.4922 29.0101 29.4617 29.0101 29.4298C29.0101 29.398 29.0227 29.3675 29.0452 29.345C29.0677 29.3225 29.0983 29.3098 29.1301 29.3098C29.1619 29.3098 29.1924 29.3225 29.2149 29.345C29.2374 29.3675 29.2501 29.398 29.2501 29.4298C29.2501 29.4617 29.2374 29.4922 29.2149 29.5147C29.1924 29.5372 29.1619 29.5498 29.1301 29.5498ZM29.1301 28.9898C29.0983 28.9898 29.0677 28.9772 29.0452 28.9547C29.0227 28.9322 29.0101 28.9017 29.0101 28.8698C29.0101 28.838 29.0227 28.8075 29.0452 28.785C29.0677 28.7625 29.0983 28.7498 29.1301 28.7498C29.1619 28.7498 29.1924 28.7625 29.2149 28.785C29.2374 28.8075 29.2501 28.838 29.2501 28.8698C29.2501 28.9017 29.2374 28.9322 29.2149 28.9547C29.1924 28.9772 29.1619 28.9898 29.1301 28.9898V28.9898ZM29.1301 28.4198C29.1053 28.4124 29.0836 28.3973 29.0681 28.3765C29.0527 28.3558 29.0444 28.3307 29.0444 28.3048C29.0444 28.279 29.0527 28.2538 29.0681 28.2331C29.0836 28.2124 29.1053 28.1972 29.1301 28.1898C29.1548 28.1972 29.1766 28.2124 29.192 28.2331C29.2075 28.2538 29.2158 28.279 29.2158 28.3048C29.2158 28.3307 29.2075 28.3558 29.192 28.3765C29.1766 28.3973 29.1548 28.4124 29.1301 28.4198ZM29.1301 27.8598C29.1053 27.8524 29.0836 27.8373 29.0681 27.8165C29.0527 27.7958 29.0444 27.7707 29.0444 27.7448C29.0444 27.719 29.0527 27.6938 29.0681 27.6731C29.0836 27.6524 29.1053 27.6372 29.1301 27.6298C29.1548 27.6372 29.1766 27.6524 29.192 27.6731C29.2075 27.6938 29.2158 27.719 29.2158 27.7448C29.2158 27.7707 29.2075 27.7958 29.192 27.8165C29.1766 27.8373 29.1548 27.8524 29.1301 27.8598V27.8598ZM29.1301 27.2998C29.0983 27.2998 29.0677 27.2872 29.0452 27.2647C29.0227 27.2422 29.0101 27.2117 29.0101 27.1798C29.0101 27.148 29.0227 27.1175 29.0452 27.095C29.0677 27.0725 29.0983 27.0598 29.1301 27.0598C29.1619 27.0598 29.1924 27.0725 29.2149 27.095C29.2374 27.1175 29.2501 27.148 29.2501 27.1798C29.2501 27.2117 29.2374 27.2422 29.2149 27.2647C29.1924 27.2872 29.1619 27.2998 29.1301 27.2998V27.2998ZM29.1301 26.7398C29.0983 26.7398 29.0677 26.7272 29.0452 26.7047C29.0227 26.6822 29.0101 26.6517 29.0101 26.6198C29.0101 26.588 29.0227 26.5575 29.0452 26.535C29.0677 26.5125 29.0983 26.4998 29.1301 26.4998C29.1619 26.4998 29.1924 26.5125 29.2149 26.535C29.2374 26.5575 29.2501 26.588 29.2501 26.6198C29.2501 26.6517 29.2374 26.6822 29.2149 26.7047C29.1924 26.7272 29.1619 26.7398 29.1301 26.7398ZM29.1301 26.1798C29.0983 26.1798 29.0677 26.1672 29.0452 26.1447C29.0227 26.1222 29.0101 26.0917 29.0101 26.0598C29.0101 26.028 29.0227 25.9975 29.0452 25.975C29.0677 25.9525 29.0983 25.9398 29.1301 25.9398C29.1619 25.9398 29.1924 25.9525 29.2149 25.975C29.2374 25.9975 29.2501 26.028 29.2501 26.0598C29.2501 26.0917 29.2374 26.1222 29.2149 26.1447C29.1924 26.1672 29.1619 26.1798 29.1301 26.1798V26.1798ZM29.1301 25.6198C29.0983 25.6198 29.0677 25.6072 29.0452 25.5847C29.0227 25.5622 29.0101 25.5317 29.0101 25.4998C29.0101 25.468 29.0227 25.4375 29.0452 25.415C29.0677 25.3925 29.0983 25.3798 29.1301 25.3798C29.1619 25.3798 29.1924 25.3925 29.2149 25.415C29.2374 25.4375 29.2501 25.468 29.2501 25.4998C29.2501 25.5317 29.2374 25.5622 29.2149 25.5847C29.1924 25.6072 29.1619 25.6198 29.1301 25.6198ZM29.1301 25.0498C29.1053 25.0424 29.0836 25.0273 29.0681 25.0065C29.0527 24.9858 29.0444 24.9607 29.0444 24.9348C29.0444 24.909 29.0527 24.8838 29.0681 24.8631C29.0836 24.8424 29.1053 24.8272 29.1301 24.8198C29.1548 24.8272 29.1766 24.8424 29.192 24.8631C29.2075 24.8838 29.2158 24.909 29.2158 24.9348C29.2158 24.9607 29.2075 24.9858 29.192 25.0065C29.1766 25.0273 29.1548 25.0424 29.1301 25.0498V25.0498ZM29.1301 24.4898C29.1053 24.4824 29.0836 24.4673 29.0681 24.4465C29.0527 24.4258 29.0444 24.4007 29.0444 24.3748C29.0444 24.349 29.0527 24.3238 29.0681 24.3031C29.0836 24.2824 29.1053 24.2672 29.1301 24.2598C29.1548 24.2672 29.1766 24.2824 29.192 24.3031C29.2075 24.3238 29.2158 24.349 29.2158 24.3748C29.2158 24.4007 29.2075 24.4258 29.192 24.4465C29.1766 24.4673 29.1548 24.4824 29.1301 24.4898ZM29.1301 23.9298C29.0983 23.9298 29.0677 23.9172 29.0452 23.8947C29.0227 23.8722 29.0101 23.8417 29.0101 23.8098C29.0101 23.778 29.0227 23.7475 29.0452 23.725C29.0677 23.7025 29.0983 23.6898 29.1301 23.6898C29.1619 23.6898 29.1924 23.7025 29.2149 23.725C29.2374 23.7475 29.2501 23.778 29.2501 23.8098C29.2501 23.8417 29.2374 23.8722 29.2149 23.8947C29.1924 23.9172 29.1619 23.9298 29.1301 23.9298ZM29.1301 23.3698C29.0983 23.3698 29.0677 23.3572 29.0452 23.3347C29.0227 23.3122 29.0101 23.2817 29.0101 23.2498C29.0101 23.218 29.0227 23.1875 29.0452 23.165C29.0677 23.1425 29.0983 23.1298 29.1301 23.1298C29.1619 23.1298 29.1924 23.1425 29.2149 23.165C29.2374 23.1875 29.2501 23.218 29.2501 23.2498C29.2501 23.2817 29.2374 23.3122 29.2149 23.3347C29.1924 23.3572 29.1619 23.3698 29.1301 23.3698V23.3698ZM29.1301 22.8098C29.0983 22.8098 29.0677 22.7972 29.0452 22.7747C29.0227 22.7522 29.0101 22.7217 29.0101 22.6898C29.0101 22.658 29.0227 22.6275 29.0452 22.605C29.0677 22.5825 29.0983 22.5698 29.1301 22.5698C29.1619 22.5698 29.1924 22.5825 29.2149 22.605C29.2374 22.6275 29.2501 22.658 29.2501 22.6898C29.2501 22.7217 29.2374 22.7522 29.2149 22.7747C29.1924 22.7972 29.1619 22.8098 29.1301 22.8098ZM29.1301 22.2398C29.1122 22.2452 29.0933 22.2462 29.0749 22.243C29.0565 22.2397 29.0391 22.2322 29.0241 22.221C29.0091 22.2099 28.9969 22.1954 28.9885 22.1787C28.9802 22.1619 28.9758 22.1435 28.9758 22.1248C28.9758 22.1061 28.9802 22.0877 28.9885 22.071C28.9969 22.0543 29.0091 22.0398 29.0241 22.0286C29.0391 22.0174 29.0565 22.0099 29.0749 22.0067C29.0933 22.0034 29.1122 22.0045 29.1301 22.0098C29.2001 22.0098 29.2601 22.0598 29.2601 22.1298C29.2601 22.1898 29.2001 22.2398 29.1401 22.2398H29.1301ZM29.1301 21.6798C29.1053 21.6724 29.0836 21.6573 29.0681 21.6365C29.0527 21.6158 29.0444 21.5907 29.0444 21.5648C29.0444 21.539 29.0527 21.5138 29.0681 21.4931C29.0836 21.4724 29.1053 21.4572 29.1301 21.4498C29.1548 21.4572 29.1766 21.4724 29.192 21.4931C29.2075 21.5138 29.2158 21.539 29.2158 21.5648C29.2158 21.5907 29.2075 21.6158 29.192 21.6365C29.1766 21.6573 29.1548 21.6724 29.1301 21.6798ZM29.1301 21.1198C29.1053 21.1124 29.0836 21.0973 29.0681 21.0765C29.0527 21.0558 29.0444 21.0307 29.0444 21.0048C29.0444 20.979 29.0527 20.9538 29.0681 20.9331C29.0836 20.9124 29.1053 20.8972 29.1301 20.8898C29.1548 20.8972 29.1766 20.9124 29.192 20.9331C29.2075 20.9538 29.2158 20.979 29.2158 21.0048C29.2158 21.0307 29.2075 21.0558 29.192 21.0765C29.1766 21.0973 29.1548 21.1124 29.1301 21.1198V21.1198ZM29.1301 20.5598C29.0983 20.5598 29.0677 20.5472 29.0452 20.5247C29.0227 20.5022 29.0101 20.4717 29.0101 20.4398C29.0101 20.408 29.0227 20.3775 29.0452 20.355C29.0677 20.3325 29.0983 20.3198 29.1301 20.3198C29.1619 20.3198 29.1924 20.3325 29.2149 20.355C29.2374 20.3775 29.2501 20.408 29.2501 20.4398C29.2501 20.4717 29.2374 20.5022 29.2149 20.5247C29.1924 20.5472 29.1619 20.5598 29.1301 20.5598V20.5598ZM29.1301 19.9998C29.0983 19.9998 29.0677 19.9872 29.0452 19.9647C29.0227 19.9422 29.0101 19.9117 29.0101 19.8798C29.0101 19.848 29.0227 19.8175 29.0452 19.795C29.0677 19.7725 29.0983 19.7598 29.1301 19.7598C29.1619 19.7598 29.1924 19.7725 29.2149 19.795C29.2374 19.8175 29.2501 19.848 29.2501 19.8798C29.2501 19.9117 29.2374 19.9422 29.2149 19.9647C29.1924 19.9872 29.1619 19.9998 29.1301 19.9998ZM29.1301 19.4398C29.0983 19.4398 29.0677 19.4272 29.0452 19.4047C29.0227 19.3822 29.0101 19.3517 29.0101 19.3198C29.0101 19.288 29.0227 19.2575 29.0452 19.235C29.0677 19.2125 29.0983 19.1998 29.1301 19.1998C29.1619 19.1998 29.1924 19.2125 29.2149 19.235C29.2374 19.2575 29.2501 19.288 29.2501 19.3198C29.2501 19.3517 29.2374 19.3822 29.2149 19.4047C29.1924 19.4272 29.1619 19.4398 29.1301 19.4398V19.4398ZM29.1301 18.8698C29.1053 18.8624 29.0836 18.8473 29.0681 18.8265C29.0527 18.8058 29.0444 18.7807 29.0444 18.7548C29.0444 18.729 29.0527 18.7038 29.0681 18.6831C29.0836 18.6624 29.1053 18.6472 29.1301 18.6398C29.1548 18.6472 29.1766 18.6624 29.192 18.6831C29.2075 18.7038 29.2158 18.729 29.2158 18.7548C29.2158 18.7807 29.2075 18.8058 29.192 18.8265C29.1766 18.8473 29.1548 18.8624 29.1301 18.8698ZM29.1301 18.3098C29.1053 18.3024 29.0836 18.2873 29.0681 18.2665C29.0527 18.2458 29.0444 18.2207 29.0444 18.1948C29.0444 18.169 29.0527 18.1438 29.0681 18.1231C29.0836 18.1024 29.1053 18.0872 29.1301 18.0798C29.1548 18.0872 29.1766 18.1024 29.192 18.1231C29.2075 18.1438 29.2158 18.169 29.2158 18.1948C29.2158 18.2207 29.2075 18.2458 29.192 18.2665C29.1766 18.2873 29.1548 18.3024 29.1301 18.3098V18.3098ZM29.1301 17.7498C29.0983 17.7498 29.0677 17.7372 29.0452 17.7147C29.0227 17.6922 29.0101 17.6617 29.0101 17.6298C29.0101 17.598 29.0227 17.5675 29.0452 17.545C29.0677 17.5225 29.0983 17.5098 29.1301 17.5098C29.1619 17.5098 29.1924 17.5225 29.2149 17.545C29.2374 17.5675 29.2501 17.598 29.2501 17.6298C29.2501 17.6617 29.2374 17.6922 29.2149 17.7147C29.1924 17.7372 29.1619 17.7498 29.1301 17.7498V17.7498ZM29.1301 17.1898C29.0983 17.1898 29.0677 17.1772 29.0452 17.1547C29.0227 17.1322 29.0101 17.1017 29.0101 17.0698C29.0101 17.038 29.0227 17.0075 29.0452 16.985C29.0677 16.9625 29.0983 16.9498 29.1301 16.9498C29.1619 16.9498 29.1924 16.9625 29.2149 16.985C29.2374 17.0075 29.2501 17.038 29.2501 17.0698C29.2501 17.1017 29.2374 17.1322 29.2149 17.1547C29.1924 17.1772 29.1619 17.1898 29.1301 17.1898ZM29.1301 16.6298C29.0983 16.6298 29.0677 16.6172 29.0452 16.5947C29.0227 16.5722 29.0101 16.5417 29.0101 16.5098C29.0101 16.478 29.0227 16.4475 29.0452 16.425C29.0677 16.4025 29.0983 16.3898 29.1301 16.3898C29.1619 16.3898 29.1924 16.4025 29.2149 16.425C29.2374 16.4475 29.2501 16.478 29.2501 16.5098C29.2501 16.5417 29.2374 16.5722 29.2149 16.5947C29.1924 16.6172 29.1619 16.6298 29.1301 16.6298V16.6298ZM29.1301 16.0698C29.0983 16.0698 29.0677 16.0572 29.0452 16.0347C29.0227 16.0122 29.0101 15.9817 29.0101 15.9498C29.0101 15.918 29.0227 15.8875 29.0452 15.865C29.0677 15.8425 29.0983 15.8298 29.1301 15.8298C29.1619 15.8298 29.1924 15.8425 29.2149 15.865C29.2374 15.8875 29.2501 15.918 29.2501 15.9498C29.2501 15.9817 29.2374 16.0122 29.2149 16.0347C29.1924 16.0572 29.1619 16.0698 29.1301 16.0698V16.0698ZM29.1301 15.4998C29.1053 15.4924 29.0836 15.4773 29.0681 15.4565C29.0527 15.4358 29.0444 15.4107 29.0444 15.3848C29.0444 15.359 29.0527 15.3338 29.0681 15.3131C29.0836 15.2924 29.1053 15.2772 29.1301 15.2698C29.1548 15.2772 29.1766 15.2924 29.192 15.3131C29.2075 15.3338 29.2158 15.359 29.2158 15.3848C29.2158 15.4107 29.2075 15.4358 29.192 15.4565C29.1766 15.4773 29.1548 15.4924 29.1301 15.4998V15.4998ZM29.1301 14.9398C29.1053 14.9324 29.0836 14.9173 29.0681 14.8965C29.0527 14.8758 29.0444 14.8507 29.0444 14.8248C29.0444 14.799 29.0527 14.7738 29.0681 14.7531C29.0836 14.7324 29.1053 14.7172 29.1301 14.7098C29.1548 14.7172 29.1766 14.7324 29.192 14.7531C29.2075 14.7738 29.2158 14.799 29.2158 14.8248C29.2158 14.8507 29.2075 14.8758 29.192 14.8965C29.1766 14.9173 29.1548 14.9324 29.1301 14.9398V14.9398ZM29.1301 14.3798C29.0983 14.3798 29.0677 14.3672 29.0452 14.3447C29.0227 14.3222 29.0101 14.2917 29.0101 14.2598C29.0101 14.228 29.0227 14.1975 29.0452 14.175C29.0677 14.1525 29.0983 14.1398 29.1301 14.1398C29.1619 14.1398 29.1924 14.1525 29.2149 14.175C29.2374 14.1975 29.2501 14.228 29.2501 14.2598C29.2501 14.2917 29.2374 14.3222 29.2149 14.3447C29.1924 14.3672 29.1619 14.3798 29.1301 14.3798V14.3798ZM29.1301 13.8198C29.0983 13.8198 29.0677 13.8072 29.0452 13.7847C29.0227 13.7622 29.0101 13.7317 29.0101 13.6998C29.0101 13.668 29.0227 13.6375 29.0452 13.615C29.0677 13.5925 29.0983 13.5798 29.1301 13.5798C29.1619 13.5798 29.1924 13.5925 29.2149 13.615C29.2374 13.6375 29.2501 13.668 29.2501 13.6998C29.2501 13.7317 29.2374 13.7622 29.2149 13.7847C29.1924 13.8072 29.1619 13.8198 29.1301 13.8198V13.8198ZM29.1301 13.2598C29.0983 13.2598 29.0677 13.2472 29.0452 13.2247C29.0227 13.2022 29.0101 13.1717 29.0101 13.1398C29.0101 13.108 29.0227 13.0775 29.0452 13.055C29.0677 13.0325 29.0983 13.0198 29.1301 13.0198C29.1619 13.0198 29.1924 13.0325 29.2149 13.055C29.2374 13.0775 29.2501 13.108 29.2501 13.1398C29.2501 13.1717 29.2374 13.2022 29.2149 13.2247C29.1924 13.2472 29.1619 13.2598 29.1301 13.2598V13.2598ZM29.1301 12.6898C29.1053 12.6824 29.0836 12.6673 29.0681 12.6465C29.0527 12.6258 29.0444 12.6007 29.0444 12.5748C29.0444 12.549 29.0527 12.5238 29.0681 12.5031C29.0836 12.4824 29.1053 12.4672 29.1301 12.4598C29.1548 12.4672 29.1766 12.4824 29.192 12.5031C29.2075 12.5238 29.2158 12.549 29.2158 12.5748C29.2158 12.6007 29.2075 12.6258 29.192 12.6465C29.1766 12.6673 29.1548 12.6824 29.1301 12.6898V12.6898ZM29.1301 12.1298C29.1053 12.1224 29.0836 12.1073 29.0681 12.0865C29.0527 12.0658 29.0444 12.0407 29.0444 12.0148C29.0444 11.989 29.0527 11.9638 29.0681 11.9431C29.0836 11.9224 29.1053 11.9072 29.1301 11.8998C29.1548 11.9072 29.1766 11.9224 29.192 11.9431C29.2075 11.9638 29.2158 11.989 29.2158 12.0148C29.2158 12.0407 29.2075 12.0658 29.192 12.0865C29.1766 12.1073 29.1548 12.1224 29.1301 12.1298V12.1298ZM29.1301 11.5698C29.1053 11.5624 29.0836 11.5473 29.0681 11.5265C29.0527 11.5058 29.0444 11.4807 29.0444 11.4548C29.0444 11.429 29.0527 11.4038 29.0681 11.3831C29.0836 11.3624 29.1053 11.3472 29.1301 11.3398C29.1548 11.3472 29.1766 11.3624 29.192 11.3831C29.2075 11.4038 29.2158 11.429 29.2158 11.4548C29.2158 11.4807 29.2075 11.5058 29.192 11.5265C29.1766 11.5473 29.1548 11.5624 29.1301 11.5698V11.5698ZM29.1301 11.0098C29.0983 11.0098 29.0677 10.9972 29.0452 10.9747C29.0227 10.9522 29.0101 10.9217 29.0101 10.8898C29.0101 10.858 29.0227 10.8275 29.0452 10.805C29.0677 10.7825 29.0983 10.7698 29.1301 10.7698C29.1619 10.7698 29.1924 10.7825 29.2149 10.805C29.2374 10.8275 29.2501 10.858 29.2501 10.8898C29.2501 10.9217 29.2374 10.9522 29.2149 10.9747C29.1924 10.9972 29.1619 11.0098 29.1301 11.0098V11.0098ZM29.1301 10.4498C29.0983 10.4498 29.0677 10.4372 29.0452 10.4147C29.0227 10.3922 29.0101 10.3617 29.0101 10.3298C29.0101 10.298 29.0227 10.2675 29.0452 10.245C29.0677 10.2225 29.0983 10.2098 29.1301 10.2098C29.1619 10.2098 29.1924 10.2225 29.2149 10.245C29.2374 10.2675 29.2501 10.298 29.2501 10.3298C29.2501 10.3617 29.2374 10.3922 29.2149 10.4147C29.1924 10.4372 29.1619 10.4498 29.1301 10.4498V10.4498ZM29.1301 9.88983C29.0983 9.88983 29.0677 9.87719 29.0452 9.85468C29.0227 9.83218 29.0101 9.80166 29.0101 9.76983C29.0101 9.738 29.0227 9.70748 29.0452 9.68498C29.0677 9.66247 29.0983 9.64983 29.1301 9.64983C29.1619 9.64983 29.1924 9.66247 29.2149 9.68498C29.2374 9.70748 29.2501 9.738 29.2501 9.76983C29.2501 9.80166 29.2374 9.83218 29.2149 9.85468C29.1924 9.87719 29.1619 9.88983 29.1301 9.88983V9.88983ZM29.1301 9.31983C29.1053 9.31245 29.0836 9.29727 29.0681 9.27655C29.0527 9.25583 29.0444 9.23067 29.0444 9.20483C29.0444 9.17899 29.0527 9.15383 29.0681 9.13311C29.0836 9.11239 29.1053 9.09721 29.1301 9.08983C29.1548 9.09721 29.1766 9.11239 29.192 9.13311C29.2075 9.15383 29.2158 9.17899 29.2158 9.20483C29.2158 9.23067 29.2075 9.25583 29.192 9.27655C29.1766 9.29727 29.1548 9.31245 29.1301 9.31983V9.31983ZM29.1301 8.75983C29.1053 8.75245 29.0836 8.73727 29.0681 8.71655C29.0527 8.69583 29.0444 8.67067 29.0444 8.64483C29.0444 8.61899 29.0527 8.59383 29.0681 8.57311C29.0836 8.55239 29.1053 8.53721 29.1301 8.52983C29.1548 8.53721 29.1766 8.55239 29.192 8.57311C29.2075 8.59383 29.2158 8.61899 29.2158 8.64483C29.2158 8.67067 29.2075 8.69583 29.192 8.71655C29.1766 8.73727 29.1548 8.75245 29.1301 8.75983V8.75983ZM29.1301 8.19983C29.0983 8.19983 29.0677 8.18719 29.0452 8.16468C29.0227 8.14218 29.0101 8.11165 29.0101 8.07983C29.0101 8.048 29.0227 8.01748 29.0452 7.99498C29.0677 7.97247 29.0983 7.95983 29.1301 7.95983C29.1619 7.95983 29.1924 7.97247 29.2149 7.99498C29.2374 8.01748 29.2501 8.048 29.2501 8.07983C29.2501 8.11165 29.2374 8.14218 29.2149 8.16468C29.1924 8.18719 29.1619 8.19983 29.1301 8.19983V8.19983ZM29.1301 7.63983C29.0983 7.63983 29.0677 7.62719 29.0452 7.60468C29.0227 7.58218 29.0101 7.55165 29.0101 7.51983C29.0101 7.488 29.0227 7.45748 29.0452 7.43498C29.0677 7.41247 29.0983 7.39983 29.1301 7.39983C29.1619 7.39983 29.1924 7.41247 29.2149 7.43498C29.2374 7.45748 29.2501 7.488 29.2501 7.51983C29.2501 7.55165 29.2374 7.58218 29.2149 7.60468C29.1924 7.62719 29.1619 7.63983 29.1301 7.63983V7.63983ZM29.1301 7.07983C29.0983 7.07983 29.0677 7.06719 29.0452 7.04468C29.0227 7.02218 29.0101 6.99165 29.0101 6.95983C29.0101 6.928 29.0227 6.89748 29.0452 6.87498C29.0677 6.85247 29.0983 6.83983 29.1301 6.83983C29.1619 6.83983 29.1924 6.85247 29.2149 6.87498C29.2374 6.89748 29.2501 6.928 29.2501 6.95983C29.2501 6.99165 29.2374 7.02218 29.2149 7.04468C29.1924 7.06719 29.1619 7.07983 29.1301 7.07983V7.07983ZM29.1301 6.51983C29.0983 6.51983 29.0677 6.50719 29.0452 6.48468C29.0227 6.46218 29.0101 6.43165 29.0101 6.39983C29.0101 6.368 29.0227 6.33748 29.0452 6.31498C29.0677 6.29247 29.0983 6.27983 29.1301 6.27983C29.1619 6.27983 29.1924 6.29247 29.2149 6.31498C29.2374 6.33748 29.2501 6.368 29.2501 6.39983C29.2501 6.43165 29.2374 6.46218 29.2149 6.48468C29.1924 6.50719 29.1619 6.51983 29.1301 6.51983V6.51983ZM29.1301 5.94983C29.1053 5.94245 29.0836 5.92727 29.0681 5.90655C29.0527 5.88583 29.0444 5.86067 29.0444 5.83483C29.0444 5.80899 29.0527 5.78383 29.0681 5.76311C29.0836 5.74239 29.1053 5.72721 29.1301 5.71983C29.1548 5.72721 29.1766 5.74239 29.192 5.76311C29.2075 5.78383 29.2158 5.80899 29.2158 5.83483C29.2158 5.86067 29.2075 5.88583 29.192 5.90655C29.1766 5.92727 29.1548 5.94245 29.1301 5.94983V5.94983ZM29.1301 5.38983C29.1053 5.38245 29.0836 5.36727 29.0681 5.34655C29.0527 5.32583 29.0444 5.30067 29.0444 5.27483C29.0444 5.24899 29.0527 5.22383 29.0681 5.20311C29.0836 5.18239 29.1053 5.16721 29.1301 5.15983C29.1548 5.16721 29.1766 5.18239 29.192 5.20311C29.2075 5.22383 29.2158 5.24899 29.2158 5.27483C29.2158 5.30067 29.2075 5.32583 29.192 5.34655C29.1766 5.36727 29.1548 5.38245 29.1301 5.38983V5.38983ZM30.0301 12.3998L31.9301 10.4998C32.1064 10.3235 32.3457 10.2244 32.5951 10.2244C32.8445 10.2244 33.0837 10.3235 33.2601 10.4998C33.4364 10.6762 33.5355 10.9154 33.5355 11.1648C33.5355 11.4143 33.4364 11.6535 33.2601 11.8298L31.3601 13.7298C31.1837 13.9062 30.9445 14.0053 30.6951 14.0053C30.4457 14.0053 30.2064 13.9062 30.0301 13.7298C29.8537 13.5535 29.7546 13.3143 29.7546 13.0648C29.7546 12.8154 29.8537 12.5762 30.0301 12.3998V12.3998ZM30.0601 16.4098L31.9601 14.5098C32.1406 14.3576 32.3718 14.2788 32.6077 14.2893C32.8436 14.2997 33.067 14.3986 33.2333 14.5662C33.3997 14.7338 33.4968 14.9579 33.5055 15.1939C33.5142 15.4299 33.4337 15.6605 33.2801 15.8398L31.3801 17.7398C31.1996 17.8921 30.9684 17.9708 30.7324 17.9604C30.4965 17.9499 30.2732 17.8511 30.1068 17.6835C29.9405 17.5159 29.8433 17.2918 29.8346 17.0558C29.826 16.8198 29.9065 16.5892 30.0601 16.4098V16.4098ZM30.0801 20.4098L31.9801 18.5198C32.1606 18.3676 32.3918 18.2888 32.6277 18.2993C32.8636 18.3097 33.087 18.4086 33.2533 18.5762C33.4197 18.7438 33.5168 18.9679 33.5255 19.2039C33.5342 19.4399 33.4537 19.6705 33.3001 19.8498L31.4001 21.7498C31.2196 21.9021 30.9884 21.9808 30.7524 21.9704C30.5165 21.9599 30.2932 21.8611 30.1268 21.6935C29.9605 21.5259 29.8633 21.3018 29.8546 21.0658C29.846 20.8298 29.9265 20.5992 30.0801 20.4198V20.4098ZM30.1001 24.4298L32.0001 22.5298C32.1806 22.3776 32.4118 22.2988 32.6477 22.3093C32.8836 22.3197 33.107 22.4186 33.2733 22.5862C33.4397 22.7538 33.5368 22.9779 33.5455 23.2139C33.5542 23.4499 33.4737 23.6805 33.3201 23.8598L31.4201 25.7598C31.2396 25.9121 31.0084 25.9908 30.7724 25.9804C30.5365 25.9699 30.3132 25.8711 30.1468 25.7035C29.9805 25.5359 29.8833 25.3118 29.8746 25.0758C29.866 24.8398 29.9465 24.6092 30.1001 24.4298V24.4298ZM30.1201 28.4298L32.0201 26.5398C32.1964 26.3635 32.4357 26.2644 32.6851 26.2644C32.9345 26.2644 33.1737 26.3635 33.3501 26.5398C33.5264 26.7162 33.6255 26.9554 33.6255 27.2048C33.6255 27.4543 33.5264 27.6935 33.3501 27.8698L31.4501 29.7698C31.3627 29.8572 31.2591 29.9264 31.145 29.9737C31.0309 30.021 30.9086 30.0453 30.7851 30.0453C30.6616 30.0453 30.5393 30.021 30.4252 29.9737C30.3111 29.9264 30.2074 29.8572 30.1201 29.7698C30.0327 29.6825 29.9635 29.5788 29.9162 29.4647C29.869 29.3506 29.8446 29.2283 29.8446 29.1048C29.8446 28.9813 29.869 28.859 29.9162 28.7449C29.9635 28.6308 30.0327 28.5272 30.1201 28.4398V28.4298ZM30.1501 32.4498L32.0501 30.5498C32.2306 30.3976 32.4618 30.3188 32.6977 30.3293C32.9336 30.3397 33.157 30.4386 33.3233 30.6062C33.4897 30.7738 33.5868 30.9979 33.5955 31.2339C33.6042 31.4699 33.5237 31.7005 33.3701 31.8798L31.4701 33.7798C31.2896 33.9321 31.0584 34.0108 30.8224 34.0004C30.5865 33.9899 30.3632 33.8911 30.1968 33.7235C30.0305 33.5559 29.9333 33.3318 29.9246 33.0958C29.916 32.8598 29.9965 32.6292 30.1501 32.4498V32.4498ZM33.3901 35.8898L31.4901 37.7898C31.3096 37.9421 31.0784 38.0208 30.8424 38.0104C30.6065 37.9999 30.3832 37.9011 30.2168 37.7335C30.0505 37.5659 29.9533 37.3418 29.9446 37.1058C29.936 36.8698 30.0165 36.6392 30.1701 36.4598L32.0701 34.5598C32.2506 34.4076 32.4818 34.3288 32.7177 34.3393C32.9536 34.3497 33.177 34.4486 33.3433 34.6162C33.5097 34.7838 33.6068 35.0079 33.6155 35.2439C33.6242 35.4799 33.5437 35.7105 33.3901 35.8898V35.8898Z" fill="#333333"/>
</svg>
