<svg width="48" height="48" viewBox="0 0 48 48" fill="none" xmlns="http://www.w3.org/2000/svg">
<path d="M23.814 4.10389C20.502 4.11289 17.252 4.12689 14.146 4.12489C13.277 4.12489 12.58 4.82489 12.58 5.69289V42.5549C12.58 43.4239 13.277 44.1249 14.146 44.1249H33.852C34.721 44.1249 35.42 43.4239 35.42 42.5549V5.69289C35.42 4.82289 34.72 4.12489 33.852 4.12489C30.501 4.09289 27.126 4.09489 23.814 4.10389ZM14.58 4.62489H33.418C34.249 4.62489 34.92 5.30589 34.92 6.15489V42.0939C34.92 42.9409 34.25 43.6249 33.418 43.6249H14.58C13.75 43.6249 13.08 42.9409 13.08 42.0939V6.15389C13.08 5.30689 13.75 4.62489 14.58 4.62489ZM19.992 5.16589C19.9627 5.16626 19.9347 5.17811 19.914 5.19889C19.8939 5.22061 19.8832 5.24933 19.884 5.27889C19.885 5.30889 19.897 5.33689 19.918 5.35689C19.9283 5.36709 19.9404 5.37517 19.9538 5.38066C19.9672 5.38615 19.9816 5.38895 19.996 5.38889C20.0105 5.38902 20.025 5.38628 20.0384 5.38081C20.0519 5.37534 20.0641 5.36726 20.0744 5.35703C20.0848 5.3468 20.093 5.33463 20.0985 5.32122C20.1041 5.30781 20.107 5.29342 20.107 5.27889C20.107 5.24889 20.098 5.22089 20.078 5.19889C20.0573 5.17811 20.0293 5.16626 20 5.16589H19.992ZM27.992 5.16589C27.9627 5.16626 27.9347 5.17811 27.914 5.19889C27.8939 5.22061 27.8832 5.24933 27.884 5.27889C27.885 5.30889 27.897 5.33689 27.918 5.35689C27.9283 5.36709 27.9404 5.37517 27.9538 5.38066C27.9672 5.38615 27.9816 5.38895 27.996 5.38889C28.0105 5.38902 28.025 5.38628 28.0384 5.38081C28.0519 5.37534 28.0641 5.36726 28.0744 5.35703C28.0848 5.3468 28.093 5.33463 28.0985 5.32122C28.1041 5.30781 28.107 5.29342 28.107 5.27889C28.107 5.24889 28.098 5.22089 28.078 5.19889C28.0573 5.17811 28.0293 5.16626 28 5.16589H27.992ZM19.992 5.72889C19.9771 5.72973 19.9625 5.73347 19.949 5.73989C19.9357 5.74614 19.9238 5.75498 19.914 5.76589C19.9046 5.77742 19.8974 5.79066 19.893 5.80489C19.888 5.81883 19.8859 5.83363 19.8867 5.8484C19.8876 5.86318 19.8914 5.87763 19.898 5.89089C19.9043 5.90418 19.9131 5.91608 19.924 5.92589C19.934 5.93589 19.949 5.94189 19.963 5.94689C19.984 5.95419 20.0067 5.95514 20.0282 5.94963C20.0497 5.94412 20.0691 5.93238 20.084 5.91589C20.1035 5.89321 20.1132 5.86372 20.111 5.83389C20.1095 5.80402 20.0962 5.77597 20.074 5.75589C20.0513 5.73639 20.0218 5.72669 19.992 5.72889ZM27.992 5.72889C27.9771 5.72973 27.9625 5.73347 27.949 5.73989C27.9357 5.74614 27.9238 5.75498 27.914 5.76589C27.9046 5.77742 27.8974 5.79066 27.893 5.80489C27.888 5.81883 27.8859 5.83363 27.8867 5.8484C27.8876 5.86318 27.8914 5.87763 27.898 5.89089C27.9043 5.90418 27.9131 5.91608 27.924 5.92589C27.934 5.93589 27.949 5.94189 27.963 5.94689C27.984 5.95419 28.0067 5.95514 28.0282 5.94963C28.0497 5.94412 28.0691 5.93238 28.084 5.91589C28.1035 5.89321 28.1132 5.86372 28.111 5.83389C28.1095 5.80402 28.0962 5.77597 28.074 5.75589C28.0513 5.73639 28.0218 5.72669 27.992 5.72889ZM19.982 6.29089C19.9612 6.29437 19.9417 6.30374 19.926 6.31789C19.9095 6.33185 19.8974 6.35024 19.891 6.37089C19.8855 6.39164 19.8862 6.41354 19.893 6.43389C19.8988 6.45401 19.9103 6.47206 19.926 6.48589C19.9418 6.50082 19.9617 6.51054 19.9832 6.51376C20.0046 6.51698 20.0266 6.51354 20.046 6.50389C20.0655 6.49497 20.0822 6.48077 20.094 6.46289C20.1052 6.44488 20.1111 6.42409 20.111 6.40289C20.111 6.34089 20.061 6.29189 20 6.29089H19.982ZM27.982 6.29089C27.9612 6.29437 27.9417 6.30374 27.926 6.31789C27.9095 6.33185 27.8974 6.35024 27.891 6.37089C27.8855 6.39164 27.8862 6.41354 27.893 6.43389C27.8988 6.45401 27.9103 6.47206 27.926 6.48589C27.9418 6.50082 27.9617 6.51054 27.9832 6.51376C28.0046 6.51698 28.0266 6.51354 28.046 6.50389C28.0655 6.49497 28.0822 6.48077 28.094 6.46289C28.1052 6.44488 28.1111 6.42409 28.111 6.40289C28.111 6.34089 28.061 6.29189 28 6.29089H27.982ZM20.002 6.85089C19.9723 6.85031 19.9436 6.86144 19.922 6.88189C19.9116 6.89284 19.9034 6.90576 19.898 6.91989C19.889 6.94026 19.8864 6.96284 19.8903 6.98475C19.8942 7.00665 19.9045 7.0269 19.92 7.04289C19.93 7.05289 19.943 7.06089 19.957 7.06589C19.971 7.07189 19.985 7.07589 20 7.07589C20.0296 7.07564 20.0579 7.06393 20.0789 7.04322C20.1 7.02252 20.1122 6.99443 20.113 6.96489C20.113 6.93489 20.103 6.90589 20.082 6.88489C20.0607 6.86381 20.032 6.85195 20.002 6.85189V6.85089ZM28.002 6.85089C27.9723 6.85031 27.9436 6.86144 27.922 6.88189C27.9116 6.89284 27.9034 6.90576 27.898 6.91989C27.889 6.94026 27.8864 6.96284 27.8903 6.98475C27.8942 7.00665 27.9045 7.0269 27.92 7.04289C27.93 7.05289 27.943 7.06089 27.957 7.06589C27.971 7.07189 27.985 7.07589 28 7.07589C28.0296 7.07564 28.0579 7.06393 28.0789 7.04322C28.1 7.02252 28.1122 6.99443 28.113 6.96489C28.113 6.93489 28.103 6.90589 28.082 6.88489C28.0607 6.86381 28.032 6.85195 28.002 6.85189V6.85089ZM19.992 7.41389C19.9638 7.41561 19.9373 7.42814 19.918 7.44889C19.901 7.46606 19.8901 7.4883 19.8869 7.51225C19.8836 7.5362 19.8883 7.56054 19.9002 7.58158C19.9121 7.60263 19.9305 7.61922 19.9527 7.62884C19.9748 7.63846 19.9995 7.64058 20.023 7.63489C20.0451 7.63034 20.0652 7.61905 20.0806 7.60257C20.0961 7.58609 20.106 7.56524 20.109 7.54289C20.1122 7.52104 20.1087 7.49874 20.099 7.47889C20.0899 7.45846 20.0748 7.4413 20.0557 7.42969C20.0365 7.41807 20.0143 7.41256 19.992 7.41389ZM27.992 7.41389C27.9638 7.41561 27.9373 7.42814 27.918 7.44889C27.901 7.46606 27.8901 7.4883 27.8869 7.51225C27.8836 7.5362 27.8883 7.56054 27.9002 7.58158C27.9121 7.60263 27.9305 7.61922 27.9527 7.62884C27.9748 7.63846 27.9995 7.64058 28.023 7.63489C28.0451 7.63034 28.0652 7.61905 28.0806 7.60257C28.0961 7.58609 28.106 7.56524 28.109 7.54289C28.1122 7.52104 28.1087 7.49874 28.099 7.47889C28.0899 7.45846 28.0748 7.4413 28.0557 7.42969C28.0365 7.41807 28.0143 7.41256 27.992 7.41389ZM19.992 7.97389C19.9623 7.97526 19.9343 7.98818 19.914 8.00989C19.9041 8.02028 19.8964 8.03252 19.8912 8.0459C19.8861 8.05929 19.8836 8.07356 19.884 8.08789C19.885 8.11789 19.897 8.14489 19.918 8.16589C19.9389 8.18613 19.9669 8.19727 19.996 8.19689C20.0105 8.19702 20.025 8.19428 20.0384 8.18881C20.0519 8.18334 20.0641 8.17526 20.0744 8.16503C20.0848 8.1548 20.093 8.14263 20.0985 8.12922C20.1041 8.11581 20.107 8.10142 20.107 8.08689C20.107 8.05889 20.098 8.03089 20.078 8.00989C20.0575 7.98855 20.0296 7.976 20 7.97489H19.992V7.97389ZM27.992 7.97389C27.9623 7.97526 27.9343 7.98818 27.914 8.00989C27.9041 8.02028 27.8964 8.03252 27.8912 8.0459C27.8861 8.05929 27.8836 8.07356 27.884 8.08789C27.885 8.11789 27.897 8.14489 27.918 8.16589C27.9389 8.18613 27.9669 8.19727 27.996 8.19689C28.0105 8.19702 28.025 8.19428 28.0384 8.18881C28.0519 8.18334 28.0641 8.17526 28.0744 8.16503C28.0848 8.1548 28.093 8.14263 28.0985 8.12922C28.1041 8.11581 28.107 8.10142 28.107 8.08689C28.107 8.05889 28.098 8.03089 28.078 8.00989C28.0575 7.98855 28.0296 7.976 28 7.97489H27.992V7.97389ZM19.992 8.53689C19.9625 8.538 19.9345 8.55055 19.914 8.57189C19.9041 8.58228 19.8964 8.59452 19.8912 8.6079C19.8861 8.62129 19.8836 8.63556 19.884 8.64989C19.885 8.67989 19.897 8.70789 19.918 8.72889C19.938 8.74889 19.967 8.76189 19.996 8.76189C20.0253 8.76138 20.0532 8.74952 20.0739 8.72881C20.0946 8.70811 20.1065 8.68017 20.107 8.65089C20.107 8.62089 20.098 8.59389 20.078 8.57189C20.0575 8.55055 20.0296 8.538 20 8.53689H19.992ZM27.992 8.53689C27.9625 8.538 27.9345 8.55055 27.914 8.57189C27.9041 8.58228 27.8964 8.59452 27.8912 8.6079C27.8861 8.62129 27.8836 8.63556 27.884 8.64989C27.885 8.67989 27.897 8.70789 27.918 8.72889C27.938 8.74889 27.967 8.76189 27.996 8.76189C28.0253 8.76138 28.0532 8.74952 28.0739 8.72881C28.0946 8.70811 28.1065 8.68017 28.107 8.65089C28.107 8.62089 28.098 8.59389 28.078 8.57189C28.0575 8.55055 28.0296 8.538 28 8.53689H27.992ZM19.992 9.09989C19.9619 9.10225 19.934 9.11624 19.914 9.13889C19.9044 9.14976 19.8971 9.16244 19.8925 9.17617C19.8878 9.18991 19.886 9.20443 19.887 9.21889C19.887 9.23289 19.892 9.24889 19.898 9.26189C19.9043 9.27516 19.9131 9.28706 19.924 9.29689C19.9469 9.31611 19.9762 9.32578 20.006 9.32389C20.0359 9.32226 20.0639 9.30897 20.084 9.28689C20.1031 9.26439 20.1128 9.23534 20.1109 9.20587C20.1091 9.1764 20.0958 9.14881 20.074 9.12889C20.0517 9.1085 20.0222 9.09772 19.992 9.09889V9.09989ZM27.992 9.09989C27.9619 9.10225 27.934 9.11624 27.914 9.13889C27.9044 9.14976 27.8971 9.16244 27.8925 9.17617C27.8878 9.18991 27.886 9.20443 27.887 9.21889C27.887 9.23289 27.892 9.24889 27.898 9.26189C27.9043 9.27516 27.9131 9.28706 27.924 9.29689C27.9469 9.31611 27.9762 9.32578 28.006 9.32389C28.0359 9.32226 28.0639 9.30897 28.084 9.28689C28.1031 9.26439 28.1128 9.23534 28.1109 9.20587C28.1091 9.1764 28.0958 9.14881 28.074 9.12889C28.0517 9.1085 28.0222 9.09772 27.992 9.09889V9.09989ZM19.992 9.66189C19.9625 9.663 19.9345 9.67555 19.914 9.69689C19.9041 9.70728 19.8964 9.71952 19.8912 9.7329C19.8861 9.74629 19.8836 9.76056 19.884 9.77489C19.885 9.80489 19.897 9.83289 19.918 9.85389C19.938 9.87389 19.967 9.88689 19.996 9.88689C20.0253 9.88638 20.0532 9.87452 20.0739 9.85381C20.0946 9.83311 20.1065 9.80517 20.107 9.77589C20.107 9.74589 20.098 9.71889 20.078 9.69689C20.0575 9.67555 20.0296 9.663 20 9.66189H19.992ZM27.992 9.66189C27.9625 9.663 27.9345 9.67555 27.914 9.69689C27.9041 9.70728 27.8964 9.71952 27.8912 9.7329C27.8861 9.74629 27.8836 9.76056 27.884 9.77489C27.885 9.80489 27.897 9.83289 27.918 9.85389C27.938 9.87389 27.967 9.88689 27.996 9.88689C28.0253 9.88638 28.0532 9.87452 28.0739 9.85381C28.0946 9.83311 28.1065 9.80517 28.107 9.77589C28.107 9.74589 28.098 9.71889 28.078 9.69689C28.0575 9.67555 28.0296 9.663 28 9.66189H27.992ZM19.98 10.2249C19.9535 10.2295 19.9294 10.2433 19.912 10.2639C19.8953 10.2849 19.8865 10.3111 19.887 10.3379C19.8835 10.3619 19.8881 10.3865 19.9001 10.4076C19.912 10.4288 19.9306 10.4454 19.953 10.4549C19.968 10.4619 19.983 10.4669 20 10.4669C20.016 10.4669 20.03 10.4619 20.045 10.4549C20.0598 10.4488 20.0731 10.4396 20.084 10.4279C20.0948 10.4157 20.1028 10.4014 20.1074 10.3859C20.1121 10.3703 20.1133 10.354 20.111 10.3379C20.1105 10.3086 20.0987 10.2806 20.078 10.2599C20.0575 10.2386 20.0295 10.2261 20 10.2249H19.98ZM27.98 10.2249C27.9535 10.2295 27.9294 10.2433 27.912 10.2639C27.8953 10.2849 27.8865 10.3111 27.887 10.3379C27.8835 10.3619 27.8881 10.3865 27.9001 10.4076C27.912 10.4288 27.9306 10.4454 27.953 10.4549C27.968 10.4619 27.983 10.4669 28 10.4669C28.016 10.4669 28.03 10.4619 28.045 10.4549C28.0598 10.4488 28.0731 10.4396 28.084 10.4279C28.0948 10.4157 28.1028 10.4014 28.1074 10.3859C28.1121 10.3703 28.1133 10.354 28.111 10.3379C28.1105 10.3086 28.0987 10.2806 28.078 10.2599C28.0575 10.2386 28.0295 10.2261 28 10.2249H27.98ZM20.002 10.7849C19.9872 10.7854 19.9726 10.7888 19.959 10.7949C19.9451 10.8002 19.9323 10.8083 19.9215 10.8186C19.9107 10.8289 19.902 10.8412 19.896 10.8549C19.8908 10.8693 19.8884 10.8846 19.889 10.8999C19.889 10.9619 19.939 11.0099 20.002 11.0099C20.0164 11.0102 20.0308 11.0077 20.0442 11.0024C20.0576 10.997 20.0698 10.9891 20.08 10.9789C20.09 10.9689 20.1 10.9569 20.105 10.9429C20.1105 10.9292 20.1132 10.9146 20.113 10.8999C20.1133 10.8851 20.1106 10.8703 20.1052 10.8565C20.0998 10.8427 20.0916 10.8301 20.0813 10.8194C20.071 10.8087 20.0587 10.8002 20.0451 10.7943C20.0315 10.7883 20.0169 10.7852 20.002 10.7849ZM28.002 10.7849C27.9872 10.7854 27.9726 10.7888 27.959 10.7949C27.9451 10.8002 27.9323 10.8083 27.9215 10.8186C27.9107 10.8289 27.902 10.8412 27.896 10.8549C27.8908 10.8693 27.8884 10.8846 27.889 10.8999C27.889 10.9619 27.939 11.0099 28.002 11.0099C28.0164 11.0102 28.0308 11.0077 28.0442 11.0024C28.0576 10.997 28.0698 10.9891 28.08 10.9789C28.09 10.9689 28.1 10.9569 28.105 10.9429C28.1105 10.9292 28.1132 10.9146 28.113 10.8999C28.1133 10.8851 28.1106 10.8703 28.1052 10.8565C28.0998 10.8427 28.0916 10.8301 28.0813 10.8194C28.071 10.8087 28.0587 10.8002 28.0451 10.7943C28.0315 10.7883 28.0169 10.7852 28.002 10.7849ZM20.002 11.3479C19.9874 11.3474 19.9728 11.3498 19.959 11.3549C19.9451 11.3611 19.9326 11.37 19.922 11.3809C19.9117 11.3908 19.9035 11.4027 19.898 11.4159C19.892 11.4294 19.8888 11.4439 19.8884 11.4587C19.8881 11.4735 19.8907 11.4881 19.896 11.5019C19.9023 11.5158 19.9111 11.5283 19.922 11.5389C19.9427 11.5597 19.9707 11.5715 20 11.5719C20.0296 11.5716 20.0579 11.5599 20.0789 11.5392C20.1 11.5185 20.1122 11.4904 20.113 11.4609C20.1129 11.4309 20.101 11.4022 20.08 11.3809C20.0698 11.3705 20.0577 11.3622 20.0443 11.3566C20.0309 11.3509 20.0166 11.348 20.002 11.3479ZM28.002 11.3479C27.9874 11.3474 27.9728 11.3498 27.959 11.3549C27.9451 11.3611 27.9326 11.37 27.922 11.3809C27.9117 11.3908 27.9035 11.4027 27.898 11.4159C27.892 11.4294 27.8888 11.4439 27.8884 11.4587C27.8881 11.4735 27.8907 11.4881 27.896 11.5019C27.9023 11.5158 27.9111 11.5283 27.922 11.5389C27.9427 11.5597 27.9707 11.5715 28 11.5719C28.0296 11.5716 28.0579 11.5599 28.0789 11.5392C28.1 11.5185 28.1122 11.4904 28.113 11.4609C28.1129 11.4309 28.101 11.4022 28.08 11.3809C28.0698 11.3705 28.0577 11.3622 28.0443 11.3566C28.0309 11.3509 28.0166 11.348 28.002 11.3479ZM19.992 11.9099C19.9637 11.9134 19.9378 11.9273 19.9193 11.949C19.9008 11.9706 19.8911 11.9984 19.892 12.0269C19.8925 12.0557 19.9039 12.0832 19.924 12.1039C19.944 12.1239 19.971 12.1349 20 12.1369C20.061 12.1369 20.11 12.0849 20.111 12.0229C20.1106 12.0077 20.1072 11.9927 20.101 11.9789C20.0951 11.9647 20.0864 11.9518 20.0754 11.9409C20.0644 11.9301 20.0513 11.9216 20.037 11.9159C20.0226 11.9108 20.0073 11.9087 19.992 11.9099ZM27.992 11.9099C27.9637 11.9134 27.9378 11.9273 27.9193 11.949C27.9008 11.9706 27.8911 11.9984 27.892 12.0269C27.8925 12.0557 27.9039 12.0832 27.924 12.1039C27.944 12.1239 27.971 12.1349 28 12.1369C28.061 12.1369 28.11 12.0849 28.111 12.0229C28.1106 12.0077 28.1072 11.9927 28.101 11.9789C28.0951 11.9647 28.0864 11.9518 28.0754 11.9409C28.0644 11.9301 28.0513 11.9216 28.037 11.9159C28.0226 11.9108 28.0073 11.9087 27.992 11.9099ZM16.619 12.0429C16.4054 12.0377 16.1929 12.0752 15.994 12.1534C15.7952 12.2315 15.6139 12.3487 15.461 12.4979C15.3084 12.647 15.1871 12.8251 15.1044 13.0217C15.0216 13.2183 14.979 13.4295 14.979 13.6429C14.979 13.8564 15.0216 14.0677 15.1044 14.2645C15.1872 14.4613 15.3084 14.6396 15.461 14.7889C15.6142 14.9377 15.7955 15.0544 15.9943 15.1322C16.1932 15.21 16.4056 15.2473 16.619 15.2419C17.0432 15.2419 17.4501 15.0734 17.75 14.7734C18.05 14.4734 18.2185 14.0666 18.2185 13.6424C18.2185 13.2182 18.05 12.8113 17.75 12.5114C17.4501 12.2114 17.0432 12.0429 16.619 12.0429ZM24 12.0429C23.7864 12.0375 23.5739 12.0749 23.375 12.1529C23.1764 12.231 22.9955 12.348 22.8428 12.4971C22.6901 12.6461 22.5688 12.8242 22.486 13.0209C22.4026 13.2177 22.3594 13.4292 22.359 13.6429C22.3592 13.8566 22.4022 14.0681 22.4855 14.265C22.5688 14.4618 22.6907 14.6399 22.844 14.7889C22.9966 14.9378 23.1776 15.0547 23.3761 15.1325C23.5747 15.2103 23.7868 15.2475 24 15.2419C24.4242 15.2419 24.8311 15.0734 25.131 14.7734C25.431 14.4734 25.5995 14.0666 25.5995 13.6424C25.5995 13.2182 25.431 12.8113 25.131 12.5114C24.8311 12.2114 24.4242 12.0429 24 12.0429ZM31.38 12.0429C31.0585 12.035 30.7421 12.1241 30.4718 12.2985C30.2016 12.4729 29.9902 12.7246 29.865 13.0209C29.782 13.2176 29.7392 13.4289 29.7392 13.6424C29.7392 13.8559 29.782 14.0672 29.865 14.2639C29.9483 14.4606 30.0698 14.6387 30.2226 14.7879C30.3754 14.9371 30.5564 15.0544 30.755 15.1329C30.9542 15.2111 31.1671 15.2485 31.381 15.2429C31.8054 15.2429 32.2123 15.0743 32.5124 14.7743C32.8124 14.4742 32.981 14.0672 32.981 13.6429C32.981 13.2185 32.8124 12.8116 32.5124 12.5115C32.2123 12.2115 31.8054 12.0429 31.381 12.0429H31.38ZM19.992 12.4729C19.9637 12.4764 19.9378 12.4903 19.9193 12.512C19.9008 12.5336 19.8911 12.5614 19.892 12.5899C19.8927 12.6184 19.9042 12.6455 19.924 12.6659C19.944 12.6859 19.971 12.6979 20 12.6989C20.022 12.698 20.0433 12.6909 20.0613 12.6784C20.0793 12.6658 20.0934 12.6483 20.1018 12.628C20.1102 12.6077 20.1127 12.5854 20.1088 12.5638C20.1049 12.5421 20.0949 12.522 20.08 12.5059C20.0695 12.4949 20.0569 12.4861 20.043 12.4799C20.0293 12.4748 20.0147 12.4724 20 12.4729H19.992ZM27.992 12.4729C27.9637 12.4764 27.9378 12.4903 27.9193 12.512C27.9008 12.5336 27.8911 12.5614 27.892 12.5899C27.8927 12.6184 27.9042 12.6455 27.924 12.6659C27.944 12.6859 27.971 12.6979 28 12.6989C28.022 12.698 28.0433 12.6909 28.0613 12.6784C28.0793 12.6658 28.0934 12.6483 28.1018 12.628C28.1102 12.6077 28.1127 12.5854 28.1088 12.5638C28.1049 12.5421 28.0949 12.522 28.08 12.5059C28.0695 12.4949 28.0569 12.4861 28.043 12.4799C28.0293 12.4748 28.0147 12.4724 28 12.4729H27.992ZM23.975 12.5029C24.1256 12.5029 24.2747 12.5326 24.4138 12.5902C24.5529 12.6479 24.6793 12.7324 24.7857 12.8389C24.8921 12.9454 24.9765 13.0719 25.0341 13.211C25.0916 13.3502 25.1211 13.4993 25.121 13.6499C25.1211 13.8005 25.0916 13.9496 25.0341 14.0888C24.9765 14.2279 24.8921 14.3544 24.7857 14.4609C24.6793 14.5674 24.5529 14.6519 24.4138 14.7096C24.2747 14.7672 24.1256 14.7969 23.975 14.7969C23.8244 14.797 23.6751 14.7674 23.5359 14.7099C23.3967 14.6523 23.2702 14.5678 23.1637 14.4612C23.0571 14.3547 22.9727 14.2282 22.9151 14.089C22.8575 13.9498 22.8279 13.8006 22.828 13.6499C22.828 13.4993 22.8577 13.3502 22.9153 13.2111C22.973 13.072 23.0575 12.9456 23.164 12.8392C23.2705 12.7328 23.397 12.6484 23.5362 12.5908C23.6753 12.5333 23.8244 12.5038 23.975 12.5039V12.5029ZM16.562 12.5099C16.7126 12.5098 16.8617 12.5393 17.0009 12.5968C17.14 12.6544 17.2665 12.7388 17.373 12.8452C17.4795 12.9516 17.564 13.078 17.6217 13.2171C17.6793 13.3562 17.709 13.5053 17.709 13.6559C17.7091 13.8065 17.6796 13.9556 17.6221 14.0948C17.5645 14.2339 17.4801 14.3604 17.3737 14.4669C17.2673 14.5734 17.1409 14.6579 17.0018 14.7156C16.8627 14.7732 16.7136 14.8029 16.563 14.8029C16.4124 14.803 16.2631 14.7734 16.1239 14.7158C15.9847 14.6583 15.8582 14.5738 15.7517 14.4672C15.6451 14.3607 15.5607 14.2342 15.5031 14.095C15.4455 13.9558 15.4159 13.8066 15.416 13.6559C15.416 13.352 15.5368 13.0605 15.7517 12.8455C15.9666 12.6306 16.2581 12.5099 16.562 12.5099ZM31.379 12.5249C31.6828 12.5254 31.9739 12.6465 32.1884 12.8616C32.4029 13.0767 32.5233 13.3681 32.523 13.6719C32.523 13.9755 32.4026 14.2667 32.1881 14.4815C31.9736 14.6964 31.6826 14.8174 31.379 14.8179C31.2284 14.818 31.0793 14.7885 30.9402 14.7309C30.801 14.6734 30.6745 14.589 30.568 14.4826C30.4615 14.3762 30.377 14.2498 30.3193 14.1107C30.2617 13.9716 30.232 13.8225 30.232 13.6719C30.2319 13.5212 30.2615 13.372 30.3191 13.2328C30.3767 13.0936 30.4611 12.9671 30.5677 12.8605C30.6742 12.754 30.8007 12.6695 30.9399 12.6119C31.0791 12.5543 31.2284 12.5248 31.379 12.5249ZM19.992 13.0349C19.9701 13.0368 19.9492 13.0452 19.932 13.0589C19.9186 13.0684 19.9076 13.0809 19.8996 13.0952C19.8917 13.1096 19.8871 13.1256 19.8861 13.142C19.8852 13.1584 19.8879 13.1748 19.8941 13.19C19.9003 13.2052 19.9098 13.2189 19.922 13.2299C19.9382 13.2451 19.9585 13.2552 19.9804 13.2589C20.0022 13.2626 20.0247 13.2599 20.045 13.2509C20.0676 13.2397 20.0859 13.2213 20.0969 13.1986C20.1079 13.1759 20.1111 13.1502 20.106 13.1255C20.1008 13.1008 20.0876 13.0785 20.0685 13.0621C20.0493 13.0457 20.0252 13.0361 20 13.0349H19.992ZM27.992 13.0349C27.9701 13.0368 27.9492 13.0452 27.932 13.0589C27.9186 13.0684 27.9076 13.0809 27.8996 13.0952C27.8917 13.1096 27.8871 13.1256 27.8861 13.142C27.8852 13.1584 27.8879 13.1748 27.8941 13.19C27.9003 13.2052 27.9099 13.2189 27.922 13.2299C27.9382 13.2451 27.9585 13.2552 27.9804 13.2589C28.0022 13.2626 28.0247 13.2599 28.045 13.2509C28.0676 13.2397 28.0859 13.2213 28.0969 13.1986C28.1079 13.1759 28.1111 13.1502 28.106 13.1255C28.1008 13.1008 28.0876 13.0785 28.0685 13.0621C28.0493 13.0457 28.0252 13.0361 28 13.0349H27.992ZM19.992 13.5979C19.9625 13.599 19.9345 13.6115 19.914 13.6329C19.8991 13.649 19.8891 13.669 19.8854 13.6906C19.8816 13.7123 19.8843 13.7345 19.893 13.7547C19.9017 13.7748 19.916 13.792 19.9343 13.8041C19.9526 13.8162 19.9741 13.8228 19.996 13.8229C20.026 13.8229 20.053 13.8099 20.074 13.7889C20.0946 13.7684 20.1065 13.7407 20.1073 13.7117C20.108 13.6826 20.0975 13.6544 20.078 13.6329C20.0575 13.6116 20.0295 13.5991 20 13.5979H19.992ZM27.992 13.5979C27.9625 13.599 27.9345 13.6115 27.914 13.6329C27.8991 13.649 27.8891 13.669 27.8854 13.6906C27.8816 13.7123 27.8843 13.7345 27.893 13.7547C27.9017 13.7748 27.916 13.792 27.9343 13.8041C27.9526 13.8162 27.9741 13.8228 27.996 13.8229C28.026 13.8229 28.053 13.8099 28.074 13.7889C28.0946 13.7684 28.1065 13.7407 28.1073 13.7117C28.108 13.6826 28.0975 13.6544 28.078 13.6329C28.0575 13.6116 28.0295 13.5991 28 13.5979H27.992ZM19.992 14.1599C19.9771 14.1611 19.9625 14.1652 19.949 14.1719C19.9358 14.1778 19.9239 14.1863 19.914 14.1969C19.8997 14.214 19.8906 14.2349 19.8878 14.2571C19.8849 14.2792 19.8885 14.3017 19.898 14.3219C19.9043 14.3345 19.9132 14.3458 19.924 14.3549C19.9348 14.3653 19.9477 14.3734 19.9619 14.3785C19.976 14.3837 19.991 14.3859 20.006 14.3849C20.0362 14.3823 20.0642 14.3679 20.084 14.3449C20.1031 14.3224 20.1128 14.2933 20.1109 14.2639C20.1091 14.2344 20.0958 14.2068 20.074 14.1869C20.0513 14.1675 20.0218 14.1578 19.992 14.1599ZM27.992 14.1599C27.9771 14.1611 27.9625 14.1652 27.949 14.1719C27.9358 14.1778 27.9239 14.1863 27.914 14.1969C27.8997 14.214 27.8906 14.2349 27.8878 14.2571C27.8849 14.2792 27.8885 14.3017 27.898 14.3219C27.9043 14.3345 27.9132 14.3458 27.924 14.3549C27.9348 14.3653 27.9477 14.3734 27.9619 14.3785C27.976 14.3837 27.991 14.3859 28.006 14.3849C28.0362 14.3823 28.0642 14.3679 28.084 14.3449C28.1031 14.3224 28.1128 14.2933 28.1109 14.2639C28.1091 14.2344 28.0958 14.2068 28.074 14.1869C28.0513 14.1675 28.0218 14.1578 27.992 14.1599ZM19.98 14.7229C19.9541 14.7277 19.9307 14.7415 19.914 14.7619C19.8981 14.7806 19.8887 14.804 19.8872 14.8286C19.8858 14.8531 19.8924 14.8774 19.906 14.8979C19.919 14.9167 19.9375 14.9311 19.959 14.9389C19.9806 14.9477 20.0043 14.9498 20.027 14.9449C20.0493 14.939 20.0692 14.9264 20.0842 14.9089C20.0992 14.8914 20.1086 14.8698 20.111 14.8469C20.1142 14.8243 20.1104 14.8012 20.1 14.7809C20.0886 14.7604 20.0712 14.744 20.05 14.7339C20.0297 14.7236 20.0066 14.7197 19.984 14.7229H19.98ZM27.98 14.7229C27.9541 14.7277 27.9307 14.7415 27.914 14.7619C27.8981 14.7806 27.8887 14.804 27.8872 14.8286C27.8858 14.8531 27.8924 14.8774 27.906 14.8979C27.919 14.9167 27.9375 14.9311 27.959 14.9389C27.9806 14.9477 28.0043 14.9498 28.027 14.9449C28.0493 14.939 28.0692 14.9264 28.0842 14.9089C28.0992 14.8914 28.1086 14.8698 28.111 14.8469C28.1142 14.8243 28.1104 14.8012 28.1 14.7809C28.0886 14.7604 28.0712 14.744 28.05 14.7339C28.0297 14.7236 28.0066 14.7197 27.984 14.7229H27.98ZM19.98 15.2849C19.9643 15.2875 19.9493 15.2934 19.936 15.3023C19.9227 15.3111 19.9114 15.3227 19.9029 15.3362C19.8944 15.3497 19.8888 15.3648 19.8866 15.3807C19.8844 15.3965 19.8856 15.4126 19.89 15.4279C19.8948 15.4432 19.9028 15.4573 19.9135 15.4693C19.9241 15.4814 19.9372 15.491 19.9518 15.4976C19.9665 15.5042 19.9823 15.5076 19.9984 15.5077C20.0145 15.5077 20.0303 15.5044 20.045 15.4979C20.0644 15.489 20.0808 15.4745 20.0922 15.4564C20.1036 15.4383 20.1094 15.4173 20.109 15.3959C20.109 15.3359 20.061 15.2859 20 15.2859H19.98V15.2849ZM27.98 15.2849C27.9643 15.2875 27.9493 15.2934 27.936 15.3023C27.9227 15.3111 27.9114 15.3227 27.9029 15.3362C27.8944 15.3497 27.8888 15.3648 27.8866 15.3807C27.8844 15.3965 27.8856 15.4126 27.89 15.4279C27.8948 15.4432 27.9028 15.4573 27.9135 15.4693C27.9241 15.4814 27.9372 15.491 27.9518 15.4976C27.9665 15.5042 27.9823 15.5076 27.9984 15.5077C28.0145 15.5077 28.0303 15.5044 28.045 15.4979C28.0644 15.489 28.0808 15.4745 28.0922 15.4564C28.1036 15.4383 28.1094 15.4173 28.109 15.3959C28.109 15.3359 28.061 15.2859 28 15.2859H27.98V15.2849ZM20.002 15.8449C19.9872 15.8447 19.9725 15.8474 19.9588 15.8529C19.9451 15.8584 19.9326 15.8665 19.922 15.8769C19.9117 15.8875 19.9035 15.9001 19.898 15.9139C19.886 15.9412 19.8853 15.9721 19.896 15.9999C19.9015 16.0137 19.9097 16.0263 19.92 16.0369C19.93 16.0469 19.943 16.0549 19.957 16.0609C19.9705 16.0669 19.9851 16.0701 19.9998 16.0705C20.0146 16.0708 20.0293 16.0682 20.043 16.0629C20.0634 16.0541 20.0809 16.0396 20.0933 16.0212C20.1057 16.0027 20.1125 15.9811 20.113 15.9589C20.1132 15.9442 20.1105 15.9296 20.105 15.9159C20.0931 15.8891 20.0718 15.8678 20.045 15.8559C20.0315 15.8498 20.0169 15.8464 20.002 15.8459V15.8449ZM28.002 15.8449C27.9872 15.8447 27.9725 15.8474 27.9588 15.8529C27.9451 15.8584 27.9326 15.8665 27.922 15.8769C27.9117 15.8875 27.9035 15.9001 27.898 15.9139C27.886 15.9412 27.8853 15.9721 27.896 15.9999C27.9015 16.0137 27.9097 16.0263 27.92 16.0369C27.93 16.0469 27.943 16.0549 27.957 16.0609C27.9705 16.0669 27.9851 16.0701 27.9998 16.0705C28.0146 16.0708 28.0293 16.0682 28.043 16.0629C28.0634 16.0541 28.0809 16.0396 28.0933 16.0212C28.1057 16.0027 28.1125 15.9811 28.113 15.9589C28.1132 15.9442 28.1105 15.9296 28.105 15.9159C28.0931 15.8891 28.0718 15.8678 28.045 15.8559C28.0315 15.8498 28.0169 15.8464 28.002 15.8459V15.8449ZM19.992 16.4079C19.9638 16.4096 19.9373 16.4221 19.918 16.4429C19.8982 16.4641 19.8872 16.4919 19.887 16.5209C19.887 16.5829 19.937 16.6339 20 16.6329C20.0147 16.6325 20.0291 16.6292 20.0425 16.6232C20.0559 16.6172 20.068 16.6086 20.078 16.5979C20.0986 16.5756 20.1097 16.5462 20.109 16.5159C20.1075 16.4862 20.0944 16.4583 20.0725 16.4381C20.0506 16.4179 20.0218 16.4071 19.992 16.4079ZM27.992 16.4079C27.9638 16.4096 27.9373 16.4221 27.918 16.4429C27.8982 16.4641 27.8872 16.4919 27.887 16.5209C27.8869 16.5394 27.8915 16.5577 27.9003 16.574C27.909 16.5903 27.9218 16.6042 27.9373 16.6143C27.9528 16.6245 27.9706 16.6306 27.9891 16.6321C28.0075 16.6336 28.0261 16.6304 28.043 16.6229C28.0634 16.6136 28.0805 16.5985 28.0923 16.5794C28.104 16.5604 28.1098 16.5383 28.109 16.5159C28.1081 16.5016 28.1044 16.4877 28.098 16.4749C28.0919 16.4606 28.0831 16.4477 28.072 16.4369C28.0612 16.4274 28.0487 16.4203 28.035 16.4159C28.0214 16.4104 28.0067 16.4077 27.992 16.4079ZM19.992 16.9709C19.9638 16.9726 19.9373 16.9851 19.918 17.0059C19.8982 17.0271 19.8872 17.0549 19.887 17.0839C19.887 17.1459 19.937 17.1959 20 17.1949C20.0147 17.1945 20.0291 17.1912 20.0425 17.1852C20.0559 17.1792 20.068 17.1706 20.078 17.1599C20.0986 17.1376 20.1097 17.1082 20.109 17.0779C20.1072 17.0484 20.094 17.0207 20.0722 17.0007C20.0503 16.9808 20.0216 16.9701 19.992 16.9709ZM27.992 16.9709C27.9638 16.9726 27.9373 16.9851 27.918 17.0059C27.8982 17.0271 27.8872 17.0549 27.887 17.0839C27.8869 17.1024 27.8915 17.1207 27.9003 17.137C27.909 17.1533 27.9218 17.1672 27.9373 17.1773C27.9528 17.1875 27.9706 17.1936 27.9891 17.1951C28.0075 17.1966 28.0261 17.1934 28.043 17.1859C28.0568 17.1797 28.0691 17.1707 28.0793 17.1595C28.0894 17.1484 28.0972 17.1352 28.102 17.1209C28.1072 17.1072 28.1095 17.0925 28.109 17.0779C28.1082 17.063 28.1044 17.0484 28.098 17.0349C28.0918 17.0216 28.0829 17.0097 28.072 16.9999C28.0613 16.9898 28.0488 16.982 28.035 16.9769C28.0212 16.9721 28.0066 16.97 27.992 16.9709ZM16.619 17.2769C16.1949 17.2769 15.7882 17.4454 15.4884 17.7452C15.1885 18.0451 15.02 18.4518 15.02 18.8759C15.02 19.3 15.1885 19.7067 15.4884 20.0066C15.7882 20.3064 16.1949 20.4749 16.619 20.4749C17.0431 20.4749 17.4498 20.3064 17.7497 20.0066C18.0496 19.7067 18.218 19.3 18.218 18.8759C18.218 18.4518 18.0496 18.0451 17.7497 17.7452C17.4498 17.4454 17.0431 17.2769 16.619 17.2769ZM24 17.2769C23.7869 17.2717 23.5748 17.3091 23.3763 17.3868C23.1778 17.4646 22.9969 17.5813 22.844 17.7299C22.691 17.8793 22.5693 18.0576 22.486 18.2546C22.4028 18.4515 22.3596 18.6631 22.359 18.8769C22.3593 19.1983 22.4564 19.5121 22.6377 19.7775C22.8189 20.0429 23.0758 20.2476 23.375 20.3649C23.5925 20.4507 23.8262 20.4877 24.0596 20.4735C24.293 20.4592 24.5204 20.3939 24.7259 20.2823C24.9313 20.1707 25.1098 20.0154 25.2488 19.8273C25.3877 19.6392 25.4838 19.423 25.5302 19.1938C25.5766 18.9647 25.5721 18.7281 25.5172 18.5008C25.4624 18.2735 25.3583 18.061 25.2124 17.8783C25.0666 17.6955 24.8824 17.547 24.6729 17.4431C24.4635 17.3392 24.2338 17.2825 24 17.2769ZM31.38 17.2769C30.9559 17.2777 30.5494 17.4465 30.2495 17.7464C29.9496 18.0463 29.7808 18.4528 29.78 18.8769C29.7799 19.087 29.8212 19.2952 29.9015 19.4893C29.9819 19.6835 30.0998 19.86 30.2484 20.0086C30.397 20.1572 30.5734 20.275 30.7676 20.3554C30.9617 20.4357 31.1699 20.477 31.38 20.4769C31.8044 20.4769 32.2113 20.3083 32.5114 20.0083C32.8114 19.7082 32.98 19.3012 32.98 18.8769C32.98 18.4525 32.8114 18.0456 32.5114 17.7455C32.2113 17.4455 31.8044 17.2769 31.38 17.2769ZM19.992 17.5329C19.9771 17.5341 19.9625 17.5382 19.949 17.5449C19.9358 17.5508 19.9239 17.5593 19.914 17.5699C19.8997 17.587 19.8906 17.6079 19.8878 17.6301C19.8849 17.6522 19.8885 17.6747 19.898 17.6949C19.9042 17.7079 19.9131 17.7195 19.924 17.7289C19.934 17.7389 19.949 17.7469 19.963 17.7519C19.9768 17.7568 19.9914 17.7588 20.006 17.7579C20.0362 17.7553 20.0642 17.7409 20.084 17.7179C20.1031 17.6954 20.1128 17.6663 20.1109 17.6369C20.1091 17.6074 20.0958 17.5798 20.074 17.5599C20.0513 17.5405 20.0218 17.5308 19.992 17.5329ZM27.992 17.5329C27.9771 17.5341 27.9625 17.5382 27.949 17.5449C27.9358 17.5508 27.9239 17.5593 27.914 17.5699C27.8997 17.587 27.8906 17.6079 27.8878 17.6301C27.8849 17.6522 27.8885 17.6747 27.898 17.6949C27.9042 17.7079 27.9131 17.7195 27.924 17.7289C27.934 17.7389 27.949 17.7469 27.963 17.7519C27.9768 17.7568 27.9914 17.7588 28.006 17.7579C28.0362 17.7553 28.0642 17.7409 28.084 17.7179C28.1031 17.6954 28.1128 17.6663 28.1109 17.6369C28.1091 17.6074 28.0958 17.5798 28.074 17.5599C28.0513 17.5405 28.0218 17.5308 27.992 17.5329ZM16.619 17.7379C16.7686 17.7378 16.9167 17.7671 17.055 17.8242C17.1932 17.8813 17.3188 17.9651 17.4247 18.0708C17.5306 18.1765 17.6146 18.302 17.6719 18.4401C17.7293 18.5782 17.7589 18.7263 17.759 18.8759C17.7591 19.0255 17.7298 19.1736 17.6727 19.3118C17.6156 19.4501 17.5318 19.5757 17.4261 19.6816C17.3204 19.7874 17.195 19.8714 17.0568 19.9288C16.9187 19.9862 16.7706 20.0158 16.621 20.0159C16.3189 20.0162 16.0291 19.8964 15.8153 19.683C15.6015 19.4696 15.4813 19.18 15.481 18.8779C15.4808 18.5758 15.6005 18.286 15.8139 18.0722C16.0273 17.8584 16.3169 17.7382 16.619 17.7379ZM24 17.7379C24.1496 17.7378 24.2977 17.7671 24.436 17.8242C24.5742 17.8813 24.6998 17.9651 24.8057 18.0708C24.9116 18.1765 24.9956 18.302 25.0529 18.4401C25.1103 18.5782 25.1399 18.7263 25.14 18.8759C25.1401 19.0255 25.1108 19.1736 25.0537 19.3118C24.9966 19.4501 24.9128 19.5757 24.8071 19.6816C24.7014 19.7874 24.576 19.8714 24.4378 19.9288C24.2997 19.9862 24.1516 20.0158 24.002 20.0159C23.6999 20.0162 23.4101 19.8964 23.1963 19.683C22.9825 19.4696 22.8623 19.18 22.862 18.8779C22.8618 18.5758 22.9815 18.286 23.1949 18.0722C23.4083 17.8584 23.6979 17.7382 24 17.7379ZM31.38 17.7379C31.5336 17.7313 31.6869 17.7557 31.8308 17.8099C31.9747 17.864 32.1061 17.9467 32.2172 18.053C32.3283 18.1592 32.4167 18.2869 32.4772 18.4282C32.5377 18.5695 32.569 18.7216 32.5692 18.8753C32.5694 19.0291 32.5385 19.1812 32.4784 19.3227C32.4183 19.4642 32.3302 19.592 32.2194 19.6986C32.1086 19.8051 31.9773 19.8882 31.8336 19.9427C31.6899 19.9972 31.5366 20.0221 31.383 20.0159C31.2334 20.016 31.0852 19.9867 30.947 19.9295C30.8087 19.8723 30.6831 19.7884 30.5773 19.6826C30.4715 19.5768 30.3876 19.4512 30.3305 19.3129C30.2733 19.1747 30.2439 19.0265 30.244 18.8769C30.244 18.2479 30.752 17.7389 31.381 17.7379H31.38ZM19.992 18.0959C19.9698 18.0975 19.9485 18.1055 19.9307 18.119C19.913 18.1325 19.8995 18.1509 19.892 18.1719C19.8872 18.1859 19.8852 18.2007 19.8862 18.2155C19.8873 18.2303 19.8913 18.2447 19.898 18.2579C19.9043 18.2711 19.9131 18.283 19.924 18.2929C19.9469 18.3119 19.9763 18.3215 20.006 18.3196C20.0357 18.3177 20.0636 18.3046 20.084 18.2829C20.1034 18.2602 20.1131 18.2307 20.111 18.2009C20.1094 18.171 20.0961 18.143 20.074 18.1229C20.0513 18.1035 20.0218 18.0938 19.992 18.0959ZM27.992 18.0959C27.9698 18.0975 27.9485 18.1055 27.9307 18.119C27.913 18.1325 27.8995 18.1509 27.892 18.1719C27.8872 18.1859 27.8852 18.2007 27.8862 18.2155C27.8873 18.2303 27.8913 18.2447 27.898 18.2579C27.9043 18.2711 27.9131 18.283 27.924 18.2929C27.9469 18.3119 27.9763 18.3215 28.006 18.3196C28.0357 18.3177 28.0636 18.3046 28.084 18.2829C28.1034 18.2602 28.1131 18.2307 28.111 18.2009C28.1094 18.171 28.0961 18.143 28.074 18.1229C28.0513 18.1035 28.0218 18.0938 27.992 18.0959ZM19.992 18.6579C19.9641 18.6613 19.9384 18.675 19.92 18.6962C19.9015 18.7175 19.8916 18.7448 19.892 18.7729C19.8933 18.8019 19.9054 18.8294 19.926 18.8499C19.946 18.8699 19.972 18.8809 20 18.8829C20.0147 18.8825 20.0291 18.8792 20.0425 18.8732C20.0559 18.8672 20.068 18.8586 20.078 18.8479C20.0986 18.8256 20.1097 18.7962 20.109 18.7659C20.1075 18.7362 20.0944 18.7083 20.0725 18.6881C20.0506 18.6679 20.0218 18.6571 19.992 18.6579ZM27.992 18.6579C27.9641 18.6613 27.9384 18.675 27.92 18.6962C27.9015 18.7175 27.8916 18.7448 27.892 18.7729C27.8933 18.8019 27.9054 18.8294 27.926 18.8499C27.946 18.8699 27.972 18.8809 28 18.8829C28.0147 18.8826 28.0292 18.8793 28.0426 18.8733C28.056 18.8673 28.068 18.8586 28.078 18.8479C28.0884 18.837 28.0965 18.8241 28.1018 18.81C28.1071 18.7959 28.1096 18.7809 28.109 18.7659C28.1081 18.7516 28.1044 18.7377 28.098 18.7249C28.0919 18.7106 28.0831 18.6977 28.072 18.6869C28.0612 18.6774 28.0487 18.6703 28.035 18.6659C28.0214 18.6604 28.0067 18.6577 27.992 18.6579ZM19.98 19.2209C19.9541 19.2257 19.9307 19.2395 19.914 19.2599C19.898 19.2783 19.8884 19.3014 19.8866 19.3257C19.8848 19.3501 19.8909 19.3743 19.904 19.3949C19.916 19.4129 19.934 19.4269 19.955 19.4349C19.9753 19.4439 19.9978 19.4466 20.0197 19.4429C20.0416 19.4392 20.0618 19.4291 20.078 19.4139C20.0937 19.3981 20.1045 19.378 20.1091 19.3562C20.1137 19.3344 20.112 19.3117 20.104 19.2909C20.0956 19.2702 20.0813 19.2525 20.0627 19.24C20.0442 19.2275 20.0224 19.2209 20 19.2209H19.98ZM27.98 19.2209C27.9541 19.2257 27.9307 19.2395 27.914 19.2599C27.898 19.2783 27.8884 19.3014 27.8866 19.3257C27.8848 19.3501 27.8909 19.3743 27.904 19.3949C27.916 19.4129 27.934 19.4269 27.955 19.4349C27.9753 19.4439 27.9978 19.4466 28.0197 19.4429C28.0416 19.4392 28.0618 19.4291 28.078 19.4139C28.0937 19.3981 28.1045 19.378 28.1091 19.3562C28.1137 19.3344 28.112 19.3117 28.104 19.2909C28.0956 19.2702 28.0813 19.2525 28.0627 19.24C28.0442 19.2275 28.0224 19.2209 28 19.2209H27.98ZM20.002 19.7809C19.9872 19.7807 19.9725 19.7834 19.9588 19.7889C19.9451 19.7944 19.9326 19.8025 19.922 19.8129C19.9117 19.8235 19.9035 19.8361 19.898 19.8499C19.886 19.8772 19.8853 19.9081 19.896 19.9359C19.9015 19.9497 19.9097 19.9623 19.92 19.9729C19.9304 19.9835 19.9429 19.9919 19.9566 19.9976C19.9704 20.0033 19.9851 20.0061 20 20.0059C20.03 20.0059 20.059 19.9959 20.08 19.9749C20.1011 19.9536 20.113 19.9249 20.113 19.8949C20.113 19.8649 20.103 19.8349 20.082 19.8149C20.0609 19.7934 20.0321 19.7812 20.002 19.7809ZM28.002 19.7809C27.9872 19.7807 27.9725 19.7834 27.9588 19.7889C27.9451 19.7944 27.9326 19.8025 27.922 19.8129C27.9117 19.8235 27.9035 19.8361 27.898 19.8499C27.886 19.8772 27.8853 19.9081 27.896 19.9359C27.9015 19.9497 27.9097 19.9623 27.92 19.9729C27.9304 19.9835 27.9429 19.9919 27.9566 19.9976C27.9704 20.0033 27.9851 20.0061 28 20.0059C28.03 20.0059 28.059 19.9959 28.08 19.9749C28.1011 19.9536 28.113 19.9249 28.113 19.8949C28.113 19.8649 28.103 19.8349 28.082 19.8149C28.0609 19.7934 28.0321 19.7812 28.002 19.7809ZM19.992 20.3439C19.9638 20.3456 19.9373 20.3581 19.918 20.3789C19.8982 20.4001 19.8872 20.4279 19.887 20.4569C19.887 20.5189 19.937 20.5689 20 20.5679C20.03 20.5679 20.06 20.5559 20.08 20.5349C20.0901 20.5246 20.0981 20.5124 20.1034 20.499C20.1087 20.4856 20.1113 20.4713 20.111 20.4569C20.111 20.4269 20.101 20.3979 20.081 20.3769C20.0704 20.3663 20.0577 20.358 20.0438 20.3523C20.0299 20.3467 20.015 20.3438 20 20.3439H19.992ZM27.992 20.3439C27.9638 20.3456 27.9373 20.3581 27.918 20.3789C27.8982 20.4001 27.8872 20.4279 27.887 20.4569C27.887 20.5189 27.937 20.5689 28 20.5679C28.03 20.5679 28.06 20.5559 28.08 20.5349C28.0901 20.5246 28.0981 20.5124 28.1034 20.499C28.1087 20.4856 28.1113 20.4713 28.111 20.4569C28.111 20.4269 28.101 20.3979 28.081 20.3769C28.0704 20.3663 28.0577 20.358 28.0438 20.3523C28.0299 20.3467 28.015 20.3438 28 20.3439H27.992ZM19.992 20.9059C19.9625 20.907 19.9345 20.9195 19.914 20.9409C19.904 20.9514 19.8962 20.9638 19.8911 20.9774C19.8859 20.9909 19.8835 21.0054 19.884 21.0199C19.885 21.0489 19.897 21.0769 19.918 21.0979C19.938 21.1179 19.967 21.1309 19.996 21.1309C20.0253 21.1304 20.0532 21.1185 20.0739 21.0978C20.0946 21.0771 20.1065 21.0492 20.107 21.0199C20.107 20.9899 20.098 20.9629 20.078 20.9409C20.0575 20.9196 20.0295 20.9071 20 20.9059H19.992ZM27.992 20.9059C27.9625 20.907 27.9345 20.9195 27.914 20.9409C27.904 20.9514 27.8962 20.9638 27.8911 20.9774C27.8859 20.9909 27.8835 21.0054 27.884 21.0199C27.885 21.0489 27.897 21.0769 27.918 21.0979C27.938 21.1179 27.967 21.1309 27.996 21.1309C28.0253 21.1304 28.0532 21.1185 28.0739 21.0978C28.0946 21.0771 28.1065 21.0492 28.107 21.0199C28.107 20.9899 28.098 20.9629 28.078 20.9409C28.0575 20.9196 28.0295 20.9071 28 20.9059H27.992ZM19.992 21.4689C19.9638 21.4706 19.9373 21.4831 19.918 21.5039C19.8982 21.5251 19.8872 21.5529 19.887 21.5819C19.887 21.6439 19.937 21.6939 20 21.6929C20.0183 21.6927 20.0362 21.688 20.0523 21.6794C20.0684 21.6707 20.0821 21.6583 20.0924 21.6431C20.1026 21.628 20.109 21.6106 20.111 21.5925C20.113 21.5743 20.1106 21.5559 20.104 21.5389C20.0919 21.512 20.0701 21.4906 20.043 21.4789C20.0295 21.4728 20.0149 21.4694 20 21.4689H19.992ZM27.992 21.4689C27.9638 21.4706 27.9373 21.4831 27.918 21.5039C27.8982 21.5251 27.8872 21.5529 27.887 21.5819C27.887 21.6439 27.937 21.6939 28 21.6929C28.0183 21.6927 28.0362 21.688 28.0523 21.6794C28.0684 21.6707 28.0821 21.6583 28.0924 21.6431C28.1026 21.628 28.109 21.6106 28.111 21.5925C28.1131 21.5743 28.1106 21.5559 28.104 21.5389C28.0919 21.512 28.0701 21.4906 28.043 21.4789C28.0295 21.4728 28.0149 21.4694 28 21.4689H27.992ZM19.992 22.0309C19.977 22.0321 19.9624 22.0362 19.949 22.0429C19.9358 22.0488 19.9239 22.0573 19.914 22.0679C19.9045 22.0797 19.8973 22.0933 19.893 22.1079C19.8882 22.1217 19.8861 22.1363 19.887 22.1509C19.8878 22.1655 19.8916 22.1798 19.898 22.1929C19.9041 22.2065 19.913 22.2188 19.924 22.2289C19.934 22.2389 19.949 22.2449 19.963 22.2499C19.984 22.2572 20.0067 22.2581 20.0282 22.2526C20.0497 22.2471 20.0691 22.2354 20.084 22.2189C20.1035 22.1962 20.1132 22.1667 20.111 22.1369C20.1094 22.107 20.0961 22.079 20.074 22.0589C20.0514 22.0391 20.022 22.0291 19.992 22.0309ZM27.992 22.0309C27.977 22.0321 27.9624 22.0362 27.949 22.0429C27.9358 22.0488 27.9239 22.0573 27.914 22.0679C27.9045 22.0797 27.8973 22.0933 27.893 22.1079C27.8882 22.1217 27.8861 22.1363 27.887 22.1509C27.8878 22.1655 27.8916 22.1798 27.898 22.1929C27.9041 22.2065 27.913 22.2188 27.924 22.2289C27.934 22.2389 27.949 22.2449 27.963 22.2499C27.984 22.2572 28.0067 22.2581 28.0282 22.2526C28.0497 22.2471 28.0691 22.2354 28.084 22.2189C28.1035 22.1962 28.1132 22.1667 28.111 22.1369C28.1094 22.107 28.0961 22.079 28.074 22.0589C28.0514 22.0391 28.022 22.0291 27.992 22.0309ZM16.619 22.5109C16.409 22.5109 16.2011 22.5523 16.0071 22.6326C15.8131 22.713 15.6368 22.8307 15.4884 22.9792C15.3399 23.1277 15.2221 23.304 15.1417 23.498C15.0614 23.692 15.02 23.8999 15.02 24.1099C15.02 24.3199 15.0614 24.5278 15.1417 24.7218C15.2221 24.9158 15.3399 25.0921 15.4884 25.2406C15.6368 25.389 15.8131 25.5068 16.0071 25.5872C16.2011 25.6675 16.409 25.7089 16.619 25.7089C17.036 25.6985 17.4325 25.5255 17.7237 25.2268C18.015 24.9282 18.178 24.5275 18.178 24.1104C18.178 23.6932 18.015 23.2926 17.7237 22.994C17.4325 22.6953 17.036 22.5223 16.619 22.5119V22.5109ZM24 22.5109C23.79 22.5109 23.5821 22.5523 23.3881 22.6326C23.1941 22.713 23.0178 22.8307 22.8694 22.9792C22.7209 23.1277 22.6031 23.304 22.5227 23.498C22.4424 23.692 22.401 23.8999 22.401 24.1099C22.401 24.3199 22.4424 24.5278 22.5227 24.7218C22.6031 24.9158 22.7209 25.0921 22.8694 25.2406C23.0178 25.389 23.1941 25.5068 23.3881 25.5872C23.5821 25.6675 23.79 25.7089 24 25.7089C24.417 25.6985 24.8135 25.5255 25.1047 25.2268C25.396 24.9282 25.559 24.5275 25.559 24.1104C25.559 23.6932 25.396 23.2926 25.1047 22.994C24.8135 22.6953 24.417 22.5223 24 22.5119V22.5109ZM31.38 22.5109C30.9559 22.5117 30.5494 22.6805 30.2495 22.9804C29.9496 23.2803 29.7808 23.6868 29.78 24.1109C29.7799 24.321 29.8212 24.5292 29.9015 24.7233C29.9819 24.9175 30.0998 25.094 30.2484 25.2426C30.397 25.3912 30.5734 25.509 30.7676 25.5894C30.9617 25.6697 31.1699 25.711 31.38 25.7109C31.8044 25.7109 32.2113 25.5423 32.5114 25.2423C32.8114 24.9422 32.98 24.5352 32.98 24.1109C32.98 23.6865 32.8114 23.2796 32.5114 22.9795C32.2113 22.6795 31.8044 22.5109 31.38 22.5109ZM19.992 22.5939C19.9698 22.5955 19.9485 22.6035 19.9307 22.617C19.913 22.6305 19.8995 22.6489 19.892 22.6699C19.8872 22.6839 19.8852 22.6987 19.8862 22.7135C19.8873 22.7283 19.8913 22.7427 19.898 22.7559C19.9043 22.7692 19.9131 22.781 19.924 22.7909C19.9469 22.8099 19.9763 22.8195 20.006 22.8176C20.0357 22.8157 20.0636 22.8026 20.084 22.7809C20.1034 22.7582 20.1131 22.7287 20.111 22.6989C20.1094 22.669 20.0961 22.641 20.074 22.6209C20.0513 22.6015 20.0218 22.5918 19.992 22.5939ZM27.992 22.5939C27.9698 22.5955 27.9485 22.6035 27.9307 22.617C27.913 22.6305 27.8995 22.6489 27.892 22.6699C27.8872 22.6839 27.8852 22.6987 27.8862 22.7135C27.8873 22.7283 27.8913 22.7427 27.898 22.7559C27.9043 22.7692 27.9131 22.781 27.924 22.7909C27.9469 22.8099 27.9763 22.8195 28.006 22.8176C28.0357 22.8157 28.0636 22.8026 28.084 22.7809C28.1034 22.7582 28.1131 22.7287 28.111 22.6989C28.1094 22.669 28.0961 22.641 28.074 22.6209C28.0513 22.6015 28.0218 22.5918 27.992 22.5939ZM16.617 22.9999C16.7676 22.9998 16.9167 23.0293 17.0559 23.0868C17.195 23.1444 17.3215 23.2288 17.428 23.3352C17.5345 23.4416 17.619 23.568 17.6767 23.7071C17.7343 23.8462 17.764 23.9953 17.764 24.1459C17.7641 24.2966 17.7346 24.4458 17.677 24.585C17.6194 24.7242 17.5349 24.8507 17.4284 24.9572C17.3218 25.0638 17.1953 25.1483 17.0561 25.2059C16.9169 25.2634 16.7677 25.293 16.617 25.2929C16.4664 25.2929 16.3173 25.2632 16.1782 25.2056C16.0391 25.1479 15.9127 25.0634 15.8063 24.9569C15.6999 24.8504 15.6155 24.7239 15.558 24.5848C15.5004 24.4456 15.4709 24.2965 15.471 24.1459C15.471 23.842 15.5918 23.5505 15.8067 23.3355C16.0216 23.1206 16.3131 22.9999 16.617 22.9999ZM24.007 23.0099C24.1576 23.0098 24.3067 23.0393 24.4459 23.0968C24.585 23.1544 24.7115 23.2388 24.818 23.3452C24.9245 23.4516 25.009 23.578 25.0667 23.7171C25.1243 23.8562 25.154 24.0053 25.154 24.1559C25.1541 24.3065 25.1246 24.4556 25.0671 24.5948C25.0095 24.7339 24.9251 24.8604 24.8187 24.9669C24.7123 25.0734 24.5859 25.1579 24.4468 25.2156C24.3077 25.2732 24.1586 25.3029 24.008 25.3029C23.8574 25.303 23.7081 25.2734 23.5689 25.2159C23.4297 25.1583 23.3032 25.0738 23.1967 24.9672C23.0901 24.8607 23.0057 24.7342 22.9481 24.595C22.8905 24.4558 22.8609 24.3066 22.861 24.1559C22.861 24.0053 22.8907 23.8562 22.9483 23.7171C23.006 23.578 23.0905 23.4516 23.197 23.3452C23.3035 23.2388 23.43 23.1544 23.5692 23.0968C23.7083 23.0393 23.8574 23.0098 24.008 23.0099H24.007ZM31.389 23.0099C31.693 23.0099 31.9844 23.1306 32.1994 23.3455C32.4143 23.5605 32.535 23.852 32.535 24.1559C32.5351 24.3065 32.5056 24.4556 32.4481 24.5948C32.3905 24.7339 32.3061 24.8604 32.1997 24.9669C32.0933 25.0734 31.9669 25.1579 31.8278 25.2156C31.6887 25.2732 31.5396 25.3029 31.389 25.3029C31.2384 25.303 31.0891 25.2734 30.9499 25.2159C30.8107 25.1583 30.6842 25.0738 30.5777 24.9672C30.4711 24.8607 30.3867 24.7342 30.3291 24.595C30.2715 24.4558 30.2419 24.3066 30.242 24.1559C30.242 24.0053 30.2717 23.8562 30.3293 23.7171C30.387 23.578 30.4715 23.4516 30.578 23.3452C30.6845 23.2388 30.811 23.1544 30.9502 23.0968C31.0893 23.0393 31.2384 23.0098 31.389 23.0099ZM19.992 23.1559C19.9625 23.157 19.9345 23.1695 19.914 23.1909C19.904 23.2014 19.8962 23.2138 19.8911 23.2274C19.8859 23.2409 19.8835 23.2554 19.884 23.2699C19.885 23.2989 19.897 23.3269 19.918 23.3479C19.938 23.3679 19.967 23.3809 19.996 23.3809C20.0253 23.3804 20.0532 23.3685 20.0739 23.3478C20.0946 23.3271 20.1065 23.2992 20.107 23.2699C20.107 23.2399 20.098 23.2129 20.078 23.1909C20.0575 23.1696 20.0295 23.1571 20 23.1559H19.992ZM27.992 23.1559C27.9625 23.157 27.9345 23.1695 27.914 23.1909C27.904 23.2014 27.8962 23.2138 27.8911 23.2274C27.8859 23.2409 27.8835 23.2554 27.884 23.2699C27.885 23.2989 27.897 23.3269 27.918 23.3479C27.938 23.3679 27.967 23.3809 27.996 23.3809C28.0253 23.3804 28.0532 23.3685 28.0739 23.3478C28.0946 23.3271 28.1065 23.2992 28.107 23.2699C28.107 23.2399 28.098 23.2129 28.078 23.1909C28.0575 23.1696 28.0295 23.1571 28 23.1559H27.992ZM19.98 23.7189C19.9535 23.7236 19.9295 23.7374 19.912 23.7579C19.901 23.7715 19.8933 23.7875 19.8895 23.8046C19.8857 23.8217 19.8858 23.8395 19.89 23.8565C19.8942 23.8736 19.9022 23.8894 19.9135 23.9028C19.9247 23.9162 19.939 23.9269 19.955 23.9339C19.975 23.9419 19.998 23.9459 20.02 23.9409C20.0418 23.9365 20.0618 23.926 20.0778 23.9106C20.0937 23.8952 20.1049 23.8755 20.11 23.8539C20.1148 23.8321 20.1128 23.8093 20.1044 23.7886C20.096 23.7679 20.0816 23.7503 20.063 23.7379C20.0445 23.7251 20.0225 23.7181 20 23.7179H19.98V23.7189ZM27.98 23.7189C27.9535 23.7236 27.9295 23.7374 27.912 23.7579C27.901 23.7715 27.8933 23.7875 27.8895 23.8046C27.8857 23.8217 27.8858 23.8395 27.89 23.8565C27.8942 23.8736 27.9022 23.8894 27.9135 23.9028C27.9247 23.9162 27.939 23.9269 27.955 23.9339C27.975 23.9419 27.998 23.9459 28.02 23.9409C28.0418 23.9365 28.0618 23.926 28.0778 23.9106C28.0937 23.8952 28.1049 23.8755 28.11 23.8539C28.1148 23.8321 28.1128 23.8093 28.1044 23.7886C28.096 23.7679 28.0816 23.7503 28.063 23.7379C28.0445 23.7251 28.0225 23.7181 28 23.7179H27.98V23.7189ZM19.98 24.2809C19.9537 24.2848 19.9296 24.2979 19.912 24.3179C19.8949 24.3391 19.886 24.3657 19.887 24.3929C19.887 24.4549 19.937 24.5049 20 24.5029C20.061 24.5029 20.11 24.4549 20.111 24.3929C20.111 24.3329 20.061 24.2809 20 24.2809H19.98ZM27.98 24.2809C27.9537 24.2848 27.9296 24.2979 27.912 24.3179C27.8949 24.3391 27.886 24.3657 27.887 24.3929C27.887 24.4549 27.937 24.5049 28 24.5029C28.061 24.5029 28.11 24.4549 28.111 24.3929C28.111 24.3329 28.061 24.2809 28 24.2809H27.98ZM19.992 24.8409C19.963 24.8427 19.9358 24.8556 19.916 24.8769C19.8963 24.8981 19.8856 24.926 19.886 24.9549C19.886 25.0169 19.937 25.0669 20 25.0659C20.0147 25.0655 20.0291 25.0622 20.0425 25.0562C20.0559 25.0502 20.068 25.0416 20.078 25.0309C20.0986 25.0086 20.1097 24.9792 20.109 24.9489C20.1072 24.9194 20.094 24.8917 20.0722 24.8717C20.0503 24.8518 20.0216 24.8411 19.992 24.8419V24.8409ZM27.992 24.8409C27.963 24.8427 27.9358 24.8556 27.916 24.8769C27.8963 24.8981 27.8856 24.926 27.886 24.9549C27.8859 24.9736 27.8904 24.992 27.8992 25.0084C27.9081 25.0248 27.9209 25.0388 27.9365 25.049C27.9522 25.0591 27.9702 25.0652 27.9888 25.0666C28.0074 25.068 28.026 25.0646 28.043 25.0569C28.0568 25.0507 28.0691 25.0417 28.0793 25.0305C28.0894 25.0194 28.0972 25.0062 28.102 24.9919C28.1072 24.9782 28.1095 24.9635 28.109 24.9489C28.1082 24.934 28.1044 24.9194 28.098 24.9059C28.0918 24.8926 28.0829 24.8807 28.072 24.8709C28.0613 24.8608 28.0488 24.853 28.035 24.8479C28.0212 24.8431 28.0066 24.841 27.992 24.8419V24.8409ZM19.992 25.4039C19.9625 25.405 19.9345 25.4175 19.914 25.4389C19.904 25.4494 19.8962 25.4618 19.8911 25.4754C19.8859 25.4889 19.8835 25.5034 19.884 25.5179C19.885 25.5469 19.897 25.5749 19.918 25.5959C19.938 25.6159 19.967 25.6289 19.996 25.6289C20.0253 25.6284 20.0532 25.6165 20.0739 25.5958C20.0946 25.5751 20.1065 25.5472 20.107 25.5179C20.107 25.4879 20.098 25.4609 20.078 25.4389C20.0669 25.4274 20.0535 25.4184 20.0387 25.4123C20.0239 25.4063 20.008 25.4034 19.992 25.4039ZM27.992 25.4039C27.9625 25.405 27.9345 25.4175 27.914 25.4389C27.904 25.4494 27.8962 25.4618 27.8911 25.4754C27.8859 25.4889 27.8835 25.5034 27.884 25.5179C27.885 25.5469 27.897 25.5749 27.918 25.5959C27.938 25.6159 27.967 25.6289 27.996 25.6289C28.0253 25.6284 28.0532 25.6165 28.0739 25.5958C28.0946 25.5751 28.1065 25.5472 28.107 25.5179C28.107 25.4879 28.098 25.4609 28.078 25.4389C28.0669 25.4274 28.0535 25.4184 28.0387 25.4123C28.0239 25.4063 28.008 25.4034 27.992 25.4039ZM19.992 25.9669C19.9638 25.9686 19.9373 25.9811 19.918 26.0019C19.8982 26.0231 19.8872 26.0509 19.887 26.0799C19.887 26.1419 19.937 26.1919 20 26.1909C20.0147 26.1905 20.0291 26.1872 20.0425 26.1812C20.0559 26.1752 20.068 26.1666 20.078 26.1559C20.0986 26.1336 20.1097 26.1042 20.109 26.0739C20.1072 26.0444 20.094 26.0167 20.0722 25.9967C20.0503 25.9768 20.0216 25.9661 19.992 25.9669ZM27.992 25.9669C27.9638 25.9686 27.9373 25.9811 27.918 26.0019C27.8982 26.0231 27.8872 26.0509 27.887 26.0799C27.8869 26.0984 27.8915 26.1167 27.9003 26.133C27.909 26.1493 27.9218 26.1632 27.9373 26.1733C27.9528 26.1835 27.9706 26.1896 27.9891 26.1911C28.0075 26.1926 28.0261 26.1894 28.043 26.1819C28.0568 26.1757 28.0691 26.1667 28.0793 26.1555C28.0894 26.1444 28.0972 26.1312 28.102 26.1169C28.1072 26.1032 28.1095 26.0885 28.109 26.0739C28.1082 26.059 28.1044 26.0444 28.098 26.0309C28.0918 26.0176 28.0829 26.0057 28.072 25.9959C28.0613 25.9858 28.0488 25.978 28.035 25.9729C28.0212 25.9681 28.0066 25.966 27.992 25.9669ZM19.992 26.5289C19.9621 26.5304 19.9341 26.5437 19.914 26.5659C19.8945 26.5886 19.8848 26.6181 19.887 26.6479C19.889 26.6779 19.901 26.7069 19.924 26.7269C19.941 26.7415 19.962 26.7507 19.9842 26.7534C20.0065 26.7561 20.029 26.7521 20.049 26.7419C20.0622 26.7359 20.0741 26.7274 20.084 26.7169C20.0936 26.7051 20.1007 26.6915 20.105 26.6769C20.1099 26.6631 20.1119 26.6485 20.1111 26.6339C20.1102 26.6193 20.1065 26.605 20.1 26.5919C20.0938 26.5786 20.0849 26.5667 20.074 26.5569C20.0626 26.5471 20.0493 26.5396 20.035 26.5349C20.0212 26.5301 20.0066 26.528 19.992 26.5289ZM27.992 26.5289C27.9621 26.5304 27.9341 26.5437 27.914 26.5659C27.8945 26.5886 27.8848 26.6181 27.887 26.6479C27.889 26.6779 27.901 26.7069 27.924 26.7269C27.941 26.7415 27.962 26.7507 27.9842 26.7534C28.0065 26.7561 28.029 26.7521 28.049 26.7419C28.0622 26.7359 28.0741 26.7274 28.084 26.7169C28.0936 26.7051 28.1007 26.6915 28.105 26.6769C28.1099 26.6631 28.1119 26.6485 28.1111 26.6339C28.1102 26.6193 28.1065 26.605 28.1 26.5919C28.0938 26.5786 28.0849 26.5667 28.074 26.5569C28.0626 26.5471 28.0493 26.5396 28.035 26.5349C28.0212 26.5301 28.0066 26.528 27.992 26.5289ZM19.992 27.0919C19.9698 27.0935 19.9485 27.1015 19.9307 27.115C19.913 27.1285 19.8995 27.1469 19.892 27.1679C19.8872 27.1819 19.8852 27.1967 19.8862 27.2115C19.8873 27.2263 19.8913 27.2407 19.898 27.2539C19.9043 27.2672 19.9131 27.279 19.924 27.2889C19.9469 27.3079 19.9763 27.3175 20.006 27.3156C20.0357 27.3137 20.0636 27.3006 20.084 27.2789C20.1034 27.2562 20.1131 27.2267 20.111 27.1969C20.1094 27.167 20.0961 27.139 20.074 27.1189C20.0513 27.0995 20.0218 27.0898 19.992 27.0919ZM27.992 27.0919C27.9698 27.0935 27.9485 27.1015 27.9307 27.115C27.913 27.1285 27.8995 27.1469 27.892 27.1679C27.8872 27.1819 27.8852 27.1967 27.8862 27.2115C27.8873 27.2263 27.8913 27.2407 27.898 27.2539C27.9043 27.2672 27.9131 27.279 27.924 27.2889C27.9469 27.3079 27.9763 27.3175 28.006 27.3156C28.0357 27.3137 28.0636 27.3006 28.084 27.2789C28.1034 27.2562 28.1131 27.2267 28.111 27.1969C28.1094 27.167 28.0961 27.139 28.074 27.1189C28.0513 27.0995 28.0218 27.0898 27.992 27.0919ZM19.992 27.6539C19.977 27.6551 19.9624 27.6592 19.949 27.6659C19.9358 27.6718 19.9239 27.6803 19.914 27.6909C19.9045 27.7027 19.8973 27.7163 19.893 27.7309C19.8882 27.7447 19.8861 27.7593 19.887 27.7739C19.8878 27.7885 19.8916 27.8028 19.898 27.8159C19.9041 27.8295 19.913 27.8418 19.924 27.8519C19.934 27.8619 19.949 27.8679 19.963 27.8729C19.984 27.8802 20.0067 27.8811 20.0282 27.8756C20.0497 27.8701 20.0691 27.8584 20.084 27.8419C20.1035 27.8192 20.1132 27.7897 20.111 27.7599C20.1094 27.73 20.0961 27.702 20.074 27.6819C20.0514 27.6621 20.022 27.6521 19.992 27.6539ZM27.992 27.6539C27.977 27.6551 27.9624 27.6592 27.949 27.6659C27.9358 27.6718 27.9239 27.6803 27.914 27.6909C27.9045 27.7027 27.8973 27.7163 27.893 27.7309C27.8882 27.7447 27.8861 27.7593 27.887 27.7739C27.8878 27.7885 27.8916 27.8028 27.898 27.8159C27.9041 27.8295 27.913 27.8418 27.924 27.8519C27.934 27.8619 27.949 27.8679 27.963 27.8729C27.984 27.8802 28.0067 27.8811 28.0282 27.8756C28.0497 27.8701 28.0691 27.8584 28.084 27.8419C28.1035 27.8192 28.1132 27.7897 28.111 27.7599C28.1094 27.73 28.0961 27.702 28.074 27.6819C28.0514 27.6621 28.022 27.6521 27.992 27.6539ZM16.619 27.7459C16.4054 27.7407 16.1929 27.7782 15.994 27.8564C15.7952 27.9345 15.6139 28.0517 15.461 28.2009C15.3084 28.35 15.1871 28.5281 15.1044 28.7247C15.0216 28.9213 14.979 29.1325 14.979 29.3459C14.9791 29.5591 15.0218 29.7701 15.1045 29.9665C15.1873 30.163 15.3085 30.3409 15.461 30.4899C15.6475 30.672 15.8756 30.8059 16.1255 30.8798C16.3755 30.9536 16.6397 30.9654 16.8952 30.9139C17.1507 30.8624 17.3898 30.7492 17.5916 30.5843C17.7934 30.4194 17.9519 30.2076 18.0532 29.9675C18.1546 29.7274 18.1957 29.4661 18.1731 29.2064C18.1504 28.9468 18.0647 28.6966 17.9233 28.4776C17.782 28.2586 17.5892 28.0775 17.3619 27.95C17.1346 27.8225 16.8796 27.7524 16.619 27.7459ZM24 27.7459C23.7864 27.7405 23.5739 27.7779 23.375 27.8559C23.1764 27.9341 22.9953 28.0513 22.8427 28.2005C22.69 28.3498 22.5687 28.5281 22.486 28.7249C22.4028 28.921 22.3596 29.1318 22.359 29.3449C22.3594 29.5585 22.4024 29.7698 22.4857 29.9664C22.569 30.1631 22.6909 30.3411 22.844 30.4899C22.9962 30.6395 23.1767 30.7571 23.375 30.8359C23.5924 30.9207 23.8257 30.9569 24.0586 30.942C24.2915 30.9272 24.5183 30.8615 24.7231 30.7497C24.9279 30.6379 25.1058 30.4827 25.2443 30.2949C25.3828 30.107 25.4785 29.8912 25.5248 29.6625C25.571 29.4338 25.5667 29.1977 25.5121 28.9709C25.4575 28.744 25.3539 28.5318 25.2086 28.3492C25.0633 28.1666 24.8799 28.018 24.6711 27.9137C24.4623 27.8095 24.2333 27.7522 24 27.7459ZM31.38 27.7459C31.0584 27.7381 30.7419 27.8273 30.4716 28.0019C30.2014 28.1765 29.99 28.4285 29.865 28.7249C29.7404 29.021 29.7078 29.3478 29.7717 29.6626C29.8356 29.9775 29.9928 30.2658 30.223 30.4899C30.4095 30.672 30.6376 30.8059 30.8875 30.8798C31.1375 30.9536 31.4017 30.9654 31.6572 30.9139C31.9127 30.8624 32.1518 30.7492 32.3536 30.5843C32.5554 30.4194 32.7139 30.2076 32.8152 29.9675C32.9166 29.7274 32.9577 29.4661 32.9351 29.2064C32.9124 28.9468 32.8267 28.6966 32.6853 28.4776C32.544 28.2586 32.3512 28.0775 32.1239 27.95C31.8966 27.8225 31.6416 27.7524 31.381 27.7459H31.38ZM31.346 28.2149C31.65 28.2149 31.9414 28.3356 32.1564 28.5505C32.3713 28.7655 32.492 29.057 32.492 29.3609C32.4921 29.5115 32.4626 29.6606 32.4051 29.7998C32.3475 29.9389 32.2631 30.0654 32.1567 30.1719C32.0503 30.2784 31.9239 30.3629 31.7848 30.4206C31.6457 30.4782 31.4966 30.5079 31.346 30.5079C31.1954 30.508 31.0461 30.4784 30.9069 30.4209C30.7677 30.3633 30.6412 30.2788 30.5347 30.1722C30.4281 30.0657 30.3437 29.9392 30.2861 29.8C30.2285 29.6608 30.1989 29.5116 30.199 29.3609C30.199 29.2103 30.2287 29.0612 30.2863 28.9221C30.344 28.783 30.4285 28.6566 30.535 28.5502C30.6415 28.4438 30.768 28.3594 30.9072 28.3018C31.0463 28.2443 31.1954 28.2148 31.346 28.2149ZM19.98 28.2169C19.9536 28.2207 19.9295 28.2338 19.912 28.2539C19.8952 28.2748 19.8863 28.301 19.887 28.3279C19.887 28.3899 19.937 28.4409 20 28.4389C20.061 28.4389 20.11 28.3889 20.111 28.3289C20.111 28.2669 20.061 28.2179 20 28.2169H19.98ZM27.98 28.2169C27.9536 28.2207 27.9295 28.2338 27.912 28.2539C27.8952 28.2748 27.8863 28.301 27.887 28.3279C27.887 28.3899 27.937 28.4409 28 28.4389C28.061 28.4389 28.11 28.3889 28.111 28.3289C28.111 28.2669 28.061 28.2179 28 28.2169H27.98ZM16.566 28.2369C16.7166 28.2368 16.8657 28.2663 17.0049 28.3238C17.144 28.3814 17.2705 28.4658 17.377 28.5722C17.4835 28.6786 17.568 28.805 17.6257 28.9441C17.6833 29.0832 17.713 29.2323 17.713 29.3829C17.713 29.5335 17.6833 29.6826 17.6257 29.8217C17.568 29.9608 17.4835 30.0872 17.377 30.1936C17.2705 30.3 17.144 30.3844 17.0049 30.4419C16.8657 30.4995 16.7166 30.529 16.566 30.5289C16.2621 30.5289 15.9706 30.4082 15.7557 30.1932C15.5408 29.9783 15.42 29.6868 15.42 29.3829C15.4199 29.2323 15.4494 29.0832 15.507 28.944C15.5645 28.8049 15.6489 28.6784 15.7553 28.5719C15.8617 28.4654 15.9881 28.3809 16.1272 28.3232C16.2663 28.2656 16.4154 28.2359 16.566 28.2359V28.2369ZM23.941 28.2369C24.0916 28.2368 24.2407 28.2663 24.3799 28.3238C24.519 28.3814 24.6455 28.4658 24.752 28.5722C24.8585 28.6786 24.943 28.805 25.0007 28.9441C25.0583 29.0832 25.088 29.2323 25.088 29.3829C25.088 29.5335 25.0583 29.6826 25.0007 29.8217C24.943 29.9608 24.8585 30.0872 24.752 30.1936C24.6455 30.3 24.519 30.3844 24.3799 30.4419C24.2407 30.4995 24.0916 30.529 23.941 30.5289C23.6371 30.5289 23.3456 30.4082 23.1307 30.1932C22.9158 29.9783 22.795 29.6868 22.795 29.3829C22.7949 29.2323 22.8244 29.0832 22.882 28.944C22.9395 28.8049 23.0239 28.6784 23.1303 28.5719C23.2367 28.4654 23.3631 28.3809 23.5022 28.3232C23.6413 28.2656 23.7904 28.2359 23.941 28.2359V28.2369ZM20.002 28.7769C19.9862 28.7749 19.9702 28.7763 19.955 28.7809C19.9249 28.7921 19.9005 28.8148 19.887 28.8439C19.8807 28.858 19.8774 28.8734 19.8774 28.8889C19.8774 28.9044 19.8807 28.9197 19.887 28.9339C19.8933 28.9486 19.9025 28.9618 19.914 28.9729C19.9362 28.9929 19.9654 29.0034 19.9952 29.0023C20.0251 29.0012 20.0534 28.9885 20.074 28.9669C20.0932 28.946 20.1038 28.9187 20.1038 28.8904C20.1038 28.8621 20.0932 28.8347 20.074 28.8139C20.0555 28.793 20.0298 28.7798 20.002 28.7769ZM28.002 28.7769C27.9862 28.7749 27.9702 28.7763 27.955 28.7809C27.9249 28.7921 27.9005 28.8148 27.887 28.8439C27.8807 28.858 27.8774 28.8734 27.8774 28.8889C27.8774 28.9044 27.8807 28.9197 27.887 28.9339C27.8933 28.9486 27.9025 28.9618 27.914 28.9729C27.9362 28.9929 27.9654 29.0034 27.9952 29.0023C28.0251 29.0012 28.0534 28.9885 28.074 28.9669C28.0932 28.946 28.1038 28.9187 28.1038 28.8904C28.1038 28.8621 28.0932 28.8347 28.074 28.8139C28.0555 28.793 28.0298 28.7798 28.002 28.7769ZM19.992 29.3399C19.9638 29.3416 19.9373 29.3541 19.918 29.3749C19.8982 29.3961 19.8872 29.4239 19.887 29.4529C19.887 29.5149 19.937 29.5659 20 29.5639C20.0183 29.5637 20.0362 29.559 20.0523 29.5504C20.0684 29.5417 20.0821 29.5293 20.0924 29.5141C20.1026 29.499 20.109 29.4816 20.111 29.4635C20.113 29.4453 20.1106 29.4269 20.104 29.4099C20.0919 29.383 20.0701 29.3616 20.043 29.3499C20.0295 29.3438 20.0149 29.3404 20 29.3399H19.992ZM27.992 29.3399C27.9638 29.3416 27.9373 29.3541 27.918 29.3749C27.8982 29.3961 27.8872 29.4239 27.887 29.4529C27.887 29.5149 27.937 29.5659 28 29.5639C28.0183 29.5637 28.0362 29.559 28.0523 29.5504C28.0684 29.5417 28.0821 29.5293 28.0924 29.5141C28.1026 29.499 28.109 29.4816 28.111 29.4635C28.1131 29.4453 28.1106 29.4269 28.104 29.4099C28.0919 29.383 28.0701 29.3616 28.043 29.3499C28.0295 29.3438 28.0149 29.3404 28 29.3399H27.992ZM19.992 29.9019C19.9625 29.903 19.9345 29.9156 19.914 29.9369C19.904 29.9474 19.8962 29.9598 19.8911 29.9734C19.8859 29.9869 19.8835 30.0014 19.884 30.0159C19.885 30.0449 19.897 30.0729 19.918 30.0939C19.938 30.1139 19.967 30.1269 19.996 30.1269C20.0253 30.1264 20.0532 30.1145 20.0739 30.0938C20.0946 30.0731 20.1065 30.0452 20.107 30.0159C20.107 29.9859 20.098 29.9589 20.078 29.9379C20.0576 29.9163 20.0297 29.9034 20 29.9019H19.992ZM27.992 29.9019C27.9625 29.903 27.9345 29.9156 27.914 29.9369C27.904 29.9474 27.8962 29.9598 27.8911 29.9734C27.8859 29.9869 27.8835 30.0014 27.884 30.0159C27.885 30.0449 27.897 30.0729 27.918 30.0939C27.938 30.1139 27.967 30.1269 27.996 30.1269C28.0253 30.1264 28.0532 30.1145 28.0739 30.0938C28.0946 30.0731 28.1065 30.0452 28.107 30.0159C28.107 29.9859 28.098 29.9589 28.078 29.9379C28.0576 29.9163 28.0297 29.9034 28 29.9019H27.992ZM19.992 30.4649C19.9638 30.4666 19.9373 30.4791 19.918 30.4999C19.8982 30.5211 19.8872 30.5489 19.887 30.5779C19.8867 30.6002 19.8932 30.622 19.9055 30.6406C19.9179 30.6591 19.9356 30.6734 19.9563 30.6817C19.977 30.6899 19.9998 30.6917 20.0215 30.6867C20.0432 30.6818 20.0629 30.6703 20.078 30.6539C20.0883 30.6432 20.0965 30.6307 20.102 30.6169C20.1089 30.5956 20.1097 30.5729 20.1044 30.5512C20.0991 30.5294 20.0879 30.5096 20.072 30.4939C20.0612 30.4845 20.0486 30.4774 20.035 30.4729C20.0213 30.4675 20.0067 30.4647 19.992 30.4649ZM27.992 30.4649C27.9638 30.4666 27.9373 30.4791 27.918 30.4999C27.8982 30.5211 27.8872 30.5489 27.887 30.5779C27.8867 30.6002 27.8932 30.622 27.9055 30.6406C27.9179 30.6591 27.9356 30.6734 27.9563 30.6817C27.977 30.6899 27.9998 30.6917 28.0215 30.6867C28.0432 30.6818 28.0629 30.6703 28.078 30.6539C28.0883 30.6432 28.0965 30.6307 28.102 30.6169C28.1089 30.5956 28.1097 30.5729 28.1044 30.5512C28.0991 30.5294 28.0879 30.5096 28.072 30.4939C28.0612 30.4845 28.0486 30.4774 28.035 30.4729C28.0213 30.4675 28.0067 30.4647 27.992 30.4649ZM19.992 31.0249C19.9634 31.0277 19.937 31.0413 19.918 31.0629C19.8984 31.0834 19.8874 31.1105 19.887 31.1389C19.887 31.1689 19.899 31.1979 19.92 31.2189C19.94 31.2389 19.97 31.2519 20 31.2519C20.0146 31.2518 20.0289 31.2489 20.0423 31.2432C20.0557 31.2375 20.0678 31.2293 20.078 31.2189C20.0991 31.1976 20.111 31.1689 20.111 31.1389C20.1108 31.1234 20.1074 31.1081 20.101 31.0939C20.0953 31.08 20.0868 31.0674 20.076 31.0569C20.0648 31.0463 20.0515 31.0382 20.037 31.0329C20.0227 31.0272 20.0074 31.0245 19.992 31.0249ZM27.992 31.0249C27.9634 31.0277 27.937 31.0413 27.918 31.0629C27.8984 31.0834 27.8874 31.1105 27.887 31.1389C27.887 31.1689 27.899 31.1979 27.92 31.2189C27.94 31.2389 27.97 31.2519 28 31.2519C28.0146 31.2518 28.0289 31.2489 28.0423 31.2432C28.0557 31.2375 28.0678 31.2293 28.078 31.2189C28.0991 31.1976 28.111 31.1689 28.111 31.1389C28.1108 31.1234 28.1074 31.1081 28.101 31.0939C28.0953 31.08 28.0868 31.0674 28.076 31.0569C28.0648 31.0463 28.0515 31.0382 28.037 31.0329C28.0227 31.0272 28.0074 31.0245 27.992 31.0249ZM19.992 31.5879C19.9653 31.5926 19.9411 31.6068 19.924 31.6279C19.9063 31.6488 19.897 31.6755 19.898 31.7029C19.899 31.7309 19.908 31.7569 19.928 31.7769C19.947 31.7969 19.973 31.8099 20 31.8119C20.015 31.8119 20.03 31.8089 20.043 31.8019C20.0701 31.7894 20.0913 31.7668 20.102 31.7389C20.1087 31.7178 20.1094 31.6952 20.1041 31.6737C20.0988 31.6522 20.0877 31.6325 20.072 31.6169C20.0612 31.6075 20.0486 31.6004 20.035 31.5959C20.0213 31.5905 20.0067 31.5877 19.992 31.5879ZM27.992 31.5879C27.9653 31.5926 27.9411 31.6068 27.924 31.6279C27.9063 31.6488 27.897 31.6755 27.898 31.7029C27.899 31.7309 27.908 31.7569 27.928 31.7769C27.947 31.7969 27.973 31.8099 28 31.8119C28.015 31.8119 28.03 31.8089 28.043 31.8019C28.0701 31.7894 28.0913 31.7668 28.102 31.7389C28.1087 31.7178 28.1094 31.6952 28.1041 31.6737C28.0988 31.6522 28.0877 31.6325 28.072 31.6169C28.0612 31.6075 28.0486 31.6004 28.035 31.5959C28.0213 31.5905 28.0067 31.5877 27.992 31.5879ZM19.98 32.1499C19.9532 32.1545 19.9291 32.1688 19.912 32.1899C19.8951 32.21 19.8862 32.2356 19.887 32.2619C19.887 32.2839 19.894 32.3069 19.907 32.3259C19.919 32.3449 19.937 32.3579 19.957 32.3669C19.9771 32.3759 19.9994 32.3787 20.021 32.3749C20.0432 32.3704 20.0636 32.3595 20.0796 32.3435C20.0956 32.3275 20.1065 32.3071 20.111 32.2849C20.1155 32.263 20.1132 32.2403 20.1044 32.2198C20.0957 32.1992 20.0809 32.1818 20.062 32.1699C20.0438 32.1572 20.0222 32.1503 20 32.1499H19.98ZM27.98 32.1499C27.9532 32.1545 27.9291 32.1688 27.912 32.1899C27.8951 32.21 27.8862 32.2356 27.887 32.2619C27.887 32.2839 27.894 32.3069 27.907 32.3259C27.919 32.3449 27.937 32.3579 27.957 32.3669C27.9771 32.3759 27.9994 32.3787 28.021 32.3749C28.0432 32.3704 28.0636 32.3595 28.0796 32.3435C28.0956 32.3275 28.1065 32.3071 28.111 32.2849C28.1155 32.263 28.1132 32.2403 28.1044 32.2198C28.0957 32.1992 28.0809 32.1818 28.062 32.1699C28.0438 32.1572 28.0222 32.1503 28 32.1499H27.98ZM19.98 32.7129C19.9644 32.7155 19.9495 32.7214 19.9363 32.7302C19.9231 32.739 19.9118 32.7504 19.9034 32.7638C19.8949 32.7772 19.8893 32.7923 19.887 32.8079C19.8847 32.8236 19.8857 32.8396 19.89 32.8549C19.897 32.8759 19.91 32.8949 19.926 32.9079C19.9417 32.9223 19.9611 32.932 19.982 32.9359C20.0033 32.9387 20.025 32.9354 20.0444 32.9264C20.0639 32.9174 20.0804 32.903 20.092 32.8849C20.1032 32.8669 20.1091 32.8461 20.109 32.8249C20.1093 32.8104 20.1067 32.7959 20.1013 32.7824C20.096 32.7689 20.088 32.7566 20.0779 32.7462C20.0677 32.7358 20.0556 32.7275 20.0423 32.7217C20.0289 32.716 20.0145 32.713 20 32.7129H19.98ZM27.98 32.7129C27.9644 32.7155 27.9495 32.7214 27.9363 32.7302C27.9231 32.739 27.9118 32.7504 27.9034 32.7638C27.8949 32.7772 27.8893 32.7923 27.887 32.8079C27.8847 32.8236 27.8857 32.8396 27.89 32.8549C27.897 32.8759 27.91 32.8949 27.926 32.9079C27.9417 32.9223 27.9611 32.932 27.982 32.9359C28.0033 32.9387 28.025 32.9354 28.0444 32.9264C28.0639 32.9174 28.0804 32.903 28.092 32.8849C28.1032 32.8669 28.1091 32.8461 28.109 32.8249C28.1093 32.8104 28.1067 32.7959 28.1013 32.7824C28.096 32.7689 28.088 32.7566 28.0779 32.7462C28.0677 32.7358 28.0556 32.7275 28.0423 32.7217C28.0289 32.716 28.0145 32.713 28 32.7129H27.98ZM16.62 32.9799C16.4098 32.9795 16.2016 33.0206 16.0073 33.1009C15.813 33.1811 15.6364 33.299 15.4878 33.4476C15.3391 33.5963 15.2213 33.7728 15.141 33.9671C15.0607 34.1614 15.0196 34.3697 15.02 34.5799C15.0197 34.7898 15.0609 34.9977 15.1412 35.1916C15.2216 35.3855 15.3394 35.5617 15.488 35.7099C15.711 35.9351 15.996 36.0888 16.3067 36.1514C16.6173 36.214 16.9396 36.1827 17.2324 36.0615C17.5252 35.9403 17.7754 35.7347 17.9509 35.4708C18.1264 35.2069 18.2194 34.8968 18.218 34.5799C18.2181 34.3698 18.1769 34.1618 18.0966 33.9677C18.0163 33.7736 17.8985 33.5972 17.75 33.4486C17.6015 33.3 17.4252 33.1821 17.2312 33.1017C17.0371 33.0213 16.8291 32.9799 16.619 32.9799H16.62ZM24 32.9799C23.7868 32.9748 23.5747 33.0124 23.3762 33.0903C23.1777 33.1683 22.9968 33.2851 22.844 33.4339C22.6911 33.5831 22.5695 33.7613 22.4862 33.9581C22.403 34.1549 22.3597 34.3662 22.359 34.5799C22.3593 34.9013 22.4564 35.2151 22.6377 35.4805C22.8189 35.7459 23.0758 35.9506 23.375 36.0679C23.5925 36.1537 23.8262 36.1907 24.0596 36.1765C24.293 36.1622 24.5204 36.0969 24.7259 35.9853C24.9313 35.8737 25.1098 35.7184 25.2488 35.5303C25.3877 35.3422 25.4838 35.126 25.5302 34.8968C25.5766 34.6677 25.5721 34.4311 25.5172 34.2038C25.4624 33.9765 25.3583 33.764 25.2124 33.5813C25.0666 33.3985 24.8824 33.25 24.6729 33.1461C24.4635 33.0422 24.2338 32.9855 24 32.9799ZM31.38 32.9799C30.9559 32.9807 30.5494 33.1495 30.2495 33.4494C29.9496 33.7493 29.7808 34.1558 29.78 34.5799C29.7799 34.79 29.8212 34.9982 29.9015 35.1923C29.9819 35.3865 30.0998 35.563 30.2484 35.7116C30.397 35.8602 30.5734 35.978 30.7676 36.0584C30.9617 36.1387 31.1699 36.18 31.38 36.1799C31.8044 36.1799 32.2113 36.0113 32.5114 35.7113C32.8114 35.4112 32.98 35.0042 32.98 34.5799C32.98 34.1555 32.8114 33.7486 32.5114 33.4485C32.2113 33.1485 31.8044 32.9799 31.38 32.9799ZM20.002 33.2729C19.9872 33.2733 19.9725 33.2767 19.959 33.2829C19.9452 33.2883 19.9326 33.2965 19.922 33.3069C19.9109 33.3181 19.9021 33.3313 19.896 33.3459C19.8908 33.3596 19.8884 33.3742 19.889 33.3889C19.889 33.4489 19.939 33.4989 20.002 33.4979C20.0164 33.4983 20.0308 33.4957 20.0442 33.4904C20.0576 33.485 20.0698 33.4771 20.08 33.4669C20.0906 33.4562 20.0991 33.4437 20.105 33.4299C20.1105 33.4169 20.1132 33.403 20.113 33.3889C20.1134 33.374 20.1109 33.3591 20.1055 33.3452C20.1001 33.3313 20.092 33.3185 20.0817 33.3078C20.0714 33.297 20.059 33.2883 20.0453 33.2823C20.0317 33.2764 20.0169 33.2732 20.002 33.2729ZM28.002 33.2729C27.9872 33.2733 27.9725 33.2767 27.959 33.2829C27.9452 33.2883 27.9326 33.2965 27.922 33.3069C27.9109 33.3181 27.9021 33.3313 27.896 33.3459C27.8908 33.3596 27.8884 33.3742 27.889 33.3889C27.889 33.4489 27.939 33.4989 28.002 33.4979C28.0164 33.4983 28.0308 33.4957 28.0442 33.4904C28.0576 33.485 28.0698 33.4771 28.08 33.4669C28.0906 33.4562 28.0991 33.4437 28.105 33.4299C28.1105 33.4169 28.1132 33.403 28.113 33.3889C28.1134 33.374 28.1109 33.3591 28.1055 33.3452C28.1001 33.3313 28.092 33.3185 28.0817 33.3078C28.0714 33.297 28.059 33.2883 28.0453 33.2823C28.0317 33.2764 28.0169 33.2732 28.002 33.2729ZM23.969 33.4179C24.273 33.4179 24.5644 33.5386 24.7794 33.7535C24.9943 33.9685 25.115 34.26 25.115 34.5639C25.1151 34.7145 25.0856 34.8636 25.0281 35.0028C24.9705 35.1419 24.8861 35.2684 24.7797 35.3749C24.6733 35.4814 24.5469 35.5659 24.4078 35.6236C24.2687 35.6812 24.1196 35.7109 23.969 35.7109C23.8184 35.711 23.6691 35.6814 23.5299 35.6239C23.3907 35.5663 23.2642 35.4818 23.1577 35.3752C23.0511 35.2687 22.9667 35.1422 22.9091 35.003C22.8515 34.8638 22.8219 34.7146 22.822 34.5639C22.822 34.4133 22.8517 34.2642 22.9093 34.1251C22.967 33.986 23.0515 33.8596 23.158 33.7532C23.2645 33.6468 23.391 33.5624 23.5302 33.5048C23.6693 33.4473 23.8184 33.4178 23.969 33.4179ZM16.629 33.4409C16.7796 33.4409 16.9287 33.4706 17.0678 33.5282C17.2069 33.5859 17.3333 33.6704 17.4397 33.7769C17.5461 33.8834 17.6305 34.0099 17.6881 34.149C17.7456 34.2882 17.7751 34.4373 17.775 34.5879C17.7745 34.8915 17.6535 35.1825 17.4387 35.3969C17.2238 35.6114 16.9326 35.7319 16.629 35.7319C16.3253 35.7322 16.0338 35.6118 15.8187 35.3973C15.6037 35.1828 15.4825 34.8917 15.482 34.5879C15.4819 34.4372 15.5115 34.288 15.5691 34.1488C15.6267 34.0096 15.7111 33.8831 15.8177 33.7765C15.9242 33.67 16.0507 33.5855 16.1899 33.5279C16.3291 33.4703 16.4784 33.4408 16.629 33.4409ZM31.381 33.4409C31.5307 33.4408 31.679 33.4701 31.8174 33.5273C31.9557 33.5845 32.0815 33.6683 32.1874 33.7741C32.2934 33.8799 32.3774 34.0054 32.4349 34.1437C32.4923 34.282 32.5219 34.4302 32.522 34.5799C32.5221 34.7296 32.4928 34.8779 32.4356 35.0162C32.3785 35.1546 32.2946 35.2803 32.1888 35.3863C32.0831 35.4922 31.9575 35.5763 31.8192 35.6337C31.6809 35.6911 31.5327 35.7208 31.383 35.7209C31.0807 35.7212 30.7906 35.6013 30.5766 35.3877C30.3626 35.1741 30.2423 34.8842 30.242 34.5819C30.2418 34.2795 30.3616 33.9895 30.5752 33.7755C30.7888 33.5615 31.0787 33.4412 31.381 33.4409ZM19.992 33.8359C19.9638 33.8376 19.9373 33.8501 19.918 33.8709C19.8982 33.8921 19.8872 33.9199 19.887 33.9489C19.887 34.0109 19.937 34.0629 20 34.0609C20.0222 34.0607 20.0438 34.0541 20.0622 34.0417C20.0806 34.0293 20.095 34.0118 20.1035 33.9914C20.1121 33.9709 20.1144 33.9484 20.1102 33.9266C20.106 33.9048 20.0955 33.8847 20.08 33.8689C20.0693 33.8589 20.0567 33.8511 20.043 33.8459C20.0295 33.8398 20.0149 33.8364 20 33.8359H19.992ZM27.992 33.8359C27.9638 33.8376 27.9373 33.8501 27.918 33.8709C27.8982 33.8921 27.8872 33.9199 27.887 33.9489C27.887 34.0109 27.937 34.0629 28 34.0609C28.0222 34.0607 28.0438 34.0541 28.0622 34.0417C28.0806 34.0293 28.095 34.0118 28.1035 33.9914C28.1121 33.9709 28.1144 33.9484 28.1102 33.9266C28.106 33.9048 28.0955 33.8847 28.08 33.8689C28.0693 33.8589 28.0567 33.8511 28.043 33.8459C28.0295 33.8398 28.0149 33.8364 28 33.8359H27.992ZM19.992 34.3979C19.9623 34.3993 19.9343 34.4122 19.914 34.4339C19.9041 34.4443 19.8964 34.4565 19.8912 34.4699C19.8861 34.4833 19.8836 34.4976 19.884 34.5119C19.885 34.5409 19.897 34.5689 19.918 34.5899C19.938 34.6099 19.967 34.6229 19.996 34.6229C20.0253 34.6224 20.0532 34.6105 20.0739 34.5898C20.0946 34.5691 20.1065 34.5412 20.107 34.5119C20.107 34.4819 20.098 34.4549 20.078 34.4339C20.067 34.4222 20.0536 34.413 20.0388 34.4068C20.024 34.4006 20.0081 34.3976 19.992 34.3979ZM27.992 34.3979C27.9623 34.3993 27.9343 34.4122 27.914 34.4339C27.9041 34.4443 27.8964 34.4565 27.8912 34.4699C27.8861 34.4833 27.8836 34.4976 27.884 34.5119C27.885 34.5409 27.897 34.5689 27.918 34.5899C27.938 34.6099 27.967 34.6229 27.996 34.6229C28.0253 34.6224 28.0532 34.6105 28.0739 34.5898C28.0946 34.5691 28.1065 34.5412 28.107 34.5119C28.107 34.4819 28.098 34.4549 28.078 34.4339C28.067 34.4222 28.0536 34.413 28.0388 34.4068C28.024 34.4006 28.0081 34.3976 27.992 34.3979ZM19.992 34.9609C19.9774 34.9613 19.963 34.9646 19.9497 34.9706C19.9363 34.9766 19.9243 34.9852 19.9144 34.9959C19.9044 35.0066 19.8967 35.0192 19.8916 35.033C19.8866 35.0467 19.8843 35.0613 19.885 35.0759C19.885 35.1059 19.898 35.1339 19.92 35.1539C19.9416 35.1746 19.9705 35.1861 20.0004 35.1857C20.0304 35.1853 20.059 35.1732 20.08 35.1519C20.0902 35.1413 20.0982 35.1287 20.1035 35.115C20.1088 35.1013 20.1114 35.0866 20.111 35.0719C20.111 35.0419 20.101 35.0149 20.081 34.9939C20.0694 34.9823 20.0555 34.9734 20.0401 34.9677C20.0248 34.962 20.0084 34.9597 19.992 34.9609ZM27.992 34.9609C27.9774 34.9613 27.963 34.9646 27.9497 34.9706C27.9363 34.9766 27.9243 34.9852 27.9144 34.9959C27.9044 35.0066 27.8967 35.0192 27.8916 35.033C27.8866 35.0467 27.8843 35.0613 27.885 35.0759C27.885 35.1059 27.898 35.1339 27.92 35.1539C27.9416 35.1746 27.9705 35.1861 28.0004 35.1857C28.0304 35.1853 28.059 35.1732 28.08 35.1519C28.0902 35.1413 28.0982 35.1287 28.1035 35.115C28.1088 35.1013 28.1114 35.0866 28.111 35.0719C28.111 35.0419 28.101 35.0149 28.081 34.9939C28.0694 34.9823 28.0555 34.9734 28.0401 34.9677C28.0248 34.962 28.0084 34.9597 27.992 34.9609ZM19.992 35.5229C19.9623 35.5243 19.9343 35.5372 19.914 35.5589C19.9041 35.5693 19.8964 35.5815 19.8912 35.5949C19.8861 35.6083 19.8836 35.6226 19.884 35.6369C19.885 35.6659 19.897 35.6939 19.918 35.7149C19.938 35.7349 19.967 35.7479 19.996 35.7479C20.0253 35.7474 20.0532 35.7355 20.0739 35.7148C20.0946 35.6941 20.1065 35.6662 20.107 35.6369C20.107 35.6069 20.098 35.5799 20.078 35.5589C20.067 35.5472 20.0536 35.538 20.0388 35.5318C20.024 35.5256 20.0081 35.5226 19.992 35.5229ZM27.992 35.5229C27.9623 35.5243 27.9343 35.5372 27.914 35.5589C27.9041 35.5693 27.8964 35.5815 27.8912 35.5949C27.8861 35.6083 27.8836 35.6226 27.884 35.6369C27.885 35.6659 27.897 35.6939 27.918 35.7149C27.938 35.7349 27.967 35.7479 27.996 35.7479C28.0253 35.7474 28.0532 35.7355 28.0739 35.7148C28.0946 35.6941 28.1065 35.6662 28.107 35.6369C28.107 35.6069 28.098 35.5799 28.078 35.5589C28.067 35.5472 28.0536 35.538 28.0388 35.5318C28.024 35.5256 28.0081 35.5226 27.992 35.5229ZM19.992 36.0859C19.977 36.0871 19.9624 36.0912 19.949 36.0979C19.9358 36.1038 19.9239 36.1123 19.914 36.1229C19.895 36.1458 19.8854 36.1751 19.8873 36.2049C19.8892 36.2346 19.9023 36.2625 19.924 36.2829C19.9468 36.3024 19.9761 36.3124 20.006 36.3109C20.0362 36.3083 20.0642 36.2939 20.084 36.2709C20.1031 36.2484 20.1128 36.2193 20.1109 36.1899C20.1091 36.1604 20.0958 36.1328 20.074 36.1129C20.0513 36.0935 20.0218 36.0838 19.992 36.0859ZM27.992 36.0859C27.977 36.0871 27.9624 36.0912 27.949 36.0979C27.9358 36.1038 27.9239 36.1123 27.914 36.1229C27.895 36.1458 27.8855 36.1751 27.8873 36.2049C27.8892 36.2346 27.9023 36.2625 27.924 36.2829C27.9468 36.3024 27.9761 36.3124 28.006 36.3109C28.0362 36.3083 28.0642 36.2939 28.084 36.2709C28.1031 36.2484 28.1128 36.2193 28.1109 36.1899C28.1091 36.1604 28.0958 36.1328 28.074 36.1129C28.0513 36.0935 28.0218 36.0838 27.992 36.0859ZM19.992 36.6479C19.9698 36.6484 19.9482 36.6555 19.9301 36.6684C19.9119 36.6812 19.898 36.6991 19.89 36.7199C19.8847 36.7339 19.8824 36.7489 19.883 36.7639C19.883 36.7779 19.888 36.7939 19.895 36.8069C19.9009 36.8207 19.9094 36.8333 19.92 36.8439C19.93 36.8539 19.943 36.8599 19.957 36.8649C19.9742 36.8717 19.9928 36.8742 20.0113 36.8723C20.0297 36.8703 20.0473 36.8638 20.0627 36.8535C20.078 36.8431 20.0906 36.8292 20.0994 36.8129C20.1082 36.7966 20.1129 36.7784 20.113 36.7599C20.1126 36.7446 20.1092 36.7295 20.1028 36.7155C20.0965 36.7016 20.0874 36.689 20.0761 36.6787C20.0648 36.6683 20.0515 36.6603 20.0371 36.6552C20.0226 36.6501 20.0073 36.6479 19.992 36.6489V36.6479ZM27.992 36.6479C27.9773 36.6485 27.9628 36.6519 27.9494 36.6581C27.936 36.6643 27.924 36.6731 27.914 36.6839C27.9038 36.6945 27.8959 36.7071 27.8906 36.7208C27.8852 36.7345 27.8827 36.7492 27.883 36.7639C27.883 36.7939 27.898 36.8239 27.92 36.8439C27.942 36.8639 27.97 36.8739 28 36.8729C28.0299 36.8726 28.0585 36.8606 28.0796 36.8395C28.1008 36.8184 28.1128 36.7898 28.113 36.7599C28.1126 36.7446 28.1092 36.7295 28.1028 36.7155C28.0965 36.7016 28.0874 36.689 28.0761 36.6787C28.0648 36.6683 28.0515 36.6603 28.0371 36.6552C28.0226 36.6501 28.0073 36.6479 27.992 36.6489V36.6479ZM19.98 37.2109C19.9535 37.2154 19.9294 37.2293 19.912 37.2499C19.8952 37.2701 19.8863 37.2957 19.887 37.3219C19.887 37.3839 19.937 37.4359 20 37.4339C20.061 37.4339 20.11 37.3819 20.111 37.3219C20.111 37.2599 20.061 37.2119 20 37.2109H19.98ZM27.98 37.2109C27.9535 37.2154 27.9294 37.2293 27.912 37.2499C27.8952 37.2701 27.8863 37.2957 27.887 37.3219C27.887 37.3839 27.937 37.4359 28 37.4339C28.061 37.4339 28.11 37.3819 28.111 37.3219C28.111 37.2599 28.061 37.2119 28 37.2109H27.98ZM19.992 37.7709C19.9623 37.7723 19.9343 37.7852 19.914 37.8069C19.9041 37.8173 19.8964 37.8295 19.8912 37.8429C19.8861 37.8563 19.8836 37.8706 19.884 37.8849C19.884 37.8994 19.8869 37.9138 19.8925 37.9272C19.8981 37.9406 19.9063 37.9528 19.9166 37.963C19.9269 37.9733 19.9392 37.9813 19.9526 37.9868C19.9661 37.9923 19.9805 37.995 19.995 37.9949C20.0096 37.9952 20.0241 37.9925 20.0377 37.9871C20.0513 37.9817 20.0637 37.9736 20.0741 37.9634C20.0845 37.9531 20.0928 37.9409 20.0985 37.9275C20.1041 37.914 20.107 37.8995 20.107 37.8849C20.107 37.8549 20.098 37.8279 20.078 37.8069C20.067 37.7952 20.0536 37.786 20.0388 37.7798C20.024 37.7736 20.0081 37.7706 19.992 37.7709ZM27.992 37.7709C27.9623 37.7723 27.9343 37.7852 27.914 37.8069C27.9041 37.8173 27.8964 37.8295 27.8912 37.8429C27.8861 37.8563 27.8836 37.8706 27.884 37.8849C27.884 37.8994 27.8869 37.9138 27.8925 37.9272C27.8981 37.9406 27.9063 37.9528 27.9166 37.963C27.9269 37.9733 27.9392 37.9813 27.9526 37.9868C27.9661 37.9923 27.9805 37.995 27.995 37.9949C28.0096 37.9952 28.0241 37.9925 28.0377 37.9871C28.0513 37.9817 28.0637 37.9736 28.0741 37.9634C28.0845 37.9531 28.0928 37.9409 28.0985 37.9275C28.1041 37.914 28.107 37.8995 28.107 37.8849C28.107 37.8549 28.098 37.8279 28.078 37.8069C28.067 37.7952 28.0536 37.786 28.0388 37.7798C28.024 37.7736 28.0081 37.7706 27.992 37.7709ZM19.992 38.3339C19.9638 38.3356 19.9373 38.3481 19.918 38.3689C19.8982 38.3901 19.8872 38.4179 19.887 38.4469C19.887 38.5089 19.937 38.5609 20 38.5589C20.061 38.5589 20.11 38.5069 20.111 38.4469C20.1109 38.4314 20.1075 38.416 20.101 38.4019C20.095 38.3877 20.0863 38.3748 20.0753 38.364C20.0643 38.3532 20.0513 38.3447 20.037 38.3389C20.0225 38.3341 20.0072 38.3324 19.992 38.3339ZM27.992 38.3339C27.9638 38.3356 27.9373 38.3481 27.918 38.3689C27.8982 38.3901 27.8872 38.4179 27.887 38.4469C27.887 38.5089 27.937 38.5609 28 38.5589C28.061 38.5589 28.11 38.5069 28.111 38.4469C28.1109 38.4314 28.1075 38.416 28.101 38.4019C28.095 38.3877 28.0863 38.3748 28.0753 38.364C28.0643 38.3532 28.0513 38.3447 28.037 38.3389C28.0225 38.3341 28.0072 38.3324 27.992 38.3339ZM19.992 38.8959C19.9623 38.8973 19.9343 38.9102 19.914 38.9319C19.9041 38.9423 19.8964 38.9545 19.8912 38.9679C19.8861 38.9813 19.8836 38.9956 19.884 39.0099C19.884 39.0244 19.8869 39.0388 19.8925 39.0522C19.8981 39.0656 19.9063 39.0778 19.9166 39.088C19.9269 39.0983 19.9392 39.1063 19.9526 39.1118C19.9661 39.1173 19.9805 39.12 19.995 39.1199C20.0096 39.1202 20.0241 39.1175 20.0377 39.1121C20.0513 39.1067 20.0637 39.0986 20.0741 39.0884C20.0845 39.0781 20.0928 39.0659 20.0985 39.0525C20.1041 39.039 20.107 39.0245 20.107 39.0099C20.107 38.9799 20.098 38.9529 20.078 38.9319C20.067 38.9202 20.0536 38.911 20.0388 38.9048C20.024 38.8986 20.0081 38.8956 19.992 38.8959ZM27.992 38.8959C27.9623 38.8973 27.9343 38.9102 27.914 38.9319C27.9041 38.9423 27.8964 38.9545 27.8912 38.9679C27.8861 38.9813 27.8836 38.9956 27.884 39.0099C27.884 39.0244 27.8869 39.0388 27.8925 39.0522C27.8981 39.0656 27.9063 39.0778 27.9166 39.088C27.9269 39.0983 27.9392 39.1063 27.9526 39.1118C27.9661 39.1173 27.9805 39.12 27.995 39.1199C28.0096 39.1202 28.0241 39.1175 28.0377 39.1121C28.0513 39.1067 28.0637 39.0986 28.0741 39.0884C28.0845 39.0781 28.0928 39.0659 28.0985 39.0525C28.1041 39.039 28.107 39.0245 28.107 39.0099C28.107 38.9799 28.098 38.9529 28.078 38.9319C28.067 38.9202 28.0536 38.911 28.0388 38.9048C28.024 38.8986 28.0081 38.8956 27.992 38.8959ZM19.992 39.4589C19.9771 39.4601 19.9625 39.4642 19.949 39.4709C19.9358 39.4768 19.9239 39.4853 19.914 39.4959C19.895 39.5188 19.8854 39.5481 19.8873 39.5779C19.8892 39.6076 19.9023 39.6355 19.924 39.6559C19.9468 39.6754 19.9761 39.6854 20.006 39.6839C20.0362 39.6813 20.0642 39.6669 20.084 39.6439C20.1031 39.6214 20.1128 39.5923 20.1109 39.5629C20.1091 39.5334 20.0958 39.5058 20.074 39.4859C20.0513 39.4665 20.0218 39.4568 19.992 39.4589ZM27.992 39.4589C27.9771 39.4601 27.9625 39.4642 27.949 39.4709C27.9358 39.4768 27.9239 39.4853 27.914 39.4959C27.895 39.5188 27.8855 39.5481 27.8873 39.5779C27.8892 39.6076 27.9023 39.6355 27.924 39.6559C27.9468 39.6754 27.9761 39.6854 28.006 39.6839C28.0362 39.6813 28.0642 39.6669 28.084 39.6439C28.1031 39.6214 28.1128 39.5923 28.1109 39.5629C28.1091 39.5334 28.0958 39.5058 28.074 39.4859C28.0513 39.4665 28.0218 39.4568 27.992 39.4589ZM19.992 40.0209C19.9772 40.0218 19.9626 40.0256 19.9492 40.0321C19.9358 40.0386 19.9239 40.0477 19.914 40.0589C19.8945 40.0816 19.8848 40.1111 19.887 40.1409C19.889 40.1709 19.901 40.1989 19.924 40.2189C19.941 40.2335 19.962 40.2427 19.9842 40.2454C20.0065 40.2481 20.029 40.2441 20.049 40.2339C20.0622 40.2279 20.0741 40.2194 20.084 40.2089C20.0936 40.1971 20.1007 40.1835 20.105 40.1689C20.1099 40.1551 20.1119 40.1405 20.1111 40.1259C20.1102 40.1113 20.1065 40.097 20.1 40.0839C20.0938 40.0706 20.0849 40.0587 20.074 40.0489C20.0626 40.0391 20.0493 40.0316 20.035 40.0269C20.0212 40.0221 20.0066 40.02 19.992 40.0209ZM27.992 40.0209C27.9772 40.0218 27.9626 40.0256 27.9492 40.0321C27.9358 40.0386 27.9239 40.0477 27.914 40.0589C27.8945 40.0816 27.8848 40.1111 27.887 40.1409C27.889 40.1709 27.901 40.1989 27.924 40.2189C27.941 40.2335 27.962 40.2427 27.9842 40.2454C28.0065 40.2481 28.029 40.2441 28.049 40.2339C28.0622 40.2279 28.0741 40.2194 28.084 40.2089C28.0936 40.1971 28.1007 40.1835 28.105 40.1689C28.1099 40.1551 28.1119 40.1405 28.1111 40.1259C28.1102 40.1113 28.1065 40.097 28.1 40.0839C28.0938 40.0706 28.0849 40.0587 28.074 40.0489C28.0626 40.0391 28.0493 40.0316 28.035 40.0269C28.0212 40.0221 28.0066 40.02 27.992 40.0209ZM19.992 40.5839C19.9771 40.5851 19.9625 40.5892 19.949 40.5959C19.9358 40.6018 19.9239 40.6103 19.914 40.6209C19.895 40.6438 19.8854 40.6731 19.8873 40.7029C19.8892 40.7326 19.9023 40.7605 19.924 40.7809C19.9468 40.8004 19.9761 40.8104 20.006 40.8089C20.0362 40.8063 20.0642 40.7919 20.084 40.7689C20.1031 40.7464 20.1128 40.7173 20.1109 40.6879C20.1091 40.6584 20.0958 40.6308 20.074 40.6109C20.0513 40.5915 20.0218 40.5818 19.992 40.5839ZM27.992 40.5839C27.9771 40.5851 27.9625 40.5892 27.949 40.5959C27.9358 40.6018 27.9239 40.6103 27.914 40.6209C27.895 40.6438 27.8855 40.6731 27.8873 40.7029C27.8892 40.7326 27.9023 40.7605 27.924 40.7809C27.9468 40.8004 27.9761 40.8104 28.006 40.8089C28.0362 40.8063 28.0642 40.7919 28.084 40.7689C28.1031 40.7464 28.1128 40.7173 28.1109 40.6879C28.1091 40.6584 28.0958 40.6308 28.074 40.6109C28.0513 40.5915 28.0218 40.5818 27.992 40.5839ZM19.98 41.1459C19.9532 41.1505 19.9291 41.1648 19.912 41.1859C19.8965 41.2047 19.8874 41.228 19.8864 41.2524C19.8853 41.2768 19.8922 41.3008 19.906 41.3209C19.9179 41.3398 19.9353 41.3546 19.9559 41.3633C19.9764 41.3721 19.9991 41.3744 20.021 41.3699C20.0436 41.3663 20.0646 41.3558 20.081 41.3399C20.0965 41.3239 20.107 41.3038 20.1112 41.2819C20.1155 41.2601 20.1133 41.2375 20.105 41.2169C20.096 41.196 20.081 41.1783 20.062 41.1659C20.0438 41.1532 20.0222 41.1463 20 41.1459H19.98ZM27.98 41.1459C27.9532 41.1505 27.9291 41.1648 27.912 41.1859C27.8965 41.2047 27.8874 41.228 27.8864 41.2524C27.8853 41.2768 27.8922 41.3008 27.906 41.3209C27.9179 41.3398 27.9353 41.3546 27.9559 41.3633C27.9764 41.3721 27.9991 41.3744 28.021 41.3699C28.0436 41.3663 28.0646 41.3558 28.081 41.3399C28.0965 41.3239 28.107 41.3038 28.1112 41.2819C28.1155 41.2601 28.1133 41.2375 28.105 41.2169C28.096 41.196 28.081 41.1783 28.062 41.1659C28.0438 41.1532 28.0222 41.1463 28 41.1459H27.98ZM19.98 41.7089C19.9535 41.7134 19.9294 41.7273 19.912 41.7479C19.8952 41.7681 19.8863 41.7937 19.887 41.8199C19.887 41.8819 19.937 41.9339 20 41.9319C20.061 41.9319 20.11 41.8799 20.111 41.8199C20.111 41.7579 20.061 41.7099 20 41.7089H19.98ZM27.98 41.7089C27.9535 41.7134 27.9294 41.7273 27.912 41.7479C27.8952 41.7681 27.8863 41.7937 27.887 41.8199C27.887 41.8819 27.937 41.9339 28 41.9319C28.061 41.9319 28.11 41.8799 28.111 41.8199C28.111 41.7579 28.061 41.7099 28 41.7089H27.98ZM20.002 42.2689C19.9872 42.2687 19.9725 42.2714 19.9588 42.2769C19.9451 42.2824 19.9326 42.2905 19.922 42.3009C19.9117 42.3115 19.9035 42.3241 19.898 42.3379C19.886 42.3652 19.8853 42.3961 19.896 42.4239C19.9015 42.4377 19.9097 42.4503 19.92 42.4609C19.93 42.4709 19.943 42.4789 19.957 42.4839C19.971 42.4899 19.985 42.4939 20 42.4939C20.0296 42.4936 20.0579 42.4819 20.0789 42.4612C20.1 42.4405 20.1122 42.4124 20.113 42.3829C20.113 42.3529 20.103 42.3239 20.082 42.3029C20.0607 42.2818 20.032 42.27 20.002 42.2699V42.2689ZM28.002 42.2689C27.9872 42.2687 27.9725 42.2714 27.9588 42.2769C27.9451 42.2824 27.9326 42.2905 27.922 42.3009C27.9117 42.3115 27.9035 42.3241 27.898 42.3379C27.886 42.3652 27.8853 42.3961 27.896 42.4239C27.9015 42.4377 27.9097 42.4503 27.92 42.4609C27.93 42.4709 27.943 42.4789 27.957 42.4839C27.971 42.4899 27.985 42.4939 28 42.4939C28.0296 42.4936 28.0579 42.4819 28.0789 42.4612C28.1 42.4405 28.1122 42.4124 28.113 42.3829C28.113 42.3529 28.103 42.3239 28.082 42.3029C28.0607 42.2818 28.032 42.27 28.002 42.2699V42.2689ZM19.992 42.8319C19.9625 42.833 19.9345 42.8456 19.914 42.8669C19.9041 42.8773 19.8964 42.8895 19.8912 42.9029C19.8861 42.9163 19.8836 42.9306 19.884 42.9449C19.885 42.9749 19.897 43.0029 19.918 43.0229C19.938 43.0429 19.967 43.0569 19.996 43.0569C20.0255 43.0564 20.0535 43.0444 20.0743 43.0235C20.095 43.0025 20.1068 42.9743 20.107 42.9449C20.107 42.9149 20.098 42.8879 20.078 42.8669C20.0669 42.8554 20.0535 42.8464 20.0387 42.8403C20.0239 42.8343 20.008 42.8314 19.992 42.8319ZM27.992 42.8319C27.9625 42.833 27.9345 42.8456 27.914 42.8669C27.9041 42.8773 27.8964 42.8895 27.8912 42.9029C27.8861 42.9163 27.8836 42.9306 27.884 42.9449C27.885 42.9749 27.897 43.0029 27.918 43.0229C27.938 43.0429 27.967 43.0569 27.996 43.0569C28.0255 43.0564 28.0535 43.0444 28.0743 43.0235C28.095 43.0025 28.1068 42.9743 28.107 42.9449C28.107 42.9149 28.098 42.8879 28.078 42.8669C28.0669 42.8554 28.0535 42.8464 28.0387 42.8403C28.0239 42.8343 28.008 42.8314 27.992 42.8319Z" fill="#333333"/>
</svg>
