<svg width="48" height="48" viewBox="0 0 48 48" fill="none" xmlns="http://www.w3.org/2000/svg">
<path fill-rule="evenodd" clip-rule="evenodd" d="M0 0.000244141V48.0002H48V0.000244141H0ZM23.997 3.98624C27.265 3.97624 30.533 3.97624 33.851 4.01924C34.721 4.01924 35.419 4.71924 35.419 5.58824V42.4492C35.419 43.3192 34.72 44.0192 33.851 44.0192H14.146C13.276 44.0192 12.579 43.3192 12.579 42.4492V5.58824C12.579 4.71824 13.276 4.01924 14.146 4.01924C17.462 4.01924 20.73 3.99724 23.997 3.98624ZM19.991 5.05424C19.9762 5.05516 19.9618 5.05898 19.9485 5.06549C19.9352 5.07199 19.9233 5.08105 19.9135 5.09214C19.9037 5.10324 19.8962 5.11616 19.8914 5.13016C19.8866 5.14416 19.8846 5.15897 19.8855 5.17374C19.8864 5.18852 19.8902 5.20297 19.8967 5.21626C19.9032 5.22956 19.9123 5.24145 19.9234 5.25124C19.9345 5.26104 19.9474 5.26855 19.9614 5.27336C19.9754 5.27816 19.9902 5.28016 20.005 5.27924C20.0347 5.27739 20.0625 5.26381 20.0821 5.24149C20.1018 5.21917 20.1119 5.18995 20.11 5.16024C20.1081 5.13054 20.0946 5.10279 20.0722 5.0831C20.0499 5.06341 20.0207 5.05339 19.991 5.05524V5.05424ZM27.991 5.05424C27.9762 5.05516 27.9618 5.05898 27.9485 5.06549C27.9352 5.07199 27.9233 5.08105 27.9135 5.09214C27.9037 5.10324 27.8962 5.11616 27.8914 5.13016C27.8866 5.14416 27.8846 5.15897 27.8855 5.17374C27.8864 5.18852 27.8902 5.20297 27.8967 5.21626C27.9032 5.22956 27.9123 5.24145 27.9234 5.25124C27.9345 5.26104 27.9474 5.26855 27.9614 5.27336C27.9754 5.27816 27.9902 5.28016 28.005 5.27924C28.0347 5.27739 28.0625 5.26381 28.0821 5.24149C28.1018 5.21917 28.1119 5.18995 28.11 5.16024C28.1081 5.13054 28.0946 5.10279 28.0722 5.0831C28.0499 5.06341 28.0207 5.05339 27.991 5.05524V5.05424ZM19.991 5.61724C19.9755 5.61724 19.9602 5.62042 19.946 5.62658C19.9318 5.63274 19.9191 5.64175 19.9085 5.65304C19.8979 5.66434 19.8898 5.67769 19.8846 5.69227C19.8794 5.70684 19.8772 5.72232 19.8783 5.73776C19.8793 5.7532 19.8835 5.76826 19.8906 5.78201C19.8976 5.79577 19.9075 5.80792 19.9195 5.81771C19.9314 5.82751 19.9453 5.83474 19.9602 5.83896C19.9751 5.84318 19.9907 5.8443 20.006 5.84224C20.0344 5.83844 20.0603 5.82398 20.0785 5.80178C20.0966 5.77959 20.1057 5.75133 20.1037 5.72273C20.1018 5.69412 20.0891 5.66731 20.0682 5.64773C20.0473 5.62814 20.0197 5.61724 19.991 5.61724ZM27.991 5.61724C27.9755 5.61724 27.9602 5.62042 27.946 5.62658C27.9318 5.63274 27.9191 5.64175 27.9085 5.65304C27.8979 5.66434 27.8898 5.67769 27.8846 5.69227C27.8794 5.70684 27.8772 5.72232 27.8783 5.73776C27.8793 5.7532 27.8835 5.76826 27.8906 5.78201C27.8976 5.79577 27.9075 5.80792 27.9195 5.81771C27.9314 5.82751 27.9453 5.83474 27.9602 5.83896C27.9751 5.84318 27.9907 5.8443 28.006 5.84224C28.0344 5.83844 28.0603 5.82398 28.0785 5.80178C28.0966 5.77959 28.1057 5.75133 28.1037 5.72273C28.1018 5.69412 28.0891 5.66731 28.0682 5.64773C28.0473 5.62814 28.0197 5.61724 27.991 5.61724ZM17.577 6.12124C17.4524 6.12319 17.3295 6.14972 17.2152 6.19931C17.1009 6.24891 16.9975 6.32059 16.911 6.41024L15.103 8.26724C15.016 8.35637 14.9475 8.46181 14.9014 8.57751C14.8553 8.69321 14.8325 8.81687 14.8344 8.9414C14.8362 9.06593 14.8627 9.18886 14.9122 9.30313C14.9618 9.4174 15.0334 9.52075 15.123 9.60724C15.2121 9.69419 15.3174 9.76272 15.433 9.80892C15.5485 9.85512 15.6721 9.87809 15.7965 9.87652C15.921 9.87494 16.0439 9.84884 16.1583 9.79972C16.2726 9.7506 16.3762 9.67942 16.463 9.59024L18.271 7.73024C18.4025 7.59633 18.4912 7.42629 18.5257 7.2418C18.5602 7.0573 18.539 6.86671 18.4647 6.69432C18.3905 6.52193 18.2666 6.37556 18.1089 6.27385C17.9511 6.17214 17.7667 6.11971 17.579 6.12324H17.577V6.12124ZM24.859 6.12124C24.7344 6.12319 24.6115 6.14972 24.4972 6.19931C24.3829 6.24891 24.2795 6.32059 24.193 6.41024L22.384 8.26724C22.297 8.35637 22.2285 8.46181 22.1824 8.57751C22.1363 8.69321 22.1135 8.81687 22.1154 8.9414C22.1172 9.06593 22.1437 9.18886 22.1932 9.30313C22.2428 9.4174 22.3144 9.52075 22.404 9.60724C22.4931 9.69419 22.5984 9.76272 22.714 9.80892C22.8295 9.85512 22.9531 9.87809 23.0775 9.87652C23.202 9.87494 23.3249 9.84884 23.4393 9.79972C23.5536 9.7506 23.6572 9.67942 23.744 9.59024L25.552 7.73024C25.6835 7.59639 25.7721 7.42645 25.8066 7.24205C25.8412 7.05765 25.82 6.86715 25.7459 6.6948C25.6718 6.52245 25.5481 6.37606 25.3905 6.27428C25.2329 6.17249 25.0486 6.11991 24.861 6.12324H24.859V6.12124ZM32.139 6.12124C32.0146 6.12332 31.8918 6.14991 31.7777 6.1995C31.6636 6.24909 31.5604 6.32071 31.474 6.41024L29.665 8.26724C29.578 8.35637 29.5095 8.46181 29.4634 8.57751C29.4173 8.69321 29.3945 8.81687 29.3964 8.9414C29.3982 9.06593 29.4247 9.18886 29.4742 9.30313C29.5238 9.4174 29.5954 9.52075 29.685 9.60724C29.7741 9.69419 29.8794 9.76272 29.995 9.80892C30.1105 9.85512 30.2341 9.87809 30.3585 9.87652C30.483 9.87494 30.6059 9.84884 30.7203 9.79972C30.8346 9.7506 30.9382 9.67942 31.025 9.59024L32.833 7.73024C32.9645 7.59639 33.0531 7.42645 33.0876 7.24205C33.1222 7.05765 33.101 6.86715 33.0269 6.6948C32.9528 6.52245 32.8291 6.37606 32.6715 6.27428C32.5139 6.17249 32.3296 6.11991 32.142 6.12324H32.14V6.12124H32.139ZM19.982 6.18024C19.9555 6.18365 19.9311 6.19659 19.9135 6.21665C19.8958 6.23671 19.886 6.26251 19.886 6.28924C19.886 6.35124 19.936 6.40324 19.999 6.40224C20.06 6.40224 20.11 6.35024 20.111 6.28924C20.111 6.27463 20.1081 6.26016 20.1024 6.24668C20.0968 6.2332 20.0885 6.22099 20.0781 6.21075C20.0676 6.20051 20.0553 6.19245 20.0417 6.18704C20.0281 6.18163 20.0136 6.17898 19.999 6.17924H19.982V6.18024ZM27.982 6.18024C27.9555 6.18365 27.9311 6.19659 27.9135 6.21665C27.8958 6.23671 27.886 6.26251 27.886 6.28924C27.886 6.35124 27.936 6.40324 27.999 6.40224C28.06 6.40224 28.11 6.35024 28.111 6.28924C28.111 6.27463 28.1081 6.26016 28.1024 6.24668C28.0968 6.2332 28.0885 6.22099 28.0781 6.21075C28.0676 6.20051 28.0553 6.19245 28.0417 6.18704C28.0281 6.18163 28.0136 6.17898 27.999 6.17924H27.982V6.18024ZM20.002 6.74024C19.9863 6.73877 19.9705 6.74058 19.9556 6.74556C19.9407 6.75054 19.927 6.75858 19.9153 6.76917C19.9037 6.77976 19.8944 6.79267 19.888 6.80706C19.8817 6.82145 19.8784 6.83701 19.8784 6.85274C19.8784 6.86848 19.8817 6.88404 19.888 6.89843C19.8944 6.91282 19.9037 6.92573 19.9153 6.93632C19.927 6.94691 19.9407 6.95495 19.9556 6.95993C19.9705 6.96491 19.9863 6.96672 20.002 6.96524C20.0318 6.96524 20.0605 6.95339 20.0815 6.93229C20.1026 6.9112 20.1145 6.88258 20.1145 6.85274C20.1145 6.82291 20.1026 6.79429 20.0815 6.77319C20.0605 6.7521 20.0318 6.74024 20.002 6.74024ZM28.002 6.74024C27.9863 6.73877 27.9705 6.74058 27.9556 6.74556C27.9407 6.75054 27.927 6.75858 27.9153 6.76917C27.9037 6.77976 27.8944 6.79267 27.888 6.80706C27.8817 6.82145 27.8784 6.83701 27.8784 6.85274C27.8784 6.86848 27.8817 6.88404 27.888 6.89843C27.8944 6.91282 27.9037 6.92573 27.9153 6.93632C27.927 6.94691 27.9407 6.95495 27.9556 6.95993C27.9705 6.96491 27.9863 6.96672 28.002 6.96524C28.0318 6.96524 28.0605 6.95339 28.0815 6.93229C28.1026 6.9112 28.1145 6.88258 28.1145 6.85274C28.1145 6.82291 28.1026 6.79429 28.0815 6.77319C28.0605 6.7521 28.0318 6.74024 28.002 6.74024ZM19.992 7.30324C19.9632 7.30479 19.9361 7.3174 19.9163 7.33846C19.8966 7.35951 19.8857 7.38738 19.886 7.41624C19.886 7.47724 19.936 7.52624 19.999 7.52624C20.0136 7.52651 20.0281 7.52386 20.0417 7.51845C20.0553 7.51304 20.0676 7.50498 20.0781 7.49474C20.0885 7.4845 20.0968 7.47228 20.1024 7.45881C20.1081 7.44533 20.111 7.43086 20.111 7.41624C20.1112 7.40075 20.1081 7.3854 20.1021 7.37114C20.096 7.35688 20.0871 7.34404 20.0758 7.33342C20.0645 7.3228 20.0512 7.31463 20.0366 7.30944C20.022 7.30425 20.0065 7.30214 19.991 7.30324H19.992ZM27.992 7.30324C27.9632 7.30479 27.9361 7.3174 27.9163 7.33846C27.8966 7.35951 27.8857 7.38738 27.886 7.41624C27.886 7.47724 27.936 7.52624 27.999 7.52624C28.0136 7.52651 28.0281 7.52386 28.0417 7.51845C28.0553 7.51304 28.0676 7.50498 28.0781 7.49474C28.0885 7.4845 28.0968 7.47228 28.1024 7.45881C28.1081 7.44533 28.111 7.43086 28.111 7.41624C28.1112 7.40075 28.1081 7.3854 28.1021 7.37114C28.096 7.35688 28.0871 7.34404 28.0758 7.33342C28.0645 7.3228 28.0512 7.31463 28.0366 7.30944C28.022 7.30425 28.0065 7.30214 27.991 7.30324H27.992ZM19.992 7.86324C19.9623 7.86497 19.9345 7.87842 19.9147 7.90064C19.8949 7.92287 19.8848 7.95204 19.8865 7.98174C19.8882 8.01145 19.9017 8.03925 19.9239 8.05904C19.9461 8.07882 19.9753 8.08897 20.005 8.08724C20.0347 8.08539 20.0625 8.07181 20.0821 8.04949C20.1018 8.02717 20.1119 7.99795 20.11 7.96824C20.1081 7.93854 20.0946 7.91079 20.0722 7.8911C20.0499 7.87141 20.0207 7.86139 19.991 7.86324H19.992ZM27.992 7.86324C27.9623 7.86497 27.9345 7.87842 27.9147 7.90064C27.8949 7.92287 27.8848 7.95204 27.8865 7.98174C27.8882 8.01145 27.9017 8.03925 27.9239 8.05904C27.9461 8.07882 27.9753 8.08897 28.005 8.08724C28.0347 8.08539 28.0625 8.07181 28.0821 8.04949C28.1018 8.02717 28.1119 7.99795 28.11 7.96824C28.1081 7.93854 28.0946 7.91079 28.0722 7.8911C28.0499 7.87141 28.0207 7.86139 27.991 7.86324H27.992ZM19.992 8.42624C19.9632 8.42779 19.9361 8.4404 19.9163 8.46146C19.8966 8.48251 19.8857 8.51038 19.886 8.53924C19.886 8.60024 19.936 8.64924 19.999 8.64924C20.0136 8.64951 20.0281 8.64686 20.0417 8.64145C20.0553 8.63604 20.0676 8.62798 20.0781 8.61774C20.0885 8.6075 20.0968 8.59528 20.1024 8.58181C20.1081 8.56833 20.111 8.55386 20.111 8.53924C20.1112 8.52375 20.1081 8.5084 20.1021 8.49414C20.096 8.47988 20.0871 8.46704 20.0758 8.45642C20.0645 8.4458 20.0512 8.43763 20.0366 8.43244C20.022 8.42725 20.0065 8.42514 19.991 8.42624H19.992ZM27.992 8.42624C27.9632 8.42779 27.9361 8.4404 27.9163 8.46146C27.8966 8.48251 27.8857 8.51038 27.886 8.53924C27.886 8.60024 27.936 8.64924 27.999 8.64924C28.0136 8.64951 28.0281 8.64686 28.0417 8.64145C28.0553 8.63604 28.0676 8.62798 28.0781 8.61774C28.0885 8.6075 28.0968 8.59528 28.1024 8.58181C28.1081 8.56833 28.111 8.55386 28.111 8.53924C28.1112 8.52375 28.1081 8.5084 28.1021 8.49414C28.096 8.47988 28.0871 8.46704 28.0758 8.45642C28.0645 8.4458 28.0512 8.43763 28.0366 8.43244C28.022 8.42725 28.0065 8.42514 27.991 8.42624H27.992ZM19.992 8.98824C19.9765 8.98811 19.9611 8.99117 19.9468 8.99724C19.9326 9.00331 19.9197 9.01225 19.909 9.02351C19.8983 9.03476 19.8901 9.0481 19.8848 9.06268C19.8795 9.07726 19.8773 9.09278 19.8782 9.10826C19.8792 9.12374 19.8834 9.13886 19.8904 9.15267C19.8975 9.16648 19.9073 9.17869 19.9193 9.18854C19.9313 9.19839 19.9452 9.20567 19.9601 9.20992C19.975 9.21417 19.9906 9.2153 20.006 9.21324C20.0344 9.20944 20.0603 9.19497 20.0785 9.17278C20.0966 9.15059 20.1057 9.12233 20.1037 9.09373C20.1018 9.06512 20.0891 9.03831 20.0682 9.01873C20.0473 8.99914 20.0197 8.98824 19.991 8.98824H19.992ZM27.992 8.98824C27.9765 8.98811 27.9611 8.99117 27.9468 8.99724C27.9326 9.00331 27.9197 9.01225 27.909 9.02351C27.8983 9.03476 27.8901 9.0481 27.8848 9.06268C27.8795 9.07726 27.8773 9.09278 27.8782 9.10826C27.8792 9.12374 27.8834 9.13886 27.8904 9.15267C27.8975 9.16648 27.9073 9.17869 27.9193 9.18854C27.9313 9.19839 27.9452 9.20567 27.9601 9.20992C27.975 9.21417 27.9906 9.2153 28.006 9.21324C28.0344 9.20944 28.0603 9.19497 28.0785 9.17278C28.0966 9.15059 28.1057 9.12233 28.1037 9.09373C28.1018 9.06512 28.0891 9.03831 28.0682 9.01873C28.0473 8.99914 28.0197 8.98824 27.991 8.98824H27.992ZM19.992 9.55124C19.9623 9.55297 19.9345 9.56642 19.9147 9.58864C19.8949 9.61087 19.8848 9.64004 19.8865 9.66974C19.8882 9.69945 19.9017 9.72725 19.9239 9.74704C19.9461 9.76682 19.9753 9.77697 20.005 9.77524C20.0347 9.77339 20.0625 9.75981 20.0821 9.73749C20.1018 9.71517 20.1119 9.68595 20.11 9.65624C20.1081 9.62654 20.0946 9.59879 20.0722 9.5791C20.0499 9.55941 20.0207 9.54939 19.991 9.55124H19.992ZM27.992 9.55124C27.9623 9.55297 27.9345 9.56642 27.9147 9.58864C27.8949 9.61087 27.8848 9.64004 27.8865 9.66974C27.8882 9.69945 27.9017 9.72725 27.9239 9.74704C27.9461 9.76682 27.9753 9.77697 28.005 9.77524C28.0347 9.77339 28.0625 9.75981 28.0821 9.73749C28.1018 9.71517 28.1119 9.68595 28.11 9.65624C28.1081 9.62654 28.0946 9.59879 28.0722 9.5791C28.0499 9.55941 28.0207 9.54939 27.991 9.55124H27.992ZM19.98 10.1132C19.9534 10.1178 19.9294 10.1316 19.9121 10.1524C19.8949 10.1731 19.8856 10.1993 19.886 10.2262C19.8845 10.2419 19.8863 10.2577 19.8913 10.2726C19.8963 10.2876 19.9043 10.3013 19.9149 10.3129C19.9255 10.3246 19.9384 10.3339 19.9528 10.3402C19.9672 10.3466 19.9828 10.3499 19.9985 10.3499C20.0142 10.3499 20.0298 10.3466 20.0442 10.3402C20.0586 10.3339 20.0715 10.3246 20.0821 10.3129C20.0927 10.3013 20.1007 10.2876 20.1057 10.2726C20.1107 10.2577 20.1125 10.2419 20.111 10.2262C20.1107 10.1965 20.0989 10.1681 20.078 10.147C20.057 10.1259 20.0287 10.1138 19.999 10.1132H19.98ZM27.98 10.1132C27.9534 10.1178 27.9294 10.1316 27.9121 10.1524C27.8949 10.1731 27.8856 10.1993 27.886 10.2262C27.8845 10.2419 27.8863 10.2577 27.8913 10.2726C27.8963 10.2876 27.9043 10.3013 27.9149 10.3129C27.9255 10.3246 27.9384 10.3339 27.9528 10.3402C27.9672 10.3466 27.9828 10.3499 27.9985 10.3499C28.0142 10.3499 28.0298 10.3466 28.0442 10.3402C28.0586 10.3339 28.0715 10.3246 28.0821 10.3129C28.0927 10.3013 28.1007 10.2876 28.1057 10.2726C28.1107 10.2577 28.1125 10.2419 28.111 10.2262C28.1107 10.1965 28.0989 10.1681 28.078 10.147C28.057 10.1259 28.0287 10.1138 27.999 10.1132H27.98ZM17.577 10.1232C17.4524 10.1252 17.3295 10.1517 17.2152 10.2013C17.1009 10.2509 16.9975 10.3226 16.911 10.4122L15.103 12.2692C15.0163 12.3585 14.9481 12.464 14.9022 12.5797C14.8563 12.6954 14.8336 12.819 14.8355 12.9434C14.8392 13.1947 14.9427 13.4342 15.123 13.6092C15.3033 13.7843 15.5458 13.8805 15.7971 13.8768C16.0484 13.873 16.288 13.7696 16.463 13.5892L18.271 11.7302C18.4027 11.5962 18.4914 11.426 18.5258 11.2413C18.5603 11.0566 18.5389 10.8658 18.4644 10.6934C18.3899 10.5209 18.2657 10.3745 18.1076 10.273C17.9496 10.1714 17.7648 10.1193 17.577 10.1232ZM24.859 10.1232C24.7344 10.1252 24.6115 10.1517 24.4972 10.2013C24.3829 10.2509 24.2795 10.3226 24.193 10.4122L22.384 12.2692C22.2973 12.3585 22.2291 12.464 22.1832 12.5797C22.1373 12.6954 22.1146 12.819 22.1165 12.9434C22.1183 13.0678 22.1447 13.1907 22.194 13.3049C22.2433 13.4192 22.3147 13.5226 22.404 13.6092C22.4933 13.6959 22.5988 13.7642 22.7145 13.8101C22.8301 13.856 22.9537 13.8786 23.0781 13.8768C23.2026 13.8749 23.3254 13.8486 23.4397 13.7992C23.5539 13.7499 23.6573 13.6785 23.744 13.5892L25.552 11.7302C25.6836 11.5963 25.7723 11.4261 25.8067 11.2415C25.8412 11.057 25.8199 10.8663 25.7456 10.6938C25.6712 10.5214 25.5472 10.375 25.3893 10.2734C25.2313 10.1718 25.0467 10.1195 24.859 10.1232ZM32.139 10.1232C32.0146 10.1253 31.8918 10.1519 31.7777 10.2015C31.6636 10.2511 31.5604 10.3227 31.474 10.4122L29.665 12.2692C29.5783 12.3585 29.5101 12.464 29.4642 12.5797C29.4183 12.6954 29.3956 12.819 29.3975 12.9434C29.3993 13.0678 29.4257 13.1907 29.475 13.3049C29.5243 13.4192 29.5957 13.5226 29.685 13.6092C29.7743 13.6959 29.8798 13.7642 29.9955 13.8101C30.1111 13.856 30.2347 13.8786 30.3591 13.8768C30.4836 13.8749 30.6064 13.8486 30.7207 13.7992C30.8349 13.7499 30.9383 13.6785 31.025 13.5892L32.833 11.7302C32.9646 11.5963 33.0533 11.4261 33.0877 11.2415C33.1222 11.057 33.1009 10.8663 33.0266 10.6938C32.9522 10.5214 32.8282 10.375 32.6703 10.2734C32.5123 10.1718 32.3277 10.1195 32.14 10.1232H32.139ZM20.001 10.6732C19.9859 10.6734 19.9711 10.6765 19.9572 10.6824C19.9434 10.6883 19.9308 10.6969 19.9203 10.7077C19.9098 10.7185 19.9016 10.7312 19.896 10.7452C19.8905 10.7592 19.8877 10.7742 19.888 10.7892C19.888 10.8512 19.938 10.8992 20.001 10.8992C20.0156 10.8995 20.0301 10.8969 20.0437 10.8915C20.0573 10.886 20.0697 10.878 20.0801 10.8677C20.0905 10.8575 20.0988 10.8453 20.1044 10.8318C20.1101 10.8183 20.113 10.8039 20.113 10.7892C20.1133 10.7592 20.1016 10.7302 20.0807 10.7087C20.0597 10.6872 20.0311 10.6748 20.001 10.6742V10.6732ZM28.001 10.6732C27.9859 10.6734 27.9711 10.6765 27.9572 10.6824C27.9434 10.6883 27.9308 10.6969 27.9203 10.7077C27.9098 10.7185 27.9016 10.7312 27.896 10.7452C27.8905 10.7592 27.8877 10.7742 27.888 10.7892C27.888 10.8512 27.938 10.8992 28.001 10.8992C28.0156 10.8995 28.0301 10.8969 28.0437 10.8915C28.0573 10.886 28.0697 10.878 28.0801 10.8677C28.0905 10.8575 28.0988 10.8453 28.1044 10.8318C28.1101 10.8183 28.113 10.8039 28.113 10.7892C28.1133 10.7592 28.1016 10.7302 28.0807 10.7087C28.0597 10.6872 28.0311 10.6748 28.001 10.6742V10.6732ZM20.001 11.2362C19.971 11.2362 19.9423 11.2481 19.9211 11.2693C19.8999 11.2905 19.888 11.3193 19.888 11.3492C19.888 11.4112 19.938 11.4622 20.001 11.4612C20.063 11.4602 20.111 11.4112 20.113 11.3492C20.1131 11.3345 20.1103 11.3198 20.1048 11.3061C20.0992 11.2924 20.091 11.2799 20.0806 11.2694C20.0701 11.2589 20.0577 11.2506 20.0441 11.2449C20.0304 11.2392 20.0158 11.2362 20.001 11.2362ZM28.001 11.2362C27.971 11.2362 27.9423 11.2481 27.9211 11.2693C27.8999 11.2905 27.888 11.3193 27.888 11.3492C27.888 11.4112 27.938 11.4622 28.001 11.4612C28.063 11.4602 28.111 11.4112 28.113 11.3492C28.1131 11.3345 28.1103 11.3198 28.1048 11.3061C28.0992 11.2924 28.091 11.2799 28.0806 11.2694C28.0701 11.2589 28.0577 11.2506 28.0441 11.2449C28.0304 11.2392 28.0158 11.2362 28.001 11.2362ZM19.991 11.7992C19.9627 11.8027 19.9367 11.8167 19.9182 11.8384C19.8997 11.8601 19.8899 11.8879 19.891 11.9164C19.892 11.9449 19.9036 11.972 19.9236 11.9923C19.9436 12.0127 19.9705 12.0248 19.999 12.0262C20.06 12.0242 20.11 11.9732 20.111 11.9122C20.1112 11.8968 20.1081 11.8814 20.1021 11.8671C20.096 11.8529 20.0871 11.84 20.0758 11.8294C20.0645 11.8188 20.0512 11.8106 20.0366 11.8054C20.022 11.8002 20.0065 11.7981 19.991 11.7992ZM27.991 11.7992C27.9627 11.8027 27.9367 11.8167 27.9182 11.8384C27.8997 11.8601 27.8899 11.8879 27.891 11.9164C27.892 11.9449 27.9036 11.972 27.9236 11.9923C27.9436 12.0127 27.9705 12.0248 27.999 12.0262C28.06 12.0242 28.11 11.9732 28.111 11.9122C28.1112 11.8968 28.1081 11.8814 28.1021 11.8671C28.096 11.8529 28.0871 11.84 28.0758 11.8294C28.0645 11.8188 28.0512 11.8106 28.0366 11.8054C28.022 11.8002 28.0065 11.7981 27.991 11.7992ZM19.991 12.3612C19.9627 12.3647 19.9367 12.3787 19.9182 12.4004C19.8997 12.4221 19.8899 12.4499 19.891 12.4784C19.892 12.5069 19.9036 12.534 19.9236 12.5543C19.9436 12.5747 19.9705 12.5868 19.999 12.5882C20.06 12.5872 20.11 12.5362 20.111 12.4742C20.1111 12.4595 20.1083 12.4448 20.1028 12.4311C20.0972 12.4174 20.089 12.4049 20.0786 12.3944C20.0681 12.3839 20.0557 12.3756 20.0421 12.3699C20.0284 12.3642 20.0138 12.3612 19.999 12.3612H19.991ZM27.991 12.3612C27.9627 12.3647 27.9367 12.3787 27.9182 12.4004C27.8997 12.4221 27.8899 12.4499 27.891 12.4784C27.892 12.5069 27.9036 12.534 27.9236 12.5543C27.9436 12.5747 27.9705 12.5868 27.999 12.5882C28.06 12.5872 28.11 12.5362 28.111 12.4742C28.1111 12.4595 28.1083 12.4448 28.1028 12.4311C28.0972 12.4174 28.089 12.4049 28.0786 12.3944C28.0681 12.3839 28.0557 12.3756 28.0421 12.3699C28.0284 12.3642 28.0138 12.3612 27.999 12.3612H27.991ZM19.991 12.9242C19.9614 12.9253 19.9334 12.9379 19.913 12.9594C19.8926 12.9809 19.8815 13.0096 19.882 13.0392C19.8825 13.0688 19.8947 13.097 19.9158 13.1178C19.9369 13.1385 19.9654 13.1502 19.995 13.1502C20.0246 13.1502 20.0531 13.1385 20.0742 13.1178C20.0953 13.097 20.1075 13.0688 20.108 13.0392C20.1085 13.0096 20.0974 12.9809 20.077 12.9594C20.0566 12.9379 20.0286 12.9253 19.999 12.9242H19.991ZM27.991 12.9242C27.9614 12.9253 27.9334 12.9379 27.913 12.9594C27.8926 12.9809 27.8815 13.0096 27.882 13.0392C27.8825 13.0688 27.8947 13.097 27.9158 13.1178C27.9369 13.1385 27.9654 13.1502 27.995 13.1502C28.0246 13.1502 28.0531 13.1385 28.0742 13.1178C28.0953 13.097 28.1075 13.0688 28.108 13.0392C28.1085 13.0096 28.0974 12.9809 28.077 12.9594C28.0566 12.9379 28.0286 12.9253 27.999 12.9242H27.991ZM19.991 13.4862C19.9617 13.4873 19.9339 13.4998 19.9137 13.5211C19.8935 13.5424 19.8825 13.5708 19.883 13.6002C19.8835 13.6295 19.8956 13.6575 19.9165 13.6781C19.9375 13.6986 19.9656 13.7102 19.995 13.7102C20.0244 13.7102 20.0525 13.6986 20.0735 13.6781C20.0944 13.6575 20.1065 13.6295 20.107 13.6002C20.1075 13.5708 20.0965 13.5424 20.0763 13.5211C20.0561 13.4998 20.0283 13.4873 19.999 13.4862H19.991ZM27.991 13.4862C27.9617 13.4873 27.9339 13.4998 27.9137 13.5211C27.8935 13.5424 27.8825 13.5708 27.883 13.6002C27.8835 13.6295 27.8956 13.6575 27.9165 13.6781C27.9375 13.6986 27.9656 13.7102 27.995 13.7102C28.0244 13.7102 28.0525 13.6986 28.0735 13.6781C28.0944 13.6575 28.1065 13.6295 28.107 13.6002C28.1075 13.5708 28.0965 13.5424 28.0763 13.5211C28.0561 13.4998 28.0283 13.4873 27.999 13.4862H27.991ZM19.991 14.0492C19.9751 14.0485 19.9592 14.0511 19.9443 14.0569C19.9295 14.0627 19.9161 14.0716 19.9049 14.083C19.8937 14.0943 19.8851 14.1079 19.8796 14.1229C19.874 14.1378 19.8717 14.1538 19.8728 14.1697C19.8739 14.1856 19.8783 14.2011 19.8857 14.2151C19.8932 14.2292 19.9036 14.2415 19.9162 14.2513C19.9288 14.2611 19.9433 14.2681 19.9587 14.2719C19.9742 14.2757 19.9903 14.2761 20.006 14.2732C20.0333 14.2682 20.0577 14.2534 20.0747 14.2315C20.0918 14.2096 20.1001 14.1822 20.0983 14.1546C20.0964 14.1269 20.0845 14.1009 20.0647 14.0815C20.0449 14.0621 20.0187 14.0506 19.991 14.0492ZM27.991 14.0492C27.9751 14.0485 27.9592 14.0511 27.9443 14.0569C27.9295 14.0627 27.9161 14.0716 27.9049 14.083C27.8937 14.0943 27.8851 14.1079 27.8796 14.1229C27.874 14.1378 27.8717 14.1538 27.8728 14.1697C27.8739 14.1856 27.8783 14.2011 27.8857 14.2151C27.8932 14.2292 27.9036 14.2415 27.9162 14.2513C27.9288 14.2611 27.9433 14.2681 27.9587 14.2719C27.9742 14.2757 27.9903 14.2761 28.006 14.2732C28.0333 14.2682 28.0577 14.2534 28.0747 14.2315C28.0918 14.2096 28.1001 14.1822 28.0983 14.1546C28.0964 14.1269 28.0845 14.1009 28.0647 14.0815C28.0449 14.0621 28.0187 14.0506 27.991 14.0492ZM17.577 14.1232V14.1252C17.4524 14.1272 17.3295 14.1537 17.2152 14.2033C17.1009 14.2529 16.9975 14.3246 16.911 14.4142L15.103 16.2712C15.0163 16.3605 14.9481 16.466 14.9022 16.5817C14.8563 16.6974 14.8336 16.821 14.8355 16.9454C14.8392 17.1967 14.9427 17.4362 15.123 17.6112C15.3033 17.7863 15.5458 17.8825 15.7971 17.8788C16.0484 17.875 16.288 17.7716 16.463 17.5912L18.27 15.7322C18.357 15.6431 18.4255 15.5377 18.4716 15.422C18.5177 15.3063 18.5405 15.1826 18.5386 15.0581C18.5368 14.9336 18.5103 14.8106 18.4608 14.6964C18.4112 14.5821 18.3396 14.4787 18.25 14.3922C18.161 14.305 18.0556 14.2363 17.94 14.1899C17.8243 14.1436 17.7006 14.1206 17.576 14.1222L17.577 14.1232ZM24.859 14.1232V14.1252C24.7344 14.1272 24.6115 14.1537 24.4972 14.2033C24.3829 14.2529 24.2795 14.3246 24.193 14.4142L22.384 16.2712C22.2973 16.3605 22.2291 16.466 22.1832 16.5817C22.1373 16.6974 22.1146 16.821 22.1165 16.9454C22.1183 17.0698 22.1447 17.1927 22.194 17.3069C22.2433 17.4212 22.3147 17.5246 22.404 17.6112C22.4933 17.6979 22.5988 17.7662 22.7145 17.8121C22.8301 17.858 22.9537 17.8806 23.0781 17.8788C23.2026 17.8769 23.3254 17.8506 23.4397 17.8012C23.5539 17.7519 23.6573 17.6805 23.744 17.5912L25.552 15.7322C25.639 15.6431 25.7075 15.5377 25.7536 15.422C25.7997 15.3063 25.8225 15.1826 25.8206 15.0581C25.8188 14.9336 25.7923 14.8106 25.7428 14.6964C25.6932 14.5821 25.6216 14.4787 25.532 14.3922C25.4431 14.3051 25.3379 14.2365 25.2224 14.1901C25.1069 14.1438 24.9834 14.1207 24.859 14.1222V14.1232ZM32.139 14.1232V14.1252C32.0146 14.1273 31.8918 14.1539 31.7777 14.2035C31.6636 14.2531 31.5604 14.3247 31.474 14.4142L29.665 16.2712C29.5783 16.3605 29.5101 16.466 29.4642 16.5817C29.4183 16.6974 29.3956 16.821 29.3975 16.9454C29.3993 17.0698 29.4257 17.1927 29.475 17.3069C29.5243 17.4212 29.5957 17.5246 29.685 17.6112C29.7743 17.6979 29.8798 17.7662 29.9955 17.8121C30.1111 17.858 30.2347 17.8806 30.3591 17.8788C30.4836 17.8769 30.6064 17.8506 30.7207 17.8012C30.8349 17.7519 30.9383 17.6805 31.025 17.5912L32.833 15.7322C32.92 15.6431 32.9885 15.5377 33.0346 15.422C33.0807 15.3063 33.1035 15.1826 33.1016 15.0581C33.0998 14.9336 33.0733 14.8106 33.0238 14.6964C32.9742 14.5821 32.9026 14.4787 32.813 14.3922C32.7241 14.3051 32.6189 14.2365 32.5034 14.1901C32.3879 14.1438 32.2644 14.1207 32.14 14.1222L32.139 14.1232ZM19.979 14.6112C19.9528 14.6156 19.929 14.6291 19.9119 14.6495C19.8948 14.6699 19.8856 14.6957 19.886 14.7222C19.8856 14.7444 19.8918 14.7662 19.9038 14.7849C19.9158 14.8036 19.9331 14.8182 19.9535 14.827C19.9739 14.8358 19.9964 14.8384 20.0182 14.8344C20.0401 14.8304 20.0602 14.82 20.0761 14.8045C20.092 14.789 20.103 14.7692 20.1076 14.7474C20.1122 14.7257 20.1102 14.7031 20.1019 14.6825C20.0937 14.6619 20.0795 14.6443 20.0611 14.6318C20.0428 14.6192 20.0212 14.6124 19.999 14.6122H19.98L19.979 14.6112ZM27.979 14.6112C27.9528 14.6156 27.929 14.6291 27.9119 14.6495C27.8948 14.6699 27.8856 14.6957 27.886 14.7222C27.8856 14.7444 27.8918 14.7662 27.9038 14.7849C27.9158 14.8036 27.9331 14.8182 27.9535 14.827C27.9739 14.8358 27.9964 14.8384 28.0182 14.8344C28.0401 14.8304 28.0602 14.82 28.0761 14.8045C28.092 14.789 28.103 14.7692 28.1076 14.7474C28.1122 14.7257 28.1102 14.7031 28.1019 14.6825C28.0937 14.6619 28.0795 14.6443 28.0611 14.6318C28.0428 14.6192 28.0212 14.6124 27.999 14.6122H27.98L27.979 14.6112ZM19.979 15.1762C19.953 15.1803 19.9294 15.1935 19.9123 15.2135C19.8953 15.2335 19.8859 15.259 19.886 15.2852C19.886 15.3472 19.936 15.3992 19.999 15.3982C20.06 15.3982 20.11 15.3462 20.111 15.2852C20.111 15.2706 20.1081 15.2562 20.1024 15.2427C20.0968 15.2292 20.0885 15.217 20.0781 15.2067C20.0676 15.1965 20.0553 15.1884 20.0417 15.183C20.0281 15.1776 20.0136 15.175 19.999 15.1752H19.98L19.979 15.1762ZM27.979 15.1762C27.953 15.1803 27.9294 15.1935 27.9123 15.2135C27.8953 15.2335 27.8859 15.259 27.886 15.2852C27.886 15.3472 27.936 15.3992 27.999 15.3982C28.06 15.3982 28.11 15.3462 28.111 15.2852C28.111 15.2706 28.1081 15.2562 28.1024 15.2427C28.0968 15.2292 28.0885 15.217 28.0781 15.2067C28.0676 15.1965 28.0553 15.1884 28.0417 15.183C28.0281 15.1776 28.0136 15.175 27.999 15.1752H27.98L27.979 15.1762ZM20.001 15.7362C19.971 15.7362 19.9423 15.7481 19.9211 15.7693C19.8999 15.7905 19.888 15.8193 19.888 15.8492C19.8882 15.8713 19.8949 15.8928 19.9073 15.9111C19.9197 15.9294 19.9372 15.9436 19.9576 15.9519C19.978 15.9603 20.0005 15.9624 20.0221 15.958C20.0437 15.9537 20.0636 15.943 20.0792 15.9274C20.0948 15.9118 20.1054 15.892 20.1098 15.8703C20.1141 15.8487 20.112 15.8263 20.1037 15.8058C20.0953 15.7854 20.0811 15.7679 20.0628 15.7555C20.0446 15.7432 20.0231 15.7364 20.001 15.7362ZM28.001 15.7362C27.971 15.7362 27.9423 15.7481 27.9211 15.7693C27.8999 15.7905 27.888 15.8193 27.888 15.8492C27.8882 15.8713 27.8949 15.8928 27.9073 15.9111C27.9197 15.9294 27.9372 15.9436 27.9576 15.9519C27.978 15.9603 28.0005 15.9624 28.0221 15.958C28.0437 15.9537 28.0636 15.943 28.0792 15.9274C28.0948 15.9118 28.1054 15.892 28.1098 15.8703C28.1141 15.8487 28.112 15.8263 28.1037 15.8058C28.0953 15.7854 28.0811 15.7679 28.0628 15.7555C28.0446 15.7432 28.0231 15.7364 28.001 15.7362ZM19.991 16.2992C19.9617 16.3003 19.9339 16.3128 19.9137 16.3341C19.8935 16.3554 19.8825 16.3838 19.883 16.4132C19.8835 16.4425 19.8956 16.4705 19.9165 16.4911C19.9375 16.5116 19.9656 16.5232 19.995 16.5232C20.0244 16.5232 20.0525 16.5116 20.0735 16.4911C20.0944 16.4705 20.1065 16.4425 20.107 16.4132C20.1075 16.3838 20.0965 16.3554 20.0763 16.3341C20.0561 16.3128 20.0283 16.3003 19.999 16.2992H19.991ZM27.991 16.2992C27.9617 16.3003 27.9339 16.3128 27.9137 16.3341C27.8935 16.3554 27.8825 16.3838 27.883 16.4132C27.8835 16.4425 27.8956 16.4705 27.9165 16.4911C27.9375 16.5116 27.9656 16.5232 27.995 16.5232C28.0244 16.5232 28.0525 16.5116 28.0735 16.4911C28.0944 16.4705 28.1065 16.4425 28.107 16.4132C28.1075 16.3838 28.0965 16.3554 28.0763 16.3341C28.0561 16.3128 28.0283 16.3003 27.999 16.2992H27.991ZM19.991 16.8612C19.9624 16.863 19.9355 16.8758 19.9159 16.8968C19.8964 16.9178 19.8857 16.9455 19.886 16.9742C19.886 17.0362 19.936 17.0842 19.999 17.0842C20.0136 17.0845 20.0281 17.0819 20.0417 17.0765C20.0553 17.071 20.0676 17.063 20.0781 17.0527C20.0885 17.0425 20.0968 17.0303 20.1024 17.0168C20.1081 17.0033 20.111 16.9889 20.111 16.9742C20.1111 16.9595 20.1083 16.9448 20.1028 16.9311C20.0972 16.9174 20.089 16.9049 20.0786 16.8944C20.0681 16.8839 20.0557 16.8756 20.0421 16.8699C20.0284 16.8642 20.0138 16.8612 19.999 16.8612H19.991ZM27.991 16.8612C27.9624 16.863 27.9355 16.8758 27.9159 16.8968C27.8964 16.9178 27.8857 16.9455 27.886 16.9742C27.886 17.0362 27.936 17.0842 27.999 17.0842C28.0136 17.0845 28.0281 17.0819 28.0417 17.0765C28.0553 17.071 28.0676 17.063 28.0781 17.0527C28.0885 17.0425 28.0968 17.0303 28.1024 17.0168C28.1081 17.0033 28.111 16.9889 28.111 16.9742C28.1111 16.9595 28.1083 16.9448 28.1028 16.9311C28.0972 16.9174 28.089 16.9049 28.0786 16.8944C28.0681 16.8839 28.0557 16.8756 28.0421 16.8699C28.0284 16.8642 28.0138 16.8612 27.999 16.8612H27.991ZM19.991 17.4242C19.9614 17.4253 19.9334 17.4379 19.913 17.4594C19.8926 17.4809 19.8815 17.5096 19.882 17.5392C19.8825 17.5688 19.8947 17.597 19.9158 17.6178C19.9369 17.6385 19.9654 17.6502 19.995 17.6502C20.0246 17.6502 20.0531 17.6385 20.0742 17.6178C20.0953 17.597 20.1075 17.5688 20.108 17.5392C20.1085 17.5096 20.0974 17.4809 20.077 17.4594C20.0566 17.4379 20.0286 17.4253 19.999 17.4242H19.991ZM27.991 17.4242C27.9614 17.4253 27.9334 17.4379 27.913 17.4594C27.8926 17.4809 27.8815 17.5096 27.882 17.5392C27.8825 17.5688 27.8947 17.597 27.9158 17.6178C27.9369 17.6385 27.9654 17.6502 27.995 17.6502C28.0246 17.6502 28.0531 17.6385 28.0742 17.6178C28.0953 17.597 28.1075 17.5688 28.108 17.5392C28.1085 17.5096 28.0974 17.4809 28.077 17.4594C28.0566 17.4379 28.0286 17.4253 27.999 17.4242H27.991ZM19.991 17.9862C19.9613 17.9881 19.9335 18.0017 19.9139 18.024C19.8942 18.0463 19.8841 18.0755 19.886 18.1052C19.8879 18.135 19.9014 18.1627 19.9238 18.1824C19.9461 18.2021 19.9753 18.2121 20.005 18.2102C20.0197 18.2093 20.0341 18.2055 20.0473 18.199C20.0606 18.1926 20.0724 18.1835 20.0821 18.1725C20.0919 18.1614 20.0994 18.1486 20.1042 18.1346C20.1089 18.1207 20.1109 18.106 20.11 18.0912C20.1091 18.0765 20.1053 18.0622 20.0988 18.0489C20.0923 18.0357 20.0833 18.0238 20.0722 18.0141C20.0612 18.0043 20.0483 17.9969 20.0344 17.9921C20.0205 17.9873 20.0057 17.9853 19.991 17.9862ZM27.991 17.9862C27.9613 17.9881 27.9335 18.0017 27.9139 18.024C27.8942 18.0463 27.8841 18.0755 27.886 18.1052C27.8879 18.135 27.9014 18.1627 27.9238 18.1824C27.9461 18.2021 27.9753 18.2121 28.005 18.2102C28.0197 18.2093 28.0341 18.2055 28.0473 18.199C28.0606 18.1926 28.0724 18.1835 28.0821 18.1725C28.0919 18.1614 28.0994 18.1486 28.1042 18.1346C28.1089 18.1207 28.1109 18.106 28.11 18.0912C28.1091 18.0765 28.1053 18.0622 28.0988 18.0489C28.0923 18.0357 28.0833 18.0238 28.0722 18.0141C28.0612 18.0043 28.0483 17.9969 28.0344 17.9921C28.0205 17.9873 28.0057 17.9853 27.991 17.9862ZM17.577 18.1232V18.1252C17.4524 18.1272 17.3295 18.1537 17.2152 18.2033C17.1009 18.2529 16.9975 18.3246 16.911 18.4142L15.103 20.2712C15.0163 20.3605 14.9481 20.466 14.9022 20.5817C14.8563 20.6974 14.8336 20.821 14.8355 20.9454C14.8392 21.1967 14.9427 21.4362 15.123 21.6112C15.3033 21.7863 15.5458 21.8825 15.7971 21.8788C16.0484 21.875 16.288 21.7716 16.463 21.5912L18.27 19.7322C18.357 19.6431 18.4255 19.5377 18.4716 19.422C18.5177 19.3063 18.5405 19.1826 18.5386 19.0581C18.5368 18.9336 18.5103 18.8106 18.4608 18.6964C18.4112 18.5821 18.3396 18.4787 18.25 18.3922C18.161 18.305 18.0556 18.2363 17.94 18.1899C17.8243 18.1436 17.7006 18.1206 17.576 18.1222L17.577 18.1232ZM24.859 18.1232V18.1252C24.7344 18.1272 24.6115 18.1537 24.4972 18.2033C24.3829 18.2529 24.2795 18.3246 24.193 18.4142L22.384 20.2712C22.2973 20.3605 22.2291 20.466 22.1832 20.5817C22.1373 20.6974 22.1146 20.821 22.1165 20.9454C22.1183 21.0698 22.1447 21.1927 22.194 21.3069C22.2433 21.4212 22.3147 21.5246 22.404 21.6112C22.4933 21.6979 22.5988 21.7662 22.7145 21.8121C22.8301 21.858 22.9537 21.8806 23.0781 21.8788C23.2026 21.8769 23.3254 21.8506 23.4397 21.8012C23.5539 21.7519 23.6573 21.6805 23.744 21.5912L25.552 19.7322C25.639 19.6431 25.7075 19.5377 25.7536 19.422C25.7997 19.3063 25.8225 19.1826 25.8206 19.0581C25.8188 18.9336 25.7923 18.8106 25.7428 18.6964C25.6932 18.5821 25.6216 18.4787 25.532 18.3922C25.4431 18.3051 25.3379 18.2365 25.2224 18.1901C25.1069 18.1438 24.9834 18.1207 24.859 18.1222V18.1232ZM32.139 18.1232V18.1252C32.0146 18.1273 31.8918 18.1539 31.7777 18.2035C31.6636 18.2531 31.5604 18.3247 31.474 18.4142L29.665 20.2712C29.5783 20.3605 29.5101 20.466 29.4642 20.5817C29.4183 20.6974 29.3956 20.821 29.3975 20.9454C29.3993 21.0698 29.4257 21.1927 29.475 21.3069C29.5243 21.4212 29.5957 21.5246 29.685 21.6112C29.7743 21.6979 29.8798 21.7662 29.9955 21.8121C30.1111 21.858 30.2347 21.8806 30.3591 21.8788C30.4836 21.8769 30.6064 21.8506 30.7207 21.8012C30.8349 21.7519 30.9383 21.6805 31.025 21.5912L32.833 19.7322C32.92 19.6431 32.9885 19.5377 33.0346 19.422C33.0807 19.3063 33.1035 19.1826 33.1016 19.0581C33.0998 18.9336 33.0733 18.8106 33.0238 18.6964C32.9742 18.5821 32.9026 18.4787 32.813 18.3922C32.7241 18.3051 32.6189 18.2365 32.5034 18.1901C32.3879 18.1438 32.2644 18.1207 32.14 18.1222L32.139 18.1232ZM19.992 18.5492C19.9773 18.5501 19.9629 18.5538 19.9496 18.5603C19.9364 18.5667 19.9245 18.5756 19.9147 18.5866C19.9049 18.5976 19.8974 18.6105 19.8925 18.6244C19.8877 18.6383 19.8856 18.653 19.8865 18.6677C19.8874 18.6825 19.8911 18.6968 19.8975 18.7101C19.9039 18.7234 19.9129 18.7352 19.9239 18.745C19.9349 18.7548 19.9477 18.7624 19.9616 18.7672C19.9756 18.772 19.9903 18.7741 20.005 18.7732C20.0347 18.7714 20.0625 18.7578 20.0821 18.7355C20.1018 18.7132 20.1119 18.684 20.11 18.6542C20.1081 18.6245 20.0946 18.5968 20.0722 18.5771C20.0499 18.5574 20.0207 18.5474 19.991 18.5492H19.992ZM27.992 18.5492C27.9773 18.5501 27.9629 18.5538 27.9496 18.5603C27.9364 18.5667 27.9245 18.5756 27.9147 18.5866C27.9049 18.5976 27.8974 18.6105 27.8925 18.6244C27.8877 18.6383 27.8856 18.653 27.8865 18.6677C27.8874 18.6825 27.8911 18.6968 27.8975 18.7101C27.9039 18.7234 27.9129 18.7352 27.9239 18.745C27.9349 18.7548 27.9477 18.7624 27.9616 18.7672C27.9756 18.772 27.9903 18.7741 28.005 18.7732C28.0347 18.7714 28.0625 18.7578 28.0821 18.7355C28.1018 18.7132 28.1119 18.684 28.11 18.6542C28.1081 18.6245 28.0946 18.5968 28.0722 18.5771C28.0499 18.5574 28.0207 18.5474 27.991 18.5492H27.992ZM19.98 19.1092C19.9534 19.1138 19.9294 19.1277 19.9121 19.1484C19.8949 19.1691 19.8856 19.1953 19.886 19.2222C19.886 19.2521 19.8979 19.2807 19.9189 19.3018C19.94 19.3229 19.9687 19.3347 19.9985 19.3347C20.0283 19.3347 20.057 19.3229 20.078 19.3018C20.0991 19.2807 20.111 19.2521 20.111 19.2222C20.1107 19.1925 20.0989 19.1641 20.078 19.143C20.057 19.1219 20.0287 19.1098 19.999 19.1092H19.98ZM27.98 19.1092C27.9534 19.1138 27.9294 19.1277 27.9121 19.1484C27.8949 19.1691 27.8856 19.1953 27.886 19.2222C27.886 19.2521 27.8979 19.2807 27.9189 19.3018C27.94 19.3229 27.9687 19.3347 27.9985 19.3347C28.0283 19.3347 28.057 19.3229 28.078 19.3018C28.0991 19.2807 28.111 19.2521 28.111 19.2222C28.1107 19.1925 28.0989 19.1641 28.078 19.143C28.057 19.1219 28.0287 19.1098 27.999 19.1092H27.98ZM20.001 19.6692C19.9861 19.6692 19.9713 19.6722 19.9575 19.6779C19.9437 19.6837 19.9312 19.6921 19.9207 19.7027C19.9102 19.7133 19.9019 19.7259 19.8963 19.7397C19.8907 19.7535 19.8879 19.7683 19.888 19.7832C19.888 19.8452 19.938 19.8952 20.001 19.8942C20.063 19.8942 20.111 19.8442 20.113 19.7832C20.1131 19.7685 20.1103 19.7538 20.1048 19.7401C20.0992 19.7264 20.091 19.7139 20.0806 19.7034C20.0701 19.6929 20.0577 19.6846 20.0441 19.6789C20.0304 19.6732 20.0158 19.6702 20.001 19.6702V19.6692ZM28.001 19.6692C27.9861 19.6692 27.9713 19.6722 27.9575 19.6779C27.9437 19.6837 27.9312 19.6921 27.9207 19.7027C27.9102 19.7133 27.9019 19.7259 27.8963 19.7397C27.8907 19.7535 27.8879 19.7683 27.888 19.7832C27.888 19.8452 27.938 19.8952 28.001 19.8942C28.063 19.8942 28.111 19.8442 28.113 19.7832C28.1131 19.7685 28.1103 19.7538 28.1048 19.7401C28.0992 19.7264 28.091 19.7139 28.0806 19.7034C28.0701 19.6929 28.0577 19.6846 28.0441 19.6789C28.0304 19.6732 28.0158 19.6702 28.001 19.6702V19.6692ZM19.991 20.2322C19.9617 20.2333 19.9339 20.2458 19.9137 20.2671C19.8935 20.2884 19.8825 20.3168 19.883 20.3462C19.8835 20.3755 19.8956 20.4035 19.9165 20.4241C19.9375 20.4446 19.9656 20.4562 19.995 20.4562C20.0244 20.4562 20.0525 20.4446 20.0735 20.4241C20.0944 20.4035 20.1065 20.3755 20.107 20.3462C20.1075 20.3168 20.0965 20.2884 20.0763 20.2671C20.0561 20.2458 20.0283 20.2333 19.999 20.2322H19.991ZM27.991 20.2322C27.9617 20.2333 27.9339 20.2458 27.9137 20.2671C27.8935 20.2884 27.8825 20.3168 27.883 20.3462C27.8835 20.3755 27.8956 20.4035 27.9165 20.4241C27.9375 20.4446 27.9656 20.4562 27.995 20.4562C28.0244 20.4562 28.0525 20.4446 28.0735 20.4241C28.0944 20.4035 28.1065 20.3755 28.107 20.3462C28.1075 20.3168 28.0965 20.2884 28.0763 20.2671C28.0561 20.2458 28.0283 20.2333 27.999 20.2322H27.991ZM19.991 20.7952C19.9763 20.7962 19.9619 20.8 19.9487 20.8064C19.9354 20.8129 19.9236 20.8219 19.9139 20.833C19.9041 20.844 19.8966 20.8569 19.8918 20.8709C19.8871 20.8848 19.8851 20.8995 19.886 20.9142C19.8869 20.929 19.8907 20.9433 19.8972 20.9566C19.9037 20.9698 19.9127 20.9816 19.9238 20.9914C19.9348 21.0011 19.9477 21.0086 19.9616 21.0134C19.9755 21.0182 19.9903 21.0202 20.005 21.0192C20.0347 21.0174 20.0625 21.0038 20.0821 20.9815C20.1018 20.9592 20.1119 20.93 20.11 20.9002C20.1081 20.8705 20.0946 20.8428 20.0722 20.8231C20.0499 20.8034 20.0207 20.7934 19.991 20.7952ZM27.991 20.7952C27.9763 20.7962 27.9619 20.8 27.9487 20.8064C27.9354 20.8129 27.9236 20.8219 27.9139 20.833C27.9041 20.844 27.8966 20.8569 27.8918 20.8709C27.8871 20.8848 27.8851 20.8995 27.886 20.9142C27.8869 20.929 27.8907 20.9433 27.8972 20.9566C27.9037 20.9698 27.9127 20.9816 27.9238 20.9914C27.9348 21.0011 27.9477 21.0086 27.9616 21.0134C27.9755 21.0182 27.9903 21.0202 28.005 21.0192C28.0347 21.0174 28.0625 21.0038 28.0821 20.9815C28.1018 20.9592 28.1119 20.93 28.11 20.9002C28.1081 20.8705 28.0946 20.8428 28.0722 20.8231C28.0499 20.8034 28.0207 20.7934 27.991 20.7952ZM19.991 21.3572C19.9617 21.3583 19.9339 21.3708 19.9137 21.3921C19.8935 21.4134 19.8825 21.4418 19.883 21.4712C19.8835 21.5005 19.8956 21.5285 19.9165 21.5491C19.9375 21.5696 19.9656 21.5812 19.995 21.5812C20.0244 21.5812 20.0525 21.5696 20.0735 21.5491C20.0944 21.5285 20.1065 21.5005 20.107 21.4712C20.1075 21.4418 20.0965 21.4134 20.0763 21.3921C20.0561 21.3708 20.0283 21.3583 19.999 21.3572H19.991ZM27.991 21.3572C27.9617 21.3583 27.9339 21.3708 27.9137 21.3921C27.8935 21.4134 27.8825 21.4418 27.883 21.4712C27.8835 21.5005 27.8956 21.5285 27.9165 21.5491C27.9375 21.5696 27.9656 21.5812 27.995 21.5812C28.0244 21.5812 28.0525 21.5696 28.0735 21.5491C28.0944 21.5285 28.1065 21.5005 28.107 21.4712C28.1075 21.4418 28.0965 21.4134 28.0763 21.3921C28.0561 21.3708 28.0283 21.3583 27.999 21.3572H27.991ZM19.991 21.9202C19.9751 21.9195 19.9592 21.9221 19.9443 21.9279C19.9295 21.9337 19.9161 21.9426 19.9049 21.954C19.8937 21.9653 19.8851 21.9789 19.8796 21.9939C19.874 22.0088 19.8717 22.0248 19.8728 22.0407C19.8739 22.0566 19.8783 22.0721 19.8857 22.0861C19.8932 22.1002 19.9036 22.1125 19.9162 22.1223C19.9288 22.1321 19.9433 22.1391 19.9587 22.1429C19.9742 22.1467 19.9903 22.1471 20.006 22.1442C20.0333 22.1392 20.0577 22.1244 20.0747 22.1025C20.0918 22.0806 20.1001 22.0532 20.0983 22.0256C20.0964 21.9979 20.0845 21.9719 20.0647 21.9525C20.0449 21.9331 20.0187 21.9216 19.991 21.9202ZM27.991 21.9202C27.9751 21.9195 27.9592 21.9221 27.9443 21.9279C27.9295 21.9337 27.9161 21.9426 27.9049 21.954C27.8937 21.9653 27.8851 21.9789 27.8796 21.9939C27.874 22.0088 27.8717 22.0248 27.8728 22.0407C27.8739 22.0566 27.8783 22.0721 27.8857 22.0861C27.8932 22.1002 27.9036 22.1125 27.9162 22.1223C27.9288 22.1321 27.9433 22.1391 27.9587 22.1429C27.9742 22.1467 27.9903 22.1471 28.006 22.1442C28.0333 22.1392 28.0577 22.1244 28.0747 22.1025C28.0918 22.0806 28.1001 22.0532 28.0983 22.0256C28.0964 21.9979 28.0845 21.9719 28.0647 21.9525C28.0449 21.9331 28.0187 21.9216 27.991 21.9202ZM17.577 22.1232V22.1252C17.4524 22.1272 17.3295 22.1537 17.2152 22.2033C17.1009 22.2529 16.9975 22.3246 16.911 22.4142L15.103 24.2712C15.0163 24.3605 14.9481 24.466 14.9022 24.5817C14.8563 24.6974 14.8336 24.821 14.8355 24.9454C14.8392 25.1967 14.9427 25.4362 15.123 25.6112C15.3033 25.7863 15.5458 25.8825 15.7971 25.8788C16.0484 25.875 16.288 25.7716 16.463 25.5912L18.27 23.7322C18.357 23.6431 18.4255 23.5377 18.4716 23.422C18.5177 23.3063 18.5405 23.1826 18.5386 23.0581C18.5368 22.9336 18.5103 22.8106 18.4608 22.6964C18.4112 22.5821 18.3396 22.4787 18.25 22.3922C18.161 22.305 18.0556 22.2363 17.94 22.1899C17.8243 22.1436 17.7006 22.1206 17.576 22.1222L17.577 22.1232ZM24.859 22.1232V22.1252C24.7344 22.1272 24.6115 22.1537 24.4972 22.2033C24.3829 22.2529 24.2795 22.3246 24.193 22.4142L22.384 24.2712C22.2973 24.3605 22.2291 24.466 22.1832 24.5817C22.1373 24.6974 22.1146 24.821 22.1165 24.9454C22.1183 25.0698 22.1447 25.1927 22.194 25.3069C22.2433 25.4212 22.3147 25.5246 22.404 25.6112C22.4933 25.6979 22.5988 25.7662 22.7145 25.8121C22.8301 25.858 22.9537 25.8806 23.0781 25.8788C23.2026 25.8769 23.3254 25.8506 23.4397 25.8012C23.5539 25.7519 23.6573 25.6805 23.744 25.5912L25.552 23.7322C25.639 23.6431 25.7075 23.5377 25.7536 23.422C25.7997 23.3063 25.8225 23.1826 25.8206 23.0581C25.8188 22.9336 25.7923 22.8106 25.7428 22.6964C25.6932 22.5821 25.6216 22.4787 25.532 22.3922C25.4431 22.3051 25.3379 22.2365 25.2224 22.1901C25.1069 22.1438 24.9834 22.1207 24.859 22.1222V22.1232ZM32.139 22.1232V22.1252C32.0146 22.1273 31.8918 22.1539 31.7777 22.2035C31.6636 22.2531 31.5604 22.3247 31.474 22.4142L29.665 24.2712C29.5783 24.3605 29.5101 24.466 29.4642 24.5817C29.4183 24.6974 29.3956 24.821 29.3975 24.9454C29.3993 25.0698 29.4257 25.1927 29.475 25.3069C29.5243 25.4212 29.5957 25.5246 29.685 25.6112C29.7743 25.6979 29.8798 25.7662 29.9955 25.8121C30.1111 25.858 30.2347 25.8806 30.3591 25.8788C30.4836 25.8769 30.6064 25.8506 30.7207 25.8012C30.8349 25.7519 30.9383 25.6805 31.025 25.5912L32.833 23.7322C32.92 23.6431 32.9885 23.5377 33.0346 23.422C33.0807 23.3063 33.1035 23.1826 33.1016 23.0581C33.0998 22.9336 33.0733 22.8106 33.0238 22.6964C32.9742 22.5821 32.9026 22.4787 32.813 22.3922C32.7241 22.3051 32.6189 22.2365 32.5034 22.1901C32.3879 22.1438 32.2644 22.1207 32.14 22.1222L32.139 22.1232ZM19.992 22.4832C19.9766 22.483 19.9613 22.4859 19.9471 22.4919C19.9328 22.4978 19.92 22.5066 19.9093 22.5177C19.8987 22.5288 19.8904 22.542 19.8851 22.5565C19.8798 22.571 19.8775 22.5864 19.8784 22.6017C19.8793 22.6171 19.8833 22.6322 19.8903 22.6459C19.8973 22.6597 19.907 22.6718 19.9189 22.6816C19.9308 22.6914 19.9446 22.6987 19.9594 22.7029C19.9742 22.7071 19.9897 22.7083 20.005 22.7062C20.0197 22.7053 20.0341 22.7015 20.0473 22.695C20.0606 22.6886 20.0724 22.6795 20.0821 22.6685C20.0919 22.6574 20.0994 22.6446 20.1042 22.6306C20.1089 22.6167 20.1109 22.602 20.11 22.5872C20.1091 22.5725 20.1053 22.5582 20.0988 22.5449C20.0923 22.5317 20.0833 22.5198 20.0722 22.5101C20.0612 22.5003 20.0483 22.4929 20.0344 22.4881C20.0205 22.4833 20.0057 22.4813 19.991 22.4822L19.992 22.4832ZM27.992 22.4832C27.9766 22.483 27.9613 22.4859 27.9471 22.4919C27.9328 22.4978 27.92 22.5066 27.9093 22.5177C27.8987 22.5288 27.8904 22.542 27.8851 22.5565C27.8798 22.571 27.8775 22.5864 27.8784 22.6017C27.8793 22.6171 27.8833 22.6322 27.8903 22.6459C27.8973 22.6597 27.907 22.6718 27.9189 22.6816C27.9308 22.6914 27.9446 22.6987 27.9594 22.7029C27.9742 22.7071 27.9897 22.7083 28.005 22.7062C28.0197 22.7053 28.0341 22.7015 28.0473 22.695C28.0606 22.6886 28.0724 22.6795 28.0821 22.6685C28.0919 22.6574 28.0994 22.6446 28.1042 22.6306C28.1089 22.6167 28.1109 22.602 28.11 22.5872C28.1091 22.5725 28.1053 22.5582 28.0988 22.5449C28.0923 22.5317 28.0833 22.5198 28.0722 22.5101C28.0612 22.5003 28.0483 22.4929 28.0344 22.4881C28.0205 22.4833 28.0057 22.4813 27.991 22.4822L27.992 22.4832ZM19.992 23.0452C19.9627 23.0463 19.9349 23.0588 19.9147 23.0801C19.8945 23.1014 19.8835 23.1298 19.884 23.1592C19.8845 23.1885 19.8966 23.2165 19.9175 23.2371C19.9385 23.2576 19.9666 23.2692 19.996 23.2692C20.0254 23.2692 20.0535 23.2576 20.0745 23.2371C20.0954 23.2165 20.1075 23.1885 20.108 23.1592C20.1085 23.1298 20.0975 23.1014 20.0773 23.0801C20.0571 23.0588 20.0293 23.0463 20 23.0452H19.991H19.992ZM27.992 23.0452C27.9627 23.0463 27.9349 23.0588 27.9147 23.0801C27.8945 23.1014 27.8835 23.1298 27.884 23.1592C27.8845 23.1885 27.8966 23.2165 27.9175 23.2371C27.9385 23.2576 27.9666 23.2692 27.996 23.2692C28.0254 23.2692 28.0535 23.2576 28.0745 23.2371C28.0954 23.2165 28.1075 23.1885 28.108 23.1592C28.1085 23.1298 28.0975 23.1014 28.0773 23.0801C28.0571 23.0588 28.0293 23.0463 28 23.0452H27.991H27.992ZM19.98 23.6072C19.9534 23.6114 19.9292 23.625 19.912 23.6456C19.8947 23.6662 19.8854 23.6924 19.886 23.7192C19.886 23.7414 19.8925 23.763 19.9048 23.7814C19.9171 23.7998 19.9345 23.8141 19.9549 23.8226C19.9753 23.8311 19.9978 23.8334 20.0195 23.8292C20.0412 23.8249 20.0611 23.8144 20.0768 23.7988C20.0925 23.7832 20.1033 23.7634 20.1077 23.7417C20.1122 23.72 20.1101 23.6976 20.1018 23.6771C20.0934 23.6566 20.0792 23.639 20.0609 23.6266C20.0427 23.6142 20.0211 23.6074 19.999 23.6072H19.98ZM27.98 23.6072C27.9534 23.6114 27.9292 23.625 27.912 23.6456C27.8947 23.6662 27.8854 23.6924 27.886 23.7192C27.886 23.7414 27.8925 23.763 27.9048 23.7814C27.9171 23.7998 27.9345 23.8141 27.9549 23.8226C27.9753 23.8311 27.9978 23.8334 28.0195 23.8292C28.0412 23.8249 28.0611 23.8144 28.0768 23.7988C28.0925 23.7832 28.1033 23.7634 28.1077 23.7417C28.1122 23.72 28.1101 23.6976 28.1018 23.6771C28.0934 23.6566 28.0792 23.639 28.0609 23.6266C28.0427 23.6142 28.0211 23.6074 27.999 23.6072H27.98ZM19.98 24.1702C19.9589 24.1737 19.9393 24.1831 19.9233 24.1973C19.9074 24.2116 19.8959 24.2301 19.8901 24.2506C19.8844 24.2712 19.8846 24.293 19.8909 24.3134C19.8971 24.3339 19.909 24.3521 19.9253 24.366C19.9415 24.3798 19.9614 24.3888 19.9826 24.3917C20.0037 24.3947 20.0253 24.3915 20.0447 24.3826C20.0641 24.3737 20.0806 24.3594 20.0921 24.3415C20.1037 24.3235 20.1099 24.3026 20.11 24.2812C20.11 24.2202 20.06 24.1712 20 24.1702H19.98ZM27.98 24.1702C27.9589 24.1737 27.9393 24.1831 27.9233 24.1973C27.9074 24.2116 27.8959 24.2301 27.8901 24.2506C27.8844 24.2712 27.8846 24.293 27.8909 24.3134C27.8971 24.3339 27.909 24.3521 27.9253 24.366C27.9415 24.3798 27.9614 24.3888 27.9826 24.3917C28.0037 24.3947 28.0253 24.3915 28.0447 24.3826C28.0641 24.3737 28.0806 24.3594 28.0921 24.3415C28.1037 24.3235 28.1099 24.3026 28.11 24.2812C28.11 24.2202 28.06 24.1712 28 24.1702H27.98ZM19.991 24.7302C19.9763 24.7312 19.9619 24.735 19.9487 24.7414C19.9354 24.7479 19.9236 24.7569 19.9139 24.768C19.9041 24.779 19.8966 24.7919 19.8918 24.8059C19.8871 24.8198 19.8851 24.8345 19.886 24.8492C19.8869 24.864 19.8907 24.8783 19.8972 24.8916C19.9037 24.9048 19.9127 24.9166 19.9238 24.9264C19.9348 24.9361 19.9477 24.9436 19.9616 24.9484C19.9755 24.9532 19.9903 24.9552 20.005 24.9542C20.0347 24.9524 20.0625 24.9388 20.0821 24.9165C20.1018 24.8942 20.1119 24.865 20.11 24.8352C20.1081 24.8055 20.0946 24.7778 20.0722 24.7581C20.0499 24.7384 20.0207 24.7284 19.991 24.7302ZM27.991 24.7302C27.9763 24.7312 27.9619 24.735 27.9487 24.7414C27.9354 24.7479 27.9236 24.7569 27.9139 24.768C27.9041 24.779 27.8966 24.7919 27.8918 24.8059C27.8871 24.8198 27.8851 24.8345 27.886 24.8492C27.8869 24.864 27.8907 24.8783 27.8972 24.8916C27.9037 24.9048 27.9127 24.9166 27.9238 24.9264C27.9348 24.9361 27.9477 24.9436 27.9616 24.9484C27.9755 24.9532 27.9903 24.9552 28.005 24.9542C28.0347 24.9524 28.0625 24.9388 28.0821 24.9165C28.1018 24.8942 28.1119 24.865 28.11 24.8352C28.1081 24.8055 28.0946 24.7778 28.0722 24.7581C28.0499 24.7384 28.0207 24.7284 27.991 24.7302ZM19.991 25.2932C19.9613 25.2951 19.9335 25.3087 19.9139 25.331C19.8942 25.3533 19.8841 25.3825 19.886 25.4122C19.8879 25.4419 19.9014 25.4697 19.9238 25.4894C19.9461 25.5091 19.9753 25.5191 20.005 25.5172C20.0197 25.5163 20.0341 25.5125 20.0473 25.506C20.0606 25.4996 20.0724 25.4905 20.0821 25.4795C20.0919 25.4684 20.0994 25.4556 20.1042 25.4416C20.1089 25.4277 20.1109 25.413 20.11 25.3982C20.1091 25.3835 20.1053 25.3692 20.0988 25.3559C20.0923 25.3427 20.0833 25.3308 20.0722 25.3211C20.0612 25.3113 20.0483 25.3039 20.0344 25.2991C20.0205 25.2943 20.0057 25.2923 19.991 25.2932ZM27.991 25.2932C27.9613 25.2951 27.9335 25.3087 27.9139 25.331C27.8942 25.3533 27.8841 25.3825 27.886 25.4122C27.8879 25.4419 27.9014 25.4697 27.9238 25.4894C27.9461 25.5091 27.9753 25.5191 28.005 25.5172C28.0197 25.5163 28.0341 25.5125 28.0473 25.506C28.0606 25.4996 28.0724 25.4905 28.0821 25.4795C28.0919 25.4684 28.0994 25.4556 28.1042 25.4416C28.1089 25.4277 28.1109 25.413 28.11 25.3982C28.1091 25.3835 28.1053 25.3692 28.0988 25.3559C28.0923 25.3427 28.0833 25.3308 28.0722 25.3211C28.0612 25.3113 28.0483 25.3039 28.0344 25.2991C28.0205 25.2943 28.0057 25.2923 27.991 25.2932ZM19.991 25.8552C19.9763 25.8562 19.9619 25.86 19.9487 25.8664C19.9354 25.8729 19.9236 25.8819 19.9139 25.893C19.9041 25.904 19.8966 25.9169 19.8918 25.9309C19.8871 25.9448 19.8851 25.9595 19.886 25.9742C19.8869 25.989 19.8907 26.0033 19.8972 26.0166C19.9037 26.0298 19.9127 26.0416 19.9238 26.0514C19.9348 26.0611 19.9477 26.0686 19.9616 26.0734C19.9755 26.0782 19.9903 26.0802 20.005 26.0792C20.0347 26.0774 20.0625 26.0638 20.0821 26.0415C20.1018 26.0192 20.1119 25.99 20.11 25.9602C20.1081 25.9305 20.0946 25.9028 20.0722 25.8831C20.0499 25.8634 20.0207 25.8534 19.991 25.8552ZM27.991 25.8552C27.9763 25.8562 27.9619 25.86 27.9487 25.8664C27.9354 25.8729 27.9236 25.8819 27.9139 25.893C27.9041 25.904 27.8966 25.9169 27.8918 25.9309C27.8871 25.9448 27.8851 25.9595 27.886 25.9742C27.8869 25.989 27.8907 26.0033 27.8972 26.0166C27.9037 26.0298 27.9127 26.0416 27.9238 26.0514C27.9348 26.0611 27.9477 26.0686 27.9616 26.0734C27.9755 26.0782 27.9903 26.0802 28.005 26.0792C28.0347 26.0774 28.0625 26.0638 28.0821 26.0415C28.1018 26.0192 28.1119 25.99 28.11 25.9602C28.1081 25.9305 28.0946 25.9028 28.0722 25.8831C28.0499 25.8634 28.0207 25.8534 27.991 25.8552ZM17.577 26.1232V26.1252C17.4524 26.1272 17.3295 26.1537 17.2152 26.2033C17.1009 26.2529 16.9975 26.3246 16.911 26.4142L15.103 28.2712C15.0163 28.3605 14.9481 28.466 14.9022 28.5817C14.8563 28.6974 14.8336 28.821 14.8355 28.9454C14.8392 29.1967 14.9427 29.4362 15.123 29.6112C15.3033 29.7863 15.5458 29.8825 15.7971 29.8788C16.0484 29.875 16.288 29.7716 16.463 29.5912L18.27 27.7322C18.357 27.6431 18.4255 27.5377 18.4716 27.422C18.5177 27.3063 18.5405 27.1826 18.5386 27.0581C18.5368 26.9336 18.5103 26.8106 18.4608 26.6964C18.4112 26.5821 18.3396 26.4787 18.25 26.3922C18.161 26.305 18.0556 26.2363 17.94 26.1899C17.8243 26.1436 17.7006 26.1206 17.576 26.1222L17.577 26.1232ZM24.859 26.1232V26.1252C24.7344 26.1272 24.6115 26.1537 24.4972 26.2033C24.3829 26.2529 24.2795 26.3246 24.193 26.4142L22.384 28.2712C22.2973 28.3605 22.2291 28.466 22.1832 28.5817C22.1373 28.6974 22.1146 28.821 22.1165 28.9454C22.1183 29.0698 22.1447 29.1927 22.194 29.3069C22.2433 29.4212 22.3147 29.5246 22.404 29.6112C22.4933 29.6979 22.5988 29.7662 22.7145 29.8121C22.8301 29.858 22.9537 29.8806 23.0781 29.8788C23.2026 29.8769 23.3254 29.8506 23.4397 29.8012C23.5539 29.7519 23.6573 29.6805 23.744 29.5912L25.552 27.7322C25.639 27.6431 25.7075 27.5377 25.7536 27.422C25.7997 27.3063 25.8225 27.1826 25.8206 27.0581C25.8188 26.9336 25.7923 26.8106 25.7428 26.6964C25.6932 26.5821 25.6216 26.4787 25.532 26.3922C25.4431 26.3051 25.3379 26.2365 25.2224 26.1901C25.1069 26.1438 24.9834 26.1207 24.859 26.1222V26.1232ZM32.139 26.1232V26.1252C32.0146 26.1273 31.8918 26.1539 31.7777 26.2035C31.6636 26.2531 31.5604 26.3247 31.474 26.4142L29.665 28.2712C29.5783 28.3605 29.5101 28.466 29.4642 28.5817C29.4183 28.6974 29.3956 28.821 29.3975 28.9454C29.3993 29.0698 29.4257 29.1927 29.475 29.3069C29.5243 29.4212 29.5957 29.5246 29.685 29.6112C29.7743 29.6979 29.8798 29.7662 29.9955 29.8121C30.1111 29.858 30.2347 29.8806 30.3591 29.8788C30.4836 29.8769 30.6064 29.8506 30.7207 29.8012C30.8349 29.7519 30.9383 29.6805 31.025 29.5912L32.833 27.7322C32.92 27.6431 32.9885 27.5377 33.0346 27.422C33.0807 27.3063 33.1035 27.1826 33.1016 27.0581C33.0998 26.9336 33.0733 26.8106 33.0238 26.6964C32.9742 26.5821 32.9026 26.4787 32.813 26.3922C32.7241 26.3051 32.6189 26.2365 32.5034 26.1901C32.3879 26.1438 32.2644 26.1207 32.14 26.1222L32.139 26.1232ZM19.992 26.4182C19.9773 26.4191 19.9629 26.4228 19.9496 26.4293C19.9364 26.4357 19.9245 26.4446 19.9147 26.4556C19.9049 26.4666 19.8974 26.4795 19.8925 26.4934C19.8877 26.5073 19.8856 26.522 19.8865 26.5367C19.8874 26.5515 19.8911 26.5658 19.8975 26.5791C19.9039 26.5924 19.9129 26.6042 19.9239 26.614C19.9349 26.6238 19.9477 26.6314 19.9616 26.6362C19.9756 26.641 19.9903 26.6431 20.005 26.6422C20.0197 26.6413 20.0341 26.6375 20.0473 26.631C20.0606 26.6246 20.0724 26.6155 20.0821 26.6045C20.0919 26.5934 20.0994 26.5806 20.1042 26.5666C20.1089 26.5527 20.1109 26.538 20.11 26.5232C20.1091 26.5085 20.1053 26.4942 20.0988 26.4809C20.0923 26.4677 20.0833 26.4558 20.0722 26.4461C20.0612 26.4363 20.0483 26.4289 20.0344 26.4241C20.0205 26.4193 20.0057 26.4173 19.991 26.4182H19.992ZM27.992 26.4182C27.9773 26.4191 27.9629 26.4228 27.9496 26.4293C27.9364 26.4357 27.9245 26.4446 27.9147 26.4556C27.9049 26.4666 27.8974 26.4795 27.8925 26.4934C27.8877 26.5073 27.8856 26.522 27.8865 26.5367C27.8874 26.5515 27.8911 26.5658 27.8975 26.5791C27.9039 26.5924 27.9129 26.6042 27.9239 26.614C27.9349 26.6238 27.9477 26.6314 27.9616 26.6362C27.9756 26.641 27.9903 26.6431 28.005 26.6422C28.0197 26.6413 28.0341 26.6375 28.0473 26.631C28.0606 26.6246 28.0724 26.6155 28.0821 26.6045C28.0919 26.5934 28.0994 26.5806 28.1042 26.5666C28.1089 26.5527 28.1109 26.538 28.11 26.5232C28.1091 26.5085 28.1053 26.4942 28.0988 26.4809C28.0923 26.4677 28.0833 26.4558 28.0722 26.4461C28.0612 26.4363 28.0483 26.4289 28.0344 26.4241C28.0205 26.4193 28.0057 26.4173 27.991 26.4182H27.992ZM19.992 26.9802C19.9699 26.9816 19.9487 26.9894 19.931 27.0028C19.9134 27.0161 19.9 27.0343 19.8926 27.0551C19.8851 27.076 19.884 27.0985 19.8893 27.12C19.8946 27.1415 19.906 27.161 19.9223 27.176C19.9385 27.191 19.9588 27.2009 19.9807 27.2045C20.0025 27.2081 20.0249 27.2052 20.0451 27.1962C20.0653 27.1872 20.0824 27.1724 20.0943 27.1538C20.1062 27.1351 20.1123 27.1134 20.112 27.0912C20.1116 27.0761 20.1082 27.0611 20.1019 27.0473C20.0956 27.0334 20.0866 27.021 20.0754 27.0107C20.0642 27.0005 20.051 26.9926 20.0367 26.9875C20.0224 26.9824 20.0072 26.9803 19.992 26.9812V26.9802ZM27.992 26.9802C27.9699 26.9816 27.9487 26.9894 27.931 27.0028C27.9134 27.0161 27.9 27.0343 27.8926 27.0551C27.8851 27.076 27.884 27.0985 27.8893 27.12C27.8946 27.1415 27.906 27.161 27.9223 27.176C27.9385 27.191 27.9588 27.2009 27.9807 27.2045C28.0025 27.2081 28.0249 27.2052 28.0451 27.1962C28.0653 27.1872 28.0824 27.1724 28.0943 27.1538C28.1062 27.1351 28.1123 27.1134 28.112 27.0912C28.1116 27.0761 28.1082 27.0611 28.1019 27.0473C28.0956 27.0334 28.0866 27.021 28.0754 27.0107C28.0642 27.0005 28.051 26.9926 28.0367 26.9875C28.0224 26.9824 28.0072 26.9803 27.992 26.9812V26.9802ZM19.992 27.5432C19.9773 27.5441 19.9629 27.5478 19.9496 27.5543C19.9364 27.5607 19.9245 27.5696 19.9147 27.5806C19.9049 27.5916 19.8974 27.6045 19.8925 27.6184C19.8877 27.6323 19.8856 27.647 19.8865 27.6617C19.8874 27.6765 19.8911 27.6908 19.8975 27.7041C19.9039 27.7174 19.9129 27.7292 19.9239 27.739C19.9349 27.7488 19.9477 27.7564 19.9616 27.7612C19.9756 27.766 19.9903 27.7681 20.005 27.7672C20.0347 27.7654 20.0625 27.7518 20.0821 27.7295C20.1018 27.7072 20.1119 27.6779 20.11 27.6482C20.1081 27.6185 20.0946 27.5908 20.0722 27.5711C20.0499 27.5514 20.0207 27.5414 19.991 27.5432H19.992ZM27.992 27.5432C27.9773 27.5441 27.9629 27.5478 27.9496 27.5543C27.9364 27.5607 27.9245 27.5696 27.9147 27.5806C27.9049 27.5916 27.8974 27.6045 27.8925 27.6184C27.8877 27.6323 27.8856 27.647 27.8865 27.6617C27.8874 27.6765 27.8911 27.6908 27.8975 27.7041C27.9039 27.7174 27.9129 27.7292 27.9239 27.739C27.9349 27.7488 27.9477 27.7564 27.9616 27.7612C27.9756 27.766 27.9903 27.7681 28.005 27.7672C28.0347 27.7654 28.0625 27.7518 28.0821 27.7295C28.1018 27.7072 28.1119 27.6779 28.11 27.6482C28.1081 27.6185 28.0946 27.5908 28.0722 27.5711C28.0499 27.5514 28.0207 27.5414 27.991 27.5432H27.992ZM19.98 28.1052C19.9534 28.1094 19.9292 28.123 19.912 28.1436C19.8947 28.1642 19.8854 28.1904 19.886 28.2172C19.886 28.2792 19.936 28.3292 19.999 28.3272C20.06 28.3272 20.11 28.2772 20.111 28.2172C20.111 28.1552 20.061 28.1062 19.999 28.1052H19.98ZM27.98 28.1052C27.9534 28.1094 27.9292 28.123 27.912 28.1436C27.8947 28.1642 27.8854 28.1904 27.886 28.2172C27.886 28.2792 27.936 28.3292 27.999 28.3272C28.06 28.3272 28.11 28.2772 28.111 28.2172C28.111 28.1552 28.061 28.1062 27.999 28.1052H27.98ZM20.001 28.6652C19.9853 28.6638 19.9695 28.6656 19.9546 28.6706C19.9397 28.6755 19.926 28.6836 19.9143 28.6942C19.9027 28.7048 19.8934 28.7177 19.887 28.7321C19.8807 28.7464 19.8774 28.762 19.8774 28.7777C19.8774 28.7935 19.8807 28.809 19.887 28.8234C19.8934 28.8378 19.9027 28.8507 19.9143 28.8613C19.926 28.8719 19.9397 28.88 19.9546 28.8849C19.9695 28.8899 19.9853 28.8917 20.001 28.8902C20.0307 28.8902 20.0592 28.8784 20.0802 28.8574C20.1012 28.8364 20.113 28.8079 20.113 28.7782C20.113 28.7485 20.1012 28.7201 20.0802 28.699C20.0592 28.678 20.0307 28.6662 20.001 28.6662V28.6652ZM28.001 28.6652C27.9853 28.6638 27.9695 28.6656 27.9546 28.6706C27.9397 28.6755 27.926 28.6836 27.9143 28.6942C27.9027 28.7048 27.8934 28.7177 27.887 28.7321C27.8807 28.7464 27.8774 28.762 27.8774 28.7777C27.8774 28.7935 27.8807 28.809 27.887 28.8234C27.8934 28.8378 27.9027 28.8507 27.9143 28.8613C27.926 28.8719 27.9397 28.88 27.9546 28.8849C27.9695 28.8899 27.9853 28.8917 28.001 28.8902C28.0307 28.8902 28.0592 28.8784 28.0802 28.8574C28.1012 28.8364 28.113 28.8079 28.113 28.7782C28.113 28.7485 28.1012 28.7201 28.0802 28.699C28.0592 28.678 28.0307 28.6662 28.001 28.6662V28.6652ZM19.991 29.2282C19.9612 29.2293 19.933 29.2422 19.9126 29.264C19.8923 29.2859 19.8814 29.3149 19.8825 29.3447C19.8836 29.3746 19.8964 29.4028 19.9183 29.4231C19.9401 29.4435 19.9692 29.4543 19.999 29.4532C20.06 29.4532 20.11 29.4032 20.111 29.3422C20.1113 29.3274 20.1086 29.3126 20.1031 29.2988C20.0975 29.2849 20.0893 29.2724 20.0789 29.2618C20.0685 29.2511 20.056 29.2427 20.0423 29.237C20.0286 29.2312 20.0139 29.2282 19.999 29.2282H19.991ZM27.991 29.2282C27.9612 29.2293 27.933 29.2422 27.9126 29.264C27.8923 29.2859 27.8814 29.3149 27.8825 29.3447C27.8836 29.3746 27.8964 29.4028 27.9183 29.4231C27.9401 29.4435 27.9692 29.4543 27.999 29.4532C28.06 29.4532 28.11 29.4032 28.111 29.3422C28.1113 29.3274 28.1086 29.3126 28.1031 29.2988C28.0975 29.2849 28.0893 29.2724 28.0789 29.2618C28.0685 29.2511 28.056 29.2427 28.0423 29.237C28.0286 29.2312 28.0139 29.2282 27.999 29.2282H27.991ZM19.991 29.7912C19.9613 29.7923 19.9332 29.8051 19.913 29.8269C19.8927 29.8486 19.8819 29.8775 19.883 29.9072C19.8841 29.937 19.8969 29.965 19.9186 29.9853C19.9404 30.0055 19.9693 30.0163 19.999 30.0152C20.06 30.0152 20.11 29.9662 20.111 29.9052C20.1113 29.8904 20.1086 29.8756 20.1031 29.8618C20.0975 29.8479 20.0893 29.8354 20.0789 29.8248C20.0685 29.8141 20.056 29.8057 20.0423 29.8C20.0286 29.7942 20.0139 29.7912 19.999 29.7912H19.991ZM27.991 29.7912C27.9613 29.7923 27.9332 29.8051 27.913 29.8269C27.8927 29.8486 27.8819 29.8775 27.883 29.9072C27.8841 29.937 27.8969 29.965 27.9186 29.9853C27.9404 30.0055 27.9693 30.0163 27.999 30.0152C28.06 30.0152 28.11 29.9662 28.111 29.9052C28.1113 29.8904 28.1086 29.8756 28.1031 29.8618C28.0975 29.8479 28.0893 29.8354 28.0789 29.8248C28.0685 29.8141 28.056 29.8057 28.0423 29.8C28.0286 29.7942 28.0139 29.7912 27.999 29.7912H27.991ZM17.577 30.1232V30.1252C17.4524 30.1272 17.3295 30.1537 17.2152 30.2033C17.1009 30.2529 16.9975 30.3246 16.911 30.4142L15.103 32.2712C15.0163 32.3605 14.9481 32.466 14.9022 32.5817C14.8563 32.6974 14.8336 32.821 14.8355 32.9454C14.8392 33.1967 14.9427 33.4362 15.123 33.6112C15.3033 33.7863 15.5458 33.8825 15.7971 33.8788C16.0484 33.875 16.288 33.7716 16.463 33.5912L18.27 31.7322C18.357 31.6431 18.4255 31.5377 18.4716 31.422C18.5177 31.3063 18.5405 31.1826 18.5386 31.0581C18.5368 30.9336 18.5103 30.8106 18.4608 30.6964C18.4112 30.5821 18.3396 30.4787 18.25 30.3922C18.161 30.305 18.0556 30.2363 17.94 30.1899C17.8243 30.1436 17.7006 30.1206 17.576 30.1222L17.577 30.1232ZM24.859 30.1232V30.1252C24.7344 30.1272 24.6115 30.1537 24.4972 30.2033C24.3829 30.2529 24.2795 30.3246 24.193 30.4142L22.384 32.2712C22.2973 32.3605 22.2291 32.466 22.1832 32.5817C22.1373 32.6974 22.1146 32.821 22.1165 32.9454C22.1183 33.0698 22.1447 33.1927 22.194 33.3069C22.2433 33.4212 22.3147 33.5246 22.404 33.6112C22.4933 33.6979 22.5988 33.7662 22.7145 33.8121C22.8301 33.858 22.9537 33.8806 23.0781 33.8788C23.2026 33.8769 23.3254 33.8506 23.4397 33.8012C23.5539 33.7519 23.6573 33.6805 23.744 33.5912L25.552 31.7322C25.639 31.6431 25.7075 31.5377 25.7536 31.422C25.7997 31.3063 25.8225 31.1826 25.8206 31.0581C25.8188 30.9336 25.7923 30.8106 25.7428 30.6964C25.6932 30.5821 25.6216 30.4787 25.532 30.3922C25.4431 30.3051 25.3379 30.2365 25.2224 30.1901C25.1069 30.1438 24.9834 30.1207 24.859 30.1222V30.1232ZM32.139 30.1232V30.1252C32.0146 30.1273 31.8918 30.1539 31.7777 30.2035C31.6636 30.2531 31.5604 30.3247 31.474 30.4142L29.665 32.2712C29.5783 32.3605 29.5101 32.466 29.4642 32.5817C29.4183 32.6974 29.3956 32.821 29.3975 32.9454C29.3993 33.0698 29.4257 33.1927 29.475 33.3069C29.5243 33.4212 29.5957 33.5246 29.685 33.6112C29.7743 33.6979 29.8798 33.7662 29.9955 33.8121C30.1111 33.858 30.2347 33.8806 30.3591 33.8788C30.4836 33.8769 30.6064 33.8506 30.7207 33.8012C30.8349 33.7519 30.9383 33.6805 31.025 33.5912L32.833 31.7322C32.92 31.6431 32.9885 31.5377 33.0346 31.422C33.0807 31.3063 33.1035 31.1826 33.1016 31.0581C33.0998 30.9336 33.0733 30.8106 33.0238 30.6964C32.9742 30.5821 32.9026 30.4787 32.813 30.3922C32.7241 30.3051 32.6189 30.2365 32.5034 30.1901C32.3879 30.1438 32.2644 30.1207 32.14 30.1222L32.139 30.1232ZM19.992 30.3532C19.963 30.3548 19.9357 30.3675 19.916 30.3888C19.8962 30.4101 19.8854 30.4382 19.886 30.4672C19.886 30.5292 19.936 30.5792 19.999 30.5772C20.0137 30.5767 20.0282 30.5733 20.0416 30.5672C20.0549 30.5611 20.067 30.5524 20.077 30.5416C20.0871 30.5308 20.0949 30.5182 20.1 30.5044C20.1051 30.4906 20.1075 30.476 20.107 30.4612C20.1065 30.4465 20.1031 30.4321 20.0969 30.4187C20.0908 30.4053 20.0821 30.3932 20.0714 30.3832C20.0606 30.3732 20.048 30.3654 20.0342 30.3602C20.0204 30.3551 20.0057 30.3527 19.991 30.3532H19.992ZM27.992 30.3532C27.963 30.3548 27.9357 30.3675 27.916 30.3888C27.8962 30.4101 27.8854 30.4382 27.886 30.4672C27.886 30.5292 27.936 30.5792 27.999 30.5772C28.0137 30.5767 28.0282 30.5733 28.0416 30.5672C28.0549 30.5611 28.067 30.5524 28.077 30.5416C28.0871 30.5308 28.0949 30.5182 28.1 30.5044C28.1051 30.4906 28.1075 30.476 28.107 30.4612C28.1065 30.4465 28.1031 30.4321 28.0969 30.4187C28.0908 30.4053 28.0821 30.3932 28.0714 30.3832C28.0606 30.3732 28.048 30.3654 28.0342 30.3602C28.0204 30.3551 28.0057 30.3527 27.991 30.3532H27.992ZM19.992 30.9132C19.9632 30.9153 19.9362 30.9282 19.9165 30.9493C19.8968 30.9705 19.8859 30.9983 19.886 31.0272C19.886 31.0571 19.8979 31.0857 19.9189 31.1068C19.94 31.1279 19.9687 31.1397 19.9985 31.1397C20.0283 31.1397 20.057 31.1279 20.078 31.1068C20.0991 31.0857 20.111 31.0571 20.111 31.0272C20.1109 31.0118 20.1077 30.9966 20.1015 30.9825C20.0953 30.9684 20.0864 30.9557 20.0752 30.9451C20.0639 30.9345 20.0507 30.9264 20.0362 30.9211C20.0218 30.9157 20.0064 30.9134 19.991 30.9142L19.992 30.9132ZM27.992 30.9132C27.9632 30.9153 27.9362 30.9282 27.9165 30.9493C27.8968 30.9705 27.8859 30.9983 27.886 31.0272C27.886 31.0571 27.8979 31.0857 27.9189 31.1068C27.94 31.1279 27.9687 31.1397 27.9985 31.1397C28.0283 31.1397 28.057 31.1279 28.078 31.1068C28.0991 31.0857 28.111 31.0571 28.111 31.0272C28.1109 31.0118 28.1077 30.9966 28.1015 30.9825C28.0953 30.9684 28.0864 30.9557 28.0752 30.9451C28.0639 30.9345 28.0507 30.9264 28.0362 30.9211C28.0218 30.9157 28.0064 30.9134 27.991 30.9142L27.992 30.9132ZM19.992 31.4762C19.9773 31.4771 19.9629 31.4808 19.9496 31.4873C19.9364 31.4937 19.9245 31.5026 19.9147 31.5136C19.9049 31.5246 19.8974 31.5375 19.8925 31.5514C19.8877 31.5653 19.8856 31.58 19.8865 31.5947C19.8874 31.6095 19.8911 31.6238 19.8975 31.6371C19.9039 31.6504 19.9129 31.6622 19.9239 31.672C19.9349 31.6818 19.9477 31.6894 19.9616 31.6942C19.9756 31.699 19.9903 31.7011 20.005 31.7002C20.0347 31.6984 20.0625 31.6848 20.0821 31.6625C20.1018 31.6402 20.1119 31.611 20.11 31.5812C20.1081 31.5515 20.0946 31.5238 20.0722 31.5041C20.0499 31.4844 20.0207 31.4744 19.991 31.4762H19.992ZM27.992 31.4762C27.9773 31.4771 27.9629 31.4808 27.9496 31.4873C27.9364 31.4937 27.9245 31.5026 27.9147 31.5136C27.9049 31.5246 27.8974 31.5375 27.8925 31.5514C27.8877 31.5653 27.8856 31.58 27.8865 31.5947C27.8874 31.6095 27.8911 31.6238 27.8975 31.6371C27.9039 31.6504 27.9129 31.6622 27.9239 31.672C27.9349 31.6818 27.9477 31.6894 27.9616 31.6942C27.9756 31.699 27.9903 31.7011 28.005 31.7002C28.0347 31.6984 28.0625 31.6848 28.0821 31.6625C28.1018 31.6402 28.1119 31.611 28.11 31.5812C28.1081 31.5515 28.0946 31.5238 28.0722 31.5041C28.0499 31.4844 28.0207 31.4744 27.991 31.4762H27.992ZM19.98 32.0392C19.9536 32.0433 19.9296 32.0568 19.9123 32.0772C19.895 32.0976 19.8857 32.1235 19.886 32.1502C19.8845 32.1659 19.8863 32.1817 19.8913 32.1966C19.8963 32.2116 19.9043 32.2253 19.9149 32.2369C19.9255 32.2486 19.9384 32.2579 19.9528 32.2642C19.9672 32.2706 19.9828 32.2739 19.9985 32.2739C20.0142 32.2739 20.0298 32.2706 20.0442 32.2642C20.0586 32.2579 20.0715 32.2486 20.0821 32.2369C20.0927 32.2253 20.1007 32.2116 20.1057 32.1966C20.1107 32.1817 20.1125 32.1659 20.111 32.1502C20.111 32.0902 20.061 32.0402 19.999 32.0392H19.98ZM27.98 32.0392C27.9536 32.0433 27.9296 32.0568 27.9123 32.0772C27.895 32.0976 27.8857 32.1235 27.886 32.1502C27.8845 32.1659 27.8863 32.1817 27.8913 32.1966C27.8963 32.2116 27.9043 32.2253 27.9149 32.2369C27.9255 32.2486 27.9384 32.2579 27.9528 32.2642C27.9672 32.2706 27.9828 32.2739 27.9985 32.2739C28.0142 32.2739 28.0298 32.2706 28.0442 32.2642C28.0586 32.2579 28.0715 32.2486 28.0821 32.2369C28.0927 32.2253 28.1007 32.2116 28.1057 32.1966C28.1107 32.1817 28.1125 32.1659 28.111 32.1502C28.111 32.0902 28.061 32.0402 27.999 32.0392H27.98ZM19.98 32.6012C19.9589 32.6047 19.9393 32.6141 19.9233 32.6283C19.9074 32.6426 19.8959 32.6611 19.8901 32.6816C19.8844 32.7022 19.8846 32.724 19.8909 32.7444C19.8971 32.7649 19.909 32.7831 19.9253 32.797C19.9415 32.8108 19.9614 32.8198 19.9826 32.8227C20.0037 32.8257 20.0253 32.8225 20.0447 32.8136C20.0641 32.8047 20.0806 32.7904 20.0921 32.7725C20.1037 32.7545 20.1099 32.7336 20.11 32.7122C20.11 32.6522 20.06 32.6022 20 32.6022H19.98V32.6012ZM27.98 32.6012C27.9589 32.6047 27.9393 32.6141 27.9233 32.6283C27.9074 32.6426 27.8959 32.6611 27.8901 32.6816C27.8844 32.7022 27.8846 32.724 27.8909 32.7444C27.8971 32.7649 27.909 32.7831 27.9253 32.797C27.9415 32.8108 27.9614 32.8198 27.9826 32.8227C28.0037 32.8257 28.0253 32.8225 28.0447 32.8136C28.0641 32.8047 28.0806 32.7904 28.0921 32.7725C28.1037 32.7545 28.1099 32.7336 28.11 32.7122C28.11 32.6522 28.06 32.6022 28 32.6022H27.98V32.6012ZM20.001 33.1612C19.9859 33.1614 19.9711 33.1645 19.9572 33.1704C19.9434 33.1763 19.9308 33.1849 19.9203 33.1957C19.9098 33.2065 19.9016 33.2192 19.896 33.2332C19.8905 33.2472 19.8877 33.2622 19.888 33.2772C19.888 33.3392 19.938 33.3872 20.001 33.3872C20.0156 33.3875 20.0301 33.3849 20.0437 33.3795C20.0573 33.374 20.0697 33.366 20.0801 33.3557C20.0905 33.3455 20.0988 33.3333 20.1044 33.3198C20.1101 33.3063 20.113 33.2919 20.113 33.2772C20.1133 33.2472 20.1016 33.2182 20.0807 33.1967C20.0597 33.1752 20.0311 33.1628 20.001 33.1622V33.1612ZM28.001 33.1612C27.9859 33.1614 27.9711 33.1645 27.9572 33.1704C27.9434 33.1763 27.9308 33.1849 27.9203 33.1957C27.9098 33.2065 27.9016 33.2192 27.896 33.2332C27.8905 33.2472 27.8877 33.2622 27.888 33.2772C27.888 33.3392 27.938 33.3872 28.001 33.3872C28.0156 33.3875 28.0301 33.3849 28.0437 33.3795C28.0573 33.374 28.0697 33.366 28.0801 33.3557C28.0905 33.3455 28.0988 33.3333 28.1044 33.3198C28.1101 33.3063 28.113 33.2919 28.113 33.2772C28.1133 33.2472 28.1016 33.2182 28.0807 33.1967C28.0597 33.1752 28.0311 33.1628 28.001 33.1622V33.1612ZM19.991 33.7242C19.9622 33.726 19.9352 33.7389 19.9156 33.7602C19.896 33.7814 19.8854 33.8094 19.886 33.8382C19.886 33.8992 19.936 33.9502 19.999 33.9492C20.06 33.9492 20.11 33.8992 20.111 33.8382C20.1113 33.8234 20.1086 33.8086 20.1031 33.7948C20.0975 33.7809 20.0893 33.7684 20.0789 33.7578C20.0685 33.7471 20.056 33.7387 20.0423 33.733C20.0286 33.7272 20.0139 33.7242 19.999 33.7242H19.991ZM27.991 33.7242C27.9622 33.726 27.9352 33.7389 27.9156 33.7602C27.896 33.7814 27.8854 33.8094 27.886 33.8382C27.886 33.8992 27.936 33.9502 27.999 33.9492C28.06 33.9492 28.11 33.8992 28.111 33.8382C28.1113 33.8234 28.1086 33.8086 28.1031 33.7948C28.0975 33.7809 28.0893 33.7684 28.0789 33.7578C28.0685 33.7471 28.056 33.7387 28.0423 33.733C28.0286 33.7272 28.0139 33.7242 27.999 33.7242H27.991ZM17.577 34.1232V34.1252C17.4524 34.1272 17.3295 34.1537 17.2152 34.2033C17.1009 34.2529 16.9975 34.3246 16.911 34.4142L15.103 36.2712C15.0163 36.3605 14.9481 36.466 14.9022 36.5817C14.8563 36.6974 14.8336 36.821 14.8355 36.9454C14.8392 37.1967 14.9427 37.4362 15.123 37.6112C15.3033 37.7863 15.5458 37.8825 15.7971 37.8788C16.0484 37.875 16.288 37.7716 16.463 37.5912L18.27 35.7322C18.357 35.6431 18.4255 35.5377 18.4716 35.422C18.5177 35.3063 18.5405 35.1826 18.5386 35.0581C18.5368 34.9336 18.5103 34.8106 18.4608 34.6964C18.4112 34.5821 18.3396 34.4787 18.25 34.3922C18.161 34.305 18.0556 34.2363 17.94 34.1899C17.8243 34.1436 17.7006 34.1206 17.576 34.1222L17.577 34.1232ZM24.859 34.1232V34.1252C24.7344 34.1272 24.6115 34.1537 24.4972 34.2033C24.3829 34.2529 24.2795 34.3246 24.193 34.4142L22.384 36.2712C22.2973 36.3605 22.2291 36.466 22.1832 36.5817C22.1373 36.6974 22.1146 36.821 22.1165 36.9454C22.1183 37.0698 22.1447 37.1927 22.194 37.3069C22.2433 37.4212 22.3147 37.5246 22.404 37.6112C22.4933 37.6979 22.5988 37.7662 22.7145 37.8121C22.8301 37.858 22.9537 37.8806 23.0781 37.8788C23.2026 37.8769 23.3254 37.8506 23.4397 37.8012C23.5539 37.7519 23.6573 37.6805 23.744 37.5912L25.552 35.7322C25.639 35.6431 25.7075 35.5377 25.7536 35.422C25.7997 35.3063 25.8225 35.1826 25.8206 35.0581C25.8188 34.9336 25.7923 34.8106 25.7428 34.6964C25.6932 34.5821 25.6216 34.4787 25.532 34.3922C25.4431 34.3051 25.3379 34.2365 25.2224 34.1901C25.1069 34.1438 24.9834 34.1207 24.859 34.1222V34.1232ZM32.139 34.1232V34.1252C32.0146 34.1273 31.8918 34.1539 31.7777 34.2035C31.6636 34.2531 31.5604 34.3247 31.474 34.4142L29.665 36.2712C29.5783 36.3605 29.5101 36.466 29.4642 36.5817C29.4183 36.6974 29.3956 36.821 29.3975 36.9454C29.3993 37.0698 29.4257 37.1927 29.475 37.3069C29.5243 37.4212 29.5957 37.5246 29.685 37.6112C29.7743 37.6979 29.8798 37.7662 29.9955 37.8121C30.1111 37.858 30.2347 37.8806 30.3591 37.8788C30.4836 37.8769 30.6064 37.8506 30.7207 37.8012C30.8349 37.7519 30.9383 37.6805 31.025 37.5912L32.833 35.7322C32.92 35.6431 32.9885 35.5377 33.0346 35.422C33.0807 35.3063 33.1035 35.1826 33.1016 35.0581C33.0998 34.9336 33.0733 34.8106 33.0238 34.6964C32.9742 34.5821 32.9026 34.4787 32.813 34.3922C32.7241 34.3051 32.6189 34.2365 32.5034 34.1901C32.3879 34.1438 32.2644 34.1207 32.14 34.1222L32.139 34.1232ZM19.992 34.2872C19.9773 34.2881 19.9629 34.2918 19.9496 34.2983C19.9364 34.3047 19.9245 34.3136 19.9147 34.3246C19.9049 34.3357 19.8974 34.3485 19.8925 34.3624C19.8877 34.3763 19.8856 34.391 19.8865 34.4057C19.8874 34.4205 19.8911 34.4348 19.8975 34.4481C19.9039 34.4614 19.9129 34.4732 19.9239 34.483C19.9349 34.4928 19.9477 34.5004 19.9616 34.5052C19.9756 34.51 19.9903 34.5121 20.005 34.5112C20.0197 34.5103 20.0341 34.5065 20.0473 34.5C20.0606 34.4936 20.0724 34.4845 20.0821 34.4735C20.0919 34.4624 20.0994 34.4496 20.1042 34.4356C20.1089 34.4217 20.1109 34.407 20.11 34.3922C20.1091 34.3775 20.1053 34.3632 20.0988 34.3499C20.0923 34.3367 20.0833 34.3248 20.0722 34.3151C20.0612 34.3053 20.0483 34.2979 20.0344 34.2931C20.0205 34.2883 20.0057 34.2863 19.991 34.2872H19.992ZM27.992 34.2872C27.9773 34.2881 27.9629 34.2918 27.9496 34.2983C27.9364 34.3047 27.9245 34.3136 27.9147 34.3246C27.9049 34.3357 27.8974 34.3485 27.8925 34.3624C27.8877 34.3763 27.8856 34.391 27.8865 34.4057C27.8874 34.4205 27.8911 34.4348 27.8975 34.4481C27.9039 34.4614 27.9129 34.4732 27.9239 34.483C27.9349 34.4928 27.9477 34.5004 27.9616 34.5052C27.9756 34.51 27.9903 34.5121 28.005 34.5112C28.0197 34.5103 28.0341 34.5065 28.0473 34.5C28.0606 34.4936 28.0724 34.4845 28.0821 34.4735C28.0919 34.4624 28.0994 34.4496 28.1042 34.4356C28.1089 34.4217 28.1109 34.407 28.11 34.3922C28.1091 34.3775 28.1053 34.3632 28.0988 34.3499C28.0923 34.3367 28.0833 34.3248 28.0722 34.3151C28.0612 34.3053 28.0483 34.2979 28.0344 34.2931C28.0205 34.2883 28.0057 34.2863 27.991 34.2872H27.992ZM19.992 34.8492C19.9633 34.8508 19.9364 34.8633 19.9167 34.8841C19.8969 34.9049 19.886 34.9326 19.886 34.9612C19.886 35.0242 19.936 35.0762 19.999 35.0762C20.0291 35.0757 20.0577 35.0633 20.0787 35.0418C20.0996 35.0203 20.1113 34.9913 20.111 34.9612C20.111 34.9458 20.1079 34.9306 20.1018 34.9165C20.0957 34.9023 20.0867 34.8896 20.0754 34.8791C20.0642 34.8686 20.0508 34.8605 20.0363 34.8554C20.0218 34.8502 20.0064 34.8481 19.991 34.8492H19.992ZM27.992 34.8492C27.9633 34.8508 27.9364 34.8633 27.9167 34.8841C27.8969 34.9049 27.886 34.9326 27.886 34.9612C27.886 35.0242 27.936 35.0762 27.999 35.0762C28.0291 35.0757 28.0577 35.0633 28.0787 35.0418C28.0996 35.0203 28.1113 34.9913 28.111 34.9612C28.111 34.9458 28.1079 34.9306 28.1018 34.9165C28.0957 34.9023 28.0867 34.8896 28.0754 34.8791C28.0642 34.8686 28.0508 34.8605 28.0363 34.8554C28.0218 34.8502 28.0064 34.8481 27.991 34.8492H27.992ZM19.992 35.4122C19.9765 35.4121 19.9611 35.4152 19.9468 35.4212C19.9326 35.4273 19.9197 35.4362 19.909 35.4475C19.8983 35.4588 19.8901 35.4721 19.8848 35.4867C19.8795 35.5013 19.8773 35.5168 19.8782 35.5323C19.8792 35.5477 19.8834 35.5629 19.8904 35.5767C19.8975 35.5905 19.9073 35.6027 19.9193 35.6125C19.9313 35.6224 19.9452 35.6297 19.9601 35.6339C19.975 35.6382 19.9906 35.6393 20.006 35.6372C20.0344 35.6334 20.0603 35.619 20.0785 35.5968C20.0966 35.5746 20.1057 35.5463 20.1037 35.5177C20.1018 35.4891 20.0891 35.4623 20.0682 35.4427C20.0473 35.4231 20.0197 35.4122 19.991 35.4122H19.992ZM27.992 35.4122C27.9765 35.4121 27.9611 35.4152 27.9468 35.4212C27.9326 35.4273 27.9197 35.4362 27.909 35.4475C27.8983 35.4588 27.8901 35.4721 27.8848 35.4867C27.8795 35.5013 27.8773 35.5168 27.8782 35.5323C27.8792 35.5477 27.8834 35.5629 27.8904 35.5767C27.8975 35.5905 27.9073 35.6027 27.9193 35.6125C27.9313 35.6224 27.9452 35.6297 27.9601 35.6339C27.975 35.6382 27.9906 35.6393 28.006 35.6372C28.0344 35.6334 28.0603 35.619 28.0785 35.5968C28.0966 35.5746 28.1057 35.5463 28.1037 35.5177C28.1018 35.4891 28.0891 35.4623 28.0682 35.4427C28.0473 35.4231 28.0197 35.4122 27.991 35.4122H27.992ZM19.992 35.9742C19.9772 35.9751 19.9628 35.9789 19.9494 35.9853C19.9361 35.9917 19.9242 36.0007 19.9144 36.0118C19.9045 36.0228 19.8969 36.0357 19.8921 36.0497C19.8872 36.0637 19.8851 36.0785 19.886 36.0932C19.8869 36.108 19.8906 36.1225 19.8971 36.1358C19.9035 36.1491 19.9125 36.161 19.9235 36.1709C19.9346 36.1807 19.9475 36.1883 19.9615 36.1932C19.9754 36.198 19.9902 36.2001 20.005 36.1992C20.0348 36.1974 20.0627 36.1838 20.0825 36.1613C20.1023 36.1389 20.1124 36.1096 20.1105 36.0797C20.1086 36.0499 20.095 36.022 20.0726 36.0022C20.0502 35.9825 20.0208 35.9724 19.991 35.9742H19.992ZM27.992 35.9742C27.9772 35.9751 27.9628 35.9789 27.9494 35.9853C27.9361 35.9917 27.9242 36.0007 27.9144 36.0118C27.9045 36.0228 27.8969 36.0357 27.8921 36.0497C27.8872 36.0637 27.8851 36.0785 27.886 36.0932C27.8869 36.108 27.8906 36.1225 27.8971 36.1358C27.9035 36.1491 27.9125 36.161 27.9235 36.1709C27.9346 36.1807 27.9475 36.1883 27.9615 36.1932C27.9754 36.198 27.9902 36.2001 28.005 36.1992C28.0348 36.1974 28.0627 36.1838 28.0825 36.1613C28.1023 36.1389 28.1124 36.1096 28.1105 36.0797C28.1086 36.0499 28.095 36.022 28.0726 36.0022C28.0502 35.9825 28.0208 35.9724 27.991 35.9742H27.992ZM19.992 36.5372C19.9773 36.5381 19.9629 36.5418 19.9496 36.5483C19.9364 36.5547 19.9245 36.5636 19.9147 36.5746C19.9049 36.5857 19.8974 36.5985 19.8925 36.6124C19.8877 36.6263 19.8856 36.641 19.8865 36.6557C19.8874 36.6705 19.8911 36.6848 19.8975 36.6981C19.9039 36.7114 19.9129 36.7232 19.9239 36.733C19.9349 36.7428 19.9477 36.7504 19.9616 36.7552C19.9756 36.76 19.9903 36.7621 20.005 36.7612C20.0347 36.7594 20.0625 36.7458 20.0821 36.7235C20.1018 36.7012 20.1119 36.672 20.11 36.6422C20.1081 36.6125 20.0946 36.5848 20.0722 36.5651C20.0499 36.5454 20.0207 36.5354 19.991 36.5372H19.992ZM27.992 36.5372C27.9773 36.5381 27.9629 36.5418 27.9496 36.5483C27.9364 36.5547 27.9245 36.5636 27.9147 36.5746C27.9049 36.5857 27.8974 36.5985 27.8925 36.6124C27.8877 36.6263 27.8856 36.641 27.8865 36.6557C27.8874 36.6705 27.8911 36.6848 27.8975 36.6981C27.9039 36.7114 27.9129 36.7232 27.9239 36.733C27.9349 36.7428 27.9477 36.7504 27.9616 36.7552C27.9756 36.76 27.9903 36.7621 28.005 36.7612C28.0347 36.7594 28.0625 36.7458 28.0821 36.7235C28.1018 36.7012 28.1119 36.672 28.11 36.6422C28.1081 36.6125 28.0946 36.5848 28.0722 36.5651C28.0499 36.5454 28.0207 36.5354 27.991 36.5372H27.992ZM19.98 37.0992C19.9533 37.1032 19.929 37.1167 19.9117 37.1374C19.8944 37.158 19.8852 37.1843 19.886 37.2112C19.886 37.2411 19.8979 37.2697 19.9189 37.2908C19.94 37.3119 19.9687 37.3237 19.9985 37.3237C20.0283 37.3237 20.057 37.3119 20.078 37.2908C20.0991 37.2697 20.111 37.2411 20.111 37.2112C20.111 37.1492 20.061 37.1012 19.999 37.0992H19.98ZM27.98 37.0992C27.9533 37.1032 27.929 37.1167 27.9117 37.1374C27.8944 37.158 27.8852 37.1843 27.886 37.2112C27.886 37.2411 27.8979 37.2697 27.9189 37.2908C27.94 37.3119 27.9687 37.3237 27.9985 37.3237C28.0283 37.3237 28.057 37.3119 28.078 37.2908C28.0991 37.2697 28.111 37.2411 28.111 37.2112C28.111 37.1492 28.061 37.1012 27.999 37.0992H27.98ZM19.991 37.6602C19.9762 37.6608 19.9617 37.6642 19.9483 37.6703C19.9348 37.6765 19.9227 37.6852 19.9126 37.696C19.9025 37.7068 19.8947 37.7195 19.8895 37.7334C19.8844 37.7472 19.882 37.762 19.8825 37.7767C19.883 37.7915 19.8865 37.806 19.8926 37.8195C19.8987 37.8329 19.9075 37.845 19.9183 37.8551C19.9291 37.8652 19.9418 37.873 19.9556 37.8782C19.9695 37.8834 19.9842 37.8858 19.999 37.8852C20.0288 37.8842 20.057 37.8713 20.0774 37.8495C20.0977 37.8276 20.1086 37.7986 20.1075 37.7687C20.1064 37.7389 20.0936 37.7107 20.0717 37.6904C20.0499 37.67 20.0208 37.6592 19.991 37.6602ZM27.991 37.6602C27.9762 37.6608 27.9617 37.6642 27.9483 37.6703C27.9348 37.6765 27.9227 37.6852 27.9126 37.696C27.9025 37.7068 27.8947 37.7195 27.8895 37.7334C27.8844 37.7472 27.882 37.762 27.8825 37.7767C27.883 37.7915 27.8865 37.806 27.8926 37.8195C27.8987 37.8329 27.9075 37.845 27.9183 37.8551C27.9291 37.8652 27.9418 37.873 27.9556 37.8782C27.9695 37.8834 27.9842 37.8858 27.999 37.8852C28.0288 37.8842 28.057 37.8713 28.0774 37.8495C28.0977 37.8276 28.1086 37.7986 28.1075 37.7687C28.1064 37.7389 28.0936 37.7107 28.0717 37.6904C28.0499 37.67 28.0208 37.6592 27.991 37.6602ZM17.577 38.1232V38.1252C17.4524 38.1272 17.3295 38.1537 17.2152 38.2033C17.1009 38.2529 16.9975 38.3246 16.911 38.4142L15.103 40.2712C15.0163 40.3605 14.9481 40.466 14.9022 40.5817C14.8563 40.6974 14.8336 40.821 14.8355 40.9454C14.8392 41.1967 14.9427 41.4362 15.123 41.6112C15.3033 41.7863 15.5458 41.8825 15.7971 41.8788C16.0484 41.875 16.288 41.7716 16.463 41.5912L18.27 39.7322C18.357 39.6431 18.4255 39.5377 18.4716 39.422C18.5177 39.3063 18.5405 39.1826 18.5386 39.0581C18.5368 38.9336 18.5103 38.8106 18.4608 38.6964C18.4112 38.5821 18.3396 38.4787 18.25 38.3922C18.161 38.305 18.0556 38.2363 17.94 38.1899C17.8243 38.1436 17.7006 38.1206 17.576 38.1222L17.577 38.1232ZM24.859 38.1232V38.1252C24.7344 38.1272 24.6115 38.1537 24.4972 38.2033C24.3829 38.2529 24.2795 38.3246 24.193 38.4142L22.384 40.2712C22.2973 40.3605 22.2291 40.466 22.1832 40.5817C22.1373 40.6974 22.1146 40.821 22.1165 40.9454C22.1183 41.0698 22.1447 41.1927 22.194 41.3069C22.2433 41.4212 22.3147 41.5246 22.404 41.6112C22.4933 41.6979 22.5988 41.7662 22.7145 41.8121C22.8301 41.858 22.9537 41.8806 23.0781 41.8788C23.2026 41.8769 23.3254 41.8506 23.4397 41.8012C23.5539 41.7519 23.6573 41.6805 23.744 41.5912L25.552 39.7322C25.639 39.6431 25.7075 39.5377 25.7536 39.422C25.7997 39.3063 25.8225 39.1826 25.8206 39.0581C25.8188 38.9336 25.7923 38.8106 25.7428 38.6964C25.6932 38.5821 25.6216 38.4787 25.532 38.3922C25.4431 38.3051 25.3379 38.2365 25.2224 38.1901C25.1069 38.1438 24.9834 38.1207 24.859 38.1222V38.1232ZM32.139 38.1232V38.1252C32.0146 38.1273 31.8918 38.1539 31.7777 38.2035C31.6636 38.2531 31.5604 38.3247 31.474 38.4142L29.665 40.2712C29.5783 40.3605 29.5101 40.466 29.4642 40.5817C29.4183 40.6974 29.3956 40.821 29.3975 40.9454C29.3993 41.0698 29.4257 41.1927 29.475 41.3069C29.5243 41.4212 29.5957 41.5246 29.685 41.6112C29.7743 41.6979 29.8798 41.7662 29.9955 41.8121C30.1111 41.858 30.2347 41.8806 30.3591 41.8788C30.4836 41.8769 30.6064 41.8506 30.7207 41.8012C30.8349 41.7519 30.9383 41.6805 31.025 41.5912L32.833 39.7322C32.92 39.6431 32.9885 39.5377 33.0346 39.422C33.0807 39.3063 33.1035 39.1826 33.1016 39.0581C33.0998 38.9336 33.0733 38.8106 33.0238 38.6964C32.9742 38.5821 32.9026 38.4787 32.813 38.3922C32.7241 38.3051 32.6189 38.2365 32.5034 38.1901C32.3879 38.1438 32.2644 38.1207 32.14 38.1222L32.139 38.1232ZM19.992 38.2232C19.9632 38.2248 19.9361 38.2374 19.9163 38.2585C19.8966 38.2795 19.8857 38.3074 19.886 38.3362C19.886 38.3972 19.936 38.4482 19.999 38.4472C20.06 38.4472 20.11 38.3972 20.111 38.3362C20.1113 38.3207 20.1084 38.3052 20.1024 38.2908C20.0964 38.2765 20.0875 38.2635 20.0762 38.2528C20.0649 38.242 20.0515 38.2338 20.0368 38.2285C20.0221 38.2233 20.0065 38.2211 19.991 38.2222L19.992 38.2232ZM27.992 38.2232C27.9632 38.2248 27.9361 38.2374 27.9163 38.2585C27.8966 38.2795 27.8857 38.3074 27.886 38.3362C27.886 38.3972 27.936 38.4482 27.999 38.4472C28.06 38.4472 28.11 38.3972 28.111 38.3362C28.1113 38.3207 28.1084 38.3052 28.1024 38.2908C28.0964 38.2765 28.0875 38.2635 28.0762 38.2528C28.0649 38.242 28.0515 38.2338 28.0368 38.2285C28.0221 38.2233 28.0065 38.2211 27.991 38.2222L27.992 38.2232ZM19.992 38.7852C19.9622 38.7862 19.9339 38.7989 19.9135 38.8207C19.893 38.8424 19.8821 38.8714 19.883 38.9012C19.8839 38.9311 19.8967 38.9593 19.9184 38.9798C19.9402 39.0002 19.9692 39.0112 19.999 39.0102C20.0138 39.0097 20.0283 39.0063 20.0417 39.0001C20.0552 38.994 20.0673 38.9853 20.0774 38.9745C20.0875 38.9636 20.0953 38.951 20.1005 38.9371C20.1056 38.9232 20.108 38.9085 20.1075 38.8937C20.107 38.879 20.1035 38.8644 20.0974 38.851C20.0913 38.8376 20.0825 38.8254 20.0717 38.8154C20.0609 38.8053 20.0482 38.7974 20.0344 38.7923C20.0205 38.7871 20.0058 38.7847 19.991 38.7852H19.992ZM27.992 38.7852C27.9622 38.7862 27.9339 38.7989 27.9135 38.8207C27.893 38.8424 27.8821 38.8714 27.883 38.9012C27.8839 38.9311 27.8967 38.9593 27.9184 38.9798C27.9402 39.0002 27.9692 39.0112 27.999 39.0102C28.0138 39.0097 28.0283 39.0063 28.0417 39.0001C28.0552 38.994 28.0673 38.9853 28.0774 38.9745C28.0875 38.9636 28.0953 38.951 28.1005 38.9371C28.1056 38.9232 28.108 38.9085 28.1075 38.8937C28.107 38.879 28.1035 38.8644 28.0974 38.851C28.0913 38.8376 28.0825 38.8254 28.0717 38.8154C28.0609 38.8053 28.0482 38.7974 28.0344 38.7923C28.0205 38.7871 28.0058 38.7847 27.991 38.7852H27.992ZM19.992 39.3482C19.9633 39.3503 19.9365 39.363 19.9169 39.384C19.8972 39.4049 19.8862 39.4325 19.886 39.4612C19.886 39.4911 19.8979 39.5197 19.9189 39.5408C19.94 39.5619 19.9687 39.5737 19.9985 39.5737C20.0283 39.5737 20.057 39.5619 20.078 39.5408C20.0991 39.5197 20.111 39.4911 20.111 39.4612C20.111 39.4458 20.1079 39.4304 20.1018 39.4162C20.0957 39.402 20.0867 39.3891 20.0755 39.3784C20.0643 39.3678 20.051 39.3595 20.0365 39.3541C20.0219 39.3488 20.0065 39.3464 19.991 39.3472L19.992 39.3482ZM27.992 39.3482C27.9633 39.3503 27.9365 39.363 27.9169 39.384C27.8972 39.4049 27.8862 39.4325 27.886 39.4612C27.886 39.4911 27.8979 39.5197 27.9189 39.5408C27.94 39.5619 27.9687 39.5737 27.9985 39.5737C28.0283 39.5737 28.057 39.5619 28.078 39.5408C28.0991 39.5197 28.111 39.4911 28.111 39.4612C28.111 39.4458 28.1079 39.4304 28.1018 39.4162C28.0957 39.402 28.0867 39.3891 28.0755 39.3784C28.0643 39.3678 28.051 39.3595 28.0365 39.3541C28.0219 39.3488 28.0065 39.3464 27.991 39.3472L27.992 39.3482ZM19.992 39.9102C19.9773 39.9111 19.9629 39.9148 19.9496 39.9213C19.9364 39.9277 19.9245 39.9366 19.9147 39.9476C19.9049 39.9586 19.8974 39.9715 19.8925 39.9854C19.8877 39.9993 19.8856 40.014 19.8865 40.0287C19.8874 40.0435 19.8911 40.0578 19.8975 40.0711C19.9039 40.0844 19.9129 40.0962 19.9239 40.106C19.9349 40.1158 19.9477 40.1234 19.9616 40.1282C19.9756 40.133 19.9903 40.1351 20.005 40.1342C20.0347 40.1324 20.0625 40.1188 20.0821 40.0965C20.1018 40.0742 20.1119 40.0449 20.11 40.0152C20.1081 39.9855 20.0946 39.9578 20.0722 39.9381C20.0499 39.9184 20.0207 39.9084 19.991 39.9102H19.992ZM27.992 39.9102C27.9773 39.9111 27.9629 39.9148 27.9496 39.9213C27.9364 39.9277 27.9245 39.9366 27.9147 39.9476C27.9049 39.9586 27.8974 39.9715 27.8925 39.9854C27.8877 39.9993 27.8856 40.014 27.8865 40.0287C27.8874 40.0435 27.8911 40.0578 27.8975 40.0711C27.9039 40.0844 27.9129 40.0962 27.9239 40.106C27.9349 40.1158 27.9477 40.1234 27.9616 40.1282C27.9756 40.133 27.9903 40.1351 28.005 40.1342C28.0347 40.1324 28.0625 40.1188 28.0821 40.0965C28.1018 40.0742 28.1119 40.0449 28.11 40.0152C28.1081 39.9855 28.0946 39.9578 28.0722 39.9381C28.0499 39.9184 28.0207 39.9084 27.991 39.9102H27.992ZM19.992 40.4732C19.9773 40.4741 19.9629 40.4778 19.9496 40.4843C19.9364 40.4907 19.9245 40.4996 19.9147 40.5106C19.9049 40.5217 19.8974 40.5345 19.8925 40.5484C19.8877 40.5623 19.8856 40.577 19.8865 40.5917C19.8874 40.6065 19.8911 40.6208 19.8975 40.6341C19.9039 40.6474 19.9129 40.6592 19.9239 40.669C19.9349 40.6788 19.9477 40.6864 19.9616 40.6912C19.9756 40.696 19.9903 40.6981 20.005 40.6972C20.0347 40.6954 20.0625 40.6818 20.0821 40.6595C20.1018 40.6372 20.1119 40.6079 20.11 40.5782C20.1081 40.5485 20.0946 40.5208 20.0722 40.5011C20.0499 40.4814 20.0207 40.4714 19.991 40.4732H19.992ZM27.992 40.4732C27.9773 40.4741 27.9629 40.4778 27.9496 40.4843C27.9364 40.4907 27.9245 40.4996 27.9147 40.5106C27.9049 40.5217 27.8974 40.5345 27.8925 40.5484C27.8877 40.5623 27.8856 40.577 27.8865 40.5917C27.8874 40.6065 27.8911 40.6208 27.8975 40.6341C27.9039 40.6474 27.9129 40.6592 27.9239 40.669C27.9349 40.6788 27.9477 40.6864 27.9616 40.6912C27.9756 40.696 27.9903 40.6981 28.005 40.6972C28.0347 40.6954 28.0625 40.6818 28.0821 40.6595C28.1018 40.6372 28.1119 40.6079 28.11 40.5782C28.1081 40.5485 28.0946 40.5208 28.0722 40.5011C28.0499 40.4814 28.0207 40.4714 27.991 40.4732H27.992ZM19.98 41.0352C19.9535 41.0391 19.9293 41.0526 19.912 41.073C19.8947 41.0934 19.8855 41.1195 19.886 41.1462C19.886 41.2092 19.936 41.2622 19.999 41.2612C20.0291 41.2607 20.0577 41.2483 20.0787 41.2268C20.0996 41.2053 20.1113 41.1763 20.111 41.1462C20.111 41.0862 20.061 41.0362 19.999 41.0352H19.98ZM27.98 41.0352C27.9535 41.0391 27.9293 41.0526 27.912 41.073C27.8947 41.0934 27.8855 41.1195 27.886 41.1462C27.886 41.2092 27.936 41.2622 27.999 41.2612C28.0291 41.2607 28.0577 41.2483 28.0787 41.2268C28.0996 41.2053 28.1113 41.1763 28.111 41.1462C28.111 41.0862 28.061 41.0362 27.999 41.0352H27.98ZM19.98 41.5982C19.9534 41.6028 19.9294 41.6166 19.9121 41.6374C19.8949 41.6581 19.8856 41.6843 19.886 41.7112C19.886 41.7732 19.936 41.8212 19.999 41.8212C20.0136 41.8215 20.0281 41.8189 20.0417 41.8135C20.0553 41.808 20.0676 41.8 20.0781 41.7897C20.0885 41.7795 20.0968 41.7673 20.1024 41.7538C20.1081 41.7403 20.111 41.7259 20.111 41.7112C20.111 41.6814 20.0993 41.6527 20.0783 41.6313C20.0574 41.61 20.0289 41.5978 19.999 41.5972H19.98V41.5982ZM27.98 41.5982C27.9534 41.6028 27.9294 41.6166 27.9121 41.6374C27.8949 41.6581 27.8856 41.6843 27.886 41.7112C27.886 41.7732 27.936 41.8212 27.999 41.8212C28.0136 41.8215 28.0281 41.8189 28.0417 41.8135C28.0553 41.808 28.0676 41.8 28.0781 41.7897C28.0885 41.7795 28.0968 41.7673 28.1024 41.7538C28.1081 41.7403 28.111 41.7259 28.111 41.7112C28.111 41.6814 28.0993 41.6527 28.0783 41.6313C28.0574 41.61 28.0289 41.5978 27.999 41.5972H27.98V41.5982ZM20.001 42.1582C19.9853 42.1568 19.9695 42.1586 19.9546 42.1636C19.9397 42.1685 19.926 42.1766 19.9143 42.1872C19.9027 42.1978 19.8934 42.2107 19.887 42.2251C19.8807 42.2394 19.8774 42.255 19.8774 42.2707C19.8774 42.2865 19.8807 42.302 19.887 42.3164C19.8934 42.3308 19.9027 42.3437 19.9143 42.3543C19.926 42.3649 19.9397 42.373 19.9546 42.3779C19.9695 42.3829 19.9853 42.3847 20.001 42.3832C20.0308 42.3832 20.0595 42.3714 20.0805 42.3503C20.1016 42.3292 20.1135 42.3006 20.1135 42.2707C20.1135 42.2409 20.1016 42.2123 20.0805 42.1912C20.0595 42.1701 20.0308 42.1582 20.001 42.1582ZM28.001 42.1582C27.9853 42.1568 27.9695 42.1586 27.9546 42.1636C27.9397 42.1685 27.926 42.1766 27.9143 42.1872C27.9027 42.1978 27.8934 42.2107 27.887 42.2251C27.8807 42.2394 27.8774 42.255 27.8774 42.2707C27.8774 42.2865 27.8807 42.302 27.887 42.3164C27.8934 42.3308 27.9027 42.3437 27.9143 42.3543C27.926 42.3649 27.9397 42.373 27.9546 42.3779C27.9695 42.3829 27.9853 42.3847 28.001 42.3832C28.0308 42.3832 28.0595 42.3714 28.0805 42.3503C28.1016 42.3292 28.1135 42.3006 28.1135 42.2707C28.1135 42.2409 28.1016 42.2123 28.0805 42.1912C28.0595 42.1701 28.0308 42.1582 28.001 42.1582ZM19.991 42.7212C19.9624 42.723 19.9355 42.7358 19.9159 42.7568C19.8964 42.7778 19.8857 42.8055 19.886 42.8342C19.886 42.8962 19.936 42.9482 19.999 42.9472C20.06 42.9472 20.11 42.8952 20.111 42.8342C20.1113 42.8187 20.1084 42.8032 20.1024 42.7888C20.0964 42.7745 20.0875 42.7615 20.0762 42.7508C20.0649 42.74 20.0515 42.7318 20.0368 42.7265C20.0221 42.7213 20.0065 42.7191 19.991 42.7202V42.7212ZM27.991 42.7212C27.9624 42.723 27.9355 42.7358 27.9159 42.7568C27.8964 42.7778 27.8857 42.8055 27.886 42.8342C27.886 42.8962 27.936 42.9482 27.999 42.9472C28.06 42.9472 28.11 42.8952 28.111 42.8342C28.1113 42.8187 28.1084 42.8032 28.1024 42.7888C28.0964 42.7745 28.0875 42.7615 28.0762 42.7508C28.0649 42.74 28.0515 42.7318 28.0368 42.7265C28.0221 42.7213 28.0065 42.7191 27.991 42.7202V42.7212Z" fill="#333333"/>
</svg>
