<svg width="48" height="48" viewBox="0 0 48 48" fill="none" xmlns="http://www.w3.org/2000/svg">
<path d="M28.906 4.08205C23.986 4.06805 19.122 4.12505 14.146 4.12505C13.277 4.12505 12.58 4.82405 12.58 5.69305V42.554C12.58 43.424 13.277 44.124 14.146 44.124H33.852C34.721 44.124 35.42 43.424 35.42 42.554V5.69405C35.42 4.82405 34.721 4.12405 33.852 4.12405C32.2035 4.09983 30.5548 4.08583 28.906 4.08205ZM14.58 4.62505H33.418C34.249 4.62505 34.92 5.30605 34.92 6.15505V42.094C34.92 42.941 34.25 43.624 33.418 43.624H14.58C13.749 43.624 13.08 42.941 13.08 42.094V6.15405C13.08 5.30605 13.749 4.62405 14.58 4.62405V4.62505ZM23.992 5.15805C23.9627 5.1591 23.9349 5.17162 23.9147 5.19293C23.8945 5.21424 23.8835 5.24262 23.884 5.27198C23.8846 5.30133 23.8966 5.3293 23.9175 5.34988C23.9385 5.37045 23.9667 5.38198 23.996 5.38198C24.0254 5.38198 24.0536 5.37045 24.0745 5.34988C24.0954 5.3293 24.1075 5.30133 24.108 5.27198C24.1085 5.24262 24.0975 5.21424 24.0773 5.19293C24.0571 5.17162 24.0294 5.1591 24 5.15805H23.992ZM23.992 5.72105C23.9623 5.7229 23.9346 5.73648 23.9149 5.7588C23.8952 5.78112 23.8852 5.81034 23.887 5.84005C23.8889 5.86975 23.9025 5.8975 23.9248 5.91719C23.9471 5.93688 23.9763 5.9469 24.006 5.94505C24.0207 5.94413 24.0351 5.94032 24.0483 5.93384C24.0616 5.92737 24.0734 5.91834 24.0832 5.90729C24.0929 5.89624 24.1004 5.88338 24.1052 5.86944C24.11 5.8555 24.1119 5.84076 24.111 5.82605C24.1101 5.81134 24.1063 5.79696 24.0998 5.78372C24.0933 5.77048 24.0843 5.75865 24.0733 5.7489C24.0622 5.73915 24.0493 5.73167 24.0354 5.72689C24.0215 5.72211 24.0067 5.72013 23.992 5.72105ZM23.982 6.28305C23.9556 6.28731 23.9316 6.3008 23.9142 6.32113C23.8968 6.34145 23.8871 6.36729 23.887 6.39405C23.887 6.45605 23.937 6.50405 24 6.50405C24.0145 6.50418 24.029 6.50143 24.0424 6.49596C24.0559 6.49049 24.0681 6.48241 24.0784 6.47218C24.0888 6.46196 24.097 6.44979 24.1025 6.43637C24.1081 6.42296 24.111 6.40858 24.111 6.39405C24.111 6.33405 24.061 6.28405 24 6.28305H23.982ZM19.391 6.50205C19.1776 6.49671 18.9653 6.53414 18.7666 6.61212C18.5678 6.6901 18.3867 6.80707 18.2339 6.95612C18.081 7.10518 17.9596 7.28331 17.8767 7.48003C17.7937 7.67674 17.751 7.88807 17.751 8.10155C17.751 8.31503 17.7937 8.52635 17.8767 8.72307C17.9596 8.91978 18.081 9.09792 18.2339 9.24697C18.3867 9.39603 18.5678 9.51299 18.7666 9.59097C18.9653 9.66896 19.1776 9.70638 19.391 9.70105C19.8154 9.70105 20.2223 9.53248 20.5224 9.23242C20.8224 8.93236 20.991 8.52539 20.991 8.10105C20.991 7.6767 20.8224 7.26973 20.5224 6.96968C20.2223 6.66962 19.8154 6.50105 19.391 6.50105V6.50205ZM28.609 6.50205C28.3943 6.49445 28.1802 6.53019 27.9796 6.60713C27.7789 6.68406 27.5959 6.80062 27.4413 6.94985C27.2867 7.09908 27.1637 7.27793 27.0797 7.47571C26.9957 7.6735 26.9525 7.88617 26.9525 8.10105C26.9525 8.31592 26.9957 8.5286 27.0797 8.72638C27.1637 8.92417 27.2867 9.10301 27.4413 9.25224C27.5959 9.40147 27.7789 9.51803 27.9796 9.59497C28.1802 9.67191 28.3943 9.70764 28.609 9.70005C29.0233 9.68539 29.4157 9.51051 29.7037 9.21224C29.9916 8.91397 30.1525 8.5156 30.1525 8.10105C30.1525 7.68649 29.9916 7.28812 29.7037 6.98985C29.4157 6.69158 29.0233 6.5167 28.609 6.50205ZM24.002 6.84405C23.9873 6.84392 23.9727 6.84668 23.9591 6.85219C23.9454 6.8577 23.933 6.86584 23.9225 6.87614C23.912 6.88645 23.9037 6.89873 23.8979 6.91226C23.8922 6.9258 23.8891 6.94034 23.889 6.95505C23.8889 6.96976 23.8917 6.98435 23.8972 6.99798C23.9027 7.01162 23.9108 7.02404 23.9211 7.03454C23.9314 7.04503 23.9437 7.05339 23.9572 7.05914C23.9708 7.06489 23.9853 7.06792 24 7.06805C24.0297 7.06831 24.0583 7.05677 24.0795 7.03595C24.1007 7.01513 24.1128 6.98675 24.113 6.95705C24.1133 6.92734 24.1017 6.89875 24.0809 6.87756C24.0601 6.85637 24.0317 6.84431 24.002 6.84405ZM19.391 6.96305C19.5404 6.96292 19.6883 6.99221 19.8264 7.04925C19.9645 7.1063 20.0899 7.18997 20.1956 7.29551C20.3014 7.40104 20.3853 7.52636 20.4425 7.66432C20.4998 7.80228 20.5294 7.95017 20.5295 8.09955C20.5296 8.24893 20.5004 8.39687 20.4433 8.53493C20.3863 8.67298 20.3026 8.79845 20.1971 8.90417C20.0915 9.00989 19.9662 9.09379 19.8282 9.15108C19.6903 9.20836 19.5424 9.23792 19.393 9.23805C19.2436 9.23818 19.0957 9.20889 18.9576 9.15184C18.8196 9.0948 18.6941 9.01112 18.5884 8.90559C18.3749 8.69245 18.2548 8.40323 18.2545 8.10155C18.2543 7.79986 18.3738 7.51043 18.587 7.29692C18.8001 7.08341 19.0893 6.96331 19.391 6.96305ZM28.609 6.96305C28.9106 6.96265 29.1999 7.08206 29.4134 7.29501C29.6269 7.50795 29.7471 7.797 29.7475 8.09855C29.7479 8.4001 29.6285 8.68946 29.4156 8.90297C29.2026 9.11648 28.9136 9.23665 28.612 9.23705C28.3105 9.23745 28.0211 9.11804 27.8076 8.90509C27.5941 8.69214 27.4739 8.4031 27.4735 8.10155C27.4731 7.8 27.5925 7.51064 27.8055 7.29713C28.0184 7.08362 28.3075 6.96345 28.609 6.96305ZM23.992 7.40605C23.9627 7.4071 23.9349 7.41962 23.9147 7.44093C23.8945 7.46224 23.8835 7.49062 23.884 7.51998C23.8846 7.54933 23.8966 7.5773 23.9175 7.59788C23.9385 7.61845 23.9667 7.62998 23.996 7.62998C24.0254 7.62998 24.0536 7.61845 24.0745 7.59788C24.0954 7.5773 24.1075 7.54933 24.108 7.51998C24.1085 7.49062 24.0975 7.46224 24.0773 7.44093C24.0571 7.41962 24.0294 7.4071 24 7.40605H23.992ZM23.992 7.96605C23.9627 7.9671 23.9349 7.97962 23.9147 8.00093C23.8945 8.02224 23.8835 8.05062 23.884 8.07998C23.8846 8.10933 23.8966 8.1373 23.9175 8.15788C23.9385 8.17845 23.9667 8.18998 23.996 8.18998C24.0254 8.18998 24.0536 8.17845 24.0745 8.15788C24.0954 8.1373 24.1075 8.10933 24.108 8.07998C24.1085 8.05062 24.0975 8.02224 24.0773 8.00093C24.0571 7.97962 24.0294 7.9671 24 7.96605H23.992ZM23.992 8.52905C23.9627 8.5301 23.9349 8.54262 23.9147 8.56393C23.8945 8.58524 23.8835 8.61362 23.884 8.64298C23.8846 8.67233 23.8966 8.7003 23.9175 8.72088C23.9385 8.74145 23.9667 8.75298 23.996 8.75298C24.0254 8.75298 24.0536 8.74145 24.0745 8.72088C24.0954 8.7003 24.1075 8.67233 24.108 8.64298C24.1085 8.61362 24.0975 8.58524 24.0773 8.56393C24.0571 8.54262 24.0294 8.5301 24 8.52905H23.992ZM23.992 9.09205C23.9639 9.09333 23.9373 9.10534 23.9178 9.12562C23.8983 9.1459 23.8872 9.17289 23.887 9.20105C23.8849 9.21701 23.8862 9.23325 23.8908 9.24867C23.8955 9.26409 23.9034 9.27834 23.914 9.29046C23.9246 9.30258 23.9377 9.31229 23.9523 9.31895C23.967 9.3256 23.9829 9.32905 23.999 9.32905C24.0151 9.32905 24.031 9.3256 24.0457 9.31895C24.0604 9.31229 24.0735 9.30258 24.0841 9.29046C24.0947 9.27834 24.1026 9.26409 24.1072 9.24867C24.1119 9.23325 24.1132 9.21701 24.111 9.20105C24.1111 9.18581 24.108 9.17073 24.1019 9.15676C24.0958 9.1428 24.0869 9.13024 24.0757 9.1199C24.0645 9.10956 24.0513 9.10166 24.0369 9.09669C24.0225 9.09172 24.0072 9.0898 23.992 9.09105V9.09205ZM23.992 9.65405C23.9637 9.65533 23.937 9.66749 23.9174 9.68798C23.8979 9.70847 23.887 9.73572 23.887 9.76405C23.8849 9.78001 23.8862 9.79625 23.8908 9.81167C23.8955 9.82709 23.9034 9.84134 23.914 9.85346C23.9246 9.86558 23.9377 9.87529 23.9523 9.88195C23.967 9.8886 23.9829 9.89205 23.999 9.89205C24.0151 9.89205 24.031 9.8886 24.0457 9.88195C24.0604 9.87529 24.0735 9.86558 24.0841 9.85346C24.0947 9.84134 24.1026 9.82709 24.1072 9.81167C24.1119 9.79625 24.1132 9.78001 24.111 9.76405C24.1111 9.74881 24.108 9.73373 24.1019 9.71976C24.0958 9.7058 24.0869 9.69324 24.0757 9.6829C24.0645 9.67256 24.0513 9.66466 24.0369 9.65969C24.0225 9.65472 24.0072 9.6528 23.992 9.65405ZM23.98 10.217C23.9536 10.2218 23.9298 10.2358 23.9128 10.2565C23.8957 10.2772 23.8866 10.3032 23.887 10.33C23.8849 10.346 23.8862 10.3622 23.8908 10.3777C23.8955 10.3931 23.9034 10.4073 23.914 10.4195C23.9246 10.4316 23.9377 10.4413 23.9523 10.4479C23.967 10.4546 23.9829 10.458 23.999 10.458C24.0151 10.458 24.031 10.4546 24.0457 10.4479C24.0604 10.4413 24.0735 10.4316 24.0841 10.4195C24.0947 10.4073 24.1026 10.3931 24.1072 10.3777C24.1119 10.3622 24.1132 10.346 24.111 10.33C24.1108 10.3005 24.0991 10.2722 24.0783 10.2511C24.0576 10.23 24.0296 10.2178 24 10.217H23.98ZM19.39 10.502C19.1766 10.4967 18.9643 10.5341 18.7656 10.6121C18.5668 10.6901 18.3857 10.8071 18.2329 10.9561C18.0801 11.1052 17.9586 11.2833 17.8757 11.48C17.7927 11.6767 17.75 11.8881 17.75 12.1015C17.75 12.315 17.7927 12.5264 17.8757 12.7231C17.9586 12.9198 18.0801 13.0979 18.2329 13.247C18.3857 13.396 18.5668 13.513 18.7656 13.591C18.9643 13.669 19.1766 13.7064 19.39 13.701C19.8144 13.701 20.2213 13.5325 20.5214 13.2324C20.8214 12.9324 20.99 12.5254 20.99 12.101C20.99 11.6767 20.8214 11.2697 20.5214 10.9697C20.2213 10.6696 19.8144 10.501 19.39 10.501V10.502ZM28.61 10.502C28.3953 10.4944 28.1812 10.5301 27.9805 10.6069C27.7799 10.6838 27.5968 10.8003 27.4421 10.9495C27.2875 11.0987 27.1645 11.2775 27.0804 11.4752C26.9964 11.673 26.953 11.8857 26.953 12.1005C26.9529 12.3154 26.9961 12.5281 27.08 12.7259C27.1639 12.9237 27.2868 13.1026 27.4414 13.2519C27.596 13.4012 27.779 13.5178 27.9796 13.5948C28.1802 13.6718 28.3943 13.7076 28.609 13.7C29.0233 13.6854 29.4157 13.5105 29.7037 13.2122C29.9916 12.914 30.1525 12.5156 30.1525 12.101C30.1525 11.6865 29.9916 11.2881 29.7037 10.9899C29.4157 10.6916 29.0233 10.5167 28.609 10.502H28.61ZM24.002 10.777C23.987 10.7772 23.9722 10.7803 23.9585 10.7861C23.9447 10.792 23.9322 10.8005 23.9217 10.8111C23.9112 10.8218 23.9029 10.8345 23.8973 10.8483C23.8917 10.8622 23.8889 10.8771 23.889 10.892C23.889 10.954 23.939 11 24.002 11C24.063 11 24.112 10.954 24.113 10.892C24.1133 10.8622 24.1018 10.8333 24.081 10.8118C24.0603 10.7903 24.0319 10.7778 24.002 10.777ZM19.391 10.963C19.5404 10.9629 19.6883 10.9922 19.8264 11.0493C19.9645 11.1063 20.0899 11.19 20.1956 11.2955C20.3014 11.401 20.3853 11.5264 20.4425 11.6643C20.4998 11.8023 20.5294 11.9502 20.5295 12.0995C20.5296 12.2489 20.5004 12.3969 20.4433 12.5349C20.3863 12.673 20.3026 12.7985 20.1971 12.9042C20.0915 13.0099 19.9662 13.0938 19.8282 13.1511C19.6903 13.2084 19.5424 13.2379 19.393 13.238C19.0913 13.2383 18.8019 13.1187 18.5884 12.9056C18.3749 12.6925 18.2548 12.4032 18.2545 12.1015C18.2543 11.7999 18.3738 11.5104 18.587 11.2969C18.8001 11.0834 19.0893 10.9633 19.391 10.963ZM28.609 10.963C28.7583 10.9629 28.9062 10.9921 29.0442 11.049C29.1823 11.106 29.3077 11.1896 29.4134 11.295C29.5192 11.4004 29.6031 11.5257 29.6604 11.6635C29.7177 11.8014 29.7473 11.9492 29.7475 12.0985C29.7477 12.2479 29.7185 12.3958 29.6615 12.5338C29.6046 12.6718 29.521 12.7972 29.4156 12.903C29.3101 13.0087 29.1849 13.0926 29.047 13.1499C28.9091 13.2072 28.7613 13.2369 28.612 13.237C28.3105 13.2374 28.0211 13.118 27.8076 12.9051C27.5941 12.6921 27.4739 12.4031 27.4735 12.1015C27.4731 11.8 27.5925 11.5106 27.8055 11.2971C28.0184 11.0836 28.3075 10.9634 28.609 10.963ZM24.002 11.34C23.9873 11.3399 23.9727 11.3427 23.9591 11.3482C23.9454 11.3537 23.933 11.3618 23.9225 11.3721C23.912 11.3825 23.9037 11.3947 23.8979 11.4083C23.8922 11.4218 23.8891 11.4363 23.889 11.451C23.8889 11.4658 23.8917 11.4803 23.8972 11.494C23.9027 11.5076 23.9108 11.52 23.9211 11.5305C23.9314 11.541 23.9437 11.5494 23.9572 11.5551C23.9708 11.5609 23.9853 11.5639 24 11.564C24.0297 11.5643 24.0583 11.5528 24.0795 11.532C24.1007 11.5111 24.1128 11.4828 24.113 11.453C24.1133 11.4233 24.1017 11.3948 24.0809 11.3736C24.0601 11.3524 24.0317 11.3403 24.002 11.34ZM23.992 11.902C23.9647 11.9065 23.9399 11.9209 23.9223 11.9423C23.9048 11.9638 23.8956 11.9909 23.8966 12.0186C23.8976 12.0463 23.9086 12.0727 23.9277 12.0928C23.9467 12.113 23.9724 12.1255 24 12.128C24.061 12.128 24.11 12.077 24.111 12.015C24.1112 11.9996 24.1082 11.9844 24.1022 11.9702C24.0962 11.956 24.0873 11.9432 24.0761 11.9326C24.065 11.922 24.0517 11.9138 24.0373 11.9086C24.0228 11.9033 24.0074 11.9011 23.992 11.902ZM23.992 12.465C23.9647 12.4696 23.9399 12.4839 23.9223 12.5053C23.9048 12.5268 23.8956 12.5539 23.8966 12.5816C23.8976 12.6093 23.9086 12.6357 23.9277 12.6558C23.9467 12.676 23.9724 12.6885 24 12.691C24.061 12.691 24.11 12.639 24.111 12.578C24.1112 12.5626 24.1082 12.5474 24.1022 12.5332C24.0962 12.519 24.0873 12.5062 24.0761 12.4956C24.065 12.485 24.0517 12.4768 24.0373 12.4716C24.0228 12.4663 24.0074 12.4641 23.992 12.465ZM23.992 13.027C23.9637 13.0283 23.937 13.0405 23.9174 13.061C23.8979 13.0815 23.887 13.1087 23.887 13.137C23.887 13.1668 23.8988 13.1952 23.9198 13.2162C23.9408 13.2372 23.9693 13.249 23.999 13.249C24.0287 13.249 24.0572 13.2372 24.0782 13.2162C24.0992 13.1952 24.111 13.1668 24.111 13.137C24.1111 13.1218 24.108 13.1067 24.1019 13.0928C24.0958 13.0788 24.0869 13.0662 24.0757 13.0559C24.0645 13.0456 24.0513 13.0377 24.0369 13.0327C24.0225 13.0277 24.0072 13.0258 23.992 13.027ZM23.992 13.59C23.9637 13.5913 23.937 13.6035 23.9174 13.624C23.8979 13.6445 23.887 13.6717 23.887 13.7C23.887 13.7298 23.8988 13.7582 23.9198 13.7792C23.9408 13.8002 23.9693 13.812 23.999 13.812C24.0287 13.812 24.0572 13.8002 24.0782 13.7792C24.0992 13.7582 24.111 13.7298 24.111 13.7C24.1111 13.6848 24.108 13.6697 24.1019 13.6558C24.0958 13.6418 24.0869 13.6292 24.0757 13.6189C24.0645 13.6086 24.0513 13.6007 24.0369 13.5957C24.0225 13.5907 24.0072 13.5888 23.992 13.59ZM23.992 14.152C23.9623 14.1539 23.9346 14.1675 23.9149 14.1898C23.8952 14.2121 23.8852 14.2413 23.887 14.271C23.8889 14.3008 23.9025 14.3285 23.9248 14.3482C23.9471 14.3679 23.9763 14.3779 24.006 14.376C24.0207 14.3751 24.0351 14.3713 24.0483 14.3648C24.0616 14.3584 24.0734 14.3493 24.0832 14.3383C24.0929 14.3272 24.1004 14.3144 24.1052 14.3004C24.11 14.2865 24.1119 14.2718 24.111 14.257C24.1101 14.2423 24.1063 14.228 24.0998 14.2147C24.0933 14.2015 24.0843 14.1897 24.0733 14.1799C24.0622 14.1702 24.0493 14.1627 24.0354 14.1579C24.0215 14.1531 24.0067 14.1511 23.992 14.152ZM19.391 14.502C19.1776 14.4967 18.9653 14.5341 18.7666 14.6121C18.5678 14.6901 18.3867 14.8071 18.2339 14.9561C18.081 15.1052 17.9596 15.2833 17.8767 15.48C17.7937 15.6767 17.751 15.8881 17.751 16.1015C17.751 16.315 17.7937 16.5264 17.8767 16.7231C17.9596 16.9198 18.081 17.0979 18.2339 17.247C18.3867 17.396 18.5678 17.513 18.7666 17.591C18.9653 17.669 19.1776 17.7064 19.391 17.701C19.8154 17.701 20.2223 17.5325 20.5224 17.2324C20.8224 16.9324 20.991 16.5254 20.991 16.101C20.991 15.6767 20.8224 15.2697 20.5224 14.9697C20.2223 14.6696 19.8154 14.501 19.391 14.501V14.502ZM28.609 14.502C28.3943 14.4945 28.1802 14.5302 27.9796 14.6071C27.7789 14.6841 27.5959 14.8006 27.4413 14.9499C27.2867 15.0991 27.1637 15.2779 27.0797 15.4757C26.9957 15.6735 26.9525 15.8862 26.9525 16.101C26.9525 16.3159 26.9957 16.5286 27.0797 16.7264C27.1637 16.9242 27.2867 17.103 27.4413 17.2522C27.5959 17.4015 27.7789 17.518 27.9796 17.595C28.1802 17.6719 28.3943 17.7076 28.609 17.7C29.0233 17.6854 29.4157 17.5105 29.7037 17.2122C29.9916 16.914 30.1525 16.5156 30.1525 16.101C30.1525 15.6865 29.9916 15.2881 29.7037 14.9899C29.4157 14.6916 29.0233 14.5167 28.609 14.502ZM23.98 14.715C23.9538 14.7194 23.93 14.7329 23.9129 14.7533C23.8959 14.7737 23.8867 14.7995 23.887 14.826C23.8868 14.8482 23.8932 14.8699 23.9053 14.8884C23.9175 14.907 23.9348 14.9215 23.9552 14.9301C23.9756 14.9388 23.9981 14.9412 24.0199 14.9371C24.0416 14.933 24.0617 14.9225 24.0775 14.9069C24.0933 14.8914 24.1041 14.8716 24.1087 14.8499C24.1132 14.8282 24.1112 14.8057 24.1029 14.7851C24.0946 14.7646 24.0804 14.747 24.0621 14.7345C24.0438 14.722 24.0222 14.7152 24 14.715H23.98ZM19.39 14.963C19.5394 14.9629 19.6874 14.9921 19.8254 15.0491C19.9635 15.106 20.089 15.1897 20.1948 15.2952C20.3006 15.4006 20.3845 15.5259 20.4419 15.6639C20.4992 15.8018 20.5288 15.9497 20.529 16.099C20.5292 16.2484 20.5 16.3964 20.443 16.5345C20.386 16.6725 20.3024 16.7981 20.1969 16.9038C20.0914 17.0096 19.9661 17.0935 19.8282 17.1509C19.6903 17.2082 19.5424 17.2379 19.393 17.238C19.0913 17.2383 18.8019 17.1187 18.5884 16.9056C18.3749 16.6925 18.2548 16.4032 18.2545 16.1015C18.2543 15.7999 18.3738 15.5104 18.587 15.2969C18.8001 15.0834 19.0893 14.9633 19.391 14.963H19.39ZM28.61 14.963C28.7593 14.9629 28.9072 14.9922 29.0452 15.0492C29.1832 15.1062 29.3086 15.1899 29.4143 15.2954C29.52 15.4008 29.6038 15.5261 29.6611 15.664C29.7183 15.8019 29.7479 15.9497 29.748 16.099C29.7481 16.2484 29.7189 16.3962 29.6618 16.5342C29.6048 16.6722 29.5212 16.7976 29.4157 16.9033C29.3102 17.009 29.1849 17.0929 29.0471 17.1501C28.9092 17.2074 28.7613 17.2369 28.612 17.237C28.3105 17.2374 28.0211 17.118 27.8076 16.9051C27.5941 16.6921 27.4739 16.4031 27.4735 16.1015C27.4731 15.8 27.5925 15.5106 27.8055 15.2971C28.0184 15.0836 28.3075 14.9634 28.609 14.963H28.61ZM23.98 15.277C23.9508 15.2797 23.9239 15.2938 23.9052 15.3163C23.8864 15.3388 23.8774 15.3679 23.88 15.397C23.8827 15.4262 23.8968 15.4531 23.9193 15.4719C23.9418 15.4907 23.9708 15.4997 24 15.497C24.029 15.4973 24.057 15.4861 24.0777 15.4659C24.0985 15.4457 24.1105 15.418 24.111 15.389C24.111 15.327 24.061 15.278 24 15.277H23.98ZM24.002 15.837C23.9872 15.8369 23.9725 15.8397 23.9587 15.8453C23.9449 15.8508 23.9324 15.859 23.9218 15.8694C23.9112 15.8798 23.9028 15.8922 23.897 15.9059C23.8912 15.9195 23.8881 15.9342 23.888 15.949C23.8879 15.9639 23.8907 15.9786 23.8962 15.9924C23.9018 16.0061 23.91 16.0187 23.9204 16.0292C23.9308 16.0398 23.9432 16.0483 23.9569 16.0541C23.9705 16.0599 23.9852 16.0629 24 16.063C24.0299 16.0633 24.0586 16.0517 24.0799 16.0308C24.1011 16.0099 24.1133 15.9814 24.1135 15.9515C24.1138 15.9217 24.1022 15.893 24.0813 15.8717C24.0604 15.8504 24.0319 15.8383 24.002 15.838V15.837ZM23.992 16.4C23.9632 16.4018 23.9362 16.4147 23.9166 16.436C23.897 16.4572 23.8864 16.4852 23.887 16.514C23.887 16.576 23.937 16.626 24 16.624C24.0297 16.624 24.0582 16.6122 24.0792 16.5912C24.1002 16.5702 24.112 16.5418 24.112 16.512C24.112 16.4823 24.1002 16.4539 24.0792 16.4329C24.0582 16.4118 24.0297 16.4 24 16.4H23.992ZM23.992 16.963C23.9627 16.9641 23.9349 16.9766 23.9147 16.9979C23.8945 17.0192 23.8835 17.0476 23.884 17.077C23.8846 17.1063 23.8966 17.1343 23.9175 17.1549C23.9385 17.1754 23.9667 17.187 23.996 17.187C24.0254 17.187 24.0536 17.1754 24.0745 17.1549C24.0954 17.1343 24.1075 17.1063 24.108 17.077C24.1085 17.0476 24.0975 17.0192 24.0773 16.9979C24.0571 16.9766 24.0294 16.9641 24 16.963H23.992ZM23.992 17.525C23.9637 17.5263 23.937 17.5385 23.9174 17.559C23.8979 17.5795 23.887 17.6067 23.887 17.635C23.8849 17.651 23.8862 17.6672 23.8908 17.6827C23.8955 17.6981 23.9034 17.7123 23.914 17.7245C23.9246 17.7366 23.9377 17.7463 23.9523 17.7529C23.967 17.7596 23.9829 17.763 23.999 17.763C24.0151 17.763 24.031 17.7596 24.0457 17.7529C24.0604 17.7463 24.0735 17.7366 24.0841 17.7245C24.0947 17.7123 24.1026 17.6981 24.1072 17.6827C24.1119 17.6672 24.1132 17.651 24.111 17.635C24.111 17.6205 24.1081 17.6061 24.1025 17.5927C24.097 17.5793 24.0888 17.5671 24.0784 17.5569C24.0681 17.5467 24.0559 17.5386 24.0424 17.5331C24.029 17.5277 24.0145 17.5249 24 17.525H23.992ZM23.992 18.088C23.9623 18.0899 23.9346 18.1035 23.9149 18.1258C23.8952 18.1481 23.8852 18.1773 23.887 18.207C23.8889 18.2368 23.9025 18.2645 23.9248 18.2842C23.9471 18.3039 23.9763 18.3139 24.006 18.312C24.0207 18.3111 24.0351 18.3073 24.0483 18.3008C24.0616 18.2944 24.0734 18.2853 24.0832 18.2743C24.0929 18.2632 24.1004 18.2504 24.1052 18.2364C24.11 18.2225 24.1119 18.2078 24.111 18.193C24.1101 18.1783 24.1063 18.164 24.0998 18.1507C24.0933 18.1375 24.0843 18.1257 24.0733 18.1159C24.0622 18.1062 24.0493 18.0987 24.0354 18.0939C24.0215 18.0891 24.0067 18.0871 23.992 18.088ZM19.391 18.502C19.1776 18.4967 18.9653 18.5341 18.7666 18.6121C18.5678 18.6901 18.3867 18.8071 18.2339 18.9561C18.081 19.1052 17.9596 19.2833 17.8767 19.48C17.7937 19.6767 17.751 19.8881 17.751 20.1015C17.751 20.315 17.7937 20.5264 17.8767 20.7231C17.9596 20.9198 18.081 21.0979 18.2339 21.247C18.3867 21.396 18.5678 21.513 18.7666 21.591C18.9653 21.669 19.1776 21.7064 19.391 21.701C19.8154 21.701 20.2223 21.5325 20.5224 21.2324C20.8224 20.9324 20.991 20.5254 20.991 20.101C20.991 19.6767 20.8224 19.2697 20.5224 18.9697C20.2223 18.6696 19.8154 18.501 19.391 18.501V18.502ZM28.609 18.502C28.3943 18.4945 28.1802 18.5302 27.9796 18.6071C27.7789 18.6841 27.5959 18.8006 27.4413 18.9499C27.2867 19.0991 27.1637 19.2779 27.0797 19.4757C26.9957 19.6735 26.9525 19.8862 26.9525 20.101C26.9525 20.3159 26.9957 20.5286 27.0797 20.7264C27.1637 20.9242 27.2867 21.103 27.4413 21.2522C27.5959 21.4015 27.7789 21.518 27.9796 21.595C28.1802 21.6719 28.3943 21.7076 28.609 21.7C29.0233 21.6854 29.4157 21.5105 29.7037 21.2122C29.9916 20.914 30.1525 20.5156 30.1525 20.101C30.1525 19.6865 29.9916 19.2881 29.7037 18.9899C29.4157 18.6916 29.0233 18.5167 28.609 18.502ZM23.992 18.65C23.9622 18.6519 23.9343 18.6655 23.9145 18.6879C23.8947 18.7104 23.8847 18.7397 23.8865 18.7695C23.8884 18.7994 23.902 18.8273 23.9244 18.847C23.9468 18.8668 23.9762 18.8769 24.006 18.875C24.0359 18.8732 24.0637 18.8596 24.0835 18.8371C24.1033 18.8147 24.1134 18.7854 24.1115 18.7555C24.1097 18.7257 24.096 18.6978 24.0736 18.678C24.0512 18.6583 24.0219 18.6482 23.992 18.65ZM19.391 18.963C19.5404 18.9629 19.6883 18.9922 19.8264 19.0493C19.9645 19.1063 20.0899 19.19 20.1956 19.2955C20.3014 19.401 20.3853 19.5264 20.4425 19.6643C20.4998 19.8023 20.5294 19.9502 20.5295 20.0995C20.5296 20.2489 20.5004 20.3969 20.4433 20.5349C20.3863 20.673 20.3026 20.7985 20.1971 20.9042C20.0915 21.0099 19.9662 21.0938 19.8282 21.1511C19.6903 21.2084 19.5424 21.2379 19.393 21.238C19.0913 21.2383 18.8019 21.1187 18.5884 20.9056C18.3749 20.6925 18.2548 20.4032 18.2545 20.1015C18.2543 19.7999 18.3738 19.5104 18.587 19.2969C18.8001 19.0834 19.0893 18.9633 19.391 18.963ZM28.609 18.963C28.7583 18.9628 28.9062 18.9921 29.0442 19.049C29.1823 19.106 29.3077 19.1896 29.4134 19.295C29.5192 19.4004 29.6031 19.5257 29.6604 19.6636C29.7177 19.8014 29.7473 19.9492 29.7475 20.0985C29.7477 20.2479 29.7185 20.3958 29.6615 20.5338C29.6046 20.6718 29.521 20.7972 29.4156 20.903C29.3101 21.0087 29.1849 21.0926 29.047 21.1499C28.9091 21.2072 28.7613 21.2369 28.612 21.237C28.3105 21.2374 28.0211 21.118 27.8076 20.9051C27.5941 20.6921 27.4739 20.4031 27.4735 20.1015C27.4731 19.8 27.5925 19.5106 27.8055 19.2971C28.0184 19.0836 28.3075 18.9634 28.609 18.963ZM23.98 19.213C23.9537 19.2172 23.9298 19.2307 23.9127 19.2511C23.8956 19.2715 23.8865 19.2974 23.887 19.324C23.8868 19.3462 23.8932 19.3679 23.9053 19.3864C23.9175 19.405 23.9348 19.4195 23.9552 19.4281C23.9756 19.4368 23.9981 19.4392 24.0199 19.4351C24.0416 19.431 24.0617 19.4205 24.0775 19.4049C24.0933 19.3894 24.1041 19.3696 24.1087 19.3479C24.1132 19.3262 24.1112 19.3036 24.1029 19.2831C24.0946 19.2626 24.0804 19.245 24.0621 19.2325C24.0438 19.22 24.0222 19.2132 24 19.213H23.98ZM24.002 19.773C23.9872 19.7729 23.9726 19.7757 23.9589 19.7812C23.9452 19.7868 23.9327 19.7949 23.9222 19.8053C23.9009 19.8262 23.8888 19.8547 23.8885 19.8845C23.8883 19.9144 23.8999 19.9431 23.9208 19.9644C23.9417 19.9857 23.9702 19.9978 24 19.998C24.0299 19.9983 24.0586 19.9867 24.0799 19.9658C24.1011 19.9449 24.1133 19.9164 24.1135 19.8865C24.1138 19.8567 24.1022 19.828 24.0813 19.8067C24.0604 19.7854 24.0319 19.7733 24.002 19.773ZM23.992 20.336C23.9634 20.3378 23.9365 20.3506 23.917 20.3716C23.8974 20.3926 23.8867 20.4203 23.887 20.449C23.887 20.511 23.937 20.561 24 20.56C24.0297 20.559 24.0578 20.5462 24.078 20.5244C24.0983 20.5027 24.1091 20.4738 24.108 20.444C24.107 20.4143 24.0941 20.3863 24.0724 20.366C24.0506 20.3458 24.0217 20.335 23.992 20.336ZM23.992 20.898C23.9627 20.8991 23.9349 20.9116 23.9147 20.9329C23.8945 20.9542 23.8835 20.9826 23.884 21.012C23.8846 21.0413 23.8966 21.0693 23.9175 21.0899C23.9385 21.1104 23.9667 21.122 23.996 21.122C24.0254 21.122 24.0536 21.1104 24.0745 21.0899C24.0954 21.0693 24.1075 21.0413 24.108 21.012C24.1085 20.9826 24.0975 20.9542 24.0773 20.9329C24.0571 20.9116 24.0294 20.8991 24 20.898C23.9974 20.8979 23.9947 20.8979 23.992 20.898ZM23.992 21.461C23.9634 21.4628 23.9365 21.4756 23.917 21.4966C23.8974 21.5176 23.8867 21.5453 23.887 21.574C23.887 21.636 23.937 21.684 24 21.684C24.0145 21.6842 24.029 21.6814 24.0424 21.676C24.0559 21.6705 24.0681 21.6624 24.0784 21.6522C24.0888 21.642 24.097 21.6298 24.1025 21.6164C24.1081 21.603 24.111 21.5886 24.111 21.574C24.1112 21.5586 24.1082 21.5434 24.1022 21.5292C24.0962 21.515 24.0873 21.5022 24.0761 21.4916C24.065 21.481 24.0517 21.4728 24.0373 21.4676C24.0228 21.4623 24.0074 21.4601 23.992 21.461ZM23.992 22.023C23.9772 22.024 23.9628 22.0278 23.9495 22.0343C23.9362 22.0408 23.9243 22.0499 23.9145 22.0609C23.9047 22.072 23.8972 22.085 23.8924 22.099C23.8876 22.113 23.8856 22.1278 23.8865 22.1425C23.8874 22.1573 23.8913 22.1718 23.8978 22.1851C23.9043 22.1984 23.9133 22.2103 23.9244 22.22C23.9355 22.2298 23.9484 22.2374 23.9624 22.2422C23.9764 22.247 23.9912 22.249 24.006 22.248C24.0359 22.2462 24.0637 22.2326 24.0835 22.2101C24.1033 22.1877 24.1134 22.1584 24.1115 22.1285C24.1097 22.0987 24.096 22.0708 24.0736 22.051C24.0512 22.0313 24.0219 22.0212 23.992 22.023ZM19.391 22.502C19.1776 22.4967 18.9653 22.5341 18.7666 22.6121C18.5678 22.6901 18.3867 22.8071 18.2339 22.9561C18.081 23.1052 17.9596 23.2833 17.8767 23.48C17.7937 23.6767 17.751 23.8881 17.751 24.1015C17.751 24.315 17.7937 24.5264 17.8767 24.7231C17.9596 24.9198 18.081 25.0979 18.2339 25.247C18.3867 25.396 18.5678 25.513 18.7666 25.591C18.9653 25.669 19.1776 25.7064 19.391 25.701C19.8154 25.701 20.2223 25.5325 20.5224 25.2324C20.8224 24.9324 20.991 24.5254 20.991 24.101C20.991 23.6767 20.8224 23.2697 20.5224 22.9697C20.2223 22.6696 19.8154 22.501 19.391 22.501V22.502ZM28.609 22.502C28.3943 22.4945 28.1802 22.5302 27.9796 22.6071C27.7789 22.6841 27.5959 22.8006 27.4413 22.9499C27.2867 23.0991 27.1637 23.2779 27.0797 23.4757C26.9957 23.6735 26.9525 23.8862 26.9525 24.101C26.9525 24.3159 26.9957 24.5286 27.0797 24.7264C27.1637 24.9242 27.2867 25.103 27.4413 25.2522C27.5959 25.4015 27.7789 25.518 27.9796 25.595C28.1802 25.6719 28.3943 25.7076 28.609 25.7C29.0233 25.6854 29.4157 25.5105 29.7037 25.2122C29.9916 24.914 30.1525 24.5156 30.1525 24.101C30.1525 23.6865 29.9916 23.2881 29.7037 22.9899C29.4157 22.6916 29.0233 22.5167 28.609 22.502ZM23.992 22.586C23.9773 22.587 23.9629 22.5908 23.9497 22.5973C23.9365 22.6037 23.9246 22.6128 23.9149 22.6238C23.9051 22.6349 23.8976 22.6477 23.8929 22.6617C23.8881 22.6756 23.8861 22.6903 23.887 22.705C23.8879 22.7198 23.8917 22.7341 23.8982 22.7474C23.9047 22.7606 23.9137 22.7724 23.9248 22.7822C23.9358 22.7919 23.9487 22.7994 23.9626 22.8042C23.9766 22.809 23.9913 22.811 24.006 22.81C24.0357 22.8082 24.0635 22.7946 24.0832 22.7723C24.1029 22.75 24.1129 22.7208 24.111 22.691C24.1092 22.6613 24.0956 22.6336 24.0733 22.6139C24.0509 22.5942 24.0217 22.5842 23.992 22.586ZM19.391 22.963C19.6927 22.9628 19.9821 23.0824 20.1956 23.2955C20.4092 23.5086 20.5293 23.7979 20.5295 24.0995C20.5298 24.4012 20.4102 24.6907 20.1971 24.9042C19.9839 25.1177 19.6947 25.2378 19.393 25.238C19.2436 25.2382 19.0957 25.2089 18.9576 25.1518C18.8196 25.0948 18.6941 25.0111 18.5884 24.9056C18.3749 24.6925 18.2548 24.4032 18.2545 24.1015C18.2543 23.7999 18.3738 23.5104 18.587 23.2969C18.8001 23.0834 19.0893 22.9633 19.391 22.963ZM28.609 22.963C28.7583 22.9629 28.9062 22.9921 29.0442 23.049C29.1823 23.106 29.3077 23.1896 29.4134 23.295C29.5192 23.4004 29.6031 23.5257 29.6604 23.6636C29.7177 23.8014 29.7473 23.9492 29.7475 24.0985C29.7477 24.2479 29.7185 24.3958 29.6615 24.5338C29.6046 24.6718 29.521 24.7972 29.4156 24.903C29.3101 25.0087 29.1849 25.0926 29.047 25.1499C28.9091 25.2072 28.7613 25.2369 28.612 25.237C28.3105 25.2374 28.0211 25.118 27.8076 24.9051C27.5941 24.6921 27.4739 24.4031 27.4735 24.1015C27.4731 23.8 27.5925 23.5106 27.8055 23.2971C28.0184 23.0836 28.3075 22.9634 28.609 22.963ZM23.992 23.148C23.9772 23.1486 23.9627 23.152 23.9493 23.1581C23.9358 23.1643 23.9237 23.173 23.9136 23.1838C23.8933 23.2057 23.8825 23.2347 23.8835 23.2645C23.8846 23.2944 23.8974 23.3226 23.9193 23.3429C23.9411 23.3633 23.9702 23.3741 24 23.373C24.0299 23.372 24.058 23.3591 24.0784 23.3373C24.0987 23.3154 24.1096 23.2864 24.1085 23.2565C24.1075 23.2267 24.0946 23.1985 24.0727 23.1782C24.0509 23.1578 24.0219 23.147 23.992 23.148ZM23.98 23.711C23.9538 23.7149 23.9299 23.7282 23.9128 23.7485C23.8956 23.7687 23.8865 23.7945 23.887 23.821C23.887 23.8508 23.8988 23.8792 23.9198 23.9002C23.9408 23.9212 23.9693 23.933 23.999 23.933C24.0287 23.933 24.0572 23.9212 24.0782 23.9002C24.0992 23.8792 24.111 23.8508 24.111 23.821C24.111 23.8065 24.1081 23.7921 24.1025 23.7787C24.097 23.7653 24.0888 23.7531 24.0784 23.7429C24.0681 23.7327 24.0559 23.7246 24.0424 23.7191C24.029 23.7137 24.0145 23.7109 24 23.711H23.98ZM23.98 24.273C23.9538 24.2769 23.9299 24.2902 23.9128 24.3105C23.8956 24.3307 23.8865 24.3565 23.887 24.383C23.887 24.445 23.937 24.495 24 24.494C24.061 24.494 24.11 24.444 24.111 24.383C24.111 24.3685 24.1081 24.3541 24.1025 24.3407C24.097 24.3273 24.0888 24.3151 24.0784 24.3049C24.0681 24.2947 24.0559 24.2866 24.0424 24.2811C24.029 24.2757 24.0145 24.2729 24 24.273H23.98ZM23.992 24.833C23.9627 24.8341 23.9349 24.8466 23.9147 24.8679C23.8945 24.8892 23.8835 24.9176 23.884 24.947C23.8846 24.9763 23.8966 25.0043 23.9175 25.0249C23.9385 25.0454 23.9667 25.057 23.996 25.057C24.0254 25.057 24.0536 25.0454 24.0745 25.0249C24.0954 25.0043 24.1075 24.9763 24.108 24.947C24.1085 24.9176 24.0975 24.8892 24.0773 24.8679C24.0571 24.8466 24.0294 24.8341 24 24.833C23.9974 24.8329 23.9947 24.8329 23.992 24.833ZM23.992 25.396C23.9632 25.3978 23.9362 25.4107 23.9166 25.432C23.897 25.4532 23.8864 25.4812 23.887 25.51C23.887 25.572 23.937 25.62 24 25.619C24.0145 25.6192 24.029 25.6164 24.0424 25.611C24.0559 25.6055 24.0681 25.5974 24.0784 25.5872C24.0888 25.577 24.097 25.5648 24.1025 25.5514C24.1081 25.538 24.111 25.5236 24.111 25.509C24.1112 25.4936 24.1082 25.4784 24.1022 25.4642C24.0962 25.45 24.0873 25.4372 24.0761 25.4266C24.065 25.416 24.0517 25.4078 24.0373 25.4026C24.0228 25.3973 24.0074 25.3951 23.992 25.396ZM23.992 25.959C23.9634 25.9608 23.9365 25.9736 23.917 25.9946C23.8974 26.0156 23.8867 26.0433 23.887 26.072C23.887 26.134 23.937 26.182 24 26.182C24.0145 26.1822 24.029 26.1794 24.0424 26.174C24.0559 26.1685 24.0681 26.1604 24.0784 26.1502C24.0888 26.14 24.097 26.1278 24.1025 26.1144C24.1081 26.101 24.111 26.0866 24.111 26.072C24.1112 26.0566 24.1082 26.0414 24.1022 26.0272C24.0962 26.013 24.0873 26.0002 24.0761 25.9896C24.065 25.979 24.0517 25.9708 24.0373 25.9656C24.0228 25.9603 24.0074 25.9581 23.992 25.959ZM19.391 26.502C19.1776 26.4967 18.9653 26.5341 18.7666 26.6121C18.5678 26.6901 18.3867 26.8071 18.2339 26.9561C18.081 27.1052 17.9596 27.2833 17.8767 27.48C17.7937 27.6767 17.751 27.8881 17.751 28.1015C17.751 28.315 17.7937 28.5264 17.8767 28.7231C17.9596 28.9198 18.081 29.0979 18.2339 29.247C18.3867 29.396 18.5678 29.513 18.7666 29.591C18.9653 29.669 19.1776 29.7064 19.391 29.701C19.8154 29.701 20.2223 29.5325 20.5224 29.2324C20.8224 28.9324 20.991 28.5254 20.991 28.101C20.991 27.6767 20.8224 27.2697 20.5224 26.9697C20.2223 26.6696 19.8154 26.501 19.391 26.501V26.502ZM28.609 26.502C28.3943 26.4945 28.1802 26.5302 27.9796 26.6071C27.7789 26.6841 27.5959 26.8006 27.4413 26.9499C27.2867 27.0991 27.1637 27.2779 27.0797 27.4757C26.9957 27.6735 26.9525 27.8862 26.9525 28.101C26.9525 28.3159 26.9957 28.5286 27.0797 28.7264C27.1637 28.9242 27.2867 29.103 27.4413 29.2522C27.5959 29.4015 27.7789 29.518 27.9796 29.595C28.1802 29.6719 28.3943 29.7076 28.609 29.7C29.0233 29.6854 29.4157 29.5105 29.7037 29.2122C29.9916 28.914 30.1525 28.5156 30.1525 28.101C30.1525 27.6865 29.9916 27.2881 29.7037 26.9899C29.4157 26.6916 29.0233 26.5167 28.609 26.502ZM23.992 26.522C23.9766 26.5219 23.9614 26.525 23.9473 26.531C23.9331 26.537 23.9204 26.5459 23.9098 26.557C23.8992 26.5682 23.8911 26.5814 23.8858 26.5959C23.8806 26.6103 23.8784 26.6257 23.8793 26.6411C23.8803 26.6564 23.8844 26.6714 23.8914 26.6851C23.8984 26.6988 23.9082 26.7109 23.9201 26.7206C23.9319 26.7304 23.9457 26.7376 23.9605 26.7418C23.9753 26.746 23.9908 26.7471 24.006 26.745C24.0357 26.7432 24.0635 26.7296 24.0832 26.7073C24.1029 26.685 24.1129 26.6558 24.111 26.626C24.1092 26.5963 24.0956 26.5686 24.0733 26.5489C24.0509 26.5292 24.0217 26.5192 23.992 26.521V26.522ZM19.391 26.962C19.6928 26.9618 19.9824 27.0814 20.196 27.2947C20.4096 27.5079 20.5298 27.7972 20.53 28.099C20.5303 28.4009 20.4106 28.6904 20.1974 28.904C19.9842 29.1176 19.6948 29.2378 19.393 29.238C19.2436 29.2382 19.0957 29.2089 18.9576 29.1518C18.8196 29.0948 18.6941 29.0111 18.5884 28.9056C18.3749 28.6925 18.2548 28.4032 18.2545 28.1015C18.2543 27.7999 18.3738 27.5104 18.587 27.2969C18.8001 27.0834 19.0893 26.9633 19.391 26.963V26.962ZM28.609 26.962C28.7584 26.9619 28.9064 26.9911 29.0444 27.0481C29.1825 27.105 29.308 27.1887 29.4138 27.2942C29.5196 27.3996 29.6035 27.5249 29.6609 27.6629C29.7182 27.8008 29.7478 27.9487 29.748 28.098C29.7482 28.2474 29.719 28.3954 29.662 28.5335C29.605 28.6715 29.5214 28.7971 29.4159 28.9028C29.3104 29.0086 29.1851 29.0925 29.0472 29.1499C28.9093 29.2072 28.7614 29.2369 28.612 29.237C28.3105 29.2374 28.0211 29.118 27.8076 28.9051C27.5941 28.6921 27.4739 28.4031 27.4735 28.1015C27.4731 27.8 27.5925 27.5106 27.8055 27.2971C28.0184 27.0836 28.3075 26.9634 28.609 26.963V26.962ZM23.992 27.084C23.9773 27.0846 23.9628 27.088 23.9495 27.0941C23.9361 27.1002 23.924 27.1089 23.914 27.1197C23.904 27.1305 23.8962 27.1431 23.891 27.1569C23.8859 27.1707 23.8835 27.1853 23.884 27.2C23.8845 27.2148 23.888 27.2292 23.8941 27.2426C23.9002 27.256 23.9089 27.268 23.9196 27.2781C23.9304 27.2881 23.9431 27.2959 23.9569 27.3011C23.9706 27.3062 23.9853 27.3086 24 27.308C24.0297 27.308 24.0582 27.2962 24.0792 27.2752C24.1002 27.2542 24.112 27.2258 24.112 27.196C24.112 27.1663 24.1002 27.1379 24.0792 27.1169C24.0582 27.0958 24.0297 27.084 24 27.084C23.9974 27.0839 23.9947 27.0839 23.992 27.084ZM23.992 27.646C23.9637 27.6473 23.937 27.6595 23.9174 27.68C23.8979 27.7005 23.887 27.7277 23.887 27.756C23.8849 27.772 23.8862 27.7882 23.8908 27.8037C23.8955 27.8191 23.9034 27.8333 23.914 27.8455C23.9246 27.8576 23.9377 27.8673 23.9523 27.8739C23.967 27.8806 23.9829 27.884 23.999 27.884C24.0151 27.884 24.031 27.8806 24.0457 27.8739C24.0604 27.8673 24.0735 27.8576 24.0841 27.8455C24.0947 27.8333 24.1026 27.8191 24.1072 27.8037C24.1119 27.7882 24.1132 27.772 24.111 27.756C24.1111 27.7408 24.108 27.7257 24.1019 27.7118C24.0958 27.6978 24.0869 27.6852 24.0757 27.6749C24.0645 27.6646 24.0513 27.6567 24.0369 27.6517C24.0225 27.6467 24.0072 27.6448 23.992 27.646ZM23.98 28.209C23.9539 28.2131 23.9301 28.2265 23.913 28.2467C23.8959 28.2669 23.8867 28.2926 23.887 28.319C23.887 28.38 23.937 28.43 24 28.429C24.061 28.429 24.11 28.379 24.111 28.319C24.111 28.3045 24.1081 28.2901 24.1025 28.2767C24.097 28.2633 24.0888 28.2511 24.0784 28.2409C24.0681 28.2307 24.0559 28.2226 24.0424 28.2171C24.029 28.2117 24.0145 28.2089 24 28.209H23.98ZM24.002 28.769C23.9722 28.7688 23.9435 28.7804 23.9222 28.8013C23.9009 28.8222 23.8888 28.8507 23.8885 28.8805C23.8883 28.9104 23.8999 28.9391 23.9208 28.9604C23.9417 28.9817 23.9702 28.9938 24 28.994C24.0148 28.9942 24.0294 28.9914 24.0431 28.9859C24.0568 28.9803 24.0693 28.9722 24.0799 28.9618C24.0904 28.9515 24.0988 28.9391 24.1046 28.9255C24.1103 28.9119 24.1134 28.8973 24.1135 28.8825C24.1136 28.8678 24.1109 28.8531 24.1053 28.8394C24.0998 28.8257 24.0916 28.8132 24.0813 28.8027C24.0709 28.7922 24.0586 28.7838 24.045 28.778C24.0314 28.7722 24.0168 28.7692 24.002 28.769ZM23.992 29.332C23.9634 29.3338 23.9365 29.3466 23.917 29.3676C23.8974 29.3886 23.8867 29.4163 23.887 29.445C23.887 29.507 23.937 29.555 24 29.555C24.0145 29.5552 24.029 29.5524 24.0424 29.547C24.0559 29.5415 24.0681 29.5334 24.0784 29.5232C24.0888 29.513 24.097 29.5008 24.1025 29.4874C24.1081 29.474 24.111 29.4596 24.111 29.445C24.1112 29.4296 24.1082 29.4144 24.1022 29.4002C24.0962 29.386 24.0873 29.3732 24.0761 29.3626C24.065 29.352 24.0517 29.3438 24.0373 29.3386C24.0228 29.3333 24.0074 29.3311 23.992 29.332ZM23.992 29.894C23.9632 29.8958 23.9362 29.9087 23.9166 29.93C23.897 29.9512 23.8864 29.9792 23.887 30.008C23.887 30.07 23.937 30.118 24 30.117C24.0145 30.1172 24.029 30.1144 24.0424 30.109C24.0559 30.1035 24.0681 30.0954 24.0784 30.0852C24.0888 30.075 24.097 30.0628 24.1025 30.0494C24.1081 30.036 24.111 30.0216 24.111 30.007C24.1112 29.9916 24.1082 29.9764 24.1022 29.9622C24.0962 29.948 24.0873 29.9352 24.0761 29.9246C24.065 29.914 24.0517 29.9058 24.0373 29.9006C24.0228 29.8953 24.0074 29.8931 23.992 29.894ZM23.992 30.457C23.9634 30.4588 23.9365 30.4716 23.917 30.4926C23.8974 30.5136 23.8867 30.5413 23.887 30.57C23.887 30.632 23.937 30.68 24 30.68C24.0145 30.6802 24.029 30.6774 24.0424 30.672C24.0559 30.6665 24.0681 30.6584 24.0784 30.6482C24.0888 30.638 24.097 30.6258 24.1025 30.6124C24.1081 30.599 24.111 30.5846 24.111 30.57C24.1112 30.5546 24.1082 30.5394 24.1022 30.5252C24.0962 30.511 24.0873 30.4982 24.0761 30.4876C24.065 30.477 24.0517 30.4688 24.0373 30.4636C24.0228 30.4583 24.0074 30.4561 23.992 30.457ZM19.391 30.502C19.1776 30.4967 18.9653 30.5341 18.7666 30.6121C18.5678 30.6901 18.3867 30.8071 18.2339 30.9561C18.081 31.1052 17.9596 31.2833 17.8767 31.48C17.7937 31.6767 17.751 31.8881 17.751 32.1015C17.751 32.315 17.7937 32.5264 17.8767 32.7231C17.9596 32.9198 18.081 33.0979 18.2339 33.247C18.3867 33.396 18.5678 33.513 18.7666 33.591C18.9653 33.669 19.1776 33.7064 19.391 33.701C19.8154 33.701 20.2223 33.5325 20.5224 33.2324C20.8224 32.9324 20.991 32.5254 20.991 32.101C20.991 31.6767 20.8224 31.2697 20.5224 30.9697C20.2223 30.6696 19.8154 30.501 19.391 30.501V30.502ZM28.609 30.502C28.3943 30.4945 28.1802 30.5302 27.9796 30.6071C27.7789 30.6841 27.5959 30.8006 27.4413 30.9499C27.2867 31.0991 27.1637 31.2779 27.0797 31.4757C26.9957 31.6735 26.9525 31.8862 26.9525 32.101C26.9525 32.3159 26.9957 32.5286 27.0797 32.7264C27.1637 32.9242 27.2867 33.103 27.4413 33.2522C27.5959 33.4015 27.7789 33.518 27.9796 33.595C28.1802 33.6719 28.3943 33.7076 28.609 33.7C29.0233 33.6854 29.4157 33.5105 29.7037 33.2122C29.9916 32.914 30.1525 32.5156 30.1525 32.101C30.1525 31.6865 29.9916 31.2881 29.7037 30.9899C29.4157 30.6916 29.0233 30.5167 28.609 30.502ZM19.391 30.962C19.5405 30.9619 19.6885 30.9912 19.8266 31.0483C19.9647 31.1054 20.0902 31.1891 20.196 31.2947C20.3018 31.4002 20.3857 31.5256 20.443 31.6636C20.5003 31.8016 20.5299 31.9496 20.53 32.099C20.5301 32.2485 20.5008 32.3965 20.4438 32.5346C20.3867 32.6727 20.303 32.7983 20.1974 32.904C20.0918 33.0098 19.9665 33.0937 19.8284 33.151C19.6904 33.2084 19.5425 33.2379 19.393 33.238C19.2436 33.2382 19.0957 33.2089 18.9576 33.1518C18.8196 33.0948 18.6941 33.0111 18.5884 32.9056C18.3749 32.6925 18.2548 32.4032 18.2545 32.1015C18.2543 31.7999 18.3738 31.5104 18.587 31.2969C18.8001 31.0834 19.0893 30.9633 19.391 30.963V30.962ZM28.609 30.962C28.9107 30.9616 29.2002 31.0811 29.4138 31.2942C29.6274 31.5072 29.7476 31.7964 29.748 32.098C29.7484 32.3997 29.629 32.6892 29.4159 32.9028C29.2029 33.1164 28.9137 33.2366 28.612 33.237C28.3105 33.2374 28.0211 33.118 27.8076 32.9051C27.5941 32.6921 27.4739 32.4031 27.4735 32.1015C27.4731 31.8 27.5925 31.5106 27.8055 31.2971C28.0184 31.0836 28.3075 30.9634 28.609 30.963V30.962ZM23.992 31.017C23.9634 31.0193 23.9366 31.0323 23.9172 31.0535C23.8977 31.0746 23.8869 31.1023 23.887 31.131C23.8849 31.147 23.8862 31.1632 23.8908 31.1787C23.8955 31.1941 23.9034 31.2083 23.914 31.2205C23.9246 31.2326 23.9377 31.2423 23.9523 31.2489C23.967 31.2556 23.9829 31.259 23.999 31.259C24.0151 31.259 24.031 31.2556 24.0457 31.2489C24.0604 31.2423 24.0735 31.2326 24.0841 31.2205C24.0947 31.2083 24.1026 31.1941 24.1072 31.1787C24.1119 31.1632 24.1132 31.147 24.111 31.131C24.111 31.1156 24.1079 31.1004 24.1019 31.0862C24.0958 31.0721 24.087 31.0593 24.0759 31.0486C24.0648 31.038 24.0516 31.0297 24.0372 31.0242C24.0228 31.0188 24.0074 31.0164 23.992 31.017ZM23.992 31.58C23.9773 31.581 23.9629 31.5848 23.9497 31.5913C23.9365 31.5977 23.9246 31.6068 23.9149 31.6178C23.9051 31.6289 23.8976 31.6417 23.8929 31.6557C23.8881 31.6696 23.8861 31.6843 23.887 31.699C23.8879 31.7138 23.8917 31.7281 23.8982 31.7414C23.9047 31.7546 23.9137 31.7664 23.9248 31.7762C23.9358 31.7859 23.9487 31.7934 23.9626 31.7982C23.9766 31.803 23.9913 31.805 24.006 31.804C24.0357 31.8022 24.0635 31.7886 24.0832 31.7663C24.1029 31.744 24.1129 31.7148 24.111 31.685C24.1092 31.6553 24.0956 31.6276 24.0733 31.6079C24.0509 31.5882 24.0217 31.5782 23.992 31.58ZM23.98 32.142C23.9535 32.1462 23.9295 32.1598 23.9123 32.1805C23.8952 32.2011 23.8862 32.2273 23.887 32.254C23.887 32.2762 23.8936 32.2978 23.9058 32.3162C23.9181 32.3346 23.9355 32.3489 23.9559 32.3574C23.9763 32.3659 23.9988 32.3682 24.0205 32.364C24.0422 32.3597 24.0622 32.3492 24.0779 32.3336C24.0936 32.318 24.1043 32.2982 24.1087 32.2765C24.1132 32.2548 24.1111 32.2324 24.1028 32.2119C24.0945 32.1914 24.0803 32.1738 24.062 32.1614C24.0437 32.149 24.0221 32.1422 24 32.142H23.98ZM23.98 32.705C23.9539 32.7091 23.9301 32.7225 23.913 32.7427C23.8959 32.7629 23.8867 32.7886 23.887 32.815C23.887 32.8448 23.8988 32.8732 23.9198 32.8942C23.9408 32.9152 23.9693 32.927 23.999 32.927C24.0287 32.927 24.0572 32.9152 24.0782 32.8942C24.0992 32.8732 24.111 32.8448 24.111 32.815C24.111 32.8005 24.1081 32.7861 24.1025 32.7727C24.097 32.7593 24.0888 32.7471 24.0784 32.7369C24.0681 32.7267 24.0559 32.7186 24.0424 32.7131C24.029 32.7077 24.0145 32.7049 24 32.705H23.98ZM24.002 33.265C23.987 33.2652 23.9721 33.2683 23.9582 33.2742C23.9444 33.2801 23.9318 33.2887 23.9213 33.2995C23.9108 33.3103 23.9026 33.323 23.897 33.337C23.8915 33.351 23.8888 33.366 23.889 33.381C23.889 33.443 23.939 33.489 24.002 33.488C24.063 33.488 24.112 33.442 24.113 33.381C24.1133 33.3512 24.1018 33.3223 24.081 33.3008C24.0603 33.2793 24.0319 33.2668 24.002 33.266V33.265ZM23.992 33.828C23.9634 33.8298 23.9365 33.8426 23.917 33.8636C23.8974 33.8846 23.8867 33.9123 23.887 33.941C23.887 33.9708 23.8988 33.9992 23.9198 34.0202C23.9408 34.0412 23.9693 34.053 23.999 34.053C24.0287 34.053 24.0572 34.0412 24.0782 34.0202C24.0992 33.9992 24.111 33.9708 24.111 33.941C24.1112 33.9256 24.1082 33.9104 24.1022 33.8962C24.0962 33.882 24.0873 33.8692 24.0761 33.8586C24.065 33.848 24.0517 33.8398 24.0373 33.8346C24.0228 33.8293 24.0074 33.8271 23.992 33.828ZM23.992 34.391C23.9634 34.3928 23.9365 34.4056 23.917 34.4266C23.8974 34.4476 23.8867 34.4753 23.887 34.504C23.887 34.566 23.937 34.614 24 34.614C24.0145 34.6142 24.029 34.6114 24.0424 34.606C24.0559 34.6005 24.0681 34.5924 24.0784 34.5822C24.0888 34.572 24.097 34.5598 24.1025 34.5464C24.1081 34.533 24.111 34.5186 24.111 34.504C24.1112 34.4886 24.1082 34.4734 24.1022 34.4592C24.0962 34.445 24.0873 34.4322 24.0761 34.4216C24.065 34.411 24.0517 34.4028 24.0373 34.3976C24.0228 34.3923 24.0074 34.3901 23.992 34.391ZM19.391 34.501C18.9667 34.501 18.5597 34.6696 18.2596 34.9697C17.9596 35.2697 17.791 35.6767 17.791 36.101C17.791 36.5254 17.9596 36.9324 18.2596 37.2324C18.5597 37.5325 18.9667 37.701 19.391 37.701C19.8154 37.701 20.2223 37.5325 20.5224 37.2324C20.8224 36.9324 20.991 36.5254 20.991 36.101C20.991 35.6767 20.8224 35.2697 20.5224 34.9697C20.2223 34.6696 19.8154 34.501 19.391 34.501ZM28.609 34.501C28.1847 34.501 27.7777 34.6696 27.4776 34.9697C27.1776 35.2697 27.009 35.6767 27.009 36.101C27.009 36.5254 27.1776 36.9324 27.4776 37.2324C27.7777 37.5325 28.1847 37.701 28.609 37.701C29.0334 37.701 29.4403 37.5325 29.7404 37.2324C30.0404 36.9324 30.209 36.5254 30.209 36.101C30.209 35.6767 30.0404 35.2697 29.7404 34.9697C29.4403 34.6696 29.0334 34.501 28.609 34.501ZM23.992 34.953C23.9772 34.9536 23.9627 34.957 23.9493 34.9631C23.9358 34.9693 23.9237 34.978 23.9136 34.9888C23.9036 34.9996 23.8957 35.0123 23.8906 35.0262C23.8854 35.04 23.883 35.0548 23.8835 35.0695C23.884 35.0843 23.8875 35.0988 23.8936 35.1123C23.8998 35.1257 23.9085 35.1378 23.9193 35.1479C23.9301 35.158 23.9428 35.1658 23.9567 35.171C23.9705 35.1762 23.9852 35.1786 24 35.178C24.0299 35.177 24.058 35.1641 24.0784 35.1423C24.0987 35.1204 24.1096 35.0914 24.1085 35.0615C24.1075 35.0317 24.0946 35.0035 24.0727 34.9832C24.0509 34.9628 24.0219 34.952 23.992 34.953ZM19.391 34.963C19.6927 34.9628 19.9821 35.0824 20.1956 35.2955C20.4092 35.5086 20.5293 35.7979 20.5295 36.0995C20.5298 36.4012 20.4102 36.6907 20.1971 36.9042C19.9839 37.1177 19.6947 37.2378 19.393 37.238C19.2436 37.2382 19.0957 37.2089 18.9576 37.1518C18.8196 37.0948 18.6941 37.0111 18.5884 36.9056C18.3749 36.6925 18.2548 36.4032 18.2545 36.1015C18.2543 35.7999 18.3738 35.5104 18.587 35.2969C18.8001 35.0834 19.0893 34.9633 19.391 34.963ZM28.609 34.963C28.7583 34.9629 28.9062 34.9921 29.0442 35.049C29.1823 35.106 29.3077 35.1896 29.4134 35.295C29.5192 35.4004 29.6031 35.5257 29.6604 35.6635C29.7177 35.8014 29.7473 35.9492 29.7475 36.0985C29.7477 36.2479 29.7185 36.3957 29.6615 36.5338C29.6046 36.6718 29.521 36.7972 29.4156 36.903C29.3101 37.0087 29.1849 37.0926 29.047 37.1499C28.9091 37.2072 28.7613 37.2368 28.612 37.237C28.3105 37.2374 28.0211 37.118 27.8076 36.9051C27.5941 36.6921 27.4739 36.4031 27.4735 36.1015C27.4731 35.8 27.5925 35.5106 27.8055 35.2971C28.0184 35.0836 28.3075 34.9634 28.609 34.963ZM23.992 35.516C23.9773 35.517 23.9629 35.5208 23.9497 35.5273C23.9365 35.5337 23.9246 35.5428 23.9149 35.5538C23.9051 35.5648 23.8976 35.5777 23.8929 35.5917C23.8881 35.6056 23.8861 35.6203 23.887 35.635C23.8879 35.6498 23.8917 35.6641 23.8982 35.6774C23.9047 35.6906 23.9137 35.7024 23.9248 35.7122C23.9358 35.7219 23.9487 35.7294 23.9626 35.7342C23.9766 35.739 23.9913 35.741 24.006 35.74C24.0357 35.7382 24.0635 35.7246 24.0832 35.7023C24.1029 35.68 24.1129 35.6508 24.111 35.621C24.1092 35.5913 24.0956 35.5636 24.0733 35.5439C24.0509 35.5242 24.0217 35.5142 23.992 35.516ZM23.992 36.078C23.9773 36.079 23.9629 36.0828 23.9497 36.0892C23.9365 36.0957 23.9246 36.1047 23.9149 36.1158C23.9051 36.1269 23.8976 36.1397 23.8929 36.1537C23.8881 36.1676 23.8861 36.1823 23.887 36.197C23.8879 36.2118 23.8917 36.2261 23.8982 36.2394C23.9047 36.2526 23.9137 36.2644 23.9248 36.2742C23.9358 36.2839 23.9487 36.2914 23.9626 36.2962C23.9766 36.301 23.9913 36.303 24.006 36.302C24.0357 36.3002 24.0635 36.2866 24.0832 36.2643C24.1029 36.242 24.1129 36.2127 24.111 36.183C24.1092 36.1533 24.0956 36.1256 24.0733 36.1059C24.0509 36.0862 24.0217 36.0762 23.992 36.078ZM23.992 36.641C23.9639 36.6423 23.9373 36.6543 23.9178 36.6746C23.8983 36.6949 23.8872 36.7219 23.887 36.75C23.887 36.7798 23.8988 36.8082 23.9198 36.8292C23.9408 36.8502 23.9693 36.862 23.999 36.862C24.0287 36.862 24.0572 36.8502 24.0782 36.8292C24.0992 36.8082 24.111 36.7798 24.111 36.75C24.1111 36.7348 24.108 36.7197 24.1019 36.7058C24.0958 36.6918 24.0869 36.6792 24.0757 36.6689C24.0645 36.6586 24.0513 36.6507 24.0369 36.6457C24.0225 36.6407 24.0072 36.6388 23.992 36.64V36.641ZM23.98 37.203C23.9538 37.2069 23.9299 37.2202 23.9128 37.2405C23.8956 37.2607 23.8865 37.2865 23.887 37.313C23.887 37.374 23.937 37.425 24 37.423C24.061 37.423 24.11 37.373 24.111 37.313C24.111 37.2985 24.1081 37.2841 24.1025 37.2707C24.097 37.2573 24.0888 37.2451 24.0784 37.2349C24.0681 37.2247 24.0559 37.2166 24.0424 37.2111C24.029 37.2057 24.0145 37.2029 24 37.203H23.98ZM23.992 37.763C23.9627 37.7641 23.9349 37.7766 23.9147 37.7979C23.8945 37.8192 23.8835 37.8476 23.884 37.877C23.8846 37.9063 23.8966 37.9343 23.9175 37.9549C23.9385 37.9754 23.9667 37.987 23.996 37.987C24.0254 37.987 24.0536 37.9754 24.0745 37.9549C24.0954 37.9343 24.1075 37.9063 24.108 37.877C24.1085 37.8476 24.0975 37.8192 24.0773 37.7979C24.0571 37.7766 24.0294 37.7641 24 37.763H23.992ZM23.992 38.326C23.9634 38.3278 23.9365 38.3406 23.917 38.3616C23.8974 38.3826 23.8867 38.4103 23.887 38.439C23.887 38.501 23.937 38.549 24 38.549C24.0145 38.5492 24.029 38.5464 24.0424 38.541C24.0559 38.5355 24.0681 38.5274 24.0784 38.5172C24.0888 38.507 24.097 38.4948 24.1025 38.4814C24.1081 38.468 24.111 38.4536 24.111 38.439C24.1112 38.4236 24.1082 38.4084 24.1022 38.3942C24.0962 38.38 24.0873 38.3672 24.0761 38.3566C24.065 38.346 24.0517 38.3378 24.0373 38.3326C24.0228 38.3273 24.0074 38.3251 23.992 38.326ZM19.391 38.502C19.1776 38.4967 18.9653 38.5341 18.7666 38.6121C18.5678 38.6901 18.3867 38.8071 18.2339 38.9561C18.081 39.1052 17.9596 39.2833 17.8767 39.48C17.7937 39.6767 17.751 39.8881 17.751 40.1015C17.751 40.315 17.7937 40.5263 17.8767 40.7231C17.9596 40.9198 18.081 41.0979 18.2339 41.247C18.3867 41.396 18.5678 41.513 18.7666 41.591C18.9653 41.669 19.1776 41.7064 19.391 41.701C19.8154 41.701 20.2223 41.5325 20.5224 41.2324C20.8224 40.9324 20.991 40.5254 20.991 40.101C20.991 39.6767 20.8224 39.2697 20.5224 38.9697C20.2223 38.6696 19.8154 38.501 19.391 38.501V38.502ZM28.609 38.502C28.3943 38.4944 28.1802 38.5302 27.9796 38.6071C27.7789 38.6841 27.5959 38.8006 27.4413 38.9499C27.2867 39.0991 27.1637 39.2779 27.0797 39.4757C26.9957 39.6735 26.9525 39.8862 26.9525 40.101C26.9525 40.3159 26.9957 40.5286 27.0797 40.7264C27.1637 40.9242 27.2867 41.103 27.4413 41.2522C27.5959 41.4015 27.7789 41.518 27.9796 41.595C28.1802 41.6719 28.3943 41.7076 28.609 41.7C29.0233 41.6854 29.4157 41.5105 29.7037 41.2122C29.9916 40.914 30.1525 40.5156 30.1525 40.101C30.1525 39.6865 29.9916 39.2881 29.7037 38.9899C29.4157 38.6916 29.0233 38.5167 28.609 38.502ZM23.992 38.888C23.9632 38.8898 23.9362 38.9027 23.9166 38.924C23.897 38.9452 23.8864 38.9732 23.887 39.002C23.887 39.064 23.937 39.112 24 39.112C24.0145 39.1122 24.029 39.1094 24.0424 39.104C24.0559 39.0985 24.0681 39.0904 24.0784 39.0802C24.0888 39.07 24.097 39.0578 24.1025 39.0444C24.1081 39.031 24.111 39.0166 24.111 39.002C24.1113 38.9866 24.1084 38.9712 24.1025 38.9569C24.0965 38.9426 24.0877 38.9297 24.0765 38.9189C24.0653 38.9082 24.0521 38.9 24.0375 38.8946C24.023 38.8893 24.0075 38.8871 23.992 38.888ZM19.391 38.963C19.6927 38.9628 19.9821 39.0824 20.1956 39.2955C20.4092 39.5086 20.5293 39.7979 20.5295 40.0995C20.5298 40.4012 20.4102 40.6907 20.1971 40.9042C19.9839 41.1177 19.6947 41.2378 19.393 41.238C19.2436 41.2382 19.0957 41.2089 18.9576 41.1518C18.8196 41.0948 18.6941 41.0111 18.5884 40.9056C18.3749 40.6925 18.2548 40.4032 18.2545 40.1015C18.2543 39.7999 18.3738 39.5104 18.587 39.2969C18.8001 39.0834 19.0893 38.9633 19.391 38.963ZM28.609 38.963C28.7583 38.9628 28.9062 38.9921 29.0442 39.049C29.1823 39.106 29.3077 39.1896 29.4134 39.295C29.5192 39.4004 29.6031 39.5257 29.6604 39.6635C29.7177 39.8014 29.7473 39.9492 29.7475 40.0985C29.7477 40.2479 29.7185 40.3957 29.6615 40.5338C29.6046 40.6718 29.521 40.7972 29.4156 40.903C29.3101 41.0087 29.1849 41.0926 29.047 41.1499C28.9091 41.2072 28.7613 41.2368 28.612 41.237C28.3105 41.2374 28.0211 41.118 27.8076 40.9051C27.5941 40.6921 27.4739 40.4031 27.4735 40.1015C27.4731 39.8 27.5925 39.5106 27.8055 39.2971C28.0184 39.0836 28.3075 38.9634 28.609 38.963ZM23.992 39.451C23.9772 39.4516 23.9627 39.455 23.9493 39.4611C23.9358 39.4673 23.9237 39.476 23.9136 39.4868C23.9036 39.4976 23.8957 39.5103 23.8906 39.5242C23.8854 39.538 23.883 39.5528 23.8835 39.5675C23.884 39.5823 23.8875 39.5968 23.8936 39.6103C23.8998 39.6237 23.9085 39.6358 23.9193 39.6459C23.9301 39.656 23.9428 39.6638 23.9567 39.669C23.9705 39.6742 23.9852 39.6766 24 39.676C24.0299 39.675 24.058 39.6621 24.0784 39.6403C24.0987 39.6184 24.1096 39.5894 24.1085 39.5595C24.1075 39.5297 24.0946 39.5015 24.0727 39.4812C24.0509 39.4608 24.0219 39.45 23.992 39.451ZM23.992 40.014C23.9773 40.015 23.9629 40.0188 23.9497 40.0252C23.9365 40.0317 23.9246 40.0407 23.9149 40.0518C23.9051 40.0629 23.8976 40.0757 23.8929 40.0897C23.8881 40.1036 23.8861 40.1183 23.887 40.133C23.8879 40.1478 23.8917 40.1621 23.8982 40.1754C23.9047 40.1886 23.9137 40.2004 23.9248 40.2102C23.9358 40.2199 23.9487 40.2274 23.9626 40.2322C23.9766 40.237 23.9913 40.239 24.006 40.238C24.0357 40.2362 24.0635 40.2226 24.0832 40.2003C24.1029 40.178 24.1129 40.1488 24.111 40.119C24.1092 40.0893 24.0956 40.0616 24.0733 40.0419C24.0509 40.0222 24.0217 40.0122 23.992 40.014ZM23.992 40.576C23.9637 40.5773 23.937 40.5895 23.9174 40.61C23.8979 40.6305 23.887 40.6577 23.887 40.686C23.8849 40.702 23.8862 40.7182 23.8908 40.7337C23.8955 40.7491 23.9034 40.7633 23.914 40.7755C23.9246 40.7876 23.9377 40.7973 23.9523 40.8039C23.967 40.8106 23.9829 40.814 23.999 40.814C24.0151 40.814 24.031 40.8106 24.0457 40.8039C24.0604 40.7973 24.0735 40.7876 24.0841 40.7755C24.0947 40.7633 24.1026 40.7491 24.1072 40.7337C24.1119 40.7182 24.1132 40.702 24.111 40.686C24.1111 40.6708 24.108 40.6557 24.1019 40.6418C24.0958 40.6278 24.0869 40.6152 24.0757 40.6049C24.0645 40.5946 24.0513 40.5867 24.0369 40.5817C24.0225 40.5767 24.0072 40.5748 23.992 40.576ZM23.98 41.139C23.954 41.1431 23.9304 41.1563 23.9133 41.1763C23.8963 41.1963 23.8869 41.2218 23.887 41.248C23.8849 41.264 23.8862 41.2802 23.8908 41.2957C23.8955 41.3111 23.9034 41.3253 23.914 41.3375C23.9246 41.3496 23.9377 41.3593 23.9523 41.3659C23.967 41.3726 23.9829 41.376 23.999 41.376C24.0151 41.376 24.031 41.3726 24.0457 41.3659C24.0604 41.3593 24.0735 41.3496 24.0841 41.3375C24.0947 41.3253 24.1026 41.3111 24.1072 41.2957C24.1119 41.2802 24.1132 41.264 24.111 41.248C24.111 41.2335 24.1081 41.2191 24.1025 41.2057C24.097 41.1923 24.0888 41.1801 24.0784 41.1699C24.0681 41.1597 24.0559 41.1516 24.0424 41.1461C24.029 41.1407 24.0145 41.1379 24 41.138H23.98V41.139ZM23.98 41.701C23.9538 41.7049 23.9299 41.7182 23.9128 41.7385C23.8956 41.7587 23.8865 41.7845 23.887 41.811C23.887 41.872 23.937 41.922 24 41.921C24.061 41.921 24.11 41.872 24.111 41.811C24.1112 41.7964 24.1084 41.7819 24.1028 41.7684C24.0973 41.7549 24.0891 41.7426 24.0788 41.7323C24.0685 41.7219 24.0562 41.7138 24.0427 41.7082C24.0291 41.7027 24.0146 41.6999 24 41.7H23.98V41.701ZM24.002 42.261C23.9871 42.2609 23.9722 42.2638 23.9584 42.2695C23.9445 42.2752 23.932 42.2836 23.9215 42.2942C23.9109 42.3048 23.9026 42.3175 23.8971 42.3313C23.8915 42.3452 23.8887 42.3601 23.889 42.375C23.889 42.437 23.939 42.485 24.002 42.485C24.0165 42.4852 24.031 42.4824 24.0444 42.477C24.0579 42.4715 24.0701 42.4634 24.0804 42.4532C24.0908 42.443 24.099 42.4308 24.1045 42.4174C24.1101 42.404 24.113 42.3896 24.113 42.375C24.1131 42.3603 24.1104 42.3457 24.1049 42.3321C24.0994 42.3185 24.0912 42.306 24.0809 42.2956C24.0706 42.2851 24.0583 42.2767 24.0448 42.271C24.0313 42.2652 24.0167 42.2622 24.002 42.262V42.261ZM23.992 42.824C23.9634 42.8258 23.9365 42.8386 23.917 42.8596C23.8974 42.8806 23.8867 42.9083 23.887 42.937C23.887 42.999 23.937 43.047 24 43.047C24.0145 43.0472 24.029 43.0444 24.0424 43.039C24.0559 43.0335 24.0681 43.0254 24.0784 43.0152C24.0888 43.005 24.097 42.9928 24.1025 42.9794C24.1081 42.966 24.111 42.9516 24.111 42.937C24.1112 42.9216 24.1082 42.9064 24.1022 42.8922C24.0962 42.878 24.0873 42.8652 24.0761 42.8546C24.065 42.844 24.0517 42.8358 24.0373 42.8306C24.0228 42.8253 24.0074 42.8231 23.992 42.824Z" fill="#333333"/>
</svg>
