<svg width="48" height="48" viewBox="0 0 48 48" fill="none" xmlns="http://www.w3.org/2000/svg">
<path d="M28.906 4.08205C23.986 4.06805 19.122 4.12505 14.146 4.12505C13.277 4.12505 12.58 4.82405 12.58 5.69305V42.554C12.58 43.424 13.277 44.124 14.146 44.124H33.852C34.721 44.124 35.42 43.424 35.42 42.554V5.69405C35.42 4.82405 34.721 4.12405 33.852 4.12405C32.2035 4.09983 30.5548 4.08583 28.906 4.08205ZM20.367 5.06405H20.375C20.4044 5.0651 20.4321 5.07762 20.4523 5.09893C20.4725 5.12024 20.4835 5.14862 20.483 5.17798C20.4825 5.20733 20.4704 5.2353 20.4495 5.25588C20.4286 5.27645 20.4004 5.28798 20.371 5.28798C20.3417 5.28798 20.3135 5.27645 20.2925 5.25588C20.2716 5.2353 20.2596 5.20733 20.259 5.17798C20.2585 5.14862 20.2695 5.12024 20.2897 5.09893C20.3099 5.07762 20.3377 5.0651 20.367 5.06405ZM27.617 5.06405H27.625C27.6544 5.0651 27.6821 5.07762 27.7023 5.09893C27.7225 5.12024 27.7335 5.14862 27.733 5.17798C27.7325 5.20733 27.7204 5.2353 27.6995 5.25588C27.6786 5.27645 27.6504 5.28798 27.621 5.28798C27.5917 5.28798 27.5635 5.27645 27.5425 5.25588C27.5216 5.2353 27.5096 5.20733 27.509 5.17798C27.5085 5.14862 27.5195 5.12024 27.5397 5.09893C27.5599 5.07762 27.5877 5.0651 27.617 5.06405ZM16.619 5.28705C16.8324 5.28171 17.0448 5.31914 17.2435 5.39712C17.4422 5.4751 17.6233 5.59207 17.7762 5.74112C17.929 5.89018 18.0504 6.06831 18.1334 6.26503C18.2163 6.46174 18.259 6.67307 18.259 6.88655C18.259 7.10003 18.2163 7.31135 18.1334 7.50807C18.0504 7.70478 17.929 7.88292 17.7762 8.03197C17.6233 8.18103 17.4422 8.29799 17.2435 8.37598C17.0448 8.45396 16.8324 8.49138 16.619 8.48605C16.1947 8.48605 15.7877 8.31748 15.4876 8.01742C15.1876 7.71736 15.019 7.31039 15.019 6.88605C15.019 6.4617 15.1876 6.05473 15.4876 5.75468C15.7877 5.45462 16.1947 5.28605 16.619 5.28605V5.28705ZM23.955 5.28705C24.1684 5.28171 24.3808 5.31914 24.5795 5.39712C24.7782 5.4751 24.9593 5.59207 25.1122 5.74112C25.265 5.89018 25.3864 6.06831 25.4694 6.26503C25.5523 6.46174 25.595 6.67307 25.595 6.88655C25.595 7.10003 25.5523 7.31135 25.4694 7.50807C25.3864 7.70478 25.265 7.88292 25.1122 8.03197C24.9593 8.18103 24.7782 8.29799 24.5795 8.37598C24.3808 8.45396 24.1684 8.49138 23.955 8.48605C23.5307 8.48605 23.1237 8.31748 22.8236 8.01742C22.5236 7.71736 22.355 7.31039 22.355 6.88605C22.355 6.4617 22.5236 6.05473 22.8236 5.75468C23.1237 5.45462 23.5307 5.28605 23.955 5.28605V5.28705ZM31.293 5.28705C31.5064 5.28171 31.7188 5.31914 31.9175 5.39712C32.1162 5.4751 32.2973 5.59207 32.4502 5.74112C32.603 5.89018 32.7244 6.06831 32.8074 6.26503C32.8903 6.46174 32.933 6.67307 32.933 6.88655C32.933 7.10003 32.8903 7.31135 32.8074 7.50807C32.7244 7.70478 32.603 7.88292 32.4502 8.03197C32.2973 8.18103 32.1162 8.29799 31.9175 8.37598C31.7188 8.45396 31.5064 8.49138 31.293 8.48605C30.8687 8.48605 30.4617 8.31748 30.1616 8.01742C29.8616 7.71736 29.693 7.31039 29.693 6.88605C29.693 6.4617 29.8616 6.05473 30.1616 5.75468C30.4617 5.45462 30.8687 5.28605 31.293 5.28605V5.28705ZM20.367 5.62705H20.375C20.4044 5.6281 20.4321 5.64062 20.4523 5.66193C20.4725 5.68324 20.4835 5.71162 20.483 5.74098C20.4825 5.77033 20.4704 5.7983 20.4495 5.81888C20.4286 5.83945 20.4004 5.85098 20.371 5.85098C20.3417 5.85098 20.3135 5.83945 20.2925 5.81888C20.2716 5.7983 20.2596 5.77033 20.259 5.74098C20.2585 5.71162 20.2695 5.68324 20.2897 5.66193C20.3099 5.64062 20.3377 5.6281 20.367 5.62705ZM27.617 5.62705H27.625C27.6544 5.6281 27.6821 5.64062 27.7023 5.66193C27.7225 5.68324 27.7335 5.71162 27.733 5.74098C27.7325 5.77033 27.7204 5.7983 27.6995 5.81888C27.6786 5.83945 27.6504 5.85098 27.621 5.85098C27.5917 5.85098 27.5635 5.83945 27.5425 5.81888C27.5216 5.7983 27.5096 5.77033 27.509 5.74098C27.5085 5.71162 27.5195 5.68324 27.5397 5.66193C27.5599 5.64062 27.5877 5.6281 27.617 5.62705ZM20.357 6.18905H20.375C20.436 6.19005 20.485 6.23905 20.486 6.30105C20.486 6.36205 20.436 6.41105 20.375 6.41105C20.3474 6.41034 20.321 6.39943 20.3009 6.38044C20.2808 6.36144 20.2685 6.33569 20.2663 6.30814C20.264 6.28059 20.2721 6.25318 20.2888 6.2312C20.3056 6.20921 20.3299 6.1942 20.357 6.18905ZM27.607 6.18905H27.625C27.686 6.19005 27.735 6.23905 27.736 6.30105C27.736 6.36205 27.686 6.41105 27.625 6.41105C27.5974 6.41034 27.571 6.39943 27.5509 6.38044C27.5308 6.36144 27.5185 6.33569 27.5163 6.30814C27.514 6.28059 27.5221 6.25318 27.5388 6.2312C27.5556 6.20921 27.5799 6.1942 27.607 6.18905ZM20.377 6.74905C20.3918 6.74918 20.4064 6.75222 20.42 6.75799C20.4336 6.76377 20.4459 6.77217 20.4563 6.78271C20.4666 6.79324 20.4748 6.80572 20.4803 6.81942C20.4859 6.83312 20.4886 6.84777 20.4885 6.86255C20.4884 6.87732 20.4853 6.89192 20.4796 6.90552C20.4738 6.91912 20.4654 6.93145 20.4549 6.9418C20.4443 6.95216 20.4318 6.96033 20.4181 6.96587C20.4044 6.9714 20.3898 6.97418 20.375 6.97405C20.3603 6.97392 20.3458 6.97089 20.3322 6.96514C20.3187 6.95939 20.3064 6.95103 20.2961 6.94054C20.2858 6.93004 20.2777 6.91762 20.2722 6.90398C20.2667 6.89035 20.2639 6.87576 20.264 6.86105C20.2641 6.84634 20.2672 6.8318 20.2729 6.81826C20.2787 6.80472 20.287 6.79245 20.2975 6.78214C20.308 6.77184 20.3204 6.7637 20.3341 6.75819C20.3477 6.75268 20.3623 6.74992 20.377 6.75005V6.74905ZM27.627 6.74905C27.6418 6.74918 27.6564 6.75222 27.67 6.75799C27.6836 6.76377 27.6959 6.77217 27.7063 6.78271C27.7166 6.79324 27.7248 6.80572 27.7303 6.81942C27.7359 6.83312 27.7386 6.84777 27.7385 6.86255C27.7384 6.87732 27.7353 6.89192 27.7296 6.90552C27.7238 6.91912 27.7154 6.93145 27.7049 6.9418C27.6943 6.95216 27.6818 6.96033 27.6681 6.96587C27.6544 6.9714 27.6398 6.97418 27.625 6.97405C27.6103 6.97392 27.5958 6.97089 27.5822 6.96514C27.5687 6.95939 27.5564 6.95103 27.5461 6.94054C27.5358 6.93004 27.5277 6.91762 27.5222 6.90398C27.5167 6.89035 27.5139 6.87576 27.514 6.86105C27.5141 6.84634 27.5172 6.8318 27.5229 6.81826C27.5287 6.80472 27.537 6.79245 27.5475 6.78214C27.558 6.77184 27.5704 6.7637 27.5841 6.75819C27.5977 6.75268 27.6123 6.74992 27.627 6.75005V6.74905ZM20.367 7.31205H20.375C20.4044 7.3131 20.4321 7.32562 20.4523 7.34693C20.4725 7.36824 20.4835 7.39662 20.483 7.42598C20.4825 7.45533 20.4704 7.4833 20.4495 7.50388C20.4286 7.52445 20.4004 7.53598 20.371 7.53598C20.3417 7.53598 20.3135 7.52445 20.2925 7.50388C20.2716 7.4833 20.2596 7.45533 20.259 7.42598C20.2585 7.39662 20.2695 7.36824 20.2897 7.34693C20.3099 7.32562 20.3377 7.3131 20.367 7.31205ZM27.617 7.31205H27.625C27.6544 7.3131 27.6821 7.32562 27.7023 7.34693C27.7225 7.36824 27.7335 7.39662 27.733 7.42598C27.7325 7.45533 27.7204 7.4833 27.6995 7.50388C27.6786 7.52445 27.6504 7.53598 27.621 7.53598C27.5917 7.53598 27.5635 7.52445 27.5425 7.50388C27.5216 7.4833 27.5096 7.45533 27.509 7.42598C27.5085 7.39662 27.5195 7.36824 27.5397 7.34693C27.5599 7.32562 27.5877 7.3131 27.617 7.31205ZM20.367 7.87205H20.375C20.4044 7.8731 20.4321 7.88562 20.4523 7.90693C20.4725 7.92824 20.4835 7.95662 20.483 7.98598C20.4825 8.01533 20.4704 8.0433 20.4495 8.06388C20.4286 8.08445 20.4004 8.09598 20.371 8.09598C20.3417 8.09598 20.3135 8.08445 20.2925 8.06388C20.2716 8.0433 20.2596 8.01533 20.259 7.98598C20.2585 7.95662 20.2695 7.92824 20.2897 7.90693C20.3099 7.88562 20.3377 7.8731 20.367 7.87205ZM27.617 7.87205H27.625C27.6544 7.8731 27.6821 7.88562 27.7023 7.90693C27.7225 7.92824 27.7335 7.95662 27.733 7.98598C27.7325 8.01533 27.7204 8.0433 27.6995 8.06388C27.6786 8.08445 27.6504 8.09598 27.621 8.09598C27.5917 8.09598 27.5635 8.08445 27.5425 8.06388C27.5216 8.0433 27.5096 8.01533 27.509 7.98598C27.5085 7.95662 27.5195 7.92824 27.5397 7.90693C27.5599 7.88562 27.5877 7.8731 27.617 7.87205ZM20.367 8.43505H20.375C20.4044 8.4361 20.4321 8.44862 20.4523 8.46993C20.4725 8.49124 20.4835 8.51962 20.483 8.54898C20.4825 8.57833 20.4704 8.6063 20.4495 8.62688C20.4286 8.64745 20.4004 8.65898 20.371 8.65898C20.3417 8.65898 20.3135 8.64745 20.2925 8.62688C20.2716 8.6063 20.2596 8.57833 20.259 8.54898C20.2585 8.51962 20.2695 8.49124 20.2897 8.46993C20.3099 8.44862 20.3377 8.4361 20.367 8.43505ZM27.617 8.43505H27.625C27.6544 8.4361 27.6821 8.44862 27.7023 8.46993C27.7225 8.49124 27.7335 8.51962 27.733 8.54898C27.7325 8.57833 27.7204 8.6063 27.6995 8.62688C27.6786 8.64745 27.6504 8.65898 27.621 8.65898C27.5917 8.65898 27.5635 8.64745 27.5425 8.62688C27.5216 8.6063 27.5096 8.57833 27.509 8.54898C27.5085 8.51962 27.5195 8.49124 27.5397 8.46993C27.5599 8.44862 27.5877 8.4361 27.617 8.43505ZM20.367 8.99805H20.375C20.4044 8.9991 20.4321 9.01162 20.4523 9.03293C20.4725 9.05424 20.4835 9.08262 20.483 9.11198C20.4825 9.14133 20.4704 9.1693 20.4495 9.18988C20.4286 9.21045 20.4004 9.22198 20.371 9.22198C20.3417 9.22198 20.3135 9.21045 20.2925 9.18988C20.2716 9.1693 20.2596 9.14133 20.259 9.11198C20.2585 9.08262 20.2695 9.05424 20.2897 9.03293C20.3099 9.01162 20.3377 8.9991 20.367 8.99805ZM27.617 8.99805H27.625C27.6544 8.9991 27.6821 9.01162 27.7023 9.03293C27.7225 9.05424 27.7335 9.08262 27.733 9.11198C27.7325 9.14133 27.7204 9.1693 27.6995 9.18988C27.6786 9.21045 27.6504 9.22198 27.621 9.22198C27.5917 9.22198 27.5635 9.21045 27.5425 9.18988C27.5216 9.1693 27.5096 9.14133 27.509 9.11198C27.5085 9.08262 27.5195 9.05424 27.5397 9.03293C27.5599 9.01162 27.5877 8.9991 27.617 8.99805ZM16.619 9.12305C17.0366 9.13349 17.4335 9.30669 17.7251 9.6057C18.0168 9.90472 18.18 10.3059 18.18 10.7235C18.18 11.1412 18.0168 11.5424 17.7251 11.8414C17.4335 12.1404 17.0366 12.3136 16.619 12.324C16.2015 12.3136 15.8045 12.1404 15.5129 11.8414C15.2213 11.5424 15.058 11.1412 15.058 10.7235C15.058 10.3059 15.2213 9.90472 15.5129 9.6057C15.8045 9.30669 16.2015 9.13349 16.619 9.12305ZM23.955 9.12305C24.1684 9.11771 24.3808 9.15514 24.5795 9.23312C24.7782 9.3111 24.9593 9.42807 25.1122 9.57712C25.265 9.72618 25.3864 9.90431 25.4694 10.101C25.5523 10.2977 25.595 10.5091 25.595 10.7225C25.595 10.936 25.5523 11.1474 25.4694 11.3441C25.3864 11.5408 25.265 11.7189 25.1122 11.868C24.9593 12.017 24.7782 12.134 24.5795 12.212C24.3808 12.29 24.1684 12.3274 23.955 12.322C23.5307 12.322 23.1237 12.1535 22.8236 11.8534C22.5236 11.5534 22.355 11.1464 22.355 10.722C22.355 10.2977 22.5236 9.89074 22.8236 9.59068C23.1237 9.29062 23.5307 9.12205 23.955 9.12205V9.12305ZM31.293 9.12305C31.5064 9.11771 31.7188 9.15514 31.9175 9.23312C32.1162 9.3111 32.2973 9.42807 32.4502 9.57712C32.603 9.72618 32.7244 9.90431 32.8074 10.101C32.8903 10.2977 32.933 10.5091 32.933 10.7225C32.933 10.936 32.8903 11.1474 32.8074 11.3441C32.7244 11.5408 32.603 11.7189 32.4502 11.868C32.2973 12.017 32.1162 12.134 31.9175 12.212C31.7188 12.29 31.5064 12.3274 31.293 12.322C30.8687 12.322 30.4617 12.1535 30.1616 11.8534C29.8616 11.5534 29.693 11.1464 29.693 10.722C29.693 10.2977 29.8616 9.89074 30.1616 9.59068C30.4617 9.29062 30.8687 9.12205 31.293 9.12205V9.12305ZM20.367 9.56005H20.375C20.4044 9.5611 20.4321 9.57362 20.4523 9.59493C20.4725 9.61624 20.4835 9.64462 20.483 9.67398C20.4825 9.70333 20.4704 9.7313 20.4495 9.75188C20.4286 9.77245 20.4004 9.78398 20.371 9.78398C20.3417 9.78398 20.3135 9.77245 20.2925 9.75188C20.2716 9.7313 20.2596 9.70333 20.259 9.67398C20.2585 9.64462 20.2695 9.61624 20.2897 9.59493C20.3099 9.57362 20.3377 9.5611 20.367 9.56005ZM27.617 9.56005H27.625C27.6544 9.5611 27.6821 9.57362 27.7023 9.59493C27.7225 9.61624 27.7335 9.64462 27.733 9.67398C27.7325 9.70333 27.7204 9.7313 27.6995 9.75188C27.6786 9.77245 27.6504 9.78398 27.621 9.78398C27.5917 9.78398 27.5635 9.77245 27.5425 9.75188C27.5216 9.7313 27.5096 9.70333 27.509 9.67398C27.5085 9.64462 27.5195 9.61624 27.5397 9.59493C27.5599 9.57362 27.5877 9.5611 27.617 9.56005ZM20.355 10.123H20.375C20.436 10.123 20.485 10.175 20.486 10.236C20.486 10.2658 20.4742 10.2942 20.4532 10.3152C20.4322 10.3362 20.4037 10.348 20.374 10.348C20.3443 10.348 20.3158 10.3362 20.2948 10.3152C20.2738 10.2942 20.262 10.2658 20.262 10.236C20.262 10.181 20.301 10.13 20.355 10.123ZM27.605 10.123H27.625C27.686 10.123 27.735 10.175 27.736 10.236C27.736 10.2658 27.7242 10.2942 27.7032 10.3152C27.6822 10.3362 27.6537 10.348 27.624 10.348C27.5943 10.348 27.5658 10.3362 27.5448 10.3152C27.5238 10.2942 27.512 10.2658 27.512 10.236C27.512 10.181 27.551 10.13 27.605 10.123ZM20.377 10.683C20.439 10.684 20.489 10.737 20.488 10.799C20.4879 10.8135 20.4849 10.8278 20.4793 10.8411C20.4736 10.8544 20.4654 10.8664 20.4551 10.8765C20.4448 10.8867 20.4326 10.8947 20.4192 10.9001C20.4058 10.9055 20.3915 10.9082 20.377 10.908C20.3623 10.9084 20.3477 10.9059 20.334 10.9006C20.3203 10.8952 20.3078 10.8872 20.2973 10.8769C20.2868 10.8667 20.2784 10.8544 20.2727 10.8408C20.267 10.8273 20.264 10.8127 20.264 10.798C20.264 10.736 20.314 10.683 20.377 10.683ZM27.627 10.683C27.689 10.684 27.739 10.737 27.738 10.799C27.7379 10.8135 27.7349 10.8278 27.7293 10.8411C27.7236 10.8544 27.7154 10.8664 27.7051 10.8765C27.6948 10.8867 27.6826 10.8947 27.6692 10.9001C27.6558 10.9055 27.6415 10.9082 27.627 10.908C27.6123 10.9084 27.5977 10.9059 27.584 10.9006C27.5703 10.8952 27.5578 10.8872 27.5473 10.8769C27.5368 10.8667 27.5284 10.8544 27.5227 10.8408C27.517 10.8273 27.514 10.8127 27.514 10.798C27.514 10.736 27.564 10.683 27.627 10.683ZM20.377 11.246C20.3918 11.2462 20.4064 11.2492 20.42 11.255C20.4336 11.2608 20.4459 11.2692 20.4563 11.2797C20.4666 11.2902 20.4748 11.3027 20.4803 11.3164C20.4859 11.3301 20.4886 11.3448 20.4885 11.3595C20.4884 11.3743 20.4853 11.3889 20.4796 11.4025C20.4738 11.4161 20.4654 11.4285 20.4549 11.4388C20.4443 11.4492 20.4318 11.4573 20.4181 11.4629C20.4044 11.4684 20.3898 11.4712 20.375 11.471C20.3452 11.4708 20.3167 11.4587 20.2958 11.4374C20.2749 11.4161 20.2633 11.3874 20.2635 11.3575C20.2638 11.3277 20.2759 11.2992 20.2972 11.2783C20.3185 11.2574 20.3472 11.2458 20.377 11.246ZM27.627 11.246C27.6418 11.2462 27.6564 11.2492 27.67 11.255C27.6836 11.2608 27.6959 11.2692 27.7063 11.2797C27.7166 11.2902 27.7248 11.3027 27.7303 11.3164C27.7359 11.3301 27.7386 11.3448 27.7385 11.3595C27.7384 11.3743 27.7353 11.3889 27.7296 11.4025C27.7238 11.4161 27.7154 11.4285 27.7049 11.4388C27.6943 11.4492 27.6818 11.4573 27.6681 11.4629C27.6544 11.4684 27.6398 11.4712 27.625 11.471C27.5952 11.4708 27.5667 11.4587 27.5458 11.4374C27.5249 11.4161 27.5133 11.3874 27.5135 11.3575C27.5138 11.3277 27.5259 11.2992 27.5472 11.2783C27.5685 11.2574 27.5972 11.2458 27.627 11.246ZM20.367 11.808C20.3825 11.8069 20.398 11.8091 20.4126 11.8142C20.4272 11.8194 20.4405 11.8276 20.4518 11.8382C20.4631 11.8488 20.472 11.8617 20.4781 11.8759C20.4842 11.8902 20.4872 11.9056 20.487 11.921C20.486 11.983 20.437 12.035 20.375 12.035C20.3465 12.0336 20.3196 12.0215 20.2996 12.0011C20.2796 11.9808 20.268 11.9537 20.267 11.9252C20.266 11.8967 20.2757 11.8689 20.2942 11.8472C20.3127 11.8255 20.3387 11.8115 20.367 11.808ZM27.617 11.808C27.6325 11.8069 27.648 11.8091 27.6626 11.8142C27.6772 11.8194 27.6905 11.8276 27.7018 11.8382C27.7131 11.8488 27.722 11.8617 27.7281 11.8759C27.7342 11.8902 27.7372 11.9056 27.737 11.921C27.736 11.983 27.687 12.035 27.625 12.035C27.5965 12.0336 27.5696 12.0215 27.5496 12.0011C27.5296 11.9808 27.518 11.9537 27.517 11.9252C27.516 11.8967 27.5257 11.8689 27.5442 11.8472C27.5627 11.8255 27.5887 11.8115 27.617 11.808ZM20.367 12.371H20.375C20.437 12.371 20.487 12.422 20.486 12.484C20.486 12.545 20.436 12.597 20.375 12.598C20.3465 12.5966 20.3196 12.5845 20.2996 12.5641C20.2796 12.5438 20.268 12.5167 20.267 12.4882C20.266 12.4597 20.2757 12.4319 20.2942 12.4102C20.3127 12.3885 20.3387 12.3745 20.367 12.371ZM27.617 12.371H27.625C27.687 12.371 27.737 12.422 27.736 12.484C27.736 12.545 27.686 12.597 27.625 12.598C27.5965 12.5966 27.5696 12.5845 27.5496 12.5641C27.5296 12.5438 27.518 12.5167 27.517 12.4882C27.516 12.4597 27.5257 12.4319 27.5442 12.4102C27.5627 12.3885 27.5887 12.3745 27.617 12.371ZM20.367 12.933H20.375C20.4044 12.9341 20.4321 12.9466 20.4523 12.9679C20.4725 12.9892 20.4835 13.0176 20.483 13.047C20.4825 13.0763 20.4704 13.1043 20.4495 13.1249C20.4286 13.1454 20.4004 13.157 20.371 13.157C20.3417 13.157 20.3135 13.1454 20.2925 13.1249C20.2716 13.1043 20.2596 13.0763 20.259 13.047C20.2585 13.0176 20.2695 12.9892 20.2897 12.9679C20.3099 12.9466 20.3377 12.9341 20.367 12.933ZM27.617 12.933H27.625C27.6544 12.9341 27.6821 12.9466 27.7023 12.9679C27.7225 12.9892 27.7335 13.0176 27.733 13.047C27.7325 13.0763 27.7204 13.1043 27.6995 13.1249C27.6786 13.1454 27.6504 13.157 27.621 13.157C27.5917 13.157 27.5635 13.1454 27.5425 13.1249C27.5216 13.1043 27.5096 13.0763 27.509 13.047C27.5085 13.0176 27.5195 12.9892 27.5397 12.9679C27.5599 12.9466 27.5877 12.9341 27.617 12.933ZM16.619 12.959C16.8324 12.9537 17.0448 12.9911 17.2435 13.0691C17.4422 13.1471 17.6233 13.2641 17.7762 13.4131C17.929 13.5622 18.0504 13.7403 18.1334 13.937C18.2163 14.1337 18.259 14.3451 18.259 14.5585C18.259 14.772 18.2163 14.9834 18.1334 15.1801C18.0504 15.3768 17.929 15.5549 17.7762 15.704C17.6233 15.853 17.4422 15.97 17.2435 16.048C17.0448 16.126 16.8324 16.1634 16.619 16.158C16.1947 16.158 15.7877 15.9895 15.4876 15.6894C15.1876 15.3894 15.019 14.9824 15.019 14.558C15.019 14.1337 15.1876 13.7267 15.4876 13.4267C15.7877 13.1266 16.1947 12.958 16.619 12.958V12.959ZM23.955 12.959C24.1684 12.9537 24.3808 12.9911 24.5795 13.0691C24.7782 13.1471 24.9593 13.2641 25.1122 13.4131C25.265 13.5622 25.3864 13.7403 25.4694 13.937C25.5523 14.1337 25.595 14.3451 25.595 14.5585C25.595 14.772 25.5523 14.9834 25.4694 15.1801C25.3864 15.3768 25.265 15.5549 25.1122 15.704C24.9593 15.853 24.7782 15.97 24.5795 16.048C24.3808 16.126 24.1684 16.1634 23.955 16.158C23.5307 16.158 23.1237 15.9895 22.8236 15.6894C22.5236 15.3894 22.355 14.9824 22.355 14.558C22.355 14.1337 22.5236 13.7267 22.8236 13.4267C23.1237 13.1266 23.5307 12.958 23.955 12.958V12.959ZM31.293 12.959C31.5064 12.9537 31.7188 12.9911 31.9175 13.0691C32.1162 13.1471 32.2973 13.2641 32.4502 13.4131C32.603 13.5622 32.7244 13.7403 32.8074 13.937C32.8903 14.1337 32.933 14.3451 32.933 14.5585C32.933 14.772 32.8903 14.9834 32.8074 15.1801C32.7244 15.3768 32.603 15.5549 32.4502 15.704C32.2973 15.853 32.1162 15.97 31.9175 16.048C31.7188 16.126 31.5064 16.1634 31.293 16.158C30.8687 16.158 30.4617 15.9895 30.1616 15.6894C29.8616 15.3894 29.693 14.9824 29.693 14.558C29.693 14.1337 29.8616 13.7267 30.1616 13.4267C30.4617 13.1266 30.8687 12.958 31.293 12.958V12.959ZM20.367 13.496H20.375C20.4044 13.4971 20.4321 13.5096 20.4523 13.5309C20.4725 13.5522 20.4835 13.5806 20.483 13.61C20.4825 13.6393 20.4704 13.6673 20.4495 13.6879C20.4286 13.7084 20.4004 13.72 20.371 13.72C20.3417 13.72 20.3135 13.7084 20.2925 13.6879C20.2716 13.6673 20.2596 13.6393 20.259 13.61C20.2585 13.5806 20.2695 13.5522 20.2897 13.5309C20.3099 13.5096 20.3377 13.4971 20.367 13.496ZM27.617 13.496H27.625C27.6544 13.4971 27.6821 13.5096 27.7023 13.5309C27.7225 13.5522 27.7335 13.5806 27.733 13.61C27.7325 13.6393 27.7204 13.6673 27.6995 13.6879C27.6786 13.7084 27.6504 13.72 27.621 13.72C27.5917 13.72 27.5635 13.7084 27.5425 13.6879C27.5216 13.6673 27.5096 13.6393 27.509 13.61C27.5085 13.5806 27.5195 13.5522 27.5397 13.5309C27.5599 13.5096 27.5877 13.4971 27.617 13.496ZM20.355 14.621H20.375C20.3972 14.6212 20.4188 14.628 20.4371 14.6405C20.4554 14.653 20.4696 14.6706 20.4779 14.6911C20.4862 14.7117 20.4882 14.7342 20.4837 14.7559C20.4791 14.7776 20.4683 14.7974 20.4525 14.8129C20.4367 14.8285 20.4166 14.839 20.3949 14.8431C20.3731 14.8472 20.3506 14.8448 20.3302 14.8361C20.3098 14.8275 20.2925 14.813 20.2803 14.7944C20.2682 14.7759 20.2618 14.7542 20.262 14.732C20.262 14.678 20.301 14.629 20.355 14.621ZM27.605 14.621H27.625C27.6472 14.6212 27.6688 14.628 27.6871 14.6405C27.7054 14.653 27.7196 14.6706 27.7279 14.6911C27.7362 14.7117 27.7382 14.7342 27.7337 14.7559C27.7291 14.7776 27.7183 14.7974 27.7025 14.8129C27.6867 14.8285 27.6666 14.839 27.6449 14.8431C27.6231 14.8472 27.6006 14.8448 27.5802 14.8361C27.5598 14.8275 27.5425 14.813 27.5303 14.7944C27.5182 14.7759 27.5118 14.7542 27.512 14.732C27.512 14.678 27.551 14.629 27.605 14.621ZM20.355 15.183H20.375C20.436 15.184 20.485 15.233 20.486 15.295C20.4857 15.3164 20.4794 15.3372 20.4677 15.355C20.456 15.3728 20.4395 15.3869 20.42 15.3957C20.4006 15.4045 20.3791 15.4075 20.358 15.4044C20.3369 15.4014 20.3171 15.3924 20.3009 15.3784C20.2848 15.3645 20.2729 15.3463 20.2668 15.3259C20.2606 15.3055 20.2604 15.2837 20.2662 15.2632C20.272 15.2427 20.2835 15.2242 20.2994 15.21C20.3153 15.1958 20.335 15.1865 20.356 15.183H20.355ZM27.605 15.183H27.625C27.686 15.184 27.735 15.233 27.736 15.295C27.7357 15.3164 27.7294 15.3372 27.7177 15.355C27.706 15.3728 27.6895 15.3869 27.67 15.3957C27.6506 15.4045 27.6291 15.4075 27.608 15.4044C27.5869 15.4014 27.5671 15.3924 27.5509 15.3784C27.5348 15.3645 27.5229 15.3463 27.5168 15.3259C27.5106 15.3055 27.5104 15.2837 27.5162 15.2632C27.522 15.2427 27.5335 15.2242 27.5494 15.21C27.5653 15.1958 27.585 15.1865 27.606 15.183H27.605ZM20.377 15.744C20.3918 15.7442 20.4064 15.7472 20.42 15.753C20.4336 15.7588 20.4459 15.7672 20.4563 15.7777C20.4666 15.7882 20.4748 15.8007 20.4803 15.8144C20.4859 15.8281 20.4886 15.8428 20.4885 15.8575C20.4884 15.8723 20.4853 15.8869 20.4796 15.9005C20.4738 15.9141 20.4654 15.9265 20.4549 15.9368C20.4443 15.9472 20.4318 15.9553 20.4181 15.9609C20.4044 15.9664 20.3898 15.9692 20.375 15.969C20.3452 15.9688 20.3167 15.9567 20.2958 15.9354C20.2749 15.9141 20.2633 15.8854 20.2635 15.8555C20.2638 15.8257 20.2759 15.7972 20.2972 15.7763C20.3185 15.7554 20.3472 15.7438 20.377 15.744ZM27.627 15.744C27.6418 15.7442 27.6564 15.7472 27.67 15.753C27.6836 15.7588 27.6959 15.7672 27.7063 15.7777C27.7166 15.7882 27.7248 15.8007 27.7303 15.8144C27.7359 15.8281 27.7386 15.8428 27.7385 15.8575C27.7384 15.8723 27.7353 15.8869 27.7296 15.9005C27.7238 15.9141 27.7154 15.9265 27.7049 15.9368C27.6943 15.9472 27.6818 15.9553 27.6681 15.9609C27.6544 15.9664 27.6398 15.9692 27.625 15.969C27.5952 15.9688 27.5667 15.9567 27.5458 15.9354C27.5249 15.9141 27.5133 15.8854 27.5135 15.8555C27.5138 15.8257 27.5259 15.7972 27.5472 15.7763C27.5685 15.7554 27.5972 15.7438 27.627 15.744ZM16.619 16.795C17.0434 16.795 17.4503 16.9636 17.7504 17.2637C18.0504 17.5637 18.219 17.9707 18.219 18.395C18.219 18.8194 18.0504 19.2264 17.7504 19.5264C17.4503 19.8265 17.0434 19.995 16.619 19.995C16.2045 19.9804 15.8118 19.8054 15.5237 19.5069C15.2356 19.2085 15.0746 18.8099 15.0746 18.395C15.0746 17.9802 15.2356 17.5816 15.5237 17.2832C15.8118 16.9847 16.2045 16.8097 16.619 16.795ZM23.955 16.795C24.1684 16.7897 24.3808 16.8271 24.5795 16.9051C24.7782 16.9831 24.9593 17.1001 25.1122 17.2491C25.265 17.3982 25.3864 17.5763 25.4694 17.773C25.5523 17.9697 25.595 18.1811 25.595 18.3945C25.595 18.608 25.5523 18.8194 25.4694 19.0161C25.3864 19.2128 25.265 19.3909 25.1122 19.54C24.9593 19.689 24.7782 19.806 24.5795 19.884C24.3808 19.962 24.1684 19.9994 23.955 19.994C23.5307 19.994 23.1237 19.8255 22.8236 19.5254C22.5236 19.2254 22.355 18.8184 22.355 18.394C22.355 17.9697 22.5236 17.5627 22.8236 17.2627C23.1237 16.9626 23.5307 16.794 23.955 16.794V16.795ZM31.293 16.795C31.5064 16.7897 31.7188 16.8271 31.9175 16.9051C32.1162 16.9831 32.2973 17.1001 32.4502 17.2491C32.603 17.3982 32.7244 17.5763 32.8074 17.773C32.8903 17.9697 32.933 18.1811 32.933 18.3945C32.933 18.608 32.8903 18.8194 32.8074 19.0161C32.7244 19.2128 32.603 19.3909 32.4502 19.54C32.2973 19.689 32.1162 19.806 31.9175 19.884C31.7188 19.962 31.5064 19.9994 31.293 19.994C30.8687 19.994 30.4617 19.8255 30.1616 19.5254C29.8616 19.2254 29.693 18.8184 29.693 18.394C29.693 17.9697 29.8616 17.5627 30.1616 17.2627C30.4617 16.9626 30.8687 16.794 31.293 16.794V16.795ZM20.367 17.432C20.3823 17.431 20.3976 17.433 20.4121 17.4381C20.4266 17.4432 20.4398 17.4511 20.4511 17.4615C20.4623 17.4719 20.4713 17.4845 20.4775 17.4986C20.4837 17.5126 20.4869 17.5277 20.487 17.543C20.487 17.5729 20.4752 17.6015 20.4541 17.6226C20.433 17.6437 20.4044 17.6555 20.3745 17.6555C20.3447 17.6555 20.3161 17.6437 20.295 17.6226C20.2739 17.6015 20.262 17.5729 20.262 17.543C20.262 17.483 20.308 17.435 20.367 17.432ZM27.617 17.432C27.6323 17.431 27.6476 17.433 27.6621 17.4381C27.6766 17.4432 27.6898 17.4511 27.7011 17.4615C27.7123 17.4719 27.7213 17.4845 27.7275 17.4986C27.7337 17.5126 27.7369 17.5277 27.737 17.543C27.737 17.5729 27.7252 17.6015 27.7041 17.6226C27.683 17.6437 27.6544 17.6555 27.6245 17.6555C27.5947 17.6555 27.5661 17.6437 27.545 17.6226C27.5239 17.6015 27.512 17.5729 27.512 17.543C27.512 17.483 27.558 17.435 27.617 17.432ZM20.355 19.119H20.375C20.3972 19.1192 20.4188 19.126 20.4371 19.1385C20.4554 19.151 20.4696 19.1686 20.4779 19.1891C20.4862 19.2097 20.4882 19.2322 20.4837 19.2539C20.4791 19.2756 20.4683 19.2954 20.4525 19.3109C20.4367 19.3265 20.4166 19.337 20.3949 19.3411C20.3731 19.3452 20.3506 19.3428 20.3302 19.3341C20.3098 19.3255 20.2925 19.311 20.2803 19.2924C20.2682 19.2739 20.2618 19.2522 20.262 19.23C20.2615 19.2034 20.2706 19.1775 20.2877 19.1571C20.3048 19.1367 20.3287 19.1232 20.355 19.119ZM27.605 19.119H27.625C27.6472 19.1192 27.6688 19.126 27.6871 19.1385C27.7054 19.151 27.7196 19.1686 27.7279 19.1891C27.7362 19.2097 27.7382 19.2322 27.7337 19.2539C27.7291 19.2756 27.7183 19.2954 27.7025 19.3109C27.6867 19.3265 27.6666 19.337 27.6449 19.3411C27.6231 19.3452 27.6006 19.3428 27.5802 19.3341C27.5598 19.3255 27.5425 19.311 27.5303 19.2924C27.5182 19.2739 27.5118 19.2522 27.512 19.23C27.5115 19.2034 27.5206 19.1775 27.5377 19.1571C27.5548 19.1367 27.5787 19.1232 27.605 19.119ZM20.377 19.679C20.4069 19.6793 20.4354 19.6914 20.4563 19.7127C20.4772 19.734 20.4888 19.7627 20.4885 19.7925C20.4883 19.8224 20.4761 19.8509 20.4549 19.8718C20.4336 19.8927 20.4049 19.9043 20.375 19.904C20.3453 19.9038 20.3169 19.8917 20.2961 19.8705C20.2753 19.8493 20.2638 19.8208 20.264 19.791C20.2643 19.7613 20.2763 19.733 20.2975 19.7121C20.3187 19.6913 20.3473 19.6798 20.377 19.68V19.679ZM27.627 19.679C27.6569 19.6793 27.6854 19.6914 27.7063 19.7127C27.7272 19.734 27.7388 19.7627 27.7385 19.7925C27.7383 19.8224 27.7261 19.8509 27.7049 19.8718C27.6836 19.8927 27.6549 19.9043 27.625 19.904C27.5953 19.9038 27.5669 19.8917 27.5461 19.8705C27.5253 19.8493 27.5138 19.8208 27.514 19.791C27.5143 19.7613 27.5263 19.733 27.5475 19.7121C27.5687 19.6913 27.5973 19.6798 27.627 19.68V19.679ZM20.367 20.242H20.375C20.4044 20.2431 20.4321 20.2556 20.4523 20.2769C20.4725 20.2982 20.4835 20.3266 20.483 20.356C20.4825 20.3853 20.4704 20.4133 20.4495 20.4339C20.4286 20.4544 20.4004 20.466 20.371 20.466C20.3417 20.466 20.3135 20.4544 20.2925 20.4339C20.2716 20.4133 20.2596 20.3853 20.259 20.356C20.2585 20.3266 20.2695 20.2982 20.2897 20.2769C20.3099 20.2556 20.3377 20.2431 20.367 20.242ZM27.617 20.242H27.625C27.6544 20.2431 27.6821 20.2556 27.7023 20.2769C27.7225 20.2982 27.7335 20.3266 27.733 20.356C27.7325 20.3853 27.7204 20.4133 27.6995 20.4339C27.6786 20.4544 27.6504 20.466 27.621 20.466C27.5917 20.466 27.5635 20.4544 27.5425 20.4339C27.5216 20.4133 27.5096 20.3853 27.509 20.356C27.5085 20.3266 27.5195 20.2982 27.5397 20.2769C27.5599 20.2556 27.5877 20.2431 27.617 20.242ZM16.619 20.631C16.8338 20.6235 17.0478 20.6592 17.2485 20.7361C17.4491 20.8131 17.6322 20.9296 17.7868 21.0789C17.9414 21.2281 18.0643 21.4069 18.1483 21.6047C18.2323 21.8025 18.2756 22.0152 18.2756 22.23C18.2756 22.4449 18.2323 22.6576 18.1483 22.8554C18.0643 23.0532 17.9414 23.232 17.7868 23.3812C17.6322 23.5305 17.4491 23.647 17.2485 23.724C17.0478 23.8009 16.8338 23.8366 16.619 23.829C16.2047 23.8144 15.8123 23.6395 15.5244 23.3412C15.2365 23.043 15.0756 22.6446 15.0756 22.23C15.0756 21.8155 15.2365 21.4171 15.5244 21.1189C15.8123 20.8206 16.2047 20.6457 16.619 20.631ZM23.955 20.631C24.1698 20.6235 24.3838 20.6592 24.5845 20.7361C24.7851 20.8131 24.9682 20.9296 25.1228 21.0789C25.2774 21.2281 25.4003 21.4069 25.4843 21.6047C25.5683 21.8025 25.6116 22.0152 25.6116 22.23C25.6116 22.4449 25.5683 22.6576 25.4843 22.8554C25.4003 23.0532 25.2774 23.232 25.1228 23.3812C24.9682 23.5305 24.7851 23.647 24.5845 23.724C24.3838 23.8009 24.1698 23.8366 23.955 23.829C23.5407 23.8144 23.1483 23.6395 22.8604 23.3412C22.5725 23.043 22.4116 22.6446 22.4116 22.23C22.4116 21.8155 22.5725 21.4171 22.8604 21.1189C23.1483 20.8206 23.5407 20.6457 23.955 20.631ZM31.293 20.631C31.5064 20.6257 31.7188 20.6631 31.9175 20.7411C32.1162 20.8191 32.2973 20.9361 32.4502 21.0851C32.603 21.2342 32.7244 21.4123 32.8074 21.609C32.8903 21.8057 32.933 22.0171 32.933 22.2305C32.933 22.444 32.8903 22.6554 32.8074 22.8521C32.7244 23.0488 32.603 23.2269 32.4502 23.376C32.2973 23.525 32.1162 23.642 31.9175 23.72C31.7188 23.798 31.5064 23.8354 31.293 23.83C30.8687 23.83 30.4617 23.6615 30.1616 23.3614C29.8616 23.0614 29.693 22.6544 29.693 22.23C29.693 21.8057 29.8616 21.3987 30.1616 21.0987C30.4617 20.7986 30.8687 20.63 31.293 20.63V20.631ZM20.367 20.805H20.375C20.4044 20.8061 20.4321 20.8186 20.4523 20.8399C20.4725 20.8612 20.4835 20.8896 20.483 20.919C20.4825 20.9483 20.4704 20.9763 20.4495 20.9969C20.4286 21.0174 20.4004 21.029 20.371 21.029C20.3417 21.029 20.3135 21.0174 20.2925 20.9969C20.2716 20.9763 20.2596 20.9483 20.259 20.919C20.2585 20.8896 20.2695 20.8612 20.2897 20.8399C20.3099 20.8186 20.3377 20.8061 20.367 20.805ZM27.617 20.805H27.625C27.6544 20.8061 27.6821 20.8186 27.7023 20.8399C27.7225 20.8612 27.7335 20.8896 27.733 20.919C27.7325 20.9483 27.7204 20.9763 27.6995 20.9969C27.6786 21.0174 27.6504 21.029 27.621 21.029C27.5917 21.029 27.5635 21.0174 27.5425 20.9969C27.5216 20.9763 27.5096 20.9483 27.509 20.919C27.5085 20.8896 27.5195 20.8612 27.5397 20.8399C27.5599 20.8186 27.5877 20.8061 27.617 20.805ZM20.367 21.367H20.375C20.4044 21.3681 20.4321 21.3806 20.4523 21.4019C20.4725 21.4232 20.4835 21.4516 20.483 21.481C20.4825 21.5103 20.4704 21.5383 20.4495 21.5589C20.4286 21.5794 20.4004 21.591 20.371 21.591C20.3417 21.591 20.3135 21.5794 20.2925 21.5589C20.2716 21.5383 20.2596 21.5103 20.259 21.481C20.2585 21.4516 20.2695 21.4232 20.2897 21.4019C20.3099 21.3806 20.3377 21.3681 20.367 21.367ZM27.617 21.367H27.625C27.6544 21.3681 27.6821 21.3806 27.7023 21.4019C27.7225 21.4232 27.7335 21.4516 27.733 21.481C27.7325 21.5103 27.7204 21.5383 27.6995 21.5589C27.6786 21.5794 27.6504 21.591 27.621 21.591C27.5917 21.591 27.5635 21.5794 27.5425 21.5589C27.5216 21.5383 27.5096 21.5103 27.509 21.481C27.5085 21.4516 27.5195 21.4232 27.5397 21.4019C27.5599 21.3806 27.5877 21.3681 27.617 21.367ZM20.367 23.055H20.375C20.4044 23.0561 20.4321 23.0686 20.4523 23.0899C20.4725 23.1112 20.4835 23.1396 20.483 23.169C20.4825 23.1983 20.4704 23.2263 20.4495 23.2469C20.4286 23.2674 20.4004 23.279 20.371 23.279C20.3417 23.279 20.3135 23.2674 20.2925 23.2469C20.2716 23.2263 20.2596 23.1983 20.259 23.169C20.2585 23.1396 20.2695 23.1112 20.2897 23.0899C20.3099 23.0686 20.3377 23.0561 20.367 23.055ZM27.617 23.055H27.625C27.6544 23.0561 27.6821 23.0686 27.7023 23.0899C27.7225 23.1112 27.7335 23.1396 27.733 23.169C27.7325 23.1983 27.7204 23.2263 27.6995 23.2469C27.6786 23.2674 27.6504 23.279 27.621 23.279C27.5917 23.279 27.5635 23.2674 27.5425 23.2469C27.5216 23.2263 27.5096 23.1983 27.509 23.169C27.5085 23.1396 27.5195 23.1112 27.5397 23.0899C27.5599 23.0686 27.5877 23.0561 27.617 23.055ZM20.355 23.617H20.375C20.3972 23.6172 20.4188 23.624 20.4371 23.6365C20.4554 23.649 20.4696 23.6666 20.4779 23.6871C20.4862 23.7077 20.4882 23.7302 20.4837 23.7519C20.4791 23.7736 20.4683 23.7934 20.4525 23.8089C20.4367 23.8245 20.4166 23.835 20.3949 23.8391C20.3731 23.8432 20.3506 23.8408 20.3302 23.8321C20.3098 23.8235 20.2925 23.809 20.2803 23.7904C20.2682 23.7719 20.2618 23.7502 20.262 23.728C20.262 23.673 20.301 23.625 20.355 23.617ZM27.605 23.617H27.625C27.6472 23.6172 27.6688 23.624 27.6871 23.6365C27.7054 23.649 27.7196 23.6666 27.7279 23.6871C27.7362 23.7077 27.7382 23.7302 27.7337 23.7519C27.7291 23.7736 27.7183 23.7934 27.7025 23.8089C27.6867 23.8245 27.6666 23.835 27.6449 23.8391C27.6231 23.8432 27.6006 23.8408 27.5802 23.8321C27.5598 23.8235 27.5425 23.809 27.5303 23.7904C27.5182 23.7719 27.5118 23.7502 27.512 23.728C27.512 23.673 27.551 23.625 27.605 23.617ZM20.355 24.18H20.375C20.436 24.18 20.485 24.23 20.486 24.29C20.4861 24.3115 20.4801 24.3324 20.4686 24.3505C20.4572 24.3686 20.4408 24.383 20.4214 24.3921C20.402 24.4011 20.3804 24.4044 20.3592 24.4016C20.338 24.3988 20.318 24.3899 20.3017 24.3761C20.2853 24.3623 20.2733 24.344 20.267 24.3236C20.2607 24.3031 20.2604 24.2813 20.2661 24.2607C20.2718 24.24 20.2833 24.2215 20.2993 24.2072C20.3152 24.1929 20.3349 24.1835 20.356 24.18H20.355ZM27.605 24.18H27.625C27.686 24.18 27.735 24.23 27.736 24.29C27.7361 24.3115 27.7301 24.3324 27.7186 24.3505C27.7072 24.3686 27.6908 24.383 27.6714 24.3921C27.652 24.4011 27.6304 24.4044 27.6092 24.4016C27.588 24.3988 27.568 24.3899 27.5517 24.3761C27.5353 24.3623 27.5233 24.344 27.517 24.3236C27.5107 24.3031 27.5104 24.2813 27.5161 24.2607C27.5218 24.24 27.5333 24.2215 27.5493 24.2072C27.5652 24.1929 27.5849 24.1835 27.606 24.18H27.605ZM16.619 24.467C16.8338 24.4595 17.0478 24.4952 17.2485 24.5721C17.4491 24.6491 17.6322 24.7656 17.7868 24.9149C17.9414 25.0641 18.0643 25.2429 18.1483 25.4407C18.2323 25.6385 18.2756 25.8512 18.2756 26.066C18.2756 26.2809 18.2323 26.4936 18.1483 26.6914C18.0643 26.8892 17.9414 27.068 17.7868 27.2172C17.6322 27.3665 17.4491 27.483 17.2485 27.56C17.0478 27.6369 16.8338 27.6726 16.619 27.665C16.2047 27.6504 15.8123 27.4755 15.5244 27.1772C15.2365 26.879 15.0756 26.4806 15.0756 26.066C15.0756 25.6515 15.2365 25.2531 15.5244 24.9549C15.8123 24.6566 16.2047 24.4817 16.619 24.467ZM23.955 24.467C24.1684 24.4617 24.3808 24.4991 24.5795 24.5771C24.7782 24.6551 24.9593 24.7721 25.1122 24.9211C25.265 25.0702 25.3864 25.2483 25.4694 25.445C25.5523 25.6417 25.595 25.8531 25.595 26.0665C25.595 26.28 25.5523 26.4914 25.4694 26.6881C25.3864 26.8848 25.265 27.0629 25.1122 27.212C24.9593 27.361 24.7782 27.478 24.5795 27.556C24.3808 27.634 24.1684 27.6714 23.955 27.666C23.5307 27.666 23.1237 27.4975 22.8236 27.1974C22.5236 26.8974 22.355 26.4904 22.355 26.066C22.355 25.6417 22.5236 25.2347 22.8236 24.9347C23.1237 24.6346 23.5307 24.466 23.955 24.466V24.467ZM31.293 24.467C31.5064 24.4617 31.7188 24.4991 31.9175 24.5771C32.1162 24.6551 32.2973 24.7721 32.4502 24.9211C32.603 25.0702 32.7244 25.2483 32.8074 25.445C32.8903 25.6417 32.933 25.8531 32.933 26.0665C32.933 26.28 32.8903 26.4914 32.8074 26.6881C32.7244 26.8848 32.603 27.0629 32.4502 27.212C32.2973 27.361 32.1162 27.478 31.9175 27.556C31.7188 27.634 31.5064 27.6714 31.293 27.666C30.8687 27.666 30.4617 27.4975 30.1616 27.1974C29.8616 26.8974 29.693 26.4904 29.693 26.066C29.693 25.6417 29.8616 25.2347 30.1616 24.9347C30.4617 24.6346 30.8687 24.466 31.293 24.466V24.467ZM20.355 28.115H20.375C20.436 28.115 20.485 28.165 20.486 28.226C20.4861 28.2475 20.4801 28.2684 20.4686 28.2865C20.4572 28.3046 20.4408 28.319 20.4214 28.3281C20.402 28.3371 20.3804 28.3404 20.3592 28.3376C20.338 28.3348 20.318 28.3259 20.3017 28.3121C20.2853 28.2983 20.2733 28.28 20.267 28.2596C20.2607 28.2391 20.2604 28.2173 20.2661 28.1967C20.2718 28.176 20.2833 28.1575 20.2993 28.1432C20.3152 28.1289 20.3349 28.1195 20.356 28.116L20.355 28.115ZM27.605 28.115H27.625C27.686 28.115 27.735 28.165 27.736 28.226C27.7361 28.2475 27.7301 28.2684 27.7186 28.2865C27.7072 28.3046 27.6908 28.319 27.6714 28.3281C27.652 28.3371 27.6304 28.3404 27.6092 28.3376C27.588 28.3348 27.568 28.3259 27.5517 28.3121C27.5353 28.2983 27.5233 28.28 27.517 28.2596C27.5107 28.2391 27.5104 28.2173 27.5161 28.1967C27.5218 28.176 27.5333 28.1575 27.5493 28.1432C27.5652 28.1289 27.5849 28.1195 27.606 28.116L27.605 28.115ZM16.619 28.301C17.0336 28.3157 17.4263 28.4907 17.7143 28.7892C18.0024 29.0876 18.1634 29.4862 18.1634 29.901C18.1634 30.3159 18.0024 30.7145 17.7143 31.0129C17.4263 31.3114 17.0336 31.4864 16.619 31.501C16.1947 31.501 15.7877 31.3325 15.4876 31.0324C15.1876 30.7324 15.019 30.3254 15.019 29.901C15.019 29.4767 15.1876 29.0697 15.4876 28.7697C15.7877 28.4696 16.1947 28.301 16.619 28.301ZM23.955 28.301C24.3696 28.3157 24.7623 28.4907 25.0503 28.7892C25.3384 29.0876 25.4994 29.4862 25.4994 29.901C25.4994 30.3159 25.3384 30.7145 25.0503 31.0129C24.7623 31.3114 24.3696 31.4864 23.955 31.501C23.5307 31.501 23.1237 31.3325 22.8236 31.0324C22.5236 30.7324 22.355 30.3254 22.355 29.901C22.355 29.4767 22.5236 29.0697 22.8236 28.7697C23.1237 28.4696 23.5307 28.301 23.955 28.301ZM31.293 28.301C31.7076 28.3157 32.1003 28.4907 32.3883 28.7892C32.6764 29.0876 32.8374 29.4862 32.8374 29.901C32.8374 30.3159 32.6764 30.7145 32.3883 31.0129C32.1003 31.3114 31.7076 31.4864 31.293 31.501C30.8755 31.4906 30.4785 31.3174 30.1869 31.0184C29.8953 30.7194 29.732 30.3182 29.732 29.9005C29.732 29.4829 29.8953 29.0817 30.1869 28.7827C30.4785 28.4837 30.8755 28.3105 31.293 28.3V28.301ZM20.377 28.676C20.4067 28.6763 20.4351 28.6884 20.4559 28.7096C20.4767 28.7308 20.4883 28.7593 20.488 28.789C20.4878 28.8188 20.4757 28.8471 20.4545 28.868C20.4333 28.8888 20.4047 28.9003 20.375 28.9C20.3603 28.8999 20.3458 28.8969 20.3322 28.8911C20.3187 28.8854 20.3064 28.877 20.2961 28.8665C20.2858 28.856 20.2777 28.8436 20.2722 28.83C20.2667 28.8163 20.2639 28.8018 20.264 28.787C20.2641 28.7723 20.2672 28.7578 20.2729 28.7443C20.2787 28.7307 20.287 28.7185 20.2975 28.7081C20.308 28.6978 20.3204 28.6897 20.3341 28.6842C20.3477 28.6787 20.3623 28.6759 20.377 28.676ZM27.627 28.676C27.6567 28.6763 27.6851 28.6884 27.7059 28.7096C27.7267 28.7308 27.7383 28.7593 27.738 28.789C27.7378 28.8188 27.7257 28.8471 27.7045 28.868C27.6833 28.8888 27.6547 28.9003 27.625 28.9C27.6103 28.8999 27.5958 28.8969 27.5822 28.8911C27.5687 28.8854 27.5564 28.877 27.5461 28.8665C27.5358 28.856 27.5277 28.8436 27.5222 28.83C27.5167 28.8163 27.5139 28.8018 27.514 28.787C27.5141 28.7723 27.5172 28.7578 27.5229 28.7443C27.5287 28.7307 27.537 28.7185 27.5475 28.7081C27.558 28.6978 27.5704 28.6897 27.5841 28.6842C27.5977 28.6787 27.6123 28.6759 27.627 28.676ZM20.367 30.923C20.3824 30.9222 20.3978 30.9246 20.4123 30.9299C20.4267 30.9352 20.44 30.9433 20.4512 30.9539C20.4624 30.9645 20.4713 30.9772 20.4775 30.9913C20.4837 31.0054 20.4869 31.0206 20.487 31.036C20.487 31.0659 20.4752 31.0945 20.4541 31.1156C20.433 31.1367 20.4044 31.1485 20.3745 31.1485C20.3447 31.1485 20.3161 31.1367 20.295 31.1156C20.2739 31.0945 20.262 31.0659 20.262 31.036C20.262 30.978 20.308 30.927 20.367 30.924V30.923ZM27.617 30.923C27.6324 30.9222 27.6478 30.9246 27.6623 30.9299C27.6767 30.9352 27.69 30.9433 27.7012 30.9539C27.7124 30.9645 27.7213 30.9772 27.7275 30.9913C27.7337 31.0054 27.7369 31.0206 27.737 31.036C27.737 31.0659 27.7252 31.0945 27.7041 31.1156C27.683 31.1367 27.6544 31.1485 27.6245 31.1485C27.5947 31.1485 27.5661 31.1367 27.545 31.1156C27.5239 31.0945 27.512 31.0659 27.512 31.036C27.512 30.978 27.558 30.927 27.617 30.924V30.923ZM20.355 32.049H20.375C20.3972 32.0492 20.4188 32.056 20.4371 32.0685C20.4554 32.0809 20.4696 32.0986 20.4779 32.1191C20.4862 32.1397 20.4882 32.1622 20.4837 32.1839C20.4791 32.2056 20.4683 32.2254 20.4525 32.2409C20.4367 32.2565 20.4166 32.267 20.3949 32.2711C20.3731 32.2752 20.3506 32.2728 20.3302 32.2641C20.3098 32.2555 20.2925 32.241 20.2803 32.2224C20.2682 32.2039 20.2618 32.1822 20.262 32.16C20.262 32.105 20.301 32.056 20.355 32.049ZM27.605 32.049H27.625C27.6472 32.0492 27.6688 32.056 27.6871 32.0685C27.7054 32.0809 27.7196 32.0986 27.7279 32.1191C27.7362 32.1397 27.7382 32.1622 27.7337 32.1839C27.7291 32.2056 27.7183 32.2254 27.7025 32.2409C27.6867 32.2565 27.6666 32.267 27.6449 32.2711C27.6231 32.2752 27.6006 32.2728 27.5802 32.2641C27.5598 32.2555 27.5425 32.241 27.5303 32.2224C27.5182 32.2039 27.5118 32.1822 27.512 32.16C27.512 32.105 27.551 32.056 27.605 32.049ZM16.619 32.139C16.8338 32.1315 17.0478 32.1672 17.2485 32.2441C17.4491 32.3211 17.6322 32.4376 17.7868 32.5869C17.9414 32.7361 18.0643 32.9149 18.1483 33.1127C18.2323 33.3105 18.2756 33.5232 18.2756 33.738C18.2756 33.9529 18.2323 34.1656 18.1483 34.3634C18.0643 34.5612 17.9414 34.74 17.7868 34.8892C17.6322 35.0385 17.4491 35.155 17.2485 35.232C17.0478 35.3089 16.8338 35.3446 16.619 35.337C16.2017 35.3266 15.805 35.1535 15.5136 34.8547C15.2221 34.5559 15.059 34.155 15.059 33.7375C15.059 33.3201 15.2221 32.9192 15.5136 32.6204C15.805 32.3216 16.2017 32.1485 16.619 32.138V32.139ZM23.955 32.139C24.1698 32.1315 24.3838 32.1672 24.5845 32.2441C24.7851 32.3211 24.9682 32.4376 25.1228 32.5869C25.2774 32.7361 25.4003 32.9149 25.4843 33.1127C25.5683 33.3105 25.6116 33.5232 25.6116 33.738C25.6116 33.9529 25.5683 34.1656 25.4843 34.3634C25.4003 34.5612 25.2774 34.74 25.1228 34.8892C24.9682 35.0385 24.7851 35.155 24.5845 35.232C24.3838 35.3089 24.1698 35.3446 23.955 35.337C23.5377 35.3266 23.141 35.1535 22.8496 34.8547C22.5581 34.5559 22.395 34.155 22.395 33.7375C22.395 33.3201 22.5581 32.9192 22.8496 32.6204C23.141 32.3216 23.5377 32.1485 23.955 32.138V32.139ZM31.293 32.139C31.5078 32.1315 31.7218 32.1672 31.9225 32.2441C32.1231 32.3211 32.3062 32.4376 32.4608 32.5869C32.6154 32.7361 32.7383 32.9149 32.8223 33.1127C32.9063 33.3105 32.9496 33.5232 32.9496 33.738C32.9496 33.9529 32.9063 34.1656 32.8223 34.3634C32.7383 34.5612 32.6154 34.74 32.4608 34.8892C32.3062 35.0385 32.1231 35.155 31.9225 35.232C31.7218 35.3089 31.5078 35.3446 31.293 35.337C30.8757 35.3266 30.479 35.1535 30.1876 34.8547C29.8961 34.5559 29.733 34.155 29.733 33.7375C29.733 33.3201 29.8961 32.9192 30.1876 32.6204C30.479 32.3216 30.8757 32.1485 31.293 32.138V32.139ZM20.355 32.611H20.375C20.436 32.611 20.485 32.661 20.486 32.722C20.4859 32.7434 20.4797 32.7643 20.4682 32.7823C20.4566 32.8002 20.4401 32.8145 20.4207 32.8234C20.4013 32.8323 20.3797 32.8355 20.3586 32.8325C20.3374 32.8296 20.3175 32.8206 20.3013 32.8068C20.285 32.7929 20.2731 32.7747 20.2669 32.7542C20.2607 32.7338 20.2604 32.712 20.2662 32.6914C20.2719 32.6709 20.2834 32.6524 20.2993 32.6381C20.3153 32.6239 20.3349 32.6145 20.356 32.611H20.355ZM27.605 32.611H27.625C27.686 32.611 27.735 32.661 27.736 32.722C27.7359 32.7434 27.7297 32.7643 27.7182 32.7823C27.7066 32.8002 27.6901 32.8145 27.6707 32.8234C27.6513 32.8323 27.6297 32.8355 27.6086 32.8325C27.5874 32.8296 27.5675 32.8206 27.5513 32.8068C27.535 32.7929 27.5231 32.7747 27.5169 32.7542C27.5107 32.7338 27.5104 32.712 27.5162 32.6914C27.5219 32.6709 27.5334 32.6524 27.5493 32.6381C27.5653 32.6239 27.5849 32.6145 27.606 32.611H27.605ZM20.377 33.171C20.439 33.173 20.489 33.225 20.488 33.287C20.488 33.3016 20.4851 33.316 20.4795 33.3294C20.474 33.3428 20.4658 33.355 20.4554 33.3652C20.4451 33.3754 20.4329 33.3835 20.4194 33.389C20.406 33.3944 20.3915 33.3972 20.377 33.397C20.3623 33.3974 20.3477 33.3949 20.334 33.3896C20.3203 33.3842 20.3078 33.3762 20.2973 33.3659C20.2868 33.3557 20.2784 33.3434 20.2727 33.3298C20.267 33.3163 20.264 33.3017 20.264 33.287C20.264 33.224 20.314 33.171 20.377 33.172V33.171ZM27.627 33.171C27.689 33.173 27.739 33.225 27.738 33.287C27.738 33.3016 27.7351 33.316 27.7295 33.3294C27.724 33.3428 27.7158 33.355 27.7054 33.3652C27.6951 33.3754 27.6829 33.3835 27.6694 33.389C27.656 33.3944 27.6415 33.3972 27.627 33.397C27.6123 33.3974 27.5977 33.3949 27.584 33.3896C27.5703 33.3842 27.5578 33.3762 27.5473 33.3659C27.5368 33.3557 27.5284 33.3434 27.5227 33.3298C27.517 33.3163 27.514 33.3017 27.514 33.287C27.514 33.224 27.564 33.171 27.627 33.172V33.171ZM20.367 33.734H20.375C20.4044 33.7351 20.4321 33.7476 20.4523 33.7689C20.4725 33.7902 20.4835 33.8186 20.483 33.848C20.4825 33.8773 20.4704 33.9053 20.4495 33.9259C20.4286 33.9464 20.4004 33.958 20.371 33.958C20.3417 33.958 20.3135 33.9464 20.2925 33.9259C20.2716 33.9053 20.2596 33.8773 20.259 33.848C20.2585 33.8186 20.2695 33.7902 20.2897 33.7689C20.3099 33.7476 20.3377 33.7351 20.367 33.734ZM27.617 33.734H27.625C27.6544 33.7351 27.6821 33.7476 27.7023 33.7689C27.7225 33.7902 27.7335 33.8186 27.733 33.848C27.7325 33.8773 27.7204 33.9053 27.6995 33.9259C27.6786 33.9464 27.6504 33.958 27.621 33.958C27.5917 33.958 27.5635 33.9464 27.5425 33.9259C27.5216 33.9053 27.5096 33.8773 27.509 33.848C27.5085 33.8186 27.5195 33.7902 27.5397 33.7689C27.5599 33.7476 27.5877 33.7351 27.617 33.734ZM16.699 35.976C17.585 35.976 18.305 36.692 18.305 37.572C18.3042 37.7822 18.2621 37.9901 18.1809 38.1839C18.0998 38.3777 17.9813 38.5536 17.8321 38.7017C17.683 38.8497 17.5062 38.9669 17.3118 39.0466C17.1173 39.1262 16.9091 39.1668 16.699 39.166C16.4891 39.1667 16.2811 39.126 16.0869 39.0462C15.8927 38.9665 15.7161 38.8492 15.5672 38.7012C15.4184 38.5532 15.3001 38.3772 15.2193 38.1835C15.1384 37.9898 15.0965 37.782 15.096 37.572C15.0971 37.1479 15.2665 36.7415 15.5671 36.4422C15.8677 36.1429 16.2748 35.9753 16.699 35.976ZM24.035 35.976C24.921 35.976 25.641 36.692 25.641 37.572C25.6402 37.7822 25.5981 37.9901 25.5169 38.1839C25.4358 38.3777 25.3173 38.5536 25.1681 38.7017C25.019 38.8497 24.8422 38.9669 24.6478 39.0466C24.4533 39.1262 24.2451 39.1668 24.035 39.166C23.6111 39.1671 23.2041 38.9998 22.9035 38.7009C22.6029 38.402 22.4333 37.996 22.432 37.572C22.4331 37.1479 22.6025 36.7415 22.9031 36.4422C23.2037 36.1429 23.6108 35.9753 24.035 35.976ZM31.373 35.976C32.259 35.976 32.978 36.692 32.978 37.572C32.9764 37.9962 32.8065 38.4024 32.5055 38.7013C32.2045 39.0002 31.7972 39.1674 31.373 39.166C31.163 39.1668 30.9549 39.1262 30.7606 39.0465C30.5663 38.9668 30.3896 38.8496 30.2406 38.7015C30.0916 38.5535 29.9733 38.3775 29.8924 38.1837C29.8115 37.9899 29.7695 37.7821 29.769 37.572C29.7695 37.3619 29.8114 37.154 29.8923 36.9601C29.9732 36.7661 30.0915 36.59 30.2405 36.4418C30.3894 36.2936 30.5661 36.1762 30.7604 36.0963C30.9547 36.0164 31.1629 35.9755 31.373 35.976ZM20.355 37.109H20.375C20.436 37.11 20.485 37.159 20.486 37.22C20.4861 37.2415 20.4801 37.2624 20.4686 37.2805C20.4572 37.2986 20.4408 37.313 20.4214 37.3221C20.402 37.3311 20.3804 37.3344 20.3592 37.3316C20.338 37.3288 20.318 37.3199 20.3017 37.3061C20.2853 37.2923 20.2733 37.274 20.267 37.2536C20.2607 37.2331 20.2604 37.2113 20.2661 37.1907C20.2718 37.17 20.2833 37.1515 20.2993 37.1372C20.3152 37.1229 20.3349 37.1135 20.356 37.11L20.355 37.109ZM27.605 37.109H27.625C27.686 37.11 27.735 37.159 27.736 37.22C27.7361 37.2415 27.7301 37.2624 27.7186 37.2805C27.7072 37.2986 27.6908 37.313 27.6714 37.3221C27.652 37.3311 27.6304 37.3344 27.6092 37.3316C27.588 37.3288 27.568 37.3199 27.5517 37.3061C27.5353 37.2923 27.5233 37.274 27.517 37.2536C27.5107 37.2331 27.5104 37.2113 27.5161 37.1907C27.5218 37.17 27.5333 37.1515 27.5493 37.1372C27.5652 37.1229 27.5849 37.1135 27.606 37.11L27.605 37.109ZM16.699 39.727C17.585 39.727 18.305 40.442 18.305 41.322C18.3042 41.5322 18.2621 41.7401 18.1809 41.9339C18.0998 42.1277 17.9813 42.3036 17.8321 42.4517C17.683 42.5997 17.5062 42.7169 17.3118 42.7966C17.1173 42.8762 16.9091 42.9168 16.699 42.916C16.4891 42.9167 16.2811 42.876 16.0869 42.7962C15.8927 42.7165 15.7161 42.5992 15.5672 42.4512C15.4184 42.3032 15.3001 42.1272 15.2193 41.9335C15.1384 41.7398 15.0965 41.532 15.096 41.322C15.0971 40.8979 15.2665 40.4915 15.5671 40.1922C15.8677 39.8929 16.2748 39.7253 16.699 39.726V39.727ZM24.035 39.727C24.921 39.727 25.641 40.442 25.641 41.322C25.6402 41.5322 25.5981 41.7401 25.5169 41.9339C25.4358 42.1277 25.3173 42.3036 25.1681 42.4517C25.019 42.5997 24.8422 42.7169 24.6478 42.7966C24.4533 42.8762 24.2451 42.9168 24.035 42.916C23.6111 42.9171 23.2041 42.7498 22.9035 42.4509C22.6029 42.152 22.4333 41.746 22.432 41.322C22.4331 40.8979 22.6025 40.4915 22.9031 40.1922C23.2037 39.8929 23.6108 39.7253 24.035 39.726V39.727ZM31.373 39.727C32.259 39.727 32.978 40.442 32.978 41.322C32.9764 41.7462 32.8065 42.1524 32.5055 42.4513C32.2045 42.7502 31.7972 42.9174 31.373 42.916C31.163 42.9168 30.9549 42.8762 30.7606 42.7965C30.5663 42.7168 30.3896 42.5996 30.2406 42.4515C30.0916 42.3035 29.9733 42.1275 29.8924 41.9337C29.8115 41.7399 29.7695 41.5321 29.769 41.322C29.7695 41.1119 29.8114 40.904 29.8923 40.7101C29.9732 40.5161 30.0915 40.34 30.2405 40.1918C30.3894 40.0436 30.5661 39.9262 30.7604 39.8463C30.9547 39.7664 31.1629 39.7255 31.373 39.726V39.727ZM20.355 41.045H20.375C20.3972 41.0452 20.4188 41.052 20.4371 41.0645C20.4554 41.0769 20.4696 41.0946 20.4779 41.1151C20.4862 41.1356 20.4882 41.1582 20.4837 41.1799C20.4791 41.2016 20.4683 41.2214 20.4525 41.2369C20.4367 41.2525 20.4166 41.263 20.3949 41.2671C20.3731 41.2712 20.3506 41.2688 20.3302 41.2601C20.3098 41.2515 20.2925 41.237 20.2803 41.2184C20.2682 41.1999 20.2618 41.1782 20.262 41.156C20.2615 41.1294 20.2706 41.1035 20.2877 41.0831C20.3048 41.0627 20.3287 41.0492 20.355 41.045ZM27.605 41.045H27.625C27.6472 41.0452 27.6688 41.052 27.6871 41.0645C27.7054 41.0769 27.7196 41.0946 27.7279 41.1151C27.7362 41.1356 27.7382 41.1582 27.7337 41.1799C27.7291 41.2016 27.7183 41.2214 27.7025 41.2369C27.6867 41.2525 27.6666 41.263 27.6449 41.2671C27.6231 41.2712 27.6006 41.2688 27.5802 41.2601C27.5598 41.2515 27.5425 41.237 27.5303 41.2184C27.5182 41.1999 27.5118 41.1782 27.512 41.156C27.5115 41.1294 27.5206 41.1035 27.5377 41.0831C27.5548 41.0627 27.5787 41.0492 27.605 41.045ZM20.355 41.607H20.375C20.436 41.608 20.485 41.657 20.486 41.719C20.486 41.78 20.436 41.829 20.375 41.829C20.3455 41.8293 20.317 41.8179 20.2959 41.7973C20.2747 41.7767 20.2625 41.7486 20.262 41.719C20.2612 41.6923 20.2702 41.6661 20.2873 41.6455C20.3045 41.6248 20.3285 41.6112 20.355 41.607ZM27.605 41.607H27.625C27.686 41.608 27.735 41.657 27.736 41.719C27.736 41.78 27.686 41.829 27.625 41.829C27.5955 41.8293 27.567 41.8179 27.5459 41.7973C27.5247 41.7767 27.5125 41.7486 27.512 41.719C27.5112 41.6923 27.5202 41.6661 27.5373 41.6455C27.5545 41.6248 27.5785 41.6112 27.605 41.607ZM20.377 42.167C20.4069 42.1673 20.4354 42.1794 20.4563 42.2007C20.4772 42.222 20.4888 42.2507 20.4885 42.2805C20.4883 42.3104 20.4761 42.3389 20.4549 42.3598C20.4336 42.3807 20.4049 42.3923 20.375 42.392C20.3453 42.3918 20.3169 42.3797 20.2961 42.3585C20.2753 42.3373 20.2638 42.3088 20.264 42.279C20.2643 42.2493 20.2763 42.221 20.2975 42.2001C20.3187 42.1793 20.3473 42.1678 20.377 42.168V42.167ZM27.627 42.167C27.6569 42.1673 27.6854 42.1794 27.7063 42.2007C27.7272 42.222 27.7388 42.2507 27.7385 42.2805C27.7383 42.3104 27.7261 42.3389 27.7049 42.3598C27.6836 42.3807 27.6549 42.3923 27.625 42.392C27.5953 42.3918 27.5669 42.3797 27.5461 42.3585C27.5253 42.3373 27.5138 42.3088 27.514 42.279C27.5143 42.2493 27.5263 42.221 27.5475 42.2001C27.5687 42.1793 27.5973 42.1678 27.627 42.168V42.167Z" fill="#333333"/>
</svg>
