<svg width="48" height="48" viewBox="0 0 48 48" fill="none" xmlns="http://www.w3.org/2000/svg">
<path d="M14.41 4.10009C13.54 4.10009 12.84 4.80009 12.84 5.66009V42.5201C12.84 43.3901 13.54 44.0901 14.41 44.0901H34.11C34.99 44.0901 35.69 43.3901 35.69 42.5201V5.66009C35.69 4.79009 34.99 4.09009 34.12 4.09009H14.42L14.41 4.10009ZM18.93 9.22009C19.1181 9.21628 19.3031 9.26842 19.4615 9.3699C19.62 9.47138 19.7447 9.61762 19.82 9.79009C19.895 9.96346 19.916 10.1554 19.8804 10.3409C19.8447 10.5264 19.7539 10.6969 19.62 10.8301L17.82 12.6901C17.6909 12.8296 17.5226 12.9267 17.3373 12.9686C17.1519 13.0106 16.9582 12.9953 16.7817 12.9249C16.6052 12.8546 16.4542 12.7323 16.3485 12.5744C16.2429 12.4164 16.1876 12.2301 16.19 12.0401C16.1886 11.9161 16.2117 11.7931 16.258 11.6781C16.3044 11.5631 16.373 11.4584 16.46 11.3701L18.26 9.51009C18.3467 9.41951 18.4506 9.34719 18.5657 9.29739C18.6807 9.24758 18.8046 9.2213 18.93 9.22009ZM22.04 9.22009C22.2281 9.21628 22.4131 9.26842 22.5715 9.3699C22.73 9.47138 22.8547 9.61762 22.93 9.79009C23.005 9.96346 23.026 10.1554 22.9904 10.3409C22.9547 10.5264 22.8639 10.6969 22.73 10.8301L20.93 12.6901C20.8219 12.8036 20.6872 12.8883 20.5381 12.9365C20.389 12.9846 20.2302 12.9948 20.0762 12.966C19.9222 12.9372 19.7778 12.8703 19.6562 12.7715C19.5346 12.6726 19.4397 12.545 19.38 12.4001C19.3059 12.2289 19.2844 12.0396 19.3182 11.8562C19.3521 11.6728 19.4397 11.5036 19.57 11.3701L21.37 9.51009C21.4567 9.41951 21.5606 9.34719 21.6757 9.29739C21.7907 9.24758 21.9146 9.2213 22.04 9.22009ZM25.15 9.22009C25.3381 9.21628 25.5231 9.26842 25.6815 9.3699C25.84 9.47138 25.9647 9.61762 26.04 9.79009C26.1162 9.9625 26.1389 10.1539 26.105 10.3393C26.0711 10.5248 25.9823 10.6958 25.85 10.8301L24.05 12.6901C23.9421 12.8059 23.8068 12.8926 23.6565 12.9421C23.5062 12.9917 23.3459 13.0025 23.1903 12.9736C23.0347 12.9447 22.889 12.8769 22.7666 12.7767C22.6441 12.6764 22.549 12.5469 22.49 12.4001C22.4159 12.2289 22.3944 12.0396 22.4282 11.8562C22.4621 11.6728 22.5497 11.5036 22.68 11.3701L24.48 9.51009C24.5667 9.41951 24.6706 9.34719 24.7857 9.29739C24.9007 9.24758 25.0246 9.2213 25.15 9.22009ZM28.27 9.22009C28.4567 9.21694 28.6401 9.26948 28.7968 9.371C28.9535 9.47252 29.0765 9.61842 29.15 9.79009C29.2262 9.9625 29.2489 10.1539 29.215 10.3393C29.1811 10.5248 29.0923 10.6958 28.96 10.8301L27.16 12.6901C27.0521 12.8059 26.9168 12.8926 26.7665 12.9421C26.6162 12.9917 26.4559 13.0025 26.3003 12.9736C26.1447 12.9447 25.999 12.8769 25.8766 12.7767C25.7541 12.6764 25.659 12.5469 25.6 12.4001C25.5271 12.228 25.5073 12.0381 25.5429 11.8546C25.5785 11.6711 25.668 11.5024 25.8 11.3701L27.6 9.51009C27.6867 9.41951 27.7906 9.34719 27.9057 9.29739C28.0207 9.24758 28.1446 9.2213 28.27 9.22009ZM31.37 9.22009C31.5598 9.21427 31.747 9.26546 31.9074 9.36706C32.0678 9.46867 32.1941 9.61601 32.27 9.79009C32.345 9.96346 32.366 10.1554 32.3304 10.3409C32.2947 10.5264 32.2039 10.6969 32.07 10.8301L30.27 12.6901C30.1621 12.8059 30.0268 12.8926 29.8765 12.9421C29.7262 12.9917 29.5659 13.0025 29.4103 12.9736C29.2547 12.9447 29.109 12.8769 28.9866 12.7767C28.8641 12.6764 28.769 12.5469 28.71 12.4001C28.6371 12.228 28.6173 12.0381 28.6529 11.8546C28.6885 11.6711 28.778 11.5024 28.91 11.3701L30.71 9.51009C30.7967 9.41951 30.9006 9.34719 31.0157 9.29739C31.1307 9.24758 31.2546 9.2213 31.38 9.22009H31.37ZM13.87 14.0401C13.8939 14.0385 13.9177 14.0449 13.9378 14.0581C13.9578 14.0714 13.9729 14.0909 13.9809 14.1135C13.9888 14.1362 13.9891 14.1608 13.9817 14.1837C13.9743 14.2065 13.9597 14.2263 13.94 14.2401C13.9169 14.2569 13.8882 14.264 13.86 14.2601C13.8326 14.2576 13.8071 14.2449 13.7886 14.2245C13.7701 14.2042 13.7599 14.1776 13.76 14.1501C13.76 14.0901 13.8 14.0401 13.86 14.0401H13.87ZM14.43 14.0401C14.4565 14.0401 14.4819 14.0506 14.5007 14.0694C14.5194 14.0881 14.53 14.1136 14.53 14.1401V14.1501C14.53 14.2101 14.49 14.2601 14.43 14.2601C14.4147 14.2615 14.3993 14.2597 14.3848 14.2548C14.3703 14.2499 14.3569 14.242 14.3456 14.2316C14.3343 14.2213 14.3253 14.2087 14.3192 14.1946C14.313 14.1806 14.3099 14.1654 14.31 14.1501C14.31 14.0901 14.36 14.0401 14.43 14.0401ZM14.99 14.0401C15.0175 14.04 15.0441 14.0502 15.0644 14.0687C15.0848 14.0872 15.0975 14.1127 15.1 14.1401V14.1501C15.1 14.2101 15.05 14.2601 14.99 14.2601C14.9747 14.2615 14.9593 14.2597 14.9448 14.2548C14.9303 14.2499 14.9169 14.242 14.9056 14.2316C14.8943 14.2213 14.8853 14.2087 14.8792 14.1946C14.873 14.1806 14.8699 14.1654 14.87 14.1501C14.87 14.0901 14.93 14.0401 14.99 14.0401ZM15.55 14.0401C15.61 14.0401 15.65 14.0801 15.66 14.1401V14.1501C15.66 14.2101 15.61 14.2601 15.56 14.2601C15.5437 14.2621 15.5271 14.2605 15.5116 14.2553C15.496 14.2501 15.4818 14.2415 15.47 14.2301C15.4599 14.2194 15.452 14.2069 15.4469 14.1931C15.4417 14.1794 15.4394 14.1647 15.44 14.1501C15.44 14.0901 15.49 14.0401 15.55 14.0401ZM16.11 14.0401C16.17 14.0401 16.22 14.0801 16.23 14.1401V14.1501C16.23 14.2101 16.18 14.2601 16.11 14.2601C16.0808 14.2601 16.0528 14.2485 16.0322 14.2279C16.0116 14.2072 16 14.1793 16 14.1501C16 14.0901 16.05 14.0401 16.11 14.0401ZM16.68 14.0401C16.74 14.0401 16.78 14.0801 16.78 14.1401V14.1501C16.78 14.2101 16.74 14.2601 16.68 14.2601C16.6647 14.2615 16.6493 14.2597 16.6348 14.2548C16.6203 14.2499 16.6069 14.242 16.5956 14.2316C16.5843 14.2213 16.5753 14.2087 16.5692 14.1946C16.563 14.1806 16.5599 14.1654 16.56 14.1501C16.56 14.0901 16.61 14.0401 16.68 14.0401ZM17.24 14.0401C17.3 14.0401 17.34 14.0801 17.35 14.1401V14.1501C17.35 14.1793 17.3384 14.2072 17.3177 14.2279C17.2971 14.2485 17.2691 14.2601 17.24 14.2601C17.2108 14.2601 17.1828 14.2485 17.1622 14.2279C17.1416 14.2072 17.13 14.1793 17.13 14.1501C17.13 14.0901 17.18 14.0401 17.23 14.0401H17.24ZM17.8 14.0401C17.86 14.0401 17.9 14.0801 17.91 14.1401V14.1501C17.91 14.1793 17.8984 14.2072 17.8777 14.2279C17.8571 14.2485 17.8291 14.2601 17.8 14.2601C17.7708 14.2601 17.7428 14.2485 17.7222 14.2279C17.7016 14.2072 17.69 14.1793 17.69 14.1501C17.69 14.0901 17.74 14.0401 17.79 14.0401H17.8ZM18.36 14.0401C18.42 14.0401 18.47 14.0801 18.48 14.1401V14.1501C18.48 14.1654 18.4769 14.1806 18.4707 14.1946C18.4646 14.2087 18.4556 14.2213 18.4443 14.2316C18.433 14.242 18.4197 14.2499 18.4051 14.2548C18.3906 14.2597 18.3752 14.2615 18.36 14.2601C18.3308 14.2601 18.3028 14.2485 18.2822 14.2279C18.2616 14.2072 18.25 14.1793 18.25 14.1501C18.25 14.0901 18.3 14.0401 18.36 14.0401ZM18.92 14.0401C18.9339 14.0387 18.948 14.0402 18.9613 14.0446C18.9746 14.049 18.9869 14.0562 18.9972 14.0656C19.0076 14.075 19.0159 14.0865 19.0215 14.0994C19.0272 14.1122 19.03 14.1261 19.03 14.1401V14.1501C19.03 14.2101 18.98 14.2601 18.93 14.2601C18.9147 14.2615 18.8993 14.2597 18.8848 14.2548C18.8703 14.2499 18.8569 14.242 18.8456 14.2316C18.8343 14.2213 18.8253 14.2087 18.8192 14.1946C18.813 14.1806 18.8099 14.1654 18.81 14.1501C18.81 14.0901 18.86 14.0401 18.92 14.0401ZM19.49 14.0401C19.55 14.0401 19.59 14.0801 19.59 14.1401V14.1501C19.59 14.2101 19.55 14.2601 19.49 14.2601C19.4747 14.2615 19.4593 14.2597 19.4448 14.2548C19.4303 14.2499 19.4169 14.242 19.4056 14.2316C19.3943 14.2213 19.3853 14.2087 19.3792 14.1946C19.373 14.1806 19.3699 14.1654 19.37 14.1501C19.37 14.0901 19.42 14.0401 19.49 14.0401ZM20.05 14.0401C20.11 14.0401 20.15 14.0801 20.16 14.1401V14.1501C20.16 14.2101 20.11 14.2601 20.05 14.2601C20.0208 14.2601 19.9928 14.2485 19.9722 14.2279C19.9516 14.2072 19.94 14.1793 19.94 14.1501C19.94 14.0901 19.99 14.0401 20.04 14.0401H20.05ZM20.61 14.0401C20.67 14.0401 20.71 14.0801 20.72 14.1401V14.1501C20.72 14.2101 20.67 14.2601 20.62 14.2601C20.6047 14.2615 20.5893 14.2597 20.5748 14.2548C20.5603 14.2499 20.5469 14.242 20.5356 14.2316C20.5243 14.2213 20.5153 14.2087 20.5092 14.1946C20.503 14.1806 20.4999 14.1654 20.5 14.1501C20.5 14.0901 20.55 14.0401 20.61 14.0401ZM21.17 14.0401C21.23 14.0401 21.28 14.0801 21.28 14.1401V14.1501C21.28 14.2101 21.23 14.2601 21.18 14.2601C21.1647 14.2615 21.1493 14.2597 21.1348 14.2548C21.1203 14.2499 21.1069 14.242 21.0956 14.2316C21.0843 14.2213 21.0753 14.2087 21.0692 14.1946C21.063 14.1806 21.0599 14.1654 21.06 14.1501C21.06 14.0901 21.11 14.0401 21.17 14.0401ZM21.73 14.0401C21.79 14.0401 21.84 14.0801 21.85 14.1401V14.1501C21.85 14.1654 21.8469 14.1806 21.8407 14.1946C21.8346 14.2087 21.8256 14.2213 21.8143 14.2316C21.803 14.242 21.7897 14.2499 21.7751 14.2548C21.7606 14.2597 21.7452 14.2615 21.73 14.2601C21.7026 14.2576 21.6771 14.2449 21.6586 14.2245C21.6401 14.2042 21.6299 14.1776 21.63 14.1501C21.63 14.0901 21.67 14.0401 21.73 14.0401ZM22.3 14.0401C22.36 14.0401 22.4 14.0801 22.41 14.1401V14.1501C22.41 14.1793 22.3984 14.2072 22.3777 14.2279C22.3571 14.2485 22.3291 14.2601 22.3 14.2601C22.2708 14.2601 22.2428 14.2485 22.2222 14.2279C22.2016 14.2072 22.19 14.1793 22.19 14.1501C22.19 14.0901 22.23 14.0401 22.29 14.0401H22.3ZM22.86 14.0401C22.8849 14.0357 22.9105 14.04 22.9326 14.0522C22.9547 14.0645 22.9719 14.0841 22.9813 14.1075C22.9907 14.131 22.9917 14.157 22.9842 14.1812C22.9767 14.2053 22.961 14.2261 22.94 14.2401C22.9169 14.2569 22.8882 14.264 22.86 14.2601C22.8308 14.2601 22.8028 14.2485 22.7822 14.2279C22.7616 14.2072 22.75 14.1793 22.75 14.1501C22.75 14.0901 22.8 14.0401 22.85 14.0401H22.86ZM23.42 14.0401C23.48 14.0401 23.52 14.0801 23.53 14.1401V14.1501C23.53 14.2101 23.48 14.2601 23.43 14.2601C23.4147 14.2615 23.3993 14.2597 23.3848 14.2548C23.3703 14.2499 23.3569 14.242 23.3456 14.2316C23.3343 14.2213 23.3253 14.2087 23.3192 14.1946C23.313 14.1806 23.3099 14.1654 23.31 14.1501C23.31 14.0901 23.36 14.0401 23.42 14.0401ZM23.98 14.0401C23.9944 14.0387 24.009 14.0402 24.0229 14.0445C24.0368 14.0488 24.0496 14.0558 24.0608 14.0651C24.072 14.0744 24.0812 14.0858 24.0879 14.0987C24.0946 14.1115 24.0987 14.1256 24.1 14.1401V14.1501C24.1 14.2101 24.05 14.2601 23.98 14.2601C23.9526 14.2576 23.9271 14.2449 23.9086 14.2245C23.8901 14.2042 23.8799 14.1776 23.88 14.1501C23.88 14.0901 23.92 14.0401 23.98 14.0401ZM24.55 14.0401C24.61 14.0401 24.65 14.0801 24.65 14.1401V14.1501C24.65 14.2101 24.61 14.2601 24.55 14.2601C24.5347 14.2615 24.5193 14.2597 24.5048 14.2548C24.4903 14.2499 24.4769 14.242 24.4656 14.2316C24.4543 14.2213 24.4453 14.2087 24.4392 14.1946C24.433 14.1806 24.4299 14.1654 24.43 14.1501C24.43 14.0901 24.48 14.0401 24.55 14.0401ZM25.11 14.0401C25.17 14.0401 25.21 14.0801 25.22 14.1401V14.1501C25.22 14.2101 25.17 14.2601 25.11 14.2601C25.0808 14.2601 25.0528 14.2485 25.0322 14.2279C25.0116 14.2072 25 14.1793 25 14.1501C25 14.0901 25.05 14.0401 25.1 14.0401H25.11ZM25.67 14.0401C25.73 14.0401 25.77 14.0801 25.78 14.1401V14.1501C25.78 14.1793 25.7684 14.2072 25.7477 14.2279C25.7271 14.2485 25.6991 14.2601 25.67 14.2601C25.6408 14.2601 25.6128 14.2485 25.5922 14.2279C25.5716 14.2072 25.56 14.1793 25.56 14.1501C25.56 14.0901 25.61 14.0401 25.66 14.0401H25.67ZM26.23 14.0401C26.29 14.0401 26.34 14.0801 26.35 14.1401V14.1501C26.35 14.1654 26.3469 14.1806 26.3407 14.1946C26.3346 14.2087 26.3256 14.2213 26.3143 14.2316C26.303 14.242 26.2897 14.2499 26.2751 14.2548C26.2606 14.2597 26.2452 14.2615 26.23 14.2601C26.2026 14.2576 26.1771 14.2449 26.1586 14.2245C26.1401 14.2042 26.1299 14.1776 26.13 14.1501C26.13 14.0901 26.17 14.0401 26.23 14.0401ZM26.8 14.0401C26.85 14.0401 26.9 14.0801 26.9 14.1401V14.1501C26.9001 14.1776 26.8899 14.2042 26.8714 14.2245C26.8528 14.2449 26.8274 14.2576 26.8 14.2601C26.7847 14.2615 26.7693 14.2597 26.7548 14.2548C26.7403 14.2499 26.7269 14.242 26.7156 14.2316C26.7043 14.2213 26.6953 14.2087 26.6892 14.1946C26.683 14.1806 26.6799 14.1654 26.68 14.1501C26.68 14.0901 26.73 14.0401 26.79 14.0401H26.8ZM27.36 14.0401C27.3849 14.0357 27.4105 14.04 27.4326 14.0522C27.4547 14.0645 27.4719 14.0841 27.4813 14.1075C27.4907 14.131 27.4917 14.157 27.4842 14.1812C27.4767 14.2053 27.461 14.2261 27.44 14.2401C27.4169 14.2569 27.3882 14.264 27.36 14.2601C27.3308 14.2601 27.3028 14.2485 27.2822 14.2279C27.2616 14.2072 27.25 14.1793 27.25 14.1501C27.25 14.0901 27.3 14.0401 27.35 14.0401H27.36ZM27.92 14.0401C27.9339 14.0387 27.948 14.0402 27.9613 14.0446C27.9746 14.049 27.9869 14.0562 27.9972 14.0656C28.0076 14.075 28.0159 14.0865 28.0215 14.0994C28.0272 14.1122 28.03 14.1261 28.03 14.1401V14.1501C28.03 14.2101 27.98 14.2601 27.92 14.2601C27.8908 14.2601 27.8628 14.2485 27.8422 14.2279C27.8216 14.2072 27.81 14.1793 27.81 14.1501C27.81 14.0901 27.86 14.0401 27.91 14.0401H27.92ZM28.48 14.0401C28.54 14.0401 28.59 14.0801 28.59 14.1401V14.1501C28.59 14.2101 28.54 14.2601 28.49 14.2601C28.4747 14.2615 28.4593 14.2597 28.4448 14.2548C28.4303 14.2499 28.4169 14.242 28.4056 14.2316C28.3943 14.2213 28.3853 14.2087 28.3792 14.1946C28.373 14.1806 28.3699 14.1654 28.37 14.1501C28.37 14.0901 28.42 14.0401 28.48 14.0401ZM29.05 14.0401C29.1 14.0401 29.15 14.0801 29.15 14.1401V14.1501C29.15 14.2101 29.11 14.2601 29.05 14.2601C29.0347 14.2615 29.0193 14.2597 29.0048 14.2548C28.9903 14.2499 28.9769 14.242 28.9656 14.2316C28.9543 14.2213 28.9453 14.2087 28.9392 14.1946C28.933 14.1806 28.9299 14.1654 28.93 14.1501C28.93 14.0901 28.98 14.0401 29.05 14.0401ZM29.61 14.0401C29.67 14.0401 29.71 14.0801 29.71 14.1401V14.1501C29.71 14.2101 29.67 14.2601 29.61 14.2601C29.5947 14.2615 29.5793 14.2597 29.5648 14.2548C29.5503 14.2499 29.5369 14.242 29.5256 14.2316C29.5143 14.2213 29.5053 14.2087 29.4992 14.1946C29.493 14.1806 29.4899 14.1654 29.49 14.1501C29.49 14.0901 29.54 14.0401 29.61 14.0401ZM30.17 14.0401C30.23 14.0401 30.27 14.0801 30.28 14.1401V14.1501C30.28 14.1793 30.2684 14.2072 30.2477 14.2279C30.2271 14.2485 30.1991 14.2601 30.17 14.2601C30.1408 14.2601 30.1128 14.2485 30.0922 14.2279C30.0716 14.2072 30.06 14.1793 30.06 14.1501C30.06 14.0901 30.11 14.0401 30.16 14.0401H30.17ZM30.73 14.0401C30.79 14.0401 30.84 14.0801 30.84 14.1401V14.1501C30.84 14.1793 30.8284 14.2072 30.8077 14.2279C30.7871 14.2485 30.7591 14.2601 30.73 14.2601C30.7008 14.2601 30.6728 14.2485 30.6522 14.2279C30.6316 14.2072 30.62 14.1793 30.62 14.1501C30.62 14.0901 30.67 14.0401 30.73 14.0401ZM31.29 14.0401C31.35 14.0401 31.4 14.0801 31.41 14.1401V14.1501C31.41 14.1654 31.4069 14.1806 31.4007 14.1946C31.3946 14.2087 31.3856 14.2213 31.3743 14.2316C31.363 14.242 31.3497 14.2499 31.3351 14.2548C31.3206 14.2597 31.3052 14.2615 31.29 14.2601C31.2626 14.2576 31.2371 14.2449 31.2186 14.2245C31.2001 14.2042 31.1899 14.1776 31.19 14.1501C31.19 14.0901 31.23 14.0401 31.29 14.0401ZM31.86 14.0401C31.8857 14.0423 31.9099 14.0536 31.9282 14.0719C31.9465 14.0902 31.9577 14.1143 31.96 14.1401V14.1501C31.96 14.2101 31.92 14.2601 31.86 14.2601C31.8308 14.2601 31.8028 14.2485 31.7822 14.2279C31.7616 14.2072 31.75 14.1793 31.75 14.1501C31.75 14.1209 31.7616 14.0929 31.7822 14.0723C31.8028 14.0517 31.8308 14.0401 31.86 14.0401ZM32.42 14.0401C32.4465 14.0401 32.4719 14.0506 32.4907 14.0694C32.5094 14.0881 32.52 14.1136 32.52 14.1401V14.1501C32.52 14.2101 32.48 14.2601 32.42 14.2601C32.4047 14.2615 32.3893 14.2597 32.3748 14.2548C32.3603 14.2499 32.3469 14.242 32.3356 14.2316C32.3243 14.2213 32.3153 14.2087 32.3092 14.1946C32.303 14.1806 32.2999 14.1654 32.3 14.1501C32.3 14.0901 32.35 14.0401 32.42 14.0401ZM32.98 14.0401C33.04 14.0401 33.08 14.0801 33.09 14.1401V14.1501C33.09 14.2101 33.04 14.2601 32.99 14.2601C32.9747 14.2615 32.9593 14.2597 32.9448 14.2548C32.9303 14.2499 32.9169 14.242 32.9056 14.2316C32.8943 14.2213 32.8853 14.2087 32.8792 14.1946C32.873 14.1806 32.8699 14.1654 32.87 14.1501C32.87 14.0901 32.92 14.0401 32.98 14.0401ZM33.54 14.0401C33.6 14.0401 33.65 14.0801 33.65 14.1401V14.1501C33.65 14.2101 33.6 14.2601 33.55 14.2601C33.5347 14.2615 33.5193 14.2597 33.5048 14.2548C33.4903 14.2499 33.4769 14.242 33.4656 14.2316C33.4543 14.2213 33.4453 14.2087 33.4392 14.1946C33.433 14.1806 33.4299 14.1654 33.43 14.1501C33.43 14.0901 33.48 14.0401 33.54 14.0401ZM34.11 14.0401C34.16 14.0401 34.21 14.0801 34.21 14.1401V14.1501C34.21 14.2101 34.17 14.2601 34.11 14.2601C34.0947 14.2615 34.0793 14.2597 34.0648 14.2548C34.0503 14.2499 34.0369 14.242 34.0256 14.2316C34.0143 14.2213 34.0053 14.2087 33.9992 14.1946C33.993 14.1806 33.9899 14.1654 33.99 14.1501C33.99 14.0901 34.04 14.0401 34.11 14.0401ZM34.67 14.0401C34.73 14.0401 34.77 14.0801 34.77 14.1401V14.1501C34.7701 14.1776 34.7599 14.2042 34.7414 14.2245C34.7228 14.2449 34.6974 14.2576 34.67 14.2601C34.6547 14.2615 34.6393 14.2597 34.6248 14.2548C34.6103 14.2499 34.5969 14.242 34.5856 14.2316C34.5743 14.2213 34.5653 14.2087 34.5592 14.1946C34.553 14.1806 34.5499 14.1654 34.55 14.1501C34.55 14.0901 34.6 14.0401 34.67 14.0401ZM18.93 15.7201C19.1802 15.7174 19.4214 15.8136 19.6012 15.9877C19.7809 16.1618 19.8847 16.3999 19.89 16.6501C19.8927 16.7757 19.8702 16.9006 19.8238 17.0174C19.7775 17.1342 19.7081 17.2405 19.62 17.3301L17.82 19.1901C17.6909 19.3296 17.5226 19.4267 17.3373 19.4686C17.1519 19.5106 16.9582 19.4953 16.7817 19.4249C16.6052 19.3546 16.4542 19.2323 16.3485 19.0744C16.2429 18.9164 16.1876 18.7301 16.19 18.5401C16.1872 18.4145 16.2097 18.2895 16.2561 18.1727C16.3025 18.0559 16.3718 17.9496 16.46 17.8601L18.26 16.0101C18.3458 15.9177 18.4494 15.8435 18.5645 15.792C18.6796 15.7404 18.8039 15.7126 18.93 15.7101V15.7201ZM22.04 15.7201C22.1647 15.7174 22.2888 15.7394 22.4051 15.7847C22.5213 15.83 22.6276 15.8978 22.7176 15.9841C22.8077 16.0705 22.8799 16.1738 22.9301 16.288C22.9802 16.4023 23.0074 16.5253 23.01 16.6501C23.0127 16.7757 22.9902 16.9006 22.9438 17.0174C22.8975 17.1342 22.8281 17.2405 22.74 17.3301L20.93 19.1901C20.8219 19.3036 20.6872 19.3883 20.5381 19.4365C20.389 19.4846 20.2302 19.4948 20.0762 19.466C19.9222 19.4372 19.7778 19.3703 19.6562 19.2715C19.5346 19.1726 19.4397 19.045 19.38 18.9001C19.3037 18.7277 19.281 18.5363 19.3149 18.3508C19.3488 18.1654 19.4377 17.9944 19.57 17.8601L21.37 16.0101C21.4558 15.9177 21.5594 15.8435 21.6745 15.792C21.7896 15.7404 21.9139 15.7126 22.04 15.7101V15.7201ZM25.15 15.7201C25.2747 15.7174 25.3988 15.7394 25.5151 15.7847C25.6313 15.83 25.7376 15.8978 25.8276 15.9841C25.9177 16.0705 25.9899 16.1738 26.0401 16.288C26.0902 16.4023 26.1174 16.5253 26.12 16.6501C26.1227 16.7757 26.1002 16.9006 26.0538 17.0174C26.0075 17.1342 25.9381 17.2405 25.85 17.3301L24.05 19.1901C23.9421 19.3059 23.8068 19.3926 23.6565 19.4421C23.5062 19.4917 23.3459 19.5025 23.1903 19.4736C23.0347 19.4447 22.889 19.3769 22.7666 19.2767C22.6441 19.1764 22.549 19.0469 22.49 18.9001C22.4137 18.7277 22.391 18.5363 22.4249 18.3508C22.4588 18.1654 22.5477 17.9944 22.68 17.8601L24.48 16.0101C24.5658 15.9177 24.6694 15.8435 24.7845 15.792C24.8996 15.7404 25.0239 15.7126 25.15 15.7101V15.7201ZM28.27 15.7201C28.4564 15.7183 28.6392 15.7713 28.7957 15.8727C28.9522 15.9741 29.0754 16.1192 29.15 16.2901C29.2262 16.4625 29.2489 16.6539 29.215 16.8393C29.1811 17.0248 29.0923 17.1958 28.96 17.3301L27.16 19.1901C27.0521 19.3059 26.9168 19.3926 26.7665 19.4421C26.6162 19.4917 26.4559 19.5025 26.3003 19.4736C26.1447 19.4447 25.999 19.3769 25.8766 19.2767C25.7541 19.1764 25.659 19.0469 25.6 18.9001C25.5249 18.7267 25.5039 18.5348 25.5396 18.3492C25.5752 18.1637 25.666 17.9933 25.8 17.8601L27.6 16.0101C27.6858 15.9177 27.7894 15.8435 27.9045 15.792C28.0196 15.7404 28.1439 15.7126 28.27 15.7101V15.7201ZM31.37 15.7201C31.5598 15.7143 31.747 15.7655 31.9074 15.8671C32.0678 15.9687 32.1941 16.116 32.27 16.2901C32.345 16.4635 32.366 16.6554 32.3304 16.8409C32.2947 17.0264 32.2039 17.1969 32.07 17.3301L30.27 19.1901C30.1621 19.3059 30.0268 19.3926 29.8765 19.4421C29.7262 19.4917 29.5659 19.5025 29.4103 19.4736C29.2547 19.4447 29.109 19.3769 28.9866 19.2767C28.8641 19.1764 28.769 19.0469 28.71 18.9001C28.6349 18.7267 28.6139 18.5348 28.6496 18.3492C28.6852 18.1637 28.776 17.9933 28.91 17.8601L30.71 16.0101C30.7958 15.9177 30.8994 15.8435 31.0145 15.792C31.1296 15.7404 31.2539 15.7126 31.38 15.7101L31.37 15.7201ZM13.87 20.6701C13.8915 20.6711 13.9123 20.6785 13.9297 20.6913C13.9471 20.7041 13.9604 20.7217 13.9678 20.7419C13.9753 20.7622 13.9766 20.7842 13.9717 20.8052C13.9667 20.8262 13.9557 20.8453 13.94 20.8601C13.9293 20.8702 13.9167 20.878 13.903 20.8832C13.8893 20.8883 13.8746 20.8907 13.86 20.8901C13.8326 20.8876 13.8071 20.8749 13.7886 20.8545C13.7701 20.8342 13.7599 20.8076 13.76 20.7801C13.76 20.7201 13.8 20.6701 13.86 20.6701H13.87ZM14.43 20.6701C14.4548 20.67 14.4789 20.6791 14.4974 20.6958C14.5159 20.7124 14.5275 20.7353 14.53 20.7601V20.7801C14.53 20.8401 14.49 20.8901 14.43 20.8901C14.4147 20.8915 14.3993 20.8897 14.3848 20.8848C14.3703 20.8799 14.3569 20.872 14.3456 20.8616C14.3343 20.8513 14.3253 20.8387 14.3192 20.8246C14.313 20.8106 14.3099 20.7954 14.31 20.7801C14.31 20.7201 14.36 20.6701 14.43 20.6701ZM14.99 20.6701C15.016 20.6697 15.0413 20.6785 15.0615 20.6949C15.0816 20.7114 15.0952 20.7345 15.1 20.7601V20.7801C15.1 20.8401 15.05 20.8901 14.99 20.8901C14.9747 20.8915 14.9593 20.8897 14.9448 20.8848C14.9303 20.8799 14.9169 20.872 14.9056 20.8616C14.8943 20.8513 14.8853 20.8387 14.8792 20.8246C14.873 20.8106 14.8699 20.7954 14.87 20.7801C14.87 20.7201 14.93 20.6601 14.99 20.6701ZM15.55 20.6701C15.61 20.6701 15.65 20.7101 15.66 20.7701C15.66 20.8401 15.61 20.8901 15.56 20.8901C15.5447 20.8915 15.5293 20.8897 15.5148 20.8848C15.5003 20.8799 15.4869 20.872 15.4756 20.8616C15.4643 20.8513 15.4553 20.8387 15.4492 20.8246C15.443 20.8106 15.4399 20.7954 15.44 20.7801C15.44 20.7201 15.49 20.6601 15.55 20.6701ZM16.11 20.6701C16.17 20.6701 16.22 20.7101 16.23 20.7701C16.23 20.8401 16.18 20.8901 16.11 20.8901C16.0808 20.8901 16.0528 20.8785 16.0322 20.8579C16.0116 20.8372 16 20.8093 16 20.7801C16 20.7201 16.05 20.6601 16.11 20.6701ZM16.68 20.6701C16.74 20.6701 16.78 20.7101 16.78 20.7701C16.78 20.8401 16.74 20.8901 16.68 20.8901C16.6647 20.8915 16.6493 20.8897 16.6348 20.8848C16.6203 20.8799 16.6069 20.872 16.5956 20.8616C16.5843 20.8513 16.5753 20.8387 16.5692 20.8246C16.563 20.8106 16.5599 20.7954 16.56 20.7801C16.56 20.7201 16.61 20.6601 16.68 20.6701ZM17.24 20.6701C17.3 20.6701 17.34 20.7101 17.35 20.7701C17.3514 20.7854 17.3495 20.8007 17.3446 20.8153C17.3397 20.8298 17.3319 20.8431 17.3215 20.8544C17.3112 20.8657 17.2985 20.8747 17.2845 20.8809C17.2705 20.887 17.2553 20.8902 17.24 20.8901C17.2108 20.8901 17.1828 20.8785 17.1622 20.8579C17.1416 20.8372 17.13 20.8093 17.13 20.7801C17.13 20.7201 17.18 20.6701 17.23 20.6701H17.24ZM17.8 20.6701C17.86 20.6701 17.9 20.7101 17.91 20.7701C17.9114 20.7854 17.9095 20.8007 17.9046 20.8153C17.8997 20.8298 17.8919 20.8431 17.8815 20.8544C17.8712 20.8657 17.8585 20.8747 17.8445 20.8809C17.8305 20.887 17.8153 20.8902 17.8 20.8901C17.7708 20.8901 17.7428 20.8785 17.7222 20.8579C17.7016 20.8372 17.69 20.8093 17.69 20.7801C17.69 20.7201 17.74 20.6701 17.79 20.6701H17.8ZM18.36 20.6701C18.42 20.6701 18.47 20.7101 18.48 20.7701C18.4815 20.7862 18.4795 20.8025 18.474 20.8178C18.4685 20.833 18.4597 20.8469 18.4482 20.8584C18.4368 20.8698 18.4229 20.8786 18.4077 20.8841C18.3924 20.8896 18.3761 20.8916 18.36 20.8901C18.3308 20.8901 18.3028 20.8785 18.2822 20.8579C18.2616 20.8372 18.25 20.8093 18.25 20.7801C18.25 20.7201 18.3 20.6701 18.36 20.6701ZM18.92 20.6701C18.9331 20.6687 18.9464 20.6699 18.9591 20.6737C18.9717 20.6775 18.9835 20.6838 18.9937 20.6921C19.004 20.7005 19.0124 20.7108 19.0187 20.7225C19.0249 20.7342 19.0287 20.7469 19.03 20.7601V20.7801C19.03 20.8401 18.98 20.8901 18.93 20.8901C18.9147 20.8915 18.8993 20.8897 18.8848 20.8848C18.8703 20.8799 18.8569 20.872 18.8456 20.8616C18.8343 20.8513 18.8253 20.8387 18.8192 20.8246C18.813 20.8106 18.8099 20.7954 18.81 20.7801C18.81 20.7201 18.86 20.6701 18.92 20.6701ZM19.49 20.6701C19.55 20.6701 19.59 20.7101 19.59 20.7701C19.59 20.8401 19.55 20.8901 19.49 20.8901C19.4747 20.8915 19.4593 20.8897 19.4448 20.8848C19.4303 20.8799 19.4169 20.872 19.4056 20.8616C19.3943 20.8513 19.3853 20.8387 19.3792 20.8246C19.373 20.8106 19.3699 20.7954 19.37 20.7801C19.37 20.7201 19.42 20.6601 19.49 20.6701ZM20.05 20.6701C20.11 20.6701 20.15 20.7101 20.16 20.7701C20.16 20.8401 20.11 20.8901 20.05 20.8901C20.0208 20.8901 19.9928 20.8785 19.9722 20.8579C19.9516 20.8372 19.94 20.8093 19.94 20.7801C19.94 20.7201 19.99 20.6601 20.04 20.6701H20.05ZM20.61 20.6701C20.67 20.6701 20.71 20.7101 20.72 20.7701C20.72 20.8401 20.67 20.8901 20.62 20.8901C20.6047 20.8915 20.5893 20.8897 20.5748 20.8848C20.5603 20.8799 20.5469 20.872 20.5356 20.8616C20.5243 20.8513 20.5153 20.8387 20.5092 20.8246C20.503 20.8106 20.4999 20.7954 20.5 20.7801C20.5 20.7201 20.55 20.6601 20.61 20.6701ZM21.17 20.6701C21.23 20.6701 21.28 20.7101 21.28 20.7701C21.28 20.8401 21.23 20.8901 21.18 20.8901C21.1647 20.8915 21.1493 20.8897 21.1348 20.8848C21.1203 20.8799 21.1069 20.872 21.0956 20.8616C21.0843 20.8513 21.0753 20.8387 21.0692 20.8246C21.063 20.8106 21.0599 20.7954 21.06 20.7801C21.06 20.7201 21.11 20.6601 21.17 20.6701ZM21.73 20.6701C21.79 20.6701 21.84 20.7101 21.85 20.7701C21.8515 20.7862 21.8495 20.8025 21.844 20.8178C21.8385 20.833 21.8297 20.8469 21.8183 20.8584C21.8068 20.8698 21.7929 20.8786 21.7777 20.8841C21.7624 20.8896 21.7461 20.8916 21.73 20.8901C21.7026 20.8876 21.6771 20.8749 21.6586 20.8545C21.6401 20.8342 21.6299 20.8076 21.63 20.7801C21.63 20.7201 21.67 20.6701 21.73 20.6701ZM22.3 20.6701C22.36 20.6701 22.4 20.7101 22.41 20.7701C22.4114 20.7854 22.4095 20.8007 22.4046 20.8153C22.3997 20.8298 22.3919 20.8431 22.3815 20.8544C22.3712 20.8657 22.3585 20.8747 22.3445 20.8809C22.3305 20.887 22.3153 20.8902 22.3 20.8901C22.2708 20.8901 22.2428 20.8785 22.2222 20.8579C22.2016 20.8372 22.19 20.8093 22.19 20.7801C22.19 20.7201 22.23 20.6701 22.29 20.6701H22.3ZM22.86 20.6701C22.8846 20.6713 22.9081 20.6808 22.9267 20.697C22.9453 20.7132 22.9579 20.7351 22.9625 20.7594C22.9671 20.7836 22.9635 20.8087 22.9521 20.8305C22.9408 20.8524 22.9224 20.8699 22.9 20.8801L22.86 20.8901C22.8308 20.8901 22.8028 20.8785 22.7822 20.8579C22.7616 20.8372 22.75 20.8093 22.75 20.7801C22.75 20.7201 22.8 20.6701 22.85 20.6701H22.86ZM23.42 20.6701C23.48 20.6701 23.52 20.7101 23.53 20.7601V20.7801C23.53 20.8401 23.48 20.8901 23.43 20.8901C23.4147 20.8915 23.3993 20.8897 23.3848 20.8848C23.3703 20.8799 23.3569 20.872 23.3456 20.8616C23.3343 20.8513 23.3253 20.8387 23.3192 20.8246C23.313 20.8106 23.3099 20.7954 23.31 20.7801C23.31 20.7201 23.36 20.6701 23.42 20.6701ZM23.98 20.6701C24.0076 20.6671 24.0354 20.6748 24.0577 20.6915C24.08 20.7082 24.0951 20.7327 24.1 20.7601V20.7801C24.1 20.8401 24.05 20.8901 23.98 20.8901C23.9526 20.8876 23.9271 20.8749 23.9086 20.8545C23.8901 20.8342 23.8799 20.8076 23.88 20.7801C23.88 20.7201 23.92 20.6601 23.98 20.6701ZM24.55 20.6701C24.61 20.6701 24.65 20.7101 24.65 20.7701C24.65 20.8401 24.61 20.8901 24.55 20.8901C24.5347 20.8915 24.5193 20.8897 24.5048 20.8848C24.4903 20.8799 24.4769 20.872 24.4656 20.8616C24.4543 20.8513 24.4453 20.8387 24.4392 20.8246C24.433 20.8106 24.4299 20.7954 24.43 20.7801C24.43 20.7201 24.48 20.6601 24.55 20.6701ZM25.11 20.6701C25.17 20.6701 25.21 20.7101 25.22 20.7701C25.22 20.8401 25.17 20.8901 25.11 20.8901C25.0808 20.8901 25.0528 20.8785 25.0322 20.8579C25.0116 20.8372 25 20.8093 25 20.7801C25 20.7201 25.05 20.6601 25.1 20.6701H25.11ZM25.67 20.6701C25.73 20.6701 25.77 20.7101 25.78 20.7701C25.7814 20.7854 25.7795 20.8007 25.7746 20.8153C25.7697 20.8298 25.7619 20.8431 25.7515 20.8544C25.7412 20.8657 25.7285 20.8747 25.7145 20.8809C25.7005 20.887 25.6853 20.8902 25.67 20.8901C25.6408 20.8901 25.6128 20.8785 25.5922 20.8579C25.5716 20.8372 25.56 20.8093 25.56 20.7801C25.56 20.7201 25.61 20.6701 25.66 20.6701H25.67ZM26.23 20.6701C26.29 20.6701 26.34 20.7101 26.35 20.7701C26.3515 20.7862 26.3495 20.8025 26.344 20.8178C26.3385 20.833 26.3297 20.8469 26.3183 20.8584C26.3068 20.8698 26.2929 20.8786 26.2777 20.8841C26.2624 20.8896 26.2461 20.8916 26.23 20.8901C26.2026 20.8876 26.1771 20.8749 26.1586 20.8545C26.1401 20.8342 26.1299 20.8076 26.13 20.7801C26.13 20.7201 26.17 20.6701 26.23 20.6701ZM26.8 20.6701C26.85 20.6701 26.9 20.7101 26.9 20.7701C26.9013 20.7845 26.8998 20.7991 26.8955 20.813C26.8913 20.8269 26.8843 20.8398 26.875 20.8509C26.8657 20.8621 26.8543 20.8713 26.8414 20.878C26.8285 20.8847 26.8144 20.8888 26.8 20.8901C26.7847 20.8915 26.7693 20.8897 26.7548 20.8848C26.7403 20.8799 26.7269 20.872 26.7156 20.8616C26.7043 20.8513 26.6953 20.8387 26.6892 20.8246C26.683 20.8106 26.6799 20.7954 26.68 20.7801C26.68 20.7201 26.73 20.6701 26.79 20.6701H26.8ZM27.36 20.6701C27.3824 20.6691 27.4045 20.6751 27.4235 20.6871C27.4424 20.6991 27.4572 20.7166 27.466 20.7373C27.4747 20.758 27.4768 20.7808 27.4722 20.8028C27.4675 20.8247 27.4563 20.8447 27.44 20.8601C27.4293 20.8702 27.4167 20.878 27.403 20.8832C27.3893 20.8883 27.3746 20.8907 27.36 20.8901C27.3308 20.8901 27.3028 20.8785 27.2822 20.8579C27.2616 20.8372 27.25 20.8093 27.25 20.7801C27.25 20.7201 27.3 20.6701 27.35 20.6701H27.36ZM27.92 20.6701C27.9331 20.6687 27.9464 20.6699 27.9591 20.6737C27.9717 20.6775 27.9835 20.6838 27.9937 20.6921C28.004 20.7005 28.0124 20.7108 28.0187 20.7225C28.0249 20.7342 28.0287 20.7469 28.03 20.7601V20.7801C28.03 20.8401 27.98 20.8901 27.92 20.8901C27.8908 20.8901 27.8628 20.8785 27.8422 20.8579C27.8216 20.8372 27.81 20.8093 27.81 20.7801C27.81 20.7201 27.86 20.6701 27.91 20.6701H27.92ZM28.48 20.6701C28.54 20.6701 28.59 20.7101 28.59 20.7701C28.59 20.8401 28.54 20.8901 28.49 20.8901C28.4747 20.8915 28.4593 20.8897 28.4448 20.8848C28.4303 20.8799 28.4169 20.872 28.4056 20.8616C28.3943 20.8513 28.3853 20.8387 28.3792 20.8246C28.373 20.8106 28.3699 20.7954 28.37 20.7801C28.37 20.7201 28.42 20.6601 28.48 20.6701ZM29.05 20.6701C29.1 20.6701 29.15 20.7101 29.15 20.7701C29.15 20.8401 29.11 20.8901 29.05 20.8901C29.0347 20.8915 29.0193 20.8897 29.0048 20.8848C28.9903 20.8799 28.9769 20.872 28.9656 20.8616C28.9543 20.8513 28.9453 20.8387 28.9392 20.8246C28.933 20.8106 28.9299 20.7954 28.93 20.7801C28.93 20.7201 28.98 20.6601 29.05 20.6701ZM29.61 20.6701C29.67 20.6701 29.71 20.7101 29.71 20.7701C29.71 20.8401 29.67 20.8901 29.61 20.8901C29.5947 20.8915 29.5793 20.8897 29.5648 20.8848C29.5503 20.8799 29.5369 20.872 29.5256 20.8616C29.5143 20.8513 29.5053 20.8387 29.4992 20.8246C29.493 20.8106 29.4899 20.7954 29.49 20.7801C29.49 20.7201 29.54 20.6601 29.61 20.6701ZM30.17 20.6701C30.23 20.6701 30.27 20.7101 30.28 20.7701C30.2814 20.7854 30.2795 20.8007 30.2746 20.8153C30.2697 20.8298 30.2619 20.8431 30.2515 20.8544C30.2412 20.8657 30.2285 20.8747 30.2145 20.8809C30.2005 20.887 30.1853 20.8902 30.17 20.8901C30.1408 20.8901 30.1128 20.8785 30.0922 20.8579C30.0716 20.8372 30.06 20.8093 30.06 20.7801C30.06 20.7201 30.11 20.6701 30.16 20.6701H30.17ZM30.73 20.6701C30.79 20.6701 30.84 20.7101 30.84 20.7701C30.8414 20.7854 30.8395 20.8007 30.8346 20.8153C30.8297 20.8298 30.8219 20.8431 30.8115 20.8544C30.8012 20.8657 30.7885 20.8747 30.7745 20.8809C30.7605 20.887 30.7453 20.8902 30.73 20.8901C30.7008 20.8901 30.6728 20.8785 30.6522 20.8579C30.6316 20.8372 30.62 20.8093 30.62 20.7801C30.62 20.7201 30.67 20.6701 30.73 20.6701ZM31.29 20.6701C31.35 20.6701 31.4 20.7101 31.41 20.7701C31.4115 20.7862 31.4095 20.8025 31.404 20.8178C31.3985 20.833 31.3897 20.8469 31.3783 20.8584C31.3668 20.8698 31.3529 20.8786 31.3377 20.8841C31.3224 20.8896 31.3061 20.8916 31.29 20.8901C31.2626 20.8876 31.2371 20.8749 31.2186 20.8545C31.2001 20.8342 31.1899 20.8076 31.19 20.7801C31.19 20.7201 31.23 20.6701 31.29 20.6701ZM31.86 20.6701C31.8842 20.6719 31.9072 20.6817 31.9253 20.698C31.9434 20.7143 31.9556 20.7361 31.96 20.7601V20.7801C31.96 20.8401 31.92 20.8901 31.86 20.8901C31.8447 20.8915 31.8293 20.8897 31.8148 20.8848C31.8003 20.8799 31.7869 20.872 31.7756 20.8616C31.7643 20.8513 31.7553 20.8387 31.7492 20.8246C31.743 20.8106 31.7399 20.7954 31.74 20.7801C31.74 20.7201 31.79 20.6701 31.86 20.6701ZM32.42 20.6701C32.4448 20.67 32.4689 20.6791 32.4874 20.6958C32.5059 20.7124 32.5175 20.7353 32.52 20.7601V20.7801C32.52 20.8401 32.48 20.8901 32.42 20.8901C32.4047 20.8915 32.3893 20.8897 32.3748 20.8848C32.3603 20.8799 32.3469 20.872 32.3356 20.8616C32.3243 20.8513 32.3153 20.8387 32.3092 20.8246C32.303 20.8106 32.2999 20.7954 32.3 20.7801C32.3 20.7201 32.35 20.6601 32.42 20.6701ZM32.98 20.6701C33.04 20.6701 33.08 20.7101 33.09 20.7701C33.09 20.8401 33.04 20.8901 32.99 20.8901C32.9747 20.8915 32.9593 20.8897 32.9448 20.8848C32.9303 20.8799 32.9169 20.872 32.9056 20.8616C32.8943 20.8513 32.8853 20.8387 32.8792 20.8246C32.873 20.8106 32.8699 20.7954 32.87 20.7801C32.87 20.7201 32.92 20.6601 32.98 20.6701ZM33.54 20.6701C33.6 20.6701 33.65 20.7101 33.65 20.7701C33.65 20.8401 33.6 20.8901 33.55 20.8901C33.5347 20.8915 33.5193 20.8897 33.5048 20.8848C33.4903 20.8799 33.4769 20.872 33.4656 20.8616C33.4543 20.8513 33.4453 20.8387 33.4392 20.8246C33.433 20.8106 33.4299 20.7954 33.43 20.7801C33.43 20.7201 33.48 20.6601 33.54 20.6701ZM34.11 20.6701C34.16 20.6701 34.21 20.7101 34.21 20.7701C34.21 20.8401 34.17 20.8901 34.11 20.8901C34.0947 20.8915 34.0793 20.8897 34.0648 20.8848C34.0503 20.8799 34.0369 20.872 34.0256 20.8616C34.0143 20.8513 34.0053 20.8387 33.9992 20.8246C33.993 20.8106 33.9899 20.7954 33.99 20.7801C33.99 20.7201 34.04 20.6601 34.11 20.6701ZM34.67 20.6701C34.73 20.6701 34.77 20.7101 34.77 20.7701C34.7713 20.7845 34.7698 20.7991 34.7655 20.813C34.7613 20.8269 34.7543 20.8398 34.745 20.8509C34.7357 20.8621 34.7243 20.8713 34.7114 20.878C34.6985 20.8847 34.6844 20.8888 34.67 20.8901C34.6547 20.8915 34.6393 20.8897 34.6248 20.8848C34.6103 20.8799 34.5969 20.872 34.5856 20.8616C34.5743 20.8513 34.5653 20.8387 34.5592 20.8246C34.553 20.8106 34.5499 20.7954 34.55 20.7801C34.55 20.7201 34.6 20.6701 34.67 20.6701ZM17.37 22.2101C17.4956 22.2074 17.6204 22.2297 17.7374 22.2756C17.8543 22.3216 17.9609 22.3902 18.0511 22.4777C18.1413 22.5651 18.2133 22.6695 18.2629 22.7849C18.3125 22.9004 18.3387 23.0245 18.34 23.1501C18.3427 23.2757 18.3202 23.4006 18.2738 23.5174C18.2275 23.6342 18.1581 23.7405 18.07 23.8301L16.26 25.6801C16.1526 25.7939 16.0186 25.8791 15.87 25.928C15.7214 25.9769 15.563 25.9879 15.4091 25.9601C15.2552 25.9323 15.1106 25.8665 14.9885 25.7687C14.8665 25.6709 14.7707 25.5442 14.71 25.4001C14.6337 25.2277 14.611 25.0363 14.6449 24.8508C14.6788 24.6654 14.7677 24.4944 14.9 24.3601L16.7 22.5101C16.7858 22.4177 16.8894 22.3435 17.0045 22.292C17.1196 22.2404 17.2439 22.2126 17.37 22.2101ZM20.49 22.2101C20.6147 22.2088 20.7385 22.232 20.8543 22.2786C20.97 22.3251 21.0755 22.394 21.1647 22.4812C21.2538 22.5685 21.3249 22.6725 21.3738 22.7873C21.4228 22.9021 21.4487 23.0253 21.45 23.1501C21.4527 23.2757 21.4302 23.4006 21.3838 23.5174C21.3375 23.6342 21.2681 23.7405 21.18 23.8301L19.38 25.6801C19.2728 25.7961 19.1382 25.8833 18.9884 25.9336C18.8387 25.9839 18.6787 25.9956 18.5232 25.9677C18.3677 25.9398 18.2218 25.8731 18.0989 25.7739C17.976 25.6747 17.8801 25.5462 17.82 25.4001C17.7449 25.2267 17.7239 25.0348 17.7596 24.8492C17.7952 24.6637 17.886 24.4933 18.02 24.3601L19.82 22.5101C19.9058 22.4177 20.0094 22.3435 20.1245 22.292C20.2396 22.2404 20.3639 22.2126 20.49 22.2101ZM23.59 22.2101C23.7156 22.2074 23.8404 22.2297 23.9573 22.2756C24.0743 22.3216 24.1809 22.3902 24.2711 22.4777C24.3613 22.5651 24.4333 22.6695 24.4829 22.7849C24.5325 22.9004 24.5587 23.0245 24.56 23.1501C24.5627 23.2757 24.5402 23.4006 24.4938 23.5174C24.4475 23.6342 24.3781 23.7405 24.29 23.8301L22.49 25.6801C22.3828 25.7961 22.2482 25.8833 22.0984 25.9336C21.9487 25.9839 21.7887 25.9956 21.6332 25.9677C21.4777 25.9398 21.3318 25.8731 21.2089 25.7739C21.086 25.6747 20.9901 25.5462 20.93 25.4001C20.8549 25.2267 20.8339 25.0348 20.8696 24.8492C20.9052 24.6637 20.996 24.4933 21.13 24.3601L22.93 22.5101C23.0158 22.4177 23.1194 22.3435 23.2345 22.292C23.3496 22.2404 23.4739 22.2126 23.6 22.2101H23.59ZM26.71 22.2101C26.8347 22.2088 26.9585 22.232 27.0743 22.2786C27.19 22.3251 27.2955 22.394 27.3847 22.4812C27.4738 22.5685 27.5449 22.6725 27.5938 22.7873C27.6428 22.9021 27.6687 23.0253 27.67 23.1501C27.674 23.275 27.6531 23.3995 27.6085 23.5163C27.5638 23.633 27.4963 23.7397 27.41 23.8301L25.6 25.6801C25.4926 25.7939 25.3586 25.8791 25.21 25.928C25.0614 25.9769 24.903 25.9879 24.7491 25.9601C24.5952 25.9323 24.4506 25.8665 24.3285 25.7687C24.2065 25.6709 24.1107 25.5442 24.05 25.4001C23.9737 25.2277 23.951 25.0363 23.9849 24.8508C24.0188 24.6654 24.1077 24.4944 24.24 24.3601L26.04 22.5101C26.1258 22.4177 26.2294 22.3435 26.3445 22.292C26.4596 22.2404 26.5839 22.2126 26.71 22.2101ZM29.82 22.2101C29.9456 22.2074 30.0704 22.2297 30.1873 22.2756C30.3043 22.3216 30.4109 22.3902 30.5011 22.4777C30.5913 22.5651 30.6633 22.6695 30.7129 22.7849C30.7625 22.9004 30.7887 23.0245 30.79 23.1501C30.7927 23.2757 30.7702 23.4006 30.7238 23.5174C30.6775 23.6342 30.6081 23.7405 30.52 23.8301L28.71 25.6801C28.6026 25.7939 28.4686 25.8791 28.32 25.928C28.1714 25.9769 28.013 25.9879 27.8591 25.9601C27.7052 25.9323 27.5606 25.8665 27.4385 25.7687C27.3165 25.6709 27.2207 25.5442 27.16 25.4001C27.0837 25.2277 27.061 25.0363 27.0949 24.8508C27.1288 24.6654 27.2177 24.4944 27.35 24.3601L29.15 22.5101C29.2358 22.4177 29.3394 22.3435 29.4545 22.292C29.5696 22.2404 29.6939 22.2126 29.82 22.2101ZM32.94 22.2101C33.0647 22.2088 33.1885 22.232 33.3043 22.2786C33.42 22.3251 33.5255 22.394 33.6147 22.4812C33.7038 22.5685 33.7749 22.6725 33.8238 22.7873C33.8728 22.9021 33.8987 23.0253 33.9 23.1501C33.9027 23.2757 33.8802 23.4006 33.8338 23.5174C33.7875 23.6342 33.7181 23.7405 33.63 23.8301L31.83 25.6801C31.7228 25.7961 31.5882 25.8833 31.4384 25.9336C31.2887 25.9839 31.1287 25.9956 30.9732 25.9677C30.8177 25.9398 30.6718 25.8731 30.5489 25.7739C30.426 25.6747 30.3301 25.5462 30.27 25.4001C30.1949 25.2267 30.1739 25.0348 30.2096 24.8492C30.2452 24.6637 30.336 24.4933 30.47 24.3601L32.27 22.5101C32.3546 22.4189 32.4566 22.3454 32.5699 22.2939C32.6832 22.2424 32.8056 22.2139 32.93 22.2101H32.94ZM13.86 27.3001C13.8744 27.3001 13.8887 27.3029 13.9021 27.3085C13.9154 27.314 13.9275 27.3221 13.9377 27.3323C13.948 27.3425 13.9561 27.3546 13.9616 27.368C13.9671 27.3813 13.97 27.3956 13.97 27.4101C13.97 27.4245 13.9671 27.4388 13.9616 27.4522C13.9561 27.4655 13.948 27.4777 13.9377 27.4879C13.9275 27.4981 13.9154 27.5062 13.9021 27.5117C13.8887 27.5172 13.8744 27.5201 13.86 27.5201C13.8326 27.5176 13.8071 27.5049 13.7886 27.4845C13.7701 27.4642 13.7599 27.4376 13.76 27.4101C13.76 27.3501 13.8 27.3001 13.86 27.3001ZM14.43 27.3001C14.4548 27.3 14.4789 27.3091 14.4974 27.3258C14.5159 27.3424 14.5275 27.3653 14.53 27.3901V27.4101C14.53 27.4701 14.49 27.5201 14.43 27.5201C14.4147 27.5215 14.3993 27.5197 14.3848 27.5148C14.3703 27.5099 14.3569 27.502 14.3456 27.4916C14.3343 27.4813 14.3253 27.4687 14.3192 27.4546C14.313 27.4406 14.3099 27.4254 14.31 27.4101C14.31 27.3501 14.36 27.3001 14.43 27.3001ZM14.99 27.3001C15.016 27.2997 15.0413 27.3085 15.0615 27.3249C15.0816 27.3414 15.0952 27.3645 15.1 27.3901V27.4101C15.1 27.4701 15.05 27.5201 14.99 27.5201C14.9747 27.5215 14.9593 27.5197 14.9448 27.5148C14.9303 27.5099 14.9169 27.502 14.9056 27.4916C14.8943 27.4813 14.8853 27.4687 14.8792 27.4546C14.873 27.4406 14.8699 27.4254 14.87 27.4101C14.87 27.3401 14.93 27.2901 14.99 27.3001ZM15.55 27.3001C15.61 27.3001 15.65 27.3401 15.66 27.4001C15.66 27.4701 15.61 27.5201 15.56 27.5201C15.5447 27.5215 15.5293 27.5197 15.5148 27.5148C15.5003 27.5099 15.4869 27.502 15.4756 27.4916C15.4643 27.4813 15.4553 27.4687 15.4492 27.4546C15.443 27.4406 15.4399 27.4254 15.44 27.4101C15.44 27.3401 15.49 27.2901 15.55 27.3001ZM16.11 27.3001C16.17 27.3001 16.22 27.3401 16.23 27.4001C16.23 27.4701 16.18 27.5201 16.11 27.5201C16.0808 27.5201 16.0528 27.5085 16.0322 27.4879C16.0116 27.4672 16 27.4393 16 27.4101C16 27.3401 16.05 27.2901 16.11 27.3001ZM16.68 27.3001C16.74 27.3001 16.78 27.3401 16.78 27.4001C16.78 27.4701 16.74 27.5201 16.68 27.5201C16.6647 27.5215 16.6493 27.5197 16.6348 27.5148C16.6203 27.5099 16.6069 27.502 16.5956 27.4916C16.5843 27.4813 16.5753 27.4687 16.5692 27.4546C16.563 27.4406 16.5599 27.4254 16.56 27.4101C16.56 27.3401 16.61 27.2901 16.68 27.3001ZM17.24 27.3001C17.3 27.3001 17.34 27.3401 17.35 27.4001C17.3514 27.4154 17.3495 27.4307 17.3446 27.4453C17.3397 27.4598 17.3319 27.4731 17.3215 27.4844C17.3112 27.4957 17.2985 27.5047 17.2845 27.5109C17.2705 27.517 17.2553 27.5202 17.24 27.5201C17.2108 27.5201 17.1828 27.5085 17.1622 27.4879C17.1416 27.4672 17.13 27.4393 17.13 27.4101C17.13 27.3501 17.18 27.3001 17.23 27.3001H17.24ZM17.8 27.3001C17.86 27.3001 17.9 27.3401 17.91 27.4001C17.9114 27.4154 17.9095 27.4307 17.9046 27.4453C17.8997 27.4598 17.8919 27.4731 17.8815 27.4844C17.8712 27.4957 17.8585 27.5047 17.8445 27.5109C17.8305 27.517 17.8153 27.5202 17.8 27.5201C17.7708 27.5201 17.7428 27.5085 17.7222 27.4879C17.7016 27.4672 17.69 27.4393 17.69 27.4101C17.69 27.3501 17.74 27.3001 17.79 27.3001H17.8ZM18.36 27.3001C18.42 27.3001 18.47 27.3401 18.48 27.4001C18.4815 27.4162 18.4795 27.4325 18.474 27.4478C18.4685 27.463 18.4597 27.4769 18.4482 27.4884C18.4368 27.4998 18.4229 27.5086 18.4077 27.5141C18.3924 27.5196 18.3761 27.5216 18.36 27.5201C18.3308 27.5201 18.3028 27.5085 18.2822 27.4879C18.2616 27.4672 18.25 27.4393 18.25 27.4101C18.25 27.3501 18.3 27.3001 18.36 27.3001ZM18.92 27.3001C18.9331 27.2987 18.9464 27.2999 18.9591 27.3037C18.9717 27.3075 18.9835 27.3138 18.9937 27.3221C19.004 27.3305 19.0124 27.3408 19.0187 27.3525C19.0249 27.3642 19.0287 27.3769 19.03 27.3901V27.4101C19.03 27.4701 18.98 27.5201 18.93 27.5201C18.9147 27.5215 18.8993 27.5197 18.8848 27.5148C18.8703 27.5099 18.8569 27.502 18.8456 27.4916C18.8343 27.4813 18.8253 27.4687 18.8192 27.4546C18.813 27.4406 18.8099 27.4254 18.81 27.4101C18.81 27.3501 18.86 27.3001 18.92 27.3001ZM19.49 27.3001C19.55 27.3001 19.59 27.3401 19.59 27.4001C19.59 27.4701 19.55 27.5201 19.49 27.5201C19.4747 27.5215 19.4593 27.5197 19.4448 27.5148C19.4303 27.5099 19.4169 27.502 19.4056 27.4916C19.3943 27.4813 19.3853 27.4687 19.3792 27.4546C19.373 27.4406 19.3699 27.4254 19.37 27.4101C19.37 27.3401 19.42 27.2901 19.49 27.3001ZM20.05 27.3001C20.11 27.3001 20.15 27.3401 20.16 27.4001C20.16 27.4701 20.11 27.5201 20.05 27.5201C20.0208 27.5201 19.9928 27.5085 19.9722 27.4879C19.9516 27.4672 19.94 27.4393 19.94 27.4101C19.94 27.3401 19.99 27.2901 20.04 27.3001H20.05ZM20.61 27.3001C20.67 27.3001 20.71 27.3401 20.72 27.4001C20.72 27.4701 20.67 27.5201 20.62 27.5201C20.6047 27.5215 20.5893 27.5197 20.5748 27.5148C20.5603 27.5099 20.5469 27.502 20.5356 27.4916C20.5243 27.4813 20.5153 27.4687 20.5092 27.4546C20.503 27.4406 20.4999 27.4254 20.5 27.4101C20.5 27.3401 20.55 27.2901 20.61 27.3001ZM21.17 27.3001C21.23 27.3001 21.28 27.3401 21.28 27.4001C21.28 27.4701 21.23 27.5201 21.18 27.5201C21.1647 27.5215 21.1493 27.5197 21.1348 27.5148C21.1203 27.5099 21.1069 27.502 21.0956 27.4916C21.0843 27.4813 21.0753 27.4687 21.0692 27.4546C21.063 27.4406 21.0599 27.4254 21.06 27.4101C21.06 27.3401 21.11 27.2901 21.17 27.3001ZM21.73 27.3001C21.79 27.3001 21.84 27.3401 21.85 27.4001C21.8515 27.4162 21.8495 27.4325 21.844 27.4478C21.8385 27.463 21.8297 27.4769 21.8183 27.4884C21.8068 27.4998 21.7929 27.5086 21.7777 27.5141C21.7624 27.5196 21.7461 27.5216 21.73 27.5201C21.7026 27.5176 21.6771 27.5049 21.6586 27.4845C21.6401 27.4642 21.6299 27.4376 21.63 27.4101C21.63 27.3501 21.67 27.3001 21.73 27.3001ZM22.3 27.3001C22.36 27.3001 22.4 27.3401 22.41 27.4001C22.4114 27.4154 22.4095 27.4307 22.4046 27.4453C22.3997 27.4598 22.3919 27.4731 22.3815 27.4844C22.3712 27.4957 22.3585 27.5047 22.3445 27.5109C22.3305 27.517 22.3153 27.5202 22.3 27.5201C22.2708 27.5201 22.2428 27.5085 22.2222 27.4879C22.2016 27.4672 22.19 27.4393 22.19 27.4101C22.19 27.3501 22.23 27.3001 22.29 27.3001H22.3ZM22.86 27.3001C22.8744 27.3001 22.8887 27.3029 22.9021 27.3085C22.9154 27.314 22.9275 27.3221 22.9377 27.3323C22.948 27.3425 22.9561 27.3546 22.9616 27.368C22.9671 27.3813 22.97 27.3956 22.97 27.4101C22.97 27.4245 22.9671 27.4388 22.9616 27.4522C22.9561 27.4655 22.948 27.4777 22.9377 27.4879C22.9275 27.4981 22.9154 27.5062 22.9021 27.5117C22.8887 27.5172 22.8744 27.5201 22.86 27.5201C22.8308 27.5201 22.8028 27.5085 22.7822 27.4879C22.7616 27.4672 22.75 27.4393 22.75 27.4101C22.75 27.3501 22.8 27.3001 22.85 27.3001H22.86ZM23.42 27.3001C23.48 27.3001 23.52 27.3401 23.53 27.3901V27.4101C23.53 27.4701 23.48 27.5201 23.43 27.5201C23.4147 27.5215 23.3993 27.5197 23.3848 27.5148C23.3703 27.5099 23.3569 27.502 23.3456 27.4916C23.3343 27.4813 23.3253 27.4687 23.3192 27.4546C23.313 27.4406 23.3099 27.4254 23.31 27.4101C23.31 27.3501 23.36 27.3001 23.42 27.3001ZM23.98 27.3001C24.0076 27.2971 24.0354 27.3048 24.0577 27.3215C24.08 27.3382 24.0951 27.3627 24.1 27.3901V27.4101C24.1 27.4701 24.05 27.5201 23.98 27.5201C23.9526 27.5176 23.9271 27.5049 23.9086 27.4845C23.8901 27.4642 23.8799 27.4376 23.88 27.4101C23.88 27.3401 23.92 27.2901 23.98 27.3001ZM24.55 27.3001C24.61 27.3001 24.65 27.3401 24.65 27.4001C24.65 27.4701 24.61 27.5201 24.55 27.5201C24.5347 27.5215 24.5193 27.5197 24.5048 27.5148C24.4903 27.5099 24.4769 27.502 24.4656 27.4916C24.4543 27.4813 24.4453 27.4687 24.4392 27.4546C24.433 27.4406 24.4299 27.4254 24.43 27.4101C24.43 27.3401 24.48 27.2901 24.55 27.3001ZM25.11 27.3001C25.17 27.3001 25.21 27.3401 25.22 27.4001C25.22 27.4701 25.17 27.5201 25.11 27.5201C25.0808 27.5201 25.0528 27.5085 25.0322 27.4879C25.0116 27.4672 25 27.4393 25 27.4101C25 27.3401 25.05 27.2901 25.1 27.3001H25.11ZM25.67 27.3001C25.73 27.3001 25.77 27.3401 25.78 27.4001C25.7814 27.4154 25.7795 27.4307 25.7746 27.4453C25.7697 27.4598 25.7619 27.4731 25.7515 27.4844C25.7412 27.4957 25.7285 27.5047 25.7145 27.5109C25.7005 27.517 25.6853 27.5202 25.67 27.5201C25.6408 27.5201 25.6128 27.5085 25.5922 27.4879C25.5716 27.4672 25.56 27.4393 25.56 27.4101C25.56 27.3501 25.61 27.3001 25.66 27.3001H25.67ZM26.23 27.3001C26.29 27.3001 26.34 27.3401 26.35 27.4001C26.3515 27.4162 26.3495 27.4325 26.344 27.4478C26.3385 27.463 26.3297 27.4769 26.3183 27.4884C26.3068 27.4998 26.2929 27.5086 26.2777 27.5141C26.2624 27.5196 26.2461 27.5216 26.23 27.5201C26.2026 27.5176 26.1771 27.5049 26.1586 27.4845C26.1401 27.4642 26.1299 27.4376 26.13 27.4101C26.13 27.3501 26.17 27.3001 26.23 27.3001ZM26.8 27.3001C26.85 27.3001 26.9 27.3401 26.9 27.4001C26.9013 27.4145 26.8998 27.4291 26.8955 27.443C26.8913 27.4569 26.8843 27.4698 26.875 27.4809C26.8657 27.4921 26.8543 27.5013 26.8414 27.508C26.8285 27.5147 26.8144 27.5188 26.8 27.5201C26.7847 27.5215 26.7693 27.5197 26.7548 27.5148C26.7403 27.5099 26.7269 27.502 26.7156 27.4916C26.7043 27.4813 26.6953 27.4687 26.6892 27.4546C26.683 27.4406 26.6799 27.4254 26.68 27.4101C26.68 27.3501 26.73 27.3001 26.79 27.3001H26.8ZM27.36 27.3001C27.3744 27.3001 27.3887 27.3029 27.4021 27.3085C27.4154 27.314 27.4275 27.3221 27.4377 27.3323C27.448 27.3425 27.4561 27.3546 27.4616 27.368C27.4671 27.3813 27.47 27.3956 27.47 27.4101C27.47 27.4245 27.4671 27.4388 27.4616 27.4522C27.4561 27.4655 27.448 27.4777 27.4377 27.4879C27.4275 27.4981 27.4154 27.5062 27.4021 27.5117C27.3887 27.5172 27.3744 27.5201 27.36 27.5201C27.3308 27.5201 27.3028 27.5085 27.2822 27.4879C27.2616 27.4672 27.25 27.4393 27.25 27.4101C27.25 27.3501 27.3 27.3001 27.35 27.3001H27.36ZM27.92 27.3001C27.9331 27.2987 27.9464 27.2999 27.9591 27.3037C27.9717 27.3075 27.9835 27.3138 27.9937 27.3221C28.004 27.3305 28.0124 27.3408 28.0187 27.3525C28.0249 27.3642 28.0287 27.3769 28.03 27.3901V27.4101C28.03 27.4701 27.98 27.5201 27.92 27.5201C27.8908 27.5201 27.8628 27.5085 27.8422 27.4879C27.8216 27.4672 27.81 27.4393 27.81 27.4101C27.81 27.3501 27.86 27.3001 27.91 27.3001H27.92ZM28.48 27.3001C28.54 27.3001 28.59 27.3401 28.59 27.4001C28.59 27.4701 28.54 27.5201 28.49 27.5201C28.4747 27.5215 28.4593 27.5197 28.4448 27.5148C28.4303 27.5099 28.4169 27.502 28.4056 27.4916C28.3943 27.4813 28.3853 27.4687 28.3792 27.4546C28.373 27.4406 28.3699 27.4254 28.37 27.4101C28.37 27.3401 28.42 27.2901 28.48 27.3001ZM29.05 27.3001C29.1 27.3001 29.15 27.3401 29.15 27.4001C29.15 27.4701 29.11 27.5201 29.05 27.5201C29.0347 27.5215 29.0193 27.5197 29.0048 27.5148C28.9903 27.5099 28.9769 27.502 28.9656 27.4916C28.9543 27.4813 28.9453 27.4687 28.9392 27.4546C28.933 27.4406 28.9299 27.4254 28.93 27.4101C28.93 27.3401 28.98 27.2901 29.05 27.3001ZM29.61 27.3001C29.67 27.3001 29.71 27.3401 29.71 27.4001C29.71 27.4701 29.67 27.5201 29.61 27.5201C29.5947 27.5215 29.5793 27.5197 29.5648 27.5148C29.5503 27.5099 29.5369 27.502 29.5256 27.4916C29.5143 27.4813 29.5053 27.4687 29.4992 27.4546C29.493 27.4406 29.4899 27.4254 29.49 27.4101C29.49 27.3401 29.54 27.2901 29.61 27.3001ZM30.17 27.3001C30.23 27.3001 30.27 27.3401 30.28 27.4001C30.2814 27.4154 30.2795 27.4307 30.2746 27.4453C30.2697 27.4598 30.2619 27.4731 30.2515 27.4844C30.2412 27.4957 30.2285 27.5047 30.2145 27.5109C30.2005 27.517 30.1853 27.5202 30.17 27.5201C30.1408 27.5201 30.1128 27.5085 30.0922 27.4879C30.0716 27.4672 30.06 27.4393 30.06 27.4101C30.06 27.3501 30.11 27.3001 30.16 27.3001H30.17ZM30.73 27.3001C30.79 27.3001 30.84 27.3401 30.84 27.4001C30.8414 27.4154 30.8395 27.4307 30.8346 27.4453C30.8297 27.4598 30.8219 27.4731 30.8115 27.4844C30.8012 27.4957 30.7885 27.5047 30.7745 27.5109C30.7605 27.517 30.7453 27.5202 30.73 27.5201C30.7008 27.5201 30.6728 27.5085 30.6522 27.4879C30.6316 27.4672 30.62 27.4393 30.62 27.4101C30.62 27.3501 30.67 27.3001 30.73 27.3001ZM31.29 27.3001C31.35 27.3001 31.4 27.3401 31.41 27.4001C31.4115 27.4162 31.4095 27.4325 31.404 27.4478C31.3985 27.463 31.3897 27.4769 31.3783 27.4884C31.3668 27.4998 31.3529 27.5086 31.3377 27.5141C31.3224 27.5196 31.3061 27.5216 31.29 27.5201C31.2626 27.5176 31.2371 27.5049 31.2186 27.4845C31.2001 27.4642 31.1899 27.4376 31.19 27.4101C31.19 27.3501 31.23 27.3001 31.29 27.3001ZM31.86 27.3001C31.8842 27.3019 31.9072 27.3117 31.9253 27.328C31.9434 27.3443 31.9556 27.3661 31.96 27.3901V27.4101C31.96 27.4701 31.92 27.5201 31.86 27.5201C31.8447 27.5215 31.8293 27.5197 31.8148 27.5148C31.8003 27.5099 31.7869 27.502 31.7756 27.4916C31.7643 27.4813 31.7553 27.4687 31.7492 27.4546C31.743 27.4406 31.7399 27.4254 31.74 27.4101C31.74 27.3501 31.79 27.3001 31.86 27.3001ZM32.42 27.3001C32.4448 27.3 32.4689 27.3091 32.4874 27.3258C32.5059 27.3424 32.5175 27.3653 32.52 27.3901V27.4101C32.52 27.4701 32.48 27.5201 32.42 27.5201C32.4047 27.5215 32.3893 27.5197 32.3748 27.5148C32.3603 27.5099 32.3469 27.502 32.3356 27.4916C32.3243 27.4813 32.3153 27.4687 32.3092 27.4546C32.303 27.4406 32.2999 27.4254 32.3 27.4101C32.3 27.3401 32.35 27.2901 32.42 27.3001ZM32.98 27.3001C33.04 27.3001 33.08 27.3401 33.09 27.4001C33.09 27.4701 33.04 27.5201 32.99 27.5201C32.9747 27.5215 32.9593 27.5197 32.9448 27.5148C32.9303 27.5099 32.9169 27.502 32.9056 27.4916C32.8943 27.4813 32.8853 27.4687 32.8792 27.4546C32.873 27.4406 32.8699 27.4254 32.87 27.4101C32.87 27.3401 32.92 27.2901 32.98 27.3001ZM33.54 27.3001C33.6 27.3001 33.65 27.3401 33.65 27.4001C33.65 27.4701 33.6 27.5201 33.55 27.5201C33.5347 27.5215 33.5193 27.5197 33.5048 27.5148C33.4903 27.5099 33.4769 27.502 33.4656 27.4916C33.4543 27.4813 33.4453 27.4687 33.4392 27.4546C33.433 27.4406 33.4299 27.4254 33.43 27.4101C33.43 27.3401 33.48 27.2901 33.54 27.3001ZM34.11 27.3001C34.16 27.3001 34.21 27.3401 34.21 27.4001C34.21 27.4701 34.17 27.5201 34.11 27.5201C34.0947 27.5215 34.0793 27.5197 34.0648 27.5148C34.0503 27.5099 34.0369 27.502 34.0256 27.4916C34.0143 27.4813 34.0053 27.4687 33.9992 27.4546C33.993 27.4406 33.9899 27.4254 33.99 27.4101C33.99 27.3401 34.04 27.2901 34.11 27.3001ZM34.67 27.3001C34.73 27.3001 34.77 27.3401 34.77 27.4001C34.7713 27.4145 34.7698 27.4291 34.7655 27.443C34.7613 27.4569 34.7543 27.4698 34.745 27.4809C34.7357 27.4921 34.7243 27.5013 34.7114 27.508C34.6985 27.5147 34.6844 27.5188 34.67 27.5201C34.6547 27.5215 34.6393 27.5197 34.6248 27.5148C34.6103 27.5099 34.5969 27.502 34.5856 27.4916C34.5743 27.4813 34.5653 27.4687 34.5592 27.4546C34.553 27.4406 34.5499 27.4254 34.55 27.4101C34.55 27.3501 34.6 27.3001 34.67 27.3001ZM18.93 28.7001C19.0547 28.6988 19.1785 28.722 19.2943 28.7686C19.41 28.8151 19.5155 28.884 19.6047 28.9713C19.6938 29.0585 19.7649 29.1625 19.8138 29.2773C19.8628 29.3921 19.8887 29.5153 19.89 29.6401C19.8927 29.7657 19.8702 29.8906 19.8238 30.0074C19.7775 30.1242 19.7081 30.2305 19.62 30.3201L17.82 32.1701C17.6915 32.3089 17.5241 32.4058 17.3397 32.448C17.1553 32.4902 16.9625 32.4758 16.7864 32.4067C16.6103 32.3376 16.4592 32.2169 16.3528 32.0605C16.2464 31.9041 16.1896 31.7193 16.19 31.5301C16.1872 31.4045 16.2097 31.2795 16.2561 31.1627C16.3025 31.0459 16.3718 30.9396 16.46 30.8501L18.26 29.0001C18.3458 28.9077 18.4494 28.8335 18.5645 28.782C18.6796 28.7304 18.8039 28.7026 18.93 28.7001ZM22.04 28.7001C22.1656 28.6974 22.2904 28.7197 22.4074 28.7656C22.5243 28.8116 22.6309 28.8802 22.7211 28.9677C22.8113 29.0551 22.8833 29.1595 22.9329 29.2749C22.9825 29.3904 23.0087 29.5145 23.01 29.6401C23.0127 29.7657 22.9902 29.8906 22.9438 30.0074C22.8975 30.1242 22.8281 30.2305 22.74 30.3201L20.93 32.1701C20.8226 32.2839 20.6886 32.3691 20.54 32.418C20.3914 32.4669 20.233 32.4779 20.0791 32.4501C19.9252 32.4223 19.7806 32.3565 19.6585 32.2587C19.5365 32.1609 19.4407 32.0342 19.38 31.8901C19.3037 31.7177 19.281 31.5263 19.3149 31.3408C19.3488 31.1554 19.4377 30.9844 19.57 30.8501L21.37 29.0001C21.4558 28.9077 21.5594 28.8335 21.6745 28.782C21.7896 28.7304 21.9139 28.7026 22.04 28.7001ZM25.15 28.7001C25.2756 28.6974 25.4004 28.7197 25.5173 28.7656C25.6343 28.8116 25.7409 28.8802 25.8311 28.9677C25.9213 29.0551 25.9933 29.1595 26.0429 29.2749C26.0925 29.3904 26.1187 29.5145 26.12 29.6401C26.1227 29.7657 26.1002 29.8906 26.0538 30.0074C26.0075 30.1242 25.9381 30.2305 25.85 30.3201L24.05 32.1701C23.9428 32.2861 23.8082 32.3733 23.6584 32.4236C23.5087 32.4739 23.3487 32.4856 23.1932 32.4577C23.0377 32.4298 22.8918 32.3632 22.7689 32.2639C22.646 32.1647 22.5501 32.0362 22.49 31.8901C22.4137 31.7177 22.391 31.5263 22.4249 31.3408C22.4588 31.1554 22.5477 30.9844 22.68 30.8501L24.48 29.0001C24.5658 28.9077 24.6694 28.8335 24.7845 28.782C24.8996 28.7304 25.0239 28.7026 25.15 28.7001ZM28.27 28.7001C28.4575 28.6991 28.6412 28.7536 28.7978 28.8569C28.9544 28.9601 29.0769 29.1073 29.15 29.2801C29.2262 29.4525 29.2489 29.6439 29.215 29.8293C29.1811 30.0148 29.0923 30.1858 28.96 30.3201L27.16 32.1701C27.0528 32.2861 26.9182 32.3733 26.7684 32.4236C26.6187 32.4739 26.4587 32.4856 26.3032 32.4577C26.1477 32.4298 26.0018 32.3632 25.8789 32.2639C25.756 32.1647 25.6601 32.0362 25.6 31.8901C25.5249 31.7167 25.5039 31.5248 25.5396 31.3392C25.5752 31.1537 25.666 30.9833 25.8 30.8501L27.6 29.0001C27.6858 28.9077 27.7894 28.8335 27.9045 28.782C28.0196 28.7304 28.1439 28.7026 28.27 28.7001ZM31.37 28.7001C31.5609 28.6951 31.7489 28.7478 31.9095 28.8512C32.07 28.9547 32.1956 29.1041 32.27 29.2801C32.345 29.4535 32.366 29.6454 32.3304 29.8309C32.2947 30.0164 32.2039 30.1869 32.07 30.3201L30.27 32.1701C30.1628 32.2861 30.0282 32.3733 29.8784 32.4236C29.7287 32.4739 29.5687 32.4856 29.4132 32.4577C29.2577 32.4298 29.1118 32.3632 28.9889 32.2639C28.866 32.1647 28.7701 32.0362 28.71 31.8901C28.6349 31.7167 28.6139 31.5248 28.6496 31.3392C28.6852 31.1537 28.776 30.9833 28.91 30.8501L30.71 29.0001C30.7958 28.9077 30.8994 28.8335 31.0145 28.782C31.1296 28.7304 31.2539 28.7026 31.38 28.7001H31.37ZM13.87 33.9101C13.9005 33.9101 13.9297 33.9222 13.9513 33.9438C13.9728 33.9653 13.985 33.9946 13.985 34.0251C13.985 34.0556 13.9728 34.0848 13.9513 34.1064C13.9297 34.128 13.9005 34.1401 13.87 34.1401C13.8547 34.1415 13.8393 34.1397 13.8248 34.1348C13.8103 34.1299 13.7969 34.122 13.7856 34.1116C13.7743 34.1013 13.7653 34.0887 13.7592 34.0746C13.753 34.0606 13.7499 34.0454 13.75 34.0301C13.75 33.9701 13.8 33.9101 13.86 33.9101H13.87ZM14.43 33.9101C14.4565 33.9101 14.4819 33.9206 14.5007 33.9394C14.5194 33.9581 14.53 33.9836 14.53 34.0101V34.0301C14.53 34.0901 14.49 34.1401 14.43 34.1401C14.4147 34.1415 14.3993 34.1397 14.3848 34.1348C14.3703 34.1299 14.3569 34.122 14.3456 34.1116C14.3343 34.1013 14.3253 34.0887 14.3192 34.0746C14.313 34.0606 14.3099 34.0454 14.31 34.0301C14.31 33.9701 14.36 33.9101 14.43 33.9101ZM14.99 33.9101C15.0175 33.91 15.0441 33.9202 15.0644 33.9387C15.0848 33.9572 15.0975 33.9827 15.1 34.0101V34.0301C15.1 34.0901 15.05 34.1401 14.99 34.1401C14.9747 34.1415 14.9593 34.1397 14.9448 34.1348C14.9303 34.1299 14.9169 34.122 14.9056 34.1116C14.8943 34.1013 14.8853 34.0887 14.8792 34.0746C14.873 34.0606 14.8699 34.0454 14.87 34.0301C14.87 33.9601 14.93 33.9101 14.99 33.9101ZM15.55 33.9101C15.61 33.9101 15.65 33.9601 15.66 34.0101V34.0301C15.66 34.0901 15.61 34.1401 15.56 34.1401C15.5447 34.1415 15.5293 34.1397 15.5148 34.1348C15.5003 34.1299 15.4869 34.122 15.4756 34.1116C15.4643 34.1013 15.4553 34.0887 15.4492 34.0746C15.443 34.0606 15.4399 34.0454 15.44 34.0301C15.44 33.9601 15.49 33.9101 15.55 33.9101ZM16.11 33.9101C16.17 33.9101 16.22 33.9601 16.23 34.0101V34.0301C16.23 34.0901 16.18 34.1401 16.11 34.1401C16.0808 34.1401 16.0528 34.1285 16.0322 34.1079C16.0116 34.0872 16 34.0593 16 34.0301C16 33.9601 16.05 33.9101 16.11 33.9101ZM16.68 33.9101C16.74 33.9101 16.78 33.9601 16.78 34.0101V34.0301C16.78 34.0901 16.74 34.1401 16.68 34.1401C16.6647 34.1415 16.6493 34.1397 16.6348 34.1348C16.6203 34.1299 16.6069 34.122 16.5956 34.1116C16.5843 34.1013 16.5753 34.0887 16.5692 34.0746C16.563 34.0606 16.5599 34.0454 16.56 34.0301C16.56 33.9601 16.61 33.9101 16.68 33.9101ZM17.24 33.9101C17.3 33.9101 17.34 33.9601 17.35 34.0101V34.0301C17.35 34.0593 17.3384 34.0872 17.3177 34.1079C17.2971 34.1285 17.2691 34.1401 17.24 34.1401C17.2108 34.1401 17.1828 34.1285 17.1622 34.1079C17.1416 34.0872 17.13 34.0593 17.13 34.0301C17.13 33.9701 17.18 33.9101 17.23 33.9101H17.24ZM17.8 33.9101C17.86 33.9101 17.9 33.9601 17.91 34.0101V34.0301C17.91 34.0593 17.8984 34.0872 17.8777 34.1079C17.8571 34.1285 17.8291 34.1401 17.8 34.1401C17.7708 34.1401 17.7428 34.1285 17.7222 34.1079C17.7016 34.0872 17.69 34.0593 17.69 34.0301C17.69 33.9701 17.74 33.9101 17.79 33.9101H17.8ZM18.36 33.9101C18.42 33.9101 18.47 33.9601 18.48 34.0101V34.0301C18.48 34.0454 18.4769 34.0606 18.4707 34.0746C18.4646 34.0887 18.4556 34.1013 18.4443 34.1116C18.433 34.122 18.4197 34.1299 18.4051 34.1348C18.3906 34.1397 18.3752 34.1415 18.36 34.1401C18.3308 34.1401 18.3028 34.1285 18.2822 34.1079C18.2616 34.0872 18.25 34.0593 18.25 34.0301C18.25 33.9701 18.3 33.9101 18.36 33.9101ZM18.92 33.9101C18.9339 33.9087 18.948 33.9102 18.9613 33.9146C18.9746 33.919 18.9869 33.9262 18.9972 33.9356C19.0076 33.945 19.0159 33.9565 19.0215 33.9694C19.0272 33.9822 19.03 33.9961 19.03 34.0101V34.0301C19.03 34.0901 18.98 34.1401 18.93 34.1401C18.9147 34.1415 18.8993 34.1397 18.8848 34.1348C18.8703 34.1299 18.8569 34.122 18.8456 34.1116C18.8343 34.1013 18.8253 34.0887 18.8192 34.0746C18.813 34.0606 18.8099 34.0454 18.81 34.0301C18.81 33.9701 18.86 33.9101 18.92 33.9101ZM19.49 33.9101C19.55 33.9101 19.59 33.9601 19.59 34.0101V34.0301C19.59 34.0901 19.55 34.1401 19.49 34.1401C19.4747 34.1415 19.4593 34.1397 19.4448 34.1348C19.4303 34.1299 19.4169 34.122 19.4056 34.1116C19.3943 34.1013 19.3853 34.0887 19.3792 34.0746C19.373 34.0606 19.3699 34.0454 19.37 34.0301C19.37 33.9601 19.42 33.9101 19.49 33.9101ZM20.05 33.9101C20.11 33.9101 20.15 33.9601 20.16 34.0101V34.0301C20.16 34.0901 20.11 34.1401 20.05 34.1401C20.0208 34.1401 19.9928 34.1285 19.9722 34.1079C19.9516 34.0872 19.94 34.0593 19.94 34.0301C19.94 33.9601 19.99 33.9101 20.04 33.9101H20.05ZM20.61 33.9101C20.67 33.9101 20.71 33.9601 20.72 34.0101V34.0301C20.72 34.0901 20.67 34.1401 20.62 34.1401C20.6047 34.1415 20.5893 34.1397 20.5748 34.1348C20.5603 34.1299 20.5469 34.122 20.5356 34.1116C20.5243 34.1013 20.5153 34.0887 20.5092 34.0746C20.503 34.0606 20.4999 34.0454 20.5 34.0301C20.5 33.9601 20.55 33.9101 20.61 33.9101ZM21.17 33.9101C21.23 33.9101 21.28 33.9601 21.28 34.0101V34.0301C21.28 34.0901 21.23 34.1401 21.18 34.1401C21.1647 34.1415 21.1493 34.1397 21.1348 34.1348C21.1203 34.1299 21.1069 34.122 21.0956 34.1116C21.0843 34.1013 21.0753 34.0887 21.0692 34.0746C21.063 34.0606 21.0599 34.0454 21.06 34.0301C21.06 33.9601 21.11 33.9101 21.17 33.9101ZM21.73 33.9101C21.79 33.9101 21.84 33.9601 21.85 34.0101V34.0301C21.85 34.0454 21.8469 34.0606 21.8407 34.0746C21.8346 34.0887 21.8256 34.1013 21.8143 34.1116C21.803 34.122 21.7897 34.1299 21.7751 34.1348C21.7606 34.1397 21.7452 34.1415 21.73 34.1401C21.7026 34.1376 21.6771 34.1249 21.6586 34.1045C21.6401 34.0842 21.6299 34.0576 21.63 34.0301C21.63 33.9701 21.67 33.9101 21.73 33.9101ZM22.3 33.9101C22.36 33.9101 22.4 33.9601 22.41 34.0101V34.0301C22.41 34.0593 22.3984 34.0872 22.3777 34.1079C22.3571 34.1285 22.3291 34.1401 22.3 34.1401C22.2708 34.1401 22.2428 34.1285 22.2222 34.1079C22.2016 34.0872 22.19 34.0593 22.19 34.0301C22.19 33.9701 22.23 33.9101 22.29 33.9101H22.3ZM22.86 33.9101C22.8905 33.9101 22.9197 33.9222 22.9413 33.9438C22.9628 33.9653 22.975 33.9946 22.975 34.0251C22.975 34.0556 22.9628 34.0848 22.9413 34.1064C22.9197 34.128 22.8905 34.1401 22.86 34.1401C22.8308 34.1401 22.8028 34.1285 22.7822 34.1079C22.7616 34.0872 22.75 34.0593 22.75 34.0301C22.75 33.9701 22.8 33.9101 22.85 33.9101H22.86ZM23.42 33.9101C23.48 33.9101 23.52 33.9501 23.53 34.0101V34.0301C23.53 34.0901 23.48 34.1401 23.43 34.1401C23.4147 34.1415 23.3993 34.1397 23.3848 34.1348C23.3703 34.1299 23.3569 34.122 23.3456 34.1116C23.3343 34.1013 23.3253 34.0887 23.3192 34.0746C23.313 34.0606 23.3099 34.0454 23.31 34.0301C23.31 33.9701 23.36 33.9101 23.42 33.9101ZM23.98 33.9101C23.9944 33.9087 24.009 33.9102 24.0229 33.9145C24.0368 33.9188 24.0496 33.9258 24.0608 33.9351C24.072 33.9444 24.0812 33.9558 24.0879 33.9687C24.0946 33.9815 24.0987 33.9956 24.1 34.0101V34.0301C24.1 34.0901 24.05 34.1401 23.98 34.1401C23.9526 34.1376 23.9271 34.1249 23.9086 34.1045C23.8901 34.0842 23.8799 34.0576 23.88 34.0301C23.88 33.9601 23.92 33.9101 23.98 33.9101ZM24.55 33.9101C24.61 33.9101 24.65 33.9601 24.65 34.0101V34.0301C24.65 34.0901 24.61 34.1401 24.55 34.1401C24.5347 34.1415 24.5193 34.1397 24.5048 34.1348C24.4903 34.1299 24.4769 34.122 24.4656 34.1116C24.4543 34.1013 24.4453 34.0887 24.4392 34.0746C24.433 34.0606 24.4299 34.0454 24.43 34.0301C24.43 33.9601 24.48 33.9101 24.55 33.9101ZM25.11 33.9101C25.17 33.9101 25.21 33.9601 25.22 34.0101V34.0301C25.22 34.0901 25.17 34.1401 25.11 34.1401C25.0808 34.1401 25.0528 34.1285 25.0322 34.1079C25.0116 34.0872 25 34.0593 25 34.0301C25 33.9601 25.05 33.9101 25.1 33.9101H25.11ZM25.67 33.9101C25.73 33.9101 25.77 33.9601 25.78 34.0101V34.0301C25.78 34.0593 25.7684 34.0872 25.7477 34.1079C25.7271 34.1285 25.6991 34.1401 25.67 34.1401C25.6408 34.1401 25.6128 34.1285 25.5922 34.1079C25.5716 34.0872 25.56 34.0593 25.56 34.0301C25.56 33.9701 25.61 33.9101 25.66 33.9101H25.67ZM26.23 33.9101C26.29 33.9101 26.34 33.9601 26.35 34.0101V34.0301C26.35 34.0454 26.3469 34.0606 26.3407 34.0746C26.3346 34.0887 26.3256 34.1013 26.3143 34.1116C26.303 34.122 26.2897 34.1299 26.2751 34.1348C26.2606 34.1397 26.2452 34.1415 26.23 34.1401C26.2026 34.1376 26.1771 34.1249 26.1586 34.1045C26.1401 34.0842 26.1299 34.0576 26.13 34.0301C26.13 33.9701 26.17 33.9101 26.23 33.9101ZM26.8 33.9101C26.85 33.9101 26.9 33.9601 26.9 34.0101V34.0301C26.9001 34.0576 26.8899 34.0842 26.8714 34.1045C26.8528 34.1249 26.8274 34.1376 26.8 34.1401C26.7847 34.1415 26.7693 34.1397 26.7548 34.1348C26.7403 34.1299 26.7269 34.122 26.7156 34.1116C26.7043 34.1013 26.6953 34.0887 26.6892 34.0746C26.683 34.0606 26.6799 34.0454 26.68 34.0301C26.68 33.9701 26.73 33.9101 26.79 33.9101H26.8ZM27.36 33.9101C27.3905 33.9101 27.4197 33.9222 27.4413 33.9438C27.4628 33.9653 27.475 33.9946 27.475 34.0251C27.475 34.0556 27.4628 34.0848 27.4413 34.1064C27.4197 34.128 27.3905 34.1401 27.36 34.1401C27.3308 34.1401 27.3028 34.1285 27.2822 34.1079C27.2616 34.0872 27.25 34.0593 27.25 34.0301C27.25 33.9701 27.3 33.9101 27.35 33.9101H27.36ZM27.92 33.9101C27.9339 33.9087 27.948 33.9102 27.9613 33.9146C27.9746 33.919 27.9869 33.9262 27.9972 33.9356C28.0076 33.945 28.0159 33.9565 28.0215 33.9694C28.0272 33.9822 28.03 33.9961 28.03 34.0101V34.0301C28.03 34.0901 27.98 34.1401 27.92 34.1401C27.8908 34.1401 27.8628 34.1285 27.8422 34.1079C27.8216 34.0872 27.81 34.0593 27.81 34.0301C27.81 33.9701 27.86 33.9101 27.91 33.9101H27.92ZM28.48 33.9101C28.54 33.9101 28.59 33.9601 28.59 34.0101V34.0301C28.59 34.0901 28.54 34.1401 28.49 34.1401C28.4747 34.1415 28.4593 34.1397 28.4448 34.1348C28.4303 34.1299 28.4169 34.122 28.4056 34.1116C28.3943 34.1013 28.3853 34.0887 28.3792 34.0746C28.373 34.0606 28.3699 34.0454 28.37 34.0301C28.37 33.9601 28.42 33.9101 28.48 33.9101ZM29.05 33.9101C29.1 33.9101 29.15 33.9601 29.15 34.0101V34.0301C29.15 34.0901 29.11 34.1401 29.05 34.1401C29.0347 34.1415 29.0193 34.1397 29.0048 34.1348C28.9903 34.1299 28.9769 34.122 28.9656 34.1116C28.9543 34.1013 28.9453 34.0887 28.9392 34.0746C28.933 34.0606 28.9299 34.0454 28.93 34.0301C28.93 33.9601 28.98 33.9101 29.05 33.9101ZM29.61 33.9101C29.67 33.9101 29.71 33.9601 29.71 34.0101V34.0301C29.71 34.0901 29.67 34.1401 29.61 34.1401C29.5947 34.1415 29.5793 34.1397 29.5648 34.1348C29.5503 34.1299 29.5369 34.122 29.5256 34.1116C29.5143 34.1013 29.5053 34.0887 29.4992 34.0746C29.493 34.0606 29.4899 34.0454 29.49 34.0301C29.49 33.9601 29.54 33.9101 29.61 33.9101ZM30.17 33.9101C30.23 33.9101 30.27 33.9601 30.28 34.0101V34.0301C30.28 34.0593 30.2684 34.0872 30.2477 34.1079C30.2271 34.1285 30.1991 34.1401 30.17 34.1401C30.1408 34.1401 30.1128 34.1285 30.0922 34.1079C30.0716 34.0872 30.06 34.0593 30.06 34.0301C30.06 33.9701 30.11 33.9101 30.16 33.9101H30.17ZM30.73 33.9101C30.79 33.9101 30.84 33.9601 30.84 34.0101V34.0301C30.84 34.0593 30.8284 34.0872 30.8077 34.1079C30.7871 34.1285 30.7591 34.1401 30.73 34.1401C30.7008 34.1401 30.6728 34.1285 30.6522 34.1079C30.6316 34.0872 30.62 34.0593 30.62 34.0301C30.62 33.9701 30.67 33.9101 30.73 33.9101ZM31.29 33.9101C31.35 33.9101 31.4 33.9601 31.41 34.0101V34.0301C31.41 34.0454 31.4069 34.0606 31.4007 34.0746C31.3946 34.0887 31.3856 34.1013 31.3743 34.1116C31.363 34.122 31.3497 34.1299 31.3351 34.1348C31.3206 34.1397 31.3052 34.1415 31.29 34.1401C31.2626 34.1376 31.2371 34.1249 31.2186 34.1045C31.2001 34.0842 31.1899 34.0576 31.19 34.0301C31.19 33.9701 31.23 33.9101 31.29 33.9101ZM31.86 33.9101C31.8857 33.9123 31.9099 33.9236 31.9282 33.9419C31.9465 33.9602 31.9577 33.9843 31.96 34.0101V34.0301C31.96 34.0901 31.92 34.1401 31.86 34.1401C31.8447 34.1415 31.8293 34.1397 31.8148 34.1348C31.8003 34.1299 31.7869 34.122 31.7756 34.1116C31.7643 34.1013 31.7553 34.0887 31.7492 34.0746C31.743 34.0606 31.7399 34.0454 31.74 34.0301C31.74 33.9701 31.79 33.9101 31.86 33.9101ZM32.42 33.9101C32.4465 33.9101 32.4719 33.9206 32.4907 33.9394C32.5094 33.9581 32.52 33.9836 32.52 34.0101V34.0301C32.52 34.0901 32.48 34.1401 32.42 34.1401C32.4047 34.1415 32.3893 34.1397 32.3748 34.1348C32.3603 34.1299 32.3469 34.122 32.3356 34.1116C32.3243 34.1013 32.3153 34.0887 32.3092 34.0746C32.303 34.0606 32.2999 34.0454 32.3 34.0301C32.3 33.9601 32.35 33.9101 32.42 33.9101ZM32.98 33.9101C33.04 33.9101 33.08 33.9601 33.09 34.0101V34.0301C33.09 34.0901 33.04 34.1401 32.99 34.1401C32.9747 34.1415 32.9593 34.1397 32.9448 34.1348C32.9303 34.1299 32.9169 34.122 32.9056 34.1116C32.8943 34.1013 32.8853 34.0887 32.8792 34.0746C32.873 34.0606 32.8699 34.0454 32.87 34.0301C32.87 33.9601 32.92 33.9101 32.98 33.9101ZM33.54 33.9101C33.6 33.9101 33.65 33.9601 33.65 34.0101V34.0301C33.65 34.0901 33.6 34.1401 33.55 34.1401C33.5347 34.1415 33.5193 34.1397 33.5048 34.1348C33.4903 34.1299 33.4769 34.122 33.4656 34.1116C33.4543 34.1013 33.4453 34.0887 33.4392 34.0746C33.433 34.0606 33.4299 34.0454 33.43 34.0301C33.43 33.9601 33.48 33.9101 33.54 33.9101ZM34.11 33.9101C34.16 33.9101 34.21 33.9601 34.21 34.0101V34.0301C34.21 34.0901 34.17 34.1401 34.11 34.1401C34.0947 34.1415 34.0793 34.1397 34.0648 34.1348C34.0503 34.1299 34.0369 34.122 34.0256 34.1116C34.0143 34.1013 34.0053 34.0887 33.9992 34.0746C33.993 34.0606 33.9899 34.0454 33.99 34.0301C33.99 33.9601 34.04 33.9101 34.11 33.9101ZM34.67 33.9101C34.73 33.9101 34.77 33.9601 34.77 34.0101V34.0301C34.7701 34.0576 34.7599 34.0842 34.7414 34.1045C34.7228 34.1249 34.6974 34.1376 34.67 34.1401C34.6547 34.1415 34.6393 34.1397 34.6248 34.1348C34.6103 34.1299 34.5969 34.122 34.5856 34.1116C34.5743 34.1013 34.5653 34.0887 34.5592 34.0746C34.553 34.0606 34.5499 34.0454 34.55 34.0301C34.55 33.9701 34.6 33.9101 34.67 33.9101ZM18.93 35.2101C19.1802 35.2074 19.4214 35.3036 19.6012 35.4777C19.7809 35.6518 19.8847 35.8899 19.89 36.1401C19.8914 36.2641 19.8682 36.3871 19.8219 36.5021C19.7756 36.617 19.7069 36.7217 19.62 36.8101L17.82 38.6701C17.6915 38.8089 17.5241 38.9058 17.3397 38.948C17.1553 38.9902 16.9625 38.9758 16.7864 38.9067C16.6103 38.8376 16.4592 38.7169 16.3528 38.5605C16.2464 38.4041 16.1896 38.2193 16.19 38.0301C16.1872 37.9044 16.2097 37.7795 16.2561 37.6627C16.3025 37.5459 16.3718 37.4396 16.46 37.3501L18.26 35.4901C18.3467 35.3995 18.4506 35.3272 18.5657 35.2774C18.6807 35.2276 18.8046 35.2013 18.93 35.2001V35.2101ZM22.04 35.2101C22.1647 35.2074 22.2888 35.2294 22.4051 35.2747C22.5213 35.32 22.6276 35.3878 22.7176 35.4741C22.8077 35.5605 22.8799 35.6638 22.9301 35.778C22.9802 35.8923 23.0074 36.0153 23.01 36.1401C23.0114 36.2641 22.9882 36.3871 22.9419 36.5021C22.8956 36.617 22.8269 36.7217 22.74 36.8101L20.93 38.6701C20.8226 38.7839 20.6886 38.8691 20.54 38.918C20.3914 38.9669 20.233 38.9779 20.0791 38.9501C19.9252 38.9223 19.7806 38.8565 19.6585 38.7587C19.5365 38.6609 19.4407 38.5342 19.38 38.3901C19.3037 38.2177 19.281 38.0263 19.3149 37.8408C19.3488 37.6554 19.4377 37.4844 19.57 37.3501L21.37 35.4901C21.4567 35.3995 21.5606 35.3272 21.6757 35.2774C21.7907 35.2276 21.9146 35.2013 22.04 35.2001V35.2101ZM25.15 35.2101C25.2747 35.2074 25.3988 35.2294 25.5151 35.2747C25.6313 35.32 25.7376 35.3878 25.8276 35.4741C25.9177 35.5605 25.9899 35.6638 26.0401 35.778C26.0902 35.8923 26.1174 36.0153 26.12 36.1401C26.1214 36.2641 26.0982 36.3871 26.0519 36.5021C26.0056 36.617 25.9369 36.7217 25.85 36.8101L24.05 38.6701C23.9428 38.7861 23.8082 38.8733 23.6584 38.9236C23.5087 38.9739 23.3487 38.9856 23.1932 38.9577C23.0377 38.9298 22.8918 38.8632 22.7689 38.7639C22.646 38.6647 22.5501 38.5362 22.49 38.3901C22.4137 38.2177 22.391 38.0263 22.4249 37.8408C22.4588 37.6554 22.5477 37.4844 22.68 37.3501L24.48 35.4901C24.5667 35.3995 24.6706 35.3272 24.7857 35.2774C24.9007 35.2276 25.0246 35.2013 25.15 35.2001V35.2101ZM28.27 35.2101C28.4564 35.2083 28.6392 35.2613 28.7957 35.3627C28.9522 35.4641 29.0754 35.6092 29.15 35.7801C29.2241 35.9513 29.2455 36.1406 29.2117 36.324C29.1779 36.5074 29.0902 36.6766 28.96 36.8101L27.16 38.6701C27.0528 38.7861 26.9182 38.8733 26.7684 38.9236C26.6187 38.9739 26.4587 38.9856 26.3032 38.9577C26.1477 38.9298 26.0018 38.8632 25.8789 38.7639C25.756 38.6647 25.6601 38.5362 25.6 38.3901C25.5249 38.2167 25.5039 38.0248 25.5396 37.8392C25.5752 37.6537 25.666 37.4833 25.8 37.3501L27.6 35.4901C27.6867 35.3995 27.7906 35.3272 27.9057 35.2774C28.0207 35.2276 28.1446 35.2013 28.27 35.2001V35.2101ZM31.37 35.2101C31.5598 35.2043 31.747 35.2555 31.9074 35.3571C32.0678 35.4587 32.1941 35.606 32.27 35.7801C32.3428 35.9522 32.3627 36.1421 32.327 36.3256C32.2914 36.5091 32.2019 36.6777 32.07 36.8101L30.27 38.6701C30.1628 38.7861 30.0282 38.8733 29.8784 38.9236C29.7287 38.9739 29.5687 38.9856 29.4132 38.9577C29.2577 38.9298 29.1118 38.8632 28.9889 38.7639C28.866 38.6647 28.7701 38.5362 28.71 38.3901C28.6349 38.2167 28.6139 38.0248 28.6496 37.8392C28.6852 37.6537 28.776 37.4833 28.91 37.3501L30.71 35.4901C30.7967 35.3995 30.9006 35.3272 31.0157 35.2774C31.1307 35.2276 31.2546 35.2013 31.38 35.2001L31.37 35.2101Z" fill="#333333"/>
</svg>
