<svg width="48" height="48" viewBox="0 0 48 48" fill="none" xmlns="http://www.w3.org/2000/svg">
<path d="M14.346 4.09402C13.476 4.09402 12.777 4.79302 12.777 5.66202V42.523C12.777 43.393 13.477 44.093 14.346 44.093H34.05C34.2562 44.0935 34.4605 44.0533 34.6511 43.9745C34.8417 43.8958 35.0149 43.7802 35.1606 43.6342C35.3063 43.4883 35.4218 43.315 35.5003 43.1243C35.5788 42.9336 35.6188 42.7292 35.618 42.523V5.66302C35.618 4.79302 34.919 4.09302 34.05 4.09302H14.346V4.09402ZM18.225 9.23602C18.408 9.21302 18.597 9.27202 18.91 9.46902C18.9997 9.55538 19.0715 9.65862 19.1212 9.77282C19.1709 9.88702 19.1976 10.0099 19.1996 10.1344C19.2016 10.259 19.1791 10.3827 19.1331 10.4984C19.0872 10.6142 19.0188 10.7198 18.932 10.809L17.123 12.668C17.0365 12.7577 16.9331 12.8294 16.8187 12.8789C16.7044 12.9284 16.5813 12.9548 16.4567 12.9565C16.3321 12.9581 16.2084 12.9351 16.0928 12.8887C15.9771 12.8423 15.8718 12.7734 15.783 12.686C15.6933 12.5996 15.6216 12.4963 15.572 12.3821C15.5224 12.2678 15.4958 12.1449 15.4939 12.0204C15.4919 11.8959 15.5146 11.7722 15.5606 11.6564C15.6066 11.5407 15.6751 11.4352 15.762 11.346L17.57 9.49002C17.862 9.36302 18.04 9.25902 18.225 9.23602ZM21.787 9.23602C21.971 9.21302 22.16 9.27202 22.473 9.46902C22.5627 9.55544 22.6344 9.65874 22.684 9.77297C22.7336 9.88721 22.7601 10.0101 22.7621 10.1347C22.764 10.2592 22.7414 10.3829 22.6954 10.4986C22.6493 10.6143 22.5809 10.7198 22.494 10.809L20.686 12.668C20.5995 12.7577 20.4961 12.8294 20.3817 12.8789C20.2674 12.9284 20.1443 12.9548 20.0197 12.9565C19.8951 12.9581 19.7714 12.9351 19.6558 12.8887C19.5401 12.8423 19.4348 12.7734 19.346 12.686C19.2562 12.5997 19.1844 12.4964 19.1347 12.3822C19.085 12.268 19.0584 12.1451 19.0564 12.0206C19.0543 11.8961 19.0769 11.7724 19.1228 11.6566C19.1688 11.5408 19.2371 11.4353 19.324 11.346L21.133 9.49002C21.424 9.36302 21.603 9.25902 21.787 9.23602ZM25.164 9.23602C25.348 9.21302 25.536 9.27202 25.85 9.46902C25.9397 9.55544 26.0114 9.65874 26.061 9.77297C26.1106 9.88721 26.1371 10.0101 26.1391 10.1347C26.1411 10.2592 26.1184 10.3829 26.0724 10.4986C26.0263 10.6143 25.9579 10.7198 25.871 10.809L24.063 12.668C23.9765 12.7577 23.8731 12.8294 23.7587 12.8789C23.6444 12.9284 23.5213 12.9548 23.3967 12.9565C23.2721 12.9581 23.1484 12.9351 23.0328 12.8887C22.9171 12.8423 22.8118 12.7734 22.723 12.686C22.6332 12.5997 22.5614 12.4964 22.5117 12.3822C22.462 12.268 22.4354 12.1451 22.4334 12.0206C22.4313 11.8961 22.4539 11.7724 22.4998 11.6566C22.5458 11.5408 22.6141 11.4353 22.701 11.346L24.51 9.49002C24.801 9.36302 24.98 9.25902 25.164 9.23602ZM28.727 9.23602C28.91 9.21302 29.099 9.27202 29.412 9.46902C29.5017 9.55538 29.5735 9.65862 29.6232 9.77282C29.6729 9.88702 29.6996 10.0099 29.7016 10.1344C29.7036 10.259 29.6811 10.3827 29.6351 10.4984C29.5892 10.6142 29.5208 10.7198 29.434 10.809L27.625 12.668C27.5385 12.7577 27.4351 12.8294 27.3207 12.8789C27.2064 12.9284 27.0833 12.9548 26.9587 12.9565C26.8341 12.9581 26.7104 12.9351 26.5948 12.8887C26.4791 12.8423 26.3738 12.7734 26.285 12.686C26.1953 12.5996 26.1236 12.4963 26.074 12.3821C26.0244 12.2678 25.9978 12.1449 25.9959 12.0204C25.9939 11.8959 26.0166 11.7722 26.0626 11.6564C26.1086 11.5407 26.1771 11.4352 26.264 11.346L28.072 9.49002C28.364 9.36302 28.542 9.25902 28.727 9.23602ZM31.926 9.23602C32.11 9.21302 32.3 9.27202 32.613 9.46902C32.7027 9.55538 32.7745 9.65862 32.8242 9.77282C32.8739 9.88702 32.9006 10.0099 32.9026 10.1344C32.9046 10.259 32.8821 10.3827 32.8361 10.4984C32.7902 10.6142 32.7218 10.7198 32.635 10.809L30.826 12.668C30.7395 12.7577 30.6361 12.8294 30.5217 12.8789C30.4074 12.9284 30.2843 12.9548 30.1597 12.9565C30.0351 12.9581 29.9114 12.9351 29.7958 12.8887C29.6801 12.8423 29.5748 12.7734 29.486 12.686C29.3963 12.5996 29.3246 12.4963 29.275 12.3821C29.2254 12.2678 29.1988 12.1449 29.1969 12.0204C29.1949 11.8959 29.2176 11.7722 29.2636 11.6564C29.3096 11.5407 29.3781 11.4352 29.465 11.346L31.273 9.49002C31.565 9.36302 31.742 9.25902 31.926 9.23602ZM13.795 14.98C13.8232 14.9827 13.8495 14.9958 13.8686 15.0168C13.8877 15.0378 13.8983 15.0651 13.8983 15.0935C13.8983 15.1219 13.8877 15.1493 13.8686 15.1703C13.8495 15.1913 13.8232 15.2044 13.795 15.207C13.7654 15.2062 13.7374 15.194 13.7166 15.1729C13.6959 15.1519 13.6842 15.1236 13.684 15.094C13.684 15.031 13.733 14.981 13.794 14.98H13.795ZM14.357 14.98V14.982C14.3839 14.9812 14.4102 14.9904 14.4309 15.0077C14.4515 15.025 14.4651 15.0493 14.469 15.076V15.094C14.468 15.155 14.419 15.207 14.357 15.207C14.3272 15.2065 14.2987 15.1944 14.2776 15.1734C14.2566 15.1523 14.2445 15.1238 14.244 15.094C14.244 15.031 14.295 14.981 14.357 14.98ZM14.92 14.98V14.982C14.9468 14.9815 14.9728 14.9907 14.9932 15.0081C15.0137 15.0254 15.0271 15.0495 15.031 15.076V15.094C15.031 15.155 14.981 15.207 14.92 15.207C14.8901 15.2068 14.8615 15.1948 14.8404 15.1736C14.8192 15.1525 14.8072 15.1239 14.807 15.094C14.807 15.031 14.857 14.98 14.92 14.98ZM15.482 14.98V14.982C15.542 14.982 15.59 15.029 15.594 15.088V15.094C15.593 15.155 15.544 15.207 15.482 15.207C15.4521 15.2068 15.4235 15.1948 15.4024 15.1736C15.3812 15.1525 15.3692 15.1239 15.369 15.094C15.369 15.031 15.419 14.98 15.482 14.98ZM16.045 14.98V14.982C16.105 14.982 16.153 15.029 16.156 15.088V15.094C16.156 15.155 16.106 15.207 16.045 15.207C16.0151 15.2068 15.9865 15.1948 15.9654 15.1736C15.9442 15.1525 15.9322 15.1239 15.932 15.094C15.932 15.031 15.982 14.98 16.045 14.98ZM16.607 14.98V14.982C16.667 14.982 16.715 15.029 16.719 15.088V15.094C16.718 15.155 16.669 15.207 16.607 15.207C16.5771 15.2068 16.5485 15.1948 16.5274 15.1736C16.5062 15.1525 16.4942 15.1239 16.494 15.094C16.494 15.031 16.544 14.98 16.607 14.98ZM17.168 14.98V14.982C17.228 14.982 17.278 15.028 17.281 15.088V15.094C17.2807 15.1239 17.2687 15.1525 17.2476 15.1736C17.2265 15.1948 17.1979 15.2068 17.168 15.207C17.1384 15.2062 17.1104 15.194 17.0896 15.1729C17.0689 15.1519 17.0572 15.1236 17.057 15.094C17.057 15.031 17.106 14.981 17.168 14.98ZM17.731 14.98V14.982C17.791 14.982 17.841 15.028 17.844 15.088V15.094C17.8437 15.1241 17.8316 15.1528 17.8102 15.174C17.7889 15.1951 17.76 15.207 17.73 15.207C17.7006 15.206 17.6728 15.1937 17.6523 15.1726C17.6318 15.1516 17.6202 15.1234 17.62 15.094C17.619 15.031 17.669 14.981 17.73 14.98H17.731ZM18.293 14.98V14.982C18.353 14.982 18.403 15.028 18.406 15.088V15.094C18.4057 15.1239 18.3937 15.1525 18.3726 15.1736C18.3515 15.1948 18.3229 15.2068 18.293 15.207C18.2634 15.2062 18.2354 15.194 18.2146 15.1729C18.1939 15.1519 18.1822 15.1236 18.182 15.094C18.182 15.031 18.231 14.981 18.293 14.98ZM18.856 14.98V14.982C18.8826 14.9817 18.9084 14.9911 18.9286 15.0084C18.9488 15.0257 18.9621 15.0497 18.966 15.076V15.094C18.966 15.155 18.916 15.207 18.856 15.207C18.8263 15.2065 18.7979 15.1944 18.777 15.1733C18.7561 15.1522 18.7442 15.1237 18.744 15.094C18.744 15.031 18.794 14.981 18.855 14.98H18.856ZM19.418 14.98V14.982C19.478 14.982 19.526 15.029 19.529 15.088V15.094C19.529 15.155 19.479 15.207 19.418 15.207C19.3881 15.2068 19.3595 15.1948 19.3384 15.1736C19.3172 15.1525 19.3052 15.1239 19.305 15.094C19.305 15.031 19.355 14.98 19.418 14.98ZM19.981 14.98V14.982C20.04 14.982 20.088 15.029 20.091 15.088V15.094C20.091 15.155 20.041 15.207 19.981 15.207C19.9509 15.207 19.9221 15.1951 19.9007 15.174C19.8794 15.1528 19.8672 15.1241 19.867 15.094C19.867 15.031 19.917 14.98 19.98 14.98H19.981ZM20.543 14.98V14.982C20.603 14.982 20.651 15.029 20.654 15.088V15.094C20.654 15.155 20.604 15.207 20.543 15.207C20.5131 15.2068 20.4845 15.1948 20.4634 15.1736C20.4422 15.1525 20.4302 15.1239 20.43 15.094C20.43 15.031 20.48 14.98 20.543 14.98ZM21.106 14.98V14.982C21.165 14.982 21.213 15.029 21.216 15.088V15.094C21.216 15.155 21.166 15.207 21.106 15.207C21.0759 15.207 21.0471 15.1951 21.0257 15.174C21.0044 15.1528 20.9922 15.1241 20.992 15.094C20.992 15.031 21.042 14.98 21.105 14.98H21.106ZM21.666 14.98V14.982C21.726 14.982 21.776 15.028 21.779 15.088V15.094C21.7787 15.1239 21.7667 15.1525 21.7456 15.1736C21.7245 15.1948 21.6959 15.2068 21.666 15.207C21.6364 15.2062 21.6084 15.194 21.5876 15.1729C21.5669 15.1519 21.5552 15.1236 21.555 15.094C21.555 15.031 21.604 14.981 21.666 14.98ZM22.229 14.98V14.982C22.289 14.982 22.339 15.028 22.342 15.088V15.094C22.3417 15.1239 22.3297 15.1525 22.3086 15.1736C22.2875 15.1948 22.2589 15.2068 22.229 15.207C22.1993 15.2065 22.1709 15.1944 22.15 15.1733C22.1291 15.1522 22.1172 15.1237 22.117 15.094C22.117 15.031 22.167 14.981 22.228 14.98H22.229ZM22.791 14.98C22.8192 14.9827 22.8455 14.9958 22.8646 15.0168C22.8837 15.0378 22.8943 15.0651 22.8943 15.0935C22.8943 15.1219 22.8837 15.1493 22.8646 15.1703C22.8455 15.1913 22.8192 15.2044 22.791 15.207C22.7614 15.2062 22.7334 15.194 22.7126 15.1729C22.6919 15.1519 22.6802 15.1236 22.68 15.094C22.68 15.031 22.729 14.981 22.791 14.98ZM23.354 14.98V14.982C23.408 14.982 23.457 15.022 23.464 15.076V15.094C23.464 15.155 23.414 15.207 23.354 15.207C23.3243 15.2065 23.2959 15.1944 23.275 15.1733C23.2541 15.1522 23.2422 15.1237 23.242 15.094C23.242 15.031 23.292 14.981 23.353 14.98H23.354ZM23.916 14.98V14.982C23.9428 14.9815 23.9688 14.9907 23.9892 15.0081C24.0097 15.0254 24.0231 15.0495 24.027 15.076V15.094C24.027 15.155 23.977 15.207 23.916 15.207C23.8861 15.2068 23.8575 15.1948 23.8364 15.1736C23.8152 15.1525 23.8032 15.1239 23.803 15.094C23.803 15.031 23.853 14.98 23.916 14.98ZM24.479 14.98V14.982C24.538 14.982 24.586 15.029 24.589 15.088V15.094C24.589 15.155 24.539 15.207 24.479 15.207C24.4489 15.207 24.4201 15.1951 24.3987 15.174C24.3774 15.1528 24.3652 15.1241 24.365 15.094C24.365 15.031 24.415 14.98 24.479 14.98ZM25.041 14.98V14.982C25.101 14.982 25.149 15.029 25.152 15.088V15.094C25.152 15.155 25.102 15.207 25.041 15.207C25.0111 15.2068 24.9825 15.1948 24.9614 15.1736C24.9402 15.1525 24.9282 15.1239 24.928 15.094C24.928 15.031 24.978 14.98 25.041 14.98ZM25.601 14.98V14.982C25.661 14.982 25.711 15.028 25.715 15.088V15.094C25.7147 15.1239 25.7027 15.1525 25.6816 15.1736C25.6605 15.1948 25.6319 15.2068 25.602 15.207C25.5723 15.2065 25.5439 15.1944 25.523 15.1733C25.5021 15.1522 25.4902 15.1237 25.49 15.094C25.49 15.031 25.54 14.981 25.602 14.98H25.601ZM26.164 14.98V14.982C26.224 14.982 26.274 15.028 26.277 15.088V15.094C26.2767 15.1239 26.2647 15.1525 26.2436 15.1736C26.2225 15.1948 26.1939 15.2068 26.164 15.207C26.1344 15.2062 26.1064 15.194 26.0856 15.1729C26.0649 15.1519 26.0532 15.1236 26.053 15.094C26.053 15.031 26.103 14.981 26.164 14.98ZM26.727 14.98V14.982C26.787 14.982 26.837 15.028 26.84 15.088V15.094C26.8397 15.1239 26.8277 15.1525 26.8066 15.1736C26.7855 15.1948 26.7569 15.2068 26.727 15.207C26.6973 15.2065 26.6689 15.1944 26.648 15.1733C26.6271 15.1522 26.6152 15.1237 26.615 15.094C26.615 15.031 26.665 14.981 26.727 14.98ZM27.289 14.98C27.3172 14.9827 27.3435 14.9958 27.3626 15.0168C27.3817 15.0378 27.3923 15.0651 27.3923 15.0935C27.3923 15.1219 27.3817 15.1493 27.3626 15.1703C27.3435 15.1913 27.3172 15.2044 27.289 15.207C27.2594 15.2062 27.2314 15.194 27.2106 15.1729C27.1899 15.1519 27.1782 15.1236 27.178 15.094C27.178 15.031 27.228 14.981 27.289 14.98ZM27.852 14.98V14.982C27.8786 14.9817 27.9044 14.9911 27.9246 15.0084C27.9448 15.0257 27.9581 15.0497 27.962 15.076C27.964 15.084 27.964 15.086 27.962 15.094C27.962 15.155 27.912 15.207 27.852 15.207C27.8223 15.2065 27.7939 15.1944 27.773 15.1733C27.7521 15.1522 27.7402 15.1237 27.74 15.094C27.74 15.031 27.79 14.981 27.852 14.98ZM28.414 14.98V14.982C28.474 14.982 28.522 15.029 28.525 15.088V15.094C28.525 15.155 28.475 15.207 28.415 15.207C28.3849 15.207 28.3561 15.1951 28.3347 15.174C28.3134 15.1528 28.3012 15.1241 28.301 15.094C28.301 15.031 28.351 14.98 28.414 14.98ZM28.977 14.98V14.982C29.036 14.982 29.084 15.029 29.087 15.088V15.094C29.087 15.155 29.037 15.207 28.977 15.207C28.9469 15.207 28.9181 15.1951 28.8967 15.174C28.8754 15.1528 28.8632 15.1241 28.863 15.094C28.863 15.031 28.913 14.98 28.977 14.98ZM29.539 14.98V14.982C29.599 14.982 29.647 15.029 29.65 15.088V15.094C29.65 15.155 29.6 15.207 29.54 15.207C29.5099 15.207 29.4811 15.1951 29.4597 15.174C29.4384 15.1528 29.4262 15.1241 29.426 15.094C29.426 15.031 29.476 14.98 29.539 14.98ZM30.099 14.98V14.982C30.159 14.982 30.209 15.028 30.213 15.088V15.094C30.2127 15.1239 30.2007 15.1525 30.1796 15.1736C30.1585 15.1948 30.1299 15.2068 30.1 15.207C30.0703 15.2065 30.0419 15.1944 30.021 15.1733C30.0001 15.1522 29.9882 15.1237 29.988 15.094C29.988 15.031 30.038 14.981 30.1 14.98H30.099ZM30.662 14.98V14.982C30.722 14.982 30.772 15.028 30.775 15.088V15.094C30.7747 15.1239 30.7627 15.1525 30.7416 15.1736C30.7205 15.1948 30.6919 15.2068 30.662 15.207C30.6324 15.2062 30.6044 15.194 30.5836 15.1729C30.5629 15.1519 30.5512 15.1236 30.551 15.094C30.551 15.031 30.601 14.981 30.662 14.98ZM31.225 14.98V14.982C31.285 14.982 31.335 15.028 31.338 15.088V15.094C31.3377 15.1239 31.3257 15.1525 31.3046 15.1736C31.2835 15.1948 31.2549 15.2068 31.225 15.207C31.1953 15.2065 31.1669 15.1944 31.146 15.1733C31.1251 15.1522 31.1132 15.1237 31.113 15.094C31.113 15.031 31.163 14.981 31.225 14.98ZM31.787 14.98V14.982C31.8138 14.9815 31.8398 14.9907 31.8602 15.0081C31.8807 15.0254 31.8941 15.0495 31.898 15.076V15.094C31.898 15.155 31.848 15.207 31.788 15.207C31.7583 15.2065 31.7299 15.1944 31.709 15.1733C31.6881 15.1522 31.6762 15.1237 31.676 15.094C31.675 15.031 31.726 14.981 31.787 14.98ZM32.35 14.98V14.982C32.3766 14.9817 32.4024 14.9911 32.4226 15.0084C32.4428 15.0257 32.4561 15.0497 32.46 15.076C32.462 15.084 32.462 15.086 32.46 15.094C32.46 15.155 32.41 15.207 32.35 15.207C32.3199 15.207 32.2911 15.1951 32.2697 15.174C32.2484 15.1528 32.2362 15.1241 32.236 15.094C32.236 15.031 32.286 14.98 32.35 14.98ZM32.912 14.98V14.982C32.972 14.982 33.02 15.029 33.023 15.088V15.094C33.023 15.155 32.973 15.207 32.913 15.207C32.8829 15.207 32.8541 15.1951 32.8327 15.174C32.8114 15.1528 32.7992 15.1241 32.799 15.094C32.799 15.031 32.849 14.98 32.912 14.98ZM33.475 14.98V14.982C33.534 14.982 33.582 15.029 33.585 15.088V15.094C33.585 15.155 33.535 15.207 33.475 15.207C33.4449 15.207 33.4161 15.1951 33.3947 15.174C33.3734 15.1528 33.3612 15.1241 33.361 15.094C33.361 15.031 33.411 14.98 33.475 14.98ZM34.037 14.98V14.982C34.097 14.982 34.145 15.029 34.148 15.088V15.094C34.148 15.155 34.098 15.207 34.038 15.207C34.0079 15.207 33.9791 15.1951 33.9577 15.174C33.9364 15.1528 33.9242 15.1241 33.924 15.094C33.924 15.031 33.974 14.98 34.037 14.98ZM34.597 14.98V14.982C34.657 14.982 34.707 15.028 34.711 15.088V15.094C34.7107 15.1239 34.6987 15.1525 34.6776 15.1736C34.6565 15.1948 34.6279 15.2068 34.598 15.207C34.5683 15.2065 34.5399 15.1944 34.519 15.1733C34.4981 15.1522 34.4862 15.1237 34.486 15.094C34.486 15.031 34.536 14.981 34.598 14.98H34.597ZM16.455 17.865C16.5796 17.8634 16.7033 17.8864 16.8189 17.9327C16.9346 17.979 17.04 18.0478 17.129 18.135C17.2187 18.2214 17.2904 18.3247 17.34 18.439C17.3896 18.5532 17.4161 18.6761 17.4181 18.8007C17.4201 18.9252 17.3974 19.0489 17.3514 19.1646C17.3053 19.2803 17.2369 19.3858 17.15 19.475L15.342 21.334C15.2557 21.4241 15.1524 21.4961 15.038 21.5458C14.9236 21.5956 14.8005 21.6221 14.6757 21.6237C14.551 21.6254 14.4272 21.6022 14.3116 21.5556C14.1959 21.5089 14.0906 21.4397 14.002 21.352C13.9122 21.2657 13.8404 21.1624 13.7907 21.0482C13.741 20.934 13.7144 20.8111 13.7124 20.6866C13.7103 20.5621 13.7329 20.4384 13.7788 20.3226C13.8248 20.2068 13.8931 20.1013 13.98 20.012L15.79 18.154C15.8764 18.0645 15.9796 17.9929 16.0937 17.9433C16.2078 17.8937 16.3306 17.8671 16.455 17.865ZM20.018 17.865V17.867C20.1424 17.8655 20.2659 17.8886 20.3814 17.9349C20.4969 17.9812 20.6021 18.0499 20.691 18.137C20.7807 18.2234 20.8525 18.3266 20.9022 18.4408C20.9519 18.555 20.9786 18.6779 20.9806 18.8024C20.9826 18.927 20.9601 19.0507 20.9141 19.1664C20.8682 19.2822 20.7998 19.3878 20.713 19.477L18.904 21.334C18.8177 21.4241 18.7144 21.4961 18.6 21.5458C18.4856 21.5956 18.3625 21.6221 18.2377 21.6237C18.113 21.6254 17.9892 21.6022 17.8736 21.5556C17.7579 21.5089 17.6526 21.4397 17.564 21.352C17.4743 21.2656 17.4026 21.1623 17.353 21.0481C17.3034 20.9338 17.2768 20.8109 17.2749 20.6864C17.2729 20.5619 17.2956 20.4382 17.3416 20.3224C17.3876 20.2067 17.4561 20.1012 17.543 20.012L19.352 18.154C19.4385 18.0644 19.5419 17.9927 19.6562 17.9431C19.7704 17.8935 19.8934 17.867 20.018 17.865ZM23.395 17.865C23.5194 17.8635 23.6429 17.8866 23.7584 17.9329C23.8739 17.9792 23.9791 18.0479 24.068 18.135C24.1577 18.2214 24.2295 18.3246 24.2792 18.4388C24.3289 18.553 24.3556 18.6759 24.3576 18.8004C24.3596 18.925 24.3371 19.0487 24.2911 19.1644C24.2452 19.2802 24.1768 19.3858 24.09 19.475L22.281 21.334C22.1947 21.4241 22.0914 21.4961 21.977 21.5458C21.8626 21.5956 21.7395 21.6221 21.6147 21.6237C21.49 21.6254 21.3662 21.6022 21.2506 21.5556C21.1349 21.5089 21.0296 21.4397 20.941 21.352C20.8513 21.2656 20.7796 21.1623 20.73 21.0481C20.6804 20.9338 20.6538 20.8109 20.6519 20.6864C20.6499 20.5619 20.6726 20.4382 20.7186 20.3224C20.7646 20.2067 20.8331 20.1012 20.92 20.012L22.728 18.154C22.8145 18.0644 22.9179 17.9927 23.0322 17.9431C23.1464 17.8935 23.2694 17.867 23.394 17.865H23.395ZM26.957 17.865C27.0816 17.8634 27.2053 17.8864 27.3209 17.9327C27.4366 17.979 27.542 18.0478 27.631 18.135C27.7207 18.2214 27.7924 18.3247 27.842 18.439C27.8916 18.5532 27.9181 18.6761 27.9201 18.8007C27.9221 18.9252 27.8994 19.0489 27.8534 19.1646C27.8073 19.2803 27.7389 19.3858 27.652 19.475L25.844 21.334C25.7577 21.4241 25.6544 21.4961 25.54 21.5458C25.4256 21.5956 25.3025 21.6221 25.1777 21.6237C25.053 21.6254 24.9292 21.6022 24.8136 21.5556C24.6979 21.5089 24.5926 21.4397 24.504 21.352C24.4142 21.2657 24.3424 21.1624 24.2927 21.0482C24.243 20.934 24.2164 20.8111 24.2144 20.6866C24.2123 20.5621 24.2349 20.4384 24.2808 20.3226C24.3268 20.2068 24.3951 20.1013 24.482 20.012L26.291 18.154C26.3775 18.0644 26.4809 17.9927 26.5951 17.9431C26.7094 17.8935 26.8324 17.867 26.957 17.865ZM30.158 17.865C30.2826 17.8634 30.4063 17.8864 30.5219 17.9327C30.6376 17.979 30.743 18.0478 30.832 18.135C30.9217 18.2214 30.9934 18.3247 31.043 18.439C31.0926 18.5532 31.1191 18.6761 31.1211 18.8007C31.1231 18.9252 31.1004 19.0489 31.0544 19.1646C31.0083 19.2803 30.9399 19.3858 30.853 19.475L29.045 21.334C28.9587 21.4241 28.8554 21.4961 28.741 21.5458C28.6266 21.5956 28.5035 21.6221 28.3787 21.6237C28.254 21.6254 28.1302 21.6022 28.0146 21.5556C27.8989 21.5089 27.7936 21.4397 27.705 21.352C27.6153 21.2656 27.5436 21.1623 27.494 21.0481C27.4444 20.9338 27.4178 20.8109 27.4159 20.6864C27.4139 20.5619 27.4366 20.4382 27.4826 20.3224C27.5286 20.2067 27.5971 20.1012 27.684 20.012L29.492 18.154C29.5785 18.0644 29.6819 17.9927 29.7962 17.9431C29.9104 17.8935 30.0334 17.867 30.158 17.865ZM33.721 17.865C33.8456 17.8634 33.9693 17.8864 34.0849 17.9327C34.2006 17.979 34.306 18.0478 34.395 18.135C34.4847 18.2214 34.5564 18.3247 34.606 18.439C34.6556 18.5532 34.6821 18.6761 34.6841 18.8007C34.686 18.9252 34.6634 19.0489 34.6174 19.1646C34.5713 19.2803 34.5029 19.3858 34.416 19.475L32.607 21.334C32.5207 21.4241 32.4174 21.4961 32.303 21.5458C32.1886 21.5956 32.0655 21.6221 31.9407 21.6237C31.816 21.6254 31.6922 21.6022 31.5766 21.5556C31.4609 21.5089 31.3556 21.4397 31.267 21.352C31.1774 21.2655 31.1057 21.1622 31.0562 21.0479C31.0067 20.9336 30.9802 20.8107 30.9784 20.6862C30.9765 20.5616 30.9993 20.438 31.0454 20.3223C31.0915 20.2066 31.16 20.1011 31.247 20.012L33.055 18.154C33.1415 18.0644 33.2449 17.9927 33.3591 17.9431C33.4734 17.8935 33.5964 17.867 33.721 17.865ZM13.795 23.981C13.858 23.981 13.909 24.031 13.908 24.094C13.9077 24.1239 13.8957 24.1525 13.8746 24.1736C13.8535 24.1948 13.8249 24.2068 13.795 24.207C13.7654 24.2062 13.7374 24.194 13.7166 24.1729C13.6959 24.1519 13.6842 24.1236 13.684 24.094C13.684 24.031 13.733 23.981 13.794 23.98L13.795 23.981ZM14.357 23.981V23.982C14.3839 23.9812 14.4102 23.9904 14.4309 24.0077C14.4515 24.025 14.4651 24.0493 14.469 24.076V24.094C14.468 24.155 14.419 24.207 14.357 24.207C14.3272 24.2065 14.2987 24.1944 14.2776 24.1734C14.2566 24.1523 14.2445 24.1238 14.244 24.094C14.244 24.031 14.295 23.981 14.357 23.98V23.981ZM14.92 23.981V23.982C14.9468 23.9815 14.9728 23.9907 14.9932 24.0081C15.0137 24.0254 15.0271 24.0495 15.031 24.076V24.094C15.031 24.155 14.981 24.207 14.92 24.207C14.8901 24.2068 14.8615 24.1948 14.8404 24.1736C14.8192 24.1525 14.8072 24.1239 14.807 24.094C14.807 24.031 14.857 23.98 14.92 23.98V23.981ZM15.482 23.981V23.982C15.542 23.982 15.59 24.029 15.594 24.088V24.094C15.593 24.155 15.544 24.207 15.482 24.207C15.4521 24.2068 15.4235 24.1948 15.4024 24.1736C15.3812 24.1525 15.3692 24.1239 15.369 24.094C15.369 24.031 15.419 23.98 15.482 23.98V23.981ZM16.045 23.981V23.982C16.105 23.982 16.153 24.029 16.156 24.088V24.094C16.156 24.155 16.106 24.207 16.045 24.207C16.0151 24.2068 15.9865 24.1948 15.9654 24.1736C15.9442 24.1525 15.9322 24.1239 15.932 24.094C15.932 24.031 15.982 23.98 16.045 23.98V23.981ZM16.607 23.981V23.982C16.667 23.982 16.715 24.029 16.719 24.088V24.094C16.718 24.155 16.669 24.207 16.607 24.207C16.5771 24.2068 16.5485 24.1948 16.5274 24.1736C16.5062 24.1525 16.4942 24.1239 16.494 24.094C16.494 24.031 16.544 23.98 16.607 23.98V23.981ZM17.168 23.981V23.982C17.228 23.982 17.278 24.028 17.281 24.088V24.094C17.2807 24.1239 17.2687 24.1525 17.2476 24.1736C17.2265 24.1948 17.1979 24.2068 17.168 24.207C17.1384 24.2062 17.1104 24.194 17.0896 24.1729C17.0689 24.1519 17.0572 24.1236 17.057 24.094C17.057 24.031 17.106 23.981 17.168 23.98V23.981ZM17.731 23.981V23.982C17.791 23.982 17.841 24.028 17.844 24.088V24.094C17.8437 24.1241 17.8316 24.1528 17.8102 24.174C17.7889 24.1951 17.76 24.207 17.73 24.207C17.7006 24.206 17.6728 24.1937 17.6523 24.1726C17.6318 24.1516 17.6202 24.1234 17.62 24.094C17.619 24.031 17.669 23.981 17.73 23.98L17.731 23.981ZM18.293 23.981V23.982C18.353 23.982 18.403 24.028 18.406 24.088V24.094C18.4057 24.1239 18.3937 24.1525 18.3726 24.1736C18.3515 24.1948 18.3229 24.2068 18.293 24.207C18.2634 24.2062 18.2354 24.194 18.2146 24.1729C18.1939 24.1519 18.1822 24.1236 18.182 24.094C18.182 24.031 18.231 23.981 18.293 23.98V23.981ZM18.856 23.981V23.982C18.8826 23.9817 18.9084 23.9911 18.9286 24.0084C18.9488 24.0257 18.9621 24.0497 18.966 24.076V24.094C18.966 24.155 18.916 24.207 18.856 24.207C18.8263 24.2065 18.7979 24.1944 18.777 24.1733C18.7561 24.1522 18.7442 24.1237 18.744 24.094C18.744 24.031 18.794 23.981 18.855 23.98L18.856 23.981ZM19.418 23.981V23.982C19.478 23.982 19.526 24.029 19.529 24.088V24.094C19.529 24.155 19.479 24.207 19.418 24.207C19.3881 24.2068 19.3595 24.1948 19.3384 24.1736C19.3172 24.1525 19.3052 24.1239 19.305 24.094C19.305 24.031 19.355 23.98 19.418 23.98V23.981ZM19.981 23.981V23.982C20.04 23.982 20.088 24.029 20.091 24.088V24.094C20.091 24.155 20.041 24.207 19.981 24.207C19.9509 24.207 19.9221 24.1951 19.9007 24.174C19.8794 24.1528 19.8672 24.1241 19.867 24.094C19.867 24.031 19.917 23.98 19.98 23.98L19.981 23.981ZM20.543 23.981V23.982C20.603 23.982 20.651 24.029 20.654 24.088V24.094C20.654 24.155 20.604 24.207 20.543 24.207C20.5131 24.2068 20.4845 24.1948 20.4634 24.1736C20.4422 24.1525 20.4302 24.1239 20.43 24.094C20.43 24.031 20.48 23.98 20.543 23.98V23.981ZM21.106 23.981V23.982C21.165 23.982 21.213 24.029 21.216 24.088V24.094C21.216 24.155 21.166 24.207 21.106 24.207C21.0759 24.207 21.0471 24.1951 21.0257 24.174C21.0044 24.1528 20.9922 24.1241 20.992 24.094C20.992 24.031 21.042 23.98 21.105 23.98L21.106 23.981ZM21.666 23.981V23.982C21.726 23.982 21.776 24.028 21.779 24.088V24.094C21.7787 24.1239 21.7667 24.1525 21.7456 24.1736C21.7245 24.1948 21.6959 24.2068 21.666 24.207C21.6364 24.2062 21.6084 24.194 21.5876 24.1729C21.5669 24.1519 21.5552 24.1236 21.555 24.094C21.555 24.031 21.604 23.981 21.666 23.98V23.981ZM22.229 23.981V23.982C22.289 23.982 22.339 24.028 22.342 24.088V24.094C22.3417 24.1239 22.3297 24.1525 22.3086 24.1736C22.2875 24.1948 22.2589 24.2068 22.229 24.207C22.1993 24.2065 22.1709 24.1944 22.15 24.1733C22.1291 24.1522 22.1172 24.1237 22.117 24.094C22.117 24.031 22.167 23.981 22.228 23.98L22.229 23.981ZM22.791 23.981C22.854 23.981 22.905 24.031 22.904 24.094C22.9037 24.1239 22.8917 24.1525 22.8706 24.1736C22.8495 24.1948 22.8209 24.2068 22.791 24.207C22.7614 24.2062 22.7334 24.194 22.7126 24.1729C22.6919 24.1519 22.6802 24.1236 22.68 24.094C22.68 24.031 22.729 23.981 22.791 23.98V23.981ZM23.354 23.981V23.982C23.408 23.982 23.457 24.022 23.464 24.076V24.094C23.464 24.155 23.414 24.207 23.354 24.207C23.3243 24.2065 23.2959 24.1944 23.275 24.1733C23.2541 24.1522 23.2422 24.1237 23.242 24.094C23.242 24.031 23.292 23.981 23.353 23.98L23.354 23.981ZM23.916 23.981V23.982C23.9428 23.9815 23.9688 23.9907 23.9892 24.0081C24.0097 24.0254 24.0231 24.0495 24.027 24.076V24.094C24.027 24.155 23.977 24.207 23.916 24.207C23.8861 24.2068 23.8575 24.1948 23.8364 24.1736C23.8152 24.1525 23.8032 24.1239 23.803 24.094C23.803 24.031 23.853 23.98 23.916 23.98V23.981ZM24.479 23.981V23.982C24.538 23.982 24.586 24.029 24.589 24.088V24.094C24.589 24.155 24.539 24.207 24.479 24.207C24.4489 24.207 24.4201 24.1951 24.3987 24.174C24.3774 24.1528 24.3652 24.1241 24.365 24.094C24.365 24.031 24.415 23.98 24.479 23.98V23.981ZM25.041 23.981V23.982C25.101 23.982 25.149 24.029 25.152 24.088V24.094C25.152 24.155 25.102 24.207 25.041 24.207C25.0111 24.2068 24.9825 24.1948 24.9614 24.1736C24.9402 24.1525 24.9282 24.1239 24.928 24.094C24.928 24.031 24.978 23.98 25.041 23.98V23.981ZM25.601 23.981V23.982C25.661 23.982 25.711 24.028 25.715 24.088V24.094C25.7147 24.1239 25.7027 24.1525 25.6816 24.1736C25.6605 24.1948 25.6319 24.2068 25.602 24.207C25.5723 24.2065 25.5439 24.1944 25.523 24.1733C25.5021 24.1522 25.4902 24.1237 25.49 24.094C25.49 24.031 25.54 23.981 25.602 23.98L25.601 23.981ZM26.164 23.981V23.982C26.224 23.982 26.274 24.028 26.277 24.088V24.094C26.2767 24.1239 26.2647 24.1525 26.2436 24.1736C26.2225 24.1948 26.1939 24.2068 26.164 24.207C26.1344 24.2062 26.1064 24.194 26.0856 24.1729C26.0649 24.1519 26.0532 24.1236 26.053 24.094C26.053 24.031 26.103 23.981 26.164 23.98V23.981ZM26.727 23.981V23.982C26.787 23.982 26.837 24.028 26.84 24.088V24.094C26.8397 24.1239 26.8277 24.1525 26.8066 24.1736C26.7855 24.1948 26.7569 24.2068 26.727 24.207C26.6973 24.2065 26.6689 24.1944 26.648 24.1733C26.6271 24.1522 26.6152 24.1237 26.615 24.094C26.615 24.031 26.665 23.981 26.727 23.98V23.981ZM27.289 23.981C27.352 23.981 27.403 24.031 27.402 24.094C27.4017 24.1239 27.3897 24.1525 27.3686 24.1736C27.3475 24.1948 27.3189 24.2068 27.289 24.207C27.2594 24.2062 27.2314 24.194 27.2106 24.1729C27.1899 24.1519 27.1782 24.1236 27.178 24.094C27.178 24.031 27.228 23.981 27.289 23.98V23.981ZM27.852 23.981V23.982C27.8786 23.9817 27.9044 23.9911 27.9246 24.0084C27.9448 24.0257 27.9581 24.0497 27.962 24.076C27.964 24.084 27.964 24.086 27.962 24.094C27.962 24.155 27.912 24.207 27.852 24.207C27.8223 24.2065 27.7939 24.1944 27.773 24.1733C27.7521 24.1522 27.7402 24.1237 27.74 24.094C27.74 24.031 27.79 23.981 27.852 23.98V23.981ZM28.414 23.981V23.982C28.474 23.982 28.522 24.029 28.525 24.088V24.094C28.525 24.155 28.475 24.207 28.415 24.207C28.3849 24.207 28.3561 24.1951 28.3347 24.174C28.3134 24.1528 28.3012 24.1241 28.301 24.094C28.301 24.031 28.351 23.98 28.414 23.98V23.981ZM28.977 23.981V23.982C29.036 23.982 29.084 24.029 29.087 24.088V24.094C29.087 24.155 29.037 24.207 28.977 24.207C28.9469 24.207 28.9181 24.1951 28.8967 24.174C28.8754 24.1528 28.8632 24.1241 28.863 24.094C28.863 24.031 28.913 23.98 28.977 23.98V23.981ZM29.539 23.981V23.982C29.599 23.982 29.647 24.029 29.65 24.088V24.094C29.65 24.155 29.6 24.207 29.54 24.207C29.5099 24.207 29.4811 24.1951 29.4597 24.174C29.4384 24.1528 29.4262 24.1241 29.426 24.094C29.426 24.031 29.476 23.98 29.539 23.98V23.981ZM30.099 23.981V23.982C30.159 23.982 30.209 24.028 30.213 24.088V24.094C30.2127 24.1239 30.2007 24.1525 30.1796 24.1736C30.1585 24.1948 30.1299 24.2068 30.1 24.207C30.0703 24.2065 30.0419 24.1944 30.021 24.1733C30.0001 24.1522 29.9882 24.1237 29.988 24.094C29.988 24.031 30.038 23.981 30.1 23.98L30.099 23.981ZM30.662 23.981V23.982C30.722 23.982 30.772 24.028 30.775 24.088V24.094C30.7747 24.1239 30.7627 24.1525 30.7416 24.1736C30.7205 24.1948 30.6919 24.2068 30.662 24.207C30.6324 24.2062 30.6044 24.194 30.5836 24.1729C30.5629 24.1519 30.5512 24.1236 30.551 24.094C30.551 24.031 30.601 23.981 30.662 23.98V23.981ZM31.225 23.981V23.982C31.285 23.982 31.335 24.028 31.338 24.088V24.094C31.3377 24.1239 31.3257 24.1525 31.3046 24.1736C31.2835 24.1948 31.2549 24.2068 31.225 24.207C31.1953 24.2065 31.1669 24.1944 31.146 24.1733C31.1251 24.1522 31.1132 24.1237 31.113 24.094C31.113 24.031 31.163 23.981 31.225 23.98V23.981ZM31.787 23.981V23.982C31.8138 23.9815 31.8398 23.9907 31.8602 24.0081C31.8807 24.0254 31.8941 24.0495 31.898 24.076V24.094C31.898 24.155 31.848 24.207 31.788 24.207C31.7583 24.2065 31.7299 24.1944 31.709 24.1733C31.6881 24.1522 31.6762 24.1237 31.676 24.094C31.675 24.031 31.726 23.981 31.787 23.98V23.981ZM32.35 23.981V23.982C32.3766 23.9817 32.4024 23.9911 32.4226 24.0084C32.4428 24.0257 32.4561 24.0497 32.46 24.076C32.462 24.084 32.462 24.086 32.46 24.094C32.46 24.155 32.41 24.207 32.35 24.207C32.3199 24.207 32.2911 24.1951 32.2697 24.174C32.2484 24.1528 32.2362 24.1241 32.236 24.094C32.236 24.031 32.286 23.98 32.35 23.98V23.981ZM32.912 23.981V23.982C32.972 23.982 33.02 24.029 33.023 24.088V24.094C33.023 24.155 32.973 24.207 32.913 24.207C32.8829 24.207 32.8541 24.1951 32.8327 24.174C32.8114 24.1528 32.7992 24.1241 32.799 24.094C32.799 24.031 32.849 23.98 32.912 23.98V23.981ZM33.475 23.981V23.982C33.534 23.982 33.582 24.029 33.585 24.088V24.094C33.585 24.155 33.535 24.207 33.475 24.207C33.4449 24.207 33.4161 24.1951 33.3947 24.174C33.3734 24.1528 33.3612 24.1241 33.361 24.094C33.361 24.031 33.411 23.98 33.475 23.98V23.981ZM34.037 23.981V23.982C34.097 23.982 34.145 24.029 34.148 24.088V24.094C34.148 24.155 34.098 24.207 34.038 24.207C34.0079 24.207 33.9791 24.1951 33.9577 24.174C33.9364 24.1528 33.9242 24.1241 33.924 24.094C33.924 24.031 33.974 23.98 34.037 23.98V23.981ZM34.597 23.981V23.982C34.657 23.982 34.707 24.028 34.711 24.088V24.094C34.7107 24.1239 34.6987 24.1525 34.6776 24.1736C34.6565 24.1948 34.6279 24.2068 34.598 24.207C34.5683 24.2065 34.5399 24.1944 34.519 24.1733C34.4981 24.1522 34.4862 24.1237 34.486 24.094C34.486 24.031 34.536 23.981 34.598 23.98L34.597 23.981ZM16.455 26.533C16.5796 26.5314 16.7033 26.5544 16.8189 26.6007C16.9346 26.647 17.04 26.7158 17.129 26.803C17.2187 26.8894 17.2904 26.9927 17.34 27.107C17.3896 27.2212 17.4161 27.3441 17.4181 27.4687C17.4201 27.5932 17.3974 27.7169 17.3514 27.8326C17.3053 27.9483 17.2369 28.0538 17.15 28.143L15.342 30.002C15.2556 30.0919 15.1522 30.1636 15.0378 30.2132C14.9234 30.2628 14.8004 30.2892 14.6757 30.2909C14.5511 30.2926 14.4274 30.2695 14.3117 30.223C14.1961 30.1765 14.0908 30.1075 14.002 30.02C13.9122 29.9337 13.8404 29.8304 13.7907 29.7162C13.741 29.602 13.7144 29.4791 13.7124 29.3546C13.7103 29.2301 13.7329 29.1064 13.7788 28.9906C13.8248 28.8748 13.8931 28.7693 13.98 28.68L15.79 26.822C15.8763 26.7324 15.9795 26.6608 16.0937 26.6112C16.2078 26.5616 16.3306 26.535 16.455 26.533ZM20.018 26.533V26.535C20.1424 26.5335 20.2659 26.5566 20.3814 26.6029C20.4969 26.6492 20.6021 26.7179 20.691 26.805C20.7807 26.8914 20.8525 26.9946 20.9022 27.1088C20.9519 27.223 20.9786 27.3459 20.9806 27.4704C20.9826 27.595 20.9601 27.7187 20.9141 27.8344C20.8682 27.9502 20.7998 28.0558 20.713 28.145L18.904 30.002C18.8176 30.0919 18.7142 30.1636 18.5998 30.2132C18.4854 30.2628 18.3624 30.2892 18.2377 30.2909C18.1131 30.2926 17.9894 30.2695 17.8737 30.223C17.7581 30.1765 17.6528 30.1075 17.564 30.02C17.4743 29.9336 17.4026 29.8303 17.353 29.7161C17.3034 29.6018 17.2768 29.4789 17.2749 29.3544C17.2729 29.2299 17.2956 29.1062 17.3416 28.9904C17.3876 28.8747 17.4561 28.7692 17.543 28.68L19.352 26.822C19.4385 26.7323 19.5418 26.6606 19.6561 26.611C19.7704 26.5614 19.8934 26.5349 20.018 26.533ZM23.395 26.533C23.5194 26.5315 23.6429 26.5546 23.7584 26.601C23.8739 26.6473 23.9791 26.716 24.068 26.803C24.1577 26.8894 24.2295 26.9926 24.2792 27.1068C24.3289 27.221 24.3556 27.3439 24.3576 27.4684C24.3596 27.593 24.3371 27.7167 24.2911 27.8324C24.2452 27.9482 24.1768 28.0538 24.09 28.143L22.281 30.002C22.1946 30.0919 22.0912 30.1636 21.9768 30.2132C21.8624 30.2628 21.7394 30.2892 21.6147 30.2909C21.4901 30.2926 21.3664 30.2695 21.2507 30.223C21.1351 30.1765 21.0298 30.1075 20.941 30.02C20.8513 29.9336 20.7796 29.8303 20.73 29.7161C20.6804 29.6018 20.6538 29.4789 20.6519 29.3544C20.6499 29.2299 20.6726 29.1062 20.7186 28.9904C20.7646 28.8747 20.8331 28.7692 20.92 28.68L22.728 26.822C22.8145 26.7323 22.9178 26.6606 23.0321 26.611C23.1464 26.5614 23.2694 26.5349 23.394 26.533H23.395ZM26.957 26.533C27.0816 26.5314 27.2052 26.5544 27.3209 26.6008C27.4366 26.6471 27.542 26.7158 27.631 26.803C27.7207 26.8894 27.7924 26.9927 27.842 27.107C27.8916 27.2212 27.9181 27.3441 27.9201 27.4687C27.9221 27.5932 27.8994 27.7169 27.8534 27.8326C27.8073 27.9483 27.7389 28.0538 27.652 28.143L25.844 30.002C25.7576 30.0919 25.6542 30.1636 25.5398 30.2132C25.4254 30.2628 25.3024 30.2892 25.1777 30.2909C25.0531 30.2926 24.9294 30.2695 24.8137 30.223C24.6981 30.1765 24.5928 30.1075 24.504 30.02C24.4142 29.9337 24.3424 29.8304 24.2927 29.7162C24.243 29.602 24.2164 29.4791 24.2144 29.3546C24.2123 29.2301 24.2349 29.1064 24.2808 28.9906C24.3268 28.8748 24.3951 28.7693 24.482 28.68L26.291 26.822C26.3775 26.7323 26.4808 26.6606 26.5951 26.611C26.7094 26.5614 26.8324 26.5349 26.957 26.533ZM30.158 26.533C30.2826 26.5314 30.4063 26.5544 30.5219 26.6007C30.6376 26.647 30.743 26.7158 30.832 26.803C30.9217 26.8894 30.9934 26.9927 31.043 27.107C31.0926 27.2212 31.1191 27.3441 31.1211 27.4687C31.1231 27.5932 31.1004 27.7169 31.0544 27.8326C31.0083 27.9483 30.9399 28.0538 30.853 28.143L29.045 30.002C28.9586 30.0919 28.8552 30.1636 28.7408 30.2132C28.6264 30.2628 28.5034 30.2892 28.3787 30.2909C28.2541 30.2926 28.1304 30.2695 28.0147 30.223C27.8991 30.1765 27.7938 30.1075 27.705 30.02C27.6153 29.9336 27.5436 29.8303 27.494 29.7161C27.4444 29.6018 27.4178 29.4789 27.4159 29.3544C27.4139 29.2299 27.4366 29.1062 27.4826 28.9904C27.5286 28.8747 27.5971 28.7692 27.684 28.68L29.492 26.822C29.5785 26.7323 29.6818 26.6606 29.7961 26.611C29.9104 26.5614 30.0334 26.5349 30.158 26.533ZM33.721 26.533C33.8456 26.5314 33.9693 26.5544 34.0849 26.6007C34.2006 26.647 34.306 26.7158 34.395 26.803C34.4847 26.8894 34.5564 26.9927 34.606 27.107C34.6556 27.2212 34.6821 27.3441 34.6841 27.4687C34.686 27.5932 34.6634 27.7169 34.6174 27.8326C34.5713 27.9483 34.5029 28.0538 34.416 28.143L32.607 30.002C32.5206 30.0919 32.4172 30.1636 32.3028 30.2132C32.1884 30.2628 32.0654 30.2892 31.9407 30.2909C31.8161 30.2926 31.6924 30.2695 31.5767 30.223C31.4611 30.1765 31.3558 30.1075 31.267 30.02C31.1774 29.9335 31.1057 29.8302 31.0562 29.7159C31.0067 29.6016 30.9802 29.4787 30.9784 29.3542C30.9765 29.2296 30.9993 29.106 31.0454 28.9903C31.0915 28.8746 31.16 28.7691 31.247 28.68L33.055 26.822C33.1415 26.7323 33.2448 26.6606 33.3591 26.611C33.4734 26.5614 33.5964 26.5349 33.721 26.533ZM13.795 32.98C13.8232 32.9827 13.8495 32.9958 13.8686 33.0168C13.8877 33.0378 13.8983 33.0651 13.8983 33.0935C13.8983 33.1219 13.8877 33.1493 13.8686 33.1703C13.8495 33.1913 13.8232 33.2044 13.795 33.207C13.7654 33.2062 13.7374 33.194 13.7166 33.1729C13.6959 33.1519 13.6842 33.1236 13.684 33.094C13.684 33.031 13.733 32.981 13.794 32.98H13.795ZM14.357 32.98V32.982C14.3839 32.9812 14.4102 32.9904 14.4309 33.0077C14.4515 33.025 14.4651 33.0493 14.469 33.076V33.094C14.468 33.155 14.419 33.207 14.357 33.207C14.3272 33.2065 14.2987 33.1944 14.2776 33.1734C14.2566 33.1523 14.2445 33.1238 14.244 33.094C14.244 33.031 14.295 32.981 14.357 32.98ZM14.92 32.98V32.982C14.9468 32.9815 14.9728 32.9907 14.9932 33.0081C15.0137 33.0254 15.0271 33.0495 15.031 33.076V33.094C15.031 33.155 14.981 33.207 14.92 33.207C14.8901 33.2068 14.8615 33.1948 14.8404 33.1736C14.8192 33.1525 14.8072 33.1239 14.807 33.094C14.807 33.031 14.857 32.98 14.92 32.98ZM15.482 32.98V32.982C15.542 32.982 15.59 33.029 15.594 33.088V33.094C15.593 33.155 15.544 33.207 15.482 33.207C15.4521 33.2068 15.4235 33.1948 15.4024 33.1736C15.3812 33.1525 15.3692 33.1239 15.369 33.094C15.369 33.031 15.419 32.98 15.482 32.98ZM16.045 32.98V32.982C16.105 32.982 16.153 33.029 16.156 33.088V33.094C16.156 33.155 16.106 33.207 16.045 33.207C16.0151 33.2068 15.9865 33.1948 15.9654 33.1736C15.9442 33.1525 15.9322 33.1239 15.932 33.094C15.932 33.031 15.982 32.98 16.045 32.98ZM16.607 32.98V32.982C16.667 32.982 16.715 33.029 16.719 33.088V33.094C16.718 33.155 16.669 33.207 16.607 33.207C16.5771 33.2068 16.5485 33.1948 16.5274 33.1736C16.5062 33.1525 16.4942 33.1239 16.494 33.094C16.494 33.031 16.544 32.98 16.607 32.98ZM17.168 32.98V32.982C17.228 32.982 17.278 33.028 17.281 33.088V33.094C17.2807 33.1239 17.2687 33.1525 17.2476 33.1736C17.2265 33.1948 17.1979 33.2068 17.168 33.207C17.1384 33.2062 17.1104 33.194 17.0896 33.1729C17.0689 33.1519 17.0572 33.1236 17.057 33.094C17.057 33.031 17.106 32.981 17.168 32.98ZM17.731 32.98V32.982C17.791 32.982 17.841 33.028 17.844 33.088V33.094C17.8437 33.1241 17.8316 33.1528 17.8102 33.174C17.7889 33.1951 17.76 33.207 17.73 33.207C17.7006 33.206 17.6728 33.1937 17.6523 33.1726C17.6318 33.1516 17.6202 33.1234 17.62 33.094C17.619 33.031 17.669 32.981 17.73 32.98H17.731ZM18.293 32.98V32.982C18.353 32.982 18.403 33.028 18.406 33.088V33.094C18.4057 33.1239 18.3937 33.1525 18.3726 33.1736C18.3515 33.1948 18.3229 33.2068 18.293 33.207C18.2634 33.2062 18.2354 33.194 18.2146 33.1729C18.1939 33.1519 18.1822 33.1236 18.182 33.094C18.182 33.031 18.231 32.981 18.293 32.98ZM18.856 32.98V32.982C18.8826 32.9817 18.9084 32.9911 18.9286 33.0084C18.9488 33.0257 18.9621 33.0497 18.966 33.076V33.094C18.966 33.155 18.916 33.207 18.856 33.207C18.8263 33.2065 18.7979 33.1944 18.777 33.1733C18.7561 33.1522 18.7442 33.1237 18.744 33.094C18.744 33.031 18.794 32.981 18.855 32.98H18.856ZM19.418 32.98V32.982C19.478 32.982 19.526 33.029 19.529 33.088V33.094C19.529 33.155 19.479 33.207 19.418 33.207C19.3881 33.2068 19.3595 33.1948 19.3384 33.1736C19.3172 33.1525 19.3052 33.1239 19.305 33.094C19.305 33.031 19.355 32.98 19.418 32.98ZM19.981 32.98V32.982C20.04 32.982 20.088 33.029 20.091 33.088V33.094C20.091 33.155 20.041 33.207 19.981 33.207C19.9509 33.207 19.9221 33.1951 19.9007 33.174C19.8794 33.1528 19.8672 33.1241 19.867 33.094C19.867 33.031 19.917 32.98 19.98 32.98H19.981ZM20.543 32.98V32.982C20.603 32.982 20.651 33.029 20.654 33.088V33.094C20.654 33.155 20.604 33.207 20.543 33.207C20.5131 33.2068 20.4845 33.1948 20.4634 33.1736C20.4422 33.1525 20.4302 33.1239 20.43 33.094C20.43 33.031 20.48 32.98 20.543 32.98ZM21.106 32.98V32.982C21.165 32.982 21.213 33.029 21.216 33.088V33.094C21.216 33.155 21.166 33.207 21.106 33.207C21.0759 33.207 21.0471 33.1951 21.0257 33.174C21.0044 33.1528 20.9922 33.1241 20.992 33.094C20.992 33.031 21.042 32.98 21.105 32.98H21.106ZM21.666 32.98V32.982C21.726 32.982 21.776 33.028 21.779 33.088V33.094C21.7787 33.1239 21.7667 33.1525 21.7456 33.1736C21.7245 33.1948 21.6959 33.2068 21.666 33.207C21.6364 33.2062 21.6084 33.194 21.5876 33.1729C21.5669 33.1519 21.5552 33.1236 21.555 33.094C21.555 33.031 21.604 32.981 21.666 32.98ZM22.229 32.98V32.982C22.289 32.982 22.339 33.028 22.342 33.088V33.094C22.3417 33.1239 22.3297 33.1525 22.3086 33.1736C22.2875 33.1948 22.2589 33.2068 22.229 33.207C22.1993 33.2065 22.1709 33.1944 22.15 33.1733C22.1291 33.1522 22.1172 33.1237 22.117 33.094C22.117 33.031 22.167 32.981 22.228 32.98H22.229ZM22.791 32.98C22.8192 32.9827 22.8455 32.9958 22.8646 33.0168C22.8837 33.0378 22.8943 33.0651 22.8943 33.0935C22.8943 33.1219 22.8837 33.1493 22.8646 33.1703C22.8455 33.1913 22.8192 33.2044 22.791 33.207C22.7614 33.2062 22.7334 33.194 22.7126 33.1729C22.6919 33.1519 22.6802 33.1236 22.68 33.094C22.68 33.031 22.729 32.981 22.791 32.98ZM23.354 32.98V32.982C23.408 32.982 23.457 33.022 23.464 33.076V33.094C23.464 33.155 23.414 33.207 23.354 33.207C23.3243 33.2065 23.2959 33.1944 23.275 33.1733C23.2541 33.1522 23.2422 33.1237 23.242 33.094C23.242 33.031 23.292 32.981 23.353 32.98H23.354ZM23.916 32.98V32.982C23.9428 32.9815 23.9688 32.9907 23.9892 33.0081C24.0097 33.0254 24.0231 33.0495 24.027 33.076V33.094C24.027 33.155 23.977 33.207 23.916 33.207C23.8861 33.2068 23.8575 33.1948 23.8364 33.1736C23.8152 33.1525 23.8032 33.1239 23.803 33.094C23.803 33.031 23.853 32.98 23.916 32.98ZM24.479 32.98V32.982C24.538 32.982 24.586 33.029 24.589 33.088V33.094C24.589 33.155 24.539 33.207 24.479 33.207C24.4489 33.207 24.4201 33.1951 24.3987 33.174C24.3774 33.1528 24.3652 33.1241 24.365 33.094C24.365 33.031 24.415 32.98 24.479 32.98ZM25.041 32.98V32.982C25.101 32.982 25.149 33.029 25.152 33.088V33.094C25.152 33.155 25.102 33.207 25.041 33.207C25.0111 33.2068 24.9825 33.1948 24.9614 33.1736C24.9402 33.1525 24.9282 33.1239 24.928 33.094C24.928 33.031 24.978 32.98 25.041 32.98ZM25.601 32.98V32.982C25.661 32.982 25.711 33.028 25.715 33.088V33.094C25.7147 33.1239 25.7027 33.1525 25.6816 33.1736C25.6605 33.1948 25.6319 33.2068 25.602 33.207C25.5723 33.2065 25.5439 33.1944 25.523 33.1733C25.5021 33.1522 25.4902 33.1237 25.49 33.094C25.49 33.031 25.54 32.981 25.602 32.98H25.601ZM26.164 32.98V32.982C26.224 32.982 26.274 33.028 26.277 33.088V33.094C26.2767 33.1239 26.2647 33.1525 26.2436 33.1736C26.2225 33.1948 26.1939 33.2068 26.164 33.207C26.1344 33.2062 26.1064 33.194 26.0856 33.1729C26.0649 33.1519 26.0532 33.1236 26.053 33.094C26.053 33.031 26.103 32.981 26.164 32.98ZM26.727 32.98V32.982C26.787 32.982 26.837 33.028 26.84 33.088V33.094C26.8397 33.1239 26.8277 33.1525 26.8066 33.1736C26.7855 33.1948 26.7569 33.2068 26.727 33.207C26.6973 33.2065 26.6689 33.1944 26.648 33.1733C26.6271 33.1522 26.6152 33.1237 26.615 33.094C26.615 33.031 26.665 32.981 26.727 32.98ZM27.289 32.98C27.3172 32.9827 27.3435 32.9958 27.3626 33.0168C27.3817 33.0378 27.3923 33.0651 27.3923 33.0935C27.3923 33.1219 27.3817 33.1493 27.3626 33.1703C27.3435 33.1913 27.3172 33.2044 27.289 33.207C27.2594 33.2062 27.2314 33.194 27.2106 33.1729C27.1899 33.1519 27.1782 33.1236 27.178 33.094C27.178 33.031 27.228 32.981 27.289 32.98ZM27.852 32.98V32.982C27.8786 32.9817 27.9044 32.9911 27.9246 33.0084C27.9448 33.0257 27.9581 33.0497 27.962 33.076C27.964 33.084 27.964 33.086 27.962 33.094C27.962 33.155 27.912 33.207 27.852 33.207C27.8223 33.2065 27.7939 33.1944 27.773 33.1733C27.7521 33.1522 27.7402 33.1237 27.74 33.094C27.74 33.031 27.79 32.981 27.852 32.98ZM28.414 32.98V32.982C28.474 32.982 28.522 33.029 28.525 33.088V33.094C28.525 33.155 28.475 33.207 28.415 33.207C28.3849 33.207 28.3561 33.1951 28.3347 33.174C28.3134 33.1528 28.3012 33.1241 28.301 33.094C28.301 33.031 28.351 32.98 28.414 32.98ZM28.977 32.98V32.982C29.036 32.982 29.084 33.029 29.087 33.088V33.094C29.087 33.155 29.037 33.207 28.977 33.207C28.9469 33.207 28.9181 33.1951 28.8967 33.174C28.8754 33.1528 28.8632 33.1241 28.863 33.094C28.863 33.031 28.913 32.98 28.977 32.98ZM29.539 32.98V32.982C29.599 32.982 29.647 33.029 29.65 33.088V33.094C29.65 33.155 29.6 33.207 29.54 33.207C29.5099 33.207 29.4811 33.1951 29.4597 33.174C29.4384 33.1528 29.4262 33.1241 29.426 33.094C29.426 33.031 29.476 32.98 29.539 32.98ZM30.099 32.98V32.982C30.159 32.982 30.209 33.028 30.213 33.088V33.094C30.2127 33.1239 30.2007 33.1525 30.1796 33.1736C30.1585 33.1948 30.1299 33.2068 30.1 33.207C30.0703 33.2065 30.0419 33.1944 30.021 33.1733C30.0001 33.1522 29.9882 33.1237 29.988 33.094C29.988 33.031 30.038 32.981 30.1 32.98H30.099ZM30.662 32.98V32.982C30.722 32.982 30.772 33.028 30.775 33.088V33.094C30.7747 33.1239 30.7627 33.1525 30.7416 33.1736C30.7205 33.1948 30.6919 33.2068 30.662 33.207C30.6324 33.2062 30.6044 33.194 30.5836 33.1729C30.5629 33.1519 30.5512 33.1236 30.551 33.094C30.551 33.031 30.601 32.981 30.662 32.98ZM31.225 32.98V32.982C31.285 32.982 31.335 33.028 31.338 33.088V33.094C31.3377 33.1239 31.3257 33.1525 31.3046 33.1736C31.2835 33.1948 31.2549 33.2068 31.225 33.207C31.1953 33.2065 31.1669 33.1944 31.146 33.1733C31.1251 33.1522 31.1132 33.1237 31.113 33.094C31.113 33.031 31.163 32.981 31.225 32.98ZM31.787 32.98V32.982C31.8138 32.9815 31.8398 32.9907 31.8602 33.0081C31.8807 33.0254 31.8941 33.0495 31.898 33.076V33.094C31.898 33.155 31.848 33.207 31.788 33.207C31.7583 33.2065 31.7299 33.1944 31.709 33.1733C31.6881 33.1522 31.6762 33.1237 31.676 33.094C31.675 33.031 31.726 32.981 31.787 32.98ZM32.35 32.98V32.982C32.3766 32.9817 32.4024 32.9911 32.4226 33.0084C32.4428 33.0257 32.4561 33.0497 32.46 33.076C32.462 33.084 32.462 33.086 32.46 33.094C32.46 33.155 32.41 33.207 32.35 33.207C32.3199 33.207 32.2911 33.1951 32.2697 33.174C32.2484 33.1528 32.2362 33.1241 32.236 33.094C32.236 33.031 32.286 32.98 32.35 32.98ZM32.912 32.98V32.982C32.972 32.982 33.02 33.029 33.023 33.088V33.094C33.023 33.155 32.973 33.207 32.913 33.207C32.8829 33.207 32.8541 33.1951 32.8327 33.174C32.8114 33.1528 32.7992 33.1241 32.799 33.094C32.799 33.031 32.849 32.98 32.912 32.98ZM33.475 32.98V32.982C33.534 32.982 33.582 33.029 33.585 33.088V33.094C33.585 33.155 33.535 33.207 33.475 33.207C33.4449 33.207 33.4161 33.1951 33.3947 33.174C33.3734 33.1528 33.3612 33.1241 33.361 33.094C33.361 33.031 33.411 32.98 33.475 32.98ZM34.037 32.98V32.982C34.097 32.982 34.145 33.029 34.148 33.088V33.094C34.148 33.155 34.098 33.207 34.038 33.207C34.0079 33.207 33.9791 33.1951 33.9577 33.174C33.9364 33.1528 33.9242 33.1241 33.924 33.094C33.924 33.031 33.974 32.98 34.037 32.98ZM34.597 32.98V32.982C34.657 32.982 34.707 33.028 34.711 33.088V33.094C34.7107 33.1239 34.6987 33.1525 34.6776 33.1736C34.6565 33.1948 34.6279 33.2068 34.598 33.207C34.5683 33.2065 34.5399 33.1944 34.519 33.1733C34.4981 33.1522 34.4862 33.1237 34.486 33.094C34.486 33.031 34.536 32.981 34.598 32.98H34.597ZM18.237 35.2C18.3613 35.1984 18.4848 35.2214 18.6003 35.2675C18.7157 35.3137 18.821 35.3821 18.91 35.469C18.9997 35.5554 19.0715 35.6586 19.1212 35.7728C19.1709 35.887 19.1976 36.0099 19.1996 36.1344C19.2016 36.259 19.1791 36.3827 19.1331 36.4984C19.0872 36.6142 19.0188 36.7198 18.932 36.809L17.123 38.668C17.0365 38.7578 16.9331 38.8295 16.8187 38.879C16.7043 38.9285 16.5812 38.9548 16.4565 38.9564C16.3319 38.958 16.2082 38.9348 16.0926 38.8882C15.9769 38.8416 15.8717 38.7726 15.783 38.685C15.6933 38.5986 15.6216 38.4953 15.572 38.3811C15.5224 38.2668 15.4958 38.1439 15.4939 38.0194C15.4919 37.8949 15.5146 37.7712 15.5606 37.6554C15.6066 37.5397 15.6751 37.4342 15.762 37.345L17.57 35.488C17.6565 35.3984 17.7599 35.3267 17.8741 35.2771C17.9884 35.2275 18.1114 35.201 18.236 35.199L18.237 35.2ZM21.799 35.2C21.9235 35.1983 22.0471 35.2212 22.1628 35.2673C22.2785 35.3135 22.3839 35.382 22.473 35.469C22.5627 35.5554 22.6344 35.6587 22.684 35.773C22.7336 35.8872 22.7601 36.0101 22.7621 36.1347C22.764 36.2592 22.7414 36.3829 22.6954 36.4986C22.6493 36.6143 22.5809 36.7198 22.494 36.809L20.686 38.668C20.5995 38.7578 20.4961 38.8295 20.3817 38.879C20.2673 38.9285 20.1442 38.9548 20.0195 38.9564C19.8949 38.958 19.7712 38.9348 19.6556 38.8882C19.5399 38.8416 19.4347 38.7726 19.346 38.685C19.2562 38.5987 19.1844 38.4954 19.1347 38.3812C19.085 38.267 19.0584 38.1441 19.0564 38.0196C19.0543 37.8951 19.0769 37.7714 19.1228 37.6556C19.1688 37.5398 19.2371 37.4343 19.324 37.345L21.133 35.488C21.2195 35.3984 21.3229 35.3267 21.4371 35.2771C21.5514 35.2275 21.6744 35.201 21.799 35.199V35.2ZM25.176 35.2C25.3005 35.1982 25.4242 35.2211 25.5398 35.2672C25.6555 35.3134 25.7609 35.382 25.85 35.469C25.9397 35.5554 26.0114 35.6587 26.061 35.773C26.1106 35.8872 26.1371 36.0101 26.1391 36.1347C26.1411 36.2592 26.1184 36.3829 26.0724 36.4986C26.0263 36.6143 25.9579 36.7198 25.871 36.809L24.063 38.668C23.9765 38.7578 23.8731 38.8295 23.7587 38.879C23.6443 38.9285 23.5212 38.9548 23.3965 38.9564C23.2719 38.958 23.1482 38.9348 23.0326 38.8882C22.9169 38.8416 22.8117 38.7726 22.723 38.685C22.6332 38.5987 22.5614 38.4954 22.5117 38.3812C22.462 38.267 22.4354 38.1441 22.4334 38.0196C22.4313 37.8951 22.4539 37.7714 22.4998 37.6556C22.5458 37.5398 22.6141 37.4343 22.701 37.345L24.51 35.488C24.5965 35.3983 24.6998 35.3266 24.8141 35.277C24.9284 35.2274 25.0514 35.2009 25.176 35.199V35.2ZM28.738 35.2C28.8625 35.1982 28.9862 35.2211 29.1018 35.2672C29.2175 35.3134 29.3229 35.382 29.412 35.469C29.5017 35.5554 29.5735 35.6586 29.6232 35.7728C29.6729 35.887 29.6996 36.0099 29.7016 36.1344C29.7036 36.259 29.6811 36.3827 29.6351 36.4984C29.5892 36.6142 29.5208 36.7198 29.434 36.809L27.625 38.668C27.5385 38.7578 27.4351 38.8295 27.3207 38.879C27.2063 38.9285 27.0832 38.9548 26.9585 38.9564C26.8339 38.958 26.7102 38.9348 26.5946 38.8882C26.4789 38.8416 26.3737 38.7726 26.285 38.685C26.1953 38.5986 26.1236 38.4953 26.074 38.3811C26.0244 38.2668 25.9978 38.1439 25.9959 38.0194C25.9939 37.8949 26.0166 37.7712 26.0626 37.6554C26.1086 37.5397 26.1771 37.4342 26.264 37.345L28.072 35.488C28.1585 35.3983 28.2618 35.3266 28.3761 35.277C28.4904 35.2274 28.6134 35.2009 28.738 35.199V35.2ZM31.939 35.2C32.0635 35.1982 32.1872 35.2211 32.3028 35.2672C32.4185 35.3134 32.5239 35.382 32.613 35.469C32.7027 35.5554 32.7745 35.6586 32.8242 35.7728C32.8739 35.887 32.9006 36.0099 32.9026 36.1344C32.9046 36.259 32.8821 36.3827 32.8361 36.4984C32.7902 36.6142 32.7218 36.7198 32.635 36.809L30.826 38.668C30.7395 38.7578 30.6361 38.8295 30.5217 38.879C30.4073 38.9285 30.2842 38.9548 30.1595 38.9564C30.0349 38.958 29.9112 38.9348 29.7956 38.8882C29.6799 38.8416 29.5747 38.7726 29.486 38.685C29.3963 38.5986 29.3246 38.4953 29.275 38.3811C29.2254 38.2668 29.1988 38.1439 29.1969 38.0194C29.1949 37.8949 29.2176 37.7712 29.2636 37.6554C29.3096 37.5397 29.3781 37.4342 29.465 37.345L31.273 35.488C31.3595 35.3984 31.4629 35.3267 31.5772 35.2771C31.6914 35.2275 31.8144 35.201 31.939 35.199V35.2Z" fill="#333333"/>
</svg>
