<svg width="48" height="48" viewBox="0 0 48 48" fill="none" xmlns="http://www.w3.org/2000/svg">
<path d="M23.813 4.09404C20.516 4.10404 17.282 4.12404 14.147 4.12504C13.277 4.12504 12.58 4.82404 12.58 5.69304V42.555C12.58 43.425 13.277 44.125 14.146 44.125H33.852C34.721 44.125 35.42 43.425 35.42 42.555V5.69304C35.42 4.82304 34.721 4.12504 33.852 4.12504C30.5055 4.08863 27.1587 4.0783 23.812 4.09404H23.813ZM19.733 5.16204H19.74C19.7694 5.16309 19.7971 5.17562 19.8173 5.19692C19.8375 5.21823 19.8485 5.24662 19.848 5.27597C19.8475 5.30532 19.8354 5.3333 19.8145 5.35387C19.7936 5.37444 19.7654 5.38597 19.736 5.38597C19.7067 5.38597 19.6785 5.37444 19.6575 5.35387C19.6366 5.3333 19.6246 5.30532 19.624 5.27597C19.6235 5.24662 19.6345 5.21823 19.6547 5.19692C19.6749 5.17562 19.7027 5.16309 19.732 5.16204H19.733ZM28.252 5.16204H28.26C28.2894 5.16309 28.3171 5.17562 28.3373 5.19692C28.3575 5.21823 28.3685 5.24662 28.368 5.27597C28.3675 5.30532 28.3554 5.3333 28.3345 5.35387C28.3136 5.37444 28.2854 5.38597 28.256 5.38597C28.2267 5.38597 28.1985 5.37444 28.1775 5.35387C28.1566 5.3333 28.1446 5.30532 28.144 5.27597C28.1435 5.24662 28.1545 5.21823 28.1747 5.19692C28.1949 5.17562 28.2227 5.16309 28.252 5.16204ZM19.732 5.72504H19.74C19.7694 5.72609 19.7971 5.73862 19.8173 5.75992C19.8375 5.78123 19.8485 5.80962 19.848 5.83897C19.8475 5.86832 19.8354 5.8963 19.8145 5.91687C19.7936 5.93744 19.7654 5.94897 19.736 5.94897C19.7067 5.94897 19.6785 5.93744 19.6575 5.91687C19.6366 5.8963 19.6246 5.86832 19.624 5.83897C19.6235 5.80962 19.6345 5.78123 19.6547 5.75992C19.6749 5.73862 19.7027 5.72609 19.732 5.72504ZM28.252 5.72504H28.26C28.2894 5.72609 28.3171 5.73862 28.3373 5.75992C28.3575 5.78123 28.3685 5.80962 28.368 5.83897C28.3675 5.86832 28.3554 5.8963 28.3345 5.91687C28.3136 5.93744 28.2854 5.94897 28.256 5.94897C28.2267 5.94897 28.1985 5.93744 28.1775 5.91687C28.1566 5.8963 28.1446 5.86832 28.144 5.83897C28.1435 5.80962 28.1545 5.78123 28.1747 5.75992C28.1949 5.73862 28.2227 5.72609 28.252 5.72504ZM19.722 6.28704H19.74C19.7546 6.28678 19.7691 6.28943 19.7827 6.29483C19.7963 6.30024 19.8087 6.3083 19.8191 6.31854C19.8295 6.32879 19.8378 6.341 19.8435 6.35448C19.8491 6.36796 19.852 6.38243 19.852 6.39704C19.852 6.45804 19.802 6.50704 19.74 6.50704C19.7105 6.50731 19.682 6.4959 19.6609 6.4753C19.6397 6.4547 19.6275 6.42657 19.627 6.39704C19.6268 6.37014 19.6364 6.34409 19.6541 6.32382C19.6718 6.30355 19.6963 6.29047 19.723 6.28704H19.722ZM28.242 6.28704H28.26C28.2745 6.28691 28.289 6.28966 28.3024 6.29513C28.3159 6.3006 28.3281 6.30868 28.3384 6.3189C28.3488 6.32913 28.357 6.3413 28.3625 6.35471C28.3681 6.36813 28.371 6.38251 28.371 6.39704C28.371 6.45804 28.321 6.50704 28.26 6.50704C28.2453 6.50731 28.2307 6.50467 28.217 6.49929C28.2033 6.4939 28.1908 6.48587 28.1802 6.47566C28.1696 6.46544 28.1612 6.45324 28.1553 6.43975C28.1494 6.42626 28.1463 6.41175 28.146 6.39704C28.1458 6.37014 28.1554 6.34409 28.1731 6.32382C28.1908 6.30355 28.2153 6.29047 28.242 6.28704ZM19.742 6.84604C19.805 6.84604 19.854 6.89704 19.853 6.95904C19.853 7.02104 19.803 7.07204 19.743 7.07204C19.713 7.07204 19.6841 7.06017 19.6628 7.03901C19.6414 7.01784 19.6293 6.9891 19.629 6.95904C19.629 6.89604 19.679 6.84504 19.742 6.84604ZM28.262 6.84604C28.324 6.84604 28.374 6.89704 28.373 6.95904C28.373 7.02104 28.323 7.07204 28.262 7.07204C28.232 7.07204 28.2031 7.06017 28.1818 7.03901C28.1604 7.01784 28.1483 6.9891 28.148 6.95904C28.148 6.89604 28.199 6.84504 28.262 6.84604ZM16.375 6.84804C16.5898 6.84045 16.8038 6.87618 17.0045 6.95312C17.2051 7.03006 17.3882 7.14662 17.5428 7.29585C17.6974 7.44508 17.8203 7.62392 17.9043 7.82171C17.9883 8.01949 18.0316 8.23217 18.0316 8.44704C18.0316 8.66192 17.9883 8.87459 17.9043 9.07238C17.8203 9.27016 17.6974 9.44901 17.5428 9.59824C17.3882 9.74747 17.2051 9.86403 17.0045 9.94096C16.8038 10.0179 16.5898 10.0536 16.375 10.046C15.9607 10.0314 15.5683 9.85651 15.2804 9.55824C14.9925 9.25997 14.8316 8.86159 14.8316 8.44704C14.8316 8.03249 14.9925 7.63412 15.2804 7.33585C15.5683 7.03758 15.9607 6.8627 16.375 6.84804ZM24 6.84804C24.2148 6.84045 24.4288 6.87618 24.6295 6.95312C24.8301 7.03006 25.0132 7.14662 25.1678 7.29585C25.3224 7.44508 25.4453 7.62392 25.5293 7.82171C25.6133 8.01949 25.6566 8.23217 25.6566 8.44704C25.6566 8.66192 25.6133 8.87459 25.5293 9.07238C25.4453 9.27016 25.3224 9.44901 25.1678 9.59824C25.0132 9.74747 24.8301 9.86403 24.6295 9.94096C24.4288 10.0179 24.2148 10.0536 24 10.046C23.5857 10.0314 23.1933 9.85651 22.9054 9.55824C22.6175 9.25997 22.4566 8.86159 22.4566 8.44704C22.4566 8.03249 22.6175 7.63412 22.9054 7.33585C23.1933 7.03758 23.5857 6.8627 24 6.84804ZM31.625 6.84804C31.8398 6.84045 32.0538 6.87618 32.2545 6.95312C32.4551 7.03006 32.6382 7.14662 32.7928 7.29585C32.9474 7.44508 33.0703 7.62392 33.1543 7.82171C33.2383 8.01949 33.2816 8.23217 33.2816 8.44704C33.2816 8.66192 33.2383 8.87459 33.1543 9.07238C33.0703 9.27016 32.9474 9.44901 32.7928 9.59824C32.6382 9.74747 32.4551 9.86403 32.2545 9.94096C32.0538 10.0179 31.8398 10.0536 31.625 10.046C31.2107 10.0314 30.8183 9.85651 30.5304 9.55824C30.2425 9.25997 30.0816 8.86159 30.0816 8.44704C30.0816 8.03249 30.2425 7.63412 30.5304 7.33585C30.8183 7.03758 31.2107 6.8627 31.625 6.84804ZM19.732 7.40804H19.74C19.802 7.40804 19.852 7.45904 19.852 7.52104C19.852 7.58304 19.802 7.63404 19.74 7.63504C19.71 7.63478 19.6812 7.62265 19.6601 7.6013C19.6389 7.57995 19.627 7.5511 19.627 7.52104C19.627 7.46104 19.673 7.41104 19.732 7.40804ZM28.252 7.40804H28.26C28.322 7.40804 28.372 7.45904 28.371 7.52104C28.371 7.58304 28.321 7.63404 28.26 7.63504C28.2298 7.63504 28.2008 7.62303 28.1794 7.60165C28.158 7.58027 28.146 7.55128 28.146 7.52104C28.146 7.46104 28.192 7.41104 28.252 7.40804ZM19.732 7.96804H19.74C19.7683 7.9707 19.7945 7.9838 19.8136 8.0048C19.8328 8.02579 19.8434 8.05315 19.8434 8.08154C19.8434 8.10993 19.8328 8.1373 19.8136 8.15829C19.7945 8.17928 19.7683 8.19239 19.74 8.19504C19.7101 8.19478 19.6815 8.18279 19.6604 8.16166C19.6393 8.14052 19.6273 8.11193 19.627 8.08204C19.627 8.02204 19.673 7.97204 19.732 7.96904V7.96804ZM28.252 7.96804H28.26C28.2758 7.96656 28.2918 7.96839 28.3068 7.97342C28.3219 7.97845 28.3357 7.98656 28.3474 7.99725C28.3592 8.00793 28.3685 8.02095 28.375 8.03546C28.3814 8.04998 28.3847 8.06567 28.3847 8.08154C28.3847 8.09741 28.3814 8.11311 28.375 8.12762C28.3685 8.14214 28.3592 8.15515 28.3474 8.16584C28.3357 8.17652 28.3219 8.18464 28.3068 8.18967C28.2918 8.1947 28.2758 8.19653 28.26 8.19504C28.2301 8.19478 28.2015 8.18279 28.1804 8.16166C28.1593 8.14052 28.1473 8.11193 28.147 8.08204C28.146 8.02204 28.192 7.97204 28.252 7.96904V7.96804ZM19.732 8.53104H19.74C19.7683 8.5337 19.7945 8.5468 19.8136 8.56779C19.8328 8.58879 19.8434 8.61615 19.8434 8.64454C19.8434 8.67293 19.8328 8.7003 19.8136 8.72129C19.7945 8.74228 19.7683 8.75539 19.74 8.75804C19.7101 8.75778 19.6815 8.74579 19.6604 8.72466C19.6393 8.70352 19.6273 8.67493 19.627 8.64504C19.627 8.58504 19.673 8.53504 19.732 8.53104ZM28.252 8.53104H28.26C28.2883 8.5337 28.3145 8.5468 28.3336 8.56779C28.3528 8.58879 28.3634 8.61615 28.3634 8.64454C28.3634 8.67293 28.3528 8.7003 28.3336 8.72129C28.3145 8.74228 28.2883 8.75539 28.26 8.75804C28.2301 8.75778 28.2015 8.74579 28.1804 8.72466C28.1593 8.70352 28.1473 8.67493 28.147 8.64504C28.146 8.58504 28.192 8.53504 28.252 8.53104ZM19.732 9.09404H19.74C19.7694 9.09509 19.7971 9.10762 19.8173 9.12892C19.8375 9.15023 19.8485 9.17862 19.848 9.20797C19.8475 9.23732 19.8354 9.2653 19.8145 9.28587C19.7936 9.30644 19.7654 9.31797 19.736 9.31797C19.7067 9.31797 19.6785 9.30644 19.6575 9.28587C19.6366 9.2653 19.6246 9.23732 19.624 9.20797C19.6235 9.17862 19.6345 9.15023 19.6547 9.12892C19.6749 9.10762 19.7027 9.09509 19.732 9.09404ZM28.252 9.09404H28.26C28.2894 9.09509 28.3171 9.10762 28.3373 9.12892C28.3575 9.15023 28.3685 9.17862 28.368 9.20797C28.3675 9.23732 28.3554 9.2653 28.3345 9.28587C28.3136 9.30644 28.2854 9.31797 28.256 9.31797C28.2267 9.31797 28.1985 9.30644 28.1775 9.28587C28.1566 9.2653 28.1446 9.23732 28.144 9.20797C28.1435 9.17862 28.1545 9.15023 28.1747 9.12892C28.1949 9.10762 28.2227 9.09509 28.252 9.09404ZM19.732 9.65604H19.74C19.802 9.65704 19.851 9.70804 19.852 9.77004C19.852 9.79988 19.8402 9.82849 19.8191 9.84959C19.798 9.87069 19.7694 9.88254 19.7395 9.88254C19.7097 9.88254 19.6811 9.87069 19.66 9.84959C19.6389 9.82849 19.627 9.79988 19.627 9.77004C19.627 9.71004 19.674 9.66004 19.732 9.65604ZM28.252 9.65604H28.26C28.321 9.65704 28.37 9.70804 28.371 9.77004C28.371 9.79975 28.3592 9.82823 28.3382 9.84924C28.3172 9.87024 28.2887 9.88204 28.259 9.88204C28.2293 9.88204 28.2008 9.87024 28.1798 9.84924C28.1588 9.82823 28.147 9.79975 28.147 9.77004C28.147 9.71004 28.193 9.66004 28.252 9.65604ZM19.721 10.219H19.74C19.7703 10.219 19.7992 10.2311 19.8206 10.2524C19.842 10.2738 19.854 10.3028 19.854 10.333C19.854 10.3633 19.842 10.3923 19.8206 10.4137C19.7992 10.435 19.7703 10.447 19.74 10.447C19.725 10.4469 19.7102 10.4438 19.6965 10.438C19.6827 10.4321 19.6702 10.4236 19.6597 10.4129C19.6492 10.4023 19.6409 10.3896 19.6353 10.3757C19.6297 10.3619 19.6269 10.347 19.627 10.332C19.627 10.277 19.667 10.226 19.721 10.219ZM28.241 10.219H28.26C28.2903 10.219 28.3192 10.2311 28.3406 10.2524C28.362 10.2738 28.374 10.3028 28.374 10.333C28.374 10.3633 28.362 10.3923 28.3406 10.4137C28.3192 10.435 28.2903 10.447 28.26 10.447C28.245 10.447 28.2301 10.4441 28.2162 10.4383C28.2023 10.4325 28.1896 10.424 28.1791 10.4133C28.1685 10.4026 28.1601 10.3899 28.1544 10.376C28.1487 10.362 28.1459 10.3471 28.146 10.332C28.146 10.277 28.186 10.226 28.24 10.219H28.241ZM19.742 10.779C19.805 10.78 19.854 10.832 19.853 10.895C19.8528 10.924 19.841 10.9518 19.8204 10.9722C19.7998 10.9926 19.772 11.004 19.743 11.004C19.7282 11.0046 19.7135 11.0021 19.6997 10.9968C19.6859 10.9916 19.6733 10.9835 19.6626 10.9733C19.652 10.963 19.6435 10.9507 19.6378 10.9371C19.632 10.9235 19.629 10.9088 19.629 10.894C19.629 10.832 19.679 10.779 19.742 10.779ZM28.262 10.779C28.324 10.78 28.374 10.832 28.373 10.895C28.3729 10.9095 28.3699 10.9238 28.3643 10.9371C28.3586 10.9504 28.3504 10.9624 28.3401 10.9725C28.3298 10.9827 28.3176 10.9906 28.3042 10.9961C28.2908 11.0015 28.2765 11.0042 28.262 11.004C28.2472 11.0046 28.2325 11.0021 28.2187 10.9968C28.2049 10.9916 28.1923 10.9835 28.1816 10.9733C28.171 10.963 28.1625 10.9507 28.1568 10.9371C28.151 10.9235 28.148 10.9088 28.148 10.894C28.148 10.832 28.199 10.779 28.262 10.779ZM19.742 11.342C19.805 11.342 19.854 11.393 19.853 11.455C19.853 11.516 19.803 11.568 19.743 11.568C19.713 11.568 19.6843 11.5561 19.6631 11.5349C19.6419 11.5138 19.63 11.485 19.63 11.455C19.63 11.4251 19.6419 11.3963 19.6631 11.3751C19.6843 11.3539 19.713 11.342 19.743 11.342H19.742ZM28.262 11.342C28.324 11.342 28.374 11.393 28.373 11.455C28.373 11.516 28.323 11.568 28.262 11.568C28.232 11.568 28.2033 11.5561 28.1821 11.5349C28.1609 11.5138 28.149 11.485 28.149 11.455C28.149 11.4251 28.1609 11.3963 28.1821 11.3751C28.2033 11.3539 28.232 11.342 28.262 11.342ZM19.732 11.904C19.7324 11.933 19.7217 11.9609 19.7022 11.9823C19.6827 12.0036 19.6558 12.0168 19.627 12.019C19.627 11.959 19.673 11.908 19.732 11.904ZM28.252 11.904C28.2676 11.9032 28.2831 11.9056 28.2977 11.911C28.3123 11.9164 28.3257 11.9248 28.3369 11.9356C28.3481 11.9464 28.3571 11.9593 28.3631 11.9737C28.3691 11.988 28.3722 12.0035 28.372 12.019C28.371 12.081 28.321 12.132 28.26 12.133C28.23 12.133 28.2011 12.1212 28.1798 12.1C28.1584 12.0788 28.1463 12.0501 28.146 12.02C28.146 11.96 28.192 11.908 28.252 11.904ZM16.375 12.02C16.5898 12.0124 16.8038 12.0482 17.0045 12.1251C17.2051 12.2021 17.3882 12.3186 17.5428 12.4678C17.6974 12.6171 17.8203 12.7959 17.9043 12.9937C17.9883 13.1915 18.0316 13.4042 18.0316 13.619C18.0316 13.8339 17.9883 14.0466 17.9043 14.2444C17.8203 14.4422 17.6974 14.621 17.5428 14.7702C17.3882 14.9195 17.2051 15.036 17.0045 15.113C16.8038 15.1899 16.5898 15.2256 16.375 15.218C15.9607 15.2034 15.5683 15.0285 15.2804 14.7302C14.9925 14.432 14.8316 14.0336 14.8316 13.619C14.8316 13.2045 14.9925 12.8061 15.2804 12.5078C15.5683 12.2096 15.9607 12.0347 16.375 12.02ZM24 12.02C24.2148 12.0124 24.4288 12.0482 24.6295 12.1251C24.8301 12.2021 25.0132 12.3186 25.1678 12.4678C25.3224 12.6171 25.4453 12.7959 25.5293 12.9937C25.6133 13.1915 25.6566 13.4042 25.6566 13.619C25.6566 13.8339 25.6133 14.0466 25.5293 14.2444C25.4453 14.4422 25.3224 14.621 25.1678 14.7702C25.0132 14.9195 24.8301 15.036 24.6295 15.113C24.4288 15.1899 24.2148 15.2256 24 15.218C23.5857 15.2034 23.1933 15.0285 22.9054 14.7302C22.6175 14.432 22.4566 14.0336 22.4566 13.619C22.4566 13.2045 22.6175 12.8061 22.9054 12.5078C23.1933 12.2096 23.5857 12.0347 24 12.02ZM31.625 12.02C31.8398 12.0124 32.0538 12.0482 32.2545 12.1251C32.4551 12.2021 32.6382 12.3186 32.7928 12.4678C32.9474 12.6171 33.0703 12.7959 33.1543 12.9937C33.2383 13.1915 33.2816 13.4042 33.2816 13.619C33.2816 13.8339 33.2383 14.0466 33.1543 14.2444C33.0703 14.4422 32.9474 14.621 32.7928 14.7702C32.6382 14.9195 32.4551 15.036 32.2545 15.113C32.0538 15.1899 31.8398 15.2256 31.625 15.218C31.2107 15.2034 30.8183 15.0285 30.5304 14.7302C30.2425 14.432 30.0816 14.0336 30.0816 13.619C30.0816 13.2045 30.2425 12.8061 30.5304 12.5078C30.8183 12.2096 31.2107 12.0347 31.625 12.02ZM19.732 12.467C19.7475 12.4659 19.763 12.468 19.7776 12.4732C19.7922 12.4784 19.8055 12.4866 19.8168 12.4972C19.8281 12.5078 19.837 12.5207 19.8431 12.5349C19.8492 12.5492 19.8522 12.5646 19.852 12.58C19.852 12.641 19.802 12.695 19.74 12.695C19.7099 12.6945 19.6811 12.6822 19.66 12.6607C19.6389 12.6391 19.627 12.6102 19.627 12.58C19.627 12.52 19.673 12.47 19.732 12.467ZM28.252 12.467C28.2675 12.4659 28.283 12.468 28.2976 12.4732C28.3122 12.4784 28.3255 12.4866 28.3368 12.4972C28.3481 12.5078 28.357 12.5207 28.3631 12.5349C28.3692 12.5492 28.3722 12.5646 28.372 12.58C28.371 12.641 28.321 12.695 28.26 12.695C28.2297 12.6948 28.2007 12.6825 28.1793 12.661C28.158 12.6395 28.146 12.6104 28.146 12.58C28.146 12.52 28.192 12.47 28.252 12.467ZM19.721 14.717H19.74C19.7622 14.7172 19.7838 14.724 19.8021 14.7365C19.8204 14.7489 19.8346 14.7666 19.8429 14.7871C19.8512 14.8076 19.8532 14.8302 19.8487 14.8519C19.8441 14.8736 19.8333 14.8934 19.8175 14.9089C19.8017 14.9245 19.7816 14.9349 19.7599 14.9391C19.7381 14.9432 19.7156 14.9408 19.6952 14.9321C19.6748 14.9235 19.6575 14.909 19.6453 14.8904C19.6332 14.8719 19.6268 14.8502 19.627 14.828C19.627 14.773 19.667 14.724 19.721 14.717ZM28.241 14.717H28.26C28.2821 14.7174 28.3036 14.7244 28.3218 14.737C28.34 14.7495 28.354 14.7672 28.3621 14.7878C28.3703 14.8083 28.3722 14.8308 28.3675 14.8525C28.3629 14.8741 28.352 14.8938 28.3361 14.9093C28.3203 14.9247 28.3003 14.9351 28.2785 14.9391C28.2568 14.9432 28.2343 14.9407 28.214 14.932C28.1937 14.9233 28.1764 14.9088 28.1643 14.8903C28.1522 14.8718 28.1458 14.8501 28.146 14.828C28.146 14.773 28.186 14.724 28.24 14.717H28.241ZM19.721 15.279H19.74C19.802 15.28 19.851 15.329 19.852 15.391C19.8517 15.4123 19.8454 15.433 19.8337 15.4508C19.822 15.4686 19.8055 15.4827 19.7862 15.4915C19.7668 15.5002 19.7453 15.5033 19.7242 15.5003C19.7032 15.4973 19.6834 15.4884 19.6672 15.4745C19.6511 15.4607 19.6392 15.4426 19.6329 15.4222C19.6267 15.4019 19.6264 15.3802 19.632 15.3597C19.6377 15.3392 19.649 15.3207 19.6648 15.3064C19.6806 15.2922 19.7001 15.2827 19.721 15.279ZM28.241 15.279H28.26C28.321 15.28 28.37 15.329 28.371 15.391C28.3707 15.4124 28.3644 15.4332 28.3527 15.451C28.341 15.4688 28.3245 15.4829 28.305 15.4917C28.2856 15.5005 28.2641 15.5035 28.243 15.5004C28.2219 15.4974 28.2021 15.4884 28.1859 15.4744C28.1698 15.4605 28.1579 15.4423 28.1518 15.4219C28.1456 15.4015 28.1454 15.3797 28.1512 15.3592C28.157 15.3387 28.1685 15.3202 28.1844 15.306C28.2003 15.2918 28.22 15.2825 28.241 15.279ZM19.742 15.839C19.7719 15.8393 19.8004 15.8514 19.8213 15.8727C19.8422 15.894 19.8538 15.9227 19.8535 15.9525C19.8533 15.9824 19.8411 16.0109 19.8199 16.0318C19.7986 16.0527 19.7699 16.0643 19.74 16.064C19.7253 16.0639 19.7108 16.0609 19.6972 16.0551C19.6837 16.0494 19.6714 16.041 19.6611 16.0305C19.6508 16.02 19.6427 16.0076 19.6372 15.994C19.6317 15.9803 19.6289 15.9658 19.629 15.951C19.6291 15.9363 19.6322 15.9218 19.6379 15.9083C19.6437 15.8947 19.652 15.8824 19.6625 15.8721C19.673 15.8618 19.6854 15.8537 19.6991 15.8482C19.7127 15.8427 19.7273 15.8399 19.742 15.84V15.839ZM28.262 15.839C28.2768 15.8392 28.2914 15.8422 28.305 15.848C28.3186 15.8538 28.3309 15.8622 28.3413 15.8727C28.3516 15.8832 28.3598 15.8957 28.3653 15.9094C28.3709 15.9231 28.3736 15.9378 28.3735 15.9525C28.3734 15.9673 28.3703 15.9819 28.3646 15.9955C28.3588 16.0091 28.3504 16.0214 28.3399 16.0318C28.3293 16.0422 28.3168 16.0503 28.3031 16.0559C28.2894 16.0614 28.2748 16.0642 28.26 16.064C28.2453 16.0639 28.2308 16.0609 28.2172 16.0551C28.2037 16.0494 28.1914 16.041 28.1811 16.0305C28.1708 16.02 28.1627 16.0076 28.1572 15.994C28.1517 15.9803 28.1489 15.9658 28.149 15.951C28.1491 15.9363 28.1522 15.9218 28.1579 15.9083C28.1637 15.8947 28.172 15.8824 28.1825 15.8721C28.193 15.8618 28.2054 15.8537 28.2191 15.8482C28.2327 15.8427 28.2473 15.8399 28.262 15.84V15.839ZM16.375 17.254C16.5884 17.2487 16.8008 17.2861 16.9995 17.3641C17.1982 17.4421 17.3793 17.5591 17.5322 17.7081C17.685 17.8572 17.8064 18.0353 17.8894 18.232C17.9723 18.4287 18.015 18.6401 18.015 18.8535C18.015 19.067 17.9723 19.2783 17.8894 19.4751C17.8064 19.6718 17.685 19.8499 17.5322 19.999C17.3793 20.148 17.1982 20.265 16.9995 20.343C16.8008 20.421 16.5884 20.4584 16.375 20.453C15.9507 20.453 15.5437 20.2845 15.2436 19.9844C14.9436 19.6844 14.775 19.2774 14.775 18.853C14.775 18.4287 14.9436 18.0217 15.2436 17.7217C15.5437 17.4216 15.9507 17.253 16.375 17.253V17.254ZM24 17.254C24.2134 17.2487 24.4258 17.2861 24.6245 17.3641C24.8232 17.4421 25.0043 17.5591 25.1572 17.7081C25.31 17.8572 25.4314 18.0353 25.5144 18.232C25.5973 18.4287 25.64 18.6401 25.64 18.8535C25.64 19.067 25.5973 19.2783 25.5144 19.4751C25.4314 19.6718 25.31 19.8499 25.1572 19.999C25.0043 20.148 24.8232 20.265 24.6245 20.343C24.4258 20.421 24.2134 20.4584 24 20.453C23.5757 20.453 23.1687 20.2845 22.8686 19.9844C22.5686 19.6844 22.4 19.2774 22.4 18.853C22.4 18.4287 22.5686 18.0217 22.8686 17.7217C23.1687 17.4216 23.5757 17.253 24 17.253V17.254ZM31.625 17.254C31.8384 17.2487 32.0508 17.2861 32.2495 17.3641C32.4482 17.4421 32.6293 17.5591 32.7822 17.7081C32.935 17.8572 33.0564 18.0353 33.1394 18.232C33.2223 18.4287 33.265 18.6401 33.265 18.8535C33.265 19.067 33.2223 19.2783 33.1394 19.4751C33.0564 19.6718 32.935 19.8499 32.7822 19.999C32.6293 20.148 32.4482 20.265 32.2495 20.343C32.0508 20.421 31.8384 20.4584 31.625 20.453C31.2007 20.453 30.7937 20.2845 30.4936 19.9844C30.1936 19.6844 30.025 19.2774 30.025 18.853C30.025 18.4287 30.1936 18.0217 30.4936 17.7217C30.7937 17.4216 31.2007 17.253 31.625 17.253V17.254ZM19.732 17.527C19.7473 17.5259 19.7626 17.528 19.7771 17.5331C19.7916 17.5381 19.8048 17.5461 19.8161 17.5565C19.8273 17.5669 19.8363 17.5795 19.8425 17.5936C19.8487 17.6076 19.8519 17.6227 19.852 17.638C19.852 17.701 19.802 17.753 19.74 17.754C19.725 17.7539 19.7102 17.7508 19.6965 17.745C19.6827 17.7391 19.6702 17.7306 19.6597 17.7199C19.6492 17.7093 19.6409 17.6966 19.6353 17.6827C19.6297 17.6689 19.6269 17.654 19.627 17.639C19.627 17.579 19.674 17.531 19.732 17.527ZM28.252 17.527C28.2673 17.5259 28.2826 17.528 28.2971 17.5331C28.3116 17.5381 28.3248 17.5461 28.3361 17.5565C28.3473 17.5669 28.3563 17.5795 28.3625 17.5936C28.3687 17.6076 28.3719 17.6227 28.372 17.638C28.372 17.701 28.322 17.753 28.26 17.754C28.245 17.754 28.2301 17.7511 28.2162 17.7453C28.2023 17.7395 28.1896 17.731 28.1791 17.7203C28.1685 17.7096 28.1601 17.6969 28.1544 17.683C28.1487 17.669 28.1459 17.6541 28.146 17.639C28.146 17.579 28.193 17.531 28.252 17.527ZM19.721 19.215H19.74C19.7625 19.215 19.7844 19.2217 19.803 19.2342C19.8216 19.2467 19.8361 19.2645 19.8446 19.2853C19.8531 19.306 19.8552 19.3289 19.8507 19.3508C19.8462 19.3728 19.8352 19.3929 19.8192 19.4087C19.8032 19.4244 19.7829 19.435 19.7608 19.4391C19.7388 19.4432 19.716 19.4407 19.6954 19.4319C19.6748 19.423 19.6573 19.4082 19.6451 19.3894C19.6329 19.3705 19.6266 19.3485 19.627 19.326C19.627 19.271 19.667 19.222 19.721 19.215ZM28.241 19.215H28.26C28.2821 19.2154 28.3036 19.2224 28.3218 19.235C28.34 19.2475 28.354 19.2652 28.3621 19.2858C28.3703 19.3063 28.3722 19.3288 28.3675 19.3505C28.3629 19.3721 28.352 19.3918 28.3361 19.4073C28.3203 19.4227 28.3003 19.4331 28.2785 19.4371C28.2568 19.4412 28.2343 19.4387 28.214 19.43C28.1937 19.4213 28.1764 19.4068 28.1643 19.3883C28.1522 19.3698 28.1458 19.3481 28.146 19.326C28.146 19.271 28.186 19.222 28.24 19.215H28.241ZM19.742 19.775C19.7719 19.7753 19.8004 19.7874 19.8213 19.8087C19.8422 19.83 19.8538 19.8587 19.8535 19.8885C19.8533 19.9184 19.8411 19.9469 19.8199 19.9678C19.7986 19.9887 19.7699 20.0003 19.74 20C19.7252 19.9999 19.7106 19.9969 19.697 19.9911C19.6834 19.9853 19.6711 19.9769 19.6608 19.9664C19.6399 19.9451 19.6283 19.9164 19.6285 19.8865C19.6288 19.8567 19.6409 19.8282 19.6622 19.8073C19.6835 19.7864 19.7122 19.7748 19.742 19.775ZM28.262 19.775C28.2768 19.7752 28.2914 19.7782 28.305 19.784C28.3186 19.7898 28.3309 19.7982 28.3413 19.8087C28.3516 19.8192 28.3598 19.8317 28.3653 19.8454C28.3709 19.8591 28.3736 19.8738 28.3735 19.8885C28.3734 19.9033 28.3703 19.9179 28.3646 19.9315C28.3588 19.9451 28.3504 19.9574 28.3399 19.9678C28.3293 19.9782 28.3168 19.9863 28.3031 19.9919C28.2894 19.9974 28.2748 20.0002 28.26 20C28.2302 19.9998 28.2017 19.9877 28.1808 19.9664C28.1599 19.9451 28.1483 19.9164 28.1485 19.8865C28.1488 19.8567 28.1609 19.8282 28.1822 19.8073C28.2035 19.7864 28.2322 19.7748 28.262 19.775ZM16.375 22.488C16.7994 22.488 17.2063 22.6566 17.5064 22.9567C17.8064 23.2567 17.975 23.6637 17.975 24.088C17.975 24.5124 17.8064 24.9194 17.5064 25.2194C17.2063 25.5195 16.7994 25.688 16.375 25.688C15.9507 25.688 15.5437 25.5195 15.2436 25.2194C14.9436 24.9194 14.775 24.5124 14.775 24.088C14.775 23.6637 14.9436 23.2567 15.2436 22.9567C15.5437 22.6566 15.9507 22.488 16.375 22.488ZM24 22.488C24.4244 22.488 24.8313 22.6566 25.1314 22.9567C25.4314 23.2567 25.6 23.6637 25.6 24.088C25.6 24.5124 25.4314 24.9194 25.1314 25.2194C24.8313 25.5195 24.4244 25.688 24 25.688C23.5757 25.688 23.1687 25.5195 22.8686 25.2194C22.5686 24.9194 22.4 24.5124 22.4 24.088C22.4 23.6637 22.5686 23.2567 22.8686 22.9567C23.1687 22.6566 23.5757 22.488 24 22.488ZM31.625 22.488C32.0494 22.488 32.4563 22.6566 32.7564 22.9567C33.0564 23.2567 33.225 23.6637 33.225 24.088C33.225 24.5124 33.0564 24.9194 32.7564 25.2194C32.4563 25.5195 32.0494 25.688 31.625 25.688C31.2007 25.688 30.7937 25.5195 30.4936 25.2194C30.1936 24.9194 30.025 24.5124 30.025 24.088C30.025 23.6637 30.1936 23.2567 30.4936 22.9567C30.7937 22.6566 31.2007 22.488 31.625 22.488ZM19.721 23.713H19.74C19.7622 23.7132 19.7838 23.72 19.8021 23.7325C19.8204 23.7449 19.8346 23.7626 19.8429 23.7831C19.8512 23.8036 19.8532 23.8262 19.8487 23.8479C19.8441 23.8696 19.8333 23.8894 19.8175 23.9049C19.8017 23.9205 19.7816 23.9309 19.7599 23.9351C19.7381 23.9392 19.7156 23.9368 19.6952 23.9281C19.6748 23.9195 19.6575 23.905 19.6453 23.8864C19.6332 23.8679 19.6268 23.8462 19.627 23.824C19.627 23.769 19.667 23.72 19.721 23.713ZM28.241 23.713H28.26C28.2821 23.7134 28.3036 23.7204 28.3218 23.733C28.34 23.7455 28.354 23.7632 28.3621 23.7838C28.3703 23.8043 28.3722 23.8268 28.3675 23.8485C28.3629 23.8701 28.352 23.8898 28.3361 23.9053C28.3203 23.9207 28.3003 23.9311 28.2785 23.9351C28.2568 23.9392 28.2343 23.9367 28.214 23.928C28.1937 23.9193 28.1764 23.9048 28.1643 23.8863C28.1522 23.8678 28.1458 23.8461 28.146 23.824C28.146 23.769 28.186 23.72 28.24 23.713H28.241ZM19.721 24.275H19.74C19.802 24.275 19.851 24.325 19.852 24.387C19.8517 24.4083 19.8454 24.429 19.8337 24.4468C19.822 24.4646 19.8055 24.4787 19.7862 24.4875C19.7668 24.4962 19.7453 24.4993 19.7242 24.4963C19.7032 24.4933 19.6834 24.4844 19.6672 24.4705C19.6511 24.4567 19.6392 24.4386 19.6329 24.4182C19.6267 24.3979 19.6264 24.3762 19.632 24.3557C19.6377 24.3352 19.649 24.3167 19.6648 24.3024C19.6806 24.2882 19.7001 24.2787 19.721 24.275ZM28.241 24.275H28.26C28.321 24.275 28.37 24.325 28.371 24.387C28.3707 24.4084 28.3644 24.4292 28.3527 24.447C28.341 24.4648 28.3245 24.4789 28.305 24.4877C28.2856 24.4965 28.2641 24.4995 28.243 24.4964C28.2219 24.4934 28.2021 24.4844 28.1859 24.4704C28.1698 24.4565 28.1579 24.4383 28.1518 24.4179C28.1456 24.3975 28.1454 24.3757 28.1512 24.3552C28.157 24.3347 28.1685 24.3162 28.1844 24.302C28.2003 24.2878 28.22 24.2785 28.241 24.275ZM16.375 27.723C16.5884 27.7177 16.8008 27.7551 16.9995 27.8331C17.1982 27.9111 17.3793 28.0281 17.5322 28.1771C17.685 28.3262 17.8064 28.5043 17.8894 28.701C17.9723 28.8977 18.015 29.1091 18.015 29.3225C18.015 29.536 17.9723 29.7473 17.8894 29.9441C17.8064 30.1408 17.685 30.3189 17.5322 30.468C17.3793 30.617 17.1982 30.734 16.9995 30.812C16.8008 30.89 16.5884 30.9274 16.375 30.922C15.9507 30.922 15.5437 30.7535 15.2436 30.4534C14.9436 30.1534 14.775 29.7464 14.775 29.322C14.775 28.8977 14.9436 28.4907 15.2436 28.1907C15.5437 27.8906 15.9507 27.722 16.375 27.722V27.723ZM24 27.723C24.2134 27.7177 24.4258 27.7551 24.6245 27.8331C24.8232 27.9111 25.0043 28.0281 25.1572 28.1771C25.31 28.3262 25.4314 28.5043 25.5144 28.701C25.5973 28.8977 25.64 29.1091 25.64 29.3225C25.64 29.536 25.5973 29.7473 25.5144 29.9441C25.4314 30.1408 25.31 30.3189 25.1572 30.468C25.0043 30.617 24.8232 30.734 24.6245 30.812C24.4258 30.89 24.2134 30.9274 24 30.922C23.5757 30.922 23.1687 30.7535 22.8686 30.4534C22.5686 30.1534 22.4 29.7464 22.4 29.322C22.4 28.8977 22.5686 28.4907 22.8686 28.1907C23.1687 27.8906 23.5757 27.722 24 27.722V27.723ZM31.625 27.723C31.8384 27.7177 32.0508 27.7551 32.2495 27.8331C32.4482 27.9111 32.6293 28.0281 32.7822 28.1771C32.935 28.3262 33.0564 28.5043 33.1394 28.701C33.2223 28.8977 33.265 29.1091 33.265 29.3225C33.265 29.536 33.2223 29.7473 33.1394 29.9441C33.0564 30.1408 32.935 30.3189 32.7822 30.468C32.6293 30.617 32.4482 30.734 32.2495 30.812C32.0508 30.89 31.8384 30.9274 31.625 30.922C31.2007 30.922 30.7937 30.7535 30.4936 30.4534C30.1936 30.1534 30.025 29.7464 30.025 29.322C30.025 28.8977 30.1936 28.4907 30.4936 28.1907C30.7937 27.8906 31.2007 27.722 31.625 27.722V27.723ZM19.721 28.211H19.74C19.802 28.211 19.851 28.261 19.852 28.322C19.8519 28.3434 19.8457 28.3642 19.8342 28.3821C19.8226 28.4 19.8062 28.4143 19.7868 28.4232C19.7675 28.4321 19.746 28.4353 19.7248 28.4324C19.7037 28.4295 19.6839 28.4206 19.6676 28.4069C19.6514 28.3931 19.6394 28.375 19.633 28.3546C19.6267 28.3342 19.6264 28.3125 19.632 28.292C19.6376 28.2714 19.6489 28.2529 19.6647 28.2385C19.6805 28.2242 19.7 28.2147 19.721 28.211ZM28.241 28.211H28.26C28.321 28.211 28.37 28.261 28.371 28.322C28.3709 28.3434 28.3647 28.3643 28.3532 28.3823C28.3416 28.4002 28.3251 28.4145 28.3057 28.4234C28.2863 28.4323 28.2647 28.4355 28.2436 28.4325C28.2224 28.4296 28.2025 28.4206 28.1863 28.4068C28.17 28.3929 28.1581 28.3747 28.1519 28.3542C28.1457 28.3338 28.1454 28.312 28.1512 28.2914C28.1569 28.2709 28.1684 28.2524 28.1843 28.2381C28.2003 28.2239 28.2199 28.2145 28.241 28.211ZM19.742 28.771C19.7568 28.7712 19.7714 28.7742 19.785 28.78C19.7986 28.7858 19.8109 28.7942 19.8213 28.8047C19.8316 28.8152 19.8398 28.8277 19.8453 28.8414C19.8509 28.8551 19.8536 28.8698 19.8535 28.8845C19.8534 28.8993 19.8503 28.9139 19.8446 28.9275C19.8388 28.9411 19.8304 28.9534 19.8199 28.9638C19.8093 28.9742 19.7968 28.9823 19.7831 28.9879C19.7694 28.9934 19.7548 28.9962 19.74 28.996C19.7103 28.9958 19.6819 28.9837 19.6611 28.9625C19.6403 28.9413 19.6288 28.9127 19.629 28.883C19.6293 28.8533 19.6413 28.825 19.6625 28.8041C19.6837 28.7833 19.7123 28.7718 19.742 28.772V28.771ZM28.262 28.771C28.2768 28.7712 28.2914 28.7742 28.305 28.78C28.3186 28.7858 28.3309 28.7942 28.3413 28.8047C28.3516 28.8152 28.3598 28.8277 28.3653 28.8414C28.3709 28.8551 28.3736 28.8698 28.3735 28.8845C28.3734 28.8993 28.3703 28.9139 28.3646 28.9275C28.3588 28.9411 28.3504 28.9534 28.3399 28.9638C28.3293 28.9742 28.3168 28.9823 28.3031 28.9879C28.2894 28.9934 28.2748 28.9962 28.26 28.996C28.2303 28.9958 28.2019 28.9837 28.1811 28.9625C28.1603 28.9413 28.1488 28.9127 28.149 28.883C28.1493 28.8533 28.1613 28.825 28.1825 28.8041C28.2037 28.7833 28.2323 28.7718 28.262 28.772V28.771ZM19.732 31.019C19.7474 31.0182 19.7628 31.0205 19.7773 31.0258C19.7917 31.0312 19.805 31.0393 19.8162 31.0499C19.8274 31.0604 19.8363 31.0732 19.8425 31.0873C19.8487 31.1014 19.8519 31.1166 19.852 31.132C19.852 31.1619 19.8402 31.1905 19.8191 31.2116C19.798 31.2327 19.7694 31.2445 19.7395 31.2445C19.7097 31.2445 19.6811 31.2327 19.66 31.2116C19.6389 31.1905 19.627 31.1619 19.627 31.132C19.627 31.073 19.674 31.023 19.732 31.019ZM28.252 31.019C28.2674 31.0182 28.2828 31.0205 28.2973 31.0258C28.3117 31.0312 28.325 31.0393 28.3362 31.0499C28.3474 31.0604 28.3563 31.0732 28.3625 31.0873C28.3687 31.1014 28.3719 31.1166 28.372 31.132C28.372 31.162 28.3601 31.1908 28.3389 31.2119C28.3177 31.2331 28.289 31.245 28.259 31.245C28.229 31.245 28.2003 31.2331 28.1791 31.2119C28.1579 31.1908 28.146 31.162 28.146 31.132C28.146 31.073 28.193 31.023 28.252 31.019ZM19.721 32.145H19.74C19.7625 32.1451 19.7845 32.1518 19.8031 32.1643C19.8217 32.1769 19.8362 32.1947 19.8447 32.2155C19.8531 32.2363 19.8552 32.2592 19.8506 32.2812C19.846 32.3032 19.8349 32.3233 19.8188 32.339C19.8027 32.3547 19.7823 32.3652 19.7602 32.3692C19.7381 32.3732 19.7152 32.3706 19.6947 32.3616C19.6741 32.3525 19.6566 32.3376 19.6446 32.3186C19.6325 32.2996 19.6264 32.2775 19.627 32.255C19.627 32.201 19.667 32.152 19.721 32.145ZM28.241 32.145H28.26C28.2822 32.1454 28.3037 32.1524 28.3219 32.165C28.3401 32.1777 28.3541 32.1954 28.3622 32.216C28.3703 32.2366 28.3721 32.2592 28.3674 32.2808C28.3627 32.3025 28.3517 32.3222 28.3358 32.3376C28.3198 32.353 28.2997 32.3633 28.2779 32.3672C28.2561 32.3712 28.2336 32.3686 28.2133 32.3597C28.193 32.3509 28.1758 32.3362 28.1638 32.3176C28.1518 32.299 28.1456 32.2772 28.146 32.255C28.146 32.201 28.186 32.152 28.24 32.145H28.241ZM19.721 32.707H19.74C19.802 32.707 19.851 32.757 19.852 32.818C19.852 32.8479 19.8402 32.8765 19.8191 32.8976C19.798 32.9187 19.7694 32.9305 19.7395 32.9305C19.7097 32.9305 19.6811 32.9187 19.66 32.8976C19.6389 32.8765 19.627 32.8479 19.627 32.818C19.627 32.764 19.667 32.715 19.721 32.707ZM28.241 32.707H28.26C28.321 32.707 28.37 32.757 28.371 32.818C28.371 32.8477 28.3592 32.8762 28.3382 32.8972C28.3172 32.9182 28.2887 32.93 28.259 32.93C28.2293 32.93 28.2008 32.9182 28.1798 32.8972C28.1588 32.8762 28.147 32.8477 28.147 32.818C28.147 32.764 28.186 32.715 28.24 32.707H28.241ZM16.375 32.957C16.5884 32.9517 16.8008 32.9891 16.9995 33.0671C17.1982 33.1451 17.3793 33.2621 17.5322 33.4111C17.685 33.5602 17.8064 33.7383 17.8894 33.935C17.9723 34.1317 18.015 34.3431 18.015 34.5565C18.015 34.77 17.9723 34.9813 17.8894 35.1781C17.8064 35.3748 17.685 35.5529 17.5322 35.702C17.3793 35.851 17.1982 35.968 16.9995 36.046C16.8008 36.124 16.5884 36.1614 16.375 36.156C15.9577 36.1456 15.561 35.9725 15.2696 35.6737C14.9781 35.3749 14.815 34.974 14.815 34.5565C14.815 34.1391 14.9781 33.7382 15.2696 33.4394C15.561 33.1406 15.9577 32.9675 16.375 32.957ZM24 32.957C24.2134 32.9517 24.4258 32.9891 24.6245 33.0671C24.8232 33.1451 25.0043 33.2621 25.1572 33.4111C25.31 33.5602 25.4314 33.7383 25.5144 33.935C25.5973 34.1317 25.64 34.3431 25.64 34.5565C25.64 34.77 25.5973 34.9813 25.5144 35.1781C25.4314 35.3748 25.31 35.5529 25.1572 35.702C25.0043 35.851 24.8232 35.968 24.6245 36.046C24.4258 36.124 24.2134 36.1614 24 36.156C23.5827 36.1456 23.186 35.9725 22.8946 35.6737C22.6031 35.3749 22.44 34.974 22.44 34.5565C22.44 34.1391 22.6031 33.7382 22.8946 33.4394C23.186 33.1406 23.5827 32.9675 24 32.957ZM31.625 32.957C31.8384 32.9517 32.0508 32.9891 32.2495 33.0671C32.4482 33.1451 32.6293 33.2621 32.7822 33.4111C32.935 33.5602 33.0564 33.7383 33.1394 33.935C33.2223 34.1317 33.265 34.3431 33.265 34.5565C33.265 34.77 33.2223 34.9813 33.1394 35.1781C33.0564 35.3748 32.935 35.5529 32.7822 35.702C32.6293 35.851 32.4482 35.968 32.2495 36.046C32.0508 36.124 31.8384 36.1614 31.625 36.156C31.2077 36.1456 30.811 35.9725 30.5196 35.6737C30.2281 35.3749 30.065 34.974 30.065 34.5565C30.065 34.1391 30.2281 33.7382 30.5196 33.4394C30.811 33.1406 31.2077 32.9675 31.625 32.957ZM19.742 33.267C19.805 33.268 19.854 33.321 19.853 33.383C19.853 33.4122 19.8414 33.4402 19.8208 33.4608C19.8002 33.4815 19.7722 33.493 19.743 33.493C19.7282 33.4936 19.7135 33.4911 19.6997 33.4858C19.6859 33.4806 19.6733 33.4725 19.6626 33.4623C19.652 33.452 19.6435 33.4397 19.6378 33.4261C19.632 33.4125 19.629 33.3978 19.629 33.383C19.629 33.32 19.679 33.267 19.742 33.268V33.267ZM28.262 33.267C28.324 33.268 28.374 33.321 28.373 33.383C28.373 33.3976 28.3701 33.412 28.3645 33.4254C28.359 33.4388 28.3508 33.451 28.3404 33.4612C28.3301 33.4714 28.3179 33.4795 28.3044 33.485C28.291 33.4904 28.2765 33.4932 28.262 33.493C28.2472 33.4936 28.2325 33.4911 28.2187 33.4858C28.2049 33.4806 28.1923 33.4725 28.1816 33.4623C28.171 33.452 28.1625 33.4397 28.1568 33.4261C28.151 33.4125 28.148 33.3978 28.148 33.383C28.148 33.32 28.199 33.267 28.262 33.268V33.267ZM19.721 37.205H19.74C19.802 37.205 19.851 37.255 19.852 37.316C19.8521 37.3374 19.8461 37.3583 19.8346 37.3764C19.8232 37.3944 19.8068 37.4088 19.7875 37.4179C19.7682 37.4269 19.7466 37.4302 19.7255 37.4275C19.7043 37.4247 19.6843 37.4159 19.668 37.4022C19.6516 37.3885 19.6396 37.3703 19.6332 37.35C19.6268 37.3296 19.6263 37.3078 19.6319 37.2872C19.6375 37.2666 19.6488 37.248 19.6646 37.2336C19.6804 37.2192 19.7 37.2097 19.721 37.206V37.205ZM28.241 37.205H28.26C28.321 37.205 28.37 37.255 28.371 37.316C28.3711 37.3374 28.3651 37.3584 28.3536 37.3765C28.3422 37.3946 28.3258 37.409 28.3064 37.4181C28.287 37.4271 28.2654 37.4304 28.2442 37.4276C28.223 37.4248 28.203 37.4159 28.1867 37.4021C28.1703 37.3883 28.1583 37.37 28.152 37.3496C28.1457 37.3291 28.1454 37.3073 28.1511 37.2867C28.1568 37.266 28.1683 37.2475 28.1843 37.2332C28.2002 37.2189 28.2199 37.2095 28.241 37.206V37.205ZM19.732 37.765H19.74C19.7696 37.7661 19.7976 37.7787 19.818 37.8002C19.8384 37.8217 19.8495 37.8504 19.849 37.88C19.8485 37.9096 19.8363 37.9378 19.8152 37.9586C19.7941 37.9793 19.7656 37.991 19.736 37.991C19.7064 37.991 19.678 37.9793 19.6568 37.9586C19.6357 37.9378 19.6236 37.9096 19.623 37.88C19.6225 37.8504 19.6336 37.8217 19.654 37.8002C19.6744 37.7787 19.7024 37.7661 19.732 37.765ZM28.252 37.765H28.26C28.2894 37.7661 28.3171 37.7786 28.3373 37.7999C28.3575 37.8212 28.3685 37.8496 28.368 37.879C28.3675 37.9083 28.3554 37.9363 28.3345 37.9569C28.3136 37.9774 28.2854 37.989 28.256 37.989C28.2267 37.989 28.1985 37.9774 28.1775 37.9569C28.1566 37.9363 28.1446 37.9083 28.144 37.879C28.1435 37.8496 28.1545 37.8212 28.1747 37.7999C28.1949 37.7786 28.2227 37.7661 28.252 37.765ZM16.375 38.227C16.5898 38.2194 16.8038 38.2552 17.0045 38.3321C17.2051 38.4091 17.3882 38.5256 17.5428 38.6748C17.6974 38.8241 17.8203 39.0029 17.9043 39.2007C17.9883 39.3985 18.0316 39.6112 18.0316 39.826C18.0316 40.0409 17.9883 40.2536 17.9043 40.4514C17.8203 40.6492 17.6974 40.828 17.5428 40.9772C17.3882 41.1265 17.2051 41.243 17.0045 41.32C16.8038 41.3969 16.5898 41.4326 16.375 41.425C15.9607 41.4104 15.5683 41.2355 15.2804 40.9372C14.9925 40.639 14.8316 40.2406 14.8316 39.826C14.8316 39.4115 14.9925 39.0131 15.2804 38.7148C15.5683 38.4166 15.9607 38.2417 16.375 38.227ZM24 38.227C24.2148 38.2194 24.4288 38.2552 24.6295 38.3321C24.8301 38.4091 25.0132 38.5256 25.1678 38.6748C25.3224 38.8241 25.4453 39.0029 25.5293 39.2007C25.6133 39.3985 25.6566 39.6112 25.6566 39.826C25.6566 40.0409 25.6133 40.2536 25.5293 40.4514C25.4453 40.6492 25.3224 40.828 25.1678 40.9772C25.0132 41.1265 24.8301 41.243 24.6295 41.32C24.4288 41.3969 24.2148 41.4326 24 41.425C23.5857 41.4104 23.1933 41.2355 22.9054 40.9372C22.6175 40.639 22.4566 40.2406 22.4566 39.826C22.4566 39.4115 22.6175 39.0131 22.9054 38.7148C23.1933 38.4166 23.5857 38.2417 24 38.227ZM31.625 38.227C31.8398 38.2194 32.0538 38.2552 32.2545 38.3321C32.4551 38.4091 32.6382 38.5256 32.7928 38.6748C32.9474 38.8241 33.0703 39.0029 33.1543 39.2007C33.2383 39.3985 33.2816 39.6112 33.2816 39.826C33.2816 40.0409 33.2383 40.2536 33.1543 40.4514C33.0703 40.6492 32.9474 40.828 32.7928 40.9772C32.6382 41.1265 32.4551 41.243 32.2545 41.32C32.0538 41.3969 31.8398 41.4326 31.625 41.425C31.2107 41.4104 30.8183 41.2355 30.5304 40.9372C30.2425 40.639 30.0816 40.2406 30.0816 39.826C30.0816 39.4115 30.2425 39.0131 30.5304 38.7148C30.8183 38.4166 31.2107 38.2417 31.625 38.227ZM19.732 40.016C19.7473 40.0146 19.7627 40.0165 19.7772 40.0214C19.7917 40.0263 19.805 40.0341 19.8163 40.0445C19.8276 40.0549 19.8367 40.0675 19.8428 40.0815C19.8489 40.0955 19.8521 40.1107 19.852 40.126C19.852 40.187 19.802 40.24 19.74 40.24C19.725 40.2399 19.7102 40.2368 19.6965 40.231C19.6827 40.2251 19.6702 40.2166 19.6597 40.2059C19.6492 40.1953 19.6409 40.1826 19.6353 40.1687C19.6297 40.1549 19.6269 40.14 19.627 40.125C19.627 40.0967 19.6379 40.0695 19.6574 40.049C19.677 40.0285 19.7037 40.0163 19.732 40.015V40.016ZM28.252 40.016C28.2673 40.0146 28.2827 40.0165 28.2972 40.0214C28.3117 40.0263 28.325 40.0341 28.3363 40.0445C28.3476 40.0549 28.3567 40.0675 28.3628 40.0815C28.3689 40.0955 28.3721 40.1107 28.372 40.126C28.372 40.187 28.322 40.24 28.26 40.24C28.245 40.24 28.2301 40.2371 28.2162 40.2313C28.2023 40.2255 28.1896 40.217 28.1791 40.2063C28.1685 40.1956 28.1601 40.1829 28.1544 40.169C28.1487 40.155 28.1459 40.1401 28.146 40.125C28.146 40.0965 28.157 40.0692 28.1768 40.0486C28.1966 40.0281 28.2235 40.0161 28.252 40.015V40.016ZM19.721 41.141H19.74C19.7625 41.141 19.7845 41.1478 19.8031 41.1603C19.8217 41.1729 19.8362 41.1907 19.8447 41.2115C19.8531 41.2323 19.8552 41.2552 19.8506 41.2772C19.846 41.2992 19.8349 41.3193 19.8188 41.335C19.8027 41.3507 19.7823 41.3612 19.7602 41.3652C19.7381 41.3692 19.7152 41.3666 19.6947 41.3576C19.6741 41.3485 19.6566 41.3336 19.6446 41.3146C19.6325 41.2956 19.6264 41.2735 19.627 41.251C19.6267 41.2244 19.6361 41.1986 19.6534 41.1784C19.6707 41.1582 19.6947 41.1449 19.721 41.141ZM28.241 41.141H28.26C28.2822 41.1414 28.3037 41.1484 28.3219 41.161C28.3401 41.1737 28.3541 41.1914 28.3622 41.212C28.3703 41.2326 28.3721 41.2552 28.3674 41.2768C28.3627 41.2985 28.3517 41.3182 28.3358 41.3336C28.3198 41.349 28.2997 41.3593 28.2779 41.3632C28.2561 41.3672 28.2336 41.3646 28.2133 41.3557C28.193 41.3469 28.1758 41.3322 28.1638 41.3136C28.1518 41.295 28.1456 41.2732 28.146 41.251C28.1457 41.2244 28.1551 41.1986 28.1724 41.1784C28.1897 41.1582 28.2137 41.1449 28.24 41.141H28.241ZM19.721 41.703H19.74C19.802 41.703 19.851 41.753 19.852 41.814C19.852 41.8439 19.8402 41.8725 19.8191 41.8936C19.798 41.9147 19.7694 41.9265 19.7395 41.9265C19.7097 41.9265 19.6811 41.9147 19.66 41.8936C19.6389 41.8725 19.627 41.8439 19.627 41.814C19.6267 41.7874 19.6361 41.7616 19.6534 41.7414C19.6707 41.7212 19.6947 41.7079 19.721 41.704V41.703ZM28.241 41.703H28.26C28.321 41.703 28.37 41.753 28.371 41.814C28.371 41.8437 28.3592 41.8722 28.3382 41.8932C28.3172 41.9142 28.2887 41.926 28.259 41.926C28.2293 41.926 28.2008 41.9142 28.1798 41.8932C28.1588 41.8722 28.147 41.8437 28.147 41.814C28.1467 41.7876 28.1559 41.7619 28.173 41.7417C28.1901 41.7215 28.2139 41.7081 28.24 41.704L28.241 41.703ZM19.742 42.263C19.7568 42.2632 19.7714 42.2662 19.785 42.272C19.7986 42.2778 19.8109 42.2862 19.8213 42.2967C19.8316 42.3072 19.8398 42.3197 19.8453 42.3334C19.8509 42.3471 19.8536 42.3618 19.8535 42.3765C19.8534 42.3913 19.8503 42.4059 19.8446 42.4195C19.8388 42.4331 19.8304 42.4454 19.8199 42.4558C19.8093 42.4662 19.7968 42.4743 19.7831 42.4799C19.7694 42.4854 19.7548 42.4882 19.74 42.488C19.7253 42.4879 19.7108 42.4849 19.6972 42.4791C19.6837 42.4734 19.6714 42.465 19.6611 42.4545C19.6508 42.444 19.6427 42.4316 19.6372 42.418C19.6317 42.4043 19.6289 42.3898 19.629 42.375C19.6291 42.3603 19.6322 42.3458 19.6379 42.3323C19.6437 42.3187 19.652 42.3064 19.6625 42.2961C19.673 42.2858 19.6854 42.2777 19.6991 42.2722C19.7127 42.2667 19.7273 42.2639 19.742 42.264V42.263ZM28.262 42.263C28.2919 42.2633 28.3204 42.2754 28.3413 42.2967C28.3622 42.318 28.3738 42.3467 28.3735 42.3765C28.3733 42.4064 28.3611 42.4349 28.3399 42.4558C28.3186 42.4767 28.2899 42.4883 28.26 42.488C28.2303 42.4878 28.2019 42.4757 28.1811 42.4545C28.1603 42.4333 28.1488 42.4047 28.149 42.375C28.1493 42.3453 28.1613 42.317 28.1825 42.2961C28.2037 42.2753 28.2323 42.2638 28.262 42.264V42.263Z" fill="#333333"/>
</svg>
