<svg width="48" height="48" viewBox="0 0 48 48" fill="none" xmlns="http://www.w3.org/2000/svg">
<path d="M23.814 4.1029C20.502 4.1119 17.252 4.1269 14.146 4.1249C13.277 4.1249 12.58 4.8239 12.58 5.6929V42.5549C12.58 43.4239 13.277 44.1249 14.146 44.1249H33.852C34.721 44.1249 35.42 43.4239 35.42 42.5549V5.6929C35.42 4.8229 34.721 4.1249 33.852 4.1249C30.501 4.0929 27.127 4.0949 23.815 4.1029H23.814ZM19.992 5.1659H20C20.0294 5.16695 20.0571 5.17948 20.0773 5.20078C20.0975 5.22209 20.1085 5.25048 20.108 5.27983C20.1075 5.30918 20.0954 5.33716 20.0745 5.35773C20.0536 5.3783 20.0254 5.38983 19.996 5.38983C19.9667 5.38983 19.9385 5.3783 19.9175 5.35773C19.8966 5.33716 19.8846 5.30918 19.884 5.27983C19.8835 5.25048 19.8945 5.22209 19.9147 5.20078C19.9349 5.17948 19.9627 5.16695 19.992 5.1659ZM27.992 5.1659H28C28.0294 5.16695 28.0571 5.17948 28.0773 5.20078C28.0975 5.22209 28.1085 5.25048 28.108 5.27983C28.1075 5.30918 28.0954 5.33716 28.0745 5.35773C28.0536 5.3783 28.0254 5.38983 27.996 5.38983C27.9667 5.38983 27.9385 5.3783 27.9175 5.35773C27.8966 5.33716 27.8846 5.30918 27.884 5.27983C27.8835 5.25048 27.8945 5.22209 27.9147 5.20078C27.9349 5.17948 27.9627 5.16695 27.992 5.1659ZM19.992 5.7279H20C20.0294 5.72895 20.0571 5.74148 20.0773 5.76278C20.0975 5.78409 20.1085 5.81248 20.108 5.84183C20.1075 5.87118 20.0954 5.89916 20.0745 5.91973C20.0536 5.9403 20.0254 5.95183 19.996 5.95183C19.9667 5.95183 19.9385 5.9403 19.9175 5.91973C19.8966 5.89916 19.8846 5.87118 19.884 5.84183C19.8835 5.81248 19.8945 5.78409 19.9147 5.76278C19.9349 5.74148 19.9627 5.72895 19.992 5.7279ZM27.992 5.7279H28C28.0294 5.72895 28.0571 5.74148 28.0773 5.76278C28.0975 5.78409 28.1085 5.81248 28.108 5.84183C28.1075 5.87118 28.0954 5.89916 28.0745 5.91973C28.0536 5.9403 28.0254 5.95183 27.996 5.95183C27.9667 5.95183 27.9385 5.9403 27.9175 5.91973C27.8966 5.89916 27.8846 5.87118 27.884 5.84183C27.8835 5.81248 27.8945 5.78409 27.9147 5.76278C27.9349 5.74148 27.9627 5.72895 27.992 5.7279ZM19.982 6.2909H20C20.061 6.2909 20.11 6.3409 20.111 6.4019C20.111 6.42331 20.1048 6.44426 20.0932 6.46226C20.0816 6.48026 20.0651 6.49456 20.0456 6.50346C20.0261 6.51237 20.0045 6.5155 19.9833 6.51249C19.9621 6.50949 19.9422 6.50047 19.926 6.4865C19.9097 6.47253 19.8978 6.45421 19.8917 6.43369C19.8856 6.41318 19.8855 6.39134 19.8914 6.37075C19.8973 6.35017 19.9089 6.3317 19.925 6.31755C19.9411 6.3034 19.9609 6.29415 19.982 6.2909ZM27.982 6.2909H28C28.061 6.2909 28.11 6.3409 28.111 6.4019C28.111 6.42331 28.1048 6.44426 28.0932 6.46226C28.0816 6.48026 28.0651 6.49456 28.0456 6.50346C28.0261 6.51237 28.0045 6.5155 27.9833 6.51249C27.9621 6.50949 27.9422 6.50047 27.926 6.4865C27.9097 6.47253 27.8978 6.45421 27.8917 6.43369C27.8856 6.41318 27.8855 6.39134 27.8914 6.37075C27.8973 6.35017 27.9089 6.3317 27.925 6.31755C27.9411 6.3034 27.9609 6.29415 27.982 6.2909ZM20.002 6.8509C20.0168 6.85103 20.0314 6.85407 20.045 6.85985C20.0586 6.86562 20.0709 6.87402 20.0813 6.88456C20.0916 6.8951 20.0998 6.90757 20.1053 6.92127C20.1109 6.93497 20.1136 6.94963 20.1135 6.9644C20.1134 6.97917 20.1103 6.99378 20.1046 7.00738C20.0988 7.02098 20.0904 7.0333 20.0799 7.04366C20.0693 7.05401 20.0568 7.06219 20.0431 7.06772C20.0294 7.07325 20.0148 7.07603 20 7.0759C19.9702 7.07564 19.9417 7.06353 19.9208 7.04224C19.8999 7.02096 19.8883 6.99224 19.8885 6.9624C19.8888 6.93256 19.9009 6.90406 19.9222 6.88314C19.9435 6.86223 19.9722 6.85064 20.002 6.8509ZM28.002 6.8509C28.0168 6.85103 28.0314 6.85407 28.045 6.85985C28.0586 6.86562 28.0709 6.87402 28.0813 6.88456C28.0916 6.8951 28.0998 6.90757 28.1053 6.92127C28.1109 6.93497 28.1136 6.94963 28.1135 6.9644C28.1134 6.97917 28.1103 6.99378 28.1046 7.00738C28.0988 7.02098 28.0904 7.0333 28.0799 7.04366C28.0693 7.05401 28.0568 7.06219 28.0431 7.06772C28.0294 7.07325 28.0148 7.07603 28 7.0759C27.9702 7.07564 27.9417 7.06353 27.9208 7.04224C27.8999 7.02096 27.8883 6.99224 27.8885 6.9624C27.8888 6.93256 27.9009 6.90406 27.9222 6.88314C27.9435 6.86223 27.9722 6.85064 28.002 6.8509ZM19.992 7.4139H20C20.0294 7.41495 20.0571 7.42748 20.0773 7.44878C20.0975 7.47009 20.1085 7.49848 20.108 7.52783C20.1075 7.55718 20.0954 7.58516 20.0745 7.60573C20.0536 7.6263 20.0254 7.63783 19.996 7.63783C19.9667 7.63783 19.9385 7.6263 19.9175 7.60573C19.8966 7.58516 19.8846 7.55718 19.884 7.52783C19.8835 7.49848 19.8945 7.47009 19.9147 7.44878C19.9349 7.42748 19.9627 7.41495 19.992 7.4139ZM27.992 7.4139H28C28.0294 7.41495 28.0571 7.42748 28.0773 7.44878C28.0975 7.47009 28.1085 7.49848 28.108 7.52783C28.1075 7.55718 28.0954 7.58516 28.0745 7.60573C28.0536 7.6263 28.0254 7.63783 27.996 7.63783C27.9667 7.63783 27.9385 7.6263 27.9175 7.60573C27.8966 7.58516 27.8846 7.55718 27.884 7.52783C27.8835 7.49848 27.8945 7.47009 27.9147 7.44878C27.9349 7.42748 27.9627 7.41495 27.992 7.4139ZM19.992 7.9739H20C20.0294 7.97495 20.0571 7.98748 20.0773 8.00878C20.0975 8.03009 20.1085 8.05848 20.108 8.08783C20.1075 8.11718 20.0954 8.14516 20.0745 8.16573C20.0536 8.1863 20.0254 8.19783 19.996 8.19783C19.9667 8.19783 19.9385 8.1863 19.9175 8.16573C19.8966 8.14516 19.8846 8.11718 19.884 8.08783C19.8835 8.05848 19.8945 8.03009 19.9147 8.00878C19.9349 7.98748 19.9627 7.97495 19.992 7.9739ZM27.992 7.9739H28C28.0294 7.97495 28.0571 7.98748 28.0773 8.00878C28.0975 8.03009 28.1085 8.05848 28.108 8.08783C28.1075 8.11718 28.0954 8.14516 28.0745 8.16573C28.0536 8.1863 28.0254 8.19783 27.996 8.19783C27.9667 8.19783 27.9385 8.1863 27.9175 8.16573C27.8966 8.14516 27.8846 8.11718 27.884 8.08783C27.8835 8.05848 27.8945 8.03009 27.9147 8.00878C27.9349 7.98748 27.9627 7.97495 27.992 7.9739ZM19.992 8.5369H20C20.0294 8.53795 20.0571 8.55048 20.0773 8.57178C20.0975 8.59309 20.1085 8.62148 20.108 8.65083C20.1075 8.68018 20.0954 8.70816 20.0745 8.72873C20.0536 8.7493 20.0254 8.76083 19.996 8.76083C19.9667 8.76083 19.9385 8.7493 19.9175 8.72873C19.8966 8.70816 19.8846 8.68018 19.884 8.65083C19.8835 8.62148 19.8945 8.59309 19.9147 8.57178C19.9349 8.55048 19.9627 8.53795 19.992 8.5369ZM27.992 8.5369H28C28.0294 8.53795 28.0571 8.55048 28.0773 8.57178C28.0975 8.59309 28.1085 8.62148 28.108 8.65083C28.1075 8.68018 28.0954 8.70816 28.0745 8.72873C28.0536 8.7493 28.0254 8.76083 27.996 8.76083C27.9667 8.76083 27.9385 8.7493 27.9175 8.72873C27.8966 8.70816 27.8846 8.68018 27.884 8.65083C27.8835 8.62148 27.8945 8.59309 27.9147 8.57178C27.9349 8.55048 27.9627 8.53795 27.992 8.5369ZM19.992 9.0999H20C20.0294 9.10095 20.0571 9.11348 20.0773 9.13478C20.0975 9.15609 20.1085 9.18448 20.108 9.21383C20.1075 9.24318 20.0954 9.27116 20.0745 9.29173C20.0536 9.3123 20.0254 9.32383 19.996 9.32383C19.9667 9.32383 19.9385 9.3123 19.9175 9.29173C19.8966 9.27116 19.8846 9.24318 19.884 9.21383C19.8835 9.18448 19.8945 9.15609 19.9147 9.13478C19.9349 9.11348 19.9627 9.10095 19.992 9.0999ZM27.992 9.0999H28C28.0294 9.10095 28.0571 9.11348 28.0773 9.13478C28.0975 9.15609 28.1085 9.18448 28.108 9.21383C28.1075 9.24318 28.0954 9.27116 28.0745 9.29173C28.0536 9.3123 28.0254 9.32383 27.996 9.32383C27.9667 9.32383 27.9385 9.3123 27.9175 9.29173C27.8966 9.27116 27.8846 9.24318 27.884 9.21383C27.8835 9.18448 27.8945 9.15609 27.9147 9.13478C27.9349 9.11348 27.9627 9.10095 27.992 9.0999ZM19.992 9.6619H20C20.0294 9.66295 20.0571 9.67548 20.0773 9.69678C20.0975 9.71809 20.1085 9.74648 20.108 9.77583C20.1075 9.80518 20.0954 9.83316 20.0745 9.85373C20.0536 9.8743 20.0254 9.88583 19.996 9.88583C19.9667 9.88583 19.9385 9.8743 19.9175 9.85373C19.8966 9.83316 19.8846 9.80518 19.884 9.77583C19.8835 9.74648 19.8945 9.71809 19.9147 9.69678C19.9349 9.67548 19.9627 9.66295 19.992 9.6619ZM27.992 9.6619H28C28.0294 9.66295 28.0571 9.67548 28.0773 9.69678C28.0975 9.71809 28.1085 9.74648 28.108 9.77583C28.1075 9.80518 28.0954 9.83316 28.0745 9.85373C28.0536 9.8743 28.0254 9.88583 27.996 9.88583C27.9667 9.88583 27.9385 9.8743 27.9175 9.85373C27.8966 9.83316 27.8846 9.80518 27.884 9.77583C27.8835 9.74648 27.8945 9.71809 27.9147 9.69678C27.9349 9.67548 27.9627 9.66295 27.992 9.6619ZM19.98 10.2249H20C20.061 10.2249 20.11 10.2769 20.111 10.3379C20.111 10.3676 20.0992 10.3961 20.0782 10.4171C20.0572 10.4381 20.0287 10.4499 19.999 10.4499C19.9693 10.4499 19.9408 10.4381 19.9198 10.4171C19.8988 10.3961 19.887 10.3676 19.887 10.3379C19.887 10.2829 19.926 10.2319 19.98 10.2249ZM27.98 10.2249H28C28.061 10.2249 28.11 10.2769 28.111 10.3379C28.111 10.3676 28.0992 10.3961 28.0782 10.4171C28.0572 10.4381 28.0287 10.4499 27.999 10.4499C27.9693 10.4499 27.9408 10.4381 27.9198 10.4171C27.8988 10.3961 27.887 10.3676 27.887 10.3379C27.887 10.2829 27.926 10.2319 27.98 10.2249ZM20.002 10.7849C20.064 10.7849 20.114 10.8379 20.113 10.8999C20.113 10.9144 20.1101 10.9288 20.1045 10.9422C20.099 10.9556 20.0908 10.9678 20.0804 10.978C20.0701 10.9883 20.0579 10.9963 20.0444 11.0018C20.031 11.0073 20.0165 11.01 20.002 11.0099C19.9873 11.0103 19.9727 11.0078 19.959 11.0024C19.9453 10.9971 19.9328 10.989 19.9223 10.9788C19.9118 10.9685 19.9034 10.9562 19.8977 10.9427C19.892 10.9292 19.889 10.9146 19.889 10.8999C19.889 10.8369 19.939 10.7839 20.002 10.7849ZM28.002 10.7849C28.064 10.7849 28.114 10.8379 28.113 10.8999C28.113 10.9144 28.1101 10.9288 28.1045 10.9422C28.099 10.9556 28.0908 10.9678 28.0804 10.978C28.0701 10.9883 28.0579 10.9963 28.0444 11.0018C28.031 11.0073 28.0165 11.01 28.002 11.0099C27.9873 11.0103 27.9727 11.0078 27.959 11.0024C27.9453 10.9971 27.9328 10.989 27.9223 10.9788C27.9118 10.9685 27.9034 10.9562 27.8977 10.9427C27.892 10.9292 27.889 10.9146 27.889 10.8999C27.889 10.8369 27.939 10.7839 28.002 10.7849ZM20.002 11.3479C20.0167 11.348 20.0313 11.3511 20.0448 11.3568C20.0583 11.3626 20.0706 11.3709 20.0809 11.3814C20.0912 11.3919 20.0994 11.4043 20.1049 11.418C20.1104 11.4316 20.1131 11.4462 20.113 11.4609C20.1129 11.4756 20.1099 11.4901 20.1041 11.5037C20.0984 11.5172 20.09 11.5295 20.0795 11.5398C20.069 11.5501 20.0566 11.5583 20.043 11.5638C20.0293 11.5693 20.0147 11.572 20 11.5719C19.9703 11.5716 19.9419 11.5596 19.9211 11.5384C19.9003 11.5172 19.8888 11.4886 19.889 11.4589C19.8893 11.4292 19.9013 11.4008 19.9225 11.38C19.9437 11.3592 19.9723 11.3476 20.002 11.3479ZM28.002 11.3479C28.0167 11.348 28.0313 11.3511 28.0448 11.3568C28.0583 11.3626 28.0706 11.3709 28.0809 11.3814C28.0912 11.3919 28.0994 11.4043 28.1049 11.418C28.1104 11.4316 28.1131 11.4462 28.113 11.4609C28.1129 11.4756 28.1099 11.4901 28.1041 11.5037C28.0984 11.5172 28.09 11.5295 28.0795 11.5398C28.069 11.5501 28.0566 11.5583 28.043 11.5638C28.0293 11.5693 28.0147 11.572 28 11.5719C27.9703 11.5716 27.9419 11.5596 27.9211 11.5384C27.9003 11.5172 27.8888 11.4886 27.889 11.4589C27.8893 11.4292 27.9013 11.4008 27.9225 11.38C27.9437 11.3592 27.9723 11.3476 28.002 11.3479ZM17.532 11.5619C17.6564 11.5604 17.78 11.5834 17.8954 11.6298C18.0109 11.6761 18.1161 11.7448 18.205 11.8319C18.2945 11.9185 18.366 12.022 18.4153 12.1363C18.4647 12.2507 18.491 12.3736 18.4926 12.4982C18.4943 12.6227 18.4713 12.7463 18.4251 12.8619C18.3788 12.9776 18.3101 13.0829 18.223 13.1719L16.414 15.0319C16.3278 15.1231 16.2243 15.1962 16.1095 15.2471C15.9947 15.2979 15.871 15.3254 15.7455 15.328C15.6201 15.3306 15.4953 15.3082 15.3786 15.2622C15.2618 15.2161 15.1554 15.1473 15.0654 15.0598C14.9755 14.9722 14.9039 14.8677 14.8547 14.7522C14.8055 14.6367 14.7798 14.5126 14.779 14.3871C14.7782 14.2616 14.8024 14.1372 14.8501 14.0211C14.8979 13.905 14.9682 13.7996 15.057 13.7109L16.865 11.8529C16.9515 11.7632 17.0549 11.6916 17.1692 11.642C17.2835 11.5924 17.4064 11.5658 17.531 11.5639V11.5619H17.532ZM25.09 11.5619C25.2146 11.5603 25.3383 11.5833 25.454 11.6297C25.5696 11.676 25.675 11.7447 25.764 11.8319C25.8534 11.9186 25.9248 12.0221 25.9741 12.1365C26.0234 12.2509 26.0495 12.3738 26.0511 12.4984C26.0527 12.6229 26.0297 12.7465 25.9833 12.8621C25.9369 12.9777 25.8682 13.083 25.781 13.1719L23.973 15.0319C23.8863 15.1211 23.7828 15.1923 23.6686 15.2415C23.5543 15.2907 23.4315 15.3169 23.3071 15.3186C23.1827 15.3203 23.0592 15.2975 22.9436 15.2515C22.8281 15.2055 22.7227 15.1371 22.6335 15.0504C22.5443 14.9637 22.4731 14.8602 22.424 14.746C22.3748 14.6317 22.3486 14.5089 22.3468 14.3845C22.3451 14.2601 22.3679 14.1366 22.4139 14.021C22.46 13.9054 22.5283 13.8001 22.615 13.7109L24.424 11.8529C24.5105 11.7632 24.6139 11.6916 24.7282 11.642C24.8425 11.5924 24.9654 11.5658 25.09 11.5639V11.5619ZM32.25 11.5619C32.3746 11.5602 32.4983 11.5832 32.614 11.6296C32.7297 11.6759 32.835 11.7447 32.924 11.8319C33.0134 11.9186 33.0848 12.0221 33.1341 12.1365C33.1834 12.2509 33.2095 12.3738 33.2111 12.4984C33.2127 12.6229 33.1897 12.7465 33.1433 12.8621C33.0969 12.9777 33.0282 13.083 32.941 13.1719L31.133 15.0319C31.0463 15.1211 30.9428 15.1923 30.8286 15.2415C30.7143 15.2907 30.5915 15.3169 30.4671 15.3186C30.3427 15.3203 30.2192 15.2975 30.1036 15.2515C29.9881 15.2055 29.8827 15.1371 29.7935 15.0504C29.7044 14.9637 29.6331 14.8602 29.584 14.746C29.5348 14.6317 29.5086 14.5089 29.5068 14.3845C29.5051 14.2601 29.5279 14.1366 29.5739 14.021C29.62 13.9054 29.6883 13.8001 29.775 13.7109L31.584 11.8529C31.6705 11.7632 31.7739 11.6915 31.8882 11.6419C32.0025 11.5923 32.1254 11.5658 32.25 11.5639V11.5619ZM19.992 11.9099C20.0075 11.9088 20.023 11.9109 20.0376 11.9161C20.0522 11.9213 20.0655 11.9295 20.0768 11.9401C20.0881 11.9507 20.097 11.9635 20.1031 11.9778C20.1092 11.9921 20.1122 12.0074 20.112 12.0229C20.111 12.0849 20.062 12.1359 20 12.1369C19.9715 12.1354 19.9446 12.1233 19.9246 12.103C19.9046 12.0827 19.893 12.0556 19.892 12.0271C19.891 11.9986 19.9007 11.9707 19.9192 11.949C19.9377 11.9273 19.9637 11.9134 19.992 11.9099ZM27.992 11.9099C28.0075 11.9088 28.023 11.9109 28.0376 11.9161C28.0522 11.9213 28.0655 11.9295 28.0768 11.9401C28.0881 11.9507 28.097 11.9635 28.1031 11.9778C28.1092 11.9921 28.1122 12.0074 28.112 12.0229C28.111 12.0849 28.062 12.1359 28 12.1369C27.9715 12.1354 27.9446 12.1233 27.9246 12.103C27.9046 12.0827 27.893 12.0556 27.892 12.0271C27.891 11.9986 27.9007 11.9707 27.9192 11.949C27.9377 11.9273 27.9637 11.9134 27.992 11.9099ZM19.992 12.4729H20C20.062 12.4729 20.112 12.5229 20.111 12.5859C20.111 12.6469 20.061 12.6989 20 12.6989C19.9724 12.6963 19.9467 12.6838 19.9277 12.6637C19.9086 12.6435 19.8976 12.6171 19.8966 12.5894C19.8956 12.5617 19.9048 12.5346 19.9223 12.5132C19.9399 12.4917 19.9647 12.4774 19.992 12.4729ZM27.992 12.4729H28C28.062 12.4729 28.112 12.5229 28.111 12.5859C28.111 12.6469 28.061 12.6989 28 12.6989C27.9724 12.6963 27.9467 12.6838 27.9277 12.6637C27.9086 12.6435 27.8976 12.6171 27.8966 12.5894C27.8956 12.5617 27.9048 12.5346 27.9223 12.5132C27.9399 12.4917 27.9647 12.4774 27.992 12.4729ZM19.992 13.0349H20C20.0294 13.0359 20.0571 13.0485 20.0773 13.0698C20.0975 13.0911 20.1085 13.1195 20.108 13.1488C20.1075 13.1782 20.0954 13.2062 20.0745 13.2267C20.0536 13.2473 20.0254 13.2588 19.996 13.2588C19.9667 13.2588 19.9385 13.2473 19.9175 13.2267C19.8966 13.2062 19.8846 13.1782 19.884 13.1488C19.8835 13.1195 19.8945 13.0911 19.9147 13.0698C19.9349 13.0485 19.9627 13.0359 19.992 13.0349ZM27.992 13.0349H28C28.0294 13.0359 28.0571 13.0485 28.0773 13.0698C28.0975 13.0911 28.1085 13.1195 28.108 13.1488C28.1075 13.1782 28.0954 13.2062 28.0745 13.2267C28.0536 13.2473 28.0254 13.2588 27.996 13.2588C27.9667 13.2588 27.9385 13.2473 27.9175 13.2267C27.8966 13.2062 27.8846 13.1782 27.884 13.1488C27.8835 13.1195 27.8945 13.0911 27.9147 13.0698C27.9349 13.0485 27.9627 13.0359 27.992 13.0349ZM19.992 13.5979H20C20.0294 13.5989 20.0571 13.6115 20.0773 13.6328C20.0975 13.6541 20.1085 13.6825 20.108 13.7118C20.1075 13.7412 20.0954 13.7692 20.0745 13.7897C20.0536 13.8103 20.0254 13.8218 19.996 13.8218C19.9667 13.8218 19.9385 13.8103 19.9175 13.7897C19.8966 13.7692 19.8846 13.7412 19.884 13.7118C19.8835 13.6825 19.8945 13.6541 19.9147 13.6328C19.9349 13.6115 19.9627 13.5989 19.992 13.5979ZM27.992 13.5979H28C28.0294 13.5989 28.0571 13.6115 28.0773 13.6328C28.0975 13.6541 28.1085 13.6825 28.108 13.7118C28.1075 13.7412 28.0954 13.7692 28.0745 13.7897C28.0536 13.8103 28.0254 13.8218 27.996 13.8218C27.9667 13.8218 27.9385 13.8103 27.9175 13.7897C27.8966 13.7692 27.8846 13.7412 27.884 13.7118C27.8835 13.6825 27.8945 13.6541 27.9147 13.6328C27.9349 13.6115 27.9627 13.5989 27.992 13.5979ZM19.98 14.7229H20C20.061 14.7229 20.11 14.7729 20.111 14.8329C20.111 14.8626 20.0992 14.8911 20.0782 14.9121C20.0572 14.9331 20.0287 14.9449 19.999 14.9449C19.9693 14.9449 19.9408 14.9331 19.9198 14.9121C19.8988 14.8911 19.887 14.8626 19.887 14.8329C19.887 14.7789 19.926 14.7299 19.98 14.7229ZM27.98 14.7229H28C28.061 14.7229 28.11 14.7729 28.111 14.8329C28.111 14.8626 28.0992 14.8911 28.0782 14.9121C28.0572 14.9331 28.0287 14.9449 27.999 14.9449C27.9693 14.9449 27.9408 14.9331 27.9198 14.9121C27.8988 14.8911 27.887 14.8626 27.887 14.8329C27.887 14.7789 27.926 14.7299 27.98 14.7229ZM19.98 15.2849H20C20.061 15.2849 20.11 15.3349 20.111 15.3959C20.1109 15.4173 20.1047 15.4382 20.0932 15.4561C20.0816 15.4741 20.0651 15.4883 20.0457 15.4972C20.0263 15.5062 20.0047 15.5093 19.9836 15.5064C19.9624 15.5034 19.9425 15.4945 19.9263 15.4806C19.91 15.4667 19.8981 15.4485 19.8919 15.4281C19.8857 15.4076 19.8854 15.3859 19.8912 15.3653C19.8969 15.3447 19.9084 15.3262 19.9243 15.312C19.9403 15.2977 19.9599 15.2883 19.981 15.2849H19.98ZM27.98 15.2849H28C28.061 15.2849 28.11 15.3349 28.111 15.3959C28.1109 15.4173 28.1047 15.4382 28.0932 15.4561C28.0816 15.4741 28.0651 15.4883 28.0457 15.4972C28.0263 15.5062 28.0047 15.5093 27.9836 15.5064C27.9624 15.5034 27.9425 15.4945 27.9263 15.4806C27.91 15.4667 27.8981 15.4485 27.8919 15.4281C27.8857 15.4076 27.8854 15.3859 27.8912 15.3653C27.8969 15.3447 27.9084 15.3262 27.9243 15.312C27.9403 15.2977 27.9599 15.2883 27.981 15.2849H27.98ZM20.002 15.8449C20.0319 15.8452 20.0604 15.8573 20.0813 15.8786C20.1022 15.8998 20.1138 15.9286 20.1135 15.9584C20.1133 15.9882 20.1011 16.0167 20.0799 16.0377C20.0586 16.0586 20.0299 16.0702 20 16.0699C19.9703 16.0696 19.9419 16.0576 19.9211 16.0364C19.9003 16.0152 19.8888 15.9866 19.889 15.9569C19.8893 15.9272 19.9013 15.8988 19.9225 15.878C19.9437 15.8572 19.9723 15.8456 20.002 15.8459V15.8449ZM28.002 15.8449C28.0319 15.8452 28.0604 15.8573 28.0813 15.8786C28.1022 15.8998 28.1138 15.9286 28.1135 15.9584C28.1133 15.9882 28.1011 16.0167 28.0799 16.0377C28.0586 16.0586 28.0299 16.0702 28 16.0699C27.9703 16.0696 27.9419 16.0576 27.9211 16.0364C27.9003 16.0152 27.8888 15.9866 27.889 15.9569C27.8893 15.9272 27.9013 15.8988 27.9225 15.878C27.9437 15.8572 27.9723 15.8456 28.002 15.8459V15.8449ZM17.532 16.8219H17.533C17.7211 16.8182 17.9061 16.8707 18.0641 16.9727C18.2222 17.0747 18.3463 17.2215 18.4204 17.3945C18.4945 17.5674 18.5153 17.7585 18.4801 17.9433C18.445 18.1281 18.3554 18.2983 18.223 18.4319L16.414 20.2909C16.3284 20.3845 16.2249 20.4599 16.1096 20.5127C15.9943 20.5655 15.8696 20.5947 15.7429 20.5984C15.6161 20.6021 15.4899 20.5803 15.3717 20.5343C15.2535 20.4883 15.1458 20.419 15.0549 20.3306C14.964 20.2422 14.8918 20.1364 14.8426 20.0195C14.7933 19.9027 14.768 19.7771 14.7682 19.6503C14.7684 19.5235 14.7941 19.398 14.8437 19.2813C14.8933 19.1646 14.9658 19.059 15.057 18.9709L16.865 17.1129C16.9515 17.0232 17.0549 16.9516 17.1692 16.902C17.2835 16.8524 17.4064 16.8258 17.531 16.8239V16.8219H17.532ZM25.09 16.8219H25.092C25.2801 16.8182 25.4651 16.8707 25.6231 16.9727C25.7812 17.0747 25.9053 17.2215 25.9794 17.3945C26.0535 17.5674 26.0743 17.7585 26.0391 17.9433C26.004 18.1281 25.9144 18.2983 25.782 18.4319L23.972 20.2909C23.8864 20.3845 23.7829 20.4599 23.6676 20.5127C23.5523 20.5655 23.4276 20.5947 23.3009 20.5984C23.1741 20.6021 23.0479 20.5803 22.9297 20.5343C22.8115 20.4883 22.7038 20.419 22.6129 20.3306C22.522 20.2422 22.4498 20.1364 22.4006 20.0195C22.3513 19.9027 22.326 19.7771 22.3262 19.6503C22.3264 19.5235 22.3521 19.398 22.4017 19.2813C22.4513 19.1646 22.5238 19.059 22.615 18.9709L24.424 17.1129C24.5105 17.0232 24.6139 16.9516 24.7282 16.902C24.8425 16.8524 24.9654 16.8258 25.09 16.8239V16.8219ZM32.25 16.8219H32.252C32.4401 16.8182 32.6251 16.8707 32.7831 16.9727C32.9412 17.0747 33.0653 17.2215 33.1394 17.3945C33.2135 17.5674 33.2343 17.7585 33.1991 17.9433C33.164 18.1281 33.0744 18.2983 32.942 18.4319L31.132 20.2909C31.0464 20.3845 30.9429 20.4599 30.8276 20.5127C30.7123 20.5655 30.5876 20.5947 30.4609 20.5984C30.3341 20.6021 30.2079 20.5803 30.0897 20.5343C29.9715 20.4883 29.8638 20.419 29.7729 20.3306C29.682 20.2422 29.6098 20.1364 29.5606 20.0195C29.5113 19.9027 29.486 19.7771 29.4862 19.6503C29.4864 19.5235 29.5121 19.398 29.5617 19.2813C29.6113 19.1646 29.6838 19.059 29.775 18.9709L31.584 17.1129C31.6705 17.0232 31.7739 16.9515 31.8882 16.9019C32.0025 16.8523 32.1254 16.8258 32.25 16.8239V16.8219ZM19.992 17.5329C20.0073 17.5318 20.0226 17.5339 20.0371 17.5389C20.0516 17.544 20.0648 17.552 20.0761 17.5624C20.0873 17.5728 20.0963 17.5854 20.1025 17.5994C20.1087 17.6134 20.1119 17.6286 20.112 17.6439C20.112 17.6737 20.1002 17.7024 20.0791 17.7234C20.058 17.7445 20.0294 17.7564 19.9995 17.7564C19.9697 17.7564 19.9411 17.7445 19.92 17.7234C19.8989 17.7024 19.887 17.6737 19.887 17.6439C19.887 17.5859 19.933 17.5369 19.992 17.5339V17.5329ZM27.992 17.5329C28.0073 17.5318 28.0226 17.5339 28.0371 17.5389C28.0516 17.544 28.0648 17.552 28.0761 17.5624C28.0873 17.5728 28.0963 17.5854 28.1025 17.5994C28.1087 17.6134 28.1119 17.6286 28.112 17.6439C28.112 17.6737 28.1002 17.7024 28.0791 17.7234C28.058 17.7445 28.0294 17.7564 27.9995 17.7564C27.9697 17.7564 27.9411 17.7445 27.92 17.7234C27.8989 17.7024 27.887 17.6737 27.887 17.6439C27.887 17.5859 27.933 17.5369 27.992 17.5339V17.5329ZM19.992 18.6579C20.0073 18.6568 20.0226 18.6589 20.0371 18.6639C20.0516 18.669 20.0648 18.677 20.0761 18.6874C20.0873 18.6978 20.0963 18.7104 20.1025 18.7244C20.1087 18.7384 20.1119 18.7536 20.112 18.7689C20.1124 18.7908 20.1063 18.8123 20.0945 18.8307C20.0828 18.8492 20.0659 18.8638 20.0459 18.8728C20.0259 18.8818 20.0038 18.8847 19.9822 18.8812C19.9606 18.8777 19.9405 18.868 19.9243 18.8532C19.9082 18.8384 19.8968 18.8192 19.8914 18.798C19.8861 18.7768 19.8871 18.7544 19.8943 18.7338C19.9015 18.7131 19.9146 18.695 19.9319 18.6817C19.9493 18.6684 19.9702 18.6605 19.992 18.6589V18.6579ZM27.992 18.6579C28.0073 18.6568 28.0226 18.6589 28.0371 18.6639C28.0516 18.669 28.0648 18.677 28.0761 18.6874C28.0873 18.6978 28.0963 18.7104 28.1025 18.7244C28.1087 18.7384 28.1119 18.7536 28.112 18.7689C28.1124 18.7908 28.1063 18.8123 28.0945 18.8307C28.0828 18.8492 28.0659 18.8638 28.0459 18.8728C28.0259 18.8818 28.0038 18.8847 27.9822 18.8812C27.9606 18.8777 27.9405 18.868 27.9243 18.8532C27.9082 18.8384 27.8968 18.8192 27.8914 18.798C27.8861 18.7768 27.8871 18.7544 27.8943 18.7338C27.9015 18.7131 27.9146 18.695 27.9319 18.6817C27.9493 18.6684 27.9702 18.6605 27.992 18.6589V18.6579ZM19.98 19.2209H20C20.0222 19.2211 20.0438 19.2279 20.0622 19.2404C20.0805 19.2529 20.0947 19.2706 20.103 19.2912C20.1112 19.3118 20.1132 19.3344 20.1086 19.3561C20.104 19.3778 20.093 19.3977 20.0771 19.4132C20.0612 19.4286 20.0411 19.439 20.0192 19.4431C19.9974 19.4471 19.9749 19.4445 19.9545 19.4357C19.9342 19.4269 19.9169 19.4122 19.9048 19.3936C19.8928 19.3749 19.8866 19.3531 19.887 19.3309C19.887 19.2769 19.926 19.2279 19.98 19.2209ZM27.98 19.2209H28C28.0222 19.2211 28.0438 19.2279 28.0622 19.2404C28.0805 19.2529 28.0947 19.2706 28.103 19.2912C28.1112 19.3118 28.1132 19.3344 28.1086 19.3561C28.104 19.3778 28.093 19.3977 28.0771 19.4132C28.0612 19.4286 28.0411 19.439 28.0192 19.4431C27.9974 19.4471 27.9749 19.4445 27.9545 19.4357C27.9342 19.4269 27.9169 19.4122 27.9048 19.3936C27.8928 19.3749 27.8866 19.3531 27.887 19.3309C27.887 19.2769 27.926 19.2279 27.98 19.2209ZM20.002 19.7809C20.0168 19.781 20.0314 19.7841 20.045 19.7898C20.0586 19.7956 20.0709 19.804 20.0813 19.8146C20.0916 19.8251 20.0998 19.8376 20.1053 19.8513C20.1109 19.865 20.1136 19.8796 20.1135 19.8944C20.1134 19.9092 20.1103 19.9238 20.1046 19.9374C20.0988 19.951 20.0904 19.9633 20.0799 19.9737C20.0693 19.984 20.0568 19.9922 20.0431 19.9977C20.0294 20.0033 20.0148 20.006 20 20.0059C19.9702 20.0056 19.9417 19.9935 19.9208 19.9722C19.8999 19.951 19.8883 19.9222 19.8885 19.8924C19.8888 19.8626 19.9009 19.8341 19.9222 19.8131C19.9435 19.7922 19.9722 19.7806 20.002 19.7809ZM28.002 19.7809C28.0168 19.781 28.0314 19.7841 28.045 19.7898C28.0586 19.7956 28.0709 19.804 28.0813 19.8146C28.0916 19.8251 28.0998 19.8376 28.1053 19.8513C28.1109 19.865 28.1136 19.8796 28.1135 19.8944C28.1134 19.9092 28.1103 19.9238 28.1046 19.9374C28.0988 19.951 28.0904 19.9633 28.0799 19.9737C28.0693 19.984 28.0568 19.9922 28.0431 19.9977C28.0294 20.0033 28.0148 20.006 28 20.0059C27.9702 20.0056 27.9417 19.9935 27.9208 19.9722C27.8999 19.951 27.8883 19.9222 27.8885 19.8924C27.8888 19.8626 27.9009 19.8341 27.9222 19.8131C27.9435 19.7922 27.9722 19.7806 28.002 19.7809ZM19.992 20.3439H20C20.0297 20.3439 20.0582 20.3557 20.0792 20.3767C20.1002 20.3977 20.112 20.4262 20.112 20.4559C20.112 20.4856 20.1002 20.5141 20.0792 20.5351C20.0582 20.5561 20.0297 20.5679 20 20.5679C19.9853 20.568 19.9707 20.5653 19.9571 20.5598C19.9434 20.5543 19.931 20.5461 19.9205 20.5358C19.91 20.5255 19.9017 20.5132 19.8959 20.4997C19.8902 20.4861 19.8871 20.4716 19.887 20.4569C19.886 20.3969 19.933 20.3469 19.992 20.3439ZM27.992 20.3439H28C28.0297 20.3439 28.0582 20.3557 28.0792 20.3767C28.1002 20.3977 28.112 20.4262 28.112 20.4559C28.112 20.4856 28.1002 20.5141 28.0792 20.5351C28.0582 20.5561 28.0297 20.5679 28 20.5679C27.9853 20.568 27.9707 20.5653 27.9571 20.5598C27.9434 20.5543 27.931 20.5461 27.9205 20.5358C27.91 20.5255 27.9017 20.5132 27.8959 20.4997C27.8902 20.4861 27.8871 20.4716 27.887 20.4569C27.886 20.3969 27.933 20.3469 27.992 20.3439ZM19.992 20.9059H20C20.0294 20.9069 20.0571 20.9195 20.0773 20.9408C20.0975 20.9621 20.1085 20.9905 20.108 21.0198C20.1075 21.0492 20.0954 21.0772 20.0745 21.0977C20.0536 21.1183 20.0254 21.1298 19.996 21.1298C19.9667 21.1298 19.9385 21.1183 19.9175 21.0977C19.8966 21.0772 19.8846 21.0492 19.884 21.0198C19.8835 20.9905 19.8945 20.9621 19.9147 20.9408C19.9349 20.9195 19.9627 20.9069 19.992 20.9059ZM27.992 20.9059H28C28.0294 20.9069 28.0571 20.9195 28.0773 20.9408C28.0975 20.9621 28.1085 20.9905 28.108 21.0198C28.1075 21.0492 28.0954 21.0772 28.0745 21.0977C28.0536 21.1183 28.0254 21.1298 27.996 21.1298C27.9667 21.1298 27.9385 21.1183 27.9175 21.0977C27.8966 21.0772 27.8846 21.0492 27.884 21.0198C27.8835 20.9905 27.8945 20.9621 27.9147 20.9408C27.9349 20.9195 27.9627 20.9069 27.992 20.9059ZM19.992 21.4689H20C20.0294 21.4699 20.0571 21.4825 20.0773 21.5038C20.0975 21.5251 20.1085 21.5535 20.108 21.5828C20.1075 21.6122 20.0954 21.6402 20.0745 21.6607C20.0536 21.6813 20.0254 21.6928 19.996 21.6928C19.9667 21.6928 19.9385 21.6813 19.9175 21.6607C19.8966 21.6402 19.8846 21.6122 19.884 21.5828C19.8835 21.5535 19.8945 21.5251 19.9147 21.5038C19.9349 21.4825 19.9627 21.4699 19.992 21.4689ZM27.992 21.4689H28C28.0294 21.4699 28.0571 21.4825 28.0773 21.5038C28.0975 21.5251 28.1085 21.5535 28.108 21.5828C28.1075 21.6122 28.0954 21.6402 28.0745 21.6607C28.0536 21.6813 28.0254 21.6928 27.996 21.6928C27.9667 21.6928 27.9385 21.6813 27.9175 21.6607C27.8966 21.6402 27.8846 21.6122 27.884 21.5828C27.8835 21.5535 27.8945 21.5251 27.9147 21.5038C27.9349 21.4825 27.9627 21.4699 27.992 21.4689ZM17.533 22.0799C17.6576 22.0782 17.7813 22.1012 17.897 22.1476C18.0127 22.1939 18.118 22.2627 18.207 22.3499C18.2965 22.4365 18.368 22.54 18.4173 22.6543C18.4667 22.7687 18.493 22.8916 18.4946 23.0162C18.4963 23.1407 18.4733 23.2643 18.4271 23.3799C18.3808 23.4956 18.3121 23.6009 18.225 23.6899L16.416 25.5489C16.3295 25.6385 16.2262 25.7101 16.1119 25.7597C15.9976 25.8092 15.8747 25.8357 15.7502 25.8375C15.6256 25.8394 15.502 25.8166 15.3863 25.7705C15.2706 25.7244 15.1651 25.6559 15.076 25.5689C14.9866 25.4822 14.9152 25.3787 14.8659 25.2643C14.8167 25.15 14.7905 25.027 14.7889 24.9024C14.7873 24.7779 14.8104 24.6543 14.8567 24.5387C14.9031 24.4231 14.9718 24.3178 15.059 24.2289L16.867 22.3709C16.9534 22.281 17.0567 22.2091 17.171 22.1594C17.2853 22.1096 17.4084 22.0829 17.533 22.0809V22.0799ZM25.092 22.0799C25.2166 22.0782 25.3403 22.1012 25.456 22.1476C25.5717 22.1939 25.677 22.2627 25.766 22.3499C25.8554 22.4366 25.9268 22.5401 25.9761 22.6545C26.0254 22.7689 26.0515 22.8918 26.0531 23.0164C26.0547 23.1409 26.0317 23.2645 25.9853 23.3801C25.9389 23.4957 25.8702 23.601 25.783 23.6899L23.975 25.5489C23.8885 25.6385 23.7852 25.7101 23.6709 25.7597C23.5566 25.8092 23.4337 25.8357 23.3092 25.8375C23.1846 25.8394 23.061 25.8166 22.9453 25.7705C22.8296 25.7244 22.7241 25.6559 22.635 25.5689C22.5455 25.4823 22.4741 25.3788 22.4247 25.2645C22.3754 25.1501 22.3491 25.0272 22.3474 24.9026C22.3457 24.7781 22.3687 24.6545 22.415 24.5389C22.4612 24.4232 22.5299 24.3179 22.617 24.2289L24.426 22.3709C24.5124 22.281 24.6157 22.2091 24.73 22.1594C24.8443 22.1096 24.9674 22.0829 25.092 22.0809V22.0799ZM32.252 22.0799C32.3766 22.0782 32.5003 22.1012 32.616 22.1476C32.7317 22.1939 32.837 22.2627 32.926 22.3499C33.0154 22.4366 33.0868 22.5401 33.1361 22.6545C33.1854 22.7689 33.2115 22.8918 33.2131 23.0164C33.2147 23.1409 33.1917 23.2645 33.1453 23.3801C33.0989 23.4957 33.0302 23.601 32.943 23.6899L31.135 25.5489C31.0485 25.6385 30.9452 25.7101 30.8309 25.7597C30.7166 25.8092 30.5937 25.8357 30.4692 25.8375C30.3446 25.8394 30.221 25.8166 30.1053 25.7705C29.9896 25.7244 29.8841 25.6559 29.795 25.5689C29.7055 25.4823 29.6341 25.3788 29.5847 25.2645C29.5354 25.1501 29.5091 25.0272 29.5074 24.9026C29.5057 24.7781 29.5287 24.6545 29.575 24.5389C29.6212 24.4232 29.6899 24.3179 29.777 24.2289L31.586 22.3709C31.6724 22.2811 31.7758 22.2092 31.8901 22.1594C32.0044 22.1097 32.1274 22.083 32.252 22.0809V22.0799ZM19.992 23.1559H20C20.0294 23.1569 20.0571 23.1695 20.0773 23.1908C20.0975 23.2121 20.1085 23.2405 20.108 23.2698C20.1075 23.2992 20.0954 23.3272 20.0745 23.3477C20.0536 23.3683 20.0254 23.3798 19.996 23.3798C19.9667 23.3798 19.9385 23.3683 19.9175 23.3477C19.8966 23.3272 19.8846 23.2992 19.884 23.2698C19.8835 23.2405 19.8945 23.2121 19.9147 23.1908C19.9349 23.1695 19.9627 23.1569 19.992 23.1559ZM27.992 23.1559H28C28.0294 23.1569 28.0571 23.1695 28.0773 23.1908C28.0975 23.2121 28.1085 23.2405 28.108 23.2698C28.1075 23.2992 28.0954 23.3272 28.0745 23.3477C28.0536 23.3683 28.0254 23.3798 27.996 23.3798C27.9667 23.3798 27.9385 23.3683 27.9175 23.3477C27.8966 23.3272 27.8846 23.2992 27.884 23.2698C27.8835 23.2405 27.8945 23.2121 27.9147 23.1908C27.9349 23.1695 27.9627 23.1569 27.992 23.1559ZM19.98 23.7189H20C20.0222 23.7191 20.0438 23.7259 20.0621 23.7383C20.0804 23.7508 20.0946 23.7684 20.1029 23.789C20.1112 23.8095 20.1132 23.832 20.1087 23.8537C20.1041 23.8754 20.0933 23.8953 20.0775 23.9108C20.0617 23.9263 20.0416 23.9368 20.0199 23.9409C19.9981 23.9451 19.9756 23.9426 19.9552 23.934C19.9348 23.9253 19.9175 23.9108 19.9053 23.8923C19.8932 23.8738 19.8868 23.8521 19.887 23.8299C19.887 23.7749 19.926 23.7259 19.98 23.7189ZM27.98 23.7189H28C28.0222 23.7191 28.0438 23.7259 28.0621 23.7383C28.0804 23.7508 28.0946 23.7684 28.1029 23.789C28.1112 23.8095 28.1132 23.832 28.1087 23.8537C28.1041 23.8754 28.0933 23.8953 28.0775 23.9108C28.0617 23.9263 28.0416 23.9368 28.0199 23.9409C27.9981 23.9451 27.9756 23.9426 27.9552 23.934C27.9348 23.9253 27.9175 23.9108 27.9053 23.8923C27.8932 23.8738 27.8868 23.8521 27.887 23.8299C27.887 23.7749 27.926 23.7259 27.98 23.7189ZM19.98 24.2809H20C20.061 24.2809 20.11 24.3309 20.111 24.3919C20.111 24.4216 20.0992 24.4501 20.0782 24.4711C20.0572 24.4921 20.0287 24.5039 19.999 24.5039C19.9693 24.5039 19.9408 24.4921 19.9198 24.4711C19.8988 24.4501 19.887 24.4216 19.887 24.3919C19.8867 24.3654 19.8959 24.3398 19.913 24.3196C19.9301 24.2994 19.9539 24.286 19.98 24.2819V24.2809ZM27.98 24.2809H28C28.061 24.2809 28.11 24.3309 28.111 24.3919C28.111 24.4216 28.0992 24.4501 28.0782 24.4711C28.0572 24.4921 28.0287 24.5039 27.999 24.5039C27.9693 24.5039 27.9408 24.4921 27.9198 24.4711C27.8988 24.4501 27.887 24.4216 27.887 24.3919C27.8867 24.3654 27.8959 24.3398 27.913 24.3196C27.9301 24.2994 27.9539 24.286 27.98 24.2819V24.2809ZM17.533 27.3399C17.6576 27.3382 17.7813 27.3612 17.897 27.4076C18.0127 27.4539 18.118 27.5227 18.207 27.6099C18.2965 27.6965 18.368 27.8 18.4173 27.9143C18.4667 28.0287 18.493 28.1516 18.4946 28.2762C18.4963 28.4007 18.4733 28.5243 18.4271 28.6399C18.3808 28.7556 18.3121 28.8609 18.225 28.9499L16.416 30.8079C16.3304 30.9015 16.2269 30.9769 16.1116 31.0297C15.9963 31.0825 15.8716 31.1117 15.7449 31.1154C15.6181 31.1191 15.4919 31.0973 15.3737 31.0513C15.2555 31.0053 15.1478 30.936 15.0569 30.8476C14.966 30.7592 14.8938 30.6534 14.8446 30.5365C14.7953 30.4197 14.77 30.2941 14.7702 30.1673C14.7704 30.0405 14.7961 29.915 14.8457 29.7983C14.8953 29.6816 14.9678 29.576 15.059 29.4879L16.867 27.6309C16.9534 27.541 17.0567 27.469 17.171 27.419C17.2853 27.3691 17.4083 27.3422 17.533 27.3399ZM25.092 27.3399C25.2166 27.3382 25.3403 27.3612 25.456 27.4076C25.5717 27.4539 25.677 27.5227 25.766 27.6099C25.8554 27.6966 25.9268 27.8001 25.9761 27.9145C26.0254 28.0289 26.0515 28.1518 26.0531 28.2764C26.0547 28.4009 26.0317 28.5245 25.9853 28.6401C25.9389 28.7557 25.8702 28.861 25.783 28.9499L23.975 30.8079C23.8888 30.899 23.7854 30.9722 23.6707 31.023C23.556 31.0738 23.4323 31.1013 23.3069 31.104C23.1815 31.1066 23.0568 31.0843 22.94 31.0384C22.8233 30.9924 22.7169 30.9237 22.6269 30.8363C22.537 30.7488 22.4653 30.6444 22.416 30.529C22.3668 30.4136 22.3409 30.2896 22.34 30.1642C22.3391 30.0387 22.3631 29.9143 22.4107 29.7982C22.4582 29.6821 22.5284 29.5767 22.617 29.4879L24.426 27.6309C24.5124 27.541 24.6157 27.469 24.73 27.419C24.8443 27.3691 24.9673 27.3422 25.092 27.3399ZM32.252 27.3399C32.3766 27.3382 32.5003 27.3612 32.616 27.4076C32.7317 27.4539 32.837 27.5227 32.926 27.6099C33.0154 27.6966 33.0868 27.8001 33.1361 27.9145C33.1854 28.0289 33.2115 28.1518 33.2131 28.2764C33.2147 28.4009 33.1917 28.5245 33.1453 28.6401C33.0989 28.7557 33.0302 28.861 32.943 28.9499L31.135 30.8079C31.0488 30.899 30.9454 30.9722 30.8307 31.023C30.716 31.0738 30.5923 31.1013 30.4669 31.104C30.3415 31.1066 30.2168 31.0843 30.1 31.0384C29.9833 30.9924 29.8769 30.9237 29.7869 30.8363C29.697 30.7488 29.6253 30.6444 29.576 30.529C29.5268 30.4136 29.5009 30.2896 29.5 30.1642C29.4991 30.0387 29.5231 29.9143 29.5707 29.7982C29.6182 29.6821 29.6884 29.5767 29.777 29.4879L31.586 27.6309C31.6724 27.541 31.7757 27.469 31.89 27.419C32.0043 27.3691 32.1273 27.3422 32.252 27.3399ZM19.98 28.2169H20C20.061 28.2169 20.11 28.2669 20.111 28.3279C20.1109 28.3493 20.1047 28.3702 20.0932 28.3881C20.0816 28.4061 20.0651 28.4203 20.0457 28.4292C20.0263 28.4382 20.0047 28.4413 19.9836 28.4384C19.9624 28.4354 19.9425 28.4265 19.9263 28.4126C19.91 28.3987 19.8981 28.3805 19.8919 28.3601C19.8857 28.3396 19.8854 28.3179 19.8912 28.2973C19.8969 28.2767 19.9084 28.2582 19.9243 28.244C19.9403 28.2297 19.9599 28.2203 19.981 28.2169H19.98ZM27.98 28.2169H28C28.061 28.2169 28.11 28.2669 28.111 28.3279C28.1109 28.3493 28.1047 28.3702 28.0932 28.3881C28.0816 28.4061 28.0651 28.4203 28.0457 28.4292C28.0263 28.4382 28.0047 28.4413 27.9836 28.4384C27.9624 28.4354 27.9425 28.4265 27.9263 28.4126C27.91 28.3987 27.8981 28.3805 27.8919 28.3601C27.8857 28.3396 27.8854 28.3179 27.8912 28.2973C27.8969 28.2767 27.9084 28.2582 27.9243 28.244C27.9403 28.2297 27.9599 28.2203 27.981 28.2169H27.98ZM20.002 28.7769C20.0168 28.777 20.0314 28.7801 20.045 28.7858C20.0586 28.7916 20.0709 28.8 20.0813 28.8106C20.0916 28.8211 20.0998 28.8336 20.1053 28.8473C20.1109 28.861 20.1136 28.8756 20.1135 28.8904C20.1134 28.9052 20.1103 28.9198 20.1046 28.9334C20.0988 28.947 20.0904 28.9593 20.0799 28.9697C20.0693 28.98 20.0568 28.9882 20.0431 28.9937C20.0294 28.9993 20.0148 29.002 20 29.0019C19.9702 29.0016 19.9417 28.9895 19.9208 28.9682C19.8999 28.947 19.8883 28.9182 19.8885 28.8884C19.8888 28.8586 19.9009 28.8301 19.9222 28.8091C19.9435 28.7882 19.9722 28.7766 20.002 28.7769ZM28.002 28.7769C28.0168 28.777 28.0314 28.7801 28.045 28.7858C28.0586 28.7916 28.0709 28.8 28.0813 28.8106C28.0916 28.8211 28.0998 28.8336 28.1053 28.8473C28.1109 28.861 28.1136 28.8756 28.1135 28.8904C28.1134 28.9052 28.1103 28.9198 28.1046 28.9334C28.0988 28.947 28.0904 28.9593 28.0799 28.9697C28.0693 28.98 28.0568 28.9882 28.0431 28.9937C28.0294 28.9993 28.0148 29.002 28 29.0019C27.9702 29.0016 27.9417 28.9895 27.9208 28.9682C27.8999 28.947 27.8883 28.9182 27.8885 28.8884C27.8888 28.8586 27.9009 28.8301 27.9222 28.8091C27.9435 28.7882 27.9722 28.7766 28.002 28.7769ZM19.992 29.3399H20C20.0294 29.341 20.0571 29.3535 20.0773 29.3748C20.0975 29.3961 20.1085 29.4245 20.108 29.4538C20.1075 29.4832 20.0954 29.5112 20.0745 29.5317C20.0536 29.5523 20.0254 29.5638 19.996 29.5638C19.9667 29.5638 19.9385 29.5523 19.9175 29.5317C19.8966 29.5112 19.8846 29.4832 19.884 29.4538C19.8835 29.4245 19.8945 29.3961 19.9147 29.3748C19.9349 29.3535 19.9627 29.341 19.992 29.3399ZM27.992 29.3399H28C28.0294 29.341 28.0571 29.3535 28.0773 29.3748C28.0975 29.3961 28.1085 29.4245 28.108 29.4538C28.1075 29.4832 28.0954 29.5112 28.0745 29.5317C28.0536 29.5523 28.0254 29.5638 27.996 29.5638C27.9667 29.5638 27.9385 29.5523 27.9175 29.5317C27.8966 29.5112 27.8846 29.4832 27.884 29.4538C27.8835 29.4245 27.8945 29.3961 27.9147 29.3748C27.9349 29.3535 27.9627 29.341 27.992 29.3399ZM19.992 29.9019H20C20.0294 29.903 20.0571 29.9155 20.0773 29.9368C20.0975 29.9581 20.1085 29.9865 20.108 30.0158C20.1075 30.0452 20.0954 30.0732 20.0745 30.0937C20.0536 30.1143 20.0254 30.1258 19.996 30.1258C19.9667 30.1258 19.9385 30.1143 19.9175 30.0937C19.8966 30.0732 19.8846 30.0452 19.884 30.0158C19.8835 29.9865 19.8945 29.9581 19.9147 29.9368C19.9349 29.9155 19.9627 29.903 19.992 29.9019ZM27.992 29.9019H28C28.0294 29.903 28.0571 29.9155 28.0773 29.9368C28.0975 29.9581 28.1085 29.9865 28.108 30.0158C28.1075 30.0452 28.0954 30.0732 28.0745 30.0937C28.0536 30.1143 28.0254 30.1258 27.996 30.1258C27.9667 30.1258 27.9385 30.1143 27.9175 30.0937C27.8966 30.0732 27.8846 30.0452 27.884 30.0158C27.8835 29.9865 27.8945 29.9581 27.9147 29.9368C27.9349 29.9155 27.9627 29.903 27.992 29.9019ZM19.992 31.0249C20.0074 31.0241 20.0228 31.0264 20.0373 31.0317C20.0517 31.037 20.065 31.0452 20.0762 31.0557C20.0874 31.0663 20.0963 31.079 20.1025 31.0932C20.1087 31.1073 20.1119 31.1225 20.112 31.1379C20.112 31.1677 20.1002 31.1964 20.0791 31.2175C20.058 31.2385 20.0294 31.2504 19.9995 31.2504C19.9697 31.2504 19.9411 31.2385 19.92 31.2175C19.8989 31.1964 19.887 31.1677 19.887 31.1379C19.887 31.0789 19.933 31.0279 19.992 31.0249ZM27.992 31.0249C28.0074 31.0241 28.0228 31.0264 28.0373 31.0317C28.0517 31.037 28.065 31.0452 28.0762 31.0557C28.0874 31.0663 28.0963 31.079 28.1025 31.0932C28.1087 31.1073 28.1119 31.1225 28.112 31.1379C28.112 31.1677 28.1002 31.1964 28.0791 31.2175C28.058 31.2385 28.0294 31.2504 27.9995 31.2504C27.9697 31.2504 27.9411 31.2385 27.92 31.2175C27.8989 31.1964 27.887 31.1677 27.887 31.1379C27.887 31.0789 27.933 31.0279 27.992 31.0249ZM19.98 32.1499H20C20.0221 32.1501 20.0437 32.1568 20.062 32.1693C20.0803 32.1817 20.0945 32.1992 20.1028 32.2197C20.1111 32.2402 20.1132 32.2627 20.1087 32.2844C20.1043 32.306 20.0936 32.3259 20.0779 32.3414C20.0622 32.357 20.0422 32.3676 20.0205 32.3718C19.9988 32.3761 19.9763 32.3738 19.9559 32.3653C19.9355 32.3568 19.9181 32.3424 19.9058 32.324C19.8936 32.3056 19.887 32.284 19.887 32.2619C19.8862 32.2351 19.8952 32.2089 19.9123 32.1883C19.9295 32.1677 19.9535 32.154 19.98 32.1499ZM27.98 32.1499H28C28.0221 32.1501 28.0437 32.1568 28.062 32.1693C28.0803 32.1817 28.0945 32.1992 28.1028 32.2197C28.1111 32.2402 28.1132 32.2627 28.1087 32.2844C28.1043 32.306 28.0936 32.3259 28.0779 32.3414C28.0622 32.357 28.0422 32.3676 28.0205 32.3718C27.9988 32.3761 27.9763 32.3738 27.9559 32.3653C27.9355 32.3568 27.9181 32.3424 27.9058 32.324C27.8936 32.3056 27.887 32.284 27.887 32.2619C27.8862 32.2351 27.8952 32.2089 27.9123 32.1883C27.9295 32.1677 27.9535 32.154 27.98 32.1499ZM17.531 32.5969C17.6556 32.5952 17.7793 32.6182 17.895 32.6646C18.0107 32.7109 18.116 32.7797 18.205 32.8669C18.2945 32.9535 18.366 33.057 18.4153 33.1713C18.4647 33.2857 18.491 33.4086 18.4926 33.5332C18.4943 33.6577 18.4713 33.7813 18.4251 33.8969C18.3788 34.0126 18.3101 34.1179 18.223 34.2069L16.414 36.0669C16.3275 36.1564 16.2241 36.228 16.1098 36.2774C15.9954 36.3269 15.8725 36.3532 15.748 36.355C15.6234 36.3568 15.4998 36.3339 15.3841 36.2877C15.2685 36.2415 15.1631 36.173 15.074 36.0859C14.9846 35.9992 14.9132 35.8957 14.8639 35.7813C14.8147 35.667 14.7885 35.544 14.7869 35.4194C14.7853 35.2949 14.8084 35.1713 14.8547 35.0557C14.9011 34.9401 14.9698 34.8348 15.057 34.7459L16.865 32.8889C16.9514 32.799 17.0547 32.7271 17.169 32.6774C17.2833 32.6276 17.4064 32.6009 17.531 32.5989V32.5969ZM25.09 32.5969C25.2146 32.5952 25.3383 32.6182 25.454 32.6646C25.5697 32.7109 25.675 32.7797 25.764 32.8669C25.8534 32.9536 25.9248 33.0571 25.9741 33.1715C26.0234 33.2859 26.0495 33.4088 26.0511 33.5334C26.0527 33.6579 26.0297 33.7815 25.9833 33.8971C25.9369 34.0127 25.8682 34.118 25.781 34.2069L23.973 36.0669C23.8865 36.1564 23.7831 36.228 23.6688 36.2774C23.5544 36.3269 23.4315 36.3532 23.307 36.355C23.1824 36.3568 23.0588 36.3339 22.9431 36.2877C22.8275 36.2415 22.7221 36.173 22.633 36.0859C22.5435 35.9993 22.4721 35.8958 22.4227 35.7815C22.3734 35.6671 22.3471 35.5442 22.3454 35.4196C22.3437 35.2951 22.3667 35.1715 22.413 35.0559C22.4592 34.9402 22.5279 34.8349 22.615 34.7459L24.424 32.8889C24.5104 32.799 24.6137 32.7271 24.728 32.6774C24.8423 32.6276 24.9654 32.6009 25.09 32.5989V32.5969ZM32.25 32.5969C32.3746 32.5952 32.4983 32.6182 32.614 32.6646C32.7297 32.7109 32.835 32.7797 32.924 32.8669C33.0134 32.9536 33.0848 33.0571 33.1341 33.1715C33.1834 33.2859 33.2095 33.4088 33.2111 33.5334C33.2127 33.6579 33.1897 33.7815 33.1433 33.8971C33.0969 34.0127 33.0282 34.118 32.941 34.2069L31.133 36.0669C31.0465 36.1564 30.9431 36.228 30.8288 36.2774C30.7144 36.3269 30.5915 36.3532 30.467 36.355C30.3424 36.3568 30.2188 36.3339 30.1031 36.2877C29.9875 36.2415 29.8821 36.173 29.793 36.0859C29.7035 35.9993 29.6321 35.8958 29.5827 35.7815C29.5334 35.6671 29.5071 35.5442 29.5054 35.4196C29.5037 35.2951 29.5267 35.1715 29.573 35.0559C29.6192 34.9402 29.6879 34.8349 29.775 34.7459L31.584 32.8889C31.6704 32.799 31.7737 32.7271 31.888 32.6774C32.0023 32.6276 32.1254 32.6009 32.25 32.5989V32.5969ZM19.98 32.7129H20C20.061 32.7129 20.11 32.7629 20.111 32.8239C20.1109 32.8453 20.1047 32.8662 20.0932 32.8841C20.0816 32.9021 20.0651 32.9163 20.0457 32.9252C20.0263 32.9342 20.0047 32.9373 19.9836 32.9344C19.9624 32.9314 19.9425 32.9225 19.9263 32.9086C19.91 32.8947 19.8981 32.8765 19.8919 32.8561C19.8857 32.8356 19.8854 32.8139 19.8912 32.7933C19.8969 32.7727 19.9084 32.7542 19.9243 32.74C19.9403 32.7257 19.9599 32.7163 19.981 32.7129H19.98ZM27.98 32.7129H28C28.061 32.7129 28.11 32.7629 28.111 32.8239C28.1109 32.8453 28.1047 32.8662 28.0932 32.8841C28.0816 32.9021 28.0651 32.9163 28.0457 32.9252C28.0263 32.9342 28.0047 32.9373 27.9836 32.9344C27.9624 32.9314 27.9425 32.9225 27.9263 32.9086C27.91 32.8947 27.8981 32.8765 27.8919 32.8561C27.8857 32.8356 27.8854 32.8139 27.8912 32.7933C27.8969 32.7727 27.9084 32.7542 27.9243 32.74C27.9403 32.7257 27.9599 32.7163 27.981 32.7129H27.98ZM20.002 33.2729C20.064 33.2739 20.114 33.3269 20.113 33.3889C20.1129 33.4033 20.1099 33.4176 20.1043 33.4309C20.0986 33.4442 20.0904 33.4563 20.0801 33.4664C20.0698 33.4765 20.0576 33.4845 20.0442 33.4899C20.0308 33.4953 20.0165 33.498 20.002 33.4979C19.9873 33.4983 19.9727 33.4958 19.959 33.4904C19.9453 33.4851 19.9328 33.477 19.9223 33.4668C19.9118 33.4565 19.9034 33.4442 19.8977 33.4307C19.892 33.4172 19.889 33.4026 19.889 33.3879C19.889 33.3259 19.939 33.2729 20.002 33.2729ZM28.002 33.2729C28.064 33.2739 28.114 33.3269 28.113 33.3889C28.1129 33.4033 28.1099 33.4176 28.1043 33.4309C28.0986 33.4442 28.0904 33.4563 28.0801 33.4664C28.0698 33.4765 28.0576 33.4845 28.0442 33.4899C28.0308 33.4953 28.0165 33.498 28.002 33.4979C27.9873 33.4983 27.9727 33.4958 27.959 33.4904C27.9453 33.4851 27.9328 33.477 27.9223 33.4668C27.9118 33.4565 27.9034 33.4442 27.8977 33.4307C27.892 33.4172 27.889 33.4026 27.889 33.3879C27.889 33.3259 27.939 33.2729 28.002 33.2729ZM19.992 33.8359H20C20.0294 33.8369 20.0571 33.8495 20.0773 33.8708C20.0975 33.8921 20.1085 33.9205 20.108 33.9498C20.1075 33.9792 20.0954 34.0072 20.0745 34.0277C20.0536 34.0483 20.0254 34.0598 19.996 34.0598C19.9667 34.0598 19.9385 34.0483 19.9175 34.0277C19.8966 34.0072 19.8846 33.9792 19.884 33.9498C19.8835 33.9205 19.8945 33.8921 19.9147 33.8708C19.9349 33.8495 19.9627 33.8369 19.992 33.8359ZM27.992 33.8359H28C28.0294 33.8369 28.0571 33.8495 28.0773 33.8708C28.0975 33.8921 28.1085 33.9205 28.108 33.9498C28.1075 33.9792 28.0954 34.0072 28.0745 34.0277C28.0536 34.0483 28.0254 34.0598 27.996 34.0598C27.9667 34.0598 27.9385 34.0483 27.9175 34.0277C27.8966 34.0072 27.8846 33.9792 27.884 33.9498C27.8835 33.9205 27.8945 33.8921 27.9147 33.8708C27.9349 33.8495 27.9627 33.8369 27.992 33.8359ZM19.98 37.2109H20C20.061 37.2109 20.11 37.2609 20.111 37.3219C20.1109 37.3433 20.1047 37.3642 20.0932 37.3821C20.0816 37.4001 20.0651 37.4143 20.0457 37.4232C20.0263 37.4322 20.0047 37.4353 19.9836 37.4324C19.9624 37.4294 19.9425 37.4205 19.9263 37.4066C19.91 37.3927 19.8981 37.3745 19.8919 37.3541C19.8857 37.3336 19.8854 37.3119 19.8912 37.2913C19.8969 37.2707 19.9084 37.2522 19.9243 37.238C19.9403 37.2237 19.9599 37.2143 19.981 37.2109H19.98ZM27.98 37.2109H28C28.061 37.2109 28.11 37.2609 28.111 37.3219C28.1109 37.3433 28.1047 37.3642 28.0932 37.3821C28.0816 37.4001 28.0651 37.4143 28.0457 37.4232C28.0263 37.4322 28.0047 37.4353 27.9836 37.4324C27.9624 37.4294 27.9425 37.4205 27.9263 37.4066C27.91 37.3927 27.8981 37.3745 27.8919 37.3541C27.8857 37.3336 27.8854 37.3119 27.8912 37.2913C27.8969 37.2707 27.9084 37.2522 27.9243 37.238C27.9403 37.2237 27.9599 37.2143 27.981 37.2109H27.98ZM19.98 41.1459H20C20.0221 41.1461 20.0437 41.1528 20.062 41.1653C20.0803 41.1777 20.0945 41.1952 20.1028 41.2157C20.1111 41.2362 20.1132 41.2587 20.1087 41.2804C20.1043 41.302 20.0936 41.3219 20.0779 41.3374C20.0622 41.353 20.0422 41.3636 20.0205 41.3678C19.9988 41.3721 19.9763 41.3698 19.9559 41.3613C19.9355 41.3528 19.9181 41.3384 19.9058 41.32C19.8936 41.3016 19.887 41.28 19.887 41.2579C19.8862 41.2311 19.8952 41.2049 19.9123 41.1843C19.9295 41.1637 19.9535 41.15 19.98 41.1459ZM27.98 41.1459H28C28.0221 41.1461 28.0437 41.1528 28.062 41.1653C28.0803 41.1777 28.0945 41.1952 28.1028 41.2157C28.1111 41.2362 28.1132 41.2587 28.1087 41.2804C28.1043 41.302 28.0936 41.3219 28.0779 41.3374C28.0622 41.353 28.0422 41.3636 28.0205 41.3678C27.9988 41.3721 27.9763 41.3698 27.9559 41.3613C27.9355 41.3528 27.9181 41.3384 27.9058 41.32C27.8936 41.3016 27.887 41.28 27.887 41.2579C27.8862 41.2311 27.8952 41.2049 27.9123 41.1843C27.9295 41.1637 27.9535 41.15 27.98 41.1459ZM19.98 41.7089H20C20.061 41.7089 20.11 41.7589 20.111 41.8199C20.111 41.8819 20.061 41.9309 20 41.9309C19.9705 41.9312 19.942 41.9198 19.9209 41.8992C19.8997 41.8786 19.8875 41.8504 19.887 41.8209C19.8862 41.7941 19.8952 41.7679 19.9123 41.7473C19.9295 41.7267 19.9535 41.713 19.98 41.7089ZM27.98 41.7089H28C28.061 41.7089 28.11 41.7589 28.111 41.8199C28.111 41.8819 28.061 41.9309 28 41.9309C27.9705 41.9312 27.942 41.9198 27.9209 41.8992C27.8997 41.8786 27.8875 41.8504 27.887 41.8209C27.8862 41.7941 27.8952 41.7679 27.9123 41.7473C27.9295 41.7267 27.9535 41.713 27.98 41.7089ZM20.002 42.2689C20.0319 42.2692 20.0604 42.2813 20.0813 42.3026C20.1022 42.3238 20.1138 42.3526 20.1135 42.3824C20.1133 42.4122 20.1011 42.4407 20.0799 42.4617C20.0586 42.4826 20.0299 42.4942 20 42.4939C19.9852 42.4938 19.9706 42.4907 19.957 42.485C19.9434 42.4792 19.9311 42.4708 19.9208 42.4602C19.8999 42.439 19.8883 42.4102 19.8885 42.3804C19.8888 42.3506 19.9009 42.3221 19.9222 42.3011C19.9435 42.2802 19.9722 42.2686 20.002 42.2689ZM28.002 42.2689C28.0319 42.2692 28.0604 42.2813 28.0813 42.3026C28.1022 42.3238 28.1138 42.3526 28.1135 42.3824C28.1133 42.4122 28.1011 42.4407 28.0799 42.4617C28.0586 42.4826 28.0299 42.4942 28 42.4939C27.9852 42.4938 27.9706 42.4907 27.957 42.485C27.9434 42.4792 27.9311 42.4708 27.9208 42.4602C27.8999 42.439 27.8883 42.4102 27.8885 42.3804C27.8888 42.3506 27.9009 42.3221 27.9222 42.3011C27.9435 42.2802 27.9722 42.2686 28.002 42.2689Z" fill="#333333"/>
</svg>
