<svg width="48" height="48" viewBox="0 0 48 48" fill="none" xmlns="http://www.w3.org/2000/svg">
<path fill-rule="evenodd" clip-rule="evenodd" d="M0 0V48H48V0H0ZM14.15 4H33.85C34.72 4 35.42 4.7 35.42 5.57V42.43C35.42 43.3 34.72 44 33.85 44H14.15C13.28 44 12.58 43.3 12.58 42.43V5.57C12.58 4.7 13.28 4 14.15 4ZM18.67 9.13C18.5447 9.13177 18.421 9.1583 18.306 9.20807C18.191 9.25784 18.087 9.32987 18 9.42L16.2 11.27C16.0895 11.3803 16.0083 11.5163 15.9635 11.6658C15.9188 11.8154 15.912 11.9737 15.9438 12.1265C15.9755 12.2793 16.0448 12.4218 16.1454 12.5411C16.246 12.6605 16.3748 12.7529 16.52 12.81C16.694 12.8804 16.8851 12.897 17.0687 12.8578C17.2523 12.8186 17.4199 12.7253 17.55 12.59L19.36 10.73C19.4872 10.5944 19.5719 10.4245 19.6034 10.2412C19.635 10.058 19.6121 9.86954 19.5376 9.69919C19.463 9.52885 19.3402 9.38412 19.1842 9.28295C19.0282 9.18177 18.8459 9.12859 18.66 9.13H18.67ZM21.77 9.13C21.5204 9.1362 21.2834 9.24037 21.11 9.42L19.31 11.27C19.18 11.4045 19.0927 11.5745 19.0589 11.7585C19.0251 11.9424 19.0464 12.1323 19.1201 12.3042C19.1938 12.4762 19.3166 12.6225 19.4731 12.725C19.6297 12.8274 19.8129 12.8813 20 12.88C20.1254 12.8788 20.2492 12.8525 20.3643 12.8027C20.4794 12.7529 20.5833 12.6806 20.67 12.59L22.47 10.73C22.5972 10.5944 22.6819 10.4245 22.7134 10.2412C22.745 10.058 22.7221 9.86954 22.6476 9.69919C22.573 9.52885 22.4502 9.38412 22.2942 9.28295C22.1382 9.18177 21.9559 9.12859 21.77 9.13ZM24.89 9.13C24.7647 9.13177 24.641 9.1583 24.526 9.20807C24.411 9.25784 24.307 9.32987 24.22 9.42L22.42 11.27C22.2894 11.4052 22.2018 11.576 22.1683 11.7609C22.1349 11.9459 22.157 12.1366 22.2319 12.3089C22.3069 12.4813 22.4313 12.6275 22.5893 12.7292C22.7474 12.8309 22.9321 12.8833 23.12 12.88C23.2437 12.8775 23.3656 12.8505 23.4789 12.8008C23.5922 12.751 23.6945 12.6794 23.78 12.59L25.58 10.73C25.7066 10.595 25.7911 10.426 25.823 10.2437C25.8549 10.0614 25.8328 9.87374 25.7595 9.7038C25.6862 9.53385 25.5649 9.38902 25.4104 9.28708C25.256 9.18514 25.0751 9.13055 24.89 9.13ZM28 9.13C27.7504 9.1362 27.5134 9.24037 27.34 9.42L25.53 11.27C25.4198 11.381 25.339 11.5177 25.2949 11.6677C25.2509 11.8178 25.245 11.9765 25.2778 12.1294C25.3105 12.2823 25.3809 12.4247 25.4826 12.5435C25.5843 12.6623 25.714 12.7539 25.86 12.81C26.034 12.8804 26.2251 12.897 26.4087 12.8578C26.5923 12.8186 26.7599 12.7253 26.89 12.59L28.69 10.73C28.8166 10.595 28.9011 10.426 28.933 10.2437C28.9649 10.0614 28.9428 9.87374 28.8695 9.7038C28.7962 9.53385 28.6749 9.38902 28.5204 9.28708C28.366 9.18514 28.1851 9.13055 28 9.13ZM31.11 9.13C30.8604 9.1362 30.6234 9.24037 30.45 9.42L28.65 11.27C28.52 11.4045 28.4327 11.5745 28.3989 11.7585C28.3651 11.9424 28.3864 12.1323 28.4601 12.3042C28.5338 12.4762 28.6566 12.6225 28.8131 12.725C28.9697 12.8274 29.1529 12.8813 29.34 12.88C29.4637 12.8775 29.5856 12.8505 29.6989 12.8008C29.8122 12.751 29.9145 12.6794 30 12.59L31.81 10.73C31.9372 10.5944 32.0219 10.4245 32.0534 10.2412C32.085 10.058 32.0621 9.86954 31.9876 9.69919C31.913 9.52885 31.7902 9.38412 31.6342 9.28295C31.4782 9.18177 31.2959 9.12859 31.11 9.13ZM13.6 13.93C13.5783 13.9305 13.5572 13.9374 13.5394 13.9499C13.5216 13.9623 13.5079 13.9798 13.5 14L13.49 14.05C13.49 14.11 13.54 14.15 13.59 14.15C13.6085 14.1513 13.6271 14.1479 13.6439 14.1401C13.6608 14.1322 13.6754 14.1203 13.6863 14.1053C13.6973 14.0903 13.7043 14.0728 13.7067 14.0544C13.7091 14.036 13.7068 14.0173 13.7 14C13.6921 13.9798 13.6784 13.9623 13.6606 13.9499C13.6428 13.9374 13.6217 13.9305 13.6 13.93ZM14.16 13.93C14.1447 13.9299 14.1295 13.9331 14.1155 13.9392C14.1014 13.9454 14.0888 13.9544 14.0785 13.9657C14.0681 13.977 14.0602 13.9903 14.0553 14.0048C14.0504 14.0194 14.0486 14.0347 14.05 14.05C14.05 14.11 14.1 14.15 14.16 14.15C14.22 14.15 14.27 14.11 14.27 14.05V14.03C14.2677 14.0042 14.2565 13.9801 14.2382 13.9618C14.2199 13.9435 14.1958 13.9323 14.17 13.93H14.16ZM14.72 13.93C14.6895 13.93 14.6602 13.9421 14.6387 13.9637C14.6171 13.9852 14.605 14.0145 14.605 14.045C14.605 14.0755 14.6171 14.1048 14.6387 14.1263C14.6602 14.1479 14.6895 14.16 14.72 14.16C14.78 14.16 14.84 14.11 14.84 14.05V14.03C14.8387 14.0155 14.8346 14.0015 14.8279 13.9886C14.8212 13.9757 14.812 13.9643 14.8008 13.955C14.7897 13.9457 14.7768 13.9387 14.7629 13.9344C14.749 13.9301 14.7345 13.9286 14.72 13.93ZM15.29 13.93C15.2683 13.9305 15.2472 13.9374 15.2294 13.9499C15.2116 13.9623 15.1979 13.9798 15.19 14L15.17 14.05C15.17 14.11 15.22 14.16 15.29 14.15C15.3116 14.1489 15.3323 14.1416 15.3497 14.1288C15.3671 14.116 15.3804 14.0984 15.3879 14.0782C15.3953 14.0579 15.3967 14.0359 15.3917 14.0149C15.3868 13.9939 15.3757 13.9748 15.36 13.96C15.341 13.942 15.3162 13.9313 15.29 13.93ZM15.85 13.93C15.8195 13.93 15.7902 13.9421 15.7687 13.9637C15.7471 13.9852 15.735 14.0145 15.735 14.045C15.735 14.0755 15.7471 14.1048 15.7687 14.1263C15.7902 14.1479 15.8195 14.16 15.85 14.16C15.8653 14.1601 15.8805 14.1569 15.8945 14.1508C15.9086 14.1446 15.9212 14.1356 15.9315 14.1243C15.9419 14.113 15.9498 14.0997 15.9547 14.0852C15.9596 14.0706 15.9614 14.0553 15.96 14.04C15.9575 14.0126 15.9448 13.9871 15.9244 13.9686C15.9041 13.9501 15.8775 13.9399 15.85 13.94V13.93ZM16.41 13.93C16.3883 13.9305 16.3672 13.9374 16.3494 13.9499C16.3316 13.9623 16.3179 13.9798 16.31 14L16.3 14.05C16.3 14.11 16.35 14.16 16.41 14.15C16.4324 14.1509 16.4546 14.145 16.4735 14.133C16.4925 14.121 16.5073 14.1035 16.516 14.0828C16.5247 14.0621 16.5269 14.0393 16.5222 14.0173C16.5176 13.9954 16.5063 13.9754 16.49 13.96C16.4793 13.9499 16.4668 13.9421 16.453 13.9369C16.4393 13.9318 16.4247 13.9294 16.41 13.93ZM16.97 13.93C16.9555 13.9313 16.9415 13.9354 16.9286 13.9421C16.9157 13.9488 16.9043 13.958 16.895 13.9692C16.8857 13.9803 16.8787 13.9932 16.8744 14.0071C16.8701 14.021 16.8686 14.0355 16.87 14.05C16.87 14.11 16.91 14.15 16.97 14.15C16.9992 14.15 17.0272 14.1384 17.0478 14.1178C17.0684 14.0972 17.08 14.0692 17.08 14.04C17.08 14.0108 17.0684 13.9828 17.0478 13.9622C17.0272 13.9416 16.9992 13.93 16.97 13.93ZM17.54 13.93C17.5239 13.9285 17.5076 13.9305 17.4923 13.936C17.477 13.9415 17.4632 13.9502 17.4517 13.9617C17.4402 13.9732 17.4315 13.987 17.426 14.0023C17.4205 14.0176 17.4185 14.0339 17.42 14.05C17.42 14.11 17.47 14.15 17.53 14.15C17.5524 14.1509 17.5746 14.145 17.5935 14.133C17.6125 14.121 17.6273 14.1035 17.636 14.0828C17.6447 14.0621 17.6469 14.0393 17.6422 14.0173C17.6376 13.9954 17.6263 13.9754 17.61 13.96C17.591 13.942 17.5662 13.9313 17.54 13.93ZM18.1 13.93C18.0783 13.9305 18.0572 13.9374 18.0394 13.9499C18.0216 13.9623 18.0079 13.9798 18 14L17.99 14.05C17.99 14.11 18.04 14.15 18.09 14.15C18.1192 14.15 18.1472 14.1384 18.1678 14.1178C18.1884 14.0972 18.2 14.0692 18.2 14.04C18.2 14.0108 18.1884 13.9828 18.1678 13.9622C18.1472 13.9416 18.1192 13.93 18.09 13.93H18.1ZM18.66 13.93C18.6447 13.9299 18.6295 13.9331 18.6155 13.9392C18.6014 13.9454 18.5888 13.9544 18.5785 13.9657C18.5681 13.977 18.5602 13.9903 18.5553 14.0048C18.5504 14.0194 18.5486 14.0347 18.55 14.05C18.55 14.11 18.6 14.15 18.66 14.15C18.72 14.15 18.77 14.11 18.77 14.05V14.03C18.7675 14.0026 18.7548 13.9771 18.7344 13.9586C18.7141 13.9401 18.6875 13.9299 18.66 13.93ZM19.22 13.93C19.1895 13.93 19.1603 13.9421 19.1387 13.9637C19.1171 13.9852 19.105 14.0145 19.105 14.045C19.105 14.0755 19.1171 14.1048 19.1387 14.1263C19.1603 14.1479 19.1895 14.16 19.22 14.16C19.28 14.16 19.33 14.11 19.33 14.05V14.04C19.3277 14.0142 19.3165 13.9901 19.2982 13.9718C19.2799 13.9535 19.2558 13.9423 19.23 13.94L19.22 13.93ZM19.79 13.93C19.7666 13.9284 19.7433 13.9344 19.7235 13.9469C19.7037 13.9595 19.6885 13.9781 19.68 14V14.05C19.68 14.11 19.72 14.16 19.78 14.15C19.85 14.15 19.89 14.11 19.9 14.05V14.04C19.8975 14.0126 19.8848 13.9871 19.8644 13.9686C19.8441 13.9501 19.8175 13.9399 19.79 13.94V13.93ZM20.35 13.93C20.3195 13.93 20.2902 13.9421 20.2687 13.9637C20.2471 13.9852 20.235 14.0145 20.235 14.045C20.235 14.0755 20.2471 14.1048 20.2687 14.1263C20.2902 14.1479 20.3195 14.16 20.35 14.16C20.41 14.16 20.45 14.11 20.45 14.05V14.04C20.4477 14.0142 20.4365 13.9901 20.4182 13.9718C20.3999 13.9535 20.3758 13.9423 20.35 13.94V13.93ZM20.91 13.93C20.8883 13.9305 20.8672 13.9374 20.8494 13.9499C20.8316 13.9623 20.8179 13.9798 20.81 14L20.8 14.05C20.8 14.11 20.85 14.16 20.91 14.15C20.9324 14.1509 20.9546 14.145 20.9735 14.133C20.9925 14.121 21.0073 14.1035 21.016 14.0828C21.0247 14.0621 21.0269 14.0393 21.0222 14.0173C21.0176 13.9954 21.0063 13.9754 20.99 13.96C20.9793 13.9499 20.9668 13.9421 20.953 13.9369C20.9393 13.9318 20.9247 13.9294 20.91 13.93ZM21.47 13.93C21.4547 13.9299 21.4395 13.9331 21.4255 13.9392C21.4114 13.9454 21.3988 13.9544 21.3885 13.9657C21.3781 13.977 21.3702 13.9903 21.3653 14.0048C21.3604 14.0194 21.3586 14.0347 21.36 14.05C21.36 14.11 21.41 14.15 21.47 14.15C21.4992 14.15 21.5272 14.1384 21.5478 14.1178C21.5684 14.0972 21.58 14.0692 21.58 14.04C21.58 14.0108 21.5684 13.9828 21.5478 13.9622C21.5272 13.9416 21.4992 13.93 21.47 13.93ZM22.03 13.93C22.0155 13.9313 22.0015 13.9354 21.9886 13.9421C21.9757 13.9488 21.9643 13.958 21.955 13.9692C21.9457 13.9803 21.9387 13.9932 21.9344 14.0071C21.9301 14.021 21.9286 14.0355 21.93 14.05C21.93 14.11 21.97 14.15 22.03 14.15C22.0445 14.1514 22.059 14.1499 22.0729 14.1456C22.0868 14.1413 22.0997 14.1343 22.1108 14.125C22.122 14.1157 22.1312 14.1043 22.1379 14.0914C22.1446 14.0785 22.1487 14.0645 22.15 14.05V14.04C22.1487 14.0255 22.1446 14.0115 22.1379 13.9986C22.1312 13.9857 22.122 13.9743 22.1108 13.965C22.0997 13.9557 22.0868 13.9487 22.0729 13.9444C22.059 13.9401 22.0445 13.9386 22.03 13.94V13.93ZM22.6 13.93C22.5783 13.9305 22.5572 13.9374 22.5394 13.9499C22.5216 13.9623 22.5079 13.9798 22.5 14L22.48 14.05C22.48 14.11 22.53 14.15 22.6 14.15C22.6204 14.1491 22.6402 14.1425 22.6572 14.131C22.6741 14.1195 22.6874 14.1035 22.6958 14.0848C22.7041 14.0661 22.707 14.0454 22.7042 14.0251C22.7014 14.0049 22.693 13.9858 22.68 13.97C22.6702 13.9581 22.658 13.9484 22.6442 13.9415C22.6305 13.9346 22.6154 13.9307 22.6 13.93ZM23.16 13.93C23.1447 13.9299 23.1295 13.9331 23.1155 13.9392C23.1014 13.9454 23.0888 13.9544 23.0785 13.9657C23.0681 13.977 23.0602 13.9903 23.0553 14.0048C23.0504 14.0194 23.0486 14.0347 23.05 14.05C23.05 14.11 23.1 14.15 23.15 14.15C23.22 14.15 23.27 14.11 23.27 14.05V14.03C23.2675 14.0026 23.2548 13.9771 23.2344 13.9586C23.2141 13.9401 23.1875 13.9299 23.16 13.93ZM23.72 13.93C23.6895 13.93 23.6603 13.9421 23.6387 13.9637C23.6171 13.9852 23.605 14.0145 23.605 14.045C23.605 14.0755 23.6171 14.1048 23.6387 14.1263C23.6603 14.1479 23.6895 14.16 23.72 14.16C23.78 14.16 23.83 14.11 23.83 14.05V14.03C23.8277 14.0042 23.8165 13.9801 23.7982 13.9618C23.7799 13.9435 23.7558 13.9323 23.73 13.93H23.72ZM24.28 13.93C24.2583 13.9305 24.2372 13.9374 24.2194 13.9499C24.2016 13.9623 24.1879 13.9798 24.18 14L24.17 14.05C24.17 14.11 24.22 14.16 24.28 14.15C24.3024 14.1509 24.3246 14.145 24.3435 14.133C24.3625 14.121 24.3773 14.1035 24.386 14.0828C24.3947 14.0621 24.3969 14.0393 24.3922 14.0173C24.3876 13.9954 24.3763 13.9754 24.36 13.96C24.3493 13.9499 24.3368 13.9421 24.323 13.9369C24.3093 13.9318 24.2947 13.9294 24.28 13.93ZM24.85 13.93C24.8195 13.93 24.7902 13.9421 24.7687 13.9637C24.7471 13.9852 24.735 14.0145 24.735 14.045C24.735 14.0755 24.7471 14.1048 24.7687 14.1263C24.7902 14.1479 24.8195 14.16 24.85 14.16C24.8645 14.1587 24.8785 14.1546 24.8914 14.1479C24.9043 14.1412 24.9157 14.132 24.925 14.1208C24.9343 14.1097 24.9413 14.0968 24.9456 14.0829C24.9499 14.069 24.9514 14.0545 24.95 14.04C24.9477 14.0142 24.9365 13.9901 24.9182 13.9718C24.8999 13.9535 24.8758 13.9423 24.85 13.94V13.93ZM25.41 13.93C25.3947 13.9299 25.3795 13.9331 25.3655 13.9392C25.3514 13.9454 25.3388 13.9544 25.3285 13.9657C25.3181 13.977 25.3102 13.9903 25.3053 14.0048C25.3004 14.0194 25.2986 14.0347 25.3 14.05C25.3 14.11 25.34 14.15 25.4 14.15C25.4224 14.1509 25.4446 14.145 25.4635 14.133C25.4825 14.121 25.4973 14.1035 25.506 14.0828C25.5147 14.0621 25.5169 14.0393 25.5122 14.0173C25.5076 13.9954 25.4963 13.9754 25.48 13.96C25.461 13.942 25.4362 13.9313 25.41 13.93ZM25.97 13.93C25.9483 13.9305 25.9272 13.9374 25.9094 13.9499C25.8916 13.9623 25.8779 13.9798 25.87 14L25.86 14.05C25.86 14.11 25.91 14.15 25.96 14.15C25.9833 14.1534 26.007 14.1492 26.0277 14.1381C26.0484 14.1269 26.0651 14.1095 26.0751 14.0882C26.0852 14.067 26.0882 14.043 26.0837 14.02C26.0791 13.9969 26.0673 13.9759 26.05 13.96C26.0393 13.9499 26.0268 13.9421 26.013 13.9369C25.9993 13.9318 25.9847 13.9294 25.97 13.93ZM26.53 13.93C26.5147 13.9299 26.4995 13.9331 26.4855 13.9392C26.4714 13.9454 26.4588 13.9544 26.4485 13.9657C26.4381 13.977 26.4302 13.9903 26.4253 14.0048C26.4204 14.0194 26.4186 14.0347 26.42 14.05C26.42 14.11 26.47 14.15 26.53 14.15C26.5524 14.1509 26.5746 14.145 26.5935 14.133C26.6125 14.121 26.6273 14.1035 26.636 14.0828C26.6447 14.0621 26.6469 14.0393 26.6422 14.0173C26.6376 13.9954 26.6263 13.9754 26.61 13.96C26.5993 13.9499 26.5868 13.9421 26.573 13.9369C26.5593 13.9318 26.5447 13.9294 26.53 13.93ZM27.09 13.93C27.0683 13.9305 27.0472 13.9374 27.0294 13.9499C27.0116 13.9623 26.9979 13.9798 26.99 14V14.05C26.99 14.11 27.03 14.15 27.09 14.15C27.1104 14.1491 27.1302 14.1425 27.1472 14.131C27.1641 14.1195 27.1774 14.1035 27.1858 14.0848C27.1941 14.0661 27.197 14.0454 27.1942 14.0251C27.1914 14.0049 27.183 13.9858 27.17 13.97C27.1602 13.9581 27.148 13.9484 27.1342 13.9415C27.1205 13.9346 27.1054 13.9307 27.09 13.93ZM27.66 13.93C27.6447 13.9299 27.6295 13.9331 27.6155 13.9392C27.6014 13.9454 27.5888 13.9544 27.5785 13.9657C27.5681 13.977 27.5602 13.9903 27.5553 14.0048C27.5504 14.0194 27.5486 14.0347 27.55 14.05C27.55 14.11 27.59 14.15 27.65 14.15C27.72 14.15 27.77 14.11 27.77 14.05V14.03C27.7675 14.0026 27.7548 13.9771 27.7344 13.9586C27.7141 13.9401 27.6875 13.9299 27.66 13.93ZM28.22 13.93C28.1895 13.93 28.1603 13.9421 28.1387 13.9637C28.1171 13.9852 28.105 14.0145 28.105 14.045C28.105 14.0755 28.1171 14.1048 28.1387 14.1263C28.1603 14.1479 28.1895 14.16 28.22 14.16C28.28 14.16 28.32 14.11 28.33 14.05V14.04C28.3275 14.0126 28.3148 13.9871 28.2944 13.9686C28.2741 13.9501 28.2475 13.9399 28.22 13.94V13.93ZM28.78 13.93C28.7583 13.9305 28.7372 13.9374 28.7194 13.9499C28.7016 13.9623 28.6879 13.9798 28.68 14L28.67 14.05C28.67 14.11 28.72 14.16 28.78 14.15C28.84 14.15 28.89 14.11 28.89 14.05V14.04C28.8877 14.0142 28.8765 13.9901 28.8582 13.9718C28.8399 13.9535 28.8158 13.9423 28.79 13.94L28.78 13.93ZM29.34 13.93C29.3256 13.9333 29.3119 13.9394 29.2998 13.9479C29.2877 13.9565 29.2774 13.9674 29.2695 13.9799C29.2616 13.9924 29.2563 14.0064 29.2538 14.021C29.2513 14.0356 29.2517 14.0506 29.255 14.065C29.2583 14.0794 29.2644 14.0931 29.2729 14.1052C29.2815 14.1173 29.2924 14.1276 29.3049 14.1355C29.3174 14.1434 29.3314 14.1487 29.346 14.1512C29.3606 14.1537 29.3756 14.1533 29.39 14.15C29.41 14.1399 29.4265 14.124 29.4372 14.1044C29.4479 14.0847 29.4524 14.0623 29.45 14.04C29.4477 14.0142 29.4365 13.9901 29.4182 13.9718C29.3999 13.9535 29.3758 13.9423 29.35 13.94L29.34 13.93ZM29.9 13.93C29.8695 13.93 29.8403 13.9421 29.8187 13.9637C29.7971 13.9852 29.785 14.0145 29.785 14.045C29.785 14.0755 29.7971 14.1048 29.8187 14.1263C29.8403 14.1479 29.8695 14.16 29.9 14.16C29.9249 14.1644 29.9506 14.1601 29.9727 14.1478C29.9948 14.1356 30.012 14.116 30.0214 14.0925C30.0308 14.0691 30.0318 14.0431 30.0242 14.0189C30.0167 13.9948 30.0011 13.974 29.98 13.96C29.9693 13.9499 29.9568 13.9421 29.943 13.9369C29.9293 13.9318 29.9147 13.9294 29.9 13.93ZM30.47 13.93C30.4483 13.9305 30.4272 13.9374 30.4094 13.9499C30.3916 13.9623 30.3779 13.9798 30.37 14L30.35 14.05C30.35 14.11 30.4 14.15 30.47 14.15C30.4975 14.1501 30.5241 14.1399 30.5444 14.1214C30.5648 14.1029 30.5775 14.0774 30.58 14.05V14.04C30.5775 14.0126 30.5648 13.9871 30.5444 13.9686C30.5241 13.9501 30.4975 13.9399 30.47 13.94V13.93ZM31.03 13.93C30.9995 13.93 30.9702 13.9421 30.9487 13.9637C30.9271 13.9852 30.915 14.0145 30.915 14.045C30.915 14.0755 30.9271 14.1048 30.9487 14.1263C30.9702 14.1479 30.9995 14.16 31.03 14.16C31.0592 14.16 31.0872 14.1484 31.1078 14.1278C31.1284 14.1072 31.14 14.0792 31.14 14.05V14.04C31.1375 14.0126 31.1248 13.9871 31.1045 13.9686C31.0841 13.9501 31.0575 13.9399 31.03 13.94V13.93ZM31.59 13.93C31.5683 13.9305 31.5472 13.9374 31.5294 13.9499C31.5116 13.9623 31.4979 13.9798 31.49 14L31.48 14.05C31.48 14.11 31.53 14.15 31.59 14.15C31.65 14.15 31.7 14.11 31.7 14.05V14.03C31.6977 14.0042 31.6865 13.9801 31.6682 13.9618C31.6499 13.9435 31.6258 13.9323 31.6 13.93H31.59ZM32.15 13.93C32.1283 13.9305 32.1072 13.9374 32.0894 13.9499C32.0716 13.9623 32.0579 13.9798 32.05 14V14.05C32.05 14.11 32.09 14.16 32.15 14.15C32.22 14.15 32.26 14.11 32.27 14.05V14.03C32.2687 14.0155 32.2646 14.0015 32.2579 13.9886C32.2512 13.9757 32.242 13.9643 32.2308 13.955C32.2197 13.9457 32.2068 13.9387 32.1929 13.9344C32.179 13.9301 32.1645 13.9286 32.15 13.93ZM32.72 13.93C32.7056 13.9326 32.6918 13.9381 32.6794 13.946C32.6671 13.954 32.6564 13.9643 32.6481 13.9764C32.6397 13.9884 32.6338 14.002 32.6307 14.0164C32.6276 14.0307 32.6274 14.0456 32.63 14.06C32.6326 14.0744 32.6381 14.0882 32.646 14.1006C32.654 14.1129 32.6643 14.1236 32.6764 14.1319C32.6884 14.1403 32.702 14.1462 32.7164 14.1493C32.7307 14.1524 32.7456 14.1526 32.76 14.15C32.7819 14.1415 32.8005 14.1263 32.8131 14.1065C32.8256 14.0867 32.8316 14.0634 32.83 14.04C32.8275 14.0126 32.8148 13.9871 32.7944 13.9686C32.7741 13.9501 32.7475 13.9399 32.72 13.94V13.93ZM33.28 13.93C33.2583 13.9305 33.2372 13.9374 33.2194 13.9499C33.2016 13.9623 33.1879 13.9798 33.18 14L33.17 14.05C33.17 14.11 33.22 14.16 33.27 14.15C33.2933 14.1534 33.317 14.1492 33.3377 14.1381C33.3584 14.1269 33.3751 14.1095 33.3851 14.0882C33.3952 14.067 33.3982 14.043 33.3937 14.02C33.3891 13.9969 33.3773 13.9759 33.36 13.96C33.3493 13.9499 33.3368 13.9421 33.323 13.9369C33.3093 13.9318 33.2947 13.9294 33.28 13.93ZM33.84 13.93C33.8256 13.9333 33.8119 13.9394 33.7998 13.9479C33.7877 13.9565 33.7774 13.9674 33.7695 13.9799C33.7616 13.9924 33.7563 14.0064 33.7538 14.021C33.7513 14.0356 33.7517 14.0506 33.755 14.065C33.7583 14.0794 33.7644 14.0931 33.7729 14.1052C33.7815 14.1173 33.7924 14.1276 33.8049 14.1355C33.8174 14.1434 33.8314 14.1487 33.846 14.1512C33.8606 14.1537 33.8756 14.1533 33.89 14.15C33.91 14.1399 33.9265 14.124 33.9372 14.1044C33.9479 14.0847 33.9524 14.0623 33.95 14.04C33.9477 14.0142 33.9365 13.9901 33.9182 13.9718C33.8999 13.9535 33.8758 13.9423 33.85 13.94L33.84 13.93ZM34.4 13.93C34.3855 13.9313 34.3715 13.9354 34.3586 13.9421C34.3457 13.9488 34.3343 13.958 34.325 13.9692C34.3157 13.9803 34.3087 13.9932 34.3044 14.0071C34.3001 14.021 34.2986 14.0355 34.3 14.05C34.3 14.11 34.34 14.15 34.4 14.15C34.4224 14.1509 34.4446 14.145 34.4635 14.133C34.4825 14.121 34.4973 14.1035 34.506 14.0828C34.5147 14.0621 34.5169 14.0393 34.5122 14.0173C34.5076 13.9954 34.4963 13.9754 34.48 13.96C34.4693 13.9499 34.4568 13.9421 34.443 13.9369C34.4293 13.9318 34.4147 13.9294 34.4 13.93ZM18.67 15.61C18.5439 15.6125 18.4196 15.6404 18.3045 15.6919C18.1894 15.7434 18.0858 15.8176 18 15.91L16.2 17.76C16.0895 17.8703 16.0083 18.0063 15.9635 18.1558C15.9188 18.3054 15.912 18.4637 15.9438 18.6165C15.9755 18.7693 16.0448 18.9118 16.1454 19.0311C16.246 19.1505 16.3748 19.2429 16.52 19.3C16.694 19.3704 16.8851 19.387 17.0687 19.3478C17.2523 19.3086 17.4199 19.2153 17.55 19.08L19.36 17.22C19.4872 17.0844 19.5719 16.9145 19.6034 16.7312C19.635 16.548 19.6121 16.3595 19.5376 16.1892C19.463 16.0189 19.3402 15.8741 19.1842 15.7729C19.0282 15.6718 18.8459 15.6186 18.66 15.62L18.67 15.61ZM21.77 15.61C21.519 15.6188 21.2817 15.7267 21.11 15.91L19.31 17.76C19.1834 17.895 19.0989 18.064 19.067 18.2463C19.0351 18.4286 19.0572 18.6163 19.1305 18.7862C19.2038 18.9561 19.3251 19.101 19.4796 19.2029C19.634 19.3049 19.8149 19.3595 20 19.36C20.1247 19.3601 20.2481 19.3354 20.3631 19.2873C20.4782 19.2392 20.5825 19.1688 20.67 19.08L22.47 17.22C22.5972 17.0844 22.6819 16.9145 22.7134 16.7312C22.745 16.548 22.7221 16.3595 22.6476 16.1892C22.573 16.0189 22.4502 15.8741 22.2942 15.7729C22.1382 15.6718 21.9559 15.6186 21.77 15.62V15.61ZM24.89 15.61C24.7639 15.6125 24.6396 15.6404 24.5245 15.6919C24.4094 15.7434 24.3058 15.8176 24.22 15.91L22.42 17.76C22.2928 17.8956 22.2081 18.0655 22.1766 18.2488C22.145 18.432 22.1679 18.6205 22.2424 18.7908C22.317 18.9611 22.4398 19.1059 22.5958 19.2071C22.7518 19.3082 22.9341 19.3614 23.12 19.36C23.3684 19.3575 23.6056 19.2569 23.78 19.08L25.58 17.22C25.7066 17.085 25.7911 16.916 25.823 16.7337C25.8549 16.5514 25.8328 16.3637 25.7595 16.1938C25.6862 16.0239 25.5649 15.879 25.4104 15.7771C25.256 15.6751 25.0751 15.6205 24.89 15.62V15.61ZM28 15.61C27.749 15.6188 27.5117 15.7267 27.34 15.91L25.53 17.76C25.4198 17.871 25.339 18.0077 25.2949 18.1577C25.2509 18.3078 25.245 18.4665 25.2778 18.6194C25.3105 18.7723 25.3809 18.9147 25.4826 19.0335C25.5843 19.1523 25.714 19.2439 25.86 19.3C26.034 19.3704 26.2251 19.387 26.4087 19.3478C26.5923 19.3086 26.7599 19.2153 26.89 19.08L28.69 17.22C28.8166 17.085 28.9011 16.916 28.933 16.7337C28.9649 16.5514 28.9428 16.3637 28.8695 16.1938C28.7962 16.0239 28.6749 15.879 28.5204 15.7771C28.366 15.6751 28.1851 15.6205 28 15.62V15.61ZM31.11 15.61C30.9856 15.6138 30.8632 15.6423 30.7499 15.6938C30.6366 15.7453 30.5347 15.8188 30.45 15.91L28.65 17.76C28.5234 17.895 28.4389 18.064 28.407 18.2463C28.3751 18.4286 28.3972 18.6163 28.4705 18.7862C28.5438 18.9561 28.6651 19.101 28.8196 19.2029C28.974 19.3049 29.1549 19.3595 29.34 19.36C29.5884 19.3575 29.8256 19.2569 30 19.08L31.81 17.22C31.9372 17.0844 32.0219 16.9145 32.0534 16.7312C32.085 16.548 32.0621 16.3595 31.9876 16.1892C31.913 16.0189 31.7902 15.8741 31.6342 15.7729C31.4782 15.6718 31.2959 15.6186 31.11 15.62V15.61ZM13.6 20.57C13.5708 20.57 13.5428 20.5816 13.5222 20.6022C13.5016 20.6228 13.49 20.6508 13.49 20.68C13.49 20.75 13.54 20.8 13.59 20.8C13.6161 20.8093 13.6447 20.8085 13.6701 20.7977C13.6956 20.7869 13.7161 20.7668 13.7274 20.7416C13.7388 20.7163 13.7402 20.6878 13.7314 20.6615C13.7226 20.6353 13.7043 20.6133 13.68 20.6C13.6693 20.5899 13.6568 20.5821 13.643 20.5769C13.6293 20.5718 13.6147 20.5694 13.6 20.57ZM14.16 20.57C14.1308 20.57 14.1028 20.5816 14.0822 20.6022C14.0616 20.6228 14.05 20.6508 14.05 20.68C14.05 20.75 14.1 20.8 14.16 20.8C14.22 20.8 14.27 20.75 14.27 20.68V20.66C14.2656 20.636 14.2535 20.6142 14.2354 20.5979C14.2173 20.5816 14.1943 20.5718 14.17 20.57H14.16ZM14.72 20.57C14.7053 20.5694 14.6907 20.5718 14.677 20.5769C14.6632 20.5821 14.6507 20.5899 14.64 20.6C14.6299 20.6107 14.6221 20.6232 14.6169 20.637C14.6118 20.6507 14.6094 20.6653 14.61 20.68C14.61 20.75 14.66 20.8 14.73 20.8C14.78 20.8 14.83 20.75 14.83 20.68V20.66C14.8256 20.636 14.8135 20.6142 14.7954 20.5979C14.7773 20.5816 14.7543 20.5718 14.73 20.57H14.72ZM15.29 20.57C15.2747 20.5686 15.2594 20.5704 15.2448 20.5753C15.2303 20.5802 15.217 20.5881 15.2057 20.5985C15.1944 20.6088 15.1854 20.6214 15.1792 20.6355C15.1731 20.6495 15.1699 20.6647 15.17 20.68C15.17 20.75 15.22 20.8 15.29 20.8C15.314 20.8015 15.3378 20.7952 15.3578 20.7819C15.3778 20.7687 15.393 20.7492 15.4009 20.7266C15.4088 20.7039 15.4091 20.6793 15.4017 20.6564C15.3944 20.6335 15.3797 20.6137 15.36 20.6C15.341 20.582 15.3162 20.5713 15.29 20.57ZM15.85 20.57C15.8353 20.5694 15.8207 20.5718 15.807 20.5769C15.7932 20.5821 15.7807 20.5899 15.77 20.6C15.7599 20.6107 15.7521 20.6232 15.7469 20.637C15.7418 20.6507 15.7394 20.6653 15.74 20.68C15.74 20.75 15.79 20.8 15.85 20.8C15.8653 20.8001 15.8805 20.7969 15.8945 20.7908C15.9086 20.7846 15.9212 20.7756 15.9315 20.7643C15.9419 20.753 15.9498 20.7397 15.9547 20.7252C15.9596 20.7106 15.9614 20.6953 15.96 20.68C15.9575 20.6526 15.9448 20.6271 15.9244 20.6086C15.9041 20.5901 15.8775 20.5799 15.85 20.58V20.57ZM16.41 20.57C16.3808 20.57 16.3528 20.5816 16.3322 20.6022C16.3116 20.6228 16.3 20.6508 16.3 20.68C16.3 20.75 16.35 20.8 16.41 20.8C16.4349 20.8044 16.4606 20.8001 16.4827 20.7878C16.5048 20.7756 16.522 20.756 16.5314 20.7325C16.5408 20.7091 16.5418 20.6831 16.5342 20.6589C16.5267 20.6348 16.5111 20.614 16.49 20.6C16.4793 20.5899 16.4668 20.5821 16.453 20.5769C16.4393 20.5718 16.4247 20.5694 16.41 20.57ZM16.97 20.57C16.9426 20.5725 16.9171 20.5852 16.8986 20.6056C16.8801 20.6259 16.8699 20.6525 16.87 20.68C16.87 20.75 16.91 20.8 16.97 20.8C17.0005 20.8 17.0298 20.7879 17.0513 20.7663C17.0729 20.7448 17.085 20.7155 17.085 20.685C17.085 20.6545 17.0729 20.6253 17.0513 20.6037C17.0298 20.5821 17.0005 20.57 16.97 20.57ZM17.54 20.57C17.5247 20.5686 17.5093 20.5704 17.4948 20.5753C17.4803 20.5802 17.467 20.5881 17.4557 20.5985C17.4444 20.6088 17.4354 20.6214 17.4292 20.6355C17.4231 20.6495 17.4199 20.6647 17.42 20.68C17.42 20.75 17.47 20.8 17.53 20.8C17.5549 20.8044 17.5806 20.8001 17.6027 20.7878C17.6248 20.7756 17.642 20.756 17.6514 20.7325C17.6608 20.7091 17.6618 20.6831 17.6542 20.6589C17.6467 20.6348 17.6311 20.614 17.61 20.6C17.591 20.582 17.5662 20.5713 17.54 20.57ZM18.1 20.57C18.0708 20.57 18.0428 20.5816 18.0222 20.6022C18.0016 20.6228 17.99 20.6508 17.99 20.68C17.99 20.75 18.04 20.8 18.09 20.8C18.1205 20.8 18.1498 20.7879 18.1713 20.7663C18.1929 20.7448 18.205 20.7155 18.205 20.685C18.205 20.6545 18.1929 20.6253 18.1713 20.6037C18.1498 20.5821 18.1205 20.57 18.09 20.57H18.1ZM18.66 20.57C18.6308 20.57 18.6028 20.5816 18.5822 20.6022C18.5616 20.6228 18.55 20.6508 18.55 20.68C18.55 20.75 18.6 20.8 18.66 20.8C18.72 20.8 18.77 20.75 18.77 20.68V20.66C18.7653 20.6344 18.7516 20.6113 18.7315 20.5948C18.7113 20.5784 18.686 20.5696 18.66 20.57ZM19.22 20.57C19.1908 20.57 19.1628 20.5816 19.1422 20.6022C19.1216 20.6228 19.11 20.6508 19.11 20.68C19.11 20.75 19.16 20.8 19.22 20.8C19.28 20.8 19.33 20.75 19.33 20.68C19.3277 20.6542 19.3165 20.6301 19.2982 20.6118C19.2799 20.5935 19.2558 20.5823 19.23 20.58L19.22 20.57ZM19.79 20.57C19.7753 20.5694 19.7607 20.5718 19.747 20.5769C19.7332 20.5821 19.7207 20.5899 19.71 20.6C19.6981 20.6098 19.6884 20.622 19.6815 20.6358C19.6746 20.6495 19.6707 20.6646 19.67 20.68C19.67 20.75 19.72 20.8 19.78 20.8C19.85 20.8 19.89 20.75 19.9 20.68C19.8975 20.6526 19.8848 20.6271 19.8644 20.6086C19.8441 20.5901 19.8175 20.5799 19.79 20.58V20.57ZM20.35 20.57C20.3347 20.5686 20.3194 20.5704 20.3048 20.5753C20.2903 20.5802 20.277 20.5881 20.2657 20.5985C20.2544 20.6088 20.2454 20.6214 20.2392 20.6355C20.2331 20.6495 20.2299 20.6647 20.23 20.68C20.23 20.75 20.29 20.8 20.35 20.8C20.41 20.8 20.45 20.75 20.45 20.68C20.4477 20.6542 20.4365 20.6301 20.4182 20.6118C20.3999 20.5935 20.3758 20.5823 20.35 20.58V20.57ZM20.91 20.57C20.8953 20.5694 20.8807 20.5718 20.867 20.5769C20.8532 20.5821 20.8407 20.5899 20.83 20.6C20.8199 20.6107 20.8121 20.6232 20.8069 20.637C20.8018 20.6507 20.7994 20.6653 20.8 20.68C20.8 20.75 20.85 20.8 20.91 20.8C20.9349 20.8044 20.9606 20.8001 20.9827 20.7878C21.0048 20.7756 21.022 20.756 21.0314 20.7325C21.0408 20.7091 21.0418 20.6831 21.0342 20.6589C21.0267 20.6348 21.0111 20.614 20.99 20.6C20.9793 20.5899 20.9668 20.5821 20.953 20.5769C20.9393 20.5718 20.9247 20.5694 20.91 20.57ZM21.47 20.57C21.4408 20.57 21.4128 20.5816 21.3922 20.6022C21.3716 20.6228 21.36 20.6508 21.36 20.68C21.36 20.75 21.41 20.8 21.47 20.8C21.5005 20.8 21.5298 20.7879 21.5513 20.7663C21.5729 20.7448 21.585 20.7155 21.585 20.685C21.585 20.6545 21.5729 20.6253 21.5513 20.6037C21.5298 20.5821 21.5005 20.57 21.47 20.57ZM22.03 20.57C22.0026 20.5725 21.9771 20.5852 21.9586 20.6056C21.9401 20.6259 21.9299 20.6525 21.93 20.68C21.93 20.75 21.97 20.8 22.03 20.8C22.0461 20.8015 22.0624 20.7995 22.0777 20.794C22.093 20.7885 22.1068 20.7798 22.1183 20.7683C22.1298 20.7568 22.1385 20.743 22.144 20.7277C22.1495 20.7124 22.1515 20.6961 22.15 20.68C22.1487 20.6655 22.1446 20.6515 22.1379 20.6386C22.1312 20.6257 22.122 20.6143 22.1108 20.605C22.0997 20.5957 22.0868 20.5887 22.0729 20.5844C22.059 20.5801 22.0445 20.5786 22.03 20.58V20.57ZM22.6 20.57C22.5847 20.5686 22.5694 20.5704 22.5548 20.5753C22.5403 20.5802 22.527 20.5881 22.5157 20.5985C22.5044 20.6088 22.4954 20.6214 22.4892 20.6355C22.4831 20.6495 22.4799 20.6647 22.48 20.68C22.48 20.75 22.53 20.8 22.6 20.8C22.6249 20.8044 22.6506 20.8001 22.6727 20.7878C22.6948 20.7756 22.712 20.756 22.7214 20.7325C22.7308 20.7091 22.7318 20.6831 22.7242 20.6589C22.7167 20.6348 22.7011 20.614 22.68 20.6C22.6693 20.5899 22.6568 20.5821 22.643 20.5769C22.6293 20.5718 22.6147 20.5694 22.6 20.57ZM23.16 20.57C23.1308 20.57 23.1028 20.5816 23.0822 20.6022C23.0616 20.6228 23.05 20.6508 23.05 20.68C23.05 20.75 23.1 20.8 23.15 20.8C23.22 20.8 23.27 20.75 23.27 20.68V20.66C23.2653 20.6344 23.2516 20.6113 23.2315 20.5948C23.2113 20.5784 23.186 20.5696 23.16 20.57ZM23.72 20.57C23.7053 20.5694 23.6907 20.5718 23.677 20.5769C23.6632 20.5821 23.6507 20.5899 23.64 20.6C23.6299 20.6107 23.6221 20.6232 23.6169 20.637C23.6118 20.6507 23.6094 20.6653 23.61 20.68C23.61 20.75 23.66 20.8 23.72 20.8C23.78 20.8 23.83 20.75 23.83 20.68V20.66C23.8256 20.636 23.8135 20.6142 23.7954 20.5979C23.7773 20.5816 23.7543 20.5718 23.73 20.57H23.72ZM24.28 20.57C24.2508 20.57 24.2228 20.5816 24.2022 20.6022C24.1816 20.6228 24.17 20.6508 24.17 20.68C24.17 20.75 24.22 20.8 24.28 20.8C24.3049 20.8044 24.3306 20.8001 24.3527 20.7878C24.3748 20.7756 24.392 20.756 24.4014 20.7325C24.4108 20.7091 24.4118 20.6831 24.4042 20.6589C24.3967 20.6348 24.3811 20.614 24.36 20.6C24.3493 20.5899 24.3368 20.5821 24.323 20.5769C24.3093 20.5718 24.2947 20.5694 24.28 20.57ZM24.85 20.57C24.8353 20.5694 24.8207 20.5718 24.807 20.5769C24.7932 20.5821 24.7807 20.5899 24.77 20.6C24.7581 20.6098 24.7484 20.622 24.7415 20.6358C24.7346 20.6495 24.7307 20.6646 24.73 20.68C24.73 20.75 24.78 20.8 24.85 20.8C24.8645 20.7987 24.8785 20.7946 24.8914 20.7879C24.9043 20.7812 24.9157 20.772 24.925 20.7608C24.9343 20.7497 24.9413 20.7368 24.9456 20.7229C24.9499 20.709 24.9514 20.6945 24.95 20.68C24.9477 20.6542 24.9365 20.6301 24.9182 20.6118C24.8999 20.5935 24.8758 20.5823 24.85 20.58V20.57ZM25.41 20.57C25.3808 20.57 25.3528 20.5816 25.3322 20.6022C25.3116 20.6228 25.3 20.6508 25.3 20.68C25.3 20.75 25.34 20.8 25.4 20.8C25.4249 20.8044 25.4506 20.8001 25.4727 20.7878C25.4948 20.7756 25.512 20.756 25.5214 20.7325C25.5308 20.7091 25.5318 20.6831 25.5242 20.6589C25.5167 20.6348 25.5011 20.614 25.48 20.6C25.461 20.582 25.4362 20.5713 25.41 20.57ZM25.97 20.57C25.9408 20.57 25.9128 20.5816 25.8922 20.6022C25.8716 20.6228 25.86 20.6508 25.86 20.68C25.86 20.75 25.91 20.8 25.96 20.8C25.9861 20.8093 26.0147 20.8085 26.0401 20.7977C26.0656 20.7869 26.0861 20.7668 26.0974 20.7416C26.1088 20.7163 26.1102 20.6878 26.1014 20.6615C26.0926 20.6353 26.0743 20.6133 26.05 20.6C26.0393 20.5899 26.0268 20.5821 26.013 20.5769C25.9993 20.5718 25.9847 20.5694 25.97 20.57ZM26.53 20.57C26.5008 20.57 26.4728 20.5816 26.4522 20.6022C26.4316 20.6228 26.42 20.6508 26.42 20.68C26.42 20.75 26.47 20.8 26.53 20.8C26.5549 20.8044 26.5806 20.8001 26.6027 20.7878C26.6248 20.7756 26.642 20.756 26.6514 20.7325C26.6608 20.7091 26.6618 20.6831 26.6542 20.6589C26.6467 20.6348 26.6311 20.614 26.61 20.6C26.5993 20.5899 26.5868 20.5821 26.573 20.5769C26.5593 20.5718 26.5447 20.5694 26.53 20.57ZM27.09 20.57C27.0626 20.5725 27.0371 20.5852 27.0186 20.6056C27.0001 20.6259 26.9899 20.6525 26.99 20.68C26.99 20.75 27.03 20.8 27.09 20.8C27.1149 20.8044 27.1406 20.8001 27.1627 20.7878C27.1848 20.7756 27.202 20.756 27.2114 20.7325C27.2208 20.7091 27.2218 20.6831 27.2142 20.6589C27.2067 20.6348 27.1911 20.614 27.17 20.6C27.1593 20.5899 27.1468 20.5821 27.133 20.5769C27.1193 20.5718 27.1047 20.5694 27.09 20.57ZM27.66 20.57C27.6308 20.57 27.6028 20.5816 27.5822 20.6022C27.5616 20.6228 27.55 20.6508 27.55 20.68C27.55 20.75 27.59 20.8 27.65 20.8C27.72 20.8 27.77 20.75 27.77 20.68V20.66C27.7653 20.6344 27.7516 20.6113 27.7315 20.5948C27.7113 20.5784 27.686 20.5696 27.66 20.57ZM28.22 20.57C28.1908 20.57 28.1628 20.5816 28.1422 20.6022C28.1216 20.6228 28.11 20.6508 28.11 20.68C28.11 20.75 28.16 20.8 28.21 20.8C28.28 20.8 28.33 20.75 28.33 20.68C28.3275 20.6526 28.3148 20.6271 28.2944 20.6086C28.2741 20.5901 28.2475 20.5799 28.22 20.58V20.57ZM28.78 20.57C28.7653 20.5694 28.7507 20.5718 28.737 20.5769C28.7232 20.5821 28.7107 20.5899 28.7 20.6C28.6899 20.6107 28.6821 20.6232 28.6769 20.637C28.6718 20.6507 28.6694 20.6653 28.67 20.68C28.67 20.75 28.72 20.8 28.78 20.8C28.84 20.8 28.89 20.75 28.89 20.68C28.8877 20.6542 28.8765 20.6301 28.8582 20.6118C28.8399 20.5935 28.8158 20.5823 28.79 20.58L28.78 20.57ZM29.34 20.57C29.3108 20.57 29.2828 20.5816 29.2622 20.6022C29.2416 20.6228 29.23 20.6508 29.23 20.68C29.23 20.75 29.28 20.8 29.34 20.8C29.3649 20.8044 29.3906 20.8001 29.4127 20.7878C29.4348 20.7756 29.452 20.756 29.4614 20.7325C29.4708 20.7091 29.4718 20.6831 29.4642 20.6589C29.4567 20.6348 29.4411 20.614 29.42 20.6C29.4093 20.5899 29.3968 20.5821 29.383 20.5769C29.3693 20.5718 29.3547 20.5694 29.34 20.57ZM29.9 20.57C29.8726 20.5725 29.8471 20.5852 29.8286 20.6056C29.8101 20.6259 29.7999 20.6525 29.8 20.68C29.8 20.75 29.84 20.8 29.9 20.8C29.9249 20.8044 29.9506 20.8001 29.9727 20.7878C29.9948 20.7756 30.012 20.756 30.0214 20.7325C30.0308 20.7091 30.0318 20.6831 30.0242 20.6589C30.0167 20.6348 30.0011 20.614 29.98 20.6C29.9693 20.5899 29.9568 20.5821 29.943 20.5769C29.9293 20.5718 29.9147 20.5694 29.9 20.57ZM30.47 20.57C30.4408 20.57 30.4128 20.5816 30.3922 20.6022C30.3716 20.6228 30.36 20.6508 30.36 20.68C30.36 20.75 30.41 20.8 30.46 20.8C30.4761 20.8015 30.4924 20.7995 30.5077 20.794C30.523 20.7885 30.5368 20.7798 30.5483 20.7683C30.5598 20.7568 30.5685 20.743 30.574 20.7277C30.5795 20.7124 30.5815 20.6961 30.58 20.68C30.5775 20.6526 30.5648 20.6271 30.5444 20.6086C30.5241 20.5901 30.4975 20.5799 30.47 20.58V20.57ZM31.03 20.57C31.0008 20.57 30.9728 20.5816 30.9522 20.6022C30.9316 20.6228 30.92 20.6508 30.92 20.68C30.92 20.75 30.97 20.8 31.02 20.8C31.0361 20.8015 31.0524 20.7995 31.0677 20.794C31.083 20.7885 31.0968 20.7798 31.1083 20.7683C31.1198 20.7568 31.1285 20.743 31.134 20.7277C31.1395 20.7124 31.1415 20.6961 31.14 20.68C31.1375 20.6526 31.1248 20.6271 31.1045 20.6086C31.0841 20.5901 31.0575 20.5799 31.03 20.58V20.57ZM31.59 20.57C31.5608 20.57 31.5328 20.5816 31.5122 20.6022C31.4916 20.6228 31.48 20.6508 31.48 20.68C31.48 20.75 31.53 20.8 31.59 20.8C31.65 20.8 31.7 20.75 31.7 20.68V20.66C31.6956 20.636 31.6835 20.6142 31.6654 20.5979C31.6473 20.5816 31.6243 20.5718 31.6 20.57H31.59ZM32.15 20.57C32.1353 20.5694 32.1207 20.5718 32.107 20.5769C32.0932 20.5821 32.0807 20.5899 32.07 20.6C32.0599 20.6107 32.0521 20.6232 32.0469 20.637C32.0418 20.6507 32.0394 20.6653 32.04 20.68C32.04 20.75 32.09 20.8 32.15 20.8C32.22 20.8 32.26 20.75 32.27 20.68V20.66C32.2651 20.6326 32.25 20.6081 32.2277 20.5914C32.2054 20.5747 32.1777 20.567 32.15 20.57ZM32.72 20.57C32.7047 20.5686 32.6893 20.5704 32.6748 20.5753C32.6603 20.5802 32.647 20.5881 32.6357 20.5985C32.6244 20.6088 32.6154 20.6214 32.6092 20.6355C32.6031 20.6495 32.5999 20.6647 32.6 20.68C32.6 20.75 32.65 20.8 32.72 20.8C32.744 20.8015 32.7678 20.7952 32.7878 20.7819C32.8078 20.7687 32.823 20.7492 32.8309 20.7266C32.8388 20.7039 32.8391 20.6793 32.8317 20.6564C32.8244 20.6335 32.8097 20.6137 32.79 20.6C32.771 20.582 32.7462 20.5713 32.72 20.57ZM33.28 20.57C33.2653 20.5694 33.2507 20.5718 33.237 20.5769C33.2232 20.5821 33.2107 20.5899 33.2 20.6C33.1899 20.6107 33.1821 20.6232 33.1769 20.637C33.1718 20.6507 33.1694 20.6653 33.17 20.68C33.17 20.75 33.22 20.8 33.27 20.8C33.2961 20.8093 33.3247 20.8085 33.3501 20.7977C33.3756 20.7869 33.3961 20.7668 33.4074 20.7416C33.4188 20.7163 33.4202 20.6878 33.4114 20.6615C33.4026 20.6353 33.3843 20.6133 33.36 20.6C33.3493 20.5899 33.3368 20.5821 33.323 20.5769C33.3093 20.5718 33.2947 20.5694 33.28 20.57ZM33.84 20.57C33.8108 20.57 33.7828 20.5816 33.7622 20.6022C33.7416 20.6228 33.73 20.6508 33.73 20.68C33.73 20.75 33.78 20.8 33.84 20.8C33.8649 20.8044 33.8906 20.8001 33.9127 20.7878C33.9348 20.7756 33.952 20.756 33.9614 20.7325C33.9708 20.7091 33.9718 20.6831 33.9642 20.6589C33.9567 20.6348 33.9411 20.614 33.92 20.6C33.9093 20.5899 33.8968 20.5821 33.883 20.5769C33.8693 20.5718 33.8547 20.5694 33.84 20.57ZM34.4 20.57C34.3726 20.5725 34.3471 20.5852 34.3286 20.6056C34.3101 20.6259 34.2999 20.6525 34.3 20.68C34.3 20.75 34.34 20.8 34.4 20.8C34.4249 20.8044 34.4506 20.8001 34.4727 20.7878C34.4948 20.7756 34.512 20.756 34.5214 20.7325C34.5308 20.7091 34.5318 20.6831 34.5242 20.6589C34.5167 20.6348 34.5011 20.614 34.48 20.6C34.4693 20.5899 34.4568 20.5821 34.443 20.5769C34.4293 20.5718 34.4147 20.5694 34.4 20.57ZM17.1 22.12C16.9756 22.1238 16.8532 22.1523 16.7399 22.2038C16.6266 22.2553 16.5247 22.3288 16.44 22.42L14.64 24.27C14.5134 24.405 14.4289 24.574 14.397 24.7563C14.3651 24.9386 14.3872 25.1263 14.4605 25.2962C14.5338 25.4661 14.6551 25.611 14.8096 25.7129C14.964 25.8149 15.1449 25.8695 15.33 25.87C15.4547 25.8701 15.5781 25.8454 15.6931 25.7973C15.8082 25.7492 15.9125 25.6788 16 25.59L17.8 23.73C17.9306 23.5948 18.0182 23.424 18.0517 23.2391C18.0851 23.0541 18.063 22.8634 17.9881 22.6911C17.9131 22.5187 17.7887 22.3725 17.6307 22.2708C17.4726 22.1691 17.2879 22.1167 17.1 22.12ZM20.22 22.12C20.0956 22.1238 19.9732 22.1523 19.8599 22.2038C19.7466 22.2553 19.6447 22.3288 19.56 22.42L17.75 24.27C17.6398 24.381 17.559 24.5177 17.5149 24.6677C17.4709 24.8178 17.465 24.9765 17.4978 25.1294C17.5305 25.2823 17.6009 25.4247 17.7026 25.5435C17.8043 25.6623 17.934 25.7539 18.08 25.81C18.254 25.8804 18.4451 25.897 18.6287 25.8578C18.8123 25.8186 18.9799 25.7253 19.11 25.59L20.91 23.73C21.04 23.5955 21.1273 23.4255 21.1611 23.2415C21.1949 23.0576 21.1736 22.8677 21.0999 22.6958C21.0262 22.5238 20.9034 22.3775 20.7469 22.275C20.5903 22.1726 20.4071 22.1187 20.22 22.12ZM23.33 22.12C23.079 22.1288 22.8417 22.2367 22.67 22.42L20.86 24.27C20.7498 24.381 20.669 24.5177 20.6249 24.6677C20.5809 24.8178 20.575 24.9765 20.6078 25.1294C20.6405 25.2823 20.7109 25.4247 20.8126 25.5435C20.9143 25.6623 21.044 25.7539 21.19 25.81C21.364 25.8804 21.5551 25.897 21.7387 25.8578C21.9223 25.8186 22.0899 25.7253 22.22 25.59L24.02 23.73C24.15 23.5955 24.2373 23.4255 24.2711 23.2415C24.3049 23.0576 24.2836 22.8677 24.2099 22.6958C24.1362 22.5238 24.0134 22.3775 23.8569 22.275C23.7003 22.1726 23.5171 22.1187 23.33 22.12ZM26.45 22.12C26.3239 22.1225 26.1996 22.1504 26.0845 22.2019C25.9694 22.2534 25.8658 22.3276 25.78 22.42L23.98 24.27C23.8534 24.405 23.7689 24.574 23.737 24.7563C23.7051 24.9386 23.7272 25.1263 23.8005 25.2962C23.8738 25.4661 23.9951 25.611 24.1496 25.7129C24.304 25.8149 24.4849 25.8695 24.67 25.87C24.9184 25.8675 25.1556 25.7669 25.33 25.59L27.14 23.73C27.2706 23.5948 27.3582 23.424 27.3917 23.2391C27.4251 23.0541 27.403 22.8634 27.3281 22.6911C27.2531 22.5187 27.1287 22.3725 26.9707 22.2708C26.8126 22.1691 26.6279 22.1167 26.44 22.12H26.45ZM29.55 22.12C29.4256 22.1238 29.3032 22.1523 29.1899 22.2038C29.0766 22.2553 28.9747 22.3288 28.89 22.42L27.09 24.27C26.9634 24.405 26.8789 24.574 26.847 24.7563C26.8151 24.9386 26.8372 25.1263 26.9105 25.2962C26.9838 25.4661 27.1051 25.611 27.2596 25.7129C27.414 25.8149 27.5949 25.8695 27.78 25.87C28.0284 25.8675 28.2656 25.7669 28.44 25.59L30.25 23.73C30.3806 23.5948 30.4682 23.424 30.5017 23.2391C30.5351 23.0541 30.513 22.8634 30.4381 22.6911C30.3631 22.5187 30.2387 22.3725 30.0807 22.2708C29.9226 22.1691 29.7379 22.1167 29.55 22.12ZM32.67 22.12C32.5456 22.1238 32.4232 22.1523 32.3099 22.2038C32.1966 22.2553 32.0947 22.3288 32.01 22.42L30.2 24.27C30.0898 24.381 30.009 24.5177 29.9649 24.6677C29.9209 24.8178 29.915 24.9765 29.9478 25.1294C29.9805 25.2823 30.0509 25.4247 30.1526 25.5435C30.2543 25.6623 30.384 25.7539 30.53 25.81C30.704 25.8804 30.8951 25.897 31.0787 25.8578C31.2623 25.8186 31.4299 25.7253 31.56 25.59L33.36 23.73C33.49 23.5955 33.5773 23.4255 33.6111 23.2415C33.6449 23.0576 33.6236 22.8677 33.5499 22.6958C33.4762 22.5238 33.3534 22.3775 33.1969 22.275C33.0403 22.1726 32.8571 22.1187 32.67 22.12ZM13.6 27.2C13.5708 27.2 13.5428 27.2116 13.5222 27.2322C13.5016 27.2528 13.49 27.2808 13.49 27.31C13.49 27.38 13.54 27.43 13.59 27.43C13.6161 27.4393 13.6447 27.4385 13.6701 27.4277C13.6956 27.4169 13.7161 27.3968 13.7274 27.3716C13.7388 27.3463 13.7402 27.3178 13.7314 27.2915C13.7226 27.2653 13.7043 27.2433 13.68 27.23C13.6693 27.2199 13.6568 27.2121 13.643 27.2069C13.6293 27.2018 13.6147 27.1994 13.6 27.2ZM14.16 27.2C14.1308 27.2 14.1028 27.2116 14.0822 27.2322C14.0616 27.2528 14.05 27.2808 14.05 27.31C14.05 27.38 14.1 27.43 14.16 27.43C14.22 27.43 14.27 27.38 14.27 27.31V27.29C14.2656 27.266 14.2535 27.2442 14.2354 27.2279C14.2173 27.2116 14.1943 27.2018 14.17 27.2H14.16ZM14.72 27.2C14.7053 27.1994 14.6907 27.2018 14.677 27.2069C14.6632 27.2121 14.6507 27.2199 14.64 27.23C14.6299 27.2407 14.6221 27.2532 14.6169 27.267C14.6118 27.2807 14.6094 27.2953 14.61 27.31C14.61 27.38 14.66 27.43 14.73 27.43C14.78 27.43 14.83 27.38 14.83 27.31V27.29C14.8256 27.266 14.8135 27.2442 14.7954 27.2279C14.7773 27.2116 14.7543 27.2018 14.73 27.2H14.72ZM15.29 27.2C15.2747 27.1986 15.2594 27.2004 15.2448 27.2053C15.2303 27.2102 15.217 27.2181 15.2057 27.2285C15.1944 27.2388 15.1854 27.2514 15.1792 27.2655C15.1731 27.2795 15.1699 27.2947 15.17 27.31C15.17 27.38 15.22 27.43 15.29 27.43C15.314 27.4315 15.3378 27.4252 15.3578 27.4119C15.3778 27.3987 15.393 27.3792 15.4009 27.3566C15.4088 27.3339 15.4091 27.3093 15.4017 27.2864C15.3944 27.2635 15.3797 27.2437 15.36 27.23C15.341 27.212 15.3162 27.2013 15.29 27.2ZM15.85 27.2C15.8353 27.1994 15.8207 27.2018 15.807 27.2069C15.7932 27.2121 15.7807 27.2199 15.77 27.23C15.7599 27.2407 15.7521 27.2532 15.7469 27.267C15.7418 27.2807 15.7394 27.2953 15.74 27.31C15.74 27.38 15.79 27.43 15.85 27.43C15.8653 27.4301 15.8805 27.4269 15.8945 27.4208C15.9086 27.4146 15.9212 27.4056 15.9315 27.3943C15.9419 27.383 15.9498 27.3697 15.9547 27.3552C15.9596 27.3406 15.9614 27.3253 15.96 27.31C15.96 27.2808 15.9484 27.2528 15.9278 27.2322C15.9072 27.2116 15.8792 27.2 15.85 27.2ZM16.41 27.2C16.3808 27.2 16.3528 27.2116 16.3322 27.2322C16.3116 27.2528 16.3 27.2808 16.3 27.31C16.3 27.38 16.35 27.43 16.41 27.43C16.4349 27.4344 16.4606 27.4301 16.4827 27.4178C16.5048 27.4056 16.522 27.386 16.5314 27.3625C16.5408 27.3391 16.5418 27.3131 16.5342 27.2889C16.5267 27.2648 16.5111 27.244 16.49 27.23C16.4793 27.2199 16.4668 27.2121 16.453 27.2069C16.4393 27.2018 16.4247 27.1994 16.41 27.2ZM16.97 27.2C16.9426 27.2025 16.9171 27.2152 16.8986 27.2355C16.8801 27.2559 16.8699 27.2825 16.87 27.31C16.87 27.38 16.91 27.43 16.97 27.43C17.0005 27.43 17.0298 27.4179 17.0513 27.3963C17.0729 27.3747 17.085 27.3455 17.085 27.315C17.085 27.2845 17.0729 27.2552 17.0513 27.2337C17.0298 27.2121 17.0005 27.2 16.97 27.2ZM17.54 27.2C17.5183 27.2005 17.4972 27.2074 17.4794 27.2199C17.4616 27.2323 17.4479 27.2498 17.44 27.27L17.42 27.31C17.42 27.38 17.47 27.43 17.53 27.43C17.5549 27.4344 17.5806 27.4301 17.6027 27.4178C17.6248 27.4056 17.642 27.386 17.6514 27.3625C17.6608 27.3391 17.6618 27.3131 17.6542 27.2889C17.6467 27.2648 17.6311 27.244 17.61 27.23C17.591 27.212 17.5662 27.2013 17.54 27.2ZM18.1 27.2C18.0708 27.2 18.0428 27.2116 18.0222 27.2322C18.0016 27.2528 17.99 27.2808 17.99 27.31C17.99 27.38 18.04 27.43 18.09 27.43C18.1205 27.43 18.1498 27.4179 18.1713 27.3963C18.1929 27.3747 18.205 27.3455 18.205 27.315C18.205 27.2845 18.1929 27.2552 18.1713 27.2337C18.1498 27.2121 18.1205 27.2 18.09 27.2H18.1ZM18.66 27.2C18.6383 27.2005 18.6172 27.2074 18.5994 27.2199C18.5816 27.2323 18.5679 27.2498 18.56 27.27L18.55 27.31C18.55 27.38 18.6 27.43 18.66 27.43C18.72 27.43 18.77 27.38 18.77 27.31V27.29C18.7653 27.2644 18.7516 27.2413 18.7315 27.2248C18.7113 27.2084 18.686 27.1996 18.66 27.2ZM19.22 27.2C19.1908 27.2 19.1628 27.2116 19.1422 27.2322C19.1216 27.2528 19.11 27.2808 19.11 27.31C19.11 27.38 19.16 27.43 19.22 27.43C19.28 27.43 19.33 27.38 19.33 27.31C19.3301 27.2825 19.3199 27.2559 19.3014 27.2355C19.2829 27.2152 19.2574 27.2025 19.23 27.2H19.22ZM19.79 27.2C19.7666 27.1984 19.7433 27.2044 19.7235 27.2169C19.7037 27.2295 19.6885 27.2481 19.68 27.27V27.31C19.68 27.38 19.72 27.43 19.78 27.43C19.85 27.43 19.89 27.38 19.9 27.31C19.9 27.2808 19.8884 27.2528 19.8678 27.2322C19.8472 27.2116 19.8192 27.2 19.79 27.2ZM20.35 27.2C20.3347 27.1986 20.3194 27.2004 20.3048 27.2053C20.2903 27.2102 20.277 27.2181 20.2657 27.2285C20.2544 27.2388 20.2454 27.2514 20.2392 27.2655C20.2331 27.2795 20.2299 27.2947 20.23 27.31C20.23 27.38 20.29 27.43 20.35 27.43C20.41 27.43 20.45 27.38 20.45 27.31C20.4501 27.2825 20.4399 27.2559 20.4214 27.2355C20.4029 27.2152 20.3774 27.2025 20.35 27.2ZM20.91 27.2C20.8883 27.2005 20.8672 27.2074 20.8494 27.2199C20.8316 27.2323 20.8179 27.2498 20.81 27.27L20.8 27.31C20.8 27.38 20.85 27.43 20.91 27.43C20.9349 27.4344 20.9606 27.4301 20.9827 27.4178C21.0048 27.4056 21.022 27.386 21.0314 27.3625C21.0408 27.3391 21.0418 27.3131 21.0342 27.2889C21.0267 27.2648 21.0111 27.244 20.99 27.23C20.9793 27.2199 20.9668 27.2121 20.953 27.2069C20.9393 27.2018 20.9247 27.1994 20.91 27.2ZM21.47 27.2C21.4408 27.2 21.4128 27.2116 21.3922 27.2322C21.3716 27.2528 21.36 27.2808 21.36 27.31C21.36 27.38 21.41 27.43 21.47 27.43C21.5005 27.43 21.5298 27.4179 21.5513 27.3963C21.5729 27.3747 21.585 27.3455 21.585 27.315C21.585 27.2845 21.5729 27.2552 21.5513 27.2337C21.5298 27.2121 21.5005 27.2 21.47 27.2ZM22.03 27.2C22.0083 27.2005 21.9872 27.2074 21.9694 27.2199C21.9516 27.2323 21.9379 27.2498 21.93 27.27V27.31C21.93 27.38 21.97 27.43 22.03 27.43C22.0461 27.4315 22.0624 27.4295 22.0777 27.424C22.093 27.4185 22.1068 27.4098 22.1183 27.3983C22.1298 27.3868 22.1385 27.373 22.144 27.3577C22.1495 27.3424 22.1515 27.3261 22.15 27.31C22.1501 27.2947 22.1469 27.2795 22.1408 27.2655C22.1346 27.2514 22.1256 27.2388 22.1143 27.2285C22.103 27.2181 22.0897 27.2102 22.0752 27.2053C22.0607 27.2004 22.0453 27.1986 22.03 27.2ZM22.6 27.2C22.5847 27.1986 22.5694 27.2004 22.5548 27.2053C22.5403 27.2102 22.527 27.2181 22.5157 27.2285C22.5044 27.2388 22.4954 27.2514 22.4892 27.2655C22.4831 27.2795 22.4799 27.2947 22.48 27.31C22.48 27.38 22.53 27.43 22.6 27.43C22.6249 27.4344 22.6506 27.4301 22.6727 27.4178C22.6948 27.4056 22.712 27.386 22.7214 27.3625C22.7308 27.3391 22.7318 27.3131 22.7242 27.2889C22.7167 27.2648 22.7011 27.244 22.68 27.23C22.6693 27.2199 22.6568 27.2121 22.643 27.2069C22.6293 27.2018 22.6147 27.1994 22.6 27.2ZM23.16 27.2C23.1383 27.2005 23.1172 27.2074 23.0994 27.2199C23.0816 27.2323 23.0679 27.2498 23.06 27.27L23.05 27.31C23.05 27.38 23.1 27.43 23.15 27.43C23.22 27.43 23.27 27.38 23.27 27.31V27.29C23.2653 27.2644 23.2516 27.2413 23.2315 27.2248C23.2113 27.2084 23.186 27.1996 23.16 27.2ZM23.72 27.2C23.6908 27.2 23.6628 27.2116 23.6422 27.2322C23.6216 27.2528 23.61 27.2808 23.61 27.31C23.61 27.38 23.66 27.43 23.72 27.43C23.78 27.43 23.83 27.38 23.83 27.31V27.29C23.8256 27.266 23.8135 27.2442 23.7954 27.2279C23.7773 27.2116 23.7543 27.2018 23.73 27.2H23.72ZM24.28 27.2C24.2508 27.2 24.2228 27.2116 24.2022 27.2322C24.1816 27.2528 24.17 27.2808 24.17 27.31C24.17 27.38 24.22 27.43 24.28 27.43C24.3049 27.4344 24.3306 27.4301 24.3527 27.4178C24.3748 27.4056 24.392 27.386 24.4014 27.3625C24.4108 27.3391 24.4118 27.3131 24.4042 27.2889C24.3967 27.2648 24.3811 27.244 24.36 27.23C24.3493 27.2199 24.3368 27.2121 24.323 27.2069C24.3093 27.2018 24.2947 27.1994 24.28 27.2ZM24.85 27.2C24.8347 27.1986 24.8194 27.2004 24.8048 27.2053C24.7903 27.2102 24.777 27.2181 24.7657 27.2285C24.7544 27.2388 24.7454 27.2514 24.7392 27.2655C24.7331 27.2795 24.7299 27.2947 24.73 27.31C24.73 27.38 24.78 27.43 24.85 27.43C24.8645 27.4287 24.8785 27.4246 24.8914 27.4179C24.9043 27.4112 24.9157 27.402 24.925 27.3908C24.9343 27.3797 24.9413 27.3668 24.9456 27.3529C24.9499 27.339 24.9514 27.3245 24.95 27.31C24.9501 27.2825 24.9399 27.2559 24.9214 27.2355C24.9029 27.2152 24.8774 27.2025 24.85 27.2ZM25.41 27.2C25.3883 27.2005 25.3672 27.2074 25.3494 27.2199C25.3316 27.2323 25.3179 27.2498 25.31 27.27C25.3 27.28 25.29 27.3 25.3 27.31C25.3 27.38 25.34 27.43 25.4 27.43C25.4249 27.4344 25.4506 27.4301 25.4727 27.4178C25.4948 27.4056 25.512 27.386 25.5214 27.3625C25.5308 27.3391 25.5318 27.3131 25.5242 27.2889C25.5167 27.2648 25.5011 27.244 25.48 27.23C25.461 27.212 25.4362 27.2013 25.41 27.2ZM25.97 27.2C25.9408 27.2 25.9128 27.2116 25.8922 27.2322C25.8716 27.2528 25.86 27.2808 25.86 27.31C25.86 27.38 25.91 27.43 25.96 27.43C25.9861 27.4393 26.0147 27.4385 26.0401 27.4277C26.0656 27.4169 26.0861 27.3968 26.0974 27.3716C26.1088 27.3463 26.1102 27.3178 26.1014 27.2915C26.0926 27.2653 26.0743 27.2433 26.05 27.23C26.0393 27.2199 26.0268 27.2121 26.013 27.2069C25.9993 27.2018 25.9847 27.1994 25.97 27.2ZM26.53 27.2C26.5083 27.2005 26.4872 27.2074 26.4694 27.2199C26.4516 27.2323 26.4379 27.2498 26.43 27.27L26.42 27.31C26.42 27.38 26.47 27.43 26.53 27.43C26.5549 27.4344 26.5806 27.4301 26.6027 27.4178C26.6248 27.4056 26.642 27.386 26.6514 27.3625C26.6608 27.3391 26.6618 27.3131 26.6542 27.2889C26.6467 27.2648 26.6311 27.244 26.61 27.23C26.5993 27.2199 26.5868 27.2121 26.573 27.2069C26.5593 27.2018 26.5447 27.1994 26.53 27.2ZM27.09 27.2C27.0626 27.2025 27.0371 27.2152 27.0186 27.2355C27.0001 27.2559 26.9899 27.2825 26.99 27.31C26.99 27.38 27.03 27.43 27.09 27.43C27.1149 27.4344 27.1406 27.4301 27.1627 27.4178C27.1848 27.4056 27.202 27.386 27.2114 27.3625C27.2208 27.3391 27.2218 27.3131 27.2142 27.2889C27.2067 27.2648 27.1911 27.244 27.17 27.23C27.1593 27.2199 27.1468 27.2121 27.133 27.2069C27.1193 27.2018 27.1047 27.1994 27.09 27.2ZM27.66 27.2C27.6383 27.2005 27.6172 27.2074 27.5994 27.2199C27.5816 27.2323 27.5679 27.2498 27.56 27.27C27.55 27.28 27.54 27.3 27.55 27.31C27.55 27.38 27.59 27.43 27.65 27.43C27.72 27.43 27.77 27.38 27.77 27.31V27.29C27.7653 27.2644 27.7516 27.2413 27.7315 27.2248C27.7113 27.2084 27.686 27.1996 27.66 27.2ZM28.22 27.2C28.1908 27.2 28.1628 27.2116 28.1422 27.2322C28.1216 27.2528 28.11 27.2808 28.11 27.31C28.11 27.38 28.16 27.43 28.21 27.43C28.28 27.43 28.33 27.38 28.33 27.31C28.33 27.2808 28.3184 27.2528 28.2978 27.2322C28.2772 27.2116 28.2492 27.2 28.22 27.2ZM28.78 27.2C28.7583 27.2005 28.7372 27.2074 28.7194 27.2199C28.7016 27.2323 28.6879 27.2498 28.68 27.27L28.67 27.31C28.67 27.38 28.72 27.43 28.78 27.43C28.84 27.43 28.89 27.38 28.89 27.31C28.8901 27.2825 28.8799 27.2559 28.8614 27.2355C28.8429 27.2152 28.8174 27.2025 28.79 27.2H28.78ZM29.34 27.2C29.3108 27.2 29.2828 27.2116 29.2622 27.2322C29.2416 27.2528 29.23 27.2808 29.23 27.31C29.23 27.38 29.28 27.43 29.34 27.43C29.3649 27.4344 29.3906 27.4301 29.4127 27.4178C29.4348 27.4056 29.452 27.386 29.4614 27.3625C29.4708 27.3391 29.4718 27.3131 29.4642 27.2889C29.4567 27.2648 29.4411 27.244 29.42 27.23C29.4093 27.2199 29.3968 27.2121 29.383 27.2069C29.3693 27.2018 29.3547 27.1994 29.34 27.2ZM29.9 27.2C29.8783 27.2005 29.8572 27.2074 29.8394 27.2199C29.8216 27.2323 29.8079 27.2498 29.8 27.27V27.31C29.8 27.38 29.84 27.43 29.9 27.43C29.9249 27.4344 29.9506 27.4301 29.9727 27.4178C29.9948 27.4056 30.012 27.386 30.0214 27.3625C30.0308 27.3391 30.0318 27.3131 30.0242 27.2889C30.0167 27.2648 30.0011 27.244 29.98 27.23C29.9693 27.2199 29.9568 27.2121 29.943 27.2069C29.9293 27.2018 29.9147 27.1994 29.9 27.2ZM30.47 27.2C30.4408 27.2 30.4128 27.2116 30.3922 27.2322C30.3716 27.2528 30.36 27.2808 30.36 27.31C30.36 27.38 30.41 27.43 30.46 27.43C30.4761 27.4315 30.4924 27.4295 30.5077 27.424C30.523 27.4185 30.5368 27.4098 30.5483 27.3983C30.5598 27.3868 30.5685 27.373 30.574 27.3577C30.5795 27.3424 30.5815 27.3261 30.58 27.31C30.58 27.2808 30.5684 27.2528 30.5478 27.2322C30.5272 27.2116 30.4992 27.2 30.47 27.2ZM31.03 27.2C31.0083 27.2005 30.9872 27.2074 30.9694 27.2199C30.9516 27.2323 30.9379 27.2498 30.93 27.27L30.92 27.31C30.92 27.38 30.97 27.43 31.02 27.43C31.0361 27.4315 31.0524 27.4295 31.0677 27.424C31.083 27.4185 31.0968 27.4098 31.1083 27.3983C31.1198 27.3868 31.1285 27.373 31.134 27.3577C31.1395 27.3424 31.1415 27.3261 31.14 27.31C31.14 27.2808 31.1284 27.2528 31.1078 27.2322C31.0872 27.2116 31.0592 27.2 31.03 27.2ZM31.59 27.2C31.5608 27.2 31.5328 27.2116 31.5122 27.2322C31.4916 27.2528 31.48 27.2808 31.48 27.31C31.48 27.38 31.53 27.43 31.59 27.43C31.65 27.43 31.7 27.38 31.7 27.31V27.29C31.6956 27.266 31.6835 27.2442 31.6654 27.2279C31.6473 27.2116 31.6243 27.2018 31.6 27.2H31.59ZM32.15 27.2C32.1283 27.2005 32.1072 27.2074 32.0894 27.2199C32.0716 27.2323 32.0579 27.2498 32.05 27.27V27.31C32.05 27.38 32.09 27.43 32.15 27.43C32.22 27.43 32.26 27.38 32.27 27.31V27.29C32.2651 27.2626 32.25 27.2381 32.2277 27.2214C32.2054 27.2047 32.1777 27.197 32.15 27.2ZM32.72 27.2C32.7047 27.1986 32.6893 27.2004 32.6748 27.2053C32.6603 27.2102 32.647 27.2181 32.6357 27.2285C32.6244 27.2388 32.6154 27.2514 32.6092 27.2655C32.6031 27.2795 32.5999 27.2947 32.6 27.31C32.6 27.38 32.65 27.43 32.72 27.43C32.744 27.4315 32.7678 27.4252 32.7878 27.4119C32.8078 27.3987 32.823 27.3792 32.8309 27.3566C32.8388 27.3339 32.8391 27.3093 32.8317 27.2864C32.8244 27.2635 32.8097 27.2437 32.79 27.23C32.771 27.212 32.7462 27.2013 32.72 27.2ZM33.28 27.2C33.2583 27.2005 33.2372 27.2074 33.2194 27.2199C33.2016 27.2323 33.1879 27.2498 33.18 27.27L33.17 27.31C33.17 27.38 33.22 27.43 33.27 27.43C33.2961 27.4393 33.3247 27.4385 33.3501 27.4277C33.3756 27.4169 33.3961 27.3968 33.4074 27.3716C33.4188 27.3463 33.4202 27.3178 33.4114 27.2915C33.4026 27.2653 33.3843 27.2433 33.36 27.23C33.3493 27.2199 33.3368 27.2121 33.323 27.2069C33.3093 27.2018 33.2947 27.1994 33.28 27.2ZM33.84 27.2C33.8108 27.2 33.7828 27.2116 33.7622 27.2322C33.7416 27.2528 33.73 27.2808 33.73 27.31C33.73 27.38 33.78 27.43 33.84 27.43C33.8649 27.4344 33.8906 27.4301 33.9127 27.4178C33.9348 27.4056 33.952 27.386 33.9614 27.3625C33.9708 27.3391 33.9718 27.3131 33.9642 27.2889C33.9567 27.2648 33.9411 27.244 33.92 27.23C33.9093 27.2199 33.8968 27.2121 33.883 27.2069C33.8693 27.2018 33.8547 27.1994 33.84 27.2ZM34.4 27.2C34.3783 27.2005 34.3572 27.2074 34.3394 27.2199C34.3216 27.2323 34.3079 27.2498 34.3 27.27V27.31C34.3 27.38 34.34 27.43 34.4 27.43C34.4249 27.4344 34.4506 27.4301 34.4727 27.4178C34.4948 27.4056 34.512 27.386 34.5214 27.3625C34.5308 27.3391 34.5318 27.3131 34.5242 27.2889C34.5167 27.2648 34.5011 27.244 34.48 27.23C34.4693 27.2199 34.4568 27.2121 34.443 27.2069C34.4293 27.2018 34.4147 27.1994 34.4 27.2ZM18.67 28.62C18.5439 28.6225 18.4196 28.6504 18.3045 28.7019C18.1894 28.7534 18.0858 28.8276 18 28.92L16.2 30.77C16.0895 30.8803 16.0083 31.0163 15.9635 31.1658C15.9188 31.3154 15.912 31.4737 15.9438 31.6265C15.9755 31.7793 16.0448 31.9218 16.1454 32.0411C16.246 32.1605 16.3748 32.2529 16.52 32.31C16.694 32.3804 16.8851 32.397 17.0687 32.3578C17.2523 32.3186 17.4199 32.2253 17.55 32.09L19.36 30.23C19.4906 30.0948 19.5782 29.924 19.6117 29.7391C19.6451 29.5541 19.623 29.3634 19.5481 29.1911C19.4731 29.0187 19.3487 28.8725 19.1907 28.7708C19.0326 28.6691 18.8479 28.6167 18.66 28.62H18.67ZM21.77 28.62C21.6456 28.6238 21.5232 28.6523 21.4099 28.7038C21.2966 28.7553 21.1947 28.8288 21.11 28.92L19.31 30.77C19.1834 30.905 19.0989 31.074 19.067 31.2563C19.0351 31.4386 19.0572 31.6263 19.1305 31.7962C19.2038 31.9661 19.3251 32.111 19.4796 32.2129C19.634 32.3149 19.8149 32.3695 20 32.37C20.1247 32.3701 20.2481 32.3454 20.3631 32.2973C20.4782 32.2492 20.5825 32.1788 20.67 32.09L22.47 30.23C22.6006 30.0948 22.6882 29.924 22.7217 29.7391C22.7551 29.5541 22.733 29.3634 22.6581 29.1911C22.5831 29.0187 22.4587 28.8725 22.3007 28.7708C22.1426 28.6691 21.9579 28.6167 21.77 28.62ZM24.89 28.62C24.7639 28.6225 24.6396 28.6504 24.5245 28.7019C24.4094 28.7534 24.3058 28.8276 24.22 28.92L22.42 30.77C22.2928 30.9056 22.2081 31.0755 22.1766 31.2588C22.145 31.442 22.1679 31.6305 22.2424 31.8008C22.317 31.9711 22.4398 32.1159 22.5958 32.2171C22.7518 32.3182 22.9341 32.3714 23.12 32.37C23.3684 32.3675 23.6056 32.2669 23.78 32.09L25.58 30.23C25.71 30.0955 25.7973 29.9255 25.8311 29.7415C25.8649 29.5576 25.8436 29.3677 25.7699 29.1958C25.6962 29.0238 25.5734 28.8775 25.4169 28.775C25.2603 28.6726 25.0771 28.6187 24.89 28.62ZM28 28.62C27.8756 28.6238 27.7532 28.6523 27.6399 28.7038C27.5266 28.7553 27.4247 28.8288 27.34 28.92L25.53 30.77C25.4198 30.881 25.339 31.0177 25.2949 31.1677C25.2509 31.3178 25.245 31.4765 25.2778 31.6294C25.3105 31.7823 25.3809 31.9247 25.4826 32.0435C25.5843 32.1623 25.714 32.2539 25.86 32.31C26.034 32.3804 26.2251 32.397 26.4087 32.3578C26.5923 32.3186 26.7599 32.2253 26.89 32.09L28.69 30.23C28.82 30.0955 28.9073 29.9255 28.9411 29.7415C28.9749 29.5576 28.9536 29.3677 28.8799 29.1958C28.8062 29.0238 28.6834 28.8775 28.5269 28.775C28.3703 28.6726 28.1871 28.6187 28 28.62ZM31.11 28.62C30.9856 28.6238 30.8632 28.6523 30.7499 28.7038C30.6366 28.7553 30.5347 28.8288 30.45 28.92L28.65 30.77C28.5234 30.905 28.4389 31.074 28.407 31.2563C28.3751 31.4386 28.3972 31.6263 28.4705 31.7962C28.5438 31.9661 28.6651 32.111 28.8196 32.2129C28.974 32.3149 29.1549 32.3695 29.34 32.37C29.5884 32.3675 29.8256 32.2669 30 32.09L31.81 30.23C31.9406 30.0948 32.0282 29.924 32.0617 29.7391C32.0951 29.5541 32.073 29.3634 31.9981 29.1911C31.9231 29.0187 31.7987 28.8725 31.6407 28.7708C31.4826 28.6691 31.2979 28.6167 31.11 28.62ZM13.6 33.82C13.5847 33.8199 13.5695 33.8231 13.5555 33.8292C13.5414 33.8354 13.5288 33.8444 13.5185 33.8557C13.5081 33.867 13.5002 33.8803 13.4953 33.8948C13.4904 33.9094 13.4886 33.9247 13.49 33.94C13.49 34 13.54 34.06 13.59 34.06C13.6161 34.0693 13.6447 34.0685 13.6701 34.0577C13.6956 34.0469 13.7161 34.0268 13.7274 34.0016C13.7388 33.9763 13.7402 33.9478 13.7314 33.9215C13.7226 33.8953 13.7043 33.8733 13.68 33.86C13.6693 33.8499 13.6568 33.8421 13.643 33.8369C13.6293 33.8318 13.6147 33.8294 13.6 33.83V33.82ZM14.16 33.82C14.1447 33.8199 14.1295 33.8231 14.1155 33.8292C14.1014 33.8354 14.0888 33.8444 14.0785 33.8557C14.0681 33.867 14.0602 33.8803 14.0553 33.8948C14.0504 33.9094 14.0486 33.9247 14.05 33.94C14.05 34 14.1 34.06 14.16 34.06C14.22 34.06 14.27 34 14.27 33.94V33.92C14.2677 33.8942 14.2565 33.8701 14.2382 33.8518C14.2199 33.8335 14.1958 33.8223 14.17 33.82H14.16ZM14.72 33.82C14.7046 33.8207 14.6895 33.8246 14.6758 33.8315C14.662 33.8384 14.6498 33.8481 14.64 33.86C14.6189 33.874 14.6033 33.8948 14.5958 33.9189C14.5882 33.9431 14.5892 33.9691 14.5986 33.9925C14.608 34.016 14.6252 34.0356 14.6473 34.0478C14.6694 34.0601 14.6951 34.0644 14.72 34.06C14.78 34.06 14.84 34 14.84 33.94V33.92C14.8387 33.9055 14.8346 33.8915 14.8279 33.8786C14.8212 33.8657 14.812 33.8543 14.8008 33.845C14.7897 33.8357 14.7768 33.8287 14.7629 33.8244C14.749 33.8201 14.7345 33.8186 14.72 33.82ZM15.29 33.82C15.2739 33.8185 15.2576 33.8205 15.2423 33.826C15.227 33.8315 15.2132 33.8402 15.2017 33.8517C15.1902 33.8632 15.1815 33.877 15.176 33.8923C15.1705 33.9076 15.1685 33.9239 15.17 33.94C15.17 34 15.22 34.06 15.29 34.06C15.3054 34.0589 15.3205 34.0545 15.3341 34.0471C15.3477 34.0398 15.3596 34.0296 15.3691 34.0174C15.3785 34.0051 15.3853 33.991 15.3889 33.9759C15.3925 33.9609 15.3929 33.9452 15.39 33.93C15.3877 33.9042 15.3765 33.8801 15.3582 33.8618C15.3399 33.8435 15.3158 33.8323 15.29 33.83V33.82ZM15.85 33.82C15.8346 33.8207 15.8195 33.8246 15.8058 33.8315C15.792 33.8384 15.7798 33.8481 15.77 33.86C15.7489 33.874 15.7333 33.8948 15.7258 33.9189C15.7182 33.9431 15.7192 33.9691 15.7286 33.9925C15.738 34.016 15.7552 34.0356 15.7773 34.0478C15.7994 34.0601 15.8251 34.0644 15.85 34.06C15.8725 34.0575 15.8939 34.0486 15.9116 34.0345C15.9293 34.0203 15.9426 34.0014 15.95 33.98C15.9564 33.9635 15.9588 33.9457 15.9569 33.9281C15.955 33.9105 15.9489 33.8937 15.9391 33.879C15.9293 33.8642 15.916 33.8521 15.9005 33.8436C15.885 33.8351 15.8677 33.8304 15.85 33.83V33.82ZM16.41 33.82C16.3947 33.8199 16.3795 33.8231 16.3655 33.8292C16.3514 33.8354 16.3388 33.8444 16.3285 33.8557C16.3181 33.867 16.3102 33.8803 16.3053 33.8948C16.3004 33.9094 16.2986 33.9247 16.3 33.94C16.3 34 16.35 34.06 16.41 34.06C16.4263 34.0603 16.4424 34.0569 16.4573 34.0502C16.4721 34.0435 16.4853 34.0335 16.4958 34.0211C16.5063 34.0086 16.514 33.994 16.5181 33.9783C16.5223 33.9625 16.523 33.946 16.52 33.93C16.5177 33.9042 16.5065 33.8801 16.4882 33.8618C16.4699 33.8435 16.4458 33.8323 16.42 33.83L16.41 33.82ZM16.97 33.82C16.9555 33.8213 16.9415 33.8254 16.9286 33.8321C16.9157 33.8388 16.9043 33.848 16.895 33.8592C16.8857 33.8703 16.8787 33.8832 16.8744 33.8971C16.8701 33.911 16.8686 33.9255 16.87 33.94C16.87 34 16.91 34.06 16.97 34.06C16.987 34.0601 17.0038 34.0566 17.0193 34.0497C17.0348 34.0428 17.0487 34.0327 17.06 34.02C17.0714 34.0082 17.08 33.994 17.0852 33.9784C17.0904 33.9628 17.092 33.9463 17.09 33.93C17.0887 33.9155 17.0846 33.9015 17.0779 33.8886C17.0712 33.8757 17.062 33.8643 17.0508 33.855C17.0397 33.8457 17.0268 33.8387 17.0129 33.8344C16.999 33.8301 16.9845 33.8286 16.97 33.83V33.82ZM17.54 33.82C17.5171 33.8212 17.4951 33.8296 17.4772 33.8439C17.4592 33.8583 17.4462 33.8779 17.44 33.9L17.42 33.94C17.42 34 17.47 34.06 17.53 34.06C17.5547 34.0609 17.5789 34.0535 17.5988 34.039C17.6188 34.0245 17.6333 34.0037 17.64 33.98C17.6476 33.9593 17.6488 33.9368 17.6435 33.9154C17.6381 33.894 17.6265 33.8747 17.61 33.86C17.591 33.842 17.5662 33.8313 17.54 33.83V33.82ZM18.1 33.82C18.0847 33.8199 18.0695 33.8231 18.0555 33.8292C18.0414 33.8354 18.0288 33.8444 18.0185 33.8557C18.0081 33.867 18.0002 33.8803 17.9953 33.8948C17.9904 33.9094 17.9886 33.9247 17.99 33.94C17.99 34 18.04 34.06 18.09 34.06C18.1086 34.0616 18.1274 34.0588 18.1447 34.0518C18.1621 34.0449 18.1776 34.034 18.19 34.02C18.1996 34.0073 18.2064 33.9927 18.2099 33.9772C18.2133 33.9617 18.2134 33.9456 18.21 33.93C18.2075 33.9026 18.1948 33.8771 18.1744 33.8586C18.1541 33.8401 18.1275 33.8299 18.1 33.83V33.82ZM18.66 33.82C18.6371 33.8212 18.6151 33.8296 18.5972 33.8439C18.5792 33.8583 18.5662 33.8779 18.56 33.9L18.55 33.94C18.55 34 18.6 34.06 18.66 34.06C18.72 34.06 18.77 34 18.77 33.94V33.92C18.7675 33.8926 18.7548 33.8671 18.7344 33.8486C18.7141 33.8301 18.6875 33.8199 18.66 33.82ZM19.22 33.82C19.2047 33.8199 19.1895 33.8231 19.1755 33.8292C19.1614 33.8354 19.1488 33.8444 19.1385 33.8557C19.1281 33.867 19.1202 33.8803 19.1153 33.8948C19.1104 33.9094 19.1086 33.9247 19.11 33.94C19.11 34 19.16 34.06 19.22 34.06C19.28 34.06 19.33 34 19.33 33.94C19.3301 33.9125 19.3199 33.8859 19.3014 33.8656C19.2829 33.8452 19.2574 33.8325 19.23 33.83L19.22 33.82ZM19.79 33.82C19.7654 33.8191 19.7411 33.8265 19.7212 33.841C19.7012 33.8555 19.6867 33.8763 19.68 33.9V33.94C19.68 34 19.72 34.06 19.78 34.06C19.7971 34.0619 19.8144 34.0597 19.8305 34.0537C19.8466 34.0476 19.8611 34.0379 19.8728 34.0253C19.8845 34.0126 19.893 33.9974 19.8977 33.9809C19.9025 33.9643 19.9032 33.9469 19.9 33.93C19.8975 33.9026 19.8848 33.8771 19.8644 33.8586C19.8441 33.8401 19.8175 33.8299 19.79 33.83V33.82ZM20.35 33.82C20.3339 33.8185 20.3176 33.8205 20.3023 33.826C20.287 33.8315 20.2732 33.8402 20.2617 33.8517C20.2502 33.8632 20.2415 33.877 20.236 33.8923C20.2305 33.9076 20.2285 33.9239 20.23 33.94C20.23 34 20.29 34.06 20.35 34.06C20.41 34.06 20.45 34 20.45 33.94C20.4501 33.9125 20.4399 33.8859 20.4214 33.8656C20.4029 33.8452 20.3774 33.8325 20.35 33.83V33.82ZM20.91 33.82C20.8871 33.8212 20.8651 33.8296 20.8472 33.8439C20.8292 33.8583 20.8162 33.8779 20.81 33.9L20.8 33.94C20.8 34 20.85 34.06 20.91 34.06C20.9263 34.0603 20.9424 34.0569 20.9573 34.0502C20.9721 34.0435 20.9853 34.0335 20.9958 34.0211C21.0063 34.0086 21.014 33.994 21.0181 33.9783C21.0223 33.9625 21.023 33.946 21.02 33.93C21.0175 33.9026 21.0048 33.8771 20.9844 33.8586C20.9641 33.8401 20.9375 33.8299 20.91 33.83V33.82ZM21.47 33.82C21.4547 33.8199 21.4395 33.8231 21.4255 33.8292C21.4114 33.8354 21.3988 33.8444 21.3885 33.8557C21.3781 33.867 21.3702 33.8803 21.3653 33.8948C21.3604 33.9094 21.3586 33.9247 21.36 33.94C21.36 34 21.41 34.06 21.47 34.06C21.5008 34.0575 21.5295 34.0431 21.55 34.02C21.5614 34.0082 21.57 33.994 21.5752 33.9784C21.5804 33.9628 21.582 33.9463 21.58 33.93C21.5777 33.9042 21.5665 33.8801 21.5482 33.8618C21.5299 33.8435 21.5058 33.8323 21.48 33.83H21.47V33.82ZM22.03 33.82C22.0071 33.8212 21.9851 33.8296 21.9672 33.8439C21.9492 33.8583 21.9362 33.8779 21.93 33.9V33.94C21.93 34 21.97 34.06 22.03 34.06C22.0547 34.0609 22.0789 34.0535 22.0988 34.039C22.1188 34.0245 22.1333 34.0037 22.14 33.98C22.1476 33.9593 22.1488 33.9368 22.1435 33.9154C22.1381 33.894 22.1265 33.8747 22.11 33.86C22.0993 33.8499 22.0868 33.8421 22.073 33.8369C22.0593 33.8318 22.0447 33.8294 22.03 33.83V33.82ZM22.6 33.82C22.5839 33.8185 22.5676 33.8205 22.5523 33.826C22.537 33.8315 22.5232 33.8402 22.5117 33.8517C22.5002 33.8632 22.4915 33.877 22.486 33.8923C22.4805 33.9076 22.4785 33.9239 22.48 33.94C22.48 34 22.53 34.06 22.6 34.06C22.6249 34.0644 22.6506 34.0601 22.6727 34.0478C22.6948 34.0356 22.712 34.016 22.7214 33.9925C22.7308 33.9691 22.7318 33.9431 22.7242 33.9189C22.7167 33.8948 22.7011 33.874 22.68 33.86C22.6693 33.8499 22.6568 33.8421 22.643 33.8369C22.6293 33.8318 22.6147 33.8294 22.6 33.83V33.82ZM23.16 33.82C23.1371 33.8212 23.1151 33.8296 23.0972 33.8439C23.0792 33.8583 23.0662 33.8779 23.06 33.9L23.05 33.94C23.05 34 23.1 34.06 23.15 34.06C23.22 34.06 23.27 34 23.27 33.94V33.92C23.2675 33.8926 23.2548 33.8671 23.2344 33.8486C23.2141 33.8301 23.1875 33.8199 23.16 33.82ZM23.72 33.82C23.7047 33.8199 23.6895 33.8231 23.6755 33.8292C23.6614 33.8354 23.6488 33.8444 23.6385 33.8557C23.6281 33.867 23.6202 33.8803 23.6153 33.8948C23.6104 33.9094 23.6086 33.9247 23.61 33.94C23.61 34 23.66 34.06 23.72 34.06C23.78 34.06 23.83 34 23.83 33.94V33.92C23.8277 33.8942 23.8165 33.8701 23.7982 33.8518C23.7799 33.8335 23.7558 33.8223 23.73 33.82H23.72ZM24.28 33.82C24.2647 33.8199 24.2495 33.8231 24.2355 33.8292C24.2214 33.8354 24.2088 33.8444 24.1985 33.8557C24.1881 33.867 24.1802 33.8803 24.1753 33.8948C24.1704 33.9094 24.1686 33.9247 24.17 33.94C24.17 34 24.22 34.06 24.28 34.06C24.2963 34.0603 24.3124 34.0569 24.3273 34.0502C24.3421 34.0435 24.3553 34.0335 24.3658 34.0211C24.3763 34.0086 24.384 33.994 24.3881 33.9783C24.3923 33.9625 24.393 33.946 24.39 33.93C24.3877 33.9042 24.3765 33.8801 24.3582 33.8618C24.3399 33.8435 24.3158 33.8323 24.29 33.83L24.28 33.82ZM24.85 33.82C24.8339 33.8185 24.8176 33.8205 24.8023 33.826C24.787 33.8315 24.7732 33.8402 24.7617 33.8517C24.7502 33.8632 24.7415 33.877 24.736 33.8923C24.7305 33.9076 24.7285 33.9239 24.73 33.94C24.73 34 24.78 34.06 24.85 34.06C24.8725 34.0575 24.8939 34.0486 24.9116 34.0345C24.9293 34.0203 24.9426 34.0014 24.95 33.98C24.9564 33.9635 24.9588 33.9457 24.9569 33.9281C24.955 33.9105 24.9489 33.8937 24.9391 33.879C24.9293 33.8642 24.916 33.8521 24.9005 33.8436C24.885 33.8351 24.8677 33.8304 24.85 33.83V33.82ZM25.41 33.82C25.3871 33.8212 25.3651 33.8296 25.3472 33.8439C25.3292 33.8583 25.3162 33.8779 25.31 33.9C25.3 33.91 25.29 33.93 25.3 33.94C25.3 34 25.34 34.06 25.4 34.06C25.4246 34.0609 25.4489 34.0535 25.4688 34.039C25.4888 34.0245 25.5033 34.0037 25.51 33.98C25.5176 33.9593 25.5188 33.9368 25.5135 33.9154C25.5081 33.894 25.4965 33.8747 25.48 33.86C25.461 33.842 25.4362 33.8313 25.41 33.83V33.82ZM25.97 33.82C25.9547 33.8199 25.9395 33.8231 25.9255 33.8292C25.9114 33.8354 25.8988 33.8444 25.8885 33.8557C25.8781 33.867 25.8702 33.8803 25.8653 33.8948C25.8604 33.9094 25.8586 33.9247 25.86 33.94C25.86 34 25.91 34.06 25.96 34.06C25.9863 34.0634 26.0129 34.0571 26.0349 34.0424C26.057 34.0277 26.073 34.0056 26.08 33.98C26.0876 33.9593 26.0888 33.9368 26.0835 33.9154C26.0781 33.894 26.0665 33.8747 26.05 33.86C26.0393 33.8499 26.0268 33.8421 26.013 33.8369C25.9993 33.8318 25.9847 33.8294 25.97 33.83V33.82ZM26.53 33.82C26.5071 33.8212 26.4851 33.8296 26.4672 33.8439C26.4492 33.8583 26.4362 33.8779 26.43 33.9L26.42 33.94C26.42 34 26.47 34.06 26.53 34.06C26.5529 34.0588 26.5749 34.0504 26.5928 34.0361C26.6108 34.0217 26.6238 34.0021 26.63 33.98C26.6388 33.9602 26.6417 33.9383 26.6381 33.917C26.6345 33.8956 26.6248 33.8758 26.61 33.86C26.5993 33.8499 26.5868 33.8421 26.573 33.8369C26.5593 33.8318 26.5447 33.8294 26.53 33.83V33.82ZM27.09 33.82C27.0755 33.8213 27.0615 33.8254 27.0486 33.8321C27.0357 33.8388 27.0243 33.848 27.015 33.8592C27.0057 33.8703 26.9987 33.8832 26.9944 33.8971C26.9901 33.911 26.9886 33.9255 26.99 33.94C26.99 34 27.03 34.06 27.09 34.06C27.1149 34.0644 27.1406 34.0601 27.1627 34.0478C27.1848 34.0356 27.202 34.016 27.2114 33.9925C27.2208 33.9691 27.2218 33.9431 27.2142 33.9189C27.2067 33.8948 27.1911 33.874 27.17 33.86C27.1593 33.8499 27.1468 33.8421 27.133 33.8369C27.1193 33.8318 27.1047 33.8294 27.09 33.83V33.82ZM27.66 33.82C27.6371 33.8212 27.6151 33.8296 27.5972 33.8439C27.5792 33.8583 27.5662 33.8779 27.56 33.9C27.55 33.91 27.54 33.93 27.55 33.94C27.55 34 27.59 34.06 27.65 34.06C27.72 34.06 27.77 34 27.77 33.94V33.92C27.7675 33.8926 27.7548 33.8671 27.7344 33.8486C27.7141 33.8301 27.6875 33.8199 27.66 33.82ZM28.22 33.82C28.2047 33.8199 28.1895 33.8231 28.1755 33.8292C28.1614 33.8354 28.1488 33.8444 28.1385 33.8557C28.1281 33.867 28.1202 33.8803 28.1153 33.8948C28.1104 33.9094 28.1086 33.9247 28.11 33.94C28.11 34 28.16 34.06 28.21 34.06C28.28 34.06 28.33 34 28.33 33.94C28.33 33.9108 28.3184 33.8828 28.2978 33.8622C28.2772 33.8416 28.2492 33.83 28.22 33.83V33.82ZM28.78 33.82C28.7571 33.8212 28.7351 33.8296 28.7172 33.8439C28.6992 33.8583 28.6862 33.8779 28.68 33.9L28.67 33.94C28.67 34 28.72 34.06 28.78 34.06C28.84 34.06 28.89 34 28.89 33.94C28.8901 33.9125 28.8799 33.8859 28.8614 33.8656C28.8429 33.8452 28.8174 33.8325 28.79 33.83L28.78 33.82ZM29.34 33.82C29.3247 33.8199 29.3095 33.8231 29.2955 33.8292C29.2814 33.8354 29.2688 33.8444 29.2585 33.8557C29.2481 33.867 29.2402 33.8803 29.2353 33.8948C29.2304 33.9094 29.2286 33.9247 29.23 33.94C29.23 34 29.28 34.06 29.34 34.06C29.3563 34.0603 29.3724 34.0569 29.3873 34.0502C29.4021 34.0435 29.4153 34.0335 29.4258 34.0211C29.4363 34.0086 29.444 33.994 29.4481 33.9783C29.4523 33.9625 29.453 33.946 29.45 33.93C29.4477 33.9042 29.4365 33.8801 29.4182 33.8618C29.3999 33.8435 29.3758 33.8323 29.35 33.83L29.34 33.82ZM29.9 33.82C29.8682 33.82 29.8377 33.8326 29.8151 33.8551C29.7926 33.8777 29.78 33.9082 29.78 33.94C29.78 33.9718 29.7926 34.0023 29.8151 34.0249C29.8377 34.0474 29.8682 34.06 29.9 34.06C29.9246 34.0609 29.9489 34.0535 29.9688 34.039C29.9888 34.0245 30.0033 34.0037 30.01 33.98C30.0176 33.9593 30.0188 33.9368 30.0135 33.9154C30.0081 33.894 29.9965 33.8747 29.98 33.86C29.9693 33.8499 29.9568 33.8421 29.943 33.8369C29.9293 33.8318 29.9147 33.8294 29.9 33.83V33.82ZM30.47 33.82C30.4547 33.8199 30.4395 33.8231 30.4255 33.8292C30.4114 33.8354 30.3988 33.8444 30.3885 33.8557C30.3781 33.867 30.3702 33.8803 30.3653 33.8948C30.3604 33.9094 30.3586 33.9247 30.36 33.94C30.36 34 30.41 34.06 30.46 34.06C30.4761 34.0615 30.4924 34.0595 30.5077 34.054C30.523 34.0485 30.5368 34.0398 30.5483 34.0283C30.5598 34.0168 30.5685 34.003 30.574 33.9877C30.5795 33.9724 30.5815 33.9561 30.58 33.94C30.58 33.9108 30.5684 33.8828 30.5478 33.8622C30.5272 33.8416 30.4992 33.83 30.47 33.83V33.82ZM31.03 33.82C30.9982 33.82 30.9677 33.8326 30.9451 33.8551C30.9226 33.8777 30.91 33.9082 30.91 33.94C30.91 33.9718 30.9226 34.0023 30.9451 34.0249C30.9677 34.0474 30.9982 34.06 31.03 34.06C31.0453 34.0601 31.0605 34.0569 31.0745 34.0508C31.0886 34.0446 31.1012 34.0356 31.1115 34.0243C31.1219 34.013 31.1298 33.9997 31.1347 33.9852C31.1396 33.9706 31.1414 33.9553 31.14 33.94C31.14 33.9108 31.1284 33.8828 31.1078 33.8622C31.0872 33.8416 31.0592 33.83 31.03 33.83V33.82ZM31.59 33.82C31.5747 33.8199 31.5595 33.8231 31.5455 33.8292C31.5314 33.8354 31.5188 33.8444 31.5085 33.8557C31.4981 33.867 31.4902 33.8803 31.4853 33.8948C31.4804 33.9094 31.4786 33.9247 31.48 33.94C31.48 34 31.53 34.06 31.59 34.06C31.65 34.06 31.7 34 31.7 33.94V33.92C31.6977 33.8942 31.6865 33.8701 31.6682 33.8518C31.6499 33.8335 31.6258 33.8223 31.6 33.82H31.59ZM32.15 33.82C32.1271 33.8212 32.1051 33.8296 32.0872 33.8439C32.0692 33.8583 32.0562 33.8779 32.05 33.9V33.94C32.05 34 32.09 34.06 32.15 34.06C32.22 34.06 32.26 34 32.27 33.94V33.92C32.2687 33.9055 32.2646 33.8915 32.2579 33.8786C32.2512 33.8657 32.242 33.8543 32.2308 33.845C32.2197 33.8357 32.2068 33.8287 32.1929 33.8244C32.179 33.8201 32.1645 33.8186 32.15 33.82ZM32.72 33.82C32.7039 33.8185 32.6876 33.8205 32.6723 33.826C32.657 33.8315 32.6432 33.8402 32.6317 33.8517C32.6202 33.8632 32.6115 33.877 32.606 33.8923C32.6005 33.9076 32.5985 33.9239 32.6 33.94C32.6 34 32.65 34.06 32.72 34.06C32.7354 34.0589 32.7505 34.0545 32.7641 34.0471C32.7777 34.0398 32.7896 34.0296 32.7991 34.0174C32.8085 34.0051 32.8153 33.991 32.8189 33.9759C32.8225 33.9609 32.8229 33.9452 32.82 33.93C32.8177 33.9042 32.8065 33.8801 32.7882 33.8618C32.7699 33.8435 32.7458 33.8323 32.72 33.83V33.82ZM33.28 33.82C33.2571 33.8212 33.2351 33.8296 33.2172 33.8439C33.1992 33.8583 33.1862 33.8779 33.18 33.9L33.17 33.94C33.17 34 33.22 34.06 33.27 34.06C33.2871 34.0619 33.3044 34.0597 33.3205 34.0537C33.3366 34.0476 33.3511 34.0379 33.3628 34.0253C33.3745 34.0126 33.383 33.9974 33.3877 33.9809C33.3925 33.9643 33.3932 33.9469 33.39 33.93C33.3875 33.9026 33.3748 33.8771 33.3545 33.8586C33.3341 33.8401 33.3075 33.8299 33.28 33.83V33.82ZM33.84 33.82C33.8247 33.8199 33.8095 33.8231 33.7955 33.8292C33.7814 33.8354 33.7688 33.8444 33.7585 33.8557C33.7481 33.867 33.7402 33.8803 33.7353 33.8948C33.7304 33.9094 33.7286 33.9247 33.73 33.94C33.73 34 33.78 34.06 33.84 34.06C33.8563 34.0603 33.8724 34.0569 33.8873 34.0502C33.9021 34.0435 33.9153 34.0335 33.9258 34.0211C33.9363 34.0086 33.944 33.994 33.9482 33.9783C33.9523 33.9625 33.953 33.946 33.95 33.93C33.9477 33.9042 33.9365 33.8801 33.9182 33.8618C33.8999 33.8435 33.8758 33.8323 33.85 33.83L33.84 33.82ZM34.4 33.82C34.3771 33.8212 34.3551 33.8296 34.3372 33.8439C34.3192 33.8583 34.3062 33.8779 34.3 33.9V33.94C34.3 34 34.34 34.06 34.4 34.06C34.4229 34.0588 34.4449 34.0504 34.4628 34.0361C34.4808 34.0217 34.4938 34.0021 34.5 33.98C34.5088 33.9602 34.5117 33.9383 34.5081 33.917C34.5045 33.8956 34.4948 33.8758 34.48 33.86C34.4693 33.8499 34.4568 33.8421 34.443 33.8369C34.4293 33.8318 34.4147 33.8294 34.4 33.83V33.82ZM18.67 35.12C18.5446 35.1212 18.4208 35.1475 18.3057 35.1973C18.1906 35.2471 18.0867 35.3194 18 35.41L16.2 37.27C16.0895 37.3803 16.0083 37.5163 15.9635 37.6658C15.9188 37.8154 15.912 37.9737 15.9438 38.1265C15.9755 38.2793 16.0448 38.4218 16.1454 38.5411C16.246 38.6605 16.3748 38.7529 16.52 38.81C16.694 38.8804 16.8851 38.897 17.0687 38.8578C17.2523 38.8186 17.4199 38.7253 17.55 38.59L19.36 36.73C19.4906 36.5948 19.5782 36.424 19.6117 36.2391C19.6451 36.0541 19.623 35.8634 19.5481 35.6911C19.4731 35.5187 19.3487 35.3724 19.1907 35.2708C19.0326 35.1691 18.8479 35.1167 18.66 35.12H18.67ZM21.77 35.12C21.6463 35.1225 21.5244 35.1495 21.4111 35.1992C21.2978 35.249 21.1955 35.3206 21.11 35.41L19.31 37.27C19.1834 37.405 19.0989 37.574 19.067 37.7563C19.0351 37.9386 19.0572 38.1263 19.1305 38.2962C19.2038 38.4661 19.3251 38.611 19.4796 38.7129C19.634 38.8149 19.8149 38.8695 20 38.87C20.1247 38.8701 20.2481 38.8454 20.3631 38.7973C20.4782 38.7492 20.5825 38.6788 20.67 38.59L22.47 36.73C22.6006 36.5948 22.6882 36.424 22.7217 36.2391C22.7551 36.0541 22.733 35.8634 22.6581 35.6911C22.5831 35.5187 22.4587 35.3724 22.3007 35.2708C22.1426 35.1691 21.9579 35.1167 21.77 35.12ZM24.89 35.12C24.7646 35.1212 24.6408 35.1475 24.5257 35.1973C24.4106 35.2471 24.3067 35.3194 24.22 35.41L22.42 37.27C22.2928 37.4056 22.2081 37.5755 22.1766 37.7588C22.145 37.942 22.1679 38.1305 22.2424 38.3008C22.317 38.4711 22.4398 38.6159 22.5958 38.7171C22.7518 38.8182 22.9341 38.8714 23.12 38.87C23.3684 38.8675 23.6056 38.7669 23.78 38.59L25.58 36.73C25.71 36.5955 25.7973 36.4255 25.8311 36.2415C25.8649 36.0576 25.8436 35.8677 25.7699 35.6958C25.6962 35.5238 25.5734 35.3775 25.4169 35.275C25.2603 35.1726 25.0771 35.1187 24.89 35.12ZM28 35.12C27.8763 35.1225 27.7544 35.1495 27.6411 35.1992C27.5278 35.249 27.4255 35.3206 27.34 35.41L25.53 37.27C25.4198 37.381 25.339 37.5177 25.2949 37.6677C25.2509 37.8178 25.245 37.9765 25.2778 38.1294C25.3105 38.2823 25.3809 38.4247 25.4826 38.5435C25.5843 38.6623 25.714 38.7539 25.86 38.81C26.034 38.8804 26.2251 38.897 26.4087 38.8578C26.5923 38.8186 26.7599 38.7253 26.89 38.59L28.69 36.73C28.82 36.5955 28.9073 36.4255 28.9411 36.2415C28.9749 36.0576 28.9536 35.8677 28.8799 35.6958C28.8062 35.5238 28.6834 35.3775 28.5269 35.275C28.3703 35.1726 28.1871 35.1187 28 35.12ZM31.11 35.12C30.9863 35.1225 30.8644 35.1495 30.7511 35.1992C30.6378 35.249 30.5355 35.3206 30.45 35.41L28.65 37.27C28.5234 37.405 28.4389 37.574 28.407 37.7563C28.3751 37.9386 28.3972 38.1263 28.4705 38.2962C28.5438 38.4661 28.6651 38.611 28.8196 38.7129C28.974 38.8149 29.1549 38.8695 29.34 38.87C29.5884 38.8675 29.8256 38.7669 30 38.59L31.81 36.73C31.9406 36.5948 32.0282 36.424 32.0617 36.2391C32.0951 36.0541 32.073 35.8634 31.9981 35.6911C31.9231 35.5187 31.7987 35.3724 31.6407 35.2708C31.4826 35.1691 31.2979 35.1167 31.11 35.12Z" fill="#333333"/>
</svg>
