<svg width="48" height="48" viewBox="0 0 48 48" fill="none" xmlns="http://www.w3.org/2000/svg">
<path fill-rule="evenodd" clip-rule="evenodd" d="M-0.0880127 0.00390625V48.0039H47.912V0.00390625H-0.0880127ZM14.058 4.00391H33.763C34.633 4.00391 35.332 4.70391 35.332 5.57291V42.4339C35.332 43.3039 34.632 44.0039 33.763 44.0039H14.058C13.188 44.0039 12.49 43.3039 12.49 42.4339V5.57291C12.49 4.70291 13.189 4.00391 14.058 4.00391ZM16.618 9.45591C16.4046 9.45057 16.1922 9.488 15.9935 9.56598C15.7948 9.64396 15.6137 9.76093 15.4609 9.90998C15.308 10.059 15.1866 10.2372 15.1036 10.4339C15.0207 10.6306 14.978 10.8419 14.978 11.0554C14.978 11.2689 15.0207 11.4802 15.1036 11.6769C15.1866 11.8736 15.308 12.0518 15.4609 12.2008C15.6137 12.3499 15.7948 12.4669 15.9935 12.5448C16.1922 12.6228 16.4046 12.6602 16.618 12.6549C17.0423 12.6549 17.4493 12.4863 17.7494 12.1863C18.0494 11.8862 18.218 11.4793 18.218 11.0549C18.218 10.6306 18.0494 10.2236 17.7494 9.92354C17.4493 9.62348 17.0423 9.45491 16.618 9.45491V9.45591ZM20.265 9.45591C20.0516 9.45057 19.8392 9.488 19.6405 9.56598C19.4418 9.64396 19.2607 9.76093 19.1078 9.90998C18.955 10.059 18.8336 10.2372 18.7506 10.4339C18.6677 10.6306 18.625 10.8419 18.625 11.0554C18.625 11.2689 18.6677 11.4802 18.7506 11.6769C18.8336 11.8736 18.955 12.0518 19.1078 12.2008C19.2607 12.3499 19.4418 12.4669 19.6405 12.5448C19.8392 12.6228 20.0516 12.6602 20.265 12.6549C20.6893 12.6549 21.0963 12.4863 21.3964 12.1863C21.6964 11.8862 21.865 11.4793 21.865 11.0549C21.865 10.6306 21.6964 10.2236 21.3964 9.92354C21.0963 9.62348 20.6893 9.45491 20.265 9.45491V9.45591ZM23.912 9.45591C23.6972 9.44831 23.4832 9.48405 23.2825 9.56098C23.0819 9.63792 22.8988 9.75448 22.7442 9.90371C22.5896 10.0529 22.4667 10.2318 22.3827 10.4296C22.2987 10.6274 22.2554 10.84 22.2554 11.0549C22.2554 11.2698 22.2987 11.4825 22.3827 11.6802C22.4667 11.878 22.5896 12.0569 22.7442 12.2061C22.8988 12.3553 23.0819 12.4719 23.2825 12.5488C23.4832 12.6258 23.6972 12.6615 23.912 12.6539C24.3263 12.6393 24.7187 12.4644 25.0066 12.1661C25.2945 11.8678 25.4554 11.4695 25.4554 11.0549C25.4554 10.6404 25.2945 10.242 25.0066 9.94371C24.7187 9.64544 24.3263 9.47056 23.912 9.45591ZM27.556 9.45591C27.3426 9.45057 27.1302 9.488 26.9315 9.56598C26.7328 9.64396 26.5517 9.76093 26.3988 9.90998C26.246 10.059 26.1246 10.2372 26.0416 10.4339C25.9587 10.6306 25.916 10.8419 25.916 11.0554C25.916 11.2689 25.9587 11.4802 26.0416 11.6769C26.1246 11.8736 26.246 12.0518 26.3988 12.2008C26.5517 12.3499 26.7328 12.4669 26.9315 12.5448C27.1302 12.6228 27.3426 12.6602 27.556 12.6549C27.9803 12.6549 28.3873 12.4863 28.6874 12.1863C28.9874 11.8862 29.156 11.4793 29.156 11.0549C29.156 10.6306 28.9874 10.2236 28.6874 9.92354C28.3873 9.62348 27.9803 9.45491 27.556 9.45491V9.45591ZM31.203 9.45591C30.9896 9.45057 30.7772 9.488 30.5785 9.56598C30.3798 9.64396 30.1987 9.76093 30.0458 9.90998C29.893 10.059 29.7716 10.2372 29.6886 10.4339C29.6057 10.6306 29.563 10.8419 29.563 11.0554C29.563 11.2689 29.6057 11.4802 29.6886 11.6769C29.7716 11.8736 29.893 12.0518 30.0458 12.2008C30.1987 12.3499 30.3798 12.4669 30.5785 12.5448C30.7772 12.6228 30.9896 12.6602 31.203 12.6549C31.6273 12.6549 32.0343 12.4863 32.3344 12.1863C32.6344 11.8862 32.803 11.4793 32.803 11.0549C32.803 10.6306 32.6344 10.2236 32.3344 9.92354C32.0343 9.62348 31.6273 9.45491 31.203 9.45491V9.45591ZM13.507 14.8899C13.4922 14.89 13.4776 14.8931 13.464 14.8989C13.4504 14.9047 13.438 14.9132 13.4277 14.9238C13.4174 14.9344 13.4093 14.9469 13.4038 14.9607C13.3984 14.9744 13.3957 14.9891 13.396 15.0039C13.396 15.0639 13.446 15.1159 13.507 15.1169C13.522 15.1169 13.5368 15.114 13.5506 15.1082C13.5644 15.1025 13.577 15.0941 13.5876 15.0835C13.5982 15.0729 13.6066 15.0604 13.6123 15.0465C13.618 15.0327 13.621 15.0179 13.621 15.0029C13.621 14.988 13.618 14.9732 13.6123 14.9594C13.6066 14.9457 13.5981 14.9332 13.5875 14.9226C13.5769 14.9121 13.5644 14.9038 13.5505 14.8982C13.5367 14.8926 13.5219 14.8898 13.507 14.8899ZM14.07 14.8899C14.0552 14.89 14.0406 14.8931 14.027 14.8989C14.0134 14.9047 14.001 14.9132 13.9907 14.9238C13.9804 14.9344 13.9723 14.9469 13.9668 14.9607C13.9614 14.9744 13.9587 14.9891 13.959 15.0039C13.959 15.0639 14.009 15.1159 14.069 15.1169C14.0991 15.1164 14.1278 15.1042 14.149 15.0829C14.1703 15.0617 14.1825 15.033 14.183 15.0029C14.1835 14.9969 14.1835 14.9909 14.183 14.9849C14.1785 14.9583 14.1646 14.9343 14.1439 14.917C14.1231 14.8998 14.0969 14.8905 14.07 14.8909V14.8899ZM14.632 14.8899C14.6172 14.8899 14.6025 14.8929 14.5888 14.8986C14.5751 14.9044 14.5628 14.9128 14.5524 14.9235C14.5421 14.9341 14.534 14.9467 14.5286 14.9605C14.5232 14.9743 14.5206 14.9891 14.521 15.0039C14.521 15.0649 14.571 15.1179 14.632 15.1169C14.6621 15.1164 14.6908 15.1042 14.712 15.0829C14.7333 15.0617 14.7455 15.033 14.746 15.0029C14.7465 14.9969 14.7465 14.9909 14.746 14.9849C14.7414 14.9582 14.7274 14.934 14.7065 14.9167C14.6855 14.8994 14.6591 14.8903 14.632 14.8909V14.8899ZM15.195 14.8899C15.1802 14.8899 15.1655 14.8929 15.1518 14.8986C15.1381 14.9044 15.1258 14.9128 15.1154 14.9235C15.1051 14.9341 15.097 14.9467 15.0916 14.9605C15.0862 14.9743 15.0836 14.9891 15.084 15.0039C15.084 15.0649 15.133 15.1179 15.194 15.1169C15.2241 15.1164 15.2528 15.1042 15.274 15.0829C15.2953 15.0617 15.3075 15.033 15.308 15.0029V14.9959C15.3057 14.9674 15.2929 14.9408 15.2719 14.9214C15.251 14.9019 15.2236 14.8911 15.195 14.8909V14.8899ZM15.757 14.8899C15.7422 14.8899 15.7275 14.8929 15.7138 14.8986C15.7001 14.9044 15.6878 14.9128 15.6774 14.9235C15.6671 14.9341 15.659 14.9467 15.6536 14.9605C15.6482 14.9743 15.6456 14.9891 15.646 15.0039C15.646 15.0649 15.696 15.1179 15.757 15.1169C15.7871 15.1164 15.8158 15.1042 15.837 15.0829C15.8583 15.0617 15.8705 15.033 15.871 15.0029V14.9959C15.8687 14.9673 15.8557 14.9405 15.8346 14.9211C15.8134 14.9016 15.7857 14.8908 15.757 14.8909V14.8899ZM16.32 14.8899C16.3052 14.8899 16.2905 14.8929 16.2768 14.8986C16.2631 14.9044 16.2508 14.9128 16.2404 14.9235C16.2301 14.9341 16.222 14.9467 16.2166 14.9605C16.2112 14.9743 16.2086 14.9891 16.209 15.0039C16.209 15.0649 16.258 15.1179 16.319 15.1169C16.3491 15.1164 16.3778 15.1042 16.399 15.0829C16.4203 15.0617 16.4325 15.033 16.433 15.0029V14.9959C16.4307 14.9674 16.4179 14.9408 16.3969 14.9214C16.376 14.9019 16.3486 14.8911 16.32 14.8909V14.8899ZM16.88 14.8899C16.8502 14.8904 16.8218 14.9027 16.801 14.9241C16.7802 14.9454 16.7687 14.9741 16.769 15.0039C16.769 15.0639 16.819 15.1159 16.88 15.1169C16.895 15.1169 16.9098 15.114 16.9236 15.1082C16.9374 15.1025 16.95 15.0941 16.9606 15.0835C16.9712 15.0729 16.9796 15.0604 16.9853 15.0465C16.991 15.0327 16.994 15.0179 16.994 15.0029V14.9959C16.9922 14.9671 16.9793 14.9401 16.9581 14.9205C16.9368 14.9009 16.9089 14.8903 16.88 14.8909V14.8899ZM17.443 14.8899C17.4281 14.89 17.4135 14.8931 17.3998 14.8989C17.3862 14.9047 17.3738 14.9131 17.3634 14.9237C17.353 14.9343 17.3448 14.9468 17.3392 14.9606C17.3336 14.9743 17.3309 14.9891 17.331 15.0039C17.332 15.0639 17.381 15.1159 17.443 15.1169C17.473 15.1166 17.5018 15.1045 17.523 15.0832C17.5441 15.0618 17.556 15.033 17.556 15.0029V14.9959C17.5542 14.9673 17.5415 14.9404 17.5204 14.9209C17.4994 14.9013 17.4717 14.8906 17.443 14.8909V14.8899ZM18.005 14.8899C17.9752 14.8904 17.9468 14.9027 17.926 14.9241C17.9052 14.9454 17.8937 14.9741 17.894 15.0039C17.894 15.0639 17.944 15.1159 18.005 15.1169C18.02 15.1169 18.0348 15.114 18.0486 15.1082C18.0624 15.1025 18.075 15.0941 18.0856 15.0835C18.0962 15.0729 18.1046 15.0604 18.1103 15.0465C18.116 15.0327 18.119 15.0179 18.119 15.0029V14.9959C18.1172 14.9671 18.1043 14.9401 18.0831 14.9205C18.0618 14.9009 18.0339 14.8903 18.005 14.8909V14.8899ZM18.568 14.8899C18.5531 14.8899 18.5384 14.8929 18.5247 14.8986C18.5109 14.9044 18.4985 14.9128 18.4881 14.9234C18.4776 14.934 18.4694 14.9466 18.4639 14.9604C18.4584 14.9743 18.4557 14.989 18.456 15.0039C18.457 15.0639 18.506 15.1159 18.568 15.1169C18.5979 15.1161 18.6263 15.1038 18.6474 15.0826C18.6684 15.0614 18.6805 15.0328 18.681 15.0029C18.6815 14.9969 18.6815 14.9909 18.681 14.9849C18.6765 14.9583 18.6626 14.9343 18.6419 14.917C18.6211 14.8998 18.5949 14.8905 18.568 14.8909V14.8899ZM19.13 14.8899C19.1152 14.8899 19.1005 14.8929 19.0868 14.8986C19.0731 14.9044 19.0608 14.9128 19.0504 14.9235C19.0401 14.9341 19.032 14.9467 19.0266 14.9605C19.0212 14.9743 19.0186 14.9891 19.019 15.0039C19.019 15.0649 19.069 15.1179 19.13 15.1169C19.1601 15.1164 19.1888 15.1042 19.21 15.0829C19.2313 15.0617 19.2435 15.033 19.244 15.0029V14.9959C19.2417 14.9673 19.2287 14.9405 19.2076 14.9211C19.1864 14.9016 19.1587 14.8908 19.13 14.8909V14.8899ZM19.693 14.8899C19.6781 14.8898 19.6633 14.8926 19.6495 14.8983C19.6357 14.904 19.6232 14.9125 19.6128 14.9231C19.6023 14.9338 19.5941 14.9464 19.5886 14.9603C19.5832 14.9742 19.5806 14.989 19.581 15.0039C19.582 15.0649 19.631 15.1179 19.693 15.1169C19.7229 15.1161 19.7513 15.1038 19.7724 15.0826C19.7934 15.0614 19.8055 15.0328 19.806 15.0029V14.9959C19.8037 14.9674 19.7909 14.9408 19.7699 14.9214C19.749 14.9019 19.7216 14.8911 19.693 14.8909V14.8899ZM20.255 14.8899C20.2402 14.8899 20.2255 14.8929 20.2118 14.8986C20.1981 14.9044 20.1858 14.9128 20.1754 14.9235C20.1651 14.9341 20.157 14.9467 20.1516 14.9605C20.1462 14.9743 20.1436 14.9891 20.144 15.0039C20.144 15.0649 20.194 15.1179 20.255 15.1169C20.2851 15.1164 20.3138 15.1042 20.335 15.0829C20.3563 15.0617 20.3685 15.033 20.369 15.0029V14.9959C20.3667 14.9673 20.3537 14.9405 20.3326 14.9211C20.3114 14.9016 20.2837 14.8908 20.255 14.8909V14.8899ZM20.818 14.8899C20.8031 14.8898 20.7883 14.8926 20.7745 14.8983C20.7607 14.904 20.7482 14.9125 20.7378 14.9231C20.7273 14.9338 20.7191 14.9464 20.7136 14.9603C20.7082 14.9742 20.7056 14.989 20.706 15.0039C20.707 15.0649 20.756 15.1179 20.818 15.1169C20.8479 15.1161 20.8763 15.1038 20.8974 15.0826C20.9184 15.0614 20.9305 15.0328 20.931 15.0029V14.9959C20.9287 14.9674 20.9159 14.9408 20.8949 14.9214C20.874 14.9019 20.8466 14.8911 20.818 14.8909V14.8899ZM21.378 14.8899C21.3633 14.8902 21.3488 14.8933 21.3353 14.8992C21.3218 14.9051 21.3096 14.9135 21.2994 14.9241C21.2892 14.9347 21.2811 14.9472 21.2757 14.9609C21.2704 14.9746 21.2677 14.9892 21.268 15.0039C21.268 15.0639 21.317 15.1159 21.378 15.1169C21.393 15.1169 21.4078 15.114 21.4216 15.1082C21.4354 15.1025 21.448 15.0941 21.4586 15.0835C21.4692 15.0729 21.4776 15.0604 21.4833 15.0465C21.489 15.0327 21.492 15.0179 21.492 15.0029V14.9959C21.4902 14.9671 21.4773 14.9401 21.4561 14.9205C21.4348 14.9009 21.4069 14.8903 21.378 14.8909V14.8899ZM21.941 14.8899C21.9262 14.89 21.9116 14.8931 21.898 14.8989C21.8844 14.9047 21.872 14.9132 21.8617 14.9238C21.8514 14.9344 21.8433 14.9469 21.8378 14.9607C21.8324 14.9744 21.8297 14.9891 21.83 15.0039C21.83 15.0639 21.88 15.1159 21.94 15.1169C21.955 15.1169 21.9698 15.114 21.9836 15.1082C21.9974 15.1025 22.01 15.0941 22.0206 15.0835C22.0312 15.0729 22.0396 15.0604 22.0453 15.0465C22.051 15.0327 22.054 15.0179 22.054 15.0029V14.9959C22.0522 14.9673 22.0395 14.9404 22.0184 14.9209C21.9974 14.9013 21.9697 14.8906 21.941 14.8909V14.8899ZM22.503 14.8899C22.4883 14.89 22.4738 14.8931 22.4603 14.8989C22.4468 14.9048 22.4346 14.9133 22.4244 14.9239C22.4142 14.9345 22.4063 14.9471 22.4011 14.9608C22.3959 14.9746 22.3934 14.9892 22.394 15.0039C22.394 15.0639 22.442 15.1159 22.504 15.1169C22.534 15.1166 22.5628 15.1045 22.584 15.0832C22.6051 15.0618 22.617 15.033 22.617 15.0029C22.617 14.988 22.614 14.9732 22.6083 14.9594C22.6025 14.9457 22.5941 14.9332 22.5835 14.9226C22.5729 14.9121 22.5604 14.9038 22.5465 14.8982C22.5327 14.8926 22.5179 14.8898 22.503 14.8899ZM23.066 14.8899C23.0512 14.89 23.0366 14.8931 23.023 14.8989C23.0094 14.9047 22.997 14.9132 22.9867 14.9238C22.9764 14.9344 22.9683 14.9469 22.9628 14.9607C22.9574 14.9744 22.9547 14.9891 22.955 15.0039C22.955 15.0639 23.005 15.1159 23.065 15.1169C23.0951 15.1164 23.1238 15.1042 23.145 15.0829C23.1663 15.0617 23.1785 15.033 23.179 15.0029C23.1795 14.9969 23.1795 14.9909 23.179 14.9849C23.1745 14.9583 23.1606 14.9343 23.1399 14.917C23.1191 14.8998 23.0929 14.8905 23.066 14.8909V14.8899ZM23.628 14.8899C23.6131 14.8899 23.5983 14.8929 23.5845 14.8986C23.5707 14.9043 23.5582 14.9128 23.5477 14.9234C23.5372 14.934 23.5289 14.9465 23.5233 14.9604C23.5177 14.9742 23.5149 14.989 23.515 15.0039C23.515 15.0649 23.566 15.1179 23.628 15.1169C23.69 15.1169 23.739 15.0649 23.74 15.0029C23.7405 14.9969 23.7405 14.9909 23.74 14.9849C23.7361 14.9582 23.7225 14.9339 23.7019 14.9166C23.6812 14.8993 23.6549 14.8901 23.628 14.8909V14.8899ZM24.191 14.8899C24.1762 14.8899 24.1615 14.8929 24.1478 14.8986C24.1341 14.9044 24.1218 14.9128 24.1114 14.9235C24.1011 14.9341 24.093 14.9467 24.0876 14.9605C24.0822 14.9743 24.0796 14.9891 24.08 15.0039C24.08 15.0649 24.129 15.1179 24.19 15.1169C24.2201 15.1164 24.2488 15.1042 24.27 15.0829C24.2913 15.0617 24.3035 15.033 24.304 15.0029V14.9959C24.3017 14.9674 24.2889 14.9408 24.2679 14.9214C24.247 14.9019 24.2196 14.8911 24.191 14.8909V14.8899ZM24.753 14.8899C24.7381 14.8899 24.7233 14.8929 24.7095 14.8986C24.6957 14.9043 24.6832 14.9128 24.6727 14.9234C24.6622 14.934 24.6539 14.9465 24.6483 14.9604C24.6427 14.9742 24.6399 14.989 24.64 15.0039C24.64 15.0649 24.691 15.1179 24.753 15.1169C24.7831 15.1164 24.8118 15.1042 24.833 15.0829C24.8543 15.0617 24.8665 15.033 24.867 15.0029V14.9959C24.8647 14.9673 24.8517 14.9405 24.8306 14.9211C24.8094 14.9016 24.7817 14.8908 24.753 14.8909V14.8899ZM25.314 14.8899C25.2992 14.89 25.2846 14.8931 25.271 14.8989C25.2574 14.9047 25.245 14.9132 25.2347 14.9238C25.2244 14.9344 25.2163 14.9469 25.2108 14.9607C25.2054 14.9744 25.2027 14.9891 25.203 15.0039C25.203 15.0639 25.253 15.1159 25.314 15.1169C25.344 15.1166 25.3728 15.1045 25.394 15.0832C25.4151 15.0618 25.427 15.033 25.427 15.0029V14.9959C25.4252 14.9673 25.4125 14.9404 25.3914 14.9209C25.3704 14.9013 25.3427 14.8906 25.314 14.8909V14.8899ZM25.877 14.8899C25.8621 14.89 25.8475 14.8931 25.8338 14.8989C25.8202 14.9047 25.8078 14.9131 25.7974 14.9237C25.787 14.9343 25.7788 14.9468 25.7732 14.9606C25.7676 14.9743 25.7649 14.9891 25.765 15.0039C25.765 15.0639 25.815 15.1159 25.876 15.1169C25.891 15.1169 25.9058 15.114 25.9196 15.1082C25.9334 15.1025 25.946 15.0941 25.9566 15.0835C25.9672 15.0729 25.9756 15.0604 25.9813 15.0465C25.987 15.0327 25.99 15.0179 25.99 15.0029V14.9959C25.9882 14.9673 25.9755 14.9404 25.9544 14.9209C25.9334 14.9013 25.9057 14.8906 25.877 14.8909V14.8899ZM26.439 14.8899C26.4092 14.8904 26.3808 14.9027 26.36 14.9241C26.3392 14.9454 26.3277 14.9741 26.328 15.0039C26.328 15.0639 26.378 15.1159 26.439 15.1169C26.4692 15.1166 26.4982 15.1046 26.5197 15.0833C26.5412 15.062 26.5535 15.0332 26.554 15.0029V14.9959C26.5517 14.9671 26.5386 14.9402 26.5172 14.9207C26.4959 14.9012 26.4679 14.8906 26.439 14.8909V14.8899ZM27.002 14.8899C26.9871 14.89 26.9725 14.8931 26.9588 14.8989C26.9452 14.9047 26.9328 14.9131 26.9224 14.9237C26.912 14.9343 26.9038 14.9468 26.8982 14.9606C26.8926 14.9743 26.8899 14.9891 26.89 15.0039C26.89 15.0639 26.94 15.1159 27.001 15.1169C27.0314 15.1169 27.0606 15.105 27.0823 15.0836C27.104 15.0623 27.1165 15.0333 27.117 15.0029C27.1169 14.9879 27.1137 14.973 27.1078 14.9591C27.1019 14.9453 27.0933 14.9327 27.0825 14.9222C27.0718 14.9117 27.059 14.9035 27.045 14.8979C27.031 14.8924 27.016 14.8896 27.001 14.8899H27.002ZM27.564 14.8899C27.5492 14.89 27.5346 14.8931 27.521 14.8989C27.5074 14.9047 27.495 14.9132 27.4847 14.9238C27.4744 14.9344 27.4663 14.9469 27.4608 14.9607C27.4554 14.9744 27.4527 14.9891 27.453 15.0039C27.453 15.0639 27.503 15.1159 27.564 15.1169C27.5939 15.1161 27.6223 15.1038 27.6434 15.0826C27.6644 15.0614 27.6765 15.0328 27.677 15.0029C27.6775 14.9969 27.6775 14.9909 27.677 14.9849C27.6725 14.9583 27.6586 14.9343 27.6379 14.917C27.6171 14.8998 27.5909 14.8905 27.564 14.8909V14.8899ZM28.127 14.8899C28.1121 14.8898 28.0973 14.8926 28.0835 14.8983C28.0697 14.904 28.0572 14.9125 28.0468 14.9231C28.0363 14.9338 28.0281 14.9464 28.0226 14.9603C28.0172 14.9742 28.0146 14.989 28.015 15.0039C28.015 15.0649 28.065 15.1179 28.126 15.1169C28.1561 15.1164 28.1848 15.1042 28.206 15.0829C28.2273 15.0617 28.2395 15.033 28.24 15.0029V14.9959C28.2377 14.9674 28.2249 14.9408 28.2039 14.9214C28.183 14.9019 28.1556 14.8911 28.127 14.8909V14.8899ZM28.689 14.8899C28.6741 14.8899 28.6593 14.8929 28.6455 14.8986C28.6317 14.9043 28.6192 14.9128 28.6087 14.9234C28.5982 14.934 28.5899 14.9465 28.5843 14.9604C28.5787 14.9742 28.5759 14.989 28.576 15.0039C28.576 15.0649 28.627 15.1179 28.689 15.1169C28.7189 15.1161 28.7473 15.1038 28.7684 15.0826C28.7894 15.0614 28.8015 15.0328 28.802 15.0029V14.9959C28.7997 14.9674 28.7869 14.9408 28.7659 14.9214C28.745 14.9019 28.7176 14.8911 28.689 14.8909V14.8899ZM29.252 14.8899C29.237 14.8898 29.2221 14.8926 29.2082 14.8983C29.1943 14.904 29.1817 14.9124 29.1711 14.923C29.1605 14.9336 29.1521 14.9462 29.1464 14.9601C29.1407 14.974 29.1379 14.9889 29.138 15.0039C29.138 15.0649 29.189 15.1179 29.251 15.1169C29.2811 15.1164 29.3098 15.1042 29.331 15.0829C29.3523 15.0617 29.3645 15.033 29.365 15.0029V14.9959C29.3627 14.9674 29.3499 14.9408 29.3289 14.9214C29.308 14.9019 29.2806 14.8911 29.252 14.8909V14.8899ZM29.812 14.8899C29.7972 14.89 29.7826 14.8931 29.769 14.8989C29.7554 14.9047 29.743 14.9132 29.7327 14.9238C29.7224 14.9344 29.7143 14.9469 29.7088 14.9607C29.7034 14.9744 29.7007 14.9891 29.701 15.0039C29.701 15.0639 29.751 15.1159 29.812 15.1169C29.842 15.1166 29.8708 15.1045 29.892 15.0832C29.9131 15.0618 29.925 15.033 29.925 15.0029V14.9959C29.9232 14.9673 29.9105 14.9404 29.8894 14.9209C29.8684 14.9013 29.8407 14.8906 29.812 14.8909V14.8899ZM30.375 14.8899C30.3601 14.8899 30.3454 14.8929 30.3317 14.8986C30.3179 14.9044 30.3055 14.9128 30.2951 14.9234C30.2846 14.934 30.2764 14.9466 30.2709 14.9604C30.2654 14.9743 30.2627 14.989 30.263 15.0039C30.263 15.0639 30.313 15.1159 30.374 15.1169C30.4044 15.1169 30.4336 15.105 30.4553 15.0836C30.477 15.0623 30.4895 15.0333 30.49 15.0029V14.9959C30.4877 14.9671 30.4746 14.9402 30.4532 14.9207C30.4319 14.9012 30.4039 14.8906 30.375 14.8909V14.8899ZM30.937 14.8899C30.9222 14.89 30.9076 14.8931 30.894 14.8989C30.8804 14.9047 30.868 14.9132 30.8577 14.9238C30.8474 14.9344 30.8393 14.9469 30.8338 14.9607C30.8284 14.9744 30.8257 14.9891 30.826 15.0039C30.826 15.0639 30.876 15.1159 30.937 15.1169C30.9672 15.1166 30.9962 15.1046 31.0177 15.0833C31.0392 15.062 31.0515 15.0332 31.052 15.0029V14.9959C31.0497 14.9671 31.0366 14.9402 31.0152 14.9207C30.9939 14.9012 30.9659 14.8906 30.937 14.8909V14.8899ZM31.5 14.8899C31.4851 14.8899 31.4704 14.8929 31.4567 14.8986C31.4429 14.9044 31.4305 14.9128 31.4201 14.9234C31.4096 14.934 31.4014 14.9466 31.3959 14.9604C31.3904 14.9743 31.3877 14.989 31.388 15.0039C31.388 15.0639 31.438 15.1159 31.499 15.1169C31.5291 15.1164 31.5578 15.1042 31.579 15.0829C31.6003 15.0617 31.6125 15.033 31.613 15.0029C31.6134 14.9969 31.6134 14.9909 31.613 14.9849C31.6085 14.9583 31.5946 14.9343 31.5739 14.917C31.5531 14.8998 31.5269 14.8905 31.5 14.8909V14.8899ZM32.062 14.8899C32.0472 14.8899 32.0325 14.8929 32.0188 14.8986C32.0051 14.9044 31.9928 14.9128 31.9824 14.9235C31.9721 14.9341 31.964 14.9467 31.9586 14.9605C31.9532 14.9743 31.9506 14.9891 31.951 15.0039C31.951 15.0649 32 15.1179 32.062 15.1169C32.0919 15.1161 32.1203 15.1038 32.1414 15.0826C32.1624 15.0614 32.1745 15.0328 32.175 15.0029C32.1754 14.9969 32.1754 14.9909 32.175 14.9849C32.1705 14.9583 32.1566 14.9343 32.1359 14.917C32.1151 14.8998 32.0889 14.8905 32.062 14.8909V14.8899ZM32.625 14.8899C32.61 14.8898 32.5951 14.8926 32.5812 14.8983C32.5673 14.904 32.5547 14.9124 32.5441 14.923C32.5335 14.9336 32.5251 14.9462 32.5194 14.9601C32.5137 14.974 32.5109 14.9889 32.511 15.0039C32.511 15.0649 32.562 15.1179 32.624 15.1169C32.6541 15.1164 32.6828 15.1042 32.704 15.0829C32.7253 15.0617 32.7375 15.033 32.738 15.0029V14.9959C32.7357 14.9673 32.7227 14.9405 32.7016 14.9211C32.6804 14.9016 32.6527 14.8908 32.624 14.8909L32.625 14.8899ZM33.187 14.8899C33.1721 14.8899 33.1573 14.8929 33.1435 14.8986C33.1297 14.9043 33.1172 14.9128 33.1067 14.9234C33.0962 14.934 33.0879 14.9465 33.0823 14.9604C33.0767 14.9742 33.0739 14.989 33.074 15.0039C33.074 15.0649 33.125 15.1179 33.187 15.1169C33.2169 15.1161 33.2453 15.1038 33.2664 15.0826C33.2874 15.0614 33.2995 15.0328 33.3 15.0029V14.9959C33.2977 14.9674 33.2849 14.9408 33.2639 14.9214C33.243 14.9019 33.2156 14.8911 33.187 14.8909V14.8899ZM33.75 14.8899C33.7351 14.8898 33.7203 14.8926 33.7065 14.8983C33.6927 14.904 33.6802 14.9125 33.6698 14.9231C33.6593 14.9338 33.6511 14.9464 33.6456 14.9603C33.6402 14.9742 33.6376 14.989 33.638 15.0039C33.638 15.0649 33.688 15.1179 33.749 15.1169C33.7791 15.1164 33.8078 15.1042 33.829 15.0829C33.8503 15.0617 33.8625 15.033 33.863 15.0029V14.9959C33.8607 14.9673 33.8477 14.9405 33.8266 14.9211C33.8054 14.9016 33.7777 14.8908 33.749 14.8909L33.75 14.8899ZM34.31 14.8899C34.2802 14.8904 34.2518 14.9027 34.231 14.9241C34.2102 14.9454 34.1987 14.9741 34.199 15.0039C34.199 15.0639 34.249 15.1159 34.31 15.1169C34.34 15.1166 34.3688 15.1045 34.39 15.0832C34.4111 15.0618 34.423 15.033 34.423 15.0029V14.9959C34.4212 14.9673 34.4085 14.9404 34.3874 14.9209C34.3664 14.9013 34.3387 14.8906 34.31 14.8909V14.8899ZM14.851 18.0869C14.4266 18.0869 14.0197 18.2555 13.7196 18.5555C13.4196 18.8556 13.251 19.2626 13.251 19.6869C13.251 20.1113 13.4196 20.5182 13.7196 20.8183C14.0197 21.1183 14.4266 21.2869 14.851 21.2869C15.2753 21.2869 15.6823 21.1183 15.9824 20.8183C16.2824 20.5182 16.451 20.1113 16.451 19.6869C16.451 19.2626 16.2824 18.8556 15.9824 18.5555C15.6823 18.2555 15.2753 18.0869 14.851 18.0869ZM18.474 18.0869C18.0496 18.0869 17.6427 18.2555 17.3426 18.5555C17.0426 18.8556 16.874 19.2626 16.874 19.6869C16.874 20.1113 17.0426 20.5182 17.3426 20.8183C17.6427 21.1183 18.0496 21.2869 18.474 21.2869C18.8983 21.2869 19.3053 21.1183 19.6054 20.8183C19.9054 20.5182 20.074 20.1113 20.074 19.6869C20.074 19.2626 19.9054 18.8556 19.6054 18.5555C19.3053 18.2555 18.8983 18.0869 18.474 18.0869ZM22.097 18.0869C21.6726 18.0869 21.2657 18.2555 20.9656 18.5555C20.6656 18.8556 20.497 19.2626 20.497 19.6869C20.497 20.1113 20.6656 20.5182 20.9656 20.8183C21.2657 21.1183 21.6726 21.2869 22.097 21.2869C22.5213 21.2869 22.9283 21.1183 23.2284 20.8183C23.5284 20.5182 23.697 20.1113 23.697 19.6869C23.697 19.2626 23.5284 18.8556 23.2284 18.5555C22.9283 18.2555 22.5213 18.0869 22.097 18.0869ZM25.722 18.0869C25.2976 18.0869 24.8907 18.2555 24.5906 18.5555C24.2906 18.8556 24.122 19.2626 24.122 19.6869C24.122 20.1113 24.2906 20.5182 24.5906 20.8183C24.8907 21.1183 25.2976 21.2869 25.722 21.2869C26.1463 21.2869 26.5533 21.1183 26.8534 20.8183C27.1534 20.5182 27.322 20.1113 27.322 19.6869C27.322 19.2626 27.1534 18.8556 26.8534 18.5555C26.5533 18.2555 26.1463 18.0869 25.722 18.0869ZM29.345 18.0869C28.9206 18.0869 28.5137 18.2555 28.2136 18.5555C27.9136 18.8556 27.745 19.2626 27.745 19.6869C27.745 20.1113 27.9136 20.5182 28.2136 20.8183C28.5137 21.1183 28.9206 21.2869 29.345 21.2869C29.7693 21.2869 30.1763 21.1183 30.4764 20.8183C30.7764 20.5182 30.945 20.1113 30.945 19.6869C30.945 19.2626 30.7764 18.8556 30.4764 18.5555C30.1763 18.2555 29.7693 18.0869 29.345 18.0869ZM32.97 18.0869C32.5456 18.0869 32.1387 18.2555 31.8386 18.5555C31.5386 18.8556 31.37 19.2626 31.37 19.6869C31.37 20.1113 31.5386 20.5182 31.8386 20.8183C32.1387 21.1183 32.5456 21.2869 32.97 21.2869C33.3943 21.2869 33.8013 21.1183 34.1014 20.8183C34.4014 20.5182 34.57 20.1113 34.57 19.6869C34.57 19.2626 34.4014 18.8556 34.1014 18.5555C33.8013 18.2555 33.3943 18.0869 32.97 18.0869ZM13.507 23.8899C13.4922 23.89 13.4776 23.8931 13.464 23.8989C13.4504 23.9047 13.438 23.9132 13.4277 23.9238C13.4174 23.9344 13.4093 23.9469 13.4038 23.9607C13.3984 23.9744 13.3957 23.9891 13.396 24.0039C13.396 24.0639 13.446 24.1159 13.507 24.1169C13.5371 24.1169 13.5659 24.105 13.5872 24.0839C13.6086 24.0627 13.6207 24.034 13.621 24.0039C13.6213 23.9889 13.6185 23.9739 13.6129 23.96C13.6072 23.946 13.5988 23.9333 13.5882 23.9227C13.5776 23.9121 13.5649 23.9037 13.5509 23.898C13.537 23.8924 13.522 23.8896 13.507 23.8899ZM14.07 23.8899C14.0552 23.89 14.0406 23.8931 14.027 23.8989C14.0134 23.9047 14.001 23.9132 13.9907 23.9238C13.9804 23.9344 13.9723 23.9469 13.9668 23.9607C13.9614 23.9744 13.9587 23.9891 13.959 24.0039C13.959 24.0639 14.009 24.1169 14.069 24.1169C14.0989 24.1164 14.1274 24.1044 14.1487 24.0833C14.1699 24.0623 14.1822 24.0338 14.183 24.0039C14.1837 23.9973 14.1837 23.9906 14.183 23.9839C14.1782 23.9575 14.1643 23.9337 14.1436 23.9166C14.1229 23.8996 14.0968 23.8905 14.07 23.8909V23.8899ZM14.632 23.8899C14.6172 23.8899 14.6025 23.8929 14.5888 23.8986C14.5751 23.9044 14.5628 23.9128 14.5524 23.9235C14.5421 23.9341 14.534 23.9467 14.5286 23.9605C14.5232 23.9743 14.5206 23.9891 14.521 24.0039C14.521 24.0659 14.571 24.1179 14.632 24.1169C14.6619 24.1164 14.6904 24.1044 14.7117 24.0833C14.7329 24.0623 14.7452 24.0338 14.746 24.0039C14.7467 23.9973 14.7467 23.9906 14.746 23.9839C14.7412 23.9573 14.7271 23.9334 14.7062 23.9163C14.6853 23.8993 14.659 23.8902 14.632 23.8909V23.8899ZM15.195 23.8899C15.1802 23.8899 15.1655 23.8929 15.1518 23.8986C15.1381 23.9044 15.1258 23.9128 15.1154 23.9235C15.1051 23.9341 15.097 23.9467 15.0916 23.9605C15.0862 23.9743 15.0836 23.9891 15.084 24.0039C15.084 24.0659 15.133 24.1179 15.194 24.1169C15.2095 24.1167 15.2248 24.1133 15.2389 24.107C15.2531 24.1008 15.2659 24.0917 15.2765 24.0805C15.2872 24.0692 15.2954 24.0559 15.3008 24.0414C15.3062 24.0268 15.3087 24.0114 15.308 23.9959C15.3057 23.9674 15.2929 23.9408 15.2719 23.9214C15.251 23.9019 15.2236 23.8911 15.195 23.8909V23.8899ZM15.757 23.8899C15.7422 23.8899 15.7275 23.8929 15.7138 23.8986C15.7001 23.9044 15.6878 23.9128 15.6774 23.9235C15.6671 23.9341 15.659 23.9467 15.6536 23.9605C15.6482 23.9743 15.6456 23.9891 15.646 24.0039C15.646 24.0659 15.696 24.1179 15.757 24.1169C15.7725 24.1167 15.7878 24.1133 15.8019 24.107C15.8161 24.1008 15.8289 24.0917 15.8395 24.0805C15.8502 24.0692 15.8584 24.0559 15.8638 24.0414C15.8692 24.0268 15.8717 24.0114 15.871 23.9959C15.8687 23.9673 15.8557 23.9405 15.8346 23.9211C15.8134 23.9016 15.7857 23.8908 15.757 23.8909V23.8899ZM16.32 23.8899C16.3052 23.8899 16.2905 23.8929 16.2768 23.8986C16.2631 23.9044 16.2508 23.9128 16.2404 23.9235C16.2301 23.9341 16.222 23.9467 16.2166 23.9605C16.2112 23.9743 16.2086 23.9891 16.209 24.0039C16.209 24.0659 16.258 24.1179 16.319 24.1169C16.3345 24.1167 16.3498 24.1133 16.3639 24.107C16.3781 24.1008 16.3909 24.0917 16.4015 24.0805C16.4122 24.0692 16.4204 24.0559 16.4258 24.0414C16.4312 24.0268 16.4337 24.0114 16.433 23.9959C16.4307 23.9674 16.4179 23.9408 16.3969 23.9214C16.376 23.9019 16.3486 23.8911 16.32 23.8909V23.8899ZM16.88 23.8899C16.8652 23.89 16.8506 23.8931 16.837 23.8989C16.8234 23.9047 16.811 23.9132 16.8007 23.9238C16.7904 23.9344 16.7823 23.9469 16.7768 23.9607C16.7714 23.9744 16.7687 23.9891 16.769 24.0039C16.769 24.0639 16.819 24.1169 16.88 24.1169C16.8956 24.1169 16.911 24.1138 16.9253 24.1076C16.9396 24.1014 16.9525 24.0924 16.9632 24.0811C16.9739 24.0697 16.9821 24.0563 16.9874 24.0417C16.9927 24.027 16.9949 24.0115 16.994 23.9959C16.9922 23.9671 16.9793 23.9401 16.9581 23.9205C16.9368 23.9009 16.9089 23.8903 16.88 23.8909V23.8899ZM17.443 23.8899C17.4281 23.8899 17.4134 23.8929 17.3997 23.8986C17.3859 23.9044 17.3735 23.9128 17.3631 23.9234C17.3526 23.934 17.3444 23.9466 17.3389 23.9604C17.3334 23.9743 17.3307 23.989 17.331 24.0039C17.332 24.0639 17.381 24.1169 17.443 24.1169C17.4585 24.1168 17.4738 24.1135 17.488 24.1073C17.5022 24.1011 17.5149 24.092 17.5255 24.0807C17.5361 24.0694 17.5443 24.056 17.5495 24.0415C17.5547 24.0269 17.5569 24.0114 17.556 23.9959C17.5542 23.9673 17.5415 23.9404 17.5204 23.9209C17.4994 23.9013 17.4717 23.8906 17.443 23.8909V23.8899ZM18.005 23.8899C17.9902 23.89 17.9756 23.8931 17.962 23.8989C17.9484 23.9047 17.936 23.9132 17.9257 23.9238C17.9154 23.9344 17.9073 23.9469 17.9018 23.9607C17.8964 23.9744 17.8937 23.9891 17.894 24.0039C17.894 24.0639 17.944 24.1169 18.005 24.1169C18.0206 24.1169 18.036 24.1138 18.0503 24.1076C18.0646 24.1014 18.0775 24.0924 18.0882 24.0811C18.0989 24.0697 18.1071 24.0563 18.1124 24.0417C18.1177 24.027 18.1199 24.0115 18.119 23.9959C18.1172 23.9671 18.1043 23.9401 18.0831 23.9205C18.0618 23.9009 18.0339 23.8903 18.005 23.8909V23.8899ZM18.568 23.8899C18.5531 23.8899 18.5384 23.8929 18.5247 23.8986C18.5109 23.9044 18.4985 23.9128 18.4881 23.9234C18.4776 23.934 18.4694 23.9466 18.4639 23.9604C18.4584 23.9743 18.4557 23.989 18.456 24.0039C18.457 24.0639 18.506 24.1169 18.568 24.1169C18.5977 24.1161 18.626 24.104 18.647 24.083C18.6681 24.0619 18.6802 24.0336 18.681 24.0039C18.6817 23.9973 18.6817 23.9906 18.681 23.9839C18.6762 23.9575 18.6623 23.9337 18.6416 23.9166C18.6209 23.8996 18.5948 23.8905 18.568 23.8909V23.8899ZM19.13 23.8899C19.1152 23.8899 19.1005 23.8929 19.0868 23.8986C19.0731 23.9044 19.0608 23.9128 19.0504 23.9235C19.0401 23.9341 19.032 23.9467 19.0266 23.9605C19.0212 23.9743 19.0186 23.9891 19.019 24.0039C19.019 24.0659 19.069 24.1179 19.13 24.1169C19.1599 24.1164 19.1884 24.1044 19.2097 24.0833C19.2309 24.0623 19.2432 24.0338 19.244 24.0039V23.9959C19.2417 23.9673 19.2287 23.9405 19.2076 23.9211C19.1864 23.9016 19.1587 23.8908 19.13 23.8909V23.8899ZM19.693 23.8899C19.6781 23.8898 19.6633 23.8926 19.6495 23.8983C19.6357 23.904 19.6232 23.9125 19.6128 23.9231C19.6023 23.9338 19.5941 23.9464 19.5886 23.9603C19.5832 23.9742 19.5806 23.989 19.581 24.0039C19.582 24.0659 19.631 24.1179 19.693 24.1169C19.7227 24.1161 19.751 24.104 19.772 24.083C19.7931 24.0619 19.8052 24.0336 19.806 24.0039V23.9959C19.8037 23.9674 19.7909 23.9408 19.7699 23.9214C19.749 23.9019 19.7216 23.8911 19.693 23.8909V23.8899ZM20.255 23.8899C20.2402 23.8899 20.2255 23.8929 20.2118 23.8986C20.1981 23.9044 20.1858 23.9128 20.1754 23.9235C20.1651 23.9341 20.157 23.9467 20.1516 23.9605C20.1462 23.9743 20.1436 23.9891 20.144 24.0039C20.144 24.0659 20.194 24.1179 20.255 24.1169C20.2705 24.1167 20.2858 24.1133 20.2999 24.107C20.3141 24.1008 20.3269 24.0917 20.3375 24.0805C20.3482 24.0692 20.3564 24.0559 20.3618 24.0414C20.3672 24.0268 20.3697 24.0114 20.369 23.9959C20.3667 23.9673 20.3537 23.9405 20.3326 23.9211C20.3114 23.9016 20.2837 23.8908 20.255 23.8909V23.8899ZM20.818 23.8899C20.8031 23.8898 20.7883 23.8926 20.7745 23.8983C20.7607 23.904 20.7482 23.9125 20.7378 23.9231C20.7273 23.9338 20.7191 23.9464 20.7136 23.9603C20.7082 23.9742 20.7056 23.989 20.706 24.0039C20.707 24.0659 20.756 24.1179 20.818 24.1169C20.8334 24.1165 20.8486 24.1131 20.8626 24.1068C20.8767 24.1004 20.8894 24.0914 20.8999 24.0801C20.9104 24.0689 20.9186 24.0556 20.9239 24.0411C20.9293 24.0267 20.9317 24.0113 20.931 23.9959C20.9287 23.9674 20.9159 23.9408 20.8949 23.9214C20.874 23.9019 20.8466 23.8911 20.818 23.8909V23.8899ZM21.378 23.8899C21.3633 23.8902 21.3488 23.8933 21.3353 23.8992C21.3218 23.9051 21.3096 23.9135 21.2994 23.9241C21.2892 23.9347 21.2811 23.9472 21.2757 23.9609C21.2704 23.9746 21.2677 23.9892 21.268 24.0039C21.268 24.0639 21.317 24.1169 21.378 24.1169C21.3936 24.1169 21.409 24.1138 21.4233 24.1076C21.4376 24.1014 21.4505 24.0924 21.4612 24.0811C21.4719 24.0697 21.4801 24.0563 21.4854 24.0417C21.4907 24.027 21.4929 24.0115 21.492 23.9959C21.4902 23.9671 21.4773 23.9401 21.4561 23.9205C21.4348 23.9009 21.4069 23.8903 21.378 23.8909V23.8899ZM21.941 23.8899C21.9262 23.89 21.9116 23.8931 21.898 23.8989C21.8844 23.9047 21.872 23.9132 21.8617 23.9238C21.8514 23.9344 21.8433 23.9469 21.8378 23.9607C21.8324 23.9744 21.8297 23.9891 21.83 24.0039C21.83 24.0639 21.88 24.1169 21.94 24.1169C21.9556 24.1169 21.971 24.1138 21.9853 24.1076C21.9996 24.1014 22.0125 24.0924 22.0232 24.0811C22.0339 24.0697 22.0421 24.0563 22.0474 24.0417C22.0527 24.027 22.0549 24.0115 22.054 23.9959C22.0522 23.9673 22.0395 23.9404 22.0184 23.9209C21.9974 23.9013 21.9697 23.8906 21.941 23.8909V23.8899ZM22.503 23.8899C22.4883 23.89 22.4738 23.8931 22.4603 23.8989C22.4468 23.9048 22.4346 23.9133 22.4244 23.9239C22.4142 23.9345 22.4063 23.9471 22.4011 23.9608C22.3959 23.9746 22.3934 23.9892 22.394 24.0039C22.394 24.0639 22.442 24.1159 22.504 24.1169C22.5339 24.1166 22.5625 24.1047 22.5836 24.0835C22.6047 24.0624 22.6167 24.0338 22.617 24.0039C22.6173 23.9889 22.6145 23.9739 22.6089 23.96C22.6032 23.946 22.5948 23.9333 22.5842 23.9227C22.5736 23.9121 22.5609 23.9037 22.5469 23.898C22.533 23.8924 22.518 23.8896 22.503 23.8899ZM23.066 23.8899C23.0512 23.89 23.0366 23.8931 23.023 23.8989C23.0094 23.9047 22.997 23.9132 22.9867 23.9238C22.9764 23.9344 22.9683 23.9469 22.9628 23.9607C22.9574 23.9744 22.9547 23.9891 22.955 24.0039C22.955 24.0639 23.005 24.1169 23.065 24.1169C23.0949 24.1164 23.1234 24.1044 23.1447 24.0833C23.1659 24.0623 23.1782 24.0338 23.179 24.0039C23.1797 23.9973 23.1797 23.9906 23.179 23.9839C23.1742 23.9575 23.1603 23.9337 23.1396 23.9166C23.1189 23.8996 23.0928 23.8905 23.066 23.8909V23.8899ZM23.628 23.8899C23.6131 23.8899 23.5983 23.8929 23.5845 23.8986C23.5707 23.9043 23.5582 23.9128 23.5477 23.9234C23.5372 23.934 23.5289 23.9465 23.5233 23.9604C23.5177 23.9742 23.5149 23.989 23.515 24.0039C23.515 24.0659 23.566 24.1179 23.628 24.1169C23.69 24.1169 23.739 24.0649 23.74 24.0039C23.7407 23.9973 23.7407 23.9906 23.74 23.9839C23.7357 23.9575 23.7219 23.9336 23.7014 23.9165C23.6808 23.8994 23.6547 23.8903 23.628 23.8909V23.8899ZM24.191 23.8899C24.1762 23.8899 24.1615 23.8929 24.1478 23.8986C24.1341 23.9044 24.1218 23.9128 24.1114 23.9235C24.1011 23.9341 24.093 23.9467 24.0876 23.9605C24.0822 23.9743 24.0796 23.9891 24.08 24.0039C24.08 24.0659 24.129 24.1179 24.19 24.1169C24.2055 24.1167 24.2208 24.1133 24.2349 24.107C24.2491 24.1008 24.2619 24.0917 24.2725 24.0805C24.2832 24.0692 24.2914 24.0559 24.2968 24.0414C24.3022 24.0268 24.3047 24.0114 24.304 23.9959C24.3017 23.9674 24.2889 23.9408 24.2679 23.9214C24.247 23.9019 24.2196 23.8911 24.191 23.8909V23.8899ZM24.753 23.8899C24.7381 23.8899 24.7233 23.8929 24.7095 23.8986C24.6957 23.9043 24.6832 23.9128 24.6727 23.9234C24.6622 23.934 24.6539 23.9465 24.6483 23.9604C24.6427 23.9742 24.6399 23.989 24.64 24.0039C24.64 24.0659 24.691 24.1179 24.753 24.1169C24.7685 24.1167 24.7838 24.1133 24.7979 24.107C24.8121 24.1008 24.8249 24.0917 24.8355 24.0805C24.8462 24.0692 24.8544 24.0559 24.8598 24.0414C24.8652 24.0268 24.8677 24.0114 24.867 23.9959C24.8647 23.9673 24.8517 23.9405 24.8306 23.9211C24.8094 23.9016 24.7817 23.8908 24.753 23.8909V23.8899ZM25.314 23.8899C25.2992 23.89 25.2846 23.8931 25.271 23.8989C25.2574 23.9047 25.245 23.9132 25.2347 23.9238C25.2244 23.9344 25.2163 23.9469 25.2108 23.9607C25.2054 23.9744 25.2027 23.9891 25.203 24.0039C25.203 24.0639 25.253 24.1169 25.314 24.1169C25.3295 24.1168 25.3448 24.1135 25.359 24.1073C25.3732 24.1011 25.3859 24.092 25.3965 24.0807C25.4071 24.0694 25.4153 24.056 25.4205 24.0415C25.4257 24.0269 25.4279 24.0114 25.427 23.9959C25.4252 23.9673 25.4125 23.9404 25.3914 23.9209C25.3704 23.9013 25.3427 23.8906 25.314 23.8909V23.8899ZM25.877 23.8899C25.8621 23.8899 25.8474 23.8929 25.8337 23.8986C25.8199 23.9044 25.8075 23.9128 25.7971 23.9234C25.7866 23.934 25.7784 23.9466 25.7729 23.9604C25.7674 23.9743 25.7647 23.989 25.765 24.0039C25.765 24.0639 25.815 24.1169 25.876 24.1169C25.8916 24.1169 25.907 24.1138 25.9213 24.1076C25.9356 24.1014 25.9485 24.0924 25.9592 24.0811C25.9699 24.0697 25.9781 24.0563 25.9834 24.0417C25.9887 24.027 25.9909 24.0115 25.99 23.9959C25.9882 23.9673 25.9755 23.9404 25.9544 23.9209C25.9334 23.9013 25.9057 23.8906 25.877 23.8909V23.8899ZM26.439 23.8899C26.4242 23.89 26.4096 23.8931 26.396 23.8989C26.3824 23.9047 26.37 23.9132 26.3597 23.9238C26.3494 23.9344 26.3413 23.9469 26.3358 23.9607C26.3304 23.9744 26.3277 23.9891 26.328 24.0039C26.328 24.0639 26.378 24.1169 26.439 24.1169C26.4546 24.1168 26.47 24.1135 26.4843 24.1073C26.4985 24.1011 26.5114 24.0921 26.5222 24.0808C26.5329 24.0695 26.5413 24.0562 26.5467 24.0416C26.5522 24.027 26.5547 24.0115 26.554 23.9959C26.5517 23.9671 26.5386 23.9402 26.5172 23.9207C26.4959 23.9012 26.4679 23.8906 26.439 23.8909V23.8899ZM27.002 23.8899C26.9871 23.8899 26.9724 23.8929 26.9587 23.8986C26.9449 23.9044 26.9325 23.9128 26.9221 23.9234C26.9116 23.934 26.9034 23.9466 26.8979 23.9604C26.8924 23.9743 26.8897 23.989 26.89 24.0039C26.89 24.0639 26.94 24.1159 27.001 24.1169C27.0312 24.1169 27.0603 24.1051 27.082 24.084C27.1036 24.0629 27.1162 24.0341 27.117 24.0039C27.117 23.9888 27.114 23.9738 27.1081 23.9598C27.1023 23.9459 27.0937 23.9332 27.0829 23.9226C27.0721 23.912 27.0593 23.9036 27.0452 23.898C27.0312 23.8924 27.0161 23.8896 27.001 23.8899H27.002ZM27.564 23.8899C27.5492 23.89 27.5346 23.8931 27.521 23.8989C27.5074 23.9047 27.495 23.9132 27.4847 23.9238C27.4744 23.9344 27.4663 23.9469 27.4608 23.9607C27.4554 23.9744 27.4527 23.9891 27.453 24.0039C27.453 24.0639 27.503 24.1169 27.564 24.1169C27.5937 24.1161 27.622 24.104 27.643 24.083C27.6641 24.0619 27.6762 24.0336 27.677 24.0039C27.6777 23.9973 27.6777 23.9906 27.677 23.9839C27.6722 23.9575 27.6583 23.9337 27.6376 23.9166C27.6169 23.8996 27.5908 23.8905 27.564 23.8909V23.8899ZM28.127 23.8899C28.1121 23.8898 28.0973 23.8926 28.0835 23.8983C28.0697 23.904 28.0572 23.9125 28.0468 23.9231C28.0363 23.9338 28.0281 23.9464 28.0226 23.9603C28.0172 23.9742 28.0146 23.989 28.015 24.0039C28.015 24.0659 28.065 24.1179 28.126 24.1169C28.1415 24.1167 28.1568 24.1133 28.1709 24.107C28.1851 24.1008 28.1979 24.0917 28.2085 24.0805C28.2192 24.0692 28.2274 24.0559 28.2328 24.0414C28.2382 24.0268 28.2407 24.0114 28.24 23.9959C28.2377 23.9674 28.2249 23.9408 28.2039 23.9214C28.183 23.9019 28.1556 23.8911 28.127 23.8909V23.8899ZM28.689 23.8899C28.6741 23.8899 28.6593 23.8929 28.6455 23.8986C28.6317 23.9043 28.6192 23.9128 28.6087 23.9234C28.5982 23.934 28.5899 23.9465 28.5843 23.9604C28.5787 23.9742 28.5759 23.989 28.576 24.0039C28.576 24.0659 28.627 24.1179 28.689 24.1169C28.7044 24.1165 28.7196 24.1131 28.7336 24.1068C28.7477 24.1004 28.7604 24.0914 28.7709 24.0801C28.7814 24.0689 28.7896 24.0556 28.7949 24.0411C28.8002 24.0267 28.8027 24.0113 28.802 23.9959C28.7997 23.9674 28.7869 23.9408 28.7659 23.9214C28.745 23.9019 28.7176 23.8911 28.689 23.8909V23.8899ZM29.252 23.8899C29.237 23.8898 29.2221 23.8926 29.2082 23.8983C29.1943 23.904 29.1817 23.9124 29.1711 23.923C29.1605 23.9336 29.1521 23.9462 29.1464 23.9601C29.1407 23.974 29.1379 23.9889 29.138 24.0039C29.138 24.0659 29.189 24.1179 29.251 24.1169C29.2665 24.1167 29.2818 24.1133 29.2959 24.107C29.3101 24.1008 29.3229 24.0917 29.3335 24.0805C29.3442 24.0692 29.3524 24.0559 29.3578 24.0414C29.3632 24.0268 29.3657 24.0114 29.365 23.9959C29.3627 23.9674 29.3499 23.9408 29.3289 23.9214C29.308 23.9019 29.2806 23.8911 29.252 23.8909V23.8899ZM29.812 23.8899C29.7972 23.89 29.7826 23.8931 29.769 23.8989C29.7554 23.9047 29.743 23.9132 29.7327 23.9238C29.7224 23.9344 29.7143 23.9469 29.7088 23.9607C29.7034 23.9744 29.7007 23.9891 29.701 24.0039C29.701 24.0639 29.751 24.1169 29.812 24.1169C29.8275 24.1168 29.8428 24.1135 29.857 24.1073C29.8712 24.1011 29.8839 24.092 29.8945 24.0807C29.9051 24.0694 29.9133 24.056 29.9185 24.0415C29.9237 24.0269 29.9259 24.0114 29.925 23.9959C29.9232 23.9673 29.9105 23.9404 29.8894 23.9209C29.8684 23.9013 29.8407 23.8906 29.812 23.8909V23.8899ZM30.375 23.8899C30.3601 23.8899 30.3454 23.8929 30.3317 23.8986C30.3179 23.9044 30.3055 23.9128 30.2951 23.9234C30.2846 23.934 30.2764 23.9466 30.2709 23.9604C30.2654 23.9743 30.2627 23.989 30.263 24.0039C30.263 24.0639 30.313 24.1169 30.374 24.1169C30.3897 24.1169 30.4052 24.1138 30.4196 24.1076C30.434 24.1015 30.447 24.0925 30.4578 24.0812C30.4687 24.0699 30.4771 24.0565 30.4826 24.0418C30.4882 24.0272 30.4907 24.0116 30.49 23.9959C30.4877 23.9671 30.4746 23.9402 30.4532 23.9207C30.4319 23.9012 30.4039 23.8906 30.375 23.8909V23.8899ZM30.937 23.8899C30.9222 23.89 30.9076 23.8931 30.894 23.8989C30.8804 23.9047 30.868 23.9132 30.8577 23.9238C30.8474 23.9344 30.8393 23.9469 30.8338 23.9607C30.8284 23.9744 30.8257 23.9891 30.826 24.0039C30.826 24.0639 30.876 24.1169 30.937 24.1169C30.9526 24.1168 30.968 24.1135 30.9823 24.1073C30.9965 24.1011 31.0094 24.0921 31.0202 24.0808C31.0309 24.0695 31.0393 24.0562 31.0447 24.0416C31.0502 24.027 31.0527 24.0115 31.052 23.9959C31.0497 23.9671 31.0366 23.9402 31.0152 23.9207C30.9939 23.9012 30.9659 23.8906 30.937 23.8909V23.8899ZM31.5 23.8899C31.4851 23.8899 31.4704 23.8929 31.4567 23.8986C31.4429 23.9044 31.4305 23.9128 31.4201 23.9234C31.4096 23.934 31.4014 23.9466 31.3959 23.9604C31.3904 23.9743 31.3877 23.989 31.388 24.0039C31.388 24.0639 31.438 24.1169 31.499 24.1169C31.5289 24.1164 31.5574 24.1044 31.5787 24.0833C31.5999 24.0623 31.6122 24.0338 31.613 24.0039C31.6135 23.9973 31.6135 23.9906 31.613 23.9839C31.6082 23.9575 31.5943 23.9337 31.5736 23.9166C31.5529 23.8996 31.5268 23.8905 31.5 23.8909V23.8899ZM32.062 23.8899C32.0472 23.8899 32.0325 23.8929 32.0188 23.8986C32.0051 23.9044 31.9928 23.9128 31.9824 23.9235C31.9721 23.9341 31.964 23.9467 31.9586 23.9605C31.9532 23.9743 31.9506 23.9891 31.951 24.0039C31.951 24.0659 32 24.1179 32.062 24.1169C32.0917 24.1161 32.12 24.104 32.1411 24.083C32.1621 24.0619 32.1742 24.0336 32.175 24.0039C32.1755 23.9973 32.1755 23.9906 32.175 23.9839C32.1702 23.9575 32.1563 23.9337 32.1356 23.9166C32.1149 23.8996 32.0888 23.8905 32.062 23.8909V23.8899ZM32.625 23.8899C32.61 23.8898 32.5951 23.8926 32.5812 23.8983C32.5673 23.904 32.5547 23.9124 32.5441 23.923C32.5335 23.9336 32.5251 23.9462 32.5194 23.9601C32.5137 23.974 32.5109 23.9889 32.511 24.0039C32.511 24.0659 32.562 24.1179 32.624 24.1169C32.6395 24.1167 32.6548 24.1133 32.6689 24.107C32.6831 24.1008 32.6959 24.0917 32.7065 24.0805C32.7172 24.0692 32.7254 24.0559 32.7308 24.0414C32.7362 24.0268 32.7387 24.0114 32.738 23.9959C32.7357 23.9673 32.7227 23.9405 32.7016 23.9211C32.6804 23.9016 32.6527 23.8908 32.624 23.8909L32.625 23.8899ZM33.187 23.8899C33.1721 23.8899 33.1573 23.8929 33.1435 23.8986C33.1297 23.9043 33.1172 23.9128 33.1067 23.9234C33.0962 23.934 33.0879 23.9465 33.0823 23.9604C33.0767 23.9742 33.0739 23.989 33.074 24.0039C33.074 24.0659 33.125 24.1179 33.187 24.1169C33.2024 24.1165 33.2176 24.1131 33.2316 24.1068C33.2457 24.1004 33.2584 24.0914 33.2689 24.0801C33.2794 24.0689 33.2876 24.0556 33.2929 24.0411C33.2982 24.0267 33.3007 24.0113 33.3 23.9959C33.2977 23.9674 33.2849 23.9408 33.2639 23.9214C33.243 23.9019 33.2156 23.8911 33.187 23.8909V23.8899ZM33.75 23.8899C33.7351 23.8898 33.7203 23.8926 33.7065 23.8983C33.6927 23.904 33.6802 23.9125 33.6698 23.9231C33.6593 23.9338 33.6511 23.9464 33.6456 23.9603C33.6402 23.9742 33.6376 23.989 33.638 24.0039C33.638 24.0659 33.688 24.1179 33.749 24.1169C33.7645 24.1167 33.7798 24.1133 33.7939 24.107C33.8081 24.1008 33.8209 24.0917 33.8315 24.0805C33.8422 24.0692 33.8504 24.0559 33.8558 24.0414C33.8612 24.0268 33.8637 24.0114 33.863 23.9959C33.8607 23.9673 33.8477 23.9405 33.8266 23.9211C33.8054 23.9016 33.7777 23.8908 33.749 23.8909L33.75 23.8899ZM34.31 23.8899C34.2952 23.89 34.2806 23.8931 34.267 23.8989C34.2534 23.9047 34.241 23.9132 34.2307 23.9238C34.2204 23.9344 34.2123 23.9469 34.2068 23.9607C34.2014 23.9744 34.1987 23.9891 34.199 24.0039C34.199 24.0639 34.249 24.1169 34.31 24.1169C34.3255 24.1168 34.3408 24.1135 34.355 24.1073C34.3692 24.1011 34.3819 24.092 34.3925 24.0807C34.4031 24.0694 34.4113 24.056 34.4165 24.0415C34.4217 24.0269 34.4239 24.0114 34.423 23.9959C34.4212 23.9673 34.4085 23.9404 34.3874 23.9209C34.3664 23.9013 34.3387 23.8906 34.31 23.8909V23.8899ZM14.851 26.7199C14.6376 26.7146 14.4252 26.752 14.2265 26.83C14.0278 26.908 13.8467 27.0249 13.6939 27.174C13.541 27.323 13.4196 27.5012 13.3366 27.6979C13.2537 27.8946 13.211 28.1059 13.211 28.3194C13.211 28.5329 13.2537 28.7442 13.3366 28.9409C13.4196 29.1376 13.541 29.3158 13.6939 29.4648C13.8467 29.6139 14.0278 29.7309 14.2265 29.8088C14.4252 29.8868 14.6376 29.9242 14.851 29.9189C15.2683 29.9085 15.665 29.7354 15.9564 29.4365C16.2479 29.1377 16.411 28.7368 16.411 28.3194C16.411 27.902 16.2479 27.5011 15.9564 27.2023C15.665 26.9034 15.2683 26.7303 14.851 26.7199ZM18.474 26.7199C18.2606 26.7146 18.0482 26.752 17.8495 26.83C17.6508 26.908 17.4697 27.0249 17.3168 27.174C17.164 27.323 17.0426 27.5012 16.9596 27.6979C16.8767 27.8946 16.834 28.1059 16.834 28.3194C16.834 28.5329 16.8767 28.7442 16.9596 28.9409C17.0426 29.1376 17.164 29.3158 17.3168 29.4648C17.4697 29.6139 17.6508 29.7309 17.8495 29.8088C18.0482 29.8868 18.2606 29.9242 18.474 29.9189C18.8913 29.9085 19.288 29.7354 19.5794 29.4365C19.8709 29.1377 20.034 28.7368 20.034 28.3194C20.034 27.902 19.8709 27.5011 19.5794 27.2023C19.288 26.9034 18.8913 26.7303 18.474 26.7199ZM22.099 26.7199C21.6746 26.7199 21.2677 26.8885 20.9676 27.1885C20.6676 27.4886 20.499 27.8956 20.499 28.3199C20.499 28.7443 20.6676 29.1512 20.9676 29.4513C21.2677 29.7513 21.6746 29.9199 22.099 29.9199C22.5233 29.9199 22.9303 29.7513 23.2304 29.4513C23.5304 29.1512 23.699 28.7443 23.699 28.3199C23.699 27.8956 23.5304 27.4886 23.2304 27.1885C22.9303 26.8885 22.5233 26.7199 22.099 26.7199ZM25.722 26.7199C25.5086 26.7146 25.2962 26.752 25.0975 26.83C24.8988 26.908 24.7177 27.0249 24.5648 27.174C24.412 27.323 24.2906 27.5012 24.2076 27.6979C24.1247 27.8946 24.082 28.1059 24.082 28.3194C24.082 28.5329 24.1247 28.7442 24.2076 28.9409C24.2906 29.1376 24.412 29.3158 24.5648 29.4648C24.7177 29.6139 24.8988 29.7309 25.0975 29.8088C25.2962 29.8868 25.5086 29.9242 25.722 29.9189C26.1393 29.9085 26.536 29.7354 26.8274 29.4365C27.1189 29.1377 27.282 28.7368 27.282 28.3194C27.282 27.902 27.1189 27.5011 26.8274 27.2023C26.536 26.9034 26.1393 26.7303 25.722 26.7199ZM29.345 26.7199C29.1316 26.7146 28.9192 26.752 28.7205 26.83C28.5218 26.908 28.3407 27.0249 28.1878 27.174C28.035 27.323 27.9136 27.5012 27.8306 27.6979C27.7477 27.8946 27.705 28.1059 27.705 28.3194C27.705 28.5329 27.7477 28.7442 27.8306 28.9409C27.9136 29.1376 28.035 29.3158 28.1878 29.4648C28.3407 29.6139 28.5218 29.7309 28.7205 29.8088C28.9192 29.8868 29.1316 29.9242 29.345 29.9189C29.7623 29.9085 30.159 29.7354 30.4504 29.4365C30.7419 29.1377 30.905 28.7368 30.905 28.3194C30.905 27.902 30.7419 27.5011 30.4504 27.2023C30.159 26.9034 29.7623 26.7303 29.345 26.7199ZM32.97 26.7199C32.7566 26.7146 32.5442 26.752 32.3455 26.83C32.1468 26.908 31.9657 27.0249 31.8128 27.174C31.66 27.323 31.5386 27.5012 31.4556 27.6979C31.3727 27.8946 31.33 28.1059 31.33 28.3194C31.33 28.5329 31.3727 28.7442 31.4556 28.9409C31.5386 29.1376 31.66 29.3158 31.8128 29.4648C31.9657 29.6139 32.1468 29.7309 32.3455 29.8088C32.5442 29.8868 32.7566 29.9242 32.97 29.9189C33.3873 29.9085 33.784 29.7354 34.0754 29.4365C34.3669 29.1377 34.53 28.7368 34.53 28.3194C34.53 27.902 34.3669 27.5011 34.0754 27.2023C33.784 26.9034 33.3873 26.7303 32.97 26.7199ZM13.507 32.8899C13.4922 32.89 13.4776 32.8931 13.464 32.8989C13.4504 32.9047 13.438 32.9132 13.4277 32.9238C13.4174 32.9344 13.4093 32.9469 13.4038 32.9607C13.3984 32.9744 13.3957 32.9891 13.396 33.0039C13.396 33.0639 13.446 33.1159 13.507 33.1169C13.5371 33.1169 13.5659 33.105 13.5872 33.0839C13.6086 33.0627 13.6207 33.034 13.621 33.0039C13.6213 32.9889 13.6185 32.9739 13.6129 32.96C13.6072 32.946 13.5988 32.9333 13.5882 32.9227C13.5776 32.9121 13.5649 32.9037 13.5509 32.898C13.537 32.8924 13.522 32.8896 13.507 32.8899ZM14.07 32.8899C14.0417 32.8926 14.0155 32.9057 13.9964 32.9267C13.9772 32.9477 13.9667 32.975 13.9667 33.0034C13.9667 33.0318 13.9772 33.0592 13.9964 33.0802C14.0155 33.1011 14.0417 33.1143 14.07 33.1169C14.0997 33.1161 14.128 33.104 14.149 33.083C14.1701 33.0619 14.1822 33.0336 14.183 33.0039C14.1837 32.9973 14.1837 32.9906 14.183 32.9839C14.1782 32.9575 14.1643 32.9337 14.1436 32.9166C14.1229 32.8996 14.0968 32.8905 14.07 32.8909V32.8899ZM14.632 32.8899C14.6172 32.8899 14.6025 32.8929 14.5888 32.8986C14.5751 32.9044 14.5628 32.9128 14.5524 32.9235C14.5421 32.9341 14.534 32.9467 14.5286 32.9605C14.5232 32.9743 14.5206 32.9891 14.521 33.0039C14.521 33.0649 14.571 33.1179 14.632 33.1169C14.6619 33.1164 14.6904 33.1044 14.7117 33.0833C14.7329 33.0622 14.7452 33.0338 14.746 33.0039C14.7467 32.9973 14.7467 32.9906 14.746 32.9839C14.7412 32.9573 14.7271 32.9334 14.7062 32.9163C14.6853 32.8993 14.659 32.8902 14.632 32.8909V32.8899ZM15.195 32.8899C15.1802 32.8899 15.1655 32.8929 15.1518 32.8986C15.1381 32.9044 15.1258 32.9128 15.1154 32.9235C15.1051 32.9341 15.097 32.9467 15.0916 32.9605C15.0862 32.9743 15.0836 32.9891 15.084 33.0039C15.084 33.0649 15.133 33.1179 15.194 33.1169C15.2095 33.1167 15.2248 33.1133 15.2389 33.107C15.2531 33.1008 15.2659 33.0917 15.2765 33.0805C15.2872 33.0692 15.2954 33.0559 15.3008 33.0414C15.3062 33.0268 15.3087 33.0114 15.308 32.9959C15.3057 32.9674 15.2929 32.9408 15.2719 32.9214C15.251 32.9019 15.2236 32.8911 15.195 32.8909V32.8899ZM15.757 32.8899C15.7422 32.8899 15.7275 32.8929 15.7138 32.8986C15.7001 32.9044 15.6878 32.9128 15.6774 32.9235C15.6671 32.9341 15.659 32.9467 15.6536 32.9605C15.6482 32.9743 15.6456 32.9891 15.646 33.0039C15.646 33.0649 15.696 33.1179 15.757 33.1169C15.7725 33.1167 15.7878 33.1133 15.8019 33.107C15.8161 33.1008 15.8289 33.0917 15.8395 33.0805C15.8502 33.0692 15.8584 33.0559 15.8638 33.0414C15.8692 33.0268 15.8717 33.0114 15.871 32.9959C15.8687 32.9673 15.8557 32.9405 15.8346 32.9211C15.8134 32.9016 15.7857 32.8908 15.757 32.8909V32.8899ZM16.32 32.8899C16.3052 32.8899 16.2905 32.8929 16.2768 32.8986C16.2631 32.9044 16.2508 32.9128 16.2404 32.9235C16.2301 32.9341 16.222 32.9467 16.2166 32.9605C16.2112 32.9743 16.2086 32.9891 16.209 33.0039C16.209 33.0649 16.258 33.1179 16.319 33.1169C16.3345 33.1167 16.3498 33.1133 16.3639 33.107C16.3781 33.1008 16.3909 33.0917 16.4015 33.0805C16.4122 33.0692 16.4204 33.0559 16.4258 33.0414C16.4312 33.0268 16.4337 33.0114 16.433 32.9959C16.4307 32.9674 16.4179 32.9408 16.3969 32.9214C16.376 32.9019 16.3486 32.8911 16.32 32.8909V32.8899ZM16.88 32.8899C16.8502 32.8904 16.8218 32.9027 16.801 32.9241C16.7802 32.9454 16.7687 32.9741 16.769 33.0039C16.769 33.0639 16.819 33.1169 16.88 33.1169C16.8956 33.1169 16.911 33.1138 16.9253 33.1076C16.9396 33.1014 16.9525 33.0924 16.9632 33.0811C16.9739 33.0697 16.9821 33.0563 16.9874 33.0417C16.9927 33.027 16.9949 33.0115 16.994 32.9959C16.9922 32.9671 16.9793 32.9401 16.9581 32.9205C16.9368 32.9009 16.9089 32.8903 16.88 32.8909V32.8899ZM17.443 32.8899C17.4281 32.89 17.4135 32.8931 17.3998 32.8989C17.3862 32.9047 17.3738 32.9131 17.3634 32.9237C17.353 32.9343 17.3448 32.9468 17.3392 32.9606C17.3336 32.9743 17.3309 32.9891 17.331 33.0039C17.332 33.0639 17.381 33.1169 17.443 33.1169C17.4585 33.1168 17.4738 33.1135 17.488 33.1073C17.5022 33.1011 17.5149 33.092 17.5255 33.0807C17.5361 33.0694 17.5443 33.056 17.5495 33.0415C17.5547 33.0269 17.5569 33.0114 17.556 32.9959C17.5542 32.9673 17.5415 32.9404 17.5204 32.9209C17.4994 32.9013 17.4717 32.8906 17.443 32.8909V32.8899ZM18.005 32.8899C17.9752 32.8904 17.9468 32.9027 17.926 32.9241C17.9052 32.9454 17.8937 32.9741 17.894 33.0039C17.894 33.0639 17.944 33.1169 18.005 33.1169C18.0206 33.1169 18.036 33.1138 18.0503 33.1076C18.0646 33.1014 18.0775 33.0924 18.0882 33.0811C18.0989 33.0697 18.1071 33.0563 18.1124 33.0417C18.1177 33.027 18.1199 33.0115 18.119 32.9959C18.1172 32.9671 18.1043 32.9401 18.0831 32.9205C18.0618 32.9009 18.0339 32.8903 18.005 32.8909V32.8899ZM18.568 32.8899C18.5531 32.8899 18.5384 32.8929 18.5247 32.8986C18.5109 32.9044 18.4985 32.9128 18.4881 32.9234C18.4776 32.934 18.4694 32.9466 18.4639 32.9604C18.4584 32.9743 18.4557 32.989 18.456 33.0039C18.457 33.0639 18.506 33.1169 18.568 33.1169C18.5977 33.1161 18.626 33.104 18.647 33.083C18.6681 33.0619 18.6802 33.0336 18.681 33.0039C18.6817 32.9973 18.6817 32.9906 18.681 32.9839C18.6762 32.9575 18.6623 32.9337 18.6416 32.9166C18.6209 32.8996 18.5948 32.8905 18.568 32.8909V32.8899ZM19.13 32.8899C19.1152 32.8899 19.1005 32.8929 19.0868 32.8986C19.0731 32.9044 19.0608 32.9128 19.0504 32.9235C19.0401 32.9341 19.032 32.9467 19.0266 32.9605C19.0212 32.9743 19.0186 32.9891 19.019 33.0039C19.019 33.0649 19.069 33.1179 19.13 33.1169C19.1599 33.1164 19.1884 33.1044 19.2097 33.0833C19.2309 33.0622 19.2432 33.0338 19.244 33.0039V32.9959C19.2417 32.9673 19.2287 32.9405 19.2076 32.9211C19.1864 32.9016 19.1587 32.8908 19.13 32.8909V32.8899ZM19.693 32.8899C19.6781 32.8898 19.6633 32.8926 19.6495 32.8983C19.6357 32.904 19.6232 32.9125 19.6128 32.9231C19.6023 32.9337 19.5941 32.9464 19.5886 32.9603C19.5832 32.9742 19.5806 32.989 19.581 33.0039C19.582 33.0649 19.631 33.1179 19.693 33.1169C19.7227 33.1161 19.751 33.104 19.772 33.083C19.7931 33.0619 19.8052 33.0336 19.806 33.0039V32.9959C19.8037 32.9674 19.7909 32.9408 19.7699 32.9214C19.749 32.9019 19.7216 32.8911 19.693 32.8909V32.8899ZM20.255 32.8899C20.2402 32.8899 20.2255 32.8929 20.2118 32.8986C20.1981 32.9044 20.1858 32.9128 20.1754 32.9235C20.1651 32.9341 20.157 32.9467 20.1516 32.9605C20.1462 32.9743 20.1436 32.9891 20.144 33.0039C20.144 33.0649 20.194 33.1179 20.255 33.1169C20.2705 33.1167 20.2858 33.1133 20.2999 33.107C20.3141 33.1008 20.3269 33.0917 20.3375 33.0805C20.3482 33.0692 20.3564 33.0559 20.3618 33.0414C20.3672 33.0268 20.3697 33.0114 20.369 32.9959C20.3667 32.9673 20.3537 32.9405 20.3326 32.9211C20.3114 32.9016 20.2837 32.8908 20.255 32.8909V32.8899ZM20.818 32.8899C20.8031 32.8898 20.7883 32.8926 20.7745 32.8983C20.7607 32.904 20.7482 32.9125 20.7378 32.9231C20.7273 32.9337 20.7191 32.9464 20.7136 32.9603C20.7082 32.9742 20.7056 32.989 20.706 33.0039C20.707 33.0649 20.756 33.1179 20.818 33.1169C20.8334 33.1165 20.8486 33.1131 20.8626 33.1068C20.8767 33.1004 20.8894 33.0914 20.8999 33.0801C20.9104 33.0689 20.9186 33.0556 20.9239 33.0411C20.9293 33.0267 20.9317 33.0113 20.931 32.9959C20.9287 32.9674 20.9159 32.9408 20.8949 32.9214C20.874 32.9019 20.8466 32.8911 20.818 32.8909V32.8899ZM21.378 32.8899C21.3497 32.8926 21.3235 32.9057 21.3044 32.9267C21.2852 32.9477 21.2747 32.975 21.2747 33.0034C21.2747 33.0318 21.2852 33.0592 21.3044 33.0802C21.3235 33.1011 21.3497 33.1143 21.378 33.1169C21.3936 33.1169 21.409 33.1138 21.4233 33.1076C21.4376 33.1014 21.4505 33.0924 21.4612 33.0811C21.4719 33.0697 21.4801 33.0563 21.4854 33.0417C21.4907 33.027 21.4929 33.0115 21.492 32.9959C21.4902 32.9671 21.4773 32.9401 21.4561 32.9205C21.4348 32.9009 21.4069 32.8903 21.378 32.8909V32.8899ZM21.941 32.8899C21.9127 32.8926 21.8865 32.9057 21.8674 32.9267C21.8482 32.9477 21.8377 32.975 21.8377 33.0034C21.8377 33.0318 21.8482 33.0592 21.8674 33.0802C21.8865 33.1011 21.9127 33.1143 21.941 33.1169C21.9565 33.1168 21.9718 33.1135 21.986 33.1073C22.0002 33.1011 22.0129 33.092 22.0235 33.0807C22.0341 33.0694 22.0423 33.056 22.0475 33.0415C22.0527 33.0269 22.0549 33.0114 22.054 32.9959C22.0522 32.9673 22.0395 32.9404 22.0184 32.9209C21.9974 32.9013 21.9697 32.8906 21.941 32.8909V32.8899ZM22.503 32.8899C22.4883 32.89 22.4738 32.8931 22.4603 32.8989C22.4468 32.9048 22.4346 32.9133 22.4244 32.9239C22.4142 32.9345 22.4063 32.9471 22.4011 32.9608C22.3959 32.9746 22.3934 32.9892 22.394 33.0039C22.394 33.0639 22.442 33.1159 22.504 33.1169C22.5339 33.1166 22.5625 33.1047 22.5836 33.0835C22.6047 33.0624 22.6167 33.0338 22.617 33.0039C22.6173 32.9889 22.6145 32.9739 22.6089 32.96C22.6032 32.946 22.5948 32.9333 22.5842 32.9227C22.5736 32.9121 22.5609 32.9037 22.5469 32.898C22.533 32.8924 22.518 32.8896 22.503 32.8899ZM23.066 32.8899C23.0377 32.8926 23.0115 32.9057 22.9924 32.9267C22.9732 32.9477 22.9627 32.975 22.9627 33.0034C22.9627 33.0318 22.9732 33.0592 22.9924 33.0802C23.0115 33.1011 23.0377 33.1143 23.066 33.1169C23.0957 33.1161 23.124 33.104 23.145 33.083C23.1661 33.0619 23.1782 33.0336 23.179 33.0039C23.1797 32.9973 23.1797 32.9906 23.179 32.9839C23.1742 32.9575 23.1603 32.9337 23.1396 32.9166C23.1189 32.8996 23.0928 32.8905 23.066 32.8909V32.8899ZM23.628 32.8899C23.6131 32.8899 23.5983 32.8929 23.5845 32.8986C23.5707 32.9043 23.5582 32.9128 23.5477 32.9234C23.5372 32.934 23.5289 32.9465 23.5233 32.9604C23.5177 32.9742 23.5149 32.989 23.515 33.0039C23.515 33.0649 23.566 33.1179 23.628 33.1169C23.69 33.1169 23.739 33.0649 23.74 33.0039C23.7407 32.9973 23.7407 32.9906 23.74 32.9839C23.7359 32.9574 23.7222 32.9333 23.7016 32.9162C23.6809 32.8991 23.6548 32.8901 23.628 32.8909V32.8899ZM24.191 32.8899C24.1762 32.8899 24.1615 32.8929 24.1478 32.8986C24.1341 32.9044 24.1218 32.9128 24.1114 32.9235C24.1011 32.9341 24.093 32.9467 24.0876 32.9605C24.0822 32.9743 24.0796 32.9891 24.08 33.0039C24.08 33.0649 24.129 33.1179 24.19 33.1169C24.2055 33.1167 24.2208 33.1133 24.2349 33.107C24.2491 33.1008 24.2619 33.0917 24.2725 33.0805C24.2832 33.0692 24.2914 33.0559 24.2968 33.0414C24.3022 33.0268 24.3047 33.0114 24.304 32.9959C24.3017 32.9674 24.2889 32.9408 24.2679 32.9214C24.247 32.9019 24.2196 32.8911 24.191 32.8909V32.8899ZM24.753 32.8899C24.7381 32.8899 24.7233 32.8929 24.7095 32.8986C24.6957 32.9043 24.6832 32.9128 24.6727 32.9234C24.6622 32.934 24.6539 32.9465 24.6483 32.9604C24.6427 32.9742 24.6399 32.989 24.64 33.0039C24.64 33.0649 24.691 33.1179 24.753 33.1169C24.7685 33.1167 24.7838 33.1133 24.7979 33.107C24.8121 33.1008 24.8249 33.0917 24.8355 33.0805C24.8462 33.0692 24.8544 33.0559 24.8598 33.0414C24.8652 33.0268 24.8677 33.0114 24.867 32.9959C24.8647 32.9673 24.8517 32.9405 24.8306 32.9211C24.8094 32.9016 24.7817 32.8908 24.753 32.8909V32.8899ZM25.314 32.8899C25.2992 32.89 25.2846 32.8931 25.271 32.8989C25.2574 32.9047 25.245 32.9132 25.2347 32.9238C25.2244 32.9344 25.2163 32.9469 25.2108 32.9607C25.2054 32.9744 25.2027 32.9891 25.203 33.0039C25.203 33.0639 25.253 33.1169 25.314 33.1169C25.3295 33.1168 25.3448 33.1135 25.359 33.1073C25.3732 33.1011 25.3859 33.092 25.3965 33.0807C25.4071 33.0694 25.4153 33.056 25.4205 33.0415C25.4257 33.0269 25.4279 33.0114 25.427 32.9959C25.4252 32.9673 25.4125 32.9404 25.3914 32.9209C25.3704 32.9013 25.3427 32.8906 25.314 32.8909V32.8899ZM25.877 32.8899C25.8621 32.89 25.8475 32.8931 25.8338 32.8989C25.8202 32.9047 25.8078 32.9131 25.7974 32.9237C25.787 32.9343 25.7788 32.9468 25.7732 32.9606C25.7676 32.9743 25.7649 32.9891 25.765 33.0039C25.765 33.0639 25.815 33.1169 25.876 33.1169C25.8916 33.1169 25.907 33.1138 25.9213 33.1076C25.9356 33.1014 25.9485 33.0924 25.9592 33.0811C25.9699 33.0697 25.9781 33.0563 25.9834 33.0417C25.9887 33.027 25.9909 33.0115 25.99 32.9959C25.9882 32.9673 25.9755 32.9404 25.9544 32.9209C25.9334 32.9013 25.9057 32.8906 25.877 32.8909V32.8899ZM26.439 32.8899C26.4092 32.8904 26.3808 32.9027 26.36 32.9241C26.3392 32.9454 26.3277 32.9741 26.328 33.0039C26.328 33.0639 26.378 33.1169 26.439 33.1169C26.4546 33.1168 26.47 33.1135 26.4843 33.1073C26.4985 33.1011 26.5114 33.0921 26.5222 33.0808C26.5329 33.0695 26.5413 33.0562 26.5467 33.0416C26.5522 33.027 26.5547 33.0115 26.554 32.9959C26.5517 32.9671 26.5386 32.9402 26.5172 32.9207C26.4959 32.9012 26.4679 32.8906 26.439 32.8909V32.8899ZM27.002 32.8899C26.9871 32.89 26.9725 32.8931 26.9588 32.8989C26.9452 32.9047 26.9328 32.9131 26.9224 32.9237C26.912 32.9343 26.9038 32.9468 26.8982 32.9606C26.8926 32.9743 26.8899 32.9891 26.89 33.0039C26.89 33.0639 26.94 33.1159 27.001 33.1169C27.0312 33.1169 27.0603 33.1051 27.082 33.084C27.1036 33.0629 27.1162 33.0341 27.117 33.0039C27.117 32.9888 27.114 32.9738 27.1081 32.9598C27.1023 32.9459 27.0937 32.9332 27.0829 32.9226C27.0721 32.912 27.0593 32.9036 27.0452 32.898C27.0312 32.8924 27.0161 32.8896 27.001 32.8899H27.002ZM27.564 32.8899C27.5492 32.89 27.5346 32.8931 27.521 32.8989C27.5074 32.9047 27.495 32.9132 27.4847 32.9238C27.4744 32.9344 27.4663 32.9469 27.4608 32.9607C27.4554 32.9744 27.4527 32.9891 27.453 33.0039C27.453 33.0639 27.503 33.1169 27.564 33.1169C27.5937 33.1161 27.622 33.104 27.643 33.083C27.6641 33.0619 27.6762 33.0336 27.677 33.0039C27.6777 32.9973 27.6777 32.9906 27.677 32.9839C27.6722 32.9575 27.6583 32.9337 27.6376 32.9166C27.6169 32.8996 27.5908 32.8905 27.564 32.8909V32.8899ZM28.127 32.8899C28.1121 32.8898 28.0973 32.8926 28.0835 32.8983C28.0697 32.904 28.0572 32.9125 28.0468 32.9231C28.0363 32.9337 28.0281 32.9464 28.0226 32.9603C28.0172 32.9742 28.0146 32.989 28.015 33.0039C28.015 33.0649 28.065 33.1179 28.126 33.1169C28.1415 33.1167 28.1568 33.1133 28.1709 33.107C28.1851 33.1008 28.1979 33.0917 28.2085 33.0805C28.2192 33.0692 28.2274 33.0559 28.2328 33.0414C28.2382 33.0268 28.2407 33.0114 28.24 32.9959C28.2377 32.9674 28.2249 32.9408 28.2039 32.9214C28.183 32.9019 28.1556 32.8911 28.127 32.8909V32.8899ZM28.689 32.8899C28.6741 32.8899 28.6593 32.8929 28.6455 32.8986C28.6317 32.9043 28.6192 32.9128 28.6087 32.9234C28.5982 32.934 28.5899 32.9465 28.5843 32.9604C28.5787 32.9742 28.5759 32.989 28.576 33.0039C28.576 33.0649 28.627 33.1179 28.689 33.1169C28.7044 33.1165 28.7196 33.1131 28.7336 33.1068C28.7477 33.1004 28.7604 33.0914 28.7709 33.0801C28.7814 33.0689 28.7896 33.0556 28.7949 33.0411C28.8002 33.0267 28.8027 33.0113 28.802 32.9959C28.7997 32.9674 28.7869 32.9408 28.7659 32.9214C28.745 32.9019 28.7176 32.8911 28.689 32.8909V32.8899ZM29.252 32.8899C29.237 32.8898 29.2221 32.8926 29.2082 32.8983C29.1943 32.904 29.1817 32.9124 29.1711 32.923C29.1605 32.9336 29.1521 32.9462 29.1464 32.9601C29.1407 32.974 29.1379 32.9889 29.138 33.0039C29.138 33.0649 29.189 33.1179 29.251 33.1169C29.2665 33.1167 29.2818 33.1133 29.2959 33.107C29.3101 33.1008 29.3229 33.0917 29.3335 33.0805C29.3442 33.0692 29.3524 33.0559 29.3578 33.0414C29.3632 33.0268 29.3657 33.0114 29.365 32.9959C29.3627 32.9674 29.3499 32.9408 29.3289 32.9214C29.308 32.9019 29.2806 32.8911 29.252 32.8909V32.8899ZM29.812 32.8899C29.7837 32.8926 29.7575 32.9057 29.7384 32.9267C29.7192 32.9477 29.7087 32.975 29.7087 33.0034C29.7087 33.0318 29.7192 33.0592 29.7384 33.0802C29.7575 33.1011 29.7837 33.1143 29.812 33.1169C29.8275 33.1168 29.8428 33.1135 29.857 33.1073C29.8712 33.1011 29.8839 33.092 29.8945 33.0807C29.9051 33.0694 29.9133 33.056 29.9185 33.0415C29.9237 33.0269 29.9259 33.0114 29.925 32.9959C29.9232 32.9673 29.9105 32.9404 29.8894 32.9209C29.8684 32.9013 29.8407 32.8906 29.812 32.8909V32.8899ZM30.375 32.8899C30.3467 32.8926 30.3205 32.9057 30.3014 32.9267C30.2822 32.9477 30.2717 32.975 30.2717 33.0034C30.2717 33.0318 30.2822 33.0592 30.3014 33.0802C30.3205 33.1011 30.3467 33.1143 30.375 33.1169C30.3906 33.1168 30.406 33.1135 30.4203 33.1073C30.4345 33.1011 30.4474 33.0921 30.4582 33.0808C30.4689 33.0695 30.4773 33.0562 30.4827 33.0416C30.4882 33.027 30.4907 33.0115 30.49 32.9959C30.4877 32.9671 30.4746 32.9402 30.4532 32.9207C30.4319 32.9012 30.4039 32.8906 30.375 32.8909V32.8899ZM30.937 32.8899C30.9087 32.8926 30.8825 32.9057 30.8634 32.9267C30.8442 32.9477 30.8337 32.975 30.8337 33.0034C30.8337 33.0318 30.8442 33.0592 30.8634 33.0802C30.8825 33.1011 30.9087 33.1143 30.937 33.1169C30.9526 33.1168 30.968 33.1135 30.9823 33.1073C30.9965 33.1011 31.0094 33.0921 31.0202 33.0808C31.0309 33.0695 31.0393 33.0562 31.0447 33.0416C31.0502 33.027 31.0527 33.0115 31.052 32.9959C31.0497 32.9671 31.0366 32.9402 31.0152 32.9207C30.9939 32.9012 30.9659 32.8906 30.937 32.8909V32.8899ZM31.5 32.8899C31.4851 32.8899 31.4704 32.8929 31.4567 32.8986C31.4429 32.9044 31.4305 32.9128 31.4201 32.9234C31.4096 32.934 31.4014 32.9466 31.3959 32.9604C31.3904 32.9743 31.3877 32.989 31.388 33.0039C31.388 33.0639 31.438 33.1169 31.499 33.1169C31.5289 33.1164 31.5574 33.1044 31.5787 33.0833C31.5999 33.0622 31.6122 33.0338 31.613 33.0039C31.6135 32.9972 31.6135 32.9906 31.613 32.9839C31.6082 32.9575 31.5943 32.9337 31.5736 32.9166C31.5529 32.8996 31.5268 32.8905 31.5 32.8909V32.8899ZM32.062 32.8899C32.0472 32.8899 32.0325 32.8929 32.0188 32.8986C32.0051 32.9044 31.9928 32.9128 31.9824 32.9235C31.9721 32.9341 31.964 32.9467 31.9586 32.9605C31.9532 32.9743 31.9506 32.9891 31.951 33.0039C31.951 33.0649 32 33.1179 32.062 33.1169C32.0917 33.1161 32.12 33.104 32.1411 33.083C32.1621 33.0619 32.1742 33.0336 32.175 33.0039C32.1755 32.9972 32.1755 32.9906 32.175 32.9839C32.1702 32.9575 32.1563 32.9337 32.1356 32.9166C32.1149 32.8996 32.0888 32.8905 32.062 32.8909V32.8899ZM32.625 32.8899C32.61 32.8898 32.5951 32.8926 32.5812 32.8983C32.5673 32.904 32.5547 32.9124 32.5441 32.923C32.5335 32.9336 32.5251 32.9462 32.5194 32.9601C32.5137 32.974 32.5109 32.9889 32.511 33.0039C32.511 33.0649 32.562 33.1179 32.624 33.1169C32.6395 33.1167 32.6548 33.1133 32.6689 33.107C32.6831 33.1008 32.6959 33.0917 32.7065 33.0805C32.7172 33.0692 32.7254 33.0559 32.7308 33.0414C32.7362 33.0268 32.7387 33.0114 32.738 32.9959C32.7357 32.9673 32.7227 32.9405 32.7016 32.9211C32.6804 32.9016 32.6527 32.8908 32.624 32.8909L32.625 32.8899ZM33.187 32.8899C33.1721 32.8899 33.1573 32.8929 33.1435 32.8986C33.1297 32.9043 33.1172 32.9128 33.1067 32.9234C33.0962 32.934 33.0879 32.9465 33.0823 32.9604C33.0767 32.9742 33.0739 32.989 33.074 33.0039C33.074 33.0649 33.125 33.1179 33.187 33.1169C33.2024 33.1165 33.2176 33.1131 33.2316 33.1068C33.2457 33.1004 33.2584 33.0914 33.2689 33.0801C33.2794 33.0689 33.2876 33.0556 33.2929 33.0411C33.2982 33.0267 33.3007 33.0113 33.3 32.9959C33.2977 32.9674 33.2849 32.9408 33.2639 32.9214C33.243 32.9019 33.2156 32.8911 33.187 32.8909V32.8899ZM33.75 32.8899C33.7351 32.8898 33.7203 32.8926 33.7065 32.8983C33.6927 32.904 33.6802 32.9125 33.6698 32.9231C33.6593 32.9337 33.6511 32.9464 33.6456 32.9603C33.6402 32.9742 33.6376 32.989 33.638 33.0039C33.638 33.0649 33.688 33.1179 33.749 33.1169C33.7645 33.1167 33.7798 33.1133 33.7939 33.107C33.8081 33.1008 33.8209 33.0917 33.8315 33.0805C33.8422 33.0692 33.8504 33.0559 33.8558 33.0414C33.8612 33.0268 33.8637 33.0114 33.863 32.9959C33.8607 32.9673 33.8477 32.9405 33.8266 32.9211C33.8054 32.9016 33.7777 32.8908 33.749 32.8909L33.75 32.8899ZM34.31 32.8899C34.2802 32.8904 34.2518 32.9027 34.231 32.9241C34.2102 32.9454 34.1987 32.9741 34.199 33.0039C34.199 33.0639 34.249 33.1169 34.31 33.1169C34.3255 33.1168 34.3408 33.1135 34.355 33.1073C34.3692 33.1011 34.3819 33.092 34.3925 33.0807C34.4031 33.0694 34.4113 33.056 34.4165 33.0415C34.4217 33.0269 34.4239 33.0114 34.423 32.9959C34.4212 32.9673 34.4085 32.9404 34.3874 32.9209C34.3664 32.9013 34.3387 32.8906 34.31 32.8909V32.8899ZM14.869 35.3499C14.6542 35.3423 14.4402 35.378 14.2395 35.455C14.0389 35.5319 13.8558 35.6485 13.7012 35.7977C13.5466 35.9469 13.4237 36.1258 13.3397 36.3236C13.2557 36.5214 13.2124 36.734 13.2124 36.9489C13.2124 37.1638 13.2557 37.3765 13.3397 37.5742C13.4237 37.772 13.5466 37.9509 13.7012 38.1001C13.8558 38.2493 14.0389 38.3659 14.2395 38.4428C14.4402 38.5198 14.6542 38.5555 14.869 38.5479C15.2863 38.5375 15.683 38.3644 15.9744 38.0655C16.2659 37.7667 16.429 37.3658 16.429 36.9484C16.429 36.531 16.2659 36.1301 15.9744 35.8313C15.683 35.5324 15.2863 35.3593 14.869 35.3489V35.3499ZM18.492 35.3499C18.2772 35.3422 18.0632 35.3779 17.8625 35.4548C17.6619 35.5317 17.4787 35.6482 17.3241 35.7973C17.1694 35.9465 17.0464 36.1253 16.9624 36.3231C16.8783 36.5208 16.835 36.7335 16.8349 36.9484C16.8349 37.1633 16.8781 37.3759 16.962 37.5738C17.0459 37.7716 17.1688 37.9505 17.3234 38.0997C17.4779 38.249 17.661 38.3656 17.8616 38.4426C18.0622 38.5196 18.2762 38.5554 18.491 38.5479C18.9083 38.5375 19.305 38.3644 19.5964 38.0655C19.8879 37.7667 20.051 37.3658 20.051 36.9484C20.051 36.531 19.8879 36.1301 19.5964 35.8313C19.305 35.5324 18.9083 35.3593 18.491 35.3489L18.492 35.3499ZM22.117 35.3499C21.9022 35.3422 21.6882 35.3779 21.4875 35.4548C21.2869 35.5317 21.1037 35.6482 20.9491 35.7973C20.7944 35.9465 20.6714 36.1253 20.5874 36.3231C20.5033 36.5208 20.46 36.7335 20.4599 36.9484C20.4599 37.1633 20.5031 37.3759 20.587 37.5738C20.6709 37.7716 20.7938 37.9505 20.9484 38.0997C21.1029 38.249 21.286 38.3656 21.4866 38.4426C21.6872 38.5196 21.9012 38.5554 22.116 38.5479C22.5333 38.5375 22.93 38.3644 23.2214 38.0655C23.5129 37.7667 23.676 37.3658 23.676 36.9484C23.676 36.531 23.5129 36.1301 23.2214 35.8313C22.93 35.5324 22.5333 35.3593 22.116 35.3489L22.117 35.3499ZM25.74 35.3499C25.5252 35.3423 25.3112 35.378 25.1105 35.455C24.9099 35.5319 24.7268 35.6485 24.5722 35.7977C24.4176 35.9469 24.2947 36.1258 24.2107 36.3236C24.1267 36.5214 24.0834 36.734 24.0834 36.9489C24.0834 37.1638 24.1267 37.3765 24.2107 37.5742C24.2947 37.772 24.4176 37.9509 24.5722 38.1001C24.7268 38.2493 24.9099 38.3659 25.1105 38.4428C25.3112 38.5198 25.5252 38.5555 25.74 38.5479C26.1573 38.5375 26.554 38.3644 26.8454 38.0655C27.1369 37.7667 27.3 37.3658 27.3 36.9484C27.3 36.531 27.1369 36.1301 26.8454 35.8313C26.554 35.5324 26.1573 35.3593 25.74 35.3489V35.3499ZM29.363 35.3499C29.1482 35.3423 28.9342 35.378 28.7335 35.455C28.5329 35.5319 28.3498 35.6485 28.1952 35.7977C28.0406 35.9469 27.9177 36.1258 27.8337 36.3236C27.7497 36.5214 27.7064 36.734 27.7064 36.9489C27.7064 37.1638 27.7497 37.3765 27.8337 37.5742C27.9177 37.772 28.0406 37.9509 28.1952 38.1001C28.3498 38.2493 28.5329 38.3659 28.7335 38.4428C28.9342 38.5198 29.1482 38.5555 29.363 38.5479C29.7803 38.5375 30.177 38.3644 30.4684 38.0655C30.7599 37.7667 30.923 37.3658 30.923 36.9484C30.923 36.531 30.7599 36.1301 30.4684 35.8313C30.177 35.5324 29.7803 35.3593 29.363 35.3489V35.3499ZM32.988 35.3499C32.7732 35.3423 32.5592 35.378 32.3585 35.455C32.1579 35.5319 31.9748 35.6485 31.8202 35.7977C31.6656 35.9469 31.5427 36.1258 31.4587 36.3236C31.3747 36.5214 31.3314 36.734 31.3314 36.9489C31.3314 37.1638 31.3747 37.3765 31.4587 37.5742C31.5427 37.772 31.6656 37.9509 31.8202 38.1001C31.9748 38.2493 32.1579 38.3659 32.3585 38.4428C32.5592 38.5198 32.7732 38.5555 32.988 38.5479C33.4053 38.5375 33.802 38.3644 34.0934 38.0655C34.3849 37.7667 34.548 37.3658 34.548 36.9484C34.548 36.531 34.3849 36.1301 34.0934 35.8313C33.802 35.5324 33.4053 35.3593 32.988 35.3489V35.3499Z" fill="#333333"/>
</svg>
