<svg width="48" height="48" viewBox="0 0 48 48" fill="none" xmlns="http://www.w3.org/2000/svg">
<path fill-rule="evenodd" clip-rule="evenodd" d="M0.0883789 0.0927734V48.0927H48.0884V0.0927734H0.0883789ZM14.2349 4.09272H33.9399C34.8094 4.09272 35.5083 4.7917 35.5083 5.66114V42.5224C35.5083 43.3918 34.8094 44.0928 33.9399 44.0928H14.2349C13.3654 44.0928 12.6665 43.3918 12.6665 42.5224V5.66114C12.6665 4.7917 13.3654 4.09272 14.2349 4.09272ZM30.9321 4.8271C30.8732 4.83065 30.827 4.87922 30.8267 4.93818C30.8261 5.00092 30.8772 5.05194 30.9399 5.05156C31.0019 5.05107 31.052 5.00016 31.0513 4.93818C31.0508 4.87695 31.0012 4.82786 30.9399 4.8271C30.9373 4.82703 30.9359 4.82703 30.9321 4.8271ZM30.9321 5.38963C30.8732 5.39318 30.827 5.44182 30.8267 5.50116C30.8261 5.5639 30.8772 5.61492 30.9399 5.61454C31.0019 5.61405 31.052 5.56314 31.0513 5.50116C31.0508 5.43993 31.0012 5.39038 30.9399 5.38963C30.9373 5.38955 30.9359 5.38955 30.9321 5.38963ZM30.9321 5.95203C30.8732 5.95559 30.827 6.00423 30.8267 6.06357C30.8261 6.12631 30.8772 6.17733 30.9399 6.17695C31.0019 6.17646 31.052 6.12555 31.0513 6.06357C31.0508 6.00234 31.0012 5.95279 30.9399 5.95203C30.9373 5.95196 30.9359 5.95196 30.9321 5.95203ZM30.9204 6.51456C30.8669 6.52211 30.8282 6.57129 30.8286 6.62609C30.8291 6.68808 30.8795 6.73792 30.9419 6.73717C31.0031 6.73667 31.0528 6.6877 31.0532 6.62609C31.0528 6.56486 31.0031 6.51531 30.9419 6.51456C30.9343 6.51399 30.9319 6.51399 30.9243 6.51456H30.9224H30.9204ZM30.94 7.07512C30.8772 7.07451 30.8263 7.12576 30.8267 7.1885C30.8272 7.25048 30.8776 7.30007 30.94 7.29969C31.0012 7.2992 31.0505 7.25011 31.0513 7.1885C31.0518 7.12651 31.0023 7.07587 30.94 7.07512ZM24.8814 7.10153C23.9977 7.10157 23.2818 7.81759 23.2817 8.70121C23.2818 9.5849 23.9977 10.3008 24.8814 10.3008C25.765 10.3008 26.4809 9.5849 26.481 8.70121C26.4809 7.81759 25.765 7.10157 24.8814 7.10153ZM30.9321 7.63868C30.8724 7.64227 30.8259 7.69197 30.8267 7.75206C30.8272 7.81404 30.8776 7.86397 30.94 7.8636C31.0012 7.8631 31.0509 7.81367 31.0513 7.75206C31.0519 7.69008 31.0019 7.63943 30.94 7.63868C30.9374 7.63857 30.9359 7.63857 30.9321 7.63868ZM30.9321 8.2012C30.8724 8.20483 30.8259 8.25449 30.8267 8.31458C30.8272 8.37657 30.8776 8.4265 30.94 8.42612C31.0012 8.42566 31.0509 8.37619 31.0513 8.31458C31.0519 8.2526 31.0019 8.20196 30.94 8.2012C30.9374 8.20113 30.9359 8.20113 30.9321 8.2012ZM30.9321 8.76373C30.8724 8.76732 30.8259 8.81701 30.8267 8.87711C30.8272 8.93909 30.8776 8.98902 30.94 8.98864C31.0012 8.98815 31.0509 8.93871 31.0513 8.87711C31.0519 8.81512 31.0019 8.76448 30.94 8.76373C30.9374 8.76365 30.9359 8.76365 30.9321 8.76373ZM30.9321 9.32625C30.8732 9.3298 30.827 9.37836 30.8267 9.43732C30.8261 9.50006 30.8772 9.55108 30.94 9.5507C31.0019 9.55021 31.052 9.49931 31.0513 9.43732C31.0508 9.37609 31.0012 9.327 30.94 9.32625C30.9374 9.32617 30.9359 9.32617 30.9321 9.32625ZM19.3189 9.78911C18.4352 9.78915 17.7193 10.5051 17.7192 11.3887C17.7193 12.2723 18.4352 12.9884 19.3189 12.9884C20.2025 12.9884 20.9184 12.2723 20.9185 11.3887C20.9184 10.5051 20.2025 9.78915 19.3189 9.78911ZM30.9321 9.88854C30.8732 9.89217 30.827 9.94062 30.8267 9.99996C30.8261 10.0627 30.8772 10.1137 30.94 10.1133C31.0019 10.1129 31.052 10.0619 31.0513 9.99996C31.0508 9.93873 31.0012 9.8893 30.94 9.88854C30.9374 9.88843 30.9359 9.88843 30.9321 9.88854ZM30.9204 10.4509C30.8669 10.4585 30.8283 10.5077 30.8286 10.5625C30.828 10.6252 30.8792 10.6762 30.9419 10.6759C31.0039 10.6754 31.054 10.6245 31.0532 10.5625C31.0528 10.5013 31.0031 10.4517 30.9419 10.4509C30.9343 10.4504 30.9319 10.4504 30.9243 10.4509H30.9224H30.9204ZM30.94 11.0115C30.8772 11.0109 30.8263 11.0622 30.8267 11.1249C30.8272 11.1869 30.8776 11.2368 30.94 11.2361C31.0012 11.2356 31.0505 11.1865 31.0513 11.1249C31.0519 11.0629 31.0023 11.0123 30.94 11.0115ZM30.94 11.574C30.8772 11.5734 30.8263 11.6247 30.8267 11.6874C30.8272 11.7494 30.8776 11.7997 30.94 11.799C31.0012 11.7985 31.0505 11.7486 31.0513 11.6874C31.0519 11.6254 31.0023 11.5748 30.94 11.574ZM24.8814 11.875C23.9977 11.875 23.2818 12.5909 23.2818 13.4745C23.2818 14.3582 23.9977 15.0741 24.8814 15.0741C25.765 15.0741 26.4809 14.3582 26.481 13.4745C26.4809 12.5909 25.765 11.875 24.8814 11.875ZM30.9322 12.1368C30.8724 12.1404 30.8259 12.1901 30.8267 12.2502C30.8272 12.3122 30.8776 12.3625 30.94 12.3617C31.0012 12.3612 31.0509 12.3114 31.0513 12.2502C31.0519 12.1882 31.002 12.1375 30.94 12.1368C30.9374 12.1367 30.936 12.1367 30.9321 12.1368H30.9322ZM30.9322 12.6993C30.8724 12.7029 30.8259 12.7526 30.8267 12.8127C30.8272 12.8747 30.8776 12.925 30.94 12.9242C31.0012 12.9237 31.0509 12.8739 31.0513 12.8127C31.0519 12.7507 31.002 12.6997 30.94 12.6993C30.9374 12.6992 30.936 12.6992 30.9321 12.6993H30.9322ZM30.9322 13.2618C30.8732 13.2654 30.8271 13.3139 30.8267 13.3729C30.8261 13.4356 30.8772 13.4867 30.94 13.4863C31.0019 13.4858 31.052 13.4349 31.0513 13.3729C31.0508 13.3117 31.0012 13.2626 30.94 13.2618C30.9374 13.2618 30.936 13.2618 30.9321 13.2618H30.9322ZM30.9322 13.8244C30.8732 13.828 30.8271 13.8764 30.8267 13.9358C30.8261 13.9985 30.8772 14.0495 30.94 14.0492C31.0019 14.0487 31.052 13.9978 31.0513 13.9358C31.0508 13.8745 31.0012 13.8251 30.94 13.8244C30.9374 13.8243 30.936 13.8243 30.9321 13.8244H30.9322ZM30.9322 14.3868C30.8732 14.3904 30.8271 14.4393 30.8267 14.4983C30.8261 14.561 30.8772 14.6121 30.94 14.6117C31.0019 14.6112 31.052 14.5603 31.0513 14.4983C31.0508 14.4371 31.0012 14.3871 30.94 14.3868C30.9374 14.3867 30.936 14.3867 30.9321 14.3868H30.9322ZM19.3189 14.5625C18.4352 14.5626 17.7193 15.2786 17.7193 16.1622C17.7193 17.0459 18.4352 17.7618 19.3189 17.7618C20.2025 17.7618 20.9184 17.0459 20.9185 16.1622C20.9184 15.2786 20.2025 14.5626 19.3189 14.5625ZM30.9204 14.9493C30.8669 14.9568 30.8283 15.0064 30.8286 15.0608C30.828 15.1236 30.8792 15.1746 30.9419 15.1742C31.0039 15.1737 31.054 15.1228 31.0532 15.0608C31.0528 14.9996 31.0031 14.9497 30.9419 14.9493C30.9343 14.9487 30.9319 14.9487 30.9243 14.9493H30.9224H30.9204ZM30.9204 15.5118C30.8669 15.5194 30.8283 15.5685 30.8286 15.6229C30.8291 15.6849 30.8796 15.7348 30.9419 15.7344C31.0031 15.7339 31.0529 15.6841 31.0532 15.6229C31.0528 15.5617 31.0031 15.5126 30.9419 15.5118C30.9343 15.5112 30.9319 15.5112 30.9243 15.5118H30.9224H30.9204ZM30.94 16.0724C30.8772 16.0718 30.8263 16.123 30.8267 16.1858C30.8272 16.2477 30.8776 16.2979 30.94 16.2972C31.0012 16.2967 31.0505 16.247 31.0513 16.1858C31.0519 16.1238 31.0023 16.0731 30.94 16.0724ZM30.9321 16.6349C30.8724 16.6385 30.8259 16.6882 30.8267 16.7483C30.8272 16.8103 30.8776 16.8605 30.94 16.8597C31.0012 16.8592 31.0509 16.8095 31.0513 16.7483C31.0519 16.6863 31.002 16.6357 30.94 16.6349C30.9374 16.6348 30.9379 16.6348 30.9341 16.6349H30.9321ZM24.8833 17.1094C23.9997 17.1094 23.2837 17.8255 23.2837 18.7091C23.2837 19.5927 23.9997 20.3087 24.8833 20.3087C25.7669 20.3087 26.4829 19.5927 26.4829 18.7091C26.4829 17.8255 25.7669 17.1094 24.8833 17.1094ZM30.9321 17.1975C30.8724 17.2011 30.8259 17.2508 30.8267 17.3109C30.8272 17.3729 30.8776 17.4227 30.94 17.422C31.0012 17.4215 31.0509 17.3725 31.0513 17.3109C31.0519 17.2489 31.002 17.1983 30.94 17.1975C30.9374 17.1975 30.9379 17.1975 30.9341 17.1975H30.9321ZM30.9321 17.7599C30.8732 17.7636 30.8271 17.8125 30.8267 17.8715C30.8261 17.9342 30.8772 17.9852 30.94 17.9849C31.0019 17.9844 31.052 17.9335 31.0513 17.8715C31.0508 17.8102 31.0012 17.7603 30.94 17.7599C30.9374 17.7599 30.9379 17.7599 30.9341 17.7599H30.9321ZM30.9321 18.3225C30.8732 18.3261 30.8271 18.375 30.8267 18.434C30.8261 18.4967 30.8772 18.5478 30.94 18.5474C31.0019 18.5469 31.052 18.496 31.0513 18.434C31.0508 18.3728 31.0012 18.3228 30.94 18.3225C30.9374 18.3223 30.9379 18.3223 30.9341 18.3225H30.9321ZM30.9321 18.885C30.8732 18.8886 30.8271 18.9376 30.8267 18.9965C30.8261 19.0593 30.8772 19.1103 30.94 19.1099C31.0019 19.1094 31.052 19.0585 31.0513 18.9965C31.0508 18.9353 31.0012 18.8854 30.94 18.885C30.9374 18.8849 30.9379 18.8849 30.9341 18.885H30.9321ZM30.9224 19.4475C30.868 19.4551 30.8283 19.5038 30.8286 19.5586C30.828 19.6213 30.8792 19.6723 30.9419 19.672C31.0039 19.6715 31.054 19.6206 31.0533 19.5586C31.0528 19.4974 31.0032 19.4483 30.9419 19.4475C30.9343 19.4469 30.9319 19.4469 30.9244 19.4475H30.9224ZM19.3208 19.7971C18.4372 19.7971 17.7213 20.5131 17.7212 21.3967C17.7213 22.2803 18.4372 22.9964 19.3208 22.9964C20.2044 22.9964 20.9204 22.2803 20.9204 21.3967C20.9204 20.5131 20.2044 19.7971 19.3208 19.7971ZM30.9419 20.008C30.8792 20.0074 30.8283 20.0586 30.8286 20.1213C30.8291 20.1833 30.8796 20.2336 30.9419 20.2329C31.0032 20.2324 31.0525 20.1826 31.0533 20.1213C31.0538 20.0594 31.0043 20.0087 30.9419 20.008ZM30.9341 20.5705C30.8744 20.5741 30.8279 20.6238 30.8286 20.6839C30.8291 20.7458 30.8796 20.7962 30.9419 20.7954C31.0031 20.7949 31.0529 20.7451 31.0532 20.6839C31.0539 20.6219 31.0039 20.5709 30.9419 20.5705C30.9393 20.5704 30.9379 20.5704 30.9341 20.5705ZM30.9341 21.133C30.8744 21.1366 30.8279 21.1863 30.8286 21.2464C30.8291 21.3084 30.8796 21.3578 30.9419 21.3575C31.0031 21.357 31.0529 21.308 31.0532 21.2464C31.0539 21.1844 31.0039 21.1338 30.9419 21.133C30.9393 21.1329 30.9379 21.1329 30.9341 21.133ZM30.9341 21.6955C30.8744 21.6992 30.8279 21.7488 30.8286 21.8089C30.8291 21.8709 30.8796 21.9207 30.9419 21.92C31.0031 21.9195 31.0529 21.8705 31.0532 21.8089C31.0539 21.7469 31.0039 21.6963 30.9419 21.6955C30.9393 21.6954 30.9379 21.6954 30.9341 21.6955ZM30.9341 22.2579C30.8751 22.2616 30.829 22.3105 30.8286 22.3695C30.828 22.4322 30.8792 22.4832 30.9419 22.4829C31.0039 22.4824 31.054 22.4315 31.0532 22.3695C31.0528 22.3082 31.0032 22.2583 30.9419 22.2579C30.9393 22.2578 30.9379 22.2578 30.9341 22.2579ZM24.8833 22.3437C23.9997 22.3438 23.2838 23.0598 23.2837 23.9434C23.2838 24.8271 23.9997 25.543 24.8833 25.543C25.7669 25.543 26.4829 24.8271 26.4829 23.9434C26.4829 23.0598 25.7669 22.3438 24.8833 22.3437ZM30.9341 22.8203C30.8751 22.8239 30.829 22.8729 30.8286 22.9319C30.828 22.9946 30.8792 23.0456 30.9419 23.0453C31.0039 23.0448 31.054 22.9939 31.0532 22.9319C31.0528 22.8706 31.0032 22.8207 30.9419 22.8203C30.9393 22.8202 30.9379 22.8202 30.9341 22.8203ZM30.9341 23.3829C30.8751 23.3865 30.829 23.4346 30.8286 23.4939C30.828 23.5567 30.8792 23.6077 30.9419 23.6073C31.0039 23.6068 31.054 23.5559 31.0532 23.4939C31.0528 23.4327 31.0032 23.3836 30.9419 23.3829C30.9393 23.3828 30.9379 23.3828 30.9341 23.3829ZM30.9224 23.9454C30.868 23.9529 30.8283 24.0017 30.8286 24.0565C30.828 24.1192 30.8792 24.1702 30.9419 24.1698C31.0039 24.1694 31.054 24.1184 31.0532 24.0565C31.0528 23.9952 31.0032 23.9461 30.9419 23.9454C30.9343 23.9448 30.9319 23.9448 30.9243 23.9454H30.9224ZM30.9224 24.5079C30.868 24.5155 30.8283 24.5638 30.8286 24.619C30.8291 24.681 30.8796 24.7313 30.9419 24.7305C31.0031 24.73 31.0529 24.6802 31.0532 24.619C31.0528 24.5578 31.0032 24.5083 30.9419 24.5079C30.9343 24.5073 30.9319 24.5073 30.9243 24.5079H30.9224ZM19.3208 25.0313C18.4372 25.0314 17.7213 25.7473 17.7212 26.6309C17.7213 27.5145 18.4372 28.2305 19.3208 28.2305C20.2044 28.2305 20.9204 27.5145 20.9204 26.6309C20.9204 25.7473 20.2044 25.0314 19.3208 25.0313ZM30.9341 25.069C30.8744 25.0726 30.8279 25.1223 30.8286 25.1824C30.8291 25.2444 30.8796 25.2944 30.9419 25.2936C31.0031 25.2931 31.0529 25.244 31.0532 25.1824C31.0539 25.1204 31.0039 25.0698 30.9419 25.069C30.9393 25.069 30.9379 25.069 30.9341 25.069ZM30.9341 25.6316C30.8744 25.6352 30.8279 25.6849 30.8286 25.745C30.8291 25.8069 30.8796 25.8564 30.9419 25.856C31.0031 25.8555 31.0529 25.8062 31.0532 25.745C31.0539 25.683 31.0039 25.6323 30.9419 25.6316C30.9393 25.6315 30.9379 25.6315 30.9341 25.6316ZM30.9341 26.1941C30.8744 26.1977 30.8279 26.2474 30.8286 26.3075C30.8291 26.3695 30.8796 26.4189 30.9419 26.4186C31.0031 26.4181 31.0529 26.3691 31.0532 26.3075C31.0539 26.2455 31.0039 26.1949 30.9419 26.1941C30.9393 26.194 30.9379 26.194 30.9341 26.1941ZM30.9341 26.7566C30.8751 26.7602 30.829 26.8087 30.8286 26.868C30.828 26.9308 30.8792 26.9818 30.9419 26.9814C31.0039 26.9809 31.054 26.93 31.0532 26.868C31.0528 26.8068 31.0032 26.7574 30.9419 26.7566C30.9393 26.7565 30.9379 26.7565 30.9341 26.7566ZM30.9341 27.319C30.8751 27.3226 30.829 27.3713 30.8286 27.4302C30.828 27.493 30.8792 27.544 30.9419 27.5436C31.0039 27.5431 31.054 27.4922 31.0532 27.4302C31.0528 27.369 31.0032 27.3198 30.9419 27.319C30.9393 27.319 30.9379 27.319 30.9341 27.319ZM24.8833 27.5788C23.9997 27.5788 23.2838 28.2947 23.2837 29.1783C23.2838 30.062 23.9997 30.7779 24.8833 30.7779C25.7669 30.7779 26.4829 30.062 26.4829 29.1783C26.4829 28.2947 25.7669 27.5788 24.8833 27.5788ZM30.9341 27.8814C30.8751 27.885 30.829 27.9333 30.8286 27.9926C30.828 28.0554 30.8792 28.1064 30.9419 28.106C31.0039 28.1055 31.054 28.0546 31.0532 27.9926C31.0528 27.9314 31.0032 27.8822 30.9419 27.8814C30.9393 27.8814 30.9379 27.8814 30.9341 27.8814ZM30.9224 28.444C30.868 28.4515 30.8283 28.5003 30.8286 28.5551C30.8291 28.6171 30.8796 28.6673 30.9419 28.6666C31.0031 28.6661 31.0529 28.6164 31.0532 28.5551C31.0528 28.4939 31.0032 28.4447 30.9419 28.444C30.9343 28.4434 30.9319 28.4434 30.9243 28.444H30.9224ZM30.9419 29.0045C30.8792 29.0039 30.8283 29.0552 30.8287 29.1179C30.8291 29.1799 30.8796 29.2294 30.9419 29.229C31.0032 29.2285 31.0525 29.1795 31.0533 29.1179C31.0538 29.0559 31.0043 29.0053 30.9419 29.0045ZM30.9341 29.5669C30.8744 29.5706 30.8279 29.6203 30.8286 29.6804C30.8291 29.7424 30.8796 29.7919 30.9419 29.7915C31.0031 29.791 31.0529 29.742 31.0532 29.6804C31.0539 29.6184 31.0039 29.5677 30.9419 29.5669C30.9393 29.5669 30.9379 29.5669 30.9341 29.5669ZM30.9341 30.1294C30.8744 30.1331 30.8279 30.1827 30.8286 30.2428C30.8291 30.3048 30.8796 30.3548 30.9419 30.354C31.0031 30.3535 31.0529 30.3044 31.0532 30.2428C31.0539 30.1808 31.0039 30.1302 30.9419 30.1294C30.9393 30.1294 30.9379 30.1294 30.9341 30.1294ZM19.3208 30.2664C18.4372 30.2664 17.7213 30.9823 17.7212 31.8659C17.7213 32.7496 18.4372 33.4655 19.3208 33.4655C20.2044 33.4655 20.9204 32.7496 20.9204 31.8659C20.9204 30.9823 20.2044 30.2664 19.3208 30.2664ZM30.9322 30.6921C30.8724 30.6957 30.8259 30.7454 30.8267 30.8055C30.8272 30.8675 30.8776 30.9178 30.94 30.917C31.0012 30.9166 31.0509 30.8667 31.0513 30.8055C31.0519 30.7435 31.002 30.6928 30.94 30.6921C30.9374 30.692 30.936 30.692 30.9321 30.6921H30.9322ZM30.9322 31.2546C30.8732 31.2582 30.8271 31.3063 30.8267 31.3657C30.8261 31.4284 30.8772 31.4794 30.94 31.4791C31.0019 31.4786 31.0521 31.4277 31.0513 31.3657C31.0508 31.3045 31.0012 31.2554 30.94 31.2546C30.9374 31.2545 30.936 31.2545 30.9321 31.2546H30.9322ZM30.9322 31.8171C30.8732 31.8207 30.8271 31.8692 30.8267 31.9282C30.8261 31.9909 30.8772 32.042 30.94 32.0416C31.0019 32.0411 31.0521 31.9902 31.0513 31.9282C31.0508 31.867 31.0012 31.8179 30.94 31.8171C30.9374 31.8171 30.936 31.8171 30.9321 31.8171H30.9322ZM30.9204 32.3795C30.8669 32.3871 30.8283 32.4363 30.8286 32.4907C30.828 32.5535 30.8792 32.6045 30.9419 32.6041C31.0039 32.6036 31.054 32.5527 31.0533 32.4907C31.0528 32.4295 31.0032 32.3799 30.9419 32.3795C30.9343 32.379 30.9319 32.379 30.9243 32.3795H30.9224H30.9204ZM24.8814 32.8132C23.9977 32.8133 23.2818 33.5292 23.2818 34.4128C23.2818 35.2964 23.9977 36.0124 24.8814 36.0124C25.765 36.0124 26.4809 35.2964 26.481 34.4128C26.4809 33.5292 25.765 32.8133 24.8814 32.8132ZM30.9204 32.9421C30.8669 32.9496 30.8283 32.9992 30.8286 33.0536C30.8291 33.1156 30.8796 33.1654 30.9419 33.1647C31.0032 33.1642 31.0529 33.1152 31.0533 33.0536C31.0528 32.9924 31.0032 32.9424 30.9419 32.9421C30.9343 32.9415 30.9319 32.9415 30.9243 32.9421H30.9224H30.9204ZM30.94 33.5026C30.8772 33.5021 30.8263 33.5533 30.8267 33.616C30.8272 33.678 30.8776 33.7279 30.94 33.7275C31.0012 33.7271 31.0506 33.6776 31.0513 33.616C31.0519 33.554 31.0023 33.5034 30.94 33.5026ZM30.9322 34.0652C30.8724 34.0688 30.8259 34.1184 30.8267 34.1785C30.8272 34.2405 30.8776 34.29 30.94 34.2896C31.0012 34.2891 31.0509 34.2401 31.0513 34.1785C31.0519 34.1165 31.002 34.0659 30.94 34.0652C30.9374 34.0651 30.9379 34.0651 30.9341 34.0652H30.9322ZM30.9322 34.6277C30.8724 34.6313 30.8259 34.681 30.8267 34.7411C30.8272 34.803 30.8776 34.8529 30.94 34.8525C31.0012 34.852 31.0509 34.8027 31.0513 34.7411C31.0519 34.6791 31.002 34.6284 30.94 34.6277C30.9374 34.6276 30.9379 34.6276 30.9341 34.6277H30.9322ZM30.9322 35.1901C30.8732 35.1937 30.8271 35.2423 30.8267 35.3013C30.8261 35.364 30.8772 35.415 30.94 35.4146C31.0019 35.4142 31.0521 35.3633 31.0513 35.3013C31.0508 35.24 31.0012 35.1908 30.94 35.1901C30.9374 35.19 30.9379 35.19 30.9341 35.1901H30.9322ZM19.3208 35.5008C18.4372 35.5009 17.7213 36.2168 17.7212 37.1004C17.7213 37.984 18.4372 38.7001 19.3208 38.7001C20.2044 38.7001 20.9204 37.984 20.9204 37.1004C20.9204 36.2168 20.2044 35.5009 19.3208 35.5008ZM30.9322 35.7529C30.8732 35.7565 30.8271 35.8047 30.8267 35.864C30.8261 35.9268 30.8772 35.9778 30.94 35.9774C31.0019 35.9769 31.0521 35.926 31.0513 35.864C31.0508 35.8028 31.0012 35.7537 30.94 35.7529C30.9374 35.7529 30.936 35.7529 30.9321 35.7529H30.9322ZM30.9322 36.3154C30.8732 36.3189 30.8271 36.3676 30.8267 36.4265C30.8261 36.4893 30.8772 36.5403 30.94 36.5399C31.0019 36.5394 31.0521 36.4885 31.0513 36.4265C31.0508 36.3653 31.0012 36.3161 30.94 36.3154C30.9374 36.3153 30.936 36.3153 30.9321 36.3154H30.9322ZM30.9322 36.8779C30.8732 36.8815 30.8271 36.9301 30.8267 36.9894C30.8261 37.0522 30.8772 37.1032 30.94 37.1028C31.0019 37.1023 31.0521 37.0514 31.0513 36.9894C31.0508 36.9282 31.0012 36.8786 30.94 36.8779C30.9374 36.8778 30.936 36.8778 30.9321 36.8779H30.9322ZM30.9204 37.4404C30.8669 37.448 30.8283 37.497 30.8286 37.5518C30.8291 37.6138 30.8796 37.6641 30.9419 37.663C31.0032 37.6625 31.0529 37.6131 31.0533 37.5518C31.0528 37.4906 31.0032 37.4412 30.9419 37.4404C30.9343 37.4398 30.9319 37.4398 30.9243 37.4404H30.9224H30.9204ZM24.9693 37.8877C24.0857 37.8877 23.3697 38.6036 23.3697 39.4873C23.3697 40.3709 24.0857 41.0868 24.9693 41.0868C25.8529 41.0868 26.5688 40.3709 26.5689 39.4873C26.5688 38.6036 25.8529 37.8877 24.9693 37.8877ZM30.9322 38.0011C30.8724 38.0047 30.8259 38.0544 30.8267 38.1145C30.8272 38.1764 30.8776 38.2263 30.94 38.2255C31.0012 38.225 31.0509 38.1761 31.0513 38.1145C31.0519 38.0525 31.002 38.0018 30.94 38.0011C30.9374 38.001 30.936 38.001 30.9321 38.0011H30.9322ZM30.9322 38.5635C30.8724 38.5671 30.8259 38.6169 30.8267 38.677C30.8272 38.739 30.8776 38.7888 30.94 38.7884C31.0012 38.7879 31.0509 38.7386 31.0513 38.677C31.0519 38.615 31.002 38.5642 30.94 38.5635C30.9374 38.5634 30.936 38.5634 30.9321 38.5635H30.9322ZM30.9322 39.126C30.8724 39.1296 30.8259 39.1793 30.8267 39.2394C30.8272 39.3014 30.8776 39.3513 30.94 39.3509C31.0012 39.3504 31.0509 39.301 31.0513 39.2394C31.0519 39.1774 31.002 39.1268 30.94 39.126C30.9374 39.1259 30.936 39.1259 30.9321 39.126H30.9322ZM30.9322 39.6885C30.8732 39.6921 30.8271 39.7408 30.8267 39.7997C30.8261 39.8625 30.8772 39.9135 30.94 39.9131C31.0019 39.9126 31.0521 39.8617 31.0513 39.7997C31.0508 39.7385 31.0012 39.6893 30.94 39.6885C30.9374 39.6885 30.936 39.6885 30.9321 39.6885H30.9322ZM30.9322 40.2511C30.8732 40.2546 30.8271 40.3028 30.8267 40.3621C30.8261 40.4249 30.8772 40.4759 30.94 40.4755C31.0019 40.475 31.0521 40.4241 31.0513 40.3621C31.0508 40.3009 31.0012 40.2514 30.94 40.2511C30.9374 40.251 30.936 40.251 30.9321 40.2511H30.9322ZM30.9322 40.8136C30.8732 40.8172 30.8271 40.8657 30.8267 40.925C30.8261 40.9877 30.8772 41.0388 30.94 41.0384C31.0019 41.0379 31.0521 40.987 31.0513 40.925C31.0508 40.8638 31.0012 40.8143 30.94 40.8136C30.9374 40.8135 30.936 40.8135 30.9321 40.8136H30.9322ZM30.9204 41.376C30.8669 41.3835 30.8283 41.4327 30.8286 41.4875C30.828 41.5503 30.8792 41.6013 30.9419 41.6009C31.0039 41.6004 31.054 41.5495 31.0533 41.4875C31.0528 41.4263 31.0032 41.3767 30.9419 41.376C30.9343 41.3754 30.9319 41.3754 30.9244 41.376H30.9224H30.9204ZM30.9204 41.9385C30.8669 41.9461 30.8283 41.9952 30.8286 42.05C30.8291 42.112 30.8796 42.1615 30.9419 42.1611C31.0032 42.1606 31.0529 42.1117 31.0533 42.05C31.0528 41.9888 31.0032 41.9393 30.9419 41.9385C30.9343 41.9379 30.9319 41.9379 30.9244 41.9385H30.9224H30.9204ZM30.94 42.4991C30.8772 42.4985 30.8263 42.5497 30.8267 42.6125C30.8272 42.6744 30.8776 42.7244 30.94 42.724C31.0012 42.7235 31.0506 42.6741 31.0513 42.6125C31.0519 42.5505 31.0023 42.4998 30.94 42.4991ZM30.9322 43.0616C30.8724 43.0652 30.8259 43.1149 30.8267 43.175C30.8272 43.237 30.8776 43.2869 30.94 43.2865C31.0012 43.286 31.0509 43.2366 31.0513 43.175C31.0519 43.113 31.002 43.0624 30.94 43.0616C30.9374 43.0615 30.9379 43.0615 30.9341 43.0616H30.9322Z" fill="#333333"/>
</svg>
