<svg width="48" height="48" viewBox="0 0 48 48" fill="none" xmlns="http://www.w3.org/2000/svg">
<path d="M14.346 4.09402C13.476 4.09402 12.777 4.79302 12.777 5.66202V42.523C12.777 43.393 13.477 44.093 14.346 44.093H34.05C34.92 44.093 35.618 43.393 35.618 42.523V5.66302C35.618 4.79302 34.919 4.09302 34.05 4.09302H14.346V4.09402ZM14.776 4.59402H33.616C34.446 4.59402 35.117 5.27702 35.117 6.12502V42.065C35.117 42.912 34.447 43.594 33.615 43.594H14.775C13.945 43.594 13.275 42.912 13.275 42.064V6.12502C13.275 5.27702 13.945 4.59402 14.775 4.59402H14.776ZM16.148 8.43602C15.8965 8.44038 15.657 8.54431 15.482 8.72502L13.674 10.582C13.5872 10.6713 13.5189 10.7769 13.4731 10.8927C13.4272 11.0085 13.4047 11.1323 13.4068 11.2568C13.409 11.3813 13.4357 11.5042 13.4855 11.6184C13.5353 11.7325 13.6072 11.8357 13.697 11.922C13.7861 12.0089 13.8915 12.0773 14.0071 12.1235C14.1227 12.1696 14.2463 12.1925 14.3707 12.1908C14.4952 12.1891 14.6181 12.1629 14.7324 12.1137C14.8467 12.0645 14.9502 11.9933 15.037 11.904L16.846 10.044C16.9326 9.95465 17.0006 9.84906 17.0463 9.73332C17.092 9.61757 17.1143 9.49394 17.1121 9.36953C17.1099 9.24512 17.0831 9.12238 17.0333 9.00834C16.9835 8.89431 16.9117 8.79123 16.822 8.70502C16.7332 8.61804 16.6282 8.54942 16.5129 8.50309C16.3976 8.45676 16.2742 8.43363 16.15 8.43502H16.148V8.43602ZM19.128 8.43602C19.0036 8.43804 18.8808 8.46461 18.7667 8.5142C18.6525 8.56379 18.5493 8.63544 18.463 8.72502L16.654 10.582C16.5671 10.6713 16.4988 10.7768 16.4528 10.8926C16.4069 11.0084 16.3843 11.1321 16.3864 11.2566C16.3884 11.3811 16.415 11.504 16.4647 11.6182C16.5144 11.7324 16.5862 11.8357 16.676 11.922C16.7651 12.0089 16.8705 12.0773 16.9861 12.1235C17.1017 12.1696 17.2253 12.1925 17.3497 12.1908C17.4742 12.1891 17.5971 12.1629 17.7114 12.1137C17.8257 12.0645 17.9292 11.9933 18.016 11.904L19.824 10.044C19.9108 9.95484 19.9791 9.84941 20.025 9.73377C20.0709 9.61814 20.0935 9.49457 20.0916 9.37016C20.0896 9.24575 20.0631 9.12295 20.0136 9.0088C19.9641 8.89466 19.8925 8.79143 19.803 8.70502C19.714 8.6178 19.6086 8.54904 19.4929 8.5027C19.3773 8.45637 19.2536 8.43336 19.129 8.43502L19.128 8.43602ZM22.108 8.43602C21.9832 8.43777 21.8601 8.46422 21.7456 8.51382C21.6311 8.56342 21.5276 8.6352 21.441 8.72502L19.635 10.582C19.548 10.6711 19.4795 10.7766 19.4334 10.8923C19.3873 11.008 19.3645 11.1316 19.3664 11.2562C19.3682 11.3807 19.3947 11.5036 19.4442 11.6179C19.4937 11.7322 19.5654 11.8355 19.655 11.922C19.7441 12.0089 19.8495 12.0773 19.9651 12.1235C20.0807 12.1696 20.2043 12.1925 20.3287 12.1908C20.4532 12.1891 20.5761 12.1629 20.6904 12.1137C20.8047 12.0645 20.9082 11.9933 20.995 11.904L22.803 10.044C22.8898 9.95491 22.9582 9.84953 23.0042 9.73393C23.0502 9.61832 23.073 9.49477 23.0711 9.37036C23.0692 9.24595 23.0428 9.12314 22.9934 9.00896C22.9439 8.89478 22.8724 8.79149 22.783 8.70502C22.694 8.6178 22.5886 8.54904 22.4729 8.5027C22.3573 8.45637 22.2336 8.43336 22.109 8.43502H22.107L22.108 8.43602ZM25.086 8.43602C24.8345 8.44038 24.595 8.54431 24.42 8.72502L22.611 10.582C22.5242 10.6714 22.456 10.7771 22.4103 10.8929C22.3645 11.0087 22.3421 11.1325 22.3443 11.257C22.3466 11.3815 22.3734 11.5044 22.4233 11.6185C22.4732 11.7327 22.5451 11.8358 22.635 11.922C22.7241 12.0089 22.8295 12.0773 22.9451 12.1235C23.0607 12.1696 23.1843 12.1925 23.3087 12.1908C23.4332 12.1891 23.5561 12.1629 23.6704 12.1137C23.7847 12.0645 23.8882 11.9933 23.975 11.904L25.783 10.044C25.8696 9.95471 25.9378 9.84918 25.9835 9.73347C26.0293 9.61776 26.0517 9.49415 26.0496 9.36974C26.0475 9.24533 26.0208 9.12257 25.9711 9.0085C25.9214 8.89442 25.8496 8.79129 25.76 8.70502C25.6712 8.61804 25.5662 8.54942 25.4509 8.50309C25.3356 8.45676 25.2122 8.43363 25.088 8.43502H25.086V8.43602ZM28.066 8.43602C27.9414 8.43791 27.8184 8.46441 27.7041 8.51401C27.5898 8.56361 27.4865 8.63532 27.4 8.72502L25.592 10.582C25.5051 10.6712 25.4366 10.7767 25.3906 10.8924C25.3446 11.0082 25.3219 11.1319 25.3239 11.2564C25.3258 11.3809 25.3524 11.5038 25.402 11.6181C25.4516 11.7323 25.5233 11.8356 25.613 11.922C25.7021 12.0089 25.8075 12.0773 25.9231 12.1235C26.0387 12.1696 26.1623 12.1925 26.2867 12.1908C26.4112 12.1891 26.5341 12.1629 26.6484 12.1137C26.7627 12.0645 26.8662 11.9933 26.953 11.904L28.762 10.044C28.8487 9.95478 28.9169 9.8493 28.9628 9.73362C29.0086 9.61795 29.0311 9.49436 29.0291 9.36995C29.0271 9.24554 29.0005 9.12276 28.9508 9.00865C28.9012 8.89454 28.8296 8.79136 28.74 8.70502C28.651 8.6178 28.5456 8.54904 28.4299 8.5027C28.3143 8.45637 28.1906 8.43336 28.066 8.43502V8.43602ZM31.045 8.43602C30.9204 8.43791 30.7974 8.46441 30.6831 8.51401C30.5688 8.56361 30.4655 8.63532 30.379 8.72502L28.572 10.582C28.485 10.6711 28.4165 10.7766 28.3704 10.8923C28.3243 11.008 28.3015 11.1316 28.3034 11.2562C28.3052 11.3807 28.3317 11.5036 28.3812 11.6179C28.4307 11.7322 28.5024 11.8355 28.592 11.922C28.6811 12.0089 28.7865 12.0773 28.9021 12.1235C29.0177 12.1696 29.1413 12.1925 29.2657 12.1908C29.3902 12.1891 29.5131 12.1629 29.6274 12.1137C29.7417 12.0645 29.8452 11.9933 29.932 11.904L31.74 10.044C31.8268 9.95491 31.8952 9.84953 31.9412 9.73393C31.9872 9.61832 32.0099 9.49477 32.0081 9.37036C32.0062 9.24595 31.9798 9.12314 31.9304 9.00896C31.8809 8.89478 31.8094 8.79149 31.72 8.70502C31.6311 8.61792 31.5259 8.54923 31.4104 8.5029C31.2949 8.45656 31.1714 8.4335 31.047 8.43502H31.045V8.43602ZM34.023 8.43602C33.7715 8.44038 33.532 8.54431 33.357 8.72502L31.549 10.582C31.4622 10.6713 31.3939 10.7769 31.3481 10.8927C31.3022 11.0085 31.2797 11.1323 31.2818 11.2568C31.284 11.3813 31.3107 11.5042 31.3605 11.6184C31.4103 11.7325 31.4822 11.8357 31.572 11.922C31.6611 12.0089 31.7665 12.0773 31.8821 12.1235C31.9977 12.1696 32.1213 12.1925 32.2457 12.1908C32.3702 12.1891 32.4931 12.1629 32.6074 12.1137C32.7217 12.0645 32.8252 11.9933 32.912 11.904L34.721 10.044C34.8076 9.95465 34.8756 9.84906 34.9213 9.73332C34.967 9.61757 34.9893 9.49394 34.9871 9.36953C34.9849 9.24512 34.9581 9.12238 34.9083 9.00834C34.8585 8.89431 34.7867 8.79123 34.697 8.70502C34.6082 8.61804 34.5032 8.54942 34.3879 8.50309C34.2726 8.45676 34.1492 8.43363 34.025 8.43502H34.023V8.43602ZM16.213 8.91602H16.215V8.91802C16.294 8.92202 16.375 8.95602 16.459 9.02302C16.866 9.38502 16.384 9.80902 16.209 9.99302L15.344 10.896C14.737 11.528 14.473 11.955 14.049 11.546C13.689 11.174 14.005 10.951 14.693 10.252L15.559 9.35002C15.764 9.14902 15.977 8.90402 16.213 8.91602ZM19.193 8.91602H19.195V8.91802C19.275 8.92202 19.355 8.95602 19.439 9.02302C19.846 9.38502 19.365 9.80902 19.189 9.99302L18.324 10.896C17.717 11.528 17.453 11.955 17.029 11.546C16.669 11.174 16.986 10.951 17.674 10.252L18.539 9.35002C18.744 9.14902 18.957 8.90402 19.193 8.91602ZM22.172 8.91602V8.91802C22.263 8.92611 22.3491 8.96287 22.418 9.02302C22.825 9.38502 22.343 9.80902 22.168 9.99302L21.303 10.896C20.695 11.528 20.431 11.955 20.008 11.546C19.648 11.174 19.964 10.951 20.652 10.252L21.518 9.35002C21.723 9.14902 21.936 8.90402 22.172 8.91602ZM25.15 8.91602V8.91802C25.2414 8.92584 25.3279 8.96262 25.397 9.02302C25.803 9.38502 25.322 9.80902 25.147 9.99302L24.281 10.896C23.674 11.528 23.41 11.955 22.986 11.546C22.626 11.174 22.943 10.951 23.631 10.252L24.496 9.35002C24.702 9.14902 24.914 8.90402 25.15 8.91602ZM28.13 8.91602H28.133V8.91802C28.212 8.92202 28.293 8.95602 28.377 9.02302C28.784 9.38502 28.302 9.80902 28.127 9.99302L27.262 10.896C26.654 11.528 26.39 11.955 25.967 11.546C25.607 11.174 25.923 10.951 26.611 10.252L27.477 9.35002C27.682 9.14902 27.895 8.90402 28.131 8.91602H28.13ZM31.11 8.91602V8.91802C31.2007 8.92632 31.2864 8.96307 31.355 9.02302C31.762 9.38502 31.281 9.80902 31.105 9.99302L30.242 10.896C29.635 11.528 29.369 11.955 28.945 11.546C28.585 11.174 28.902 10.951 29.59 10.252L30.455 9.35002C30.661 9.14902 30.873 8.90402 31.109 8.91602H31.11ZM34.088 8.91602H34.09V8.91802C34.169 8.92202 34.25 8.95602 34.334 9.02302C34.741 9.38502 34.259 9.80902 34.084 9.99302L33.219 10.896C32.611 11.528 32.347 11.955 31.924 11.546C31.564 11.174 31.88 10.951 32.568 10.252L33.434 9.35002C33.639 9.14902 33.852 8.90402 34.088 8.91602ZM13.795 14.98C13.7802 14.9801 13.7656 14.9832 13.752 14.989C13.7384 14.9948 13.726 15.0033 13.7157 15.0139C13.7054 15.0245 13.6973 15.037 13.6918 15.0508C13.6864 15.0645 13.6837 15.0792 13.684 15.094C13.684 15.155 13.734 15.206 13.794 15.207C13.857 15.207 13.907 15.157 13.908 15.094C13.9082 15.0791 13.9055 15.0642 13.8999 15.0503C13.8944 15.0364 13.8861 15.0238 13.8755 15.0132C13.865 15.0025 13.8525 14.9941 13.8386 14.9884C13.8248 14.9827 13.8099 14.9799 13.795 14.98ZM14.357 14.98C14.3269 14.9803 14.2982 14.9924 14.277 15.0138C14.2558 15.0351 14.244 15.064 14.244 15.094C14.244 15.155 14.296 15.207 14.357 15.207C14.419 15.207 14.468 15.155 14.469 15.094V15.074C14.4651 15.0473 14.4515 15.023 14.4309 15.0057C14.4102 14.9884 14.3839 14.9792 14.357 14.98ZM14.92 14.98C14.905 14.9799 14.8902 14.9827 14.8763 14.9884C14.8625 14.9941 14.8499 15.0025 14.8394 15.0132C14.8289 15.0238 14.8206 15.0364 14.815 15.0503C14.8094 15.0642 14.8067 15.0791 14.807 15.094C14.807 15.156 14.857 15.208 14.92 15.207C14.981 15.207 15.03 15.155 15.031 15.094V15.074C15.0271 15.0475 15.0137 15.0234 14.9932 15.0061C14.9728 14.9887 14.9468 14.9795 14.92 14.98ZM15.482 14.98C15.467 14.9799 15.4522 14.9827 15.4383 14.9884C15.4245 14.9941 15.4119 15.0025 15.4014 15.0132C15.3909 15.0238 15.3826 15.0364 15.377 15.0503C15.3714 15.0642 15.3687 15.0791 15.369 15.094C15.369 15.156 15.42 15.208 15.482 15.207C15.544 15.207 15.593 15.155 15.594 15.094V15.086C15.5924 15.0574 15.58 15.0304 15.5591 15.0107C15.5383 14.991 15.5107 14.98 15.482 14.98ZM16.045 14.98C16.03 14.9799 16.0152 14.9827 16.0013 14.9884C15.9875 14.9941 15.9749 15.0025 15.9644 15.0132C15.9539 15.0238 15.9456 15.0364 15.94 15.0503C15.9344 15.0642 15.9317 15.0791 15.932 15.094C15.932 15.156 15.982 15.208 16.045 15.207C16.106 15.207 16.155 15.155 16.156 15.094V15.086C16.1545 15.0575 16.1421 15.0307 16.1215 15.011C16.1009 14.9913 16.0735 14.9802 16.045 14.98ZM16.607 14.98C16.592 14.9799 16.5772 14.9827 16.5633 14.9884C16.5495 14.9941 16.5369 15.0025 16.5264 15.0132C16.5159 15.0238 16.5076 15.0364 16.502 15.0503C16.4964 15.0642 16.4937 15.0791 16.494 15.094C16.494 15.156 16.545 15.208 16.607 15.207C16.669 15.207 16.718 15.155 16.719 15.094V15.086C16.7174 15.0574 16.705 15.0304 16.6841 15.0107C16.6633 14.991 16.6357 14.98 16.607 14.98ZM17.168 14.98C17.1532 14.9801 17.1386 14.9832 17.125 14.989C17.1114 14.9948 17.099 15.0033 17.0887 15.0139C17.0784 15.0245 17.0703 15.037 17.0648 15.0508C17.0594 15.0645 17.0567 15.0792 17.057 15.094C17.057 15.155 17.107 15.207 17.168 15.207C17.1979 15.2068 17.2265 15.1948 17.2476 15.1736C17.2687 15.1525 17.2807 15.1239 17.281 15.094V15.086C17.2794 15.0572 17.2668 15.0301 17.2458 15.0103C17.2247 14.9906 17.1968 14.9797 17.168 14.98ZM17.731 14.98C17.7161 14.98 17.7014 14.983 17.6876 14.9887C17.6739 14.9945 17.6615 15.0029 17.6511 15.0135C17.6406 15.0241 17.6324 15.0367 17.6269 15.0505C17.6214 15.0644 17.6187 15.0791 17.619 15.094C17.619 15.155 17.669 15.207 17.73 15.207C17.76 15.207 17.7889 15.1951 17.8102 15.174C17.8316 15.1528 17.8437 15.1241 17.844 15.094V15.086C17.8424 15.057 17.8297 15.0298 17.8084 15.01C17.7871 14.9902 17.759 14.9795 17.73 14.98H17.731ZM18.293 14.98C18.2782 14.9801 18.2636 14.9832 18.25 14.989C18.2364 14.9948 18.224 15.0033 18.2137 15.0139C18.2034 15.0245 18.1953 15.037 18.1898 15.0508C18.1844 15.0645 18.1817 15.0792 18.182 15.094C18.182 15.155 18.232 15.207 18.293 15.207C18.3229 15.2068 18.3515 15.1948 18.3726 15.1736C18.3937 15.1525 18.4057 15.1239 18.406 15.094V15.086C18.4044 15.0572 18.3918 15.0301 18.3708 15.0103C18.3497 14.9906 18.3218 14.9797 18.293 14.98ZM18.856 14.98C18.8411 14.98 18.8264 14.983 18.8126 14.9887C18.7989 14.9945 18.7865 15.0029 18.7761 15.0135C18.7656 15.0241 18.7574 15.0367 18.7519 15.0505C18.7464 15.0644 18.7437 15.0791 18.744 15.094C18.744 15.155 18.794 15.207 18.855 15.207C18.917 15.207 18.966 15.155 18.967 15.094V15.074C18.9631 15.0475 18.9497 15.0234 18.9292 15.0061C18.9088 14.9887 18.8828 14.9795 18.856 14.98ZM19.418 14.98C19.403 14.9799 19.3882 14.9827 19.3743 14.9884C19.3605 14.9941 19.3479 15.0025 19.3374 15.0132C19.3269 15.0238 19.3186 15.0364 19.313 15.0503C19.3074 15.0642 19.3047 15.0791 19.305 15.094C19.305 15.156 19.356 15.208 19.418 15.207C19.479 15.207 19.528 15.155 19.529 15.094V15.086C19.5274 15.0575 19.5151 15.0307 19.4945 15.011C19.4739 14.9913 19.4465 14.9802 19.418 14.98ZM19.981 14.98C19.9659 14.9797 19.951 14.9825 19.937 14.9881C19.9231 14.9938 19.9104 15.0022 19.8998 15.0128C19.8891 15.0234 19.8807 15.0361 19.8751 15.0501C19.8695 15.064 19.8667 15.079 19.867 15.094C19.867 15.156 19.919 15.208 19.98 15.207C20.042 15.207 20.091 15.155 20.092 15.094V15.086C20.0904 15.0575 20.0781 15.0307 20.0575 15.011C20.0369 14.9913 20.0095 14.9802 19.981 14.98ZM20.543 14.98C20.528 14.9799 20.5132 14.9827 20.4993 14.9884C20.4855 14.9941 20.4729 15.0025 20.4624 15.0132C20.4519 15.0238 20.4436 15.0364 20.438 15.0503C20.4324 15.0642 20.4297 15.0791 20.43 15.094C20.43 15.156 20.481 15.208 20.543 15.207C20.604 15.207 20.653 15.155 20.654 15.094V15.086C20.6524 15.0575 20.6401 15.0307 20.6195 15.011C20.5989 14.9913 20.5715 14.9802 20.543 14.98ZM21.106 14.98C21.0909 14.9797 21.076 14.9825 21.062 14.9881C21.0481 14.9938 21.0354 15.0022 21.0248 15.0128C21.0141 15.0234 21.0057 15.0361 21.0001 15.0501C20.9945 15.064 20.9917 15.079 20.992 15.094C20.992 15.156 21.044 15.208 21.105 15.207C21.167 15.207 21.216 15.155 21.217 15.094V15.086C21.2154 15.0575 21.2031 15.0307 21.1825 15.011C21.1619 14.9913 21.1345 14.9802 21.106 14.98ZM21.666 14.98C21.6512 14.9801 21.6366 14.9832 21.623 14.989C21.6094 14.9948 21.597 15.0033 21.5867 15.0139C21.5764 15.0245 21.5683 15.037 21.5628 15.0508C21.5574 15.0645 21.5547 15.0792 21.555 15.094C21.555 15.155 21.605 15.207 21.666 15.207C21.6959 15.2068 21.7245 15.1948 21.7456 15.1736C21.7667 15.1525 21.7787 15.1239 21.779 15.094V15.086C21.7774 15.0572 21.7648 15.0301 21.7438 15.0103C21.7227 14.9906 21.6948 14.9797 21.666 14.98ZM22.229 14.98C22.2141 14.98 22.1994 14.983 22.1856 14.9887C22.1719 14.9945 22.1595 15.0029 22.1491 15.0135C22.1386 15.0241 22.1304 15.0367 22.1249 15.0505C22.1194 15.0644 22.1167 15.0791 22.117 15.094C22.117 15.155 22.167 15.207 22.228 15.207C22.258 15.207 22.2869 15.1951 22.3082 15.174C22.3296 15.1528 22.3417 15.1241 22.342 15.094V15.086C22.3404 15.0572 22.3278 15.0301 22.3068 15.0103C22.2857 14.9906 22.2578 14.9797 22.229 14.98ZM22.791 14.98C22.7762 14.9801 22.7616 14.9832 22.748 14.989C22.7344 14.9948 22.722 15.0033 22.7117 15.0139C22.7014 15.0245 22.6933 15.037 22.6878 15.0508C22.6824 15.0645 22.6797 15.0792 22.68 15.094C22.68 15.155 22.73 15.206 22.791 15.207C22.853 15.207 22.904 15.157 22.904 15.094C22.9042 15.0791 22.9015 15.0642 22.8959 15.0503C22.8904 15.0364 22.8821 15.0238 22.8715 15.0132C22.861 15.0025 22.8485 14.9941 22.8346 14.9884C22.8208 14.9827 22.8059 14.9799 22.791 14.98ZM23.354 14.98C23.3391 14.98 23.3244 14.983 23.3106 14.9887C23.2969 14.9945 23.2845 15.0029 23.2741 15.0135C23.2636 15.0241 23.2554 15.0367 23.2499 15.0505C23.2444 15.0644 23.2417 15.0791 23.242 15.094C23.242 15.155 23.292 15.207 23.353 15.207C23.3827 15.2065 23.411 15.1944 23.4319 15.1733C23.4529 15.1522 23.4647 15.1237 23.465 15.094V15.074C23.4609 15.0476 23.4474 15.0236 23.427 15.0063C23.4066 14.989 23.3807 14.9797 23.354 14.98ZM23.916 14.98C23.901 14.9799 23.8862 14.9827 23.8723 14.9884C23.8585 14.9941 23.8459 15.0025 23.8354 15.0132C23.8249 15.0238 23.8166 15.0364 23.811 15.0503C23.8054 15.0642 23.8027 15.0791 23.803 15.094C23.803 15.156 23.854 15.208 23.916 15.207C23.977 15.207 24.026 15.155 24.027 15.094V15.074C24.0231 15.0475 24.0097 15.0234 23.9892 15.0061C23.9688 14.9887 23.9428 14.9795 23.916 14.98ZM24.479 14.98C24.4639 14.9797 24.449 14.9825 24.435 14.9881C24.4211 14.9938 24.4084 15.0022 24.3978 15.0128C24.3871 15.0234 24.3787 15.0361 24.3731 15.0501C24.3675 15.064 24.3647 15.079 24.365 15.094C24.365 15.156 24.417 15.208 24.479 15.207C24.539 15.207 24.589 15.155 24.589 15.094V15.086C24.5875 15.0577 24.5753 15.031 24.5549 15.0114C24.5344 14.9917 24.5073 14.9805 24.479 14.98ZM25.041 14.98C25.026 14.9799 25.0112 14.9827 24.9973 14.9884C24.9835 14.9941 24.9709 15.0025 24.9604 15.0132C24.9499 15.0238 24.9416 15.0364 24.936 15.0503C24.9304 15.0642 24.9277 15.0791 24.928 15.094C24.928 15.156 24.979 15.208 25.041 15.207C25.102 15.207 25.151 15.155 25.152 15.094V15.086C25.1505 15.0575 25.1381 15.0307 25.1175 15.011C25.0969 14.9913 25.0695 14.9802 25.041 14.98ZM25.601 14.98C25.5863 14.9803 25.5718 14.9834 25.5583 14.9893C25.5448 14.9952 25.5326 15.0036 25.5224 15.0142C25.5121 15.0248 25.5041 15.0373 25.4987 15.051C25.4933 15.0647 25.4907 15.0793 25.491 15.094C25.491 15.155 25.541 15.207 25.601 15.207C25.631 15.207 25.6599 15.1951 25.6812 15.174C25.7026 15.1528 25.7147 15.1241 25.715 15.094V15.086C25.7134 15.0572 25.7008 15.0301 25.6798 15.0103C25.6587 14.9906 25.6308 14.9797 25.602 14.98H25.601ZM26.164 14.98C26.1492 14.9801 26.1346 14.9832 26.121 14.989C26.1074 14.9948 26.095 15.0033 26.0847 15.0139C26.0744 15.0245 26.0663 15.037 26.0608 15.0508C26.0554 15.0645 26.0527 15.0792 26.053 15.094C26.053 15.155 26.103 15.207 26.164 15.207C26.1939 15.2068 26.2225 15.1948 26.2436 15.1736C26.2647 15.1525 26.2767 15.1239 26.277 15.094V15.086C26.2754 15.0572 26.2628 15.0301 26.2418 15.0103C26.2207 14.9906 26.1928 14.9797 26.164 14.98ZM26.727 14.98C26.7121 14.98 26.6974 14.983 26.6836 14.9887C26.6699 14.9945 26.6575 15.0029 26.6471 15.0135C26.6366 15.0241 26.6284 15.0367 26.6229 15.0505C26.6174 15.0644 26.6147 15.0791 26.615 15.094C26.615 15.155 26.665 15.207 26.727 15.207C26.7569 15.2068 26.7855 15.1948 26.8066 15.1736C26.8277 15.1525 26.8397 15.1239 26.84 15.094V15.086C26.8384 15.0572 26.8258 15.0301 26.8048 15.0103C26.7837 14.9906 26.7558 14.9797 26.727 14.98ZM27.289 14.98C27.2742 14.9801 27.2596 14.9832 27.246 14.989C27.2324 14.9948 27.22 15.0033 27.2097 15.0139C27.1994 15.0245 27.1913 15.037 27.1858 15.0508C27.1804 15.0645 27.1777 15.0792 27.178 15.094C27.178 15.155 27.228 15.206 27.289 15.207C27.351 15.207 27.402 15.157 27.402 15.094C27.4022 15.0791 27.3995 15.0642 27.3939 15.0503C27.3884 15.0364 27.3801 15.0238 27.3695 15.0132C27.359 15.0025 27.3464 14.9941 27.3326 14.9884C27.3188 14.9827 27.3039 14.9799 27.289 14.98ZM27.852 14.98C27.8371 14.98 27.8224 14.983 27.8086 14.9887C27.7949 14.9945 27.7825 15.0029 27.7721 15.0135C27.7616 15.0241 27.7534 15.0367 27.7479 15.0505C27.7424 15.0644 27.7397 15.0791 27.74 15.094C27.74 15.155 27.79 15.207 27.852 15.207C27.912 15.207 27.962 15.155 27.962 15.094C27.964 15.086 27.964 15.082 27.962 15.074C27.9581 15.0477 27.9448 15.0237 27.9246 15.0064C27.9044 14.9891 27.8786 14.9797 27.852 14.98ZM28.414 14.98C28.399 14.9799 28.3842 14.9827 28.3703 14.9884C28.3565 14.9941 28.3439 15.0025 28.3334 15.0132C28.3229 15.0238 28.3146 15.0364 28.309 15.0503C28.3034 15.0642 28.3007 15.0791 28.301 15.094C28.301 15.156 28.352 15.208 28.414 15.207C28.475 15.207 28.524 15.155 28.525 15.094V15.086C28.5235 15.0577 28.5113 15.031 28.4909 15.0114C28.4704 14.9917 28.4433 14.9805 28.415 14.98H28.414ZM28.977 14.98C28.9619 14.9797 28.947 14.9825 28.933 14.9881C28.9191 14.9938 28.9064 15.0022 28.8958 15.0128C28.8851 15.0234 28.8767 15.0361 28.8711 15.0501C28.8655 15.064 28.8627 15.079 28.863 15.094C28.863 15.156 28.915 15.208 28.977 15.207C29.037 15.207 29.087 15.155 29.087 15.094V15.086C29.0855 15.0577 29.0733 15.031 29.0529 15.0114C29.0324 14.9917 29.0053 14.9805 28.977 14.98ZM29.539 14.98C29.524 14.9799 29.5092 14.9827 29.4953 14.9884C29.4815 14.9941 29.4689 15.0025 29.4584 15.0132C29.4479 15.0238 29.4396 15.0364 29.434 15.0503C29.4284 15.0642 29.4257 15.0791 29.426 15.094C29.426 15.156 29.477 15.208 29.539 15.207C29.6 15.207 29.649 15.155 29.65 15.094V15.086C29.6485 15.0577 29.6363 15.031 29.6159 15.0114C29.5954 14.9917 29.5683 14.9805 29.54 14.98H29.539ZM30.099 14.98C30.0843 14.9803 30.0698 14.9834 30.0563 14.9893C30.0428 14.9952 30.0306 15.0036 30.0204 15.0142C30.0101 15.0248 30.0021 15.0373 29.9967 15.051C29.9913 15.0647 29.9887 15.0793 29.989 15.094C29.989 15.155 30.038 15.207 30.099 15.207C30.129 15.207 30.1579 15.1951 30.1792 15.174C30.2006 15.1528 30.2127 15.1241 30.213 15.094V15.086C30.2114 15.0572 30.1988 15.0301 30.1778 15.0103C30.1567 14.9906 30.1288 14.9797 30.1 14.98H30.099ZM30.662 14.98C30.6472 14.9801 30.6326 14.9832 30.619 14.989C30.6054 14.9948 30.593 15.0033 30.5827 15.0139C30.5724 15.0245 30.5643 15.037 30.5588 15.0508C30.5534 15.0645 30.5507 15.0792 30.551 15.094C30.551 15.155 30.601 15.207 30.662 15.207C30.6919 15.2068 30.7205 15.1948 30.7416 15.1736C30.7627 15.1525 30.7747 15.1239 30.775 15.094V15.086C30.7734 15.0572 30.7608 15.0301 30.7398 15.0103C30.7187 14.9906 30.6908 14.9797 30.662 14.98ZM31.225 14.98C31.2101 14.98 31.1954 14.983 31.1817 14.9887C31.1679 14.9945 31.1555 15.0029 31.1451 15.0135C31.1346 15.0241 31.1264 15.0367 31.1209 15.0505C31.1154 15.0644 31.1127 15.0791 31.113 15.094C31.113 15.155 31.163 15.207 31.225 15.207C31.2549 15.2068 31.2835 15.1948 31.3046 15.1736C31.3257 15.1525 31.3377 15.1239 31.338 15.094V15.086C31.3364 15.0572 31.3238 15.0301 31.3028 15.0103C31.2817 14.9906 31.2538 14.9797 31.225 14.98ZM31.787 14.98C31.7722 14.9801 31.7576 14.9832 31.744 14.989C31.7304 14.9948 31.718 15.0033 31.7077 15.0139C31.6974 15.0245 31.6893 15.037 31.6838 15.0508C31.6784 15.0645 31.6757 15.0792 31.676 15.094C31.676 15.155 31.726 15.207 31.787 15.207C31.848 15.207 31.897 15.155 31.898 15.094V15.074C31.8941 15.0477 31.8808 15.0237 31.8606 15.0064C31.8404 14.9891 31.8146 14.9797 31.788 14.98H31.787ZM32.35 14.98C32.3349 14.9797 32.32 14.9825 32.306 14.9881C32.2921 14.9938 32.2794 15.0022 32.2688 15.0128C32.2581 15.0234 32.2497 15.0361 32.2441 15.0501C32.2385 15.064 32.2357 15.079 32.236 15.094C32.236 15.156 32.288 15.208 32.35 15.207C32.41 15.207 32.46 15.155 32.46 15.094C32.462 15.086 32.462 15.082 32.46 15.074C32.4561 15.0477 32.4428 15.0237 32.4226 15.0064C32.4024 14.9891 32.3766 14.9797 32.35 14.98ZM32.912 14.98C32.897 14.9799 32.8822 14.9827 32.8683 14.9884C32.8545 14.9941 32.8419 15.0025 32.8314 15.0132C32.8209 15.0238 32.8126 15.0364 32.807 15.0503C32.8014 15.0642 32.7987 15.0791 32.799 15.094C32.799 15.156 32.85 15.208 32.912 15.207C32.973 15.207 33.022 15.155 33.023 15.094V15.086C33.0215 15.0577 33.0093 15.031 32.9889 15.0114C32.9684 14.9917 32.9413 14.9805 32.913 14.98H32.912ZM33.475 14.98C33.4599 14.9797 33.445 14.9825 33.431 14.9881C33.4171 14.9938 33.4044 15.0022 33.3938 15.0128C33.3831 15.0234 33.3747 15.0361 33.3691 15.0501C33.3635 15.064 33.3607 15.079 33.361 15.094C33.361 15.156 33.413 15.208 33.475 15.207C33.5043 15.206 33.5322 15.1937 33.5527 15.1726C33.5732 15.1516 33.5847 15.1234 33.585 15.094V15.086C33.5835 15.0577 33.5713 15.031 33.5509 15.0114C33.5304 14.9917 33.5033 14.9805 33.475 14.98ZM34.037 14.98C34.022 14.9799 34.0072 14.9827 33.9933 14.9884C33.9795 14.9941 33.9669 15.0025 33.9564 15.0132C33.9459 15.0238 33.9376 15.0364 33.932 15.0503C33.9264 15.0642 33.9237 15.0791 33.924 15.094C33.924 15.156 33.975 15.208 34.037 15.207C34.0665 15.2062 34.0946 15.194 34.1153 15.1729C34.136 15.1519 34.1477 15.1236 34.148 15.094V15.086C34.1465 15.0577 34.1343 15.031 34.1139 15.0114C34.0934 14.9917 34.0663 14.9805 34.038 14.98H34.037ZM34.597 14.98C34.5823 14.9803 34.5678 14.9834 34.5543 14.9893C34.5408 14.9952 34.5286 15.0036 34.5184 15.0142C34.5081 15.0248 34.5001 15.0373 34.4947 15.051C34.4893 15.0647 34.4867 15.0793 34.487 15.094C34.487 15.155 34.536 15.207 34.597 15.207C34.627 15.207 34.6559 15.1951 34.6772 15.174C34.6986 15.1528 34.7107 15.1241 34.711 15.094V15.086C34.7094 15.0572 34.6968 15.0301 34.6758 15.0103C34.6547 14.9906 34.6268 14.9797 34.598 14.98H34.597ZM16.148 17.623C15.8963 17.6276 15.6568 17.7319 15.482 17.913L13.674 19.77C13.5872 19.8593 13.5189 19.9649 13.4731 20.0807C13.4272 20.1965 13.4047 20.3203 13.4068 20.4448C13.409 20.5693 13.4357 20.6922 13.4855 20.8064C13.5353 20.9205 13.6072 21.0237 13.697 21.11C13.7861 21.1969 13.8915 21.2653 14.0071 21.3115C14.1227 21.3576 14.2463 21.3805 14.3707 21.3788C14.4952 21.3771 14.6181 21.3509 14.7324 21.3017C14.8467 21.2525 14.9502 21.1813 15.037 21.092L16.846 19.232C16.9327 19.1426 17.0009 19.037 17.0467 18.9211C17.0924 18.8053 17.1148 18.6816 17.1126 18.557C17.1104 18.4325 17.0836 18.3096 17.0337 18.1955C16.9838 18.0814 16.9119 17.9782 16.822 17.892C16.7331 17.8052 16.6281 17.7368 16.5128 17.6906C16.3974 17.6445 16.2742 17.6215 16.15 17.623H16.148ZM19.128 17.623C19.0035 17.6252 18.8807 17.652 18.7666 17.7017C18.6525 17.7515 18.5493 17.8233 18.463 17.913L16.654 19.77C16.5671 19.8593 16.4988 19.9648 16.4528 20.0806C16.4069 20.1964 16.3843 20.3201 16.3864 20.4446C16.3884 20.5691 16.415 20.692 16.4647 20.8062C16.5144 20.9204 16.5862 21.0237 16.676 21.11C16.7651 21.1969 16.8705 21.2653 16.9861 21.3115C17.1017 21.3576 17.2253 21.3805 17.3497 21.3788C17.4742 21.3771 17.5971 21.3509 17.7114 21.3017C17.8257 21.2525 17.9292 21.1813 18.016 21.092L19.824 19.232C19.9109 19.1428 19.9793 19.0373 20.0254 18.9216C20.0714 18.8059 20.094 18.6822 20.0921 18.5577C20.0901 18.4331 20.0636 18.3102 20.014 18.196C19.9644 18.0817 19.8927 17.9784 19.803 17.892C19.7139 17.805 19.6085 17.7364 19.4928 17.6902C19.3772 17.6441 19.2535 17.6212 19.129 17.623H19.128ZM22.108 17.623C21.9832 17.625 21.86 17.6516 21.7455 17.7014C21.631 17.7511 21.5275 17.8231 21.441 17.913L19.635 19.77C19.548 19.8591 19.4795 19.9646 19.4334 20.0803C19.3873 20.196 19.3645 20.3196 19.3664 20.4442C19.3682 20.5687 19.3947 20.6916 19.4442 20.8059C19.4937 20.9202 19.5654 21.0235 19.655 21.11C19.7441 21.1969 19.8495 21.2653 19.9651 21.3115C20.0807 21.3576 20.2043 21.3805 20.3287 21.3788C20.4532 21.3771 20.5761 21.3509 20.6904 21.3017C20.8047 21.2525 20.9082 21.1813 20.995 21.092L22.803 19.232C22.89 19.1429 22.9585 19.0374 23.0046 18.9218C23.0507 18.8061 23.0735 18.6824 23.0716 18.5579C23.0697 18.4333 23.0433 18.3104 22.9937 18.1961C22.9442 18.0819 22.8726 17.9785 22.783 17.892C22.6939 17.805 22.5885 17.7364 22.4728 17.6902C22.3572 17.6441 22.2335 17.6212 22.109 17.623H22.107H22.108ZM25.086 17.623C24.8343 17.6276 24.5948 17.7319 24.42 17.913L22.61 19.77C22.5232 19.8594 22.455 19.9651 22.4093 20.0809C22.3635 20.1967 22.3411 20.3205 22.3433 20.445C22.3456 20.5695 22.3724 20.6924 22.4223 20.8065C22.4722 20.9207 22.5441 21.0238 22.634 21.11C22.7231 21.1969 22.8285 21.2653 22.9441 21.3115C23.0597 21.3576 23.1833 21.3805 23.3077 21.3788C23.4322 21.3771 23.5551 21.3509 23.6694 21.3017C23.7837 21.2525 23.8872 21.1813 23.974 21.092L25.782 19.232C25.8688 19.1427 25.9371 19.0371 25.9829 18.9213C26.0287 18.8055 26.0512 18.6818 26.0491 18.5572C26.047 18.4327 26.0202 18.3098 25.9704 18.1957C25.9207 18.0815 25.8488 17.9783 25.759 17.892C25.6701 17.8052 25.5651 17.7368 25.4498 17.6906C25.3344 17.6445 25.2112 17.6215 25.087 17.623H25.085H25.086ZM28.066 17.623C27.9413 17.6251 27.8183 17.6518 27.704 17.7015C27.5897 17.7513 27.4864 17.8232 27.4 17.913L25.592 19.77C25.5051 19.8592 25.4366 19.9647 25.3906 20.0804C25.3446 20.1962 25.3219 20.3199 25.3239 20.4444C25.3258 20.5689 25.3524 20.6918 25.402 20.8061C25.4516 20.9203 25.5233 21.0236 25.613 21.11C25.7021 21.1969 25.8075 21.2653 25.9231 21.3115C26.0387 21.3576 26.1623 21.3805 26.2867 21.3788C26.4112 21.3771 26.5341 21.3509 26.6484 21.3017C26.7627 21.2525 26.8662 21.1813 26.953 21.092L28.762 19.232C28.8488 19.1428 28.9172 19.0372 28.9631 18.9214C29.0091 18.8057 29.0316 18.682 29.0296 18.5574C29.0276 18.4329 29.0009 18.31 28.9512 18.1958C28.9015 18.0816 28.8297 17.9784 28.74 17.892C28.6509 17.805 28.5455 17.7364 28.4298 17.6902C28.3142 17.6441 28.1905 17.6212 28.066 17.623ZM31.045 17.623C30.9203 17.6251 30.7973 17.6518 30.683 17.7015C30.5687 17.7513 30.4654 17.8232 30.379 17.913L28.572 19.77C28.485 19.8591 28.4165 19.9646 28.3704 20.0803C28.3243 20.196 28.3015 20.3196 28.3034 20.4442C28.3052 20.5687 28.3317 20.6916 28.3812 20.8059C28.4307 20.9202 28.5024 21.0235 28.592 21.11C28.6811 21.1969 28.7865 21.2653 28.9021 21.3115C29.0177 21.3576 29.1413 21.3805 29.2657 21.3788C29.3902 21.3771 29.5131 21.3509 29.6274 21.3017C29.7417 21.2525 29.8452 21.1813 29.932 21.092L31.74 19.232C31.827 19.1429 31.8955 19.0374 31.9416 18.9218C31.9877 18.8061 32.0105 18.6824 32.0086 18.5579C32.0067 18.4333 31.9803 18.3104 31.9307 18.1961C31.8812 18.0819 31.8096 17.9785 31.72 17.892C31.631 17.8051 31.5258 17.7366 31.4103 17.6904C31.2948 17.6443 31.1713 17.6214 31.047 17.623H31.045ZM34.023 17.623C33.7713 17.6276 33.5318 17.7319 33.357 17.913L31.55 19.77C31.4632 19.8593 31.3949 19.9649 31.3491 20.0807C31.3032 20.1965 31.2807 20.3203 31.2828 20.4448C31.285 20.5693 31.3117 20.6922 31.3615 20.8064C31.4113 20.9205 31.4832 21.0237 31.573 21.11C31.6621 21.1969 31.7675 21.2653 31.8831 21.3115C31.9987 21.3576 32.1223 21.3805 32.2467 21.3788C32.3712 21.3771 32.4941 21.3509 32.6084 21.3017C32.7227 21.2525 32.8262 21.1813 32.913 21.092L34.722 19.232C34.8087 19.1426 34.8769 19.037 34.9227 18.9211C34.9684 18.8053 34.9908 18.6816 34.9886 18.557C34.9864 18.4325 34.9596 18.3096 34.9097 18.1955C34.8598 18.0814 34.7879 17.9782 34.698 17.892C34.6091 17.8052 34.5041 17.7368 34.3888 17.6906C34.2734 17.6445 34.1502 17.6215 34.026 17.623H34.024H34.023ZM16.213 18.103H16.215V18.105C16.294 18.109 16.375 18.143 16.459 18.211C16.866 18.573 16.384 18.996 16.209 19.18L15.344 20.084C14.737 20.715 14.473 21.142 14.049 20.734C13.689 20.361 14.005 20.138 14.693 19.439L15.559 18.537C15.764 18.336 15.977 18.092 16.213 18.104V18.103ZM19.193 18.103H19.195V18.105C19.275 18.109 19.355 18.143 19.439 18.211C19.846 18.573 19.365 18.996 19.189 19.18L18.324 20.084C17.717 20.715 17.453 21.142 17.029 20.734C16.669 20.361 16.986 20.138 17.674 19.439L18.539 18.537C18.744 18.336 18.957 18.092 19.193 18.104V18.103ZM22.172 18.103V18.105C22.2631 18.1134 22.3493 18.1505 22.418 18.211C22.825 18.573 22.343 18.996 22.168 19.18L21.303 20.084C20.695 20.715 20.431 21.142 20.008 20.734C19.648 20.361 19.964 20.138 20.652 19.439L21.518 18.537C21.723 18.336 21.936 18.092 22.172 18.104V18.103ZM25.15 18.103V18.105C25.2415 18.1131 25.328 18.1503 25.397 18.211C25.803 18.573 25.322 18.996 25.147 19.18L24.281 20.084C23.674 20.715 23.41 21.142 22.986 20.734C22.626 20.361 22.943 20.138 23.631 19.439L24.496 18.537C24.702 18.336 24.914 18.092 25.15 18.104V18.103ZM28.13 18.103H28.133V18.105C28.212 18.109 28.293 18.143 28.377 18.211C28.784 18.573 28.302 18.996 28.127 19.18L27.262 20.084C26.654 20.715 26.39 21.142 25.967 20.734C25.607 20.361 25.923 20.138 26.611 19.439L27.477 18.537C27.682 18.336 27.895 18.092 28.131 18.104L28.13 18.103ZM31.11 18.103V18.105C31.2008 18.1136 31.2865 18.1507 31.355 18.211C31.762 18.573 31.281 18.996 31.105 19.18L30.24 20.084C29.633 20.715 29.369 21.142 28.945 20.734C28.585 20.361 28.902 20.138 29.59 19.439L30.455 18.537C30.661 18.336 30.873 18.092 31.109 18.104L31.11 18.103ZM34.088 18.103H34.09V18.105C34.169 18.109 34.25 18.143 34.334 18.211C34.741 18.573 34.259 18.996 34.084 19.18L33.219 20.084C32.611 20.715 32.347 21.142 31.924 20.734C31.564 20.361 31.88 20.138 32.568 19.439L33.434 18.537C33.639 18.336 33.852 18.092 34.088 18.104V18.103ZM13.795 23.98C13.7802 23.9801 13.7656 23.9832 13.752 23.989C13.7384 23.9948 13.726 24.0033 13.7157 24.0139C13.7054 24.0245 13.6973 24.037 13.6918 24.0508C13.6864 24.0645 13.6837 24.0792 13.684 24.094C13.684 24.155 13.734 24.206 13.794 24.207C13.857 24.207 13.907 24.157 13.908 24.094C13.9082 24.0791 13.9055 24.0642 13.8999 24.0503C13.8944 24.0364 13.8861 24.0238 13.8755 24.0132C13.865 24.0025 13.8525 23.9941 13.8386 23.9884C13.8248 23.9827 13.8099 23.9799 13.795 23.98ZM14.357 23.98C14.3269 23.9803 14.2982 23.9924 14.277 24.0138C14.2558 24.0351 14.244 24.064 14.244 24.094C14.244 24.155 14.296 24.207 14.357 24.207C14.419 24.207 14.468 24.155 14.469 24.094V24.074C14.4651 24.0473 14.4515 24.023 14.4309 24.0057C14.4102 23.9884 14.3839 23.9792 14.357 23.98ZM14.92 23.98C14.905 23.9799 14.8902 23.9827 14.8763 23.9884C14.8625 23.9941 14.8499 24.0025 14.8394 24.0132C14.8289 24.0238 14.8206 24.0364 14.815 24.0503C14.8094 24.0642 14.8067 24.0791 14.807 24.094C14.807 24.156 14.857 24.208 14.92 24.207C14.981 24.207 15.03 24.155 15.031 24.094V24.074C15.0271 24.0475 15.0137 24.0234 14.9932 24.0061C14.9728 23.9887 14.9468 23.9795 14.92 23.98ZM15.482 23.98C15.467 23.9799 15.4522 23.9827 15.4383 23.9884C15.4245 23.9941 15.4119 24.0025 15.4014 24.0132C15.3909 24.0238 15.3826 24.0364 15.377 24.0503C15.3714 24.0642 15.3687 24.0791 15.369 24.094C15.369 24.156 15.42 24.208 15.482 24.207C15.544 24.207 15.593 24.155 15.594 24.094V24.086C15.5922 24.0575 15.5796 24.0308 15.5588 24.0113C15.538 23.9918 15.5105 23.981 15.482 23.981V23.98ZM16.045 23.98C16.03 23.9799 16.0152 23.9827 16.0013 23.9884C15.9875 23.9941 15.9749 24.0025 15.9644 24.0132C15.9539 24.0238 15.9456 24.0364 15.94 24.0503C15.9344 24.0642 15.9317 24.0791 15.932 24.094C15.932 24.156 15.982 24.208 16.045 24.207C16.106 24.207 16.155 24.155 16.156 24.094V24.086C16.1542 24.0577 16.1418 24.0311 16.1212 24.0117C16.1006 23.9922 16.0733 23.9812 16.045 23.981V23.98ZM16.607 23.98C16.592 23.9799 16.5772 23.9827 16.5633 23.9884C16.5495 23.9941 16.5369 24.0025 16.5264 24.0132C16.5159 24.0238 16.5076 24.0364 16.502 24.0503C16.4964 24.0642 16.4937 24.0791 16.494 24.094C16.494 24.156 16.545 24.208 16.607 24.207C16.669 24.207 16.718 24.155 16.719 24.094V24.086C16.7172 24.0575 16.7046 24.0308 16.6838 24.0113C16.663 23.9918 16.6355 23.981 16.607 23.981V23.98ZM17.168 23.98C17.1532 23.9801 17.1386 23.9832 17.125 23.989C17.1114 23.9948 17.099 24.0033 17.0887 24.0139C17.0784 24.0245 17.0703 24.037 17.0648 24.0508C17.0594 24.0645 17.0567 24.0792 17.057 24.094C17.057 24.155 17.107 24.207 17.168 24.207C17.1979 24.2068 17.2265 24.1948 17.2476 24.1736C17.2687 24.1525 17.2807 24.1239 17.281 24.094V24.086C17.2792 24.0574 17.2665 24.0305 17.2454 24.011C17.2244 23.9914 17.1967 23.9807 17.168 23.981V23.98ZM17.731 23.98C17.7161 23.98 17.7014 23.983 17.6876 23.9887C17.6739 23.9945 17.6615 24.0029 17.6511 24.0135C17.6406 24.0241 17.6324 24.0367 17.6269 24.0505C17.6214 24.0644 17.6187 24.0791 17.619 24.094C17.619 24.155 17.669 24.207 17.73 24.207C17.76 24.207 17.7889 24.1951 17.8102 24.174C17.8316 24.1528 17.8437 24.1241 17.844 24.094V24.086C17.8422 24.0572 17.8293 24.0302 17.8081 24.0106C17.7868 23.991 17.7589 23.9804 17.73 23.981L17.731 23.98ZM18.293 23.98C18.2782 23.9801 18.2636 23.9832 18.25 23.989C18.2364 23.9948 18.224 24.0033 18.2137 24.0139C18.2034 24.0245 18.1953 24.037 18.1898 24.0508C18.1844 24.0645 18.1817 24.0792 18.182 24.094C18.182 24.155 18.232 24.207 18.293 24.207C18.3229 24.2068 18.3515 24.1948 18.3726 24.1736C18.3937 24.1525 18.4057 24.1239 18.406 24.094V24.086C18.4042 24.0574 18.3915 24.0305 18.3704 24.011C18.3494 23.9914 18.3217 23.9807 18.293 23.981V23.98ZM18.856 23.98C18.8411 23.98 18.8264 23.983 18.8126 23.9887C18.7989 23.9945 18.7865 24.0029 18.7761 24.0135C18.7656 24.0241 18.7574 24.0367 18.7519 24.0505C18.7464 24.0644 18.7437 24.0791 18.744 24.094C18.744 24.155 18.794 24.207 18.855 24.207C18.917 24.207 18.966 24.155 18.967 24.094V24.074C18.9631 24.0475 18.9497 24.0234 18.9292 24.0061C18.9088 23.9887 18.8828 23.9795 18.856 23.98ZM19.418 23.98C19.403 23.9799 19.3882 23.9827 19.3743 23.9884C19.3605 23.9941 19.3479 24.0025 19.3374 24.0132C19.3269 24.0238 19.3186 24.0364 19.313 24.0503C19.3074 24.0642 19.3047 24.0791 19.305 24.094C19.305 24.156 19.356 24.208 19.418 24.207C19.479 24.207 19.528 24.155 19.529 24.094V24.086C19.5272 24.0577 19.5148 24.0311 19.4942 24.0117C19.4736 23.9922 19.4463 23.9812 19.418 23.981V23.98ZM19.981 23.98C19.9659 23.9797 19.951 23.9825 19.937 23.9881C19.9231 23.9938 19.9104 24.0022 19.8998 24.0128C19.8891 24.0234 19.8807 24.0361 19.8751 24.0501C19.8695 24.064 19.8667 24.079 19.867 24.094C19.867 24.156 19.919 24.208 19.98 24.207C20.042 24.207 20.091 24.155 20.092 24.094V24.086C20.0902 24.0577 20.0778 24.0311 20.0572 24.0117C20.0366 23.9922 20.0093 23.9812 19.981 23.981V23.98ZM20.543 23.98C20.528 23.9799 20.5132 23.9827 20.4993 23.9884C20.4855 23.9941 20.4729 24.0025 20.4624 24.0132C20.4519 24.0238 20.4436 24.0364 20.438 24.0503C20.4324 24.0642 20.4297 24.0791 20.43 24.094C20.43 24.156 20.481 24.208 20.543 24.207C20.604 24.207 20.653 24.155 20.654 24.094V24.086C20.6522 24.0577 20.6398 24.0311 20.6192 24.0117C20.5986 23.9922 20.5713 23.9812 20.543 23.981V23.98ZM21.106 23.98C21.0909 23.9797 21.076 23.9825 21.062 23.9881C21.0481 23.9938 21.0354 24.0022 21.0248 24.0128C21.0141 24.0234 21.0057 24.0361 21.0001 24.0501C20.9945 24.064 20.9917 24.079 20.992 24.094C20.992 24.156 21.044 24.208 21.105 24.207C21.167 24.207 21.216 24.155 21.217 24.094V24.086C21.2152 24.0577 21.2028 24.0311 21.1822 24.0117C21.1616 23.9922 21.1343 23.9812 21.106 23.981V23.98ZM21.666 23.98C21.6512 23.9801 21.6366 23.9832 21.623 23.989C21.6094 23.9948 21.597 24.0033 21.5867 24.0139C21.5764 24.0245 21.5683 24.037 21.5628 24.0508C21.5574 24.0645 21.5547 24.0792 21.555 24.094C21.555 24.155 21.605 24.207 21.666 24.207C21.6959 24.2068 21.7245 24.1948 21.7456 24.1736C21.7667 24.1525 21.7787 24.1239 21.779 24.094V24.086C21.7772 24.0574 21.7645 24.0305 21.7434 24.011C21.7224 23.9914 21.6947 23.9807 21.666 23.981V23.98ZM22.229 23.98C22.2141 23.98 22.1994 23.983 22.1856 23.9887C22.1719 23.9945 22.1595 24.0029 22.1491 24.0135C22.1386 24.0241 22.1304 24.0367 22.1249 24.0505C22.1194 24.0644 22.1167 24.0791 22.117 24.094C22.117 24.155 22.167 24.207 22.228 24.207C22.258 24.207 22.2869 24.1951 22.3082 24.174C22.3296 24.1528 22.3417 24.1241 22.342 24.094V24.086C22.3402 24.0574 22.3275 24.0305 22.3064 24.011C22.2854 23.9914 22.2577 23.9807 22.229 23.981V23.98ZM22.791 23.98C22.7762 23.9801 22.7616 23.9832 22.748 23.989C22.7344 23.9948 22.722 24.0033 22.7117 24.0139C22.7014 24.0245 22.6933 24.037 22.6878 24.0508C22.6824 24.0645 22.6797 24.0792 22.68 24.094C22.68 24.155 22.73 24.206 22.791 24.207C22.853 24.207 22.904 24.157 22.904 24.094C22.9042 24.0791 22.9015 24.0642 22.8959 24.0503C22.8904 24.0364 22.8821 24.0238 22.8715 24.0132C22.861 24.0025 22.8485 23.9941 22.8346 23.9884C22.8208 23.9827 22.8059 23.9799 22.791 23.98ZM23.354 23.98C23.3391 23.98 23.3244 23.983 23.3106 23.9887C23.2969 23.9945 23.2845 24.0029 23.2741 24.0135C23.2636 24.0241 23.2554 24.0367 23.2499 24.0505C23.2444 24.0644 23.2417 24.0791 23.242 24.094C23.242 24.155 23.292 24.207 23.353 24.207C23.3827 24.2065 23.411 24.1944 23.4319 24.1733C23.4529 24.1522 23.4647 24.1237 23.465 24.094V24.074C23.4609 24.0476 23.4474 24.0236 23.427 24.0063C23.4066 23.989 23.3807 23.9797 23.354 23.98ZM23.916 23.98C23.901 23.9799 23.8862 23.9827 23.8723 23.9884C23.8585 23.9941 23.8459 24.0025 23.8354 24.0132C23.8249 24.0238 23.8166 24.0364 23.811 24.0503C23.8054 24.0642 23.8027 24.0791 23.803 24.094C23.803 24.156 23.854 24.208 23.916 24.207C23.977 24.207 24.026 24.155 24.027 24.094V24.074C24.0231 24.0475 24.0097 24.0234 23.9892 24.0061C23.9688 23.9887 23.9428 23.9795 23.916 23.98ZM24.479 23.98C24.4639 23.9797 24.449 23.9825 24.435 23.9881C24.4211 23.9938 24.4084 24.0022 24.3978 24.0128C24.3871 24.0234 24.3787 24.0361 24.3731 24.0501C24.3675 24.064 24.3647 24.079 24.365 24.094C24.365 24.156 24.417 24.208 24.479 24.207C24.539 24.207 24.589 24.155 24.589 24.094V24.086C24.5872 24.0579 24.5749 24.0315 24.5545 24.012C24.5341 23.9925 24.5072 23.9815 24.479 23.981V23.98ZM25.041 23.98C25.026 23.9799 25.0112 23.9827 24.9973 23.9884C24.9835 23.9941 24.9709 24.0025 24.9604 24.0132C24.9499 24.0238 24.9416 24.0364 24.936 24.0503C24.9304 24.0642 24.9277 24.0791 24.928 24.094C24.928 24.156 24.979 24.208 25.041 24.207C25.102 24.207 25.151 24.155 25.152 24.094V24.086C25.1502 24.0577 25.1378 24.0311 25.1172 24.0117C25.0966 23.9922 25.0693 23.9812 25.041 23.981V23.98ZM25.601 23.98C25.5863 23.9803 25.5718 23.9834 25.5583 23.9893C25.5448 23.9952 25.5326 24.0036 25.5224 24.0142C25.5121 24.0248 25.5041 24.0373 25.4987 24.051C25.4933 24.0647 25.4907 24.0793 25.491 24.094C25.491 24.155 25.541 24.207 25.601 24.207C25.631 24.207 25.6599 24.1951 25.6812 24.174C25.7026 24.1528 25.7147 24.1241 25.715 24.094V24.086C25.7132 24.0574 25.7005 24.0305 25.6794 24.011C25.6584 23.9914 25.6307 23.9807 25.602 23.981L25.601 23.98ZM26.164 23.98C26.1492 23.9801 26.1346 23.9832 26.121 23.989C26.1074 23.9948 26.095 24.0033 26.0847 24.0139C26.0744 24.0245 26.0663 24.037 26.0608 24.0508C26.0554 24.0645 26.0527 24.0792 26.053 24.094C26.053 24.155 26.103 24.207 26.164 24.207C26.1939 24.2068 26.2225 24.1948 26.2436 24.1736C26.2647 24.1525 26.2767 24.1239 26.277 24.094V24.086C26.2752 24.0574 26.2625 24.0305 26.2414 24.011C26.2204 23.9914 26.1927 23.9807 26.164 23.981V23.98ZM26.727 23.98C26.7121 23.98 26.6974 23.983 26.6836 23.9887C26.6699 23.9945 26.6575 24.0029 26.6471 24.0135C26.6366 24.0241 26.6284 24.0367 26.6229 24.0505C26.6174 24.0644 26.6147 24.0791 26.615 24.094C26.615 24.155 26.665 24.207 26.727 24.207C26.7569 24.2068 26.7855 24.1948 26.8066 24.1736C26.8277 24.1525 26.8397 24.1239 26.84 24.094V24.086C26.8382 24.0574 26.8255 24.0305 26.8044 24.011C26.7834 23.9914 26.7557 23.9807 26.727 23.981V23.98ZM27.289 23.98C27.2742 23.9801 27.2596 23.9832 27.246 23.989C27.2324 23.9948 27.22 24.0033 27.2097 24.0139C27.1994 24.0245 27.1913 24.037 27.1858 24.0508C27.1804 24.0645 27.1777 24.0792 27.178 24.094C27.178 24.155 27.228 24.206 27.289 24.207C27.351 24.207 27.402 24.157 27.402 24.094C27.4022 24.0791 27.3995 24.0642 27.3939 24.0503C27.3884 24.0364 27.3801 24.0238 27.3695 24.0132C27.359 24.0025 27.3464 23.9941 27.3326 23.9884C27.3188 23.9827 27.3039 23.9799 27.289 23.98ZM27.852 23.98C27.8371 23.98 27.8224 23.983 27.8086 23.9887C27.7949 23.9945 27.7825 24.0029 27.7721 24.0135C27.7616 24.0241 27.7534 24.0367 27.7479 24.0505C27.7424 24.0644 27.7397 24.0791 27.74 24.094C27.74 24.155 27.79 24.207 27.852 24.207C27.912 24.207 27.962 24.155 27.962 24.094C27.964 24.086 27.964 24.082 27.962 24.074C27.9581 24.0477 27.9448 24.0237 27.9246 24.0064C27.9044 23.9891 27.8786 23.9797 27.852 23.98ZM28.414 23.98C28.399 23.9799 28.3842 23.9827 28.3703 23.9884C28.3565 23.9941 28.3439 24.0025 28.3334 24.0132C28.3229 24.0238 28.3146 24.0364 28.309 24.0503C28.3034 24.0642 28.3007 24.0791 28.301 24.094C28.301 24.156 28.352 24.208 28.414 24.207C28.475 24.207 28.524 24.155 28.525 24.094V24.086C28.5232 24.0579 28.5109 24.0315 28.4905 24.012C28.4701 23.9925 28.4432 23.9815 28.415 23.981L28.414 23.98ZM28.977 23.98C28.9619 23.9797 28.947 23.9825 28.933 23.9881C28.9191 23.9938 28.9064 24.0022 28.8958 24.0128C28.8851 24.0234 28.8767 24.0361 28.8711 24.0501C28.8655 24.064 28.8627 24.079 28.863 24.094C28.863 24.156 28.915 24.208 28.977 24.207C29.037 24.207 29.087 24.155 29.087 24.094V24.086C29.0852 24.0579 29.0729 24.0315 29.0525 24.012C29.0321 23.9925 29.0052 23.9815 28.977 23.981V23.98ZM29.539 23.98C29.524 23.9799 29.5092 23.9827 29.4953 23.9884C29.4815 23.9941 29.4689 24.0025 29.4584 24.0132C29.4479 24.0238 29.4396 24.0364 29.434 24.0503C29.4284 24.0642 29.4257 24.0791 29.426 24.094C29.426 24.156 29.477 24.208 29.539 24.207C29.6 24.207 29.649 24.155 29.65 24.094V24.086C29.6482 24.0579 29.6359 24.0315 29.6155 24.012C29.5951 23.9925 29.5682 23.9815 29.54 23.981L29.539 23.98ZM30.099 23.98C30.0843 23.9803 30.0698 23.9834 30.0563 23.9893C30.0428 23.9952 30.0306 24.0036 30.0204 24.0142C30.0101 24.0248 30.0021 24.0373 29.9967 24.051C29.9913 24.0647 29.9887 24.0793 29.989 24.094C29.989 24.155 30.038 24.207 30.099 24.207C30.129 24.207 30.1579 24.1951 30.1792 24.174C30.2006 24.1528 30.2127 24.1241 30.213 24.094V24.086C30.2112 24.0574 30.1985 24.0305 30.1774 24.011C30.1564 23.9914 30.1287 23.9807 30.1 23.981L30.099 23.98ZM30.662 23.98C30.6472 23.9801 30.6326 23.9832 30.619 23.989C30.6054 23.9948 30.593 24.0033 30.5827 24.0139C30.5724 24.0245 30.5643 24.037 30.5588 24.0508C30.5534 24.0645 30.5507 24.0792 30.551 24.094C30.551 24.155 30.601 24.207 30.662 24.207C30.6919 24.2068 30.7205 24.1948 30.7416 24.1736C30.7627 24.1525 30.7747 24.1239 30.775 24.094V24.086C30.7732 24.0574 30.7605 24.0305 30.7394 24.011C30.7184 23.9914 30.6907 23.9807 30.662 23.981V23.98ZM31.225 23.98C31.2101 23.98 31.1954 23.983 31.1817 23.9887C31.1679 23.9945 31.1555 24.0029 31.1451 24.0135C31.1346 24.0241 31.1264 24.0367 31.1209 24.0505C31.1154 24.0644 31.1127 24.0791 31.113 24.094C31.113 24.155 31.163 24.207 31.225 24.207C31.2549 24.2068 31.2835 24.1948 31.3046 24.1736C31.3257 24.1525 31.3377 24.1239 31.338 24.094V24.086C31.3362 24.0574 31.3235 24.0305 31.3024 24.011C31.2814 23.9914 31.2537 23.9807 31.225 23.981V23.98ZM31.787 23.98C31.7722 23.9801 31.7576 23.9832 31.744 23.989C31.7304 23.9948 31.718 24.0033 31.7077 24.0139C31.6974 24.0245 31.6893 24.037 31.6838 24.0508C31.6784 24.0645 31.6757 24.0792 31.676 24.094C31.676 24.155 31.726 24.207 31.787 24.207C31.848 24.207 31.897 24.155 31.898 24.094V24.074C31.8941 24.0477 31.8808 24.0237 31.8606 24.0064C31.8404 23.9891 31.8146 23.9797 31.788 23.98H31.787ZM32.35 23.98C32.3349 23.9797 32.32 23.9825 32.306 23.9881C32.2921 23.9938 32.2794 24.0022 32.2688 24.0128C32.2581 24.0234 32.2497 24.0361 32.2441 24.0501C32.2385 24.064 32.2357 24.079 32.236 24.094C32.236 24.156 32.288 24.208 32.35 24.207C32.41 24.207 32.46 24.155 32.46 24.094C32.462 24.086 32.462 24.082 32.46 24.074C32.4561 24.0477 32.4428 24.0237 32.4226 24.0064C32.4024 23.9891 32.3766 23.9797 32.35 23.98ZM32.912 23.98C32.897 23.9799 32.8822 23.9827 32.8683 23.9884C32.8545 23.9941 32.8419 24.0025 32.8314 24.0132C32.8209 24.0238 32.8126 24.0364 32.807 24.0503C32.8014 24.0642 32.7987 24.0791 32.799 24.094C32.799 24.156 32.85 24.208 32.912 24.207C32.973 24.207 33.022 24.155 33.023 24.094V24.086C33.0212 24.0579 33.0089 24.0315 32.9885 24.012C32.9681 23.9925 32.9412 23.9815 32.913 23.981L32.912 23.98ZM33.475 23.98C33.4599 23.9797 33.445 23.9825 33.431 23.9881C33.4171 23.9938 33.4044 24.0022 33.3938 24.0128C33.3831 24.0234 33.3747 24.0361 33.3691 24.0501C33.3635 24.064 33.3607 24.079 33.361 24.094C33.361 24.156 33.413 24.208 33.475 24.207C33.5043 24.206 33.5322 24.1937 33.5527 24.1726C33.5732 24.1516 33.5847 24.1234 33.585 24.094V24.086C33.5832 24.0579 33.5709 24.0315 33.5505 24.012C33.5301 23.9925 33.5032 23.9815 33.475 23.981V23.98ZM34.037 23.98C34.022 23.9799 34.0072 23.9827 33.9933 23.9884C33.9795 23.9941 33.9669 24.0025 33.9564 24.0132C33.9459 24.0238 33.9376 24.0364 33.932 24.0503C33.9264 24.0642 33.9237 24.0791 33.924 24.094C33.924 24.156 33.975 24.208 34.037 24.207C34.0665 24.2062 34.0946 24.194 34.1153 24.1729C34.136 24.1519 34.1477 24.1236 34.148 24.094V24.086C34.1462 24.0579 34.1339 24.0315 34.1135 24.012C34.0931 23.9925 34.0662 23.9815 34.038 23.981L34.037 23.98ZM34.597 23.98C34.5823 23.9803 34.5678 23.9834 34.5543 23.9893C34.5408 23.9952 34.5286 24.0036 34.5184 24.0142C34.5081 24.0248 34.5001 24.0373 34.4947 24.051C34.4893 24.0647 34.4867 24.0793 34.487 24.094C34.487 24.155 34.536 24.207 34.597 24.207C34.627 24.207 34.6559 24.1951 34.6772 24.174C34.6986 24.1528 34.7107 24.1241 34.711 24.094V24.086C34.7092 24.0574 34.6965 24.0305 34.6754 24.011C34.6544 23.9914 34.6267 23.9807 34.598 23.981L34.597 23.98ZM31.045 26.809V26.811C30.9204 26.813 30.7974 26.8395 30.6831 26.8891C30.5689 26.9387 30.4655 27.0104 30.379 27.1L28.572 28.957C28.485 29.0461 28.4165 29.1516 28.3704 29.2673C28.3243 29.383 28.3015 29.5066 28.3034 29.6312C28.3052 29.7557 28.3317 29.8786 28.3812 29.9929C28.4307 30.1072 28.5024 30.2105 28.592 30.297C28.6811 30.3839 28.7865 30.4523 28.9021 30.4985C29.0177 30.5446 29.1413 30.5675 29.2657 30.5658C29.3902 30.5641 29.5131 30.5379 29.6274 30.4887C29.7417 30.4395 29.8452 30.3683 29.932 30.279L31.742 28.418C31.8289 28.3288 31.8973 28.2233 31.9434 28.1076C31.9894 27.9919 32.012 27.8682 32.0101 27.7437C32.0081 27.6191 31.9816 27.4962 31.932 27.382C31.8824 27.2677 31.8107 27.1644 31.721 27.078C31.632 26.9908 31.5266 26.922 31.4109 26.8757C31.2953 26.8294 31.1716 26.8064 31.047 26.808H31.045V26.809ZM16.148 26.811C15.8965 26.8154 15.657 26.9193 15.482 27.1L13.674 28.957C13.5872 29.0463 13.5189 29.1519 13.4731 29.2677C13.4272 29.3835 13.4047 29.5073 13.4068 29.6318C13.409 29.7563 13.4357 29.8792 13.4855 29.9934C13.5353 30.1075 13.6072 30.2107 13.697 30.297C13.7861 30.3839 13.8915 30.4523 14.0071 30.4985C14.1227 30.5446 14.2463 30.5675 14.3707 30.5658C14.4952 30.5641 14.6181 30.5379 14.7324 30.4887C14.8467 30.4395 14.9502 30.3683 15.037 30.279L16.846 28.419C16.9326 28.3296 17.0006 28.2241 17.0463 28.1083C17.092 27.9926 17.1143 27.8689 17.1121 27.7445C17.1099 27.6201 17.0831 27.4974 17.0333 27.3833C16.9835 27.2693 16.9117 27.1662 16.822 27.08C16.7332 26.993 16.6282 26.9244 16.5129 26.8781C16.3976 26.8318 16.2742 26.8086 16.15 26.81H16.148V26.811ZM19.128 26.811C19.0036 26.8131 18.8808 26.8397 18.7667 26.8893C18.6526 26.9389 18.5494 27.0105 18.463 27.1L16.654 28.957C16.5671 29.0463 16.4988 29.1518 16.4528 29.2676C16.4069 29.3834 16.3843 29.5071 16.3864 29.6316C16.3884 29.7561 16.415 29.879 16.4647 29.9932C16.5144 30.1074 16.5862 30.2107 16.676 30.297C16.7651 30.3839 16.8705 30.4523 16.9861 30.4985C17.1017 30.5446 17.2253 30.5675 17.3497 30.5658C17.4742 30.5641 17.5971 30.5379 17.7114 30.4887C17.8257 30.4395 17.9292 30.3683 18.016 30.279L19.824 28.419C19.9108 28.3298 19.9791 28.2244 20.025 28.1088C20.0709 27.9931 20.0935 27.8696 20.0916 27.7452C20.0896 27.6207 20.0631 27.4979 20.0136 27.3838C19.9641 27.2697 19.8925 27.1664 19.803 27.08C19.714 26.9928 19.6086 26.924 19.4929 26.8777C19.3773 26.8314 19.2536 26.8084 19.129 26.81L19.128 26.811ZM22.108 26.811C21.9832 26.8128 21.8601 26.8393 21.7456 26.8889C21.6311 26.9385 21.5276 27.0102 21.441 27.1L19.635 28.957C19.548 29.0461 19.4795 29.1516 19.4334 29.2673C19.3873 29.383 19.3645 29.5066 19.3664 29.6312C19.3682 29.7557 19.3947 29.8786 19.4442 29.9929C19.4937 30.1072 19.5654 30.2105 19.655 30.297C19.7441 30.3839 19.8495 30.4523 19.9651 30.4985C20.0807 30.5446 20.2043 30.5675 20.3287 30.5658C20.4532 30.5641 20.5761 30.5379 20.6904 30.4887C20.8047 30.4395 20.9082 30.3683 20.995 30.279L22.803 28.419C22.8898 28.3299 22.9582 28.2245 23.0042 28.1089C23.0502 27.9933 23.073 27.8698 23.0711 27.7454C23.0692 27.621 23.0428 27.4981 22.9934 27.384C22.9439 27.2698 22.8724 27.1665 22.783 27.08C22.694 26.9928 22.5886 26.924 22.4729 26.8777C22.3573 26.8314 22.2336 26.8084 22.109 26.81H22.107L22.108 26.811ZM25.086 26.811C24.8345 26.8154 24.595 26.9193 24.42 27.1L22.611 28.957C22.5242 29.0464 22.456 29.1521 22.4103 29.2679C22.3645 29.3837 22.3421 29.5075 22.3443 29.632C22.3466 29.7565 22.3734 29.8794 22.4233 29.9935C22.4732 30.1077 22.5451 30.2108 22.635 30.297C22.7241 30.3839 22.8295 30.4523 22.9451 30.4985C23.0607 30.5446 23.1843 30.5675 23.3087 30.5658C23.4332 30.5641 23.5561 30.5379 23.6704 30.4887C23.7847 30.4395 23.8882 30.3683 23.975 30.279L25.783 28.419C25.8696 28.3297 25.9378 28.2242 25.9835 28.1085C26.0293 27.9928 26.0517 27.8692 26.0496 27.7447C26.0475 27.6203 26.0208 27.4976 25.9711 27.3835C25.9214 27.2694 25.8496 27.1663 25.76 27.08C25.6712 26.993 25.5662 26.9244 25.4509 26.8781C25.3356 26.8318 25.2122 26.8086 25.088 26.81H25.086V26.811ZM28.066 26.811C27.9414 26.813 27.8184 26.8395 27.7041 26.8891C27.5899 26.9387 27.4865 27.0104 27.4 27.1L25.592 28.957C25.5051 29.0462 25.4366 29.1517 25.3906 29.2674C25.3446 29.3832 25.3219 29.5069 25.3239 29.6314C25.3258 29.7559 25.3524 29.8788 25.402 29.9931C25.4516 30.1073 25.5233 30.2106 25.613 30.297C25.7021 30.3839 25.8075 30.4523 25.9231 30.4985C26.0387 30.5446 26.1623 30.5675 26.2867 30.5658C26.4112 30.5641 26.5341 30.5379 26.6484 30.4887C26.7627 30.4395 26.8662 30.3683 26.953 30.279L28.762 28.419C28.8487 28.3298 28.9169 28.2243 28.9628 28.1086C29.0086 27.9929 29.0311 27.8694 29.0291 27.7449C29.0271 27.6205 29.0005 27.4978 28.9508 27.3836C28.9012 27.2695 28.8296 27.1664 28.74 27.08C28.651 26.9928 28.5456 26.924 28.4299 26.8777C28.3143 26.8314 28.1906 26.8084 28.066 26.81V26.811ZM34.023 26.811C33.7715 26.8154 33.532 26.9193 33.357 27.1L31.549 28.957C31.4622 29.0463 31.3939 29.1519 31.3481 29.2677C31.3022 29.3835 31.2797 29.5073 31.2818 29.6318C31.284 29.7563 31.3107 29.8792 31.3605 29.9934C31.4103 30.1075 31.4822 30.2107 31.572 30.297C31.6611 30.3839 31.7665 30.4523 31.8821 30.4985C31.9977 30.5446 32.1213 30.5675 32.2457 30.5658C32.3702 30.5641 32.4931 30.5379 32.6074 30.4887C32.7217 30.4395 32.8252 30.3683 32.912 30.279L34.721 28.419C34.8076 28.3296 34.8756 28.2241 34.9213 28.1083C34.967 27.9926 34.9893 27.8689 34.9871 27.7445C34.9849 27.6201 34.9581 27.4974 34.9083 27.3833C34.8585 27.2693 34.7867 27.1662 34.697 27.08C34.6082 26.993 34.5032 26.9244 34.3879 26.8781C34.2726 26.8318 34.1492 26.8086 34.025 26.81H34.023V26.811ZM16.213 27.291H16.215V27.293C16.294 27.297 16.375 27.331 16.459 27.398C16.866 27.76 16.384 28.184 16.209 28.368L15.344 29.272C14.737 29.902 14.473 30.33 14.049 29.922C13.689 29.549 14.005 29.326 14.693 28.627L15.559 27.725C15.764 27.523 15.977 27.279 16.213 27.291ZM19.193 27.291H19.195V27.293C19.275 27.297 19.355 27.331 19.439 27.398C19.846 27.76 19.365 28.184 19.189 28.368L18.324 29.272C17.717 29.902 17.453 30.33 17.029 29.922C16.669 29.549 16.986 29.326 17.674 28.627L18.539 27.725C18.744 27.523 18.957 27.279 19.193 27.291ZM22.172 27.291V27.293C22.263 27.3011 22.3491 27.3379 22.418 27.398C22.825 27.76 22.343 28.184 22.168 28.368L21.303 29.272C20.695 29.902 20.431 30.33 20.008 29.922C19.648 29.549 19.964 29.326 20.652 28.627L21.518 27.725C21.723 27.523 21.936 27.279 22.172 27.291ZM25.15 27.291V27.293C25.2414 27.3008 25.3279 27.3376 25.397 27.398C25.803 27.76 25.322 28.184 25.147 28.368L24.281 29.272C23.674 29.902 23.41 30.33 22.986 29.922C22.626 29.549 22.943 29.326 23.631 28.627L24.496 27.725C24.702 27.523 24.914 27.279 25.15 27.291ZM28.13 27.291H28.133V27.293C28.212 27.297 28.293 27.331 28.377 27.398C28.784 27.76 28.302 28.184 28.127 28.368L27.262 29.272C26.654 29.902 26.39 30.33 25.967 29.922C25.607 29.549 25.923 29.326 26.611 28.627L27.477 27.725C27.682 27.523 27.895 27.279 28.131 27.291H28.13ZM31.11 27.291V27.293C31.2007 27.3013 31.2864 27.3381 31.355 27.398C31.762 27.76 31.281 28.184 31.105 28.368L30.24 29.272C29.633 29.902 29.369 30.33 28.945 29.922C28.585 29.549 28.902 29.326 29.59 28.627L30.455 27.725C30.661 27.523 30.873 27.279 31.109 27.291H31.11ZM34.088 27.291H34.09V27.293C34.169 27.297 34.25 27.331 34.334 27.398C34.741 27.76 34.259 28.184 34.084 28.368L33.219 29.272C32.611 29.902 32.347 30.33 31.924 29.922C31.564 29.549 31.88 29.326 32.568 28.627L33.434 27.725C33.639 27.523 33.852 27.279 34.088 27.291ZM13.795 32.981C13.7803 32.9811 13.7657 32.9842 13.7522 32.9899C13.7387 32.9957 13.7264 33.004 13.7161 33.0145C13.7058 33.025 13.6976 33.0374 13.6921 33.0511C13.6866 33.0647 13.6838 33.0793 13.684 33.094C13.684 33.155 13.734 33.206 13.794 33.207C13.857 33.207 13.907 33.157 13.908 33.094C13.9082 33.0791 13.9055 33.0642 13.8999 33.0503C13.8944 33.0364 13.8861 33.0238 13.8755 33.0132C13.865 33.0025 13.8525 32.9941 13.8386 32.9884C13.8248 32.9827 13.8099 32.9799 13.795 32.98V32.981ZM14.357 32.981C14.3271 32.9813 14.2985 32.9933 14.2774 33.0144C14.2562 33.0355 14.2442 33.0641 14.244 33.094C14.244 33.155 14.296 33.207 14.357 33.207C14.419 33.207 14.468 33.155 14.469 33.094V33.074C14.4648 33.0475 14.4512 33.0235 14.4306 33.0063C14.4099 32.9892 14.3838 32.9802 14.357 32.981ZM14.92 32.981C14.9051 32.9809 14.8903 32.9837 14.8766 32.9893C14.8628 32.995 14.8503 33.0033 14.8398 33.0138C14.8293 33.0243 14.8209 33.0368 14.8153 33.0506C14.8097 33.0644 14.8068 33.0791 14.807 33.094C14.807 33.156 14.857 33.208 14.92 33.207C14.981 33.207 15.03 33.155 15.031 33.094V33.074C15.0269 33.0477 15.0134 33.0238 14.9929 33.0067C14.9725 32.9896 14.9466 32.9805 14.92 32.981ZM15.482 32.981C15.4671 32.9809 15.4523 32.9837 15.4386 32.9893C15.4248 32.995 15.4123 33.0033 15.4018 33.0138C15.3913 33.0243 15.3829 33.0368 15.3773 33.0506C15.3717 33.0644 15.3688 33.0791 15.369 33.094C15.369 33.156 15.42 33.208 15.482 33.207C15.544 33.207 15.593 33.155 15.594 33.094V33.086C15.5922 33.0575 15.5796 33.0308 15.5588 33.0113C15.538 32.9918 15.5105 32.981 15.482 32.981ZM16.045 32.981C16.0301 32.9809 16.0153 32.9837 16.0016 32.9893C15.9878 32.995 15.9753 33.0033 15.9648 33.0138C15.9543 33.0243 15.9459 33.0368 15.9403 33.0506C15.9347 33.0644 15.9318 33.0791 15.932 33.094C15.932 33.156 15.982 33.208 16.045 33.207C16.106 33.207 16.155 33.155 16.156 33.094V33.086C16.1542 33.0577 16.1418 33.0311 16.1212 33.0116C16.1006 32.9922 16.0733 32.9812 16.045 32.981ZM16.607 32.981C16.5921 32.9809 16.5773 32.9837 16.5636 32.9893C16.5498 32.995 16.5373 33.0033 16.5268 33.0138C16.5163 33.0243 16.5079 33.0368 16.5023 33.0506C16.4967 33.0644 16.4938 33.0791 16.494 33.094C16.494 33.156 16.545 33.208 16.607 33.207C16.669 33.207 16.718 33.155 16.719 33.094V33.086C16.7172 33.0575 16.7046 33.0308 16.6838 33.0113C16.663 32.9918 16.6355 32.981 16.607 32.981ZM17.168 32.981C17.1533 32.9811 17.1387 32.9842 17.1252 32.9899C17.1117 32.9957 17.0994 33.004 17.0891 33.0145C17.0788 33.025 17.0706 33.0374 17.0651 33.0511C17.0596 33.0647 17.0568 33.0793 17.057 33.094C17.057 33.155 17.107 33.207 17.168 33.207C17.1979 33.2068 17.2265 33.1948 17.2476 33.1736C17.2687 33.1525 17.2807 33.1239 17.281 33.094V33.086C17.2792 33.0574 17.2665 33.0305 17.2454 33.011C17.2244 32.9914 17.1967 32.9807 17.168 32.981ZM17.731 32.981C17.7162 32.981 17.7015 32.9839 17.6879 32.9896C17.6742 32.9953 17.6618 33.0037 17.6514 33.0142C17.641 33.0247 17.6328 33.0371 17.6272 33.0508C17.6216 33.0646 17.6188 33.0792 17.619 33.094C17.619 33.155 17.669 33.207 17.73 33.207C17.76 33.207 17.7889 33.1951 17.8102 33.174C17.8316 33.1528 17.8437 33.1241 17.844 33.094V33.086C17.8422 33.0572 17.8293 33.0302 17.8081 33.0106C17.7868 32.991 17.7589 32.9804 17.73 32.981H17.731ZM18.293 32.981C18.2783 32.9811 18.2637 32.9842 18.2502 32.9899C18.2367 32.9957 18.2244 33.004 18.2141 33.0145C18.2038 33.025 18.1956 33.0374 18.1901 33.0511C18.1846 33.0647 18.1818 33.0793 18.182 33.094C18.182 33.155 18.232 33.207 18.293 33.207C18.3229 33.2068 18.3515 33.1948 18.3726 33.1736C18.3937 33.1525 18.4057 33.1239 18.406 33.094V33.086C18.4042 33.0574 18.3915 33.0305 18.3704 33.011C18.3494 32.9914 18.3217 32.9807 18.293 32.981ZM18.856 32.981C18.8412 32.981 18.8265 32.9839 18.8129 32.9896C18.7992 32.9953 18.7868 33.0037 18.7764 33.0142C18.766 33.0247 18.7578 33.0371 18.7522 33.0508C18.7466 33.0646 18.7438 33.0792 18.744 33.094C18.744 33.155 18.794 33.207 18.855 33.207C18.917 33.207 18.966 33.155 18.967 33.094V33.074C18.9629 33.0477 18.9494 33.0238 18.9289 33.0067C18.9085 32.9896 18.8826 32.9805 18.856 32.981ZM19.418 32.981C19.4031 32.9809 19.3883 32.9837 19.3746 32.9893C19.3608 32.995 19.3483 33.0033 19.3378 33.0138C19.3273 33.0243 19.3189 33.0368 19.3133 33.0506C19.3077 33.0644 19.3048 33.0791 19.305 33.094C19.305 33.156 19.356 33.208 19.418 33.207C19.479 33.207 19.528 33.155 19.529 33.094V33.086C19.5272 33.0577 19.5148 33.0311 19.4942 33.0116C19.4736 32.9922 19.4463 32.9812 19.418 32.981ZM19.981 32.981C19.966 32.9807 19.9512 32.9835 19.9373 32.9891C19.9234 32.9946 19.9108 33.0029 19.9001 33.0135C19.8895 33.024 19.8811 33.0365 19.8754 33.0504C19.8697 33.0642 19.8668 33.0791 19.867 33.094C19.867 33.156 19.919 33.208 19.98 33.207C20.042 33.207 20.091 33.155 20.092 33.094V33.086C20.0902 33.0577 20.0778 33.0311 20.0572 33.0116C20.0366 32.9922 20.0093 32.9812 19.981 32.981ZM20.543 32.981C20.5281 32.9809 20.5133 32.9837 20.4996 32.9893C20.4858 32.995 20.4733 33.0033 20.4628 33.0138C20.4523 33.0243 20.4439 33.0368 20.4383 33.0506C20.4327 33.0644 20.4298 33.0791 20.43 33.094C20.43 33.156 20.481 33.208 20.543 33.207C20.604 33.207 20.653 33.155 20.654 33.094V33.086C20.6522 33.0577 20.6398 33.0311 20.6192 33.0116C20.5986 32.9922 20.5713 32.9812 20.543 32.981ZM21.106 32.981C21.091 32.9807 21.0762 32.9835 21.0623 32.9891C21.0484 32.9946 21.0358 33.0029 21.0251 33.0135C21.0145 33.024 21.0061 33.0365 21.0004 33.0504C20.9947 33.0642 20.9918 33.0791 20.992 33.094C20.992 33.156 21.044 33.208 21.105 33.207C21.167 33.207 21.216 33.155 21.217 33.094V33.086C21.2152 33.0577 21.2028 33.0311 21.1822 33.0116C21.1616 32.9922 21.1343 32.9812 21.106 32.981ZM21.666 32.981C21.6513 32.9811 21.6367 32.9842 21.6232 32.9899C21.6097 32.9957 21.5974 33.004 21.5871 33.0145C21.5768 33.025 21.5686 33.0374 21.5631 33.0511C21.5576 33.0647 21.5548 33.0793 21.555 33.094C21.555 33.155 21.605 33.207 21.666 33.207C21.6959 33.2068 21.7245 33.1948 21.7456 33.1736C21.7667 33.1525 21.7787 33.1239 21.779 33.094V33.086C21.7772 33.0574 21.7645 33.0305 21.7434 33.011C21.7224 32.9914 21.6947 32.9807 21.666 32.981ZM22.229 32.981C22.2142 32.981 22.1995 32.9839 22.1859 32.9896C22.1722 32.9953 22.1598 33.0037 22.1494 33.0142C22.139 33.0247 22.1308 33.0371 22.1252 33.0508C22.1196 33.0646 22.1168 33.0792 22.117 33.094C22.117 33.155 22.167 33.207 22.228 33.207C22.258 33.207 22.2869 33.1951 22.3082 33.174C22.3296 33.1528 22.3417 33.1241 22.342 33.094V33.086C22.3402 33.0574 22.3275 33.0305 22.3064 33.011C22.2854 32.9914 22.2577 32.9807 22.229 32.981ZM22.791 32.981C22.7763 32.9811 22.7617 32.9842 22.7482 32.9899C22.7347 32.9957 22.7224 33.004 22.7121 33.0145C22.7018 33.025 22.6936 33.0374 22.6881 33.0511C22.6826 33.0647 22.6798 33.0793 22.68 33.094C22.68 33.155 22.73 33.206 22.791 33.207C22.853 33.207 22.904 33.157 22.904 33.094C22.9042 33.0791 22.9015 33.0642 22.8959 33.0503C22.8904 33.0364 22.8821 33.0238 22.8715 33.0132C22.861 33.0025 22.8485 32.9941 22.8346 32.9884C22.8208 32.9827 22.8059 32.9799 22.791 32.98V32.981ZM23.354 32.981C23.3392 32.981 23.3245 32.9839 23.3109 32.9896C23.2972 32.9953 23.2848 33.0037 23.2744 33.0142C23.264 33.0247 23.2558 33.0371 23.2502 33.0508C23.2446 33.0646 23.2418 33.0792 23.242 33.094C23.242 33.155 23.292 33.207 23.353 33.207C23.3827 33.2065 23.411 33.1944 23.4319 33.1733C23.4529 33.1522 23.4647 33.1237 23.465 33.094V33.074C23.4607 33.0478 23.4471 33.024 23.4267 33.0069C23.4064 32.9899 23.3805 32.9807 23.354 32.981ZM23.916 32.981C23.9011 32.9809 23.8863 32.9837 23.8726 32.9893C23.8588 32.995 23.8463 33.0033 23.8358 33.0138C23.8253 33.0243 23.8169 33.0368 23.8113 33.0506C23.8057 33.0644 23.8028 33.0791 23.803 33.094C23.803 33.156 23.854 33.208 23.916 33.207C23.977 33.207 24.026 33.155 24.027 33.094V33.074C24.0229 33.0477 24.0094 33.0238 23.9889 33.0067C23.9685 32.9896 23.9426 32.9805 23.916 32.981ZM24.479 32.981C24.464 32.9807 24.4492 32.9835 24.4353 32.9891C24.4214 32.9946 24.4088 33.0029 24.3981 33.0135C24.3875 33.024 24.3791 33.0365 24.3734 33.0504C24.3677 33.0642 24.3648 33.0791 24.365 33.094C24.365 33.156 24.417 33.208 24.479 33.207C24.539 33.207 24.589 33.155 24.589 33.094V33.086C24.5872 33.0579 24.5749 33.0315 24.5545 33.012C24.5341 32.9925 24.5072 32.9815 24.479 32.981ZM25.041 32.981C25.0261 32.9809 25.0113 32.9837 24.9976 32.9893C24.9838 32.995 24.9713 33.0033 24.9608 33.0138C24.9503 33.0243 24.9419 33.0368 24.9363 33.0506C24.9307 33.0644 24.9278 33.0791 24.928 33.094C24.928 33.156 24.979 33.208 25.041 33.207C25.102 33.207 25.151 33.155 25.152 33.094V33.086C25.1502 33.0577 25.1378 33.0311 25.1172 33.0116C25.0966 32.9922 25.0693 32.9812 25.041 32.981ZM25.601 32.981C25.5714 32.9815 25.5433 32.9937 25.5227 33.0149C25.5021 33.036 25.4907 33.0645 25.491 33.094C25.491 33.155 25.541 33.207 25.601 33.207C25.631 33.207 25.6599 33.1951 25.6812 33.174C25.7026 33.1528 25.7147 33.1241 25.715 33.094V33.086C25.7132 33.0574 25.7005 33.0305 25.6794 33.011C25.6584 32.9914 25.6307 32.9807 25.602 32.981H25.601ZM26.164 32.981C26.1493 32.9811 26.1347 32.9842 26.1212 32.9899C26.1077 32.9957 26.0954 33.004 26.0851 33.0145C26.0748 33.025 26.0666 33.0374 26.0611 33.0511C26.0556 33.0647 26.0528 33.0793 26.053 33.094C26.053 33.155 26.103 33.207 26.164 33.207C26.1939 33.2068 26.2225 33.1948 26.2436 33.1736C26.2647 33.1525 26.2767 33.1239 26.277 33.094V33.086C26.2752 33.0574 26.2625 33.0305 26.2414 33.011C26.2204 32.9914 26.1927 32.9807 26.164 32.981ZM26.727 32.981C26.7122 32.981 26.6975 32.9839 26.6839 32.9896C26.6702 32.9953 26.6578 33.0037 26.6474 33.0142C26.637 33.0247 26.6288 33.0371 26.6232 33.0508C26.6176 33.0646 26.6148 33.0792 26.615 33.094C26.615 33.155 26.665 33.207 26.727 33.207C26.7569 33.2068 26.7855 33.1948 26.8066 33.1736C26.8277 33.1525 26.8397 33.1239 26.84 33.094V33.086C26.8382 33.0574 26.8255 33.0305 26.8044 33.011C26.7834 32.9914 26.7557 32.9807 26.727 32.981ZM27.289 32.981C27.2743 32.9811 27.2597 32.9842 27.2462 32.9899C27.2327 32.9957 27.2204 33.004 27.2101 33.0145C27.1998 33.025 27.1916 33.0374 27.1861 33.0511C27.1806 33.0647 27.1778 33.0793 27.178 33.094C27.178 33.155 27.228 33.206 27.289 33.207C27.351 33.207 27.402 33.157 27.402 33.094C27.4022 33.0791 27.3995 33.0642 27.3939 33.0503C27.3884 33.0364 27.3801 33.0238 27.3695 33.0132C27.359 33.0025 27.3464 32.9941 27.3326 32.9884C27.3188 32.9827 27.3039 32.9799 27.289 32.98V32.981ZM27.852 32.981C27.8372 32.981 27.8225 32.9839 27.8089 32.9896C27.7952 32.9953 27.7828 33.0037 27.7724 33.0142C27.762 33.0247 27.7538 33.0371 27.7482 33.0508C27.7426 33.0646 27.7398 33.0792 27.74 33.094C27.74 33.155 27.79 33.207 27.852 33.207C27.912 33.207 27.962 33.155 27.962 33.094C27.964 33.086 27.964 33.082 27.962 33.074C27.9579 33.0479 27.9445 33.0241 27.9243 33.007C27.9041 32.9899 27.8784 32.9807 27.852 32.981ZM28.414 32.981C28.3991 32.9809 28.3843 32.9837 28.3706 32.9893C28.3568 32.995 28.3443 33.0033 28.3338 33.0138C28.3233 33.0243 28.3149 33.0368 28.3093 33.0506C28.3037 33.0644 28.3008 33.0791 28.301 33.094C28.301 33.156 28.352 33.208 28.414 33.207C28.475 33.207 28.524 33.155 28.525 33.094V33.086C28.5232 33.0579 28.5109 33.0315 28.4905 33.012C28.4701 32.9925 28.4432 32.9815 28.415 32.981H28.414ZM28.977 32.981C28.962 32.9807 28.9472 32.9835 28.9333 32.9891C28.9194 32.9946 28.9068 33.0029 28.8961 33.0135C28.8855 33.024 28.8771 33.0365 28.8714 33.0504C28.8657 33.0642 28.8628 33.0791 28.863 33.094C28.863 33.156 28.915 33.208 28.977 33.207C29.037 33.207 29.087 33.155 29.087 33.094V33.086C29.0852 33.0579 29.0729 33.0315 29.0525 33.012C29.0321 32.9925 29.0052 32.9815 28.977 32.981ZM29.539 32.981C29.5241 32.9809 29.5093 32.9837 29.4956 32.9893C29.4818 32.995 29.4693 33.0033 29.4588 33.0138C29.4483 33.0243 29.4399 33.0368 29.4343 33.0506C29.4287 33.0644 29.4258 33.0791 29.426 33.094C29.426 33.156 29.477 33.208 29.539 33.207C29.6 33.207 29.649 33.155 29.65 33.094V33.086C29.6482 33.0579 29.6359 33.0315 29.6155 33.012C29.5951 32.9925 29.5682 32.9815 29.54 32.981H29.539ZM30.099 32.981C30.0694 32.9815 30.0413 32.9937 30.0207 33.0149C30.0001 33.036 29.9887 33.0645 29.989 33.094C29.989 33.155 30.038 33.207 30.099 33.207C30.129 33.207 30.1579 33.1951 30.1792 33.174C30.2006 33.1528 30.2127 33.1241 30.213 33.094V33.086C30.2112 33.0574 30.1985 33.0305 30.1774 33.011C30.1564 32.9914 30.1287 32.9807 30.1 32.981H30.099ZM30.662 32.981C30.6473 32.9811 30.6327 32.9842 30.6192 32.9899C30.6057 32.9957 30.5934 33.004 30.5831 33.0145C30.5728 33.025 30.5646 33.0374 30.5591 33.0511C30.5536 33.0647 30.5508 33.0793 30.551 33.094C30.551 33.155 30.601 33.207 30.662 33.207C30.6919 33.2068 30.7205 33.1948 30.7416 33.1736C30.7627 33.1525 30.7747 33.1239 30.775 33.094V33.086C30.7732 33.0574 30.7605 33.0305 30.7394 33.011C30.7184 32.9914 30.6907 32.9807 30.662 32.981ZM31.225 32.981C31.2102 32.981 31.1955 32.9839 31.1819 32.9896C31.1682 32.9953 31.1558 33.0037 31.1454 33.0142C31.135 33.0247 31.1268 33.0371 31.1212 33.0508C31.1156 33.0646 31.1128 33.0792 31.113 33.094C31.113 33.155 31.163 33.207 31.225 33.207C31.2549 33.2068 31.2835 33.1948 31.3046 33.1736C31.3257 33.1525 31.3377 33.1239 31.338 33.094V33.086C31.3362 33.0574 31.3235 33.0305 31.3024 33.011C31.2814 32.9914 31.2537 32.9807 31.225 32.981ZM31.787 32.981C31.7723 32.9811 31.7577 32.9842 31.7442 32.9899C31.7307 32.9957 31.7184 33.004 31.7081 33.0145C31.6978 33.025 31.6896 33.0374 31.6841 33.0511C31.6786 33.0647 31.6758 33.0793 31.676 33.094C31.676 33.155 31.726 33.207 31.787 33.207C31.848 33.207 31.897 33.155 31.898 33.094V33.074C31.8939 33.0479 31.8805 33.0241 31.8603 33.007C31.8401 32.9899 31.8144 32.9807 31.788 32.981H31.787ZM32.35 32.981C32.335 32.9807 32.3202 32.9835 32.3063 32.9891C32.2924 32.9946 32.2798 33.0029 32.2691 33.0135C32.2585 33.024 32.2501 33.0365 32.2444 33.0504C32.2387 33.0642 32.2358 33.0791 32.236 33.094C32.236 33.156 32.288 33.208 32.35 33.207C32.41 33.207 32.46 33.155 32.46 33.094C32.462 33.086 32.462 33.082 32.46 33.074C32.4559 33.0479 32.4425 33.0241 32.4223 33.007C32.4021 32.9899 32.3764 32.9807 32.35 32.981ZM32.912 32.981C32.8971 32.9809 32.8823 32.9837 32.8686 32.9893C32.8548 32.995 32.8423 33.0033 32.8318 33.0138C32.8213 33.0243 32.8129 33.0368 32.8073 33.0506C32.8017 33.0644 32.7988 33.0791 32.799 33.094C32.799 33.156 32.85 33.208 32.912 33.207C32.973 33.207 33.022 33.155 33.023 33.094V33.086C33.0212 33.0579 33.0089 33.0315 32.9885 33.012C32.9681 32.9925 32.9412 32.9815 32.913 32.981H32.912ZM33.475 32.981C33.46 32.9807 33.4452 32.9835 33.4313 32.9891C33.4174 32.9946 33.4048 33.0029 33.3941 33.0135C33.3835 33.024 33.3751 33.0365 33.3694 33.0504C33.3637 33.0642 33.3608 33.0791 33.361 33.094C33.361 33.156 33.413 33.208 33.475 33.207C33.5043 33.206 33.5322 33.1937 33.5527 33.1726C33.5732 33.1516 33.5847 33.1234 33.585 33.094V33.086C33.5832 33.0579 33.5709 33.0315 33.5505 33.012C33.5301 32.9925 33.5032 32.9815 33.475 32.981ZM34.037 32.981C34.0221 32.9809 34.0073 32.9837 33.9936 32.9893C33.9798 32.995 33.9673 33.0033 33.9568 33.0138C33.9463 33.0243 33.9379 33.0368 33.9323 33.0506C33.9267 33.0644 33.9238 33.0791 33.924 33.094C33.924 33.156 33.975 33.208 34.037 33.207C34.0665 33.2062 34.0946 33.194 34.1153 33.1729C34.136 33.1519 34.1477 33.1236 34.148 33.094V33.086C34.1462 33.0579 34.1339 33.0315 34.1135 33.012C34.0931 32.9925 34.0662 32.9815 34.038 32.981H34.037ZM34.597 32.981C34.5674 32.9815 34.5393 32.9937 34.5187 33.0149C34.4981 33.036 34.4867 33.0645 34.487 33.094C34.487 33.155 34.536 33.207 34.597 33.207C34.627 33.207 34.6559 33.1951 34.6772 33.174C34.6986 33.1528 34.7107 33.1241 34.711 33.094V33.086C34.7092 33.0574 34.6965 33.0305 34.6754 33.011C34.6544 32.9914 34.6267 32.9807 34.598 32.981H34.597ZM16.148 35.998C15.8963 36.0026 15.6568 36.1069 15.482 36.288L13.674 38.145C13.5872 38.2343 13.5189 38.3399 13.4731 38.4557C13.4272 38.5715 13.4047 38.6953 13.4068 38.8198C13.409 38.9443 13.4357 39.0672 13.4855 39.1814C13.5353 39.2955 13.6072 39.3987 13.697 39.485C13.7861 39.5719 13.8915 39.6404 14.0071 39.6865C14.1227 39.7326 14.2463 39.7555 14.3707 39.7538C14.4952 39.7521 14.6181 39.7259 14.7324 39.6767C14.8467 39.6275 14.9502 39.5563 15.037 39.467L16.846 37.607C16.9327 37.5176 17.0009 37.412 17.0467 37.2961C17.0924 37.1803 17.1148 37.0566 17.1126 36.932C17.1104 36.8075 17.0836 36.6846 17.0337 36.5705C16.9838 36.4564 16.9119 36.3532 16.822 36.267C16.7331 36.1802 16.6281 36.1118 16.5128 36.0656C16.3974 36.0195 16.2742 35.9965 16.15 35.998H16.148ZM19.128 35.998C19.0035 36.0002 18.8807 36.027 18.7666 36.0767C18.6525 36.1265 18.5493 36.1983 18.463 36.288L16.654 38.145C16.5671 38.2343 16.4988 38.3398 16.4528 38.4556C16.4069 38.5714 16.3843 38.6951 16.3864 38.8196C16.3884 38.9441 16.415 39.067 16.4647 39.1812C16.5144 39.2954 16.5862 39.3987 16.676 39.485C16.7651 39.5719 16.8705 39.6404 16.9861 39.6865C17.1017 39.7326 17.2253 39.7555 17.3497 39.7538C17.4742 39.7521 17.5971 39.7259 17.7114 39.6767C17.8257 39.6275 17.9292 39.5563 18.016 39.467L19.824 37.607C19.9109 37.5178 19.9793 37.4123 20.0254 37.2966C20.0714 37.1809 20.094 37.0572 20.0921 36.9327C20.0901 36.8081 20.0636 36.6852 20.014 36.571C19.9644 36.4567 19.8927 36.3534 19.803 36.267C19.7139 36.18 19.6085 36.1114 19.4928 36.0652C19.3772 36.0191 19.2535 35.9962 19.129 35.998H19.128ZM22.108 35.998C21.9832 36 21.86 36.0266 21.7455 36.0764C21.631 36.1261 21.5275 36.1981 21.441 36.288L19.635 38.145C19.548 38.2341 19.4795 38.3396 19.4334 38.4553C19.3873 38.571 19.3645 38.6946 19.3664 38.8192C19.3682 38.9437 19.3947 39.0666 19.4442 39.1809C19.4937 39.2952 19.5654 39.3985 19.655 39.485C19.7441 39.5719 19.8495 39.6404 19.9651 39.6865C20.0807 39.7326 20.2043 39.7555 20.3287 39.7538C20.4532 39.7521 20.5761 39.7259 20.6904 39.6767C20.8047 39.6275 20.9082 39.5563 20.995 39.467L22.803 37.607C22.89 37.5179 22.9585 37.4124 23.0046 37.2968C23.0507 37.1811 23.0735 37.0574 23.0716 36.9329C23.0697 36.8083 23.0433 36.6854 22.9937 36.5711C22.9442 36.4569 22.8726 36.3535 22.783 36.267C22.6939 36.18 22.5885 36.1114 22.4728 36.0652C22.3572 36.0191 22.2335 35.9962 22.109 35.998H22.107H22.108ZM25.086 35.998C24.8343 36.0026 24.5948 36.1069 24.42 36.288L22.611 38.145C22.5242 38.2344 22.456 38.3401 22.4103 38.4559C22.3645 38.5717 22.3421 38.6955 22.3443 38.82C22.3466 38.9445 22.3734 39.0674 22.4233 39.1815C22.4732 39.2957 22.5451 39.3988 22.635 39.485C22.7241 39.5719 22.8295 39.6404 22.9451 39.6865C23.0607 39.7326 23.1843 39.7555 23.3087 39.7538C23.4332 39.7521 23.5561 39.7259 23.6704 39.6767C23.7847 39.6275 23.8882 39.5563 23.975 39.467L25.783 37.607C25.8698 37.5177 25.9381 37.4121 25.9839 37.2963C26.0297 37.1805 26.0522 37.0568 26.0501 36.9322C26.048 36.8077 26.0212 36.6848 25.9714 36.5707C25.9217 36.4565 25.8498 36.3533 25.76 36.267C25.6711 36.1802 25.5661 36.1118 25.4508 36.0656C25.3354 36.0195 25.2122 35.9965 25.088 35.998H25.086ZM28.066 35.998C27.9413 36.0001 27.8183 36.0268 27.704 36.0765C27.5897 36.1263 27.4864 36.1982 27.4 36.288L25.592 38.145C25.5051 38.2342 25.4366 38.3397 25.3906 38.4554C25.3446 38.5712 25.3219 38.6949 25.3239 38.8194C25.3258 38.9439 25.3524 39.0668 25.402 39.1811C25.4516 39.2953 25.5233 39.3986 25.613 39.485C25.7021 39.5719 25.8075 39.6404 25.9231 39.6865C26.0387 39.7326 26.1623 39.7555 26.2867 39.7538C26.4112 39.7521 26.5341 39.7259 26.6484 39.6767C26.7627 39.6275 26.8662 39.5563 26.953 39.467L28.762 37.607C28.8488 37.5178 28.9172 37.4122 28.9631 37.2964C29.0091 37.1807 29.0316 37.057 29.0296 36.9324C29.0276 36.8079 29.0009 36.685 28.9512 36.5708C28.9015 36.4566 28.8297 36.3534 28.74 36.267C28.6509 36.18 28.5455 36.1114 28.4298 36.0652C28.3142 36.0191 28.1905 35.9962 28.066 35.998ZM31.045 35.998C30.9203 36.0001 30.7973 36.0268 30.683 36.0765C30.5687 36.1263 30.4654 36.1982 30.379 36.288L28.572 38.145C28.485 38.2341 28.4165 38.3396 28.3704 38.4553C28.3243 38.571 28.3015 38.6946 28.3034 38.8192C28.3052 38.9437 28.3317 39.0666 28.3812 39.1809C28.4307 39.2952 28.5024 39.3985 28.592 39.485C28.6811 39.5719 28.7865 39.6404 28.9021 39.6865C29.0177 39.7326 29.1413 39.7555 29.2657 39.7538C29.3902 39.7521 29.5131 39.7259 29.6274 39.6767C29.7417 39.6275 29.8452 39.5563 29.932 39.467L31.74 37.607C31.827 37.5179 31.8955 37.4124 31.9416 37.2968C31.9877 37.1811 32.0105 37.0574 32.0086 36.9329C32.0067 36.8083 31.9803 36.6854 31.9307 36.5711C31.8812 36.4569 31.8096 36.3535 31.72 36.267C31.631 36.1801 31.5258 36.1116 31.4103 36.0654C31.2948 36.0193 31.1713 35.9964 31.047 35.998H31.045ZM34.023 35.998C33.7713 36.0026 33.5318 36.1069 33.357 36.288L31.549 38.145C31.4622 38.2343 31.3939 38.3399 31.3481 38.4557C31.3022 38.5715 31.2797 38.6953 31.2818 38.8198C31.284 38.9443 31.3107 39.0672 31.3605 39.1814C31.4103 39.2955 31.4822 39.3987 31.572 39.485C31.6611 39.5719 31.7665 39.6404 31.8821 39.6865C31.9977 39.7326 32.1213 39.7555 32.2457 39.7538C32.3702 39.7521 32.4931 39.7259 32.6074 39.6767C32.7217 39.6275 32.8252 39.5563 32.912 39.467L34.721 37.607C34.8077 37.5176 34.8759 37.412 34.9217 37.2961C34.9674 37.1803 34.9898 37.0566 34.9876 36.932C34.9854 36.8075 34.9586 36.6846 34.9087 36.5705C34.8588 36.4564 34.7869 36.3532 34.697 36.267C34.6081 36.1802 34.5031 36.1118 34.3878 36.0656C34.2724 36.0195 34.1492 35.9965 34.025 35.998H34.023ZM16.213 36.478H16.215V36.48C16.294 36.484 16.375 36.518 16.459 36.586C16.866 36.948 16.384 37.371 16.209 37.555L15.344 38.459C14.737 39.09 14.473 39.517 14.049 39.109C13.689 38.736 14.005 38.513 14.693 37.814L15.559 36.912C15.764 36.711 15.977 36.467 16.213 36.478ZM19.193 36.478H19.195V36.48C19.275 36.484 19.355 36.518 19.439 36.586C19.846 36.948 19.365 37.371 19.189 37.555L18.324 38.459C17.717 39.09 17.453 39.517 17.029 39.109C16.669 38.736 16.986 38.513 17.674 37.814L18.539 36.912C18.744 36.711 18.957 36.467 19.193 36.478ZM22.172 36.478V36.48C22.2631 36.4884 22.3493 36.5255 22.418 36.586C22.825 36.948 22.343 37.371 22.168 37.555L21.303 38.459C20.695 39.09 20.431 39.517 20.008 39.109C19.648 38.736 19.964 38.513 20.652 37.814L21.518 36.912C21.723 36.711 21.936 36.467 22.172 36.478ZM25.15 36.478V36.48C25.2415 36.4881 25.328 36.5253 25.397 36.586C25.803 36.948 25.322 37.371 25.147 37.555L24.281 38.459C23.674 39.09 23.41 39.517 22.986 39.109C22.626 38.736 22.943 38.513 23.631 37.814L24.496 36.912C24.702 36.711 24.914 36.467 25.15 36.478ZM28.13 36.478H28.133V36.48C28.212 36.484 28.293 36.518 28.377 36.586C28.784 36.948 28.302 37.371 28.127 37.555L27.262 38.459C26.654 39.09 26.39 39.517 25.967 39.109C25.607 38.736 25.923 38.513 26.611 37.814L27.477 36.912C27.682 36.711 27.895 36.467 28.131 36.478H28.13ZM31.11 36.478V36.48C31.2008 36.4886 31.2865 36.5257 31.355 36.586C31.762 36.948 31.281 37.371 31.105 37.555L30.24 38.459C29.633 39.09 29.369 39.517 28.945 39.109C28.585 38.736 28.902 38.513 29.59 37.814L30.455 36.912C30.661 36.711 30.873 36.467 31.109 36.478H31.11ZM34.088 36.478H34.09V36.48C34.169 36.484 34.25 36.518 34.334 36.586C34.741 36.948 34.259 37.371 34.084 37.555L33.219 38.459C32.611 39.09 32.347 39.517 31.924 39.109C31.564 38.736 31.88 38.513 32.568 37.814L33.434 36.912C33.639 36.711 33.852 36.467 34.088 36.478Z" fill="#333333"/>
</svg>
