<svg width="48" height="48" viewBox="0 0 48 48" fill="none" xmlns="http://www.w3.org/2000/svg">
<path d="M23.814 4.1029C20.502 4.1119 17.252 4.1269 14.146 4.1249C13.277 4.1249 12.58 4.8239 12.58 5.6929V42.5549C12.58 43.4239 13.277 44.1249 14.146 44.1249H33.852C34.721 44.1249 35.42 43.4239 35.42 42.5549V5.6929C35.42 4.8229 34.721 4.1249 33.852 4.1249C30.501 4.0929 27.127 4.0949 23.815 4.1029H23.814ZM19.992 5.1659H20C20.0294 5.16695 20.0571 5.17948 20.0773 5.20078C20.0975 5.22209 20.1085 5.25048 20.108 5.27983C20.1075 5.30918 20.0954 5.33716 20.0745 5.35773C20.0536 5.3783 20.0254 5.38983 19.996 5.38983C19.9667 5.38983 19.9385 5.3783 19.9175 5.35773C19.8966 5.33716 19.8846 5.30918 19.884 5.27983C19.8835 5.25048 19.8945 5.22209 19.9147 5.20078C19.9349 5.17948 19.9627 5.16695 19.992 5.1659ZM27.992 5.1659H28C28.0294 5.16695 28.0571 5.17948 28.0773 5.20078C28.0975 5.22209 28.1085 5.25048 28.108 5.27983C28.1075 5.30918 28.0954 5.33716 28.0745 5.35773C28.0536 5.3783 28.0254 5.38983 27.996 5.38983C27.9667 5.38983 27.9385 5.3783 27.9175 5.35773C27.8966 5.33716 27.8846 5.30918 27.884 5.27983C27.8835 5.25048 27.8945 5.22209 27.9147 5.20078C27.9349 5.17948 27.9627 5.16695 27.992 5.1659ZM19.992 5.7279H20C20.0294 5.72895 20.0571 5.74148 20.0773 5.76278C20.0975 5.78409 20.1085 5.81248 20.108 5.84183C20.1075 5.87118 20.0954 5.89916 20.0745 5.91973C20.0536 5.9403 20.0254 5.95183 19.996 5.95183C19.9667 5.95183 19.9385 5.9403 19.9175 5.91973C19.8966 5.89916 19.8846 5.87118 19.884 5.84183C19.8835 5.81248 19.8945 5.78409 19.9147 5.76278C19.9349 5.74148 19.9627 5.72895 19.992 5.7279ZM27.992 5.7279H28C28.0294 5.72895 28.0571 5.74148 28.0773 5.76278C28.0975 5.78409 28.1085 5.81248 28.108 5.84183C28.1075 5.87118 28.0954 5.89916 28.0745 5.91973C28.0536 5.9403 28.0254 5.95183 27.996 5.95183C27.9667 5.95183 27.9385 5.9403 27.9175 5.91973C27.8966 5.89916 27.8846 5.87118 27.884 5.84183C27.8835 5.81248 27.8945 5.78409 27.9147 5.76278C27.9349 5.74148 27.9627 5.72895 27.992 5.7279ZM19.982 6.2909H20C20.061 6.2909 20.11 6.3409 20.111 6.4019C20.111 6.42331 20.1048 6.44426 20.0932 6.46226C20.0816 6.48026 20.0651 6.49456 20.0456 6.50346C20.0261 6.51237 20.0045 6.5155 19.9833 6.51249C19.9621 6.50949 19.9422 6.50047 19.926 6.4865C19.9097 6.47253 19.8978 6.45421 19.8917 6.43369C19.8856 6.41318 19.8855 6.39134 19.8914 6.37075C19.8973 6.35017 19.9089 6.3317 19.925 6.31755C19.9411 6.3034 19.9609 6.29415 19.982 6.2909ZM27.982 6.2909H28C28.061 6.2909 28.11 6.3409 28.111 6.4019C28.111 6.42331 28.1048 6.44426 28.0932 6.46226C28.0816 6.48026 28.0651 6.49456 28.0456 6.50346C28.0261 6.51237 28.0045 6.5155 27.9833 6.51249C27.9621 6.50949 27.9422 6.50047 27.926 6.4865C27.9097 6.47253 27.8978 6.45421 27.8917 6.43369C27.8856 6.41318 27.8855 6.39134 27.8914 6.37075C27.8973 6.35017 27.9089 6.3317 27.925 6.31755C27.9411 6.3034 27.9609 6.29415 27.982 6.2909ZM24.859 6.3339C24.9836 6.33225 25.1073 6.35525 25.223 6.40159C25.3387 6.44792 25.444 6.51668 25.533 6.6039C25.6225 6.69053 25.694 6.79398 25.7433 6.90832C25.7927 7.02266 25.819 7.14563 25.8206 7.27016C25.8223 7.39469 25.7993 7.51832 25.7531 7.63394C25.7068 7.74957 25.6381 7.8549 25.551 7.9439L23.742 9.8029C23.5668 9.98292 23.3273 10.0861 23.0762 10.0899C22.825 10.0936 22.5825 9.99761 22.402 9.8229C22.3126 9.73621 22.2412 9.6327 22.1919 9.51833C22.1427 9.40395 22.1165 9.28096 22.1149 9.15644C22.1133 9.03191 22.1364 8.9083 22.1827 8.79271C22.2291 8.67712 22.2978 8.57183 22.385 8.4829L24.193 6.6249C24.2794 6.53507 24.3828 6.4632 24.4971 6.41343C24.6114 6.36366 24.7344 6.33697 24.859 6.3349V6.3339ZM20.002 6.8509C20.0168 6.85103 20.0314 6.85407 20.045 6.85985C20.0586 6.86562 20.0709 6.87402 20.0813 6.88456C20.0916 6.8951 20.0998 6.90757 20.1053 6.92127C20.1109 6.93497 20.1136 6.94963 20.1135 6.9644C20.1134 6.97917 20.1103 6.99378 20.1046 7.00738C20.0988 7.02098 20.0904 7.0333 20.0799 7.04366C20.0693 7.05401 20.0568 7.06219 20.0431 7.06772C20.0294 7.07325 20.0148 7.07603 20 7.0759C19.9702 7.07564 19.9417 7.06353 19.9208 7.04224C19.8999 7.02096 19.8883 6.99224 19.8885 6.9624C19.8888 6.93256 19.9009 6.90406 19.9222 6.88314C19.9435 6.86223 19.9722 6.85064 20.002 6.8509ZM28.002 6.8509C28.0168 6.85103 28.0314 6.85407 28.045 6.85985C28.0586 6.86562 28.0709 6.87402 28.0813 6.88456C28.0916 6.8951 28.0998 6.90757 28.1053 6.92127C28.1109 6.93497 28.1136 6.94963 28.1135 6.9644C28.1134 6.97917 28.1103 6.99378 28.1046 7.00738C28.0988 7.02098 28.0904 7.0333 28.0799 7.04366C28.0693 7.05401 28.0568 7.06219 28.0431 7.06772C28.0294 7.07325 28.0148 7.07603 28 7.0759C27.9702 7.07564 27.9417 7.06353 27.9208 7.04224C27.8999 7.02096 27.8883 6.99224 27.8885 6.9624C27.8888 6.93256 27.9009 6.90406 27.9222 6.88314C27.9435 6.86223 27.9722 6.85064 28.002 6.8509ZM19.992 7.4139H20C20.0294 7.41495 20.0571 7.42748 20.0773 7.44878C20.0975 7.47009 20.1085 7.49848 20.108 7.52783C20.1075 7.55718 20.0954 7.58516 20.0745 7.60573C20.0536 7.6263 20.0254 7.63783 19.996 7.63783C19.9667 7.63783 19.9385 7.6263 19.9175 7.60573C19.8966 7.58516 19.8846 7.55718 19.884 7.52783C19.8835 7.49848 19.8945 7.47009 19.9147 7.44878C19.9349 7.42748 19.9627 7.41495 19.992 7.4139ZM27.992 7.4139H28C28.0294 7.41495 28.0571 7.42748 28.0773 7.44878C28.0975 7.47009 28.1085 7.49848 28.108 7.52783C28.1075 7.55718 28.0954 7.58516 28.0745 7.60573C28.0536 7.6263 28.0254 7.63783 27.996 7.63783C27.9667 7.63783 27.9385 7.6263 27.9175 7.60573C27.8966 7.58516 27.8846 7.55718 27.884 7.52783C27.8835 7.49848 27.8945 7.47009 27.9147 7.44878C27.9349 7.42748 27.9627 7.41495 27.992 7.4139ZM19.992 7.9739H20C20.0294 7.97495 20.0571 7.98748 20.0773 8.00878C20.0975 8.03009 20.1085 8.05848 20.108 8.08783C20.1075 8.11718 20.0954 8.14516 20.0745 8.16573C20.0536 8.1863 20.0254 8.19783 19.996 8.19783C19.9667 8.19783 19.9385 8.1863 19.9175 8.16573C19.8966 8.14516 19.8846 8.11718 19.884 8.08783C19.8835 8.05848 19.8945 8.03009 19.9147 8.00878C19.9349 7.98748 19.9627 7.97495 19.992 7.9739ZM27.992 7.9739H28C28.0294 7.97495 28.0571 7.98748 28.0773 8.00878C28.0975 8.03009 28.1085 8.05848 28.108 8.08783C28.1075 8.11718 28.0954 8.14516 28.0745 8.16573C28.0536 8.1863 28.0254 8.19783 27.996 8.19783C27.9667 8.19783 27.9385 8.1863 27.9175 8.16573C27.8966 8.14516 27.8846 8.11718 27.884 8.08783C27.8835 8.05848 27.8945 8.03009 27.9147 8.00878C27.9349 7.98748 27.9627 7.97495 27.992 7.9739ZM19.992 8.5369H20C20.0294 8.53795 20.0571 8.55048 20.0773 8.57178C20.0975 8.59309 20.1085 8.62148 20.108 8.65083C20.1075 8.68018 20.0954 8.70816 20.0745 8.72873C20.0536 8.7493 20.0254 8.76083 19.996 8.76083C19.9667 8.76083 19.9385 8.7493 19.9175 8.72873C19.8966 8.70816 19.8846 8.68018 19.884 8.65083C19.8835 8.62148 19.8945 8.59309 19.9147 8.57178C19.9349 8.55048 19.9627 8.53795 19.992 8.5369ZM27.992 8.5369H28C28.0294 8.53795 28.0571 8.55048 28.0773 8.57178C28.0975 8.59309 28.1085 8.62148 28.108 8.65083C28.1075 8.68018 28.0954 8.70816 28.0745 8.72873C28.0536 8.7493 28.0254 8.76083 27.996 8.76083C27.9667 8.76083 27.9385 8.7493 27.9175 8.72873C27.8966 8.70816 27.8846 8.68018 27.884 8.65083C27.8835 8.62148 27.8945 8.59309 27.9147 8.57178C27.9349 8.55048 27.9627 8.53795 27.992 8.5369ZM17.5 8.7829C17.6246 8.78125 17.7483 8.80425 17.864 8.85059C17.9797 8.89692 18.085 8.96568 18.174 9.0529C18.2634 9.13959 18.3348 9.2431 18.3841 9.35748C18.4334 9.47185 18.4595 9.59484 18.4611 9.71937C18.4627 9.84389 18.4397 9.9675 18.3933 10.0831C18.3469 10.1987 18.2782 10.304 18.191 10.3929L16.383 12.2519C16.2079 12.4322 15.9684 12.5355 15.7172 12.5393C15.4659 12.543 15.2234 12.4469 15.043 12.2719C14.9535 12.1853 14.8821 12.0818 14.8327 11.9675C14.7834 11.8531 14.7571 11.7302 14.7554 11.6056C14.7537 11.4811 14.7767 11.3575 14.823 11.2419C14.8692 11.1262 14.9379 11.0209 15.025 10.9319L16.834 9.0739C16.9205 8.9842 17.0239 8.91249 17.1382 8.86289C17.2525 8.81329 17.3754 8.78679 17.5 8.7849V8.7829ZM32.219 8.7829C32.3436 8.78125 32.4673 8.80425 32.583 8.85059C32.6987 8.89692 32.804 8.96568 32.893 9.0529C32.9824 9.13959 33.0538 9.2431 33.1031 9.35748C33.1524 9.47185 33.1785 9.59484 33.1801 9.71937C33.1817 9.84389 33.1587 9.9675 33.1123 10.0831C33.0659 10.1987 32.9972 10.304 32.91 10.3929L31.102 12.2519C30.9269 12.4322 30.6874 12.5355 30.4362 12.5393C30.1849 12.543 29.9424 12.4469 29.762 12.2719C29.6725 12.1853 29.6011 12.0818 29.5517 11.9675C29.5024 11.8531 29.4761 11.7302 29.4744 11.6056C29.4727 11.4811 29.4957 11.3575 29.542 11.2419C29.5882 11.1262 29.6569 11.0209 29.744 10.9319L31.553 9.0739C31.6395 8.98425 31.7429 8.91256 31.8572 8.86297C31.9715 8.81337 32.0944 8.78684 32.219 8.7849V8.7829ZM19.992 9.0999H20C20.0294 9.10095 20.0571 9.11348 20.0773 9.13478C20.0975 9.15609 20.1085 9.18448 20.108 9.21383C20.1075 9.24318 20.0954 9.27116 20.0745 9.29173C20.0536 9.3123 20.0254 9.32383 19.996 9.32383C19.9667 9.32383 19.9385 9.3123 19.9175 9.29173C19.8966 9.27116 19.8846 9.24318 19.884 9.21383C19.8835 9.18448 19.8945 9.15609 19.9147 9.13478C19.9349 9.11348 19.9627 9.10095 19.992 9.0999ZM27.992 9.0999H28C28.0294 9.10095 28.0571 9.11348 28.0773 9.13478C28.0975 9.15609 28.1085 9.18448 28.108 9.21383C28.1075 9.24318 28.0954 9.27116 28.0745 9.29173C28.0536 9.3123 28.0254 9.32383 27.996 9.32383C27.9667 9.32383 27.9385 9.3123 27.9175 9.29173C27.8966 9.27116 27.8846 9.24318 27.884 9.21383C27.8835 9.18448 27.8945 9.15609 27.9147 9.13478C27.9349 9.11348 27.9627 9.10095 27.992 9.0999ZM19.992 9.6619H20C20.0294 9.66295 20.0571 9.67548 20.0773 9.69678C20.0975 9.71809 20.1085 9.74648 20.108 9.77583C20.1075 9.80518 20.0954 9.83316 20.0745 9.85373C20.0536 9.8743 20.0254 9.88583 19.996 9.88583C19.9667 9.88583 19.9385 9.8743 19.9175 9.85373C19.8966 9.83316 19.8846 9.80518 19.884 9.77583C19.8835 9.74648 19.8945 9.71809 19.9147 9.69678C19.9349 9.67548 19.9627 9.66295 19.992 9.6619ZM27.992 9.6619H28C28.0294 9.66295 28.0571 9.67548 28.0773 9.69678C28.0975 9.71809 28.1085 9.74648 28.108 9.77583C28.1075 9.80518 28.0954 9.83316 28.0745 9.85373C28.0536 9.8743 28.0254 9.88583 27.996 9.88583C27.9667 9.88583 27.9385 9.8743 27.9175 9.85373C27.8966 9.83316 27.8846 9.80518 27.884 9.77583C27.8835 9.74648 27.8945 9.71809 27.9147 9.69678C27.9349 9.67548 27.9627 9.66295 27.992 9.6619ZM19.98 10.2249H20C20.061 10.2249 20.11 10.2769 20.111 10.3379C20.111 10.3676 20.0992 10.3961 20.0782 10.4171C20.0572 10.4381 20.0287 10.4499 19.999 10.4499C19.9693 10.4499 19.9408 10.4381 19.9198 10.4171C19.8988 10.3961 19.887 10.3676 19.887 10.3379C19.887 10.2829 19.926 10.2319 19.98 10.2249ZM27.98 10.2249H28C28.061 10.2249 28.11 10.2769 28.111 10.3379C28.111 10.3676 28.0992 10.3961 28.0782 10.4171C28.0572 10.4381 28.0287 10.4499 27.999 10.4499C27.9693 10.4499 27.9408 10.4381 27.9198 10.4171C27.8988 10.3961 27.887 10.3676 27.887 10.3379C27.887 10.2829 27.926 10.2319 27.98 10.2249ZM20.002 10.7849C20.064 10.7849 20.114 10.8379 20.113 10.8999C20.113 10.9144 20.1101 10.9288 20.1045 10.9422C20.099 10.9556 20.0908 10.9678 20.0804 10.978C20.0701 10.9883 20.0579 10.9963 20.0444 11.0018C20.031 11.0073 20.0165 11.01 20.002 11.0099C19.9873 11.0103 19.9727 11.0078 19.959 11.0024C19.9453 10.9971 19.9328 10.989 19.9223 10.9788C19.9118 10.9685 19.9034 10.9562 19.8977 10.9427C19.892 10.9292 19.889 10.9146 19.889 10.8999C19.889 10.8369 19.939 10.7839 20.002 10.7849ZM28.002 10.7849C28.064 10.7849 28.114 10.8379 28.113 10.8999C28.113 10.9144 28.1101 10.9288 28.1045 10.9422C28.099 10.9556 28.0908 10.9678 28.0804 10.978C28.0701 10.9883 28.0579 10.9963 28.0444 11.0018C28.031 11.0073 28.0165 11.01 28.002 11.0099C27.9873 11.0103 27.9727 11.0078 27.959 11.0024C27.9453 10.9971 27.9328 10.989 27.9223 10.9788C27.9118 10.9685 27.9034 10.9562 27.8977 10.9427C27.892 10.9292 27.889 10.9146 27.889 10.8999C27.889 10.8369 27.939 10.7839 28.002 10.7849ZM20.002 11.3479C20.0167 11.348 20.0313 11.3511 20.0448 11.3568C20.0583 11.3626 20.0706 11.3709 20.0809 11.3814C20.0912 11.3919 20.0994 11.4043 20.1049 11.418C20.1104 11.4316 20.1131 11.4462 20.113 11.4609C20.1129 11.4756 20.1099 11.4901 20.1041 11.5037C20.0984 11.5172 20.09 11.5295 20.0795 11.5398C20.069 11.5501 20.0566 11.5583 20.043 11.5638C20.0293 11.5693 20.0147 11.572 20 11.5719C19.9703 11.5716 19.9419 11.5596 19.9211 11.5384C19.9003 11.5172 19.8888 11.4886 19.889 11.4589C19.8893 11.4292 19.9013 11.4008 19.9225 11.38C19.9437 11.3592 19.9723 11.3476 20.002 11.3479ZM28.002 11.3479C28.0167 11.348 28.0313 11.3511 28.0448 11.3568C28.0583 11.3626 28.0706 11.3709 28.0809 11.3814C28.0912 11.3919 28.0994 11.4043 28.1049 11.418C28.1104 11.4316 28.1131 11.4462 28.113 11.4609C28.1129 11.4756 28.1099 11.4901 28.1041 11.5037C28.0984 11.5172 28.09 11.5295 28.0795 11.5398C28.069 11.5501 28.0566 11.5583 28.043 11.5638C28.0293 11.5693 28.0147 11.572 28 11.5719C27.9703 11.5716 27.9419 11.5596 27.9211 11.5384C27.9003 11.5172 27.8888 11.4886 27.889 11.4589C27.8893 11.4292 27.9013 11.4008 27.9225 11.38C27.9437 11.3592 27.9723 11.3476 28.002 11.3479ZM24.859 11.5939H24.861C25.0491 11.5902 25.2341 11.6427 25.3921 11.7447C25.5502 11.8467 25.6743 11.9935 25.7484 12.1665C25.8225 12.3394 25.8433 12.5305 25.8081 12.7153C25.773 12.9001 25.6834 13.0703 25.551 13.2039L23.742 15.0619C23.5663 15.241 23.327 15.3435 23.0761 15.3472C22.8253 15.351 22.583 15.2556 22.402 15.0819C22.3126 14.9952 22.2412 14.8917 22.1919 14.7773C22.1427 14.6629 22.1165 14.54 22.1149 14.4154C22.1133 14.2909 22.1364 14.1673 22.1827 14.0517C22.2291 13.9361 22.2978 13.8308 22.385 13.7419L24.193 11.8849C24.2794 11.795 24.3827 11.7231 24.497 11.6734C24.6113 11.6236 24.7344 11.5969 24.859 11.5949V11.5939ZM19.992 11.9099C20.0075 11.9088 20.023 11.9109 20.0376 11.9161C20.0522 11.9213 20.0655 11.9295 20.0768 11.9401C20.0881 11.9507 20.097 11.9635 20.1031 11.9778C20.1092 11.9921 20.1122 12.0074 20.112 12.0229C20.111 12.0849 20.062 12.1359 20 12.1369C19.9715 12.1354 19.9446 12.1233 19.9246 12.103C19.9046 12.0827 19.893 12.0556 19.892 12.0271C19.891 11.9986 19.9007 11.9707 19.9192 11.949C19.9377 11.9273 19.9637 11.9134 19.992 11.9099ZM27.992 11.9099C28.0075 11.9088 28.023 11.9109 28.0376 11.9161C28.0522 11.9213 28.0655 11.9295 28.0768 11.9401C28.0881 11.9507 28.097 11.9635 28.1031 11.9778C28.1092 11.9921 28.1122 12.0074 28.112 12.0229C28.111 12.0849 28.062 12.1359 28 12.1369C27.9715 12.1354 27.9446 12.1233 27.9246 12.103C27.9046 12.0827 27.893 12.0556 27.892 12.0271C27.891 11.9986 27.9007 11.9707 27.9192 11.949C27.9377 11.9273 27.9637 11.9134 27.992 11.9099ZM19.992 12.4729H20C20.062 12.4729 20.112 12.5229 20.111 12.5859C20.111 12.6469 20.061 12.6989 20 12.6989C19.9724 12.6963 19.9467 12.6838 19.9277 12.6637C19.9086 12.6435 19.8976 12.6171 19.8966 12.5894C19.8956 12.5617 19.9048 12.5346 19.9223 12.5132C19.9399 12.4917 19.9647 12.4774 19.992 12.4729ZM27.992 12.4729H28C28.062 12.4729 28.112 12.5229 28.111 12.5859C28.111 12.6469 28.061 12.6989 28 12.6989C27.9724 12.6963 27.9467 12.6838 27.9277 12.6637C27.9086 12.6435 27.8976 12.6171 27.8966 12.5894C27.8956 12.5617 27.9048 12.5346 27.9223 12.5132C27.9399 12.4917 27.9647 12.4774 27.992 12.4729ZM19.992 13.0349H20C20.0294 13.0359 20.0571 13.0485 20.0773 13.0698C20.0975 13.0911 20.1085 13.1195 20.108 13.1488C20.1075 13.1782 20.0954 13.2062 20.0745 13.2267C20.0536 13.2473 20.0254 13.2588 19.996 13.2588C19.9667 13.2588 19.9385 13.2473 19.9175 13.2267C19.8966 13.2062 19.8846 13.1782 19.884 13.1488C19.8835 13.1195 19.8945 13.0911 19.9147 13.0698C19.9349 13.0485 19.9627 13.0359 19.992 13.0349ZM27.992 13.0349H28C28.0294 13.0359 28.0571 13.0485 28.0773 13.0698C28.0975 13.0911 28.1085 13.1195 28.108 13.1488C28.1075 13.1782 28.0954 13.2062 28.0745 13.2267C28.0536 13.2473 28.0254 13.2588 27.996 13.2588C27.9667 13.2588 27.9385 13.2473 27.9175 13.2267C27.8966 13.2062 27.8846 13.1782 27.884 13.1488C27.8835 13.1195 27.8945 13.0911 27.9147 13.0698C27.9349 13.0485 27.9627 13.0359 27.992 13.0349ZM19.992 13.5979H20C20.0294 13.5989 20.0571 13.6115 20.0773 13.6328C20.0975 13.6541 20.1085 13.6825 20.108 13.7118C20.1075 13.7412 20.0954 13.7692 20.0745 13.7897C20.0536 13.8103 20.0254 13.8218 19.996 13.8218C19.9667 13.8218 19.9385 13.8103 19.9175 13.7897C19.8966 13.7692 19.8846 13.7412 19.884 13.7118C19.8835 13.6825 19.8945 13.6541 19.9147 13.6328C19.9349 13.6115 19.9627 13.5989 19.992 13.5979ZM27.992 13.5979H28C28.0294 13.5989 28.0571 13.6115 28.0773 13.6328C28.0975 13.6541 28.1085 13.6825 28.108 13.7118C28.1075 13.7412 28.0954 13.7692 28.0745 13.7897C28.0536 13.8103 28.0254 13.8218 27.996 13.8218C27.9667 13.8218 27.9385 13.8103 27.9175 13.7897C27.8966 13.7692 27.8846 13.7412 27.884 13.7118C27.8835 13.6825 27.8945 13.6541 27.9147 13.6328C27.9349 13.6115 27.9627 13.5989 27.992 13.5979ZM17.5 14.0429H17.502C17.6901 14.0392 17.8751 14.0917 18.0331 14.1937C18.1912 14.2957 18.3153 14.4425 18.3894 14.6155C18.4635 14.7884 18.4843 14.9795 18.4491 15.1643C18.414 15.3491 18.3244 15.5193 18.192 15.6529L16.382 17.5119C16.207 17.6919 15.9677 17.795 15.7167 17.7988C15.4656 17.8025 15.2234 17.7065 15.043 17.5319C14.9535 17.4453 14.8821 17.3418 14.8327 17.2275C14.7834 17.1131 14.7571 16.9902 14.7554 16.8656C14.7537 16.7411 14.7767 16.6175 14.823 16.5019C14.8692 16.3862 14.9379 16.2809 15.025 16.1919L16.834 14.3339C16.9204 14.244 17.0237 14.1721 17.138 14.1224C17.2523 14.0726 17.3754 14.0459 17.5 14.0439V14.0429ZM32.219 14.0429H32.221C32.4091 14.0392 32.5941 14.0917 32.7521 14.1937C32.9102 14.2957 33.0343 14.4425 33.1084 14.6155C33.1825 14.7884 33.2033 14.9795 33.1681 15.1643C33.133 15.3491 33.0434 15.5193 32.911 15.6529L31.101 17.5119C30.9259 17.6922 30.6864 17.7955 30.4352 17.7993C30.1839 17.803 29.9414 17.7069 29.761 17.5319C29.6716 17.4452 29.6002 17.3417 29.5509 17.2273C29.5017 17.1129 29.4755 16.99 29.4739 16.8654C29.4723 16.7409 29.4954 16.6173 29.5417 16.5017C29.5881 16.3861 29.6568 16.2808 29.744 16.1919L31.553 14.3339C31.6394 14.244 31.7427 14.1721 31.857 14.1224C31.9713 14.0726 32.0944 14.0459 32.219 14.0439V14.0429ZM19.98 14.7229H20C20.061 14.7229 20.11 14.7729 20.111 14.8329C20.111 14.8626 20.0992 14.8911 20.0782 14.9121C20.0572 14.9331 20.0287 14.9449 19.999 14.9449C19.9693 14.9449 19.9408 14.9331 19.9198 14.9121C19.8988 14.8911 19.887 14.8626 19.887 14.8329C19.887 14.7789 19.926 14.7299 19.98 14.7229ZM27.98 14.7229H28C28.061 14.7229 28.11 14.7729 28.111 14.8329C28.111 14.8626 28.0992 14.8911 28.0782 14.9121C28.0572 14.9331 28.0287 14.9449 27.999 14.9449C27.9693 14.9449 27.9408 14.9331 27.9198 14.9121C27.8988 14.8911 27.887 14.8626 27.887 14.8329C27.887 14.7789 27.926 14.7299 27.98 14.7229ZM19.98 15.2849H20C20.061 15.2849 20.11 15.3349 20.111 15.3959C20.1109 15.4173 20.1047 15.4382 20.0932 15.4561C20.0816 15.4741 20.0651 15.4883 20.0457 15.4972C20.0263 15.5062 20.0047 15.5093 19.9836 15.5064C19.9624 15.5034 19.9425 15.4945 19.9263 15.4806C19.91 15.4667 19.8981 15.4485 19.8919 15.4281C19.8857 15.4076 19.8854 15.3859 19.8912 15.3653C19.8969 15.3447 19.9084 15.3262 19.9243 15.312C19.9403 15.2977 19.9599 15.2883 19.981 15.2849H19.98ZM27.98 15.2849H28C28.061 15.2849 28.11 15.3349 28.111 15.3959C28.1109 15.4173 28.1047 15.4382 28.0932 15.4561C28.0816 15.4741 28.0651 15.4883 28.0457 15.4972C28.0263 15.5062 28.0047 15.5093 27.9836 15.5064C27.9624 15.5034 27.9425 15.4945 27.9263 15.4806C27.91 15.4667 27.8981 15.4485 27.8919 15.4281C27.8857 15.4076 27.8854 15.3859 27.8912 15.3653C27.8969 15.3447 27.9084 15.3262 27.9243 15.312C27.9403 15.2977 27.9599 15.2883 27.981 15.2849H27.98ZM20.002 15.8449C20.0168 15.845 20.0314 15.8481 20.045 15.8538C20.0586 15.8596 20.0709 15.868 20.0813 15.8786C20.0916 15.8891 20.0998 15.9016 20.1053 15.9153C20.1109 15.929 20.1136 15.9436 20.1135 15.9584C20.1134 15.9732 20.1103 15.9878 20.1046 16.0014C20.0988 16.015 20.0904 16.0273 20.0799 16.0377C20.0693 16.048 20.0568 16.0562 20.0431 16.0617C20.0294 16.0673 20.0148 16.07 20 16.0699C19.9703 16.0696 19.9419 16.0576 19.9211 16.0364C19.9003 16.0152 19.8888 15.9866 19.889 15.9569C19.8893 15.9272 19.9013 15.8988 19.9225 15.878C19.9437 15.8572 19.9723 15.8456 20.002 15.8459V15.8449ZM28.002 15.8449C28.0319 15.8452 28.0604 15.8573 28.0813 15.8786C28.1022 15.8998 28.1138 15.9286 28.1135 15.9584C28.1133 15.9882 28.1011 16.0167 28.0799 16.0377C28.0586 16.0586 28.0299 16.0702 28 16.0699C27.9703 16.0696 27.9419 16.0576 27.9211 16.0364C27.9003 16.0152 27.8888 15.9866 27.889 15.9569C27.8893 15.9272 27.9013 15.8988 27.9225 15.878C27.9437 15.8572 27.9723 15.8456 28.002 15.8459V15.8449ZM24.862 16.8519C24.9864 16.8503 25.1098 16.8732 25.2253 16.9194C25.3408 16.9656 25.446 17.034 25.535 17.1209C25.6245 17.2075 25.696 17.311 25.7453 17.4253C25.7947 17.5397 25.821 17.6626 25.8226 17.7872C25.8243 17.9117 25.8013 18.0353 25.7551 18.1509C25.7088 18.2666 25.6401 18.3719 25.553 18.4609L23.744 20.3209C23.6578 20.4121 23.5543 20.4852 23.4395 20.5361C23.3247 20.5869 23.201 20.6144 23.0755 20.617C22.9501 20.6196 22.8253 20.5972 22.7086 20.5512C22.5918 20.5051 22.4854 20.4363 22.3954 20.3488C22.3055 20.2612 22.2339 20.1567 22.1847 20.0412C22.1355 19.9257 22.1098 19.8016 22.109 19.6761C22.1082 19.5506 22.1324 19.4262 22.1801 19.3101C22.2279 19.194 22.2982 19.0886 22.387 18.9999L24.195 17.1419C24.2815 17.0522 24.3849 16.9805 24.4992 16.9309C24.6135 16.8813 24.7364 16.8548 24.861 16.8529V16.8509L24.862 16.8519ZM19.992 17.5329C20.0073 17.5318 20.0226 17.5339 20.0371 17.5389C20.0516 17.544 20.0648 17.552 20.0761 17.5624C20.0873 17.5728 20.0963 17.5854 20.1025 17.5994C20.1087 17.6134 20.1119 17.6286 20.112 17.6439C20.112 17.6587 20.1091 17.6733 20.1035 17.687C20.0978 17.7006 20.0895 17.713 20.0791 17.7234C20.0686 17.7339 20.0562 17.7422 20.0426 17.7478C20.0289 17.7535 20.0143 17.7564 19.9995 17.7564C19.9847 17.7564 19.9701 17.7535 19.9565 17.7478C19.9428 17.7422 19.9304 17.7339 19.92 17.7234C19.9095 17.713 19.9012 17.7006 19.8956 17.687C19.8899 17.6733 19.887 17.6587 19.887 17.6439C19.887 17.5859 19.933 17.5369 19.992 17.5339V17.5329ZM27.992 17.5329C28.0073 17.5318 28.0226 17.5339 28.0371 17.5389C28.0516 17.544 28.0648 17.552 28.0761 17.5624C28.0873 17.5728 28.0963 17.5854 28.1025 17.5994C28.1087 17.6134 28.1119 17.6286 28.112 17.6439C28.112 17.6587 28.1091 17.6733 28.1035 17.687C28.0978 17.7006 28.0895 17.713 28.0791 17.7234C28.0686 17.7339 28.0562 17.7422 28.0426 17.7478C28.0289 17.7535 28.0143 17.7564 27.9995 17.7564C27.9847 17.7564 27.9701 17.7535 27.9565 17.7478C27.9428 17.7422 27.9304 17.7339 27.92 17.7234C27.9095 17.713 27.9012 17.7006 27.8956 17.687C27.8899 17.6733 27.887 17.6587 27.887 17.6439C27.887 17.5859 27.933 17.5369 27.992 17.5339V17.5329ZM19.992 18.6579C20.0073 18.6568 20.0226 18.6589 20.0371 18.6639C20.0516 18.669 20.0648 18.677 20.0761 18.6874C20.0873 18.6978 20.0963 18.7104 20.1025 18.7244C20.1087 18.7384 20.1119 18.7536 20.112 18.7689C20.1124 18.7908 20.1063 18.8123 20.0945 18.8307C20.0828 18.8492 20.0659 18.8638 20.0459 18.8728C20.0259 18.8818 20.0038 18.8847 19.9822 18.8812C19.9606 18.8777 19.9405 18.868 19.9243 18.8532C19.9082 18.8384 19.8968 18.8192 19.8914 18.798C19.8861 18.7768 19.8871 18.7544 19.8943 18.7338C19.9015 18.7131 19.9146 18.695 19.9319 18.6817C19.9493 18.6684 19.9702 18.6605 19.992 18.6589V18.6579ZM27.992 18.6579C28.0073 18.6568 28.0226 18.6589 28.0371 18.6639C28.0516 18.669 28.0648 18.677 28.0761 18.6874C28.0873 18.6978 28.0963 18.7104 28.1025 18.7244C28.1087 18.7384 28.1119 18.7536 28.112 18.7689C28.1124 18.7908 28.1063 18.8123 28.0945 18.8307C28.0828 18.8492 28.0659 18.8638 28.0459 18.8728C28.0259 18.8818 28.0038 18.8847 27.9822 18.8812C27.9606 18.8777 27.9405 18.868 27.9243 18.8532C27.9082 18.8384 27.8968 18.8192 27.8914 18.798C27.8861 18.7768 27.8871 18.7544 27.8943 18.7338C27.9015 18.7131 27.9146 18.695 27.9319 18.6817C27.9493 18.6684 27.9702 18.6605 27.992 18.6589V18.6579ZM19.98 19.2209H20C20.0222 19.2211 20.0438 19.2279 20.0622 19.2404C20.0805 19.2529 20.0947 19.2706 20.103 19.2912C20.1112 19.3118 20.1132 19.3344 20.1086 19.3561C20.104 19.3778 20.093 19.3977 20.0771 19.4132C20.0612 19.4286 20.0411 19.439 20.0192 19.4431C19.9974 19.4471 19.9749 19.4445 19.9545 19.4357C19.9342 19.4269 19.9169 19.4122 19.9048 19.3936C19.8928 19.3749 19.8866 19.3531 19.887 19.3309C19.887 19.2769 19.927 19.2279 19.98 19.2209ZM27.98 19.2209H28C28.0222 19.2211 28.0438 19.2279 28.0622 19.2404C28.0805 19.2529 28.0947 19.2706 28.103 19.2912C28.1112 19.3118 28.1132 19.3344 28.1086 19.3561C28.104 19.3778 28.093 19.3977 28.0771 19.4132C28.0612 19.4286 28.0411 19.439 28.0192 19.4431C27.9974 19.4471 27.9749 19.4445 27.9545 19.4357C27.9342 19.4269 27.9169 19.4122 27.9048 19.3936C27.8928 19.3749 27.8866 19.3531 27.887 19.3309C27.887 19.2769 27.927 19.2279 27.98 19.2209ZM17.502 19.3009C17.6266 19.2992 17.7503 19.3222 17.866 19.3686C17.9817 19.4149 18.087 19.4837 18.176 19.5709C18.2653 19.6576 18.3365 19.761 18.3857 19.8753C18.4349 19.9896 18.461 20.1125 18.4626 20.2369C18.4642 20.3613 18.4412 20.4848 18.3949 20.6003C18.3487 20.7158 18.28 20.821 18.193 20.9099L16.385 22.7699C16.2983 22.8591 16.195 22.9303 16.0808 22.9795C15.9666 23.0287 15.8438 23.055 15.7195 23.0567C15.5951 23.0585 15.4716 23.0357 15.3561 22.9898C15.2406 22.9438 15.1352 22.8756 15.046 22.7889C14.9568 22.7022 14.8856 22.5988 14.8364 22.4846C14.7872 22.3704 14.761 22.2477 14.7592 22.1233C14.7574 21.999 14.7802 21.8755 14.8261 21.76C14.8721 21.6444 14.9403 21.5391 15.027 21.4499L16.836 19.5919C16.9224 19.5021 17.0258 19.4302 17.1401 19.3804C17.2544 19.3307 17.3774 19.304 17.502 19.3019V19.3009ZM32.221 19.3009C32.3456 19.2992 32.4693 19.3222 32.585 19.3686C32.7007 19.4149 32.806 19.4837 32.895 19.5709C32.9843 19.6576 33.0555 19.761 33.1047 19.8753C33.1539 19.9896 33.18 20.1125 33.1816 20.2369C33.1832 20.3613 33.1602 20.4848 33.1139 20.6003C33.0677 20.7158 32.999 20.821 32.912 20.9099L31.104 22.7699C31.0173 22.8591 30.914 22.9303 30.7998 22.9795C30.6856 23.0287 30.5628 23.055 30.4385 23.0567C30.3141 23.0585 30.1906 23.0357 30.0751 22.9898C29.9595 22.9438 29.8542 22.8756 29.765 22.7889C29.6758 22.7022 29.6046 22.5988 29.5554 22.4846C29.5062 22.3704 29.48 22.2477 29.4782 22.1233C29.4764 21.999 29.4992 21.8755 29.5451 21.76C29.5911 21.6444 29.6593 21.5391 29.746 21.4499L31.555 19.5919C31.6414 19.502 31.7447 19.4301 31.859 19.3804C31.9733 19.3306 32.0964 19.3039 32.221 19.3019V19.3009ZM20.002 19.7809C20.0168 19.781 20.0314 19.7841 20.045 19.7898C20.0586 19.7956 20.0709 19.804 20.0813 19.8146C20.0916 19.8251 20.0998 19.8376 20.1053 19.8513C20.1109 19.865 20.1136 19.8796 20.1135 19.8944C20.1134 19.9092 20.1103 19.9238 20.1046 19.9374C20.0988 19.951 20.0904 19.9633 20.0799 19.9737C20.0693 19.984 20.0568 19.9922 20.0431 19.9977C20.0294 20.0033 20.0148 20.006 20 20.0059C19.9702 20.0056 19.9417 19.9935 19.9208 19.9722C19.8999 19.951 19.8883 19.9222 19.8885 19.8924C19.8888 19.8626 19.9009 19.8341 19.9222 19.8131C19.9435 19.7922 19.9722 19.7806 20.002 19.7809ZM28.002 19.7809C28.0168 19.781 28.0314 19.7841 28.045 19.7898C28.0586 19.7956 28.0709 19.804 28.0813 19.8146C28.0916 19.8251 28.0998 19.8376 28.1053 19.8513C28.1109 19.865 28.1136 19.8796 28.1135 19.8944C28.1134 19.9092 28.1103 19.9238 28.1046 19.9374C28.0988 19.951 28.0904 19.9633 28.0799 19.9737C28.0693 19.984 28.0568 19.9922 28.0431 19.9977C28.0294 20.0033 28.0148 20.006 28 20.0059C27.9702 20.0056 27.9417 19.9935 27.9208 19.9722C27.8999 19.951 27.8883 19.9222 27.8885 19.8924C27.8888 19.8626 27.9009 19.8341 27.9222 19.8131C27.9435 19.7922 27.9722 19.7806 28.002 19.7809ZM19.992 20.3439H20C20.0294 20.3449 20.0571 20.3575 20.0773 20.3788C20.0975 20.4001 20.1085 20.4285 20.108 20.4578C20.1075 20.4872 20.0954 20.5152 20.0745 20.5357C20.0536 20.5563 20.0254 20.5678 19.996 20.5678C19.9667 20.5678 19.9385 20.5563 19.9175 20.5357C19.8966 20.5152 19.8846 20.4872 19.884 20.4578C19.8835 20.4285 19.8945 20.4001 19.9147 20.3788C19.9349 20.3575 19.9627 20.3449 19.992 20.3439ZM27.992 20.3439H28C28.0294 20.3449 28.0571 20.3575 28.0773 20.3788C28.0975 20.4001 28.1085 20.4285 28.108 20.4578C28.1075 20.4872 28.0954 20.5152 28.0745 20.5357C28.0536 20.5563 28.0254 20.5678 27.996 20.5678C27.9667 20.5678 27.9385 20.5563 27.9175 20.5357C27.8966 20.5152 27.8846 20.4872 27.884 20.4578C27.8835 20.4285 27.8945 20.4001 27.9147 20.3788C27.9349 20.3575 27.9627 20.3449 27.992 20.3439ZM19.992 20.9059H20C20.0294 20.9069 20.0571 20.9195 20.0773 20.9408C20.0975 20.9621 20.1085 20.9905 20.108 21.0198C20.1075 21.0492 20.0954 21.0772 20.0745 21.0977C20.0536 21.1183 20.0254 21.1298 19.996 21.1298C19.9667 21.1298 19.9385 21.1183 19.9175 21.0977C19.8966 21.0772 19.8846 21.0492 19.884 21.0198C19.8835 20.9905 19.8945 20.9621 19.9147 20.9408C19.9349 20.9195 19.9627 20.9069 19.992 20.9059ZM27.992 20.9059H28C28.0294 20.9069 28.0571 20.9195 28.0773 20.9408C28.0975 20.9621 28.1085 20.9905 28.108 21.0198C28.1075 21.0492 28.0954 21.0772 28.0745 21.0977C28.0536 21.1183 28.0254 21.1298 27.996 21.1298C27.9667 21.1298 27.9385 21.1183 27.9175 21.0977C27.8966 21.0772 27.8846 21.0492 27.884 21.0198C27.8835 20.9905 27.8945 20.9621 27.9147 20.9408C27.9349 20.9195 27.9627 20.9069 27.992 20.9059ZM19.992 21.4689H20C20.0294 21.4699 20.0571 21.4825 20.0773 21.5038C20.0975 21.5251 20.1085 21.5535 20.108 21.5828C20.1075 21.6122 20.0954 21.6402 20.0745 21.6607C20.0536 21.6813 20.0254 21.6928 19.996 21.6928C19.9667 21.6928 19.9385 21.6813 19.9175 21.6607C19.8966 21.6402 19.8846 21.6122 19.884 21.5828C19.8835 21.5535 19.8945 21.5251 19.9147 21.5038C19.9349 21.4825 19.9627 21.4699 19.992 21.4689ZM27.992 21.4689H28C28.0294 21.4699 28.0571 21.4825 28.0773 21.5038C28.0975 21.5251 28.1085 21.5535 28.108 21.5828C28.1075 21.6122 28.0954 21.6402 28.0745 21.6607C28.0536 21.6813 28.0254 21.6928 27.996 21.6928C27.9667 21.6928 27.9385 21.6813 27.9175 21.6607C27.8966 21.6402 27.8846 21.6122 27.884 21.5828C27.8835 21.5535 27.8945 21.5251 27.9147 21.5038C27.9349 21.4825 27.9627 21.4699 27.992 21.4689ZM24.862 22.1109C24.9864 22.1094 25.11 22.1324 25.2254 22.1788C25.3409 22.2251 25.4461 22.2938 25.535 22.3809C25.6245 22.4675 25.696 22.571 25.7453 22.6853C25.7947 22.7997 25.821 22.9226 25.8226 23.0472C25.8243 23.1717 25.8013 23.2953 25.7551 23.4109C25.7088 23.5266 25.6401 23.6319 25.553 23.7209L23.744 25.5799C23.5688 25.7599 23.3293 25.8631 23.0782 25.8669C22.827 25.8706 22.5845 25.7746 22.404 25.5999C22.3146 25.5132 22.2432 25.4097 22.1939 25.2953C22.1447 25.1809 22.1185 25.058 22.1169 24.9334C22.1153 24.8089 22.1384 24.6853 22.1847 24.5697C22.2311 24.4541 22.2998 24.3488 22.387 24.2599L24.195 22.4019C24.2815 22.3122 24.3849 22.2403 24.4991 22.1906C24.6134 22.1408 24.7364 22.1141 24.861 22.1119L24.862 22.1109ZM19.992 23.1559H20C20.0294 23.1569 20.0571 23.1695 20.0773 23.1908C20.0975 23.2121 20.1085 23.2405 20.108 23.2698C20.1075 23.2992 20.0954 23.3272 20.0745 23.3477C20.0536 23.3683 20.0254 23.3798 19.996 23.3798C19.9667 23.3798 19.9385 23.3683 19.9175 23.3477C19.8966 23.3272 19.8846 23.2992 19.884 23.2698C19.8835 23.2405 19.8945 23.2121 19.9147 23.1908C19.9349 23.1695 19.9627 23.1569 19.992 23.1559ZM27.992 23.1559H28C28.0294 23.1569 28.0571 23.1695 28.0773 23.1908C28.0975 23.2121 28.1085 23.2405 28.108 23.2698C28.1075 23.2992 28.0954 23.3272 28.0745 23.3477C28.0536 23.3683 28.0254 23.3798 27.996 23.3798C27.9667 23.3798 27.9385 23.3683 27.9175 23.3477C27.8966 23.3272 27.8846 23.2992 27.884 23.2698C27.8835 23.2405 27.8945 23.2121 27.9147 23.1908C27.9349 23.1695 27.9627 23.1569 27.992 23.1559ZM19.98 23.7189H20C20.0271 23.7225 20.052 23.7359 20.0701 23.7565C20.0881 23.7771 20.098 23.8035 20.098 23.8309C20.098 23.8583 20.0881 23.8847 20.0701 23.9053C20.052 23.9259 20.0271 23.9393 20 23.9429C19.9851 23.943 19.9704 23.9402 19.9566 23.9346C19.9428 23.9289 19.9303 23.9206 19.9198 23.9101C19.9093 23.8996 19.901 23.8871 19.8953 23.8733C19.8897 23.8595 19.8869 23.8448 19.887 23.8299C19.887 23.7749 19.927 23.7259 19.98 23.7189ZM27.98 23.7189H28C28.0271 23.7225 28.052 23.7359 28.0701 23.7565C28.0881 23.7771 28.098 23.8035 28.098 23.8309C28.098 23.8583 28.0881 23.8847 28.0701 23.9053C28.052 23.9259 28.0271 23.9393 28 23.9429C27.9851 23.943 27.9704 23.9402 27.9566 23.9346C27.9428 23.9289 27.9303 23.9206 27.9198 23.9101C27.9093 23.8996 27.901 23.8871 27.8953 23.8733C27.8897 23.8595 27.8869 23.8448 27.887 23.8299C27.887 23.7749 27.927 23.7259 27.98 23.7189ZM19.98 24.2809H20C20.061 24.2809 20.11 24.3309 20.111 24.3919C20.1074 24.419 20.094 24.4439 20.0734 24.4619C20.0528 24.48 20.0264 24.4899 19.999 24.4899C19.9716 24.4899 19.9452 24.48 19.9246 24.4619C19.904 24.4439 19.8906 24.419 19.887 24.3919C19.8867 24.3654 19.8959 24.3398 19.913 24.3196C19.9301 24.2994 19.9539 24.286 19.98 24.2819V24.2809ZM27.98 24.2809H28C28.061 24.2809 28.11 24.3309 28.111 24.3919C28.1074 24.419 28.094 24.4439 28.0734 24.4619C28.0528 24.48 28.0264 24.4899 27.999 24.4899C27.9716 24.4899 27.9452 24.48 27.9246 24.4619C27.904 24.4439 27.8906 24.419 27.887 24.3919C27.8867 24.3654 27.8959 24.3398 27.913 24.3196C27.9301 24.2994 27.9539 24.286 27.98 24.2819V24.2809ZM17.502 24.5609C17.6265 24.5591 17.7502 24.582 17.8659 24.6281C17.9815 24.6743 18.0869 24.7429 18.176 24.8299C18.2654 24.9166 18.3368 25.0201 18.3861 25.1345C18.4354 25.2489 18.4615 25.3718 18.4631 25.4964C18.4647 25.6209 18.4417 25.7445 18.3953 25.8601C18.3489 25.9757 18.2802 26.081 18.193 26.1699L16.385 28.0299C16.2098 28.21 15.9702 28.3132 15.719 28.3168C15.4677 28.3203 15.2253 28.224 15.045 28.0489C14.9555 27.9623 14.8841 27.8588 14.8347 27.7445C14.7854 27.6301 14.7591 27.5072 14.7574 27.3826C14.7557 27.2581 14.7787 27.1345 14.825 27.0189C14.8712 26.9032 14.9399 26.7979 15.027 26.7089L16.836 24.8519C16.9223 24.7618 17.0256 24.6896 17.1399 24.6395C17.2542 24.5894 17.3773 24.5623 17.502 24.5599V24.5609ZM32.221 24.5609C32.3455 24.5591 32.4692 24.582 32.5849 24.6281C32.7005 24.6743 32.8059 24.7429 32.895 24.8299C32.9844 24.9166 33.0558 25.0201 33.1051 25.1345C33.1544 25.2489 33.1805 25.3718 33.1821 25.4964C33.1837 25.6209 33.1607 25.7445 33.1143 25.8601C33.0679 25.9757 32.9992 26.081 32.912 26.1699L31.104 28.0299C30.9288 28.21 30.6892 28.3132 30.438 28.3168C30.1867 28.3203 29.9443 28.224 29.764 28.0489C29.6745 27.9623 29.6031 27.8588 29.5537 27.7445C29.5044 27.6301 29.4781 27.5072 29.4764 27.3826C29.4747 27.2581 29.4977 27.1345 29.544 27.0189C29.5902 26.9032 29.6589 26.7979 29.746 26.7089L31.555 24.8519C31.6413 24.7617 31.7446 24.6895 31.8589 24.6394C31.9732 24.5893 32.0962 24.5623 32.221 24.5599V24.5609ZM24.859 27.3689C24.9836 27.3672 25.1073 27.3902 25.223 27.4366C25.3387 27.4829 25.444 27.5517 25.533 27.6389C25.6225 27.7255 25.694 27.829 25.7433 27.9433C25.7927 28.0577 25.819 28.1806 25.8206 28.3052C25.8223 28.4297 25.7993 28.5533 25.7531 28.6689C25.7068 28.7846 25.6381 28.8899 25.551 28.9789L23.742 30.8379C23.6564 30.9315 23.5529 31.0069 23.4376 31.0597C23.3223 31.1125 23.1976 31.1417 23.0709 31.1454C22.9441 31.1491 22.8179 31.1273 22.6997 31.0813C22.5815 31.0353 22.4738 30.966 22.3829 30.8776C22.292 30.7892 22.2198 30.6834 22.1706 30.5665C22.1213 30.4497 22.096 30.3241 22.0962 30.1973C22.0964 30.0705 22.1221 29.945 22.1717 29.8283C22.2213 29.7116 22.2938 29.606 22.385 29.5179L24.193 27.6599C24.2795 27.5702 24.3829 27.4985 24.4972 27.4489C24.6115 27.3993 24.7344 27.3728 24.859 27.3709V27.3689ZM19.98 28.2169H20C20.061 28.2169 20.11 28.2669 20.111 28.3279C20.1109 28.3493 20.1047 28.3702 20.0932 28.3881C20.0816 28.4061 20.0651 28.4203 20.0457 28.4292C20.0263 28.4382 20.0047 28.4413 19.9836 28.4384C19.9624 28.4354 19.9425 28.4265 19.9263 28.4126C19.91 28.3987 19.8981 28.3805 19.8919 28.3601C19.8857 28.3396 19.8854 28.3179 19.8912 28.2973C19.8969 28.2767 19.9084 28.2582 19.9243 28.244C19.9403 28.2297 19.9599 28.2203 19.981 28.2169H19.98ZM27.98 28.2169H28C28.061 28.2169 28.11 28.2669 28.111 28.3279C28.1109 28.3493 28.1047 28.3702 28.0932 28.3881C28.0816 28.4061 28.0651 28.4203 28.0457 28.4292C28.0263 28.4382 28.0047 28.4413 27.9836 28.4384C27.9624 28.4354 27.9425 28.4265 27.9263 28.4126C27.91 28.3987 27.8981 28.3805 27.8919 28.3601C27.8857 28.3396 27.8854 28.3179 27.8912 28.2973C27.8969 28.2767 27.9084 28.2582 27.9243 28.244C27.9403 28.2297 27.9599 28.2203 27.981 28.2169H27.98ZM20.002 28.7769C20.0319 28.7772 20.0604 28.7893 20.0813 28.8106C20.1022 28.8318 20.1138 28.8606 20.1135 28.8904C20.1133 28.9202 20.1011 28.9487 20.0799 28.9697C20.0586 28.9906 20.0299 29.0022 20 29.0019C19.9852 29.0018 19.9706 28.9987 19.957 28.993C19.9434 28.9872 19.9311 28.9788 19.9208 28.9682C19.9104 28.9577 19.9022 28.9452 19.8967 28.9315C19.8912 28.9178 19.8884 28.9032 19.8885 28.8884C19.8886 28.8736 19.8917 28.859 19.8975 28.8454C19.9032 28.8318 19.9116 28.8195 19.9222 28.8091C19.9327 28.7988 19.9452 28.7906 19.9589 28.7851C19.9726 28.7795 19.9872 28.7768 20.002 28.7769ZM28.002 28.7769C28.0319 28.7772 28.0604 28.7893 28.0813 28.8106C28.1022 28.8318 28.1138 28.8606 28.1135 28.8904C28.1133 28.9202 28.1011 28.9487 28.0799 28.9697C28.0586 28.9906 28.0299 29.0022 28 29.0019C27.9852 29.0018 27.9706 28.9987 27.957 28.993C27.9434 28.9872 27.9311 28.9788 27.9208 28.9682C27.9104 28.9577 27.9022 28.9452 27.8967 28.9315C27.8912 28.9178 27.8884 28.9032 27.8885 28.8884C27.8886 28.8736 27.8917 28.859 27.8975 28.8454C27.9032 28.8318 27.9116 28.8195 27.9222 28.8091C27.9327 28.7988 27.9452 28.7906 27.9589 28.7851C27.9726 28.7795 27.9872 28.7768 28.002 28.7769ZM19.992 29.3399H20C20.0294 29.341 20.0571 29.3535 20.0773 29.3748C20.0975 29.3961 20.1085 29.4245 20.108 29.4538C20.1075 29.4832 20.0954 29.5112 20.0745 29.5317C20.0536 29.5523 20.0254 29.5638 19.996 29.5638C19.9667 29.5638 19.9385 29.5523 19.9175 29.5317C19.8966 29.5112 19.8846 29.4832 19.884 29.4538C19.8835 29.4245 19.8945 29.3961 19.9147 29.3748C19.9349 29.3535 19.9627 29.341 19.992 29.3399ZM27.992 29.3399H28C28.0294 29.341 28.0571 29.3535 28.0773 29.3748C28.0975 29.3961 28.1085 29.4245 28.108 29.4538C28.1075 29.4832 28.0954 29.5112 28.0745 29.5317C28.0536 29.5523 28.0254 29.5638 27.996 29.5638C27.9667 29.5638 27.9385 29.5523 27.9175 29.5317C27.8966 29.5112 27.8846 29.4832 27.884 29.4538C27.8835 29.4245 27.8945 29.3961 27.9147 29.3748C27.9349 29.3535 27.9627 29.341 27.992 29.3399ZM17.5 29.8179C17.6246 29.8162 17.7483 29.8392 17.864 29.8856C17.9797 29.9319 18.085 30.0007 18.174 30.0879C18.2634 30.1746 18.3348 30.2781 18.3841 30.3925C18.4334 30.5069 18.4595 30.6298 18.4611 30.7544C18.4627 30.8789 18.4397 31.0025 18.3933 31.1181C18.3469 31.2337 18.2782 31.339 18.191 31.4279L16.383 33.2869C16.2963 33.3761 16.193 33.4473 16.0788 33.4965C15.9646 33.5457 15.8418 33.572 15.7175 33.5737C15.5931 33.5755 15.4696 33.5527 15.3541 33.5068C15.2386 33.4608 15.1332 33.3926 15.044 33.3059C14.9548 33.2192 14.8836 33.1158 14.8344 33.0016C14.7852 32.8874 14.759 32.7647 14.7572 32.6403C14.7554 32.516 14.7782 32.3925 14.8241 32.277C14.8701 32.1614 14.9383 32.0561 15.025 31.9669L16.834 30.1089C16.9205 30.0192 17.0239 29.9475 17.1382 29.8979C17.2525 29.8483 17.3754 29.8218 17.5 29.8199V29.8179ZM32.219 29.8179C32.3436 29.8162 32.4673 29.8392 32.583 29.8856C32.6987 29.9319 32.804 30.0007 32.893 30.0879C32.9824 30.1746 33.0538 30.2781 33.1031 30.3925C33.1524 30.5069 33.1785 30.6298 33.1801 30.7544C33.1817 30.8789 33.1587 31.0025 33.1123 31.1181C33.0659 31.2337 32.9972 31.339 32.91 31.4279L31.102 33.2869C31.0153 33.3761 30.912 33.4473 30.7978 33.4965C30.6836 33.5457 30.5608 33.572 30.4365 33.5737C30.3121 33.5755 30.1886 33.5527 30.0731 33.5068C29.9576 33.4608 29.8522 33.3926 29.763 33.3059C29.6739 33.2192 29.6026 33.1158 29.5534 33.0016C29.5042 32.8874 29.478 32.7647 29.4762 32.6403C29.4744 32.516 29.4972 32.3925 29.5431 32.277C29.5891 32.1614 29.6573 32.0561 29.744 31.9669L31.553 30.1089C31.6395 30.0192 31.7429 29.9475 31.8572 29.8979C31.9715 29.8483 32.0944 29.8218 32.219 29.8199V29.8179ZM19.992 29.9019H20C20.0294 29.903 20.0571 29.9155 20.0773 29.9368C20.0975 29.9581 20.1085 29.9865 20.108 30.0158C20.1075 30.0452 20.0954 30.0732 20.0745 30.0937C20.0536 30.1143 20.0254 30.1258 19.996 30.1258C19.9667 30.1258 19.9385 30.1143 19.9175 30.0937C19.8966 30.0732 19.8846 30.0452 19.884 30.0158C19.8835 29.9865 19.8945 29.9581 19.9147 29.9368C19.9349 29.9155 19.9627 29.903 19.992 29.9019ZM27.992 29.9019H28C28.0294 29.903 28.0571 29.9155 28.0773 29.9368C28.0975 29.9581 28.1085 29.9865 28.108 30.0158C28.1075 30.0452 28.0954 30.0732 28.0745 30.0937C28.0536 30.1143 28.0254 30.1258 27.996 30.1258C27.9667 30.1258 27.9385 30.1143 27.9175 30.0937C27.8966 30.0732 27.8846 30.0452 27.884 30.0158C27.8835 29.9865 27.8945 29.9581 27.9147 29.9368C27.9349 29.9155 27.9627 29.903 27.992 29.9019ZM19.992 31.0249C20.0074 31.0241 20.0228 31.0264 20.0373 31.0317C20.0517 31.037 20.065 31.0452 20.0762 31.0557C20.0874 31.0663 20.0963 31.079 20.1025 31.0932C20.1087 31.1073 20.1119 31.1225 20.112 31.1379C20.112 31.1677 20.1002 31.1964 20.0791 31.2175C20.058 31.2385 20.0294 31.2504 19.9995 31.2504C19.9697 31.2504 19.9411 31.2385 19.92 31.2175C19.8989 31.1964 19.887 31.1677 19.887 31.1379C19.887 31.0789 19.933 31.0279 19.992 31.0249ZM27.992 31.0249C28.0074 31.0241 28.0228 31.0264 28.0373 31.0317C28.0517 31.037 28.065 31.0452 28.0762 31.0557C28.0874 31.0663 28.0963 31.079 28.1025 31.0932C28.1087 31.1073 28.1119 31.1225 28.112 31.1379C28.112 31.1677 28.1002 31.1964 28.0791 31.2175C28.058 31.2385 28.0294 31.2504 27.9995 31.2504C27.9697 31.2504 27.9411 31.2385 27.92 31.2175C27.8989 31.1964 27.887 31.1677 27.887 31.1379C27.887 31.0789 27.933 31.0279 27.992 31.0249ZM19.98 32.1499H20C20.0221 32.1501 20.0437 32.1568 20.062 32.1693C20.0803 32.1817 20.0945 32.1992 20.1028 32.2197C20.1111 32.2402 20.1132 32.2627 20.1087 32.2844C20.1043 32.306 20.0936 32.3259 20.0779 32.3414C20.0622 32.357 20.0422 32.3676 20.0205 32.3718C19.9988 32.3761 19.9763 32.3738 19.9559 32.3653C19.9355 32.3568 19.9181 32.3424 19.9058 32.324C19.8936 32.3056 19.887 32.284 19.887 32.2619C19.8862 32.2351 19.8952 32.2089 19.9123 32.1883C19.9295 32.1677 19.9535 32.154 19.98 32.1499ZM27.98 32.1499H28C28.0221 32.1501 28.0437 32.1568 28.062 32.1693C28.0803 32.1817 28.0945 32.1992 28.1028 32.2197C28.1111 32.2402 28.1132 32.2627 28.1087 32.2844C28.1043 32.306 28.0936 32.3259 28.0779 32.3414C28.0622 32.357 28.0422 32.3676 28.0205 32.3718C27.9988 32.3761 27.9763 32.3738 27.9559 32.3653C27.9355 32.3568 27.9181 32.3424 27.9058 32.324C27.8936 32.3056 27.887 32.284 27.887 32.2619C27.8862 32.2351 27.8952 32.2089 27.9123 32.1883C27.9295 32.1677 27.9535 32.154 27.98 32.1499ZM24.861 32.5739C25.0491 32.5702 25.2341 32.6227 25.3921 32.7247C25.5502 32.8267 25.6743 32.9735 25.7484 33.1465C25.8225 33.3194 25.8433 33.5105 25.8081 33.6953C25.773 33.8801 25.6834 34.0503 25.551 34.1839L23.742 36.0429C23.6571 36.1391 23.5536 36.2171 23.4377 36.2721C23.3217 36.3271 23.1958 36.358 23.0676 36.3628C22.9394 36.3677 22.8115 36.3464 22.6918 36.3004C22.572 36.2543 22.4629 36.1844 22.371 36.0949C22.279 36.0053 22.2063 35.898 22.1571 35.7795C22.1079 35.661 22.0833 35.5337 22.0848 35.4054C22.0863 35.2771 22.1139 35.1505 22.1658 35.0331C22.2178 34.9158 22.293 34.8103 22.387 34.7229L24.195 32.8649C24.2815 32.7752 24.3849 32.7036 24.4992 32.654C24.6135 32.6044 24.7364 32.5778 24.861 32.5759V32.5739ZM19.981 32.7129H20C20.061 32.7129 20.11 32.7629 20.111 32.8239C20.1109 32.8453 20.1047 32.8662 20.0932 32.8841C20.0816 32.9021 20.0651 32.9163 20.0457 32.9252C20.0263 32.9342 20.0047 32.9373 19.9836 32.9344C19.9624 32.9314 19.9425 32.9225 19.9263 32.9086C19.91 32.8947 19.8981 32.8765 19.8919 32.8561C19.8857 32.8356 19.8854 32.8139 19.8912 32.7933C19.8969 32.7727 19.9084 32.7542 19.9243 32.74C19.9403 32.7257 19.9599 32.7163 19.981 32.7129ZM27.981 32.7129H28C28.061 32.7129 28.11 32.7629 28.111 32.8239C28.1109 32.8453 28.1047 32.8662 28.0932 32.8841C28.0816 32.9021 28.0651 32.9163 28.0457 32.9252C28.0263 32.9342 28.0047 32.9373 27.9836 32.9344C27.9624 32.9314 27.9425 32.9225 27.9263 32.9086C27.91 32.8947 27.8981 32.8765 27.8919 32.8561C27.8857 32.8356 27.8854 32.8139 27.8912 32.7933C27.8969 32.7727 27.9084 32.7542 27.9243 32.74C27.9403 32.7257 27.9599 32.7163 27.981 32.7129ZM20.002 33.2729C20.064 33.2739 20.114 33.3269 20.113 33.3889C20.1129 33.4033 20.1099 33.4176 20.1043 33.4309C20.0986 33.4442 20.0904 33.4563 20.0801 33.4664C20.0698 33.4765 20.0576 33.4845 20.0442 33.4899C20.0308 33.4953 20.0165 33.498 20.002 33.4979C19.9873 33.4983 19.9727 33.4958 19.959 33.4904C19.9453 33.4851 19.9328 33.477 19.9223 33.4668C19.9118 33.4565 19.9034 33.4442 19.8977 33.4307C19.892 33.4172 19.889 33.4026 19.889 33.3879C19.889 33.3259 19.939 33.2729 20.002 33.2729ZM28.002 33.2729C28.064 33.2739 28.114 33.3269 28.113 33.3889C28.1129 33.4033 28.1099 33.4176 28.1043 33.4309C28.0986 33.4442 28.0904 33.4563 28.0801 33.4664C28.0698 33.4765 28.0576 33.4845 28.0442 33.4899C28.0308 33.4953 28.0165 33.498 28.002 33.4979C27.9873 33.4983 27.9727 33.4958 27.959 33.4904C27.9453 33.4851 27.9328 33.477 27.9223 33.4668C27.9118 33.4565 27.9034 33.4442 27.8977 33.4307C27.892 33.4172 27.889 33.4026 27.889 33.3879C27.889 33.3259 27.939 33.2729 28.002 33.2729ZM19.992 33.8359H20C20.0294 33.8369 20.0571 33.8495 20.0773 33.8708C20.0975 33.8921 20.1085 33.9205 20.108 33.9498C20.1075 33.9792 20.0954 34.0072 20.0745 34.0277C20.0536 34.0483 20.0254 34.0598 19.996 34.0598C19.9667 34.0598 19.9385 34.0483 19.9175 34.0277C19.8966 34.0072 19.8846 33.9792 19.884 33.9498C19.8835 33.9205 19.8945 33.8921 19.9147 33.8708C19.9349 33.8495 19.9627 33.8369 19.992 33.8359ZM27.992 33.8359H28C28.0294 33.8369 28.0571 33.8495 28.0773 33.8708C28.0975 33.8921 28.1085 33.9205 28.108 33.9498C28.1075 33.9792 28.0954 34.0072 28.0745 34.0277C28.0536 34.0483 28.0254 34.0598 27.996 34.0598C27.9667 34.0598 27.9385 34.0483 27.9175 34.0277C27.8966 34.0072 27.8846 33.9792 27.884 33.9498C27.8835 33.9205 27.8945 33.8921 27.9147 33.8708C27.9349 33.8495 27.9627 33.8369 27.992 33.8359ZM17.523 35.4839C17.7109 35.4807 17.8955 35.5334 18.0533 35.6355C18.211 35.7376 18.3348 35.8844 18.4089 36.0571C18.4829 36.2298 18.5038 36.4207 18.4689 36.6053C18.434 36.79 18.3449 36.9601 18.213 37.0939L16.404 38.9529C16.3173 39.0419 16.214 39.1129 16.0999 39.1619C15.9858 39.211 15.8631 39.237 15.7389 39.2387C15.4881 39.2419 15.2462 39.1454 15.0665 38.9704C14.8868 38.7954 14.784 38.5561 14.7808 38.3053C14.7775 38.0544 14.874 37.8126 15.049 37.6329L16.857 35.7749C16.9435 35.6852 17.0469 35.6136 17.1612 35.564C17.2755 35.5144 17.3984 35.4878 17.523 35.4859V35.4839ZM32.285 35.4839C32.4731 35.4802 32.6581 35.5327 32.8161 35.6347C32.9742 35.7367 33.0983 35.8835 33.1724 36.0565C33.2465 36.2294 33.2673 36.4205 33.2321 36.6053C33.197 36.7901 33.1074 36.9603 32.975 37.0939L31.166 38.9529C31.0793 39.0419 30.976 39.1129 30.8619 39.1619C30.7478 39.211 30.6251 39.237 30.5009 39.2387C30.2501 39.2419 30.0082 39.1454 29.8285 38.9704C29.6488 38.7954 29.546 38.5561 29.5428 38.3053C29.5395 38.0544 29.636 37.8126 29.811 37.6329L31.619 35.7749C31.7055 35.6852 31.8089 35.6136 31.9232 35.564C32.0375 35.5144 32.1604 35.4878 32.285 35.4859V35.4839ZM19.98 37.2109H20C20.061 37.2109 20.11 37.2609 20.111 37.3219C20.1109 37.3433 20.1047 37.3642 20.0932 37.3821C20.0816 37.4001 20.0651 37.4143 20.0457 37.4232C20.0263 37.4322 20.0047 37.4353 19.9836 37.4324C19.9624 37.4294 19.9425 37.4205 19.9263 37.4066C19.91 37.3927 19.8981 37.3745 19.8919 37.3541C19.8857 37.3336 19.8854 37.3119 19.8912 37.2913C19.8969 37.2707 19.9084 37.2522 19.9243 37.238C19.9403 37.2237 19.9599 37.2143 19.981 37.2109H19.98ZM27.98 37.2109H28C28.061 37.2109 28.11 37.2609 28.111 37.3219C28.1109 37.3433 28.1047 37.3642 28.0932 37.3821C28.0816 37.4001 28.0651 37.4143 28.0457 37.4232C28.0263 37.4322 28.0047 37.4353 27.9836 37.4324C27.9624 37.4294 27.9425 37.4205 27.9263 37.4066C27.91 37.3927 27.8981 37.3745 27.8919 37.3541C27.8857 37.3336 27.8854 37.3119 27.8912 37.2913C27.8969 37.2707 27.9084 37.2522 27.9243 37.238C27.9403 37.2237 27.9599 37.2143 27.981 37.2109H27.98ZM24.862 38.1349C25.0501 38.1312 25.2351 38.1837 25.3931 38.2857C25.5512 38.3877 25.6753 38.5345 25.7494 38.7075C25.8235 38.8804 25.8443 39.0715 25.8091 39.2563C25.774 39.4411 25.6844 39.6113 25.552 39.7449L23.742 41.6029C23.6553 41.6919 23.552 41.7629 23.4379 41.8119C23.3238 41.861 23.2011 41.887 23.0769 41.8887C22.8261 41.8919 22.5842 41.7954 22.4045 41.6204C22.2248 41.4454 22.122 41.2061 22.1188 40.9553C22.1155 40.7044 22.212 40.4626 22.387 40.2829L24.195 38.4259C24.2814 38.336 24.3847 38.2641 24.499 38.2144C24.6133 38.1646 24.7364 38.1379 24.861 38.1359V38.1349H24.862ZM19.98 41.1459H20C20.0221 41.1461 20.0437 41.1528 20.062 41.1653C20.0803 41.1777 20.0945 41.1952 20.1028 41.2157C20.1111 41.2362 20.1132 41.2587 20.1087 41.2804C20.1043 41.302 20.0936 41.3219 20.0779 41.3374C20.0622 41.353 20.0422 41.3636 20.0205 41.3678C19.9988 41.3721 19.9763 41.3698 19.9559 41.3613C19.9355 41.3528 19.9181 41.3384 19.9058 41.32C19.8936 41.3016 19.887 41.28 19.887 41.2579C19.8862 41.2311 19.8952 41.2049 19.9123 41.1843C19.9295 41.1637 19.9535 41.15 19.98 41.1459ZM27.98 41.1459H28C28.0221 41.1461 28.0437 41.1528 28.062 41.1653C28.0803 41.1777 28.0945 41.1952 28.1028 41.2157C28.1111 41.2362 28.1132 41.2587 28.1087 41.2804C28.1043 41.302 28.0936 41.3219 28.0779 41.3374C28.0622 41.353 28.0422 41.3636 28.0205 41.3678C27.9988 41.3721 27.9763 41.3698 27.9559 41.3613C27.9355 41.3528 27.9181 41.3384 27.9058 41.32C27.8936 41.3016 27.887 41.28 27.887 41.2579C27.8862 41.2311 27.8952 41.2049 27.9123 41.1843C27.9295 41.1637 27.9535 41.15 27.98 41.1459ZM19.98 41.7089H20C20.061 41.7089 20.11 41.7589 20.111 41.8199C20.111 41.8819 20.061 41.9309 20 41.9309C19.9705 41.9312 19.942 41.9198 19.9209 41.8992C19.8997 41.8786 19.8875 41.8504 19.887 41.8209C19.8862 41.7941 19.8952 41.7679 19.9123 41.7473C19.9295 41.7267 19.9535 41.713 19.98 41.7089ZM27.98 41.7089H28C28.061 41.7089 28.11 41.7589 28.111 41.8199C28.111 41.8819 28.061 41.9309 28 41.9309C27.9705 41.9312 27.942 41.9198 27.9209 41.8992C27.8997 41.8786 27.8875 41.8504 27.887 41.8209C27.8862 41.7941 27.8952 41.7679 27.9123 41.7473C27.9295 41.7267 27.9535 41.713 27.98 41.7089ZM20.002 42.2689C20.0319 42.2692 20.0604 42.2813 20.0813 42.3026C20.1022 42.3238 20.1138 42.3526 20.1135 42.3824C20.1133 42.4122 20.1011 42.4407 20.0799 42.4617C20.0586 42.4826 20.0299 42.4942 20 42.4939C19.9852 42.4938 19.9706 42.4907 19.957 42.485C19.9434 42.4792 19.9311 42.4708 19.9208 42.4602C19.9104 42.4497 19.9022 42.4372 19.8967 42.4235C19.8912 42.4098 19.8884 42.3952 19.8885 42.3804C19.8886 42.3656 19.8917 42.351 19.8975 42.3374C19.9032 42.3238 19.9116 42.3115 19.9222 42.3011C19.9327 42.2908 19.9452 42.2826 19.9589 42.2771C19.9726 42.2715 19.9872 42.2688 20.002 42.2689ZM28.002 42.2689C28.0319 42.2692 28.0604 42.2813 28.0813 42.3026C28.1022 42.3238 28.1138 42.3526 28.1135 42.3824C28.1133 42.4122 28.1011 42.4407 28.0799 42.4617C28.0586 42.4826 28.0299 42.4942 28 42.4939C27.9852 42.4938 27.9706 42.4907 27.957 42.485C27.9434 42.4792 27.9311 42.4708 27.9208 42.4602C27.9104 42.4497 27.9022 42.4372 27.8967 42.4235C27.8912 42.4098 27.8884 42.3952 27.8885 42.3804C27.8886 42.3656 27.8917 42.351 27.8975 42.3374C27.9032 42.3238 27.9116 42.3115 27.9222 42.3011C27.9327 42.2908 27.9452 42.2826 27.9589 42.2771C27.9726 42.2715 27.9872 42.2688 28.002 42.2689Z" fill="#333333"/>
</svg>
