<svg width="48" height="48" viewBox="0 0 48 48" fill="none" xmlns="http://www.w3.org/2000/svg">
<path d="M14.346 4.09402C13.476 4.09402 12.777 4.79302 12.777 5.66202V42.523C12.777 43.393 13.477 44.093 14.346 44.093H34.05C34.92 44.093 35.618 43.393 35.618 42.523V5.66302C35.618 4.79302 34.919 4.09302 34.05 4.09302H14.346V4.09402ZM14.776 4.59402H33.616C34.446 4.59402 35.117 5.27702 35.117 6.12502V42.065C35.117 42.912 34.447 43.594 33.615 43.594H14.775C13.945 43.594 13.275 42.912 13.275 42.064V6.12502C13.275 5.27702 13.945 4.59402 14.775 4.59402H14.776ZM16.213 9.47702C15.9982 9.46942 15.7842 9.50516 15.5835 9.5821C15.3829 9.65903 15.1998 9.77559 15.0452 9.92482C14.8906 10.0741 14.7677 10.2529 14.6837 10.4507C14.5997 10.6485 14.5564 10.8611 14.5564 11.076C14.5564 11.2909 14.5997 11.5036 14.6837 11.7014C14.7677 11.8991 14.8906 12.078 15.0452 12.2272C15.1998 12.3764 15.3829 12.493 15.5835 12.5699C15.7842 12.6469 15.9982 12.6826 16.213 12.675C16.6273 12.6604 17.0197 12.4855 17.3076 12.1872C17.5955 11.8889 17.7564 11.4906 17.7564 11.076C17.7564 10.6615 17.5955 10.2631 17.3076 9.96482C17.0197 9.66655 16.6273 9.49167 16.213 9.47702ZM20.213 9.47702C19.9982 9.46942 19.7842 9.50516 19.5835 9.5821C19.3829 9.65903 19.1998 9.77559 19.0452 9.92482C18.8906 10.0741 18.7677 10.2529 18.6837 10.4507C18.5997 10.6485 18.5564 10.8611 18.5564 11.076C18.5564 11.2909 18.5997 11.5036 18.6837 11.7014C18.7677 11.8991 18.8906 12.078 19.0452 12.2272C19.1998 12.3764 19.3829 12.493 19.5835 12.5699C19.7842 12.6469 19.9982 12.6826 20.213 12.675C20.6273 12.6604 21.0197 12.4855 21.3076 12.1872C21.5955 11.8889 21.7564 11.4906 21.7564 11.076C21.7564 10.6615 21.5955 10.2631 21.3076 9.96482C21.0197 9.66655 20.6273 9.49167 20.213 9.47702ZM24.213 9.47702C23.9982 9.46942 23.7842 9.50516 23.5835 9.5821C23.3829 9.65903 23.1998 9.77559 23.0452 9.92482C22.8906 10.0741 22.7677 10.2529 22.6837 10.4507C22.5997 10.6485 22.5564 10.8611 22.5564 11.076C22.5564 11.2909 22.5997 11.5036 22.6837 11.7014C22.7677 11.8991 22.8906 12.078 23.0452 12.2272C23.1998 12.3764 23.3829 12.493 23.5835 12.5699C23.7842 12.6469 23.9982 12.6826 24.213 12.675C24.6273 12.6604 25.0197 12.4855 25.3076 12.1872C25.5955 11.8889 25.7564 11.4906 25.7564 11.076C25.7564 10.6615 25.5955 10.2631 25.3076 9.96482C25.0197 9.66655 24.6273 9.49167 24.213 9.47702ZM28.213 9.47702C27.9982 9.46942 27.7842 9.50516 27.5835 9.5821C27.3829 9.65903 27.1998 9.77559 27.0452 9.92482C26.8906 10.0741 26.7677 10.2529 26.6837 10.4507C26.5997 10.6485 26.5564 10.8611 26.5564 11.076C26.5564 11.2909 26.5997 11.5036 26.6837 11.7014C26.7677 11.8991 26.8906 12.078 27.0452 12.2272C27.1998 12.3764 27.3829 12.493 27.5835 12.5699C27.7842 12.6469 27.9982 12.6826 28.213 12.675C28.6273 12.6604 29.0197 12.4855 29.3076 12.1872C29.5955 11.8889 29.7564 11.4906 29.7564 11.076C29.7564 10.6615 29.5955 10.2631 29.3076 9.96482C29.0197 9.66655 28.6273 9.49167 28.213 9.47702ZM32.213 9.47702C31.9982 9.46942 31.7842 9.50516 31.5835 9.5821C31.3829 9.65903 31.1998 9.77559 31.0452 9.92482C30.8906 10.0741 30.7677 10.2529 30.6837 10.4507C30.5997 10.6485 30.5564 10.8611 30.5564 11.076C30.5564 11.2909 30.5997 11.5036 30.6837 11.7014C30.7677 11.8991 30.8906 12.078 31.0452 12.2272C31.1998 12.3764 31.3829 12.493 31.5835 12.5699C31.7842 12.6469 31.9982 12.6826 32.213 12.675C32.6273 12.6604 33.0197 12.4855 33.3076 12.1872C33.5955 11.8889 33.7564 11.4906 33.7564 11.076C33.7564 10.6615 33.5955 10.2631 33.3076 9.96482C33.0197 9.66655 32.6273 9.49167 32.213 9.47702ZM16.213 9.93702C16.3624 9.93689 16.5103 9.96618 16.6484 10.0232C16.7864 10.0803 16.9119 10.1639 17.0176 10.2695C17.1233 10.375 17.2072 10.5003 17.2645 10.6383C17.3218 10.7762 17.3513 10.9241 17.3515 11.0735C17.3516 11.2229 17.3223 11.3708 17.2653 11.5089C17.2082 11.647 17.1246 11.7724 17.019 11.8781C16.9135 11.9839 16.7882 12.0678 16.6502 12.125C16.5122 12.1823 16.3644 12.2119 16.215 12.212C15.9134 12.2123 15.6241 12.0927 15.4107 11.8797C15.1973 11.6667 15.0772 11.3776 15.077 11.076C15.0767 10.7745 15.1962 10.4852 15.4093 10.2717C15.6223 10.0583 15.9114 9.93828 16.213 9.93802V9.93702ZM20.213 9.93702C20.3624 9.93689 20.5103 9.96618 20.6484 10.0232C20.7864 10.0803 20.9119 10.1639 21.0176 10.2695C21.1233 10.375 21.2072 10.5003 21.2645 10.6383C21.3218 10.7762 21.3513 10.9241 21.3515 11.0735C21.3516 11.2229 21.3223 11.3708 21.2653 11.5089C21.2082 11.647 21.1246 11.7724 21.019 11.8781C20.9135 11.9839 20.7882 12.0678 20.6502 12.125C20.5122 12.1823 20.3644 12.2119 20.215 12.212C19.9134 12.2123 19.6241 12.0927 19.4107 11.8797C19.1973 11.6667 19.0772 11.3776 19.077 11.076C19.0767 10.7745 19.1962 10.4852 19.4093 10.2717C19.6223 10.0583 19.9114 9.93828 20.213 9.93802V9.93702ZM24.213 9.93702C24.3624 9.93689 24.5103 9.96618 24.6484 10.0232C24.7864 10.0803 24.9119 10.1639 25.0176 10.2695C25.1233 10.375 25.2072 10.5003 25.2645 10.6383C25.3218 10.7762 25.3513 10.9241 25.3515 11.0735C25.3516 11.2229 25.3223 11.3708 25.2653 11.5089C25.2082 11.647 25.1246 11.7724 25.019 11.8781C24.9135 11.9839 24.7882 12.0678 24.6502 12.125C24.5122 12.1823 24.3644 12.2119 24.215 12.212C23.9134 12.2123 23.6241 12.0927 23.4107 11.8797C23.1973 11.6667 23.0772 11.3776 23.077 11.076C23.0767 10.7745 23.1962 10.4852 23.4093 10.2717C23.6223 10.0583 23.9114 9.93828 24.213 9.93802V9.93702ZM28.213 9.93702C28.3624 9.93689 28.5103 9.96618 28.6484 10.0232C28.7864 10.0803 28.9119 10.1639 29.0176 10.2695C29.1233 10.375 29.2072 10.5003 29.2645 10.6383C29.3218 10.7762 29.3513 10.9241 29.3515 11.0735C29.3516 11.2229 29.3223 11.3708 29.2653 11.5089C29.2082 11.647 29.1246 11.7724 29.019 11.8781C28.9135 11.9839 28.7882 12.0678 28.6502 12.125C28.5122 12.1823 28.3644 12.2119 28.215 12.212C27.9134 12.2123 27.6241 12.0927 27.4107 11.8797C27.1973 11.6667 27.0772 11.3776 27.077 11.076C27.0767 10.7745 27.1962 10.4852 27.4093 10.2717C27.6223 10.0583 27.9114 9.93828 28.213 9.93802V9.93702ZM32.213 9.93702C32.3624 9.93689 32.5103 9.96618 32.6484 10.0232C32.7864 10.0803 32.9119 10.1639 33.0176 10.2695C33.1233 10.375 33.2072 10.5003 33.2645 10.6383C33.3218 10.7762 33.3513 10.9241 33.3515 11.0735C33.3516 11.2229 33.3223 11.3708 33.2653 11.5089C33.2082 11.647 33.1246 11.7724 33.019 11.8781C32.9135 11.9839 32.7882 12.0678 32.6502 12.125C32.5122 12.1823 32.3644 12.2119 32.215 12.212C31.9134 12.2123 31.6241 12.0927 31.4107 11.8797C31.1973 11.6667 31.0772 11.3776 31.077 11.076C31.0767 10.7745 31.1962 10.4852 31.4093 10.2717C31.6223 10.0583 31.9114 9.93828 32.213 9.93802V9.93702ZM13.795 14.98C13.7802 14.9801 13.7656 14.9832 13.752 14.989C13.7384 14.9948 13.726 15.0033 13.7157 15.0139C13.7054 15.0245 13.6973 15.037 13.6918 15.0508C13.6864 15.0645 13.6837 15.0792 13.684 15.094C13.684 15.155 13.734 15.206 13.794 15.207C13.857 15.207 13.907 15.157 13.908 15.094C13.9082 15.0791 13.9055 15.0642 13.8999 15.0503C13.8944 15.0364 13.8861 15.0238 13.8755 15.0132C13.865 15.0025 13.8525 14.9941 13.8386 14.9884C13.8248 14.9827 13.8099 14.9799 13.795 14.98ZM14.357 14.98C14.3269 14.9803 14.2982 14.9924 14.277 15.0138C14.2558 15.0351 14.244 15.064 14.244 15.094C14.244 15.155 14.296 15.207 14.357 15.207C14.419 15.207 14.468 15.155 14.469 15.094V15.074C14.4651 15.0473 14.4515 15.023 14.4309 15.0057C14.4102 14.9884 14.3839 14.9792 14.357 14.98ZM14.92 14.98C14.905 14.9799 14.8902 14.9827 14.8763 14.9884C14.8625 14.9941 14.8499 15.0025 14.8394 15.0132C14.8289 15.0238 14.8206 15.0364 14.815 15.0503C14.8094 15.0642 14.8067 15.0791 14.807 15.094C14.807 15.156 14.857 15.208 14.92 15.207C14.981 15.207 15.03 15.155 15.031 15.094V15.074C15.0271 15.0475 15.0137 15.0234 14.9932 15.0061C14.9728 14.9887 14.9468 14.9795 14.92 14.98ZM15.482 14.98C15.467 14.9799 15.4522 14.9827 15.4383 14.9884C15.4245 14.9941 15.4119 15.0025 15.4014 15.0132C15.3909 15.0238 15.3826 15.0364 15.377 15.0503C15.3714 15.0642 15.3687 15.0791 15.369 15.094C15.369 15.156 15.42 15.208 15.482 15.207C15.544 15.207 15.593 15.155 15.594 15.094V15.086C15.5924 15.0574 15.58 15.0304 15.5591 15.0107C15.5383 14.991 15.5107 14.98 15.482 14.98ZM16.045 14.98C16.03 14.9799 16.0152 14.9827 16.0013 14.9884C15.9875 14.9941 15.9749 15.0025 15.9644 15.0132C15.9539 15.0238 15.9456 15.0364 15.94 15.0503C15.9344 15.0642 15.9317 15.0791 15.932 15.094C15.932 15.156 15.982 15.208 16.045 15.207C16.106 15.207 16.155 15.155 16.156 15.094V15.086C16.1545 15.0575 16.1421 15.0307 16.1215 15.011C16.1009 14.9913 16.0735 14.9802 16.045 14.98ZM16.607 14.98C16.592 14.9799 16.5772 14.9827 16.5633 14.9884C16.5495 14.9941 16.5369 15.0025 16.5264 15.0132C16.5159 15.0238 16.5076 15.0364 16.502 15.0503C16.4964 15.0642 16.4937 15.0791 16.494 15.094C16.494 15.156 16.545 15.208 16.607 15.207C16.669 15.207 16.718 15.155 16.719 15.094V15.086C16.7174 15.0574 16.705 15.0304 16.6841 15.0107C16.6633 14.991 16.6357 14.98 16.607 14.98ZM17.168 14.98C17.1532 14.9801 17.1386 14.9832 17.125 14.989C17.1114 14.9948 17.099 15.0033 17.0887 15.0139C17.0784 15.0245 17.0703 15.037 17.0648 15.0508C17.0594 15.0645 17.0567 15.0792 17.057 15.094C17.057 15.155 17.107 15.207 17.168 15.207C17.1979 15.2068 17.2265 15.1948 17.2476 15.1736C17.2687 15.1525 17.2807 15.1239 17.281 15.094V15.086C17.2794 15.0572 17.2668 15.0301 17.2458 15.0103C17.2247 14.9906 17.1968 14.9797 17.168 14.98ZM17.731 14.98C17.7161 14.98 17.7014 14.983 17.6876 14.9887C17.6739 14.9945 17.6615 15.0029 17.6511 15.0135C17.6406 15.0241 17.6324 15.0367 17.6269 15.0505C17.6214 15.0644 17.6187 15.0791 17.619 15.094C17.619 15.155 17.669 15.207 17.73 15.207C17.76 15.207 17.7889 15.1951 17.8102 15.174C17.8316 15.1528 17.8437 15.1241 17.844 15.094V15.086C17.8424 15.057 17.8297 15.0298 17.8084 15.01C17.7871 14.9902 17.759 14.9795 17.73 14.98H17.731ZM18.293 14.98C18.2782 14.9801 18.2636 14.9832 18.25 14.989C18.2364 14.9948 18.224 15.0033 18.2137 15.0139C18.2034 15.0245 18.1953 15.037 18.1898 15.0508C18.1844 15.0645 18.1817 15.0792 18.182 15.094C18.182 15.155 18.232 15.207 18.293 15.207C18.3229 15.2068 18.3515 15.1948 18.3726 15.1736C18.3937 15.1525 18.4057 15.1239 18.406 15.094V15.086C18.4044 15.0572 18.3918 15.0301 18.3708 15.0103C18.3497 14.9906 18.3218 14.9797 18.293 14.98ZM18.856 14.98C18.8411 14.98 18.8264 14.983 18.8126 14.9887C18.7989 14.9945 18.7865 15.0029 18.7761 15.0135C18.7656 15.0241 18.7574 15.0367 18.7519 15.0505C18.7464 15.0644 18.7437 15.0791 18.744 15.094C18.744 15.155 18.794 15.207 18.855 15.207C18.917 15.207 18.966 15.155 18.967 15.094V15.074C18.9631 15.0475 18.9497 15.0234 18.9292 15.0061C18.9088 14.9887 18.8828 14.9795 18.856 14.98ZM19.418 14.98C19.403 14.9799 19.3882 14.9827 19.3743 14.9884C19.3605 14.9941 19.3479 15.0025 19.3374 15.0132C19.3269 15.0238 19.3186 15.0364 19.313 15.0503C19.3074 15.0642 19.3047 15.0791 19.305 15.094C19.305 15.156 19.356 15.208 19.418 15.207C19.479 15.207 19.528 15.155 19.529 15.094V15.086C19.5274 15.0575 19.5151 15.0307 19.4945 15.011C19.4739 14.9913 19.4465 14.9802 19.418 14.98ZM19.981 14.98C19.9659 14.9797 19.951 14.9825 19.937 14.9881C19.9231 14.9938 19.9104 15.0022 19.8998 15.0128C19.8891 15.0234 19.8807 15.0361 19.8751 15.0501C19.8695 15.064 19.8667 15.079 19.867 15.094C19.867 15.156 19.919 15.208 19.98 15.207C20.042 15.207 20.091 15.155 20.092 15.094V15.086C20.0904 15.0575 20.0781 15.0307 20.0575 15.011C20.0369 14.9913 20.0095 14.9802 19.981 14.98ZM20.543 14.98C20.528 14.9799 20.5132 14.9827 20.4993 14.9884C20.4855 14.9941 20.4729 15.0025 20.4624 15.0132C20.4519 15.0238 20.4436 15.0364 20.438 15.0503C20.4324 15.0642 20.4297 15.0791 20.43 15.094C20.43 15.156 20.481 15.208 20.543 15.207C20.604 15.207 20.653 15.155 20.654 15.094V15.086C20.6524 15.0575 20.6401 15.0307 20.6195 15.011C20.5989 14.9913 20.5715 14.9802 20.543 14.98ZM21.106 14.98C21.0909 14.9797 21.076 14.9825 21.062 14.9881C21.0481 14.9938 21.0354 15.0022 21.0248 15.0128C21.0141 15.0234 21.0057 15.0361 21.0001 15.0501C20.9945 15.064 20.9917 15.079 20.992 15.094C20.992 15.156 21.044 15.208 21.105 15.207C21.167 15.207 21.216 15.155 21.217 15.094V15.086C21.2154 15.0575 21.2031 15.0307 21.1825 15.011C21.1619 14.9913 21.1345 14.9802 21.106 14.98ZM21.666 14.98C21.6512 14.9801 21.6366 14.9832 21.623 14.989C21.6094 14.9948 21.597 15.0033 21.5867 15.0139C21.5764 15.0245 21.5683 15.037 21.5628 15.0508C21.5574 15.0645 21.5547 15.0792 21.555 15.094C21.555 15.155 21.605 15.207 21.666 15.207C21.6959 15.2068 21.7245 15.1948 21.7456 15.1736C21.7667 15.1525 21.7787 15.1239 21.779 15.094V15.086C21.7774 15.0572 21.7648 15.0301 21.7438 15.0103C21.7227 14.9906 21.6948 14.9797 21.666 14.98ZM22.229 14.98C22.2141 14.98 22.1994 14.983 22.1856 14.9887C22.1719 14.9945 22.1595 15.0029 22.1491 15.0135C22.1386 15.0241 22.1304 15.0367 22.1249 15.0505C22.1194 15.0644 22.1167 15.0791 22.117 15.094C22.117 15.155 22.167 15.207 22.228 15.207C22.258 15.207 22.2869 15.1951 22.3082 15.174C22.3296 15.1528 22.3417 15.1241 22.342 15.094V15.086C22.3404 15.0572 22.3278 15.0301 22.3068 15.0103C22.2857 14.9906 22.2578 14.9797 22.229 14.98ZM22.791 14.98C22.7762 14.9801 22.7616 14.9832 22.748 14.989C22.7344 14.9948 22.722 15.0033 22.7117 15.0139C22.7014 15.0245 22.6933 15.037 22.6878 15.0508C22.6824 15.0645 22.6797 15.0792 22.68 15.094C22.68 15.155 22.73 15.206 22.791 15.207C22.853 15.207 22.904 15.157 22.904 15.094C22.9042 15.0791 22.9015 15.0642 22.8959 15.0503C22.8904 15.0364 22.8821 15.0238 22.8715 15.0132C22.861 15.0025 22.8485 14.9941 22.8346 14.9884C22.8208 14.9827 22.8059 14.9799 22.791 14.98ZM23.354 14.98C23.3391 14.98 23.3244 14.983 23.3106 14.9887C23.2969 14.9945 23.2845 15.0029 23.2741 15.0135C23.2636 15.0241 23.2554 15.0367 23.2499 15.0505C23.2444 15.0644 23.2417 15.0791 23.242 15.094C23.242 15.155 23.292 15.207 23.353 15.207C23.3827 15.2065 23.411 15.1944 23.4319 15.1733C23.4529 15.1522 23.4647 15.1237 23.465 15.094V15.074C23.4609 15.0476 23.4474 15.0236 23.427 15.0063C23.4066 14.989 23.3807 14.9797 23.354 14.98ZM23.916 14.98C23.901 14.9799 23.8862 14.9827 23.8723 14.9884C23.8585 14.9941 23.8459 15.0025 23.8354 15.0132C23.8249 15.0238 23.8166 15.0364 23.811 15.0503C23.8054 15.0642 23.8027 15.0791 23.803 15.094C23.803 15.156 23.854 15.208 23.916 15.207C23.977 15.207 24.026 15.155 24.027 15.094V15.074C24.0231 15.0475 24.0097 15.0234 23.9892 15.0061C23.9688 14.9887 23.9428 14.9795 23.916 14.98ZM24.479 14.98C24.4639 14.9797 24.449 14.9825 24.435 14.9881C24.4211 14.9938 24.4084 15.0022 24.3978 15.0128C24.3871 15.0234 24.3787 15.0361 24.3731 15.0501C24.3675 15.064 24.3647 15.079 24.365 15.094C24.365 15.156 24.417 15.208 24.479 15.207C24.539 15.207 24.589 15.155 24.589 15.094V15.086C24.5875 15.0577 24.5753 15.031 24.5549 15.0114C24.5344 14.9917 24.5073 14.9805 24.479 14.98ZM25.041 14.98C25.026 14.9799 25.0112 14.9827 24.9973 14.9884C24.9835 14.9941 24.9709 15.0025 24.9604 15.0132C24.9499 15.0238 24.9416 15.0364 24.936 15.0503C24.9304 15.0642 24.9277 15.0791 24.928 15.094C24.928 15.156 24.979 15.208 25.041 15.207C25.102 15.207 25.151 15.155 25.152 15.094V15.086C25.1505 15.0575 25.1381 15.0307 25.1175 15.011C25.0969 14.9913 25.0695 14.9802 25.041 14.98ZM25.601 14.98C25.5863 14.9803 25.5718 14.9834 25.5583 14.9893C25.5448 14.9952 25.5326 15.0036 25.5224 15.0142C25.5121 15.0248 25.5041 15.0373 25.4987 15.051C25.4933 15.0647 25.4907 15.0793 25.491 15.094C25.491 15.155 25.541 15.207 25.601 15.207C25.631 15.207 25.6599 15.1951 25.6812 15.174C25.7026 15.1528 25.7147 15.1241 25.715 15.094V15.086C25.7134 15.0572 25.7008 15.0301 25.6798 15.0103C25.6587 14.9906 25.6308 14.9797 25.602 14.98H25.601ZM26.164 14.98C26.1492 14.9801 26.1346 14.9832 26.121 14.989C26.1074 14.9948 26.095 15.0033 26.0847 15.0139C26.0744 15.0245 26.0663 15.037 26.0608 15.0508C26.0554 15.0645 26.0527 15.0792 26.053 15.094C26.053 15.155 26.103 15.207 26.164 15.207C26.1939 15.2068 26.2225 15.1948 26.2436 15.1736C26.2647 15.1525 26.2767 15.1239 26.277 15.094V15.086C26.2754 15.0572 26.2628 15.0301 26.2418 15.0103C26.2207 14.9906 26.1928 14.9797 26.164 14.98ZM26.727 14.98C26.7121 14.98 26.6974 14.983 26.6836 14.9887C26.6699 14.9945 26.6575 15.0029 26.6471 15.0135C26.6366 15.0241 26.6284 15.0367 26.6229 15.0505C26.6174 15.0644 26.6147 15.0791 26.615 15.094C26.615 15.155 26.665 15.207 26.727 15.207C26.7569 15.2068 26.7855 15.1948 26.8066 15.1736C26.8277 15.1525 26.8397 15.1239 26.84 15.094V15.086C26.8384 15.0572 26.8258 15.0301 26.8048 15.0103C26.7837 14.9906 26.7558 14.9797 26.727 14.98ZM27.289 14.98C27.2742 14.9801 27.2596 14.9832 27.246 14.989C27.2324 14.9948 27.22 15.0033 27.2097 15.0139C27.1994 15.0245 27.1913 15.037 27.1858 15.0508C27.1804 15.0645 27.1777 15.0792 27.178 15.094C27.178 15.155 27.228 15.206 27.289 15.207C27.351 15.207 27.402 15.157 27.402 15.094C27.4022 15.0791 27.3995 15.0642 27.3939 15.0503C27.3884 15.0364 27.3801 15.0238 27.3695 15.0132C27.359 15.0025 27.3464 14.9941 27.3326 14.9884C27.3188 14.9827 27.3039 14.9799 27.289 14.98ZM27.852 14.98C27.8371 14.98 27.8224 14.983 27.8086 14.9887C27.7949 14.9945 27.7825 15.0029 27.7721 15.0135C27.7616 15.0241 27.7534 15.0367 27.7479 15.0505C27.7424 15.0644 27.7397 15.0791 27.74 15.094C27.74 15.155 27.79 15.207 27.852 15.207C27.912 15.207 27.962 15.155 27.962 15.094C27.964 15.086 27.964 15.082 27.962 15.074C27.9581 15.0477 27.9448 15.0237 27.9246 15.0064C27.9044 14.9891 27.8786 14.9797 27.852 14.98ZM28.414 14.98C28.399 14.9799 28.3842 14.9827 28.3703 14.9884C28.3565 14.9941 28.3439 15.0025 28.3334 15.0132C28.3229 15.0238 28.3146 15.0364 28.309 15.0503C28.3034 15.0642 28.3007 15.0791 28.301 15.094C28.301 15.156 28.352 15.208 28.414 15.207C28.475 15.207 28.524 15.155 28.525 15.094V15.086C28.5235 15.0577 28.5113 15.031 28.4909 15.0114C28.4704 14.9917 28.4433 14.9805 28.415 14.98H28.414ZM28.977 14.98C28.9619 14.9797 28.947 14.9825 28.933 14.9881C28.9191 14.9938 28.9064 15.0022 28.8958 15.0128C28.8851 15.0234 28.8767 15.0361 28.8711 15.0501C28.8655 15.064 28.8627 15.079 28.863 15.094C28.863 15.156 28.915 15.208 28.977 15.207C29.037 15.207 29.087 15.155 29.087 15.094V15.086C29.0855 15.0577 29.0733 15.031 29.0529 15.0114C29.0324 14.9917 29.0053 14.9805 28.977 14.98ZM29.539 14.98C29.524 14.9799 29.5092 14.9827 29.4953 14.9884C29.4815 14.9941 29.4689 15.0025 29.4584 15.0132C29.4479 15.0238 29.4396 15.0364 29.434 15.0503C29.4284 15.0642 29.4257 15.0791 29.426 15.094C29.426 15.156 29.477 15.208 29.539 15.207C29.6 15.207 29.649 15.155 29.65 15.094V15.086C29.6485 15.0577 29.6363 15.031 29.6159 15.0114C29.5954 14.9917 29.5683 14.9805 29.54 14.98H29.539ZM30.099 14.98C30.0843 14.9803 30.0698 14.9834 30.0563 14.9893C30.0428 14.9952 30.0306 15.0036 30.0204 15.0142C30.0101 15.0248 30.0021 15.0373 29.9967 15.051C29.9913 15.0647 29.9887 15.0793 29.989 15.094C29.989 15.155 30.038 15.207 30.099 15.207C30.129 15.207 30.1579 15.1951 30.1792 15.174C30.2006 15.1528 30.2127 15.1241 30.213 15.094V15.086C30.2114 15.0572 30.1988 15.0301 30.1778 15.0103C30.1567 14.9906 30.1288 14.9797 30.1 14.98H30.099ZM30.662 14.98C30.6472 14.9801 30.6326 14.9832 30.619 14.989C30.6054 14.9948 30.593 15.0033 30.5827 15.0139C30.5724 15.0245 30.5643 15.037 30.5588 15.0508C30.5534 15.0645 30.5507 15.0792 30.551 15.094C30.551 15.155 30.601 15.207 30.662 15.207C30.6919 15.2068 30.7205 15.1948 30.7416 15.1736C30.7627 15.1525 30.7747 15.1239 30.775 15.094V15.086C30.7734 15.0572 30.7608 15.0301 30.7398 15.0103C30.7187 14.9906 30.6908 14.9797 30.662 14.98ZM31.225 14.98C31.2101 14.98 31.1954 14.983 31.1817 14.9887C31.1679 14.9945 31.1555 15.0029 31.1451 15.0135C31.1346 15.0241 31.1264 15.0367 31.1209 15.0505C31.1154 15.0644 31.1127 15.0791 31.113 15.094C31.113 15.155 31.163 15.207 31.225 15.207C31.2549 15.2068 31.2835 15.1948 31.3046 15.1736C31.3257 15.1525 31.3377 15.1239 31.338 15.094V15.086C31.3364 15.0572 31.3238 15.0301 31.3028 15.0103C31.2817 14.9906 31.2538 14.9797 31.225 14.98ZM31.787 14.98C31.7722 14.9801 31.7576 14.9832 31.744 14.989C31.7304 14.9948 31.718 15.0033 31.7077 15.0139C31.6974 15.0245 31.6893 15.037 31.6838 15.0508C31.6784 15.0645 31.6757 15.0792 31.676 15.094C31.676 15.155 31.726 15.207 31.787 15.207C31.848 15.207 31.897 15.155 31.898 15.094V15.074C31.8941 15.0477 31.8808 15.0237 31.8606 15.0064C31.8404 14.9891 31.8146 14.9797 31.788 14.98H31.787ZM32.35 14.98C32.3349 14.9797 32.32 14.9825 32.306 14.9881C32.2921 14.9938 32.2794 15.0022 32.2688 15.0128C32.2581 15.0234 32.2497 15.0361 32.2441 15.0501C32.2385 15.064 32.2357 15.079 32.236 15.094C32.236 15.156 32.288 15.208 32.35 15.207C32.41 15.207 32.46 15.155 32.46 15.094C32.462 15.086 32.462 15.082 32.46 15.074C32.4561 15.0477 32.4428 15.0237 32.4226 15.0064C32.4024 14.9891 32.3766 14.9797 32.35 14.98ZM32.912 14.98C32.897 14.9799 32.8822 14.9827 32.8683 14.9884C32.8545 14.9941 32.8419 15.0025 32.8314 15.0132C32.8209 15.0238 32.8126 15.0364 32.807 15.0503C32.8014 15.0642 32.7987 15.0791 32.799 15.094C32.799 15.156 32.85 15.208 32.912 15.207C32.973 15.207 33.022 15.155 33.023 15.094V15.086C33.0215 15.0577 33.0093 15.031 32.9889 15.0114C32.9684 14.9917 32.9413 14.9805 32.913 14.98H32.912ZM33.475 14.98C33.4599 14.9797 33.445 14.9825 33.431 14.9881C33.4171 14.9938 33.4044 15.0022 33.3938 15.0128C33.3831 15.0234 33.3747 15.0361 33.3691 15.0501C33.3635 15.064 33.3607 15.079 33.361 15.094C33.361 15.156 33.413 15.208 33.475 15.207C33.5043 15.206 33.5322 15.1937 33.5527 15.1726C33.5732 15.1516 33.5847 15.1234 33.585 15.094V15.086C33.5835 15.0577 33.5713 15.031 33.5509 15.0114C33.5304 14.9917 33.5033 14.9805 33.475 14.98ZM34.037 14.98C34.022 14.9799 34.0072 14.9827 33.9933 14.9884C33.9795 14.9941 33.9669 15.0025 33.9564 15.0132C33.9459 15.0238 33.9376 15.0364 33.932 15.0503C33.9264 15.0642 33.9237 15.0791 33.924 15.094C33.924 15.156 33.975 15.208 34.037 15.207C34.0665 15.2062 34.0946 15.194 34.1153 15.1729C34.136 15.1519 34.1477 15.1236 34.148 15.094V15.086C34.1465 15.0577 34.1343 15.031 34.1139 15.0114C34.0934 14.9917 34.0663 14.9805 34.038 14.98H34.037ZM34.597 14.98C34.5823 14.9803 34.5678 14.9834 34.5543 14.9893C34.5408 14.9952 34.5286 15.0036 34.5184 15.0142C34.5081 15.0248 34.5001 15.0373 34.4947 15.051C34.4893 15.0647 34.4867 15.0793 34.487 15.094C34.487 15.155 34.536 15.207 34.597 15.207C34.627 15.207 34.6559 15.1951 34.6772 15.174C34.6986 15.1528 34.7107 15.1241 34.711 15.094V15.086C34.7094 15.0572 34.6968 15.0301 34.6758 15.0103C34.6547 14.9906 34.6268 14.9797 34.598 14.98H34.597ZM16.213 18.143C15.9982 18.1354 15.7842 18.1712 15.5835 18.2481C15.3829 18.325 15.1998 18.4416 15.0452 18.5908C14.8906 18.7401 14.7677 18.9189 14.6837 19.1167C14.5997 19.3145 14.5564 19.5271 14.5564 19.742C14.5564 19.9569 14.5997 20.1696 14.6837 20.3674C14.7677 20.5651 14.8906 20.744 15.0452 20.8932C15.1998 21.0424 15.3829 21.159 15.5835 21.2359C15.7842 21.3129 15.9982 21.3486 16.213 21.341C16.6273 21.3264 17.0197 21.1515 17.3076 20.8532C17.5955 20.5549 17.7564 20.1566 17.7564 19.742C17.7564 19.3275 17.5955 18.9291 17.3076 18.6308C17.0197 18.3326 16.6273 18.1577 16.213 18.143ZM20.213 18.143C19.9982 18.1354 19.7842 18.1712 19.5835 18.2481C19.3829 18.325 19.1998 18.4416 19.0452 18.5908C18.8906 18.7401 18.7677 18.9189 18.6837 19.1167C18.5997 19.3145 18.5564 19.5271 18.5564 19.742C18.5564 19.9569 18.5997 20.1696 18.6837 20.3674C18.7677 20.5651 18.8906 20.744 19.0452 20.8932C19.1998 21.0424 19.3829 21.159 19.5835 21.2359C19.7842 21.3129 19.9982 21.3486 20.213 21.341C20.6273 21.3264 21.0197 21.1515 21.3076 20.8532C21.5955 20.5549 21.7564 20.1566 21.7564 19.742C21.7564 19.3275 21.5955 18.9291 21.3076 18.6308C21.0197 18.3326 20.6273 18.1577 20.213 18.143ZM24.213 18.143C23.9982 18.1354 23.7842 18.1712 23.5835 18.2481C23.3829 18.325 23.1998 18.4416 23.0452 18.5908C22.8906 18.7401 22.7677 18.9189 22.6837 19.1167C22.5997 19.3145 22.5564 19.5271 22.5564 19.742C22.5564 19.9569 22.5997 20.1696 22.6837 20.3674C22.7677 20.5651 22.8906 20.744 23.0452 20.8932C23.1998 21.0424 23.3829 21.159 23.5835 21.2359C23.7842 21.3129 23.9982 21.3486 24.213 21.341C24.6273 21.3264 25.0197 21.1515 25.3076 20.8532C25.5955 20.5549 25.7564 20.1566 25.7564 19.742C25.7564 19.3275 25.5955 18.9291 25.3076 18.6308C25.0197 18.3326 24.6273 18.1577 24.213 18.143ZM28.213 18.143C27.9982 18.1354 27.7842 18.1712 27.5835 18.2481C27.3829 18.325 27.1998 18.4416 27.0452 18.5908C26.8906 18.7401 26.7677 18.9189 26.6837 19.1167C26.5997 19.3145 26.5564 19.5271 26.5564 19.742C26.5564 19.9569 26.5997 20.1696 26.6837 20.3674C26.7677 20.5651 26.8906 20.744 27.0452 20.8932C27.1998 21.0424 27.3829 21.159 27.5835 21.2359C27.7842 21.3129 27.9982 21.3486 28.213 21.341C28.6273 21.3264 29.0197 21.1515 29.3076 20.8532C29.5955 20.5549 29.7564 20.1566 29.7564 19.742C29.7564 19.3275 29.5955 18.9291 29.3076 18.6308C29.0197 18.3326 28.6273 18.1577 28.213 18.143ZM32.213 18.143C31.9982 18.1354 31.7842 18.1712 31.5835 18.2481C31.3829 18.325 31.1998 18.4416 31.0452 18.5908C30.8906 18.7401 30.7677 18.9189 30.6837 19.1167C30.5997 19.3145 30.5564 19.5271 30.5564 19.742C30.5564 19.9569 30.5997 20.1696 30.6837 20.3674C30.7677 20.5651 30.8906 20.744 31.0452 20.8932C31.1998 21.0424 31.3829 21.159 31.5835 21.2359C31.7842 21.3129 31.9982 21.3486 32.213 21.341C32.6273 21.3264 33.0197 21.1515 33.3076 20.8532C33.5955 20.5549 33.7564 20.1566 33.7564 19.742C33.7564 19.3275 33.5955 18.9291 33.3076 18.6308C33.0197 18.3326 32.6273 18.1577 32.213 18.143ZM16.213 18.603C16.3624 18.6029 16.5103 18.6322 16.6484 18.6892C16.7864 18.7463 16.9119 18.8299 17.0176 18.9355C17.1233 19.041 17.2072 19.1663 17.2645 19.3043C17.3218 19.4422 17.3513 19.5901 17.3515 19.7395C17.3516 19.8889 17.3223 20.0368 17.2653 20.1749C17.2082 20.313 17.1246 20.4384 17.019 20.5441C16.9135 20.6499 16.7882 20.7338 16.6502 20.791C16.5122 20.8483 16.3644 20.8779 16.215 20.878C15.9134 20.8783 15.6241 20.7587 15.4107 20.5457C15.1973 20.3327 15.0772 20.0436 15.077 19.742C15.0767 19.4405 15.1962 19.1512 15.4093 18.9377C15.6223 18.7243 15.9114 18.6043 16.213 18.604V18.603ZM20.213 18.603C20.3624 18.6029 20.5103 18.6322 20.6484 18.6892C20.7864 18.7463 20.9119 18.8299 21.0176 18.9355C21.1233 19.041 21.2072 19.1663 21.2645 19.3043C21.3218 19.4422 21.3513 19.5901 21.3515 19.7395C21.3516 19.8889 21.3223 20.0368 21.2653 20.1749C21.2082 20.313 21.1246 20.4384 21.019 20.5441C20.9135 20.6499 20.7882 20.7338 20.6502 20.791C20.5122 20.8483 20.3644 20.8779 20.215 20.878C19.9134 20.8783 19.6241 20.7587 19.4107 20.5457C19.1973 20.3327 19.0772 20.0436 19.077 19.742C19.0767 19.4405 19.1962 19.1512 19.4093 18.9377C19.6223 18.7243 19.9114 18.6043 20.213 18.604V18.603ZM24.213 18.603C24.3624 18.6029 24.5103 18.6322 24.6484 18.6892C24.7864 18.7463 24.9119 18.8299 25.0176 18.9355C25.1233 19.041 25.2072 19.1663 25.2645 19.3043C25.3218 19.4422 25.3513 19.5901 25.3515 19.7395C25.3516 19.8889 25.3223 20.0368 25.2653 20.1749C25.2082 20.313 25.1246 20.4384 25.019 20.5441C24.9135 20.6499 24.7882 20.7338 24.6502 20.791C24.5122 20.8483 24.3644 20.8779 24.215 20.878C23.9134 20.8783 23.6241 20.7587 23.4107 20.5457C23.1973 20.3327 23.0772 20.0436 23.077 19.742C23.0767 19.4405 23.1962 19.1512 23.4093 18.9377C23.6223 18.7243 23.9114 18.6043 24.213 18.604V18.603ZM28.213 18.603C28.3624 18.6029 28.5103 18.6322 28.6484 18.6892C28.7864 18.7463 28.9119 18.8299 29.0176 18.9355C29.1233 19.041 29.2072 19.1663 29.2645 19.3043C29.3218 19.4422 29.3513 19.5901 29.3515 19.7395C29.3516 19.8889 29.3223 20.0368 29.2653 20.1749C29.2082 20.313 29.1246 20.4384 29.019 20.5441C28.9135 20.6499 28.7882 20.7338 28.6502 20.791C28.5122 20.8483 28.3644 20.8779 28.215 20.878C28.0657 20.8781 27.9178 20.8489 27.7798 20.7919C27.6418 20.7348 27.5164 20.6512 27.4107 20.5457C27.305 20.4402 27.2212 20.3149 27.1639 20.1771C27.1066 20.0392 27.0771 19.8913 27.077 19.742C27.0768 19.5927 27.1061 19.4448 27.1631 19.3068C27.2202 19.1688 27.3038 19.0434 27.4093 18.9377C27.5148 18.8321 27.64 18.7482 27.7779 18.6909C27.9158 18.6337 28.0637 18.6041 28.213 18.604V18.603ZM32.213 18.603C32.3624 18.6029 32.5103 18.6322 32.6484 18.6892C32.7864 18.7463 32.9119 18.8299 33.0176 18.9355C33.1233 19.041 33.2072 19.1663 33.2645 19.3043C33.3218 19.4422 33.3513 19.5901 33.3515 19.7395C33.3516 19.8889 33.3223 20.0368 33.2653 20.1749C33.2082 20.313 33.1246 20.4384 33.019 20.5441C32.9135 20.6499 32.7882 20.7338 32.6502 20.791C32.5122 20.8483 32.3644 20.8779 32.215 20.878C31.9134 20.8783 31.6241 20.7587 31.4107 20.5457C31.1973 20.3327 31.0772 20.0436 31.077 19.742C31.0767 19.4405 31.1962 19.1512 31.4093 18.9377C31.6223 18.7243 31.9114 18.6043 32.213 18.604V18.603ZM13.795 23.98C13.7802 23.9801 13.7656 23.9832 13.752 23.989C13.7384 23.9948 13.726 24.0033 13.7157 24.0139C13.7054 24.0245 13.6973 24.037 13.6918 24.0508C13.6864 24.0645 13.6837 24.0792 13.684 24.094C13.684 24.155 13.734 24.206 13.794 24.207C13.857 24.207 13.907 24.157 13.908 24.094C13.9082 24.0791 13.9055 24.0642 13.8999 24.0503C13.8944 24.0364 13.8861 24.0238 13.8755 24.0132C13.865 24.0025 13.8525 23.9941 13.8386 23.9884C13.8248 23.9827 13.8099 23.9799 13.795 23.98ZM14.357 23.98C14.3269 23.9803 14.2982 23.9924 14.277 24.0138C14.2558 24.0351 14.244 24.064 14.244 24.094C14.244 24.155 14.296 24.207 14.357 24.207C14.419 24.207 14.468 24.155 14.469 24.094V24.074C14.4651 24.0473 14.4515 24.023 14.4309 24.0057C14.4102 23.9884 14.3839 23.9792 14.357 23.98ZM14.92 23.98C14.905 23.9799 14.8902 23.9827 14.8763 23.9884C14.8625 23.9941 14.8499 24.0025 14.8394 24.0132C14.8289 24.0238 14.8206 24.0364 14.815 24.0503C14.8094 24.0642 14.8067 24.0791 14.807 24.094C14.807 24.156 14.857 24.208 14.92 24.207C14.981 24.207 15.03 24.155 15.031 24.094V24.074C15.0271 24.0475 15.0137 24.0234 14.9932 24.0061C14.9728 23.9887 14.9468 23.9795 14.92 23.98ZM15.482 23.98C15.467 23.9799 15.4522 23.9827 15.4383 23.9884C15.4245 23.9941 15.4119 24.0025 15.4014 24.0132C15.3909 24.0238 15.3826 24.0364 15.377 24.0503C15.3714 24.0642 15.3687 24.0791 15.369 24.094C15.369 24.156 15.42 24.208 15.482 24.207C15.544 24.207 15.593 24.155 15.594 24.094V24.086C15.5922 24.0575 15.5796 24.0308 15.5588 24.0113C15.538 23.9918 15.5105 23.981 15.482 23.981V23.98ZM16.045 23.98C16.03 23.9799 16.0152 23.9827 16.0013 23.9884C15.9875 23.9941 15.9749 24.0025 15.9644 24.0132C15.9539 24.0238 15.9456 24.0364 15.94 24.0503C15.9344 24.0642 15.9317 24.0791 15.932 24.094C15.932 24.156 15.982 24.208 16.045 24.207C16.106 24.207 16.155 24.155 16.156 24.094V24.086C16.1542 24.0577 16.1418 24.0311 16.1212 24.0117C16.1006 23.9922 16.0733 23.9812 16.045 23.981V23.98ZM16.607 23.98C16.592 23.9799 16.5772 23.9827 16.5633 23.9884C16.5495 23.9941 16.5369 24.0025 16.5264 24.0132C16.5159 24.0238 16.5076 24.0364 16.502 24.0503C16.4964 24.0642 16.4937 24.0791 16.494 24.094C16.494 24.156 16.545 24.208 16.607 24.207C16.669 24.207 16.718 24.155 16.719 24.094V24.086C16.7172 24.0575 16.7046 24.0308 16.6838 24.0113C16.663 23.9918 16.6355 23.981 16.607 23.981V23.98ZM17.168 23.98C17.1532 23.9801 17.1386 23.9832 17.125 23.989C17.1114 23.9948 17.099 24.0033 17.0887 24.0139C17.0784 24.0245 17.0703 24.037 17.0648 24.0508C17.0594 24.0645 17.0567 24.0792 17.057 24.094C17.057 24.155 17.107 24.207 17.168 24.207C17.1979 24.2068 17.2265 24.1948 17.2476 24.1736C17.2687 24.1525 17.2807 24.1239 17.281 24.094V24.086C17.2792 24.0574 17.2665 24.0305 17.2454 24.011C17.2244 23.9914 17.1967 23.9807 17.168 23.981V23.98ZM17.731 23.98C17.7161 23.98 17.7014 23.983 17.6876 23.9887C17.6739 23.9945 17.6615 24.0029 17.6511 24.0135C17.6406 24.0241 17.6324 24.0367 17.6269 24.0505C17.6214 24.0644 17.6187 24.0791 17.619 24.094C17.619 24.155 17.669 24.207 17.73 24.207C17.76 24.207 17.7889 24.1951 17.8102 24.174C17.8316 24.1528 17.8437 24.1241 17.844 24.094V24.086C17.8422 24.0572 17.8293 24.0302 17.8081 24.0106C17.7868 23.991 17.7589 23.9804 17.73 23.981L17.731 23.98ZM18.293 23.98C18.2782 23.9801 18.2636 23.9832 18.25 23.989C18.2364 23.9948 18.224 24.0033 18.2137 24.0139C18.2034 24.0245 18.1953 24.037 18.1898 24.0508C18.1844 24.0645 18.1817 24.0792 18.182 24.094C18.182 24.155 18.232 24.207 18.293 24.207C18.3229 24.2068 18.3515 24.1948 18.3726 24.1736C18.3937 24.1525 18.4057 24.1239 18.406 24.094V24.086C18.4042 24.0574 18.3915 24.0305 18.3704 24.011C18.3494 23.9914 18.3217 23.9807 18.293 23.981V23.98ZM18.856 23.98C18.8411 23.98 18.8264 23.983 18.8126 23.9887C18.7989 23.9945 18.7865 24.0029 18.7761 24.0135C18.7656 24.0241 18.7574 24.0367 18.7519 24.0505C18.7464 24.0644 18.7437 24.0791 18.744 24.094C18.744 24.155 18.794 24.207 18.855 24.207C18.917 24.207 18.966 24.155 18.967 24.094V24.074C18.9631 24.0475 18.9497 24.0234 18.9292 24.0061C18.9088 23.9887 18.8828 23.9795 18.856 23.98ZM19.418 23.98C19.403 23.9799 19.3882 23.9827 19.3743 23.9884C19.3605 23.9941 19.3479 24.0025 19.3374 24.0132C19.3269 24.0238 19.3186 24.0364 19.313 24.0503C19.3074 24.0642 19.3047 24.0791 19.305 24.094C19.305 24.156 19.356 24.208 19.418 24.207C19.479 24.207 19.528 24.155 19.529 24.094V24.086C19.5272 24.0577 19.5148 24.0311 19.4942 24.0117C19.4736 23.9922 19.4463 23.9812 19.418 23.981V23.98ZM19.981 23.98C19.9659 23.9797 19.951 23.9825 19.937 23.9881C19.9231 23.9938 19.9104 24.0022 19.8998 24.0128C19.8891 24.0234 19.8807 24.0361 19.8751 24.0501C19.8695 24.064 19.8667 24.079 19.867 24.094C19.867 24.156 19.919 24.208 19.98 24.207C20.042 24.207 20.091 24.155 20.092 24.094V24.086C20.0902 24.0577 20.0778 24.0311 20.0572 24.0117C20.0366 23.9922 20.0093 23.9812 19.981 23.981V23.98ZM20.543 23.98C20.528 23.9799 20.5132 23.9827 20.4993 23.9884C20.4855 23.9941 20.4729 24.0025 20.4624 24.0132C20.4519 24.0238 20.4436 24.0364 20.438 24.0503C20.4324 24.0642 20.4297 24.0791 20.43 24.094C20.43 24.156 20.481 24.208 20.543 24.207C20.604 24.207 20.653 24.155 20.654 24.094V24.086C20.6522 24.0577 20.6398 24.0311 20.6192 24.0117C20.5986 23.9922 20.5713 23.9812 20.543 23.981V23.98ZM21.106 23.98C21.0909 23.9797 21.076 23.9825 21.062 23.9881C21.0481 23.9938 21.0354 24.0022 21.0248 24.0128C21.0141 24.0234 21.0057 24.0361 21.0001 24.0501C20.9945 24.064 20.9917 24.079 20.992 24.094C20.992 24.156 21.044 24.208 21.105 24.207C21.167 24.207 21.216 24.155 21.217 24.094V24.086C21.2152 24.0577 21.2028 24.0311 21.1822 24.0117C21.1616 23.9922 21.1343 23.9812 21.106 23.981V23.98ZM21.666 23.98C21.6512 23.9801 21.6366 23.9832 21.623 23.989C21.6094 23.9948 21.597 24.0033 21.5867 24.0139C21.5764 24.0245 21.5683 24.037 21.5628 24.0508C21.5574 24.0645 21.5547 24.0792 21.555 24.094C21.555 24.155 21.605 24.207 21.666 24.207C21.6959 24.2068 21.7245 24.1948 21.7456 24.1736C21.7667 24.1525 21.7787 24.1239 21.779 24.094V24.086C21.7772 24.0574 21.7645 24.0305 21.7434 24.011C21.7224 23.9914 21.6947 23.9807 21.666 23.981V23.98ZM22.229 23.98C22.2141 23.98 22.1994 23.983 22.1856 23.9887C22.1719 23.9945 22.1595 24.0029 22.1491 24.0135C22.1386 24.0241 22.1304 24.0367 22.1249 24.0505C22.1194 24.0644 22.1167 24.0791 22.117 24.094C22.117 24.155 22.167 24.207 22.228 24.207C22.258 24.207 22.2869 24.1951 22.3082 24.174C22.3296 24.1528 22.3417 24.1241 22.342 24.094V24.086C22.3402 24.0574 22.3275 24.0305 22.3064 24.011C22.2854 23.9914 22.2577 23.9807 22.229 23.981V23.98ZM22.791 23.98C22.7762 23.9801 22.7616 23.9832 22.748 23.989C22.7344 23.9948 22.722 24.0033 22.7117 24.0139C22.7014 24.0245 22.6933 24.037 22.6878 24.0508C22.6824 24.0645 22.6797 24.0792 22.68 24.094C22.68 24.155 22.73 24.206 22.791 24.207C22.853 24.207 22.904 24.157 22.904 24.094C22.9042 24.0791 22.9015 24.0642 22.8959 24.0503C22.8904 24.0364 22.8821 24.0238 22.8715 24.0132C22.861 24.0025 22.8485 23.9941 22.8346 23.9884C22.8208 23.9827 22.8059 23.9799 22.791 23.98ZM23.354 23.98C23.3391 23.98 23.3244 23.983 23.3106 23.9887C23.2969 23.9945 23.2845 24.0029 23.2741 24.0135C23.2636 24.0241 23.2554 24.0367 23.2499 24.0505C23.2444 24.0644 23.2417 24.0791 23.242 24.094C23.242 24.155 23.292 24.207 23.353 24.207C23.3827 24.2065 23.411 24.1944 23.4319 24.1733C23.4529 24.1522 23.4647 24.1237 23.465 24.094V24.074C23.4609 24.0476 23.4474 24.0236 23.427 24.0063C23.4066 23.989 23.3807 23.9797 23.354 23.98ZM23.916 23.98C23.901 23.9799 23.8862 23.9827 23.8723 23.9884C23.8585 23.9941 23.8459 24.0025 23.8354 24.0132C23.8249 24.0238 23.8166 24.0364 23.811 24.0503C23.8054 24.0642 23.8027 24.0791 23.803 24.094C23.803 24.156 23.854 24.208 23.916 24.207C23.977 24.207 24.026 24.155 24.027 24.094V24.074C24.0231 24.0475 24.0097 24.0234 23.9892 24.0061C23.9688 23.9887 23.9428 23.9795 23.916 23.98ZM24.479 23.98C24.4639 23.9797 24.449 23.9825 24.435 23.9881C24.4211 23.9938 24.4084 24.0022 24.3978 24.0128C24.3871 24.0234 24.3787 24.0361 24.3731 24.0501C24.3675 24.064 24.3647 24.079 24.365 24.094C24.365 24.156 24.417 24.208 24.479 24.207C24.539 24.207 24.589 24.155 24.589 24.094V24.086C24.5872 24.0579 24.5749 24.0315 24.5545 24.012C24.5341 23.9925 24.5072 23.9815 24.479 23.981V23.98ZM25.041 23.98C25.026 23.9799 25.0112 23.9827 24.9973 23.9884C24.9835 23.9941 24.9709 24.0025 24.9604 24.0132C24.9499 24.0238 24.9416 24.0364 24.936 24.0503C24.9304 24.0642 24.9277 24.0791 24.928 24.094C24.928 24.156 24.979 24.208 25.041 24.207C25.102 24.207 25.151 24.155 25.152 24.094V24.086C25.1502 24.0577 25.1378 24.0311 25.1172 24.0117C25.0966 23.9922 25.0693 23.9812 25.041 23.981V23.98ZM25.601 23.98C25.5863 23.9803 25.5718 23.9834 25.5583 23.9893C25.5448 23.9952 25.5326 24.0036 25.5224 24.0142C25.5121 24.0248 25.5041 24.0373 25.4987 24.051C25.4933 24.0647 25.4907 24.0793 25.491 24.094C25.491 24.155 25.541 24.207 25.601 24.207C25.631 24.207 25.6599 24.1951 25.6812 24.174C25.7026 24.1528 25.7147 24.1241 25.715 24.094V24.086C25.7132 24.0574 25.7005 24.0305 25.6794 24.011C25.6584 23.9914 25.6307 23.9807 25.602 23.981L25.601 23.98ZM26.164 23.98C26.1492 23.9801 26.1346 23.9832 26.121 23.989C26.1074 23.9948 26.095 24.0033 26.0847 24.0139C26.0744 24.0245 26.0663 24.037 26.0608 24.0508C26.0554 24.0645 26.0527 24.0792 26.053 24.094C26.053 24.155 26.103 24.207 26.164 24.207C26.1939 24.2068 26.2225 24.1948 26.2436 24.1736C26.2647 24.1525 26.2767 24.1239 26.277 24.094V24.086C26.2752 24.0574 26.2625 24.0305 26.2414 24.011C26.2204 23.9914 26.1927 23.9807 26.164 23.981V23.98ZM26.727 23.98C26.7121 23.98 26.6974 23.983 26.6836 23.9887C26.6699 23.9945 26.6575 24.0029 26.6471 24.0135C26.6366 24.0241 26.6284 24.0367 26.6229 24.0505C26.6174 24.0644 26.6147 24.0791 26.615 24.094C26.615 24.155 26.665 24.207 26.727 24.207C26.7569 24.2068 26.7855 24.1948 26.8066 24.1736C26.8277 24.1525 26.8397 24.1239 26.84 24.094V24.086C26.8382 24.0574 26.8255 24.0305 26.8044 24.011C26.7834 23.9914 26.7557 23.9807 26.727 23.981V23.98ZM27.289 23.98C27.2742 23.9801 27.2596 23.9832 27.246 23.989C27.2324 23.9948 27.22 24.0033 27.2097 24.0139C27.1994 24.0245 27.1913 24.037 27.1858 24.0508C27.1804 24.0645 27.1777 24.0792 27.178 24.094C27.178 24.155 27.228 24.206 27.289 24.207C27.351 24.207 27.402 24.157 27.402 24.094C27.4022 24.0791 27.3995 24.0642 27.3939 24.0503C27.3884 24.0364 27.3801 24.0238 27.3695 24.0132C27.359 24.0025 27.3464 23.9941 27.3326 23.9884C27.3188 23.9827 27.3039 23.9799 27.289 23.98ZM27.852 23.98C27.8371 23.98 27.8224 23.983 27.8086 23.9887C27.7949 23.9945 27.7825 24.0029 27.7721 24.0135C27.7616 24.0241 27.7534 24.0367 27.7479 24.0505C27.7424 24.0644 27.7397 24.0791 27.74 24.094C27.74 24.155 27.79 24.207 27.852 24.207C27.912 24.207 27.962 24.155 27.962 24.094C27.964 24.086 27.964 24.082 27.962 24.074C27.9581 24.0477 27.9448 24.0237 27.9246 24.0064C27.9044 23.9891 27.8786 23.9797 27.852 23.98ZM28.414 23.98C28.399 23.9799 28.3842 23.9827 28.3703 23.9884C28.3565 23.9941 28.3439 24.0025 28.3334 24.0132C28.3229 24.0238 28.3146 24.0364 28.309 24.0503C28.3034 24.0642 28.3007 24.0791 28.301 24.094C28.301 24.156 28.352 24.208 28.414 24.207C28.475 24.207 28.524 24.155 28.525 24.094V24.086C28.5232 24.0579 28.5109 24.0315 28.4905 24.012C28.4701 23.9925 28.4432 23.9815 28.415 23.981L28.414 23.98ZM28.977 23.98C28.9619 23.9797 28.947 23.9825 28.933 23.9881C28.9191 23.9938 28.9064 24.0022 28.8958 24.0128C28.8851 24.0234 28.8767 24.0361 28.8711 24.0501C28.8655 24.064 28.8627 24.079 28.863 24.094C28.863 24.156 28.915 24.208 28.977 24.207C29.037 24.207 29.087 24.155 29.087 24.094V24.086C29.0852 24.0579 29.0729 24.0315 29.0525 24.012C29.0321 23.9925 29.0052 23.9815 28.977 23.981V23.98ZM29.539 23.98C29.524 23.9799 29.5092 23.9827 29.4953 23.9884C29.4815 23.9941 29.4689 24.0025 29.4584 24.0132C29.4479 24.0238 29.4396 24.0364 29.434 24.0503C29.4284 24.0642 29.4257 24.0791 29.426 24.094C29.426 24.156 29.477 24.208 29.539 24.207C29.6 24.207 29.649 24.155 29.65 24.094V24.086C29.6482 24.0579 29.6359 24.0315 29.6155 24.012C29.5951 23.9925 29.5682 23.9815 29.54 23.981L29.539 23.98ZM30.099 23.98C30.0843 23.9803 30.0698 23.9834 30.0563 23.9893C30.0428 23.9952 30.0306 24.0036 30.0204 24.0142C30.0101 24.0248 30.0021 24.0373 29.9967 24.051C29.9913 24.0647 29.9887 24.0793 29.989 24.094C29.989 24.155 30.038 24.207 30.099 24.207C30.129 24.207 30.1579 24.1951 30.1792 24.174C30.2006 24.1528 30.2127 24.1241 30.213 24.094V24.086C30.2112 24.0574 30.1985 24.0305 30.1774 24.011C30.1564 23.9914 30.1287 23.9807 30.1 23.981L30.099 23.98ZM30.662 23.98C30.6472 23.9801 30.6326 23.9832 30.619 23.989C30.6054 23.9948 30.593 24.0033 30.5827 24.0139C30.5724 24.0245 30.5643 24.037 30.5588 24.0508C30.5534 24.0645 30.5507 24.0792 30.551 24.094C30.551 24.155 30.601 24.207 30.662 24.207C30.6919 24.2068 30.7205 24.1948 30.7416 24.1736C30.7627 24.1525 30.7747 24.1239 30.775 24.094V24.086C30.7732 24.0574 30.7605 24.0305 30.7394 24.011C30.7184 23.9914 30.6907 23.9807 30.662 23.981V23.98ZM31.225 23.98C31.2101 23.98 31.1954 23.983 31.1817 23.9887C31.1679 23.9945 31.1555 24.0029 31.1451 24.0135C31.1346 24.0241 31.1264 24.0367 31.1209 24.0505C31.1154 24.0644 31.1127 24.0791 31.113 24.094C31.113 24.155 31.163 24.207 31.225 24.207C31.2549 24.2068 31.2835 24.1948 31.3046 24.1736C31.3257 24.1525 31.3377 24.1239 31.338 24.094V24.086C31.3362 24.0574 31.3235 24.0305 31.3024 24.011C31.2814 23.9914 31.2537 23.9807 31.225 23.981V23.98ZM31.787 23.98C31.7722 23.9801 31.7576 23.9832 31.744 23.989C31.7304 23.9948 31.718 24.0033 31.7077 24.0139C31.6974 24.0245 31.6893 24.037 31.6838 24.0508C31.6784 24.0645 31.6757 24.0792 31.676 24.094C31.676 24.155 31.726 24.207 31.787 24.207C31.848 24.207 31.897 24.155 31.898 24.094V24.074C31.8941 24.0477 31.8808 24.0237 31.8606 24.0064C31.8404 23.9891 31.8146 23.9797 31.788 23.98H31.787ZM32.35 23.98C32.3349 23.9797 32.32 23.9825 32.306 23.9881C32.2921 23.9938 32.2794 24.0022 32.2688 24.0128C32.2581 24.0234 32.2497 24.0361 32.2441 24.0501C32.2385 24.064 32.2357 24.079 32.236 24.094C32.236 24.156 32.288 24.208 32.35 24.207C32.41 24.207 32.46 24.155 32.46 24.094C32.462 24.086 32.462 24.082 32.46 24.074C32.4561 24.0477 32.4428 24.0237 32.4226 24.0064C32.4024 23.9891 32.3766 23.9797 32.35 23.98ZM32.912 23.98C32.897 23.9799 32.8822 23.9827 32.8683 23.9884C32.8545 23.9941 32.8419 24.0025 32.8314 24.0132C32.8209 24.0238 32.8126 24.0364 32.807 24.0503C32.8014 24.0642 32.7987 24.0791 32.799 24.094C32.799 24.156 32.85 24.208 32.912 24.207C32.973 24.207 33.022 24.155 33.023 24.094V24.086C33.0212 24.0579 33.0089 24.0315 32.9885 24.012C32.9681 23.9925 32.9412 23.9815 32.913 23.981L32.912 23.98ZM33.475 23.98C33.4599 23.9797 33.445 23.9825 33.431 23.9881C33.4171 23.9938 33.4044 24.0022 33.3938 24.0128C33.3831 24.0234 33.3747 24.0361 33.3691 24.0501C33.3635 24.064 33.3607 24.079 33.361 24.094C33.361 24.156 33.413 24.208 33.475 24.207C33.5043 24.206 33.5322 24.1937 33.5527 24.1726C33.5732 24.1516 33.5847 24.1234 33.585 24.094V24.086C33.5832 24.0579 33.5709 24.0315 33.5505 24.012C33.5301 23.9925 33.5032 23.9815 33.475 23.981V23.98ZM34.037 23.98C34.022 23.9799 34.0072 23.9827 33.9933 23.9884C33.9795 23.9941 33.9669 24.0025 33.9564 24.0132C33.9459 24.0238 33.9376 24.0364 33.932 24.0503C33.9264 24.0642 33.9237 24.0791 33.924 24.094C33.924 24.156 33.975 24.208 34.037 24.207C34.0665 24.2062 34.0946 24.194 34.1153 24.1729C34.136 24.1519 34.1477 24.1236 34.148 24.094V24.086C34.1462 24.0579 34.1339 24.0315 34.1135 24.012C34.0931 23.9925 34.0662 23.9815 34.038 23.981L34.037 23.98ZM34.597 23.98C34.5823 23.9803 34.5678 23.9834 34.5543 23.9893C34.5408 23.9952 34.5286 24.0036 34.5184 24.0142C34.5081 24.0248 34.5001 24.0373 34.4947 24.051C34.4893 24.0647 34.4867 24.0793 34.487 24.094C34.487 24.155 34.536 24.207 34.597 24.207C34.627 24.207 34.6559 24.1951 34.6772 24.174C34.6986 24.1528 34.7107 24.1241 34.711 24.094V24.086C34.7092 24.0574 34.6965 24.0305 34.6754 24.011C34.6544 23.9914 34.6267 23.9807 34.598 23.981L34.597 23.98ZM16.213 26.81C15.7886 26.81 15.3817 26.9786 15.0816 27.2786C14.7815 27.5787 14.613 27.9857 14.613 28.41C14.613 28.8344 14.7815 29.2413 15.0816 29.5414C15.3817 29.8414 15.7886 30.01 16.213 30.01C16.6373 30.01 17.0443 29.8414 17.3443 29.5414C17.6444 29.2413 17.813 28.8344 17.813 28.41C17.813 27.9857 17.6444 27.5787 17.3443 27.2786C17.0443 26.9786 16.6373 26.81 16.213 26.81ZM20.213 26.81C19.7886 26.81 19.3817 26.9786 19.0816 27.2786C18.7815 27.5787 18.613 27.9857 18.613 28.41C18.613 28.8344 18.7815 29.2413 19.0816 29.5414C19.3817 29.8414 19.7886 30.01 20.213 30.01C20.6373 30.01 21.0443 29.8414 21.3443 29.5414C21.6444 29.2413 21.813 28.8344 21.813 28.41C21.813 27.9857 21.6444 27.5787 21.3443 27.2786C21.0443 26.9786 20.6373 26.81 20.213 26.81ZM24.213 26.81C23.7886 26.81 23.3817 26.9786 23.0816 27.2786C22.7815 27.5787 22.613 27.9857 22.613 28.41C22.613 28.8344 22.7815 29.2413 23.0816 29.5414C23.3817 29.8414 23.7886 30.01 24.213 30.01C24.6373 30.01 25.0443 29.8414 25.3443 29.5414C25.6444 29.2413 25.813 28.8344 25.813 28.41C25.813 27.9857 25.6444 27.5787 25.3443 27.2786C25.0443 26.9786 24.6373 26.81 24.213 26.81ZM28.213 26.81C27.7886 26.81 27.3817 26.9786 27.0816 27.2786C26.7815 27.5787 26.613 27.9857 26.613 28.41C26.613 28.8344 26.7815 29.2413 27.0816 29.5414C27.3817 29.8414 27.7886 30.01 28.213 30.01C28.6373 30.01 29.0443 29.8414 29.3443 29.5414C29.6444 29.2413 29.813 28.8344 29.813 28.41C29.813 27.9857 29.6444 27.5787 29.3443 27.2786C29.0443 26.9786 28.6373 26.81 28.213 26.81ZM32.213 26.81C31.7886 26.81 31.3817 26.9786 31.0816 27.2786C30.7815 27.5787 30.613 27.9857 30.613 28.41C30.613 28.8344 30.7815 29.2413 31.0816 29.5414C31.3817 29.8414 31.7886 30.01 32.213 30.01C32.6373 30.01 33.0443 29.8414 33.3443 29.5414C33.6444 29.2413 33.813 28.8344 33.813 28.41C33.813 27.9857 33.6444 27.5787 33.3443 27.2786C33.0443 26.9786 32.6373 26.81 32.213 26.81ZM16.213 27.272C16.5145 27.2718 16.8038 27.3913 17.0173 27.6043C17.2307 27.8174 17.3507 28.1065 17.351 28.408C17.3512 28.7096 17.2317 28.9989 17.0187 29.2123C16.8056 29.4257 16.5165 29.5458 16.215 29.546C15.9134 29.5463 15.6241 29.4267 15.4107 29.2137C15.1973 29.0007 15.0772 28.7116 15.077 28.41C15.0767 28.1085 15.1962 27.8192 15.4093 27.6057C15.6223 27.3923 15.9114 27.2723 16.213 27.272ZM20.213 27.272C20.3623 27.2719 20.5102 27.3012 20.6482 27.3582C20.7862 27.4152 20.9116 27.4988 21.0173 27.6043C21.1229 27.7098 21.2068 27.8351 21.264 27.973C21.3213 28.1109 21.3508 28.2587 21.351 28.408C21.3511 28.5573 21.3218 28.7052 21.2648 28.8432C21.2078 28.9812 21.1242 29.1066 21.0187 29.2123C20.9132 29.318 20.7879 29.4018 20.65 29.4591C20.5121 29.5163 20.3643 29.5459 20.215 29.546C19.9134 29.5463 19.6241 29.4267 19.4107 29.2137C19.1973 29.0007 19.0772 28.7116 19.077 28.41C19.0767 28.1085 19.1962 27.8192 19.4093 27.6057C19.6223 27.3923 19.9114 27.2723 20.213 27.272ZM24.213 27.272C24.5145 27.2718 24.8038 27.3913 25.0173 27.6043C25.2307 27.8174 25.3507 28.1065 25.351 28.408C25.3512 28.7096 25.2317 28.9989 25.0187 29.2123C24.8056 29.4257 24.5165 29.5458 24.215 29.546C23.9134 29.5463 23.6241 29.4267 23.4107 29.2137C23.1973 29.0007 23.0772 28.7116 23.077 28.41C23.0767 28.1085 23.1962 27.8192 23.4093 27.6057C23.6223 27.3923 23.9114 27.2723 24.213 27.272ZM28.213 27.272C28.5145 27.2718 28.8038 27.3913 29.0173 27.6043C29.2307 27.8174 29.3507 28.1065 29.351 28.408C29.3512 28.7096 29.2317 28.9989 29.0187 29.2123C28.8056 29.4257 28.5165 29.5458 28.215 29.546C28.0657 29.5461 27.9178 29.5169 27.7798 29.4599C27.6418 29.4028 27.5164 29.3192 27.4107 29.2137C27.305 29.1082 27.2212 28.983 27.1639 28.8451C27.1066 28.7072 27.0771 28.5593 27.077 28.41C27.0768 28.2607 27.1061 28.1128 27.1631 27.9748C27.2202 27.8368 27.3038 27.7114 27.4093 27.6057C27.5148 27.5001 27.64 27.4162 27.7779 27.3589C27.9158 27.3017 28.0637 27.2721 28.213 27.272ZM32.213 27.272C32.5145 27.2718 32.8038 27.3913 33.0173 27.6043C33.2307 27.8174 33.3507 28.1065 33.351 28.408C33.3512 28.7096 33.2317 28.9989 33.0187 29.2123C32.8056 29.4257 32.5165 29.5458 32.215 29.546C31.9134 29.5463 31.6241 29.4267 31.4107 29.2137C31.1973 29.0007 31.0772 28.7116 31.077 28.41C31.0767 28.1085 31.1962 27.8192 31.4093 27.6057C31.6223 27.3923 31.9114 27.2723 32.213 27.272ZM13.795 32.98C13.7803 32.9801 13.7657 32.9832 13.7522 32.9889C13.7387 32.9947 13.7264 33.003 13.7161 33.0135C13.7058 33.024 13.6976 33.0364 13.6921 33.0501C13.6866 33.0637 13.6838 33.0783 13.684 33.093C13.684 33.154 13.734 33.205 13.794 33.206C13.857 33.206 13.907 33.156 13.908 33.093C13.9082 33.0781 13.9055 33.0632 13.8999 33.0493C13.8944 33.0354 13.8861 33.0228 13.8755 33.0122C13.865 33.0015 13.8525 32.9931 13.8386 32.9874C13.8248 32.9817 13.8099 32.9789 13.795 32.979V32.98ZM14.357 32.98C14.3271 32.9803 14.2985 32.9923 14.2774 33.0134C14.2562 33.0345 14.2442 33.0631 14.244 33.093C14.244 33.154 14.296 33.206 14.357 33.206C14.419 33.206 14.468 33.154 14.469 33.093V33.073C14.4648 33.0465 14.4512 33.0225 14.4306 33.0053C14.4099 32.9882 14.3838 32.9792 14.357 32.98ZM14.92 32.98C14.9051 32.9799 14.8903 32.9827 14.8766 32.9883C14.8628 32.994 14.8503 33.0023 14.8398 33.0128C14.8293 33.0233 14.8209 33.0358 14.8153 33.0496C14.8097 33.0634 14.8068 33.0781 14.807 33.093C14.807 33.155 14.857 33.207 14.92 33.206C14.981 33.206 15.03 33.154 15.031 33.093V33.073C15.0269 33.0467 15.0134 33.0228 14.9929 33.0057C14.9725 32.9886 14.9466 32.9795 14.92 32.98ZM15.482 32.98C15.4671 32.9799 15.4523 32.9827 15.4386 32.9883C15.4248 32.994 15.4123 33.0023 15.4018 33.0128C15.3913 33.0233 15.3829 33.0358 15.3773 33.0496C15.3717 33.0634 15.3688 33.0781 15.369 33.093C15.369 33.155 15.42 33.207 15.482 33.206C15.544 33.206 15.593 33.154 15.594 33.093V33.085C15.5922 33.0565 15.5796 33.0298 15.5588 33.0103C15.538 32.9908 15.5105 32.98 15.482 32.98ZM16.045 32.98C16.0301 32.9799 16.0153 32.9827 16.0016 32.9883C15.9878 32.994 15.9753 33.0023 15.9648 33.0128C15.9543 33.0233 15.9459 33.0358 15.9403 33.0496C15.9347 33.0634 15.9318 33.0781 15.932 33.093C15.932 33.155 15.982 33.207 16.045 33.206C16.106 33.206 16.155 33.154 16.156 33.093V33.085C16.1542 33.0567 16.1418 33.0301 16.1212 33.0106C16.1006 32.9912 16.0733 32.9802 16.045 32.98ZM16.607 32.98C16.5921 32.9799 16.5773 32.9827 16.5636 32.9883C16.5498 32.994 16.5373 33.0023 16.5268 33.0128C16.5163 33.0233 16.5079 33.0358 16.5023 33.0496C16.4967 33.0634 16.4938 33.0781 16.494 33.093C16.494 33.155 16.545 33.207 16.607 33.206C16.669 33.206 16.718 33.154 16.719 33.093V33.085C16.7172 33.0565 16.7046 33.0298 16.6838 33.0103C16.663 32.9908 16.6355 32.98 16.607 32.98ZM17.168 32.98C17.1533 32.9801 17.1387 32.9832 17.1252 32.9889C17.1117 32.9947 17.0994 33.003 17.0891 33.0135C17.0788 33.024 17.0706 33.0364 17.0651 33.0501C17.0596 33.0637 17.0568 33.0783 17.057 33.093C17.057 33.154 17.107 33.206 17.168 33.206C17.1979 33.2058 17.2265 33.1938 17.2476 33.1726C17.2687 33.1515 17.2807 33.1229 17.281 33.093V33.085C17.2792 33.0564 17.2665 33.0295 17.2454 33.01C17.2244 32.9904 17.1967 32.9797 17.168 32.98ZM17.731 32.98C17.7162 32.98 17.7015 32.9829 17.6879 32.9886C17.6742 32.9943 17.6618 33.0027 17.6514 33.0132C17.641 33.0237 17.6328 33.0361 17.6272 33.0498C17.6216 33.0636 17.6188 33.0782 17.619 33.093C17.619 33.154 17.669 33.206 17.73 33.206C17.76 33.206 17.7889 33.1941 17.8102 33.173C17.8316 33.1518 17.8437 33.1231 17.844 33.093V33.085C17.8422 33.0562 17.8293 33.0292 17.8081 33.0096C17.7868 32.99 17.7589 32.9794 17.73 32.98H17.731ZM18.293 32.98C18.2783 32.9801 18.2637 32.9832 18.2502 32.9889C18.2367 32.9947 18.2244 33.003 18.2141 33.0135C18.2038 33.024 18.1956 33.0364 18.1901 33.0501C18.1846 33.0637 18.1818 33.0783 18.182 33.093C18.182 33.154 18.232 33.206 18.293 33.206C18.3229 33.2058 18.3515 33.1938 18.3726 33.1726C18.3937 33.1515 18.4057 33.1229 18.406 33.093V33.085C18.4042 33.0564 18.3915 33.0295 18.3704 33.01C18.3494 32.9904 18.3217 32.9797 18.293 32.98ZM18.856 32.98C18.8412 32.98 18.8265 32.9829 18.8129 32.9886C18.7992 32.9943 18.7868 33.0027 18.7764 33.0132C18.766 33.0237 18.7578 33.0361 18.7522 33.0498C18.7466 33.0636 18.7438 33.0782 18.744 33.093C18.744 33.154 18.794 33.206 18.855 33.206C18.917 33.206 18.966 33.154 18.967 33.093V33.073C18.9629 33.0467 18.9494 33.0228 18.9289 33.0057C18.9085 32.9886 18.8826 32.9795 18.856 32.98ZM19.418 32.98C19.4031 32.9799 19.3883 32.9827 19.3746 32.9883C19.3608 32.994 19.3483 33.0023 19.3378 33.0128C19.3273 33.0233 19.3189 33.0358 19.3133 33.0496C19.3077 33.0634 19.3048 33.0781 19.305 33.093C19.305 33.155 19.356 33.207 19.418 33.206C19.479 33.206 19.528 33.154 19.529 33.093V33.085C19.5272 33.0567 19.5148 33.0301 19.4942 33.0106C19.4736 32.9912 19.4463 32.9802 19.418 32.98ZM19.981 32.98C19.966 32.9797 19.9512 32.9825 19.9373 32.9881C19.9234 32.9936 19.9108 33.0019 19.9001 33.0125C19.8895 33.023 19.8811 33.0355 19.8754 33.0494C19.8697 33.0632 19.8668 33.0781 19.867 33.093C19.867 33.155 19.919 33.207 19.98 33.206C20.042 33.206 20.091 33.154 20.092 33.093V33.085C20.0902 33.0567 20.0778 33.0301 20.0572 33.0106C20.0366 32.9912 20.0093 32.9802 19.981 32.98ZM20.543 32.98C20.5281 32.9799 20.5133 32.9827 20.4996 32.9883C20.4858 32.994 20.4733 33.0023 20.4628 33.0128C20.4523 33.0233 20.4439 33.0358 20.4383 33.0496C20.4327 33.0634 20.4298 33.0781 20.43 33.093C20.43 33.155 20.481 33.207 20.543 33.206C20.604 33.206 20.653 33.154 20.654 33.093V33.085C20.6522 33.0567 20.6398 33.0301 20.6192 33.0106C20.5986 32.9912 20.5713 32.9802 20.543 32.98ZM21.106 32.98C21.091 32.9797 21.0762 32.9825 21.0623 32.9881C21.0484 32.9936 21.0358 33.0019 21.0251 33.0125C21.0145 33.023 21.0061 33.0355 21.0004 33.0494C20.9947 33.0632 20.9918 33.0781 20.992 33.093C20.992 33.155 21.044 33.207 21.105 33.206C21.167 33.206 21.216 33.154 21.217 33.093V33.085C21.2152 33.0567 21.2028 33.0301 21.1822 33.0106C21.1616 32.9912 21.1343 32.9802 21.106 32.98ZM21.666 32.98C21.6513 32.9801 21.6367 32.9832 21.6232 32.9889C21.6097 32.9947 21.5974 33.003 21.5871 33.0135C21.5768 33.024 21.5686 33.0364 21.5631 33.0501C21.5576 33.0637 21.5548 33.0783 21.555 33.093C21.555 33.154 21.605 33.206 21.666 33.206C21.6959 33.2058 21.7245 33.1938 21.7456 33.1726C21.7667 33.1515 21.7787 33.1229 21.779 33.093V33.085C21.7772 33.0564 21.7645 33.0295 21.7434 33.01C21.7224 32.9904 21.6947 32.9797 21.666 32.98ZM22.229 32.98C22.2142 32.98 22.1995 32.9829 22.1859 32.9886C22.1722 32.9943 22.1598 33.0027 22.1494 33.0132C22.139 33.0237 22.1308 33.0361 22.1252 33.0498C22.1196 33.0636 22.1168 33.0782 22.117 33.093C22.117 33.154 22.167 33.206 22.228 33.206C22.258 33.206 22.2869 33.1941 22.3082 33.173C22.3296 33.1518 22.3417 33.1231 22.342 33.093V33.085C22.3402 33.0564 22.3275 33.0295 22.3064 33.01C22.2854 32.9904 22.2577 32.9797 22.229 32.98ZM22.791 32.98C22.7763 32.9801 22.7617 32.9832 22.7482 32.9889C22.7347 32.9947 22.7224 33.003 22.7121 33.0135C22.7018 33.024 22.6936 33.0364 22.6881 33.0501C22.6826 33.0637 22.6798 33.0783 22.68 33.093C22.68 33.154 22.73 33.205 22.791 33.206C22.853 33.206 22.904 33.156 22.904 33.093C22.9042 33.0781 22.9015 33.0632 22.8959 33.0493C22.8904 33.0354 22.8821 33.0228 22.8715 33.0122C22.861 33.0015 22.8485 32.9931 22.8346 32.9874C22.8208 32.9817 22.8059 32.9789 22.791 32.979V32.98ZM23.354 32.98C23.3392 32.98 23.3245 32.9829 23.3109 32.9886C23.2972 32.9943 23.2848 33.0027 23.2744 33.0132C23.264 33.0237 23.2558 33.0361 23.2502 33.0498C23.2446 33.0636 23.2418 33.0782 23.242 33.093C23.242 33.154 23.292 33.206 23.353 33.206C23.3827 33.2055 23.411 33.1934 23.4319 33.1723C23.4529 33.1512 23.4647 33.1227 23.465 33.093V33.073C23.4607 33.0468 23.4471 33.023 23.4267 33.0059C23.4064 32.9889 23.3805 32.9797 23.354 32.98ZM23.916 32.98C23.9011 32.9799 23.8863 32.9827 23.8726 32.9883C23.8588 32.994 23.8463 33.0023 23.8358 33.0128C23.8253 33.0233 23.8169 33.0358 23.8113 33.0496C23.8057 33.0634 23.8028 33.0781 23.803 33.093C23.803 33.155 23.854 33.207 23.916 33.206C23.977 33.206 24.026 33.154 24.027 33.093V33.073C24.0229 33.0467 24.0094 33.0228 23.9889 33.0057C23.9685 32.9886 23.9426 32.9795 23.916 32.98ZM24.479 32.98C24.464 32.9797 24.4492 32.9825 24.4353 32.9881C24.4214 32.9936 24.4088 33.0019 24.3981 33.0125C24.3875 33.023 24.3791 33.0355 24.3734 33.0494C24.3677 33.0632 24.3648 33.0781 24.365 33.093C24.365 33.155 24.417 33.207 24.479 33.206C24.539 33.206 24.589 33.154 24.589 33.093V33.085C24.5872 33.0569 24.5749 33.0305 24.5545 33.011C24.5341 32.9915 24.5072 32.9805 24.479 32.98ZM25.041 32.98C25.0261 32.9799 25.0113 32.9827 24.9976 32.9883C24.9838 32.994 24.9713 33.0023 24.9608 33.0128C24.9503 33.0233 24.9419 33.0358 24.9363 33.0496C24.9307 33.0634 24.9278 33.0781 24.928 33.093C24.928 33.155 24.979 33.207 25.041 33.206C25.102 33.206 25.151 33.154 25.152 33.093V33.085C25.1502 33.0567 25.1378 33.0301 25.1172 33.0106C25.0966 32.9912 25.0693 32.9802 25.041 32.98ZM25.601 32.98C25.5714 32.9805 25.5433 32.9927 25.5227 33.0139C25.5021 33.035 25.4907 33.0635 25.491 33.093C25.491 33.154 25.541 33.206 25.601 33.206C25.631 33.206 25.6599 33.1941 25.6812 33.173C25.7026 33.1518 25.7147 33.1231 25.715 33.093V33.085C25.7132 33.0564 25.7005 33.0295 25.6794 33.01C25.6584 32.9904 25.6307 32.9797 25.602 32.98H25.601ZM26.164 32.98C26.1493 32.9801 26.1347 32.9832 26.1212 32.9889C26.1077 32.9947 26.0954 33.003 26.0851 33.0135C26.0748 33.024 26.0666 33.0364 26.0611 33.0501C26.0556 33.0637 26.0528 33.0783 26.053 33.093C26.053 33.154 26.103 33.206 26.164 33.206C26.1939 33.2058 26.2225 33.1938 26.2436 33.1726C26.2647 33.1515 26.2767 33.1229 26.277 33.093V33.085C26.2752 33.0564 26.2625 33.0295 26.2414 33.01C26.2204 32.9904 26.1927 32.9797 26.164 32.98ZM26.727 32.98C26.7122 32.98 26.6975 32.9829 26.6839 32.9886C26.6702 32.9943 26.6578 33.0027 26.6474 33.0132C26.637 33.0237 26.6288 33.0361 26.6232 33.0498C26.6176 33.0636 26.6148 33.0782 26.615 33.093C26.615 33.154 26.665 33.206 26.727 33.206C26.7569 33.2058 26.7855 33.1938 26.8066 33.1726C26.8277 33.1515 26.8397 33.1229 26.84 33.093V33.085C26.8382 33.0564 26.8255 33.0295 26.8044 33.01C26.7834 32.9904 26.7557 32.9797 26.727 32.98ZM27.289 32.98C27.2743 32.9801 27.2597 32.9832 27.2462 32.9889C27.2327 32.9947 27.2204 33.003 27.2101 33.0135C27.1998 33.024 27.1916 33.0364 27.1861 33.0501C27.1806 33.0637 27.1778 33.0783 27.178 33.093C27.178 33.154 27.228 33.205 27.289 33.206C27.351 33.206 27.402 33.156 27.402 33.093C27.4022 33.0781 27.3995 33.0632 27.3939 33.0493C27.3884 33.0354 27.3801 33.0228 27.3695 33.0122C27.359 33.0015 27.3464 32.9931 27.3326 32.9874C27.3188 32.9817 27.3039 32.9789 27.289 32.979V32.98ZM27.852 32.98C27.8372 32.98 27.8225 32.9829 27.8089 32.9886C27.7952 32.9943 27.7828 33.0027 27.7724 33.0132C27.762 33.0237 27.7538 33.0361 27.7482 33.0498C27.7426 33.0636 27.7398 33.0782 27.74 33.093C27.74 33.154 27.79 33.206 27.852 33.206C27.912 33.206 27.962 33.154 27.962 33.093C27.964 33.085 27.964 33.081 27.962 33.073C27.9579 33.0469 27.9445 33.0231 27.9243 33.006C27.9041 32.9889 27.8784 32.9797 27.852 32.98ZM28.414 32.98C28.3991 32.9799 28.3843 32.9827 28.3706 32.9883C28.3568 32.994 28.3443 33.0023 28.3338 33.0128C28.3233 33.0233 28.3149 33.0358 28.3093 33.0496C28.3037 33.0634 28.3008 33.0781 28.301 33.093C28.301 33.155 28.352 33.207 28.414 33.206C28.475 33.206 28.524 33.154 28.525 33.093V33.085C28.5232 33.0569 28.5109 33.0305 28.4905 33.011C28.4701 32.9915 28.4432 32.9805 28.415 32.98H28.414ZM28.977 32.98C28.962 32.9797 28.9472 32.9825 28.9333 32.9881C28.9194 32.9936 28.9068 33.0019 28.8961 33.0125C28.8855 33.023 28.8771 33.0355 28.8714 33.0494C28.8657 33.0632 28.8628 33.0781 28.863 33.093C28.863 33.155 28.915 33.207 28.977 33.206C29.037 33.206 29.087 33.154 29.087 33.093V33.085C29.0852 33.0569 29.0729 33.0305 29.0525 33.011C29.0321 32.9915 29.0052 32.9805 28.977 32.98ZM29.539 32.98C29.5241 32.9799 29.5093 32.9827 29.4956 32.9883C29.4818 32.994 29.4693 33.0023 29.4588 33.0128C29.4483 33.0233 29.4399 33.0358 29.4343 33.0496C29.4287 33.0634 29.4258 33.0781 29.426 33.093C29.426 33.155 29.477 33.207 29.539 33.206C29.6 33.206 29.649 33.154 29.65 33.093V33.085C29.6482 33.0569 29.6359 33.0305 29.6155 33.011C29.5951 32.9915 29.5682 32.9805 29.54 32.98H29.539ZM30.099 32.98C30.0694 32.9805 30.0413 32.9927 30.0207 33.0139C30.0001 33.035 29.9887 33.0635 29.989 33.093C29.989 33.154 30.038 33.206 30.099 33.206C30.129 33.206 30.1579 33.1941 30.1792 33.173C30.2006 33.1518 30.2127 33.1231 30.213 33.093V33.085C30.2112 33.0564 30.1985 33.0295 30.1774 33.01C30.1564 32.9904 30.1287 32.9797 30.1 32.98H30.099ZM30.662 32.98C30.6473 32.9801 30.6327 32.9832 30.6192 32.9889C30.6057 32.9947 30.5934 33.003 30.5831 33.0135C30.5728 33.024 30.5646 33.0364 30.5591 33.0501C30.5536 33.0637 30.5508 33.0783 30.551 33.093C30.551 33.154 30.601 33.206 30.662 33.206C30.6919 33.2058 30.7205 33.1938 30.7416 33.1726C30.7627 33.1515 30.7747 33.1229 30.775 33.093V33.085C30.7732 33.0564 30.7605 33.0295 30.7394 33.01C30.7184 32.9904 30.6907 32.9797 30.662 32.98ZM31.225 32.98C31.2102 32.98 31.1955 32.9829 31.1819 32.9886C31.1682 32.9943 31.1558 33.0027 31.1454 33.0132C31.135 33.0237 31.1268 33.0361 31.1212 33.0498C31.1156 33.0636 31.1128 33.0782 31.113 33.093C31.113 33.154 31.163 33.206 31.225 33.206C31.2549 33.2058 31.2835 33.1938 31.3046 33.1726C31.3257 33.1515 31.3377 33.1229 31.338 33.093V33.085C31.3362 33.0564 31.3235 33.0295 31.3024 33.01C31.2814 32.9904 31.2537 32.9797 31.225 32.98ZM31.787 32.98C31.7723 32.9801 31.7577 32.9832 31.7442 32.9889C31.7307 32.9947 31.7184 33.003 31.7081 33.0135C31.6978 33.024 31.6896 33.0364 31.6841 33.0501C31.6786 33.0637 31.6758 33.0783 31.676 33.093C31.676 33.154 31.726 33.206 31.787 33.206C31.848 33.206 31.897 33.154 31.898 33.093V33.073C31.8939 33.0469 31.8805 33.0231 31.8603 33.006C31.8401 32.9889 31.8144 32.9797 31.788 32.98H31.787ZM32.35 32.98C32.335 32.9797 32.3202 32.9825 32.3063 32.9881C32.2924 32.9936 32.2798 33.0019 32.2691 33.0125C32.2585 33.023 32.2501 33.0355 32.2444 33.0494C32.2387 33.0632 32.2358 33.0781 32.236 33.093C32.236 33.155 32.288 33.207 32.35 33.206C32.41 33.206 32.46 33.154 32.46 33.093C32.462 33.085 32.462 33.081 32.46 33.073C32.4559 33.0469 32.4425 33.0231 32.4223 33.006C32.4021 32.9889 32.3764 32.9797 32.35 32.98ZM32.912 32.98C32.8971 32.9799 32.8823 32.9827 32.8686 32.9883C32.8548 32.994 32.8423 33.0023 32.8318 33.0128C32.8213 33.0233 32.8129 33.0358 32.8073 33.0496C32.8017 33.0634 32.7988 33.0781 32.799 33.093C32.799 33.155 32.85 33.207 32.912 33.206C32.973 33.206 33.022 33.154 33.023 33.093V33.085C33.0212 33.0569 33.0089 33.0305 32.9885 33.011C32.9681 32.9915 32.9412 32.9805 32.913 32.98H32.912ZM33.475 32.98C33.46 32.9797 33.4452 32.9825 33.4313 32.9881C33.4174 32.9936 33.4048 33.0019 33.3941 33.0125C33.3835 33.023 33.3751 33.0355 33.3694 33.0494C33.3637 33.0632 33.3608 33.0781 33.361 33.093C33.361 33.155 33.413 33.207 33.475 33.206C33.5043 33.205 33.5322 33.1927 33.5527 33.1716C33.5732 33.1506 33.5847 33.1224 33.585 33.093V33.085C33.5832 33.0569 33.5709 33.0305 33.5505 33.011C33.5301 32.9915 33.5032 32.9805 33.475 32.98ZM34.037 32.98C34.0221 32.9799 34.0073 32.9827 33.9936 32.9883C33.9798 32.994 33.9673 33.0023 33.9568 33.0128C33.9463 33.0233 33.9379 33.0358 33.9323 33.0496C33.9267 33.0634 33.9238 33.0781 33.924 33.093C33.924 33.155 33.975 33.207 34.037 33.206C34.0665 33.2052 34.0946 33.193 34.1153 33.1719C34.136 33.1509 34.1477 33.1226 34.148 33.093V33.085C34.1462 33.0569 34.1339 33.0305 34.1135 33.011C34.0931 32.9915 34.0662 32.9805 34.038 32.98H34.037ZM34.597 32.98C34.5674 32.9805 34.5393 32.9927 34.5187 33.0139C34.4981 33.035 34.4867 33.0635 34.487 33.093C34.487 33.154 34.536 33.206 34.597 33.206C34.627 33.206 34.6559 33.1941 34.6772 33.173C34.6986 33.1518 34.7107 33.1231 34.711 33.093V33.085C34.7092 33.0564 34.6965 33.0295 34.6754 33.01C34.6544 32.9904 34.6267 32.9797 34.598 32.98H34.597ZM16.213 35.476C15.9982 35.4684 15.7842 35.5042 15.5835 35.5811C15.3829 35.658 15.1998 35.7746 15.0452 35.9238C14.8906 36.0731 14.7677 36.2519 14.6837 36.4497C14.5997 36.6475 14.5564 36.8601 14.5564 37.075C14.5564 37.2899 14.5997 37.5026 14.6837 37.7004C14.7677 37.8981 14.8906 38.077 15.0452 38.2262C15.1998 38.3754 15.3829 38.492 15.5835 38.5689C15.7842 38.6459 15.9982 38.6816 16.213 38.674C16.6273 38.6594 17.0197 38.4845 17.3076 38.1862C17.5955 37.8879 17.7564 37.4896 17.7564 37.075C17.7564 36.6605 17.5955 36.2621 17.3076 35.9638C17.0197 35.6656 16.6273 35.4907 16.213 35.476ZM20.213 35.476C19.9982 35.4684 19.7842 35.5042 19.5835 35.5811C19.3829 35.658 19.1998 35.7746 19.0452 35.9238C18.8906 36.0731 18.7677 36.2519 18.6837 36.4497C18.5997 36.6475 18.5564 36.8601 18.5564 37.075C18.5564 37.2899 18.5997 37.5026 18.6837 37.7004C18.7677 37.8981 18.8906 38.077 19.0452 38.2262C19.1998 38.3754 19.3829 38.492 19.5835 38.5689C19.7842 38.6459 19.9982 38.6816 20.213 38.674C20.6273 38.6594 21.0197 38.4845 21.3076 38.1862C21.5955 37.8879 21.7564 37.4896 21.7564 37.075C21.7564 36.6605 21.5955 36.2621 21.3076 35.9638C21.0197 35.6656 20.6273 35.4907 20.213 35.476ZM24.213 35.476C23.9982 35.4684 23.7842 35.5042 23.5835 35.5811C23.3829 35.658 23.1998 35.7746 23.0452 35.9238C22.8906 36.0731 22.7677 36.2519 22.6837 36.4497C22.5997 36.6475 22.5564 36.8601 22.5564 37.075C22.5564 37.2899 22.5997 37.5026 22.6837 37.7004C22.7677 37.8981 22.8906 38.077 23.0452 38.2262C23.1998 38.3754 23.3829 38.492 23.5835 38.5689C23.7842 38.6459 23.9982 38.6816 24.213 38.674C24.6273 38.6594 25.0197 38.4845 25.3076 38.1862C25.5955 37.8879 25.7564 37.4896 25.7564 37.075C25.7564 36.6605 25.5955 36.2621 25.3076 35.9638C25.0197 35.6656 24.6273 35.4907 24.213 35.476ZM28.213 35.476C27.9982 35.4684 27.7842 35.5042 27.5835 35.5811C27.3829 35.658 27.1998 35.7746 27.0452 35.9238C26.8906 36.0731 26.7677 36.2519 26.6837 36.4497C26.5997 36.6475 26.5564 36.8601 26.5564 37.075C26.5564 37.2899 26.5997 37.5026 26.6837 37.7004C26.7677 37.8981 26.8906 38.077 27.0452 38.2262C27.1998 38.3754 27.3829 38.492 27.5835 38.5689C27.7842 38.6459 27.9982 38.6816 28.213 38.674C28.6273 38.6594 29.0197 38.4845 29.3076 38.1862C29.5955 37.8879 29.7564 37.4896 29.7564 37.075C29.7564 36.6605 29.5955 36.2621 29.3076 35.9638C29.0197 35.6656 28.6273 35.4907 28.213 35.476ZM32.213 35.476C31.9982 35.4684 31.7842 35.5042 31.5835 35.5811C31.3829 35.658 31.1998 35.7746 31.0452 35.9238C30.8906 36.0731 30.7677 36.2519 30.6837 36.4497C30.5997 36.6475 30.5564 36.8601 30.5564 37.075C30.5564 37.2899 30.5997 37.5026 30.6837 37.7004C30.7677 37.8981 30.8906 38.077 31.0452 38.2262C31.1998 38.3754 31.3829 38.492 31.5835 38.5689C31.7842 38.6459 31.9982 38.6816 32.213 38.674C32.6273 38.6594 33.0197 38.4845 33.3076 38.1862C33.5955 37.8879 33.7564 37.4896 33.7564 37.075C33.7564 36.6605 33.5955 36.2621 33.3076 35.9638C33.0197 35.6656 32.6273 35.4907 32.213 35.476ZM16.213 35.936C16.3624 35.9359 16.5103 35.9652 16.6484 36.0222C16.7864 36.0793 16.9119 36.1629 17.0176 36.2685C17.1233 36.374 17.2072 36.4993 17.2645 36.6373C17.3218 36.7752 17.3513 36.9231 17.3515 37.0725C17.3516 37.2219 17.3223 37.3698 17.2653 37.5079C17.2082 37.646 17.1246 37.7714 17.019 37.8771C16.9135 37.9829 16.7882 38.0668 16.6502 38.1241C16.5122 38.1813 16.3644 38.2109 16.215 38.211C15.9133 38.2113 15.6239 38.0917 15.4103 37.8786C15.1968 37.6654 15.0767 37.3762 15.0765 37.0745C15.0762 36.7728 15.1958 36.4834 15.4089 36.2699C15.6221 36.0564 15.9113 35.9363 16.213 35.936ZM20.213 35.936C20.5147 35.9358 20.8041 36.0553 21.0176 36.2685C21.2311 36.4816 21.3512 36.7708 21.3515 37.0725C21.3517 37.3742 21.2322 37.6636 21.019 37.8771C20.8059 38.0907 20.5167 38.2108 20.215 38.211C20.0656 38.2111 19.9177 38.1819 19.7796 38.1248C19.6415 38.0678 19.5161 37.9841 19.4104 37.8786C19.1968 37.6654 19.0767 37.3762 19.0765 37.0745C19.0762 36.7728 19.1958 36.4834 19.4089 36.2699C19.6221 36.0564 19.9113 35.9363 20.213 35.936ZM24.213 35.936C24.5147 35.9358 24.8041 36.0553 25.0176 36.2685C25.2311 36.4816 25.3512 36.7708 25.3515 37.0725C25.3517 37.3742 25.2322 37.6636 25.019 37.8771C24.8059 38.0907 24.5167 38.2108 24.215 38.211C24.0656 38.2111 23.9177 38.1819 23.7796 38.1248C23.6415 38.0678 23.5161 37.9841 23.4104 37.8786C23.1968 37.6654 23.0767 37.3762 23.0765 37.0745C23.0762 36.7728 23.1958 36.4834 23.4089 36.2699C23.6221 36.0564 23.9113 35.9363 24.213 35.936ZM28.213 35.936C28.5147 35.9358 28.8041 36.0553 29.0176 36.2685C29.2311 36.4816 29.3512 36.7708 29.3515 37.0725C29.3517 37.3742 29.2322 37.6636 29.019 37.8771C28.8059 38.0907 28.5167 38.2108 28.215 38.211C28.0656 38.2111 27.9177 38.1819 27.7796 38.1248C27.6415 38.0678 27.5161 37.9841 27.4104 37.8786C27.1968 37.6654 27.0767 37.3762 27.0765 37.0745C27.0762 36.7728 27.1958 36.4834 27.4089 36.2699C27.6221 36.0564 27.9113 35.9363 28.213 35.936ZM32.213 35.936C32.5147 35.9358 32.8041 36.0553 33.0176 36.2685C33.2311 36.4816 33.3512 36.7708 33.3515 37.0725C33.3517 37.3742 33.2322 37.6636 33.019 37.8771C32.8059 38.0907 32.5167 38.2108 32.215 38.211C32.0656 38.2111 31.9177 38.1819 31.7796 38.1248C31.6415 38.0678 31.5161 37.9841 31.4104 37.8786C31.1968 37.6654 31.0767 37.3762 31.0765 37.0745C31.0762 36.7728 31.1958 36.4834 31.4089 36.2699C31.6221 36.0564 31.9113 35.9363 32.213 35.936Z" fill="#333333"/>
</svg>
