<svg width="48" height="48" viewBox="0 0 48 48" fill="none" xmlns="http://www.w3.org/2000/svg">
<path fill-rule="evenodd" clip-rule="evenodd" d="M0 0.00610352V48.0061H48V0.00610352H0ZM23.813 3.9941C27.109 3.9831 30.468 3.9811 33.852 4.0241C34.721 4.0241 35.42 4.7221 35.42 5.5921V42.4531C35.42 43.3231 34.721 44.0231 33.852 44.0231H14.147C13.277 44.0231 12.58 43.3231 12.58 42.4531V5.5921C12.58 4.7221 13.277 4.0231 14.146 4.0231C17.282 4.0231 20.516 4.0051 23.812 3.9941H23.813ZM19.733 5.0621C19.7045 5.06314 19.6776 5.07518 19.6578 5.0957C19.638 5.11622 19.627 5.14361 19.627 5.1721C19.627 5.2351 19.677 5.2871 19.74 5.2871C19.7701 5.28658 19.7987 5.2742 19.8197 5.25266C19.8407 5.23112 19.8523 5.20217 19.852 5.1721C19.8519 5.15682 19.8487 5.14172 19.8425 5.12775C19.8363 5.11378 19.8273 5.10124 19.816 5.09091C19.8047 5.08059 19.7915 5.0727 19.777 5.06774C19.7626 5.06278 19.7472 5.06086 19.732 5.0621H19.733ZM28.252 5.0621C28.2237 5.06339 28.197 5.07555 28.1774 5.09604C28.1579 5.11653 28.147 5.14378 28.147 5.1721C28.146 5.2351 28.197 5.2871 28.26 5.2871C28.2899 5.28632 28.3183 5.27382 28.339 5.25231C28.3598 5.2308 28.3713 5.202 28.371 5.1721C28.3709 5.15691 28.3677 5.1419 28.3616 5.12801C28.3554 5.11411 28.3465 5.10162 28.3353 5.0913C28.3242 5.08099 28.311 5.07308 28.2967 5.06806C28.2824 5.06304 28.2672 5.06101 28.252 5.0621ZM19.732 5.6251C19.7037 5.62639 19.677 5.63855 19.6574 5.65904C19.6379 5.67953 19.627 5.70678 19.627 5.7351C19.627 5.7971 19.677 5.8501 19.74 5.8501C19.755 5.84984 19.7697 5.84664 19.7835 5.84066C19.7972 5.83469 19.8096 5.82608 19.82 5.8153C19.8304 5.80453 19.8386 5.79182 19.8441 5.77788C19.8496 5.76395 19.8523 5.74907 19.852 5.7341C19.8519 5.71886 19.8487 5.7038 19.8425 5.68988C19.8363 5.67595 19.8272 5.66347 19.816 5.65322C19.8047 5.64298 19.7914 5.63518 19.7769 5.63034C19.7625 5.6255 19.7472 5.62372 19.732 5.6251ZM28.252 5.6251C28.2237 5.62639 28.197 5.63855 28.1774 5.65904C28.1579 5.67953 28.147 5.70678 28.147 5.7351C28.146 5.7971 28.197 5.8501 28.26 5.8501C28.2901 5.84932 28.3186 5.83668 28.3394 5.81496C28.3602 5.79323 28.3715 5.76417 28.371 5.7341C28.3709 5.71895 28.3677 5.70398 28.3616 5.69013C28.3554 5.67628 28.3465 5.66385 28.3353 5.65362C28.3241 5.64339 28.311 5.63557 28.2966 5.63066C28.2823 5.62576 28.2671 5.62386 28.252 5.6251ZM19.722 6.1881C19.6959 6.19148 19.6719 6.20417 19.6545 6.22383C19.637 6.2435 19.6273 6.26881 19.627 6.2951C19.627 6.3571 19.677 6.4091 19.74 6.4081C19.7697 6.40758 19.798 6.39548 19.819 6.37437C19.8399 6.35326 19.8517 6.32482 19.852 6.2951C19.8512 6.2661 19.839 6.23859 19.818 6.21855C19.797 6.19851 19.769 6.18757 19.74 6.1881H19.723H19.722ZM28.242 6.1881C28.2157 6.19126 28.1915 6.20385 28.1739 6.22354C28.1562 6.24322 28.1463 6.26866 28.146 6.2951C28.147 6.3571 28.197 6.4091 28.26 6.4081C28.321 6.4081 28.37 6.3571 28.371 6.2951C28.3702 6.26628 28.3581 6.23892 28.3374 6.2189C28.3166 6.19889 28.2888 6.18783 28.26 6.1881H28.242ZM19.742 6.7461C19.712 6.7461 19.6833 6.75801 19.6621 6.7792C19.6409 6.80039 19.629 6.82913 19.629 6.8591C19.629 6.9211 19.679 6.9731 19.742 6.9731C19.803 6.9721 19.852 6.9211 19.853 6.8591C19.8533 6.82957 19.8419 6.80113 19.8213 6.77996C19.8007 6.7588 19.7725 6.74663 19.743 6.7461H19.742ZM28.262 6.7461C28.2471 6.74597 28.2323 6.7488 28.2185 6.75442C28.2046 6.76004 28.192 6.76834 28.1814 6.77884C28.1709 6.78935 28.1624 6.80185 28.1567 6.81563C28.151 6.8294 28.148 6.84418 28.148 6.8591C28.148 6.9211 28.199 6.9731 28.262 6.9731C28.322 6.9721 28.372 6.9211 28.373 6.8591C28.3731 6.8444 28.3704 6.8298 28.3649 6.81617C28.3594 6.80253 28.3512 6.79011 28.3409 6.77961C28.3306 6.76912 28.3183 6.76076 28.3048 6.75501C28.2912 6.74926 28.2767 6.74623 28.262 6.7461ZM16.375 6.7481C16.1616 6.74277 15.9493 6.78019 15.7505 6.85818C15.5518 6.93616 15.3707 7.05312 15.2179 7.20218C15.065 7.35123 14.9436 7.52937 14.8607 7.72608C14.7777 7.9228 14.735 8.13412 14.735 8.3476C14.735 8.56108 14.7777 8.77241 14.8607 8.96912C14.9436 9.16584 15.065 9.34397 15.2179 9.49303C15.3707 9.64208 15.5518 9.75905 15.7505 9.83703C15.9493 9.91502 16.1616 9.95244 16.375 9.9471C16.7923 9.93667 17.189 9.76357 17.4804 9.46474C17.7719 9.16592 17.935 8.76502 17.935 8.3476C17.935 7.93018 17.7719 7.52929 17.4804 7.23046C17.189 6.93164 16.7923 6.75854 16.375 6.7481ZM24 6.7481C23.7866 6.74277 23.5743 6.78019 23.3755 6.85818C23.1768 6.93616 22.9957 7.05312 22.8429 7.20218C22.69 7.35123 22.5686 7.52937 22.4857 7.72608C22.4027 7.9228 22.36 8.13412 22.36 8.3476C22.36 8.56108 22.4027 8.77241 22.4857 8.96912C22.5686 9.16584 22.69 9.34397 22.8429 9.49303C22.9957 9.64208 23.1768 9.75905 23.3755 9.83703C23.5743 9.91502 23.7866 9.95244 24 9.9471C24.4173 9.93667 24.814 9.76357 25.1054 9.46474C25.3969 9.16592 25.56 8.76502 25.56 8.3476C25.56 7.93018 25.3969 7.52929 25.1054 7.23046C24.814 6.93164 24.4173 6.75854 24 6.7481ZM31.625 6.7481C31.4116 6.74277 31.1993 6.78019 31.0005 6.85818C30.8018 6.93616 30.6207 7.05312 30.4679 7.20218C30.315 7.35123 30.1936 7.52937 30.1107 7.72608C30.0277 7.9228 29.985 8.13412 29.985 8.3476C29.985 8.56108 30.0277 8.77241 30.1107 8.96912C30.1936 9.16584 30.315 9.34397 30.4679 9.49303C30.6207 9.64208 30.8018 9.75905 31.0005 9.83703C31.1993 9.91502 31.4116 9.95244 31.625 9.9471C32.0423 9.93667 32.439 9.76357 32.7304 9.46474C33.0219 9.16592 33.185 8.76502 33.185 8.3476C33.185 7.93018 33.0219 7.52929 32.7304 7.23046C32.439 6.93164 32.0423 6.75854 31.625 6.7481ZM19.732 7.3081C19.7032 7.3099 19.6762 7.32277 19.6566 7.34401C19.637 7.36525 19.6264 7.39323 19.627 7.4221C19.627 7.4841 19.677 7.5361 19.74 7.5351C19.7697 7.53458 19.798 7.52248 19.819 7.50137C19.8399 7.48026 19.8517 7.45182 19.852 7.4221C19.852 7.40666 19.8489 7.39137 19.8428 7.37718C19.8367 7.36299 19.8277 7.35021 19.8165 7.33962C19.8052 7.32903 19.7919 7.32086 19.7774 7.31561C19.7629 7.31036 19.7474 7.30815 19.732 7.3091V7.3081ZM28.252 7.3081C28.2232 7.3099 28.1962 7.32277 28.1766 7.34401C28.157 7.36525 28.1464 7.39323 28.147 7.4221C28.147 7.4841 28.197 7.5361 28.26 7.5351C28.321 7.5351 28.37 7.4831 28.371 7.4221C28.3712 7.4067 28.3682 7.39143 28.3622 7.37725C28.3562 7.36307 28.3473 7.35027 28.3361 7.33967C28.325 7.32906 28.3117 7.32087 28.2973 7.31562C28.2828 7.31036 28.2674 7.30814 28.252 7.3091V7.3081ZM19.732 7.8691C19.7034 7.8709 19.6765 7.88362 19.6569 7.90465C19.6374 7.92567 19.6267 7.9534 19.627 7.9821C19.627 8.0441 19.677 8.0961 19.74 8.0961C19.7699 8.09558 19.7984 8.08334 19.8193 8.06202C19.8403 8.04069 19.852 8.01199 19.852 7.9821C19.852 7.96666 19.8489 7.95137 19.8428 7.93718C19.8367 7.92299 19.8277 7.91021 19.8165 7.89962C19.8052 7.88903 19.7919 7.88086 19.7774 7.87561C19.7629 7.87036 19.7474 7.86815 19.732 7.8691ZM28.252 7.8691C28.2234 7.8709 28.1965 7.88362 28.1769 7.90465C28.1574 7.92567 28.1467 7.9534 28.147 7.9821C28.147 8.0441 28.197 8.0961 28.26 8.0961C28.321 8.0961 28.37 8.0441 28.371 7.9821C28.3712 7.9667 28.3682 7.95143 28.3622 7.93725C28.3562 7.92307 28.3473 7.91027 28.3361 7.89967C28.325 7.88906 28.3117 7.88087 28.2973 7.87562C28.2828 7.87036 28.2674 7.86814 28.252 7.8691ZM19.732 8.4321C19.7034 8.4339 19.6765 8.44662 19.6569 8.46765C19.6374 8.48867 19.6267 8.5164 19.627 8.5451C19.627 8.6071 19.677 8.6591 19.74 8.6581C19.7697 8.65758 19.798 8.64548 19.819 8.62437C19.8399 8.60326 19.8517 8.57482 19.852 8.5451C19.852 8.52966 19.8489 8.51437 19.8428 8.50018C19.8367 8.48599 19.8277 8.47321 19.8165 8.46262C19.8052 8.45203 19.7919 8.44386 19.7774 8.43861C19.7629 8.43336 19.7474 8.43115 19.732 8.4321ZM28.252 8.4321C28.2234 8.4339 28.1965 8.44662 28.1769 8.46765C28.1574 8.48867 28.1467 8.5164 28.147 8.5451C28.147 8.6071 28.197 8.6591 28.26 8.6581C28.321 8.6581 28.37 8.6071 28.371 8.5451C28.3712 8.5297 28.3682 8.51443 28.3622 8.50025C28.3562 8.48607 28.3473 8.47327 28.3361 8.46267C28.325 8.45206 28.3117 8.44387 28.2973 8.43862C28.2828 8.43336 28.2674 8.43114 28.252 8.4321ZM19.732 8.9941C19.7022 8.99596 19.6743 9.00959 19.6545 9.032C19.6347 9.05441 19.6246 9.08377 19.6265 9.1136C19.6284 9.14344 19.642 9.17132 19.6644 9.1911C19.6868 9.21089 19.7162 9.22096 19.746 9.2191C19.7608 9.21818 19.7752 9.21437 19.7885 9.20786C19.8018 9.20136 19.8137 9.1923 19.8235 9.1812C19.8333 9.17011 19.8408 9.15719 19.8456 9.14319C19.8504 9.12919 19.8524 9.11438 19.8515 9.0996C19.8506 9.08483 19.8468 9.07038 19.8403 9.05709C19.8338 9.04379 19.8247 9.0319 19.8136 9.0221C19.8025 9.01231 19.7896 9.00479 19.7756 8.99999C19.7616 8.99518 19.7468 8.99319 19.732 8.9941ZM28.252 8.9941C28.2365 8.99397 28.2211 8.99703 28.2068 9.0031C28.1926 9.00917 28.1797 9.01811 28.169 9.02937C28.1583 9.04062 28.1501 9.05396 28.1448 9.06854C28.1395 9.08312 28.1373 9.09864 28.1382 9.11412C28.1392 9.1296 28.1434 9.14472 28.1504 9.15853C28.1575 9.17234 28.1673 9.18455 28.1793 9.1944C28.1913 9.20425 28.2052 9.21153 28.2201 9.21578C28.235 9.22003 28.2506 9.22116 28.266 9.2191C28.2943 9.21532 28.3202 9.20093 28.3383 9.17885C28.3565 9.15676 28.3656 9.12861 28.3638 9.10008C28.362 9.07155 28.3495 9.04475 28.3288 9.02509C28.308 9.00542 28.2806 8.99435 28.252 8.9941ZM19.732 9.5571C19.7035 9.55936 19.6769 9.57222 19.6575 9.59315C19.638 9.61407 19.6272 9.64154 19.627 9.6701C19.627 9.69994 19.6389 9.72856 19.66 9.74965C19.681 9.77075 19.7097 9.7826 19.7395 9.7826C19.7693 9.7826 19.798 9.77075 19.819 9.74965C19.8401 9.72856 19.852 9.69994 19.852 9.6701C19.8519 9.6547 19.8487 9.63948 19.8425 9.62536C19.8363 9.61124 19.8274 9.59851 19.8162 9.58795C19.8049 9.57739 19.7917 9.56921 19.7772 9.56391C19.7628 9.55861 19.7474 9.55629 19.732 9.5571ZM28.252 9.5571C28.2235 9.55936 28.1969 9.57222 28.1775 9.59315C28.158 9.61407 28.1472 9.64154 28.147 9.6701C28.147 9.69981 28.1588 9.7283 28.1798 9.7493C28.2008 9.7703 28.2293 9.7821 28.259 9.7821C28.2887 9.7821 28.3172 9.7703 28.3382 9.7493C28.3592 9.7283 28.371 9.69981 28.371 9.6701C28.3709 9.65479 28.3677 9.63965 28.3616 9.6256C28.3555 9.61155 28.3466 9.59887 28.3355 9.58833C28.3244 9.57778 28.3113 9.56958 28.2969 9.56421C28.2826 9.55885 28.2673 9.55643 28.252 9.5571ZM19.721 10.1191C19.6944 10.1236 19.6704 10.1375 19.6531 10.1582C19.6359 10.179 19.6266 10.2052 19.627 10.2321C19.627 10.2951 19.677 10.3481 19.74 10.3481C19.7704 10.3481 19.7995 10.336 19.821 10.3146C19.8424 10.2931 19.8545 10.264 19.8545 10.2336C19.8545 10.2032 19.8424 10.1741 19.821 10.1526C19.7995 10.1312 19.7704 10.1191 19.74 10.1191H19.721ZM28.241 10.1191C28.2142 10.1234 28.1899 10.1372 28.1725 10.1579C28.1551 10.1787 28.1457 10.205 28.146 10.2321C28.146 10.2951 28.197 10.3481 28.26 10.3481C28.2904 10.3481 28.3195 10.336 28.341 10.3146C28.3624 10.2931 28.3745 10.264 28.3745 10.2336C28.3745 10.2032 28.3624 10.1741 28.341 10.1526C28.3195 10.1312 28.2904 10.1191 28.26 10.1191H28.24H28.241ZM19.742 10.6791C19.7269 10.6792 19.7121 10.6823 19.6982 10.6883C19.6844 10.6942 19.6718 10.7028 19.6613 10.7136C19.6508 10.7243 19.6426 10.7371 19.637 10.7511C19.6315 10.7651 19.6287 10.78 19.629 10.7951C19.629 10.8571 19.679 10.9051 19.742 10.9051C19.7565 10.9052 19.7709 10.9025 19.7844 10.897C19.7979 10.8916 19.8101 10.8835 19.8204 10.8732C19.8307 10.863 19.8389 10.8508 19.8445 10.8374C19.8501 10.824 19.853 10.8096 19.853 10.7951C19.8533 10.7654 19.8419 10.7367 19.8214 10.7152C19.8008 10.6938 19.7727 10.6811 19.743 10.6801L19.742 10.6791ZM28.262 10.6791C28.2469 10.6791 28.2319 10.6821 28.2179 10.688C28.2039 10.6938 28.1913 10.7024 28.1807 10.7132C28.1701 10.724 28.1617 10.7368 28.1561 10.7509C28.1505 10.7649 28.1477 10.78 28.148 10.7951C28.148 10.8571 28.199 10.9051 28.262 10.9051C28.2765 10.9052 28.2909 10.9025 28.3044 10.897C28.3179 10.8916 28.3301 10.8835 28.3404 10.8732C28.3507 10.863 28.3589 10.8508 28.3645 10.8374C28.3701 10.824 28.373 10.8096 28.373 10.7951C28.3733 10.7652 28.3618 10.7364 28.341 10.7149C28.3203 10.6934 28.2919 10.6809 28.262 10.6801V10.6791ZM19.742 11.2421C19.712 11.2421 19.6833 11.254 19.6621 11.2752C19.6409 11.2964 19.629 11.3251 19.629 11.3551C19.629 11.3851 19.6409 11.4138 19.6621 11.435C19.6833 11.4562 19.712 11.4681 19.742 11.4681C19.803 11.4681 19.852 11.4171 19.853 11.3551C19.8533 11.3256 19.8419 11.2971 19.8213 11.276C19.8007 11.2548 19.7725 11.2426 19.743 11.2421H19.742ZM28.262 11.2421C28.232 11.2421 28.2033 11.254 28.1821 11.2752C28.1609 11.2964 28.149 11.3251 28.149 11.3551C28.149 11.3851 28.1609 11.4138 28.1821 11.435C28.2033 11.4562 28.232 11.4681 28.262 11.4681C28.322 11.4681 28.372 11.4171 28.373 11.3551C28.3731 11.3404 28.3704 11.3258 28.3649 11.3122C28.3594 11.2985 28.3512 11.2861 28.3409 11.2756C28.3306 11.2651 28.3183 11.2568 28.3048 11.251C28.2912 11.2453 28.2767 11.2422 28.262 11.2421ZM19.732 11.8051C19.7032 11.8074 19.6763 11.8205 19.6568 11.8419C19.6373 11.8632 19.6267 11.8912 19.627 11.9201C19.627 11.9821 19.677 12.0341 19.74 12.0331C19.755 12.0326 19.7697 12.0291 19.7833 12.0229C19.797 12.0167 19.8092 12.0078 19.8194 11.9969C19.8297 11.9859 19.8376 11.9731 19.8429 11.959C19.8481 11.945 19.8505 11.9301 19.85 11.9151C19.8495 11.9001 19.846 11.8854 19.8398 11.8718C19.8336 11.8582 19.8247 11.8459 19.8138 11.8357C19.8028 11.8255 19.79 11.8175 19.7759 11.8123C19.7619 11.807 19.747 11.8046 19.732 11.8051ZM28.252 11.8051C28.2232 11.8074 28.1963 11.8205 28.1768 11.8419C28.1573 11.8632 28.1467 11.8912 28.147 11.9201C28.147 11.9821 28.197 12.0341 28.26 12.0331C28.275 12.0326 28.2897 12.0291 28.3033 12.0229C28.317 12.0167 28.3292 12.0078 28.3394 11.9969C28.3497 11.9859 28.3576 11.9731 28.3629 11.959C28.3681 11.945 28.3705 11.9301 28.37 11.9151C28.3695 11.9001 28.366 11.8854 28.3598 11.8718C28.3536 11.8582 28.3447 11.8459 28.3338 11.8357C28.3228 11.8255 28.31 11.8175 28.2959 11.8123C28.2819 11.807 28.267 11.8046 28.252 11.8051ZM16.375 11.9201C16.1616 11.9148 15.9493 11.9522 15.7505 12.0302C15.5518 12.1082 15.3707 12.2251 15.2179 12.3742C15.065 12.5232 14.9436 12.7014 14.8607 12.8981C14.7777 13.0948 14.735 13.3061 14.735 13.5196C14.735 13.7331 14.7777 13.9444 14.8607 14.1411C14.9436 14.3378 15.065 14.516 15.2179 14.665C15.3707 14.8141 15.5518 14.931 15.7505 15.009C15.9493 15.087 16.1616 15.1244 16.375 15.1191C16.7993 15.1191 17.2063 14.9505 17.5064 14.6505C17.8064 14.3504 17.975 13.9434 17.975 13.5191C17.975 13.0948 17.8064 12.6878 17.5064 12.3877C17.2063 12.0877 16.7993 11.9191 16.375 11.9191V11.9201ZM24 11.9201C23.7866 11.9148 23.5743 11.9522 23.3755 12.0302C23.1768 12.1082 22.9957 12.2251 22.8429 12.3742C22.69 12.5232 22.5686 12.7014 22.4857 12.8981C22.4027 13.0948 22.36 13.3061 22.36 13.5196C22.36 13.7331 22.4027 13.9444 22.4857 14.1411C22.5686 14.3378 22.69 14.516 22.8429 14.665C22.9957 14.8141 23.1768 14.931 23.3755 15.009C23.5743 15.087 23.7866 15.1244 24 15.1191C24.4243 15.1191 24.8313 14.9505 25.1314 14.6505C25.4314 14.3504 25.6 13.9434 25.6 13.5191C25.6 13.0948 25.4314 12.6878 25.1314 12.3877C24.8313 12.0877 24.4243 11.9191 24 11.9191V11.9201ZM31.625 11.9201C31.4116 11.9148 31.1993 11.9522 31.0005 12.0302C30.8018 12.1082 30.6207 12.2251 30.4679 12.3742C30.315 12.5232 30.1936 12.7014 30.1107 12.8981C30.0277 13.0948 29.985 13.3061 29.985 13.5196C29.985 13.7331 30.0277 13.9444 30.1107 14.1411C30.1936 14.3378 30.315 14.516 30.4679 14.665C30.6207 14.8141 30.8018 14.931 31.0005 15.009C31.1993 15.087 31.4116 15.1244 31.625 15.1191C32.0493 15.1191 32.4563 14.9505 32.7564 14.6505C33.0564 14.3504 33.225 13.9434 33.225 13.5191C33.225 13.0948 33.0564 12.6878 32.7564 12.3877C32.4563 12.0877 32.0493 11.9191 31.625 11.9191V11.9201ZM19.732 12.3671C19.7034 12.3689 19.6765 12.3816 19.6569 12.4026C19.6374 12.4237 19.6267 12.4514 19.627 12.4801C19.627 12.5431 19.677 12.5971 19.74 12.5961C19.7701 12.5951 19.7986 12.5824 19.8195 12.5607C19.8403 12.5391 19.852 12.5102 19.852 12.4801C19.8522 12.4646 19.8491 12.4493 19.8431 12.435C19.837 12.4207 19.8281 12.4079 19.8168 12.3973C19.8055 12.3867 19.7922 12.3785 19.7776 12.3733C19.763 12.3681 19.7475 12.366 19.732 12.3671ZM28.252 12.3671C28.2234 12.3689 28.1965 12.3816 28.1769 12.4026C28.1574 12.4237 28.1467 12.4514 28.147 12.4801C28.147 12.5431 28.197 12.5971 28.26 12.5961C28.321 12.5961 28.37 12.5421 28.371 12.4801C28.3712 12.4647 28.3682 12.4494 28.3622 12.4353C28.3562 12.4211 28.3473 12.4083 28.3361 12.3977C28.325 12.3871 28.3117 12.3789 28.2973 12.3736C28.2828 12.3684 28.2674 12.3661 28.252 12.3671ZM19.732 12.9301C19.7173 12.9311 19.7029 12.935 19.6897 12.9415C19.6765 12.948 19.6647 12.9571 19.655 12.9682C19.6453 12.9793 19.6379 12.9922 19.6332 13.0062C19.6284 13.0201 19.6265 13.0349 19.6275 13.0496C19.6285 13.0643 19.6324 13.0787 19.6389 13.0919C19.6454 13.1051 19.6545 13.1169 19.6656 13.1266C19.6767 13.1363 19.6896 13.1437 19.7036 13.1484C19.7175 13.1532 19.7323 13.1551 19.747 13.1541C19.7767 13.1521 19.8044 13.1384 19.824 13.116C19.8436 13.0936 19.8535 13.0643 19.8515 13.0346C19.8495 13.0049 19.8358 12.9772 19.8134 12.9576C19.791 12.938 19.7617 12.9281 19.732 12.9301ZM28.252 12.9301C28.2361 12.9292 28.2201 12.9317 28.2052 12.9375C28.1903 12.9432 28.1768 12.952 28.1656 12.9633C28.1543 12.9746 28.1456 12.9882 28.14 13.0032C28.1344 13.0181 28.132 13.0341 28.133 13.05C28.134 13.0659 28.1383 13.0814 28.1458 13.0956C28.1532 13.1097 28.1635 13.1221 28.1761 13.1319C28.1887 13.1418 28.2032 13.1488 28.2187 13.1526C28.2342 13.1565 28.2503 13.157 28.266 13.1541C28.2932 13.1491 28.3177 13.1344 28.3347 13.1126C28.3518 13.0908 28.3603 13.0635 28.3585 13.0359C28.3568 13.0083 28.345 12.9822 28.3254 12.9627C28.3057 12.9432 28.2796 12.9316 28.252 12.9301ZM19.732 13.4921C19.7172 13.4931 19.7028 13.497 19.6895 13.5035C19.6762 13.5101 19.6644 13.5192 19.6546 13.5304C19.6449 13.5415 19.6374 13.5545 19.6327 13.5685C19.628 13.5825 19.626 13.5973 19.627 13.6121C19.628 13.6269 19.6319 13.6413 19.6384 13.6546C19.645 13.6679 19.6541 13.6797 19.6653 13.6895C19.6764 13.6992 19.6894 13.7067 19.7034 13.7114C19.7174 13.7162 19.7322 13.7181 19.747 13.7171C19.7768 13.7151 19.8047 13.7014 19.8244 13.6789C19.844 13.6563 19.854 13.6269 19.852 13.5971C19.85 13.5673 19.8363 13.5394 19.8137 13.5198C19.7912 13.5001 19.7618 13.4901 19.732 13.4921ZM28.252 13.4921C28.2365 13.492 28.2211 13.495 28.2068 13.5011C28.1926 13.5072 28.1797 13.5161 28.169 13.5274C28.1583 13.5386 28.1501 13.552 28.1448 13.5665C28.1395 13.5811 28.1373 13.5966 28.1382 13.6121C28.1392 13.6276 28.1434 13.6427 28.1504 13.6565C28.1575 13.6703 28.1673 13.6826 28.1793 13.6924C28.1913 13.7023 28.2052 13.7095 28.2201 13.7138C28.235 13.718 28.2506 13.7192 28.266 13.7171C28.2943 13.7133 28.3202 13.6989 28.3383 13.6768C28.3565 13.6548 28.3656 13.6266 28.3638 13.5981C28.362 13.5696 28.3495 13.5428 28.3288 13.5231C28.308 13.5034 28.2806 13.4923 28.252 13.4921ZM19.732 14.0551C19.7173 14.0561 19.7029 14.06 19.6897 14.0665C19.6765 14.073 19.6647 14.0821 19.655 14.0932C19.6453 14.1043 19.6379 14.1172 19.6332 14.1312C19.6284 14.1451 19.6265 14.1599 19.6275 14.1746C19.6285 14.1893 19.6324 14.2037 19.6389 14.2169C19.6454 14.2301 19.6545 14.2419 19.6656 14.2516C19.6767 14.2613 19.6896 14.2687 19.7036 14.2734C19.7175 14.2782 19.7323 14.2801 19.747 14.2791C19.7767 14.2771 19.8044 14.2634 19.824 14.241C19.8436 14.2186 19.8535 14.1893 19.8515 14.1596C19.8495 14.1299 19.8358 14.1022 19.8134 14.0826C19.791 14.063 19.7617 14.0531 19.732 14.0551ZM28.252 14.0551C28.2361 14.0542 28.2201 14.0567 28.2052 14.0625C28.1903 14.0682 28.1768 14.077 28.1656 14.0883C28.1543 14.0996 28.1456 14.1132 28.14 14.1282C28.1344 14.1431 28.132 14.1591 28.133 14.175C28.134 14.1909 28.1383 14.2064 28.1458 14.2206C28.1532 14.2347 28.1635 14.2471 28.1761 14.2569C28.1887 14.2668 28.2032 14.2738 28.2187 14.2776C28.2342 14.2815 28.2503 14.282 28.266 14.2791C28.2932 14.2741 28.3177 14.2594 28.3347 14.2376C28.3518 14.2158 28.3603 14.1885 28.3585 14.1609C28.3568 14.1333 28.345 14.1072 28.3254 14.0877C28.3057 14.0682 28.2796 14.0566 28.252 14.0551ZM19.721 14.6171C19.6947 14.621 19.6707 14.6342 19.6534 14.6545C19.6361 14.6747 19.6267 14.7005 19.627 14.7271C19.627 14.7891 19.677 14.8421 19.74 14.8421C19.7701 14.8416 19.7987 14.8292 19.8197 14.8077C19.8407 14.7861 19.8523 14.7572 19.852 14.7271C19.852 14.7125 19.8491 14.698 19.8434 14.6845C19.8378 14.6711 19.8295 14.6588 19.8191 14.6486C19.8087 14.6384 19.7963 14.6303 19.7827 14.6249C19.7691 14.6195 19.7546 14.6168 19.74 14.6171H19.721ZM28.241 14.6171C28.2145 14.6208 28.1902 14.6339 28.1727 14.6542C28.1553 14.6744 28.1458 14.7004 28.146 14.7271C28.146 14.7891 28.197 14.8421 28.26 14.8421C28.2899 14.8413 28.3183 14.8288 28.339 14.8073C28.3598 14.7858 28.3713 14.757 28.371 14.7271C28.371 14.7126 28.3681 14.6982 28.3625 14.6848C28.3569 14.6714 28.3487 14.6592 28.3384 14.649C28.3281 14.6387 28.3159 14.6307 28.3024 14.6252C28.2889 14.6197 28.2745 14.617 28.26 14.6171H28.24H28.241ZM19.721 15.1801C19.6946 15.1838 19.6704 15.197 19.6531 15.2173C19.6358 15.2375 19.6265 15.2634 19.627 15.2901C19.627 15.3511 19.677 15.4031 19.74 15.4021C19.7697 15.4016 19.798 15.3895 19.819 15.3684C19.8399 15.3473 19.8517 15.3188 19.852 15.2891C19.852 15.2745 19.8491 15.26 19.8434 15.2465C19.8378 15.2331 19.8295 15.2208 19.8191 15.2106C19.8087 15.2004 19.7963 15.1923 19.7827 15.1869C19.7691 15.1815 19.7546 15.1788 19.74 15.1791H19.721V15.1801ZM28.241 15.1801C28.2144 15.1835 28.19 15.1967 28.1725 15.217C28.155 15.2373 28.1455 15.2633 28.146 15.2901C28.147 15.3511 28.197 15.4031 28.26 15.4021C28.321 15.4021 28.37 15.3501 28.371 15.2891C28.371 15.2746 28.3681 15.2602 28.3625 15.2468C28.3569 15.2334 28.3487 15.2212 28.3384 15.211C28.3281 15.2007 28.3159 15.1927 28.3024 15.1872C28.2889 15.1817 28.2745 15.179 28.26 15.1791H28.24L28.241 15.1801ZM19.742 15.7401C19.7271 15.7401 19.7123 15.7431 19.6985 15.7488C19.6847 15.7545 19.6722 15.763 19.6617 15.7736C19.6512 15.7842 19.6429 15.7967 19.6373 15.8106C19.6317 15.8244 19.6289 15.8392 19.629 15.8541C19.629 15.9161 19.679 15.9661 19.742 15.9641C19.7691 15.9605 19.794 15.9471 19.812 15.9265C19.8301 15.9059 19.84 15.8795 19.84 15.8521C19.84 15.8247 19.8301 15.7983 19.812 15.7777C19.794 15.7571 19.7691 15.7437 19.742 15.7401ZM28.262 15.7401C28.247 15.74 28.2321 15.7428 28.2182 15.7485C28.2043 15.7542 28.1917 15.7626 28.1811 15.7732C28.1705 15.7838 28.1621 15.7964 28.1564 15.8103C28.1507 15.8242 28.1479 15.8391 28.148 15.8541C28.148 15.9161 28.199 15.9661 28.262 15.9641C28.2891 15.9605 28.314 15.9471 28.332 15.9265C28.3501 15.9059 28.36 15.8795 28.36 15.8521C28.36 15.8247 28.3501 15.7983 28.332 15.7777C28.314 15.7571 28.2891 15.7437 28.262 15.7401ZM19.732 16.3031C19.7034 16.3049 19.6765 16.3176 19.6569 16.3386C19.6374 16.3597 19.6267 16.3874 19.627 16.4161C19.627 16.4459 19.6389 16.4746 19.66 16.4957C19.681 16.5168 19.7097 16.5286 19.7395 16.5286C19.7693 16.5286 19.798 16.5168 19.819 16.4957C19.8401 16.4746 19.852 16.4459 19.852 16.4161C19.852 16.3863 19.8402 16.3577 19.8193 16.3366C19.7983 16.3154 19.7698 16.3034 19.74 16.3031H19.732ZM28.252 16.3031C28.2227 16.3042 28.1949 16.3167 28.1747 16.338C28.1545 16.3593 28.1435 16.3877 28.144 16.417C28.1445 16.4464 28.1566 16.4744 28.1775 16.4949C28.1985 16.5155 28.2266 16.527 28.256 16.527C28.2854 16.527 28.3135 16.5155 28.3345 16.4949C28.3554 16.4744 28.3675 16.4464 28.368 16.417C28.3685 16.3877 28.3575 16.3593 28.3373 16.338C28.3171 16.3167 28.2893 16.3042 28.26 16.3031H28.252ZM19.732 16.8651C19.7032 16.8669 19.6762 16.8798 19.6566 16.901C19.637 16.9223 19.6264 16.9502 19.627 16.9791C19.627 17.0089 19.6389 17.0376 19.66 17.0587C19.681 17.0798 19.7097 17.0916 19.7395 17.0916C19.7693 17.0916 19.798 17.0798 19.819 17.0587C19.8401 17.0376 19.852 17.0089 19.852 16.9791C19.8521 16.9643 19.8493 16.9495 19.8438 16.9358C19.8382 16.922 19.83 16.9095 19.8196 16.8989C19.8092 16.8883 19.7968 16.8799 19.7832 16.8741C19.7695 16.8683 19.7548 16.8652 19.74 16.8651H19.732ZM28.252 16.8651C28.2227 16.8662 28.1949 16.8787 28.1747 16.9C28.1545 16.9213 28.1435 16.9497 28.144 16.979C28.1445 17.0084 28.1566 17.0364 28.1775 17.0569C28.1985 17.0775 28.2266 17.089 28.256 17.089C28.2854 17.089 28.3135 17.0775 28.3345 17.0569C28.3554 17.0364 28.3675 17.0084 28.368 16.979C28.3685 16.9497 28.3575 16.9213 28.3373 16.9C28.3171 16.8787 28.2893 16.8662 28.26 16.8651H28.252ZM16.375 17.1551C16.1603 17.1475 15.9462 17.1832 15.7456 17.2602C15.5449 17.3371 15.3618 17.4537 15.2072 17.6029C15.0526 17.7521 14.9297 17.931 14.8457 18.1288C14.7617 18.3266 14.7184 18.5392 14.7184 18.7541C14.7184 18.969 14.7617 19.1817 14.8457 19.3794C14.9297 19.5772 15.0526 19.7561 15.2072 19.9053C15.3618 20.0545 15.5449 20.1711 15.7456 20.248C15.9462 20.325 16.1603 20.3607 16.375 20.3531C16.7923 20.3427 17.189 20.1696 17.4804 19.8707C17.7719 19.5719 17.935 19.171 17.935 18.7536C17.935 18.3362 17.7719 17.9353 17.4804 17.6365C17.189 17.3376 16.7923 17.1645 16.375 17.1541V17.1551ZM24 17.1551C23.7853 17.1475 23.5712 17.1832 23.3706 17.2602C23.1699 17.3371 22.9868 17.4537 22.8322 17.6029C22.6776 17.7521 22.5547 17.931 22.4707 18.1288C22.3867 18.3266 22.3434 18.5392 22.3434 18.7541C22.3434 18.969 22.3867 19.1817 22.4707 19.3794C22.5547 19.5772 22.6776 19.7561 22.8322 19.9053C22.9868 20.0545 23.1699 20.1711 23.3706 20.248C23.5712 20.325 23.7853 20.3607 24 20.3531C24.4173 20.3427 24.814 20.1696 25.1054 19.8707C25.3969 19.5719 25.56 19.171 25.56 18.7536C25.56 18.3362 25.3969 17.9353 25.1054 17.6365C24.814 17.3376 24.4173 17.1645 24 17.1541V17.1551ZM31.625 17.1551C31.4103 17.1475 31.1962 17.1832 30.9956 17.2602C30.7949 17.3371 30.6118 17.4537 30.4572 17.6029C30.3026 17.7521 30.1797 17.931 30.0957 18.1288C30.0117 18.3266 29.9684 18.5392 29.9684 18.7541C29.9684 18.969 30.0117 19.1817 30.0957 19.3794C30.1797 19.5772 30.3026 19.7561 30.4572 19.9053C30.6118 20.0545 30.7949 20.1711 30.9956 20.248C31.1962 20.325 31.4103 20.3607 31.625 20.3531C32.0423 20.3427 32.439 20.1696 32.7304 19.8707C33.0219 19.5719 33.185 19.171 33.185 18.7536C33.185 18.3362 33.0219 17.9353 32.7304 17.6365C32.439 17.3376 32.0423 17.1645 31.625 17.1541V17.1551ZM19.732 17.4281C19.7037 17.4299 19.6771 17.4423 19.6576 17.4629C19.6381 17.4835 19.6272 17.5107 19.627 17.5391C19.627 17.6021 19.677 17.6551 19.74 17.6541C19.7701 17.6536 19.7987 17.6412 19.8197 17.6197C19.8407 17.5981 19.8523 17.5692 19.852 17.5391C19.8517 17.5096 19.8398 17.4813 19.8188 17.4606C19.7979 17.4398 19.7695 17.4281 19.74 17.4281H19.732ZM28.252 17.4281C28.2238 17.4301 28.1973 17.4426 28.1779 17.4632C28.1585 17.4837 28.1474 17.5108 28.147 17.5391C28.146 17.6021 28.197 17.6551 28.26 17.6541C28.2899 17.6533 28.3183 17.6408 28.339 17.6193C28.3598 17.5978 28.3713 17.569 28.371 17.5391C28.3707 17.5097 28.359 17.4817 28.3382 17.4609C28.3174 17.4401 28.2894 17.4284 28.26 17.4281H28.252ZM19.732 17.9901C19.7172 17.9911 19.7028 17.995 19.6895 18.0015C19.6762 18.0081 19.6644 18.0172 19.6546 18.0284C19.6449 18.0395 19.6374 18.0525 19.6327 18.0665C19.628 18.0805 19.626 18.0953 19.627 18.1101C19.628 18.1249 19.6319 18.1393 19.6384 18.1526C19.645 18.1659 19.6541 18.1777 19.6653 18.1875C19.6764 18.1972 19.6894 18.2047 19.7034 18.2094C19.7174 18.2142 19.7322 18.2161 19.747 18.2151C19.7768 18.2131 19.8047 18.1994 19.8244 18.1768C19.844 18.1543 19.854 18.1249 19.852 18.0951C19.85 18.0653 19.8363 18.0374 19.8137 18.0177C19.7912 17.9981 19.7618 17.9881 19.732 17.9901ZM28.252 17.9901C28.2365 17.99 28.2211 17.993 28.2068 17.9991C28.1926 18.0052 28.1797 18.0141 28.169 18.0254C28.1583 18.0366 28.1501 18.05 28.1448 18.0645C28.1395 18.0791 28.1373 18.0946 28.1382 18.1101C28.1392 18.1256 28.1434 18.1407 28.1504 18.1545C28.1575 18.1683 28.1673 18.1806 28.1793 18.1904C28.1913 18.2003 28.2052 18.2075 28.2201 18.2118C28.235 18.216 28.2506 18.2172 28.266 18.2151C28.2943 18.2113 28.3202 18.1969 28.3383 18.1748C28.3565 18.1528 28.3656 18.1246 28.3638 18.0961C28.362 18.0675 28.3495 18.0407 28.3288 18.0211C28.308 18.0014 28.2806 17.9903 28.252 17.9901ZM19.732 18.5531C19.7037 18.5544 19.677 18.5665 19.6574 18.587C19.6379 18.6075 19.627 18.6348 19.627 18.6631C19.627 18.6929 19.6389 18.7216 19.66 18.7427C19.681 18.7638 19.7097 18.7756 19.7395 18.7756C19.7693 18.7756 19.798 18.7638 19.819 18.7427C19.8401 18.7216 19.852 18.6929 19.852 18.6631C19.8521 18.6478 19.8489 18.6326 19.8428 18.6186C19.8366 18.6045 19.8276 18.5919 19.8163 18.5816C19.805 18.5712 19.7917 18.5633 19.7772 18.5584C19.7626 18.5535 19.7473 18.5517 19.732 18.5531ZM28.252 18.5531C28.2237 18.5544 28.197 18.5665 28.1774 18.587C28.1579 18.6075 28.147 18.6348 28.147 18.6631C28.147 18.6928 28.1588 18.7213 28.1798 18.7423C28.2008 18.7633 28.2293 18.7751 28.259 18.7751C28.2887 18.7751 28.3172 18.7633 28.3382 18.7423C28.3592 18.7213 28.371 18.6928 28.371 18.6631C28.3711 18.6479 28.3679 18.6328 28.3619 18.6188C28.3558 18.6049 28.3469 18.5923 28.3357 18.582C28.3245 18.5716 28.3113 18.5637 28.2969 18.5587C28.2825 18.5538 28.2672 18.5519 28.252 18.5531ZM19.721 19.1151C19.6947 19.119 19.6707 19.1322 19.6534 19.1525C19.6361 19.1727 19.6267 19.1985 19.627 19.2251C19.627 19.2549 19.6389 19.2836 19.66 19.3047C19.681 19.3258 19.7097 19.3376 19.7395 19.3376C19.7693 19.3376 19.798 19.3258 19.819 19.3047C19.8401 19.2836 19.852 19.2549 19.852 19.2251C19.852 19.1641 19.802 19.1161 19.74 19.1151H19.721ZM28.241 19.1151C28.2145 19.1187 28.1902 19.1319 28.1727 19.1522C28.1553 19.1724 28.1458 19.1984 28.146 19.2251C28.146 19.2549 28.1579 19.2836 28.179 19.3047C28.2 19.3258 28.2287 19.3376 28.2585 19.3376C28.2883 19.3376 28.317 19.3258 28.338 19.3047C28.3591 19.2836 28.371 19.2549 28.371 19.2251C28.371 19.1641 28.321 19.1161 28.26 19.1151H28.24H28.241ZM19.742 19.6751C19.7263 19.6736 19.7105 19.6754 19.6956 19.6804C19.6807 19.6854 19.667 19.6934 19.6553 19.704C19.6437 19.7146 19.6344 19.7275 19.628 19.7419C19.6217 19.7563 19.6184 19.7719 19.6184 19.7876C19.6184 19.8033 19.6217 19.8189 19.628 19.8333C19.6344 19.8477 19.6437 19.8606 19.6553 19.8712C19.667 19.8818 19.6807 19.8898 19.6956 19.8948C19.7105 19.8998 19.7263 19.9016 19.742 19.9001C19.803 19.9001 19.852 19.8501 19.853 19.7901C19.8533 19.7754 19.8506 19.7608 19.8452 19.7471C19.8399 19.7334 19.8318 19.7209 19.8216 19.7103C19.8114 19.6997 19.7992 19.6913 19.7857 19.6854C19.7722 19.6795 19.7577 19.6764 19.743 19.6761L19.742 19.6751ZM28.262 19.6751C28.2398 19.6749 28.2181 19.6813 28.1996 19.6934C28.1811 19.7056 28.1666 19.7229 28.1579 19.7433C28.1493 19.7637 28.1468 19.7862 28.151 19.808C28.1551 19.8297 28.1656 19.8498 28.1811 19.8656C28.1966 19.8814 28.2165 19.8922 28.2382 19.8967C28.2599 19.9013 28.2824 19.8992 28.3029 19.891C28.3235 19.8827 28.3411 19.8685 28.3536 19.8502C28.366 19.8318 28.3728 19.8103 28.373 19.7881C28.373 19.7586 28.3613 19.7302 28.3405 19.7093C28.3198 19.6883 28.2915 19.6764 28.262 19.6761V19.6751ZM19.732 20.2381C19.7032 20.2399 19.6762 20.2528 19.6566 20.274C19.637 20.2952 19.6264 20.3232 19.627 20.3521C19.627 20.4131 19.677 20.4621 19.74 20.4611C19.7546 20.4614 19.7691 20.4587 19.7827 20.4533C19.7963 20.4479 19.8087 20.4398 19.8191 20.4296C19.8295 20.4194 19.8378 20.4071 19.8434 20.3937C19.8491 20.3802 19.852 20.3657 19.852 20.3511C19.8522 20.3356 19.8491 20.3203 19.8431 20.306C19.837 20.2917 19.8281 20.2789 19.8168 20.2683C19.8055 20.2577 19.7922 20.2495 19.7776 20.2443C19.763 20.2391 19.7475 20.237 19.732 20.2381ZM28.252 20.2381C28.2232 20.2399 28.1962 20.2528 28.1766 20.274C28.157 20.2952 28.1464 20.3232 28.147 20.3521C28.147 20.4131 28.197 20.4621 28.26 20.4611C28.2745 20.4612 28.2889 20.4585 28.3024 20.453C28.3159 20.4475 28.3281 20.4395 28.3384 20.4292C28.3487 20.419 28.3569 20.4068 28.3625 20.3934C28.3681 20.38 28.371 20.3656 28.371 20.3511C28.3712 20.3357 28.3682 20.3204 28.3622 20.3062C28.3562 20.2921 28.3473 20.2793 28.3361 20.2687C28.325 20.2581 28.3117 20.2499 28.2973 20.2446C28.2828 20.2394 28.2674 20.2371 28.252 20.2381ZM19.732 20.8011C19.7034 20.8029 19.6765 20.8156 19.6569 20.8366C19.6374 20.8577 19.6267 20.8854 19.627 20.9141C19.627 20.9761 19.677 21.0241 19.74 21.0241C19.7546 21.0244 19.7691 21.0217 19.7827 21.0163C19.7963 21.0109 19.8087 21.0028 19.8191 20.9926C19.8295 20.9824 19.8378 20.9701 19.8434 20.9567C19.8491 20.9432 19.852 20.9287 19.852 20.9141C19.8522 20.8986 19.8491 20.8833 19.8431 20.869C19.837 20.8547 19.8281 20.8419 19.8168 20.8313C19.8055 20.8207 19.7922 20.8125 19.7776 20.8073C19.763 20.8021 19.7475 20.8 19.732 20.8011ZM28.252 20.8011C28.2234 20.8029 28.1965 20.8156 28.1769 20.8366C28.1574 20.8577 28.1467 20.8854 28.147 20.9141C28.147 20.9761 28.197 21.0241 28.26 21.0241C28.2745 21.0242 28.2889 21.0215 28.3024 21.016C28.3159 21.0105 28.3281 21.0025 28.3384 20.9922C28.3487 20.982 28.3569 20.9698 28.3625 20.9564C28.3681 20.943 28.371 20.9286 28.371 20.9141C28.3712 20.8987 28.3682 20.8834 28.3622 20.8692C28.3562 20.8551 28.3473 20.8423 28.3361 20.8317C28.325 20.8211 28.3117 20.8129 28.2973 20.8076C28.2828 20.8024 28.2674 20.8001 28.252 20.8011ZM19.732 21.3631C19.7032 21.3649 19.6762 21.3778 19.6566 21.399C19.637 21.4202 19.6264 21.4482 19.627 21.4771C19.627 21.5381 19.677 21.5871 19.74 21.5861C19.7546 21.5864 19.7691 21.5837 19.7827 21.5783C19.7963 21.5729 19.8087 21.5648 19.8191 21.5546C19.8295 21.5444 19.8378 21.5321 19.8434 21.5187C19.8491 21.5052 19.852 21.4907 19.852 21.4761C19.8522 21.4606 19.8491 21.4453 19.8431 21.431C19.837 21.4167 19.8281 21.4039 19.8168 21.3933C19.8055 21.3827 19.7922 21.3745 19.7776 21.3693C19.763 21.3641 19.7475 21.362 19.732 21.3631ZM28.252 21.3631C28.2232 21.3649 28.1962 21.3778 28.1766 21.399C28.157 21.4202 28.1464 21.4482 28.147 21.4771C28.147 21.5381 28.197 21.5871 28.26 21.5861C28.2745 21.5862 28.2889 21.5835 28.3024 21.578C28.3159 21.5725 28.3281 21.5645 28.3384 21.5542C28.3487 21.544 28.3569 21.5318 28.3625 21.5184C28.3681 21.505 28.371 21.4906 28.371 21.4761C28.3712 21.4607 28.3682 21.4454 28.3622 21.4312C28.3562 21.4171 28.3473 21.4043 28.3361 21.3937C28.325 21.3831 28.3117 21.3749 28.2973 21.3696C28.2828 21.3644 28.2674 21.3621 28.252 21.3631ZM19.732 21.9261C19.7023 21.928 19.6745 21.9415 19.6549 21.9639C19.6352 21.9862 19.6251 22.0154 19.627 22.0451C19.6289 22.0748 19.6424 22.1026 19.6648 22.1222C19.6871 22.1419 19.7163 22.152 19.746 22.1501C19.7607 22.1492 19.7751 22.1454 19.7883 22.1389C19.8016 22.1324 19.8134 22.1234 19.8231 22.1123C19.8329 22.1013 19.8404 22.0884 19.8452 22.0745C19.8499 22.0606 19.8519 22.0458 19.851 22.0311C19.8501 22.0164 19.8463 22.002 19.8398 21.9888C19.8333 21.9755 19.8243 21.9637 19.8132 21.954C19.8022 21.9442 19.7893 21.9367 19.7754 21.9319C19.7615 21.9272 19.7467 21.9252 19.732 21.9261ZM28.252 21.9261C28.2373 21.927 28.2229 21.9308 28.2097 21.9373C28.1964 21.9438 28.1846 21.9528 28.1749 21.9639C28.1651 21.9749 28.1576 21.9878 28.1528 22.0017C28.1481 22.0156 28.1461 22.0304 28.147 22.0451C28.1479 22.0598 28.1517 22.0742 28.1582 22.0874C28.1647 22.1007 28.1737 22.1125 28.1848 22.1222C28.1958 22.132 28.2087 22.1395 28.2226 22.1443C28.2365 22.149 28.2513 22.151 28.266 22.1501C28.2957 22.1482 28.3235 22.1347 28.3431 22.1123C28.3628 22.09 28.3729 22.0608 28.371 22.0311C28.3691 22.0014 28.3556 21.9736 28.3332 21.954C28.3109 21.9343 28.2817 21.9242 28.252 21.9261ZM16.375 22.3891C16.1603 22.3815 15.9462 22.4172 15.7456 22.4942C15.5449 22.5711 15.3618 22.6877 15.2072 22.8369C15.0526 22.9861 14.9297 23.165 14.8457 23.3628C14.7617 23.5606 14.7184 23.7732 14.7184 23.9881C14.7184 24.203 14.7617 24.4157 14.8457 24.6134C14.9297 24.8112 15.0526 24.9901 15.2072 25.1393C15.3618 25.2885 15.5449 25.4051 15.7456 25.482C15.9462 25.559 16.1603 25.5947 16.375 25.5871C16.7893 25.5724 17.1817 25.3976 17.4696 25.0993C17.7575 24.801 17.9184 24.4027 17.9184 23.9881C17.9184 23.5736 17.7575 23.1752 17.4696 22.8769C17.1817 22.5786 16.7893 22.4038 16.375 22.3891ZM24 22.3891C23.7853 22.3815 23.5712 22.4172 23.3706 22.4942C23.1699 22.5711 22.9868 22.6877 22.8322 22.8369C22.6776 22.9861 22.5547 23.165 22.4707 23.3628C22.3867 23.5606 22.3434 23.7732 22.3434 23.9881C22.3434 24.203 22.3867 24.4157 22.4707 24.6134C22.5547 24.8112 22.6776 24.9901 22.8322 25.1393C22.9868 25.2885 23.1699 25.4051 23.3706 25.482C23.5712 25.559 23.7853 25.5947 24 25.5871C24.4143 25.5724 24.8067 25.3976 25.0946 25.0993C25.3825 24.801 25.5434 24.4027 25.5434 23.9881C25.5434 23.5736 25.3825 23.1752 25.0946 22.8769C24.8067 22.5786 24.4143 22.4038 24 22.3891ZM31.625 22.3891C31.4103 22.3815 31.1962 22.4172 30.9956 22.4942C30.7949 22.5711 30.6118 22.6877 30.4572 22.8369C30.3026 22.9861 30.1797 23.165 30.0957 23.3628C30.0117 23.5606 29.9684 23.7732 29.9684 23.9881C29.9684 24.203 30.0117 24.4157 30.0957 24.6134C30.1797 24.8112 30.3026 24.9901 30.4572 25.1393C30.6118 25.2885 30.7949 25.4051 30.9956 25.482C31.1962 25.559 31.4103 25.5947 31.625 25.5871C32.0393 25.5724 32.4317 25.3976 32.7196 25.0993C33.0075 24.801 33.1684 24.4027 33.1684 23.9881C33.1684 23.5736 33.0075 23.1752 32.7196 22.8769C32.4317 22.5786 32.0393 22.4038 31.625 22.3891ZM19.732 22.4891C19.7027 22.4902 19.6749 22.5027 19.6547 22.524C19.6345 22.5453 19.6235 22.5737 19.624 22.603C19.6245 22.6324 19.6366 22.6604 19.6575 22.6809C19.6785 22.7015 19.7066 22.713 19.736 22.713C19.7654 22.713 19.7935 22.7015 19.8145 22.6809C19.8354 22.6604 19.8475 22.6324 19.848 22.603C19.8485 22.5737 19.8375 22.5453 19.8173 22.524C19.7971 22.5027 19.7693 22.4902 19.74 22.4891C19.7373 22.489 19.7347 22.489 19.732 22.4891ZM28.252 22.4891C28.2366 22.4889 28.2213 22.4918 28.2071 22.4977C28.1929 22.5036 28.18 22.5124 28.1693 22.5236C28.1587 22.5347 28.1504 22.5479 28.1451 22.5624C28.1398 22.5768 28.1375 22.5922 28.1384 22.6076C28.1393 22.623 28.1433 22.638 28.1503 22.6518C28.1573 22.6655 28.167 22.6777 28.1789 22.6875C28.1908 22.6973 28.2046 22.7045 28.2194 22.7088C28.2342 22.713 28.2497 22.7141 28.265 22.7121C28.2797 22.7112 28.2941 22.7075 28.3074 22.7011C28.3206 22.6947 28.3325 22.6857 28.3423 22.6747C28.3521 22.6637 28.3596 22.6509 28.3645 22.637C28.3693 22.623 28.3714 22.6083 28.3705 22.5936C28.3696 22.5789 28.3659 22.5645 28.3595 22.5512C28.3531 22.538 28.3441 22.5261 28.3331 22.5163C28.3221 22.5065 28.3093 22.499 28.2954 22.4941C28.2814 22.4893 28.2667 22.4872 28.252 22.4881V22.4891ZM19.732 23.0511C19.7027 23.0522 19.6749 23.0647 19.6547 23.086C19.6345 23.1073 19.6235 23.1357 19.624 23.165C19.6245 23.1944 19.6366 23.2224 19.6575 23.2429C19.6785 23.2635 19.7066 23.275 19.736 23.275C19.7654 23.275 19.7935 23.2635 19.8145 23.2429C19.8354 23.2224 19.8475 23.1944 19.848 23.165C19.8485 23.1357 19.8375 23.1073 19.8173 23.086C19.7971 23.0647 19.7693 23.0522 19.74 23.0511C19.7373 23.051 19.7347 23.051 19.732 23.0511ZM28.252 23.0511C28.2227 23.0522 28.1949 23.0647 28.1747 23.086C28.1545 23.1073 28.1435 23.1357 28.144 23.165C28.1445 23.1944 28.1566 23.2224 28.1775 23.2429C28.1985 23.2635 28.2266 23.275 28.256 23.275C28.2854 23.275 28.3135 23.2635 28.3345 23.2429C28.3554 23.2224 28.3675 23.1944 28.368 23.165C28.3685 23.1357 28.3575 23.1073 28.3373 23.086C28.3171 23.0647 28.2893 23.0522 28.26 23.0511C28.2573 23.051 28.2547 23.051 28.252 23.0511ZM19.721 23.6131C19.6944 23.6172 19.6702 23.6308 19.653 23.6514C19.6357 23.672 19.6264 23.6982 19.627 23.7251C19.627 23.7472 19.6335 23.7688 19.6458 23.7872C19.6581 23.8056 19.6755 23.82 19.6959 23.8285C19.7163 23.837 19.7388 23.8393 19.7605 23.835C19.7822 23.8308 19.8021 23.8202 19.8178 23.8046C19.8335 23.7891 19.8443 23.7692 19.8487 23.7476C19.8532 23.7259 19.8511 23.7034 19.8428 23.6829C19.8344 23.6624 19.8202 23.6449 19.8019 23.6325C19.7837 23.62 19.7621 23.6133 19.74 23.6131H19.721ZM28.241 23.6131C28.2142 23.617 28.1898 23.6305 28.1723 23.6511C28.1548 23.6718 28.1455 23.6981 28.146 23.7251C28.146 23.7472 28.1525 23.7687 28.1647 23.7871C28.177 23.8055 28.1943 23.8198 28.2147 23.8284C28.235 23.8369 28.2575 23.8392 28.2791 23.8351C28.3008 23.8309 28.3208 23.8204 28.3365 23.805C28.3522 23.7895 28.3631 23.7697 28.3676 23.7482C28.3721 23.7266 28.3702 23.7041 28.362 23.6836C28.3539 23.6631 28.3398 23.6455 28.3217 23.6329C28.3035 23.6204 28.2821 23.6135 28.26 23.6131H28.24H28.241ZM19.721 24.1761C19.6945 24.18 19.6703 24.1934 19.653 24.2138C19.6357 24.2343 19.6265 24.2603 19.627 24.2871C19.627 24.3169 19.6389 24.3456 19.66 24.3667C19.681 24.3878 19.7097 24.3996 19.7395 24.3996C19.7693 24.3996 19.798 24.3878 19.819 24.3667C19.8401 24.3456 19.852 24.3169 19.852 24.2871C19.852 24.2261 19.802 24.1771 19.74 24.1761H19.721ZM28.241 24.1761C28.2199 24.1795 28.2003 24.1889 28.1843 24.2032C28.1684 24.2174 28.1569 24.2359 28.1511 24.2565C28.1454 24.2771 28.1456 24.2989 28.1519 24.3193C28.1581 24.3397 28.17 24.358 28.1863 24.3718C28.2025 24.3857 28.2224 24.3946 28.2436 24.3976C28.2647 24.4005 28.2863 24.3974 28.3057 24.3885C28.3251 24.3795 28.3416 24.3653 28.3531 24.3473C28.3647 24.3294 28.3709 24.3085 28.371 24.2871C28.371 24.2261 28.321 24.1771 28.26 24.1761H28.24H28.241ZM19.732 24.7361C19.7032 24.7379 19.6762 24.7508 19.6566 24.772C19.637 24.7933 19.6264 24.8212 19.627 24.8501C19.627 24.8799 19.6389 24.9086 19.66 24.9297C19.681 24.9508 19.7097 24.9626 19.7395 24.9626C19.7693 24.9626 19.798 24.9508 19.819 24.9297C19.8401 24.9086 19.852 24.8799 19.852 24.8501C19.8523 24.8352 19.8496 24.8204 19.8441 24.8066C19.8385 24.7928 19.8303 24.7802 19.8199 24.7696C19.8095 24.759 19.797 24.7506 19.7833 24.7448C19.7696 24.7391 19.7549 24.7361 19.74 24.7361H19.732ZM28.252 24.7361C28.2227 24.7372 28.1949 24.7497 28.1747 24.771C28.1545 24.7923 28.1435 24.8207 28.144 24.85C28.1445 24.8794 28.1566 24.9074 28.1775 24.9279C28.1985 24.9485 28.2266 24.96 28.256 24.96C28.2854 24.96 28.3135 24.9485 28.3345 24.9279C28.3554 24.9074 28.3675 24.8794 28.368 24.85C28.3685 24.8207 28.3575 24.7923 28.3373 24.771C28.3171 24.7497 28.2893 24.7372 28.26 24.7361H28.252ZM19.732 25.2991C19.7034 25.3009 19.6765 25.3136 19.6569 25.3346C19.6374 25.3557 19.6267 25.3834 19.627 25.4121C19.627 25.4741 19.677 25.5241 19.74 25.5231C19.7697 25.5231 19.7982 25.5113 19.8192 25.4903C19.8402 25.4693 19.852 25.4408 19.852 25.4111C19.852 25.3814 19.8402 25.3529 19.8192 25.3319C19.7982 25.3109 19.7697 25.2991 19.74 25.2991H19.732ZM28.252 25.2991C28.2234 25.3009 28.1965 25.3136 28.1769 25.3346C28.1574 25.3557 28.1467 25.3834 28.147 25.4121C28.147 25.4741 28.197 25.5241 28.26 25.5231C28.2897 25.5231 28.3182 25.5113 28.3392 25.4903C28.3602 25.4693 28.372 25.4408 28.372 25.4111C28.372 25.3814 28.3602 25.3529 28.3392 25.3319C28.3182 25.3109 28.2897 25.2991 28.26 25.2991H28.252ZM19.732 25.8611C19.7032 25.8629 19.6762 25.8758 19.6566 25.897C19.637 25.9183 19.6264 25.9462 19.627 25.9751C19.627 26.0371 19.677 26.0871 19.74 26.0851C19.7697 26.0851 19.7982 26.0733 19.8192 26.0523C19.8402 26.0313 19.852 26.0028 19.852 25.9731C19.852 25.9434 19.8402 25.9149 19.8192 25.8939C19.7982 25.8729 19.7697 25.8611 19.74 25.8611C19.7373 25.861 19.7347 25.861 19.732 25.8611ZM28.252 25.8611C28.2232 25.8629 28.1962 25.8758 28.1766 25.897C28.157 25.9183 28.1464 25.9462 28.147 25.9751C28.147 26.0371 28.197 26.0871 28.26 26.0851C28.2897 26.0851 28.3182 26.0733 28.3392 26.0523C28.3602 26.0313 28.372 26.0028 28.372 25.9731C28.372 25.9434 28.3602 25.9149 28.3392 25.8939C28.3182 25.8729 28.2897 25.8611 28.26 25.8611C28.2573 25.861 28.2547 25.861 28.252 25.8611ZM19.732 26.4241C19.7173 26.425 19.7029 26.4288 19.6897 26.4353C19.6764 26.4418 19.6646 26.4508 19.6549 26.4619C19.6451 26.4729 19.6376 26.4858 19.6328 26.4997C19.6281 26.5137 19.6261 26.5284 19.627 26.5431C19.6279 26.5578 19.6317 26.5722 19.6382 26.5854C19.6447 26.5987 19.6537 26.6105 19.6648 26.6202C19.6758 26.63 19.6887 26.6375 19.7026 26.6423C19.7165 26.647 19.7313 26.649 19.746 26.6481C19.7757 26.6462 19.8035 26.6327 19.8231 26.6103C19.8428 26.588 19.8529 26.5588 19.851 26.5291C19.8491 26.4994 19.8356 26.4716 19.8132 26.452C19.7909 26.4323 19.7617 26.4222 19.732 26.4241ZM28.252 26.4241C28.2223 26.426 28.1945 26.4395 28.1749 26.4619C28.1552 26.4842 28.1451 26.5134 28.147 26.5431C28.1489 26.5728 28.1624 26.6006 28.1848 26.6202C28.2071 26.6399 28.2363 26.65 28.266 26.6481C28.2807 26.6472 28.2951 26.6434 28.3083 26.6369C28.3216 26.6304 28.3334 26.6214 28.3431 26.6103C28.3529 26.5993 28.3604 26.5864 28.3652 26.5725C28.3699 26.5586 28.3719 26.5438 28.371 26.5291C28.3701 26.5144 28.3663 26.5 28.3598 26.4868C28.3533 26.4735 28.3443 26.4617 28.3332 26.452C28.3222 26.4422 28.3093 26.4347 28.2954 26.4299C28.2815 26.4252 28.2667 26.4232 28.252 26.4241ZM19.732 26.9861C19.7027 26.9872 19.6749 26.9997 19.6547 27.021C19.6345 27.0423 19.6235 27.0707 19.624 27.1C19.6245 27.1294 19.6366 27.1574 19.6575 27.1779C19.6785 27.1985 19.7066 27.21 19.736 27.21C19.7654 27.21 19.7935 27.1985 19.8145 27.1779C19.8354 27.1574 19.8475 27.1294 19.848 27.1C19.8485 27.0707 19.8375 27.0423 19.8173 27.021C19.7971 26.9997 19.7693 26.9872 19.74 26.9861H19.732ZM28.252 26.9861C28.2227 26.9872 28.1949 26.9997 28.1747 27.021C28.1545 27.0423 28.1435 27.0707 28.144 27.1C28.1445 27.1294 28.1566 27.1574 28.1775 27.1779C28.1985 27.1985 28.2266 27.21 28.256 27.21C28.2854 27.21 28.3135 27.1985 28.3345 27.1779C28.3554 27.1574 28.3675 27.1294 28.368 27.1C28.3685 27.0707 28.3575 27.0423 28.3373 27.021C28.3171 26.9997 28.2893 26.9872 28.26 26.9861H28.252ZM19.732 27.5491C19.7027 27.5502 19.6749 27.5627 19.6547 27.584C19.6345 27.6053 19.6235 27.6337 19.624 27.663C19.6245 27.6924 19.6366 27.7204 19.6575 27.7409C19.6785 27.7615 19.7066 27.773 19.736 27.773C19.7654 27.773 19.7935 27.7615 19.8145 27.7409C19.8354 27.7204 19.8475 27.6924 19.848 27.663C19.8485 27.6337 19.8375 27.6053 19.8173 27.584C19.7971 27.5627 19.7693 27.5502 19.74 27.5491H19.732ZM28.252 27.5491C28.2227 27.5502 28.1949 27.5627 28.1747 27.584C28.1545 27.6053 28.1435 27.6337 28.144 27.663C28.1445 27.6924 28.1566 27.7204 28.1775 27.7409C28.1985 27.7615 28.2266 27.773 28.256 27.773C28.2854 27.773 28.3135 27.7615 28.3345 27.7409C28.3554 27.7204 28.3675 27.6924 28.368 27.663C28.3685 27.6337 28.3575 27.6053 28.3373 27.584C28.3171 27.5627 28.2893 27.5502 28.26 27.5491H28.252ZM16.375 27.6231C16.1616 27.6178 15.9493 27.6552 15.7505 27.7332C15.5518 27.8112 15.3707 27.9281 15.2179 28.0772C15.065 28.2262 14.9436 28.4044 14.8607 28.6011C14.7777 28.7978 14.735 29.0091 14.735 29.2226C14.735 29.4361 14.7777 29.6474 14.8607 29.8441C14.9436 30.0408 15.065 30.219 15.2179 30.368C15.3707 30.5171 15.5518 30.634 15.7505 30.712C15.9493 30.79 16.1616 30.8274 16.375 30.8221C16.7923 30.8117 17.189 30.6386 17.4804 30.3397C17.7719 30.0409 17.935 29.64 17.935 29.2226C17.935 28.8052 17.7719 28.4043 17.4804 28.1055C17.189 27.8066 16.7923 27.6335 16.375 27.6231ZM24 27.6231C23.7866 27.6178 23.5743 27.6552 23.3755 27.7332C23.1768 27.8112 22.9957 27.9281 22.8429 28.0772C22.69 28.2262 22.5686 28.4044 22.4857 28.6011C22.4027 28.7978 22.36 29.0091 22.36 29.2226C22.36 29.4361 22.4027 29.6474 22.4857 29.8441C22.5686 30.0408 22.69 30.219 22.8429 30.368C22.9957 30.5171 23.1768 30.634 23.3755 30.712C23.5743 30.79 23.7866 30.8274 24 30.8221C24.4173 30.8117 24.814 30.6386 25.1054 30.3397C25.3969 30.0409 25.56 29.64 25.56 29.2226C25.56 28.8052 25.3969 28.4043 25.1054 28.1055C24.814 27.8066 24.4173 27.6335 24 27.6231ZM31.625 27.6231C31.4116 27.6178 31.1993 27.6552 31.0005 27.7332C30.8018 27.8112 30.6207 27.9281 30.4679 28.0772C30.315 28.2262 30.1936 28.4044 30.1107 28.6011C30.0277 28.7978 29.985 29.0091 29.985 29.2226C29.985 29.4361 30.0277 29.6474 30.1107 29.8441C30.1936 30.0408 30.315 30.219 30.4679 30.368C30.6207 30.5171 30.8018 30.634 31.0005 30.712C31.1993 30.79 31.4116 30.8274 31.625 30.8221C32.0423 30.8117 32.439 30.6386 32.7304 30.3397C33.0219 30.0409 33.185 29.64 33.185 29.2226C33.185 28.8052 33.0219 28.4043 32.7304 28.1055C32.439 27.8066 32.0423 27.6335 31.625 27.6231ZM19.721 28.1111C19.6945 28.1154 19.6705 28.1291 19.6532 28.1496C19.636 28.1702 19.6267 28.1963 19.627 28.2231C19.627 28.2851 19.677 28.3351 19.74 28.3341C19.802 28.3341 19.851 28.2841 19.852 28.2231C19.852 28.1611 19.802 28.1131 19.74 28.1111H19.721ZM28.241 28.1111C28.2143 28.1152 28.19 28.1288 28.1726 28.1494C28.1551 28.1699 28.1457 28.1961 28.146 28.2231C28.147 28.2851 28.197 28.3351 28.26 28.3341C28.321 28.3341 28.37 28.2841 28.371 28.2231C28.371 28.1611 28.321 28.1131 28.26 28.1111H28.24H28.241ZM19.742 28.6711C19.7272 28.671 19.7125 28.6739 19.6987 28.6795C19.685 28.6851 19.6725 28.6934 19.662 28.7038C19.6514 28.7143 19.643 28.7267 19.6373 28.7404C19.6316 28.7541 19.6286 28.7688 19.6285 28.7836C19.6284 28.7984 19.6313 28.8132 19.6369 28.8269C19.6425 28.8406 19.6508 28.8531 19.6612 28.8637C19.6717 28.8742 19.6841 28.8826 19.6978 28.8883C19.7115 28.894 19.7262 28.897 19.741 28.8971C19.769 28.8946 19.7951 28.8817 19.8141 28.861C19.8332 28.8403 19.8438 28.8132 19.8439 28.7851C19.844 28.7569 19.8336 28.7298 19.8148 28.7089C19.796 28.688 19.77 28.6749 19.742 28.6721V28.6711ZM19.732 29.2341C19.7032 29.2359 19.6762 29.2488 19.6566 29.27C19.637 29.2913 19.6264 29.3192 19.627 29.3481C19.627 29.4091 19.677 29.4581 19.74 29.4571C19.7546 29.4574 19.7691 29.4547 19.7827 29.4493C19.7963 29.4439 19.8087 29.4358 19.8191 29.4256C19.8295 29.4154 19.8378 29.4031 19.8434 29.3897C19.8491 29.3762 19.852 29.3617 19.852 29.3471C19.8522 29.3316 19.8491 29.3163 19.8431 29.302C19.837 29.2877 19.8281 29.2749 19.8168 29.2643C19.8055 29.2537 19.7922 29.2455 19.7776 29.2403C19.763 29.2351 19.7475 29.233 19.732 29.2341ZM28.252 29.2341C28.2232 29.2359 28.1962 29.2488 28.1766 29.27C28.157 29.2913 28.1464 29.3192 28.147 29.3481C28.147 29.4091 28.197 29.4581 28.26 29.4571C28.2745 29.4572 28.2889 29.4545 28.3024 29.449C28.3159 29.4436 28.3281 29.4355 28.3384 29.4252C28.3487 29.415 28.3569 29.4028 28.3625 29.3894C28.3681 29.376 28.371 29.3616 28.371 29.3471C28.3712 29.3317 28.3682 29.3164 28.3622 29.3022C28.3562 29.2881 28.3473 29.2753 28.3361 29.2647C28.325 29.2541 28.3117 29.2459 28.2973 29.2406C28.2828 29.2354 28.2674 29.2331 28.252 29.2341ZM19.732 29.7971C19.7034 29.7989 19.6765 29.8116 19.6569 29.8326C19.6374 29.8537 19.6267 29.8814 19.627 29.9101C19.6272 29.9322 19.6339 29.9537 19.6463 29.9719C19.6587 29.9902 19.6762 30.0044 19.6966 30.0128C19.717 30.0211 19.7395 30.0233 19.7611 30.0189C19.7827 30.0145 19.8026 30.0039 19.8182 29.9883C19.8338 29.9727 19.8444 29.9528 19.8488 29.9312C19.8531 29.9096 19.851 29.8871 19.8427 29.8667C19.8343 29.8463 19.8201 29.8288 19.8018 29.8164C19.7836 29.804 19.7621 29.7973 19.74 29.7971C19.7373 29.797 19.7347 29.797 19.732 29.7971ZM28.252 29.7971C28.2227 29.7982 28.1949 29.8107 28.1747 29.832C28.1545 29.8533 28.1435 29.8817 28.144 29.911C28.1445 29.9404 28.1566 29.9684 28.1775 29.9889C28.1985 30.0095 28.2266 30.021 28.256 30.021C28.2854 30.021 28.3135 30.0095 28.3345 29.9889C28.3554 29.9684 28.3675 29.9404 28.368 29.911C28.3685 29.8817 28.3575 29.8533 28.3373 29.832C28.3171 29.8107 28.2893 29.7982 28.26 29.7971C28.2573 29.797 28.2547 29.797 28.252 29.7971ZM19.732 30.3591C19.7032 30.3609 19.6762 30.3738 19.6566 30.395C19.637 30.4163 19.6264 30.4442 19.627 30.4731C19.6272 30.4955 19.6342 30.5173 19.647 30.5357C19.6597 30.5541 19.6777 30.5683 19.6986 30.5763C19.7195 30.5844 19.7423 30.5861 19.7642 30.581C19.786 30.576 19.8058 30.5645 19.821 30.5481C19.8363 30.5317 19.8463 30.5111 19.8497 30.489C19.8531 30.4668 19.8498 30.4442 19.8402 30.4239C19.8306 30.4037 19.8152 30.3868 19.7959 30.3754C19.7766 30.364 19.7544 30.3587 19.732 30.3601V30.3591ZM28.252 30.3591C28.2232 30.3609 28.1962 30.3738 28.1766 30.395C28.157 30.4163 28.1464 30.4442 28.147 30.4731C28.1472 30.4955 28.1542 30.5173 28.167 30.5357C28.1797 30.5541 28.1977 30.5683 28.2186 30.5763C28.2395 30.5844 28.2623 30.5861 28.2842 30.581C28.306 30.576 28.3258 30.5645 28.341 30.5481C28.3563 30.5317 28.3663 30.5111 28.3697 30.489C28.3731 30.4668 28.3698 30.4442 28.3602 30.4239C28.3506 30.4037 28.3352 30.3868 28.3159 30.3754C28.2966 30.364 28.2744 30.3587 28.252 30.3601V30.3591ZM19.732 30.9191C19.7034 30.9214 19.6766 30.9344 19.6571 30.9555C19.6377 30.9767 19.6269 31.0044 19.627 31.0331C19.627 31.0629 19.6389 31.0916 19.66 31.1127C19.681 31.1337 19.7097 31.1456 19.7395 31.1456C19.7693 31.1456 19.798 31.1337 19.819 31.1127C19.8401 31.0916 19.852 31.0629 19.852 31.0331C19.8519 31.0177 19.8487 31.0025 19.8425 30.9884C19.8363 30.9742 19.8274 30.9615 19.8162 30.951C19.8049 30.9404 19.7917 30.9322 19.7772 30.9269C19.7628 30.9216 19.7474 30.9193 19.732 30.9201V30.9191ZM28.252 30.9191C28.2234 30.9214 28.1966 30.9344 28.1771 30.9555C28.1577 30.9767 28.1469 31.0044 28.147 31.0331C28.147 31.0628 28.1588 31.0913 28.1798 31.1123C28.2008 31.1333 28.2293 31.1451 28.259 31.1451C28.2887 31.1451 28.3172 31.1333 28.3382 31.1123C28.3592 31.0913 28.371 31.0628 28.371 31.0331C28.3709 31.0178 28.3677 31.0026 28.3616 30.9886C28.3555 30.9746 28.3466 30.9619 28.3355 30.9513C28.3244 30.9408 28.3113 30.9326 28.2969 30.9272C28.2826 30.9218 28.2673 30.9194 28.252 30.9201V30.9191ZM19.732 31.4821C19.7037 31.4834 19.677 31.4955 19.6574 31.516C19.6379 31.5365 19.627 31.5638 19.627 31.5921C19.627 31.6551 19.677 31.7071 19.74 31.7071C19.7701 31.7066 19.7987 31.6942 19.8197 31.6727C19.8407 31.6511 19.8523 31.6222 19.852 31.5921C19.8519 31.5768 19.8487 31.5617 19.8425 31.5478C19.8363 31.5338 19.8273 31.5212 19.816 31.5109C19.8047 31.5006 19.7915 31.4927 19.777 31.4877C19.7626 31.4828 19.7472 31.4809 19.732 31.4821ZM28.252 31.4821C28.2237 31.4834 28.197 31.4955 28.1774 31.516C28.1579 31.5365 28.147 31.5638 28.147 31.5921C28.146 31.6551 28.197 31.7071 28.26 31.7071C28.2899 31.7063 28.3183 31.6938 28.339 31.6723C28.3598 31.6508 28.3713 31.622 28.371 31.5921C28.3709 31.5769 28.3677 31.5619 28.3616 31.548C28.3554 31.5341 28.3465 31.5216 28.3353 31.5113C28.3242 31.501 28.311 31.4931 28.2967 31.4881C28.2824 31.483 28.2672 31.481 28.252 31.4821ZM19.721 32.0451C19.6947 32.049 19.6707 32.0622 19.6534 32.0825C19.6361 32.1027 19.6267 32.1285 19.627 32.1551C19.627 32.2171 19.677 32.2701 19.74 32.2691C19.7701 32.2686 19.7987 32.2562 19.8197 32.2347C19.8407 32.2131 19.8523 32.1842 19.852 32.1541C19.852 32.0941 19.802 32.0461 19.74 32.0441H19.721V32.0451ZM28.241 32.0451C28.2145 32.0487 28.1902 32.0619 28.1727 32.0822C28.1553 32.1024 28.1458 32.1283 28.146 32.1551C28.146 32.2171 28.197 32.2701 28.26 32.2691C28.2899 32.2683 28.3183 32.2558 28.339 32.2343C28.3598 32.2128 28.3713 32.184 28.371 32.1541C28.371 32.0941 28.321 32.0461 28.26 32.0441H28.24L28.241 32.0451ZM19.721 32.6071C19.6947 32.611 19.6707 32.6242 19.6534 32.6445C19.6361 32.6647 19.6267 32.6905 19.627 32.7171C19.627 32.7791 19.677 32.8311 19.74 32.8301C19.7697 32.8296 19.798 32.8175 19.819 32.7964C19.8399 32.7753 19.8517 32.7468 19.852 32.7171C19.852 32.7025 19.8491 32.688 19.8434 32.6745C19.8378 32.6611 19.8295 32.6488 19.8191 32.6386C19.8087 32.6284 19.7963 32.6203 19.7827 32.6149C19.7691 32.6095 19.7546 32.6068 19.74 32.6071H19.721ZM28.241 32.6071C28.2145 32.6107 28.1902 32.6239 28.1727 32.6442C28.1553 32.6644 28.1458 32.6903 28.146 32.7171C28.147 32.7791 28.197 32.8311 28.26 32.8301C28.321 32.8301 28.37 32.7781 28.371 32.7171C28.371 32.7026 28.3681 32.6882 28.3625 32.6748C28.3569 32.6614 28.3487 32.6492 28.3384 32.639C28.3281 32.6287 28.3159 32.6207 28.3024 32.6152C28.2889 32.6097 28.2745 32.607 28.26 32.6071H28.24H28.241ZM16.375 32.8551C15.9507 32.8551 15.5437 33.0237 15.2436 33.3237C14.9436 33.6238 14.775 34.0308 14.775 34.4551C14.775 34.8795 14.9436 35.2864 15.2436 35.5865C15.5437 35.8865 15.9507 36.0551 16.375 36.0551C16.7993 36.0551 17.2063 35.8865 17.5064 35.5865C17.8064 35.2864 17.975 34.8795 17.975 34.4551C17.975 34.0308 17.8064 33.6238 17.5064 33.3237C17.2063 33.0237 16.7993 32.8551 16.375 32.8551ZM24 32.8551C23.5757 32.8551 23.1687 33.0237 22.8686 33.3237C22.5686 33.6238 22.4 34.0308 22.4 34.4551C22.4 34.8795 22.5686 35.2864 22.8686 35.5865C23.1687 35.8865 23.5757 36.0551 24 36.0551C24.4243 36.0551 24.8313 35.8865 25.1314 35.5865C25.4314 35.2864 25.6 34.8795 25.6 34.4551C25.6 34.0308 25.4314 33.6238 25.1314 33.3237C24.8313 33.0237 24.4243 32.8551 24 32.8551ZM31.625 32.8551C31.2007 32.8551 30.7937 33.0237 30.4936 33.3237C30.1936 33.6238 30.025 34.0308 30.025 34.4551C30.025 34.8795 30.1936 35.2864 30.4936 35.5865C30.7937 35.8865 31.2007 36.0551 31.625 36.0551C32.0493 36.0551 32.4563 35.8865 32.7564 35.5865C33.0564 35.2864 33.225 34.8795 33.225 34.4551C33.225 34.0308 33.0564 33.6238 32.7564 33.3237C32.4563 33.0237 32.0493 32.8551 31.625 32.8551ZM19.742 33.1681C19.727 33.1682 19.7122 33.1713 19.6985 33.1772C19.6847 33.183 19.6722 33.1915 19.6617 33.2022C19.6512 33.2129 19.6429 33.2255 19.6373 33.2394C19.6317 33.2533 19.6289 33.2681 19.629 33.2831C19.629 33.3451 19.679 33.3911 19.742 33.3911C19.803 33.3911 19.852 33.3451 19.853 33.2831C19.8533 33.2534 19.8419 33.2247 19.8214 33.2032C19.8008 33.1817 19.7727 33.1691 19.743 33.1681H19.742ZM28.262 33.1681C28.2469 33.1681 28.232 33.1711 28.2181 33.1769C28.2042 33.1827 28.1916 33.1912 28.181 33.2018C28.1704 33.2125 28.1621 33.2252 28.1564 33.2392C28.1507 33.2531 28.1479 33.2681 28.148 33.2831C28.148 33.3451 28.199 33.3911 28.262 33.3911C28.322 33.3911 28.372 33.3451 28.373 33.2831C28.3733 33.2532 28.3618 33.2244 28.341 33.2029C28.3203 33.1814 28.2919 33.1689 28.262 33.1681ZM19.732 33.7311C19.7034 33.7329 19.6765 33.7456 19.6569 33.7666C19.6374 33.7877 19.6267 33.8154 19.627 33.8441C19.627 33.9051 19.677 33.9541 19.74 33.9541C19.7546 33.9544 19.7691 33.9517 19.7827 33.9463C19.7963 33.9409 19.8087 33.9328 19.8191 33.9226C19.8295 33.9124 19.8378 33.9001 19.8434 33.8867C19.8491 33.8732 19.852 33.8587 19.852 33.8441C19.8523 33.8285 19.8494 33.8131 19.8434 33.7987C19.8374 33.7843 19.8285 33.7713 19.8172 33.7606C19.8059 33.7499 19.7925 33.7416 19.7778 33.7364C19.7631 33.7311 19.7475 33.729 19.732 33.7301V33.7311ZM28.252 33.7311C28.2234 33.7329 28.1965 33.7456 28.1769 33.7666C28.1574 33.7877 28.1467 33.8154 28.147 33.8441C28.147 33.9051 28.197 33.9541 28.26 33.9541C28.2745 33.9542 28.2889 33.9515 28.3024 33.946C28.3159 33.9405 28.3281 33.9325 28.3384 33.9222C28.3487 33.912 28.3569 33.8998 28.3625 33.8864C28.3681 33.873 28.371 33.8586 28.371 33.8441C28.3713 33.8286 28.3684 33.8132 28.3625 33.7989C28.3565 33.7846 28.3477 33.7717 28.3365 33.761C28.3253 33.7503 28.312 33.742 28.2975 33.7367C28.2829 33.7314 28.2675 33.7291 28.252 33.7301V33.7311ZM19.732 34.2931C19.7034 34.2949 19.6765 34.3076 19.6569 34.3286C19.6374 34.3497 19.6267 34.3774 19.627 34.4061C19.627 34.4681 19.677 34.5161 19.74 34.5161C19.7546 34.5164 19.7691 34.5137 19.7827 34.5083C19.7963 34.5029 19.8087 34.4948 19.8191 34.4846C19.8295 34.4744 19.8378 34.4621 19.8434 34.4487C19.8491 34.4352 19.852 34.4207 19.852 34.4061C19.8522 34.3906 19.8491 34.3753 19.8431 34.361C19.837 34.3467 19.8281 34.3339 19.8168 34.3233C19.8055 34.3127 19.7922 34.3045 19.7776 34.2993C19.763 34.2941 19.7475 34.292 19.732 34.2931ZM28.252 34.2931C28.2234 34.2949 28.1965 34.3076 28.1769 34.3286C28.1574 34.3497 28.1467 34.3774 28.147 34.4061C28.147 34.4681 28.197 34.5161 28.26 34.5161C28.2745 34.5162 28.2889 34.5135 28.3024 34.508C28.3159 34.5025 28.3281 34.4945 28.3384 34.4842C28.3487 34.474 28.3569 34.4618 28.3625 34.4484C28.3681 34.435 28.371 34.4206 28.371 34.4061C28.3712 34.3907 28.3682 34.3754 28.3622 34.3612C28.3562 34.3471 28.3473 34.3343 28.3361 34.3237C28.325 34.3131 28.3117 34.3049 28.2973 34.2996C28.2828 34.2944 28.2674 34.2921 28.252 34.2931ZM19.732 34.8561C19.7027 34.8572 19.6749 34.8697 19.6547 34.891C19.6345 34.9123 19.6235 34.9407 19.624 34.97C19.6245 34.9994 19.6366 35.0274 19.6575 35.0479C19.6785 35.0685 19.7066 35.08 19.736 35.08C19.7654 35.08 19.7935 35.0685 19.8145 35.0479C19.8354 35.0274 19.8475 34.9994 19.848 34.97C19.8485 34.9407 19.8375 34.9123 19.8173 34.891C19.7971 34.8697 19.7693 34.8572 19.74 34.8561C19.7373 34.856 19.7347 34.856 19.732 34.8561ZM28.252 34.8561C28.2366 34.8559 28.2213 34.8588 28.2071 34.8647C28.1929 34.8706 28.18 34.8794 28.1693 34.8906C28.1587 34.9017 28.1504 34.9149 28.1451 34.9294C28.1398 34.9438 28.1375 34.9592 28.1384 34.9746C28.1393 34.99 28.1433 35.005 28.1503 35.0188C28.1573 35.0325 28.167 35.0447 28.1789 35.0545C28.1908 35.0643 28.2046 35.0715 28.2194 35.0758C28.2342 35.08 28.2497 35.0811 28.265 35.0791C28.2947 35.0774 28.3225 35.0639 28.3423 35.0417C28.3621 35.0195 28.3722 34.9903 28.3705 34.9606C28.3688 34.9309 28.3553 34.9031 28.3331 34.8833C28.3109 34.8635 28.2817 34.8534 28.252 34.8551V34.8561ZM19.732 35.4181C19.7173 35.419 19.7029 35.4228 19.6897 35.4293C19.6764 35.4358 19.6646 35.4448 19.6549 35.4559C19.6451 35.4669 19.6376 35.4798 19.6328 35.4937C19.6281 35.5076 19.6261 35.5224 19.627 35.5371C19.6279 35.5518 19.6317 35.5662 19.6382 35.5794C19.6447 35.5927 19.6537 35.6045 19.6648 35.6143C19.6758 35.624 19.6887 35.6315 19.7026 35.6363C19.7165 35.641 19.7313 35.643 19.746 35.6421C19.7757 35.6402 19.8035 35.6267 19.8231 35.6044C19.8428 35.582 19.8529 35.5528 19.851 35.5231C19.8491 35.4934 19.8356 35.4656 19.8132 35.446C19.7909 35.4263 19.7617 35.4162 19.732 35.4181ZM28.252 35.4181C28.2373 35.419 28.2229 35.4228 28.2097 35.4293C28.1964 35.4358 28.1846 35.4448 28.1749 35.4559C28.1651 35.4669 28.1576 35.4798 28.1528 35.4937C28.1481 35.5076 28.1461 35.5224 28.147 35.5371C28.1479 35.5518 28.1517 35.5662 28.1582 35.5794C28.1647 35.5927 28.1737 35.6045 28.1848 35.6143C28.1958 35.624 28.2087 35.6315 28.2226 35.6363C28.2365 35.641 28.2513 35.643 28.266 35.6421C28.2957 35.6402 28.3235 35.6267 28.3431 35.6044C28.3628 35.582 28.3729 35.5528 28.371 35.5231C28.3691 35.4934 28.3556 35.4656 28.3332 35.446C28.3109 35.4263 28.2817 35.4162 28.252 35.4181ZM19.732 35.9811C19.7039 35.9824 19.6773 35.9944 19.6578 36.0147C19.6382 36.035 19.6272 36.0619 19.627 36.0901C19.627 36.1199 19.6389 36.1486 19.66 36.1697C19.681 36.1908 19.7097 36.2026 19.7395 36.2026C19.7693 36.2026 19.798 36.1908 19.819 36.1697C19.8401 36.1486 19.852 36.1199 19.852 36.0901C19.8521 36.0748 19.8489 36.0596 19.8428 36.0456C19.8366 36.0315 19.8276 36.0189 19.8163 36.0086C19.805 35.9982 19.7917 35.9903 19.7772 35.9854C19.7626 35.9805 19.7473 35.9787 19.732 35.9801V35.9811ZM28.252 35.9811C28.2239 35.9824 28.1973 35.9944 28.1778 36.0147C28.1582 36.035 28.1472 36.0619 28.147 36.0901C28.147 36.1198 28.1588 36.1483 28.1798 36.1693C28.2008 36.1903 28.2293 36.2021 28.259 36.2021C28.2887 36.2021 28.3172 36.1903 28.3382 36.1693C28.3592 36.1483 28.371 36.1198 28.371 36.0901C28.3711 36.0749 28.3679 36.0598 28.3619 36.0458C28.3558 36.0319 28.3469 36.0193 28.3357 36.009C28.3245 35.9986 28.3113 35.9907 28.2969 35.9857C28.2825 35.9808 28.2672 35.9789 28.252 35.9801V35.9811ZM19.732 36.5431C19.7037 36.5444 19.677 36.5565 19.6574 36.577C19.6379 36.5975 19.627 36.6248 19.627 36.6531C19.627 36.6829 19.6389 36.7116 19.66 36.7327C19.681 36.7537 19.7097 36.7656 19.7395 36.7656C19.7693 36.7656 19.798 36.7537 19.819 36.7327C19.8401 36.7116 19.852 36.6829 19.852 36.6531C19.8519 36.6378 19.8487 36.6227 19.8425 36.6088C19.8363 36.5948 19.8273 36.5822 19.816 36.5719C19.8047 36.5616 19.7915 36.5537 19.777 36.5487C19.7626 36.5438 19.7472 36.5419 19.732 36.5431ZM28.252 36.5431C28.2237 36.5444 28.197 36.5565 28.1774 36.577C28.1579 36.5975 28.147 36.6248 28.147 36.6531C28.147 36.6828 28.1588 36.7113 28.1798 36.7323C28.2008 36.7533 28.2293 36.7651 28.259 36.7651C28.2887 36.7651 28.3172 36.7533 28.3382 36.7323C28.3592 36.7113 28.371 36.6828 28.371 36.6531C28.3709 36.6379 28.3677 36.6229 28.3616 36.609C28.3554 36.5951 28.3465 36.5826 28.3353 36.5723C28.3242 36.562 28.311 36.5541 28.2967 36.5491C28.2824 36.544 28.2672 36.542 28.252 36.5431ZM19.721 37.1061C19.6948 37.1102 19.6709 37.1235 19.6536 37.1437C19.6364 37.1639 19.6269 37.1896 19.627 37.2161C19.627 37.2459 19.6389 37.2746 19.66 37.2957C19.681 37.3168 19.7097 37.3286 19.7395 37.3286C19.7693 37.3286 19.798 37.3168 19.819 37.2957C19.8401 37.2746 19.852 37.2459 19.852 37.2161C19.852 37.1561 19.802 37.1061 19.74 37.1061H19.721ZM28.241 37.1061C28.2146 37.11 28.1904 37.1232 28.173 37.1434C28.1555 37.1636 28.146 37.1894 28.146 37.2161C28.147 37.2781 28.197 37.3291 28.26 37.3281C28.321 37.3281 28.37 37.2781 28.371 37.2171C28.371 37.1561 28.321 37.1071 28.26 37.1061H28.24H28.241ZM19.732 37.6661C19.7034 37.6679 19.6765 37.6806 19.6569 37.7016C19.6374 37.7227 19.6267 37.7504 19.627 37.7791C19.627 37.8411 19.677 37.8891 19.74 37.8891C19.7546 37.8894 19.7691 37.8867 19.7827 37.8813C19.7963 37.8759 19.8087 37.8678 19.8191 37.8576C19.8295 37.8474 19.8378 37.8351 19.8434 37.8217C19.8491 37.8082 19.852 37.7937 19.852 37.7791C19.852 37.7493 19.8402 37.7207 19.8193 37.6996C19.7983 37.6784 19.7698 37.6664 19.74 37.6661H19.732ZM28.252 37.6661C28.2234 37.6679 28.1965 37.6806 28.1769 37.7016C28.1574 37.7227 28.1467 37.7504 28.147 37.7791C28.147 37.8411 28.197 37.8891 28.26 37.8891C28.2745 37.8892 28.2889 37.8865 28.3024 37.881C28.3159 37.8755 28.3281 37.8675 28.3384 37.8572C28.3487 37.847 28.3569 37.8348 28.3625 37.8214C28.3681 37.808 28.371 37.7936 28.371 37.7791C28.3711 37.7644 28.3684 37.7498 28.3629 37.7362C28.3574 37.7225 28.3492 37.7101 28.3389 37.6996C28.3286 37.6891 28.3163 37.6808 28.3028 37.675C28.2892 37.6693 28.2747 37.6662 28.26 37.6661H28.252ZM16.375 38.1261C15.9507 38.1261 15.5437 38.2947 15.2436 38.5947C14.9436 38.8948 14.775 39.3018 14.775 39.7261C14.775 40.1505 14.9436 40.5574 15.2436 40.8575C15.5437 41.1575 15.9507 41.3261 16.375 41.3261C16.7993 41.3261 17.2063 41.1575 17.5064 40.8575C17.8064 40.5574 17.975 40.1505 17.975 39.7261C17.975 39.3018 17.8064 38.8948 17.5064 38.5947C17.2063 38.2947 16.7993 38.1261 16.375 38.1261ZM24 38.1261C23.5757 38.1261 23.1687 38.2947 22.8686 38.5947C22.5686 38.8948 22.4 39.3018 22.4 39.7261C22.4 40.1505 22.5686 40.5574 22.8686 40.8575C23.1687 41.1575 23.5757 41.3261 24 41.3261C24.4243 41.3261 24.8313 41.1575 25.1314 40.8575C25.4314 40.5574 25.6 40.1505 25.6 39.7261C25.6 39.3018 25.4314 38.8948 25.1314 38.5947C24.8313 38.2947 24.4243 38.1261 24 38.1261ZM31.625 38.1261C31.2007 38.1261 30.7937 38.2947 30.4936 38.5947C30.1936 38.8948 30.025 39.3018 30.025 39.7261C30.025 40.1505 30.1936 40.5574 30.4936 40.8575C30.7937 41.1575 31.2007 41.3261 31.625 41.3261C32.0493 41.3261 32.4563 41.1575 32.7564 40.8575C33.0564 40.5574 33.225 40.1505 33.225 39.7261C33.225 39.3018 33.0564 38.8948 32.7564 38.5947C32.4563 38.2947 32.0493 38.1261 31.625 38.1261ZM19.732 38.2281C19.7032 38.2299 19.6762 38.2428 19.6566 38.264C19.637 38.2853 19.6264 38.3132 19.627 38.3421C19.627 38.4031 19.677 38.4541 19.74 38.4531C19.802 38.4531 19.851 38.4031 19.852 38.3421C19.8522 38.3266 19.8491 38.3112 19.8431 38.2969C19.837 38.2826 19.8281 38.2697 19.8168 38.259C19.8056 38.2483 19.7922 38.24 19.7776 38.2347C19.763 38.2294 19.7475 38.2271 19.732 38.2281ZM28.252 38.2281C28.2232 38.2299 28.1962 38.2428 28.1766 38.264C28.157 38.2853 28.1464 38.3132 28.147 38.3421C28.147 38.4031 28.197 38.4541 28.26 38.4531C28.321 38.4531 28.37 38.4031 28.371 38.3421C28.3713 38.3266 28.3684 38.3112 28.3625 38.2969C28.3565 38.2826 28.3477 38.2697 28.3365 38.259C28.3253 38.2483 28.312 38.24 28.2975 38.2347C28.2829 38.2294 28.2675 38.2271 28.252 38.2281ZM19.732 38.7911C19.7034 38.7929 19.6765 38.8056 19.6569 38.8266C19.6374 38.8477 19.6267 38.8754 19.627 38.9041C19.627 38.9339 19.6389 38.9626 19.66 38.9837C19.681 39.0048 19.7097 39.0166 19.7395 39.0166C19.7693 39.0166 19.798 39.0048 19.819 38.9837C19.8401 38.9626 19.852 38.9339 19.852 38.9041C19.852 38.8887 19.8489 38.8734 19.8428 38.8592C19.8367 38.845 19.8277 38.8322 19.8165 38.8216C19.8052 38.811 19.7919 38.8029 19.7774 38.7976C19.7629 38.7924 19.7474 38.7901 19.732 38.7911ZM28.252 38.7911C28.2227 38.7922 28.1949 38.8047 28.1747 38.826C28.1545 38.8473 28.1435 38.8757 28.144 38.905C28.1445 38.9344 28.1566 38.9624 28.1775 38.9829C28.1985 39.0035 28.2266 39.015 28.256 39.015C28.2854 39.015 28.3135 39.0035 28.3345 38.9829C28.3554 38.9624 28.3675 38.9344 28.368 38.905C28.3685 38.8757 28.3575 38.8473 28.3373 38.826C28.3171 38.8047 28.2893 38.7922 28.26 38.7911C28.2573 38.791 28.2547 38.791 28.252 38.7911ZM19.732 39.3541C19.7027 39.3552 19.6749 39.3677 19.6547 39.389C19.6345 39.4103 19.6235 39.4387 19.624 39.468C19.6245 39.4974 19.6366 39.5254 19.6575 39.5459C19.6785 39.5665 19.7066 39.578 19.736 39.578C19.7654 39.578 19.7935 39.5665 19.8145 39.5459C19.8354 39.5254 19.8475 39.4974 19.848 39.468C19.8485 39.4387 19.8375 39.4103 19.8173 39.389C19.7971 39.3677 19.7693 39.3552 19.74 39.3541C19.7373 39.354 19.7347 39.354 19.732 39.3541ZM28.252 39.3541C28.2227 39.3552 28.1949 39.3677 28.1747 39.389C28.1545 39.4103 28.1435 39.4387 28.144 39.468C28.1445 39.4974 28.1566 39.5254 28.1775 39.5459C28.1985 39.5665 28.2266 39.578 28.256 39.578C28.2854 39.578 28.3135 39.5665 28.3345 39.5459C28.3554 39.5254 28.3675 39.4974 28.368 39.468C28.3685 39.4387 28.3575 39.4103 28.3373 39.389C28.3171 39.3677 28.2893 39.3552 28.26 39.3541C28.2573 39.354 28.2547 39.354 28.252 39.3541ZM19.732 39.9161C19.7037 39.9174 19.677 39.9295 19.6574 39.95C19.6379 39.9705 19.627 39.9978 19.627 40.0261C19.627 40.0881 19.677 40.1411 19.74 40.1411C19.755 40.1408 19.7697 40.1376 19.7835 40.1317C19.7972 40.1257 19.8096 40.1171 19.82 40.1063C19.8304 40.0955 19.8386 40.0828 19.8441 40.0689C19.8496 40.055 19.8523 40.0401 19.852 40.0251C19.8519 40.0099 19.8487 39.9948 19.8425 39.9809C19.8363 39.967 19.8272 39.9545 19.816 39.9442C19.8047 39.934 19.7914 39.9262 19.7769 39.9213C19.7625 39.9165 19.7472 39.9147 19.732 39.9161ZM28.252 39.9161C28.2237 39.9174 28.197 39.9295 28.1774 39.95C28.1579 39.9705 28.147 39.9978 28.147 40.0261C28.146 40.0881 28.197 40.1411 28.26 40.1411C28.2901 40.1403 28.3186 40.1277 28.3394 40.106C28.3602 40.0842 28.3715 40.0552 28.371 40.0251C28.3709 40.01 28.3677 39.995 28.3616 39.9811C28.3554 39.9673 28.3465 39.9549 28.3353 39.9446C28.3241 39.9344 28.311 39.9266 28.2966 39.9217C28.2823 39.9168 28.2671 39.9149 28.252 39.9161ZM19.732 40.4791C19.7166 40.479 19.7014 40.482 19.6872 40.488C19.6731 40.4941 19.6603 40.5029 19.6498 40.5141C19.6392 40.5253 19.631 40.5385 19.6258 40.5529C19.6206 40.5674 19.6184 40.5828 19.6193 40.5981C19.6203 40.6135 19.6244 40.6284 19.6314 40.6421C19.6384 40.6558 19.6481 40.6679 19.66 40.6777C19.6719 40.6874 19.6857 40.6946 19.7005 40.6988C19.7153 40.703 19.7308 40.7041 19.746 40.7021C19.7757 40.7002 19.8035 40.6867 19.8231 40.6643C19.8428 40.642 19.8529 40.6128 19.851 40.5831C19.8491 40.5534 19.8356 40.5257 19.8132 40.506C19.7909 40.4863 19.7617 40.4762 19.732 40.4781V40.4791ZM28.252 40.4791C28.2223 40.481 28.1945 40.4945 28.1749 40.5169C28.1552 40.5392 28.1451 40.5684 28.147 40.5981C28.1489 40.6278 28.1624 40.6556 28.1848 40.6752C28.2071 40.6949 28.2363 40.705 28.266 40.7031C28.2808 40.7022 28.2952 40.6984 28.3085 40.6919C28.3218 40.6854 28.3337 40.6763 28.3435 40.6652C28.3533 40.6541 28.3608 40.6412 28.3656 40.6272C28.3704 40.6132 28.3724 40.5984 28.3715 40.5836C28.3706 40.5688 28.3668 40.5544 28.3603 40.5411C28.3538 40.5278 28.3447 40.5159 28.3336 40.5061C28.3225 40.4963 28.3096 40.4888 28.2956 40.484C28.2816 40.4792 28.2668 40.4772 28.252 40.4781V40.4791ZM19.721 41.0411C19.6946 41.0452 19.6706 41.0587 19.6533 41.0791C19.636 41.0994 19.6267 41.1254 19.627 41.1521C19.6268 41.1743 19.6332 41.196 19.6453 41.2145C19.6575 41.233 19.6748 41.2475 19.6952 41.2562C19.7156 41.2648 19.7381 41.2673 19.7599 41.2631C19.7816 41.259 19.8017 41.2485 19.8175 41.233C19.8333 41.2175 19.8441 41.1976 19.8486 41.1759C19.8532 41.1542 19.8511 41.1317 19.8428 41.1112C19.8346 41.0906 19.8204 41.073 19.8021 41.0605C19.7837 41.0481 19.7621 41.0413 19.74 41.0411H19.721ZM28.241 41.0411C28.2144 41.045 28.1901 41.0584 28.1727 41.0788C28.1552 41.0992 28.1457 41.1252 28.146 41.1521C28.1458 41.1742 28.1522 41.1959 28.1643 41.2144C28.1764 41.2329 28.1937 41.2474 28.214 41.2561C28.2343 41.2648 28.2568 41.2672 28.2785 41.2632C28.3002 41.2591 28.3203 41.2488 28.3361 41.2333C28.352 41.2179 28.3629 41.1981 28.3675 41.1765C28.3721 41.1549 28.3703 41.1324 28.3621 41.1118C28.354 41.0913 28.3399 41.0736 28.3218 41.061C28.3036 41.0484 28.2821 41.0415 28.26 41.0411H28.24H28.241ZM19.721 41.6041C19.6948 41.6082 19.6709 41.6215 19.6536 41.6417C19.6364 41.6619 19.6269 41.6876 19.627 41.7141C19.627 41.7439 19.6389 41.7726 19.66 41.7937C19.681 41.8148 19.7097 41.8266 19.7395 41.8266C19.7693 41.8266 19.798 41.8148 19.819 41.7937C19.8401 41.7726 19.852 41.7439 19.852 41.7141C19.852 41.6541 19.802 41.6041 19.74 41.6041H19.721ZM28.241 41.6041C28.2146 41.608 28.1904 41.6212 28.173 41.6414C28.1555 41.6616 28.146 41.6874 28.146 41.7141C28.146 41.7439 28.1579 41.7726 28.179 41.7937C28.2 41.8148 28.2287 41.8266 28.2585 41.8266C28.2883 41.8266 28.317 41.8148 28.338 41.7937C28.3591 41.7726 28.371 41.7439 28.371 41.7141C28.371 41.6541 28.321 41.6041 28.26 41.6041H28.24H28.241ZM19.742 42.1641C19.7122 42.164 19.6835 42.1757 19.6623 42.1967C19.6411 42.2177 19.6291 42.2463 19.629 42.2761C19.6289 42.3059 19.6406 42.3346 19.6616 42.3558C19.6826 42.377 19.7112 42.389 19.741 42.3891C19.7558 42.3892 19.7704 42.3863 19.7841 42.3807C19.7978 42.3751 19.8102 42.3669 19.8207 42.3565C19.8312 42.3461 19.8395 42.3337 19.8452 42.3201C19.851 42.3065 19.8539 42.2919 19.854 42.2771C19.8541 42.2623 19.8512 42.2477 19.8456 42.234C19.84 42.2203 19.8318 42.2079 19.8214 42.1974C19.811 42.1869 19.7986 42.1786 19.785 42.1729C19.7714 42.1671 19.7568 42.1642 19.742 42.1641ZM19.732 42.7271C19.7027 42.7282 19.6749 42.7407 19.6547 42.762C19.6345 42.7833 19.6235 42.8117 19.624 42.841C19.6245 42.8704 19.6366 42.8984 19.6575 42.9189C19.6785 42.9395 19.7066 42.951 19.736 42.951C19.7654 42.951 19.7935 42.9395 19.8145 42.9189C19.8354 42.8984 19.8475 42.8704 19.848 42.841C19.8485 42.8117 19.8375 42.7833 19.8173 42.762C19.7971 42.7407 19.7693 42.7282 19.74 42.7271C19.7373 42.7269 19.7347 42.7269 19.732 42.7271ZM28.252 42.7271C28.2227 42.7282 28.1949 42.7407 28.1747 42.762C28.1545 42.7833 28.1435 42.8117 28.144 42.841C28.1445 42.8704 28.1566 42.8984 28.1775 42.9189C28.1985 42.9395 28.2266 42.951 28.256 42.951C28.2854 42.951 28.3135 42.9395 28.3345 42.9189C28.3554 42.8984 28.3675 42.8704 28.368 42.841C28.3685 42.8117 28.3575 42.7833 28.3373 42.762C28.3171 42.7407 28.2893 42.7282 28.26 42.7271C28.2573 42.7269 28.2547 42.7269 28.252 42.7271Z" fill="#333333"/>
</svg>
