<svg width="48" height="48" viewBox="0 0 48 48" fill="none" xmlns="http://www.w3.org/2000/svg">
<path d="M23.83 4.1001C20.53 4.1101 17.3 4.1301 14.15 4.1201C13.9434 4.11877 13.7387 4.15847 13.5476 4.2369C13.3565 4.31533 13.1829 4.43093 13.0369 4.57698C12.8908 4.72303 12.7752 4.89664 12.6968 5.08772C12.6184 5.2788 12.5787 5.48355 12.58 5.6901V42.5501C12.58 43.4301 13.28 44.1301 14.15 44.1301H33.85C34.72 44.1301 35.42 43.4301 35.42 42.5501V5.7001C35.42 4.8301 34.72 4.1301 33.85 4.1301C30.51 4.1101 27.17 4.1001 23.83 4.1101V4.1001ZM19.99 5.1701H20H19.99ZM27.99 5.1701H28H27.99ZM19.99 5.7301H20H19.99ZM27.99 5.7301H28H27.99ZM19.99 6.2901H20C20.06 6.2901 20.11 6.3401 20.11 6.4001C20.11 6.4601 20.06 6.5101 20 6.5101C19.9855 6.51141 19.971 6.50987 19.9571 6.50555C19.9433 6.50124 19.9304 6.49424 19.9193 6.48495C19.8968 6.4662 19.8826 6.43927 19.88 6.4101C19.8773 6.38092 19.8864 6.35189 19.9051 6.32939C19.9239 6.30688 19.9508 6.29275 19.98 6.2901H19.99ZM27.99 6.2901H28C28.06 6.2901 28.11 6.3401 28.11 6.4001C28.11 6.4601 28.06 6.5101 28 6.5101C27.9855 6.51141 27.971 6.50987 27.9571 6.50555C27.9433 6.50124 27.9304 6.49424 27.9193 6.48495C27.8968 6.4662 27.8826 6.43927 27.88 6.4101C27.8773 6.38092 27.8864 6.35189 27.9051 6.32939C27.9239 6.30688 27.9508 6.29275 27.98 6.2901H27.99ZM24.22 6.5901C24.6443 6.5901 25.0513 6.75867 25.3514 7.05873C25.6514 7.35879 25.82 7.76575 25.82 8.1901C25.82 8.61444 25.6514 9.02141 25.3514 9.32147C25.0513 9.62153 24.6443 9.7901 24.22 9.7901C23.7956 9.7901 23.3887 9.62153 23.0886 9.32147C22.7886 9.02141 22.62 8.61444 22.62 8.1901C22.62 7.76575 22.7886 7.35879 23.0886 7.05873C23.3887 6.75867 23.7956 6.5901 24.22 6.5901ZM20 6.8501C20.0249 6.84567 20.0506 6.84997 20.0727 6.86225C20.0948 6.87454 20.112 6.89407 20.1214 6.91755C20.1308 6.94103 20.1318 6.96703 20.1242 6.99118C20.1167 7.01532 20.1011 7.03613 20.08 7.0501C20.0697 7.06099 20.0573 7.06967 20.0436 7.07561C20.0298 7.08154 20.015 7.0846 20 7.0846C19.985 7.0846 19.9702 7.08154 19.9564 7.07561C19.9427 7.06967 19.9303 7.06099 19.92 7.0501C19.8989 7.03613 19.8833 7.01532 19.8757 6.99118C19.8682 6.96703 19.8692 6.94103 19.8786 6.91755C19.888 6.89407 19.9052 6.87454 19.9273 6.86225C19.9494 6.84997 19.9751 6.84567 20 6.8501ZM28 6.8501C28.0249 6.84567 28.0506 6.84997 28.0727 6.86225C28.0948 6.87454 28.112 6.89407 28.1214 6.91755C28.1308 6.94103 28.1318 6.96703 28.1242 6.99118C28.1167 7.01532 28.1011 7.03613 28.08 7.0501C28.0697 7.06099 28.0573 7.06967 28.0436 7.07561C28.0298 7.08154 28.015 7.0846 28 7.0846C27.985 7.0846 27.9702 7.08154 27.9564 7.07561C27.9427 7.06967 27.9303 7.06099 27.92 7.0501C27.8989 7.03613 27.8833 7.01532 27.8757 6.99118C27.8682 6.96703 27.8692 6.94103 27.8786 6.91755C27.888 6.89407 27.9052 6.87454 27.9273 6.86225C27.9494 6.84997 27.9751 6.84567 28 6.8501ZM19.98 10.2201H20C20.06 10.2201 20.11 10.2801 20.11 10.3401C20.11 10.3693 20.0984 10.3973 20.0778 10.4179C20.0571 10.4385 20.0292 10.4501 20 10.4501C19.9708 10.4501 19.9428 10.4385 19.9222 10.4179C19.9016 10.3973 19.89 10.3693 19.89 10.3401C19.89 10.2801 19.93 10.2401 19.98 10.2201ZM27.98 10.2201H28C28.06 10.2201 28.11 10.2801 28.11 10.3401C28.11 10.3693 28.0984 10.3973 28.0778 10.4179C28.0571 10.4385 28.0292 10.4501 28 10.4501C27.9708 10.4501 27.9428 10.4385 27.9222 10.4179C27.9016 10.3973 27.89 10.3693 27.89 10.3401C27.89 10.2801 27.93 10.2401 27.98 10.2201ZM20 10.7801C20.019 10.7797 20.0377 10.7843 20.0545 10.7934C20.0712 10.8024 20.0852 10.8157 20.0953 10.8318C20.1054 10.8479 20.1111 10.8663 20.1119 10.8853C20.1127 10.9043 20.1086 10.9232 20.1 10.9401C20.0921 10.9603 20.0784 10.9778 20.0606 10.9902C20.0428 11.0027 20.0217 11.0096 20 11.0101C19.9783 11.0096 19.9572 11.0027 19.9394 10.9902C19.9216 10.9778 19.9079 10.9603 19.9 10.9401L19.89 10.9001C19.89 10.8401 19.94 10.7801 20 10.7801ZM28 10.7801C28.019 10.7797 28.0377 10.7843 28.0545 10.7934C28.0712 10.8024 28.0852 10.8157 28.0953 10.8318C28.1054 10.8479 28.1111 10.8663 28.1119 10.8853C28.1127 10.9043 28.1086 10.9232 28.1 10.9401C28.0921 10.9603 28.0784 10.9778 28.0606 10.9902C28.0428 11.0027 28.0217 11.0096 28 11.0101C27.9783 11.0096 27.9572 11.0027 27.9394 10.9902C27.9216 10.9778 27.9079 10.9603 27.9 10.9401L27.89 10.9001C27.89 10.8401 27.94 10.7801 28 10.7801ZM20 11.3501C20.0217 11.3506 20.0428 11.3575 20.0606 11.37C20.0784 11.3824 20.0921 11.3999 20.1 11.4201C20.11 11.4458 20.11 11.4744 20.1 11.5001C20.0945 11.5136 20.0863 11.5258 20.076 11.5361C20.0657 11.5464 20.0535 11.5546 20.04 11.5601C20.0202 11.5689 19.9983 11.5718 19.977 11.5682C19.9556 11.5646 19.9358 11.5549 19.92 11.5401C19.8989 11.5261 19.8833 11.5053 19.8757 11.4812C19.8682 11.457 19.8692 11.431 19.8786 11.4075C19.888 11.3841 19.9052 11.3645 19.9273 11.3523C19.9494 11.34 19.9751 11.3357 20 11.3401V11.3501ZM28 11.3501C28.0292 11.3501 28.0571 11.3617 28.0778 11.3823C28.0984 11.4029 28.11 11.4309 28.11 11.4601C28.11 11.4893 28.0984 11.5173 28.0778 11.5379C28.0571 11.5585 28.0292 11.5701 28 11.5701C27.9708 11.5701 27.9428 11.5585 27.9222 11.5379C27.9016 11.5173 27.89 11.4893 27.89 11.4601C27.89 11.4309 27.9016 11.4029 27.9222 11.3823C27.9428 11.3617 27.9708 11.3501 28 11.3501ZM16.75 11.7501C17.1743 11.7395 17.5855 11.8979 17.8931 12.1904C18.2006 12.483 18.3794 12.8858 18.39 13.3101C18.4006 13.7344 18.2422 14.1456 17.9496 14.4532C17.6571 14.7607 17.2543 14.9395 16.83 14.9501C16.6199 14.9554 16.4108 14.9192 16.2147 14.8436C16.0185 14.7681 15.8392 14.6546 15.6869 14.5098C15.5346 14.3649 15.4123 14.1915 15.3271 13.9993C15.2418 13.8072 15.1952 13.6002 15.19 13.3901C15.1847 13.18 15.2209 12.9709 15.2965 12.7748C15.372 12.5786 15.4855 12.3993 15.6303 12.247C15.7752 12.0947 15.9486 11.9725 16.1407 11.8872C16.3328 11.8019 16.5399 11.7554 16.75 11.7501ZM24.22 11.7501C24.4301 11.7448 24.6392 11.781 24.8353 11.8566C25.0315 11.9321 25.2108 12.0456 25.3631 12.1904C25.5154 12.3353 25.6376 12.5087 25.7229 12.7008C25.8081 12.893 25.8547 13.1 25.86 13.3101C25.8652 13.5202 25.8291 13.7293 25.7535 13.9254C25.6779 14.1216 25.5645 14.3009 25.4196 14.4532C25.2748 14.6055 25.1013 14.7277 24.9092 14.813C24.7171 14.8983 24.5101 14.9448 24.3 14.9501C23.8756 14.9607 23.4645 14.8023 23.1569 14.5098C22.8493 14.2172 22.6706 13.8144 22.66 13.3901C22.6494 12.9658 22.8078 12.5546 23.1003 12.247C23.3929 11.9395 23.7956 11.7607 24.22 11.7501ZM31.6 11.7501C32.0243 11.7395 32.4355 11.8979 32.7431 12.1904C33.0506 12.483 33.2294 12.8858 33.24 13.3101C33.2506 13.7344 33.0922 14.1456 32.7996 14.4532C32.5071 14.7607 32.1043 14.9395 31.68 14.9501C31.4699 14.9554 31.2608 14.9192 31.0646 14.8436C30.8685 14.7681 30.6892 14.6546 30.5369 14.5098C30.3846 14.3649 30.2623 14.1915 30.1771 13.9993C30.0918 13.8072 30.0452 13.6002 30.04 13.3901C30.0347 13.18 30.0709 12.9709 30.1465 12.7748C30.222 12.5786 30.3355 12.3993 30.4803 12.247C30.6252 12.0947 30.7986 11.9725 30.9907 11.8872C31.1829 11.8019 31.3899 11.7554 31.6 11.7501ZM20 11.9101C20.0292 11.9101 20.0571 11.9217 20.0778 11.9423C20.0984 11.9629 20.11 11.9909 20.11 12.0201C20.11 12.0901 20.06 12.1401 20 12.1401C19.9695 12.1401 19.9402 12.128 19.9187 12.1064C19.8971 12.0848 19.885 12.0556 19.885 12.0251C19.885 11.9946 19.8971 11.9653 19.9187 11.9438C19.9402 11.9222 19.9695 11.9101 20 11.9101ZM28 11.9101C28.0292 11.9101 28.0571 11.9217 28.0778 11.9423C28.0984 11.9629 28.11 11.9909 28.11 12.0201C28.11 12.0901 28.06 12.1401 28 12.1401C27.9695 12.1401 27.9402 12.128 27.9187 12.1064C27.8971 12.0848 27.885 12.0556 27.885 12.0251C27.885 11.9946 27.8971 11.9653 27.9187 11.9438C27.9402 11.9222 27.9695 11.9101 28 11.9101ZM20 12.4701C20.0153 12.47 20.0305 12.4732 20.0445 12.4793C20.0586 12.4855 20.0712 12.4945 20.0815 12.5058C20.0919 12.5171 20.0998 12.5304 20.1047 12.5449C20.1096 12.5594 20.1114 12.5748 20.11 12.5901C20.11 12.6501 20.06 12.6901 20 12.7001C19.9695 12.7001 19.9402 12.688 19.9187 12.6664C19.8971 12.6448 19.885 12.6156 19.885 12.5851C19.885 12.5546 19.8971 12.5253 19.9187 12.5038C19.9402 12.4822 19.9695 12.4701 20 12.4701ZM28 12.4701C28.0153 12.47 28.0305 12.4732 28.0445 12.4793C28.0586 12.4855 28.0712 12.4945 28.0815 12.5058C28.0919 12.5171 28.0998 12.5304 28.1047 12.5449C28.1096 12.5594 28.1114 12.5748 28.11 12.5901C28.11 12.6501 28.06 12.6901 28 12.7001C27.9695 12.7001 27.9402 12.688 27.9187 12.6664C27.8971 12.6448 27.885 12.6156 27.885 12.5851C27.885 12.5546 27.8971 12.5253 27.9187 12.5038C27.9402 12.4822 27.9695 12.4701 28 12.4701ZM19.98 14.7201H20C20.0249 14.7157 20.0506 14.72 20.0727 14.7323C20.0948 14.7445 20.112 14.7641 20.1214 14.7875C20.1308 14.811 20.1318 14.837 20.1242 14.8612C20.1167 14.8853 20.1011 14.9061 20.08 14.9201C20.0667 14.9444 20.0447 14.9627 20.0185 14.9715C19.9922 14.9803 19.9636 14.9789 19.9384 14.9675C19.9132 14.9562 19.8931 14.9357 19.8823 14.9102C19.8715 14.8848 19.8707 14.8562 19.88 14.8301C19.88 14.7801 19.93 14.7301 19.98 14.7301V14.7201ZM27.98 14.7201H28C28.0249 14.7157 28.0506 14.72 28.0727 14.7323C28.0948 14.7445 28.112 14.7641 28.1214 14.7875C28.1308 14.811 28.1318 14.837 28.1242 14.8612C28.1167 14.8853 28.1011 14.9061 28.08 14.9201C28.0667 14.9444 28.0447 14.9627 28.0185 14.9715C27.9922 14.9803 27.9636 14.9789 27.9384 14.9675C27.9132 14.9562 27.8931 14.9357 27.8823 14.9102C27.8715 14.8848 27.8707 14.8562 27.88 14.8301C27.88 14.7801 27.93 14.7301 27.98 14.7301V14.7201ZM19.98 15.2801H20C20.06 15.2801 20.11 15.3401 20.11 15.4001C20.1104 15.4207 20.1049 15.441 20.0943 15.4587C20.0837 15.4764 20.0684 15.4907 20.05 15.5001H19.98C19.9654 15.4977 19.9515 15.4924 19.939 15.4845C19.9266 15.4766 19.9158 15.4663 19.9074 15.4542C19.899 15.442 19.8932 15.4284 19.8902 15.4139C19.8872 15.3995 19.8871 15.3846 19.89 15.3701C19.8962 15.348 19.9092 15.3284 19.9271 15.314C19.9451 15.2997 19.9671 15.2913 19.99 15.2901H19.98V15.2801ZM27.98 15.2801H28C28.06 15.2801 28.11 15.3401 28.11 15.4001C28.1104 15.4207 28.1049 15.441 28.0943 15.4587C28.0837 15.4764 28.0684 15.4907 28.05 15.5001H27.98C27.9654 15.4977 27.9515 15.4924 27.939 15.4845C27.9266 15.4766 27.9158 15.4663 27.9074 15.4542C27.899 15.442 27.8932 15.4284 27.8902 15.4139C27.8872 15.3995 27.8871 15.3846 27.89 15.3701C27.8962 15.348 27.9092 15.3284 27.9271 15.314C27.9451 15.2997 27.9671 15.2913 27.99 15.2901H27.98V15.2801ZM20 15.8501C20.0224 15.8492 20.0446 15.8551 20.0635 15.8671C20.0825 15.8791 20.0973 15.8966 20.106 15.9173C20.1147 15.938 20.1169 15.9608 20.1122 15.9828C20.1076 16.0047 20.0963 16.0247 20.08 16.0401C20.066 16.0612 20.0452 16.0768 20.0211 16.0843C19.9969 16.0919 19.9709 16.0909 19.9474 16.0815C19.924 16.0721 19.9044 16.0549 19.8921 16.0328C19.8799 16.0107 19.8756 15.985 19.88 15.9601C19.8799 15.9448 19.8831 15.9296 19.8892 15.9156C19.8954 15.9015 19.9044 15.8889 19.9157 15.8786C19.927 15.8682 19.9403 15.8603 19.9548 15.8554C19.9693 15.8505 19.9847 15.8487 20 15.8501ZM28 15.8501C28.0217 15.8506 28.0428 15.8575 28.0606 15.87C28.0784 15.8824 28.0921 15.8999 28.1 15.9201C28.1088 15.9398 28.1116 15.9618 28.1081 15.9831C28.1045 16.0045 28.0948 16.0243 28.08 16.0401C28.0693 16.0502 28.0568 16.058 28.043 16.0632C28.0293 16.0683 28.0147 16.0707 28 16.0701C27.9708 16.0701 27.9428 16.0585 27.9222 16.0379C27.9016 16.0173 27.89 15.9893 27.89 15.9601C27.89 15.9309 27.9016 15.9029 27.9222 15.8823C27.9428 15.8617 27.9708 15.8501 28 15.8501ZM16.75 16.9901C16.9601 16.9901 17.1682 17.0315 17.3623 17.1119C17.5564 17.1923 17.7328 17.3102 17.8814 17.4587C18.0299 17.6073 18.1478 17.7837 18.2282 17.9778C18.3086 18.1719 18.35 18.38 18.35 18.5901C18.35 18.8002 18.3086 19.0083 18.2282 19.2024C18.1478 19.3965 18.0299 19.5729 17.8814 19.7215C17.7328 19.87 17.5564 19.9879 17.3623 20.0683C17.1682 20.1487 16.9601 20.1901 16.75 20.1901C16.3256 20.1901 15.9187 20.0215 15.6186 19.7215C15.3186 19.4214 15.15 19.0144 15.15 18.5901C15.15 18.1658 15.3186 17.7588 15.6186 17.4587C15.9187 17.1587 16.3256 16.9901 16.75 16.9901ZM24.22 16.9901C24.4301 16.9901 24.6382 17.0315 24.8323 17.1119C25.0264 17.1923 25.2028 17.3102 25.3514 17.4587C25.4999 17.6073 25.6178 17.7837 25.6982 17.9778C25.7786 18.1719 25.82 18.38 25.82 18.5901C25.82 18.8002 25.7786 19.0083 25.6982 19.2024C25.6178 19.3965 25.4999 19.5729 25.3514 19.7215C25.2028 19.87 25.0264 19.9879 24.8323 20.0683C24.6382 20.1487 24.4301 20.1901 24.22 20.1901C23.7956 20.1901 23.3887 20.0215 23.0886 19.7215C22.7886 19.4214 22.62 19.0144 22.62 18.5901C22.62 18.1658 22.7886 17.7588 23.0886 17.4587C23.3887 17.1587 23.7956 16.9901 24.22 16.9901ZM31.6 16.9901C31.8101 16.9901 32.0182 17.0315 32.2123 17.1119C32.4064 17.1923 32.5828 17.3102 32.7314 17.4587C32.8799 17.6073 32.9978 17.7837 33.0782 17.9778C33.1586 18.1719 33.2 18.38 33.2 18.5901C33.2 18.8002 33.1586 19.0083 33.0782 19.2024C32.9978 19.3965 32.8799 19.5729 32.7314 19.7215C32.5828 19.87 32.4064 19.9879 32.2123 20.0683C32.0182 20.1487 31.8101 20.1901 31.6 20.1901C31.1756 20.1901 30.7687 20.0215 30.4686 19.7215C30.1686 19.4214 30 19.0144 30 18.5901C30 18.1658 30.1686 17.7588 30.4686 17.4587C30.7687 17.1587 31.1756 16.9901 31.6 16.9901ZM20 17.5301C20.0249 17.5257 20.0506 17.53 20.0727 17.5423C20.0948 17.5545 20.112 17.5741 20.1214 17.5975C20.1308 17.621 20.1318 17.647 20.1242 17.6712C20.1167 17.6953 20.1011 17.7161 20.08 17.7301C20.0667 17.7544 20.0447 17.7727 20.0185 17.7815C19.9922 17.7903 19.9636 17.7889 19.9384 17.7775C19.9132 17.7662 19.8931 17.7457 19.8823 17.7202C19.8715 17.6948 19.8707 17.6661 19.88 17.6401C19.88 17.5901 19.93 17.5401 19.99 17.5401L20 17.5301ZM28 17.5301C28.0249 17.5257 28.0506 17.53 28.0727 17.5423C28.0948 17.5545 28.112 17.5741 28.1214 17.5975C28.1308 17.621 28.1318 17.647 28.1242 17.6712C28.1167 17.6953 28.1011 17.7161 28.08 17.7301C28.0667 17.7544 28.0447 17.7727 28.0185 17.7815C27.9922 17.7903 27.9636 17.7889 27.9384 17.7775C27.9132 17.7662 27.8931 17.7457 27.8823 17.7202C27.8715 17.6948 27.8707 17.6661 27.88 17.6401C27.88 17.5901 27.93 17.5401 27.99 17.5401L28 17.5301ZM20 18.6601C20.0292 18.6601 20.0571 18.6717 20.0778 18.6923C20.0984 18.7129 20.11 18.7409 20.11 18.7701C20.1103 18.7864 20.1069 18.8025 20.1002 18.8174C20.0934 18.8322 20.0835 18.8454 20.0711 18.8559C20.0586 18.8664 20.044 18.8741 20.0282 18.8782C20.0125 18.8824 19.996 18.8831 19.98 18.8801C19.9588 18.877 19.9391 18.8677 19.9231 18.8535C19.9071 18.8393 19.8956 18.8207 19.89 18.8001C19.8855 18.7842 19.8846 18.7675 19.8874 18.7512C19.8902 18.7349 19.8967 18.7195 19.9063 18.706C19.9159 18.6926 19.9284 18.6814 19.9429 18.6735C19.9574 18.6655 19.9735 18.661 19.99 18.6601H20ZM28 18.6601C28.0292 18.6601 28.0571 18.6717 28.0778 18.6923C28.0984 18.7129 28.11 18.7409 28.11 18.7701C28.1103 18.7864 28.1069 18.8025 28.1002 18.8174C28.0934 18.8322 28.0835 18.8454 28.0711 18.8559C28.0586 18.8664 28.044 18.8741 28.0282 18.8782C28.0125 18.8824 27.996 18.8831 27.98 18.8801C27.9588 18.877 27.9391 18.8677 27.9231 18.8535C27.9071 18.8393 27.8956 18.8207 27.89 18.8001C27.8855 18.7842 27.8846 18.7675 27.8874 18.7512C27.8902 18.7349 27.8967 18.7195 27.9063 18.706C27.9159 18.6926 27.9284 18.6814 27.9429 18.6735C27.9574 18.6655 27.9735 18.661 27.99 18.6601H28ZM19.98 19.2201H20C20.0249 19.2157 20.0506 19.22 20.0727 19.2323C20.0948 19.2445 20.112 19.2641 20.1214 19.2875C20.1308 19.311 20.1318 19.337 20.1242 19.3612C20.1167 19.3853 20.1011 19.4061 20.08 19.4201C20.0667 19.4444 20.0447 19.4627 20.0185 19.4715C19.9922 19.4803 19.9636 19.4789 19.9384 19.4675C19.9132 19.4562 19.8931 19.4357 19.8823 19.4102C19.8715 19.3848 19.8707 19.3562 19.88 19.3301C19.88 19.2801 19.93 19.2301 19.98 19.2301V19.2201ZM27.98 19.2201H28C28.0249 19.2157 28.0506 19.22 28.0727 19.2323C28.0948 19.2445 28.112 19.2641 28.1214 19.2875C28.1308 19.311 28.1318 19.337 28.1242 19.3612C28.1167 19.3853 28.1011 19.4061 28.08 19.4201C28.0667 19.4444 28.0447 19.4627 28.0185 19.4715C27.9922 19.4803 27.9636 19.4789 27.9384 19.4675C27.9132 19.4562 27.8931 19.4357 27.8823 19.4102C27.8715 19.3848 27.8707 19.3562 27.88 19.3301C27.88 19.2801 27.93 19.2301 27.98 19.2301V19.2201ZM20 19.7801C20.0217 19.7806 20.0428 19.7875 20.0606 19.8C20.0784 19.8124 20.0921 19.8299 20.1 19.8501C20.1063 19.8643 20.1096 19.8796 20.1096 19.8951C20.1096 19.9106 20.1063 19.9259 20.1 19.9401C20.0945 19.9536 20.0863 19.9658 20.076 19.9761C20.0657 19.9864 20.0535 19.9946 20.04 20.0001H20C19.9708 20.0001 19.9428 19.9885 19.9222 19.9679C19.9016 19.9472 19.89 19.9193 19.89 19.8901C19.89 19.8609 19.9016 19.8329 19.9222 19.8123C19.9428 19.7917 19.9708 19.7801 20 19.7801ZM28 19.7801C28.0217 19.7806 28.0428 19.7875 28.0606 19.8C28.0784 19.8124 28.0921 19.8299 28.1 19.8501C28.1063 19.8643 28.1096 19.8796 28.1096 19.8951C28.1096 19.9106 28.1063 19.9259 28.1 19.9401C28.0945 19.9536 28.0863 19.9658 28.076 19.9761C28.0657 19.9864 28.0535 19.9946 28.04 20.0001H28C27.9708 20.0001 27.9428 19.9885 27.9222 19.9679C27.9016 19.9472 27.89 19.9193 27.89 19.8901C27.89 19.8609 27.9016 19.8329 27.9222 19.8123C27.9428 19.7917 27.9708 19.7801 28 19.7801ZM20 20.3401C20.0014 20.3554 19.9996 20.3707 19.9947 20.3853C19.9898 20.3998 19.9819 20.4131 19.9715 20.4244C19.9612 20.4357 19.9486 20.4447 19.9345 20.4509C19.9205 20.457 19.9053 20.4602 19.89 20.4601C19.89 20.4001 19.93 20.3501 19.99 20.3401H20ZM28 20.3401C28.0014 20.3554 27.9996 20.3707 27.9947 20.3853C27.9898 20.3998 27.9819 20.4131 27.9715 20.4244C27.9612 20.4357 27.9486 20.4447 27.9345 20.4509C27.9205 20.457 27.9053 20.4602 27.89 20.4601C27.89 20.4001 27.93 20.3501 27.99 20.3401H28ZM16.75 22.2301C17.1743 22.2301 17.5813 22.3987 17.8814 22.6987C18.1814 22.9988 18.35 23.4058 18.35 23.8301C18.35 24.2544 18.1814 24.6614 17.8814 24.9615C17.5813 25.2615 17.1743 25.4301 16.75 25.4301C16.3256 25.4301 15.9187 25.2615 15.6186 24.9615C15.3186 24.6614 15.15 24.2544 15.15 23.8301C15.15 23.4058 15.3186 22.9988 15.6186 22.6987C15.9187 22.3987 16.3256 22.2301 16.75 22.2301ZM24.22 22.2301C24.6443 22.2301 25.0513 22.3987 25.3514 22.6987C25.6514 22.9988 25.82 23.4058 25.82 23.8301C25.82 24.2544 25.6514 24.6614 25.3514 24.9615C25.0513 25.2615 24.6443 25.4301 24.22 25.4301C23.7956 25.4301 23.3887 25.2615 23.0886 24.9615C22.7886 24.6614 22.62 24.2544 22.62 23.8301C22.62 23.4058 22.7886 22.9988 23.0886 22.6987C23.3887 22.3987 23.7956 22.2301 24.22 22.2301ZM31.6 22.2301C32.0243 22.2301 32.4313 22.3987 32.7314 22.6987C33.0314 22.9988 33.2 23.4058 33.2 23.8301C33.2 24.2544 33.0314 24.6614 32.7314 24.9615C32.4313 25.2615 32.0243 25.4301 31.6 25.4301C31.1756 25.4301 30.7687 25.2615 30.4686 24.9615C30.1686 24.6614 30 24.2544 30 23.8301C30 23.4058 30.1686 22.9988 30.4686 22.6987C30.7687 22.3987 31.1756 22.2301 31.6 22.2301ZM19.98 23.7201H20C20.0249 23.7157 20.0506 23.72 20.0727 23.7323C20.0948 23.7445 20.112 23.7641 20.1214 23.7875C20.1308 23.811 20.1318 23.837 20.1242 23.8612C20.1167 23.8853 20.1011 23.9061 20.08 23.9201C20.0667 23.9444 20.0447 23.9627 20.0185 23.9715C19.9922 23.9803 19.9636 23.9789 19.9384 23.9675C19.9132 23.9562 19.8931 23.9357 19.8823 23.9102C19.8715 23.8848 19.8707 23.8562 19.88 23.8301C19.88 23.7801 19.93 23.7301 19.98 23.7201ZM27.98 23.7201H28C28.0249 23.7157 28.0506 23.72 28.0727 23.7323C28.0948 23.7445 28.112 23.7641 28.1214 23.7875C28.1308 23.811 28.1318 23.837 28.1242 23.8612C28.1167 23.8853 28.1011 23.9061 28.08 23.9201C28.0667 23.9444 28.0447 23.9627 28.0185 23.9715C27.9922 23.9803 27.9636 23.9789 27.9384 23.9675C27.9132 23.9562 27.8931 23.9357 27.8823 23.9102C27.8715 23.8848 27.8707 23.8562 27.88 23.8301C27.88 23.7801 27.93 23.7301 27.98 23.7201ZM19.98 24.2801H20C20.06 24.2801 20.11 24.3301 20.11 24.3901C20.11 24.4193 20.0984 24.4472 20.0778 24.4679C20.0571 24.4885 20.0292 24.5001 20 24.5001C19.9708 24.5001 19.9428 24.4885 19.9222 24.4679C19.9016 24.4472 19.89 24.4193 19.89 24.3901C19.8918 24.3658 19.9016 24.3428 19.9179 24.3247C19.9342 24.3066 19.956 24.2945 19.98 24.2901V24.2801ZM27.98 24.2801H28C28.06 24.2801 28.11 24.3301 28.11 24.3901C28.11 24.4193 28.0984 24.4472 28.0778 24.4679C28.0571 24.4885 28.0292 24.5001 28 24.5001C27.9708 24.5001 27.9428 24.4885 27.9222 24.4679C27.9016 24.4472 27.89 24.4193 27.89 24.3901C27.8918 24.3658 27.9016 24.3428 27.9179 24.3247C27.9342 24.3066 27.956 24.2945 27.98 24.2901V24.2801ZM16.75 27.4601C17.1743 27.4601 17.5813 27.6287 17.8814 27.9287C18.1814 28.2288 18.35 28.6358 18.35 29.0601C18.35 29.4844 18.1814 29.8914 17.8814 30.1915C17.5813 30.4915 17.1743 30.6601 16.75 30.6601C16.3256 30.6601 15.9187 30.4915 15.6186 30.1915C15.3186 29.8914 15.15 29.4844 15.15 29.0601C15.15 28.6358 15.3186 28.2288 15.6186 27.9287C15.9187 27.6287 16.3256 27.4601 16.75 27.4601ZM24.22 27.4601C24.6443 27.4601 25.0513 27.6287 25.3514 27.9287C25.6514 28.2288 25.82 28.6358 25.82 29.0601C25.82 29.4844 25.6514 29.8914 25.3514 30.1915C25.0513 30.4915 24.6443 30.6601 24.22 30.6601C23.7956 30.6601 23.3887 30.4915 23.0886 30.1915C22.7886 29.8914 22.62 29.4844 22.62 29.0601C22.62 28.6358 22.7886 28.2288 23.0886 27.9287C23.3887 27.6287 23.7956 27.4601 24.22 27.4601ZM31.6 27.4601C32.0243 27.4601 32.4313 27.6287 32.7314 27.9287C33.0314 28.2288 33.2 28.6358 33.2 29.0601C33.2 29.4844 33.0314 29.8914 32.7314 30.1915C32.4313 30.4915 32.0243 30.6601 31.6 30.6601C31.1756 30.6601 30.7687 30.4915 30.4686 30.1915C30.1686 29.8914 30 29.4844 30 29.0601C30 28.6358 30.1686 28.2288 30.4686 27.9287C30.7687 27.6287 31.1756 27.4601 31.6 27.4601ZM19.98 28.2201H20C20.0255 28.2191 20.0505 28.227 20.0708 28.2424C20.0911 28.2578 20.1055 28.2797 20.1114 28.3045C20.1173 28.3293 20.1144 28.3554 20.1032 28.3783C20.092 28.4012 20.0732 28.4195 20.05 28.4301C20.0302 28.4389 20.0083 28.4418 19.987 28.4382C19.9656 28.4346 19.9458 28.4249 19.93 28.4101C19.9136 28.3974 19.9012 28.3803 19.8941 28.3609C19.8871 28.3414 19.8856 28.3203 19.89 28.3001C19.8962 28.278 19.9092 28.2584 19.9271 28.244C19.9451 28.2297 19.9671 28.2213 19.99 28.2201H19.98ZM27.98 28.2201H28C28.0255 28.2191 28.0505 28.227 28.0708 28.2424C28.0911 28.2578 28.1055 28.2797 28.1114 28.3045C28.1173 28.3293 28.1144 28.3554 28.1032 28.3783C28.092 28.4012 28.0732 28.4195 28.05 28.4301C28.0302 28.4389 28.0083 28.4418 27.987 28.4382C27.9656 28.4346 27.9458 28.4249 27.93 28.4101C27.9136 28.3974 27.9012 28.3803 27.8941 28.3609C27.8871 28.3414 27.8856 28.3203 27.89 28.3001C27.8962 28.278 27.9092 28.2584 27.9271 28.244C27.9451 28.2297 27.9671 28.2213 27.99 28.2201H27.98ZM20 28.7801C20.0222 28.7802 20.0438 28.787 20.062 28.7996C20.0803 28.8122 20.0943 28.83 20.1022 28.8506C20.1102 28.8713 20.1117 28.8939 20.1066 28.9155C20.1014 28.9371 20.0899 28.9566 20.0735 28.9715C20.0571 28.9864 20.0366 28.996 20.0147 28.9991C19.9927 29.0021 19.9703 28.9984 19.9505 28.9886C19.9307 28.9787 19.9143 28.963 19.9035 28.9437C19.8927 28.9243 19.888 28.9022 19.89 28.8801C19.8925 28.8527 19.9052 28.8272 19.9255 28.8087C19.9459 28.7902 19.9725 28.78 20 28.7801ZM28 28.7801C28.0222 28.7802 28.0438 28.787 28.062 28.7996C28.0803 28.8122 28.0943 28.83 28.1022 28.8506C28.1102 28.8713 28.1117 28.8939 28.1066 28.9155C28.1014 28.9371 28.0899 28.9566 28.0735 28.9715C28.0571 28.9864 28.0366 28.996 28.0147 28.9991C27.9927 29.0021 27.9703 28.9984 27.9505 28.9886C27.9307 28.9787 27.9143 28.963 27.9035 28.9437C27.8927 28.9243 27.888 28.9022 27.89 28.8801C27.8925 28.8527 27.9052 28.8272 27.9255 28.8087C27.9459 28.7902 27.9725 28.78 28 28.7801ZM20 31.0201C20.0153 31.02 20.0305 31.0232 20.0445 31.0293C20.0586 31.0355 20.0712 31.0445 20.0815 31.0558C20.0919 31.0671 20.0998 31.0804 20.1047 31.0949C20.1096 31.1094 20.1114 31.1248 20.11 31.1401C20.1099 31.1614 20.1036 31.1822 20.0919 31.2C20.0802 31.2179 20.0636 31.2319 20.0441 31.2404C20.0245 31.249 20.003 31.2516 19.9819 31.2482C19.9609 31.2447 19.9414 31.2351 19.9257 31.2207C19.91 31.2063 19.8988 31.1877 19.8935 31.167C19.8881 31.1464 19.8889 31.1247 19.8958 31.1045C19.9026 31.0843 19.9151 31.0665 19.9318 31.0533C19.9486 31.0401 19.9688 31.032 19.99 31.0301L20 31.0201ZM28 31.0201C28.0153 31.02 28.0305 31.0232 28.0445 31.0293C28.0586 31.0355 28.0712 31.0445 28.0815 31.0558C28.0919 31.0671 28.0998 31.0804 28.1047 31.0949C28.1096 31.1094 28.1114 31.1248 28.11 31.1401C28.1099 31.1614 28.1036 31.1822 28.0919 31.2C28.0802 31.2179 28.0636 31.2319 28.0441 31.2404C28.0245 31.249 28.003 31.2516 27.9819 31.2482C27.9609 31.2447 27.9414 31.2351 27.9257 31.2207C27.91 31.2063 27.8988 31.1877 27.8935 31.167C27.8881 31.1464 27.8889 31.1247 27.8958 31.1045C27.9026 31.0843 27.9151 31.0665 27.9318 31.0533C27.9486 31.0401 27.9688 31.032 27.99 31.0301L28 31.0201ZM20 31.5901C20.0274 31.5926 20.0529 31.6053 20.0714 31.6256C20.0899 31.646 20.1001 31.6726 20.1 31.7001C20.0999 31.7223 20.0931 31.7439 20.0805 31.7621C20.0679 31.7804 20.0501 31.7944 20.0294 31.8023C20.0088 31.8103 19.9861 31.8118 19.9646 31.8067C19.943 31.8015 19.9235 31.79 19.9086 31.7736C19.8937 31.7572 19.8841 31.7367 19.881 31.7148C19.878 31.6928 19.8816 31.6704 19.8915 31.6506C19.9014 31.6308 19.917 31.6144 19.9364 31.6036C19.9558 31.5928 19.9779 31.5881 20 31.5901ZM28 31.5901C28.0274 31.5926 28.0529 31.6053 28.0714 31.6256C28.0899 31.646 28.1001 31.6726 28.1 31.7001C28.0999 31.7223 28.0931 31.7439 28.0805 31.7621C28.0679 31.7804 28.0501 31.7944 28.0294 31.8023C28.0088 31.8103 27.9861 31.8118 27.9646 31.8067C27.943 31.8015 27.9235 31.79 27.9086 31.7736C27.8937 31.7572 27.8841 31.7367 27.881 31.7148C27.878 31.6928 27.8816 31.6704 27.8915 31.6506C27.9014 31.6308 27.917 31.6144 27.9364 31.6036C27.9558 31.5928 27.9779 31.5881 28 31.5901ZM19.98 32.1501H20C20.0249 32.1457 20.0506 32.15 20.0727 32.1623C20.0948 32.1745 20.112 32.1941 20.1214 32.2176C20.1308 32.241 20.1318 32.267 20.1242 32.2912C20.1167 32.3153 20.1011 32.3361 20.08 32.3501C20.0667 32.3744 20.0447 32.3927 20.0185 32.4015C19.9922 32.4103 19.9636 32.4089 19.9384 32.3975C19.9132 32.3862 19.8931 32.3657 19.8823 32.3402C19.8715 32.3148 19.8707 32.2861 19.88 32.2601C19.8822 32.2343 19.8935 32.2102 19.9118 32.1919C19.9301 32.1736 19.9542 32.1624 19.98 32.1601V32.1501ZM27.98 32.1501H28C28.0249 32.1457 28.0506 32.15 28.0727 32.1623C28.0948 32.1745 28.112 32.1941 28.1214 32.2176C28.1308 32.241 28.1318 32.267 28.1242 32.2912C28.1167 32.3153 28.1011 32.3361 28.08 32.3501C28.0667 32.3744 28.0447 32.3927 28.0185 32.4015C27.9922 32.4103 27.9636 32.4089 27.9384 32.3975C27.9132 32.3862 27.8931 32.3657 27.8823 32.3402C27.8715 32.3148 27.8707 32.2861 27.88 32.2601C27.8822 32.2343 27.8935 32.2102 27.9118 32.1919C27.9301 32.1736 27.9542 32.1624 27.98 32.1601V32.1501ZM16.75 32.7001C16.9601 32.6929 17.1696 32.7271 17.3665 32.8008C17.5634 32.8746 17.7438 32.9864 17.8975 33.1298C18.0511 33.2733 18.1751 33.4456 18.2621 33.637C18.3492 33.8283 18.3978 34.035 18.405 34.2451C18.4122 34.4552 18.378 34.6647 18.3042 34.8616C18.2305 35.0585 18.1187 35.2389 17.9753 35.3926C17.8318 35.5463 17.6595 35.6702 17.4681 35.7573C17.2767 35.8443 17.0701 35.8929 16.86 35.9001C16.4356 35.9147 16.0229 35.7601 15.7125 35.4704C15.4021 35.1806 15.2196 34.7794 15.205 34.3551C15.1904 33.9308 15.345 33.518 15.6347 33.2076C15.9245 32.8972 16.3256 32.7147 16.75 32.7001ZM24.22 32.7001C24.6443 32.7001 25.0513 32.8687 25.3514 33.1687C25.6514 33.4688 25.82 33.8758 25.82 34.3001C25.82 34.7244 25.6514 35.1314 25.3514 35.4315C25.0513 35.7315 24.6443 35.9001 24.22 35.9001C23.7956 35.9001 23.3887 35.7315 23.0886 35.4315C22.7886 35.1314 22.62 34.7244 22.62 34.3001C22.62 33.8758 22.7886 33.4688 23.0886 33.1687C23.3887 32.8687 23.7956 32.7001 24.22 32.7001ZM31.6 32.7001C32.0243 32.7001 32.4313 32.8687 32.7314 33.1687C33.0314 33.4688 33.2 33.8758 33.2 34.3001C33.2 34.7244 33.0314 35.1314 32.7314 35.4315C32.4313 35.7315 32.0243 35.9001 31.6 35.9001C31.1756 35.9001 30.7687 35.7315 30.4686 35.4315C30.1686 35.1314 30 34.7244 30 34.3001C30 33.8758 30.1686 33.4688 30.4686 33.1687C30.7687 32.8687 31.1756 32.7001 31.6 32.7001ZM19.98 32.7101H20C20.06 32.7101 20.11 32.7601 20.11 32.8201C20.1116 32.8413 20.107 32.8624 20.0968 32.8811C20.0866 32.8997 20.0712 32.915 20.0525 32.925C20.0338 32.9351 20.0126 32.9396 19.9914 32.9378C19.9703 32.9361 19.95 32.9283 19.9332 32.9154C19.9164 32.9025 19.9037 32.8849 19.8966 32.8649C19.8895 32.8449 19.8884 32.8232 19.8933 32.8026C19.8983 32.7819 19.9091 32.7632 19.9245 32.7485C19.9398 32.7339 19.9591 32.724 19.98 32.7201V32.7101ZM27.98 32.7101H28C28.06 32.7101 28.11 32.7601 28.11 32.8201C28.1116 32.8413 28.107 32.8624 28.0968 32.8811C28.0866 32.8997 28.0712 32.915 28.0525 32.925C28.0338 32.9351 28.0126 32.9396 27.9914 32.9378C27.9703 32.9361 27.95 32.9283 27.9332 32.9154C27.9164 32.9025 27.9037 32.8849 27.8966 32.8649C27.8895 32.8449 27.8884 32.8232 27.8933 32.8026C27.8983 32.7819 27.9091 32.7632 27.9245 32.7485C27.9398 32.7339 27.9591 32.724 27.98 32.7201V32.7101ZM20 33.2701C20.0249 33.2657 20.0506 33.27 20.0727 33.2823C20.0948 33.2945 20.112 33.3141 20.1214 33.3375C20.1308 33.361 20.1318 33.387 20.1242 33.4112C20.1167 33.4353 20.1011 33.4561 20.08 33.4701C20.0693 33.4802 20.0568 33.488 20.043 33.4932C20.0293 33.4983 20.0147 33.5007 20 33.5001C19.9783 33.4996 19.9572 33.4927 19.9394 33.4802C19.9216 33.4678 19.9079 33.4503 19.9 33.4301L19.89 33.3901C19.89 33.3301 19.94 33.2701 20 33.2701ZM28 33.2701C28.0249 33.2657 28.0506 33.27 28.0727 33.2823C28.0948 33.2945 28.112 33.3141 28.1214 33.3375C28.1308 33.361 28.1318 33.387 28.1242 33.4112C28.1167 33.4353 28.1011 33.4561 28.08 33.4701C28.0693 33.4802 28.0568 33.488 28.043 33.4932C28.0293 33.4983 28.0147 33.5007 28 33.5001C27.9783 33.4996 27.9572 33.4927 27.9394 33.4802C27.9216 33.4678 27.9079 33.4503 27.9 33.4301L27.89 33.3901C27.89 33.3301 27.94 33.2701 28 33.2701ZM20 33.8401C20.0274 33.8426 20.0529 33.8553 20.0714 33.8756C20.0899 33.896 20.1001 33.9226 20.1 33.9501C20.0999 33.9723 20.0931 33.9939 20.0805 34.0121C20.0679 34.0304 20.0501 34.0444 20.0294 34.0523C20.0088 34.0603 19.9861 34.0618 19.9646 34.0567C19.943 34.0516 19.9235 34.04 19.9086 34.0236C19.8937 34.0072 19.8841 33.9867 19.881 33.9648C19.878 33.9428 19.8816 33.9204 19.8915 33.9006C19.9014 33.8808 19.917 33.8644 19.9364 33.8536C19.9558 33.8428 19.9779 33.8381 20 33.8401ZM28 33.8401C28.0274 33.8426 28.0529 33.8553 28.0714 33.8756C28.0899 33.896 28.1001 33.9226 28.1 33.9501C28.0999 33.9723 28.0931 33.9939 28.0805 34.0121C28.0679 34.0304 28.0501 34.0444 28.0294 34.0523C28.0088 34.0603 27.9861 34.0618 27.9646 34.0567C27.943 34.0516 27.9235 34.04 27.9086 34.0236C27.8937 34.0072 27.8841 33.9867 27.881 33.9648C27.878 33.9428 27.8816 33.9204 27.8915 33.9006C27.9014 33.8808 27.917 33.8644 27.9364 33.8536C27.9558 33.8428 27.9779 33.8381 28 33.8401ZM19.98 37.2101H20C20.0255 37.2091 20.0505 37.217 20.0708 37.2324C20.0911 37.2478 20.1055 37.2697 20.1114 37.2945C20.1173 37.3193 20.1144 37.3454 20.1032 37.3683C20.092 37.3912 20.0732 37.4095 20.05 37.4201C20.0312 37.4303 20.0098 37.4348 19.9885 37.433C19.9672 37.4312 19.9469 37.4233 19.93 37.4101C19.9118 37.3966 19.8982 37.3779 19.891 37.3564C19.8839 37.3349 19.8835 37.3118 19.89 37.2901C19.8962 37.268 19.9092 37.2484 19.9271 37.234C19.9451 37.2197 19.9671 37.2113 19.99 37.2101H19.98ZM27.98 37.2101H28C28.0255 37.2091 28.0505 37.217 28.0708 37.2324C28.0911 37.2478 28.1055 37.2697 28.1114 37.2945C28.1173 37.3193 28.1144 37.3454 28.1032 37.3683C28.092 37.3912 28.0732 37.4095 28.05 37.4201C28.0312 37.4303 28.0098 37.4348 27.9885 37.433C27.9672 37.4312 27.9469 37.4233 27.93 37.4101C27.9118 37.3966 27.8982 37.3779 27.891 37.3564C27.8839 37.3349 27.8835 37.3118 27.89 37.2901C27.8962 37.268 27.9092 37.2484 27.9271 37.234C27.9451 37.2197 27.9671 37.2113 27.99 37.2101H27.98ZM19.99 37.7701H20C20.0274 37.7726 20.0529 37.7853 20.0714 37.8056C20.0899 37.826 20.1001 37.8526 20.1 37.8801C20.102 37.9026 20.097 37.9251 20.0857 37.9447C20.0744 37.9642 20.0574 37.9798 20.0369 37.9894C20.0164 37.9989 19.9935 38.0019 19.9713 37.998C19.9491 37.9941 19.9286 37.9834 19.9126 37.9675C19.8967 37.9515 19.886 37.931 19.8821 37.9088C19.8782 37.8866 19.8812 37.8637 19.8907 37.8432C19.9003 37.8227 19.9159 37.8057 19.9354 37.7944C19.955 37.7831 19.9775 37.7781 20 37.7801L19.99 37.7701ZM27.99 37.7701H28C28.0274 37.7726 28.0529 37.7853 28.0714 37.8056C28.0899 37.826 28.1001 37.8526 28.1 37.8801C28.102 37.9026 28.097 37.9251 28.0857 37.9447C28.0744 37.9642 28.0574 37.9798 28.0369 37.9894C28.0164 37.9989 27.9935 38.0019 27.9713 37.998C27.9491 37.9941 27.9286 37.9834 27.9126 37.9675C27.8967 37.9515 27.886 37.931 27.8821 37.9088C27.8782 37.8866 27.8812 37.8637 27.8907 37.8432C27.9003 37.8227 27.9159 37.8057 27.9354 37.7944C27.955 37.7831 27.9775 37.7781 28 37.7801L27.99 37.7701ZM24.22 37.9701C24.6443 37.9595 25.0555 38.1179 25.3631 38.4104C25.6706 38.703 25.8494 39.1058 25.86 39.5301C25.8706 39.9544 25.7122 40.3656 25.4196 40.6732C25.1271 40.9807 24.7243 41.1595 24.3 41.1701C24.0899 41.1754 23.8808 41.1392 23.6847 41.0636C23.4885 40.9881 23.3092 40.8746 23.1569 40.7298C23.0046 40.5849 22.8823 40.4115 22.7971 40.2193C22.7118 40.0272 22.6652 39.8202 22.66 39.6101C22.6547 39.4 22.6909 39.1909 22.7665 38.9948C22.842 38.7986 22.9555 38.6193 23.1003 38.467C23.2452 38.3147 23.4186 38.1925 23.6107 38.1072C23.8029 38.0219 24.0099 37.9754 24.22 37.9701ZM19.99 39.4601H20C20.0274 39.4626 20.0529 39.4753 20.0714 39.4957C20.0899 39.516 20.1001 39.5426 20.1 39.5701C20.0999 39.5923 20.0931 39.6139 20.0805 39.6321C20.0679 39.6504 20.0501 39.6644 20.0294 39.6723C20.0088 39.6803 19.9861 39.6818 19.9646 39.6767C19.943 39.6716 19.9235 39.66 19.9086 39.6436C19.8937 39.6272 19.8841 39.6067 19.881 39.5848C19.878 39.5628 19.8816 39.5405 19.8915 39.5206C19.9014 39.5008 19.917 39.4844 19.9364 39.4736C19.9558 39.4628 19.9779 39.4581 20 39.4601H19.99ZM27.99 39.4601H28C28.0274 39.4626 28.0529 39.4753 28.0714 39.4957C28.0899 39.516 28.1001 39.5426 28.1 39.5701C28.0999 39.5923 28.0931 39.6139 28.0805 39.6321C28.0679 39.6504 28.0501 39.6644 28.0294 39.6723C28.0088 39.6803 27.9861 39.6818 27.9646 39.6767C27.943 39.6716 27.9235 39.66 27.9086 39.6436C27.8937 39.6272 27.8841 39.6067 27.881 39.5848C27.878 39.5628 27.8816 39.5405 27.8915 39.5206C27.9014 39.5008 27.917 39.4844 27.9364 39.4736C27.9558 39.4628 27.9779 39.4581 28 39.4601H27.99ZM19.99 40.0201H20C20.0145 40.0214 20.0285 40.0255 20.0414 40.0322C20.0543 40.0389 20.0657 40.0481 20.075 40.0593C20.0843 40.0704 20.0913 40.0833 20.0956 40.0972C20.0999 40.1111 20.1014 40.1256 20.1 40.1401C20.0979 40.1617 20.0895 40.1822 20.0758 40.1991C20.0621 40.2159 20.0437 40.2284 20.023 40.2348C20.0022 40.2412 19.9801 40.2413 19.9592 40.2352C19.9384 40.229 19.9199 40.2168 19.906 40.2001C19.8921 40.1834 19.8834 40.163 19.8811 40.1414C19.8788 40.1198 19.8829 40.098 19.893 40.0788C19.903 40.0595 19.9186 40.0437 19.9376 40.0332C19.9566 40.0228 19.9784 40.0182 20 40.0201H19.99ZM27.99 40.0201H28C28.0145 40.0214 28.0285 40.0255 28.0414 40.0322C28.0543 40.0389 28.0657 40.0481 28.075 40.0593C28.0843 40.0704 28.0913 40.0833 28.0956 40.0972C28.0999 40.1111 28.1014 40.1256 28.1 40.1401C28.0979 40.1617 28.0895 40.1822 28.0758 40.1991C28.0621 40.2159 28.0437 40.2284 28.023 40.2348C28.0022 40.2412 27.9801 40.2413 27.9592 40.2352C27.9384 40.229 27.9199 40.2168 27.906 40.2001C27.8921 40.1834 27.8834 40.163 27.8811 40.1414C27.8788 40.1198 27.8829 40.098 27.893 40.0788C27.903 40.0595 27.9186 40.0437 27.9376 40.0332C27.9566 40.0228 27.9784 40.0182 28 40.0201H27.99ZM19.99 40.5801H20C20.0145 40.5814 20.0285 40.5855 20.0414 40.5922C20.0543 40.5989 20.0657 40.6081 20.075 40.6193C20.0843 40.6304 20.0913 40.6433 20.0956 40.6572C20.0999 40.6711 20.1014 40.6856 20.1 40.7001C20.0979 40.7217 20.0895 40.7422 20.0758 40.7591C20.0621 40.7759 20.0437 40.7884 20.023 40.7948C20.0022 40.8012 19.9801 40.8013 19.9592 40.7952C19.9384 40.789 19.9199 40.7768 19.906 40.7601C19.8921 40.7434 19.8834 40.723 19.8811 40.7014C19.8788 40.6798 19.8829 40.658 19.893 40.6388C19.903 40.6195 19.9186 40.6037 19.9376 40.5932C19.9566 40.5828 19.9784 40.5782 20 40.5801H19.99ZM27.99 40.5801H28C28.0145 40.5814 28.0285 40.5855 28.0414 40.5922C28.0543 40.5989 28.0657 40.6081 28.075 40.6193C28.0843 40.6304 28.0913 40.6433 28.0956 40.6572C28.0999 40.6711 28.1014 40.6856 28.1 40.7001C28.0979 40.7217 28.0895 40.7422 28.0758 40.7591C28.0621 40.7759 28.0437 40.7884 28.023 40.7948C28.0022 40.8012 27.9801 40.8013 27.9592 40.7952C27.9384 40.789 27.9199 40.7768 27.906 40.7601C27.8921 40.7434 27.8834 40.723 27.8811 40.7014C27.8788 40.6798 27.8829 40.658 27.893 40.6388C27.903 40.6195 27.9186 40.6037 27.9376 40.5932C27.9566 40.5828 27.9784 40.5782 28 40.5801H27.99ZM19.98 41.1501H20C20.0224 41.1492 20.0446 41.1551 20.0635 41.1671C20.0825 41.1791 20.0973 41.1966 20.106 41.2173C20.1147 41.238 20.1169 41.2608 20.1122 41.2828C20.1076 41.3047 20.0963 41.3247 20.08 41.3401C20.066 41.3612 20.0452 41.3768 20.0211 41.3843C19.9969 41.3919 19.9709 41.3909 19.9474 41.3815C19.924 41.3721 19.9044 41.3549 19.8921 41.3328C19.8799 41.3107 19.8756 41.285 19.88 41.2601C19.8799 41.2326 19.8901 41.206 19.9086 41.1856C19.9271 41.1653 19.9526 41.1526 19.98 41.1501ZM27.98 41.1501H28C28.0224 41.1492 28.0446 41.1551 28.0635 41.1671C28.0825 41.1791 28.0973 41.1966 28.106 41.2173C28.1147 41.238 28.1169 41.2608 28.1122 41.2828C28.1076 41.3047 28.0963 41.3247 28.08 41.3401C28.066 41.3612 28.0452 41.3768 28.0211 41.3843C27.9969 41.3919 27.9709 41.3909 27.9474 41.3815C27.924 41.3721 27.9044 41.3549 27.8921 41.3328C27.8799 41.3107 27.8756 41.285 27.88 41.2601C27.8799 41.2326 27.8901 41.206 27.9086 41.1856C27.9271 41.1653 27.9526 41.1526 27.98 41.1501ZM19.98 41.7101H20C20.06 41.7101 20.11 41.7601 20.11 41.8201C20.11 41.8801 20.06 41.9301 20 41.9301C19.9787 41.9311 19.9576 41.9259 19.9392 41.9151C19.9208 41.9044 19.9059 41.8885 19.8964 41.8694C19.8868 41.8503 19.883 41.8289 19.8854 41.8077C19.8879 41.7865 19.8964 41.7665 19.91 41.7501C19.9274 41.7284 19.9524 41.7141 19.98 41.7101ZM27.98 41.7101H28C28.06 41.7101 28.11 41.7601 28.11 41.8201C28.11 41.8801 28.06 41.9301 28 41.9301C27.9787 41.9311 27.9576 41.9259 27.9392 41.9151C27.9208 41.9044 27.9059 41.8885 27.8964 41.8694C27.8868 41.8503 27.883 41.8289 27.8854 41.8077C27.8879 41.7865 27.8964 41.7665 27.91 41.7501C27.9274 41.7284 27.9524 41.7141 27.98 41.7101ZM20 42.2701C20.0236 42.2696 20.0467 42.2766 20.066 42.2903C20.0853 42.3039 20.0996 42.3234 20.107 42.3458C20.1144 42.3683 20.1143 42.3925 20.1068 42.4149C20.0994 42.4372 20.0849 42.4567 20.0655 42.4702C20.0462 42.4837 20.023 42.4907 19.9994 42.49C19.9758 42.4894 19.9531 42.4811 19.9345 42.4666C19.9159 42.452 19.9026 42.4318 19.8964 42.409C19.8901 42.3863 19.8914 42.3621 19.9 42.3401C19.9079 42.3199 19.9216 42.3024 19.9394 42.29C19.9572 42.2775 19.9783 42.2706 20 42.2701ZM28 42.2701C28.0217 42.2701 28.043 42.2766 28.0611 42.2886C28.0792 42.3007 28.0933 42.3179 28.1016 42.338C28.1099 42.3581 28.1121 42.3802 28.1079 42.4016C28.1036 42.4229 28.0932 42.4425 28.0778 42.4579C28.0624 42.4733 28.0428 42.4837 28.0214 42.488C28.0001 42.4922 27.978 42.4901 27.9579 42.4817C27.9378 42.4734 27.9206 42.4593 27.9085 42.4412C27.8964 42.4231 27.89 42.4019 27.89 42.3801C27.89 42.3509 27.9016 42.3229 27.9222 42.3023C27.9428 42.2817 27.9708 42.2701 28 42.2701Z" fill="#333333"/>
</svg>
