<svg width="48" height="48" viewBox="0 0 48 48" fill="none" xmlns="http://www.w3.org/2000/svg">
<path d="M14.346 4.09402C13.476 4.09402 12.777 4.79302 12.777 5.66202V42.523C12.777 43.393 13.477 44.093 14.346 44.093H34.05C34.92 44.093 35.618 43.393 35.618 42.523V5.66302C35.618 4.79302 34.919 4.09302 34.05 4.09302H14.346V4.09402ZM16.213 9.47702C16.4277 9.46942 16.6418 9.50516 16.8424 9.5821C17.0431 9.65903 17.2261 9.77559 17.3807 9.92482C17.5353 10.0741 17.6583 10.2529 17.7423 10.4507C17.8263 10.6485 17.8695 10.8611 17.8695 11.076C17.8695 11.2909 17.8263 11.5036 17.7423 11.7014C17.6583 11.8991 17.5353 12.078 17.3807 12.2272C17.2261 12.3764 17.0431 12.493 16.8424 12.5699C16.6418 12.6469 16.4277 12.6826 16.213 12.675C15.7987 12.6604 15.4062 12.4855 15.1183 12.1872C14.8304 11.8889 14.6695 11.4906 14.6695 11.076C14.6695 10.6615 14.8304 10.2631 15.1183 9.96482C15.4062 9.66655 15.7987 9.49167 16.213 9.47702ZM20.213 9.47702C20.4277 9.46942 20.6418 9.50516 20.8424 9.5821C21.0431 9.65903 21.2261 9.77559 21.3807 9.92482C21.5353 10.0741 21.6583 10.2529 21.7423 10.4507C21.8263 10.6485 21.8695 10.8611 21.8695 11.076C21.8695 11.2909 21.8263 11.5036 21.7423 11.7014C21.6583 11.8991 21.5353 12.078 21.3807 12.2272C21.2261 12.3764 21.0431 12.493 20.8424 12.5699C20.6418 12.6469 20.4277 12.6826 20.213 12.675C19.7987 12.6604 19.4062 12.4855 19.1183 12.1872C18.8304 11.8889 18.6695 11.4906 18.6695 11.076C18.6695 10.6615 18.8304 10.2631 19.1183 9.96482C19.4062 9.66655 19.7987 9.49167 20.213 9.47702ZM24.213 9.47702C24.4277 9.46942 24.6418 9.50516 24.8424 9.5821C25.0431 9.65903 25.2261 9.77559 25.3807 9.92482C25.5353 10.0741 25.6583 10.2529 25.7423 10.4507C25.8263 10.6485 25.8695 10.8611 25.8695 11.076C25.8695 11.2909 25.8263 11.5036 25.7423 11.7014C25.6583 11.8991 25.5353 12.078 25.3807 12.2272C25.2261 12.3764 25.0431 12.493 24.8424 12.5699C24.6418 12.6469 24.4277 12.6826 24.213 12.675C23.7987 12.6604 23.4062 12.4855 23.1183 12.1872C22.8304 11.8889 22.6695 11.4906 22.6695 11.076C22.6695 10.6615 22.8304 10.2631 23.1183 9.96482C23.4062 9.66655 23.7987 9.49167 24.213 9.47702ZM28.213 9.47702C28.4277 9.46942 28.6418 9.50516 28.8424 9.5821C29.0431 9.65903 29.2261 9.77559 29.3807 9.92482C29.5353 10.0741 29.6583 10.2529 29.7423 10.4507C29.8263 10.6485 29.8695 10.8611 29.8695 11.076C29.8695 11.2909 29.8263 11.5036 29.7423 11.7014C29.6583 11.8991 29.5353 12.078 29.3807 12.2272C29.2261 12.3764 29.0431 12.493 28.8424 12.5699C28.6418 12.6469 28.4277 12.6826 28.213 12.675C27.7987 12.6604 27.4062 12.4855 27.1183 12.1872C26.8304 11.8889 26.6695 11.4906 26.6695 11.076C26.6695 10.6615 26.8304 10.2631 27.1183 9.96482C27.4062 9.66655 27.7987 9.49167 28.213 9.47702ZM32.213 9.47702C32.4277 9.46942 32.6418 9.50516 32.8424 9.5821C33.0431 9.65903 33.2261 9.77559 33.3807 9.92482C33.5353 10.0741 33.6583 10.2529 33.7423 10.4507C33.8263 10.6485 33.8695 10.8611 33.8695 11.076C33.8695 11.2909 33.8263 11.5036 33.7423 11.7014C33.6583 11.8991 33.5353 12.078 33.3807 12.2272C33.2261 12.3764 33.0431 12.493 32.8424 12.5699C32.6418 12.6469 32.4277 12.6826 32.213 12.675C31.7987 12.6604 31.4062 12.4855 31.1183 12.1872C30.8304 11.8889 30.6695 11.4906 30.6695 11.076C30.6695 10.6615 30.8304 10.2631 31.1183 9.96482C31.4062 9.66655 31.7987 9.49167 32.213 9.47702ZM13.795 14.98C13.8232 14.9827 13.8495 14.9958 13.8686 15.0168C13.8877 15.0378 13.8983 15.0651 13.8983 15.0935C13.8983 15.1219 13.8877 15.1493 13.8686 15.1703C13.8495 15.1913 13.8232 15.2044 13.795 15.207C13.7654 15.2062 13.7374 15.194 13.7166 15.1729C13.6959 15.1519 13.6842 15.1236 13.684 15.094C13.684 15.031 13.733 14.981 13.794 14.98H13.795ZM14.357 14.98C14.3839 14.9792 14.4102 14.9884 14.4309 15.0057C14.4515 15.023 14.4651 15.0473 14.469 15.074V15.094C14.468 15.155 14.419 15.207 14.357 15.207C14.3272 15.2065 14.2987 15.1944 14.2776 15.1734C14.2566 15.1523 14.2445 15.1238 14.244 15.094C14.244 15.031 14.295 14.981 14.357 14.98ZM14.92 14.98C14.9468 14.9795 14.9728 14.9887 14.9932 15.0061C15.0137 15.0234 15.0271 15.0475 15.031 15.074V15.094C15.031 15.155 14.981 15.207 14.92 15.207C14.8901 15.2068 14.8615 15.1948 14.8404 15.1736C14.8192 15.1525 14.8072 15.1239 14.807 15.094C14.807 15.031 14.857 14.98 14.92 14.98ZM15.482 14.98C15.542 14.98 15.59 15.027 15.594 15.086V15.094C15.593 15.155 15.544 15.207 15.482 15.207C15.4521 15.2068 15.4235 15.1948 15.4024 15.1736C15.3812 15.1525 15.3692 15.1239 15.369 15.094C15.369 15.031 15.419 14.98 15.482 14.98ZM16.045 14.98C16.105 14.98 16.153 15.027 16.156 15.086V15.094C16.156 15.155 16.106 15.207 16.045 15.207C16.0151 15.2068 15.9865 15.1948 15.9654 15.1736C15.9442 15.1525 15.9322 15.1239 15.932 15.094C15.932 15.031 15.982 14.98 16.045 14.98ZM16.607 14.98C16.667 14.98 16.715 15.027 16.719 15.086V15.094C16.718 15.155 16.669 15.207 16.607 15.207C16.5771 15.2068 16.5485 15.1948 16.5274 15.1736C16.5062 15.1525 16.4942 15.1239 16.494 15.094C16.494 15.031 16.544 14.98 16.607 14.98ZM17.168 14.98C17.228 14.98 17.278 15.026 17.281 15.086V15.094C17.2807 15.1239 17.2687 15.1525 17.2476 15.1736C17.2265 15.1948 17.1979 15.2068 17.168 15.207C17.1384 15.2062 17.1104 15.194 17.0896 15.1729C17.0689 15.1519 17.0572 15.1236 17.057 15.094C17.057 15.031 17.106 14.981 17.168 14.98ZM17.731 14.98C17.791 14.98 17.841 15.026 17.844 15.086V15.094C17.8437 15.1241 17.8316 15.1528 17.8102 15.174C17.7889 15.1951 17.76 15.207 17.73 15.207C17.7006 15.206 17.6728 15.1937 17.6523 15.1726C17.6318 15.1516 17.6202 15.1234 17.62 15.094C17.619 15.031 17.669 14.981 17.73 14.98H17.731ZM18.293 14.98C18.353 14.98 18.403 15.026 18.406 15.086V15.094C18.4057 15.1239 18.3937 15.1525 18.3726 15.1736C18.3515 15.1948 18.3229 15.2068 18.293 15.207C18.2634 15.2062 18.2354 15.194 18.2146 15.1729C18.1939 15.1519 18.1822 15.1236 18.182 15.094C18.182 15.031 18.231 14.981 18.293 14.98ZM18.856 14.98C18.8826 14.9797 18.9084 14.9891 18.9286 15.0064C18.9488 15.0237 18.9621 15.0477 18.966 15.074V15.094C18.966 15.155 18.916 15.207 18.856 15.207C18.8263 15.2065 18.7979 15.1944 18.777 15.1733C18.7561 15.1522 18.7442 15.1237 18.744 15.094C18.744 15.031 18.794 14.981 18.855 14.98H18.856ZM19.418 14.98C19.478 14.98 19.526 15.027 19.529 15.086V15.094C19.529 15.155 19.479 15.207 19.418 15.207C19.3881 15.2068 19.3595 15.1948 19.3384 15.1736C19.3172 15.1525 19.3052 15.1239 19.305 15.094C19.305 15.031 19.355 14.98 19.418 14.98ZM19.981 14.98C20.04 14.98 20.088 15.027 20.091 15.086V15.094C20.091 15.155 20.041 15.207 19.981 15.207C19.9509 15.207 19.9221 15.1951 19.9007 15.174C19.8794 15.1528 19.8672 15.1241 19.867 15.094C19.867 15.031 19.917 14.98 19.98 14.98H19.981ZM20.543 14.98C20.603 14.98 20.651 15.027 20.654 15.086V15.094C20.654 15.155 20.604 15.207 20.543 15.207C20.5131 15.2068 20.4845 15.1948 20.4634 15.1736C20.4422 15.1525 20.4302 15.1239 20.43 15.094C20.43 15.031 20.48 14.98 20.543 14.98ZM21.106 14.98C21.165 14.98 21.213 15.027 21.216 15.086V15.094C21.216 15.155 21.166 15.207 21.106 15.207C21.0759 15.207 21.0471 15.1951 21.0257 15.174C21.0044 15.1528 20.9922 15.1241 20.992 15.094C20.992 15.031 21.042 14.98 21.105 14.98H21.106ZM21.666 14.98C21.726 14.98 21.776 15.026 21.779 15.086V15.094C21.7787 15.1239 21.7667 15.1525 21.7456 15.1736C21.7245 15.1948 21.6959 15.2068 21.666 15.207C21.6364 15.2062 21.6084 15.194 21.5876 15.1729C21.5669 15.1519 21.5552 15.1236 21.555 15.094C21.555 15.031 21.604 14.981 21.666 14.98ZM22.229 14.98C22.289 14.98 22.339 15.026 22.342 15.086V15.094C22.3417 15.1239 22.3297 15.1525 22.3086 15.1736C22.2875 15.1948 22.2589 15.2068 22.229 15.207C22.1993 15.2065 22.1709 15.1944 22.15 15.1733C22.1291 15.1522 22.1172 15.1237 22.117 15.094C22.117 15.031 22.167 14.981 22.228 14.98H22.229ZM22.791 14.98C22.8192 14.9827 22.8455 14.9958 22.8646 15.0168C22.8837 15.0378 22.8943 15.0651 22.8943 15.0935C22.8943 15.1219 22.8837 15.1493 22.8646 15.1703C22.8455 15.1913 22.8192 15.2044 22.791 15.207C22.7614 15.2062 22.7334 15.194 22.7126 15.1729C22.6919 15.1519 22.6802 15.1236 22.68 15.094C22.68 15.031 22.729 14.981 22.791 14.98ZM23.354 14.98C23.408 14.98 23.457 15.02 23.464 15.074V15.094C23.464 15.155 23.414 15.207 23.354 15.207C23.3243 15.2065 23.2959 15.1944 23.275 15.1733C23.2541 15.1522 23.2422 15.1237 23.242 15.094C23.242 15.031 23.292 14.981 23.353 14.98H23.354ZM23.916 14.98C23.9428 14.9795 23.9688 14.9887 23.9892 15.0061C24.0097 15.0234 24.0231 15.0475 24.027 15.074V15.094C24.027 15.155 23.977 15.207 23.916 15.207C23.8861 15.2068 23.8575 15.1948 23.8364 15.1736C23.8152 15.1525 23.8032 15.1239 23.803 15.094C23.803 15.031 23.853 14.98 23.916 14.98ZM24.479 14.98C24.538 14.98 24.586 15.027 24.589 15.086V15.094C24.589 15.155 24.539 15.207 24.479 15.207C24.4489 15.207 24.4201 15.1951 24.3987 15.174C24.3774 15.1528 24.3652 15.1241 24.365 15.094C24.365 15.031 24.415 14.98 24.479 14.98ZM25.041 14.98C25.101 14.98 25.149 15.027 25.152 15.086V15.094C25.152 15.155 25.102 15.207 25.041 15.207C25.0111 15.2068 24.9825 15.1948 24.9614 15.1736C24.9402 15.1525 24.9282 15.1239 24.928 15.094C24.928 15.031 24.978 14.98 25.041 14.98ZM25.601 14.98C25.661 14.98 25.711 15.026 25.715 15.086V15.094C25.7147 15.1239 25.7027 15.1525 25.6816 15.1736C25.6605 15.1948 25.6319 15.2068 25.602 15.207C25.5723 15.2065 25.5439 15.1944 25.523 15.1733C25.5021 15.1522 25.4902 15.1237 25.49 15.094C25.49 15.031 25.54 14.981 25.602 14.98H25.601ZM26.164 14.98C26.224 14.98 26.274 15.026 26.277 15.086V15.094C26.2767 15.1239 26.2647 15.1525 26.2436 15.1736C26.2225 15.1948 26.1939 15.2068 26.164 15.207C26.1344 15.2062 26.1064 15.194 26.0856 15.1729C26.0649 15.1519 26.0532 15.1236 26.053 15.094C26.053 15.031 26.103 14.981 26.164 14.98ZM26.727 14.98C26.787 14.98 26.837 15.026 26.84 15.086V15.094C26.8397 15.1239 26.8277 15.1525 26.8066 15.1736C26.7855 15.1948 26.7569 15.2068 26.727 15.207C26.6973 15.2065 26.6689 15.1944 26.648 15.1733C26.6271 15.1522 26.6152 15.1237 26.615 15.094C26.615 15.031 26.665 14.981 26.727 14.98ZM27.289 14.98C27.3172 14.9827 27.3435 14.9958 27.3626 15.0168C27.3817 15.0378 27.3923 15.0651 27.3923 15.0935C27.3923 15.1219 27.3817 15.1493 27.3626 15.1703C27.3435 15.1913 27.3172 15.2044 27.289 15.207C27.2594 15.2062 27.2314 15.194 27.2106 15.1729C27.1899 15.1519 27.1782 15.1236 27.178 15.094C27.178 15.031 27.228 14.981 27.289 14.98ZM27.852 14.98C27.8786 14.9797 27.9044 14.9891 27.9246 15.0064C27.9448 15.0237 27.9581 15.0477 27.962 15.074C27.964 15.082 27.964 15.086 27.962 15.094C27.962 15.155 27.912 15.207 27.852 15.207C27.8223 15.2065 27.7939 15.1944 27.773 15.1733C27.7521 15.1522 27.7402 15.1237 27.74 15.094C27.74 15.031 27.79 14.981 27.852 14.98ZM28.414 14.98C28.474 14.98 28.522 15.027 28.525 15.086V15.094C28.525 15.155 28.475 15.207 28.415 15.207C28.3849 15.207 28.3561 15.1951 28.3347 15.174C28.3134 15.1528 28.3012 15.1241 28.301 15.094C28.301 15.031 28.351 14.98 28.414 14.98ZM28.977 14.98C29.036 14.98 29.084 15.027 29.087 15.086V15.094C29.087 15.155 29.037 15.207 28.977 15.207C28.9469 15.207 28.9181 15.1951 28.8967 15.174C28.8754 15.1528 28.8632 15.1241 28.863 15.094C28.863 15.031 28.913 14.98 28.977 14.98ZM29.539 14.98C29.599 14.98 29.647 15.027 29.65 15.086V15.094C29.65 15.155 29.6 15.207 29.54 15.207C29.5099 15.207 29.4811 15.1951 29.4597 15.174C29.4384 15.1528 29.4262 15.1241 29.426 15.094C29.426 15.031 29.476 14.98 29.539 14.98ZM30.099 14.98C30.159 14.98 30.209 15.026 30.213 15.086V15.094C30.2127 15.1239 30.2007 15.1525 30.1796 15.1736C30.1585 15.1948 30.1299 15.2068 30.1 15.207C30.0703 15.2065 30.0419 15.1944 30.021 15.1733C30.0001 15.1522 29.9882 15.1237 29.988 15.094C29.988 15.031 30.038 14.981 30.1 14.98H30.099ZM30.662 14.98C30.722 14.98 30.772 15.026 30.775 15.086V15.094C30.7747 15.1239 30.7627 15.1525 30.7416 15.1736C30.7205 15.1948 30.6919 15.2068 30.662 15.207C30.6324 15.2062 30.6044 15.194 30.5836 15.1729C30.5629 15.1519 30.5512 15.1236 30.551 15.094C30.551 15.031 30.601 14.981 30.662 14.98ZM31.225 14.98C31.285 14.98 31.335 15.026 31.338 15.086V15.094C31.3377 15.1239 31.3257 15.1525 31.3046 15.1736C31.2835 15.1948 31.2549 15.2068 31.225 15.207C31.1953 15.2065 31.1669 15.1944 31.146 15.1733C31.1251 15.1522 31.1132 15.1237 31.113 15.094C31.113 15.031 31.163 14.981 31.225 14.98ZM31.787 14.98C31.8138 14.9795 31.8398 14.9887 31.8602 15.0061C31.8807 15.0234 31.8941 15.0475 31.898 15.074V15.094C31.898 15.155 31.848 15.207 31.788 15.207C31.7583 15.2065 31.7299 15.1944 31.709 15.1733C31.6881 15.1522 31.6762 15.1237 31.676 15.094C31.675 15.031 31.726 14.981 31.787 14.98ZM32.35 14.98C32.3766 14.9797 32.4024 14.9891 32.4226 15.0064C32.4428 15.0237 32.4561 15.0477 32.46 15.074C32.462 15.082 32.462 15.086 32.46 15.094C32.46 15.155 32.41 15.207 32.35 15.207C32.3199 15.207 32.2911 15.1951 32.2697 15.174C32.2484 15.1528 32.2362 15.1241 32.236 15.094C32.236 15.031 32.286 14.98 32.35 14.98ZM32.912 14.98C32.972 14.98 33.02 15.027 33.023 15.086V15.094C33.023 15.155 32.973 15.207 32.913 15.207C32.8829 15.207 32.8541 15.1951 32.8327 15.174C32.8114 15.1528 32.7992 15.1241 32.799 15.094C32.799 15.031 32.849 14.98 32.912 14.98ZM33.475 14.98C33.534 14.98 33.582 15.027 33.585 15.086V15.094C33.585 15.155 33.535 15.207 33.475 15.207C33.4449 15.207 33.4161 15.1951 33.3947 15.174C33.3734 15.1528 33.3612 15.1241 33.361 15.094C33.361 15.031 33.411 14.98 33.475 14.98ZM34.037 14.98C34.097 14.98 34.145 15.027 34.148 15.086V15.094C34.148 15.155 34.098 15.207 34.038 15.207C34.0079 15.207 33.9791 15.1951 33.9577 15.174C33.9364 15.1528 33.9242 15.1241 33.924 15.094C33.924 15.031 33.974 14.98 34.037 14.98ZM34.597 14.98C34.657 14.98 34.707 15.026 34.711 15.086V15.094C34.7107 15.1239 34.6987 15.1525 34.6776 15.1736C34.6565 15.1948 34.6279 15.2068 34.598 15.207C34.5683 15.2065 34.5399 15.1944 34.519 15.1733C34.4981 15.1522 34.4862 15.1237 34.486 15.094C34.486 15.031 34.536 14.981 34.598 14.98H34.597ZM16.213 18.143C16.4277 18.1354 16.6418 18.1712 16.8424 18.2481C17.0431 18.325 17.2261 18.4416 17.3807 18.5908C17.5353 18.7401 17.6583 18.9189 17.7423 19.1167C17.8263 19.3145 17.8695 19.5271 17.8695 19.742C17.8695 19.9569 17.8263 20.1696 17.7423 20.3674C17.6583 20.5651 17.5353 20.744 17.3807 20.8932C17.2261 21.0424 17.0431 21.159 16.8424 21.2359C16.6418 21.3129 16.4277 21.3486 16.213 21.341C15.7987 21.3264 15.4062 21.1515 15.1183 20.8532C14.8304 20.5549 14.6695 20.1566 14.6695 19.742C14.6695 19.3275 14.8304 18.9291 15.1183 18.6308C15.4062 18.3326 15.7987 18.1577 16.213 18.143ZM20.213 18.143C20.4277 18.1354 20.6418 18.1712 20.8424 18.2481C21.0431 18.325 21.2261 18.4416 21.3807 18.5908C21.5353 18.7401 21.6583 18.9189 21.7423 19.1167C21.8263 19.3145 21.8695 19.5271 21.8695 19.742C21.8695 19.9569 21.8263 20.1696 21.7423 20.3674C21.6583 20.5651 21.5353 20.744 21.3807 20.8932C21.2261 21.0424 21.0431 21.159 20.8424 21.2359C20.6418 21.3129 20.4277 21.3486 20.213 21.341C19.7987 21.3264 19.4062 21.1515 19.1183 20.8532C18.8304 20.5549 18.6695 20.1566 18.6695 19.742C18.6695 19.3275 18.8304 18.9291 19.1183 18.6308C19.4062 18.3326 19.7987 18.1577 20.213 18.143ZM24.213 18.143C24.4277 18.1354 24.6418 18.1712 24.8424 18.2481C25.0431 18.325 25.2261 18.4416 25.3807 18.5908C25.5353 18.7401 25.6583 18.9189 25.7423 19.1167C25.8263 19.3145 25.8695 19.5271 25.8695 19.742C25.8695 19.9569 25.8263 20.1696 25.7423 20.3674C25.6583 20.5651 25.5353 20.744 25.3807 20.8932C25.2261 21.0424 25.0431 21.159 24.8424 21.2359C24.6418 21.3129 24.4277 21.3486 24.213 21.341C23.7987 21.3264 23.4062 21.1515 23.1183 20.8532C22.8304 20.5549 22.6695 20.1566 22.6695 19.742C22.6695 19.3275 22.8304 18.9291 23.1183 18.6308C23.4062 18.3326 23.7987 18.1577 24.213 18.143ZM28.213 18.143C28.4277 18.1354 28.6418 18.1712 28.8424 18.2481C29.0431 18.325 29.2261 18.4416 29.3807 18.5908C29.5353 18.7401 29.6583 18.9189 29.7423 19.1167C29.8263 19.3145 29.8695 19.5271 29.8695 19.742C29.8695 19.9569 29.8263 20.1696 29.7423 20.3674C29.6583 20.5651 29.5353 20.744 29.3807 20.8932C29.2261 21.0424 29.0431 21.159 28.8424 21.2359C28.6418 21.3129 28.4277 21.3486 28.213 21.341C27.7987 21.3264 27.4062 21.1515 27.1183 20.8532C26.8304 20.5549 26.6695 20.1566 26.6695 19.742C26.6695 19.3275 26.8304 18.9291 27.1183 18.6308C27.4062 18.3326 27.7987 18.1577 28.213 18.143ZM32.213 18.143C32.4277 18.1354 32.6418 18.1712 32.8424 18.2481C33.0431 18.325 33.2261 18.4416 33.3807 18.5908C33.5353 18.7401 33.6583 18.9189 33.7423 19.1167C33.8263 19.3145 33.8695 19.5271 33.8695 19.742C33.8695 19.9569 33.8263 20.1696 33.7423 20.3674C33.6583 20.5651 33.5353 20.744 33.3807 20.8932C33.2261 21.0424 33.0431 21.159 32.8424 21.2359C32.6418 21.3129 32.4277 21.3486 32.213 21.341C31.7987 21.3264 31.4062 21.1515 31.1183 20.8532C30.8304 20.5549 30.6695 20.1566 30.6695 19.742C30.6695 19.3275 30.8304 18.9291 31.1183 18.6308C31.4062 18.3326 31.7987 18.1577 32.213 18.143ZM13.795 23.98C13.8232 23.9827 13.8495 23.9958 13.8686 24.0168C13.8877 24.0378 13.8983 24.0651 13.8983 24.0935C13.8983 24.1219 13.8877 24.1493 13.8686 24.1703C13.8495 24.1913 13.8232 24.2044 13.795 24.207C13.7654 24.2062 13.7374 24.194 13.7166 24.1729C13.6959 24.1519 13.6842 24.1236 13.684 24.094C13.684 24.031 13.733 23.981 13.794 23.98H13.795ZM14.357 23.98C14.3839 23.9792 14.4102 23.9884 14.4309 24.0057C14.4515 24.023 14.4651 24.0473 14.469 24.074V24.094C14.468 24.155 14.419 24.207 14.357 24.207C14.3272 24.2065 14.2987 24.1944 14.2776 24.1734C14.2566 24.1523 14.2445 24.1238 14.244 24.094C14.244 24.031 14.295 23.981 14.357 23.98ZM14.92 23.98C14.9468 23.9795 14.9728 23.9887 14.9932 24.0061C15.0137 24.0234 15.0271 24.0475 15.031 24.074V24.094C15.031 24.155 14.981 24.207 14.92 24.207C14.8901 24.2068 14.8615 24.1948 14.8404 24.1736C14.8192 24.1525 14.8072 24.1239 14.807 24.094C14.807 24.031 14.857 23.98 14.92 23.98ZM15.482 23.98C15.542 23.98 15.59 24.027 15.594 24.086V24.094C15.593 24.155 15.544 24.207 15.482 24.207C15.4521 24.2068 15.4235 24.1948 15.4024 24.1736C15.3812 24.1525 15.3692 24.1239 15.369 24.094C15.369 24.031 15.419 23.98 15.482 23.98ZM16.045 23.98C16.105 23.98 16.153 24.027 16.156 24.086V24.094C16.156 24.155 16.106 24.207 16.045 24.207C16.0151 24.2068 15.9865 24.1948 15.9654 24.1736C15.9442 24.1525 15.9322 24.1239 15.932 24.094C15.932 24.031 15.982 23.98 16.045 23.98ZM16.607 23.98C16.667 23.98 16.715 24.027 16.719 24.086V24.094C16.718 24.155 16.669 24.207 16.607 24.207C16.5771 24.2068 16.5485 24.1948 16.5274 24.1736C16.5062 24.1525 16.4942 24.1239 16.494 24.094C16.494 24.031 16.544 23.98 16.607 23.98ZM17.168 23.98C17.228 23.98 17.278 24.026 17.281 24.086V24.094C17.2807 24.1239 17.2687 24.1525 17.2476 24.1736C17.2265 24.1948 17.1979 24.2068 17.168 24.207C17.1384 24.2062 17.1104 24.194 17.0896 24.1729C17.0689 24.1519 17.0572 24.1236 17.057 24.094C17.057 24.031 17.106 23.981 17.168 23.98ZM17.731 23.98C17.791 23.98 17.841 24.026 17.844 24.086V24.094C17.8437 24.1241 17.8316 24.1528 17.8102 24.174C17.7889 24.1951 17.76 24.207 17.73 24.207C17.7006 24.206 17.6728 24.1937 17.6523 24.1726C17.6318 24.1516 17.6202 24.1234 17.62 24.094C17.619 24.031 17.669 23.981 17.73 23.98H17.731ZM18.293 23.98C18.353 23.98 18.403 24.026 18.406 24.086V24.094C18.4057 24.1239 18.3937 24.1525 18.3726 24.1736C18.3515 24.1948 18.3229 24.2068 18.293 24.207C18.2634 24.2062 18.2354 24.194 18.2146 24.1729C18.1939 24.1519 18.1822 24.1236 18.182 24.094C18.182 24.031 18.231 23.981 18.293 23.98ZM18.856 23.98C18.8826 23.9797 18.9084 23.9891 18.9286 24.0064C18.9488 24.0237 18.9621 24.0477 18.966 24.074V24.094C18.966 24.155 18.916 24.207 18.856 24.207C18.8263 24.2065 18.7979 24.1944 18.777 24.1733C18.7561 24.1522 18.7442 24.1237 18.744 24.094C18.744 24.031 18.794 23.981 18.855 23.98H18.856ZM19.418 23.98C19.478 23.98 19.526 24.027 19.529 24.086V24.094C19.529 24.155 19.479 24.207 19.418 24.207C19.3881 24.2068 19.3595 24.1948 19.3384 24.1736C19.3172 24.1525 19.3052 24.1239 19.305 24.094C19.305 24.031 19.355 23.98 19.418 23.98ZM19.981 23.98C20.04 23.98 20.088 24.027 20.091 24.086V24.094C20.091 24.155 20.041 24.207 19.981 24.207C19.9509 24.207 19.9221 24.1951 19.9007 24.174C19.8794 24.1528 19.8672 24.1241 19.867 24.094C19.867 24.031 19.917 23.98 19.98 23.98H19.981ZM20.543 23.98C20.603 23.98 20.651 24.027 20.654 24.086V24.094C20.654 24.155 20.604 24.207 20.543 24.207C20.5131 24.2068 20.4845 24.1948 20.4634 24.1736C20.4422 24.1525 20.4302 24.1239 20.43 24.094C20.43 24.031 20.48 23.98 20.543 23.98ZM21.106 23.98C21.165 23.98 21.213 24.027 21.216 24.086V24.094C21.216 24.155 21.166 24.207 21.106 24.207C21.0759 24.207 21.0471 24.1951 21.0257 24.174C21.0044 24.1528 20.9922 24.1241 20.992 24.094C20.992 24.031 21.042 23.98 21.105 23.98H21.106ZM21.666 23.98C21.726 23.98 21.776 24.026 21.779 24.086V24.094C21.7787 24.1239 21.7667 24.1525 21.7456 24.1736C21.7245 24.1948 21.6959 24.2068 21.666 24.207C21.6364 24.2062 21.6084 24.194 21.5876 24.1729C21.5669 24.1519 21.5552 24.1236 21.555 24.094C21.555 24.031 21.604 23.981 21.666 23.98ZM22.229 23.98C22.289 23.98 22.339 24.026 22.342 24.086V24.094C22.3417 24.1239 22.3297 24.1525 22.3086 24.1736C22.2875 24.1948 22.2589 24.2068 22.229 24.207C22.1993 24.2065 22.1709 24.1944 22.15 24.1733C22.1291 24.1522 22.1172 24.1237 22.117 24.094C22.117 24.031 22.167 23.981 22.228 23.98H22.229ZM22.791 23.98C22.8192 23.9827 22.8455 23.9958 22.8646 24.0168C22.8837 24.0378 22.8943 24.0651 22.8943 24.0935C22.8943 24.1219 22.8837 24.1493 22.8646 24.1703C22.8455 24.1913 22.8192 24.2044 22.791 24.207C22.7614 24.2062 22.7334 24.194 22.7126 24.1729C22.6919 24.1519 22.6802 24.1236 22.68 24.094C22.68 24.031 22.729 23.981 22.791 23.98ZM23.354 23.98C23.408 23.98 23.457 24.02 23.464 24.074V24.094C23.464 24.155 23.414 24.207 23.354 24.207C23.3243 24.2065 23.2959 24.1944 23.275 24.1733C23.2541 24.1522 23.2422 24.1237 23.242 24.094C23.242 24.031 23.292 23.981 23.353 23.98H23.354ZM23.916 23.98C23.9428 23.9795 23.9688 23.9887 23.9892 24.0061C24.0097 24.0234 24.0231 24.0475 24.027 24.074V24.094C24.027 24.155 23.977 24.207 23.916 24.207C23.8861 24.2068 23.8575 24.1948 23.8364 24.1736C23.8152 24.1525 23.8032 24.1239 23.803 24.094C23.803 24.031 23.853 23.98 23.916 23.98ZM24.479 23.98C24.538 23.98 24.586 24.027 24.589 24.086V24.094C24.589 24.155 24.539 24.207 24.479 24.207C24.4489 24.207 24.4201 24.1951 24.3987 24.174C24.3774 24.1528 24.3652 24.1241 24.365 24.094C24.365 24.031 24.415 23.98 24.479 23.98ZM25.041 23.98C25.101 23.98 25.149 24.027 25.152 24.086V24.094C25.152 24.155 25.102 24.207 25.041 24.207C25.0111 24.2068 24.9825 24.1948 24.9614 24.1736C24.9402 24.1525 24.9282 24.1239 24.928 24.094C24.928 24.031 24.978 23.98 25.041 23.98ZM25.601 23.98C25.661 23.98 25.711 24.026 25.715 24.086V24.094C25.7147 24.1239 25.7027 24.1525 25.6816 24.1736C25.6605 24.1948 25.6319 24.2068 25.602 24.207C25.5723 24.2065 25.5439 24.1944 25.523 24.1733C25.5021 24.1522 25.4902 24.1237 25.49 24.094C25.49 24.031 25.54 23.981 25.602 23.98H25.601ZM26.164 23.98C26.224 23.98 26.274 24.026 26.277 24.086V24.094C26.2767 24.1239 26.2647 24.1525 26.2436 24.1736C26.2225 24.1948 26.1939 24.2068 26.164 24.207C26.1344 24.2062 26.1064 24.194 26.0856 24.1729C26.0649 24.1519 26.0532 24.1236 26.053 24.094C26.053 24.031 26.103 23.981 26.164 23.98ZM26.727 23.98C26.787 23.98 26.837 24.026 26.84 24.086V24.094C26.8397 24.1239 26.8277 24.1525 26.8066 24.1736C26.7855 24.1948 26.7569 24.2068 26.727 24.207C26.6973 24.2065 26.6689 24.1944 26.648 24.1733C26.6271 24.1522 26.6152 24.1237 26.615 24.094C26.615 24.031 26.665 23.981 26.727 23.98ZM27.289 23.98C27.3172 23.9827 27.3435 23.9958 27.3626 24.0168C27.3817 24.0378 27.3923 24.0651 27.3923 24.0935C27.3923 24.1219 27.3817 24.1493 27.3626 24.1703C27.3435 24.1913 27.3172 24.2044 27.289 24.207C27.2594 24.2062 27.2314 24.194 27.2106 24.1729C27.1899 24.1519 27.1782 24.1236 27.178 24.094C27.178 24.031 27.228 23.981 27.289 23.98ZM27.852 23.98C27.8786 23.9797 27.9044 23.9891 27.9246 24.0064C27.9448 24.0237 27.9581 24.0477 27.962 24.074C27.964 24.082 27.964 24.086 27.962 24.094C27.962 24.155 27.912 24.207 27.852 24.207C27.8223 24.2065 27.7939 24.1944 27.773 24.1733C27.7521 24.1522 27.7402 24.1237 27.74 24.094C27.74 24.031 27.79 23.981 27.852 23.98ZM28.414 23.98C28.474 23.98 28.522 24.027 28.525 24.086V24.094C28.525 24.155 28.475 24.207 28.415 24.207C28.3849 24.207 28.3561 24.1951 28.3347 24.174C28.3134 24.1528 28.3012 24.1241 28.301 24.094C28.301 24.031 28.351 23.98 28.414 23.98ZM28.977 23.98C29.036 23.98 29.084 24.027 29.087 24.086V24.094C29.087 24.155 29.037 24.207 28.977 24.207C28.9469 24.207 28.9181 24.1951 28.8967 24.174C28.8754 24.1528 28.8632 24.1241 28.863 24.094C28.863 24.031 28.913 23.98 28.977 23.98ZM29.539 23.98C29.599 23.98 29.647 24.027 29.65 24.086V24.094C29.65 24.155 29.6 24.207 29.54 24.207C29.5099 24.207 29.4811 24.1951 29.4597 24.174C29.4384 24.1528 29.4262 24.1241 29.426 24.094C29.426 24.031 29.476 23.98 29.539 23.98ZM30.099 23.98C30.159 23.98 30.209 24.026 30.213 24.086V24.094C30.2127 24.1239 30.2007 24.1525 30.1796 24.1736C30.1585 24.1948 30.1299 24.2068 30.1 24.207C30.0703 24.2065 30.0419 24.1944 30.021 24.1733C30.0001 24.1522 29.9882 24.1237 29.988 24.094C29.988 24.031 30.038 23.981 30.1 23.98H30.099ZM30.662 23.98C30.722 23.98 30.772 24.026 30.775 24.086V24.094C30.7747 24.1239 30.7627 24.1525 30.7416 24.1736C30.7205 24.1948 30.6919 24.2068 30.662 24.207C30.6324 24.2062 30.6044 24.194 30.5836 24.1729C30.5629 24.1519 30.5512 24.1236 30.551 24.094C30.551 24.031 30.601 23.981 30.662 23.98ZM31.225 23.98C31.285 23.98 31.335 24.026 31.338 24.086V24.094C31.3377 24.1239 31.3257 24.1525 31.3046 24.1736C31.2835 24.1948 31.2549 24.2068 31.225 24.207C31.1953 24.2065 31.1669 24.1944 31.146 24.1733C31.1251 24.1522 31.1132 24.1237 31.113 24.094C31.113 24.031 31.163 23.981 31.225 23.98ZM31.787 23.98C31.8138 23.9795 31.8398 23.9887 31.8602 24.0061C31.8807 24.0234 31.8941 24.0475 31.898 24.074V24.094C31.898 24.155 31.848 24.207 31.788 24.207C31.7583 24.2065 31.7299 24.1944 31.709 24.1733C31.6881 24.1522 31.6762 24.1237 31.676 24.094C31.675 24.031 31.726 23.981 31.787 23.98ZM32.35 23.98C32.3766 23.9797 32.4024 23.9891 32.4226 24.0064C32.4428 24.0237 32.4561 24.0477 32.46 24.074C32.462 24.082 32.462 24.086 32.46 24.094C32.46 24.155 32.41 24.207 32.35 24.207C32.3199 24.207 32.2911 24.1951 32.2697 24.174C32.2484 24.1528 32.2362 24.1241 32.236 24.094C32.236 24.031 32.286 23.98 32.35 23.98ZM32.912 23.98C32.972 23.98 33.02 24.027 33.023 24.086V24.094C33.023 24.155 32.973 24.207 32.913 24.207C32.8829 24.207 32.8541 24.1951 32.8327 24.174C32.8114 24.1528 32.7992 24.1241 32.799 24.094C32.799 24.031 32.849 23.98 32.912 23.98ZM33.475 23.98C33.534 23.98 33.582 24.027 33.585 24.086V24.094C33.585 24.155 33.535 24.207 33.475 24.207C33.4449 24.207 33.4161 24.1951 33.3947 24.174C33.3734 24.1528 33.3612 24.1241 33.361 24.094C33.361 24.031 33.411 23.98 33.475 23.98ZM34.037 23.98C34.097 23.98 34.145 24.027 34.148 24.086V24.094C34.148 24.155 34.098 24.207 34.038 24.207C34.0079 24.207 33.9791 24.1951 33.9577 24.174C33.9364 24.1528 33.9242 24.1241 33.924 24.094C33.924 24.031 33.974 23.98 34.037 23.98ZM34.597 23.98C34.657 23.98 34.707 24.026 34.711 24.086V24.094C34.7107 24.1239 34.6987 24.1525 34.6776 24.1736C34.6565 24.1948 34.6279 24.2068 34.598 24.207C34.5683 24.2065 34.5399 24.1944 34.519 24.1733C34.4981 24.1522 34.4862 24.1237 34.486 24.094C34.486 24.031 34.536 23.981 34.598 23.98H34.597ZM16.213 26.81C16.6373 26.81 17.0443 26.9786 17.3443 27.2786C17.6444 27.5787 17.813 27.9857 17.813 28.41C17.813 28.8344 17.6444 29.2413 17.3443 29.5414C17.0443 29.8414 16.6373 30.01 16.213 30.01C15.7886 30.01 15.3817 29.8414 15.0816 29.5414C14.7815 29.2413 14.613 28.8344 14.613 28.41C14.613 27.9857 14.7815 27.5787 15.0816 27.2786C15.3817 26.9786 15.7886 26.81 16.213 26.81ZM20.213 26.81C20.6373 26.81 21.0443 26.9786 21.3443 27.2786C21.6444 27.5787 21.813 27.9857 21.813 28.41C21.813 28.8344 21.6444 29.2413 21.3443 29.5414C21.0443 29.8414 20.6373 30.01 20.213 30.01C19.7886 30.01 19.3817 29.8414 19.0816 29.5414C18.7815 29.2413 18.613 28.8344 18.613 28.41C18.613 27.9857 18.7815 27.5787 19.0816 27.2786C19.3817 26.9786 19.7886 26.81 20.213 26.81ZM24.213 26.81C24.6373 26.81 25.0443 26.9786 25.3443 27.2786C25.6444 27.5787 25.813 27.9857 25.813 28.41C25.813 28.8344 25.6444 29.2413 25.3443 29.5414C25.0443 29.8414 24.6373 30.01 24.213 30.01C23.7886 30.01 23.3817 29.8414 23.0816 29.5414C22.7815 29.2413 22.613 28.8344 22.613 28.41C22.613 27.9857 22.7815 27.5787 23.0816 27.2786C23.3817 26.9786 23.7886 26.81 24.213 26.81ZM28.213 26.81C28.6373 26.81 29.0443 26.9786 29.3443 27.2786C29.6444 27.5787 29.813 27.9857 29.813 28.41C29.813 28.8344 29.6444 29.2413 29.3443 29.5414C29.0443 29.8414 28.6373 30.01 28.213 30.01C27.7886 30.01 27.3817 29.8414 27.0816 29.5414C26.7815 29.2413 26.613 28.8344 26.613 28.41C26.613 27.9857 26.7815 27.5787 27.0816 27.2786C27.3817 26.9786 27.7886 26.81 28.213 26.81ZM32.213 26.81C32.6373 26.81 33.0443 26.9786 33.3443 27.2786C33.6444 27.5787 33.813 27.9857 33.813 28.41C33.813 28.8344 33.6444 29.2413 33.3443 29.5414C33.0443 29.8414 32.6373 30.01 32.213 30.01C31.7886 30.01 31.3817 29.8414 31.0816 29.5414C30.7815 29.2413 30.613 28.8344 30.613 28.41C30.613 27.9857 30.7815 27.5787 31.0816 27.2786C31.3817 26.9786 31.7886 26.81 32.213 26.81ZM13.795 32.98C13.8232 32.9827 13.8495 32.9958 13.8686 33.0168C13.8877 33.0378 13.8983 33.0651 13.8983 33.0935C13.8983 33.1219 13.8877 33.1493 13.8686 33.1703C13.8495 33.1913 13.8232 33.2044 13.795 33.207C13.7654 33.2062 13.7374 33.194 13.7166 33.1729C13.6959 33.1519 13.6842 33.1236 13.684 33.094C13.684 33.031 13.733 32.981 13.794 32.98H13.795ZM14.357 32.98C14.3839 32.9792 14.4102 32.9884 14.4309 33.0057C14.4515 33.023 14.4651 33.0473 14.469 33.074V33.094C14.468 33.155 14.419 33.207 14.357 33.207C14.3272 33.2065 14.2987 33.1944 14.2776 33.1734C14.2566 33.1523 14.2445 33.1238 14.244 33.094C14.244 33.031 14.295 32.981 14.357 32.98ZM14.92 32.98C14.9468 32.9795 14.9728 32.9887 14.9932 33.0061C15.0137 33.0234 15.0271 33.0475 15.031 33.074V33.094C15.031 33.155 14.981 33.207 14.92 33.207C14.8901 33.2068 14.8615 33.1948 14.8404 33.1736C14.8192 33.1525 14.8072 33.1239 14.807 33.094C14.807 33.031 14.857 32.98 14.92 32.98ZM15.482 32.98C15.542 32.98 15.59 33.027 15.594 33.086V33.094C15.593 33.155 15.544 33.207 15.482 33.207C15.4521 33.2068 15.4235 33.1948 15.4024 33.1736C15.3812 33.1525 15.3692 33.1239 15.369 33.094C15.369 33.031 15.419 32.98 15.482 32.98ZM16.045 32.98C16.105 32.98 16.153 33.027 16.156 33.086V33.094C16.156 33.155 16.106 33.207 16.045 33.207C16.0151 33.2068 15.9865 33.1948 15.9654 33.1736C15.9442 33.1525 15.9322 33.1239 15.932 33.094C15.932 33.031 15.982 32.98 16.045 32.98ZM16.607 32.98C16.667 32.98 16.715 33.027 16.719 33.086V33.094C16.718 33.155 16.669 33.207 16.607 33.207C16.5771 33.2068 16.5485 33.1948 16.5274 33.1736C16.5062 33.1525 16.4942 33.1239 16.494 33.094C16.494 33.031 16.544 32.98 16.607 32.98ZM17.168 32.98C17.228 32.98 17.278 33.026 17.281 33.086V33.094C17.2807 33.1239 17.2687 33.1525 17.2476 33.1736C17.2265 33.1948 17.1979 33.2068 17.168 33.207C17.1384 33.2062 17.1104 33.194 17.0896 33.1729C17.0689 33.1519 17.0572 33.1236 17.057 33.094C17.057 33.031 17.106 32.981 17.168 32.98ZM17.731 32.98C17.791 32.98 17.841 33.026 17.844 33.086V33.094C17.8437 33.1241 17.8316 33.1528 17.8102 33.174C17.7889 33.1951 17.76 33.207 17.73 33.207C17.7006 33.206 17.6728 33.1937 17.6523 33.1726C17.6318 33.1516 17.6202 33.1234 17.62 33.094C17.619 33.031 17.669 32.981 17.73 32.98H17.731ZM18.293 32.98C18.353 32.98 18.403 33.026 18.406 33.086V33.094C18.4057 33.1239 18.3937 33.1525 18.3726 33.1736C18.3515 33.1948 18.3229 33.2068 18.293 33.207C18.2634 33.2062 18.2354 33.194 18.2146 33.1729C18.1939 33.1519 18.1822 33.1236 18.182 33.094C18.182 33.031 18.231 32.981 18.293 32.98ZM18.856 32.98C18.8826 32.9797 18.9084 32.9891 18.9286 33.0064C18.9488 33.0237 18.9621 33.0477 18.966 33.074V33.094C18.966 33.155 18.916 33.207 18.856 33.207C18.8263 33.2065 18.7979 33.1944 18.777 33.1733C18.7561 33.1522 18.7442 33.1237 18.744 33.094C18.744 33.031 18.794 32.981 18.855 32.98H18.856ZM19.418 32.98C19.478 32.98 19.526 33.027 19.529 33.086V33.094C19.529 33.155 19.479 33.207 19.418 33.207C19.3881 33.2068 19.3595 33.1948 19.3384 33.1736C19.3172 33.1525 19.3052 33.1239 19.305 33.094C19.305 33.031 19.355 32.98 19.418 32.98ZM19.981 32.98C20.04 32.98 20.088 33.027 20.091 33.086V33.094C20.091 33.155 20.041 33.207 19.981 33.207C19.9509 33.207 19.9221 33.1951 19.9007 33.174C19.8794 33.1528 19.8672 33.1241 19.867 33.094C19.867 33.031 19.917 32.98 19.98 32.98H19.981ZM20.543 32.98C20.603 32.98 20.651 33.027 20.654 33.086V33.094C20.654 33.155 20.604 33.207 20.543 33.207C20.5131 33.2068 20.4845 33.1948 20.4634 33.1736C20.4422 33.1525 20.4302 33.1239 20.43 33.094C20.43 33.031 20.48 32.98 20.543 32.98ZM21.106 32.98C21.165 32.98 21.213 33.027 21.216 33.086V33.094C21.216 33.155 21.166 33.207 21.106 33.207C21.0759 33.207 21.0471 33.1951 21.0257 33.174C21.0044 33.1528 20.9922 33.1241 20.992 33.094C20.992 33.031 21.042 32.98 21.105 32.98H21.106ZM21.666 32.98C21.726 32.98 21.776 33.026 21.779 33.086V33.094C21.7787 33.1239 21.7667 33.1525 21.7456 33.1736C21.7245 33.1948 21.6959 33.2068 21.666 33.207C21.6364 33.2062 21.6084 33.194 21.5876 33.1729C21.5669 33.1519 21.5552 33.1236 21.555 33.094C21.555 33.031 21.604 32.981 21.666 32.98ZM22.229 32.98C22.289 32.98 22.339 33.026 22.342 33.086V33.094C22.3417 33.1239 22.3297 33.1525 22.3086 33.1736C22.2875 33.1948 22.2589 33.2068 22.229 33.207C22.1993 33.2065 22.1709 33.1944 22.15 33.1733C22.1291 33.1522 22.1172 33.1237 22.117 33.094C22.117 33.031 22.167 32.981 22.228 32.98H22.229ZM22.791 32.98C22.8192 32.9827 22.8455 32.9958 22.8646 33.0168C22.8837 33.0378 22.8943 33.0651 22.8943 33.0935C22.8943 33.1219 22.8837 33.1493 22.8646 33.1703C22.8455 33.1913 22.8192 33.2044 22.791 33.207C22.7614 33.2062 22.7334 33.194 22.7126 33.1729C22.6919 33.1519 22.6802 33.1236 22.68 33.094C22.68 33.031 22.729 32.981 22.791 32.98ZM23.354 32.98C23.408 32.98 23.457 33.02 23.464 33.074V33.094C23.464 33.155 23.414 33.207 23.354 33.207C23.3243 33.2065 23.2959 33.1944 23.275 33.1733C23.2541 33.1522 23.2422 33.1237 23.242 33.094C23.242 33.031 23.292 32.981 23.353 32.98H23.354ZM23.916 32.98C23.9428 32.9795 23.9688 32.9887 23.9892 33.0061C24.0097 33.0234 24.0231 33.0475 24.027 33.074V33.094C24.027 33.155 23.977 33.207 23.916 33.207C23.8861 33.2068 23.8575 33.1948 23.8364 33.1736C23.8152 33.1525 23.8032 33.1239 23.803 33.094C23.803 33.031 23.853 32.98 23.916 32.98ZM24.479 32.98C24.538 32.98 24.586 33.027 24.589 33.086V33.094C24.589 33.155 24.539 33.207 24.479 33.207C24.4489 33.207 24.4201 33.1951 24.3987 33.174C24.3774 33.1528 24.3652 33.1241 24.365 33.094C24.365 33.031 24.415 32.98 24.479 32.98ZM25.041 32.98C25.101 32.98 25.149 33.027 25.152 33.086V33.094C25.152 33.155 25.102 33.207 25.041 33.207C25.0111 33.2068 24.9825 33.1948 24.9614 33.1736C24.9402 33.1525 24.9282 33.1239 24.928 33.094C24.928 33.031 24.978 32.98 25.041 32.98ZM25.601 32.98C25.661 32.98 25.711 33.026 25.715 33.086V33.094C25.7147 33.1239 25.7027 33.1525 25.6816 33.1736C25.6605 33.1948 25.6319 33.2068 25.602 33.207C25.5723 33.2065 25.5439 33.1944 25.523 33.1733C25.5021 33.1522 25.4902 33.1237 25.49 33.094C25.49 33.031 25.54 32.981 25.602 32.98H25.601ZM26.164 32.98C26.224 32.98 26.274 33.026 26.277 33.086V33.094C26.2767 33.1239 26.2647 33.1525 26.2436 33.1736C26.2225 33.1948 26.1939 33.2068 26.164 33.207C26.1344 33.2062 26.1064 33.194 26.0856 33.1729C26.0649 33.1519 26.0532 33.1236 26.053 33.094C26.053 33.031 26.103 32.981 26.164 32.98ZM26.727 32.98C26.787 32.98 26.837 33.026 26.84 33.086V33.094C26.8397 33.1239 26.8277 33.1525 26.8066 33.1736C26.7855 33.1948 26.7569 33.2068 26.727 33.207C26.6973 33.2065 26.6689 33.1944 26.648 33.1733C26.6271 33.1522 26.6152 33.1237 26.615 33.094C26.615 33.031 26.665 32.981 26.727 32.98ZM27.289 32.98C27.3172 32.9827 27.3435 32.9958 27.3626 33.0168C27.3817 33.0378 27.3923 33.0651 27.3923 33.0935C27.3923 33.1219 27.3817 33.1493 27.3626 33.1703C27.3435 33.1913 27.3172 33.2044 27.289 33.207C27.2594 33.2062 27.2314 33.194 27.2106 33.1729C27.1899 33.1519 27.1782 33.1236 27.178 33.094C27.178 33.031 27.228 32.981 27.289 32.98ZM27.852 32.98C27.8786 32.9797 27.9044 32.9891 27.9246 33.0064C27.9448 33.0237 27.9581 33.0477 27.962 33.074C27.964 33.082 27.964 33.086 27.962 33.094C27.962 33.155 27.912 33.207 27.852 33.207C27.8223 33.2065 27.7939 33.1944 27.773 33.1733C27.7521 33.1522 27.7402 33.1237 27.74 33.094C27.74 33.031 27.79 32.981 27.852 32.98ZM28.414 32.98C28.474 32.98 28.522 33.027 28.525 33.086V33.094C28.525 33.155 28.475 33.207 28.415 33.207C28.3849 33.207 28.3561 33.1951 28.3347 33.174C28.3134 33.1528 28.3012 33.1241 28.301 33.094C28.301 33.031 28.351 32.98 28.414 32.98ZM28.977 32.98C29.036 32.98 29.084 33.027 29.087 33.086V33.094C29.087 33.155 29.037 33.207 28.977 33.207C28.9469 33.207 28.9181 33.1951 28.8967 33.174C28.8754 33.1528 28.8632 33.1241 28.863 33.094C28.863 33.031 28.913 32.98 28.977 32.98ZM29.539 32.98C29.599 32.98 29.647 33.027 29.65 33.086V33.094C29.65 33.155 29.6 33.207 29.54 33.207C29.5099 33.207 29.4811 33.1951 29.4597 33.174C29.4384 33.1528 29.4262 33.1241 29.426 33.094C29.426 33.031 29.476 32.98 29.539 32.98ZM30.099 32.98C30.159 32.98 30.209 33.026 30.213 33.086V33.094C30.2127 33.1239 30.2007 33.1525 30.1796 33.1736C30.1585 33.1948 30.1299 33.2068 30.1 33.207C30.0703 33.2065 30.0419 33.1944 30.021 33.1733C30.0001 33.1522 29.9882 33.1237 29.988 33.094C29.988 33.031 30.038 32.981 30.1 32.98H30.099ZM30.662 32.98C30.722 32.98 30.772 33.026 30.775 33.086V33.094C30.7747 33.1239 30.7627 33.1525 30.7416 33.1736C30.7205 33.1948 30.6919 33.2068 30.662 33.207C30.6324 33.2062 30.6044 33.194 30.5836 33.1729C30.5629 33.1519 30.5512 33.1236 30.551 33.094C30.551 33.031 30.601 32.981 30.662 32.98ZM31.225 32.98C31.285 32.98 31.335 33.026 31.338 33.086V33.094C31.3377 33.1239 31.3257 33.1525 31.3046 33.1736C31.2835 33.1948 31.2549 33.2068 31.225 33.207C31.1953 33.2065 31.1669 33.1944 31.146 33.1733C31.1251 33.1522 31.1132 33.1237 31.113 33.094C31.113 33.031 31.163 32.981 31.225 32.98ZM31.787 32.98C31.8138 32.9795 31.8398 32.9887 31.8602 33.0061C31.8807 33.0234 31.8941 33.0475 31.898 33.074V33.094C31.898 33.155 31.848 33.207 31.788 33.207C31.7583 33.2065 31.7299 33.1944 31.709 33.1733C31.6881 33.1522 31.6762 33.1237 31.676 33.094C31.675 33.031 31.726 32.981 31.787 32.98ZM32.35 32.98C32.3766 32.9797 32.4024 32.9891 32.4226 33.0064C32.4428 33.0237 32.4561 33.0477 32.46 33.074C32.462 33.082 32.462 33.086 32.46 33.094C32.46 33.155 32.41 33.207 32.35 33.207C32.3199 33.207 32.2911 33.1951 32.2697 33.174C32.2484 33.1528 32.2362 33.1241 32.236 33.094C32.236 33.031 32.286 32.98 32.35 32.98ZM32.912 32.98C32.972 32.98 33.02 33.027 33.023 33.086V33.094C33.023 33.155 32.973 33.207 32.913 33.207C32.8829 33.207 32.8541 33.1951 32.8327 33.174C32.8114 33.1528 32.7992 33.1241 32.799 33.094C32.799 33.031 32.849 32.98 32.912 32.98ZM33.475 32.98C33.534 32.98 33.582 33.027 33.585 33.086V33.094C33.585 33.155 33.535 33.207 33.475 33.207C33.4449 33.207 33.4161 33.1951 33.3947 33.174C33.3734 33.1528 33.3612 33.1241 33.361 33.094C33.361 33.031 33.411 32.98 33.475 32.98ZM34.037 32.98C34.097 32.98 34.145 33.027 34.148 33.086V33.094C34.148 33.155 34.098 33.207 34.038 33.207C34.0079 33.207 33.9791 33.1951 33.9577 33.174C33.9364 33.1528 33.9242 33.1241 33.924 33.094C33.924 33.031 33.974 32.98 34.037 32.98ZM34.597 32.98C34.657 32.98 34.707 33.026 34.711 33.086V33.094C34.7107 33.1239 34.6987 33.1525 34.6776 33.1736C34.6565 33.1948 34.6279 33.2068 34.598 33.207C34.5683 33.2065 34.5399 33.1944 34.519 33.1733C34.4981 33.1522 34.4862 33.1237 34.486 33.094C34.486 33.031 34.536 32.981 34.598 32.98H34.597ZM16.213 35.477C16.4277 35.4694 16.6418 35.5052 16.8424 35.5821C17.0431 35.659 17.2261 35.7756 17.3807 35.9248C17.5353 36.0741 17.6583 36.2529 17.7423 36.4507C17.8263 36.6485 17.8695 36.8611 17.8695 37.076C17.8695 37.2909 17.8263 37.5036 17.7423 37.7014C17.6583 37.8991 17.5353 38.078 17.3807 38.2272C17.2261 38.3764 17.0431 38.493 16.8424 38.5699C16.6418 38.6469 16.4277 38.6826 16.213 38.675C15.7987 38.6604 15.4062 38.4855 15.1183 38.1872C14.8304 37.8889 14.6695 37.4906 14.6695 37.076C14.6695 36.6615 14.8304 36.2631 15.1183 35.9648C15.4062 35.6666 15.7987 35.4917 16.213 35.477ZM20.213 35.477C20.4277 35.4694 20.6418 35.5052 20.8424 35.5821C21.0431 35.659 21.2261 35.7756 21.3807 35.9248C21.5353 36.0741 21.6583 36.2529 21.7423 36.4507C21.8263 36.6485 21.8695 36.8611 21.8695 37.076C21.8695 37.2909 21.8263 37.5036 21.7423 37.7014C21.6583 37.8991 21.5353 38.078 21.3807 38.2272C21.2261 38.3764 21.0431 38.493 20.8424 38.5699C20.6418 38.6469 20.4277 38.6826 20.213 38.675C19.7987 38.6604 19.4062 38.4855 19.1183 38.1872C18.8304 37.8889 18.6695 37.4906 18.6695 37.076C18.6695 36.6615 18.8304 36.2631 19.1183 35.9648C19.4062 35.6666 19.7987 35.4917 20.213 35.477ZM24.213 35.477C24.4277 35.4694 24.6418 35.5052 24.8424 35.5821C25.0431 35.659 25.2261 35.7756 25.3807 35.9248C25.5353 36.0741 25.6583 36.2529 25.7423 36.4507C25.8263 36.6485 25.8695 36.8611 25.8695 37.076C25.8695 37.2909 25.8263 37.5036 25.7423 37.7014C25.6583 37.8991 25.5353 38.078 25.3807 38.2272C25.2261 38.3764 25.0431 38.493 24.8424 38.5699C24.6418 38.6469 24.4277 38.6826 24.213 38.675C23.7987 38.6604 23.4062 38.4855 23.1183 38.1872C22.8304 37.8889 22.6695 37.4906 22.6695 37.076C22.6695 36.6615 22.8304 36.2631 23.1183 35.9648C23.4062 35.6666 23.7987 35.4917 24.213 35.477ZM28.213 35.477C28.4277 35.4694 28.6418 35.5052 28.8424 35.5821C29.0431 35.659 29.2261 35.7756 29.3807 35.9248C29.5353 36.0741 29.6583 36.2529 29.7423 36.4507C29.8263 36.6485 29.8695 36.8611 29.8695 37.076C29.8695 37.2909 29.8263 37.5036 29.7423 37.7014C29.6583 37.8991 29.5353 38.078 29.3807 38.2272C29.2261 38.3764 29.0431 38.493 28.8424 38.5699C28.6418 38.6469 28.4277 38.6826 28.213 38.675C27.7987 38.6604 27.4062 38.4855 27.1183 38.1872C26.8304 37.8889 26.6695 37.4906 26.6695 37.076C26.6695 36.6615 26.8304 36.2631 27.1183 35.9648C27.4062 35.6666 27.7987 35.4917 28.213 35.477ZM32.213 35.477C32.4277 35.4694 32.6418 35.5052 32.8424 35.5821C33.0431 35.659 33.2261 35.7756 33.3807 35.9248C33.5353 36.0741 33.6583 36.2529 33.7423 36.4507C33.8263 36.6485 33.8695 36.8611 33.8695 37.076C33.8695 37.2909 33.8263 37.5036 33.7423 37.7014C33.6583 37.8991 33.5353 38.078 33.3807 38.2272C33.2261 38.3764 33.0431 38.493 32.8424 38.5699C32.6418 38.6469 32.4277 38.6826 32.213 38.675C31.7987 38.6604 31.4062 38.4855 31.1183 38.1872C30.8304 37.8889 30.6695 37.4906 30.6695 37.076C30.6695 36.6615 30.8304 36.2631 31.1183 35.9648C31.4062 35.6666 31.7987 35.4917 32.213 35.477Z" fill="#333333"/>
</svg>
