<svg width="48" height="48" viewBox="0 0 48 48" fill="none" xmlns="http://www.w3.org/2000/svg">
<g clip-path="url(#clip0)">
<path fill-rule="evenodd" clip-rule="evenodd" d="M0.0200195 0V48H48.02V0H0.0200195V0ZM28.84 4C30.54 4 32.22 4.01 33.87 4.04C34.74 4.04 35.44 4.74 35.44 5.61V42.47C35.44 43.34 34.74 44.04 33.87 44.04H14.17C13.3 44.04 12.6 43.34 12.6 42.47V5.6C12.6 4.73 13.3 4.03 14.17 4.03C18.62 4.03 23.77 3.97 28.84 3.99V4V4ZM20.39 4.98C20.3756 4.98066 20.3614 4.98415 20.3483 4.99029C20.3352 4.99642 20.3235 5.00508 20.3137 5.01575C20.304 5.02643 20.2964 5.03893 20.2915 5.05252C20.2866 5.06612 20.2844 5.08055 20.285 5.095C20.2857 5.10945 20.2892 5.12362 20.2953 5.13671C20.3014 5.14981 20.3101 5.16157 20.3208 5.17132C20.3315 5.18107 20.3439 5.18862 20.3575 5.19354C20.3711 5.19846 20.3856 5.20066 20.4 5.2C20.4292 5.19867 20.4566 5.18581 20.4763 5.16425C20.496 5.14268 20.5063 5.11417 20.505 5.085C20.5037 5.05583 20.4908 5.02837 20.4693 5.00868C20.4477 4.98899 20.4192 4.97867 20.39 4.98V4.98ZM27.64 4.98C27.6256 4.98066 27.6114 4.98415 27.5983 4.99029C27.5852 4.99642 27.5735 5.00508 27.5637 5.01575C27.554 5.02643 27.5464 5.03893 27.5415 5.05252C27.5366 5.06612 27.5344 5.08055 27.535 5.095C27.5357 5.10945 27.5392 5.12362 27.5453 5.13671C27.5514 5.14981 27.5601 5.16157 27.5708 5.17132C27.5815 5.18107 27.5939 5.18862 27.6075 5.19354C27.6211 5.19846 27.6356 5.20066 27.65 5.2C27.6792 5.19867 27.7066 5.18581 27.7263 5.16425C27.746 5.14268 27.7563 5.11417 27.755 5.085C27.7537 5.05583 27.7408 5.02837 27.7193 5.00868C27.6977 4.98899 27.6692 4.97867 27.64 4.98V4.98ZM20.38 6.1C20.3623 6.1004 20.345 6.10505 20.3295 6.11357C20.314 6.1221 20.3008 6.13423 20.291 6.14896C20.2811 6.16368 20.275 6.18055 20.2731 6.19814C20.2712 6.21573 20.2736 6.23352 20.28 6.25C20.2901 6.27448 20.3079 6.29495 20.3308 6.30823C20.3537 6.32151 20.3803 6.32685 20.4066 6.32343C20.4328 6.32001 20.4572 6.30801 20.4759 6.2893C20.4946 6.2706 20.5066 6.24623 20.51 6.22C20.5114 6.20474 20.5096 6.18935 20.5047 6.17483C20.4998 6.16031 20.4919 6.14697 20.4816 6.13567C20.4712 6.12437 20.4586 6.11536 20.4446 6.10922C20.4305 6.10308 20.4153 6.09994 20.4 6.1H20.38ZM27.63 6.1C27.6123 6.1004 27.595 6.10505 27.5795 6.11357C27.564 6.1221 27.5508 6.13423 27.541 6.14896C27.5311 6.16368 27.525 6.18055 27.5231 6.19814C27.5212 6.21573 27.5236 6.23352 27.53 6.25C27.5401 6.27448 27.5579 6.29495 27.5808 6.30823C27.6037 6.32151 27.6303 6.32685 27.6566 6.32343C27.6828 6.32001 27.7072 6.30801 27.7259 6.2893C27.7446 6.2706 27.7566 6.24623 27.76 6.22C27.7614 6.20474 27.7596 6.18935 27.7547 6.17483C27.7498 6.16031 27.7419 6.14697 27.7316 6.13567C27.7212 6.12437 27.7086 6.11536 27.6946 6.10922C27.6805 6.10308 27.6653 6.09994 27.65 6.1H27.63ZM20.4 6.66C20.3821 6.65466 20.3632 6.65358 20.3448 6.65684C20.3264 6.6601 20.309 6.66762 20.294 6.67879C20.279 6.68996 20.2669 6.70447 20.2585 6.72118C20.2501 6.73788 20.2457 6.75631 20.2457 6.775C20.2457 6.79369 20.2501 6.81212 20.2585 6.82882C20.2669 6.84553 20.279 6.86004 20.294 6.87121C20.309 6.88238 20.3264 6.8899 20.3448 6.89316C20.3632 6.89642 20.3821 6.89534 20.4 6.89C20.4248 6.88262 20.4465 6.86744 20.462 6.84672C20.4774 6.826 20.4857 6.80084 20.4857 6.775C20.4857 6.74916 20.4774 6.724 20.462 6.70328C20.4465 6.68256 20.4248 6.66738 20.4 6.66V6.66ZM27.65 6.66C27.6321 6.65466 27.6132 6.65358 27.5948 6.65684C27.5764 6.6601 27.559 6.66762 27.544 6.67879C27.529 6.68996 27.5169 6.70447 27.5085 6.72118C27.5001 6.73788 27.4957 6.75631 27.4957 6.775C27.4957 6.79369 27.5001 6.81212 27.5085 6.82882C27.5169 6.84553 27.529 6.86004 27.544 6.87121C27.559 6.88238 27.5764 6.8899 27.5948 6.89316C27.6132 6.89642 27.6321 6.89534 27.65 6.89C27.6748 6.88262 27.6965 6.86744 27.712 6.84672C27.7274 6.826 27.7357 6.80084 27.7357 6.775C27.7357 6.74916 27.7274 6.724 27.712 6.70328C27.6965 6.68256 27.6748 6.66738 27.65 6.66V6.66ZM20.39 7.23C20.3608 7.23 20.3329 7.24159 20.3122 7.26222C20.2916 7.28285 20.28 7.31083 20.28 7.34C20.28 7.36917 20.2916 7.39715 20.3122 7.41778C20.3329 7.43841 20.3608 7.45 20.39 7.45C20.4192 7.45 20.4472 7.43841 20.4678 7.41778C20.4884 7.39715 20.5 7.36917 20.5 7.34C20.5 7.31083 20.4884 7.28285 20.4678 7.26222C20.4472 7.24159 20.4192 7.23 20.39 7.23V7.23ZM17.15 7.41C16.7257 7.41 16.3187 7.57857 16.0186 7.87863C15.7186 8.17869 15.55 8.58565 15.55 9.01C15.55 9.43435 15.7186 9.84131 16.0186 10.1414C16.3187 10.4414 16.7257 10.61 17.15 10.61C17.5744 10.61 17.9813 10.4414 18.2814 10.1414C18.5814 9.84131 18.75 9.43435 18.75 9.01C18.75 8.58565 18.5814 8.17869 18.2814 7.87863C17.9813 7.57857 17.5744 7.41 17.15 7.41V7.41ZM24.25 7.41C23.8257 7.41 23.4187 7.57857 23.1186 7.87863C22.8186 8.17869 22.65 8.58565 22.65 9.01C22.65 9.43435 22.8186 9.84131 23.1186 10.1414C23.4187 10.4414 23.8257 10.61 24.25 10.61C24.6744 10.61 25.0813 10.4414 25.3814 10.1414C25.6814 9.84131 25.85 9.43435 25.85 9.01C25.85 8.58565 25.6814 8.17869 25.3814 7.87863C25.0813 7.57857 24.6744 7.41 24.25 7.41ZM31.15 7.41C30.7257 7.41 30.3187 7.57857 30.0186 7.87863C29.7186 8.17869 29.55 8.58565 29.55 9.01C29.55 9.43435 29.7186 9.84131 30.0186 10.1414C30.3187 10.4414 30.7257 10.61 31.15 10.61C31.5744 10.61 31.9813 10.4414 32.2814 10.1414C32.5814 9.84131 32.75 9.43435 32.75 9.01C32.75 8.58565 32.5814 8.17869 32.2814 7.87863C31.9813 7.57857 31.5744 7.41 31.15 7.41V7.41ZM20.39 7.79C20.3729 7.79297 20.3567 7.79995 20.3428 7.81038C20.3289 7.82081 20.3177 7.83439 20.31 7.85C20.3 7.8726 20.2978 7.89793 20.3039 7.92191C20.31 7.94588 20.324 7.9671 20.3437 7.98213C20.3633 7.99716 20.3875 8.00512 20.4122 8.00473C20.437 8.00435 20.4608 7.99563 20.48 7.98C20.4906 7.96971 20.4988 7.9572 20.504 7.94337C20.5092 7.92953 20.5112 7.91472 20.51 7.9C20.5101 7.88467 20.5069 7.8695 20.5008 7.85546C20.4947 7.84142 20.4856 7.82881 20.4743 7.81846C20.4631 7.8081 20.4497 7.80022 20.4352 7.79532C20.4207 7.79042 20.4053 7.78861 20.39 7.79V7.79ZM20.39 8.35C20.3608 8.35 20.3329 8.36159 20.3122 8.38222C20.2916 8.40285 20.28 8.43083 20.28 8.46C20.28 8.48917 20.2916 8.51715 20.3122 8.53778C20.3329 8.55841 20.3608 8.57 20.39 8.57C20.4077 8.5696 20.425 8.56495 20.4405 8.55643C20.4561 8.5479 20.4693 8.53577 20.4791 8.52104C20.4889 8.50632 20.495 8.48945 20.4969 8.47186C20.4988 8.45427 20.4965 8.43648 20.49 8.42C20.4845 8.40652 20.4763 8.39428 20.466 8.38398C20.4557 8.37368 20.4435 8.36553 20.43 8.36L20.39 8.35V8.35ZM20.39 8.91C20.3661 8.90845 20.3422 8.9148 20.3222 8.92805C20.3022 8.94131 20.287 8.96076 20.2791 8.98343C20.2712 9.0061 20.2709 9.03075 20.2783 9.0536C20.2857 9.07645 20.3003 9.09626 20.32 9.11C20.3366 9.12689 20.3583 9.13797 20.3817 9.14157C20.4051 9.14517 20.4291 9.14112 20.45 9.13L20.48 9.1C20.4991 9.08381 20.512 9.06161 20.5168 9.03706C20.5215 9.0125 20.5178 8.98707 20.5061 8.96494C20.4945 8.94281 20.4757 8.92531 20.4527 8.91532C20.4298 8.90533 20.4042 8.90346 20.38 8.91H20.39ZM27.64 8.91C27.6161 8.90845 27.5922 8.9148 27.5722 8.92805C27.5522 8.94131 27.537 8.96076 27.5291 8.98343C27.5212 9.0061 27.5209 9.03075 27.5283 9.0536C27.5357 9.07645 27.5503 9.09626 27.57 9.11C27.5866 9.12689 27.6083 9.13797 27.6317 9.14157C27.6551 9.14517 27.6791 9.14112 27.7 9.13L27.73 9.1C27.7491 9.08381 27.762 9.06161 27.7668 9.03706C27.7715 9.0125 27.7678 8.98707 27.7561 8.96494C27.7445 8.94281 27.7257 8.92531 27.7027 8.91532C27.6798 8.90533 27.6542 8.90346 27.63 8.91H27.64ZM20.39 9.48C20.3756 9.48066 20.3614 9.48415 20.3483 9.49029C20.3352 9.49642 20.3235 9.50508 20.3137 9.51575C20.304 9.52643 20.2964 9.53893 20.2915 9.55252C20.2866 9.56612 20.2844 9.58055 20.285 9.595C20.2857 9.60945 20.2892 9.62362 20.2953 9.63671C20.3014 9.64981 20.3101 9.66157 20.3208 9.67132C20.3315 9.68107 20.3439 9.68862 20.3575 9.69354C20.3711 9.69846 20.3856 9.70066 20.4 9.7C20.4292 9.69867 20.4566 9.68581 20.4763 9.66425C20.496 9.64268 20.5063 9.61417 20.505 9.585C20.5037 9.55583 20.4908 9.52837 20.4693 9.50868C20.4477 9.48899 20.4192 9.47867 20.39 9.48ZM27.64 9.48C27.6256 9.48066 27.6114 9.48415 27.5983 9.49029C27.5852 9.49642 27.5735 9.50508 27.5637 9.51575C27.544 9.53732 27.5337 9.56583 27.535 9.595C27.5363 9.62417 27.5492 9.65163 27.5708 9.67132C27.5923 9.69101 27.6208 9.70133 27.65 9.7C27.6792 9.69867 27.7066 9.68581 27.7263 9.66425C27.746 9.64268 27.7563 9.61417 27.755 9.585C27.7537 9.55583 27.7408 9.52837 27.7193 9.50868C27.6977 9.48899 27.6692 9.47867 27.64 9.48V9.48ZM20.38 10.04C20.3526 10.0425 20.3271 10.0552 20.3086 10.0756C20.2901 10.0959 20.2799 10.1225 20.28 10.15C20.28 10.1805 20.2921 10.2098 20.3137 10.2313C20.3353 10.2529 20.3645 10.265 20.395 10.265C20.4255 10.265 20.4548 10.2529 20.4763 10.2313C20.4979 10.2098 20.51 10.1805 20.51 10.15C20.51 10.1208 20.4984 10.0928 20.4778 10.0722C20.4572 10.0516 20.4292 10.04 20.4 10.04H20.38ZM27.63 10.04C27.6026 10.0425 27.5771 10.0552 27.5586 10.0756C27.5401 10.0959 27.5299 10.1225 27.53 10.15C27.53 10.1805 27.5421 10.2098 27.5637 10.2313C27.5853 10.2529 27.6145 10.265 27.645 10.265C27.6755 10.265 27.7048 10.2529 27.7263 10.2313C27.7479 10.2098 27.76 10.1805 27.76 10.15C27.76 10.1208 27.7484 10.0928 27.7278 10.0722C27.7072 10.0516 27.6792 10.04 27.65 10.04H27.63ZM20.4 10.6C20.3708 10.6 20.3429 10.6116 20.3222 10.6322C20.3016 10.6528 20.29 10.6808 20.29 10.71C20.29 10.78 20.34 10.82 20.39 10.82C20.4063 10.822 20.4228 10.8204 20.4384 10.8152C20.454 10.81 20.4682 10.8014 20.48 10.79C20.4906 10.7797 20.4988 10.7672 20.504 10.7534C20.5092 10.7395 20.5112 10.7247 20.51 10.71C20.51 10.6808 20.4984 10.6528 20.4778 10.6322C20.4572 10.6116 20.4292 10.6 20.4 10.6V10.6ZM27.65 10.6C27.6208 10.6 27.5929 10.6116 27.5722 10.6322C27.5516 10.6528 27.54 10.6808 27.54 10.71C27.54 10.78 27.59 10.82 27.64 10.82C27.6563 10.822 27.6728 10.8204 27.6884 10.8152C27.704 10.81 27.7182 10.8014 27.73 10.79C27.7406 10.7797 27.7488 10.7672 27.754 10.7534C27.7592 10.7395 27.7612 10.7247 27.76 10.71C27.76 10.6808 27.7484 10.6528 27.7278 10.6322C27.7072 10.6116 27.6792 10.6 27.65 10.6V10.6ZM20.4 11.16C20.3695 11.16 20.3403 11.1721 20.3187 11.1937C20.2971 11.2152 20.285 11.2445 20.285 11.275C20.285 11.3055 20.2971 11.3348 20.3187 11.3563C20.3403 11.3779 20.3695 11.39 20.4 11.39C20.4305 11.39 20.4598 11.3779 20.4813 11.3563C20.5029 11.3348 20.515 11.3055 20.515 11.275C20.515 11.2445 20.5029 11.2152 20.4813 11.1937C20.4598 11.1721 20.4305 11.16 20.4 11.16V11.16ZM27.65 11.16C27.6195 11.16 27.5903 11.1721 27.5687 11.1937C27.5471 11.2152 27.535 11.2445 27.535 11.275C27.535 11.3055 27.5471 11.3348 27.5687 11.3563C27.5903 11.3779 27.6195 11.39 27.65 11.39C27.6805 11.39 27.7098 11.3779 27.7313 11.3563C27.7529 11.3348 27.765 11.3055 27.765 11.275C27.765 11.2445 27.7529 11.2152 27.7313 11.1937C27.7098 11.1721 27.6805 11.16 27.65 11.16V11.16ZM17.15 11.24C16.9399 11.24 16.7318 11.2814 16.5377 11.3618C16.3436 11.4422 16.1672 11.5601 16.0186 11.7086C15.8701 11.8572 15.7522 12.0336 15.6718 12.2277C15.5914 12.4218 15.55 12.6299 15.55 12.84C15.55 13.0501 15.5914 13.2582 15.6718 13.4523C15.7522 13.6464 15.8701 13.8228 16.0186 13.9714C16.1672 14.1199 16.3436 14.2378 16.5377 14.3182C16.7318 14.3986 16.9399 14.44 17.15 14.44C17.5744 14.44 17.9813 14.2714 18.2814 13.9714C18.5814 13.6713 18.75 13.2643 18.75 12.84C18.75 12.4157 18.5814 12.0087 18.2814 11.7086C17.9813 11.4086 17.5744 11.24 17.15 11.24ZM24.25 11.24C24.0399 11.24 23.8318 11.2814 23.6377 11.3618C23.4436 11.4422 23.2672 11.5601 23.1186 11.7086C22.9701 11.8572 22.8522 12.0336 22.7718 12.2277C22.6914 12.4218 22.65 12.6299 22.65 12.84C22.65 13.0501 22.6914 13.2582 22.7718 13.4523C22.8522 13.6464 22.9701 13.8228 23.1186 13.9714C23.2672 14.1199 23.4436 14.2378 23.6377 14.3182C23.8318 14.3986 24.0399 14.44 24.25 14.44C24.6744 14.44 25.0813 14.2714 25.3814 13.9714C25.6814 13.6713 25.85 13.2643 25.85 12.84C25.85 12.4157 25.6814 12.0087 25.3814 11.7086C25.0813 11.4086 24.6744 11.24 24.25 11.24ZM31.15 11.24C30.9399 11.24 30.7318 11.2814 30.5377 11.3618C30.3436 11.4422 30.1672 11.5601 30.0186 11.7086C29.8701 11.8572 29.7522 12.0336 29.6718 12.2277C29.5914 12.4218 29.55 12.6299 29.55 12.84C29.55 13.0501 29.5914 13.2582 29.6718 13.4523C29.7522 13.6464 29.8701 13.8228 30.0186 13.9714C30.1672 14.1199 30.3436 14.2378 30.5377 14.3182C30.7318 14.3986 30.9399 14.44 31.15 14.44C31.5744 14.44 31.9813 14.2714 32.2814 13.9714C32.5814 13.6713 32.75 13.2643 32.75 12.84C32.75 12.4157 32.5814 12.0087 32.2814 11.7086C31.9813 11.4086 31.5744 11.24 31.15 11.24ZM20.39 11.72C20.3625 11.724 20.3374 11.7383 20.32 11.76C20.3094 11.7703 20.3012 11.7828 20.296 11.7966C20.2909 11.8105 20.2888 11.8253 20.29 11.84C20.2899 11.8675 20.3001 11.8941 20.3186 11.9144C20.3371 11.9348 20.3626 11.9475 20.39 11.95C20.4149 11.9544 20.4406 11.9501 20.4627 11.9378C20.4848 11.9256 20.502 11.906 20.5114 11.8825C20.5208 11.8591 20.5218 11.8331 20.5143 11.8089C20.5067 11.7848 20.4911 11.764 20.47 11.75C20.4594 11.7399 20.4468 11.7321 20.4331 11.7269C20.4193 11.7218 20.4047 11.7194 20.39 11.72ZM27.64 11.72C27.6125 11.724 27.5874 11.7383 27.57 11.76C27.5594 11.7703 27.5512 11.7828 27.546 11.7966C27.5409 11.8105 27.5388 11.8253 27.54 11.84C27.5399 11.8675 27.5501 11.8941 27.5686 11.9144C27.5871 11.9348 27.6126 11.9475 27.64 11.95C27.6649 11.9544 27.6906 11.9501 27.7127 11.9378C27.7348 11.9256 27.752 11.906 27.7614 11.8825C27.7708 11.8591 27.7718 11.8331 27.7643 11.8089C27.7567 11.7848 27.7411 11.764 27.72 11.75C27.7094 11.7399 27.6968 11.7321 27.6831 11.7269C27.6693 11.7218 27.6547 11.7194 27.64 11.72V11.72ZM20.39 12.29C20.3626 12.2925 20.3371 12.3052 20.3186 12.3256C20.3001 12.3459 20.2899 12.3725 20.29 12.4C20.2899 12.4275 20.3001 12.4541 20.3186 12.4744C20.3371 12.4948 20.3626 12.5075 20.39 12.51C20.46 12.51 20.51 12.46 20.51 12.4C20.5101 12.3847 20.5069 12.3695 20.5008 12.3555C20.4947 12.3414 20.4856 12.3288 20.4743 12.3185C20.4631 12.3081 20.4497 12.3002 20.4352 12.2953C20.4207 12.2904 20.4053 12.2886 20.39 12.29V12.29ZM27.64 12.29C27.6126 12.2925 27.5871 12.3052 27.5686 12.3256C27.5501 12.3459 27.5399 12.3725 27.54 12.4C27.5399 12.4275 27.5501 12.4541 27.5686 12.4744C27.5871 12.4948 27.6126 12.5075 27.64 12.51C27.71 12.51 27.76 12.46 27.76 12.4C27.7601 12.3847 27.7569 12.3695 27.7508 12.3555C27.7447 12.3414 27.7356 12.3288 27.7243 12.3185C27.7131 12.3081 27.6997 12.3002 27.6852 12.2953C27.6707 12.2904 27.6553 12.2886 27.64 12.29V12.29ZM20.39 12.85C20.3625 12.8499 20.3359 12.8601 20.3156 12.8786C20.2952 12.8971 20.2825 12.9226 20.28 12.95C20.2784 12.9734 20.2844 12.9967 20.297 13.0165C20.3096 13.0363 20.3281 13.0515 20.35 13.06C20.3721 13.0633 20.3948 13.0597 20.4148 13.0498C20.4349 13.0399 20.4515 13.0242 20.4623 13.0046C20.4732 12.9851 20.4778 12.9626 20.4756 12.9404C20.4734 12.9181 20.4645 12.8971 20.45 12.88C20.4336 12.864 20.4127 12.8535 20.39 12.85V12.85ZM27.64 12.85C27.6125 12.8499 27.5859 12.8601 27.5656 12.8786C27.5452 12.8971 27.5325 12.9226 27.53 12.95C27.5284 12.9734 27.5344 12.9967 27.547 13.0165C27.5596 13.0363 27.5781 13.0515 27.6 13.06C27.6221 13.0633 27.6448 13.0597 27.6648 13.0498C27.6849 13.0399 27.7015 13.0242 27.7123 13.0046C27.7232 12.9851 27.7278 12.9626 27.7256 12.9404C27.7234 12.9181 27.7145 12.8971 27.7 12.88C27.6836 12.864 27.6627 12.8535 27.64 12.85V12.85ZM20.39 13.41C20.3756 13.4107 20.3614 13.4142 20.3483 13.4203C20.3352 13.4264 20.3235 13.4351 20.3137 13.4458C20.304 13.4564 20.2964 13.4689 20.2915 13.4825C20.2866 13.4961 20.2844 13.5106 20.285 13.525C20.2857 13.5394 20.2892 13.5536 20.2953 13.5667C20.3014 13.5798 20.3101 13.5916 20.3208 13.6013C20.3315 13.6111 20.3439 13.6186 20.3575 13.6235C20.3711 13.6285 20.3856 13.6307 20.4 13.63C20.4292 13.6287 20.4566 13.6158 20.4763 13.5942C20.496 13.5727 20.5063 13.5442 20.505 13.515C20.5037 13.4858 20.4908 13.4584 20.4693 13.4387C20.4477 13.419 20.4192 13.4087 20.39 13.41V13.41ZM27.64 13.41C27.6256 13.4107 27.6114 13.4142 27.5983 13.4203C27.5852 13.4264 27.5735 13.4351 27.5637 13.4458C27.544 13.4673 27.5337 13.4958 27.535 13.525C27.5363 13.5542 27.5492 13.5816 27.5708 13.6013C27.5923 13.621 27.6208 13.6313 27.65 13.63C27.6792 13.6287 27.7066 13.6158 27.7263 13.5942C27.746 13.5727 27.7563 13.5442 27.755 13.515C27.7537 13.4858 27.7408 13.4584 27.7193 13.4387C27.6977 13.419 27.6692 13.4087 27.64 13.41V13.41ZM20.39 13.97C20.3756 13.9707 20.3614 13.9742 20.3483 13.9803C20.3352 13.9864 20.3235 13.9951 20.3137 14.0058C20.304 14.0164 20.2964 14.0289 20.2915 14.0425C20.2866 14.0561 20.2844 14.0706 20.285 14.085C20.2857 14.0994 20.2892 14.1136 20.2953 14.1267C20.3014 14.1398 20.3101 14.1516 20.3208 14.1613C20.3315 14.1711 20.3439 14.1786 20.3575 14.1835C20.3711 14.1885 20.3856 14.1907 20.4 14.19C20.4292 14.1887 20.4566 14.1758 20.4763 14.1542C20.496 14.1327 20.5063 14.1042 20.505 14.075C20.5037 14.0458 20.4908 14.0184 20.4693 13.9987C20.4477 13.979 20.4192 13.9687 20.39 13.97V13.97ZM27.64 13.97C27.6256 13.9707 27.6114 13.9742 27.5983 13.9803C27.5852 13.9864 27.5735 13.9951 27.5637 14.0058C27.544 14.0273 27.5337 14.0558 27.535 14.085C27.5363 14.1142 27.5492 14.1416 27.5708 14.1613C27.5923 14.181 27.6208 14.1913 27.65 14.19C27.6792 14.1887 27.7066 14.1758 27.7263 14.1542C27.746 14.1327 27.7563 14.1042 27.755 14.075C27.7537 14.0458 27.7408 14.0184 27.7193 13.9987C27.6977 13.979 27.6692 13.9687 27.64 13.97V13.97ZM20.38 14.54C20.3543 14.5423 20.3301 14.5535 20.3118 14.5718C20.2935 14.5901 20.2823 14.6142 20.28 14.64C20.2707 14.6661 20.2715 14.6947 20.2823 14.7201C20.2932 14.7456 20.3132 14.7661 20.3384 14.7774C20.3637 14.7888 20.3923 14.7902 20.4185 14.7814C20.4447 14.7726 20.4667 14.7543 20.48 14.73C20.5003 14.716 20.5153 14.6955 20.5225 14.6719C20.5298 14.6483 20.5289 14.623 20.52 14.6C20.5111 14.5763 20.4943 14.5564 20.4725 14.5437C20.4506 14.5309 20.425 14.5261 20.4 14.53H20.38V14.54V14.54ZM27.63 14.54C27.6043 14.5423 27.5801 14.5535 27.5618 14.5718C27.5435 14.5901 27.5323 14.6142 27.53 14.64C27.5207 14.6661 27.5215 14.6947 27.5323 14.7201C27.5432 14.7456 27.5632 14.7661 27.5884 14.7774C27.6137 14.7888 27.6423 14.7902 27.6685 14.7814C27.6947 14.7726 27.7167 14.7543 27.73 14.73C27.7503 14.716 27.7653 14.6955 27.7725 14.6719C27.7798 14.6483 27.7789 14.623 27.77 14.6C27.7611 14.5763 27.7443 14.5564 27.7225 14.5437C27.7006 14.5309 27.675 14.5261 27.65 14.53H27.63V14.54V14.54ZM17.15 15.08C16.9399 15.08 16.7318 15.1214 16.5377 15.2018C16.3436 15.2822 16.1672 15.4001 16.0186 15.5486C15.8701 15.6972 15.7522 15.8736 15.6718 16.0677C15.5914 16.2618 15.55 16.4699 15.55 16.68C15.55 16.8901 15.5914 17.0982 15.6718 17.2923C15.7522 17.4864 15.8701 17.6628 16.0186 17.8114C16.1672 17.9599 16.3436 18.0778 16.5377 18.1582C16.7318 18.2386 16.9399 18.28 17.15 18.28C17.5744 18.28 17.9813 18.1114 18.2814 17.8114C18.5814 17.5113 18.75 17.1043 18.75 16.68C18.75 16.2557 18.5814 15.8487 18.2814 15.5486C17.9813 15.2486 17.5744 15.08 17.15 15.08V15.08ZM24.25 15.08C24.0399 15.08 23.8318 15.1214 23.6377 15.2018C23.4436 15.2822 23.2672 15.4001 23.1186 15.5486C22.9701 15.6972 22.8522 15.8736 22.7718 16.0677C22.6914 16.2618 22.65 16.4699 22.65 16.68C22.65 16.8901 22.6914 17.0982 22.7718 17.2923C22.8522 17.4864 22.9701 17.6628 23.1186 17.8114C23.2672 17.9599 23.4436 18.0778 23.6377 18.1582C23.8318 18.2386 24.0399 18.28 24.25 18.28C24.6744 18.28 25.0813 18.1114 25.3814 17.8114C25.6814 17.5113 25.85 17.1043 25.85 16.68C25.85 16.2557 25.6814 15.8487 25.3814 15.5486C25.0813 15.2486 24.6744 15.08 24.25 15.08V15.08ZM31.15 15.08C30.9399 15.08 30.7318 15.1214 30.5377 15.2018C30.3436 15.2822 30.1672 15.4001 30.0186 15.5486C29.8701 15.6972 29.7522 15.8736 29.6718 16.0677C29.5914 16.2618 29.55 16.4699 29.55 16.68C29.55 16.8901 29.5914 17.0982 29.6718 17.2923C29.7522 17.4864 29.8701 17.6628 30.0186 17.8114C30.1672 17.9599 30.3436 18.0778 30.5377 18.1582C30.7318 18.2386 30.9399 18.28 31.15 18.28C31.5744 18.28 31.9813 18.1114 32.2814 17.8114C32.5814 17.5113 32.75 17.1043 32.75 16.68C32.75 16.2557 32.5814 15.8487 32.2814 15.5486C31.9813 15.2486 31.5744 15.08 31.15 15.08V15.08ZM20.38 15.1C20.3577 15.1025 20.3367 15.1118 20.3198 15.1265C20.303 15.1413 20.291 15.1609 20.2856 15.1826C20.2801 15.2044 20.2815 15.2273 20.2894 15.2483C20.2974 15.2693 20.3115 15.2873 20.33 15.3C20.3464 15.3136 20.3665 15.3221 20.3877 15.3245C20.4088 15.327 20.4303 15.3232 20.4493 15.3136C20.4684 15.3041 20.4843 15.2892 20.4951 15.2708C20.5058 15.2524 20.511 15.2313 20.51 15.21C20.51 15.1808 20.4984 15.1528 20.4778 15.1322C20.4572 15.1116 20.4292 15.1 20.4 15.1H20.38ZM27.63 15.1C27.6077 15.1025 27.5867 15.1118 27.5698 15.1265C27.553 15.1413 27.541 15.1609 27.5356 15.1826C27.5301 15.2044 27.5315 15.2273 27.5394 15.2483C27.5474 15.2693 27.5615 15.2873 27.58 15.3C27.5964 15.3136 27.6165 15.3221 27.6377 15.3245C27.6588 15.327 27.6803 15.3232 27.6993 15.3136C27.7184 15.3041 27.7343 15.2892 27.7451 15.2708C27.7558 15.2524 27.761 15.2313 27.76 15.21C27.76 15.1808 27.7484 15.1528 27.7278 15.1322C27.7072 15.1116 27.6792 15.1 27.65 15.1H27.63ZM20.4 15.66C20.3695 15.66 20.3403 15.6721 20.3187 15.6937C20.2971 15.7152 20.285 15.7445 20.285 15.775C20.285 15.8055 20.2971 15.8348 20.3187 15.8563C20.3403 15.8779 20.3695 15.89 20.4 15.89C20.4305 15.89 20.4598 15.8779 20.4813 15.8563C20.5029 15.8348 20.515 15.8055 20.515 15.775C20.515 15.7445 20.5029 15.7152 20.4813 15.6937C20.4598 15.6721 20.4305 15.66 20.4 15.66V15.66ZM27.65 15.66C27.6195 15.66 27.5903 15.6721 27.5687 15.6937C27.5471 15.7152 27.535 15.7445 27.535 15.775C27.535 15.8055 27.5471 15.8348 27.5687 15.8563C27.5903 15.8779 27.6195 15.89 27.65 15.89C27.6805 15.89 27.7098 15.8779 27.7313 15.8563C27.7529 15.8348 27.765 15.8055 27.765 15.775C27.765 15.7445 27.7529 15.7152 27.7313 15.6937C27.7098 15.6721 27.6805 15.66 27.65 15.66V15.66ZM20.39 16.22C20.3692 16.2183 20.3483 16.2232 20.3304 16.2339C20.3124 16.2447 20.2983 16.2608 20.29 16.28C20.2832 16.2931 20.2791 16.3074 20.2779 16.3221C20.2768 16.3368 20.2786 16.3516 20.2832 16.3656C20.2879 16.3796 20.2953 16.3925 20.3051 16.4036C20.3148 16.4146 20.3267 16.4236 20.34 16.43C20.36 16.4397 20.3824 16.4431 20.4044 16.4398C20.4263 16.4364 20.4468 16.4265 20.463 16.4114C20.4792 16.3963 20.4905 16.3766 20.4953 16.3549C20.5001 16.3332 20.4983 16.3106 20.49 16.29C20.4845 16.2765 20.4763 16.2643 20.466 16.254C20.4557 16.2437 20.4435 16.2355 20.43 16.23H20.39V16.22V16.22ZM20.39 16.79C20.3625 16.7899 20.3359 16.8001 20.3156 16.8186C20.2952 16.8371 20.2825 16.8626 20.28 16.89C20.2784 16.9134 20.2844 16.9367 20.297 16.9565C20.3096 16.9763 20.3281 16.9915 20.35 17C20.3721 17.0033 20.3948 16.9997 20.4148 16.9898C20.4349 16.9799 20.4515 16.9642 20.4623 16.9446C20.4732 16.9251 20.4778 16.9026 20.4756 16.8804C20.4734 16.8581 20.4645 16.8371 20.45 16.82C20.4336 16.804 20.4127 16.7935 20.39 16.79V16.79ZM20.39 17.35C20.371 17.3496 20.3523 17.3542 20.3356 17.3633C20.3189 17.3723 20.3048 17.3856 20.2947 17.4017C20.2846 17.4178 20.2789 17.4362 20.2781 17.4552C20.2773 17.4742 20.2814 17.4931 20.29 17.51C20.2988 17.531 20.3145 17.5485 20.3345 17.5594C20.3545 17.5703 20.3776 17.574 20.4 17.57C20.4145 17.5693 20.4286 17.5658 20.4417 17.5597C20.4548 17.5536 20.4666 17.5449 20.4763 17.5342C20.4861 17.5236 20.4936 17.5111 20.4986 17.4975C20.5035 17.4839 20.5057 17.4694 20.505 17.455C20.5044 17.4406 20.5009 17.4264 20.4947 17.4133C20.4886 17.4002 20.4799 17.3884 20.4693 17.3787C20.4586 17.3689 20.4461 17.3614 20.4325 17.3565C20.4189 17.3515 20.4045 17.3493 20.39 17.35V17.35ZM27.64 17.35C27.621 17.3496 27.6023 17.3542 27.5856 17.3633C27.5689 17.3723 27.5548 17.3856 27.5447 17.4017C27.5346 17.4178 27.5289 17.4362 27.5281 17.4552C27.5273 17.4742 27.5314 17.4931 27.54 17.51C27.5488 17.531 27.5645 17.5485 27.5845 17.5594C27.6045 17.5703 27.6276 17.574 27.65 17.57C27.6645 17.5693 27.6786 17.5658 27.6917 17.5597C27.7048 17.5536 27.7166 17.5449 27.7263 17.5342C27.7361 17.5236 27.7436 17.5111 27.7486 17.4975C27.7535 17.4839 27.7557 17.4694 27.755 17.455C27.7544 17.4406 27.7509 17.4264 27.7447 17.4133C27.7386 17.4002 27.7299 17.3884 27.7193 17.3787C27.7086 17.3689 27.6961 17.3614 27.6825 17.3565C27.6689 17.3515 27.6545 17.3493 27.64 17.35V17.35ZM20.39 17.91C20.371 17.9096 20.3523 17.9142 20.3356 17.9233C20.3189 17.9323 20.3048 17.9456 20.2947 17.9617C20.2846 17.9778 20.2789 17.9962 20.2781 18.0152C20.2773 18.0342 20.2814 18.0531 20.29 18.07C20.2988 18.091 20.3145 18.1085 20.3345 18.1194C20.3545 18.1303 20.3776 18.134 20.4 18.13C20.4145 18.1293 20.4286 18.1258 20.4417 18.1197C20.4548 18.1136 20.4666 18.1049 20.4763 18.0942C20.4861 18.0836 20.4936 18.0711 20.4986 18.0575C20.5035 18.0439 20.5057 18.0294 20.505 18.015C20.5044 18.0006 20.5009 17.9864 20.4947 17.9733C20.4886 17.9602 20.4799 17.9484 20.4693 17.9387C20.4586 17.9289 20.4461 17.9214 20.4325 17.9165C20.4189 17.9115 20.4045 17.9093 20.39 17.91V17.91ZM27.64 17.91C27.621 17.9096 27.6023 17.9142 27.5856 17.9233C27.5689 17.9323 27.5548 17.9456 27.5447 17.9617C27.5346 17.9778 27.5289 17.9962 27.5281 18.0152C27.5273 18.0342 27.5314 18.0531 27.54 18.07C27.5488 18.091 27.5645 18.1085 27.5845 18.1194C27.6045 18.1303 27.6276 18.134 27.65 18.13C27.6645 18.1293 27.6786 18.1258 27.6917 18.1197C27.7048 18.1136 27.7166 18.1049 27.7263 18.0942C27.7361 18.0836 27.7436 18.0711 27.7486 18.0575C27.7535 18.0439 27.7557 18.0294 27.755 18.015C27.7544 18.0006 27.7509 17.9864 27.7447 17.9733C27.7386 17.9602 27.7299 17.9484 27.7193 17.9387C27.7086 17.9289 27.6961 17.9214 27.6825 17.9165C27.6689 17.9115 27.6545 17.9093 27.64 17.91V17.91ZM20.39 18.47C20.3671 18.4712 20.3451 18.4796 20.3272 18.4939C20.3092 18.5083 20.2963 18.5279 20.29 18.55C20.28 18.5757 20.28 18.6043 20.29 18.63C20.2972 18.6488 20.3094 18.6652 20.3252 18.6776C20.3411 18.6899 20.3601 18.6977 20.38 18.7C20.3987 18.7025 20.4177 18.7001 20.4352 18.6931C20.4528 18.6861 20.4682 18.6747 20.48 18.66C20.4991 18.6438 20.512 18.6216 20.5168 18.5971C20.5215 18.5725 20.5178 18.5471 20.5061 18.5249C20.4945 18.5028 20.4757 18.4853 20.4527 18.4753C20.4298 18.4653 20.4042 18.4635 20.38 18.47H20.39V18.47ZM27.64 18.47C27.6171 18.4712 27.5951 18.4796 27.5772 18.4939C27.5592 18.5083 27.5463 18.5279 27.54 18.55C27.53 18.5757 27.53 18.6043 27.54 18.63C27.5472 18.6488 27.5594 18.6652 27.5752 18.6776C27.5911 18.6899 27.6101 18.6977 27.63 18.7C27.6487 18.7025 27.6677 18.7001 27.6852 18.6931C27.7028 18.6861 27.7182 18.6747 27.73 18.66C27.7491 18.6438 27.762 18.6216 27.7668 18.5971C27.7715 18.5725 27.7678 18.5471 27.7561 18.5249C27.7445 18.5028 27.7257 18.4853 27.7027 18.4753C27.6798 18.4653 27.6542 18.4635 27.63 18.47H27.64V18.47ZM17.15 18.92C16.7257 18.92 16.3187 19.0886 16.0186 19.3886C15.7186 19.6887 15.55 20.0957 15.55 20.52C15.55 20.9443 15.7186 21.3513 16.0186 21.6514C16.3187 21.9514 16.7257 22.12 17.15 22.12C17.5744 22.12 17.9813 21.9514 18.2814 21.6514C18.5814 21.3513 18.75 20.9443 18.75 20.52C18.75 20.0957 18.5814 19.6887 18.2814 19.3886C17.9813 19.0886 17.5744 18.92 17.15 18.92V18.92ZM24.25 18.92C23.8257 18.92 23.4187 19.0886 23.1186 19.3886C22.8186 19.6887 22.65 20.0957 22.65 20.52C22.65 20.9443 22.8186 21.3513 23.1186 21.6514C23.4187 21.9514 23.8257 22.12 24.25 22.12C24.6744 22.12 25.0813 21.9514 25.3814 21.6514C25.6814 21.3513 25.85 20.9443 25.85 20.52C25.85 20.0957 25.6814 19.6887 25.3814 19.3886C25.0813 19.0886 24.6744 18.92 24.25 18.92ZM31.15 18.92C30.7257 18.92 30.3187 19.0886 30.0186 19.3886C29.7186 19.6887 29.55 20.0957 29.55 20.52C29.55 20.9443 29.7186 21.3513 30.0186 21.6514C30.3187 21.9514 30.7257 22.12 31.15 22.12C31.5744 22.12 31.9813 21.9514 32.2814 21.6514C32.5814 21.3513 32.75 20.9443 32.75 20.52C32.75 20.0957 32.5814 19.6887 32.2814 19.3886C31.9813 19.0886 31.5744 18.92 31.15 18.92V18.92ZM20.38 19.04C20.3543 19.0423 20.3301 19.0535 20.3118 19.0718C20.2935 19.0901 20.2823 19.1142 20.28 19.14C20.2707 19.1661 20.2715 19.1947 20.2823 19.2201C20.2932 19.2456 20.3132 19.2661 20.3384 19.2774C20.3637 19.2888 20.3923 19.2902 20.4185 19.2814C20.4447 19.2726 20.4667 19.2543 20.48 19.23C20.5003 19.216 20.5153 19.1955 20.5225 19.1719C20.5298 19.1483 20.5289 19.123 20.52 19.1C20.5111 19.0763 20.4943 19.0564 20.4725 19.0437C20.4506 19.0309 20.425 19.0261 20.4 19.03H20.38V19.04V19.04ZM27.63 19.04C27.6043 19.0423 27.5801 19.0535 27.5618 19.0718C27.5435 19.0901 27.5323 19.1142 27.53 19.14C27.5207 19.1661 27.5215 19.1947 27.5323 19.2201C27.5432 19.2456 27.5632 19.2661 27.5884 19.2774C27.6137 19.2888 27.6423 19.2902 27.6685 19.2814C27.6947 19.2726 27.7167 19.2543 27.73 19.23C27.7503 19.216 27.7653 19.1955 27.7725 19.1719C27.7798 19.1483 27.7789 19.123 27.77 19.1C27.7611 19.0763 27.7443 19.0564 27.7225 19.0437C27.7006 19.0309 27.675 19.0261 27.65 19.03H27.63V19.04V19.04ZM20.4 19.6C20.3783 19.6005 20.3572 19.6074 20.3394 19.6199C20.3216 19.6323 20.3079 19.6498 20.3 19.67L20.28 19.71C20.28 19.77 20.34 19.82 20.4 19.82C20.4145 19.82 20.4288 19.8172 20.4421 19.8116C20.4555 19.8061 20.4676 19.798 20.4778 19.7878C20.488 19.7776 20.4961 19.7654 20.5016 19.7521C20.5072 19.7387 20.51 19.7244 20.51 19.71C20.51 19.6956 20.5072 19.6812 20.5016 19.6679C20.4961 19.6546 20.488 19.6424 20.4778 19.6322C20.4676 19.622 20.4555 19.6139 20.4421 19.6084C20.4288 19.6028 20.4145 19.6 20.4 19.6V19.6ZM27.65 19.6C27.6283 19.6005 27.6072 19.6074 27.5894 19.6199C27.5716 19.6323 27.5579 19.6498 27.55 19.67L27.53 19.71C27.53 19.77 27.59 19.82 27.65 19.82C27.6645 19.82 27.6788 19.8172 27.6921 19.8116C27.7055 19.8061 27.7176 19.798 27.7278 19.7878C27.738 19.7776 27.7461 19.7654 27.7516 19.7521C27.7572 19.7387 27.76 19.7244 27.76 19.71C27.76 19.6956 27.7572 19.6812 27.7516 19.6679C27.7461 19.6546 27.738 19.6424 27.7278 19.6322C27.7176 19.622 27.7055 19.6139 27.6921 19.6084C27.6788 19.6028 27.6645 19.6 27.65 19.6V19.6ZM20.39 20.16C20.3756 20.1613 20.3615 20.1655 20.3487 20.1722C20.3358 20.1789 20.3245 20.1881 20.3152 20.1993C20.3059 20.2104 20.2989 20.2233 20.2946 20.2371C20.2903 20.251 20.2887 20.2656 20.29 20.28C20.2913 20.2944 20.2955 20.3085 20.3022 20.3213C20.309 20.3342 20.3182 20.3456 20.3293 20.3549C20.3405 20.3641 20.3533 20.3711 20.3672 20.3755C20.381 20.3798 20.3956 20.3813 20.41 20.38C20.4392 20.3773 20.4661 20.3632 20.4849 20.3407C20.5036 20.3182 20.5127 20.2892 20.51 20.26C20.5074 20.2308 20.4932 20.2039 20.4707 20.1851C20.4482 20.1664 20.4192 20.1573 20.39 20.16ZM27.64 20.16C27.6256 20.1613 27.6115 20.1655 27.5987 20.1722C27.5858 20.1789 27.5745 20.1881 27.5652 20.1993C27.5559 20.2104 27.5489 20.2233 27.5446 20.2371C27.5403 20.251 27.5387 20.2656 27.54 20.28C27.5413 20.2944 27.5455 20.3085 27.5522 20.3213C27.559 20.3342 27.5682 20.3456 27.5793 20.3549C27.5905 20.3641 27.6033 20.3711 27.6172 20.3755C27.631 20.3798 27.6456 20.3813 27.66 20.38C27.6892 20.3773 27.7161 20.3632 27.7349 20.3407C27.7536 20.3182 27.7627 20.2892 27.76 20.26C27.7574 20.2308 27.7432 20.2039 27.7207 20.1851C27.6982 20.1664 27.6692 20.1573 27.64 20.16ZM20.39 20.72C20.3746 20.7207 20.3596 20.7246 20.3458 20.7315C20.332 20.7384 20.3198 20.7481 20.31 20.76C20.2927 20.7759 20.2809 20.7969 20.2764 20.82C20.2718 20.8431 20.2748 20.867 20.2849 20.8882C20.295 20.9095 20.3116 20.9269 20.3323 20.9381C20.353 20.9492 20.3767 20.9534 20.4 20.95C20.4305 20.95 20.4598 20.9379 20.4813 20.9163C20.5029 20.8948 20.515 20.8655 20.515 20.835C20.515 20.8045 20.5029 20.7752 20.4813 20.7537C20.4598 20.7321 20.4305 20.72 20.4 20.72H20.39ZM20.39 21.28C20.3625 21.284 20.3374 21.2983 20.32 21.32C20.3017 21.3387 20.2914 21.3638 20.2914 21.39C20.2914 21.4162 20.3017 21.4413 20.32 21.46C20.3303 21.4709 20.3427 21.4796 20.3565 21.4855C20.3702 21.4914 20.385 21.4945 20.4 21.4945C20.415 21.4945 20.4298 21.4914 20.4436 21.4855C20.4573 21.4796 20.4697 21.4709 20.48 21.46C20.4936 21.4436 20.5021 21.4236 20.5046 21.4024C20.507 21.3812 20.5032 21.3598 20.4937 21.3407C20.4841 21.3216 20.4692 21.3057 20.4508 21.2949C20.4324 21.2842 20.4113 21.279 20.39 21.28V21.28ZM27.64 21.28C27.6125 21.284 27.5874 21.2983 27.57 21.32C27.5517 21.3387 27.5414 21.3638 27.5414 21.39C27.5414 21.4162 27.5517 21.4413 27.57 21.46C27.5803 21.4709 27.5927 21.4796 27.6065 21.4855C27.6202 21.4914 27.635 21.4945 27.65 21.4945C27.665 21.4945 27.6798 21.4914 27.6936 21.4855C27.7073 21.4796 27.7197 21.4709 27.73 21.46C27.7436 21.4436 27.7521 21.4236 27.7546 21.4024C27.757 21.3812 27.7532 21.3598 27.7437 21.3407C27.7341 21.3216 27.7192 21.3057 27.7008 21.2949C27.6824 21.2842 27.6613 21.279 27.64 21.28V21.28ZM20.39 21.85C20.371 21.8496 20.3523 21.8542 20.3356 21.8633C20.3189 21.8723 20.3048 21.8856 20.2947 21.9017C20.2846 21.9178 20.2789 21.9362 20.2781 21.9552C20.2773 21.9742 20.2814 21.9931 20.29 22.01C20.2988 22.031 20.3145 22.0485 20.3345 22.0594C20.3545 22.0703 20.3776 22.074 20.4 22.07C20.4145 22.0693 20.4286 22.0658 20.4417 22.0597C20.4548 22.0536 20.4666 22.0449 20.4763 22.0342C20.4861 22.0236 20.4936 22.0111 20.4986 21.9975C20.5035 21.9839 20.5057 21.9694 20.505 21.955C20.5044 21.9406 20.5009 21.9264 20.4947 21.9133C20.4886 21.9002 20.4799 21.8884 20.4693 21.8787C20.4586 21.8689 20.4461 21.8614 20.4325 21.8565C20.4189 21.8515 20.4045 21.8493 20.39 21.85V21.85ZM27.64 21.85C27.621 21.8496 27.6023 21.8542 27.5856 21.8633C27.5689 21.8723 27.5548 21.8856 27.5447 21.9017C27.5346 21.9178 27.5289 21.9362 27.5281 21.9552C27.5273 21.9742 27.5314 21.9931 27.54 22.01C27.5488 22.031 27.5645 22.0485 27.5845 22.0594C27.6045 22.0703 27.6276 22.074 27.65 22.07C27.6645 22.0693 27.6786 22.0658 27.6917 22.0597C27.7048 22.0536 27.7166 22.0449 27.7263 22.0342C27.7361 22.0236 27.7436 22.0111 27.7486 21.9975C27.7535 21.9839 27.7557 21.9694 27.755 21.955C27.7544 21.9406 27.7509 21.9264 27.7447 21.9133C27.7386 21.9002 27.7299 21.8884 27.7193 21.8787C27.7086 21.8689 27.6961 21.8614 27.6825 21.8565C27.6689 21.8515 27.6545 21.8493 27.64 21.85V21.85ZM20.39 22.41C20.3625 22.414 20.3374 22.4283 20.32 22.45C20.3094 22.4603 20.3012 22.4728 20.296 22.4866C20.2909 22.5005 20.2888 22.5153 20.29 22.53C20.2911 22.5516 20.2984 22.5723 20.3112 22.5897C20.324 22.6071 20.3416 22.6204 20.3619 22.6279C20.3821 22.6353 20.4041 22.6367 20.4251 22.6317C20.4461 22.6268 20.4652 22.6157 20.48 22.6C20.4988 22.5903 20.5144 22.5754 20.5249 22.5571C20.5354 22.5388 20.5404 22.5179 20.5394 22.4968C20.5383 22.4757 20.5312 22.4554 20.5189 22.4382C20.5066 22.421 20.4896 22.4078 20.47 22.4C20.44 22.38 20.41 22.39 20.38 22.4L20.39 22.41ZM27.64 22.41C27.6125 22.414 27.5874 22.4283 27.57 22.45C27.5594 22.4603 27.5512 22.4728 27.546 22.4866C27.5409 22.5005 27.5388 22.5153 27.54 22.53C27.5428 22.5473 27.5496 22.5636 27.5599 22.5777C27.5703 22.5919 27.5838 22.6033 27.5995 22.6111C27.6151 22.6189 27.6324 22.6229 27.6499 22.6227C27.6674 22.6225 27.6846 22.6182 27.7 22.61C27.7184 22.6006 27.7338 22.5863 27.7444 22.5686C27.755 22.5509 27.7604 22.5306 27.76 22.51C27.7595 22.4961 27.7561 22.4825 27.75 22.47C27.7413 22.449 27.7256 22.4315 27.7056 22.4206C27.6856 22.4097 27.6624 22.406 27.64 22.41V22.41ZM17.15 22.75C16.7257 22.7394 16.3145 22.8978 16.0069 23.1903C15.6994 23.4829 15.5206 23.8857 15.51 24.31C15.4994 24.7343 15.6578 25.1455 15.9504 25.4531C16.2429 25.7606 16.6457 25.9394 17.07 25.95C17.2801 25.9553 17.4892 25.9191 17.6854 25.8435C17.8815 25.768 18.0608 25.6545 18.2131 25.5097C18.3654 25.3648 18.4877 25.1914 18.5729 24.9992C18.6582 24.8071 18.7048 24.6001 18.71 24.39C18.7153 24.1799 18.6791 23.9708 18.6035 23.7747C18.528 23.5785 18.4145 23.3992 18.2697 23.2469C18.1248 23.0946 17.9514 22.9724 17.7593 22.8871C17.5672 22.8018 17.3601 22.7553 17.15 22.75V22.75ZM24.25 22.75C23.8261 22.7513 23.42 22.9208 23.121 23.2213C22.822 23.5217 22.6544 23.9286 22.655 24.3525C22.6557 24.7764 22.8245 25.1827 23.1245 25.4822C23.4245 25.7818 23.8311 25.95 24.255 25.95C24.6789 25.95 25.0855 25.7818 25.3855 25.4822C25.6855 25.1827 25.8544 24.7764 25.855 24.3525C25.8557 23.9286 25.6881 23.5217 25.389 23.2213C25.09 22.9208 24.6839 22.7513 24.26 22.75H24.25ZM31.15 22.75C30.7257 22.7394 30.3145 22.8978 30.0069 23.1903C29.6994 23.4829 29.5206 23.8857 29.51 24.31C29.4994 24.7343 29.6578 25.1455 29.9504 25.4531C30.2429 25.7606 30.6457 25.9394 31.07 25.95C31.4944 25.9606 31.9055 25.8022 32.2131 25.5097C32.5207 25.2171 32.6994 24.8143 32.71 24.39C32.7206 23.9657 32.5622 23.5545 32.2697 23.2469C31.9771 22.9394 31.5744 22.7606 31.15 22.75V22.75ZM20.38 23.53C20.3525 23.534 20.3274 23.5483 20.31 23.57C20.2994 23.5803 20.2912 23.5928 20.286 23.6066C20.2809 23.6205 20.2788 23.6353 20.28 23.65C20.2785 23.674 20.2848 23.6978 20.2981 23.7178C20.3113 23.7378 20.3308 23.753 20.3535 23.7609C20.3761 23.7688 20.4008 23.7691 20.4236 23.7617C20.4465 23.7544 20.4663 23.7397 20.48 23.72C20.4978 23.7063 20.5104 23.687 20.5158 23.6652C20.5212 23.6434 20.5192 23.6205 20.51 23.6C20.5031 23.5771 20.4882 23.5575 20.468 23.5446C20.4478 23.5318 20.4237 23.5266 20.4 23.53H20.38V23.53ZM27.63 23.53C27.6025 23.534 27.5774 23.5483 27.56 23.57C27.5494 23.5803 27.5412 23.5928 27.536 23.6066C27.5309 23.6205 27.5288 23.6353 27.53 23.65C27.5285 23.674 27.5348 23.6978 27.5481 23.7178C27.5613 23.7378 27.5808 23.753 27.6035 23.7609C27.6261 23.7688 27.6508 23.7691 27.6736 23.7617C27.6965 23.7544 27.7163 23.7397 27.73 23.72C27.7478 23.7063 27.7604 23.687 27.7658 23.6652C27.7712 23.6434 27.7692 23.6205 27.76 23.6C27.7531 23.5771 27.7382 23.5575 27.718 23.5446C27.6978 23.5318 27.6737 23.5266 27.65 23.53H27.63V23.53ZM20.38 24.1C20.3577 24.1025 20.3367 24.1118 20.3198 24.1265C20.303 24.1413 20.291 24.1609 20.2856 24.1826C20.2801 24.2044 20.2815 24.2273 20.2894 24.2483C20.2974 24.2693 20.3115 24.2873 20.33 24.3C20.3479 24.3116 20.3687 24.3178 20.39 24.3178C20.4113 24.3178 20.4322 24.3116 20.45 24.3C20.4692 24.2917 20.4853 24.2776 20.4961 24.2597C20.5069 24.2417 20.5117 24.2209 20.51 24.2C20.5075 24.1726 20.4948 24.1471 20.4745 24.1286C20.4541 24.1101 20.4275 24.0999 20.4 24.1H20.38V24.1ZM27.63 24.1C27.6077 24.1025 27.5867 24.1118 27.5698 24.1265C27.553 24.1413 27.541 24.1609 27.5356 24.1826C27.5301 24.2044 27.5315 24.2273 27.5394 24.2483C27.5474 24.2693 27.5615 24.2873 27.58 24.3C27.5979 24.3116 27.6187 24.3178 27.64 24.3178C27.6613 24.3178 27.6822 24.3116 27.7 24.3C27.7192 24.2917 27.7353 24.2776 27.7461 24.2597C27.7569 24.2417 27.7617 24.2209 27.76 24.2C27.7575 24.1726 27.7448 24.1471 27.7245 24.1286C27.7041 24.1101 27.6775 24.0999 27.65 24.1H27.63V24.1ZM20.39 24.66C20.3625 24.6599 20.3359 24.6701 20.3156 24.6886C20.2952 24.7071 20.2825 24.7326 20.28 24.76C20.2784 24.7834 20.2844 24.8067 20.297 24.8265C20.3096 24.8463 20.3281 24.8615 20.35 24.87C20.3721 24.8733 20.3948 24.8697 20.4148 24.8598C20.4349 24.8499 20.4515 24.8342 20.4623 24.8146C20.4732 24.7951 20.4778 24.7726 20.4756 24.7504C20.4734 24.7281 20.4645 24.7071 20.45 24.69C20.4336 24.674 20.4127 24.6635 20.39 24.66V24.66ZM27.64 24.66C27.6108 24.66 27.5829 24.6716 27.5622 24.6922C27.5416 24.7128 27.53 24.7408 27.53 24.77C27.53 24.7992 27.5416 24.8272 27.5622 24.8478C27.5829 24.8684 27.6108 24.88 27.64 24.88C27.6692 24.88 27.6972 24.8684 27.7178 24.8478C27.7384 24.8272 27.75 24.7992 27.75 24.77C27.75 24.7408 27.7384 24.7128 27.7178 24.6922C27.6972 24.6716 27.6692 24.66 27.64 24.66ZM20.39 25.22C20.3756 25.218 20.3609 25.2189 20.3468 25.2226C20.3327 25.2263 20.3195 25.2328 20.3078 25.2416C20.2962 25.2504 20.2865 25.2615 20.2791 25.274C20.2718 25.2866 20.267 25.3006 20.265 25.315C20.263 25.3294 20.2639 25.3441 20.2677 25.3582C20.2714 25.3723 20.2778 25.3856 20.2866 25.3972C20.2955 25.4088 20.3065 25.4185 20.3191 25.4259C20.3317 25.4332 20.3456 25.438 20.36 25.44C20.3807 25.4476 20.4032 25.4488 20.4246 25.4435C20.446 25.4381 20.4653 25.4265 20.48 25.41C20.4988 25.4003 20.5144 25.3854 20.5249 25.3671C20.5354 25.3488 20.5404 25.3279 20.5394 25.3068C20.5383 25.2857 20.5312 25.2654 20.5189 25.2482C20.5066 25.231 20.4896 25.2178 20.47 25.21C20.44 25.19 20.41 25.2 20.38 25.21L20.39 25.22ZM27.64 25.22C27.6256 25.222 27.6117 25.2268 27.5991 25.2341C27.5865 25.2415 27.5755 25.2512 27.5666 25.2628C27.5578 25.2744 27.5514 25.2877 27.5477 25.3018C27.5439 25.3159 27.543 25.3306 27.545 25.345C27.547 25.3594 27.5518 25.3734 27.5591 25.386C27.5665 25.3985 27.5762 25.4096 27.5878 25.4184C27.5995 25.4272 27.6127 25.4337 27.6268 25.4374C27.6409 25.4411 27.6556 25.442 27.67 25.44C27.6992 25.436 27.7256 25.4206 27.7434 25.3972C27.7612 25.3737 27.769 25.3442 27.765 25.315C27.761 25.2858 27.7456 25.2594 27.7222 25.2416C27.6988 25.2238 27.6692 25.216 27.64 25.22V25.22ZM20.39 25.78C20.3729 25.783 20.3567 25.79 20.3428 25.8004C20.3289 25.8108 20.3177 25.8244 20.31 25.84C20.3019 25.8548 20.2972 25.8712 20.2964 25.8881C20.2956 25.905 20.2988 25.9218 20.3055 25.9373C20.3123 25.9527 20.3225 25.9665 20.3355 25.9773C20.3484 25.9882 20.3636 25.996 20.38 26C20.3979 26.0037 20.4164 26.0029 20.4338 25.9976C20.4513 25.9924 20.4671 25.9829 20.48 25.97C20.4991 25.9538 20.512 25.9316 20.5168 25.9071C20.5215 25.8825 20.5178 25.8571 20.5061 25.8349C20.4945 25.8128 20.4757 25.7953 20.4527 25.7853C20.4298 25.7753 20.4042 25.7735 20.38 25.78H20.39V25.78ZM27.64 25.78C27.6125 25.784 27.5874 25.7983 27.57 25.82C27.5594 25.8303 27.5512 25.8428 27.546 25.8566C27.5409 25.8705 27.5388 25.8853 27.54 25.9C27.54 25.96 27.58 26 27.64 26C27.6692 26 27.6972 25.9884 27.7178 25.9678C27.7384 25.9472 27.75 25.9192 27.75 25.89C27.7475 25.8626 27.7348 25.8371 27.7145 25.8186C27.6941 25.8001 27.6675 25.7899 27.64 25.79V25.78V25.78ZM20.39 26.34C20.3595 26.34 20.3303 26.3521 20.3087 26.3737C20.2871 26.3952 20.275 26.4245 20.275 26.455C20.275 26.4855 20.2871 26.5148 20.3087 26.5363C20.3303 26.5579 20.3595 26.57 20.39 26.57C20.4205 26.57 20.4498 26.5579 20.4713 26.5363C20.4929 26.5148 20.505 26.4855 20.505 26.455C20.505 26.4245 20.4929 26.3952 20.4713 26.3737C20.4498 26.3521 20.4205 26.34 20.39 26.34ZM27.64 26.34C27.6095 26.34 27.5803 26.3521 27.5587 26.3737C27.5371 26.3952 27.525 26.4245 27.525 26.455C27.525 26.4855 27.5371 26.5148 27.5587 26.5363C27.5803 26.5579 27.6095 26.57 27.64 26.57C27.6705 26.57 27.6998 26.5579 27.7213 26.5363C27.7429 26.5148 27.755 26.4855 27.755 26.455C27.755 26.4245 27.7429 26.3952 27.7213 26.3737C27.6998 26.3521 27.6705 26.34 27.64 26.34V26.34ZM17.15 26.59C16.7257 26.5794 16.3145 26.7378 16.0069 27.0303C15.6994 27.3229 15.5206 27.7257 15.51 28.15C15.4994 28.5743 15.6578 28.9855 15.9504 29.2931C16.2429 29.6006 16.6457 29.7794 17.07 29.79C17.2801 29.7953 17.4892 29.7591 17.6854 29.6835C17.8815 29.608 18.0608 29.4945 18.2131 29.3497C18.3654 29.2048 18.4877 29.0314 18.5729 28.8392C18.6582 28.6471 18.7048 28.4401 18.71 28.23C18.7153 28.0199 18.6791 27.8108 18.6035 27.6147C18.528 27.4185 18.4145 27.2392 18.2697 27.0869C18.1248 26.9346 17.9514 26.8124 17.7593 26.7271C17.5672 26.6418 17.3601 26.5953 17.15 26.59V26.59ZM24.25 26.59C23.8261 26.5913 23.42 26.7608 23.121 27.0613C22.822 27.3617 22.6544 27.7686 22.655 28.1925C22.6557 28.6164 22.8245 29.0227 23.1245 29.3222C23.4245 29.6218 23.8311 29.79 24.255 29.79C24.6789 29.79 25.0855 29.6218 25.3855 29.3222C25.6855 29.0227 25.8544 28.6164 25.855 28.1925C25.8557 27.7686 25.6881 27.3617 25.389 27.0613C25.09 26.7608 24.6839 26.5913 24.26 26.59H24.25ZM31.15 26.59C30.7257 26.5794 30.3145 26.7378 30.0069 27.0303C29.6994 27.3229 29.5206 27.7257 29.51 28.15C29.4994 28.5743 29.6578 28.9855 29.9504 29.2931C30.2429 29.6006 30.6457 29.7794 31.07 29.79C31.4944 29.8006 31.9055 29.6422 32.2131 29.3497C32.5207 29.0571 32.6994 28.6543 32.71 28.23C32.7206 27.8057 32.5622 27.3945 32.2697 27.0869C31.9771 26.7794 31.5744 26.6006 31.15 26.59V26.59ZM20.39 26.91C20.3661 26.913 20.3439 26.9238 20.3267 26.9407C20.3095 26.9576 20.2984 26.9797 20.295 27.0036C20.2916 27.0274 20.2961 27.0517 20.3078 27.0728C20.3196 27.0938 20.3379 27.1104 20.36 27.12C20.3807 27.1276 20.4032 27.1288 20.4246 27.1235C20.446 27.1181 20.4653 27.1065 20.48 27.09C20.4945 27.0729 20.5034 27.0519 20.5056 27.0296C20.5078 27.0074 20.5032 26.9849 20.4923 26.9654C20.4815 26.9458 20.4649 26.9301 20.4448 26.9202C20.4248 26.9103 20.4021 26.9067 20.38 26.91H20.39ZM27.64 26.91C27.6161 26.913 27.5939 26.9238 27.5767 26.9407C27.5595 26.9576 27.5484 26.9797 27.545 27.0036C27.5416 27.0274 27.5461 27.0517 27.5578 27.0728C27.5696 27.0938 27.5879 27.1104 27.61 27.12C27.6307 27.1276 27.6532 27.1288 27.6746 27.1235C27.696 27.1181 27.7153 27.1065 27.73 27.09C27.7445 27.0729 27.7534 27.0519 27.7556 27.0296C27.7578 27.0074 27.7532 26.9849 27.7423 26.9654C27.7315 26.9458 27.7149 26.9301 27.6948 26.9202C27.6748 26.9103 27.6521 26.9067 27.63 26.91H27.64ZM20.39 27.47C20.3625 27.4699 20.3359 27.4801 20.3156 27.4986C20.2952 27.5171 20.2825 27.5426 20.28 27.57C20.2784 27.5934 20.2844 27.6167 20.297 27.6365C20.3096 27.6563 20.3281 27.6715 20.35 27.68C20.3721 27.6833 20.3948 27.6797 20.4148 27.6698C20.4349 27.6599 20.4515 27.6442 20.4623 27.6246C20.4732 27.6051 20.4778 27.5826 20.4756 27.5604C20.4734 27.5381 20.4645 27.5171 20.45 27.5C20.4336 27.484 20.4127 27.4735 20.39 27.47V27.47ZM27.64 27.47C27.6125 27.4699 27.5859 27.4801 27.5656 27.4986C27.5452 27.5171 27.5325 27.5426 27.53 27.57C27.5284 27.5934 27.5344 27.6167 27.547 27.6365C27.5596 27.6563 27.5781 27.6715 27.6 27.68C27.6221 27.6833 27.6448 27.6797 27.6648 27.6698C27.6849 27.6599 27.7015 27.6442 27.7123 27.6246C27.7232 27.6051 27.7278 27.5826 27.7256 27.5604C27.7234 27.5381 27.7145 27.5171 27.7 27.5C27.6836 27.484 27.6627 27.4735 27.64 27.47V27.47ZM20.38 28.03C20.3569 28.0307 20.3346 28.0386 20.3163 28.0527C20.2979 28.0667 20.2845 28.0862 20.2778 28.1083C20.2712 28.1305 20.2717 28.1542 20.2793 28.176C20.2868 28.1978 20.3011 28.2167 20.32 28.23C20.3354 28.2486 20.3565 28.2615 20.38 28.267C20.4034 28.2724 20.4281 28.2699 20.45 28.26C20.4719 28.2494 20.4896 28.2319 20.5004 28.2102C20.5113 28.1885 20.5147 28.1638 20.51 28.14C20.5075 28.1126 20.4948 28.0871 20.4745 28.0686C20.4541 28.0501 20.4275 28.0399 20.4 28.04H20.38V28.03V28.03ZM27.63 28.03C27.6069 28.0307 27.5846 28.0386 27.5663 28.0527C27.5479 28.0667 27.5345 28.0862 27.5278 28.1083C27.5212 28.1305 27.5217 28.1542 27.5293 28.176C27.5368 28.1978 27.5511 28.2167 27.57 28.23C27.5854 28.2486 27.6065 28.2615 27.63 28.267C27.6534 28.2724 27.6781 28.2699 27.7 28.26C27.7219 28.2494 27.7396 28.2319 27.7504 28.2102C27.7613 28.1885 27.7647 28.1638 27.76 28.14C27.7575 28.1126 27.7448 28.0871 27.7245 28.0686C27.7041 28.0501 27.6775 28.0399 27.65 28.04H27.63V28.03V28.03ZM20.4 28.59C20.3837 28.5897 20.3676 28.5931 20.3527 28.5998C20.3379 28.6065 20.3247 28.6165 20.3142 28.6289C20.3037 28.6414 20.2961 28.656 20.2919 28.6717C20.2877 28.6875 20.2871 28.704 20.29 28.72C20.2907 28.7354 20.2946 28.7505 20.3015 28.7642C20.3084 28.778 20.3181 28.7902 20.33 28.8C20.3412 28.8088 20.3541 28.8152 20.3679 28.8186C20.3817 28.8221 20.396 28.8225 20.41 28.82C20.4317 28.8195 20.4528 28.8126 20.4706 28.8001C20.4884 28.7877 20.5021 28.7702 20.51 28.75V28.71C20.5114 28.6947 20.5096 28.6793 20.5047 28.6648C20.4998 28.6503 20.4919 28.637 20.4816 28.6257C20.4712 28.6144 20.4586 28.6054 20.4446 28.5992C20.4305 28.5931 20.4153 28.5899 20.4 28.59V28.59ZM27.65 28.59C27.6337 28.5897 27.6176 28.5931 27.6027 28.5998C27.5879 28.6065 27.5747 28.6165 27.5642 28.6289C27.5537 28.6414 27.5461 28.656 27.5419 28.6717C27.5377 28.6875 27.5371 28.704 27.54 28.72C27.5407 28.7344 27.5442 28.7486 27.5503 28.7617C27.5564 28.7748 27.5651 28.7866 27.5758 28.7963C27.5865 28.8061 27.5989 28.8136 27.6125 28.8185C27.6261 28.8235 27.6406 28.8257 27.655 28.825C27.6695 28.8243 27.6836 28.8208 27.6967 28.8147C27.7098 28.8086 27.7216 28.7999 27.7313 28.7892C27.7411 28.7786 27.7486 28.7661 27.7536 28.7525C27.7585 28.7389 27.7607 28.7244 27.76 28.71C27.7614 28.6947 27.7596 28.6793 27.7547 28.6648C27.7498 28.6503 27.7419 28.637 27.7316 28.6257C27.7212 28.6144 27.7086 28.6054 27.6946 28.5992C27.6805 28.5931 27.6653 28.5899 27.65 28.59V28.59ZM20.39 29.72C20.3608 29.72 20.3329 29.7316 20.3122 29.7522C20.2916 29.7728 20.28 29.8008 20.28 29.83C20.28 29.8592 20.2916 29.8872 20.3122 29.9078C20.3329 29.9284 20.3608 29.94 20.39 29.94C20.4192 29.94 20.4472 29.9284 20.4678 29.9078C20.4884 29.8872 20.5 29.8592 20.5 29.83C20.5 29.8008 20.4884 29.7728 20.4678 29.7522C20.4472 29.7316 20.4192 29.72 20.39 29.72V29.72ZM20.39 30.28C20.3746 30.2807 20.3596 30.2846 20.3458 30.2915C20.332 30.2984 20.3198 30.3081 20.31 30.32C20.3 30.3301 20.2922 30.3422 20.2872 30.3555C20.2822 30.3688 20.2801 30.3831 20.281 30.3973C20.282 30.4115 20.286 30.4253 20.2927 30.4378C20.2994 30.4504 20.3087 30.4613 20.32 30.47C20.3303 30.4806 20.3428 30.4888 20.3567 30.494C20.3705 30.4992 20.3853 30.5012 20.4 30.5C20.4145 30.4993 20.4286 30.4958 20.4417 30.4897C20.4548 30.4836 20.4666 30.4749 20.4763 30.4642C20.4861 30.4536 20.4936 30.4411 20.4986 30.4275C20.5035 30.4139 20.5057 30.3994 20.505 30.385C20.5044 30.3706 20.5009 30.3564 20.4947 30.3433C20.4886 30.3302 20.4799 30.3184 20.4693 30.3087C20.4586 30.2989 20.4461 30.2914 20.4325 30.2865C20.4189 30.2815 20.4045 30.2793 20.39 30.28V30.28ZM27.64 30.28C27.6246 30.2807 27.6096 30.2846 27.5958 30.2915C27.582 30.2984 27.5698 30.3081 27.56 30.32C27.55 30.3301 27.5422 30.3422 27.5372 30.3555C27.5322 30.3688 27.5301 30.3831 27.531 30.3973C27.532 30.4115 27.536 30.4253 27.5427 30.4378C27.5494 30.4504 27.5587 30.4613 27.57 30.47C27.5803 30.4806 27.5928 30.4888 27.6067 30.494C27.6205 30.4992 27.6353 30.5012 27.65 30.5C27.6645 30.4993 27.6786 30.4958 27.6917 30.4897C27.7048 30.4836 27.7166 30.4749 27.7263 30.4642C27.7361 30.4536 27.7436 30.4411 27.7486 30.4275C27.7535 30.4139 27.7557 30.3994 27.755 30.385C27.7544 30.3706 27.7509 30.3564 27.7447 30.3433C27.7386 30.3302 27.7299 30.3184 27.7193 30.3087C27.7086 30.2989 27.6961 30.2914 27.6825 30.2865C27.6689 30.2815 27.6545 30.2793 27.64 30.28V30.28ZM17.15 30.42C16.7257 30.42 16.3187 30.5886 16.0186 30.8886C15.7186 31.1887 15.55 31.5957 15.55 32.02C15.55 32.4443 15.7186 32.8513 16.0186 33.1514C16.3187 33.4514 16.7257 33.62 17.15 33.62C17.5744 33.62 17.9813 33.4514 18.2814 33.1514C18.5814 32.8513 18.75 32.4443 18.75 32.02C18.75 31.5957 18.5814 31.1887 18.2814 30.8886C17.9813 30.5886 17.5744 30.42 17.15 30.42V30.42ZM24.25 30.42C23.8257 30.42 23.4187 30.5886 23.1186 30.8886C22.8186 31.1887 22.65 31.5957 22.65 32.02C22.65 32.4443 22.8186 32.8513 23.1186 33.1514C23.4187 33.4514 23.8257 33.62 24.25 33.62C24.6744 33.62 25.0813 33.4514 25.3814 33.1514C25.6814 32.8513 25.85 32.4443 25.85 32.02C25.85 31.5957 25.6814 31.1887 25.3814 30.8886C25.0813 30.5886 24.6744 30.42 24.25 30.42V30.42ZM31.15 30.42C30.7257 30.42 30.3187 30.5886 30.0186 30.8886C29.7186 31.1887 29.55 31.5957 29.55 32.02C29.55 32.4443 29.7186 32.8513 30.0186 33.1514C30.3187 33.4514 30.7257 33.62 31.15 33.62C31.5744 33.62 31.9813 33.4514 32.2814 33.1514C32.5814 32.8513 32.75 32.4443 32.75 32.02C32.75 31.5957 32.5814 31.1887 32.2814 30.8886C31.9813 30.5886 31.5744 30.42 31.15 30.42V30.42ZM20.39 30.84C20.3661 30.8385 20.3422 30.8448 20.3222 30.8581C20.3022 30.8713 20.287 30.8908 20.2791 30.9134C20.2712 30.9361 20.2709 30.9607 20.2783 30.9836C20.2857 31.0065 20.3003 31.0263 20.32 31.04C20.3354 31.0586 20.3565 31.0715 20.38 31.077C20.4034 31.0824 20.4281 31.0799 20.45 31.07C20.4731 31.061 20.492 31.0437 20.5031 31.0216C20.5142 30.9994 20.5167 30.9739 20.51 30.95C20.5075 30.9275 20.4986 30.9061 20.4845 30.8884C20.4703 30.8707 20.4514 30.8574 20.43 30.85L20.39 30.84V30.84ZM27.64 30.84C27.6161 30.8385 27.5922 30.8448 27.5722 30.8581C27.5522 30.8713 27.537 30.8908 27.5291 30.9134C27.5212 30.9361 27.5209 30.9607 27.5283 30.9836C27.5357 31.0065 27.5503 31.0263 27.57 31.04C27.5854 31.0586 27.6065 31.0715 27.63 31.077C27.6534 31.0824 27.6781 31.0799 27.7 31.07C27.7231 31.061 27.742 31.0437 27.7531 31.0216C27.7642 30.9994 27.7667 30.9739 27.76 30.95C27.7575 30.9275 27.7486 30.9061 27.7345 30.8884C27.7203 30.8707 27.7014 30.8574 27.68 30.85L27.64 30.84V30.84ZM20.39 31.4C20.3756 31.398 20.3609 31.3989 20.3468 31.4026C20.3327 31.4063 20.3195 31.4128 20.3078 31.4216C20.2962 31.4304 20.2865 31.4415 20.2791 31.454C20.2718 31.4666 20.267 31.4806 20.265 31.495C20.263 31.5094 20.2639 31.5241 20.2677 31.5382C20.2714 31.5523 20.2778 31.5656 20.2866 31.5772C20.2955 31.5888 20.3065 31.5985 20.3191 31.6059C20.3317 31.6132 20.3456 31.618 20.36 31.62C20.3807 31.6276 20.4032 31.6288 20.4246 31.6235C20.446 31.6181 20.4653 31.6065 20.48 31.59C20.4991 31.5738 20.512 31.5516 20.5168 31.5271C20.5215 31.5025 20.5178 31.4771 20.5061 31.4549C20.4945 31.4328 20.4757 31.4153 20.4527 31.4053C20.4298 31.3953 20.4042 31.3935 20.38 31.4H20.39V31.4ZM27.64 31.4C27.6256 31.398 27.6109 31.3989 27.5968 31.4026C27.5827 31.4063 27.5695 31.4128 27.5578 31.4216C27.5462 31.4304 27.5365 31.4415 27.5291 31.454C27.5218 31.4666 27.517 31.4806 27.515 31.495C27.513 31.5094 27.5139 31.5241 27.5177 31.5382C27.5214 31.5523 27.5278 31.5656 27.5366 31.5772C27.5455 31.5888 27.5565 31.5985 27.5691 31.6059C27.5817 31.6132 27.5956 31.618 27.61 31.62C27.6307 31.6276 27.6532 31.6288 27.6746 31.6235C27.696 31.6181 27.7153 31.6065 27.73 31.59C27.7491 31.5738 27.762 31.5516 27.7668 31.5271C27.7715 31.5025 27.7678 31.4771 27.7561 31.4549C27.7445 31.4328 27.7257 31.4153 27.7027 31.4053C27.6798 31.3953 27.6542 31.3935 27.63 31.4H27.64V31.4ZM20.38 31.97C20.3619 31.9713 20.3443 31.9771 20.329 31.9868C20.3136 31.9965 20.3009 32.0099 20.292 32.0258C20.2831 32.0416 20.2782 32.0595 20.2779 32.0776C20.2775 32.0958 20.2817 32.1138 20.29 32.13C20.2988 32.151 20.3145 32.1685 20.3345 32.1794C20.3545 32.1903 20.3776 32.194 20.4 32.19C20.4292 32.19 20.4572 32.1784 20.4778 32.1578C20.4984 32.1372 20.51 32.1092 20.51 32.08C20.51 32.0508 20.4984 32.0228 20.4778 32.0022C20.4572 31.9816 20.4292 31.97 20.4 31.97H20.38V31.97ZM27.63 31.97C27.6119 31.9713 27.5943 31.9771 27.579 31.9868C27.5636 31.9965 27.5509 32.0099 27.542 32.0258C27.5331 32.0416 27.5282 32.0595 27.5279 32.0776C27.5275 32.0958 27.5317 32.1138 27.54 32.13C27.5488 32.151 27.5645 32.1685 27.5845 32.1794C27.6045 32.1903 27.6276 32.194 27.65 32.19C27.6792 32.19 27.7072 32.1784 27.7278 32.1578C27.7484 32.1372 27.76 32.1092 27.76 32.08C27.76 32.0508 27.7484 32.0228 27.7278 32.0022C27.7072 31.9816 27.6792 31.97 27.65 31.97H27.63V31.97ZM20.38 32.53C20.3577 32.5325 20.3367 32.5418 20.3198 32.5565C20.303 32.5713 20.291 32.5909 20.2856 32.6126C20.2801 32.6344 20.2815 32.6573 20.2894 32.6783C20.2974 32.6993 20.3115 32.7173 20.33 32.73C20.3479 32.7416 20.3687 32.7478 20.39 32.7478C20.4113 32.7478 20.4322 32.7416 20.45 32.73C20.4692 32.7217 20.4853 32.7076 20.4961 32.6897C20.5069 32.6717 20.5117 32.6509 20.51 32.63C20.5075 32.6026 20.4948 32.5771 20.4745 32.5586C20.4541 32.5401 20.4275 32.5299 20.4 32.53H20.38ZM27.63 32.53C27.6077 32.5325 27.5867 32.5418 27.5698 32.5565C27.553 32.5713 27.541 32.5909 27.5356 32.6126C27.5301 32.6344 27.5315 32.6573 27.5394 32.6783C27.5474 32.6993 27.5615 32.7173 27.58 32.73C27.5979 32.7416 27.6187 32.7478 27.64 32.7478C27.6613 32.7478 27.6822 32.7416 27.7 32.73C27.7192 32.7217 27.7353 32.7076 27.7461 32.6897C27.7569 32.6717 27.7617 32.6509 27.76 32.63C27.7575 32.6026 27.7448 32.5771 27.7245 32.5586C27.7041 32.5401 27.6775 32.5299 27.65 32.53H27.63ZM20.4 33.09C20.3783 33.0905 20.3572 33.0974 20.3394 33.1099C20.3216 33.1223 20.3079 33.1398 20.3 33.16L20.28 33.2C20.28 33.27 20.34 33.31 20.4 33.31C20.4147 33.3106 20.4293 33.3082 20.4431 33.3031C20.4568 33.2979 20.4694 33.2901 20.48 33.28C20.4906 33.2697 20.4988 33.2572 20.504 33.2434C20.5092 33.2295 20.5112 33.2147 20.51 33.2C20.51 33.1708 20.4984 33.1428 20.4778 33.1222C20.4572 33.1016 20.4292 33.09 20.4 33.09ZM27.65 33.09C27.6283 33.0905 27.6072 33.0974 27.5894 33.1099C27.5716 33.1223 27.5579 33.1398 27.55 33.16L27.53 33.2C27.53 33.27 27.59 33.31 27.65 33.31C27.6647 33.3106 27.6793 33.3082 27.6931 33.3031C27.7068 33.2979 27.7194 33.2901 27.73 33.28C27.7406 33.2697 27.7488 33.2572 27.754 33.2434C27.7592 33.2295 27.7612 33.2147 27.76 33.2C27.76 33.1708 27.7484 33.1428 27.7278 33.1222C27.7072 33.1016 27.6792 33.09 27.65 33.09ZM20.39 33.65C20.371 33.6497 20.3523 33.6542 20.3356 33.6633C20.3189 33.6723 20.3048 33.6856 20.2947 33.7017C20.2846 33.7178 20.2789 33.7362 20.2781 33.7552C20.2773 33.7742 20.2814 33.7931 20.29 33.81C20.2988 33.831 20.3145 33.8485 20.3345 33.8594C20.3545 33.8703 20.3776 33.874 20.4 33.87C20.4145 33.87 20.4288 33.8672 20.4421 33.8616C20.4555 33.8561 20.4676 33.848 20.4778 33.8378C20.488 33.8276 20.4961 33.8154 20.5016 33.8021C20.5072 33.7887 20.51 33.7744 20.51 33.76C20.51 33.7456 20.5072 33.7312 20.5016 33.7179C20.4961 33.7046 20.488 33.6924 20.4778 33.6822C20.4676 33.672 20.4555 33.6639 20.4421 33.6584C20.4288 33.6528 20.4145 33.65 20.4 33.65H20.39V33.65ZM20.39 34.21C20.3671 34.2112 20.3451 34.2196 20.3272 34.2339C20.3092 34.2483 20.2963 34.2679 20.29 34.29C20.28 34.3157 20.28 34.3443 20.29 34.37C20.2972 34.3888 20.3094 34.4052 20.3252 34.4176C20.3411 34.4299 20.3601 34.4377 20.38 34.44C20.3987 34.4425 20.4177 34.4401 20.4352 34.4331C20.4528 34.4261 20.4682 34.4147 20.48 34.4C20.4991 34.3838 20.512 34.3616 20.5168 34.3371C20.5215 34.3125 20.5178 34.2871 20.5061 34.2649C20.4945 34.2428 20.4757 34.2253 20.4527 34.2153C20.4298 34.2053 20.4042 34.2035 20.38 34.21H20.39ZM17.15 34.26C16.9399 34.2547 16.7308 34.2909 16.5347 34.3665C16.3386 34.442 16.1592 34.5555 16.0069 34.7003C15.8546 34.8452 15.7324 35.0186 15.6471 35.2108C15.5619 35.4029 15.5153 35.6099 15.51 35.82C15.5048 36.0301 15.541 36.2392 15.6165 36.4353C15.6921 36.6315 15.8055 36.8108 15.9504 36.9631C16.0952 37.1154 16.2687 37.2376 16.4608 37.3229C16.6529 37.4082 16.8599 37.4547 17.07 37.46C17.4944 37.4706 17.9055 37.3122 18.2131 37.0197C18.5207 36.7271 18.6994 36.3243 18.71 35.9C18.7206 35.4757 18.5622 35.0645 18.2697 34.7569C17.9771 34.4494 17.5744 34.2706 17.15 34.26ZM24.25 34.26C23.8261 34.2613 23.42 34.4308 23.121 34.7313C22.822 35.0317 22.6544 35.4386 22.655 35.8625C22.6557 36.2864 22.8245 36.6927 23.1245 36.9922C23.4245 37.2918 23.8311 37.46 24.255 37.46C24.6789 37.46 25.0855 37.2918 25.3855 36.9922C25.6855 36.6927 25.8544 36.2864 25.855 35.8625C25.8557 35.4386 25.6881 35.0317 25.389 34.7313C25.09 34.4308 24.6839 34.2613 24.26 34.26H24.25ZM31.15 34.26C30.7257 34.2494 30.3145 34.4078 30.0069 34.7003C29.6994 34.9929 29.5206 35.3957 29.51 35.82C29.4994 36.2443 29.6578 36.6555 29.9504 36.9631C30.2429 37.2706 30.6457 37.4494 31.07 37.46C31.4944 37.4706 31.9055 37.3122 32.2131 37.0197C32.5207 36.7271 32.6994 36.3243 32.71 35.9C32.7206 35.4757 32.5622 35.0645 32.2697 34.7569C31.9771 34.4494 31.5744 34.2706 31.15 34.26ZM20.39 34.78C20.3661 34.783 20.3439 34.7938 20.3267 34.8107C20.3095 34.8276 20.2984 34.8497 20.295 34.8736C20.2916 34.8974 20.2961 34.9217 20.3078 34.9428C20.3196 34.9638 20.3379 34.9804 20.36 34.99C20.3807 34.9976 20.4032 34.9988 20.4246 34.9935C20.446 34.9881 20.4653 34.9765 20.48 34.96C20.4945 34.9429 20.5034 34.9219 20.5056 34.8996C20.5078 34.8774 20.5032 34.8549 20.4923 34.8354C20.4815 34.8158 20.4649 34.8 20.4448 34.7902C20.4248 34.7803 20.4021 34.7767 20.38 34.78H20.39ZM27.64 34.78C27.6161 34.783 27.5939 34.7938 27.5767 34.8107C27.5595 34.8276 27.5484 34.8497 27.545 34.8736C27.5416 34.8974 27.5461 34.9217 27.5578 34.9428C27.5696 34.9638 27.5879 34.9804 27.61 34.99C27.6307 34.9976 27.6532 34.9988 27.6746 34.9935C27.696 34.9881 27.7153 34.9765 27.73 34.96C27.7445 34.9429 27.7534 34.9219 27.7556 34.8996C27.7578 34.8774 27.7532 34.8549 27.7423 34.8354C27.7315 34.8158 27.7149 34.8 27.6948 34.7902C27.6748 34.7803 27.6521 34.7767 27.63 34.78H27.64ZM20.39 35.34C20.3608 35.336 20.3313 35.3438 20.3078 35.3616C20.2844 35.3794 20.269 35.4058 20.265 35.435C20.261 35.4642 20.2688 35.4937 20.2866 35.5172C20.3044 35.5406 20.3308 35.556 20.36 35.56C20.3817 35.5665 20.4049 35.5661 20.4263 35.559C20.4478 35.5518 20.4666 35.5382 20.48 35.52C20.4945 35.5029 20.5034 35.4819 20.5056 35.4596C20.5078 35.4373 20.5032 35.4149 20.4923 35.3954C20.4815 35.3758 20.4649 35.3601 20.4448 35.3502C20.4248 35.3403 20.4021 35.3367 20.38 35.34H20.39ZM27.64 35.34C27.6108 35.336 27.5813 35.3438 27.5578 35.3616C27.5344 35.3794 27.519 35.4058 27.515 35.435C27.511 35.4642 27.5188 35.4937 27.5366 35.5172C27.5544 35.5406 27.5808 35.556 27.61 35.56C27.6317 35.5665 27.6549 35.5661 27.6763 35.559C27.6978 35.5518 27.7166 35.5382 27.73 35.52C27.7445 35.5029 27.7534 35.4819 27.7556 35.4596C27.7578 35.4373 27.7532 35.4149 27.7423 35.3954C27.7315 35.3758 27.7149 35.3601 27.6948 35.3502C27.6748 35.3403 27.6521 35.3367 27.63 35.34H27.64ZM20.39 35.9C20.3756 35.898 20.3609 35.8989 20.3468 35.9026C20.3327 35.9063 20.3195 35.9128 20.3078 35.9216C20.2962 35.9304 20.2865 35.9415 20.2791 35.954C20.2718 35.9666 20.267 35.9806 20.265 35.995C20.263 36.0094 20.2639 36.0241 20.2677 36.0382C20.2714 36.0523 20.2778 36.0656 20.2866 36.0772C20.2955 36.0888 20.3065 36.0985 20.3191 36.1059C20.3317 36.1132 20.3456 36.118 20.36 36.12C20.3807 36.1276 20.4032 36.1288 20.4246 36.1235C20.446 36.1181 20.4653 36.1065 20.48 36.09C20.4991 36.0738 20.512 36.0516 20.5168 36.0271C20.5215 36.0025 20.5178 35.9771 20.5061 35.9549C20.4945 35.9328 20.4757 35.9153 20.4527 35.9053C20.4298 35.8953 20.4042 35.8935 20.38 35.9H20.39ZM27.64 35.9C27.6256 35.898 27.6109 35.8989 27.5968 35.9026C27.5827 35.9063 27.5695 35.9128 27.5578 35.9216C27.5462 35.9304 27.5365 35.9415 27.5291 35.954C27.5218 35.9666 27.517 35.9806 27.515 35.995C27.513 36.0094 27.5139 36.0241 27.5177 36.0382C27.5214 36.0523 27.5278 36.0656 27.5366 36.0772C27.5455 36.0888 27.5565 36.0985 27.5691 36.1059C27.5817 36.1132 27.5956 36.118 27.61 36.12C27.6307 36.1276 27.6532 36.1288 27.6746 36.1235C27.696 36.1181 27.7153 36.1065 27.73 36.09C27.7491 36.0738 27.762 36.0516 27.7668 36.0271C27.7715 36.0025 27.7678 35.9771 27.7561 35.9549C27.7445 35.9328 27.7257 35.9153 27.7027 35.9053C27.6798 35.8953 27.6542 35.8935 27.63 35.9H27.64ZM20.39 36.46C20.3756 36.4607 20.3614 36.4642 20.3483 36.4703C20.3352 36.4764 20.3235 36.4851 20.3137 36.4958C20.304 36.5064 20.2964 36.5189 20.2915 36.5325C20.2866 36.5461 20.2844 36.5606 20.285 36.575C20.2857 36.5894 20.2892 36.6036 20.2953 36.6167C20.3014 36.6298 20.3101 36.6416 20.3208 36.6513C20.3315 36.6611 20.3439 36.6686 20.3575 36.6735C20.3711 36.6785 20.3856 36.6807 20.4 36.68C20.4292 36.6787 20.4566 36.6658 20.4763 36.6442C20.496 36.6227 20.5063 36.5942 20.505 36.565C20.5037 36.5358 20.4908 36.5084 20.4693 36.4887C20.4477 36.469 20.4192 36.4587 20.39 36.46V36.46ZM27.64 36.46C27.6256 36.4607 27.6114 36.4642 27.5983 36.4703C27.5852 36.4764 27.5735 36.4851 27.5637 36.4958C27.554 36.5064 27.5464 36.5189 27.5415 36.5325C27.5366 36.5461 27.5344 36.5606 27.535 36.575C27.5357 36.5894 27.5392 36.6036 27.5453 36.6167C27.5514 36.6298 27.5601 36.6416 27.5708 36.6513C27.5815 36.6611 27.5939 36.6686 27.6075 36.6735C27.6211 36.6785 27.6356 36.6807 27.65 36.68C27.6792 36.6787 27.7066 36.6658 27.7263 36.6442C27.746 36.6227 27.7563 36.5942 27.755 36.565C27.7537 36.5358 27.7408 36.5084 27.7193 36.4887C27.6977 36.469 27.6692 36.4587 27.64 36.46V36.46ZM20.38 37.03C20.3593 37.0327 20.3398 37.0414 20.3238 37.0548C20.3077 37.0682 20.2959 37.086 20.2896 37.1059C20.2833 37.1259 20.2828 37.1472 20.2882 37.1674C20.2936 37.1876 20.3046 37.2058 20.32 37.22C20.3354 37.2363 20.3554 37.2476 20.3773 37.2522C20.3993 37.2569 20.4221 37.2547 20.4428 37.246C20.4635 37.2373 20.481 37.2225 20.493 37.2035C20.505 37.1846 20.511 37.1624 20.51 37.14C20.51 37.1108 20.4984 37.0828 20.4778 37.0622C20.4572 37.0416 20.4292 37.03 20.4 37.03H20.38V37.03ZM27.63 37.03C27.6093 37.0327 27.5898 37.0414 27.5738 37.0548C27.5577 37.0682 27.5459 37.086 27.5396 37.1059C27.5333 37.1259 27.5328 37.1472 27.5382 37.1674C27.5436 37.1876 27.5546 37.2058 27.57 37.22C27.5854 37.2363 27.6054 37.2476 27.6273 37.2522C27.6493 37.2569 27.6721 37.2547 27.6928 37.246C27.7135 37.2373 27.731 37.2225 27.743 37.2035C27.755 37.1846 27.761 37.1624 27.76 37.14C27.76 37.1108 27.7484 37.0828 27.7278 37.0622C27.7072 37.0416 27.6792 37.03 27.65 37.03H27.63V37.03ZM20.39 37.59C20.3608 37.59 20.3329 37.6016 20.3122 37.6222C20.2916 37.6428 20.28 37.6708 20.28 37.7C20.28 37.7292 20.2916 37.7572 20.3122 37.7778C20.3329 37.7984 20.3608 37.81 20.39 37.81C20.4192 37.81 20.4472 37.7984 20.4678 37.7778C20.4884 37.7572 20.5 37.7292 20.5 37.7C20.5 37.6708 20.4884 37.6428 20.4678 37.6222C20.4472 37.6016 20.4192 37.59 20.39 37.59V37.59ZM27.64 37.59C27.6108 37.59 27.5829 37.6016 27.5622 37.6222C27.5416 37.6428 27.53 37.6708 27.53 37.7C27.53 37.7292 27.5416 37.7572 27.5622 37.7778C27.5829 37.7984 27.6108 37.81 27.64 37.81C27.6692 37.81 27.6972 37.7984 27.7178 37.7778C27.7384 37.7572 27.75 37.7292 27.75 37.7C27.75 37.6708 27.7384 37.6428 27.7178 37.6222C27.6972 37.6016 27.6692 37.59 27.64 37.59ZM17.15 38.07C16.7469 38.07 16.3603 38.2301 16.0752 38.5152C15.7902 38.8003 15.63 39.1869 15.63 39.59C15.63 39.9931 15.7902 40.3797 16.0752 40.6648C16.3603 40.9499 16.7469 41.11 17.15 41.11C17.5531 41.11 17.9398 40.9499 18.2248 40.6648C18.5099 40.3797 18.67 39.9931 18.67 39.59C18.67 39.1869 18.5099 38.8003 18.2248 38.5152C17.9398 38.2301 17.5531 38.07 17.15 38.07V38.07ZM24.25 38.07C23.8469 38.07 23.4603 38.2301 23.1752 38.5152C22.8902 38.8003 22.73 39.1869 22.73 39.59C22.73 39.9931 22.8902 40.3797 23.1752 40.6648C23.4603 40.9499 23.8469 41.11 24.25 41.11C24.6531 41.11 25.0398 40.9499 25.3248 40.6648C25.6099 40.3797 25.77 39.9931 25.77 39.59C25.77 39.1869 25.6099 38.8003 25.3248 38.5152C25.0398 38.2301 24.6531 38.07 24.25 38.07V38.07ZM31.15 38.07C30.7469 38.07 30.3603 38.2301 30.0752 38.5152C29.7902 38.8003 29.63 39.1869 29.63 39.59C29.63 39.9931 29.7902 40.3797 30.0752 40.6648C30.3603 40.9499 30.7469 41.11 31.15 41.11C31.5531 41.11 31.9398 40.9499 32.2248 40.6648C32.5099 40.3797 32.67 39.9931 32.67 39.59C32.67 39.1869 32.5099 38.8003 32.2248 38.5152C31.9398 38.2301 31.5531 38.07 31.15 38.07V38.07ZM20.39 38.15C20.3608 38.154 20.3344 38.1694 20.3166 38.1928C20.2988 38.2163 20.291 38.2458 20.295 38.275C20.299 38.3042 20.3144 38.3306 20.3378 38.3484C20.3613 38.3662 20.3908 38.374 20.42 38.37C20.4345 38.368 20.4484 38.3632 20.461 38.3559C20.4736 38.3485 20.4846 38.3388 20.4934 38.3272C20.5022 38.3156 20.5087 38.3023 20.5124 38.2882C20.5161 38.2741 20.517 38.2594 20.515 38.245C20.513 38.2306 20.5083 38.2166 20.5009 38.204C20.4936 38.1915 20.4838 38.1804 20.4722 38.1716C20.4606 38.1628 20.4474 38.1563 20.4333 38.1526C20.4192 38.1489 20.4045 38.148 20.39 38.15V38.15ZM27.64 38.15C27.6108 38.154 27.5844 38.1694 27.5666 38.1928C27.5488 38.2163 27.541 38.2458 27.545 38.275C27.549 38.3042 27.5644 38.3306 27.5878 38.3484C27.6113 38.3662 27.6408 38.374 27.67 38.37C27.6845 38.368 27.6984 38.3632 27.711 38.3559C27.7236 38.3485 27.7346 38.3388 27.7434 38.3272C27.7522 38.3156 27.7587 38.3023 27.7624 38.2882C27.7661 38.2741 27.767 38.2594 27.765 38.245C27.763 38.2306 27.7583 38.2166 27.7509 38.204C27.7436 38.1915 27.7338 38.1804 27.7222 38.1716C27.7106 38.1628 27.6974 38.1563 27.6833 38.1526C27.6692 38.1489 27.6545 38.148 27.64 38.15V38.15ZM20.39 38.71C20.3608 38.71 20.3329 38.7216 20.3122 38.7422C20.2916 38.7628 20.28 38.7908 20.28 38.82C20.28 38.8492 20.2916 38.8772 20.3122 38.8978C20.3329 38.9184 20.3608 38.93 20.39 38.93C20.4192 38.93 20.4472 38.9184 20.4678 38.8978C20.4884 38.8772 20.5 38.8492 20.5 38.82C20.5 38.7908 20.4884 38.7628 20.4678 38.7422C20.4472 38.7216 20.4192 38.71 20.39 38.71V38.71ZM27.64 38.71C27.6108 38.71 27.5829 38.7216 27.5622 38.7422C27.5416 38.7628 27.53 38.7908 27.53 38.82C27.53 38.8492 27.5416 38.8772 27.5622 38.8978C27.5829 38.9184 27.6108 38.93 27.64 38.93C27.6692 38.93 27.6972 38.9184 27.7178 38.8978C27.7384 38.8772 27.75 38.8492 27.75 38.82C27.75 38.7908 27.7384 38.7628 27.7178 38.7422C27.6972 38.7216 27.6692 38.71 27.64 38.71ZM20.39 39.27C20.3595 39.27 20.3303 39.2821 20.3087 39.3037C20.2871 39.3253 20.275 39.3545 20.275 39.385C20.275 39.4155 20.2871 39.4447 20.3087 39.4663C20.3303 39.4879 20.3595 39.5 20.39 39.5C20.4205 39.5 20.4498 39.4879 20.4713 39.4663C20.4929 39.4447 20.505 39.4155 20.505 39.385C20.505 39.3545 20.4929 39.3253 20.4713 39.3037C20.4498 39.2821 20.4205 39.27 20.39 39.27V39.27ZM27.64 39.27C27.6095 39.27 27.5803 39.2821 27.5587 39.3037C27.5371 39.3253 27.525 39.3545 27.525 39.385C27.525 39.4155 27.5371 39.4447 27.5587 39.4663C27.5803 39.4879 27.6095 39.5 27.64 39.5C27.6705 39.5 27.6998 39.4879 27.7213 39.4663C27.7429 39.4447 27.755 39.4155 27.755 39.385C27.755 39.3545 27.7429 39.3253 27.7213 39.3037C27.6998 39.2821 27.6705 39.27 27.64 39.27V39.27ZM20.39 39.84C20.3661 39.843 20.3439 39.8538 20.3267 39.8707C20.3095 39.8876 20.2984 39.9097 20.295 39.9336C20.2916 39.9574 20.2961 39.9817 20.3078 40.0028C20.3196 40.0238 20.3379 40.0404 20.36 40.05C20.3807 40.0576 20.4032 40.0588 20.4246 40.0535C20.446 40.0481 20.4653 40.0365 20.48 40.02C20.4945 40.0029 20.5034 39.9819 20.5056 39.9596C20.5078 39.9373 20.5032 39.9149 20.4923 39.8954C20.4815 39.8758 20.4649 39.8601 20.4448 39.8502C20.4248 39.8403 20.4021 39.8367 20.38 39.84H20.39ZM27.64 39.84C27.6161 39.843 27.5939 39.8538 27.5767 39.8707C27.5595 39.8876 27.5484 39.9097 27.545 39.9336C27.5416 39.9574 27.5461 39.9817 27.5578 40.0028C27.5696 40.0238 27.5879 40.0404 27.61 40.05C27.6307 40.0576 27.6532 40.0588 27.6746 40.0535C27.696 40.0481 27.7153 40.0365 27.73 40.02C27.7445 40.0029 27.7534 39.9819 27.7556 39.9596C27.7578 39.9373 27.7532 39.9149 27.7423 39.8954C27.7315 39.8758 27.7149 39.8601 27.6948 39.8502C27.6748 39.8403 27.6521 39.8367 27.63 39.84H27.64ZM20.39 40.4C20.3756 40.398 20.3609 40.3989 20.3468 40.4026C20.3327 40.4063 20.3195 40.4128 20.3078 40.4216C20.2962 40.4304 20.2865 40.4415 20.2791 40.454C20.2718 40.4666 20.267 40.4806 20.265 40.495C20.263 40.5094 20.2639 40.5241 20.2677 40.5382C20.2714 40.5523 20.2778 40.5656 20.2866 40.5772C20.2955 40.5888 20.3065 40.5985 20.3191 40.6059C20.3317 40.6132 20.3456 40.618 20.36 40.62C20.3807 40.6276 20.4032 40.6288 20.4246 40.6235C20.446 40.6181 20.4653 40.6065 20.48 40.59C20.4988 40.5803 20.5144 40.5654 20.5249 40.5471C20.5354 40.5288 20.5404 40.5079 20.5394 40.4868C20.5383 40.4657 20.5312 40.4454 20.5189 40.4282C20.5066 40.411 20.4896 40.3978 20.47 40.39C20.44 40.37 20.41 40.38 20.38 40.39L20.39 40.4V40.4ZM27.64 40.4C27.6256 40.398 27.6109 40.3989 27.5968 40.4026C27.5827 40.4063 27.5695 40.4128 27.5578 40.4216C27.5462 40.4304 27.5365 40.4415 27.5291 40.454C27.5218 40.4666 27.517 40.4806 27.515 40.495C27.513 40.5094 27.5139 40.5241 27.5177 40.5382C27.5214 40.5523 27.5278 40.5656 27.5366 40.5772C27.5455 40.5888 27.5565 40.5985 27.5691 40.6059C27.5817 40.6132 27.5956 40.618 27.61 40.62C27.6307 40.6276 27.6532 40.6288 27.6746 40.6235C27.696 40.6181 27.7153 40.6065 27.73 40.59C27.7488 40.5803 27.7644 40.5654 27.7749 40.5471C27.7854 40.5288 27.7904 40.5079 27.7894 40.4868C27.7883 40.4657 27.7812 40.4454 27.7689 40.4282C27.7566 40.411 27.7396 40.3978 27.72 40.39C27.69 40.37 27.66 40.38 27.63 40.39L27.64 40.4V40.4ZM20.38 40.96C20.3526 40.9625 20.3271 40.9752 20.3086 40.9956C20.2901 41.0159 20.2799 41.0425 20.28 41.07C20.2785 41.0861 20.2805 41.1024 20.286 41.1177C20.2915 41.133 20.3003 41.1468 20.3117 41.1583C20.3232 41.1698 20.3371 41.1785 20.3523 41.184C20.3676 41.1895 20.3839 41.1915 20.4 41.19C20.4292 41.19 20.4572 41.1784 20.4778 41.1578C20.4984 41.1372 20.51 41.1092 20.51 41.08C20.51 41.0508 20.4984 41.0228 20.4778 41.0022C20.4572 40.9816 20.4292 40.97 20.4 40.97H20.38V40.96ZM27.63 40.96C27.6026 40.9625 27.5771 40.9752 27.5586 40.9956C27.5401 41.0159 27.5299 41.0425 27.53 41.07C27.5285 41.0861 27.5305 41.1024 27.536 41.1177C27.5415 41.133 27.5503 41.1468 27.5617 41.1583C27.5732 41.1698 27.5871 41.1785 27.6023 41.184C27.6176 41.1895 27.6339 41.1915 27.65 41.19C27.6792 41.19 27.7072 41.1784 27.7278 41.1578C27.7484 41.1372 27.76 41.1092 27.76 41.08C27.76 41.0508 27.7484 41.0228 27.7278 41.0022C27.7072 40.9816 27.6792 40.97 27.65 40.97H27.63V40.96ZM20.38 41.52C20.3576 41.5235 20.3368 41.5339 20.3205 41.5497C20.3042 41.5655 20.2932 41.586 20.2889 41.6083C20.2847 41.6306 20.2875 41.6537 20.297 41.6744C20.3064 41.695 20.322 41.7122 20.3416 41.7237C20.3612 41.7351 20.3839 41.7402 20.4065 41.7383C20.4292 41.7363 20.4506 41.7274 20.468 41.7127C20.4853 41.6981 20.4977 41.6784 20.5035 41.6564C20.5092 41.6345 20.508 41.6113 20.5 41.59C20.4921 41.5698 20.4784 41.5523 20.4606 41.5399C20.4428 41.5274 20.4217 41.5205 20.4 41.52H20.38ZM27.63 41.52C27.6076 41.5235 27.5868 41.5339 27.5705 41.5497C27.5542 41.5655 27.5432 41.586 27.5389 41.6083C27.5347 41.6306 27.5375 41.6537 27.547 41.6744C27.5564 41.695 27.572 41.7122 27.5916 41.7237C27.6112 41.7351 27.6339 41.7402 27.6565 41.7383C27.6792 41.7363 27.7006 41.7274 27.718 41.7127C27.7353 41.6981 27.7477 41.6784 27.7535 41.6564C27.7592 41.6345 27.758 41.6113 27.75 41.59C27.7421 41.5698 27.7284 41.5523 27.7106 41.5399C27.6928 41.5274 27.6717 41.5205 27.65 41.52H27.63ZM20.4 42.08C20.375 42.0761 20.3494 42.0809 20.3276 42.0937C20.3057 42.1064 20.2889 42.1263 20.28 42.15C20.2701 42.172 20.2676 42.1966 20.2731 42.2201C20.2785 42.2436 20.2915 42.2646 20.31 42.28C20.3218 42.2914 20.336 42.3 20.3516 42.3052C20.3672 42.3104 20.3837 42.312 20.4 42.31C20.4305 42.31 20.4598 42.2979 20.4813 42.2763C20.5029 42.2548 20.515 42.2255 20.515 42.195C20.515 42.1645 20.5029 42.1352 20.4813 42.1137C20.4598 42.0921 20.4305 42.08 20.4 42.08V42.08ZM27.65 42.08C27.625 42.0761 27.5994 42.0809 27.5776 42.0937C27.5557 42.1064 27.5389 42.1263 27.53 42.15C27.5201 42.172 27.5176 42.1966 27.5231 42.2201C27.5285 42.2436 27.5415 42.2646 27.56 42.28C27.5718 42.2914 27.586 42.3 27.6016 42.3052C27.6172 42.3104 27.6337 42.312 27.65 42.31C27.6805 42.31 27.7098 42.2979 27.7313 42.2763C27.7529 42.2548 27.765 42.2255 27.765 42.195C27.765 42.1645 27.7529 42.1352 27.7313 42.1137C27.7098 42.0921 27.6805 42.08 27.65 42.08V42.08ZM20.39 42.65C20.3625 42.654 20.3374 42.6683 20.32 42.69C20.3017 42.7087 20.2914 42.7338 20.2914 42.76C20.2914 42.7862 20.3017 42.8113 20.32 42.83C20.3303 42.8409 20.3427 42.8496 20.3565 42.8555C20.3702 42.8614 20.385 42.8645 20.4 42.8645C20.415 42.8645 20.4298 42.8614 20.4436 42.8555C20.4573 42.8496 20.4697 42.8409 20.48 42.83C20.4936 42.8136 20.5021 42.7935 20.5046 42.7724C20.507 42.7512 20.5032 42.7298 20.4937 42.7107C20.4841 42.6916 20.4692 42.6757 20.4508 42.6649C20.4324 42.6542 20.4113 42.649 20.39 42.65Z" fill="#333333"/>
</g>
<defs>
<clipPath id="clip0">
<rect width="48" height="48" fill="white"/>
</clipPath>
</defs>
</svg>
