<svg width="48" height="48" viewBox="0 0 48 48" fill="none" xmlns="http://www.w3.org/2000/svg">
<path d="M28.906 4.08205C23.986 4.06805 19.122 4.12505 14.146 4.12505C13.277 4.12505 12.58 4.82405 12.58 5.69305V42.554C12.58 43.424 13.277 44.124 14.146 44.124H33.852C34.721 44.124 35.42 43.424 35.42 42.554V5.69405C35.42 4.82405 34.721 4.12405 33.852 4.12405C32.2035 4.09983 30.5548 4.08583 28.906 4.08205ZM14.58 4.62505H33.418C34.249 4.62505 34.92 5.30605 34.92 6.15505V42.094C34.92 42.941 34.25 43.624 33.418 43.624H14.58C13.749 43.624 13.08 42.941 13.08 42.094V6.15405C13.08 5.30605 13.749 4.62405 14.58 4.62405V4.62505ZM20.367 5.06505C20.3377 5.0661 20.3099 5.07862 20.2897 5.09993C20.2695 5.12124 20.2585 5.14962 20.259 5.17898C20.2596 5.20833 20.2716 5.2363 20.2925 5.25688C20.3135 5.27745 20.3417 5.28898 20.371 5.28898C20.4004 5.28898 20.4286 5.27745 20.4495 5.25688C20.4704 5.2363 20.4825 5.20833 20.483 5.17898C20.4835 5.14962 20.4725 5.12124 20.4523 5.09993C20.4321 5.07862 20.4044 5.0661 20.375 5.06505H20.367ZM27.617 5.06505C27.5877 5.0661 27.5599 5.07862 27.5397 5.09993C27.5195 5.12124 27.5085 5.14962 27.509 5.17898C27.5096 5.20833 27.5216 5.2363 27.5425 5.25688C27.5635 5.27745 27.5917 5.28898 27.621 5.28898C27.6504 5.28898 27.6786 5.27745 27.6995 5.25688C27.7204 5.2363 27.7325 5.20833 27.733 5.17898C27.7335 5.14962 27.7225 5.12124 27.7023 5.09993C27.6821 5.07862 27.6544 5.0661 27.625 5.06505H27.617ZM16.795 5.46905C16.5803 5.46145 16.3662 5.49719 16.1656 5.57412C15.9649 5.65106 15.7819 5.76762 15.6273 5.91685C15.4727 6.06608 15.3497 6.24493 15.2657 6.44271C15.1817 6.6405 15.1385 6.85317 15.1385 7.06805C15.1385 7.28292 15.1817 7.4956 15.2657 7.69338C15.3497 7.89117 15.4727 8.07001 15.6273 8.21924C15.7819 8.36847 15.9649 8.48503 16.1656 8.56197C16.3662 8.63891 16.5803 8.67464 16.795 8.66705C17.2093 8.65239 17.6017 8.47751 17.8897 8.17924C18.1776 7.88097 18.3385 7.4826 18.3385 7.06805C18.3385 6.65349 18.1776 6.25512 17.8897 5.95685C17.6017 5.65858 17.2093 5.4837 16.795 5.46905ZM31.559 5.46905C31.3443 5.46145 31.1302 5.49719 30.9296 5.57412C30.7289 5.65106 30.5459 5.76762 30.3913 5.91685C30.2367 6.06608 30.1137 6.24493 30.0297 6.44271C29.9457 6.6405 29.9025 6.85317 29.9025 7.06805C29.9025 7.28292 29.9457 7.4956 30.0297 7.69338C30.1137 7.89117 30.2367 8.07001 30.3913 8.21924C30.5459 8.36847 30.7289 8.48503 30.9296 8.56197C31.1302 8.63891 31.3443 8.67464 31.559 8.66705C31.9733 8.65239 32.3657 8.47751 32.6537 8.17924C32.9416 7.88097 33.1025 7.4826 33.1025 7.06805C33.1025 6.65349 32.9416 6.25512 32.6537 5.95685C32.3657 5.65858 31.9733 5.4837 31.559 5.46905ZM20.367 5.62705C20.3377 5.6281 20.3099 5.64062 20.2897 5.66193C20.2695 5.68324 20.2585 5.71162 20.259 5.74098C20.2596 5.77033 20.2716 5.7983 20.2925 5.81888C20.3135 5.83945 20.3417 5.85098 20.371 5.85098C20.4004 5.85098 20.4286 5.83945 20.4495 5.81888C20.4704 5.7983 20.4825 5.77033 20.483 5.74098C20.4835 5.71162 20.4725 5.68324 20.4523 5.66193C20.4321 5.64062 20.4044 5.6281 20.375 5.62705H20.367ZM27.617 5.62705C27.5877 5.6281 27.5599 5.64062 27.5397 5.66193C27.5195 5.68324 27.5085 5.71162 27.509 5.74098C27.5096 5.77033 27.5216 5.7983 27.5425 5.81888C27.5635 5.83945 27.5917 5.85098 27.621 5.85098C27.6504 5.85098 27.6786 5.83945 27.6995 5.81888C27.7204 5.7983 27.7325 5.77033 27.733 5.74098C27.7335 5.71162 27.7225 5.68324 27.7023 5.66193C27.6821 5.64062 27.6544 5.6281 27.625 5.62705H27.617ZM16.795 5.93105C16.9444 5.93085 17.0924 5.96008 17.2304 6.01706C17.3685 6.07404 17.494 6.15767 17.5998 6.26315C17.7056 6.36864 17.7895 6.49393 17.8469 6.63186C17.9042 6.76979 17.9338 6.91767 17.934 7.06705C17.9342 7.21643 17.905 7.36438 17.848 7.50246C17.791 7.64055 17.7074 7.76605 17.6019 7.87182C17.4964 7.97759 17.3711 8.06154 17.2332 8.11889C17.0953 8.17623 16.9474 8.20585 16.798 8.20605C16.4963 8.20645 16.2068 8.08698 15.9932 7.87394C15.7796 7.6609 15.6594 7.37173 15.659 7.07005C15.6586 6.76836 15.7781 6.47888 15.9911 6.26527C16.2042 6.05167 16.4933 5.93145 16.795 5.93105ZM31.559 5.93105C31.8608 5.93105 32.1503 6.05094 32.3637 6.26436C32.5771 6.47778 32.697 6.76723 32.697 7.06905C32.697 7.37086 32.5771 7.66032 32.3637 7.87374C32.1503 8.08715 31.8608 8.20705 31.559 8.20705C31.2674 8.19207 30.9927 8.06569 30.7917 7.85401C30.5906 7.64233 30.4785 7.36151 30.4785 7.06955C30.4785 6.77758 30.5906 6.49677 30.7917 6.28508C30.9927 6.0734 31.2674 5.94703 31.559 5.93205V5.93105ZM20.357 6.18905C20.3359 6.1923 20.3161 6.20155 20.3 6.2157C20.2839 6.22985 20.2723 6.24831 20.2664 6.2689C20.2605 6.28948 20.2606 6.31132 20.2667 6.33184C20.2728 6.35235 20.2847 6.37068 20.301 6.38465C20.3172 6.39861 20.3371 6.40763 20.3583 6.41064C20.3795 6.41365 20.4011 6.41051 20.4206 6.40161C20.4401 6.39271 20.4566 6.37841 20.4682 6.36041C20.4798 6.34241 20.486 6.32146 20.486 6.30005C20.486 6.24005 20.436 6.19005 20.375 6.19005H20.357V6.18905ZM27.607 6.18905C27.5859 6.1923 27.5661 6.20155 27.55 6.2157C27.5339 6.22985 27.5223 6.24831 27.5164 6.2689C27.5105 6.28948 27.5106 6.31132 27.5167 6.33184C27.5228 6.35235 27.5347 6.37068 27.551 6.38465C27.5672 6.39861 27.5871 6.40763 27.6083 6.41064C27.6295 6.41365 27.6511 6.41051 27.6706 6.40161C27.6901 6.39271 27.7066 6.37841 27.7182 6.36041C27.7298 6.34241 27.736 6.32146 27.736 6.30005C27.736 6.24005 27.686 6.19005 27.625 6.19005H27.607V6.18905ZM20.377 6.74905C20.3622 6.74892 20.3475 6.75171 20.3337 6.75727C20.3199 6.76282 20.3074 6.77104 20.2968 6.78144C20.2862 6.79184 20.2778 6.80422 20.272 6.81788C20.2662 6.83154 20.2631 6.84621 20.263 6.86105C20.2629 6.87589 20.2657 6.89061 20.2712 6.90437C20.2768 6.91813 20.285 6.93066 20.2954 6.94124C20.3058 6.95183 20.3182 6.96026 20.3319 6.96606C20.3455 6.97186 20.3602 6.97492 20.375 6.97505C20.4049 6.97531 20.4336 6.96371 20.4549 6.9428C20.4761 6.92189 20.4883 6.89338 20.4885 6.86355C20.4888 6.83371 20.4772 6.80499 20.4563 6.7837C20.4354 6.76242 20.4069 6.75031 20.377 6.75005V6.74905ZM27.627 6.74905C27.6122 6.74892 27.5975 6.75171 27.5837 6.75727C27.5699 6.76282 27.5574 6.77104 27.5468 6.78144C27.5362 6.79184 27.5278 6.80422 27.522 6.81788C27.5162 6.83154 27.5131 6.84621 27.513 6.86105C27.5129 6.87589 27.5157 6.89061 27.5212 6.90437C27.5268 6.91813 27.535 6.93066 27.5454 6.94124C27.5558 6.95183 27.5682 6.96026 27.5819 6.96606C27.5955 6.97186 27.6102 6.97492 27.625 6.97505C27.6549 6.97531 27.6836 6.96371 27.7049 6.9428C27.7261 6.92189 27.7383 6.89338 27.7385 6.86355C27.7388 6.83371 27.7272 6.80499 27.7063 6.7837C27.6854 6.76242 27.6569 6.75031 27.627 6.75005V6.74905ZM20.367 7.31205C20.3377 7.3131 20.3099 7.32562 20.2897 7.34693C20.2695 7.36824 20.2585 7.39662 20.259 7.42598C20.2596 7.45533 20.2716 7.4833 20.2925 7.50388C20.3135 7.52445 20.3417 7.53598 20.371 7.53598C20.4004 7.53598 20.4286 7.52445 20.4495 7.50388C20.4704 7.4833 20.4825 7.45533 20.483 7.42598C20.4835 7.39662 20.4725 7.36824 20.4523 7.34693C20.4321 7.32562 20.4044 7.3131 20.375 7.31205H20.367ZM27.617 7.31205C27.5877 7.3131 27.5599 7.32562 27.5397 7.34693C27.5195 7.36824 27.5085 7.39662 27.509 7.42598C27.5096 7.45533 27.5216 7.4833 27.5425 7.50388C27.5635 7.52445 27.5917 7.53598 27.621 7.53598C27.6504 7.53598 27.6786 7.52445 27.6995 7.50388C27.7204 7.4833 27.7325 7.45533 27.733 7.42598C27.7335 7.39662 27.7225 7.36824 27.7023 7.34693C27.6821 7.32562 27.6544 7.3131 27.625 7.31205H27.617ZM24 7.40405C23.7866 7.39871 23.5743 7.43614 23.3755 7.51412C23.1768 7.5921 22.9957 7.70907 22.8429 7.85812C22.6901 8.00718 22.5686 8.18531 22.4857 8.38203C22.4027 8.57874 22.36 8.79007 22.36 9.00355C22.36 9.21703 22.4027 9.42835 22.4857 9.62507C22.5686 9.82178 22.6901 9.99992 22.8429 10.149C22.9957 10.298 23.1768 10.415 23.3755 10.493C23.5743 10.571 23.7866 10.6084 24 10.603C24.4173 10.5926 24.814 10.4195 25.1054 10.1207C25.3969 9.82186 25.56 9.42097 25.56 9.00355C25.56 8.58613 25.3969 8.18523 25.1054 7.88641C24.814 7.58758 24.4173 7.41448 24 7.40405ZM24 7.86705C24.1493 7.86685 24.2972 7.89606 24.4352 7.95302C24.5733 8.00998 24.6987 8.09357 24.8044 8.19901C24.9102 8.30445 24.9941 8.42968 25.0514 8.56755C25.1087 8.70542 25.1383 8.85323 25.1385 9.00255C25.1387 9.15186 25.1095 9.29975 25.0525 9.43777C24.9956 9.57579 24.912 9.70125 24.8066 9.80697C24.7011 9.91269 24.5759 9.9966 24.438 10.0539C24.3001 10.1112 24.1523 10.1409 24.003 10.141C23.7015 10.1414 23.4121 10.022 23.1986 9.80909C22.9851 9.59614 22.8649 9.3071 22.8645 9.00555C22.8641 8.704 22.9835 8.41464 23.1965 8.20113C23.4094 7.98762 23.6985 7.86745 24 7.86705ZM20.367 7.87305C20.3377 7.8741 20.3099 7.88662 20.2897 7.90793C20.2695 7.92924 20.2585 7.95762 20.259 7.98698C20.2596 8.01633 20.2716 8.0443 20.2925 8.06488C20.3135 8.08545 20.3417 8.09698 20.371 8.09698C20.4004 8.09698 20.4286 8.08545 20.4495 8.06488C20.4704 8.0443 20.4825 8.01633 20.483 7.98698C20.4835 7.95762 20.4725 7.92924 20.4523 7.90793C20.4321 7.88662 20.4044 7.8741 20.375 7.87305H20.367ZM27.617 7.87305C27.5877 7.8741 27.5599 7.88662 27.5397 7.90793C27.5195 7.92924 27.5085 7.95762 27.509 7.98698C27.5096 8.01633 27.5216 8.0443 27.5425 8.06488C27.5635 8.08545 27.5917 8.09698 27.621 8.09698C27.6504 8.09698 27.6786 8.08545 27.6995 8.06488C27.7204 8.0443 27.7325 8.01633 27.733 7.98698C27.7335 7.95762 27.7225 7.92924 27.7023 7.90793C27.6821 7.88662 27.6544 7.8741 27.625 7.87305H27.617ZM20.367 8.43505C20.3377 8.4361 20.3099 8.44862 20.2897 8.46993C20.2695 8.49124 20.2585 8.51962 20.259 8.54898C20.2596 8.57833 20.2716 8.6063 20.2925 8.62688C20.3135 8.64745 20.3417 8.65898 20.371 8.65898C20.4004 8.65898 20.4286 8.64745 20.4495 8.62688C20.4704 8.6063 20.4825 8.57833 20.483 8.54898C20.4835 8.51962 20.4725 8.49124 20.4523 8.46993C20.4321 8.44862 20.4044 8.4361 20.375 8.43505H20.367ZM27.617 8.43505C27.5877 8.4361 27.5599 8.44862 27.5397 8.46993C27.5195 8.49124 27.5085 8.51962 27.509 8.54898C27.5096 8.57833 27.5216 8.6063 27.5425 8.62688C27.5635 8.64745 27.5917 8.65898 27.621 8.65898C27.6504 8.65898 27.6786 8.64745 27.6995 8.62688C27.7204 8.6063 27.7325 8.57833 27.733 8.54898C27.7335 8.51962 27.7225 8.49124 27.7023 8.46993C27.6821 8.44862 27.6544 8.4361 27.625 8.43505H27.617ZM20.367 8.99805C20.3523 8.99897 20.3379 9.00277 20.3247 9.00925C20.3115 9.01573 20.2996 9.02475 20.2899 9.0358C20.2801 9.04685 20.2726 9.05971 20.2679 9.07365C20.2631 9.08759 20.2611 9.10234 20.262 9.11705C20.2629 9.13175 20.2667 9.14614 20.2732 9.15937C20.2797 9.17261 20.2887 9.18444 20.2998 9.19419C20.3108 9.20394 20.3237 9.21142 20.3376 9.2162C20.3516 9.22098 20.3663 9.22297 20.381 9.22205C20.4107 9.22019 20.4385 9.20661 20.4582 9.18429C20.4779 9.16198 20.4879 9.13275 20.486 9.10305C20.4842 9.07334 20.4706 9.04559 20.4483 9.0259C20.4259 9.00621 20.3967 8.99619 20.367 8.99805ZM27.617 8.99805C27.6023 8.99897 27.5879 9.00277 27.5747 9.00925C27.5615 9.01573 27.5496 9.02475 27.5399 9.0358C27.5301 9.04685 27.5226 9.05971 27.5179 9.07365C27.5131 9.08759 27.5111 9.10234 27.512 9.11705C27.5129 9.13175 27.5167 9.14614 27.5232 9.15937C27.5297 9.17261 27.5387 9.18444 27.5498 9.19419C27.5608 9.20394 27.5737 9.21142 27.5876 9.2162C27.6016 9.22098 27.6163 9.22297 27.631 9.22205C27.6607 9.22019 27.6885 9.20661 27.7082 9.18429C27.7279 9.16198 27.7379 9.13275 27.736 9.10305C27.7342 9.07334 27.7206 9.04559 27.6983 9.0259C27.6759 9.00621 27.6467 8.99619 27.617 8.99805ZM16.795 9.30505C16.3707 9.30505 15.9637 9.47362 15.6636 9.77368C15.3636 10.0737 15.195 10.4807 15.195 10.905C15.195 11.3294 15.3636 11.7364 15.6636 12.0364C15.9637 12.3365 16.3707 12.505 16.795 12.505C17.2096 12.4904 17.6023 12.3154 17.8903 12.0169C18.1784 11.7185 18.3394 11.3199 18.3394 10.905C18.3394 10.4902 18.1784 10.0916 17.8903 9.79315C17.6023 9.4947 17.2096 9.31971 16.795 9.30505ZM31.559 9.30505C31.1347 9.30505 30.7277 9.47362 30.4276 9.77368C30.1276 10.0737 29.959 10.4807 29.959 10.905C29.959 11.3294 30.1276 11.7364 30.4276 12.0364C30.7277 12.3365 31.1347 12.505 31.559 12.505C31.9736 12.4904 32.3663 12.3154 32.6543 12.0169C32.9424 11.7185 33.1034 11.3199 33.1034 10.905C33.1034 10.4902 32.9424 10.0916 32.6543 9.79315C32.3663 9.4947 31.9736 9.31971 31.559 9.30505ZM20.367 9.56005C20.3449 9.56142 20.3237 9.56925 20.3061 9.58256C20.2884 9.59587 20.275 9.61407 20.2676 9.63491C20.2602 9.65576 20.259 9.67832 20.2643 9.69981C20.2696 9.72129 20.2811 9.74076 20.2973 9.75578C20.3135 9.77081 20.3338 9.78073 20.3557 9.78433C20.3775 9.78792 20.3999 9.78503 20.4201 9.77601C20.4403 9.76698 20.4574 9.75223 20.4693 9.73357C20.4812 9.71491 20.4874 9.69317 20.487 9.67105C20.4868 9.65581 20.4834 9.64078 20.4772 9.62688C20.471 9.61298 20.4619 9.6005 20.4507 9.5902C20.4395 9.5799 20.4263 9.572 20.4119 9.56699C20.3975 9.56198 20.3822 9.55996 20.367 9.56105V9.56005ZM27.617 9.56005C27.5949 9.56142 27.5737 9.56925 27.5561 9.58256C27.5384 9.59587 27.525 9.61407 27.5176 9.63491C27.5102 9.65576 27.509 9.67832 27.5143 9.69981C27.5196 9.72129 27.5311 9.74076 27.5473 9.75578C27.5635 9.77081 27.5838 9.78073 27.6057 9.78433C27.6275 9.78792 27.6499 9.78503 27.6701 9.77601C27.6903 9.76698 27.7074 9.75223 27.7193 9.73357C27.7312 9.71491 27.7374 9.69317 27.737 9.67105C27.7368 9.65581 27.7334 9.64078 27.7272 9.62688C27.721 9.61298 27.7119 9.6005 27.7007 9.5902C27.6895 9.5799 27.6763 9.572 27.6619 9.56699C27.6475 9.56198 27.6322 9.55996 27.617 9.56105V9.56005ZM16.795 9.76505C16.9474 9.76053 17.0991 9.78664 17.2411 9.84182C17.3832 9.89701 17.5128 9.98014 17.6221 10.0863C17.7315 10.1925 17.8184 10.3195 17.8778 10.4599C17.9372 10.6003 17.9678 10.7511 17.9678 10.9035C17.9678 11.056 17.9372 11.2068 17.8778 11.3472C17.8184 11.4876 17.7315 11.6146 17.6221 11.7208C17.5128 11.827 17.3832 11.9101 17.2411 11.9653C17.0991 12.0205 16.9474 12.0466 16.795 12.042C16.4989 12.0333 16.2179 11.9095 16.0115 11.6969C15.8052 11.4844 15.6898 11.1998 15.6898 10.9035C15.6898 10.6073 15.8052 10.3227 16.0115 10.1102C16.2179 9.89762 16.4989 9.77382 16.795 9.76505ZM31.559 9.76505C31.8611 9.76505 32.1508 9.88505 32.3644 10.0987C32.578 10.3123 32.698 10.602 32.698 10.904C32.698 11.2061 32.578 11.4958 32.3644 11.7094C32.1508 11.923 31.8611 12.043 31.559 12.043C31.2629 12.0343 30.9819 11.9105 30.7755 11.6979C30.5692 11.4854 30.4538 11.2008 30.4538 10.9045C30.4538 10.6083 30.5692 10.3237 30.7755 10.1112C30.9819 9.89862 31.2629 9.77482 31.559 9.76605V9.76505ZM20.355 10.123C20.3286 10.1278 20.3048 10.1418 20.2878 10.1625C20.2707 10.1832 20.2616 10.2092 20.262 10.236C20.262 10.2658 20.2738 10.2942 20.2948 10.3152C20.3158 10.3362 20.3443 10.348 20.374 10.348C20.4037 10.348 20.4322 10.3362 20.4532 10.3152C20.4742 10.2942 20.486 10.2658 20.486 10.236C20.4858 10.2065 20.4741 10.1782 20.4533 10.1571C20.4326 10.136 20.4046 10.1238 20.375 10.123H20.355ZM27.605 10.123C27.5786 10.1278 27.5548 10.1418 27.5378 10.1625C27.5207 10.1832 27.5116 10.2092 27.512 10.236C27.512 10.2658 27.5238 10.2942 27.5448 10.3152C27.5658 10.3362 27.5943 10.348 27.624 10.348C27.6537 10.348 27.6822 10.3362 27.7032 10.3152C27.7242 10.2942 27.736 10.2658 27.736 10.236C27.7358 10.2065 27.7241 10.1782 27.7033 10.1571C27.6826 10.136 27.6546 10.1238 27.625 10.123H27.605ZM20.377 10.683C20.362 10.6832 20.3471 10.6863 20.3332 10.6922C20.3194 10.6981 20.3068 10.7067 20.2963 10.7175C20.2858 10.7283 20.2776 10.741 20.272 10.755C20.2665 10.769 20.2638 10.784 20.264 10.799C20.264 10.861 20.314 10.909 20.377 10.908C20.3915 10.9082 20.406 10.9054 20.4194 10.9C20.4329 10.8945 20.4451 10.8864 20.4554 10.8762C20.4658 10.866 20.474 10.8538 20.4795 10.8404C20.4851 10.827 20.488 10.8126 20.488 10.798C20.4883 10.7682 20.4768 10.7393 20.456 10.7178C20.4353 10.6963 20.4069 10.6838 20.377 10.683ZM27.627 10.683C27.612 10.6832 27.5971 10.6863 27.5832 10.6922C27.5694 10.6981 27.5568 10.7067 27.5463 10.7175C27.5358 10.7283 27.5276 10.741 27.522 10.755C27.5165 10.769 27.5138 10.784 27.514 10.799C27.514 10.861 27.564 10.909 27.627 10.908C27.6415 10.9082 27.656 10.9054 27.6694 10.9C27.6829 10.8945 27.6951 10.8864 27.7054 10.8762C27.7158 10.866 27.724 10.8538 27.7295 10.8404C27.7351 10.827 27.738 10.8126 27.738 10.798C27.7383 10.7682 27.7268 10.7393 27.706 10.7178C27.6853 10.6963 27.6569 10.6838 27.627 10.683ZM24 11.24C23.7866 11.2347 23.5743 11.2721 23.3755 11.3501C23.1768 11.4281 22.9957 11.5451 22.8429 11.6941C22.6901 11.8432 22.5686 12.0213 22.4857 12.218C22.4027 12.4147 22.36 12.6261 22.36 12.8395C22.36 13.053 22.4027 13.2644 22.4857 13.4611C22.5686 13.6578 22.6901 13.8359 22.8429 13.985C22.9957 14.134 23.1768 14.251 23.3755 14.329C23.5743 14.407 23.7866 14.4444 24 14.439C24.4173 14.4286 24.814 14.2555 25.1054 13.9567C25.3969 13.6579 25.56 13.257 25.56 12.8395C25.56 12.4221 25.3969 12.0212 25.1054 11.7224C24.814 11.4236 24.4173 11.2505 24 11.24ZM20.377 11.246C20.3622 11.2459 20.3476 11.2487 20.3339 11.2542C20.3202 11.2598 20.3077 11.2679 20.2972 11.2783C20.2866 11.2886 20.2782 11.301 20.2725 11.3146C20.2667 11.3282 20.2636 11.3428 20.2635 11.3575C20.2634 11.3723 20.2662 11.387 20.2717 11.4007C20.2772 11.4144 20.2854 11.4269 20.2958 11.4374C20.3061 11.4479 20.3184 11.4563 20.332 11.4621C20.3456 11.4679 20.3602 11.4709 20.375 11.471C20.4049 11.4713 20.4336 11.4597 20.4549 11.4388C20.4761 11.4179 20.4883 11.3894 20.4885 11.3595C20.4888 11.3297 20.4772 11.301 20.4563 11.2797C20.4354 11.2584 20.4069 11.2463 20.377 11.246ZM27.627 11.246C27.6122 11.2459 27.5976 11.2487 27.5839 11.2542C27.5702 11.2598 27.5577 11.2679 27.5472 11.2783C27.5366 11.2886 27.5282 11.301 27.5225 11.3146C27.5167 11.3282 27.5136 11.3428 27.5135 11.3575C27.5134 11.3723 27.5162 11.387 27.5217 11.4007C27.5272 11.4144 27.5354 11.4269 27.5458 11.4374C27.5561 11.4479 27.5684 11.4563 27.582 11.4621C27.5956 11.4679 27.6102 11.4709 27.625 11.471C27.6549 11.4713 27.6836 11.4597 27.7049 11.4388C27.7261 11.4179 27.7383 11.3894 27.7385 11.3595C27.7388 11.3297 27.7272 11.301 27.7063 11.2797C27.6854 11.2584 27.6569 11.2463 27.627 11.246ZM24 11.7C24.302 11.7 24.5915 11.82 24.8051 12.0335C25.0186 12.247 25.1385 12.5366 25.1385 12.8385C25.1385 13.1405 25.0186 13.4301 24.8051 13.6436C24.5915 13.8571 24.302 13.977 24 13.977C23.7039 13.9683 23.4229 13.8445 23.2165 13.6319C23.0102 13.4194 22.8948 13.1348 22.8948 12.8385C22.8948 12.5423 23.0102 12.2577 23.2165 12.0452C23.4229 11.8326 23.7039 11.7088 24 11.7ZM20.367 11.807C20.3387 11.8105 20.3127 11.8245 20.2942 11.8462C20.2757 11.8679 20.266 11.8957 20.267 11.9242C20.268 11.9527 20.2796 11.9798 20.2996 12.0001C20.3196 12.0205 20.3465 12.0326 20.375 12.034C20.436 12.034 20.485 11.982 20.486 11.921C20.4863 11.9056 20.4834 11.8902 20.4775 11.8759C20.4715 11.8616 20.4627 11.8487 20.4515 11.838C20.4403 11.8272 20.4271 11.819 20.4125 11.8136C20.398 11.8083 20.3825 11.8061 20.367 11.807ZM27.617 11.807C27.5887 11.8105 27.5627 11.8245 27.5442 11.8462C27.5257 11.8679 27.516 11.8957 27.517 11.9242C27.518 11.9527 27.5296 11.9798 27.5496 12.0001C27.5696 12.0205 27.5965 12.0326 27.625 12.034C27.686 12.034 27.735 11.982 27.736 11.921C27.7363 11.9056 27.7334 11.8902 27.7275 11.8759C27.7215 11.8616 27.7127 11.8487 27.7015 11.838C27.6903 11.8272 27.6771 11.819 27.6625 11.8136C27.648 11.8083 27.6325 11.8061 27.617 11.807ZM20.367 12.37C20.3387 12.3735 20.3127 12.3875 20.2942 12.4092C20.2757 12.4309 20.266 12.4587 20.267 12.4872C20.268 12.5157 20.2796 12.5428 20.2996 12.5631C20.3196 12.5835 20.3465 12.5956 20.375 12.597C20.436 12.596 20.485 12.544 20.486 12.483C20.4861 12.4683 20.4834 12.4537 20.4779 12.4401C20.4724 12.4265 20.4642 12.4141 20.4539 12.4036C20.4436 12.3931 20.4313 12.3847 20.4178 12.379C20.4043 12.3732 20.3897 12.3702 20.375 12.37H20.367ZM27.617 12.37C27.5887 12.3735 27.5627 12.3875 27.5442 12.4092C27.5257 12.4309 27.516 12.4587 27.517 12.4872C27.518 12.5157 27.5296 12.5428 27.5496 12.5631C27.5696 12.5835 27.5965 12.5956 27.625 12.597C27.686 12.596 27.735 12.544 27.736 12.483C27.7361 12.4683 27.7334 12.4537 27.7279 12.4401C27.7224 12.4265 27.7142 12.4141 27.7039 12.4036C27.6936 12.3931 27.6813 12.3847 27.6678 12.379C27.6543 12.3732 27.6397 12.3702 27.625 12.37H27.617ZM20.367 12.932C20.3377 12.9331 20.3099 12.9456 20.2897 12.9669C20.2695 12.9882 20.2585 13.0166 20.259 13.046C20.2596 13.0753 20.2716 13.1033 20.2925 13.1239C20.3135 13.1444 20.3417 13.156 20.371 13.156C20.4004 13.156 20.4286 13.1444 20.4495 13.1239C20.4704 13.1033 20.4825 13.0753 20.483 13.046C20.4835 13.0166 20.4725 12.9882 20.4523 12.9669C20.4321 12.9456 20.4044 12.9331 20.375 12.932H20.367ZM27.617 12.932C27.5877 12.9331 27.5599 12.9456 27.5397 12.9669C27.5195 12.9882 27.5085 13.0166 27.509 13.046C27.5096 13.0753 27.5216 13.1033 27.5425 13.1239C27.5635 13.1444 27.5917 13.156 27.621 13.156C27.6504 13.156 27.6786 13.1444 27.6995 13.1239C27.7204 13.1033 27.7325 13.0753 27.733 13.046C27.7335 13.0166 27.7225 12.9882 27.7023 12.9669C27.6821 12.9456 27.6544 12.9331 27.625 12.932H27.617ZM16.795 13.139C16.3707 13.139 15.9637 13.3076 15.6636 13.6077C15.3636 13.9077 15.195 14.3147 15.195 14.739C15.195 15.1634 15.3636 15.5704 15.6636 15.8704C15.9637 16.1705 16.3707 16.339 16.795 16.339C17.2194 16.339 17.6263 16.1705 17.9264 15.8704C18.2264 15.5704 18.395 15.1634 18.395 14.739C18.395 14.3147 18.2264 13.9077 17.9264 13.6077C17.6263 13.3076 17.2194 13.139 16.795 13.139ZM31.559 13.139C31.3489 13.139 31.1408 13.1803 30.9467 13.2606C30.7525 13.341 30.5761 13.4588 30.4275 13.6073C30.1273 13.9073 29.9587 14.3142 29.9585 14.7385C29.9584 15.1629 30.1268 15.5699 30.4268 15.8701C30.7268 16.1702 31.1337 16.3389 31.558 16.339C31.9824 16.339 32.3893 16.1705 32.6894 15.8704C32.9894 15.5704 33.158 15.1634 33.158 14.739C33.158 14.3147 32.9894 13.9077 32.6894 13.6077C32.3893 13.3076 31.9824 13.139 31.558 13.139H31.559ZM20.367 13.495C20.3377 13.4961 20.3099 13.5086 20.2897 13.5299C20.2695 13.5512 20.2585 13.5796 20.259 13.609C20.2596 13.6383 20.2716 13.6663 20.2925 13.6869C20.3135 13.7074 20.3417 13.719 20.371 13.719C20.4004 13.719 20.4286 13.7074 20.4495 13.6869C20.4704 13.6663 20.4825 13.6383 20.483 13.609C20.4835 13.5796 20.4725 13.5512 20.4523 13.5299C20.4321 13.5086 20.4044 13.4961 20.375 13.495H20.367ZM27.617 13.495C27.5877 13.4961 27.5599 13.5086 27.5397 13.5299C27.5195 13.5512 27.5085 13.5796 27.509 13.609C27.5096 13.6383 27.5216 13.6663 27.5425 13.6869C27.5635 13.7074 27.5917 13.719 27.621 13.719C27.6504 13.719 27.6786 13.7074 27.6995 13.6869C27.7204 13.6663 27.7325 13.6383 27.733 13.609C27.7335 13.5796 27.7225 13.5512 27.7023 13.5299C27.6821 13.5086 27.6544 13.4961 27.625 13.495H27.617ZM16.795 13.602C16.9444 13.6019 17.0924 13.6311 17.2304 13.6881C17.3685 13.745 17.494 13.8287 17.5998 13.9342C17.7056 14.0396 17.7895 14.1649 17.8469 14.3029C17.9042 14.4408 17.9338 14.5887 17.934 14.738C17.9342 14.8874 17.905 15.0354 17.848 15.1735C17.791 15.3115 17.7074 15.4371 17.6019 15.5428C17.4964 15.6486 17.3711 15.7325 17.2332 15.7899C17.0953 15.8472 16.9474 15.8769 16.798 15.877C16.4963 15.8774 16.2068 15.758 15.9932 15.5449C15.7796 15.3319 15.6594 15.0427 15.659 14.741C15.6586 14.4394 15.7781 14.1499 15.9911 13.9363C16.2042 13.7227 16.4933 13.6024 16.795 13.602ZM31.559 13.602C31.8608 13.602 32.1503 13.7219 32.3637 13.9354C32.5771 14.1488 32.697 14.4382 32.697 14.74C32.697 15.0419 32.5771 15.3313 32.3637 15.5447C32.1503 15.7582 31.8608 15.878 31.559 15.878C31.2674 15.8631 30.9927 15.7367 30.7917 15.525C30.5906 15.3133 30.4785 15.0325 30.4785 14.7405C30.4785 14.4486 30.5906 14.1678 30.7917 13.9561C30.9927 13.7444 31.2674 13.618 31.559 13.603V13.602ZM20.367 14.057C20.3522 14.058 20.3378 14.0618 20.3245 14.0683C20.3112 14.0748 20.2993 14.0839 20.2895 14.0949C20.2797 14.106 20.2722 14.119 20.2674 14.133C20.2626 14.147 20.2606 14.1618 20.2615 14.1765C20.2624 14.1913 20.2663 14.2058 20.2728 14.2191C20.2793 14.2324 20.2883 14.2443 20.2994 14.254C20.3105 14.2638 20.3234 14.2714 20.3374 14.2762C20.3514 14.281 20.3662 14.283 20.381 14.282C20.4109 14.2802 20.4387 14.2666 20.4585 14.2441C20.4783 14.2217 20.4884 14.1924 20.4865 14.1625C20.4847 14.1327 20.471 14.1048 20.4486 14.085C20.4262 14.0653 20.3969 14.0552 20.367 14.057ZM27.617 14.057C27.5872 14.0589 27.5593 14.0725 27.5395 14.0949C27.5197 14.1174 27.5097 14.1467 27.5115 14.1765C27.5134 14.2064 27.527 14.2343 27.5494 14.254C27.5718 14.2738 27.6012 14.2839 27.631 14.282C27.6458 14.2811 27.6602 14.2773 27.6735 14.2708C27.6868 14.2643 27.6987 14.2552 27.7085 14.2441C27.7183 14.2331 27.7258 14.2201 27.7306 14.2061C27.7354 14.1921 27.7374 14.1773 27.7365 14.1625C27.7356 14.1478 27.7318 14.1333 27.7253 14.12C27.7188 14.1067 27.7097 14.0948 27.6986 14.085C27.6875 14.0753 27.6746 14.0677 27.6606 14.0629C27.6466 14.0581 27.6318 14.0561 27.617 14.057ZM20.355 14.62C20.3288 14.6244 20.305 14.6379 20.2879 14.6583C20.2709 14.6787 20.2617 14.7045 20.262 14.731C20.2618 14.7532 20.2682 14.7749 20.2803 14.7934C20.2925 14.812 20.3098 14.8265 20.3302 14.8351C20.3506 14.8438 20.3731 14.8462 20.3949 14.8421C20.4166 14.838 20.4367 14.8275 20.4525 14.8119C20.4683 14.7964 20.4791 14.7766 20.4837 14.7549C20.4882 14.7332 20.4862 14.7107 20.4779 14.6901C20.4696 14.6696 20.4554 14.652 20.4371 14.6395C20.4188 14.627 20.3972 14.6202 20.375 14.62H20.355ZM27.605 14.62C27.5788 14.6244 27.555 14.6379 27.5379 14.6583C27.5209 14.6787 27.5117 14.7045 27.512 14.731C27.5118 14.7532 27.5182 14.7749 27.5303 14.7934C27.5425 14.812 27.5598 14.8265 27.5802 14.8351C27.6006 14.8438 27.6231 14.8462 27.6449 14.8421C27.6666 14.838 27.6867 14.8275 27.7025 14.8119C27.7183 14.7964 27.7291 14.7766 27.7337 14.7549C27.7382 14.7332 27.7362 14.7107 27.7279 14.6901C27.7196 14.6696 27.7054 14.652 27.6871 14.6395C27.6688 14.627 27.6472 14.6202 27.625 14.62H27.605ZM24 15.076C23.7866 15.0707 23.5743 15.1081 23.3755 15.1861C23.1768 15.2641 22.9957 15.3811 22.8429 15.5301C22.6901 15.6792 22.5686 15.8573 22.4857 16.054C22.4027 16.2507 22.36 16.4621 22.36 16.6755C22.36 16.889 22.4027 17.1004 22.4857 17.2971C22.5686 17.4938 22.6901 17.6719 22.8429 17.821C22.9957 17.97 23.1768 18.087 23.3755 18.165C23.5743 18.243 23.7866 18.2804 24 18.275C24.4173 18.2646 24.814 18.0915 25.1054 17.7927C25.3969 17.4939 25.56 17.093 25.56 16.6755C25.56 16.2581 25.3969 15.8572 25.1054 15.5584C24.814 15.2596 24.4173 15.0865 24 15.076ZM20.355 15.183C20.3339 15.1865 20.3143 15.1959 20.2983 15.2101C20.2824 15.2244 20.2709 15.2429 20.2652 15.2634C20.2594 15.284 20.2597 15.3058 20.2659 15.3262C20.2721 15.3467 20.284 15.3649 20.3003 15.3788C20.3165 15.3926 20.3364 15.4016 20.3576 15.4045C20.3787 15.4075 20.4003 15.4043 20.4197 15.3954C20.4391 15.3865 20.4556 15.3722 20.4672 15.3543C20.4787 15.3363 20.4849 15.3154 20.485 15.294C20.485 15.234 20.436 15.184 20.375 15.184H20.355V15.183ZM27.605 15.183C27.5839 15.1865 27.5643 15.1959 27.5483 15.2101C27.5324 15.2244 27.5209 15.2429 27.5152 15.2634C27.5094 15.284 27.5097 15.3058 27.5159 15.3262C27.5221 15.3467 27.534 15.3649 27.5503 15.3788C27.5665 15.3926 27.5864 15.4016 27.6076 15.4045C27.6287 15.4075 27.6503 15.4043 27.6697 15.3954C27.6891 15.3865 27.7056 15.3722 27.7172 15.3543C27.7287 15.3363 27.7349 15.3154 27.735 15.294C27.735 15.234 27.686 15.184 27.625 15.184H27.605V15.183ZM24 15.54C24.1493 15.5399 24.2972 15.5691 24.4352 15.626C24.5733 15.683 24.6987 15.7666 24.8044 15.872C24.9102 15.9774 24.9941 16.1027 25.0514 16.2406C25.1087 16.3784 25.1383 16.5262 25.1385 16.6755C25.1387 16.8249 25.1095 16.9728 25.0525 17.1108C24.9956 17.2488 24.912 17.3742 24.8066 17.48C24.7011 17.5857 24.5759 17.6696 24.438 17.7269C24.3001 17.7842 24.1523 17.8138 24.003 17.814C23.7015 17.8144 23.4121 17.695 23.1986 17.4821C22.9851 17.2691 22.8649 16.9801 22.8645 16.6785C22.8641 16.377 22.9835 16.0876 23.1965 15.8741C23.4094 15.6606 23.6985 15.5404 24 15.54ZM20.377 15.745C20.3622 15.7449 20.3476 15.7477 20.3339 15.7532C20.3202 15.7588 20.3077 15.7669 20.2972 15.7773C20.2866 15.7876 20.2782 15.8 20.2725 15.8136C20.2667 15.8272 20.2636 15.8418 20.2635 15.8565C20.2634 15.8713 20.2662 15.886 20.2717 15.8997C20.2772 15.9134 20.2854 15.9259 20.2958 15.9364C20.3061 15.9469 20.3184 15.9553 20.332 15.9611C20.3456 15.9669 20.3602 15.9699 20.375 15.97C20.4049 15.9703 20.4336 15.9587 20.4549 15.9378C20.4761 15.9169 20.4883 15.8884 20.4885 15.8585C20.4888 15.8287 20.4772 15.8 20.4563 15.7787C20.4354 15.7574 20.4069 15.7453 20.377 15.745ZM27.627 15.745C27.6122 15.7449 27.5976 15.7477 27.5839 15.7532C27.5702 15.7588 27.5577 15.7669 27.5472 15.7773C27.5259 15.7982 27.5138 15.8267 27.5135 15.8565C27.5133 15.8864 27.5249 15.9151 27.5458 15.9364C27.5667 15.9577 27.5952 15.9698 27.625 15.97C27.6549 15.9703 27.6836 15.9587 27.7049 15.9378C27.7261 15.9169 27.7383 15.8884 27.7385 15.8585C27.7388 15.8287 27.7272 15.8 27.7063 15.7787C27.6854 15.7574 27.6569 15.7453 27.627 15.745ZM20.367 16.308C20.3384 16.3098 20.3115 16.3226 20.292 16.3436C20.2724 16.3646 20.2617 16.3923 20.262 16.421C20.262 16.483 20.312 16.533 20.375 16.532C20.3897 16.5315 20.4042 16.5281 20.4176 16.522C20.431 16.5159 20.443 16.5072 20.453 16.4964C20.4631 16.4856 20.4709 16.473 20.476 16.4592C20.4812 16.4454 20.4835 16.4308 20.483 16.416C20.4825 16.4013 20.4791 16.3869 20.473 16.3735C20.4668 16.3601 20.4582 16.3481 20.4474 16.338C20.4366 16.328 20.424 16.3202 20.4102 16.315C20.3964 16.3099 20.3817 16.3075 20.367 16.308ZM27.617 16.308C27.5884 16.3098 27.5615 16.3226 27.542 16.3436C27.5224 16.3646 27.5117 16.3923 27.512 16.421C27.512 16.483 27.562 16.533 27.625 16.532C27.6397 16.5315 27.6542 16.5281 27.6676 16.522C27.681 16.5159 27.693 16.5072 27.703 16.4964C27.7131 16.4856 27.7209 16.473 27.726 16.4592C27.7312 16.4454 27.7335 16.4308 27.733 16.416C27.7325 16.4013 27.7291 16.3869 27.723 16.3735C27.7168 16.3601 27.7082 16.3481 27.6974 16.338C27.6866 16.328 27.674 16.3202 27.6602 16.315C27.6464 16.3099 27.6317 16.3075 27.617 16.308ZM20.367 16.87C20.3377 16.8711 20.3099 16.8836 20.2897 16.9049C20.2695 16.9262 20.2585 16.9546 20.259 16.984C20.2596 17.0133 20.2716 17.0413 20.2925 17.0619C20.3135 17.0824 20.3417 17.094 20.371 17.094C20.4004 17.094 20.4286 17.0824 20.4495 17.0619C20.4704 17.0413 20.4825 17.0133 20.483 16.984C20.4835 16.9546 20.4725 16.9262 20.4523 16.9049C20.4321 16.8836 20.4044 16.8711 20.375 16.87C20.3724 16.8699 20.3697 16.8699 20.367 16.87ZM27.617 16.87C27.5877 16.8711 27.5599 16.8836 27.5397 16.9049C27.5195 16.9262 27.5085 16.9546 27.509 16.984C27.5096 17.0133 27.5216 17.0413 27.5425 17.0619C27.5635 17.0824 27.5917 17.094 27.621 17.094C27.6504 17.094 27.6786 17.0824 27.6995 17.0619C27.7204 17.0413 27.7325 17.0133 27.733 16.984C27.7335 16.9546 27.7225 16.9262 27.7023 16.9049C27.6821 16.8836 27.6544 16.8711 27.625 16.87C27.6224 16.8699 27.6197 16.8699 27.617 16.87ZM16.795 16.977C16.5849 16.977 16.3768 17.0184 16.1827 17.0988C15.9886 17.1792 15.8122 17.2971 15.6636 17.4457C15.5151 17.5943 15.3972 17.7706 15.3168 17.9648C15.2364 18.1589 15.195 18.3669 15.195 18.577C15.195 18.7872 15.2364 18.9952 15.3168 19.1893C15.3972 19.3835 15.5151 19.5598 15.6636 19.7084C15.8122 19.857 15.9886 19.9748 16.1827 20.0553C16.3768 20.1357 16.5849 20.177 16.795 20.177C17.2194 20.177 17.6263 20.0085 17.9264 19.7084C18.2264 19.4084 18.395 19.0014 18.395 18.577C18.395 18.1527 18.2264 17.7457 17.9264 17.4457C17.6263 17.1456 17.2194 16.977 16.795 16.977ZM31.559 16.977C31.3489 16.977 31.1408 17.0184 30.9467 17.0988C30.7526 17.1792 30.5762 17.2971 30.4276 17.4457C30.2791 17.5943 30.1612 17.7706 30.0808 17.9648C30.0004 18.1589 29.959 18.3669 29.959 18.577C29.959 18.7872 30.0004 18.9952 30.0808 19.1893C30.1612 19.3835 30.2791 19.5598 30.4276 19.7084C30.5762 19.857 30.7526 19.9748 30.9467 20.0553C31.1408 20.1357 31.3489 20.177 31.559 20.177C31.9834 20.177 32.3903 20.0085 32.6904 19.7084C32.9904 19.4084 33.159 19.0014 33.159 18.577C33.159 18.1527 32.9904 17.7457 32.6904 17.4457C32.3903 17.1456 31.9834 16.977 31.559 16.977ZM20.367 17.433C20.3373 17.4349 20.3096 17.4485 20.2899 17.4708C20.2702 17.4931 20.2602 17.5223 20.262 17.552C20.2639 17.5818 20.2775 17.6095 20.2998 17.6292C20.3221 17.6489 20.3513 17.6589 20.381 17.657C20.3957 17.6561 20.4101 17.6523 20.4233 17.6458C20.4366 17.6394 20.4484 17.6303 20.4582 17.6193C20.4679 17.6082 20.4754 17.5954 20.4802 17.5814C20.485 17.5675 20.4869 17.5528 20.486 17.538C20.4851 17.5233 20.4813 17.509 20.4748 17.4957C20.4683 17.4825 20.4593 17.4707 20.4483 17.4609C20.4372 17.4512 20.4244 17.4437 20.4104 17.4389C20.3965 17.4341 20.3817 17.4321 20.367 17.433ZM27.617 17.433C27.5873 17.4349 27.5596 17.4485 27.5399 17.4708C27.5202 17.4931 27.5102 17.5223 27.512 17.552C27.5139 17.5818 27.5275 17.6095 27.5498 17.6292C27.5721 17.6489 27.6013 17.6589 27.631 17.657C27.6457 17.6561 27.6601 17.6523 27.6733 17.6458C27.6866 17.6394 27.6984 17.6303 27.7082 17.6193C27.7179 17.6082 27.7254 17.5954 27.7302 17.5814C27.735 17.5675 27.7369 17.5528 27.736 17.538C27.7351 17.5233 27.7313 17.509 27.7248 17.4957C27.7183 17.4825 27.7093 17.4707 27.6983 17.4609C27.6872 17.4512 27.6743 17.4437 27.6604 17.4389C27.6465 17.4341 27.6317 17.4321 27.617 17.433ZM16.795 17.438C17.0971 17.438 17.3868 17.558 17.6004 17.7717C17.814 17.9853 17.934 18.275 17.934 18.577C17.934 18.8791 17.814 19.1688 17.6004 19.3824C17.3868 19.596 17.0971 19.716 16.795 19.716C16.4929 19.716 16.2032 19.596 15.9896 19.3824C15.776 19.1688 15.656 18.8791 15.656 18.577C15.656 18.275 15.776 17.9853 15.9896 17.7717C16.2032 17.558 16.4929 17.438 16.795 17.438ZM31.559 17.438C31.8611 17.438 32.1508 17.558 32.3644 17.7717C32.578 17.9853 32.698 18.275 32.698 18.577C32.698 18.8791 32.578 19.1688 32.3644 19.3824C32.1508 19.596 31.8611 19.716 31.559 19.716C31.2629 19.7073 30.9819 19.5835 30.7755 19.3709C30.5692 19.1584 30.4538 18.8738 30.4538 18.5775C30.4538 18.2813 30.5692 17.9967 30.7755 17.7842C30.9819 17.5716 31.2629 17.4478 31.559 17.439V17.438ZM20.367 17.995C20.3523 17.996 20.3379 17.9998 20.3247 18.0063C20.3115 18.0127 20.2996 18.0218 20.2899 18.0328C20.2801 18.0439 20.2726 18.0567 20.2679 18.0707C20.2631 18.0846 20.2611 18.0993 20.262 18.114C20.2629 18.1288 20.2667 18.1431 20.2732 18.1564C20.2797 18.1696 20.2887 18.1814 20.2998 18.1912C20.3108 18.2009 20.3237 18.2084 20.3376 18.2132C20.3516 18.218 20.3663 18.22 20.381 18.219C20.4107 18.2172 20.4385 18.2036 20.4582 18.1813C20.4779 18.159 20.4879 18.1298 20.486 18.1C20.4842 18.0703 20.4706 18.0426 20.4483 18.0229C20.4259 18.0032 20.3967 17.9932 20.367 17.995ZM27.617 17.995C27.6023 17.996 27.5879 17.9998 27.5747 18.0063C27.5615 18.0127 27.5496 18.0218 27.5399 18.0328C27.5301 18.0439 27.5226 18.0567 27.5179 18.0707C27.5131 18.0846 27.5111 18.0993 27.512 18.114C27.5129 18.1288 27.5167 18.1431 27.5232 18.1564C27.5297 18.1696 27.5387 18.1814 27.5498 18.1912C27.5608 18.2009 27.5737 18.2084 27.5876 18.2132C27.6016 18.218 27.6163 18.22 27.631 18.219C27.6607 18.2172 27.6885 18.2036 27.7082 18.1813C27.7279 18.159 27.7379 18.1298 27.736 18.1C27.7342 18.0703 27.7206 18.0426 27.6983 18.0229C27.6759 18.0032 27.6467 17.9932 27.617 17.995ZM20.367 18.558C20.3523 18.559 20.3379 18.5628 20.3247 18.5693C20.3115 18.5757 20.2996 18.5848 20.2899 18.5958C20.2801 18.6069 20.2726 18.6197 20.2679 18.6337C20.2631 18.6476 20.2611 18.6623 20.262 18.677C20.2629 18.6918 20.2667 18.7061 20.2732 18.7194C20.2797 18.7326 20.2887 18.7444 20.2998 18.7542C20.3108 18.7639 20.3237 18.7714 20.3376 18.7762C20.3516 18.781 20.3663 18.783 20.381 18.782C20.4107 18.7802 20.4385 18.7666 20.4582 18.7443C20.4779 18.722 20.4879 18.6928 20.486 18.663C20.4842 18.6333 20.4706 18.6056 20.4483 18.5859C20.4259 18.5662 20.3967 18.5562 20.367 18.558ZM27.617 18.558C27.5873 18.5599 27.5596 18.5735 27.5399 18.5958C27.5202 18.6181 27.5102 18.6473 27.512 18.677C27.5139 18.7068 27.5275 18.7345 27.5498 18.7542C27.5721 18.7739 27.6013 18.7839 27.631 18.782C27.6457 18.7811 27.6601 18.7773 27.6733 18.7708C27.6866 18.7644 27.6984 18.7553 27.7082 18.7443C27.7179 18.7332 27.7254 18.7204 27.7302 18.7064C27.735 18.6925 27.7369 18.6778 27.736 18.663C27.7351 18.6483 27.7313 18.634 27.7248 18.6207C27.7183 18.6075 27.7093 18.5957 27.6983 18.5859C27.6872 18.5762 27.6743 18.5687 27.6604 18.5639C27.6465 18.5591 27.6317 18.5571 27.617 18.558ZM24 18.912C23.7866 18.9067 23.5743 18.9441 23.3755 19.0221C23.1768 19.1001 22.9957 19.2171 22.8429 19.3661C22.6901 19.5152 22.5686 19.6933 22.4857 19.89C22.4027 20.0867 22.36 20.2981 22.36 20.5115C22.36 20.725 22.4027 20.9364 22.4857 21.1331C22.5686 21.3298 22.6901 21.5079 22.8429 21.657C22.9957 21.806 23.1768 21.923 23.3755 22.001C23.5743 22.079 23.7866 22.1164 24 22.111C24.4244 22.111 24.8313 21.9425 25.1314 21.6424C25.4314 21.3424 25.6 20.9354 25.6 20.511C25.6 20.0867 25.4314 19.6797 25.1314 19.3797C24.8313 19.0796 24.4244 18.911 24 18.911V18.912ZM20.355 19.119C20.3287 19.1232 20.3048 19.1367 20.2877 19.1571C20.2706 19.1775 20.2615 19.2034 20.262 19.23C20.2616 19.2525 20.2679 19.2745 20.2801 19.2934C20.2923 19.3122 20.3098 19.327 20.3304 19.3359C20.351 19.3447 20.3738 19.3472 20.3958 19.3431C20.4179 19.339 20.4382 19.3284 20.4542 19.3127C20.4702 19.2969 20.4812 19.2768 20.4857 19.2548C20.4902 19.2329 20.4881 19.21 20.4796 19.1893C20.4711 19.1685 20.4566 19.1507 20.438 19.1382C20.4194 19.1257 20.3975 19.1191 20.375 19.119H20.355ZM27.605 19.119C27.5787 19.1232 27.5548 19.1367 27.5377 19.1571C27.5206 19.1775 27.5115 19.2034 27.512 19.23C27.5116 19.2525 27.5179 19.2745 27.5301 19.2934C27.5423 19.3122 27.5598 19.327 27.5804 19.3359C27.601 19.3447 27.6238 19.3472 27.6458 19.3431C27.6679 19.339 27.6882 19.3284 27.7042 19.3127C27.7202 19.2969 27.7312 19.2768 27.7357 19.2548C27.7402 19.2329 27.7381 19.21 27.7296 19.1893C27.7211 19.1685 27.7066 19.1507 27.688 19.1382C27.6694 19.1257 27.6475 19.1191 27.625 19.119H27.605ZM24 19.373C24.302 19.373 24.5915 19.493 24.8051 19.7065C25.0186 19.92 25.1385 20.2096 25.1385 20.5115C25.1385 20.8135 25.0186 21.1031 24.8051 21.3166C24.5915 21.5301 24.302 21.65 24 21.65C23.7039 21.6413 23.4229 21.5175 23.2165 21.3049C23.0102 21.0924 22.8948 20.8078 22.8948 20.5115C22.8948 20.2153 23.0102 19.9307 23.2165 19.7182C23.4229 19.5056 23.7039 19.3818 24 19.373ZM20.377 19.679C20.3472 19.6788 20.3185 19.6904 20.2972 19.7113C20.2759 19.7322 20.2638 19.7607 20.2635 19.7905C20.2633 19.8204 20.2749 19.8491 20.2958 19.8704C20.3167 19.8917 20.3452 19.9038 20.375 19.904C20.4047 19.9043 20.4333 19.8928 20.4545 19.872C20.4757 19.8511 20.4878 19.8228 20.488 19.793C20.4883 19.7633 20.4767 19.7347 20.4559 19.7136C20.4351 19.6924 20.4067 19.6803 20.377 19.68V19.679ZM27.627 19.679C27.5972 19.6788 27.5685 19.6904 27.5472 19.7113C27.5259 19.7322 27.5138 19.7607 27.5135 19.7905C27.5133 19.8204 27.5249 19.8491 27.5458 19.8704C27.5667 19.8917 27.5952 19.9038 27.625 19.904C27.6547 19.9043 27.6833 19.8928 27.7045 19.872C27.7257 19.8511 27.7378 19.8228 27.738 19.793C27.7383 19.7633 27.7267 19.7347 27.7059 19.7136C27.6851 19.6924 27.6567 19.6803 27.627 19.68V19.679ZM20.367 20.242C20.3384 20.2438 20.3115 20.2566 20.292 20.2776C20.2724 20.2986 20.2617 20.3263 20.262 20.355C20.2622 20.3771 20.2689 20.3986 20.2813 20.4169C20.2937 20.4352 20.3112 20.4494 20.3316 20.4577C20.352 20.4661 20.3745 20.4682 20.3961 20.4638C20.4177 20.4595 20.4376 20.4488 20.4532 20.4332C20.4688 20.4176 20.4795 20.3978 20.4838 20.3761C20.4882 20.3545 20.486 20.3321 20.4777 20.3116C20.4693 20.2912 20.4551 20.2737 20.4369 20.2613C20.4186 20.249 20.3971 20.2422 20.375 20.242H20.367ZM27.617 20.242C27.5884 20.2438 27.5615 20.2566 27.542 20.2776C27.5224 20.2986 27.5117 20.3263 27.512 20.355C27.5122 20.3771 27.5189 20.3986 27.5313 20.4169C27.5437 20.4352 27.5612 20.4494 27.5816 20.4577C27.602 20.4661 27.6245 20.4682 27.6461 20.4638C27.6677 20.4595 27.6876 20.4488 27.7032 20.4332C27.7188 20.4176 27.7295 20.3978 27.7338 20.3761C27.7382 20.3545 27.736 20.3321 27.7277 20.3116C27.7193 20.2912 27.7051 20.2737 27.6869 20.2613C27.6686 20.249 27.6471 20.2422 27.625 20.242H27.617ZM20.367 20.805C20.3384 20.8068 20.3115 20.8196 20.292 20.8406C20.2724 20.8616 20.2617 20.8893 20.262 20.918C20.262 20.98 20.312 21.03 20.375 21.029C20.436 21.029 20.485 20.979 20.486 20.918C20.4861 20.9033 20.4834 20.8888 20.4779 20.8751C20.4724 20.8615 20.4642 20.8491 20.4539 20.8386C20.4436 20.8281 20.4313 20.8197 20.4178 20.814C20.4043 20.8082 20.3897 20.8052 20.375 20.805H20.367ZM27.617 20.805C27.5884 20.8068 27.5615 20.8196 27.542 20.8406C27.5224 20.8616 27.5117 20.8893 27.512 20.918C27.512 20.98 27.562 21.03 27.625 21.029C27.686 21.029 27.735 20.979 27.736 20.918C27.7361 20.9033 27.7334 20.8888 27.7279 20.8751C27.7224 20.8615 27.7142 20.8491 27.7039 20.8386C27.6936 20.8281 27.6813 20.8197 27.6678 20.814C27.6543 20.8082 27.6397 20.8052 27.625 20.805H27.617ZM16.795 20.812C16.3707 20.812 15.9637 20.9806 15.6636 21.2807C15.3636 21.5807 15.195 21.9877 15.195 22.412C15.195 22.8364 15.3636 23.2434 15.6636 23.5434C15.9637 23.8435 16.3707 24.012 16.795 24.012C17.2194 24.012 17.6263 23.8435 17.9264 23.5434C18.2264 23.2434 18.395 22.8364 18.395 22.412C18.395 21.9877 18.2264 21.5807 17.9264 21.2807C17.6263 20.9806 17.2194 20.812 16.795 20.812ZM31.559 20.812C31.1347 20.812 30.7277 20.9806 30.4276 21.2807C30.1276 21.5807 29.959 21.9877 29.959 22.412C29.959 22.8364 30.1276 23.2434 30.4276 23.5434C30.7277 23.8435 31.1347 24.012 31.559 24.012C31.9834 24.012 32.3903 23.8435 32.6904 23.5434C32.9904 23.2434 33.159 22.8364 33.159 22.412C33.159 21.9877 32.9904 21.5807 32.6904 21.2807C32.3903 20.9806 31.9834 20.812 31.559 20.812ZM16.795 21.275C17.0967 21.2746 17.3862 21.3941 17.5998 21.6072C17.8134 21.8202 17.9336 22.1094 17.934 22.411C17.9344 22.7127 17.815 23.0022 17.6019 23.2158C17.3889 23.4294 17.0997 23.5496 16.798 23.55C16.6486 23.5502 16.5007 23.521 16.3626 23.464C16.2245 23.4071 16.099 23.3234 15.9932 23.2179C15.8875 23.1125 15.8035 22.9872 15.7462 22.8492C15.6888 22.7113 15.6592 22.5634 15.659 22.414C15.6588 22.2647 15.688 22.1167 15.745 21.9786C15.802 21.8405 15.8856 21.715 15.9911 21.6093C16.0966 21.5035 16.2219 21.4196 16.3598 21.3622C16.4978 21.3049 16.6456 21.2752 16.795 21.275ZM31.559 21.275C31.8608 21.275 32.1503 21.3949 32.3637 21.6084C32.5771 21.8218 32.697 22.1112 32.697 22.413C32.697 22.7149 32.5771 23.0043 32.3637 23.2177C32.1503 23.4312 31.8608 23.551 31.559 23.551C31.2655 23.5387 30.988 23.4135 30.7846 23.2014C30.5813 22.9893 30.4677 22.7069 30.4677 22.413C30.4677 22.1192 30.5813 21.8368 30.7846 21.6247C30.988 21.4126 31.2655 21.2874 31.559 21.275ZM20.367 21.367C20.3384 21.3688 20.3115 21.3816 20.292 21.4026C20.2724 21.4236 20.2617 21.4513 20.262 21.48C20.262 21.5099 20.2739 21.5385 20.295 21.5596C20.3161 21.5807 20.3447 21.5925 20.3745 21.5925C20.4044 21.5925 20.433 21.5807 20.4541 21.5596C20.4752 21.5385 20.487 21.5099 20.487 21.48C20.4871 21.4653 20.4844 21.4506 20.4788 21.4369C20.4732 21.4232 20.465 21.4107 20.4546 21.4002C20.4442 21.3897 20.4318 21.3814 20.4181 21.3757C20.4045 21.37 20.3898 21.367 20.375 21.367H20.367ZM27.617 21.367C27.5884 21.3688 27.5615 21.3816 27.542 21.4026C27.5224 21.4236 27.5117 21.4513 27.512 21.48C27.512 21.5099 27.5239 21.5385 27.545 21.5596C27.5661 21.5807 27.5947 21.5925 27.6245 21.5925C27.6544 21.5925 27.683 21.5807 27.7041 21.5596C27.7252 21.5385 27.737 21.5099 27.737 21.48C27.7371 21.4653 27.7344 21.4506 27.7288 21.4369C27.7232 21.4232 27.715 21.4107 27.7046 21.4002C27.6942 21.3897 27.6818 21.3814 27.6681 21.3757C27.6545 21.37 27.6398 21.367 27.625 21.367H27.617ZM20.367 21.93C20.3373 21.9319 20.3096 21.9455 20.2899 21.9678C20.2702 21.9901 20.2602 22.0193 20.262 22.049C20.2639 22.0788 20.2775 22.1065 20.2998 22.1262C20.3221 22.1459 20.3513 22.1559 20.381 22.154C20.3957 22.1531 20.4101 22.1493 20.4233 22.1428C20.4366 22.1364 20.4484 22.1273 20.4582 22.1163C20.4679 22.1052 20.4754 22.0924 20.4802 22.0784C20.485 22.0645 20.4869 22.0498 20.486 22.035C20.4851 22.0203 20.4813 22.006 20.4748 21.9927C20.4683 21.9795 20.4593 21.9677 20.4483 21.9579C20.4372 21.9482 20.4244 21.9407 20.4104 21.9359C20.3965 21.9311 20.3817 21.9291 20.367 21.93ZM27.617 21.93C27.5873 21.9319 27.5596 21.9455 27.5399 21.9678C27.5202 21.9901 27.5102 22.0193 27.512 22.049C27.5139 22.0788 27.5275 22.1065 27.5498 22.1262C27.5721 22.1459 27.6013 22.1559 27.631 22.154C27.6457 22.1531 27.6601 22.1493 27.6733 22.1428C27.6866 22.1364 27.6984 22.1273 27.7082 22.1163C27.7179 22.1052 27.7254 22.0924 27.7302 22.0784C27.735 22.0645 27.7369 22.0498 27.736 22.035C27.7351 22.0203 27.7313 22.006 27.7248 21.9927C27.7183 21.9795 27.7093 21.9677 27.6983 21.9579C27.6872 21.9482 27.6743 21.9407 27.6604 21.9359C27.6465 21.9311 27.6317 21.9291 27.617 21.93ZM20.367 22.492C20.3523 22.493 20.3379 22.4968 20.3247 22.5033C20.3115 22.5097 20.2996 22.5188 20.2899 22.5298C20.2801 22.5409 20.2726 22.5537 20.2679 22.5677C20.2631 22.5816 20.2611 22.5963 20.262 22.611C20.2629 22.6258 20.2667 22.6401 20.2732 22.6534C20.2797 22.6666 20.2887 22.6784 20.2998 22.6882C20.3108 22.6979 20.3237 22.7054 20.3376 22.7102C20.3516 22.715 20.3663 22.717 20.381 22.716C20.4107 22.7142 20.4385 22.7006 20.4582 22.6783C20.4779 22.656 20.4879 22.6268 20.486 22.597C20.4842 22.5673 20.4706 22.5396 20.4483 22.5199C20.4259 22.5002 20.3967 22.4902 20.367 22.492ZM27.617 22.492C27.6023 22.493 27.5879 22.4968 27.5747 22.5033C27.5615 22.5097 27.5496 22.5188 27.5399 22.5298C27.5301 22.5409 27.5226 22.5537 27.5179 22.5677C27.5131 22.5816 27.5111 22.5963 27.512 22.611C27.5129 22.6258 27.5167 22.6401 27.5232 22.6534C27.5297 22.6666 27.5387 22.6784 27.5498 22.6882C27.5608 22.6979 27.5737 22.7054 27.5876 22.7102C27.6016 22.715 27.6163 22.717 27.631 22.716C27.6607 22.7142 27.6885 22.7006 27.7082 22.6783C27.7279 22.656 27.7379 22.6268 27.736 22.597C27.7342 22.5673 27.7206 22.5396 27.6983 22.5199C27.6759 22.5002 27.6467 22.4902 27.617 22.492ZM24 22.748C23.7866 22.7427 23.5743 22.7801 23.3755 22.8581C23.1768 22.9361 22.9957 23.0531 22.8429 23.2021C22.6901 23.3512 22.5686 23.5293 22.4857 23.726C22.4027 23.9227 22.36 24.1341 22.36 24.3475C22.36 24.561 22.4027 24.7724 22.4857 24.9691C22.5686 25.1658 22.6901 25.3439 22.8429 25.493C22.9957 25.642 23.1768 25.759 23.3755 25.837C23.5743 25.915 23.7866 25.9524 24 25.947C24.4244 25.947 24.8313 25.7785 25.1314 25.4784C25.4314 25.1784 25.6 24.7714 25.6 24.347C25.6 23.9227 25.4314 23.5157 25.1314 23.2157C24.8313 22.9156 24.4244 22.747 24 22.747V22.748ZM20.367 23.054C20.3377 23.0551 20.3099 23.0676 20.2897 23.0889C20.2695 23.1102 20.2585 23.1386 20.259 23.168C20.2596 23.1973 20.2716 23.2253 20.2925 23.2459C20.3135 23.2664 20.3417 23.278 20.371 23.278C20.4004 23.278 20.4286 23.2664 20.4495 23.2459C20.4704 23.2253 20.4825 23.1973 20.483 23.168C20.4835 23.1386 20.4725 23.1102 20.4523 23.0889C20.4321 23.0676 20.4044 23.0551 20.375 23.054H20.367ZM27.617 23.054C27.5877 23.0551 27.5599 23.0676 27.5397 23.0889C27.5195 23.1102 27.5085 23.1386 27.509 23.168C27.5096 23.1973 27.5216 23.2253 27.5425 23.2459C27.5635 23.2664 27.5917 23.278 27.621 23.278C27.6504 23.278 27.6786 23.2664 27.6995 23.2459C27.7204 23.2253 27.7325 23.1973 27.733 23.168C27.7335 23.1386 27.7225 23.1102 27.7023 23.0889C27.6821 23.0676 27.6544 23.0551 27.625 23.054H27.617ZM24 23.212C24.1493 23.2119 24.2972 23.2411 24.4352 23.298C24.5733 23.355 24.6987 23.4386 24.8044 23.544C24.9102 23.6494 24.9941 23.7747 25.0514 23.9125C25.1087 24.0504 25.1383 24.1982 25.1385 24.3475C25.1387 24.4969 25.1095 24.6447 25.0525 24.7828C24.9956 24.9208 24.912 25.0462 24.8066 25.152C24.7011 25.2577 24.5759 25.3416 24.438 25.3989C24.3001 25.4562 24.1523 25.4859 24.003 25.486C23.8536 25.4862 23.7057 25.457 23.5676 25.4C23.4295 25.3431 23.304 25.2594 23.1982 25.1539C23.0925 25.0485 23.0085 24.9232 22.9512 24.7852C22.8938 24.6473 22.8642 24.4994 22.864 24.35C22.8638 24.2007 22.893 24.0527 22.95 23.9146C23.007 23.7765 23.0906 23.651 23.1961 23.5453C23.3016 23.4395 23.4269 23.3556 23.5648 23.2982C23.7028 23.2409 23.8506 23.2112 24 23.211V23.212ZM20.355 23.618C20.3288 23.6224 20.305 23.6359 20.2879 23.6563C20.2709 23.6767 20.2617 23.7025 20.262 23.729C20.2618 23.7512 20.2682 23.7729 20.2803 23.7914C20.2925 23.81 20.3098 23.8245 20.3302 23.8331C20.3506 23.8418 20.3731 23.8442 20.3949 23.8401C20.4166 23.836 20.4367 23.8255 20.4525 23.8099C20.4683 23.7944 20.4791 23.7746 20.4837 23.7529C20.4882 23.7312 20.4862 23.7087 20.4779 23.6881C20.4696 23.6676 20.4554 23.65 20.4371 23.6375C20.4188 23.625 20.3972 23.6182 20.375 23.618H20.355ZM27.605 23.618C27.5788 23.6224 27.555 23.6359 27.5379 23.6563C27.5209 23.6767 27.5117 23.7025 27.512 23.729C27.5118 23.7512 27.5182 23.7729 27.5303 23.7914C27.5425 23.81 27.5598 23.8245 27.5802 23.8331C27.6006 23.8418 27.6231 23.8442 27.6449 23.8401C27.6666 23.836 27.6867 23.8255 27.7025 23.8099C27.7183 23.7944 27.7291 23.7746 27.7337 23.7529C27.7382 23.7312 27.7362 23.7087 27.7279 23.6881C27.7196 23.6676 27.7054 23.65 27.6871 23.6375C27.6688 23.625 27.6472 23.6182 27.625 23.618H27.605ZM20.355 24.181C20.3289 24.1851 20.3051 24.1985 20.288 24.2187C20.2709 24.2389 20.2617 24.2646 20.262 24.291C20.262 24.3209 20.2739 24.3495 20.295 24.3706C20.3161 24.3917 20.3447 24.4035 20.3745 24.4035C20.4044 24.4035 20.433 24.3917 20.4541 24.3706C20.4752 24.3495 20.487 24.3209 20.487 24.291C20.486 24.231 20.437 24.181 20.375 24.181H20.355ZM27.605 24.181C27.5789 24.1851 27.5551 24.1985 27.538 24.2187C27.5209 24.2389 27.5117 24.2646 27.512 24.291C27.512 24.3209 27.5239 24.3495 27.545 24.3706C27.5661 24.3917 27.5947 24.4035 27.6245 24.4035C27.6544 24.4035 27.683 24.3917 27.7041 24.3706C27.7252 24.3495 27.737 24.3209 27.737 24.291C27.736 24.231 27.687 24.181 27.625 24.181H27.605ZM16.795 24.649C16.5816 24.6437 16.3693 24.6811 16.1705 24.7591C15.9718 24.8371 15.7907 24.9541 15.6379 25.1031C15.4851 25.2522 15.3636 25.4303 15.2807 25.627C15.1977 25.8237 15.155 26.0351 15.155 26.2485C15.155 26.462 15.1977 26.6734 15.2807 26.8701C15.3636 27.0668 15.4851 27.2449 15.6379 27.394C15.7907 27.543 15.9718 27.66 16.1705 27.738C16.3693 27.816 16.5816 27.8534 16.795 27.848C17.2123 27.8376 17.609 27.6645 17.9004 27.3657C18.1919 27.0669 18.355 26.666 18.355 26.2485C18.355 25.8311 18.1919 25.4302 17.9004 25.1314C17.609 24.8326 17.2123 24.6595 16.795 24.649ZM31.559 24.649C31.3456 24.6436 31.1333 24.681 30.9345 24.7589C30.7358 24.8368 30.5546 24.9538 30.4017 25.1028C30.2489 25.2518 30.1274 25.4299 30.0444 25.6266C29.9614 25.8232 29.9186 26.0346 29.9185 26.248C29.9185 26.4615 29.9611 26.6729 30.044 26.8696C30.1268 27.0663 30.2482 27.2445 30.401 27.3936C30.5538 27.5427 30.7349 27.6597 30.9336 27.7378C31.1323 27.8158 31.3446 27.8533 31.558 27.848C31.9753 27.8376 32.372 27.6645 32.6634 27.3657C32.9549 27.0669 33.118 26.666 33.118 26.2485C33.118 25.8311 32.9549 25.4302 32.6634 25.1314C32.372 24.8326 31.9753 24.6595 31.558 24.649H31.559ZM20.367 24.741C20.3377 24.7421 20.3099 24.7546 20.2897 24.7759C20.2695 24.7972 20.2585 24.8256 20.259 24.855C20.2596 24.8843 20.2716 24.9123 20.2925 24.9329C20.3135 24.9534 20.3417 24.965 20.371 24.965C20.4004 24.965 20.4286 24.9534 20.4495 24.9329C20.4704 24.9123 20.4825 24.8843 20.483 24.855C20.4835 24.8256 20.4725 24.7972 20.4523 24.7759C20.4321 24.7546 20.4044 24.7421 20.375 24.741C20.3724 24.7409 20.3697 24.7409 20.367 24.741ZM27.617 24.741C27.5877 24.7421 27.5599 24.7546 27.5397 24.7759C27.5195 24.7972 27.5085 24.8256 27.509 24.855C27.5096 24.8843 27.5216 24.9123 27.5425 24.9329C27.5635 24.9534 27.5917 24.965 27.621 24.965C27.6504 24.965 27.6786 24.9534 27.6995 24.9329C27.7204 24.9123 27.7325 24.8843 27.733 24.855C27.7335 24.8256 27.7225 24.7972 27.7023 24.7759C27.6821 24.7546 27.6544 24.7421 27.625 24.741C27.6224 24.7409 27.6197 24.7409 27.617 24.741ZM16.795 25.111C17.0966 25.1108 17.3859 25.2303 17.5993 25.4434C17.8127 25.6564 17.9328 25.9455 17.933 26.247C17.9333 26.5486 17.8137 26.8379 17.6007 27.0513C17.3877 27.2647 17.0986 27.3848 16.797 27.385C16.4953 27.3853 16.2059 27.2657 15.9924 27.0526C15.7789 26.8395 15.6588 26.5502 15.6585 26.2485C15.6583 25.9469 15.7778 25.6574 15.991 25.4439C16.2041 25.2304 16.4933 25.1103 16.795 25.11V25.111ZM31.559 25.111C31.8607 25.111 32.15 25.2309 32.3634 25.4442C32.5767 25.6575 32.6965 25.9469 32.6965 26.2485C32.6965 26.5502 32.5767 26.8396 32.3634 27.0529C32.15 27.2662 31.8607 27.386 31.559 27.386C31.2655 27.3737 30.988 27.2485 30.7846 27.0364C30.5813 26.8243 30.4677 26.5419 30.4677 26.248C30.4677 25.9542 30.5813 25.6718 30.7846 25.4597C30.988 25.2476 31.2655 25.1224 31.559 25.11V25.111ZM20.367 25.304C20.3384 25.3058 20.3115 25.3186 20.292 25.3396C20.2724 25.3606 20.2617 25.3883 20.262 25.417C20.262 25.479 20.312 25.529 20.375 25.528C20.4049 25.527 20.433 25.5141 20.4534 25.4923C20.4737 25.4704 20.4846 25.4414 20.4835 25.4115C20.4825 25.3817 20.4696 25.3535 20.4477 25.3332C20.4259 25.3128 20.3969 25.302 20.367 25.303V25.304ZM27.617 25.304C27.5884 25.3058 27.5615 25.3186 27.542 25.3396C27.5224 25.3606 27.5117 25.3883 27.512 25.417C27.512 25.479 27.562 25.529 27.625 25.528C27.6549 25.527 27.683 25.5141 27.7034 25.4923C27.7237 25.4704 27.7346 25.4414 27.7335 25.4115C27.7325 25.3817 27.7196 25.3535 27.6977 25.3332C27.6759 25.3128 27.6469 25.302 27.617 25.303V25.304ZM20.367 25.866C20.3384 25.8678 20.3115 25.8806 20.292 25.9016C20.2724 25.9226 20.2617 25.9503 20.262 25.979C20.262 26.041 20.312 26.091 20.375 26.091C20.436 26.091 20.485 26.041 20.486 25.979C20.4862 25.9636 20.4832 25.9484 20.4772 25.9342C20.4712 25.92 20.4623 25.9072 20.4511 25.8966C20.44 25.886 20.4267 25.8778 20.4123 25.8726C20.3978 25.8673 20.3824 25.8651 20.367 25.866ZM27.617 25.866C27.5884 25.8678 27.5615 25.8806 27.542 25.9016C27.5224 25.9226 27.5117 25.9503 27.512 25.979C27.512 26.041 27.562 26.091 27.625 26.091C27.686 26.091 27.735 26.041 27.736 25.979C27.7362 25.9636 27.7332 25.9484 27.7272 25.9342C27.7212 25.92 27.7123 25.9072 27.7011 25.8966C27.69 25.886 27.6767 25.8778 27.6623 25.8726C27.6478 25.8673 27.6324 25.8651 27.617 25.866ZM20.367 26.429C20.3523 26.4296 20.3378 26.433 20.3245 26.4391C20.3111 26.4452 20.299 26.4539 20.289 26.4647C20.279 26.4755 20.2712 26.4881 20.266 26.5019C20.2609 26.5157 20.2585 26.5303 20.259 26.545C20.2595 26.5598 20.263 26.5742 20.2691 26.5876C20.2752 26.601 20.2839 26.613 20.2946 26.6231C20.3054 26.6331 20.3181 26.6409 20.3319 26.6461C20.3456 26.6512 20.3603 26.6536 20.375 26.653C20.4047 26.652 20.4328 26.6392 20.453 26.6174C20.4733 26.5957 20.4841 26.5668 20.483 26.537C20.482 26.5073 20.4691 26.4793 20.4474 26.459C20.4256 26.4388 20.3967 26.428 20.367 26.429ZM27.617 26.429C27.6023 26.4296 27.5878 26.433 27.5745 26.4391C27.5611 26.4452 27.549 26.4539 27.539 26.4647C27.529 26.4755 27.5212 26.4881 27.516 26.5019C27.5109 26.5157 27.5085 26.5303 27.509 26.545C27.5095 26.5598 27.513 26.5742 27.5191 26.5876C27.5252 26.601 27.5339 26.613 27.5446 26.6231C27.5554 26.6331 27.5681 26.6409 27.5819 26.6461C27.5956 26.6512 27.6103 26.6536 27.625 26.653C27.6547 26.652 27.6828 26.6392 27.703 26.6174C27.7233 26.5957 27.7341 26.5668 27.733 26.537C27.732 26.5073 27.7191 26.4793 27.6974 26.459C27.6756 26.4388 27.6467 26.428 27.617 26.429ZM24 26.584C23.7866 26.5787 23.5743 26.6161 23.3755 26.6941C23.1768 26.7721 22.9957 26.8891 22.8429 27.0381C22.6901 27.1872 22.5686 27.3653 22.4857 27.562C22.4027 27.7587 22.36 27.9701 22.36 28.1835C22.36 28.397 22.4027 28.6084 22.4857 28.8051C22.5686 29.0018 22.6901 29.1799 22.8429 29.329C22.9957 29.478 23.1768 29.595 23.3755 29.673C23.5743 29.751 23.7866 29.7884 24 29.783C24.4244 29.783 24.8313 29.6145 25.1314 29.3144C25.4314 29.0144 25.6 28.6074 25.6 28.183C25.6 27.7587 25.4314 27.3517 25.1314 27.0517C24.8313 26.7516 24.4244 26.583 24 26.583V26.584ZM20.367 26.99C20.3523 26.991 20.3379 26.9948 20.3247 27.0013C20.3115 27.0077 20.2996 27.0168 20.2899 27.0278C20.2801 27.0389 20.2726 27.0517 20.2679 27.0657C20.2631 27.0796 20.2611 27.0943 20.262 27.109C20.2629 27.1238 20.2667 27.1381 20.2732 27.1514C20.2797 27.1646 20.2887 27.1764 20.2998 27.1862C20.3108 27.1959 20.3237 27.2034 20.3376 27.2082C20.3516 27.213 20.3663 27.215 20.381 27.214C20.4107 27.2122 20.4385 27.1986 20.4582 27.1763C20.4779 27.154 20.4879 27.1248 20.486 27.095C20.4842 27.0653 20.4706 27.0376 20.4483 27.0179C20.4259 26.9982 20.3967 26.9882 20.367 26.99ZM27.617 26.99C27.6023 26.991 27.5879 26.9948 27.5747 27.0013C27.5615 27.0077 27.5496 27.0168 27.5399 27.0278C27.5301 27.0389 27.5226 27.0517 27.5179 27.0657C27.5131 27.0796 27.5111 27.0943 27.512 27.109C27.5129 27.1238 27.5167 27.1381 27.5232 27.1514C27.5297 27.1646 27.5387 27.1764 27.5498 27.1862C27.5608 27.1959 27.5737 27.2034 27.5876 27.2082C27.6016 27.213 27.6163 27.215 27.631 27.214C27.6607 27.2122 27.6885 27.1986 27.7082 27.1763C27.7279 27.154 27.7379 27.1248 27.736 27.095C27.7342 27.0653 27.7206 27.0376 27.6983 27.0179C27.6759 26.9982 27.6467 26.9882 27.617 26.99ZM24 27.045C24.1494 27.0449 24.2974 27.0741 24.4354 27.1311C24.5735 27.188 24.699 27.2717 24.8048 27.3772C24.9106 27.4826 24.9945 27.6079 25.0519 27.7459C25.1092 27.8838 25.1388 28.0317 25.139 28.181C25.1392 28.3304 25.11 28.4784 25.053 28.6165C24.996 28.7545 24.9124 28.8801 24.8069 28.9858C24.7014 29.0916 24.5761 29.1755 24.4382 29.2329C24.3003 29.2902 24.1524 29.3199 24.003 29.32C23.7013 29.3204 23.4118 29.201 23.1982 28.9879C22.9846 28.7749 22.8644 28.4857 22.864 28.184C22.8636 27.8824 22.9831 27.5929 23.1961 27.3793C23.4092 27.1657 23.6983 27.0454 24 27.045ZM20.367 27.553C20.3523 27.554 20.3379 27.5578 20.3247 27.5643C20.3115 27.5707 20.2996 27.5798 20.2899 27.5908C20.2801 27.6019 20.2726 27.6147 20.2679 27.6287C20.2631 27.6426 20.2611 27.6573 20.262 27.672C20.2629 27.6868 20.2667 27.7011 20.2732 27.7144C20.2797 27.7276 20.2887 27.7394 20.2998 27.7492C20.3108 27.7589 20.3237 27.7664 20.3376 27.7712C20.3516 27.776 20.3663 27.778 20.381 27.777C20.4107 27.7752 20.4385 27.7616 20.4582 27.7393C20.4779 27.717 20.4879 27.6878 20.486 27.658C20.4842 27.6283 20.4706 27.6006 20.4483 27.5809C20.4259 27.5612 20.3967 27.5512 20.367 27.553ZM27.617 27.553C27.6023 27.554 27.5879 27.5578 27.5747 27.5643C27.5615 27.5707 27.5496 27.5798 27.5399 27.5908C27.5301 27.6019 27.5226 27.6147 27.5179 27.6287C27.5131 27.6426 27.5111 27.6573 27.512 27.672C27.5129 27.6868 27.5167 27.7011 27.5232 27.7144C27.5297 27.7276 27.5387 27.7394 27.5498 27.7492C27.5608 27.7589 27.5737 27.7664 27.5876 27.7712C27.6016 27.776 27.6163 27.778 27.631 27.777C27.6607 27.7752 27.6885 27.7616 27.7082 27.7393C27.7279 27.717 27.7379 27.6878 27.736 27.658C27.7342 27.6283 27.7206 27.6006 27.6983 27.5809C27.6759 27.5612 27.6467 27.5512 27.617 27.553ZM20.355 28.115C20.3288 28.1194 20.305 28.1329 20.2879 28.1533C20.2709 28.1737 20.2617 28.1995 20.262 28.226C20.262 28.2559 20.2739 28.2845 20.295 28.3056C20.3161 28.3267 20.3447 28.3385 20.3745 28.3385C20.4044 28.3385 20.433 28.3267 20.4541 28.3056C20.4752 28.2845 20.487 28.2559 20.487 28.226C20.486 28.166 20.437 28.116 20.375 28.116C20.367 28.114 20.365 28.114 20.357 28.116H20.355V28.115ZM27.605 28.115C27.5788 28.1194 27.555 28.1329 27.5379 28.1533C27.5209 28.1737 27.5117 28.1995 27.512 28.226C27.512 28.2559 27.5239 28.2845 27.545 28.3056C27.5661 28.3267 27.5947 28.3385 27.6245 28.3385C27.6544 28.3385 27.683 28.3267 27.7041 28.3056C27.7252 28.2845 27.737 28.2559 27.737 28.226C27.736 28.166 27.687 28.116 27.625 28.116C27.617 28.114 27.615 28.114 27.607 28.116H27.605V28.115ZM16.795 28.482C16.3775 28.4925 15.9805 28.6657 15.6889 28.9647C15.3973 29.2637 15.234 29.6649 15.234 30.0825C15.234 30.5002 15.3973 30.9014 15.6889 31.2004C15.9805 31.4994 16.3775 31.6726 16.795 31.683C17.2194 31.683 17.6263 31.5145 17.9264 31.2144C18.2264 30.9144 18.395 30.5074 18.395 30.083C18.395 29.6587 18.2264 29.2517 17.9264 28.9517C17.6263 28.6516 17.2194 28.483 16.795 28.483V28.482ZM31.559 28.482C31.1415 28.4925 30.7445 28.6657 30.4529 28.9647C30.1613 29.2637 29.998 29.6649 29.998 30.0825C29.998 30.5002 30.1613 30.9014 30.4529 31.2004C30.7445 31.4994 31.1415 31.6726 31.559 31.683C31.9834 31.683 32.3903 31.5145 32.6904 31.2144C32.9904 30.9144 33.159 30.5074 33.159 30.083C33.159 29.6587 32.9904 29.2517 32.6904 28.9517C32.3903 28.6516 31.9834 28.483 31.559 28.483V28.482ZM20.377 28.676C20.3473 28.6758 20.3187 28.6873 20.2975 28.7081C20.2763 28.729 20.2643 28.7573 20.264 28.787C20.2638 28.8168 20.2753 28.8453 20.2961 28.8665C20.3169 28.8877 20.3453 28.8998 20.375 28.9C20.3897 28.9002 20.4043 28.8974 20.418 28.8919C20.4316 28.8864 20.444 28.8783 20.4545 28.868C20.465 28.8576 20.4734 28.8454 20.4791 28.8318C20.4849 28.8183 20.4879 28.8038 20.488 28.789C20.4881 28.7743 20.4854 28.7598 20.4799 28.7461C20.4744 28.7325 20.4662 28.7201 20.4559 28.7096C20.4456 28.6991 20.4333 28.6907 20.4198 28.685C20.4063 28.6792 20.3917 28.6762 20.377 28.676ZM27.627 28.676C27.5973 28.6758 27.5687 28.6873 27.5475 28.7081C27.5263 28.729 27.5143 28.7573 27.514 28.787C27.5138 28.8168 27.5253 28.8453 27.5461 28.8665C27.5669 28.8877 27.5953 28.8998 27.625 28.9C27.6397 28.9002 27.6543 28.8974 27.668 28.8919C27.6816 28.8864 27.694 28.8783 27.7045 28.868C27.715 28.8576 27.7234 28.8454 27.7291 28.8318C27.7349 28.8183 27.7379 28.8038 27.738 28.789C27.7381 28.7743 27.7354 28.7598 27.7299 28.7461C27.7244 28.7325 27.7162 28.7201 27.7059 28.7096C27.6956 28.6991 27.6833 28.6907 27.6698 28.685C27.6563 28.6792 27.6417 28.6762 27.627 28.676ZM16.795 28.946C16.9474 28.9415 17.0991 28.9676 17.2411 29.0228C17.3832 29.078 17.5128 29.1611 17.6221 29.2673C17.7315 29.3735 17.8184 29.5005 17.8778 29.6409C17.9372 29.7813 17.9678 29.9321 17.9678 30.0845C17.9678 30.237 17.9372 30.3878 17.8778 30.5282C17.8184 30.6686 17.7315 30.7956 17.6221 30.9018C17.5128 31.008 17.3832 31.0911 17.2411 31.1463C17.0991 31.2015 16.9474 31.2276 16.795 31.223C16.4929 31.223 16.2032 31.103 15.9896 30.8894C15.776 30.6758 15.656 30.3861 15.656 30.084C15.656 29.782 15.776 29.4923 15.9896 29.2787C16.2032 29.065 16.4929 28.945 16.795 28.945V28.946ZM31.559 28.946C31.7114 28.9415 31.8631 28.9676 32.0051 29.0228C32.1472 29.078 32.2768 29.1611 32.3861 29.2673C32.4955 29.3735 32.5824 29.5005 32.6418 29.6409C32.7012 29.7813 32.7318 29.9321 32.7318 30.0845C32.7318 30.237 32.7012 30.3878 32.6418 30.5282C32.5824 30.6686 32.4955 30.7956 32.3861 30.9018C32.2768 31.008 32.1472 31.0911 32.0051 31.1463C31.8631 31.2015 31.7114 31.2276 31.559 31.223C31.2569 31.223 30.9672 31.103 30.7536 30.8894C30.54 30.6758 30.42 30.3861 30.42 30.084C30.42 29.782 30.54 29.4923 30.7536 29.2787C30.9672 29.065 31.2569 28.945 31.559 28.945V28.946ZM20.367 29.238C20.3384 29.2398 20.3115 29.2526 20.292 29.2736C20.2724 29.2946 20.2617 29.3223 20.262 29.351C20.262 29.3809 20.2739 29.4095 20.295 29.4306C20.3161 29.4517 20.3447 29.4635 20.3745 29.4635C20.4044 29.4635 20.433 29.4517 20.4541 29.4306C20.4752 29.4095 20.487 29.3809 20.487 29.351C20.4872 29.3356 20.4842 29.3202 20.4781 29.3059C20.472 29.2917 20.4631 29.2788 20.4518 29.2682C20.4405 29.2576 20.4272 29.2494 20.4126 29.2442C20.398 29.239 20.3825 29.2369 20.367 29.238ZM27.617 29.238C27.5884 29.2398 27.5615 29.2526 27.542 29.2736C27.5224 29.2946 27.5117 29.3223 27.512 29.351C27.512 29.3809 27.5239 29.4095 27.545 29.4306C27.5661 29.4517 27.5947 29.4635 27.6245 29.4635C27.6544 29.4635 27.683 29.4517 27.7041 29.4306C27.7252 29.4095 27.737 29.3809 27.737 29.351C27.7372 29.3356 27.7342 29.3202 27.7281 29.3059C27.722 29.2917 27.7131 29.2788 27.7018 29.2682C27.6905 29.2576 27.6772 29.2494 27.6626 29.2442C27.648 29.239 27.6325 29.2369 27.617 29.238ZM20.367 29.801C20.3377 29.8021 20.3099 29.8146 20.2897 29.8359C20.2695 29.8572 20.2585 29.8856 20.259 29.915C20.2596 29.9443 20.2716 29.9723 20.2925 29.9929C20.3135 30.0134 20.3417 30.025 20.371 30.025C20.4004 30.025 20.4286 30.0134 20.4495 29.9929C20.4704 29.9723 20.4825 29.9443 20.483 29.915C20.4835 29.8856 20.4725 29.8572 20.4523 29.8359C20.4321 29.8146 20.4044 29.8021 20.375 29.801C20.3724 29.8009 20.3697 29.8009 20.367 29.801ZM27.617 29.801C27.5877 29.8021 27.5599 29.8146 27.5397 29.8359C27.5195 29.8572 27.5085 29.8856 27.509 29.915C27.5096 29.9443 27.5216 29.9723 27.5425 29.9929C27.5635 30.0134 27.5917 30.025 27.621 30.025C27.6504 30.025 27.6786 30.0134 27.6995 29.9929C27.7204 29.9723 27.7325 29.9443 27.733 29.915C27.7335 29.8856 27.7225 29.8572 27.7023 29.8359C27.6821 29.8146 27.6544 29.8021 27.625 29.801C27.6224 29.8009 27.6197 29.8009 27.617 29.801ZM20.367 30.363C20.3384 30.3648 20.3115 30.3776 20.292 30.3986C20.2724 30.4196 20.2617 30.4473 20.262 30.476C20.2623 30.4984 20.2692 30.5203 20.282 30.5387C20.2947 30.5571 20.3127 30.5712 20.3336 30.5793C20.3545 30.5874 20.3773 30.589 20.3992 30.584C20.421 30.5789 20.4408 30.5675 20.4561 30.5511C20.4713 30.5347 20.4813 30.5141 20.4847 30.4919C20.4881 30.4698 20.4848 30.4471 20.4752 30.4269C20.4656 30.4067 20.4502 30.3897 20.4309 30.3784C20.4116 30.367 20.3894 30.3617 20.367 30.363ZM27.617 30.363C27.5884 30.3648 27.5615 30.3776 27.542 30.3986C27.5224 30.4196 27.5117 30.4473 27.512 30.476C27.5123 30.4984 27.5192 30.5203 27.532 30.5387C27.5447 30.5571 27.5627 30.5712 27.5836 30.5793C27.6045 30.5874 27.6273 30.589 27.6492 30.584C27.671 30.5789 27.6908 30.5675 27.7061 30.5511C27.7213 30.5347 27.7313 30.5141 27.7347 30.4919C27.7381 30.4698 27.7348 30.4471 27.7252 30.4269C27.7156 30.4067 27.7002 30.3897 27.6809 30.3784C27.6616 30.367 27.6394 30.3617 27.617 30.363ZM24 30.418C23.5825 30.4285 23.1855 30.6017 22.8939 30.9007C22.6023 31.1997 22.439 31.6009 22.439 32.0185C22.439 32.4362 22.6023 32.8374 22.8939 33.1364C23.1855 33.4354 23.5825 33.6086 24 33.619C24.4245 33.619 24.8316 33.4504 25.1317 33.1503C25.4319 32.8501 25.6005 32.443 25.6005 32.0185C25.6005 31.5941 25.4319 31.187 25.1317 30.8868C24.8316 30.5867 24.4245 30.418 24 30.418ZM24 30.881C24.3021 30.881 24.5918 31.001 24.8054 31.2147C25.019 31.4283 25.139 31.718 25.139 32.02C25.139 32.3221 25.019 32.6118 24.8054 32.8254C24.5918 33.039 24.3021 33.159 24 33.159C23.6979 33.159 23.4082 33.039 23.1946 32.8254C22.981 32.6118 22.861 32.3221 22.861 32.02C22.861 31.718 22.981 31.4283 23.1946 31.2147C23.4082 31.001 23.6979 30.881 24 30.881ZM20.367 30.924C20.3385 30.9263 20.3119 30.9392 20.2925 30.9601C20.2731 30.981 20.2622 31.0085 20.262 31.037C20.262 31.0668 20.2738 31.0952 20.2948 31.1162C20.3158 31.1372 20.3443 31.149 20.374 31.149C20.4037 31.149 20.4322 31.1372 20.4532 31.1162C20.4742 31.0952 20.486 31.0668 20.486 31.037C20.4859 31.0217 20.4827 31.0066 20.4766 30.9925C20.4705 30.9785 20.4616 30.9658 20.4505 30.9553C20.4394 30.9447 20.4263 30.9365 20.4119 30.9312C20.3976 30.9258 20.3823 30.9234 20.367 30.924ZM27.617 30.924C27.5885 30.9263 27.5619 30.9392 27.5425 30.9601C27.5231 30.981 27.5122 31.0085 27.512 31.037C27.512 31.0668 27.5238 31.0952 27.5448 31.1162C27.5658 31.1372 27.5943 31.149 27.624 31.149C27.6537 31.149 27.6822 31.1372 27.7032 31.1162C27.7242 31.0952 27.736 31.0668 27.736 31.037C27.7359 31.0217 27.7327 31.0066 27.7266 30.9925C27.7205 30.9785 27.7116 30.9658 27.7005 30.9553C27.6894 30.9447 27.6763 30.9365 27.6619 30.9312C27.6476 30.9258 27.6323 30.9234 27.617 30.924ZM20.367 31.486C20.3523 31.487 20.3379 31.4908 20.3247 31.4973C20.3115 31.5037 20.2996 31.5128 20.2899 31.5238C20.2801 31.5349 20.2726 31.5477 20.2679 31.5617C20.2631 31.5756 20.2611 31.5903 20.262 31.605C20.2629 31.6198 20.2667 31.6341 20.2732 31.6474C20.2797 31.6606 20.2887 31.6724 20.2998 31.6822C20.3108 31.6919 20.3237 31.6994 20.3376 31.7042C20.3516 31.709 20.3663 31.711 20.381 31.71C20.4107 31.7082 20.4385 31.6946 20.4582 31.6723C20.4779 31.65 20.4879 31.6208 20.486 31.591C20.4842 31.5613 20.4706 31.5336 20.4483 31.5139C20.4259 31.4942 20.3967 31.4842 20.367 31.486ZM27.617 31.486C27.6023 31.487 27.5879 31.4908 27.5747 31.4973C27.5615 31.5037 27.5496 31.5128 27.5399 31.5238C27.5301 31.5349 27.5226 31.5477 27.5179 31.5617C27.5131 31.5756 27.5111 31.5903 27.512 31.605C27.5129 31.6198 27.5167 31.6341 27.5232 31.6474C27.5297 31.6606 27.5387 31.6724 27.5498 31.6822C27.5608 31.6919 27.5737 31.6994 27.5876 31.7042C27.6016 31.709 27.6163 31.711 27.631 31.71C27.6607 31.7082 27.6885 31.6946 27.7082 31.6723C27.7279 31.65 27.7379 31.6208 27.736 31.591C27.7342 31.5613 27.7206 31.5336 27.6983 31.5139C27.6759 31.4942 27.6467 31.4842 27.617 31.486ZM20.355 32.049C20.3288 32.0534 20.305 32.0669 20.2879 32.0873C20.2709 32.1077 20.2617 32.1335 20.262 32.16C20.2599 32.176 20.2612 32.1922 20.2658 32.2077C20.2705 32.2231 20.2784 32.2373 20.289 32.2495C20.2996 32.2616 20.3127 32.2713 20.3273 32.2779C20.342 32.2846 20.3579 32.288 20.374 32.288C20.3901 32.288 20.406 32.2846 20.4207 32.2779C20.4354 32.2713 20.4485 32.2616 20.4591 32.2495C20.4697 32.2373 20.4776 32.2231 20.4822 32.2077C20.4869 32.1922 20.4882 32.176 20.486 32.16C20.486 32.099 20.436 32.05 20.375 32.049H20.355ZM27.605 32.049C27.5788 32.0534 27.555 32.0669 27.5379 32.0873C27.5209 32.1077 27.5117 32.1335 27.512 32.16C27.5099 32.176 27.5112 32.1922 27.5158 32.2077C27.5205 32.2231 27.5284 32.2373 27.539 32.2495C27.5496 32.2616 27.5627 32.2713 27.5773 32.2779C27.592 32.2846 27.6079 32.288 27.624 32.288C27.6401 32.288 27.656 32.2846 27.6707 32.2779C27.6854 32.2713 27.6985 32.2616 27.7091 32.2495C27.7197 32.2373 27.7276 32.2231 27.7322 32.2077C27.7369 32.1922 27.7382 32.176 27.736 32.16C27.736 32.099 27.686 32.05 27.625 32.049H27.605ZM16.795 32.32C16.5816 32.3147 16.3693 32.3521 16.1705 32.4301C15.9718 32.5081 15.7907 32.6251 15.6379 32.7741C15.4851 32.9232 15.3636 33.1013 15.2807 33.298C15.1977 33.4947 15.155 33.7061 15.155 33.9195C15.155 34.133 15.1977 34.3444 15.2807 34.5411C15.3636 34.7378 15.4851 34.9159 15.6379 35.065C15.7907 35.214 15.9718 35.331 16.1705 35.409C16.3693 35.487 16.5816 35.5244 16.795 35.519C17.2123 35.5086 17.609 35.3355 17.9004 35.0367C18.1919 34.7379 18.355 34.337 18.355 33.9195C18.355 33.5021 18.1919 33.1012 17.9004 32.8024C17.609 32.5036 17.2123 32.3305 16.795 32.32ZM31.559 32.32C31.3456 32.3146 31.1333 32.352 30.9345 32.4299C30.7358 32.5078 30.5546 32.6248 30.4017 32.7738C30.2489 32.9228 30.1274 33.1009 30.0444 33.2976C29.9614 33.4942 29.9186 33.7056 29.9185 33.919C29.9185 34.1325 29.9611 34.3439 30.044 34.5406C30.1268 34.7373 30.2482 34.9155 30.401 35.0646C30.5538 35.2137 30.7349 35.3307 30.9336 35.4088C31.1323 35.4868 31.3446 35.5243 31.558 35.519C31.9753 35.5086 32.372 35.3355 32.6634 35.0367C32.9549 34.7379 33.118 34.337 33.118 33.9195C33.118 33.5021 32.9549 33.1012 32.6634 32.8024C32.372 32.5036 31.9753 32.3305 31.558 32.32H31.559ZM20.355 32.611C20.3339 32.6145 20.3143 32.6239 20.2983 32.6381C20.2824 32.6524 20.2709 32.6709 20.2652 32.6914C20.2594 32.712 20.2597 32.7338 20.2659 32.7542C20.2721 32.7747 20.284 32.7929 20.3003 32.8068C20.3165 32.8206 20.3364 32.8296 20.3576 32.8325C20.3787 32.8355 20.4003 32.8323 20.4197 32.8234C20.4391 32.8145 20.4556 32.8002 20.4672 32.7823C20.4787 32.7643 20.4849 32.7434 20.485 32.722C20.4845 32.693 20.4727 32.6654 20.4522 32.6448C20.4317 32.6243 20.404 32.6126 20.375 32.612H20.355V32.611ZM27.605 32.611C27.5839 32.6145 27.5643 32.6239 27.5483 32.6381C27.5324 32.6524 27.5209 32.6709 27.5152 32.6914C27.5094 32.712 27.5097 32.7338 27.5159 32.7542C27.5221 32.7747 27.534 32.7929 27.5503 32.8068C27.5665 32.8206 27.5864 32.8296 27.6076 32.8325C27.6287 32.8355 27.6503 32.8323 27.6697 32.8234C27.6891 32.8145 27.7056 32.8002 27.7172 32.7823C27.7287 32.7643 27.7349 32.7434 27.735 32.722C27.7345 32.693 27.7227 32.6654 27.7022 32.6448C27.6817 32.6243 27.654 32.6126 27.625 32.612H27.605V32.611ZM16.795 32.783C16.9444 32.7829 17.0924 32.8121 17.2304 32.8691C17.3685 32.926 17.494 33.0097 17.5998 33.1152C17.7056 33.2206 17.7895 33.3459 17.8469 33.4839C17.9042 33.6218 17.9338 33.7697 17.934 33.919C17.9342 34.0684 17.905 34.2164 17.848 34.3545C17.791 34.4925 17.7074 34.6181 17.6019 34.7238C17.4964 34.8296 17.3711 34.9135 17.2332 34.9709C17.0953 35.0282 16.9474 35.0578 16.798 35.058C16.4963 35.0584 16.2068 34.939 15.9932 34.7259C15.7796 34.5129 15.6594 34.2237 15.659 33.922C15.6586 33.6204 15.7781 33.3309 15.9911 33.1173C16.2042 32.9037 16.4933 32.7834 16.795 32.783ZM31.559 32.783C31.7111 32.7785 31.8625 32.8046 32.0044 32.8597C32.1462 32.9148 32.2755 32.9978 32.3847 33.1037C32.4939 33.2097 32.5807 33.3365 32.6399 33.4767C32.6992 33.6168 32.7297 33.7674 32.7297 33.9195C32.7297 34.0717 32.6992 34.2223 32.6399 34.3624C32.5807 34.5026 32.4939 34.6294 32.3847 34.7354C32.2755 34.8413 32.1462 34.9243 32.0044 34.9794C31.8625 35.0345 31.7111 35.0606 31.559 35.056C31.2573 35.0563 30.9678 34.9368 30.754 34.7239C30.5403 34.5109 30.4198 34.2218 30.419 33.92C30.42 33.292 30.931 32.783 31.559 32.783ZM20.377 33.172C20.362 33.1722 20.3472 33.1753 20.3335 33.1811C20.3197 33.187 20.3072 33.1955 20.2967 33.2061C20.2862 33.2168 20.2779 33.2295 20.2723 33.2433C20.2667 33.2572 20.2639 33.2721 20.264 33.287C20.264 33.349 20.314 33.397 20.377 33.397C20.3915 33.3972 20.406 33.3944 20.4194 33.389C20.4329 33.3835 20.4451 33.3754 20.4554 33.3652C20.4658 33.355 20.474 33.3428 20.4795 33.3294C20.4851 33.316 20.488 33.3016 20.488 33.287C20.4883 33.2572 20.4768 33.2283 20.456 33.2068C20.4353 33.1853 20.4069 33.1728 20.377 33.172ZM27.627 33.172C27.612 33.1722 27.5972 33.1753 27.5835 33.1811C27.5697 33.187 27.5572 33.1955 27.5467 33.2061C27.5362 33.2168 27.5279 33.2295 27.5223 33.2433C27.5167 33.2572 27.5139 33.2721 27.514 33.287C27.514 33.349 27.564 33.397 27.627 33.397C27.6415 33.3972 27.656 33.3944 27.6694 33.389C27.6829 33.3835 27.6951 33.3754 27.7054 33.3652C27.7158 33.355 27.724 33.3428 27.7295 33.3294C27.7351 33.316 27.738 33.3016 27.738 33.287C27.7383 33.2572 27.7268 33.2283 27.706 33.2068C27.6853 33.1853 27.6569 33.1728 27.627 33.172ZM20.367 33.734C20.3384 33.7358 20.3115 33.7486 20.292 33.7696C20.2724 33.7906 20.2617 33.8183 20.262 33.847C20.262 33.91 20.312 33.96 20.375 33.959C20.436 33.959 20.485 33.909 20.486 33.847C20.4861 33.8323 20.4834 33.8177 20.4779 33.8041C20.4724 33.7905 20.4642 33.778 20.4539 33.7676C20.4436 33.7571 20.4313 33.7487 20.4178 33.743C20.4043 33.7372 20.3897 33.7342 20.375 33.734H20.367ZM27.617 33.734C27.5884 33.7358 27.5615 33.7486 27.542 33.7696C27.5224 33.7906 27.5117 33.8183 27.512 33.847C27.512 33.91 27.562 33.96 27.625 33.959C27.686 33.959 27.735 33.909 27.736 33.847C27.7361 33.8323 27.7334 33.8177 27.7279 33.8041C27.7224 33.7905 27.7142 33.778 27.7039 33.7676C27.6936 33.7571 27.6813 33.7487 27.6678 33.743C27.6543 33.7372 27.6397 33.7342 27.625 33.734H27.617ZM24 34.256C23.7853 34.2485 23.5712 34.2842 23.3706 34.3611C23.1699 34.4381 22.9869 34.5546 22.8323 34.7039C22.6777 34.8531 22.5547 35.0319 22.4707 35.2297C22.3867 35.4275 22.3435 35.6402 22.3435 35.855C22.3435 36.0699 22.3867 36.2826 22.4707 36.4804C22.5547 36.6782 22.6777 36.857 22.8323 37.0062C22.9869 37.1555 23.1699 37.272 23.3706 37.349C23.5712 37.4259 23.7853 37.4616 24 37.454C24.4143 37.4394 24.8067 37.2645 25.0947 36.9662C25.3826 36.668 25.5435 36.2696 25.5435 35.855C25.5435 35.4405 25.3826 35.0421 25.0947 34.7439C24.8067 34.4456 24.4143 34.2707 24 34.256ZM20.367 34.296C20.3377 34.2971 20.3099 34.3096 20.2897 34.3309C20.2695 34.3522 20.2585 34.3806 20.259 34.41C20.2596 34.4393 20.2716 34.4673 20.2925 34.4879C20.3135 34.5084 20.3417 34.52 20.371 34.52C20.4004 34.52 20.4286 34.5084 20.4495 34.4879C20.4704 34.4673 20.4825 34.4393 20.483 34.41C20.4835 34.3806 20.4725 34.3522 20.4523 34.3309C20.4321 34.3096 20.4044 34.2971 20.375 34.296C20.3724 34.2959 20.3697 34.2959 20.367 34.296ZM27.617 34.296C27.5877 34.2971 27.5599 34.3096 27.5397 34.3309C27.5195 34.3522 27.5085 34.3806 27.509 34.41C27.5096 34.4393 27.5216 34.4673 27.5425 34.4879C27.5635 34.5084 27.5917 34.52 27.621 34.52C27.6504 34.52 27.6786 34.5084 27.6995 34.4879C27.7204 34.4673 27.7325 34.4393 27.733 34.41C27.7335 34.3806 27.7225 34.3522 27.7023 34.3309C27.6821 34.3096 27.6544 34.2971 27.625 34.296C27.6224 34.2959 27.6197 34.2959 27.617 34.296ZM24 34.72C24.1493 34.7199 24.2972 34.7491 24.4352 34.806C24.5733 34.863 24.6987 34.9466 24.8044 35.052C24.9102 35.1574 24.9941 35.2827 25.0514 35.4205C25.1087 35.5584 25.1383 35.7062 25.1385 35.8555C25.1387 36.0049 25.1095 36.1527 25.0525 36.2908C24.9956 36.4288 24.912 36.5542 24.8066 36.66C24.7011 36.7657 24.5759 36.8496 24.438 36.9069C24.3001 36.9642 24.1523 36.9938 24.003 36.994C23.7015 36.9944 23.4121 36.875 23.1986 36.6621C22.9851 36.4491 22.8649 36.1601 22.8645 35.8585C22.8641 35.557 22.9835 35.2676 23.1965 35.0541C23.4094 34.8406 23.6985 34.7204 24 34.72ZM20.367 34.86C20.3522 34.8606 20.3377 34.864 20.3243 34.8701C20.3108 34.8763 20.2987 34.885 20.2886 34.8958C20.2786 34.9066 20.2707 34.9193 20.2656 34.9332C20.2604 34.947 20.258 34.9618 20.2585 34.9765C20.259 34.9913 20.2625 35.0058 20.2686 35.0193C20.2748 35.0327 20.2835 35.0449 20.2943 35.0549C20.3051 35.065 20.3178 35.0728 20.3317 35.078C20.3455 35.0832 20.3602 35.0856 20.375 35.085C20.4049 35.084 20.433 35.0711 20.4534 35.0493C20.4737 35.0274 20.4846 34.9984 20.4835 34.9685C20.4825 34.9387 20.4696 34.9105 20.4477 34.8902C20.4259 34.8698 20.3969 34.859 20.367 34.86ZM27.617 34.86C27.6022 34.8606 27.5877 34.864 27.5743 34.8701C27.5608 34.8763 27.5487 34.885 27.5386 34.8958C27.5286 34.9066 27.5207 34.9193 27.5156 34.9332C27.5104 34.947 27.508 34.9618 27.5085 34.9765C27.509 34.9913 27.5125 35.0058 27.5186 35.0193C27.5248 35.0327 27.5335 35.0449 27.5443 35.0549C27.5551 35.065 27.5678 35.0728 27.5817 35.078C27.5955 35.0832 27.6102 35.0856 27.625 35.085C27.6549 35.084 27.683 35.0711 27.7034 35.0493C27.7237 35.0274 27.7346 34.9984 27.7335 34.9685C27.7325 34.9387 27.7196 34.9105 27.6977 34.8902C27.6759 34.8698 27.6469 34.859 27.617 34.86ZM20.367 35.423C20.3373 35.4249 20.3096 35.4385 20.2899 35.4608C20.2702 35.4831 20.2602 35.5123 20.262 35.542C20.2639 35.5718 20.2775 35.5995 20.2998 35.6192C20.3221 35.6389 20.3513 35.6489 20.381 35.647C20.3957 35.6461 20.4101 35.6423 20.4233 35.6358C20.4366 35.6294 20.4484 35.6203 20.4582 35.6093C20.4679 35.5982 20.4754 35.5854 20.4802 35.5714C20.485 35.5575 20.4869 35.5428 20.486 35.528C20.4851 35.5133 20.4813 35.499 20.4748 35.4857C20.4683 35.4725 20.4593 35.4607 20.4483 35.4509C20.4372 35.4412 20.4244 35.4337 20.4104 35.4289C20.3965 35.4241 20.3817 35.4221 20.367 35.423ZM27.617 35.423C27.6023 35.424 27.5879 35.4278 27.5747 35.4343C27.5615 35.4407 27.5496 35.4498 27.5399 35.4608C27.5301 35.4719 27.5226 35.4847 27.5179 35.4987C27.5131 35.5126 27.5111 35.5273 27.512 35.542C27.5129 35.5568 27.5167 35.5711 27.5232 35.5844C27.5297 35.5976 27.5387 35.6094 27.5498 35.6192C27.5608 35.6289 27.5737 35.6364 27.5876 35.6412C27.6016 35.646 27.6163 35.648 27.631 35.647C27.6607 35.6452 27.6885 35.6316 27.7082 35.6093C27.7279 35.587 27.7379 35.5578 27.736 35.528C27.7342 35.4983 27.7206 35.4706 27.6983 35.4509C27.6759 35.4312 27.6467 35.4212 27.617 35.423ZM20.367 35.985C20.3522 35.986 20.3378 35.9898 20.3245 35.9963C20.3112 36.0028 20.2993 36.0119 20.2895 36.0229C20.2797 36.034 20.2722 36.047 20.2674 36.061C20.2626 36.075 20.2606 36.0898 20.2615 36.1045C20.2624 36.1193 20.2663 36.1338 20.2728 36.1471C20.2793 36.1604 20.2883 36.1722 20.2994 36.182C20.3105 36.1918 20.3234 36.1994 20.3374 36.2042C20.3514 36.209 20.3662 36.211 20.381 36.21C20.4109 36.2082 20.4387 36.1946 20.4585 36.1721C20.4783 36.1497 20.4884 36.1204 20.4865 36.0905C20.4847 36.0607 20.471 36.0328 20.4486 36.013C20.4262 35.9933 20.3969 35.9832 20.367 35.985ZM27.617 35.985C27.6022 35.986 27.5878 35.9898 27.5745 35.9963C27.5612 36.0028 27.5493 36.0119 27.5395 36.0229C27.5297 36.034 27.5222 36.047 27.5174 36.061C27.5126 36.075 27.5106 36.0898 27.5115 36.1045C27.5124 36.1193 27.5163 36.1338 27.5228 36.1471C27.5293 36.1604 27.5383 36.1722 27.5494 36.182C27.5605 36.1918 27.5734 36.1994 27.5874 36.2042C27.6014 36.209 27.6162 36.211 27.631 36.21C27.6609 36.2082 27.6887 36.1946 27.7085 36.1721C27.7283 36.1497 27.7384 36.1204 27.7365 36.0905C27.7347 36.0607 27.721 36.0328 27.6986 36.013C27.6762 35.9933 27.6469 35.9832 27.617 35.985ZM31.549 36.071C31.3389 36.0703 31.1307 36.1109 30.9363 36.1905C30.7418 36.2702 30.565 36.3874 30.4159 36.5354C30.2668 36.6834 30.1482 36.8594 30.0671 37.0532C29.986 37.247 29.9438 37.4549 29.943 37.665C29.943 38.545 30.663 39.261 31.549 39.261C31.9732 39.2618 32.3803 39.0942 32.6809 38.7949C32.9815 38.4956 33.151 38.0892 33.152 37.665C33.152 36.785 32.435 36.071 31.549 36.071ZM16.875 36.159C16.6649 36.1585 16.4567 36.1994 16.2624 36.2793C16.0681 36.3592 15.8914 36.4766 15.7425 36.6248C15.5935 36.773 15.4752 36.9491 15.3943 37.1431C15.3134 37.337 15.2715 37.5449 15.271 37.755C15.271 38.635 15.989 39.348 16.875 39.348C17.299 39.3494 17.7062 39.1824 18.0072 38.8837C18.3081 38.585 18.4782 38.179 18.48 37.755C18.48 36.875 17.76 36.159 16.875 36.159ZM31.549 36.532C32.179 36.532 32.689 37.039 32.689 37.665C32.69 38.292 32.179 38.8 31.549 38.8C30.919 38.8 30.408 38.291 30.409 37.665C30.409 37.039 30.919 36.532 31.549 36.532ZM20.367 36.548C20.3523 36.549 20.3379 36.5528 20.3247 36.5592C20.3115 36.5657 20.2996 36.5747 20.2899 36.5858C20.2801 36.5969 20.2726 36.6097 20.2679 36.6237C20.2631 36.6376 20.2611 36.6523 20.262 36.667C20.2629 36.6818 20.2667 36.6961 20.2732 36.7094C20.2797 36.7226 20.2887 36.7344 20.2998 36.7442C20.3108 36.7539 20.3237 36.7614 20.3376 36.7662C20.3516 36.771 20.3663 36.773 20.381 36.772C20.4107 36.7702 20.4385 36.7566 20.4582 36.7343C20.4779 36.712 20.4879 36.6828 20.486 36.653C20.4842 36.6233 20.4706 36.5956 20.4483 36.5759C20.4259 36.5562 20.3967 36.5462 20.367 36.548ZM27.617 36.548C27.6023 36.549 27.5879 36.5528 27.5747 36.5592C27.5615 36.5657 27.5496 36.5747 27.5399 36.5858C27.5301 36.5969 27.5226 36.6097 27.5179 36.6237C27.5131 36.6376 27.5111 36.6523 27.512 36.667C27.5129 36.6818 27.5167 36.6961 27.5232 36.7094C27.5297 36.7226 27.5387 36.7344 27.5498 36.7442C27.5608 36.7539 27.5737 36.7614 27.5876 36.7662C27.6016 36.771 27.6163 36.773 27.631 36.772C27.6607 36.7702 27.6885 36.7566 27.7082 36.7343C27.7279 36.712 27.7379 36.6828 27.736 36.653C27.7342 36.6233 27.7206 36.5956 27.6983 36.5759C27.6759 36.5562 27.6467 36.5462 27.617 36.548ZM16.875 36.62C17.505 36.62 18.017 37.128 18.018 37.755C18.018 38.382 17.506 38.89 16.875 38.89C16.245 38.89 15.735 38.381 15.736 37.755C15.736 37.129 16.246 36.62 16.875 36.62ZM20.355 37.11C20.3287 37.1142 20.3048 37.1277 20.2877 37.1481C20.2706 37.1685 20.2615 37.1944 20.262 37.221C20.262 37.2509 20.2739 37.2795 20.295 37.3006C20.3161 37.3217 20.3447 37.3335 20.3745 37.3335C20.4044 37.3335 20.433 37.3217 20.4541 37.3006C20.4752 37.2795 20.487 37.2509 20.487 37.221C20.486 37.161 20.437 37.111 20.375 37.111H20.355V37.11ZM27.605 37.11C27.5787 37.1142 27.5548 37.1277 27.5377 37.1481C27.5206 37.1685 27.5115 37.1944 27.512 37.221C27.512 37.2509 27.5239 37.2795 27.545 37.3006C27.5661 37.3217 27.5947 37.3335 27.6245 37.3335C27.6544 37.3335 27.683 37.3217 27.7041 37.3006C27.7252 37.2795 27.737 37.2509 27.737 37.221C27.736 37.161 27.687 37.111 27.625 37.111H27.605V37.11ZM20.367 37.67C20.3377 37.6711 20.3099 37.6836 20.2897 37.7049C20.2695 37.7262 20.2585 37.7546 20.259 37.784C20.2596 37.8133 20.2716 37.8413 20.2925 37.8619C20.3135 37.8824 20.3417 37.894 20.371 37.894C20.4004 37.894 20.4286 37.8824 20.4495 37.8619C20.4704 37.8413 20.4825 37.8133 20.483 37.784C20.4835 37.7546 20.4725 37.7262 20.4523 37.7049C20.4321 37.6836 20.4044 37.6711 20.375 37.67C20.3724 37.6699 20.3697 37.6699 20.367 37.67ZM27.617 37.67C27.5877 37.6711 27.5599 37.6836 27.5397 37.7049C27.5195 37.7262 27.5085 37.7546 27.509 37.784C27.5096 37.8133 27.5216 37.8413 27.5425 37.8619C27.5635 37.8824 27.5917 37.894 27.621 37.894C27.6504 37.894 27.6786 37.8824 27.6995 37.8619C27.7204 37.8413 27.7325 37.8133 27.733 37.784C27.7335 37.7546 27.7225 37.7262 27.7023 37.7049C27.6821 37.6836 27.6544 37.6711 27.625 37.67C27.6224 37.6699 27.6197 37.6699 27.617 37.67ZM24 38.192C23.7899 38.1915 23.5817 38.2324 23.3874 38.3123C23.1931 38.3922 23.0164 38.5096 22.8675 38.6578C22.7185 38.806 22.6002 38.9821 22.5193 39.1761C22.4384 39.37 22.3965 39.5779 22.396 39.788C22.396 40.668 23.114 41.382 24 41.382C24.886 41.382 25.604 40.668 25.604 39.788C25.6038 39.5778 25.562 39.3696 25.4813 39.1754C25.4005 38.9813 25.2822 38.805 25.1333 38.6566C24.9843 38.5081 24.8075 38.3905 24.6131 38.3105C24.4186 38.2304 24.2103 38.1895 24 38.19V38.192ZM20.367 38.233C20.3382 38.2348 20.3112 38.2477 20.2916 38.269C20.272 38.2902 20.2614 38.3182 20.262 38.347C20.262 38.409 20.312 38.459 20.375 38.457C20.436 38.457 20.485 38.408 20.486 38.347C20.4863 38.3316 20.4834 38.3162 20.4775 38.3019C20.4715 38.2876 20.4627 38.2747 20.4515 38.264C20.4403 38.2532 20.4271 38.245 20.4125 38.2396C20.398 38.2343 20.3825 38.2321 20.367 38.233ZM27.617 38.233C27.5882 38.2348 27.5612 38.2477 27.5416 38.269C27.522 38.2902 27.5114 38.3182 27.512 38.347C27.512 38.409 27.562 38.459 27.625 38.457C27.686 38.457 27.735 38.408 27.736 38.347C27.7363 38.3316 27.7334 38.3162 27.7275 38.3019C27.7215 38.2876 27.7127 38.2747 27.7015 38.264C27.6903 38.2532 27.6771 38.245 27.6625 38.2396C27.648 38.2343 27.6325 38.2321 27.617 38.233ZM24 38.653C24.3008 38.653 24.5892 38.7725 24.8019 38.9852C25.0145 39.1979 25.134 39.4863 25.134 39.787C25.134 40.0878 25.0145 40.3762 24.8019 40.5889C24.5892 40.8016 24.3008 40.921 24 40.921C23.6993 40.921 23.4108 40.8016 23.1982 40.5889C22.9855 40.3762 22.866 40.0878 22.866 39.787C22.866 39.4863 22.9855 39.1979 23.1982 38.9852C23.4108 38.7725 23.6993 38.653 24 38.653ZM20.367 38.796C20.3377 38.7971 20.3099 38.8096 20.2897 38.8309C20.2695 38.8522 20.2585 38.8806 20.259 38.91C20.2596 38.9393 20.2716 38.9673 20.2925 38.9879C20.3135 39.0084 20.3417 39.02 20.371 39.02C20.4004 39.02 20.4286 39.0084 20.4495 38.9879C20.4704 38.9673 20.4825 38.9393 20.483 38.91C20.4835 38.8806 20.4725 38.8522 20.4523 38.8309C20.4321 38.8096 20.4044 38.7971 20.375 38.796C20.3724 38.7958 20.3697 38.7958 20.367 38.796ZM27.617 38.796C27.5877 38.7971 27.5599 38.8096 27.5397 38.8309C27.5195 38.8522 27.5085 38.8806 27.509 38.91C27.5096 38.9393 27.5216 38.9673 27.5425 38.9879C27.5635 39.0084 27.5917 39.02 27.621 39.02C27.6504 39.02 27.6786 39.0084 27.6995 38.9879C27.7204 38.9673 27.7325 38.9393 27.733 38.91C27.7335 38.8806 27.7225 38.8522 27.7023 38.8309C27.6821 38.8096 27.6544 38.7971 27.625 38.796C27.6224 38.7958 27.6197 38.7958 27.617 38.796ZM20.367 39.358C20.3372 39.3591 20.309 39.372 20.2886 39.3938C20.2683 39.4157 20.2575 39.4447 20.2585 39.4745C20.2596 39.5044 20.2724 39.5326 20.2943 39.5529C20.3161 39.5733 20.3452 39.5841 20.375 39.583C20.3898 39.5825 20.4043 39.5791 20.4178 39.573C20.4312 39.5668 20.4433 39.5581 20.4534 39.5473C20.4635 39.5364 20.4713 39.5238 20.4765 39.5099C20.4817 39.4961 20.484 39.4813 20.4835 39.4665C20.483 39.4518 20.4796 39.4372 20.4734 39.4238C20.4673 39.4104 20.4586 39.3982 20.4477 39.3882C20.4369 39.3781 20.4242 39.3702 20.4104 39.3651C20.3965 39.3599 20.3818 39.3575 20.367 39.358ZM27.617 39.358C27.5872 39.3591 27.559 39.372 27.5386 39.3938C27.5183 39.4157 27.5075 39.4447 27.5085 39.4745C27.5096 39.5044 27.5224 39.5326 27.5443 39.5529C27.5661 39.5733 27.5952 39.5841 27.625 39.583C27.6398 39.5825 27.6543 39.5791 27.6678 39.573C27.6812 39.5668 27.6933 39.5581 27.7034 39.5473C27.7135 39.5364 27.7213 39.5238 27.7265 39.5099C27.7317 39.4961 27.734 39.4813 27.7335 39.4665C27.733 39.4518 27.7296 39.4372 27.7234 39.4238C27.7173 39.4104 27.7086 39.3982 27.6977 39.3882C27.6869 39.3781 27.6742 39.3702 27.6604 39.3651C27.6465 39.3599 27.6318 39.3575 27.617 39.358ZM31.549 39.821C31.3389 39.8203 31.1307 39.8609 30.9363 39.9405C30.7418 40.0202 30.565 40.1374 30.4159 40.2854C30.2668 40.4334 30.1482 40.6094 30.0671 40.8032C29.986 40.997 29.9438 41.2049 29.943 41.415C29.943 42.295 30.663 43.011 31.549 43.011C31.9732 43.0118 32.3803 42.8442 32.6809 42.5449C32.9815 42.2456 33.151 41.8392 33.152 41.415C33.152 40.535 32.435 39.821 31.549 39.821ZM16.875 39.909C16.6649 39.9085 16.4567 39.9494 16.2624 40.0293C16.0681 40.1092 15.8914 40.2266 15.7425 40.3748C15.5935 40.523 15.4752 40.6991 15.3943 40.8931C15.3134 41.087 15.2715 41.2949 15.271 41.505C15.271 42.385 15.989 43.098 16.875 43.098C17.299 43.0994 17.7062 42.9324 18.0072 42.6337C18.3081 42.335 18.4782 41.929 18.48 41.505C18.48 40.625 17.76 39.909 16.875 39.909ZM20.367 39.921C20.3523 39.922 20.3379 39.9258 20.3247 39.9323C20.3115 39.9387 20.2996 39.9478 20.2899 39.9588C20.2801 39.9699 20.2726 39.9827 20.2679 39.9967C20.2631 40.0106 20.2611 40.0253 20.262 40.04C20.2629 40.0548 20.2667 40.0691 20.2732 40.0824C20.2797 40.0956 20.2887 40.1074 20.2998 40.1172C20.3108 40.1269 20.3237 40.1344 20.3376 40.1392C20.3516 40.144 20.3663 40.146 20.381 40.145C20.4107 40.1432 20.4385 40.1296 20.4582 40.1073C20.4779 40.085 20.4879 40.0558 20.486 40.026C20.4842 39.9963 20.4706 39.9686 20.4483 39.9489C20.4259 39.9292 20.3967 39.9192 20.367 39.921ZM27.617 39.921C27.6023 39.922 27.5879 39.9258 27.5747 39.9323C27.5615 39.9387 27.5496 39.9478 27.5399 39.9588C27.5301 39.9699 27.5226 39.9827 27.5179 39.9967C27.5131 40.0106 27.5111 40.0253 27.512 40.04C27.5129 40.0548 27.5167 40.0691 27.5232 40.0824C27.5297 40.0956 27.5387 40.1074 27.5498 40.1172C27.5608 40.1269 27.5737 40.1344 27.5876 40.1392C27.6016 40.144 27.6163 40.146 27.631 40.145C27.6607 40.1432 27.6885 40.1296 27.7082 40.1073C27.7279 40.085 27.7379 40.0558 27.736 40.026C27.7342 39.9963 27.7206 39.9686 27.6983 39.9489C27.6759 39.9292 27.6467 39.9192 27.617 39.921ZM31.549 40.282C32.179 40.282 32.689 40.789 32.689 41.415C32.69 42.042 32.179 42.55 31.549 42.55C30.919 42.55 30.408 42.041 30.409 41.415C30.409 40.789 30.919 40.282 31.549 40.282ZM16.875 40.37C17.505 40.37 18.017 40.878 18.018 41.505C18.018 42.132 17.506 42.64 16.875 42.64C16.245 42.64 15.735 42.131 15.736 41.505C15.736 40.879 16.246 40.37 16.875 40.37ZM20.367 40.483C20.3372 40.4849 20.3093 40.4985 20.2895 40.5209C20.2697 40.5434 20.2597 40.5727 20.2615 40.6025C20.2634 40.6324 20.277 40.6603 20.2994 40.68C20.3218 40.6998 20.3512 40.7099 20.381 40.708C20.4109 40.7062 20.4387 40.6926 20.4585 40.6701C20.4783 40.6477 20.4884 40.6184 20.4865 40.5885C20.4847 40.5587 20.471 40.5308 20.4486 40.511C20.4262 40.4913 20.3969 40.4812 20.367 40.483ZM27.617 40.483C27.5872 40.4849 27.5593 40.4985 27.5395 40.5209C27.5197 40.5434 27.5097 40.5727 27.5115 40.6025C27.5134 40.6324 27.527 40.6603 27.5494 40.68C27.5718 40.6998 27.6012 40.7099 27.631 40.708C27.6609 40.7062 27.6887 40.6926 27.7085 40.6701C27.7283 40.6477 27.7384 40.6184 27.7365 40.5885C27.7347 40.5587 27.721 40.5308 27.6986 40.511C27.6762 40.4913 27.6469 40.4812 27.617 40.483ZM20.355 41.046C20.3287 41.0502 20.3048 41.0637 20.2877 41.0841C20.2706 41.1045 20.2615 41.1304 20.262 41.157C20.2599 41.173 20.2612 41.1892 20.2658 41.2047C20.2705 41.2201 20.2784 41.2343 20.289 41.2465C20.2996 41.2586 20.3127 41.2683 20.3273 41.2749C20.342 41.2816 20.3579 41.285 20.374 41.285C20.3901 41.285 20.406 41.2816 20.4207 41.2749C20.4354 41.2683 20.4485 41.2586 20.4591 41.2465C20.4697 41.2343 20.4776 41.2201 20.4822 41.2047C20.4869 41.1892 20.4882 41.173 20.486 41.157C20.486 41.096 20.436 41.047 20.375 41.046H20.355ZM27.605 41.046C27.5787 41.0502 27.5548 41.0637 27.5377 41.0841C27.5206 41.1045 27.5115 41.1304 27.512 41.157C27.5099 41.173 27.5112 41.1892 27.5158 41.2047C27.5205 41.2201 27.5284 41.2343 27.539 41.2465C27.5496 41.2586 27.5627 41.2683 27.5773 41.2749C27.592 41.2816 27.6079 41.285 27.624 41.285C27.6401 41.285 27.656 41.2816 27.6707 41.2749C27.6854 41.2683 27.6985 41.2586 27.7091 41.2465C27.7197 41.2343 27.7276 41.2201 27.7322 41.2047C27.7369 41.1892 27.7382 41.173 27.736 41.157C27.736 41.096 27.686 41.047 27.625 41.046H27.605ZM20.355 41.608C20.3285 41.6122 20.3045 41.6258 20.2873 41.6465C20.2702 41.6671 20.2612 41.6933 20.262 41.72C20.262 41.782 20.312 41.832 20.375 41.83C20.436 41.83 20.485 41.781 20.486 41.72C20.486 41.658 20.436 41.609 20.375 41.608H20.355ZM27.605 41.608C27.5785 41.6122 27.5545 41.6258 27.5373 41.6465C27.5202 41.6671 27.5112 41.6933 27.512 41.72C27.512 41.782 27.562 41.832 27.625 41.83C27.686 41.83 27.735 41.781 27.736 41.72C27.736 41.658 27.686 41.609 27.625 41.608H27.605ZM20.377 42.168C20.3622 42.1679 20.3475 42.1707 20.3337 42.1763C20.3199 42.1818 20.3074 42.19 20.2968 42.2004C20.2862 42.2108 20.2778 42.2232 20.272 42.2369C20.2662 42.2505 20.2631 42.2652 20.263 42.28C20.2629 42.2949 20.2657 42.3096 20.2712 42.3234C20.2768 42.3371 20.285 42.3497 20.2954 42.3602C20.3058 42.3708 20.3182 42.3793 20.3319 42.3851C20.3455 42.3909 20.3602 42.3939 20.375 42.394C20.4049 42.3943 20.4336 42.3827 20.4549 42.3618C20.4761 42.3409 20.4883 42.3124 20.4885 42.2825C20.4888 42.2527 20.4772 42.224 20.4563 42.2027C20.4354 42.1814 20.4069 42.1693 20.377 42.169V42.168ZM27.627 42.168C27.6122 42.1679 27.5975 42.1707 27.5837 42.1763C27.5699 42.1818 27.5574 42.19 27.5468 42.2004C27.5362 42.2108 27.5278 42.2232 27.522 42.2369C27.5162 42.2505 27.5131 42.2652 27.513 42.28C27.5129 42.2949 27.5157 42.3096 27.5212 42.3234C27.5268 42.3371 27.535 42.3497 27.5454 42.3602C27.5558 42.3708 27.5682 42.3793 27.5819 42.3851C27.5955 42.3909 27.6102 42.3939 27.625 42.394C27.6549 42.3943 27.6836 42.3827 27.7049 42.3618C27.7261 42.3409 27.7383 42.3124 27.7385 42.2825C27.7388 42.2527 27.7272 42.224 27.7063 42.2027C27.6854 42.1814 27.6569 42.1693 27.627 42.169V42.168ZM20.367 42.731C20.3377 42.7321 20.3099 42.7446 20.2897 42.7659C20.2695 42.7872 20.2585 42.8156 20.259 42.845C20.2596 42.8743 20.2716 42.9023 20.2925 42.9229C20.3135 42.9434 20.3417 42.955 20.371 42.955C20.4004 42.955 20.4286 42.9434 20.4495 42.9229C20.4704 42.9023 20.4825 42.8743 20.483 42.845C20.4835 42.8156 20.4725 42.7872 20.4523 42.7659C20.4321 42.7446 20.4044 42.7321 20.375 42.731C20.3724 42.7309 20.3697 42.7309 20.367 42.731ZM27.617 42.731C27.5877 42.7321 27.5599 42.7446 27.5397 42.7659C27.5195 42.7872 27.5085 42.8156 27.509 42.845C27.5096 42.8743 27.5216 42.9023 27.5425 42.9229C27.5635 42.9434 27.5917 42.955 27.621 42.955C27.6504 42.955 27.6786 42.9434 27.6995 42.9229C27.7204 42.9023 27.7325 42.8743 27.733 42.845C27.7335 42.8156 27.7225 42.7872 27.7023 42.7659C27.6821 42.7446 27.6544 42.7321 27.625 42.731C27.6224 42.7309 27.6197 42.7309 27.617 42.731Z" fill="#333333"/>
</svg>
