<svg width="48" height="48" viewBox="0 0 48 48" fill="none" xmlns="http://www.w3.org/2000/svg">
<path d="M23.84 4.10291C20.553 4.11091 17.32 4.12591 14.146 4.12491C13.277 4.12491 12.58 4.82391 12.58 5.69291V42.5539C12.58 43.4239 13.277 44.1239 14.146 44.1239H33.852C34.721 44.1239 35.42 43.4239 35.42 42.5539V5.69291C35.42 4.82291 34.721 4.12491 33.852 4.12491C30.466 4.09491 27.126 4.09491 23.84 4.10291ZM14.58 4.62491H33.418C34.249 4.62491 34.92 5.30591 34.92 6.15391V42.0939C34.92 42.9409 34.25 43.6239 33.418 43.6239H14.58C13.749 43.6239 13.08 42.9409 13.08 42.0939V6.15291C13.08 5.30491 13.749 4.62291 14.58 4.62291V4.62491ZM19.992 5.16491C19.9627 5.16596 19.9349 5.17848 19.9147 5.19979C19.8945 5.2211 19.8835 5.24949 19.884 5.27884C19.8846 5.30819 19.8966 5.33617 19.9175 5.35674C19.9385 5.37731 19.9667 5.38884 19.996 5.38884C20.0254 5.38884 20.0536 5.37731 20.0745 5.35674C20.0954 5.33617 20.1075 5.30819 20.108 5.27884C20.1085 5.24949 20.0975 5.2211 20.0773 5.19979C20.0571 5.17848 20.0294 5.16596 20 5.16491H19.992ZM27.992 5.16491C27.9627 5.16596 27.9349 5.17848 27.9147 5.19979C27.8945 5.2211 27.8835 5.24949 27.884 5.27884C27.8846 5.30819 27.8966 5.33617 27.9175 5.35674C27.9385 5.37731 27.9667 5.38884 27.996 5.38884C28.0254 5.38884 28.0536 5.37731 28.0745 5.35674C28.0954 5.33617 28.1075 5.30819 28.108 5.27884C28.1085 5.24949 28.0975 5.2211 28.0773 5.19979C28.0571 5.17848 28.0294 5.16596 28 5.16491H27.992ZM19.992 5.72791C19.9773 5.72883 19.9629 5.73264 19.9497 5.73911C19.9365 5.74559 19.9246 5.75461 19.9149 5.76566C19.9051 5.77671 19.8976 5.78958 19.8929 5.80352C19.8881 5.81746 19.8861 5.8322 19.887 5.84691C19.8879 5.86162 19.8917 5.876 19.8982 5.88924C19.9047 5.90247 19.9137 5.91431 19.9248 5.92406C19.9358 5.93381 19.9487 5.94128 19.9626 5.94606C19.9766 5.95084 19.9913 5.95283 20.006 5.95191C20.0357 5.95005 20.0635 5.93647 20.0832 5.91416C20.1029 5.89184 20.1129 5.86261 20.111 5.83291C20.1092 5.80321 20.0956 5.77545 20.0733 5.75576C20.0509 5.73607 20.0217 5.72605 19.992 5.72791ZM27.992 5.72791C27.9773 5.72883 27.9629 5.73264 27.9497 5.73911C27.9365 5.74559 27.9246 5.75461 27.9149 5.76566C27.9051 5.77671 27.8976 5.78958 27.8929 5.80352C27.8881 5.81746 27.8861 5.8322 27.887 5.84691C27.8879 5.86162 27.8917 5.876 27.8982 5.88924C27.9047 5.90247 27.9137 5.91431 27.9248 5.92406C27.9358 5.93381 27.9487 5.94128 27.9626 5.94606C27.9766 5.95084 27.9913 5.95283 28.006 5.95191C28.0357 5.95005 28.0635 5.93647 28.0832 5.91416C28.1029 5.89184 28.1129 5.86261 28.111 5.83291C28.1092 5.80321 28.0956 5.77545 28.0733 5.75576C28.0509 5.73607 28.0217 5.72605 27.992 5.72791ZM24.978 6.06391V6.06591C24.8534 6.06798 24.7304 6.09467 24.6161 6.14444C24.5018 6.19421 24.3984 6.26607 24.312 6.35591L22.504 8.21291C22.4168 8.30184 22.3481 8.40713 22.3017 8.52272C22.2554 8.63831 22.2323 8.76192 22.2339 8.88644C22.2355 9.01097 22.2617 9.13396 22.3109 9.24833C22.3602 9.36271 22.4316 9.46622 22.521 9.55291C22.7014 9.72786 22.9439 9.82403 23.1952 9.82028C23.4464 9.81653 23.6859 9.71317 23.861 9.53291L25.67 7.67291C25.7571 7.58391 25.8258 7.47857 25.8721 7.36295C25.9183 7.24732 25.9413 7.12369 25.9396 6.99917C25.938 6.87464 25.9117 6.75167 25.8623 6.63733C25.813 6.52299 25.7415 6.41953 25.652 6.33291C25.5629 6.24587 25.4575 6.1773 25.3419 6.13113C25.2262 6.08497 25.1025 6.06212 24.978 6.06391ZM19.982 6.29091C19.9609 6.29416 19.9411 6.30341 19.925 6.31756C19.9089 6.33171 19.8973 6.35017 19.8914 6.37076C19.8855 6.39134 19.8856 6.41319 19.8917 6.4337C19.8978 6.45422 19.9097 6.47254 19.926 6.48651C19.9422 6.50047 19.9621 6.5095 19.9833 6.5125C20.0045 6.51551 20.0261 6.51237 20.0456 6.50347C20.0651 6.49457 20.0816 6.48027 20.0932 6.46227C20.1048 6.44427 20.111 6.42332 20.111 6.40191C20.111 6.34091 20.061 6.29191 20 6.29091H19.982ZM27.982 6.29091C27.9609 6.29416 27.9411 6.30341 27.925 6.31756C27.9089 6.33171 27.8973 6.35017 27.8914 6.37076C27.8855 6.39134 27.8856 6.41319 27.8917 6.4337C27.8978 6.45422 27.9097 6.47254 27.926 6.48651C27.9422 6.50047 27.9621 6.5095 27.9833 6.5125C28.0045 6.51551 28.0261 6.51237 28.0456 6.50347C28.0651 6.49457 28.0816 6.48027 28.0932 6.46227C28.1048 6.44427 28.111 6.42332 28.111 6.40191C28.111 6.34091 28.061 6.29191 28 6.29091H27.982ZM25.043 6.54891H25.045C25.1358 6.55715 25.2215 6.59471 25.289 6.65591C25.696 7.01791 25.212 7.44091 25.037 7.62491L24.172 8.52891C23.565 9.15991 23.301 9.58691 22.877 9.17891C22.517 8.80591 22.837 8.58291 23.525 7.88391L24.391 6.98191C24.596 6.78191 24.808 6.53791 25.043 6.54891ZM20.002 6.85091C19.9872 6.85078 19.9726 6.85356 19.9589 6.85909C19.9452 6.86462 19.9327 6.8728 19.9222 6.88315C19.9116 6.89351 19.9032 6.90583 19.8975 6.91943C19.8917 6.93303 19.8886 6.94764 19.8885 6.96241C19.8884 6.97718 19.8912 6.99184 19.8967 7.00554C19.9022 7.01924 19.9104 7.03171 19.9208 7.04225C19.9311 7.05279 19.9434 7.06119 19.957 7.06696C19.9706 7.07274 19.9852 7.07578 20 7.07591C20.0299 7.07617 20.0586 7.06458 20.0799 7.04367C20.1011 7.02276 20.1133 6.99425 20.1135 6.96441C20.1138 6.93457 20.1022 6.90585 20.0813 6.88457C20.0604 6.86328 20.0319 6.85117 20.002 6.85091ZM28.002 6.85091C27.9872 6.85078 27.9726 6.85356 27.9589 6.85909C27.9452 6.86462 27.9327 6.8728 27.9222 6.88315C27.9116 6.89351 27.9032 6.90583 27.8975 6.91943C27.8917 6.93303 27.8886 6.94764 27.8885 6.96241C27.8884 6.97718 27.8912 6.99184 27.8967 7.00554C27.9022 7.01924 27.9104 7.03171 27.9208 7.04225C27.9311 7.05279 27.9434 7.06119 27.957 7.06696C27.9706 7.07274 27.9852 7.07578 28 7.07591C28.0299 7.07617 28.0586 7.06458 28.0799 7.04367C28.1011 7.02276 28.1133 6.99425 28.1135 6.96441C28.1138 6.93457 28.1022 6.90585 28.0813 6.88457C28.0604 6.86328 28.0319 6.85117 28.002 6.85091ZM19.992 7.41391C19.9634 7.4157 19.9365 7.42842 19.917 7.44945C19.8974 7.47048 19.8867 7.49821 19.887 7.52691C19.887 7.58891 19.937 7.63891 20 7.63791C20.0297 7.63685 20.0578 7.62403 20.078 7.60228C20.0983 7.58052 20.1091 7.55161 20.108 7.52191C20.107 7.4922 20.0941 7.46414 20.0724 7.44388C20.0506 7.42363 20.0217 7.41285 19.992 7.41391ZM27.992 7.41391C27.9634 7.4157 27.9365 7.42842 27.917 7.44945C27.8974 7.47048 27.8867 7.49821 27.887 7.52691C27.887 7.58891 27.937 7.63891 28 7.63791C28.0147 7.63738 28.0292 7.63397 28.0426 7.62785C28.056 7.62174 28.068 7.61305 28.078 7.60228C28.0881 7.59151 28.0959 7.57886 28.101 7.56507C28.1062 7.55129 28.1085 7.53662 28.108 7.52191C28.1075 7.5072 28.1041 7.49274 28.098 7.47935C28.0918 7.46597 28.0832 7.45391 28.0724 7.44388C28.0616 7.43386 28.049 7.42605 28.0352 7.4209C28.0214 7.41576 28.0067 7.41338 27.992 7.41391ZM19.992 7.97391C19.9627 7.97496 19.9349 7.98748 19.9147 8.00879C19.8945 8.0301 19.8835 8.05849 19.884 8.08784C19.8846 8.11719 19.8966 8.14517 19.9175 8.16574C19.9385 8.18631 19.9667 8.19784 19.996 8.19784C20.0254 8.19784 20.0536 8.18631 20.0745 8.16574C20.0954 8.14517 20.1075 8.11719 20.108 8.08784C20.1085 8.05849 20.0975 8.0301 20.0773 8.00879C20.0571 7.98748 20.0294 7.97496 20 7.97391H19.992ZM27.992 7.97391C27.9627 7.97496 27.9349 7.98748 27.9147 8.00879C27.8945 8.0301 27.8835 8.05849 27.884 8.08784C27.8846 8.11719 27.8966 8.14517 27.9175 8.16574C27.9385 8.18631 27.9667 8.19784 27.996 8.19784C28.0254 8.19784 28.0536 8.18631 28.0745 8.16574C28.0954 8.14517 28.1075 8.11719 28.108 8.08784C28.1085 8.05849 28.0975 8.0301 28.0773 8.00879C28.0571 7.98748 28.0294 7.97496 28 7.97391H27.992ZM19.992 8.53691C19.9627 8.53796 19.9349 8.55048 19.9147 8.57179C19.8945 8.5931 19.8835 8.62148 19.884 8.65084C19.8846 8.68019 19.8966 8.70817 19.9175 8.72874C19.9385 8.74931 19.9667 8.76084 19.996 8.76084C20.0254 8.76084 20.0536 8.74931 20.0745 8.72874C20.0954 8.70817 20.1075 8.68019 20.108 8.65084C20.1085 8.62148 20.0975 8.5931 20.0773 8.57179C20.0571 8.55048 20.0294 8.53796 20 8.53691H19.992ZM27.992 8.53691C27.9627 8.53796 27.9349 8.55048 27.9147 8.57179C27.8945 8.5931 27.8835 8.62148 27.884 8.65084C27.8846 8.68019 27.8966 8.70817 27.9175 8.72874C27.9385 8.74931 27.9667 8.76084 27.996 8.76084C28.0254 8.76084 28.0536 8.74931 28.0745 8.72874C28.0954 8.70817 28.1075 8.68019 28.108 8.65084C28.1085 8.62148 28.0975 8.5931 28.0773 8.57179C28.0571 8.55048 28.0294 8.53796 28 8.53691H27.992ZM19.992 9.09891C19.9622 9.10077 19.9343 9.1144 19.9145 9.13681C19.8947 9.15922 19.8847 9.18857 19.8865 9.21841C19.8884 9.24825 19.902 9.27612 19.9244 9.29591C19.9468 9.31569 19.9762 9.32577 20.006 9.32391C20.0208 9.32299 20.0352 9.31917 20.0485 9.31267C20.0618 9.30616 20.0737 9.29711 20.0835 9.28601C20.0933 9.27491 20.1008 9.262 20.1056 9.24799C20.1104 9.23399 20.1124 9.21918 20.1115 9.20441C20.1106 9.18964 20.1068 9.17519 20.1003 9.16189C20.0938 9.14859 20.0847 9.13671 20.0736 9.12691C20.0625 9.11711 20.0496 9.1096 20.0356 9.10479C20.0216 9.09999 20.0068 9.09799 19.992 9.09891ZM27.992 9.09891C27.9622 9.10077 27.9343 9.1144 27.9145 9.13681C27.8947 9.15922 27.8847 9.18857 27.8865 9.21841C27.8884 9.24825 27.902 9.27612 27.9244 9.29591C27.9468 9.31569 27.9762 9.32577 28.006 9.32391C28.0208 9.32299 28.0352 9.31917 28.0485 9.31267C28.0618 9.30616 28.0737 9.29711 28.0835 9.28601C28.0933 9.27491 28.1008 9.262 28.1056 9.24799C28.1104 9.23399 28.1124 9.21918 28.1115 9.20441C28.1106 9.18964 28.1068 9.17519 28.1003 9.16189C28.0938 9.14859 28.0847 9.13671 28.0736 9.12691C28.0625 9.11711 28.0496 9.1096 28.0356 9.10479C28.0216 9.09999 28.0068 9.09799 27.992 9.09891ZM19.992 9.66191C19.9627 9.66296 19.9349 9.67548 19.9147 9.69679C19.8945 9.7181 19.8835 9.74648 19.884 9.77584C19.8846 9.80519 19.8966 9.83317 19.9175 9.85374C19.9385 9.87431 19.9667 9.88584 19.996 9.88584C20.0254 9.88584 20.0536 9.87431 20.0745 9.85374C20.0954 9.83317 20.1075 9.80519 20.108 9.77584C20.1085 9.74648 20.0975 9.7181 20.0773 9.69679C20.0571 9.67548 20.0294 9.66296 20 9.66191H19.992ZM27.992 9.66191C27.9627 9.66296 27.9349 9.67548 27.9147 9.69679C27.8945 9.7181 27.8835 9.74648 27.884 9.77584C27.8846 9.80519 27.8966 9.83317 27.9175 9.85374C27.9385 9.87431 27.9667 9.88584 27.996 9.88584C28.0254 9.88584 28.0536 9.87431 28.0745 9.85374C28.0954 9.83317 28.1075 9.80519 28.108 9.77584C28.1085 9.74648 28.0975 9.7181 28.0773 9.69679C28.0571 9.67548 28.0294 9.66296 28 9.66191H27.992ZM19.98 10.2239C19.9535 10.2287 19.9295 10.2428 19.9124 10.2637C19.8954 10.2846 19.8864 10.3109 19.887 10.3379C19.8849 10.3539 19.8862 10.3701 19.8908 10.3855C19.8955 10.401 19.9034 10.4152 19.914 10.4273C19.9246 10.4394 19.9377 10.4492 19.9523 10.4558C19.967 10.4625 19.9829 10.4659 19.999 10.4659C20.0151 10.4659 20.031 10.4625 20.0457 10.4558C20.0604 10.4492 20.0735 10.4394 20.0841 10.4273C20.0947 10.4152 20.1026 10.401 20.1072 10.3855C20.1119 10.3701 20.1132 10.3539 20.111 10.3379C20.111 10.3082 20.0994 10.2796 20.0787 10.2583C20.058 10.237 20.0297 10.2247 20 10.2239H19.98ZM27.98 10.2239C27.9535 10.2287 27.9295 10.2428 27.9124 10.2637C27.8954 10.2846 27.8864 10.3109 27.887 10.3379C27.8849 10.3539 27.8862 10.3701 27.8908 10.3855C27.8955 10.401 27.9034 10.4152 27.914 10.4273C27.9246 10.4394 27.9377 10.4492 27.9523 10.4558C27.967 10.4625 27.9829 10.4659 27.999 10.4659C28.0151 10.4659 28.031 10.4625 28.0457 10.4558C28.0604 10.4492 28.0735 10.4394 28.0841 10.4273C28.0947 10.4152 28.1026 10.401 28.1072 10.3855C28.1119 10.3701 28.1132 10.3539 28.111 10.3379C28.111 10.3082 28.0994 10.2796 28.0787 10.2583C28.058 10.237 28.0297 10.2247 28 10.2239H27.98ZM20.002 10.7839C19.987 10.784 19.9721 10.7872 19.9582 10.7931C19.9444 10.799 19.9318 10.8076 19.9213 10.8184C19.9108 10.8291 19.9026 10.8419 19.897 10.8559C19.8915 10.8699 19.8888 10.8849 19.889 10.8999C19.889 10.9619 19.939 11.0099 20.002 11.0099C20.0165 11.01 20.031 11.0073 20.0444 11.0018C20.0579 10.9964 20.0701 10.9883 20.0804 10.978C20.0908 10.9678 20.099 10.9556 20.1045 10.9422C20.1101 10.9288 20.113 10.9144 20.113 10.8999C20.1133 10.87 20.1018 10.8412 20.081 10.8197C20.0603 10.7982 20.0319 10.7857 20.002 10.7849V10.7839ZM28.002 10.7839C27.987 10.784 27.9721 10.7872 27.9582 10.7931C27.9444 10.799 27.9318 10.8076 27.9213 10.8184C27.9108 10.8291 27.9026 10.8419 27.897 10.8559C27.8915 10.8699 27.8888 10.8849 27.889 10.8999C27.889 10.9619 27.939 11.0099 28.002 11.0099C28.0165 11.01 28.031 11.0073 28.0444 11.0018C28.0579 10.9964 28.0701 10.9883 28.0804 10.978C28.0908 10.9678 28.099 10.9556 28.1045 10.9422C28.1101 10.9288 28.113 10.9144 28.113 10.8999C28.1133 10.87 28.1018 10.8412 28.081 10.8197C28.0603 10.7982 28.0319 10.7857 28.002 10.7849V10.7839ZM24.979 11.3239V11.3259C24.8544 11.3279 24.7315 11.3544 24.6172 11.404C24.5029 11.4536 24.3995 11.5253 24.313 11.6149L22.503 13.4719C22.4159 13.5609 22.3472 13.6662 22.301 13.7819C22.2547 13.8975 22.2317 14.0211 22.2334 14.1457C22.2351 14.2702 22.2614 14.3931 22.3107 14.5075C22.3601 14.6218 22.4315 14.7253 22.521 14.8119C22.7014 14.9869 22.9439 15.083 23.1952 15.0793C23.4464 15.0755 23.6859 14.9722 23.861 14.7919L25.67 12.9329C25.8024 12.7993 25.892 12.6292 25.9271 12.4443C25.9623 12.2595 25.9415 12.0684 25.8674 11.8955C25.7933 11.7225 25.6692 11.5757 25.5111 11.4737C25.3531 11.3717 25.1681 11.3192 24.98 11.3229H24.978L24.979 11.3239ZM20.002 11.3469C19.9872 11.3468 19.9726 11.3496 19.9589 11.3551C19.9452 11.3606 19.9327 11.3688 19.9222 11.3792C19.9009 11.4001 19.8888 11.4286 19.8885 11.4584C19.8883 11.4882 19.8999 11.517 19.9208 11.5383C19.9417 11.5595 19.9702 11.5716 20 11.5719C20.0299 11.5722 20.0586 11.5606 20.0799 11.5397C20.1011 11.5188 20.1133 11.4902 20.1135 11.4604C20.1138 11.4306 20.1022 11.4019 20.0813 11.3806C20.0604 11.3593 20.0319 11.3472 20.002 11.3469ZM28.002 11.3469C27.9872 11.3468 27.9726 11.3496 27.9589 11.3551C27.9452 11.3606 27.9327 11.3688 27.9222 11.3792C27.9116 11.3895 27.9032 11.4018 27.8975 11.4154C27.8917 11.429 27.8886 11.4436 27.8885 11.4584C27.8884 11.4732 27.8912 11.4878 27.8967 11.5015C27.9022 11.5152 27.9104 11.5277 27.9208 11.5383C27.9311 11.5488 27.9434 11.5572 27.957 11.563C27.9706 11.5687 27.9852 11.5718 28 11.5719C28.0299 11.5722 28.0586 11.5606 28.0799 11.5397C28.1011 11.5188 28.1133 11.4902 28.1135 11.4604C28.1138 11.4306 28.1022 11.4019 28.0813 11.3806C28.0604 11.3593 28.0319 11.3472 28.002 11.3469ZM17.532 11.5619V11.5639C17.4072 11.5659 17.284 11.5925 17.1695 11.6422C17.0551 11.692 16.9516 11.764 16.865 11.8539L15.057 13.7109C14.886 13.8918 14.793 14.1327 14.7983 14.3815C14.8035 14.6304 14.9065 14.8672 15.085 15.0407C15.2635 15.2142 15.5031 15.3104 15.752 15.3086C16.0009 15.3068 16.2391 15.207 16.415 15.0309L18.223 13.1709C18.3101 13.0819 18.3788 12.9766 18.4251 12.8609C18.4713 12.7453 18.4943 12.6217 18.4926 12.4972C18.491 12.3726 18.4647 12.2497 18.4153 12.1353C18.366 12.021 18.2945 11.9175 18.205 11.8309C18.1159 11.7439 18.0105 11.6753 17.8949 11.6291C17.7792 11.583 17.6555 11.5601 17.531 11.5619H17.532ZM32.25 11.5619V11.5639C32.1254 11.5659 32.0023 11.5926 31.888 11.6424C31.7737 11.6921 31.6704 11.764 31.584 11.8539L29.775 13.7109C29.6838 13.799 29.6113 13.9046 29.5617 14.0213C29.5121 14.138 29.4864 14.2635 29.4862 14.3903C29.486 14.5171 29.5113 14.6427 29.5606 14.7595C29.6098 14.8764 29.682 14.9822 29.7729 15.0706C29.8638 15.159 29.9715 15.2283 30.0897 15.2743C30.2079 15.3203 30.3341 15.3421 30.4609 15.3384C30.5876 15.3347 30.7123 15.3055 30.8276 15.2527C30.9429 15.1999 31.0464 15.1245 31.132 15.0309L32.942 13.1709C33.0291 13.0819 33.0978 12.9766 33.1441 12.8609C33.1903 12.7453 33.2133 12.6217 33.2116 12.4972C33.21 12.3726 33.1837 12.2497 33.1343 12.1353C33.085 12.021 33.0135 11.9175 32.924 11.8309C32.8349 11.7439 32.7295 11.6753 32.6139 11.6291C32.4982 11.583 32.3745 11.5601 32.25 11.5619ZM25.043 11.8059V11.8079C25.1342 11.8163 25.2203 11.8534 25.289 11.9139C25.696 12.2749 25.212 12.6989 25.037 12.8829L24.172 13.7869C23.565 14.4179 23.301 14.8449 22.877 14.4369C22.517 14.0639 22.835 13.8409 23.523 13.1419L24.389 12.2379C24.594 12.0369 24.807 11.7949 25.043 11.8059ZM19.993 11.9099C19.9657 11.9144 19.9409 11.9287 19.9233 11.9502C19.9058 11.9716 19.8966 11.9987 19.8976 12.0264C19.8986 12.0541 19.9096 12.0805 19.9287 12.1007C19.9477 12.1208 19.9734 12.1334 20.001 12.1359C20.061 12.1359 20.111 12.0839 20.111 12.0229C20.1112 12.0075 20.1082 11.9922 20.1022 11.9781C20.0962 11.9639 20.0873 11.9511 20.0761 11.9405C20.065 11.9299 20.0517 11.9217 20.0373 11.9164C20.0228 11.9112 20.0074 11.9089 19.992 11.9099H19.993ZM27.993 11.9099C27.9657 11.9144 27.9409 11.9287 27.9233 11.9502C27.9058 11.9716 27.8966 11.9987 27.8976 12.0264C27.8986 12.0541 27.9096 12.0805 27.9287 12.1007C27.9477 12.1208 27.9734 12.1334 28.001 12.1359C28.061 12.1359 28.111 12.0839 28.111 12.0229C28.1112 12.0075 28.1082 11.9922 28.1022 11.9781C28.0962 11.9639 28.0873 11.9511 28.0761 11.9405C28.065 11.9299 28.0517 11.9217 28.0373 11.9164C28.0228 11.9112 28.0074 11.9089 27.992 11.9099H27.993ZM17.596 12.0469H17.598C17.6888 12.0552 17.7745 12.0927 17.842 12.1539C18.248 12.5159 17.765 12.9389 17.59 13.1229L16.725 14.0269C16.117 14.6579 15.853 15.0849 15.43 14.6769C15.07 14.3039 15.39 14.0819 16.078 13.3829L16.943 12.4799C17.148 12.2799 17.36 12.0359 17.596 12.0469ZM32.315 12.0469H32.316C32.4068 12.0552 32.4925 12.0927 32.56 12.1539C32.967 12.5159 32.484 12.9389 32.309 13.1229L31.443 14.0269C30.836 14.6579 30.573 15.0849 30.148 14.6769C29.788 14.3039 30.108 14.0819 30.797 13.3829L31.662 12.4799C31.867 12.2799 32.079 12.0359 32.315 12.0469ZM19.992 12.4719C19.9647 12.4764 19.9399 12.4907 19.9223 12.5122C19.9048 12.5336 19.8956 12.5607 19.8966 12.5884C19.8976 12.6161 19.9086 12.6425 19.9277 12.6627C19.9467 12.6828 19.9724 12.6954 20 12.6979C20.061 12.6979 20.11 12.6469 20.111 12.5859C20.1113 12.5704 20.1084 12.555 20.1025 12.5407C20.0965 12.5264 20.0877 12.5135 20.0765 12.5028C20.0653 12.4921 20.0521 12.4838 20.0375 12.4785C20.023 12.4732 20.0075 12.4709 19.992 12.4719ZM27.992 12.4719C27.9647 12.4764 27.9399 12.4907 27.9223 12.5122C27.9048 12.5336 27.8956 12.5607 27.8966 12.5884C27.8976 12.6161 27.9086 12.6425 27.9277 12.6627C27.9467 12.6828 27.9724 12.6954 28 12.6979C28.061 12.6979 28.11 12.6469 28.111 12.5859C28.1113 12.5704 28.1084 12.555 28.1025 12.5407C28.0965 12.5264 28.0877 12.5135 28.0765 12.5028C28.0653 12.4921 28.0521 12.4838 28.0375 12.4785C28.023 12.4732 28.0075 12.4709 27.992 12.4719ZM19.992 13.0349C19.9699 13.0363 19.9487 13.0441 19.9311 13.0574C19.9134 13.0707 19.9 13.0889 19.8926 13.1098C19.8852 13.1306 19.884 13.1532 19.8893 13.1747C19.8946 13.1962 19.9061 13.2156 19.9223 13.2306C19.9385 13.2457 19.9588 13.2556 19.9807 13.2592C20.0025 13.2628 20.0249 13.2599 20.0451 13.2509C20.0653 13.2418 20.0824 13.2271 20.0943 13.2084C20.1062 13.1898 20.1124 13.168 20.112 13.1459C20.1119 13.1306 20.1087 13.1154 20.1025 13.1014C20.0963 13.0874 20.0873 13.0748 20.0761 13.0644C20.0648 13.054 20.0516 13.046 20.0371 13.0409C20.0226 13.0359 20.0073 13.0338 19.992 13.0349ZM27.992 13.0349C27.9699 13.0363 27.9487 13.0441 27.9311 13.0574C27.9134 13.0707 27.9 13.0889 27.8926 13.1098C27.8852 13.1306 27.884 13.1532 27.8893 13.1747C27.8946 13.1962 27.9061 13.2156 27.9223 13.2306C27.9385 13.2457 27.9588 13.2556 27.9807 13.2592C28.0025 13.2628 28.0249 13.2599 28.0451 13.2509C28.0653 13.2418 28.0824 13.2271 28.0943 13.2084C28.1062 13.1898 28.1124 13.168 28.112 13.1459C28.1119 13.1306 28.1087 13.1154 28.1025 13.1014C28.0963 13.0874 28.0873 13.0748 28.0761 13.0644C28.0648 13.054 28.0516 13.046 28.0371 13.0409C28.0226 13.0359 28.0073 13.0338 27.992 13.0349ZM19.992 13.5969C19.9622 13.5988 19.9343 13.6124 19.9145 13.6348C19.8947 13.6572 19.8847 13.6866 19.8865 13.7164C19.8884 13.7462 19.902 13.7741 19.9244 13.7939C19.9468 13.8137 19.9762 13.8238 20.006 13.8219C20.0208 13.821 20.0352 13.8172 20.0485 13.8107C20.0618 13.8042 20.0737 13.7951 20.0835 13.784C20.0933 13.7729 20.1008 13.76 20.1056 13.746C20.1104 13.732 20.1124 13.7172 20.1115 13.7024C20.1106 13.6876 20.1068 13.6732 20.1003 13.6599C20.0938 13.6466 20.0847 13.6347 20.0736 13.6249C20.0625 13.6151 20.0496 13.6076 20.0356 13.6028C20.0216 13.598 20.0068 13.596 19.992 13.5969ZM27.992 13.5969C27.9622 13.5988 27.9343 13.6124 27.9145 13.6348C27.8947 13.6572 27.8847 13.6866 27.8865 13.7164C27.8884 13.7462 27.902 13.7741 27.9244 13.7939C27.9468 13.8137 27.9762 13.8238 28.006 13.8219C28.0208 13.821 28.0352 13.8172 28.0485 13.8107C28.0618 13.8042 28.0737 13.7951 28.0835 13.784C28.0933 13.7729 28.1008 13.76 28.1056 13.746C28.1104 13.732 28.1124 13.7172 28.1115 13.7024C28.1106 13.6876 28.1068 13.6732 28.1003 13.6599C28.0938 13.6466 28.0847 13.6347 28.0736 13.6249C28.0625 13.6151 28.0496 13.6076 28.0356 13.6028C28.0216 13.598 28.0068 13.596 27.992 13.5969ZM19.992 14.1599C19.9773 14.1608 19.9629 14.1646 19.9497 14.1711C19.9365 14.1776 19.9246 14.1866 19.9149 14.1977C19.9051 14.2087 19.8976 14.2216 19.8929 14.2355C19.8881 14.2495 19.8861 14.2642 19.887 14.2789C19.8879 14.2936 19.8917 14.308 19.8982 14.3212C19.9047 14.3345 19.9137 14.3463 19.9248 14.3561C19.9358 14.3658 19.9487 14.3733 19.9626 14.3781C19.9766 14.3828 19.9913 14.3848 20.006 14.3839C20.0357 14.3821 20.0635 14.3685 20.0832 14.3462C20.1029 14.3238 20.1129 14.2946 20.111 14.2649C20.1092 14.2352 20.0956 14.2075 20.0733 14.1878C20.0509 14.1681 20.0217 14.1581 19.992 14.1599ZM27.992 14.1599C27.9773 14.1608 27.9629 14.1646 27.9497 14.1711C27.9365 14.1776 27.9246 14.1866 27.9149 14.1977C27.9051 14.2087 27.8976 14.2216 27.8929 14.2355C27.8881 14.2495 27.8861 14.2642 27.887 14.2789C27.8879 14.2936 27.8917 14.308 27.8982 14.3212C27.9047 14.3345 27.9137 14.3463 27.9248 14.3561C27.9358 14.3658 27.9487 14.3733 27.9626 14.3781C27.9766 14.3828 27.9913 14.3848 28.006 14.3839C28.0357 14.3821 28.0635 14.3685 28.0832 14.3462C28.1029 14.3238 28.1129 14.2946 28.111 14.2649C28.1092 14.2352 28.0956 14.2075 28.0733 14.1878C28.0509 14.1681 28.0217 14.1581 27.992 14.1599ZM19.98 14.7219C19.9536 14.7262 19.9297 14.74 19.9126 14.7605C19.8955 14.7811 19.8864 14.8072 19.887 14.8339C19.887 14.8569 19.8941 14.8794 19.9073 14.8983C19.9204 14.9172 19.939 14.9316 19.9606 14.9397C19.9822 14.9477 20.0057 14.949 20.028 14.9432C20.0503 14.9375 20.0704 14.9252 20.0854 14.9077C20.1005 14.8903 20.1099 14.8687 20.1124 14.8458C20.1148 14.823 20.1102 14.7999 20.0992 14.7796C20.0882 14.7594 20.0712 14.7431 20.0506 14.7327C20.0301 14.7224 20.0068 14.7186 19.984 14.7219H19.98ZM27.98 14.7219C27.9536 14.7262 27.9297 14.74 27.9126 14.7605C27.8955 14.7811 27.8864 14.8072 27.887 14.8339C27.887 14.8569 27.8941 14.8794 27.9073 14.8983C27.9204 14.9172 27.939 14.9316 27.9606 14.9397C27.9822 14.9477 28.0057 14.949 28.028 14.9432C28.0503 14.9375 28.0704 14.9252 28.0854 14.9077C28.1005 14.8903 28.1099 14.8687 28.1124 14.8458C28.1148 14.823 28.1102 14.7999 28.0992 14.7796C28.0882 14.7594 28.0712 14.7431 28.0506 14.7327C28.0301 14.7224 28.0068 14.7186 27.984 14.7219H27.98ZM19.98 15.2849C19.9589 15.2883 19.9393 15.2977 19.9233 15.312C19.9074 15.3262 19.8959 15.3447 19.8902 15.3653C19.8844 15.3859 19.8847 15.4077 19.8909 15.4281C19.8971 15.4485 19.909 15.4668 19.9253 15.4806C19.9415 15.4945 19.9614 15.5034 19.9826 15.5064C20.0037 15.5093 20.0253 15.5062 20.0447 15.4973C20.0641 15.4884 20.0806 15.4741 20.0922 15.4561C20.1037 15.4382 20.1099 15.4173 20.11 15.3959C20.11 15.3349 20.061 15.2859 20 15.2849H19.98ZM27.98 15.2849C27.9589 15.2883 27.9393 15.2977 27.9233 15.312C27.9074 15.3262 27.8959 15.3447 27.8902 15.3653C27.8844 15.3859 27.8847 15.4077 27.8909 15.4281C27.8971 15.4485 27.909 15.4668 27.9253 15.4806C27.9415 15.4945 27.9614 15.5034 27.9826 15.5064C28.0037 15.5093 28.0253 15.5062 28.0447 15.4973C28.0641 15.4884 28.0806 15.4741 28.0922 15.4561C28.1037 15.4382 28.1099 15.4173 28.11 15.3959C28.11 15.3349 28.061 15.2859 28 15.2849H27.98ZM20.002 15.8449C19.9872 15.8448 19.9726 15.8476 19.9589 15.8531C19.9452 15.8586 19.9327 15.8668 19.9222 15.8772C19.9116 15.8875 19.9032 15.8998 19.8975 15.9134C19.8917 15.927 19.8886 15.9416 19.8885 15.9564C19.8884 15.9712 19.8912 15.9858 19.8967 15.9995C19.9022 16.0132 19.9104 16.0257 19.9208 16.0363C19.9311 16.0468 19.9434 16.0552 19.957 16.061C19.9706 16.0667 19.9852 16.0698 20 16.0699C20.0299 16.0702 20.0586 16.0586 20.0799 16.0377C20.1011 16.0168 20.1133 15.9882 20.1135 15.9584C20.1138 15.9286 20.1022 15.8999 20.0813 15.8786C20.0604 15.8573 20.0319 15.8452 20.002 15.8449ZM28.002 15.8449C27.9872 15.8448 27.9726 15.8476 27.9589 15.8531C27.9452 15.8586 27.9327 15.8668 27.9222 15.8772C27.9116 15.8875 27.9032 15.8998 27.8975 15.9134C27.8917 15.927 27.8886 15.9416 27.8885 15.9564C27.8884 15.9712 27.8912 15.9858 27.8967 15.9995C27.9022 16.0132 27.9104 16.0257 27.9208 16.0363C27.9311 16.0468 27.9434 16.0552 27.957 16.061C27.9706 16.0667 27.9852 16.0698 28 16.0699C28.0299 16.0702 28.0586 16.0586 28.0799 16.0377C28.1011 16.0168 28.1133 15.9882 28.1135 15.9584C28.1138 15.9286 28.1022 15.8999 28.0813 15.8786C28.0604 15.8573 28.0319 15.8452 28.002 15.8449ZM19.992 16.4079C19.9634 16.4097 19.9365 16.4224 19.917 16.4435C19.8974 16.4645 19.8867 16.4922 19.887 16.5209C19.887 16.5829 19.937 16.6339 20 16.6319C20.0147 16.6314 20.0292 16.628 20.0426 16.6219C20.056 16.6157 20.068 16.607 20.078 16.5963C20.0881 16.5855 20.0959 16.5729 20.101 16.5591C20.1062 16.5453 20.1085 16.5306 20.108 16.5159C20.1075 16.5012 20.1041 16.4867 20.098 16.4734C20.0918 16.46 20.0832 16.4479 20.0724 16.4379C20.0616 16.4279 20.049 16.42 20.0352 16.4149C20.0214 16.4098 20.0067 16.4074 19.992 16.4079ZM27.992 16.4079C27.9634 16.4097 27.9365 16.4224 27.917 16.4435C27.8974 16.4645 27.8867 16.4922 27.887 16.5209C27.887 16.5829 27.937 16.6339 28 16.6319C28.0147 16.6314 28.0292 16.628 28.0426 16.6219C28.056 16.6157 28.068 16.607 28.078 16.5963C28.0881 16.5855 28.0959 16.5729 28.101 16.5591C28.1062 16.5453 28.1085 16.5306 28.108 16.5159C28.1075 16.5012 28.1041 16.4867 28.098 16.4734C28.0918 16.46 28.0832 16.4479 28.0724 16.4379C28.0616 16.4279 28.049 16.42 28.0352 16.4149C28.0214 16.4098 28.0067 16.4074 27.992 16.4079ZM24.98 16.5819V16.5839C24.8554 16.5858 24.7325 16.6123 24.6182 16.6619C24.5039 16.7115 24.4005 16.7832 24.314 16.8729L22.506 18.7299C22.4193 18.819 22.3511 18.9243 22.3051 19.0398C22.2591 19.1553 22.2363 19.2787 22.2381 19.403C22.2398 19.5273 22.266 19.65 22.3151 19.7642C22.3643 19.8784 22.4354 19.9817 22.5245 20.0684C22.7045 20.2435 22.9466 20.3398 23.1976 20.3364C23.3219 20.3347 23.4446 20.3085 23.5588 20.2593C23.673 20.2102 23.7763 20.139 23.863 20.0499L25.672 18.1909C25.7591 18.1019 25.8278 17.9966 25.8741 17.8809C25.9203 17.7653 25.9433 17.6417 25.9416 17.5172C25.94 17.3926 25.9137 17.2697 25.8643 17.1553C25.815 17.041 25.7435 16.9375 25.654 16.8509C25.565 16.7637 25.4597 16.6949 25.344 16.6486C25.2283 16.6023 25.1046 16.5793 24.98 16.5809V16.5819ZM17.531 16.8219V16.8239C17.4064 16.8259 17.2835 16.8524 17.1692 16.902C17.0549 16.9516 16.9515 17.0233 16.865 17.1129L15.057 18.9699C14.9684 19.0587 14.8982 19.1641 14.8507 19.2802C14.8031 19.3963 14.7791 19.5207 14.78 19.6462C14.7809 19.7716 14.8068 19.8956 14.856 20.011C14.9053 20.1264 14.977 20.2308 15.0669 20.3183C15.1569 20.4057 15.2633 20.4744 15.38 20.5204C15.4968 20.5663 15.6215 20.5886 15.7469 20.586C15.8723 20.5834 15.996 20.5558 16.1107 20.505C16.2254 20.4542 16.3288 20.3811 16.415 20.2899L18.223 18.4309C18.3551 18.2972 18.4443 18.1272 18.4793 17.9425C18.5142 17.7579 18.4934 17.567 18.4193 17.3943C18.3452 17.2216 18.2213 17.0749 18.0635 16.9729C17.9056 16.8709 17.7209 16.8184 17.533 16.8219H17.531ZM32.25 16.8219V16.8239C32.1254 16.8258 32.0025 16.8523 31.8882 16.9019C31.7739 16.9515 31.6705 17.0232 31.584 17.1129L29.775 18.9699C29.6838 19.058 29.6113 19.1636 29.5617 19.2803C29.5121 19.397 29.4864 19.5225 29.4862 19.6493C29.486 19.7761 29.5113 19.9017 29.5606 20.0185C29.6098 20.1354 29.682 20.2412 29.7729 20.3296C29.8638 20.418 29.9715 20.4873 30.0897 20.5333C30.2079 20.5793 30.3341 20.6011 30.4609 20.5974C30.5876 20.5937 30.7123 20.5645 30.8276 20.5117C30.9429 20.4589 31.0464 20.3835 31.132 20.2899L32.942 18.4309C33.0741 18.2972 33.1633 18.1272 33.1983 17.9425C33.2332 17.7579 33.2124 17.567 33.1383 17.3943C33.0642 17.2216 32.9403 17.0749 32.7825 16.9729C32.6246 16.8709 32.4399 16.8184 32.252 16.8219H32.25ZM19.992 16.9699C19.9632 16.9717 19.9362 16.9846 19.9166 17.0058C19.897 17.0271 19.8864 17.055 19.887 17.0839C19.887 17.1459 19.937 17.1959 20 17.1949C20.061 17.1949 20.11 17.1449 20.111 17.0839C20.1113 17.0684 20.1084 17.053 20.1025 17.0387C20.0965 17.0244 20.0877 17.0115 20.0765 17.0008C20.0653 16.9901 20.0521 16.9818 20.0375 16.9765C20.023 16.9712 20.0075 16.9689 19.992 16.9699ZM27.992 16.9699C27.9632 16.9717 27.9362 16.9846 27.9166 17.0058C27.897 17.0271 27.8864 17.055 27.887 17.0839C27.887 17.1459 27.937 17.1959 28 17.1949C28.061 17.1949 28.11 17.1449 28.111 17.0839C28.1113 17.0684 28.1084 17.053 28.1025 17.0387C28.0965 17.0244 28.0877 17.0115 28.0765 17.0008C28.0653 16.9901 28.0521 16.9818 28.0375 16.9765C28.023 16.9712 28.0075 16.9689 27.992 16.9699ZM25.045 17.0659V17.0679C25.124 17.0719 25.205 17.1059 25.289 17.1729C25.696 17.5349 25.214 17.9569 25.039 18.1399L24.174 19.0449C23.567 19.6759 23.303 20.1029 22.879 19.6949C22.519 19.3219 22.837 19.1009 23.525 18.4019L24.391 17.4979C24.596 17.2969 24.809 17.0539 25.045 17.0659ZM17.595 17.3039V17.3059C17.6865 17.3141 17.773 17.3512 17.842 17.4119C18.248 17.7729 17.765 18.1969 17.59 18.3809L16.725 19.2849C16.117 19.9159 15.853 20.3429 15.43 19.9349C15.07 19.5619 15.388 19.3389 16.076 18.6399L16.941 17.7359C17.147 17.5349 17.359 17.2929 17.596 17.3039H17.595ZM32.315 17.3039V17.3059C32.4058 17.3145 32.4916 17.3516 32.56 17.4119C32.967 17.7729 32.484 18.1969 32.309 18.3809L31.443 19.2849C30.836 19.9159 30.573 20.3429 30.148 19.9349C29.788 19.5619 30.107 19.3389 30.795 18.6399L31.66 17.7359C31.866 17.5349 32.078 17.2929 32.315 17.3039ZM19.992 17.5329C19.9773 17.5338 19.9629 17.5376 19.9497 17.5441C19.9365 17.5506 19.9246 17.5596 19.9149 17.5707C19.9051 17.5817 19.8976 17.5946 19.8929 17.6085C19.8881 17.6225 19.8861 17.6372 19.887 17.6519C19.8879 17.6666 19.8917 17.681 19.8982 17.6942C19.9047 17.7075 19.9137 17.7193 19.9248 17.7291C19.9358 17.7388 19.9487 17.7463 19.9626 17.7511C19.9766 17.7558 19.9913 17.7578 20.006 17.7569C20.0357 17.7551 20.0635 17.7415 20.0832 17.7192C20.1029 17.6968 20.1129 17.6676 20.111 17.6379C20.1092 17.6082 20.0956 17.5805 20.0733 17.5608C20.0509 17.5411 20.0217 17.5311 19.992 17.5329ZM27.992 17.5329C27.9773 17.5338 27.9629 17.5376 27.9497 17.5441C27.9365 17.5506 27.9246 17.5596 27.9149 17.5707C27.9051 17.5817 27.8976 17.5946 27.8929 17.6085C27.8881 17.6225 27.8861 17.6372 27.887 17.6519C27.8879 17.6666 27.8917 17.681 27.8982 17.6942C27.9047 17.7075 27.9137 17.7193 27.9248 17.7291C27.9358 17.7388 27.9487 17.7463 27.9626 17.7511C27.9766 17.7558 27.9913 17.7578 28.006 17.7569C28.0357 17.7551 28.0635 17.7415 28.0832 17.7192C28.1029 17.6968 28.1129 17.6676 28.111 17.6379C28.1092 17.6082 28.0956 17.5805 28.0733 17.5608C28.0509 17.5411 28.0217 17.5311 27.992 17.5329ZM19.992 18.0949C19.9772 18.0958 19.9628 18.0996 19.9495 18.1062C19.9362 18.1127 19.9243 18.1217 19.9145 18.1328C19.9047 18.1439 19.8972 18.1568 19.8924 18.1708C19.8876 18.1848 19.8856 18.1996 19.8865 18.2144C19.8874 18.2292 19.8913 18.2436 19.8978 18.2569C19.9043 18.2702 19.9133 18.2821 19.9244 18.2919C19.9355 18.3017 19.9484 18.3092 19.9624 18.314C19.9764 18.3188 19.9912 18.3208 20.006 18.3199C20.0359 18.3181 20.0637 18.3044 20.0835 18.282C20.1033 18.2596 20.1134 18.2302 20.1115 18.2004C20.1097 18.1706 20.096 18.1427 20.0736 18.1229C20.0512 18.1031 20.0219 18.0931 19.992 18.0949ZM27.992 18.0949C27.9772 18.0958 27.9628 18.0996 27.9495 18.1062C27.9362 18.1127 27.9243 18.1217 27.9145 18.1328C27.9047 18.1439 27.8972 18.1568 27.8924 18.1708C27.8876 18.1848 27.8856 18.1996 27.8865 18.2144C27.8874 18.2292 27.8913 18.2436 27.8978 18.2569C27.9043 18.2702 27.9133 18.2821 27.9244 18.2919C27.9355 18.3017 27.9484 18.3092 27.9624 18.314C27.9764 18.3188 27.9912 18.3208 28.006 18.3199C28.0359 18.3181 28.0637 18.3044 28.0835 18.282C28.1033 18.2596 28.1134 18.2302 28.1115 18.2004C28.1097 18.1706 28.096 18.1427 28.0736 18.1229C28.0512 18.1031 28.0219 18.0931 27.992 18.0949ZM19.992 18.6579C19.9649 18.6624 19.9404 18.6766 19.923 18.6979C19.9056 18.7191 19.8966 18.746 19.8975 18.7734C19.8985 18.8009 19.9095 18.827 19.9283 18.847C19.9472 18.867 19.9727 18.8794 20 18.8819C20.0147 18.8814 20.0292 18.878 20.0426 18.8719C20.056 18.8657 20.068 18.857 20.078 18.8463C20.0881 18.8355 20.0959 18.8229 20.101 18.8091C20.1062 18.7953 20.1085 18.7806 20.108 18.7659C20.1075 18.7512 20.1041 18.7367 20.098 18.7234C20.0918 18.71 20.0832 18.6979 20.0724 18.6879C20.0616 18.6779 20.049 18.67 20.0352 18.6649C20.0214 18.6598 20.0067 18.6574 19.992 18.6579ZM27.992 18.6579C27.9649 18.6624 27.9404 18.6766 27.923 18.6979C27.9056 18.7191 27.8966 18.746 27.8975 18.7734C27.8985 18.8009 27.9095 18.827 27.9283 18.847C27.9472 18.867 27.9727 18.8794 28 18.8819C28.0147 18.8814 28.0292 18.878 28.0426 18.8719C28.056 18.8657 28.068 18.857 28.078 18.8463C28.0881 18.8355 28.0959 18.8229 28.101 18.8091C28.1062 18.7953 28.1085 18.7806 28.108 18.7659C28.1075 18.7512 28.1041 18.7367 28.098 18.7234C28.0918 18.71 28.0832 18.6979 28.0724 18.6879C28.0616 18.6779 28.049 18.67 28.0352 18.6649C28.0214 18.6598 28.0067 18.6574 27.992 18.6579ZM19.98 19.2199C19.9536 19.2242 19.9297 19.238 19.9126 19.2585C19.8955 19.2791 19.8864 19.3052 19.887 19.3319C19.887 19.354 19.8936 19.3756 19.9058 19.394C19.9181 19.4124 19.9355 19.4268 19.9559 19.4353C19.9763 19.4438 19.9988 19.4461 20.0205 19.4418C20.0422 19.4376 20.0622 19.427 20.0779 19.4115C20.0936 19.3959 20.1043 19.376 20.1087 19.3544C20.1132 19.3327 20.1111 19.3102 20.1028 19.2897C20.0945 19.2693 20.0803 19.2517 20.062 19.2393C20.0437 19.2268 20.0221 19.2201 20 19.2199H19.98ZM27.98 19.2199C27.9536 19.2242 27.9297 19.238 27.9126 19.2585C27.8955 19.2791 27.8864 19.3052 27.887 19.3319C27.887 19.354 27.8936 19.3756 27.9058 19.394C27.9181 19.4124 27.9355 19.4268 27.9559 19.4353C27.9763 19.4438 27.9988 19.4461 28.0205 19.4418C28.0422 19.4376 28.0622 19.427 28.0779 19.4115C28.0936 19.3959 28.1043 19.376 28.1087 19.3544C28.1132 19.3327 28.1111 19.3102 28.1028 19.2897C28.0945 19.2693 28.0803 19.2517 28.062 19.2393C28.0437 19.2268 28.0221 19.2201 28 19.2199H27.98ZM20.002 19.7799C19.972 19.7796 19.9432 19.7913 19.9218 19.8123C19.9004 19.8333 19.8883 19.8619 19.888 19.8919C19.8878 19.9219 19.8994 19.9507 19.9204 19.9721C19.9414 19.9935 19.97 20.0056 20 20.0059C20.0299 20.0062 20.0586 19.9946 20.0799 19.9737C20.1011 19.9528 20.1133 19.9242 20.1135 19.8944C20.1138 19.8646 20.1022 19.8359 20.0813 19.8146C20.0604 19.7933 20.0319 19.7812 20.002 19.7809V19.7799ZM28.002 19.7799C27.9872 19.7798 27.9725 19.7826 27.9587 19.7881C27.9449 19.7937 27.9324 19.8019 27.9218 19.8123C27.9112 19.8227 27.9028 19.8351 27.897 19.8487C27.8912 19.8624 27.8881 19.8771 27.888 19.8919C27.8879 19.9067 27.8907 19.9215 27.8962 19.9352C27.9018 19.949 27.91 19.9615 27.9204 19.9721C27.9308 19.9827 27.9432 19.9911 27.9569 19.9969C27.9705 20.0027 27.9852 20.0058 28 20.0059C28.0299 20.0062 28.0586 19.9946 28.0799 19.9737C28.1011 19.9528 28.1133 19.9242 28.1135 19.8944C28.1138 19.8646 28.1022 19.8359 28.0813 19.8146C28.0604 19.7933 28.0319 19.7812 28.002 19.7809V19.7799ZM19.992 20.3429C19.9632 20.3447 19.9362 20.3576 19.9166 20.3788C19.897 20.4001 19.8864 20.428 19.887 20.4569C19.887 20.5189 19.937 20.5689 20 20.5679C20.0299 20.5679 20.0585 20.5561 20.0796 20.535C20.1007 20.5139 20.1125 20.4852 20.1125 20.4554C20.1125 20.4256 20.1007 20.397 20.0796 20.3759C20.0585 20.3548 20.0299 20.3429 20 20.3429H19.992ZM27.992 20.3429C27.9632 20.3447 27.9362 20.3576 27.9166 20.3788C27.897 20.4001 27.8864 20.428 27.887 20.4569C27.887 20.5189 27.937 20.5689 28 20.5679C28.0299 20.5679 28.0585 20.5561 28.0796 20.535C28.1007 20.5139 28.1125 20.4852 28.1125 20.4554C28.1125 20.4256 28.1007 20.397 28.0796 20.3759C28.0585 20.3548 28.0299 20.3429 28 20.3429H27.992ZM19.992 20.9059C19.9627 20.907 19.9349 20.9195 19.9147 20.9408C19.8945 20.9621 19.8835 20.9905 19.884 21.0198C19.8846 21.0492 19.8966 21.0772 19.9175 21.0977C19.9385 21.1183 19.9667 21.1298 19.996 21.1298C20.0254 21.1298 20.0536 21.1183 20.0745 21.0977C20.0954 21.0772 20.1075 21.0492 20.108 21.0198C20.1085 20.9905 20.0975 20.9621 20.0773 20.9408C20.0571 20.9195 20.0294 20.907 20 20.9059H19.992ZM27.992 20.9059C27.9627 20.907 27.9349 20.9195 27.9147 20.9408C27.8945 20.9621 27.8835 20.9905 27.884 21.0198C27.8846 21.0492 27.8966 21.0772 27.9175 21.0977C27.9385 21.1183 27.9667 21.1298 27.996 21.1298C28.0254 21.1298 28.0536 21.1183 28.0745 21.0977C28.0954 21.0772 28.1075 21.0492 28.108 21.0198C28.1085 20.9905 28.0975 20.9621 28.0773 20.9408C28.0571 20.9195 28.0294 20.907 28 20.9059H27.992ZM19.992 21.4679C19.9632 21.4697 19.9362 21.4826 19.9166 21.5038C19.897 21.5251 19.8864 21.553 19.887 21.5819C19.887 21.6439 19.937 21.6939 20 21.6929C20.061 21.6929 20.11 21.6429 20.111 21.5819C20.1113 21.5671 20.1086 21.5524 20.1032 21.5387C20.0977 21.5249 20.0896 21.5124 20.0793 21.5018C20.069 21.4912 20.0566 21.4827 20.043 21.4769C20.0294 21.4711 20.0148 21.468 20 21.4679H19.992ZM27.992 21.4679C27.9632 21.4697 27.9362 21.4826 27.9166 21.5038C27.897 21.5251 27.8864 21.553 27.887 21.5819C27.887 21.6439 27.937 21.6939 28 21.6929C28.061 21.6929 28.11 21.6429 28.111 21.5819C28.1113 21.5671 28.1086 21.5524 28.1032 21.5387C28.0977 21.5249 28.0896 21.5124 28.0793 21.5018C28.069 21.4912 28.0566 21.4827 28.043 21.4769C28.0294 21.4711 28.0148 21.468 28 21.4679H27.992ZM24.98 21.8409C24.8553 21.8432 24.7323 21.8701 24.618 21.9201C24.5037 21.97 24.4004 22.042 24.314 22.1319L22.506 23.9899C22.4188 24.0788 22.3501 24.1841 22.3037 24.2997C22.2574 24.4153 22.2343 24.5389 22.2359 24.6634C22.2375 24.788 22.2637 24.911 22.3129 25.0253C22.3622 25.1397 22.4336 25.2432 22.523 25.3299C22.7034 25.5049 22.9459 25.601 23.1972 25.5973C23.4484 25.5935 23.6879 25.4902 23.863 25.3099L25.672 23.4499C25.759 23.3609 25.8275 23.2557 25.8737 23.1401C25.9199 23.0246 25.9428 22.9011 25.9411 22.7767C25.9395 22.6523 25.9132 22.5294 25.864 22.4152C25.8147 22.3009 25.7433 22.1975 25.654 22.1109C25.565 22.0237 25.4597 21.9549 25.344 21.9086C25.2283 21.8623 25.1046 21.8393 24.98 21.8409ZM19.992 22.0309C19.9773 22.0318 19.9629 22.0356 19.9497 22.0421C19.9365 22.0486 19.9246 22.0576 19.9149 22.0687C19.9051 22.0797 19.8976 22.0926 19.8929 22.1065C19.8881 22.1205 19.8861 22.1352 19.887 22.1499C19.8879 22.1646 19.8917 22.179 19.8982 22.1922C19.9047 22.2055 19.9137 22.2173 19.9248 22.2271C19.9358 22.2368 19.9487 22.2443 19.9626 22.2491C19.9766 22.2538 19.9913 22.2558 20.006 22.2549C20.0357 22.2531 20.0635 22.2395 20.0832 22.2172C20.1029 22.1948 20.1129 22.1656 20.111 22.1359C20.1092 22.1062 20.0956 22.0785 20.0733 22.0588C20.0509 22.0391 20.0217 22.0291 19.992 22.0309ZM27.992 22.0309C27.9773 22.0318 27.9629 22.0356 27.9497 22.0421C27.9365 22.0486 27.9246 22.0576 27.9149 22.0687C27.9051 22.0797 27.8976 22.0926 27.8929 22.1065C27.8881 22.1205 27.8861 22.1352 27.887 22.1499C27.8879 22.1646 27.8917 22.179 27.8982 22.1922C27.9047 22.2055 27.9137 22.2173 27.9248 22.2271C27.9358 22.2368 27.9487 22.2443 27.9626 22.2491C27.9766 22.2538 27.9913 22.2558 28.006 22.2549C28.0357 22.2531 28.0635 22.2395 28.0832 22.2172C28.1029 22.1948 28.1129 22.1656 28.111 22.1359C28.1092 22.1062 28.0956 22.0785 28.0733 22.0588C28.0509 22.0391 28.0217 22.0291 27.992 22.0309ZM17.533 22.0799V22.0819C17.4084 22.0838 17.2855 22.1103 17.1712 22.1599C17.0569 22.2095 16.9535 22.2812 16.867 22.3709L15.059 24.2279C14.9718 24.3168 14.9031 24.4221 14.8567 24.5377C14.8104 24.6533 14.7873 24.7769 14.7889 24.9014C14.7905 25.026 14.8167 25.149 14.8659 25.2633C14.9152 25.3777 14.9866 25.4812 15.076 25.5679C15.1651 25.6549 15.2706 25.7234 15.3863 25.7695C15.502 25.8156 15.6256 25.8384 15.7502 25.8365C15.8747 25.8347 15.9976 25.8082 16.1119 25.7587C16.2262 25.7092 16.3295 25.6375 16.416 25.5479L18.225 23.6889C18.3121 23.5999 18.3808 23.4946 18.4271 23.379C18.4733 23.2633 18.4963 23.1397 18.4946 23.0152C18.493 22.8906 18.4667 22.7677 18.4173 22.6533C18.368 22.539 18.2965 22.4355 18.207 22.3489C18.118 22.2617 18.0127 22.1929 17.897 22.1466C17.7813 22.1003 17.6576 22.0773 17.533 22.0789V22.0799ZM32.252 22.0799V22.0819C32.1274 22.0839 32.0045 22.1104 31.8902 22.16C31.7759 22.2096 31.6725 22.2813 31.586 22.3709L29.777 24.2279C29.6899 24.3169 29.6212 24.4222 29.575 24.5379C29.5287 24.6535 29.5057 24.7771 29.5074 24.9017C29.5091 25.0262 29.5354 25.1491 29.5847 25.2635C29.6341 25.3778 29.7055 25.4813 29.795 25.5679C29.8841 25.6549 29.9896 25.7234 30.1053 25.7695C30.221 25.8156 30.3446 25.8384 30.4692 25.8365C30.5937 25.8347 30.7166 25.8082 30.8309 25.7587C30.9452 25.7092 31.0485 25.6375 31.135 25.5479L32.943 23.6889C33.0302 23.6 33.0989 23.4947 33.1453 23.3791C33.1917 23.2635 33.2147 23.1399 33.2131 23.0154C33.2115 22.8908 33.1854 22.7679 33.1361 22.6535C33.0868 22.5391 33.0154 22.4356 32.926 22.3489C32.837 22.2617 32.7317 22.1929 32.616 22.1466C32.5003 22.1003 32.3766 22.0773 32.252 22.0789V22.0799ZM25.045 22.3239C25.124 22.3279 25.205 22.3619 25.289 22.4309C25.696 22.7929 25.214 23.2169 25.039 23.4009L24.174 24.3039C23.567 24.9359 23.303 25.3629 22.879 24.9539C22.519 24.5809 22.837 24.3589 23.525 23.6599L24.391 22.7579C24.596 22.5559 24.809 22.3119 25.045 22.3239ZM17.598 22.5639V22.5659C17.676 22.5699 17.757 22.6039 17.842 22.6719C18.248 23.0329 17.767 23.4549 17.592 23.6379L16.727 24.5429C16.119 25.1739 15.855 25.6009 15.432 25.1929C15.072 24.8199 15.39 24.5989 16.078 23.8999L16.943 22.9959C17.149 22.7949 17.361 22.5519 17.598 22.5639ZM32.316 22.5639V22.5659C32.396 22.5699 32.476 22.6039 32.56 22.6719C32.967 23.0329 32.486 23.4549 32.31 23.6379L31.445 24.5429C30.838 25.1739 30.574 25.6009 30.15 25.1929C29.79 24.8199 30.109 24.5989 30.797 23.8999L31.662 22.9959C31.868 22.7949 32.08 22.5529 32.316 22.5639ZM19.992 22.5939C19.9773 22.5948 19.9629 22.5986 19.9497 22.6051C19.9365 22.6116 19.9246 22.6206 19.9149 22.6317C19.9051 22.6427 19.8976 22.6556 19.8929 22.6695C19.8881 22.6835 19.8861 22.6982 19.887 22.7129C19.8879 22.7276 19.8917 22.742 19.8982 22.7552C19.9047 22.7685 19.9137 22.7803 19.9248 22.7901C19.9358 22.7998 19.9487 22.8073 19.9626 22.8121C19.9766 22.8168 19.9913 22.8188 20.006 22.8179C20.0208 22.817 20.0352 22.8132 20.0485 22.8067C20.0618 22.8002 20.0737 22.7911 20.0835 22.78C20.0933 22.7689 20.1008 22.756 20.1056 22.742C20.1104 22.728 20.1124 22.7132 20.1115 22.6984C20.1106 22.6836 20.1068 22.6692 20.1003 22.6559C20.0938 22.6426 20.0847 22.6307 20.0736 22.6209C20.0625 22.6111 20.0496 22.6036 20.0356 22.5988C20.0216 22.594 20.0068 22.592 19.992 22.5929V22.5939ZM27.992 22.5939C27.9773 22.5948 27.9629 22.5986 27.9497 22.6051C27.9365 22.6116 27.9246 22.6206 27.9149 22.6317C27.9051 22.6427 27.8976 22.6556 27.8929 22.6695C27.8881 22.6835 27.8861 22.6982 27.887 22.7129C27.8879 22.7276 27.8917 22.742 27.8982 22.7552C27.9047 22.7685 27.9137 22.7803 27.9248 22.7901C27.9358 22.7998 27.9487 22.8073 27.9626 22.8121C27.9766 22.8168 27.9913 22.8188 28.006 22.8179C28.0208 22.817 28.0352 22.8132 28.0485 22.8067C28.0618 22.8002 28.0737 22.7911 28.0835 22.78C28.0933 22.7689 28.1008 22.756 28.1056 22.742C28.1104 22.728 28.1124 22.7132 28.1115 22.6984C28.1106 22.6836 28.1068 22.6692 28.1003 22.6559C28.0938 22.6426 28.0847 22.6307 28.0736 22.6209C28.0625 22.6111 28.0496 22.6036 28.0356 22.5988C28.0216 22.594 28.0068 22.592 27.992 22.5929V22.5939ZM19.992 23.1559C19.9627 23.157 19.9349 23.1695 19.9147 23.1908C19.8945 23.2121 19.8835 23.2405 19.884 23.2698C19.8846 23.2992 19.8966 23.3272 19.9175 23.3477C19.9385 23.3683 19.9667 23.3798 19.996 23.3798C20.0254 23.3798 20.0536 23.3683 20.0745 23.3477C20.0954 23.3272 20.1075 23.2992 20.108 23.2698C20.1085 23.2405 20.0975 23.2121 20.0773 23.1908C20.0571 23.1695 20.0294 23.157 20 23.1559H19.992ZM27.992 23.1559C27.9627 23.157 27.9349 23.1695 27.9147 23.1908C27.8945 23.2121 27.8835 23.2405 27.884 23.2698C27.8846 23.2992 27.8966 23.3272 27.9175 23.3477C27.9385 23.3683 27.9667 23.3798 27.996 23.3798C28.0254 23.3798 28.0536 23.3683 28.0745 23.3477C28.0954 23.3272 28.1075 23.2992 28.108 23.2698C28.1085 23.2405 28.0975 23.2121 28.0773 23.1908C28.0571 23.1695 28.0294 23.157 28 23.1559H27.992ZM19.98 23.7179C19.9536 23.7222 19.9297 23.736 19.9126 23.7565C19.8955 23.7771 19.8864 23.8032 19.887 23.8299C19.8849 23.8459 19.8862 23.8621 19.8908 23.8775C19.8955 23.893 19.9034 23.9072 19.914 23.9193C19.9246 23.9314 19.9377 23.9412 19.9523 23.9478C19.967 23.9545 19.9829 23.9579 19.999 23.9579C20.0151 23.9579 20.031 23.9545 20.0457 23.9478C20.0604 23.9412 20.0735 23.9314 20.0841 23.9193C20.0947 23.9072 20.1026 23.893 20.1072 23.8775C20.1119 23.8621 20.1132 23.8459 20.111 23.8299C20.111 23.7689 20.061 23.7199 20 23.7179H19.98ZM27.98 23.7179C27.9536 23.7222 27.9297 23.736 27.9126 23.7565C27.8955 23.7771 27.8864 23.8032 27.887 23.8299C27.8849 23.8459 27.8862 23.8621 27.8908 23.8775C27.8955 23.893 27.9034 23.9072 27.914 23.9193C27.9246 23.9314 27.9377 23.9412 27.9523 23.9478C27.967 23.9545 27.9829 23.9579 27.999 23.9579C28.0151 23.9579 28.031 23.9545 28.0457 23.9478C28.0604 23.9412 28.0735 23.9314 28.0841 23.9193C28.0947 23.9072 28.1026 23.893 28.1072 23.8775C28.1119 23.8621 28.1132 23.8459 28.111 23.8299C28.111 23.7689 28.061 23.7199 28 23.7179H27.98ZM19.98 24.2809C19.9537 24.285 19.9298 24.2985 19.9127 24.3189C19.8956 24.3394 19.8865 24.3653 19.887 24.3919C19.887 24.4539 19.937 24.5049 20 24.5039C20.061 24.5039 20.11 24.4539 20.111 24.3919C20.111 24.3309 20.061 24.2819 20 24.2809H19.98ZM27.98 24.2809C27.9537 24.285 27.9298 24.2985 27.9127 24.3189C27.8956 24.3394 27.8865 24.3653 27.887 24.3919C27.887 24.4539 27.937 24.5049 28 24.5039C28.061 24.5039 28.11 24.4539 28.111 24.3919C28.111 24.3309 28.061 24.2819 28 24.2809H27.98ZM19.992 24.8409C19.9632 24.8427 19.9362 24.8556 19.9166 24.8768C19.897 24.8981 19.8864 24.926 19.887 24.9549C19.887 25.0169 19.937 25.0669 20 25.0659C20.0299 25.0648 20.058 25.052 20.0784 25.0301C20.0987 25.0083 20.1096 24.9792 20.1085 24.9494C20.1075 24.9196 20.0946 24.8914 20.0727 24.871C20.0509 24.8507 20.0219 24.8398 19.992 24.8409ZM27.992 24.8409C27.9632 24.8427 27.9362 24.8556 27.9166 24.8768C27.897 24.8981 27.8864 24.926 27.887 24.9549C27.887 25.0169 27.937 25.0669 28 25.0659C28.0299 25.0648 28.058 25.052 28.0784 25.0301C28.0987 25.0083 28.1096 24.9792 28.1085 24.9494C28.1075 24.9196 28.0946 24.8914 28.0727 24.871C28.0509 24.8507 28.0219 24.8398 27.992 24.8409ZM19.992 25.4039C19.9627 25.405 19.9349 25.4175 19.9147 25.4388C19.8945 25.4601 19.8835 25.4885 19.884 25.5178C19.8846 25.5472 19.8966 25.5752 19.9175 25.5957C19.9385 25.6163 19.9667 25.6278 19.996 25.6278C20.0254 25.6278 20.0536 25.6163 20.0745 25.5957C20.0954 25.5752 20.1075 25.5472 20.108 25.5178C20.1085 25.4885 20.0975 25.4601 20.0773 25.4388C20.0571 25.4175 20.0294 25.405 20 25.4039C19.9974 25.4038 19.9947 25.4038 19.992 25.4039ZM27.992 25.4039C27.9627 25.405 27.9349 25.4175 27.9147 25.4388C27.8945 25.4601 27.8835 25.4885 27.884 25.5178C27.8846 25.5472 27.8966 25.5752 27.9175 25.5957C27.9385 25.6163 27.9667 25.6278 27.996 25.6278C28.0254 25.6278 28.0536 25.6163 28.0745 25.5957C28.0954 25.5752 28.1075 25.5472 28.108 25.5178C28.1085 25.4885 28.0975 25.4601 28.0773 25.4388C28.0571 25.4175 28.0294 25.405 28 25.4039C27.9974 25.4038 27.9947 25.4038 27.992 25.4039ZM19.992 25.9669C19.9634 25.9687 19.9365 25.9814 19.917 26.0025C19.8974 26.0235 19.8867 26.0512 19.887 26.0799C19.887 26.1419 19.937 26.1919 20 26.1909C20.0148 26.1904 20.0293 26.187 20.0428 26.1808C20.0562 26.1747 20.0683 26.166 20.0784 26.1551C20.0885 26.1443 20.0963 26.1316 20.1015 26.1178C20.1067 26.1039 20.109 26.0892 20.1085 26.0744C20.108 26.0596 20.1046 26.0451 20.0984 26.0317C20.0923 26.0182 20.0836 26.0061 20.0727 25.996C20.0619 25.986 20.0492 25.9781 20.0354 25.9729C20.0215 25.9678 20.0068 25.9654 19.992 25.9659V25.9669ZM27.992 25.9669C27.9634 25.9687 27.9365 25.9814 27.917 26.0025C27.8974 26.0235 27.8867 26.0512 27.887 26.0799C27.887 26.1419 27.937 26.1919 28 26.1909C28.0148 26.1904 28.0293 26.187 28.0428 26.1808C28.0562 26.1747 28.0683 26.166 28.0784 26.1551C28.0885 26.1443 28.0963 26.1316 28.1015 26.1178C28.1067 26.1039 28.109 26.0892 28.1085 26.0744C28.108 26.0596 28.1046 26.0451 28.0984 26.0317C28.0923 26.0182 28.0836 26.0061 28.0727 25.996C28.0619 25.986 28.0492 25.9781 28.0354 25.9729C28.0215 25.9678 28.0068 25.9654 27.992 25.9659V25.9669ZM19.992 26.5289C19.9773 26.5298 19.9629 26.5336 19.9497 26.5401C19.9365 26.5466 19.9246 26.5556 19.9149 26.5667C19.9051 26.5777 19.8976 26.5906 19.8929 26.6045C19.8881 26.6185 19.8861 26.6332 19.887 26.6479C19.8879 26.6626 19.8917 26.677 19.8982 26.6902C19.9047 26.7035 19.9137 26.7153 19.9248 26.7251C19.9358 26.7348 19.9487 26.7423 19.9626 26.7471C19.9766 26.7518 19.9913 26.7538 20.006 26.7529C20.0357 26.7511 20.0635 26.7375 20.0832 26.7152C20.1029 26.6928 20.1129 26.6636 20.111 26.6339C20.1092 26.6042 20.0956 26.5765 20.0733 26.5568C20.0509 26.5371 20.0217 26.5271 19.992 26.5289ZM27.992 26.5289C27.9773 26.5298 27.9629 26.5336 27.9497 26.5401C27.9365 26.5466 27.9246 26.5556 27.9149 26.5667C27.9051 26.5777 27.8976 26.5906 27.8929 26.6045C27.8881 26.6185 27.8861 26.6332 27.887 26.6479C27.8879 26.6626 27.8917 26.677 27.8982 26.6902C27.9047 26.7035 27.9137 26.7153 27.9248 26.7251C27.9358 26.7348 27.9487 26.7423 27.9626 26.7471C27.9766 26.7518 27.9913 26.7538 28.006 26.7529C28.0357 26.7511 28.0635 26.7375 28.0832 26.7152C28.1029 26.6928 28.1129 26.6636 28.111 26.6339C28.1092 26.6042 28.0956 26.5765 28.0733 26.5568C28.0509 26.5371 28.0217 26.5271 27.992 26.5289ZM19.992 27.0919C19.9623 27.0938 19.9346 27.1073 19.9149 27.1297C19.8952 27.152 19.8852 27.1812 19.887 27.2109C19.8889 27.2406 19.9025 27.2684 19.9248 27.2881C19.9471 27.3077 19.9763 27.3178 20.006 27.3159C20.0207 27.315 20.0351 27.3112 20.0483 27.3047C20.0616 27.2982 20.0734 27.2892 20.0832 27.2782C20.0929 27.2671 20.1004 27.2542 20.1052 27.2403C20.11 27.2264 20.1119 27.2116 20.111 27.1969C20.1101 27.1822 20.1063 27.1678 20.0998 27.1546C20.0933 27.1413 20.0843 27.1295 20.0733 27.1198C20.0622 27.11 20.0494 27.1025 20.0354 27.0978C20.0215 27.093 20.0067 27.091 19.992 27.0919ZM27.992 27.0919C27.9623 27.0938 27.9346 27.1073 27.9149 27.1297C27.8952 27.152 27.8852 27.1812 27.887 27.2109C27.8889 27.2406 27.9025 27.2684 27.9248 27.2881C27.9471 27.3077 27.9763 27.3178 28.006 27.3159C28.0207 27.315 28.0351 27.3112 28.0483 27.3047C28.0616 27.2982 28.0734 27.2892 28.0832 27.2782C28.0929 27.2671 28.1004 27.2542 28.1052 27.2403C28.11 27.2264 28.1119 27.2116 28.111 27.1969C28.1101 27.1822 28.1063 27.1678 28.0998 27.1546C28.0933 27.1413 28.0843 27.1295 28.0733 27.1198C28.0622 27.11 28.0493 27.1025 28.0354 27.0978C28.0215 27.093 28.0067 27.091 27.992 27.0919ZM24.978 27.0989V27.1009C24.8534 27.103 24.7304 27.1297 24.6161 27.1794C24.5018 27.2292 24.3984 27.3011 24.312 27.3909L22.504 29.2479C22.4173 29.337 22.3491 29.4423 22.3031 29.5578C22.2571 29.6733 22.2343 29.7967 22.2361 29.921C22.2378 30.0453 22.264 30.168 22.3131 30.2822C22.3623 30.3964 22.4334 30.4997 22.5225 30.5864C22.6116 30.6731 22.7169 30.7414 22.8324 30.7873C22.9479 30.8333 23.0713 30.8561 23.1956 30.8544C23.3199 30.8527 23.4426 30.8265 23.5568 30.7773C23.671 30.7282 23.7743 30.657 23.861 30.5679L25.67 28.7079C25.7571 28.6189 25.8258 28.5136 25.8721 28.398C25.9183 28.2823 25.9413 28.1587 25.9396 28.0342C25.938 27.9096 25.9117 27.7867 25.8623 27.6723C25.813 27.558 25.7415 27.4545 25.652 27.3679C25.5629 27.2809 25.4575 27.2123 25.3419 27.1661C25.2262 27.12 25.1025 27.0971 24.978 27.0989ZM17.533 27.3389C17.4082 27.3413 17.2852 27.3683 17.1709 27.4184C17.0566 27.4685 16.9533 27.5408 16.867 27.6309L15.059 29.4879C14.9678 29.5761 14.8953 29.6816 14.8457 29.7983C14.7961 29.915 14.7704 30.0405 14.7702 30.1673C14.77 30.2941 14.7953 30.4197 14.8446 30.5365C14.8938 30.6534 14.966 30.7592 15.0569 30.8476C15.1478 30.936 15.2555 31.0053 15.3737 31.0513C15.4919 31.0973 15.6181 31.1191 15.7449 31.1154C15.8716 31.1117 15.9963 31.0825 16.1116 31.0297C16.2269 30.9769 16.3304 30.9015 16.416 30.8079L18.225 28.9479C18.312 28.8589 18.3805 28.7537 18.4267 28.6381C18.4729 28.5226 18.4958 28.3991 18.4941 28.2747C18.4925 28.1503 18.4662 28.0274 18.417 27.9132C18.3677 27.7989 18.2963 27.6955 18.207 27.6089C18.118 27.5217 18.0127 27.4529 17.897 27.4066C17.7813 27.3603 17.6576 27.3373 17.533 27.3389ZM32.252 27.3389C32.1272 27.3414 32.0042 27.3684 31.8899 27.4185C31.7756 27.4686 31.6723 27.5408 31.586 27.6309L29.777 29.4879C29.6109 29.6695 29.522 29.9087 29.5292 30.1547C29.5364 30.4007 29.6391 30.6343 29.8155 30.8059C29.9919 30.9775 30.2282 31.0737 30.4743 31.0741C30.7205 31.0744 30.9571 30.979 31.134 30.8079L32.944 28.9479C33.031 28.8589 33.0995 28.7537 33.1457 28.6381C33.1919 28.5226 33.2148 28.3991 33.2131 28.2747C33.2115 28.1503 33.1852 28.0274 33.136 27.9132C33.0867 27.7989 33.0153 27.6955 32.926 27.6089C32.837 27.5217 32.7317 27.4529 32.616 27.4066C32.5003 27.3603 32.3766 27.3373 32.252 27.3389ZM25.043 27.5839C25.122 27.5869 25.203 27.6219 25.287 27.6909C25.694 28.0529 25.212 28.4769 25.037 28.6599L24.172 29.5639C23.565 30.1949 23.301 30.6219 22.877 30.2139C22.517 29.8409 22.835 29.6189 23.523 28.9199L24.389 28.0149C24.594 27.8149 24.807 27.5719 25.043 27.5839ZM19.993 27.6539C19.9783 27.6548 19.9639 27.6585 19.9507 27.6649C19.9374 27.6713 19.9255 27.6803 19.9157 27.6913C19.9059 27.7023 19.8984 27.7151 19.8936 27.7291C19.8887 27.743 19.8867 27.7577 19.8875 27.7724C19.8884 27.7871 19.8921 27.8015 19.8985 27.8148C19.9049 27.828 19.9139 27.8399 19.9249 27.8497C19.9359 27.8595 19.9487 27.867 19.9627 27.8719C19.9766 27.8767 19.9913 27.8788 20.006 27.8779C20.0357 27.8761 20.0635 27.8625 20.0832 27.8402C20.1029 27.8178 20.1129 27.7886 20.111 27.7589C20.1092 27.7292 20.0956 27.7015 20.0733 27.6818C20.0509 27.6621 20.0217 27.6521 19.992 27.6539H19.993ZM27.993 27.6539C27.9783 27.6548 27.9639 27.6585 27.9507 27.6649C27.9374 27.6713 27.9255 27.6803 27.9157 27.6913C27.9059 27.7023 27.8984 27.7151 27.8936 27.7291C27.8887 27.743 27.8867 27.7577 27.8875 27.7724C27.8884 27.7871 27.8921 27.8015 27.8985 27.8148C27.9049 27.828 27.9139 27.8399 27.9249 27.8497C27.9359 27.8595 27.9487 27.867 27.9627 27.8719C27.9766 27.8767 27.9913 27.8788 28.006 27.8779C28.0357 27.8761 28.0635 27.8625 28.0832 27.8402C28.1029 27.8178 28.1129 27.7886 28.111 27.7589C28.1092 27.7292 28.0956 27.7015 28.0733 27.6818C28.0509 27.6621 28.0217 27.6521 27.992 27.6539H27.993ZM17.598 27.8219C17.676 27.8259 17.757 27.8599 17.842 27.9289C18.248 28.2909 17.767 28.7149 17.592 28.8989L16.727 29.8019C16.119 30.4339 15.855 30.8609 15.432 30.4519C15.072 30.0789 15.39 29.8569 16.078 29.1579L16.943 28.2559C17.149 28.0549 17.361 27.8099 17.598 27.8219ZM32.316 27.8219C32.396 27.8259 32.476 27.8599 32.56 27.9289C32.967 28.2909 32.486 28.7149 32.31 28.8989L31.445 29.8019C30.838 30.4339 30.574 30.8609 30.15 30.4519C29.79 30.0789 30.109 29.8569 30.797 29.1579L31.662 28.2559C31.868 28.0549 32.08 27.8099 32.316 27.8219ZM19.98 28.2169C19.954 28.2212 19.9303 28.2346 19.9133 28.2548C19.8962 28.2749 19.8869 28.3005 19.887 28.3269C19.887 28.3899 19.937 28.4399 20 28.4389C20.061 28.4389 20.11 28.3889 20.111 28.3279C20.111 28.2669 20.061 28.2179 20 28.2169H19.98ZM27.98 28.2169C27.954 28.2212 27.9303 28.2346 27.9133 28.2548C27.8962 28.2749 27.8869 28.3005 27.887 28.3269C27.887 28.3899 27.937 28.4399 28 28.4389C28.061 28.4389 28.11 28.3889 28.111 28.3279C28.111 28.2669 28.061 28.2179 28 28.2169H27.98ZM20.002 28.7769C19.9864 28.7753 19.9706 28.777 19.9556 28.7818C19.9406 28.7867 19.9268 28.7946 19.9151 28.8051C19.9034 28.8156 19.894 28.8284 19.8875 28.8427C19.881 28.8571 19.8776 28.8726 19.8775 28.8883C19.8773 28.904 19.8805 28.9196 19.8867 28.9341C19.8929 28.9485 19.9021 28.9615 19.9136 28.9722C19.9252 28.9829 19.9388 28.9911 19.9537 28.9962C19.9686 29.0013 19.9843 29.0032 20 29.0019C20.0281 28.9995 20.0542 28.9868 20.0733 28.9661C20.0925 28.9455 20.1032 28.9185 20.1034 28.8903C20.1037 28.8622 20.0934 28.835 20.0747 28.814C20.0559 28.793 20.03 28.7798 20.002 28.7769ZM28.002 28.7769C27.9864 28.7753 27.9706 28.777 27.9556 28.7818C27.9406 28.7867 27.9268 28.7946 27.9151 28.8051C27.9034 28.8156 27.894 28.8284 27.8875 28.8427C27.881 28.8571 27.8776 28.8726 27.8775 28.8883C27.8773 28.904 27.8805 28.9196 27.8867 28.9341C27.8929 28.9485 27.9021 28.9615 27.9136 28.9722C27.9252 28.9829 27.9388 28.9911 27.9537 28.9962C27.9686 29.0013 27.9843 29.0032 28 29.0019C28.0281 28.9995 28.0542 28.9868 28.0733 28.9661C28.0925 28.9455 28.1032 28.9185 28.1034 28.8903C28.1037 28.8622 28.0934 28.835 28.0747 28.814C28.0559 28.793 28.03 28.7798 28.002 28.7769ZM19.992 29.3399C19.9634 29.3417 19.9365 29.3544 19.917 29.3755C19.8974 29.3965 19.8867 29.4242 19.887 29.4529C19.887 29.5149 19.937 29.5649 20 29.5639C20.061 29.5639 20.11 29.5139 20.111 29.4529C20.1111 29.4382 20.1084 29.4236 20.1029 29.41C20.0974 29.3963 20.0892 29.3839 20.0789 29.3734C20.0686 29.3629 20.0563 29.3546 20.0428 29.3488C20.0293 29.3431 20.0147 29.34 20 29.3399H19.992ZM27.992 29.3399C27.9634 29.3417 27.9365 29.3544 27.917 29.3755C27.8974 29.3965 27.8867 29.4242 27.887 29.4529C27.887 29.5149 27.937 29.5649 28 29.5639C28.061 29.5639 28.11 29.5139 28.111 29.4529C28.1111 29.4382 28.1084 29.4236 28.1029 29.41C28.0974 29.3963 28.0892 29.3839 28.0789 29.3734C28.0686 29.3629 28.0563 29.3546 28.0428 29.3488C28.0293 29.3431 28.0147 29.34 28 29.3399H27.992ZM19.992 29.9019C19.9627 29.903 19.9349 29.9155 19.9147 29.9368C19.8945 29.9581 19.8835 29.9865 19.884 30.0158C19.8846 30.0452 19.8966 30.0732 19.9175 30.0937C19.9385 30.1143 19.9667 30.1258 19.996 30.1258C20.0254 30.1258 20.0536 30.1143 20.0745 30.0937C20.0954 30.0732 20.1075 30.0452 20.108 30.0158C20.1085 29.9865 20.0975 29.9581 20.0773 29.9368C20.0571 29.9155 20.0294 29.903 20 29.9019H19.992ZM27.992 29.9019C27.9627 29.903 27.9349 29.9155 27.9147 29.9368C27.8945 29.9581 27.8835 29.9865 27.884 30.0158C27.8846 30.0452 27.8966 30.0732 27.9175 30.0937C27.9385 30.1143 27.9667 30.1258 27.996 30.1258C28.0254 30.1258 28.0536 30.1143 28.0745 30.0937C28.0954 30.0732 28.1075 30.0452 28.108 30.0158C28.1085 29.9865 28.0975 29.9581 28.0773 29.9368C28.0571 29.9155 28.0294 29.903 28 29.9019H27.992ZM19.992 30.4649C19.9634 30.4667 19.9365 30.4794 19.917 30.5005C19.8974 30.5215 19.8867 30.5492 19.887 30.5779C19.887 30.6399 19.937 30.6899 20 30.6889C20.0147 30.6884 20.0292 30.685 20.0426 30.6789C20.056 30.6727 20.068 30.664 20.078 30.6533C20.0881 30.6425 20.0959 30.6299 20.101 30.6161C20.1062 30.6023 20.1085 30.5876 20.108 30.5729C20.1075 30.5582 20.1041 30.5437 20.098 30.5304C20.0918 30.517 20.0832 30.5049 20.0724 30.4949C20.0616 30.4849 20.049 30.477 20.0352 30.4719C20.0214 30.4668 20.0067 30.4644 19.992 30.4649ZM27.992 30.4649C27.9634 30.4667 27.9365 30.4794 27.917 30.5005C27.8974 30.5215 27.8867 30.5492 27.887 30.5779C27.887 30.6399 27.937 30.6899 28 30.6889C28.0147 30.6884 28.0292 30.685 28.0426 30.6789C28.056 30.6727 28.068 30.664 28.078 30.6533C28.0881 30.6425 28.0959 30.6299 28.101 30.6161C28.1062 30.6023 28.1085 30.5876 28.108 30.5729C28.1075 30.5582 28.1041 30.5437 28.098 30.5304C28.0918 30.517 28.0832 30.5049 28.0724 30.4949C28.0616 30.4849 28.049 30.477 28.0352 30.4719C28.0214 30.4668 28.0067 30.4644 27.992 30.4649ZM19.992 31.0249C19.9635 31.0272 19.9369 31.04 19.9175 31.061C19.8981 31.0819 19.8872 31.1093 19.887 31.1379C19.887 31.1676 19.8988 31.1961 19.9198 31.2171C19.9408 31.2381 19.9693 31.2499 19.999 31.2499C20.0287 31.2499 20.0572 31.2381 20.0782 31.2171C20.0992 31.1961 20.111 31.1676 20.111 31.1379C20.1109 31.1226 20.1077 31.1075 20.1016 31.0934C20.0955 31.0794 20.0866 31.0667 20.0755 31.0561C20.0644 31.0456 20.0513 31.0374 20.0369 31.032C20.0226 31.0267 20.0073 31.0242 19.992 31.0249ZM27.992 31.0249C27.9635 31.0272 27.9369 31.04 27.9175 31.061C27.8981 31.0819 27.8872 31.1093 27.887 31.1379C27.887 31.1676 27.8988 31.1961 27.9198 31.2171C27.9408 31.2381 27.9693 31.2499 27.999 31.2499C28.0287 31.2499 28.0572 31.2381 28.0782 31.2171C28.0992 31.1961 28.111 31.1676 28.111 31.1379C28.1109 31.1226 28.1077 31.1075 28.1016 31.0934C28.0955 31.0794 28.0866 31.0667 28.0755 31.0561C28.0644 31.0456 28.0513 31.0374 28.0369 31.032C28.0226 31.0267 28.0073 31.0242 27.992 31.0249ZM19.992 31.5879C19.9649 31.5924 19.9404 31.6066 19.923 31.6279C19.9056 31.6491 19.8966 31.676 19.8975 31.7034C19.8985 31.7309 19.9095 31.757 19.9283 31.777C19.9472 31.797 19.9727 31.8094 20 31.8119C20.0147 31.8114 20.0292 31.808 20.0426 31.8019C20.056 31.7957 20.068 31.787 20.078 31.7763C20.0881 31.7655 20.0959 31.7529 20.101 31.7391C20.1062 31.7253 20.1085 31.7106 20.108 31.6959C20.1075 31.6812 20.1041 31.6667 20.098 31.6534C20.0918 31.64 20.0832 31.6279 20.0724 31.6179C20.0616 31.6079 20.049 31.6 20.0352 31.5949C20.0214 31.5898 20.0067 31.5874 19.992 31.5879ZM27.992 31.5879C27.9649 31.5924 27.9404 31.6066 27.923 31.6279C27.9056 31.6491 27.8966 31.676 27.8975 31.7034C27.8985 31.7309 27.9095 31.757 27.9283 31.777C27.9472 31.797 27.9727 31.8094 28 31.8119C28.0147 31.8114 28.0292 31.808 28.0426 31.8019C28.056 31.7957 28.068 31.787 28.078 31.7763C28.0881 31.7655 28.0959 31.7529 28.101 31.7391C28.1062 31.7253 28.1085 31.7106 28.108 31.6959C28.1075 31.6812 28.1041 31.6667 28.098 31.6534C28.0918 31.64 28.0832 31.6279 28.0724 31.6179C28.0616 31.6079 28.049 31.6 28.0352 31.5949C28.0214 31.5898 28.0067 31.5874 27.992 31.5879ZM19.98 32.1499C19.9537 32.154 19.9298 32.1675 19.9127 32.1879C19.8956 32.2084 19.8865 32.2343 19.887 32.2609C19.8866 32.2831 19.8928 32.3049 19.9048 32.3236C19.9169 32.3422 19.9342 32.3569 19.9545 32.3657C19.9749 32.3745 19.9974 32.3771 20.0192 32.3731C20.0411 32.369 20.0612 32.3586 20.0771 32.3432C20.093 32.3277 20.104 32.3078 20.1086 32.2861C20.1132 32.2644 20.1112 32.2418 20.103 32.2212C20.0947 32.2006 20.0805 32.1829 20.0622 32.1704C20.0438 32.1579 20.0222 32.1511 20 32.1509C19.992 32.1489 19.99 32.1489 19.982 32.1509H19.98V32.1499ZM27.98 32.1499C27.9537 32.154 27.9298 32.1675 27.9127 32.1879C27.8956 32.2084 27.8865 32.2343 27.887 32.2609C27.8866 32.2831 27.8928 32.3049 27.9048 32.3236C27.9169 32.3422 27.9342 32.3569 27.9545 32.3657C27.9749 32.3745 27.9974 32.3771 28.0192 32.3731C28.0411 32.369 28.0612 32.3586 28.0771 32.3432C28.093 32.3277 28.104 32.3078 28.1086 32.2861C28.1132 32.2644 28.1112 32.2418 28.103 32.2212C28.0947 32.2006 28.0805 32.1829 28.0622 32.1704C28.0438 32.1579 28.0222 32.1511 28 32.1509C27.992 32.1489 27.99 32.1489 27.982 32.1509H27.98V32.1499ZM24.98 32.3039V32.3059C24.8554 32.3079 24.7323 32.3346 24.618 32.3844C24.5037 32.4341 24.4004 32.506 24.314 32.5959L22.506 34.4529C22.331 34.6326 22.2345 34.8745 22.2378 35.1253C22.241 35.3761 22.3438 35.6154 22.5235 35.7904C22.7032 35.9655 22.9451 36.0619 23.1959 36.0587C23.4467 36.0554 23.686 35.9526 23.861 35.7729L25.67 33.9129C25.8021 33.7792 25.8913 33.6092 25.9263 33.4245C25.9612 33.2399 25.9404 33.049 25.8663 32.8763C25.7922 32.7036 25.6683 32.5569 25.5105 32.4549C25.3526 32.353 25.1679 32.3004 24.98 32.3039ZM17.531 32.5969V32.5989C17.4064 32.6009 17.2833 32.6276 17.169 32.6774C17.0547 32.7271 16.9514 32.799 16.865 32.8889L15.057 34.7459C14.9698 34.8348 14.9011 34.9401 14.8547 35.0557C14.8084 35.1713 14.7853 35.2949 14.7869 35.4194C14.7885 35.544 14.8147 35.667 14.8639 35.7813C14.9132 35.8957 14.9846 35.9992 15.074 36.0859C15.1631 36.1729 15.2686 36.2414 15.3843 36.2875C15.5 36.3336 15.6236 36.3564 15.7482 36.3545C15.8727 36.3527 15.9956 36.3262 16.1099 36.2767C16.2242 36.2271 16.3275 36.1555 16.414 36.0659L18.223 34.2059C18.3101 34.1169 18.3788 34.0116 18.4251 33.8959C18.4713 33.7803 18.4943 33.6567 18.4926 33.5322C18.491 33.4076 18.4647 33.2847 18.4153 33.1703C18.366 33.056 18.2945 32.9525 18.205 32.8659C18.1159 32.7789 18.0105 32.7103 17.8949 32.6641C17.7792 32.618 17.6555 32.5951 17.531 32.5969ZM32.25 32.5969V32.5989C32.1254 32.6009 32.0023 32.6276 31.888 32.6774C31.7737 32.7271 31.6704 32.799 31.584 32.8889L29.775 34.7459C29.6879 34.8349 29.6192 34.9402 29.573 35.0559C29.5267 35.1715 29.5037 35.2951 29.5054 35.4197C29.5071 35.5442 29.5334 35.6671 29.5827 35.7815C29.6321 35.8958 29.7035 35.9993 29.793 36.0859C29.8821 36.1729 29.9876 36.2414 30.1033 36.2875C30.219 36.3336 30.3426 36.3564 30.4672 36.3545C30.5917 36.3527 30.7146 36.3262 30.8289 36.2767C30.9432 36.2271 31.0465 36.1555 31.133 36.0659L32.941 34.2059C33.0282 34.117 33.0969 34.0117 33.1433 33.8961C33.1897 33.7805 33.2127 33.6569 33.2111 33.5324C33.2095 33.4079 33.1834 33.2849 33.1341 33.1705C33.0848 33.0561 33.0134 32.9526 32.924 32.8659C32.8349 32.7789 32.7295 32.7103 32.6139 32.6641C32.4982 32.618 32.3745 32.5951 32.25 32.5969ZM19.98 32.7129C19.9589 32.7163 19.9393 32.7257 19.9233 32.74C19.9074 32.7542 19.8959 32.7727 19.8902 32.7933C19.8844 32.8139 19.8847 32.8357 19.8909 32.8561C19.8971 32.8765 19.909 32.8948 19.9253 32.9086C19.9415 32.9225 19.9614 32.9314 19.9826 32.9344C20.0037 32.9373 20.0253 32.9342 20.0447 32.9253C20.0641 32.9164 20.0806 32.9021 20.0922 32.8841C20.1037 32.8662 20.1099 32.8453 20.11 32.8239C20.11 32.7629 20.061 32.7129 20 32.7129H19.98ZM27.98 32.7129C27.9589 32.7163 27.9393 32.7257 27.9233 32.74C27.9074 32.7542 27.8959 32.7727 27.8902 32.7933C27.8844 32.8139 27.8847 32.8357 27.8909 32.8561C27.8971 32.8765 27.909 32.8948 27.9253 32.9086C27.9415 32.9225 27.9614 32.9314 27.9826 32.9344C28.0037 32.9373 28.0253 32.9342 28.0447 32.9253C28.0641 32.9164 28.0806 32.9021 28.0922 32.8841C28.1037 32.8662 28.1099 32.8453 28.11 32.8239C28.11 32.7629 28.061 32.7129 28 32.7129H27.98ZM25.043 32.7889H25.045C25.1352 32.7972 25.2202 32.8348 25.287 32.8959C25.694 33.2579 25.212 33.6819 25.037 33.8649L24.174 34.7689C23.567 35.4009 23.303 35.8269 22.879 35.4189C22.519 35.0459 22.837 34.8239 23.525 34.1249L24.391 33.2199C24.596 33.0199 24.808 32.7789 25.043 32.7889ZM17.596 33.0819C17.674 33.0859 17.756 33.1199 17.84 33.1889C18.246 33.5509 17.765 33.9749 17.59 34.1579L16.725 35.0619C16.117 35.6939 15.853 36.1199 15.43 35.7119C15.07 35.3389 15.388 35.1169 16.076 34.4179L16.941 33.5129C17.147 33.3129 17.359 33.0699 17.596 33.0819ZM32.315 33.0819C32.393 33.0859 32.474 33.1199 32.559 33.1889C32.965 33.5509 32.484 33.9749 32.309 34.1579L31.443 35.0619C30.836 35.6939 30.573 36.1199 30.148 35.7119C29.788 35.3389 30.107 35.1169 30.795 34.4179L31.66 33.5129C31.866 33.3129 32.078 33.0699 32.315 33.0819ZM20.002 33.2729C19.987 33.273 19.9722 33.2761 19.9585 33.282C19.9447 33.2878 19.9322 33.2963 19.9217 33.307C19.9112 33.3177 19.9029 33.3303 19.8973 33.3442C19.8917 33.3581 19.8889 33.3729 19.889 33.3879C19.889 33.4499 19.939 33.4979 20.002 33.4979C20.0165 33.498 20.031 33.4953 20.0444 33.4898C20.0579 33.4844 20.0701 33.4763 20.0804 33.466C20.0908 33.4558 20.099 33.4436 20.1045 33.4302C20.1101 33.4168 20.113 33.4024 20.113 33.3879C20.1133 33.358 20.1018 33.3292 20.081 33.3077C20.0603 33.2862 20.0319 33.2737 20.002 33.2729ZM28.002 33.2729C27.987 33.273 27.9722 33.2761 27.9585 33.282C27.9447 33.2878 27.9322 33.2963 27.9217 33.307C27.9112 33.3177 27.9029 33.3303 27.8973 33.3442C27.8917 33.3581 27.8889 33.3729 27.889 33.3879C27.889 33.4499 27.939 33.4979 28.002 33.4979C28.0165 33.498 28.031 33.4953 28.0444 33.4898C28.0579 33.4844 28.0701 33.4763 28.0804 33.466C28.0908 33.4558 28.099 33.4436 28.1045 33.4302C28.1101 33.4168 28.113 33.4024 28.113 33.3879C28.1133 33.358 28.1018 33.3292 28.081 33.3077C28.0603 33.2862 28.0319 33.2737 28.002 33.2729ZM19.992 33.8359C19.9634 33.8377 19.9365 33.8504 19.917 33.8715C19.8974 33.8925 19.8867 33.9202 19.887 33.9489C19.887 34.0109 19.937 34.0609 20 34.0599C20.061 34.0599 20.11 34.0099 20.111 33.9489C20.1111 33.9342 20.1084 33.9196 20.1029 33.906C20.0974 33.8923 20.0892 33.8799 20.0789 33.8694C20.0686 33.8589 20.0563 33.8506 20.0428 33.8448C20.0293 33.8391 20.0147 33.836 20 33.8359H19.992ZM27.992 33.8359C27.9634 33.8377 27.9365 33.8504 27.917 33.8715C27.8974 33.8925 27.8867 33.9202 27.887 33.9489C27.887 34.0109 27.937 34.0609 28 34.0599C28.061 34.0599 28.11 34.0099 28.111 33.9489C28.1111 33.9342 28.1084 33.9196 28.1029 33.906C28.0974 33.8923 28.0892 33.8799 28.0789 33.8694C28.0686 33.8589 28.0563 33.8506 28.0428 33.8448C28.0293 33.8391 28.0147 33.836 28 33.8359H27.992ZM19.992 34.3979C19.9627 34.399 19.9349 34.4115 19.9147 34.4328C19.8945 34.4541 19.8835 34.4825 19.884 34.5118C19.8846 34.5412 19.8966 34.5692 19.9175 34.5897C19.9385 34.6103 19.9667 34.6218 19.996 34.6218C20.0254 34.6218 20.0536 34.6103 20.0745 34.5897C20.0954 34.5692 20.1075 34.5412 20.108 34.5118C20.1085 34.4825 20.0975 34.4541 20.0773 34.4328C20.0571 34.4115 20.0294 34.399 20 34.3979C19.9974 34.3978 19.9947 34.3978 19.992 34.3979ZM27.992 34.3979C27.9627 34.399 27.9349 34.4115 27.9147 34.4328C27.8945 34.4541 27.8835 34.4825 27.884 34.5118C27.8846 34.5412 27.8966 34.5692 27.9175 34.5897C27.9385 34.6103 27.9667 34.6218 27.996 34.6218C28.0254 34.6218 28.0536 34.6103 28.0745 34.5897C28.0954 34.5692 28.1075 34.5412 28.108 34.5118C28.1085 34.4825 28.0975 34.4541 28.0773 34.4328C28.0571 34.4115 28.0294 34.399 28 34.3979C27.9974 34.3978 27.9947 34.3978 27.992 34.3979ZM19.992 34.9609C19.9623 34.962 19.9342 34.9748 19.914 34.9965C19.8937 35.0183 19.883 35.0472 19.884 35.0769C19.8851 35.1066 19.8979 35.1347 19.9196 35.1549C19.9414 35.1752 19.9703 35.186 20 35.1849C20.0297 35.1849 20.0582 35.1731 20.0792 35.1521C20.1002 35.1311 20.112 35.1026 20.112 35.0729C20.112 35.0432 20.1002 35.0147 20.0792 34.9937C20.0582 34.9727 20.0297 34.9609 20 34.9609C19.9974 34.9608 19.9947 34.9608 19.992 34.9609ZM27.992 34.9609C27.9623 34.962 27.9342 34.9748 27.914 34.9965C27.8937 35.0183 27.883 35.0472 27.884 35.0769C27.8851 35.1066 27.8979 35.1347 27.9196 35.1549C27.9414 35.1752 27.9703 35.186 28 35.1849C28.0297 35.1849 28.0582 35.1731 28.0792 35.1521C28.1002 35.1311 28.112 35.1026 28.112 35.0729C28.112 35.0432 28.1002 35.0147 28.0792 34.9937C28.0582 34.9727 28.0297 34.9609 28 34.9609C27.9974 34.9608 27.9947 34.9608 27.992 34.9609ZM19.992 35.5229C19.9627 35.524 19.9349 35.5365 19.9147 35.5578C19.8945 35.5791 19.8835 35.6075 19.884 35.6368C19.8846 35.6662 19.8966 35.6942 19.9175 35.7147C19.9385 35.7353 19.9667 35.7468 19.996 35.7468C20.0254 35.7468 20.0536 35.7353 20.0745 35.7147C20.0954 35.6942 20.1075 35.6662 20.108 35.6368C20.1085 35.6075 20.0975 35.5791 20.0773 35.5578C20.0571 35.5365 20.0294 35.524 20 35.5229H19.992ZM27.992 35.5229C27.9627 35.524 27.9349 35.5365 27.9147 35.5578C27.8945 35.5791 27.8835 35.6075 27.884 35.6368C27.8846 35.6662 27.8966 35.6942 27.9175 35.7147C27.9385 35.7353 27.9667 35.7468 27.996 35.7468C28.0254 35.7468 28.0536 35.7353 28.0745 35.7147C28.0954 35.6942 28.1075 35.6662 28.108 35.6368C28.1085 35.6075 28.0975 35.5791 28.0773 35.5578C28.0571 35.5365 28.0294 35.524 28 35.5229H27.992ZM19.992 36.0859C19.9627 36.087 19.9349 36.0995 19.9147 36.1208C19.8945 36.1421 19.8835 36.1705 19.884 36.1998C19.8846 36.2292 19.8966 36.2572 19.9175 36.2777C19.9385 36.2983 19.9667 36.3098 19.996 36.3098C20.0254 36.3098 20.0536 36.2983 20.0745 36.2777C20.0954 36.2572 20.1075 36.2292 20.108 36.1998C20.1085 36.1705 20.0975 36.1421 20.0773 36.1208C20.0571 36.0995 20.0294 36.087 20 36.0859H19.992ZM27.992 36.0859C27.9627 36.087 27.9349 36.0995 27.9147 36.1208C27.8945 36.1421 27.8835 36.1705 27.884 36.1998C27.8846 36.2292 27.8966 36.2572 27.9175 36.2777C27.9385 36.2983 27.9667 36.3098 27.996 36.3098C28.0254 36.3098 28.0536 36.2983 28.0745 36.2777C28.0954 36.2572 28.1075 36.2292 28.108 36.1998C28.1085 36.1705 28.0975 36.1421 28.0773 36.1208C28.0571 36.0995 28.0294 36.087 28 36.0859H27.992ZM19.992 36.6479C19.9772 36.6484 19.9627 36.6519 19.9493 36.658C19.9358 36.6641 19.9237 36.6729 19.9136 36.6837C19.9036 36.6945 19.8957 36.7072 19.8906 36.7211C19.8854 36.7349 19.883 36.7496 19.8835 36.7644C19.884 36.7792 19.8875 36.7937 19.8936 36.8072C19.8998 36.8206 19.9085 36.8327 19.9193 36.8428C19.9301 36.8529 19.9428 36.8607 19.9567 36.8659C19.9705 36.871 19.9852 36.8734 20 36.8729C20.0299 36.8729 20.0585 36.8611 20.0796 36.84C20.1007 36.8189 20.1125 36.7902 20.1125 36.7604C20.1125 36.7306 20.1007 36.702 20.0796 36.6809C20.0585 36.6598 20.0299 36.6479 20 36.6479H19.992ZM27.992 36.6479C27.9772 36.6484 27.9627 36.6519 27.9493 36.658C27.9358 36.6641 27.9237 36.6729 27.9136 36.6837C27.9036 36.6945 27.8957 36.7072 27.8906 36.7211C27.8854 36.7349 27.883 36.7496 27.8835 36.7644C27.884 36.7792 27.8875 36.7937 27.8936 36.8072C27.8998 36.8206 27.9085 36.8327 27.9193 36.8428C27.9301 36.8529 27.9428 36.8607 27.9567 36.8659C27.9705 36.871 27.9852 36.8734 28 36.8729C28.0299 36.8729 28.0585 36.8611 28.0796 36.84C28.1007 36.8189 28.1125 36.7902 28.1125 36.7604C28.1125 36.7306 28.1007 36.702 28.0796 36.6809C28.0585 36.6598 28.0299 36.6479 28 36.6479H27.992ZM19.98 37.2109C19.9537 37.215 19.9298 37.2285 19.9127 37.2489C19.8956 37.2694 19.8865 37.2953 19.887 37.3219C19.887 37.3839 19.937 37.4339 20 37.4329C20.061 37.4329 20.11 37.3829 20.111 37.3219C20.111 37.2609 20.061 37.2119 20 37.2109H19.98ZM27.98 37.2109C27.9537 37.215 27.9298 37.2285 27.9127 37.2489C27.8956 37.2694 27.8865 37.2953 27.887 37.3219C27.887 37.3839 27.937 37.4339 28 37.4329C28.061 37.4329 28.11 37.3829 28.111 37.3219C28.111 37.2609 28.061 37.2119 28 37.2109H27.98ZM24.98 37.5659V37.5679C24.8554 37.5699 24.7323 37.5966 24.618 37.6464C24.5037 37.6961 24.4004 37.768 24.314 37.8579L22.506 39.7149C22.4193 39.8039 22.351 39.909 22.305 40.0244C22.259 40.1398 22.2361 40.2631 22.2378 40.3873C22.2394 40.5115 22.2655 40.6341 22.3145 40.7483C22.3635 40.8624 22.4345 40.9657 22.5235 41.0524C22.6125 41.1391 22.7177 41.2074 22.833 41.2534C22.9484 41.2994 23.0717 41.3223 23.1959 41.3207C23.3201 41.319 23.4428 41.293 23.5569 41.2439C23.671 41.1949 23.7743 41.1239 23.861 41.0349L25.67 39.1749C25.8021 39.0412 25.8913 38.8712 25.9263 38.6865C25.9612 38.5019 25.9404 38.311 25.8663 38.1383C25.7922 37.9656 25.6683 37.8189 25.5105 37.7169C25.3526 37.6149 25.1679 37.5624 24.98 37.5659ZM19.992 37.7709C19.9627 37.772 19.9349 37.7845 19.9147 37.8058C19.8945 37.8271 19.8835 37.8555 19.884 37.8848C19.8846 37.9142 19.8966 37.9422 19.9175 37.9627C19.9385 37.9833 19.9667 37.9948 19.996 37.9948C20.0254 37.9948 20.0536 37.9833 20.0745 37.9627C20.0954 37.9422 20.1075 37.9142 20.108 37.8848C20.1085 37.8555 20.0975 37.8271 20.0773 37.8058C20.0571 37.7845 20.0294 37.772 20 37.7709C19.9974 37.7708 19.9947 37.7708 19.992 37.7709ZM27.992 37.7709C27.9627 37.772 27.9349 37.7845 27.9147 37.8058C27.8945 37.8271 27.8835 37.8555 27.884 37.8848C27.8846 37.9142 27.8966 37.9422 27.9175 37.9627C27.9385 37.9833 27.9667 37.9948 27.996 37.9948C28.0254 37.9948 28.0536 37.9833 28.0745 37.9627C28.0954 37.9422 28.1075 37.9142 28.108 37.8848C28.1085 37.8555 28.0975 37.8271 28.0773 37.8058C28.0571 37.7845 28.0294 37.772 28 37.7709C27.9974 37.7708 27.9947 37.7708 27.992 37.7709ZM25.043 38.0509H25.045C25.1352 38.0592 25.2202 38.0968 25.287 38.1579C25.694 38.5199 25.212 38.9429 25.037 39.1269L24.174 40.0309C23.567 40.6619 23.303 41.0889 22.879 40.6809C22.519 40.3079 22.837 40.0849 23.525 39.3859L24.391 38.4819C24.596 38.2819 24.808 38.0399 25.043 38.0509ZM19.993 38.3339C19.9642 38.3355 19.9371 38.3481 19.9173 38.3691C19.8976 38.3902 19.8867 38.418 19.887 38.4469C19.887 38.5089 19.937 38.5589 20 38.5579C20.0299 38.5568 20.058 38.544 20.0784 38.5221C20.0987 38.5003 20.1096 38.4712 20.1085 38.4414C20.1075 38.4116 20.0946 38.3834 20.0727 38.363C20.0509 38.3427 20.0219 38.3318 19.992 38.3329L19.993 38.3339ZM27.993 38.3339C27.9642 38.3355 27.9371 38.3481 27.9173 38.3691C27.8976 38.3902 27.8867 38.418 27.887 38.4469C27.887 38.5089 27.937 38.5589 28 38.5579C28.0299 38.5568 28.058 38.544 28.0784 38.5221C28.0987 38.5003 28.1096 38.4712 28.1085 38.4414C28.1075 38.4116 28.0946 38.3834 28.0727 38.363C28.0509 38.3427 28.0219 38.3318 27.992 38.3329L27.993 38.3339ZM19.993 38.8959C19.9637 38.897 19.9359 38.9095 19.9157 38.9308C19.8955 38.9521 19.8845 38.9805 19.885 39.0098C19.8856 39.0392 19.8976 39.0672 19.9185 39.0877C19.9395 39.1083 19.9677 39.1198 19.997 39.1198C20.0264 39.1198 20.0546 39.1083 20.0755 39.0877C20.0964 39.0672 20.1085 39.0392 20.109 39.0098C20.1095 38.9805 20.0985 38.9521 20.0783 38.9308C20.0581 38.9095 20.0304 38.897 20.001 38.8959C19.998 38.8958 19.995 38.8958 19.992 38.8959H19.993ZM27.993 38.8959C27.9637 38.897 27.9359 38.9095 27.9157 38.9308C27.8955 38.9521 27.8845 38.9805 27.885 39.0098C27.8856 39.0392 27.8976 39.0672 27.9185 39.0877C27.9395 39.1083 27.9677 39.1198 27.997 39.1198C28.0264 39.1198 28.0546 39.1083 28.0755 39.0877C28.0964 39.0672 28.1085 39.0392 28.109 39.0098C28.1095 38.9805 28.0985 38.9521 28.0783 38.9308C28.0581 38.9095 28.0304 38.897 28.001 38.8959C27.998 38.8958 27.995 38.8958 27.992 38.8959H27.993ZM19.993 39.4589C19.9783 39.4598 19.9639 39.4635 19.9507 39.4699C19.9374 39.4763 19.9255 39.4853 19.9157 39.4963C19.9059 39.5073 19.8984 39.5201 19.8936 39.5341C19.8887 39.548 19.8867 39.5627 19.8875 39.5774C19.8884 39.5921 19.8921 39.6065 19.8985 39.6198C19.9049 39.633 19.9139 39.6449 19.9249 39.6547C19.9359 39.6645 19.9487 39.672 19.9627 39.6769C19.9766 39.6817 19.9913 39.6838 20.006 39.6829C20.0357 39.681 20.0635 39.6675 20.0832 39.6452C20.1029 39.6228 20.1129 39.5936 20.111 39.5639C20.1092 39.5342 20.0956 39.5065 20.0733 39.4868C20.0509 39.4671 20.0217 39.4571 19.992 39.4589H19.993ZM27.993 39.4589C27.9783 39.4598 27.9639 39.4635 27.9507 39.4699C27.9374 39.4763 27.9255 39.4853 27.9157 39.4963C27.9059 39.5073 27.8984 39.5201 27.8936 39.5341C27.8887 39.548 27.8867 39.5627 27.8875 39.5774C27.8884 39.5921 27.8921 39.6065 27.8985 39.6198C27.9049 39.633 27.9139 39.6449 27.9249 39.6547C27.9359 39.6645 27.9487 39.672 27.9627 39.6769C27.9766 39.6817 27.9913 39.6838 28.006 39.6829C28.0357 39.681 28.0635 39.6675 28.0832 39.6452C28.1029 39.6228 28.1129 39.5936 28.111 39.5639C28.1092 39.5342 28.0956 39.5065 28.0733 39.4868C28.0509 39.4671 28.0217 39.4571 27.992 39.4589H27.993ZM19.993 40.0209C19.9783 40.0218 19.9639 40.0255 19.9507 40.0319C19.9374 40.0383 19.9255 40.0473 19.9157 40.0583C19.9059 40.0693 19.8984 40.0821 19.8936 40.0961C19.8887 40.11 19.8867 40.1247 19.8875 40.1394C19.8884 40.1541 19.8921 40.1685 19.8985 40.1818C19.9049 40.195 19.9139 40.2069 19.9249 40.2167C19.9359 40.2265 19.9487 40.234 19.9627 40.2389C19.9766 40.2437 19.9913 40.2458 20.006 40.2449C20.0357 40.243 20.0635 40.2295 20.0832 40.2072C20.1029 40.1848 20.1129 40.1556 20.111 40.1259C20.1092 40.0962 20.0956 40.0685 20.0733 40.0488C20.0509 40.0291 20.0217 40.0191 19.992 40.0209H19.993ZM27.993 40.0209C27.9783 40.0218 27.9639 40.0255 27.9507 40.0319C27.9374 40.0383 27.9255 40.0473 27.9157 40.0583C27.9059 40.0693 27.8984 40.0821 27.8936 40.0961C27.8887 40.11 27.8867 40.1247 27.8875 40.1394C27.8884 40.1541 27.8921 40.1685 27.8985 40.1818C27.9049 40.195 27.9139 40.2069 27.9249 40.2167C27.9359 40.2265 27.9487 40.234 27.9627 40.2389C27.9766 40.2437 27.9913 40.2458 28.006 40.2449C28.0357 40.243 28.0635 40.2295 28.0832 40.2072C28.1029 40.1848 28.1129 40.1556 28.111 40.1259C28.1092 40.0962 28.0956 40.0685 28.0733 40.0488C28.0509 40.0291 28.0217 40.0191 27.992 40.0209H27.993ZM19.993 40.5839C19.9783 40.5848 19.9639 40.5885 19.9507 40.5949C19.9374 40.6013 19.9255 40.6103 19.9157 40.6213C19.9059 40.6323 19.8984 40.6451 19.8936 40.6591C19.8887 40.673 19.8867 40.6877 19.8875 40.7024C19.8884 40.7171 19.8921 40.7315 19.8985 40.7448C19.9049 40.758 19.9139 40.7699 19.9249 40.7797C19.9359 40.7895 19.9487 40.797 19.9627 40.8019C19.9766 40.8067 19.9913 40.8088 20.006 40.8079C20.0207 40.807 20.0351 40.8032 20.0483 40.7967C20.0616 40.7902 20.0734 40.7812 20.0832 40.7702C20.0929 40.7591 20.1004 40.7462 20.1052 40.7323C20.11 40.7184 20.1119 40.7036 20.111 40.6889C20.1101 40.6742 20.1063 40.6598 20.0998 40.6466C20.0933 40.6333 20.0843 40.6215 20.0733 40.6118C20.0622 40.602 20.0494 40.5945 20.0354 40.5898C20.0215 40.585 20.0067 40.583 19.992 40.5839H19.993ZM27.993 40.5839C27.9783 40.5848 27.9639 40.5885 27.9507 40.5949C27.9374 40.6013 27.9255 40.6103 27.9157 40.6213C27.9059 40.6323 27.8984 40.6451 27.8936 40.6591C27.8887 40.673 27.8867 40.6877 27.8875 40.7024C27.8884 40.7171 27.8921 40.7315 27.8985 40.7448C27.9049 40.758 27.9139 40.7699 27.9249 40.7797C27.9359 40.7895 27.9487 40.797 27.9627 40.8019C27.9766 40.8067 27.9913 40.8088 28.006 40.8079C28.0207 40.807 28.0351 40.8032 28.0483 40.7967C28.0616 40.7902 28.0734 40.7812 28.0832 40.7702C28.0929 40.7591 28.1004 40.7462 28.1052 40.7323C28.11 40.7184 28.1119 40.7036 28.111 40.6889C28.1101 40.6742 28.1063 40.6598 28.0998 40.6466C28.0933 40.6333 28.0843 40.6215 28.0733 40.6118C28.0622 40.602 28.0493 40.5945 28.0354 40.5898C28.0215 40.585 28.0067 40.583 27.992 40.5839H27.993ZM19.981 41.1459C19.9545 41.1498 19.9304 41.1632 19.9131 41.1837C19.8957 41.2041 19.8865 41.2301 19.887 41.2569C19.8864 41.2794 19.8925 41.3015 19.9046 41.3205C19.9166 41.3395 19.9341 41.3544 19.9547 41.3634C19.9752 41.3724 19.9981 41.3751 20.0202 41.3711C20.0423 41.3671 20.0627 41.3566 20.0788 41.3409C20.0949 41.3252 20.106 41.3051 20.1106 41.2831C20.1152 41.2611 20.1131 41.2382 20.1047 41.2174C20.0962 41.1966 20.0817 41.1787 20.0631 41.1662C20.0445 41.1536 20.0225 41.1469 20 41.1469H19.98L19.981 41.1459ZM27.981 41.1459C27.9545 41.1498 27.9304 41.1632 27.9131 41.1837C27.8957 41.2041 27.8865 41.2301 27.887 41.2569C27.8864 41.2794 27.8925 41.3015 27.9046 41.3205C27.9166 41.3395 27.9341 41.3544 27.9547 41.3634C27.9752 41.3724 27.9981 41.3751 28.0202 41.3711C28.0423 41.3671 28.0627 41.3566 28.0788 41.3409C28.0949 41.3252 28.106 41.3051 28.1106 41.2831C28.1152 41.2611 28.1131 41.2382 28.1047 41.2174C28.0962 41.1966 28.0817 41.1787 28.0631 41.1662C28.0445 41.1536 28.0225 41.1469 28 41.1469H27.98L27.981 41.1459ZM19.981 41.7089C19.9545 41.7128 19.9304 41.7262 19.9131 41.7467C19.8957 41.7671 19.8865 41.7931 19.887 41.8199C19.887 41.8819 19.937 41.9319 20 41.9309C20.061 41.9309 20.11 41.8809 20.111 41.8199C20.111 41.7589 20.061 41.7099 20 41.7089H19.98H19.981ZM27.981 41.7089C27.9545 41.7128 27.9304 41.7262 27.9131 41.7467C27.8957 41.7671 27.8865 41.7931 27.887 41.8199C27.887 41.8819 27.937 41.9319 28 41.9309C28.061 41.9309 28.11 41.8809 28.111 41.8199C28.111 41.7589 28.061 41.7099 28 41.7089H27.98H27.981ZM20.002 42.2689C19.9722 42.2686 19.9435 42.2802 19.9222 42.3012C19.9009 42.3221 19.8888 42.3506 19.8885 42.3804C19.8883 42.4102 19.8999 42.439 19.9208 42.4603C19.9417 42.4815 19.9702 42.4936 20 42.4939C20.0148 42.494 20.0294 42.4913 20.0431 42.4857C20.0568 42.4802 20.0693 42.472 20.0799 42.4617C20.0904 42.4513 20.0988 42.439 20.1046 42.4254C20.1103 42.4118 20.1134 42.3972 20.1135 42.3824C20.1136 42.3676 20.1109 42.353 20.1053 42.3393C20.0998 42.3256 20.0916 42.3131 20.0813 42.3026C20.0709 42.292 20.0586 42.2836 20.045 42.2779C20.0314 42.2721 20.0168 42.269 20.002 42.2689ZM28.002 42.2689C27.9722 42.2686 27.9435 42.2802 27.9222 42.3012C27.9009 42.3221 27.8888 42.3506 27.8885 42.3804C27.8883 42.4102 27.8999 42.439 27.9208 42.4603C27.9417 42.4815 27.9702 42.4936 28 42.4939C28.0148 42.494 28.0294 42.4913 28.0431 42.4857C28.0568 42.4802 28.0693 42.472 28.0799 42.4617C28.0904 42.4513 28.0988 42.439 28.1046 42.4254C28.1103 42.4118 28.1134 42.3972 28.1135 42.3824C28.1136 42.3676 28.1109 42.353 28.1053 42.3393C28.0998 42.3256 28.0916 42.3131 28.0813 42.3026C28.0709 42.292 28.0586 42.2836 28.045 42.2779C28.0314 42.2721 28.0168 42.269 28.002 42.2689ZM19.992 42.8319C19.9627 42.833 19.9349 42.8455 19.9147 42.8668C19.8945 42.8881 19.8835 42.9165 19.884 42.9458C19.8846 42.9752 19.8966 43.0032 19.9175 43.0237C19.9385 43.0443 19.9667 43.0558 19.996 43.0558C20.0254 43.0558 20.0536 43.0443 20.0745 43.0237C20.0954 43.0032 20.1075 42.9752 20.108 42.9458C20.1085 42.9165 20.0975 42.8881 20.0773 42.8668C20.0571 42.8455 20.0294 42.833 20 42.8319C19.9974 42.8318 19.9947 42.8318 19.992 42.8319ZM27.992 42.8319C27.9627 42.833 27.9349 42.8455 27.9147 42.8668C27.8945 42.8881 27.8835 42.9165 27.884 42.9458C27.8846 42.9752 27.8966 43.0032 27.9175 43.0237C27.9385 43.0443 27.9667 43.0558 27.996 43.0558C28.0254 43.0558 28.0536 43.0443 28.0745 43.0237C28.0954 43.0032 28.1075 42.9752 28.108 42.9458C28.1085 42.9165 28.0975 42.8881 28.0773 42.8668C28.0571 42.8455 28.0294 42.833 28 42.8319C27.9974 42.8318 27.9947 42.8318 27.992 42.8319Z" fill="#333333"/>
</svg>
