<svg width="48" height="48" viewBox="0 0 48 48" fill="none" xmlns="http://www.w3.org/2000/svg">
<path d="M23.828 4.10397C20.537 4.11097 17.302 4.12597 14.147 4.12497C13.277 4.12497 12.58 4.82497 12.58 5.69397V42.554C12.58 43.424 13.277 44.125 14.146 44.125H33.852C34.721 44.125 35.42 43.425 35.42 42.555V5.69397C35.42 4.82397 34.721 4.12497 33.852 4.12497C30.5107 4.09989 27.1694 4.09289 23.828 4.10397ZM19.992 5.16597H20C20.0294 5.16702 20.0571 5.17955 20.0773 5.20085C20.0975 5.22216 20.1085 5.25055 20.108 5.2799C20.1075 5.30925 20.0954 5.33723 20.0745 5.3578C20.0536 5.37837 20.0254 5.3899 19.996 5.3899C19.9667 5.3899 19.9385 5.37837 19.9175 5.3578C19.8966 5.33723 19.8846 5.30925 19.884 5.2799C19.8835 5.25055 19.8945 5.22216 19.9147 5.20085C19.9349 5.17955 19.9627 5.16702 19.992 5.16597ZM27.992 5.16597H28C28.0294 5.16702 28.0571 5.17955 28.0773 5.20085C28.0975 5.22216 28.1085 5.25055 28.108 5.2799C28.1075 5.30925 28.0954 5.33723 28.0745 5.3578C28.0536 5.37837 28.0254 5.3899 27.996 5.3899C27.9667 5.3899 27.9385 5.37837 27.9175 5.3578C27.8966 5.33723 27.8846 5.30925 27.884 5.2799C27.8835 5.25055 27.8945 5.22216 27.9147 5.20085C27.9349 5.17955 27.9627 5.16702 27.992 5.16597ZM19.992 5.72897H20C20.0294 5.73002 20.0571 5.74255 20.0773 5.76385C20.0975 5.78516 20.1085 5.81355 20.108 5.8429C20.1075 5.87225 20.0954 5.90023 20.0745 5.9208C20.0536 5.94137 20.0254 5.9529 19.996 5.9529C19.9667 5.9529 19.9385 5.94137 19.9175 5.9208C19.8966 5.90023 19.8846 5.87225 19.884 5.8429C19.8835 5.81355 19.8945 5.78516 19.9147 5.76385C19.9349 5.74255 19.9627 5.73002 19.992 5.72897ZM27.992 5.72897H28C28.0294 5.73002 28.0571 5.74255 28.0773 5.76385C28.0975 5.78516 28.1085 5.81355 28.108 5.8429C28.1075 5.87225 28.0954 5.90023 28.0745 5.9208C28.0536 5.94137 28.0254 5.9529 27.996 5.9529C27.9667 5.9529 27.9385 5.94137 27.9175 5.9208C27.8966 5.90023 27.8846 5.87225 27.884 5.8429C27.8835 5.81355 27.8945 5.78516 27.9147 5.76385C27.9349 5.74255 27.9627 5.73002 27.992 5.72897ZM24.978 6.06497C25.1026 6.06332 25.2263 6.08632 25.342 6.13266C25.4577 6.17899 25.563 6.24775 25.652 6.33497C25.7415 6.4216 25.813 6.52505 25.8623 6.63939C25.9117 6.75373 25.938 6.8767 25.9396 7.00123C25.9413 7.12576 25.9183 7.24939 25.8721 7.36501C25.8258 7.48064 25.7571 7.58597 25.67 7.67497L23.86 9.53197C23.6849 9.71223 23.4454 9.81559 23.1942 9.81934C22.9429 9.82309 22.7004 9.72692 22.52 9.55197C22.4306 9.46528 22.3592 9.36177 22.3099 9.2474C22.2607 9.13302 22.2345 9.01003 22.2329 8.88551C22.2313 8.76098 22.2544 8.63737 22.3007 8.52178C22.3471 8.40619 22.4158 8.3009 22.503 8.21197L24.311 6.35497C24.3974 6.26514 24.5008 6.19327 24.6151 6.1435C24.7294 6.09373 24.8524 6.06704 24.977 6.06497V6.06397L24.978 6.06497ZM19.982 6.29097H20C20.061 6.29197 20.11 6.34097 20.111 6.40297C20.111 6.46397 20.061 6.51297 20 6.51297C19.9724 6.51226 19.946 6.50136 19.9259 6.48236C19.9058 6.46336 19.8935 6.43761 19.8913 6.41006C19.889 6.38251 19.8971 6.35511 19.9138 6.33312C19.9306 6.31114 19.9549 6.29612 19.982 6.29097ZM27.982 6.29097H28C28.061 6.29197 28.11 6.34097 28.111 6.40297C28.111 6.46397 28.061 6.51297 28 6.51297C27.9724 6.51226 27.946 6.50136 27.9259 6.48236C27.9058 6.46336 27.8935 6.43761 27.8913 6.41006C27.889 6.38251 27.8971 6.35511 27.9138 6.33312C27.9306 6.31114 27.9549 6.29612 27.982 6.29097ZM20.002 6.85097C20.0168 6.8511 20.0314 6.85414 20.045 6.85992C20.0586 6.86569 20.0709 6.87409 20.0813 6.88463C20.0916 6.89517 20.0998 6.90764 20.1053 6.92134C20.1109 6.93504 20.1136 6.9497 20.1135 6.96447C20.1134 6.97924 20.1103 6.99385 20.1046 7.00745C20.0988 7.02105 20.0904 7.03337 20.0799 7.04373C20.0693 7.05408 20.0568 7.06226 20.0431 7.06779C20.0294 7.07332 20.0148 7.0761 20 7.07597C19.9703 7.07571 19.9419 7.06365 19.9211 7.04246C19.9003 7.02127 19.8888 6.99268 19.889 6.96297C19.8893 6.93327 19.9013 6.90488 19.9225 6.88407C19.9437 6.86325 19.9723 6.85171 20.002 6.85197V6.85097ZM28.002 6.85097C28.0168 6.8511 28.0314 6.85414 28.045 6.85992C28.0586 6.86569 28.0709 6.87409 28.0813 6.88463C28.0916 6.89517 28.0998 6.90764 28.1053 6.92134C28.1109 6.93504 28.1136 6.9497 28.1135 6.96447C28.1134 6.97924 28.1103 6.99385 28.1046 7.00745C28.0988 7.02105 28.0904 7.03337 28.0799 7.04373C28.0693 7.05408 28.0568 7.06226 28.0431 7.06779C28.0294 7.07332 28.0148 7.0761 28 7.07597C27.9703 7.07571 27.9419 7.06365 27.9211 7.04246C27.9003 7.02127 27.8888 6.99268 27.889 6.96297C27.8893 6.93327 27.9013 6.90488 27.9225 6.88407C27.9437 6.86325 27.9723 6.85171 28.002 6.85197V6.85097ZM19.992 7.41397H20C20.0294 7.41502 20.0571 7.42755 20.0773 7.44885C20.0975 7.47016 20.1085 7.49855 20.108 7.5279C20.1075 7.55725 20.0954 7.58523 20.0745 7.6058C20.0536 7.62637 20.0254 7.6379 19.996 7.6379C19.9667 7.6379 19.9385 7.62637 19.9175 7.6058C19.8966 7.58523 19.8846 7.55725 19.884 7.5279C19.8835 7.49855 19.8945 7.47016 19.9147 7.44885C19.9349 7.42755 19.9627 7.41502 19.992 7.41397ZM27.992 7.41397H28C28.0294 7.41502 28.0571 7.42755 28.0773 7.44885C28.0975 7.47016 28.1085 7.49855 28.108 7.5279C28.1075 7.55725 28.0954 7.58523 28.0745 7.6058C28.0536 7.62637 28.0254 7.6379 27.996 7.6379C27.9667 7.6379 27.9385 7.62637 27.9175 7.6058C27.8966 7.58523 27.8846 7.55725 27.884 7.5279C27.8835 7.49855 27.8945 7.47016 27.9147 7.44885C27.9349 7.42755 27.9627 7.41502 27.992 7.41397ZM19.992 7.97397H20C20.0294 7.97502 20.0571 7.98755 20.0773 8.00885C20.0975 8.03016 20.1085 8.05855 20.108 8.0879C20.1075 8.11725 20.0954 8.14523 20.0745 8.1658C20.0536 8.18637 20.0254 8.1979 19.996 8.1979C19.9667 8.1979 19.9385 8.18637 19.9175 8.1658C19.8966 8.14523 19.8846 8.11725 19.884 8.0879C19.8835 8.05855 19.8945 8.03016 19.9147 8.00885C19.9349 7.98755 19.9627 7.97502 19.992 7.97397ZM27.992 7.97397H28C28.0294 7.97502 28.0571 7.98755 28.0773 8.00885C28.0975 8.03016 28.1085 8.05855 28.108 8.0879C28.1075 8.11725 28.0954 8.14523 28.0745 8.1658C28.0536 8.18637 28.0254 8.1979 27.996 8.1979C27.9667 8.1979 27.9385 8.18637 27.9175 8.1658C27.8966 8.14523 27.8846 8.11725 27.884 8.0879C27.8835 8.05855 27.8945 8.03016 27.9147 8.00885C27.9349 7.98755 27.9627 7.97502 27.992 7.97397ZM19.992 8.53697H20C20.0294 8.53802 20.0571 8.55055 20.0773 8.57185C20.0975 8.59316 20.1085 8.62155 20.108 8.6509C20.1075 8.68025 20.0954 8.70823 20.0745 8.7288C20.0536 8.74937 20.0254 8.7609 19.996 8.7609C19.9667 8.7609 19.9385 8.74937 19.9175 8.7288C19.8966 8.70823 19.8846 8.68025 19.884 8.6509C19.8835 8.62155 19.8945 8.59316 19.9147 8.57185C19.9349 8.55055 19.9627 8.53802 19.992 8.53697ZM27.992 8.53697H28C28.0294 8.53802 28.0571 8.55055 28.0773 8.57185C28.0975 8.59316 28.1085 8.62155 28.108 8.6509C28.1075 8.68025 28.0954 8.70823 28.0745 8.7288C28.0536 8.74937 28.0254 8.7609 27.996 8.7609C27.9667 8.7609 27.9385 8.74937 27.9175 8.7288C27.8966 8.70823 27.8846 8.68025 27.884 8.6509C27.8835 8.62155 27.8945 8.59316 27.9147 8.57185C27.9349 8.55055 27.9627 8.53802 27.992 8.53697ZM19.992 9.09997H20C20.0294 9.10102 20.0571 9.11355 20.0773 9.13485C20.0975 9.15616 20.1085 9.18455 20.108 9.2139C20.1075 9.24325 20.0954 9.27123 20.0745 9.2918C20.0536 9.31237 20.0254 9.3239 19.996 9.3239C19.9667 9.3239 19.9385 9.31237 19.9175 9.2918C19.8966 9.27123 19.8846 9.24325 19.884 9.2139C19.8835 9.18455 19.8945 9.15616 19.9147 9.13485C19.9349 9.11355 19.9627 9.10102 19.992 9.09997ZM27.992 9.09997H28C28.0294 9.10102 28.0571 9.11355 28.0773 9.13485C28.0975 9.15616 28.1085 9.18455 28.108 9.2139C28.1075 9.24325 28.0954 9.27123 28.0745 9.2918C28.0536 9.31237 28.0254 9.3239 27.996 9.3239C27.9667 9.3239 27.9385 9.31237 27.9175 9.2918C27.8966 9.27123 27.8846 9.24325 27.884 9.2139C27.8835 9.18455 27.8945 9.15616 27.9147 9.13485C27.9349 9.11355 27.9627 9.10102 27.992 9.09997ZM19.992 9.66197H20C20.0294 9.66302 20.0571 9.67555 20.0773 9.69685C20.0975 9.71816 20.1085 9.74655 20.108 9.7759C20.1075 9.80525 20.0954 9.83323 20.0745 9.8538C20.0536 9.87437 20.0254 9.8859 19.996 9.8859C19.9667 9.8859 19.9385 9.87437 19.9175 9.8538C19.8966 9.83323 19.8846 9.80525 19.884 9.7759C19.8835 9.74655 19.8945 9.71816 19.9147 9.69685C19.9349 9.67555 19.9627 9.66302 19.992 9.66197ZM27.992 9.66197H28C28.0294 9.66302 28.0571 9.67555 28.0773 9.69685C28.0975 9.71816 28.1085 9.74655 28.108 9.7759C28.1075 9.80525 28.0954 9.83323 28.0745 9.8538C28.0536 9.87437 28.0254 9.8859 27.996 9.8859C27.9667 9.8859 27.9385 9.87437 27.9175 9.8538C27.8966 9.83323 27.8846 9.80525 27.884 9.7759C27.8835 9.74655 27.8945 9.71816 27.9147 9.69685C27.9349 9.67555 27.9627 9.66302 27.992 9.66197ZM19.98 10.225H20C20.061 10.225 20.11 10.277 20.111 10.338C20.111 10.3677 20.0992 10.3962 20.0782 10.4172C20.0572 10.4382 20.0287 10.45 19.999 10.45C19.9693 10.45 19.9408 10.4382 19.9198 10.4172C19.8988 10.3962 19.887 10.3677 19.887 10.338C19.887 10.283 19.926 10.233 19.98 10.225ZM27.98 10.225H28C28.061 10.225 28.11 10.277 28.111 10.338C28.111 10.3677 28.0992 10.3962 28.0782 10.4172C28.0572 10.4382 28.0287 10.45 27.999 10.45C27.9693 10.45 27.9408 10.4382 27.9198 10.4172C27.8988 10.3962 27.887 10.3677 27.887 10.338C27.887 10.283 27.926 10.233 27.98 10.225ZM20.002 10.785C20.064 10.786 20.114 10.839 20.113 10.901C20.1129 10.9154 20.1099 10.9297 20.1043 10.943C20.0986 10.9563 20.0904 10.9683 20.0801 10.9785C20.0698 10.9886 20.0576 10.9966 20.0442 11.002C20.0308 11.0074 20.0165 11.0101 20.002 11.01C19.9873 11.0104 19.9727 11.0078 19.959 11.0025C19.9453 10.9971 19.9328 10.9891 19.9223 10.9788C19.9118 10.9686 19.9034 10.9563 19.8977 10.9428C19.892 10.9292 19.889 10.9147 19.889 10.9C19.889 10.838 19.939 10.785 20.002 10.785ZM28.002 10.785C28.064 10.786 28.114 10.839 28.113 10.901C28.1129 10.9154 28.1099 10.9297 28.1043 10.943C28.0986 10.9563 28.0904 10.9683 28.0801 10.9785C28.0698 10.9886 28.0576 10.9966 28.0442 11.002C28.0308 11.0074 28.0165 11.0101 28.002 11.01C27.9873 11.0104 27.9727 11.0078 27.959 11.0025C27.9453 10.9971 27.9328 10.9891 27.9223 10.9788C27.9118 10.9686 27.9034 10.9563 27.8977 10.9428C27.892 10.9292 27.889 10.9147 27.889 10.9C27.889 10.838 27.939 10.785 28.002 10.785ZM24.979 11.325H24.981C25.1691 11.3212 25.3541 11.3737 25.5121 11.4757C25.6702 11.5777 25.7943 11.7246 25.8684 11.8975C25.9425 12.0705 25.9633 12.2616 25.9281 12.4464C25.893 12.6312 25.8034 12.8013 25.671 12.935L23.861 14.793C23.6859 14.9732 23.4464 15.0766 23.1952 15.0803C22.9439 15.0841 22.7014 14.9879 22.521 14.813C22.4316 14.7263 22.3602 14.6228 22.3109 14.5084C22.2617 14.394 22.2355 14.271 22.2339 14.1465C22.2323 14.022 22.2554 13.8984 22.3017 13.7828C22.3481 13.6672 22.4168 13.5619 22.504 13.473L24.312 11.616C24.3984 11.5261 24.5018 11.4543 24.6161 11.4045C24.7304 11.3547 24.8534 11.328 24.978 11.326V11.324L24.979 11.325ZM20.002 11.348C20.0319 11.3482 20.0604 11.3603 20.0813 11.3816C20.1022 11.4029 20.1138 11.4316 20.1135 11.4615C20.1133 11.4913 20.1011 11.5198 20.0799 11.5407C20.0586 11.5616 20.0299 11.5732 20 11.573C19.9852 11.5728 19.9706 11.5698 19.957 11.564C19.9434 11.5582 19.9311 11.5499 19.9208 11.5393C19.8999 11.518 19.8883 11.4893 19.8885 11.4595C19.8888 11.4296 19.9009 11.4011 19.9222 11.3802C19.9435 11.3593 19.9722 11.3477 20.002 11.348ZM28.002 11.348C28.0319 11.3482 28.0604 11.3603 28.0813 11.3816C28.1022 11.4029 28.1138 11.4316 28.1135 11.4615C28.1133 11.4913 28.1011 11.5198 28.0799 11.5407C28.0586 11.5616 28.0299 11.5732 28 11.573C27.9852 11.5728 27.9706 11.5698 27.957 11.564C27.9434 11.5582 27.9311 11.5499 27.9208 11.5393C27.9104 11.5288 27.9022 11.5163 27.8967 11.5026C27.8912 11.4889 27.8884 11.4742 27.8885 11.4595C27.8886 11.4447 27.8917 11.4301 27.8975 11.4165C27.9032 11.4029 27.9116 11.3906 27.9222 11.3802C27.9327 11.3699 27.9452 11.3617 27.9589 11.3562C27.9726 11.3506 27.9872 11.3478 28.002 11.348ZM17.532 11.563C17.6564 11.5614 17.78 11.5845 17.8954 11.6308C18.0109 11.6772 18.1161 11.7459 18.205 11.833C18.2945 11.9196 18.366 12.0231 18.4153 12.1374C18.4647 12.2517 18.491 12.3747 18.4926 12.4992C18.4943 12.6238 18.4713 12.7474 18.4251 12.863C18.3788 12.9786 18.3101 13.084 18.223 13.173L16.414 15.031C16.3284 15.1245 16.2249 15.2 16.1096 15.2528C15.9943 15.3056 15.8696 15.3347 15.7429 15.3384C15.6161 15.3421 15.4899 15.3203 15.3717 15.2743C15.2535 15.2283 15.1458 15.1591 15.0549 15.0707C14.964 14.9822 14.8918 14.8765 14.8426 14.7596C14.7933 14.6427 14.768 14.5172 14.7682 14.3904C14.7684 14.2636 14.7941 14.1381 14.8437 14.0214C14.8933 13.9047 14.9658 13.7991 15.057 13.711L16.865 11.854C16.9514 11.7641 17.0548 11.6923 17.1691 11.6425C17.2834 11.5927 17.4064 11.566 17.531 11.564V11.563H17.532ZM32.25 11.563C32.3746 11.5613 32.4983 11.5843 32.614 11.6307C32.7297 11.677 32.835 11.7458 32.924 11.833C33.0134 11.9197 33.0848 12.0232 33.1341 12.1375C33.1834 12.2519 33.2095 12.3749 33.2111 12.4994C33.2127 12.624 33.1897 12.7476 33.1433 12.8632C33.0969 12.9788 33.0282 13.084 32.941 13.173L31.133 15.031C31.0468 15.1221 30.9434 15.1952 30.8287 15.2461C30.714 15.2969 30.5903 15.3244 30.4649 15.3271C30.3395 15.3297 30.2148 15.3074 30.098 15.2614C29.9813 15.2155 29.8749 15.1468 29.7849 15.0593C29.695 14.9719 29.6233 14.8674 29.574 14.7521C29.5248 14.6367 29.4989 14.5127 29.498 14.3872C29.4971 14.2618 29.5211 14.1374 29.5687 14.0213C29.6162 13.9052 29.6864 13.7997 29.775 13.711L31.584 11.854C31.6704 11.7641 31.7737 11.6922 31.888 11.6424C32.0023 11.5927 32.1254 11.566 32.25 11.564V11.563ZM19.992 11.91C20.0075 11.9089 20.023 11.911 20.0376 11.9162C20.0522 11.9214 20.0655 11.9295 20.0768 11.9401C20.0881 11.9508 20.097 11.9636 20.1031 11.9779C20.1092 11.9921 20.1122 12.0075 20.112 12.023C20.111 12.085 20.062 12.137 20 12.137C19.9715 12.1355 19.9446 12.1234 19.9246 12.1031C19.9046 12.0827 19.893 12.0556 19.892 12.0271C19.891 11.9986 19.9007 11.9708 19.9192 11.9491C19.9377 11.9274 19.9637 11.9134 19.992 11.91ZM27.992 11.91C28.0075 11.9089 28.023 11.911 28.0376 11.9162C28.0522 11.9214 28.0655 11.9295 28.0768 11.9401C28.0881 11.9508 28.097 11.9636 28.1031 11.9779C28.1092 11.9921 28.1122 12.0075 28.112 12.023C28.111 12.085 28.062 12.137 28 12.137C27.9715 12.1355 27.9446 12.1234 27.9246 12.1031C27.9046 12.0827 27.893 12.0556 27.892 12.0271C27.891 11.9986 27.9007 11.9708 27.9192 11.9491C27.9377 11.9274 27.9637 11.9134 27.992 11.91ZM19.992 12.473C20.0075 12.4719 20.023 12.474 20.0376 12.4792C20.0522 12.4844 20.0655 12.4925 20.0768 12.5031C20.0881 12.5138 20.097 12.5266 20.1031 12.5409C20.1092 12.5551 20.1122 12.5705 20.112 12.586C20.111 12.647 20.062 12.699 20 12.7C19.9715 12.6985 19.9446 12.6864 19.9246 12.6661C19.9046 12.6457 19.893 12.6186 19.892 12.5901C19.891 12.5616 19.9007 12.5338 19.9192 12.5121C19.9377 12.4904 19.9637 12.4764 19.992 12.473ZM27.992 12.473C28.0075 12.4719 28.023 12.474 28.0376 12.4792C28.0522 12.4844 28.0655 12.4925 28.0768 12.5031C28.0881 12.5138 28.097 12.5266 28.1031 12.5409C28.1092 12.5551 28.1122 12.5705 28.112 12.586C28.111 12.647 28.062 12.699 28 12.7C27.9715 12.6985 27.9446 12.6864 27.9246 12.6661C27.9046 12.6457 27.893 12.6186 27.892 12.5901C27.891 12.5616 27.9007 12.5338 27.9192 12.5121C27.9377 12.4904 27.9637 12.4764 27.992 12.473ZM19.98 14.723H20C20.0222 14.7232 20.0438 14.7299 20.0621 14.7424C20.0804 14.7549 20.0946 14.7725 20.1029 14.793C20.1112 14.8136 20.1132 14.8361 20.1087 14.8578C20.1041 14.8795 20.0933 14.8993 20.0775 14.9149C20.0617 14.9304 20.0416 14.9409 20.0199 14.945C19.9981 14.9491 19.9756 14.9467 19.9552 14.9381C19.9348 14.9294 19.9175 14.9149 19.9053 14.8964C19.8932 14.8778 19.8868 14.8561 19.887 14.834C19.887 14.78 19.926 14.73 19.98 14.723ZM27.98 14.723H28C28.0222 14.7232 28.0438 14.7299 28.0621 14.7424C28.0804 14.7549 28.0946 14.7725 28.1029 14.793C28.1112 14.8136 28.1132 14.8361 28.1087 14.8578C28.1041 14.8795 28.0933 14.8993 28.0775 14.9149C28.0617 14.9304 28.0416 14.9409 28.0199 14.945C27.9981 14.9491 27.9756 14.9467 27.9552 14.9381C27.9348 14.9294 27.9175 14.9149 27.9053 14.8964C27.8932 14.8778 27.8868 14.8561 27.887 14.834C27.887 14.78 27.926 14.73 27.98 14.723ZM19.98 15.285H20C20.061 15.286 20.11 15.335 20.111 15.397C20.1107 15.4183 20.1044 15.4391 20.0927 15.4569C20.081 15.4747 20.0645 15.4889 20.045 15.4976C20.0256 15.5064 20.0041 15.5094 19.983 15.5064C19.9619 15.5033 19.9421 15.4943 19.9259 15.4804C19.9098 15.4664 19.8979 15.4482 19.8918 15.4278C19.8856 15.4074 19.8854 15.3856 19.8912 15.3651C19.897 15.3446 19.9085 15.3262 19.9244 15.312C19.9403 15.2978 19.96 15.2884 19.981 15.285H19.98ZM27.98 15.285H28C28.061 15.286 28.11 15.335 28.111 15.397C28.1107 15.4183 28.1044 15.4391 28.0927 15.4569C28.081 15.4747 28.0645 15.4889 28.045 15.4976C28.0256 15.5064 28.0041 15.5094 27.983 15.5064C27.9619 15.5033 27.9421 15.4943 27.9259 15.4804C27.9098 15.4664 27.8979 15.4482 27.8918 15.4278C27.8856 15.4074 27.8854 15.3856 27.8912 15.3651C27.897 15.3446 27.9085 15.3262 27.9244 15.312C27.9403 15.2978 27.96 15.2884 27.981 15.285H27.98ZM20.002 15.846C20.0317 15.8462 20.0601 15.8583 20.0809 15.8795C20.1017 15.9007 20.1133 15.9293 20.113 15.959C20.1128 15.9887 20.1007 16.0171 20.0795 16.0379C20.0583 16.0587 20.0297 16.0702 20 16.07C19.9703 16.0697 19.9419 16.0577 19.9211 16.0365C19.9003 16.0153 19.8888 15.9867 19.889 15.957C19.8893 15.9273 19.9013 15.8989 19.9225 15.8781C19.9437 15.8573 19.9723 15.8457 20.002 15.846ZM28.002 15.846C28.0167 15.8461 28.0313 15.8491 28.0448 15.8549C28.0583 15.8606 28.0706 15.869 28.0809 15.8795C28.0912 15.89 28.0994 15.9024 28.1049 15.916C28.1104 15.9297 28.1131 15.9443 28.113 15.959C28.1129 15.9737 28.1099 15.9882 28.1041 16.0018C28.0984 16.0153 28.09 16.0276 28.0795 16.0379C28.069 16.0482 28.0566 16.0563 28.043 16.0618C28.0293 16.0673 28.0147 16.0701 28 16.07C27.9703 16.0697 27.9419 16.0577 27.9211 16.0365C27.9003 16.0153 27.8888 15.9867 27.889 15.957C27.8893 15.9273 27.9013 15.8989 27.9225 15.8781C27.9437 15.8573 27.9723 15.8457 28.002 15.846ZM24.98 16.582C25.1046 16.5803 25.2283 16.6033 25.344 16.6497C25.4597 16.696 25.565 16.7648 25.654 16.852C25.7435 16.9386 25.815 17.0421 25.8643 17.1564C25.9137 17.2707 25.94 17.3937 25.9416 17.5182C25.9433 17.6428 25.9203 17.7664 25.8741 17.882C25.8278 17.9976 25.7591 18.103 25.672 18.192L23.863 20.051C23.7763 20.1401 23.673 20.2112 23.5588 20.2604C23.4446 20.3095 23.3219 20.3357 23.1976 20.3374C23.0733 20.3392 22.9499 20.3164 22.8344 20.2704C22.7189 20.2244 22.6136 20.1561 22.5245 20.0695C22.4354 19.9828 22.3643 19.8794 22.3151 19.7653C22.266 19.6511 22.2398 19.5283 22.2381 19.4041C22.2363 19.2798 22.2591 19.1563 22.3051 19.0409C22.3511 18.9254 22.4193 18.8201 22.506 18.731L24.314 16.873C24.4005 16.7833 24.5039 16.7116 24.6182 16.662C24.7325 16.6124 24.8554 16.5859 24.98 16.584V16.582ZM17.531 16.822H17.533C17.7211 16.8182 17.9061 16.8707 18.0641 16.9727C18.2222 17.0747 18.3463 17.2216 18.4204 17.3945C18.4945 17.5675 18.5153 17.7586 18.4801 17.9434C18.445 18.1282 18.3554 18.2983 18.223 18.432L16.414 20.292C16.3278 20.3832 16.2243 20.4563 16.1095 20.5071C15.9947 20.558 15.871 20.5855 15.7455 20.5881C15.6201 20.5906 15.4953 20.5683 15.3786 20.5222C15.2618 20.4762 15.1554 20.4074 15.0654 20.3198C14.9755 20.2323 14.9039 20.1277 14.8547 20.0122C14.8055 19.8968 14.7798 19.7727 14.779 19.6472C14.7782 19.5216 14.8024 19.3972 14.8501 19.2812C14.8979 19.1651 14.9682 19.0596 15.057 18.971L16.865 17.113C16.9516 17.0235 17.055 16.952 17.1693 16.9026C17.2836 16.8532 17.4065 16.8268 17.531 16.825V16.823V16.822ZM32.25 16.822H32.252C32.4401 16.8182 32.6251 16.8707 32.7831 16.9727C32.9412 17.0747 33.0653 17.2216 33.1394 17.3945C33.2135 17.5675 33.2343 17.7586 33.1991 17.9434C33.164 18.1282 33.0744 18.2983 32.942 18.432L31.132 20.292C31.0458 20.3832 30.9423 20.4563 30.8275 20.5071C30.7127 20.558 30.589 20.5855 30.4635 20.5881C30.3381 20.5906 30.2133 20.5683 30.0966 20.5222C29.9798 20.4762 29.8734 20.4074 29.7834 20.3198C29.6935 20.2323 29.6219 20.1277 29.5727 20.0122C29.5235 19.8968 29.4978 19.7727 29.497 19.6472C29.4962 19.5216 29.5204 19.3972 29.5681 19.2812C29.6159 19.1651 29.6862 19.0596 29.775 18.971L31.584 17.113C31.6706 17.0235 31.774 16.9519 31.8883 16.9025C32.0026 16.8531 32.1255 16.8267 32.25 16.825V16.823V16.822ZM19.992 17.534C20.0073 17.5329 20.0226 17.5349 20.0371 17.54C20.0516 17.5451 20.0648 17.5531 20.0761 17.5635C20.0873 17.5739 20.0963 17.5865 20.1025 17.6005C20.1087 17.6145 20.1119 17.6297 20.112 17.645C20.112 17.6748 20.1002 17.7034 20.0791 17.7245C20.058 17.7456 20.0294 17.7575 19.9995 17.7575C19.9697 17.7575 19.9411 17.7456 19.92 17.7245C19.8989 17.7034 19.887 17.6748 19.887 17.645C19.887 17.585 19.933 17.537 19.992 17.534ZM27.992 17.534C28.0073 17.5329 28.0226 17.5349 28.0371 17.54C28.0516 17.5451 28.0648 17.5531 28.0761 17.5635C28.0873 17.5739 28.0963 17.5865 28.1025 17.6005C28.1087 17.6145 28.1119 17.6297 28.112 17.645C28.112 17.6748 28.1002 17.7034 28.0791 17.7245C28.058 17.7456 28.0294 17.7575 27.9995 17.7575C27.9697 17.7575 27.9411 17.7456 27.92 17.7245C27.8989 17.7034 27.887 17.6748 27.887 17.645C27.887 17.585 27.933 17.537 27.992 17.534ZM19.992 18.659C20.0073 18.6579 20.0226 18.6599 20.0371 18.665C20.0516 18.6701 20.0648 18.6781 20.0761 18.6885C20.0873 18.6989 20.0963 18.7115 20.1025 18.7255C20.1087 18.7395 20.1119 18.7547 20.112 18.77C20.1122 18.7918 20.1059 18.8132 20.094 18.8316C20.0822 18.8499 20.0652 18.8643 20.0452 18.8732C20.0252 18.882 20.0031 18.8848 19.9816 18.8812C19.96 18.8776 19.94 18.8677 19.924 18.8529C19.9079 18.8381 19.8966 18.8189 19.8913 18.7977C19.8861 18.7765 19.8871 18.7542 19.8943 18.7336C19.9016 18.713 19.9147 18.6949 19.932 18.6817C19.9494 18.6684 19.9702 18.6605 19.992 18.659ZM27.992 18.659C28.0073 18.6579 28.0226 18.6599 28.0371 18.665C28.0516 18.6701 28.0648 18.6781 28.0761 18.6885C28.0873 18.6989 28.0963 18.7115 28.1025 18.7255C28.1087 18.7395 28.1119 18.7547 28.112 18.77C28.1122 18.7918 28.1059 18.8132 28.094 18.8316C28.0822 18.8499 28.0652 18.8643 28.0452 18.8732C28.0252 18.882 28.0031 18.8848 27.9816 18.8812C27.96 18.8776 27.94 18.8677 27.924 18.8529C27.9079 18.8381 27.8966 18.8189 27.8913 18.7977C27.8861 18.7765 27.8871 18.7542 27.8943 18.7336C27.9016 18.713 27.9147 18.6949 27.932 18.6817C27.9494 18.6684 27.9702 18.6605 27.992 18.659ZM19.98 19.221H20C20.0222 19.2212 20.0438 19.2279 20.0621 19.2404C20.0804 19.2529 20.0946 19.2705 20.1029 19.291C20.1112 19.3116 20.1132 19.3341 20.1087 19.3558C20.1041 19.3775 20.0933 19.3973 20.0775 19.4129C20.0617 19.4284 20.0416 19.4389 20.0199 19.443C19.9981 19.4471 19.9756 19.4447 19.9552 19.4361C19.9348 19.4274 19.9175 19.4129 19.9053 19.3944C19.8932 19.3758 19.8868 19.3541 19.887 19.332C19.887 19.277 19.926 19.229 19.98 19.221ZM27.98 19.221H28C28.0222 19.2212 28.0438 19.2279 28.0621 19.2404C28.0804 19.2529 28.0946 19.2705 28.1029 19.291C28.1112 19.3116 28.1132 19.3341 28.1087 19.3558C28.1041 19.3775 28.0933 19.3973 28.0775 19.4129C28.0617 19.4284 28.0416 19.4389 28.0199 19.443C27.9981 19.4471 27.9756 19.4447 27.9552 19.4361C27.9348 19.4274 27.9175 19.4129 27.9053 19.3944C27.8932 19.3758 27.8868 19.3541 27.887 19.332C27.887 19.277 27.926 19.229 27.98 19.221ZM20.002 19.781C20.0319 19.7812 20.0604 19.7933 20.0813 19.8146C20.1022 19.8359 20.1138 19.8646 20.1135 19.8945C20.1133 19.9243 20.1011 19.9528 20.0799 19.9737C20.0586 19.9946 20.0299 20.0062 20 20.006C19.9703 20.0057 19.9419 19.9937 19.9211 19.9725C19.9003 19.9513 19.8888 19.9227 19.889 19.893C19.8893 19.8633 19.9013 19.8349 19.9225 19.8141C19.9437 19.7933 19.9723 19.7817 20.002 19.782V19.781ZM28.002 19.781C28.0319 19.7812 28.0604 19.7933 28.0813 19.8146C28.1022 19.8359 28.1138 19.8646 28.1135 19.8945C28.1133 19.9243 28.1011 19.9528 28.0799 19.9737C28.0586 19.9946 28.0299 20.0062 28 20.006C27.9703 20.0057 27.9419 19.9937 27.9211 19.9725C27.9003 19.9513 27.8888 19.9227 27.889 19.893C27.8893 19.8633 27.9013 19.8349 27.9225 19.8141C27.9437 19.7933 27.9723 19.7817 28.002 19.782V19.781ZM19.992 20.344C19.9923 20.3727 19.9816 20.4004 19.9621 20.4214C19.9425 20.4425 19.9157 20.4552 19.887 20.457C19.886 20.397 19.933 20.347 19.992 20.344ZM27.992 20.344C27.9923 20.3727 27.9816 20.4004 27.9621 20.4214C27.9425 20.4425 27.9157 20.4552 27.887 20.457C27.886 20.397 27.933 20.347 27.992 20.344ZM24.98 21.842C25.1046 21.8403 25.2283 21.8633 25.344 21.9097C25.4597 21.956 25.565 22.0248 25.654 22.112C25.7435 22.1986 25.815 22.3021 25.8643 22.4164C25.9137 22.5307 25.94 22.6537 25.9416 22.7782C25.9433 22.9028 25.9203 23.0264 25.8741 23.142C25.8278 23.2576 25.7591 23.363 25.672 23.452L23.863 25.311C23.6879 25.4912 23.4484 25.5946 23.1972 25.5983C22.9459 25.6021 22.7034 25.5059 22.523 25.331C22.4336 25.2443 22.3622 25.1408 22.3129 25.0264C22.2637 24.912 22.2375 24.789 22.2359 24.6645C22.2343 24.54 22.2574 24.4164 22.3037 24.3008C22.3501 24.1852 22.4188 24.0799 22.506 23.991L24.314 22.133C24.4005 22.0432 24.5039 21.9714 24.6181 21.9217C24.7324 21.8719 24.8554 21.8452 24.98 21.843V21.842ZM17.533 22.08C17.6576 22.0783 17.7813 22.1013 17.897 22.1477C18.0127 22.194 18.118 22.2628 18.207 22.35C18.2965 22.4366 18.368 22.5401 18.4173 22.6544C18.4667 22.7687 18.493 22.8917 18.4946 23.0162C18.4963 23.1408 18.4733 23.2644 18.4271 23.38C18.3808 23.4956 18.3121 23.601 18.225 23.69L16.416 25.55C16.3295 25.6395 16.2261 25.7111 16.1118 25.7605C15.9974 25.81 15.8745 25.8363 15.75 25.8381C15.6254 25.8398 15.5018 25.817 15.3861 25.7708C15.2705 25.7246 15.1651 25.656 15.076 25.569C14.9866 25.4823 14.9152 25.3788 14.8659 25.2644C14.8167 25.15 14.7905 25.027 14.7889 24.9025C14.7873 24.778 14.8104 24.6544 14.8567 24.5388C14.9031 24.4232 14.9718 24.3179 15.059 24.229L16.867 22.371C16.9535 22.2813 17.0569 22.2096 17.1712 22.16C17.2855 22.1104 17.4084 22.0839 17.533 22.082V22.08ZM32.252 22.08C32.3766 22.0783 32.5003 22.1013 32.616 22.1477C32.7317 22.194 32.837 22.2628 32.926 22.35C33.0154 22.4367 33.0868 22.5402 33.1361 22.6545C33.1854 22.7689 33.2115 22.8919 33.2131 23.0164C33.2147 23.141 33.1917 23.2646 33.1453 23.3802C33.0989 23.4958 33.0302 23.601 32.943 23.69L31.135 25.55C31.0485 25.6395 30.9451 25.7111 30.8308 25.7605C30.7164 25.81 30.5935 25.8363 30.469 25.8381C30.3444 25.8398 30.2208 25.817 30.1051 25.7708C29.9895 25.7246 29.8841 25.656 29.795 25.569C29.7055 25.4823 29.6341 25.3789 29.5847 25.2646C29.5354 25.1502 29.5091 25.0272 29.5074 24.9027C29.5057 24.7782 29.5287 24.6546 29.575 24.5389C29.6212 24.4233 29.6899 24.318 29.777 24.229L31.586 22.371C31.6725 22.2813 31.7759 22.2096 31.8902 22.16C32.0045 22.1104 32.1274 22.0839 32.252 22.082V22.08ZM19.98 23.719H20C20.0222 23.7192 20.0438 23.7259 20.0621 23.7384C20.0804 23.7509 20.0946 23.7685 20.1029 23.789C20.1112 23.8096 20.1132 23.8321 20.1087 23.8538C20.1041 23.8755 20.0933 23.8953 20.0775 23.9109C20.0617 23.9264 20.0416 23.9369 20.0199 23.941C19.9981 23.9451 19.9756 23.9427 19.9552 23.9341C19.9348 23.9254 19.9175 23.9109 19.9053 23.8924C19.8932 23.8738 19.8868 23.8521 19.887 23.83C19.887 23.776 19.926 23.727 19.98 23.719ZM27.98 23.719H28C28.0222 23.7192 28.0438 23.7259 28.0621 23.7384C28.0804 23.7509 28.0946 23.7685 28.1029 23.789C28.1112 23.8096 28.1132 23.8321 28.1087 23.8538C28.1041 23.8755 28.0933 23.8953 28.0775 23.9109C28.0617 23.9264 28.0416 23.9369 28.0199 23.941C27.9981 23.9451 27.9756 23.9427 27.9552 23.9341C27.9348 23.9254 27.9175 23.9109 27.9053 23.8924C27.8932 23.8738 27.8868 23.8521 27.887 23.83C27.887 23.776 27.926 23.727 27.98 23.719ZM19.98 24.282H20C20.061 24.282 20.11 24.332 20.111 24.392C20.1074 24.4191 20.094 24.444 20.0734 24.462C20.0528 24.48 20.0264 24.49 19.999 24.49C19.9716 24.49 19.9452 24.48 19.9246 24.462C19.904 24.444 19.8906 24.4191 19.887 24.392C19.8867 24.3655 19.8959 24.3398 19.913 24.3196C19.9301 24.2994 19.9539 24.2861 19.98 24.282ZM27.98 24.282H28C28.061 24.282 28.11 24.332 28.111 24.392C28.1074 24.4191 28.094 24.444 28.0734 24.462C28.0528 24.48 28.0264 24.49 27.999 24.49C27.9716 24.49 27.9452 24.48 27.9246 24.462C27.904 24.444 27.8906 24.4191 27.887 24.392C27.8867 24.3655 27.8959 24.3398 27.913 24.3196C27.9301 24.2994 27.9539 24.2861 27.98 24.282ZM24.978 27.1C25.1026 27.0983 25.2263 27.1213 25.342 27.1677C25.4577 27.214 25.563 27.2828 25.652 27.37C25.7415 27.4566 25.813 27.5601 25.8623 27.6744C25.9117 27.7887 25.938 27.9117 25.9396 28.0362C25.9413 28.1608 25.9183 28.2844 25.8721 28.4C25.8258 28.5156 25.7571 28.621 25.67 28.71L23.861 30.569C23.7743 30.6581 23.671 30.7292 23.5568 30.7784C23.4426 30.8275 23.3199 30.8537 23.1956 30.8554C23.0713 30.8572 22.9479 30.8344 22.8324 30.7884C22.7169 30.7424 22.6116 30.6741 22.5225 30.5875C22.4334 30.5008 22.3623 30.3974 22.3131 30.2833C22.264 30.1691 22.2378 30.0463 22.2361 29.9221C22.2343 29.7978 22.2571 29.6743 22.3031 29.5589C22.3491 29.4434 22.4173 29.3381 22.504 29.249L24.312 27.391C24.3984 27.3011 24.5018 27.2293 24.6161 27.1795C24.7304 27.1297 24.8534 27.103 24.978 27.101V27.1ZM17.533 27.34C17.6576 27.3383 17.7813 27.3613 17.897 27.4077C18.0127 27.454 18.118 27.5228 18.207 27.61C18.2965 27.6966 18.368 27.8001 18.4173 27.9144C18.4667 28.0287 18.493 28.1517 18.4946 28.2762C18.4963 28.4008 18.4733 28.5244 18.4271 28.64C18.3808 28.7556 18.3121 28.861 18.225 28.95L16.416 30.809C16.3304 30.9025 16.2269 30.978 16.1116 31.0308C15.9963 31.0836 15.8716 31.1127 15.7449 31.1164C15.6181 31.1201 15.4919 31.0983 15.3737 31.0523C15.2555 31.0063 15.1478 30.9371 15.0569 30.8486C14.966 30.7602 14.8938 30.6545 14.8446 30.5376C14.7953 30.4207 14.77 30.2952 14.7702 30.1684C14.7704 30.0416 14.7961 29.9161 14.8457 29.7994C14.8953 29.6827 14.9678 29.5771 15.059 29.489L16.867 27.631C16.9535 27.5412 17.0569 27.4694 17.1711 27.4197C17.2854 27.3699 17.4084 27.3432 17.533 27.341V27.34ZM32.252 27.34C32.3766 27.3383 32.5003 27.3613 32.616 27.4077C32.7317 27.454 32.837 27.5228 32.926 27.61C33.0154 27.6967 33.0868 27.8002 33.1361 27.9145C33.1854 28.0289 33.2115 28.1519 33.2131 28.2764C33.2147 28.401 33.1917 28.5246 33.1453 28.6402C33.0989 28.7558 33.0302 28.861 32.943 28.95L31.135 30.809C31.0488 30.9001 30.9454 30.9732 30.8307 31.0241C30.716 31.0749 30.5923 31.1024 30.4669 31.1051C30.3415 31.1077 30.2168 31.0854 30.1 31.0394C29.9833 30.9935 29.8769 30.9248 29.7869 30.8373C29.697 30.7499 29.6253 30.6454 29.576 30.5301C29.5268 30.4147 29.5009 30.2907 29.5 30.1652C29.4991 30.0398 29.5231 29.9154 29.5707 29.7993C29.6182 29.6832 29.6884 29.5777 29.777 29.489L31.586 27.631C31.6725 27.5412 31.7759 27.4694 31.8901 27.4197C32.0044 27.3699 32.1274 27.3432 32.252 27.341V27.34ZM19.98 28.217H20C20.061 28.217 20.11 28.267 20.111 28.328C20.1111 28.3494 20.1051 28.3704 20.0936 28.3884C20.0822 28.4065 20.0658 28.4209 20.0464 28.43C20.027 28.4391 20.0054 28.4424 19.9842 28.4395C19.963 28.4367 19.943 28.4278 19.9267 28.414C19.9103 28.4002 19.8983 28.382 19.892 28.3615C19.8857 28.3411 19.8854 28.3192 19.8911 28.2986C19.8968 28.278 19.9083 28.2594 19.9243 28.2451C19.9402 28.2308 19.9599 28.2214 19.981 28.218L19.98 28.217ZM27.98 28.217H28C28.061 28.217 28.11 28.267 28.111 28.328C28.1111 28.3494 28.1051 28.3704 28.0936 28.3884C28.0822 28.4065 28.0658 28.4209 28.0464 28.43C28.027 28.4391 28.0054 28.4424 27.9842 28.4395C27.963 28.4367 27.943 28.4278 27.9267 28.414C27.9103 28.4002 27.8983 28.382 27.892 28.3615C27.8857 28.3411 27.8854 28.3192 27.8911 28.2986C27.8968 28.278 27.9083 28.2594 27.9243 28.2451C27.9402 28.2308 27.9599 28.2214 27.981 28.218L27.98 28.217ZM20.002 28.777C20.0319 28.7772 20.0604 28.7893 20.0813 28.8106C20.1022 28.8319 20.1138 28.8606 20.1135 28.8905C20.1133 28.9203 20.1011 28.9488 20.0799 28.9697C20.0586 28.9906 20.0299 29.0022 20 29.002C19.9703 29.0017 19.9419 28.9897 19.9211 28.9685C19.9003 28.9473 19.8888 28.9187 19.889 28.889C19.8893 28.8593 19.9013 28.8309 19.9225 28.8101C19.9437 28.7893 19.9723 28.7777 20.002 28.778V28.777ZM28.002 28.777C28.0319 28.7772 28.0604 28.7893 28.0813 28.8106C28.1022 28.8319 28.1138 28.8606 28.1135 28.8905C28.1133 28.9203 28.1011 28.9488 28.0799 28.9697C28.0586 28.9906 28.0299 29.0022 28 29.002C27.9703 29.0017 27.9419 28.9897 27.9211 28.9685C27.9003 28.9473 27.8888 28.9187 27.889 28.889C27.8893 28.8593 27.9013 28.8309 27.9225 28.8101C27.9437 28.7893 27.9723 28.7777 28.002 28.778V28.777ZM19.992 31.025C20.0074 31.0242 20.0228 31.0265 20.0373 31.0318C20.0517 31.0371 20.065 31.0453 20.0762 31.0558C20.0874 31.0664 20.0963 31.0791 20.1025 31.0932C20.1087 31.1073 20.1119 31.1226 20.112 31.138C20.112 31.1678 20.1002 31.1964 20.0791 31.2175C20.058 31.2386 20.0294 31.2505 19.9995 31.2505C19.9697 31.2505 19.9411 31.2386 19.92 31.2175C19.8989 31.1964 19.887 31.1678 19.887 31.138C19.887 31.08 19.933 31.029 19.992 31.026V31.025ZM27.992 31.025C28.0074 31.0242 28.0228 31.0265 28.0373 31.0318C28.0517 31.0371 28.065 31.0453 28.0762 31.0558C28.0874 31.0664 28.0963 31.0791 28.1025 31.0932C28.1087 31.1073 28.1119 31.1226 28.112 31.138C28.112 31.1678 28.1002 31.1964 28.0791 31.2175C28.058 31.2386 28.0294 31.2505 27.9995 31.2505C27.9697 31.2505 27.9411 31.2386 27.92 31.2175C27.8989 31.1964 27.887 31.1678 27.887 31.138C27.887 31.08 27.933 31.029 27.992 31.026V31.025ZM19.992 31.588H20C20.0294 31.589 20.0571 31.6015 20.0773 31.6229C20.0975 31.6442 20.1085 31.6725 20.108 31.7019C20.1075 31.7313 20.0954 31.7592 20.0745 31.7798C20.0536 31.8004 20.0254 31.8119 19.996 31.8119C19.9667 31.8119 19.9385 31.8004 19.9175 31.7798C19.8966 31.7592 19.8846 31.7313 19.884 31.7019C19.8835 31.6725 19.8945 31.6442 19.9147 31.6229C19.9349 31.6015 19.9627 31.589 19.992 31.588ZM27.992 31.588H28C28.0294 31.589 28.0571 31.6015 28.0773 31.6229C28.0975 31.6442 28.1085 31.6725 28.108 31.7019C28.1075 31.7313 28.0954 31.7592 28.0745 31.7798C28.0536 31.8004 28.0254 31.8119 27.996 31.8119C27.9667 31.8119 27.9385 31.8004 27.9175 31.7798C27.8966 31.7592 27.8846 31.7313 27.884 31.7019C27.8835 31.6725 27.8945 31.6442 27.9147 31.6229C27.9349 31.6015 27.9627 31.589 27.992 31.588ZM19.98 32.151H20C20.0222 32.1512 20.0438 32.1579 20.0621 32.1704C20.0804 32.1829 20.0946 32.2005 20.1029 32.221C20.1112 32.2416 20.1132 32.2641 20.1087 32.2858C20.1041 32.3075 20.0933 32.3273 20.0775 32.3429C20.0617 32.3584 20.0416 32.3689 20.0199 32.373C19.9981 32.3771 19.9756 32.3747 19.9552 32.3661C19.9348 32.3574 19.9175 32.3429 19.9053 32.3244C19.8932 32.3058 19.8868 32.2841 19.887 32.262C19.8865 32.2353 19.8956 32.2094 19.9127 32.189C19.9298 32.1686 19.9537 32.1551 19.98 32.151ZM27.98 32.151H28C28.0222 32.1512 28.0438 32.1579 28.0621 32.1704C28.0804 32.1829 28.0946 32.2005 28.1029 32.221C28.1112 32.2416 28.1132 32.2641 28.1087 32.2858C28.1041 32.3075 28.0933 32.3273 28.0775 32.3429C28.0617 32.3584 28.0416 32.3689 28.0199 32.373C27.9981 32.3771 27.9756 32.3747 27.9552 32.3661C27.9348 32.3574 27.9175 32.3429 27.9053 32.3244C27.8932 32.3058 27.8868 32.2841 27.887 32.262C27.8865 32.2353 27.8956 32.2094 27.9127 32.189C27.9298 32.1686 27.9537 32.1551 27.98 32.151ZM24.98 32.305C25.1681 32.3012 25.3531 32.3537 25.5111 32.4557C25.6692 32.5577 25.7933 32.7046 25.8674 32.8775C25.9415 33.0505 25.9623 33.2416 25.9271 33.4264C25.892 33.6112 25.8024 33.7813 25.67 33.915L23.861 35.774C23.775 35.8656 23.6715 35.9392 23.5567 35.9905C23.4419 36.0417 23.3181 36.0695 23.1924 36.0723C23.0667 36.0752 22.9418 36.0529 22.8248 36.0068C22.7078 35.9608 22.6012 35.8919 22.5111 35.8042C22.4211 35.7165 22.3494 35.6117 22.3003 35.496C22.2512 35.3802 22.2257 35.2559 22.2252 35.1302C22.2248 35.0044 22.2494 34.8799 22.2976 34.7638C22.3458 34.6477 22.4166 34.5424 22.506 34.454L24.314 32.596C24.4004 32.5061 24.5037 32.4342 24.618 32.3844C24.7323 32.3347 24.8554 32.308 24.98 32.306V32.305ZM17.531 32.598C17.6556 32.5963 17.7793 32.6193 17.895 32.6657C18.0107 32.712 18.116 32.7808 18.205 32.868C18.2945 32.9546 18.366 33.0581 18.4153 33.1724C18.4647 33.2867 18.491 33.4097 18.4926 33.5342C18.4943 33.6588 18.4713 33.7824 18.4251 33.898C18.3788 34.0136 18.3101 34.119 18.223 34.208L16.414 36.067C16.3275 36.1566 16.2242 36.2282 16.1099 36.2777C15.9956 36.3273 15.8727 36.3537 15.7482 36.3556C15.6236 36.3574 15.5 36.3347 15.3843 36.2886C15.2686 36.2425 15.1631 36.174 15.074 36.087C14.9846 36.0003 14.9132 35.8968 14.8639 35.7824C14.8147 35.668 14.7885 35.545 14.7869 35.4205C14.7853 35.296 14.8084 35.1724 14.8547 35.0568C14.9011 34.9412 14.9698 34.8359 15.057 34.747L16.865 32.889C16.9514 32.7991 17.0548 32.7273 17.1691 32.6775C17.2834 32.6277 17.4064 32.601 17.531 32.599V32.598ZM32.25 32.598C32.3746 32.5963 32.4983 32.6193 32.614 32.6657C32.7297 32.712 32.835 32.7808 32.924 32.868C33.0134 32.9547 33.0848 33.0582 33.1341 33.1725C33.1834 33.2869 33.2095 33.4099 33.2111 33.5344C33.2127 33.659 33.1897 33.7826 33.1433 33.8982C33.0969 34.0138 33.0282 34.119 32.941 34.208L31.133 36.067C31.0465 36.1566 30.9432 36.2282 30.8289 36.2777C30.7146 36.3273 30.5917 36.3537 30.4672 36.3556C30.3426 36.3574 30.219 36.3347 30.1033 36.2886C29.9876 36.2425 29.8821 36.174 29.793 36.087C29.7035 36.0003 29.6321 35.8969 29.5827 35.7825C29.5334 35.6682 29.5071 35.5452 29.5054 35.4207C29.5037 35.2962 29.5267 35.1726 29.573 35.0569C29.6192 34.9413 29.6879 34.836 29.775 34.747L31.584 32.889C31.6704 32.7991 31.7737 32.7272 31.888 32.6774C32.0023 32.6277 32.1254 32.601 32.25 32.599V32.598ZM19.98 32.713H20C20.061 32.713 20.11 32.763 20.111 32.824C20.1109 32.8453 20.1047 32.8662 20.0932 32.8842C20.0816 32.9021 20.0651 32.9164 20.0457 32.9253C20.0263 32.9342 20.0047 32.9374 19.9836 32.9344C19.9624 32.9315 19.9425 32.9226 19.9263 32.9087C19.91 32.8948 19.8981 32.8766 19.8919 32.8562C19.8857 32.8357 19.8854 32.8139 19.8912 32.7934C19.8969 32.7728 19.9084 32.7543 19.9243 32.74C19.9403 32.7258 19.9599 32.7164 19.981 32.713H19.98ZM27.98 32.713H28C28.061 32.713 28.11 32.763 28.111 32.824C28.1109 32.8453 28.1047 32.8662 28.0932 32.8842C28.0816 32.9021 28.0651 32.9164 28.0457 32.9253C28.0263 32.9342 28.0047 32.9374 27.9836 32.9344C27.9624 32.9315 27.9425 32.9226 27.9263 32.9087C27.91 32.8948 27.8981 32.8766 27.8919 32.8562C27.8857 32.8357 27.8854 32.8139 27.8912 32.7934C27.8969 32.7728 27.9084 32.7543 27.9243 32.74C27.9403 32.7258 27.9599 32.7164 27.981 32.713H27.98ZM20.002 33.273C20.064 33.274 20.114 33.327 20.113 33.389C20.113 33.4035 20.1101 33.4179 20.1045 33.4313C20.099 33.4447 20.0908 33.4569 20.0804 33.4671C20.0701 33.4773 20.0579 33.4854 20.0444 33.4909C20.031 33.4964 20.0165 33.4991 20.002 33.499C19.9873 33.4994 19.9727 33.4968 19.959 33.4915C19.9453 33.4861 19.9328 33.4781 19.9223 33.4678C19.9118 33.4576 19.9034 33.4453 19.8977 33.4318C19.892 33.4182 19.889 33.4037 19.889 33.389C19.889 33.326 19.939 33.273 20.002 33.274V33.273ZM28.002 33.273C28.064 33.274 28.114 33.327 28.113 33.389C28.113 33.4035 28.1101 33.4179 28.1045 33.4313C28.099 33.4447 28.0908 33.4569 28.0804 33.4671C28.0701 33.4773 28.0579 33.4854 28.0444 33.4909C28.031 33.4964 28.0165 33.4991 28.002 33.499C27.9873 33.4994 27.9727 33.4968 27.959 33.4915C27.9453 33.4861 27.9328 33.4781 27.9223 33.4678C27.9118 33.4576 27.9034 33.4453 27.8977 33.4318C27.892 33.4182 27.889 33.4037 27.889 33.389C27.889 33.326 27.939 33.273 28.002 33.274V33.273ZM19.992 33.836H20C20.0294 33.837 20.0571 33.8495 20.0773 33.8709C20.0975 33.8922 20.1085 33.9205 20.108 33.9499C20.1075 33.9793 20.0954 34.0072 20.0745 34.0278C20.0536 34.0484 20.0254 34.0599 19.996 34.0599C19.9667 34.0599 19.9385 34.0484 19.9175 34.0278C19.8966 34.0072 19.8846 33.9793 19.884 33.9499C19.8835 33.9205 19.8945 33.8922 19.9147 33.8709C19.9349 33.8495 19.9627 33.837 19.992 33.836ZM27.992 33.836H28C28.0294 33.837 28.0571 33.8495 28.0773 33.8709C28.0975 33.8922 28.1085 33.9205 28.108 33.9499C28.1075 33.9793 28.0954 34.0072 28.0745 34.0278C28.0536 34.0484 28.0254 34.0599 27.996 34.0599C27.9667 34.0599 27.9385 34.0484 27.9175 34.0278C27.8966 34.0072 27.8846 33.9793 27.884 33.9499C27.8835 33.9205 27.8945 33.8922 27.9147 33.8709C27.9349 33.8495 27.9627 33.837 27.992 33.836ZM19.98 37.211H20C20.061 37.211 20.11 37.261 20.111 37.322C20.1111 37.3434 20.1051 37.3644 20.0936 37.3824C20.0822 37.4005 20.0658 37.415 20.0464 37.424C20.027 37.4331 20.0054 37.4364 19.9842 37.4335C19.963 37.4307 19.943 37.4218 19.9267 37.408C19.9103 37.3942 19.8983 37.376 19.892 37.3555C19.8857 37.3351 19.8854 37.3132 19.8911 37.2926C19.8968 37.272 19.9083 37.2534 19.9243 37.2391C19.9402 37.2248 19.9599 37.2154 19.981 37.212L19.98 37.211ZM27.98 37.211H28C28.061 37.211 28.11 37.261 28.111 37.322C28.1111 37.3434 28.1051 37.3644 28.0936 37.3824C28.0822 37.4005 28.0658 37.415 28.0464 37.424C28.027 37.4331 28.0054 37.4364 27.9842 37.4335C27.963 37.4307 27.943 37.4218 27.9267 37.408C27.9103 37.3942 27.8983 37.376 27.892 37.3555C27.8857 37.3351 27.8854 37.3132 27.8911 37.2926C27.8968 37.272 27.9083 37.2534 27.9243 37.2391C27.9402 37.2248 27.9599 37.2154 27.981 37.212L27.98 37.211ZM24.98 37.567C25.1681 37.5632 25.3531 37.6157 25.5111 37.7177C25.6692 37.8197 25.7933 37.9666 25.8674 38.1395C25.9415 38.3125 25.9623 38.5036 25.9271 38.6884C25.892 38.8732 25.8024 39.0433 25.67 39.177L23.861 41.035C23.775 41.1266 23.6715 41.2002 23.5567 41.2515C23.4419 41.3027 23.3181 41.3305 23.1924 41.3333C23.0667 41.3362 22.9418 41.3139 22.8248 41.2678C22.7078 41.2218 22.6012 41.1529 22.5111 41.0652C22.4211 40.9775 22.3494 40.8727 22.3003 40.757C22.2512 40.6412 22.2257 40.5169 22.2252 40.3912C22.2248 40.2654 22.2494 40.1409 22.2976 40.0248C22.3458 39.9087 22.4166 39.8034 22.506 39.715L24.314 37.858C24.4004 37.7681 24.5037 37.6962 24.618 37.6464C24.7323 37.5967 24.8554 37.57 24.98 37.568V37.567ZM19.992 37.772H20C20.0294 37.773 20.0571 37.7855 20.0773 37.8069C20.0975 37.8282 20.1085 37.8565 20.108 37.8859C20.1075 37.9153 20.0954 37.9432 20.0745 37.9638C20.0536 37.9844 20.0254 37.9959 19.996 37.9959C19.9667 37.9959 19.9385 37.9844 19.9175 37.9638C19.8966 37.9432 19.8846 37.9153 19.884 37.8859C19.8835 37.8565 19.8945 37.8282 19.9147 37.8069C19.9349 37.7855 19.9627 37.773 19.992 37.772ZM27.992 37.772H28C28.0294 37.773 28.0571 37.7855 28.0773 37.8069C28.0975 37.8282 28.1085 37.8565 28.108 37.8859C28.1075 37.9153 28.0954 37.9432 28.0745 37.9638C28.0536 37.9844 28.0254 37.9959 27.996 37.9959C27.9667 37.9959 27.9385 37.9844 27.9175 37.9638C27.8966 37.9432 27.8846 37.9153 27.884 37.8859C27.8835 37.8565 27.8945 37.8282 27.9147 37.8069C27.9349 37.7855 27.9627 37.773 27.992 37.772ZM19.992 39.459H20C20.0294 39.46 20.0571 39.4725 20.0773 39.4939C20.0975 39.5152 20.1085 39.5435 20.108 39.5729C20.1075 39.6023 20.0954 39.6302 20.0745 39.6508C20.0536 39.6714 20.0254 39.6829 19.996 39.6829C19.9667 39.6829 19.9385 39.6714 19.9175 39.6508C19.8966 39.6302 19.8846 39.6023 19.884 39.5729C19.8835 39.5435 19.8945 39.5152 19.9147 39.4939C19.9349 39.4725 19.9627 39.46 19.992 39.459ZM27.992 39.459H28C28.0294 39.46 28.0571 39.4725 28.0773 39.4939C28.0975 39.5152 28.1085 39.5435 28.108 39.5729C28.1075 39.6023 28.0954 39.6302 28.0745 39.6508C28.0536 39.6714 28.0254 39.6829 27.996 39.6829C27.9667 39.6829 27.9385 39.6714 27.9175 39.6508C27.8966 39.6302 27.8846 39.6023 27.884 39.5729C27.8835 39.5435 27.8945 39.5152 27.9147 39.4939C27.9349 39.4725 27.9627 39.46 27.992 39.459ZM19.992 40.022H20C20.0294 40.023 20.0571 40.0355 20.0773 40.0569C20.0975 40.0782 20.1085 40.1065 20.108 40.1359C20.1075 40.1653 20.0954 40.1932 20.0745 40.2138C20.0536 40.2344 20.0254 40.2459 19.996 40.2459C19.9667 40.2459 19.9385 40.2344 19.9175 40.2138C19.8966 40.1932 19.8846 40.1653 19.884 40.1359C19.8835 40.1065 19.8945 40.0782 19.9147 40.0569C19.9349 40.0355 19.9627 40.023 19.992 40.022ZM27.992 40.022H28C28.0294 40.023 28.0571 40.0355 28.0773 40.0569C28.0975 40.0782 28.1085 40.1065 28.108 40.1359C28.1075 40.1653 28.0954 40.1932 28.0745 40.2138C28.0536 40.2344 28.0254 40.2459 27.996 40.2459C27.9667 40.2459 27.9385 40.2344 27.9175 40.2138C27.8966 40.1932 27.8846 40.1653 27.884 40.1359C27.8835 40.1065 27.8945 40.0782 27.9147 40.0569C27.9349 40.0355 27.9627 40.023 27.992 40.022ZM19.992 40.584H20C20.0294 40.585 20.0571 40.5975 20.0773 40.6189C20.0975 40.6402 20.1085 40.6685 20.108 40.6979C20.1075 40.7273 20.0954 40.7552 20.0745 40.7758C20.0536 40.7964 20.0254 40.8079 19.996 40.8079C19.9667 40.8079 19.9385 40.7964 19.9175 40.7758C19.8966 40.7552 19.8846 40.7273 19.884 40.6979C19.8835 40.6685 19.8945 40.6402 19.9147 40.6189C19.9349 40.5975 19.9627 40.585 19.992 40.584ZM27.992 40.584H28C28.0294 40.585 28.0571 40.5975 28.0773 40.6189C28.0975 40.6402 28.1085 40.6685 28.108 40.6979C28.1075 40.7273 28.0954 40.7552 28.0745 40.7758C28.0536 40.7964 28.0254 40.8079 27.996 40.8079C27.9667 40.8079 27.9385 40.7964 27.9175 40.7758C27.8966 40.7552 27.8846 40.7273 27.884 40.6979C27.8835 40.6685 27.8945 40.6402 27.9147 40.6189C27.9349 40.5975 27.9627 40.585 27.992 40.584ZM19.98 41.147H20C20.0222 41.1472 20.0438 41.1539 20.0621 41.1664C20.0804 41.1789 20.0946 41.1965 20.1029 41.217C20.1112 41.2376 20.1132 41.2601 20.1087 41.2818C20.1041 41.3035 20.0933 41.3233 20.0775 41.3389C20.0617 41.3544 20.0416 41.3649 20.0199 41.369C19.9981 41.3731 19.9756 41.3707 19.9552 41.3621C19.9348 41.3534 19.9175 41.3389 19.9053 41.3204C19.8932 41.3018 19.8868 41.2801 19.887 41.258C19.8865 41.2313 19.8956 41.2054 19.9127 41.185C19.9298 41.1646 19.9537 41.1511 19.98 41.147ZM27.98 41.147H28C28.0222 41.1472 28.0438 41.1539 28.0621 41.1664C28.0804 41.1789 28.0946 41.1965 28.1029 41.217C28.1112 41.2376 28.1132 41.2601 28.1087 41.2818C28.1041 41.3035 28.0933 41.3233 28.0775 41.3389C28.0617 41.3544 28.0416 41.3649 28.0199 41.369C27.9981 41.3731 27.9756 41.3707 27.9552 41.3621C27.9348 41.3534 27.9175 41.3389 27.9053 41.3204C27.8932 41.3018 27.8868 41.2801 27.887 41.258C27.8865 41.2313 27.8956 41.2054 27.9127 41.185C27.9298 41.1646 27.9537 41.1511 27.98 41.147ZM19.98 41.709H20C20.061 41.71 20.11 41.759 20.111 41.821C20.111 41.882 20.061 41.931 20 41.931C19.9705 41.9312 19.942 41.9198 19.9209 41.8992C19.8997 41.8786 19.8875 41.8505 19.887 41.821C19.8862 41.7942 19.8952 41.768 19.9123 41.7474C19.9295 41.7268 19.9535 41.7131 19.98 41.709ZM27.98 41.709H28C28.061 41.71 28.11 41.759 28.111 41.821C28.111 41.882 28.061 41.931 28 41.931C27.9705 41.9312 27.942 41.9198 27.9209 41.8992C27.8997 41.8786 27.8875 41.8505 27.887 41.821C27.8862 41.7942 27.8952 41.768 27.9123 41.7474C27.9295 41.7268 27.9535 41.7131 27.98 41.709ZM20.002 42.269C20.0319 42.2692 20.0604 42.2813 20.0813 42.3026C20.1022 42.3239 20.1138 42.3526 20.1135 42.3825C20.1133 42.4123 20.1011 42.4408 20.0799 42.4617C20.0586 42.4826 20.0299 42.4942 20 42.494C19.9703 42.4937 19.9419 42.4816 19.9211 42.4605C19.9003 42.4393 19.8888 42.4107 19.889 42.381C19.8893 42.3513 19.9013 42.3229 19.9225 42.3021C19.9437 42.2812 19.9723 42.2697 20.002 42.27V42.269ZM28.002 42.269C28.0319 42.2692 28.0604 42.2813 28.0813 42.3026C28.1022 42.3239 28.1138 42.3526 28.1135 42.3825C28.1133 42.4123 28.1011 42.4408 28.0799 42.4617C28.0586 42.4826 28.0299 42.4942 28 42.494C27.9703 42.4937 27.9419 42.4816 27.9211 42.4605C27.9003 42.4393 27.8888 42.4107 27.889 42.381C27.8893 42.3513 27.9013 42.3229 27.9225 42.3021C27.9437 42.2812 27.9723 42.2697 28.002 42.27V42.269Z" fill="#333333"/>
</svg>
