<svg width="48" height="48" viewBox="0 0 48 48" fill="none" xmlns="http://www.w3.org/2000/svg">
<path d="M28.822 4.0819C23.742 4.0669 18.596 4.1229 14.147 4.1249C13.277 4.1249 12.58 4.8239 12.58 5.6929V42.5549C12.58 43.4249 13.277 44.1249 14.146 44.1249H33.852C34.721 44.1249 35.42 43.4249 35.42 42.5549V5.6929C35.42 4.8239 34.721 4.1249 33.852 4.1249C32.1755 4.10015 30.4988 4.08582 28.822 4.0819ZM23.992 5.15789H24C24.0294 5.15893 24.0571 5.17147 24.0773 5.19278C24.0975 5.21409 24.1085 5.24247 24.108 5.27182C24.1075 5.30118 24.0954 5.32915 24.0745 5.34972C24.0536 5.3703 24.0254 5.38182 23.996 5.38182C23.9667 5.38182 23.9385 5.3703 23.9175 5.34972C23.8966 5.32915 23.8846 5.30118 23.884 5.27182C23.8835 5.24247 23.8945 5.21409 23.9147 5.19278C23.9349 5.17147 23.9627 5.15893 23.992 5.15789ZM23.992 5.7209H24C24.0294 5.72194 24.0571 5.73447 24.0773 5.75578C24.0975 5.77709 24.1085 5.80546 24.108 5.83481C24.1075 5.86417 24.0954 5.89215 24.0745 5.91272C24.0536 5.9333 24.0254 5.94482 23.996 5.94482C23.9667 5.94482 23.9385 5.9333 23.9175 5.91272C23.8966 5.89215 23.8846 5.86417 23.884 5.83481C23.8835 5.80546 23.8945 5.77709 23.9147 5.75578C23.9349 5.73447 23.9627 5.72194 23.992 5.7209ZM23.982 6.2829H24C24.061 6.2839 24.11 6.3329 24.111 6.3949C24.1109 6.40934 24.1079 6.42362 24.1023 6.43692C24.0966 6.45021 24.0884 6.46226 24.0781 6.47239C24.0678 6.48251 24.0556 6.4905 24.0422 6.49591C24.0288 6.50131 24.0145 6.50403 24 6.5039C23.9853 6.5043 23.9707 6.50175 23.957 6.4964C23.9433 6.49104 23.9308 6.48301 23.9203 6.47276C23.9098 6.4625 23.9014 6.45024 23.8957 6.4367C23.89 6.42315 23.887 6.4086 23.887 6.3939C23.887 6.3389 23.928 6.29089 23.982 6.2839V6.2829ZM19.391 6.5019C19.6044 6.49656 19.8168 6.53398 20.0155 6.61197C20.2142 6.68995 20.3953 6.80692 20.5482 6.95597C20.701 7.10503 20.8224 7.28315 20.9054 7.47988C20.9883 7.67659 21.031 7.88791 21.031 8.1014C21.031 8.31488 20.9883 8.5262 20.9054 8.72292C20.8224 8.91963 20.701 9.09776 20.5482 9.24682C20.3953 9.39588 20.2142 9.51284 20.0155 9.59082C19.8168 9.66881 19.6044 9.70623 19.391 9.7009C18.9737 9.69046 18.577 9.51736 18.2856 9.21854C17.9941 8.91971 17.831 8.51882 17.831 8.1014C17.831 7.68397 17.9941 7.28308 18.2856 6.98426C18.577 6.68543 18.9737 6.51233 19.391 6.5019ZM28.609 6.5019C28.8224 6.49656 29.0348 6.53398 29.2335 6.61197C29.4322 6.68995 29.6133 6.80692 29.7662 6.95597C29.919 7.10503 30.0404 7.28315 30.1234 7.47988C30.2063 7.67659 30.249 7.88791 30.249 8.1014C30.249 8.31488 30.2063 8.5262 30.1234 8.72292C30.0404 8.91963 29.919 9.09776 29.7662 9.24682C29.6133 9.39588 29.4322 9.51284 29.2335 9.59082C29.0348 9.66881 28.8224 9.70623 28.609 9.7009C28.1917 9.69046 27.795 9.51736 27.5036 9.21854C27.2121 8.91971 27.049 8.51882 27.049 8.1014C27.049 7.68397 27.2121 7.28308 27.5036 6.98426C27.795 6.68543 28.1917 6.51233 28.609 6.5019ZM24.002 6.8439C24.0167 6.84403 24.0313 6.84705 24.0448 6.8528C24.0583 6.85855 24.0706 6.86691 24.0809 6.87741C24.0912 6.8879 24.0994 6.90032 24.1049 6.91396C24.1104 6.9276 24.1131 6.94219 24.113 6.9569C24.1129 6.9716 24.1099 6.98614 24.1041 6.99968C24.0984 7.01322 24.09 7.02549 24.0795 7.0358C24.069 7.04611 24.0566 7.05425 24.043 7.05975C24.0293 7.06526 24.0147 7.06803 24 7.0679C23.9703 7.06763 23.9419 7.05558 23.9211 7.03438C23.9003 7.01319 23.8888 6.9846 23.889 6.9549C23.8893 6.92518 23.9013 6.89681 23.9225 6.87599C23.9437 6.85518 23.9723 6.84363 24.002 6.8439ZM23.992 7.4059H24C24.0294 7.40694 24.0571 7.41947 24.0773 7.44078C24.0975 7.46209 24.1085 7.49047 24.108 7.51982C24.1075 7.54918 24.0954 7.57715 24.0745 7.59772C24.0536 7.6183 24.0254 7.62982 23.996 7.62982C23.9667 7.62982 23.9385 7.6183 23.9175 7.59772C23.8966 7.57715 23.8846 7.54918 23.884 7.51982C23.8835 7.49047 23.8945 7.46209 23.9147 7.44078C23.9349 7.41947 23.9627 7.40694 23.992 7.4059ZM23.992 7.9659H24C24.0294 7.96694 24.0571 7.97947 24.0773 8.00078C24.0975 8.02209 24.1085 8.05046 24.108 8.07981C24.1075 8.10917 24.0954 8.13715 24.0745 8.15771C24.0536 8.17829 24.0254 8.18982 23.996 8.18982C23.9667 8.18982 23.9385 8.17829 23.9175 8.15771C23.8966 8.13715 23.8846 8.10917 23.884 8.07981C23.8835 8.05046 23.8945 8.02209 23.9147 8.00078C23.9349 7.97947 23.9627 7.96694 23.992 7.9659ZM23.992 8.5289H24C24.0294 8.52994 24.0571 8.54247 24.0773 8.56378C24.0975 8.58508 24.1085 8.61347 24.108 8.64282C24.1075 8.67218 24.0954 8.70015 24.0745 8.72072C24.0536 8.7413 24.0254 8.75282 23.996 8.75282C23.9667 8.75282 23.9385 8.7413 23.9175 8.72072C23.8966 8.70015 23.8846 8.67218 23.884 8.64282C23.8835 8.61347 23.8945 8.58508 23.9147 8.56378C23.9349 8.54247 23.9627 8.52994 23.992 8.5289ZM23.992 9.0919H24C24.0145 9.09175 24.029 9.09451 24.0424 9.09998C24.0559 9.10545 24.0681 9.11353 24.0784 9.12376C24.0888 9.13399 24.097 9.14615 24.1025 9.15956C24.1081 9.17298 24.111 9.18736 24.111 9.20189C24.111 9.23159 24.0992 9.26009 24.0782 9.28109C24.0572 9.30209 24.0287 9.3139 23.999 9.3139C23.9693 9.3139 23.9408 9.30209 23.9198 9.28109C23.8988 9.26009 23.887 9.23159 23.887 9.20189C23.887 9.17356 23.8979 9.14632 23.9174 9.12582C23.937 9.10533 23.9637 9.09317 23.992 9.0919ZM23.992 9.6539H24C24.0145 9.65376 24.029 9.65651 24.0424 9.66197C24.0559 9.66744 24.0681 9.67552 24.0784 9.68575C24.0888 9.69598 24.097 9.70816 24.1025 9.72157C24.1081 9.73498 24.111 9.74936 24.111 9.7639C24.111 9.79359 24.0992 9.82209 24.0782 9.84309C24.0572 9.8641 24.0287 9.8759 23.999 9.8759C23.9693 9.8759 23.9408 9.8641 23.9198 9.84309C23.8988 9.82209 23.887 9.79359 23.887 9.7639C23.887 9.73557 23.8979 9.70832 23.9174 9.68783C23.937 9.66734 23.9637 9.65518 23.992 9.6539ZM23.98 10.2169H24C24.061 10.2169 24.11 10.2689 24.111 10.3299C24.111 10.3596 24.0992 10.3881 24.0782 10.4091C24.0572 10.4301 24.0287 10.4419 23.999 10.4419C23.9693 10.4419 23.9408 10.4301 23.9198 10.4091C23.8988 10.3881 23.887 10.3596 23.887 10.3299C23.887 10.2749 23.926 10.2249 23.98 10.2169ZM19.39 10.5019C19.6034 10.4966 19.8158 10.534 20.0145 10.612C20.2132 10.69 20.3943 10.8069 20.5472 10.956C20.7 11.105 20.8214 11.2832 20.9044 11.4799C20.9873 11.6766 21.03 11.8879 21.03 12.1014C21.03 12.3149 20.9873 12.5262 20.9044 12.7229C20.8214 12.9196 20.7 13.0978 20.5472 13.2468C20.3943 13.3959 20.2132 13.5128 20.0145 13.5908C19.8158 13.6688 19.6034 13.7062 19.39 13.7009C18.9727 13.6905 18.576 13.5174 18.2846 13.2185C17.9931 12.9197 17.83 12.5188 17.83 12.1014C17.83 11.684 17.9931 11.2831 18.2846 10.9843C18.576 10.6854 18.9727 10.5123 19.39 10.5019ZM28.61 10.5019C28.8234 10.4966 29.0358 10.534 29.2345 10.612C29.4332 10.69 29.6143 10.8069 29.7672 10.956C29.92 11.105 30.0414 11.2832 30.1244 11.4799C30.2073 11.6766 30.25 11.8879 30.25 12.1014C30.25 12.3149 30.2073 12.5262 30.1244 12.7229C30.0414 12.9196 29.92 13.0978 29.7672 13.2468C29.6143 13.3959 29.4332 13.5128 29.2345 13.5908C29.0358 13.6688 28.8234 13.7062 28.61 13.7009C28.1927 13.6905 27.796 13.5174 27.5046 13.2185C27.2131 12.9197 27.05 12.5188 27.05 12.1014C27.05 11.684 27.2131 11.2831 27.5046 10.9843C27.796 10.6854 28.1927 10.5123 28.61 10.5019ZM24.002 10.7769C24.064 10.7779 24.114 10.8309 24.113 10.8929C24.113 10.9539 24.063 10.9999 24.002 10.9999C23.9876 11.0003 23.9732 10.9978 23.9597 10.9927C23.9462 10.9875 23.9338 10.9797 23.9233 10.9698C23.9129 10.9599 23.9044 10.948 23.8985 10.9348C23.8926 10.9216 23.8894 10.9073 23.889 10.8929C23.889 10.8299 23.939 10.7769 24.002 10.7769ZM24.002 11.3399C24.0319 11.3402 24.0604 11.3523 24.0813 11.3736C24.1022 11.3948 24.1138 11.4236 24.1135 11.4534C24.1133 11.4832 24.1011 11.5117 24.0799 11.5327C24.0586 11.5536 24.0299 11.5652 24 11.5649C23.9852 11.5648 23.9706 11.5617 23.957 11.5559C23.9434 11.5502 23.9311 11.5418 23.9208 11.5312C23.9104 11.5207 23.9022 11.5082 23.8967 11.4945C23.8912 11.4808 23.8884 11.4662 23.8885 11.4514C23.8886 11.4366 23.8917 11.422 23.8975 11.4084C23.9032 11.3948 23.9116 11.3825 23.9222 11.3721C23.9327 11.3618 23.9452 11.3536 23.9589 11.3481C23.9726 11.3425 23.9872 11.3398 24.002 11.3399ZM23.992 11.9019C24.0075 11.9008 24.023 11.9029 24.0376 11.9081C24.0522 11.9133 24.0655 11.9215 24.0768 11.9321C24.0881 11.9427 24.097 11.9555 24.1031 11.9698C24.1092 11.984 24.1122 11.9994 24.112 12.0149C24.111 12.0769 24.062 12.1289 24 12.1289C23.9715 12.1274 23.9446 12.1153 23.9246 12.095C23.9046 12.0747 23.893 12.0476 23.892 12.0191C23.891 11.9906 23.9007 11.9627 23.9192 11.941C23.9377 11.9193 23.9637 11.9054 23.992 11.9019ZM23.992 12.4649C24.0075 12.4638 24.023 12.4659 24.0376 12.4711C24.0522 12.4763 24.0655 12.4845 24.0768 12.4951C24.0881 12.5057 24.097 12.5185 24.1031 12.5328C24.1092 12.547 24.1122 12.5624 24.112 12.5779C24.111 12.6389 24.062 12.6909 24 12.6919C23.9715 12.6904 23.9446 12.6783 23.9246 12.658C23.9046 12.6377 23.893 12.6106 23.892 12.5821C23.891 12.5536 23.9007 12.5257 23.9192 12.504C23.9377 12.4823 23.9637 12.4684 23.992 12.4649ZM23.992 13.0269C24.0073 13.0255 24.0227 13.0273 24.0372 13.0322C24.0517 13.0371 24.065 13.045 24.0763 13.0554C24.0876 13.0657 24.0967 13.0783 24.1028 13.0924C24.1089 13.1064 24.1121 13.1216 24.112 13.1369C24.112 13.1667 24.1002 13.1953 24.0791 13.2164C24.058 13.2375 24.0294 13.2494 23.9995 13.2494C23.9697 13.2494 23.9411 13.2375 23.92 13.2164C23.8989 13.1953 23.887 13.1667 23.887 13.1369C23.887 13.1086 23.8979 13.0813 23.9174 13.0608C23.937 13.0403 23.9637 13.0282 23.992 13.0269ZM23.992 13.5899C24.0073 13.5885 24.0227 13.5903 24.0372 13.5952C24.0517 13.6001 24.065 13.608 24.0763 13.6184C24.0876 13.6287 24.0967 13.6413 24.1028 13.6554C24.1089 13.6694 24.1121 13.6846 24.112 13.6999C24.112 13.7297 24.1002 13.7583 24.0791 13.7794C24.058 13.8005 24.0294 13.8124 23.9995 13.8124C23.9697 13.8124 23.9411 13.8005 23.92 13.7794C23.8989 13.7583 23.887 13.7297 23.887 13.6999C23.887 13.6716 23.8979 13.6443 23.9174 13.6238C23.937 13.6033 23.9637 13.5912 23.992 13.5899ZM19.391 14.5019C19.6044 14.4966 19.8168 14.534 20.0155 14.612C20.2142 14.69 20.3953 14.8069 20.5482 14.956C20.701 15.105 20.8224 15.2832 20.9054 15.4799C20.9883 15.6766 21.031 15.8879 21.031 16.1014C21.031 16.3149 20.9883 16.5262 20.9054 16.7229C20.8224 16.9196 20.701 17.0978 20.5482 17.2468C20.3953 17.3959 20.2142 17.5128 20.0155 17.5908C19.8168 17.6688 19.6044 17.7062 19.391 17.7009C18.9737 17.6905 18.577 17.5174 18.2856 17.2185C17.9941 16.9197 17.831 16.5188 17.831 16.1014C17.831 15.684 17.9941 15.2831 18.2856 14.9843C18.577 14.6854 18.9737 14.5123 19.391 14.5019ZM28.609 14.5019C28.8224 14.4966 29.0348 14.534 29.2335 14.612C29.4322 14.69 29.6133 14.8069 29.7662 14.956C29.919 15.105 30.0404 15.2832 30.1234 15.4799C30.2063 15.6766 30.249 15.8879 30.249 16.1014C30.249 16.3149 30.2063 16.5262 30.1234 16.7229C30.0404 16.9196 29.919 17.0978 29.7662 17.2468C29.6133 17.3959 29.4322 17.5128 29.2335 17.5908C29.0348 17.6688 28.8224 17.7062 28.609 17.7009C28.1917 17.6905 27.795 17.5174 27.5036 17.2185C27.2121 16.9197 27.049 16.5188 27.049 16.1014C27.049 15.684 27.2121 15.2831 27.5036 14.9843C27.795 14.6854 28.1917 14.5123 28.609 14.5019ZM23.98 14.7149H24C24.0222 14.7151 24.0438 14.7219 24.0621 14.7343C24.0804 14.7468 24.0946 14.7644 24.1029 14.785C24.1112 14.8055 24.1132 14.828 24.1087 14.8497C24.1041 14.8714 24.0933 14.8913 24.0775 14.9068C24.0617 14.9223 24.0416 14.9328 24.0199 14.9369C23.9981 14.9411 23.9756 14.9386 23.9552 14.93C23.9348 14.9213 23.9175 14.9068 23.9053 14.8883C23.8932 14.8698 23.8868 14.848 23.887 14.8259C23.887 14.7709 23.926 14.7219 23.98 14.7149ZM23.98 15.2769H24C24.061 15.2779 24.11 15.3269 24.111 15.3889C24.111 15.4034 24.1081 15.4178 24.1025 15.4312C24.097 15.4446 24.0888 15.4568 24.0784 15.467C24.0681 15.4773 24.0559 15.4853 24.0424 15.4908C24.029 15.4963 24.0145 15.499 24 15.4989C23.9856 15.5002 23.971 15.4987 23.9572 15.4943C23.9433 15.49 23.9304 15.483 23.9193 15.4737C23.9082 15.4645 23.899 15.4531 23.8922 15.4402C23.8855 15.4274 23.8813 15.4133 23.88 15.3989C23.8787 15.3844 23.8802 15.3699 23.8846 15.356C23.8889 15.3422 23.8959 15.3293 23.9052 15.3182C23.9145 15.307 23.9258 15.2978 23.9387 15.2911C23.9515 15.2844 23.9656 15.2802 23.98 15.2789V15.2769ZM24.002 15.8379C24.0317 15.8382 24.0601 15.8502 24.0809 15.8714C24.1017 15.8926 24.1133 15.9212 24.113 15.9509C24.1128 15.9806 24.1007 16.009 24.0795 16.0298C24.0583 16.0506 24.0297 16.0622 24 16.0619C23.9703 16.0616 23.9419 16.0496 23.9211 16.0284C23.9003 16.0072 23.8888 15.9786 23.889 15.9489C23.8893 15.9192 23.9013 15.8908 23.9225 15.87C23.9437 15.8492 23.9723 15.8376 24.002 15.8379ZM23.992 17.5259C24.0073 17.5245 24.0227 17.5263 24.0372 17.5312C24.0517 17.5361 24.065 17.544 24.0763 17.5544C24.0876 17.5647 24.0967 17.5773 24.1028 17.5914C24.1089 17.6054 24.1121 17.6206 24.112 17.6359C24.112 17.6507 24.109 17.6653 24.1033 17.6789C24.0975 17.6925 24.0892 17.7049 24.0787 17.7153C24.0682 17.7257 24.0558 17.7339 24.0421 17.7395C24.0284 17.7451 24.0138 17.748 23.999 17.7479C23.9842 17.7478 23.9696 17.7449 23.956 17.7391C23.9424 17.7334 23.93 17.7251 23.9196 17.7146C23.9092 17.7041 23.901 17.6917 23.8954 17.678C23.8898 17.6643 23.887 17.6497 23.887 17.6349C23.887 17.6066 23.8979 17.5793 23.9174 17.5588C23.937 17.5383 23.9637 17.5262 23.992 17.5249V17.5259ZM19.391 18.5019C19.6044 18.4966 19.8168 18.534 20.0155 18.612C20.2142 18.69 20.3953 18.8069 20.5482 18.956C20.701 19.105 20.8224 19.2832 20.9054 19.4799C20.9883 19.6766 21.031 19.8879 21.031 20.1014C21.031 20.3149 20.9883 20.5262 20.9054 20.7229C20.8224 20.9196 20.701 21.0978 20.5482 21.2468C20.3953 21.3959 20.2142 21.5128 20.0155 21.5908C19.8168 21.6688 19.6044 21.7062 19.391 21.7009C18.9737 21.6905 18.577 21.5174 18.2856 21.2185C17.9941 20.9197 17.831 20.5188 17.831 20.1014C17.831 19.684 17.9941 19.2831 18.2856 18.9843C18.577 18.6854 18.9737 18.5123 19.391 18.5019ZM28.609 18.5019C28.8224 18.4966 29.0348 18.534 29.2335 18.612C29.4322 18.69 29.6133 18.8069 29.7662 18.956C29.919 19.105 30.0404 19.2832 30.1234 19.4799C30.2063 19.6766 30.249 19.8879 30.249 20.1014C30.249 20.3149 30.2063 20.5262 30.1234 20.7229C30.0404 20.9196 29.919 21.0978 29.7662 21.2468C29.6133 21.3959 29.4322 21.5128 29.2335 21.5908C29.0348 21.6688 28.8224 21.7062 28.609 21.7009C28.1917 21.6905 27.795 21.5174 27.5036 21.2185C27.2121 20.9197 27.049 20.5188 27.049 20.1014C27.049 19.684 27.2121 19.2831 27.5036 18.9843C27.795 18.6854 28.1917 18.5123 28.609 18.5019ZM23.98 19.2129H24C24.0222 19.2131 24.0438 19.2199 24.0621 19.2323C24.0804 19.2448 24.0946 19.2624 24.1029 19.283C24.1112 19.3035 24.1132 19.326 24.1087 19.3477C24.1041 19.3694 24.0933 19.3893 24.0775 19.4048C24.0617 19.4203 24.0416 19.4308 24.0199 19.4349C23.9981 19.4391 23.9756 19.4366 23.9552 19.428C23.9348 19.4193 23.9175 19.4048 23.9053 19.3863C23.8932 19.3678 23.8868 19.346 23.887 19.3239C23.8865 19.2973 23.8956 19.2713 23.9127 19.2509C23.9298 19.2305 23.9537 19.217 23.98 19.2129ZM24.002 19.7729C24.0319 19.7732 24.0604 19.7853 24.0813 19.8066C24.1022 19.8278 24.1138 19.8566 24.1135 19.8864C24.1133 19.9162 24.1011 19.9447 24.0799 19.9657C24.0586 19.9866 24.0299 19.9982 24 19.9979C23.9852 19.9978 23.9706 19.9947 23.957 19.9889C23.9434 19.9832 23.9311 19.9748 23.9208 19.9642C23.8999 19.943 23.8883 19.9142 23.8885 19.8844C23.8888 19.8546 23.9009 19.826 23.9222 19.8051C23.9435 19.7842 23.9722 19.7726 24.002 19.7729ZM23.992 21.4609C24.0075 21.4598 24.023 21.4619 24.0376 21.4671C24.0522 21.4723 24.0655 21.4804 24.0768 21.4911C24.0881 21.5017 24.097 21.5145 24.1031 21.5288C24.1092 21.543 24.1122 21.5584 24.112 21.5739C24.112 21.5885 24.1091 21.603 24.1035 21.6165C24.0978 21.6299 24.0895 21.6422 24.0791 21.6524C24.0687 21.6626 24.0563 21.6707 24.0427 21.6761C24.0291 21.6815 24.0146 21.6842 24 21.6839C23.9853 21.6843 23.9707 21.6817 23.957 21.6764C23.9433 21.6711 23.9308 21.663 23.9203 21.6528C23.9098 21.6425 23.9014 21.6302 23.8957 21.6167C23.89 21.6031 23.887 21.5886 23.887 21.5739C23.886 21.5139 23.933 21.4639 23.992 21.4609ZM19.391 22.5019C19.6044 22.4966 19.8168 22.534 20.0155 22.612C20.2142 22.69 20.3953 22.8069 20.5482 22.956C20.701 23.105 20.8224 23.2832 20.9054 23.4799C20.9883 23.6766 21.031 23.8879 21.031 24.1014C21.031 24.3149 20.9883 24.5262 20.9054 24.7229C20.8224 24.9196 20.701 25.0978 20.5482 25.2468C20.3953 25.3959 20.2142 25.5128 20.0155 25.5908C19.8168 25.6688 19.6044 25.7062 19.391 25.7009C18.9737 25.6905 18.577 25.5174 18.2856 25.2185C17.9941 24.9197 17.831 24.5188 17.831 24.1014C17.831 23.684 17.9941 23.2831 18.2856 22.9843C18.577 22.6854 18.9737 22.5123 19.391 22.5019ZM28.609 22.5019C28.8224 22.4966 29.0348 22.534 29.2335 22.612C29.4322 22.69 29.6133 22.8069 29.7662 22.956C29.919 23.105 30.0404 23.2832 30.1234 23.4799C30.2063 23.6766 30.249 23.8879 30.249 24.1014C30.249 24.3149 30.2063 24.5262 30.1234 24.7229C30.0404 24.9196 29.919 25.0978 29.7662 25.2468C29.6133 25.3959 29.4322 25.5128 29.2335 25.5908C29.0348 25.6688 28.8224 25.7062 28.609 25.7009C28.1917 25.6905 27.795 25.5174 27.5036 25.2185C27.2121 24.9197 27.049 24.5188 27.049 24.1014C27.049 23.684 27.2121 23.2831 27.5036 22.9843C27.795 22.6854 28.1917 22.5123 28.609 22.5019ZM23.98 23.7109H24C24.0145 23.7108 24.029 23.7135 24.0424 23.719C24.0559 23.7244 24.0681 23.7325 24.0784 23.7428C24.0888 23.753 24.097 23.7652 24.1025 23.7786C24.1081 23.792 24.111 23.8064 24.111 23.8209C24.111 23.8506 24.0992 23.8791 24.0782 23.9001C24.0572 23.9211 24.0287 23.9329 23.999 23.9329C23.9693 23.9329 23.9408 23.9211 23.9198 23.9001C23.8988 23.8791 23.887 23.8506 23.887 23.8209C23.8867 23.7944 23.8959 23.7688 23.913 23.7486C23.9301 23.7284 23.9539 23.715 23.98 23.7109ZM23.98 24.2739H24C24.0145 24.2738 24.0288 24.2765 24.0422 24.2819C24.0556 24.2873 24.0678 24.2953 24.0781 24.3054C24.0884 24.3155 24.0966 24.3276 24.1023 24.3409C24.1079 24.3542 24.1109 24.3684 24.111 24.3829C24.111 24.4126 24.0992 24.4411 24.0782 24.4621C24.0572 24.4831 24.0287 24.4949 23.999 24.4949C23.9693 24.4949 23.9408 24.4831 23.9198 24.4621C23.8988 24.4411 23.887 24.4126 23.887 24.3829C23.8867 24.3564 23.8959 24.3308 23.913 24.3106C23.9301 24.2904 23.9539 24.277 23.98 24.2729V24.2739ZM23.992 24.8339H24C24.0294 24.8349 24.0571 24.8475 24.0773 24.8688C24.0975 24.8901 24.1085 24.9185 24.108 24.9478C24.1075 24.9772 24.0954 25.0052 24.0745 25.0257C24.0536 25.0463 24.0254 25.0578 23.996 25.0578C23.9667 25.0578 23.9385 25.0463 23.9175 25.0257C23.8966 25.0052 23.8846 24.9772 23.884 24.9478C23.8835 24.9185 23.8945 24.8901 23.9147 24.8688C23.9349 24.8475 23.9627 24.8349 23.992 24.8339ZM23.992 25.3969H24C24.062 25.3969 24.112 25.4469 24.111 25.5099C24.111 25.5244 24.1081 25.5388 24.1025 25.5522C24.097 25.5656 24.0888 25.5778 24.0784 25.588C24.0681 25.5983 24.0559 25.6063 24.0424 25.6118C24.029 25.6173 24.0145 25.62 24 25.6199C23.9853 25.6203 23.9707 25.6177 23.957 25.6124C23.9433 25.607 23.9308 25.599 23.9203 25.5888C23.9098 25.5785 23.9014 25.5662 23.8957 25.5527C23.89 25.5391 23.887 25.5246 23.887 25.5099C23.886 25.4499 23.933 25.3999 23.992 25.3959V25.3969ZM23.992 25.9589C24.0075 25.9578 24.023 25.9599 24.0376 25.9651C24.0522 25.9703 24.0655 25.9785 24.0768 25.9891C24.0881 25.9997 24.097 26.0125 24.1031 26.0268C24.1092 26.041 24.1122 26.0564 24.112 26.0719C24.112 26.0865 24.1091 26.101 24.1035 26.1145C24.0978 26.1279 24.0895 26.1402 24.0791 26.1504C24.0687 26.1606 24.0563 26.1687 24.0427 26.1741C24.0291 26.1795 24.0146 26.1822 24 26.1819C23.9853 26.1823 23.9707 26.1797 23.957 26.1744C23.9433 26.1691 23.9308 26.161 23.9203 26.1508C23.9098 26.1405 23.9014 26.1282 23.8957 26.1147C23.89 26.1011 23.887 26.0866 23.887 26.0719C23.886 26.0119 23.933 25.9619 23.992 25.9589ZM19.391 26.5019C19.6044 26.4966 19.8168 26.534 20.0155 26.612C20.2142 26.69 20.3953 26.8069 20.5482 26.956C20.701 27.105 20.8224 27.2832 20.9054 27.4799C20.9883 27.6766 21.031 27.8879 21.031 28.1014C21.031 28.3149 20.9883 28.5262 20.9054 28.7229C20.8224 28.9196 20.701 29.0978 20.5482 29.2468C20.3953 29.3959 20.2142 29.5128 20.0155 29.5908C19.8168 29.6688 19.6044 29.7062 19.391 29.7009C18.9737 29.6905 18.577 29.5174 18.2856 29.2185C17.9941 28.9197 17.831 28.5188 17.831 28.1014C17.831 27.684 17.9941 27.2831 18.2856 26.9843C18.577 26.6854 18.9737 26.5123 19.391 26.5019ZM28.609 26.5019C28.8224 26.4966 29.0348 26.534 29.2335 26.612C29.4322 26.69 29.6133 26.8069 29.7662 26.956C29.919 27.105 30.0404 27.2832 30.1234 27.4799C30.2063 27.6766 30.249 27.8879 30.249 28.1014C30.249 28.3149 30.2063 28.5262 30.1234 28.7229C30.0404 28.9196 29.919 29.0978 29.7662 29.2468C29.6133 29.3959 29.4322 29.5128 29.2335 29.5908C29.0348 29.6688 28.8224 29.7062 28.609 29.7009C28.1917 29.6905 27.795 29.5174 27.5036 29.2185C27.2121 28.9197 27.049 28.5188 27.049 28.1014C27.049 27.684 27.2121 27.2831 27.5036 26.9843C27.795 26.6854 28.1917 26.5123 28.609 26.5019ZM23.992 27.0839H24C24.0294 27.0849 24.0571 27.0975 24.0773 27.1188C24.0975 27.1401 24.1085 27.1685 24.108 27.1978C24.1075 27.2272 24.0954 27.2552 24.0745 27.2757C24.0536 27.2963 24.0254 27.3078 23.996 27.3078C23.9667 27.3078 23.9385 27.2963 23.9175 27.2757C23.8966 27.2552 23.8846 27.2272 23.884 27.1978C23.8835 27.1685 23.8945 27.1401 23.9147 27.1188C23.9349 27.0975 23.9627 27.0849 23.992 27.0839ZM23.992 27.6469H24C24.0145 27.6468 24.0288 27.6495 24.0422 27.6549C24.0556 27.6603 24.0678 27.6683 24.0781 27.6784C24.0884 27.6885 24.0966 27.7006 24.1023 27.7139C24.1079 27.7272 24.1109 27.7414 24.111 27.7559C24.111 27.7856 24.0992 27.8141 24.0782 27.8351C24.0572 27.8561 24.0287 27.8679 23.999 27.8679C23.9693 27.8679 23.9408 27.8561 23.9198 27.8351C23.8988 27.8141 23.887 27.7856 23.887 27.7559C23.887 27.7276 23.8979 27.7003 23.9174 27.6798C23.937 27.6593 23.9637 27.6472 23.992 27.6459V27.6469ZM23.98 28.2089H24C24.0145 28.2088 24.029 28.2115 24.0424 28.217C24.0559 28.2224 24.0681 28.2305 24.0784 28.2408C24.0888 28.251 24.097 28.2632 24.1025 28.2766C24.1081 28.29 24.111 28.3044 24.111 28.3189C24.111 28.3486 24.0992 28.3771 24.0782 28.3981C24.0572 28.4191 24.0287 28.4309 23.999 28.4309C23.9693 28.4309 23.9408 28.4191 23.9198 28.3981C23.8988 28.3771 23.887 28.3486 23.887 28.3189C23.8867 28.2924 23.8959 28.2668 23.913 28.2466C23.9301 28.2264 23.9539 28.213 23.98 28.2089ZM24.002 28.7689C24.0319 28.7692 24.0604 28.7813 24.0813 28.8026C24.1022 28.8238 24.1138 28.8526 24.1135 28.8824C24.1133 28.9122 24.1011 28.9407 24.0799 28.9617C24.0586 28.9826 24.0299 28.9942 24 28.9939C23.9853 28.9938 23.9708 28.9907 23.9572 28.985C23.9437 28.9792 23.9314 28.9709 23.9211 28.9604C23.9108 28.9499 23.9027 28.9375 23.8972 28.9238C23.8917 28.9102 23.8889 28.8956 23.889 28.8809C23.8891 28.8662 23.8922 28.8516 23.8979 28.8381C23.9037 28.8246 23.912 28.8123 23.9225 28.802C23.933 28.7917 23.9454 28.7835 23.9591 28.778C23.9727 28.7725 23.9873 28.7698 24.002 28.7699V28.7689ZM23.992 29.3319C24.0075 29.3308 24.023 29.3329 24.0376 29.3381C24.0522 29.3433 24.0655 29.3514 24.0768 29.3621C24.0881 29.3727 24.097 29.3855 24.1031 29.3998C24.1092 29.414 24.1122 29.4294 24.112 29.4449C24.112 29.4595 24.1091 29.474 24.1035 29.4875C24.0978 29.5009 24.0895 29.5132 24.0791 29.5234C24.0687 29.5336 24.0563 29.5417 24.0427 29.5471C24.0291 29.5525 24.0146 29.5552 24 29.5549C23.9853 29.5553 23.9707 29.5527 23.957 29.5474C23.9433 29.5421 23.9308 29.534 23.9203 29.5238C23.9098 29.5135 23.9014 29.5012 23.8957 29.4877C23.89 29.4741 23.887 29.4596 23.887 29.4449C23.886 29.3849 23.933 29.3349 23.992 29.3319ZM23.992 29.8949C24.0075 29.8938 24.023 29.8959 24.0376 29.9011C24.0522 29.9063 24.0655 29.9144 24.0768 29.9251C24.0881 29.9357 24.097 29.9485 24.1031 29.9628C24.1092 29.977 24.1122 29.9924 24.112 30.0079C24.112 30.0225 24.1091 30.037 24.1035 30.0505C24.0978 30.0639 24.0895 30.0762 24.0791 30.0864C24.0687 30.0966 24.0563 30.1047 24.0427 30.1101C24.0291 30.1155 24.0146 30.1182 24 30.1179C23.9853 30.1183 23.9707 30.1157 23.957 30.1104C23.9433 30.1051 23.9308 30.097 23.9203 30.0868C23.9098 30.0765 23.9014 30.0642 23.8957 30.0507C23.89 30.0371 23.887 30.0226 23.887 30.0079C23.886 29.9479 23.933 29.8979 23.992 29.8949ZM23.992 30.4569C24.0075 30.4558 24.023 30.4579 24.0376 30.4631C24.0522 30.4683 24.0655 30.4764 24.0768 30.4871C24.0881 30.4977 24.097 30.5105 24.1031 30.5248C24.1092 30.539 24.1122 30.5544 24.112 30.5699C24.112 30.5845 24.1091 30.599 24.1035 30.6125C24.0978 30.6259 24.0895 30.6382 24.0791 30.6484C24.0687 30.6586 24.0563 30.6667 24.0427 30.6721C24.0291 30.6775 24.0146 30.6802 24 30.6799C23.9853 30.6803 23.9707 30.6777 23.957 30.6724C23.9433 30.6671 23.9308 30.659 23.9203 30.6488C23.9098 30.6385 23.9014 30.6262 23.8957 30.6127C23.89 30.5991 23.887 30.5846 23.887 30.5699C23.886 30.5099 23.933 30.4599 23.992 30.4569ZM19.391 30.5019C19.6044 30.4966 19.8168 30.534 20.0155 30.612C20.2142 30.69 20.3953 30.8069 20.5482 30.956C20.701 31.105 20.8224 31.2832 20.9054 31.4799C20.9883 31.6766 21.031 31.8879 21.031 32.1014C21.031 32.3149 20.9883 32.5262 20.9054 32.7229C20.8224 32.9196 20.701 33.0978 20.5482 33.2468C20.3953 33.3959 20.2142 33.5128 20.0155 33.5908C19.8168 33.6688 19.6044 33.7062 19.391 33.7009C18.9737 33.6905 18.577 33.5174 18.2856 33.2185C17.9941 32.9197 17.831 32.5188 17.831 32.1014C17.831 31.684 17.9941 31.2831 18.2856 30.9843C18.577 30.6854 18.9737 30.5123 19.391 30.5019ZM28.609 30.5019C28.8224 30.4966 29.0348 30.534 29.2335 30.612C29.4322 30.69 29.6133 30.8069 29.7662 30.956C29.919 31.105 30.0404 31.2832 30.1234 31.4799C30.2063 31.6766 30.249 31.8879 30.249 32.1014C30.249 32.3149 30.2063 32.5262 30.1234 32.7229C30.0404 32.9196 29.919 33.0978 29.7662 33.2468C29.6133 33.3959 29.4322 33.5128 29.2335 33.5908C29.0348 33.6688 28.8224 33.7062 28.609 33.7009C28.1917 33.6905 27.795 33.5174 27.5036 33.2185C27.2121 32.9197 27.049 32.5188 27.049 32.1014C27.049 31.684 27.2121 31.2831 27.5036 30.9843C27.795 30.6854 28.1917 30.5123 28.609 30.5019ZM23.992 31.0179C24.0074 31.0171 24.0228 31.0194 24.0373 31.0247C24.0517 31.03 24.065 31.0382 24.0762 31.0487C24.0874 31.0593 24.0963 31.072 24.1025 31.0861C24.1087 31.1003 24.1119 31.1155 24.112 31.1309C24.112 31.1607 24.1002 31.1893 24.0791 31.2104C24.058 31.2315 24.0294 31.2434 23.9995 31.2434C23.9697 31.2434 23.9411 31.2315 23.92 31.2104C23.8989 31.1893 23.887 31.1607 23.887 31.1309C23.887 31.0709 23.933 31.0209 23.992 31.0179ZM23.992 31.5799H24C24.0294 31.5809 24.0571 31.5935 24.0773 31.6148C24.0975 31.6361 24.1085 31.6645 24.108 31.6938C24.1075 31.7232 24.0954 31.7512 24.0745 31.7717C24.0536 31.7923 24.0254 31.8038 23.996 31.8038C23.9667 31.8038 23.9385 31.7923 23.9175 31.7717C23.8966 31.7512 23.8846 31.7232 23.884 31.6938C23.8835 31.6645 23.8945 31.6361 23.9147 31.6148C23.9349 31.5935 23.9627 31.5809 23.992 31.5799ZM23.98 32.1429H24C24.0222 32.1431 24.0438 32.1499 24.0621 32.1623C24.0804 32.1748 24.0946 32.1924 24.1029 32.213C24.1112 32.2335 24.1132 32.256 24.1087 32.2777C24.1041 32.2994 24.0933 32.3193 24.0775 32.3348C24.0617 32.3503 24.0416 32.3608 24.0199 32.3649C23.9981 32.3691 23.9756 32.3666 23.9552 32.358C23.9348 32.3493 23.9175 32.3348 23.9053 32.3163C23.8932 32.2978 23.8868 32.276 23.887 32.2539C23.8865 32.2273 23.8956 32.2013 23.9127 32.1809C23.9298 32.1605 23.9537 32.147 23.98 32.1429ZM23.98 32.7049H24C24.0145 32.7048 24.029 32.7075 24.0424 32.713C24.0559 32.7184 24.0681 32.7265 24.0784 32.7368C24.0888 32.747 24.097 32.7592 24.1025 32.7726C24.1081 32.786 24.111 32.8004 24.111 32.8149C24.111 32.8759 24.061 32.9249 24 32.9249C23.9705 32.9252 23.942 32.9138 23.9209 32.8932C23.8997 32.8726 23.8875 32.8444 23.887 32.8149C23.8867 32.7884 23.8959 32.7628 23.913 32.7426C23.9301 32.7224 23.9539 32.709 23.98 32.7049ZM24.002 33.2649C24.064 33.2659 24.114 33.3189 24.113 33.3809C24.113 33.4429 24.063 33.4879 24.002 33.4879C23.9875 33.4884 23.9731 33.4861 23.9595 33.481C23.946 33.4758 23.9336 33.4681 23.9231 33.4581C23.9125 33.4482 23.9041 33.4362 23.8983 33.4229C23.8924 33.4097 23.8893 33.3954 23.889 33.3809C23.889 33.3179 23.939 33.2649 24.002 33.2659V33.2649ZM23.992 34.3909C24.0075 34.3898 24.023 34.3919 24.0376 34.3971C24.0522 34.4023 24.0655 34.4104 24.0768 34.4211C24.0881 34.4317 24.097 34.4445 24.1031 34.4588C24.1092 34.473 24.1122 34.4884 24.112 34.5039C24.112 34.5185 24.1091 34.533 24.1035 34.5465C24.0978 34.5599 24.0895 34.5722 24.0791 34.5824C24.0687 34.5926 24.0563 34.6007 24.0427 34.6061C24.0291 34.6115 24.0146 34.6142 24 34.6139C23.9853 34.6143 23.9707 34.6117 23.957 34.6064C23.9433 34.601 23.9308 34.593 23.9203 34.5828C23.9098 34.5725 23.9014 34.5602 23.8957 34.5467C23.89 34.5331 23.887 34.5186 23.887 34.5039C23.886 34.4439 23.933 34.3939 23.992 34.3909ZM19.391 34.5019C19.6044 34.4966 19.8168 34.534 20.0155 34.612C20.2142 34.69 20.3953 34.8069 20.5482 34.956C20.701 35.105 20.8224 35.2832 20.9054 35.4799C20.9883 35.6766 21.031 35.8879 21.031 36.1014C21.031 36.3149 20.9883 36.5262 20.9054 36.7229C20.8224 36.9196 20.701 37.0978 20.5482 37.2468C20.3953 37.3959 20.2142 37.5128 20.0155 37.5908C19.8168 37.6688 19.6044 37.7062 19.391 37.7009C18.9737 37.6905 18.577 37.5174 18.2856 37.2185C17.9941 36.9197 17.831 36.5188 17.831 36.1014C17.831 35.684 17.9941 35.2831 18.2856 34.9843C18.577 34.6854 18.9737 34.5123 19.391 34.5019ZM28.609 34.5019C28.8224 34.4966 29.0348 34.534 29.2335 34.612C29.4322 34.69 29.6133 34.8069 29.7662 34.956C29.919 35.105 30.0404 35.2832 30.1234 35.4799C30.2063 35.6766 30.249 35.8879 30.249 36.1014C30.249 36.3149 30.2063 36.5262 30.1234 36.7229C30.0404 36.9196 29.919 37.0978 29.7662 37.2468C29.6133 37.3959 29.4322 37.5128 29.2335 37.5908C29.0348 37.6688 28.8224 37.7062 28.609 37.7009C28.1917 37.6905 27.795 37.5174 27.5036 37.2185C27.2121 36.9197 27.049 36.5188 27.049 36.1014C27.049 35.684 27.2121 35.2831 27.5036 34.9843C27.795 34.6854 28.1917 34.5123 28.609 34.5019ZM23.992 36.6409C24.0073 36.6395 24.0227 36.6413 24.0372 36.6462C24.0517 36.6511 24.065 36.659 24.0763 36.6694C24.0876 36.6797 24.0967 36.6923 24.1028 36.7064C24.1089 36.7204 24.1121 36.7356 24.112 36.7509C24.112 36.7807 24.1002 36.8093 24.0791 36.8304C24.058 36.8515 24.0294 36.8634 23.9995 36.8634C23.9697 36.8634 23.9411 36.8515 23.92 36.8304C23.8989 36.8093 23.887 36.7807 23.887 36.7509C23.887 36.7226 23.8979 36.6953 23.9174 36.6748C23.937 36.6543 23.9637 36.6422 23.992 36.6409ZM23.98 37.2029H24C24.0145 37.2028 24.029 37.2055 24.0424 37.211C24.0559 37.2165 24.0681 37.2245 24.0784 37.2348C24.0888 37.245 24.097 37.2572 24.1025 37.2706C24.1081 37.284 24.111 37.2984 24.111 37.3129C24.111 37.3426 24.0992 37.3711 24.0782 37.3921C24.0572 37.4131 24.0287 37.4249 23.999 37.4249C23.9693 37.4249 23.9408 37.4131 23.9198 37.3921C23.8988 37.3711 23.887 37.3426 23.887 37.3129C23.887 37.2569 23.926 37.2109 23.98 37.2029ZM23.992 37.7629H24C24.0294 37.7639 24.0571 37.7765 24.0773 37.7978C24.0975 37.8191 24.1085 37.8475 24.108 37.8768C24.1075 37.9062 24.0954 37.9342 24.0745 37.9547C24.0536 37.9753 24.0254 37.9868 23.996 37.9868C23.9667 37.9868 23.9385 37.9753 23.9175 37.9547C23.8966 37.9342 23.8846 37.9062 23.884 37.8768C23.8835 37.8475 23.8945 37.8191 23.9147 37.7978C23.9349 37.7765 23.9627 37.7639 23.992 37.7629ZM23.992 38.3259C24.0075 38.3248 24.023 38.3269 24.0376 38.3321C24.0522 38.3373 24.0655 38.3455 24.0768 38.3561C24.0881 38.3667 24.097 38.3795 24.1031 38.3938C24.1092 38.408 24.1122 38.4234 24.112 38.4389C24.112 38.4535 24.1091 38.468 24.1035 38.4815C24.0978 38.4949 24.0895 38.5072 24.0791 38.5174C24.0687 38.5276 24.0563 38.5357 24.0427 38.5411C24.0291 38.5465 24.0146 38.5492 24 38.5489C23.9853 38.5493 23.9707 38.5467 23.957 38.5414C23.9433 38.5361 23.9308 38.528 23.9203 38.5178C23.9098 38.5075 23.9014 38.4952 23.8957 38.4817C23.89 38.4682 23.887 38.4536 23.887 38.4389C23.886 38.3789 23.933 38.3289 23.992 38.3259ZM19.391 38.5019C19.6044 38.4966 19.8168 38.534 20.0155 38.612C20.2142 38.69 20.3953 38.8069 20.5482 38.956C20.701 39.105 20.8224 39.2832 20.9054 39.4799C20.9883 39.6766 21.031 39.8879 21.031 40.1014C21.031 40.3149 20.9883 40.5262 20.9054 40.7229C20.8224 40.9196 20.701 41.0978 20.5482 41.2468C20.3953 41.3959 20.2142 41.5128 20.0155 41.5908C19.8168 41.6688 19.6044 41.7062 19.391 41.7009C18.9737 41.6905 18.577 41.5174 18.2856 41.2185C17.9941 40.9197 17.831 40.5188 17.831 40.1014C17.831 39.684 17.9941 39.2831 18.2856 38.9843C18.577 38.6854 18.9737 38.5123 19.391 38.5019ZM28.609 38.5019C28.8224 38.4966 29.0348 38.534 29.2335 38.612C29.4322 38.69 29.6133 38.8069 29.7662 38.956C29.919 39.105 30.0404 39.2832 30.1234 39.4799C30.2063 39.6766 30.249 39.8879 30.249 40.1014C30.249 40.3149 30.2063 40.5262 30.1234 40.7229C30.0404 40.9196 29.919 41.0978 29.7662 41.2468C29.6133 41.3959 29.4322 41.5128 29.2335 41.5908C29.0348 41.6688 28.8224 41.7062 28.609 41.7009C28.1917 41.6905 27.795 41.5174 27.5036 41.2185C27.2121 40.9197 27.049 40.5188 27.049 40.1014C27.049 39.684 27.2121 39.2831 27.5036 38.9843C27.795 38.6854 28.1917 38.5123 28.609 38.5019ZM23.992 38.8889C24.0075 38.8878 24.023 38.8899 24.0376 38.8951C24.0522 38.9003 24.0655 38.9085 24.0768 38.9191C24.0881 38.9297 24.097 38.9425 24.1031 38.9568C24.1092 38.971 24.1122 38.9864 24.112 39.0019C24.112 39.0165 24.1091 39.031 24.1035 39.0445C24.0978 39.0579 24.0895 39.0702 24.0791 39.0804C24.0687 39.0906 24.0563 39.0987 24.0427 39.1041C24.0291 39.1095 24.0146 39.1122 24 39.1119C23.9853 39.1123 23.9707 39.1097 23.957 39.1044C23.9433 39.0991 23.9308 39.091 23.9203 39.0808C23.9098 39.0705 23.9014 39.0582 23.8957 39.0447C23.89 39.0312 23.887 39.0166 23.887 39.0019C23.886 38.9419 23.933 38.8919 23.992 38.8889ZM23.992 39.4509H24C24.0294 39.4519 24.0571 39.4645 24.0773 39.4858C24.0975 39.5071 24.1085 39.5355 24.108 39.5648C24.1075 39.5942 24.0954 39.6222 24.0745 39.6427C24.0536 39.6633 24.0254 39.6748 23.996 39.6748C23.9667 39.6748 23.9385 39.6633 23.9175 39.6427C23.8966 39.6222 23.8846 39.5942 23.884 39.5648C23.8835 39.5355 23.8945 39.5071 23.9147 39.4858C23.9349 39.4645 23.9627 39.4519 23.992 39.4509ZM23.992 40.0139H24C24.0294 40.0149 24.0571 40.0275 24.0773 40.0488C24.0975 40.0701 24.1085 40.0985 24.108 40.1278C24.1075 40.1572 24.0954 40.1852 24.0745 40.2057C24.0536 40.2263 24.0254 40.2378 23.996 40.2378C23.9667 40.2378 23.9385 40.2263 23.9175 40.2057C23.8966 40.1852 23.8846 40.1572 23.884 40.1278C23.8835 40.0985 23.8945 40.0701 23.9147 40.0488C23.9349 40.0275 23.9627 40.0149 23.992 40.0139ZM23.992 40.5759H24C24.0145 40.5758 24.029 40.5785 24.0424 40.584C24.0559 40.5895 24.0681 40.5975 24.0784 40.6078C24.0888 40.618 24.097 40.6302 24.1025 40.6436C24.1081 40.657 24.111 40.6714 24.111 40.6859C24.111 40.7156 24.0992 40.7441 24.0782 40.7651C24.0572 40.7861 24.0287 40.7979 23.999 40.7979C23.9693 40.7979 23.9408 40.7861 23.9198 40.7651C23.8988 40.7441 23.887 40.7156 23.887 40.6859C23.887 40.6576 23.8979 40.6303 23.9174 40.6098C23.937 40.5893 23.9637 40.5772 23.992 40.5759ZM23.98 41.1389H24C24.0145 41.1388 24.029 41.1415 24.0424 41.147C24.0559 41.1525 24.0681 41.1605 24.0784 41.1708C24.0888 41.181 24.097 41.1932 24.1025 41.2066C24.1081 41.22 24.111 41.2344 24.111 41.2489C24.111 41.2786 24.0992 41.3071 24.0782 41.3281C24.0572 41.3491 24.0287 41.3609 23.999 41.3609C23.9693 41.3609 23.9408 41.3491 23.9198 41.3281C23.8988 41.3071 23.887 41.2786 23.887 41.2489C23.8867 41.2224 23.8959 41.1968 23.913 41.1766C23.9301 41.1564 23.9539 41.143 23.98 41.1389ZM23.98 41.7009H24C24.0145 41.7008 24.029 41.7035 24.0424 41.709C24.0559 41.7145 24.0681 41.7225 24.0784 41.7328C24.0888 41.743 24.097 41.7552 24.1025 41.7686C24.1081 41.782 24.111 41.7964 24.111 41.8109C24.111 41.8719 24.061 41.9209 24 41.9209C23.9705 41.9212 23.942 41.9098 23.9209 41.8892C23.8997 41.8686 23.8875 41.8404 23.887 41.8109C23.887 41.7549 23.926 41.7089 23.98 41.7009ZM24.002 42.2609C24.064 42.2629 24.114 42.3129 24.113 42.3749C24.113 42.3894 24.1101 42.4038 24.1045 42.4172C24.099 42.4306 24.0908 42.4428 24.0804 42.453C24.0701 42.4633 24.0579 42.4713 24.0444 42.4768C24.031 42.4823 24.0165 42.485 24.002 42.4849C23.9873 42.4853 23.9727 42.4827 23.959 42.4774C23.9453 42.4721 23.9328 42.464 23.9223 42.4538C23.9118 42.4435 23.9034 42.4312 23.8977 42.4177C23.892 42.4042 23.889 42.3896 23.889 42.3749C23.889 42.3119 23.939 42.2609 24.002 42.2619V42.2609ZM23.992 42.8239C24.0075 42.8228 24.023 42.8249 24.0376 42.8301C24.0522 42.8353 24.0655 42.8435 24.0768 42.8541C24.0881 42.8647 24.097 42.8775 24.1031 42.8918C24.1092 42.906 24.1122 42.9214 24.112 42.9369C24.112 42.9515 24.1091 42.966 24.1035 42.9795C24.0978 42.9929 24.0895 43.0052 24.0791 43.0154C24.0687 43.0256 24.0563 43.0337 24.0427 43.0391C24.0291 43.0445 24.0146 43.0472 24 43.0469C23.9853 43.0473 23.9707 43.0448 23.957 43.0394C23.9433 43.0341 23.9308 43.026 23.9203 43.0158C23.9098 43.0055 23.9014 42.9932 23.8957 42.9797C23.89 42.9662 23.887 42.9516 23.887 42.9369C23.886 42.8769 23.933 42.8269 23.992 42.8239Z" fill="#333333"/>
</svg>
