<svg width="48" height="48" viewBox="0 0 48 48" fill="none" xmlns="http://www.w3.org/2000/svg">
<path d="M23.814 4.1029C20.502 4.1119 17.252 4.1269 14.146 4.1249C13.277 4.1249 12.58 4.8239 12.58 5.6929V42.5549C12.58 43.4239 13.277 44.1249 14.146 44.1249H33.852C34.721 44.1249 35.42 43.4239 35.42 42.5549V5.6929C35.42 4.8229 34.721 4.1249 33.852 4.1249C30.501 4.0929 27.127 4.0949 23.815 4.1029H23.814ZM14.58 4.6249H33.418C34.249 4.6249 34.92 5.3069 34.92 6.1549V42.0939C34.92 42.9409 34.25 43.6239 33.418 43.6239H14.58C13.749 43.6239 13.08 42.9409 13.08 42.0939V6.1539C13.08 5.3069 13.749 4.6239 14.58 4.6239V4.6249ZM19.992 5.1649C19.9627 5.16595 19.9349 5.17848 19.9147 5.19978C19.8945 5.22109 19.8835 5.24948 19.884 5.27883C19.8846 5.30818 19.8966 5.33616 19.9175 5.35673C19.9385 5.3773 19.9667 5.38883 19.996 5.38883C20.0254 5.38883 20.0536 5.3773 20.0745 5.35673C20.0954 5.33616 20.1075 5.30818 20.108 5.27883C20.1085 5.24948 20.0975 5.22109 20.0773 5.19978C20.0571 5.17848 20.0294 5.16595 20 5.1649H19.992ZM27.992 5.1649C27.9627 5.16595 27.9349 5.17848 27.9147 5.19978C27.8945 5.22109 27.8835 5.24948 27.884 5.27883C27.8846 5.30818 27.8966 5.33616 27.9175 5.35673C27.9385 5.3773 27.9667 5.38883 27.996 5.38883C28.0254 5.38883 28.0536 5.3773 28.0745 5.35673C28.0954 5.33616 28.1075 5.30818 28.108 5.27883C28.1085 5.24948 28.0975 5.22109 28.0773 5.19978C28.0571 5.17848 28.0294 5.16595 28 5.1649H27.992ZM19.992 5.7279C19.9772 5.72882 19.9628 5.73264 19.9495 5.73914C19.9362 5.74565 19.9243 5.7547 19.9145 5.7658C19.9047 5.7769 19.8972 5.78982 19.8924 5.80382C19.8876 5.81782 19.8856 5.83263 19.8865 5.8474C19.8874 5.86217 19.8913 5.87662 19.8978 5.88992C19.9043 5.90322 19.9133 5.9151 19.9244 5.9249C19.9355 5.9347 19.9484 5.94221 19.9624 5.94702C19.9764 5.95182 19.9912 5.95382 20.006 5.9529C20.0359 5.95104 20.0637 5.93741 20.0835 5.915C20.1033 5.89259 20.1134 5.86324 20.1115 5.8334C20.1097 5.80356 20.096 5.77569 20.0736 5.7559C20.0512 5.73612 20.0219 5.72604 19.992 5.7279ZM27.992 5.7279C27.9772 5.72882 27.9628 5.73264 27.9495 5.73914C27.9362 5.74565 27.9243 5.7547 27.9145 5.7658C27.9047 5.7769 27.8972 5.78982 27.8924 5.80382C27.8876 5.81782 27.8856 5.83263 27.8865 5.8474C27.8874 5.86217 27.8913 5.87662 27.8978 5.88992C27.9043 5.90322 27.9133 5.9151 27.9244 5.9249C27.9355 5.9347 27.9484 5.94221 27.9624 5.94702C27.9764 5.95182 27.9912 5.95382 28.006 5.9529C28.0359 5.95104 28.0637 5.93741 28.0835 5.915C28.1033 5.89259 28.1134 5.86324 28.1115 5.8334C28.1097 5.80356 28.096 5.77569 28.0736 5.7559C28.0512 5.73612 28.0219 5.72604 27.992 5.7279ZM19.982 6.2909C19.9609 6.29415 19.9411 6.3034 19.925 6.31755C19.9089 6.3317 19.8973 6.35017 19.8914 6.37075C19.8855 6.39134 19.8856 6.41318 19.8917 6.43369C19.8978 6.45421 19.9097 6.47253 19.926 6.4865C19.9422 6.50047 19.9621 6.50949 19.9833 6.51249C20.0045 6.5155 20.0261 6.51237 20.0456 6.50346C20.0651 6.49456 20.0816 6.48026 20.0932 6.46226C20.1048 6.44426 20.111 6.42331 20.111 6.4019C20.111 6.3409 20.061 6.2919 20 6.2909H19.982ZM27.982 6.2909C27.9609 6.29415 27.9411 6.3034 27.925 6.31755C27.9089 6.3317 27.8973 6.35017 27.8914 6.37075C27.8855 6.39134 27.8856 6.41318 27.8917 6.43369C27.8978 6.45421 27.9097 6.47253 27.926 6.4865C27.9422 6.50047 27.9621 6.50949 27.9833 6.51249C28.0045 6.5155 28.0261 6.51237 28.0456 6.50346C28.0651 6.49456 28.0816 6.48026 28.0932 6.46226C28.1048 6.44426 28.111 6.42331 28.111 6.4019C28.111 6.3409 28.061 6.2919 28 6.2909H27.982ZM24.859 6.3339V6.3359C24.7344 6.33784 24.6115 6.36437 24.4972 6.41397C24.3829 6.46356 24.2795 6.53525 24.193 6.6249L22.385 8.4819C22.2978 8.57083 22.2291 8.67612 22.1827 8.79171C22.1364 8.9073 22.1133 9.03091 22.1149 9.15544C22.1165 9.27996 22.1427 9.40295 22.1919 9.51733C22.2412 9.6317 22.3126 9.73521 22.402 9.8219C22.5825 9.99661 22.825 10.0926 23.0762 10.0889C23.3273 10.0851 23.5668 9.98192 23.742 9.8019L25.551 7.9429C25.6381 7.8539 25.7068 7.74857 25.7531 7.63294C25.7993 7.51732 25.8223 7.39369 25.8206 7.26916C25.819 7.14463 25.7927 7.02166 25.7433 6.90732C25.694 6.79298 25.6225 6.68953 25.533 6.6029C25.444 6.51568 25.3387 6.44692 25.223 6.40059C25.1073 6.35425 24.9836 6.33125 24.859 6.3329V6.3339ZM24.924 6.8159V6.8179H24.926C25.004 6.8219 25.086 6.8549 25.17 6.9239C25.576 7.2849 25.093 7.7089 24.918 7.8919L24.053 8.7969C23.445 9.4279 23.181 9.8549 22.758 9.4469C22.398 9.0739 22.718 8.8509 23.406 8.1519L24.272 7.2499C24.476 7.0499 24.688 6.8059 24.924 6.8159ZM20.002 6.8509C19.9872 6.85077 19.9726 6.85355 19.9589 6.85908C19.9452 6.86461 19.9327 6.87279 19.9222 6.88314C19.9116 6.8935 19.9032 6.90583 19.8975 6.91943C19.8917 6.93302 19.8886 6.94763 19.8885 6.9624C19.8884 6.97717 19.8912 6.99183 19.8967 7.00553C19.9022 7.01923 19.9104 7.0317 19.9208 7.04224C19.9311 7.05278 19.9434 7.06118 19.957 7.06696C19.9706 7.07273 19.9852 7.07577 20 7.0759C20.0299 7.07617 20.0586 7.06457 20.0799 7.04366C20.1011 7.02275 20.1133 6.99424 20.1135 6.9644C20.1138 6.93456 20.1022 6.90584 20.0813 6.88456C20.0604 6.86327 20.0319 6.85117 20.002 6.8509ZM28.002 6.8509C27.9872 6.85077 27.9726 6.85355 27.9589 6.85908C27.9452 6.86461 27.9327 6.87279 27.9222 6.88314C27.9116 6.8935 27.9032 6.90583 27.8975 6.91943C27.8917 6.93302 27.8886 6.94763 27.8885 6.9624C27.8884 6.97717 27.8912 6.99183 27.8967 7.00553C27.9022 7.01923 27.9104 7.0317 27.9208 7.04224C27.9311 7.05278 27.9434 7.06118 27.957 7.06696C27.9706 7.07273 27.9852 7.07577 28 7.0759C28.0299 7.07617 28.0586 7.06457 28.0799 7.04366C28.1011 7.02275 28.1133 6.99424 28.1135 6.9644C28.1138 6.93456 28.1022 6.90584 28.0813 6.88456C28.0604 6.86327 28.0319 6.85117 28.002 6.8509ZM19.992 7.4139C19.9634 7.41569 19.9365 7.42842 19.917 7.44944C19.8974 7.47047 19.8867 7.4982 19.887 7.5269C19.8873 7.5493 19.8942 7.57111 19.907 7.58951C19.9197 7.60792 19.9377 7.62207 19.9586 7.63015C19.9795 7.63822 20.0023 7.63985 20.0242 7.63482C20.046 7.62979 20.0658 7.61833 20.0811 7.60192C20.0963 7.58551 20.1063 7.56491 20.1097 7.54278C20.1131 7.52064 20.1098 7.49799 20.1002 7.47775C20.0906 7.4575 20.0752 7.4406 20.0559 7.42922C20.0366 7.41784 20.0144 7.4125 19.992 7.4139ZM27.992 7.4139C27.9634 7.41569 27.9365 7.42842 27.917 7.44944C27.8974 7.47047 27.8867 7.4982 27.887 7.5269C27.8873 7.5493 27.8942 7.57111 27.907 7.58951C27.9197 7.60792 27.9377 7.62207 27.9586 7.63015C27.9795 7.63822 28.0023 7.63985 28.0242 7.63482C28.046 7.62979 28.0658 7.61833 28.0811 7.60192C28.0963 7.58551 28.1063 7.56491 28.1097 7.54278C28.1131 7.52064 28.1098 7.49799 28.1002 7.47775C28.0906 7.4575 28.0752 7.4406 28.0559 7.42922C28.0366 7.41784 28.0144 7.4125 27.992 7.4139ZM19.992 7.9739C19.9627 7.97495 19.9349 7.98748 19.9147 8.00878C19.8945 8.03009 19.8835 8.05848 19.884 8.08783C19.8846 8.11718 19.8966 8.14516 19.9175 8.16573C19.9385 8.1863 19.9667 8.19783 19.996 8.19783C20.0254 8.19783 20.0536 8.1863 20.0745 8.16573C20.0954 8.14516 20.1075 8.11718 20.108 8.08783C20.1085 8.05848 20.0975 8.03009 20.0773 8.00878C20.0571 7.98748 20.0294 7.97495 20 7.9739H19.992ZM27.992 7.9739C27.9627 7.97495 27.9349 7.98748 27.9147 8.00878C27.8945 8.03009 27.8835 8.05848 27.884 8.08783C27.8846 8.11718 27.8966 8.14516 27.9175 8.16573C27.9385 8.1863 27.9667 8.19783 27.996 8.19783C28.0254 8.19783 28.0536 8.1863 28.0745 8.16573C28.0954 8.14516 28.1075 8.11718 28.108 8.08783C28.1085 8.05848 28.0975 8.03009 28.0773 8.00878C28.0571 7.98748 28.0294 7.97495 28 7.9739H27.992ZM19.992 8.5369C19.9627 8.53795 19.9349 8.55048 19.9147 8.57178C19.8945 8.59309 19.8835 8.62148 19.884 8.65083C19.8846 8.68018 19.8966 8.70816 19.9175 8.72873C19.9385 8.7493 19.9667 8.76083 19.996 8.76083C20.0254 8.76083 20.0536 8.7493 20.0745 8.72873C20.0954 8.70816 20.1075 8.68018 20.108 8.65083C20.1085 8.62148 20.0975 8.59309 20.0773 8.57178C20.0571 8.55048 20.0294 8.53795 20 8.5369H19.992ZM27.992 8.5369C27.9627 8.53795 27.9349 8.55048 27.9147 8.57178C27.8945 8.59309 27.8835 8.62148 27.884 8.65083C27.8846 8.68018 27.8966 8.70816 27.9175 8.72873C27.9385 8.7493 27.9667 8.76083 27.996 8.76083C28.0254 8.76083 28.0536 8.7493 28.0745 8.72873C28.0954 8.70816 28.1075 8.68018 28.108 8.65083C28.1085 8.62148 28.0975 8.59309 28.0773 8.57178C28.0571 8.55048 28.0294 8.53795 28 8.5369H27.992ZM17.5 8.7829V8.7849C17.3754 8.78692 17.2523 8.81358 17.138 8.86335C17.0237 8.91313 16.9204 8.98502 16.834 9.0749L15.025 10.9319C14.9379 11.0209 14.8692 11.1262 14.823 11.2419C14.7767 11.3575 14.7537 11.4811 14.7554 11.6056C14.7571 11.7302 14.7834 11.8531 14.8327 11.9675C14.8821 12.0818 14.9535 12.1853 15.043 12.2719C15.2234 12.4469 15.4659 12.543 15.7172 12.5393C15.9684 12.5355 16.2079 12.4322 16.383 12.2519L18.191 10.3919C18.2782 10.303 18.3469 10.1977 18.3933 10.0821C18.4397 9.96651 18.4627 9.84289 18.4611 9.71837C18.4595 9.59384 18.4334 9.47085 18.3841 9.35648C18.3348 9.2421 18.2634 9.13859 18.174 9.0519C18.0849 8.96486 17.9795 8.89629 17.8639 8.85012C17.7482 8.80396 17.6245 8.78111 17.5 8.7829ZM32.219 8.7829V8.7849C32.0944 8.78697 31.9714 8.81366 31.8571 8.86343C31.7428 8.9132 31.6394 8.98507 31.553 9.0749L29.744 10.9319C29.6569 11.0209 29.5882 11.1262 29.542 11.2419C29.4957 11.3575 29.4727 11.4811 29.4744 11.6056C29.4761 11.7302 29.5024 11.8531 29.5517 11.9675C29.6011 12.0818 29.6725 12.1853 29.762 12.2719C29.9424 12.4469 30.1849 12.543 30.4362 12.5393C30.6874 12.5355 30.9269 12.4322 31.102 12.2519L32.91 10.3919C32.9972 10.303 33.0659 10.1977 33.1123 10.0821C33.1587 9.96651 33.1817 9.84289 33.1801 9.71837C33.1785 9.59384 33.1524 9.47085 33.1031 9.35648C33.0538 9.2421 32.9824 9.13859 32.893 9.0519C32.8039 8.96486 32.6985 8.89629 32.5829 8.85012C32.4672 8.80396 32.3435 8.78111 32.219 8.7829ZM19.992 9.0999C19.9623 9.10176 19.9346 9.11534 19.9149 9.13765C19.8952 9.15997 19.8852 9.1892 19.887 9.2189C19.8889 9.24861 19.9025 9.27636 19.9248 9.29605C19.9471 9.31574 19.9763 9.32576 20.006 9.3239C20.0207 9.32298 20.0351 9.31917 20.0483 9.3127C20.0616 9.30622 20.0734 9.2972 20.0832 9.28615C20.0929 9.2751 20.1004 9.26223 20.1052 9.24829C20.11 9.23435 20.1119 9.21961 20.111 9.2049C20.1101 9.19019 20.1063 9.17581 20.0998 9.16257C20.0933 9.14934 20.0843 9.13751 20.0733 9.12776C20.0622 9.11801 20.0494 9.11053 20.0354 9.10575C20.0215 9.10097 20.0067 9.09898 19.992 9.0999ZM27.992 9.0999C27.9623 9.10176 27.9346 9.11534 27.9149 9.13765C27.8952 9.15997 27.8852 9.1892 27.887 9.2189C27.8889 9.24861 27.9025 9.27636 27.9248 9.29605C27.9471 9.31574 27.9763 9.32576 28.006 9.3239C28.0207 9.32298 28.0351 9.31917 28.0483 9.3127C28.0616 9.30622 28.0734 9.2972 28.0832 9.28615C28.0929 9.2751 28.1004 9.26223 28.1052 9.24829C28.11 9.23435 28.1119 9.21961 28.111 9.2049C28.1101 9.19019 28.1063 9.17581 28.0998 9.16257C28.0933 9.14934 28.0843 9.13751 28.0733 9.12776C28.0622 9.11801 28.0493 9.11053 28.0354 9.10575C28.0215 9.10097 28.0067 9.09898 27.992 9.0999ZM17.564 9.2659V9.2669H17.566C17.645 9.2709 17.726 9.3039 17.811 9.3729C18.217 9.7349 17.734 10.1579 17.559 10.3419L16.693 11.2459C16.086 11.8769 15.823 12.3039 15.398 11.8959C15.038 11.5229 15.358 11.2999 16.047 10.6009L16.912 9.6989C17.117 9.4989 17.329 9.2549 17.564 9.2659ZM32.284 9.2659V9.2669H32.285C32.363 9.2709 32.445 9.3039 32.529 9.3729C32.936 9.7349 32.452 10.1579 32.277 10.3419L31.412 11.2459C30.805 11.8769 30.541 12.3039 30.117 11.8959C29.757 11.5229 30.077 11.2999 30.766 10.6009L31.631 9.6989C31.836 9.4989 32.048 9.2549 32.283 9.2659H32.284ZM19.992 9.6619C19.9627 9.66295 19.9349 9.67548 19.9147 9.69678C19.8945 9.71809 19.8835 9.74648 19.884 9.77583C19.8846 9.80518 19.8966 9.83316 19.9175 9.85373C19.9385 9.8743 19.9667 9.88583 19.996 9.88583C20.0254 9.88583 20.0536 9.8743 20.0745 9.85373C20.0954 9.83316 20.1075 9.80518 20.108 9.77583C20.1085 9.74648 20.0975 9.71809 20.0773 9.69678C20.0571 9.67548 20.0294 9.66295 20 9.6619H19.992ZM27.992 9.6619C27.9627 9.66295 27.9349 9.67548 27.9147 9.69678C27.8945 9.71809 27.8835 9.74648 27.884 9.77583C27.8846 9.80518 27.8966 9.83316 27.9175 9.85373C27.9385 9.8743 27.9667 9.88583 27.996 9.88583C28.0254 9.88583 28.0536 9.8743 28.0745 9.85373C28.0954 9.83316 28.1075 9.80518 28.108 9.77583C28.1085 9.74648 28.0975 9.71809 28.0773 9.69678C28.0571 9.67548 28.0294 9.66295 28 9.6619H27.992ZM19.98 10.2249C19.9536 10.2296 19.9298 10.2436 19.9128 10.2643C19.8957 10.285 19.8866 10.3111 19.887 10.3379C19.8849 10.3539 19.8862 10.3701 19.8908 10.3855C19.8955 10.4009 19.9034 10.4152 19.914 10.4273C19.9246 10.4394 19.9377 10.4491 19.9523 10.4558C19.967 10.4625 19.9829 10.4659 19.999 10.4659C20.0151 10.4659 20.031 10.4625 20.0457 10.4558C20.0604 10.4491 20.0735 10.4394 20.0841 10.4273C20.0947 10.4152 20.1026 10.4009 20.1072 10.3855C20.1119 10.3701 20.1132 10.3539 20.111 10.3379C20.1108 10.3084 20.0991 10.2801 20.0783 10.259C20.0576 10.2379 20.0296 10.2257 20 10.2249H19.98ZM27.98 10.2249C27.9536 10.2296 27.9298 10.2436 27.9128 10.2643C27.8957 10.285 27.8866 10.3111 27.887 10.3379C27.8849 10.3539 27.8862 10.3701 27.8908 10.3855C27.8955 10.4009 27.9034 10.4152 27.914 10.4273C27.9246 10.4394 27.9377 10.4491 27.9523 10.4558C27.967 10.4625 27.9829 10.4659 27.999 10.4659C28.0151 10.4659 28.031 10.4625 28.0457 10.4558C28.0604 10.4491 28.0735 10.4394 28.0841 10.4273C28.0947 10.4152 28.1026 10.4009 28.1072 10.3855C28.1119 10.3701 28.1132 10.3539 28.111 10.3379C28.1108 10.3084 28.0991 10.2801 28.0783 10.259C28.0576 10.2379 28.0296 10.2257 28 10.2249H27.98ZM20.002 10.7849C19.987 10.785 19.9722 10.7881 19.9585 10.794C19.9447 10.7998 19.9322 10.8083 19.9217 10.819C19.9112 10.8297 19.9029 10.8423 19.8973 10.8562C19.8917 10.8701 19.8889 10.8849 19.889 10.8999C19.889 10.9619 19.939 11.0099 20.002 11.0099C20.0165 11.01 20.031 11.0073 20.0444 11.0018C20.0579 10.9963 20.0701 10.9883 20.0804 10.978C20.0908 10.9678 20.099 10.9556 20.1045 10.9422C20.1101 10.9288 20.113 10.9144 20.113 10.8999C20.1133 10.87 20.1018 10.8412 20.081 10.8197C20.0603 10.7982 20.0319 10.7857 20.002 10.7849ZM28.002 10.7849C27.987 10.785 27.9722 10.7881 27.9585 10.794C27.9447 10.7998 27.9322 10.8083 27.9217 10.819C27.9112 10.8297 27.9029 10.8423 27.8973 10.8562C27.8917 10.8701 27.8889 10.8849 27.889 10.8999C27.889 10.9619 27.939 11.0099 28.002 11.0099C28.0165 11.01 28.031 11.0073 28.0444 11.0018C28.0579 10.9963 28.0701 10.9883 28.0804 10.978C28.0908 10.9678 28.099 10.9556 28.1045 10.9422C28.1101 10.9288 28.113 10.9144 28.113 10.8999C28.1133 10.87 28.1018 10.8412 28.081 10.8197C28.0603 10.7982 28.0319 10.7857 28.002 10.7849ZM20.002 11.3479C19.9873 11.3478 19.9727 11.3505 19.9591 11.356C19.9454 11.3616 19.933 11.3697 19.9225 11.38C19.912 11.3903 19.9037 11.4026 19.8979 11.4161C19.8922 11.4297 19.8891 11.4442 19.889 11.4589C19.8889 11.4736 19.8917 11.4882 19.8972 11.5018C19.9027 11.5155 19.9108 11.5279 19.9211 11.5384C19.9314 11.5489 19.9437 11.5572 19.9572 11.563C19.9708 11.5687 19.9853 11.5718 20 11.5719C20.0297 11.5722 20.0583 11.5606 20.0795 11.5398C20.1007 11.519 20.1128 11.4906 20.113 11.4609C20.1133 11.4312 20.1017 11.4026 20.0809 11.3814C20.0601 11.3602 20.0317 11.3482 20.002 11.3479ZM28.002 11.3479C27.9873 11.3478 27.9727 11.3505 27.9591 11.356C27.9454 11.3616 27.933 11.3697 27.9225 11.38C27.912 11.3903 27.9037 11.4026 27.8979 11.4161C27.8922 11.4297 27.8891 11.4442 27.889 11.4589C27.8889 11.4736 27.8917 11.4882 27.8972 11.5018C27.9027 11.5155 27.9108 11.5279 27.9211 11.5384C27.9314 11.5489 27.9437 11.5572 27.9572 11.563C27.9708 11.5687 27.9853 11.5718 28 11.5719C28.0297 11.5722 28.0583 11.5606 28.0795 11.5398C28.1007 11.519 28.1128 11.4906 28.113 11.4609C28.1133 11.4312 28.1017 11.4026 28.0809 11.3814C28.0601 11.3602 28.0317 11.3482 28.002 11.3479ZM24.859 11.5939V11.5959C24.7344 11.5978 24.6115 11.6243 24.4972 11.6739C24.3829 11.7235 24.2795 11.7952 24.193 11.8849L22.385 13.7419C22.2978 13.8308 22.2291 13.9361 22.1827 14.0517C22.1364 14.1673 22.1133 14.2909 22.1149 14.4154C22.1165 14.54 22.1427 14.6629 22.1919 14.7773C22.2412 14.8917 22.3126 14.9952 22.402 15.0819C22.5825 15.2566 22.825 15.3526 23.0762 15.3489C23.3273 15.3451 23.5668 15.2419 23.742 15.0619L25.551 13.2029C25.6834 13.0693 25.773 12.8991 25.8081 12.7143C25.8433 12.5295 25.8225 12.3384 25.7484 12.1655C25.6743 11.9925 25.5502 11.8457 25.3921 11.7437C25.2341 11.6417 25.0491 11.5892 24.861 11.5929H24.859V11.5939ZM19.992 11.9099C19.9637 11.9134 19.9377 11.9273 19.9192 11.949C19.9007 11.9707 19.891 11.9986 19.892 12.0271C19.893 12.0556 19.9046 12.0827 19.9246 12.103C19.9446 12.1233 19.9715 12.1354 20 12.1369C20.061 12.1369 20.11 12.0849 20.111 12.0229C20.1112 12.0075 20.1082 11.9922 20.1022 11.978C20.0962 11.9639 20.0873 11.9511 20.0761 11.9405C20.065 11.9299 20.0517 11.9217 20.0373 11.9164C20.0228 11.9112 20.0074 11.9089 19.992 11.9099ZM27.992 11.9099C27.9637 11.9134 27.9377 11.9273 27.9192 11.949C27.9007 11.9707 27.891 11.9986 27.892 12.0271C27.893 12.0556 27.9046 12.0827 27.9246 12.103C27.9446 12.1233 27.9715 12.1354 28 12.1369C28.061 12.1369 28.11 12.0849 28.111 12.0229C28.1112 12.0075 28.1082 11.9922 28.1022 11.978C28.0962 11.9639 28.0873 11.9511 28.0761 11.9405C28.065 11.9299 28.0517 11.9217 28.0373 11.9164C28.0228 11.9112 28.0074 11.9089 27.992 11.9099ZM24.924 12.0759V12.0779C25.0152 12.0863 25.1013 12.1234 25.17 12.1839C25.576 12.5449 25.093 12.9689 24.918 13.1519L24.053 14.0569C23.445 14.6869 23.181 15.1149 22.758 14.7069C22.398 14.3339 22.716 14.1109 23.404 13.4119L24.27 12.5079C24.475 12.3069 24.688 12.0649 24.924 12.0759ZM19.992 12.4719C19.9618 12.473 19.9332 12.486 19.9126 12.5081C19.8919 12.5302 19.881 12.5597 19.882 12.5899C19.8831 12.6201 19.8961 12.6487 19.9182 12.6693C19.9404 12.69 19.9698 12.701 20 12.6999C20.061 12.6999 20.11 12.6479 20.111 12.5869C20.1113 12.5721 20.1086 12.5574 20.1032 12.5437C20.0977 12.5299 20.0896 12.5174 20.0793 12.5068C20.069 12.4962 20.0566 12.4877 20.043 12.4819C20.0294 12.4761 20.0148 12.473 20 12.4729H19.992V12.4719ZM27.992 12.4719C27.9618 12.473 27.9332 12.486 27.9126 12.5081C27.8919 12.5302 27.881 12.5597 27.882 12.5899C27.8831 12.6201 27.8961 12.6487 27.9182 12.6693C27.9404 12.69 27.9698 12.701 28 12.6999C28.061 12.6999 28.11 12.6479 28.111 12.5869C28.1113 12.5721 28.1086 12.5574 28.1032 12.5437C28.0977 12.5299 28.0896 12.5174 28.0793 12.5068C28.069 12.4962 28.0566 12.4877 28.043 12.4819C28.0294 12.4761 28.0148 12.473 28 12.4729H27.992V12.4719ZM19.992 13.0349C19.9699 13.0363 19.9487 13.0441 19.9311 13.0574C19.9134 13.0707 19.9 13.0889 19.8926 13.1098C19.8852 13.1306 19.884 13.1532 19.8893 13.1747C19.8946 13.1961 19.9061 13.2156 19.9223 13.2306C19.9385 13.2457 19.9588 13.2556 19.9807 13.2592C20.0025 13.2628 20.0249 13.2599 20.0451 13.2509C20.0653 13.2418 20.0824 13.2271 20.0943 13.2084C20.1062 13.1898 20.1124 13.168 20.112 13.1459C20.111 13.0859 20.062 13.0359 20 13.0349H19.992ZM27.992 13.0349C27.9699 13.0363 27.9487 13.0441 27.9311 13.0574C27.9134 13.0707 27.9 13.0889 27.8926 13.1098C27.8852 13.1306 27.884 13.1532 27.8893 13.1747C27.8946 13.1961 27.9061 13.2156 27.9223 13.2306C27.9385 13.2457 27.9588 13.2556 27.9807 13.2592C28.0025 13.2628 28.0249 13.2599 28.0451 13.2509C28.0653 13.2418 28.0824 13.2271 28.0943 13.2084C28.1062 13.1898 28.1124 13.168 28.112 13.1459C28.111 13.0859 28.062 13.0359 28 13.0349H27.992ZM19.992 13.5979C19.9627 13.5989 19.9349 13.6115 19.9147 13.6328C19.8945 13.6541 19.8835 13.6825 19.884 13.7118C19.8846 13.7412 19.8966 13.7692 19.9175 13.7897C19.9385 13.8103 19.9667 13.8218 19.996 13.8218C20.0254 13.8218 20.0536 13.8103 20.0745 13.7897C20.0954 13.7692 20.1075 13.7412 20.108 13.7118C20.1085 13.6825 20.0975 13.6541 20.0773 13.6328C20.0571 13.6115 20.0294 13.5989 20 13.5979H19.992ZM27.992 13.5979C27.9627 13.5989 27.9349 13.6115 27.9147 13.6328C27.8945 13.6541 27.8835 13.6825 27.884 13.7118C27.8846 13.7412 27.8966 13.7692 27.9175 13.7897C27.9385 13.8103 27.9667 13.8218 27.996 13.8218C28.0254 13.8218 28.0536 13.8103 28.0745 13.7897C28.0954 13.7692 28.1075 13.7412 28.108 13.7118C28.1085 13.6825 28.0975 13.6541 28.0773 13.6328C28.0571 13.6115 28.0294 13.5989 28 13.5979H27.992ZM17.5 14.0429V14.0449C17.3754 14.0468 17.2525 14.0733 17.1382 14.1229C17.0239 14.1725 16.9205 14.2442 16.834 14.3339L15.025 16.1909C14.9379 16.2799 14.8692 16.3852 14.823 16.5009C14.7767 16.6165 14.7537 16.7401 14.7554 16.8646C14.7571 16.9892 14.7834 17.1121 14.8327 17.2265C14.8821 17.3408 14.9535 17.4443 15.043 17.5309C15.2234 17.7059 15.4659 17.802 15.7172 17.7983C15.9684 17.7945 16.2079 17.6912 16.383 17.5109L18.191 15.6519C18.3234 15.5183 18.4129 15.3483 18.4481 15.1636C18.4833 14.9788 18.4625 14.7878 18.3886 14.6149C18.3146 14.4421 18.1907 14.2952 18.0328 14.1931C17.8748 14.091 17.69 14.0384 17.502 14.0419H17.5V14.0429ZM32.219 14.0429V14.0449C32.0944 14.0468 31.9715 14.0734 31.8572 14.123C31.7429 14.1726 31.6395 14.2442 31.553 14.3339L29.744 16.1909C29.6569 16.2799 29.5882 16.3852 29.542 16.5009C29.4957 16.6165 29.4727 16.7401 29.4744 16.8646C29.4761 16.9892 29.5024 17.1121 29.5517 17.2265C29.6011 17.3408 29.6725 17.4443 29.762 17.5309C29.9424 17.7059 30.1849 17.802 30.4362 17.7983C30.6874 17.7945 30.9269 17.6912 31.102 17.5109L32.91 15.6519C33.0424 15.5183 33.132 15.3481 33.1671 15.1633C33.2023 14.9785 33.1815 14.7874 33.1074 14.6145C33.0333 14.4415 32.9092 14.2947 32.7511 14.1927C32.5931 14.0907 32.4081 14.0382 32.22 14.0419H32.219V14.0429ZM19.992 14.1599C19.9773 14.1608 19.9629 14.1646 19.9497 14.1711C19.9365 14.1776 19.9246 14.1866 19.9149 14.1977C19.9051 14.2087 19.8976 14.2216 19.8929 14.2355C19.8881 14.2494 19.8861 14.2642 19.887 14.2789C19.8879 14.2936 19.8917 14.308 19.8982 14.3212C19.9047 14.3345 19.9137 14.3463 19.9248 14.356C19.9358 14.3658 19.9487 14.3733 19.9626 14.3781C19.9766 14.3828 19.9913 14.3848 20.006 14.3839C20.0357 14.382 20.0635 14.3685 20.0832 14.3461C20.1029 14.3238 20.1129 14.2946 20.111 14.2649C20.1092 14.2352 20.0956 14.2074 20.0733 14.1878C20.0509 14.1681 20.0217 14.158 19.992 14.1599ZM27.992 14.1599C27.9773 14.1608 27.9629 14.1646 27.9497 14.1711C27.9365 14.1776 27.9246 14.1866 27.9149 14.1977C27.9051 14.2087 27.8976 14.2216 27.8929 14.2355C27.8881 14.2494 27.8861 14.2642 27.887 14.2789C27.8879 14.2936 27.8917 14.308 27.8982 14.3212C27.9047 14.3345 27.9137 14.3463 27.9248 14.356C27.9358 14.3658 27.9487 14.3733 27.9626 14.3781C27.9766 14.3828 27.9913 14.3848 28.006 14.3839C28.0357 14.382 28.0635 14.3685 28.0832 14.3461C28.1029 14.3238 28.1129 14.2946 28.111 14.2649C28.1092 14.2352 28.0956 14.2074 28.0733 14.1878C28.0509 14.1681 28.0217 14.158 27.992 14.1599ZM17.564 14.5249V14.5269C17.6555 14.535 17.7421 14.5721 17.811 14.6329C18.217 14.9939 17.734 15.4179 17.559 15.6019L16.693 16.5059C16.086 17.1369 15.823 17.5639 15.398 17.1559C15.038 16.7829 15.357 16.5599 16.045 15.8609L16.91 14.9569C17.116 14.7559 17.328 14.5139 17.564 14.5249ZM32.284 14.5249V14.5269C32.3748 14.5355 32.4606 14.5726 32.529 14.6329C32.936 14.9939 32.452 15.4179 32.277 15.6019L31.412 16.5059C30.805 17.1369 30.541 17.5639 30.117 17.1559C29.757 16.7829 30.075 16.5599 30.764 15.8609L31.629 14.9569C31.834 14.7559 32.047 14.5139 32.283 14.5249H32.284ZM19.981 14.7219C19.9544 14.726 19.9303 14.7396 19.913 14.7602C19.8957 14.7808 19.8865 14.807 19.887 14.8339C19.8868 14.857 19.8937 14.8795 19.9068 14.8986C19.9198 14.9176 19.9383 14.9322 19.9599 14.9404C19.9815 14.9486 20.005 14.95 20.0274 14.9444C20.0498 14.9388 20.0699 14.9265 20.0851 14.9091C20.1003 14.8917 20.1098 14.8701 20.1123 14.8472C20.1149 14.8243 20.1103 14.8011 20.0993 14.7809C20.0883 14.7606 20.0714 14.7442 20.0508 14.7338C20.0301 14.7234 20.0069 14.7196 19.984 14.7229H19.98L19.981 14.7219ZM27.981 14.7219C27.9544 14.726 27.9303 14.7396 27.913 14.7602C27.8957 14.7808 27.8865 14.807 27.887 14.8339C27.8868 14.857 27.8937 14.8795 27.9068 14.8986C27.9198 14.9176 27.9383 14.9322 27.9599 14.9404C27.9815 14.9486 28.005 14.95 28.0274 14.9444C28.0498 14.9388 28.0699 14.9265 28.0851 14.9091C28.1003 14.8917 28.1098 14.8701 28.1123 14.8472C28.1149 14.8243 28.1103 14.8011 28.0993 14.7809C28.0883 14.7606 28.0714 14.7442 28.0508 14.7338C28.0301 14.7234 28.0069 14.7196 27.984 14.7229H27.98L27.981 14.7219ZM19.981 15.2849C19.9599 15.2883 19.9403 15.2977 19.9243 15.312C19.9084 15.3262 19.8969 15.3447 19.8912 15.3653C19.8854 15.3859 19.8857 15.4076 19.8919 15.4281C19.8981 15.4485 19.91 15.4667 19.9263 15.4806C19.9425 15.4945 19.9624 15.5034 19.9836 15.5064C20.0047 15.5093 20.0263 15.5062 20.0457 15.4972C20.0651 15.4883 20.0816 15.4741 20.0932 15.4561C20.1047 15.4382 20.1109 15.4173 20.111 15.3959C20.111 15.3359 20.061 15.2859 20 15.2849H19.98H19.981ZM27.981 15.2849C27.9599 15.2883 27.9403 15.2977 27.9243 15.312C27.9084 15.3262 27.8969 15.3447 27.8912 15.3653C27.8854 15.3859 27.8857 15.4076 27.8919 15.4281C27.8981 15.4485 27.91 15.4667 27.9263 15.4806C27.9425 15.4945 27.9624 15.5034 27.9836 15.5064C28.0047 15.5093 28.0263 15.5062 28.0457 15.4972C28.0651 15.4883 28.0816 15.4741 28.0932 15.4561C28.1047 15.4382 28.1109 15.4173 28.111 15.3959C28.111 15.3359 28.061 15.2859 28 15.2849H27.98H27.981ZM20.002 15.8449C19.9722 15.8446 19.9435 15.8562 19.9222 15.8771C19.9009 15.8981 19.8888 15.9266 19.8885 15.9564C19.8883 15.9862 19.8999 16.015 19.9208 16.0362C19.9417 16.0575 19.9702 16.0696 20 16.0699C20.0297 16.0702 20.0583 16.0586 20.0795 16.0378C20.1007 16.017 20.1128 15.9886 20.113 15.9589C20.1133 15.9292 20.1017 15.9006 20.0809 15.8794C20.0601 15.8582 20.0317 15.8462 20.002 15.8459V15.8449ZM28.002 15.8449C27.9722 15.8446 27.9435 15.8562 27.9222 15.8771C27.9009 15.8981 27.8888 15.9266 27.8885 15.9564C27.8883 15.9862 27.8999 16.015 27.9208 16.0362C27.9417 16.0575 27.9702 16.0696 28 16.0699C28.0297 16.0702 28.0583 16.0586 28.0795 16.0378C28.1007 16.017 28.1128 15.9886 28.113 15.9589C28.1133 15.9292 28.1017 15.9006 28.0809 15.8794C28.0601 15.8582 28.0317 15.8462 28.002 15.8459V15.8449ZM19.992 16.4079C19.9634 16.4097 19.9365 16.4224 19.917 16.4434C19.8974 16.4645 19.8867 16.4922 19.887 16.5209C19.887 16.5829 19.937 16.6339 20 16.6329C20.0148 16.6324 20.0293 16.6289 20.0428 16.6228C20.0562 16.6167 20.0683 16.6079 20.0784 16.5971C20.0885 16.5863 20.0963 16.5736 20.1015 16.5598C20.1067 16.5459 20.109 16.5312 20.1085 16.5164C20.108 16.5016 20.1046 16.4871 20.0984 16.4737C20.0923 16.4602 20.0836 16.4481 20.0727 16.438C20.0619 16.4279 20.0492 16.4201 20.0354 16.4149C20.0215 16.4098 20.0068 16.4074 19.992 16.4079ZM27.992 16.4079C27.9634 16.4097 27.9365 16.4224 27.917 16.4434C27.8974 16.4645 27.8867 16.4922 27.887 16.5209C27.887 16.5829 27.937 16.6339 28 16.6329C28.0148 16.6324 28.0293 16.6289 28.0428 16.6228C28.0562 16.6167 28.0683 16.6079 28.0784 16.5971C28.0885 16.5863 28.0963 16.5736 28.1015 16.5598C28.1067 16.5459 28.109 16.5312 28.1085 16.5164C28.108 16.5016 28.1046 16.4871 28.0984 16.4737C28.0923 16.4602 28.0836 16.4481 28.0727 16.438C28.0619 16.4279 28.0492 16.4201 28.0354 16.4149C28.0215 16.4098 28.0068 16.4074 27.992 16.4079ZM24.862 16.8519V16.8529C24.7372 16.8548 24.614 16.8814 24.4995 16.9312C24.385 16.9809 24.2815 17.0529 24.195 17.1429L22.387 18.9999C22.2958 19.088 22.2233 19.1936 22.1737 19.3103C22.1241 19.427 22.0984 19.5525 22.0982 19.6793C22.098 19.8061 22.1233 19.9317 22.1726 20.0485C22.2218 20.1654 22.294 20.2712 22.3849 20.3596C22.4758 20.448 22.5835 20.5173 22.7017 20.5633C22.8199 20.6093 22.9461 20.6311 23.0729 20.6274C23.1996 20.6237 23.3243 20.5945 23.4396 20.5417C23.5549 20.4889 23.6584 20.4135 23.744 20.3199L25.553 18.4599C25.64 18.3709 25.7085 18.2656 25.7547 18.1501C25.8009 18.0346 25.8238 17.9111 25.8221 17.7867C25.8204 17.6623 25.7942 17.5394 25.745 17.4252C25.6957 17.3109 25.6243 17.2075 25.535 17.1209C25.446 17.0337 25.3406 16.965 25.225 16.9187C25.1093 16.8723 24.9856 16.8493 24.861 16.8509L24.862 16.8519ZM19.992 16.9709C19.9634 16.9727 19.9365 16.9854 19.917 17.0064C19.8974 17.0275 19.8867 17.0552 19.887 17.0839C19.887 17.1459 19.937 17.1959 20 17.1949C20.0148 17.1944 20.0293 17.1909 20.0428 17.1848C20.0562 17.1787 20.0683 17.1699 20.0784 17.1591C20.0885 17.1483 20.0963 17.1356 20.1015 17.1218C20.1067 17.1079 20.109 17.0932 20.1085 17.0784C20.108 17.0636 20.1046 17.0491 20.0984 17.0357C20.0923 17.0222 20.0836 17.0101 20.0727 17C20.0619 16.9899 20.0492 16.9821 20.0354 16.9769C20.0215 16.9718 20.0068 16.9694 19.992 16.9699V16.9709ZM27.992 16.9709C27.9634 16.9727 27.9365 16.9854 27.917 17.0064C27.8974 17.0275 27.8867 17.0552 27.887 17.0839C27.887 17.1459 27.937 17.1959 28 17.1949C28.0148 17.1944 28.0293 17.1909 28.0428 17.1848C28.0562 17.1787 28.0683 17.1699 28.0784 17.1591C28.0885 17.1483 28.0963 17.1356 28.1015 17.1218C28.1067 17.1079 28.109 17.0932 28.1085 17.0784C28.108 17.0636 28.1046 17.0491 28.0984 17.0357C28.0923 17.0222 28.0836 17.0101 28.0727 17C28.0619 16.9899 28.0492 16.9821 28.0354 16.9769C28.0215 16.9718 28.0068 16.9694 27.992 16.9699V16.9709ZM24.926 17.3339V17.3379C25.005 17.3419 25.086 17.3759 25.17 17.4429C25.576 17.8049 25.095 18.2249 24.92 18.4079L24.055 19.3139C23.447 19.9459 23.183 20.3719 22.76 19.9639C22.4 19.5909 22.718 19.3689 23.406 18.6699L24.272 17.7669C24.477 17.5669 24.69 17.3219 24.926 17.3339ZM19.992 17.5339C19.9766 17.5338 19.9614 17.5368 19.9473 17.5428C19.9331 17.5489 19.9204 17.5577 19.9098 17.5689C19.8992 17.5801 19.8911 17.5933 19.8858 17.6077C19.8806 17.6222 19.8784 17.6376 19.8793 17.6529C19.8803 17.6683 19.8844 17.6832 19.8914 17.6969C19.8984 17.7106 19.9082 17.7227 19.9201 17.7325C19.9319 17.7422 19.9457 17.7494 19.9605 17.7536C19.9753 17.7578 19.9908 17.7589 20.006 17.7569C20.0357 17.755 20.0635 17.7415 20.0832 17.7191C20.1029 17.6968 20.1129 17.6676 20.111 17.6379C20.1092 17.6082 20.0956 17.5804 20.0733 17.5608C20.0509 17.5411 20.0217 17.531 19.992 17.5329V17.5339ZM27.992 17.5339C27.9766 17.5338 27.9614 17.5368 27.9473 17.5428C27.9331 17.5489 27.9204 17.5577 27.9098 17.5689C27.8992 17.5801 27.8911 17.5933 27.8858 17.6077C27.8806 17.6222 27.8784 17.6376 27.8793 17.6529C27.8803 17.6683 27.8844 17.6832 27.8914 17.6969C27.8984 17.7106 27.9082 17.7227 27.9201 17.7325C27.9319 17.7422 27.9457 17.7494 27.9605 17.7536C27.9753 17.7578 27.9908 17.7589 28.006 17.7569C28.0357 17.755 28.0635 17.7415 28.0832 17.7191C28.1029 17.6968 28.1129 17.6676 28.111 17.6379C28.1092 17.6082 28.0956 17.5804 28.0733 17.5608C28.0509 17.5411 28.0217 17.531 27.992 17.5329V17.5339ZM19.992 18.0959C19.9773 18.0968 19.9629 18.1006 19.9497 18.1071C19.9365 18.1136 19.9246 18.1226 19.9149 18.1337C19.9051 18.1447 19.8976 18.1576 19.8929 18.1715C19.8881 18.1854 19.8861 18.2002 19.887 18.2149C19.8879 18.2296 19.8917 18.244 19.8982 18.2572C19.9047 18.2705 19.9137 18.2823 19.9248 18.292C19.9358 18.3018 19.9487 18.3093 19.9626 18.3141C19.9766 18.3188 19.9913 18.3208 20.006 18.3199C20.0357 18.318 20.0635 18.3045 20.0832 18.2821C20.1029 18.2598 20.1129 18.2306 20.111 18.2009C20.1092 18.1712 20.0956 18.1434 20.0733 18.1238C20.0509 18.1041 20.0217 18.094 19.992 18.0959ZM27.992 18.0959C27.9773 18.0968 27.9629 18.1006 27.9497 18.1071C27.9365 18.1136 27.9246 18.1226 27.9149 18.1337C27.9051 18.1447 27.8976 18.1576 27.8929 18.1715C27.8881 18.1854 27.8861 18.2002 27.887 18.2149C27.8879 18.2296 27.8917 18.244 27.8982 18.2572C27.9047 18.2705 27.9137 18.2823 27.9248 18.292C27.9358 18.3018 27.9487 18.3093 27.9626 18.3141C27.9766 18.3188 27.9913 18.3208 28.006 18.3199C28.0357 18.318 28.0635 18.3045 28.0832 18.2821C28.1029 18.2598 28.1129 18.2306 28.111 18.2009C28.1092 18.1712 28.0956 18.1434 28.0733 18.1238C28.0509 18.1041 28.0217 18.094 27.992 18.0959ZM19.992 18.6579C19.964 18.6614 19.9382 18.6752 19.9199 18.6967C19.9015 18.7182 19.8919 18.7458 19.8929 18.7741C19.8939 18.8023 19.9055 18.8292 19.9253 18.8493C19.9451 18.8695 19.9718 18.8814 20 18.8829C20.0148 18.8824 20.0293 18.8789 20.0428 18.8728C20.0562 18.8667 20.0683 18.8579 20.0784 18.8471C20.0885 18.8363 20.0963 18.8236 20.1015 18.8098C20.1067 18.7959 20.109 18.7812 20.1085 18.7664C20.108 18.7516 20.1046 18.7371 20.0984 18.7237C20.0923 18.7102 20.0836 18.6981 20.0727 18.688C20.0619 18.6779 20.0492 18.6701 20.0354 18.6649C20.0215 18.6598 20.0068 18.6574 19.992 18.6579ZM27.992 18.6579C27.964 18.6614 27.9382 18.6752 27.9199 18.6967C27.9015 18.7182 27.8919 18.7458 27.8929 18.7741C27.8939 18.8023 27.9055 18.8292 27.9253 18.8493C27.9451 18.8695 27.9718 18.8814 28 18.8829C28.0148 18.8824 28.0293 18.8789 28.0428 18.8728C28.0562 18.8667 28.0683 18.8579 28.0784 18.8471C28.0885 18.8363 28.0963 18.8236 28.1015 18.8098C28.1067 18.7959 28.109 18.7812 28.1085 18.7664C28.108 18.7516 28.1046 18.7371 28.0984 18.7237C28.0923 18.7102 28.0836 18.6981 28.0727 18.688C28.0619 18.6779 28.0492 18.6701 28.0354 18.6649C28.0215 18.6598 28.0068 18.6574 27.992 18.6579ZM19.98 19.2209C19.954 19.2252 19.9303 19.2386 19.9133 19.2588C19.8962 19.2789 19.8869 19.3045 19.887 19.3309C19.8866 19.3531 19.8928 19.3749 19.9048 19.3936C19.9169 19.4122 19.9342 19.4269 19.9545 19.4357C19.9749 19.4445 19.9974 19.4471 20.0192 19.4431C20.0411 19.439 20.0612 19.4286 20.0771 19.4132C20.093 19.3977 20.104 19.3778 20.1086 19.3561C20.1132 19.3344 20.1112 19.3118 20.103 19.2912C20.0947 19.2706 20.0805 19.2529 20.0622 19.2404C20.0438 19.2279 20.0222 19.2211 20 19.2209H19.98ZM27.98 19.2209C27.954 19.2252 27.9303 19.2386 27.9133 19.2588C27.8962 19.2789 27.8869 19.3045 27.887 19.3309C27.8866 19.3531 27.8928 19.3749 27.9048 19.3936C27.9169 19.4122 27.9342 19.4269 27.9545 19.4357C27.9749 19.4445 27.9974 19.4471 28.0192 19.4431C28.0411 19.439 28.0612 19.4286 28.0771 19.4132C28.093 19.3977 28.104 19.3778 28.1086 19.3561C28.1132 19.3344 28.1112 19.3118 28.103 19.2912C28.0947 19.2706 28.0805 19.2529 28.0622 19.2404C28.0438 19.2279 28.0222 19.2211 28 19.2209H27.98ZM17.502 19.3009V19.3029C17.3774 19.3048 17.2545 19.3314 17.1402 19.381C17.0259 19.4306 16.9225 19.5022 16.836 19.5919L15.027 21.4489C14.9403 21.538 14.8721 21.6433 14.8261 21.7588C14.7801 21.8743 14.7573 21.9977 14.7591 22.122C14.7608 22.2463 14.787 22.369 14.8361 22.4832C14.8853 22.5974 14.9564 22.7007 15.0455 22.7874C15.1346 22.8741 15.2399 22.9423 15.3554 22.9883C15.4709 23.0343 15.5943 23.0571 15.7186 23.0554C15.8429 23.0536 15.9656 23.0275 16.0798 22.9783C16.194 22.9292 16.2973 22.858 16.384 22.7689L18.194 20.9099C18.2811 20.8209 18.3498 20.7156 18.3961 20.5999C18.4423 20.4843 18.4653 20.3607 18.4636 20.2362C18.462 20.1116 18.4357 19.9887 18.3863 19.8743C18.337 19.76 18.2655 19.6565 18.176 19.5699C18.087 19.4827 17.9817 19.4139 17.866 19.3676C17.7503 19.3212 17.6266 19.2982 17.502 19.2999V19.3009ZM32.221 19.3009V19.3029C32.0964 19.3048 31.9735 19.3313 31.8592 19.3809C31.7449 19.4305 31.6415 19.5022 31.555 19.5919L29.746 21.4489C29.6593 21.538 29.5911 21.6433 29.5451 21.7588C29.4991 21.8743 29.4763 21.9977 29.4781 22.122C29.4798 22.2463 29.506 22.369 29.5551 22.4832C29.6043 22.5974 29.6754 22.7007 29.7645 22.7874C29.8536 22.8741 29.9589 22.9423 30.0744 22.9883C30.1899 23.0343 30.3133 23.0571 30.4376 23.0554C30.5619 23.0536 30.6846 23.0275 30.7988 22.9783C30.913 22.9292 31.0163 22.858 31.103 22.7689L32.913 20.9099C33.0001 20.8209 33.0688 20.7156 33.1151 20.5999C33.1613 20.4843 33.1843 20.3607 33.1826 20.2362C33.181 20.1116 33.1547 19.9887 33.1053 19.8743C33.056 19.76 32.9845 19.6565 32.895 19.5699C32.806 19.4827 32.7007 19.4139 32.585 19.3676C32.4693 19.3212 32.3456 19.2982 32.221 19.2999V19.3009ZM20.002 19.7809C19.9722 19.7806 19.9435 19.7922 19.9222 19.8131C19.9009 19.8341 19.8888 19.8626 19.8885 19.8924C19.8883 19.9222 19.8999 19.951 19.9208 19.9722C19.9417 19.9935 19.9702 20.0056 20 20.0059C20.0148 20.006 20.0294 20.0033 20.0431 19.9977C20.0568 19.9922 20.0693 19.984 20.0799 19.9737C20.0904 19.9633 20.0988 19.951 20.1046 19.9374C20.1103 19.9238 20.1134 19.9092 20.1135 19.8944C20.1136 19.8796 20.1109 19.865 20.1053 19.8513C20.0998 19.8376 20.0916 19.8251 20.0813 19.8146C20.0709 19.804 20.0586 19.7956 20.045 19.7898C20.0314 19.7841 20.0168 19.781 20.002 19.7809ZM28.002 19.7809C27.9722 19.7806 27.9435 19.7922 27.9222 19.8131C27.9009 19.8341 27.8888 19.8626 27.8885 19.8924C27.8883 19.9222 27.8999 19.951 27.9208 19.9722C27.9417 19.9935 27.9702 20.0056 28 20.0059C28.0148 20.006 28.0294 20.0033 28.0431 19.9977C28.0568 19.9922 28.0693 19.984 28.0799 19.9737C28.0904 19.9633 28.0988 19.951 28.1046 19.9374C28.1103 19.9238 28.1134 19.9092 28.1135 19.8944C28.1136 19.8796 28.1109 19.865 28.1053 19.8513C28.0998 19.8376 28.0916 19.8251 28.0813 19.8146C28.0709 19.804 28.0586 19.7956 28.045 19.7898C28.0314 19.7841 28.0168 19.781 28.002 19.7809ZM17.566 19.7849V19.7869C17.646 19.7909 17.726 19.8249 17.811 19.8919C18.217 20.2539 17.736 20.6759 17.561 20.8589L16.695 21.7639C16.088 22.3939 15.824 22.8199 15.4 22.4119C15.04 22.0389 15.359 21.8179 16.047 21.1189L16.912 20.2149C17.118 20.0139 17.33 19.7729 17.566 19.7849ZM32.286 19.7849V19.7869C32.364 19.7909 32.444 19.8249 32.529 19.8919C32.936 20.2539 32.454 20.6759 32.279 20.8589L31.414 21.7639C30.807 22.3939 30.543 22.8199 30.119 22.4119C29.759 22.0389 30.077 21.8179 30.766 21.1189L31.631 20.2149C31.836 20.0139 32.049 19.7729 32.285 19.7849H32.286ZM19.992 20.3439C19.9634 20.3457 19.9365 20.3584 19.917 20.3794C19.8974 20.4005 19.8867 20.4282 19.887 20.4569C19.887 20.5189 19.937 20.5689 20 20.5679C20.0297 20.5679 20.0582 20.5561 20.0792 20.5351C20.1002 20.5141 20.112 20.4856 20.112 20.4559C20.112 20.4262 20.1002 20.3977 20.0792 20.3767C20.0582 20.3557 20.0297 20.3439 20 20.3439H19.992ZM27.992 20.3439C27.9634 20.3457 27.9365 20.3584 27.917 20.3794C27.8974 20.4005 27.8867 20.4282 27.887 20.4569C27.887 20.5189 27.937 20.5689 28 20.5679C28.0297 20.5679 28.0582 20.5561 28.0792 20.5351C28.1002 20.5141 28.112 20.4856 28.112 20.4559C28.112 20.4262 28.1002 20.3977 28.0792 20.3767C28.0582 20.3557 28.0297 20.3439 28 20.3439H27.992ZM19.992 20.9059C19.9627 20.9069 19.9349 20.9195 19.9147 20.9408C19.8945 20.9621 19.8835 20.9905 19.884 21.0198C19.8846 21.0492 19.8966 21.0772 19.9175 21.0977C19.9385 21.1183 19.9667 21.1298 19.996 21.1298C20.0254 21.1298 20.0536 21.1183 20.0745 21.0977C20.0954 21.0772 20.1075 21.0492 20.108 21.0198C20.1085 20.9905 20.0975 20.9621 20.0773 20.9408C20.0571 20.9195 20.0294 20.9069 20 20.9059H19.992ZM27.992 20.9059C27.9627 20.9069 27.9349 20.9195 27.9147 20.9408C27.8945 20.9621 27.8835 20.9905 27.884 21.0198C27.8846 21.0492 27.8966 21.0772 27.9175 21.0977C27.9385 21.1183 27.9667 21.1298 27.996 21.1298C28.0254 21.1298 28.0536 21.1183 28.0745 21.0977C28.0954 21.0772 28.1075 21.0492 28.108 21.0198C28.1085 20.9905 28.0975 20.9621 28.0773 20.9408C28.0571 20.9195 28.0294 20.9069 28 20.9059H27.992ZM19.992 21.4689C19.9634 21.4707 19.9365 21.4834 19.917 21.5044C19.8974 21.5255 19.8867 21.5532 19.887 21.5819C19.887 21.6439 19.937 21.6939 20 21.6929C20.061 21.6929 20.11 21.6429 20.111 21.5819C20.1111 21.5672 20.1084 21.5526 20.1029 21.539C20.0974 21.5253 20.0892 21.5129 20.0789 21.5024C20.0686 21.4919 20.0563 21.4836 20.0428 21.4778C20.0293 21.4721 20.0147 21.469 20 21.4689H19.992ZM27.992 21.4689C27.9634 21.4707 27.9365 21.4834 27.917 21.5044C27.8974 21.5255 27.8867 21.5532 27.887 21.5819C27.887 21.6439 27.937 21.6939 28 21.6929C28.061 21.6929 28.11 21.6429 28.111 21.5819C28.1111 21.5672 28.1084 21.5526 28.1029 21.539C28.0974 21.5253 28.0892 21.5129 28.0789 21.5024C28.0686 21.4919 28.0563 21.4836 28.0428 21.4778C28.0293 21.4721 28.0147 21.469 28 21.4689H27.992ZM19.992 22.0309C19.9772 22.0318 19.9628 22.0356 19.9495 22.0421C19.9362 22.0486 19.9243 22.0577 19.9145 22.0688C19.9047 22.0799 19.8972 22.0928 19.8924 22.1068C19.8876 22.1208 19.8856 22.1356 19.8865 22.1504C19.8874 22.1652 19.8913 22.1796 19.8978 22.1929C19.9043 22.2062 19.9133 22.2181 19.9244 22.2279C19.9355 22.2377 19.9484 22.2452 19.9624 22.25C19.9764 22.2548 19.9912 22.2568 20.006 22.2559C20.0359 22.254 20.0637 22.2404 20.0835 22.218C20.1033 22.1956 20.1134 22.1662 20.1115 22.1364C20.1097 22.1066 20.096 22.0787 20.0736 22.0589C20.0512 22.0391 20.0219 22.029 19.992 22.0309ZM27.992 22.0309C27.9772 22.0318 27.9628 22.0356 27.9495 22.0421C27.9362 22.0486 27.9243 22.0577 27.9145 22.0688C27.9047 22.0799 27.8972 22.0928 27.8924 22.1068C27.8876 22.1208 27.8856 22.1356 27.8865 22.1504C27.8874 22.1652 27.8913 22.1796 27.8978 22.1929C27.9043 22.2062 27.9133 22.2181 27.9244 22.2279C27.9355 22.2377 27.9484 22.2452 27.9624 22.25C27.9764 22.2548 27.9912 22.2568 28.006 22.2559C28.0359 22.254 28.0637 22.2404 28.0835 22.218C28.1033 22.1956 28.1134 22.1662 28.1115 22.1364C28.1097 22.1066 28.096 22.0787 28.0736 22.0589C28.0512 22.0391 28.0219 22.029 27.992 22.0309ZM24.862 22.1109C24.7372 22.1131 24.6139 22.1399 24.4995 22.1899C24.385 22.2398 24.2815 22.3119 24.195 22.4019L22.387 24.2599C22.2998 24.3488 22.2311 24.4541 22.1847 24.5697C22.1384 24.6853 22.1153 24.8089 22.1169 24.9334C22.1185 25.058 22.1447 25.1809 22.1939 25.2953C22.2432 25.4097 22.3146 25.5132 22.404 25.5999C22.5845 25.7746 22.827 25.8706 23.0782 25.8669C23.3293 25.8631 23.5688 25.7599 23.744 25.5799L25.553 23.7199C25.6401 23.6309 25.7088 23.5256 25.7551 23.4099C25.8013 23.2943 25.8243 23.1707 25.8226 23.0462C25.821 22.9216 25.7947 22.7987 25.7453 22.6843C25.696 22.57 25.6245 22.4665 25.535 22.3799C25.4459 22.2929 25.3405 22.2244 25.2248 22.1782C25.1092 22.132 24.9855 22.1092 24.861 22.1109H24.862ZM24.926 22.5909V22.5939C25.005 22.5969 25.086 22.6299 25.17 22.6989C25.576 23.0609 25.095 23.4839 24.92 23.6679L24.055 24.5719C23.447 25.2029 23.183 25.6299 22.76 25.2219C22.4 24.8489 22.718 24.6269 23.406 23.9279L24.272 23.0249C24.477 22.8249 24.69 22.5799 24.926 22.5919V22.5909ZM19.992 22.5939C19.9773 22.5948 19.9629 22.5986 19.9497 22.6051C19.9365 22.6116 19.9246 22.6206 19.9149 22.6317C19.9051 22.6427 19.8976 22.6556 19.8929 22.6695C19.8881 22.6834 19.8861 22.6982 19.887 22.7129C19.8879 22.7276 19.8917 22.742 19.8982 22.7552C19.9047 22.7685 19.9137 22.7803 19.9248 22.79C19.9358 22.7998 19.9487 22.8073 19.9626 22.8121C19.9766 22.8168 19.9913 22.8188 20.006 22.8179C20.0357 22.816 20.0635 22.8025 20.0832 22.7801C20.1029 22.7578 20.1129 22.7286 20.111 22.6989C20.1092 22.6692 20.0956 22.6414 20.0733 22.6218C20.0509 22.6021 20.0217 22.592 19.992 22.5939ZM27.992 22.5939C27.9773 22.5948 27.9629 22.5986 27.9497 22.6051C27.9365 22.6116 27.9246 22.6206 27.9149 22.6317C27.9051 22.6427 27.8976 22.6556 27.8929 22.6695C27.8881 22.6834 27.8861 22.6982 27.887 22.7129C27.8879 22.7276 27.8917 22.742 27.8982 22.7552C27.9047 22.7685 27.9137 22.7803 27.9248 22.79C27.9358 22.7998 27.9487 22.8073 27.9626 22.8121C27.9766 22.8168 27.9913 22.8188 28.006 22.8179C28.0357 22.816 28.0635 22.8025 28.0832 22.7801C28.1029 22.7578 28.1129 22.7286 28.111 22.6989C28.1092 22.6692 28.0956 22.6414 28.0733 22.6218C28.0509 22.6021 28.0217 22.592 27.992 22.5939ZM19.992 23.1559C19.9627 23.1569 19.9349 23.1695 19.9147 23.1908C19.8945 23.2121 19.8835 23.2405 19.884 23.2698C19.8846 23.2992 19.8966 23.3272 19.9175 23.3477C19.9385 23.3683 19.9667 23.3798 19.996 23.3798C20.0254 23.3798 20.0536 23.3683 20.0745 23.3477C20.0954 23.3272 20.1075 23.2992 20.108 23.2698C20.1085 23.2405 20.0975 23.2121 20.0773 23.1908C20.0571 23.1695 20.0294 23.1569 20 23.1559H19.992ZM27.992 23.1559C27.9627 23.1569 27.9349 23.1695 27.9147 23.1908C27.8945 23.2121 27.8835 23.2405 27.884 23.2698C27.8846 23.2992 27.8966 23.3272 27.9175 23.3477C27.9385 23.3683 27.9667 23.3798 27.996 23.3798C28.0254 23.3798 28.0536 23.3683 28.0745 23.3477C28.0954 23.3272 28.1075 23.2992 28.108 23.2698C28.1085 23.2405 28.0975 23.2121 28.0773 23.1908C28.0571 23.1695 28.0294 23.1569 28 23.1559H27.992ZM19.98 23.7189C19.9538 23.7232 19.93 23.7368 19.9129 23.7571C19.8959 23.7775 19.8867 23.8033 19.887 23.8299C19.8868 23.8521 19.8932 23.8738 19.9053 23.8923C19.9175 23.9108 19.9348 23.9253 19.9552 23.934C19.9756 23.9426 19.9981 23.9451 20.0199 23.9409C20.0416 23.9368 20.0617 23.9263 20.0775 23.9108C20.0933 23.8953 20.1041 23.8754 20.1087 23.8537C20.1132 23.832 20.1112 23.8095 20.1029 23.789C20.0946 23.7684 20.0804 23.7508 20.0621 23.7383C20.0438 23.7259 20.0222 23.7191 20 23.7189H19.98ZM27.98 23.7189C27.9538 23.7232 27.93 23.7368 27.9129 23.7571C27.8959 23.7775 27.8867 23.8033 27.887 23.8299C27.8868 23.8521 27.8932 23.8738 27.9053 23.8923C27.9175 23.9108 27.9348 23.9253 27.9552 23.934C27.9756 23.9426 27.9981 23.9451 28.0199 23.9409C28.0416 23.9368 28.0617 23.9263 28.0775 23.9108C28.0933 23.8953 28.1041 23.8754 28.1087 23.8537C28.1132 23.832 28.1112 23.8095 28.1029 23.789C28.0946 23.7684 28.0804 23.7508 28.0621 23.7383C28.0438 23.7259 28.0222 23.7191 28 23.7189H27.98ZM19.98 24.2809C19.9537 24.285 19.9298 24.2985 19.9127 24.3189C19.8956 24.3394 19.8865 24.3653 19.887 24.3919C19.887 24.4539 19.937 24.5049 20 24.5039C20.061 24.5039 20.11 24.4539 20.111 24.3919C20.111 24.3319 20.061 24.2819 20 24.2819H19.98V24.2809ZM27.98 24.2809C27.9537 24.285 27.9298 24.2985 27.9127 24.3189C27.8956 24.3394 27.8865 24.3653 27.887 24.3919C27.887 24.4539 27.937 24.5049 28 24.5039C28.061 24.5039 28.11 24.4539 28.111 24.3919C28.111 24.3319 28.061 24.2819 28 24.2819H27.98V24.2809ZM17.502 24.5609C17.3774 24.5631 17.2544 24.5898 17.1401 24.6396C17.0259 24.6893 16.9225 24.7612 16.836 24.8509L15.027 26.7089C14.9399 26.7979 14.8712 26.9032 14.825 27.0189C14.7787 27.1345 14.7557 27.2581 14.7574 27.3826C14.7591 27.5072 14.7854 27.6301 14.8347 27.7445C14.8841 27.8588 14.9555 27.9623 15.045 28.0489C15.2254 28.2239 15.4679 28.32 15.7192 28.3163C15.9704 28.3125 16.2099 28.2092 16.385 28.0289L18.193 26.1689C18.28 26.08 18.3487 25.9748 18.3949 25.8593C18.4412 25.7438 18.4642 25.6203 18.4626 25.4959C18.461 25.3715 18.4349 25.2486 18.3857 25.1343C18.3365 25.02 18.2653 24.9166 18.176 24.8299C18.087 24.7427 17.9817 24.6739 17.866 24.6276C17.7503 24.5812 17.6266 24.5582 17.502 24.5599V24.5609ZM32.221 24.5609C32.0964 24.5631 31.9734 24.5898 31.8591 24.6396C31.7449 24.6893 31.6415 24.7612 31.555 24.8509L29.746 26.7089C29.6589 26.7979 29.5902 26.9032 29.544 27.0189C29.4977 27.1345 29.4747 27.2581 29.4764 27.3826C29.4781 27.5072 29.5044 27.6301 29.5537 27.7445C29.6031 27.8588 29.6745 27.9623 29.764 28.0489C29.9444 28.2239 30.1869 28.32 30.4382 28.3163C30.6894 28.3125 30.9289 28.2092 31.104 28.0289L32.912 26.1689C32.999 26.08 33.0677 25.9748 33.1139 25.8593C33.1602 25.7438 33.1832 25.6203 33.1816 25.4959C33.18 25.3715 33.1539 25.2486 33.1047 25.1343C33.0555 25.02 32.9843 24.9166 32.895 24.8299C32.806 24.7427 32.7007 24.6739 32.585 24.6276C32.4693 24.5812 32.3456 24.5582 32.221 24.5599V24.5609ZM19.992 24.8409C19.9632 24.8427 19.9362 24.8556 19.9166 24.8768C19.897 24.898 19.8864 24.926 19.887 24.9549C19.887 25.0169 19.937 25.0669 20 25.0659C20.0299 25.0648 20.058 25.052 20.0784 25.0301C20.0987 25.0083 20.1096 24.9792 20.1085 24.9494C20.1075 24.9196 20.0946 24.8914 20.0727 24.871C20.0509 24.8507 20.0219 24.8398 19.992 24.8409ZM27.992 24.8409C27.9632 24.8427 27.9362 24.8556 27.9166 24.8768C27.897 24.898 27.8864 24.926 27.887 24.9549C27.887 25.0169 27.937 25.0669 28 25.0659C28.0299 25.0648 28.058 25.052 28.0784 25.0301C28.0987 25.0083 28.1096 24.9792 28.1085 24.9494C28.1075 24.9196 28.0946 24.8914 28.0727 24.871C28.0509 24.8507 28.0219 24.8398 27.992 24.8409ZM17.566 25.0409V25.0429C17.646 25.0469 17.726 25.0789 17.811 25.1479C18.217 25.5099 17.736 25.9339 17.561 26.1179L16.695 27.0209C16.088 27.6529 15.824 28.0799 15.4 27.6709C15.04 27.2979 15.359 27.0759 16.047 26.3769L16.912 25.4749C17.118 25.2729 17.33 25.0289 17.566 25.0409ZM32.286 25.0409V25.0429C32.364 25.0469 32.444 25.0789 32.529 25.1479C32.936 25.5099 32.454 25.9339 32.279 26.1179L31.414 27.0209C30.807 27.6529 30.543 28.0799 30.119 27.6709C29.759 27.2979 30.077 27.0759 30.766 26.3769L31.631 25.4749C31.836 25.2729 32.049 25.0289 32.285 25.0409H32.286ZM19.992 25.4039C19.9627 25.4049 19.9349 25.4175 19.9147 25.4388C19.8945 25.4601 19.8835 25.4885 19.884 25.5178C19.8846 25.5472 19.8966 25.5752 19.9175 25.5957C19.9385 25.6163 19.9667 25.6278 19.996 25.6278C20.0254 25.6278 20.0536 25.6163 20.0745 25.5957C20.0954 25.5752 20.1075 25.5472 20.108 25.5178C20.1085 25.4885 20.0975 25.4601 20.0773 25.4388C20.0571 25.4175 20.0294 25.4049 20 25.4039C19.9974 25.4038 19.9947 25.4038 19.992 25.4039ZM27.992 25.4039C27.9627 25.4049 27.9349 25.4175 27.9147 25.4388C27.8945 25.4601 27.8835 25.4885 27.884 25.5178C27.8846 25.5472 27.8966 25.5752 27.9175 25.5957C27.9385 25.6163 27.9667 25.6278 27.996 25.6278C28.0254 25.6278 28.0536 25.6163 28.0745 25.5957C28.0954 25.5752 28.1075 25.5472 28.108 25.5178C28.1085 25.4885 28.0975 25.4601 28.0773 25.4388C28.0571 25.4175 28.0294 25.4049 28 25.4039C27.9974 25.4038 27.9947 25.4038 27.992 25.4039ZM19.992 25.9669C19.9634 25.9687 19.9365 25.9814 19.917 26.0024C19.8974 26.0235 19.8867 26.0512 19.887 26.0799C19.887 26.1419 19.937 26.1919 20 26.1909C20.0299 26.1898 20.058 26.177 20.0784 26.1551C20.0987 26.1333 20.1096 26.1042 20.1085 26.0744C20.1075 26.0446 20.0946 26.0164 20.0727 25.996C20.0509 25.9757 20.0219 25.9648 19.992 25.9659V25.9669ZM27.992 25.9669C27.9634 25.9687 27.9365 25.9814 27.917 26.0024C27.8974 26.0235 27.8867 26.0512 27.887 26.0799C27.887 26.1419 27.937 26.1919 28 26.1909C28.0299 26.1898 28.058 26.177 28.0784 26.1551C28.0987 26.1333 28.1096 26.1042 28.1085 26.0744C28.1075 26.0446 28.0946 26.0164 28.0727 25.996C28.0509 25.9757 28.0219 25.9648 27.992 25.9659V25.9669ZM19.992 26.5289C19.9772 26.5298 19.9628 26.5336 19.9495 26.5401C19.9362 26.5466 19.9243 26.5557 19.9145 26.5668C19.9047 26.5779 19.8972 26.5908 19.8924 26.6048C19.8876 26.6188 19.8856 26.6336 19.8865 26.6484C19.8874 26.6632 19.8913 26.6776 19.8978 26.6909C19.9043 26.7042 19.9133 26.7161 19.9244 26.7259C19.9355 26.7357 19.9484 26.7432 19.9624 26.748C19.9764 26.7528 19.9912 26.7548 20.006 26.7539C20.0359 26.752 20.0637 26.7384 20.0835 26.716C20.1033 26.6936 20.1134 26.6642 20.1115 26.6344C20.1097 26.6046 20.096 26.5767 20.0736 26.5569C20.0512 26.5371 20.0219 26.527 19.992 26.5289ZM27.992 26.5289C27.9772 26.5298 27.9628 26.5336 27.9495 26.5401C27.9362 26.5466 27.9243 26.5557 27.9145 26.5668C27.9047 26.5779 27.8972 26.5908 27.8924 26.6048C27.8876 26.6188 27.8856 26.6336 27.8865 26.6484C27.8874 26.6632 27.8913 26.6776 27.8978 26.6909C27.9043 26.7042 27.9133 26.7161 27.9244 26.7259C27.9355 26.7357 27.9484 26.7432 27.9624 26.748C27.9764 26.7528 27.9912 26.7548 28.006 26.7539C28.0359 26.752 28.0637 26.7384 28.0835 26.716C28.1033 26.6936 28.1134 26.6642 28.1115 26.6344C28.1097 26.6046 28.096 26.5767 28.0736 26.5569C28.0512 26.5371 28.0219 26.527 27.992 26.5289ZM19.992 27.0919C19.9773 27.0928 19.9629 27.0966 19.9497 27.1031C19.9365 27.1096 19.9246 27.1186 19.9149 27.1297C19.9051 27.1407 19.8976 27.1536 19.8929 27.1675C19.8881 27.1814 19.8861 27.1962 19.887 27.2109C19.8879 27.2256 19.8917 27.24 19.8982 27.2532C19.9047 27.2665 19.9137 27.2783 19.9248 27.288C19.9358 27.2978 19.9487 27.3053 19.9626 27.3101C19.9766 27.3148 19.9913 27.3168 20.006 27.3159C20.0357 27.314 20.0635 27.3005 20.0832 27.2781C20.1029 27.2558 20.1129 27.2266 20.111 27.1969C20.1092 27.1672 20.0956 27.1394 20.0733 27.1198C20.0509 27.1001 20.0217 27.09 19.992 27.0919ZM27.992 27.0919C27.9773 27.0928 27.9629 27.0966 27.9497 27.1031C27.9365 27.1096 27.9246 27.1186 27.9149 27.1297C27.9051 27.1407 27.8976 27.1536 27.8929 27.1675C27.8881 27.1814 27.8861 27.1962 27.887 27.2109C27.8879 27.2256 27.8917 27.24 27.8982 27.2532C27.9047 27.2665 27.9137 27.2783 27.9248 27.288C27.9358 27.2978 27.9487 27.3053 27.9626 27.3101C27.9766 27.3148 27.9913 27.3168 28.006 27.3159C28.0357 27.314 28.0635 27.3005 28.0832 27.2781C28.1029 27.2558 28.1129 27.2266 28.111 27.1969C28.1092 27.1672 28.0956 27.1394 28.0733 27.1198C28.0509 27.1001 28.0217 27.09 27.992 27.0919ZM24.859 27.3689V27.3709C24.7344 27.3728 24.6115 27.3993 24.4972 27.4489C24.3829 27.4985 24.2795 27.5702 24.193 27.6599L22.385 29.5169C22.2189 29.6985 22.13 29.9377 22.1372 30.1837C22.1444 30.4297 22.2471 30.6633 22.4235 30.8349C22.5999 31.0065 22.8362 31.1027 23.0823 31.103C23.3285 31.1034 23.5651 31.008 23.742 30.8369L25.551 28.9779C25.6381 28.8889 25.7068 28.7836 25.7531 28.6679C25.7993 28.5523 25.8223 28.4287 25.8206 28.3042C25.819 28.1796 25.7927 28.0567 25.7433 27.9423C25.694 27.828 25.6225 27.7245 25.533 27.6379C25.4439 27.5509 25.3385 27.4823 25.2229 27.4361C25.1072 27.39 24.9835 27.3671 24.859 27.3689ZM19.992 27.6539C19.9622 27.6558 19.9343 27.6694 19.9145 27.6918C19.8947 27.7142 19.8847 27.7436 19.8865 27.7734C19.8884 27.8032 19.902 27.8311 19.9244 27.8509C19.9468 27.8707 19.9762 27.8808 20.006 27.8789C20.0208 27.878 20.0352 27.8742 20.0485 27.8677C20.0618 27.8612 20.0737 27.8521 20.0835 27.841C20.0933 27.8299 20.1008 27.817 20.1056 27.803C20.1104 27.789 20.1124 27.7742 20.1115 27.7594C20.1106 27.7446 20.1068 27.7302 20.1003 27.7169C20.0938 27.7036 20.0847 27.6917 20.0736 27.6819C20.0625 27.6721 20.0496 27.6646 20.0356 27.6598C20.0216 27.655 20.0068 27.653 19.992 27.6539ZM27.992 27.6539C27.9622 27.6558 27.9343 27.6694 27.9145 27.6918C27.8947 27.7142 27.8847 27.7436 27.8865 27.7734C27.8884 27.8032 27.902 27.8311 27.9244 27.8509C27.9468 27.8707 27.9762 27.8808 28.006 27.8789C28.0208 27.878 28.0352 27.8742 28.0485 27.8677C28.0618 27.8612 28.0737 27.8521 28.0835 27.841C28.0933 27.8299 28.1008 27.817 28.1056 27.803C28.1104 27.789 28.1124 27.7742 28.1115 27.7594C28.1106 27.7446 28.1068 27.7302 28.1003 27.7169C28.0938 27.7036 28.0847 27.6917 28.0736 27.6819C28.0625 27.6721 28.0496 27.6646 28.0356 27.6598C28.0216 27.655 28.0068 27.653 27.992 27.6539ZM24.924 27.8509V27.8529C25.003 27.8569 25.084 27.8889 25.168 27.9589C25.575 28.3209 25.093 28.7439 24.918 28.9279L24.053 29.8319C23.445 30.4629 23.181 30.8899 22.758 30.4819C22.398 30.1089 22.716 29.8859 23.404 29.1869L24.27 28.2829C24.475 28.0819 24.688 27.8399 24.924 27.8509ZM19.98 28.2169C19.9538 28.2212 19.93 28.2348 19.9129 28.2551C19.8959 28.2755 19.8867 28.3013 19.887 28.3279C19.887 28.3899 19.937 28.4409 20 28.4389C20.061 28.4389 20.11 28.3889 20.111 28.3279C20.111 28.2669 20.061 28.2179 20 28.2169H19.98ZM27.98 28.2169C27.9538 28.2212 27.93 28.2348 27.9129 28.2551C27.8959 28.2755 27.8867 28.3013 27.887 28.3279C27.887 28.3899 27.937 28.4409 28 28.4389C28.061 28.4389 28.11 28.3889 28.111 28.3279C28.111 28.2669 28.061 28.2179 28 28.2169H27.98ZM20.002 28.7769C19.9864 28.7753 19.9706 28.777 19.9556 28.7818C19.9406 28.7867 19.9268 28.7946 19.9151 28.8051C19.9034 28.8156 19.894 28.8284 19.8875 28.8427C19.881 28.857 19.8776 28.8726 19.8775 28.8883C19.8773 28.904 19.8805 28.9196 19.8867 28.9341C19.8929 28.9485 19.9021 28.9615 19.9136 28.9722C19.9252 28.9829 19.9388 28.991 19.9537 28.9962C19.9686 29.0013 19.9843 29.0032 20 29.0019C20.0281 28.9995 20.0542 28.9868 20.0733 28.9661C20.0925 28.9455 20.1032 28.9185 20.1034 28.8903C20.1037 28.8622 20.0934 28.835 20.0747 28.814C20.0559 28.793 20.03 28.7798 20.002 28.7769ZM28.002 28.7769C27.9864 28.7753 27.9706 28.777 27.9556 28.7818C27.9406 28.7867 27.9268 28.7946 27.9151 28.8051C27.9034 28.8156 27.894 28.8284 27.8875 28.8427C27.881 28.857 27.8776 28.8726 27.8775 28.8883C27.8773 28.904 27.8805 28.9196 27.8867 28.9341C27.8929 28.9485 27.9021 28.9615 27.9136 28.9722C27.9252 28.9829 27.9388 28.991 27.9537 28.9962C27.9686 29.0013 27.9843 29.0032 28 29.0019C28.0281 28.9995 28.0542 28.9868 28.0733 28.9661C28.0925 28.9455 28.1032 28.9185 28.1034 28.8903C28.1037 28.8622 28.0934 28.835 28.0747 28.814C28.0559 28.793 28.03 28.7798 28.002 28.7769ZM19.992 29.3399C19.9634 29.3417 19.9365 29.3544 19.917 29.3754C19.8974 29.3965 19.8867 29.4242 19.887 29.4529C19.887 29.5149 19.937 29.5659 20 29.5639C20.061 29.5639 20.11 29.5139 20.111 29.4529C20.1111 29.4382 20.1084 29.4236 20.1029 29.41C20.0974 29.3963 20.0892 29.3839 20.0789 29.3734C20.0686 29.3629 20.0563 29.3546 20.0428 29.3488C20.0293 29.3431 20.0147 29.34 20 29.3399H19.992ZM27.992 29.3399C27.9634 29.3417 27.9365 29.3544 27.917 29.3754C27.8974 29.3965 27.8867 29.4242 27.887 29.4529C27.887 29.5149 27.937 29.5659 28 29.5639C28.061 29.5639 28.11 29.5139 28.111 29.4529C28.1111 29.4382 28.1084 29.4236 28.1029 29.41C28.0974 29.3963 28.0892 29.3839 28.0789 29.3734C28.0686 29.3629 28.0563 29.3546 28.0428 29.3488C28.0293 29.3431 28.0147 29.34 28 29.3399H27.992ZM17.5 29.8179V29.8199C17.3754 29.8219 17.2523 29.8486 17.138 29.8984C17.0237 29.9481 16.9204 30.02 16.834 30.1099L15.025 31.9669C14.85 32.1468 14.7536 32.389 14.7571 32.64C14.7605 32.891 14.8636 33.1304 15.0435 33.3054C15.2235 33.4804 15.4656 33.5768 15.7166 33.5734C15.9676 33.5699 16.207 33.4668 16.382 33.2869L18.192 31.4269C18.2791 31.3379 18.3478 31.2326 18.3941 31.1169C18.4403 31.0013 18.4633 30.8777 18.4616 30.7532C18.46 30.6286 18.4337 30.5057 18.3843 30.3913C18.335 30.277 18.2635 30.1735 18.174 30.0869C18.0849 29.9999 17.9795 29.9313 17.8639 29.8851C17.7482 29.839 17.6245 29.8161 17.5 29.8179ZM32.219 29.8179V29.8199C32.0944 29.8219 31.9713 29.8486 31.857 29.8984C31.7427 29.9481 31.6394 30.02 31.553 30.1099L29.744 31.9669C29.569 32.147 29.4726 32.3892 29.4762 32.6403C29.4798 32.8914 29.5829 33.1309 29.763 33.3059C29.9431 33.4809 30.1853 33.5773 30.4365 33.5737C30.6876 33.5702 30.927 33.467 31.102 33.2869L32.91 31.4269C32.9972 31.338 33.0659 31.2327 33.1123 31.1171C33.1587 31.0015 33.1817 30.8779 33.1801 30.7534C33.1785 30.6288 33.1524 30.5059 33.1031 30.3915C33.0538 30.2771 32.9824 30.1736 32.893 30.0869C32.8039 29.9999 32.6985 29.9313 32.5829 29.8851C32.4672 29.839 32.3435 29.8161 32.219 29.8179ZM19.992 29.9019C19.9627 29.903 19.9349 29.9155 19.9147 29.9368C19.8945 29.9581 19.8835 29.9865 19.884 30.0158C19.8846 30.0452 19.8966 30.0732 19.9175 30.0937C19.9385 30.1143 19.9667 30.1258 19.996 30.1258C20.0254 30.1258 20.0536 30.1143 20.0745 30.0937C20.0954 30.0732 20.1075 30.0452 20.108 30.0158C20.1085 29.9865 20.0975 29.9581 20.0773 29.9368C20.0571 29.9155 20.0294 29.903 20 29.9019H19.992ZM27.992 29.9019C27.9627 29.903 27.9349 29.9155 27.9147 29.9368C27.8945 29.9581 27.8835 29.9865 27.884 30.0158C27.8846 30.0452 27.8966 30.0732 27.9175 30.0937C27.9385 30.1143 27.9667 30.1258 27.996 30.1258C28.0254 30.1258 28.0536 30.1143 28.0745 30.0937C28.0954 30.0732 28.1075 30.0452 28.108 30.0158C28.1085 29.9865 28.0975 29.9581 28.0773 29.9368C28.0571 29.9155 28.0294 29.903 28 29.9019H27.992ZM17.564 30.3009V30.3029C17.644 30.3059 17.724 30.3379 17.809 30.4079C18.215 30.7699 17.734 31.1929 17.559 31.3769L16.693 32.2809C16.086 32.9129 15.823 33.3389 15.398 32.9309C15.038 32.5579 15.357 32.3359 16.045 31.6369L16.91 30.7319C17.116 30.5319 17.328 30.2889 17.564 30.3009ZM32.284 30.3009V30.3029C32.362 30.3059 32.443 30.3379 32.527 30.4079C32.934 30.7699 32.452 31.1929 32.277 31.3769L31.412 32.2809C30.805 32.9129 30.541 33.3389 30.117 32.9309C29.757 32.5579 30.075 32.3359 30.764 31.6369L31.629 30.7319C31.834 30.5319 32.047 30.2889 32.283 30.3009H32.284ZM19.992 30.4649C19.9634 30.4667 19.9365 30.4794 19.917 30.5004C19.8974 30.5215 19.8867 30.5492 19.887 30.5779C19.887 30.6399 19.937 30.6909 20 30.6889C20.0147 30.6884 20.0292 30.685 20.0426 30.6788C20.056 30.6727 20.068 30.664 20.078 30.6533C20.0881 30.6425 20.0959 30.6299 20.101 30.6161C20.1062 30.6023 20.1085 30.5876 20.108 30.5729C20.1075 30.5582 20.1041 30.5437 20.098 30.5303C20.0918 30.517 20.0832 30.5049 20.0724 30.4949C20.0616 30.4848 20.049 30.477 20.0352 30.4719C20.0214 30.4668 20.0067 30.4644 19.992 30.4649ZM27.992 30.4649C27.9634 30.4667 27.9365 30.4794 27.917 30.5004C27.8974 30.5215 27.8867 30.5492 27.887 30.5779C27.887 30.6399 27.937 30.6909 28 30.6889C28.0147 30.6884 28.0292 30.685 28.0426 30.6788C28.056 30.6727 28.068 30.664 28.078 30.6533C28.0881 30.6425 28.0959 30.6299 28.101 30.6161C28.1062 30.6023 28.1085 30.5876 28.108 30.5729C28.1075 30.5582 28.1041 30.5437 28.098 30.5303C28.0918 30.517 28.0832 30.5049 28.0724 30.4949C28.0616 30.4848 28.049 30.477 28.0352 30.4719C28.0214 30.4668 28.0067 30.4644 27.992 30.4649ZM19.992 31.0249C19.9634 31.0272 19.9366 31.0402 19.9172 31.0613C19.8977 31.0825 19.8869 31.1102 19.887 31.1389C19.887 31.1686 19.8988 31.1971 19.9198 31.2181C19.9408 31.2391 19.9693 31.2509 19.999 31.2509C20.0287 31.2509 20.0572 31.2391 20.0782 31.2181C20.0992 31.1971 20.111 31.1686 20.111 31.1389C20.111 31.1235 20.1079 31.1083 20.1019 31.0941C20.0958 31.0799 20.087 31.0671 20.0759 31.0565C20.0648 31.0458 20.0516 31.0375 20.0372 31.0321C20.0228 31.0267 20.0074 31.0242 19.992 31.0249ZM27.992 31.0249C27.9634 31.0272 27.9366 31.0402 27.9172 31.0613C27.8977 31.0825 27.8869 31.1102 27.887 31.1389C27.887 31.1686 27.8988 31.1971 27.9198 31.2181C27.9408 31.2391 27.9693 31.2509 27.999 31.2509C28.0287 31.2509 28.0572 31.2391 28.0782 31.2181C28.0992 31.1971 28.111 31.1686 28.111 31.1389C28.111 31.1235 28.1079 31.1083 28.1019 31.0941C28.0958 31.0799 28.087 31.0671 28.0759 31.0565C28.0648 31.0458 28.0516 31.0375 28.0372 31.0321C28.0228 31.0267 28.0074 31.0242 27.992 31.0249ZM19.992 31.5879C19.9649 31.5924 19.9404 31.6066 19.923 31.6278C19.9056 31.6491 19.8966 31.676 19.8975 31.7034C19.8985 31.7309 19.9095 31.757 19.9283 31.777C19.9472 31.7969 19.9727 31.8094 20 31.8119C20.0297 31.8108 20.0578 31.798 20.078 31.7763C20.0983 31.7545 20.1091 31.7256 20.108 31.6959C20.107 31.6662 20.0941 31.6381 20.0724 31.6179C20.0506 31.5976 20.0217 31.5868 19.992 31.5879ZM27.992 31.5879C27.9649 31.5924 27.9404 31.6066 27.923 31.6278C27.9056 31.6491 27.8966 31.676 27.8975 31.7034C27.8985 31.7309 27.9095 31.757 27.9283 31.777C27.9472 31.7969 27.9727 31.8094 28 31.8119C28.0147 31.8114 28.0292 31.808 28.0426 31.8018C28.056 31.7957 28.068 31.787 28.078 31.7763C28.0881 31.7655 28.0959 31.7529 28.101 31.7391C28.1062 31.7253 28.1085 31.7106 28.108 31.6959C28.1075 31.6812 28.1041 31.6667 28.098 31.6533C28.0918 31.64 28.0832 31.6279 28.0724 31.6179C28.0616 31.6078 28.049 31.6 28.0352 31.5949C28.0214 31.5898 28.0067 31.5874 27.992 31.5879ZM19.98 32.1499C19.9535 32.154 19.9295 32.1677 19.9123 32.1883C19.8952 32.2089 19.8862 32.2351 19.887 32.2619C19.8868 32.2843 19.8933 32.3062 19.9056 32.325C19.9179 32.3437 19.9354 32.3583 19.9561 32.367C19.9767 32.3757 19.9995 32.3781 20.0214 32.3739C20.0434 32.3696 20.0637 32.3589 20.0796 32.3432C20.0955 32.3274 20.1063 32.3073 20.1108 32.2853C20.1152 32.2634 20.113 32.2406 20.1045 32.2199C20.096 32.1992 20.0815 32.1815 20.0629 32.169C20.0443 32.1566 20.0224 32.1499 20 32.1499H19.98ZM27.98 32.1499C27.9535 32.154 27.9295 32.1677 27.9123 32.1883C27.8952 32.2089 27.8862 32.2351 27.887 32.2619C27.8868 32.2843 27.8933 32.3062 27.9056 32.325C27.9179 32.3437 27.9354 32.3583 27.9561 32.367C27.9767 32.3757 27.9995 32.3781 28.0214 32.3739C28.0434 32.3696 28.0637 32.3589 28.0796 32.3432C28.0955 32.3274 28.1063 32.3073 28.1108 32.2853C28.1152 32.2634 28.113 32.2406 28.1045 32.2199C28.096 32.1992 28.0815 32.1815 28.0629 32.169C28.0443 32.1566 28.0224 32.1499 28 32.1499H27.98ZM24.861 32.5739V32.5759C24.7364 32.5779 24.6133 32.6046 24.499 32.6544C24.3847 32.7041 24.2814 32.776 24.195 32.8659L22.387 34.7219C22.3003 34.8109 22.232 34.916 22.186 35.0314C22.14 35.1468 22.1171 35.2701 22.1188 35.3943C22.1204 35.5185 22.1465 35.6411 22.1955 35.7553C22.2445 35.8694 22.3155 35.9727 22.4045 36.0594C22.4935 36.1461 22.5987 36.2144 22.714 36.2604C22.8294 36.3064 22.9527 36.3293 23.0769 36.3277C23.2011 36.326 23.3238 36.3 23.4379 36.2509C23.552 36.2019 23.6553 36.1309 23.742 36.0419L25.551 34.1839C25.6834 34.0503 25.773 33.8801 25.8081 33.6953C25.8433 33.5105 25.8225 33.3194 25.7484 33.1465C25.6743 32.9735 25.5502 32.8267 25.3921 32.7247C25.2341 32.6227 25.0491 32.5702 24.861 32.5739ZM19.981 32.7129C19.9599 32.7163 19.9403 32.7257 19.9243 32.74C19.9084 32.7542 19.8969 32.7727 19.8912 32.7933C19.8854 32.8139 19.8857 32.8356 19.8919 32.8561C19.8981 32.8765 19.91 32.8947 19.9263 32.9086C19.9425 32.9225 19.9624 32.9314 19.9836 32.9344C20.0047 32.9373 20.0263 32.9342 20.0457 32.9252C20.0651 32.9163 20.0816 32.9021 20.0932 32.8841C20.1047 32.8662 20.1109 32.8453 20.111 32.8239C20.111 32.7629 20.061 32.7139 20 32.7129H19.98H19.981ZM27.981 32.7129C27.9599 32.7163 27.9403 32.7257 27.9243 32.74C27.9084 32.7542 27.8969 32.7727 27.8912 32.7933C27.8854 32.8139 27.8857 32.8356 27.8919 32.8561C27.8981 32.8765 27.91 32.8947 27.9263 32.9086C27.9425 32.9225 27.9624 32.9314 27.9836 32.9344C28.0047 32.9373 28.0263 32.9342 28.0457 32.9252C28.0651 32.9163 28.0816 32.9021 28.0932 32.8841C28.1047 32.8662 28.1109 32.8453 28.111 32.8239C28.111 32.7629 28.061 32.7139 28 32.7129H27.98H27.981ZM24.924 33.0559V33.0589H24.926C25.016 33.0666 25.1009 33.1035 25.168 33.1639C25.575 33.5259 25.093 33.9489 24.918 34.1329L24.055 35.0369C23.447 35.6679 23.183 36.0949 22.76 35.6869C22.4 35.3139 22.718 35.0909 23.406 34.3929L24.272 33.4879C24.476 33.2879 24.688 33.0459 24.924 33.0569V33.0559ZM20.002 33.2729C19.987 33.273 19.9721 33.2761 19.9582 33.2821C19.9444 33.288 19.9318 33.2966 19.9213 33.3074C19.9108 33.3181 19.9026 33.3309 19.897 33.3449C19.8915 33.3589 19.8888 33.3738 19.889 33.3889C19.889 33.4499 19.939 33.4989 20.002 33.4979C20.0165 33.498 20.031 33.4953 20.0444 33.4898C20.0579 33.4843 20.0701 33.4763 20.0804 33.466C20.0908 33.4558 20.099 33.4436 20.1045 33.4302C20.1101 33.4168 20.113 33.4024 20.113 33.3879C20.1133 33.358 20.1018 33.3292 20.081 33.3077C20.0603 33.2862 20.0319 33.2737 20.002 33.2729ZM28.002 33.2729C27.987 33.273 27.9721 33.2761 27.9582 33.2821C27.9444 33.288 27.9318 33.2966 27.9213 33.3074C27.9108 33.3181 27.9026 33.3309 27.897 33.3449C27.8915 33.3589 27.8888 33.3738 27.889 33.3889C27.889 33.4499 27.939 33.4989 28.002 33.4979C28.0165 33.498 28.031 33.4953 28.0444 33.4898C28.0579 33.4843 28.0701 33.4763 28.0804 33.466C28.0908 33.4558 28.099 33.4436 28.1045 33.4302C28.1101 33.4168 28.113 33.4024 28.113 33.3879C28.1133 33.358 28.1018 33.3292 28.081 33.3077C28.0603 33.2862 28.0319 33.2737 28.002 33.2729ZM19.992 33.8359C19.9634 33.8377 19.9365 33.8504 19.917 33.8714C19.8974 33.8925 19.8867 33.9202 19.887 33.9489C19.887 34.0109 19.937 34.0619 20 34.0599C20.061 34.0599 20.11 34.0099 20.111 33.9499C20.1113 33.9351 20.1086 33.9204 20.1032 33.9067C20.0977 33.8929 20.0896 33.8804 20.0793 33.8698C20.069 33.8592 20.0566 33.8507 20.043 33.8449C20.0294 33.8391 20.0148 33.836 20 33.8359H19.992ZM27.992 33.8359C27.9634 33.8377 27.9365 33.8504 27.917 33.8714C27.8974 33.8925 27.8867 33.9202 27.887 33.9489C27.887 34.0109 27.937 34.0619 28 34.0599C28.061 34.0599 28.11 34.0099 28.111 33.9499C28.1113 33.9351 28.1086 33.9204 28.1032 33.9067C28.0977 33.8929 28.0896 33.8804 28.0793 33.8698C28.069 33.8592 28.0566 33.8507 28.043 33.8449C28.0294 33.8391 28.0148 33.836 28 33.8359H27.992ZM19.992 34.3979C19.9627 34.3989 19.9349 34.4115 19.9147 34.4328C19.8945 34.4541 19.8835 34.4825 19.884 34.5118C19.8846 34.5412 19.8966 34.5692 19.9175 34.5897C19.9385 34.6103 19.9667 34.6218 19.996 34.6218C20.0254 34.6218 20.0536 34.6103 20.0745 34.5897C20.0954 34.5692 20.1075 34.5412 20.108 34.5118C20.1085 34.4825 20.0975 34.4541 20.0773 34.4328C20.0571 34.4115 20.0294 34.3989 20 34.3979C19.9974 34.3978 19.9947 34.3978 19.992 34.3979ZM27.992 34.3979C27.9627 34.3989 27.9349 34.4115 27.9147 34.4328C27.8945 34.4541 27.8835 34.4825 27.884 34.5118C27.8846 34.5412 27.8966 34.5692 27.9175 34.5897C27.9385 34.6103 27.9667 34.6218 27.996 34.6218C28.0254 34.6218 28.0536 34.6103 28.0745 34.5897C28.0954 34.5692 28.1075 34.5412 28.108 34.5118C28.1085 34.4825 28.0975 34.4541 28.0773 34.4328C28.0571 34.4115 28.0294 34.3989 28 34.3979C27.9974 34.3978 27.9947 34.3978 27.992 34.3979ZM19.992 34.9609C19.9623 34.962 19.9342 34.9748 19.914 34.9965C19.8937 35.0183 19.883 35.0472 19.884 35.0769C19.8851 35.1066 19.8979 35.1347 19.9196 35.1549C19.9414 35.1752 19.9703 35.186 20 35.1849C20.0297 35.1849 20.0582 35.1731 20.0792 35.1521C20.1002 35.1311 20.112 35.1026 20.112 35.0729C20.112 35.0432 20.1002 35.0147 20.0792 34.9937C20.0582 34.9727 20.0297 34.9609 20 34.9609C19.9974 34.9608 19.9947 34.9608 19.992 34.9609ZM27.992 34.9609C27.9623 34.962 27.9342 34.9748 27.914 34.9965C27.8937 35.0183 27.883 35.0472 27.884 35.0769C27.8851 35.1066 27.8979 35.1347 27.9196 35.1549C27.9414 35.1752 27.9703 35.186 28 35.1849C28.0297 35.1849 28.0582 35.1731 28.0792 35.1521C28.1002 35.1311 28.112 35.1026 28.112 35.0729C28.112 35.0432 28.1002 35.0147 28.0792 34.9937C28.0582 34.9727 28.0297 34.9609 28 34.9609C27.9974 34.9608 27.9947 34.9608 27.992 34.9609ZM17.523 35.4839V35.4859C17.3984 35.488 17.2754 35.5147 17.1611 35.5644C17.0468 35.6142 16.9434 35.6861 16.857 35.7759L15.049 37.6329C14.874 37.8126 14.7775 38.0544 14.7808 38.3053C14.784 38.5561 14.8868 38.7954 15.0665 38.9704C15.2462 39.1454 15.4881 39.2419 15.7389 39.2387C15.9897 39.2354 16.229 39.1326 16.404 38.9529L18.213 37.0929C18.3451 36.9592 18.4343 36.7892 18.4693 36.6045C18.5042 36.4199 18.4834 36.229 18.4093 36.0563C18.3352 35.8836 18.2113 35.7369 18.0535 35.6349C17.8956 35.5329 17.7109 35.4804 17.523 35.4839ZM32.285 35.4839V35.4859C32.1604 35.488 32.0374 35.5147 31.9231 35.5644C31.8088 35.6142 31.7054 35.6861 31.619 35.7759L29.811 37.6329C29.7243 37.7219 29.656 37.827 29.61 37.9424C29.564 38.0578 29.5411 38.1811 29.5428 38.3053C29.5444 38.4295 29.5705 38.5521 29.6195 38.6663C29.6685 38.7804 29.7395 38.8837 29.8285 38.9704C29.9175 39.0571 30.0227 39.1254 30.138 39.1714C30.2534 39.2174 30.3767 39.2403 30.5009 39.2387C30.6251 39.237 30.7478 39.211 30.8619 39.1619C30.976 39.1129 31.0793 39.0419 31.166 38.9529L32.975 37.0929C33.1071 36.9592 33.1963 36.7892 33.2313 36.6045C33.2662 36.4199 33.2454 36.229 33.1713 36.0563C33.0972 35.8836 32.9733 35.7369 32.8155 35.6349C32.6576 35.5329 32.4729 35.4804 32.285 35.4839ZM19.992 35.5239C19.9627 35.5249 19.9349 35.5375 19.9147 35.5588C19.8945 35.5801 19.8835 35.6085 19.884 35.6378C19.8846 35.6672 19.8966 35.6952 19.9175 35.7157C19.9385 35.7363 19.9667 35.7478 19.996 35.7478C20.0254 35.7478 20.0536 35.7363 20.0745 35.7157C20.0954 35.6952 20.1075 35.6672 20.108 35.6378C20.1085 35.6085 20.0975 35.5801 20.0773 35.5588C20.0571 35.5375 20.0294 35.5249 20 35.5239C19.9974 35.5238 19.9947 35.5238 19.992 35.5239ZM27.992 35.5239C27.9627 35.5249 27.9349 35.5375 27.9147 35.5588C27.8945 35.5801 27.8835 35.6085 27.884 35.6378C27.8846 35.6672 27.8966 35.6952 27.9175 35.7157C27.9385 35.7363 27.9667 35.7478 27.996 35.7478C28.0254 35.7478 28.0536 35.7363 28.0745 35.7157C28.0954 35.6952 28.1075 35.6672 28.108 35.6378C28.1085 35.6085 28.0975 35.5801 28.0773 35.5588C28.0571 35.5375 28.0294 35.5249 28 35.5239C27.9974 35.5238 27.9947 35.5238 27.992 35.5239ZM17.586 35.9669V35.9689H17.588C17.678 35.9766 17.763 36.0135 17.83 36.0739C18.237 36.4359 17.755 36.8589 17.58 37.0429L16.717 37.9469C16.11 38.5779 15.846 39.0049 15.422 38.5969C15.062 38.2239 15.38 38.0019 16.068 37.3029L16.934 36.3979C17.138 36.1979 17.35 35.9559 17.586 35.9669ZM32.348 35.9689H32.35C32.44 35.9766 32.525 36.0135 32.592 36.0739C32.998 36.4359 32.517 36.8589 32.342 37.0429L31.479 37.9469C30.871 38.5779 30.607 39.0049 30.184 38.5969C29.824 38.2239 30.142 38.0019 30.83 37.3029L31.695 36.3999C31.9 36.1999 32.112 35.9589 32.348 35.9689ZM19.992 36.0859C19.9773 36.0868 19.9629 36.0906 19.9497 36.0971C19.9365 36.1036 19.9246 36.1126 19.9149 36.1237C19.9051 36.1347 19.8976 36.1476 19.8929 36.1615C19.8881 36.1754 19.8861 36.1902 19.887 36.2049C19.8879 36.2196 19.8917 36.234 19.8982 36.2472C19.9047 36.2605 19.9137 36.2723 19.9248 36.282C19.9358 36.2918 19.9487 36.2993 19.9626 36.3041C19.9766 36.3088 19.9913 36.3108 20.006 36.3099C20.0357 36.308 20.0635 36.2945 20.0832 36.2721C20.1029 36.2498 20.1129 36.2206 20.111 36.1909C20.1092 36.1612 20.0956 36.1334 20.0733 36.1138C20.0509 36.0941 20.0217 36.084 19.992 36.0859ZM27.992 36.0859C27.9773 36.0868 27.9629 36.0906 27.9497 36.0971C27.9365 36.1036 27.9246 36.1126 27.9149 36.1237C27.9051 36.1347 27.8976 36.1476 27.8929 36.1615C27.8881 36.1754 27.8861 36.1902 27.887 36.2049C27.8879 36.2196 27.8917 36.234 27.8982 36.2472C27.9047 36.2605 27.9137 36.2723 27.9248 36.282C27.9358 36.2918 27.9487 36.2993 27.9626 36.3041C27.9766 36.3088 27.9913 36.3108 28.006 36.3099C28.0357 36.308 28.0635 36.2945 28.0832 36.2721C28.1029 36.2498 28.1129 36.2206 28.111 36.1909C28.1092 36.1612 28.0956 36.1334 28.0733 36.1138C28.0509 36.0941 28.0217 36.084 27.992 36.0859ZM19.992 36.6479C19.9772 36.6484 19.9627 36.6519 19.9493 36.658C19.9358 36.6641 19.9237 36.6729 19.9136 36.6837C19.9036 36.6945 19.8957 36.7072 19.8906 36.721C19.8854 36.7349 19.883 36.7496 19.8835 36.7644C19.884 36.7792 19.8875 36.7937 19.8936 36.8071C19.8998 36.8206 19.9085 36.8327 19.9193 36.8428C19.9301 36.8529 19.9428 36.8607 19.9567 36.8659C19.9705 36.871 19.9852 36.8734 20 36.8729C20.0299 36.8729 20.0585 36.861 20.0796 36.84C20.1007 36.8189 20.1125 36.7902 20.1125 36.7604C20.1125 36.7306 20.1007 36.702 20.0796 36.6809C20.0585 36.6598 20.0299 36.6479 20 36.6479C19.9974 36.6478 19.9947 36.6478 19.992 36.6479ZM27.992 36.6479C27.9772 36.6484 27.9627 36.6519 27.9493 36.658C27.9358 36.6641 27.9237 36.6729 27.9136 36.6837C27.9036 36.6945 27.8957 36.7072 27.8906 36.721C27.8854 36.7349 27.883 36.7496 27.8835 36.7644C27.884 36.7792 27.8875 36.7937 27.8936 36.8071C27.8998 36.8206 27.9085 36.8327 27.9193 36.8428C27.9301 36.8529 27.9428 36.8607 27.9567 36.8659C27.9705 36.871 27.9852 36.8734 28 36.8729C28.0299 36.8729 28.0585 36.861 28.0796 36.84C28.1007 36.8189 28.1125 36.7902 28.1125 36.7604C28.1125 36.7306 28.1007 36.702 28.0796 36.6809C28.0585 36.6598 28.0299 36.6479 28 36.6479C27.9974 36.6478 27.9947 36.6478 27.992 36.6479ZM19.98 37.2109C19.9537 37.215 19.9298 37.2285 19.9127 37.2489C19.8956 37.2694 19.8865 37.2953 19.887 37.3219C19.887 37.3839 19.937 37.4349 20 37.4329C20.061 37.4329 20.11 37.3829 20.111 37.3229C20.111 37.2609 20.061 37.2119 20 37.2109H19.98ZM27.98 37.2109C27.9537 37.215 27.9298 37.2285 27.9127 37.2489C27.8956 37.2694 27.8865 37.2953 27.887 37.3219C27.887 37.3839 27.937 37.4349 28 37.4329C28.061 37.4329 28.11 37.3829 28.111 37.3229C28.111 37.2609 28.061 37.2119 28 37.2109H27.98ZM19.992 37.7709C19.9627 37.7719 19.9349 37.7845 19.9147 37.8058C19.8945 37.8271 19.8835 37.8555 19.884 37.8848C19.8846 37.9142 19.8966 37.9422 19.9175 37.9627C19.9385 37.9833 19.9667 37.9948 19.996 37.9948C20.0254 37.9948 20.0536 37.9833 20.0745 37.9627C20.0954 37.9422 20.1075 37.9142 20.108 37.8848C20.1085 37.8555 20.0975 37.8271 20.0773 37.8058C20.0571 37.7845 20.0294 37.7719 20 37.7709C19.9974 37.7708 19.9947 37.7708 19.992 37.7709ZM27.992 37.7709C27.9627 37.7719 27.9349 37.7845 27.9147 37.8058C27.8945 37.8271 27.8835 37.8555 27.884 37.8848C27.8846 37.9142 27.8966 37.9422 27.9175 37.9627C27.9385 37.9833 27.9667 37.9948 27.996 37.9948C28.0254 37.9948 28.0536 37.9833 28.0745 37.9627C28.0954 37.9422 28.1075 37.9142 28.108 37.8848C28.1085 37.8555 28.0975 37.8271 28.0773 37.8058C28.0571 37.7845 28.0294 37.7719 28 37.7709C27.9974 37.7708 27.9947 37.7708 27.992 37.7709ZM24.862 38.1349V38.1369C24.7373 38.1387 24.6141 38.1651 24.4996 38.2147C24.3851 38.2643 24.2816 38.3361 24.195 38.4259L22.387 40.2829C22.3003 40.3719 22.232 40.477 22.186 40.5924C22.14 40.7078 22.1171 40.8311 22.1188 40.9553C22.1204 41.0795 22.1465 41.2021 22.1955 41.3163C22.2445 41.4304 22.3155 41.5337 22.4045 41.6204C22.4935 41.7071 22.5987 41.7754 22.714 41.8214C22.8294 41.8674 22.9527 41.8903 23.0769 41.8887C23.2011 41.887 23.3238 41.861 23.4379 41.8119C23.552 41.7629 23.6553 41.6919 23.742 41.6029L25.551 39.7439C25.6834 39.6103 25.773 39.4401 25.8081 39.2553C25.8433 39.0705 25.8225 38.8794 25.7484 38.7065C25.6743 38.5335 25.5502 38.3867 25.3921 38.2847C25.2341 38.1827 25.0491 38.1302 24.861 38.1339L24.862 38.1349ZM19.992 38.3339C19.9634 38.3357 19.9365 38.3484 19.917 38.3694C19.8974 38.3905 19.8867 38.4182 19.887 38.4469C19.887 38.5089 19.937 38.5599 20 38.5579C20.061 38.5579 20.11 38.5079 20.111 38.4479C20.1113 38.4324 20.1084 38.417 20.1025 38.4027C20.0965 38.3884 20.0877 38.3755 20.0765 38.3648C20.0653 38.3541 20.0521 38.3458 20.0375 38.3405C20.023 38.3352 20.0075 38.3329 19.992 38.3339ZM27.992 38.3339C27.9634 38.3357 27.9365 38.3484 27.917 38.3694C27.8974 38.3905 27.8867 38.4182 27.887 38.4469C27.887 38.5089 27.937 38.5599 28 38.5579C28.061 38.5579 28.11 38.5079 28.111 38.4479C28.1113 38.4324 28.1084 38.417 28.1025 38.4027C28.0965 38.3884 28.0877 38.3755 28.0765 38.3648C28.0653 38.3541 28.0521 38.3458 28.0375 38.3405C28.023 38.3352 28.0075 38.3329 27.992 38.3339ZM24.924 38.6169V38.6189H24.926C25.016 38.6266 25.101 38.6634 25.168 38.7239C25.575 39.0859 25.093 39.5099 24.918 39.6939L24.055 40.5969C23.447 41.2289 23.183 41.6559 22.76 41.2469C22.4 40.8739 22.718 40.6519 23.406 39.9529L24.272 39.0489C24.476 38.8479 24.688 38.6069 24.924 38.6169ZM19.992 38.8969C19.9627 38.8979 19.9349 38.9105 19.9147 38.9318C19.8945 38.9531 19.8835 38.9815 19.884 39.0108C19.8846 39.0402 19.8966 39.0682 19.9175 39.0887C19.9385 39.1093 19.9667 39.1208 19.996 39.1208C20.0254 39.1208 20.0536 39.1093 20.0745 39.0887C20.0954 39.0682 20.1075 39.0402 20.108 39.0108C20.1085 38.9815 20.0975 38.9531 20.0773 38.9318C20.0571 38.9105 20.0294 38.8979 20 38.8969C19.9974 38.8968 19.9947 38.8968 19.992 38.8969ZM27.992 38.8969C27.9627 38.8979 27.9349 38.9105 27.9147 38.9318C27.8945 38.9531 27.8835 38.9815 27.884 39.0108C27.8846 39.0402 27.8966 39.0682 27.9175 39.0887C27.9385 39.1093 27.9667 39.1208 27.996 39.1208C28.0254 39.1208 28.0536 39.1093 28.0745 39.0887C28.0954 39.0682 28.1075 39.0402 28.108 39.0108C28.1085 38.9815 28.0975 38.9531 28.0773 38.9318C28.0571 38.9105 28.0294 38.8979 28 38.8969C27.9974 38.8968 27.9947 38.8968 27.992 38.8969ZM19.992 39.4589C19.9773 39.4598 19.9629 39.4636 19.9497 39.4701C19.9365 39.4766 19.9246 39.4856 19.9149 39.4967C19.9051 39.5077 19.8976 39.5206 19.8929 39.5345C19.8881 39.5484 19.8861 39.5632 19.887 39.5779C19.8879 39.5926 19.8917 39.607 19.8982 39.6202C19.9047 39.6335 19.9137 39.6453 19.9248 39.655C19.9358 39.6648 19.9487 39.6723 19.9626 39.6771C19.9766 39.6818 19.9913 39.6838 20.006 39.6829C20.0357 39.681 20.0635 39.6675 20.0832 39.6451C20.1029 39.6228 20.1129 39.5936 20.111 39.5639C20.1092 39.5342 20.0956 39.5064 20.0733 39.4868C20.0509 39.4671 20.0217 39.457 19.992 39.4589ZM27.992 39.4589C27.9773 39.4598 27.9629 39.4636 27.9497 39.4701C27.9365 39.4766 27.9246 39.4856 27.9149 39.4967C27.9051 39.5077 27.8976 39.5206 27.8929 39.5345C27.8881 39.5484 27.8861 39.5632 27.887 39.5779C27.8879 39.5926 27.8917 39.607 27.8982 39.6202C27.9047 39.6335 27.9137 39.6453 27.9248 39.655C27.9358 39.6648 27.9487 39.6723 27.9626 39.6771C27.9766 39.6818 27.9913 39.6838 28.006 39.6829C28.0357 39.681 28.0635 39.6675 28.0832 39.6451C28.1029 39.6228 28.1129 39.5936 28.111 39.5639C28.1092 39.5342 28.0956 39.5064 28.0733 39.4868C28.0509 39.4671 28.0217 39.457 27.992 39.4589ZM19.992 40.0209C19.9772 40.0218 19.9628 40.0256 19.9495 40.0321C19.9362 40.0386 19.9243 40.0477 19.9145 40.0588C19.9047 40.0699 19.8972 40.0828 19.8924 40.0968C19.8876 40.1108 19.8856 40.1256 19.8865 40.1404C19.8874 40.1552 19.8913 40.1696 19.8978 40.1829C19.9043 40.1962 19.9133 40.2081 19.9244 40.2179C19.9355 40.2277 19.9484 40.2352 19.9624 40.24C19.9764 40.2448 19.9912 40.2468 20.006 40.2459C20.0359 40.244 20.0637 40.2304 20.0835 40.208C20.1033 40.1856 20.1134 40.1562 20.1115 40.1264C20.1097 40.0966 20.096 40.0687 20.0736 40.0489C20.0512 40.0291 20.0219 40.019 19.992 40.0209ZM27.992 40.0209C27.9772 40.0218 27.9628 40.0256 27.9495 40.0321C27.9362 40.0386 27.9243 40.0477 27.9145 40.0588C27.9047 40.0699 27.8972 40.0828 27.8924 40.0968C27.8876 40.1108 27.8856 40.1256 27.8865 40.1404C27.8874 40.1552 27.8913 40.1696 27.8978 40.1829C27.9043 40.1962 27.9133 40.2081 27.9244 40.2179C27.9355 40.2277 27.9484 40.2352 27.9624 40.24C27.9764 40.2448 27.9912 40.2468 28.006 40.2459C28.0359 40.244 28.0637 40.2304 28.0835 40.208C28.1033 40.1856 28.1134 40.1562 28.1115 40.1264C28.1097 40.0966 28.096 40.0687 28.0736 40.0489C28.0512 40.0291 28.0219 40.019 27.992 40.0209ZM19.992 40.5839C19.9773 40.5848 19.9629 40.5886 19.9497 40.5951C19.9365 40.6016 19.9246 40.6106 19.9149 40.6217C19.9051 40.6327 19.8976 40.6456 19.8929 40.6595C19.8881 40.6734 19.8861 40.6882 19.887 40.7029C19.8879 40.7176 19.8917 40.732 19.8982 40.7452C19.9047 40.7585 19.9137 40.7703 19.9248 40.78C19.9358 40.7898 19.9487 40.7973 19.9626 40.8021C19.9766 40.8068 19.9913 40.8088 20.006 40.8079C20.0357 40.806 20.0635 40.7925 20.0832 40.7701C20.1029 40.7478 20.1129 40.7186 20.111 40.6889C20.1092 40.6592 20.0956 40.6314 20.0733 40.6118C20.0509 40.5921 20.0217 40.582 19.992 40.5839ZM27.992 40.5839C27.9773 40.5848 27.9629 40.5886 27.9497 40.5951C27.9365 40.6016 27.9246 40.6106 27.9149 40.6217C27.9051 40.6327 27.8976 40.6456 27.8929 40.6595C27.8881 40.6734 27.8861 40.6882 27.887 40.7029C27.8879 40.7176 27.8917 40.732 27.8982 40.7452C27.9047 40.7585 27.9137 40.7703 27.9248 40.78C27.9358 40.7898 27.9487 40.7973 27.9626 40.8021C27.9766 40.8068 27.9913 40.8088 28.006 40.8079C28.0357 40.806 28.0635 40.7925 28.0832 40.7701C28.1029 40.7478 28.1129 40.7186 28.111 40.6889C28.1092 40.6592 28.0956 40.6314 28.0733 40.6118C28.0509 40.5921 28.0217 40.582 27.992 40.5839ZM19.98 41.1459C19.9535 41.15 19.9295 41.1637 19.9123 41.1843C19.8952 41.2049 19.8862 41.2311 19.887 41.2579C19.8868 41.2803 19.8933 41.3022 19.9056 41.3209C19.9179 41.3397 19.9354 41.3543 19.9561 41.363C19.9767 41.3717 19.9995 41.3741 20.0214 41.3699C20.0434 41.3656 20.0637 41.3549 20.0796 41.3392C20.0955 41.3234 20.1063 41.3033 20.1108 41.2813C20.1152 41.2594 20.113 41.2366 20.1045 41.2159C20.096 41.1952 20.0815 41.1775 20.0629 41.165C20.0443 41.1526 20.0224 41.1459 20 41.1459H19.98ZM27.98 41.1459C27.9535 41.15 27.9295 41.1637 27.9123 41.1843C27.8952 41.2049 27.8862 41.2311 27.887 41.2579C27.8868 41.2803 27.8933 41.3022 27.9056 41.3209C27.9179 41.3397 27.9354 41.3543 27.9561 41.363C27.9767 41.3717 27.9995 41.3741 28.0214 41.3699C28.0434 41.3656 28.0637 41.3549 28.0796 41.3392C28.0955 41.3234 28.1063 41.3033 28.1108 41.2813C28.1152 41.2594 28.113 41.2366 28.1045 41.2159C28.096 41.1952 28.0815 41.1775 28.0629 41.165C28.0443 41.1526 28.0224 41.1459 28 41.1459H27.98ZM19.98 41.7089C19.9537 41.713 19.9298 41.7265 19.9127 41.7469C19.8956 41.7674 19.8865 41.7933 19.887 41.8199C19.887 41.8819 19.937 41.9329 20 41.9309C20.061 41.9309 20.11 41.8809 20.111 41.8209C20.111 41.7589 20.061 41.7099 20 41.7089H19.98ZM27.98 41.7089C27.9537 41.713 27.9298 41.7265 27.9127 41.7469C27.8956 41.7674 27.8865 41.7933 27.887 41.8199C27.887 41.8819 27.937 41.9329 28 41.9309C28.061 41.9309 28.11 41.8809 28.111 41.8209C28.111 41.7589 28.061 41.7099 28 41.7089H27.98ZM20.002 42.2689C19.9872 42.2688 19.9726 42.2715 19.9589 42.2771C19.9452 42.2826 19.9327 42.2908 19.9222 42.3011C19.9116 42.3115 19.9032 42.3238 19.8975 42.3374C19.8917 42.351 19.8886 42.3656 19.8885 42.3804C19.8884 42.3952 19.8912 42.4098 19.8967 42.4235C19.9022 42.4372 19.9104 42.4497 19.9208 42.4602C19.9311 42.4708 19.9434 42.4792 19.957 42.485C19.9706 42.4907 19.9852 42.4938 20 42.4939C20.0299 42.4942 20.0586 42.4826 20.0799 42.4617C20.1011 42.4407 20.1133 42.4122 20.1135 42.3824C20.1138 42.3526 20.1022 42.3238 20.0813 42.3026C20.0604 42.2813 20.0319 42.2692 20.002 42.2689ZM28.002 42.2689C27.9872 42.2688 27.9726 42.2715 27.9589 42.2771C27.9452 42.2826 27.9327 42.2908 27.9222 42.3011C27.9116 42.3115 27.9032 42.3238 27.8975 42.3374C27.8917 42.351 27.8886 42.3656 27.8885 42.3804C27.8884 42.3952 27.8912 42.4098 27.8967 42.4235C27.9022 42.4372 27.9104 42.4497 27.9208 42.4602C27.9311 42.4708 27.9434 42.4792 27.957 42.485C27.9706 42.4907 27.9852 42.4938 28 42.4939C28.0299 42.4942 28.0586 42.4826 28.0799 42.4617C28.1011 42.4407 28.1133 42.4122 28.1135 42.3824C28.1138 42.3526 28.1022 42.3238 28.0813 42.3026C28.0604 42.2813 28.0319 42.2692 28.002 42.2689ZM19.992 42.8319C19.9627 42.833 19.9349 42.8455 19.9147 42.8668C19.8945 42.8881 19.8835 42.9165 19.884 42.9458C19.8846 42.9752 19.8966 43.0032 19.9175 43.0237C19.9385 43.0443 19.9667 43.0558 19.996 43.0558C20.0254 43.0558 20.0536 43.0443 20.0745 43.0237C20.0954 43.0032 20.1075 42.9752 20.108 42.9458C20.1085 42.9165 20.0975 42.8881 20.0773 42.8668C20.0571 42.8455 20.0294 42.833 20 42.8319C19.9974 42.8318 19.9947 42.8318 19.992 42.8319ZM27.992 42.8319C27.9627 42.833 27.9349 42.8455 27.9147 42.8668C27.8945 42.8881 27.8835 42.9165 27.884 42.9458C27.8846 42.9752 27.8966 43.0032 27.9175 43.0237C27.9385 43.0443 27.9667 43.0558 27.996 43.0558C28.0254 43.0558 28.0536 43.0443 28.0745 43.0237C28.0954 43.0032 28.1075 42.9752 28.108 42.9458C28.1085 42.9165 28.0975 42.8881 28.0773 42.8668C28.0571 42.8455 28.0294 42.833 28 42.8319C27.9974 42.8318 27.9947 42.8318 27.992 42.8319Z" fill="#333333"/>
</svg>
