<svg width="48" height="48" viewBox="0 0 48 48" fill="none" xmlns="http://www.w3.org/2000/svg">
<path d="M28.938 4.05497C24.018 4.03997 19.153 4.09797 14.178 4.09797C13.308 4.09797 12.611 4.79697 12.611 5.66597V42.527C12.611 43.397 13.308 44.097 14.178 44.097H33.883C34.753 44.097 35.451 43.397 35.451 42.527V5.66697C35.451 4.79697 34.752 4.09697 33.883 4.09697C32.2345 4.07227 30.5858 4.05827 28.937 4.05497H28.938ZM18.835 5.12897H18.843C18.8724 5.13002 18.9001 5.14254 18.9203 5.16385C18.9405 5.18516 18.9515 5.21354 18.951 5.2429C18.9505 5.27225 18.9385 5.30022 18.9175 5.3208C18.8966 5.34137 18.8684 5.3529 18.839 5.3529C18.8097 5.3529 18.7815 5.34137 18.7605 5.3208C18.7396 5.30022 18.7276 5.27225 18.727 5.2429C18.7265 5.21354 18.7375 5.18516 18.7577 5.16385C18.7779 5.14254 18.8057 5.13002 18.835 5.12897ZM24.022 5.12897H24.03C24.0594 5.13002 24.0871 5.14254 24.1073 5.16385C24.1275 5.18516 24.1385 5.21354 24.138 5.2429C24.1375 5.27225 24.1255 5.30022 24.1045 5.3208C24.0836 5.34137 24.0554 5.3529 24.026 5.3529C23.9967 5.3529 23.9685 5.34137 23.9475 5.3208C23.9266 5.30022 23.9146 5.27225 23.914 5.2429C23.9135 5.21354 23.9245 5.18516 23.9447 5.16385C23.9649 5.14254 23.9927 5.13002 24.022 5.12897ZM29.21 5.12897H29.218C29.2474 5.13002 29.2751 5.14254 29.2953 5.16385C29.3155 5.18516 29.3265 5.21354 29.326 5.2429C29.3255 5.27225 29.3135 5.30022 29.2925 5.3208C29.2716 5.34137 29.2434 5.3529 29.214 5.3529C29.1847 5.3529 29.1565 5.34137 29.1355 5.3208C29.1146 5.30022 29.1026 5.27225 29.102 5.2429C29.1015 5.21354 29.1125 5.18516 29.1327 5.16385C29.1529 5.14254 29.1807 5.13002 29.21 5.12897ZM18.835 5.69097H18.843C18.8724 5.69202 18.9001 5.70454 18.9203 5.72585C18.9405 5.74716 18.9515 5.77554 18.951 5.8049C18.9505 5.83425 18.9385 5.86222 18.9175 5.8828C18.8966 5.90337 18.8684 5.9149 18.839 5.9149C18.8097 5.9149 18.7815 5.90337 18.7605 5.8828C18.7396 5.86222 18.7276 5.83425 18.727 5.8049C18.7265 5.77554 18.7375 5.74716 18.7577 5.72585C18.7779 5.70454 18.8057 5.69202 18.835 5.69097ZM24.022 5.69097H24.03C24.0594 5.69202 24.0871 5.70454 24.1073 5.72585C24.1275 5.74716 24.1385 5.77554 24.138 5.8049C24.1375 5.83425 24.1255 5.86222 24.1045 5.8828C24.0836 5.90337 24.0554 5.9149 24.026 5.9149C23.9967 5.9149 23.9685 5.90337 23.9475 5.8828C23.9266 5.86222 23.9146 5.83425 23.914 5.8049C23.9135 5.77554 23.9245 5.74716 23.9447 5.72585C23.9649 5.70454 23.9927 5.69202 24.022 5.69097ZM29.21 5.69097H29.218C29.2474 5.69202 29.2751 5.70454 29.2953 5.72585C29.3155 5.74716 29.3265 5.77554 29.326 5.8049C29.3255 5.83425 29.3135 5.86222 29.2925 5.8828C29.2716 5.90337 29.2434 5.9149 29.214 5.9149C29.1847 5.9149 29.1565 5.90337 29.1355 5.8828C29.1146 5.86222 29.1026 5.83425 29.102 5.8049C29.1015 5.77554 29.1125 5.74716 29.1327 5.72585C29.1529 5.70454 29.1807 5.69202 29.21 5.69097ZM18.825 6.25397H18.844C18.905 6.25397 18.954 6.30397 18.955 6.36497C18.955 6.38638 18.9488 6.40733 18.9372 6.42533C18.9256 6.44333 18.9091 6.45763 18.8896 6.46653C18.8701 6.47543 18.8485 6.47857 18.8273 6.47556C18.8061 6.47255 18.7862 6.46353 18.77 6.44957C18.7537 6.4356 18.7419 6.41728 18.7357 6.39676C18.7296 6.37625 18.7295 6.3544 18.7354 6.33382C18.7413 6.31323 18.7529 6.29477 18.769 6.28062C18.7851 6.26647 18.8049 6.25722 18.826 6.25397H18.825ZM24.013 6.25397H24.03C24.092 6.25397 24.141 6.30397 24.142 6.36497C24.142 6.42697 24.092 6.47597 24.03 6.47697C24.0014 6.47754 23.9737 6.46714 23.9525 6.4479C23.9313 6.42866 23.9183 6.40204 23.9161 6.3735C23.9139 6.34497 23.9228 6.31669 23.9408 6.29446C23.9588 6.27223 23.9847 6.25774 24.013 6.25397ZM29.2 6.25397H29.22C29.281 6.25397 29.33 6.30397 29.331 6.36497C29.331 6.38638 29.3248 6.40733 29.3132 6.42533C29.3016 6.44333 29.2851 6.45763 29.2656 6.46653C29.2461 6.47543 29.2245 6.47857 29.2033 6.47556C29.1821 6.47255 29.1622 6.46353 29.146 6.44957C29.1297 6.4356 29.1179 6.41728 29.1117 6.39676C29.1056 6.37625 29.1055 6.3544 29.1114 6.33382C29.1173 6.31323 29.1289 6.29477 29.145 6.28062C29.1611 6.26647 29.1809 6.25722 29.202 6.25397H29.2ZM18.845 6.81397C18.8598 6.8141 18.8744 6.81714 18.888 6.82291C18.9016 6.82869 18.9139 6.83709 18.9243 6.84763C18.9346 6.85817 18.9428 6.87064 18.9483 6.88434C18.9539 6.89804 18.9567 6.91269 18.9565 6.92747C18.9564 6.94224 18.9534 6.95685 18.9476 6.97044C18.9418 6.98404 18.9334 6.99637 18.9229 7.00673C18.9123 7.01708 18.8998 7.02525 18.8862 7.03079C18.8725 7.03632 18.8578 7.0391 18.843 7.03897C18.8133 7.0387 18.7849 7.02665 18.7641 7.00546C18.7433 6.98427 18.7318 6.95567 18.732 6.92597C18.7323 6.89626 18.7443 6.86788 18.7655 6.84707C18.7867 6.82625 18.8153 6.8147 18.845 6.81497V6.81397ZM24.032 6.81397C24.0619 6.81423 24.0904 6.82634 24.1113 6.84763C24.1322 6.86891 24.1438 6.89763 24.1435 6.92747C24.1433 6.9573 24.1312 6.98581 24.1099 7.00673C24.0886 7.02764 24.0599 7.03923 24.03 7.03897C24.0003 7.0387 23.9719 7.02665 23.9511 7.00546C23.9303 6.98427 23.9188 6.95567 23.919 6.92597C23.9193 6.89626 23.9313 6.86788 23.9525 6.84707C23.9737 6.82625 24.0023 6.8147 24.032 6.81497V6.81397ZM29.22 6.81397C29.2499 6.81423 29.2784 6.82634 29.2993 6.84763C29.3202 6.86891 29.3318 6.89763 29.3315 6.92747C29.3313 6.9573 29.3192 6.98581 29.2979 7.00673C29.2766 7.02764 29.2479 7.03923 29.218 7.03897C29.1883 7.0387 29.1599 7.02665 29.1391 7.00546C29.1183 6.98427 29.1068 6.95567 29.107 6.92597C29.1073 6.89626 29.1193 6.86788 29.1405 6.84707C29.1617 6.82625 29.1903 6.8147 29.22 6.81497V6.81397ZM16.03 7.01997C16.4341 7.01997 16.8216 7.18048 17.1073 7.46619C17.393 7.7519 17.5535 8.13941 17.5535 8.54347C17.5535 8.94753 17.393 9.33503 17.1073 9.62075C16.8216 9.90646 16.4341 10.067 16.03 10.067C15.626 10.067 15.2385 9.90646 14.9527 9.62075C14.667 9.33503 14.5065 8.94753 14.5065 8.54347C14.5065 8.13941 14.667 7.7519 14.9527 7.46619C15.2385 7.18048 15.626 7.01997 16.03 7.01997ZM21.364 7.01997C21.5674 7.01476 21.7697 7.05031 21.9591 7.12453C22.1485 7.19875 22.3211 7.31014 22.4668 7.45212C22.6125 7.59411 22.7282 7.76382 22.8073 7.95125C22.8863 8.13869 22.9271 8.34005 22.9271 8.54347C22.9271 8.74689 22.8863 8.94825 22.8073 9.13568C22.7282 9.32312 22.6125 9.49283 22.4668 9.63481C22.3211 9.7768 22.1485 9.88818 21.9591 9.96241C21.7697 10.0366 21.5674 10.0722 21.364 10.067C20.9667 10.0568 20.5891 9.89181 20.3117 9.60721C20.0343 9.32261 19.8791 8.9409 19.8791 8.54347C19.8791 8.14604 20.0343 7.76433 20.3117 7.47973C20.5891 7.19513 20.9667 7.03015 21.364 7.01997ZM26.696 7.01997C27.0999 7.01997 27.4873 7.18043 27.7729 7.46604C28.0586 7.75166 28.219 8.13904 28.219 8.54297C28.219 8.94689 28.0586 9.33427 27.7729 9.61989C27.4873 9.90551 27.0999 10.066 26.696 10.066C26.2921 10.066 25.9047 9.90551 25.6191 9.61989C25.3335 9.33427 25.173 8.94689 25.173 8.54297C25.173 8.13904 25.3335 7.75166 25.6191 7.46604C25.9047 7.18043 26.2921 7.01997 26.696 7.01997ZM32.03 7.01997C32.4341 7.01997 32.8216 7.18048 33.1073 7.46619C33.393 7.7519 33.5535 8.13941 33.5535 8.54347C33.5535 8.94753 33.393 9.33503 33.1073 9.62075C32.8216 9.90646 32.4341 10.067 32.03 10.067C31.626 10.067 31.2385 9.90646 30.9527 9.62075C30.667 9.33503 30.5065 8.94753 30.5065 8.54347C30.5065 8.13941 30.667 7.7519 30.9527 7.46619C31.2385 7.18048 31.626 7.01997 32.03 7.01997ZM18.835 7.37697H18.843C18.8726 7.37802 18.9006 7.39065 18.921 7.41214C18.9414 7.43364 18.9525 7.46228 18.952 7.4919C18.9515 7.52152 18.9393 7.54974 18.9182 7.5705C18.8971 7.59126 18.8686 7.6029 18.839 7.6029C18.8094 7.6029 18.781 7.59126 18.7598 7.5705C18.7387 7.54974 18.7266 7.52152 18.726 7.4919C18.7255 7.46228 18.7366 7.43364 18.757 7.41214C18.7774 7.39065 18.8054 7.37802 18.835 7.37697ZM24.022 7.37697H24.03C24.0596 7.37802 24.0876 7.39065 24.108 7.41214C24.1284 7.43364 24.1395 7.46228 24.139 7.4919C24.1385 7.52152 24.1263 7.54974 24.1052 7.5705C24.0841 7.59126 24.0556 7.6029 24.026 7.6029C23.9964 7.6029 23.968 7.59126 23.9468 7.5705C23.9257 7.54974 23.9136 7.52152 23.913 7.4919C23.9125 7.46228 23.9236 7.43364 23.944 7.41214C23.9644 7.39065 23.9924 7.37802 24.022 7.37697ZM29.21 7.37697H29.218C29.2476 7.37802 29.2756 7.39065 29.296 7.41214C29.3164 7.43364 29.3275 7.46228 29.327 7.4919C29.3265 7.52152 29.3143 7.54974 29.2932 7.5705C29.2721 7.59126 29.2436 7.6029 29.214 7.6029C29.1844 7.6029 29.156 7.59126 29.1348 7.5705C29.1137 7.54974 29.1016 7.52152 29.101 7.4919C29.1005 7.46228 29.1116 7.43364 29.132 7.41214C29.1524 7.39065 29.1804 7.37802 29.21 7.37697ZM18.835 7.93697H18.843C18.8726 7.93802 18.9006 7.95065 18.921 7.97214C18.9414 7.99364 18.9525 8.02228 18.952 8.0519C18.9515 8.08152 18.9393 8.10974 18.9182 8.1305C18.8971 8.15127 18.8686 8.1629 18.839 8.1629C18.8094 8.1629 18.781 8.15127 18.7598 8.1305C18.7387 8.10974 18.7266 8.08152 18.726 8.0519C18.7255 8.02228 18.7366 7.99364 18.757 7.97214C18.7774 7.95065 18.8054 7.93802 18.835 7.93697ZM24.022 7.93697H24.03C24.0596 7.93802 24.0876 7.95065 24.108 7.97214C24.1284 7.99364 24.1395 8.02228 24.139 8.0519C24.1385 8.08152 24.1263 8.10974 24.1052 8.1305C24.0841 8.15127 24.0556 8.1629 24.026 8.1629C23.9964 8.1629 23.968 8.15127 23.9468 8.1305C23.9257 8.10974 23.9136 8.08152 23.913 8.0519C23.9125 8.02228 23.9236 7.99364 23.944 7.97214C23.9644 7.95065 23.9924 7.93802 24.022 7.93697ZM29.21 7.93697H29.218C29.2476 7.93802 29.2756 7.95065 29.296 7.97214C29.3164 7.99364 29.3275 8.02228 29.327 8.0519C29.3265 8.08152 29.3143 8.10974 29.2932 8.1305C29.2721 8.15127 29.2436 8.1629 29.214 8.1629C29.1844 8.1629 29.156 8.15127 29.1348 8.1305C29.1137 8.10974 29.1016 8.08152 29.101 8.0519C29.1005 8.02228 29.1116 7.99364 29.132 7.97214C29.1524 7.95065 29.1804 7.93802 29.21 7.93697ZM18.836 8.49997H18.844C18.8736 8.50102 18.9016 8.51365 18.922 8.53514C18.9424 8.55664 18.9535 8.58528 18.953 8.6149C18.9525 8.64452 18.9403 8.67274 18.9192 8.69351C18.8981 8.71427 18.8696 8.7259 18.84 8.7259C18.8104 8.7259 18.782 8.71427 18.7608 8.69351C18.7397 8.67274 18.7276 8.64452 18.727 8.6149C18.7265 8.58528 18.7376 8.55664 18.758 8.53514C18.7784 8.51365 18.8064 8.50102 18.836 8.49997ZM24.023 8.49997H24.031C24.0606 8.50102 24.0886 8.51365 24.109 8.53514C24.1294 8.55664 24.1405 8.58528 24.14 8.6149C24.1395 8.64452 24.1273 8.67274 24.1062 8.69351C24.0851 8.71427 24.0566 8.7259 24.027 8.7259C23.9974 8.7259 23.969 8.71427 23.9478 8.69351C23.9267 8.67274 23.9146 8.64452 23.914 8.6149C23.9135 8.58528 23.9246 8.55664 23.945 8.53514C23.9654 8.51365 23.9934 8.50102 24.023 8.49997ZM29.211 8.49997H29.219C29.2486 8.50102 29.2766 8.51365 29.297 8.53514C29.3174 8.55664 29.3285 8.58528 29.328 8.6149C29.3275 8.64452 29.3153 8.67274 29.2942 8.69351C29.2731 8.71427 29.2446 8.7259 29.215 8.7259C29.1854 8.7259 29.157 8.71427 29.1358 8.69351C29.1147 8.67274 29.1026 8.64452 29.102 8.6149C29.1015 8.58528 29.1126 8.55664 29.133 8.53514C29.1534 8.51365 29.1814 8.50102 29.211 8.49997ZM18.836 9.06297H18.844C18.8734 9.06402 18.9011 9.07654 18.9213 9.09785C18.9415 9.11916 18.9525 9.14754 18.952 9.1769C18.9515 9.20625 18.9395 9.23422 18.9185 9.2548C18.8976 9.27537 18.8694 9.2869 18.84 9.2869C18.8107 9.2869 18.7825 9.27537 18.7615 9.2548C18.7406 9.23422 18.7286 9.20625 18.728 9.1769C18.7275 9.14754 18.7385 9.11916 18.7587 9.09785C18.7789 9.07654 18.8067 9.06402 18.836 9.06297ZM24.023 9.06297H24.031C24.0604 9.06402 24.0881 9.07654 24.1083 9.09785C24.1285 9.11916 24.1395 9.14754 24.139 9.1769C24.1385 9.20625 24.1265 9.23422 24.1055 9.2548C24.0846 9.27537 24.0564 9.2869 24.027 9.2869C23.9977 9.2869 23.9695 9.27537 23.9485 9.2548C23.9276 9.23422 23.9156 9.20625 23.915 9.1769C23.9145 9.14754 23.9255 9.11916 23.9457 9.09785C23.9659 9.07654 23.9937 9.06402 24.023 9.06297ZM29.211 9.06297H29.219C29.2484 9.06402 29.2761 9.07654 29.2963 9.09785C29.3165 9.11916 29.3275 9.14754 29.327 9.1769C29.3265 9.20625 29.3145 9.23422 29.2935 9.2548C29.2726 9.27537 29.2444 9.2869 29.215 9.2869C29.1857 9.2869 29.1575 9.27537 29.1365 9.2548C29.1156 9.23422 29.1036 9.20625 29.103 9.1769C29.1025 9.14754 29.1135 9.11916 29.1337 9.09785C29.1539 9.07654 29.1817 9.06402 29.211 9.06297ZM18.836 9.62497H18.844C18.8734 9.62602 18.9011 9.63854 18.9213 9.65985C18.9415 9.68116 18.9525 9.70954 18.952 9.7389C18.9515 9.76825 18.9395 9.79622 18.9185 9.8168C18.8976 9.83737 18.8694 9.8489 18.84 9.8489C18.8107 9.8489 18.7825 9.83737 18.7615 9.8168C18.7406 9.79622 18.7286 9.76825 18.728 9.7389C18.7275 9.70954 18.7385 9.68116 18.7587 9.65985C18.7789 9.63854 18.8067 9.62602 18.836 9.62497ZM24.023 9.62497H24.031C24.0604 9.62602 24.0881 9.63854 24.1083 9.65985C24.1285 9.68116 24.1395 9.70954 24.139 9.7389C24.1385 9.76825 24.1265 9.79622 24.1055 9.8168C24.0846 9.83737 24.0564 9.8489 24.027 9.8489C23.9977 9.8489 23.9695 9.83737 23.9485 9.8168C23.9276 9.79622 23.9156 9.76825 23.915 9.7389C23.9145 9.70954 23.9255 9.68116 23.9457 9.65985C23.9659 9.63854 23.9937 9.62602 24.023 9.62497ZM29.211 9.62497H29.219C29.2484 9.62602 29.2761 9.63854 29.2963 9.65985C29.3165 9.68116 29.3275 9.70954 29.327 9.7389C29.3265 9.76825 29.3145 9.79622 29.2935 9.8168C29.2726 9.83737 29.2444 9.8489 29.215 9.8489C29.1857 9.8489 29.1575 9.83737 29.1365 9.8168C29.1156 9.79622 29.1036 9.76825 29.103 9.7389C29.1025 9.70954 29.1135 9.68116 29.1337 9.65985C29.1539 9.63854 29.1817 9.62602 29.211 9.62497ZM18.824 10.188H18.844C18.905 10.188 18.954 10.24 18.955 10.301C18.955 10.3307 18.9432 10.3592 18.9222 10.3802C18.9012 10.4012 18.8727 10.413 18.843 10.413C18.8133 10.413 18.7848 10.4012 18.7638 10.3802C18.7428 10.3592 18.731 10.3307 18.731 10.301C18.731 10.246 18.77 10.195 18.824 10.188ZM24.012 10.188H24.031C24.093 10.188 24.142 10.24 24.143 10.301C24.143 10.3308 24.1312 10.3594 24.1101 10.3805C24.089 10.4016 24.0604 10.4135 24.0305 10.4135C24.0007 10.4135 23.9721 10.4016 23.951 10.3805C23.9299 10.3594 23.918 10.3308 23.918 10.301C23.918 10.246 23.958 10.195 24.012 10.188ZM29.199 10.188H29.219C29.28 10.188 29.329 10.24 29.33 10.301C29.33 10.3307 29.3182 10.3592 29.2972 10.3802C29.2762 10.4012 29.2477 10.413 29.218 10.413C29.1883 10.413 29.1598 10.4012 29.1388 10.3802C29.1178 10.3592 29.106 10.3307 29.106 10.301C29.106 10.246 29.145 10.195 29.199 10.188ZM18.846 10.748C18.908 10.748 18.958 10.801 18.957 10.863C18.957 10.8775 18.9541 10.8919 18.9486 10.9053C18.943 10.9187 18.9348 10.9309 18.9245 10.9411C18.9141 10.9513 18.9019 10.9594 18.8884 10.9649C18.875 10.9704 18.8606 10.9731 18.846 10.973C18.8312 10.9735 18.8165 10.9711 18.8027 10.9658C18.7889 10.9605 18.7763 10.9525 18.7656 10.9422C18.755 10.9319 18.7465 10.9196 18.7408 10.906C18.735 10.8924 18.732 10.8778 18.732 10.863C18.732 10.801 18.783 10.748 18.846 10.748ZM24.033 10.748C24.096 10.748 24.145 10.801 24.144 10.863C24.144 10.8921 24.1324 10.9201 24.1118 10.9408C24.0912 10.9614 24.0632 10.973 24.034 10.973C24.0192 10.9735 24.0045 10.9711 23.9907 10.9658C23.9769 10.9605 23.9643 10.9525 23.9536 10.9422C23.943 10.9319 23.9345 10.9196 23.9288 10.906C23.923 10.8924 23.92 10.8778 23.92 10.863C23.92 10.801 23.97 10.748 24.033 10.748ZM29.221 10.748C29.283 10.748 29.333 10.801 29.332 10.863C29.332 10.8775 29.3291 10.8919 29.3236 10.9053C29.318 10.9187 29.3098 10.9309 29.2995 10.9411C29.2891 10.9513 29.2769 10.9594 29.2634 10.9649C29.25 10.9704 29.2356 10.9731 29.221 10.973C29.2062 10.9735 29.1915 10.9711 29.1777 10.9658C29.1639 10.9605 29.1513 10.9525 29.1406 10.9422C29.13 10.9319 29.1215 10.9196 29.1158 10.906C29.11 10.8924 29.107 10.8778 29.107 10.863C29.107 10.801 29.158 10.748 29.221 10.748ZM18.846 11.311C18.8757 11.311 18.9042 11.3228 18.9252 11.3438C18.9462 11.3648 18.958 11.3933 18.958 11.423C18.958 11.4527 18.9462 11.4812 18.9252 11.5022C18.9042 11.5232 18.8757 11.535 18.846 11.535C18.818 11.5323 18.792 11.5193 18.7731 11.4985C18.7541 11.4777 18.7436 11.4506 18.7436 11.4225C18.7436 11.3943 18.7541 11.3672 18.7731 11.3464C18.792 11.3256 18.818 11.3126 18.846 11.31V11.311ZM24.033 11.311C24.0627 11.311 24.0912 11.3228 24.1122 11.3438C24.1332 11.3648 24.145 11.3933 24.145 11.423C24.145 11.4527 24.1332 11.4812 24.1122 11.5022C24.0912 11.5232 24.0627 11.535 24.033 11.535C24.005 11.5323 23.979 11.5193 23.9601 11.4985C23.9411 11.4777 23.9306 11.4506 23.9306 11.4225C23.9306 11.3943 23.9411 11.3672 23.9601 11.3464C23.979 11.3256 24.005 11.3126 24.033 11.31V11.311ZM29.221 11.311C29.2507 11.311 29.2792 11.3228 29.3002 11.3438C29.3212 11.3648 29.333 11.3933 29.333 11.423C29.333 11.4527 29.3212 11.4812 29.3002 11.5022C29.2792 11.5232 29.2507 11.535 29.221 11.535C29.193 11.5323 29.167 11.5193 29.1481 11.4985C29.1291 11.4777 29.1186 11.4506 29.1186 11.4225C29.1186 11.3943 29.1291 11.3672 29.1481 11.3464C29.167 11.3256 29.193 11.3126 29.221 11.31V11.311ZM18.836 11.873C18.8514 11.872 18.8669 11.8742 18.8814 11.8795C18.8959 11.8847 18.9092 11.8929 18.9205 11.9035C18.9317 11.9141 18.9407 11.9269 18.9468 11.941C18.9529 11.9552 18.9561 11.9705 18.956 11.986C18.955 12.048 18.905 12.099 18.844 12.1C18.8155 12.0985 18.7886 12.0864 18.7686 12.0661C18.7486 12.0457 18.737 12.0186 18.736 11.9901C18.735 11.9616 18.7447 11.9338 18.7632 11.9121C18.7817 11.8904 18.8077 11.8764 18.836 11.873ZM24.023 11.873C24.0384 11.872 24.0539 11.8742 24.0684 11.8795C24.0829 11.8847 24.0962 11.8929 24.1075 11.9035C24.1187 11.9141 24.1277 11.9269 24.1338 11.941C24.1399 11.9552 24.1431 11.9705 24.143 11.986C24.143 12.048 24.093 12.099 24.031 12.1C24.0025 12.0985 23.9756 12.0864 23.9556 12.0661C23.9356 12.0457 23.924 12.0186 23.923 11.9901C23.922 11.9616 23.9317 11.9338 23.9502 11.9121C23.9687 11.8904 23.9947 11.8764 24.023 11.873ZM29.211 11.873C29.2264 11.872 29.2419 11.8742 29.2564 11.8795C29.2709 11.8847 29.2842 11.8929 29.2955 11.9035C29.3067 11.9141 29.3157 11.9269 29.3218 11.941C29.3279 11.9552 29.3311 11.9705 29.331 11.986C29.33 12.048 29.28 12.099 29.219 12.1C29.1905 12.0985 29.1636 12.0864 29.1436 12.0661C29.1236 12.0457 29.112 12.0186 29.111 11.9901C29.11 11.9616 29.1197 11.9338 29.1382 11.9121C29.1567 11.8904 29.1827 11.8764 29.211 11.873ZM16.031 12.195C16.4351 12.195 16.8226 12.3555 17.1083 12.6412C17.394 12.9269 17.5545 13.3144 17.5545 13.7185C17.5545 14.1225 17.394 14.51 17.1083 14.7957C16.8226 15.0815 16.4351 15.242 16.031 15.242C15.627 15.242 15.2395 15.0815 14.9537 14.7957C14.668 14.51 14.5075 14.1225 14.5075 13.7185C14.5075 13.3144 14.668 12.9269 14.9537 12.6412C15.2395 12.3555 15.627 12.195 16.031 12.195ZM21.365 12.195C21.7691 12.195 22.1566 12.3555 22.4423 12.6412C22.728 12.9269 22.8885 13.3144 22.8885 13.7185C22.8885 14.1225 22.728 14.51 22.4423 14.7957C22.1566 15.0815 21.7691 15.242 21.365 15.242C20.961 15.242 20.5735 15.0815 20.2877 14.7957C20.002 14.51 19.8415 14.1225 19.8415 13.7185C19.8415 13.3144 20.002 12.9269 20.2877 12.6412C20.5735 12.3555 20.961 12.195 21.365 12.195ZM26.697 12.195C27.1011 12.195 27.4886 12.3555 27.7743 12.6412C28.06 12.9269 28.2205 13.3144 28.2205 13.7185C28.2205 14.1225 28.06 14.51 27.7743 14.7957C27.4886 15.0815 27.1011 15.242 26.697 15.242C26.293 15.242 25.9055 15.0815 25.6197 14.7957C25.334 14.51 25.1735 14.1225 25.1735 13.7185C25.1735 13.3144 25.334 12.9269 25.6197 12.6412C25.9055 12.3555 26.293 12.195 26.697 12.195ZM32.031 12.195C32.4351 12.195 32.8226 12.3555 33.1083 12.6412C33.394 12.9269 33.5545 13.3144 33.5545 13.7185C33.5545 14.1225 33.394 14.51 33.1083 14.7957C32.8226 15.0815 32.4351 15.242 32.031 15.242C31.627 15.242 31.2395 15.0815 30.9537 14.7957C30.668 14.51 30.5075 14.1225 30.5075 13.7185C30.5075 13.3144 30.668 12.9269 30.9537 12.6412C31.2395 12.3555 31.627 12.195 32.031 12.195ZM18.836 12.435C18.8515 12.4339 18.867 12.436 18.8816 12.4412C18.8962 12.4464 18.9095 12.4545 18.9208 12.4651C18.9321 12.4758 18.941 12.4886 18.9471 12.5029C18.9532 12.5171 18.9562 12.5325 18.956 12.548C18.955 12.61 18.905 12.662 18.844 12.662C18.8164 12.6594 18.7907 12.6469 18.7717 12.6267C18.7526 12.6066 18.7416 12.5802 18.7406 12.5525C18.7396 12.5248 18.7488 12.4977 18.7663 12.4762C18.7839 12.4548 18.8087 12.4405 18.836 12.436V12.435ZM24.023 12.435C24.0385 12.4339 24.054 12.436 24.0686 12.4412C24.0832 12.4464 24.0965 12.4545 24.1078 12.4651C24.1191 12.4758 24.128 12.4886 24.1341 12.5029C24.1402 12.5171 24.1432 12.5325 24.143 12.548C24.143 12.61 24.093 12.662 24.031 12.662C24.0034 12.6594 23.9777 12.6469 23.9587 12.6267C23.9396 12.6066 23.9286 12.5802 23.9276 12.5525C23.9266 12.5248 23.9358 12.4977 23.9533 12.4762C23.9709 12.4548 23.9957 12.4405 24.023 12.436V12.435ZM29.211 12.435C29.2265 12.4339 29.242 12.436 29.2566 12.4412C29.2712 12.4464 29.2845 12.4545 29.2958 12.4651C29.3071 12.4758 29.316 12.4886 29.3221 12.5029C29.3282 12.5171 29.3312 12.5325 29.331 12.548C29.33 12.61 29.28 12.662 29.219 12.662C29.1914 12.6594 29.1657 12.6469 29.1467 12.6267C29.1276 12.6066 29.1166 12.5802 29.1156 12.5525C29.1146 12.5248 29.1238 12.4977 29.1413 12.4762C29.1589 12.4548 29.1837 12.4405 29.211 12.436V12.435ZM18.824 14.686H18.844C18.8662 14.6864 18.8877 14.6933 18.9059 14.706C18.9241 14.7186 18.9381 14.7363 18.9462 14.757C18.9543 14.7776 18.9562 14.8001 18.9514 14.8218C18.9467 14.8434 18.9357 14.8632 18.9198 14.8785C18.9038 14.8939 18.8837 14.9042 18.8619 14.9082C18.8401 14.9121 18.8176 14.9095 18.7973 14.9006C18.777 14.8918 18.7598 14.8771 18.7478 14.8585C18.7358 14.8399 18.7296 14.8181 18.73 14.796C18.73 14.742 18.77 14.693 18.824 14.686ZM24.012 14.686H24.031C24.0532 14.6862 24.0748 14.693 24.0932 14.7055C24.1115 14.718 24.1257 14.7357 24.134 14.7563C24.1422 14.7769 24.1442 14.7995 24.1396 14.8212C24.135 14.8429 24.124 14.8627 24.1081 14.8782C24.0922 14.8937 24.0721 14.9041 24.0503 14.9081C24.0284 14.9121 24.0059 14.9096 23.9855 14.9008C23.9652 14.8919 23.9479 14.8773 23.9359 14.8586C23.9238 14.84 23.9176 14.8182 23.918 14.796C23.918 14.742 23.958 14.693 24.012 14.686ZM29.199 14.686H29.219C29.2412 14.6864 29.2627 14.6933 29.2809 14.706C29.2991 14.7186 29.3131 14.7363 29.3212 14.757C29.3293 14.7776 29.3312 14.8001 29.3264 14.8218C29.3217 14.8434 29.3107 14.8632 29.2948 14.8785C29.2788 14.8939 29.2587 14.9042 29.2369 14.9082C29.2151 14.9121 29.1926 14.9095 29.1723 14.9006C29.152 14.8918 29.1348 14.8771 29.1228 14.8585C29.1108 14.8399 29.1046 14.8181 29.105 14.796C29.105 14.742 29.145 14.693 29.199 14.686ZM18.824 15.248H18.844C18.905 15.248 18.954 15.298 18.955 15.359C18.9551 15.3804 18.9491 15.4014 18.9376 15.4194C18.9262 15.4375 18.9098 15.4519 18.8904 15.461C18.871 15.4701 18.8494 15.4734 18.8282 15.4705C18.807 15.4677 18.787 15.4588 18.7707 15.445C18.7543 15.4312 18.7423 15.413 18.736 15.3925C18.7297 15.3721 18.7294 15.3502 18.7351 15.3296C18.7408 15.309 18.7523 15.2904 18.7683 15.2761C18.7842 15.2618 18.8039 15.2524 18.825 15.249L18.824 15.248ZM24.012 15.248H24.03C24.092 15.248 24.141 15.298 24.142 15.359C24.1421 15.3803 24.1361 15.4013 24.1246 15.4193C24.1132 15.4373 24.0968 15.4517 24.0775 15.4608C24.0582 15.4698 24.0366 15.4732 24.0155 15.4704C23.9943 15.4676 23.9744 15.4588 23.958 15.4451C23.9416 15.4314 23.9296 15.4133 23.9232 15.3929C23.9168 15.3725 23.9163 15.3507 23.9219 15.3301C23.9275 15.3095 23.9388 15.2909 23.9546 15.2765C23.9704 15.2622 23.99 15.2526 24.011 15.249L24.012 15.248ZM29.199 15.248H29.22C29.281 15.248 29.33 15.298 29.331 15.359C29.3311 15.3804 29.3251 15.4014 29.3136 15.4194C29.3022 15.4375 29.2858 15.4519 29.2664 15.461C29.247 15.4701 29.2254 15.4734 29.2042 15.4705C29.183 15.4677 29.163 15.4588 29.1467 15.445C29.1303 15.4312 29.1183 15.413 29.112 15.3925C29.1057 15.3721 29.1054 15.3502 29.1111 15.3296C29.1168 15.309 29.1283 15.2904 29.1443 15.2761C29.1602 15.2618 29.1799 15.2524 29.201 15.249L29.199 15.248ZM18.846 15.808C18.8759 15.808 18.9045 15.8198 18.9256 15.8409C18.9467 15.862 18.9585 15.8906 18.9585 15.9205C18.9585 15.9503 18.9467 15.9789 18.9256 16C18.9045 16.0211 18.8759 16.033 18.846 16.033C18.8163 16.033 18.7878 16.0212 18.7668 16.0002C18.7458 15.9792 18.734 15.9507 18.734 15.921C18.734 15.8913 18.7458 15.8628 18.7668 15.8418C18.7878 15.8208 18.8163 15.809 18.846 15.809V15.808ZM24.033 15.808C24.0629 15.808 24.0915 15.8198 24.1126 15.8409C24.1337 15.862 24.1455 15.8906 24.1455 15.9205C24.1455 15.9503 24.1337 15.9789 24.1126 16C24.0915 16.0211 24.0629 16.033 24.033 16.033C24.0033 16.033 23.9748 16.0212 23.9538 16.0002C23.9328 15.9792 23.921 15.9507 23.921 15.921C23.921 15.8913 23.9328 15.8628 23.9538 15.8418C23.9748 15.8208 24.0033 15.809 24.033 15.809V15.808ZM29.221 15.808C29.2509 15.808 29.2795 15.8198 29.3006 15.8409C29.3217 15.862 29.3335 15.8906 29.3335 15.9205C29.3335 15.9503 29.3217 15.9789 29.3006 16C29.2795 16.0211 29.2509 16.033 29.221 16.033C29.1913 16.033 29.1628 16.0212 29.1418 16.0002C29.1208 15.9792 29.109 15.9507 29.109 15.921C29.109 15.8913 29.1208 15.8628 29.1418 15.8418C29.1628 15.8208 29.1913 15.809 29.221 15.809V15.808ZM16.031 17.374C16.2357 17.3666 16.4397 17.4005 16.631 17.4737C16.8222 17.5468 16.9968 17.6578 17.1442 17.8C17.2916 17.9422 17.4088 18.1126 17.4889 18.301C17.569 18.4895 17.6102 18.6922 17.6102 18.897C17.6102 19.1017 17.569 19.3044 17.4889 19.4929C17.4088 19.6814 17.2916 19.8518 17.1442 19.9939C16.9968 20.1361 16.8222 20.2471 16.631 20.3203C16.4397 20.3935 16.2357 20.4274 16.031 20.42C15.6337 20.4098 15.2561 20.2448 14.9787 19.9602C14.7013 19.6756 14.5461 19.2939 14.5461 18.8965C14.5461 18.499 14.7013 18.1173 14.9787 17.8327C15.2561 17.5481 15.6337 17.3831 16.031 17.373V17.374ZM21.365 17.374C21.5697 17.3666 21.7737 17.4005 21.965 17.4737C22.1562 17.5468 22.3308 17.6578 22.4782 17.8C22.6256 17.9422 22.7428 18.1126 22.8229 18.301C22.903 18.4895 22.9442 18.6922 22.9442 18.897C22.9442 19.1017 22.903 19.3044 22.8229 19.4929C22.7428 19.6814 22.6256 19.8518 22.4782 19.9939C22.3308 20.1361 22.1562 20.2471 21.965 20.3203C21.7737 20.3935 21.5697 20.4274 21.365 20.42C20.9677 20.4098 20.5901 20.2448 20.3127 19.9602C20.0353 19.6756 19.8801 19.2939 19.8801 18.8965C19.8801 18.499 20.0353 18.1173 20.3127 17.8327C20.5901 17.5481 20.9677 17.3831 21.365 17.373V17.374ZM26.697 17.374C27.1009 17.374 27.4883 17.5344 27.7739 17.82C28.0596 18.1057 28.22 18.493 28.22 18.897C28.22 19.3009 28.0596 19.6883 27.7739 19.9739C27.4883 20.2595 27.1009 20.42 26.697 20.42C26.293 20.42 25.9055 20.2595 25.6197 19.9737C25.334 19.688 25.1735 19.3005 25.1735 18.8965C25.1735 18.4924 25.334 18.1049 25.6197 17.8192C25.9055 17.5335 26.293 17.373 26.697 17.373V17.374ZM32.031 17.374C32.2357 17.3666 32.4397 17.4005 32.631 17.4737C32.8222 17.5468 32.9968 17.6578 33.1442 17.8C33.2916 17.9422 33.4088 18.1126 33.4889 18.301C33.569 18.4895 33.6102 18.6922 33.6102 18.897C33.6102 19.1017 33.569 19.3044 33.4889 19.4929C33.4088 19.6814 33.2916 19.8518 33.1442 19.9939C32.9968 20.1361 32.8222 20.2471 32.631 20.3203C32.4397 20.3935 32.2357 20.4274 32.031 20.42C31.6337 20.4098 31.2561 20.2448 30.9787 19.9602C30.7013 19.6756 30.5461 19.2939 30.5461 18.8965C30.5461 18.499 30.7013 18.1173 30.9787 17.8327C31.2561 17.5481 31.6337 17.3831 32.031 17.373V17.374ZM18.836 17.496C18.8513 17.4949 18.8667 17.4969 18.8811 17.502C18.8956 17.5071 18.9088 17.5151 18.9201 17.5255C18.9313 17.5359 18.9403 17.5485 18.9465 17.5625C18.9527 17.5765 18.9559 17.5916 18.956 17.607C18.9564 17.6288 18.9503 17.6503 18.9385 17.6688C18.9268 17.6873 18.9099 17.7019 18.8899 17.7109C18.87 17.7198 18.8478 17.7227 18.8262 17.7193C18.8046 17.7158 18.7845 17.706 18.7684 17.6912C18.7522 17.6765 18.7408 17.6573 18.7354 17.636C18.7301 17.6148 18.7311 17.5925 18.7383 17.5718C18.7455 17.5512 18.7586 17.5331 18.7759 17.5198C18.7933 17.5065 18.8142 17.4985 18.836 17.497V17.496ZM24.023 17.496C24.0383 17.4949 24.0537 17.4969 24.0681 17.502C24.0826 17.5071 24.0958 17.5151 24.1071 17.5255C24.1183 17.5359 24.1273 17.5485 24.1335 17.5625C24.1397 17.5765 24.1429 17.5916 24.143 17.607C24.1434 17.6288 24.1373 17.6503 24.1255 17.6688C24.1138 17.6873 24.0969 17.7019 24.0769 17.7109C24.057 17.7198 24.0348 17.7227 24.0132 17.7193C23.9916 17.7158 23.9715 17.706 23.9554 17.6912C23.9392 17.6765 23.9278 17.6573 23.9224 17.636C23.9171 17.6148 23.9181 17.5925 23.9253 17.5718C23.9325 17.5512 23.9456 17.5331 23.9629 17.5198C23.9803 17.5065 24.0012 17.4985 24.023 17.497V17.496ZM29.211 17.496C29.2263 17.4949 29.2417 17.4969 29.2561 17.502C29.2706 17.5071 29.2838 17.5151 29.2951 17.5255C29.3063 17.5359 29.3153 17.5485 29.3215 17.5625C29.3277 17.5765 29.3309 17.5916 29.331 17.607C29.3314 17.6288 29.3253 17.6503 29.3135 17.6688C29.3018 17.6873 29.2849 17.7019 29.2649 17.7109C29.245 17.7198 29.2228 17.7227 29.2012 17.7193C29.1796 17.7158 29.1595 17.706 29.1434 17.6912C29.1272 17.6765 29.1158 17.6573 29.1104 17.636C29.1051 17.6148 29.1061 17.5925 29.1133 17.5718C29.1205 17.5512 29.1336 17.5331 29.1509 17.5198C29.1683 17.5065 29.1892 17.4985 29.211 17.497V17.496ZM18.836 18.621C18.8513 18.6199 18.8667 18.6219 18.8811 18.627C18.8956 18.6321 18.9088 18.6401 18.9201 18.6505C18.9313 18.6609 18.9403 18.6735 18.9465 18.6875C18.9527 18.7015 18.9559 18.7166 18.956 18.732C18.9564 18.7538 18.9503 18.7753 18.9385 18.7938C18.9268 18.8123 18.9099 18.8269 18.8899 18.8359C18.87 18.8448 18.8478 18.8477 18.8262 18.8443C18.8046 18.8408 18.7845 18.831 18.7684 18.8162C18.7522 18.8015 18.7408 18.7823 18.7354 18.761C18.7301 18.7398 18.7311 18.7175 18.7383 18.6968C18.7455 18.6762 18.7586 18.6581 18.7759 18.6448C18.7933 18.6315 18.8142 18.6235 18.836 18.622V18.621ZM24.023 18.621C24.0383 18.6199 24.0537 18.6219 24.0681 18.627C24.0826 18.6321 24.0958 18.6401 24.1071 18.6505C24.1183 18.6609 24.1273 18.6735 24.1335 18.6875C24.1397 18.7015 24.1429 18.7166 24.143 18.732C24.1434 18.7538 24.1373 18.7753 24.1255 18.7938C24.1138 18.8123 24.0969 18.8269 24.0769 18.8359C24.057 18.8448 24.0348 18.8477 24.0132 18.8443C23.9916 18.8408 23.9715 18.831 23.9554 18.8162C23.9392 18.8015 23.9278 18.7823 23.9224 18.761C23.9171 18.7398 23.9181 18.7175 23.9253 18.6968C23.9325 18.6762 23.9456 18.6581 23.9629 18.6448C23.9803 18.6315 24.0012 18.6235 24.023 18.622V18.621ZM29.211 18.621C29.2263 18.6199 29.2417 18.6219 29.2561 18.627C29.2706 18.6321 29.2838 18.6401 29.2951 18.6505C29.3063 18.6609 29.3153 18.6735 29.3215 18.6875C29.3277 18.7015 29.3309 18.7166 29.331 18.732C29.3314 18.7538 29.3253 18.7753 29.3135 18.7938C29.3018 18.8123 29.2849 18.8269 29.2649 18.8359C29.245 18.8448 29.2228 18.8477 29.2012 18.8443C29.1796 18.8408 29.1595 18.831 29.1434 18.8162C29.1272 18.8015 29.1158 18.7823 29.1104 18.761C29.1051 18.7398 29.1061 18.7175 29.1133 18.6968C29.1205 18.6762 29.1336 18.6581 29.1509 18.6448C29.1683 18.6315 29.1892 18.6235 29.211 18.622V18.621ZM18.824 19.184H18.844C18.8661 19.1844 18.8876 19.1913 18.9058 19.2039C18.924 19.2165 18.938 19.2342 18.9461 19.2547C18.9543 19.2753 18.9562 19.2978 18.9515 19.3194C18.9469 19.341 18.936 19.3608 18.9202 19.3762C18.9043 19.3916 18.8843 19.402 18.8625 19.4061C18.8408 19.4101 18.8183 19.4076 18.798 19.3989C18.7777 19.3903 18.7604 19.3758 18.7483 19.3572C18.7362 19.3387 18.7298 19.3171 18.73 19.295C18.73 19.24 18.77 19.191 18.824 19.184ZM24.012 19.184H24.03C24.0522 19.1842 24.0738 19.1909 24.0921 19.2034C24.1104 19.2159 24.1246 19.2335 24.1329 19.254C24.1412 19.2746 24.1432 19.2971 24.1387 19.3188C24.1342 19.3405 24.1233 19.3603 24.1075 19.3759C24.0917 19.3914 24.0717 19.4019 24.0499 19.406C24.0281 19.4101 24.0056 19.4077 23.9852 19.3991C23.9648 19.3904 23.9475 19.3759 23.9353 19.3574C23.9232 19.3388 23.9168 19.3171 23.917 19.295C23.917 19.24 23.957 19.191 24.011 19.184H24.012ZM29.199 19.184H29.22C29.2421 19.1844 29.2636 19.1913 29.2818 19.2039C29.3 19.2165 29.314 19.2342 29.3221 19.2547C29.3303 19.2753 29.3322 19.2978 29.3275 19.3194C29.3229 19.341 29.312 19.3608 29.2962 19.3762C29.2803 19.3916 29.2603 19.402 29.2385 19.4061C29.2168 19.4101 29.1943 19.4076 29.174 19.3989C29.1537 19.3903 29.1364 19.3758 29.1243 19.3572C29.1122 19.3387 29.1058 19.3171 29.106 19.295C29.106 19.24 29.146 19.191 29.2 19.184H29.199ZM18.846 19.744C18.8759 19.7442 18.9044 19.7563 18.9253 19.7776C18.9462 19.7989 18.9578 19.8276 18.9575 19.8575C18.9573 19.8873 18.9451 19.9158 18.9239 19.9367C18.9026 19.9576 18.8739 19.9692 18.844 19.969C18.8292 19.9688 18.8146 19.9658 18.801 19.96C18.7874 19.9542 18.7751 19.9459 18.7648 19.9353C18.7544 19.9248 18.7462 19.9123 18.7407 19.8986C18.7352 19.8849 18.7324 19.8702 18.7325 19.8555C18.7327 19.8407 18.7357 19.8261 18.7415 19.8125C18.7472 19.7989 18.7556 19.7866 18.7662 19.7762C18.7767 19.7659 18.7892 19.7577 18.8029 19.7521C18.8166 19.7466 18.8312 19.7438 18.846 19.744ZM24.033 19.744C24.0629 19.7442 24.0914 19.7563 24.1123 19.7776C24.1332 19.7989 24.1448 19.8276 24.1445 19.8575C24.1443 19.8873 24.1321 19.9158 24.1109 19.9367C24.0896 19.9576 24.0609 19.9692 24.031 19.969C24.0162 19.9688 24.0016 19.9658 23.988 19.96C23.9744 19.9542 23.9621 19.9459 23.9518 19.9353C23.9309 19.914 23.9193 19.8853 23.9195 19.8555C23.9198 19.8256 23.9319 19.7971 23.9532 19.7762C23.9745 19.7553 24.0032 19.7437 24.033 19.744ZM29.221 19.744C29.2509 19.7442 29.2794 19.7563 29.3003 19.7776C29.3212 19.7989 29.3328 19.8276 29.3325 19.8575C29.3323 19.8873 29.3202 19.9158 29.2989 19.9367C29.2776 19.9576 29.2489 19.9692 29.219 19.969C29.2042 19.9688 29.1896 19.9658 29.176 19.96C29.1624 19.9542 29.1501 19.9459 29.1398 19.9353C29.1189 19.914 29.1073 19.8853 29.1075 19.8555C29.1078 19.8256 29.1199 19.7971 29.1412 19.7762C29.1625 19.7553 29.1912 19.7437 29.221 19.744ZM18.836 21.994C18.8513 21.9929 18.8667 21.9949 18.8811 22C18.8956 22.0051 18.9088 22.0131 18.9201 22.0235C18.9313 22.0339 18.9403 22.0465 18.9465 22.0605C18.9527 22.0745 18.9559 22.0896 18.956 22.105C18.9564 22.1268 18.9503 22.1483 18.9385 22.1668C18.9268 22.1853 18.9099 22.1999 18.8899 22.2089C18.87 22.2178 18.8478 22.2207 18.8262 22.2173C18.8046 22.2138 18.7845 22.204 18.7684 22.1892C18.7522 22.1745 18.7408 22.1553 18.7354 22.134C18.7301 22.1128 18.7311 22.0905 18.7383 22.0698C18.7455 22.0492 18.7586 22.0311 18.7759 22.0178C18.7933 22.0045 18.8142 21.9965 18.836 21.995V21.994ZM24.023 21.994C24.0383 21.9929 24.0537 21.9949 24.0681 22C24.0826 22.0051 24.0958 22.0131 24.1071 22.0235C24.1183 22.0339 24.1273 22.0465 24.1335 22.0605C24.1397 22.0745 24.1429 22.0896 24.143 22.105C24.1434 22.1268 24.1373 22.1483 24.1255 22.1668C24.1138 22.1853 24.0969 22.1999 24.0769 22.2089C24.057 22.2178 24.0348 22.2207 24.0132 22.2173C23.9916 22.2138 23.9715 22.204 23.9554 22.1892C23.9392 22.1745 23.9278 22.1553 23.9224 22.134C23.9171 22.1128 23.9181 22.0905 23.9253 22.0698C23.9325 22.0492 23.9456 22.0311 23.9629 22.0178C23.9803 22.0045 24.0012 21.9965 24.023 21.995V21.994ZM29.211 21.994C29.2263 21.9929 29.2417 21.9949 29.2561 22C29.2706 22.0051 29.2838 22.0131 29.2951 22.0235C29.3063 22.0339 29.3153 22.0465 29.3215 22.0605C29.3277 22.0745 29.3309 22.0896 29.331 22.105C29.3314 22.1268 29.3253 22.1483 29.3135 22.1668C29.3018 22.1853 29.2849 22.1999 29.2649 22.2089C29.245 22.2178 29.2228 22.2207 29.2012 22.2173C29.1796 22.2138 29.1595 22.204 29.1434 22.1892C29.1272 22.1745 29.1158 22.1553 29.1104 22.134C29.1051 22.1128 29.1061 22.0905 29.1133 22.0698C29.1205 22.0492 29.1336 22.0311 29.1509 22.0178C29.1683 22.0045 29.1892 21.9965 29.211 21.995V21.994ZM16.031 22.551C16.2344 22.5458 16.4367 22.5813 16.6261 22.6555C16.8155 22.7298 16.9881 22.8411 17.1338 22.9831C17.2795 23.1251 17.3952 23.2948 17.4743 23.4823C17.5533 23.6697 17.5941 23.871 17.5941 24.0745C17.5941 24.2779 17.5533 24.4792 17.4743 24.6667C17.3952 24.8541 17.2795 25.0238 17.1338 25.1658C16.9881 25.3078 16.8155 25.4192 16.6261 25.4934C16.4367 25.5676 16.2344 25.6032 16.031 25.598C15.6337 25.5878 15.2561 25.4228 14.9787 25.1382C14.7013 24.8536 14.5461 24.4719 14.5461 24.0745C14.5461 23.677 14.7013 23.2953 14.9787 23.0107C15.2561 22.7261 15.6337 22.5611 16.031 22.551ZM21.365 22.551C21.5684 22.5458 21.7707 22.5813 21.9601 22.6555C22.1495 22.7298 22.3221 22.8411 22.4678 22.9831C22.6135 23.1251 22.7292 23.2948 22.8083 23.4823C22.8873 23.6697 22.9281 23.871 22.9281 24.0745C22.9281 24.2779 22.8873 24.4792 22.8083 24.6667C22.7292 24.8541 22.6135 25.0238 22.4678 25.1658C22.3221 25.3078 22.1495 25.4192 21.9601 25.4934C21.7707 25.5676 21.5684 25.6032 21.365 25.598C20.9677 25.5878 20.5901 25.4228 20.3127 25.1382C20.0353 24.8536 19.8801 24.4719 19.8801 24.0745C19.8801 23.677 20.0353 23.2953 20.3127 23.0107C20.5901 22.7261 20.9677 22.5611 21.365 22.551ZM26.697 22.551C27.1011 22.551 27.4886 22.7115 27.7743 22.9972C28.06 23.2829 28.2205 23.6704 28.2205 24.0745C28.2205 24.4785 28.06 24.866 27.7743 25.1517C27.4886 25.4375 27.1011 25.598 26.697 25.598C26.293 25.598 25.9055 25.4375 25.6197 25.1517C25.334 24.866 25.1735 24.4785 25.1735 24.0745C25.1735 23.6704 25.334 23.2829 25.6197 22.9972C25.9055 22.7115 26.293 22.551 26.697 22.551ZM32.031 22.551C32.2344 22.5458 32.4367 22.5813 32.6261 22.6555C32.8155 22.7298 32.9881 22.8411 33.1338 22.9831C33.2795 23.1251 33.3952 23.2948 33.4743 23.4823C33.5533 23.6697 33.5941 23.871 33.5941 24.0745C33.5941 24.2779 33.5533 24.4792 33.4743 24.6667C33.3952 24.8541 33.2795 25.0238 33.1338 25.1658C32.9881 25.3078 32.8155 25.4192 32.6261 25.4934C32.4367 25.5676 32.2344 25.6032 32.031 25.598C31.6337 25.5878 31.2561 25.4228 30.9787 25.1382C30.7013 24.8536 30.5461 24.4719 30.5461 24.0745C30.5461 23.677 30.7013 23.2953 30.9787 23.0107C31.2561 22.7261 31.6337 22.5611 32.031 22.551ZM18.824 23.682H18.844C18.8664 23.6822 18.8882 23.689 18.9067 23.7016C18.9252 23.7143 18.9395 23.7321 18.9479 23.7529C18.9562 23.7737 18.9582 23.7965 18.9536 23.8184C18.9489 23.8403 18.9379 23.8603 18.9218 23.8759C18.9058 23.8915 18.8855 23.902 18.8635 23.9061C18.8414 23.9101 18.8187 23.9076 18.7981 23.8987C18.7776 23.8898 18.7602 23.875 18.748 23.8562C18.7359 23.8374 18.7296 23.8154 18.73 23.793C18.73 23.738 18.77 23.689 18.824 23.682ZM24.012 23.682H24.03C24.0525 23.682 24.0744 23.6887 24.093 23.7012C24.1116 23.7137 24.1261 23.7314 24.1346 23.7522C24.1431 23.773 24.1452 23.7958 24.1407 23.8178C24.1362 23.8397 24.1252 23.8599 24.1092 23.8756C24.0932 23.8913 24.0729 23.9019 24.0508 23.906C24.0288 23.9102 24.006 23.9076 23.9854 23.8988C23.9648 23.8899 23.9473 23.8751 23.9351 23.8563C23.9229 23.8374 23.9166 23.8154 23.917 23.793C23.917 23.738 23.957 23.689 24.011 23.682H24.012ZM29.199 23.682H29.22C29.2424 23.6822 29.2642 23.689 29.2827 23.7016C29.3012 23.7143 29.3155 23.7321 29.3239 23.7529C29.3322 23.7737 29.3342 23.7965 29.3296 23.8184C29.3249 23.8403 29.3139 23.8603 29.2978 23.8759C29.2818 23.8915 29.2615 23.902 29.2395 23.9061C29.2174 23.9101 29.1947 23.9076 29.1742 23.8987C29.1536 23.8898 29.1362 23.875 29.124 23.8562C29.1119 23.8374 29.1056 23.8154 29.106 23.793C29.106 23.738 29.146 23.689 29.2 23.682H29.199ZM18.824 24.244H18.844C18.905 24.245 18.954 24.294 18.955 24.355C18.9551 24.3764 18.9491 24.3974 18.9376 24.4154C18.9262 24.4335 18.9098 24.4479 18.8904 24.457C18.871 24.4661 18.8494 24.4694 18.8282 24.4665C18.807 24.4637 18.787 24.4548 18.7707 24.441C18.7543 24.4272 18.7423 24.409 18.736 24.3885C18.7297 24.3681 18.7294 24.3462 18.7351 24.3256C18.7408 24.305 18.7523 24.2864 18.7683 24.2721C18.7842 24.2578 18.8039 24.2484 18.825 24.245L18.824 24.244ZM24.012 24.244H24.03C24.092 24.245 24.141 24.294 24.142 24.355C24.1421 24.3763 24.1361 24.3973 24.1246 24.4153C24.1132 24.4333 24.0968 24.4477 24.0775 24.4568C24.0582 24.4658 24.0366 24.4692 24.0155 24.4664C23.9943 24.4636 23.9744 24.4548 23.958 24.4411C23.9416 24.4274 23.9296 24.4093 23.9232 24.3889C23.9168 24.3685 23.9163 24.3467 23.9219 24.3261C23.9275 24.3055 23.9388 24.2869 23.9546 24.2725C23.9704 24.2582 23.99 24.2486 24.011 24.245L24.012 24.244ZM29.199 24.244H29.22C29.281 24.245 29.33 24.294 29.331 24.355C29.3311 24.3764 29.3251 24.3974 29.3136 24.4154C29.3022 24.4335 29.2858 24.4479 29.2664 24.457C29.247 24.4661 29.2254 24.4694 29.2042 24.4665C29.183 24.4637 29.163 24.4548 29.1467 24.441C29.1303 24.4272 29.1183 24.409 29.112 24.3885C29.1057 24.3681 29.1054 24.3462 29.1111 24.3256C29.1168 24.305 29.1283 24.2864 29.1443 24.2721C29.1602 24.2578 29.1799 24.2484 29.201 24.245L29.199 24.244ZM16.031 27.729C16.4349 27.729 16.8223 27.8894 17.1079 28.175C17.3936 28.4607 17.554 28.848 17.554 29.252C17.554 29.6559 17.3936 30.0433 17.1079 30.3289C16.8223 30.6145 16.4349 30.775 16.031 30.775C15.6271 30.775 15.2397 30.6145 14.9541 30.3289C14.6685 30.0433 14.508 29.6559 14.508 29.252C14.508 28.848 14.6685 28.4607 14.9541 28.175C15.2397 27.8894 15.6271 27.729 16.031 27.729ZM21.365 27.729C21.7691 27.729 22.1566 27.8895 22.4423 28.1752C22.728 28.4609 22.8885 28.8484 22.8885 29.2525C22.8885 29.6565 22.728 30.044 22.4423 30.3297C22.1566 30.6155 21.7691 30.776 21.365 30.776C20.961 30.776 20.5735 30.6155 20.2877 30.3297C20.002 30.044 19.8415 29.6565 19.8415 29.2525C19.8415 28.8484 20.002 28.4609 20.2877 28.1752C20.5735 27.8895 20.961 27.729 21.365 27.729ZM26.697 27.729C27.1009 27.729 27.4883 27.8894 27.7739 28.175C28.0596 28.4607 28.22 28.848 28.22 29.252C28.22 29.6559 28.0596 30.0433 27.7739 30.3289C27.4883 30.6145 27.1009 30.775 26.697 30.775C26.2931 30.775 25.9057 30.6145 25.6201 30.3289C25.3345 30.0433 25.174 29.6559 25.174 29.252C25.174 28.848 25.3345 28.4607 25.6201 28.175C25.9057 27.8894 26.2931 27.729 26.697 27.729ZM32.031 27.729C32.4349 27.729 32.8223 27.8894 33.1079 28.175C33.3936 28.4607 33.554 28.848 33.554 29.252C33.554 29.6559 33.3936 30.0433 33.1079 30.3289C32.8223 30.6145 32.4349 30.775 32.031 30.775C31.6271 30.775 31.2397 30.6145 30.9541 30.3289C30.6685 30.0433 30.508 29.6559 30.508 29.252C30.508 28.848 30.6685 28.4607 30.9541 28.175C31.2397 27.8894 31.6271 27.729 32.031 27.729ZM18.824 28.179H18.844C18.905 28.181 18.954 28.229 18.955 28.291C18.9514 28.3181 18.938 28.343 18.9174 28.361C18.8968 28.379 18.8704 28.389 18.843 28.389C18.8157 28.389 18.7892 28.379 18.7686 28.361C18.748 28.343 18.7347 28.3181 18.731 28.291C18.731 28.236 18.77 28.187 18.824 28.18V28.179ZM24.012 28.179H24.03C24.092 28.181 24.141 28.229 24.142 28.291C24.1394 28.319 24.1264 28.345 24.1056 28.3639C24.0848 28.3829 24.0577 28.3933 24.0295 28.3933C24.0014 28.3933 23.9743 28.3829 23.9535 28.3639C23.9327 28.345 23.9197 28.319 23.917 28.291C23.917 28.236 23.957 28.187 24.011 28.18L24.012 28.179ZM29.199 28.179H29.22C29.281 28.181 29.33 28.229 29.331 28.291C29.3274 28.3181 29.314 28.343 29.2934 28.361C29.2728 28.379 29.2464 28.389 29.219 28.389C29.1917 28.389 29.1652 28.379 29.1446 28.361C29.124 28.343 29.1107 28.3181 29.107 28.291C29.107 28.236 29.146 28.187 29.2 28.18L29.199 28.179ZM18.846 28.74C18.8759 28.7402 18.9044 28.7523 18.9253 28.7736C18.9462 28.7949 18.9578 28.8236 18.9575 28.8535C18.9573 28.8833 18.9451 28.9118 18.9239 28.9327C18.9026 28.9536 18.8739 28.9652 18.844 28.965C18.8292 28.9648 18.8146 28.9618 18.801 28.956C18.7874 28.9502 18.7751 28.9419 18.7648 28.9313C18.7544 28.9208 18.7462 28.9083 18.7407 28.8946C18.7352 28.8809 18.7324 28.8662 18.7325 28.8515C18.7327 28.8367 18.7357 28.8221 18.7415 28.8085C18.7472 28.7949 18.7556 28.7826 18.7662 28.7722C18.7767 28.7619 18.7892 28.7537 18.8029 28.7481C18.8166 28.7426 18.8312 28.7398 18.846 28.74ZM24.033 28.74C24.0478 28.7401 24.0624 28.7431 24.076 28.7489C24.0896 28.7547 24.1019 28.7631 24.1123 28.7736C24.1226 28.7842 24.1308 28.7966 24.1363 28.8103C24.1419 28.824 24.1447 28.8387 24.1445 28.8535C24.1444 28.8682 24.1414 28.8828 24.1356 28.8964C24.1298 28.91 24.1214 28.9224 24.1109 28.9327C24.1003 28.9431 24.0878 28.9513 24.0742 28.9568C24.0605 28.9623 24.0458 28.9651 24.031 28.965C24.0012 28.9647 23.9727 28.9526 23.9518 28.9313C23.9309 28.91 23.9193 28.8813 23.9195 28.8515C23.9198 28.8216 23.9319 28.7931 23.9532 28.7722C23.9745 28.7513 24.0032 28.7397 24.033 28.74ZM29.221 28.74C29.2358 28.7401 29.2504 28.7431 29.264 28.7489C29.2776 28.7547 29.2899 28.7631 29.3003 28.7736C29.3106 28.7842 29.3188 28.7966 29.3243 28.8103C29.3299 28.824 29.3327 28.8387 29.3325 28.8535C29.3324 28.8682 29.3294 28.8828 29.3236 28.8964C29.3178 28.91 29.3094 28.9224 29.2989 28.9327C29.2883 28.9431 29.2759 28.9513 29.2622 28.9568C29.2485 28.9623 29.2338 28.9651 29.219 28.965C29.1892 28.9647 29.1607 28.9526 29.1398 28.9313C29.1189 28.91 29.1073 28.8813 29.1075 28.8515C29.1078 28.8216 29.1199 28.7931 29.1412 28.7722C29.1625 28.7513 29.1912 28.7397 29.221 28.74ZM18.836 30.988C18.8514 30.9872 18.8668 30.9895 18.8813 30.9948C18.8957 31.0001 18.909 31.0083 18.9202 31.0188C18.9314 31.0294 18.9404 31.0421 18.9465 31.0562C18.9527 31.0703 18.9559 31.0856 18.956 31.101C18.956 31.1309 18.9441 31.1597 18.9229 31.1809C18.9017 31.2021 18.873 31.214 18.843 31.214C18.8131 31.214 18.7843 31.2021 18.7631 31.1809C18.7419 31.1597 18.73 31.1309 18.73 31.101C18.73 31.042 18.777 30.991 18.836 30.988ZM24.023 30.988C24.0384 30.9872 24.0538 30.9895 24.0683 30.9948C24.0827 31.0001 24.096 31.0083 24.1072 31.0188C24.1184 31.0294 24.1274 31.0421 24.1335 31.0562C24.1397 31.0703 24.1429 31.0856 24.143 31.101C24.143 31.1308 24.1312 31.1594 24.1101 31.1805C24.089 31.2016 24.0604 31.2135 24.0305 31.2135C24.0007 31.2135 23.9721 31.2016 23.951 31.1805C23.9299 31.1594 23.918 31.1308 23.918 31.101C23.918 31.042 23.965 30.991 24.023 30.988ZM29.211 30.988C29.2264 30.9872 29.2418 30.9895 29.2563 30.9948C29.2707 31.0001 29.284 31.0083 29.2952 31.0188C29.3064 31.0294 29.3154 31.0421 29.3215 31.0562C29.3277 31.0703 29.3309 31.0856 29.331 31.101C29.331 31.1309 29.3191 31.1597 29.2979 31.1809C29.2767 31.2021 29.248 31.214 29.218 31.214C29.1881 31.214 29.1593 31.2021 29.1381 31.1809C29.1169 31.1597 29.105 31.1309 29.105 31.101C29.105 31.042 29.152 30.991 29.211 30.988ZM18.836 31.551H18.844C18.872 31.5536 18.898 31.5666 18.917 31.5874C18.9359 31.6082 18.9464 31.6353 18.9464 31.6635C18.9464 31.6916 18.9359 31.7187 18.917 31.7395C18.898 31.7603 18.872 31.7733 18.844 31.776C18.8142 31.777 18.7852 31.7662 18.7633 31.7458C18.7415 31.7255 18.7286 31.6973 18.7275 31.6675C18.7265 31.6376 18.7373 31.6086 18.7576 31.5867C18.778 31.5649 18.8062 31.552 18.836 31.551ZM24.023 31.551H24.031C24.059 31.5536 24.085 31.5666 24.104 31.5874C24.1229 31.6082 24.1334 31.6353 24.1334 31.6635C24.1334 31.6916 24.1229 31.7187 24.104 31.7395C24.085 31.7603 24.059 31.7733 24.031 31.776C24.0012 31.777 23.9721 31.7662 23.9503 31.7458C23.9285 31.7255 23.9156 31.6973 23.9145 31.6675C23.9135 31.6376 23.9243 31.6086 23.9446 31.5867C23.965 31.5649 23.9932 31.552 24.023 31.551ZM29.211 31.551H29.219C29.247 31.5536 29.273 31.5666 29.292 31.5874C29.3109 31.6082 29.3214 31.6353 29.3214 31.6635C29.3214 31.6916 29.3109 31.7187 29.292 31.7395C29.273 31.7603 29.247 31.7733 29.219 31.776C29.1892 31.777 29.1602 31.7662 29.1383 31.7458C29.1165 31.7255 29.1036 31.6973 29.1025 31.6675C29.1015 31.6376 29.1123 31.6086 29.1326 31.5867C29.153 31.5649 29.1812 31.552 29.211 31.551ZM18.824 32.113H18.844C18.872 32.1156 18.898 32.1286 18.917 32.1494C18.9359 32.1702 18.9464 32.1973 18.9464 32.2255C18.9464 32.2536 18.9359 32.2807 18.917 32.3015C18.898 32.3223 18.872 32.3353 18.844 32.338C18.8291 32.3382 18.8142 32.3355 18.8003 32.3299C18.7864 32.3244 18.7738 32.3161 18.7632 32.3055C18.7525 32.295 18.7441 32.2824 18.7384 32.2686C18.7327 32.2548 18.7299 32.2399 18.73 32.225C18.73 32.17 18.77 32.121 18.824 32.113ZM24.012 32.113H24.03C24.058 32.1156 24.084 32.1286 24.103 32.1494C24.1219 32.1702 24.1324 32.1973 24.1324 32.2255C24.1324 32.2536 24.1219 32.2807 24.103 32.3015C24.084 32.3223 24.058 32.3353 24.03 32.338C24.0151 32.3381 24.0004 32.3353 23.9866 32.3296C23.9729 32.324 23.9603 32.3157 23.9498 32.3052C23.9393 32.2946 23.931 32.2821 23.9254 32.2684C23.9197 32.2546 23.9169 32.2398 23.917 32.225C23.917 32.17 23.957 32.121 24.011 32.113H24.012ZM29.199 32.113H29.22C29.248 32.1156 29.274 32.1286 29.293 32.1494C29.3119 32.1702 29.3224 32.1973 29.3224 32.2255C29.3224 32.2536 29.3119 32.2807 29.293 32.3015C29.274 32.3223 29.248 32.3353 29.22 32.338C29.2051 32.3382 29.1902 32.3355 29.1763 32.3299C29.1624 32.3244 29.1498 32.3161 29.1392 32.3055C29.1285 32.295 29.1201 32.2824 29.1144 32.2686C29.1087 32.2548 29.1059 32.2399 29.106 32.225C29.106 32.17 29.146 32.121 29.2 32.113H29.199ZM18.824 32.676H18.844C18.905 32.676 18.954 32.726 18.955 32.787C18.9549 32.8083 18.9487 32.8292 18.9372 32.8472C18.9256 32.8651 18.9091 32.8794 18.8897 32.8883C18.8703 32.8972 18.8487 32.9004 18.8276 32.8974C18.8064 32.8945 18.7865 32.8856 18.7703 32.8717C18.7541 32.8578 18.7421 32.8396 18.7359 32.8192C18.7297 32.7987 18.7294 32.7769 18.7352 32.7564C18.7409 32.7358 18.7524 32.7173 18.7684 32.703C18.7843 32.6888 18.8039 32.6794 18.825 32.676H18.824ZM24.012 32.676H24.03C24.092 32.676 24.141 32.726 24.142 32.787C24.142 32.849 24.092 32.898 24.03 32.898C24.0022 32.8977 23.9755 32.8871 23.9551 32.8683C23.9347 32.8495 23.922 32.8237 23.9195 32.796C23.917 32.7684 23.9249 32.7407 23.9416 32.7186C23.9584 32.6964 23.9827 32.6812 24.01 32.676H24.012ZM29.199 32.676H29.22C29.281 32.676 29.33 32.726 29.331 32.787C29.3309 32.8083 29.3247 32.8292 29.3132 32.8472C29.3016 32.8651 29.2851 32.8794 29.2657 32.8883C29.2463 32.8972 29.2247 32.9004 29.2036 32.8974C29.1824 32.8945 29.1625 32.8856 29.1463 32.8717C29.1301 32.8578 29.1181 32.8396 29.1119 32.8192C29.1057 32.7987 29.1054 32.7769 29.1112 32.7564C29.1169 32.7358 29.1284 32.7173 29.1444 32.703C29.1603 32.6888 29.1799 32.6794 29.201 32.676H29.199ZM16.031 32.904C16.4351 32.904 16.8226 33.0645 17.1083 33.3502C17.394 33.6359 17.5545 34.0234 17.5545 34.4275C17.5545 34.8315 17.394 35.219 17.1083 35.5047C16.8226 35.7905 16.4351 35.951 16.031 35.951C15.627 35.951 15.2395 35.7905 14.9537 35.5047C14.668 35.219 14.5075 34.8315 14.5075 34.4275C14.5075 34.0234 14.668 33.6359 14.9537 33.3502C15.2395 33.0645 15.627 32.904 16.031 32.904ZM21.365 32.904C21.7691 32.904 22.1566 33.0645 22.4423 33.3502C22.728 33.6359 22.8885 34.0234 22.8885 34.4275C22.8885 34.8315 22.728 35.219 22.4423 35.5047C22.1566 35.7905 21.7691 35.951 21.365 35.951C20.961 35.951 20.5735 35.7905 20.2877 35.5047C20.002 35.219 19.8415 34.8315 19.8415 34.4275C19.8415 34.0234 20.002 33.6359 20.2877 33.3502C20.5735 33.0645 20.961 32.904 21.365 32.904ZM26.697 32.904C27.1011 32.904 27.4886 33.0645 27.7743 33.3502C28.06 33.6359 28.2205 34.0234 28.2205 34.4275C28.2205 34.8315 28.06 35.219 27.7743 35.5047C27.4886 35.7905 27.1011 35.951 26.697 35.951C26.293 35.951 25.9055 35.7905 25.6197 35.5047C25.334 35.219 25.1735 34.8315 25.1735 34.4275C25.1735 34.0234 25.334 33.6359 25.6197 33.3502C25.9055 33.0645 26.293 32.904 26.697 32.904ZM32.031 32.904C32.4351 32.904 32.8226 33.0645 33.1083 33.3502C33.394 33.6359 33.5545 34.0234 33.5545 34.4275C33.5545 34.8315 33.394 35.219 33.1083 35.5047C32.8226 35.7905 32.4351 35.951 32.031 35.951C31.627 35.951 31.2395 35.7905 30.9537 35.5047C30.668 35.219 30.5075 34.8315 30.5075 34.4275C30.5075 34.0234 30.668 33.6359 30.9537 33.3502C31.2395 33.0645 31.627 32.904 32.031 32.904ZM18.846 33.236C18.908 33.237 18.958 33.29 18.957 33.352C18.9569 33.3664 18.9539 33.3807 18.9483 33.394C18.9426 33.4073 18.9344 33.4193 18.9241 33.4295C18.9138 33.4396 18.9016 33.4476 18.8882 33.453C18.8748 33.4584 18.8605 33.4611 18.846 33.461C18.8312 33.4615 18.8165 33.4591 18.8027 33.4538C18.7889 33.4485 18.7763 33.4405 18.7656 33.4302C18.755 33.4199 18.7465 33.4076 18.7408 33.394C18.735 33.3804 18.732 33.3658 18.732 33.351C18.732 33.289 18.783 33.236 18.846 33.236ZM24.033 33.236C24.096 33.237 24.145 33.29 24.144 33.352C24.1438 33.381 24.1321 33.4087 24.1115 33.4291C24.0909 33.4495 24.063 33.461 24.034 33.461C24.0192 33.4615 24.0045 33.4591 23.9907 33.4538C23.9769 33.4485 23.9643 33.4405 23.9536 33.4302C23.943 33.4199 23.9345 33.4076 23.9288 33.394C23.923 33.3804 23.92 33.3658 23.92 33.351C23.92 33.289 23.97 33.236 24.033 33.236ZM29.221 33.236C29.283 33.237 29.333 33.29 29.332 33.352C29.3319 33.3664 29.3289 33.3807 29.3233 33.394C29.3176 33.4073 29.3094 33.4193 29.2991 33.4295C29.2888 33.4396 29.2766 33.4476 29.2632 33.453C29.2498 33.4584 29.2355 33.4611 29.221 33.461C29.2062 33.4615 29.1915 33.4591 29.1777 33.4538C29.1639 33.4485 29.1513 33.4405 29.1406 33.4302C29.13 33.4199 29.1215 33.4076 29.1158 33.394C29.11 33.3804 29.107 33.3658 29.107 33.351C29.107 33.289 29.158 33.236 29.221 33.236ZM18.836 33.799H18.844C18.8736 33.8 18.9016 33.8126 18.922 33.8341C18.9424 33.8556 18.9535 33.8843 18.953 33.9139C18.9525 33.9435 18.9403 33.9717 18.9192 33.9925C18.8981 34.0133 18.8696 34.0249 18.84 34.0249C18.8104 34.0249 18.782 34.0133 18.7608 33.9925C18.7397 33.9717 18.7276 33.9435 18.727 33.9139C18.7265 33.8843 18.7376 33.8556 18.758 33.8341C18.7784 33.8126 18.8064 33.8 18.836 33.799ZM24.023 33.799H24.031C24.0606 33.8 24.0886 33.8126 24.109 33.8341C24.1294 33.8556 24.1405 33.8843 24.14 33.9139C24.1395 33.9435 24.1273 33.9717 24.1062 33.9925C24.0851 34.0133 24.0566 34.0249 24.027 34.0249C23.9974 34.0249 23.969 34.0133 23.9478 33.9925C23.9267 33.9717 23.9146 33.9435 23.914 33.9139C23.9135 33.8843 23.9246 33.8556 23.945 33.8341C23.9654 33.8126 23.9934 33.8 24.023 33.799ZM29.211 33.799H29.219C29.2486 33.8 29.2766 33.8126 29.297 33.8341C29.3174 33.8556 29.3285 33.8843 29.328 33.9139C29.3275 33.9435 29.3153 33.9717 29.2942 33.9925C29.2731 34.0133 29.2446 34.0249 29.215 34.0249C29.1854 34.0249 29.157 34.0133 29.1358 33.9925C29.1147 33.9717 29.1026 33.9435 29.102 33.9139C29.1015 33.8843 29.1126 33.8556 29.133 33.8341C29.1534 33.8126 29.1814 33.8 29.211 33.799ZM18.836 35.486C18.8513 35.485 18.8666 35.4872 18.881 35.4923C18.8953 35.4974 18.9086 35.5054 18.9198 35.5158C18.931 35.5262 18.94 35.5387 18.9462 35.5527C18.9524 35.5666 18.9558 35.5817 18.956 35.597C18.9564 35.6188 18.9503 35.6403 18.9385 35.6588C18.9268 35.6773 18.9099 35.6919 18.8899 35.7009C18.87 35.7098 18.8478 35.7127 18.8262 35.7092C18.8046 35.7058 18.7845 35.696 18.7684 35.6812C18.7522 35.6665 18.7408 35.6473 18.7354 35.626C18.7301 35.6048 18.7311 35.5825 18.7383 35.5618C18.7455 35.5412 18.7586 35.5231 18.7759 35.5098C18.7933 35.4965 18.8142 35.4885 18.836 35.487V35.486ZM24.023 35.486C24.0383 35.485 24.0536 35.4872 24.068 35.4923C24.0823 35.4974 24.0956 35.5054 24.1068 35.5158C24.118 35.5262 24.127 35.5387 24.1332 35.5527C24.1394 35.5666 24.1428 35.5817 24.143 35.597C24.1434 35.6188 24.1373 35.6403 24.1255 35.6588C24.1138 35.6773 24.0969 35.6919 24.0769 35.7009C24.057 35.7098 24.0348 35.7127 24.0132 35.7092C23.9916 35.7058 23.9715 35.696 23.9554 35.6812C23.9392 35.6665 23.9278 35.6473 23.9224 35.626C23.9171 35.6048 23.9181 35.5825 23.9253 35.5618C23.9325 35.5412 23.9456 35.5231 23.9629 35.5098C23.9803 35.4965 24.0012 35.4885 24.023 35.487V35.486ZM29.211 35.486C29.2263 35.485 29.2416 35.4872 29.256 35.4923C29.2703 35.4974 29.2836 35.5054 29.2948 35.5158C29.306 35.5262 29.315 35.5387 29.3212 35.5527C29.3274 35.5666 29.3308 35.5817 29.331 35.597C29.3314 35.6188 29.3253 35.6403 29.3135 35.6588C29.3018 35.6773 29.2849 35.6919 29.2649 35.7009C29.245 35.7098 29.2228 35.7127 29.2012 35.7092C29.1796 35.7058 29.1595 35.696 29.1434 35.6812C29.1272 35.6665 29.1158 35.6473 29.1104 35.626C29.1051 35.6048 29.1061 35.5825 29.1133 35.5618C29.1205 35.5412 29.1336 35.5231 29.1509 35.5098C29.1683 35.4965 29.1892 35.4885 29.211 35.487V35.486ZM18.824 37.174H18.844C18.905 37.174 18.954 37.224 18.955 37.285C18.9549 37.3063 18.9487 37.3272 18.9372 37.3452C18.9256 37.3631 18.9091 37.3774 18.8897 37.3863C18.8703 37.3952 18.8487 37.3984 18.8276 37.3954C18.8064 37.3925 18.7865 37.3836 18.7703 37.3697C18.7541 37.3558 18.7421 37.3376 18.7359 37.3172C18.7297 37.2967 18.7294 37.2749 18.7352 37.2544C18.7409 37.2338 18.7524 37.2153 18.7684 37.201C18.7843 37.1868 18.8039 37.1774 18.825 37.174H18.824ZM24.012 37.174H24.03C24.092 37.174 24.141 37.224 24.142 37.285C24.1419 37.3063 24.1357 37.3271 24.1242 37.345C24.1126 37.3629 24.0962 37.3772 24.0768 37.3861C24.0575 37.395 24.036 37.3982 24.0149 37.3953C23.9937 37.3924 23.9739 37.3836 23.9576 37.3698C23.9414 37.356 23.9294 37.3379 23.9231 37.3175C23.9167 37.2972 23.9164 37.2754 23.922 37.2549C23.9276 37.2343 23.9389 37.2158 23.9547 37.2015C23.9705 37.1871 23.99 37.1776 24.011 37.174H24.012ZM29.199 37.174H29.22C29.281 37.174 29.33 37.224 29.331 37.285C29.3309 37.3063 29.3247 37.3272 29.3132 37.3452C29.3016 37.3631 29.2851 37.3774 29.2657 37.3863C29.2463 37.3952 29.2247 37.3984 29.2036 37.3954C29.1824 37.3925 29.1625 37.3836 29.1463 37.3697C29.1301 37.3558 29.1181 37.3376 29.1119 37.3172C29.1057 37.2967 29.1054 37.2749 29.1112 37.2544C29.1169 37.2338 29.1284 37.2153 29.1444 37.201C29.1603 37.1868 29.1799 37.1774 29.201 37.174H29.199ZM18.836 37.734H18.844C18.8736 37.735 18.9016 37.7477 18.922 37.7691C18.9424 37.7906 18.9535 37.8193 18.953 37.8489C18.9525 37.8785 18.9403 37.9067 18.9192 37.9275C18.8981 37.9483 18.8696 37.9599 18.84 37.9599C18.8104 37.9599 18.782 37.9483 18.7608 37.9275C18.7397 37.9067 18.7276 37.8785 18.727 37.8489C18.7265 37.8193 18.7376 37.7906 18.758 37.7691C18.7784 37.7477 18.8064 37.735 18.836 37.734ZM24.023 37.734H24.031C24.0606 37.735 24.0886 37.7477 24.109 37.7691C24.1294 37.7906 24.1405 37.8193 24.14 37.8489C24.1395 37.8785 24.1273 37.9067 24.1062 37.9275C24.0851 37.9483 24.0566 37.9599 24.027 37.9599C23.9974 37.9599 23.969 37.9483 23.9478 37.9275C23.9267 37.9067 23.9146 37.8785 23.914 37.8489C23.9135 37.8193 23.9246 37.7906 23.945 37.7691C23.9654 37.7477 23.9934 37.735 24.023 37.734ZM29.211 37.734H29.219C29.2486 37.735 29.2766 37.7477 29.297 37.7691C29.3174 37.7906 29.3285 37.8193 29.328 37.8489C29.3275 37.8785 29.3153 37.9067 29.2942 37.9275C29.2731 37.9483 29.2446 37.9599 29.215 37.9599C29.1854 37.9599 29.157 37.9483 29.1358 37.9275C29.1147 37.9067 29.1026 37.8785 29.102 37.8489C29.1015 37.8193 29.1126 37.7906 29.133 37.7691C29.1534 37.7477 29.1814 37.735 29.211 37.734ZM16.031 38.082C16.4351 38.082 16.8226 38.2425 17.1083 38.5282C17.394 38.8139 17.5545 39.2014 17.5545 39.6055C17.5545 40.0095 17.394 40.397 17.1083 40.6827C16.8226 40.9685 16.4351 41.129 16.031 41.129C15.627 41.129 15.2395 40.9685 14.9537 40.6827C14.668 40.397 14.5075 40.0095 14.5075 39.6055C14.5075 39.2014 14.668 38.8139 14.9537 38.5282C15.2395 38.2425 15.627 38.082 16.031 38.082ZM21.365 38.082C21.7691 38.082 22.1566 38.2425 22.4423 38.5282C22.728 38.8139 22.8885 39.2014 22.8885 39.6055C22.8885 40.0095 22.728 40.397 22.4423 40.6827C22.1566 40.9685 21.7691 41.129 21.365 41.129C20.961 41.129 20.5735 40.9685 20.2877 40.6827C20.002 40.397 19.8415 40.0095 19.8415 39.6055C19.8415 39.2014 20.002 38.8139 20.2877 38.5282C20.5735 38.2425 20.961 38.082 21.365 38.082ZM26.697 38.082C27.1011 38.082 27.4886 38.2425 27.7743 38.5282C28.06 38.8139 28.2205 39.2014 28.2205 39.6055C28.2205 40.0095 28.06 40.397 27.7743 40.6827C27.4886 40.9685 27.1011 41.129 26.697 41.129C26.293 41.129 25.9055 40.9685 25.6197 40.6827C25.334 40.397 25.1735 40.0095 25.1735 39.6055C25.1735 39.2014 25.334 38.8139 25.6197 38.5282C25.9055 38.2425 26.293 38.082 26.697 38.082ZM32.031 38.082C32.4351 38.082 32.8226 38.2425 33.1083 38.5282C33.394 38.8139 33.5545 39.2014 33.5545 39.6055C33.5545 40.0095 33.394 40.397 33.1083 40.6827C32.8226 40.9685 32.4351 41.129 32.031 41.129C31.627 41.129 31.2395 40.9685 30.9537 40.6827C30.668 40.397 30.5075 40.0095 30.5075 39.6055C30.5075 39.2014 30.668 38.8139 30.9537 38.5282C31.2395 38.2425 31.627 38.082 32.031 38.082ZM18.836 39.422H18.844C18.872 39.4246 18.898 39.4376 18.917 39.4584C18.9359 39.4792 18.9464 39.5063 18.9464 39.5345C18.9464 39.5626 18.9359 39.5897 18.917 39.6105C18.898 39.6313 18.872 39.6443 18.844 39.647C18.8292 39.6475 18.8145 39.6451 18.8007 39.6399C18.7868 39.6348 18.7741 39.6269 18.7633 39.6168C18.7525 39.6068 18.7438 39.5947 18.7376 39.5812C18.7315 39.5678 18.728 39.5532 18.7275 39.5385C18.727 39.5237 18.7294 39.509 18.7346 39.4951C18.7397 39.4813 18.7476 39.4686 18.7576 39.4577C18.7677 39.4469 18.7798 39.4382 18.7933 39.4321C18.8067 39.4259 18.8212 39.4225 18.836 39.422ZM24.023 39.422H24.031C24.059 39.4246 24.085 39.4376 24.104 39.4584C24.1229 39.4792 24.1334 39.5063 24.1334 39.5345C24.1334 39.5626 24.1229 39.5897 24.104 39.6105C24.085 39.6313 24.059 39.6443 24.031 39.647C24.0012 39.648 23.9721 39.6372 23.9503 39.6168C23.9285 39.5965 23.9156 39.5683 23.9145 39.5385C23.9135 39.5086 23.9243 39.4796 23.9446 39.4577C23.965 39.4359 23.9932 39.423 24.023 39.422ZM29.211 39.422H29.219C29.247 39.4246 29.273 39.4376 29.292 39.4584C29.3109 39.4792 29.3214 39.5063 29.3214 39.5345C29.3214 39.5626 29.3109 39.5897 29.292 39.6105C29.273 39.6313 29.247 39.6443 29.219 39.647C29.2042 39.6475 29.1895 39.6451 29.1757 39.6399C29.1618 39.6348 29.1491 39.6269 29.1383 39.6168C29.1275 39.6068 29.1188 39.5947 29.1126 39.5812C29.1065 39.5678 29.103 39.5532 29.1025 39.5385C29.102 39.5237 29.1044 39.509 29.1096 39.4951C29.1147 39.4813 29.1226 39.4686 29.1326 39.4577C29.1427 39.4469 29.1548 39.4382 29.1683 39.4321C29.1817 39.4259 29.1962 39.4225 29.211 39.422ZM18.836 39.984H18.844C18.872 39.9866 18.898 39.9996 18.917 40.0204C18.9359 40.0412 18.9464 40.0683 18.9464 40.0965C18.9464 40.1246 18.9359 40.1517 18.917 40.1725C18.898 40.1933 18.872 40.2063 18.844 40.209C18.8292 40.2095 18.8145 40.2071 18.8007 40.2019C18.7868 40.1968 18.7741 40.1889 18.7633 40.1788C18.7525 40.1688 18.7438 40.1567 18.7376 40.1432C18.7315 40.1298 18.728 40.1152 18.7275 40.1005C18.727 40.0857 18.7294 40.071 18.7346 40.0571C18.7397 40.0433 18.7476 40.0306 18.7576 40.0197C18.7677 40.0089 18.7798 40.0002 18.7933 39.9941C18.8067 39.9879 18.8212 39.9845 18.836 39.984ZM24.023 39.984H24.031C24.059 39.9866 24.085 39.9996 24.104 40.0204C24.1229 40.0412 24.1334 40.0683 24.1334 40.0965C24.1334 40.1246 24.1229 40.1517 24.104 40.1725C24.085 40.1933 24.059 40.2063 24.031 40.209C24.0012 40.21 23.9721 40.1992 23.9503 40.1788C23.9285 40.1585 23.9156 40.1303 23.9145 40.1005C23.9135 40.0706 23.9243 40.0416 23.9446 40.0197C23.965 39.9979 23.9932 39.985 24.023 39.984ZM29.211 39.984H29.219C29.247 39.9866 29.273 39.9996 29.292 40.0204C29.3109 40.0412 29.3214 40.0683 29.3214 40.0965C29.3214 40.1246 29.3109 40.1517 29.292 40.1725C29.273 40.1933 29.247 40.2063 29.219 40.209C29.2042 40.2095 29.1895 40.2071 29.1757 40.2019C29.1618 40.1968 29.1491 40.1889 29.1383 40.1788C29.1275 40.1688 29.1188 40.1567 29.1126 40.1432C29.1065 40.1298 29.103 40.1152 29.1025 40.1005C29.102 40.0857 29.1044 40.071 29.1096 40.0571C29.1147 40.0433 29.1226 40.0306 29.1326 40.0197C29.1427 40.0089 29.1548 40.0002 29.1683 39.9941C29.1817 39.9879 29.1962 39.9845 29.211 39.984ZM18.836 40.547H18.844C18.8734 40.548 18.9011 40.5605 18.9213 40.5819C18.9415 40.6032 18.9525 40.6315 18.952 40.6609C18.9515 40.6903 18.9395 40.7182 18.9185 40.7388C18.8976 40.7594 18.8694 40.7709 18.84 40.7709C18.8107 40.7709 18.7825 40.7594 18.7615 40.7388C18.7406 40.7182 18.7286 40.6903 18.728 40.6609C18.7275 40.6315 18.7385 40.6032 18.7587 40.5819C18.7789 40.5605 18.8067 40.548 18.836 40.547ZM24.023 40.547H24.031C24.0604 40.548 24.0881 40.5605 24.1083 40.5819C24.1285 40.6032 24.1395 40.6315 24.139 40.6609C24.1385 40.6903 24.1265 40.7182 24.1055 40.7388C24.0846 40.7594 24.0564 40.7709 24.027 40.7709C23.9977 40.7709 23.9695 40.7594 23.9485 40.7388C23.9276 40.7182 23.9156 40.6903 23.915 40.6609C23.9145 40.6315 23.9255 40.6032 23.9457 40.5819C23.9659 40.5605 23.9937 40.548 24.023 40.547ZM29.211 40.547H29.219C29.2484 40.548 29.2761 40.5605 29.2963 40.5819C29.3165 40.6032 29.3275 40.6315 29.327 40.6609C29.3265 40.6903 29.3145 40.7182 29.2935 40.7388C29.2726 40.7594 29.2444 40.7709 29.215 40.7709C29.1857 40.7709 29.1575 40.7594 29.1365 40.7388C29.1156 40.7182 29.1036 40.6903 29.103 40.6609C29.1025 40.6315 29.1135 40.6032 29.1337 40.5819C29.1539 40.5605 29.1817 40.548 29.211 40.547ZM18.824 41.109H18.844C18.872 41.1116 18.898 41.1246 18.917 41.1454C18.9359 41.1662 18.9464 41.1933 18.9464 41.2215C18.9464 41.2496 18.9359 41.2767 18.917 41.2975C18.898 41.3183 18.872 41.3313 18.844 41.334C18.8291 41.3342 18.8142 41.3315 18.8003 41.3259C18.7864 41.3204 18.7738 41.3121 18.7632 41.3015C18.7525 41.291 18.7441 41.2784 18.7384 41.2646C18.7327 41.2508 18.7299 41.2359 18.73 41.221C18.7292 41.194 18.7384 41.1677 18.7557 41.1471C18.773 41.1264 18.7974 41.1129 18.824 41.109ZM24.012 41.109H24.03C24.058 41.1116 24.084 41.1246 24.103 41.1454C24.1219 41.1662 24.1324 41.1933 24.1324 41.2215C24.1324 41.2496 24.1219 41.2767 24.103 41.2975C24.084 41.3183 24.058 41.3313 24.03 41.334C24.0151 41.3341 24.0004 41.3313 23.9866 41.3256C23.9729 41.32 23.9603 41.3117 23.9498 41.3012C23.9393 41.2906 23.931 41.2781 23.9254 41.2644C23.9197 41.2506 23.9169 41.2358 23.917 41.221C23.9162 41.194 23.9254 41.1677 23.9427 41.1471C23.96 41.1264 23.9844 41.1129 24.011 41.109H24.012ZM29.199 41.109H29.22C29.248 41.1116 29.274 41.1246 29.293 41.1454C29.3119 41.1662 29.3224 41.1933 29.3224 41.2215C29.3224 41.2496 29.3119 41.2767 29.293 41.2975C29.274 41.3183 29.248 41.3313 29.22 41.334C29.2051 41.3342 29.1902 41.3315 29.1763 41.3259C29.1624 41.3204 29.1498 41.3121 29.1392 41.3015C29.1285 41.291 29.1201 41.2784 29.1144 41.2646C29.1087 41.2508 29.1059 41.2359 29.106 41.221C29.1052 41.194 29.1144 41.1677 29.1317 41.1471C29.149 41.1264 29.1734 41.1129 29.2 41.109H29.199ZM18.824 41.672H18.844C18.905 41.672 18.954 41.722 18.955 41.783C18.955 41.845 18.905 41.894 18.844 41.895C18.8291 41.8952 18.8144 41.8925 18.8005 41.887C18.7867 41.8815 18.7741 41.8733 18.7635 41.8629C18.7529 41.8525 18.7445 41.84 18.7387 41.8263C18.733 41.8126 18.73 41.7978 18.73 41.783C18.7295 41.7562 18.7388 41.7302 18.7561 41.7097C18.7734 41.6893 18.7975 41.6759 18.824 41.672ZM24.012 41.672H24.03C24.092 41.672 24.141 41.722 24.142 41.783C24.142 41.845 24.092 41.894 24.03 41.895C24.0152 41.8951 24.0006 41.8923 23.9869 41.8867C23.9732 41.8812 23.9607 41.8729 23.9502 41.8625C23.9397 41.8521 23.9313 41.8397 23.9256 41.8261C23.92 41.8124 23.917 41.7978 23.917 41.783C23.9165 41.7562 23.9258 41.7302 23.9431 41.7097C23.9604 41.6893 23.9845 41.6759 24.011 41.672H24.012ZM29.199 41.672H29.22C29.281 41.672 29.33 41.722 29.331 41.783C29.331 41.845 29.281 41.894 29.22 41.895C29.2051 41.8952 29.1904 41.8925 29.1765 41.887C29.1627 41.8815 29.1501 41.8733 29.1395 41.8629C29.1289 41.8525 29.1205 41.84 29.1147 41.8263C29.109 41.8126 29.106 41.7978 29.106 41.783C29.1055 41.7562 29.1148 41.7302 29.1321 41.7097C29.1494 41.6893 29.1735 41.6759 29.2 41.672H29.199ZM18.846 42.232C18.8759 42.2322 18.9044 42.2443 18.9253 42.2656C18.9462 42.2869 18.9578 42.3156 18.9575 42.3455C18.9573 42.3753 18.9451 42.4038 18.9239 42.4247C18.9026 42.4456 18.8739 42.4572 18.844 42.457C18.8143 42.4567 18.7859 42.4446 18.7651 42.4235C18.7443 42.4023 18.7328 42.3737 18.733 42.344C18.7333 42.3143 18.7453 42.2859 18.7665 42.2651C18.7877 42.2443 18.8163 42.2327 18.846 42.233V42.232ZM24.033 42.232C24.0478 42.232 24.0624 42.235 24.076 42.2407C24.0897 42.2464 24.102 42.2548 24.1124 42.2653C24.1228 42.2758 24.1311 42.2882 24.1367 42.3019C24.1422 42.3156 24.1451 42.3302 24.145 42.345C24.145 42.3597 24.142 42.3744 24.1363 42.388C24.1306 42.4016 24.1222 42.414 24.1117 42.4244C24.1012 42.4348 24.0888 42.443 24.0751 42.4486C24.0614 42.4542 24.0468 42.457 24.032 42.457C24.0023 42.4568 23.9739 42.4449 23.953 42.4238C23.9321 42.4027 23.9204 42.3742 23.9205 42.3445C23.9207 42.3148 23.9326 42.2863 23.9537 42.2654C23.9748 42.2445 24.0033 42.2328 24.033 42.233V42.232ZM29.221 42.232C29.2509 42.2322 29.2794 42.2443 29.3003 42.2656C29.3212 42.2869 29.3328 42.3156 29.3325 42.3455C29.3323 42.3753 29.3202 42.4038 29.2989 42.4247C29.2776 42.4456 29.2489 42.4572 29.219 42.457C29.1893 42.4567 29.1609 42.4446 29.1401 42.4235C29.1193 42.4023 29.1078 42.3737 29.108 42.344C29.1083 42.3143 29.1203 42.2859 29.1415 42.2651C29.1627 42.2443 29.1913 42.2327 29.221 42.233V42.232Z" fill="#333333"/>
</svg>
