<svg width="48" height="48" viewBox="0 0 48 48" fill="none" xmlns="http://www.w3.org/2000/svg">
<path d="M14.346 4.09402C13.476 4.09402 12.777 4.79302 12.777 5.66202V42.523C12.777 43.393 13.477 44.093 14.346 44.093H34.05C34.92 44.093 35.618 43.393 35.618 42.523V5.66302C35.618 4.79302 34.919 4.09302 34.05 4.09302H14.346V4.09402ZM14.776 4.59402H33.616C34.446 4.59402 35.117 5.27702 35.117 6.12502V42.065C35.117 42.912 34.447 43.594 33.615 43.594H14.775C13.945 43.594 13.275 42.912 13.275 42.064V6.12502C13.275 5.27702 13.945 4.59402 14.775 4.59402H14.776ZM18.225 9.23602C18.041 9.25902 17.862 9.36302 17.57 9.49002L15.762 11.346C15.6751 11.4352 15.6066 11.5407 15.5606 11.6564C15.5146 11.7722 15.4919 11.8959 15.4939 12.0204C15.4958 12.1449 15.5224 12.2678 15.572 12.3821C15.6216 12.4963 15.6933 12.5996 15.783 12.686C15.8719 12.7733 15.9772 12.842 16.0929 12.8884C16.2085 12.9347 16.3322 12.9577 16.4567 12.956C16.5813 12.9544 16.7043 12.9281 16.8186 12.8786C16.933 12.8292 17.0364 12.7576 17.123 12.668L18.932 10.808C19.0188 10.7188 19.0872 10.6132 19.1331 10.4974C19.1791 10.3817 19.2016 10.258 19.1996 10.1334C19.1976 10.0089 19.1709 9.88602 19.1212 9.77182C19.0715 9.65762 18.9997 9.55438 18.91 9.46802C18.597 9.27202 18.408 9.21302 18.225 9.23602ZM21.787 9.23602C21.603 9.25902 21.424 9.36302 21.133 9.49002L19.324 11.346C19.2371 11.4353 19.1688 11.5408 19.1228 11.6566C19.0769 11.7724 19.0543 11.8961 19.0564 12.0206C19.0584 12.1451 19.085 12.268 19.1347 12.3822C19.1844 12.4964 19.2562 12.5997 19.346 12.686C19.4349 12.7733 19.5402 12.842 19.6559 12.8884C19.7715 12.9347 19.8952 12.9577 20.0197 12.956C20.1443 12.9544 20.2673 12.9281 20.3816 12.8786C20.496 12.8292 20.5994 12.7576 20.686 12.668L22.494 10.808C22.5809 10.7188 22.6493 10.6133 22.6954 10.4976C22.7414 10.3819 22.764 10.2582 22.7621 10.1337C22.7601 10.0091 22.7336 9.88621 22.684 9.77197C22.6344 9.65774 22.5627 9.55444 22.473 9.46802C22.16 9.27202 21.971 9.21302 21.787 9.23602ZM25.164 9.23602C24.98 9.25902 24.801 9.36302 24.51 9.49002L22.7 11.346C22.6131 11.4353 22.5448 11.5408 22.4988 11.6566C22.4529 11.7724 22.4303 11.8961 22.4324 12.0206C22.4344 12.1451 22.461 12.268 22.5107 12.3822C22.5604 12.4964 22.6322 12.5997 22.722 12.686C22.8109 12.7733 22.9162 12.842 23.0319 12.8884C23.1475 12.9347 23.2712 12.9577 23.3957 12.956C23.5203 12.9544 23.6433 12.9281 23.7576 12.8786C23.872 12.8292 23.9754 12.7576 24.062 12.668L25.87 10.808C25.9569 10.7188 26.0253 10.6133 26.0714 10.4976C26.1174 10.3819 26.14 10.2582 26.1381 10.1337C26.1361 10.0091 26.1096 9.88621 26.06 9.77197C26.0104 9.65774 25.9387 9.55444 25.849 9.46802C25.535 9.27202 25.347 9.21302 25.163 9.23602H25.164ZM28.727 9.23602C28.543 9.25902 28.364 9.36302 28.072 9.49002L26.264 11.346C26.1771 11.4352 26.1086 11.5407 26.0626 11.6564C26.0166 11.7722 25.9939 11.8959 25.9959 12.0204C25.9978 12.1449 26.0244 12.2678 26.074 12.3821C26.1236 12.4963 26.1953 12.5996 26.285 12.686C26.3739 12.7733 26.4792 12.842 26.5949 12.8884C26.7105 12.9347 26.8342 12.9577 26.9587 12.956C27.0833 12.9544 27.2063 12.9281 27.3206 12.8786C27.435 12.8292 27.5384 12.7576 27.625 12.668L29.434 10.808C29.5208 10.7188 29.5892 10.6132 29.6351 10.4974C29.6811 10.3817 29.7036 10.258 29.7016 10.1334C29.6996 10.0089 29.6729 9.88602 29.6232 9.77182C29.5735 9.65762 29.5017 9.55438 29.412 9.46802C29.099 9.27202 28.91 9.21302 28.727 9.23602ZM31.926 9.23602C31.742 9.25902 31.565 9.36302 31.273 9.49002L29.465 11.346C29.3781 11.4352 29.3096 11.5407 29.2636 11.6564C29.2176 11.7722 29.1949 11.8959 29.1969 12.0204C29.1988 12.1449 29.2254 12.2678 29.275 12.3821C29.3246 12.4963 29.3963 12.5996 29.486 12.686C29.5749 12.7733 29.6802 12.842 29.7959 12.8884C29.9115 12.9347 30.0352 12.9577 30.1597 12.956C30.2843 12.9544 30.4073 12.9281 30.5216 12.8786C30.636 12.8292 30.7394 12.7576 30.826 12.668L32.635 10.808C32.7218 10.7188 32.7902 10.6132 32.8361 10.4974C32.8821 10.3817 32.9046 10.258 32.9026 10.1334C32.9006 10.0089 32.8739 9.88602 32.8242 9.77182C32.7745 9.65762 32.7027 9.55438 32.613 9.46802C32.3 9.27202 32.11 9.21302 31.926 9.23602ZM18.3 9.68202C18.3914 9.69005 18.4778 9.7276 18.546 9.78902C18.952 10.151 18.471 10.575 18.296 10.758L17.431 11.662C16.823 12.293 16.559 12.72 16.136 12.312C15.776 11.939 16.092 11.717 16.78 11.018L17.646 10.115C17.851 9.91502 18.064 9.67002 18.3 9.68202ZM21.862 9.68202C21.9534 9.69005 22.0398 9.7276 22.108 9.78902C22.515 10.151 22.033 10.575 21.858 10.758L20.993 11.662C20.386 12.293 20.122 12.72 19.698 12.312C19.338 11.939 19.654 11.717 20.343 11.018L21.208 10.115C21.413 9.91502 21.626 9.67002 21.862 9.68202ZM25.239 9.68202C25.3304 9.69005 25.4168 9.7276 25.485 9.78902C25.892 10.151 25.41 10.575 25.235 10.758L24.37 11.662C23.763 12.293 23.499 12.72 23.075 12.312C22.715 11.939 23.031 11.717 23.72 11.018L24.585 10.115C24.79 9.91502 25.003 9.67002 25.239 9.68202ZM28.802 9.68202C28.8934 9.69005 28.9798 9.7276 29.048 9.78902C29.454 10.151 28.973 10.575 28.798 10.758L27.933 11.662C27.325 12.293 27.061 12.72 26.638 12.312C26.278 11.939 26.594 11.717 27.282 11.018L28.147 10.115C28.353 9.91502 28.566 9.67002 28.802 9.68202ZM32.002 9.68202C32.0938 9.68984 32.1805 9.72741 32.249 9.78902C32.656 10.151 32.174 10.575 31.999 10.758L31.134 11.662C30.526 12.293 30.262 12.72 29.839 12.312C29.479 11.939 29.795 11.717 30.483 11.018L31.349 10.115C31.554 9.91502 31.767 9.67002 32.003 9.68202H32.002ZM13.796 14.98C13.7812 14.9801 13.7666 14.9832 13.753 14.989C13.7394 14.9948 13.727 15.0033 13.7167 15.0139C13.7064 15.0245 13.6983 15.037 13.6928 15.0508C13.6874 15.0645 13.6847 15.0792 13.685 15.094C13.685 15.155 13.735 15.206 13.795 15.207C13.858 15.207 13.908 15.157 13.909 15.094C13.9092 15.0791 13.9065 15.0642 13.9009 15.0503C13.8954 15.0364 13.8871 15.0238 13.8765 15.0132C13.866 15.0025 13.8534 14.9941 13.8396 14.9884C13.8258 14.9827 13.8109 14.9799 13.796 14.98ZM14.358 14.98C14.3279 14.9803 14.2992 14.9924 14.278 15.0138C14.2568 15.0351 14.245 15.064 14.245 15.094C14.245 15.155 14.297 15.207 14.358 15.207C14.42 15.207 14.469 15.155 14.47 15.094V15.074C14.4661 15.0473 14.4525 15.023 14.4319 15.0057C14.4112 14.9884 14.3849 14.9792 14.358 14.98ZM14.921 14.98C14.906 14.9799 14.8912 14.9827 14.8773 14.9884C14.8635 14.9941 14.8509 15.0025 14.8404 15.0132C14.8299 15.0238 14.8216 15.0364 14.816 15.0503C14.8104 15.0642 14.8077 15.0791 14.808 15.094C14.808 15.156 14.858 15.208 14.921 15.207C14.982 15.207 15.031 15.155 15.032 15.094V15.074C15.0281 15.0475 15.0147 15.0234 14.9942 15.0061C14.9738 14.9887 14.9477 14.9795 14.921 14.98ZM15.483 14.98C15.468 14.9799 15.4532 14.9827 15.4393 14.9884C15.4255 14.9941 15.4129 15.0025 15.4024 15.0132C15.3919 15.0238 15.3836 15.0364 15.378 15.0503C15.3724 15.0642 15.3697 15.0791 15.37 15.094C15.37 15.156 15.421 15.208 15.483 15.207C15.545 15.207 15.594 15.155 15.595 15.094V15.086C15.5934 15.0574 15.581 15.0304 15.5601 15.0107C15.5393 14.991 15.5117 14.98 15.483 14.98ZM16.046 14.98C16.031 14.9799 16.0162 14.9827 16.0023 14.9884C15.9885 14.9941 15.9759 15.0025 15.9654 15.0132C15.9549 15.0238 15.9466 15.0364 15.941 15.0503C15.9354 15.0642 15.9327 15.0791 15.933 15.094C15.933 15.156 15.983 15.208 16.046 15.207C16.107 15.207 16.156 15.155 16.157 15.094V15.086C16.1554 15.0575 16.1431 15.0307 16.1225 15.011C16.1019 14.9913 16.0745 14.9802 16.046 14.98ZM16.608 14.98C16.593 14.9799 16.5782 14.9827 16.5643 14.9884C16.5505 14.9941 16.5379 15.0025 16.5274 15.0132C16.5169 15.0238 16.5086 15.0364 16.503 15.0503C16.4974 15.0642 16.4947 15.0791 16.495 15.094C16.495 15.156 16.546 15.208 16.608 15.207C16.67 15.207 16.719 15.155 16.72 15.094V15.086C16.7184 15.0574 16.706 15.0304 16.6851 15.0107C16.6643 14.991 16.6367 14.98 16.608 14.98ZM17.169 14.98C17.1542 14.9801 17.1396 14.9832 17.126 14.989C17.1124 14.9948 17.1 15.0033 17.0897 15.0139C17.0794 15.0245 17.0713 15.037 17.0658 15.0508C17.0604 15.0645 17.0577 15.0792 17.058 15.094C17.058 15.155 17.108 15.207 17.169 15.207C17.1989 15.2068 17.2275 15.1948 17.2486 15.1736C17.2697 15.1525 17.2817 15.1239 17.282 15.094V15.086C17.2804 15.0572 17.2678 15.0301 17.2468 15.0103C17.2257 14.9906 17.1978 14.9797 17.169 14.98ZM17.732 14.98C17.7171 14.98 17.7024 14.983 17.6887 14.9887C17.6749 14.9945 17.6625 15.0029 17.6521 15.0135C17.6416 15.0241 17.6334 15.0367 17.6279 15.0505C17.6224 15.0644 17.6197 15.0791 17.62 15.094C17.62 15.155 17.67 15.207 17.731 15.207C17.761 15.207 17.7899 15.1951 17.8112 15.174C17.8326 15.1528 17.8447 15.1241 17.845 15.094V15.086C17.8434 15.057 17.8307 15.0298 17.8094 15.01C17.7881 14.9902 17.76 14.9795 17.731 14.98H17.732ZM18.294 14.98C18.2792 14.9801 18.2646 14.9832 18.251 14.989C18.2374 14.9948 18.225 15.0033 18.2147 15.0139C18.2044 15.0245 18.1963 15.037 18.1908 15.0508C18.1854 15.0645 18.1827 15.0792 18.183 15.094C18.183 15.155 18.233 15.207 18.294 15.207C18.3239 15.2068 18.3525 15.1948 18.3736 15.1736C18.3947 15.1525 18.4067 15.1239 18.407 15.094V15.086C18.4054 15.0572 18.3928 15.0301 18.3718 15.0103C18.3507 14.9906 18.3228 14.9797 18.294 14.98ZM18.857 14.98C18.8421 14.98 18.8274 14.983 18.8137 14.9887C18.7999 14.9945 18.7875 15.0029 18.7771 15.0135C18.7666 15.0241 18.7584 15.0367 18.7529 15.0505C18.7474 15.0644 18.7447 15.0791 18.745 15.094C18.745 15.155 18.795 15.207 18.856 15.207C18.918 15.207 18.967 15.155 18.968 15.094V15.074C18.9641 15.0475 18.9507 15.0234 18.9302 15.0061C18.9098 14.9887 18.8838 14.9795 18.857 14.98ZM19.419 14.98C19.404 14.9799 19.3892 14.9827 19.3753 14.9884C19.3615 14.9941 19.3489 15.0025 19.3384 15.0132C19.3279 15.0238 19.3196 15.0364 19.314 15.0503C19.3084 15.0642 19.3057 15.0791 19.306 15.094C19.306 15.156 19.357 15.208 19.419 15.207C19.48 15.207 19.529 15.155 19.53 15.094V15.086C19.5285 15.0575 19.5161 15.0307 19.4955 15.011C19.4749 14.9913 19.4475 14.9802 19.419 14.98ZM19.982 14.98C19.9669 14.9797 19.952 14.9825 19.938 14.9881C19.9241 14.9938 19.9114 15.0022 19.9008 15.0128C19.8901 15.0234 19.8817 15.0361 19.8761 15.0501C19.8705 15.064 19.8677 15.079 19.868 15.094C19.868 15.156 19.92 15.208 19.981 15.207C20.043 15.207 20.092 15.155 20.093 15.094V15.086C20.0915 15.0575 20.0791 15.0307 20.0585 15.011C20.0379 14.9913 20.0105 14.9802 19.982 14.98ZM20.544 14.98C20.529 14.9799 20.5142 14.9827 20.5003 14.9884C20.4865 14.9941 20.4739 15.0025 20.4634 15.0132C20.4529 15.0238 20.4446 15.0364 20.439 15.0503C20.4334 15.0642 20.4307 15.0791 20.431 15.094C20.431 15.156 20.482 15.208 20.544 15.207C20.605 15.207 20.654 15.155 20.655 15.094V15.086C20.6535 15.0575 20.6411 15.0307 20.6205 15.011C20.5999 14.9913 20.5725 14.9802 20.544 14.98ZM21.107 14.98C21.0919 14.9797 21.077 14.9825 21.063 14.9881C21.0491 14.9938 21.0364 15.0022 21.0258 15.0128C21.0151 15.0234 21.0067 15.0361 21.0011 15.0501C20.9955 15.064 20.9927 15.079 20.993 15.094C20.993 15.156 21.045 15.208 21.106 15.207C21.168 15.207 21.217 15.155 21.218 15.094V15.086C21.2165 15.0575 21.2041 15.0307 21.1835 15.011C21.1629 14.9913 21.1355 14.9802 21.107 14.98ZM21.667 14.98C21.6522 14.9801 21.6376 14.9832 21.624 14.989C21.6104 14.9948 21.598 15.0033 21.5877 15.0139C21.5774 15.0245 21.5693 15.037 21.5638 15.0508C21.5584 15.0645 21.5557 15.0792 21.556 15.094C21.556 15.155 21.606 15.207 21.667 15.207C21.6969 15.2068 21.7255 15.1948 21.7466 15.1736C21.7677 15.1525 21.7797 15.1239 21.78 15.094V15.086C21.7784 15.0572 21.7658 15.0301 21.7448 15.0103C21.7237 14.9906 21.6958 14.9797 21.667 14.98ZM22.23 14.98C22.2151 14.98 22.2004 14.983 22.1866 14.9887C22.1729 14.9945 22.1605 15.0029 22.1501 15.0135C22.1396 15.0241 22.1314 15.0367 22.1259 15.0505C22.1204 15.0644 22.1177 15.0791 22.118 15.094C22.118 15.155 22.168 15.207 22.229 15.207C22.259 15.207 22.2879 15.1951 22.3092 15.174C22.3306 15.1528 22.3427 15.1241 22.343 15.094V15.086C22.3414 15.0572 22.3288 15.0301 22.3078 15.0103C22.2867 14.9906 22.2588 14.9797 22.23 14.98ZM22.792 14.98C22.7772 14.9801 22.7626 14.9832 22.749 14.989C22.7354 14.9948 22.723 15.0033 22.7127 15.0139C22.7024 15.0245 22.6943 15.037 22.6888 15.0508C22.6834 15.0645 22.6807 15.0792 22.681 15.094C22.681 15.155 22.731 15.206 22.792 15.207C22.854 15.207 22.905 15.157 22.905 15.094C22.9052 15.0791 22.9025 15.0642 22.8969 15.0503C22.8914 15.0364 22.8831 15.0238 22.8725 15.0132C22.862 15.0025 22.8495 14.9941 22.8356 14.9884C22.8218 14.9827 22.8069 14.9799 22.792 14.98ZM23.355 14.98C23.3401 14.98 23.3254 14.983 23.3116 14.9887C23.2979 14.9945 23.2855 15.0029 23.2751 15.0135C23.2646 15.0241 23.2564 15.0367 23.2509 15.0505C23.2454 15.0644 23.2427 15.0791 23.243 15.094C23.243 15.155 23.293 15.207 23.354 15.207C23.3837 15.2065 23.412 15.1944 23.4329 15.1733C23.4539 15.1522 23.4657 15.1237 23.466 15.094V15.074C23.4619 15.0476 23.4484 15.0236 23.428 15.0063C23.4076 14.989 23.3817 14.9797 23.355 14.98ZM23.917 14.98C23.902 14.9799 23.8872 14.9827 23.8733 14.9884C23.8595 14.9941 23.8469 15.0025 23.8364 15.0132C23.8259 15.0238 23.8176 15.0364 23.812 15.0503C23.8064 15.0642 23.8037 15.0791 23.804 15.094C23.804 15.156 23.855 15.208 23.917 15.207C23.978 15.207 24.027 15.155 24.028 15.094V15.074C24.0241 15.0475 24.0107 15.0234 23.9902 15.0061C23.9698 14.9887 23.9438 14.9795 23.917 14.98ZM24.48 14.98C24.4649 14.9797 24.45 14.9825 24.436 14.9881C24.4221 14.9938 24.4094 15.0022 24.3988 15.0128C24.3881 15.0234 24.3797 15.0361 24.3741 15.0501C24.3685 15.064 24.3657 15.079 24.366 15.094C24.366 15.156 24.418 15.208 24.48 15.207C24.54 15.207 24.59 15.155 24.59 15.094V15.086C24.5885 15.0577 24.5763 15.031 24.5559 15.0114C24.5354 14.9917 24.5083 14.9805 24.48 14.98ZM25.042 14.98C25.027 14.9799 25.0122 14.9827 24.9983 14.9884C24.9845 14.9941 24.9719 15.0025 24.9614 15.0132C24.9509 15.0238 24.9426 15.0364 24.937 15.0503C24.9314 15.0642 24.9287 15.0791 24.929 15.094C24.929 15.156 24.98 15.208 25.042 15.207C25.103 15.207 25.152 15.155 25.153 15.094V15.086C25.1515 15.0575 25.1391 15.0307 25.1185 15.011C25.0979 14.9913 25.0705 14.9802 25.042 14.98ZM25.602 14.98C25.5873 14.9803 25.5728 14.9834 25.5593 14.9893C25.5458 14.9952 25.5336 15.0036 25.5234 15.0142C25.5131 15.0248 25.5051 15.0373 25.4997 15.051C25.4943 15.0647 25.4917 15.0793 25.492 15.094C25.492 15.155 25.542 15.207 25.602 15.207C25.632 15.207 25.6609 15.1951 25.6822 15.174C25.7036 15.1528 25.7157 15.1241 25.716 15.094V15.086C25.7144 15.0572 25.7018 15.0301 25.6808 15.0103C25.6597 14.9906 25.6318 14.9797 25.603 14.98H25.602ZM26.165 14.98C26.1502 14.9801 26.1356 14.9832 26.122 14.989C26.1084 14.9948 26.096 15.0033 26.0857 15.0139C26.0754 15.0245 26.0673 15.037 26.0618 15.0508C26.0564 15.0645 26.0537 15.0792 26.054 15.094C26.054 15.155 26.104 15.207 26.165 15.207C26.1949 15.2068 26.2235 15.1948 26.2446 15.1736C26.2657 15.1525 26.2777 15.1239 26.278 15.094V15.086C26.2764 15.0572 26.2638 15.0301 26.2428 15.0103C26.2217 14.9906 26.1938 14.9797 26.165 14.98ZM26.728 14.98C26.7131 14.98 26.6984 14.983 26.6847 14.9887C26.6709 14.9945 26.6585 15.0029 26.6481 15.0135C26.6376 15.0241 26.6294 15.0367 26.6239 15.0505C26.6184 15.0644 26.6157 15.0791 26.616 15.094C26.616 15.155 26.666 15.207 26.728 15.207C26.7579 15.2068 26.7865 15.1948 26.8076 15.1736C26.8287 15.1525 26.8407 15.1239 26.841 15.094V15.086C26.8394 15.0572 26.8268 15.0301 26.8058 15.0103C26.7847 14.9906 26.7568 14.9797 26.728 14.98ZM27.29 14.98C27.2752 14.9801 27.2606 14.9832 27.247 14.989C27.2334 14.9948 27.221 15.0033 27.2107 15.0139C27.2004 15.0245 27.1923 15.037 27.1868 15.0508C27.1814 15.0645 27.1787 15.0792 27.179 15.094C27.179 15.155 27.229 15.206 27.29 15.207C27.352 15.207 27.403 15.157 27.403 15.094C27.4032 15.0791 27.4005 15.0642 27.3949 15.0503C27.3894 15.0364 27.3811 15.0238 27.3705 15.0132C27.36 15.0025 27.3474 14.9941 27.3336 14.9884C27.3198 14.9827 27.3049 14.9799 27.29 14.98ZM27.853 14.98C27.8381 14.98 27.8234 14.983 27.8097 14.9887C27.7959 14.9945 27.7835 15.0029 27.7731 15.0135C27.7626 15.0241 27.7544 15.0367 27.7489 15.0505C27.7434 15.0644 27.7407 15.0791 27.741 15.094C27.741 15.155 27.791 15.207 27.853 15.207C27.913 15.207 27.963 15.155 27.963 15.094C27.965 15.086 27.965 15.082 27.963 15.074C27.9591 15.0477 27.9458 15.0237 27.9256 15.0064C27.9054 14.9891 27.8796 14.9797 27.853 14.98ZM28.415 14.98C28.4 14.9799 28.3852 14.9827 28.3713 14.9884C28.3575 14.9941 28.3449 15.0025 28.3344 15.0132C28.3239 15.0238 28.3156 15.0364 28.31 15.0503C28.3044 15.0642 28.3017 15.0791 28.302 15.094C28.302 15.156 28.353 15.208 28.415 15.207C28.476 15.207 28.525 15.155 28.526 15.094V15.086C28.5245 15.0577 28.5123 15.031 28.4919 15.0114C28.4714 14.9917 28.4443 14.9805 28.416 14.98H28.415ZM28.978 14.98C28.9629 14.9797 28.948 14.9825 28.934 14.9881C28.9201 14.9938 28.9074 15.0022 28.8968 15.0128C28.8861 15.0234 28.8777 15.0361 28.8721 15.0501C28.8665 15.064 28.8637 15.079 28.864 15.094C28.864 15.156 28.916 15.208 28.978 15.207C29.038 15.207 29.088 15.155 29.088 15.094V15.086C29.0865 15.0577 29.0743 15.031 29.0539 15.0114C29.0334 14.9917 29.0063 14.9805 28.978 14.98ZM29.54 14.98C29.525 14.9799 29.5102 14.9827 29.4963 14.9884C29.4825 14.9941 29.4699 15.0025 29.4594 15.0132C29.4489 15.0238 29.4406 15.0364 29.435 15.0503C29.4294 15.0642 29.4267 15.0791 29.427 15.094C29.427 15.156 29.478 15.208 29.54 15.207C29.601 15.207 29.65 15.155 29.651 15.094V15.086C29.6495 15.0577 29.6373 15.031 29.6169 15.0114C29.5964 14.9917 29.5693 14.9805 29.541 14.98H29.54ZM30.1 14.98C30.0853 14.9803 30.0708 14.9834 30.0573 14.9893C30.0438 14.9952 30.0316 15.0036 30.0214 15.0142C30.0111 15.0248 30.0031 15.0373 29.9977 15.051C29.9923 15.0647 29.9897 15.0793 29.99 15.094C29.99 15.155 30.039 15.207 30.1 15.207C30.13 15.207 30.1589 15.1951 30.1802 15.174C30.2016 15.1528 30.2137 15.1241 30.214 15.094V15.086C30.2124 15.0572 30.1998 15.0301 30.1788 15.0103C30.1577 14.9906 30.1298 14.9797 30.101 14.98H30.1ZM30.663 14.98C30.6482 14.9801 30.6336 14.9832 30.62 14.989C30.6064 14.9948 30.594 15.0033 30.5837 15.0139C30.5734 15.0245 30.5653 15.037 30.5598 15.0508C30.5544 15.0645 30.5517 15.0792 30.552 15.094C30.552 15.155 30.602 15.207 30.663 15.207C30.6929 15.2068 30.7215 15.1948 30.7426 15.1736C30.7637 15.1525 30.7757 15.1239 30.776 15.094V15.086C30.7744 15.0572 30.7618 15.0301 30.7408 15.0103C30.7197 14.9906 30.6918 14.9797 30.663 14.98ZM31.226 14.98C31.2111 14.98 31.1964 14.983 31.1826 14.9887C31.1689 14.9945 31.1565 15.0029 31.1461 15.0135C31.1356 15.0241 31.1274 15.0367 31.1219 15.0505C31.1164 15.0644 31.1137 15.0791 31.114 15.094C31.114 15.155 31.164 15.207 31.226 15.207C31.2559 15.2068 31.2845 15.1948 31.3056 15.1736C31.3267 15.1525 31.3387 15.1239 31.339 15.094V15.086C31.3374 15.0572 31.3248 15.0301 31.3038 15.0103C31.2827 14.9906 31.2548 14.9797 31.226 14.98ZM31.788 14.98C31.7732 14.9801 31.7586 14.9832 31.745 14.989C31.7314 14.9948 31.719 15.0033 31.7087 15.0139C31.6984 15.0245 31.6903 15.037 31.6848 15.0508C31.6794 15.0645 31.6767 15.0792 31.677 15.094C31.677 15.155 31.727 15.207 31.788 15.207C31.849 15.207 31.898 15.155 31.899 15.094V15.074C31.8951 15.0477 31.8818 15.0237 31.8616 15.0064C31.8414 14.9891 31.8156 14.9797 31.789 14.98H31.788ZM32.351 14.98C32.3359 14.9797 32.321 14.9825 32.307 14.9881C32.2931 14.9938 32.2804 15.0022 32.2698 15.0128C32.2591 15.0234 32.2507 15.0361 32.2451 15.0501C32.2395 15.064 32.2367 15.079 32.237 15.094C32.237 15.156 32.289 15.208 32.351 15.207C32.411 15.207 32.461 15.155 32.461 15.094C32.463 15.086 32.463 15.082 32.461 15.074C32.4571 15.0477 32.4438 15.0237 32.4236 15.0064C32.4034 14.9891 32.3776 14.9797 32.351 14.98ZM32.913 14.98C32.898 14.9799 32.8832 14.9827 32.8693 14.9884C32.8555 14.9941 32.8429 15.0025 32.8324 15.0132C32.8219 15.0238 32.8136 15.0364 32.808 15.0503C32.8024 15.0642 32.7997 15.0791 32.8 15.094C32.8 15.156 32.851 15.208 32.913 15.207C32.974 15.207 33.023 15.155 33.024 15.094V15.086C33.0225 15.0577 33.0103 15.031 32.9899 15.0114C32.9694 14.9917 32.9423 14.9805 32.914 14.98H32.913ZM33.476 14.98C33.4609 14.9797 33.446 14.9825 33.432 14.9881C33.4181 14.9938 33.4054 15.0022 33.3948 15.0128C33.3841 15.0234 33.3757 15.0361 33.3701 15.0501C33.3645 15.064 33.3617 15.079 33.362 15.094C33.362 15.156 33.414 15.208 33.476 15.207C33.5053 15.206 33.5332 15.1937 33.5537 15.1726C33.5742 15.1516 33.5857 15.1234 33.586 15.094V15.086C33.5845 15.0577 33.5723 15.031 33.5519 15.0114C33.5314 14.9917 33.5043 14.9805 33.476 14.98ZM34.038 14.98C34.023 14.9799 34.0082 14.9827 33.9943 14.9884C33.9805 14.9941 33.9679 15.0025 33.9574 15.0132C33.9469 15.0238 33.9386 15.0364 33.933 15.0503C33.9274 15.0642 33.9247 15.0791 33.925 15.094C33.925 15.156 33.976 15.208 34.038 15.207C34.0675 15.2062 34.0956 15.194 34.1163 15.1729C34.137 15.1519 34.1487 15.1236 34.149 15.094V15.086C34.1475 15.0577 34.1353 15.031 34.1149 15.0114C34.0944 14.9917 34.0673 14.9805 34.039 14.98H34.038ZM34.598 14.98C34.5833 14.9803 34.5688 14.9834 34.5553 14.9893C34.5418 14.9952 34.5296 15.0036 34.5194 15.0142C34.5091 15.0248 34.5011 15.0373 34.4957 15.051C34.4903 15.0647 34.4877 15.0793 34.488 15.094C34.488 15.155 34.537 15.207 34.598 15.207C34.628 15.207 34.6569 15.1951 34.6782 15.174C34.6996 15.1528 34.7117 15.1241 34.712 15.094V15.086C34.7104 15.0572 34.6978 15.0301 34.6768 15.0103C34.6557 14.9906 34.6278 14.9797 34.599 14.98H34.598ZM16.456 17.865C16.3313 17.867 16.2083 17.8937 16.094 17.9435C15.9797 17.9932 15.8764 18.0651 15.79 18.155L13.981 20.012C13.8941 20.1013 13.8258 20.2068 13.7798 20.3226C13.7339 20.4384 13.7113 20.5621 13.7134 20.6866C13.7154 20.8111 13.742 20.934 13.7917 21.0482C13.8414 21.1624 13.9132 21.2657 14.003 21.352C14.0917 21.4396 14.197 21.5087 14.3126 21.5553C14.4283 21.6019 14.5521 21.625 14.6767 21.6233C14.8014 21.6216 14.9245 21.5952 15.0389 21.5455C15.1533 21.4959 15.2566 21.424 15.343 21.334L17.151 19.474C17.2379 19.3848 17.3063 19.2793 17.3524 19.1636C17.3984 19.0479 17.421 18.9242 17.4191 18.7997C17.4171 18.6751 17.3906 18.5522 17.341 18.438C17.2914 18.3237 17.2197 18.2204 17.13 18.134C17.0409 18.047 16.9355 17.9784 16.8198 17.9322C16.7042 17.8861 16.5805 17.8632 16.456 17.865ZM20.019 17.865C19.8943 17.867 19.7713 17.8937 19.657 17.9435C19.5427 17.9932 19.4394 18.0651 19.353 18.155L17.544 20.012C17.4571 20.1012 17.3886 20.2067 17.3426 20.3224C17.2966 20.4382 17.2739 20.5619 17.2759 20.6864C17.2778 20.8109 17.3044 20.9338 17.354 21.0481C17.4036 21.1623 17.4753 21.2656 17.565 21.352C17.6537 21.4396 17.759 21.5087 17.8746 21.5553C17.9903 21.6019 18.1141 21.625 18.2387 21.6233C18.3634 21.6216 18.4865 21.5952 18.6009 21.5455C18.7153 21.4959 18.8186 21.424 18.905 21.334L20.714 19.477C20.8008 19.3878 20.8692 19.2822 20.9151 19.1664C20.9611 19.0507 20.9836 18.927 20.9816 18.8024C20.9796 18.6779 20.9529 18.555 20.9032 18.4408C20.8535 18.3266 20.7817 18.2234 20.692 18.137C20.6031 18.0499 20.4979 17.9812 20.3824 17.9349C20.2669 17.8886 20.1434 17.8655 20.019 17.867V17.865ZM23.396 17.865C23.2713 17.8671 23.1483 17.8938 23.034 17.9435C22.9197 17.9933 22.8164 18.0652 22.73 18.155L20.92 20.012C20.8331 20.1013 20.7648 20.2068 20.7188 20.3226C20.6729 20.4384 20.6503 20.5621 20.6524 20.6866C20.6544 20.8111 20.681 20.934 20.7307 21.0482C20.7804 21.1624 20.8522 21.2657 20.942 21.352C21.0307 21.4396 21.136 21.5087 21.2516 21.5553C21.3673 21.6019 21.4911 21.625 21.6157 21.6233C21.7404 21.6216 21.8635 21.5952 21.9779 21.5455C22.0923 21.4959 22.1956 21.424 22.282 21.334L24.091 19.474C24.1778 19.3848 24.2462 19.2792 24.2921 19.1634C24.3381 19.0477 24.3606 18.924 24.3586 18.7994C24.3566 18.6749 24.3299 18.552 24.2802 18.4378C24.2305 18.3236 24.1587 18.2204 24.069 18.134C23.9799 18.047 23.8745 17.9784 23.7588 17.9322C23.6432 17.8861 23.5195 17.8632 23.395 17.865H23.396ZM26.958 17.865C26.8333 17.8671 26.7103 17.8938 26.596 17.9435C26.4817 17.9933 26.3784 18.0652 26.292 18.155L24.483 20.012C24.3961 20.1013 24.3278 20.2068 24.2818 20.3226C24.2359 20.4384 24.2133 20.5621 24.2154 20.6866C24.2174 20.8111 24.244 20.934 24.2937 21.0482C24.3434 21.1624 24.4152 21.2657 24.505 21.352C24.5937 21.4396 24.699 21.5087 24.8146 21.5553C24.9303 21.6019 25.0541 21.625 25.1787 21.6233C25.3034 21.6216 25.4265 21.5952 25.5409 21.5455C25.6553 21.4959 25.7586 21.424 25.845 21.334L27.653 19.474C27.7399 19.3848 27.8083 19.2793 27.8544 19.1636C27.9004 19.0479 27.923 18.9242 27.9211 18.7997C27.9191 18.6751 27.8926 18.5522 27.843 18.438C27.7934 18.3237 27.7217 18.2204 27.632 18.134C27.5429 18.047 27.4375 17.9784 27.3218 17.9322C27.2062 17.8861 27.0825 17.8632 26.958 17.865ZM30.159 17.865C30.0343 17.867 29.9113 17.8937 29.797 17.9435C29.6827 17.9932 29.5794 18.0651 29.493 18.155L27.685 20.012C27.5981 20.1012 27.5296 20.2067 27.4836 20.3224C27.4376 20.4382 27.4149 20.5619 27.4169 20.6864C27.4188 20.8109 27.4454 20.9338 27.495 21.0481C27.5446 21.1623 27.6163 21.2656 27.706 21.352C27.7947 21.4396 27.9 21.5087 28.0156 21.5553C28.1313 21.6019 28.2551 21.625 28.3797 21.6233C28.5044 21.6216 28.6275 21.5952 28.7419 21.5455C28.8563 21.4959 28.9596 21.424 29.046 21.334L30.854 19.474C30.9409 19.3848 31.0093 19.2793 31.0554 19.1636C31.1014 19.0479 31.1241 18.9242 31.1221 18.7997C31.1201 18.6751 31.0936 18.5522 31.044 18.438C30.9944 18.3237 30.9227 18.2204 30.833 18.134C30.7439 18.047 30.6385 17.9784 30.5228 17.9322C30.4072 17.8861 30.2835 17.8632 30.159 17.865ZM33.722 17.865C33.5973 17.867 33.4743 17.8937 33.36 17.9435C33.2457 17.9932 33.1424 18.0651 33.056 18.155L31.247 20.012C31.1601 20.1013 31.0918 20.2068 31.0458 20.3226C30.9999 20.4384 30.9773 20.5621 30.9794 20.6866C30.9814 20.8111 31.008 20.934 31.0577 21.0482C31.1074 21.1624 31.1792 21.2657 31.269 21.352C31.3577 21.4396 31.463 21.5087 31.5786 21.5553C31.6943 21.6019 31.8181 21.625 31.9427 21.6233C32.0674 21.6216 32.1905 21.5952 32.3049 21.5455C32.4193 21.4959 32.5226 21.424 32.609 21.334L34.417 19.474C34.5039 19.3848 34.5723 19.2793 34.6184 19.1636C34.6644 19.0479 34.687 18.9242 34.6851 18.7997C34.6831 18.6751 34.6566 18.5522 34.607 18.438C34.5574 18.3237 34.4857 18.2204 34.396 18.134C34.3069 18.047 34.2015 17.9784 34.0858 17.9322C33.9702 17.8861 33.8465 17.8632 33.722 17.865ZM16.521 18.348C16.6124 18.356 16.6988 18.3936 16.767 18.455C17.173 18.817 16.692 19.241 16.517 19.424L15.651 20.328C15.044 20.959 14.781 21.386 14.356 20.978C13.996 20.605 14.313 20.382 15.001 19.684L15.866 18.781C16.072 18.581 16.284 18.336 16.521 18.348ZM20.083 18.348C20.1744 18.356 20.2608 18.3936 20.329 18.455C20.736 18.817 20.254 19.241 20.079 19.424L19.214 20.328C18.607 20.959 18.343 21.386 17.919 20.978C17.559 20.605 17.875 20.382 18.564 19.684L19.429 18.781C19.634 18.581 19.847 18.336 20.083 18.348ZM23.46 18.348C23.5514 18.356 23.6378 18.3936 23.706 18.455C24.113 18.817 23.631 19.241 23.456 19.424L22.591 20.328C21.984 20.959 21.72 21.386 21.296 20.978C20.936 20.605 21.252 20.382 21.94 19.684L22.806 18.781C23.011 18.581 23.224 18.336 23.46 18.348ZM27.023 18.348C27.1144 18.356 27.2008 18.3936 27.269 18.455C27.675 18.817 27.194 19.241 27.019 19.424L26.153 20.328C25.546 20.959 25.283 21.386 24.858 20.978C24.498 20.605 24.815 20.382 25.503 19.684L26.368 18.781C26.574 18.581 26.786 18.336 27.022 18.348H27.023ZM30.223 18.348C30.3148 18.3558 30.4015 18.3934 30.47 18.455C30.876 18.817 30.395 19.241 30.22 19.424L29.354 20.328C28.747 20.959 28.484 21.386 28.06 20.978C27.7 20.605 28.016 20.382 28.704 19.684L29.569 18.781C29.775 18.581 29.987 18.336 30.224 18.348H30.223ZM33.786 18.348C33.8774 18.356 33.9638 18.3936 34.032 18.455C34.439 18.817 33.957 19.241 33.782 19.424L32.917 20.328C32.31 20.959 32.046 21.386 31.622 20.978C31.262 20.605 31.578 20.382 32.267 19.684L33.132 18.781C33.337 18.581 33.55 18.336 33.786 18.348ZM13.796 23.981C13.7813 23.9811 13.7667 23.9842 13.7532 23.9899C13.7397 23.9957 13.7274 24.004 13.7171 24.0145C13.7068 24.025 13.6986 24.0374 13.6931 24.0511C13.6876 24.0647 13.6848 24.0793 13.685 24.094C13.685 24.155 13.735 24.206 13.795 24.207C13.858 24.207 13.908 24.157 13.909 24.094C13.9092 24.0791 13.9065 24.0642 13.9009 24.0503C13.8954 24.0364 13.8871 24.0238 13.8765 24.0132C13.866 24.0025 13.8534 23.9941 13.8396 23.9884C13.8258 23.9827 13.8109 23.9799 13.796 23.98V23.981ZM14.358 23.981C14.3281 23.9813 14.2995 23.9933 14.2784 24.0144C14.2572 24.0355 14.2452 24.0641 14.245 24.094C14.245 24.155 14.297 24.207 14.358 24.207C14.42 24.207 14.469 24.155 14.47 24.094V24.074C14.4661 24.0473 14.4525 24.023 14.4319 24.0057C14.4112 23.9884 14.3849 23.9792 14.358 23.98V23.981ZM14.921 23.981C14.9061 23.9809 14.8913 23.9837 14.8776 23.9893C14.8638 23.995 14.8513 24.0033 14.8408 24.0138C14.8303 24.0243 14.8219 24.0368 14.8163 24.0506C14.8107 24.0644 14.8078 24.0791 14.808 24.094C14.808 24.156 14.858 24.208 14.921 24.207C14.982 24.207 15.031 24.155 15.032 24.094V24.074C15.0281 24.0475 15.0147 24.0234 14.9942 24.0061C14.9738 23.9887 14.9477 23.9795 14.921 23.98V23.981ZM15.483 23.981C15.4681 23.9809 15.4533 23.9837 15.4396 23.9893C15.4258 23.995 15.4133 24.0033 15.4028 24.0138C15.3923 24.0243 15.3839 24.0368 15.3783 24.0506C15.3727 24.0644 15.3698 24.0791 15.37 24.094C15.37 24.156 15.421 24.208 15.483 24.207C15.545 24.207 15.594 24.155 15.595 24.094V24.086C15.5932 24.0575 15.5806 24.0308 15.5598 24.0113C15.539 23.9918 15.5115 23.981 15.483 23.981ZM16.046 23.981C16.0311 23.9809 16.0163 23.9837 16.0026 23.9893C15.9888 23.995 15.9763 24.0033 15.9658 24.0138C15.9553 24.0243 15.9469 24.0368 15.9413 24.0506C15.9357 24.0644 15.9328 24.0791 15.933 24.094C15.933 24.156 15.983 24.208 16.046 24.207C16.107 24.207 16.156 24.155 16.157 24.094V24.086C16.1552 24.0577 16.1428 24.0311 16.1222 24.0117C16.1016 23.9922 16.0743 23.9812 16.046 23.981ZM16.608 23.981C16.5931 23.9809 16.5783 23.9837 16.5646 23.9893C16.5508 23.995 16.5383 24.0033 16.5278 24.0138C16.5173 24.0243 16.5089 24.0368 16.5033 24.0506C16.4977 24.0644 16.4948 24.0791 16.495 24.094C16.495 24.156 16.546 24.208 16.608 24.207C16.67 24.207 16.719 24.155 16.72 24.094V24.086C16.7182 24.0575 16.7056 24.0308 16.6848 24.0113C16.664 23.9918 16.6365 23.981 16.608 23.981ZM17.169 23.981C17.1543 23.9811 17.1397 23.9842 17.1262 23.9899C17.1127 23.9957 17.1004 24.004 17.0901 24.0145C17.0798 24.025 17.0716 24.0374 17.0661 24.0511C17.0606 24.0647 17.0578 24.0793 17.058 24.094C17.058 24.155 17.108 24.207 17.169 24.207C17.1989 24.2068 17.2275 24.1948 17.2486 24.1736C17.2697 24.1525 17.2817 24.1239 17.282 24.094V24.086C17.2802 24.0574 17.2675 24.0305 17.2464 24.011C17.2254 23.9914 17.1977 23.9807 17.169 23.981ZM17.732 23.981C17.7172 23.981 17.7025 23.9839 17.6889 23.9896C17.6752 23.9953 17.6628 24.0037 17.6524 24.0142C17.642 24.0247 17.6338 24.0371 17.6282 24.0508C17.6226 24.0646 17.6198 24.0792 17.62 24.094C17.62 24.155 17.67 24.207 17.731 24.207C17.761 24.207 17.7899 24.1951 17.8112 24.174C17.8326 24.1528 17.8447 24.1241 17.845 24.094V24.086C17.8432 24.0572 17.8303 24.0302 17.8091 24.0106C17.7878 23.991 17.7599 23.9804 17.731 23.981H17.732ZM18.294 23.981C18.2793 23.9811 18.2647 23.9842 18.2512 23.9899C18.2377 23.9957 18.2254 24.004 18.2151 24.0145C18.2048 24.025 18.1966 24.0374 18.1911 24.0511C18.1856 24.0647 18.1828 24.0793 18.183 24.094C18.183 24.155 18.233 24.207 18.294 24.207C18.3239 24.2068 18.3525 24.1948 18.3736 24.1736C18.3947 24.1525 18.4067 24.1239 18.407 24.094V24.086C18.4052 24.0574 18.3925 24.0305 18.3714 24.011C18.3504 23.9914 18.3227 23.9807 18.294 23.981ZM18.857 23.981C18.8422 23.981 18.8275 23.9839 18.8139 23.9896C18.8002 23.9953 18.7878 24.0037 18.7774 24.0142C18.767 24.0247 18.7588 24.0371 18.7532 24.0508C18.7476 24.0646 18.7448 24.0792 18.745 24.094C18.745 24.155 18.795 24.207 18.856 24.207C18.918 24.207 18.967 24.155 18.968 24.094V24.074C18.9641 24.0475 18.9507 24.0234 18.9302 24.0061C18.9098 23.9887 18.8838 23.9795 18.857 23.98V23.981ZM19.419 23.981C19.4041 23.9809 19.3893 23.9837 19.3756 23.9893C19.3618 23.995 19.3493 24.0033 19.3388 24.0138C19.3283 24.0243 19.3199 24.0368 19.3143 24.0506C19.3087 24.0644 19.3058 24.0791 19.306 24.094C19.306 24.156 19.357 24.208 19.419 24.207C19.48 24.207 19.529 24.155 19.53 24.094V24.086C19.5282 24.0577 19.5158 24.0311 19.4952 24.0117C19.4746 23.9922 19.4473 23.9812 19.419 23.981ZM19.982 23.981C19.967 23.9808 19.9522 23.9835 19.9383 23.9891C19.9244 23.9946 19.9118 24.0029 19.9011 24.0135C19.8905 24.024 19.8821 24.0365 19.8764 24.0504C19.8707 24.0642 19.8678 24.0791 19.868 24.094C19.868 24.156 19.92 24.208 19.981 24.207C20.043 24.207 20.092 24.155 20.093 24.094V24.086C20.0912 24.0577 20.0788 24.0311 20.0582 24.0117C20.0376 23.9922 20.0103 23.9812 19.982 23.981ZM20.544 23.981C20.5291 23.9809 20.5143 23.9837 20.5006 23.9893C20.4868 23.995 20.4743 24.0033 20.4638 24.0138C20.4533 24.0243 20.4449 24.0368 20.4393 24.0506C20.4337 24.0644 20.4308 24.0791 20.431 24.094C20.431 24.156 20.482 24.208 20.544 24.207C20.605 24.207 20.654 24.155 20.655 24.094V24.086C20.6532 24.0577 20.6408 24.0311 20.6202 24.0117C20.5996 23.9922 20.5723 23.9812 20.544 23.981ZM21.107 23.981C21.092 23.9808 21.0772 23.9835 21.0633 23.9891C21.0494 23.9946 21.0368 24.0029 21.0261 24.0135C21.0155 24.024 21.0071 24.0365 21.0014 24.0504C20.9957 24.0642 20.9928 24.0791 20.993 24.094C20.993 24.156 21.045 24.208 21.106 24.207C21.168 24.207 21.217 24.155 21.218 24.094V24.086C21.2162 24.0577 21.2038 24.0311 21.1832 24.0117C21.1626 23.9922 21.1353 23.9812 21.107 23.981ZM21.667 23.981C21.6523 23.9811 21.6377 23.9842 21.6242 23.9899C21.6107 23.9957 21.5984 24.004 21.5881 24.0145C21.5778 24.025 21.5696 24.0374 21.5641 24.0511C21.5586 24.0647 21.5558 24.0793 21.556 24.094C21.556 24.155 21.606 24.207 21.667 24.207C21.6969 24.2068 21.7255 24.1948 21.7466 24.1736C21.7677 24.1525 21.7797 24.1239 21.78 24.094V24.086C21.7782 24.0574 21.7655 24.0305 21.7444 24.011C21.7234 23.9914 21.6957 23.9807 21.667 23.981ZM22.23 23.981C22.2152 23.981 22.2005 23.9839 22.1869 23.9896C22.1732 23.9953 22.1608 24.0037 22.1504 24.0142C22.14 24.0247 22.1318 24.0371 22.1262 24.0508C22.1206 24.0646 22.1178 24.0792 22.118 24.094C22.118 24.155 22.168 24.207 22.229 24.207C22.259 24.207 22.2879 24.1951 22.3092 24.174C22.3306 24.1528 22.3427 24.1241 22.343 24.094V24.086C22.3412 24.0574 22.3285 24.0305 22.3074 24.011C22.2864 23.9914 22.2587 23.9807 22.23 23.981ZM22.792 23.981C22.7773 23.9811 22.7627 23.9842 22.7492 23.9899C22.7357 23.9957 22.7234 24.004 22.7131 24.0145C22.7028 24.025 22.6946 24.0374 22.6891 24.0511C22.6836 24.0647 22.6808 24.0793 22.681 24.094C22.681 24.155 22.731 24.206 22.792 24.207C22.854 24.207 22.905 24.157 22.905 24.094C22.9052 24.0791 22.9025 24.0642 22.8969 24.0503C22.8914 24.0364 22.8831 24.0238 22.8725 24.0132C22.862 24.0025 22.8495 23.9941 22.8356 23.9884C22.8218 23.9827 22.8069 23.9799 22.792 23.98V23.981ZM23.355 23.981C23.3402 23.981 23.3255 23.9839 23.3119 23.9896C23.2982 23.9953 23.2858 24.0037 23.2754 24.0142C23.265 24.0247 23.2568 24.0371 23.2512 24.0508C23.2456 24.0646 23.2428 24.0792 23.243 24.094C23.243 24.155 23.293 24.207 23.354 24.207C23.3837 24.2065 23.412 24.1944 23.4329 24.1733C23.4539 24.1522 23.4657 24.1237 23.466 24.094V24.074C23.4619 24.0476 23.4484 24.0236 23.428 24.0063C23.4076 23.989 23.3817 23.9797 23.355 23.98V23.981ZM23.917 23.981C23.9021 23.9809 23.8873 23.9837 23.8736 23.9893C23.8598 23.995 23.8473 24.0033 23.8368 24.0138C23.8263 24.0243 23.8179 24.0368 23.8123 24.0506C23.8067 24.0644 23.8038 24.0791 23.804 24.094C23.804 24.156 23.855 24.208 23.917 24.207C23.978 24.207 24.027 24.155 24.028 24.094V24.074C24.0241 24.0475 24.0107 24.0234 23.9902 24.0061C23.9698 23.9887 23.9438 23.9795 23.917 23.98V23.981ZM24.48 23.981C24.465 23.9808 24.4502 23.9835 24.4363 23.9891C24.4224 23.9946 24.4098 24.0029 24.3991 24.0135C24.3885 24.024 24.3801 24.0365 24.3744 24.0504C24.3687 24.0642 24.3658 24.0791 24.366 24.094C24.366 24.156 24.418 24.208 24.48 24.207C24.54 24.207 24.59 24.155 24.59 24.094V24.086C24.5882 24.0579 24.5759 24.0315 24.5555 24.012C24.5351 23.9925 24.5082 23.9815 24.48 23.981ZM25.042 23.981C25.0271 23.9809 25.0123 23.9837 24.9986 23.9893C24.9848 23.995 24.9723 24.0033 24.9618 24.0138C24.9513 24.0243 24.9429 24.0368 24.9373 24.0506C24.9317 24.0644 24.9288 24.0791 24.929 24.094C24.929 24.156 24.98 24.208 25.042 24.207C25.103 24.207 25.152 24.155 25.153 24.094V24.086C25.1512 24.0577 25.1388 24.0311 25.1182 24.0117C25.0976 23.9922 25.0703 23.9812 25.042 23.981ZM25.602 23.981C25.5724 23.9815 25.5443 23.9937 25.5237 24.0149C25.5031 24.036 25.4917 24.0645 25.492 24.094C25.492 24.155 25.542 24.207 25.602 24.207C25.632 24.207 25.6609 24.1951 25.6822 24.174C25.7036 24.1528 25.7157 24.1241 25.716 24.094V24.086C25.7142 24.0574 25.7015 24.0305 25.6804 24.011C25.6594 23.9914 25.6317 23.9807 25.603 23.981H25.602ZM26.165 23.981C26.1503 23.9811 26.1357 23.9842 26.1222 23.9899C26.1087 23.9957 26.0964 24.004 26.0861 24.0145C26.0758 24.025 26.0676 24.0374 26.0621 24.0511C26.0566 24.0647 26.0538 24.0793 26.054 24.094C26.054 24.155 26.104 24.207 26.165 24.207C26.1949 24.2068 26.2235 24.1948 26.2446 24.1736C26.2657 24.1525 26.2777 24.1239 26.278 24.094V24.086C26.2762 24.0574 26.2635 24.0305 26.2424 24.011C26.2214 23.9914 26.1937 23.9807 26.165 23.981ZM26.728 23.981C26.7132 23.981 26.6985 23.9839 26.6849 23.9896C26.6712 23.9953 26.6588 24.0037 26.6484 24.0142C26.638 24.0247 26.6298 24.0371 26.6242 24.0508C26.6186 24.0646 26.6158 24.0792 26.616 24.094C26.616 24.155 26.666 24.207 26.728 24.207C26.7579 24.2068 26.7865 24.1948 26.8076 24.1736C26.8287 24.1525 26.8407 24.1239 26.841 24.094V24.086C26.8392 24.0574 26.8265 24.0305 26.8054 24.011C26.7844 23.9914 26.7567 23.9807 26.728 23.981ZM27.29 23.981C27.2753 23.9811 27.2607 23.9842 27.2472 23.9899C27.2337 23.9957 27.2214 24.004 27.2111 24.0145C27.2008 24.025 27.1926 24.0374 27.1871 24.0511C27.1816 24.0647 27.1788 24.0793 27.179 24.094C27.179 24.155 27.229 24.206 27.29 24.207C27.352 24.207 27.403 24.157 27.403 24.094C27.4032 24.0791 27.4005 24.0642 27.3949 24.0503C27.3894 24.0364 27.3811 24.0238 27.3705 24.0132C27.36 24.0025 27.3474 23.9941 27.3336 23.9884C27.3198 23.9827 27.3049 23.9799 27.29 23.98V23.981ZM27.853 23.981C27.8382 23.981 27.8235 23.9839 27.8099 23.9896C27.7962 23.9953 27.7838 24.0037 27.7734 24.0142C27.763 24.0247 27.7548 24.0371 27.7492 24.0508C27.7436 24.0646 27.7408 24.0792 27.741 24.094C27.741 24.155 27.791 24.207 27.853 24.207C27.913 24.207 27.963 24.155 27.963 24.094C27.965 24.086 27.965 24.082 27.963 24.074C27.9591 24.0477 27.9458 24.0237 27.9256 24.0064C27.9054 23.9891 27.8796 23.9797 27.853 23.98V23.981ZM28.415 23.981C28.4001 23.9809 28.3853 23.9837 28.3716 23.9893C28.3578 23.995 28.3453 24.0033 28.3348 24.0138C28.3243 24.0243 28.3159 24.0368 28.3103 24.0506C28.3047 24.0644 28.3018 24.0791 28.302 24.094C28.302 24.156 28.353 24.208 28.415 24.207C28.476 24.207 28.525 24.155 28.526 24.094V24.086C28.5242 24.0579 28.5119 24.0315 28.4915 24.012C28.4711 23.9925 28.4442 23.9815 28.416 23.981H28.415ZM28.978 23.981C28.963 23.9808 28.9482 23.9835 28.9343 23.9891C28.9204 23.9946 28.9078 24.0029 28.8971 24.0135C28.8865 24.024 28.8781 24.0365 28.8724 24.0504C28.8667 24.0642 28.8638 24.0791 28.864 24.094C28.864 24.156 28.916 24.208 28.978 24.207C29.038 24.207 29.088 24.155 29.088 24.094V24.086C29.0862 24.0579 29.0739 24.0315 29.0535 24.012C29.0331 23.9925 29.0062 23.9815 28.978 23.981ZM29.54 23.981C29.5251 23.9809 29.5103 23.9837 29.4966 23.9893C29.4828 23.995 29.4703 24.0033 29.4598 24.0138C29.4493 24.0243 29.4409 24.0368 29.4353 24.0506C29.4297 24.0644 29.4268 24.0791 29.427 24.094C29.427 24.156 29.478 24.208 29.54 24.207C29.601 24.207 29.65 24.155 29.651 24.094V24.086C29.6492 24.0579 29.6369 24.0315 29.6165 24.012C29.5961 23.9925 29.5692 23.9815 29.541 23.981H29.54ZM30.1 23.981C30.0704 23.9815 30.0423 23.9937 30.0217 24.0149C30.0011 24.036 29.9897 24.0645 29.99 24.094C29.99 24.155 30.039 24.207 30.1 24.207C30.13 24.207 30.1589 24.1951 30.1802 24.174C30.2016 24.1528 30.2137 24.1241 30.214 24.094V24.086C30.2122 24.0574 30.1995 24.0305 30.1784 24.011C30.1574 23.9914 30.1297 23.9807 30.101 23.981H30.1ZM30.663 23.981C30.6483 23.9811 30.6337 23.9842 30.6202 23.9899C30.6067 23.9957 30.5944 24.004 30.5841 24.0145C30.5738 24.025 30.5656 24.0374 30.5601 24.0511C30.5546 24.0647 30.5518 24.0793 30.552 24.094C30.552 24.155 30.602 24.207 30.663 24.207C30.6929 24.2068 30.7215 24.1948 30.7426 24.1736C30.7637 24.1525 30.7757 24.1239 30.776 24.094V24.086C30.7742 24.0574 30.7615 24.0305 30.7404 24.011C30.7194 23.9914 30.6917 23.9807 30.663 23.981ZM31.226 23.981C31.2112 23.981 31.1965 23.9839 31.1829 23.9896C31.1692 23.9953 31.1568 24.0037 31.1464 24.0142C31.136 24.0247 31.1278 24.0371 31.1222 24.0508C31.1166 24.0646 31.1138 24.0792 31.114 24.094C31.114 24.155 31.164 24.207 31.226 24.207C31.2559 24.2068 31.2845 24.1948 31.3056 24.1736C31.3267 24.1525 31.3387 24.1239 31.339 24.094V24.086C31.3372 24.0574 31.3245 24.0305 31.3034 24.011C31.2824 23.9914 31.2547 23.9807 31.226 23.981ZM31.788 23.981C31.7733 23.9811 31.7587 23.9842 31.7452 23.9899C31.7317 23.9957 31.7194 24.004 31.7091 24.0145C31.6988 24.025 31.6906 24.0374 31.6851 24.0511C31.6796 24.0647 31.6768 24.0793 31.677 24.094C31.677 24.155 31.727 24.207 31.788 24.207C31.849 24.207 31.898 24.155 31.899 24.094V24.074C31.8951 24.0477 31.8818 24.0237 31.8616 24.0064C31.8414 23.9891 31.8156 23.9797 31.789 23.98L31.788 23.981ZM32.351 23.981C32.336 23.9808 32.3212 23.9835 32.3073 23.9891C32.2934 23.9946 32.2808 24.0029 32.2701 24.0135C32.2595 24.024 32.2511 24.0365 32.2454 24.0504C32.2397 24.0642 32.2368 24.0791 32.237 24.094C32.237 24.156 32.289 24.208 32.351 24.207C32.411 24.207 32.461 24.155 32.461 24.094C32.463 24.086 32.463 24.082 32.461 24.074C32.4571 24.0477 32.4438 24.0237 32.4236 24.0064C32.4034 23.9891 32.3776 23.9797 32.351 23.98V23.981ZM32.913 23.981C32.8981 23.9809 32.8833 23.9837 32.8696 23.9893C32.8558 23.995 32.8433 24.0033 32.8328 24.0138C32.8223 24.0243 32.8139 24.0368 32.8083 24.0506C32.8027 24.0644 32.7998 24.0791 32.8 24.094C32.8 24.156 32.851 24.208 32.913 24.207C32.974 24.207 33.023 24.155 33.024 24.094V24.086C33.0222 24.0579 33.0099 24.0315 32.9895 24.012C32.9691 23.9925 32.9422 23.9815 32.914 23.981H32.913ZM33.476 23.981C33.461 23.9808 33.4462 23.9835 33.4323 23.9891C33.4184 23.9946 33.4058 24.0029 33.3951 24.0135C33.3845 24.024 33.3761 24.0365 33.3704 24.0504C33.3647 24.0642 33.3618 24.0791 33.362 24.094C33.362 24.156 33.414 24.208 33.476 24.207C33.5053 24.206 33.5332 24.1937 33.5537 24.1726C33.5742 24.1516 33.5857 24.1234 33.586 24.094V24.086C33.5842 24.0579 33.5719 24.0315 33.5515 24.012C33.5311 23.9925 33.5042 23.9815 33.476 23.981ZM34.038 23.981C34.0231 23.9809 34.0083 23.9837 33.9946 23.9893C33.9808 23.995 33.9683 24.0033 33.9578 24.0138C33.9473 24.0243 33.9389 24.0368 33.9333 24.0506C33.9277 24.0644 33.9248 24.0791 33.925 24.094C33.925 24.156 33.976 24.208 34.038 24.207C34.0675 24.2062 34.0956 24.194 34.1163 24.1729C34.137 24.1519 34.1487 24.1236 34.149 24.094V24.086C34.1472 24.0579 34.1349 24.0315 34.1145 24.012C34.0941 23.9925 34.0672 23.9815 34.039 23.981H34.038ZM34.598 23.981C34.5684 23.9815 34.5403 23.9937 34.5197 24.0149C34.4991 24.036 34.4877 24.0645 34.488 24.094C34.488 24.155 34.537 24.207 34.598 24.207C34.628 24.207 34.6569 24.1951 34.6782 24.174C34.6996 24.1528 34.7117 24.1241 34.712 24.094V24.086C34.7102 24.0574 34.6975 24.0305 34.6764 24.011C34.6554 23.9914 34.6277 23.9807 34.599 23.981H34.598ZM16.456 26.533C16.3313 26.535 16.2083 26.5617 16.094 26.6115C15.9797 26.6612 15.8764 26.7331 15.79 26.823L13.98 28.68C13.8931 28.7693 13.8248 28.8748 13.7788 28.9906C13.7329 29.1064 13.7103 29.2301 13.7124 29.3546C13.7144 29.4791 13.741 29.602 13.7907 29.7162C13.8404 29.8304 13.9122 29.9337 14.002 30.02C14.0908 30.1074 14.1961 30.1763 14.3118 30.2227C14.4274 30.2691 14.5511 30.2921 14.6757 30.2905C14.8003 30.2888 14.9234 30.2624 15.0377 30.2129C15.1521 30.1634 15.2555 30.0917 15.342 30.002L17.15 28.142C17.2369 28.0528 17.3053 27.9473 17.3514 27.8316C17.3974 27.7159 17.4201 27.5922 17.4181 27.4677C17.4161 27.3431 17.3896 27.2202 17.34 27.106C17.2904 26.9917 17.2187 26.8884 17.129 26.802C17.0399 26.715 16.9345 26.6464 16.8188 26.6002C16.7032 26.5541 16.5795 26.5312 16.455 26.533H16.456ZM20.019 26.533C19.8943 26.535 19.7713 26.5617 19.657 26.6115C19.5427 26.6612 19.4394 26.7331 19.353 26.823L17.544 28.68C17.4571 28.7692 17.3886 28.8747 17.3426 28.9904C17.2966 29.1062 17.2739 29.2299 17.2759 29.3544C17.2778 29.4789 17.3044 29.6018 17.354 29.7161C17.4036 29.8303 17.4753 29.9336 17.565 30.02C17.6538 30.1074 17.7591 30.1763 17.8748 30.2227C17.9904 30.2691 18.1141 30.2921 18.2387 30.2905C18.3633 30.2888 18.4864 30.2624 18.6007 30.2129C18.7151 30.1634 18.8185 30.0917 18.905 30.002L20.714 28.145C20.8008 28.0558 20.8692 27.9502 20.9151 27.8344C20.9611 27.7187 20.9836 27.595 20.9816 27.4704C20.9796 27.3459 20.9529 27.223 20.9032 27.1088C20.8535 26.9946 20.7817 26.8914 20.692 26.805C20.6031 26.7179 20.4979 26.6492 20.3824 26.6029C20.2669 26.5566 20.1434 26.5335 20.019 26.535V26.533ZM23.396 26.533C23.2713 26.535 23.1483 26.5617 23.034 26.6115C22.9197 26.6612 22.8164 26.7331 22.73 26.823L20.92 28.68C20.8331 28.7693 20.7648 28.8748 20.7188 28.9906C20.6729 29.1064 20.6503 29.2301 20.6524 29.3546C20.6544 29.4791 20.681 29.602 20.7307 29.7162C20.7804 29.8304 20.8522 29.9337 20.942 30.02C21.0308 30.1074 21.1361 30.1763 21.2518 30.2227C21.3674 30.2691 21.4911 30.2921 21.6157 30.2905C21.7403 30.2888 21.8634 30.2624 21.9777 30.2129C22.0921 30.1634 22.1955 30.0917 22.282 30.002L24.091 28.142C24.1778 28.0528 24.2462 27.9472 24.2921 27.8314C24.3381 27.7157 24.3606 27.592 24.3586 27.4674C24.3566 27.3429 24.3299 27.22 24.2802 27.1058C24.2305 26.9916 24.1587 26.8884 24.069 26.802C23.9799 26.715 23.8745 26.6465 23.7588 26.6003C23.6431 26.5542 23.5195 26.5313 23.395 26.533H23.396ZM26.958 26.533C26.8333 26.535 26.7103 26.5617 26.596 26.6115C26.4817 26.6612 26.3784 26.7331 26.292 26.823L24.483 28.68C24.3961 28.7693 24.3278 28.8748 24.2818 28.9906C24.2359 29.1064 24.2133 29.2301 24.2154 29.3546C24.2174 29.4791 24.244 29.602 24.2937 29.7162C24.3434 29.8304 24.4152 29.9337 24.505 30.02C24.5938 30.1074 24.6991 30.1763 24.8148 30.2227C24.9304 30.2691 25.0541 30.2921 25.1787 30.2905C25.3033 30.2888 25.4264 30.2624 25.5407 30.2129C25.6551 30.1634 25.7585 30.0917 25.845 30.002L27.653 28.142C27.7399 28.0528 27.8083 27.9473 27.8544 27.8316C27.9004 27.7159 27.923 27.5922 27.9211 27.4677C27.9191 27.3431 27.8926 27.2202 27.843 27.106C27.7934 26.9917 27.7217 26.8884 27.632 26.802C27.5429 26.715 27.4375 26.6465 27.3218 26.6003C27.2061 26.5542 27.0825 26.5313 26.958 26.533ZM30.159 26.533C30.0343 26.535 29.9113 26.5617 29.797 26.6115C29.6827 26.6612 29.5794 26.7331 29.493 26.823L27.685 28.68C27.5981 28.7692 27.5296 28.8747 27.4836 28.9904C27.4376 29.1062 27.4149 29.2299 27.4169 29.3544C27.4188 29.4789 27.4454 29.6018 27.495 29.7161C27.5446 29.8303 27.6163 29.9336 27.706 30.02C27.7948 30.1074 27.9001 30.1763 28.0158 30.2227C28.1314 30.2691 28.2551 30.2921 28.3797 30.2905C28.5043 30.2888 28.6274 30.2624 28.7417 30.2129C28.8561 30.1634 28.9595 30.0917 29.046 30.002L30.854 28.142C30.9409 28.0528 31.0093 27.9473 31.0554 27.8316C31.1014 27.7159 31.1241 27.5922 31.1221 27.4677C31.1201 27.3431 31.0936 27.2202 31.044 27.106C30.9944 26.9917 30.9227 26.8884 30.833 26.802C30.7439 26.715 30.6385 26.6464 30.5228 26.6002C30.4072 26.5541 30.2835 26.5312 30.159 26.533ZM33.722 26.533C33.5973 26.535 33.4743 26.5617 33.36 26.6115C33.2457 26.6612 33.1424 26.7331 33.056 26.823L31.247 28.68C31.1601 28.7693 31.0918 28.8748 31.0458 28.9906C30.9999 29.1064 30.9773 29.2301 30.9794 29.3546C30.9814 29.4791 31.008 29.602 31.0577 29.7162C31.1074 29.8304 31.1792 29.9337 31.269 30.02C31.3578 30.1074 31.4631 30.1763 31.5788 30.2227C31.6944 30.2691 31.8181 30.2921 31.9427 30.2905C32.0673 30.2888 32.1904 30.2624 32.3047 30.2129C32.4191 30.1634 32.5225 30.0917 32.609 30.002L34.417 28.142C34.5039 28.0528 34.5723 27.9473 34.6184 27.8316C34.6644 27.7159 34.687 27.5922 34.6851 27.4677C34.6831 27.3431 34.6566 27.2202 34.607 27.106C34.5574 26.9917 34.4857 26.8884 34.396 26.802C34.3069 26.715 34.2015 26.6464 34.0858 26.6002C33.9702 26.5541 33.8465 26.5312 33.722 26.533ZM16.521 27.016C16.6124 27.024 16.6988 27.0616 16.767 27.123C17.173 27.485 16.692 27.908 16.517 28.092L15.651 28.996C15.044 29.628 14.781 30.054 14.356 29.646C13.996 29.273 14.313 29.05 15.001 28.352L15.866 27.449C16.072 27.249 16.284 27.004 16.521 27.016ZM20.083 27.016C20.1744 27.024 20.2608 27.0616 20.329 27.123C20.736 27.485 20.254 27.908 20.079 28.092L19.214 28.996C18.607 29.628 18.343 30.054 17.919 29.646C17.559 29.273 17.875 29.05 18.564 28.352L19.429 27.449C19.634 27.249 19.847 27.004 20.083 27.016ZM23.46 27.016C23.5514 27.024 23.6378 27.0616 23.706 27.123C24.113 27.485 23.631 27.908 23.456 28.092L22.591 28.996C21.984 29.628 21.72 30.054 21.296 29.646C20.936 29.273 21.252 29.05 21.94 28.352L22.806 27.449C23.011 27.249 23.224 27.004 23.46 27.016ZM27.023 27.016C27.1144 27.024 27.2008 27.0616 27.269 27.123C27.675 27.485 27.194 27.908 27.019 28.092L26.153 28.996C25.546 29.628 25.283 30.054 24.858 29.646C24.498 29.273 24.815 29.05 25.503 28.352L26.368 27.449C26.574 27.249 26.786 27.004 27.022 27.016H27.023ZM30.223 27.016C30.3148 27.0238 30.4015 27.0614 30.47 27.123C30.876 27.485 30.395 27.908 30.22 28.092L29.354 28.996C28.747 29.628 28.484 30.054 28.06 29.646C27.7 29.273 28.016 29.05 28.704 28.352L29.569 27.449C29.775 27.249 29.987 27.004 30.224 27.016H30.223ZM33.786 27.016C33.8774 27.024 33.9638 27.0616 34.032 27.123C34.439 27.485 33.957 27.908 33.782 28.092L32.917 28.996C32.31 29.628 32.046 30.054 31.622 29.646C31.262 29.273 31.578 29.05 32.267 28.352L33.132 27.449C33.337 27.249 33.55 27.004 33.786 27.016ZM13.796 32.981C13.7813 32.9811 13.7667 32.9842 13.7532 32.9899C13.7397 32.9957 13.7274 33.004 13.7171 33.0145C13.7068 33.025 13.6986 33.0374 13.6931 33.0511C13.6876 33.0647 13.6848 33.0793 13.685 33.094C13.685 33.155 13.735 33.206 13.795 33.207C13.858 33.207 13.908 33.157 13.909 33.094C13.9092 33.0791 13.9065 33.0642 13.9009 33.0503C13.8954 33.0364 13.8871 33.0238 13.8765 33.0132C13.866 33.0025 13.8534 32.9941 13.8396 32.9884C13.8258 32.9827 13.8109 32.9799 13.796 32.98V32.981ZM14.358 32.981C14.3281 32.9813 14.2995 32.9933 14.2784 33.0144C14.2572 33.0355 14.2452 33.0641 14.245 33.094C14.245 33.155 14.297 33.207 14.358 33.207C14.42 33.207 14.469 33.155 14.47 33.094V33.074C14.4658 33.0475 14.4522 33.0235 14.4316 33.0063C14.4109 32.9892 14.3848 32.9802 14.358 32.981ZM14.921 32.981C14.9061 32.9809 14.8913 32.9837 14.8776 32.9893C14.8638 32.995 14.8513 33.0033 14.8408 33.0138C14.8303 33.0243 14.8219 33.0368 14.8163 33.0506C14.8107 33.0644 14.8078 33.0791 14.808 33.094C14.808 33.156 14.858 33.208 14.921 33.207C14.982 33.207 15.031 33.155 15.032 33.094V33.074C15.0279 33.0477 15.0144 33.0238 14.9939 33.0067C14.9735 32.9896 14.9476 32.9805 14.921 32.981ZM15.483 32.981C15.4681 32.9809 15.4533 32.9837 15.4396 32.9893C15.4258 32.995 15.4133 33.0033 15.4028 33.0138C15.3923 33.0243 15.3839 33.0368 15.3783 33.0506C15.3727 33.0644 15.3698 33.0791 15.37 33.094C15.37 33.156 15.421 33.208 15.483 33.207C15.545 33.207 15.594 33.155 15.595 33.094V33.086C15.5932 33.0575 15.5806 33.0308 15.5598 33.0113C15.539 32.9918 15.5115 32.981 15.483 32.981ZM16.046 32.981C16.0311 32.9809 16.0163 32.9837 16.0026 32.9893C15.9888 32.995 15.9763 33.0033 15.9658 33.0138C15.9553 33.0243 15.9469 33.0368 15.9413 33.0506C15.9357 33.0644 15.9328 33.0791 15.933 33.094C15.933 33.156 15.983 33.208 16.046 33.207C16.107 33.207 16.156 33.155 16.157 33.094V33.086C16.1552 33.0577 16.1428 33.0311 16.1222 33.0116C16.1016 32.9922 16.0743 32.9812 16.046 32.981ZM16.608 32.981C16.5931 32.9809 16.5783 32.9837 16.5646 32.9893C16.5508 32.995 16.5383 33.0033 16.5278 33.0138C16.5173 33.0243 16.5089 33.0368 16.5033 33.0506C16.4977 33.0644 16.4948 33.0791 16.495 33.094C16.495 33.156 16.546 33.208 16.608 33.207C16.67 33.207 16.719 33.155 16.72 33.094V33.086C16.7182 33.0575 16.7056 33.0308 16.6848 33.0113C16.664 32.9918 16.6365 32.981 16.608 32.981ZM17.169 32.981C17.1543 32.9811 17.1397 32.9842 17.1262 32.9899C17.1127 32.9957 17.1004 33.004 17.0901 33.0145C17.0798 33.025 17.0716 33.0374 17.0661 33.0511C17.0606 33.0647 17.0578 33.0793 17.058 33.094C17.058 33.155 17.108 33.207 17.169 33.207C17.1989 33.2068 17.2275 33.1948 17.2486 33.1736C17.2697 33.1525 17.2817 33.1239 17.282 33.094V33.086C17.2802 33.0574 17.2675 33.0305 17.2464 33.011C17.2254 32.9914 17.1977 32.9807 17.169 32.981ZM17.732 32.981C17.7172 32.981 17.7025 32.9839 17.6889 32.9896C17.6752 32.9953 17.6628 33.0037 17.6524 33.0142C17.642 33.0247 17.6338 33.0371 17.6282 33.0508C17.6226 33.0646 17.6198 33.0792 17.62 33.094C17.62 33.155 17.67 33.207 17.731 33.207C17.761 33.207 17.7899 33.1951 17.8112 33.174C17.8326 33.1528 17.8447 33.1241 17.845 33.094V33.086C17.8432 33.0572 17.8303 33.0302 17.8091 33.0106C17.7878 32.991 17.7599 32.9804 17.731 32.981H17.732ZM18.294 32.981C18.2793 32.9811 18.2647 32.9842 18.2512 32.9899C18.2377 32.9957 18.2254 33.004 18.2151 33.0145C18.2048 33.025 18.1966 33.0374 18.1911 33.0511C18.1856 33.0647 18.1828 33.0793 18.183 33.094C18.183 33.155 18.233 33.207 18.294 33.207C18.3239 33.2068 18.3525 33.1948 18.3736 33.1736C18.3947 33.1525 18.4067 33.1239 18.407 33.094V33.086C18.4052 33.0574 18.3925 33.0305 18.3714 33.011C18.3504 32.9914 18.3227 32.9807 18.294 32.981ZM18.857 32.981C18.8422 32.981 18.8275 32.9839 18.8139 32.9896C18.8002 32.9953 18.7878 33.0037 18.7774 33.0142C18.767 33.0247 18.7588 33.0371 18.7532 33.0508C18.7476 33.0646 18.7448 33.0792 18.745 33.094C18.745 33.155 18.795 33.207 18.856 33.207C18.918 33.207 18.967 33.155 18.968 33.094V33.074C18.9639 33.0477 18.9504 33.0238 18.9299 33.0067C18.9095 32.9896 18.8836 32.9805 18.857 32.981ZM19.419 32.981C19.4041 32.9809 19.3893 32.9837 19.3756 32.9893C19.3618 32.995 19.3493 33.0033 19.3388 33.0138C19.3283 33.0243 19.3199 33.0368 19.3143 33.0506C19.3087 33.0644 19.3058 33.0791 19.306 33.094C19.306 33.156 19.357 33.208 19.419 33.207C19.48 33.207 19.529 33.155 19.53 33.094V33.086C19.5282 33.0577 19.5158 33.0311 19.4952 33.0116C19.4746 32.9922 19.4473 32.9812 19.419 32.981ZM19.982 32.981C19.967 32.9807 19.9522 32.9835 19.9383 32.9891C19.9244 32.9946 19.9118 33.0029 19.9011 33.0135C19.8905 33.024 19.8821 33.0365 19.8764 33.0504C19.8707 33.0642 19.8678 33.0791 19.868 33.094C19.868 33.156 19.92 33.208 19.981 33.207C20.043 33.207 20.092 33.155 20.093 33.094V33.086C20.0912 33.0577 20.0788 33.0311 20.0582 33.0116C20.0376 32.9922 20.0103 32.9812 19.982 32.981ZM20.544 32.981C20.5291 32.9809 20.5143 32.9837 20.5006 32.9893C20.4868 32.995 20.4743 33.0033 20.4638 33.0138C20.4533 33.0243 20.4449 33.0368 20.4393 33.0506C20.4337 33.0644 20.4308 33.0791 20.431 33.094C20.431 33.156 20.482 33.208 20.544 33.207C20.605 33.207 20.654 33.155 20.655 33.094V33.086C20.6532 33.0577 20.6408 33.0311 20.6202 33.0116C20.5996 32.9922 20.5723 32.9812 20.544 32.981ZM21.107 32.981C21.092 32.9807 21.0772 32.9835 21.0633 32.9891C21.0494 32.9946 21.0368 33.0029 21.0261 33.0135C21.0155 33.024 21.0071 33.0365 21.0014 33.0504C20.9957 33.0642 20.9928 33.0791 20.993 33.094C20.993 33.156 21.045 33.208 21.106 33.207C21.168 33.207 21.217 33.155 21.218 33.094V33.086C21.2162 33.0577 21.2038 33.0311 21.1832 33.0116C21.1626 32.9922 21.1353 32.9812 21.107 32.981ZM21.667 32.981C21.6523 32.9811 21.6377 32.9842 21.6242 32.9899C21.6107 32.9957 21.5984 33.004 21.5881 33.0145C21.5778 33.025 21.5696 33.0374 21.5641 33.0511C21.5586 33.0647 21.5558 33.0793 21.556 33.094C21.556 33.155 21.606 33.207 21.667 33.207C21.6969 33.2068 21.7255 33.1948 21.7466 33.1736C21.7677 33.1525 21.7797 33.1239 21.78 33.094V33.086C21.7782 33.0574 21.7655 33.0305 21.7444 33.011C21.7234 32.9914 21.6957 32.9807 21.667 32.981ZM22.23 32.981C22.2152 32.981 22.2005 32.9839 22.1869 32.9896C22.1732 32.9953 22.1608 33.0037 22.1504 33.0142C22.14 33.0247 22.1318 33.0371 22.1262 33.0508C22.1206 33.0646 22.1178 33.0792 22.118 33.094C22.118 33.155 22.168 33.207 22.229 33.207C22.259 33.207 22.2879 33.1951 22.3092 33.174C22.3306 33.1528 22.3427 33.1241 22.343 33.094V33.086C22.3412 33.0574 22.3285 33.0305 22.3074 33.011C22.2864 32.9914 22.2587 32.9807 22.23 32.981ZM22.792 32.981C22.7773 32.9811 22.7627 32.9842 22.7492 32.9899C22.7357 32.9957 22.7234 33.004 22.7131 33.0145C22.7028 33.025 22.6946 33.0374 22.6891 33.0511C22.6836 33.0647 22.6808 33.0793 22.681 33.094C22.681 33.155 22.731 33.206 22.792 33.207C22.854 33.207 22.905 33.157 22.905 33.094C22.9052 33.0791 22.9025 33.0642 22.8969 33.0503C22.8914 33.0364 22.8831 33.0238 22.8725 33.0132C22.862 33.0025 22.8495 32.9941 22.8356 32.9884C22.8218 32.9827 22.8069 32.9799 22.792 32.98V32.981ZM23.355 32.981C23.3402 32.981 23.3255 32.9839 23.3119 32.9896C23.2982 32.9953 23.2858 33.0037 23.2754 33.0142C23.265 33.0247 23.2568 33.0371 23.2512 33.0508C23.2456 33.0646 23.2428 33.0792 23.243 33.094C23.243 33.155 23.293 33.207 23.354 33.207C23.3837 33.2065 23.412 33.1944 23.4329 33.1733C23.4539 33.1522 23.4657 33.1237 23.466 33.094V33.074C23.4617 33.0478 23.4481 33.024 23.4277 33.0069C23.4074 32.9899 23.3815 32.9807 23.355 32.981ZM23.917 32.981C23.9021 32.9809 23.8873 32.9837 23.8736 32.9893C23.8598 32.995 23.8473 33.0033 23.8368 33.0138C23.8263 33.0243 23.8179 33.0368 23.8123 33.0506C23.8067 33.0644 23.8038 33.0791 23.804 33.094C23.804 33.156 23.855 33.208 23.917 33.207C23.978 33.207 24.027 33.155 24.028 33.094V33.074C24.0239 33.0477 24.0104 33.0238 23.9899 33.0067C23.9695 32.9896 23.9436 32.9805 23.917 32.981ZM24.48 32.981C24.465 32.9807 24.4502 32.9835 24.4363 32.9891C24.4224 32.9946 24.4098 33.0029 24.3991 33.0135C24.3885 33.024 24.3801 33.0365 24.3744 33.0504C24.3687 33.0642 24.3658 33.0791 24.366 33.094C24.366 33.156 24.418 33.208 24.48 33.207C24.54 33.207 24.59 33.155 24.59 33.094V33.086C24.5882 33.0579 24.5759 33.0315 24.5555 33.012C24.5351 32.9925 24.5082 32.9815 24.48 32.981ZM25.042 32.981C25.0271 32.9809 25.0123 32.9837 24.9986 32.9893C24.9848 32.995 24.9723 33.0033 24.9618 33.0138C24.9513 33.0243 24.9429 33.0368 24.9373 33.0506C24.9317 33.0644 24.9288 33.0791 24.929 33.094C24.929 33.156 24.98 33.208 25.042 33.207C25.103 33.207 25.152 33.155 25.153 33.094V33.086C25.1512 33.0577 25.1388 33.0311 25.1182 33.0116C25.0976 32.9922 25.0703 32.9812 25.042 32.981ZM25.602 32.981C25.5724 32.9815 25.5443 32.9937 25.5237 33.0149C25.5031 33.036 25.4917 33.0645 25.492 33.094C25.492 33.155 25.542 33.207 25.602 33.207C25.632 33.207 25.6609 33.1951 25.6822 33.174C25.7036 33.1528 25.7157 33.1241 25.716 33.094V33.086C25.7142 33.0574 25.7015 33.0305 25.6804 33.011C25.6594 32.9914 25.6317 32.9807 25.603 32.981H25.602ZM26.165 32.981C26.1503 32.9811 26.1357 32.9842 26.1222 32.9899C26.1087 32.9957 26.0964 33.004 26.0861 33.0145C26.0758 33.025 26.0676 33.0374 26.0621 33.0511C26.0566 33.0647 26.0538 33.0793 26.054 33.094C26.054 33.155 26.104 33.207 26.165 33.207C26.1949 33.2068 26.2235 33.1948 26.2446 33.1736C26.2657 33.1525 26.2777 33.1239 26.278 33.094V33.086C26.2762 33.0574 26.2635 33.0305 26.2424 33.011C26.2214 32.9914 26.1937 32.9807 26.165 32.981ZM26.728 32.981C26.7132 32.981 26.6985 32.9839 26.6849 32.9896C26.6712 32.9953 26.6588 33.0037 26.6484 33.0142C26.638 33.0247 26.6298 33.0371 26.6242 33.0508C26.6186 33.0646 26.6158 33.0792 26.616 33.094C26.616 33.155 26.666 33.207 26.728 33.207C26.7579 33.2068 26.7865 33.1948 26.8076 33.1736C26.8287 33.1525 26.8407 33.1239 26.841 33.094V33.086C26.8392 33.0574 26.8265 33.0305 26.8054 33.011C26.7844 32.9914 26.7567 32.9807 26.728 32.981ZM27.29 32.981C27.2753 32.9811 27.2607 32.9842 27.2472 32.9899C27.2337 32.9957 27.2214 33.004 27.2111 33.0145C27.2008 33.025 27.1926 33.0374 27.1871 33.0511C27.1816 33.0647 27.1788 33.0793 27.179 33.094C27.179 33.155 27.229 33.206 27.29 33.207C27.352 33.207 27.403 33.157 27.403 33.094C27.4032 33.0791 27.4005 33.0642 27.3949 33.0503C27.3894 33.0364 27.3811 33.0238 27.3705 33.0132C27.36 33.0025 27.3474 32.9941 27.3336 32.9884C27.3198 32.9827 27.3049 32.9799 27.29 32.98V32.981ZM27.853 32.981C27.8382 32.981 27.8235 32.9839 27.8099 32.9896C27.7962 32.9953 27.7838 33.0037 27.7734 33.0142C27.763 33.0247 27.7548 33.0371 27.7492 33.0508C27.7436 33.0646 27.7408 33.0792 27.741 33.094C27.741 33.155 27.791 33.207 27.853 33.207C27.913 33.207 27.963 33.155 27.963 33.094C27.965 33.086 27.965 33.082 27.963 33.074C27.9589 33.0479 27.9455 33.0241 27.9253 33.007C27.9051 32.9899 27.8794 32.9807 27.853 32.981ZM28.415 32.981C28.4001 32.9809 28.3853 32.9837 28.3716 32.9893C28.3578 32.995 28.3453 33.0033 28.3348 33.0138C28.3243 33.0243 28.3159 33.0368 28.3103 33.0506C28.3047 33.0644 28.3018 33.0791 28.302 33.094C28.302 33.156 28.353 33.208 28.415 33.207C28.476 33.207 28.525 33.155 28.526 33.094V33.086C28.5242 33.0579 28.5119 33.0315 28.4915 33.012C28.4711 32.9925 28.4442 32.9815 28.416 32.981H28.415ZM28.978 32.981C28.963 32.9807 28.9482 32.9835 28.9343 32.9891C28.9204 32.9946 28.9078 33.0029 28.8971 33.0135C28.8865 33.024 28.8781 33.0365 28.8724 33.0504C28.8667 33.0642 28.8638 33.0791 28.864 33.094C28.864 33.156 28.916 33.208 28.978 33.207C29.038 33.207 29.088 33.155 29.088 33.094V33.086C29.0862 33.0579 29.0739 33.0315 29.0535 33.012C29.0331 32.9925 29.0062 32.9815 28.978 32.981ZM29.54 32.981C29.5251 32.9809 29.5103 32.9837 29.4966 32.9893C29.4828 32.995 29.4703 33.0033 29.4598 33.0138C29.4493 33.0243 29.4409 33.0368 29.4353 33.0506C29.4297 33.0644 29.4268 33.0791 29.427 33.094C29.427 33.156 29.478 33.208 29.54 33.207C29.601 33.207 29.65 33.155 29.651 33.094V33.086C29.6492 33.0579 29.6369 33.0315 29.6165 33.012C29.5961 32.9925 29.5692 32.9815 29.541 32.981H29.54ZM30.1 32.981C30.0704 32.9815 30.0423 32.9937 30.0217 33.0149C30.0011 33.036 29.9897 33.0645 29.99 33.094C29.99 33.155 30.039 33.207 30.1 33.207C30.13 33.207 30.1589 33.1951 30.1802 33.174C30.2016 33.1528 30.2137 33.1241 30.214 33.094V33.086C30.2122 33.0574 30.1995 33.0305 30.1784 33.011C30.1574 32.9914 30.1297 32.9807 30.101 32.981H30.1ZM30.663 32.981C30.6483 32.9811 30.6337 32.9842 30.6202 32.9899C30.6067 32.9957 30.5944 33.004 30.5841 33.0145C30.5738 33.025 30.5656 33.0374 30.5601 33.0511C30.5546 33.0647 30.5518 33.0793 30.552 33.094C30.552 33.155 30.602 33.207 30.663 33.207C30.6929 33.2068 30.7215 33.1948 30.7426 33.1736C30.7637 33.1525 30.7757 33.1239 30.776 33.094V33.086C30.7742 33.0574 30.7615 33.0305 30.7404 33.011C30.7194 32.9914 30.6917 32.9807 30.663 32.981ZM31.226 32.981C31.2112 32.981 31.1965 32.9839 31.1829 32.9896C31.1692 32.9953 31.1568 33.0037 31.1464 33.0142C31.136 33.0247 31.1278 33.0371 31.1222 33.0508C31.1166 33.0646 31.1138 33.0792 31.114 33.094C31.114 33.155 31.164 33.207 31.226 33.207C31.2559 33.2068 31.2845 33.1948 31.3056 33.1736C31.3267 33.1525 31.3387 33.1239 31.339 33.094V33.086C31.3372 33.0574 31.3245 33.0305 31.3034 33.011C31.2824 32.9914 31.2547 32.9807 31.226 32.981ZM31.788 32.981C31.7733 32.9811 31.7587 32.9842 31.7452 32.9899C31.7317 32.9957 31.7194 33.004 31.7091 33.0145C31.6988 33.025 31.6906 33.0374 31.6851 33.0511C31.6796 33.0647 31.6768 33.0793 31.677 33.094C31.677 33.155 31.727 33.207 31.788 33.207C31.849 33.207 31.898 33.155 31.899 33.094V33.074C31.8949 33.0479 31.8815 33.0241 31.8613 33.007C31.8411 32.9899 31.8154 32.9807 31.789 32.981H31.788ZM32.351 32.981C32.336 32.9807 32.3212 32.9835 32.3073 32.9891C32.2934 32.9946 32.2808 33.0029 32.2701 33.0135C32.2595 33.024 32.2511 33.0365 32.2454 33.0504C32.2397 33.0642 32.2368 33.0791 32.237 33.094C32.237 33.156 32.289 33.208 32.351 33.207C32.411 33.207 32.461 33.155 32.461 33.094C32.463 33.086 32.463 33.082 32.461 33.074C32.4569 33.0479 32.4435 33.0241 32.4233 33.007C32.4031 32.9899 32.3774 32.9807 32.351 32.981ZM32.913 32.981C32.8981 32.9809 32.8833 32.9837 32.8696 32.9893C32.8558 32.995 32.8433 33.0033 32.8328 33.0138C32.8223 33.0243 32.8139 33.0368 32.8083 33.0506C32.8027 33.0644 32.7998 33.0791 32.8 33.094C32.8 33.156 32.851 33.208 32.913 33.207C32.974 33.207 33.023 33.155 33.024 33.094V33.086C33.0222 33.0579 33.0099 33.0315 32.9895 33.012C32.9691 32.9925 32.9422 32.9815 32.914 32.981H32.913ZM33.476 32.981C33.461 32.9807 33.4462 32.9835 33.4323 32.9891C33.4184 32.9946 33.4058 33.0029 33.3951 33.0135C33.3845 33.024 33.3761 33.0365 33.3704 33.0504C33.3647 33.0642 33.3618 33.0791 33.362 33.094C33.362 33.156 33.414 33.208 33.476 33.207C33.5053 33.206 33.5332 33.1937 33.5537 33.1726C33.5742 33.1516 33.5857 33.1234 33.586 33.094V33.086C33.5842 33.0579 33.5719 33.0315 33.5515 33.012C33.5311 32.9925 33.5042 32.9815 33.476 32.981ZM34.038 32.981C34.0231 32.9809 34.0083 32.9837 33.9946 32.9893C33.9808 32.995 33.9683 33.0033 33.9578 33.0138C33.9473 33.0243 33.9389 33.0368 33.9333 33.0506C33.9277 33.0644 33.9248 33.0791 33.925 33.094C33.925 33.156 33.976 33.208 34.038 33.207C34.0675 33.2062 34.0956 33.194 34.1163 33.1729C34.137 33.1519 34.1487 33.1236 34.149 33.094V33.086C34.1472 33.0579 34.1349 33.0315 34.1145 33.012C34.0941 32.9925 34.0672 32.9815 34.039 32.981H34.038ZM34.598 32.981C34.5684 32.9815 34.5403 32.9937 34.5197 33.0149C34.4991 33.036 34.4877 33.0645 34.488 33.094C34.488 33.155 34.537 33.207 34.598 33.207C34.628 33.207 34.6569 33.1951 34.6782 33.174C34.6996 33.1528 34.7117 33.1241 34.712 33.094V33.086C34.7102 33.0574 34.6975 33.0305 34.6764 33.011C34.6554 32.9914 34.6277 32.9807 34.599 32.981H34.598ZM16.456 35.187V35.189C16.3313 35.191 16.2083 35.2177 16.094 35.2675C15.9797 35.3172 15.8764 35.3891 15.79 35.479L13.981 37.336C13.8941 37.4253 13.8258 37.5308 13.7798 37.6466C13.7339 37.7624 13.7113 37.8861 13.7134 38.0106C13.7154 38.1351 13.742 38.258 13.7917 38.3722C13.8414 38.4864 13.9132 38.5897 14.003 38.676C14.0919 38.7634 14.1973 38.8322 14.313 38.8785C14.4287 38.9249 14.5525 38.9478 14.6772 38.9459C14.8018 38.944 14.9248 38.9175 15.0391 38.8677C15.1534 38.8179 15.2567 38.746 15.343 38.656L17.151 36.796C17.2378 36.7068 17.3061 36.6014 17.352 36.4858C17.3979 36.3701 17.4205 36.2466 17.4186 36.1222C17.4166 35.9977 17.3901 35.8749 17.3406 35.7608C17.2911 35.6467 17.2195 35.5434 17.13 35.457C17.041 35.3698 16.9356 35.301 16.8199 35.2547C16.7043 35.2084 16.5806 35.1854 16.456 35.187ZM23.396 35.187V35.189C23.2713 35.1911 23.1483 35.2178 23.034 35.2675C22.9197 35.3173 22.8164 35.3892 22.73 35.479L20.92 37.336C20.8331 37.4253 20.7648 37.5308 20.7188 37.6466C20.6729 37.7624 20.6503 37.8861 20.6524 38.0106C20.6544 38.1351 20.681 38.258 20.7307 38.3722C20.7804 38.4864 20.8522 38.5897 20.942 38.676C21.0309 38.7634 21.1363 38.8322 21.252 38.8785C21.3677 38.9249 21.4915 38.9478 21.6162 38.9459C21.7408 38.944 21.8638 38.9175 21.9781 38.8677C22.0924 38.8179 22.1957 38.746 22.282 38.656L24.091 36.796C24.1777 36.7068 24.2459 36.6013 24.2918 36.4856C24.3376 36.3699 24.3601 36.2464 24.3581 36.1219C24.3561 35.9975 24.3295 35.8748 24.2798 35.7606C24.2302 35.6465 24.1586 35.5434 24.069 35.457C23.9799 35.3698 23.8746 35.3011 23.7589 35.2548C23.6432 35.2084 23.5196 35.1854 23.395 35.187H23.396ZM26.958 35.187V35.189C26.8333 35.1911 26.7103 35.2178 26.596 35.2675C26.4817 35.3173 26.3784 35.3892 26.292 35.479L24.483 37.336C24.3961 37.4253 24.3278 37.5308 24.2818 37.6466C24.2359 37.7624 24.2133 37.8861 24.2154 38.0106C24.2174 38.1351 24.244 38.258 24.2937 38.3722C24.3434 38.4864 24.4152 38.5897 24.505 38.676C24.5939 38.7634 24.6993 38.8322 24.815 38.8785C24.9307 38.9249 25.0545 38.9478 25.1792 38.9459C25.3038 38.944 25.4268 38.9175 25.5411 38.8677C25.6554 38.8179 25.7587 38.746 25.845 38.656L27.653 36.796C27.7398 36.7068 27.8081 36.6014 27.854 36.4858C27.8999 36.3701 27.9225 36.2466 27.9206 36.1222C27.9186 35.9977 27.8921 35.8749 27.8426 35.7608C27.7931 35.6467 27.7215 35.5434 27.632 35.457C27.5429 35.3698 27.4376 35.3011 27.3219 35.2548C27.2062 35.2084 27.0826 35.1854 26.958 35.187ZM30.159 35.187V35.189C30.0343 35.191 29.9113 35.2177 29.797 35.2675C29.6827 35.3172 29.5794 35.3891 29.493 35.479L27.685 37.336C27.5981 37.4252 27.5296 37.5307 27.4836 37.6464C27.4376 37.7622 27.4149 37.8859 27.4169 38.0104C27.4188 38.1349 27.4454 38.2578 27.495 38.3721C27.5446 38.4863 27.6163 38.5896 27.706 38.676C27.7949 38.7634 27.9003 38.8322 28.016 38.8785C28.1317 38.9249 28.2555 38.9478 28.3802 38.9459C28.5048 38.944 28.6278 38.9175 28.7421 38.8677C28.8564 38.8179 28.9597 38.746 29.046 38.656L30.854 36.796C30.9408 36.7068 31.0091 36.6014 31.055 36.4858C31.1009 36.3701 31.1235 36.2466 31.1216 36.1222C31.1196 35.9977 31.0931 35.8749 31.0436 35.7608C30.9941 35.6467 30.9225 35.5434 30.833 35.457C30.744 35.3698 30.6386 35.301 30.5229 35.2547C30.4073 35.2084 30.2836 35.1854 30.159 35.187ZM33.722 35.187V35.189C33.5973 35.191 33.4743 35.2177 33.36 35.2675C33.2457 35.3172 33.1424 35.3891 33.056 35.479L31.247 37.336C31.1601 37.4253 31.0918 37.5308 31.0458 37.6466C30.9999 37.7624 30.9773 37.8861 30.9794 38.0106C30.9814 38.1351 31.008 38.258 31.0577 38.3722C31.1074 38.4864 31.1792 38.5897 31.269 38.676C31.3579 38.7634 31.4633 38.8322 31.579 38.8785C31.6947 38.9249 31.8185 38.9478 31.9432 38.9459C32.0678 38.944 32.1908 38.9175 32.3051 38.8677C32.4194 38.8179 32.5227 38.746 32.609 38.656L34.417 36.796C34.5037 36.7068 34.5721 36.6014 34.618 36.4858C34.6639 36.3701 34.6865 36.2466 34.6846 36.1222C34.6826 35.9977 34.6561 35.8749 34.6066 35.7608C34.5571 35.6467 34.4855 35.5434 34.396 35.457C34.307 35.3698 34.2016 35.301 34.0859 35.2547C33.9703 35.2084 33.8466 35.1854 33.722 35.187ZM20.019 35.189C19.8943 35.191 19.7713 35.2177 19.657 35.2675C19.5427 35.3172 19.4394 35.3891 19.353 35.479L17.544 37.336C17.4571 37.4252 17.3886 37.5307 17.3426 37.6464C17.2966 37.7622 17.2739 37.8859 17.2759 38.0104C17.2778 38.1349 17.3044 38.2578 17.354 38.3721C17.4036 38.4863 17.4753 38.5896 17.565 38.676C17.6539 38.7634 17.7593 38.8322 17.875 38.8785C17.9907 38.9249 18.1145 38.9478 18.2392 38.9459C18.3638 38.944 18.4868 38.9175 18.6011 38.8677C18.7154 38.8179 18.8187 38.746 18.905 38.656L20.714 36.799C20.8008 36.7098 20.8692 36.6042 20.9151 36.4884C20.9611 36.3727 20.9836 36.249 20.9816 36.1244C20.9796 35.9999 20.9529 35.877 20.9032 35.7628C20.8535 35.6486 20.7817 35.5454 20.692 35.459C20.6031 35.3719 20.4979 35.3032 20.3824 35.2569C20.2669 35.2106 20.1434 35.1875 20.019 35.189ZM16.521 35.672C16.6124 35.68 16.6988 35.7176 16.767 35.779C17.173 36.141 16.692 36.565 16.517 36.748L15.651 37.652C15.044 38.284 14.781 38.711 14.356 38.302C13.996 37.929 14.313 37.707 15.001 37.008L15.866 36.105C16.072 35.905 16.284 35.66 16.521 35.672ZM20.083 35.672C20.1744 35.68 20.2608 35.7176 20.329 35.779C20.736 36.141 20.254 36.565 20.079 36.748L19.214 37.652C18.607 38.284 18.343 38.711 17.919 38.302C17.559 37.929 17.875 37.707 18.564 37.008L19.429 36.105C19.634 35.905 19.847 35.66 20.083 35.672ZM23.46 35.672C23.5514 35.68 23.6378 35.7176 23.706 35.779C24.113 36.141 23.631 36.565 23.456 36.748L22.591 37.652C21.984 38.284 21.72 38.711 21.296 38.302C20.936 37.929 21.252 37.707 21.94 37.008L22.806 36.105C23.011 35.905 23.224 35.66 23.46 35.672ZM27.023 35.672C27.1144 35.68 27.2008 35.7176 27.269 35.779C27.675 36.141 27.194 36.565 27.019 36.748L26.153 37.652C25.546 38.284 25.283 38.711 24.858 38.302C24.498 37.929 24.815 37.707 25.503 37.008L26.368 36.105C26.574 35.905 26.786 35.66 27.022 35.672H27.023ZM30.223 35.672C30.3148 35.6798 30.4015 35.7174 30.47 35.779C30.876 36.141 30.395 36.565 30.22 36.748L29.354 37.652C28.747 38.284 28.484 38.711 28.06 38.302C27.7 37.929 28.016 37.707 28.704 37.008L29.569 36.105C29.775 35.905 29.987 35.66 30.224 35.672H30.223ZM33.786 35.672C33.8774 35.68 33.9638 35.7176 34.032 35.779C34.439 36.141 33.957 36.565 33.782 36.748L32.917 37.652C32.31 38.284 32.046 38.711 31.622 38.302C31.262 37.929 31.578 37.707 32.267 37.008L33.132 36.105C33.337 35.905 33.55 35.66 33.786 35.672Z" fill="#333333"/>
</svg>
