<svg width="48" height="48" viewBox="0 0 48 48" fill="none" xmlns="http://www.w3.org/2000/svg">
<path d="M14.412 4.09402C13.542 4.09402 12.844 4.79302 12.844 5.66202V42.523C12.844 43.393 13.543 44.093 14.412 44.093H34.117C34.987 44.093 35.686 43.393 35.686 42.523V5.66302C35.686 4.79302 34.986 4.09302 34.117 4.09302H14.412V4.09402ZM14.842 4.59402H33.682C34.512 4.59402 35.184 5.27702 35.184 6.12502V42.065C35.184 42.912 34.513 43.594 33.682 43.594H14.842C14.01 43.594 13.342 42.912 13.342 42.064V6.12502C13.342 5.27702 14.01 4.59402 14.842 4.59402ZM17.299 9.21402V9.21702C17.1744 9.21891 17.0514 9.24541 16.9371 9.29501C16.8228 9.34461 16.7195 9.41632 16.633 9.50602L14.824 11.363C14.7371 11.4523 14.6688 11.5578 14.6228 11.6736C14.5769 11.7894 14.5543 11.9131 14.5564 12.0376C14.5584 12.1621 14.5851 12.285 14.6348 12.3992C14.6845 12.5134 14.7563 12.6167 14.846 12.703C14.935 12.7902 15.0404 12.859 15.1561 12.9052C15.2718 12.9515 15.3956 12.9743 15.5202 12.9725C15.6448 12.9706 15.7678 12.9441 15.8821 12.8944C15.9963 12.8447 16.0996 12.7729 16.186 12.683L17.994 10.824C18.0809 10.7348 18.1494 10.6293 18.1954 10.5136C18.2414 10.3979 18.2641 10.2742 18.2621 10.1497C18.2602 10.0251 18.2336 9.90221 18.184 9.78797C18.1344 9.67374 18.0627 9.57044 17.973 9.48402C17.884 9.3968 17.7786 9.32804 17.663 9.2817C17.5473 9.23537 17.4236 9.21236 17.299 9.21402ZM21.299 9.21402V9.21702C21.1744 9.21891 21.0514 9.24541 20.9371 9.29501C20.8228 9.34461 20.7195 9.41632 20.633 9.50602L18.824 11.363C18.7371 11.4523 18.6688 11.5578 18.6228 11.6736C18.5769 11.7894 18.5543 11.9131 18.5564 12.0376C18.5584 12.1621 18.5851 12.285 18.6348 12.3992C18.6845 12.5134 18.7563 12.6167 18.846 12.703C18.935 12.7902 19.0404 12.859 19.1561 12.9052C19.2718 12.9515 19.3956 12.9743 19.5202 12.9725C19.6448 12.9706 19.7678 12.9441 19.8821 12.8944C19.9963 12.8447 20.0996 12.7729 20.186 12.683L21.994 10.824C22.0809 10.7348 22.1494 10.6293 22.1954 10.5136C22.2414 10.3979 22.2641 10.2742 22.2621 10.1497C22.2602 10.0251 22.2336 9.90221 22.184 9.78797C22.1344 9.67374 22.0627 9.57044 21.973 9.48402C21.884 9.3968 21.7786 9.32804 21.663 9.2817C21.5473 9.23537 21.4236 9.21236 21.299 9.21402ZM25.299 9.21402V9.21702C25.1744 9.21891 25.0514 9.24541 24.9371 9.29501C24.8228 9.34461 24.7195 9.41632 24.633 9.50602L22.824 11.363C22.7371 11.4523 22.6688 11.5578 22.6228 11.6736C22.5769 11.7894 22.5543 11.9131 22.5564 12.0376C22.5584 12.1621 22.5851 12.285 22.6348 12.3992C22.6845 12.5134 22.7563 12.6167 22.846 12.703C22.935 12.7902 23.0404 12.859 23.1561 12.9052C23.2718 12.9515 23.3956 12.9743 23.5202 12.9725C23.6448 12.9706 23.7678 12.9441 23.8821 12.8944C23.9963 12.8447 24.0996 12.7729 24.186 12.683L25.994 10.824C26.0809 10.7348 26.1494 10.6293 26.1954 10.5136C26.2414 10.3979 26.2641 10.2742 26.2621 10.1497C26.2602 10.0251 26.2336 9.90221 26.184 9.78797C26.1344 9.67374 26.0627 9.57044 25.973 9.48402C25.884 9.3968 25.7786 9.32804 25.663 9.2817C25.5473 9.23537 25.4236 9.21236 25.299 9.21402ZM29.299 9.21402V9.21702C29.1744 9.21891 29.0514 9.24541 28.9371 9.29501C28.8228 9.34461 28.7195 9.41632 28.633 9.50602L26.824 11.363C26.7371 11.4523 26.6688 11.5578 26.6228 11.6736C26.5769 11.7894 26.5543 11.9131 26.5564 12.0376C26.5584 12.1621 26.5851 12.285 26.6348 12.3992C26.6845 12.5134 26.7563 12.6167 26.846 12.703C26.935 12.7902 27.0404 12.859 27.1561 12.9052C27.2718 12.9515 27.3956 12.9743 27.5202 12.9725C27.6448 12.9706 27.7678 12.9441 27.8821 12.8944C27.9963 12.8447 28.0996 12.7729 28.186 12.683L29.994 10.824C30.0809 10.7348 30.1494 10.6293 30.1954 10.5136C30.2414 10.3979 30.2641 10.2742 30.2621 10.1497C30.2602 10.0251 30.2336 9.90221 30.184 9.78797C30.1344 9.67374 30.0627 9.57044 29.973 9.48402C29.884 9.3968 29.7786 9.32804 29.663 9.2817C29.5473 9.23537 29.4236 9.21236 29.299 9.21402ZM33.012 9.21402V9.21702C32.8874 9.21891 32.7644 9.24541 32.6501 9.29501C32.5358 9.34461 32.4325 9.41632 32.346 9.50602L30.537 11.363C30.4501 11.4523 30.3818 11.5578 30.3358 11.6736C30.2899 11.7894 30.2673 11.9131 30.2694 12.0376C30.2714 12.1621 30.2981 12.285 30.3478 12.3992C30.3975 12.5134 30.4692 12.6167 30.559 12.703C30.648 12.7902 30.7534 12.859 30.8691 12.9052C30.9848 12.9515 31.1086 12.9743 31.2332 12.9725C31.3578 12.9706 31.4808 12.9441 31.5951 12.8944C31.7093 12.8447 31.8126 12.7729 31.899 12.683L33.707 10.824C33.7939 10.7348 33.8622 10.6292 33.9081 10.5134C33.9541 10.3977 33.9767 10.274 33.9746 10.1494C33.9726 10.0249 33.9459 9.90202 33.8962 9.78782C33.8465 9.67362 33.7747 9.57038 33.685 9.48402C33.5961 9.39692 33.4909 9.32823 33.3754 9.2819C33.2599 9.23556 33.1364 9.21249 33.012 9.21402ZM17.363 9.70002C17.4546 9.70833 17.5409 9.74624 17.609 9.80802C18.016 10.169 17.534 10.593 17.359 10.776L16.494 11.681C15.887 12.312 15.623 12.739 15.199 12.331C14.839 11.958 15.156 11.735 15.844 11.036L16.709 10.134C16.914 9.93302 17.127 9.68902 17.363 9.70002ZM21.363 9.70002C21.4546 9.70833 21.5409 9.74624 21.609 9.80802C22.016 10.169 21.534 10.593 21.359 10.776L20.494 11.681C19.887 12.312 19.623 12.739 19.199 12.331C18.839 11.958 19.155 11.735 19.844 11.036L20.709 10.134C20.914 9.93302 21.127 9.68902 21.363 9.70002ZM25.363 9.70002C25.4546 9.70833 25.5409 9.74624 25.609 9.80802C26.016 10.169 25.534 10.593 25.359 10.776L24.494 11.681C23.887 12.312 23.623 12.739 23.199 12.331C22.839 11.958 23.155 11.735 23.844 11.036L24.709 10.134C24.914 9.93302 25.127 9.68902 25.363 9.70002ZM29.363 9.70002C29.4546 9.70833 29.5409 9.74624 29.609 9.80802C30.016 10.169 29.534 10.593 29.359 10.776L28.494 11.681C27.887 12.312 27.623 12.739 27.199 12.331C26.839 11.958 27.155 11.735 27.844 11.036L28.709 10.134C28.914 9.93302 29.127 9.68902 29.363 9.70002ZM33.076 9.70002C33.1676 9.70833 33.2539 9.74624 33.322 9.80802C33.729 10.169 33.247 10.593 33.072 10.776L32.207 11.681C31.6 12.312 31.336 12.739 30.912 12.331C30.552 11.958 30.868 11.735 31.557 11.036L32.422 10.134C32.627 9.93302 32.84 9.68902 33.076 9.70002ZM13.863 14.038C13.8483 14.0381 13.8337 14.0412 13.8202 14.0469C13.8067 14.0527 13.7944 14.061 13.7841 14.0715C13.7738 14.082 13.7656 14.0944 13.7601 14.1081C13.7546 14.1217 13.7519 14.1363 13.752 14.151C13.752 14.213 13.802 14.264 13.863 14.265C13.925 14.265 13.976 14.214 13.977 14.151C13.9771 14.1361 13.9743 14.1212 13.9686 14.1074C13.9629 14.0935 13.9545 14.081 13.9438 14.0705C13.9332 14.0599 13.9206 14.0516 13.9067 14.0461C13.8928 14.0405 13.878 14.0377 13.863 14.038ZM14.426 14.038C14.3959 14.038 14.3671 14.0499 14.3457 14.0711C14.3244 14.0922 14.3123 14.121 14.312 14.151C14.313 14.213 14.364 14.264 14.426 14.265C14.487 14.265 14.536 14.213 14.537 14.151V14.131C14.5329 14.1047 14.5194 14.0808 14.499 14.0637C14.4785 14.0466 14.4526 14.0375 14.426 14.038ZM14.988 14.038C14.9731 14.0379 14.9584 14.0407 14.9446 14.0463C14.9308 14.052 14.9183 14.0603 14.9078 14.0708C14.8973 14.0813 14.889 14.0938 14.8833 14.1076C14.8777 14.1214 14.8749 14.1361 14.875 14.151C14.875 14.213 14.926 14.265 14.988 14.265C15.05 14.265 15.098 14.213 15.1 14.151V14.131C15.0959 14.1045 15.0822 14.0805 15.0616 14.0633C15.041 14.0462 15.0148 14.0372 14.988 14.038ZM15.551 14.038C15.536 14.0377 15.5212 14.0405 15.5073 14.0461C15.4934 14.0516 15.4808 14.0599 15.4701 14.0705C15.4595 14.081 15.4511 14.0935 15.4454 14.1074C15.4397 14.1212 15.4369 14.1361 15.437 14.151C15.438 14.213 15.489 14.265 15.551 14.265C15.612 14.265 15.661 14.213 15.662 14.151V14.144C15.6605 14.1155 15.6481 14.0887 15.6275 14.069C15.6069 14.0493 15.5795 14.0382 15.551 14.038ZM16.113 14.038C16.0981 14.0379 16.0834 14.0407 16.0696 14.0463C16.0558 14.052 16.0433 14.0603 16.0328 14.0708C16.0223 14.0813 16.014 14.0938 16.0083 14.1076C16.0027 14.1214 15.9999 14.1361 16 14.151C16 14.213 16.051 14.265 16.113 14.265C16.174 14.265 16.223 14.213 16.225 14.151V14.144C16.2235 14.1154 16.211 14.0884 16.1901 14.0687C16.1693 14.0489 16.1417 14.038 16.113 14.038ZM16.676 14.038C16.6611 14.0379 16.6464 14.0407 16.6326 14.0463C16.6188 14.052 16.6063 14.0603 16.5958 14.0708C16.5853 14.0813 16.577 14.0938 16.5713 14.1076C16.5657 14.1214 16.5629 14.1361 16.563 14.151C16.563 14.213 16.613 14.265 16.676 14.265C16.737 14.265 16.786 14.213 16.787 14.151V14.144C16.7855 14.1155 16.7731 14.0887 16.7525 14.069C16.7319 14.0493 16.7045 14.0382 16.676 14.038ZM17.236 14.038C17.2213 14.0381 17.2067 14.0412 17.1932 14.0469C17.1797 14.0527 17.1674 14.061 17.1571 14.0715C17.1468 14.082 17.1386 14.0944 17.1331 14.1081C17.1276 14.1217 17.1249 14.1363 17.125 14.151C17.125 14.213 17.175 14.264 17.236 14.265C17.251 14.265 17.2658 14.2621 17.2796 14.2563C17.2935 14.2506 17.306 14.2422 17.3166 14.2316C17.3272 14.221 17.3356 14.2085 17.3413 14.1946C17.347 14.1808 17.35 14.166 17.35 14.151V14.144C17.3484 14.115 17.3357 14.0878 17.3144 14.068C17.2931 14.0482 17.265 14.0375 17.236 14.038ZM17.799 14.038C17.7843 14.0381 17.7697 14.0412 17.7562 14.0469C17.7427 14.0527 17.7304 14.061 17.7201 14.0715C17.7098 14.082 17.7016 14.0944 17.6961 14.1081C17.6906 14.1217 17.6879 14.1363 17.688 14.151C17.688 14.213 17.738 14.264 17.798 14.265C17.813 14.265 17.8278 14.2621 17.8416 14.2563C17.8555 14.2506 17.868 14.2422 17.8786 14.2316C17.8892 14.221 17.8976 14.2085 17.9033 14.1946C17.909 14.1808 17.912 14.166 17.912 14.151V14.144C17.9104 14.1152 17.8978 14.0881 17.8768 14.0683C17.8557 14.0486 17.8279 14.0377 17.799 14.038ZM18.361 14.038C18.3463 14.0381 18.3317 14.0412 18.3182 14.0469C18.3047 14.0527 18.2924 14.061 18.2821 14.0715C18.2718 14.082 18.2636 14.0944 18.2581 14.1081C18.2526 14.1217 18.2499 14.1363 18.25 14.151C18.25 14.213 18.3 14.264 18.361 14.265C18.376 14.265 18.3908 14.2621 18.4046 14.2563C18.4185 14.2506 18.431 14.2422 18.4416 14.2316C18.4522 14.221 18.4606 14.2085 18.4663 14.1946C18.472 14.1808 18.475 14.166 18.475 14.151V14.144C18.4734 14.115 18.4607 14.0878 18.4394 14.068C18.4181 14.0482 18.39 14.0375 18.361 14.038ZM18.924 14.038C18.9093 14.0381 18.8947 14.0412 18.8812 14.0469C18.8677 14.0527 18.8554 14.061 18.8451 14.0715C18.8348 14.082 18.8266 14.0944 18.8211 14.1081C18.8156 14.1217 18.8129 14.1363 18.813 14.151C18.813 14.213 18.863 14.264 18.923 14.265C18.985 14.265 19.034 14.213 19.035 14.151V14.131C19.0309 14.1047 19.0174 14.0808 18.997 14.0637C18.9765 14.0466 18.9506 14.0375 18.924 14.038ZM19.486 14.038C19.456 14.038 19.4273 14.0499 19.4061 14.0711C19.3849 14.0923 19.373 14.121 19.373 14.151C19.373 14.213 19.424 14.265 19.486 14.265C19.548 14.265 19.596 14.213 19.598 14.151V14.144C19.5965 14.1154 19.584 14.0884 19.5631 14.0687C19.5423 14.0489 19.5147 14.038 19.486 14.038ZM20.049 14.038C20.019 14.038 19.9903 14.0499 19.9691 14.0711C19.9479 14.0923 19.936 14.121 19.936 14.151C19.936 14.213 19.986 14.265 20.049 14.265C20.11 14.265 20.159 14.213 20.16 14.151V14.144C20.1585 14.1155 20.1461 14.0887 20.1255 14.069C20.1049 14.0493 20.0775 14.0382 20.049 14.038ZM20.611 14.038C20.581 14.038 20.5523 14.0499 20.5311 14.0711C20.5099 14.0923 20.498 14.121 20.498 14.151C20.498 14.213 20.549 14.265 20.611 14.265C20.673 14.265 20.721 14.213 20.723 14.151V14.144C20.7215 14.1154 20.709 14.0884 20.6881 14.0687C20.6673 14.0489 20.6397 14.038 20.611 14.038ZM21.174 14.038C21.144 14.038 21.1153 14.0499 21.0941 14.0711C21.0729 14.0923 21.061 14.121 21.061 14.151C21.061 14.213 21.111 14.265 21.174 14.265C21.235 14.265 21.284 14.213 21.285 14.151V14.144C21.2835 14.1155 21.2711 14.0887 21.2505 14.069C21.2299 14.0493 21.2025 14.0382 21.174 14.038ZM21.734 14.038C21.7193 14.0381 21.7047 14.0412 21.6912 14.0469C21.6777 14.0527 21.6654 14.061 21.6551 14.0715C21.6448 14.082 21.6366 14.0944 21.6311 14.1081C21.6256 14.1217 21.6229 14.1363 21.623 14.151C21.623 14.213 21.673 14.264 21.734 14.265C21.749 14.265 21.7638 14.2621 21.7776 14.2563C21.7915 14.2506 21.804 14.2422 21.8146 14.2316C21.8252 14.221 21.8336 14.2085 21.8393 14.1946C21.845 14.1808 21.848 14.166 21.848 14.151V14.144C21.8464 14.115 21.8337 14.0878 21.8124 14.068C21.7912 14.0482 21.763 14.0375 21.734 14.038ZM22.297 14.038C22.2823 14.0381 22.2677 14.0412 22.2542 14.0469C22.2407 14.0527 22.2284 14.061 22.2181 14.0715C22.2078 14.082 22.1996 14.0944 22.1941 14.1081C22.1886 14.1217 22.1859 14.1363 22.186 14.151C22.186 14.213 22.236 14.264 22.296 14.265C22.311 14.265 22.3258 14.2621 22.3396 14.2563C22.3535 14.2506 22.366 14.2422 22.3766 14.2316C22.3872 14.221 22.3956 14.2085 22.4013 14.1946C22.407 14.1808 22.41 14.166 22.41 14.151V14.144C22.4084 14.1152 22.3958 14.0881 22.3748 14.0683C22.3537 14.0486 22.3259 14.0377 22.297 14.038ZM22.859 14.038C22.8443 14.0381 22.8297 14.0412 22.8162 14.0469C22.8027 14.0527 22.7904 14.061 22.7801 14.0715C22.7698 14.082 22.7616 14.0944 22.7561 14.1081C22.7506 14.1217 22.7479 14.1363 22.748 14.151C22.748 14.213 22.798 14.264 22.859 14.265C22.921 14.265 22.972 14.214 22.973 14.151C22.9731 14.1361 22.9703 14.1212 22.9646 14.1074C22.9589 14.0935 22.9505 14.081 22.9398 14.0705C22.9292 14.0599 22.9166 14.0516 22.9027 14.0461C22.8888 14.0405 22.874 14.0377 22.859 14.038ZM23.422 14.038C23.4073 14.0381 23.3927 14.0412 23.3792 14.0469C23.3657 14.0527 23.3534 14.061 23.3431 14.0715C23.3328 14.082 23.3246 14.0944 23.3191 14.1081C23.3136 14.1217 23.3109 14.1363 23.311 14.151C23.311 14.213 23.361 14.264 23.421 14.265C23.483 14.265 23.533 14.213 23.533 14.151V14.131C23.5287 14.1048 23.5151 14.081 23.4947 14.0639C23.4744 14.0469 23.4486 14.0377 23.422 14.038ZM23.984 14.038C23.9691 14.0379 23.9544 14.0407 23.9406 14.0463C23.9268 14.052 23.9143 14.0603 23.9038 14.0708C23.8933 14.0813 23.885 14.0938 23.8793 14.1076C23.8737 14.1214 23.8709 14.1361 23.871 14.151C23.871 14.213 23.922 14.265 23.984 14.265C24.046 14.265 24.094 14.213 24.096 14.151V14.131C24.0919 14.1045 24.0782 14.0805 24.0576 14.0633C24.037 14.0462 24.0108 14.0372 23.984 14.038ZM24.547 14.038C24.5321 14.0379 24.5174 14.0407 24.5036 14.0463C24.4898 14.052 24.4773 14.0603 24.4668 14.0708C24.4563 14.0813 24.448 14.0938 24.4423 14.1076C24.4367 14.1214 24.4339 14.1361 24.434 14.151C24.434 14.213 24.484 14.265 24.547 14.265C24.608 14.265 24.657 14.213 24.658 14.151V14.144C24.6565 14.1155 24.6441 14.0887 24.6235 14.069C24.6029 14.0493 24.5755 14.0382 24.547 14.038ZM25.109 14.038C25.0941 14.0379 25.0794 14.0407 25.0656 14.0463C25.0518 14.052 25.0393 14.0603 25.0288 14.0708C25.0183 14.0813 25.01 14.0938 25.0043 14.1076C24.9987 14.1214 24.9959 14.1361 24.996 14.151C24.996 14.213 25.047 14.265 25.109 14.265C25.171 14.265 25.219 14.213 25.221 14.151V14.144C25.2195 14.1154 25.207 14.0884 25.1861 14.0687C25.1653 14.0489 25.1377 14.038 25.109 14.038ZM25.669 14.038C25.6395 14.0385 25.6113 14.0507 25.5907 14.0719C25.5701 14.093 25.5587 14.1215 25.559 14.151C25.559 14.213 25.609 14.264 25.669 14.265C25.684 14.265 25.6988 14.2621 25.7126 14.2563C25.7265 14.2506 25.739 14.2422 25.7496 14.2316C25.7602 14.221 25.7686 14.2085 25.7743 14.1946C25.78 14.1808 25.783 14.166 25.783 14.151V14.144C25.7815 14.1152 25.7688 14.0881 25.7478 14.0683C25.7267 14.0486 25.6989 14.0377 25.67 14.038H25.669ZM26.232 14.038C26.2025 14.0385 26.1743 14.0507 26.1537 14.0719C26.1331 14.093 26.1217 14.1215 26.122 14.151C26.122 14.213 26.171 14.264 26.232 14.265C26.247 14.265 26.2618 14.2621 26.2756 14.2563C26.2895 14.2506 26.302 14.2422 26.3126 14.2316C26.3232 14.221 26.3316 14.2085 26.3373 14.1946C26.343 14.1808 26.346 14.166 26.346 14.151V14.144C26.3444 14.115 26.3317 14.0878 26.3104 14.068C26.2892 14.0482 26.261 14.0375 26.232 14.038ZM26.795 14.038C26.7803 14.0381 26.7657 14.0412 26.7522 14.0469C26.7387 14.0527 26.7264 14.061 26.7161 14.0715C26.7058 14.082 26.6976 14.0944 26.6921 14.1081C26.6866 14.1217 26.6839 14.1363 26.684 14.151C26.684 14.213 26.734 14.264 26.794 14.265C26.809 14.265 26.8238 14.2621 26.8376 14.2563C26.8515 14.2506 26.864 14.2422 26.8746 14.2316C26.8852 14.221 26.8936 14.2085 26.8993 14.1946C26.905 14.1808 26.908 14.166 26.908 14.151V14.144C26.9065 14.1152 26.8938 14.0881 26.8728 14.0683C26.8517 14.0486 26.8239 14.0377 26.795 14.038ZM27.357 14.038C27.3275 14.0385 27.2993 14.0507 27.2787 14.0719C27.2581 14.093 27.2467 14.1215 27.247 14.151C27.247 14.213 27.296 14.264 27.357 14.265C27.419 14.265 27.47 14.214 27.471 14.151C27.4711 14.1361 27.4683 14.1212 27.4626 14.1074C27.4569 14.0935 27.4485 14.081 27.4378 14.0705C27.4272 14.0599 27.4146 14.0516 27.4007 14.0461C27.3868 14.0405 27.372 14.0377 27.357 14.038ZM27.92 14.038C27.9053 14.0381 27.8907 14.0412 27.8772 14.0469C27.8637 14.0527 27.8514 14.061 27.8411 14.0715C27.8308 14.082 27.8226 14.0944 27.8171 14.1081C27.8116 14.1217 27.8089 14.1363 27.809 14.151C27.809 14.213 27.859 14.264 27.919 14.265C27.981 14.265 28.03 14.213 28.031 14.151V14.131C28.0269 14.1047 28.0134 14.0808 27.993 14.0637C27.9725 14.0466 27.9466 14.0375 27.92 14.038ZM28.482 14.038C28.452 14.038 28.4233 14.0499 28.4021 14.0711C28.3809 14.0923 28.369 14.121 28.369 14.151C28.369 14.213 28.42 14.265 28.482 14.265C28.544 14.265 28.593 14.213 28.594 14.151V14.144C28.5925 14.1154 28.58 14.0884 28.5591 14.0687C28.5383 14.0489 28.5107 14.038 28.482 14.038ZM29.045 14.038C29.015 14.038 28.9863 14.0499 28.9651 14.0711C28.9439 14.0923 28.932 14.121 28.932 14.151C28.932 14.213 28.982 14.265 29.045 14.265C29.106 14.265 29.155 14.213 29.156 14.151V14.144C29.1545 14.1155 29.1421 14.0887 29.1215 14.069C29.1009 14.0493 29.0735 14.0382 29.045 14.038ZM29.607 14.038C29.577 14.038 29.5483 14.0499 29.5271 14.0711C29.5059 14.0923 29.494 14.121 29.494 14.151C29.494 14.213 29.545 14.265 29.607 14.265C29.669 14.265 29.718 14.213 29.719 14.151V14.144C29.7175 14.1154 29.705 14.0884 29.6841 14.0687C29.6633 14.0489 29.6357 14.038 29.607 14.038ZM30.168 14.038C30.1533 14.0381 30.1387 14.0412 30.1252 14.0469C30.1117 14.0527 30.0994 14.061 30.0891 14.0715C30.0788 14.082 30.0706 14.0944 30.0651 14.1081C30.0596 14.1217 30.0569 14.1363 30.057 14.151C30.057 14.213 30.107 14.264 30.168 14.265C30.1981 14.2648 30.2268 14.2526 30.248 14.2313C30.2691 14.2099 30.281 14.1811 30.281 14.151V14.144C30.2794 14.1152 30.2668 14.0881 30.2458 14.0683C30.2247 14.0486 30.1969 14.0377 30.168 14.038ZM30.731 14.038C30.7162 14.038 30.7016 14.0409 30.6879 14.0466C30.6742 14.0523 30.6619 14.0607 30.6514 14.0712C30.641 14.0817 30.6328 14.0941 30.6272 14.1078C30.6217 14.1216 30.6189 14.1362 30.619 14.151C30.619 14.213 30.669 14.264 30.73 14.265C30.745 14.265 30.7598 14.2621 30.7736 14.2563C30.7875 14.2506 30.8 14.2422 30.8106 14.2316C30.8212 14.221 30.8296 14.2085 30.8353 14.1946C30.841 14.1808 30.844 14.166 30.844 14.151V14.144C30.8424 14.115 30.8297 14.0878 30.8084 14.068C30.7872 14.0482 30.759 14.0375 30.73 14.038H30.731ZM31.293 14.038C31.2783 14.0381 31.2637 14.0412 31.2502 14.0469C31.2367 14.0527 31.2244 14.061 31.2141 14.0715C31.2038 14.082 31.1956 14.0944 31.1901 14.1081C31.1846 14.1217 31.1819 14.1363 31.182 14.151C31.182 14.213 31.232 14.264 31.293 14.265C31.3231 14.2648 31.3518 14.2526 31.373 14.2313C31.3941 14.2099 31.406 14.1811 31.406 14.151V14.144C31.4044 14.1152 31.3918 14.0881 31.3708 14.0683C31.3497 14.0486 31.3219 14.0377 31.293 14.038ZM31.856 14.038C31.8412 14.038 31.8266 14.0409 31.8129 14.0466C31.7992 14.0523 31.7869 14.0607 31.7764 14.0712C31.766 14.0817 31.7578 14.0941 31.7522 14.1078C31.7467 14.1216 31.7439 14.1362 31.744 14.151C31.744 14.213 31.794 14.264 31.855 14.265C31.917 14.265 31.966 14.213 31.967 14.151V14.131C31.9629 14.1047 31.9494 14.0808 31.929 14.0637C31.9085 14.0466 31.8826 14.0375 31.856 14.038ZM32.418 14.038C32.4031 14.0379 32.3884 14.0407 32.3746 14.0463C32.3608 14.052 32.3483 14.0603 32.3378 14.0708C32.3273 14.0813 32.319 14.0938 32.3133 14.1076C32.3077 14.1214 32.3049 14.1361 32.305 14.151C32.305 14.213 32.356 14.265 32.418 14.265C32.479 14.265 32.528 14.213 32.529 14.151V14.131C32.5249 14.1047 32.5114 14.0808 32.491 14.0637C32.4705 14.0466 32.4446 14.0375 32.418 14.038ZM32.981 14.038C32.966 14.0377 32.9512 14.0405 32.9373 14.0461C32.9234 14.0516 32.9108 14.0599 32.9001 14.0705C32.8895 14.081 32.8811 14.0935 32.8754 14.1074C32.8697 14.1212 32.8669 14.1361 32.867 14.151C32.867 14.213 32.919 14.265 32.981 14.265C33.041 14.265 33.091 14.213 33.091 14.151V14.144C33.0895 14.1157 33.0773 14.089 33.0569 14.0694C33.0365 14.0497 33.0093 14.0385 32.981 14.038ZM33.543 14.038C33.5281 14.0379 33.5134 14.0407 33.4996 14.0463C33.4858 14.052 33.4733 14.0603 33.4628 14.0708C33.4523 14.0813 33.444 14.0938 33.4383 14.1076C33.4327 14.1214 33.4299 14.1361 33.43 14.151C33.43 14.213 33.481 14.265 33.543 14.265C33.604 14.265 33.653 14.213 33.654 14.151V14.144C33.6525 14.1155 33.6401 14.0887 33.6195 14.069C33.5989 14.0493 33.5715 14.0382 33.543 14.038ZM34.106 14.038C34.091 14.0377 34.0762 14.0405 34.0623 14.0461C34.0484 14.0516 34.0358 14.0599 34.0251 14.0705C34.0145 14.081 34.0061 14.0935 34.0004 14.1074C33.9947 14.1212 33.9919 14.1361 33.992 14.151C33.992 14.213 34.044 14.265 34.106 14.265C34.166 14.265 34.216 14.213 34.216 14.151V14.144C34.2145 14.1157 34.2023 14.089 34.1819 14.0694C34.1615 14.0497 34.1343 14.0385 34.106 14.038ZM34.666 14.038C34.6513 14.0381 34.6367 14.0412 34.6232 14.0469C34.6097 14.0527 34.5974 14.061 34.5871 14.0715C34.5768 14.082 34.5686 14.0944 34.5631 14.1081C34.5576 14.1217 34.5549 14.1363 34.555 14.151C34.555 14.213 34.605 14.264 34.666 14.265C34.6961 14.2648 34.7248 14.2526 34.746 14.2313C34.7671 14.2099 34.779 14.1811 34.779 14.151V14.144C34.7774 14.1152 34.7648 14.0881 34.7438 14.0683C34.7227 14.0486 34.6949 14.0377 34.666 14.038ZM17.299 15.716V15.718C17.1744 15.7199 17.0514 15.7464 16.9371 15.796C16.8228 15.8456 16.7195 15.9173 16.633 16.007L14.824 17.864C14.7371 17.9533 14.6688 18.0588 14.6228 18.1746C14.5769 18.2904 14.5543 18.4141 14.5564 18.5386C14.5584 18.6631 14.5851 18.786 14.6348 18.9002C14.6845 19.0144 14.7563 19.1177 14.846 19.204C14.935 19.2912 15.0404 19.36 15.1561 19.4062C15.2718 19.4525 15.3956 19.4753 15.5202 19.4735C15.6448 19.4716 15.7678 19.4451 15.8821 19.3954C15.9963 19.3457 16.0996 19.2739 16.186 19.184L17.994 17.325C18.0809 17.2358 18.1494 17.1303 18.1954 17.0146C18.2414 16.8989 18.2641 16.7752 18.2621 16.6507C18.2602 16.5261 18.2336 16.4032 18.184 16.289C18.1344 16.1747 18.0627 16.0714 17.973 15.985C17.884 15.8978 17.7786 15.829 17.663 15.7827C17.5473 15.7364 17.4236 15.7134 17.299 15.715V15.716ZM21.299 15.716V15.718C21.1744 15.7199 21.0514 15.7464 20.9371 15.796C20.8228 15.8456 20.7195 15.9173 20.633 16.007L18.824 17.864C18.7371 17.9533 18.6688 18.0588 18.6228 18.1746C18.5769 18.2904 18.5543 18.4141 18.5564 18.5386C18.5584 18.6631 18.5851 18.786 18.6348 18.9002C18.6845 19.0144 18.7563 19.1177 18.846 19.204C18.935 19.2912 19.0404 19.36 19.1561 19.4062C19.2718 19.4525 19.3956 19.4753 19.5202 19.4735C19.6448 19.4716 19.7678 19.4451 19.8821 19.3954C19.9963 19.3457 20.0996 19.2739 20.186 19.184L21.994 17.325C22.0809 17.2358 22.1494 17.1303 22.1954 17.0146C22.2414 16.8989 22.2641 16.7752 22.2621 16.6507C22.2602 16.5261 22.2336 16.4032 22.184 16.289C22.1344 16.1747 22.0627 16.0714 21.973 15.985C21.884 15.8978 21.7786 15.829 21.663 15.7827C21.5473 15.7364 21.4236 15.7134 21.299 15.715V15.716ZM25.299 15.716V15.718C25.1744 15.7199 25.0514 15.7464 24.9371 15.796C24.8228 15.8456 24.7195 15.9173 24.633 16.007L22.824 17.864C22.7371 17.9533 22.6688 18.0588 22.6228 18.1746C22.5769 18.2904 22.5543 18.4141 22.5564 18.5386C22.5584 18.6631 22.5851 18.786 22.6348 18.9002C22.6845 19.0144 22.7563 19.1177 22.846 19.204C22.935 19.2912 23.0404 19.36 23.1561 19.4062C23.2718 19.4525 23.3956 19.4753 23.5202 19.4735C23.6448 19.4716 23.7678 19.4451 23.8821 19.3954C23.9963 19.3457 24.0996 19.2739 24.186 19.184L25.994 17.325C26.0809 17.2358 26.1494 17.1303 26.1954 17.0146C26.2414 16.8989 26.2641 16.7752 26.2621 16.6507C26.2602 16.5261 26.2336 16.4032 26.184 16.289C26.1344 16.1747 26.0627 16.0714 25.973 15.985C25.884 15.8978 25.7786 15.829 25.663 15.7827C25.5473 15.7364 25.4236 15.7134 25.299 15.715V15.716ZM29.299 15.716V15.718C29.1744 15.7199 29.0514 15.7464 28.9371 15.796C28.8228 15.8456 28.7195 15.9173 28.633 16.007L26.824 17.864C26.7371 17.9533 26.6688 18.0588 26.6228 18.1746C26.5769 18.2904 26.5543 18.4141 26.5564 18.5386C26.5584 18.6631 26.5851 18.786 26.6348 18.9002C26.6845 19.0144 26.7563 19.1177 26.846 19.204C26.935 19.2912 27.0404 19.36 27.1561 19.4062C27.2718 19.4525 27.3956 19.4753 27.5202 19.4735C27.6448 19.4716 27.7678 19.4451 27.8821 19.3954C27.9963 19.3457 28.0996 19.2739 28.186 19.184L29.994 17.325C30.0809 17.2358 30.1494 17.1303 30.1954 17.0146C30.2414 16.8989 30.2641 16.7752 30.2621 16.6507C30.2602 16.5261 30.2336 16.4032 30.184 16.289C30.1344 16.1747 30.0627 16.0714 29.973 15.985C29.884 15.8978 29.7786 15.829 29.663 15.7827C29.5473 15.7364 29.4236 15.7134 29.299 15.715V15.716ZM33.012 15.716V15.718C32.8874 15.7199 32.7644 15.7464 32.6501 15.796C32.5358 15.8456 32.4325 15.9173 32.346 16.007L30.537 17.864C30.4501 17.9533 30.3818 18.0588 30.3358 18.1746C30.2899 18.2904 30.2673 18.4141 30.2694 18.5386C30.2714 18.6631 30.2981 18.786 30.3478 18.9002C30.3975 19.0144 30.4692 19.1177 30.559 19.204C30.648 19.2912 30.7534 19.36 30.8691 19.4062C30.9848 19.4525 31.1086 19.4753 31.2332 19.4735C31.3578 19.4716 31.4808 19.4451 31.5951 19.3954C31.7093 19.3457 31.8126 19.2739 31.899 19.184L33.707 17.325C33.7939 17.2358 33.8622 17.1302 33.9081 17.0144C33.9541 16.8987 33.9767 16.775 33.9746 16.6504C33.9726 16.5259 33.9459 16.403 33.8962 16.2888C33.8465 16.1746 33.7747 16.0714 33.685 15.985C33.5961 15.8979 33.4909 15.8292 33.3754 15.7829C33.2599 15.7366 33.1364 15.7135 33.012 15.715V15.716ZM17.363 16.2C17.4545 16.2084 17.5409 16.2463 17.609 16.308C18.016 16.669 17.534 17.093 17.359 17.276L16.494 18.181C15.887 18.812 15.623 19.239 15.199 18.831C14.839 18.458 15.156 18.235 15.844 17.536L16.709 16.634C16.914 16.433 17.127 16.189 17.363 16.2ZM21.363 16.2C21.4545 16.2084 21.5409 16.2463 21.609 16.308C22.016 16.669 21.534 17.093 21.359 17.276L20.494 18.181C19.887 18.812 19.623 19.239 19.199 18.831C18.839 18.458 19.155 18.235 19.844 17.536L20.709 16.634C20.914 16.433 21.127 16.189 21.363 16.2ZM25.363 16.2C25.4545 16.2084 25.5409 16.2463 25.609 16.308C26.016 16.669 25.534 17.093 25.359 17.276L24.494 18.181C23.887 18.812 23.623 19.239 23.199 18.831C22.839 18.458 23.155 18.235 23.844 17.536L24.709 16.634C24.914 16.433 25.127 16.189 25.363 16.2ZM29.363 16.2C29.4545 16.2084 29.5409 16.2463 29.609 16.308C30.016 16.669 29.534 17.093 29.359 17.276L28.494 18.181C27.887 18.812 27.623 19.239 27.199 18.831C26.839 18.458 27.155 18.235 27.844 17.536L28.709 16.634C28.914 16.433 29.127 16.189 29.363 16.2ZM33.076 16.2C33.1675 16.2084 33.2539 16.2463 33.322 16.308C33.729 16.669 33.247 17.093 33.072 17.276L32.207 18.181C31.6 18.812 31.336 19.239 30.912 18.831C30.552 18.458 30.868 18.235 31.557 17.536L32.422 16.634C32.627 16.433 32.84 16.189 33.076 16.2ZM13.863 20.667C13.8483 20.6671 13.8337 20.6702 13.8202 20.6759C13.8067 20.6817 13.7944 20.69 13.7841 20.7005C13.7738 20.711 13.7656 20.7234 13.7601 20.7371C13.7546 20.7507 13.7519 20.7653 13.752 20.78C13.752 20.841 13.802 20.893 13.863 20.894C13.925 20.894 13.976 20.843 13.977 20.78C13.977 20.7651 13.974 20.7503 13.9683 20.7365C13.9626 20.7228 13.9541 20.7103 13.9435 20.6998C13.9329 20.6893 13.9204 20.6809 13.9065 20.6753C13.8927 20.6697 13.8779 20.6669 13.863 20.667ZM14.426 20.667C14.3959 20.667 14.3671 20.6789 14.3457 20.7001C14.3244 20.7212 14.3123 20.75 14.312 20.78C14.313 20.841 14.364 20.893 14.426 20.894C14.487 20.894 14.536 20.841 14.537 20.78V20.76C14.5329 20.7337 14.5194 20.7098 14.499 20.6927C14.4785 20.6756 14.4526 20.6665 14.426 20.667ZM14.988 20.667C14.9731 20.6669 14.9584 20.6697 14.9446 20.6753C14.9308 20.681 14.9183 20.6893 14.9078 20.6998C14.8973 20.7103 14.889 20.7228 14.8833 20.7366C14.8777 20.7504 14.8749 20.7651 14.875 20.78C14.875 20.842 14.926 20.894 14.988 20.894C15.05 20.894 15.098 20.841 15.1 20.78V20.76C15.0959 20.7335 15.0822 20.7095 15.0616 20.6923C15.041 20.6752 15.0148 20.6662 14.988 20.667ZM15.551 20.667C15.536 20.6667 15.5212 20.6695 15.5073 20.6751C15.4934 20.6806 15.4808 20.6889 15.4701 20.6995C15.4595 20.71 15.4511 20.7225 15.4454 20.7364C15.4397 20.7502 15.4369 20.7651 15.437 20.78C15.438 20.842 15.489 20.894 15.551 20.894C15.612 20.894 15.661 20.841 15.662 20.78V20.772C15.6602 20.7437 15.6478 20.7171 15.6272 20.6977C15.6066 20.6782 15.5794 20.6672 15.551 20.667ZM16.113 20.667C16.0981 20.6669 16.0834 20.6697 16.0696 20.6753C16.0558 20.681 16.0433 20.6893 16.0328 20.6998C16.0223 20.7103 16.014 20.7228 16.0083 20.7366C16.0027 20.7504 15.9999 20.7651 16 20.78C16 20.842 16.051 20.894 16.113 20.894C16.174 20.894 16.223 20.841 16.225 20.78V20.772C16.2232 20.7435 16.2106 20.7168 16.1898 20.6973C16.169 20.6778 16.1415 20.667 16.113 20.667ZM16.676 20.667C16.6611 20.6669 16.6464 20.6697 16.6326 20.6753C16.6188 20.681 16.6063 20.6893 16.5958 20.6998C16.5853 20.7103 16.577 20.7228 16.5713 20.7366C16.5657 20.7504 16.5629 20.7651 16.563 20.78C16.563 20.842 16.613 20.894 16.676 20.894C16.737 20.894 16.786 20.841 16.787 20.78V20.772C16.7852 20.7437 16.7728 20.7171 16.7522 20.6977C16.7316 20.6782 16.7044 20.6672 16.676 20.667ZM17.236 20.667C17.2213 20.6671 17.2067 20.6702 17.1932 20.6759C17.1797 20.6817 17.1674 20.69 17.1571 20.7005C17.1468 20.711 17.1386 20.7234 17.1331 20.7371C17.1276 20.7507 17.1249 20.7653 17.125 20.78C17.125 20.841 17.175 20.893 17.236 20.894C17.2662 20.894 17.2952 20.882 17.3166 20.8606C17.338 20.8392 17.35 20.8103 17.35 20.78V20.772C17.3482 20.7432 17.3353 20.7162 17.3141 20.6966C17.2928 20.677 17.2649 20.6664 17.236 20.667ZM17.799 20.667C17.7843 20.6671 17.7697 20.6702 17.7562 20.6759C17.7427 20.6817 17.7304 20.69 17.7201 20.7005C17.7098 20.711 17.7016 20.7234 17.6961 20.7371C17.6906 20.7507 17.6879 20.7653 17.688 20.78C17.688 20.841 17.738 20.893 17.798 20.894C17.8282 20.894 17.8572 20.882 17.8786 20.8606C17.9 20.8392 17.912 20.8103 17.912 20.78V20.772C17.9102 20.7434 17.8975 20.7165 17.8765 20.697C17.8554 20.6774 17.8277 20.6667 17.799 20.667ZM18.361 20.667C18.3463 20.6671 18.3317 20.6702 18.3182 20.6759C18.3047 20.6817 18.2924 20.69 18.2821 20.7005C18.2718 20.711 18.2636 20.7234 18.2581 20.7371C18.2526 20.7507 18.2499 20.7653 18.25 20.78C18.25 20.841 18.3 20.893 18.361 20.894C18.3912 20.894 18.4202 20.882 18.4416 20.8606C18.463 20.8392 18.475 20.8103 18.475 20.78V20.772C18.4732 20.7432 18.4603 20.7162 18.4391 20.6966C18.4178 20.677 18.3899 20.6664 18.361 20.667ZM18.924 20.667C18.9093 20.6671 18.8947 20.6702 18.8812 20.6759C18.8677 20.6817 18.8554 20.69 18.8451 20.7005C18.8348 20.711 18.8266 20.7234 18.8211 20.7371C18.8156 20.7507 18.8129 20.7653 18.813 20.78C18.813 20.841 18.863 20.893 18.923 20.894C18.985 20.894 19.034 20.841 19.035 20.78V20.76C19.0309 20.7337 19.0174 20.7098 18.997 20.6927C18.9765 20.6756 18.9506 20.6665 18.924 20.667ZM19.486 20.667C19.456 20.667 19.4273 20.6789 19.4061 20.7001C19.3849 20.7213 19.373 20.75 19.373 20.78C19.373 20.842 19.424 20.894 19.486 20.894C19.548 20.894 19.596 20.841 19.598 20.78V20.772C19.5962 20.7435 19.5836 20.7168 19.5628 20.6973C19.542 20.6778 19.5145 20.667 19.486 20.667ZM20.049 20.667C20.019 20.667 19.9903 20.6789 19.9691 20.7001C19.9479 20.7213 19.936 20.75 19.936 20.78C19.936 20.842 19.986 20.894 20.049 20.894C20.11 20.894 20.159 20.841 20.16 20.78V20.772C20.1582 20.7437 20.1458 20.7171 20.1252 20.6977C20.1046 20.6782 20.0774 20.6672 20.049 20.667ZM20.611 20.667C20.581 20.667 20.5523 20.6789 20.5311 20.7001C20.5099 20.7213 20.498 20.75 20.498 20.78C20.498 20.842 20.549 20.894 20.611 20.894C20.673 20.894 20.721 20.841 20.723 20.78V20.772C20.7212 20.7435 20.7086 20.7168 20.6878 20.6973C20.667 20.6778 20.6395 20.667 20.611 20.667ZM21.174 20.667C21.144 20.667 21.1153 20.6789 21.0941 20.7001C21.0729 20.7213 21.061 20.75 21.061 20.78C21.061 20.842 21.111 20.894 21.174 20.894C21.235 20.894 21.284 20.841 21.285 20.78V20.772C21.2832 20.7437 21.2708 20.7171 21.2502 20.6977C21.2296 20.6782 21.2024 20.6672 21.174 20.667ZM21.734 20.667C21.7193 20.6671 21.7047 20.6702 21.6912 20.6759C21.6777 20.6817 21.6654 20.69 21.6551 20.7005C21.6448 20.711 21.6366 20.7234 21.6311 20.7371C21.6256 20.7507 21.6229 20.7653 21.623 20.78C21.623 20.841 21.673 20.893 21.734 20.894C21.7642 20.894 21.7932 20.882 21.8146 20.8606C21.836 20.8392 21.848 20.8103 21.848 20.78V20.772C21.8462 20.7432 21.8333 20.7162 21.8121 20.6966C21.7908 20.677 21.7629 20.6664 21.734 20.667ZM22.297 20.667C22.2823 20.6671 22.2677 20.6702 22.2542 20.6759C22.2407 20.6817 22.2284 20.69 22.2181 20.7005C22.2078 20.711 22.1996 20.7234 22.1941 20.7371C22.1886 20.7507 22.1859 20.7653 22.186 20.78C22.186 20.841 22.236 20.893 22.296 20.894C22.3262 20.894 22.3552 20.882 22.3766 20.8606C22.398 20.8392 22.41 20.8103 22.41 20.78V20.772C22.4082 20.7434 22.3955 20.7165 22.3745 20.697C22.3534 20.6774 22.3257 20.6667 22.297 20.667ZM22.859 20.667C22.8443 20.6671 22.8297 20.6702 22.8162 20.6759C22.8027 20.6817 22.7904 20.69 22.7801 20.7005C22.7698 20.711 22.7616 20.7234 22.7561 20.7371C22.7506 20.7507 22.7479 20.7653 22.748 20.78C22.748 20.841 22.798 20.893 22.859 20.894C22.921 20.894 22.972 20.843 22.973 20.78C22.973 20.7651 22.97 20.7503 22.9643 20.7365C22.9586 20.7228 22.9501 20.7103 22.9395 20.6998C22.9289 20.6893 22.9164 20.6809 22.9025 20.6753C22.8887 20.6697 22.8739 20.6669 22.859 20.667ZM23.422 20.667C23.4073 20.6671 23.3927 20.6702 23.3792 20.6759C23.3657 20.6817 23.3534 20.69 23.3431 20.7005C23.3328 20.711 23.3246 20.7234 23.3191 20.7371C23.3136 20.7507 23.3109 20.7653 23.311 20.78C23.311 20.841 23.361 20.893 23.421 20.894C23.483 20.894 23.533 20.841 23.533 20.78V20.76C23.5287 20.7338 23.5151 20.71 23.4947 20.6929C23.4744 20.6759 23.4486 20.6667 23.422 20.667ZM23.984 20.667C23.9691 20.6669 23.9544 20.6697 23.9406 20.6753C23.9268 20.681 23.9143 20.6893 23.9038 20.6998C23.8933 20.7103 23.885 20.7228 23.8793 20.7366C23.8737 20.7504 23.8709 20.7651 23.871 20.78C23.871 20.842 23.922 20.894 23.984 20.894C24.046 20.894 24.094 20.841 24.096 20.78V20.76C24.0919 20.7335 24.0782 20.7095 24.0576 20.6923C24.037 20.6752 24.0108 20.6662 23.984 20.667ZM24.547 20.667C24.5321 20.6669 24.5174 20.6697 24.5036 20.6753C24.4898 20.681 24.4773 20.6893 24.4668 20.6998C24.4563 20.7103 24.448 20.7228 24.4423 20.7366C24.4367 20.7504 24.4339 20.7651 24.434 20.78C24.434 20.842 24.484 20.894 24.547 20.894C24.608 20.894 24.657 20.841 24.658 20.78V20.772C24.6562 20.7437 24.6438 20.7171 24.6232 20.6977C24.6026 20.6782 24.5754 20.6672 24.547 20.667ZM25.109 20.667C25.0941 20.6669 25.0794 20.6697 25.0656 20.6753C25.0518 20.681 25.0393 20.6893 25.0288 20.6998C25.0183 20.7103 25.01 20.7228 25.0043 20.7366C24.9987 20.7504 24.9959 20.7651 24.996 20.78C24.996 20.842 25.047 20.894 25.109 20.894C25.171 20.894 25.219 20.841 25.221 20.78V20.772C25.2192 20.7435 25.2066 20.7168 25.1858 20.6973C25.165 20.6778 25.1375 20.667 25.109 20.667ZM25.669 20.667C25.6395 20.6675 25.6113 20.6797 25.5907 20.7009C25.5701 20.722 25.5587 20.7505 25.559 20.78C25.559 20.841 25.609 20.893 25.669 20.894C25.6992 20.894 25.7282 20.882 25.7496 20.8606C25.771 20.8392 25.783 20.8103 25.783 20.78V20.772C25.7812 20.7434 25.7685 20.7165 25.7475 20.697C25.7264 20.6774 25.6987 20.6667 25.67 20.667H25.669ZM26.232 20.667C26.2025 20.6675 26.1743 20.6797 26.1537 20.7009C26.1331 20.722 26.1217 20.7505 26.122 20.78C26.122 20.841 26.171 20.893 26.232 20.894C26.2622 20.894 26.2912 20.882 26.3126 20.8606C26.334 20.8392 26.346 20.8103 26.346 20.78V20.772C26.3442 20.7432 26.3313 20.7162 26.3101 20.6966C26.2888 20.677 26.2609 20.6664 26.232 20.667ZM26.795 20.667C26.7803 20.6671 26.7657 20.6702 26.7522 20.6759C26.7387 20.6817 26.7264 20.69 26.7161 20.7005C26.7058 20.711 26.6976 20.7234 26.6921 20.7371C26.6866 20.7507 26.6839 20.7653 26.684 20.78C26.684 20.841 26.734 20.893 26.794 20.894C26.8242 20.894 26.8532 20.882 26.8746 20.8606C26.896 20.8392 26.908 20.8103 26.908 20.78V20.772C26.9062 20.7434 26.8935 20.7165 26.8725 20.697C26.8514 20.6774 26.8237 20.6667 26.795 20.667ZM27.357 20.667C27.3275 20.6675 27.2993 20.6797 27.2787 20.7009C27.2581 20.722 27.2467 20.7505 27.247 20.78C27.247 20.841 27.296 20.893 27.357 20.894C27.419 20.894 27.47 20.843 27.471 20.78C27.4711 20.7651 27.4683 20.7502 27.4626 20.7364C27.4569 20.7225 27.4485 20.71 27.4378 20.6995C27.4272 20.6889 27.4146 20.6806 27.4007 20.6751C27.3868 20.6695 27.372 20.6667 27.357 20.667ZM27.92 20.667C27.9053 20.6671 27.8907 20.6702 27.8772 20.6759C27.8637 20.6817 27.8514 20.69 27.8411 20.7005C27.8308 20.711 27.8226 20.7234 27.8171 20.7371C27.8116 20.7507 27.8089 20.7653 27.809 20.78C27.809 20.841 27.859 20.893 27.919 20.894C27.981 20.894 28.03 20.841 28.031 20.78V20.76C28.0269 20.7337 28.0134 20.7098 27.993 20.6927C27.9725 20.6756 27.9466 20.6665 27.92 20.667ZM28.482 20.667C28.452 20.667 28.4233 20.6789 28.4021 20.7001C28.3809 20.7213 28.369 20.75 28.369 20.78C28.369 20.842 28.42 20.894 28.482 20.894C28.544 20.894 28.593 20.841 28.594 20.78V20.772C28.5922 20.7435 28.5796 20.7168 28.5588 20.6973C28.538 20.6778 28.5105 20.667 28.482 20.667ZM29.045 20.667C29.015 20.667 28.9863 20.6789 28.9651 20.7001C28.9439 20.7213 28.932 20.75 28.932 20.78C28.932 20.842 28.982 20.894 29.045 20.894C29.106 20.894 29.155 20.841 29.156 20.78V20.772C29.1542 20.7437 29.1418 20.7171 29.1212 20.6977C29.1006 20.6782 29.0734 20.6672 29.045 20.667ZM29.607 20.667C29.577 20.667 29.5483 20.6789 29.5271 20.7001C29.5059 20.7213 29.494 20.75 29.494 20.78C29.494 20.842 29.545 20.894 29.607 20.894C29.669 20.894 29.718 20.841 29.719 20.78V20.772C29.7172 20.7435 29.7046 20.7168 29.6838 20.6973C29.663 20.6778 29.6355 20.667 29.607 20.667ZM30.168 20.667C30.1533 20.6671 30.1387 20.6702 30.1252 20.6759C30.1117 20.6817 30.0994 20.69 30.0891 20.7005C30.0788 20.711 30.0706 20.7234 30.0651 20.7371C30.0596 20.7507 30.0569 20.7653 30.057 20.78C30.057 20.841 30.107 20.893 30.168 20.894C30.1981 20.8938 30.2268 20.8816 30.248 20.8603C30.2691 20.8389 30.281 20.8101 30.281 20.78V20.772C30.2792 20.7434 30.2665 20.7165 30.2455 20.697C30.2244 20.6774 30.1967 20.6667 30.168 20.667ZM30.731 20.667C30.7162 20.667 30.7016 20.6699 30.6879 20.6756C30.6742 20.6813 30.6619 20.6897 30.6514 20.7002C30.641 20.7107 30.6328 20.7231 30.6272 20.7368C30.6217 20.7506 30.6189 20.7652 30.619 20.78C30.619 20.841 30.669 20.893 30.73 20.894C30.7602 20.894 30.7892 20.882 30.8106 20.8606C30.832 20.8392 30.844 20.8103 30.844 20.78V20.772C30.8422 20.7432 30.8293 20.7162 30.8081 20.6966C30.7868 20.677 30.7589 20.6664 30.73 20.667H30.731ZM31.293 20.667C31.2783 20.6671 31.2637 20.6702 31.2502 20.6759C31.2367 20.6817 31.2244 20.69 31.2141 20.7005C31.2038 20.711 31.1956 20.7234 31.1901 20.7371C31.1846 20.7507 31.1819 20.7653 31.182 20.78C31.182 20.841 31.232 20.893 31.293 20.894C31.3231 20.8938 31.3518 20.8816 31.373 20.8603C31.3941 20.8389 31.406 20.8101 31.406 20.78V20.772C31.4042 20.7434 31.3915 20.7165 31.3705 20.697C31.3494 20.6774 31.3217 20.6667 31.293 20.667ZM31.856 20.667C31.8412 20.667 31.8266 20.6699 31.8129 20.6756C31.7992 20.6813 31.7869 20.6897 31.7764 20.7002C31.766 20.7107 31.7578 20.7231 31.7522 20.7368C31.7467 20.7506 31.7439 20.7652 31.744 20.78C31.744 20.841 31.794 20.893 31.855 20.894C31.917 20.894 31.966 20.841 31.967 20.78V20.76C31.9629 20.7337 31.9494 20.7098 31.929 20.6927C31.9085 20.6756 31.8826 20.6665 31.856 20.667ZM32.418 20.667C32.4031 20.6669 32.3884 20.6697 32.3746 20.6753C32.3608 20.681 32.3483 20.6893 32.3378 20.6998C32.3273 20.7103 32.319 20.7228 32.3133 20.7366C32.3077 20.7504 32.3049 20.7651 32.305 20.78C32.305 20.842 32.356 20.894 32.418 20.894C32.479 20.894 32.528 20.841 32.529 20.78V20.76C32.5249 20.7337 32.5114 20.7098 32.491 20.6927C32.4705 20.6756 32.4446 20.6665 32.418 20.667ZM32.981 20.667C32.966 20.6667 32.9512 20.6695 32.9373 20.6751C32.9234 20.6806 32.9108 20.6889 32.9001 20.6995C32.8895 20.71 32.8811 20.7225 32.8754 20.7364C32.8697 20.7502 32.8669 20.7651 32.867 20.78C32.867 20.842 32.919 20.894 32.981 20.894C33.041 20.894 33.091 20.841 33.091 20.78V20.772C33.0892 20.7439 33.0769 20.7174 33.0565 20.698C33.0362 20.6785 33.0092 20.6675 32.981 20.667ZM33.543 20.667C33.5281 20.6669 33.5134 20.6697 33.4996 20.6753C33.4858 20.681 33.4733 20.6893 33.4628 20.6998C33.4523 20.7103 33.444 20.7228 33.4383 20.7366C33.4327 20.7504 33.4299 20.7651 33.43 20.78C33.43 20.842 33.481 20.894 33.543 20.894C33.604 20.894 33.653 20.841 33.654 20.78V20.772C33.6522 20.7437 33.6398 20.7171 33.6192 20.6977C33.5986 20.6782 33.5714 20.6672 33.543 20.667ZM34.106 20.667C34.091 20.6667 34.0762 20.6695 34.0623 20.6751C34.0484 20.6806 34.0358 20.6889 34.0251 20.6995C34.0145 20.71 34.0061 20.7225 34.0004 20.7364C33.9947 20.7502 33.9919 20.7651 33.992 20.78C33.992 20.842 34.044 20.894 34.106 20.894C34.166 20.894 34.216 20.841 34.216 20.78V20.772C34.2142 20.7439 34.2019 20.7174 34.1815 20.698C34.1612 20.6785 34.1342 20.6675 34.106 20.667ZM34.666 20.667C34.6513 20.6671 34.6367 20.6702 34.6232 20.6759C34.6097 20.6817 34.5974 20.69 34.5871 20.7005C34.5768 20.711 34.5686 20.7234 34.5631 20.7371C34.5576 20.7507 34.5549 20.7653 34.555 20.78C34.555 20.841 34.605 20.893 34.666 20.894C34.6961 20.8938 34.7248 20.8816 34.746 20.8603C34.7671 20.8389 34.779 20.8101 34.779 20.78V20.772C34.7772 20.7434 34.7645 20.7165 34.7435 20.697C34.7224 20.6774 34.6947 20.6667 34.666 20.667ZM17.299 22.216V22.218C17.1744 22.2199 17.0514 22.2464 16.9371 22.296C16.8228 22.3456 16.7195 22.4173 16.633 22.507L14.824 24.364C14.7371 24.4533 14.6688 24.5588 14.6228 24.6746C14.5769 24.7904 14.5543 24.9141 14.5564 25.0386C14.5584 25.1631 14.5851 25.286 14.6348 25.4002C14.6845 25.5144 14.7563 25.6177 14.846 25.704C14.935 25.7913 15.0404 25.86 15.1561 25.9062C15.2718 25.9525 15.3956 25.9753 15.5202 25.9735C15.6448 25.9716 15.7678 25.9451 15.8821 25.8954C15.9963 25.8457 16.0996 25.7739 16.186 25.684L17.994 23.825C18.0809 23.7358 18.1494 23.6303 18.1954 23.5146C18.2414 23.3989 18.2641 23.2752 18.2621 23.1507C18.2602 23.0261 18.2336 22.9032 18.184 22.789C18.1344 22.6747 18.0627 22.5714 17.973 22.485C17.884 22.3978 17.7786 22.329 17.663 22.2827C17.5473 22.2364 17.4236 22.2134 17.299 22.215V22.216ZM21.299 22.216V22.218C21.1744 22.2199 21.0514 22.2464 20.9371 22.296C20.8228 22.3456 20.7195 22.4173 20.633 22.507L18.824 24.364C18.7371 24.4533 18.6688 24.5588 18.6228 24.6746C18.5769 24.7904 18.5543 24.9141 18.5564 25.0386C18.5584 25.1631 18.5851 25.286 18.6348 25.4002C18.6845 25.5144 18.7563 25.6177 18.846 25.704C18.935 25.7913 19.0404 25.86 19.1561 25.9062C19.2718 25.9525 19.3956 25.9753 19.5202 25.9735C19.6448 25.9716 19.7678 25.9451 19.8821 25.8954C19.9963 25.8457 20.0996 25.7739 20.186 25.684L21.994 23.825C22.0809 23.7358 22.1494 23.6303 22.1954 23.5146C22.2414 23.3989 22.2641 23.2752 22.2621 23.1507C22.2602 23.0261 22.2336 22.9032 22.184 22.789C22.1344 22.6747 22.0627 22.5714 21.973 22.485C21.884 22.3978 21.7786 22.329 21.663 22.2827C21.5473 22.2364 21.4236 22.2134 21.299 22.215V22.216ZM25.299 22.216V22.218C25.1744 22.2199 25.0514 22.2464 24.9371 22.296C24.8228 22.3456 24.7195 22.4173 24.633 22.507L22.824 24.364C22.7371 24.4533 22.6688 24.5588 22.6228 24.6746C22.5769 24.7904 22.5543 24.9141 22.5564 25.0386C22.5584 25.1631 22.5851 25.286 22.6348 25.4002C22.6845 25.5144 22.7563 25.6177 22.846 25.704C22.935 25.7913 23.0404 25.86 23.1561 25.9062C23.2718 25.9525 23.3956 25.9753 23.5202 25.9735C23.6448 25.9716 23.7678 25.9451 23.8821 25.8954C23.9963 25.8457 24.0996 25.7739 24.186 25.684L25.994 23.825C26.0809 23.7358 26.1494 23.6303 26.1954 23.5146C26.2414 23.3989 26.2641 23.2752 26.2621 23.1507C26.2602 23.0261 26.2336 22.9032 26.184 22.789C26.1344 22.6747 26.0627 22.5714 25.973 22.485C25.884 22.3978 25.7786 22.329 25.663 22.2827C25.5473 22.2364 25.4236 22.2134 25.299 22.215V22.216ZM29.299 22.216V22.218C29.1744 22.2199 29.0514 22.2464 28.9371 22.296C28.8228 22.3456 28.7195 22.4173 28.633 22.507L26.824 24.364C26.7371 24.4533 26.6688 24.5588 26.6228 24.6746C26.5769 24.7904 26.5543 24.9141 26.5564 25.0386C26.5584 25.1631 26.5851 25.286 26.6348 25.4002C26.6845 25.5144 26.7563 25.6177 26.846 25.704C26.935 25.7913 27.0404 25.86 27.1561 25.9062C27.2718 25.9525 27.3956 25.9753 27.5202 25.9735C27.6448 25.9716 27.7678 25.9451 27.8821 25.8954C27.9963 25.8457 28.0996 25.7739 28.186 25.684L29.994 23.825C30.0809 23.7358 30.1494 23.6303 30.1954 23.5146C30.2414 23.3989 30.2641 23.2752 30.2621 23.1507C30.2602 23.0261 30.2336 22.9032 30.184 22.789C30.1344 22.6747 30.0627 22.5714 29.973 22.485C29.884 22.3978 29.7786 22.329 29.663 22.2827C29.5473 22.2364 29.4236 22.2134 29.299 22.215V22.216ZM33.012 22.216V22.218C32.8874 22.2199 32.7644 22.2464 32.6501 22.296C32.5358 22.3456 32.4325 22.4173 32.346 22.507L30.537 24.364C30.4501 24.4533 30.3818 24.5588 30.3358 24.6746C30.2899 24.7904 30.2673 24.9141 30.2694 25.0386C30.2714 25.1631 30.2981 25.286 30.3478 25.4002C30.3975 25.5144 30.4692 25.6177 30.559 25.704C30.648 25.7913 30.7534 25.86 30.8691 25.9062C30.9848 25.9525 31.1086 25.9753 31.2332 25.9735C31.3578 25.9716 31.4808 25.9451 31.5951 25.8954C31.7093 25.8457 31.8126 25.7739 31.899 25.684L33.707 23.825C33.7939 23.7358 33.8622 23.6302 33.9081 23.5144C33.9541 23.3987 33.9767 23.275 33.9746 23.1504C33.9726 23.0259 33.9459 22.903 33.8962 22.7888C33.8465 22.6746 33.7747 22.5714 33.685 22.485C33.5961 22.3979 33.4909 22.3292 33.3754 22.2829C33.2599 22.2366 33.1364 22.2135 33.012 22.215V22.216ZM17.363 22.7C17.4545 22.7084 17.5409 22.7463 17.609 22.808C18.016 23.169 17.534 23.593 17.359 23.776L16.494 24.681C15.887 25.312 15.623 25.739 15.199 25.331C14.839 24.958 15.156 24.735 15.844 24.036L16.709 23.134C16.914 22.933 17.127 22.689 17.363 22.7ZM21.363 22.7C21.4545 22.7084 21.5409 22.7463 21.609 22.808C22.016 23.169 21.534 23.593 21.359 23.776L20.494 24.681C19.887 25.312 19.623 25.739 19.199 25.331C18.839 24.958 19.155 24.735 19.844 24.036L20.709 23.134C20.914 22.933 21.127 22.689 21.363 22.7ZM25.363 22.7C25.4545 22.7084 25.5409 22.7463 25.609 22.808C26.016 23.169 25.534 23.593 25.359 23.776L24.494 24.681C23.887 25.312 23.623 25.739 23.199 25.331C22.839 24.958 23.155 24.735 23.844 24.036L24.709 23.134C24.914 22.933 25.127 22.689 25.363 22.7ZM29.363 22.7C29.4545 22.7084 29.5409 22.7463 29.609 22.808C30.016 23.169 29.534 23.593 29.359 23.776L28.494 24.681C27.887 25.312 27.623 25.739 27.199 25.331C26.839 24.958 27.155 24.735 27.844 24.036L28.709 23.134C28.914 22.933 29.127 22.689 29.363 22.7ZM33.076 22.7C33.1675 22.7084 33.2539 22.7463 33.322 22.808C33.729 23.169 33.247 23.593 33.072 23.776L32.207 24.681C31.6 25.312 31.336 25.739 30.912 25.331C30.552 24.958 30.868 24.735 31.557 24.036L32.422 23.134C32.627 22.933 32.84 22.689 33.076 22.7ZM13.863 27.296C13.8483 27.2961 13.8337 27.2992 13.8202 27.3049C13.8067 27.3107 13.7944 27.319 13.7841 27.3295C13.7738 27.34 13.7656 27.3524 13.7601 27.3661C13.7546 27.3797 13.7519 27.3943 13.752 27.409C13.752 27.47 13.802 27.522 13.863 27.522C13.925 27.523 13.976 27.472 13.977 27.409C13.977 27.3941 13.974 27.3793 13.9683 27.3655C13.9626 27.3518 13.9541 27.3393 13.9435 27.3288C13.9329 27.3183 13.9204 27.3099 13.9065 27.3043C13.8927 27.2987 13.8779 27.2959 13.863 27.296ZM14.426 27.296C14.3959 27.296 14.3671 27.3079 14.3457 27.3291C14.3244 27.3502 14.3123 27.379 14.312 27.409C14.313 27.47 14.364 27.522 14.426 27.522C14.487 27.522 14.536 27.47 14.537 27.409V27.389C14.5329 27.3627 14.5194 27.3388 14.499 27.3217C14.4785 27.3046 14.4526 27.2955 14.426 27.296ZM14.988 27.296C14.9731 27.2959 14.9584 27.2987 14.9446 27.3043C14.9308 27.31 14.9183 27.3183 14.9078 27.3288C14.8973 27.3393 14.889 27.3518 14.8833 27.3656C14.8777 27.3794 14.8749 27.3941 14.875 27.409C14.875 27.471 14.926 27.523 14.988 27.522C15.05 27.522 15.098 27.47 15.1 27.409V27.389C15.0959 27.3625 15.0822 27.3385 15.0616 27.3213C15.041 27.3042 15.0148 27.2952 14.988 27.296ZM15.551 27.296C15.536 27.2957 15.5212 27.2985 15.5073 27.3041C15.4934 27.3096 15.4808 27.3179 15.4701 27.3285C15.4595 27.339 15.4511 27.3515 15.4454 27.3654C15.4397 27.3792 15.4369 27.3941 15.437 27.409C15.438 27.471 15.489 27.523 15.551 27.522C15.612 27.522 15.661 27.47 15.662 27.409V27.4C15.6602 27.3717 15.6478 27.3451 15.6272 27.3256C15.6066 27.3062 15.5794 27.2952 15.551 27.295V27.296ZM16.113 27.296C16.0981 27.2959 16.0834 27.2987 16.0696 27.3043C16.0558 27.31 16.0433 27.3183 16.0328 27.3288C16.0223 27.3393 16.014 27.3518 16.0083 27.3656C16.0027 27.3794 15.9999 27.3941 16 27.409C16 27.471 16.051 27.523 16.113 27.522C16.174 27.522 16.223 27.47 16.225 27.409V27.4C16.2232 27.3715 16.2106 27.3448 16.1898 27.3253C16.169 27.3058 16.1415 27.295 16.113 27.295V27.296ZM16.676 27.296C16.6611 27.2959 16.6464 27.2987 16.6326 27.3043C16.6188 27.31 16.6063 27.3183 16.5958 27.3288C16.5853 27.3393 16.577 27.3518 16.5713 27.3656C16.5657 27.3794 16.5629 27.3941 16.563 27.409C16.563 27.471 16.613 27.523 16.676 27.522C16.737 27.522 16.786 27.47 16.787 27.409V27.4C16.7852 27.3717 16.7728 27.3451 16.7522 27.3256C16.7316 27.3062 16.7044 27.2952 16.676 27.295V27.296ZM17.236 27.296C17.2213 27.2961 17.2067 27.2992 17.1932 27.3049C17.1797 27.3107 17.1674 27.319 17.1571 27.3295C17.1468 27.34 17.1386 27.3524 17.1331 27.3661C17.1276 27.3797 17.1249 27.3943 17.125 27.409C17.125 27.47 17.175 27.522 17.236 27.522C17.2661 27.522 17.2949 27.5101 17.3163 27.489C17.3376 27.4678 17.3497 27.4391 17.35 27.409V27.4C17.3482 27.3712 17.3353 27.3442 17.3141 27.3246C17.2928 27.305 17.2649 27.2944 17.236 27.295V27.296ZM17.799 27.296C17.7843 27.2961 17.7697 27.2992 17.7562 27.3049C17.7427 27.3107 17.7304 27.319 17.7201 27.3295C17.7098 27.34 17.7016 27.3524 17.6961 27.3661C17.6906 27.3797 17.6879 27.3943 17.688 27.409C17.688 27.47 17.738 27.522 17.798 27.522C17.8281 27.522 17.8569 27.5101 17.8783 27.489C17.8996 27.4678 17.9117 27.4391 17.912 27.409V27.4C17.9102 27.3714 17.8975 27.3445 17.8765 27.325C17.8554 27.3054 17.8277 27.2947 17.799 27.295V27.296ZM18.361 27.296C18.3463 27.2961 18.3317 27.2992 18.3182 27.3049C18.3047 27.3107 18.2924 27.319 18.2821 27.3295C18.2718 27.34 18.2636 27.3524 18.2581 27.3661C18.2526 27.3797 18.2499 27.3943 18.25 27.409C18.25 27.47 18.3 27.522 18.361 27.522C18.3911 27.522 18.4199 27.5101 18.4413 27.489C18.4626 27.4678 18.4747 27.4391 18.475 27.409V27.4C18.4732 27.3712 18.4603 27.3442 18.4391 27.3246C18.4178 27.305 18.3899 27.2944 18.361 27.295V27.296ZM18.924 27.296C18.9093 27.2961 18.8947 27.2992 18.8812 27.3049C18.8677 27.3107 18.8554 27.319 18.8451 27.3295C18.8348 27.34 18.8266 27.3524 18.8211 27.3661C18.8156 27.3797 18.8129 27.3943 18.813 27.409C18.813 27.47 18.863 27.522 18.923 27.522C18.985 27.522 19.034 27.47 19.035 27.409V27.389C19.0309 27.3627 19.0174 27.3388 18.997 27.3217C18.9765 27.3046 18.9506 27.2955 18.924 27.296ZM19.486 27.296C19.456 27.296 19.4273 27.3079 19.4061 27.3291C19.3849 27.3503 19.373 27.379 19.373 27.409C19.373 27.471 19.424 27.523 19.486 27.522C19.548 27.522 19.596 27.47 19.598 27.409V27.4C19.5962 27.3715 19.5836 27.3448 19.5628 27.3253C19.542 27.3058 19.5145 27.295 19.486 27.295V27.296ZM20.049 27.296C20.019 27.296 19.9903 27.3079 19.9691 27.3291C19.9479 27.3503 19.936 27.379 19.936 27.409C19.936 27.471 19.986 27.523 20.049 27.522C20.11 27.522 20.159 27.47 20.16 27.409V27.4C20.1582 27.3717 20.1458 27.3451 20.1252 27.3256C20.1046 27.3062 20.0774 27.2952 20.049 27.295V27.296ZM20.611 27.296C20.581 27.296 20.5523 27.3079 20.5311 27.3291C20.5099 27.3503 20.498 27.379 20.498 27.409C20.498 27.471 20.549 27.523 20.611 27.522C20.673 27.522 20.721 27.47 20.723 27.409V27.4C20.7212 27.3715 20.7086 27.3448 20.6878 27.3253C20.667 27.3058 20.6395 27.295 20.611 27.295V27.296ZM21.174 27.296C21.144 27.296 21.1153 27.3079 21.0941 27.3291C21.0729 27.3503 21.061 27.379 21.061 27.409C21.061 27.471 21.111 27.523 21.174 27.522C21.235 27.522 21.284 27.47 21.285 27.409V27.4C21.2832 27.3717 21.2708 27.3451 21.2502 27.3256C21.2296 27.3062 21.2024 27.2952 21.174 27.295V27.296ZM21.734 27.296C21.7193 27.2961 21.7047 27.2992 21.6912 27.3049C21.6777 27.3107 21.6654 27.319 21.6551 27.3295C21.6448 27.34 21.6366 27.3524 21.6311 27.3661C21.6256 27.3797 21.6229 27.3943 21.623 27.409C21.623 27.47 21.673 27.522 21.734 27.522C21.7641 27.522 21.7929 27.5101 21.8143 27.489C21.8356 27.4678 21.8477 27.4391 21.848 27.409V27.4C21.8462 27.3712 21.8333 27.3442 21.8121 27.3246C21.7908 27.305 21.7629 27.2944 21.734 27.295V27.296ZM22.297 27.296C22.2823 27.2961 22.2677 27.2992 22.2542 27.3049C22.2407 27.3107 22.2284 27.319 22.2181 27.3295C22.2078 27.34 22.1996 27.3524 22.1941 27.3661C22.1886 27.3797 22.1859 27.3943 22.186 27.409C22.186 27.47 22.236 27.522 22.296 27.522C22.3261 27.522 22.3549 27.5101 22.3763 27.489C22.3976 27.4678 22.4097 27.4391 22.41 27.409V27.4C22.4082 27.3714 22.3955 27.3445 22.3745 27.325C22.3534 27.3054 22.3257 27.2947 22.297 27.295V27.296ZM22.859 27.296C22.8443 27.2961 22.8297 27.2992 22.8162 27.3049C22.8027 27.3107 22.7904 27.319 22.7801 27.3295C22.7698 27.34 22.7616 27.3524 22.7561 27.3661C22.7506 27.3797 22.7479 27.3943 22.748 27.409C22.748 27.47 22.798 27.522 22.859 27.522C22.921 27.523 22.972 27.472 22.973 27.409C22.973 27.3941 22.97 27.3793 22.9643 27.3655C22.9586 27.3518 22.9501 27.3393 22.9395 27.3288C22.9289 27.3183 22.9164 27.3099 22.9025 27.3043C22.8887 27.2987 22.8739 27.2959 22.859 27.296ZM23.422 27.296C23.4073 27.2961 23.3927 27.2992 23.3792 27.3049C23.3657 27.3107 23.3534 27.319 23.3431 27.3295C23.3328 27.34 23.3246 27.3524 23.3191 27.3661C23.3136 27.3797 23.3109 27.3943 23.311 27.409C23.311 27.47 23.361 27.522 23.421 27.522C23.483 27.522 23.533 27.47 23.533 27.409V27.389C23.5287 27.3628 23.5151 27.339 23.4947 27.3219C23.4744 27.3049 23.4486 27.2957 23.422 27.296ZM23.984 27.296C23.9691 27.2959 23.9544 27.2987 23.9406 27.3043C23.9268 27.31 23.9143 27.3183 23.9038 27.3288C23.8933 27.3393 23.885 27.3518 23.8793 27.3656C23.8737 27.3794 23.8709 27.3941 23.871 27.409C23.871 27.471 23.922 27.523 23.984 27.522C24.046 27.522 24.094 27.47 24.096 27.409V27.389C24.0919 27.3625 24.0782 27.3385 24.0576 27.3213C24.037 27.3042 24.0108 27.2952 23.984 27.296ZM24.547 27.296C24.5321 27.2959 24.5174 27.2987 24.5036 27.3043C24.4898 27.31 24.4773 27.3183 24.4668 27.3288C24.4563 27.3393 24.448 27.3518 24.4423 27.3656C24.4367 27.3794 24.4339 27.3941 24.434 27.409C24.434 27.471 24.484 27.523 24.547 27.522C24.608 27.522 24.657 27.47 24.658 27.409V27.4C24.6562 27.3717 24.6438 27.3451 24.6232 27.3256C24.6026 27.3062 24.5754 27.2952 24.547 27.295V27.296ZM25.109 27.296C25.0941 27.2959 25.0794 27.2987 25.0656 27.3043C25.0518 27.31 25.0393 27.3183 25.0288 27.3288C25.0183 27.3393 25.01 27.3518 25.0043 27.3656C24.9987 27.3794 24.9959 27.3941 24.996 27.409C24.996 27.471 25.047 27.523 25.109 27.522C25.171 27.522 25.219 27.47 25.221 27.409V27.4C25.2192 27.3715 25.2066 27.3448 25.1858 27.3253C25.165 27.3058 25.1375 27.295 25.109 27.295V27.296ZM25.669 27.296C25.6395 27.2965 25.6113 27.3087 25.5907 27.3299C25.5701 27.351 25.5587 27.3795 25.559 27.409C25.559 27.47 25.609 27.522 25.669 27.522C25.6991 27.522 25.7279 27.5101 25.7493 27.489C25.7706 27.4678 25.7827 27.4391 25.783 27.409V27.4C25.7812 27.3714 25.7685 27.3445 25.7475 27.325C25.7264 27.3054 25.6987 27.2947 25.67 27.295L25.669 27.296ZM26.232 27.296C26.2025 27.2965 26.1743 27.3087 26.1537 27.3299C26.1331 27.351 26.1217 27.3795 26.122 27.409C26.122 27.47 26.171 27.522 26.232 27.522C26.2621 27.522 26.2909 27.5101 26.3123 27.489C26.3336 27.4678 26.3457 27.4391 26.346 27.409V27.4C26.3442 27.3712 26.3313 27.3442 26.3101 27.3246C26.2888 27.305 26.2609 27.2944 26.232 27.295V27.296ZM26.795 27.296C26.7803 27.2961 26.7657 27.2992 26.7522 27.3049C26.7387 27.3107 26.7264 27.319 26.7161 27.3295C26.7058 27.34 26.6976 27.3524 26.6921 27.3661C26.6866 27.3797 26.6839 27.3943 26.684 27.409C26.684 27.47 26.734 27.522 26.794 27.522C26.8241 27.522 26.8529 27.5101 26.8743 27.489C26.8956 27.4678 26.9077 27.4391 26.908 27.409V27.4C26.9062 27.3714 26.8935 27.3445 26.8725 27.325C26.8514 27.3054 26.8237 27.2947 26.795 27.295V27.296ZM27.357 27.296C27.3275 27.2965 27.2993 27.3087 27.2787 27.3299C27.2581 27.351 27.2467 27.3795 27.247 27.409C27.247 27.47 27.296 27.522 27.357 27.522C27.419 27.523 27.47 27.472 27.471 27.409C27.4711 27.3941 27.4683 27.3792 27.4626 27.3654C27.4569 27.3515 27.4485 27.339 27.4378 27.3285C27.4272 27.3179 27.4146 27.3096 27.4007 27.3041C27.3868 27.2985 27.372 27.2957 27.357 27.296ZM27.92 27.296C27.9053 27.2961 27.8907 27.2992 27.8772 27.3049C27.8637 27.3107 27.8514 27.319 27.8411 27.3295C27.8308 27.34 27.8226 27.3524 27.8171 27.3661C27.8116 27.3797 27.8089 27.3943 27.809 27.409C27.809 27.47 27.859 27.522 27.919 27.522C27.981 27.522 28.03 27.47 28.031 27.409V27.389C28.0269 27.3627 28.0134 27.3388 27.993 27.3217C27.9725 27.3046 27.9466 27.2955 27.92 27.296ZM28.482 27.296C28.452 27.296 28.4233 27.3079 28.4021 27.3291C28.3809 27.3503 28.369 27.379 28.369 27.409C28.369 27.471 28.42 27.523 28.482 27.522C28.544 27.522 28.593 27.47 28.594 27.409V27.4C28.5922 27.3715 28.5796 27.3448 28.5588 27.3253C28.538 27.3058 28.5105 27.295 28.482 27.295V27.296ZM29.045 27.296C29.015 27.296 28.9863 27.3079 28.9651 27.3291C28.9439 27.3503 28.932 27.379 28.932 27.409C28.932 27.471 28.982 27.523 29.045 27.522C29.106 27.522 29.155 27.47 29.156 27.409V27.4C29.1542 27.3717 29.1418 27.3451 29.1212 27.3256C29.1006 27.3062 29.0734 27.2952 29.045 27.295V27.296ZM29.607 27.296C29.577 27.296 29.5483 27.3079 29.5271 27.3291C29.5059 27.3503 29.494 27.379 29.494 27.409C29.494 27.471 29.545 27.523 29.607 27.522C29.669 27.522 29.718 27.47 29.719 27.409V27.4C29.7172 27.3715 29.7046 27.3448 29.6838 27.3253C29.663 27.3058 29.6355 27.295 29.607 27.295V27.296ZM30.168 27.296C30.1533 27.2961 30.1387 27.2992 30.1252 27.3049C30.1117 27.3107 30.0994 27.319 30.0891 27.3295C30.0788 27.34 30.0706 27.3524 30.0651 27.3661C30.0596 27.3797 30.0569 27.3943 30.057 27.409C30.057 27.47 30.107 27.522 30.168 27.522C30.1979 27.5218 30.2265 27.5098 30.2476 27.4886C30.2687 27.4675 30.2807 27.4389 30.281 27.409V27.4C30.2792 27.3714 30.2665 27.3445 30.2455 27.325C30.2244 27.3054 30.1967 27.2947 30.168 27.295V27.296ZM30.731 27.296C30.7162 27.296 30.7016 27.2989 30.6879 27.3046C30.6742 27.3103 30.6619 27.3187 30.6514 27.3292C30.641 27.3397 30.6328 27.3521 30.6272 27.3658C30.6217 27.3796 30.6189 27.3942 30.619 27.409C30.619 27.47 30.669 27.522 30.73 27.522C30.7601 27.522 30.7889 27.5101 30.8103 27.489C30.8316 27.4678 30.8437 27.4391 30.844 27.409V27.4C30.8422 27.3712 30.8293 27.3442 30.8081 27.3246C30.7868 27.305 30.7589 27.2944 30.73 27.295L30.731 27.296ZM31.293 27.296C31.2783 27.2961 31.2637 27.2992 31.2502 27.3049C31.2367 27.3107 31.2244 27.319 31.2141 27.3295C31.2038 27.34 31.1956 27.3524 31.1901 27.3661C31.1846 27.3797 31.1819 27.3943 31.182 27.409C31.182 27.47 31.232 27.522 31.293 27.522C31.3229 27.5218 31.3515 27.5098 31.3726 27.4886C31.3937 27.4675 31.4057 27.4389 31.406 27.409V27.4C31.4042 27.3714 31.3915 27.3445 31.3705 27.325C31.3494 27.3054 31.3217 27.2947 31.293 27.295V27.296ZM31.856 27.296C31.8412 27.296 31.8266 27.2989 31.8129 27.3046C31.7992 27.3103 31.7869 27.3187 31.7764 27.3292C31.766 27.3397 31.7578 27.3521 31.7522 27.3658C31.7467 27.3796 31.7439 27.3942 31.744 27.409C31.744 27.47 31.794 27.522 31.855 27.522C31.917 27.522 31.966 27.47 31.967 27.409V27.389C31.9629 27.3627 31.9494 27.3388 31.929 27.3217C31.9085 27.3046 31.8826 27.2955 31.856 27.296ZM32.418 27.296C32.4031 27.2959 32.3884 27.2987 32.3746 27.3043C32.3608 27.31 32.3483 27.3183 32.3378 27.3288C32.3273 27.3393 32.319 27.3518 32.3133 27.3656C32.3077 27.3794 32.3049 27.3941 32.305 27.409C32.305 27.471 32.356 27.523 32.418 27.522C32.479 27.522 32.528 27.47 32.529 27.409V27.389C32.5249 27.3627 32.5114 27.3388 32.491 27.3217C32.4705 27.3046 32.4446 27.2955 32.418 27.296ZM32.981 27.296C32.966 27.2957 32.9512 27.2985 32.9373 27.3041C32.9234 27.3096 32.9108 27.3179 32.9001 27.3285C32.8895 27.339 32.8811 27.3515 32.8754 27.3654C32.8697 27.3792 32.8669 27.3941 32.867 27.409C32.867 27.471 32.919 27.523 32.981 27.522C33.041 27.522 33.091 27.47 33.091 27.409V27.4C33.0892 27.3719 33.0769 27.3454 33.0565 27.326C33.0362 27.3065 33.0092 27.2955 32.981 27.295V27.296ZM33.543 27.296C33.5281 27.2959 33.5134 27.2987 33.4996 27.3043C33.4858 27.31 33.4733 27.3183 33.4628 27.3288C33.4523 27.3393 33.444 27.3518 33.4383 27.3656C33.4327 27.3794 33.4299 27.3941 33.43 27.409C33.43 27.471 33.481 27.523 33.543 27.522C33.604 27.522 33.653 27.47 33.654 27.409V27.4C33.6522 27.3717 33.6398 27.3451 33.6192 27.3256C33.5986 27.3062 33.5714 27.2952 33.543 27.295V27.296ZM34.106 27.296C34.091 27.2957 34.0762 27.2985 34.0623 27.3041C34.0484 27.3096 34.0358 27.3179 34.0251 27.3285C34.0145 27.339 34.0061 27.3515 34.0004 27.3654C33.9947 27.3792 33.9919 27.3941 33.992 27.409C33.992 27.471 34.044 27.523 34.106 27.522C34.166 27.522 34.216 27.47 34.216 27.409V27.4C34.2142 27.3719 34.2019 27.3454 34.1815 27.326C34.1612 27.3065 34.1342 27.2955 34.106 27.295V27.296ZM34.666 27.296C34.6513 27.2961 34.6367 27.2992 34.6232 27.3049C34.6097 27.3107 34.5974 27.319 34.5871 27.3295C34.5768 27.34 34.5686 27.3524 34.5631 27.3661C34.5576 27.3797 34.5549 27.3943 34.555 27.409C34.555 27.47 34.605 27.522 34.666 27.522C34.6959 27.5218 34.7245 27.5098 34.7456 27.4886C34.7667 27.4675 34.7787 27.4389 34.779 27.409V27.4C34.7772 27.3714 34.7645 27.3445 34.7435 27.325C34.7224 27.3054 34.6947 27.2947 34.666 27.295V27.296ZM17.299 28.716V28.718C17.1744 28.7199 17.0514 28.7464 16.9371 28.796C16.8228 28.8456 16.7195 28.9173 16.633 29.007L14.824 30.864C14.7371 30.9533 14.6688 31.0588 14.6228 31.1746C14.5769 31.2904 14.5543 31.4141 14.5564 31.5386C14.5584 31.6631 14.5851 31.786 14.6348 31.9002C14.6845 32.0144 14.7563 32.1177 14.846 32.204C14.935 32.2912 15.0404 32.36 15.1561 32.4062C15.2718 32.4525 15.3956 32.4753 15.5202 32.4735C15.6448 32.4716 15.7678 32.4451 15.8821 32.3954C15.9963 32.3457 16.0996 32.2739 16.186 32.184L17.994 30.325C18.0809 30.2358 18.1494 30.1303 18.1954 30.0146C18.2414 29.8989 18.2641 29.7752 18.2621 29.6507C18.2602 29.5261 18.2336 29.4032 18.184 29.289C18.1344 29.1747 18.0627 29.0714 17.973 28.985C17.884 28.8978 17.7786 28.829 17.663 28.7827C17.5473 28.7364 17.4236 28.7134 17.299 28.715V28.716ZM21.299 28.716V28.718C21.1744 28.7199 21.0514 28.7464 20.9371 28.796C20.8228 28.8456 20.7195 28.9173 20.633 29.007L18.824 30.864C18.7371 30.9533 18.6688 31.0588 18.6228 31.1746C18.5769 31.2904 18.5543 31.4141 18.5564 31.5386C18.5584 31.6631 18.5851 31.786 18.6348 31.9002C18.6845 32.0144 18.7563 32.1177 18.846 32.204C18.935 32.2912 19.0404 32.36 19.1561 32.4062C19.2718 32.4525 19.3956 32.4753 19.5202 32.4735C19.6448 32.4716 19.7678 32.4451 19.8821 32.3954C19.9963 32.3457 20.0996 32.2739 20.186 32.184L21.994 30.325C22.0809 30.2358 22.1494 30.1303 22.1954 30.0146C22.2414 29.8989 22.2641 29.7752 22.2621 29.6507C22.2602 29.5261 22.2336 29.4032 22.184 29.289C22.1344 29.1747 22.0627 29.0714 21.973 28.985C21.884 28.8978 21.7786 28.829 21.663 28.7827C21.5473 28.7364 21.4236 28.7134 21.299 28.715V28.716ZM25.299 28.716V28.718C25.1744 28.7199 25.0514 28.7464 24.9371 28.796C24.8228 28.8456 24.7195 28.9173 24.633 29.007L22.824 30.864C22.7371 30.9533 22.6688 31.0588 22.6228 31.1746C22.5769 31.2904 22.5543 31.4141 22.5564 31.5386C22.5584 31.6631 22.5851 31.786 22.6348 31.9002C22.6845 32.0144 22.7563 32.1177 22.846 32.204C22.935 32.2912 23.0404 32.36 23.1561 32.4062C23.2718 32.4525 23.3956 32.4753 23.5202 32.4735C23.6448 32.4716 23.7678 32.4451 23.8821 32.3954C23.9963 32.3457 24.0996 32.2739 24.186 32.184L25.994 30.325C26.0809 30.2358 26.1494 30.1303 26.1954 30.0146C26.2414 29.8989 26.2641 29.7752 26.2621 29.6507C26.2602 29.5261 26.2336 29.4032 26.184 29.289C26.1344 29.1747 26.0627 29.0714 25.973 28.985C25.884 28.8978 25.7786 28.829 25.663 28.7827C25.5473 28.7364 25.4236 28.7134 25.299 28.715V28.716ZM29.299 28.716V28.718C29.1744 28.7199 29.0514 28.7464 28.9371 28.796C28.8228 28.8456 28.7195 28.9173 28.633 29.007L26.824 30.864C26.7371 30.9533 26.6688 31.0588 26.6228 31.1746C26.5769 31.2904 26.5543 31.4141 26.5564 31.5386C26.5584 31.6631 26.5851 31.786 26.6348 31.9002C26.6845 32.0144 26.7563 32.1177 26.846 32.204C26.935 32.2912 27.0404 32.36 27.1561 32.4062C27.2718 32.4525 27.3956 32.4753 27.5202 32.4735C27.6448 32.4716 27.7678 32.4451 27.8821 32.3954C27.9963 32.3457 28.0996 32.2739 28.186 32.184L29.994 30.325C30.0809 30.2358 30.1494 30.1303 30.1954 30.0146C30.2414 29.8989 30.2641 29.7752 30.2621 29.6507C30.2602 29.5261 30.2336 29.4032 30.184 29.289C30.1344 29.1747 30.0627 29.0714 29.973 28.985C29.884 28.8978 29.7786 28.829 29.663 28.7827C29.5473 28.7364 29.4236 28.7134 29.299 28.715V28.716ZM33.012 28.716V28.718C32.8874 28.7199 32.7644 28.7464 32.6501 28.796C32.5358 28.8456 32.4325 28.9173 32.346 29.007L30.537 30.864C30.4501 30.9533 30.3818 31.0588 30.3358 31.1746C30.2899 31.2904 30.2673 31.4141 30.2694 31.5386C30.2714 31.6631 30.2981 31.786 30.3478 31.9002C30.3975 32.0144 30.4692 32.1177 30.559 32.204C30.648 32.2912 30.7534 32.36 30.8691 32.4062C30.9848 32.4525 31.1086 32.4753 31.2332 32.4735C31.3578 32.4716 31.4808 32.4451 31.5951 32.3954C31.7093 32.3457 31.8126 32.2739 31.899 32.184L33.707 30.325C33.7939 30.2358 33.8622 30.1302 33.9081 30.0144C33.9541 29.8987 33.9767 29.775 33.9746 29.6504C33.9726 29.5259 33.9459 29.403 33.8962 29.2888C33.8465 29.1746 33.7747 29.0714 33.685 28.985C33.5961 28.8979 33.4909 28.8292 33.3754 28.7829C33.2599 28.7366 33.1364 28.7135 33.012 28.715V28.716ZM17.363 29.2C17.4545 29.2084 17.5409 29.2463 17.609 29.308C18.016 29.669 17.534 30.093 17.359 30.276L16.494 31.181C15.887 31.812 15.623 32.239 15.199 31.831C14.839 31.458 15.156 31.235 15.844 30.536L16.709 29.634C16.914 29.433 17.127 29.189 17.363 29.2ZM21.363 29.2C21.4545 29.2084 21.5409 29.2463 21.609 29.308C22.016 29.669 21.534 30.093 21.359 30.276L20.494 31.181C19.887 31.812 19.623 32.239 19.199 31.831C18.839 31.458 19.155 31.235 19.844 30.536L20.709 29.634C20.914 29.433 21.127 29.189 21.363 29.2ZM25.363 29.2C25.4545 29.2084 25.5409 29.2463 25.609 29.308C26.016 29.669 25.534 30.093 25.359 30.276L24.494 31.181C23.887 31.812 23.623 32.239 23.199 31.831C22.839 31.458 23.155 31.235 23.844 30.536L24.709 29.634C24.914 29.433 25.127 29.189 25.363 29.2ZM29.363 29.2C29.4545 29.2084 29.5409 29.2463 29.609 29.308C30.016 29.669 29.534 30.093 29.359 30.276L28.494 31.181C27.887 31.812 27.623 32.239 27.199 31.831C26.839 31.458 27.155 31.235 27.844 30.536L28.709 29.634C28.914 29.433 29.127 29.189 29.363 29.2ZM33.076 29.2C33.1675 29.2084 33.2539 29.2463 33.322 29.308C33.729 29.669 33.247 30.093 33.072 30.276L32.207 31.181C31.6 31.812 31.336 32.239 30.912 31.831C30.552 31.458 30.868 31.235 31.557 30.536L32.422 29.634C32.627 29.433 32.84 29.189 33.076 29.2ZM13.863 33.925C13.8483 33.9251 13.8337 33.9282 13.8202 33.9339C13.8067 33.9397 13.7944 33.948 13.7841 33.9585C13.7738 33.969 13.7656 33.9814 13.7601 33.9951C13.7546 34.0087 13.7519 34.0233 13.752 34.038C13.752 34.099 13.802 34.151 13.863 34.151C13.925 34.152 13.976 34.101 13.977 34.038C13.977 34.0231 13.974 34.0083 13.9683 33.9945C13.9626 33.9808 13.9541 33.9683 13.9435 33.9578C13.9329 33.9473 13.9204 33.9389 13.9065 33.9333C13.8927 33.9277 13.8779 33.9249 13.863 33.925ZM14.426 33.925C14.3959 33.925 14.3671 33.9369 14.3457 33.9581C14.3244 33.9792 14.3123 34.008 14.312 34.038C14.313 34.099 14.364 34.151 14.426 34.151C14.487 34.151 14.536 34.099 14.537 34.038V34.018C14.5329 33.9917 14.5194 33.9678 14.499 33.9507C14.4785 33.9336 14.4526 33.9245 14.426 33.925ZM14.988 33.925C14.9731 33.9249 14.9584 33.9277 14.9446 33.9333C14.9308 33.939 14.9183 33.9473 14.9078 33.9578C14.8973 33.9683 14.889 33.9808 14.8833 33.9946C14.8777 34.0084 14.8749 34.0231 14.875 34.038C14.875 34.1 14.926 34.152 14.988 34.151C15.05 34.151 15.098 34.099 15.1 34.038V34.018C15.0959 33.9915 15.0822 33.9675 15.0616 33.9503C15.041 33.9332 15.0148 33.9242 14.988 33.925ZM15.551 33.925C15.536 33.9247 15.5212 33.9275 15.5073 33.9331C15.4934 33.9386 15.4808 33.9469 15.4701 33.9575C15.4595 33.968 15.4511 33.9805 15.4454 33.9944C15.4397 34.0082 15.4369 34.0231 15.437 34.038C15.438 34.1 15.489 34.152 15.551 34.151C15.612 34.151 15.661 34.099 15.662 34.038V34.03C15.6602 34.0017 15.6478 33.9751 15.6272 33.9556C15.6066 33.9362 15.5794 33.9252 15.551 33.925ZM16.113 33.925C16.0981 33.9249 16.0834 33.9277 16.0696 33.9333C16.0558 33.939 16.0433 33.9473 16.0328 33.9578C16.0223 33.9683 16.014 33.9808 16.0083 33.9946C16.0027 34.0084 15.9999 34.0231 16 34.038C16 34.1 16.051 34.152 16.113 34.151C16.174 34.151 16.223 34.099 16.225 34.038V34.03C16.2232 34.0015 16.2106 33.9748 16.1898 33.9553C16.169 33.9358 16.1415 33.925 16.113 33.925ZM16.676 33.925C16.6611 33.9249 16.6464 33.9277 16.6326 33.9333C16.6188 33.939 16.6063 33.9473 16.5958 33.9578C16.5853 33.9683 16.577 33.9808 16.5713 33.9946C16.5657 34.0084 16.5629 34.0231 16.563 34.038C16.563 34.1 16.613 34.152 16.676 34.151C16.737 34.151 16.786 34.099 16.787 34.038V34.03C16.7852 34.0017 16.7728 33.9751 16.7522 33.9556C16.7316 33.9362 16.7044 33.9252 16.676 33.925ZM17.236 33.925C17.2213 33.9251 17.2067 33.9282 17.1932 33.9339C17.1797 33.9397 17.1674 33.948 17.1571 33.9585C17.1468 33.969 17.1386 33.9814 17.1331 33.9951C17.1276 34.0087 17.1249 34.0233 17.125 34.038C17.125 34.099 17.175 34.151 17.236 34.151C17.2661 34.151 17.2949 34.1391 17.3163 34.118C17.3376 34.0968 17.3497 34.0681 17.35 34.038V34.03C17.3482 34.0012 17.3353 33.9742 17.3141 33.9546C17.2928 33.935 17.2649 33.9244 17.236 33.925ZM17.799 33.925C17.7843 33.9251 17.7697 33.9282 17.7562 33.9339C17.7427 33.9397 17.7304 33.948 17.7201 33.9585C17.7098 33.969 17.7016 33.9814 17.6961 33.9951C17.6906 34.0087 17.6879 34.0233 17.688 34.038C17.688 34.099 17.738 34.151 17.798 34.151C17.8281 34.151 17.8569 34.1391 17.8783 34.118C17.8996 34.0968 17.9117 34.0681 17.912 34.038V34.03C17.9102 34.0014 17.8975 33.9745 17.8765 33.955C17.8554 33.9354 17.8277 33.9247 17.799 33.925ZM18.361 33.925C18.3463 33.9251 18.3317 33.9282 18.3182 33.9339C18.3047 33.9397 18.2924 33.948 18.2821 33.9585C18.2718 33.969 18.2636 33.9814 18.2581 33.9951C18.2526 34.0087 18.2499 34.0233 18.25 34.038C18.25 34.099 18.3 34.151 18.361 34.151C18.3911 34.151 18.4199 34.1391 18.4413 34.118C18.4626 34.0968 18.4747 34.0681 18.475 34.038V34.03C18.4732 34.0012 18.4603 33.9742 18.4391 33.9546C18.4178 33.935 18.3899 33.9244 18.361 33.925ZM18.924 33.925C18.9093 33.9251 18.8947 33.9282 18.8812 33.9339C18.8677 33.9397 18.8554 33.948 18.8451 33.9585C18.8348 33.969 18.8266 33.9814 18.8211 33.9951C18.8156 34.0087 18.8129 34.0233 18.813 34.038C18.813 34.099 18.863 34.151 18.923 34.151C18.985 34.151 19.034 34.099 19.035 34.038V34.018C19.0309 33.9917 19.0174 33.9678 18.997 33.9507C18.9765 33.9336 18.9506 33.9245 18.924 33.925ZM19.486 33.925C19.456 33.925 19.4273 33.9369 19.4061 33.9581C19.3849 33.9793 19.373 34.008 19.373 34.038C19.373 34.1 19.424 34.152 19.486 34.151C19.548 34.151 19.596 34.099 19.598 34.038V34.03C19.5962 34.0015 19.5836 33.9748 19.5628 33.9553C19.542 33.9358 19.5145 33.925 19.486 33.925ZM20.049 33.925C20.019 33.925 19.9903 33.9369 19.9691 33.9581C19.9479 33.9793 19.936 34.008 19.936 34.038C19.936 34.1 19.986 34.152 20.049 34.151C20.11 34.151 20.159 34.099 20.16 34.038V34.03C20.1582 34.0017 20.1458 33.9751 20.1252 33.9556C20.1046 33.9362 20.0774 33.9252 20.049 33.925ZM20.611 33.925C20.581 33.925 20.5523 33.9369 20.5311 33.9581C20.5099 33.9793 20.498 34.008 20.498 34.038C20.498 34.1 20.549 34.152 20.611 34.151C20.673 34.151 20.721 34.099 20.723 34.038V34.03C20.7212 34.0015 20.7086 33.9748 20.6878 33.9553C20.667 33.9358 20.6395 33.925 20.611 33.925ZM21.174 33.925C21.144 33.925 21.1153 33.9369 21.0941 33.9581C21.0729 33.9793 21.061 34.008 21.061 34.038C21.061 34.1 21.111 34.152 21.174 34.151C21.235 34.151 21.284 34.099 21.285 34.038V34.03C21.2832 34.0017 21.2708 33.9751 21.2502 33.9556C21.2296 33.9362 21.2024 33.9252 21.174 33.925ZM21.734 33.925C21.7193 33.9251 21.7047 33.9282 21.6912 33.9339C21.6777 33.9397 21.6654 33.948 21.6551 33.9585C21.6448 33.969 21.6366 33.9814 21.6311 33.9951C21.6256 34.0087 21.6229 34.0233 21.623 34.038C21.623 34.099 21.673 34.151 21.734 34.151C21.7641 34.151 21.7929 34.1391 21.8143 34.118C21.8356 34.0968 21.8477 34.0681 21.848 34.038V34.03C21.8462 34.0012 21.8333 33.9742 21.8121 33.9546C21.7908 33.935 21.7629 33.9244 21.734 33.925ZM22.297 33.925C22.2823 33.9251 22.2677 33.9282 22.2542 33.9339C22.2407 33.9397 22.2284 33.948 22.2181 33.9585C22.2078 33.969 22.1996 33.9814 22.1941 33.9951C22.1886 34.0087 22.1859 34.0233 22.186 34.038C22.186 34.099 22.236 34.151 22.296 34.151C22.3261 34.151 22.3549 34.1391 22.3763 34.118C22.3976 34.0968 22.4097 34.0681 22.41 34.038V34.03C22.4082 34.0014 22.3955 33.9745 22.3745 33.955C22.3534 33.9354 22.3257 33.9247 22.297 33.925ZM22.859 33.925C22.8443 33.9251 22.8297 33.9282 22.8162 33.9339C22.8027 33.9397 22.7904 33.948 22.7801 33.9585C22.7698 33.969 22.7616 33.9814 22.7561 33.9951C22.7506 34.0087 22.7479 34.0233 22.748 34.038C22.748 34.099 22.798 34.151 22.859 34.151C22.921 34.152 22.972 34.101 22.973 34.038C22.973 34.0231 22.97 34.0083 22.9643 33.9945C22.9586 33.9808 22.9501 33.9683 22.9395 33.9578C22.9289 33.9473 22.9164 33.9389 22.9025 33.9333C22.8887 33.9277 22.8739 33.9249 22.859 33.925ZM23.422 33.925C23.4073 33.9251 23.3927 33.9282 23.3792 33.9339C23.3657 33.9397 23.3534 33.948 23.3431 33.9585C23.3328 33.969 23.3246 33.9814 23.3191 33.9951C23.3136 34.0087 23.3109 34.0233 23.311 34.038C23.311 34.099 23.361 34.151 23.421 34.151C23.483 34.151 23.533 34.099 23.533 34.038V34.018C23.5287 33.9918 23.5151 33.968 23.4947 33.9509C23.4744 33.9339 23.4486 33.9247 23.422 33.925ZM23.984 33.925C23.9691 33.9249 23.9544 33.9277 23.9406 33.9333C23.9268 33.939 23.9143 33.9473 23.9038 33.9578C23.8933 33.9683 23.885 33.9808 23.8793 33.9946C23.8737 34.0084 23.8709 34.0231 23.871 34.038C23.871 34.1 23.922 34.152 23.984 34.151C24.046 34.151 24.094 34.099 24.096 34.038V34.018C24.0919 33.9915 24.0782 33.9675 24.0576 33.9503C24.037 33.9332 24.0108 33.9242 23.984 33.925ZM24.547 33.925C24.5321 33.9249 24.5174 33.9277 24.5036 33.9333C24.4898 33.939 24.4773 33.9473 24.4668 33.9578C24.4563 33.9683 24.448 33.9808 24.4423 33.9946C24.4367 34.0084 24.4339 34.0231 24.434 34.038C24.434 34.1 24.484 34.152 24.547 34.151C24.608 34.151 24.657 34.099 24.658 34.038V34.03C24.6562 34.0017 24.6438 33.9751 24.6232 33.9556C24.6026 33.9362 24.5754 33.9252 24.547 33.925ZM25.109 33.925C25.0941 33.9249 25.0794 33.9277 25.0656 33.9333C25.0518 33.939 25.0393 33.9473 25.0288 33.9578C25.0183 33.9683 25.01 33.9808 25.0043 33.9946C24.9987 34.0084 24.9959 34.0231 24.996 34.038C24.996 34.1 25.047 34.152 25.109 34.151C25.171 34.151 25.219 34.099 25.221 34.038V34.03C25.2192 34.0015 25.2066 33.9748 25.1858 33.9553C25.165 33.9358 25.1375 33.925 25.109 33.925ZM25.669 33.925C25.6395 33.9255 25.6113 33.9377 25.5907 33.9589C25.5701 33.98 25.5587 34.0085 25.559 34.038C25.559 34.099 25.609 34.151 25.669 34.151C25.6991 34.151 25.7279 34.1391 25.7493 34.118C25.7706 34.0968 25.7827 34.0681 25.783 34.038V34.03C25.7812 34.0014 25.7685 33.9745 25.7475 33.955C25.7264 33.9354 25.6987 33.9247 25.67 33.925H25.669ZM26.232 33.925C26.2025 33.9255 26.1743 33.9377 26.1537 33.9589C26.1331 33.98 26.1217 34.0085 26.122 34.038C26.122 34.099 26.171 34.151 26.232 34.151C26.2621 34.151 26.2909 34.1391 26.3123 34.118C26.3336 34.0968 26.3457 34.0681 26.346 34.038V34.03C26.3442 34.0012 26.3313 33.9742 26.3101 33.9546C26.2888 33.935 26.2609 33.9244 26.232 33.925ZM26.795 33.925C26.7803 33.9251 26.7657 33.9282 26.7522 33.9339C26.7387 33.9397 26.7264 33.948 26.7161 33.9585C26.7058 33.969 26.6976 33.9814 26.6921 33.9951C26.6866 34.0087 26.6839 34.0233 26.684 34.038C26.684 34.099 26.734 34.151 26.794 34.151C26.8241 34.151 26.8529 34.1391 26.8743 34.118C26.8956 34.0968 26.9077 34.0681 26.908 34.038V34.03C26.9062 34.0014 26.8935 33.9745 26.8725 33.955C26.8514 33.9354 26.8237 33.9247 26.795 33.925ZM27.357 33.925C27.3275 33.9255 27.2993 33.9377 27.2787 33.9589C27.2581 33.98 27.2467 34.0085 27.247 34.038C27.247 34.099 27.296 34.151 27.357 34.151C27.419 34.152 27.47 34.101 27.471 34.038C27.4711 34.0231 27.4683 34.0082 27.4626 33.9944C27.4569 33.9805 27.4485 33.968 27.4378 33.9575C27.4272 33.9469 27.4146 33.9386 27.4007 33.9331C27.3868 33.9275 27.372 33.9247 27.357 33.925ZM27.92 33.925C27.9053 33.9251 27.8907 33.9282 27.8772 33.9339C27.8637 33.9397 27.8514 33.948 27.8411 33.9585C27.8308 33.969 27.8226 33.9814 27.8171 33.9951C27.8116 34.0087 27.8089 34.0233 27.809 34.038C27.809 34.099 27.859 34.151 27.919 34.151C27.981 34.151 28.03 34.099 28.031 34.038V34.018C28.0269 33.9917 28.0134 33.9678 27.993 33.9507C27.9725 33.9336 27.9466 33.9245 27.92 33.925ZM28.482 33.925C28.452 33.925 28.4233 33.9369 28.4021 33.9581C28.3809 33.9793 28.369 34.008 28.369 34.038C28.369 34.1 28.42 34.152 28.482 34.151C28.544 34.151 28.593 34.099 28.594 34.038V34.03C28.5922 34.0015 28.5796 33.9748 28.5588 33.9553C28.538 33.9358 28.5105 33.925 28.482 33.925ZM29.045 33.925C29.015 33.925 28.9863 33.9369 28.9651 33.9581C28.9439 33.9793 28.932 34.008 28.932 34.038C28.932 34.1 28.982 34.152 29.045 34.151C29.106 34.151 29.155 34.099 29.156 34.038V34.03C29.1542 34.0017 29.1418 33.9751 29.1212 33.9556C29.1006 33.9362 29.0734 33.9252 29.045 33.925ZM29.607 33.925C29.577 33.925 29.5483 33.9369 29.5271 33.9581C29.5059 33.9793 29.494 34.008 29.494 34.038C29.494 34.1 29.545 34.152 29.607 34.151C29.669 34.151 29.718 34.099 29.719 34.038V34.03C29.7172 34.0015 29.7046 33.9748 29.6838 33.9553C29.663 33.9358 29.6355 33.925 29.607 33.925ZM30.168 33.925C30.1533 33.9251 30.1387 33.9282 30.1252 33.9339C30.1117 33.9397 30.0994 33.948 30.0891 33.9585C30.0788 33.969 30.0706 33.9814 30.0651 33.9951C30.0596 34.0087 30.0569 34.0233 30.057 34.038C30.057 34.099 30.107 34.151 30.168 34.151C30.1979 34.1508 30.2265 34.1388 30.2476 34.1176C30.2687 34.0965 30.2807 34.0679 30.281 34.038V34.03C30.2792 34.0014 30.2665 33.9745 30.2455 33.955C30.2244 33.9354 30.1967 33.9247 30.168 33.925ZM30.731 33.925C30.7162 33.925 30.7016 33.9279 30.6879 33.9336C30.6742 33.9393 30.6619 33.9477 30.6514 33.9582C30.641 33.9687 30.6328 33.9811 30.6272 33.9948C30.6217 34.0086 30.6189 34.0232 30.619 34.038C30.619 34.099 30.669 34.151 30.73 34.151C30.7601 34.151 30.7889 34.1391 30.8103 34.118C30.8316 34.0968 30.8437 34.0681 30.844 34.038V34.03C30.8422 34.0012 30.8293 33.9742 30.8081 33.9546C30.7868 33.935 30.7589 33.9244 30.73 33.925H30.731ZM31.293 33.925C31.2783 33.9251 31.2637 33.9282 31.2502 33.9339C31.2367 33.9397 31.2244 33.948 31.2141 33.9585C31.2038 33.969 31.1956 33.9814 31.1901 33.9951C31.1846 34.0087 31.1819 34.0233 31.182 34.038C31.182 34.099 31.232 34.151 31.293 34.151C31.3229 34.1508 31.3515 34.1388 31.3726 34.1176C31.3937 34.0965 31.4057 34.0679 31.406 34.038V34.03C31.4042 34.0014 31.3915 33.9745 31.3705 33.955C31.3494 33.9354 31.3217 33.9247 31.293 33.925ZM31.856 33.925C31.8412 33.925 31.8266 33.9279 31.8129 33.9336C31.7992 33.9393 31.7869 33.9477 31.7764 33.9582C31.766 33.9687 31.7578 33.9811 31.7522 33.9948C31.7467 34.0086 31.7439 34.0232 31.744 34.038C31.744 34.099 31.794 34.151 31.855 34.151C31.917 34.151 31.966 34.099 31.967 34.038V34.018C31.9629 33.9917 31.9494 33.9678 31.929 33.9507C31.9085 33.9336 31.8826 33.9245 31.856 33.925ZM32.418 33.925C32.4031 33.9249 32.3884 33.9277 32.3746 33.9333C32.3608 33.939 32.3483 33.9473 32.3378 33.9578C32.3273 33.9683 32.319 33.9808 32.3133 33.9946C32.3077 34.0084 32.3049 34.0231 32.305 34.038C32.305 34.1 32.356 34.152 32.418 34.151C32.479 34.151 32.528 34.099 32.529 34.038V34.018C32.5249 33.9917 32.5114 33.9678 32.491 33.9507C32.4705 33.9336 32.4446 33.9245 32.418 33.925ZM32.981 33.925C32.966 33.9247 32.9512 33.9275 32.9373 33.9331C32.9234 33.9386 32.9108 33.9469 32.9001 33.9575C32.8895 33.968 32.8811 33.9805 32.8754 33.9944C32.8697 34.0082 32.8669 34.0231 32.867 34.038C32.867 34.1 32.919 34.152 32.981 34.151C33.041 34.151 33.091 34.099 33.091 34.038V34.03C33.0892 34.0019 33.0769 33.9755 33.0565 33.956C33.0362 33.9365 33.0092 33.9255 32.981 33.925ZM33.543 33.925C33.5281 33.9249 33.5134 33.9277 33.4996 33.9333C33.4858 33.939 33.4733 33.9473 33.4628 33.9578C33.4523 33.9683 33.444 33.9808 33.4383 33.9946C33.4327 34.0084 33.4299 34.0231 33.43 34.038C33.43 34.1 33.481 34.152 33.543 34.151C33.604 34.151 33.653 34.099 33.654 34.038V34.03C33.6522 34.0017 33.6398 33.9751 33.6192 33.9556C33.5986 33.9362 33.5714 33.9252 33.543 33.925ZM34.106 33.925C34.091 33.9247 34.0762 33.9275 34.0623 33.9331C34.0484 33.9386 34.0358 33.9469 34.0251 33.9575C34.0145 33.968 34.0061 33.9805 34.0004 33.9944C33.9947 34.0082 33.9919 34.0231 33.992 34.038C33.992 34.1 34.044 34.152 34.106 34.151C34.166 34.151 34.216 34.099 34.216 34.038V34.03C34.2142 34.0019 34.2019 33.9755 34.1815 33.956C34.1612 33.9365 34.1342 33.9255 34.106 33.925ZM34.666 33.925C34.6513 33.9251 34.6367 33.9282 34.6232 33.9339C34.6097 33.9397 34.5974 33.948 34.5871 33.9585C34.5768 33.969 34.5686 33.9814 34.5631 33.9951C34.5576 34.0087 34.5549 34.0233 34.555 34.038C34.555 34.099 34.605 34.151 34.666 34.151C34.6959 34.1508 34.7245 34.1388 34.7456 34.1176C34.7667 34.0965 34.7787 34.0679 34.779 34.038V34.03C34.7772 34.0014 34.7645 33.9745 34.7435 33.955C34.7224 33.9354 34.6947 33.9247 34.666 33.925ZM17.299 35.215V35.218C17.1744 35.2199 17.0514 35.2464 16.9371 35.296C16.8228 35.3456 16.7195 35.4173 16.633 35.507L14.824 37.364C14.7371 37.4533 14.6688 37.5588 14.6228 37.6746C14.5769 37.7904 14.5543 37.9141 14.5564 38.0386C14.5584 38.1631 14.5851 38.286 14.6348 38.4002C14.6845 38.5144 14.7563 38.6177 14.846 38.704C14.935 38.7912 15.0404 38.86 15.1561 38.9062C15.2718 38.9525 15.3956 38.9753 15.5202 38.9735C15.6448 38.9716 15.7678 38.9451 15.8821 38.8954C15.9963 38.8457 16.0996 38.7739 16.186 38.684L17.994 36.825C18.0809 36.7358 18.1494 36.6303 18.1954 36.5146C18.2414 36.3989 18.2641 36.2752 18.2621 36.1507C18.2602 36.0261 18.2336 35.9032 18.184 35.789C18.1344 35.6747 18.0627 35.5714 17.973 35.485C17.884 35.3978 17.7786 35.329 17.663 35.2827C17.5473 35.2364 17.4236 35.2134 17.299 35.215ZM21.299 35.215V35.218C21.1744 35.2199 21.0514 35.2464 20.9371 35.296C20.8228 35.3456 20.7195 35.4173 20.633 35.507L18.824 37.364C18.7371 37.4533 18.6688 37.5588 18.6228 37.6746C18.5769 37.7904 18.5543 37.9141 18.5564 38.0386C18.5584 38.1631 18.5851 38.286 18.6348 38.4002C18.6845 38.5144 18.7563 38.6177 18.846 38.704C18.935 38.7912 19.0404 38.86 19.1561 38.9062C19.2718 38.9525 19.3956 38.9753 19.5202 38.9735C19.6448 38.9716 19.7678 38.9451 19.8821 38.8954C19.9963 38.8457 20.0996 38.7739 20.186 38.684L21.994 36.825C22.0809 36.7358 22.1494 36.6303 22.1954 36.5146C22.2414 36.3989 22.2641 36.2752 22.2621 36.1507C22.2602 36.0261 22.2336 35.9032 22.184 35.789C22.1344 35.6747 22.0627 35.5714 21.973 35.485C21.884 35.3978 21.7786 35.329 21.663 35.2827C21.5473 35.2364 21.4236 35.2134 21.299 35.215ZM25.299 35.215V35.218C25.1744 35.2199 25.0514 35.2464 24.9371 35.296C24.8228 35.3456 24.7195 35.4173 24.633 35.507L22.824 37.364C22.7371 37.4533 22.6688 37.5588 22.6228 37.6746C22.5769 37.7904 22.5543 37.9141 22.5564 38.0386C22.5584 38.1631 22.5851 38.286 22.6348 38.4002C22.6845 38.5144 22.7563 38.6177 22.846 38.704C22.935 38.7912 23.0404 38.86 23.1561 38.9062C23.2718 38.9525 23.3956 38.9753 23.5202 38.9735C23.6448 38.9716 23.7678 38.9451 23.8821 38.8954C23.9963 38.8457 24.0996 38.7739 24.186 38.684L25.994 36.825C26.0809 36.7358 26.1494 36.6303 26.1954 36.5146C26.2414 36.3989 26.2641 36.2752 26.2621 36.1507C26.2602 36.0261 26.2336 35.9032 26.184 35.789C26.1344 35.6747 26.0627 35.5714 25.973 35.485C25.884 35.3978 25.7786 35.329 25.663 35.2827C25.5473 35.2364 25.4236 35.2134 25.299 35.215ZM29.299 35.215V35.218C29.1744 35.2199 29.0514 35.2464 28.9371 35.296C28.8228 35.3456 28.7195 35.4173 28.633 35.507L26.824 37.364C26.7371 37.4533 26.6688 37.5588 26.6228 37.6746C26.5769 37.7904 26.5543 37.9141 26.5564 38.0386C26.5584 38.1631 26.5851 38.286 26.6348 38.4002C26.6845 38.5144 26.7563 38.6177 26.846 38.704C26.935 38.7912 27.0404 38.86 27.1561 38.9062C27.2718 38.9525 27.3956 38.9753 27.5202 38.9735C27.6448 38.9716 27.7678 38.9451 27.8821 38.8954C27.9963 38.8457 28.0996 38.7739 28.186 38.684L29.994 36.825C30.0809 36.7358 30.1494 36.6303 30.1954 36.5146C30.2414 36.3989 30.2641 36.2752 30.2621 36.1507C30.2602 36.0261 30.2336 35.9032 30.184 35.789C30.1344 35.6747 30.0627 35.5714 29.973 35.485C29.884 35.3978 29.7786 35.329 29.663 35.2827C29.5473 35.2364 29.4236 35.2134 29.299 35.215ZM33.012 35.215V35.218C32.8874 35.2199 32.7644 35.2464 32.6501 35.296C32.5358 35.3456 32.4325 35.4173 32.346 35.507L30.537 37.364C30.4501 37.4533 30.3818 37.5588 30.3358 37.6746C30.2899 37.7904 30.2673 37.9141 30.2694 38.0386C30.2714 38.1631 30.2981 38.286 30.3478 38.4002C30.3975 38.5144 30.4692 38.6177 30.559 38.704C30.648 38.7912 30.7534 38.86 30.8691 38.9062C30.9848 38.9525 31.1086 38.9753 31.2332 38.9735C31.3578 38.9716 31.4808 38.9451 31.5951 38.8954C31.7093 38.8457 31.8126 38.7739 31.899 38.684L33.707 36.825C33.7939 36.7358 33.8622 36.6302 33.9081 36.5144C33.9541 36.3987 33.9767 36.275 33.9746 36.1504C33.9726 36.0259 33.9459 35.903 33.8962 35.7888C33.8465 35.6746 33.7747 35.5714 33.685 35.485C33.5961 35.3979 33.4909 35.3292 33.3754 35.2829C33.2599 35.2366 33.1364 35.2135 33.012 35.215ZM17.363 35.7C17.4545 35.7084 17.5409 35.7463 17.609 35.808C18.016 36.169 17.534 36.593 17.359 36.776L16.494 37.681C15.887 38.312 15.623 38.739 15.199 38.331C14.839 37.958 15.156 37.735 15.844 37.036L16.709 36.134C16.914 35.933 17.127 35.689 17.363 35.7ZM21.363 35.7C21.4545 35.7084 21.5409 35.7463 21.609 35.808C22.016 36.169 21.534 36.593 21.359 36.776L20.494 37.681C19.887 38.312 19.623 38.739 19.199 38.331C18.839 37.958 19.155 37.735 19.844 37.036L20.709 36.134C20.914 35.933 21.127 35.689 21.363 35.7ZM25.363 35.7C25.4545 35.7084 25.5409 35.7463 25.609 35.808C26.016 36.169 25.534 36.593 25.359 36.776L24.494 37.681C23.887 38.312 23.623 38.739 23.199 38.331C22.839 37.958 23.155 37.735 23.844 37.036L24.709 36.134C24.914 35.933 25.127 35.689 25.363 35.7ZM29.363 35.7C29.4545 35.7084 29.5409 35.7463 29.609 35.808C30.016 36.169 29.534 36.593 29.359 36.776L28.494 37.681C27.887 38.312 27.623 38.739 27.199 38.331C26.839 37.958 27.155 37.735 27.844 37.036L28.709 36.134C28.914 35.933 29.127 35.689 29.363 35.7ZM33.076 35.7C33.1675 35.7084 33.2539 35.7463 33.322 35.808C33.729 36.169 33.247 36.593 33.072 36.776L32.207 37.681C31.6 38.312 31.336 38.739 30.912 38.331C30.552 37.958 30.868 37.735 31.557 37.036L32.422 36.134C32.627 35.933 32.84 35.689 33.076 35.7Z" fill="#333333"/>
</svg>
