<svg width="48" height="48" viewBox="0 0 48 48" fill="none" xmlns="http://www.w3.org/2000/svg">
<path fill-rule="evenodd" clip-rule="evenodd" d="M0 -0.000244141V47.9998H48V-0.000244141H0ZM14.146 3.99976H33.852C34.721 3.99976 35.42 4.69876 35.42 5.56776V42.4288C35.42 43.2988 34.721 43.9988 33.852 43.9988H14.147C13.277 43.9988 12.578 43.2988 12.578 42.4288V5.56876C12.578 4.69876 13.277 3.99876 14.147 3.99876L14.146 3.99976ZM15.939 8.34476V8.34676C15.8144 8.34883 15.6914 8.37552 15.5771 8.42528C15.4628 8.47505 15.3594 8.54692 15.273 8.63676L13.465 10.4938C13.3783 10.5832 13.3102 10.6889 13.2645 10.8048C13.2189 10.9207 13.1965 11.0444 13.1989 11.169C13.2012 11.2935 13.2281 11.4163 13.2781 11.5304C13.328 11.6445 13.4001 11.7476 13.49 11.8338C13.5793 11.9205 13.6847 11.9888 13.8004 12.0348C13.9161 12.0807 14.0397 12.1034 14.1641 12.1015C14.2886 12.0997 14.4115 12.0733 14.5257 12.0239C14.64 11.9745 14.7434 11.9031 14.83 11.8138L16.639 9.95376C16.7255 9.86426 16.7934 9.75857 16.8389 9.64275C16.8844 9.52693 16.9066 9.40327 16.9041 9.27886C16.9017 9.15444 16.8748 9.03173 16.8248 8.91777C16.7748 8.80381 16.7029 8.70083 16.613 8.61476C16.5241 8.52766 16.4189 8.45897 16.3034 8.41263C16.1879 8.3663 16.0644 8.34323 15.94 8.34476H15.939ZM18.919 8.34476L18.922 8.34676C18.7973 8.34877 18.6743 8.37544 18.56 8.42521C18.4457 8.47498 18.3424 8.54688 18.256 8.63676L16.447 10.4938C16.272 10.6741 16.1757 10.9166 16.1795 11.1679C16.1832 11.4192 16.2867 11.6587 16.467 11.8338C16.6473 12.0088 16.8898 12.105 17.1411 12.1013C17.3924 12.0975 17.632 11.9941 17.807 11.8138L19.615 9.95376C19.7018 9.86458 19.7701 9.75915 19.816 9.64351C19.8619 9.52787 19.8846 9.4043 19.8826 9.27989C19.8807 9.15548 19.8542 9.03269 19.8046 8.91854C19.7551 8.8044 19.6835 8.70116 19.594 8.61476C19.505 8.52754 19.3996 8.45878 19.284 8.41244C19.1683 8.3661 19.0446 8.3431 18.92 8.34476H18.919ZM21.899 8.34476V8.34676C21.7742 8.3487 21.651 8.37532 21.5365 8.42509C21.422 8.47487 21.3185 8.5468 21.232 8.63676L19.424 10.4938C19.3371 10.5829 19.2686 10.6884 19.2226 10.8042C19.1766 10.9199 19.1539 11.0436 19.1559 11.1681C19.1578 11.2927 19.1844 11.4156 19.234 11.5298C19.2836 11.644 19.3553 11.7473 19.445 11.8338C19.5343 11.9205 19.6397 11.9888 19.7554 12.0348C19.8711 12.0807 19.9947 12.1034 20.1191 12.1015C20.2436 12.0997 20.3665 12.0733 20.4807 12.0239C20.595 11.9745 20.6984 11.9031 20.785 11.8138L22.594 9.95376C22.6807 9.86452 22.7489 9.75904 22.7948 9.64336C22.8406 9.52769 22.8632 9.4041 22.8611 9.27969C22.8591 9.15528 22.8325 9.03249 22.7829 8.91839C22.7333 8.80428 22.6616 8.7011 22.572 8.61476C22.483 8.52754 22.3776 8.45878 22.262 8.41244C22.1463 8.3661 22.0226 8.3431 21.898 8.34476H21.899ZM24.877 8.34476V8.34676C24.7524 8.34883 24.6294 8.37552 24.5151 8.42528C24.4008 8.47505 24.2974 8.54692 24.211 8.63676L22.402 10.4938C22.3154 10.5833 22.2473 10.689 22.2018 10.8049C22.1562 10.9209 22.1339 11.0446 22.1364 11.1692C22.1388 11.2937 22.1658 11.4165 22.2158 11.5306C22.2659 11.6446 22.338 11.7477 22.428 11.8338C22.5173 11.9205 22.6227 11.9888 22.7384 12.0348C22.8541 12.0807 22.9777 12.1034 23.1021 12.1015C23.2266 12.0997 23.3495 12.0733 23.4637 12.0239C23.578 11.9745 23.6814 11.9031 23.768 11.8138L25.576 9.95376C25.6625 9.86432 25.7305 9.75868 25.7761 9.6429C25.8217 9.52712 25.844 9.40347 25.8416 9.27906C25.8393 9.15465 25.8124 9.03192 25.7626 8.91792C25.7127 8.80392 25.6408 8.7009 25.551 8.61476C25.462 8.52754 25.3566 8.45878 25.241 8.41244C25.1253 8.3661 25.0016 8.3431 24.877 8.34476ZM27.857 8.34476L27.859 8.34676C27.7343 8.34877 27.6113 8.37544 27.497 8.42521C27.3827 8.47498 27.2794 8.54688 27.193 8.63676L25.385 10.4938C25.2983 10.5831 25.2301 10.6886 25.1842 10.8042C25.1383 10.9199 25.1156 11.0435 25.1175 11.1679C25.1193 11.2923 25.1457 11.4152 25.195 11.5294C25.2443 11.6437 25.3157 11.7471 25.405 11.8338C25.4943 11.9204 25.5998 11.9887 25.7155 12.0346C25.8311 12.0805 25.9547 12.1031 26.0791 12.1013C26.2036 12.0994 26.3264 12.0731 26.4407 12.0237C26.5549 11.9744 26.6583 11.9031 26.745 11.8138L28.553 9.95376C28.6397 9.86452 28.7079 9.75904 28.7538 9.64336C28.7996 9.52769 28.8222 9.4041 28.8201 9.27969C28.8181 9.15528 28.7915 9.03249 28.7419 8.91839C28.6923 8.80428 28.6206 8.7011 28.531 8.61476C28.442 8.52754 28.3366 8.45878 28.221 8.41244C28.1053 8.3661 27.9816 8.3431 27.857 8.34476ZM30.836 8.34476V8.34676C30.7114 8.34883 30.5884 8.37552 30.4741 8.42528C30.3598 8.47505 30.2564 8.54692 30.17 8.63676L28.361 10.4938C28.2741 10.583 28.2058 10.6886 28.1598 10.8043C28.1139 10.9201 28.0913 11.0438 28.0934 11.1683C28.0954 11.2929 28.1221 11.4158 28.1718 11.53C28.2215 11.6442 28.2933 11.7474 28.383 11.8338C28.4723 11.9205 28.5777 11.9888 28.6934 12.0348C28.8091 12.0807 28.9327 12.1034 29.0571 12.1015C29.1816 12.0997 29.3045 12.0733 29.4187 12.0239C29.533 11.9745 29.6364 11.9031 29.723 11.8138L31.531 9.95376C31.6178 9.86458 31.6861 9.75915 31.732 9.64351C31.7779 9.52787 31.8006 9.4043 31.7986 9.27989C31.7967 9.15548 31.7702 9.03269 31.7206 8.91854C31.6711 8.8044 31.5995 8.70116 31.51 8.61476C31.421 8.52754 31.3156 8.45878 31.2 8.41244C31.0843 8.3661 30.9606 8.3431 30.836 8.34476ZM33.815 8.34476V8.34676C33.6902 8.3487 33.567 8.37532 33.4525 8.42509C33.338 8.47487 33.2345 8.5468 33.148 8.63676L31.34 10.4938C31.2533 10.5832 31.1852 10.6889 31.1395 10.8048C31.0939 10.9207 31.0715 11.0444 31.0739 11.169C31.0762 11.2935 31.1031 11.4163 31.1531 11.5304C31.203 11.6445 31.2751 11.7476 31.365 11.8338C31.4543 11.9205 31.5597 11.9888 31.6754 12.0348C31.7911 12.0807 31.9147 12.1034 32.0391 12.1015C32.1636 12.0997 32.2865 12.0733 32.4007 12.0239C32.515 11.9745 32.6184 11.9031 32.705 11.8138L34.514 9.95376C34.6005 9.86426 34.6684 9.75857 34.7139 9.64275C34.7594 9.52693 34.7816 9.40327 34.7791 9.27886C34.7767 9.15444 34.7498 9.03173 34.6998 8.91777C34.6498 8.80381 34.5779 8.70083 34.488 8.61476C34.3991 8.52766 34.2939 8.45897 34.1784 8.41263C34.0629 8.3663 33.9394 8.34323 33.815 8.34476ZM13.595 14.8858C13.5803 14.886 13.5658 14.8892 13.5523 14.895C13.5388 14.9009 13.5266 14.9094 13.5164 14.92C13.5062 14.9306 13.4981 14.9431 13.4928 14.9567C13.4874 14.9704 13.4847 14.985 13.485 14.9998C13.485 15.0608 13.535 15.1118 13.595 15.1128C13.658 15.1128 13.708 15.0628 13.709 14.9998C13.7093 14.9848 13.7065 14.9699 13.701 14.956C13.6954 14.9422 13.6871 14.9295 13.6766 14.9189C13.666 14.9083 13.6535 14.8999 13.6396 14.8942C13.6258 14.8885 13.611 14.8856 13.596 14.8858H13.595ZM14.158 14.8858C14.1279 14.886 14.0992 14.8981 14.078 14.9195C14.0569 14.9408 14.045 14.9697 14.045 14.9998C14.045 15.0608 14.097 15.1128 14.158 15.1128C14.219 15.1128 14.268 15.0608 14.27 14.9998V14.9798C14.2661 14.9531 14.2525 14.9288 14.2319 14.9115C14.2112 14.8941 14.1849 14.885 14.158 14.8858ZM14.721 14.8858C14.706 14.8855 14.691 14.8882 14.6771 14.8939C14.6631 14.8995 14.6504 14.9079 14.6398 14.9185C14.6291 14.9292 14.6208 14.9419 14.6151 14.9558C14.6095 14.9698 14.6067 14.9847 14.607 14.9998C14.607 15.0618 14.659 15.1138 14.721 15.1128C14.781 15.1128 14.831 15.0608 14.832 14.9998V14.9798C14.8281 14.9533 14.8147 14.9291 14.7943 14.9118C14.7738 14.8945 14.7478 14.8852 14.721 14.8858ZM15.283 14.8858C15.268 14.8856 15.2532 14.8885 15.2394 14.8942C15.2255 14.8999 15.213 14.9083 15.2024 14.9189C15.1919 14.9295 15.1836 14.9422 15.178 14.956C15.1725 14.9699 15.1697 14.9848 15.17 14.9998C15.17 15.0618 15.221 15.1138 15.283 15.1128C15.344 15.1128 15.393 15.0608 15.395 14.9998V14.9918C15.3935 14.9631 15.381 14.9361 15.3601 14.9164C15.3393 14.8967 15.3117 14.8857 15.283 14.8858ZM15.846 14.8858C15.831 14.8855 15.816 14.8882 15.8021 14.8939C15.7881 14.8995 15.7754 14.9079 15.7648 14.9185C15.7541 14.9292 15.7458 14.9419 15.7401 14.9558C15.7345 14.9698 15.7317 14.9847 15.732 14.9998C15.732 15.0618 15.784 15.1138 15.846 15.1128C15.906 15.1128 15.956 15.0608 15.957 14.9998V14.9918C15.9555 14.9633 15.9431 14.9365 15.9225 14.9168C15.9019 14.8971 15.8745 14.886 15.846 14.8858ZM16.408 14.8858C16.393 14.8856 16.3782 14.8885 16.3644 14.8942C16.3505 14.8999 16.338 14.9083 16.3274 14.9189C16.3169 14.9295 16.3086 14.9422 16.303 14.956C16.2975 14.9699 16.2947 14.9848 16.295 14.9998C16.295 15.0618 16.346 15.1138 16.408 15.1128C16.469 15.1128 16.518 15.0608 16.519 14.9998V14.9918C16.5175 14.9634 16.5053 14.9368 16.4849 14.9171C16.4645 14.8974 16.4373 14.8862 16.409 14.8858H16.408ZM16.968 14.8858C16.9533 14.886 16.9388 14.8892 16.9253 14.895C16.9118 14.9009 16.8996 14.9094 16.8894 14.92C16.8792 14.9306 16.8711 14.9431 16.8658 14.9567C16.8604 14.9704 16.8577 14.985 16.858 14.9998C16.858 15.0608 16.908 15.1128 16.968 15.1128C16.9981 15.1128 17.0269 15.1009 17.0483 15.0797C17.0696 15.0586 17.0817 15.0298 17.082 14.9998V14.9918C17.0805 14.9629 17.0678 14.9358 17.0468 14.9161C17.0257 14.8963 16.9979 14.8855 16.969 14.8858H16.968ZM17.531 14.8858C17.5162 14.8859 17.5016 14.8889 17.488 14.8948C17.4744 14.9006 17.4621 14.909 17.4517 14.9196C17.4414 14.9302 17.4333 14.9428 17.4279 14.9565C17.4224 14.9703 17.4197 14.985 17.42 14.9998C17.42 15.0608 17.47 15.1128 17.531 15.1128C17.5611 15.1128 17.5899 15.1009 17.6113 15.0797C17.6326 15.0586 17.6447 15.0298 17.645 14.9998V14.9918C17.6434 14.9628 17.6307 14.9355 17.6094 14.9157C17.5882 14.8959 17.56 14.8852 17.531 14.8858ZM18.094 14.8858C18.0791 14.8858 18.0644 14.8887 18.0507 14.8945C18.037 14.9002 18.0245 14.9087 18.0141 14.9193C18.0037 14.9299 17.9955 14.9425 17.9899 14.9563C17.9844 14.9701 17.9817 14.9849 17.982 14.9998C17.982 15.0608 18.032 15.1128 18.094 15.1128C18.1239 15.1125 18.1525 15.1005 18.1736 15.0794C18.1947 15.0582 18.2067 15.0296 18.207 14.9998V14.9918C18.2055 14.9629 18.1928 14.9358 18.1718 14.9161C18.1507 14.8963 18.1229 14.8855 18.094 14.8858ZM18.656 14.8858C18.6412 14.8859 18.6266 14.8889 18.613 14.8948C18.5994 14.9006 18.5871 14.909 18.5767 14.9196C18.5664 14.9302 18.5583 14.9428 18.5529 14.9565C18.5474 14.9703 18.5447 14.985 18.545 14.9998C18.545 15.0608 18.595 15.1128 18.656 15.1128C18.718 15.1128 18.766 15.0608 18.768 14.9998V14.9798C18.7641 14.9531 18.7505 14.9288 18.7299 14.9115C18.7092 14.8941 18.6829 14.885 18.656 14.8858ZM19.219 14.8858C19.204 14.8855 19.189 14.8882 19.1751 14.8939C19.1611 14.8995 19.1484 14.9079 19.1378 14.9185C19.1271 14.9292 19.1188 14.9419 19.1131 14.9558C19.1075 14.9698 19.1047 14.9847 19.105 14.9998C19.106 15.0618 19.157 15.1138 19.219 15.1128C19.28 15.1128 19.329 15.0608 19.33 14.9998V14.9918C19.3285 14.9633 19.3161 14.9365 19.2955 14.9168C19.2749 14.8971 19.2475 14.886 19.219 14.8858ZM19.781 14.8858C19.766 14.8856 19.7512 14.8885 19.7374 14.8942C19.7235 14.8999 19.711 14.9083 19.7004 14.9189C19.6899 14.9295 19.6816 14.9422 19.676 14.956C19.6705 14.9699 19.6677 14.9848 19.668 14.9998C19.668 15.0618 19.719 15.1138 19.781 15.1128C19.843 15.1128 19.891 15.0608 19.893 14.9998V14.9918C19.8915 14.9631 19.879 14.9361 19.8581 14.9164C19.8373 14.8967 19.8097 14.8857 19.781 14.8858ZM20.344 14.8858C20.329 14.8855 20.314 14.8882 20.3001 14.8939C20.2861 14.8995 20.2734 14.9079 20.2628 14.9185C20.2521 14.9292 20.2438 14.9419 20.2381 14.9558C20.2325 14.9698 20.2297 14.9847 20.23 14.9998C20.23 15.0618 20.282 15.1138 20.344 15.1128C20.405 15.1128 20.454 15.0608 20.455 14.9998V14.9918C20.4535 14.9633 20.4411 14.9365 20.4205 14.9168C20.3999 14.8971 20.3725 14.886 20.344 14.8858ZM20.906 14.8858C20.891 14.8856 20.8762 14.8885 20.8624 14.8942C20.8485 14.8999 20.836 14.9083 20.8254 14.9189C20.8149 14.9295 20.8066 14.9422 20.801 14.956C20.7955 14.9699 20.7927 14.9848 20.793 14.9998C20.793 15.0618 20.844 15.1138 20.906 15.1128C20.968 15.1128 21.016 15.0608 21.018 14.9998V14.9918C21.0165 14.9631 21.004 14.9361 20.9831 14.9164C20.9623 14.8967 20.9347 14.8857 20.906 14.8858ZM21.466 14.8858C21.4377 14.8884 21.4115 14.9015 21.3924 14.9225C21.3733 14.9435 21.3627 14.9709 21.3627 14.9993C21.3627 15.0276 21.3733 15.055 21.3924 15.076C21.4115 15.097 21.4377 15.1101 21.466 15.1128C21.4961 15.1128 21.5249 15.1009 21.5463 15.0797C21.5676 15.0586 21.5797 15.0298 21.58 14.9998V14.9918C21.5785 14.9629 21.5658 14.9358 21.5448 14.9161C21.5237 14.8963 21.4959 14.8855 21.467 14.8858H21.466ZM22.029 14.8858C22.0007 14.8884 21.9745 14.9015 21.9554 14.9225C21.9363 14.9435 21.9257 14.9709 21.9257 14.9993C21.9257 15.0276 21.9363 15.055 21.9554 15.076C21.9745 15.097 22.0007 15.1101 22.029 15.1128C22.0591 15.1128 22.0879 15.1009 22.1093 15.0797C22.1306 15.0586 22.1427 15.0298 22.143 14.9998V14.9918C22.1414 14.9628 22.1287 14.9355 22.1074 14.9157C22.0862 14.8959 22.058 14.8852 22.029 14.8858ZM22.592 14.8858C22.5772 14.8859 22.5626 14.8889 22.549 14.8948C22.5354 14.9006 22.5231 14.909 22.5127 14.9196C22.5024 14.9302 22.4943 14.9428 22.4889 14.9565C22.4834 14.9703 22.4807 14.985 22.481 14.9998C22.481 15.0608 22.531 15.1118 22.591 15.1128C22.654 15.1128 22.704 15.0628 22.705 14.9998C22.7053 14.9848 22.7025 14.9699 22.697 14.956C22.6914 14.9422 22.6831 14.9295 22.6726 14.9189C22.662 14.9083 22.6495 14.8999 22.6356 14.8942C22.6218 14.8885 22.607 14.8856 22.592 14.8858ZM23.154 14.8858C23.1257 14.8884 23.0995 14.9015 23.0804 14.9225C23.0613 14.9435 23.0507 14.9709 23.0507 14.9993C23.0507 15.0276 23.0613 15.055 23.0804 15.076C23.0995 15.097 23.1257 15.1101 23.154 15.1128C23.215 15.1128 23.265 15.0608 23.266 14.9998V14.9798C23.2619 14.9532 23.2483 14.929 23.2277 14.9117C23.2071 14.8944 23.1809 14.8852 23.154 14.8858ZM23.717 14.8858C23.702 14.8856 23.6872 14.8885 23.6734 14.8942C23.6595 14.8999 23.647 14.9083 23.6364 14.9189C23.6259 14.9295 23.6176 14.9422 23.612 14.956C23.6065 14.9699 23.6037 14.9848 23.604 14.9998C23.604 15.0618 23.654 15.1138 23.717 15.1128C23.778 15.1128 23.827 15.0608 23.828 14.9998V14.9798C23.8241 14.9533 23.8107 14.9291 23.7903 14.9118C23.7698 14.8945 23.7438 14.8852 23.717 14.8858ZM24.279 14.8858C24.264 14.8856 24.2492 14.8885 24.2354 14.8942C24.2215 14.8999 24.209 14.9083 24.1984 14.9189C24.1879 14.9295 24.1796 14.9422 24.174 14.956C24.1685 14.9699 24.1657 14.9848 24.166 14.9998C24.166 15.0618 24.217 15.1138 24.279 15.1128C24.34 15.1128 24.389 15.0608 24.391 14.9998V14.9918C24.3895 14.9631 24.377 14.9361 24.3561 14.9164C24.3353 14.8967 24.3077 14.8857 24.279 14.8858ZM24.842 14.8858C24.827 14.8856 24.8122 14.8885 24.7984 14.8942C24.7845 14.8999 24.772 14.9083 24.7614 14.9189C24.7509 14.9295 24.7426 14.9422 24.737 14.956C24.7315 14.9699 24.7287 14.9848 24.729 14.9998C24.729 15.0618 24.779 15.1138 24.842 15.1128C24.903 15.1128 24.952 15.0608 24.953 14.9998V14.9918C24.9515 14.9633 24.9391 14.9365 24.9185 14.9168C24.8979 14.8971 24.8705 14.886 24.842 14.8858ZM25.402 14.8858C25.3872 14.8859 25.3726 14.8889 25.359 14.8948C25.3454 14.9006 25.3331 14.909 25.3227 14.9196C25.3124 14.9302 25.3043 14.9428 25.2989 14.9565C25.2934 14.9703 25.2907 14.985 25.291 14.9998C25.291 15.0608 25.341 15.1128 25.402 15.1128C25.4321 15.1128 25.4609 15.1009 25.4823 15.0797C25.5036 15.0586 25.5157 15.0298 25.516 14.9998V14.9918C25.5145 14.9628 25.5017 14.9355 25.4804 14.9157C25.4592 14.8959 25.431 14.8852 25.402 14.8858ZM25.965 14.8858C25.9502 14.8859 25.9356 14.8889 25.922 14.8948C25.9084 14.9006 25.8961 14.909 25.8857 14.9196C25.8754 14.9302 25.8673 14.9428 25.8619 14.9565C25.8564 14.9703 25.8537 14.985 25.854 14.9998C25.854 15.0608 25.904 15.1128 25.964 15.1128C25.9941 15.1128 26.0229 15.1009 26.0443 15.0797C26.0656 15.0586 26.0777 15.0298 26.078 14.9998V14.9918C26.0765 14.9629 26.0638 14.9358 26.0428 14.9161C26.0217 14.8963 25.9939 14.8855 25.965 14.8858ZM26.527 14.8858C26.5122 14.8859 26.4976 14.8889 26.484 14.8948C26.4704 14.9006 26.4581 14.909 26.4477 14.9196C26.4374 14.9302 26.4293 14.9428 26.4239 14.9565C26.4184 14.9703 26.4157 14.985 26.416 14.9998C26.416 15.0608 26.466 15.1128 26.527 15.1128C26.5571 15.1128 26.5859 15.1009 26.6073 15.0797C26.6286 15.0586 26.6407 15.0298 26.641 14.9998V14.9918C26.6395 14.9628 26.6267 14.9355 26.6054 14.9157C26.5842 14.8959 26.556 14.8852 26.527 14.8858ZM27.09 14.8858C27.0752 14.8859 27.0606 14.8889 27.047 14.8948C27.0334 14.9006 27.0211 14.909 27.0107 14.9196C27.0004 14.9302 26.9923 14.9428 26.9869 14.9565C26.9814 14.9703 26.9787 14.985 26.979 14.9998C26.979 15.0608 27.029 15.1118 27.089 15.1128C27.152 15.1128 27.202 15.0628 27.203 14.9998C27.2033 14.9848 27.2005 14.9699 27.195 14.956C27.1894 14.9422 27.1811 14.9295 27.1706 14.9189C27.16 14.9083 27.1475 14.8999 27.1336 14.8942C27.1198 14.8885 27.105 14.8856 27.09 14.8858ZM27.652 14.8858C27.6372 14.8859 27.6226 14.8889 27.609 14.8948C27.5954 14.9006 27.5831 14.909 27.5727 14.9196C27.5624 14.9302 27.5543 14.9428 27.5489 14.9565C27.5434 14.9703 27.5407 14.985 27.541 14.9998C27.541 15.0608 27.591 15.1128 27.652 15.1128C27.714 15.1128 27.762 15.0608 27.764 14.9998V14.9798C27.7601 14.9531 27.7465 14.9288 27.7259 14.9115C27.7052 14.8941 27.6789 14.885 27.652 14.8858ZM28.215 14.8858C28.2 14.8856 28.1852 14.8885 28.1714 14.8942C28.1575 14.8999 28.145 14.9083 28.1344 14.9189C28.1239 14.9295 28.1156 14.9422 28.11 14.956C28.1045 14.9699 28.1017 14.9848 28.102 14.9998C28.102 15.0618 28.152 15.1138 28.215 15.1128C28.276 15.1128 28.325 15.0608 28.326 14.9998V14.9918C28.3245 14.9633 28.3121 14.9365 28.2915 14.9168C28.2709 14.8971 28.2435 14.886 28.215 14.8858ZM28.777 14.8858C28.762 14.8856 28.7472 14.8885 28.7334 14.8942C28.7195 14.8999 28.707 14.9083 28.6964 14.9189C28.6859 14.9295 28.6776 14.9422 28.672 14.956C28.6665 14.9699 28.6637 14.9848 28.664 14.9998C28.664 15.0618 28.715 15.1138 28.777 15.1128C28.839 15.1128 28.887 15.0608 28.889 14.9998V14.9918C28.8875 14.9631 28.875 14.9361 28.8541 14.9164C28.8333 14.8967 28.8057 14.8857 28.777 14.8858ZM29.34 14.8858C29.325 14.8856 29.3102 14.8885 29.2964 14.8942C29.2825 14.8999 29.27 14.9083 29.2594 14.9189C29.2489 14.9295 29.2406 14.9422 29.235 14.956C29.2295 14.9699 29.2267 14.9848 29.227 14.9998C29.227 15.0618 29.277 15.1138 29.34 15.1128C29.401 15.1128 29.45 15.0608 29.451 14.9998V14.9918C29.4495 14.9633 29.4371 14.9365 29.4165 14.9168C29.3959 14.8971 29.3685 14.886 29.34 14.8858ZM29.9 14.8858C29.8853 14.886 29.8708 14.8892 29.8573 14.895C29.8438 14.9009 29.8316 14.9094 29.8214 14.92C29.8112 14.9306 29.8031 14.9431 29.7978 14.9567C29.7924 14.9704 29.7897 14.985 29.79 14.9998C29.79 15.0608 29.839 15.1128 29.9 15.1128C29.9301 15.1128 29.9589 15.1009 29.9803 15.0797C30.0016 15.0586 30.0137 15.0298 30.014 14.9998V14.9918C30.0124 14.9628 29.9997 14.9355 29.9784 14.9157C29.9572 14.8959 29.929 14.8852 29.9 14.8858ZM30.463 14.8858C30.4482 14.8859 30.4336 14.8889 30.42 14.8948C30.4064 14.9006 30.3941 14.909 30.3837 14.9196C30.3734 14.9302 30.3653 14.9428 30.3599 14.9565C30.3544 14.9703 30.3517 14.985 30.352 14.9998C30.352 15.0608 30.402 15.1128 30.462 15.1128C30.4921 15.1128 30.5209 15.1009 30.5423 15.0797C30.5636 15.0586 30.5757 15.0298 30.576 14.9998V14.9918C30.5745 14.9629 30.5618 14.9358 30.5408 14.9161C30.5197 14.8963 30.4919 14.8855 30.463 14.8858ZM31.025 14.8858C31.0103 14.886 30.9958 14.8892 30.9823 14.895C30.9688 14.9009 30.9566 14.9094 30.9464 14.92C30.9362 14.9306 30.9281 14.9431 30.9228 14.9567C30.9174 14.9704 30.9147 14.985 30.915 14.9998C30.915 15.0608 30.964 15.1128 31.025 15.1128C31.0551 15.1128 31.0839 15.1009 31.1053 15.0797C31.1266 15.0586 31.1387 15.0298 31.139 14.9998V14.9918C31.1374 14.9628 31.1247 14.9355 31.1034 14.9157C31.0822 14.8959 31.054 14.8852 31.025 14.8858ZM31.588 14.8858C31.5732 14.8859 31.5586 14.8889 31.545 14.8948C31.5314 14.9006 31.5191 14.909 31.5087 14.9196C31.4984 14.9302 31.4903 14.9428 31.4849 14.9565C31.4794 14.9703 31.4767 14.985 31.477 14.9998C31.477 15.0608 31.527 15.1128 31.587 15.1128C31.649 15.1128 31.698 15.0608 31.699 14.9998V14.9798C31.6951 14.9533 31.6817 14.9291 31.6613 14.9118C31.6408 14.8945 31.6148 14.8852 31.588 14.8858ZM32.15 14.8858C32.135 14.8856 32.1202 14.8885 32.1064 14.8942C32.0925 14.8999 32.08 14.9083 32.0694 14.9189C32.0589 14.9295 32.0506 14.9422 32.045 14.956C32.0395 14.9699 32.0367 14.9848 32.037 14.9998C32.037 15.0618 32.088 15.1138 32.15 15.1128C32.212 15.1128 32.261 15.0608 32.262 14.9998V14.9798C32.2581 14.9531 32.2445 14.9288 32.2239 14.9115C32.2032 14.8941 32.1769 14.885 32.15 14.8858ZM32.713 14.8858C32.698 14.8856 32.6832 14.8885 32.6694 14.8942C32.6555 14.8999 32.643 14.9083 32.6324 14.9189C32.6219 14.9295 32.6136 14.9422 32.608 14.956C32.6025 14.9699 32.5997 14.9848 32.6 14.9998C32.6 15.0618 32.65 15.1138 32.713 15.1128C32.774 15.1128 32.823 15.0608 32.824 14.9998V14.9918C32.8225 14.9633 32.8101 14.9365 32.7895 14.9168C32.7689 14.8971 32.7415 14.886 32.713 14.8858ZM33.275 14.8858C33.26 14.8856 33.2452 14.8885 33.2314 14.8942C33.2175 14.8999 33.205 14.9083 33.1944 14.9189C33.1839 14.9295 33.1756 14.9422 33.17 14.956C33.1645 14.9699 33.1617 14.9848 33.162 14.9998C33.162 15.0618 33.213 15.1138 33.275 15.1128C33.337 15.1128 33.386 15.0608 33.387 14.9998V14.9918C33.3855 14.9631 33.373 14.9361 33.3521 14.9164C33.3313 14.8967 33.3037 14.8857 33.275 14.8858ZM33.838 14.8858C33.823 14.8856 33.8082 14.8885 33.7944 14.8942C33.7805 14.8999 33.768 14.9083 33.7574 14.9189C33.7469 14.9295 33.7386 14.9422 33.733 14.956C33.7275 14.9699 33.7247 14.9848 33.725 14.9998C33.725 15.0618 33.775 15.1138 33.838 15.1128C33.899 15.1128 33.948 15.0608 33.949 14.9998V14.9918C33.9475 14.9633 33.9351 14.9365 33.9145 14.9168C33.8939 14.8971 33.8665 14.886 33.838 14.8858ZM34.398 14.8858C34.3833 14.886 34.3688 14.8892 34.3553 14.895C34.3418 14.9009 34.3296 14.9094 34.3194 14.92C34.3092 14.9306 34.3011 14.9431 34.2958 14.9567C34.2904 14.9704 34.2877 14.985 34.288 14.9998C34.288 15.0608 34.337 15.1128 34.398 15.1128C34.4281 15.1128 34.4569 15.1009 34.4783 15.0797C34.4996 15.0586 34.5117 15.0298 34.512 14.9998V14.9918C34.5105 14.9628 34.4977 14.9355 34.4764 14.9157C34.4552 14.8959 34.427 14.8852 34.398 14.8858ZM15.961 17.5328V17.5348C15.8364 17.5366 15.7134 17.5631 15.5991 17.6127C15.4848 17.6623 15.3815 17.7341 15.295 17.8238L13.486 19.6808C13.3994 19.7703 13.3313 19.876 13.2858 19.9919C13.2402 20.1079 13.2179 20.2316 13.2204 20.3562C13.2228 20.4807 13.2498 20.6035 13.2998 20.7176C13.3499 20.8316 13.422 20.9347 13.512 21.0208C13.6013 21.1075 13.7067 21.1758 13.8224 21.2218C13.9381 21.2677 14.0617 21.2904 14.1861 21.2885C14.3106 21.2867 14.4335 21.2603 14.5477 21.2109C14.662 21.1615 14.7654 21.0901 14.852 21.0008L16.66 19.1418C16.7467 19.0523 16.8148 18.9466 16.8605 18.8307C16.9061 18.7148 16.9285 18.5911 16.9261 18.4666C16.9238 18.342 16.8969 18.2192 16.8469 18.1051C16.797 17.991 16.7249 17.8879 16.635 17.8018C16.5459 17.7148 16.4405 17.6462 16.3248 17.6001C16.2092 17.5539 16.0855 17.531 15.961 17.5328ZM18.941 17.5328V17.5348C18.8164 17.5366 18.6934 17.5631 18.5791 17.6127C18.4648 17.6623 18.3615 17.7341 18.275 17.8238L16.467 19.6808C16.3801 19.7699 16.3116 19.8754 16.2656 19.9912C16.2196 20.1069 16.1969 20.2306 16.1989 20.3551C16.2008 20.4797 16.2274 20.6026 16.277 20.7168C16.3266 20.831 16.3983 20.9343 16.488 21.0208C16.5773 21.1075 16.6827 21.1758 16.7984 21.2218C16.9141 21.2677 17.0377 21.2904 17.1621 21.2885C17.2866 21.2867 17.4095 21.2603 17.5237 21.2109C17.638 21.1615 17.7414 21.0901 17.828 21.0008L19.637 19.1418C19.7239 19.0525 19.7922 18.947 19.8382 18.8312C19.8841 18.7154 19.9067 18.5917 19.9046 18.4672C19.9026 18.3427 19.8759 18.2198 19.8262 18.1056C19.7765 17.9914 19.7047 17.8881 19.615 17.8018C19.5259 17.7147 19.4205 17.6461 19.3049 17.6C19.1892 17.5538 19.0655 17.531 18.941 17.5328ZM21.92 17.5328L21.922 17.5348C21.7974 17.5366 21.6744 17.5631 21.5601 17.6127C21.4458 17.6623 21.3425 17.7341 21.256 17.8238L19.447 19.6808C19.3603 19.7701 19.2921 19.8756 19.2462 19.9912C19.2003 20.1069 19.1776 20.2305 19.1795 20.3549C19.1813 20.4793 19.2077 20.6022 19.257 20.7164C19.3063 20.8307 19.3777 20.9341 19.467 21.0208C19.5563 21.1074 19.6618 21.1757 19.7775 21.2216C19.8931 21.2675 20.0167 21.2901 20.1411 21.2883C20.2656 21.2864 20.3884 21.2601 20.5027 21.2107C20.6169 21.1614 20.7203 21.0901 20.807 21.0008L22.615 19.1418C22.7019 19.0526 22.7704 18.9471 22.8164 18.8313C22.8624 18.7156 22.8851 18.5919 22.8831 18.4674C22.8812 18.3429 22.8546 18.2199 22.805 18.1057C22.7554 17.9915 22.6837 17.8882 22.594 17.8018C22.5049 17.7147 22.3995 17.6461 22.2839 17.6C22.1682 17.5538 22.0445 17.531 21.92 17.5328ZM24.898 17.5328V17.5348C24.7734 17.5366 24.6504 17.5631 24.5361 17.6127C24.4218 17.6623 24.3185 17.7341 24.232 17.8238L22.424 19.6808C22.3373 19.7702 22.2692 19.8759 22.2235 19.9918C22.1779 20.1077 22.1555 20.2314 22.1579 20.356C22.1602 20.4805 22.1871 20.6033 22.2371 20.7174C22.287 20.8315 22.3591 20.9346 22.449 21.0208C22.5383 21.1075 22.6437 21.1758 22.7594 21.2218C22.8751 21.2677 22.9987 21.2904 23.1231 21.2885C23.2476 21.2867 23.3705 21.2603 23.4847 21.2109C23.599 21.1615 23.7024 21.0901 23.789 21.0008L25.598 19.1418C25.6846 19.0522 25.7527 18.9465 25.7982 18.8306C25.8438 18.7147 25.8661 18.5909 25.8636 18.4663C25.8612 18.3418 25.8342 18.219 25.7842 18.1049C25.7341 17.9909 25.662 17.8878 25.572 17.8018C25.4829 17.7148 25.3775 17.6462 25.2618 17.6001C25.1462 17.5539 25.0225 17.531 24.898 17.5328ZM27.878 17.5328V17.5348C27.7536 17.5368 27.6308 17.5633 27.5167 17.6129C27.4026 17.6625 27.2994 17.7342 27.213 17.8238L25.404 19.6808C25.3171 19.77 25.2488 19.8756 25.2029 19.9913C25.1569 20.1071 25.1343 20.2308 25.1364 20.3553C25.1384 20.4799 25.1651 20.6028 25.2148 20.717C25.2645 20.8312 25.3363 20.9344 25.426 21.0208C25.5153 21.1075 25.6207 21.1758 25.7364 21.2218C25.8521 21.2677 25.9757 21.2904 26.1001 21.2885C26.2246 21.2867 26.3475 21.2603 26.4617 21.2109C26.576 21.1615 26.6794 21.0901 26.766 21.0008L28.574 19.1418C28.6609 19.0526 28.7294 18.9471 28.7754 18.8313C28.8214 18.7156 28.8441 18.5919 28.8421 18.4674C28.8402 18.3429 28.8136 18.2199 28.764 18.1057C28.7144 17.9915 28.6427 17.8882 28.553 17.8018C28.4639 17.7147 28.3585 17.6461 28.2429 17.6C28.1272 17.5538 28.0035 17.531 27.879 17.5328H27.878ZM30.858 17.5328L30.859 17.5348C30.7344 17.5366 30.6114 17.5631 30.4971 17.6127C30.3828 17.6623 30.2795 17.7341 30.193 17.8238L28.383 19.6808C28.2961 19.7699 28.2276 19.8754 28.1816 19.9912C28.1356 20.1069 28.1129 20.2306 28.1149 20.3551C28.1168 20.4797 28.1434 20.6026 28.193 20.7168C28.2426 20.831 28.3143 20.9343 28.404 21.0208C28.4933 21.1075 28.5987 21.1758 28.7144 21.2218C28.8301 21.2677 28.9537 21.2904 29.0781 21.2885C29.2026 21.2867 29.3255 21.2603 29.4397 21.2109C29.554 21.1615 29.6574 21.0901 29.744 21.0008L31.553 19.1418C31.6399 19.0525 31.7082 18.947 31.7542 18.8312C31.8001 18.7154 31.8227 18.5917 31.8206 18.4672C31.8186 18.3427 31.7919 18.2198 31.7422 18.1056C31.6925 17.9914 31.6207 17.8881 31.531 17.8018C31.4419 17.7147 31.3365 17.6461 31.2208 17.6C31.1052 17.5538 30.9815 17.531 30.857 17.5328H30.858ZM33.836 17.5328V17.5348C33.7114 17.5366 33.5884 17.5631 33.4741 17.6127C33.3598 17.6623 33.2565 17.7341 33.17 17.8238L31.361 19.6808C31.2744 19.7703 31.2063 19.876 31.1608 19.9919C31.1152 20.1079 31.0929 20.2316 31.0954 20.3562C31.0978 20.4807 31.1248 20.6035 31.1748 20.7176C31.2249 20.8316 31.297 20.9347 31.387 21.0208C31.4763 21.1075 31.5817 21.1758 31.6974 21.2218C31.8131 21.2677 31.9367 21.2904 32.0611 21.2885C32.1856 21.2867 32.3085 21.2603 32.4227 21.2109C32.537 21.1615 32.6404 21.0901 32.727 21.0008L34.535 19.1418C34.6217 19.0523 34.6898 18.9466 34.7355 18.8307C34.7811 18.7148 34.8035 18.5911 34.8011 18.4666C34.7988 18.342 34.7719 18.2192 34.7219 18.1051C34.672 17.991 34.5999 17.8879 34.51 17.8018C34.4209 17.7148 34.3155 17.6462 34.1998 17.6001C34.0842 17.5539 33.9605 17.531 33.836 17.5328ZM13.596 23.8868C13.5812 23.8868 13.5666 23.8897 13.5529 23.8954C13.5393 23.9011 13.5269 23.9094 13.5164 23.9199C13.506 23.9304 13.4978 23.9429 13.4922 23.9566C13.4867 23.9703 13.4839 23.985 13.484 23.9998C13.484 24.0608 13.534 24.1118 13.596 24.1128C13.658 24.1128 13.708 24.0628 13.709 23.9998C13.7093 23.9848 13.7065 23.9699 13.701 23.956C13.6954 23.9422 13.6871 23.9295 13.6766 23.9189C13.666 23.9083 13.6535 23.8999 13.6396 23.8942C13.6258 23.8885 13.611 23.8856 13.596 23.8858V23.8868ZM14.158 23.8868C14.1281 23.887 14.0995 23.899 14.0784 23.9201C14.0573 23.9413 14.0453 23.9699 14.045 23.9998C14.045 24.0608 14.097 24.1128 14.158 24.1128C14.219 24.1128 14.268 24.0608 14.27 23.9998V23.9798C14.2661 23.9531 14.2525 23.9288 14.2319 23.9115C14.2112 23.8941 14.1849 23.885 14.158 23.8858V23.8868ZM14.721 23.8868C14.706 23.8865 14.6912 23.8892 14.6773 23.8948C14.6634 23.9004 14.6508 23.9087 14.6401 23.9192C14.6295 23.9297 14.6211 23.9423 14.6154 23.9561C14.6097 23.97 14.6069 23.9848 14.607 23.9998C14.607 24.0618 14.659 24.1138 14.721 24.1128C14.781 24.1128 14.831 24.0608 14.832 23.9998V23.9798C14.8281 23.9533 14.8147 23.9291 14.7943 23.9118C14.7738 23.8945 14.7478 23.8852 14.721 23.8858V23.8868ZM15.283 23.8868C15.2681 23.8866 15.2534 23.8895 15.2396 23.8951C15.2258 23.9007 15.2133 23.909 15.2028 23.9196C15.1923 23.9301 15.184 23.9426 15.1783 23.9564C15.1727 23.9701 15.1699 23.9849 15.17 23.9998C15.17 24.0618 15.221 24.1138 15.283 24.1128C15.344 24.1128 15.393 24.0608 15.395 23.9998V23.9918C15.3932 23.9633 15.3806 23.9366 15.3598 23.917C15.339 23.8975 15.3115 23.8867 15.283 23.8868ZM15.846 23.8868C15.831 23.8865 15.8162 23.8892 15.8023 23.8948C15.7884 23.9004 15.7758 23.9087 15.7651 23.9192C15.7545 23.9297 15.7461 23.9423 15.7404 23.9561C15.7347 23.97 15.7319 23.9848 15.732 23.9998C15.732 24.0618 15.784 24.1138 15.846 24.1128C15.906 24.1128 15.956 24.0608 15.957 23.9998V23.9918C15.9552 23.9635 15.9428 23.9369 15.9222 23.9174C15.9016 23.8979 15.8744 23.887 15.846 23.8868ZM16.408 23.8868C16.3931 23.8866 16.3784 23.8895 16.3646 23.8951C16.3508 23.9007 16.3383 23.909 16.3278 23.9196C16.3173 23.9301 16.309 23.9426 16.3033 23.9564C16.2977 23.9701 16.2949 23.9849 16.295 23.9998C16.295 24.0618 16.346 24.1138 16.408 24.1128C16.469 24.1128 16.518 24.0608 16.519 23.9998V23.9918C16.5172 23.9636 16.5049 23.9372 16.4846 23.9177C16.4642 23.8983 16.4372 23.8872 16.409 23.8868H16.408ZM16.968 23.8868C16.9385 23.8873 16.9103 23.8995 16.8897 23.9206C16.8691 23.9418 16.8577 23.9702 16.858 23.9998C16.858 24.0608 16.908 24.1128 16.968 24.1128C16.9981 24.1128 17.0269 24.1009 17.0483 24.0797C17.0696 24.0586 17.0817 24.0298 17.082 23.9998V23.9918C17.0802 23.9631 17.0675 23.9362 17.0465 23.9167C17.0254 23.8972 16.9977 23.8864 16.969 23.8868H16.968ZM17.531 23.8868C17.5163 23.8869 17.5018 23.8899 17.4882 23.8957C17.4747 23.9014 17.4624 23.9098 17.4521 23.9203C17.4418 23.9308 17.4336 23.9432 17.4281 23.9568C17.4226 23.9705 17.4199 23.985 17.42 23.9998C17.42 24.0608 17.47 24.1128 17.531 24.1128C17.5611 24.1128 17.5899 24.1009 17.6113 24.0797C17.6326 24.0586 17.6447 24.0298 17.645 23.9998V23.9918C17.6432 23.9629 17.6303 23.9359 17.6091 23.9164C17.5879 23.8968 17.5599 23.8862 17.531 23.8868ZM18.094 23.8868C18.0792 23.8868 18.0646 23.8897 18.0509 23.8954C18.0373 23.9011 18.0249 23.9094 18.0144 23.9199C18.004 23.9304 17.9958 23.9429 17.9902 23.9566C17.9847 23.9703 17.9819 23.985 17.982 23.9998C17.982 24.0608 18.032 24.1128 18.094 24.1128C18.1239 24.1125 18.1525 24.1005 18.1736 24.0794C18.1947 24.0582 18.2067 24.0296 18.207 23.9998V23.9918C18.2052 23.9631 18.1925 23.9362 18.1715 23.9167C18.1504 23.8972 18.1227 23.8864 18.094 23.8868ZM18.656 23.8868C18.6413 23.8869 18.6268 23.8899 18.6132 23.8957C18.5997 23.9014 18.5874 23.9098 18.5771 23.9203C18.5668 23.9308 18.5586 23.9432 18.5531 23.9568C18.5476 23.9705 18.5449 23.985 18.545 23.9998C18.545 24.0608 18.595 24.1128 18.656 24.1128C18.718 24.1128 18.766 24.0608 18.768 23.9998V23.9798C18.7641 23.9531 18.7505 23.9288 18.7299 23.9115C18.7092 23.8941 18.6829 23.885 18.656 23.8858V23.8868ZM19.219 23.8868C19.204 23.8865 19.1892 23.8892 19.1753 23.8948C19.1614 23.9004 19.1488 23.9087 19.1381 23.9192C19.1275 23.9297 19.1191 23.9423 19.1134 23.9561C19.1077 23.97 19.1049 23.9848 19.105 23.9998C19.106 24.0618 19.157 24.1138 19.219 24.1128C19.28 24.1128 19.329 24.0608 19.33 23.9998V23.9918C19.3282 23.9635 19.3158 23.9369 19.2952 23.9174C19.2746 23.8979 19.2474 23.887 19.219 23.8868ZM19.781 23.8868C19.7661 23.8866 19.7514 23.8895 19.7376 23.8951C19.7238 23.9007 19.7113 23.909 19.7008 23.9196C19.6903 23.9301 19.682 23.9426 19.6763 23.9564C19.6707 23.9701 19.6679 23.9849 19.668 23.9998C19.668 24.0618 19.719 24.1138 19.781 24.1128C19.843 24.1128 19.891 24.0608 19.893 23.9998V23.9918C19.8912 23.9633 19.8786 23.9366 19.8578 23.917C19.837 23.8975 19.8095 23.8867 19.781 23.8868ZM20.344 23.8868C20.329 23.8865 20.3142 23.8892 20.3003 23.8948C20.2864 23.9004 20.2738 23.9087 20.2631 23.9192C20.2525 23.9297 20.2441 23.9423 20.2384 23.9561C20.2327 23.97 20.2299 23.9848 20.23 23.9998C20.23 24.0618 20.282 24.1138 20.344 24.1128C20.405 24.1128 20.454 24.0608 20.455 23.9998V23.9918C20.4532 23.9635 20.4408 23.9369 20.4202 23.9174C20.3996 23.8979 20.3724 23.887 20.344 23.8868ZM20.906 23.8868C20.8911 23.8866 20.8764 23.8895 20.8626 23.8951C20.8488 23.9007 20.8363 23.909 20.8258 23.9196C20.8153 23.9301 20.807 23.9426 20.8013 23.9564C20.7957 23.9701 20.7929 23.9849 20.793 23.9998C20.793 24.0618 20.844 24.1138 20.906 24.1128C20.968 24.1128 21.016 24.0608 21.018 23.9998V23.9918C21.0162 23.9633 21.0036 23.9366 20.9828 23.917C20.962 23.8975 20.9345 23.8867 20.906 23.8868ZM21.466 23.8868C21.4377 23.8894 21.4115 23.9025 21.3924 23.9235C21.3733 23.9445 21.3627 23.9719 21.3627 24.0003C21.3627 24.0286 21.3733 24.056 21.3924 24.077C21.4115 24.098 21.4377 24.1111 21.466 24.1138C21.4962 24.1138 21.5252 24.1017 21.5466 24.0804C21.568 24.059 21.58 24.03 21.58 23.9998V23.9918C21.5782 23.9631 21.5655 23.9362 21.5445 23.9167C21.5234 23.8972 21.4957 23.8864 21.467 23.8868H21.466ZM22.029 23.8868C22.0007 23.8894 21.9745 23.9025 21.9554 23.9235C21.9363 23.9445 21.9257 23.9719 21.9257 24.0003C21.9257 24.0286 21.9363 24.056 21.9554 24.077C21.9745 24.098 22.0007 24.1111 22.029 24.1138C22.044 24.1138 22.0588 24.1108 22.0726 24.1051C22.0865 24.0993 22.099 24.091 22.1096 24.0804C22.1202 24.0698 22.1286 24.0572 22.1343 24.0434C22.1401 24.0296 22.143 24.0147 22.143 23.9998V23.9918C22.1412 23.9629 22.1283 23.9359 22.1071 23.9164C22.0859 23.8968 22.0579 23.8862 22.029 23.8868ZM22.592 23.8868C22.5773 23.8869 22.5628 23.8899 22.5492 23.8957C22.5357 23.9014 22.5234 23.9098 22.5131 23.9203C22.5028 23.9308 22.4946 23.9432 22.4891 23.9568C22.4836 23.9705 22.4809 23.985 22.481 23.9998C22.481 24.0608 22.531 24.1118 22.591 24.1128C22.654 24.1128 22.704 24.0628 22.705 23.9998C22.7053 23.9848 22.7025 23.9699 22.697 23.956C22.6914 23.9422 22.6831 23.9295 22.6726 23.9189C22.662 23.9083 22.6495 23.8999 22.6356 23.8942C22.6218 23.8885 22.607 23.8856 22.592 23.8858V23.8868ZM23.154 23.8868C23.1257 23.8894 23.0995 23.9025 23.0804 23.9235C23.0613 23.9445 23.0507 23.9719 23.0507 24.0003C23.0507 24.0286 23.0613 24.056 23.0804 24.077C23.0995 24.098 23.1257 24.1111 23.154 24.1138C23.215 24.1128 23.265 24.0608 23.266 23.9998V23.9798C23.2619 23.9532 23.2483 23.929 23.2277 23.9117C23.2071 23.8944 23.1809 23.8852 23.154 23.8858V23.8868ZM23.717 23.8868C23.7021 23.8866 23.6874 23.8895 23.6736 23.8951C23.6598 23.9007 23.6473 23.909 23.6368 23.9196C23.6263 23.9301 23.618 23.9426 23.6123 23.9564C23.6067 23.9701 23.6039 23.9849 23.604 23.9998C23.604 24.0618 23.654 24.1138 23.717 24.1128C23.778 24.1128 23.827 24.0608 23.828 23.9998V23.9798C23.8241 23.9533 23.8107 23.9291 23.7903 23.9118C23.7698 23.8945 23.7438 23.8852 23.717 23.8858V23.8868ZM24.279 23.8868C24.2641 23.8866 24.2494 23.8895 24.2356 23.8951C24.2218 23.9007 24.2093 23.909 24.1988 23.9196C24.1883 23.9301 24.18 23.9426 24.1743 23.9564C24.1687 23.9701 24.1659 23.9849 24.166 23.9998C24.166 24.0618 24.217 24.1138 24.279 24.1128C24.34 24.1128 24.389 24.0608 24.391 23.9998V23.9918C24.3892 23.9633 24.3766 23.9366 24.3558 23.917C24.335 23.8975 24.3075 23.8867 24.279 23.8868ZM24.842 23.8868C24.8271 23.8866 24.8124 23.8895 24.7986 23.8951C24.7848 23.9007 24.7723 23.909 24.7618 23.9196C24.7513 23.9301 24.743 23.9426 24.7373 23.9564C24.7317 23.9701 24.7289 23.9849 24.729 23.9998C24.729 24.0618 24.779 24.1138 24.842 24.1128C24.903 24.1128 24.952 24.0608 24.953 23.9998V23.9918C24.9512 23.9635 24.9388 23.9369 24.9182 23.9174C24.8976 23.8979 24.8704 23.887 24.842 23.8868ZM25.402 23.8868C25.3873 23.8869 25.3728 23.8899 25.3592 23.8957C25.3457 23.9014 25.3334 23.9098 25.3231 23.9203C25.3128 23.9308 25.3046 23.9432 25.2991 23.9568C25.2936 23.9705 25.2909 23.985 25.291 23.9998C25.291 24.0608 25.341 24.1128 25.402 24.1128C25.4321 24.1128 25.4609 24.1009 25.4823 24.0797C25.5036 24.0586 25.5157 24.0298 25.516 23.9998V23.9918C25.5142 23.9629 25.5013 23.9359 25.4801 23.9164C25.4589 23.8968 25.4309 23.8862 25.402 23.8868ZM25.965 23.8868C25.9503 23.8869 25.9358 23.8899 25.9222 23.8957C25.9087 23.9014 25.8964 23.9098 25.8861 23.9203C25.8758 23.9308 25.8676 23.9432 25.8621 23.9568C25.8566 23.9705 25.8539 23.985 25.854 23.9998C25.854 24.0608 25.904 24.1128 25.964 24.1128C25.9941 24.1128 26.0229 24.1009 26.0443 24.0797C26.0656 24.0586 26.0777 24.0298 26.078 23.9998V23.9918C26.0762 23.9631 26.0635 23.9362 26.0425 23.9167C26.0214 23.8972 25.9937 23.8864 25.965 23.8868ZM26.527 23.8868C26.5123 23.8869 26.4978 23.8899 26.4842 23.8957C26.4707 23.9014 26.4584 23.9098 26.4481 23.9203C26.4378 23.9308 26.4296 23.9432 26.4241 23.9568C26.4186 23.9705 26.4159 23.985 26.416 23.9998C26.416 24.0608 26.466 24.1128 26.527 24.1128C26.5571 24.1128 26.5859 24.1009 26.6073 24.0797C26.6286 24.0586 26.6407 24.0298 26.641 23.9998V23.9918C26.6392 23.9629 26.6263 23.9359 26.6051 23.9164C26.5839 23.8968 26.5559 23.8862 26.527 23.8868ZM27.09 23.8868C27.0753 23.8869 27.0608 23.8899 27.0472 23.8957C27.0337 23.9014 27.0214 23.9098 27.0111 23.9203C27.0008 23.9308 26.9926 23.9432 26.9871 23.9568C26.9816 23.9705 26.9789 23.985 26.979 23.9998C26.979 24.0608 27.029 24.1118 27.089 24.1128C27.152 24.1128 27.202 24.0628 27.203 23.9998C27.2033 23.9848 27.2005 23.9699 27.195 23.956C27.1894 23.9422 27.1811 23.9295 27.1706 23.9189C27.16 23.9083 27.1475 23.8999 27.1336 23.8942C27.1198 23.8885 27.105 23.8856 27.09 23.8858V23.8868ZM27.652 23.8868C27.6373 23.8869 27.6228 23.8899 27.6092 23.8957C27.5957 23.9014 27.5834 23.9098 27.5731 23.9203C27.5628 23.9308 27.5546 23.9432 27.5491 23.9568C27.5436 23.9705 27.5409 23.985 27.541 23.9998C27.541 24.0608 27.591 24.1128 27.652 24.1128C27.714 24.1128 27.762 24.0608 27.764 23.9998V23.9798C27.7601 23.9531 27.7465 23.9288 27.7259 23.9115C27.7052 23.8941 27.6789 23.885 27.652 23.8858V23.8868ZM28.215 23.8868C28.2001 23.8866 28.1854 23.8895 28.1716 23.8951C28.1578 23.9007 28.1453 23.909 28.1348 23.9196C28.1243 23.9301 28.116 23.9426 28.1103 23.9564C28.1047 23.9701 28.1019 23.9849 28.102 23.9998C28.102 24.0618 28.152 24.1138 28.215 24.1128C28.276 24.1128 28.325 24.0608 28.326 23.9998V23.9918C28.3242 23.9635 28.3118 23.9369 28.2912 23.9174C28.2706 23.8979 28.2434 23.887 28.215 23.8868ZM28.777 23.8868C28.7621 23.8866 28.7474 23.8895 28.7336 23.8951C28.7198 23.9007 28.7073 23.909 28.6968 23.9196C28.6863 23.9301 28.678 23.9426 28.6723 23.9564C28.6667 23.9701 28.6639 23.9849 28.664 23.9998C28.664 24.0618 28.715 24.1138 28.777 24.1128C28.839 24.1128 28.887 24.0608 28.889 23.9998V23.9918C28.8872 23.9633 28.8746 23.9366 28.8538 23.917C28.833 23.8975 28.8055 23.8867 28.777 23.8868ZM29.34 23.8868C29.3251 23.8866 29.3104 23.8895 29.2966 23.8951C29.2828 23.9007 29.2703 23.909 29.2598 23.9196C29.2493 23.9301 29.241 23.9426 29.2353 23.9564C29.2297 23.9701 29.2269 23.9849 29.227 23.9998C29.227 24.0618 29.277 24.1138 29.34 24.1128C29.401 24.1128 29.45 24.0608 29.451 23.9998V23.9918C29.4492 23.9635 29.4368 23.9369 29.4162 23.9174C29.3956 23.8979 29.3684 23.887 29.34 23.8868ZM29.9 23.8868C29.8705 23.8873 29.8423 23.8995 29.8217 23.9206C29.8011 23.9418 29.7897 23.9702 29.79 23.9998C29.79 24.0608 29.839 24.1128 29.9 24.1128C29.9301 24.1128 29.9589 24.1009 29.9803 24.0797C30.0016 24.0586 30.0137 24.0298 30.014 23.9998V23.9918C30.0122 23.9629 29.9993 23.9359 29.9781 23.9164C29.9569 23.8968 29.9289 23.8862 29.9 23.8868ZM30.463 23.8868C30.4483 23.8869 30.4338 23.8899 30.4202 23.8957C30.4067 23.9014 30.3944 23.9098 30.3841 23.9203C30.3738 23.9308 30.3656 23.9432 30.3601 23.9568C30.3546 23.9705 30.3519 23.985 30.352 23.9998C30.352 24.0608 30.402 24.1128 30.462 24.1128C30.4921 24.1128 30.5209 24.1009 30.5423 24.0797C30.5636 24.0586 30.5757 24.0298 30.576 23.9998V23.9918C30.5742 23.9631 30.5615 23.9362 30.5405 23.9167C30.5194 23.8972 30.4917 23.8864 30.463 23.8868ZM31.025 23.8868C30.9955 23.8873 30.9673 23.8995 30.9467 23.9206C30.9261 23.9418 30.9147 23.9702 30.915 23.9998C30.915 24.0608 30.964 24.1128 31.025 24.1128C31.0551 24.1128 31.0839 24.1009 31.1053 24.0797C31.1266 24.0586 31.1387 24.0298 31.139 23.9998V23.9918C31.1372 23.9629 31.1243 23.9359 31.1031 23.9164C31.0819 23.8968 31.0539 23.8862 31.025 23.8868ZM31.588 23.8868C31.5733 23.8869 31.5588 23.8899 31.5452 23.8957C31.5317 23.9014 31.5194 23.9098 31.5091 23.9203C31.4988 23.9308 31.4906 23.9432 31.4851 23.9568C31.4796 23.9705 31.4769 23.985 31.477 23.9998C31.477 24.0608 31.527 24.1128 31.587 24.1128C31.649 24.1128 31.698 24.0608 31.699 23.9998V23.9798C31.6951 23.9533 31.6817 23.9291 31.6613 23.9118C31.6408 23.8945 31.6148 23.8852 31.588 23.8858V23.8868ZM32.15 23.8868C32.1351 23.8866 32.1204 23.8895 32.1066 23.8951C32.0928 23.9007 32.0803 23.909 32.0698 23.9196C32.0593 23.9301 32.051 23.9426 32.0453 23.9564C32.0397 23.9701 32.0369 23.9849 32.037 23.9998C32.037 24.0618 32.088 24.1138 32.15 24.1128C32.212 24.1128 32.261 24.0608 32.262 23.9998V23.9798C32.2581 23.9531 32.2445 23.9288 32.2239 23.9115C32.2032 23.8941 32.1769 23.885 32.15 23.8858V23.8868ZM32.713 23.8868C32.6981 23.8866 32.6834 23.8895 32.6696 23.8951C32.6558 23.9007 32.6433 23.909 32.6328 23.9196C32.6223 23.9301 32.614 23.9426 32.6083 23.9564C32.6027 23.9701 32.5999 23.9849 32.6 23.9998C32.6 24.0618 32.65 24.1138 32.713 24.1128C32.774 24.1128 32.823 24.0608 32.824 23.9998V23.9918C32.8222 23.9635 32.8098 23.9369 32.7892 23.9174C32.7686 23.8979 32.7414 23.887 32.713 23.8868ZM33.275 23.8868C33.2601 23.8866 33.2454 23.8895 33.2316 23.8951C33.2178 23.9007 33.2053 23.909 33.1948 23.9196C33.1843 23.9301 33.176 23.9426 33.1703 23.9564C33.1647 23.9701 33.1619 23.9849 33.162 23.9998C33.162 24.0618 33.213 24.1138 33.275 24.1128C33.337 24.1128 33.386 24.0608 33.387 23.9998V23.9918C33.3852 23.9633 33.3726 23.9366 33.3518 23.917C33.331 23.8975 33.3035 23.8867 33.275 23.8868ZM33.838 23.8868C33.8231 23.8866 33.8084 23.8895 33.7946 23.8951C33.7808 23.9007 33.7683 23.909 33.7578 23.9196C33.7473 23.9301 33.739 23.9426 33.7333 23.9564C33.7277 23.9701 33.7249 23.9849 33.725 23.9998C33.725 24.0618 33.775 24.1138 33.838 24.1128C33.899 24.1128 33.948 24.0608 33.949 23.9998V23.9918C33.9472 23.9635 33.9348 23.9369 33.9142 23.9174C33.8936 23.8979 33.8664 23.887 33.838 23.8868ZM34.398 23.8868C34.3685 23.8873 34.3403 23.8995 34.3197 23.9206C34.2991 23.9418 34.2877 23.9702 34.288 23.9998C34.288 24.0608 34.337 24.1128 34.398 24.1128C34.4281 24.1128 34.4569 24.1009 34.4783 24.0797C34.4996 24.0586 34.5117 24.0298 34.512 23.9998V23.9918C34.5102 23.9629 34.4973 23.9359 34.4761 23.9164C34.4548 23.8968 34.4269 23.8862 34.398 23.8868ZM15.94 26.7098V26.7118C15.8154 26.7137 15.6925 26.7402 15.5782 26.7898C15.4639 26.8394 15.3605 26.9111 15.274 27.0008L13.466 28.8578C13.3793 28.9472 13.3112 29.0529 13.2655 29.1688C13.2199 29.2847 13.1975 29.4084 13.1999 29.533C13.2022 29.6575 13.2291 29.7803 13.2791 29.8944C13.329 30.0085 13.4011 30.1116 13.491 30.1978C13.5803 30.2845 13.6857 30.3528 13.8014 30.3988C13.9171 30.4447 14.0407 30.4674 14.1651 30.4655C14.2896 30.4637 14.4125 30.4373 14.5267 30.3879C14.641 30.3385 14.7444 30.2671 14.831 30.1778L16.64 28.3188C16.7266 28.2292 16.7947 28.1235 16.8402 28.0076C16.8858 27.8917 16.9081 27.7679 16.9056 27.6433C16.9032 27.5188 16.8762 27.396 16.8262 27.2819C16.7761 27.1679 16.704 27.0648 16.614 26.9788C16.5251 26.8917 16.4199 26.823 16.3044 26.7766C16.1889 26.7303 16.0654 26.7072 15.941 26.7088L15.94 26.7098ZM18.92 26.7098L18.923 26.7118C18.7984 26.7137 18.6755 26.7402 18.5612 26.7898C18.4469 26.8394 18.3435 26.9111 18.257 27.0008L16.448 28.8578C16.3613 28.9471 16.2931 29.0526 16.2472 29.1682C16.2013 29.2839 16.1786 29.4075 16.1805 29.5319C16.1823 29.6563 16.2087 29.7792 16.258 29.8934C16.3073 30.0077 16.3787 30.1111 16.468 30.1978C16.5573 30.2844 16.6628 30.3527 16.7785 30.3986C16.8941 30.4445 17.0177 30.4671 17.1421 30.4653C17.2666 30.4634 17.3894 30.4371 17.5037 30.3877C17.6179 30.3384 17.7213 30.2671 17.808 30.1778L19.616 28.3188C19.7029 28.2296 19.7714 28.1241 19.8174 28.0083C19.8634 27.8926 19.8861 27.7689 19.8841 27.6444C19.8822 27.5199 19.8556 27.3969 19.806 27.2827C19.7564 27.1685 19.6847 27.0652 19.595 26.9788C19.506 26.8915 19.4006 26.8228 19.285 26.7764C19.1693 26.7301 19.0456 26.7071 18.921 26.7088L18.92 26.7098ZM21.9 26.7098V26.7118C21.7753 26.7136 21.6521 26.74 21.5376 26.7896C21.4232 26.8392 21.3196 26.911 21.233 27.0008L19.425 28.8578C19.3381 28.9469 19.2696 29.0524 19.2236 29.1682C19.1776 29.2839 19.1549 29.4076 19.1569 29.5321C19.1588 29.6567 19.1854 29.7796 19.235 29.8938C19.2846 30.008 19.3563 30.1113 19.446 30.1978C19.5353 30.2845 19.6407 30.3528 19.7564 30.3988C19.8721 30.4447 19.9957 30.4674 20.1201 30.4655C20.2446 30.4637 20.3675 30.4373 20.4817 30.3879C20.596 30.3385 20.6994 30.2671 20.786 30.1778L22.595 28.3188C22.6819 28.2295 22.7502 28.124 22.7962 28.0082C22.8421 27.8924 22.8647 27.7687 22.8626 27.6442C22.8606 27.5197 22.8339 27.3968 22.7842 27.2826C22.7345 27.1684 22.6627 27.0651 22.573 26.9788C22.484 26.8916 22.3786 26.8229 22.2629 26.7765C22.1473 26.7302 22.0236 26.7072 21.899 26.7088L21.9 26.7098ZM24.878 26.7098V26.7118C24.7534 26.7137 24.6305 26.7402 24.5162 26.7898C24.4019 26.8394 24.2985 26.9111 24.212 27.0008L22.403 28.8578C22.3164 28.9473 22.2483 29.053 22.2028 29.1689C22.1572 29.2849 22.1349 29.4086 22.1374 29.5332C22.1398 29.6577 22.1668 29.7805 22.2168 29.8946C22.2669 30.0086 22.339 30.1117 22.429 30.1978C22.5183 30.2845 22.6237 30.3528 22.7394 30.3988C22.8551 30.4447 22.9787 30.4674 23.1031 30.4655C23.2276 30.4637 23.3505 30.4373 23.4647 30.3879C23.579 30.3385 23.6824 30.2671 23.769 30.1778L25.577 28.3188C25.6637 28.2293 25.7318 28.1236 25.7775 28.0077C25.8231 27.8918 25.8455 27.7681 25.8431 27.6436C25.8408 27.519 25.8139 27.3962 25.7639 27.2821C25.714 27.168 25.6419 27.0649 25.552 26.9788C25.463 26.8915 25.3576 26.8228 25.242 26.7764C25.1263 26.7301 25.0026 26.7071 24.878 26.7088V26.7098ZM27.858 26.7098L27.86 26.7118C27.7354 26.7137 27.6125 26.7402 27.4982 26.7898C27.3839 26.8394 27.2805 26.9111 27.194 27.0008L25.386 28.8578C25.211 29.0381 25.1147 29.2806 25.1185 29.5319C25.1222 29.7832 25.2257 30.0227 25.406 30.1978C25.5863 30.3728 25.8288 30.469 26.0801 30.4653C26.3314 30.4615 26.571 30.3581 26.746 30.1778L28.554 28.3188C28.6409 28.2295 28.7092 28.124 28.7551 28.0082C28.8011 27.8924 28.8237 27.7687 28.8216 27.6442C28.8196 27.5197 28.7929 27.3968 28.7432 27.2826C28.6935 27.1684 28.6217 27.0651 28.532 26.9788C28.443 26.8915 28.3376 26.8228 28.222 26.7764C28.1063 26.7301 27.9826 26.7071 27.858 26.7088V26.7098ZM30.837 26.7098V26.7118C30.7124 26.7137 30.5895 26.7402 30.4752 26.7898C30.3609 26.8394 30.2575 26.9111 30.171 27.0008L28.362 28.8578C28.2751 28.947 28.2068 29.0526 28.1609 29.1683C28.1149 29.2841 28.0923 29.4078 28.0944 29.5323C28.0964 29.6569 28.1231 29.7798 28.1728 29.894C28.2225 30.0082 28.2943 30.1114 28.384 30.1978C28.4733 30.2845 28.5787 30.3528 28.6944 30.3988C28.8101 30.4447 28.9337 30.4674 29.0581 30.4655C29.1826 30.4637 29.3055 30.4373 29.4197 30.3879C29.534 30.3385 29.6374 30.2671 29.724 30.1778L31.532 28.3188C31.6189 28.2296 31.6874 28.1241 31.7334 28.0083C31.7794 27.8926 31.8021 27.7689 31.8001 27.6444C31.7982 27.5199 31.7716 27.3969 31.722 27.2827C31.6724 27.1685 31.6007 27.0652 31.511 26.9788C31.422 26.8916 31.3166 26.8229 31.2009 26.7765C31.0853 26.7302 30.9616 26.7072 30.837 26.7088V26.7098ZM33.816 26.7098V26.7118C33.6913 26.7136 33.5681 26.74 33.4536 26.7896C33.3392 26.8392 33.2356 26.911 33.149 27.0008L31.341 28.8578C31.2543 28.9472 31.1862 29.0529 31.1405 29.1688C31.0949 29.2847 31.0725 29.4084 31.0749 29.533C31.0772 29.6575 31.1041 29.7803 31.1541 29.8944C31.204 30.0085 31.2761 30.1116 31.366 30.1978C31.4553 30.2845 31.5607 30.3528 31.6764 30.3988C31.7921 30.4447 31.9157 30.4674 32.0401 30.4655C32.1646 30.4637 32.2875 30.4373 32.4017 30.3879C32.516 30.3385 32.6194 30.2671 32.706 30.1778L34.515 28.3188C34.6016 28.2292 34.6697 28.1235 34.7152 28.0076C34.7608 27.8917 34.7831 27.7679 34.7806 27.6433C34.7782 27.5188 34.7512 27.396 34.7012 27.2819C34.6511 27.1679 34.579 27.0648 34.489 26.9788C34.4001 26.8917 34.2949 26.823 34.1794 26.7766C34.0639 26.7303 33.9404 26.7072 33.816 26.7088V26.7098ZM13.596 32.8848C13.5813 32.885 13.5668 32.8882 13.5533 32.894C13.5398 32.8999 13.5276 32.9084 13.5174 32.919C13.5072 32.9296 13.4991 32.942 13.4938 32.9557C13.4884 32.9694 13.4857 32.984 13.486 32.9988C13.486 33.0598 13.536 33.1108 13.596 33.1118C13.659 33.1118 13.709 33.0618 13.71 32.9988C13.7103 32.9838 13.7075 32.9689 13.702 32.955C13.6964 32.9412 13.6881 32.9285 13.6776 32.9179C13.667 32.9073 13.6545 32.8989 13.6406 32.8932C13.6268 32.8875 13.612 32.8846 13.597 32.8848H13.596ZM14.159 32.8848C14.1289 32.885 14.1002 32.8971 14.079 32.9185C14.0579 32.9398 14.046 32.9687 14.046 32.9988C14.046 33.0598 14.098 33.1118 14.159 33.1118C14.22 33.1118 14.269 33.0598 14.271 32.9988V32.9788C14.2669 32.9523 14.2532 32.9282 14.2326 32.9111C14.212 32.894 14.1858 32.8849 14.159 32.8858V32.8848ZM14.722 32.8848C14.707 32.8845 14.692 32.8872 14.6781 32.8929C14.6641 32.8985 14.6514 32.9069 14.6408 32.9175C14.6301 32.9282 14.6218 32.9409 14.6161 32.9548C14.6105 32.9688 14.6077 32.9837 14.608 32.9988C14.608 33.0608 14.66 33.1128 14.722 33.1118C14.782 33.1118 14.832 33.0598 14.833 32.9988V32.9788C14.8289 32.9524 14.8154 32.9285 14.795 32.9114C14.7745 32.8943 14.7486 32.8852 14.722 32.8858V32.8848ZM15.284 32.8848C15.269 32.8846 15.2542 32.8875 15.2404 32.8932C15.2265 32.8989 15.214 32.9073 15.2034 32.9179C15.1929 32.9285 15.1846 32.9412 15.179 32.955C15.1735 32.9689 15.1707 32.9838 15.171 32.9988C15.171 33.0608 15.222 33.1128 15.284 33.1118C15.345 33.1118 15.394 33.0598 15.396 32.9988V32.9908C15.3942 32.9623 15.3816 32.9356 15.3608 32.916C15.34 32.8965 15.3125 32.8857 15.284 32.8858V32.8848ZM15.847 32.8848C15.832 32.8845 15.817 32.8872 15.8031 32.8929C15.7891 32.8985 15.7764 32.9069 15.7658 32.9175C15.7551 32.9282 15.7468 32.9409 15.7411 32.9548C15.7355 32.9688 15.7327 32.9837 15.733 32.9988C15.733 33.0608 15.785 33.1128 15.847 33.1118C15.907 33.1118 15.957 33.0598 15.958 32.9988V32.9908C15.9562 32.9625 15.9438 32.9359 15.9232 32.9164C15.9026 32.8969 15.8754 32.886 15.847 32.8858V32.8848ZM16.409 32.8848C16.394 32.8846 16.3792 32.8875 16.3654 32.8932C16.3515 32.8989 16.339 32.9073 16.3284 32.9179C16.3179 32.9285 16.3096 32.9412 16.304 32.955C16.2985 32.9689 16.2957 32.9838 16.296 32.9988C16.296 33.0608 16.347 33.1128 16.409 33.1118C16.47 33.1118 16.519 33.0598 16.52 32.9988V32.9908C16.5182 32.9626 16.5059 32.9362 16.4856 32.9167C16.4652 32.8973 16.4382 32.8862 16.41 32.8858L16.409 32.8848ZM16.969 32.8848C16.9543 32.885 16.9398 32.8882 16.9263 32.894C16.9128 32.8999 16.9006 32.9084 16.8904 32.919C16.8802 32.9296 16.8721 32.942 16.8668 32.9557C16.8614 32.9694 16.8587 32.984 16.859 32.9988C16.859 33.0598 16.909 33.1118 16.969 33.1118C16.9991 33.1118 17.0279 33.0999 17.0493 33.0787C17.0706 33.0576 17.0827 33.0288 17.083 32.9988V32.9908C17.0812 32.9621 17.0685 32.9352 17.0475 32.9157C17.0264 32.8962 16.9987 32.8854 16.97 32.8858L16.969 32.8848ZM17.532 32.8848C17.5172 32.8849 17.5026 32.8879 17.489 32.8938C17.4754 32.8996 17.4631 32.908 17.4527 32.9186C17.4424 32.9292 17.4343 32.9418 17.4289 32.9555C17.4234 32.9693 17.4207 32.984 17.421 32.9988C17.421 33.0598 17.471 33.1118 17.532 33.1118C17.5621 33.1118 17.5909 33.0999 17.6123 33.0787C17.6336 33.0576 17.6457 33.0288 17.646 32.9988V32.9908C17.6442 32.9619 17.6313 32.9349 17.6101 32.9154C17.5889 32.8958 17.5609 32.8852 17.532 32.8858V32.8848ZM18.095 32.8848C18.0801 32.8848 18.0654 32.8877 18.0517 32.8935C18.038 32.8992 18.0255 32.9076 18.0151 32.9183C18.0047 32.9289 17.9965 32.9415 17.9909 32.9553C17.9854 32.9691 17.9827 32.9839 17.983 32.9988C17.983 33.0598 18.033 33.1118 18.095 33.1118C18.1249 33.1115 18.1535 33.0995 18.1746 33.0784C18.1957 33.0572 18.2077 33.0286 18.208 32.9988V32.9908C18.2062 32.9621 18.1935 32.9352 18.1725 32.9157C18.1514 32.8962 18.1237 32.8854 18.095 32.8858V32.8848ZM18.657 32.8848C18.6422 32.8849 18.6276 32.8879 18.614 32.8938C18.6004 32.8996 18.5881 32.908 18.5777 32.9186C18.5674 32.9292 18.5593 32.9418 18.5539 32.9555C18.5484 32.9693 18.5457 32.984 18.546 32.9988C18.546 33.0598 18.596 33.1118 18.657 33.1118C18.719 33.1118 18.767 33.0598 18.769 32.9988V32.9788C18.7649 32.9523 18.7512 32.9282 18.7306 32.9111C18.71 32.894 18.6838 32.8849 18.657 32.8858V32.8848ZM19.22 32.8848C19.205 32.8845 19.19 32.8872 19.1761 32.8929C19.1621 32.8985 19.1494 32.9069 19.1388 32.9175C19.1281 32.9282 19.1198 32.9409 19.1141 32.9548C19.1085 32.9688 19.1057 32.9837 19.106 32.9988C19.107 33.0608 19.158 33.1128 19.22 33.1118C19.281 33.1118 19.33 33.0598 19.331 32.9988V32.9908C19.3292 32.9625 19.3168 32.9359 19.2962 32.9164C19.2756 32.8969 19.2484 32.886 19.22 32.8858V32.8848ZM19.782 32.8848C19.767 32.8846 19.7522 32.8875 19.7384 32.8932C19.7245 32.8989 19.712 32.9073 19.7014 32.9179C19.6909 32.9285 19.6826 32.9412 19.677 32.955C19.6715 32.9689 19.6687 32.9838 19.669 32.9988C19.669 33.0608 19.72 33.1128 19.782 33.1118C19.844 33.1118 19.892 33.0598 19.894 32.9988V32.9908C19.8922 32.9623 19.8796 32.9356 19.8588 32.916C19.838 32.8965 19.8105 32.8857 19.782 32.8858V32.8848ZM20.345 32.8848C20.33 32.8845 20.315 32.8872 20.3011 32.8929C20.2871 32.8985 20.2744 32.9069 20.2638 32.9175C20.2531 32.9282 20.2448 32.9409 20.2391 32.9548C20.2335 32.9688 20.2307 32.9837 20.231 32.9988C20.231 33.0608 20.283 33.1128 20.345 33.1118C20.406 33.1118 20.455 33.0598 20.456 32.9988V32.9908C20.4542 32.9625 20.4418 32.9359 20.4212 32.9164C20.4006 32.8969 20.3734 32.886 20.345 32.8858V32.8848ZM20.907 32.8848C20.892 32.8846 20.8772 32.8875 20.8634 32.8932C20.8495 32.8989 20.837 32.9073 20.8264 32.9179C20.8159 32.9285 20.8076 32.9412 20.802 32.955C20.7965 32.9689 20.7937 32.9838 20.794 32.9988C20.794 33.0608 20.845 33.1128 20.907 33.1118C20.969 33.1118 21.017 33.0598 21.019 32.9988V32.9908C21.0172 32.9623 21.0046 32.9356 20.9838 32.916C20.963 32.8965 20.9355 32.8857 20.907 32.8858V32.8848ZM21.467 32.8848C21.4387 32.8874 21.4125 32.9005 21.3934 32.9215C21.3743 32.9425 21.3637 32.9699 21.3637 32.9983C21.3637 33.0266 21.3743 33.054 21.3934 33.075C21.4125 33.096 21.4387 33.1091 21.467 33.1118C21.4971 33.1118 21.5259 33.0999 21.5473 33.0787C21.5686 33.0576 21.5807 33.0288 21.581 32.9988V32.9908C21.5792 32.9621 21.5665 32.9352 21.5455 32.9157C21.5244 32.8962 21.4967 32.8854 21.468 32.8858L21.467 32.8848ZM22.03 32.8848C22.0017 32.8874 21.9755 32.9005 21.9564 32.9215C21.9373 32.9425 21.9267 32.9699 21.9267 32.9983C21.9267 33.0266 21.9373 33.054 21.9564 33.075C21.9755 33.096 22.0017 33.1091 22.03 33.1118C22.0601 33.1118 22.0889 33.0999 22.1103 33.0787C22.1316 33.0576 22.1437 33.0288 22.144 32.9988V32.9908C22.1422 32.9619 22.1293 32.9349 22.1081 32.9154C22.0869 32.8958 22.0589 32.8852 22.03 32.8858V32.8848ZM22.593 32.8848C22.5782 32.8849 22.5636 32.8879 22.55 32.8938C22.5364 32.8996 22.5241 32.908 22.5137 32.9186C22.5034 32.9292 22.4953 32.9418 22.4899 32.9555C22.4844 32.9693 22.4817 32.984 22.482 32.9988C22.482 33.0598 22.532 33.1108 22.592 33.1118C22.655 33.1118 22.705 33.0618 22.706 32.9988C22.7063 32.9838 22.7035 32.9689 22.698 32.955C22.6924 32.9412 22.6841 32.9285 22.6736 32.9179C22.663 32.9073 22.6505 32.8989 22.6366 32.8932C22.6228 32.8875 22.608 32.8846 22.593 32.8848ZM23.155 32.8848C23.1267 32.8874 23.1005 32.9005 23.0814 32.9215C23.0623 32.9425 23.0517 32.9699 23.0517 32.9983C23.0517 33.0266 23.0623 33.054 23.0814 33.075C23.1005 33.096 23.1267 33.1091 23.155 33.1118C23.216 33.1118 23.266 33.0598 23.267 32.9988V32.9788C23.2627 32.9524 23.249 32.9284 23.2284 32.9113C23.2078 32.8942 23.1817 32.8852 23.155 32.8858V32.8848ZM23.718 32.8848C23.703 32.8846 23.6882 32.8875 23.6744 32.8932C23.6605 32.8989 23.648 32.9073 23.6374 32.9179C23.6269 32.9285 23.6186 32.9412 23.613 32.955C23.6075 32.9689 23.6047 32.9838 23.605 32.9988C23.605 33.0608 23.655 33.1128 23.718 33.1118C23.779 33.1118 23.828 33.0598 23.829 32.9988V32.9788C23.8249 32.9524 23.8114 32.9285 23.791 32.9114C23.7705 32.8943 23.7446 32.8852 23.718 32.8858V32.8848ZM24.28 32.8848C24.265 32.8846 24.2502 32.8875 24.2364 32.8932C24.2225 32.8989 24.21 32.9073 24.1994 32.9179C24.1889 32.9285 24.1806 32.9412 24.175 32.955C24.1695 32.9689 24.1667 32.9838 24.167 32.9988C24.167 33.0608 24.218 33.1128 24.28 33.1118C24.341 33.1118 24.39 33.0598 24.392 32.9988V32.9908C24.3902 32.9623 24.3776 32.9356 24.3568 32.916C24.336 32.8965 24.3085 32.8857 24.28 32.8858V32.8848ZM24.843 32.8848C24.828 32.8846 24.8132 32.8875 24.7994 32.8932C24.7855 32.8989 24.773 32.9073 24.7624 32.9179C24.7519 32.9285 24.7436 32.9412 24.738 32.955C24.7325 32.9689 24.7297 32.9838 24.73 32.9988C24.73 33.0608 24.78 33.1128 24.843 33.1118C24.904 33.1118 24.953 33.0598 24.954 32.9988V32.9908C24.9522 32.9625 24.9398 32.9359 24.9192 32.9164C24.8986 32.8969 24.8714 32.886 24.843 32.8858V32.8848ZM25.403 32.8848C25.3882 32.8849 25.3736 32.8879 25.36 32.8938C25.3464 32.8996 25.3341 32.908 25.3237 32.9186C25.3134 32.9292 25.3053 32.9418 25.2999 32.9555C25.2944 32.9693 25.2917 32.984 25.292 32.9988C25.292 33.0598 25.342 33.1118 25.403 33.1118C25.4331 33.1118 25.4619 33.0999 25.4833 33.0787C25.5046 33.0576 25.5167 33.0288 25.517 32.9988V32.9908C25.5152 32.9619 25.5023 32.9349 25.4811 32.9154C25.4599 32.8958 25.4319 32.8852 25.403 32.8858V32.8848ZM25.966 32.8848C25.9512 32.8849 25.9366 32.8879 25.923 32.8938C25.9094 32.8996 25.8971 32.908 25.8867 32.9186C25.8764 32.9292 25.8683 32.9418 25.8629 32.9555C25.8574 32.9693 25.8547 32.984 25.855 32.9988C25.855 33.0598 25.905 33.1118 25.965 33.1118C25.9951 33.1118 26.0239 33.0999 26.0453 33.0787C26.0666 33.0576 26.0787 33.0288 26.079 32.9988V32.9908C26.0772 32.9621 26.0645 32.9352 26.0435 32.9157C26.0224 32.8962 25.9947 32.8854 25.966 32.8858V32.8848ZM26.528 32.8848C26.5132 32.8849 26.4986 32.8879 26.485 32.8938C26.4714 32.8996 26.4591 32.908 26.4487 32.9186C26.4384 32.9292 26.4303 32.9418 26.4249 32.9555C26.4194 32.9693 26.4167 32.984 26.417 32.9988C26.417 33.0598 26.467 33.1118 26.528 33.1118C26.5581 33.1118 26.5869 33.0999 26.6083 33.0787C26.6296 33.0576 26.6417 33.0288 26.642 32.9988V32.9908C26.6402 32.9619 26.6273 32.9349 26.6061 32.9154C26.5849 32.8958 26.5569 32.8852 26.528 32.8858V32.8848ZM27.091 32.8848C27.0762 32.8849 27.0616 32.8879 27.048 32.8938C27.0344 32.8996 27.0221 32.908 27.0117 32.9186C27.0014 32.9292 26.9933 32.9418 26.9879 32.9555C26.9824 32.9693 26.9797 32.984 26.98 32.9988C26.98 33.0598 27.03 33.1108 27.09 33.1118C27.153 33.1118 27.203 33.0618 27.204 32.9988C27.2043 32.9838 27.2015 32.9689 27.196 32.955C27.1904 32.9412 27.1821 32.9285 27.1716 32.9179C27.161 32.9073 27.1485 32.8989 27.1346 32.8932C27.1208 32.8875 27.106 32.8846 27.091 32.8848ZM27.653 32.8848C27.6382 32.8849 27.6236 32.8879 27.61 32.8938C27.5964 32.8996 27.5841 32.908 27.5737 32.9186C27.5634 32.9292 27.5553 32.9418 27.5499 32.9555C27.5444 32.9693 27.5417 32.984 27.542 32.9988C27.542 33.0598 27.592 33.1118 27.653 33.1118C27.715 33.1118 27.763 33.0598 27.765 32.9988V32.9788C27.7609 32.9523 27.7472 32.9282 27.7266 32.9111C27.706 32.894 27.6798 32.8849 27.653 32.8858V32.8848ZM28.216 32.8848C28.201 32.8846 28.1862 32.8875 28.1724 32.8932C28.1585 32.8989 28.146 32.9073 28.1354 32.9179C28.1249 32.9285 28.1166 32.9412 28.111 32.955C28.1055 32.9689 28.1027 32.9838 28.103 32.9988C28.103 33.0608 28.153 33.1128 28.216 33.1118C28.277 33.1118 28.326 33.0598 28.327 32.9988V32.9908C28.3252 32.9625 28.3128 32.9359 28.2922 32.9164C28.2716 32.8969 28.2444 32.886 28.216 32.8858V32.8848ZM28.778 32.8848C28.763 32.8846 28.7482 32.8875 28.7344 32.8932C28.7205 32.8989 28.708 32.9073 28.6974 32.9179C28.6869 32.9285 28.6786 32.9412 28.673 32.955C28.6675 32.9689 28.6647 32.9838 28.665 32.9988C28.665 33.0608 28.716 33.1128 28.778 33.1118C28.84 33.1118 28.888 33.0598 28.89 32.9988V32.9908C28.8882 32.9623 28.8756 32.9356 28.8548 32.916C28.834 32.8965 28.8065 32.8857 28.778 32.8858V32.8848ZM29.341 32.8848C29.326 32.8846 29.3112 32.8875 29.2974 32.8932C29.2835 32.8989 29.271 32.9073 29.2604 32.9179C29.2499 32.9285 29.2416 32.9412 29.236 32.955C29.2305 32.9689 29.2277 32.9838 29.228 32.9988C29.228 33.0608 29.278 33.1128 29.341 33.1118C29.402 33.1118 29.451 33.0598 29.452 32.9988V32.9908C29.4502 32.9625 29.4378 32.9359 29.4172 32.9164C29.3966 32.8969 29.3694 32.886 29.341 32.8858V32.8848ZM29.901 32.8848C29.8863 32.885 29.8718 32.8882 29.8583 32.894C29.8448 32.8999 29.8326 32.9084 29.8224 32.919C29.8122 32.9296 29.8041 32.942 29.7988 32.9557C29.7934 32.9694 29.7907 32.984 29.791 32.9988C29.791 33.0598 29.84 33.1118 29.901 33.1118C29.9311 33.1118 29.9599 33.0999 29.9813 33.0787C30.0026 33.0576 30.0147 33.0288 30.015 32.9988V32.9908C30.0132 32.9619 30.0003 32.9349 29.9791 32.9154C29.9579 32.8958 29.9299 32.8852 29.901 32.8858V32.8848ZM30.464 32.8848C30.4492 32.8849 30.4346 32.8879 30.421 32.8938C30.4074 32.8996 30.3951 32.908 30.3847 32.9186C30.3744 32.9292 30.3663 32.9418 30.3609 32.9555C30.3554 32.9693 30.3527 32.984 30.353 32.9988C30.353 33.0598 30.403 33.1118 30.463 33.1118C30.4931 33.1118 30.5219 33.0999 30.5433 33.0787C30.5646 33.0576 30.5767 33.0288 30.577 32.9988V32.9908C30.5752 32.9621 30.5625 32.9352 30.5415 32.9157C30.5204 32.8962 30.4927 32.8854 30.464 32.8858V32.8848ZM31.026 32.8848C31.0113 32.885 30.9968 32.8882 30.9833 32.894C30.9698 32.8999 30.9576 32.9084 30.9474 32.919C30.9372 32.9296 30.9291 32.942 30.9238 32.9557C30.9184 32.9694 30.9157 32.984 30.916 32.9988C30.916 33.0598 30.965 33.1118 31.026 33.1118C31.0561 33.1118 31.0849 33.0999 31.1063 33.0787C31.1276 33.0576 31.1397 33.0288 31.14 32.9988V32.9908C31.1382 32.9619 31.1253 32.9349 31.1041 32.9154C31.0829 32.8958 31.0549 32.8852 31.026 32.8858V32.8848ZM31.589 32.8848C31.5742 32.8849 31.5596 32.8879 31.546 32.8938C31.5324 32.8996 31.5201 32.908 31.5097 32.9186C31.4994 32.9292 31.4913 32.9418 31.4859 32.9555C31.4804 32.9693 31.4777 32.984 31.478 32.9988C31.478 33.0598 31.528 33.1118 31.588 33.1118C31.65 33.1118 31.699 33.0598 31.7 32.9988V32.9788C31.6959 32.9524 31.6824 32.9285 31.662 32.9114C31.6416 32.8943 31.6156 32.8852 31.589 32.8858V32.8848ZM32.151 32.8848C32.136 32.8846 32.1212 32.8875 32.1074 32.8932C32.0935 32.8989 32.081 32.9073 32.0704 32.9179C32.0599 32.9285 32.0516 32.9412 32.046 32.955C32.0405 32.9689 32.0377 32.9838 32.038 32.9988C32.038 33.0608 32.089 33.1128 32.151 33.1118C32.213 33.1118 32.262 33.0598 32.263 32.9988V32.9788C32.2589 32.9523 32.2452 32.9282 32.2246 32.9111C32.204 32.894 32.1778 32.8849 32.151 32.8858V32.8848ZM32.714 32.8848C32.699 32.8846 32.6842 32.8875 32.6704 32.8932C32.6565 32.8989 32.644 32.9073 32.6334 32.9179C32.6229 32.9285 32.6146 32.9412 32.609 32.955C32.6035 32.9689 32.6007 32.9838 32.601 32.9988C32.601 33.0608 32.651 33.1128 32.714 33.1118C32.775 33.1118 32.824 33.0598 32.825 32.9988V32.9908C32.8232 32.9625 32.8108 32.9359 32.7902 32.9164C32.7696 32.8969 32.7424 32.886 32.714 32.8858V32.8848ZM33.276 32.8848C33.261 32.8846 33.2462 32.8875 33.2324 32.8932C33.2185 32.8989 33.206 32.9073 33.1954 32.9179C33.1849 32.9285 33.1766 32.9412 33.171 32.955C33.1655 32.9689 33.1627 32.9838 33.163 32.9988C33.163 33.0608 33.214 33.1128 33.276 33.1118C33.338 33.1118 33.387 33.0598 33.388 32.9988V32.9908C33.3862 32.9623 33.3736 32.9356 33.3528 32.916C33.332 32.8965 33.3045 32.8857 33.276 32.8858V32.8848ZM33.839 32.8848C33.824 32.8846 33.8092 32.8875 33.7954 32.8932C33.7815 32.8989 33.769 32.9073 33.7584 32.9179C33.7479 32.9285 33.7396 32.9412 33.734 32.955C33.7285 32.9689 33.7257 32.9838 33.726 32.9988C33.726 33.0608 33.776 33.1128 33.839 33.1118C33.9 33.1118 33.949 33.0598 33.95 32.9988V32.9908C33.9482 32.9625 33.9358 32.9359 33.9152 32.9164C33.8946 32.8969 33.8674 32.886 33.839 32.8858V32.8848ZM34.399 32.8848C34.3843 32.885 34.3698 32.8882 34.3563 32.894C34.3428 32.8999 34.3306 32.9084 34.3204 32.919C34.3102 32.9296 34.3021 32.942 34.2968 32.9557C34.2914 32.9694 34.2887 32.984 34.289 32.9988C34.289 33.0598 34.338 33.1118 34.399 33.1118C34.4291 33.1118 34.4579 33.0999 34.4793 33.0787C34.5006 33.0576 34.5127 33.0288 34.513 32.9988V32.9908C34.5112 32.9619 34.4983 32.9349 34.4771 32.9154C34.4559 32.8958 34.4279 32.8852 34.399 32.8858V32.8848ZM15.94 35.8978V35.8998C15.8154 35.9018 15.6924 35.9285 15.5781 35.9783C15.4638 36.028 15.3604 36.0999 15.274 36.1898L13.466 38.0468C13.3793 38.1362 13.3112 38.2419 13.2655 38.3578C13.2199 38.4737 13.1975 38.5974 13.1999 38.722C13.2022 38.8465 13.2291 38.9693 13.2791 39.0834C13.329 39.1975 13.4011 39.3006 13.491 39.3868C13.5803 39.4735 13.6857 39.5418 13.8014 39.5878C13.9171 39.6337 14.0407 39.6564 14.1651 39.6545C14.2896 39.6527 14.4125 39.6263 14.5267 39.5769C14.641 39.5275 14.7444 39.4561 14.831 39.3668L16.64 37.5068C16.7266 37.4172 16.7947 37.3115 16.8402 37.1956C16.8858 37.0797 16.9081 36.9559 16.9056 36.8313C16.9032 36.7068 16.8762 36.584 16.8262 36.4699C16.7761 36.3559 16.704 36.2528 16.614 36.1668C16.525 36.0798 16.4198 36.0113 16.3043 35.9652C16.1888 35.919 16.0654 35.8961 15.941 35.8978H15.94ZM18.92 35.8978L18.923 35.8998C18.7984 35.9018 18.6754 35.9285 18.5611 35.9783C18.4468 36.028 18.3434 36.0999 18.257 36.1898L16.448 38.0468C16.3613 38.1361 16.2931 38.2416 16.2472 38.3572C16.2013 38.4729 16.1786 38.5965 16.1805 38.7209C16.1823 38.8453 16.2087 38.9682 16.258 39.0824C16.3073 39.1967 16.3787 39.3001 16.468 39.3868C16.5573 39.4734 16.6628 39.5417 16.7785 39.5876C16.8941 39.6335 17.0177 39.6561 17.1421 39.6543C17.2666 39.6524 17.3894 39.6261 17.5037 39.5767C17.6179 39.5274 17.7213 39.4561 17.808 39.3668L19.616 37.5068C19.7029 37.4176 19.7714 37.3121 19.8174 37.1963C19.8634 37.0806 19.8861 36.9569 19.8841 36.8324C19.8822 36.7079 19.8556 36.5849 19.806 36.4707C19.7564 36.3565 19.6847 36.2532 19.595 36.1668C19.5059 36.0797 19.4005 36.0111 19.2849 35.965C19.1692 35.9188 19.0455 35.896 18.921 35.8978H18.92ZM21.9 35.8978V35.8998C21.7752 35.9017 21.652 35.9283 21.5375 35.9781C21.423 36.0279 21.3195 36.0998 21.233 36.1898L19.425 38.0468C19.3381 38.1359 19.2696 38.2414 19.2236 38.3572C19.1776 38.4729 19.1549 38.5966 19.1569 38.7211C19.1588 38.8456 19.1854 38.9686 19.235 39.0828C19.2846 39.197 19.3563 39.3003 19.446 39.3868C19.5353 39.4735 19.6407 39.5418 19.7564 39.5878C19.8721 39.6337 19.9957 39.6564 20.1201 39.6545C20.2446 39.6527 20.3675 39.6263 20.4817 39.5769C20.596 39.5275 20.6994 39.4561 20.786 39.3668L22.595 37.5068C22.6819 37.4175 22.7502 37.312 22.7962 37.1962C22.8421 37.0804 22.8647 36.9567 22.8626 36.8322C22.8606 36.7076 22.8339 36.5848 22.7842 36.4706C22.7345 36.3564 22.6627 36.2531 22.573 36.1668C22.4839 36.0798 22.3785 36.0112 22.2628 35.9651C22.1472 35.9189 22.0235 35.896 21.899 35.8978H21.9ZM24.878 35.8978V35.8998C24.7534 35.9018 24.6304 35.9285 24.5161 35.9783C24.4018 36.028 24.2984 36.0999 24.212 36.1898L22.403 38.0468C22.3164 38.1363 22.2483 38.242 22.2028 38.3579C22.1572 38.4738 22.1349 38.5976 22.1374 38.7222C22.1398 38.8467 22.1668 38.9695 22.2168 39.0836C22.2669 39.1976 22.339 39.3007 22.429 39.3868C22.5183 39.4735 22.6237 39.5418 22.7394 39.5878C22.8551 39.6337 22.9787 39.6564 23.1031 39.6545C23.2276 39.6527 23.3505 39.6263 23.4647 39.5769C23.579 39.5275 23.6824 39.4561 23.769 39.3668L25.577 37.5068C25.6637 37.4173 25.7318 37.3116 25.7775 37.1957C25.8231 37.0798 25.8455 36.9561 25.8431 36.8316C25.8408 36.707 25.8139 36.5842 25.7639 36.4701C25.714 36.356 25.6419 36.2529 25.552 36.1668C25.4629 36.0797 25.3575 36.0111 25.2419 35.965C25.1262 35.9188 25.0025 35.896 24.878 35.8978ZM27.858 35.8978L27.86 35.8998C27.7354 35.9018 27.6124 35.9285 27.4981 35.9783C27.3838 36.028 27.2804 36.0999 27.194 36.1898L25.386 38.0468C25.211 38.2271 25.1147 38.4696 25.1185 38.7209C25.1222 38.9722 25.2257 39.2117 25.406 39.3868C25.5863 39.5618 25.8288 39.658 26.0801 39.6543C26.3314 39.6505 26.571 39.5471 26.746 39.3668L28.554 37.5068C28.6409 37.4175 28.7092 37.312 28.7551 37.1962C28.8011 37.0804 28.8237 36.9567 28.8216 36.8322C28.8196 36.7076 28.7929 36.5848 28.7432 36.4706C28.6935 36.3564 28.6217 36.2531 28.532 36.1668C28.4429 36.0797 28.3375 36.0111 28.2219 35.965C28.1062 35.9188 27.9825 35.896 27.858 35.8978ZM30.837 35.8978V35.8998C30.7124 35.9018 30.5894 35.9285 30.4751 35.9783C30.3608 36.028 30.2574 36.0999 30.171 36.1898L28.36 38.0458C28.2731 38.135 28.2048 38.2406 28.1588 38.3563C28.1129 38.4721 28.0903 38.5958 28.0924 38.7203C28.0944 38.8449 28.1211 38.9678 28.1708 39.082C28.2205 39.1961 28.2923 39.2994 28.382 39.3858C28.4713 39.4725 28.5767 39.5408 28.6924 39.5868C28.8081 39.6327 28.9317 39.6554 29.0561 39.6535C29.1806 39.6517 29.3035 39.6253 29.4177 39.5759C29.532 39.5265 29.6354 39.4551 29.722 39.3658L31.53 37.5058C31.6169 37.4166 31.6854 37.3111 31.7314 37.1953C31.7774 37.0796 31.8001 36.9559 31.7981 36.8314C31.7962 36.7069 31.7696 36.5839 31.72 36.4697C31.6704 36.3555 31.5987 36.2522 31.509 36.1658C31.4199 36.0788 31.3145 36.0102 31.1988 35.9641C31.0832 35.9179 30.9595 35.895 30.835 35.8968L30.837 35.8978ZM33.816 35.8978V35.8998C33.6912 35.9017 33.568 35.9283 33.4535 35.9781C33.339 36.0279 33.2355 36.0998 33.149 36.1898L31.34 38.0458C31.2533 38.1352 31.1852 38.2409 31.1395 38.3568C31.0939 38.4727 31.0715 38.5964 31.0739 38.721C31.0762 38.8455 31.1031 38.9683 31.1531 39.0824C31.203 39.1965 31.2751 39.2996 31.365 39.3858C31.4543 39.4725 31.5597 39.5408 31.6754 39.5868C31.7911 39.6327 31.9147 39.6554 32.0391 39.6535C32.1636 39.6517 32.2865 39.6253 32.4007 39.5759C32.515 39.5265 32.6184 39.4551 32.705 39.3658L34.514 37.5058C34.6006 37.4162 34.6687 37.3105 34.7142 37.1946C34.7598 37.0787 34.7821 36.9549 34.7796 36.8303C34.7772 36.7058 34.7502 36.583 34.7002 36.4689C34.6501 36.3549 34.578 36.2518 34.488 36.1658C34.399 36.0788 34.2938 36.0103 34.1783 35.9642C34.0628 35.918 33.9394 35.8951 33.815 35.8968L33.816 35.8978Z" fill="#333333"/>
</svg>
