<svg width="48" height="48" viewBox="0 0 48 48" fill="none" xmlns="http://www.w3.org/2000/svg">
<path d="M28.906 4.08205C23.986 4.06805 19.122 4.12505 14.146 4.12505C13.277 4.12505 12.58 4.82405 12.58 5.69305V42.554C12.58 43.424 13.277 44.124 14.146 44.124H33.852C34.721 44.124 35.42 43.424 35.42 42.554V5.69405C35.42 4.82405 34.721 4.12405 33.852 4.12405C32.2034 4.09983 30.5547 4.08583 28.906 4.08205ZM14.58 4.62505H33.418C34.249 4.62505 34.92 5.30605 34.92 6.15505V42.094C34.92 42.941 34.25 43.624 33.418 43.624H14.58C13.749 43.624 13.08 42.941 13.08 42.094V6.15405C13.08 5.30605 13.749 4.62405 14.58 4.62405V4.62505ZM20.367 5.06505C20.3376 5.0661 20.3099 5.07862 20.2897 5.09993C20.2695 5.12124 20.2584 5.14962 20.259 5.17898C20.2595 5.20833 20.2715 5.2363 20.2925 5.25688C20.3134 5.27745 20.3416 5.28898 20.371 5.28898C20.4003 5.28898 20.4285 5.27745 20.4494 5.25688C20.4704 5.2363 20.4824 5.20833 20.4829 5.17898C20.4835 5.14962 20.4724 5.12124 20.4522 5.09993C20.4321 5.07862 20.4043 5.0661 20.375 5.06505H20.367ZM27.617 5.06505C27.5876 5.0661 27.5599 5.07862 27.5397 5.09993C27.5195 5.12124 27.5084 5.14962 27.509 5.17898C27.5095 5.20833 27.5215 5.2363 27.5425 5.25688C27.5634 5.27745 27.5916 5.28898 27.621 5.28898C27.6503 5.28898 27.6785 5.27745 27.6994 5.25688C27.7204 5.2363 27.7324 5.20833 27.7329 5.17898C27.7335 5.14962 27.7224 5.12124 27.7022 5.09993C27.682 5.07862 27.6543 5.0661 27.625 5.06505H27.617ZM17.893 5.15605C17.7683 5.15807 17.6453 5.18473 17.531 5.2345C17.4167 5.28427 17.3133 5.35617 17.227 5.44605L15.418 7.30305C15.3312 7.39215 15.2627 7.49748 15.2167 7.61301C15.1706 7.72855 15.1477 7.85204 15.1493 7.97642C15.1509 8.10081 15.177 8.22365 15.2261 8.33795C15.2752 8.45224 15.3464 8.55574 15.4355 8.64255C15.5246 8.72935 15.6299 8.79776 15.7454 8.84385C15.861 8.88995 15.9844 8.91284 16.1088 8.91122C16.2332 8.90959 16.3561 8.88348 16.4704 8.83438C16.5846 8.78528 16.6882 8.71415 16.775 8.62505L18.584 6.76505C18.6711 6.67605 18.7397 6.57071 18.786 6.45509C18.8323 6.33946 18.8552 6.21583 18.8536 6.09131C18.8519 5.96678 18.8256 5.84381 18.7763 5.72947C18.7269 5.61513 18.6554 5.51167 18.566 5.42505C18.477 5.33813 18.3718 5.26962 18.2563 5.22346C18.1408 5.1773 18.0173 5.15439 17.893 5.15605ZM31.893 5.15605C31.7683 5.15807 31.6453 5.18473 31.531 5.2345C31.4167 5.28427 31.3134 5.35617 31.227 5.44605L29.418 7.30305C29.3312 7.39215 29.2627 7.49748 29.2167 7.61301C29.1706 7.72855 29.1477 7.85204 29.1493 7.97642C29.1509 8.10081 29.177 8.22365 29.2261 8.33795C29.2752 8.45224 29.3464 8.55574 29.4355 8.64255C29.5246 8.72935 29.6299 8.79776 29.7454 8.84385C29.861 8.88995 29.9844 8.91284 30.1088 8.91122C30.2332 8.90959 30.3561 8.88348 30.4704 8.83438C30.5846 8.78528 30.6882 8.71415 30.775 8.62505L32.584 6.76505C32.6711 6.67605 32.7397 6.57071 32.786 6.45509C32.8323 6.33946 32.8552 6.21583 32.8536 6.09131C32.8519 5.96678 32.8256 5.84381 32.7763 5.72947C32.7269 5.61513 32.6554 5.51167 32.566 5.42505C32.477 5.33813 32.3718 5.26962 32.2563 5.22346C32.1408 5.1773 32.0173 5.15439 31.893 5.15605ZM20.367 5.62605C20.3376 5.6271 20.3099 5.63962 20.2897 5.66093C20.2695 5.68224 20.2584 5.71062 20.259 5.73998C20.2595 5.76933 20.2715 5.7973 20.2925 5.81788C20.3134 5.83845 20.3416 5.84998 20.371 5.84998C20.4003 5.84998 20.4285 5.83845 20.4494 5.81788C20.4704 5.7973 20.4824 5.76933 20.4829 5.73998C20.4835 5.71062 20.4724 5.68224 20.4522 5.66093C20.4321 5.63962 20.4043 5.6271 20.375 5.62605H20.367ZM27.617 5.62605C27.5876 5.6271 27.5599 5.63962 27.5397 5.66093C27.5195 5.68224 27.5084 5.71062 27.509 5.73998C27.5095 5.76933 27.5215 5.7973 27.5425 5.81788C27.5634 5.83845 27.5916 5.84998 27.621 5.84998C27.6503 5.84998 27.6785 5.83845 27.6994 5.81788C27.7204 5.7973 27.7324 5.76933 27.7329 5.73998C27.7335 5.71062 27.7224 5.68224 27.7022 5.66093C27.682 5.63962 27.6543 5.6271 27.625 5.62605H27.617ZM17.957 5.63905H17.959C18.037 5.64205 18.119 5.67705 18.203 5.74605C18.61 6.10805 18.126 6.53105 17.951 6.71505L17.086 7.61905C16.479 8.25005 16.215 8.67705 15.791 8.26905C15.431 7.89605 15.751 7.67305 16.439 6.97405L17.305 6.07205C17.509 5.87205 17.721 5.62805 17.957 5.63905ZM31.957 5.63905H31.959C32.037 5.64205 32.119 5.67705 32.203 5.74605C32.61 6.10805 32.126 6.53105 31.951 6.71505L31.086 7.61905C30.479 8.25005 30.215 8.67705 29.791 8.26905C29.431 7.89605 29.751 7.67305 30.439 6.97405L31.305 6.07205C31.509 5.87205 31.721 5.62805 31.957 5.63905ZM20.357 6.18905C20.3358 6.1923 20.316 6.20155 20.2999 6.2157C20.2839 6.22985 20.2722 6.24831 20.2663 6.2689C20.2604 6.28948 20.2605 6.31132 20.2667 6.33184C20.2728 6.35235 20.2847 6.37068 20.3009 6.38465C20.3171 6.39861 20.337 6.40763 20.3582 6.41064C20.3794 6.41365 20.4011 6.41051 20.4205 6.40161C20.44 6.39271 20.4565 6.37841 20.4681 6.36041C20.4797 6.34241 20.4859 6.32146 20.486 6.30005C20.486 6.24005 20.436 6.19005 20.375 6.19005H20.357V6.18905ZM27.607 6.18905C27.5858 6.1923 27.566 6.20155 27.5499 6.2157C27.5339 6.22985 27.5222 6.24831 27.5163 6.2689C27.5104 6.28948 27.5105 6.31132 27.5167 6.33184C27.5228 6.35235 27.5347 6.37068 27.5509 6.38465C27.5671 6.39861 27.587 6.40763 27.6082 6.41064C27.6294 6.41365 27.6511 6.41051 27.6705 6.40161C27.69 6.39271 27.7065 6.37841 27.7181 6.36041C27.7297 6.34241 27.7359 6.32146 27.736 6.30005C27.736 6.24005 27.686 6.19005 27.625 6.19005H27.607V6.18905ZM24.893 6.22405C24.7683 6.22607 24.6453 6.25273 24.531 6.3025C24.4167 6.35227 24.3133 6.42417 24.227 6.51405L22.418 8.37005C22.3312 8.45915 22.2627 8.56448 22.2167 8.68001C22.1706 8.79555 22.1477 8.91904 22.1493 9.04342C22.1509 9.16781 22.177 9.29065 22.2261 9.40495C22.2752 9.51924 22.3464 9.62274 22.4355 9.70955C22.5246 9.79635 22.6299 9.86475 22.7454 9.91085C22.861 9.95695 22.9844 9.97984 23.1088 9.97822C23.2332 9.97659 23.3561 9.95048 23.4704 9.90138C23.5846 9.85228 23.6882 9.78115 23.775 9.69205L25.584 7.83205C25.6709 7.74307 25.7395 7.63779 25.7856 7.52226C25.8318 7.40673 25.8547 7.28322 25.8531 7.15881C25.8514 7.0344 25.8252 6.91155 25.7759 6.7973C25.7266 6.68305 25.6553 6.57966 25.566 6.49305C25.4771 6.40595 25.3719 6.33726 25.2564 6.29093C25.1409 6.24459 25.0174 6.22152 24.893 6.22305V6.22405ZM24.957 6.70705H24.959C25.037 6.71105 25.119 6.74505 25.203 6.81405C25.61 7.17605 25.126 7.60005 24.951 7.78305L24.086 8.68705C23.479 9.31905 23.215 9.74605 22.791 9.33705C22.431 8.96405 22.751 8.74205 23.439 8.04305L24.305 7.14005C24.509 6.94005 24.721 6.69705 24.957 6.70705ZM20.377 6.75005C20.3622 6.74992 20.3475 6.7527 20.3338 6.75823C20.3201 6.76376 20.3077 6.77194 20.2971 6.78229C20.2758 6.8032 20.2637 6.83171 20.2635 6.86155C20.2632 6.89138 20.2748 6.9201 20.2957 6.94139C20.3166 6.96268 20.3451 6.97478 20.375 6.97505C20.4048 6.97531 20.4335 6.96371 20.4548 6.9428C20.4761 6.92189 20.4882 6.89338 20.4885 6.86355C20.4887 6.83371 20.4771 6.80499 20.4562 6.7837C20.4353 6.76242 20.4068 6.75031 20.377 6.75005ZM27.627 6.75005C27.6122 6.74992 27.5975 6.7527 27.5838 6.75823C27.5701 6.76376 27.5577 6.77194 27.5471 6.78229C27.5258 6.8032 27.5137 6.83171 27.5135 6.86155C27.5132 6.89138 27.5248 6.9201 27.5457 6.94139C27.5666 6.96268 27.5951 6.97478 27.625 6.97505C27.6548 6.97531 27.6835 6.96371 27.7048 6.9428C27.7261 6.92189 27.7382 6.89338 27.7385 6.86355C27.7387 6.83371 27.7271 6.80499 27.7062 6.7837C27.6853 6.76242 27.6568 6.75031 27.627 6.75005ZM20.367 7.31205C20.3376 7.3131 20.3099 7.32562 20.2897 7.34693C20.2695 7.36824 20.2584 7.39662 20.259 7.42598C20.2595 7.45533 20.2715 7.4833 20.2925 7.50388C20.3134 7.52445 20.3416 7.53598 20.371 7.53598C20.4003 7.53598 20.4285 7.52445 20.4494 7.50388C20.4704 7.4833 20.4824 7.45533 20.4829 7.42598C20.4835 7.39662 20.4724 7.36824 20.4522 7.34693C20.4321 7.32562 20.4043 7.3131 20.375 7.31205H20.367ZM27.617 7.31205C27.5876 7.3131 27.5599 7.32562 27.5397 7.34693C27.5195 7.36824 27.5084 7.39662 27.509 7.42598C27.5095 7.45533 27.5215 7.4833 27.5425 7.50388C27.5634 7.52445 27.5916 7.53598 27.621 7.53598C27.6503 7.53598 27.6785 7.52445 27.6994 7.50388C27.7204 7.4833 27.7324 7.45533 27.7329 7.42598C27.7335 7.39662 27.7224 7.36824 27.7022 7.34693C27.682 7.32562 27.6543 7.3131 27.625 7.31205H27.617ZM20.367 7.87205C20.3376 7.8731 20.3099 7.88562 20.2897 7.90693C20.2695 7.92824 20.2584 7.95662 20.259 7.98598C20.2595 8.01533 20.2715 8.0433 20.2925 8.06388C20.3134 8.08445 20.3416 8.09598 20.371 8.09598C20.4003 8.09598 20.4285 8.08445 20.4494 8.06388C20.4704 8.0433 20.4824 8.01533 20.4829 7.98598C20.4835 7.95662 20.4724 7.92824 20.4522 7.90693C20.4321 7.88562 20.4043 7.8731 20.375 7.87205H20.367ZM27.617 7.87205C27.5876 7.8731 27.5599 7.88562 27.5397 7.90693C27.5195 7.92824 27.5084 7.95662 27.509 7.98598C27.5095 8.01533 27.5215 8.0433 27.5425 8.06388C27.5634 8.08445 27.5916 8.09598 27.621 8.09598C27.6503 8.09598 27.6785 8.08445 27.6994 8.06388C27.7204 8.0433 27.7324 8.01533 27.7329 7.98598C27.7335 7.95662 27.7224 7.92824 27.7022 7.90693C27.682 7.88562 27.6543 7.8731 27.625 7.87205H27.617ZM20.367 8.43505C20.3376 8.4361 20.3099 8.44862 20.2897 8.46993C20.2695 8.49124 20.2584 8.51962 20.259 8.54898C20.2595 8.57833 20.2715 8.6063 20.2925 8.62688C20.3134 8.64745 20.3416 8.65898 20.371 8.65898C20.4003 8.65898 20.4285 8.64745 20.4494 8.62688C20.4704 8.6063 20.4824 8.57833 20.4829 8.54898C20.4835 8.51962 20.4724 8.49124 20.4522 8.46993C20.4321 8.44862 20.4043 8.4361 20.375 8.43505H20.367ZM27.617 8.43505C27.5876 8.4361 27.5599 8.44862 27.5397 8.46993C27.5195 8.49124 27.5084 8.51962 27.509 8.54898C27.5095 8.57833 27.5215 8.6063 27.5425 8.62688C27.5634 8.64745 27.5916 8.65898 27.621 8.65898C27.6503 8.65898 27.6785 8.64745 27.6994 8.62688C27.7204 8.6063 27.7324 8.57833 27.7329 8.54898C27.7335 8.51962 27.7224 8.49124 27.7022 8.46993C27.682 8.44862 27.6543 8.4361 27.625 8.43505H27.617ZM17.893 8.94905C17.7683 8.95107 17.6453 8.97773 17.531 9.0275C17.4167 9.07727 17.3133 9.14917 17.227 9.23905L15.418 11.095C15.3312 11.1841 15.2627 11.2895 15.2167 11.405C15.1706 11.5206 15.1477 11.644 15.1493 11.7684C15.1509 11.8928 15.177 12.0157 15.2261 12.1299C15.2752 12.2442 15.3464 12.3477 15.4355 12.4345C15.5246 12.5214 15.6299 12.5898 15.7454 12.6359C15.861 12.682 15.9844 12.7048 16.1088 12.7032C16.2332 12.7016 16.3561 12.6755 16.4704 12.6264C16.5846 12.5773 16.6882 12.5061 16.775 12.417L18.584 10.558C18.6711 10.4691 18.7397 10.3637 18.786 10.2481C18.8323 10.1325 18.8552 10.0088 18.8536 9.8843C18.8519 9.75978 18.8256 9.63681 18.7763 9.52247C18.7269 9.40813 18.6554 9.30467 18.566 9.21805C18.477 9.13113 18.3718 9.06262 18.2563 9.01646C18.1408 8.9703 18.0173 8.94739 17.893 8.94905ZM31.893 8.94905C31.7683 8.95107 31.6453 8.97773 31.531 9.0275C31.4167 9.07727 31.3134 9.14917 31.227 9.23905L29.418 11.095C29.3312 11.1841 29.2627 11.2895 29.2167 11.405C29.1706 11.5206 29.1477 11.644 29.1493 11.7684C29.1509 11.8928 29.177 12.0157 29.2261 12.1299C29.2752 12.2442 29.3464 12.3477 29.4355 12.4345C29.5246 12.5214 29.6299 12.5898 29.7454 12.6359C29.861 12.682 29.9844 12.7048 30.1088 12.7032C30.2332 12.7016 30.3561 12.6755 30.4704 12.6264C30.5846 12.5773 30.6882 12.5061 30.775 12.417L32.584 10.558C32.6711 10.4691 32.7397 10.3637 32.786 10.2481C32.8323 10.1325 32.8552 10.0088 32.8536 9.8843C32.8519 9.75978 32.8256 9.63681 32.7763 9.52247C32.7269 9.40813 32.6554 9.30467 32.566 9.21805C32.477 9.13113 32.3718 9.06262 32.2563 9.01646C32.1408 8.9703 32.0173 8.94739 31.893 8.94905ZM20.367 8.99805C20.3522 8.99897 20.3379 9.00277 20.3246 9.00925C20.3114 9.01573 20.2996 9.02475 20.2898 9.0358C20.2801 9.04685 20.2726 9.05971 20.2678 9.07365C20.263 9.08759 20.261 9.10234 20.262 9.11705C20.2629 9.13175 20.2667 9.14614 20.2732 9.15937C20.2796 9.17261 20.2887 9.18444 20.2997 9.19419C20.3108 9.20394 20.3236 9.21142 20.3376 9.2162C20.3515 9.22098 20.3662 9.22297 20.381 9.22205C20.4107 9.22019 20.4384 9.20661 20.4581 9.18429C20.4778 9.16198 20.4878 9.13275 20.486 9.10305C20.4841 9.07334 20.4705 9.04559 20.4482 9.0259C20.4259 9.00621 20.3967 8.99619 20.367 8.99805ZM27.617 8.99805C27.6022 8.99897 27.5879 9.00277 27.5746 9.00925C27.5614 9.01573 27.5496 9.02475 27.5398 9.0358C27.5301 9.04685 27.5226 9.05971 27.5178 9.07365C27.513 9.08759 27.511 9.10234 27.512 9.11705C27.5129 9.13175 27.5167 9.14614 27.5232 9.15937C27.5296 9.17261 27.5387 9.18444 27.5497 9.19419C27.5608 9.20394 27.5736 9.21142 27.5876 9.2162C27.6015 9.22098 27.6162 9.22297 27.631 9.22205C27.6607 9.22019 27.6884 9.20661 27.7081 9.18429C27.7278 9.16198 27.7378 9.13275 27.736 9.10305C27.7341 9.07334 27.7205 9.04559 27.6982 9.0259C27.6759 9.00621 27.6467 8.99619 27.617 8.99805ZM17.957 9.43105H17.959C18.037 9.43505 18.119 9.47105 18.203 9.53905C18.61 9.90105 18.126 10.324 17.951 10.508L17.086 11.412C16.479 12.043 16.215 12.47 15.791 12.062C15.431 11.689 15.751 11.466 16.439 10.767L17.305 9.86505C17.509 9.66505 17.721 9.42105 17.957 9.43105ZM31.957 9.43105H31.959C32.037 9.43505 32.119 9.47105 32.203 9.53905C32.61 9.90105 32.126 10.324 31.951 10.508L31.086 11.412C30.479 12.043 30.215 12.47 29.791 12.062C29.431 11.689 29.751 11.466 30.439 10.767L31.305 9.86505C31.509 9.66505 31.721 9.42105 31.957 9.43105ZM20.367 9.56105C20.3449 9.56242 20.3237 9.57025 20.306 9.58356C20.2883 9.59686 20.2749 9.61507 20.2675 9.63591C20.2601 9.65676 20.259 9.67932 20.2642 9.70081C20.2695 9.7223 20.281 9.74176 20.2972 9.75678C20.3135 9.77181 20.3338 9.78173 20.3556 9.78533C20.3774 9.78892 20.3999 9.78603 20.4201 9.77701C20.4403 9.76798 20.4574 9.75323 20.4693 9.73457C20.4812 9.71591 20.4873 9.69417 20.487 9.67205C20.487 9.65664 20.4839 9.64139 20.4777 9.62725C20.4716 9.61312 20.4626 9.6004 20.4514 9.58988C20.4401 9.57937 20.4268 9.5713 20.4123 9.56616C20.3978 9.56103 20.3823 9.55895 20.367 9.56005V9.56105ZM27.617 9.56105C27.5949 9.56242 27.5737 9.57025 27.556 9.58356C27.5383 9.59686 27.5249 9.61507 27.5175 9.63591C27.5101 9.65676 27.509 9.67932 27.5142 9.70081C27.5195 9.7223 27.531 9.74176 27.5472 9.75678C27.5635 9.77181 27.5838 9.78173 27.6056 9.78533C27.6274 9.78892 27.6499 9.78603 27.6701 9.77701C27.6903 9.76798 27.7074 9.75323 27.7193 9.73457C27.7312 9.71591 27.7373 9.69417 27.737 9.67205C27.737 9.65664 27.7339 9.64139 27.7277 9.62725C27.7216 9.61312 27.7126 9.6004 27.7014 9.58988C27.6901 9.57937 27.6768 9.5713 27.6623 9.56616C27.6478 9.56103 27.6323 9.55895 27.617 9.56005V9.56105ZM20.355 10.123C20.3286 10.1278 20.3047 10.1418 20.2877 10.1625C20.2707 10.1832 20.2615 10.2092 20.262 10.236C20.262 10.2658 20.2738 10.2942 20.2948 10.3152C20.3158 10.3362 20.3443 10.348 20.374 10.348C20.4037 10.348 20.4321 10.3362 20.4532 10.3152C20.4742 10.2942 20.486 10.2658 20.486 10.236C20.4857 10.2065 20.474 10.1782 20.4533 10.1571C20.4326 10.136 20.4045 10.1238 20.375 10.123H20.355ZM27.605 10.123C27.5786 10.1278 27.5547 10.1418 27.5377 10.1625C27.5207 10.1832 27.5115 10.2092 27.512 10.236C27.512 10.2658 27.5238 10.2942 27.5448 10.3152C27.5658 10.3362 27.5943 10.348 27.624 10.348C27.6537 10.348 27.6821 10.3362 27.7032 10.3152C27.7242 10.2942 27.736 10.2658 27.736 10.236C27.7357 10.2065 27.724 10.1782 27.7033 10.1571C27.6826 10.136 27.6545 10.1238 27.625 10.123H27.605ZM24.893 10.224C24.7683 10.2261 24.6453 10.2528 24.531 10.3026C24.4167 10.3523 24.3134 10.4242 24.227 10.514L22.418 12.371C22.2426 12.551 22.146 12.7932 22.1493 13.0444C22.1526 13.2956 22.2555 13.5352 22.4355 13.7105C22.6154 13.8859 22.8576 13.9825 23.1088 13.9792C23.36 13.9759 23.5996 13.873 23.775 13.693L25.584 11.833C25.6709 11.7441 25.7395 11.6388 25.7856 11.5233C25.8318 11.4077 25.8547 11.2842 25.8531 11.1598C25.8514 11.0354 25.8252 10.9125 25.7759 10.7983C25.7266 10.684 25.6553 10.5807 25.566 10.494C25.4771 10.4069 25.3719 10.3383 25.2564 10.2919C25.1409 10.2456 25.0174 10.2225 24.893 10.224ZM20.377 10.684C20.362 10.6842 20.3472 10.6873 20.3334 10.6931C20.3196 10.699 20.3071 10.7075 20.2966 10.7181C20.2861 10.7288 20.2779 10.7415 20.2722 10.7553C20.2666 10.7692 20.2638 10.7841 20.264 10.799C20.264 10.861 20.314 10.909 20.377 10.908C20.3915 10.9082 20.4059 10.9054 20.4194 10.9C20.4328 10.8945 20.4451 10.8864 20.4554 10.8762C20.4657 10.866 20.4739 10.8538 20.4795 10.8404C20.4851 10.827 20.488 10.8126 20.488 10.798C20.4882 10.7682 20.4767 10.7393 20.456 10.7178C20.4352 10.6963 20.4068 10.6838 20.377 10.683V10.684ZM27.627 10.684C27.612 10.6842 27.5972 10.6873 27.5834 10.6931C27.5696 10.699 27.5571 10.7075 27.5466 10.7181C27.5361 10.7288 27.5279 10.7415 27.5222 10.7553C27.5166 10.7692 27.5138 10.7841 27.514 10.799C27.514 10.861 27.564 10.909 27.627 10.908C27.6415 10.9082 27.6559 10.9054 27.6694 10.9C27.6828 10.8945 27.6951 10.8864 27.7054 10.8762C27.7157 10.866 27.7239 10.8538 27.7295 10.8404C27.7351 10.827 27.738 10.8126 27.738 10.798C27.7382 10.7682 27.7267 10.7393 27.706 10.7178C27.6852 10.6963 27.6568 10.6838 27.627 10.683V10.684ZM24.957 10.709H24.959C25.037 10.713 25.119 10.748 25.203 10.816C25.61 11.178 25.126 11.602 24.951 11.785L24.086 12.689C23.479 13.321 23.215 13.748 22.791 13.339C22.431 12.966 22.751 12.744 23.439 12.045L24.305 11.142C24.509 10.942 24.721 10.699 24.957 10.709ZM20.377 11.246C20.3622 11.2459 20.3475 11.2487 20.3338 11.2542C20.3201 11.2598 20.3077 11.2679 20.2971 11.2783C20.2758 11.2992 20.2637 11.3277 20.2635 11.3575C20.2632 11.3874 20.2748 11.4161 20.2957 11.4374C20.3166 11.4587 20.3451 11.4708 20.375 11.471C20.4048 11.4713 20.4335 11.4597 20.4548 11.4388C20.4761 11.4179 20.4882 11.3894 20.4885 11.3595C20.4887 11.3297 20.4771 11.301 20.4562 11.2797C20.4353 11.2584 20.4068 11.2463 20.377 11.246ZM27.627 11.246C27.6122 11.2459 27.5975 11.2487 27.5838 11.2542C27.5701 11.2598 27.5577 11.2679 27.5471 11.2783C27.5258 11.2992 27.5137 11.3277 27.5135 11.3575C27.5132 11.3874 27.5248 11.4161 27.5457 11.4374C27.5666 11.4587 27.5951 11.4708 27.625 11.471C27.6548 11.4713 27.6835 11.4597 27.7048 11.4388C27.7261 11.4179 27.7382 11.3894 27.7385 11.3595C27.7387 11.3297 27.7271 11.301 27.7062 11.2797C27.6853 11.2584 27.6568 11.2463 27.627 11.246ZM20.367 11.808C20.3386 11.8115 20.3127 11.8255 20.2941 11.8472C20.2756 11.8689 20.2659 11.8967 20.2669 11.9252C20.2679 11.9537 20.2796 11.9808 20.2996 12.0011C20.3196 12.0215 20.3465 12.0336 20.375 12.035C20.436 12.035 20.485 11.983 20.486 11.922C20.4863 11.9066 20.4834 11.8912 20.4774 11.8769C20.4715 11.8626 20.4626 11.8497 20.4515 11.8389C20.4403 11.8282 20.427 11.82 20.4124 11.8146C20.3979 11.8093 20.3824 11.8071 20.367 11.808ZM27.617 11.808C27.5886 11.8115 27.5627 11.8255 27.5441 11.8472C27.5256 11.8689 27.5159 11.8967 27.5169 11.9252C27.5179 11.9537 27.5296 11.9808 27.5496 12.0011C27.5696 12.0215 27.5965 12.0336 27.625 12.035C27.686 12.035 27.735 11.983 27.736 11.922C27.7363 11.9066 27.7334 11.8912 27.7274 11.8769C27.7215 11.8626 27.7126 11.8497 27.7015 11.8389C27.6903 11.8282 27.677 11.82 27.6624 11.8146C27.6479 11.8093 27.6324 11.8071 27.617 11.808ZM20.367 12.371C20.3386 12.3745 20.3127 12.3885 20.2941 12.4102C20.2756 12.4319 20.2659 12.4597 20.2669 12.4882C20.2679 12.5167 20.2796 12.5438 20.2996 12.5641C20.3196 12.5845 20.3465 12.5966 20.375 12.598C20.436 12.597 20.485 12.545 20.486 12.484C20.4861 12.4693 20.4833 12.4548 20.4778 12.4411C20.4723 12.4275 20.4642 12.4151 20.4539 12.4046C20.4436 12.3941 20.4313 12.3857 20.4177 12.38C20.4042 12.3742 20.3897 12.3712 20.375 12.371H20.367ZM27.617 12.371C27.5886 12.3745 27.5627 12.3885 27.5441 12.4102C27.5256 12.4319 27.5159 12.4597 27.5169 12.4882C27.5179 12.5167 27.5296 12.5438 27.5496 12.5641C27.5696 12.5845 27.5965 12.5966 27.625 12.598C27.686 12.597 27.735 12.545 27.736 12.484C27.7361 12.4693 27.7333 12.4548 27.7278 12.4411C27.7223 12.4275 27.7142 12.4151 27.7039 12.4046C27.6936 12.3941 27.6813 12.3857 27.6677 12.38C27.6542 12.3742 27.6397 12.3712 27.625 12.371H27.617ZM17.893 12.742C17.7683 12.7441 17.6453 12.7708 17.531 12.8206C17.4167 12.8703 17.3134 12.9422 17.227 13.032L15.418 14.889C15.3307 14.9779 15.2619 15.0831 15.2154 15.1987C15.169 15.3143 15.1459 15.4378 15.1474 15.5624C15.1488 15.6869 15.1749 15.8099 15.2241 15.9243C15.2733 16.0387 15.3446 16.1423 15.434 16.229C15.6144 16.4041 15.8568 16.5005 16.1082 16.4971C16.3595 16.4937 16.5993 16.3909 16.775 16.211L18.584 14.351C18.6711 14.2621 18.7397 14.1567 18.786 14.0411C18.8323 13.9255 18.8552 13.8018 18.8536 13.6773C18.8519 13.5528 18.8256 13.4298 18.7763 13.3155C18.7269 13.2011 18.6554 13.0977 18.566 13.011C18.477 12.9241 18.3718 12.8556 18.2563 12.8095C18.1408 12.7633 18.0173 12.7404 17.893 12.742ZM31.893 12.742C31.7683 12.7441 31.6453 12.7708 31.531 12.8206C31.4167 12.8703 31.3134 12.9422 31.227 13.032L29.418 14.889C29.2518 15.0704 29.1627 15.3094 29.1696 15.5553C29.1765 15.8012 29.2788 16.0348 29.4549 16.2066C29.631 16.3784 29.867 16.475 30.113 16.4758C30.359 16.4766 30.5957 16.3817 30.773 16.211L32.582 14.351C32.714 14.2174 32.8033 14.0473 32.8382 13.8627C32.8732 13.678 32.8523 13.4871 32.7782 13.3144C32.7042 13.1417 32.5803 12.995 32.4224 12.893C32.2645 12.7911 32.0799 12.7385 31.892 12.742H31.893ZM20.367 12.933C20.3376 12.9341 20.3099 12.9466 20.2897 12.9679C20.2695 12.9892 20.2584 13.0176 20.259 13.047C20.2595 13.0763 20.2715 13.1043 20.2925 13.1249C20.3134 13.1454 20.3416 13.157 20.371 13.157C20.4003 13.157 20.4285 13.1454 20.4494 13.1249C20.4704 13.1043 20.4824 13.0763 20.4829 13.047C20.4835 13.0176 20.4724 12.9892 20.4522 12.9679C20.4321 12.9466 20.4043 12.9341 20.375 12.933H20.367ZM27.617 12.933C27.5876 12.9341 27.5599 12.9466 27.5397 12.9679C27.5195 12.9892 27.5084 13.0176 27.509 13.047C27.5095 13.0763 27.5215 13.1043 27.5425 13.1249C27.5634 13.1454 27.5916 13.157 27.621 13.157C27.6503 13.157 27.6785 13.1454 27.6994 13.1249C27.7204 13.1043 27.7324 13.0763 27.7329 13.047C27.7335 13.0176 27.7224 12.9892 27.7022 12.9679C27.682 12.9466 27.6543 12.9341 27.625 12.933H27.617ZM17.957 13.224H17.959C18.037 13.228 18.119 13.264 18.203 13.332C18.61 13.694 18.126 14.117 17.951 14.301L17.086 15.205C16.479 15.836 16.215 16.263 15.791 15.855C15.431 15.482 15.751 15.259 16.439 14.56L17.305 13.658C17.509 13.458 17.721 13.214 17.957 13.224ZM31.957 13.224H31.959C32.037 13.228 32.119 13.264 32.203 13.332C32.61 13.694 32.126 14.117 31.951 14.301L31.086 15.205C30.479 15.836 30.215 16.263 29.791 15.855C29.431 15.482 29.751 15.259 30.439 14.56L31.305 13.658C31.509 13.458 31.721 13.214 31.957 13.224ZM20.367 13.496C20.3376 13.4971 20.3099 13.5096 20.2897 13.5309C20.2695 13.5522 20.2584 13.5806 20.259 13.61C20.2595 13.6393 20.2715 13.6673 20.2925 13.6879C20.3134 13.7084 20.3416 13.72 20.371 13.72C20.4003 13.72 20.4285 13.7084 20.4494 13.6879C20.4704 13.6673 20.4824 13.6393 20.4829 13.61C20.4835 13.5806 20.4724 13.5522 20.4522 13.5309C20.4321 13.5096 20.4043 13.4971 20.375 13.496H20.367ZM27.617 13.496C27.5876 13.4971 27.5599 13.5096 27.5397 13.5309C27.5195 13.5522 27.5084 13.5806 27.509 13.61C27.5095 13.6393 27.5215 13.6673 27.5425 13.6879C27.5634 13.7084 27.5916 13.72 27.621 13.72C27.6503 13.72 27.6785 13.7084 27.6994 13.6879C27.7204 13.6673 27.7324 13.6393 27.7329 13.61C27.7335 13.5806 27.7224 13.5522 27.7022 13.5309C27.682 13.5096 27.6543 13.4971 27.625 13.496H27.617ZM20.367 14.058C20.3522 14.059 20.3377 14.0628 20.3244 14.0693C20.3111 14.0758 20.2993 14.0849 20.2895 14.0959C20.2797 14.107 20.2721 14.12 20.2673 14.134C20.2625 14.148 20.2605 14.1628 20.2615 14.1775C20.2624 14.1923 20.2662 14.2068 20.2727 14.2201C20.2792 14.2334 20.2883 14.2453 20.2994 14.255C20.3105 14.2648 20.3234 14.2724 20.3374 14.2772C20.3514 14.282 20.3662 14.284 20.381 14.283C20.4108 14.2812 20.4387 14.2676 20.4585 14.2451C20.4782 14.2227 20.4883 14.1934 20.4865 14.1635C20.4846 14.1337 20.471 14.1058 20.4486 14.086C20.4261 14.0663 20.3968 14.0562 20.367 14.058ZM27.617 14.058C27.6022 14.059 27.5877 14.0628 27.5744 14.0693C27.5611 14.0758 27.5493 14.0849 27.5395 14.0959C27.5297 14.107 27.5221 14.12 27.5173 14.134C27.5125 14.148 27.5105 14.1628 27.5115 14.1775C27.5124 14.1923 27.5162 14.2068 27.5227 14.2201C27.5292 14.2334 27.5383 14.2453 27.5494 14.255C27.5605 14.2648 27.5734 14.2724 27.5874 14.2772C27.6014 14.282 27.6162 14.284 27.631 14.283C27.6608 14.2812 27.6887 14.2676 27.7085 14.2451C27.7282 14.2227 27.7383 14.1934 27.7365 14.1635C27.7346 14.1337 27.721 14.1058 27.6986 14.086C27.6761 14.0663 27.6468 14.0562 27.617 14.058ZM24.893 14.226C24.7683 14.2281 24.6453 14.2547 24.531 14.3045C24.4167 14.3543 24.3133 14.4262 24.227 14.516L22.418 16.373C22.3307 16.4619 22.2619 16.5671 22.2154 16.6827C22.169 16.7983 22.1459 16.9218 22.1474 17.0464C22.1488 17.1709 22.1749 17.2939 22.2241 17.4083C22.2733 17.5227 22.3446 17.6263 22.434 17.713C22.6141 17.8883 22.8564 17.9848 23.1077 17.9814C23.3589 17.978 23.5986 17.875 23.774 17.695L25.582 15.835C25.7133 15.7013 25.802 15.5314 25.8365 15.3471C25.8711 15.1628 25.85 14.9724 25.7761 14.8001C25.7021 14.6278 25.5785 14.4814 25.4211 14.3795C25.2636 14.2776 25.0794 14.2249 24.892 14.228V14.226H24.893ZM20.355 14.621C20.3287 14.6254 20.3049 14.6389 20.2879 14.6593C20.2708 14.6797 20.2616 14.7055 20.262 14.732C20.2618 14.7542 20.2681 14.7759 20.2803 14.7944C20.2924 14.813 20.3098 14.8275 20.3302 14.8361C20.3506 14.8448 20.3731 14.8472 20.3948 14.8431C20.4166 14.839 20.4366 14.8285 20.4524 14.8129C20.4682 14.7974 20.4791 14.7776 20.4836 14.7559C20.4881 14.7342 20.4861 14.7117 20.4778 14.6911C20.4695 14.6706 20.4553 14.653 20.437 14.6405C20.4187 14.628 20.3971 14.6212 20.375 14.621H20.355ZM27.605 14.621C27.5787 14.6254 27.5549 14.6389 27.5379 14.6593C27.5208 14.6797 27.5116 14.7055 27.512 14.732C27.5118 14.7542 27.5181 14.7759 27.5303 14.7944C27.5424 14.813 27.5598 14.8275 27.5802 14.8361C27.6006 14.8448 27.6231 14.8472 27.6448 14.8431C27.6666 14.839 27.6866 14.8285 27.7024 14.8129C27.7182 14.7974 27.7291 14.7776 27.7336 14.7559C27.7381 14.7342 27.7361 14.7117 27.7278 14.6911C27.7195 14.6706 27.7053 14.653 27.687 14.6405C27.6687 14.628 27.6471 14.6212 27.625 14.621H27.605ZM24.957 14.709H24.959C25.037 14.713 25.119 14.748 25.203 14.816C25.61 15.178 25.126 15.602 24.951 15.785L24.086 16.689C23.479 17.321 23.215 17.747 22.791 17.339C22.431 16.966 22.751 16.744 23.439 16.045L24.305 15.142C24.509 14.942 24.721 14.699 24.957 14.709ZM20.355 15.183C20.3339 15.1865 20.3142 15.1959 20.2983 15.2101C20.2824 15.2244 20.2708 15.2429 20.2651 15.2634C20.2593 15.284 20.2596 15.3058 20.2658 15.3262C20.272 15.3467 20.284 15.3649 20.3002 15.3788C20.3165 15.3926 20.3364 15.4016 20.3575 15.4045C20.3787 15.4075 20.4002 15.4043 20.4196 15.3954C20.4391 15.3865 20.4555 15.3722 20.4671 15.3543C20.4787 15.3363 20.4849 15.3154 20.485 15.294C20.485 15.234 20.436 15.184 20.375 15.184H20.355V15.183ZM27.605 15.183C27.5839 15.1865 27.5642 15.1959 27.5483 15.2101C27.5324 15.2244 27.5208 15.2429 27.5151 15.2634C27.5093 15.284 27.5096 15.3058 27.5158 15.3262C27.522 15.3467 27.534 15.3649 27.5502 15.3788C27.5665 15.3926 27.5864 15.4016 27.6075 15.4045C27.6287 15.4075 27.6502 15.4043 27.6696 15.3954C27.6891 15.3865 27.7055 15.3722 27.7171 15.3543C27.7287 15.3363 27.7349 15.3154 27.735 15.294C27.735 15.234 27.686 15.184 27.625 15.184H27.605V15.183ZM20.377 15.744C20.3622 15.7439 20.3475 15.7467 20.3338 15.7522C20.3201 15.7578 20.3077 15.7659 20.2971 15.7763C20.2758 15.7972 20.2637 15.8257 20.2635 15.8555C20.2632 15.8854 20.2748 15.9141 20.2957 15.9354C20.3166 15.9567 20.3451 15.9688 20.375 15.969C20.4048 15.9693 20.4335 15.9577 20.4548 15.9368C20.4761 15.9159 20.4882 15.8874 20.4885 15.8575C20.4887 15.8277 20.4771 15.799 20.4562 15.7777C20.4353 15.7564 20.4068 15.7443 20.377 15.744ZM27.627 15.744C27.6122 15.7439 27.5975 15.7467 27.5838 15.7522C27.5701 15.7578 27.5577 15.7659 27.5471 15.7763C27.5258 15.7972 27.5137 15.8257 27.5135 15.8555C27.5132 15.8854 27.5248 15.9141 27.5457 15.9354C27.5666 15.9567 27.5951 15.9688 27.625 15.969C27.6548 15.9693 27.6835 15.9577 27.7048 15.9368C27.7261 15.9159 27.7382 15.8874 27.7385 15.8575C27.7387 15.8277 27.7271 15.799 27.7062 15.7777C27.6853 15.7564 27.6568 15.7443 27.627 15.744ZM20.367 16.307C20.3383 16.3088 20.3114 16.3216 20.2919 16.3426C20.2724 16.3636 20.2616 16.3913 20.262 16.42C20.262 16.482 20.312 16.532 20.375 16.531C20.3897 16.5305 20.4041 16.5271 20.4175 16.521C20.4309 16.5149 20.443 16.5062 20.453 16.4954C20.463 16.4846 20.4708 16.472 20.476 16.4582C20.4811 16.4444 20.4835 16.4298 20.483 16.415C20.4824 16.4003 20.479 16.3859 20.4729 16.3725C20.4668 16.3591 20.4581 16.3471 20.4473 16.337C20.4366 16.327 20.4239 16.3192 20.4101 16.314C20.3963 16.3089 20.3817 16.3065 20.367 16.307ZM27.617 16.307C27.5883 16.3088 27.5614 16.3216 27.5419 16.3426C27.5224 16.3636 27.5116 16.3913 27.512 16.42C27.512 16.482 27.562 16.532 27.625 16.531C27.6397 16.5305 27.6541 16.5271 27.6675 16.521C27.6809 16.5149 27.693 16.5062 27.703 16.4954C27.713 16.4846 27.7208 16.472 27.726 16.4582C27.7311 16.4444 27.7335 16.4298 27.733 16.415C27.7324 16.4003 27.729 16.3859 27.7229 16.3725C27.7168 16.3591 27.7081 16.3471 27.6973 16.337C27.6866 16.327 27.6739 16.3192 27.6601 16.314C27.6463 16.3089 27.6317 16.3065 27.617 16.307ZM17.893 16.535C17.7683 16.5371 17.6453 16.5637 17.531 16.6135C17.4167 16.6633 17.3133 16.7352 17.227 16.825L15.418 18.682C15.3266 18.77 15.2538 18.8755 15.2039 18.9921C15.1541 19.1088 15.1282 19.2343 15.1277 19.3611C15.1273 19.488 15.1524 19.6136 15.2014 19.7306C15.2505 19.8476 15.3226 19.9535 15.4134 20.0421C15.5042 20.1307 15.6119 20.2002 15.73 20.2463C15.8482 20.2925 15.9744 20.3145 16.1012 20.3109C16.228 20.3074 16.3529 20.2784 16.4682 20.2257C16.5836 20.1729 16.6873 20.0976 16.773 20.004L18.582 18.144C18.714 18.0104 18.8033 17.8403 18.8382 17.6557C18.8732 17.471 18.8523 17.2801 18.7782 17.1074C18.7042 16.9347 18.5803 16.788 18.4224 16.686C18.2645 16.5841 18.0799 16.5315 17.892 16.535H17.893ZM31.893 16.535C31.7683 16.5371 31.6453 16.5637 31.531 16.6135C31.4167 16.6633 31.3134 16.7352 31.227 16.825L29.418 18.682C29.2518 18.8634 29.1627 19.1024 29.1696 19.3483C29.1765 19.5942 29.2788 19.8278 29.4549 19.9996C29.631 20.1714 29.867 20.268 30.113 20.2688C30.359 20.2696 30.5957 20.1747 30.773 20.004L32.582 18.144C32.714 18.0104 32.8033 17.8403 32.8382 17.6557C32.8732 17.471 32.8523 17.2801 32.7782 17.1074C32.7042 16.9347 32.5803 16.788 32.4224 16.686C32.2645 16.5841 32.0799 16.5315 31.892 16.535H31.893ZM20.367 16.869C20.3376 16.8701 20.3099 16.8826 20.2897 16.9039C20.2695 16.9252 20.2584 16.9536 20.259 16.983C20.2595 17.0123 20.2715 17.0403 20.2925 17.0609C20.3134 17.0814 20.3416 17.093 20.371 17.093C20.4003 17.093 20.4285 17.0814 20.4494 17.0609C20.4704 17.0403 20.4824 17.0123 20.4829 16.983C20.4835 16.9536 20.4724 16.9252 20.4522 16.9039C20.4321 16.8826 20.4043 16.8701 20.375 16.869C20.3723 16.8689 20.3696 16.8689 20.367 16.869ZM27.617 16.869C27.5876 16.8701 27.5599 16.8826 27.5397 16.9039C27.5195 16.9252 27.5084 16.9536 27.509 16.983C27.5095 17.0123 27.5215 17.0403 27.5425 17.0609C27.5634 17.0814 27.5916 17.093 27.621 17.093C27.6503 17.093 27.6785 17.0814 27.6994 17.0609C27.7204 17.0403 27.7324 17.0123 27.7329 16.983C27.7335 16.9536 27.7224 16.9252 27.7022 16.9039C27.682 16.8826 27.6543 16.8701 27.625 16.869C27.6223 16.8689 27.6196 16.8689 27.617 16.869ZM17.957 17.017V17.019H17.959C18.037 17.023 18.119 17.057 18.203 17.125C18.61 17.486 18.126 17.91 17.951 18.094L17.086 18.998C16.479 19.629 16.215 20.056 15.791 19.648C15.431 19.275 15.751 19.052 16.439 18.353L17.305 17.451C17.509 17.251 17.721 17.007 17.957 17.017ZM31.957 17.017V17.019H31.959C32.037 17.023 32.119 17.057 32.203 17.125C32.61 17.486 32.126 17.91 31.951 18.094L31.086 18.998C30.479 19.629 30.215 20.056 29.791 19.648C29.431 19.275 29.751 19.052 30.439 18.353L31.305 17.451C31.509 17.251 31.721 17.007 31.957 17.017ZM20.367 17.432C20.3522 17.433 20.3379 17.4368 20.3246 17.4433C20.3114 17.4497 20.2996 17.4588 20.2898 17.4698C20.2801 17.4809 20.2726 17.4937 20.2678 17.5077C20.263 17.5216 20.261 17.5363 20.262 17.551C20.2629 17.5658 20.2667 17.5801 20.2732 17.5934C20.2796 17.6066 20.2887 17.6184 20.2997 17.6282C20.3108 17.6379 20.3236 17.6454 20.3376 17.6502C20.3515 17.655 20.3662 17.657 20.381 17.656C20.4107 17.6542 20.4384 17.6406 20.4581 17.6183C20.4778 17.596 20.4878 17.5668 20.486 17.537C20.4841 17.5073 20.4705 17.4796 20.4482 17.4599C20.4259 17.4402 20.3967 17.4302 20.367 17.432ZM27.617 17.432C27.6022 17.433 27.5879 17.4368 27.5746 17.4433C27.5614 17.4497 27.5496 17.4588 27.5398 17.4698C27.5301 17.4809 27.5226 17.4937 27.5178 17.5077C27.513 17.5216 27.511 17.5363 27.512 17.551C27.5129 17.5658 27.5167 17.5801 27.5232 17.5934C27.5296 17.6066 27.5387 17.6184 27.5497 17.6282C27.5608 17.6379 27.5736 17.6454 27.5876 17.6502C27.6015 17.655 27.6162 17.657 27.631 17.656C27.6607 17.6542 27.6884 17.6406 27.7081 17.6183C27.7278 17.596 27.7378 17.5668 27.736 17.537C27.7341 17.5073 27.7205 17.4796 27.6982 17.4599C27.6759 17.4402 27.6467 17.4302 27.617 17.432ZM20.367 17.994C20.3522 17.995 20.3379 17.9988 20.3246 18.0053C20.3114 18.0117 20.2996 18.0208 20.2898 18.0318C20.2801 18.0429 20.2726 18.0557 20.2678 18.0697C20.263 18.0836 20.261 18.0983 20.262 18.113C20.2629 18.1278 20.2667 18.1421 20.2732 18.1554C20.2796 18.1686 20.2887 18.1804 20.2997 18.1902C20.3108 18.1999 20.3236 18.2074 20.3376 18.2122C20.3515 18.217 20.3662 18.219 20.381 18.218C20.4107 18.2162 20.4384 18.2026 20.4581 18.1803C20.4778 18.158 20.4878 18.1288 20.486 18.099C20.4841 18.0693 20.4705 18.0416 20.4482 18.0219C20.4259 18.0022 20.3967 17.9922 20.367 17.994ZM27.617 17.994C27.5873 17.9959 27.5595 18.0095 27.5398 18.0318C27.5201 18.0541 27.5101 18.0833 27.512 18.113C27.5138 18.1428 27.5274 18.1705 27.5497 18.1902C27.572 18.2099 27.6013 18.2199 27.631 18.218C27.6457 18.2171 27.66 18.2133 27.6733 18.2068C27.6865 18.2004 27.6984 18.1913 27.7081 18.1803C27.7179 18.1692 27.7253 18.1564 27.7301 18.1424C27.7349 18.1285 27.7369 18.1138 27.736 18.099C27.735 18.0843 27.7312 18.07 27.7248 18.0567C27.7183 18.0435 27.7093 18.0317 27.6982 18.0219C27.6872 18.0122 27.6743 18.0047 27.6603 17.9999C27.6464 17.9951 27.6317 17.9931 27.617 17.994ZM24.893 18.226C24.7683 18.2281 24.6453 18.2547 24.531 18.3045C24.4167 18.3543 24.3133 18.4262 24.227 18.516L22.418 20.373C22.3307 20.4619 22.2619 20.5671 22.2154 20.6827C22.169 20.7983 22.1459 20.9218 22.1474 21.0464C22.1488 21.1709 22.1749 21.2939 22.2241 21.4083C22.2733 21.5227 22.3446 21.6263 22.434 21.713C22.6141 21.8883 22.8564 21.9848 23.1077 21.9814C23.3589 21.978 23.5986 21.875 23.774 21.695L25.582 19.835C25.714 19.7014 25.8033 19.5313 25.8382 19.3467C25.8732 19.162 25.8523 18.9711 25.7782 18.7984C25.7042 18.6257 25.5803 18.479 25.4224 18.377C25.2645 18.2751 25.0799 18.2225 24.892 18.226H24.893ZM20.367 18.556C20.3522 18.557 20.3377 18.5608 20.3244 18.5673C20.3111 18.5738 20.2993 18.5829 20.2895 18.5939C20.2797 18.605 20.2721 18.618 20.2673 18.632C20.2625 18.646 20.2605 18.6608 20.2615 18.6755C20.2624 18.6903 20.2662 18.7048 20.2727 18.7181C20.2792 18.7314 20.2883 18.7432 20.2994 18.753C20.3105 18.7628 20.3234 18.7704 20.3374 18.7752C20.3514 18.78 20.3662 18.782 20.381 18.781C20.4107 18.7792 20.4384 18.7656 20.4581 18.7433C20.4778 18.721 20.4878 18.6918 20.486 18.662C20.4841 18.6323 20.4705 18.6046 20.4482 18.5849C20.4259 18.5652 20.3967 18.5552 20.367 18.557V18.556ZM27.617 18.556C27.6022 18.557 27.5877 18.5608 27.5744 18.5673C27.5611 18.5738 27.5493 18.5829 27.5395 18.5939C27.5297 18.605 27.5221 18.618 27.5173 18.632C27.5125 18.646 27.5105 18.6608 27.5115 18.6755C27.5124 18.6903 27.5162 18.7048 27.5227 18.7181C27.5292 18.7314 27.5383 18.7432 27.5494 18.753C27.5605 18.7628 27.5734 18.7704 27.5874 18.7752C27.6014 18.78 27.6162 18.782 27.631 18.781C27.6607 18.7792 27.6884 18.7656 27.7081 18.7433C27.7278 18.721 27.7378 18.6918 27.736 18.662C27.7341 18.6323 27.7205 18.6046 27.6982 18.5849C27.6759 18.5652 27.6467 18.5552 27.617 18.557V18.556ZM24.957 18.709H24.959C25.037 18.713 25.119 18.747 25.203 18.816C25.61 19.178 25.126 19.602 24.951 19.785L24.086 20.689C23.479 21.321 23.215 21.747 22.791 21.339C22.431 20.966 22.751 20.744 23.439 20.045L24.305 19.142C24.509 18.942 24.721 18.699 24.957 18.709ZM20.355 19.119C20.3286 19.1232 20.3047 19.1367 20.2876 19.1571C20.2705 19.1775 20.2614 19.2034 20.262 19.23C20.2616 19.2525 20.2678 19.2745 20.28 19.2934C20.2922 19.3122 20.3097 19.327 20.3303 19.3359C20.3509 19.3447 20.3737 19.3472 20.3958 19.3431C20.4178 19.339 20.4381 19.3284 20.4541 19.3127C20.4701 19.2969 20.4811 19.2768 20.4856 19.2548C20.4901 19.2329 20.488 19.21 20.4795 19.1893C20.471 19.1685 20.4566 19.1507 20.4379 19.1382C20.4193 19.1257 20.3974 19.1191 20.375 19.119H20.355ZM27.605 19.119C27.5786 19.1232 27.5547 19.1367 27.5376 19.1571C27.5205 19.1775 27.5114 19.2034 27.512 19.23C27.5116 19.2525 27.5178 19.2745 27.53 19.2934C27.5422 19.3122 27.5597 19.327 27.5803 19.3359C27.6009 19.3447 27.6237 19.3472 27.6458 19.3431C27.6678 19.339 27.6881 19.3284 27.7041 19.3127C27.7201 19.2969 27.7311 19.2768 27.7356 19.2548C27.7401 19.2329 27.738 19.21 27.7295 19.1893C27.721 19.1685 27.7066 19.1507 27.6879 19.1382C27.6693 19.1257 27.6474 19.1191 27.625 19.119H27.605ZM20.377 19.679C20.3622 19.6789 20.3475 19.6817 20.3338 19.6872C20.3201 19.6928 20.3077 19.7009 20.2971 19.7113C20.2866 19.7216 20.2782 19.734 20.2724 19.7476C20.2666 19.7612 20.2636 19.7758 20.2635 19.7905C20.2633 19.8053 20.2661 19.82 20.2716 19.8337C20.2772 19.8474 20.2853 19.8599 20.2957 19.8704C20.3061 19.8809 20.3184 19.8893 20.332 19.8951C20.3456 19.9009 20.3602 19.9039 20.375 19.904C20.3897 19.9042 20.4043 19.9014 20.4179 19.8959C20.4315 19.8904 20.444 19.8823 20.4544 19.872C20.4649 19.8616 20.4733 19.8494 20.479 19.8358C20.4848 19.8223 20.4878 19.8078 20.488 19.793C20.4881 19.7783 20.4853 19.7637 20.4798 19.7501C20.4743 19.7365 20.4662 19.7241 20.4559 19.7136C20.4456 19.7031 20.4333 19.6947 20.4197 19.689C20.4062 19.6832 20.3917 19.6802 20.377 19.68V19.679ZM27.627 19.679C27.6122 19.6789 27.5975 19.6817 27.5838 19.6872C27.5701 19.6928 27.5577 19.7009 27.5471 19.7113C27.5366 19.7216 27.5282 19.734 27.5224 19.7476C27.5166 19.7612 27.5136 19.7758 27.5135 19.7905C27.5133 19.8053 27.5161 19.82 27.5216 19.8337C27.5272 19.8474 27.5353 19.8599 27.5457 19.8704C27.5561 19.8809 27.5684 19.8893 27.582 19.8951C27.5956 19.9009 27.6102 19.9039 27.625 19.904C27.6397 19.9042 27.6543 19.9014 27.6679 19.8959C27.6815 19.8904 27.694 19.8823 27.7044 19.872C27.7149 19.8616 27.7233 19.8494 27.729 19.8358C27.7348 19.8223 27.7378 19.8078 27.738 19.793C27.7381 19.7783 27.7353 19.7637 27.7298 19.7501C27.7243 19.7365 27.7162 19.7241 27.7059 19.7136C27.6956 19.7031 27.6833 19.6947 27.6697 19.689C27.6562 19.6832 27.6417 19.6802 27.627 19.68V19.679ZM20.367 20.242C20.3383 20.2438 20.3114 20.2566 20.2919 20.2776C20.2724 20.2986 20.2616 20.3263 20.262 20.355C20.2622 20.3771 20.2689 20.3986 20.2812 20.4169C20.2936 20.4352 20.3111 20.4494 20.3316 20.4577C20.352 20.4661 20.3744 20.4682 20.396 20.4638C20.4177 20.4595 20.4375 20.4488 20.4531 20.4332C20.4688 20.4176 20.4794 20.3978 20.4837 20.3761C20.4881 20.3545 20.486 20.3321 20.4776 20.3116C20.4693 20.2912 20.4551 20.2737 20.4368 20.2613C20.4185 20.249 20.397 20.2422 20.375 20.242H20.367ZM27.617 20.242C27.5883 20.2438 27.5614 20.2566 27.5419 20.2776C27.5224 20.2986 27.5116 20.3263 27.512 20.355C27.5122 20.3771 27.5189 20.3986 27.5312 20.4169C27.5436 20.4352 27.5611 20.4494 27.5816 20.4577C27.602 20.4661 27.6244 20.4682 27.646 20.4638C27.6677 20.4595 27.6875 20.4488 27.7031 20.4332C27.7188 20.4176 27.7294 20.3978 27.7337 20.3761C27.7381 20.3545 27.736 20.3321 27.7276 20.3116C27.7193 20.2912 27.7051 20.2737 27.6868 20.2613C27.6685 20.249 27.647 20.2422 27.625 20.242H27.617ZM17.893 20.328C17.7683 20.3304 17.6452 20.3573 17.531 20.4072C17.4167 20.4571 17.3134 20.5291 17.227 20.619L15.418 22.476C15.3307 22.5649 15.2619 22.6701 15.2154 22.7857C15.169 22.9013 15.1459 23.0248 15.1474 23.1494C15.1488 23.2739 15.1749 23.3969 15.2241 23.5113C15.2733 23.6257 15.3446 23.7293 15.434 23.816C15.6141 23.9911 15.8563 24.0877 16.1075 24.0845C16.3587 24.0813 16.5983 23.9787 16.774 23.799L18.582 21.939C18.7144 21.8054 18.8039 21.6353 18.8391 21.4505C18.8742 21.2656 18.8534 21.0745 18.7793 20.9016C18.7052 20.7287 18.5812 20.5818 18.4231 20.4798C18.265 20.3778 18.0801 20.3253 17.892 20.329V20.328H17.893ZM31.893 20.328C31.7683 20.3304 31.6452 20.3573 31.531 20.4072C31.4167 20.4571 31.3134 20.5291 31.227 20.619L29.418 22.476C29.3307 22.5649 29.2619 22.6701 29.2154 22.7857C29.169 22.9013 29.1459 23.0248 29.1474 23.1494C29.1488 23.2739 29.1749 23.3969 29.2241 23.5113C29.2733 23.6257 29.3446 23.7293 29.434 23.816C29.6141 23.9911 29.8563 24.0877 30.1075 24.0845C30.3587 24.0813 30.5983 23.9787 30.774 23.799L32.582 21.939C32.7144 21.8054 32.8039 21.6353 32.8391 21.4505C32.8742 21.2656 32.8534 21.0745 32.7793 20.9016C32.7052 20.7287 32.5812 20.5818 32.4231 20.4798C32.265 20.3778 32.0801 20.3253 31.892 20.329V20.328H31.893ZM20.367 20.805C20.3383 20.8068 20.3114 20.8196 20.2919 20.8406C20.2724 20.8616 20.2616 20.8893 20.262 20.918C20.262 20.98 20.312 21.03 20.375 21.029C20.436 21.029 20.485 20.979 20.486 20.918C20.4861 20.9033 20.4833 20.8888 20.4778 20.8751C20.4723 20.8615 20.4642 20.8491 20.4539 20.8386C20.4436 20.8281 20.4313 20.8197 20.4177 20.814C20.4042 20.8082 20.3897 20.8052 20.375 20.805H20.367ZM27.617 20.805C27.5883 20.8068 27.5614 20.8196 27.5419 20.8406C27.5224 20.8616 27.5116 20.8893 27.512 20.918C27.512 20.98 27.562 21.03 27.625 21.029C27.686 21.029 27.735 20.979 27.736 20.918C27.7361 20.9033 27.7333 20.8888 27.7278 20.8751C27.7223 20.8615 27.7142 20.8491 27.7039 20.8386C27.6936 20.8281 27.6813 20.8197 27.6677 20.814C27.6542 20.8082 27.6397 20.8052 27.625 20.805H27.617ZM17.957 20.812H17.959C18.037 20.816 18.119 20.851 18.203 20.92C18.61 21.281 18.126 21.705 17.951 21.888L17.086 22.793C16.479 23.424 16.215 23.851 15.791 23.443C15.431 23.07 15.751 22.847 16.439 22.148L17.305 21.246C17.509 21.046 17.721 20.802 17.957 20.812ZM31.957 20.812H31.959C32.037 20.816 32.119 20.851 32.203 20.92C32.61 21.281 32.126 21.705 31.951 21.888L31.086 22.793C30.479 23.424 30.215 23.851 29.791 23.443C29.431 23.07 29.751 22.847 30.439 22.148L31.305 21.246C31.509 21.046 31.721 20.802 31.957 20.812ZM20.367 21.367C20.3383 21.3688 20.3114 21.3816 20.2919 21.4026C20.2724 21.4236 20.2616 21.4513 20.262 21.48C20.262 21.5099 20.2738 21.5385 20.2949 21.5596C20.316 21.5807 20.3446 21.5925 20.3745 21.5925C20.4043 21.5925 20.4329 21.5807 20.454 21.5596C20.4751 21.5385 20.487 21.5099 20.487 21.48C20.4871 21.4653 20.4843 21.4506 20.4787 21.4369C20.4732 21.4232 20.4649 21.4107 20.4545 21.4002C20.4441 21.3897 20.4317 21.3814 20.418 21.3757C20.4044 21.37 20.3897 21.367 20.375 21.367H20.367ZM27.617 21.367C27.5883 21.3688 27.5614 21.3816 27.5419 21.4026C27.5224 21.4236 27.5116 21.4513 27.512 21.48C27.512 21.5099 27.5238 21.5385 27.5449 21.5596C27.566 21.5807 27.5946 21.5925 27.6245 21.5925C27.6543 21.5925 27.6829 21.5807 27.704 21.5596C27.7251 21.5385 27.737 21.5099 27.737 21.48C27.7371 21.4653 27.7343 21.4506 27.7287 21.4369C27.7232 21.4232 27.7149 21.4107 27.7045 21.4002C27.6941 21.3897 27.6817 21.3814 27.668 21.3757C27.6544 21.37 27.6397 21.367 27.625 21.367H27.617ZM20.367 21.93C20.3522 21.931 20.3379 21.9348 20.3246 21.9413C20.3114 21.9477 20.2996 21.9568 20.2898 21.9678C20.2801 21.9789 20.2726 21.9917 20.2678 22.0057C20.263 22.0196 20.261 22.0343 20.262 22.049C20.2629 22.0638 20.2667 22.0781 20.2732 22.0914C20.2796 22.1046 20.2887 22.1164 20.2997 22.1262C20.3108 22.1359 20.3236 22.1434 20.3376 22.1482C20.3515 22.153 20.3662 22.155 20.381 22.154C20.4107 22.1522 20.4384 22.1386 20.4581 22.1163C20.4778 22.094 20.4878 22.0648 20.486 22.035C20.4841 22.0053 20.4705 21.9776 20.4482 21.9579C20.4259 21.9382 20.3967 21.9282 20.367 21.93ZM27.617 21.93C27.5873 21.9319 27.5595 21.9455 27.5398 21.9678C27.5201 21.9901 27.5101 22.0193 27.512 22.049C27.5138 22.0788 27.5274 22.1065 27.5497 22.1262C27.572 22.1459 27.6013 22.1559 27.631 22.154C27.6457 22.1531 27.66 22.1493 27.6733 22.1428C27.6865 22.1364 27.6984 22.1273 27.7081 22.1163C27.7179 22.1052 27.7253 22.0924 27.7301 22.0784C27.7349 22.0645 27.7369 22.0498 27.736 22.035C27.735 22.0203 27.7312 22.006 27.7248 21.9927C27.7183 21.9795 27.7093 21.9677 27.6982 21.9579C27.6872 21.9482 27.6743 21.9407 27.6603 21.9359C27.6464 21.9311 27.6317 21.9291 27.617 21.93ZM24.893 22.226C24.7683 22.2281 24.6453 22.2547 24.531 22.3045C24.4167 22.3543 24.3133 22.4262 24.227 22.516L22.418 24.373C22.3307 24.4619 22.2619 24.5671 22.2154 24.6827C22.169 24.7983 22.1459 24.9218 22.1474 25.0464C22.1488 25.1709 22.1749 25.2939 22.2241 25.4083C22.2733 25.5227 22.3446 25.6263 22.434 25.713C22.6141 25.8883 22.8564 25.9848 23.1077 25.9814C23.3589 25.978 23.5986 25.875 23.774 25.695L25.582 23.835C25.714 23.7014 25.8033 23.5313 25.8382 23.3467C25.8732 23.162 25.8523 22.9711 25.7782 22.7984C25.7042 22.6257 25.5803 22.479 25.4224 22.377C25.2645 22.2751 25.0799 22.2225 24.892 22.226H24.893ZM20.367 22.492C20.3522 22.493 20.3379 22.4968 20.3246 22.5033C20.3114 22.5097 20.2996 22.5188 20.2898 22.5298C20.2801 22.5409 20.2726 22.5537 20.2678 22.5677C20.263 22.5816 20.261 22.5963 20.262 22.611C20.2629 22.6258 20.2667 22.6401 20.2732 22.6534C20.2796 22.6666 20.2887 22.6784 20.2997 22.6882C20.3108 22.6979 20.3236 22.7054 20.3376 22.7102C20.3515 22.715 20.3662 22.717 20.381 22.716C20.4107 22.7142 20.4384 22.7006 20.4581 22.6783C20.4778 22.656 20.4878 22.6268 20.486 22.597C20.4841 22.5673 20.4705 22.5396 20.4482 22.5199C20.4259 22.5002 20.3967 22.4902 20.367 22.492ZM27.617 22.492C27.6022 22.493 27.5879 22.4968 27.5746 22.5033C27.5614 22.5097 27.5496 22.5188 27.5398 22.5298C27.5301 22.5409 27.5226 22.5537 27.5178 22.5677C27.513 22.5816 27.511 22.5963 27.512 22.611C27.5129 22.6258 27.5167 22.6401 27.5232 22.6534C27.5296 22.6666 27.5387 22.6784 27.5497 22.6882C27.5608 22.6979 27.5736 22.7054 27.5876 22.7102C27.6015 22.715 27.6162 22.717 27.631 22.716C27.6607 22.7142 27.6884 22.7006 27.7081 22.6783C27.7278 22.656 27.7378 22.6268 27.736 22.597C27.7341 22.5673 27.7205 22.5396 27.6982 22.5199C27.6759 22.5002 27.6467 22.4902 27.617 22.492ZM24.957 22.709H24.959C25.037 22.713 25.119 22.747 25.203 22.816C25.61 23.178 25.126 23.602 24.951 23.785L24.086 24.689C23.479 25.321 23.215 25.747 22.791 25.339C22.431 24.966 22.751 24.744 23.439 24.045L24.305 23.142C24.509 22.942 24.721 22.699 24.957 22.709ZM20.367 23.055C20.3376 23.0561 20.3099 23.0686 20.2897 23.0899C20.2695 23.1112 20.2584 23.1396 20.259 23.169C20.2595 23.1983 20.2715 23.2263 20.2925 23.2469C20.3134 23.2674 20.3416 23.279 20.371 23.279C20.4003 23.279 20.4285 23.2674 20.4494 23.2469C20.4704 23.2263 20.4824 23.1983 20.4829 23.169C20.4835 23.1396 20.4724 23.1112 20.4522 23.0899C20.4321 23.0686 20.4043 23.0561 20.375 23.055H20.367ZM27.617 23.055C27.5876 23.0561 27.5599 23.0686 27.5397 23.0899C27.5195 23.1112 27.5084 23.1396 27.509 23.169C27.5095 23.1983 27.5215 23.2263 27.5425 23.2469C27.5634 23.2674 27.5916 23.279 27.621 23.279C27.6503 23.279 27.6785 23.2674 27.6994 23.2469C27.7204 23.2263 27.7324 23.1983 27.7329 23.169C27.7335 23.1396 27.7224 23.1112 27.7022 23.0899C27.682 23.0686 27.6543 23.0561 27.625 23.055H27.617ZM20.355 23.617C20.3287 23.6214 20.3049 23.6349 20.2879 23.6553C20.2708 23.6757 20.2616 23.7015 20.262 23.728C20.2618 23.7502 20.2681 23.7719 20.2803 23.7904C20.2924 23.809 20.3098 23.8235 20.3302 23.8321C20.3506 23.8408 20.3731 23.8432 20.3948 23.8391C20.4166 23.835 20.4366 23.8245 20.4524 23.8089C20.4682 23.7934 20.4791 23.7736 20.4836 23.7519C20.4881 23.7302 20.4861 23.7077 20.4778 23.6871C20.4695 23.6666 20.4553 23.649 20.437 23.6365C20.4187 23.624 20.3971 23.6172 20.375 23.617H20.355ZM27.605 23.617C27.5787 23.6214 27.5549 23.6349 27.5379 23.6553C27.5208 23.6757 27.5116 23.7015 27.512 23.728C27.5118 23.7502 27.5181 23.7719 27.5303 23.7904C27.5424 23.809 27.5598 23.8235 27.5802 23.8321C27.6006 23.8408 27.6231 23.8432 27.6448 23.8391C27.6666 23.835 27.6866 23.8245 27.7024 23.8089C27.7182 23.7934 27.7291 23.7736 27.7336 23.7519C27.7381 23.7302 27.7361 23.7077 27.7278 23.6871C27.7195 23.6666 27.7053 23.649 27.687 23.6365C27.6687 23.624 27.6471 23.6172 27.625 23.617H27.605ZM17.893 24.123C17.7684 24.1249 17.6454 24.1514 17.5311 24.201C17.4168 24.2506 17.3134 24.3223 17.227 24.412L15.418 26.269C15.3307 26.3579 15.2619 26.4631 15.2154 26.5787C15.169 26.6943 15.1459 26.8178 15.1474 26.9424C15.1488 27.0669 15.1749 27.1899 15.2241 27.3043C15.2733 27.4187 15.3446 27.5223 15.434 27.609C15.6141 27.7841 15.8563 27.8807 16.1075 27.8775C16.3587 27.8743 16.5983 27.7717 16.774 27.592L18.582 25.732C18.7144 25.5984 18.8039 25.4283 18.8391 25.2435C18.8742 25.0586 18.8534 24.8675 18.7793 24.6946C18.7052 24.5217 18.5812 24.3748 18.4231 24.2728C18.265 24.1708 18.0801 24.1183 17.892 24.122L17.893 24.123ZM31.893 24.123C31.7684 24.1249 31.6454 24.1514 31.5311 24.201C31.4168 24.2506 31.3134 24.3223 31.227 24.412L29.418 26.269C29.3307 26.3579 29.2619 26.4631 29.2154 26.5787C29.169 26.6943 29.1459 26.8178 29.1474 26.9424C29.1488 27.0669 29.1749 27.1899 29.2241 27.3043C29.2733 27.4187 29.3446 27.5223 29.434 27.609C29.6141 27.7841 29.8563 27.8807 30.1075 27.8775C30.3587 27.8743 30.5983 27.7717 30.774 27.592L32.582 25.732C32.7144 25.5984 32.8039 25.4283 32.8391 25.2435C32.8742 25.0586 32.8534 24.8675 32.7793 24.6946C32.7052 24.5217 32.5812 24.3748 32.4231 24.2728C32.265 24.1708 32.0801 24.1183 31.892 24.122L31.893 24.123ZM20.355 24.179C20.3285 24.1832 20.3044 24.1968 20.2873 24.2175C20.2702 24.2381 20.2611 24.2643 20.262 24.291C20.262 24.353 20.312 24.403 20.375 24.402C20.436 24.402 20.485 24.352 20.486 24.291C20.486 24.23 20.436 24.181 20.375 24.18H20.355V24.179ZM27.605 24.179C27.5785 24.1832 27.5544 24.1968 27.5373 24.2175C27.5202 24.2381 27.5111 24.2643 27.512 24.291C27.512 24.353 27.562 24.403 27.625 24.402C27.686 24.402 27.735 24.352 27.736 24.291C27.736 24.23 27.686 24.181 27.625 24.18H27.605V24.179ZM17.957 24.605H17.959C18.037 24.609 18.119 24.644 18.203 24.713C18.61 25.074 18.126 25.498 17.951 25.681L17.086 26.586C16.479 27.217 16.215 27.644 15.791 27.236C15.431 26.863 15.751 26.64 16.439 25.941L17.305 25.039C17.509 24.839 17.721 24.595 17.957 24.605ZM31.957 24.605H31.959C32.037 24.609 32.119 24.644 32.203 24.713C32.61 25.074 32.126 25.498 31.951 25.681L31.086 26.586C30.479 27.217 30.215 27.644 29.791 27.236C29.431 26.863 29.751 26.64 30.439 25.941L31.305 25.039C31.509 24.839 31.721 24.595 31.957 24.605ZM20.367 24.74C20.3376 24.7411 20.3099 24.7536 20.2897 24.7749C20.2695 24.7962 20.2584 24.8246 20.259 24.854C20.2595 24.8833 20.2715 24.9113 20.2925 24.9319C20.3134 24.9524 20.3416 24.964 20.371 24.964C20.4003 24.964 20.4285 24.9524 20.4494 24.9319C20.4704 24.9113 20.4824 24.8833 20.4829 24.854C20.4835 24.8246 20.4724 24.7962 20.4522 24.7749C20.4321 24.7536 20.4043 24.7411 20.375 24.74C20.3723 24.7399 20.3696 24.7399 20.367 24.74ZM27.617 24.74C27.5876 24.7411 27.5599 24.7536 27.5397 24.7749C27.5195 24.7962 27.5084 24.8246 27.509 24.854C27.5095 24.8833 27.5215 24.9113 27.5425 24.9319C27.5634 24.9524 27.5916 24.964 27.621 24.964C27.6503 24.964 27.6785 24.9524 27.6994 24.9319C27.7204 24.9113 27.7324 24.8833 27.7329 24.854C27.7335 24.8246 27.7224 24.7962 27.7022 24.7749C27.682 24.7536 27.6543 24.7411 27.625 24.74C27.6223 24.7399 27.6196 24.7399 27.617 24.74ZM20.367 25.303C20.3383 25.3048 20.3114 25.3176 20.2919 25.3386C20.2724 25.3596 20.2616 25.3873 20.262 25.416C20.262 25.478 20.312 25.528 20.375 25.527C20.4048 25.526 20.433 25.5131 20.4533 25.4913C20.4737 25.4694 20.4845 25.4404 20.4835 25.4105C20.4824 25.3807 20.4695 25.3525 20.4477 25.3322C20.4258 25.3118 20.3968 25.301 20.367 25.302V25.303ZM27.617 25.303C27.5883 25.3048 27.5614 25.3176 27.5419 25.3386C27.5224 25.3596 27.5116 25.3873 27.512 25.416C27.512 25.478 27.562 25.528 27.625 25.527C27.6548 25.526 27.683 25.5131 27.7033 25.4913C27.7237 25.4694 27.7345 25.4404 27.7335 25.4105C27.7324 25.3807 27.7195 25.3525 27.6977 25.3322C27.6758 25.3118 27.6468 25.301 27.617 25.302V25.303ZM20.367 25.865C20.3383 25.8668 20.3114 25.8796 20.2919 25.9006C20.2724 25.9216 20.2616 25.9493 20.262 25.978C20.262 26.04 20.312 26.09 20.375 26.09C20.436 26.09 20.485 26.04 20.486 25.978C20.4861 25.9626 20.4831 25.9474 20.4771 25.9332C20.4711 25.919 20.4623 25.9062 20.4511 25.8956C20.4399 25.885 20.4267 25.8768 20.4122 25.8716C20.3977 25.8663 20.3823 25.8641 20.367 25.865ZM27.617 25.865C27.5883 25.8668 27.5614 25.8796 27.5419 25.9006C27.5224 25.9216 27.5116 25.9493 27.512 25.978C27.512 26.04 27.562 26.09 27.625 26.09C27.686 26.09 27.735 26.04 27.736 25.978C27.7361 25.9626 27.7331 25.9474 27.7271 25.9332C27.7211 25.919 27.7123 25.9062 27.7011 25.8956C27.6899 25.885 27.6767 25.8768 27.6622 25.8716C27.6477 25.8663 27.6323 25.8641 27.617 25.865ZM24.893 26.226C24.7683 26.2281 24.6453 26.2547 24.531 26.3045C24.4167 26.3543 24.3133 26.4262 24.227 26.516L22.418 28.373C22.3307 28.4619 22.2619 28.5671 22.2154 28.6827C22.169 28.7983 22.1459 28.9218 22.1474 29.0464C22.1488 29.1709 22.1749 29.2939 22.2241 29.4083C22.2733 29.5227 22.3446 29.6263 22.434 29.713C22.6141 29.8883 22.8564 29.9848 23.1077 29.9814C23.3589 29.978 23.5986 29.875 23.774 29.695L25.582 27.835C25.714 27.7014 25.8033 27.5313 25.8382 27.3467C25.8732 27.162 25.8523 26.9711 25.7782 26.7984C25.7042 26.6257 25.5803 26.479 25.4224 26.377C25.2645 26.2751 25.0799 26.2225 24.892 26.226H24.893ZM20.367 26.428C20.3373 26.4291 20.3092 26.4419 20.2889 26.4637C20.2687 26.4854 20.2579 26.5143 20.259 26.544C20.26 26.5738 20.2728 26.6018 20.2946 26.6221C20.3163 26.6423 20.3453 26.6531 20.375 26.652C20.3897 26.6515 20.4041 26.6481 20.4175 26.642C20.4309 26.6359 20.443 26.6272 20.453 26.6164C20.463 26.6056 20.4708 26.593 20.476 26.5792C20.4811 26.5654 20.4835 26.5508 20.483 26.536C20.4824 26.5213 20.479 26.5069 20.4729 26.4935C20.4668 26.4801 20.4581 26.4681 20.4473 26.458C20.4366 26.448 20.4239 26.4402 20.4101 26.435C20.3963 26.4299 20.3817 26.4275 20.367 26.428ZM27.617 26.428C27.5873 26.4291 27.5592 26.4419 27.5389 26.4637C27.5187 26.4854 27.5079 26.5143 27.509 26.544C27.51 26.5738 27.5228 26.6018 27.5446 26.6221C27.5663 26.6423 27.5953 26.6531 27.625 26.652C27.6397 26.6515 27.6541 26.6481 27.6675 26.642C27.6809 26.6359 27.693 26.6272 27.703 26.6164C27.713 26.6056 27.7208 26.593 27.726 26.5792C27.7311 26.5654 27.7335 26.5508 27.733 26.536C27.7324 26.5213 27.729 26.5069 27.7229 26.4935C27.7168 26.4801 27.7081 26.4681 27.6973 26.458C27.6866 26.448 27.6739 26.4402 27.6601 26.435C27.6463 26.4299 27.6317 26.4275 27.617 26.428ZM24.955 26.708H24.957C25.0484 26.7167 25.1347 26.7546 25.203 26.816C25.61 27.178 25.126 27.602 24.951 27.785L24.084 28.689C23.477 29.321 23.213 29.747 22.789 29.339C22.429 28.966 22.751 28.744 23.439 28.045L24.303 27.142C24.508 26.942 24.72 26.699 24.955 26.709V26.708ZM20.367 26.99C20.3522 26.991 20.3379 26.9948 20.3246 27.0013C20.3114 27.0077 20.2996 27.0168 20.2898 27.0278C20.2801 27.0389 20.2726 27.0517 20.2678 27.0657C20.263 27.0796 20.261 27.0943 20.262 27.109C20.2629 27.1238 20.2667 27.1381 20.2732 27.1514C20.2796 27.1646 20.2887 27.1764 20.2997 27.1862C20.3108 27.1959 20.3236 27.2034 20.3376 27.2082C20.3515 27.213 20.3662 27.215 20.381 27.214C20.4107 27.2122 20.4384 27.1986 20.4581 27.1763C20.4778 27.154 20.4878 27.1248 20.486 27.095C20.4841 27.0653 20.4705 27.0376 20.4482 27.0179C20.4259 26.9982 20.3967 26.9882 20.367 26.99ZM27.617 26.99C27.6022 26.991 27.5879 26.9948 27.5746 27.0013C27.5614 27.0077 27.5496 27.0168 27.5398 27.0278C27.5301 27.0389 27.5226 27.0517 27.5178 27.0657C27.513 27.0796 27.511 27.0943 27.512 27.109C27.5129 27.1238 27.5167 27.1381 27.5232 27.1514C27.5296 27.1646 27.5387 27.1764 27.5497 27.1862C27.5608 27.1959 27.5736 27.2034 27.5876 27.2082C27.6015 27.213 27.6162 27.215 27.631 27.214C27.6607 27.2122 27.6884 27.1986 27.7081 27.1763C27.7278 27.154 27.7378 27.1248 27.736 27.095C27.7341 27.0653 27.7205 27.0376 27.6982 27.0179C27.6759 26.9982 27.6467 26.9882 27.617 26.99ZM20.367 27.553C20.3522 27.554 20.3379 27.5578 20.3246 27.5643C20.3114 27.5707 20.2996 27.5798 20.2898 27.5908C20.2801 27.6019 20.2726 27.6147 20.2678 27.6287C20.263 27.6426 20.261 27.6573 20.262 27.672C20.2629 27.6868 20.2667 27.7011 20.2732 27.7144C20.2796 27.7276 20.2887 27.7394 20.2997 27.7492C20.3108 27.7589 20.3236 27.7664 20.3376 27.7712C20.3515 27.776 20.3662 27.778 20.381 27.777C20.4107 27.7752 20.4384 27.7616 20.4581 27.7393C20.4778 27.717 20.4878 27.6878 20.486 27.658C20.4841 27.6283 20.4705 27.6006 20.4482 27.5809C20.4259 27.5612 20.3967 27.5512 20.367 27.553ZM27.617 27.553C27.6022 27.554 27.5879 27.5578 27.5746 27.5643C27.5614 27.5707 27.5496 27.5798 27.5398 27.5908C27.5301 27.6019 27.5226 27.6147 27.5178 27.6287C27.513 27.6426 27.511 27.6573 27.512 27.672C27.5129 27.6868 27.5167 27.7011 27.5232 27.7144C27.5296 27.7276 27.5387 27.7394 27.5497 27.7492C27.5608 27.7589 27.5736 27.7664 27.5876 27.7712C27.6015 27.776 27.6162 27.778 27.631 27.777C27.6607 27.7752 27.6884 27.7616 27.7081 27.7393C27.7278 27.717 27.7378 27.6878 27.736 27.658C27.7341 27.6283 27.7205 27.6006 27.6982 27.5809C27.6759 27.5612 27.6467 27.5512 27.617 27.553ZM17.893 27.916C17.7684 27.9179 17.6454 27.9444 17.5311 27.994C17.4168 28.0436 17.3134 28.1153 17.227 28.205L15.418 30.062C15.3307 30.1509 15.2619 30.2561 15.2154 30.3717C15.169 30.4873 15.1459 30.6108 15.1474 30.7354C15.1488 30.8599 15.1749 30.9829 15.2241 31.0973C15.2733 31.2117 15.3446 31.3153 15.434 31.402C15.6141 31.5771 15.8563 31.6737 16.1075 31.6705C16.3587 31.6673 16.5983 31.5647 16.774 31.385L18.582 29.525C18.7144 29.3914 18.8039 29.2213 18.8391 29.0365C18.8742 28.8516 18.8534 28.6605 18.7793 28.4876C18.7052 28.3147 18.5812 28.1678 18.4231 28.0658C18.265 27.9638 18.0801 27.9113 17.892 27.915L17.893 27.916ZM31.893 27.916C31.7681 27.9179 31.6448 27.9444 31.5302 27.994C31.4156 28.0436 31.3118 28.1153 31.225 28.205L29.416 30.062C29.3288 30.151 29.2602 30.2564 29.2139 30.372C29.1676 30.4876 29.1447 30.6113 29.1463 30.7358C29.148 30.8603 29.1743 30.9833 29.2236 31.0976C29.273 31.212 29.3445 31.3154 29.434 31.402C29.6141 31.5771 29.8563 31.6737 30.1075 31.6705C30.3587 31.6673 30.5983 31.5647 30.774 31.385L32.582 29.525C32.7144 29.3914 32.8039 29.2213 32.8391 29.0365C32.8742 28.8516 32.8534 28.6605 32.7793 28.4876C32.7052 28.3147 32.5812 28.1678 32.4231 28.0658C32.265 27.9638 32.0801 27.9113 31.892 27.915L31.893 27.916ZM20.355 28.116C20.3289 28.1203 20.3052 28.1338 20.2882 28.1539C20.2711 28.1741 20.2618 28.1996 20.262 28.226C20.262 28.2559 20.2738 28.2845 20.2949 28.3056C20.316 28.3267 20.3446 28.3385 20.3745 28.3385C20.4043 28.3385 20.4329 28.3267 20.454 28.3056C20.4751 28.2845 20.487 28.2559 20.487 28.226C20.486 28.166 20.437 28.116 20.375 28.116C20.367 28.114 20.365 28.114 20.357 28.116H20.355ZM27.605 28.116C27.5789 28.1203 27.5552 28.1338 27.5382 28.1539C27.5211 28.1741 27.5118 28.1996 27.512 28.226C27.512 28.2559 27.5238 28.2845 27.5449 28.3056C27.566 28.3267 27.5946 28.3385 27.6245 28.3385C27.6543 28.3385 27.6829 28.3267 27.704 28.3056C27.7251 28.2845 27.737 28.2559 27.737 28.226C27.736 28.166 27.687 28.116 27.625 28.116C27.617 28.114 27.615 28.114 27.607 28.116H27.605ZM17.955 28.398H17.959C18.037 28.402 18.119 28.437 18.203 28.506C18.61 28.867 18.126 29.291 17.951 29.474L17.084 30.379C16.477 31.01 16.213 31.437 15.789 31.029C15.429 30.656 15.751 30.433 16.439 29.734L17.303 28.832C17.508 28.632 17.72 28.388 17.955 28.398ZM31.955 28.398H31.957C32.0484 28.4067 32.1347 28.4446 32.203 28.506C32.61 28.867 32.126 29.291 31.951 29.474L31.084 30.379C30.477 31.01 30.213 31.437 29.789 31.029C29.429 30.656 29.749 30.433 30.437 29.734L31.303 28.832C31.508 28.632 31.72 28.388 31.955 28.398ZM20.377 28.676C20.3622 28.6759 20.3477 28.6787 20.334 28.6842C20.3204 28.6897 20.308 28.6978 20.2975 28.7081C20.287 28.7185 20.2786 28.7307 20.2729 28.7443C20.2671 28.7578 20.2641 28.7723 20.264 28.787C20.2638 28.8018 20.2666 28.8163 20.2721 28.83C20.2776 28.8436 20.2857 28.856 20.2961 28.8665C20.3064 28.877 20.3186 28.8854 20.3322 28.8911C20.3457 28.8969 20.3602 28.8999 20.375 28.9C20.4047 28.9003 20.4333 28.8888 20.4544 28.868C20.4756 28.8471 20.4877 28.8188 20.488 28.789C20.4882 28.7593 20.4767 28.7308 20.4559 28.7096C20.435 28.6884 20.4067 28.6763 20.377 28.676ZM27.627 28.676C27.6122 28.6759 27.5977 28.6787 27.584 28.6842C27.5704 28.6897 27.558 28.6978 27.5475 28.7081C27.537 28.7185 27.5286 28.7307 27.5229 28.7443C27.5171 28.7578 27.5141 28.7723 27.514 28.787C27.5138 28.8018 27.5166 28.8163 27.5221 28.83C27.5276 28.8436 27.5357 28.856 27.5461 28.8665C27.5564 28.877 27.5686 28.8854 27.5822 28.8911C27.5957 28.8969 27.6102 28.8999 27.625 28.9C27.6547 28.9003 27.6833 28.8888 27.7044 28.868C27.7256 28.8471 27.7377 28.8188 27.738 28.789C27.7382 28.7593 27.7267 28.7308 27.7059 28.7096C27.685 28.6884 27.6567 28.6763 27.627 28.676ZM20.367 29.238C20.3383 29.2398 20.3114 29.2526 20.2919 29.2736C20.2724 29.2946 20.2616 29.3223 20.262 29.351C20.262 29.3809 20.2738 29.4095 20.2949 29.4306C20.316 29.4517 20.3446 29.4635 20.3745 29.4635C20.4043 29.4635 20.4329 29.4517 20.454 29.4306C20.4751 29.4095 20.487 29.3809 20.487 29.351C20.4871 29.3356 20.4841 29.3202 20.478 29.3059C20.472 29.2917 20.463 29.2788 20.4517 29.2682C20.4405 29.2576 20.4271 29.2494 20.4125 29.2442C20.3979 29.239 20.3824 29.2369 20.367 29.238ZM27.617 29.238C27.5883 29.2398 27.5614 29.2526 27.5419 29.2736C27.5224 29.2946 27.5116 29.3223 27.512 29.351C27.512 29.3809 27.5238 29.4095 27.5449 29.4306C27.566 29.4517 27.5946 29.4635 27.6245 29.4635C27.6543 29.4635 27.6829 29.4517 27.704 29.4306C27.7251 29.4095 27.737 29.3809 27.737 29.351C27.7371 29.3356 27.7341 29.3202 27.728 29.3059C27.722 29.2917 27.713 29.2788 27.7017 29.2682C27.6905 29.2576 27.6771 29.2494 27.6625 29.2442C27.6479 29.239 27.6324 29.2369 27.617 29.238ZM20.367 29.801C20.3376 29.8021 20.3099 29.8146 20.2897 29.8359C20.2695 29.8572 20.2584 29.8856 20.259 29.915C20.2595 29.9443 20.2715 29.9723 20.2925 29.9929C20.3134 30.0134 20.3416 30.025 20.371 30.025C20.4003 30.025 20.4285 30.0134 20.4494 29.9929C20.4704 29.9723 20.4824 29.9443 20.4829 29.915C20.4835 29.8856 20.4724 29.8572 20.4522 29.8359C20.4321 29.8146 20.4043 29.8021 20.375 29.801C20.3723 29.8009 20.3696 29.8009 20.367 29.801ZM27.617 29.801C27.5876 29.8021 27.5599 29.8146 27.5397 29.8359C27.5195 29.8572 27.5084 29.8856 27.509 29.915C27.5095 29.9443 27.5215 29.9723 27.5425 29.9929C27.5634 30.0134 27.5916 30.025 27.621 30.025C27.6503 30.025 27.6785 30.0134 27.6994 29.9929C27.7204 29.9723 27.7324 29.9443 27.7329 29.915C27.7335 29.8856 27.7224 29.8572 27.7022 29.8359C27.682 29.8146 27.6543 29.8021 27.625 29.801C27.6223 29.8009 27.6196 29.8009 27.617 29.801ZM24.893 30.226C24.7683 30.2281 24.6453 30.2547 24.531 30.3045C24.4167 30.3543 24.3133 30.4262 24.227 30.516L22.416 32.373C22.2522 32.5551 22.1652 32.7935 22.1733 33.0383C22.1813 33.283 22.2838 33.5152 22.4592 33.6861C22.6347 33.857 22.8694 33.9534 23.1143 33.955C23.3592 33.9567 23.5952 33.8635 23.773 33.695L25.582 31.835C25.714 31.7014 25.8033 31.5313 25.8382 31.3467C25.8732 31.162 25.8523 30.9711 25.7782 30.7984C25.7042 30.6257 25.5803 30.479 25.4224 30.377C25.2645 30.2751 25.0799 30.2225 24.892 30.226H24.893ZM20.367 30.363C20.3383 30.3648 20.3114 30.3776 20.2919 30.3986C20.2724 30.4196 20.2616 30.4473 20.262 30.476C20.2622 30.4984 20.2692 30.5203 20.2819 30.5387C20.2947 30.5571 20.3127 30.5712 20.3336 30.5793C20.3545 30.5874 20.3773 30.589 20.3991 30.584C20.4209 30.5789 20.4407 30.5675 20.456 30.5511C20.4712 30.5347 20.4812 30.5141 20.4846 30.4919C20.4881 30.4698 20.4848 30.4471 20.4752 30.4269C20.4656 30.4067 20.4502 30.3897 20.4309 30.3784C20.4116 30.367 20.3893 30.3617 20.367 30.363ZM27.617 30.363C27.5883 30.3648 27.5614 30.3776 27.5419 30.3986C27.5224 30.4196 27.5116 30.4473 27.512 30.476C27.5122 30.4984 27.5192 30.5203 27.5319 30.5387C27.5447 30.5571 27.5627 30.5712 27.5836 30.5793C27.6045 30.5874 27.6273 30.589 27.6491 30.584C27.6709 30.5789 27.6907 30.5675 27.706 30.5511C27.7212 30.5347 27.7312 30.5141 27.7346 30.4919C27.7381 30.4698 27.7348 30.4471 27.7252 30.4269C27.7156 30.4067 27.7002 30.3897 27.6809 30.3784C27.6616 30.367 27.6393 30.3617 27.617 30.363ZM24.955 30.709H24.957C25.0483 30.7174 25.1345 30.7549 25.203 30.816C25.61 31.178 25.124 31.602 24.949 31.785L24.084 32.689C23.477 33.321 23.213 33.748 22.789 33.339C22.429 32.966 22.749 32.744 23.437 32.045L24.303 31.142C24.508 30.942 24.72 30.699 24.955 30.709ZM20.367 30.924C20.3385 30.9263 20.3119 30.9392 20.2924 30.9601C20.273 30.981 20.2621 31.0085 20.262 31.037C20.262 31.0668 20.2738 31.0952 20.2948 31.1162C20.3158 31.1372 20.3443 31.149 20.374 31.149C20.4037 31.149 20.4321 31.1372 20.4532 31.1162C20.4742 31.0952 20.486 31.0668 20.486 31.037C20.4858 31.0217 20.4826 31.0066 20.4765 30.9925C20.4704 30.9785 20.4616 30.9658 20.4505 30.9553C20.4394 30.9447 20.4262 30.9365 20.4119 30.9312C20.3975 30.9258 20.3823 30.9234 20.367 30.924ZM27.617 30.924C27.5885 30.9263 27.5619 30.9392 27.5424 30.9601C27.523 30.981 27.5121 31.0085 27.512 31.037C27.512 31.0668 27.5238 31.0952 27.5448 31.1162C27.5658 31.1372 27.5943 31.149 27.624 31.149C27.6537 31.149 27.6821 31.1372 27.7032 31.1162C27.7242 31.0952 27.736 31.0668 27.736 31.037C27.7358 31.0217 27.7326 31.0066 27.7265 30.9925C27.7204 30.9785 27.7116 30.9658 27.7005 30.9553C27.6894 30.9447 27.6762 30.9365 27.6619 30.9312C27.6475 30.9258 27.6323 30.9234 27.617 30.924ZM20.367 31.486C20.3522 31.487 20.3379 31.4908 20.3246 31.4973C20.3114 31.5037 20.2996 31.5128 20.2898 31.5238C20.2801 31.5349 20.2726 31.5477 20.2678 31.5617C20.263 31.5756 20.261 31.5903 20.262 31.605C20.2629 31.6198 20.2667 31.6341 20.2732 31.6474C20.2796 31.6606 20.2887 31.6724 20.2997 31.6822C20.3108 31.6919 20.3236 31.6994 20.3376 31.7042C20.3515 31.709 20.3662 31.711 20.381 31.71C20.4107 31.7082 20.4384 31.6946 20.4581 31.6723C20.4778 31.65 20.4878 31.6208 20.486 31.591C20.4841 31.5613 20.4705 31.5336 20.4482 31.5139C20.4259 31.4942 20.3967 31.4842 20.367 31.486ZM27.617 31.486C27.6022 31.487 27.5879 31.4908 27.5746 31.4973C27.5614 31.5037 27.5496 31.5128 27.5398 31.5238C27.5301 31.5349 27.5226 31.5477 27.5178 31.5617C27.513 31.5756 27.511 31.5903 27.512 31.605C27.5129 31.6198 27.5167 31.6341 27.5232 31.6474C27.5296 31.6606 27.5387 31.6724 27.5497 31.6822C27.5608 31.6919 27.5736 31.6994 27.5876 31.7042C27.6015 31.709 27.6162 31.711 27.631 31.71C27.6607 31.7082 27.6884 31.6946 27.7081 31.6723C27.7278 31.65 27.7378 31.6208 27.736 31.591C27.7341 31.5613 27.7205 31.5336 27.6982 31.5139C27.6759 31.4942 27.6467 31.4842 27.617 31.486ZM17.891 31.709C17.7664 31.711 17.6434 31.7375 17.5291 31.7871C17.4148 31.8367 17.3115 31.9084 17.225 31.998L15.416 33.855C15.3288 33.944 15.2602 34.0494 15.2139 34.165C15.1676 34.2806 15.1447 34.4043 15.1463 34.5288C15.148 34.6533 15.1743 34.7763 15.2236 34.8906C15.273 35.005 15.3445 35.1084 15.434 35.195C15.6141 35.3701 15.8563 35.4667 16.1075 35.4635C16.3587 35.4603 16.5983 35.3577 16.774 35.178L18.582 33.318C18.6691 33.2291 18.7377 33.1237 18.784 33.0081C18.8303 32.8925 18.8532 32.7688 18.8516 32.6443C18.8499 32.5198 18.8236 32.3968 18.7743 32.2825C18.7249 32.1681 18.6534 32.0647 18.564 31.978C18.4751 31.8909 18.3699 31.8223 18.2544 31.7759C18.1389 31.7296 18.0154 31.7065 17.891 31.708V31.709ZM31.891 31.709C31.7664 31.711 31.6434 31.7375 31.5291 31.7871C31.4148 31.8367 31.3115 31.9084 31.225 31.998L29.416 33.855C29.3288 33.944 29.2602 34.0494 29.2139 34.165C29.1676 34.2806 29.1447 34.4043 29.1463 34.5288C29.148 34.6533 29.1743 34.7763 29.2236 34.8906C29.273 35.005 29.3445 35.1084 29.434 35.195C29.6141 35.3701 29.8563 35.4667 30.1075 35.4635C30.3587 35.4603 30.5983 35.3577 30.774 35.178L32.582 33.318C32.6691 33.2291 32.7379 33.1238 32.7842 33.0082C32.8306 32.8927 32.8536 32.769 32.8521 32.6445C32.8505 32.52 32.8243 32.397 32.775 32.2826C32.7258 32.1682 32.6544 32.0647 32.565 31.978C32.476 31.8908 32.3706 31.8221 32.2549 31.7757C32.1392 31.7294 32.0156 31.7064 31.891 31.708V31.709ZM20.356 32.049C20.3296 32.0531 20.3055 32.0666 20.2882 32.087C20.271 32.1074 20.2616 32.1333 20.262 32.16C20.2616 32.1825 20.2678 32.2045 20.28 32.2234C20.2922 32.2422 20.3097 32.257 20.3303 32.2659C20.3509 32.2747 20.3737 32.2772 20.3958 32.2731C20.4178 32.269 20.4381 32.2584 20.4541 32.2427C20.4701 32.2269 20.4811 32.2068 20.4856 32.1848C20.4901 32.1629 20.488 32.14 20.4795 32.1193C20.471 32.0985 20.4566 32.0807 20.4379 32.0682C20.4193 32.0557 20.3974 32.0491 20.375 32.049H20.355H20.356ZM27.606 32.049C27.5796 32.0531 27.5555 32.0666 27.5382 32.087C27.521 32.1074 27.5116 32.1333 27.512 32.16C27.5116 32.1825 27.5178 32.2045 27.53 32.2234C27.5422 32.2422 27.5597 32.257 27.5803 32.2659C27.6009 32.2747 27.6237 32.2772 27.6458 32.2731C27.6678 32.269 27.6881 32.2584 27.7041 32.2427C27.7201 32.2269 27.7311 32.2068 27.7356 32.1848C27.7401 32.1629 27.738 32.14 27.7295 32.1193C27.721 32.0985 27.7066 32.0807 27.6879 32.0682C27.6693 32.0557 27.6474 32.0491 27.625 32.049H27.605H27.606ZM17.956 32.191H17.957C18.0484 32.1997 18.1347 32.2376 18.203 32.299C18.61 32.66 18.124 33.084 17.949 33.267L17.084 34.172C16.477 34.803 16.213 35.23 15.789 34.822C15.429 34.449 15.749 34.226 16.438 33.527L17.303 32.625C17.508 32.425 17.72 32.181 17.955 32.191H17.956ZM31.956 32.191H31.957C32.0484 32.1997 32.1347 32.2376 32.203 32.299C32.61 32.66 32.124 33.084 31.949 33.267L31.084 34.172C30.477 34.803 30.213 35.23 29.789 34.822C29.429 34.449 29.749 34.226 30.437 33.527L31.303 32.625C31.508 32.425 31.72 32.181 31.955 32.191H31.956ZM20.356 32.611C20.3349 32.6145 20.3152 32.6239 20.2993 32.6381C20.2834 32.6524 20.2718 32.6709 20.2661 32.6914C20.2603 32.712 20.2606 32.7338 20.2668 32.7542C20.273 32.7747 20.285 32.7929 20.3012 32.8068C20.3175 32.8206 20.3374 32.8296 20.3585 32.8325C20.3797 32.8355 20.4012 32.8323 20.4206 32.8234C20.4401 32.8145 20.4565 32.8002 20.4681 32.7823C20.4797 32.7643 20.4859 32.7434 20.486 32.722C20.4854 32.6929 20.4735 32.665 20.4528 32.6445C20.4321 32.6239 20.4041 32.6123 20.375 32.612H20.355L20.356 32.611ZM27.606 32.611C27.5849 32.6145 27.5652 32.6239 27.5493 32.6381C27.5334 32.6524 27.5218 32.6709 27.5161 32.6914C27.5103 32.712 27.5106 32.7338 27.5168 32.7542C27.523 32.7747 27.535 32.7929 27.5512 32.8068C27.5675 32.8206 27.5874 32.8296 27.6085 32.8325C27.6297 32.8355 27.6512 32.8323 27.6706 32.8234C27.6901 32.8145 27.7065 32.8002 27.7181 32.7823C27.7297 32.7643 27.7359 32.7434 27.736 32.722C27.7354 32.6929 27.7235 32.665 27.7028 32.6445C27.6821 32.6239 27.6541 32.6123 27.625 32.612H27.605L27.606 32.611ZM20.377 33.171C20.3619 33.1712 20.347 33.1743 20.3332 33.1802C20.3193 33.1861 20.3068 33.1947 20.2963 33.2055C20.2858 33.2163 20.2775 33.229 20.272 33.243C20.2664 33.257 20.2637 33.272 20.264 33.287C20.264 33.349 20.314 33.397 20.377 33.397C20.3915 33.3972 20.4059 33.3944 20.4194 33.389C20.4328 33.3835 20.4451 33.3754 20.4554 33.3652C20.4657 33.355 20.4739 33.3428 20.4795 33.3294C20.4851 33.316 20.488 33.3016 20.488 33.287C20.4882 33.2572 20.4767 33.2283 20.456 33.2068C20.4352 33.1853 20.4068 33.1728 20.377 33.172V33.171ZM27.627 33.171C27.6119 33.1712 27.597 33.1743 27.5832 33.1802C27.5693 33.1861 27.5568 33.1947 27.5463 33.2055C27.5358 33.2163 27.5275 33.229 27.522 33.243C27.5164 33.257 27.5137 33.272 27.514 33.287C27.514 33.349 27.564 33.397 27.627 33.397C27.6415 33.3972 27.6559 33.3944 27.6694 33.389C27.6828 33.3835 27.6951 33.3754 27.7054 33.3652C27.7157 33.355 27.7239 33.3428 27.7295 33.3294C27.7351 33.316 27.738 33.3016 27.738 33.287C27.7382 33.2572 27.7267 33.2283 27.706 33.2068C27.6852 33.1853 27.6568 33.1728 27.627 33.172V33.171ZM20.367 33.734C20.3383 33.7358 20.3114 33.7486 20.2919 33.7696C20.2724 33.7906 20.2616 33.8183 20.262 33.847C20.262 33.91 20.312 33.96 20.375 33.959C20.436 33.959 20.485 33.909 20.486 33.847C20.4861 33.8323 20.4833 33.8177 20.4778 33.8041C20.4723 33.7905 20.4642 33.778 20.4539 33.7676C20.4436 33.7571 20.4313 33.7487 20.4177 33.743C20.4042 33.7372 20.3897 33.7342 20.375 33.734H20.367ZM27.617 33.734C27.5883 33.7358 27.5614 33.7486 27.5419 33.7696C27.5224 33.7906 27.5116 33.8183 27.512 33.847C27.512 33.91 27.562 33.96 27.625 33.959C27.686 33.959 27.735 33.909 27.736 33.847C27.7361 33.8323 27.7333 33.8177 27.7278 33.8041C27.7223 33.7905 27.7142 33.778 27.7039 33.7676C27.6936 33.7571 27.6813 33.7487 27.6677 33.743C27.6542 33.7372 27.6397 33.7342 27.625 33.734H27.617ZM24.891 34.226C24.7663 34.2281 24.6433 34.2547 24.529 34.3045C24.4147 34.3543 24.3114 34.4262 24.225 34.516L22.416 36.373C22.2522 36.5551 22.1652 36.7935 22.1733 37.0383C22.1813 37.283 22.2838 37.5152 22.4592 37.6861C22.6347 37.857 22.8694 37.9534 23.1143 37.955C23.3592 37.9567 23.5952 37.8635 23.773 37.695L25.582 35.835C25.6691 35.746 25.7377 35.6407 25.784 35.5251C25.8303 35.4095 25.8532 35.2858 25.8516 35.1613C25.8499 35.0368 25.8236 34.9138 25.7743 34.7995C25.7249 34.6851 25.6534 34.5817 25.564 34.495C25.475 34.4082 25.3697 34.3397 25.2542 34.2935C25.1388 34.2474 25.0153 34.2244 24.891 34.226ZM20.367 34.296C20.3376 34.2971 20.3099 34.3096 20.2897 34.3309C20.2695 34.3522 20.2584 34.3806 20.259 34.41C20.2595 34.4393 20.2715 34.4673 20.2925 34.4879C20.3134 34.5084 20.3416 34.52 20.371 34.52C20.4003 34.52 20.4285 34.5084 20.4494 34.4879C20.4704 34.4673 20.4824 34.4393 20.4829 34.41C20.4835 34.3806 20.4724 34.3522 20.4522 34.3309C20.4321 34.3096 20.4043 34.2971 20.375 34.296C20.3723 34.2959 20.3696 34.2959 20.367 34.296ZM27.617 34.296C27.5876 34.2971 27.5599 34.3096 27.5397 34.3309C27.5195 34.3522 27.5084 34.3806 27.509 34.41C27.5095 34.4393 27.5215 34.4673 27.5425 34.4879C27.5634 34.5084 27.5916 34.52 27.621 34.52C27.6503 34.52 27.6785 34.5084 27.6994 34.4879C27.7204 34.4673 27.7324 34.4393 27.7329 34.41C27.7335 34.3806 27.7224 34.3522 27.7022 34.3309C27.682 34.3096 27.6543 34.2971 27.625 34.296C27.6223 34.2959 27.6196 34.2959 27.617 34.296ZM24.955 34.709H24.957C25.0483 34.7174 25.1345 34.7549 25.203 34.816C25.61 35.178 25.124 35.602 24.949 35.785L24.086 36.689C23.479 37.321 23.215 37.748 22.791 37.339C22.431 36.966 22.751 36.744 23.439 36.045L24.305 35.142C24.509 34.942 24.72 34.699 24.955 34.709ZM20.367 34.859C20.3371 34.8601 20.3089 34.873 20.2886 34.8948C20.2682 34.9167 20.2574 34.9457 20.2585 34.9755C20.2595 35.0054 20.2724 35.0336 20.2942 35.0539C20.3161 35.0743 20.3451 35.0851 20.375 35.084C20.3897 35.0835 20.4043 35.0801 20.4177 35.074C20.4312 35.0678 20.4433 35.0591 20.4533 35.0483C20.4634 35.0375 20.4713 35.0248 20.4764 35.0109C20.4816 34.9971 20.484 34.9823 20.4835 34.9675C20.4829 34.9528 20.4795 34.9382 20.4734 34.9248C20.4672 34.9114 20.4585 34.8992 20.4477 34.8892C20.4369 34.8791 20.4242 34.8712 20.4103 34.8661C20.3965 34.8609 20.3817 34.8585 20.367 34.859ZM27.617 34.859C27.5871 34.8601 27.5589 34.873 27.5386 34.8948C27.5182 34.9167 27.5074 34.9457 27.5085 34.9755C27.5095 35.0054 27.5224 35.0336 27.5442 35.0539C27.5661 35.0743 27.5951 35.0851 27.625 35.084C27.6397 35.0835 27.6543 35.0801 27.6677 35.074C27.6812 35.0678 27.6933 35.0591 27.7033 35.0483C27.7134 35.0375 27.7213 35.0248 27.7264 35.0109C27.7316 34.9971 27.734 34.9823 27.7335 34.9675C27.7329 34.9528 27.7295 34.9382 27.7234 34.9248C27.7172 34.9114 27.7085 34.8992 27.6977 34.8892C27.6869 34.8791 27.6742 34.8712 27.6603 34.8661C27.6465 34.8609 27.6317 34.8585 27.617 34.859ZM20.367 35.422C20.3522 35.423 20.3379 35.4268 20.3246 35.4333C20.3114 35.4397 20.2996 35.4488 20.2898 35.4598C20.2801 35.4709 20.2726 35.4837 20.2678 35.4977C20.263 35.5116 20.261 35.5263 20.262 35.541C20.2629 35.5558 20.2667 35.5701 20.2732 35.5834C20.2796 35.5966 20.2887 35.6084 20.2997 35.6182C20.3108 35.6279 20.3236 35.6354 20.3376 35.6402C20.3515 35.645 20.3662 35.647 20.381 35.646C20.4107 35.6442 20.4384 35.6306 20.4581 35.6083C20.4778 35.586 20.4878 35.5568 20.486 35.527C20.4841 35.4973 20.4705 35.4696 20.4482 35.4499C20.4259 35.4302 20.3967 35.4202 20.367 35.422ZM27.617 35.422C27.6022 35.423 27.5879 35.4268 27.5746 35.4333C27.5614 35.4397 27.5496 35.4488 27.5398 35.4598C27.5301 35.4709 27.5226 35.4837 27.5178 35.4977C27.513 35.5116 27.511 35.5263 27.512 35.541C27.5129 35.5558 27.5167 35.5701 27.5232 35.5834C27.5296 35.5966 27.5387 35.6084 27.5497 35.6182C27.5608 35.6279 27.5736 35.6354 27.5876 35.6402C27.6015 35.645 27.6162 35.647 27.631 35.646C27.6607 35.6442 27.6884 35.6306 27.7081 35.6083C27.7278 35.586 27.7378 35.5568 27.736 35.527C27.7341 35.4973 27.7205 35.4696 27.6982 35.4499C27.6759 35.4302 27.6467 35.4202 27.617 35.422ZM31.891 35.5V35.502C31.7664 35.5039 31.6434 35.5304 31.5291 35.58C31.4148 35.6296 31.3114 35.7013 31.225 35.791L29.416 37.648C29.2581 37.8311 29.1761 38.0675 29.1865 38.309C29.197 38.5505 29.2993 38.7789 29.4724 38.9475C29.6456 39.1162 29.8765 39.2125 30.1182 39.2166C30.3599 39.2208 30.5941 39.1326 30.773 38.97L32.584 37.11C32.6711 37.021 32.7397 36.9157 32.786 36.8001C32.8323 36.6845 32.8552 36.5608 32.8536 36.4363C32.8519 36.3118 32.8256 36.1888 32.7763 36.0745C32.7269 35.9601 32.6554 35.8567 32.566 35.77C32.4771 35.6829 32.3719 35.6143 32.2564 35.5679C32.1409 35.5216 32.0174 35.4985 31.893 35.5H31.891ZM17.891 35.502C17.7664 35.5039 17.6434 35.5304 17.5291 35.58C17.4148 35.6296 17.3114 35.7013 17.225 35.791L15.416 37.648C15.2581 37.8311 15.176 38.0675 15.1865 38.309C15.197 38.5505 15.2993 38.7789 15.4724 38.9475C15.6456 39.1162 15.8765 39.2125 16.1182 39.2166C16.3599 39.2208 16.5941 39.1326 16.773 38.97L18.582 37.111C18.6691 37.022 18.7377 36.9167 18.784 36.8011C18.8303 36.6855 18.8532 36.5618 18.8516 36.4373C18.8499 36.3128 18.8236 36.1898 18.7743 36.0755C18.7249 35.9611 18.6534 35.8577 18.564 35.771C18.475 35.684 18.3698 35.6153 18.2544 35.569C18.1389 35.5227 18.0154 35.4996 17.891 35.501V35.502ZM17.955 35.984H17.957C18.0484 35.9927 18.1347 36.0306 18.203 36.092C18.61 36.453 18.124 36.877 17.949 37.06L17.084 37.965C16.477 38.596 16.213 39.023 15.789 38.615C15.429 38.242 15.749 38.019 16.438 37.32L17.303 36.418C17.508 36.218 17.72 35.974 17.955 35.984ZM20.367 35.984C20.3522 35.985 20.3377 35.9888 20.3244 35.9953C20.3111 36.0018 20.2993 36.0109 20.2895 36.0219C20.2797 36.033 20.2721 36.046 20.2673 36.06C20.2625 36.074 20.2605 36.0888 20.2615 36.1035C20.2624 36.1183 20.2662 36.1328 20.2727 36.1461C20.2792 36.1594 20.2883 36.1712 20.2994 36.181C20.3105 36.1908 20.3234 36.1984 20.3374 36.2032C20.3514 36.208 20.3662 36.21 20.381 36.209C20.4108 36.2072 20.4387 36.1936 20.4585 36.1711C20.4782 36.1487 20.4883 36.1194 20.4865 36.0895C20.4846 36.0597 20.471 36.0318 20.4486 36.012C20.4261 35.9923 20.3968 35.9822 20.367 35.984ZM27.617 35.984C27.6022 35.985 27.5877 35.9888 27.5744 35.9953C27.5611 36.0018 27.5493 36.0109 27.5395 36.0219C27.5297 36.033 27.5221 36.046 27.5173 36.06C27.5125 36.074 27.5105 36.0888 27.5115 36.1035C27.5124 36.1183 27.5162 36.1328 27.5227 36.1461C27.5292 36.1594 27.5383 36.1712 27.5494 36.181C27.5605 36.1908 27.5734 36.1984 27.5874 36.2032C27.6014 36.208 27.6162 36.21 27.631 36.209C27.6608 36.2072 27.6887 36.1936 27.7085 36.1711C27.7282 36.1487 27.7383 36.1194 27.7365 36.0895C27.7346 36.0597 27.721 36.0318 27.6986 36.012C27.6761 35.9923 27.6468 35.9822 27.617 35.984ZM31.955 35.984H31.957C32.0484 35.9927 32.1347 36.0306 32.203 36.092C32.61 36.453 32.124 36.877 31.949 37.06L31.084 37.965C30.477 38.596 30.213 39.023 29.789 38.615C29.429 38.242 29.749 38.019 30.437 37.32L31.303 36.418C31.508 36.218 31.72 35.974 31.955 35.984ZM20.367 36.547C20.3522 36.548 20.3379 36.5518 20.3246 36.5583C20.3114 36.5647 20.2996 36.5737 20.2898 36.5848C20.2801 36.5959 20.2726 36.6087 20.2678 36.6227C20.263 36.6366 20.261 36.6513 20.262 36.666C20.2629 36.6808 20.2667 36.6951 20.2732 36.7084C20.2796 36.7216 20.2887 36.7334 20.2997 36.7432C20.3108 36.7529 20.3236 36.7604 20.3376 36.7652C20.3515 36.77 20.3662 36.772 20.381 36.771C20.4107 36.7692 20.4384 36.7556 20.4581 36.7333C20.4778 36.711 20.4878 36.6818 20.486 36.652C20.4841 36.6223 20.4705 36.5946 20.4482 36.5749C20.4259 36.5552 20.3967 36.5452 20.367 36.547ZM27.617 36.547C27.6022 36.548 27.5879 36.5518 27.5746 36.5583C27.5614 36.5647 27.5496 36.5737 27.5398 36.5848C27.5301 36.5959 27.5226 36.6087 27.5178 36.6227C27.513 36.6366 27.511 36.6513 27.512 36.666C27.5129 36.6808 27.5167 36.6951 27.5232 36.7084C27.5296 36.7216 27.5387 36.7334 27.5497 36.7432C27.5608 36.7529 27.5736 36.7604 27.5876 36.7652C27.6015 36.77 27.6162 36.772 27.631 36.771C27.6607 36.7692 27.6884 36.7556 27.7081 36.7333C27.7278 36.711 27.7378 36.6818 27.736 36.652C27.7341 36.6223 27.7205 36.5946 27.6982 36.5749C27.6759 36.5552 27.6467 36.5452 27.617 36.547ZM20.355 37.109C20.3286 37.1132 20.3047 37.1267 20.2876 37.1471C20.2705 37.1675 20.2614 37.1934 20.262 37.22C20.262 37.2499 20.2738 37.2785 20.2949 37.2996C20.316 37.3207 20.3446 37.3325 20.3745 37.3325C20.4043 37.3325 20.4329 37.3207 20.454 37.2996C20.4751 37.2785 20.487 37.2499 20.487 37.22C20.486 37.16 20.437 37.11 20.375 37.11H20.355V37.109ZM27.605 37.109C27.5786 37.1132 27.5547 37.1267 27.5376 37.1471C27.5205 37.1675 27.5114 37.1934 27.512 37.22C27.512 37.2499 27.5238 37.2785 27.5449 37.2996C27.566 37.3207 27.5946 37.3325 27.6245 37.3325C27.6543 37.3325 27.6829 37.3207 27.704 37.2996C27.7251 37.2785 27.737 37.2499 27.737 37.22C27.736 37.16 27.687 37.11 27.625 37.11H27.605V37.109ZM20.367 37.669C20.3376 37.6701 20.3099 37.6826 20.2897 37.7039C20.2695 37.7252 20.2584 37.7536 20.259 37.783C20.2595 37.8123 20.2715 37.8403 20.2925 37.8609C20.3134 37.8814 20.3416 37.893 20.371 37.893C20.4003 37.893 20.4285 37.8814 20.4494 37.8609C20.4704 37.8403 20.4824 37.8123 20.4829 37.783C20.4835 37.7536 20.4724 37.7252 20.4522 37.7039C20.4321 37.6826 20.4043 37.6701 20.375 37.669C20.3723 37.6689 20.3696 37.6689 20.367 37.669ZM27.617 37.669C27.5876 37.6701 27.5599 37.6826 27.5397 37.7039C27.5195 37.7252 27.5084 37.7536 27.509 37.783C27.5095 37.8123 27.5215 37.8403 27.5425 37.8609C27.5634 37.8814 27.5916 37.893 27.621 37.893C27.6503 37.893 27.6785 37.8814 27.6994 37.8609C27.7204 37.8403 27.7324 37.8123 27.7329 37.783C27.7335 37.7536 27.7224 37.7252 27.7022 37.7039C27.682 37.6826 27.6543 37.6701 27.625 37.669C27.6223 37.6689 27.6196 37.6689 27.617 37.669ZM24.891 38.226C24.7663 38.2281 24.6433 38.2547 24.529 38.3045C24.4147 38.3543 24.3114 38.4262 24.225 38.516L22.416 40.373C22.2522 40.5551 22.1652 40.7935 22.1733 41.0383C22.1813 41.283 22.2838 41.5152 22.4592 41.6861C22.6347 41.857 22.8694 41.9534 23.1143 41.955C23.3592 41.9567 23.5952 41.8635 23.773 41.695L25.582 39.835C25.6691 39.746 25.7377 39.6407 25.784 39.5251C25.8303 39.4095 25.8532 39.2858 25.8516 39.1613C25.8499 39.0368 25.8236 38.9138 25.7743 38.7995C25.7249 38.6851 25.6534 38.5817 25.564 38.495C25.475 38.4082 25.3697 38.3397 25.2542 38.2935C25.1388 38.2474 25.0153 38.2244 24.891 38.226ZM20.367 38.232C20.3381 38.2338 20.3111 38.2467 20.2916 38.268C20.272 38.2892 20.2614 38.3172 20.262 38.346C20.262 38.408 20.312 38.458 20.375 38.456C20.4047 38.456 20.4331 38.4442 20.4542 38.4232C20.4752 38.4022 20.487 38.3738 20.487 38.344C20.487 38.3143 20.4752 38.2859 20.4542 38.2649C20.4331 38.2438 20.4047 38.232 20.375 38.232C20.3723 38.2318 20.3696 38.2318 20.367 38.232ZM27.617 38.232C27.5881 38.2338 27.5611 38.2467 27.5416 38.268C27.522 38.2892 27.5114 38.3172 27.512 38.346C27.512 38.408 27.562 38.458 27.625 38.456C27.6547 38.456 27.6831 38.4442 27.7042 38.4232C27.7252 38.4022 27.737 38.3738 27.737 38.344C27.737 38.3143 27.7252 38.2859 27.7042 38.2649C27.6831 38.2438 27.6547 38.232 27.625 38.232C27.6223 38.2318 27.6196 38.2318 27.617 38.232ZM24.955 38.709H24.957C25.035 38.713 25.117 38.747 25.201 38.816C25.608 39.178 25.124 39.602 24.949 39.785L24.084 40.689C23.477 41.321 23.213 41.748 22.789 41.339C22.429 40.966 22.749 40.744 23.437 40.045L24.303 39.142C24.508 38.942 24.72 38.699 24.955 38.709ZM20.367 38.795C20.3376 38.7961 20.3099 38.8086 20.2897 38.8299C20.2695 38.8512 20.2584 38.8796 20.259 38.909C20.2595 38.9383 20.2715 38.9663 20.2925 38.9869C20.3134 39.0074 20.3416 39.019 20.371 39.019C20.4003 39.019 20.4285 39.0074 20.4494 38.9869C20.4704 38.9663 20.4824 38.9383 20.4829 38.909C20.4835 38.8796 20.4724 38.8512 20.4522 38.8299C20.4321 38.8086 20.4043 38.7961 20.375 38.795C20.3723 38.7948 20.3696 38.7948 20.367 38.795ZM27.617 38.795C27.5876 38.7961 27.5599 38.8086 27.5397 38.8299C27.5195 38.8512 27.5084 38.8796 27.509 38.909C27.5095 38.9383 27.5215 38.9663 27.5425 38.9869C27.5634 39.0074 27.5916 39.019 27.621 39.019C27.6503 39.019 27.6785 39.0074 27.6994 38.9869C27.7204 38.9663 27.7324 38.9383 27.7329 38.909C27.7335 38.8796 27.7224 38.8512 27.7022 38.8299C27.682 38.8086 27.6543 38.7961 27.625 38.795C27.6223 38.7948 27.6196 38.7948 27.617 38.795ZM17.891 39.295C17.7664 39.297 17.6434 39.3235 17.5291 39.3731C17.4148 39.4227 17.3115 39.4944 17.225 39.584L15.416 41.441C15.3288 41.53 15.2602 41.6354 15.2139 41.751C15.1676 41.8666 15.1447 41.9903 15.1463 42.1148C15.148 42.2393 15.1743 42.3623 15.2236 42.4766C15.273 42.591 15.3445 42.6944 15.434 42.781C15.6141 42.9561 15.8563 43.0527 16.1075 43.0495C16.3587 43.0463 16.5983 42.9437 16.774 42.764L18.582 40.904C18.6691 40.815 18.7377 40.7097 18.784 40.5941C18.8303 40.4785 18.8532 40.3548 18.8516 40.2303C18.8499 40.1058 18.8236 39.9828 18.7743 39.8685C18.7249 39.7541 18.6534 39.6507 18.564 39.564C18.475 39.477 18.3698 39.4083 18.2544 39.362C18.1389 39.3157 18.0154 39.2926 17.891 39.294V39.295ZM31.891 39.295C31.7664 39.297 31.6434 39.3235 31.5291 39.3731C31.4148 39.4227 31.3115 39.4944 31.225 39.584L29.416 41.441C29.3288 41.53 29.2602 41.6354 29.2139 41.751C29.1676 41.8666 29.1447 41.9903 29.1463 42.1148C29.148 42.2393 29.1743 42.3623 29.2236 42.4766C29.273 42.591 29.3445 42.6944 29.434 42.781C29.6141 42.9561 29.8563 43.0527 30.1075 43.0495C30.3587 43.0463 30.5983 42.9437 30.774 42.764L32.582 40.904C32.6691 40.8151 32.7379 40.7098 32.7842 40.5942C32.8306 40.4786 32.8536 40.355 32.8521 40.2305C32.8505 40.106 32.8243 39.983 32.775 39.8686C32.7258 39.7542 32.6544 39.6507 32.565 39.564C32.4759 39.4769 32.3706 39.4081 32.2549 39.3618C32.1392 39.3155 32.0155 39.2924 31.891 39.294V39.295ZM20.367 39.357C20.3449 39.3584 20.3237 39.3662 20.306 39.3796C20.2883 39.3929 20.2749 39.4111 20.2675 39.4319C20.2601 39.4528 20.259 39.4753 20.2642 39.4968C20.2695 39.5183 20.281 39.5378 20.2972 39.5528C20.3135 39.5678 20.3338 39.5777 20.3556 39.5813C20.3774 39.5849 20.3999 39.582 20.4201 39.573C20.4403 39.564 20.4574 39.5492 20.4693 39.5306C20.4812 39.5119 20.4873 39.4902 20.487 39.468C20.4867 39.4528 20.4834 39.4378 20.4771 39.4239C20.4709 39.41 20.4619 39.3975 20.4507 39.3872C20.4394 39.3769 20.4262 39.369 20.4118 39.364C20.3974 39.359 20.3822 39.357 20.367 39.358V39.357ZM27.617 39.357C27.5949 39.3584 27.5737 39.3662 27.556 39.3796C27.5383 39.3929 27.5249 39.4111 27.5175 39.4319C27.5101 39.4528 27.509 39.4753 27.5142 39.4968C27.5195 39.5183 27.531 39.5378 27.5472 39.5528C27.5635 39.5678 27.5838 39.5777 27.6056 39.5813C27.6274 39.5849 27.6499 39.582 27.6701 39.573C27.6903 39.564 27.7074 39.5492 27.7193 39.5306C27.7312 39.5119 27.7373 39.4902 27.737 39.468C27.7367 39.4528 27.7334 39.4378 27.7271 39.4239C27.7209 39.41 27.7119 39.3975 27.7007 39.3872C27.6894 39.3769 27.6762 39.369 27.6618 39.364C27.6474 39.359 27.6322 39.357 27.617 39.358V39.357ZM17.957 39.777H17.959C18.037 39.781 18.119 39.816 18.203 39.885C18.61 40.246 18.126 40.67 17.951 40.853L17.086 41.758C16.479 42.389 16.215 42.816 15.791 42.408C15.431 42.035 15.751 41.812 16.439 41.113L17.305 40.211C17.509 40.011 17.721 39.767 17.957 39.777ZM31.957 39.777H31.959C32.037 39.781 32.119 39.816 32.203 39.885C32.61 40.246 32.126 40.67 31.951 40.853L31.086 41.758C30.479 42.389 30.215 42.816 29.791 42.408C29.431 42.035 29.751 41.812 30.439 41.113L31.305 40.211C31.509 40.011 31.721 39.767 31.957 39.777ZM20.367 39.92C20.3522 39.921 20.3379 39.9248 20.3246 39.9313C20.3114 39.9377 20.2996 39.9467 20.2898 39.9578C20.2801 39.9688 20.2726 39.9817 20.2678 39.9957C20.263 40.0096 20.261 40.0243 20.262 40.039C20.2629 40.0538 20.2667 40.0681 20.2732 40.0814C20.2796 40.0946 20.2887 40.1064 20.2997 40.1162C20.3108 40.1259 20.3236 40.1334 20.3376 40.1382C20.3515 40.143 20.3662 40.145 20.381 40.144C20.4107 40.1422 20.4384 40.1286 20.4581 40.1063C20.4778 40.084 20.4878 40.0548 20.486 40.025C20.4841 39.9953 20.4705 39.9676 20.4482 39.9479C20.4259 39.9282 20.3967 39.9182 20.367 39.92ZM27.617 39.92C27.6022 39.921 27.5879 39.9248 27.5746 39.9313C27.5614 39.9377 27.5496 39.9467 27.5398 39.9578C27.5301 39.9688 27.5226 39.9817 27.5178 39.9957C27.513 40.0096 27.511 40.0243 27.512 40.039C27.5129 40.0538 27.5167 40.0681 27.5232 40.0814C27.5296 40.0946 27.5387 40.1064 27.5497 40.1162C27.5608 40.1259 27.5736 40.1334 27.5876 40.1382C27.6015 40.143 27.6162 40.145 27.631 40.144C27.6607 40.1422 27.6884 40.1286 27.7081 40.1063C27.7278 40.084 27.7378 40.0548 27.736 40.025C27.7341 39.9953 27.7205 39.9676 27.6982 39.9479C27.6759 39.9282 27.6467 39.9182 27.617 39.92ZM20.367 40.482C20.3371 40.4839 20.3092 40.4975 20.2895 40.5199C20.2697 40.5424 20.2596 40.5717 20.2615 40.6015C20.2633 40.6314 20.2769 40.6593 20.2994 40.679C20.3218 40.6988 20.3511 40.7089 20.381 40.707C20.4108 40.7052 20.4387 40.6916 20.4585 40.6691C20.4782 40.6467 20.4883 40.6174 20.4865 40.5875C20.4846 40.5577 20.471 40.5298 20.4486 40.51C20.4261 40.4903 20.3968 40.4802 20.367 40.482ZM27.617 40.482C27.5871 40.4839 27.5592 40.4975 27.5395 40.5199C27.5197 40.5424 27.5096 40.5717 27.5115 40.6015C27.5133 40.6314 27.5269 40.6593 27.5494 40.679C27.5718 40.6988 27.6011 40.7089 27.631 40.707C27.6608 40.7052 27.6887 40.6916 27.7085 40.6691C27.7282 40.6467 27.7383 40.6174 27.7365 40.5875C27.7346 40.5577 27.721 40.5298 27.6986 40.51C27.6761 40.4903 27.6468 40.4802 27.617 40.482ZM20.355 41.045C20.3286 41.0492 20.3047 41.0627 20.2876 41.0831C20.2705 41.1035 20.2614 41.1294 20.262 41.156C20.2598 41.172 20.2611 41.1882 20.2658 41.2037C20.2704 41.2191 20.2783 41.2333 20.2889 41.2455C20.2995 41.2576 20.3126 41.2673 20.3273 41.2739C20.3419 41.2806 20.3579 41.284 20.374 41.284C20.3901 41.284 20.406 41.2806 20.4207 41.2739C20.4353 41.2673 20.4484 41.2576 20.459 41.2455C20.4696 41.2333 20.4775 41.2191 20.4821 41.2037C20.4868 41.1882 20.4881 41.172 20.486 41.156C20.486 41.095 20.436 41.046 20.375 41.045H20.355ZM27.605 41.045C27.5786 41.0492 27.5547 41.0627 27.5376 41.0831C27.5205 41.1035 27.5114 41.1294 27.512 41.156C27.5098 41.172 27.5111 41.1882 27.5158 41.2037C27.5204 41.2191 27.5283 41.2333 27.5389 41.2455C27.5495 41.2576 27.5626 41.2673 27.5773 41.2739C27.5919 41.2806 27.6079 41.284 27.624 41.284C27.6401 41.284 27.656 41.2806 27.6707 41.2739C27.6853 41.2673 27.6984 41.2576 27.709 41.2455C27.7196 41.2333 27.7275 41.2191 27.7321 41.2037C27.7368 41.1882 27.7381 41.172 27.736 41.156C27.736 41.095 27.686 41.046 27.625 41.045H27.605ZM20.355 41.607C20.3285 41.6112 20.3044 41.6248 20.2873 41.6455C20.2702 41.6661 20.2611 41.6923 20.262 41.719C20.262 41.781 20.312 41.831 20.375 41.829C20.436 41.829 20.485 41.78 20.486 41.719C20.486 41.657 20.436 41.608 20.375 41.607H20.355ZM27.605 41.607C27.5785 41.6112 27.5544 41.6248 27.5373 41.6455C27.5202 41.6661 27.5111 41.6923 27.512 41.719C27.512 41.781 27.562 41.831 27.625 41.829C27.686 41.829 27.735 41.78 27.736 41.719C27.736 41.657 27.686 41.608 27.625 41.607H27.605ZM20.377 42.167C20.3621 42.1669 20.3474 42.1697 20.3336 42.1753C20.3199 42.1808 20.3073 42.189 20.2968 42.1994C20.2862 42.2098 20.2777 42.2222 20.2719 42.2359C20.2661 42.2495 20.2631 42.2642 20.263 42.279C20.2628 42.2939 20.2656 42.3086 20.2712 42.3224C20.2767 42.3361 20.2849 42.3487 20.2953 42.3592C20.3057 42.3698 20.3181 42.3783 20.3318 42.3841C20.3454 42.3899 20.3601 42.3929 20.375 42.393C20.4048 42.3933 20.4335 42.3817 20.4548 42.3608C20.4761 42.3399 20.4882 42.3114 20.4885 42.2815C20.4887 42.2517 20.4771 42.223 20.4562 42.2017C20.4353 42.1804 20.4068 42.1683 20.377 42.168V42.167ZM27.627 42.167C27.6121 42.1669 27.5974 42.1697 27.5836 42.1753C27.5699 42.1808 27.5573 42.189 27.5468 42.1994C27.5362 42.2098 27.5277 42.2222 27.5219 42.2359C27.5161 42.2495 27.5131 42.2642 27.513 42.279C27.5128 42.2939 27.5156 42.3086 27.5212 42.3224C27.5267 42.3361 27.5349 42.3487 27.5453 42.3592C27.5557 42.3698 27.5681 42.3783 27.5818 42.3841C27.5954 42.3899 27.6101 42.3929 27.625 42.393C27.6548 42.3933 27.6835 42.3817 27.7048 42.3608C27.7261 42.3399 27.7382 42.3114 27.7385 42.2815C27.7387 42.2517 27.7271 42.223 27.7062 42.2017C27.6853 42.1804 27.6568 42.1683 27.627 42.168V42.167ZM20.367 42.73C20.3376 42.7311 20.3099 42.7436 20.2897 42.7649C20.2695 42.7862 20.2584 42.8146 20.259 42.844C20.2595 42.8733 20.2715 42.9013 20.2925 42.9219C20.3134 42.9424 20.3416 42.954 20.371 42.954C20.4003 42.954 20.4285 42.9424 20.4494 42.9219C20.4704 42.9013 20.4824 42.8733 20.4829 42.844C20.4835 42.8146 20.4724 42.7862 20.4522 42.7649C20.4321 42.7436 20.4043 42.7311 20.375 42.73C20.3723 42.7299 20.3696 42.7299 20.367 42.73ZM27.617 42.73C27.5876 42.7311 27.5599 42.7436 27.5397 42.7649C27.5195 42.7862 27.5084 42.8146 27.509 42.844C27.5095 42.8733 27.5215 42.9013 27.5425 42.9219C27.5634 42.9424 27.5916 42.954 27.621 42.954C27.6503 42.954 27.6785 42.9424 27.6994 42.9219C27.7204 42.9013 27.7324 42.8733 27.7329 42.844C27.7335 42.8146 27.7224 42.7862 27.7022 42.7649C27.682 42.7436 27.6543 42.7311 27.625 42.73C27.6223 42.7299 27.6196 42.7299 27.617 42.73Z" fill="#333333"/>
</svg>
