<svg width="48" height="48" viewBox="0 0 48 48" fill="none" xmlns="http://www.w3.org/2000/svg">
<path fill-rule="evenodd" clip-rule="evenodd" d="M0 0.000244141V48.0002H48V0.000244141H0ZM28.89 4.07624C30.53 4.08124 32.177 4.09424 33.836 4.11924C34.705 4.11924 35.404 4.81824 35.404 5.68724V42.5492C35.404 43.4192 34.705 44.1192 33.836 44.1192H14.131C13.261 44.1192 12.564 43.4192 12.564 42.5492V5.68724C12.564 4.81724 13.261 4.11924 14.13 4.11924C19.106 4.11924 23.97 4.06224 28.89 4.07624ZM20.351 5.05824C20.3217 5.05929 20.2939 5.07182 20.2737 5.09313C20.2535 5.11443 20.2425 5.14282 20.243 5.17217C20.2435 5.20153 20.2556 5.2295 20.2765 5.25007C20.2975 5.27065 20.3256 5.28217 20.355 5.28217C20.3844 5.28217 20.4125 5.27065 20.4335 5.25007C20.4544 5.2295 20.4665 5.20153 20.467 5.17217C20.4675 5.14282 20.4565 5.11443 20.4363 5.09313C20.4161 5.07182 20.3883 5.05929 20.359 5.05824H20.351ZM27.601 5.05824C27.5717 5.05929 27.5439 5.07182 27.5237 5.09313C27.5035 5.11443 27.4925 5.14282 27.493 5.17217C27.4935 5.20153 27.5056 5.2295 27.5265 5.25007C27.5475 5.27065 27.5756 5.28217 27.605 5.28217C27.6344 5.28217 27.6625 5.27065 27.6835 5.25007C27.7044 5.2295 27.7165 5.20153 27.717 5.17217C27.7175 5.14282 27.7065 5.11443 27.6863 5.09313C27.6661 5.07182 27.6383 5.05929 27.609 5.05824H27.601ZM17.877 5.15024C17.7523 5.15226 17.6293 5.17892 17.515 5.2287C17.4007 5.27847 17.2974 5.35036 17.211 5.44024L15.402 7.29724C15.3152 7.38635 15.2468 7.49167 15.2007 7.60721C15.1546 7.72275 15.1317 7.84623 15.1333 7.97062C15.135 8.095 15.1611 8.21785 15.2102 8.33214C15.2593 8.44644 15.3304 8.54994 15.4195 8.63674C15.5086 8.72355 15.6139 8.79195 15.7295 8.83805C15.845 8.88415 15.9685 8.90704 16.0929 8.90541C16.2173 8.90379 16.3401 8.87768 16.4544 8.82858C16.5687 8.77948 16.6722 8.70835 16.759 8.61924L18.568 6.75924C18.6551 6.67025 18.7238 6.56491 18.7701 6.44928C18.8163 6.33366 18.8393 6.21003 18.8376 6.0855C18.8359 5.96097 18.8097 5.83801 18.7603 5.72367C18.7109 5.60932 18.6395 5.50587 18.55 5.41924C18.461 5.33233 18.3558 5.26382 18.2403 5.21766C18.1248 5.1715 18.0014 5.14859 17.877 5.15024ZM31.877 5.15024C31.7523 5.15226 31.6293 5.17892 31.515 5.2287C31.4007 5.27847 31.2974 5.35036 31.211 5.44024L29.402 7.29724C29.3152 7.38635 29.2468 7.49167 29.2007 7.60721C29.1546 7.72275 29.1317 7.84623 29.1333 7.97062C29.135 8.095 29.1611 8.21785 29.2102 8.33214C29.2593 8.44644 29.3304 8.54994 29.4195 8.63674C29.5086 8.72355 29.6139 8.79195 29.7295 8.83805C29.845 8.88415 29.9685 8.90704 30.0929 8.90541C30.2173 8.90379 30.3401 8.87768 30.4544 8.82858C30.5687 8.77948 30.6722 8.70835 30.759 8.61924L32.568 6.75924C32.6551 6.67025 32.7238 6.56491 32.7701 6.44928C32.8163 6.33366 32.8393 6.21003 32.8376 6.0855C32.8359 5.96097 32.8097 5.83801 32.7603 5.72367C32.7109 5.60932 32.6395 5.50587 32.55 5.41924C32.461 5.33233 32.3558 5.26382 32.2403 5.21766C32.1248 5.1715 32.0014 5.14859 31.877 5.15024ZM20.351 5.62124C20.3217 5.62229 20.2939 5.63482 20.2737 5.65613C20.2535 5.67743 20.2425 5.70582 20.243 5.73517C20.2435 5.76453 20.2556 5.7925 20.2765 5.81307C20.2975 5.83365 20.3256 5.84517 20.355 5.84517C20.3844 5.84517 20.4125 5.83365 20.4335 5.81307C20.4544 5.7925 20.4665 5.76453 20.467 5.73517C20.4675 5.70582 20.4565 5.67743 20.4363 5.65613C20.4161 5.63482 20.3883 5.62229 20.359 5.62124H20.351ZM27.601 5.62124C27.5717 5.62229 27.5439 5.63482 27.5237 5.65613C27.5035 5.67743 27.4925 5.70582 27.493 5.73517C27.4935 5.76453 27.5056 5.7925 27.5265 5.81307C27.5475 5.83365 27.5756 5.84517 27.605 5.84517C27.6344 5.84517 27.6625 5.83365 27.6835 5.81307C27.7044 5.7925 27.7165 5.76453 27.717 5.73517C27.7175 5.70582 27.7065 5.67743 27.6863 5.65613C27.6661 5.63482 27.6383 5.62229 27.609 5.62124H27.601ZM20.341 6.18324C20.3198 6.18649 20.3 6.19574 20.284 6.2099C20.2679 6.22405 20.2562 6.24251 20.2503 6.26309C20.2444 6.28368 20.2446 6.30552 20.2507 6.32604C20.2568 6.34655 20.2687 6.36488 20.2849 6.37884C20.3012 6.39281 20.3211 6.40183 20.3423 6.40484C20.3635 6.40784 20.3851 6.40471 20.4046 6.39581C20.424 6.3869 20.4406 6.3726 20.4522 6.3546C20.4637 6.3366 20.4699 6.31566 20.47 6.29424C20.47 6.23424 20.42 6.18424 20.359 6.18424H20.341V6.18324ZM27.591 6.18324C27.5698 6.18649 27.55 6.19574 27.534 6.2099C27.5179 6.22405 27.5062 6.24251 27.5003 6.26309C27.4944 6.28368 27.4946 6.30552 27.5007 6.32604C27.5068 6.34655 27.5187 6.36488 27.5349 6.37884C27.5512 6.39281 27.5711 6.40183 27.5923 6.40484C27.6135 6.40784 27.6351 6.40471 27.6546 6.39581C27.674 6.3869 27.6906 6.3726 27.7022 6.3546C27.7137 6.3366 27.7199 6.31566 27.72 6.29424C27.72 6.23424 27.67 6.18424 27.609 6.18424H27.591V6.18324ZM24.877 6.21924C24.7524 6.22113 24.6294 6.24764 24.5151 6.29724C24.4008 6.34683 24.2975 6.41855 24.211 6.50824L22.402 8.36424C22.2382 8.54632 22.1512 8.78471 22.1593 9.02948C22.1674 9.27424 22.2699 9.50639 22.4453 9.67728C22.6207 9.84818 22.8554 9.94455 23.1003 9.94622C23.3452 9.9479 23.5813 9.85473 23.759 9.68624L25.568 7.82724C25.6551 7.73825 25.7238 7.63291 25.7701 7.51728C25.8163 7.40166 25.8393 7.27803 25.8376 7.1535C25.8359 7.02897 25.8097 6.90601 25.7603 6.79167C25.7109 6.67732 25.6395 6.57387 25.55 6.48724C25.4611 6.40015 25.3559 6.33146 25.2404 6.28512C25.1249 6.23879 25.0014 6.21572 24.877 6.21724V6.21924ZM20.361 6.74424C20.3462 6.74411 20.3316 6.74689 20.3179 6.75243C20.3042 6.75796 20.2917 6.76613 20.2812 6.77649C20.2599 6.7974 20.2478 6.82591 20.2475 6.85574C20.2472 6.88558 20.2588 6.9143 20.2797 6.93559C20.3007 6.95687 20.3292 6.96898 20.359 6.96924C20.3888 6.96951 20.4176 6.95791 20.4388 6.937C20.4601 6.91609 20.4722 6.88758 20.4725 6.85774C20.4728 6.82791 20.4612 6.79919 20.4403 6.7779C20.4193 6.75662 20.3908 6.74451 20.361 6.74424ZM27.611 6.74424C27.5962 6.74411 27.5816 6.74689 27.5679 6.75243C27.5542 6.75796 27.5417 6.76613 27.5312 6.77649C27.5099 6.7974 27.4978 6.82591 27.4975 6.85574C27.4972 6.88558 27.5088 6.9143 27.5297 6.93559C27.5507 6.95687 27.5792 6.96898 27.609 6.96924C27.6388 6.96951 27.6676 6.95791 27.6888 6.937C27.7101 6.91609 27.7222 6.88758 27.7225 6.85774C27.7228 6.82791 27.7112 6.79919 27.6903 6.7779C27.6693 6.75662 27.6408 6.74451 27.611 6.74424ZM20.351 7.30724C20.3217 7.30829 20.2939 7.32082 20.2737 7.34213C20.2535 7.36343 20.2425 7.39182 20.243 7.42117C20.2435 7.45053 20.2556 7.4785 20.2765 7.49907C20.2975 7.51965 20.3256 7.53117 20.355 7.53117C20.3844 7.53117 20.4125 7.51965 20.4335 7.49907C20.4544 7.4785 20.4665 7.45053 20.467 7.42117C20.4675 7.39182 20.4565 7.36343 20.4363 7.34213C20.4161 7.32082 20.3883 7.30829 20.359 7.30724H20.351ZM27.601 7.30724C27.5717 7.30829 27.5439 7.32082 27.5237 7.34213C27.5035 7.36343 27.4925 7.39182 27.493 7.42117C27.4935 7.45053 27.5056 7.4785 27.5265 7.49907C27.5475 7.51965 27.5756 7.53117 27.605 7.53117C27.6344 7.53117 27.6625 7.51965 27.6835 7.49907C27.7044 7.4785 27.7165 7.45053 27.717 7.42117C27.7175 7.39182 27.7065 7.36343 27.6863 7.34213C27.6661 7.32082 27.6383 7.30829 27.609 7.30724H27.601ZM20.351 7.86724C20.3217 7.86829 20.2939 7.88082 20.2737 7.90213C20.2535 7.92343 20.2425 7.95182 20.243 7.98117C20.2435 8.01053 20.2556 8.0385 20.2765 8.05907C20.2975 8.07965 20.3256 8.09117 20.355 8.09117C20.3844 8.09117 20.4125 8.07965 20.4335 8.05907C20.4544 8.0385 20.4665 8.01053 20.467 7.98117C20.4675 7.95182 20.4565 7.92343 20.4363 7.90213C20.4161 7.88082 20.3883 7.86829 20.359 7.86724H20.351ZM27.601 7.86724C27.5717 7.86829 27.5439 7.88082 27.5237 7.90213C27.5035 7.92343 27.4925 7.95182 27.493 7.98117C27.4935 8.01053 27.5056 8.0385 27.5265 8.05907C27.5475 8.07965 27.5756 8.09117 27.605 8.09117C27.6344 8.09117 27.6625 8.07965 27.6835 8.05907C27.7044 8.0385 27.7165 8.01053 27.717 7.98117C27.7175 7.95182 27.7065 7.92343 27.6863 7.90213C27.6661 7.88082 27.6383 7.86829 27.609 7.86724H27.601ZM20.351 8.43024C20.3217 8.43129 20.2939 8.44382 20.2737 8.46513C20.2535 8.48643 20.2425 8.51482 20.243 8.54417C20.2435 8.57353 20.2556 8.6015 20.2765 8.62207C20.2975 8.64265 20.3256 8.65417 20.355 8.65417C20.3844 8.65417 20.4125 8.64265 20.4335 8.62207C20.4544 8.6015 20.4665 8.57353 20.467 8.54417C20.4675 8.51482 20.4565 8.48643 20.4363 8.46513C20.4161 8.44382 20.3883 8.43129 20.359 8.43024H20.351ZM27.601 8.43024C27.5717 8.43129 27.5439 8.44382 27.5237 8.46513C27.5035 8.48643 27.4925 8.51482 27.493 8.54417C27.4935 8.57353 27.5056 8.6015 27.5265 8.62207C27.5475 8.64265 27.5756 8.65417 27.605 8.65417C27.6344 8.65417 27.6625 8.64265 27.6835 8.62207C27.7044 8.6015 27.7165 8.57353 27.717 8.54417C27.7175 8.51482 27.7065 8.48643 27.6863 8.46513C27.6661 8.44382 27.6383 8.43129 27.609 8.43024H27.601ZM17.877 8.94324C17.7523 8.94526 17.6293 8.97192 17.515 9.0217C17.4007 9.07147 17.2974 9.14336 17.211 9.23324L15.402 11.0902C15.2267 11.2702 15.13 11.5124 15.1333 11.7636C15.1366 12.0148 15.2396 12.2544 15.4195 12.4297C15.5995 12.6051 15.8417 12.7017 16.0929 12.6984C16.3441 12.6951 16.5837 12.5922 16.759 12.4122L18.568 10.5522C18.6551 10.4632 18.7238 10.3579 18.7701 10.2423C18.8163 10.1267 18.8393 10.003 18.8376 9.8785C18.8359 9.75397 18.8097 9.63101 18.7603 9.51667C18.7109 9.40233 18.6395 9.29887 18.55 9.21224C18.461 9.12533 18.3558 9.05682 18.2403 9.01066C18.1248 8.9645 18.0014 8.94159 17.877 8.94324ZM31.877 8.94324C31.7523 8.94526 31.6293 8.97192 31.515 9.0217C31.4007 9.07147 31.2974 9.14336 31.211 9.23324L29.402 11.0902C29.3152 11.1793 29.2468 11.2847 29.2007 11.4002C29.1546 11.5157 29.1317 11.6392 29.1333 11.7636C29.135 11.888 29.1611 12.0108 29.2102 12.1251C29.2593 12.2394 29.3304 12.3429 29.4195 12.4297C29.5086 12.5165 29.6139 12.585 29.7295 12.6311C29.845 12.6771 29.9685 12.7 30.0929 12.6984C30.2173 12.6968 30.3401 12.6707 30.4544 12.6216C30.5687 12.5725 30.6722 12.5013 30.759 12.4122L32.568 10.5522C32.6551 10.4632 32.7238 10.3579 32.7701 10.2423C32.8163 10.1267 32.8393 10.003 32.8376 9.8785C32.8359 9.75397 32.8097 9.63101 32.7603 9.51667C32.7109 9.40233 32.6395 9.29887 32.55 9.21224C32.461 9.12533 32.3558 9.05682 32.2403 9.01066C32.1248 8.9645 32.0014 8.94159 31.877 8.94324ZM20.351 8.99224C20.3363 8.99316 20.3219 8.99697 20.3087 9.00345C20.2954 9.00993 20.2836 9.01895 20.2739 9.03C20.2641 9.04105 20.2566 9.05391 20.2518 9.06785C20.2471 9.08179 20.2451 9.09654 20.246 9.11124C20.2469 9.12595 20.2507 9.14034 20.2572 9.15357C20.2637 9.16681 20.2727 9.17864 20.2838 9.18839C20.2948 9.19814 20.3077 9.20562 20.3216 9.2104C20.3355 9.21518 20.3503 9.21716 20.365 9.21624C20.3947 9.21439 20.4225 9.20081 20.4421 9.17849C20.4618 9.15617 20.4719 9.12695 20.47 9.09724C20.4681 9.06754 20.4546 9.03979 20.4322 9.0201C20.4099 9.00041 20.3807 8.99039 20.351 8.99224ZM27.601 8.99224C27.5863 8.99316 27.5719 8.99697 27.5587 9.00345C27.5454 9.00993 27.5336 9.01895 27.5239 9.03C27.5141 9.04105 27.5066 9.05391 27.5018 9.06785C27.4971 9.08179 27.4951 9.09654 27.496 9.11124C27.4969 9.12595 27.5007 9.14034 27.5072 9.15357C27.5137 9.16681 27.5227 9.17864 27.5338 9.18839C27.5448 9.19814 27.5577 9.20562 27.5716 9.2104C27.5855 9.21518 27.6003 9.21716 27.615 9.21624C27.6447 9.21439 27.6725 9.20081 27.6921 9.17849C27.7118 9.15617 27.7219 9.12695 27.72 9.09724C27.7181 9.06754 27.7046 9.03979 27.6822 9.0201C27.6599 9.00041 27.6307 8.99039 27.601 8.99224ZM20.351 9.55524C20.3289 9.55662 20.3077 9.56444 20.29 9.57775C20.2724 9.59106 20.259 9.60927 20.2516 9.63011C20.2441 9.65096 20.243 9.67352 20.2483 9.69501C20.2536 9.71649 20.265 9.73596 20.2813 9.75098C20.2975 9.76601 20.3178 9.77593 20.3397 9.77952C20.3615 9.78312 20.3839 9.78023 20.4041 9.7712C20.4243 9.76218 20.4414 9.74742 20.4533 9.72877C20.4652 9.71011 20.4713 9.68837 20.471 9.66624C20.4709 9.65092 20.4677 9.63578 20.4615 9.62176C20.4553 9.60775 20.4463 9.59514 20.4351 9.58474C20.4238 9.57433 20.4105 9.56635 20.3961 9.56128C20.3816 9.5562 20.3663 9.55415 20.351 9.55524ZM27.601 9.55524C27.5789 9.55662 27.5577 9.56444 27.54 9.57775C27.5224 9.59106 27.509 9.60927 27.5016 9.63011C27.4941 9.65096 27.493 9.67352 27.4983 9.69501C27.5036 9.71649 27.515 9.73596 27.5313 9.75098C27.5475 9.76601 27.5678 9.77593 27.5897 9.77952C27.6115 9.78312 27.6339 9.78023 27.6541 9.7712C27.6743 9.76218 27.6914 9.74742 27.7033 9.72877C27.7152 9.71011 27.7213 9.68837 27.721 9.66624C27.7209 9.65092 27.7177 9.63578 27.7115 9.62176C27.7053 9.60775 27.6963 9.59514 27.6851 9.58474C27.6738 9.57433 27.6605 9.56635 27.6461 9.56128C27.6316 9.5562 27.6163 9.55415 27.601 9.55524ZM20.339 10.1172C20.3126 10.122 20.2888 10.136 20.2717 10.1567C20.2547 10.1774 20.2456 10.2034 20.246 10.2302C20.2439 10.2462 20.2452 10.2624 20.2498 10.2779C20.2545 10.2933 20.2624 10.3075 20.273 10.3197C20.2836 10.3318 20.2966 10.3415 20.3113 10.3481C20.326 10.3548 20.3419 10.3582 20.358 10.3582C20.3741 10.3582 20.39 10.3548 20.4047 10.3481C20.4194 10.3415 20.4324 10.3318 20.443 10.3197C20.4536 10.3075 20.4615 10.2933 20.4662 10.2779C20.4708 10.2624 20.4721 10.2462 20.47 10.2302C20.4697 10.2007 20.458 10.1724 20.4373 10.1513C20.4166 10.1302 20.3885 10.118 20.359 10.1172H20.339ZM27.589 10.1172C27.5626 10.122 27.5388 10.136 27.5217 10.1567C27.5047 10.1774 27.4956 10.2034 27.496 10.2302C27.4939 10.2462 27.4952 10.2624 27.4998 10.2779C27.5045 10.2933 27.5124 10.3075 27.523 10.3197C27.5336 10.3318 27.5466 10.3415 27.5613 10.3481C27.576 10.3548 27.5919 10.3582 27.608 10.3582C27.6241 10.3582 27.64 10.3548 27.6547 10.3481C27.6694 10.3415 27.6824 10.3318 27.693 10.3197C27.7036 10.3075 27.7115 10.2933 27.7162 10.2779C27.7208 10.2624 27.7221 10.2462 27.72 10.2302C27.7197 10.2007 27.708 10.1724 27.6873 10.1513C27.6666 10.1302 27.6385 10.118 27.609 10.1172H27.589ZM24.877 10.2192C24.7524 10.2211 24.6294 10.2476 24.5151 10.2972C24.4008 10.3468 24.2975 10.4185 24.211 10.5082L22.402 12.3652C22.2382 12.5473 22.1512 12.7857 22.1593 13.0305C22.1674 13.2752 22.2699 13.5074 22.4453 13.6783C22.6207 13.8492 22.8554 13.9456 23.1003 13.9472C23.3452 13.9489 23.5813 13.8557 23.759 13.6872L25.568 11.8282C25.6551 11.7392 25.7238 11.6339 25.7701 11.5183C25.8163 11.4027 25.8393 11.279 25.8376 11.1545C25.8359 11.03 25.8097 10.907 25.7603 10.7927C25.7109 10.6783 25.6395 10.5749 25.55 10.4882C25.4611 10.4011 25.3559 10.3325 25.2404 10.2861C25.1249 10.2398 25.0014 10.2167 24.877 10.2182V10.2192ZM20.361 10.6782C20.346 10.6784 20.3312 10.6815 20.3174 10.6873C20.3037 10.6932 20.2912 10.7017 20.2807 10.7123C20.2702 10.723 20.2619 10.7357 20.2563 10.7495C20.2507 10.7634 20.2479 10.7783 20.248 10.7932C20.248 10.8552 20.298 10.9032 20.361 10.9032C20.3755 10.9034 20.3899 10.9006 20.4034 10.8952C20.4169 10.8897 20.4291 10.8816 20.4394 10.8714C20.4497 10.8612 20.4579 10.849 20.4635 10.8356C20.4691 10.8222 20.472 10.8078 20.472 10.7932C20.4723 10.7633 20.4608 10.7345 20.44 10.713C20.4193 10.6915 20.3909 10.679 20.361 10.6782ZM27.611 10.6782C27.596 10.6784 27.5812 10.6815 27.5674 10.6873C27.5537 10.6932 27.5412 10.7017 27.5307 10.7123C27.5202 10.723 27.5119 10.7357 27.5063 10.7495C27.5007 10.7634 27.4979 10.7783 27.498 10.7932C27.498 10.8552 27.548 10.9032 27.611 10.9032C27.6255 10.9034 27.6399 10.9006 27.6534 10.8952C27.6669 10.8897 27.6791 10.8816 27.6894 10.8714C27.6997 10.8612 27.7079 10.849 27.7135 10.8356C27.7191 10.8222 27.722 10.8078 27.722 10.7932C27.7223 10.7633 27.7108 10.7345 27.69 10.713C27.6693 10.6915 27.6409 10.679 27.611 10.6782ZM20.361 11.2402C20.3462 11.2401 20.3316 11.2429 20.3179 11.2484C20.3042 11.254 20.2917 11.2621 20.2812 11.2725C20.2599 11.2934 20.2478 11.3219 20.2475 11.3517C20.2472 11.3816 20.2588 11.4103 20.2797 11.4316C20.3007 11.4529 20.3292 11.465 20.359 11.4652C20.3888 11.4655 20.4176 11.4539 20.4388 11.433C20.4601 11.4121 20.4722 11.3836 20.4725 11.3537C20.4728 11.3239 20.4612 11.2952 20.4403 11.2739C20.4193 11.2526 20.3908 11.2405 20.361 11.2402ZM27.611 11.2402C27.5962 11.2401 27.5816 11.2429 27.5679 11.2484C27.5542 11.254 27.5417 11.2621 27.5312 11.2725C27.5099 11.2934 27.4978 11.3219 27.4975 11.3517C27.4972 11.3816 27.5088 11.4103 27.5297 11.4316C27.5507 11.4529 27.5792 11.465 27.609 11.4652C27.6388 11.4655 27.6676 11.4539 27.6888 11.433C27.7101 11.4121 27.7222 11.3836 27.7225 11.3537C27.7228 11.3239 27.7112 11.2952 27.6903 11.2739C27.6693 11.2526 27.6408 11.2405 27.611 11.2402ZM20.351 11.8032C20.3227 11.8067 20.2967 11.8207 20.2782 11.8424C20.2597 11.8641 20.2499 11.8919 20.2509 11.9204C20.252 11.9489 20.2636 11.976 20.2836 11.9963C20.3036 12.0167 20.3305 12.0288 20.359 12.0302C20.42 12.0292 20.469 11.9772 20.47 11.9162C20.4702 11.9008 20.4672 11.8856 20.4612 11.8714C20.4552 11.8572 20.4463 11.8444 20.4351 11.8338C20.424 11.8232 20.4107 11.815 20.3962 11.8098C20.3818 11.8045 20.3664 11.8023 20.351 11.8032ZM27.601 11.8032C27.5727 11.8067 27.5467 11.8207 27.5282 11.8424C27.5097 11.8641 27.4999 11.8919 27.5009 11.9204C27.502 11.9489 27.5136 11.976 27.5336 11.9963C27.5536 12.0167 27.5805 12.0288 27.609 12.0302C27.67 12.0292 27.719 11.9772 27.72 11.9162C27.7202 11.9008 27.7172 11.8856 27.7112 11.8714C27.7052 11.8572 27.6963 11.8444 27.6851 11.8338C27.674 11.8232 27.6607 11.815 27.6462 11.8098C27.6318 11.8045 27.6164 11.8023 27.601 11.8032ZM20.351 12.3652C20.3227 12.3687 20.2967 12.3827 20.2782 12.4044C20.2597 12.4261 20.2499 12.4539 20.2509 12.4824C20.252 12.5109 20.2636 12.538 20.2836 12.5583C20.3036 12.5787 20.3305 12.5908 20.359 12.5922C20.42 12.5922 20.469 12.5402 20.47 12.4782C20.4702 12.4628 20.4672 12.4476 20.4612 12.4334C20.4552 12.4192 20.4463 12.4064 20.4351 12.3958C20.424 12.3852 20.4107 12.377 20.3962 12.3718C20.3818 12.3665 20.3664 12.3643 20.351 12.3652ZM27.601 12.3652C27.5727 12.3687 27.5467 12.3827 27.5282 12.4044C27.5097 12.4261 27.4999 12.4539 27.5009 12.4824C27.502 12.5109 27.5136 12.538 27.5336 12.5583C27.5536 12.5787 27.5805 12.5908 27.609 12.5922C27.67 12.5922 27.719 12.5402 27.72 12.4782C27.7202 12.4628 27.7172 12.4476 27.7112 12.4334C27.7052 12.4192 27.6963 12.4064 27.6851 12.3958C27.674 12.3852 27.6607 12.377 27.6462 12.3718C27.6318 12.3665 27.6164 12.3643 27.601 12.3652ZM17.877 12.7362C17.7523 12.7383 17.6293 12.7649 17.515 12.8147C17.4007 12.8645 17.2974 12.9364 17.211 13.0262L15.402 14.8832C15.2267 15.0632 15.13 15.3054 15.1333 15.5566C15.1366 15.8078 15.2396 16.0474 15.4195 16.2227C15.5995 16.3981 15.8417 16.4947 16.0929 16.4914C16.3441 16.4881 16.5837 16.3852 16.759 16.2052L18.568 14.3452C18.6551 14.2562 18.7238 14.1509 18.7701 14.0353C18.8163 13.9197 18.8393 13.796 18.8376 13.6715C18.8359 13.547 18.8097 13.424 18.7603 13.3097C18.7109 13.1953 18.6395 13.0919 18.55 13.0052C18.461 12.9183 18.3558 12.8498 18.2403 12.8037C18.1248 12.7575 18.0014 12.7346 17.877 12.7362ZM31.877 12.7362C31.7523 12.7383 31.6293 12.7649 31.515 12.8147C31.4007 12.8645 31.2974 12.9364 31.211 13.0262L29.402 14.8832C29.3152 14.9723 29.2468 15.0777 29.2007 15.1932C29.1546 15.3087 29.1317 15.4322 29.1333 15.5566C29.135 15.681 29.1611 15.8038 29.2102 15.9181C29.2593 16.0324 29.3304 16.1359 29.4195 16.2227C29.5086 16.3095 29.6139 16.378 29.7295 16.424C29.845 16.4701 29.9685 16.493 30.0929 16.4914C30.2173 16.4898 30.3401 16.4637 30.4544 16.4146C30.5687 16.3655 30.6722 16.2943 30.759 16.2052L32.568 14.3452C32.6551 14.2562 32.7238 14.1509 32.7701 14.0353C32.8163 13.9197 32.8393 13.796 32.8376 13.6715C32.8359 13.547 32.8097 13.424 32.7603 13.3097C32.7109 13.1953 32.6395 13.0919 32.55 13.0052C32.461 12.9183 32.3558 12.8498 32.2403 12.8037C32.1248 12.7575 32.0014 12.7346 31.877 12.7362ZM20.351 12.9282C20.3363 12.9292 20.3219 12.933 20.3087 12.9394C20.2954 12.9459 20.2836 12.9549 20.2739 12.966C20.2641 12.977 20.2566 12.9899 20.2518 13.0039C20.2471 13.0178 20.2451 13.0325 20.246 13.0472C20.2469 13.062 20.2507 13.0763 20.2572 13.0896C20.2637 13.1028 20.2727 13.1146 20.2838 13.1244C20.2948 13.1341 20.3077 13.1416 20.3216 13.1464C20.3355 13.1512 20.3503 13.1532 20.365 13.1522C20.3947 13.1504 20.4225 13.1368 20.4421 13.1145C20.4618 13.0922 20.4719 13.0629 20.47 13.0332C20.4681 13.0035 20.4546 12.9758 20.4322 12.9561C20.4099 12.9364 20.3807 12.9264 20.351 12.9282ZM27.601 12.9282C27.5863 12.9292 27.5719 12.933 27.5587 12.9394C27.5454 12.9459 27.5336 12.9549 27.5239 12.966C27.5141 12.977 27.5066 12.9899 27.5018 13.0039C27.4971 13.0178 27.4951 13.0325 27.496 13.0472C27.4969 13.062 27.5007 13.0763 27.5072 13.0896C27.5137 13.1028 27.5227 13.1146 27.5338 13.1244C27.5448 13.1341 27.5577 13.1416 27.5716 13.1464C27.5855 13.1512 27.6003 13.1532 27.615 13.1522C27.6447 13.1504 27.6725 13.1368 27.6921 13.1145C27.7118 13.0922 27.7219 13.0629 27.72 13.0332C27.7181 13.0035 27.7046 12.9758 27.6822 12.9561C27.6599 12.9364 27.6307 12.9264 27.601 12.9282ZM20.351 13.4902C20.3363 13.4912 20.3219 13.495 20.3087 13.5014C20.2954 13.5079 20.2836 13.5169 20.2739 13.528C20.2641 13.539 20.2566 13.5519 20.2518 13.5659C20.2471 13.5798 20.2451 13.5945 20.246 13.6092C20.2469 13.624 20.2507 13.6383 20.2572 13.6516C20.2637 13.6648 20.2727 13.6766 20.2838 13.6864C20.2948 13.6961 20.3077 13.7036 20.3216 13.7084C20.3355 13.7132 20.3503 13.7152 20.365 13.7142C20.3947 13.7124 20.4225 13.6988 20.4421 13.6765C20.4618 13.6542 20.4719 13.6249 20.47 13.5952C20.4681 13.5655 20.4546 13.5378 20.4322 13.5181C20.4099 13.4984 20.3807 13.4884 20.351 13.4902ZM27.601 13.4902C27.5713 13.4921 27.5435 13.5057 27.5239 13.528C27.5042 13.5503 27.4941 13.5795 27.496 13.6092C27.4979 13.6389 27.5114 13.6667 27.5338 13.6864C27.5561 13.7061 27.5853 13.7161 27.615 13.7142C27.6297 13.7133 27.6441 13.7095 27.6573 13.703C27.6706 13.6966 27.6824 13.6875 27.6921 13.6765C27.7019 13.6654 27.7094 13.6526 27.7142 13.6386C27.7189 13.6247 27.7209 13.61 27.72 13.5952C27.7191 13.5805 27.7153 13.5662 27.7088 13.5529C27.7023 13.5397 27.6933 13.5278 27.6822 13.5181C27.6712 13.5083 27.6583 13.5009 27.6444 13.4961C27.6305 13.4913 27.6157 13.4893 27.601 13.4902ZM20.351 14.0532C20.3363 14.0542 20.3219 14.058 20.3087 14.0644C20.2954 14.0709 20.2836 14.0799 20.2739 14.091C20.2641 14.102 20.2566 14.1149 20.2518 14.1289C20.2471 14.1428 20.2451 14.1575 20.246 14.1722C20.2469 14.187 20.2507 14.2013 20.2572 14.2146C20.2637 14.2278 20.2727 14.2396 20.2838 14.2494C20.2948 14.2591 20.3077 14.2666 20.3216 14.2714C20.3355 14.2762 20.3503 14.2782 20.365 14.2772C20.3947 14.2754 20.4225 14.2618 20.4421 14.2395C20.4618 14.2172 20.4719 14.1879 20.47 14.1582C20.4681 14.1285 20.4546 14.1008 20.4322 14.0811C20.4099 14.0614 20.3807 14.0514 20.351 14.0532ZM27.601 14.0532C27.5863 14.0542 27.5719 14.058 27.5587 14.0644C27.5454 14.0709 27.5336 14.0799 27.5239 14.091C27.5141 14.102 27.5066 14.1149 27.5018 14.1289C27.4971 14.1428 27.4951 14.1575 27.496 14.1722C27.4969 14.187 27.5007 14.2013 27.5072 14.2146C27.5137 14.2278 27.5227 14.2396 27.5338 14.2494C27.5448 14.2591 27.5577 14.2666 27.5716 14.2714C27.5855 14.2762 27.6003 14.2782 27.615 14.2772C27.6447 14.2754 27.6725 14.2618 27.6921 14.2395C27.7118 14.2172 27.7219 14.1879 27.72 14.1582C27.7181 14.1285 27.7046 14.1008 27.6822 14.0811C27.6599 14.0614 27.6307 14.0514 27.601 14.0532ZM24.877 14.2212C24.7524 14.2231 24.6294 14.2496 24.5151 14.2992C24.4008 14.3488 24.2975 14.4205 24.211 14.5102L22.402 16.3672C22.2382 16.5493 22.1512 16.7877 22.1593 17.0325C22.1674 17.2772 22.2699 17.5094 22.4453 17.6803C22.6207 17.8512 22.8554 17.9476 23.1003 17.9492C23.3452 17.9509 23.5813 17.8577 23.759 17.6892L25.568 15.8292C25.655 15.7403 25.7235 15.635 25.7697 15.5195C25.8159 15.4039 25.8388 15.2804 25.8371 15.156C25.8354 15.0316 25.8092 14.9087 25.7599 14.7945C25.7107 14.6802 25.6393 14.5769 25.55 14.4902C25.4611 14.4031 25.3559 14.3345 25.2404 14.2881C25.1249 14.2418 25.0014 14.2187 24.877 14.2202V14.2212ZM20.339 14.6152C20.3128 14.6196 20.289 14.6331 20.2719 14.6535C20.2548 14.6739 20.2456 14.6997 20.246 14.7262C20.2456 14.7484 20.2518 14.7702 20.2638 14.7889C20.2758 14.8076 20.2931 14.8222 20.3135 14.831C20.3339 14.8398 20.3564 14.8424 20.3782 14.8384C20.4001 14.8344 20.4202 14.824 20.4361 14.8085C20.452 14.793 20.463 14.7732 20.4676 14.7514C20.4721 14.7297 20.4702 14.7071 20.4619 14.6865C20.4537 14.6659 20.4395 14.6483 20.4212 14.6358C20.4028 14.6232 20.3812 14.6164 20.359 14.6162C20.351 14.6142 20.351 14.6142 20.343 14.6162H20.339V14.6152ZM27.589 14.6152C27.5628 14.6196 27.539 14.6331 27.5219 14.6535C27.5048 14.6739 27.4956 14.6997 27.496 14.7262C27.4956 14.7484 27.5018 14.7702 27.5138 14.7889C27.5258 14.8076 27.5431 14.8222 27.5635 14.831C27.5839 14.8398 27.6064 14.8424 27.6282 14.8384C27.6501 14.8344 27.6702 14.824 27.6861 14.8085C27.702 14.793 27.713 14.7732 27.7176 14.7514C27.7221 14.7297 27.7202 14.7071 27.7119 14.6865C27.7037 14.6659 27.6895 14.6483 27.6712 14.6358C27.6528 14.6232 27.6312 14.6164 27.609 14.6162C27.601 14.6142 27.601 14.6142 27.593 14.6162H27.589V14.6152ZM20.339 15.1782C20.3179 15.1817 20.2983 15.1911 20.2823 15.2053C20.2664 15.2196 20.2549 15.2381 20.2491 15.2586C20.2434 15.2792 20.2436 15.301 20.2499 15.3214C20.2561 15.3419 20.268 15.3601 20.2843 15.374C20.3005 15.3878 20.3204 15.3968 20.3416 15.3997C20.3627 15.4027 20.3843 15.3995 20.4037 15.3906C20.4231 15.3817 20.4396 15.3674 20.4511 15.3495C20.4627 15.3315 20.4689 15.3106 20.469 15.2892C20.469 15.2282 20.42 15.1792 20.359 15.1782H20.339ZM27.589 15.1782C27.5679 15.1817 27.5483 15.1911 27.5323 15.2053C27.5164 15.2196 27.5049 15.2381 27.4991 15.2586C27.4934 15.2792 27.4936 15.301 27.4999 15.3214C27.5061 15.3419 27.518 15.3601 27.5343 15.374C27.5505 15.3878 27.5704 15.3968 27.5916 15.3997C27.6127 15.4027 27.6343 15.3995 27.6537 15.3906C27.6731 15.3817 27.6896 15.3674 27.7011 15.3495C27.7127 15.3315 27.7189 15.3106 27.719 15.2892C27.719 15.2282 27.67 15.1792 27.609 15.1782H27.589ZM20.361 15.7382C20.3462 15.7381 20.3316 15.7409 20.3179 15.7464C20.3042 15.752 20.2917 15.7601 20.2812 15.7705C20.2599 15.7914 20.2478 15.8199 20.2475 15.8497C20.2472 15.8796 20.2588 15.9083 20.2797 15.9296C20.3007 15.9509 20.3292 15.963 20.359 15.9632C20.3888 15.9635 20.4176 15.9519 20.4388 15.931C20.4601 15.9101 20.4722 15.8816 20.4725 15.8517C20.4728 15.8219 20.4612 15.7932 20.4403 15.7719C20.4193 15.7506 20.3908 15.7385 20.361 15.7382ZM27.611 15.7382C27.5962 15.7381 27.5816 15.7409 27.5679 15.7464C27.5542 15.752 27.5417 15.7601 27.5312 15.7705C27.5099 15.7914 27.4978 15.8199 27.4975 15.8497C27.4972 15.8796 27.5088 15.9083 27.5297 15.9296C27.5507 15.9509 27.5792 15.963 27.609 15.9632C27.6388 15.9635 27.6676 15.9519 27.6888 15.931C27.7101 15.9101 27.7222 15.8816 27.7225 15.8517C27.7228 15.8219 27.7112 15.7932 27.6903 15.7719C27.6693 15.7506 27.6408 15.7385 27.611 15.7382ZM20.351 16.3012C20.3224 16.303 20.2955 16.3158 20.2759 16.3368C20.2564 16.3578 20.2457 16.3855 20.246 16.4142C20.246 16.4762 20.296 16.5262 20.359 16.5252C20.3887 16.5252 20.4172 16.5134 20.4382 16.4924C20.4592 16.4714 20.471 16.4429 20.471 16.4132C20.471 16.3835 20.4592 16.3551 20.4382 16.334C20.4172 16.313 20.3887 16.3012 20.359 16.3012H20.351ZM27.601 16.3012C27.5724 16.303 27.5455 16.3158 27.5259 16.3368C27.5064 16.3578 27.4957 16.3855 27.496 16.4142C27.496 16.4762 27.546 16.5262 27.609 16.5252C27.6387 16.5252 27.6672 16.5134 27.6882 16.4924C27.7092 16.4714 27.721 16.4429 27.721 16.4132C27.721 16.3835 27.7092 16.3551 27.6882 16.334C27.6672 16.313 27.6387 16.3012 27.609 16.3012H27.601ZM17.877 16.5292C17.7523 16.5313 17.6293 16.5579 17.515 16.6077C17.4007 16.6575 17.2974 16.7294 17.211 16.8192L15.402 18.6762C15.2267 18.8562 15.13 19.0984 15.1333 19.3496C15.1366 19.6008 15.2396 19.8404 15.4195 20.0157C15.5995 20.1911 15.8417 20.2877 16.0929 20.2844C16.3441 20.2811 16.5837 20.1782 16.759 19.9982L18.568 18.1382C18.6551 18.0492 18.7238 17.9439 18.7701 17.8283C18.8163 17.7127 18.8393 17.589 18.8376 17.4645C18.8359 17.34 18.8097 17.217 18.7603 17.1027C18.7109 16.9883 18.6395 16.8849 18.55 16.7982C18.461 16.7113 18.3558 16.6428 18.2403 16.5967C18.1248 16.5505 18.0014 16.5276 17.877 16.5292ZM31.877 16.5292C31.7523 16.5313 31.6293 16.5579 31.515 16.6077C31.4007 16.6575 31.2974 16.7294 31.211 16.8192L29.402 18.6762C29.3152 18.7653 29.2468 18.8707 29.2007 18.9862C29.1546 19.1017 29.1317 19.2252 29.1333 19.3496C29.135 19.474 29.1611 19.5968 29.2102 19.7111C29.2593 19.8254 29.3304 19.9289 29.4195 20.0157C29.5086 20.1025 29.6139 20.171 29.7295 20.2171C29.845 20.2631 29.9685 20.286 30.0929 20.2844C30.2173 20.2828 30.3401 20.2567 30.4544 20.2076C30.5687 20.1585 30.6722 20.0873 30.759 19.9982L32.568 18.1382C32.6551 18.0492 32.7238 17.9439 32.7701 17.8283C32.8163 17.7127 32.8393 17.589 32.8376 17.4645C32.8359 17.34 32.8097 17.217 32.7603 17.1027C32.7109 16.9883 32.6395 16.8849 32.55 16.7982C32.461 16.7113 32.3558 16.6428 32.2403 16.5967C32.1248 16.5505 32.0014 16.5276 31.877 16.5292ZM20.351 16.8632C20.3217 16.8643 20.2939 16.8768 20.2737 16.8981C20.2535 16.9194 20.2425 16.9478 20.243 16.9772C20.2435 17.0065 20.2556 17.0345 20.2765 17.0551C20.2975 17.0756 20.3256 17.0872 20.355 17.0872C20.3844 17.0872 20.4125 17.0756 20.4335 17.0551C20.4544 17.0345 20.4665 17.0065 20.467 16.9772C20.4675 16.9478 20.4565 16.9194 20.4363 16.8981C20.4161 16.8768 20.3883 16.8643 20.359 16.8632H20.351ZM27.601 16.8632C27.5717 16.8643 27.5439 16.8768 27.5237 16.8981C27.5035 16.9194 27.4925 16.9478 27.493 16.9772C27.4935 17.0065 27.5056 17.0345 27.5265 17.0551C27.5475 17.0756 27.5756 17.0872 27.605 17.0872C27.6344 17.0872 27.6625 17.0756 27.6835 17.0551C27.7044 17.0345 27.7165 17.0065 27.717 16.9772C27.7175 16.9478 27.7065 16.9194 27.6863 16.8981C27.6661 16.8768 27.6383 16.8643 27.609 16.8632H27.601ZM20.351 17.4262C20.3217 17.4273 20.2939 17.4398 20.2737 17.4611C20.2535 17.4824 20.2425 17.5108 20.243 17.5402C20.2435 17.5695 20.2556 17.5975 20.2765 17.6181C20.2975 17.6386 20.3256 17.6502 20.355 17.6502C20.3844 17.6502 20.4125 17.6386 20.4335 17.6181C20.4544 17.5975 20.4665 17.5695 20.467 17.5402C20.4675 17.5108 20.4565 17.4824 20.4363 17.4611C20.4161 17.4398 20.3883 17.4273 20.359 17.4262H20.351ZM27.601 17.4262C27.5717 17.4273 27.5439 17.4398 27.5237 17.4611C27.5035 17.4824 27.4925 17.5108 27.493 17.5402C27.4935 17.5695 27.5056 17.5975 27.5265 17.6181C27.5475 17.6386 27.5756 17.6502 27.605 17.6502C27.6344 17.6502 27.6625 17.6386 27.6835 17.6181C27.7044 17.5975 27.7165 17.5695 27.717 17.5402C27.7175 17.5108 27.7065 17.4824 27.6863 17.4611C27.6661 17.4398 27.6383 17.4273 27.609 17.4262H27.601ZM20.351 17.9882C20.3362 17.9892 20.3218 17.993 20.3085 17.9995C20.2952 18.006 20.2833 18.015 20.2735 18.0261C20.2637 18.0372 20.2562 18.0502 20.2514 18.0642C20.2466 18.0782 20.2446 18.093 20.2455 18.1077C20.2464 18.1225 20.2502 18.137 20.2567 18.1503C20.2632 18.1636 20.2723 18.1754 20.2834 18.1852C20.2945 18.195 20.3074 18.2026 20.3214 18.2074C20.3354 18.2122 20.3502 18.2142 20.365 18.2132C20.3948 18.2114 20.4227 18.1978 20.4425 18.1753C20.4623 18.1529 20.4724 18.1236 20.4705 18.0937C20.4686 18.0639 20.455 18.036 20.4326 18.0162C20.4102 17.9965 20.3808 17.9864 20.351 17.9882ZM27.601 17.9882C27.5862 17.9892 27.5718 17.993 27.5585 17.9995C27.5452 18.006 27.5333 18.015 27.5235 18.0261C27.5137 18.0372 27.5062 18.0502 27.5014 18.0642C27.4966 18.0782 27.4946 18.093 27.4955 18.1077C27.4964 18.1225 27.5002 18.137 27.5067 18.1503C27.5132 18.1636 27.5223 18.1754 27.5334 18.1852C27.5445 18.195 27.5574 18.2026 27.5714 18.2074C27.5854 18.2122 27.6002 18.2142 27.615 18.2132C27.6448 18.2114 27.6727 18.1978 27.6925 18.1753C27.7123 18.1529 27.7224 18.1236 27.7205 18.0937C27.7186 18.0639 27.705 18.036 27.6826 18.0162C27.6602 17.9965 27.6308 17.9864 27.601 17.9882ZM24.877 18.2212C24.7524 18.2231 24.6294 18.2496 24.5151 18.2992C24.4008 18.3488 24.2975 18.4205 24.211 18.5102L22.402 20.3672C22.2382 20.5493 22.1512 20.7877 22.1593 21.0325C22.1674 21.2772 22.2699 21.5094 22.4453 21.6803C22.6207 21.8512 22.8554 21.9476 23.1003 21.9492C23.3452 21.9509 23.5813 21.8577 23.759 21.6892L25.568 19.8292C25.655 19.7403 25.7235 19.635 25.7697 19.5195C25.8159 19.4039 25.8388 19.2804 25.8371 19.156C25.8354 19.0316 25.8092 18.9087 25.7599 18.7945C25.7107 18.6802 25.6393 18.5769 25.55 18.4902C25.4611 18.4031 25.3559 18.3345 25.2404 18.2881C25.1249 18.2418 25.0014 18.2187 24.877 18.2202V18.2212ZM20.351 18.5512C20.3363 18.5522 20.3219 18.556 20.3087 18.5624C20.2954 18.5689 20.2836 18.5779 20.2739 18.589C20.2641 18.6 20.2566 18.6129 20.2518 18.6269C20.2471 18.6408 20.2451 18.6555 20.246 18.6702C20.2469 18.685 20.2507 18.6993 20.2572 18.7126C20.2637 18.7258 20.2727 18.7376 20.2838 18.7474C20.2948 18.7571 20.3077 18.7646 20.3216 18.7694C20.3355 18.7742 20.3503 18.7762 20.365 18.7752C20.3947 18.7734 20.4225 18.7598 20.4421 18.7375C20.4618 18.7152 20.4719 18.6859 20.47 18.6562C20.4681 18.6265 20.4546 18.5988 20.4322 18.5791C20.4099 18.5594 20.3807 18.5494 20.351 18.5512ZM27.601 18.5512C27.5863 18.5522 27.5719 18.556 27.5587 18.5624C27.5454 18.5689 27.5336 18.5779 27.5239 18.589C27.5141 18.6 27.5066 18.6129 27.5018 18.6269C27.4971 18.6408 27.4951 18.6555 27.496 18.6702C27.4969 18.685 27.5007 18.6993 27.5072 18.7126C27.5137 18.7258 27.5227 18.7376 27.5338 18.7474C27.5448 18.7571 27.5577 18.7646 27.5716 18.7694C27.5855 18.7742 27.6003 18.7762 27.615 18.7752C27.6447 18.7734 27.6725 18.7598 27.6921 18.7375C27.7118 18.7152 27.7219 18.6859 27.72 18.6562C27.7181 18.6265 27.7046 18.5988 27.6822 18.5791C27.6599 18.5594 27.6307 18.5494 27.601 18.5512ZM20.339 19.1132C20.3127 19.1174 20.2888 19.1309 20.2717 19.1513C20.2546 19.1717 20.2454 19.1976 20.246 19.2242C20.2456 19.2464 20.2518 19.2682 20.2638 19.2869C20.2758 19.3056 20.2931 19.3202 20.3135 19.329C20.3339 19.3378 20.3564 19.3404 20.3782 19.3364C20.4001 19.3324 20.4202 19.322 20.4361 19.3065C20.452 19.291 20.463 19.2712 20.4676 19.2494C20.4721 19.2277 20.4702 19.2051 20.4619 19.1845C20.4537 19.1639 20.4395 19.1463 20.4212 19.1338C20.4028 19.1212 20.3812 19.1144 20.359 19.1142H20.339V19.1132ZM27.589 19.1132C27.5627 19.1174 27.5388 19.1309 27.5217 19.1513C27.5046 19.1717 27.4954 19.1976 27.496 19.2242C27.4956 19.2464 27.5018 19.2682 27.5138 19.2869C27.5258 19.3056 27.5431 19.3202 27.5635 19.329C27.5839 19.3378 27.6064 19.3404 27.6282 19.3364C27.6501 19.3324 27.6702 19.322 27.6861 19.3065C27.702 19.291 27.713 19.2712 27.7176 19.2494C27.7221 19.2277 27.7202 19.2051 27.7119 19.1845C27.7037 19.1639 27.6895 19.1463 27.6712 19.1338C27.6528 19.1212 27.6312 19.1144 27.609 19.1142H27.589V19.1132ZM20.361 19.6732C20.3462 19.6731 20.3316 19.6759 20.3179 19.6814C20.3042 19.687 20.2917 19.6951 20.2812 19.7055C20.2706 19.7158 20.2622 19.7282 20.2564 19.7418C20.2507 19.7554 20.2476 19.77 20.2475 19.7847C20.2474 19.7995 20.2501 19.8142 20.2557 19.8279C20.2612 19.8416 20.2694 19.854 20.2797 19.8646C20.2901 19.8751 20.3024 19.8835 20.316 19.8893C20.3296 19.8951 20.3442 19.8981 20.359 19.8982C20.3737 19.8984 20.3883 19.8956 20.4019 19.8901C20.4156 19.8846 20.428 19.8765 20.4385 19.8661C20.449 19.8558 20.4573 19.8436 20.4631 19.83C20.4688 19.8165 20.4719 19.802 20.472 19.7872C20.4721 19.7725 20.4694 19.7579 20.4639 19.7443C20.4583 19.7307 20.4502 19.7182 20.4399 19.7078C20.4296 19.6973 20.4173 19.6889 20.4038 19.6832C20.3902 19.6774 20.3757 19.6744 20.361 19.6742V19.6732ZM27.611 19.6732C27.5962 19.6731 27.5816 19.6759 27.5679 19.6814C27.5542 19.687 27.5417 19.6951 27.5312 19.7055C27.5206 19.7158 27.5122 19.7282 27.5064 19.7418C27.5007 19.7554 27.4976 19.77 27.4975 19.7847C27.4974 19.7995 27.5001 19.8142 27.5057 19.8279C27.5112 19.8416 27.5194 19.854 27.5297 19.8646C27.5401 19.8751 27.5524 19.8835 27.566 19.8893C27.5796 19.8951 27.5942 19.8981 27.609 19.8982C27.6237 19.8984 27.6383 19.8956 27.6519 19.8901C27.6656 19.8846 27.678 19.8765 27.6885 19.8661C27.699 19.8558 27.7073 19.8436 27.7131 19.83C27.7188 19.8165 27.7219 19.802 27.722 19.7872C27.7221 19.7725 27.7194 19.7579 27.7139 19.7443C27.7083 19.7307 27.7002 19.7182 27.6899 19.7078C27.6796 19.6973 27.6673 19.6889 27.6538 19.6832C27.6402 19.6774 27.6257 19.6744 27.611 19.6742V19.6732ZM20.351 20.2362C20.3224 20.238 20.2955 20.2508 20.2759 20.2718C20.2564 20.2928 20.2457 20.3205 20.246 20.3492C20.2462 20.3716 20.2532 20.3934 20.266 20.4119C20.2787 20.4303 20.2967 20.4444 20.3176 20.4525C20.3385 20.4606 20.3613 20.4622 20.3832 20.4572C20.405 20.4521 20.4248 20.4407 20.44 20.4243C20.4553 20.4079 20.4653 20.3873 20.4687 20.3651C20.4721 20.343 20.4688 20.3203 20.4592 20.3001C20.4496 20.2798 20.4342 20.2629 20.4149 20.2516C20.3956 20.2402 20.3734 20.2348 20.351 20.2362ZM27.601 20.2362C27.5724 20.238 27.5455 20.2508 27.5259 20.2718C27.5064 20.2928 27.4957 20.3205 27.496 20.3492C27.4962 20.3716 27.5032 20.3934 27.516 20.4119C27.5287 20.4303 27.5467 20.4444 27.5676 20.4525C27.5885 20.4606 27.6113 20.4622 27.6332 20.4572C27.655 20.4521 27.6748 20.4407 27.69 20.4243C27.7053 20.4079 27.7153 20.3873 27.7187 20.3651C27.7221 20.343 27.7188 20.3203 27.7092 20.3001C27.6996 20.2798 27.6842 20.2629 27.6649 20.2516C27.6456 20.2402 27.6234 20.2348 27.601 20.2362ZM17.877 20.3222C17.7523 20.3246 17.6293 20.3514 17.515 20.4014C17.4007 20.4513 17.2974 20.5233 17.211 20.6132L15.402 22.4712C15.3149 22.5602 15.2462 22.6656 15.1999 22.7812C15.1537 22.8968 15.1307 23.0205 15.1324 23.145C15.1341 23.2695 15.1603 23.3925 15.2097 23.5068C15.2591 23.6212 15.3305 23.7246 15.42 23.8112C15.6003 23.9862 15.8425 24.0826 16.0937 24.0792C16.3449 24.0758 16.5845 23.973 16.76 23.7932L18.568 21.9332C18.6551 21.8442 18.7238 21.7389 18.7701 21.6233C18.8163 21.5077 18.8393 21.384 18.8376 21.2595C18.8359 21.135 18.8097 21.012 18.7603 20.8977C18.7109 20.7833 18.6395 20.6799 18.55 20.5932C18.461 20.5063 18.3558 20.4378 18.2403 20.3917C18.1248 20.3455 18.0014 20.3226 17.877 20.3242V20.3222ZM31.877 20.3222C31.7523 20.3246 31.6293 20.3514 31.515 20.4014C31.4007 20.4513 31.2974 20.5233 31.211 20.6132L29.402 22.4712C29.3149 22.5602 29.2462 22.6656 29.1999 22.7812C29.1537 22.8968 29.1307 23.0205 29.1324 23.145C29.1341 23.2695 29.1603 23.3925 29.2097 23.5068C29.2591 23.6212 29.3305 23.7246 29.42 23.8112C29.6003 23.9862 29.8425 24.0826 30.0937 24.0792C30.3449 24.0758 30.5845 23.973 30.76 23.7932L32.568 21.9332C32.6551 21.8442 32.7238 21.7389 32.7701 21.6233C32.8163 21.5077 32.8393 21.384 32.8376 21.2595C32.8359 21.135 32.8097 21.012 32.7603 20.8977C32.7109 20.7833 32.6395 20.6799 32.55 20.5932C32.461 20.5063 32.3558 20.4378 32.2403 20.3917C32.1248 20.3455 32.0014 20.3226 31.877 20.3242V20.3222ZM20.351 20.7992C20.3224 20.801 20.2955 20.8138 20.2759 20.8348C20.2564 20.8558 20.2457 20.8835 20.246 20.9122C20.246 20.9742 20.296 21.0242 20.359 21.0232C20.3888 21.0222 20.417 21.0093 20.4374 20.9875C20.4577 20.9656 20.4686 20.9366 20.4675 20.9067C20.4664 20.8769 20.4536 20.8487 20.4317 20.8284C20.4099 20.808 20.3808 20.7972 20.351 20.7982V20.7992ZM27.601 20.7992C27.5724 20.801 27.5455 20.8138 27.5259 20.8348C27.5064 20.8558 27.4957 20.8835 27.496 20.9122C27.496 20.9742 27.546 21.0242 27.609 21.0232C27.6388 21.0222 27.667 21.0093 27.6874 20.9875C27.7077 20.9656 27.7186 20.9366 27.7175 20.9067C27.7164 20.8769 27.7036 20.8487 27.6817 20.8284C27.6599 20.808 27.6308 20.7972 27.601 20.7982V20.7992ZM20.351 21.3612C20.3224 21.363 20.2955 21.3758 20.2759 21.3968C20.2564 21.4178 20.2457 21.4455 20.246 21.4742C20.246 21.5372 20.296 21.5872 20.359 21.5862C20.3888 21.5852 20.417 21.5723 20.4374 21.5505C20.4577 21.5286 20.4686 21.4996 20.4675 21.4697C20.4664 21.4399 20.4536 21.4117 20.4317 21.3914C20.4099 21.371 20.3808 21.3602 20.351 21.3612ZM27.601 21.3612C27.5724 21.363 27.5455 21.3758 27.5259 21.3968C27.5064 21.4178 27.4957 21.4455 27.496 21.4742C27.496 21.5372 27.546 21.5872 27.609 21.5862C27.6388 21.5852 27.667 21.5723 27.6874 21.5505C27.7077 21.5286 27.7186 21.4996 27.7175 21.4697C27.7164 21.4399 27.7036 21.4117 27.6817 21.3914C27.6599 21.371 27.6308 21.3602 27.601 21.3612ZM20.351 21.9242C20.3363 21.9252 20.3219 21.929 20.3087 21.9354C20.2954 21.9419 20.2836 21.9509 20.2739 21.962C20.2641 21.973 20.2566 21.9859 20.2518 21.9998C20.2471 22.0138 20.2451 22.0285 20.246 22.0432C20.2469 22.058 20.2507 22.0723 20.2572 22.0856C20.2637 22.0988 20.2727 22.1106 20.2838 22.1204C20.2948 22.1301 20.3077 22.1376 20.3216 22.1424C20.3355 22.1472 20.3503 22.1492 20.365 22.1482C20.3947 22.1464 20.4225 22.1328 20.4421 22.1105C20.4618 22.0882 20.4719 22.0589 20.47 22.0292C20.4681 21.9995 20.4546 21.9718 20.4322 21.9521C20.4099 21.9324 20.3807 21.9224 20.351 21.9242ZM27.601 21.9242C27.5713 21.9261 27.5435 21.9397 27.5239 21.962C27.5042 21.9843 27.4941 22.0135 27.496 22.0432C27.4979 22.0729 27.5114 22.1007 27.5338 22.1204C27.5561 22.1401 27.5853 22.1501 27.615 22.1482C27.6297 22.1473 27.6441 22.1435 27.6573 22.137C27.6706 22.1306 27.6824 22.1215 27.6921 22.1105C27.7019 22.0994 27.7094 22.0866 27.7142 22.0726C27.7189 22.0587 27.7209 22.044 27.72 22.0292C27.7191 22.0145 27.7153 22.0002 27.7088 21.9869C27.7023 21.9737 27.6933 21.9618 27.6822 21.9521C27.6712 21.9423 27.6583 21.9349 27.6444 21.9301C27.6305 21.9253 27.6157 21.9233 27.601 21.9242ZM24.877 22.2192C24.7524 22.2211 24.6294 22.2476 24.5151 22.2972C24.4008 22.3468 24.2975 22.4185 24.211 22.5082L22.402 24.3672C22.2382 24.5493 22.1512 24.7877 22.1593 25.0325C22.1674 25.2772 22.2699 25.5094 22.4453 25.6803C22.6207 25.8512 22.8554 25.9476 23.1003 25.9492C23.3452 25.9509 23.5813 25.8577 23.759 25.6892L25.568 23.8292C25.655 23.7403 25.7235 23.635 25.7697 23.5195C25.8159 23.4039 25.8388 23.2804 25.8371 23.156C25.8354 23.0316 25.8092 22.9087 25.7599 22.7945C25.7107 22.6802 25.6393 22.5769 25.55 22.4902C25.4611 22.4031 25.3559 22.3345 25.2404 22.2881C25.1249 22.2418 25.0014 22.2187 24.877 22.2202V22.2192ZM20.351 22.4862C20.3362 22.4872 20.3218 22.491 20.3085 22.4975C20.2952 22.504 20.2833 22.513 20.2735 22.5241C20.2637 22.5352 20.2562 22.5482 20.2514 22.5622C20.2466 22.5762 20.2446 22.591 20.2455 22.6057C20.2464 22.6205 20.2502 22.635 20.2567 22.6483C20.2632 22.6616 20.2723 22.6734 20.2834 22.6832C20.2945 22.693 20.3074 22.7006 20.3214 22.7054C20.3354 22.7102 20.3502 22.7122 20.365 22.7112C20.3948 22.7094 20.4227 22.6958 20.4425 22.6733C20.4623 22.6509 20.4724 22.6216 20.4705 22.5917C20.4686 22.5619 20.455 22.534 20.4326 22.5142C20.4102 22.4945 20.3808 22.4844 20.351 22.4862ZM27.601 22.4862C27.5862 22.4872 27.5718 22.491 27.5585 22.4975C27.5452 22.504 27.5333 22.513 27.5235 22.5241C27.5137 22.5352 27.5062 22.5482 27.5014 22.5622C27.4966 22.5762 27.4946 22.591 27.4955 22.6057C27.4964 22.6205 27.5002 22.635 27.5067 22.6483C27.5132 22.6616 27.5223 22.6734 27.5334 22.6832C27.5445 22.693 27.5574 22.7006 27.5714 22.7054C27.5854 22.7102 27.6002 22.7122 27.615 22.7112C27.6448 22.7094 27.6727 22.6958 27.6925 22.6733C27.7123 22.6509 27.7224 22.6216 27.7205 22.5917C27.7186 22.5619 27.705 22.534 27.6826 22.5142C27.6602 22.4945 27.6308 22.4844 27.601 22.4862ZM20.351 23.0492C20.3363 23.0502 20.3219 23.054 20.3087 23.0604C20.2954 23.0669 20.2836 23.0759 20.2739 23.087C20.2641 23.098 20.2566 23.1109 20.2518 23.1248C20.2471 23.1388 20.2451 23.1535 20.246 23.1682C20.2469 23.183 20.2507 23.1973 20.2572 23.2106C20.2637 23.2238 20.2727 23.2356 20.2838 23.2454C20.2948 23.2551 20.3077 23.2626 20.3216 23.2674C20.3355 23.2722 20.3503 23.2742 20.365 23.2732C20.3947 23.2714 20.4225 23.2578 20.4421 23.2355C20.4618 23.2132 20.4719 23.1839 20.47 23.1542C20.4681 23.1245 20.4546 23.0968 20.4322 23.0771C20.4099 23.0574 20.3807 23.0474 20.351 23.0492ZM27.601 23.0492C27.5713 23.0511 27.5435 23.0647 27.5239 23.087C27.5042 23.1093 27.4941 23.1385 27.496 23.1682C27.4979 23.1979 27.5114 23.2257 27.5338 23.2454C27.5561 23.2651 27.5853 23.2751 27.615 23.2732C27.6297 23.2723 27.6441 23.2685 27.6573 23.262C27.6706 23.2556 27.6824 23.2465 27.6921 23.2355C27.7019 23.2244 27.7094 23.2116 27.7142 23.1976C27.7189 23.1837 27.7209 23.169 27.72 23.1542C27.7191 23.1395 27.7153 23.1252 27.7088 23.1119C27.7023 23.0987 27.6933 23.0868 27.6822 23.0771C27.6712 23.0673 27.6583 23.0599 27.6444 23.0551C27.6305 23.0503 27.6157 23.0483 27.601 23.0492ZM20.339 23.6112C20.3128 23.6156 20.289 23.6291 20.2719 23.6495C20.2548 23.6699 20.2456 23.6957 20.246 23.7222C20.2456 23.7444 20.2518 23.7662 20.2638 23.7849C20.2758 23.8036 20.2931 23.8182 20.3135 23.827C20.3339 23.8358 20.3564 23.8384 20.3782 23.8344C20.4001 23.8304 20.4202 23.82 20.4361 23.8045C20.452 23.789 20.463 23.7692 20.4676 23.7474C20.4721 23.7257 20.4702 23.7031 20.4619 23.6825C20.4537 23.6619 20.4395 23.6443 20.4212 23.6318C20.4028 23.6192 20.3812 23.6124 20.359 23.6122H20.339V23.6112ZM27.589 23.6112C27.5628 23.6156 27.539 23.6291 27.5219 23.6495C27.5048 23.6699 27.4956 23.6957 27.496 23.7222C27.4956 23.7444 27.5018 23.7662 27.5138 23.7849C27.5258 23.8036 27.5431 23.8182 27.5635 23.827C27.5839 23.8358 27.6064 23.8384 27.6282 23.8344C27.6501 23.8304 27.6702 23.82 27.6861 23.8045C27.702 23.789 27.713 23.7692 27.7176 23.7474C27.7221 23.7257 27.7202 23.7031 27.7119 23.6825C27.7037 23.6619 27.6895 23.6443 27.6712 23.6318C27.6528 23.6192 27.6312 23.6124 27.609 23.6122H27.589V23.6112ZM17.877 24.1172C17.7524 24.1193 17.6294 24.146 17.5151 24.1958C17.4008 24.2455 17.2974 24.3174 17.211 24.4072L15.402 26.2642C15.3149 26.3532 15.2462 26.4586 15.1999 26.5742C15.1537 26.6898 15.1307 26.8135 15.1324 26.938C15.1341 27.0625 15.1603 27.1855 15.2097 27.2998C15.2591 27.4142 15.3305 27.5176 15.42 27.6042C15.6003 27.7792 15.8425 27.8756 16.0937 27.8722C16.3449 27.8688 16.5845 27.766 16.76 27.5862L18.568 25.7262C18.6551 25.6372 18.7238 25.5319 18.7701 25.4163C18.8163 25.3007 18.8393 25.177 18.8376 25.0525C18.8359 24.928 18.8097 24.805 18.7603 24.6907C18.7109 24.5763 18.6395 24.4729 18.55 24.3862C18.461 24.2993 18.3558 24.2308 18.2403 24.1847C18.1248 24.1385 18.0014 24.1156 17.877 24.1172ZM31.877 24.1172C31.7524 24.1193 31.6294 24.146 31.5151 24.1958C31.4008 24.2455 31.2974 24.3174 31.211 24.4072L29.402 26.2642C29.3149 26.3532 29.2462 26.4586 29.1999 26.5742C29.1537 26.6898 29.1307 26.8135 29.1324 26.938C29.1341 27.0625 29.1603 27.1855 29.2097 27.2998C29.2591 27.4142 29.3305 27.5176 29.42 27.6042C29.6003 27.7792 29.8425 27.8756 30.0937 27.8722C30.3449 27.8688 30.5845 27.766 30.76 27.5862L32.568 25.7262C32.6551 25.6372 32.7238 25.5319 32.7701 25.4163C32.8163 25.3007 32.8393 25.177 32.8376 25.0525C32.8359 24.928 32.8097 24.805 32.7603 24.6907C32.7109 24.5763 32.6395 24.4729 32.55 24.3862C32.461 24.2993 32.3558 24.2308 32.2403 24.1847C32.1248 24.1385 32.0014 24.1156 31.877 24.1172ZM20.339 24.1742C20.3127 24.1784 20.2888 24.1919 20.2717 24.2123C20.2546 24.2327 20.2454 24.2586 20.246 24.2852C20.246 24.3472 20.296 24.3972 20.359 24.3962C20.42 24.3962 20.469 24.3462 20.47 24.2852C20.47 24.2242 20.42 24.1752 20.359 24.1742H20.339ZM27.589 24.1742C27.5627 24.1784 27.5388 24.1919 27.5217 24.2123C27.5046 24.2327 27.4954 24.2586 27.496 24.2852C27.496 24.3472 27.546 24.3972 27.609 24.3962C27.67 24.3962 27.719 24.3462 27.72 24.2852C27.72 24.2242 27.67 24.1752 27.609 24.1742H27.589ZM20.351 24.7342C20.3217 24.7353 20.2939 24.7478 20.2737 24.7691C20.2535 24.7904 20.2425 24.8188 20.243 24.8482C20.2435 24.8775 20.2556 24.9055 20.2765 24.9261C20.2975 24.9466 20.3256 24.9582 20.355 24.9582C20.3844 24.9582 20.4125 24.9466 20.4335 24.9261C20.4544 24.9055 20.4665 24.8775 20.467 24.8482C20.4675 24.8188 20.4565 24.7904 20.4363 24.7691C20.4161 24.7478 20.3883 24.7353 20.359 24.7342H20.351ZM27.601 24.7342C27.5717 24.7353 27.5439 24.7478 27.5237 24.7691C27.5035 24.7904 27.4925 24.8188 27.493 24.8482C27.4935 24.8775 27.5056 24.9055 27.5265 24.9261C27.5475 24.9466 27.5756 24.9582 27.605 24.9582C27.6344 24.9582 27.6625 24.9466 27.6835 24.9261C27.7044 24.9055 27.7165 24.8775 27.717 24.8482C27.7175 24.8188 27.7065 24.7904 27.6863 24.7691C27.6661 24.7478 27.6383 24.7353 27.609 24.7342H27.601ZM20.351 25.2972C20.3224 25.299 20.2955 25.3118 20.2759 25.3328C20.2564 25.3538 20.2457 25.3815 20.246 25.4102C20.246 25.4722 20.296 25.5222 20.359 25.5212C20.42 25.5212 20.469 25.4712 20.47 25.4102C20.4701 25.3955 20.4674 25.3809 20.4619 25.3673C20.4564 25.3537 20.4482 25.3412 20.4379 25.3308C20.4276 25.3203 20.4153 25.3119 20.4018 25.3062C20.3882 25.3004 20.3737 25.2974 20.359 25.2972H20.351ZM27.601 25.2972C27.5724 25.299 27.5455 25.3118 27.5259 25.3328C27.5064 25.3538 27.4957 25.3815 27.496 25.4102C27.496 25.4722 27.546 25.5222 27.609 25.5212C27.67 25.5212 27.719 25.4712 27.72 25.4102C27.7201 25.3955 27.7174 25.3809 27.7119 25.3673C27.7064 25.3537 27.6982 25.3412 27.6879 25.3308C27.6776 25.3203 27.6653 25.3119 27.6518 25.3062C27.6382 25.3004 27.6237 25.2974 27.609 25.2972H27.601ZM20.351 25.8592C20.3222 25.861 20.2952 25.8739 20.2756 25.8951C20.256 25.9164 20.2454 25.9444 20.246 25.9732C20.246 26.0352 20.296 26.0852 20.359 26.0832C20.42 26.0832 20.469 26.0352 20.47 25.9732C20.4703 25.9578 20.4674 25.9424 20.4615 25.9281C20.4555 25.9138 20.4467 25.9009 20.4355 25.8901C20.4243 25.8794 20.411 25.8712 20.3965 25.8658C20.3819 25.8605 20.3665 25.8583 20.351 25.8592ZM27.601 25.8592C27.5722 25.861 27.5452 25.8739 27.5256 25.8951C27.506 25.9164 27.4954 25.9444 27.496 25.9732C27.496 26.0352 27.546 26.0852 27.609 26.0832C27.67 26.0832 27.719 26.0352 27.72 25.9732C27.7203 25.9578 27.7174 25.9424 27.7115 25.9281C27.7055 25.9138 27.6967 25.9009 27.6855 25.8901C27.6743 25.8794 27.661 25.8712 27.6465 25.8658C27.6319 25.8605 27.6165 25.8583 27.601 25.8592ZM24.877 26.2212C24.7524 26.2231 24.6294 26.2496 24.5151 26.2992C24.4008 26.3488 24.2975 26.4205 24.211 26.5102L22.402 28.3672C22.2382 28.5493 22.1512 28.7877 22.1593 29.0325C22.1674 29.2772 22.2699 29.5094 22.4453 29.6803C22.6207 29.8512 22.8554 29.9476 23.1003 29.9492C23.3452 29.9509 23.5813 29.8577 23.759 29.6892L25.568 27.8292C25.655 27.7403 25.7235 27.635 25.7697 27.5195C25.8159 27.4039 25.8388 27.2804 25.8371 27.156C25.8354 27.0316 25.8092 26.9087 25.7599 26.7945C25.7107 26.6802 25.6393 26.5769 25.55 26.4902C25.4611 26.4031 25.3559 26.3345 25.2404 26.2881C25.1249 26.2418 25.0014 26.2187 24.877 26.2202V26.2212ZM20.351 26.4212C20.3362 26.4218 20.3217 26.4252 20.3083 26.4313C20.2948 26.4375 20.2827 26.4462 20.2726 26.457C20.2523 26.4789 20.2414 26.5079 20.2425 26.5377C20.2436 26.5676 20.2564 26.5958 20.2783 26.6161C20.3001 26.6365 20.3292 26.6473 20.359 26.6462C20.3887 26.6462 20.4172 26.6344 20.4382 26.6134C20.4592 26.5924 20.471 26.5639 20.471 26.5342C20.471 26.5045 20.4592 26.4761 20.4382 26.455C20.4172 26.434 20.3887 26.4222 20.359 26.4222C20.3563 26.4221 20.3537 26.4221 20.351 26.4222V26.4212ZM27.601 26.4212C27.5862 26.4218 27.5717 26.4252 27.5583 26.4313C27.5448 26.4375 27.5327 26.4462 27.5226 26.457C27.5023 26.4789 27.4914 26.5079 27.4925 26.5377C27.4936 26.5676 27.5064 26.5958 27.5283 26.6161C27.5501 26.6365 27.5792 26.6473 27.609 26.6462C27.6387 26.6462 27.6672 26.6344 27.6882 26.6134C27.7092 26.5924 27.721 26.5639 27.721 26.5342C27.721 26.5045 27.7092 26.4761 27.6882 26.455C27.6672 26.434 27.6387 26.4222 27.609 26.4222C27.6063 26.4221 27.6037 26.4221 27.601 26.4222V26.4212ZM20.351 26.9842C20.3217 26.9853 20.2939 26.9978 20.2737 27.0191C20.2535 27.0404 20.2425 27.0688 20.243 27.0982C20.2435 27.1275 20.2556 27.1555 20.2765 27.1761C20.2975 27.1966 20.3256 27.2082 20.355 27.2082C20.3844 27.2082 20.4125 27.1966 20.4335 27.1761C20.4544 27.1555 20.4665 27.1275 20.467 27.0982C20.4675 27.0688 20.4565 27.0404 20.4363 27.0191C20.4161 26.9978 20.3883 26.9853 20.359 26.9842H20.351ZM27.601 26.9842C27.5717 26.9853 27.5439 26.9978 27.5237 27.0191C27.5035 27.0404 27.4925 27.0688 27.493 27.0982C27.4935 27.1275 27.5056 27.1555 27.5265 27.1761C27.5475 27.1966 27.5756 27.2082 27.605 27.2082C27.6344 27.2082 27.6625 27.1966 27.6835 27.1761C27.7044 27.1555 27.7165 27.1275 27.717 27.0982C27.7175 27.0688 27.7065 27.0404 27.6863 27.0191C27.6661 26.9978 27.6383 26.9853 27.609 26.9842H27.601ZM20.351 27.5472C20.3217 27.5483 20.2939 27.5608 20.2737 27.5821C20.2535 27.6034 20.2425 27.6318 20.243 27.6612C20.2435 27.6905 20.2556 27.7185 20.2765 27.7391C20.2975 27.7596 20.3256 27.7712 20.355 27.7712C20.3844 27.7712 20.4125 27.7596 20.4335 27.7391C20.4544 27.7185 20.4665 27.6905 20.467 27.6612C20.4675 27.6318 20.4565 27.6034 20.4363 27.5821C20.4161 27.5608 20.3883 27.5483 20.359 27.5472H20.351ZM27.601 27.5472C27.5717 27.5483 27.5439 27.5608 27.5237 27.5821C27.5035 27.6034 27.4925 27.6318 27.493 27.6612C27.4935 27.6905 27.5056 27.7185 27.5265 27.7391C27.5475 27.7596 27.5756 27.7712 27.605 27.7712C27.6344 27.7712 27.6625 27.7596 27.6835 27.7391C27.7044 27.7185 27.7165 27.6905 27.717 27.6612C27.7175 27.6318 27.7065 27.6034 27.6863 27.5821C27.6661 27.5608 27.6383 27.5483 27.609 27.5472H27.601ZM17.877 27.9102C17.7523 27.9123 17.6293 27.9389 17.515 27.9887C17.4007 28.0385 17.2974 28.1104 17.211 28.2002L15.402 30.0572C15.3149 30.1462 15.2462 30.2516 15.1999 30.3672C15.1537 30.4828 15.1307 30.6065 15.1324 30.731C15.1341 30.8555 15.1603 30.9785 15.2097 31.0928C15.2591 31.2072 15.3305 31.3106 15.42 31.3972C15.6003 31.5722 15.8425 31.6686 16.0937 31.6652C16.3449 31.6618 16.5845 31.559 16.76 31.3792L18.568 29.5192C18.6551 29.4302 18.7238 29.3249 18.7701 29.2093C18.8163 29.0937 18.8393 28.97 18.8376 28.8455C18.8359 28.721 18.8097 28.598 18.7603 28.4837C18.7109 28.3693 18.6395 28.2659 18.55 28.1792C18.461 28.0923 18.3558 28.0238 18.2403 27.9777C18.1248 27.9315 18.0014 27.9086 17.877 27.9102ZM31.877 27.9102C31.7523 27.9123 31.6293 27.9389 31.515 27.9887C31.4007 28.0385 31.2974 28.1104 31.211 28.2002L29.402 30.0572C29.3149 30.1462 29.2462 30.2516 29.1999 30.3672C29.1537 30.4828 29.1307 30.6065 29.1324 30.731C29.1341 30.8555 29.1603 30.9785 29.2097 31.0928C29.2591 31.2072 29.3305 31.3106 29.42 31.3972C29.6003 31.5722 29.8425 31.6686 30.0937 31.6652C30.3449 31.6618 30.5845 31.559 30.76 31.3792L32.568 29.5192C32.6551 29.4302 32.7238 29.3249 32.7701 29.2093C32.8163 29.0937 32.8393 28.97 32.8376 28.8455C32.8359 28.721 32.8097 28.598 32.7603 28.4837C32.7109 28.3693 32.6395 28.2659 32.55 28.1792C32.461 28.0923 32.3558 28.0238 32.2403 27.9777C32.1248 27.9315 32.0014 27.9086 31.877 27.9102ZM20.339 28.1102C20.3129 28.1145 20.2893 28.1279 20.2722 28.1481C20.2552 28.1683 20.2459 28.1938 20.246 28.2202C20.246 28.2501 20.2579 28.2787 20.2789 28.2998C20.3 28.3209 20.3287 28.3327 20.3585 28.3327C20.3883 28.3327 20.417 28.3209 20.438 28.2998C20.4591 28.2787 20.471 28.2501 20.471 28.2202C20.47 28.1602 20.421 28.1102 20.359 28.1102H20.339ZM27.589 28.1102C27.5629 28.1145 27.5393 28.1279 27.5222 28.1481C27.5052 28.1683 27.4959 28.1938 27.496 28.2202C27.496 28.2501 27.5079 28.2787 27.5289 28.2998C27.55 28.3209 27.5787 28.3327 27.6085 28.3327C27.6383 28.3327 27.667 28.3209 27.688 28.2998C27.7091 28.2787 27.721 28.2501 27.721 28.2202C27.72 28.1602 27.671 28.1102 27.609 28.1102H27.589ZM20.361 28.6702C20.3462 28.6701 20.3316 28.6729 20.3179 28.6784C20.3042 28.684 20.2917 28.6921 20.2812 28.7025C20.2706 28.7128 20.2622 28.7252 20.2564 28.7388C20.2507 28.7524 20.2476 28.767 20.2475 28.7817C20.2474 28.7965 20.2501 28.8112 20.2557 28.8249C20.2612 28.8386 20.2694 28.851 20.2797 28.8616C20.2901 28.8721 20.3024 28.8805 20.316 28.8863C20.3296 28.8921 20.3442 28.8951 20.359 28.8952C20.3888 28.8955 20.4176 28.8839 20.4388 28.863C20.4601 28.8421 20.4722 28.8136 20.4725 28.7837C20.4728 28.7539 20.4612 28.7252 20.4403 28.7039C20.4193 28.6826 20.3908 28.6705 20.361 28.6702ZM27.611 28.6702C27.5962 28.6701 27.5816 28.6729 27.5679 28.6784C27.5542 28.684 27.5417 28.6921 27.5312 28.7025C27.5206 28.7128 27.5122 28.7252 27.5064 28.7388C27.5007 28.7524 27.4976 28.767 27.4975 28.7817C27.4974 28.7965 27.5001 28.8112 27.5057 28.8249C27.5112 28.8386 27.5194 28.851 27.5297 28.8616C27.5401 28.8721 27.5524 28.8805 27.566 28.8863C27.5796 28.8921 27.5942 28.8951 27.609 28.8952C27.6388 28.8955 27.6676 28.8839 27.6888 28.863C27.7101 28.8421 27.7222 28.8136 27.7225 28.7837C27.7228 28.7539 27.7112 28.7252 27.6903 28.7039C27.6693 28.6826 27.6408 28.6705 27.611 28.6702ZM20.351 29.2322C20.3222 29.234 20.2952 29.2469 20.2756 29.2681C20.256 29.2894 20.2454 29.3174 20.246 29.3462C20.246 29.4072 20.296 29.4582 20.359 29.4562C20.42 29.4562 20.469 29.4072 20.47 29.3462C20.4703 29.3308 20.4674 29.3154 20.4615 29.3011C20.4555 29.2868 20.4467 29.2739 20.4355 29.2631C20.4243 29.2524 20.411 29.2442 20.3965 29.2388C20.3819 29.2335 20.3665 29.2313 20.351 29.2322ZM27.601 29.2322C27.5722 29.234 27.5452 29.2469 27.5256 29.2681C27.506 29.2894 27.4954 29.3174 27.496 29.3462C27.496 29.4072 27.546 29.4582 27.609 29.4562C27.67 29.4562 27.719 29.4072 27.72 29.3462C27.7203 29.3308 27.7174 29.3154 27.7115 29.3011C27.7055 29.2868 27.6967 29.2739 27.6855 29.2631C27.6743 29.2524 27.661 29.2442 27.6465 29.2388C27.6319 29.2335 27.6165 29.2313 27.601 29.2322ZM20.351 29.7952C20.3217 29.7963 20.2939 29.8088 20.2737 29.8301C20.2535 29.8514 20.2425 29.8798 20.243 29.9092C20.2435 29.9385 20.2556 29.9665 20.2765 29.9871C20.2975 30.0076 20.3256 30.0192 20.355 30.0192C20.3844 30.0192 20.4125 30.0076 20.4335 29.9871C20.4544 29.9665 20.4665 29.9385 20.467 29.9092C20.4675 29.8798 20.4565 29.8514 20.4363 29.8301C20.4161 29.8088 20.3883 29.7963 20.359 29.7952C20.3563 29.7951 20.3537 29.7951 20.351 29.7952ZM27.601 29.7952C27.5717 29.7963 27.5439 29.8088 27.5237 29.8301C27.5035 29.8514 27.4925 29.8798 27.493 29.9092C27.4935 29.9385 27.5056 29.9665 27.5265 29.9871C27.5475 30.0076 27.5756 30.0192 27.605 30.0192C27.6344 30.0192 27.6625 30.0076 27.6835 29.9871C27.7044 29.9665 27.7165 29.9385 27.717 29.9092C27.7175 29.8798 27.7065 29.8514 27.6863 29.8301C27.6661 29.8088 27.6383 29.7963 27.609 29.7952C27.6063 29.7951 27.6037 29.7951 27.601 29.7952ZM24.877 30.2212C24.7524 30.2231 24.6294 30.2496 24.5151 30.2992C24.4008 30.3488 24.2975 30.4205 24.211 30.5102L22.402 32.3672C22.2382 32.5493 22.1512 32.7877 22.1593 33.0325C22.1674 33.2772 22.2699 33.5094 22.4453 33.6803C22.6207 33.8512 22.8554 33.9476 23.1003 33.9492C23.3452 33.9509 23.5813 33.8577 23.759 33.6892L25.568 31.8292C25.655 31.7403 25.7235 31.635 25.7697 31.5195C25.8159 31.4039 25.8388 31.2804 25.8371 31.156C25.8354 31.0316 25.8092 30.9087 25.7599 30.7945C25.7107 30.6802 25.6393 30.5769 25.55 30.4902C25.4611 30.4031 25.3559 30.3345 25.2404 30.2881C25.1249 30.2418 25.0014 30.2187 24.877 30.2202V30.2212ZM20.351 30.3572C20.3222 30.359 20.2952 30.3719 20.2756 30.3931C20.256 30.4144 20.2454 30.4424 20.246 30.4712C20.246 30.5322 20.296 30.5832 20.359 30.5812C20.3737 30.5807 20.3882 30.5773 20.4016 30.5712C20.4149 30.5651 20.427 30.5564 20.437 30.5456C20.4471 30.5348 20.4549 30.5222 20.46 30.5084C20.4651 30.4946 20.4675 30.48 20.467 30.4652C20.4665 30.4505 20.4631 30.4361 20.4569 30.4227C20.4508 30.4093 20.4421 30.3972 20.4314 30.3872C20.4206 30.3772 20.408 30.3694 20.3942 30.3642C20.3804 30.3591 20.3657 30.3567 20.351 30.3572ZM27.601 30.3572C27.5722 30.359 27.5452 30.3719 27.5256 30.3931C27.506 30.4144 27.4954 30.4424 27.496 30.4712C27.496 30.5322 27.546 30.5832 27.609 30.5812C27.6237 30.5807 27.6382 30.5773 27.6516 30.5712C27.6649 30.5651 27.677 30.5564 27.687 30.5456C27.6971 30.5348 27.7049 30.5222 27.71 30.5084C27.7151 30.4946 27.7175 30.48 27.717 30.4652C27.7165 30.4505 27.7131 30.4361 27.7069 30.4227C27.7008 30.4093 27.6921 30.3972 27.6814 30.3872C27.6706 30.3772 27.658 30.3694 27.6442 30.3642C27.6304 30.3591 27.6157 30.3567 27.601 30.3572ZM20.351 30.9172C20.3224 30.9195 20.2956 30.9325 20.2761 30.9537C20.2567 30.9748 20.2459 31.0025 20.246 31.0312C20.2439 31.0472 20.2452 31.0634 20.2498 31.0789C20.2545 31.0943 20.2624 31.1085 20.273 31.1207C20.2836 31.1328 20.2966 31.1425 20.3113 31.1491C20.326 31.1558 20.3419 31.1592 20.358 31.1592C20.3741 31.1592 20.39 31.1558 20.4047 31.1491C20.4194 31.1425 20.4324 31.1328 20.443 31.1207C20.4536 31.1085 20.4615 31.0943 20.4662 31.0789C20.4708 31.0634 20.4721 31.0472 20.47 31.0312C20.4699 31.0159 20.4667 31.0008 20.4606 30.9867C20.4545 30.9727 20.4456 30.96 20.4345 30.9495C20.4234 30.9389 20.4103 30.9307 20.3959 30.9254C20.3816 30.92 20.3663 30.9176 20.351 30.9182V30.9172ZM27.601 30.9172C27.5724 30.9195 27.5456 30.9325 27.5261 30.9537C27.5067 30.9748 27.4959 31.0025 27.496 31.0312C27.4939 31.0472 27.4952 31.0634 27.4998 31.0789C27.5045 31.0943 27.5124 31.1085 27.523 31.1207C27.5336 31.1328 27.5466 31.1425 27.5613 31.1491C27.576 31.1558 27.5919 31.1592 27.608 31.1592C27.6241 31.1592 27.64 31.1558 27.6547 31.1491C27.6694 31.1425 27.6824 31.1328 27.693 31.1207C27.7036 31.1085 27.7115 31.0943 27.7162 31.0789C27.7208 31.0634 27.7221 31.0472 27.72 31.0312C27.7199 31.0159 27.7167 31.0008 27.7106 30.9867C27.7045 30.9727 27.6956 30.96 27.6845 30.9495C27.6734 30.9389 27.6603 30.9307 27.6459 30.9254C27.6316 30.92 27.6163 30.9176 27.601 30.9182V30.9172ZM20.351 31.4802C20.3217 31.4813 20.2939 31.4938 20.2737 31.5151C20.2535 31.5364 20.2425 31.5648 20.243 31.5942C20.2435 31.6235 20.2556 31.6515 20.2765 31.6721C20.2975 31.6926 20.3256 31.7042 20.355 31.7042C20.3844 31.7042 20.4125 31.6926 20.4335 31.6721C20.4544 31.6515 20.4665 31.6235 20.467 31.5942C20.4675 31.5648 20.4565 31.5364 20.4363 31.5151C20.4161 31.4938 20.3883 31.4813 20.359 31.4802H20.351ZM27.601 31.4802C27.5717 31.4813 27.5439 31.4938 27.5237 31.5151C27.5035 31.5364 27.4925 31.5648 27.493 31.5942C27.4935 31.6235 27.5056 31.6515 27.5265 31.6721C27.5475 31.6926 27.5756 31.7042 27.605 31.7042C27.6344 31.7042 27.6625 31.6926 27.6835 31.6721C27.7044 31.6515 27.7165 31.6235 27.717 31.5942C27.7175 31.5648 27.7065 31.5364 27.6863 31.5151C27.6661 31.4938 27.6383 31.4813 27.609 31.4802H27.601ZM17.877 31.7032C17.7524 31.7051 17.6294 31.7316 17.5151 31.7812C17.4008 31.8308 17.2975 31.9025 17.211 31.9922L15.402 33.8492C15.3149 33.9382 15.2462 34.0436 15.1999 34.1592C15.1537 34.2748 15.1307 34.3985 15.1324 34.523C15.1341 34.6475 15.1603 34.7705 15.2097 34.8848C15.2591 34.9992 15.3305 35.1026 15.42 35.1892C15.6001 35.3643 15.8423 35.4609 16.0935 35.4577C16.3447 35.4545 16.5844 35.3519 16.76 35.1722L18.568 33.3122C18.6551 33.2232 18.7238 33.1179 18.7701 33.0023C18.8163 32.8867 18.8393 32.763 18.8376 32.6385C18.8359 32.514 18.8097 32.391 18.7603 32.2767C18.7109 32.1623 18.6395 32.0589 18.55 31.9722C18.461 31.8853 18.3558 31.8168 18.2403 31.7707C18.1248 31.7245 18.0014 31.7016 17.877 31.7032ZM31.877 31.7032C31.7524 31.7051 31.6294 31.7316 31.5151 31.7812C31.4008 31.8308 31.2975 31.9025 31.211 31.9922L29.402 33.8492C29.3149 33.9382 29.2462 34.0436 29.1999 34.1592C29.1537 34.2748 29.1307 34.3985 29.1324 34.523C29.1341 34.6475 29.1603 34.7705 29.2097 34.8848C29.2591 34.9992 29.3305 35.1026 29.42 35.1892C29.6001 35.3643 29.8423 35.4609 30.0935 35.4577C30.3447 35.4545 30.5844 35.3519 30.76 35.1722L32.568 33.3122C32.6551 33.2232 32.7238 33.1179 32.7701 33.0023C32.8163 32.8867 32.8393 32.763 32.8376 32.6385C32.8359 32.514 32.8097 32.391 32.7603 32.2767C32.7109 32.1623 32.6395 32.0589 32.55 31.9722C32.461 31.8853 32.3558 31.8168 32.2403 31.7707C32.1248 31.7245 32.0014 31.7016 31.877 31.7032ZM20.339 32.0432C20.3128 32.0476 20.289 32.0611 20.2719 32.0815C20.2548 32.1019 20.2456 32.1277 20.246 32.1542C20.2458 32.1764 20.2522 32.1981 20.2643 32.2166C20.2765 32.2352 20.2938 32.2497 20.3142 32.2583C20.3346 32.267 20.3571 32.2694 20.3789 32.2653C20.4006 32.2612 20.4207 32.2507 20.4365 32.2351C20.4523 32.2196 20.4631 32.1998 20.4676 32.1781C20.4722 32.1564 20.4701 32.1338 20.4618 32.1133C20.4536 32.0928 20.4394 32.0751 20.4211 32.0627C20.4027 32.0502 20.3811 32.0434 20.359 32.0432H20.339ZM27.589 32.0432C27.5628 32.0476 27.539 32.0611 27.5219 32.0815C27.5048 32.1019 27.4956 32.1277 27.496 32.1542C27.4958 32.1764 27.5022 32.1981 27.5143 32.2166C27.5265 32.2352 27.5438 32.2497 27.5642 32.2583C27.5846 32.267 27.6071 32.2694 27.6289 32.2653C27.6506 32.2612 27.6707 32.2507 27.6865 32.2351C27.7023 32.2196 27.7131 32.1998 27.7176 32.1781C27.7222 32.1564 27.7201 32.1338 27.7118 32.1133C27.7036 32.0928 27.6894 32.0751 27.6711 32.0627C27.6527 32.0502 27.6311 32.0434 27.609 32.0432H27.589ZM20.339 32.6052C20.3179 32.6087 20.2983 32.6181 20.2823 32.6323C20.2664 32.6466 20.2549 32.6651 20.2491 32.6856C20.2434 32.7062 20.2436 32.728 20.2499 32.7484C20.2561 32.7689 20.268 32.7871 20.2843 32.801C20.3005 32.8148 20.3204 32.8238 20.3416 32.8267C20.3627 32.8297 20.3843 32.8265 20.4037 32.8176C20.4231 32.8087 20.4396 32.7944 20.4511 32.7765C20.4627 32.7585 20.4689 32.7376 20.469 32.7162C20.4685 32.6872 20.4567 32.6595 20.4362 32.639C20.4157 32.6185 20.388 32.6068 20.359 32.6062H20.339V32.6052ZM27.589 32.6052C27.5679 32.6087 27.5483 32.6181 27.5323 32.6323C27.5164 32.6466 27.5049 32.6651 27.4991 32.6856C27.4934 32.7062 27.4936 32.728 27.4999 32.7484C27.5061 32.7689 27.518 32.7871 27.5343 32.801C27.5505 32.8148 27.5704 32.8238 27.5916 32.8267C27.6127 32.8297 27.6343 32.8265 27.6537 32.8176C27.6731 32.8087 27.6896 32.7944 27.7011 32.7765C27.7127 32.7585 27.7189 32.7376 27.719 32.7162C27.7185 32.6872 27.7067 32.6595 27.6862 32.639C27.6657 32.6185 27.638 32.6068 27.609 32.6062H27.589V32.6052ZM20.361 33.1652C20.3459 33.1654 20.3311 33.1685 20.3172 33.1744C20.3034 33.1803 20.2908 33.1889 20.2803 33.1997C20.2698 33.2105 20.2616 33.2232 20.256 33.2372C20.2505 33.2512 20.2477 33.2662 20.248 33.2812C20.248 33.3432 20.298 33.3912 20.361 33.3912C20.3755 33.3914 20.3899 33.3886 20.4034 33.3832C20.4169 33.3777 20.4291 33.3696 20.4394 33.3594C20.4497 33.3492 20.4579 33.337 20.4635 33.3236C20.4691 33.3102 20.472 33.2958 20.472 33.2812C20.4723 33.2513 20.4608 33.2225 20.44 33.201C20.4193 33.1795 20.3909 33.167 20.361 33.1662V33.1652ZM27.611 33.1652C27.5959 33.1654 27.5811 33.1685 27.5672 33.1744C27.5534 33.1803 27.5408 33.1889 27.5303 33.1997C27.5198 33.2105 27.5116 33.2232 27.506 33.2372C27.5005 33.2512 27.4977 33.2662 27.498 33.2812C27.498 33.3432 27.548 33.3912 27.611 33.3912C27.6255 33.3914 27.6399 33.3886 27.6534 33.3832C27.6669 33.3777 27.6791 33.3696 27.6894 33.3594C27.6997 33.3492 27.7079 33.337 27.7135 33.3236C27.7191 33.3102 27.722 33.2958 27.722 33.2812C27.7223 33.2513 27.7108 33.2225 27.69 33.201C27.6693 33.1795 27.6409 33.167 27.611 33.1662V33.1652ZM20.351 33.7282C20.3222 33.73 20.2952 33.7429 20.2756 33.7641C20.256 33.7854 20.2454 33.8134 20.246 33.8422C20.246 33.9042 20.296 33.9542 20.359 33.9532C20.3888 33.9522 20.417 33.9393 20.4374 33.9175C20.4577 33.8956 20.4686 33.8666 20.4675 33.8367C20.4664 33.8069 20.4536 33.7787 20.4317 33.7584C20.4099 33.738 20.3808 33.7272 20.351 33.7282ZM27.601 33.7282C27.5722 33.73 27.5452 33.7429 27.5256 33.7641C27.506 33.7854 27.4954 33.8134 27.496 33.8422C27.496 33.9042 27.546 33.9542 27.609 33.9532C27.6388 33.9522 27.667 33.9393 27.6874 33.9175C27.7077 33.8956 27.7186 33.8666 27.7175 33.8367C27.7164 33.8069 27.7036 33.7787 27.6817 33.7584C27.6599 33.738 27.6308 33.7272 27.601 33.7282ZM24.877 34.2212C24.7524 34.2231 24.6294 34.2496 24.5151 34.2992C24.4008 34.3488 24.2975 34.4205 24.211 34.5102L22.402 36.3672C22.2382 36.5493 22.1512 36.7877 22.1593 37.0325C22.1674 37.2772 22.2699 37.5094 22.4453 37.6803C22.6207 37.8512 22.8554 37.9476 23.1003 37.9492C23.3452 37.9509 23.5813 37.8577 23.759 37.6892L25.568 35.8292C25.655 35.7403 25.7235 35.635 25.7697 35.5195C25.8159 35.4039 25.8388 35.2804 25.8371 35.156C25.8354 35.0316 25.8092 34.9087 25.7599 34.7945C25.7107 34.6802 25.6393 34.5769 25.55 34.4902C25.4611 34.4031 25.3559 34.3345 25.2404 34.2881C25.1249 34.2418 25.0014 34.2187 24.877 34.2202V34.2212ZM20.351 34.2912C20.3217 34.2923 20.2939 34.3048 20.2737 34.3261C20.2535 34.3474 20.2425 34.3758 20.243 34.4052C20.2435 34.4345 20.2556 34.4625 20.2765 34.4831C20.2975 34.5036 20.3256 34.5152 20.355 34.5152C20.3844 34.5152 20.4125 34.5036 20.4335 34.4831C20.4544 34.4625 20.4665 34.4345 20.467 34.4052C20.4675 34.3758 20.4565 34.3474 20.4363 34.3261C20.4161 34.3048 20.3883 34.2923 20.359 34.2912C20.3563 34.2911 20.3537 34.2911 20.351 34.2912ZM27.601 34.2912C27.5717 34.2923 27.5439 34.3048 27.5237 34.3261C27.5035 34.3474 27.4925 34.3758 27.493 34.4052C27.4935 34.4345 27.5056 34.4625 27.5265 34.4831C27.5475 34.5036 27.5756 34.5152 27.605 34.5152C27.6344 34.5152 27.6625 34.5036 27.6835 34.4831C27.7044 34.4625 27.7165 34.4345 27.717 34.4052C27.7175 34.3758 27.7065 34.3474 27.6863 34.3261C27.6661 34.3048 27.6383 34.2923 27.609 34.2912C27.6063 34.2911 27.6037 34.2911 27.601 34.2912ZM20.351 34.8532C20.3212 34.8543 20.293 34.8672 20.2726 34.889C20.2523 34.9109 20.2414 34.9399 20.2425 34.9697C20.2436 34.9996 20.2564 35.0278 20.2783 35.0481C20.3001 35.0685 20.3292 35.0793 20.359 35.0782C20.3738 35.0777 20.3883 35.0743 20.4017 35.0681C20.4152 35.062 20.4273 35.0533 20.4374 35.0425C20.4475 35.0316 20.4553 35.019 20.4605 35.0051C20.4656 34.9912 20.468 34.9765 20.4675 34.9617C20.467 34.947 20.4635 34.9324 20.4574 34.919C20.4513 34.9055 20.4425 34.8934 20.4317 34.8834C20.4209 34.8733 20.4082 34.8654 20.3944 34.8603C20.3805 34.8551 20.3658 34.8527 20.351 34.8532ZM27.601 34.8532C27.5712 34.8543 27.543 34.8672 27.5226 34.889C27.5023 34.9109 27.4914 34.9399 27.4925 34.9697C27.4936 34.9996 27.5064 35.0278 27.5283 35.0481C27.5501 35.0685 27.5792 35.0793 27.609 35.0782C27.6238 35.0777 27.6383 35.0743 27.6517 35.0681C27.6652 35.062 27.6773 35.0533 27.6874 35.0425C27.6975 35.0316 27.7053 35.019 27.7105 35.0051C27.7156 34.9912 27.718 34.9765 27.7175 34.9617C27.717 34.947 27.7135 34.9324 27.7074 34.919C27.7013 34.9055 27.6925 34.8934 27.6817 34.8834C27.6709 34.8733 27.6582 34.8654 27.6444 34.8603C27.6305 34.8551 27.6158 34.8527 27.601 34.8532ZM20.351 35.4162C20.3363 35.4172 20.3219 35.421 20.3087 35.4274C20.2954 35.4339 20.2836 35.4429 20.2739 35.454C20.2641 35.465 20.2566 35.4779 20.2518 35.4919C20.2471 35.5058 20.2451 35.5205 20.246 35.5352C20.2469 35.55 20.2507 35.5643 20.2572 35.5776C20.2637 35.5908 20.2727 35.6026 20.2838 35.6124C20.2948 35.6221 20.3077 35.6296 20.3216 35.6344C20.3355 35.6392 20.3503 35.6412 20.365 35.6402C20.3947 35.6384 20.4225 35.6248 20.4421 35.6025C20.4618 35.5802 20.4719 35.5509 20.47 35.5212C20.4681 35.4915 20.4546 35.4638 20.4322 35.4441C20.4099 35.4244 20.3807 35.4144 20.351 35.4162ZM27.601 35.4162C27.5863 35.4172 27.5719 35.421 27.5587 35.4274C27.5454 35.4339 27.5336 35.4429 27.5239 35.454C27.5141 35.465 27.5066 35.4779 27.5018 35.4919C27.4971 35.5058 27.4951 35.5205 27.496 35.5352C27.4969 35.55 27.5007 35.5643 27.5072 35.5776C27.5137 35.5908 27.5227 35.6026 27.5338 35.6124C27.5448 35.6221 27.5577 35.6296 27.5716 35.6344C27.5855 35.6392 27.6003 35.6412 27.615 35.6402C27.6447 35.6384 27.6725 35.6248 27.6921 35.6025C27.7118 35.5802 27.7219 35.5509 27.72 35.5212C27.7181 35.4915 27.7046 35.4638 27.6822 35.4441C27.6599 35.4244 27.6307 35.4144 27.601 35.4162ZM31.877 35.4942V35.4962C31.7524 35.4981 31.6294 35.5246 31.5151 35.5742C31.4008 35.6238 31.2975 35.6955 31.211 35.7852L29.402 37.6422C29.3149 37.7312 29.2462 37.8366 29.1999 37.9522C29.1537 38.0678 29.1307 38.1915 29.1324 38.316C29.1341 38.4405 29.1603 38.5635 29.2097 38.6778C29.2591 38.7922 29.3305 38.8956 29.42 38.9822C29.6001 39.1573 29.8423 39.2539 30.0935 39.2507C30.3447 39.2475 30.5844 39.1449 30.76 38.9652L32.568 37.1032C32.6551 37.0142 32.7238 36.9089 32.7701 36.7933C32.8163 36.6777 32.8393 36.554 32.8376 36.4295C32.8359 36.305 32.8097 36.182 32.7603 36.0677C32.7109 35.9533 32.6395 35.8499 32.55 35.7632C32.461 35.6763 32.3558 35.6078 32.2403 35.5617C32.1248 35.5155 32.0014 35.4926 31.877 35.4942ZM17.877 35.4962C17.7524 35.4981 17.6294 35.5246 17.5151 35.5742C17.4008 35.6238 17.2975 35.6955 17.211 35.7852L15.402 37.6422C15.3149 37.7312 15.2462 37.8366 15.1999 37.9522C15.1537 38.0678 15.1307 38.1915 15.1324 38.316C15.1341 38.4405 15.1603 38.5635 15.2097 38.6778C15.2591 38.7922 15.3305 38.8956 15.42 38.9822C15.6001 39.1573 15.8423 39.2539 16.0935 39.2507C16.3447 39.2475 16.5844 39.1449 16.76 38.9652L18.568 37.1052C18.6551 37.0162 18.7238 36.9109 18.7701 36.7953C18.8163 36.6797 18.8393 36.556 18.8376 36.4315C18.8359 36.307 18.8097 36.184 18.7603 36.0697C18.7109 35.9553 18.6395 35.8519 18.55 35.7652C18.461 35.6783 18.3558 35.6098 18.2403 35.5637C18.1248 35.5175 18.0014 35.4946 17.877 35.4962ZM20.351 35.9782C20.3212 35.9801 20.2933 35.9937 20.2735 36.0161C20.2537 36.0386 20.2436 36.0679 20.2455 36.0977C20.2474 36.1276 20.261 36.1555 20.2834 36.1752C20.3058 36.195 20.3352 36.2051 20.365 36.2032C20.3948 36.2014 20.4227 36.1878 20.4425 36.1653C20.4623 36.1429 20.4724 36.1136 20.4705 36.0837C20.4686 36.0539 20.455 36.026 20.4326 36.0062C20.4102 35.9865 20.3808 35.9764 20.351 35.9782ZM27.601 35.9782C27.5712 35.9801 27.5433 35.9937 27.5235 36.0161C27.5037 36.0386 27.4936 36.0679 27.4955 36.0977C27.4974 36.1276 27.511 36.1555 27.5334 36.1752C27.5558 36.195 27.5852 36.2051 27.615 36.2032C27.6448 36.2014 27.6727 36.1878 27.6925 36.1653C27.7123 36.1429 27.7224 36.1136 27.7205 36.0837C27.7186 36.0539 27.705 36.026 27.6826 36.0062C27.6602 35.9865 27.6308 35.9764 27.601 35.9782ZM20.351 36.5412C20.3363 36.5422 20.3219 36.546 20.3087 36.5524C20.2954 36.5589 20.2836 36.5679 20.2739 36.579C20.2641 36.59 20.2566 36.6029 20.2518 36.6169C20.2471 36.6308 20.2451 36.6455 20.246 36.6602C20.2469 36.675 20.2507 36.6893 20.2572 36.7026C20.2637 36.7158 20.2727 36.7276 20.2838 36.7374C20.2948 36.7471 20.3077 36.7546 20.3216 36.7594C20.3355 36.7642 20.3503 36.7662 20.365 36.7652C20.3947 36.7634 20.4225 36.7498 20.4421 36.7275C20.4618 36.7052 20.4719 36.6759 20.47 36.6462C20.4681 36.6165 20.4546 36.5888 20.4322 36.5691C20.4099 36.5494 20.3807 36.5394 20.351 36.5412ZM27.601 36.5412C27.5863 36.5422 27.5719 36.546 27.5587 36.5524C27.5454 36.5589 27.5336 36.5679 27.5239 36.579C27.5141 36.59 27.5066 36.6029 27.5018 36.6169C27.4971 36.6308 27.4951 36.6455 27.496 36.6602C27.4969 36.675 27.5007 36.6893 27.5072 36.7026C27.5137 36.7158 27.5227 36.7276 27.5338 36.7374C27.5448 36.7471 27.5577 36.7546 27.5716 36.7594C27.5855 36.7642 27.6003 36.7662 27.615 36.7652C27.6447 36.7634 27.6725 36.7498 27.6921 36.7275C27.7118 36.7052 27.7219 36.6759 27.72 36.6462C27.7181 36.6165 27.7046 36.5888 27.6822 36.5691C27.6599 36.5494 27.6307 36.5394 27.601 36.5412ZM20.339 37.1032C20.3125 37.1074 20.2884 37.121 20.2713 37.1417C20.2542 37.1623 20.2452 37.1884 20.246 37.2152C20.246 37.2772 20.296 37.3272 20.359 37.3262C20.42 37.3262 20.469 37.2762 20.47 37.2152C20.47 37.1542 20.42 37.1052 20.359 37.1032H20.339ZM27.589 37.1032C27.5625 37.1074 27.5384 37.121 27.5213 37.1417C27.5042 37.1623 27.4952 37.1884 27.496 37.2152C27.496 37.2772 27.546 37.3272 27.609 37.3262C27.67 37.3262 27.719 37.2762 27.72 37.2152C27.72 37.1542 27.67 37.1052 27.609 37.1032H27.589ZM20.351 37.6632C20.3217 37.6643 20.2939 37.6768 20.2737 37.6981C20.2535 37.7194 20.2425 37.7478 20.243 37.7772C20.2435 37.8065 20.2556 37.8345 20.2765 37.8551C20.2975 37.8756 20.3256 37.8872 20.355 37.8872C20.3844 37.8872 20.4125 37.8756 20.4335 37.8551C20.4544 37.8345 20.4665 37.8065 20.467 37.7772C20.4675 37.7478 20.4565 37.7194 20.4363 37.6981C20.4161 37.6768 20.3883 37.6643 20.359 37.6632H20.351ZM27.601 37.6632C27.5717 37.6643 27.5439 37.6768 27.5237 37.6981C27.5035 37.7194 27.4925 37.7478 27.493 37.7772C27.4935 37.8065 27.5056 37.8345 27.5265 37.8551C27.5475 37.8756 27.5756 37.8872 27.605 37.8872C27.6344 37.8872 27.6625 37.8756 27.6835 37.8551C27.7044 37.8345 27.7165 37.8065 27.717 37.7772C27.7175 37.7478 27.7065 37.7194 27.6863 37.6981C27.6661 37.6768 27.6383 37.6643 27.609 37.6632H27.601ZM24.877 38.2212C24.7524 38.2231 24.6294 38.2496 24.5151 38.2992C24.4008 38.3488 24.2975 38.4205 24.211 38.5102L22.402 40.3672C22.2382 40.5493 22.1512 40.7877 22.1593 41.0325C22.1674 41.2772 22.2699 41.5094 22.4453 41.6803C22.6207 41.8512 22.8554 41.9476 23.1003 41.9492C23.3452 41.9509 23.5813 41.8577 23.759 41.6892L25.568 39.8292C25.655 39.7403 25.7235 39.635 25.7697 39.5195C25.8159 39.4039 25.8388 39.2804 25.8371 39.156C25.8354 39.0316 25.8092 38.9087 25.7599 38.7945C25.7107 38.6802 25.6393 38.5769 25.55 38.4902C25.4611 38.4031 25.3559 38.3345 25.2404 38.2881C25.1249 38.2418 25.0014 38.2187 24.877 38.2202V38.2212ZM20.351 38.2262C20.3222 38.228 20.2952 38.2409 20.2756 38.2621C20.256 38.2834 20.2454 38.3114 20.246 38.3402C20.246 38.4022 20.296 38.4522 20.359 38.4512C20.42 38.4512 20.469 38.4012 20.47 38.3402C20.4703 38.3248 20.4674 38.3094 20.4615 38.2951C20.4555 38.2808 20.4467 38.2679 20.4355 38.2571C20.4243 38.2464 20.411 38.2382 20.3965 38.2328C20.3819 38.2275 20.3665 38.2253 20.351 38.2262ZM27.601 38.2262C27.5722 38.228 27.5452 38.2409 27.5256 38.2621C27.506 38.2834 27.4954 38.3114 27.496 38.3402C27.496 38.4022 27.546 38.4522 27.609 38.4512C27.67 38.4512 27.719 38.4012 27.72 38.3402C27.7203 38.3248 27.7174 38.3094 27.7115 38.2951C27.7055 38.2808 27.6967 38.2679 27.6855 38.2571C27.6743 38.2464 27.661 38.2382 27.6465 38.2328C27.6319 38.2275 27.6165 38.2253 27.601 38.2262ZM20.351 38.7892C20.3217 38.7903 20.2939 38.8028 20.2737 38.8241C20.2535 38.8454 20.2425 38.8738 20.243 38.9032C20.2435 38.9325 20.2556 38.9605 20.2765 38.9811C20.2975 39.0016 20.3256 39.0132 20.355 39.0132C20.3844 39.0132 20.4125 39.0016 20.4335 38.9811C20.4544 38.9605 20.4665 38.9325 20.467 38.9032C20.4675 38.8738 20.4565 38.8454 20.4363 38.8241C20.4161 38.8028 20.3883 38.7903 20.359 38.7892C20.3563 38.7891 20.3537 38.7891 20.351 38.7892ZM27.601 38.7892C27.5717 38.7903 27.5439 38.8028 27.5237 38.8241C27.5035 38.8454 27.4925 38.8738 27.493 38.9032C27.4935 38.9325 27.5056 38.9605 27.5265 38.9811C27.5475 39.0016 27.5756 39.0132 27.605 39.0132C27.6344 39.0132 27.6625 39.0016 27.6835 38.9811C27.7044 38.9605 27.7165 38.9325 27.717 38.9032C27.7175 38.8738 27.7065 38.8454 27.6863 38.8241C27.6661 38.8028 27.6383 38.7903 27.609 38.7892C27.6063 38.7891 27.6037 38.7891 27.601 38.7892ZM17.877 39.2892C17.7524 39.2911 17.6294 39.3176 17.5151 39.3672C17.4008 39.4168 17.2975 39.4885 17.211 39.5782L15.402 41.4352C15.3149 41.5242 15.2462 41.6296 15.1999 41.7452C15.1537 41.8608 15.1307 41.9845 15.1324 42.109C15.1341 42.2335 15.1603 42.3565 15.2097 42.4708C15.2591 42.5852 15.3305 42.6886 15.42 42.7752C15.6001 42.9503 15.8423 43.0469 16.0935 43.0437C16.3447 43.0405 16.5844 42.9379 16.76 42.7582L18.568 40.8982C18.6551 40.8092 18.7238 40.7039 18.7701 40.5883C18.8163 40.4727 18.8393 40.349 18.8376 40.2245C18.8359 40.1 18.8097 39.977 18.7603 39.8627C18.7109 39.7483 18.6395 39.6449 18.55 39.5582C18.4611 39.4711 18.3559 39.4025 18.2404 39.3561C18.1249 39.3098 18.0014 39.2867 17.877 39.2882V39.2892ZM31.877 39.2892C31.7524 39.2911 31.6294 39.3176 31.5151 39.3672C31.4008 39.4168 31.2975 39.4885 31.211 39.5782L29.402 41.4352C29.3149 41.5242 29.2462 41.6296 29.1999 41.7452C29.1537 41.8608 29.1307 41.9845 29.1324 42.109C29.1341 42.2335 29.1603 42.3565 29.2097 42.4708C29.2591 42.5852 29.3305 42.6886 29.42 42.7752C29.6001 42.9503 29.8423 43.0469 30.0935 43.0437C30.3447 43.0405 30.5844 42.9379 30.76 42.7582L32.568 40.8982C32.6551 40.8092 32.7238 40.7039 32.7701 40.5883C32.8163 40.4727 32.8393 40.349 32.8376 40.2245C32.8359 40.1 32.8097 39.977 32.7603 39.8627C32.7109 39.7483 32.6395 39.6449 32.55 39.5582C32.4611 39.4711 32.3559 39.4025 32.2404 39.3561C32.1249 39.3098 32.0014 39.2867 31.877 39.2882V39.2892ZM20.351 39.3512C20.3212 39.3523 20.293 39.3652 20.2726 39.387C20.2523 39.4089 20.2414 39.4379 20.2425 39.4677C20.2436 39.4976 20.2564 39.5258 20.2783 39.5461C20.3001 39.5665 20.3292 39.5773 20.359 39.5762C20.3738 39.5757 20.3883 39.5723 20.4017 39.5662C20.4152 39.56 20.4273 39.5513 20.4374 39.5405C20.4475 39.5296 20.4553 39.517 20.4605 39.5031C20.4656 39.4893 20.468 39.4745 20.4675 39.4597C20.467 39.445 20.4635 39.4304 20.4574 39.417C20.4513 39.4035 20.4425 39.3914 20.4317 39.3814C20.4209 39.3713 20.4082 39.3634 20.3944 39.3583C20.3805 39.3531 20.3658 39.3507 20.351 39.3512ZM27.601 39.3512C27.5712 39.3523 27.543 39.3652 27.5226 39.387C27.5023 39.4089 27.4914 39.4379 27.4925 39.4677C27.4936 39.4976 27.5064 39.5258 27.5283 39.5461C27.5501 39.5665 27.5792 39.5773 27.609 39.5762C27.6238 39.5757 27.6383 39.5723 27.6517 39.5662C27.6652 39.56 27.6773 39.5513 27.6874 39.5405C27.6975 39.5296 27.7053 39.517 27.7105 39.5031C27.7156 39.4893 27.718 39.4745 27.7175 39.4597C27.717 39.445 27.7135 39.4304 27.7074 39.417C27.7013 39.4035 27.6925 39.3914 27.6817 39.3814C27.6709 39.3713 27.6582 39.3634 27.6444 39.3583C27.6305 39.3531 27.6158 39.3507 27.601 39.3512ZM20.351 39.9142C20.3363 39.9152 20.3219 39.919 20.3087 39.9254C20.2954 39.9319 20.2836 39.9409 20.2739 39.952C20.2641 39.963 20.2566 39.9759 20.2518 39.9898C20.2471 40.0038 20.2451 40.0185 20.246 40.0332C20.2469 40.048 20.2507 40.0623 20.2572 40.0756C20.2637 40.0888 20.2727 40.1006 20.2838 40.1104C20.2948 40.1201 20.3077 40.1276 20.3216 40.1324C20.3355 40.1372 20.3503 40.1392 20.365 40.1382C20.3947 40.1364 20.4225 40.1228 20.4421 40.1005C20.4618 40.0782 20.4719 40.049 20.47 40.0192C20.4681 39.9895 20.4546 39.9618 20.4322 39.9421C20.4099 39.9224 20.3807 39.9124 20.351 39.9142ZM27.601 39.9142C27.5863 39.9152 27.5719 39.919 27.5587 39.9254C27.5454 39.9319 27.5336 39.9409 27.5239 39.952C27.5141 39.963 27.5066 39.9759 27.5018 39.9898C27.4971 40.0038 27.4951 40.0185 27.496 40.0332C27.4969 40.048 27.5007 40.0623 27.5072 40.0756C27.5137 40.0888 27.5227 40.1006 27.5338 40.1104C27.5448 40.1201 27.5577 40.1276 27.5716 40.1324C27.5855 40.1372 27.6003 40.1392 27.615 40.1382C27.6447 40.1364 27.6725 40.1228 27.6921 40.1005C27.7118 40.0782 27.7219 40.049 27.72 40.0192C27.7181 39.9895 27.7046 39.9618 27.6822 39.9421C27.6599 39.9224 27.6307 39.9124 27.601 39.9142ZM20.351 40.4762C20.3212 40.4781 20.2933 40.4917 20.2735 40.5141C20.2537 40.5366 20.2436 40.5659 20.2455 40.5957C20.2474 40.6256 20.261 40.6535 20.2834 40.6732C20.3058 40.693 20.3352 40.7031 20.365 40.7012C20.3948 40.6994 20.4227 40.6858 20.4425 40.6633C20.4623 40.6409 20.4724 40.6116 20.4705 40.5817C20.4686 40.5519 20.455 40.524 20.4326 40.5042C20.4102 40.4845 20.3808 40.4744 20.351 40.4762ZM27.601 40.4762C27.5712 40.4781 27.5433 40.4917 27.5235 40.5141C27.5037 40.5366 27.4936 40.5659 27.4955 40.5957C27.4974 40.6256 27.511 40.6535 27.5334 40.6732C27.5558 40.693 27.5852 40.7031 27.615 40.7012C27.6448 40.6994 27.6727 40.6858 27.6925 40.6633C27.7123 40.6409 27.7224 40.6116 27.7205 40.5817C27.7186 40.5519 27.705 40.524 27.6826 40.5042C27.6602 40.4845 27.6308 40.4744 27.601 40.4762ZM20.339 41.0392C20.3127 41.0434 20.2888 41.0569 20.2717 41.0773C20.2546 41.0977 20.2454 41.1236 20.246 41.1502C20.2458 41.1724 20.2522 41.1941 20.2643 41.2126C20.2765 41.2312 20.2938 41.2457 20.3142 41.2543C20.3346 41.263 20.3571 41.2654 20.3789 41.2613C20.4006 41.2571 20.4207 41.2467 20.4365 41.2311C20.4523 41.2156 20.4631 41.1958 20.4676 41.1741C20.4722 41.1524 20.4701 41.1298 20.4618 41.1093C20.4536 41.0888 20.4394 41.0711 20.4211 41.0587C20.4027 41.0462 20.3811 41.0394 20.359 41.0392H20.339ZM27.589 41.0392C27.5627 41.0434 27.5388 41.0569 27.5217 41.0773C27.5046 41.0977 27.4954 41.1236 27.496 41.1502C27.4958 41.1724 27.5022 41.1941 27.5143 41.2126C27.5265 41.2312 27.5438 41.2457 27.5642 41.2543C27.5846 41.263 27.6071 41.2654 27.6289 41.2613C27.6506 41.2571 27.6707 41.2467 27.6865 41.2311C27.7023 41.2156 27.7131 41.1958 27.7176 41.1741C27.7222 41.1524 27.7201 41.1298 27.7118 41.1093C27.7036 41.0888 27.6894 41.0711 27.6711 41.0587C27.6527 41.0462 27.6311 41.0394 27.609 41.0392H27.589ZM20.339 41.6012C20.3125 41.6054 20.2884 41.619 20.2713 41.6397C20.2542 41.6603 20.2452 41.6865 20.246 41.7132C20.246 41.743 20.2578 41.7714 20.2788 41.7924C20.2998 41.8134 20.3283 41.8252 20.358 41.8252C20.3877 41.8252 20.4162 41.8134 20.4372 41.7924C20.4582 41.7714 20.47 41.743 20.47 41.7132C20.47 41.6512 20.42 41.6032 20.359 41.6012H20.339ZM27.589 41.6012C27.5625 41.6054 27.5384 41.619 27.5213 41.6397C27.5042 41.6603 27.4952 41.6865 27.496 41.7132C27.496 41.743 27.5078 41.7714 27.5288 41.7924C27.5498 41.8134 27.5783 41.8252 27.608 41.8252C27.6377 41.8252 27.6662 41.8134 27.6872 41.7924C27.7082 41.7714 27.72 41.743 27.72 41.7132C27.72 41.6512 27.67 41.6032 27.609 41.6012H27.589ZM20.361 42.1622C20.3462 42.1621 20.3316 42.1649 20.3179 42.1704C20.3042 42.176 20.2917 42.1841 20.2812 42.1945C20.2706 42.2048 20.2622 42.2172 20.2564 42.2308C20.2507 42.2444 20.2476 42.259 20.2475 42.2737C20.2474 42.2885 20.2501 42.3032 20.2557 42.3169C20.2612 42.3306 20.2694 42.343 20.2797 42.3536C20.2901 42.3641 20.3024 42.3725 20.316 42.3783C20.3296 42.3841 20.3442 42.3871 20.359 42.3872C20.3888 42.3875 20.4176 42.3759 20.4388 42.355C20.4601 42.3341 20.4722 42.3056 20.4725 42.2757C20.4728 42.2459 20.4612 42.2172 20.4403 42.1959C20.4193 42.1746 20.3908 42.1625 20.361 42.1622ZM27.611 42.1622C27.5962 42.1621 27.5816 42.1649 27.5679 42.1704C27.5542 42.176 27.5417 42.1841 27.5312 42.1945C27.5206 42.2048 27.5122 42.2172 27.5064 42.2308C27.5007 42.2444 27.4976 42.259 27.4975 42.2737C27.4974 42.2885 27.5001 42.3032 27.5057 42.3169C27.5112 42.3306 27.5194 42.343 27.5297 42.3536C27.5401 42.3641 27.5524 42.3725 27.566 42.3783C27.5796 42.3841 27.5942 42.3871 27.609 42.3872C27.6388 42.3875 27.6676 42.3759 27.6888 42.355C27.7101 42.3341 27.7222 42.3056 27.7225 42.2757C27.7228 42.2459 27.7112 42.2172 27.6903 42.1959C27.6693 42.1746 27.6408 42.1625 27.611 42.1622ZM20.351 42.7252C20.3217 42.7263 20.2939 42.7388 20.2737 42.7601C20.2535 42.7814 20.2425 42.8098 20.243 42.8392C20.2435 42.8685 20.2556 42.8965 20.2765 42.9171C20.2975 42.9376 20.3256 42.9492 20.355 42.9492C20.3844 42.9492 20.4125 42.9376 20.4335 42.9171C20.4544 42.8965 20.4665 42.8685 20.467 42.8392C20.4675 42.8098 20.4565 42.7814 20.4363 42.7601C20.4161 42.7388 20.3883 42.7263 20.359 42.7252C20.3563 42.7251 20.3537 42.7251 20.351 42.7252ZM27.601 42.7252C27.5717 42.7263 27.5439 42.7388 27.5237 42.7601C27.5035 42.7814 27.4925 42.8098 27.493 42.8392C27.4935 42.8685 27.5056 42.8965 27.5265 42.9171C27.5475 42.9376 27.5756 42.9492 27.605 42.9492C27.6344 42.9492 27.6625 42.9376 27.6835 42.9171C27.7044 42.8965 27.7165 42.8685 27.717 42.8392C27.7175 42.8098 27.7065 42.7814 27.6863 42.7601C27.6661 42.7388 27.6383 42.7263 27.609 42.7252C27.6063 42.7251 27.6037 42.7251 27.601 42.7252Z" fill="#333333"/>
</svg>
