<svg width="48" height="48" viewBox="0 0 48 48" fill="none" xmlns="http://www.w3.org/2000/svg">
<g clip-path="url(#clip0)">
<path fill-rule="evenodd" clip-rule="evenodd" d="M0 -0.129883V47.8701H48V-0.129883H0V-0.129883ZM23.83 3.87012C27.12 3.86012 30.47 3.86012 33.85 3.89012C34.72 3.89012 35.42 4.59012 35.42 5.46012V42.3201C35.42 43.1901 34.72 43.8901 33.85 43.8901H14.15C13.28 43.8901 12.58 43.1901 12.58 42.3201V5.46012C12.5787 5.25357 12.6184 5.04882 12.6968 4.85774C12.7752 4.66666 12.8908 4.49305 13.0369 4.347C13.1829 4.20095 13.3565 4.08535 13.5476 4.00692C13.7387 3.92849 13.9435 3.88879 14.15 3.89012L23.83 3.87012V3.87012ZM19.99 4.93012C19.9608 4.93277 19.9339 4.9469 19.9151 4.96941C19.8964 4.99191 19.8873 5.02094 19.89 5.05012C19.8927 5.07929 19.9068 5.10622 19.9293 5.12497C19.9518 5.14372 19.9808 5.15277 20.01 5.15012C20.0244 5.1488 20.0385 5.14466 20.0513 5.13792C20.0642 5.13118 20.0756 5.12197 20.0849 5.11083C20.0941 5.09968 20.1011 5.08682 20.1055 5.07297C20.1098 5.05913 20.1113 5.04456 20.11 5.03012C20.1087 5.01567 20.1045 5.00163 20.0978 4.98878C20.0911 4.97594 20.0819 4.96455 20.0707 4.95526C20.0596 4.94598 20.0467 4.93898 20.0329 4.93466C20.019 4.93035 20.0044 4.9288 19.99 4.93012V4.93012ZM27.99 4.93012C27.9608 4.93277 27.9339 4.9469 27.9151 4.96941C27.8964 4.99191 27.8873 5.02094 27.89 5.05012C27.8927 5.07929 27.9068 5.10622 27.9293 5.12497C27.9518 5.14372 27.9808 5.15277 28.01 5.15012C28.0244 5.1488 28.0385 5.14466 28.0513 5.13792C28.0642 5.13118 28.0756 5.12197 28.0849 5.11083C28.0941 5.09968 28.1011 5.08682 28.1055 5.07297C28.1098 5.05913 28.1113 5.04456 28.11 5.03012C28.1087 5.01567 28.1045 5.00163 28.0978 4.98878C28.0911 4.97594 28.0819 4.96455 28.0707 4.95526C28.0596 4.94598 28.0467 4.93898 28.0329 4.93466C28.019 4.93035 28.0044 4.9288 27.99 4.93012V4.93012ZM19.99 5.49012C19.966 5.48857 19.9422 5.49491 19.9222 5.50817C19.9022 5.52143 19.887 5.54088 19.8791 5.56355C19.8712 5.58622 19.8709 5.61086 19.8783 5.63372C19.8856 5.65657 19.9003 5.67638 19.92 5.69012C19.9371 5.7046 19.9581 5.71353 19.9804 5.71573C20.0026 5.71793 20.0251 5.71328 20.0446 5.70242C20.0642 5.69155 20.0799 5.67498 20.0898 5.65492C20.0997 5.63485 20.1033 5.61225 20.1 5.59012C20.0977 5.56435 20.0865 5.54021 20.0682 5.52192C20.0499 5.50363 20.0258 5.49237 20 5.49012H19.99V5.49012ZM27.99 5.49012C27.966 5.48857 27.9422 5.49491 27.9222 5.50817C27.9022 5.52143 27.887 5.54088 27.8791 5.56355C27.8712 5.58622 27.8709 5.61086 27.8783 5.63372C27.8856 5.65657 27.9003 5.67638 27.92 5.69012C27.9371 5.7046 27.9581 5.71353 27.9804 5.71573C28.0026 5.71793 28.0251 5.71328 28.0446 5.70242C28.0642 5.69155 28.0799 5.67498 28.0898 5.65492C28.0997 5.63485 28.1033 5.61225 28.1 5.59012C28.0977 5.56435 28.0865 5.54021 28.0682 5.52192C28.0499 5.50363 28.0258 5.49237 28 5.49012H27.99V5.49012ZM19.99 6.05012C19.9723 6.05051 19.955 6.05517 19.9395 6.06369C19.924 6.07221 19.9107 6.08435 19.9009 6.09907C19.8911 6.11379 19.885 6.13067 19.8831 6.14826C19.8812 6.16585 19.8836 6.18364 19.89 6.20012C19.8953 6.22929 19.912 6.25516 19.9364 6.27204C19.9607 6.28892 19.9908 6.29542 20.02 6.29012C20.0492 6.28481 20.075 6.26814 20.0919 6.24376C20.1088 6.21938 20.1153 6.18929 20.11 6.16012C20.1075 6.13271 20.0948 6.10724 20.0744 6.08872C20.0541 6.07021 20.0275 6.06 20 6.06012H19.98L19.99 6.05012V6.05012ZM27.99 6.05012C27.9723 6.05051 27.955 6.05517 27.9395 6.06369C27.924 6.07221 27.9107 6.08435 27.9009 6.09907C27.8911 6.11379 27.885 6.13067 27.8831 6.14826C27.8812 6.16585 27.8836 6.18364 27.89 6.20012C27.8953 6.22929 27.912 6.25516 27.9364 6.27204C27.9607 6.28892 27.9908 6.29542 28.02 6.29012C28.0492 6.28481 28.075 6.26814 28.0919 6.24376C28.1088 6.21938 28.1153 6.18929 28.11 6.16012C28.1075 6.13271 28.0948 6.10724 28.0744 6.08872C28.0541 6.07021 28.0275 6.06 28 6.06012H27.98L27.99 6.05012V6.05012ZM24.22 6.35012C24.0099 6.35012 23.8018 6.3915 23.6077 6.47191C23.4136 6.55232 23.2372 6.67017 23.0886 6.81875C22.9401 6.96732 22.8222 7.1437 22.7418 7.33782C22.6614 7.53194 22.62 7.74 22.62 7.95012C22.62 8.16023 22.6614 8.36829 22.7418 8.56241C22.8222 8.75653 22.9401 8.93291 23.0886 9.08149C23.2372 9.23006 23.4136 9.34792 23.6077 9.42832C23.8018 9.50873 24.0099 9.55012 24.22 9.55012C24.6443 9.55012 25.0513 9.38155 25.3514 9.08149C25.6514 8.78143 25.82 8.37446 25.82 7.95012C25.82 7.52577 25.6514 7.1188 25.3514 6.81875C25.0513 6.51869 24.6443 6.35012 24.22 6.35012ZM20 6.60012C19.9695 6.60012 19.9402 6.61223 19.9187 6.6338C19.8971 6.65537 19.885 6.68462 19.885 6.71512C19.885 6.74562 19.8971 6.77487 19.9187 6.79643C19.9402 6.818 19.9695 6.83012 20 6.83012C20.0305 6.83012 20.0598 6.818 20.0813 6.79643C20.1029 6.77487 20.115 6.74562 20.115 6.71512C20.115 6.68462 20.1029 6.65537 20.0813 6.6338C20.0598 6.61223 20.0305 6.60012 20 6.60012ZM28 6.60012C27.9695 6.60012 27.9402 6.61223 27.9187 6.6338C27.8971 6.65537 27.885 6.68462 27.885 6.71512C27.885 6.74562 27.8971 6.77487 27.9187 6.79643C27.9402 6.818 27.9695 6.83012 28 6.83012C28.0305 6.83012 28.0598 6.818 28.0813 6.79643C28.1029 6.77487 28.115 6.74562 28.115 6.71512C28.115 6.68462 28.1029 6.65537 28.0813 6.6338C28.0598 6.61223 28.0305 6.60012 28 6.60012V6.60012ZM20 7.17012C19.9708 7.17012 19.9428 7.18171 19.9222 7.20234C19.9016 7.22296 19.89 7.25094 19.89 7.28012C19.89 7.30929 19.9016 7.33727 19.9222 7.3579C19.9428 7.37853 19.9708 7.39012 20 7.39012C20.0292 7.39012 20.0572 7.37853 20.0778 7.3579C20.0984 7.33727 20.11 7.30929 20.11 7.28012C20.11 7.25094 20.0984 7.22296 20.0778 7.20234C20.0572 7.18171 20.0292 7.17012 20 7.17012V7.17012ZM28 7.17012C27.9708 7.17012 27.9428 7.18171 27.9222 7.20234C27.9016 7.22296 27.89 7.25094 27.89 7.28012C27.89 7.30929 27.9016 7.33727 27.9222 7.3579C27.9428 7.37853 27.9708 7.39012 28 7.39012C28.0292 7.39012 28.0572 7.37853 28.0778 7.3579C28.0984 7.33727 28.11 7.30929 28.11 7.28012C28.11 7.25094 28.0984 7.22296 28.0778 7.20234C28.0572 7.18171 28.0292 7.17012 28 7.17012V7.17012ZM20 7.73012C19.9708 7.73012 19.9428 7.74171 19.9222 7.76234C19.9016 7.78296 19.89 7.81094 19.89 7.84012C19.89 7.86929 19.9016 7.89727 19.9222 7.9179C19.9428 7.93853 19.9708 7.95012 20 7.95012C20.0292 7.95012 20.0572 7.93853 20.0778 7.9179C20.0984 7.89727 20.11 7.86929 20.11 7.84012C20.11 7.81094 20.0984 7.78296 20.0778 7.76234C20.0572 7.74171 20.0292 7.73012 20 7.73012V7.73012ZM28 7.73012C27.9708 7.73012 27.9428 7.74171 27.9222 7.76234C27.9016 7.78296 27.89 7.81094 27.89 7.84012C27.89 7.86929 27.9016 7.89727 27.9222 7.9179C27.9428 7.93853 27.9708 7.95012 28 7.95012C28.0292 7.95012 28.0572 7.93853 28.0778 7.9179C28.0984 7.89727 28.11 7.86929 28.11 7.84012C28.11 7.81094 28.0984 7.78296 28.0778 7.76234C28.0572 7.74171 28.0292 7.73012 28 7.73012V7.73012ZM20 8.29012C19.9708 8.29012 19.9428 8.30171 19.9222 8.32234C19.9016 8.34296 19.89 8.37094 19.89 8.40012C19.89 8.42929 19.9016 8.45727 19.9222 8.4779C19.9428 8.49853 19.9708 8.51012 20 8.51012C20.0292 8.51012 20.0572 8.49853 20.0778 8.4779C20.0984 8.45727 20.11 8.42929 20.11 8.40012C20.11 8.37094 20.0984 8.34296 20.0778 8.32234C20.0572 8.30171 20.0292 8.29012 20 8.29012V8.29012ZM28 8.29012C27.9708 8.29012 27.9428 8.30171 27.9222 8.32234C27.9016 8.34296 27.89 8.37094 27.89 8.40012C27.89 8.42929 27.9016 8.45727 27.9222 8.4779C27.9428 8.49853 27.9708 8.51012 28 8.51012C28.0292 8.51012 28.0572 8.49853 28.0778 8.4779C28.0984 8.45727 28.11 8.42929 28.11 8.40012C28.11 8.37094 28.0984 8.34296 28.0778 8.32234C28.0572 8.30171 28.0292 8.29012 28 8.29012V8.29012ZM20 8.85012C19.9751 8.84569 19.9494 8.84999 19.9273 8.86227C19.9052 8.87456 19.888 8.89409 19.8786 8.91757C19.8692 8.94105 19.8682 8.96705 19.8758 8.9912C19.8833 9.01534 19.8989 9.03615 19.92 9.05012C19.9371 9.0646 19.9581 9.07353 19.9804 9.07573C20.0026 9.07793 20.0251 9.07328 20.0446 9.06242C20.0642 9.05155 20.0799 9.03498 20.0898 9.01492C20.0997 8.99485 20.1033 8.97225 20.1 8.95012C20.0977 8.92435 20.0865 8.9002 20.0682 8.88192C20.0499 8.86363 20.0258 8.85237 20 8.85012V8.85012ZM28 8.85012C27.9751 8.84569 27.9494 8.84999 27.9273 8.86227C27.9052 8.87456 27.888 8.89409 27.8786 8.91757C27.8692 8.94105 27.8682 8.96705 27.8758 8.9912C27.8833 9.01534 27.8989 9.03615 27.92 9.05012C27.9371 9.0646 27.9581 9.07353 27.9804 9.07573C28.0026 9.07793 28.0251 9.07328 28.0446 9.06242C28.0642 9.05155 28.0799 9.03498 28.0898 9.01492C28.0997 8.99485 28.1033 8.97225 28.1 8.95012C28.0977 8.92435 28.0865 8.9002 28.0682 8.88192C28.0499 8.86363 28.0258 8.85237 28 8.85012V8.85012ZM20 9.41012C19.9695 9.41012 19.9402 9.42223 19.9187 9.4438C19.8971 9.46537 19.885 9.49462 19.885 9.52512C19.885 9.55562 19.8971 9.58487 19.9187 9.60643C19.9402 9.628 19.9695 9.64012 20 9.64012C20.0305 9.64012 20.0598 9.628 20.0813 9.60643C20.1029 9.58487 20.115 9.55562 20.115 9.52512C20.115 9.49462 20.1029 9.46537 20.0813 9.4438C20.0598 9.42223 20.0305 9.41012 20 9.41012V9.41012ZM28 9.41012C27.9695 9.41012 27.9402 9.42223 27.9187 9.4438C27.8971 9.46537 27.885 9.49462 27.885 9.52512C27.885 9.55562 27.8971 9.58487 27.9187 9.60643C27.9402 9.628 27.9695 9.64012 28 9.64012C28.0305 9.64012 28.0598 9.628 28.0813 9.60643C28.1029 9.58487 28.115 9.55562 28.115 9.52512C28.115 9.49462 28.1029 9.46537 28.0813 9.4438C28.0598 9.42223 28.0305 9.41012 28 9.41012V9.41012ZM19.98 9.98012C19.9526 9.98262 19.9271 9.9953 19.9086 10.0157C19.8901 10.036 19.8799 10.0626 19.88 10.0901C19.878 10.1064 19.8796 10.1229 19.8848 10.1385C19.89 10.1541 19.8986 10.1683 19.91 10.1801C19.9187 10.194 19.9305 10.2058 19.9444 10.2145C19.9583 10.2233 19.9739 10.2288 19.9902 10.2307C20.0065 10.2327 20.023 10.2309 20.0386 10.2256C20.0541 10.2203 20.0683 10.2116 20.08 10.2001C20.096 10.1837 20.1065 10.1628 20.11 10.1401V10.0901C20.11 10.0609 20.0984 10.033 20.0778 10.0123C20.0572 9.99171 20.0292 9.98012 20 9.98012H19.98V9.98012ZM27.98 9.98012C27.9526 9.98262 27.9271 9.9953 27.9086 10.0157C27.8901 10.036 27.8799 10.0626 27.88 10.0901C27.878 10.1064 27.8796 10.1229 27.8848 10.1385C27.89 10.1541 27.8986 10.1683 27.91 10.1801C27.9187 10.194 27.9305 10.2058 27.9444 10.2145C27.9583 10.2233 27.9739 10.2288 27.9902 10.2307C28.0065 10.2327 28.023 10.2309 28.0386 10.2256C28.0541 10.2203 28.0683 10.2116 28.08 10.2001C28.096 10.1837 28.1065 10.1628 28.11 10.1401V10.0901C28.11 10.0609 28.0984 10.033 28.0778 10.0123C28.0572 9.99171 28.0292 9.98012 28 9.98012H27.98V9.98012ZM20 10.5401C19.9853 10.5395 19.9707 10.5419 19.957 10.547C19.9432 10.5522 19.9307 10.56 19.92 10.5701C19.9005 10.5922 19.8898 10.6207 19.89 10.6501C19.8904 10.6696 19.8959 10.6886 19.906 10.7052C19.9161 10.7219 19.9304 10.7355 19.9475 10.7448C19.9647 10.7541 19.9839 10.7586 20.0034 10.758C20.0228 10.7574 20.0418 10.7517 20.0583 10.7414C20.0748 10.7311 20.0883 10.7165 20.0973 10.6993C20.1064 10.6821 20.1107 10.6628 20.1099 10.6433C20.109 10.6239 20.1031 10.605 20.0925 10.5886C20.082 10.5723 20.0673 10.559 20.05 10.5501C20.0374 10.5443 20.0238 10.5409 20.01 10.5401H20ZM28 10.5401C27.9853 10.5395 27.9707 10.5419 27.957 10.547C27.9432 10.5522 27.9307 10.56 27.92 10.5701C27.9005 10.5922 27.8898 10.6207 27.89 10.6501C27.8904 10.6696 27.8959 10.6886 27.906 10.7052C27.9161 10.7219 27.9304 10.7355 27.9475 10.7448C27.9647 10.7541 27.9839 10.7586 28.0034 10.758C28.0228 10.7574 28.0418 10.7517 28.0583 10.7414C28.0748 10.7311 28.0883 10.7165 28.0973 10.6993C28.1064 10.6821 28.1107 10.6628 28.1099 10.6433C28.109 10.6239 28.1031 10.605 28.0925 10.5886C28.082 10.5723 28.0673 10.559 28.05 10.5501C28.0374 10.5443 28.0238 10.5409 28.01 10.5401H28ZM20 11.1001C19.9766 11.0985 19.9533 11.1045 19.9335 11.1171C19.9137 11.1297 19.8985 11.1482 19.89 11.1701C19.8801 11.1921 19.8776 11.2167 19.883 11.2402C19.8885 11.2637 19.9014 11.2847 19.92 11.3001C19.94 11.3201 19.97 11.3201 20 11.3201C20.0292 11.3201 20.0572 11.3085 20.0778 11.2879C20.0984 11.2673 20.11 11.2393 20.11 11.2101C20.11 11.1809 20.0984 11.153 20.0778 11.1323C20.0572 11.1117 20.0292 11.1001 20 11.1001V11.1001ZM28 11.1001C27.9766 11.0985 27.9533 11.1045 27.9335 11.1171C27.9137 11.1297 27.8985 11.1482 27.89 11.1701C27.8801 11.1921 27.8776 11.2167 27.883 11.2402C27.8885 11.2637 27.9014 11.2847 27.92 11.3001C27.94 11.3201 27.97 11.3201 28 11.3201C28.0292 11.3201 28.0572 11.3085 28.0778 11.2879C28.0984 11.2673 28.11 11.2393 28.11 11.2101C28.11 11.1809 28.0984 11.153 28.0778 11.1323C28.0572 11.1117 28.0292 11.1001 28 11.1001V11.1001ZM16.75 11.5001C16.434 11.5001 16.125 11.5937 15.8621 11.7691C15.5992 11.9445 15.3942 12.1938 15.2728 12.4855C15.1514 12.7773 15.1191 13.0985 15.1801 13.4086C15.241 13.7187 15.3924 14.0038 15.6151 14.228C15.8379 14.4521 16.1221 14.6053 16.4318 14.6681C16.7415 14.731 17.0629 14.7007 17.3554 14.5812C17.6479 14.4616 17.8985 14.2581 18.0755 13.9963C18.2525 13.7345 18.348 13.4261 18.35 13.1101C18.35 12.6858 18.1814 12.2788 17.8814 11.9787C17.5813 11.6787 17.1743 11.5101 16.75 11.5101V11.5001ZM24.22 11.5001C23.904 11.5001 23.595 11.5937 23.3321 11.7691C23.0692 11.9445 22.8642 12.1938 22.7428 12.4855C22.6214 12.7773 22.5891 13.0985 22.6501 13.4086C22.711 13.7187 22.8624 14.0038 23.0851 14.228C23.3079 14.4521 23.5921 14.6053 23.9018 14.6681C24.2115 14.731 24.5329 14.7007 24.8254 14.5812C25.1179 14.4616 25.3685 14.2581 25.5455 13.9963C25.7225 13.7345 25.818 13.4261 25.82 13.1101C25.82 12.6858 25.6514 12.2788 25.3514 11.9787C25.0513 11.6787 24.6443 11.5101 24.22 11.5101V11.5001ZM31.6 11.5001C31.284 11.5001 30.975 11.5937 30.7121 11.7691C30.4492 11.9445 30.2442 12.1938 30.1228 12.4855C30.0014 12.7773 29.9691 13.0985 30.0301 13.4086C30.091 13.7187 30.2424 14.0038 30.4651 14.228C30.6879 14.4521 30.9721 14.6053 31.2818 14.6681C31.5915 14.731 31.9129 14.7007 32.2054 14.5812C32.4979 14.4616 32.7485 14.2581 32.9255 13.9963C33.1025 13.7345 33.198 13.4261 33.2 13.1101C33.2 12.6858 33.0314 12.2788 32.7314 11.9787C32.4313 11.6787 32.0243 11.5101 31.6 11.5101V11.5001V11.5001ZM20 11.6601C19.9695 11.6601 19.9402 11.6722 19.9187 11.6938C19.8971 11.7154 19.885 11.7446 19.885 11.7751C19.885 11.8056 19.8971 11.8349 19.9187 11.8564C19.9402 11.878 19.9695 11.8901 20 11.8901C20.025 11.894 20.0506 11.8892 20.0724 11.8765C20.0943 11.8637 20.1111 11.8438 20.12 11.8201C20.1289 11.7971 20.1298 11.7718 20.1225 11.7482C20.1152 11.7246 20.1003 11.7042 20.08 11.6901C20.0682 11.6787 20.054 11.6701 20.0384 11.6649C20.0228 11.6597 20.0063 11.6581 19.99 11.6601H20ZM28 11.6601C27.9695 11.6601 27.9402 11.6722 27.9187 11.6938C27.8971 11.7154 27.885 11.7446 27.885 11.7751C27.885 11.8056 27.8971 11.8349 27.9187 11.8564C27.9402 11.878 27.9695 11.8901 28 11.8901C28.025 11.894 28.0506 11.8892 28.0724 11.8765C28.0943 11.8637 28.1111 11.8438 28.12 11.8201C28.1289 11.7971 28.1298 11.7718 28.1225 11.7482C28.1152 11.7246 28.1003 11.7042 28.08 11.6901C28.0682 11.6787 28.054 11.6701 28.0384 11.6649C28.0228 11.6597 28.0063 11.6581 27.99 11.6601H28ZM20 12.2201C19.9695 12.2201 19.9402 12.2322 19.9187 12.2538C19.8971 12.2754 19.885 12.3046 19.885 12.3351C19.885 12.3656 19.8971 12.3949 19.9187 12.4164C19.9402 12.438 19.9695 12.4501 20 12.4501C20.0198 12.4527 20.0398 12.4493 20.0576 12.4404C20.0755 12.4315 20.0902 12.4175 20.1 12.4001C20.1108 12.3838 20.1165 12.3647 20.1165 12.3451C20.1165 12.3256 20.1108 12.3064 20.1 12.2901C20.0921 12.2699 20.0784 12.2524 20.0606 12.24C20.0428 12.2275 20.0217 12.2206 20 12.2201ZM28 12.2201C27.9695 12.2201 27.9402 12.2322 27.9187 12.2538C27.8971 12.2754 27.885 12.3046 27.885 12.3351C27.885 12.3656 27.8971 12.3949 27.9187 12.4164C27.9402 12.438 27.9695 12.4501 28 12.4501C28.0198 12.4527 28.0398 12.4493 28.0576 12.4404C28.0755 12.4315 28.0902 12.4175 28.1 12.4001C28.1108 12.3838 28.1165 12.3647 28.1165 12.3451C28.1165 12.3256 28.1108 12.3064 28.1 12.2901C28.0921 12.2699 28.0784 12.2524 28.0606 12.24C28.0428 12.2275 28.0217 12.2206 28 12.2201V12.2201ZM20 12.7901C19.9783 12.7906 19.9572 12.7975 19.9394 12.81C19.9216 12.8224 19.9079 12.8399 19.9 12.8601C19.8937 12.8743 19.8904 12.8896 19.8904 12.9051C19.8904 12.9206 19.8937 12.936 19.9 12.9501C19.905 12.9639 19.913 12.9764 19.9233 12.9868C19.9337 12.9972 19.9462 13.0051 19.96 13.0101H20.01C20.0329 13.0089 20.0549 13.0005 20.0728 12.9862C20.0908 12.9718 20.1038 12.9522 20.11 12.9301C20.1152 12.9125 20.1158 12.894 20.112 12.8761C20.1081 12.8581 20.0999 12.8415 20.088 12.8276C20.076 12.8137 20.0608 12.803 20.0437 12.7964C20.0266 12.7899 20.0082 12.7877 19.99 12.7901H20ZM28 12.7901C27.9783 12.7906 27.9572 12.7975 27.9394 12.81C27.9216 12.8224 27.9079 12.8399 27.9 12.8601C27.8937 12.8743 27.8904 12.8896 27.8904 12.9051C27.8904 12.9206 27.8937 12.936 27.9 12.9501C27.905 12.9639 27.913 12.9764 27.9233 12.9868C27.9337 12.9972 27.9462 13.0051 27.96 13.0101H28.01C28.0329 13.0089 28.0549 13.0005 28.0728 12.9862C28.0908 12.9718 28.1038 12.9522 28.11 12.9301C28.1152 12.9125 28.1158 12.894 28.112 12.8761C28.1081 12.8581 28.0999 12.8415 28.088 12.8276C28.076 12.8137 28.0608 12.803 28.0437 12.7964C28.0266 12.7899 28.0082 12.7877 27.99 12.7901H28ZM20 13.3501C19.9846 13.3508 19.9695 13.3547 19.9558 13.3616C19.942 13.3685 19.9298 13.3782 19.92 13.3901C19.9039 13.4051 19.8933 13.425 19.8897 13.4467C19.886 13.4684 19.8897 13.4907 19.9 13.5101C19.9088 13.5312 19.9244 13.5486 19.9444 13.5595C19.9644 13.5704 19.9876 13.5741 20.01 13.5701C20.0329 13.5689 20.0549 13.5605 20.0728 13.5462C20.0908 13.5318 20.1038 13.5122 20.11 13.4901C20.1152 13.4725 20.1158 13.454 20.112 13.4361C20.1081 13.4181 20.0999 13.4015 20.088 13.3876C20.076 13.3737 20.0608 13.363 20.0437 13.3564C20.0266 13.3499 20.0082 13.3477 19.99 13.3501H20V13.3501ZM28 13.3501C27.9846 13.3508 27.9695 13.3547 27.9558 13.3616C27.942 13.3685 27.9298 13.3782 27.92 13.3901C27.9039 13.4051 27.8933 13.425 27.8897 13.4467C27.886 13.4684 27.8897 13.4907 27.9 13.5101C27.9088 13.5312 27.9244 13.5486 27.9444 13.5595C27.9644 13.5704 27.9876 13.5741 28.01 13.5701C28.0329 13.5689 28.0549 13.5605 28.0728 13.5462C28.0908 13.5318 28.1038 13.5122 28.11 13.4901C28.1152 13.4725 28.1158 13.454 28.112 13.4361C28.1081 13.4181 28.0999 13.4015 28.088 13.3876C28.076 13.3737 28.0608 13.363 28.0437 13.3564C28.0266 13.3499 28.0082 13.3477 27.99 13.3501H28V13.3501ZM20 13.9101C19.9766 13.9096 19.9538 13.9174 19.9355 13.932C19.9172 13.9466 19.9047 13.9672 19.9 13.9901C19.89 14.0158 19.89 14.0444 19.9 14.0701C19.905 14.0839 19.913 14.0964 19.9233 14.1068C19.9337 14.1172 19.9462 14.1251 19.96 14.1301H20.01C20.0307 14.1274 20.0502 14.1188 20.0663 14.1053C20.0823 14.0919 20.0941 14.0741 20.1004 14.0542C20.1067 14.0343 20.1072 14.0129 20.1018 13.9927C20.0964 13.9725 20.0854 13.9543 20.07 13.9401C20.0593 13.93 20.0468 13.9222 20.033 13.917C20.0193 13.9119 20.0047 13.9095 19.99 13.9101H20V13.9101ZM28 13.9101C27.9766 13.9096 27.9538 13.9174 27.9355 13.932C27.9172 13.9466 27.9047 13.9672 27.9 13.9901C27.89 14.0158 27.89 14.0444 27.9 14.0701C27.905 14.0839 27.913 14.0964 27.9233 14.1068C27.9337 14.1172 27.9462 14.1251 27.96 14.1301H28.01C28.0307 14.1274 28.0502 14.1188 28.0663 14.1053C28.0823 14.0919 28.0941 14.0741 28.1004 14.0542C28.1067 14.0343 28.1072 14.0129 28.1018 13.9927C28.0964 13.9725 28.0854 13.9543 28.07 13.9401C28.0593 13.93 28.0468 13.9222 28.033 13.917C28.0193 13.9119 28.0047 13.9095 27.99 13.9101H28V13.9101ZM19.98 14.4701C19.9571 14.4713 19.9351 14.4797 19.9172 14.4941C19.8992 14.5084 19.8862 14.528 19.88 14.5501C19.8755 14.5639 19.874 14.5785 19.8757 14.593C19.8774 14.6074 19.8822 14.6213 19.8899 14.6337C19.8975 14.646 19.9077 14.6566 19.9198 14.6646C19.9319 14.6726 19.9456 14.6779 19.96 14.6801C19.9793 14.6856 19.9998 14.6858 20.0192 14.6805C20.0386 14.6752 20.0562 14.6647 20.07 14.6501C20.0836 14.6337 20.0921 14.6137 20.0945 14.5925C20.097 14.5713 20.0932 14.5499 20.0836 14.5308C20.0741 14.5117 20.0592 14.4958 20.0408 14.4851C20.0224 14.4743 20.0013 14.4691 19.98 14.4701V14.4701ZM27.98 14.4701C27.9571 14.4713 27.9351 14.4797 27.9172 14.4941C27.8992 14.5084 27.8862 14.528 27.88 14.5501C27.8755 14.5639 27.874 14.5785 27.8757 14.593C27.8774 14.6074 27.8822 14.6213 27.8899 14.6337C27.8975 14.646 27.9077 14.6566 27.9198 14.6646C27.9319 14.6726 27.9456 14.6779 27.96 14.6801C27.9793 14.6856 27.9998 14.6858 28.0192 14.6805C28.0386 14.6752 28.0562 14.6647 28.07 14.6501C28.0836 14.6337 28.0921 14.6137 28.0945 14.5925C28.097 14.5713 28.0932 14.5499 28.0836 14.5308C28.0741 14.5117 28.0592 14.4958 28.0408 14.4851C28.0224 14.4743 28.0013 14.4691 27.98 14.4701V14.4701ZM19.98 15.0401C19.9571 15.0413 19.9351 15.0497 19.9172 15.0641C19.8992 15.0784 19.8862 15.098 19.88 15.1201C19.8745 15.1428 19.8764 15.1667 19.8854 15.1883C19.8944 15.2099 19.91 15.228 19.93 15.2401C19.9471 15.2546 19.9681 15.2635 19.9904 15.2657C20.0126 15.2679 20.0351 15.2633 20.0546 15.2524C20.0742 15.2416 20.0899 15.225 20.0998 15.2049C20.1097 15.1849 20.1133 15.1622 20.11 15.1401C20.1075 15.1127 20.0948 15.0872 20.0744 15.0687C20.0541 15.0502 20.0275 15.04 20 15.0401H19.98ZM27.98 15.0401C27.9571 15.0413 27.9351 15.0497 27.9172 15.0641C27.8992 15.0784 27.8862 15.098 27.88 15.1201C27.8745 15.1428 27.8764 15.1667 27.8854 15.1883C27.8944 15.2099 27.91 15.228 27.93 15.2401C27.9471 15.2546 27.9681 15.2635 27.9904 15.2657C28.0126 15.2679 28.0351 15.2633 28.0546 15.2524C28.0742 15.2416 28.0899 15.225 28.0998 15.2049C28.1097 15.1849 28.1133 15.1622 28.11 15.1401C28.1075 15.1127 28.0948 15.0872 28.0744 15.0687C28.0541 15.0502 28.0275 15.04 28 15.0401H27.98ZM20 15.6001C19.9777 15.5977 19.9553 15.6022 19.9356 15.6129C19.916 15.6236 19.9 15.6401 19.89 15.6601C19.8801 15.6821 19.8776 15.7067 19.883 15.7302C19.8885 15.7537 19.9014 15.7747 19.92 15.7901C19.9307 15.8002 19.9432 15.808 19.957 15.8132C19.9707 15.8184 19.9853 15.8207 20 15.8201C20.0292 15.8201 20.0572 15.8085 20.0778 15.7879C20.0984 15.7673 20.11 15.7393 20.11 15.7101C20.11 15.6809 20.0984 15.653 20.0778 15.6323C20.0572 15.6117 20.0292 15.6001 20 15.6001V15.6001ZM28 15.6001C27.9777 15.5977 27.9553 15.6022 27.9356 15.6129C27.916 15.6236 27.9 15.6401 27.89 15.6601C27.8801 15.6821 27.8776 15.7067 27.883 15.7302C27.8885 15.7537 27.9014 15.7747 27.92 15.7901C27.9307 15.8002 27.9432 15.808 27.957 15.8132C27.9707 15.8184 27.9853 15.8207 28 15.8201C28.0292 15.8201 28.0572 15.8085 28.0778 15.7879C28.0984 15.7673 28.11 15.7393 28.11 15.7101C28.11 15.6809 28.0984 15.653 28.0778 15.6323C28.0572 15.6117 28.0292 15.6001 28 15.6001V15.6001ZM20 16.1601C19.9708 16.1601 19.9428 16.1717 19.9222 16.1923C19.9016 16.213 19.89 16.2409 19.89 16.2701C19.89 16.3301 19.94 16.3901 20 16.3801C20.0198 16.3827 20.0398 16.3793 20.0576 16.3704C20.0755 16.3615 20.0902 16.3475 20.1 16.3301C20.1112 16.3143 20.1181 16.2958 20.1198 16.2765C20.1216 16.2571 20.1182 16.2377 20.11 16.2201C20.1034 16.2056 20.0937 16.1928 20.0816 16.1824C20.0695 16.1721 20.0553 16.1645 20.04 16.1601H19.99H20V16.1601ZM28 16.1601C27.9708 16.1601 27.9428 16.1717 27.9222 16.1923C27.9016 16.213 27.89 16.2409 27.89 16.2701C27.89 16.3301 27.94 16.3901 28 16.3801C28.0198 16.3827 28.0398 16.3793 28.0576 16.3704C28.0755 16.3615 28.0902 16.3475 28.1 16.3301C28.1112 16.3143 28.1181 16.2958 28.1198 16.2765C28.1216 16.2571 28.1182 16.2377 28.11 16.2201C28.1034 16.2056 28.0937 16.1928 28.0816 16.1824C28.0695 16.1721 28.0553 16.1645 28.04 16.1601H27.99H28V16.1601ZM20 16.7201C19.9766 16.7196 19.9538 16.7274 19.9355 16.742C19.9172 16.7566 19.9047 16.7772 19.9 16.8001C19.89 16.8258 19.89 16.8544 19.9 16.8801C19.905 16.8939 19.913 16.9064 19.9233 16.9168C19.9337 16.9272 19.9462 16.9351 19.96 16.9401H20.01C20.0307 16.9374 20.0502 16.9288 20.0663 16.9153C20.0823 16.9019 20.0941 16.8841 20.1004 16.8642C20.1067 16.8443 20.1072 16.8229 20.1018 16.8027C20.0964 16.7825 20.0854 16.7643 20.07 16.7501C20.0593 16.74 20.0468 16.7322 20.033 16.727C20.0193 16.7219 20.0047 16.7195 19.99 16.7201H20V16.7201ZM28 16.7201C27.9766 16.7196 27.9538 16.7274 27.9355 16.742C27.9172 16.7566 27.9047 16.7772 27.9 16.8001C27.89 16.8258 27.89 16.8544 27.9 16.8801C27.905 16.8939 27.913 16.9064 27.9233 16.9168C27.9337 16.9272 27.9462 16.9351 27.96 16.9401H28.01C28.0307 16.9374 28.0502 16.9288 28.0663 16.9153C28.0823 16.9019 28.0941 16.8841 28.1004 16.8642C28.1067 16.8443 28.1072 16.8229 28.1018 16.8027C28.0964 16.7825 28.0854 16.7643 28.07 16.7501C28.0593 16.74 28.0468 16.7322 28.033 16.727C28.0193 16.7219 28.0047 16.7195 27.99 16.7201H28V16.7201ZM16.75 16.7501C16.3257 16.7501 15.9187 16.9187 15.6186 17.2187C15.3186 17.5188 15.15 17.9258 15.15 18.3501C15.15 18.7745 15.3186 19.1814 15.6186 19.4815C15.9187 19.7815 16.3257 19.9501 16.75 19.9501C17.1743 19.9501 17.5813 19.7815 17.8814 19.4815C18.1814 19.1814 18.35 18.7745 18.35 18.3501C18.35 17.9258 18.1814 17.5188 17.8814 17.2187C17.5813 16.9187 17.1743 16.7501 16.75 16.7501ZM24.22 16.7501C23.7957 16.7501 23.3887 16.9187 23.0886 17.2187C22.7886 17.5188 22.62 17.9258 22.62 18.3501C22.62 18.7745 22.7886 19.1814 23.0886 19.4815C23.3887 19.7815 23.7957 19.9501 24.22 19.9501C24.6443 19.9501 25.0513 19.7815 25.3514 19.4815C25.6514 19.1814 25.82 18.7745 25.82 18.3501C25.82 17.9258 25.6514 17.5188 25.3514 17.2187C25.0513 16.9187 24.6443 16.7501 24.22 16.7501ZM31.6 16.7501C31.1757 16.7501 30.7687 16.9187 30.4686 17.2187C30.1686 17.5188 30 17.9258 30 18.3501C30 18.7745 30.1686 19.1814 30.4686 19.4815C30.7687 19.7815 31.1757 19.9501 31.6 19.9501C32.0243 19.9501 32.4313 19.7815 32.7314 19.4815C33.0314 19.1814 33.2 18.7745 33.2 18.3501C33.2 17.9258 33.0314 17.5188 32.7314 17.2187C32.4313 16.9187 32.0243 16.7501 31.6 16.7501V16.7501ZM20 17.3001C19.9846 17.3008 19.9695 17.3047 19.9558 17.3116C19.942 17.3185 19.9298 17.3282 19.92 17.3401C19.9039 17.3551 19.8933 17.375 19.8897 17.3967C19.886 17.4184 19.8897 17.4407 19.9 17.4601C19.9088 17.4812 19.9244 17.4986 19.9444 17.5095C19.9644 17.5204 19.9876 17.5241 20.01 17.5201C20.0329 17.5189 20.0549 17.5105 20.0728 17.4962C20.0908 17.4818 20.1038 17.4622 20.11 17.4401C20.1152 17.4225 20.1158 17.404 20.112 17.3861C20.1081 17.3681 20.0999 17.3515 20.088 17.3376C20.076 17.3237 20.0608 17.313 20.0437 17.3064C20.0266 17.2999 20.0082 17.2977 19.99 17.3001H20ZM28 17.3001C27.9846 17.3008 27.9695 17.3047 27.9558 17.3116C27.942 17.3185 27.9298 17.3282 27.92 17.3401C27.9039 17.3551 27.8933 17.375 27.8897 17.3967C27.886 17.4184 27.8897 17.4407 27.9 17.4601C27.9088 17.4812 27.9244 17.4986 27.9444 17.5095C27.9644 17.5204 27.9876 17.5241 28.01 17.5201C28.0329 17.5189 28.0549 17.5105 28.0728 17.4962C28.0908 17.4818 28.1038 17.4622 28.11 17.4401C28.1152 17.4225 28.1158 17.404 28.112 17.3861C28.1081 17.3681 28.0999 17.3515 28.088 17.3376C28.076 17.3237 28.0608 17.313 28.0437 17.3064C28.0266 17.2999 28.0082 17.2977 27.99 17.3001H28ZM20 17.8601C19.9846 17.8608 19.9695 17.8647 19.9558 17.8716C19.942 17.8785 19.9298 17.8882 19.92 17.9001C19.9039 17.9151 19.8933 17.935 19.8897 17.9567C19.886 17.9784 19.8897 18.0007 19.9 18.0201C19.9088 18.0412 19.9244 18.0586 19.9444 18.0695C19.9644 18.0804 19.9876 18.0841 20.01 18.0801C20.0329 18.0789 20.0549 18.0705 20.0728 18.0562C20.0908 18.0418 20.1038 18.0222 20.11 18.0001C20.1152 17.9825 20.1158 17.964 20.112 17.9461C20.1081 17.9281 20.0999 17.9115 20.088 17.8976C20.076 17.8837 20.0608 17.873 20.0437 17.8664C20.0266 17.8599 20.0082 17.8577 19.99 17.8601H20ZM28 17.8601C27.9846 17.8608 27.9695 17.8647 27.9558 17.8716C27.942 17.8785 27.9298 17.8882 27.92 17.9001C27.9039 17.9151 27.8933 17.935 27.8897 17.9567C27.886 17.9784 27.8897 18.0007 27.9 18.0201C27.9088 18.0412 27.9244 18.0586 27.9444 18.0695C27.9644 18.0804 27.9876 18.0841 28.01 18.0801C28.0329 18.0789 28.0549 18.0705 28.0728 18.0562C28.0908 18.0418 28.1038 18.0222 28.11 18.0001C28.1152 17.9825 28.1158 17.964 28.112 17.9461C28.1081 17.9281 28.0999 17.9115 28.088 17.8976C28.076 17.8837 28.0608 17.873 28.0437 17.8664C28.0266 17.8599 28.0082 17.8577 27.99 17.8601H28ZM20 18.4201C19.9695 18.4201 19.9402 18.4322 19.9187 18.4538C19.8971 18.4754 19.885 18.5046 19.885 18.5351C19.885 18.5656 19.8971 18.5949 19.9187 18.6164C19.9402 18.638 19.9695 18.6501 20 18.6501C20.0305 18.6501 20.0598 18.638 20.0813 18.6164C20.1029 18.5949 20.115 18.5656 20.115 18.5351C20.115 18.5046 20.1029 18.4754 20.0813 18.4538C20.0598 18.4322 20.0305 18.4201 20 18.4201ZM28 18.4201C27.9695 18.4201 27.9402 18.4322 27.9187 18.4538C27.8971 18.4754 27.885 18.5046 27.885 18.5351C27.885 18.5656 27.8971 18.5949 27.9187 18.6164C27.9402 18.638 27.9695 18.6501 28 18.6501C28.0305 18.6501 28.0598 18.638 28.0813 18.6164C28.1029 18.5949 28.115 18.5656 28.115 18.5351C28.115 18.5046 28.1029 18.4754 28.0813 18.4538C28.0598 18.4322 28.0305 18.4201 28 18.4201V18.4201ZM19.98 18.9801C19.9571 18.9813 19.9351 18.9897 19.9172 19.0041C19.8992 19.0184 19.8862 19.038 19.88 19.0601C19.8773 19.0733 19.8773 19.0869 19.88 19.1001C19.878 19.1164 19.8796 19.1329 19.8848 19.1485C19.89 19.1641 19.8986 19.1783 19.91 19.1901C19.9196 19.2033 19.9319 19.2142 19.9462 19.2221C19.9605 19.2299 19.9764 19.2344 19.9926 19.2354C20.0089 19.2364 20.0252 19.2337 20.0403 19.2276C20.0554 19.2215 20.069 19.2121 20.08 19.2001C20.096 19.1837 20.1065 19.1628 20.11 19.1401V19.1001C20.1114 19.0849 20.1096 19.0695 20.1047 19.0549C20.0998 19.0404 20.0919 19.0271 20.0815 19.0158C20.0712 19.0045 20.0586 18.9955 20.0445 18.9893C20.0305 18.9832 20.0153 18.9801 20 18.9801H19.98V18.9801ZM27.98 18.9801C27.9571 18.9813 27.9351 18.9897 27.9172 19.0041C27.8992 19.0184 27.8862 19.038 27.88 19.0601C27.8773 19.0733 27.8773 19.0869 27.88 19.1001C27.878 19.1164 27.8796 19.1329 27.8848 19.1485C27.89 19.1641 27.8986 19.1783 27.91 19.1901C27.9196 19.2033 27.9319 19.2142 27.9462 19.2221C27.9605 19.2299 27.9764 19.2344 27.9926 19.2354C28.0089 19.2364 28.0252 19.2337 28.0403 19.2276C28.0554 19.2215 28.069 19.2121 28.08 19.2001C28.096 19.1837 28.1065 19.1628 28.11 19.1401V19.1001C28.1114 19.0849 28.1096 19.0695 28.1047 19.0549C28.0998 19.0404 28.0919 19.0271 28.0815 19.0158C28.0712 19.0045 28.0586 18.9955 28.0445 18.9893C28.0305 18.9832 28.0153 18.9801 28 18.9801H27.98V18.9801ZM20 19.5401C19.9695 19.5401 19.9402 19.5522 19.9187 19.5738C19.8971 19.5954 19.885 19.6246 19.885 19.6551C19.885 19.6856 19.8971 19.7149 19.9187 19.7364C19.9402 19.758 19.9695 19.7701 20 19.7701C20.0292 19.7754 20.0593 19.7689 20.0836 19.752C20.108 19.7352 20.1247 19.7093 20.13 19.6801C20.1353 19.6509 20.1288 19.6209 20.1119 19.5965C20.095 19.5721 20.0692 19.5554 20.04 19.5501H20V19.5401ZM28 19.5401C27.9695 19.5401 27.9402 19.5522 27.9187 19.5738C27.8971 19.5954 27.885 19.6246 27.885 19.6551C27.885 19.6856 27.8971 19.7149 27.9187 19.7364C27.9402 19.758 27.9695 19.7701 28 19.7701C28.0292 19.7754 28.0593 19.7689 28.0836 19.752C28.108 19.7352 28.1247 19.7093 28.13 19.6801C28.1353 19.6509 28.1288 19.6209 28.1119 19.5965C28.095 19.5721 28.0692 19.5554 28.04 19.5501H28V19.5401ZM20 20.1101C19.9795 20.1086 19.9591 20.1129 19.9409 20.1224C19.9227 20.1319 19.9076 20.1464 19.8972 20.1641C19.8868 20.1817 19.8815 20.202 19.882 20.2225C19.8825 20.243 19.8888 20.263 19.9 20.2801C19.9129 20.3045 19.9344 20.3231 19.9603 20.3323C19.9862 20.3416 20.0146 20.3408 20.04 20.3301L20.08 20.3001C20.0915 20.2884 20.1002 20.2742 20.1055 20.2587C20.1108 20.2432 20.1125 20.2266 20.1106 20.2103C20.1087 20.194 20.1032 20.1784 20.0944 20.1645C20.0856 20.1506 20.0739 20.1389 20.06 20.1301C20.0396 20.1157 20.0149 20.1086 19.99 20.1101H20ZM28 20.1101C27.9795 20.1086 27.9591 20.1129 27.9409 20.1224C27.9227 20.1319 27.9076 20.1464 27.8972 20.1641C27.8868 20.1817 27.8815 20.202 27.882 20.2225C27.8825 20.243 27.8888 20.263 27.9 20.2801C27.9129 20.3045 27.9344 20.3231 27.9603 20.3323C27.9862 20.3416 28.0146 20.3408 28.04 20.3301L28.08 20.3001C28.0915 20.2884 28.1002 20.2742 28.1055 20.2587C28.1108 20.2432 28.1125 20.2266 28.1106 20.2103C28.1087 20.194 28.1032 20.1784 28.0944 20.1645C28.0856 20.1506 28.0739 20.1389 28.06 20.1301C28.0396 20.1157 28.0149 20.1086 27.99 20.1101H28ZM20 20.6701C19.9766 20.6696 19.9538 20.6774 19.9355 20.692C19.9172 20.7066 19.9047 20.7272 19.9 20.7501C19.89 20.7758 19.89 20.8044 19.9 20.8301C19.905 20.8439 19.913 20.8564 19.9233 20.8668C19.9337 20.8772 19.9462 20.8851 19.96 20.8901H20.01C20.0329 20.8889 20.0549 20.8805 20.0728 20.8662C20.0908 20.8518 20.1038 20.8322 20.11 20.8101C20.1152 20.7925 20.1158 20.774 20.112 20.7561C20.1081 20.7381 20.0999 20.7215 20.088 20.7076C20.076 20.6937 20.0608 20.683 20.0437 20.6764C20.0266 20.6699 20.0082 20.6677 19.99 20.6701H20V20.6701ZM28 20.6701C27.9766 20.6696 27.9538 20.6774 27.9355 20.692C27.9172 20.7066 27.9047 20.7272 27.9 20.7501C27.89 20.7758 27.89 20.8044 27.9 20.8301C27.905 20.8439 27.913 20.8564 27.9233 20.8668C27.9337 20.8772 27.9462 20.8851 27.96 20.8901H28.01C28.0329 20.8889 28.0549 20.8805 28.0728 20.8662C28.0908 20.8518 28.1038 20.8322 28.11 20.8101C28.1152 20.7925 28.1158 20.774 28.112 20.7561C28.1081 20.7381 28.0999 20.7215 28.088 20.7076C28.076 20.6937 28.0608 20.683 28.0437 20.6764C28.0266 20.6699 28.0082 20.6677 27.99 20.6701H28V20.6701ZM20 21.2301C19.9846 21.2308 19.9695 21.2347 19.9558 21.2416C19.942 21.2485 19.9298 21.2582 19.92 21.2701C19.9094 21.2804 19.9012 21.2929 19.896 21.3068C19.8908 21.3206 19.8888 21.3354 19.89 21.3501C19.89 21.4101 19.94 21.4501 20 21.4501C20.0181 21.4507 20.0361 21.4464 20.0519 21.4376C20.0678 21.4288 20.0809 21.4158 20.09 21.4001C20.1007 21.3837 20.1068 21.3647 20.1077 21.3451C20.1086 21.3255 20.1042 21.306 20.095 21.2886C20.0859 21.2713 20.0722 21.2567 20.0555 21.2464C20.0388 21.2361 20.0196 21.2305 20 21.2301V21.2301ZM28 21.2301C27.9846 21.2308 27.9695 21.2347 27.9558 21.2416C27.942 21.2485 27.9298 21.2582 27.92 21.2701C27.9094 21.2804 27.9012 21.2929 27.896 21.3068C27.8908 21.3206 27.8888 21.3354 27.89 21.3501C27.89 21.4101 27.94 21.4501 28 21.4501C28.0181 21.4507 28.0361 21.4464 28.0519 21.4376C28.0678 21.4288 28.0809 21.4158 28.09 21.4001C28.1007 21.3837 28.1068 21.3647 28.1077 21.3451C28.1086 21.3255 28.1042 21.306 28.095 21.2886C28.0859 21.2713 28.0722 21.2567 28.0555 21.2464C28.0388 21.2361 28.0196 21.2305 28 21.2301V21.2301ZM20 21.8001C19.9751 21.7957 19.9494 21.8 19.9273 21.8123C19.9052 21.8246 19.888 21.8441 19.8786 21.8676C19.8692 21.891 19.8682 21.9171 19.8758 21.9412C19.8833 21.9653 19.8989 21.9861 19.92 22.0001C19.9327 22.0098 19.9473 22.0165 19.9628 22.02C19.9783 22.0235 19.9944 22.0235 20.01 22.0201C20.0244 22.0188 20.0385 22.0147 20.0513 22.0079C20.0642 22.0012 20.0756 21.992 20.0849 21.9808C20.0941 21.9697 20.1011 21.9568 20.1055 21.943C20.1098 21.9291 20.1113 21.9146 20.11 21.9001C20.1087 21.8857 20.1045 21.8716 20.0978 21.8588C20.0911 21.8459 20.0819 21.8345 20.0707 21.8253C20.0596 21.816 20.0467 21.809 20.0329 21.8047C20.019 21.8003 20.0044 21.7988 19.99 21.8001H20ZM28 21.8001C27.9751 21.7957 27.9494 21.8 27.9273 21.8123C27.9052 21.8246 27.888 21.8441 27.8786 21.8676C27.8692 21.891 27.8682 21.9171 27.8758 21.9412C27.8833 21.9653 27.8989 21.9861 27.92 22.0001C27.9327 22.0098 27.9473 22.0165 27.9628 22.02C27.9783 22.0235 27.9944 22.0235 28.01 22.0201C28.0244 22.0188 28.0385 22.0147 28.0513 22.0079C28.0642 22.0012 28.0756 21.992 28.0849 21.9808C28.0941 21.9697 28.1011 21.9568 28.1055 21.943C28.1098 21.9291 28.1113 21.9146 28.11 21.9001C28.1087 21.8857 28.1045 21.8716 28.0978 21.8588C28.0911 21.8459 28.0819 21.8345 28.0707 21.8253C28.0596 21.816 28.0467 21.809 28.0329 21.8047C28.019 21.8003 28.0044 21.7988 27.99 21.8001H28ZM16.75 21.9901C16.3257 21.9795 15.9145 22.1379 15.6069 22.4305C15.2994 22.723 15.1206 23.1258 15.11 23.5501C15.0994 23.9745 15.2578 24.3856 15.5503 24.6932C15.8429 25.0008 16.2457 25.1795 16.67 25.1901C16.8801 25.1954 17.0892 25.1592 17.2853 25.0836C17.4815 25.0081 17.6608 24.8946 17.8131 24.7498C17.9654 24.6049 18.0876 24.4315 18.1729 24.2394C18.2582 24.0473 18.3047 23.8402 18.31 23.6301C18.3153 23.42 18.2791 23.2109 18.2035 23.0148C18.128 22.8186 18.0145 22.6393 17.8697 22.487C17.7248 22.3347 17.5514 22.2125 17.3592 22.1272C17.1671 22.042 16.9601 21.9954 16.75 21.9901V21.9901ZM24.22 21.9901C23.7957 21.9901 23.3887 22.1587 23.0886 22.4587C22.7886 22.7588 22.62 23.1658 22.62 23.5901C22.62 24.0145 22.7886 24.4214 23.0886 24.7215C23.3887 25.0215 23.7957 25.1901 24.22 25.1901C24.6443 25.1901 25.0513 25.0215 25.3514 24.7215C25.6514 24.4214 25.82 24.0145 25.82 23.5901C25.82 23.1658 25.6514 22.7588 25.3514 22.4587C25.0513 22.1587 24.6443 21.9901 24.22 21.9901ZM31.6 21.9901C31.1757 21.9901 30.7687 22.1587 30.4686 22.4587C30.1686 22.7588 30 23.1658 30 23.5901C30 24.0145 30.1686 24.4214 30.4686 24.7215C30.7687 25.0215 31.1757 25.1901 31.6 25.1901C32.0243 25.1901 32.4313 25.0215 32.7314 24.7215C33.0314 24.4214 33.2 24.0145 33.2 23.5901C33.2 23.1658 33.0314 22.7588 32.7314 22.4587C32.4313 22.1587 32.0243 21.9901 31.6 21.9901V21.9901ZM20 22.3601C19.9751 22.3557 19.9494 22.36 19.9273 22.3723C19.9052 22.3846 19.888 22.4041 19.8786 22.4276C19.8692 22.4511 19.8682 22.4771 19.8758 22.5012C19.8833 22.5253 19.8989 22.5461 19.92 22.5601C19.9327 22.5698 19.9473 22.5765 19.9628 22.58C19.9783 22.5835 19.9944 22.5835 20.01 22.5801C20.0244 22.5788 20.0385 22.5747 20.0513 22.5679C20.0642 22.5612 20.0756 22.552 20.0849 22.5408C20.0941 22.5297 20.1011 22.5168 20.1055 22.503C20.1098 22.4891 20.1113 22.4746 20.11 22.4601C20.1087 22.4457 20.1045 22.4316 20.0978 22.4188C20.0911 22.4059 20.0819 22.3945 20.0707 22.3853C20.0596 22.376 20.0467 22.369 20.0329 22.3647C20.019 22.3603 20.0044 22.3588 19.99 22.3601H20ZM28 22.3601C27.9751 22.3557 27.9494 22.36 27.9273 22.3723C27.9052 22.3846 27.888 22.4041 27.8786 22.4276C27.8692 22.4511 27.8682 22.4771 27.8758 22.5012C27.8833 22.5253 27.8989 22.5461 27.92 22.5601C27.9327 22.5698 27.9473 22.5765 27.9628 22.58C27.9783 22.5835 27.9944 22.5835 28.01 22.5801C28.0244 22.5788 28.0385 22.5747 28.0513 22.5679C28.0642 22.5612 28.0756 22.552 28.0849 22.5408C28.0941 22.5297 28.1011 22.5168 28.1055 22.503C28.1098 22.4891 28.1113 22.4746 28.11 22.4601C28.1087 22.4457 28.1045 22.4316 28.0978 22.4188C28.0911 22.4059 28.0819 22.3945 28.0707 22.3853C28.0596 22.376 28.0467 22.369 28.0329 22.3647C28.019 22.3603 28.0044 22.3588 27.99 22.3601H28ZM20 22.9201C19.9766 22.9196 19.9538 22.9274 19.9355 22.942C19.9172 22.9566 19.9047 22.9772 19.9 23.0001C19.89 23.0258 19.89 23.0544 19.9 23.0801C19.905 23.0939 19.913 23.1064 19.9233 23.1168C19.9337 23.1272 19.9462 23.1351 19.96 23.1401H20.01C20.0329 23.1389 20.0549 23.1305 20.0728 23.1162C20.0908 23.1018 20.1038 23.0822 20.11 23.0601C20.1152 23.0425 20.1158 23.024 20.112 23.0061C20.1081 22.9881 20.0999 22.9715 20.088 22.9576C20.076 22.9437 20.0608 22.933 20.0437 22.9264C20.0266 22.9199 20.0082 22.9177 19.99 22.9201H20V22.9201ZM28 22.9201C27.9766 22.9196 27.9538 22.9274 27.9355 22.942C27.9172 22.9566 27.9047 22.9772 27.9 23.0001C27.89 23.0258 27.89 23.0544 27.9 23.0801C27.905 23.0939 27.913 23.1064 27.9233 23.1168C27.9337 23.1272 27.9462 23.1351 27.96 23.1401H28.01C28.0329 23.1389 28.0549 23.1305 28.0728 23.1162C28.0908 23.1018 28.1038 23.0822 28.11 23.0601C28.1152 23.0425 28.1158 23.024 28.112 23.0061C28.1081 22.9881 28.0999 22.9715 28.088 22.9576C28.076 22.9437 28.0608 22.933 28.0437 22.9264C28.0266 22.9199 28.0082 22.9177 27.99 22.9201H28V22.9201ZM19.98 23.4801C19.9526 23.4826 19.9271 23.4953 19.9086 23.5157C19.8901 23.536 19.8799 23.5626 19.88 23.5901C19.8756 23.615 19.8799 23.6407 19.8922 23.6628C19.9044 23.6849 19.924 23.7021 19.9475 23.7115C19.9709 23.7209 19.9969 23.7219 20.0211 23.7144C20.0452 23.7068 20.066 23.6912 20.08 23.6701C20.0915 23.6584 20.1002 23.6442 20.1055 23.6287C20.1108 23.6132 20.1125 23.5966 20.1106 23.5803C20.1087 23.564 20.1032 23.5484 20.0944 23.5345C20.0856 23.5206 20.0739 23.5089 20.06 23.5001C20.0424 23.4877 20.0215 23.4808 20 23.4801H19.98V23.4801ZM27.98 23.4801C27.9526 23.4826 27.9271 23.4953 27.9086 23.5157C27.8901 23.536 27.8799 23.5626 27.88 23.5901C27.8756 23.615 27.8799 23.6407 27.8922 23.6628C27.9044 23.6849 27.924 23.7021 27.9475 23.7115C27.9709 23.7209 27.9969 23.7219 28.0211 23.7144C28.0452 23.7068 28.066 23.6912 28.08 23.6701C28.0915 23.6584 28.1002 23.6442 28.1055 23.6287C28.1108 23.6132 28.1125 23.5966 28.1106 23.5803C28.1087 23.564 28.1032 23.5484 28.0944 23.5345C28.0856 23.5206 28.0739 23.5089 28.06 23.5001C28.0424 23.4877 28.0215 23.4808 28 23.4801H27.98V23.4801ZM19.98 24.0501C19.9542 24.0524 19.9301 24.0636 19.9118 24.0819C19.8935 24.1002 19.8823 24.1244 19.88 24.1501C19.88 24.2201 19.94 24.2701 20 24.2701C20.06 24.2701 20.11 24.2201 20.11 24.1601C20.11 24.1309 20.0984 24.103 20.0778 24.0823C20.0572 24.0617 20.0292 24.0501 20 24.0501H19.98V24.0501ZM27.98 24.0501C27.9542 24.0524 27.9301 24.0636 27.9118 24.0819C27.8935 24.1002 27.8823 24.1244 27.88 24.1501C27.88 24.2201 27.94 24.2701 28 24.2701C28.06 24.2701 28.11 24.2201 28.11 24.1601C28.11 24.1309 28.0984 24.103 28.0778 24.0823C28.0572 24.0617 28.0292 24.0501 28 24.0501H27.98V24.0501ZM19.99 24.6001C19.9756 24.5995 19.9611 24.6017 19.9475 24.6066C19.9339 24.6115 19.9214 24.619 19.9108 24.6288C19.9001 24.6385 19.8914 24.6503 19.8853 24.6634C19.8792 24.6765 19.8757 24.6907 19.875 24.7051C19.8743 24.7196 19.8765 24.734 19.8815 24.7476C19.8864 24.7612 19.8939 24.7737 19.9037 24.7844C19.9134 24.795 19.9252 24.8037 19.9383 24.8098C19.9514 24.816 19.9656 24.8195 19.98 24.8201C20.0092 24.8214 20.0377 24.8111 20.0592 24.7914C20.0808 24.7717 20.0937 24.7443 20.095 24.7151C20.0963 24.6859 20.086 24.6574 20.0663 24.6359C20.0466 24.6143 20.0192 24.6014 19.99 24.6001V24.6001ZM27.99 24.6001C27.9756 24.5995 27.9611 24.6017 27.9475 24.6066C27.9339 24.6115 27.9214 24.619 27.9108 24.6288C27.9001 24.6385 27.8914 24.6503 27.8853 24.6634C27.8792 24.6765 27.8757 24.6907 27.875 24.7051C27.8743 24.7196 27.8765 24.734 27.8815 24.7476C27.8864 24.7612 27.8939 24.7737 27.9037 24.7844C27.9134 24.795 27.9252 24.8037 27.9383 24.8098C27.9514 24.816 27.9656 24.8195 27.98 24.8201C28.0092 24.8214 28.0377 24.8111 28.0592 24.7914C28.0808 24.7717 28.0937 24.7443 28.095 24.7151C28.0963 24.6859 28.086 24.6574 28.0663 24.6359C28.0466 24.6143 28.0192 24.6014 27.99 24.6001V24.6001ZM19.99 25.1701C19.966 25.1686 19.9422 25.1749 19.9222 25.1882C19.9022 25.2014 19.887 25.2209 19.8791 25.2435C19.8712 25.2662 19.8709 25.2909 19.8783 25.3137C19.8856 25.3366 19.9003 25.3564 19.92 25.3701L20 25.3901C20.0181 25.3907 20.0361 25.3864 20.0519 25.3776C20.0678 25.3688 20.0809 25.3558 20.09 25.3401C20.1007 25.3237 20.1068 25.3047 20.1077 25.2851C20.1086 25.2655 20.1042 25.246 20.095 25.2286C20.0859 25.2113 20.0722 25.1967 20.0555 25.1864C20.0388 25.1761 20.0196 25.1705 20 25.1701H19.99V25.1701ZM27.99 25.1701C27.966 25.1686 27.9422 25.1749 27.9222 25.1882C27.9022 25.2014 27.887 25.2209 27.8791 25.2435C27.8712 25.2662 27.8709 25.2909 27.8783 25.3137C27.8856 25.3366 27.9003 25.3564 27.92 25.3701L28 25.3901C28.0181 25.3907 28.0361 25.3864 28.0519 25.3776C28.0678 25.3688 28.0809 25.3558 28.09 25.3401C28.1007 25.3237 28.1068 25.3047 28.1077 25.2851C28.1086 25.2655 28.1042 25.246 28.095 25.2286C28.0859 25.2113 28.0722 25.1967 28.0555 25.1864C28.0388 25.1761 28.0196 25.1705 28 25.1701H27.99V25.1701ZM19.99 25.7301C19.9745 25.7301 19.9592 25.7337 19.9453 25.7407C19.9314 25.7476 19.9193 25.7577 19.91 25.7701C19.8999 25.7808 19.8921 25.7933 19.8869 25.8071C19.8818 25.8208 19.8794 25.8355 19.88 25.8501C19.88 25.8801 19.9 25.9001 19.92 25.9201C19.9307 25.9302 19.9432 25.938 19.957 25.9432C19.9707 25.9484 19.9853 25.9507 20 25.9501C20.0144 25.9501 20.0287 25.9473 20.0421 25.9417C20.0554 25.9362 20.0676 25.9281 20.0778 25.9179C20.088 25.9077 20.0961 25.8956 20.1016 25.8822C20.1072 25.8689 20.11 25.8546 20.11 25.8401C20.11 25.8257 20.1072 25.8114 20.1016 25.798C20.0961 25.7847 20.088 25.7725 20.0778 25.7623C20.0676 25.7521 20.0554 25.744 20.0421 25.7385C20.0287 25.733 20.0144 25.7301 20 25.7301H19.99V25.7301ZM27.99 25.7301C27.9719 25.7321 27.9546 25.7381 27.9392 25.7477C27.9238 25.7574 27.9108 25.7704 27.9011 25.7858C27.8915 25.8012 27.8855 25.8186 27.8836 25.8367C27.8816 25.8548 27.8838 25.873 27.89 25.8901C27.8996 25.9111 27.9151 25.9289 27.9347 25.9414C27.9542 25.9538 27.9769 25.9603 28 25.9601C28.0305 25.9601 28.0598 25.948 28.0813 25.9264C28.1029 25.9049 28.115 25.8756 28.115 25.8451C28.115 25.8146 28.1029 25.7854 28.0813 25.7638C28.0598 25.7422 28.0305 25.7301 28 25.7301H27.99V25.7301ZM19.99 26.2901C19.9666 26.2896 19.9438 26.2974 19.9255 26.312C19.9072 26.3266 19.8947 26.3472 19.89 26.3701C19.88 26.3958 19.88 26.4244 19.89 26.4501C19.8966 26.4646 19.9063 26.4774 19.9184 26.4878C19.9305 26.4982 19.9447 26.5058 19.96 26.5101H20.01C20.0307 26.5074 20.0502 26.4988 20.0663 26.4853C20.0823 26.4719 20.0941 26.4541 20.1004 26.4342C20.1067 26.4143 20.1072 26.3929 20.1018 26.3727C20.0964 26.3525 20.0854 26.3343 20.07 26.3201C20.0593 26.31 20.0468 26.3022 20.033 26.297C20.0193 26.2919 20.0047 26.2895 19.99 26.2901V26.2901ZM27.99 26.2901C27.9666 26.2896 27.9438 26.2974 27.9255 26.312C27.9072 26.3266 27.8947 26.3472 27.89 26.3701C27.88 26.3958 27.88 26.4244 27.89 26.4501C27.8966 26.4646 27.9063 26.4774 27.9184 26.4878C27.9305 26.4982 27.9447 26.5058 27.96 26.5101H28.01C28.0307 26.5074 28.0502 26.4988 28.0663 26.4853C28.0823 26.4719 28.0941 26.4541 28.1004 26.4342C28.1067 26.4143 28.1072 26.3929 28.1018 26.3727C28.0964 26.3525 28.0854 26.3343 28.07 26.3201C28.0593 26.31 28.0468 26.3022 28.033 26.297C28.0193 26.2919 28.0047 26.2895 27.99 26.2901V26.2901ZM19.99 26.8601C19.9753 26.8595 19.9607 26.8619 19.947 26.867C19.9332 26.8722 19.9207 26.88 19.91 26.8901C19.8909 26.9063 19.878 26.9285 19.8732 26.9531C19.8685 26.9776 19.8722 27.0031 19.8839 27.0252C19.8955 27.0473 19.9144 27.0648 19.9373 27.0748C19.9602 27.0848 19.9859 27.0867 20.01 27.0801C20.0329 27.0789 20.0549 27.0705 20.0728 27.0562C20.0908 27.0418 20.1038 27.0222 20.11 27.0001C20.1152 26.9825 20.1158 26.964 20.112 26.9461C20.1081 26.9281 20.0999 26.9115 20.088 26.8976C20.076 26.8837 20.0608 26.873 20.0437 26.8664C20.0266 26.8599 20.0082 26.8577 19.99 26.8601V26.8601ZM27.99 26.8601C27.9753 26.8595 27.9607 26.8619 27.947 26.867C27.9332 26.8722 27.9207 26.88 27.91 26.8901C27.8909 26.9063 27.878 26.9285 27.8732 26.9531C27.8685 26.9776 27.8722 27.0031 27.8839 27.0252C27.8955 27.0473 27.9144 27.0648 27.9373 27.0748C27.9602 27.0848 27.9859 27.0867 28.01 27.0801C28.0329 27.0789 28.0549 27.0705 28.0728 27.0562C28.0908 27.0418 28.1038 27.0222 28.11 27.0001C28.1152 26.9825 28.1158 26.964 28.112 26.9461C28.1081 26.9281 28.0999 26.9115 28.088 26.8976C28.076 26.8837 28.0608 26.873 28.0437 26.8664C28.0266 26.8599 28.0082 26.8577 27.99 26.8601V26.8601ZM16.75 27.2301C16.5315 27.2069 16.3106 27.229 16.101 27.295C15.8915 27.3609 15.6977 27.4693 15.5319 27.6134C15.366 27.7575 15.2316 27.9342 15.1371 28.1325C15.0425 28.3308 14.9898 28.5465 14.9822 28.7661C14.9746 28.9856 15.0124 29.2044 15.0931 29.4088C15.1737 29.6131 15.2956 29.7987 15.4512 29.9538C15.6067 30.109 15.7925 30.2305 15.9971 30.3107C16.2016 30.3909 16.4204 30.4282 16.64 30.4201C16.8501 30.4273 17.0596 30.3931 17.2565 30.3194C17.4534 30.2456 17.6338 30.1338 17.7875 29.9904C17.9412 29.8469 18.0651 29.6746 18.1522 29.4832C18.2392 29.2919 18.2878 29.0852 18.295 28.8751C18.3022 28.665 18.268 28.4555 18.1943 28.2586C18.1205 28.0618 18.0087 27.8813 17.8653 27.7276C17.7218 27.574 17.5495 27.45 17.3581 27.363C17.1667 27.2759 16.9601 27.2273 16.75 27.2201V27.2301V27.2301ZM24.22 27.2301C23.7957 27.2301 23.3887 27.3987 23.0886 27.6987C22.7886 27.9988 22.62 28.4058 22.62 28.8301C22.62 29.2545 22.7886 29.6614 23.0886 29.9615C23.3887 30.2615 23.7957 30.4301 24.22 30.4301C24.6443 30.4301 25.0513 30.2615 25.3514 29.9615C25.6514 29.6614 25.82 29.2545 25.82 28.8301C25.82 28.4058 25.6514 27.9988 25.3514 27.6987C25.0513 27.3987 24.6443 27.2301 24.22 27.2301V27.2301ZM31.6 27.2301C31.1757 27.2301 30.7687 27.3987 30.4686 27.6987C30.1686 27.9988 30 28.4058 30 28.8301C30 29.2545 30.1686 29.6614 30.4686 29.9615C30.7687 30.2615 31.1757 30.4301 31.6 30.4301C32.0243 30.4301 32.4313 30.2615 32.7314 29.9615C33.0314 29.6614 33.2 29.2545 33.2 28.8301C33.2 28.4058 33.0314 27.9988 32.7314 27.6987C32.4313 27.3987 32.0243 27.2301 31.6 27.2301V27.2301ZM20 27.4201C19.9783 27.4206 19.9572 27.4275 19.9394 27.44C19.9216 27.4524 19.9079 27.4699 19.9 27.4901C19.8937 27.5043 19.8904 27.5196 19.8904 27.5351C19.8904 27.5506 19.8937 27.566 19.9 27.5801C19.905 27.5939 19.913 27.6064 19.9233 27.6168C19.9337 27.6272 19.9462 27.6351 19.96 27.6401H20.01C20.0329 27.6389 20.0549 27.6305 20.0728 27.6162C20.0908 27.6018 20.1038 27.5822 20.11 27.5601C20.1152 27.5425 20.1158 27.524 20.112 27.5061C20.1081 27.4881 20.0999 27.4715 20.088 27.4576C20.076 27.4437 20.0608 27.433 20.0437 27.4264C20.0266 27.4199 20.0082 27.4177 19.99 27.4201H20ZM28 27.4201C27.9783 27.4206 27.9572 27.4275 27.9394 27.44C27.9216 27.4524 27.9079 27.4699 27.9 27.4901C27.8937 27.5043 27.8904 27.5196 27.8904 27.5351C27.8904 27.5506 27.8937 27.566 27.9 27.5801C27.905 27.5939 27.913 27.6064 27.9233 27.6168C27.9337 27.6272 27.9462 27.6351 27.96 27.6401H28.01C28.0329 27.6389 28.0549 27.6305 28.0728 27.6162C28.0908 27.6018 28.1038 27.5822 28.11 27.5601C28.1152 27.5425 28.1158 27.524 28.112 27.5061C28.1081 27.4881 28.0999 27.4715 28.088 27.4576C28.076 27.4437 28.0608 27.433 28.0437 27.4264C28.0266 27.4199 28.0082 27.4177 27.99 27.4201H28ZM19.98 27.9801C19.9526 27.9826 19.9271 27.9953 19.9086 28.0157C19.8901 28.036 19.8799 28.0626 19.88 28.0901C19.88 28.1206 19.8921 28.1499 19.9137 28.1714C19.9352 28.193 19.9645 28.2051 19.995 28.2051C20.0255 28.2051 20.0548 28.193 20.0763 28.1714C20.0979 28.1499 20.11 28.1206 20.11 28.0901C20.1053 28.0645 20.0916 28.0414 20.0715 28.025C20.0513 28.0085 20.026 27.9997 20 28.0001H19.98V27.9801V27.9801ZM27.98 27.9801C27.9526 27.9826 27.9271 27.9953 27.9086 28.0157C27.8901 28.036 27.8799 28.0626 27.88 28.0901C27.88 28.1206 27.8921 28.1499 27.9137 28.1714C27.9352 28.193 27.9645 28.2051 27.995 28.2051C28.0255 28.2051 28.0548 28.193 28.0763 28.1714C28.0979 28.1499 28.11 28.1206 28.11 28.0901C28.1053 28.0645 28.0916 28.0414 28.0715 28.025C28.0513 28.0085 28.026 27.9997 28 28.0001H27.98V27.9801V27.9801ZM20 28.5401C19.9783 28.5406 19.9572 28.5475 19.9394 28.56C19.9216 28.5724 19.9079 28.5899 19.9 28.6101C19.8935 28.6238 19.8899 28.6387 19.8894 28.6539C19.8889 28.6691 19.8916 28.6842 19.8972 28.6982C19.9028 28.7123 19.9113 28.7251 19.9221 28.7357C19.9329 28.7464 19.9458 28.7547 19.96 28.7601C19.9807 28.7677 20.0032 28.7689 20.0246 28.7636C20.046 28.7582 20.0653 28.7466 20.08 28.7301C20.0963 28.7147 20.1076 28.6947 20.1122 28.6728C20.1169 28.6508 20.1147 28.628 20.106 28.6073C20.0973 28.5867 20.0825 28.5691 20.0635 28.5571C20.0446 28.5451 20.0224 28.5392 20 28.5401V28.5401ZM28 28.5401C27.9783 28.5406 27.9572 28.5475 27.9394 28.56C27.9216 28.5724 27.9079 28.5899 27.9 28.6101C27.8935 28.6238 27.8899 28.6387 27.8894 28.6539C27.8889 28.6691 27.8916 28.6842 27.8972 28.6982C27.9028 28.7123 27.9113 28.7251 27.9221 28.7357C27.9329 28.7464 27.9458 28.7547 27.96 28.7601C27.9807 28.7677 28.0032 28.7689 28.0246 28.7636C28.046 28.7582 28.0653 28.7466 28.08 28.7301C28.0963 28.7147 28.1076 28.6947 28.1122 28.6728C28.1169 28.6508 28.1147 28.628 28.106 28.6073C28.0973 28.5867 28.0825 28.5691 28.0635 28.5571C28.0446 28.5451 28.0224 28.5392 28 28.5401V28.5401ZM20 29.1001C19.9695 29.1001 19.9402 29.1122 19.9187 29.1338C19.8971 29.1554 19.885 29.1846 19.885 29.2151C19.885 29.2456 19.8971 29.2749 19.9187 29.2964C19.9402 29.318 19.9695 29.3301 20 29.3301C20.0305 29.3301 20.0598 29.318 20.0813 29.2964C20.1029 29.2749 20.115 29.2456 20.115 29.2151C20.115 29.1846 20.1029 29.1554 20.0813 29.1338C20.0598 29.1122 20.0305 29.1001 20 29.1001ZM28 29.1001C27.9695 29.1001 27.9402 29.1122 27.9187 29.1338C27.8971 29.1554 27.885 29.1846 27.885 29.2151C27.885 29.2456 27.8971 29.2749 27.9187 29.2964C27.9402 29.318 27.9695 29.3301 28 29.3301C28.0305 29.3301 28.0598 29.318 28.0813 29.2964C28.1029 29.2749 28.115 29.2456 28.115 29.2151C28.115 29.1846 28.1029 29.1554 28.0813 29.1338C28.0598 29.1122 28.0305 29.1001 28 29.1001V29.1001ZM20 29.6601C19.9695 29.6601 19.9402 29.6722 19.9187 29.6938C19.8971 29.7154 19.885 29.7446 19.885 29.7751C19.885 29.8056 19.8971 29.8349 19.9187 29.8564C19.9402 29.878 19.9695 29.8901 20 29.8901C20.0305 29.8901 20.0598 29.878 20.0813 29.8564C20.1029 29.8349 20.115 29.8056 20.115 29.7751C20.115 29.7446 20.1029 29.7154 20.0813 29.6938C20.0598 29.6722 20.0305 29.6601 20 29.6601V29.6601ZM28 29.6601C27.9695 29.6601 27.9402 29.6722 27.9187 29.6938C27.8971 29.7154 27.885 29.7446 27.885 29.7751C27.885 29.8056 27.8971 29.8349 27.9187 29.8564C27.9402 29.878 27.9695 29.8901 28 29.8901C28.0305 29.8901 28.0598 29.878 28.0813 29.8564C28.1029 29.8349 28.115 29.8056 28.115 29.7751C28.115 29.7446 28.1029 29.7154 28.0813 29.6938C28.0598 29.6722 28.0305 29.6601 28 29.6601V29.6601ZM20 30.2301C19.9708 30.2301 19.9428 30.2417 19.9222 30.2623C19.9016 30.283 19.89 30.3109 19.89 30.3401C19.89 30.3693 19.9016 30.3973 19.9222 30.4179C19.9428 30.4385 19.9708 30.4501 20 30.4501C20.0292 30.4501 20.0572 30.4385 20.0778 30.4179C20.0984 30.3973 20.11 30.3693 20.11 30.3401C20.11 30.3109 20.0984 30.283 20.0778 30.2623C20.0572 30.2417 20.0292 30.2301 20 30.2301ZM28 30.2301C27.9708 30.2301 27.9428 30.2417 27.9222 30.2623C27.9016 30.283 27.89 30.3109 27.89 30.3401C27.89 30.3693 27.9016 30.3973 27.9222 30.4179C27.9428 30.4385 27.9708 30.4501 28 30.4501C28.0292 30.4501 28.0572 30.4385 28.0778 30.4179C28.0984 30.3973 28.11 30.3693 28.11 30.3401C28.11 30.3246 28.1064 30.3093 28.0994 30.2954C28.0925 30.2815 28.0824 30.2694 28.07 30.2601C28.0593 30.25 28.0468 30.2422 28.033 30.237C28.0193 30.2319 28.0047 30.2295 27.99 30.2301H28ZM20 30.7901C19.9708 30.7901 19.9428 30.8017 19.9222 30.8223C19.9016 30.843 19.89 30.8709 19.89 30.9001C19.8866 30.9157 19.8867 30.9318 19.8901 30.9473C19.8936 30.9629 19.9004 30.9775 19.91 30.9901C19.9187 31.004 19.9305 31.0158 19.9444 31.0245C19.9583 31.0333 19.9739 31.0388 19.9902 31.0407C20.0065 31.0427 20.023 31.0409 20.0386 31.0356C20.0541 31.0303 20.0683 31.0216 20.08 31.0101C20.096 30.9937 20.1065 30.9728 20.11 30.9501V30.9001C20.1101 30.8848 20.1069 30.8696 20.1008 30.8556C20.0946 30.8415 20.0856 30.8289 20.0743 30.8186C20.063 30.8082 20.0497 30.8003 20.0352 30.7954C20.0206 30.7905 20.0053 30.7887 19.99 30.7901H20ZM28 30.7901C27.9708 30.7901 27.9428 30.8017 27.9222 30.8223C27.9016 30.843 27.89 30.8709 27.89 30.9001C27.8866 30.9157 27.8867 30.9318 27.8901 30.9473C27.8936 30.9629 27.9004 30.9775 27.91 30.9901C27.9187 31.004 27.9305 31.0158 27.9444 31.0245C27.9583 31.0333 27.9739 31.0388 27.9902 31.0407C28.0065 31.0427 28.023 31.0409 28.0386 31.0356C28.0541 31.0303 28.0683 31.0216 28.08 31.0101C28.096 30.9937 28.1065 30.9728 28.11 30.9501V30.9001C28.1101 30.8848 28.1069 30.8696 28.1008 30.8556C28.0946 30.8415 28.0856 30.8289 28.0743 30.8186C28.063 30.8082 28.0497 30.8003 28.0352 30.7954C28.0206 30.7905 28.0053 30.7887 27.99 30.7901H28ZM20 31.3501C19.9751 31.3457 19.9494 31.35 19.9273 31.3623C19.9052 31.3746 19.888 31.3941 19.8786 31.4176C19.8692 31.4411 19.8682 31.4671 19.8758 31.4912C19.8833 31.5153 19.8989 31.5361 19.92 31.5501C19.9428 31.5666 19.9711 31.5737 19.999 31.57C20.0269 31.5663 20.0523 31.552 20.07 31.5301C20.089 31.5098 20.0995 31.483 20.0995 31.4551C20.0995 31.4273 20.089 31.4005 20.07 31.3801C20.0593 31.37 20.0468 31.3622 20.033 31.357C20.0193 31.3519 20.0047 31.3495 19.99 31.3501H20ZM28 31.3501C27.9751 31.3457 27.9494 31.35 27.9273 31.3623C27.9052 31.3746 27.888 31.3941 27.8786 31.4176C27.8692 31.4411 27.8682 31.4671 27.8758 31.4912C27.8833 31.5153 27.8989 31.5361 27.92 31.5501C27.9428 31.5666 27.9711 31.5737 27.999 31.57C28.0269 31.5663 28.0523 31.552 28.07 31.5301C28.089 31.5098 28.0995 31.483 28.0995 31.4551C28.0995 31.4273 28.089 31.4005 28.07 31.3801C28.0593 31.37 28.0468 31.3622 28.033 31.357C28.0193 31.3519 28.0047 31.3495 27.99 31.3501H28ZM19.98 31.9101C19.9526 31.9126 19.9271 31.9253 19.9086 31.9457C19.8901 31.966 19.8799 31.9926 19.88 32.0201C19.87 32.0467 19.8707 32.0761 19.8818 32.1022C19.893 32.1283 19.9139 32.149 19.94 32.1601C19.9654 32.1708 19.9938 32.1716 20.0197 32.1623C20.0456 32.1531 20.0671 32.1345 20.08 32.1101C20.0935 32.0984 20.1039 32.0837 20.1104 32.0671C20.1169 32.0505 20.1192 32.0326 20.1173 32.0149C20.1153 31.9972 20.1091 31.9802 20.0991 31.9654C20.0891 31.9507 20.0757 31.9386 20.06 31.9301C20.0424 31.9177 20.0215 31.9108 20 31.9101H19.98V31.9101ZM27.98 31.9101C27.9526 31.9126 27.9271 31.9253 27.9086 31.9457C27.8901 31.966 27.8799 31.9926 27.88 32.0201C27.87 32.0467 27.8707 32.0761 27.8818 32.1022C27.893 32.1283 27.9139 32.149 27.94 32.1601C27.9654 32.1708 27.9938 32.1716 28.0197 32.1623C28.0456 32.1531 28.0671 32.1345 28.08 32.1101C28.0935 32.0984 28.1039 32.0837 28.1104 32.0671C28.1169 32.0505 28.1192 32.0326 28.1173 32.0149C28.1153 31.9972 28.1091 31.9802 28.0991 31.9654C28.0891 31.9507 28.0757 31.9386 28.06 31.9301C28.0424 31.9177 28.0215 31.9108 28 31.9101H27.98V31.9101ZM16.75 32.4601C16.3257 32.4495 15.9145 32.6079 15.6069 32.9005C15.2994 33.193 15.1206 33.5958 15.11 34.0201C15.0994 34.4445 15.2578 34.8556 15.5503 35.1632C15.8429 35.4708 16.2457 35.6495 16.67 35.6601C16.8801 35.6654 17.0892 35.6292 17.2853 35.5536C17.4815 35.4781 17.6608 35.3646 17.8131 35.2198C17.9654 35.0749 18.0876 34.9015 18.1729 34.7094C18.2582 34.5173 18.3047 34.3102 18.31 34.1001C18.3153 33.89 18.2791 33.6809 18.2035 33.4848C18.128 33.2886 18.0145 33.1093 17.8697 32.957C17.7248 32.8047 17.5514 32.6825 17.3592 32.5972C17.1671 32.512 16.9601 32.4654 16.75 32.4601V32.4601ZM24.22 32.4601C23.7957 32.4495 23.3845 32.6079 23.0769 32.9005C22.7694 33.193 22.5906 33.5958 22.58 34.0201C22.5694 34.4445 22.7278 34.8556 23.0203 35.1632C23.3129 35.4708 23.7157 35.6495 24.14 35.6601C24.3501 35.6654 24.5592 35.6292 24.7553 35.5536C24.9515 35.4781 25.1308 35.3646 25.2831 35.2198C25.4354 35.0749 25.5576 34.9015 25.6429 34.7094C25.7282 34.5173 25.7747 34.3102 25.78 34.1001C25.7853 33.89 25.7491 33.6809 25.6735 33.4848C25.598 33.2886 25.4845 33.1093 25.3397 32.957C25.1948 32.8047 25.0214 32.6825 24.8292 32.5972C24.6371 32.512 24.4301 32.4654 24.22 32.4601V32.4601ZM31.6 32.4601C31.1757 32.4601 30.7687 32.6287 30.4686 32.9287C30.1686 33.2288 30 33.6358 30 34.0601C30 34.4845 30.1686 34.8914 30.4686 35.1915C30.7687 35.4915 31.1757 35.6601 31.6 35.6601C32.0243 35.6601 32.4313 35.4915 32.7314 35.1915C33.0314 34.8914 33.2 34.4845 33.2 34.0601C33.2 33.6358 33.0314 33.2288 32.7314 32.9287C32.4313 32.6287 32.0243 32.4601 31.6 32.4601V32.4601ZM19.98 32.4801C19.9571 32.4813 19.9351 32.4897 19.9172 32.5041C19.8992 32.5184 19.8862 32.538 19.88 32.5601C19.8745 32.5828 19.8764 32.6067 19.8854 32.6283C19.8944 32.6499 19.91 32.668 19.93 32.6801C19.9471 32.6946 19.9681 32.7035 19.9904 32.7057C20.0126 32.7079 20.0351 32.7033 20.0546 32.6924C20.0742 32.6816 20.0899 32.665 20.0998 32.6449C20.1097 32.6249 20.1133 32.6023 20.11 32.5801C20.1075 32.5527 20.0948 32.5272 20.0744 32.5087C20.0541 32.4902 20.0275 32.48 20 32.4801H19.98V32.4801ZM27.98 32.4801C27.9571 32.4813 27.9351 32.4897 27.9172 32.5041C27.8992 32.5184 27.8862 32.538 27.88 32.5601C27.8745 32.5828 27.8764 32.6067 27.8854 32.6283C27.8944 32.6499 27.91 32.668 27.93 32.6801C27.9471 32.6946 27.9681 32.7035 27.9904 32.7057C28.0126 32.7079 28.0351 32.7033 28.0546 32.6924C28.0742 32.6816 28.0899 32.665 28.0998 32.6449C28.1097 32.6249 28.1133 32.6023 28.11 32.5801C28.1075 32.5527 28.0948 32.5272 28.0744 32.5087C28.0541 32.4902 28.0275 32.48 28 32.4801H27.98V32.4801ZM20 33.0401C19.9853 33.0395 19.9707 33.0419 19.957 33.047C19.9432 33.0522 19.9307 33.06 19.92 33.0701C19.9099 33.0808 19.9021 33.0933 19.8969 33.1071C19.8918 33.1208 19.8894 33.1355 19.89 33.1501C19.8904 33.1696 19.8959 33.1886 19.906 33.2052C19.9161 33.2219 19.9304 33.2355 19.9475 33.2448C19.9647 33.2541 19.9839 33.2586 20.0034 33.258C20.0228 33.2574 20.0418 33.2517 20.0583 33.2414C20.0748 33.2311 20.0883 33.2165 20.0973 33.1993C20.1064 33.1821 20.1107 33.1628 20.1099 33.1433C20.109 33.1239 20.1031 33.105 20.0925 33.0886C20.082 33.0723 20.0673 33.059 20.05 33.0501C20.0374 33.0443 20.0238 33.0409 20.01 33.0401H20V33.0401ZM28 33.0401C27.9853 33.0395 27.9707 33.0419 27.957 33.047C27.9432 33.0522 27.9307 33.06 27.92 33.0701C27.9099 33.0808 27.9021 33.0933 27.8969 33.1071C27.8918 33.1208 27.8894 33.1355 27.89 33.1501C27.8904 33.1696 27.8959 33.1886 27.906 33.2052C27.9161 33.2219 27.9304 33.2355 27.9475 33.2448C27.9647 33.2541 27.9839 33.2586 28.0034 33.258C28.0228 33.2574 28.0418 33.2517 28.0583 33.2414C28.0748 33.2311 28.0883 33.2165 28.0973 33.1993C28.1064 33.1821 28.1107 33.1628 28.1099 33.1433C28.109 33.1239 28.1031 33.105 28.0925 33.0886C28.082 33.0723 28.0673 33.059 28.05 33.0501C28.0374 33.0443 28.0238 33.0409 28.01 33.0401H28V33.0401ZM20 34.1601C19.9766 34.1596 19.9538 34.1674 19.9355 34.182C19.9172 34.1966 19.9047 34.2172 19.9 34.2401C19.89 34.2658 19.89 34.2944 19.9 34.3201C19.905 34.3339 19.913 34.3464 19.9233 34.3568C19.9337 34.3672 19.9462 34.3751 19.96 34.3801H20.01C20.0307 34.3774 20.0502 34.3688 20.0663 34.3553C20.0823 34.3419 20.0941 34.3241 20.1004 34.3042C20.1067 34.2843 20.1072 34.2629 20.1018 34.2427C20.0964 34.2225 20.0854 34.2043 20.07 34.1901C20.0593 34.18 20.0468 34.1722 20.033 34.167C20.0193 34.1619 20.0047 34.1595 19.99 34.1601H20V34.1601ZM28 34.1601C27.9766 34.1596 27.9538 34.1674 27.9355 34.182C27.9172 34.1966 27.9047 34.2172 27.9 34.2401C27.89 34.2658 27.89 34.2944 27.9 34.3201C27.905 34.3339 27.913 34.3464 27.9233 34.3568C27.9337 34.3672 27.9462 34.3751 27.96 34.3801H28.01C28.0307 34.3774 28.0502 34.3688 28.0663 34.3553C28.0823 34.3419 28.0941 34.3241 28.1004 34.3042C28.1067 34.2843 28.1072 34.2629 28.1018 34.2427C28.0964 34.2225 28.0854 34.2043 28.07 34.1901C28.0593 34.18 28.0468 34.1722 28.033 34.167C28.0193 34.1619 28.0047 34.1595 27.99 34.1601H28V34.1601ZM20 34.7301C19.9783 34.7306 19.9572 34.7375 19.9394 34.75C19.9216 34.7624 19.9079 34.7799 19.9 34.8001C19.8937 34.8143 19.8904 34.8296 19.8904 34.8451C19.8904 34.8606 19.8937 34.876 19.9 34.8901C19.91 34.9101 19.93 34.9301 19.96 34.9401H20.01C20.0307 34.9374 20.0502 34.9288 20.0663 34.9153C20.0823 34.9019 20.0941 34.8841 20.1004 34.8642C20.1067 34.8443 20.1072 34.8229 20.1018 34.8027C20.0964 34.7825 20.0854 34.7643 20.07 34.7501C20.0469 34.7333 20.0183 34.7262 19.99 34.7301H20V34.7301ZM28 34.7301C27.9783 34.7306 27.9572 34.7375 27.9394 34.75C27.9216 34.7624 27.9079 34.7799 27.9 34.8001C27.8937 34.8143 27.8904 34.8296 27.8904 34.8451C27.8904 34.8606 27.8937 34.876 27.9 34.8901C27.91 34.9101 27.93 34.9301 27.96 34.9401H28.01C28.0307 34.9374 28.0502 34.9288 28.0663 34.9153C28.0823 34.9019 28.0941 34.8841 28.1004 34.8642C28.1067 34.8443 28.1072 34.8229 28.1018 34.8027C28.0964 34.7825 28.0854 34.7643 28.07 34.7501C28.0469 34.7333 28.0183 34.7262 27.99 34.7301H28V34.7301ZM20 35.2901C19.9708 35.2901 19.9428 35.3017 19.9222 35.3223C19.9016 35.343 19.89 35.3709 19.89 35.4001C19.89 35.4293 19.9016 35.4573 19.9222 35.4779C19.9428 35.4985 19.9708 35.5101 20 35.5101C20.0292 35.5101 20.0572 35.4985 20.0778 35.4779C20.0984 35.4573 20.11 35.4293 20.11 35.4001C20.11 35.3709 20.0984 35.343 20.0778 35.3223C20.0572 35.3017 20.0292 35.2901 20 35.2901ZM28 35.2901C27.9708 35.2901 27.9428 35.3017 27.9222 35.3223C27.9016 35.343 27.89 35.3709 27.89 35.4001C27.89 35.4293 27.9016 35.4573 27.9222 35.4779C27.9428 35.4985 27.9708 35.5101 28 35.5101C28.0292 35.5101 28.0572 35.4985 28.0778 35.4779C28.0984 35.4573 28.11 35.4293 28.11 35.4001C28.11 35.3709 28.0984 35.343 28.0778 35.3223C28.0572 35.3017 28.0292 35.2901 28 35.2901ZM20 35.8501C19.9751 35.8457 19.9494 35.85 19.9273 35.8623C19.9052 35.8746 19.888 35.8941 19.8786 35.9176C19.8692 35.9411 19.8682 35.9671 19.8758 35.9912C19.8833 36.0153 19.8989 36.0361 19.92 36.0501C19.9338 36.0628 19.9505 36.0717 19.9687 36.0761C19.9869 36.0805 20.0059 36.0801 20.0239 36.0751C20.0419 36.0701 20.0583 36.0606 20.0717 36.0475C20.085 36.0344 20.0947 36.0181 20.1 36.0001C20.11 35.9744 20.11 35.9458 20.1 35.9201C20.0932 35.9047 20.0829 35.891 20.07 35.8801C20.0593 35.87 20.0468 35.8622 20.033 35.857C20.0193 35.8519 20.0047 35.8495 19.99 35.8501H20V35.8501ZM28 35.8501C27.9751 35.8457 27.9494 35.85 27.9273 35.8623C27.9052 35.8746 27.888 35.8941 27.8786 35.9176C27.8692 35.9411 27.8682 35.9671 27.8758 35.9912C27.8833 36.0153 27.8989 36.0361 27.92 36.0501C27.9309 36.0604 27.9439 36.0683 27.958 36.0734C27.9721 36.0785 27.9872 36.0807 28.0022 36.0797C28.0172 36.0788 28.0318 36.0748 28.0452 36.068C28.0586 36.0612 28.0704 36.0517 28.08 36.0401C28.0903 36.0292 28.0982 36.0162 28.1033 36.0021C28.1084 35.988 28.1105 35.9729 28.1096 35.958C28.1087 35.943 28.1047 35.9283 28.0979 35.9149C28.091 35.9016 28.0816 35.8897 28.07 35.8801C28.0593 35.87 28.0468 35.8622 28.033 35.857C28.0193 35.8519 28.0047 35.8495 27.99 35.8501H28V35.8501ZM20 36.4101C19.9695 36.4101 19.9402 36.4222 19.9187 36.4438C19.8971 36.4654 19.885 36.4946 19.885 36.5251C19.885 36.5556 19.8971 36.5849 19.9187 36.6064C19.9402 36.628 19.9695 36.6401 20 36.6401C20.0305 36.6401 20.0598 36.628 20.0813 36.6064C20.1029 36.5849 20.115 36.5556 20.115 36.5251C20.115 36.4946 20.1029 36.4654 20.0813 36.4438C20.0598 36.4222 20.0305 36.4101 20 36.4101V36.4101ZM28 36.4101C27.9695 36.4101 27.9402 36.4222 27.9187 36.4438C27.8971 36.4654 27.885 36.4946 27.885 36.5251C27.885 36.5556 27.8971 36.5849 27.9187 36.6064C27.9402 36.628 27.9695 36.6401 28 36.6401C28.0305 36.6401 28.0598 36.628 28.0813 36.6064C28.1029 36.5849 28.115 36.5556 28.115 36.5251C28.115 36.4946 28.1029 36.4654 28.0813 36.4438C28.0598 36.4222 28.0305 36.4101 28 36.4101V36.4101ZM19.98 36.9801C19.9542 36.9824 19.9301 36.9936 19.9118 37.0119C19.8935 37.0302 19.8823 37.0544 19.88 37.0801C19.88 37.1106 19.8921 37.1399 19.9137 37.1614C19.9352 37.183 19.9645 37.1951 19.995 37.1951C20.0255 37.1951 20.0548 37.183 20.0763 37.1614C20.0979 37.1399 20.11 37.1106 20.11 37.0801C20.1075 37.0527 20.0948 37.0272 20.0744 37.0087C20.0541 36.9902 20.0275 36.98 20 36.9801H19.98ZM27.98 36.9801C27.9542 36.9824 27.9301 36.9936 27.9118 37.0119C27.8935 37.0302 27.8823 37.0544 27.88 37.0801C27.88 37.1106 27.8921 37.1399 27.9137 37.1614C27.9352 37.183 27.9645 37.1951 27.995 37.1951C28.0255 37.1951 28.0548 37.183 28.0763 37.1614C28.0979 37.1399 28.11 37.1106 28.11 37.0801C28.1075 37.0527 28.0948 37.0272 28.0744 37.0087C28.0541 36.9902 28.0275 36.98 28 36.9801H27.98ZM19.99 37.5301C19.9719 37.5321 19.9546 37.5381 19.9392 37.5477C19.9238 37.5574 19.9108 37.5704 19.9011 37.5858C19.8915 37.6012 19.8855 37.6186 19.8836 37.6367C19.8816 37.6548 19.8838 37.673 19.89 37.6901C19.8996 37.7111 19.9151 37.7289 19.9347 37.7414C19.9542 37.7538 19.9769 37.7603 20 37.7601C20.0305 37.7601 20.0598 37.748 20.0813 37.7264C20.1029 37.7049 20.115 37.6756 20.115 37.6451C20.115 37.6146 20.1029 37.5854 20.0813 37.5638C20.0598 37.5422 20.0305 37.5301 20 37.5301H19.99V37.5301ZM27.99 37.5301C27.9719 37.5321 27.9546 37.5381 27.9392 37.5477C27.9238 37.5574 27.9108 37.5704 27.9011 37.5858C27.8915 37.6012 27.8855 37.6186 27.8836 37.6367C27.8816 37.6548 27.8838 37.673 27.89 37.6901C27.8996 37.7111 27.9151 37.7289 27.9347 37.7414C27.9542 37.7538 27.9769 37.7603 28 37.7601C28.0305 37.7601 28.0598 37.748 28.0813 37.7264C28.1029 37.7049 28.115 37.6756 28.115 37.6451C28.115 37.6146 28.1029 37.5854 28.0813 37.5638C28.0598 37.5422 28.0305 37.5301 28 37.5301H27.99V37.5301ZM24.22 37.7301C23.7957 37.7301 23.3887 37.8987 23.0886 38.1987C22.7886 38.4988 22.62 38.9058 22.62 39.3301C22.62 39.7545 22.7886 40.1614 23.0886 40.4615C23.3887 40.7615 23.7957 40.9301 24.22 40.9301C24.6443 40.9301 25.0513 40.7615 25.3514 40.4615C25.6514 40.1614 25.82 39.7545 25.82 39.3301C25.82 38.9058 25.6514 38.4988 25.3514 38.1987C25.0513 37.8987 24.6443 37.7301 24.22 37.7301ZM19.99 38.1001C19.9669 38.1008 19.9446 38.1087 19.9262 38.1228C19.9079 38.1368 19.8945 38.1563 19.8878 38.1785C19.8812 38.2006 19.8817 38.2243 19.8892 38.2461C19.8968 38.2679 19.9111 38.2868 19.93 38.3001C19.9443 38.3101 19.9607 38.3166 19.9779 38.319C19.9952 38.3214 20.0128 38.3197 20.0292 38.314C20.0457 38.3083 20.0605 38.2988 20.0726 38.2862C20.0846 38.2736 20.0935 38.2584 20.0985 38.2417C20.1035 38.225 20.1045 38.2074 20.1014 38.1902C20.0982 38.1731 20.0911 38.157 20.0805 38.1431C20.0699 38.1293 20.0561 38.1182 20.0404 38.1107C20.0247 38.1033 20.0074 38.0996 19.99 38.1001V38.1001ZM27.99 38.1001C27.9669 38.1008 27.9446 38.1087 27.9262 38.1228C27.9079 38.1368 27.8945 38.1563 27.8878 38.1785C27.8812 38.2006 27.8817 38.2243 27.8892 38.2461C27.8968 38.2679 27.9111 38.2868 27.93 38.3001C27.9443 38.3101 27.9607 38.3166 27.9779 38.319C27.9952 38.3214 28.0128 38.3197 28.0292 38.314C28.0457 38.3083 28.0605 38.2988 28.0726 38.2862C28.0846 38.2736 28.0935 38.2584 28.0985 38.2417C28.1035 38.225 28.1045 38.2074 28.1014 38.1902C28.0982 38.1731 28.0911 38.157 28.0805 38.1431C28.0699 38.1293 28.0561 38.1182 28.0404 38.1107C28.0247 38.1033 28.0074 38.0996 27.99 38.1001V38.1001ZM19.99 38.6601C19.9746 38.6608 19.9595 38.6647 19.9458 38.6716C19.932 38.6785 19.9198 38.6882 19.91 38.7001C19.9012 38.7113 19.8948 38.7242 19.8914 38.738C19.8879 38.7518 19.8875 38.7661 19.89 38.7801C19.8905 38.8018 19.8974 38.8229 19.9099 38.8407C19.9223 38.8585 19.9398 38.8722 19.96 38.8801H20C20.0292 38.8801 20.0572 38.8685 20.0778 38.8479C20.0984 38.8273 20.11 38.7993 20.11 38.7701C20.11 38.7409 20.0984 38.713 20.0778 38.6923C20.0572 38.6717 20.0292 38.6601 20 38.6601H19.99V38.6601ZM27.99 38.6601C27.9746 38.6608 27.9595 38.6647 27.9458 38.6716C27.932 38.6785 27.9198 38.6882 27.91 38.7001C27.9012 38.7113 27.8948 38.7242 27.8914 38.738C27.8879 38.7518 27.8875 38.7661 27.89 38.7801C27.8905 38.8018 27.8974 38.8229 27.9099 38.8407C27.9223 38.8585 27.9398 38.8722 27.96 38.8801H28C28.0292 38.8801 28.0572 38.8685 28.0778 38.8479C28.0984 38.8273 28.11 38.7993 28.11 38.7701C28.11 38.7409 28.0984 38.713 28.0778 38.6923C28.0572 38.6717 28.0292 38.6601 28 38.6601H27.99V38.6601ZM19.99 39.2201C19.9666 39.2196 19.9438 39.2274 19.9255 39.242C19.9072 39.2566 19.8947 39.2772 19.89 39.3001C19.88 39.3258 19.88 39.3544 19.89 39.3801C19.8966 39.3946 19.9063 39.4074 19.9184 39.4178C19.9305 39.4282 19.9447 39.4358 19.96 39.4401H20.01C20.0307 39.4374 20.0502 39.4288 20.0663 39.4153C20.0823 39.4019 20.0941 39.3841 20.1004 39.3642C20.1067 39.3443 20.1072 39.3229 20.1018 39.3027C20.0964 39.2825 20.0854 39.2643 20.07 39.2501C20.0593 39.24 20.0468 39.2322 20.033 39.227C20.0193 39.2219 20.0047 39.2195 19.99 39.2201V39.2201ZM27.99 39.2201C27.9666 39.2196 27.9438 39.2274 27.9255 39.242C27.9072 39.2566 27.8947 39.2772 27.89 39.3001C27.88 39.3258 27.88 39.3544 27.89 39.3801C27.8966 39.3946 27.9063 39.4074 27.9184 39.4178C27.9305 39.4282 27.9447 39.4358 27.96 39.4401H28.01C28.0307 39.4374 28.0502 39.4288 28.0663 39.4153C28.0823 39.4019 28.0941 39.3841 28.1004 39.3642C28.1067 39.3443 28.1072 39.3229 28.1018 39.3027C28.0964 39.2825 28.0854 39.2643 28.07 39.2501C28.0593 39.24 28.0468 39.2322 28.033 39.227C28.0193 39.2219 28.0047 39.2195 27.99 39.2201ZM19.99 39.7801C19.9666 39.7796 19.9438 39.7874 19.9255 39.802C19.9072 39.8166 19.8947 39.8372 19.89 39.8601C19.8837 39.8743 19.8804 39.8896 19.8804 39.9051C19.8804 39.9206 19.8837 39.936 19.89 39.9501C19.8972 39.9631 19.9072 39.9744 19.9193 39.983C19.9315 39.9917 19.9453 39.9975 19.96 40.0001H20.01C20.0307 39.9974 20.0502 39.9888 20.0663 39.9753C20.0823 39.9619 20.0941 39.9441 20.1004 39.9242C20.1067 39.9043 20.1072 39.8829 20.1018 39.8627C20.0964 39.8425 20.0854 39.8243 20.07 39.8101C20.0593 39.8 20.0468 39.7922 20.033 39.787C20.0193 39.7819 20.0047 39.7795 19.99 39.7801ZM27.99 39.7801C27.9666 39.7796 27.9438 39.7874 27.9255 39.802C27.9072 39.8166 27.8947 39.8372 27.89 39.8601C27.8837 39.8743 27.8804 39.8896 27.8804 39.9051C27.8804 39.9206 27.8837 39.936 27.89 39.9501C27.8972 39.9631 27.9072 39.9744 27.9193 39.983C27.9315 39.9917 27.9453 39.9975 27.96 40.0001H28.01C28.0307 39.9974 28.0502 39.9888 28.0663 39.9753C28.0823 39.9619 28.0941 39.9441 28.1004 39.9242C28.1067 39.9043 28.1072 39.8829 28.1018 39.8627C28.0964 39.8425 28.0854 39.8243 28.07 39.8101C28.0593 39.8 28.0468 39.7922 28.033 39.787C28.0193 39.7819 28.0047 39.7795 27.99 39.7801ZM19.99 40.3501C19.9683 40.3506 19.9472 40.3575 19.9294 40.37C19.9116 40.3824 19.8979 40.3999 19.89 40.4201C19.8837 40.4343 19.8804 40.4496 19.8804 40.4651C19.8804 40.4806 19.8837 40.496 19.89 40.5101C19.8966 40.5246 19.9063 40.5374 19.9184 40.5478C19.9305 40.5582 19.9447 40.5658 19.96 40.5701H20.01C20.0329 40.5689 20.0549 40.5605 20.0728 40.5462C20.0908 40.5318 20.1038 40.5122 20.11 40.4901C20.1152 40.4725 20.1158 40.454 20.112 40.4361C20.1081 40.4181 20.0999 40.4015 20.088 40.3876C20.076 40.3737 20.0608 40.363 20.0437 40.3564C20.0266 40.3499 20.0082 40.3477 19.99 40.3501V40.3501ZM27.99 40.3501C27.9683 40.3506 27.9472 40.3575 27.9294 40.37C27.9116 40.3824 27.8979 40.3999 27.89 40.4201C27.8837 40.4343 27.8804 40.4496 27.8804 40.4651C27.8804 40.4806 27.8837 40.496 27.89 40.5101C27.8966 40.5246 27.9063 40.5374 27.9184 40.5478C27.9305 40.5582 27.9447 40.5658 27.96 40.5701H28.01C28.0329 40.5689 28.0549 40.5605 28.0728 40.5462C28.0908 40.5318 28.1038 40.5122 28.11 40.4901C28.1152 40.4725 28.1158 40.454 28.112 40.4361C28.1081 40.4181 28.0999 40.4015 28.088 40.3876C28.076 40.3737 28.0608 40.363 28.0437 40.3564C28.0266 40.3499 28.0082 40.3477 27.99 40.3501V40.3501ZM19.98 40.9101C19.9526 40.9126 19.9271 40.9253 19.9086 40.9457C19.8901 40.966 19.8799 40.9926 19.88 41.0201C19.8753 41.0379 19.8756 41.0567 19.8809 41.0743C19.8862 41.092 19.8963 41.1078 19.91 41.1201C19.9196 41.1333 19.9319 41.1442 19.9462 41.1521C19.9605 41.1599 19.9764 41.1644 19.9926 41.1654C20.0089 41.1664 20.0252 41.1637 20.0403 41.1576C20.0554 41.1515 20.069 41.1421 20.08 41.1301C20.096 41.1137 20.1065 41.0928 20.11 41.0701V41.0201C20.11 40.9909 20.0984 40.963 20.0778 40.9423C20.0572 40.9217 20.0292 40.9101 20 40.9101H19.98V40.9101ZM27.98 40.9101C27.9526 40.9126 27.9271 40.9253 27.9086 40.9457C27.8901 40.966 27.8799 40.9926 27.88 41.0201C27.8753 41.0379 27.8756 41.0567 27.8809 41.0743C27.8862 41.092 27.8963 41.1078 27.91 41.1201C27.9196 41.1333 27.9319 41.1442 27.9462 41.1521C27.9605 41.1599 27.9764 41.1644 27.9926 41.1654C28.0089 41.1664 28.0252 41.1637 28.0403 41.1576C28.0554 41.1515 28.069 41.1421 28.08 41.1301C28.096 41.1137 28.1065 41.0928 28.11 41.0701V41.0201C28.11 40.9909 28.0984 40.963 28.0778 40.9423C28.0572 40.9217 28.0292 40.9101 28 40.9101H27.98V40.9101ZM19.98 41.4701C19.9526 41.4726 19.9271 41.4853 19.9086 41.5057C19.8901 41.526 19.8799 41.5526 19.88 41.5801C19.88 41.6501 19.94 41.7001 20 41.7001C20.06 41.7001 20.11 41.6501 20.11 41.5801C20.1075 41.5527 20.0948 41.5272 20.0744 41.5087C20.0541 41.4902 20.0275 41.48 20 41.4801H19.98V41.4701ZM27.98 41.4701C27.9526 41.4726 27.9271 41.4853 27.9086 41.5057C27.8901 41.526 27.8799 41.5526 27.88 41.5801C27.88 41.6501 27.94 41.7001 28 41.7001C28.06 41.7001 28.11 41.6501 28.11 41.5801C28.1075 41.5527 28.0948 41.5272 28.0744 41.5087C28.0541 41.4902 28.0275 41.48 28 41.4801H27.98V41.4701ZM20 42.0301C19.9766 42.0285 19.9533 42.0345 19.9335 42.0471C19.9137 42.0597 19.8985 42.0782 19.89 42.1001C19.8789 42.121 19.8748 42.145 19.8784 42.1684C19.882 42.1919 19.8931 42.2135 19.91 42.2301C19.9218 42.2415 19.936 42.2501 19.9516 42.2553C19.9672 42.2605 19.9837 42.2621 20 42.2601C20.0305 42.2601 20.0598 42.248 20.0813 42.2264C20.1029 42.2049 20.115 42.1756 20.115 42.1451C20.115 42.1146 20.1029 42.0854 20.0813 42.0638C20.0598 42.0422 20.0305 42.0301 20 42.0301V42.0301ZM28 42.0301C27.9766 42.0285 27.9533 42.0345 27.9335 42.0471C27.9137 42.0597 27.8985 42.0782 27.89 42.1001C27.8789 42.121 27.8748 42.145 27.8784 42.1684C27.882 42.1919 27.8931 42.2135 27.91 42.2301C27.9218 42.2415 27.936 42.2501 27.9516 42.2553C27.9672 42.2605 27.9837 42.2621 28 42.2601C28.0305 42.2601 28.0598 42.248 28.0813 42.2264C28.1029 42.2049 28.115 42.1756 28.115 42.1451C28.115 42.1146 28.1029 42.0854 28.0813 42.0638C28.0598 42.0422 28.0305 42.0301 28 42.0301V42.0301ZM20 42.6001C19.9783 42.6006 19.9572 42.6075 19.9394 42.62C19.9216 42.6324 19.9079 42.6499 19.9 42.6701C19.8937 42.6843 19.8904 42.6996 19.8904 42.7151C19.8904 42.7306 19.8937 42.746 19.9 42.7601C19.91 42.7801 19.93 42.8001 19.96 42.8101L20.01 42.8201C20.0329 42.8189 20.0549 42.8105 20.0728 42.7962C20.0908 42.7818 20.1038 42.7622 20.11 42.7401C20.1152 42.7225 20.1158 42.704 20.112 42.6861C20.1081 42.6681 20.0999 42.6515 20.088 42.6376C20.076 42.6237 20.0608 42.613 20.0437 42.6064C20.0266 42.5999 20.0082 42.5977 19.99 42.6001H20V42.6001ZM28 42.6001C27.9783 42.6006 27.9572 42.6075 27.9394 42.62C27.9216 42.6324 27.9079 42.6499 27.9 42.6701C27.8937 42.6843 27.8904 42.6996 27.8904 42.7151C27.8904 42.7306 27.8937 42.746 27.9 42.7601C27.91 42.7801 27.93 42.8001 27.96 42.8101L28.01 42.8201C28.0329 42.8189 28.0549 42.8105 28.0728 42.7962C28.0908 42.7818 28.1038 42.7622 28.11 42.7401C28.1152 42.7225 28.1158 42.704 28.112 42.6861C28.1081 42.6681 28.0999 42.6515 28.088 42.6376C28.076 42.6237 28.0608 42.613 28.0437 42.6064C28.0266 42.5999 28.0082 42.5977 27.99 42.6001H28V42.6001Z" fill="#333333"/>
</g>
<defs>
<clipPath id="clip0">
<rect width="48" height="48" fill="white"/>
</clipPath>
</defs>
</svg>
