<svg width="48" height="48" viewBox="0 0 48 48" fill="none" xmlns="http://www.w3.org/2000/svg">
<path d="M23.814 4.1029C20.502 4.1119 17.252 4.1269 14.146 4.1249C13.277 4.1249 12.58 4.8239 12.58 5.6929V42.5549C12.58 43.4239 13.277 44.1249 14.146 44.1249H33.852C34.721 44.1249 35.42 43.4239 35.42 42.5549V5.6929C35.42 4.8229 34.721 4.1249 33.852 4.1249C30.501 4.0929 27.127 4.0949 23.815 4.1029H23.814ZM19.992 5.1659H20C20.0294 5.16695 20.0571 5.17948 20.0773 5.20078C20.0975 5.22209 20.1085 5.25048 20.108 5.27983C20.1075 5.30918 20.0954 5.33716 20.0745 5.35773C20.0536 5.3783 20.0254 5.38983 19.996 5.38983C19.9667 5.38983 19.9385 5.3783 19.9175 5.35773C19.8966 5.33716 19.8846 5.30918 19.884 5.27983C19.8835 5.25048 19.8945 5.22209 19.9147 5.20078C19.9349 5.17948 19.9627 5.16695 19.992 5.1659ZM27.992 5.1659H28C28.0294 5.16695 28.0571 5.17948 28.0773 5.20078C28.0975 5.22209 28.1085 5.25048 28.108 5.27983C28.1075 5.30918 28.0954 5.33716 28.0745 5.35773C28.0536 5.3783 28.0254 5.38983 27.996 5.38983C27.9667 5.38983 27.9385 5.3783 27.9175 5.35773C27.8966 5.33716 27.8846 5.30918 27.884 5.27983C27.8835 5.25048 27.8945 5.22209 27.9147 5.20078C27.9349 5.17948 27.9627 5.16695 27.992 5.1659ZM19.992 5.7279H20C20.0294 5.72895 20.0571 5.74148 20.0773 5.76278C20.0975 5.78409 20.1085 5.81248 20.108 5.84183C20.1075 5.87118 20.0954 5.89916 20.0745 5.91973C20.0536 5.9403 20.0254 5.95183 19.996 5.95183C19.9667 5.95183 19.9385 5.9403 19.9175 5.91973C19.8966 5.89916 19.8846 5.87118 19.884 5.84183C19.8835 5.81248 19.8945 5.78409 19.9147 5.76278C19.9349 5.74148 19.9627 5.72895 19.992 5.7279ZM27.992 5.7279H28C28.0294 5.72895 28.0571 5.74148 28.0773 5.76278C28.0975 5.78409 28.1085 5.81248 28.108 5.84183C28.1075 5.87118 28.0954 5.89916 28.0745 5.91973C28.0536 5.9403 28.0254 5.95183 27.996 5.95183C27.9667 5.95183 27.9385 5.9403 27.9175 5.91973C27.8966 5.89916 27.8846 5.87118 27.884 5.84183C27.8835 5.81248 27.8945 5.78409 27.9147 5.76278C27.9349 5.74148 27.9627 5.72895 27.992 5.7279ZM19.982 6.2909H20C20.061 6.2909 20.11 6.3409 20.111 6.4019C20.111 6.42331 20.1048 6.44426 20.0932 6.46226C20.0816 6.48026 20.0651 6.49456 20.0456 6.50346C20.0261 6.51237 20.0045 6.5155 19.9833 6.51249C19.9621 6.50949 19.9422 6.50047 19.926 6.4865C19.9097 6.47253 19.8978 6.45421 19.8917 6.43369C19.8856 6.41318 19.8855 6.39134 19.8914 6.37075C19.8973 6.35017 19.9089 6.3317 19.925 6.31755C19.9411 6.3034 19.9609 6.29415 19.982 6.2909ZM27.982 6.2909H28C28.061 6.2909 28.11 6.3409 28.111 6.4019C28.111 6.42331 28.1048 6.44426 28.0932 6.46226C28.0816 6.48026 28.0651 6.49456 28.0456 6.50346C28.0261 6.51237 28.0045 6.5155 27.9833 6.51249C27.9621 6.50949 27.9422 6.50047 27.926 6.4865C27.9097 6.47253 27.8978 6.45421 27.8917 6.43369C27.8856 6.41318 27.8855 6.39134 27.8914 6.37075C27.8973 6.35017 27.9089 6.3317 27.925 6.31755C27.9411 6.3034 27.9609 6.29415 27.982 6.2909ZM20.002 6.8509C20.0168 6.85103 20.0314 6.85407 20.045 6.85985C20.0586 6.86562 20.0709 6.87402 20.0813 6.88456C20.0916 6.8951 20.0998 6.90757 20.1053 6.92127C20.1109 6.93497 20.1136 6.94963 20.1135 6.9644C20.1134 6.97917 20.1103 6.99378 20.1046 7.00738C20.0988 7.02098 20.0904 7.0333 20.0799 7.04366C20.0693 7.05401 20.0568 7.06219 20.0431 7.06772C20.0294 7.07325 20.0148 7.07603 20 7.0759C19.9702 7.07564 19.9417 7.06353 19.9208 7.04224C19.8999 7.02096 19.8883 6.99224 19.8885 6.9624C19.8888 6.93256 19.9009 6.90406 19.9222 6.88314C19.9435 6.86223 19.9722 6.85064 20.002 6.8509ZM28.002 6.8509C28.0168 6.85103 28.0314 6.85407 28.045 6.85985C28.0586 6.86562 28.0709 6.87402 28.0813 6.88456C28.0916 6.8951 28.0998 6.90757 28.1053 6.92127C28.1109 6.93497 28.1136 6.94963 28.1135 6.9644C28.1134 6.97917 28.1103 6.99378 28.1046 7.00738C28.0988 7.02098 28.0904 7.0333 28.0799 7.04366C28.0693 7.05401 28.0568 7.06219 28.0431 7.06772C28.0294 7.07325 28.0148 7.07603 28 7.0759C27.9702 7.07564 27.9417 7.06353 27.9208 7.04224C27.8999 7.02096 27.8883 6.99224 27.8885 6.9624C27.8888 6.93256 27.9009 6.90406 27.9222 6.88314C27.9435 6.86223 27.9722 6.85064 28.002 6.8509ZM19.992 7.4139H20C20.0294 7.41495 20.0571 7.42748 20.0773 7.44878C20.0975 7.47009 20.1085 7.49848 20.108 7.52783C20.1075 7.55718 20.0954 7.58516 20.0745 7.60573C20.0536 7.6263 20.0254 7.63783 19.996 7.63783C19.9667 7.63783 19.9385 7.6263 19.9175 7.60573C19.8966 7.58516 19.8846 7.55718 19.884 7.52783C19.8835 7.49848 19.8945 7.47009 19.9147 7.44878C19.9349 7.42748 19.9627 7.41495 19.992 7.4139ZM27.992 7.4139H28C28.0294 7.41495 28.0571 7.42748 28.0773 7.44878C28.0975 7.47009 28.1085 7.49848 28.108 7.52783C28.1075 7.55718 28.0954 7.58516 28.0745 7.60573C28.0536 7.6263 28.0254 7.63783 27.996 7.63783C27.9667 7.63783 27.9385 7.6263 27.9175 7.60573C27.8966 7.58516 27.8846 7.55718 27.884 7.52783C27.8835 7.49848 27.8945 7.47009 27.9147 7.44878C27.9349 7.42748 27.9627 7.41495 27.992 7.4139ZM19.992 7.9739H20C20.0294 7.97495 20.0571 7.98748 20.0773 8.00878C20.0975 8.03009 20.1085 8.05848 20.108 8.08783C20.1075 8.11718 20.0954 8.14516 20.0745 8.16573C20.0536 8.1863 20.0254 8.19783 19.996 8.19783C19.9667 8.19783 19.9385 8.1863 19.9175 8.16573C19.8966 8.14516 19.8846 8.11718 19.884 8.08783C19.8835 8.05848 19.8945 8.03009 19.9147 8.00878C19.9349 7.98748 19.9627 7.97495 19.992 7.9739ZM27.992 7.9739H28C28.0294 7.97495 28.0571 7.98748 28.0773 8.00878C28.0975 8.03009 28.1085 8.05848 28.108 8.08783C28.1075 8.11718 28.0954 8.14516 28.0745 8.16573C28.0536 8.1863 28.0254 8.19783 27.996 8.19783C27.9667 8.19783 27.9385 8.1863 27.9175 8.16573C27.8966 8.14516 27.8846 8.11718 27.884 8.08783C27.8835 8.05848 27.8945 8.03009 27.9147 8.00878C27.9349 7.98748 27.9627 7.97495 27.992 7.9739ZM19.992 8.5369H20C20.0294 8.53795 20.0571 8.55048 20.0773 8.57178C20.0975 8.59309 20.1085 8.62148 20.108 8.65083C20.1075 8.68018 20.0954 8.70816 20.0745 8.72873C20.0536 8.7493 20.0254 8.76083 19.996 8.76083C19.9667 8.76083 19.9385 8.7493 19.9175 8.72873C19.8966 8.70816 19.8846 8.68018 19.884 8.65083C19.8835 8.62148 19.8945 8.59309 19.9147 8.57178C19.9349 8.55048 19.9627 8.53795 19.992 8.5369ZM27.992 8.5369H28C28.0294 8.53795 28.0571 8.55048 28.0773 8.57178C28.0975 8.59309 28.1085 8.62148 28.108 8.65083C28.1075 8.68018 28.0954 8.70816 28.0745 8.72873C28.0536 8.7493 28.0254 8.76083 27.996 8.76083C27.9667 8.76083 27.9385 8.7493 27.9175 8.72873C27.8966 8.70816 27.8846 8.68018 27.884 8.65083C27.8835 8.62148 27.8945 8.59309 27.9147 8.57178C27.9349 8.55048 27.9627 8.53795 27.992 8.5369ZM19.992 9.0999H20C20.0294 9.10095 20.0571 9.11348 20.0773 9.13478C20.0975 9.15609 20.1085 9.18448 20.108 9.21383C20.1075 9.24318 20.0954 9.27116 20.0745 9.29173C20.0536 9.3123 20.0254 9.32383 19.996 9.32383C19.9667 9.32383 19.9385 9.3123 19.9175 9.29173C19.8966 9.27116 19.8846 9.24318 19.884 9.21383C19.8835 9.18448 19.8945 9.15609 19.9147 9.13478C19.9349 9.11348 19.9627 9.10095 19.992 9.0999ZM27.992 9.0999H28C28.0294 9.10095 28.0571 9.11348 28.0773 9.13478C28.0975 9.15609 28.1085 9.18448 28.108 9.21383C28.1075 9.24318 28.0954 9.27116 28.0745 9.29173C28.0536 9.3123 28.0254 9.32383 27.996 9.32383C27.9667 9.32383 27.9385 9.3123 27.9175 9.29173C27.8966 9.27116 27.8846 9.24318 27.884 9.21383C27.8835 9.18448 27.8945 9.15609 27.9147 9.13478C27.9349 9.11348 27.9627 9.10095 27.992 9.0999ZM19.992 9.6619H20C20.0294 9.66295 20.0571 9.67548 20.0773 9.69678C20.0975 9.71809 20.1085 9.74648 20.108 9.77583C20.1075 9.80518 20.0954 9.83316 20.0745 9.85373C20.0536 9.8743 20.0254 9.88583 19.996 9.88583C19.9667 9.88583 19.9385 9.8743 19.9175 9.85373C19.8966 9.83316 19.8846 9.80518 19.884 9.77583C19.8835 9.74648 19.8945 9.71809 19.9147 9.69678C19.9349 9.67548 19.9627 9.66295 19.992 9.6619ZM27.992 9.6619H28C28.0294 9.66295 28.0571 9.67548 28.0773 9.69678C28.0975 9.71809 28.1085 9.74648 28.108 9.77583C28.1075 9.80518 28.0954 9.83316 28.0745 9.85373C28.0536 9.8743 28.0254 9.88583 27.996 9.88583C27.9667 9.88583 27.9385 9.8743 27.9175 9.85373C27.8966 9.83316 27.8846 9.80518 27.884 9.77583C27.8835 9.74648 27.8945 9.71809 27.9147 9.69678C27.9349 9.67548 27.9627 9.66295 27.992 9.6619ZM19.98 10.2249H20C20.061 10.2249 20.11 10.2769 20.111 10.3379C20.111 10.3676 20.0992 10.3961 20.0782 10.4171C20.0572 10.4381 20.0287 10.4499 19.999 10.4499C19.9693 10.4499 19.9408 10.4381 19.9198 10.4171C19.8988 10.3961 19.887 10.3676 19.887 10.3379C19.887 10.2829 19.926 10.2319 19.98 10.2249ZM27.98 10.2249H28C28.061 10.2249 28.11 10.2769 28.111 10.3379C28.111 10.3676 28.0992 10.3961 28.0782 10.4171C28.0572 10.4381 28.0287 10.4499 27.999 10.4499C27.9693 10.4499 27.9408 10.4381 27.9198 10.4171C27.8988 10.3961 27.887 10.3676 27.887 10.3379C27.887 10.2829 27.926 10.2319 27.98 10.2249ZM20.002 10.7849C20.064 10.7849 20.114 10.8379 20.113 10.8999C20.113 10.9144 20.1101 10.9288 20.1045 10.9422C20.099 10.9556 20.0908 10.9678 20.0804 10.978C20.0701 10.9883 20.0579 10.9963 20.0444 11.0018C20.031 11.0073 20.0165 11.01 20.002 11.0099C19.9873 11.0103 19.9727 11.0078 19.959 11.0024C19.9453 10.9971 19.9328 10.989 19.9223 10.9788C19.9118 10.9685 19.9034 10.9562 19.8977 10.9427C19.892 10.9292 19.889 10.9146 19.889 10.8999C19.889 10.8369 19.939 10.7839 20.002 10.7849ZM28.002 10.7849C28.064 10.7849 28.114 10.8379 28.113 10.8999C28.113 10.9144 28.1101 10.9288 28.1045 10.9422C28.099 10.9556 28.0908 10.9678 28.0804 10.978C28.0701 10.9883 28.0579 10.9963 28.0444 11.0018C28.031 11.0073 28.0165 11.01 28.002 11.0099C27.9873 11.0103 27.9727 11.0078 27.959 11.0024C27.9453 10.9971 27.9328 10.989 27.9223 10.9788C27.9118 10.9685 27.9034 10.9562 27.8977 10.9427C27.892 10.9292 27.889 10.9146 27.889 10.8999C27.889 10.8369 27.939 10.7839 28.002 10.7849ZM20.002 11.3479C20.0167 11.348 20.0313 11.3511 20.0448 11.3568C20.0583 11.3626 20.0706 11.3709 20.0809 11.3814C20.0912 11.3919 20.0994 11.4043 20.1049 11.418C20.1104 11.4316 20.1131 11.4462 20.113 11.4609C20.1129 11.4756 20.1099 11.4901 20.1041 11.5037C20.0984 11.5172 20.09 11.5295 20.0795 11.5398C20.069 11.5501 20.0566 11.5583 20.043 11.5638C20.0293 11.5693 20.0147 11.572 20 11.5719C19.9703 11.5716 19.9419 11.5596 19.9211 11.5384C19.9003 11.5172 19.8888 11.4886 19.889 11.4589C19.8893 11.4292 19.9013 11.4008 19.9225 11.38C19.9437 11.3592 19.9723 11.3476 20.002 11.3479ZM28.002 11.3479C28.0167 11.348 28.0313 11.3511 28.0448 11.3568C28.0583 11.3626 28.0706 11.3709 28.0809 11.3814C28.0912 11.3919 28.0994 11.4043 28.1049 11.418C28.1104 11.4316 28.1131 11.4462 28.113 11.4609C28.1129 11.4756 28.1099 11.4901 28.1041 11.5037C28.0984 11.5172 28.09 11.5295 28.0795 11.5398C28.069 11.5501 28.0566 11.5583 28.043 11.5638C28.0293 11.5693 28.0147 11.572 28 11.5719C27.9703 11.5716 27.9419 11.5596 27.9211 11.5384C27.9003 11.5172 27.8888 11.4886 27.889 11.4589C27.8893 11.4292 27.9013 11.4008 27.9225 11.38C27.9437 11.3592 27.9723 11.3476 28.002 11.3479ZM19.992 11.9099C20.0075 11.9088 20.023 11.9109 20.0376 11.9161C20.0522 11.9213 20.0655 11.9295 20.0768 11.9401C20.0881 11.9507 20.097 11.9635 20.1031 11.9778C20.1092 11.9921 20.1122 12.0074 20.112 12.0229C20.111 12.0849 20.062 12.1359 20 12.1369C19.9715 12.1354 19.9446 12.1233 19.9246 12.103C19.9046 12.0827 19.893 12.0556 19.892 12.0271C19.891 11.9986 19.9007 11.9707 19.9192 11.949C19.9377 11.9273 19.9637 11.9134 19.992 11.9099ZM27.992 11.9099C28.0075 11.9088 28.023 11.9109 28.0376 11.9161C28.0522 11.9213 28.0655 11.9295 28.0768 11.9401C28.0881 11.9507 28.097 11.9635 28.1031 11.9778C28.1092 11.9921 28.1122 12.0074 28.112 12.0229C28.111 12.0849 28.062 12.1359 28 12.1369C27.9715 12.1354 27.9446 12.1233 27.9246 12.103C27.9046 12.0827 27.893 12.0556 27.892 12.0271C27.891 11.9986 27.9007 11.9707 27.9192 11.949C27.9377 11.9273 27.9637 11.9134 27.992 11.9099ZM16.619 12.0429C16.8324 12.0376 17.0448 12.075 17.2435 12.153C17.4422 12.231 17.6233 12.3479 17.7762 12.497C17.929 12.646 18.0504 12.8242 18.1334 13.0209C18.2163 13.2176 18.259 13.4289 18.259 13.6424C18.259 13.8559 18.2163 14.0672 18.1334 14.2639C18.0504 14.4606 17.929 14.6388 17.7762 14.7878C17.6233 14.9369 17.4422 15.0538 17.2435 15.1318C17.0448 15.2098 16.8324 15.2472 16.619 15.2419C16.1947 15.2419 15.7877 15.0733 15.4876 14.7733C15.1876 14.4732 15.019 14.0662 15.019 13.6419C15.019 13.2176 15.1876 12.8106 15.4876 12.5105C15.7877 12.2105 16.1947 12.0419 16.619 12.0419V12.0429ZM24 12.0429C24.2134 12.0376 24.4258 12.075 24.6245 12.153C24.8232 12.231 25.0043 12.3479 25.1572 12.497C25.31 12.646 25.4314 12.8242 25.5144 13.0209C25.5973 13.2176 25.64 13.4289 25.64 13.6424C25.64 13.8559 25.5973 14.0672 25.5144 14.2639C25.4314 14.4606 25.31 14.6388 25.1572 14.7878C25.0043 14.9369 24.8232 15.0538 24.6245 15.1318C24.4258 15.2098 24.2134 15.2472 24 15.2419C23.5757 15.2419 23.1687 15.0733 22.8686 14.7733C22.5686 14.4732 22.4 14.0662 22.4 13.6419C22.4 13.2176 22.5686 12.8106 22.8686 12.5105C23.1687 12.2105 23.5757 12.0419 24 12.0419V12.0429ZM31.38 12.0429C31.5934 12.0375 31.8058 12.0749 32.0045 12.1528C32.2033 12.2307 32.3844 12.3476 32.5373 12.4966C32.6902 12.6456 32.8117 12.8237 32.8947 13.0204C32.9777 13.2171 33.0204 13.4284 33.0205 13.6419C33.0206 13.8554 32.9779 14.0667 32.8951 14.2634C32.8122 14.4602 32.6908 14.6384 32.538 14.7875C32.3852 14.9366 32.2042 15.0536 32.0054 15.1316C31.8067 15.2097 31.5944 15.2472 31.381 15.2419C30.9567 15.2419 30.5497 15.0733 30.2496 14.7733C29.9496 14.4732 29.781 14.0662 29.781 13.6419C29.781 13.2176 29.9496 12.8106 30.2496 12.5105C30.5497 12.2105 30.9567 12.0419 31.381 12.0419L31.38 12.0429ZM19.992 12.4729H20C20.062 12.4729 20.112 12.5229 20.111 12.5859C20.111 12.6469 20.061 12.6989 20 12.6989C19.9724 12.6963 19.9467 12.6838 19.9277 12.6637C19.9086 12.6435 19.8976 12.6171 19.8966 12.5894C19.8956 12.5617 19.9048 12.5346 19.9223 12.5132C19.9399 12.4917 19.9647 12.4774 19.992 12.4729ZM27.992 12.4729H28C28.062 12.4729 28.112 12.5229 28.111 12.5859C28.111 12.6469 28.061 12.6989 28 12.6989C27.9724 12.6963 27.9467 12.6838 27.9277 12.6637C27.9086 12.6435 27.8976 12.6171 27.8966 12.5894C27.8956 12.5617 27.9048 12.5346 27.9223 12.5132C27.9399 12.4917 27.9647 12.4774 27.992 12.4729ZM19.992 13.0349H20C20.0294 13.0359 20.0571 13.0485 20.0773 13.0698C20.0975 13.0911 20.1085 13.1195 20.108 13.1488C20.1075 13.1782 20.0954 13.2062 20.0745 13.2267C20.0536 13.2473 20.0254 13.2588 19.996 13.2588C19.9667 13.2588 19.9385 13.2473 19.9175 13.2267C19.8966 13.2062 19.8846 13.1782 19.884 13.1488C19.8835 13.1195 19.8945 13.0911 19.9147 13.0698C19.9349 13.0485 19.9627 13.0359 19.992 13.0349ZM27.992 13.0349H28C28.0294 13.0359 28.0571 13.0485 28.0773 13.0698C28.0975 13.0911 28.1085 13.1195 28.108 13.1488C28.1075 13.1782 28.0954 13.2062 28.0745 13.2267C28.0536 13.2473 28.0254 13.2588 27.996 13.2588C27.9667 13.2588 27.9385 13.2473 27.9175 13.2267C27.8966 13.2062 27.8846 13.1782 27.884 13.1488C27.8835 13.1195 27.8945 13.0911 27.9147 13.0698C27.9349 13.0485 27.9627 13.0359 27.992 13.0349ZM19.992 13.5979H20C20.0294 13.5989 20.0571 13.6115 20.0773 13.6328C20.0975 13.6541 20.1085 13.6825 20.108 13.7118C20.1075 13.7412 20.0954 13.7692 20.0745 13.7897C20.0536 13.8103 20.0254 13.8218 19.996 13.8218C19.9667 13.8218 19.9385 13.8103 19.9175 13.7897C19.8966 13.7692 19.8846 13.7412 19.884 13.7118C19.8835 13.6825 19.8945 13.6541 19.9147 13.6328C19.9349 13.6115 19.9627 13.5989 19.992 13.5979ZM27.992 13.5979H28C28.0294 13.5989 28.0571 13.6115 28.0773 13.6328C28.0975 13.6541 28.1085 13.6825 28.108 13.7118C28.1075 13.7412 28.0954 13.7692 28.0745 13.7897C28.0536 13.8103 28.0254 13.8218 27.996 13.8218C27.9667 13.8218 27.9385 13.8103 27.9175 13.7897C27.8966 13.7692 27.8846 13.7412 27.884 13.7118C27.8835 13.6825 27.8945 13.6541 27.9147 13.6328C27.9349 13.6115 27.9627 13.5989 27.992 13.5979ZM19.98 14.7229H20C20.061 14.7229 20.11 14.7729 20.111 14.8329C20.111 14.8626 20.0992 14.8911 20.0782 14.9121C20.0572 14.9331 20.0287 14.9449 19.999 14.9449C19.9693 14.9449 19.9408 14.9331 19.9198 14.9121C19.8988 14.8911 19.887 14.8626 19.887 14.8329C19.887 14.7789 19.926 14.7299 19.98 14.7229ZM27.98 14.7229H28C28.061 14.7229 28.11 14.7729 28.111 14.8329C28.111 14.8626 28.0992 14.8911 28.0782 14.9121C28.0572 14.9331 28.0287 14.9449 27.999 14.9449C27.9693 14.9449 27.9408 14.9331 27.9198 14.9121C27.8988 14.8911 27.887 14.8626 27.887 14.8329C27.887 14.7789 27.926 14.7299 27.98 14.7229ZM19.98 15.2849H20C20.061 15.2849 20.11 15.3349 20.111 15.3959C20.1109 15.4173 20.1047 15.4382 20.0932 15.4561C20.0816 15.4741 20.0651 15.4883 20.0457 15.4972C20.0263 15.5062 20.0047 15.5093 19.9836 15.5064C19.9624 15.5034 19.9425 15.4945 19.9263 15.4806C19.91 15.4667 19.8981 15.4485 19.8919 15.4281C19.8857 15.4076 19.8854 15.3859 19.8912 15.3653C19.8969 15.3447 19.9084 15.3262 19.9243 15.312C19.9403 15.2977 19.9599 15.2883 19.981 15.2849H19.98ZM27.98 15.2849H28C28.061 15.2849 28.11 15.3349 28.111 15.3959C28.1109 15.4173 28.1047 15.4382 28.0932 15.4561C28.0816 15.4741 28.0651 15.4883 28.0457 15.4972C28.0263 15.5062 28.0047 15.5093 27.9836 15.5064C27.9624 15.5034 27.9425 15.4945 27.9263 15.4806C27.91 15.4667 27.8981 15.4485 27.8919 15.4281C27.8857 15.4076 27.8854 15.3859 27.8912 15.3653C27.8969 15.3447 27.9084 15.3262 27.9243 15.312C27.9403 15.2977 27.9599 15.2883 27.981 15.2849H27.98ZM20.002 15.8449C20.0319 15.8452 20.0604 15.8573 20.0813 15.8786C20.1022 15.8998 20.1138 15.9286 20.1135 15.9584C20.1133 15.9882 20.1011 16.0167 20.0799 16.0377C20.0586 16.0586 20.0299 16.0702 20 16.0699C19.9703 16.0696 19.9419 16.0576 19.9211 16.0364C19.9003 16.0152 19.8888 15.9866 19.889 15.9569C19.8893 15.9272 19.9013 15.8988 19.9225 15.878C19.9437 15.8572 19.9723 15.8456 20.002 15.8459V15.8449ZM28.002 15.8449C28.0319 15.8452 28.0604 15.8573 28.0813 15.8786C28.1022 15.8998 28.1138 15.9286 28.1135 15.9584C28.1133 15.9882 28.1011 16.0167 28.0799 16.0377C28.0586 16.0586 28.0299 16.0702 28 16.0699C27.9703 16.0696 27.9419 16.0576 27.9211 16.0364C27.9003 16.0152 27.8888 15.9866 27.889 15.9569C27.8893 15.9272 27.9013 15.8988 27.9225 15.878C27.9437 15.8572 27.9723 15.8456 28.002 15.8459V15.8449ZM16.619 17.2769C16.8324 17.2716 17.0448 17.309 17.2435 17.387C17.4422 17.465 17.6233 17.5819 17.7762 17.731C17.929 17.88 18.0504 18.0582 18.1334 18.2549C18.2163 18.4516 18.259 18.6629 18.259 18.8764C18.259 19.0899 18.2163 19.3012 18.1334 19.4979C18.0504 19.6946 17.929 19.8728 17.7762 20.0218C17.6233 20.1709 17.4422 20.2878 17.2435 20.3658C17.0448 20.4438 16.8324 20.4812 16.619 20.4759C16.2017 20.4655 15.805 20.2924 15.5136 19.9935C15.2221 19.6947 15.059 19.2938 15.059 18.8764C15.059 18.459 15.2221 18.0581 15.5136 17.7593C15.805 17.4604 16.2017 17.2873 16.619 17.2769ZM24 17.2769C24.2134 17.2716 24.4258 17.309 24.6245 17.387C24.8232 17.465 25.0043 17.5819 25.1572 17.731C25.31 17.88 25.4314 18.0582 25.5144 18.2549C25.5973 18.4516 25.64 18.6629 25.64 18.8764C25.64 19.0899 25.5973 19.3012 25.5144 19.4979C25.4314 19.6946 25.31 19.8728 25.1572 20.0218C25.0043 20.1709 24.8232 20.2878 24.6245 20.3658C24.4258 20.4438 24.2134 20.4812 24 20.4759C23.5827 20.4655 23.186 20.2924 22.8946 19.9935C22.6031 19.6947 22.44 19.2938 22.44 18.8764C22.44 18.459 22.6031 18.0581 22.8946 17.7593C23.186 17.4604 23.5827 17.2873 24 17.2769ZM31.38 17.2769C31.5901 17.2768 31.7982 17.3182 31.9923 17.3985C32.1865 17.4788 32.3629 17.5966 32.5115 17.7452C32.6602 17.8937 32.7781 18.07 32.8585 18.2641C32.939 18.4582 32.9805 18.6663 32.9805 18.8764C32.9806 19.0865 32.9393 19.2946 32.8589 19.4887C32.7786 19.6829 32.6608 19.8593 32.5122 20.0079C32.3637 20.1565 32.1874 20.2744 31.9933 20.3549C31.7992 20.4354 31.5911 20.4768 31.381 20.4769C30.9567 20.4769 30.5497 20.3083 30.2496 20.0083C29.9496 19.7082 29.781 19.3012 29.781 18.8769C29.781 18.4526 29.9496 18.0456 30.2496 17.7455C30.5497 17.4455 30.9567 17.2769 31.381 17.2769H31.38ZM19.992 17.5329C20.0073 17.5318 20.0226 17.5339 20.0371 17.5389C20.0516 17.544 20.0648 17.552 20.0761 17.5624C20.0873 17.5728 20.0963 17.5854 20.1025 17.5994C20.1087 17.6134 20.1119 17.6286 20.112 17.6439C20.112 17.6737 20.1002 17.7024 20.0791 17.7234C20.058 17.7445 20.0294 17.7564 19.9995 17.7564C19.9697 17.7564 19.9411 17.7445 19.92 17.7234C19.8989 17.7024 19.887 17.6737 19.887 17.6439C19.887 17.5859 19.933 17.5369 19.992 17.5339V17.5329ZM27.992 17.5329C28.0073 17.5318 28.0226 17.5339 28.0371 17.5389C28.0516 17.544 28.0648 17.552 28.0761 17.5624C28.0873 17.5728 28.0963 17.5854 28.1025 17.5994C28.1087 17.6134 28.1119 17.6286 28.112 17.6439C28.112 17.6737 28.1002 17.7024 28.0791 17.7234C28.058 17.7445 28.0294 17.7564 27.9995 17.7564C27.9697 17.7564 27.9411 17.7445 27.92 17.7234C27.8989 17.7024 27.887 17.6737 27.887 17.6439C27.887 17.5859 27.933 17.5369 27.992 17.5339V17.5329ZM19.992 18.6579C20.0073 18.6568 20.0226 18.6589 20.0371 18.6639C20.0516 18.669 20.0648 18.677 20.0761 18.6874C20.0873 18.6978 20.0963 18.7104 20.1025 18.7244C20.1087 18.7384 20.1119 18.7536 20.112 18.7689C20.1124 18.7908 20.1063 18.8123 20.0945 18.8307C20.0828 18.8492 20.0659 18.8638 20.0459 18.8728C20.0259 18.8818 20.0038 18.8847 19.9822 18.8812C19.9606 18.8777 19.9405 18.868 19.9243 18.8532C19.9082 18.8384 19.8968 18.8192 19.8914 18.798C19.8861 18.7768 19.8871 18.7544 19.8943 18.7338C19.9015 18.7131 19.9146 18.695 19.9319 18.6817C19.9493 18.6684 19.9702 18.6605 19.992 18.6589V18.6579ZM27.992 18.6579C28.0073 18.6568 28.0226 18.6589 28.0371 18.6639C28.0516 18.669 28.0648 18.677 28.0761 18.6874C28.0873 18.6978 28.0963 18.7104 28.1025 18.7244C28.1087 18.7384 28.1119 18.7536 28.112 18.7689C28.1124 18.7908 28.1063 18.8123 28.0945 18.8307C28.0828 18.8492 28.0659 18.8638 28.0459 18.8728C28.0259 18.8818 28.0038 18.8847 27.9822 18.8812C27.9606 18.8777 27.9405 18.868 27.9243 18.8532C27.9082 18.8384 27.8968 18.8192 27.8914 18.798C27.8861 18.7768 27.8871 18.7544 27.8943 18.7338C27.9015 18.7131 27.9146 18.695 27.9319 18.6817C27.9493 18.6684 27.9702 18.6605 27.992 18.6589V18.6579ZM19.98 19.2209H20C20.0222 19.2211 20.0438 19.2279 20.0622 19.2404C20.0805 19.2529 20.0947 19.2706 20.103 19.2912C20.1112 19.3118 20.1132 19.3344 20.1086 19.3561C20.104 19.3778 20.093 19.3977 20.0771 19.4132C20.0612 19.4286 20.0411 19.439 20.0192 19.4431C19.9974 19.4471 19.9749 19.4445 19.9545 19.4357C19.9342 19.4269 19.9169 19.4122 19.9048 19.3936C19.8928 19.3749 19.8866 19.3531 19.887 19.3309C19.887 19.2769 19.926 19.2279 19.98 19.2209ZM27.98 19.2209H28C28.0222 19.2211 28.0438 19.2279 28.0622 19.2404C28.0805 19.2529 28.0947 19.2706 28.103 19.2912C28.1112 19.3118 28.1132 19.3344 28.1086 19.3561C28.104 19.3778 28.093 19.3977 28.0771 19.4132C28.0612 19.4286 28.0411 19.439 28.0192 19.4431C27.9974 19.4471 27.9749 19.4445 27.9545 19.4357C27.9342 19.4269 27.9169 19.4122 27.9048 19.3936C27.8928 19.3749 27.8866 19.3531 27.887 19.3309C27.887 19.2769 27.926 19.2279 27.98 19.2209ZM20.002 19.7809C20.0319 19.7812 20.0604 19.7933 20.0813 19.8146C20.1022 19.8358 20.1138 19.8646 20.1135 19.8944C20.1133 19.9242 20.1011 19.9527 20.0799 19.9737C20.0586 19.9946 20.0299 20.0062 20 20.0059C19.9852 20.0058 19.9706 20.0027 19.957 19.997C19.9434 19.9912 19.9311 19.9828 19.9208 19.9722C19.9104 19.9617 19.9022 19.9492 19.8967 19.9355C19.8912 19.9218 19.8884 19.9072 19.8885 19.8924C19.8886 19.8776 19.8917 19.863 19.8975 19.8494C19.9032 19.8358 19.9116 19.8235 19.9222 19.8131C19.9327 19.8028 19.9452 19.7946 19.9589 19.7891C19.9726 19.7835 19.9872 19.7808 20.002 19.7809ZM28.002 19.7809C28.0319 19.7812 28.0604 19.7933 28.0813 19.8146C28.1022 19.8358 28.1138 19.8646 28.1135 19.8944C28.1133 19.9242 28.1011 19.9527 28.0799 19.9737C28.0586 19.9946 28.0299 20.0062 28 20.0059C27.9852 20.0058 27.9706 20.0027 27.957 19.997C27.9434 19.9912 27.9311 19.9828 27.9208 19.9722C27.9104 19.9617 27.9022 19.9492 27.8967 19.9355C27.8912 19.9218 27.8884 19.9072 27.8885 19.8924C27.8886 19.8776 27.8917 19.863 27.8975 19.8494C27.9032 19.8358 27.9116 19.8235 27.9222 19.8131C27.9327 19.8028 27.9452 19.7946 27.9589 19.7891C27.9726 19.7835 27.9872 19.7808 28.002 19.7809ZM19.992 20.3439H20C20.0297 20.3439 20.0582 20.3557 20.0792 20.3767C20.1002 20.3977 20.112 20.4262 20.112 20.4559C20.112 20.4856 20.1002 20.5141 20.0792 20.5351C20.0582 20.5561 20.0297 20.5679 20 20.5679C19.9853 20.568 19.9707 20.5653 19.9571 20.5598C19.9434 20.5543 19.931 20.5461 19.9205 20.5358C19.91 20.5255 19.9017 20.5132 19.8959 20.4997C19.8902 20.4861 19.8871 20.4716 19.887 20.4569C19.886 20.3969 19.933 20.3469 19.992 20.3439ZM27.992 20.3439H28C28.0297 20.3439 28.0582 20.3557 28.0792 20.3767C28.1002 20.3977 28.112 20.4262 28.112 20.4559C28.112 20.4856 28.1002 20.5141 28.0792 20.5351C28.0582 20.5561 28.0297 20.5679 28 20.5679C27.9853 20.568 27.9707 20.5653 27.9571 20.5598C27.9434 20.5543 27.931 20.5461 27.9205 20.5358C27.91 20.5255 27.9017 20.5132 27.8959 20.4997C27.8902 20.4861 27.8871 20.4716 27.887 20.4569C27.886 20.3969 27.933 20.3469 27.992 20.3439ZM19.992 20.9059H20C20.0294 20.9069 20.0571 20.9195 20.0773 20.9408C20.0975 20.9621 20.1085 20.9905 20.108 21.0198C20.1075 21.0492 20.0954 21.0772 20.0745 21.0977C20.0536 21.1183 20.0254 21.1298 19.996 21.1298C19.9667 21.1298 19.9385 21.1183 19.9175 21.0977C19.8966 21.0772 19.8846 21.0492 19.884 21.0198C19.8835 20.9905 19.8945 20.9621 19.9147 20.9408C19.9349 20.9195 19.9627 20.9069 19.992 20.9059ZM27.992 20.9059H28C28.0294 20.9069 28.0571 20.9195 28.0773 20.9408C28.0975 20.9621 28.1085 20.9905 28.108 21.0198C28.1075 21.0492 28.0954 21.0772 28.0745 21.0977C28.0536 21.1183 28.0254 21.1298 27.996 21.1298C27.9667 21.1298 27.9385 21.1183 27.9175 21.0977C27.8966 21.0772 27.8846 21.0492 27.884 21.0198C27.8835 20.9905 27.8945 20.9621 27.9147 20.9408C27.9349 20.9195 27.9627 20.9069 27.992 20.9059ZM19.992 21.4689H20C20.0294 21.4699 20.0571 21.4825 20.0773 21.5038C20.0975 21.5251 20.1085 21.5535 20.108 21.5828C20.1075 21.6122 20.0954 21.6402 20.0745 21.6607C20.0536 21.6813 20.0254 21.6928 19.996 21.6928C19.9667 21.6928 19.9385 21.6813 19.9175 21.6607C19.8966 21.6402 19.8846 21.6122 19.884 21.5828C19.8835 21.5535 19.8945 21.5251 19.9147 21.5038C19.9349 21.4825 19.9627 21.4699 19.992 21.4689ZM27.992 21.4689H28C28.0294 21.4699 28.0571 21.4825 28.0773 21.5038C28.0975 21.5251 28.1085 21.5535 28.108 21.5828C28.1075 21.6122 28.0954 21.6402 28.0745 21.6607C28.0536 21.6813 28.0254 21.6928 27.996 21.6928C27.9667 21.6928 27.9385 21.6813 27.9175 21.6607C27.8966 21.6402 27.8846 21.6122 27.884 21.5828C27.8835 21.5535 27.8945 21.5251 27.9147 21.5038C27.9349 21.4825 27.9627 21.4699 27.992 21.4689ZM16.619 22.5109C17.0434 22.5109 17.4503 22.6795 17.7504 22.9795C18.0504 23.2796 18.219 23.6866 18.219 24.1109C18.219 24.5352 18.0504 24.9422 17.7504 25.2423C17.4503 25.5423 17.0434 25.7109 16.619 25.7109C16.1947 25.7109 15.7877 25.5423 15.4876 25.2423C15.1876 24.9422 15.019 24.5352 15.019 24.1109C15.019 23.6866 15.1876 23.2796 15.4876 22.9795C15.7877 22.6795 16.1947 22.5109 16.619 22.5109ZM24 22.5109C24.4244 22.5109 24.8313 22.6795 25.1314 22.9795C25.4314 23.2796 25.6 23.6866 25.6 24.1109C25.6 24.5352 25.4314 24.9422 25.1314 25.2423C24.8313 25.5423 24.4244 25.7109 24 25.7109C23.5757 25.7109 23.1687 25.5423 22.8686 25.2423C22.5686 24.9422 22.4 24.5352 22.4 24.1109C22.4 23.6866 22.5686 23.2796 22.8686 22.9795C23.1687 22.6795 23.5757 22.5109 24 22.5109ZM31.38 22.5109C31.5901 22.5108 31.7982 22.5522 31.9923 22.6325C32.1865 22.7128 32.3629 22.8306 32.5115 22.9792C32.6602 23.1277 32.7781 23.3041 32.8585 23.4981C32.939 23.6922 32.9805 23.9003 32.9805 24.1104C32.9806 24.3205 32.9393 24.5286 32.8589 24.7227C32.7786 24.9169 32.6608 25.0933 32.5122 25.2419C32.3637 25.3905 32.1874 25.5084 31.9933 25.5889C31.7992 25.6694 31.5911 25.7108 31.381 25.7109C30.9567 25.7109 30.5497 25.5423 30.2496 25.2423C29.9496 24.9422 29.781 24.5352 29.781 24.1109C29.781 23.6866 29.9496 23.2796 30.2496 22.9795C30.5497 22.6795 30.9567 22.5109 31.381 22.5109H31.38ZM19.992 23.1559H20C20.0294 23.1569 20.0571 23.1695 20.0773 23.1908C20.0975 23.2121 20.1085 23.2405 20.108 23.2698C20.1075 23.2992 20.0954 23.3272 20.0745 23.3477C20.0536 23.3683 20.0254 23.3798 19.996 23.3798C19.9667 23.3798 19.9385 23.3683 19.9175 23.3477C19.8966 23.3272 19.8846 23.2992 19.884 23.2698C19.8835 23.2405 19.8945 23.2121 19.9147 23.1908C19.9349 23.1695 19.9627 23.1569 19.992 23.1559ZM27.992 23.1559H28C28.0294 23.1569 28.0571 23.1695 28.0773 23.1908C28.0975 23.2121 28.1085 23.2405 28.108 23.2698C28.1075 23.2992 28.0954 23.3272 28.0745 23.3477C28.0536 23.3683 28.0254 23.3798 27.996 23.3798C27.9667 23.3798 27.9385 23.3683 27.9175 23.3477C27.8966 23.3272 27.8846 23.2992 27.884 23.2698C27.8835 23.2405 27.8945 23.2121 27.9147 23.1908C27.9349 23.1695 27.9627 23.1569 27.992 23.1559ZM19.98 23.7189H20C20.0222 23.7191 20.0438 23.7259 20.0621 23.7383C20.0804 23.7508 20.0946 23.7684 20.1029 23.789C20.1112 23.8095 20.1132 23.832 20.1087 23.8537C20.1041 23.8754 20.0933 23.8953 20.0775 23.9108C20.0617 23.9263 20.0416 23.9368 20.0199 23.9409C19.9981 23.9451 19.9756 23.9426 19.9552 23.934C19.9348 23.9253 19.9175 23.9108 19.9053 23.8923C19.8932 23.8738 19.8868 23.8521 19.887 23.8299C19.887 23.7749 19.926 23.7259 19.98 23.7189ZM27.98 23.7189H28C28.0222 23.7191 28.0438 23.7259 28.0621 23.7383C28.0804 23.7508 28.0946 23.7684 28.1029 23.789C28.1112 23.8095 28.1132 23.832 28.1087 23.8537C28.1041 23.8754 28.0933 23.8953 28.0775 23.9108C28.0617 23.9263 28.0416 23.9368 28.0199 23.9409C27.9981 23.9451 27.9756 23.9426 27.9552 23.934C27.9348 23.9253 27.9175 23.9108 27.9053 23.8923C27.8932 23.8738 27.8868 23.8521 27.887 23.8299C27.887 23.7749 27.926 23.7259 27.98 23.7189ZM19.98 24.2809H20C20.061 24.2809 20.11 24.3309 20.111 24.3919C20.111 24.4216 20.0992 24.4501 20.0782 24.4711C20.0572 24.4921 20.0287 24.5039 19.999 24.5039C19.9693 24.5039 19.9408 24.4921 19.9198 24.4711C19.8988 24.4501 19.887 24.4216 19.887 24.3919C19.8867 24.3654 19.8959 24.3398 19.913 24.3196C19.9301 24.2994 19.9539 24.286 19.98 24.2819V24.2809ZM27.98 24.2809H28C28.061 24.2809 28.11 24.3309 28.111 24.3919C28.111 24.4216 28.0992 24.4501 28.0782 24.4711C28.0572 24.4921 28.0287 24.5039 27.999 24.5039C27.9693 24.5039 27.9408 24.4921 27.9198 24.4711C27.8988 24.4501 27.887 24.4216 27.887 24.3919C27.8867 24.3654 27.8959 24.3398 27.913 24.3196C27.9301 24.2994 27.9539 24.286 27.98 24.2819V24.2809ZM16.619 27.7459C16.8324 27.7406 17.0448 27.778 17.2435 27.856C17.4422 27.934 17.6233 28.0509 17.7762 28.2C17.929 28.349 18.0504 28.5272 18.1334 28.7239C18.2163 28.9206 18.259 29.1319 18.259 29.3454C18.259 29.5589 18.2163 29.7702 18.1334 29.9669C18.0504 30.1636 17.929 30.3418 17.7762 30.4908C17.6233 30.6399 17.4422 30.7568 17.2435 30.8348C17.0448 30.9128 16.8324 30.9502 16.619 30.9449C16.2017 30.9345 15.805 30.7614 15.5136 30.4625C15.2221 30.1637 15.059 29.7628 15.059 29.3454C15.059 28.928 15.2221 28.5271 15.5136 28.2283C15.805 27.9294 16.2017 27.7563 16.619 27.7459ZM24 27.7459C24.2134 27.7406 24.4258 27.778 24.6245 27.856C24.8232 27.934 25.0043 28.0509 25.1572 28.2C25.31 28.349 25.4314 28.5272 25.5144 28.7239C25.5973 28.9206 25.64 29.1319 25.64 29.3454C25.64 29.5589 25.5973 29.7702 25.5144 29.9669C25.4314 30.1636 25.31 30.3418 25.1572 30.4908C25.0043 30.6399 24.8232 30.7568 24.6245 30.8348C24.4258 30.9128 24.2134 30.9502 24 30.9449C23.5827 30.9345 23.186 30.7614 22.8946 30.4625C22.6031 30.1637 22.44 29.7628 22.44 29.3454C22.44 28.928 22.6031 28.5271 22.8946 28.2283C23.186 27.9294 23.5827 27.7563 24 27.7459ZM31.38 27.7459C31.5934 27.7405 31.8058 27.7779 32.0045 27.8558C32.2033 27.9337 32.3844 28.0506 32.5373 28.1996C32.6902 28.3486 32.8117 28.5267 32.8947 28.7234C32.9777 28.9201 33.0204 29.1314 33.0205 29.3449C33.0206 29.5584 32.9779 29.7697 32.8951 29.9664C32.8122 30.1632 32.6908 30.3414 32.538 30.4905C32.3852 30.6396 32.2042 30.7566 32.0054 30.8346C31.8067 30.9127 31.5944 30.9502 31.381 30.9449C30.9637 30.9345 30.567 30.7614 30.2756 30.4625C29.9841 30.1637 29.821 29.7628 29.821 29.3454C29.821 28.928 29.9841 28.5271 30.2756 28.2283C30.567 27.9294 30.9637 27.7563 31.381 27.7459H31.38ZM19.98 28.2159H20C20.061 28.2169 20.11 28.2659 20.111 28.3279C20.1109 28.3493 20.1047 28.3702 20.0932 28.3881C20.0816 28.4061 20.0651 28.4203 20.0457 28.4292C20.0263 28.4382 20.0047 28.4413 19.9836 28.4384C19.9624 28.4354 19.9425 28.4265 19.9263 28.4126C19.91 28.3987 19.8981 28.3805 19.8919 28.3601C19.8857 28.3396 19.8854 28.3179 19.8912 28.2973C19.8969 28.2767 19.9084 28.2582 19.9243 28.244C19.9403 28.2297 19.9599 28.2203 19.981 28.2169L19.98 28.2159ZM27.98 28.2159H28C28.061 28.2169 28.11 28.2659 28.111 28.3279C28.1109 28.3493 28.1047 28.3702 28.0932 28.3881C28.0816 28.4061 28.0651 28.4203 28.0457 28.4292C28.0263 28.4382 28.0047 28.4413 27.9836 28.4384C27.9624 28.4354 27.9425 28.4265 27.9263 28.4126C27.91 28.3987 27.8981 28.3805 27.8919 28.3601C27.8857 28.3396 27.8854 28.3179 27.8912 28.2973C27.8969 28.2767 27.9084 28.2582 27.9243 28.244C27.9403 28.2297 27.9599 28.2203 27.981 28.2169L27.98 28.2159ZM20.002 28.7769C20.0319 28.7772 20.0604 28.7893 20.0813 28.8106C20.1022 28.8318 20.1138 28.8606 20.1135 28.8904C20.1133 28.9202 20.1011 28.9487 20.0799 28.9697C20.0586 28.9906 20.0299 29.0022 20 29.0019C19.9852 29.0018 19.9706 28.9987 19.957 28.993C19.9434 28.9872 19.9311 28.9788 19.9208 28.9682C19.9104 28.9577 19.9022 28.9452 19.8967 28.9315C19.8912 28.9178 19.8884 28.9032 19.8885 28.8884C19.8886 28.8736 19.8917 28.859 19.8975 28.8454C19.9032 28.8318 19.9116 28.8195 19.9222 28.8091C19.9327 28.7988 19.9452 28.7906 19.9589 28.7851C19.9726 28.7795 19.9872 28.7768 20.002 28.7769ZM28.002 28.7769C28.0319 28.7772 28.0604 28.7893 28.0813 28.8106C28.1022 28.8318 28.1138 28.8606 28.1135 28.8904C28.1133 28.9202 28.1011 28.9487 28.0799 28.9697C28.0586 28.9906 28.0299 29.0022 28 29.0019C27.9852 29.0018 27.9706 28.9987 27.957 28.993C27.9434 28.9872 27.9311 28.9788 27.9208 28.9682C27.9104 28.9577 27.9022 28.9452 27.8967 28.9315C27.8912 28.9178 27.8884 28.9032 27.8885 28.8884C27.8886 28.8736 27.8917 28.859 27.8975 28.8454C27.9032 28.8318 27.9116 28.8195 27.9222 28.8091C27.9327 28.7988 27.9452 28.7906 27.9589 28.7851C27.9726 28.7795 27.9872 28.7768 28.002 28.7769ZM19.992 29.3399H20C20.0294 29.341 20.0571 29.3535 20.0773 29.3748C20.0975 29.3961 20.1085 29.4245 20.108 29.4538C20.1075 29.4832 20.0954 29.5112 20.0745 29.5317C20.0536 29.5523 20.0254 29.5638 19.996 29.5638C19.9667 29.5638 19.9385 29.5523 19.9175 29.5317C19.8966 29.5112 19.8846 29.4832 19.884 29.4538C19.8835 29.4245 19.8945 29.3961 19.9147 29.3748C19.9349 29.3535 19.9627 29.341 19.992 29.3399ZM27.992 29.3399H28C28.0294 29.341 28.0571 29.3535 28.0773 29.3748C28.0975 29.3961 28.1085 29.4245 28.108 29.4538C28.1075 29.4832 28.0954 29.5112 28.0745 29.5317C28.0536 29.5523 28.0254 29.5638 27.996 29.5638C27.9667 29.5638 27.9385 29.5523 27.9175 29.5317C27.8966 29.5112 27.8846 29.4832 27.884 29.4538C27.8835 29.4245 27.8945 29.3961 27.9147 29.3748C27.9349 29.3535 27.9627 29.341 27.992 29.3399ZM19.992 29.9019H20C20.0294 29.903 20.0571 29.9155 20.0773 29.9368C20.0975 29.9581 20.1085 29.9865 20.108 30.0158C20.1075 30.0452 20.0954 30.0732 20.0745 30.0937C20.0536 30.1143 20.0254 30.1258 19.996 30.1258C19.9667 30.1258 19.9385 30.1143 19.9175 30.0937C19.8966 30.0732 19.8846 30.0452 19.884 30.0158C19.8835 29.9865 19.8945 29.9581 19.9147 29.9368C19.9349 29.9155 19.9627 29.903 19.992 29.9019ZM27.992 29.9019H28C28.0294 29.903 28.0571 29.9155 28.0773 29.9368C28.0975 29.9581 28.1085 29.9865 28.108 30.0158C28.1075 30.0452 28.0954 30.0732 28.0745 30.0937C28.0536 30.1143 28.0254 30.1258 27.996 30.1258C27.9667 30.1258 27.9385 30.1143 27.9175 30.0937C27.8966 30.0732 27.8846 30.0452 27.884 30.0158C27.8835 29.9865 27.8945 29.9581 27.9147 29.9368C27.9349 29.9155 27.9627 29.903 27.992 29.9019ZM19.992 31.0249C20.0074 31.0241 20.0228 31.0264 20.0373 31.0317C20.0517 31.037 20.065 31.0452 20.0762 31.0557C20.0874 31.0663 20.0963 31.079 20.1025 31.0932C20.1087 31.1073 20.1119 31.1225 20.112 31.1379C20.112 31.1677 20.1002 31.1964 20.0791 31.2175C20.058 31.2385 20.0294 31.2504 19.9995 31.2504C19.9697 31.2504 19.9411 31.2385 19.92 31.2175C19.8989 31.1964 19.887 31.1677 19.887 31.1379C19.887 31.0789 19.933 31.0279 19.992 31.0249ZM27.992 31.0249C28.0074 31.0241 28.0228 31.0264 28.0373 31.0317C28.0517 31.037 28.065 31.0452 28.0762 31.0557C28.0874 31.0663 28.0963 31.079 28.1025 31.0932C28.1087 31.1073 28.1119 31.1225 28.112 31.1379C28.112 31.1677 28.1002 31.1964 28.0791 31.2175C28.058 31.2385 28.0294 31.2504 27.9995 31.2504C27.9697 31.2504 27.9411 31.2385 27.92 31.2175C27.8989 31.1964 27.887 31.1677 27.887 31.1379C27.887 31.0789 27.933 31.0279 27.992 31.0249ZM19.98 32.1499H20C20.0221 32.1501 20.0437 32.1568 20.062 32.1693C20.0803 32.1817 20.0945 32.1992 20.1028 32.2197C20.1111 32.2402 20.1132 32.2627 20.1087 32.2844C20.1043 32.306 20.0936 32.3259 20.0779 32.3414C20.0622 32.357 20.0422 32.3676 20.0205 32.3718C19.9988 32.3761 19.9763 32.3738 19.9559 32.3653C19.9355 32.3568 19.9181 32.3424 19.9058 32.324C19.8936 32.3056 19.887 32.284 19.887 32.2619C19.8862 32.2351 19.8952 32.2089 19.9123 32.1883C19.9295 32.1677 19.9535 32.154 19.98 32.1499ZM27.98 32.1499H28C28.0221 32.1501 28.0437 32.1568 28.062 32.1693C28.0803 32.1817 28.0945 32.1992 28.1028 32.2197C28.1111 32.2402 28.1132 32.2627 28.1087 32.2844C28.1043 32.306 28.0936 32.3259 28.0779 32.3414C28.0622 32.357 28.0422 32.3676 28.0205 32.3718C27.9988 32.3761 27.9763 32.3738 27.9559 32.3653C27.9355 32.3568 27.9181 32.3424 27.9058 32.324C27.8936 32.3056 27.887 32.284 27.887 32.2619C27.8862 32.2351 27.8952 32.2089 27.9123 32.1883C27.9295 32.1677 27.9535 32.154 27.98 32.1499ZM19.98 32.7129H20C20.061 32.7129 20.11 32.7629 20.111 32.8239C20.1109 32.8453 20.1047 32.8662 20.0932 32.8841C20.0816 32.9021 20.0651 32.9163 20.0457 32.9252C20.0263 32.9342 20.0047 32.9373 19.9836 32.9344C19.9624 32.9314 19.9425 32.9225 19.9263 32.9086C19.91 32.8947 19.8981 32.8765 19.8919 32.8561C19.8857 32.8356 19.8854 32.8139 19.8912 32.7933C19.8969 32.7727 19.9084 32.7542 19.9243 32.74C19.9403 32.7257 19.9599 32.7163 19.981 32.7129H19.98ZM27.98 32.7129H28C28.061 32.7129 28.11 32.7629 28.111 32.8239C28.1109 32.8453 28.1047 32.8662 28.0932 32.8841C28.0816 32.9021 28.0651 32.9163 28.0457 32.9252C28.0263 32.9342 28.0047 32.9373 27.9836 32.9344C27.9624 32.9314 27.9425 32.9225 27.9263 32.9086C27.91 32.8947 27.8981 32.8765 27.8919 32.8561C27.8857 32.8356 27.8854 32.8139 27.8912 32.7933C27.8969 32.7727 27.9084 32.7542 27.9243 32.74C27.9403 32.7257 27.9599 32.7163 27.981 32.7129H27.98ZM16.62 32.9799C16.8334 32.9746 17.0458 33.012 17.2445 33.09C17.4432 33.168 17.6243 33.2849 17.7772 33.434C17.93 33.583 18.0514 33.7612 18.1344 33.9579C18.2173 34.1546 18.26 34.3659 18.26 34.5794C18.26 34.7929 18.2173 35.0042 18.1344 35.2009C18.0514 35.3976 17.93 35.5758 17.7772 35.7248C17.6243 35.8739 17.4432 35.9908 17.2445 36.0688C17.0458 36.1468 16.8334 36.1842 16.62 36.1789C16.2027 36.1685 15.806 35.9954 15.5146 35.6965C15.2231 35.3977 15.06 34.9968 15.06 34.5794C15.06 34.162 15.2231 33.7611 15.5146 33.4623C15.806 33.1634 16.2027 32.9903 16.62 32.9799ZM24 32.9799C24.2134 32.9746 24.4258 33.012 24.6245 33.09C24.8232 33.168 25.0043 33.2849 25.1572 33.434C25.31 33.583 25.4314 33.7612 25.5144 33.9579C25.5973 34.1546 25.64 34.3659 25.64 34.5794C25.64 34.7929 25.5973 35.0042 25.5144 35.2009C25.4314 35.3976 25.31 35.5758 25.1572 35.7248C25.0043 35.8739 24.8232 35.9908 24.6245 36.0688C24.4258 36.1468 24.2134 36.1842 24 36.1789C23.5827 36.1685 23.186 35.9954 22.8946 35.6965C22.6031 35.3977 22.44 34.9968 22.44 34.5794C22.44 34.162 22.6031 33.7611 22.8946 33.4623C23.186 33.1634 23.5827 32.9903 24 32.9799ZM31.38 32.9799C31.5901 32.9798 31.7982 33.0212 31.9923 33.1015C32.1865 33.1818 32.3629 33.2997 32.5115 33.4482C32.6602 33.5967 32.7781 33.773 32.8585 33.9671C32.939 34.1612 32.9805 34.3693 32.9805 34.5794C32.9806 34.7895 32.9393 34.9976 32.8589 35.1917C32.7786 35.3859 32.6608 35.5623 32.5122 35.7109C32.3637 35.8595 32.1874 35.9774 31.9933 36.0579C31.7992 36.1384 31.5911 36.1798 31.381 36.1799C30.9567 36.1799 30.5497 36.0113 30.2496 35.7113C29.9496 35.4112 29.781 35.0042 29.781 34.5799C29.781 34.1556 29.9496 33.7486 30.2496 33.4485C30.5497 33.1485 30.9567 32.9799 31.381 32.9799H31.38ZM20.002 33.2729C20.064 33.2739 20.114 33.3269 20.113 33.3889C20.1129 33.4033 20.1099 33.4176 20.1043 33.4309C20.0986 33.4442 20.0904 33.4563 20.0801 33.4664C20.0698 33.4765 20.0576 33.4845 20.0442 33.4899C20.0308 33.4953 20.0165 33.498 20.002 33.4979C19.9873 33.4983 19.9727 33.4958 19.959 33.4904C19.9453 33.4851 19.9328 33.477 19.9223 33.4668C19.9118 33.4565 19.9034 33.4442 19.8977 33.4307C19.892 33.4172 19.889 33.4026 19.889 33.3879C19.889 33.3259 19.939 33.2729 20.002 33.2729ZM28.002 33.2729C28.064 33.2739 28.114 33.3269 28.113 33.3889C28.1129 33.4033 28.1099 33.4176 28.1043 33.4309C28.0986 33.4442 28.0904 33.4563 28.0801 33.4664C28.0698 33.4765 28.0576 33.4845 28.0442 33.4899C28.0308 33.4953 28.0165 33.498 28.002 33.4979C27.9873 33.4983 27.9727 33.4958 27.959 33.4904C27.9453 33.4851 27.9328 33.477 27.9223 33.4668C27.9118 33.4565 27.9034 33.4442 27.8977 33.4307C27.892 33.4172 27.889 33.4026 27.889 33.3879C27.889 33.3259 27.939 33.2729 28.002 33.2729ZM19.992 33.8359H20C20.0294 33.8369 20.0571 33.8495 20.0773 33.8708C20.0975 33.8921 20.1085 33.9205 20.108 33.9498C20.1075 33.9792 20.0954 34.0072 20.0745 34.0277C20.0536 34.0483 20.0254 34.0598 19.996 34.0598C19.9667 34.0598 19.9385 34.0483 19.9175 34.0277C19.8966 34.0072 19.8846 33.9792 19.884 33.9498C19.8835 33.9205 19.8945 33.8921 19.9147 33.8708C19.9349 33.8495 19.9627 33.8369 19.992 33.8359ZM27.992 33.8359H28C28.0294 33.8369 28.0571 33.8495 28.0773 33.8708C28.0975 33.8921 28.1085 33.9205 28.108 33.9498C28.1075 33.9792 28.0954 34.0072 28.0745 34.0277C28.0536 34.0483 28.0254 34.0598 27.996 34.0598C27.9667 34.0598 27.9385 34.0483 27.9175 34.0277C27.8966 34.0072 27.8846 33.9792 27.884 33.9498C27.8835 33.9205 27.8945 33.8921 27.9147 33.8708C27.9349 33.8495 27.9627 33.8369 27.992 33.8359ZM19.98 37.2109H20C20.061 37.2109 20.11 37.2609 20.111 37.3219C20.1109 37.3433 20.1047 37.3642 20.0932 37.3821C20.0816 37.4001 20.0651 37.4143 20.0457 37.4232C20.0263 37.4322 20.0047 37.4353 19.9836 37.4324C19.9624 37.4294 19.9425 37.4205 19.9263 37.4066C19.91 37.3927 19.8981 37.3745 19.8919 37.3541C19.8857 37.3336 19.8854 37.3119 19.8912 37.2913C19.8969 37.2707 19.9084 37.2522 19.9243 37.238C19.9403 37.2237 19.9599 37.2143 19.981 37.2109H19.98ZM27.98 37.2109H28C28.061 37.2109 28.11 37.2609 28.111 37.3219C28.1109 37.3433 28.1047 37.3642 28.0932 37.3821C28.0816 37.4001 28.0651 37.4143 28.0457 37.4232C28.0263 37.4322 28.0047 37.4353 27.9836 37.4324C27.9624 37.4294 27.9425 37.4205 27.9263 37.4066C27.91 37.3927 27.8981 37.3745 27.8919 37.3541C27.8857 37.3336 27.8854 37.3119 27.8912 37.2913C27.8969 37.2707 27.9084 37.2522 27.9243 37.238C27.9403 37.2237 27.9599 37.2143 27.981 37.2109H27.98ZM19.98 41.1459H20C20.0221 41.1461 20.0437 41.1528 20.062 41.1653C20.0803 41.1777 20.0945 41.1952 20.1028 41.2157C20.1111 41.2362 20.1132 41.2587 20.1087 41.2804C20.1043 41.302 20.0936 41.3219 20.0779 41.3374C20.0622 41.353 20.0422 41.3636 20.0205 41.3678C19.9988 41.3721 19.9763 41.3698 19.9559 41.3613C19.9355 41.3528 19.9181 41.3384 19.9058 41.32C19.8936 41.3016 19.887 41.28 19.887 41.2579C19.8862 41.2311 19.8952 41.2049 19.9123 41.1843C19.9295 41.1637 19.9535 41.15 19.98 41.1459ZM27.98 41.1459H28C28.0221 41.1461 28.0437 41.1528 28.062 41.1653C28.0803 41.1777 28.0945 41.1952 28.1028 41.2157C28.1111 41.2362 28.1132 41.2587 28.1087 41.2804C28.1043 41.302 28.0936 41.3219 28.0779 41.3374C28.0622 41.353 28.0422 41.3636 28.0205 41.3678C27.9988 41.3721 27.9763 41.3698 27.9559 41.3613C27.9355 41.3528 27.9181 41.3384 27.9058 41.32C27.8936 41.3016 27.887 41.28 27.887 41.2579C27.8862 41.2311 27.8952 41.2049 27.9123 41.1843C27.9295 41.1637 27.9535 41.15 27.98 41.1459ZM19.98 41.7089H20C20.061 41.7089 20.11 41.7589 20.111 41.8199C20.111 41.8819 20.061 41.9309 20 41.9309C19.9705 41.9312 19.942 41.9198 19.9209 41.8992C19.8997 41.8786 19.8875 41.8504 19.887 41.8209C19.8862 41.7941 19.8952 41.7679 19.9123 41.7473C19.9295 41.7267 19.9535 41.713 19.98 41.7089ZM27.98 41.7089H28C28.061 41.7089 28.11 41.7589 28.111 41.8199C28.111 41.8819 28.061 41.9309 28 41.9309C27.9705 41.9312 27.942 41.9198 27.9209 41.8992C27.8997 41.8786 27.8875 41.8504 27.887 41.8209C27.8862 41.7941 27.8952 41.7679 27.9123 41.7473C27.9295 41.7267 27.9535 41.713 27.98 41.7089ZM20.002 42.2689C20.0319 42.2692 20.0604 42.2813 20.0813 42.3026C20.1022 42.3238 20.1138 42.3526 20.1135 42.3824C20.1133 42.4122 20.1011 42.4407 20.0799 42.4617C20.0586 42.4826 20.0299 42.4942 20 42.4939C19.9852 42.4938 19.9706 42.4907 19.957 42.485C19.9434 42.4792 19.9311 42.4708 19.9208 42.4602C19.9104 42.4497 19.9022 42.4372 19.8967 42.4235C19.8912 42.4098 19.8884 42.3952 19.8885 42.3804C19.8886 42.3656 19.8917 42.351 19.8975 42.3374C19.9032 42.3238 19.9116 42.3115 19.9222 42.3011C19.9327 42.2908 19.9452 42.2826 19.9589 42.2771C19.9726 42.2715 19.9872 42.2688 20.002 42.2689ZM28.002 42.2689C28.0319 42.2692 28.0604 42.2813 28.0813 42.3026C28.1022 42.3238 28.1138 42.3526 28.1135 42.3824C28.1133 42.4122 28.1011 42.4407 28.0799 42.4617C28.0586 42.4826 28.0299 42.4942 28 42.4939C27.9852 42.4938 27.9706 42.4907 27.957 42.485C27.9434 42.4792 27.9311 42.4708 27.9208 42.4602C27.9104 42.4497 27.9022 42.4372 27.8967 42.4235C27.8912 42.4098 27.8884 42.3952 27.8885 42.3804C27.8886 42.3656 27.8917 42.351 27.8975 42.3374C27.9032 42.3238 27.9116 42.3115 27.9222 42.3011C27.9327 42.2908 27.9452 42.2826 27.9589 42.2771C27.9726 42.2715 27.9872 42.2688 28.002 42.2689Z" fill="#333333"/>
</svg>
