<svg width="48" height="48" viewBox="0 0 48 48" fill="none" xmlns="http://www.w3.org/2000/svg">
<path d="M23.998 4.09211C20.73 4.10211 17.463 4.12511 14.146 4.12511C13.277 4.12511 12.58 4.82411 12.58 5.69311V42.5551C12.58 43.4251 13.277 44.1251 14.146 44.1251H33.852C34.721 44.1251 35.42 43.4251 35.42 42.5551V5.69311C35.42 4.82311 34.721 4.12511 33.852 4.12511C30.5675 4.08705 27.2827 4.07605 23.998 4.09211ZM14.58 4.62511H33.418C34.249 4.62511 34.92 5.30711 34.92 6.15511V42.0941C34.92 42.9411 34.25 43.6251 33.418 43.6251H14.58C13.749 43.6251 13.08 42.9411 13.08 42.0941V6.15411C13.08 5.30711 13.749 4.62511 14.58 4.62511ZM19.732 5.16211C19.7027 5.16316 19.6749 5.17569 19.6547 5.19699C19.6345 5.2183 19.6235 5.24669 19.624 5.27604C19.6246 5.30539 19.6366 5.33337 19.6575 5.35394C19.6785 5.37451 19.7067 5.38604 19.736 5.38604C19.7654 5.38604 19.7936 5.37451 19.8145 5.35394C19.8354 5.33337 19.8475 5.30539 19.848 5.27604C19.8485 5.24669 19.8375 5.2183 19.8173 5.19699C19.7971 5.17569 19.7694 5.16316 19.74 5.16211H19.732ZM28.252 5.16211C28.2227 5.16316 28.1949 5.17569 28.1747 5.19699C28.1545 5.2183 28.1435 5.24669 28.144 5.27604C28.1446 5.30539 28.1566 5.33337 28.1775 5.35394C28.1985 5.37451 28.2267 5.38604 28.256 5.38604C28.2854 5.38604 28.3136 5.37451 28.3345 5.35394C28.3554 5.33337 28.3675 5.30539 28.368 5.27604C28.3685 5.24669 28.3575 5.2183 28.3373 5.19699C28.3171 5.17569 28.2894 5.16316 28.26 5.16211H28.252ZM19.732 5.72511C19.7023 5.72697 19.6746 5.74055 19.6549 5.76287C19.6352 5.78518 19.6252 5.81441 19.627 5.84411C19.6289 5.87382 19.6425 5.90157 19.6648 5.92126C19.6871 5.94095 19.7163 5.95097 19.746 5.94911C19.7607 5.94819 19.7751 5.94439 19.7883 5.93791C19.8016 5.93143 19.8134 5.92241 19.8232 5.91136C19.8329 5.90031 19.8404 5.88745 19.8452 5.87351C19.85 5.85957 19.8519 5.84482 19.851 5.83011C19.8501 5.8154 19.8463 5.80102 19.8398 5.78778C19.8333 5.77455 19.8243 5.76272 19.8133 5.75297C19.8022 5.74322 19.7894 5.73574 19.7754 5.73096C19.7615 5.72618 19.7467 5.72419 19.732 5.72511ZM28.252 5.72511C28.2223 5.72697 28.1946 5.74055 28.1749 5.76287C28.1552 5.78518 28.1452 5.81441 28.147 5.84411C28.1489 5.87382 28.1625 5.90157 28.1848 5.92126C28.2071 5.94095 28.2363 5.95097 28.266 5.94911C28.2807 5.94819 28.2951 5.94439 28.3083 5.93791C28.3216 5.93143 28.3334 5.92241 28.3432 5.91136C28.3529 5.90031 28.3604 5.88745 28.3652 5.87351C28.3699 5.85957 28.3719 5.84482 28.371 5.83011C28.3701 5.8154 28.3663 5.80102 28.3598 5.78778C28.3533 5.77455 28.3443 5.76272 28.3333 5.75297C28.3222 5.74322 28.3094 5.73574 28.2954 5.73096C28.2815 5.72618 28.2667 5.72419 28.252 5.72511ZM17.203 5.99211V5.99411C17.0784 5.99618 16.9554 6.02287 16.8411 6.07264C16.7268 6.12241 16.6234 6.19428 16.537 6.28411L14.73 8.14011C14.6388 8.22825 14.5663 8.3338 14.5167 8.45051C14.4671 8.56722 14.4414 8.6927 14.4412 8.81951C14.441 8.94632 14.4663 9.07188 14.5156 9.18873C14.5648 9.30559 14.637 9.41137 14.7279 9.49979C14.8188 9.58821 14.9265 9.65748 15.0447 9.70347C15.1629 9.74947 15.2891 9.77127 15.4159 9.76757C15.5426 9.76387 15.6673 9.73474 15.7826 9.68193C15.8979 9.62912 16.0014 9.55369 16.087 9.46011L17.895 7.60011C17.9822 7.51118 18.0509 7.40589 18.0973 7.2903C18.1437 7.17472 18.1667 7.0511 18.1651 6.92658C18.1635 6.80205 18.1374 6.67906 18.0881 6.56469C18.0388 6.45031 17.9674 6.3468 17.878 6.26011C17.7889 6.17307 17.6835 6.1045 17.5679 6.05833C17.4522 6.01217 17.3285 5.98932 17.204 5.99111L17.203 5.99211ZM24.891 5.99211V5.99411C24.7664 5.99618 24.6434 6.02287 24.5291 6.07264C24.4148 6.12241 24.3114 6.19428 24.225 6.28411L22.416 8.14011C22.3248 8.22825 22.2523 8.3338 22.2027 8.45051C22.1531 8.56722 22.1274 8.6927 22.1272 8.81951C22.127 8.94632 22.1523 9.07188 22.2016 9.18873C22.2508 9.30559 22.323 9.41137 22.4139 9.49979C22.5048 9.58821 22.6125 9.65748 22.7307 9.70347C22.8489 9.74947 22.9751 9.77127 23.1019 9.76757C23.2286 9.76387 23.3533 9.73474 23.4686 9.68193C23.5839 9.62912 23.6874 9.55369 23.773 9.46011L25.582 7.60011C25.6691 7.51111 25.7378 7.40578 25.7841 7.29015C25.8303 7.17453 25.8533 7.0509 25.8516 6.92637C25.85 6.80184 25.8237 6.67887 25.7743 6.56453C25.725 6.45019 25.6535 6.34674 25.564 6.26011C25.4751 6.17319 25.3698 6.10469 25.2543 6.05853C25.1388 6.01237 25.0154 5.98946 24.891 5.99111V5.99211ZM32.578 5.99211V5.99411C32.4534 5.99618 32.3304 6.02287 32.2161 6.07264C32.1018 6.12241 31.9984 6.19428 31.912 6.28411L30.104 8.14011C30.0128 8.22825 29.9403 8.3338 29.8907 8.45051C29.8411 8.56722 29.8154 8.6927 29.8152 8.81951C29.815 8.94632 29.8403 9.07188 29.8896 9.18873C29.9388 9.30559 30.011 9.41137 30.1019 9.49979C30.1928 9.58821 30.3005 9.65748 30.4187 9.70347C30.5369 9.74947 30.6631 9.77127 30.7899 9.76757C30.9166 9.76387 31.0413 9.73474 31.1566 9.68193C31.2719 9.62912 31.3754 9.55369 31.461 9.46011L33.27 7.60011C33.3571 7.51111 33.4258 7.40578 33.4721 7.29015C33.5183 7.17453 33.5413 7.0509 33.5396 6.92637C33.538 6.80184 33.5117 6.67887 33.4623 6.56453C33.413 6.45019 33.3415 6.34674 33.252 6.26011C33.1629 6.17307 33.0575 6.1045 32.9419 6.05833C32.8262 6.01217 32.7025 5.98932 32.578 5.99111V5.99211ZM19.723 6.28711C19.6963 6.29053 19.6718 6.30362 19.6541 6.32389C19.6364 6.34416 19.6268 6.37021 19.627 6.39711C19.627 6.42695 19.6389 6.45556 19.66 6.47666C19.6811 6.49776 19.7097 6.50961 19.7395 6.50961C19.7694 6.50961 19.798 6.49776 19.8191 6.47666C19.8402 6.45556 19.852 6.42695 19.852 6.39711C19.852 6.3825 19.8491 6.36803 19.8435 6.35455C19.8378 6.34107 19.8295 6.32886 19.8191 6.31861C19.8087 6.30837 19.7963 6.30031 19.7827 6.2949C19.7691 6.28949 19.7546 6.28685 19.74 6.28711H19.723ZM28.243 6.28711C28.2163 6.29053 28.1918 6.30362 28.1741 6.32389C28.1564 6.34416 28.1468 6.37021 28.147 6.39711C28.147 6.42682 28.1588 6.4553 28.1798 6.47631C28.2008 6.49731 28.2293 6.50911 28.259 6.50911C28.2887 6.50911 28.3172 6.49731 28.3382 6.47631C28.3592 6.4553 28.371 6.42682 28.371 6.39711C28.371 6.38258 28.3681 6.3682 28.3625 6.35478C28.357 6.34137 28.3488 6.3292 28.3384 6.31897C28.3281 6.30875 28.3159 6.30066 28.3024 6.2952C28.289 6.28973 28.2745 6.28698 28.26 6.28711H28.242H28.243ZM17.268 6.47711H17.27C17.3608 6.48535 17.4465 6.52291 17.514 6.58411C17.92 6.94611 17.437 7.36911 17.262 7.55311L16.396 8.45711C15.789 9.08811 15.526 9.51511 15.102 9.10711C14.742 8.73411 15.062 8.51111 15.75 7.81311L16.615 6.91011C16.82 6.71011 17.032 6.46611 17.268 6.47711ZM24.955 6.47711H24.957C25.0478 6.48535 25.1335 6.52291 25.201 6.58411C25.608 6.94611 25.124 7.36911 24.949 7.55311L24.084 8.45711C23.477 9.08811 23.213 9.51511 22.789 9.10711C22.429 8.73411 22.749 8.51111 23.437 7.81311L24.303 6.91011C24.508 6.71011 24.72 6.46611 24.955 6.47711ZM32.643 6.47711H32.645C32.7358 6.48535 32.8215 6.52291 32.889 6.58411C33.295 6.94611 32.812 7.36911 32.637 7.55311L31.771 8.45711C31.164 9.08811 30.901 9.51511 30.477 9.10711C30.117 8.73411 30.437 8.51111 31.125 7.81311L31.99 6.91011C32.195 6.71011 32.407 6.46611 32.643 6.47711ZM19.743 6.84611C19.7281 6.84584 19.7132 6.84858 19.6993 6.85415C19.6854 6.85972 19.6728 6.86802 19.6622 6.87855C19.6515 6.88908 19.6431 6.90164 19.6374 6.91548C19.6317 6.92931 19.6289 6.94415 19.629 6.95911C19.629 7.02111 19.679 7.07311 19.742 7.07211C19.803 7.07211 19.852 7.02111 19.853 6.95911C19.8533 6.92958 19.8419 6.90113 19.8213 6.87997C19.8007 6.85881 19.7725 6.84664 19.743 6.84611ZM28.262 6.84611C28.2471 6.84598 28.2323 6.8488 28.2185 6.85442C28.2046 6.86004 28.1921 6.86835 28.1815 6.87885C28.1709 6.88936 28.1625 6.90186 28.1567 6.91564C28.151 6.92941 28.148 6.94419 28.148 6.95911C28.148 7.02111 28.199 7.07311 28.262 7.07211C28.322 7.07211 28.372 7.02111 28.373 6.95911C28.3731 6.9444 28.3704 6.92981 28.3649 6.91617C28.3594 6.90254 28.3512 6.89011 28.3409 6.87962C28.3306 6.86913 28.3183 6.86077 28.3048 6.85502C28.2913 6.84927 28.2767 6.84624 28.262 6.84611ZM19.732 7.40811C19.7034 7.4099 19.6765 7.42263 19.657 7.44365C19.6374 7.46468 19.6267 7.49241 19.627 7.52111C19.627 7.58311 19.677 7.63511 19.74 7.63511C19.7699 7.63459 19.7984 7.62235 19.8193 7.60102C19.8403 7.5797 19.852 7.551 19.852 7.52111C19.852 7.50566 19.8489 7.49038 19.8428 7.47619C19.8367 7.462 19.8277 7.44922 19.8165 7.43863C19.8052 7.42804 19.7919 7.41987 19.7774 7.41462C19.7629 7.40937 19.7474 7.40715 19.732 7.40811ZM28.252 7.40811C28.2234 7.4099 28.1965 7.42263 28.177 7.44365C28.1574 7.46468 28.1467 7.49241 28.147 7.52111C28.147 7.58311 28.197 7.63511 28.26 7.63511C28.321 7.63511 28.37 7.58311 28.371 7.52111C28.3712 7.50571 28.3682 7.49044 28.3622 7.47626C28.3562 7.46207 28.3473 7.44928 28.3361 7.43868C28.325 7.42807 28.3117 7.41988 28.2973 7.41462C28.2828 7.40936 28.2674 7.40715 28.252 7.40811ZM19.732 7.96811C19.7032 7.96991 19.6762 7.98277 19.6566 8.00402C19.637 8.02526 19.6264 8.05324 19.627 8.08211C19.627 8.14411 19.677 8.19611 19.74 8.19511C19.7697 8.19459 19.7981 8.18249 19.819 8.16138C19.8399 8.14027 19.8518 8.11183 19.852 8.08211C19.852 8.06666 19.8489 8.05138 19.8428 8.03719C19.8367 8.023 19.8277 8.01022 19.8165 7.99963C19.8052 7.98904 19.7919 7.98087 19.7774 7.97562C19.7629 7.97037 19.7474 7.96815 19.732 7.96911V7.96811ZM28.252 7.96811C28.2232 7.96991 28.1962 7.98277 28.1766 8.00402C28.157 8.02526 28.1464 8.05324 28.147 8.08211C28.147 8.14411 28.197 8.19611 28.26 8.19511C28.321 8.19511 28.37 8.14411 28.371 8.08211C28.3712 8.06671 28.3682 8.05144 28.3622 8.03726C28.3562 8.02307 28.3473 8.01028 28.3361 7.99968C28.325 7.98907 28.3117 7.98088 28.2973 7.97562C28.2828 7.97037 28.2674 7.96815 28.252 7.96911V7.96811ZM19.732 8.53111C19.7032 8.53291 19.6762 8.54577 19.6566 8.56702C19.637 8.58826 19.6264 8.61624 19.627 8.64511C19.627 8.70711 19.677 8.75811 19.74 8.75811C19.7697 8.75759 19.7981 8.74549 19.819 8.72438C19.8399 8.70327 19.8518 8.67483 19.852 8.64511C19.8522 8.62958 19.8491 8.61418 19.8431 8.59988C19.837 8.58557 19.8281 8.57267 19.8169 8.56197C19.8056 8.55127 19.7922 8.54301 19.7777 8.5377C19.7631 8.53239 19.7475 8.53015 19.732 8.53111ZM28.252 8.53111C28.2232 8.53291 28.1962 8.54577 28.1766 8.56702C28.157 8.58826 28.1464 8.61624 28.147 8.64511C28.147 8.70711 28.197 8.75811 28.26 8.75811C28.321 8.75811 28.37 8.70611 28.371 8.64511C28.3713 8.62963 28.3684 8.61425 28.3625 8.59995C28.3565 8.58564 28.3477 8.57273 28.3365 8.56201C28.3253 8.5513 28.3121 8.54302 28.2975 8.5377C28.283 8.53239 28.2675 8.53014 28.252 8.53111ZM19.732 9.09411C19.7173 9.09503 19.7029 9.09884 19.6897 9.10532C19.6765 9.11179 19.6646 9.12082 19.6549 9.13187C19.6451 9.14292 19.6376 9.15578 19.6329 9.16972C19.6281 9.18366 19.6261 9.1984 19.627 9.21311C19.6279 9.22782 19.6317 9.2422 19.6382 9.25544C19.6447 9.26868 19.6537 9.28051 19.6648 9.29026C19.6758 9.30001 19.6887 9.30749 19.7026 9.31226C19.7166 9.31704 19.7313 9.31903 19.746 9.31811C19.7757 9.31626 19.8035 9.30267 19.8232 9.28036C19.8429 9.25804 19.8529 9.22882 19.851 9.19911C19.8492 9.16941 19.8356 9.14166 19.8133 9.12197C19.7909 9.10227 19.7617 9.09226 19.732 9.09411ZM28.252 9.09411C28.2373 9.09503 28.2229 9.09884 28.2097 9.10532C28.1965 9.11179 28.1846 9.12082 28.1749 9.13187C28.1651 9.14292 28.1576 9.15578 28.1529 9.16972C28.1481 9.18366 28.1461 9.1984 28.147 9.21311C28.1479 9.22782 28.1517 9.2422 28.1582 9.25544C28.1647 9.26868 28.1737 9.28051 28.1848 9.29026C28.1958 9.30001 28.2087 9.30749 28.2226 9.31226C28.2366 9.31704 28.2513 9.31903 28.266 9.31811C28.2957 9.31626 28.3235 9.30267 28.3432 9.28036C28.3629 9.25804 28.3729 9.22882 28.371 9.19911C28.3692 9.16941 28.3556 9.14166 28.3333 9.12197C28.3109 9.10227 28.2817 9.09226 28.252 9.09411ZM19.732 9.65611C19.7034 9.65838 19.6766 9.67139 19.6572 9.69252C19.6377 9.71366 19.6269 9.74137 19.627 9.77011C19.627 9.79995 19.6389 9.82856 19.66 9.84966C19.6811 9.87076 19.7097 9.88261 19.7395 9.88261C19.7694 9.88261 19.798 9.87076 19.8191 9.84966C19.8402 9.82856 19.852 9.79995 19.852 9.77011C19.852 9.75462 19.8489 9.73929 19.8428 9.72505C19.8367 9.71082 19.8278 9.69797 19.8165 9.6873C19.8053 9.67664 19.792 9.66837 19.7775 9.663C19.763 9.65764 19.7475 9.6553 19.732 9.65611ZM28.252 9.65611C28.2234 9.65838 28.1966 9.67139 28.1772 9.69252C28.1577 9.71366 28.1469 9.74137 28.147 9.77011C28.147 9.79982 28.1588 9.8283 28.1798 9.84931C28.2008 9.87031 28.2293 9.88211 28.259 9.88211C28.2887 9.88211 28.3172 9.87031 28.3382 9.84931C28.3592 9.8283 28.371 9.79982 28.371 9.77011C28.371 9.75471 28.3679 9.73947 28.3619 9.7253C28.3558 9.71113 28.347 9.69834 28.3359 9.68768C28.3248 9.67703 28.3116 9.66874 28.2972 9.66331C28.2828 9.65789 28.2674 9.65544 28.252 9.65611ZM19.721 10.2191C19.6944 10.2236 19.6704 10.2375 19.6531 10.2582C19.6359 10.279 19.6266 10.3052 19.627 10.3321C19.627 10.3951 19.677 10.4481 19.74 10.4471C19.7701 10.4466 19.7987 10.4342 19.8197 10.4127C19.8407 10.3911 19.8523 10.3622 19.852 10.3321C19.8518 10.3024 19.8399 10.274 19.819 10.2528C19.7981 10.2317 19.7697 10.2196 19.74 10.2191H19.721ZM28.241 10.2191C28.2143 10.2234 28.19 10.2372 28.1725 10.258C28.1551 10.2787 28.1457 10.305 28.146 10.3321C28.146 10.3951 28.197 10.4481 28.26 10.4471C28.2899 10.4463 28.3183 10.4338 28.339 10.4123C28.3598 10.3908 28.3713 10.362 28.371 10.3321C28.3708 10.3026 28.3591 10.2743 28.3383 10.2532C28.3176 10.2321 28.2896 10.2199 28.26 10.2191H28.24H28.241ZM19.742 10.7791C19.727 10.7792 19.7121 10.7824 19.6982 10.7883C19.6844 10.7942 19.6718 10.8028 19.6613 10.8136C19.6508 10.8243 19.6426 10.8371 19.637 10.8511C19.6315 10.8651 19.6288 10.8801 19.629 10.8951C19.629 10.9571 19.679 11.0051 19.742 11.0041C19.7565 11.0042 19.771 11.0015 19.7844 10.996C19.7979 10.9906 19.8101 10.9825 19.8204 10.9722C19.8308 10.962 19.839 10.9499 19.8445 10.9364C19.8501 10.923 19.853 10.9086 19.853 10.8941C19.8533 10.8644 19.842 10.8357 19.8214 10.8142C19.8009 10.7928 19.7727 10.7802 19.743 10.7791H19.742ZM28.262 10.7791C28.2469 10.7791 28.2319 10.7821 28.2179 10.788C28.204 10.7938 28.1913 10.8024 28.1807 10.8132C28.1701 10.824 28.1617 10.8368 28.1561 10.8509C28.1505 10.8649 28.1478 10.88 28.148 10.8951C28.148 10.9571 28.199 11.0051 28.262 11.0041C28.2765 11.0042 28.291 11.0015 28.3044 10.996C28.3179 10.9906 28.3301 10.9825 28.3404 10.9722C28.3508 10.962 28.359 10.9499 28.3645 10.9364C28.3701 10.923 28.373 10.9086 28.373 10.8941C28.3733 10.8642 28.3618 10.8354 28.341 10.8139C28.3203 10.7924 28.2919 10.7799 28.262 10.7791ZM17.203 11.2521V11.2541C17.0784 11.2561 16.9555 11.2826 16.8412 11.3322C16.7269 11.3818 16.6235 11.4535 16.537 11.5431L14.73 13.4001C14.6388 13.4883 14.5663 13.5938 14.5167 13.7105C14.4671 13.8272 14.4414 13.9527 14.4412 14.0795C14.441 14.2063 14.4663 14.3319 14.5156 14.4487C14.5648 14.5656 14.637 14.6714 14.7279 14.7598C14.8188 14.8482 14.9265 14.9175 15.0447 14.9635C15.1629 15.0095 15.2891 15.0313 15.4159 15.0276C15.5426 15.0239 15.6673 14.9947 15.7826 14.9419C15.8979 14.8891 16.0014 14.8137 16.087 14.7201L17.895 12.8611C18.027 12.7275 18.1162 12.5575 18.1512 12.373C18.1862 12.1884 18.1654 11.9976 18.0915 11.825C18.0175 11.6523 17.8938 11.5056 17.7361 11.4035C17.5784 11.3015 17.3938 11.2488 17.206 11.2521H17.204H17.203ZM24.891 11.2521V11.2541C24.7664 11.2561 24.6435 11.2826 24.5292 11.3322C24.4149 11.3818 24.3115 11.4535 24.225 11.5431L22.416 13.4001C22.3248 13.4883 22.2523 13.5938 22.2027 13.7105C22.1531 13.8272 22.1274 13.9527 22.1272 14.0795C22.127 14.2063 22.1523 14.3319 22.2016 14.4487C22.2508 14.5656 22.323 14.6714 22.4139 14.7598C22.5048 14.8482 22.6125 14.9175 22.7307 14.9635C22.8489 15.0095 22.9751 15.0313 23.1019 15.0276C23.2286 15.0239 23.3533 14.9947 23.4686 14.9419C23.5839 14.8891 23.6874 14.8137 23.773 14.7201L25.582 12.8611C25.7141 12.7274 25.8033 12.5574 25.8383 12.3727C25.8732 12.1881 25.8524 11.9972 25.7783 11.8245C25.7042 11.6518 25.5803 11.5051 25.4225 11.4031C25.2646 11.3012 25.0799 11.2486 24.892 11.2521H24.891ZM32.578 11.2521V11.2541C32.4534 11.2561 32.3305 11.2826 32.2162 11.3322C32.1019 11.3818 31.9985 11.4535 31.912 11.5431L30.104 13.4001C30.0128 13.4883 29.9403 13.5938 29.8907 13.7105C29.8411 13.8272 29.8154 13.9527 29.8152 14.0795C29.815 14.2063 29.8403 14.3319 29.8896 14.4487C29.9388 14.5656 30.011 14.6714 30.1019 14.7598C30.1928 14.8482 30.3005 14.9175 30.4187 14.9635C30.5369 15.0095 30.6631 15.0313 30.7899 15.0276C30.9166 15.0239 31.0413 14.9947 31.1566 14.9419C31.2719 14.8891 31.3754 14.8137 31.461 14.7201L33.27 12.8611C33.4021 12.7274 33.4913 12.5574 33.5263 12.3727C33.5612 12.1881 33.5404 11.9972 33.4663 11.8245C33.3922 11.6518 33.2683 11.5051 33.1105 11.4031C32.9526 11.3012 32.7679 11.2486 32.58 11.2521H32.578ZM19.742 11.3421C19.7119 11.3421 19.683 11.3541 19.6618 11.3754C19.6405 11.3966 19.6285 11.4255 19.6285 11.4556C19.6285 11.4857 19.6405 11.5146 19.6618 11.5359C19.683 11.5572 19.7119 11.5691 19.742 11.5691C19.803 11.5681 19.852 11.5161 19.853 11.4551C19.8533 11.4256 19.8419 11.3971 19.8213 11.376C19.8007 11.3548 19.7725 11.3426 19.743 11.3421H19.742ZM28.262 11.3421C28.2319 11.3421 28.203 11.3541 28.1818 11.3754C28.1605 11.3966 28.1485 11.4255 28.1485 11.4556C28.1485 11.4857 28.1605 11.5146 28.1818 11.5359C28.203 11.5572 28.2319 11.5691 28.262 11.5691C28.322 11.5681 28.372 11.5161 28.373 11.4551C28.3731 11.4404 28.3704 11.4258 28.3649 11.4122C28.3594 11.3985 28.3512 11.3861 28.3409 11.3756C28.3306 11.3651 28.3183 11.3568 28.3048 11.351C28.2913 11.3453 28.2767 11.3422 28.262 11.3421ZM17.268 11.7341V11.7361C17.3592 11.7446 17.4453 11.7817 17.514 11.8421C17.92 12.2031 17.437 12.6271 17.262 12.8111L16.396 13.7151C15.789 14.3461 15.526 14.7731 15.102 14.3651C14.742 13.9921 15.06 13.7691 15.748 13.0701L16.613 12.1661C16.819 11.9651 17.031 11.7231 17.268 11.7341ZM24.955 11.7341V11.7361C25.0462 11.7446 25.1323 11.7817 25.201 11.8421C25.608 12.2031 25.124 12.6271 24.949 12.8111L24.084 13.7151C23.477 14.3461 23.213 14.7731 22.789 14.3651C22.429 13.9921 22.747 13.7691 23.435 13.0701L24.301 12.1661C24.506 11.9651 24.719 11.7231 24.955 11.7341ZM32.643 11.7341V11.7361C32.7342 11.7446 32.8203 11.7817 32.889 11.8421C33.295 12.2031 32.812 12.6271 32.637 12.8111L31.771 13.7151C31.164 14.3461 30.901 14.7731 30.477 14.3651C30.117 13.9921 30.435 13.7691 31.123 13.0701L31.988 12.1661C32.194 11.9651 32.406 11.7231 32.643 11.7341ZM19.733 11.9041C19.7038 11.9062 19.6766 11.9193 19.6568 11.9409C19.6371 11.9625 19.6264 11.9909 19.627 12.0201C19.627 12.0821 19.677 12.1341 19.74 12.1331C19.7551 12.1326 19.7698 12.1291 19.7835 12.1229C19.7972 12.1166 19.8095 12.1077 19.8198 12.0967C19.8301 12.0857 19.8381 12.0728 19.8433 12.0587C19.8486 12.0446 19.851 12.0296 19.8505 12.0146C19.85 11.9996 19.8465 11.9848 19.8403 11.9711C19.834 11.9574 19.8252 11.9451 19.8142 11.9348C19.8031 11.9246 19.7902 11.9166 19.7761 11.9113C19.762 11.906 19.7471 11.9036 19.732 11.9041H19.733ZM28.252 11.9041C28.223 11.9064 28.196 11.9197 28.1765 11.9413C28.157 11.9628 28.1464 11.991 28.147 12.0201C28.147 12.0821 28.197 12.1341 28.26 12.1331C28.2751 12.1326 28.2898 12.1291 28.3035 12.1229C28.3172 12.1166 28.3295 12.1077 28.3398 12.0967C28.3501 12.0857 28.3581 12.0728 28.3633 12.0587C28.3686 12.0446 28.371 12.0296 28.3705 12.0146C28.37 11.9996 28.3665 11.9848 28.3603 11.9711C28.354 11.9574 28.3452 11.9451 28.3342 11.9348C28.3231 11.9246 28.3102 11.9166 28.2961 11.9113C28.282 11.906 28.2671 11.9036 28.252 11.9041ZM19.732 12.4671C19.7034 12.4689 19.6765 12.4816 19.657 12.5027C19.6374 12.5237 19.6267 12.5514 19.627 12.5801C19.627 12.6421 19.677 12.6961 19.74 12.6951C19.7699 12.6941 19.7983 12.6815 19.8191 12.6601C19.84 12.6387 19.8518 12.61 19.852 12.5801C19.8522 12.5646 19.8492 12.5493 19.8431 12.535C19.837 12.5208 19.8281 12.5079 19.8168 12.4973C19.8055 12.4867 19.7922 12.4785 19.7776 12.4733C19.763 12.4681 19.7475 12.466 19.732 12.4671ZM28.252 12.4671C28.2234 12.4689 28.1965 12.4816 28.177 12.5027C28.1574 12.5237 28.1467 12.5514 28.147 12.5801C28.147 12.6421 28.197 12.6961 28.26 12.6951C28.321 12.6951 28.37 12.6411 28.371 12.5801C28.3712 12.5647 28.3682 12.5494 28.3622 12.5353C28.3562 12.5211 28.3473 12.5083 28.3361 12.4977C28.325 12.4871 28.3117 12.4789 28.2973 12.4736C28.2828 12.4684 28.2674 12.4661 28.252 12.4671ZM19.732 13.0291C19.7172 13.03 19.7028 13.0339 19.6895 13.0404C19.6762 13.0469 19.6643 13.0559 19.6545 13.067C19.6447 13.0781 19.6372 13.091 19.6324 13.105C19.6276 13.119 19.6256 13.1338 19.6265 13.1486C19.6274 13.1634 19.6313 13.1778 19.6378 13.1911C19.6443 13.2044 19.6533 13.2163 19.6644 13.2261C19.6755 13.2359 19.6884 13.2434 19.7024 13.2482C19.7164 13.253 19.7312 13.255 19.746 13.2541C19.7759 13.2523 19.8037 13.2386 19.8235 13.2162C19.8433 13.1938 19.8534 13.1644 19.8515 13.1346C19.8497 13.1048 19.836 13.0769 19.8136 13.0571C19.7912 13.0373 19.7619 13.0273 19.732 13.0291ZM28.252 13.0291C28.2372 13.03 28.2228 13.0339 28.2095 13.0404C28.1962 13.0469 28.1843 13.0559 28.1745 13.067C28.1647 13.0781 28.1572 13.091 28.1524 13.105C28.1476 13.119 28.1456 13.1338 28.1465 13.1486C28.1474 13.1634 28.1513 13.1778 28.1578 13.1911C28.1643 13.2044 28.1733 13.2163 28.1844 13.2261C28.1955 13.2359 28.2084 13.2434 28.2224 13.2482C28.2364 13.253 28.2512 13.255 28.266 13.2541C28.2959 13.2523 28.3237 13.2386 28.3435 13.2162C28.3633 13.1938 28.3734 13.1644 28.3715 13.1346C28.3697 13.1048 28.356 13.0769 28.3336 13.0571C28.3112 13.0373 28.2819 13.0273 28.252 13.0291ZM19.732 13.5921C19.7023 13.594 19.6746 13.6075 19.6549 13.6299C19.6352 13.6522 19.6252 13.6814 19.627 13.7111C19.6289 13.7408 19.6425 13.7686 19.6648 13.7883C19.6871 13.8079 19.7163 13.818 19.746 13.8161C19.7607 13.8152 19.7751 13.8114 19.7883 13.8049C19.8016 13.7984 19.8134 13.7894 19.8232 13.7784C19.8329 13.7673 19.8404 13.7544 19.8452 13.7405C19.85 13.7266 19.8519 13.7118 19.851 13.6971C19.8501 13.6824 19.8463 13.668 19.8398 13.6548C19.8333 13.6415 19.8243 13.6297 19.8133 13.62C19.8022 13.6102 19.7894 13.6027 19.7754 13.598C19.7615 13.5932 19.7467 13.5912 19.732 13.5921ZM28.252 13.5921C28.2223 13.594 28.1946 13.6075 28.1749 13.6299C28.1552 13.6522 28.1452 13.6814 28.147 13.7111C28.1489 13.7408 28.1625 13.7686 28.1848 13.7883C28.2071 13.8079 28.2363 13.818 28.266 13.8161C28.2807 13.8152 28.2951 13.8114 28.3083 13.8049C28.3216 13.7984 28.3334 13.7894 28.3432 13.7784C28.3529 13.7673 28.3604 13.7544 28.3652 13.7405C28.3699 13.7266 28.3719 13.7118 28.371 13.6971C28.3701 13.6824 28.3663 13.668 28.3598 13.6548C28.3533 13.6415 28.3443 13.6297 28.3333 13.62C28.3222 13.6102 28.3094 13.6027 28.2954 13.598C28.2815 13.5932 28.2667 13.5912 28.252 13.5921ZM19.732 14.1541C19.7172 14.155 19.7028 14.1589 19.6895 14.1654C19.6762 14.1719 19.6643 14.1809 19.6545 14.192C19.6447 14.2031 19.6372 14.216 19.6324 14.23C19.6276 14.244 19.6256 14.2588 19.6265 14.2736C19.6274 14.2884 19.6313 14.3028 19.6378 14.3161C19.6443 14.3294 19.6533 14.3413 19.6644 14.3511C19.6755 14.3609 19.6884 14.3684 19.7024 14.3732C19.7164 14.378 19.7312 14.38 19.746 14.3791C19.7759 14.3773 19.8037 14.3636 19.8235 14.3412C19.8433 14.3188 19.8534 14.2894 19.8515 14.2596C19.8497 14.2298 19.836 14.2019 19.8136 14.1821C19.7912 14.1623 19.7619 14.1523 19.732 14.1541ZM28.252 14.1541C28.2222 14.156 28.1943 14.1696 28.1745 14.192C28.1547 14.2144 28.1447 14.2438 28.1465 14.2736C28.1484 14.3034 28.162 14.3313 28.1844 14.3511C28.2068 14.3709 28.2362 14.381 28.266 14.3791C28.2808 14.3782 28.2952 14.3744 28.3085 14.3679C28.3218 14.3614 28.3337 14.3523 28.3435 14.3412C28.3533 14.3301 28.3608 14.3172 28.3656 14.3032C28.3704 14.2892 28.3724 14.2744 28.3715 14.2596C28.3706 14.2448 28.3668 14.2304 28.3603 14.2171C28.3538 14.2038 28.3447 14.1919 28.3336 14.1821C28.3225 14.1723 28.3096 14.1648 28.2956 14.16C28.2816 14.1552 28.2668 14.1532 28.252 14.1541ZM19.721 14.7171C19.6946 14.7212 19.6706 14.7347 19.6533 14.7551C19.636 14.7755 19.6267 14.8014 19.627 14.8281C19.6268 14.8503 19.6332 14.872 19.6453 14.8905C19.6575 14.909 19.6748 14.9235 19.6952 14.9322C19.7156 14.9409 19.7381 14.9433 19.7599 14.9391C19.7816 14.935 19.8017 14.9245 19.8175 14.909C19.8333 14.8935 19.8441 14.8736 19.8487 14.8519C19.8532 14.8303 19.8512 14.8077 19.8429 14.7872C19.8346 14.7666 19.8204 14.749 19.8021 14.7365C19.7838 14.7241 19.7622 14.7173 19.74 14.7171H19.721ZM28.241 14.7171C28.2144 14.721 28.1901 14.7344 28.1727 14.7548C28.1552 14.7752 28.1457 14.8012 28.146 14.8281C28.1458 14.8502 28.1522 14.8719 28.1643 14.8904C28.1764 14.9089 28.1937 14.9234 28.214 14.9321C28.2343 14.9408 28.2568 14.9432 28.2785 14.9392C28.3003 14.9352 28.3203 14.9248 28.3361 14.9093C28.352 14.8939 28.3629 14.8742 28.3675 14.8525C28.3722 14.8309 28.3703 14.8084 28.3621 14.7879C28.354 14.7673 28.34 14.7496 28.3218 14.737C28.3036 14.7244 28.2821 14.7175 28.26 14.7171H28.24H28.241ZM19.721 15.2791C19.6999 15.2825 19.6803 15.2919 19.6643 15.3062C19.6484 15.3204 19.6369 15.3389 19.6312 15.3595C19.6254 15.3801 19.6257 15.4019 19.6319 15.4223C19.6381 15.4427 19.65 15.461 19.6663 15.4748C19.6825 15.4887 19.7024 15.4976 19.7236 15.5006C19.7447 15.5035 19.7663 15.5004 19.7857 15.4915C19.8051 15.4826 19.8216 15.4683 19.8332 15.4503C19.8447 15.4324 19.8509 15.4115 19.851 15.3901C19.851 15.3301 19.801 15.2801 19.741 15.2801H19.72L19.721 15.2791ZM28.241 15.2791C28.2199 15.2825 28.2003 15.2919 28.1843 15.3062C28.1684 15.3204 28.1569 15.3389 28.1512 15.3595C28.1454 15.3801 28.1457 15.4019 28.1519 15.4223C28.1581 15.4427 28.17 15.461 28.1863 15.4748C28.2025 15.4887 28.2224 15.4976 28.2436 15.5006C28.2647 15.5035 28.2863 15.5004 28.3057 15.4915C28.3251 15.4826 28.3416 15.4683 28.3532 15.4503C28.3647 15.4324 28.3709 15.4115 28.371 15.3901C28.371 15.3301 28.321 15.2801 28.26 15.2801H28.24L28.241 15.2791ZM19.742 15.8391C19.7272 15.839 19.7125 15.8418 19.6987 15.8473C19.6849 15.8529 19.6724 15.8611 19.6618 15.8715C19.6512 15.8819 19.6428 15.8943 19.637 15.9079C19.6312 15.9216 19.6281 15.9363 19.628 15.9511C19.6279 15.966 19.6307 15.9807 19.6362 15.9944C19.6418 16.0082 19.65 16.0207 19.6604 16.0313C19.6708 16.0419 19.6832 16.0503 19.6968 16.0561C19.7105 16.0619 19.7252 16.065 19.74 16.0651C19.7699 16.0654 19.7986 16.0538 19.8199 16.0329C19.8411 16.012 19.8533 15.9834 19.8535 15.9536C19.8538 15.9238 19.8422 15.8951 19.8213 15.8738C19.8004 15.8525 19.7719 15.8404 19.742 15.8401V15.8391ZM28.262 15.8391C28.2472 15.839 28.2325 15.8418 28.2187 15.8473C28.2049 15.8529 28.1924 15.8611 28.1818 15.8715C28.1712 15.8819 28.1628 15.8943 28.157 15.9079C28.1512 15.9216 28.1481 15.9363 28.148 15.9511C28.1479 15.966 28.1507 15.9807 28.1562 15.9944C28.1618 16.0082 28.17 16.0207 28.1804 16.0313C28.1908 16.0419 28.2032 16.0503 28.2169 16.0561C28.2305 16.0619 28.2452 16.065 28.26 16.0651C28.2899 16.0654 28.3186 16.0538 28.3399 16.0329C28.3611 16.012 28.3733 15.9834 28.3735 15.9536C28.3738 15.9238 28.3622 15.8951 28.3413 15.8738C28.3204 15.8525 28.2919 15.8404 28.262 15.8401V15.8391ZM19.732 16.4021C19.7032 16.4039 19.6762 16.4168 19.6566 16.438C19.637 16.4593 19.6264 16.4872 19.627 16.5161C19.627 16.5781 19.677 16.6281 19.74 16.6271C19.7699 16.6261 19.798 16.6132 19.8184 16.5913C19.8387 16.5695 19.8496 16.5404 19.8485 16.5106C19.8475 16.4808 19.8346 16.4526 19.8127 16.4322C19.7909 16.4119 19.7619 16.4011 19.732 16.4021ZM28.252 16.4021C28.2232 16.4039 28.1962 16.4168 28.1766 16.438C28.157 16.4593 28.1464 16.4872 28.147 16.5161C28.147 16.5458 28.1588 16.5743 28.1798 16.5953C28.2008 16.6163 28.2293 16.6281 28.259 16.6281C28.2887 16.6281 28.3172 16.6163 28.3382 16.5953C28.3592 16.5743 28.371 16.5458 28.371 16.5161C28.3713 16.5006 28.3684 16.4852 28.3625 16.4709C28.3565 16.4566 28.3477 16.4437 28.3365 16.433C28.3253 16.4223 28.3121 16.414 28.2975 16.4087C28.283 16.4034 28.2675 16.4011 28.252 16.4021ZM17.205 16.5101V16.5121C17.0804 16.514 16.9575 16.5405 16.8432 16.5901C16.7289 16.6397 16.6255 16.7114 16.539 16.8011L14.73 18.6581C14.6429 18.7471 14.5742 18.8524 14.528 18.9681C14.4817 19.0837 14.4587 19.2073 14.4604 19.3319C14.4621 19.4564 14.4884 19.5794 14.5377 19.6937C14.5871 19.808 14.6585 19.9115 14.748 19.9981C14.8371 20.0851 14.9426 20.1536 15.0583 20.1997C15.174 20.2458 15.2976 20.2686 15.4222 20.2667C15.5467 20.2649 15.6696 20.2384 15.7839 20.1889C15.8982 20.1394 16.0015 20.0677 16.088 19.9781L17.896 18.1191C17.9832 18.0302 18.0519 17.9249 18.0983 17.8093C18.1447 17.6937 18.1677 17.5701 18.1661 17.4456C18.1645 17.321 18.1384 17.1981 18.0891 17.0837C18.0398 16.9693 17.9684 16.8658 17.879 16.7791C17.79 16.6919 17.6847 16.6231 17.569 16.5768C17.4533 16.5305 17.3296 16.5075 17.205 16.5091V16.5101ZM24.893 16.5101V16.5121C24.7684 16.514 24.6455 16.5405 24.5312 16.5901C24.4169 16.6397 24.3135 16.7114 24.227 16.8011L22.418 18.6581C22.3309 18.7471 22.2622 18.8524 22.216 18.9681C22.1697 19.0837 22.1467 19.2073 22.1484 19.3319C22.1501 19.4564 22.1764 19.5794 22.2257 19.6937C22.2751 19.808 22.3465 19.9115 22.436 19.9981C22.5251 20.0851 22.6306 20.1536 22.7463 20.1997C22.862 20.2458 22.9856 20.2686 23.1102 20.2667C23.2347 20.2649 23.3576 20.2384 23.4719 20.1889C23.5862 20.1394 23.6895 20.0677 23.776 19.9781L25.584 18.1191C25.6711 18.0301 25.7398 17.9248 25.7861 17.8092C25.8323 17.6935 25.8553 17.5699 25.8536 17.4454C25.852 17.3208 25.8257 17.1979 25.7763 17.0835C25.727 16.9692 25.6555 16.8657 25.566 16.7791C25.4771 16.692 25.3719 16.6233 25.2564 16.577C25.141 16.5307 25.0174 16.5076 24.893 16.5091V16.5101ZM32.58 16.5101V16.5121C32.4554 16.514 32.3325 16.5405 32.2182 16.5901C32.1039 16.6397 32.0005 16.7114 31.914 16.8011L30.105 18.6581C30.0179 18.7471 29.9492 18.8524 29.903 18.9681C29.8567 19.0837 29.8337 19.2073 29.8354 19.3319C29.8371 19.4564 29.8634 19.5794 29.9127 19.6937C29.9621 19.808 30.0335 19.9115 30.123 19.9981C30.2121 20.0851 30.3176 20.1536 30.4333 20.1997C30.549 20.2458 30.6726 20.2686 30.7972 20.2667C30.9217 20.2649 31.0446 20.2384 31.1589 20.1889C31.2732 20.1394 31.3765 20.0677 31.463 19.9781L33.272 18.1191C33.3591 18.0301 33.4278 17.9248 33.4741 17.8092C33.5203 17.6935 33.5433 17.5699 33.5416 17.4454C33.54 17.3208 33.5137 17.1979 33.4643 17.0835C33.415 16.9692 33.3435 16.8657 33.254 16.7791C33.165 16.6919 33.0597 16.6231 32.944 16.5768C32.8283 16.5305 32.7046 16.5075 32.58 16.5091V16.5101ZM19.732 16.9651C19.7034 16.9669 19.6765 16.9796 19.657 17.0007C19.6374 17.0217 19.6267 17.0494 19.627 17.0781C19.627 17.1401 19.677 17.1901 19.74 17.1891C19.7697 17.1891 19.7982 17.1773 19.8192 17.1563C19.8402 17.1353 19.852 17.1068 19.852 17.0771C19.852 17.0474 19.8402 17.0189 19.8192 16.9979C19.7982 16.9769 19.7697 16.9651 19.74 16.9651C19.7374 16.965 19.7347 16.965 19.732 16.9651ZM28.252 16.9651C28.2234 16.9669 28.1965 16.9796 28.177 17.0007C28.1574 17.0217 28.1467 17.0494 28.147 17.0781C28.147 17.1078 28.1588 17.1363 28.1798 17.1573C28.2008 17.1783 28.2293 17.1901 28.259 17.1901C28.2887 17.1901 28.3172 17.1783 28.3382 17.1573C28.3592 17.1363 28.371 17.1078 28.371 17.0781C28.3712 17.0627 28.3682 17.0474 28.3622 17.0333C28.3562 17.0191 28.3473 17.0063 28.3361 16.9957C28.325 16.9851 28.3117 16.9769 28.2973 16.9716C28.2828 16.9664 28.2674 16.9641 28.252 16.9651ZM17.27 16.9951V16.9961C17.348 17.0001 17.429 17.0341 17.514 17.1021C17.92 17.4631 17.439 17.8851 17.264 18.0681L16.398 18.9731C15.791 19.6041 15.528 20.0311 15.104 19.6231C14.744 19.2501 15.062 19.0291 15.75 18.3301L16.615 17.4261C16.821 17.2251 17.033 16.9831 17.27 16.9941V16.9951ZM24.957 16.9951V16.9961C25.036 17.0001 25.117 17.0341 25.201 17.1021C25.608 17.4631 25.126 17.8851 24.951 18.0681L24.086 18.9731C23.479 19.6041 23.215 20.0311 22.791 19.6231C22.431 19.2501 22.749 19.0291 23.437 18.3301L24.303 17.4261C24.508 17.2251 24.721 16.9831 24.957 16.9941V16.9951ZM32.645 16.9951V16.9961C32.723 17.0001 32.804 17.0341 32.889 17.1021C33.295 17.4631 32.814 17.8851 32.639 18.0681L31.773 18.9731C31.166 19.6041 30.903 20.0311 30.479 19.6231C30.119 19.2501 30.437 19.0291 31.125 18.3301L31.99 17.4261C32.196 17.2251 32.408 16.9831 32.645 16.9941V16.9951ZM19.732 17.5271C19.7035 17.5289 19.6768 17.5415 19.6573 17.5623C19.6378 17.5831 19.627 17.6106 19.627 17.6391C19.627 17.7011 19.677 17.7541 19.74 17.7541C19.7701 17.7536 19.7987 17.7412 19.8197 17.7197C19.8407 17.6981 19.8523 17.6692 19.852 17.6391C19.8521 17.6237 19.8489 17.6085 19.8428 17.5943C19.8367 17.5802 19.8277 17.5675 19.8164 17.5569C19.8052 17.5464 19.7919 17.5384 19.7773 17.5332C19.7628 17.5281 19.7474 17.526 19.732 17.5271ZM28.252 17.5271C28.2235 17.5289 28.1968 17.5415 28.1773 17.5623C28.1578 17.5831 28.147 17.6106 28.147 17.6391C28.146 17.7011 28.197 17.7541 28.26 17.7541C28.2899 17.7533 28.3183 17.7408 28.339 17.7193C28.3598 17.6978 28.3713 17.669 28.371 17.6391C28.371 17.6238 28.3679 17.6086 28.3619 17.5946C28.3558 17.5805 28.3469 17.5678 28.3358 17.5573C28.3246 17.5468 28.3114 17.5387 28.297 17.5335C28.2826 17.5283 28.2673 17.5262 28.252 17.5271ZM19.732 18.0901C19.7173 18.091 19.7029 18.0948 19.6897 18.1013C19.6765 18.1078 19.6646 18.1168 19.6549 18.1279C19.6451 18.1389 19.6376 18.1518 19.6329 18.1657C19.6281 18.1797 19.6261 18.1944 19.627 18.2091C19.6279 18.2238 19.6317 18.2382 19.6382 18.2514C19.6447 18.2647 19.6537 18.2765 19.6648 18.2863C19.6758 18.296 19.6887 18.3035 19.7026 18.3083C19.7166 18.313 19.7313 18.315 19.746 18.3141C19.7757 18.3123 19.8035 18.2987 19.8232 18.2764C19.8429 18.254 19.8529 18.2248 19.851 18.1951C19.8492 18.1654 19.8356 18.1377 19.8133 18.118C19.7909 18.0983 19.7617 18.0883 19.732 18.0901ZM28.252 18.0901C28.2373 18.091 28.2229 18.0948 28.2097 18.1013C28.1965 18.1078 28.1846 18.1168 28.1749 18.1279C28.1651 18.1389 28.1576 18.1518 28.1529 18.1657C28.1481 18.1797 28.1461 18.1944 28.147 18.2091C28.1479 18.2238 28.1517 18.2382 28.1582 18.2514C28.1647 18.2647 28.1737 18.2765 28.1848 18.2863C28.1958 18.296 28.2087 18.3035 28.2226 18.3083C28.2366 18.313 28.2513 18.315 28.266 18.3141C28.2957 18.3123 28.3235 18.2987 28.3432 18.2764C28.3629 18.254 28.3729 18.2248 28.371 18.1951C28.3692 18.1654 28.3556 18.1377 28.3333 18.118C28.3109 18.0983 28.2817 18.0883 28.252 18.0901ZM19.732 18.6521C19.7023 18.654 19.6746 18.6675 19.6549 18.6899C19.6352 18.7122 19.6252 18.7414 19.627 18.7711C19.6289 18.8008 19.6425 18.8286 19.6648 18.8483C19.6871 18.8679 19.7163 18.878 19.746 18.8761C19.7607 18.8752 19.7751 18.8714 19.7883 18.8649C19.8016 18.8584 19.8134 18.8494 19.8232 18.8384C19.8329 18.8273 19.8404 18.8144 19.8452 18.8005C19.85 18.7866 19.8519 18.7718 19.851 18.7571C19.8501 18.7424 19.8463 18.728 19.8398 18.7148C19.8333 18.7015 19.8243 18.6897 19.8133 18.68C19.8022 18.6702 19.7894 18.6627 19.7754 18.658C19.7615 18.6532 19.7467 18.6512 19.732 18.6521ZM28.252 18.6521C28.2372 18.653 28.2228 18.6569 28.2095 18.6634C28.1962 18.6699 28.1843 18.6789 28.1745 18.69C28.1647 18.7011 28.1572 18.714 28.1524 18.728C28.1476 18.742 28.1456 18.7568 28.1465 18.7716C28.1474 18.7864 28.1513 18.8008 28.1578 18.8141C28.1643 18.8274 28.1733 18.8393 28.1844 18.8491C28.1955 18.8589 28.2084 18.8664 28.2224 18.8712C28.2364 18.876 28.2512 18.878 28.266 18.8771C28.2959 18.8753 28.3237 18.8616 28.3435 18.8392C28.3633 18.8168 28.3734 18.7874 28.3715 18.7576C28.3697 18.7278 28.356 18.6999 28.3336 18.6801C28.3112 18.6603 28.2819 18.6503 28.252 18.6521ZM19.721 19.2151C19.6946 19.2192 19.6706 19.2327 19.6533 19.2531C19.636 19.2735 19.6267 19.2994 19.627 19.3261C19.6268 19.3483 19.6332 19.37 19.6453 19.3885C19.6575 19.407 19.6748 19.4215 19.6952 19.4302C19.7156 19.4389 19.7381 19.4413 19.7599 19.4371C19.7816 19.433 19.8017 19.4225 19.8175 19.407C19.8333 19.3915 19.8441 19.3716 19.8487 19.3499C19.8532 19.3283 19.8512 19.3057 19.8429 19.2852C19.8346 19.2646 19.8204 19.247 19.8021 19.2345C19.7838 19.2221 19.7622 19.2153 19.74 19.2151H19.721ZM28.241 19.2151C28.2144 19.219 28.1901 19.2324 28.1727 19.2528C28.1552 19.2732 28.1457 19.2992 28.146 19.3261C28.1456 19.3485 28.1519 19.3705 28.164 19.3893C28.1761 19.4081 28.1936 19.4229 28.2141 19.4318C28.2347 19.4407 28.2574 19.4433 28.2794 19.4392C28.3015 19.4352 28.3218 19.4247 28.3378 19.4091C28.3539 19.3934 28.3649 19.3734 28.3696 19.3515C28.3742 19.3296 28.3722 19.3068 28.3639 19.286C28.3555 19.2653 28.3412 19.2474 28.3227 19.2348C28.3042 19.2222 28.2824 19.2153 28.26 19.2151H28.24H28.241ZM19.742 19.7751C19.7272 19.775 19.7126 19.7778 19.6989 19.7833C19.6852 19.7888 19.6727 19.797 19.6622 19.8074C19.6516 19.8177 19.6432 19.83 19.6375 19.8436C19.6317 19.8572 19.6286 19.8718 19.6285 19.8866C19.6284 19.9014 19.6312 19.916 19.6367 19.9297C19.6422 19.9434 19.6504 19.9559 19.6608 19.9665C19.6711 19.977 19.6834 19.9854 19.697 19.9912C19.7106 19.9969 19.7252 20 19.74 20.0001C19.7699 20.0004 19.7986 19.9888 19.8199 19.9679C19.8411 19.947 19.8533 19.9184 19.8535 19.8886C19.8538 19.8588 19.8422 19.8301 19.8213 19.8088C19.8004 19.7875 19.7719 19.7754 19.742 19.7751ZM28.262 19.7751C28.2464 19.7735 28.2306 19.7752 28.2156 19.78C28.2006 19.7849 28.1868 19.7928 28.1751 19.8033C28.1634 19.8138 28.154 19.8266 28.1475 19.8409C28.141 19.8553 28.1376 19.8708 28.1375 19.8865C28.1373 19.9022 28.1405 19.9178 28.1467 19.9323C28.1529 19.9467 28.1621 19.9597 28.1736 19.9704C28.1852 19.9811 28.1988 19.9893 28.2137 19.9944C28.2286 19.9995 28.2443 20.0014 28.26 20.0001C28.2881 19.9977 28.3142 19.985 28.3333 19.9643C28.3525 19.9437 28.3632 19.9167 28.3634 19.8885C28.3637 19.8604 28.3534 19.8332 28.3347 19.8122C28.3159 19.7912 28.29 19.778 28.262 19.7751ZM19.732 20.3381C19.7034 20.3399 19.6765 20.3526 19.657 20.3737C19.6374 20.3947 19.6267 20.4224 19.627 20.4511C19.627 20.5131 19.677 20.5631 19.74 20.5621C19.7547 20.5616 19.7692 20.5582 19.7826 20.5521C19.796 20.5459 19.808 20.5373 19.818 20.5265C19.8281 20.5157 19.8359 20.5031 19.841 20.4893C19.8462 20.4755 19.8485 20.4608 19.848 20.4461C19.8475 20.4314 19.8441 20.4169 19.838 20.4036C19.8318 20.3902 19.8232 20.3781 19.8124 20.3681C19.8016 20.3581 19.789 20.3503 19.7752 20.3451C19.7614 20.34 19.7467 20.3376 19.732 20.3381ZM28.252 20.3381C28.2234 20.3399 28.1965 20.3526 28.177 20.3737C28.1574 20.3947 28.1467 20.4224 28.147 20.4511C28.147 20.5131 28.197 20.5631 28.26 20.5621C28.2747 20.5616 28.2892 20.5582 28.3026 20.5521C28.316 20.5459 28.328 20.5373 28.338 20.5265C28.3481 20.5157 28.3559 20.5031 28.361 20.4893C28.3662 20.4755 28.3685 20.4608 28.368 20.4461C28.3675 20.4314 28.3641 20.4169 28.358 20.4036C28.3518 20.3902 28.3432 20.3781 28.3324 20.3681C28.3216 20.3581 28.309 20.3503 28.2952 20.3451C28.2814 20.34 28.2667 20.3376 28.252 20.3381ZM19.732 20.9001C19.7032 20.9019 19.6762 20.9148 19.6566 20.936C19.637 20.9573 19.6264 20.9852 19.627 21.0141C19.627 21.0439 19.6389 21.0726 19.66 21.0937C19.6811 21.1148 19.7097 21.1266 19.7395 21.1266C19.7694 21.1266 19.798 21.1148 19.8191 21.0937C19.8402 21.0726 19.852 21.0439 19.852 21.0141C19.8522 20.9986 19.8491 20.9832 19.8431 20.9689C19.837 20.9546 19.8281 20.9417 19.8169 20.931C19.8056 20.9203 19.7922 20.912 19.7777 20.9067C19.7631 20.9014 19.7475 20.8991 19.732 20.9001ZM28.252 20.9001C28.2227 20.9012 28.1949 20.9137 28.1747 20.935C28.1545 20.9563 28.1435 20.9847 28.144 21.014C28.1446 21.0434 28.1566 21.0714 28.1775 21.0919C28.1985 21.1125 28.2267 21.124 28.256 21.124C28.2854 21.124 28.3136 21.1125 28.3345 21.0919C28.3554 21.0714 28.3675 21.0434 28.368 21.014C28.3685 20.9847 28.3575 20.9563 28.3373 20.935C28.3171 20.9137 28.2894 20.9012 28.26 20.9001C28.2574 20.9 28.2547 20.9 28.252 20.9001ZM19.732 21.4631C19.7034 21.4649 19.6765 21.4776 19.657 21.4987C19.6374 21.5197 19.6267 21.5474 19.627 21.5761C19.627 21.6381 19.677 21.6891 19.74 21.6871C19.802 21.6871 19.851 21.6371 19.852 21.5771C19.8522 21.5616 19.8491 21.5462 19.8431 21.5319C19.837 21.5176 19.8281 21.5047 19.8169 21.494C19.8056 21.4833 19.7922 21.475 19.7777 21.4697C19.7631 21.4644 19.7475 21.4621 19.732 21.4631ZM28.252 21.4631C28.2234 21.4649 28.1965 21.4776 28.177 21.4987C28.1574 21.5197 28.1467 21.5474 28.147 21.5761C28.147 21.6381 28.197 21.6891 28.26 21.6871C28.321 21.6871 28.37 21.6371 28.371 21.5771C28.3713 21.5616 28.3684 21.5463 28.3625 21.5319C28.3565 21.5176 28.3477 21.5047 28.3365 21.494C28.3253 21.4833 28.3121 21.475 28.2975 21.4697C28.283 21.4644 28.2675 21.4621 28.252 21.4631ZM17.205 21.7691C17.0803 21.7716 16.9572 21.7986 16.8429 21.8487C16.7286 21.8988 16.6253 21.971 16.539 22.0611L14.73 23.9181C14.5639 24.0997 14.475 24.3389 14.4822 24.5849C14.4894 24.8309 14.5921 25.0645 14.7685 25.2361C14.9449 25.4077 15.1812 25.5039 15.4273 25.5043C15.6735 25.5046 15.9101 25.4092 16.087 25.2381L17.897 23.3781C17.984 23.2891 18.0525 23.1839 18.0987 23.0683C18.1449 22.9528 18.1678 22.8293 18.1661 22.7049C18.1645 22.5805 18.1382 22.4576 18.089 22.3434C18.0397 22.2291 17.9683 22.1257 17.879 22.0391C17.79 21.9519 17.6847 21.8831 17.569 21.8368C17.4533 21.7905 17.3296 21.7675 17.205 21.7691ZM24.893 21.7691C24.7683 21.7716 24.6452 21.7986 24.5309 21.8487C24.4166 21.8988 24.3133 21.971 24.227 22.0611L22.418 23.9181C22.2519 24.0997 22.163 24.3389 22.1702 24.5849C22.1774 24.8309 22.2801 25.0645 22.4565 25.2361C22.6329 25.4077 22.8692 25.5039 23.1153 25.5043C23.3615 25.5046 23.5981 25.4092 23.775 25.2381L25.584 23.3781C25.671 23.2891 25.7395 23.1839 25.7857 23.0683C25.8319 22.9528 25.8548 22.8293 25.8531 22.7049C25.8514 22.5805 25.8252 22.4576 25.776 22.3434C25.7267 22.2291 25.6553 22.1257 25.566 22.0391C25.4771 21.952 25.3719 21.8833 25.2564 21.837C25.141 21.7907 25.0174 21.7676 24.893 21.7691ZM32.58 21.7691C32.4553 21.7716 32.3322 21.7986 32.2179 21.8487C32.1036 21.8988 32.0003 21.971 31.914 22.0611L30.105 23.9181C29.9389 24.0997 29.85 24.3389 29.8572 24.5849C29.8644 24.8309 29.9671 25.0645 30.1435 25.2361C30.3199 25.4077 30.5562 25.5039 30.8023 25.5043C31.0485 25.5046 31.2851 25.4092 31.462 25.2381L33.272 23.3781C33.359 23.2891 33.4275 23.1839 33.4737 23.0683C33.5199 22.9528 33.5428 22.8293 33.5411 22.7049C33.5395 22.5805 33.5132 22.4576 33.464 22.3434C33.4147 22.2291 33.3433 22.1257 33.254 22.0391C33.165 21.9519 33.0597 21.8831 32.944 21.8368C32.8283 21.7905 32.7046 21.7675 32.58 21.7691ZM19.732 22.0251C19.7172 22.026 19.7028 22.0299 19.6895 22.0364C19.6762 22.0429 19.6643 22.0519 19.6545 22.063C19.6447 22.0741 19.6372 22.087 19.6324 22.101C19.6276 22.115 19.6256 22.1298 19.6265 22.1446C19.6274 22.1594 19.6313 22.1738 19.6378 22.1871C19.6443 22.2004 19.6533 22.2123 19.6644 22.2221C19.6755 22.2319 19.6884 22.2394 19.7024 22.2442C19.7164 22.249 19.7312 22.251 19.746 22.2501C19.7759 22.2483 19.8037 22.2346 19.8235 22.2122C19.8433 22.1898 19.8534 22.1604 19.8515 22.1306C19.8497 22.1008 19.836 22.0729 19.8136 22.0531C19.7912 22.0333 19.7619 22.0233 19.732 22.0251ZM28.252 22.0251C28.2372 22.026 28.2228 22.0299 28.2095 22.0364C28.1962 22.0429 28.1843 22.0519 28.1745 22.063C28.1647 22.0741 28.1572 22.087 28.1524 22.101C28.1476 22.115 28.1456 22.1298 28.1465 22.1446C28.1474 22.1594 28.1513 22.1738 28.1578 22.1871C28.1643 22.2004 28.1733 22.2123 28.1844 22.2221C28.1955 22.2319 28.2084 22.2394 28.2224 22.2442C28.2364 22.249 28.2512 22.251 28.266 22.2501C28.2959 22.2483 28.3237 22.2346 28.3435 22.2122C28.3633 22.1898 28.3734 22.1604 28.3715 22.1306C28.3697 22.1008 28.356 22.0729 28.3336 22.0531C28.3112 22.0333 28.2819 22.0233 28.252 22.0251ZM17.27 22.2521C17.348 22.2561 17.429 22.2901 17.514 22.3591C17.92 22.7211 17.439 23.1451 17.264 23.3291L16.398 24.2321C15.791 24.8641 15.528 25.2911 15.104 24.8821C14.744 24.5091 15.062 24.2871 15.75 23.5881L16.615 22.6861C16.821 22.4851 17.033 22.2401 17.27 22.2521ZM24.957 22.2521C25.036 22.2561 25.117 22.2901 25.201 22.3591C25.608 22.7211 25.126 23.1451 24.951 23.3291L24.086 24.2321C23.479 24.8641 23.215 25.2911 22.791 24.8821C22.431 24.5091 22.749 24.2871 23.437 23.5881L24.303 22.6861C24.508 22.4851 24.721 22.2401 24.957 22.2521ZM32.645 22.2521C32.723 22.2561 32.804 22.2901 32.889 22.3591C33.295 22.7211 32.814 23.1451 32.639 23.3291L31.773 24.2321C31.166 24.8641 30.903 25.2911 30.479 24.8821C30.119 24.5091 30.437 24.2871 31.125 23.5881L31.99 22.6861C32.196 22.4851 32.408 22.2401 32.645 22.2521ZM19.732 22.5881C19.7023 22.59 19.6746 22.6035 19.6549 22.6259C19.6352 22.6482 19.6252 22.6774 19.627 22.7071C19.6289 22.7368 19.6425 22.7646 19.6648 22.7843C19.6871 22.8039 19.7163 22.814 19.746 22.8121C19.7607 22.8112 19.7751 22.8074 19.7883 22.8009C19.8016 22.7944 19.8134 22.7854 19.8232 22.7744C19.8329 22.7633 19.8404 22.7504 19.8452 22.7365C19.85 22.7226 19.8519 22.7078 19.851 22.6931C19.8501 22.6784 19.8463 22.664 19.8398 22.6508C19.8333 22.6375 19.8243 22.6257 19.8133 22.616C19.8022 22.6062 19.7894 22.5987 19.7754 22.594C19.7615 22.5892 19.7467 22.5872 19.732 22.5881ZM28.252 22.5881C28.2373 22.589 28.2229 22.5928 28.2097 22.5993C28.1965 22.6058 28.1846 22.6148 28.1749 22.6259C28.1651 22.6369 28.1576 22.6498 28.1529 22.6637C28.1481 22.6777 28.1461 22.6924 28.147 22.7071C28.1479 22.7218 28.1517 22.7362 28.1582 22.7494C28.1647 22.7627 28.1737 22.7745 28.1848 22.7843C28.1958 22.794 28.2087 22.8015 28.2226 22.8063C28.2366 22.811 28.2513 22.813 28.266 22.8121C28.2957 22.8103 28.3235 22.7967 28.3432 22.7744C28.3629 22.752 28.3729 22.7228 28.371 22.6931C28.3692 22.6634 28.3556 22.6357 28.3333 22.616C28.3109 22.5963 28.2817 22.5863 28.252 22.5881ZM19.732 23.1501C19.7027 23.1512 19.6749 23.1637 19.6547 23.185C19.6345 23.2063 19.6235 23.2347 19.624 23.264C19.6246 23.2934 19.6366 23.3214 19.6575 23.3419C19.6785 23.3625 19.7067 23.374 19.736 23.374C19.7654 23.374 19.7936 23.3625 19.8145 23.3419C19.8354 23.3214 19.8475 23.2934 19.848 23.264C19.8485 23.2347 19.8375 23.2063 19.8173 23.185C19.7971 23.1637 19.7694 23.1512 19.74 23.1501C19.7374 23.15 19.7347 23.15 19.732 23.1501ZM28.252 23.1501C28.2222 23.1512 28.194 23.164 28.1736 23.1859C28.1533 23.2077 28.1425 23.2368 28.1435 23.2666C28.1446 23.2964 28.1574 23.3246 28.1793 23.345C28.2011 23.3653 28.2302 23.3762 28.26 23.3751C28.2748 23.3746 28.2893 23.3712 28.3028 23.365C28.3162 23.3589 28.3283 23.3502 28.3384 23.3393C28.3485 23.3285 28.3563 23.3158 28.3615 23.302C28.3667 23.2881 28.369 23.2734 28.3685 23.2586C28.368 23.2438 28.3646 23.2293 28.3584 23.2159C28.3523 23.2024 28.3436 23.1903 28.3327 23.1802C28.3219 23.1702 28.3092 23.1623 28.2954 23.1571C28.2815 23.152 28.2668 23.1496 28.252 23.1501ZM19.721 23.7131C19.6946 23.7172 19.6706 23.7307 19.6533 23.7511C19.636 23.7715 19.6267 23.7974 19.627 23.8241C19.6268 23.8463 19.6332 23.868 19.6453 23.8865C19.6575 23.905 19.6748 23.9195 19.6952 23.9282C19.7156 23.9369 19.7381 23.9393 19.7599 23.9351C19.7816 23.931 19.8017 23.9205 19.8175 23.905C19.8333 23.8895 19.8441 23.8696 19.8487 23.8479C19.8532 23.8263 19.8512 23.8037 19.8429 23.7832C19.8346 23.7626 19.8204 23.745 19.8021 23.7325C19.7838 23.7201 19.7622 23.7133 19.74 23.7131H19.721ZM28.241 23.7131C28.2144 23.717 28.1901 23.7304 28.1727 23.7508C28.1552 23.7712 28.1457 23.7972 28.146 23.8241C28.1458 23.8462 28.1522 23.8679 28.1643 23.8864C28.1764 23.9049 28.1937 23.9194 28.214 23.9281C28.2343 23.9368 28.2568 23.9393 28.2785 23.9352C28.3003 23.9312 28.3203 23.9208 28.3361 23.9053C28.352 23.8899 28.3629 23.8701 28.3675 23.8485C28.3722 23.8269 28.3703 23.8044 28.3621 23.7839C28.354 23.7633 28.34 23.7456 28.3218 23.733C28.3036 23.7204 28.2821 23.7135 28.26 23.7131H28.24H28.241ZM19.721 24.2751C19.6943 24.279 19.67 24.2926 19.6527 24.3132C19.6354 24.3339 19.6262 24.3602 19.627 24.3871C19.627 24.4491 19.677 24.4991 19.74 24.4981C19.802 24.4981 19.851 24.4481 19.852 24.3871C19.852 24.3261 19.802 24.2761 19.74 24.2751H19.721ZM28.241 24.2751C28.2142 24.2788 28.1896 24.2923 28.1721 24.3129C28.1546 24.3336 28.1453 24.36 28.146 24.3871C28.146 24.4169 28.1579 24.4456 28.179 24.4667C28.2001 24.4878 28.2287 24.4996 28.2585 24.4996C28.2884 24.4996 28.317 24.4878 28.3381 24.4667C28.3592 24.4456 28.371 24.4169 28.371 24.3871C28.371 24.3261 28.321 24.2761 28.26 24.2751H28.24H28.241ZM19.732 24.8361C19.7034 24.8379 19.6765 24.8506 19.657 24.8717C19.6374 24.8927 19.6267 24.9204 19.627 24.9491C19.6272 24.9712 19.6339 24.9927 19.6463 25.011C19.6587 25.0292 19.6762 25.0434 19.6966 25.0518C19.717 25.0601 19.7395 25.0623 19.7611 25.0579C19.7827 25.0536 19.8026 25.0429 19.8182 25.0273C19.8338 25.0117 19.8445 24.9918 19.8488 24.9702C19.8532 24.9486 19.851 24.9261 19.8427 24.9057C19.8343 24.8853 19.8201 24.8678 19.8019 24.8554C19.7836 24.843 19.7621 24.8363 19.74 24.8361C19.7374 24.836 19.7347 24.836 19.732 24.8361ZM28.252 24.8361C28.2234 24.8379 28.1965 24.8506 28.177 24.8717C28.1574 24.8927 28.1467 24.9204 28.147 24.9491C28.147 24.9788 28.1588 25.0073 28.1798 25.0283C28.2008 25.0493 28.2293 25.0611 28.259 25.0611C28.2887 25.0611 28.3172 25.0493 28.3382 25.0283C28.3592 25.0073 28.371 24.9788 28.371 24.9491C28.3712 24.9337 28.3682 24.9184 28.3622 24.9043C28.3562 24.8901 28.3473 24.8773 28.3361 24.8667C28.325 24.8561 28.3117 24.8479 28.2973 24.8426C28.2828 24.8374 28.2674 24.8351 28.252 24.8361ZM19.732 25.3991C19.7034 25.4009 19.6765 25.4136 19.657 25.4347C19.6374 25.4557 19.6267 25.4834 19.627 25.5121C19.627 25.5741 19.677 25.6241 19.74 25.6231C19.7699 25.6231 19.7985 25.6113 19.8196 25.5902C19.8407 25.5691 19.8525 25.5404 19.8525 25.5106C19.8525 25.4808 19.8407 25.4522 19.8196 25.4311C19.7985 25.41 19.7699 25.3981 19.74 25.3981C19.7374 25.398 19.7347 25.398 19.732 25.3981V25.3991ZM28.252 25.3991C28.2234 25.4009 28.1965 25.4136 28.177 25.4347C28.1574 25.4557 28.1467 25.4834 28.147 25.5121C28.147 25.5418 28.1588 25.5703 28.1798 25.5913C28.2008 25.6123 28.2293 25.6241 28.259 25.6241C28.2887 25.6241 28.3172 25.6123 28.3382 25.5913C28.3592 25.5703 28.371 25.5418 28.371 25.5121C28.3713 25.4966 28.3684 25.4813 28.3625 25.4669C28.3565 25.4526 28.3477 25.4397 28.3365 25.429C28.3253 25.4183 28.3121 25.41 28.2975 25.4047C28.283 25.3994 28.2675 25.3971 28.252 25.3981V25.3991ZM19.732 25.9611C19.7034 25.9629 19.6765 25.9756 19.657 25.9967C19.6374 26.0177 19.6267 26.0454 19.627 26.0741C19.6272 26.0962 19.6339 26.1177 19.6463 26.136C19.6587 26.1542 19.6762 26.1684 19.6966 26.1768C19.717 26.1851 19.7395 26.1873 19.7611 26.1829C19.7827 26.1786 19.8026 26.1679 19.8182 26.1523C19.8338 26.1367 19.8445 26.1168 19.8488 26.0952C19.8532 26.0736 19.851 26.0511 19.8427 26.0307C19.8343 26.0103 19.8201 25.9928 19.8019 25.9804C19.7836 25.968 19.7621 25.9613 19.74 25.9611C19.7374 25.9609 19.7347 25.9609 19.732 25.9611ZM28.252 25.9611C28.2234 25.9629 28.1965 25.9756 28.177 25.9967C28.1574 26.0177 28.1467 26.0454 28.147 26.0741C28.147 26.1038 28.1588 26.1323 28.1798 26.1533C28.2008 26.1743 28.2293 26.1861 28.259 26.1861C28.2887 26.1861 28.3172 26.1743 28.3382 26.1533C28.3592 26.1323 28.371 26.1038 28.371 26.0741C28.3712 26.0587 28.3682 26.0434 28.3622 26.0293C28.3562 26.0151 28.3473 26.0023 28.3361 25.9917C28.325 25.9811 28.3117 25.9729 28.2973 25.9676C28.2828 25.9624 28.2674 25.9601 28.252 25.9611ZM19.732 26.5241C19.7027 26.5252 19.6749 26.5377 19.6547 26.559C19.6345 26.5803 19.6235 26.6087 19.624 26.638C19.6246 26.6674 19.6366 26.6954 19.6575 26.7159C19.6785 26.7365 19.7067 26.748 19.736 26.748C19.7654 26.748 19.7936 26.7365 19.8145 26.7159C19.8354 26.6954 19.8475 26.6674 19.848 26.638C19.8485 26.6087 19.8375 26.5803 19.8173 26.559C19.7971 26.5377 19.7694 26.5252 19.74 26.5241C19.7374 26.5239 19.7347 26.5239 19.732 26.5241ZM28.252 26.5241C28.2224 26.5252 28.1944 26.5378 28.174 26.5593C28.1536 26.5808 28.1425 26.6094 28.143 26.639C28.1436 26.6687 28.1557 26.6969 28.1768 26.7176C28.198 26.7384 28.2264 26.75 28.256 26.75C28.2856 26.75 28.3141 26.7384 28.3352 26.7176C28.3563 26.6969 28.3685 26.6687 28.369 26.639C28.3695 26.6094 28.3584 26.5808 28.338 26.5593C28.3176 26.5378 28.2896 26.5252 28.26 26.5241C28.2574 26.5239 28.2547 26.5239 28.252 26.5241ZM17.203 27.0271V27.0291C17.0784 27.0312 16.9554 27.0579 16.8411 27.1076C16.7268 27.1574 16.6234 27.2293 16.537 27.3191L14.729 29.1761C14.6418 29.265 14.5731 29.3703 14.5267 29.4859C14.4804 29.6015 14.4573 29.7251 14.4589 29.8496C14.4605 29.9742 14.4867 30.0972 14.5359 30.2115C14.5852 30.3259 14.6566 30.4294 14.746 30.5161C14.8351 30.6031 14.9406 30.6716 15.0563 30.7177C15.172 30.7638 15.2956 30.7866 15.4202 30.7847C15.5447 30.7829 15.6676 30.7564 15.7819 30.7069C15.8962 30.6574 15.9995 30.5857 16.086 30.4961L17.895 28.6361C17.9821 28.5471 18.0508 28.4418 18.0971 28.3262C18.1433 28.2105 18.1663 28.0869 18.1646 27.9624C18.163 27.8378 18.1367 27.7149 18.0873 27.6005C18.038 27.4862 17.9665 27.3827 17.877 27.2961C17.7879 27.2091 17.6825 27.1406 17.5668 27.0944C17.4512 27.0483 17.3275 27.0254 17.203 27.0271ZM24.891 27.0271V27.0291C24.7664 27.0312 24.6434 27.0579 24.5291 27.1076C24.4148 27.1574 24.3114 27.2293 24.225 27.3191L22.416 29.1761C22.3289 29.2651 22.2602 29.3704 22.214 29.4861C22.1677 29.6017 22.1447 29.7253 22.1464 29.8499C22.1481 29.9744 22.1744 30.0974 22.2237 30.2117C22.2731 30.326 22.3445 30.4295 22.434 30.5161C22.5231 30.6031 22.6286 30.6716 22.7443 30.7177C22.86 30.7638 22.9836 30.7866 23.1082 30.7847C23.2327 30.7829 23.3556 30.7564 23.4699 30.7069C23.5842 30.6574 23.6875 30.5857 23.774 30.4961L25.582 28.6361C25.6691 28.5471 25.7378 28.4418 25.7841 28.3262C25.8303 28.2105 25.8533 28.0869 25.8516 27.9624C25.85 27.8378 25.8237 27.7149 25.7743 27.6005C25.725 27.4862 25.6535 27.3827 25.564 27.2961C25.475 27.2092 25.3698 27.1408 25.2543 27.0946C25.1388 27.0484 25.0154 27.0255 24.891 27.0271ZM32.578 27.0271V27.0291C32.4534 27.0312 32.3304 27.0579 32.2161 27.1076C32.1018 27.1574 31.9984 27.2293 31.912 27.3191L30.104 29.1761C30.0168 29.265 29.9481 29.3703 29.9017 29.4859C29.8554 29.6015 29.8323 29.7251 29.8339 29.8496C29.8355 29.9742 29.8617 30.0972 29.9109 30.2115C29.9602 30.3259 30.0316 30.4294 30.121 30.5161C30.2101 30.6031 30.3156 30.6716 30.4313 30.7177C30.547 30.7638 30.6706 30.7866 30.7952 30.7847C30.9197 30.7829 31.0426 30.7564 31.1569 30.7069C31.2712 30.6574 31.3745 30.5857 31.461 30.4961L33.27 28.6361C33.3571 28.5471 33.4258 28.4418 33.4721 28.3262C33.5183 28.2105 33.5413 28.0869 33.5396 27.9624C33.538 27.8378 33.5117 27.7149 33.4623 27.6005C33.413 27.4862 33.3415 27.3827 33.252 27.2961C33.1629 27.2091 33.0575 27.1406 32.9418 27.0944C32.8262 27.0483 32.7025 27.0254 32.578 27.0271ZM19.732 27.0861C19.7173 27.087 19.7029 27.0908 19.6897 27.0973C19.6765 27.1038 19.6646 27.1128 19.6549 27.1239C19.6451 27.1349 19.6376 27.1478 19.6329 27.1617C19.6281 27.1757 19.6261 27.1904 19.627 27.2051C19.6279 27.2198 19.6317 27.2342 19.6382 27.2474C19.6447 27.2607 19.6537 27.2725 19.6648 27.2823C19.6758 27.292 19.6887 27.2995 19.7026 27.3043C19.7166 27.309 19.7313 27.311 19.746 27.3101C19.7757 27.3083 19.8035 27.2947 19.8232 27.2724C19.8429 27.25 19.8529 27.2208 19.851 27.1911C19.8492 27.1614 19.8356 27.1337 19.8133 27.114C19.7909 27.0943 19.7617 27.0843 19.732 27.0861ZM28.252 27.0861C28.2373 27.087 28.2229 27.0908 28.2097 27.0973C28.1965 27.1038 28.1846 27.1128 28.1749 27.1239C28.1651 27.1349 28.1576 27.1478 28.1529 27.1617C28.1481 27.1757 28.1461 27.1904 28.147 27.2051C28.1479 27.2198 28.1517 27.2342 28.1582 27.2474C28.1647 27.2607 28.1737 27.2725 28.1848 27.2823C28.1958 27.292 28.2087 27.2995 28.2226 27.3043C28.2366 27.309 28.2513 27.311 28.266 27.3101C28.2957 27.3083 28.3235 27.2947 28.3432 27.2724C28.3629 27.25 28.3729 27.2208 28.371 27.1911C28.3692 27.1614 28.3556 27.1337 28.3333 27.114C28.3109 27.0943 28.2817 27.0843 28.252 27.0861ZM17.268 27.5121C17.346 27.5151 17.427 27.5501 17.512 27.6191C17.918 27.9811 17.437 28.4051 17.262 28.5881L16.396 29.4921C15.789 30.1241 15.526 30.5501 15.102 30.1421C14.742 29.7691 15.06 29.5471 15.748 28.8481L16.613 27.9431C16.819 27.7431 17.031 27.5001 17.268 27.5121ZM24.955 27.5121C25.034 27.5151 25.115 27.5501 25.199 27.6191C25.606 27.9811 25.124 28.4051 24.949 28.5881L24.084 29.4921C23.477 30.1241 23.213 30.5501 22.789 30.1421C22.429 29.7691 22.747 29.5471 23.435 28.8481L24.301 27.9431C24.506 27.7431 24.719 27.5001 24.955 27.5121ZM32.643 27.5121C32.721 27.5151 32.802 27.5501 32.887 27.6191C33.293 27.9811 32.812 28.4051 32.637 28.5881L31.771 29.4921C31.164 30.1241 30.901 30.5501 30.477 30.1421C30.117 29.7691 30.435 29.5471 31.123 28.8481L31.988 27.9431C32.194 27.7431 32.406 27.5001 32.643 27.5121ZM19.733 27.6481C19.7183 27.649 19.7039 27.6527 19.6907 27.6591C19.6774 27.6655 19.6655 27.6745 19.6557 27.6855C19.6459 27.6965 19.6384 27.7093 19.6336 27.7233C19.6287 27.7372 19.6267 27.7519 19.6275 27.7666C19.6284 27.7813 19.6321 27.7957 19.6385 27.809C19.6449 27.8222 19.6539 27.8341 19.6649 27.8439C19.6759 27.8537 19.6887 27.8612 19.7027 27.8661C19.7166 27.8709 19.7313 27.873 19.746 27.8721C19.7757 27.8703 19.8035 27.8567 19.8232 27.8344C19.8429 27.812 19.8529 27.7828 19.851 27.7531C19.8492 27.7234 19.8356 27.6957 19.8133 27.676C19.7909 27.6563 19.7617 27.6463 19.732 27.6481H19.733ZM28.252 27.6481C28.2222 27.65 28.1943 27.6636 28.1745 27.686C28.1547 27.7084 28.1447 27.7378 28.1465 27.7676C28.1484 27.7974 28.162 27.8253 28.1844 27.8451C28.2068 27.8649 28.2362 27.875 28.266 27.8731C28.2808 27.8722 28.2952 27.8684 28.3085 27.8619C28.3218 27.8554 28.3337 27.8463 28.3435 27.8352C28.3533 27.8241 28.3608 27.8112 28.3656 27.7972C28.3704 27.7832 28.3724 27.7684 28.3715 27.7536C28.3706 27.7388 28.3668 27.7244 28.3603 27.7111C28.3538 27.6978 28.3447 27.6859 28.3336 27.6761C28.3225 27.6663 28.3096 27.6588 28.2956 27.654C28.2816 27.6492 28.2668 27.6472 28.252 27.6481ZM19.721 28.2111C19.6946 28.2152 19.6706 28.2287 19.6533 28.2491C19.636 28.2695 19.6267 28.2954 19.627 28.3221C19.627 28.3519 19.6389 28.3806 19.66 28.4017C19.6811 28.4228 19.7097 28.4346 19.7395 28.4346C19.7694 28.4346 19.798 28.4228 19.8191 28.4017C19.8402 28.3806 19.852 28.3519 19.852 28.3221C19.852 28.2611 19.802 28.2121 19.74 28.2111H19.721ZM28.241 28.2111C28.2144 28.215 28.1901 28.2284 28.1727 28.2488C28.1552 28.2692 28.1457 28.2952 28.146 28.3221C28.147 28.3841 28.197 28.4341 28.26 28.4341C28.321 28.4341 28.37 28.3841 28.371 28.3221C28.371 28.2611 28.321 28.2121 28.26 28.2111H28.24H28.241ZM19.742 28.7711C19.7272 28.771 19.7126 28.7738 19.6989 28.7793C19.6852 28.7848 19.6727 28.793 19.6622 28.8034C19.6409 28.8243 19.6288 28.8528 19.6285 28.8826C19.6283 28.9124 19.6399 28.9412 19.6608 28.9625C19.6817 28.9837 19.7102 28.9958 19.74 28.9961C19.7547 28.9962 19.7693 28.9935 19.783 28.988C19.7966 28.9825 19.809 28.9743 19.8195 28.964C19.83 28.9537 19.8384 28.9414 19.8441 28.9279C19.8499 28.9144 19.8529 28.8998 19.853 28.8851C19.8531 28.8704 19.8504 28.8558 19.8449 28.8422C19.8394 28.8285 19.8312 28.8161 19.8209 28.8056C19.8106 28.7951 19.7983 28.7868 19.7848 28.781C19.7713 28.7753 19.7567 28.7722 19.742 28.7721V28.7711ZM28.262 28.7711C28.232 28.7708 28.2032 28.7825 28.1818 28.8035C28.1604 28.8245 28.1483 28.8531 28.148 28.8831C28.1478 28.9131 28.1594 28.9419 28.1804 28.9633C28.2014 28.9847 28.23 28.9968 28.26 28.9971C28.2749 28.9972 28.2896 28.9945 28.3033 28.9889C28.3171 28.9833 28.3296 28.9751 28.3402 28.9647C28.3508 28.9543 28.3592 28.9419 28.365 28.9283C28.3708 28.9146 28.3739 28.9 28.374 28.8851C28.3741 28.8703 28.3714 28.8556 28.3658 28.8418C28.3602 28.828 28.352 28.8155 28.3416 28.8049C28.3312 28.7943 28.3188 28.7859 28.3052 28.7801C28.2915 28.7743 28.2769 28.7712 28.262 28.7711ZM19.732 29.3341C19.7034 29.3359 19.6765 29.3486 19.657 29.3697C19.6374 29.3907 19.6267 29.4184 19.627 29.4471C19.627 29.4769 19.6389 29.5056 19.66 29.5267C19.6811 29.5478 19.7097 29.5596 19.7395 29.5596C19.7694 29.5596 19.798 29.5478 19.8191 29.5267C19.8402 29.5056 19.852 29.4769 19.852 29.4471C19.852 29.4317 19.8489 29.4164 19.8428 29.4022C19.8367 29.388 19.8277 29.3752 19.8165 29.3646C19.8052 29.354 19.7919 29.3459 19.7774 29.3406C19.7629 29.3354 19.7474 29.3332 19.732 29.3341ZM28.252 29.3341C28.2234 29.3359 28.1965 29.3486 28.177 29.3697C28.1574 29.3907 28.1467 29.4184 28.147 29.4471C28.147 29.4769 28.1589 29.5056 28.18 29.5267C28.2011 29.5478 28.2297 29.5596 28.2595 29.5596C28.2894 29.5596 28.318 29.5478 28.3391 29.5267C28.3602 29.5056 28.372 29.4769 28.372 29.4471C28.3722 29.4316 28.3692 29.4163 28.3631 29.402C28.357 29.3878 28.3481 29.3749 28.3368 29.3643C28.3255 29.3537 28.3122 29.3455 28.2976 29.3403C28.283 29.3351 28.2675 29.333 28.252 29.3341ZM19.732 29.8971C19.7034 29.8989 19.6765 29.9116 19.657 29.9327C19.6374 29.9537 19.6267 29.9814 19.627 30.0101C19.627 30.0721 19.677 30.1211 19.74 30.1211C19.802 30.1211 19.851 30.0711 19.852 30.0101C19.8522 29.9946 19.8491 29.9792 19.8431 29.9649C19.837 29.9506 19.8281 29.9377 19.8169 29.927C19.8056 29.9163 19.7922 29.908 19.7777 29.9027C19.7631 29.8974 19.7475 29.8951 19.732 29.8961V29.8971ZM28.252 29.8971C28.2227 29.8982 28.1949 29.9107 28.1747 29.932C28.1545 29.9533 28.1435 29.9817 28.144 30.011C28.1446 30.0404 28.1566 30.0684 28.1775 30.0889C28.1985 30.1095 28.2267 30.121 28.256 30.121C28.2854 30.121 28.3136 30.1095 28.3345 30.0889C28.3554 30.0684 28.3675 30.0404 28.368 30.011C28.3685 29.9817 28.3575 29.9533 28.3373 29.932C28.3171 29.9107 28.2894 29.8982 28.26 29.8971C28.2574 29.897 28.2547 29.897 28.252 29.8971ZM19.732 30.4591C19.7034 30.4609 19.6765 30.4736 19.657 30.4947C19.6374 30.5157 19.6267 30.5434 19.627 30.5721C19.6273 30.5945 19.6342 30.6163 19.647 30.6347C19.6597 30.6531 19.6777 30.6673 19.6986 30.6754C19.7195 30.6834 19.7423 30.6851 19.7642 30.68C19.786 30.675 19.8058 30.6635 19.8211 30.6471C19.8363 30.6307 19.8463 30.6101 19.8497 30.588C19.8531 30.5659 19.8498 30.5432 19.8402 30.523C19.8306 30.5027 19.8152 30.4858 19.7959 30.4744C19.7766 30.463 19.7544 30.4577 19.732 30.4591ZM28.252 30.4591C28.2234 30.4609 28.1965 30.4736 28.177 30.4947C28.1574 30.5157 28.1467 30.5434 28.147 30.5721C28.1473 30.5945 28.1542 30.6163 28.167 30.6347C28.1797 30.6531 28.1977 30.6673 28.2186 30.6754C28.2395 30.6834 28.2623 30.6851 28.2842 30.68C28.306 30.675 28.3258 30.6635 28.3411 30.6471C28.3563 30.6307 28.3663 30.6101 28.3697 30.588C28.3731 30.5659 28.3698 30.5432 28.3602 30.523C28.3506 30.5027 28.3352 30.4858 28.3159 30.4744C28.2966 30.463 28.2744 30.4577 28.252 30.4591ZM19.732 31.0191C19.7034 31.0214 19.6766 31.0344 19.6572 31.0555C19.6377 31.0767 19.6269 31.1044 19.627 31.1331C19.627 31.1629 19.6389 31.1916 19.66 31.2127C19.6811 31.2338 19.7097 31.2456 19.7395 31.2456C19.7694 31.2456 19.798 31.2338 19.8191 31.2127C19.8402 31.1916 19.852 31.1629 19.852 31.1331C19.8519 31.1177 19.8487 31.1025 19.8425 31.0884C19.8363 31.0742 19.8274 31.0615 19.8162 31.051C19.805 31.0404 19.7917 31.0322 19.7773 31.0269C19.7628 31.0216 19.7474 31.0193 19.732 31.0201V31.0191ZM28.252 31.0191C28.2234 31.0214 28.1966 31.0344 28.1772 31.0555C28.1577 31.0767 28.1469 31.1044 28.147 31.1331C28.147 31.1628 28.1588 31.1913 28.1798 31.2123C28.2008 31.2333 28.2293 31.2451 28.259 31.2451C28.2887 31.2451 28.3172 31.2333 28.3382 31.2123C28.3592 31.1913 28.371 31.1628 28.371 31.1331C28.3709 31.1178 28.3677 31.1027 28.3616 31.0886C28.3555 31.0746 28.3466 31.0619 28.3355 31.0513C28.3244 31.0408 28.3113 31.0326 28.2969 31.0272C28.2826 31.0219 28.2673 31.0194 28.252 31.0201V31.0191ZM19.732 31.5821C19.7027 31.5832 19.6749 31.5957 19.6547 31.617C19.6345 31.6383 19.6235 31.6667 19.624 31.696C19.6246 31.7254 19.6366 31.7534 19.6575 31.7739C19.6785 31.7945 19.7067 31.806 19.736 31.806C19.7654 31.806 19.7936 31.7945 19.8145 31.7739C19.8354 31.7534 19.8475 31.7254 19.848 31.696C19.8485 31.6667 19.8375 31.6383 19.8173 31.617C19.7971 31.5957 19.7694 31.5832 19.74 31.5821H19.732ZM28.252 31.5821C28.2227 31.5832 28.1949 31.5957 28.1747 31.617C28.1545 31.6383 28.1435 31.6667 28.144 31.696C28.1446 31.7254 28.1566 31.7534 28.1775 31.7739C28.1985 31.7945 28.2267 31.806 28.256 31.806C28.2854 31.806 28.3136 31.7945 28.3345 31.7739C28.3554 31.7534 28.3675 31.7254 28.368 31.696C28.3685 31.6667 28.3575 31.6383 28.3373 31.617C28.3171 31.5957 28.2894 31.5832 28.26 31.5821H28.252ZM19.721 32.1451C19.6948 32.1492 19.6709 32.1625 19.6536 32.1827C19.6364 32.2029 19.6269 32.2286 19.627 32.2551C19.6266 32.2773 19.6328 32.2991 19.6448 32.3178C19.6569 32.3364 19.6742 32.3511 19.6945 32.3599C19.7149 32.3687 19.7374 32.3713 19.7593 32.3673C19.7811 32.3632 19.8012 32.3528 19.8171 32.3374C19.833 32.3219 19.844 32.302 19.8486 32.2803C19.8532 32.2586 19.8512 32.236 19.843 32.2154C19.8347 32.1948 19.8205 32.1771 19.8022 32.1646C19.7838 32.1521 19.7622 32.1453 19.74 32.1451H19.721ZM28.241 32.1451C28.2146 32.149 28.1905 32.1622 28.173 32.1824C28.1556 32.2026 28.146 32.2284 28.146 32.2551C28.1454 32.2775 28.1515 32.2996 28.1635 32.3186C28.1755 32.3375 28.1929 32.3525 28.2134 32.3615C28.234 32.3706 28.2567 32.3733 28.2788 32.3694C28.3009 32.3654 28.3213 32.355 28.3374 32.3394C28.3536 32.3238 28.3647 32.3038 28.3694 32.2819C28.3742 32.26 28.3723 32.2371 28.364 32.2163C28.3556 32.1954 28.3413 32.1775 28.3228 32.1649C28.3043 32.1522 28.2824 32.1453 28.26 32.1451H28.24H28.241ZM19.721 32.7071C19.6946 32.7112 19.6706 32.7247 19.6533 32.7451C19.636 32.7655 19.6267 32.7914 19.627 32.8181C19.627 32.8479 19.6389 32.8766 19.66 32.8977C19.6811 32.9188 19.7097 32.9306 19.7395 32.9306C19.7694 32.9306 19.798 32.9188 19.8191 32.8977C19.8402 32.8766 19.852 32.8479 19.852 32.8181C19.8518 32.7886 19.8398 32.7603 19.8189 32.7396C19.7979 32.7188 19.7695 32.7071 19.74 32.7071H19.721ZM28.241 32.7071C28.2199 32.7105 28.2003 32.7199 28.1843 32.7342C28.1684 32.7484 28.1569 32.7669 28.1512 32.7875C28.1454 32.8081 28.1457 32.8299 28.1519 32.8503C28.1581 32.8707 28.17 32.889 28.1863 32.9028C28.2025 32.9167 28.2224 32.9256 28.2436 32.9286C28.2647 32.9315 28.2863 32.9284 28.3057 32.9195C28.3251 32.9106 28.3416 32.8963 28.3532 32.8783C28.3647 32.8604 28.3709 32.8395 28.371 32.8181C28.3708 32.7888 28.359 32.7607 28.3382 32.7399C28.3175 32.7192 28.2894 32.7074 28.26 32.7071H28.24H28.241ZM17.205 33.0251V33.0271C17.0804 33.0291 16.9573 33.0558 16.843 33.1056C16.7287 33.1553 16.6254 33.2272 16.539 33.3171L14.73 35.1741C14.6429 35.2631 14.5742 35.3684 14.528 35.4841C14.4817 35.5997 14.4587 35.7233 14.4604 35.8479C14.4621 35.9724 14.4884 36.0953 14.5377 36.2097C14.5871 36.324 14.6585 36.4275 14.748 36.5141C14.8371 36.6011 14.9426 36.6696 15.0583 36.7157C15.174 36.7618 15.2976 36.7846 15.4222 36.7827C15.5467 36.7809 15.6696 36.7544 15.7839 36.7049C15.8982 36.6554 16.0015 36.5837 16.088 36.4941L17.896 34.6341C17.9832 34.5452 18.0519 34.4399 18.0983 34.3243C18.1447 34.2087 18.1677 34.0851 18.1661 33.9606C18.1645 33.8361 18.1384 33.7131 18.0891 33.5987C18.0398 33.4843 17.9684 33.3808 17.879 33.2941C17.7899 33.2071 17.6845 33.1385 17.5689 33.0923C17.4532 33.0462 17.3295 33.0233 17.205 33.0251ZM24.893 33.0251V33.0271C24.7684 33.0291 24.6453 33.0558 24.531 33.1056C24.4167 33.1553 24.3134 33.2272 24.227 33.3171L22.418 35.1741C22.3309 35.2631 22.2622 35.3684 22.216 35.4841C22.1697 35.5997 22.1467 35.7233 22.1484 35.8479C22.1501 35.9724 22.1764 36.0953 22.2257 36.2097C22.2751 36.324 22.3465 36.4275 22.436 36.5141C22.5251 36.6011 22.6306 36.6696 22.7463 36.7157C22.862 36.7618 22.9856 36.7846 23.1102 36.7827C23.2347 36.7809 23.3576 36.7544 23.4719 36.7049C23.5862 36.6554 23.6895 36.5837 23.776 36.4941L25.584 34.6341C25.6711 34.5451 25.7398 34.4398 25.7861 34.3242C25.8323 34.2085 25.8553 34.0849 25.8536 33.9604C25.852 33.8358 25.8257 33.7129 25.7763 33.5985C25.727 33.4842 25.6555 33.3807 25.566 33.2941C25.4771 33.2072 25.3718 33.1387 25.2563 33.0925C25.1408 33.0464 25.0174 33.0235 24.893 33.0251ZM32.58 33.0251V33.0271C32.4554 33.0291 32.3323 33.0558 32.218 33.1056C32.1037 33.1553 32.0004 33.2272 31.914 33.3171L30.105 35.1741C30.0179 35.2631 29.9492 35.3684 29.903 35.4841C29.8567 35.5997 29.8337 35.7233 29.8354 35.8479C29.8371 35.9724 29.8634 36.0953 29.9127 36.2097C29.9621 36.324 30.0335 36.4275 30.123 36.5141C30.2121 36.6011 30.3176 36.6696 30.4333 36.7157C30.549 36.7618 30.6726 36.7846 30.7972 36.7827C30.9217 36.7809 31.0446 36.7544 31.1589 36.7049C31.2732 36.6554 31.3765 36.5837 31.463 36.4941L33.272 34.6341C33.3591 34.5451 33.4278 34.4398 33.4741 34.3242C33.5203 34.2085 33.5433 34.0849 33.5416 33.9604C33.54 33.8358 33.5137 33.7129 33.4643 33.5985C33.415 33.4842 33.3435 33.3807 33.254 33.2941C33.1649 33.2071 33.0595 33.1385 32.9439 33.0923C32.8282 33.0462 32.7045 33.0233 32.58 33.0251ZM19.742 33.2681C19.727 33.2682 19.7122 33.2713 19.6985 33.2772C19.6847 33.283 19.6722 33.2915 19.6617 33.3022C19.6512 33.3129 19.6429 33.3255 19.6373 33.3394C19.6317 33.3533 19.6289 33.3681 19.629 33.3831C19.629 33.4451 19.679 33.4931 19.742 33.4931C19.7565 33.4932 19.771 33.4905 19.7844 33.485C19.7979 33.4796 19.8101 33.4715 19.8204 33.4612C19.8308 33.451 19.839 33.4389 19.8445 33.4254C19.8501 33.412 19.853 33.3976 19.853 33.3831C19.8533 33.3534 19.842 33.3247 19.8214 33.3032C19.8009 33.2818 19.7727 33.2692 19.743 33.2681H19.742ZM28.262 33.2681C28.247 33.2681 28.2321 33.2711 28.2182 33.2769C28.2043 33.2827 28.1917 33.2912 28.1811 33.3019C28.1705 33.3125 28.1621 33.3252 28.1564 33.3392C28.1507 33.3531 28.1479 33.3681 28.148 33.3831C28.148 33.4451 28.199 33.4931 28.262 33.4931C28.2765 33.4932 28.291 33.4905 28.3044 33.485C28.3179 33.4796 28.3301 33.4715 28.3404 33.4612C28.3508 33.451 28.359 33.4389 28.3645 33.4254C28.3701 33.412 28.373 33.3976 28.373 33.3831C28.3733 33.3532 28.3618 33.3244 28.341 33.3029C28.3203 33.2814 28.2919 33.2689 28.262 33.2681ZM17.27 33.5101C17.348 33.5141 17.429 33.5481 17.514 33.6171C17.92 33.9791 17.439 34.4031 17.264 34.5861L16.398 35.4901C15.791 36.1221 15.528 36.5481 15.104 36.1401C14.744 35.7671 15.062 35.5451 15.75 34.8461L16.615 33.9411C16.821 33.7411 17.033 33.4981 17.27 33.5101ZM24.957 33.5101C25.036 33.5141 25.117 33.5481 25.201 33.6171C25.608 33.9791 25.126 34.4031 24.951 34.5861L24.086 35.4901C23.479 36.1221 23.215 36.5481 22.791 36.1401C22.431 35.7671 22.749 35.5451 23.437 34.8461L24.303 33.9411C24.508 33.7411 24.721 33.4981 24.957 33.5101ZM32.645 33.5101C32.723 33.5141 32.804 33.5481 32.889 33.6171C33.295 33.9791 32.814 34.4031 32.639 34.5861L31.773 35.4901C31.166 36.1221 30.903 36.5481 30.479 36.1401C30.119 35.7671 30.437 35.5451 31.125 34.8461L31.99 33.9411C32.196 33.7411 32.408 33.4981 32.645 33.5101ZM19.732 33.8301C19.7034 33.8319 19.6765 33.8446 19.657 33.8657C19.6374 33.8867 19.6267 33.9144 19.627 33.9431C19.627 33.9729 19.6389 34.0016 19.66 34.0227C19.6811 34.0438 19.7097 34.0556 19.7395 34.0556C19.7694 34.0556 19.798 34.0438 19.8191 34.0227C19.8402 34.0016 19.852 33.9729 19.852 33.9431C19.8521 33.9283 19.8493 33.9137 19.8438 33.8999C19.8382 33.8862 19.83 33.8738 19.8196 33.8633C19.8092 33.8528 19.7968 33.8444 19.7831 33.8387C19.7695 33.833 19.7548 33.8301 19.74 33.8301H19.732ZM28.252 33.8301C28.2234 33.8319 28.1965 33.8446 28.177 33.8657C28.1574 33.8867 28.1467 33.9144 28.147 33.9431C28.147 33.9729 28.1589 34.0016 28.18 34.0227C28.2011 34.0438 28.2297 34.0556 28.2595 34.0556C28.2894 34.0556 28.318 34.0438 28.3391 34.0227C28.3602 34.0016 28.372 33.9729 28.372 33.9431C28.3721 33.9283 28.3694 33.9137 28.3638 33.8999C28.3582 33.8862 28.35 33.8738 28.3396 33.8633C28.3292 33.8528 28.3168 33.8444 28.3031 33.8387C28.2895 33.833 28.2748 33.8301 28.26 33.8301H28.252ZM19.732 34.3931C19.7034 34.3949 19.6765 34.4076 19.657 34.4287C19.6374 34.4497 19.6267 34.4774 19.627 34.5061C19.627 34.5681 19.677 34.6181 19.74 34.6171C19.802 34.6171 19.851 34.5671 19.852 34.5061C19.8522 34.4906 19.8492 34.4753 19.8431 34.461C19.837 34.4468 19.8281 34.4339 19.8168 34.4233C19.8055 34.4127 19.7922 34.4045 19.7776 34.3993C19.763 34.3941 19.7475 34.392 19.732 34.3931ZM28.252 34.3931C28.2234 34.3949 28.1965 34.4076 28.177 34.4287C28.1574 34.4497 28.1467 34.4774 28.147 34.5061C28.147 34.5681 28.197 34.6181 28.26 34.6171C28.2748 34.6166 28.2893 34.6132 28.3028 34.607C28.3162 34.6009 28.3283 34.5922 28.3384 34.5813C28.3485 34.5705 28.3563 34.5578 28.3615 34.544C28.3667 34.5301 28.369 34.5154 28.3685 34.5006C28.368 34.4858 28.3646 34.4713 28.3584 34.4579C28.3523 34.4444 28.3436 34.4323 28.3327 34.4222C28.3219 34.4122 28.3092 34.4043 28.2954 34.3991C28.2815 34.394 28.2668 34.3916 28.252 34.3921V34.3931ZM19.732 34.9551C19.7027 34.9562 19.6749 34.9687 19.6547 34.99C19.6345 35.0113 19.6235 35.0397 19.624 35.069C19.6246 35.0984 19.6366 35.1264 19.6575 35.1469C19.6785 35.1675 19.7067 35.179 19.736 35.179C19.7654 35.179 19.7936 35.1675 19.8145 35.1469C19.8354 35.1264 19.8475 35.0984 19.848 35.069C19.8485 35.0397 19.8375 35.0113 19.8173 34.99C19.7971 34.9687 19.7694 34.9562 19.74 34.9551C19.7374 34.955 19.7347 34.955 19.732 34.9551ZM28.252 34.9551C28.2222 34.9562 28.194 34.969 28.1736 34.9909C28.1533 35.0127 28.1425 35.0418 28.1435 35.0716C28.1446 35.1014 28.1574 35.1296 28.1793 35.15C28.2011 35.1703 28.2302 35.1812 28.26 35.1801C28.2748 35.1796 28.2893 35.1762 28.3028 35.17C28.3162 35.1639 28.3283 35.1552 28.3384 35.1443C28.3485 35.1335 28.3563 35.1208 28.3615 35.107C28.3667 35.0931 28.369 35.0784 28.3685 35.0636C28.368 35.0488 28.3646 35.0343 28.3584 35.0209C28.3523 35.0074 28.3436 34.9953 28.3327 34.9852C28.3219 34.9752 28.3092 34.9673 28.2954 34.9621C28.2815 34.957 28.2668 34.9546 28.252 34.9551ZM19.732 35.5181C19.7173 35.519 19.7029 35.5228 19.6897 35.5293C19.6765 35.5358 19.6646 35.5448 19.6549 35.5559C19.6451 35.5669 19.6376 35.5798 19.6329 35.5937C19.6281 35.6077 19.6261 35.6224 19.627 35.6371C19.6279 35.6518 19.6317 35.6662 19.6382 35.6794C19.6447 35.6927 19.6537 35.7045 19.6648 35.7143C19.6758 35.724 19.6887 35.7315 19.7026 35.7363C19.7166 35.741 19.7313 35.743 19.746 35.7421C19.7757 35.7403 19.8035 35.7267 19.8232 35.7044C19.8429 35.682 19.8529 35.6528 19.851 35.6231C19.8492 35.5934 19.8356 35.5657 19.8133 35.546C19.7909 35.5263 19.7617 35.5163 19.732 35.5181ZM28.252 35.5181C28.2373 35.519 28.2229 35.5228 28.2097 35.5293C28.1965 35.5358 28.1846 35.5448 28.1749 35.5559C28.1651 35.5669 28.1576 35.5798 28.1529 35.5937C28.1481 35.6077 28.1461 35.6224 28.147 35.6371C28.1479 35.6518 28.1517 35.6662 28.1582 35.6794C28.1647 35.6927 28.1737 35.7045 28.1848 35.7143C28.1958 35.724 28.2087 35.7315 28.2226 35.7363C28.2366 35.741 28.2513 35.743 28.266 35.7421C28.2957 35.7403 28.3235 35.7267 28.3432 35.7044C28.3629 35.682 28.3729 35.6528 28.371 35.6231C28.3692 35.5934 28.3556 35.5657 28.3333 35.546C28.3109 35.5263 28.2817 35.5163 28.252 35.5181ZM19.732 36.0801C19.7173 36.081 19.7029 36.0848 19.6897 36.0913C19.6765 36.0978 19.6646 36.1068 19.6549 36.1179C19.6451 36.1289 19.6376 36.1418 19.6329 36.1557C19.6281 36.1697 19.6261 36.1844 19.627 36.1991C19.6279 36.2138 19.6317 36.2282 19.6382 36.2414C19.6447 36.2547 19.6537 36.2665 19.6648 36.2763C19.6758 36.286 19.6887 36.2935 19.7026 36.2983C19.7166 36.303 19.7313 36.305 19.746 36.3041C19.7757 36.3023 19.8035 36.2887 19.8232 36.2664C19.8429 36.244 19.8529 36.2148 19.851 36.1851C19.8492 36.1554 19.8356 36.1277 19.8133 36.108C19.7909 36.0883 19.7617 36.0783 19.732 36.0801ZM28.252 36.0801C28.2373 36.081 28.2229 36.0848 28.2097 36.0913C28.1965 36.0978 28.1846 36.1068 28.1749 36.1179C28.1651 36.1289 28.1576 36.1418 28.1529 36.1557C28.1481 36.1697 28.1461 36.1844 28.147 36.1991C28.1479 36.2138 28.1517 36.2282 28.1582 36.2414C28.1647 36.2547 28.1737 36.2665 28.1848 36.2763C28.1958 36.286 28.2087 36.2935 28.2226 36.2983C28.2366 36.303 28.2513 36.305 28.266 36.3041C28.2957 36.3023 28.3235 36.2887 28.3432 36.2664C28.3629 36.244 28.3729 36.2148 28.371 36.1851C28.3692 36.1554 28.3556 36.1277 28.3333 36.108C28.3109 36.0883 28.2817 36.0783 28.252 36.0801ZM19.732 36.6431C19.7173 36.644 19.7029 36.6478 19.6897 36.6543C19.6765 36.6608 19.6646 36.6698 19.6549 36.6809C19.6451 36.6919 19.6376 36.7048 19.6329 36.7187C19.6281 36.7327 19.6261 36.7474 19.627 36.7621C19.6279 36.7768 19.6317 36.7912 19.6382 36.8044C19.6447 36.8177 19.6537 36.8295 19.6648 36.8393C19.6758 36.849 19.6887 36.8565 19.7026 36.8613C19.7166 36.866 19.7313 36.868 19.746 36.8671C19.7757 36.8653 19.8035 36.8517 19.8232 36.8294C19.8429 36.807 19.8529 36.7778 19.851 36.7481C19.8492 36.7184 19.8356 36.6907 19.8133 36.671C19.7909 36.6513 19.7617 36.6413 19.732 36.6431ZM28.252 36.6431C28.2373 36.644 28.2229 36.6478 28.2097 36.6543C28.1965 36.6608 28.1846 36.6698 28.1749 36.6809C28.1651 36.6919 28.1576 36.7048 28.1529 36.7187C28.1481 36.7327 28.1461 36.7474 28.147 36.7621C28.1479 36.7768 28.1517 36.7912 28.1582 36.8044C28.1647 36.8177 28.1737 36.8295 28.1848 36.8393C28.1958 36.849 28.2087 36.8565 28.2226 36.8613C28.2366 36.866 28.2513 36.868 28.266 36.8671C28.2957 36.8653 28.3235 36.8517 28.3432 36.8294C28.3629 36.807 28.3729 36.7778 28.371 36.7481C28.3692 36.7184 28.3556 36.6907 28.3333 36.671C28.3109 36.6513 28.2817 36.6413 28.252 36.6431ZM19.721 37.2051C19.6945 37.209 19.6704 37.2224 19.6531 37.2429C19.6357 37.2633 19.6265 37.2893 19.627 37.3161C19.627 37.346 19.6389 37.3746 19.66 37.3957C19.6811 37.4168 19.7097 37.4286 19.7395 37.4286C19.7694 37.4286 19.798 37.4168 19.8191 37.3957C19.8402 37.3746 19.852 37.346 19.852 37.3161C19.852 37.2561 19.802 37.2061 19.74 37.2061C19.733 37.2041 19.73 37.2041 19.723 37.2061H19.721V37.2051ZM28.241 37.2051C28.2143 37.2088 28.1899 37.2221 28.1724 37.2426C28.1549 37.263 28.1455 37.2892 28.146 37.3161C28.147 37.3781 28.197 37.4291 28.26 37.4281C28.321 37.4281 28.37 37.3781 28.371 37.3161C28.371 37.2561 28.321 37.2061 28.26 37.2061C28.252 37.2041 28.25 37.2041 28.242 37.2061H28.24L28.241 37.2051ZM19.732 37.7651C19.7032 37.7669 19.6762 37.7798 19.6566 37.801C19.637 37.8223 19.6264 37.8502 19.627 37.8791C19.627 37.9411 19.677 37.9911 19.74 37.9901C19.802 37.9901 19.851 37.9401 19.852 37.8791C19.852 37.8493 19.8403 37.8207 19.8193 37.7996C19.7983 37.7784 19.7698 37.7664 19.74 37.7661H19.732V37.7651ZM28.252 37.7651C28.2232 37.7669 28.1962 37.7798 28.1766 37.801C28.157 37.8223 28.1464 37.8502 28.147 37.8791C28.147 37.9411 28.197 37.9911 28.26 37.9901C28.321 37.9901 28.37 37.9401 28.371 37.8791C28.3711 37.8644 28.3684 37.8498 28.3629 37.8362C28.3574 37.8225 28.3492 37.8101 28.3389 37.7996C28.3286 37.7891 28.3163 37.7808 28.3028 37.775C28.2893 37.7693 28.2747 37.7662 28.26 37.7661H28.252V37.7651ZM19.732 38.3281C19.7034 38.3299 19.6765 38.3426 19.657 38.3637C19.6374 38.3847 19.6267 38.4124 19.627 38.4411C19.627 38.5031 19.677 38.5541 19.74 38.5531C19.7557 38.5539 19.7713 38.5515 19.786 38.5459C19.8006 38.5403 19.8139 38.5318 19.8251 38.5208C19.8363 38.5098 19.845 38.4966 19.8508 38.4821C19.8566 38.4675 19.8593 38.4519 19.8588 38.4362C19.8582 38.4206 19.8544 38.4052 19.8476 38.3911C19.8408 38.377 19.8311 38.3645 19.8192 38.3543C19.8073 38.3441 19.7934 38.3365 19.7784 38.332C19.7633 38.3275 19.7476 38.3262 19.732 38.3281ZM28.252 38.3281C28.2234 38.3299 28.1965 38.3426 28.177 38.3637C28.1574 38.3847 28.1467 38.4124 28.147 38.4411C28.147 38.471 28.1589 38.4996 28.18 38.5207C28.2011 38.5418 28.2297 38.5536 28.2595 38.5536C28.2894 38.5536 28.318 38.5418 28.3391 38.5207C28.3602 38.4996 28.372 38.471 28.372 38.4411C28.3722 38.4256 28.3692 38.4103 28.3631 38.396C28.357 38.3818 28.3481 38.3689 28.3368 38.3583C28.3255 38.3477 28.3122 38.3395 28.2976 38.3343C28.283 38.3291 28.2675 38.327 28.252 38.3281ZM17.205 38.4631C17.0804 38.465 16.9575 38.4915 16.8432 38.5411C16.7289 38.5907 16.6255 38.6624 16.539 38.7521L14.73 40.6091C14.6429 40.6981 14.5742 40.8034 14.528 40.9191C14.4817 41.0347 14.4587 41.1583 14.4604 41.2829C14.4621 41.4074 14.4884 41.5303 14.5377 41.6447C14.5871 41.759 14.6585 41.8625 14.748 41.9491C14.8369 42.0363 14.9422 42.105 15.0578 42.1514C15.1734 42.1977 15.297 42.2208 15.4216 42.2192C15.5461 42.2176 15.6691 42.1915 15.7834 42.1422C15.8978 42.0929 16.0013 42.0215 16.088 41.9321L17.896 40.0721C17.9832 39.9832 18.0519 39.8779 18.0983 39.7623C18.1447 39.6467 18.1677 39.5231 18.1661 39.3986C18.1645 39.274 18.1384 39.1511 18.0891 39.0367C18.0398 38.9223 17.9684 38.8188 17.879 38.7321C17.79 38.6449 17.6847 38.5761 17.569 38.5298C17.4533 38.4835 17.3296 38.4605 17.205 38.4621V38.4631ZM24.893 38.4631C24.7684 38.465 24.6455 38.4915 24.5312 38.5411C24.4169 38.5907 24.3135 38.6624 24.227 38.7521L22.418 40.6091C22.3309 40.6981 22.2622 40.8034 22.216 40.9191C22.1697 41.0347 22.1467 41.1583 22.1484 41.2829C22.1501 41.4074 22.1764 41.5303 22.2257 41.6447C22.2751 41.759 22.3465 41.8625 22.436 41.9491C22.5249 42.0363 22.6302 42.105 22.7458 42.1514C22.8614 42.1977 22.985 42.2208 23.1096 42.2192C23.2341 42.2176 23.3571 42.1915 23.4714 42.1422C23.5858 42.0929 23.6893 42.0215 23.776 41.9321L25.584 40.0721C25.6711 39.9831 25.7398 39.8778 25.7861 39.7621C25.8323 39.6465 25.8553 39.5229 25.8536 39.3984C25.852 39.2738 25.8257 39.1509 25.7763 39.0365C25.727 38.9222 25.6555 38.8187 25.566 38.7321C25.4771 38.645 25.3719 38.5763 25.2564 38.53C25.141 38.4837 25.0174 38.4606 24.893 38.4621V38.4631ZM32.58 38.4631C32.4554 38.465 32.3325 38.4915 32.2182 38.5411C32.1039 38.5907 32.0005 38.6624 31.914 38.7521L30.105 40.6091C30.0179 40.6981 29.9492 40.8034 29.903 40.9191C29.8567 41.0347 29.8337 41.1583 29.8354 41.2829C29.8371 41.4074 29.8634 41.5303 29.9127 41.6447C29.9621 41.759 30.0335 41.8625 30.123 41.9491C30.2119 42.0363 30.3172 42.105 30.4328 42.1514C30.5484 42.1977 30.672 42.2208 30.7966 42.2192C30.9211 42.2176 31.0441 42.1915 31.1584 42.1422C31.2728 42.0929 31.3763 42.0215 31.463 41.9321L33.272 40.0721C33.3591 39.9831 33.4278 39.8778 33.4741 39.7621C33.5203 39.6465 33.5433 39.5229 33.5416 39.3984C33.54 39.2738 33.5137 39.1509 33.4643 39.0365C33.415 38.9222 33.3435 38.8187 33.254 38.7321C33.165 38.6449 33.0597 38.5761 32.944 38.5298C32.8283 38.4835 32.7046 38.4605 32.58 38.4621V38.4631ZM19.732 38.8911C19.7034 38.8929 19.6765 38.9056 19.657 38.9267C19.6374 38.9477 19.6267 38.9754 19.627 39.0041C19.627 39.034 19.6389 39.0626 19.66 39.0837C19.6811 39.1048 19.7097 39.1166 19.7395 39.1166C19.7694 39.1166 19.798 39.1048 19.8191 39.0837C19.8402 39.0626 19.852 39.034 19.852 39.0041C19.852 38.9887 19.8489 38.9734 19.8428 38.9592C19.8367 38.945 19.8277 38.9322 19.8165 38.9216C19.8052 38.911 19.7919 38.9029 19.7774 38.8976C19.7629 38.8924 19.7474 38.8902 19.732 38.8911ZM28.252 38.8911C28.2227 38.8922 28.1949 38.9047 28.1747 38.926C28.1545 38.9473 28.1435 38.9757 28.144 39.005C28.1446 39.0344 28.1566 39.0624 28.1775 39.0829C28.1985 39.1035 28.2267 39.115 28.256 39.115C28.2854 39.115 28.3136 39.1035 28.3345 39.0829C28.3554 39.0624 28.3675 39.0344 28.368 39.005C28.3685 38.9757 28.3575 38.9473 28.3373 38.926C28.3171 38.9047 28.2894 38.8922 28.26 38.8911C28.2574 38.891 28.2547 38.891 28.252 38.8911ZM17.27 38.9451C17.348 38.9491 17.429 38.9831 17.514 39.0531C17.92 39.4141 17.439 39.8381 17.264 40.0221L16.398 40.9261C15.791 41.5571 15.528 41.9841 15.104 41.5761C14.744 41.2031 15.062 40.9801 15.75 40.2811L16.615 39.3771C16.821 39.1761 17.033 38.9341 17.27 38.9451ZM24.957 38.9451C25.036 38.9491 25.117 38.9831 25.201 39.0531C25.608 39.4141 25.126 39.8381 24.951 40.0221L24.086 40.9261C23.479 41.5571 23.215 41.9841 22.791 41.5761C22.431 41.2031 22.749 40.9801 23.437 40.2811L24.303 39.3771C24.508 39.1761 24.721 38.9341 24.957 38.9451ZM32.645 38.9451C32.723 38.9491 32.804 38.9831 32.889 39.0531C33.295 39.4141 32.814 39.8381 32.639 40.0221L31.773 40.9261C31.166 41.5571 30.903 41.9841 30.479 41.5761C30.119 41.2031 30.437 40.9801 31.125 40.2811L31.99 39.3771C32.196 39.1761 32.408 38.9341 32.645 38.9451ZM19.732 39.4531C19.7027 39.4542 19.6749 39.4667 19.6547 39.488C19.6345 39.5093 19.6235 39.5377 19.624 39.567C19.6246 39.5964 19.6366 39.6244 19.6575 39.6449C19.6785 39.6655 19.7067 39.677 19.736 39.677C19.7654 39.677 19.7936 39.6655 19.8145 39.6449C19.8354 39.6244 19.8475 39.5964 19.848 39.567C19.8485 39.5377 19.8375 39.5093 19.8173 39.488C19.7971 39.4667 19.7694 39.4542 19.74 39.4531H19.732ZM28.252 39.4531C28.2222 39.4542 28.194 39.467 28.1736 39.4889C28.1533 39.5107 28.1425 39.5398 28.1435 39.5696C28.1446 39.5994 28.1574 39.6276 28.1793 39.648C28.2011 39.6683 28.2302 39.6792 28.26 39.6781C28.2899 39.6781 28.3185 39.6663 28.3396 39.6452C28.3607 39.6241 28.3725 39.5954 28.3725 39.5656C28.3725 39.5358 28.3607 39.5072 28.3396 39.4861C28.3185 39.465 28.2899 39.4531 28.26 39.4531H28.252ZM19.732 40.0161C19.7039 40.0174 19.6773 40.0294 19.6578 40.0497C19.6383 40.07 19.6272 40.097 19.627 40.1251C19.627 40.1881 19.677 40.2411 19.74 40.2401C19.7701 40.2396 19.7987 40.2272 19.8197 40.2057C19.8407 40.1841 19.8523 40.1552 19.852 40.1251C19.852 40.1105 19.8491 40.096 19.8435 40.0826C19.8378 40.0691 19.8295 40.0569 19.8191 40.0466C19.8087 40.0364 19.7963 40.0283 19.7827 40.0229C19.7691 40.0175 19.7546 40.0148 19.74 40.0151H19.732V40.0161ZM28.252 40.0161C28.2239 40.0174 28.1973 40.0294 28.1778 40.0497C28.1583 40.07 28.1472 40.097 28.147 40.1251C28.146 40.1881 28.197 40.2411 28.26 40.2401C28.2899 40.2393 28.3183 40.2268 28.339 40.2053C28.3598 40.1838 28.3713 40.155 28.371 40.1251C28.371 40.1106 28.3681 40.0962 28.3625 40.0828C28.357 40.0694 28.3488 40.0572 28.3384 40.047C28.3281 40.0367 28.3159 40.0287 28.3024 40.0232C28.289 40.0177 28.2745 40.015 28.26 40.0151H28.252V40.0161ZM19.732 40.5781C19.7027 40.5792 19.6749 40.5917 19.6547 40.613C19.6345 40.6343 19.6235 40.6627 19.624 40.692C19.6246 40.7214 19.6366 40.7494 19.6575 40.7699C19.6785 40.7905 19.7067 40.802 19.736 40.802C19.7654 40.802 19.7936 40.7905 19.8145 40.7699C19.8354 40.7494 19.8475 40.7214 19.848 40.692C19.8485 40.6627 19.8375 40.6343 19.8173 40.613C19.7971 40.5917 19.7694 40.5792 19.74 40.5781H19.732ZM28.252 40.5781C28.2227 40.5792 28.1949 40.5917 28.1747 40.613C28.1545 40.6343 28.1435 40.6627 28.144 40.692C28.1446 40.7214 28.1566 40.7494 28.1775 40.7699C28.1985 40.7905 28.2267 40.802 28.256 40.802C28.2854 40.802 28.3136 40.7905 28.3345 40.7699C28.3554 40.7494 28.3675 40.7214 28.368 40.692C28.3685 40.6627 28.3575 40.6343 28.3373 40.613C28.3171 40.5917 28.2894 40.5792 28.26 40.5781H28.252ZM19.721 41.1411C19.6945 41.145 19.6704 41.1584 19.6531 41.1789C19.6357 41.1993 19.6265 41.2253 19.627 41.2521C19.6268 41.2743 19.6332 41.296 19.6453 41.3145C19.6575 41.333 19.6748 41.3475 19.6952 41.3562C19.7156 41.3649 19.7381 41.3673 19.7599 41.3631C19.7816 41.359 19.8017 41.3485 19.8175 41.333C19.8333 41.3175 19.8441 41.2976 19.8487 41.2759C19.8532 41.2542 19.8512 41.2317 19.8429 41.2112C19.8346 41.1906 19.8204 41.173 19.8021 41.1605C19.7838 41.1481 19.7622 41.1413 19.74 41.1411H19.721ZM28.241 41.1411C28.2143 41.1448 28.1899 41.1581 28.1724 41.1786C28.1549 41.199 28.1455 41.2252 28.146 41.2521C28.1458 41.2742 28.1522 41.2959 28.1643 41.3144C28.1764 41.3329 28.1937 41.3474 28.214 41.3561C28.2343 41.3648 28.2568 41.3672 28.2785 41.3632C28.3003 41.3591 28.3203 41.3488 28.3361 41.3333C28.352 41.3179 28.3629 41.2981 28.3675 41.2765C28.3722 41.2549 28.3703 41.2324 28.3621 41.2119C28.354 41.1913 28.34 41.1736 28.3218 41.161C28.3036 41.1484 28.2821 41.1415 28.26 41.1411H28.24H28.241ZM19.721 41.7031C19.6945 41.707 19.6704 41.7204 19.6531 41.7409C19.6357 41.7613 19.6265 41.7873 19.627 41.8141C19.627 41.8439 19.6389 41.8726 19.66 41.8937C19.6811 41.9148 19.7097 41.9266 19.7395 41.9266C19.7694 41.9266 19.798 41.9148 19.8191 41.8937C19.8402 41.8726 19.852 41.8439 19.852 41.8141C19.852 41.7541 19.802 41.7041 19.74 41.7041H19.721V41.7031ZM28.241 41.7031C28.2143 41.7068 28.1899 41.7201 28.1724 41.7406C28.1549 41.761 28.1455 41.7872 28.146 41.8141C28.147 41.8761 28.197 41.9271 28.26 41.9261C28.321 41.9261 28.37 41.8761 28.371 41.8151C28.371 41.7531 28.321 41.7041 28.26 41.7031H28.24H28.241ZM19.742 42.2631C19.7272 42.263 19.7126 42.2658 19.6989 42.2713C19.6852 42.2768 19.6727 42.285 19.6622 42.2954C19.6516 42.3057 19.6432 42.318 19.6375 42.3316C19.6317 42.3452 19.6286 42.3598 19.6285 42.3746C19.6284 42.3894 19.6312 42.404 19.6367 42.4177C19.6422 42.4314 19.6504 42.4439 19.6608 42.4545C19.6711 42.465 19.6834 42.4734 19.697 42.4792C19.7106 42.4849 19.7252 42.488 19.74 42.4881C19.7547 42.4882 19.7693 42.4855 19.783 42.48C19.7966 42.4745 19.809 42.4663 19.8195 42.456C19.83 42.4457 19.8384 42.4334 19.8441 42.4199C19.8499 42.4064 19.8529 42.3918 19.853 42.3771C19.8531 42.3624 19.8504 42.3478 19.8449 42.3342C19.8394 42.3205 19.8312 42.3081 19.8209 42.2976C19.8106 42.2871 19.7983 42.2788 19.7848 42.273C19.7713 42.2673 19.7567 42.2642 19.742 42.2641V42.2631ZM28.262 42.2631C28.2472 42.263 28.2325 42.2658 28.2187 42.2713C28.2049 42.2769 28.1924 42.2851 28.1818 42.2955C28.1712 42.3059 28.1628 42.3183 28.157 42.3319C28.1512 42.3456 28.1481 42.3603 28.148 42.3751C28.1479 42.3899 28.1507 42.4047 28.1562 42.4184C28.1618 42.4322 28.17 42.4447 28.1804 42.4553C28.1908 42.4659 28.2032 42.4743 28.2169 42.4801C28.2305 42.4859 28.2452 42.489 28.26 42.4891C28.2881 42.4867 28.3142 42.474 28.3333 42.4533C28.3525 42.4327 28.3632 42.4057 28.3634 42.3775C28.3637 42.3494 28.3534 42.3222 28.3347 42.3012C28.3159 42.2802 28.29 42.267 28.262 42.2641V42.2631ZM19.732 42.8261C19.7032 42.8279 19.6762 42.8408 19.6566 42.862C19.637 42.8833 19.6264 42.9112 19.627 42.9401C19.6274 42.9621 19.6343 42.9835 19.6468 43.0017C19.6593 43.0198 19.6769 43.0339 19.6973 43.0421C19.7177 43.0503 19.7401 43.0522 19.7617 43.0478C19.7833 43.0433 19.803 43.0326 19.8185 43.017C19.834 43.0013 19.8446 42.9814 19.8489 42.9598C19.8531 42.9382 19.851 42.9159 19.8426 42.8955C19.8342 42.8751 19.82 42.8577 19.8018 42.8453C19.7835 42.833 19.762 42.8263 19.74 42.8261C19.7374 42.826 19.7347 42.826 19.732 42.8261ZM28.252 42.8261C28.2227 42.8272 28.1949 42.8397 28.1747 42.861C28.1545 42.8823 28.1435 42.9107 28.144 42.94C28.1446 42.9694 28.1566 42.9974 28.1775 43.0179C28.1985 43.0385 28.2267 43.05 28.256 43.05C28.2854 43.05 28.3136 43.0385 28.3345 43.0179C28.3554 42.9974 28.3675 42.9694 28.368 42.94C28.3685 42.9107 28.3575 42.8823 28.3373 42.861C28.3171 42.8397 28.2894 42.8272 28.26 42.8261C28.2574 42.826 28.2547 42.826 28.252 42.8261Z" fill="#333333"/>
</svg>
