<svg width="48" height="48" viewBox="0 0 48 48" fill="none" xmlns="http://www.w3.org/2000/svg">
<path d="M28.906 4.08205C23.986 4.06805 19.122 4.12505 14.146 4.12505C13.277 4.12505 12.58 4.82405 12.58 5.69305V42.554C12.58 43.424 13.277 44.124 14.146 44.124H33.852C34.721 44.124 35.42 43.424 35.42 42.554V5.69405C35.42 4.82405 34.721 4.12405 33.852 4.12405C32.2035 4.09983 30.5548 4.08583 28.906 4.08205ZM20.191 5.08605H20.199C20.2284 5.0871 20.2561 5.09962 20.2763 5.12093C20.2965 5.14224 20.3075 5.17062 20.307 5.19998C20.3065 5.22933 20.2944 5.2573 20.2735 5.27788C20.2526 5.29845 20.2244 5.30998 20.195 5.30998C20.1657 5.30998 20.1375 5.29845 20.1165 5.27788C20.0956 5.2573 20.0836 5.22933 20.083 5.19998C20.0825 5.17062 20.0935 5.14224 20.1137 5.12093C20.1339 5.09962 20.1617 5.0871 20.191 5.08605ZM27.441 5.08605H27.449C27.4784 5.0871 27.5061 5.09962 27.5263 5.12093C27.5465 5.14224 27.5575 5.17062 27.557 5.19998C27.5565 5.22933 27.5444 5.2573 27.5235 5.27788C27.5026 5.29845 27.4744 5.30998 27.445 5.30998C27.4157 5.30998 27.3875 5.29845 27.3665 5.27788C27.3456 5.2573 27.3336 5.22933 27.333 5.19998C27.3325 5.17062 27.3435 5.14224 27.3637 5.12093C27.3839 5.09962 27.4117 5.0871 27.441 5.08605ZM16.62 5.49005C17.504 5.49005 18.218 6.20605 18.218 7.09005C18.218 7.97305 17.504 8.69005 16.62 8.69005C16.1956 8.69005 15.7885 8.52151 15.4883 8.22148C15.1881 7.92145 15.0193 7.51449 15.019 7.09005C15.019 6.20605 15.736 5.49005 16.62 5.49005ZM31.384 5.49005C32.267 5.49005 32.981 6.20605 32.982 7.09005C32.982 7.97305 32.267 8.69005 31.384 8.69005C31.1738 8.69018 30.9656 8.6489 30.7713 8.56856C30.577 8.48822 30.4004 8.37041 30.2516 8.22183C30.1029 8.07326 29.9848 7.89684 29.9043 7.70265C29.8237 7.50846 29.7821 7.30029 29.782 7.09005C29.782 6.20605 30.5 5.49005 31.384 5.49005ZM20.192 5.64805H20.2C20.2294 5.6491 20.2571 5.66162 20.2773 5.68293C20.2975 5.70424 20.3085 5.73262 20.308 5.76198C20.3075 5.79133 20.2954 5.8193 20.2745 5.83988C20.2536 5.86045 20.2254 5.87198 20.196 5.87198C20.1667 5.87198 20.1385 5.86045 20.1175 5.83988C20.0966 5.8193 20.0846 5.79133 20.084 5.76198C20.0835 5.73262 20.0945 5.70424 20.1147 5.68293C20.1349 5.66162 20.1627 5.6491 20.192 5.64805ZM27.442 5.64805H27.45C27.4794 5.6491 27.5071 5.66162 27.5273 5.68293C27.5475 5.70424 27.5585 5.73262 27.558 5.76198C27.5575 5.79133 27.5454 5.8193 27.5245 5.83988C27.5036 5.86045 27.4754 5.87198 27.446 5.87198C27.4167 5.87198 27.3885 5.86045 27.3675 5.83988C27.3466 5.8193 27.3346 5.79133 27.334 5.76198C27.3335 5.73262 27.3445 5.70424 27.3647 5.68293C27.3849 5.66162 27.4127 5.6491 27.442 5.64805ZM20.182 6.21105H20.2C20.261 6.21105 20.311 6.26105 20.311 6.32205C20.311 6.38405 20.261 6.43205 20.201 6.43305C20.1863 6.43331 20.1717 6.43068 20.158 6.42529C20.1443 6.41991 20.1318 6.41188 20.1212 6.40166C20.1106 6.39145 20.1022 6.37925 20.0963 6.36576C20.0904 6.35227 20.0873 6.33776 20.087 6.32305C20.087 6.26705 20.128 6.21805 20.183 6.21105H20.182ZM27.432 6.21105H27.45C27.511 6.21105 27.561 6.26105 27.561 6.32205C27.561 6.38405 27.511 6.43205 27.451 6.43305C27.4363 6.43331 27.4217 6.43068 27.408 6.42529C27.3943 6.41991 27.3818 6.41188 27.3712 6.40166C27.3606 6.39145 27.3522 6.37925 27.3463 6.36576C27.3404 6.35227 27.3373 6.33776 27.337 6.32305C27.337 6.26705 27.378 6.21805 27.433 6.21105H27.432ZM20.2 6.77105C20.263 6.77205 20.314 6.82305 20.313 6.88505C20.313 6.94605 20.261 6.99505 20.2 6.99505C20.1855 6.99518 20.1711 6.99243 20.1576 6.98696C20.1442 6.98149 20.1319 6.97341 20.1216 6.96319C20.1113 6.95296 20.1031 6.94079 20.0975 6.92738C20.0919 6.91396 20.089 6.89958 20.089 6.88505C20.0885 6.87018 20.091 6.85537 20.0963 6.84149C20.1017 6.82761 20.1098 6.81496 20.1201 6.8043C20.1305 6.79365 20.1429 6.78521 20.1567 6.77949C20.1704 6.77377 20.1851 6.7709 20.2 6.77105ZM27.45 6.77105C27.513 6.77205 27.564 6.82305 27.563 6.88505C27.563 6.94605 27.511 6.99505 27.45 6.99505C27.4355 6.99518 27.4211 6.99243 27.4076 6.98696C27.3942 6.98149 27.3819 6.97341 27.3716 6.96319C27.3613 6.95296 27.3531 6.94079 27.3475 6.92738C27.3419 6.91396 27.339 6.89958 27.339 6.88505C27.3385 6.87018 27.341 6.85537 27.3463 6.84149C27.3517 6.82761 27.3598 6.81496 27.3701 6.8043C27.3805 6.79365 27.3929 6.78521 27.4067 6.77949C27.4204 6.77377 27.4351 6.7709 27.45 6.77105ZM20.192 7.33405H20.2C20.2294 7.3351 20.2571 7.34762 20.2773 7.36893C20.2975 7.39024 20.3085 7.41862 20.308 7.44798C20.3075 7.47733 20.2954 7.5053 20.2745 7.52588C20.2536 7.54645 20.2254 7.55798 20.196 7.55798C20.1667 7.55798 20.1385 7.54645 20.1175 7.52588C20.0966 7.5053 20.0846 7.47733 20.084 7.44798C20.0835 7.41862 20.0945 7.39024 20.1147 7.36893C20.1349 7.34762 20.1627 7.3351 20.192 7.33405ZM27.442 7.33405H27.45C27.4794 7.3351 27.5071 7.34762 27.5273 7.36893C27.5475 7.39024 27.5585 7.41862 27.558 7.44798C27.5575 7.47733 27.5454 7.5053 27.5245 7.52588C27.5036 7.54645 27.4754 7.55798 27.446 7.55798C27.4167 7.55798 27.3885 7.54645 27.3675 7.52588C27.3466 7.5053 27.3346 7.47733 27.334 7.44798C27.3335 7.41862 27.3445 7.39024 27.3647 7.36893C27.3849 7.34762 27.4127 7.3351 27.442 7.33405ZM23.823 7.42605C24.0364 7.42071 24.2488 7.45814 24.4475 7.53612C24.6462 7.6141 24.8273 7.73107 24.9802 7.88012C25.133 8.02918 25.2544 8.20731 25.3374 8.40403C25.4203 8.60074 25.463 8.81207 25.463 9.02555C25.463 9.23903 25.4203 9.45035 25.3374 9.64707C25.2544 9.84378 25.133 10.0219 24.9802 10.171C24.8273 10.32 24.6462 10.437 24.4475 10.515C24.2488 10.593 24.0364 10.6304 23.823 10.625C23.3987 10.625 22.9917 10.4565 22.6916 10.1564C22.3916 9.85636 22.223 9.44939 22.223 9.02505C22.223 8.6007 22.3916 8.19373 22.6916 7.89368C22.9917 7.59362 23.3987 7.42505 23.823 7.42505V7.42605ZM20.193 7.89405H20.2C20.2294 7.8951 20.2571 7.90762 20.2773 7.92893C20.2975 7.95024 20.3085 7.97862 20.308 8.00798C20.3075 8.03733 20.2954 8.0653 20.2745 8.08588C20.2536 8.10645 20.2254 8.11798 20.196 8.11798C20.1667 8.11798 20.1385 8.10645 20.1175 8.08588C20.0966 8.0653 20.0846 8.03733 20.084 8.00798C20.0835 7.97862 20.0945 7.95024 20.1147 7.92893C20.1349 7.90762 20.1627 7.8951 20.192 7.89405H20.193ZM27.443 7.89405H27.45C27.4794 7.8951 27.5071 7.90762 27.5273 7.92893C27.5475 7.95024 27.5585 7.97862 27.558 8.00798C27.5575 8.03733 27.5454 8.0653 27.5245 8.08588C27.5036 8.10645 27.4754 8.11798 27.446 8.11798C27.4167 8.11798 27.3885 8.10645 27.3675 8.08588C27.3466 8.0653 27.3346 8.03733 27.334 8.00798C27.3335 7.97862 27.3445 7.95024 27.3647 7.92893C27.3849 7.90762 27.4127 7.8951 27.442 7.89405H27.443ZM20.193 8.45705H20.2C20.2294 8.4581 20.2571 8.47062 20.2773 8.49193C20.2975 8.51324 20.3085 8.54162 20.308 8.57098C20.3075 8.60033 20.2954 8.6283 20.2745 8.64888C20.2536 8.66945 20.2254 8.68098 20.196 8.68098C20.1667 8.68098 20.1385 8.66945 20.1175 8.64888C20.0966 8.6283 20.0846 8.60033 20.084 8.57098C20.0835 8.54162 20.0945 8.51324 20.1147 8.49193C20.1349 8.47062 20.1627 8.4581 20.192 8.45705H20.193ZM27.443 8.45705H27.45C27.4794 8.4581 27.5071 8.47062 27.5273 8.49193C27.5475 8.51324 27.5585 8.54162 27.558 8.57098C27.5575 8.60033 27.5454 8.6283 27.5245 8.64888C27.5036 8.66945 27.4754 8.68098 27.446 8.68098C27.4167 8.68098 27.3885 8.66945 27.3675 8.64888C27.3466 8.6283 27.3346 8.60033 27.334 8.57098C27.3335 8.54162 27.3445 8.51324 27.3647 8.49193C27.3849 8.47062 27.4127 8.4581 27.442 8.45705H27.443ZM20.193 9.01905H20.2C20.2294 9.0201 20.2571 9.03262 20.2773 9.05393C20.2975 9.07524 20.3085 9.10362 20.308 9.13298C20.3075 9.16233 20.2954 9.1903 20.2745 9.21088C20.2536 9.23145 20.2254 9.24298 20.196 9.24298C20.1667 9.24298 20.1385 9.23145 20.1175 9.21088C20.0966 9.1903 20.0846 9.16233 20.084 9.13298C20.0835 9.10362 20.0945 9.07524 20.1147 9.05393C20.1349 9.03262 20.1627 9.0201 20.192 9.01905H20.193ZM27.443 9.01905H27.45C27.4794 9.0201 27.5071 9.03262 27.5273 9.05393C27.5475 9.07524 27.5585 9.10362 27.558 9.13298C27.5575 9.16233 27.5454 9.1903 27.5245 9.21088C27.5036 9.23145 27.4754 9.24298 27.446 9.24298C27.4167 9.24298 27.3885 9.23145 27.3675 9.21088C27.3466 9.1903 27.3346 9.16233 27.334 9.13298C27.3335 9.10362 27.3445 9.07524 27.3647 9.05393C27.3849 9.03262 27.4127 9.0201 27.442 9.01905H27.443ZM16.62 9.32605C17.504 9.32605 18.218 10.042 18.218 10.926C18.218 11.2426 18.1241 11.552 17.9482 11.8152C17.7723 12.0783 17.5223 12.2834 17.2298 12.4044C16.9374 12.5255 16.6156 12.5571 16.3051 12.4952C15.9947 12.4333 15.7096 12.2807 15.4859 12.0567C15.2623 11.8327 15.11 11.5475 15.0485 11.237C14.987 10.9265 15.019 10.6047 15.1404 10.3124C15.2618 10.02 15.4672 9.77029 15.7306 9.59472C15.9939 9.41915 16.3035 9.32565 16.62 9.32605ZM31.384 9.32605C32.267 9.32605 32.981 10.042 32.982 10.926C32.982 11.2426 32.8881 11.552 32.7122 11.8152C32.5363 12.0783 32.2863 12.2834 31.9938 12.4044C31.7014 12.5255 31.3796 12.5571 31.0691 12.4952C30.7587 12.4333 30.4736 12.2807 30.2499 12.0567C30.0263 11.8327 29.874 11.5475 29.8125 11.237C29.751 10.9265 29.783 10.6047 29.9044 10.3124C30.0258 10.02 30.2312 9.77029 30.4946 9.59472C30.7579 9.41915 31.0675 9.32565 31.384 9.32605ZM20.192 9.58205H20.2C20.2294 9.5831 20.2571 9.59562 20.2773 9.61693C20.2975 9.63824 20.3085 9.66662 20.308 9.69598C20.3075 9.72533 20.2954 9.7533 20.2745 9.77388C20.2536 9.79445 20.2254 9.80598 20.196 9.80598C20.1667 9.80598 20.1385 9.79445 20.1175 9.77388C20.0966 9.7533 20.0846 9.72533 20.084 9.69598C20.0835 9.66662 20.0945 9.63824 20.1147 9.61693C20.1349 9.59562 20.1627 9.5831 20.192 9.58205ZM27.442 9.58205H27.45C27.4794 9.5831 27.5071 9.59562 27.5273 9.61693C27.5475 9.63824 27.5585 9.66662 27.558 9.69598C27.5575 9.72533 27.5454 9.7533 27.5245 9.77388C27.5036 9.79445 27.4754 9.80598 27.446 9.80598C27.4167 9.80598 27.3885 9.79445 27.3675 9.77388C27.3466 9.7533 27.3346 9.72533 27.334 9.69598C27.3335 9.66662 27.3445 9.63824 27.3647 9.61693C27.3849 9.59562 27.4127 9.5831 27.442 9.58205ZM20.181 10.144H20.198C20.26 10.145 20.309 10.196 20.31 10.258C20.31 10.2879 20.2982 10.3165 20.2771 10.3376C20.256 10.3587 20.2274 10.3705 20.1975 10.3705C20.1677 10.3705 20.1391 10.3587 20.118 10.3376C20.0969 10.3165 20.085 10.2879 20.085 10.258C20.085 10.203 20.126 10.152 20.181 10.144ZM27.431 10.144H27.448C27.51 10.145 27.559 10.196 27.56 10.258C27.56 10.2879 27.5482 10.3165 27.5271 10.3376C27.506 10.3587 27.4774 10.3705 27.4475 10.3705C27.4177 10.3705 27.3891 10.3587 27.368 10.3376C27.3469 10.3165 27.335 10.2879 27.335 10.258C27.335 10.203 27.376 10.152 27.431 10.144ZM20.201 10.704C20.263 10.706 20.314 10.758 20.314 10.82C20.3138 10.8348 20.3106 10.8493 20.3047 10.8628C20.2989 10.8762 20.2904 10.8884 20.2798 10.8987C20.2692 10.9089 20.2567 10.9169 20.243 10.9223C20.2293 10.9277 20.2147 10.9303 20.2 10.93C20.1855 10.9303 20.171 10.9277 20.1575 10.9222C20.1439 10.9168 20.1316 10.9087 20.1213 10.8985C20.1109 10.8882 20.1028 10.876 20.0972 10.8625C20.0917 10.8491 20.0889 10.8346 20.089 10.82C20.089 10.757 20.138 10.704 20.2 10.705L20.201 10.704ZM27.451 10.704C27.513 10.706 27.564 10.758 27.564 10.82C27.5638 10.8348 27.5606 10.8493 27.5547 10.8628C27.5489 10.8762 27.5404 10.8884 27.5298 10.8987C27.5192 10.9089 27.5067 10.9169 27.493 10.9223C27.4793 10.9277 27.4647 10.9303 27.45 10.93C27.4355 10.9303 27.421 10.9277 27.4075 10.9222C27.3939 10.9168 27.3816 10.9087 27.3713 10.8985C27.3609 10.8882 27.3528 10.876 27.3472 10.8625C27.3417 10.8491 27.3389 10.8346 27.339 10.82C27.339 10.757 27.388 10.704 27.45 10.705L27.451 10.704ZM23.823 11.262C24.0364 11.2567 24.2488 11.2941 24.4475 11.3721C24.6462 11.4501 24.8273 11.5671 24.9802 11.7161C25.133 11.8652 25.2544 12.0433 25.3374 12.24C25.4203 12.4367 25.463 12.6481 25.463 12.8615C25.463 13.075 25.4203 13.2864 25.3374 13.4831C25.2544 13.6798 25.133 13.8579 24.9802 14.007C24.8273 14.156 24.6462 14.273 24.4475 14.351C24.2488 14.429 24.0364 14.4664 23.823 14.461C23.3987 14.461 22.9917 14.2925 22.6916 13.9924C22.3916 13.6924 22.223 13.2854 22.223 12.861C22.223 12.4367 22.3916 12.0297 22.6916 11.7297C22.9917 11.4296 23.3987 11.261 23.823 11.261V11.262ZM20.2 11.269C20.263 11.27 20.314 11.321 20.313 11.383C20.313 11.443 20.261 11.493 20.2 11.494C20.1854 11.4942 20.1709 11.4914 20.1574 11.4859C20.1439 11.4803 20.1316 11.4722 20.1212 11.4618C20.1109 11.4515 20.1027 11.4392 20.0972 11.4257C20.0917 11.4122 20.0889 11.3977 20.089 11.383C20.0885 11.3682 20.091 11.3534 20.0963 11.3395C20.1017 11.3256 20.1098 11.313 20.1201 11.3023C20.1305 11.2916 20.1429 11.2832 20.1567 11.2775C20.1704 11.2718 20.1851 11.2689 20.2 11.269ZM27.45 11.269C27.513 11.27 27.564 11.321 27.563 11.383C27.563 11.443 27.511 11.493 27.45 11.494C27.4354 11.4942 27.4209 11.4914 27.4074 11.4859C27.3939 11.4803 27.3816 11.4722 27.3712 11.4618C27.3609 11.4515 27.3527 11.4392 27.3472 11.4257C27.3417 11.4122 27.3389 11.3977 27.339 11.383C27.3385 11.3682 27.341 11.3534 27.3463 11.3395C27.3517 11.3256 27.3598 11.313 27.3701 11.3023C27.3805 11.2916 27.3929 11.2832 27.4067 11.2775C27.4204 11.2718 27.4351 11.2689 27.45 11.269ZM20.192 11.832C20.2075 11.8309 20.223 11.833 20.2376 11.8382C20.2522 11.8434 20.2655 11.8516 20.2768 11.8622C20.2881 11.8728 20.297 11.8857 20.3031 11.8999C20.3092 11.9142 20.3122 11.9296 20.312 11.945C20.312 12.006 20.262 12.058 20.2 12.058C20.1724 12.0555 20.1467 12.043 20.1277 12.0228C20.1086 12.0027 20.0976 11.9763 20.0966 11.9486C20.0956 11.9209 20.1048 11.8938 20.1223 11.8723C20.1399 11.8509 20.1647 11.8365 20.192 11.832ZM27.442 11.832C27.4575 11.8309 27.473 11.833 27.4876 11.8382C27.5022 11.8434 27.5155 11.8516 27.5268 11.8622C27.5381 11.8728 27.547 11.8857 27.5531 11.8999C27.5592 11.9142 27.5622 11.9296 27.562 11.945C27.562 12.006 27.512 12.058 27.45 12.058C27.4224 12.0555 27.3967 12.043 27.3777 12.0228C27.3586 12.0027 27.3476 11.9763 27.3466 11.9486C27.3456 11.9209 27.3548 11.8938 27.3723 11.8723C27.3899 11.8509 27.4147 11.8365 27.442 11.832ZM20.192 12.394C20.2075 12.3929 20.223 12.3951 20.2376 12.4002C20.2522 12.4054 20.2655 12.4136 20.2768 12.4242C20.2881 12.4348 20.297 12.4477 20.3031 12.4619C20.3092 12.4762 20.3122 12.4916 20.312 12.507C20.312 12.569 20.262 12.62 20.2 12.621C20.1715 12.6196 20.1446 12.6075 20.1246 12.5871C20.1046 12.5668 20.093 12.5397 20.092 12.5112C20.091 12.4827 20.1007 12.4549 20.1192 12.4332C20.1377 12.4115 20.1637 12.3975 20.192 12.394ZM27.442 12.394C27.4575 12.3929 27.473 12.3951 27.4876 12.4002C27.5022 12.4054 27.5155 12.4136 27.5268 12.4242C27.5381 12.4348 27.547 12.4477 27.5531 12.4619C27.5592 12.4762 27.5622 12.4916 27.562 12.507C27.562 12.569 27.512 12.62 27.45 12.621C27.4215 12.6196 27.3946 12.6075 27.3746 12.5871C27.3546 12.5668 27.343 12.5397 27.342 12.5112C27.341 12.4827 27.3507 12.4549 27.3692 12.4332C27.3877 12.4115 27.4137 12.3975 27.442 12.394ZM16.62 13.162C17.504 13.162 18.218 13.878 18.218 14.762C18.218 15.645 17.504 16.362 16.62 16.362C16.1956 16.362 15.7885 16.1935 15.4883 15.8935C15.1881 15.5934 15.0193 15.1865 15.019 14.762C15.019 13.878 15.736 13.162 16.62 13.162ZM31.384 13.162C32.267 13.162 32.981 13.878 32.982 14.762C32.982 15.645 32.267 16.362 31.384 16.362C31.1738 16.3622 30.9656 16.3209 30.7713 16.2406C30.577 16.1602 30.4004 16.0424 30.2516 15.8938C30.1029 15.7453 29.9848 15.5688 29.9043 15.3746C29.8237 15.1805 29.7821 14.9723 29.782 14.762C29.782 13.878 30.5 13.162 31.384 13.162ZM20.181 14.642H20.198C20.26 14.642 20.309 14.692 20.31 14.754C20.31 14.7839 20.2982 14.8125 20.2771 14.8336C20.256 14.8547 20.2274 14.8665 20.1975 14.8665C20.1677 14.8665 20.1391 14.8547 20.118 14.8336C20.0969 14.8125 20.085 14.7839 20.085 14.754C20.085 14.699 20.126 14.65 20.181 14.642ZM27.431 14.642H27.448C27.51 14.642 27.559 14.692 27.56 14.754C27.56 14.7839 27.5482 14.8125 27.5271 14.8336C27.506 14.8547 27.4774 14.8665 27.4475 14.8665C27.4177 14.8665 27.3891 14.8547 27.368 14.8336C27.3469 14.8125 27.335 14.7839 27.335 14.754C27.335 14.699 27.376 14.65 27.431 14.642ZM23.823 15.098C24.0378 15.0905 24.2518 15.1262 24.4525 15.2031C24.6531 15.2801 24.8362 15.3966 24.9908 15.5459C25.1454 15.6951 25.2683 15.8739 25.3523 16.0717C25.4363 16.2695 25.4796 16.4822 25.4796 16.697C25.4796 16.9119 25.4363 17.1246 25.3523 17.3224C25.2683 17.5202 25.1454 17.699 24.9908 17.8482C24.8362 17.9975 24.6531 18.114 24.4525 18.191C24.2518 18.2679 24.0378 18.3036 23.823 18.296C23.4087 18.2814 23.0163 18.1065 22.7284 17.8082C22.4405 17.51 22.2796 17.1116 22.2796 16.697C22.2796 16.2825 22.4405 15.8841 22.7284 15.5859C23.0163 15.2876 23.4087 15.1127 23.823 15.098ZM20.181 15.205H20.198C20.26 15.205 20.309 15.255 20.31 15.316C20.3099 15.3374 20.3037 15.3583 20.2922 15.3763C20.2806 15.3942 20.2641 15.4085 20.2447 15.4174C20.2253 15.4263 20.2037 15.4295 20.1826 15.4265C20.1614 15.4236 20.1415 15.4146 20.1253 15.4008C20.109 15.3869 20.0971 15.3687 20.0909 15.3482C20.0847 15.3278 20.0844 15.306 20.0902 15.2854C20.0959 15.2649 20.1074 15.2464 20.1233 15.2321C20.1393 15.2179 20.1589 15.2085 20.18 15.205H20.181ZM27.431 15.205H27.448C27.51 15.205 27.559 15.255 27.56 15.316C27.5599 15.3374 27.5537 15.3583 27.5422 15.3763C27.5306 15.3942 27.5141 15.4085 27.4947 15.4174C27.4753 15.4263 27.4537 15.4295 27.4326 15.4265C27.4114 15.4236 27.3915 15.4146 27.3753 15.4008C27.359 15.3869 27.3471 15.3687 27.3409 15.3482C27.3347 15.3278 27.3344 15.306 27.3402 15.2854C27.3459 15.2649 27.3574 15.2464 27.3733 15.2321C27.3893 15.2179 27.4089 15.2085 27.43 15.205H27.431ZM20.201 15.765C20.263 15.766 20.314 15.817 20.314 15.879C20.313 15.94 20.261 15.989 20.2 15.99C20.1854 15.9902 20.1709 15.9874 20.1574 15.9819C20.1439 15.9763 20.1316 15.9682 20.1212 15.9578C20.1109 15.9475 20.1027 15.9352 20.0972 15.9217C20.0917 15.9082 20.0889 15.8937 20.089 15.879C20.0885 15.8642 20.091 15.8494 20.0963 15.8355C20.1017 15.8216 20.1098 15.809 20.1201 15.7983C20.1305 15.7876 20.1429 15.7792 20.1567 15.7735C20.1704 15.7678 20.1851 15.7649 20.2 15.765H20.201ZM27.451 15.765C27.513 15.766 27.564 15.817 27.564 15.879C27.563 15.94 27.511 15.989 27.45 15.99C27.4354 15.9902 27.4209 15.9874 27.4074 15.9819C27.3939 15.9763 27.3816 15.9682 27.3712 15.9578C27.3609 15.9475 27.3527 15.9352 27.3472 15.9217C27.3417 15.9082 27.3389 15.8937 27.339 15.879C27.3385 15.8642 27.341 15.8494 27.3463 15.8355C27.3517 15.8216 27.3598 15.809 27.3701 15.7983C27.3805 15.7876 27.3929 15.7792 27.4067 15.7735C27.4204 15.7678 27.4351 15.7649 27.45 15.765H27.451ZM16.62 16.998C17.504 16.998 18.218 17.714 18.218 18.598C18.218 18.9146 18.1241 19.224 17.9482 19.4872C17.7723 19.7503 17.5223 19.9554 17.2298 20.0764C16.9374 20.1975 16.6156 20.2291 16.3051 20.1672C15.9947 20.1053 15.7096 19.9527 15.4859 19.7287C15.2623 19.5047 15.11 19.2195 15.0485 18.909C14.987 18.5985 15.019 18.2767 15.1404 17.9844C15.2618 17.692 15.4672 17.4423 15.7306 17.2667C15.9939 17.0912 16.3035 16.9977 16.62 16.998ZM31.384 16.998C32.267 16.998 32.981 17.714 32.982 18.598C32.982 18.9146 32.8881 19.224 32.7122 19.4872C32.5363 19.7503 32.2863 19.9554 31.9938 20.0764C31.7014 20.1975 31.3796 20.2291 31.0691 20.1672C30.7587 20.1053 30.4736 19.9527 30.2499 19.7287C30.0263 19.5047 29.874 19.2195 29.8125 18.909C29.751 18.5985 29.783 18.2767 29.9044 17.9844C30.0258 17.692 30.2312 17.4423 30.4946 17.2667C30.7579 17.0912 31.0675 16.9977 31.384 16.998ZM20.192 17.453C20.2073 17.452 20.2226 17.454 20.2371 17.4591C20.2516 17.4642 20.2648 17.4721 20.2761 17.4825C20.2873 17.4929 20.2963 17.5055 20.3025 17.5196C20.3087 17.5336 20.3119 17.5487 20.312 17.564C20.312 17.5939 20.3002 17.6225 20.2791 17.6436C20.258 17.6647 20.2294 17.6765 20.1995 17.6765C20.1697 17.6765 20.1411 17.6647 20.12 17.6436C20.0989 17.6225 20.087 17.5939 20.087 17.564C20.087 17.505 20.133 17.457 20.192 17.453ZM27.442 17.453C27.4573 17.452 27.4726 17.454 27.4871 17.4591C27.5016 17.4642 27.5148 17.4721 27.5261 17.4825C27.5373 17.4929 27.5463 17.5055 27.5525 17.5196C27.5587 17.5336 27.5619 17.5487 27.562 17.564C27.562 17.5939 27.5502 17.6225 27.5291 17.6436C27.508 17.6647 27.4794 17.6765 27.4495 17.6765C27.4197 17.6765 27.3911 17.6647 27.37 17.6436C27.3489 17.6225 27.337 17.5939 27.337 17.564C27.337 17.505 27.383 17.457 27.442 17.453ZM20.192 18.578C20.2073 18.577 20.2226 18.579 20.2371 18.5841C20.2516 18.5892 20.2648 18.5971 20.2761 18.6075C20.2873 18.6179 20.2963 18.6305 20.3025 18.6446C20.3087 18.6586 20.3119 18.6737 20.312 18.689C20.312 18.7189 20.3002 18.7475 20.2791 18.7686C20.258 18.7897 20.2294 18.8015 20.1995 18.8015C20.1697 18.8015 20.1411 18.7897 20.12 18.7686C20.0989 18.7475 20.087 18.7189 20.087 18.689C20.087 18.63 20.133 18.582 20.192 18.578ZM27.442 18.578C27.4573 18.577 27.4726 18.579 27.4871 18.5841C27.5016 18.5892 27.5148 18.5971 27.5261 18.6075C27.5373 18.6179 27.5463 18.6305 27.5525 18.6446C27.5587 18.6586 27.5619 18.6737 27.562 18.689C27.562 18.7189 27.5502 18.7475 27.5291 18.7686C27.508 18.7897 27.4794 18.8015 27.4495 18.8015C27.4197 18.8015 27.3911 18.7897 27.37 18.7686C27.3489 18.7475 27.337 18.7189 27.337 18.689C27.337 18.63 27.383 18.582 27.442 18.578ZM23.823 18.933C24.2474 18.933 24.6543 19.1016 24.9544 19.4017C25.2544 19.7017 25.423 20.1087 25.423 20.533C25.423 20.9574 25.2544 21.3644 24.9544 21.6644C24.6543 21.9645 24.2474 22.133 23.823 22.133C23.3987 22.133 22.9917 21.9645 22.6916 21.6644C22.3916 21.3644 22.223 20.9574 22.223 20.533C22.223 20.1087 22.3916 19.7017 22.6916 19.4017C22.9917 19.1016 23.3987 18.933 23.823 18.933ZM20.181 19.14H20.198C20.2201 19.1402 20.2417 19.147 20.26 19.1594C20.2783 19.1718 20.2925 19.1894 20.3008 19.2099C20.3091 19.2304 20.3112 19.2528 20.3067 19.2745C20.3023 19.2962 20.2916 19.316 20.2759 19.3316C20.2602 19.3472 20.2402 19.3577 20.2185 19.362C20.1968 19.3662 20.1743 19.3639 20.1539 19.3554C20.1335 19.3469 20.1161 19.3326 20.1038 19.3142C20.0916 19.2958 20.085 19.2742 20.085 19.252C20.085 19.197 20.126 19.148 20.181 19.141V19.14ZM27.431 19.14H27.448C27.4701 19.1402 27.4917 19.147 27.51 19.1594C27.5283 19.1718 27.5425 19.1894 27.5508 19.2099C27.5591 19.2304 27.5612 19.2528 27.5567 19.2745C27.5523 19.2962 27.5416 19.316 27.5259 19.3316C27.5102 19.3472 27.4902 19.3577 27.4685 19.362C27.4468 19.3662 27.4243 19.3639 27.4039 19.3554C27.3835 19.3469 27.3661 19.3326 27.3538 19.3142C27.3416 19.2958 27.335 19.2742 27.335 19.252C27.335 19.197 27.376 19.148 27.431 19.141V19.14ZM20.201 19.701C20.263 19.701 20.314 19.752 20.314 19.814C20.313 19.875 20.261 19.925 20.2 19.926C20.1853 19.9262 20.1707 19.9234 20.1571 19.9178C20.1436 19.9122 20.1312 19.9039 20.1209 19.8935C20.1105 19.883 20.1024 19.8706 20.0969 19.857C20.0914 19.8433 20.0887 19.8287 20.089 19.814C20.0886 19.7993 20.0912 19.7846 20.0966 19.7708C20.102 19.757 20.1101 19.7445 20.1205 19.734C20.1309 19.7234 20.1432 19.7151 20.1569 19.7094C20.1706 19.7037 20.1852 19.7009 20.2 19.701H20.201ZM27.451 19.701C27.513 19.701 27.564 19.752 27.564 19.814C27.563 19.875 27.511 19.925 27.45 19.926C27.4353 19.9262 27.4207 19.9234 27.4071 19.9178C27.3936 19.9122 27.3812 19.9039 27.3709 19.8935C27.3605 19.883 27.3524 19.8706 27.3469 19.857C27.3414 19.8433 27.3387 19.8287 27.339 19.814C27.3386 19.7993 27.3412 19.7846 27.3466 19.7708C27.352 19.757 27.3601 19.7445 27.3705 19.734C27.3809 19.7234 27.3932 19.7151 27.4069 19.7094C27.4206 19.7037 27.4352 19.7009 27.45 19.701H27.451ZM16.62 20.834C17.504 20.834 18.218 21.55 18.218 22.434C18.218 23.317 17.504 24.033 16.62 24.033C16.1956 24.033 15.7885 23.8645 15.4883 23.5645C15.1881 23.2645 15.0193 22.8575 15.019 22.433C15.019 21.55 15.736 20.833 16.62 20.833V20.834ZM31.384 20.834C32.267 20.834 32.981 21.55 32.982 22.434C32.982 23.317 32.267 24.033 31.384 24.033C31.1738 24.0332 30.9656 23.9919 30.7713 23.9116C30.577 23.8312 30.4004 23.7134 30.2516 23.5648C30.1029 23.4163 29.9848 23.2398 29.9043 23.0456C29.8237 22.8515 29.7821 22.6433 29.782 22.433C29.782 21.55 30.5 20.833 31.384 20.833V20.834ZM20.192 22.514C20.2073 22.513 20.2226 22.515 20.2371 22.5201C20.2516 22.5252 20.2648 22.5331 20.2761 22.5435C20.2873 22.5539 20.2963 22.5665 20.3025 22.5806C20.3087 22.5946 20.3119 22.6097 20.312 22.625C20.312 22.6549 20.3002 22.6835 20.2791 22.7046C20.258 22.7257 20.2294 22.7375 20.1995 22.7375C20.1697 22.7375 20.1411 22.7257 20.12 22.7046C20.0989 22.6835 20.087 22.6549 20.087 22.625C20.087 22.565 20.133 22.517 20.192 22.514ZM27.442 22.514C27.4573 22.513 27.4726 22.515 27.4871 22.5201C27.5016 22.5252 27.5148 22.5331 27.5261 22.5435C27.5373 22.5539 27.5463 22.5665 27.5525 22.5806C27.5587 22.5946 27.5619 22.6097 27.562 22.625C27.562 22.6549 27.5502 22.6835 27.5291 22.7046C27.508 22.7257 27.4794 22.7375 27.4495 22.7375C27.4197 22.7375 27.3911 22.7257 27.37 22.7046C27.3489 22.6835 27.337 22.6549 27.337 22.625C27.337 22.565 27.383 22.517 27.442 22.514ZM23.823 22.769C24.2474 22.769 24.6543 22.9376 24.9544 23.2377C25.2544 23.5377 25.423 23.9447 25.423 24.369C25.423 24.7934 25.2544 25.2004 24.9544 25.5004C24.6543 25.8005 24.2474 25.969 23.823 25.969C23.3987 25.969 22.9917 25.8005 22.6916 25.5004C22.3916 25.2004 22.223 24.7934 22.223 24.369C22.223 23.9447 22.3916 23.5377 22.6916 23.2377C22.9917 22.9376 23.3987 22.769 23.823 22.769ZM20.181 23.639H20.198C20.2202 23.6392 20.2418 23.646 20.2602 23.6586C20.2785 23.6711 20.2927 23.6888 20.301 23.7094C20.3092 23.7299 20.3112 23.7525 20.3066 23.7743C20.302 23.796 20.291 23.8158 20.2751 23.8313C20.2592 23.8468 20.2391 23.8572 20.2172 23.8612C20.1954 23.8652 20.1729 23.8626 20.1525 23.8538C20.1322 23.845 20.1149 23.8304 20.1028 23.8117C20.0908 23.793 20.0846 23.7712 20.085 23.749C20.085 23.695 20.126 23.646 20.181 23.639ZM27.431 23.639H27.448C27.4702 23.6392 27.4918 23.646 27.5102 23.6586C27.5285 23.6711 27.5427 23.6888 27.551 23.7094C27.5592 23.7299 27.5612 23.7525 27.5566 23.7743C27.552 23.796 27.541 23.8158 27.5251 23.8313C27.5092 23.8468 27.4891 23.8572 27.4672 23.8612C27.4454 23.8652 27.4229 23.8626 27.4025 23.8538C27.3822 23.845 27.3649 23.8304 27.3528 23.8117C27.3408 23.793 27.3346 23.7712 27.335 23.749C27.335 23.695 27.376 23.646 27.431 23.639ZM20.181 24.201H20.198C20.26 24.201 20.309 24.251 20.31 24.312C20.3099 24.3334 20.3037 24.3543 20.2922 24.3723C20.2806 24.3902 20.2641 24.4045 20.2447 24.4134C20.2253 24.4223 20.2037 24.4255 20.1826 24.4225C20.1614 24.4196 20.1415 24.4106 20.1253 24.3968C20.109 24.3829 20.0971 24.3647 20.0909 24.3442C20.0847 24.3238 20.0844 24.302 20.0902 24.2814C20.0959 24.2609 20.1074 24.2424 20.1233 24.2281C20.1393 24.2139 20.1589 24.2045 20.18 24.201H20.181ZM27.431 24.201H27.448C27.51 24.201 27.559 24.251 27.56 24.312C27.5599 24.3334 27.5537 24.3543 27.5422 24.3723C27.5306 24.3902 27.5141 24.4045 27.4947 24.4134C27.4753 24.4223 27.4537 24.4255 27.4326 24.4225C27.4114 24.4196 27.3915 24.4106 27.3753 24.3968C27.359 24.3829 27.3471 24.3647 27.3409 24.3442C27.3347 24.3238 27.3344 24.302 27.3402 24.2814C27.3459 24.2609 27.3574 24.2424 27.3733 24.2281C27.3893 24.2139 27.4089 24.2045 27.43 24.201H27.431ZM16.621 24.67C17.504 24.67 18.218 25.386 18.218 26.27C18.218 27.153 17.504 27.869 16.62 27.869C16.1956 27.869 15.7885 27.7005 15.4883 27.4005C15.1881 27.1004 15.0193 26.6935 15.019 26.269C15.019 26.0588 15.0604 25.8507 15.1409 25.6565C15.2214 25.4623 15.3393 25.2859 15.488 25.1373C15.6367 24.9887 15.8132 24.8709 16.0074 24.7906C16.2017 24.7102 16.4098 24.6689 16.62 24.669L16.621 24.67ZM31.384 24.67C32.267 24.67 32.981 25.386 32.982 26.27C32.982 27.153 32.267 27.869 31.384 27.869C31.1738 27.8692 30.9656 27.8279 30.7713 27.7476C30.577 27.6672 30.4004 27.5494 30.2516 27.4008C30.1029 27.2523 29.9848 27.0758 29.9043 26.8816C29.8237 26.6875 29.7821 26.4793 29.782 26.269C29.782 25.386 30.5 24.669 31.384 24.669V24.67ZM23.823 26.605C24.2474 26.605 24.6543 26.7736 24.9544 27.0737C25.2544 27.3737 25.423 27.7807 25.423 28.205C25.423 28.6294 25.2544 29.0364 24.9544 29.3364C24.6543 29.6365 24.2474 29.805 23.823 29.805C23.3987 29.805 22.9917 29.6365 22.6916 29.3364C22.3916 29.0364 22.223 28.6294 22.223 28.205C22.223 27.7807 22.3916 27.3737 22.6916 27.0737C22.9917 26.7736 23.3987 26.605 23.823 26.605ZM20.181 28.137H20.198C20.26 28.137 20.309 28.187 20.31 28.247C20.31 28.2769 20.2982 28.3055 20.2771 28.3266C20.256 28.3477 20.2274 28.3595 20.1975 28.3595C20.1677 28.3595 20.1391 28.3477 20.118 28.3266C20.0969 28.3055 20.085 28.2769 20.085 28.247C20.085 28.193 20.126 28.144 20.181 28.137ZM27.431 28.137H27.448C27.51 28.137 27.559 28.187 27.56 28.247C27.56 28.2769 27.5482 28.3055 27.5271 28.3266C27.506 28.3477 27.4774 28.3595 27.4475 28.3595C27.4177 28.3595 27.3891 28.3477 27.368 28.3266C27.3469 28.3055 27.335 28.2769 27.335 28.247C27.335 28.193 27.376 28.144 27.431 28.137ZM16.621 28.504C17.045 28.5048 17.4514 28.6739 17.7508 28.9741C18.0502 29.2743 18.2183 29.681 18.218 30.105C18.218 30.989 17.504 31.705 16.62 31.705C16.4065 31.7104 16.194 31.6729 15.9952 31.5949C15.7963 31.5169 15.6151 31.3998 15.4622 31.2507C15.3092 31.1015 15.1877 30.9233 15.1047 30.7265C15.0218 30.5296 14.979 30.3182 14.979 30.1045C14.979 29.8909 15.0218 29.6795 15.1047 29.4826C15.1877 29.2858 15.3092 29.1076 15.4622 28.9584C15.6151 28.8093 15.7963 28.6922 15.9952 28.6142C16.194 28.5362 16.4065 28.4987 16.62 28.504H16.621ZM31.384 28.504C31.8082 28.5046 32.2148 28.6735 32.5144 28.9737C32.8141 29.274 32.9823 29.6809 32.982 30.105C32.982 30.989 32.267 31.705 31.384 31.705C31.1705 31.7104 30.958 31.6729 30.7592 31.5949C30.5603 31.5169 30.3791 31.3998 30.2262 31.2507C30.0732 31.1015 29.9517 30.9233 29.8687 30.7265C29.7858 30.5296 29.743 30.3182 29.743 30.1045C29.743 29.8909 29.7858 29.6795 29.8687 29.4826C29.9517 29.2858 30.0732 29.1076 30.2262 28.9584C30.3791 28.8093 30.5603 28.6922 30.7592 28.6142C30.958 28.5362 31.1705 28.4987 31.384 28.504ZM20.2 28.697C20.263 28.697 20.314 28.748 20.313 28.81C20.313 28.872 20.261 28.921 20.2 28.922C20.1853 28.9222 20.1707 28.9194 20.1571 28.9138C20.1436 28.9082 20.1312 28.8999 20.1209 28.8895C20.1105 28.879 20.1024 28.8666 20.0969 28.853C20.0914 28.8393 20.0887 28.8247 20.089 28.81C20.0886 28.7953 20.0912 28.7806 20.0966 28.7668C20.102 28.753 20.1101 28.7405 20.1205 28.73C20.1309 28.7194 20.1432 28.7111 20.1569 28.7054C20.1706 28.6997 20.1852 28.6969 20.2 28.697ZM27.45 28.697C27.513 28.697 27.564 28.748 27.563 28.81C27.563 28.872 27.511 28.921 27.45 28.922C27.4353 28.9222 27.4207 28.9194 27.4071 28.9138C27.3936 28.9082 27.3812 28.8999 27.3709 28.8895C27.3605 28.879 27.3524 28.8666 27.3469 28.853C27.3414 28.8393 27.3387 28.8247 27.339 28.81C27.3386 28.7953 27.3412 28.7806 27.3466 28.7668C27.352 28.753 27.3601 28.7405 27.3705 28.73C27.3809 28.7194 27.3932 28.7111 27.4069 28.7054C27.4206 28.6997 27.4352 28.6969 27.45 28.697ZM23.823 30.439C24.2476 30.439 24.6549 30.6077 24.9551 30.908C25.2553 31.2082 25.424 31.6154 25.424 32.04C25.424 32.4647 25.2553 32.8719 24.9551 33.1721C24.6549 33.4724 24.2476 33.641 23.823 33.641C23.6131 33.6409 23.4052 33.5994 23.2113 33.5189C23.0174 33.4384 22.8413 33.3205 22.693 33.1719C22.5447 33.0234 22.4271 32.847 22.347 32.653C22.2669 32.4589 22.2258 32.251 22.226 32.041C22.2255 31.6169 22.3934 31.2098 22.6929 30.9094C22.9923 30.609 23.3988 30.4398 23.823 30.439ZM20.193 30.945C20.2084 30.9442 20.2238 30.9466 20.2383 30.9519C20.2527 30.9572 20.266 30.9653 20.2772 30.9759C20.2884 30.9865 20.2973 30.9992 20.3035 31.0133C20.3097 31.0274 20.3129 31.0426 20.313 31.058C20.313 31.088 20.3011 31.1168 20.2799 31.138C20.2587 31.1591 20.23 31.171 20.2 31.171C20.17 31.171 20.1413 31.1591 20.1201 31.138C20.0989 31.1168 20.087 31.088 20.087 31.058C20.087 30.999 20.133 30.948 20.192 30.945H20.193ZM27.443 30.945C27.4584 30.9442 27.4738 30.9466 27.4883 30.9519C27.5027 30.9572 27.516 30.9653 27.5272 30.9759C27.5384 30.9865 27.5473 30.9992 27.5535 31.0133C27.5597 31.0274 27.5629 31.0426 27.563 31.058C27.563 31.0729 27.5601 31.0876 27.5544 31.1013C27.5487 31.115 27.5404 31.1275 27.5299 31.138C27.5194 31.1484 27.507 31.1568 27.4933 31.1624C27.4796 31.1681 27.4649 31.171 27.45 31.171C27.4352 31.171 27.4205 31.1681 27.4068 31.1624C27.3931 31.1568 27.3806 31.1484 27.3701 31.138C27.3596 31.1275 27.3513 31.115 27.3456 31.1013C27.3399 31.0876 27.337 31.0729 27.337 31.058C27.337 30.999 27.383 30.948 27.442 30.945H27.443ZM20.181 32.07H20.198C20.2202 32.0702 20.2418 32.077 20.2601 32.0895C20.2784 32.1019 20.2926 32.1196 20.3009 32.1401C20.3092 32.1607 20.3112 32.1832 20.3067 32.2049C20.3021 32.2266 20.2913 32.2464 20.2755 32.2619C20.2597 32.2775 20.2396 32.288 20.2179 32.2921C20.1961 32.2962 20.1736 32.2938 20.1532 32.2851C20.1328 32.2765 20.1155 32.262 20.1033 32.2434C20.0912 32.2249 20.0848 32.2032 20.085 32.181C20.085 32.127 20.126 32.078 20.181 32.071V32.07ZM27.431 32.07H27.448C27.4702 32.0702 27.4918 32.077 27.5101 32.0895C27.5284 32.1019 27.5426 32.1196 27.5509 32.1401C27.5592 32.1607 27.5612 32.1832 27.5567 32.2049C27.5521 32.2266 27.5413 32.2464 27.5255 32.2619C27.5097 32.2775 27.4896 32.288 27.4679 32.2921C27.4461 32.2962 27.4236 32.2938 27.4032 32.2851C27.3828 32.2765 27.3655 32.262 27.3533 32.2434C27.3412 32.2249 27.3348 32.2032 27.335 32.181C27.335 32.127 27.376 32.078 27.431 32.071V32.07ZM16.621 32.342C17.504 32.342 18.218 33.058 18.218 33.942C18.218 34.825 17.504 35.541 16.62 35.541C16.1956 35.541 15.7885 35.3725 15.4883 35.0725C15.1881 34.7725 15.0193 34.3655 15.019 33.941C15.019 33.0581 15.736 32.341 16.62 32.341L16.621 32.342ZM31.384 32.342C32.267 32.342 32.981 33.058 32.982 33.942C32.982 34.825 32.267 35.541 31.384 35.541C31.1738 35.5412 30.9656 35.4999 30.7713 35.4196C30.577 35.3392 30.4004 35.2214 30.2516 35.0728C30.1029 34.9243 29.9848 34.7478 29.9043 34.5536C29.8237 34.3595 29.7821 34.1513 29.782 33.941C29.782 33.0581 30.5 32.341 31.384 32.341V32.342ZM20.181 32.632H20.198C20.26 32.632 20.309 32.682 20.31 32.744C20.31 32.806 20.26 32.854 20.198 32.855C20.1705 32.8541 20.1442 32.8431 20.1243 32.824C20.1044 32.8049 20.0922 32.7792 20.0901 32.7517C20.088 32.7242 20.0961 32.6969 20.1129 32.675C20.1297 32.6531 20.1539 32.6382 20.181 32.633V32.632ZM27.431 32.632H27.448C27.51 32.632 27.559 32.682 27.56 32.744C27.56 32.806 27.51 32.854 27.448 32.855C27.4205 32.8541 27.3942 32.8431 27.3743 32.824C27.3544 32.8049 27.3422 32.7792 27.3401 32.7517C27.338 32.7242 27.3461 32.6969 27.3629 32.675C27.3797 32.6531 27.4039 32.6382 27.431 32.633V32.632ZM20.201 33.193C20.263 33.194 20.314 33.246 20.314 33.308C20.3138 33.3228 20.3106 33.3373 20.3047 33.3508C20.2989 33.3642 20.2904 33.3764 20.2798 33.3867C20.2692 33.3969 20.2567 33.4049 20.243 33.4103C20.2293 33.4157 20.2147 33.4183 20.2 33.418C20.1855 33.4183 20.171 33.4157 20.1575 33.4102C20.1439 33.4048 20.1316 33.3967 20.1213 33.3865C20.1109 33.3762 20.1028 33.364 20.0972 33.3505C20.0917 33.3371 20.0889 33.3226 20.089 33.308C20.089 33.246 20.138 33.193 20.2 33.193H20.201ZM27.451 33.193C27.513 33.194 27.564 33.246 27.564 33.308C27.5638 33.3228 27.5606 33.3373 27.5547 33.3508C27.5489 33.3642 27.5404 33.3764 27.5298 33.3867C27.5192 33.3969 27.5067 33.4049 27.493 33.4103C27.4793 33.4157 27.4647 33.4183 27.45 33.418C27.4355 33.4183 27.421 33.4157 27.4075 33.4102C27.3939 33.4048 27.3816 33.3967 27.3713 33.3865C27.3609 33.3762 27.3528 33.364 27.3472 33.3505C27.3417 33.3371 27.3389 33.3226 27.339 33.308C27.339 33.246 27.388 33.193 27.45 33.193H27.451ZM20.192 33.756H20.2C20.2294 33.7571 20.2571 33.7696 20.2773 33.7909C20.2975 33.8122 20.3085 33.8406 20.308 33.87C20.3075 33.8993 20.2954 33.9273 20.2745 33.9479C20.2536 33.9685 20.2254 33.98 20.196 33.98C20.1667 33.98 20.1385 33.9685 20.1175 33.9479C20.0966 33.9273 20.0846 33.8993 20.084 33.87C20.0835 33.8406 20.0945 33.8122 20.1147 33.7909C20.1349 33.7696 20.1627 33.7571 20.192 33.756ZM27.442 33.756H27.45C27.4794 33.7571 27.5071 33.7696 27.5273 33.7909C27.5475 33.8122 27.5585 33.8406 27.558 33.87C27.5575 33.8993 27.5454 33.9273 27.5245 33.9479C27.5036 33.9685 27.4754 33.98 27.446 33.98C27.4167 33.98 27.3885 33.9685 27.3675 33.9479C27.3466 33.9273 27.3346 33.8993 27.334 33.87C27.3335 33.8406 27.3445 33.8122 27.3647 33.7909C27.3849 33.7696 27.4127 33.7571 27.442 33.756ZM23.823 34.277C24.0364 34.2717 24.2488 34.3091 24.4475 34.3871C24.6462 34.4651 24.8273 34.5821 24.9802 34.7311C25.133 34.8802 25.2544 35.0583 25.3374 35.255C25.4203 35.4517 25.463 35.6631 25.463 35.8765C25.463 36.09 25.4203 36.3013 25.3374 36.4981C25.2544 36.6948 25.133 36.8729 24.9802 37.022C24.8273 37.171 24.6462 37.288 24.4475 37.366C24.2488 37.444 24.0364 37.4814 23.823 37.476C23.4057 37.4656 23.009 37.2925 22.7176 36.9937C22.4261 36.6949 22.263 36.294 22.263 35.8765C22.263 35.4591 22.4261 35.0582 22.7176 34.7594C23.009 34.4606 23.4057 34.2875 23.823 34.277ZM31.373 36.092C31.797 36.0907 32.2042 36.2577 32.5052 36.5564C32.8061 36.8551 32.9762 37.261 32.978 37.685C32.978 38.565 32.258 39.281 31.372 39.281C30.9477 39.2818 30.5403 39.1142 30.2394 38.815C29.9385 38.5158 29.7686 38.1094 29.767 37.685C29.7689 37.261 29.9389 36.8551 30.2399 36.5564C30.5408 36.2577 30.948 36.0907 31.372 36.092H31.373ZM16.7 36.179C17.586 36.179 18.306 36.895 18.306 37.775C18.3052 37.9852 18.2631 38.1931 18.1819 38.3869C18.1008 38.5807 17.9823 38.7566 17.8331 38.9047C17.684 39.0527 17.5072 39.1699 17.3128 39.2496C17.1183 39.3292 16.9101 39.3698 16.7 39.369C16.2758 39.3704 15.8685 39.2032 15.5675 38.9043C15.2666 38.6054 15.0966 38.1992 15.095 37.775C15.095 36.895 15.815 36.179 16.7 36.179ZM20.181 37.131H20.198C20.26 37.131 20.309 37.181 20.31 37.242C20.3099 37.2634 20.3037 37.2843 20.2922 37.3023C20.2806 37.3202 20.2641 37.3345 20.2447 37.3434C20.2253 37.3523 20.2037 37.3555 20.1826 37.3525C20.1614 37.3496 20.1415 37.3406 20.1253 37.3268C20.109 37.3129 20.0971 37.2947 20.0909 37.2742C20.0847 37.2538 20.0844 37.232 20.0902 37.2114C20.0959 37.1909 20.1074 37.1724 20.1233 37.1581C20.1393 37.1439 20.1589 37.1345 20.18 37.131H20.181ZM27.431 37.131H27.448C27.51 37.131 27.559 37.181 27.56 37.242C27.5599 37.2634 27.5537 37.2843 27.5422 37.3023C27.5306 37.3202 27.5141 37.3345 27.4947 37.3434C27.4753 37.3523 27.4537 37.3555 27.4326 37.3525C27.4114 37.3496 27.3915 37.3406 27.3753 37.3268C27.359 37.3129 27.3471 37.2947 27.3409 37.2742C27.3347 37.2538 27.3344 37.232 27.3402 37.2114C27.3459 37.1909 27.3574 37.1724 27.3733 37.1581C27.3893 37.1439 27.4089 37.1345 27.43 37.131H27.431ZM20.192 37.691H20.2C20.2294 37.6921 20.2571 37.7046 20.2773 37.7259C20.2975 37.7472 20.3085 37.7756 20.308 37.805C20.3075 37.8343 20.2954 37.8623 20.2745 37.8829C20.2536 37.9034 20.2254 37.915 20.196 37.915C20.1667 37.915 20.1385 37.9034 20.1175 37.8829C20.0966 37.8623 20.0846 37.8343 20.084 37.805C20.0835 37.7756 20.0945 37.7472 20.1147 37.7259C20.1349 37.7046 20.1627 37.6921 20.192 37.691ZM27.442 37.691H27.45C27.4794 37.6921 27.5071 37.7046 27.5273 37.7259C27.5475 37.7472 27.5585 37.7756 27.558 37.805C27.5575 37.8343 27.5454 37.8623 27.5245 37.8829C27.5036 37.9034 27.4754 37.915 27.446 37.915C27.4167 37.915 27.3885 37.9034 27.3675 37.8829C27.3466 37.8623 27.3346 37.8343 27.334 37.805C27.3335 37.7756 27.3445 37.7472 27.3647 37.7259C27.3849 37.7046 27.4127 37.6921 27.442 37.691ZM23.823 38.213C24.709 38.213 25.429 38.928 25.429 39.808C25.4282 40.0182 25.3861 40.2261 25.3049 40.4199C25.2238 40.6137 25.1053 40.7896 24.9561 40.9377C24.807 41.0857 24.6302 41.2029 24.4358 41.2826C24.2413 41.3622 24.0331 41.4028 23.823 41.402C23.3991 41.4031 22.9921 41.2358 22.6915 40.9369C22.3909 40.638 22.2213 40.232 22.22 39.808C22.2213 39.384 22.3909 38.9779 22.6915 38.6788C22.992 38.3798 23.399 38.2122 23.823 38.213ZM20.193 39.379H20.2C20.2294 39.3801 20.2571 39.3926 20.2773 39.4139C20.2975 39.4352 20.3085 39.4636 20.308 39.493C20.3075 39.5223 20.2954 39.5503 20.2745 39.5709C20.2536 39.5914 20.2254 39.603 20.196 39.603C20.1667 39.603 20.1385 39.5914 20.1175 39.5709C20.0966 39.5503 20.0846 39.5223 20.084 39.493C20.0835 39.4636 20.0945 39.4352 20.1147 39.4139C20.1349 39.3926 20.1627 39.3801 20.192 39.379H20.193ZM27.443 39.379H27.45C27.4794 39.3801 27.5071 39.3926 27.5273 39.4139C27.5475 39.4352 27.5585 39.4636 27.558 39.493C27.5575 39.5223 27.5454 39.5503 27.5245 39.5709C27.5036 39.5914 27.4754 39.603 27.446 39.603C27.4167 39.603 27.3885 39.5914 27.3675 39.5709C27.3466 39.5503 27.3346 39.5223 27.334 39.493C27.3335 39.4636 27.3445 39.4352 27.3647 39.4139C27.3849 39.3926 27.4127 39.3801 27.442 39.379H27.443ZM31.373 39.842C31.797 39.8407 32.2042 40.0077 32.5052 40.3064C32.8061 40.6051 32.9762 41.011 32.978 41.435C32.978 42.315 32.258 43.031 31.372 43.031C30.9477 43.0318 30.5403 42.8642 30.2394 42.565C29.9385 42.2658 29.7686 41.8594 29.767 41.435C29.7689 41.011 29.9389 40.6051 30.2399 40.3064C30.5408 40.0077 30.948 39.8407 31.372 39.842H31.373ZM16.7 39.929C17.586 39.929 18.306 40.645 18.306 41.525C18.3052 41.7352 18.2631 41.9431 18.1819 42.1369C18.1008 42.3307 17.9823 42.5066 17.8331 42.6547C17.684 42.8027 17.5072 42.9199 17.3128 42.9996C17.1183 43.0792 16.9101 43.1198 16.7 43.119C16.2758 43.1204 15.8685 42.9532 15.5675 42.6543C15.2666 42.3554 15.0966 41.9492 15.095 41.525C15.095 40.645 15.815 39.929 16.7 39.929ZM20.192 39.941H20.2C20.2294 39.9421 20.2571 39.9546 20.2773 39.9759C20.2975 39.9972 20.3085 40.0256 20.308 40.055C20.3075 40.0843 20.2954 40.1123 20.2745 40.1329C20.2536 40.1534 20.2254 40.165 20.196 40.165C20.1667 40.165 20.1385 40.1534 20.1175 40.1329C20.0966 40.1123 20.0846 40.0843 20.084 40.055C20.0835 40.0256 20.0945 39.9972 20.1147 39.9759C20.1349 39.9546 20.1627 39.9421 20.192 39.941ZM27.442 39.941H27.45C27.4794 39.9421 27.5071 39.9546 27.5273 39.9759C27.5475 39.9972 27.5585 40.0256 27.558 40.055C27.5575 40.0843 27.5454 40.1123 27.5245 40.1329C27.5036 40.1534 27.4754 40.165 27.446 40.165C27.4167 40.165 27.3885 40.1534 27.3675 40.1329C27.3466 40.1123 27.3346 40.0843 27.334 40.055C27.3335 40.0256 27.3445 39.9972 27.3647 39.9759C27.3849 39.9546 27.4127 39.9421 27.442 39.941ZM20.192 40.504H20.2C20.2294 40.5051 20.2571 40.5176 20.2773 40.5389C20.2975 40.5602 20.3085 40.5886 20.308 40.618C20.3075 40.6473 20.2954 40.6753 20.2745 40.6959C20.2536 40.7164 20.2254 40.728 20.196 40.728C20.1667 40.728 20.1385 40.7164 20.1175 40.6959C20.0966 40.6753 20.0846 40.6473 20.084 40.618C20.0835 40.5886 20.0945 40.5602 20.1147 40.5389C20.1349 40.5176 20.1627 40.5051 20.192 40.504ZM27.442 40.504H27.45C27.4794 40.5051 27.5071 40.5176 27.5273 40.5389C27.5475 40.5602 27.5585 40.5886 27.558 40.618C27.5575 40.6473 27.5454 40.6753 27.5245 40.6959C27.5036 40.7164 27.4754 40.728 27.446 40.728C27.4167 40.728 27.3885 40.7164 27.3675 40.6959C27.3466 40.6753 27.3346 40.6473 27.334 40.618C27.3335 40.5886 27.3445 40.5602 27.3647 40.5389C27.3849 40.5176 27.4127 40.5051 27.442 40.504ZM20.181 41.066H20.198C20.2204 41.066 20.2423 41.0727 20.2609 41.0852C20.2795 41.0976 20.294 41.1153 20.3025 41.136C20.311 41.1567 20.3132 41.1795 20.3088 41.2015C20.3043 41.2234 20.2935 41.2435 20.2776 41.2593C20.2617 41.2751 20.2414 41.2857 20.2194 41.29C20.1975 41.2942 20.1747 41.2919 20.1541 41.2832C20.1334 41.2744 20.1159 41.2598 20.1036 41.2411C20.0913 41.2224 20.0848 41.2004 20.085 41.178C20.085 41.122 20.126 41.074 20.181 41.066ZM27.431 41.066H27.448C27.4704 41.066 27.4923 41.0727 27.5109 41.0852C27.5295 41.0976 27.544 41.1153 27.5525 41.136C27.561 41.1567 27.5632 41.1795 27.5588 41.2015C27.5543 41.2234 27.5435 41.2435 27.5276 41.2593C27.5117 41.2751 27.4914 41.2857 27.4694 41.29C27.4475 41.2942 27.4247 41.2919 27.4041 41.2832C27.3834 41.2744 27.3659 41.2598 27.3536 41.2411C27.3413 41.2224 27.3348 41.2004 27.335 41.178C27.335 41.122 27.376 41.074 27.431 41.066ZM20.181 41.629H20.198C20.26 41.629 20.309 41.679 20.31 41.74C20.31 41.802 20.26 41.85 20.198 41.851C20.1705 41.8501 20.1442 41.8391 20.1243 41.82C20.1044 41.8009 20.0922 41.7752 20.0901 41.7477C20.088 41.7202 20.0961 41.6929 20.1129 41.671C20.1297 41.6491 20.1539 41.6342 20.181 41.629ZM27.431 41.629H27.448C27.51 41.629 27.559 41.679 27.56 41.74C27.56 41.802 27.51 41.85 27.448 41.851C27.4205 41.8501 27.3942 41.8391 27.3743 41.82C27.3544 41.8009 27.3422 41.7752 27.3401 41.7477C27.338 41.7202 27.3461 41.6929 27.3629 41.671C27.3797 41.6491 27.4039 41.6342 27.431 41.629ZM20.201 42.189C20.263 42.19 20.314 42.241 20.314 42.303C20.313 42.364 20.261 42.413 20.2 42.413C20.1855 42.4132 20.1711 42.4104 20.1576 42.405C20.1442 42.3995 20.1319 42.3914 20.1216 42.3812C20.1113 42.371 20.1031 42.3588 20.0975 42.3454C20.0919 42.332 20.089 42.3176 20.089 42.303C20.0885 42.2882 20.091 42.2734 20.0963 42.2595C20.1017 42.2456 20.1098 42.233 20.1201 42.2223C20.1305 42.2116 20.1429 42.2032 20.1567 42.1975C20.1704 42.1918 20.1851 42.1889 20.2 42.189H20.201ZM27.451 42.189C27.513 42.19 27.564 42.241 27.564 42.303C27.563 42.364 27.511 42.413 27.45 42.413C27.4355 42.4132 27.4211 42.4104 27.4076 42.405C27.3942 42.3995 27.3819 42.3914 27.3716 42.3812C27.3613 42.371 27.3531 42.3588 27.3475 42.3454C27.3419 42.332 27.339 42.3176 27.339 42.303C27.3385 42.2882 27.341 42.2734 27.3463 42.2595C27.3517 42.2456 27.3598 42.233 27.3701 42.2223C27.3805 42.2116 27.3929 42.2032 27.4067 42.1975C27.4204 42.1918 27.4351 42.1889 27.45 42.189H27.451Z" fill="#333333"/>
</svg>
