<svg width="48" height="48" viewBox="0 0 48 48" fill="none" xmlns="http://www.w3.org/2000/svg">
<path d="M14.346 4.09402C13.476 4.09402 12.777 4.79302 12.777 5.66202V42.523C12.777 43.393 13.477 44.093 14.346 44.093H34.05C34.92 44.093 35.618 43.393 35.618 42.523V5.66302C35.618 4.79302 34.919 4.09302 34.05 4.09302H14.346V4.09402ZM16.906 9.54402C17.3303 9.54402 17.7373 9.71259 18.0373 10.0126C18.3374 10.3127 18.506 10.7197 18.506 11.144C18.506 11.5684 18.3374 11.9753 18.0373 12.2754C17.7373 12.5754 17.3303 12.744 16.906 12.744C16.4816 12.744 16.0747 12.5754 15.7746 12.2754C15.4745 11.9753 15.306 11.5684 15.306 11.144C15.306 10.7197 15.4745 10.3127 15.7746 10.0126C16.0747 9.71259 16.4816 9.54402 16.906 9.54402ZM20.553 9.54402C20.9773 9.54402 21.3843 9.71259 21.6843 10.0126C21.9844 10.3127 22.153 10.7197 22.153 11.144C22.153 11.5684 21.9844 11.9753 21.6843 12.2754C21.3843 12.5754 20.9773 12.744 20.553 12.744C20.1286 12.744 19.7217 12.5754 19.4216 12.2754C19.1215 11.9753 18.953 11.5684 18.953 11.144C18.953 10.7197 19.1215 10.3127 19.4216 10.0126C19.7217 9.71259 20.1286 9.54402 20.553 9.54402ZM24.199 9.54402C24.6233 9.54402 25.0303 9.71259 25.3303 10.0126C25.6304 10.3127 25.799 10.7197 25.799 11.144C25.799 11.5684 25.6304 11.9753 25.3303 12.2754C25.0303 12.5754 24.6233 12.744 24.199 12.744C23.7746 12.744 23.3677 12.5754 23.0676 12.2754C22.7675 11.9753 22.599 11.5684 22.599 11.144C22.599 10.7197 22.7675 10.3127 23.0676 10.0126C23.3677 9.71259 23.7746 9.54402 24.199 9.54402ZM27.844 9.54402C28.2683 9.54402 28.6753 9.71259 28.9753 10.0126C29.2754 10.3127 29.444 10.7197 29.444 11.144C29.444 11.5684 29.2754 11.9753 28.9753 12.2754C28.6753 12.5754 28.2683 12.744 27.844 12.744C27.4196 12.744 27.0127 12.5754 26.7126 12.2754C26.4125 11.9753 26.244 11.5684 26.244 11.144C26.244 10.7197 26.4125 10.3127 26.7126 10.0126C27.0127 9.71259 27.4196 9.54402 27.844 9.54402ZM31.49 9.54402C31.9143 9.54402 32.3213 9.71259 32.6213 10.0126C32.9214 10.3127 33.09 10.7197 33.09 11.144C33.09 11.5684 32.9214 11.9753 32.6213 12.2754C32.3213 12.5754 31.9143 12.744 31.49 12.744C31.0656 12.744 30.6587 12.5754 30.3586 12.2754C30.0585 11.9753 29.89 11.5684 29.89 11.144C29.89 10.7197 30.0585 10.3127 30.3586 10.0126C30.6587 9.71259 31.0656 9.54402 31.49 9.54402ZM13.795 14.98C13.8232 14.9827 13.8495 14.9958 13.8686 15.0168C13.8877 15.0378 13.8983 15.0651 13.8983 15.0935C13.8983 15.1219 13.8877 15.1493 13.8686 15.1703C13.8495 15.1913 13.8232 15.2044 13.795 15.207C13.7654 15.2062 13.7374 15.194 13.7166 15.1729C13.6959 15.1519 13.6842 15.1236 13.684 15.094C13.684 15.031 13.733 14.981 13.794 14.98H13.795ZM14.357 14.98C14.3839 14.9792 14.4102 14.9884 14.4309 15.0057C14.4515 15.023 14.4651 15.0473 14.469 15.074V15.094C14.468 15.155 14.419 15.207 14.357 15.207C14.3272 15.2065 14.2987 15.1944 14.2776 15.1734C14.2566 15.1523 14.2445 15.1238 14.244 15.094C14.244 15.031 14.295 14.981 14.357 14.98ZM14.92 14.98C14.9468 14.9795 14.9728 14.9887 14.9932 15.0061C15.0137 15.0234 15.0271 15.0475 15.031 15.074V15.094C15.031 15.155 14.981 15.207 14.92 15.207C14.8901 15.2068 14.8615 15.1948 14.8404 15.1736C14.8192 15.1525 14.8072 15.1239 14.807 15.094C14.807 15.031 14.857 14.98 14.92 14.98ZM15.482 14.98C15.542 14.98 15.59 15.027 15.594 15.086V15.094C15.593 15.155 15.544 15.207 15.482 15.207C15.4521 15.2068 15.4235 15.1948 15.4024 15.1736C15.3812 15.1525 15.3692 15.1239 15.369 15.094C15.369 15.031 15.419 14.98 15.482 14.98ZM16.045 14.98C16.105 14.98 16.153 15.027 16.156 15.086V15.094C16.156 15.155 16.106 15.207 16.045 15.207C16.0151 15.2068 15.9865 15.1948 15.9654 15.1736C15.9442 15.1525 15.9322 15.1239 15.932 15.094C15.932 15.031 15.982 14.98 16.045 14.98ZM16.607 14.98C16.667 14.98 16.715 15.027 16.719 15.086V15.094C16.718 15.155 16.669 15.207 16.607 15.207C16.5771 15.2068 16.5485 15.1948 16.5274 15.1736C16.5062 15.1525 16.4942 15.1239 16.494 15.094C16.494 15.031 16.544 14.98 16.607 14.98ZM17.168 14.98C17.228 14.98 17.278 15.026 17.281 15.086V15.094C17.2807 15.1239 17.2687 15.1525 17.2476 15.1736C17.2265 15.1948 17.1979 15.2068 17.168 15.207C17.1384 15.2062 17.1104 15.194 17.0896 15.1729C17.0689 15.1519 17.0572 15.1236 17.057 15.094C17.057 15.031 17.106 14.981 17.168 14.98ZM17.731 14.98C17.791 14.98 17.841 15.026 17.844 15.086V15.094C17.8437 15.1241 17.8316 15.1528 17.8102 15.174C17.7889 15.1951 17.76 15.207 17.73 15.207C17.7006 15.206 17.6728 15.1937 17.6523 15.1726C17.6318 15.1516 17.6202 15.1234 17.62 15.094C17.619 15.031 17.669 14.981 17.73 14.98H17.731ZM18.293 14.98C18.353 14.98 18.403 15.026 18.406 15.086V15.094C18.4057 15.1239 18.3937 15.1525 18.3726 15.1736C18.3515 15.1948 18.3229 15.2068 18.293 15.207C18.2634 15.2062 18.2354 15.194 18.2146 15.1729C18.1939 15.1519 18.1822 15.1236 18.182 15.094C18.182 15.031 18.231 14.981 18.293 14.98ZM18.856 14.98C18.8826 14.9797 18.9084 14.9891 18.9286 15.0064C18.9488 15.0237 18.9621 15.0477 18.966 15.074V15.094C18.966 15.155 18.916 15.207 18.856 15.207C18.8263 15.2065 18.7979 15.1944 18.777 15.1733C18.7561 15.1522 18.7442 15.1237 18.744 15.094C18.744 15.031 18.794 14.981 18.855 14.98H18.856ZM19.418 14.98C19.478 14.98 19.526 15.027 19.529 15.086V15.094C19.529 15.155 19.479 15.207 19.418 15.207C19.3881 15.2068 19.3595 15.1948 19.3384 15.1736C19.3172 15.1525 19.3052 15.1239 19.305 15.094C19.305 15.031 19.355 14.98 19.418 14.98ZM19.981 14.98C20.04 14.98 20.088 15.027 20.091 15.086V15.094C20.091 15.155 20.041 15.207 19.981 15.207C19.9509 15.207 19.9221 15.1951 19.9007 15.174C19.8794 15.1528 19.8672 15.1241 19.867 15.094C19.867 15.031 19.917 14.98 19.98 14.98H19.981ZM20.543 14.98C20.603 14.98 20.651 15.027 20.654 15.086V15.094C20.654 15.155 20.604 15.207 20.543 15.207C20.5131 15.2068 20.4845 15.1948 20.4634 15.1736C20.4422 15.1525 20.4302 15.1239 20.43 15.094C20.43 15.031 20.48 14.98 20.543 14.98ZM21.106 14.98C21.165 14.98 21.213 15.027 21.216 15.086V15.094C21.216 15.155 21.166 15.207 21.106 15.207C21.0759 15.207 21.0471 15.1951 21.0257 15.174C21.0044 15.1528 20.9922 15.1241 20.992 15.094C20.992 15.031 21.042 14.98 21.105 14.98H21.106ZM21.666 14.98C21.726 14.98 21.776 15.026 21.779 15.086V15.094C21.7787 15.1239 21.7667 15.1525 21.7456 15.1736C21.7245 15.1948 21.6959 15.2068 21.666 15.207C21.6364 15.2062 21.6084 15.194 21.5876 15.1729C21.5669 15.1519 21.5552 15.1236 21.555 15.094C21.555 15.031 21.604 14.981 21.666 14.98ZM22.229 14.98C22.289 14.98 22.339 15.026 22.342 15.086V15.094C22.3417 15.1239 22.3297 15.1525 22.3086 15.1736C22.2875 15.1948 22.2589 15.2068 22.229 15.207C22.1993 15.2065 22.1709 15.1944 22.15 15.1733C22.1291 15.1522 22.1172 15.1237 22.117 15.094C22.117 15.031 22.167 14.981 22.228 14.98H22.229ZM22.791 14.98C22.8192 14.9827 22.8455 14.9958 22.8646 15.0168C22.8837 15.0378 22.8943 15.0651 22.8943 15.0935C22.8943 15.1219 22.8837 15.1493 22.8646 15.1703C22.8455 15.1913 22.8192 15.2044 22.791 15.207C22.7614 15.2062 22.7334 15.194 22.7126 15.1729C22.6919 15.1519 22.6802 15.1236 22.68 15.094C22.68 15.031 22.729 14.981 22.791 14.98ZM23.354 14.98C23.408 14.98 23.457 15.02 23.464 15.074V15.094C23.464 15.155 23.414 15.207 23.354 15.207C23.3243 15.2065 23.2959 15.1944 23.275 15.1733C23.2541 15.1522 23.2422 15.1237 23.242 15.094C23.242 15.031 23.292 14.981 23.353 14.98H23.354ZM23.916 14.98C23.9428 14.9795 23.9688 14.9887 23.9892 15.0061C24.0097 15.0234 24.0231 15.0475 24.027 15.074V15.094C24.027 15.155 23.977 15.207 23.916 15.207C23.8861 15.2068 23.8575 15.1948 23.8364 15.1736C23.8152 15.1525 23.8032 15.1239 23.803 15.094C23.803 15.031 23.853 14.98 23.916 14.98ZM24.479 14.98C24.538 14.98 24.586 15.027 24.589 15.086V15.094C24.589 15.155 24.539 15.207 24.479 15.207C24.4489 15.207 24.4201 15.1951 24.3987 15.174C24.3774 15.1528 24.3652 15.1241 24.365 15.094C24.365 15.031 24.415 14.98 24.479 14.98ZM25.041 14.98C25.101 14.98 25.149 15.027 25.152 15.086V15.094C25.152 15.155 25.102 15.207 25.041 15.207C25.0111 15.2068 24.9825 15.1948 24.9614 15.1736C24.9402 15.1525 24.9282 15.1239 24.928 15.094C24.928 15.031 24.978 14.98 25.041 14.98ZM25.601 14.98C25.661 14.98 25.711 15.026 25.715 15.086V15.094C25.7147 15.1239 25.7027 15.1525 25.6816 15.1736C25.6605 15.1948 25.6319 15.2068 25.602 15.207C25.5723 15.2065 25.5439 15.1944 25.523 15.1733C25.5021 15.1522 25.4902 15.1237 25.49 15.094C25.49 15.031 25.54 14.981 25.602 14.98H25.601ZM26.164 14.98C26.224 14.98 26.274 15.026 26.277 15.086V15.094C26.2767 15.1239 26.2647 15.1525 26.2436 15.1736C26.2225 15.1948 26.1939 15.2068 26.164 15.207C26.1344 15.2062 26.1064 15.194 26.0856 15.1729C26.0649 15.1519 26.0532 15.1236 26.053 15.094C26.053 15.031 26.103 14.981 26.164 14.98ZM26.727 14.98C26.787 14.98 26.837 15.026 26.84 15.086V15.094C26.8397 15.1239 26.8277 15.1525 26.8066 15.1736C26.7855 15.1948 26.7569 15.2068 26.727 15.207C26.6973 15.2065 26.6689 15.1944 26.648 15.1733C26.6271 15.1522 26.6152 15.1237 26.615 15.094C26.615 15.031 26.665 14.981 26.727 14.98ZM27.289 14.98C27.3172 14.9827 27.3435 14.9958 27.3626 15.0168C27.3817 15.0378 27.3923 15.0651 27.3923 15.0935C27.3923 15.1219 27.3817 15.1493 27.3626 15.1703C27.3435 15.1913 27.3172 15.2044 27.289 15.207C27.2594 15.2062 27.2314 15.194 27.2106 15.1729C27.1899 15.1519 27.1782 15.1236 27.178 15.094C27.178 15.031 27.228 14.981 27.289 14.98ZM27.852 14.98C27.8786 14.9797 27.9044 14.9891 27.9246 15.0064C27.9448 15.0237 27.9581 15.0477 27.962 15.074C27.964 15.082 27.964 15.086 27.962 15.094C27.962 15.155 27.912 15.207 27.852 15.207C27.8223 15.2065 27.7939 15.1944 27.773 15.1733C27.7521 15.1522 27.7402 15.1237 27.74 15.094C27.74 15.031 27.79 14.981 27.852 14.98ZM28.414 14.98C28.474 14.98 28.522 15.027 28.525 15.086V15.094C28.525 15.155 28.475 15.207 28.415 15.207C28.3849 15.207 28.3561 15.1951 28.3347 15.174C28.3134 15.1528 28.3012 15.1241 28.301 15.094C28.301 15.031 28.351 14.98 28.414 14.98ZM28.977 14.98C29.036 14.98 29.084 15.027 29.087 15.086V15.094C29.087 15.155 29.037 15.207 28.977 15.207C28.9469 15.207 28.9181 15.1951 28.8967 15.174C28.8754 15.1528 28.8632 15.1241 28.863 15.094C28.863 15.031 28.913 14.98 28.977 14.98ZM29.539 14.98C29.599 14.98 29.647 15.027 29.65 15.086V15.094C29.65 15.155 29.6 15.207 29.54 15.207C29.5099 15.207 29.4811 15.1951 29.4597 15.174C29.4384 15.1528 29.4262 15.1241 29.426 15.094C29.426 15.031 29.476 14.98 29.539 14.98ZM30.099 14.98C30.159 14.98 30.209 15.026 30.213 15.086V15.094C30.2127 15.1239 30.2007 15.1525 30.1796 15.1736C30.1585 15.1948 30.1299 15.2068 30.1 15.207C30.0703 15.2065 30.0419 15.1944 30.021 15.1733C30.0001 15.1522 29.9882 15.1237 29.988 15.094C29.988 15.031 30.038 14.981 30.1 14.98H30.099ZM30.662 14.98C30.722 14.98 30.772 15.026 30.775 15.086V15.094C30.7747 15.1239 30.7627 15.1525 30.7416 15.1736C30.7205 15.1948 30.6919 15.2068 30.662 15.207C30.6324 15.2062 30.6044 15.194 30.5836 15.1729C30.5629 15.1519 30.5512 15.1236 30.551 15.094C30.551 15.031 30.601 14.981 30.662 14.98ZM31.225 14.98C31.285 14.98 31.335 15.026 31.338 15.086V15.094C31.3377 15.1239 31.3257 15.1525 31.3046 15.1736C31.2835 15.1948 31.2549 15.2068 31.225 15.207C31.1953 15.2065 31.1669 15.1944 31.146 15.1733C31.1251 15.1522 31.1132 15.1237 31.113 15.094C31.113 15.031 31.163 14.981 31.225 14.98ZM31.787 14.98C31.8138 14.9795 31.8398 14.9887 31.8602 15.0061C31.8807 15.0234 31.8941 15.0475 31.898 15.074V15.094C31.898 15.155 31.848 15.207 31.788 15.207C31.7583 15.2065 31.7299 15.1944 31.709 15.1733C31.6881 15.1522 31.6762 15.1237 31.676 15.094C31.675 15.031 31.726 14.981 31.787 14.98ZM32.35 14.98C32.3766 14.9797 32.4024 14.9891 32.4226 15.0064C32.4428 15.0237 32.4561 15.0477 32.46 15.074C32.462 15.082 32.462 15.086 32.46 15.094C32.46 15.155 32.41 15.207 32.35 15.207C32.3199 15.207 32.2911 15.1951 32.2697 15.174C32.2484 15.1528 32.2362 15.1241 32.236 15.094C32.236 15.031 32.286 14.98 32.35 14.98ZM32.912 14.98C32.972 14.98 33.02 15.027 33.023 15.086V15.094C33.023 15.155 32.973 15.207 32.913 15.207C32.8829 15.207 32.8541 15.1951 32.8327 15.174C32.8114 15.1528 32.7992 15.1241 32.799 15.094C32.799 15.031 32.849 14.98 32.912 14.98ZM33.475 14.98C33.534 14.98 33.582 15.027 33.585 15.086V15.094C33.585 15.155 33.535 15.207 33.475 15.207C33.4449 15.207 33.4161 15.1951 33.3947 15.174C33.3734 15.1528 33.3612 15.1241 33.361 15.094C33.361 15.031 33.411 14.98 33.475 14.98ZM34.037 14.98C34.097 14.98 34.145 15.027 34.148 15.086V15.094C34.148 15.155 34.098 15.207 34.038 15.207C34.0079 15.207 33.9791 15.1951 33.9577 15.174C33.9364 15.1528 33.9242 15.1241 33.924 15.094C33.924 15.031 33.974 14.98 34.037 14.98ZM34.597 14.98C34.657 14.98 34.707 15.026 34.711 15.086V15.094C34.7107 15.1239 34.6987 15.1525 34.6776 15.1736C34.6565 15.1948 34.6279 15.2068 34.598 15.207C34.5683 15.2065 34.5399 15.1944 34.519 15.1733C34.4981 15.1522 34.4862 15.1237 34.486 15.094C34.486 15.031 34.536 14.981 34.598 14.98H34.597ZM15.14 18.178C15.3534 18.1727 15.5657 18.2101 15.7644 18.2881C15.9632 18.3661 16.1443 18.483 16.2971 18.6321C16.4499 18.7811 16.5714 18.9593 16.6543 19.156C16.7373 19.3527 16.78 19.564 16.78 19.7775C16.78 19.991 16.7373 20.2023 16.6543 20.399C16.5714 20.5958 16.4499 20.7739 16.2971 20.9229C16.1443 21.072 15.9632 21.189 15.7644 21.2669C15.5657 21.3449 15.3534 21.3824 15.14 21.377C14.7156 21.377 14.3087 21.2084 14.0086 20.9084C13.7085 20.6083 13.54 20.2014 13.54 19.777C13.54 19.3527 13.7085 18.9457 14.0086 18.6456C14.3087 18.3456 14.7156 18.177 15.14 18.177V18.178ZM18.763 18.178C18.9764 18.1727 19.1887 18.2101 19.3874 18.2881C19.5862 18.3661 19.7673 18.483 19.9201 18.6321C20.0729 18.7811 20.1944 18.9593 20.2773 19.156C20.3603 19.3527 20.403 19.564 20.403 19.7775C20.403 19.991 20.3603 20.2023 20.2773 20.399C20.1944 20.5958 20.0729 20.7739 19.9201 20.9229C19.7673 21.072 19.5862 21.189 19.3874 21.2669C19.1887 21.3449 18.9764 21.3824 18.763 21.377C18.3386 21.377 17.9317 21.2084 17.6316 20.9084C17.3315 20.6083 17.163 20.2014 17.163 19.777C17.163 19.3527 17.3315 18.9457 17.6316 18.6456C17.9317 18.3456 18.3386 18.177 18.763 18.177V18.178ZM22.386 18.178C22.5994 18.1727 22.8117 18.2101 23.0104 18.2881C23.2092 18.3661 23.3903 18.483 23.5431 18.6321C23.6959 18.7811 23.8174 18.9593 23.9003 19.156C23.9833 19.3527 24.026 19.564 24.026 19.7775C24.026 19.991 23.9833 20.2023 23.9003 20.399C23.8174 20.5958 23.6959 20.7739 23.5431 20.9229C23.3903 21.072 23.2092 21.189 23.0104 21.2669C22.8117 21.3449 22.5994 21.3824 22.386 21.377C21.9616 21.377 21.5547 21.2084 21.2546 20.9084C20.9545 20.6083 20.786 20.2014 20.786 19.777C20.786 19.3527 20.9545 18.9457 21.2546 18.6456C21.5547 18.3456 21.9616 18.177 22.386 18.177V18.178ZM26.011 18.178C26.2244 18.1727 26.4367 18.2101 26.6354 18.2881C26.8342 18.3661 27.0153 18.483 27.1681 18.6321C27.3209 18.7811 27.4424 18.9593 27.5253 19.156C27.6083 19.3527 27.651 19.564 27.651 19.7775C27.651 19.991 27.6083 20.2023 27.5253 20.399C27.4424 20.5958 27.3209 20.7739 27.1681 20.9229C27.0153 21.072 26.8342 21.189 26.6354 21.2669C26.4367 21.3449 26.2244 21.3824 26.011 21.377C25.5866 21.377 25.1797 21.2084 24.8796 20.9084C24.5795 20.6083 24.411 20.2014 24.411 19.777C24.411 19.3527 24.5795 18.9457 24.8796 18.6456C25.1797 18.3456 25.5866 18.177 26.011 18.177V18.178ZM29.634 18.178C29.8474 18.1727 30.0597 18.2101 30.2584 18.2881C30.4572 18.3661 30.6383 18.483 30.7911 18.6321C30.9439 18.7811 31.0654 18.9593 31.1483 19.156C31.2313 19.3527 31.274 19.564 31.274 19.7775C31.274 19.991 31.2313 20.2023 31.1483 20.399C31.0654 20.5958 30.9439 20.7739 30.7911 20.9229C30.6383 21.072 30.4572 21.189 30.2584 21.2669C30.0597 21.3449 29.8474 21.3824 29.634 21.377C29.2096 21.377 28.8027 21.2084 28.5026 20.9084C28.2025 20.6083 28.034 20.2014 28.034 19.777C28.034 19.3527 28.2025 18.9457 28.5026 18.6456C28.8027 18.3456 29.2096 18.177 29.634 18.177V18.178ZM33.259 18.178C33.4724 18.1727 33.6847 18.2101 33.8834 18.2881C34.0822 18.3661 34.2633 18.483 34.4161 18.6321C34.5689 18.7811 34.6904 18.9593 34.7733 19.156C34.8563 19.3527 34.899 19.564 34.899 19.7775C34.899 19.991 34.8563 20.2023 34.7733 20.399C34.6904 20.5958 34.5689 20.7739 34.4161 20.9229C34.2633 21.072 34.0822 21.189 33.8834 21.2669C33.6847 21.3449 33.4724 21.3824 33.259 21.377C32.8346 21.377 32.4277 21.2084 32.1276 20.9084C31.8275 20.6083 31.659 20.2014 31.659 19.777C31.659 19.3527 31.8275 18.9457 32.1276 18.6456C32.4277 18.3456 32.8346 18.177 33.259 18.177V18.178ZM13.795 23.98C13.8232 23.9827 13.8495 23.9958 13.8686 24.0168C13.8877 24.0378 13.8983 24.0651 13.8983 24.0935C13.8983 24.1219 13.8877 24.1493 13.8686 24.1703C13.8495 24.1913 13.8232 24.2044 13.795 24.207C13.7654 24.2062 13.7374 24.194 13.7166 24.1729C13.6959 24.1519 13.6842 24.1236 13.684 24.094C13.684 24.031 13.733 23.981 13.794 23.98H13.795ZM14.357 23.98C14.3839 23.9792 14.4102 23.9884 14.4309 24.0057C14.4515 24.023 14.4651 24.0473 14.469 24.074V24.094C14.468 24.155 14.419 24.207 14.357 24.207C14.3272 24.2065 14.2987 24.1944 14.2776 24.1734C14.2566 24.1523 14.2445 24.1238 14.244 24.094C14.244 24.031 14.295 23.981 14.357 23.98ZM14.92 23.98C14.9468 23.9795 14.9728 23.9887 14.9932 24.0061C15.0137 24.0234 15.0271 24.0475 15.031 24.074V24.094C15.031 24.155 14.981 24.207 14.92 24.207C14.8901 24.2068 14.8615 24.1948 14.8404 24.1736C14.8192 24.1525 14.8072 24.1239 14.807 24.094C14.807 24.031 14.857 23.98 14.92 23.98ZM15.482 23.98C15.542 23.98 15.59 24.027 15.594 24.086V24.094C15.593 24.155 15.544 24.207 15.482 24.207C15.4521 24.2068 15.4235 24.1948 15.4024 24.1736C15.3812 24.1525 15.3692 24.1239 15.369 24.094C15.369 24.031 15.419 23.98 15.482 23.98ZM16.045 23.98C16.105 23.98 16.153 24.027 16.156 24.086V24.094C16.156 24.155 16.106 24.207 16.045 24.207C16.0151 24.2068 15.9865 24.1948 15.9654 24.1736C15.9442 24.1525 15.9322 24.1239 15.932 24.094C15.932 24.031 15.982 23.98 16.045 23.98ZM16.607 23.98C16.667 23.98 16.715 24.027 16.719 24.086V24.094C16.718 24.155 16.669 24.207 16.607 24.207C16.5771 24.2068 16.5485 24.1948 16.5274 24.1736C16.5062 24.1525 16.4942 24.1239 16.494 24.094C16.494 24.031 16.544 23.98 16.607 23.98ZM17.168 23.98C17.228 23.98 17.278 24.026 17.281 24.086V24.094C17.2807 24.1239 17.2687 24.1525 17.2476 24.1736C17.2265 24.1948 17.1979 24.2068 17.168 24.207C17.1384 24.2062 17.1104 24.194 17.0896 24.1729C17.0689 24.1519 17.0572 24.1236 17.057 24.094C17.057 24.031 17.106 23.981 17.168 23.98ZM17.731 23.98C17.791 23.98 17.841 24.026 17.844 24.086V24.094C17.8437 24.1241 17.8316 24.1528 17.8102 24.174C17.7889 24.1951 17.76 24.207 17.73 24.207C17.7006 24.206 17.6728 24.1937 17.6523 24.1726C17.6318 24.1516 17.6202 24.1234 17.62 24.094C17.619 24.031 17.669 23.981 17.73 23.98H17.731ZM18.293 23.98C18.353 23.98 18.403 24.026 18.406 24.086V24.094C18.4057 24.1239 18.3937 24.1525 18.3726 24.1736C18.3515 24.1948 18.3229 24.2068 18.293 24.207C18.2634 24.2062 18.2354 24.194 18.2146 24.1729C18.1939 24.1519 18.1822 24.1236 18.182 24.094C18.182 24.031 18.231 23.981 18.293 23.98ZM18.856 23.98C18.8826 23.9797 18.9084 23.9891 18.9286 24.0064C18.9488 24.0237 18.9621 24.0477 18.966 24.074V24.094C18.966 24.155 18.916 24.207 18.856 24.207C18.8263 24.2065 18.7979 24.1944 18.777 24.1733C18.7561 24.1522 18.7442 24.1237 18.744 24.094C18.744 24.031 18.794 23.981 18.855 23.98H18.856ZM19.418 23.98C19.478 23.98 19.526 24.027 19.529 24.086V24.094C19.529 24.155 19.479 24.207 19.418 24.207C19.3881 24.2068 19.3595 24.1948 19.3384 24.1736C19.3172 24.1525 19.3052 24.1239 19.305 24.094C19.305 24.031 19.355 23.98 19.418 23.98ZM19.981 23.98C20.04 23.98 20.088 24.027 20.091 24.086V24.094C20.091 24.155 20.041 24.207 19.981 24.207C19.9509 24.207 19.9221 24.1951 19.9007 24.174C19.8794 24.1528 19.8672 24.1241 19.867 24.094C19.867 24.031 19.917 23.98 19.98 23.98H19.981ZM20.543 23.98C20.603 23.98 20.651 24.027 20.654 24.086V24.094C20.654 24.155 20.604 24.207 20.543 24.207C20.5131 24.2068 20.4845 24.1948 20.4634 24.1736C20.4422 24.1525 20.4302 24.1239 20.43 24.094C20.43 24.031 20.48 23.98 20.543 23.98ZM21.106 23.98C21.165 23.98 21.213 24.027 21.216 24.086V24.094C21.216 24.155 21.166 24.207 21.106 24.207C21.0759 24.207 21.0471 24.1951 21.0257 24.174C21.0044 24.1528 20.9922 24.1241 20.992 24.094C20.992 24.031 21.042 23.98 21.105 23.98H21.106ZM21.666 23.98C21.726 23.98 21.776 24.026 21.779 24.086V24.094C21.7787 24.1239 21.7667 24.1525 21.7456 24.1736C21.7245 24.1948 21.6959 24.2068 21.666 24.207C21.6364 24.2062 21.6084 24.194 21.5876 24.1729C21.5669 24.1519 21.5552 24.1236 21.555 24.094C21.555 24.031 21.604 23.981 21.666 23.98ZM22.229 23.98C22.289 23.98 22.339 24.026 22.342 24.086V24.094C22.3417 24.1239 22.3297 24.1525 22.3086 24.1736C22.2875 24.1948 22.2589 24.2068 22.229 24.207C22.1993 24.2065 22.1709 24.1944 22.15 24.1733C22.1291 24.1522 22.1172 24.1237 22.117 24.094C22.117 24.031 22.167 23.981 22.228 23.98H22.229ZM22.791 23.98C22.8192 23.9827 22.8455 23.9958 22.8646 24.0168C22.8837 24.0378 22.8943 24.0651 22.8943 24.0935C22.8943 24.1219 22.8837 24.1493 22.8646 24.1703C22.8455 24.1913 22.8192 24.2044 22.791 24.207C22.7614 24.2062 22.7334 24.194 22.7126 24.1729C22.6919 24.1519 22.6802 24.1236 22.68 24.094C22.68 24.031 22.729 23.981 22.791 23.98ZM23.354 23.98C23.408 23.98 23.457 24.02 23.464 24.074V24.094C23.464 24.155 23.414 24.207 23.354 24.207C23.3243 24.2065 23.2959 24.1944 23.275 24.1733C23.2541 24.1522 23.2422 24.1237 23.242 24.094C23.242 24.031 23.292 23.981 23.353 23.98H23.354ZM23.916 23.98C23.9428 23.9795 23.9688 23.9887 23.9892 24.0061C24.0097 24.0234 24.0231 24.0475 24.027 24.074V24.094C24.027 24.155 23.977 24.207 23.916 24.207C23.8861 24.2068 23.8575 24.1948 23.8364 24.1736C23.8152 24.1525 23.8032 24.1239 23.803 24.094C23.803 24.031 23.853 23.98 23.916 23.98ZM24.479 23.98C24.538 23.98 24.586 24.027 24.589 24.086V24.094C24.589 24.155 24.539 24.207 24.479 24.207C24.4489 24.207 24.4201 24.1951 24.3987 24.174C24.3774 24.1528 24.3652 24.1241 24.365 24.094C24.365 24.031 24.415 23.98 24.479 23.98ZM25.041 23.98C25.101 23.98 25.149 24.027 25.152 24.086V24.094C25.152 24.155 25.102 24.207 25.041 24.207C25.0111 24.2068 24.9825 24.1948 24.9614 24.1736C24.9402 24.1525 24.9282 24.1239 24.928 24.094C24.928 24.031 24.978 23.98 25.041 23.98ZM25.601 23.98C25.661 23.98 25.711 24.026 25.715 24.086V24.094C25.7147 24.1239 25.7027 24.1525 25.6816 24.1736C25.6605 24.1948 25.6319 24.2068 25.602 24.207C25.5723 24.2065 25.5439 24.1944 25.523 24.1733C25.5021 24.1522 25.4902 24.1237 25.49 24.094C25.49 24.031 25.54 23.981 25.602 23.98H25.601ZM26.164 23.98C26.224 23.98 26.274 24.026 26.277 24.086V24.094C26.2767 24.1239 26.2647 24.1525 26.2436 24.1736C26.2225 24.1948 26.1939 24.2068 26.164 24.207C26.1344 24.2062 26.1064 24.194 26.0856 24.1729C26.0649 24.1519 26.0532 24.1236 26.053 24.094C26.053 24.031 26.103 23.981 26.164 23.98ZM26.727 23.98C26.787 23.98 26.837 24.026 26.84 24.086V24.094C26.8397 24.1239 26.8277 24.1525 26.8066 24.1736C26.7855 24.1948 26.7569 24.2068 26.727 24.207C26.6973 24.2065 26.6689 24.1944 26.648 24.1733C26.6271 24.1522 26.6152 24.1237 26.615 24.094C26.615 24.031 26.665 23.981 26.727 23.98ZM27.289 23.98C27.3172 23.9827 27.3435 23.9958 27.3626 24.0168C27.3817 24.0378 27.3923 24.0651 27.3923 24.0935C27.3923 24.1219 27.3817 24.1493 27.3626 24.1703C27.3435 24.1913 27.3172 24.2044 27.289 24.207C27.2594 24.2062 27.2314 24.194 27.2106 24.1729C27.1899 24.1519 27.1782 24.1236 27.178 24.094C27.178 24.031 27.228 23.981 27.289 23.98ZM27.852 23.98C27.8786 23.9797 27.9044 23.9891 27.9246 24.0064C27.9448 24.0237 27.9581 24.0477 27.962 24.074C27.964 24.082 27.964 24.086 27.962 24.094C27.962 24.155 27.912 24.207 27.852 24.207C27.8223 24.2065 27.7939 24.1944 27.773 24.1733C27.7521 24.1522 27.7402 24.1237 27.74 24.094C27.74 24.031 27.79 23.981 27.852 23.98ZM28.414 23.98C28.474 23.98 28.522 24.027 28.525 24.086V24.094C28.525 24.155 28.475 24.207 28.415 24.207C28.3849 24.207 28.3561 24.1951 28.3347 24.174C28.3134 24.1528 28.3012 24.1241 28.301 24.094C28.301 24.031 28.351 23.98 28.414 23.98ZM28.977 23.98C29.036 23.98 29.084 24.027 29.087 24.086V24.094C29.087 24.155 29.037 24.207 28.977 24.207C28.9469 24.207 28.9181 24.1951 28.8967 24.174C28.8754 24.1528 28.8632 24.1241 28.863 24.094C28.863 24.031 28.913 23.98 28.977 23.98ZM29.539 23.98C29.599 23.98 29.647 24.027 29.65 24.086V24.094C29.65 24.155 29.6 24.207 29.54 24.207C29.5099 24.207 29.4811 24.1951 29.4597 24.174C29.4384 24.1528 29.4262 24.1241 29.426 24.094C29.426 24.031 29.476 23.98 29.539 23.98ZM30.099 23.98C30.159 23.98 30.209 24.026 30.213 24.086V24.094C30.2127 24.1239 30.2007 24.1525 30.1796 24.1736C30.1585 24.1948 30.1299 24.2068 30.1 24.207C30.0703 24.2065 30.0419 24.1944 30.021 24.1733C30.0001 24.1522 29.9882 24.1237 29.988 24.094C29.988 24.031 30.038 23.981 30.1 23.98H30.099ZM30.662 23.98C30.722 23.98 30.772 24.026 30.775 24.086V24.094C30.7747 24.1239 30.7627 24.1525 30.7416 24.1736C30.7205 24.1948 30.6919 24.2068 30.662 24.207C30.6324 24.2062 30.6044 24.194 30.5836 24.1729C30.5629 24.1519 30.5512 24.1236 30.551 24.094C30.551 24.031 30.601 23.981 30.662 23.98ZM31.225 23.98C31.285 23.98 31.335 24.026 31.338 24.086V24.094C31.3377 24.1239 31.3257 24.1525 31.3046 24.1736C31.2835 24.1948 31.2549 24.2068 31.225 24.207C31.1953 24.2065 31.1669 24.1944 31.146 24.1733C31.1251 24.1522 31.1132 24.1237 31.113 24.094C31.113 24.031 31.163 23.981 31.225 23.98ZM31.787 23.98C31.8138 23.9795 31.8398 23.9887 31.8602 24.0061C31.8807 24.0234 31.8941 24.0475 31.898 24.074V24.094C31.898 24.155 31.848 24.207 31.788 24.207C31.7583 24.2065 31.7299 24.1944 31.709 24.1733C31.6881 24.1522 31.6762 24.1237 31.676 24.094C31.675 24.031 31.726 23.981 31.787 23.98ZM32.35 23.98C32.3766 23.9797 32.4024 23.9891 32.4226 24.0064C32.4428 24.0237 32.4561 24.0477 32.46 24.074C32.462 24.082 32.462 24.086 32.46 24.094C32.46 24.155 32.41 24.207 32.35 24.207C32.3199 24.207 32.2911 24.1951 32.2697 24.174C32.2484 24.1528 32.2362 24.1241 32.236 24.094C32.236 24.031 32.286 23.98 32.35 23.98ZM32.912 23.98C32.972 23.98 33.02 24.027 33.023 24.086V24.094C33.023 24.155 32.973 24.207 32.913 24.207C32.8829 24.207 32.8541 24.1951 32.8327 24.174C32.8114 24.1528 32.7992 24.1241 32.799 24.094C32.799 24.031 32.849 23.98 32.912 23.98ZM33.475 23.98C33.534 23.98 33.582 24.027 33.585 24.086V24.094C33.585 24.155 33.535 24.207 33.475 24.207C33.4449 24.207 33.4161 24.1951 33.3947 24.174C33.3734 24.1528 33.3612 24.1241 33.361 24.094C33.361 24.031 33.411 23.98 33.475 23.98ZM34.037 23.98C34.097 23.98 34.145 24.027 34.148 24.086V24.094C34.148 24.155 34.098 24.207 34.038 24.207C34.0079 24.207 33.9791 24.1951 33.9577 24.174C33.9364 24.1528 33.9242 24.1241 33.924 24.094C33.924 24.031 33.974 23.98 34.037 23.98ZM34.597 23.98C34.657 23.98 34.707 24.026 34.711 24.086V24.094C34.7107 24.1239 34.6987 24.1525 34.6776 24.1736C34.6565 24.1948 34.6279 24.2068 34.598 24.207C34.5683 24.2065 34.5399 24.1944 34.519 24.1733C34.4981 24.1522 34.4862 24.1237 34.486 24.094C34.486 24.031 34.536 23.981 34.598 23.98H34.597ZM15.14 26.81C15.5643 26.81 15.9713 26.9786 16.2713 27.2786C16.5714 27.5787 16.74 27.9857 16.74 28.41C16.74 28.8344 16.5714 29.2413 16.2713 29.5414C15.9713 29.8414 15.5643 30.01 15.14 30.01C14.7156 30.01 14.3087 29.8414 14.0086 29.5414C13.7085 29.2413 13.54 28.8344 13.54 28.41C13.54 27.9857 13.7085 27.5787 14.0086 27.2786C14.3087 26.9786 14.7156 26.81 15.14 26.81ZM18.763 26.81C19.1873 26.81 19.5943 26.9786 19.8943 27.2786C20.1944 27.5787 20.363 27.9857 20.363 28.41C20.363 28.8344 20.1944 29.2413 19.8943 29.5414C19.5943 29.8414 19.1873 30.01 18.763 30.01C18.3386 30.01 17.9317 29.8414 17.6316 29.5414C17.3315 29.2413 17.163 28.8344 17.163 28.41C17.163 27.9857 17.3315 27.5787 17.6316 27.2786C17.9317 26.9786 18.3386 26.81 18.763 26.81ZM22.388 26.81C22.8123 26.81 23.2193 26.9786 23.5193 27.2786C23.8194 27.5787 23.988 27.9857 23.988 28.41C23.988 28.8344 23.8194 29.2413 23.5193 29.5414C23.2193 29.8414 22.8123 30.01 22.388 30.01C21.9636 30.01 21.5567 29.8414 21.2566 29.5414C20.9565 29.2413 20.788 28.8344 20.788 28.41C20.788 27.9857 20.9565 27.5787 21.2566 27.2786C21.5567 26.9786 21.9636 26.81 22.388 26.81ZM26.011 26.81C26.4353 26.81 26.8423 26.9786 27.1423 27.2786C27.4424 27.5787 27.611 27.9857 27.611 28.41C27.611 28.8344 27.4424 29.2413 27.1423 29.5414C26.8423 29.8414 26.4353 30.01 26.011 30.01C25.5866 30.01 25.1797 29.8414 24.8796 29.5414C24.5795 29.2413 24.411 28.8344 24.411 28.41C24.411 27.9857 24.5795 27.5787 24.8796 27.2786C25.1797 26.9786 25.5866 26.81 26.011 26.81ZM29.634 26.81C30.0583 26.81 30.4653 26.9786 30.7653 27.2786C31.0654 27.5787 31.234 27.9857 31.234 28.41C31.234 28.8344 31.0654 29.2413 30.7653 29.5414C30.4653 29.8414 30.0583 30.01 29.634 30.01C29.2096 30.01 28.8027 29.8414 28.5026 29.5414C28.2025 29.2413 28.034 28.8344 28.034 28.41C28.034 27.9857 28.2025 27.5787 28.5026 27.2786C28.8027 26.9786 29.2096 26.81 29.634 26.81ZM33.259 26.81C33.6833 26.81 34.0903 26.9786 34.3903 27.2786C34.6904 27.5787 34.859 27.9857 34.859 28.41C34.859 28.8344 34.6904 29.2413 34.3903 29.5414C34.0903 29.8414 33.6833 30.01 33.259 30.01C32.8346 30.01 32.4277 29.8414 32.1276 29.5414C31.8275 29.2413 31.659 28.8344 31.659 28.41C31.659 27.9857 31.8275 27.5787 32.1276 27.2786C32.4277 26.9786 32.8346 26.81 33.259 26.81ZM13.796 32.98C13.8242 32.9827 13.8505 32.9958 13.8696 33.0168C13.8887 33.0378 13.8993 33.0651 13.8993 33.0935C13.8993 33.1219 13.8887 33.1493 13.8696 33.1703C13.8505 33.1913 13.8242 33.2044 13.796 33.207C13.7664 33.2062 13.7384 33.194 13.7176 33.1729C13.6969 33.1519 13.6852 33.1236 13.685 33.094C13.685 33.031 13.734 32.981 13.795 32.98H13.796ZM14.358 32.98C14.3849 32.9792 14.4112 32.9884 14.4319 33.0057C14.4525 33.023 14.4661 33.0473 14.47 33.074V33.094C14.469 33.155 14.42 33.207 14.358 33.207C14.3282 33.2065 14.2997 33.1944 14.2786 33.1734C14.2576 33.1523 14.2455 33.1238 14.245 33.094C14.245 33.031 14.296 32.981 14.358 32.98ZM14.921 32.98C14.9477 32.9795 14.9738 32.9887 14.9942 33.0061C15.0147 33.0234 15.0281 33.0475 15.032 33.074V33.094C15.032 33.155 14.982 33.207 14.921 33.207C14.8911 33.2068 14.8625 33.1948 14.8414 33.1736C14.8202 33.1525 14.8082 33.1239 14.808 33.094C14.808 33.031 14.858 32.98 14.921 32.98ZM15.483 32.98C15.543 32.98 15.591 33.027 15.595 33.086V33.094C15.594 33.155 15.545 33.207 15.483 33.207C15.4531 33.2068 15.4245 33.1948 15.4034 33.1736C15.3822 33.1525 15.3702 33.1239 15.37 33.094C15.37 33.031 15.42 32.98 15.483 32.98ZM16.046 32.98C16.106 32.98 16.154 33.027 16.157 33.086V33.094C16.157 33.155 16.107 33.207 16.046 33.207C16.0161 33.2068 15.9875 33.1948 15.9664 33.1736C15.9452 33.1525 15.9332 33.1239 15.933 33.094C15.933 33.031 15.983 32.98 16.046 32.98ZM16.608 32.98C16.668 32.98 16.716 33.027 16.72 33.086V33.094C16.719 33.155 16.67 33.207 16.608 33.207C16.5781 33.2068 16.5495 33.1948 16.5284 33.1736C16.5072 33.1525 16.4952 33.1239 16.495 33.094C16.495 33.031 16.545 32.98 16.608 32.98ZM17.169 32.98C17.229 32.98 17.279 33.026 17.282 33.086V33.094C17.2817 33.1239 17.2697 33.1525 17.2486 33.1736C17.2275 33.1948 17.1989 33.2068 17.169 33.207C17.1394 33.2062 17.1114 33.194 17.0906 33.1729C17.0699 33.1519 17.0582 33.1236 17.058 33.094C17.058 33.031 17.107 32.981 17.169 32.98ZM17.732 32.98C17.792 32.98 17.842 33.026 17.845 33.086V33.094C17.8447 33.1241 17.8326 33.1528 17.8112 33.174C17.7899 33.1951 17.761 33.207 17.731 33.207C17.7016 33.206 17.6738 33.1937 17.6533 33.1726C17.6328 33.1516 17.6212 33.1234 17.621 33.094C17.62 33.031 17.67 32.981 17.731 32.98H17.732ZM18.294 32.98C18.354 32.98 18.404 33.026 18.407 33.086V33.094C18.4067 33.1239 18.3947 33.1525 18.3736 33.1736C18.3525 33.1948 18.3239 33.2068 18.294 33.207C18.2644 33.2062 18.2364 33.194 18.2156 33.1729C18.1949 33.1519 18.1832 33.1236 18.183 33.094C18.183 33.031 18.232 32.981 18.294 32.98ZM18.857 32.98C18.8836 32.9797 18.9094 32.9891 18.9296 33.0064C18.9498 33.0237 18.9631 33.0477 18.967 33.074V33.094C18.967 33.155 18.917 33.207 18.857 33.207C18.8273 33.2065 18.7989 33.1944 18.778 33.1733C18.7571 33.1522 18.7452 33.1237 18.745 33.094C18.745 33.031 18.795 32.981 18.856 32.98H18.857ZM19.419 32.98C19.479 32.98 19.527 33.027 19.53 33.086V33.094C19.53 33.155 19.48 33.207 19.419 33.207C19.3891 33.2068 19.3605 33.1948 19.3394 33.1736C19.3182 33.1525 19.3062 33.1239 19.306 33.094C19.306 33.031 19.356 32.98 19.419 32.98ZM19.982 32.98C20.041 32.98 20.089 33.027 20.092 33.086V33.094C20.092 33.155 20.042 33.207 19.982 33.207C19.9519 33.207 19.9231 33.1951 19.9017 33.174C19.8804 33.1528 19.8682 33.1241 19.868 33.094C19.868 33.031 19.918 32.98 19.981 32.98H19.982ZM20.544 32.98C20.604 32.98 20.652 33.027 20.655 33.086V33.094C20.655 33.155 20.605 33.207 20.544 33.207C20.5141 33.2068 20.4855 33.1948 20.4644 33.1736C20.4432 33.1525 20.4312 33.1239 20.431 33.094C20.431 33.031 20.481 32.98 20.544 32.98ZM21.107 32.98C21.166 32.98 21.214 33.027 21.217 33.086V33.094C21.217 33.155 21.167 33.207 21.107 33.207C21.0769 33.207 21.0481 33.1951 21.0267 33.174C21.0054 33.1528 20.9932 33.1241 20.993 33.094C20.993 33.031 21.043 32.98 21.106 32.98H21.107ZM21.667 32.98C21.727 32.98 21.777 33.026 21.78 33.086V33.094C21.7797 33.1239 21.7677 33.1525 21.7466 33.1736C21.7255 33.1948 21.6969 33.2068 21.667 33.207C21.6374 33.2062 21.6094 33.194 21.5886 33.1729C21.5679 33.1519 21.5562 33.1236 21.556 33.094C21.556 33.031 21.605 32.981 21.667 32.98ZM22.23 32.98C22.29 32.98 22.34 33.026 22.343 33.086V33.094C22.3427 33.1239 22.3307 33.1525 22.3096 33.1736C22.2885 33.1948 22.2599 33.2068 22.23 33.207C22.2003 33.2065 22.1719 33.1944 22.151 33.1733C22.1301 33.1522 22.1182 33.1237 22.118 33.094C22.118 33.031 22.168 32.981 22.229 32.98H22.23ZM22.792 32.98C22.8202 32.9827 22.8465 32.9958 22.8656 33.0168C22.8847 33.0378 22.8953 33.0651 22.8953 33.0935C22.8953 33.1219 22.8847 33.1493 22.8656 33.1703C22.8465 33.1913 22.8202 33.2044 22.792 33.207C22.7624 33.2062 22.7344 33.194 22.7136 33.1729C22.6929 33.1519 22.6812 33.1236 22.681 33.094C22.681 33.031 22.73 32.981 22.792 32.98ZM23.355 32.98C23.409 32.98 23.458 33.02 23.465 33.074V33.094C23.465 33.155 23.415 33.207 23.355 33.207C23.3253 33.2065 23.2969 33.1944 23.276 33.1733C23.2551 33.1522 23.2432 33.1237 23.243 33.094C23.243 33.031 23.293 32.981 23.354 32.98H23.355ZM23.917 32.98C23.9438 32.9795 23.9698 32.9887 23.9902 33.0061C24.0107 33.0234 24.0241 33.0475 24.028 33.074V33.094C24.028 33.155 23.978 33.207 23.917 33.207C23.8871 33.2068 23.8585 33.1948 23.8374 33.1736C23.8162 33.1525 23.8042 33.1239 23.804 33.094C23.804 33.031 23.854 32.98 23.917 32.98ZM24.48 32.98C24.539 32.98 24.587 33.027 24.59 33.086V33.094C24.59 33.155 24.54 33.207 24.48 33.207C24.4499 33.207 24.4211 33.1951 24.3997 33.174C24.3784 33.1528 24.3662 33.1241 24.366 33.094C24.366 33.031 24.416 32.98 24.48 32.98ZM25.042 32.98C25.102 32.98 25.15 33.027 25.153 33.086V33.094C25.153 33.155 25.103 33.207 25.042 33.207C25.0121 33.2068 24.9835 33.1948 24.9624 33.1736C24.9412 33.1525 24.9292 33.1239 24.929 33.094C24.929 33.031 24.979 32.98 25.042 32.98ZM25.602 32.98C25.662 32.98 25.712 33.026 25.716 33.086V33.094C25.7157 33.1239 25.7037 33.1525 25.6826 33.1736C25.6615 33.1948 25.6329 33.2068 25.603 33.207C25.5733 33.2065 25.5449 33.1944 25.524 33.1733C25.5031 33.1522 25.4912 33.1237 25.491 33.094C25.491 33.031 25.541 32.981 25.603 32.98H25.602ZM26.165 32.98C26.225 32.98 26.275 33.026 26.278 33.086V33.094C26.2777 33.1239 26.2657 33.1525 26.2446 33.1736C26.2235 33.1948 26.1949 33.2068 26.165 33.207C26.1354 33.2062 26.1074 33.194 26.0866 33.1729C26.0659 33.1519 26.0542 33.1236 26.054 33.094C26.054 33.031 26.104 32.981 26.165 32.98ZM26.728 32.98C26.788 32.98 26.838 33.026 26.841 33.086V33.094C26.8407 33.1239 26.8287 33.1525 26.8076 33.1736C26.7865 33.1948 26.7579 33.2068 26.728 33.207C26.6983 33.2065 26.6699 33.1944 26.649 33.1733C26.6281 33.1522 26.6162 33.1237 26.616 33.094C26.616 33.031 26.666 32.981 26.728 32.98ZM27.29 32.98C27.3182 32.9827 27.3445 32.9958 27.3636 33.0168C27.3827 33.0378 27.3933 33.0651 27.3933 33.0935C27.3933 33.1219 27.3827 33.1493 27.3636 33.1703C27.3445 33.1913 27.3182 33.2044 27.29 33.207C27.2604 33.2062 27.2324 33.194 27.2116 33.1729C27.1909 33.1519 27.1792 33.1236 27.179 33.094C27.179 33.031 27.229 32.981 27.29 32.98ZM27.853 32.98C27.8796 32.9797 27.9054 32.9891 27.9256 33.0064C27.9458 33.0237 27.9591 33.0477 27.963 33.074C27.965 33.082 27.965 33.086 27.963 33.094C27.963 33.155 27.913 33.207 27.853 33.207C27.8233 33.2065 27.7949 33.1944 27.774 33.1733C27.7531 33.1522 27.7412 33.1237 27.741 33.094C27.741 33.031 27.791 32.981 27.853 32.98ZM28.415 32.98C28.475 32.98 28.523 33.027 28.526 33.086V33.094C28.526 33.155 28.476 33.207 28.416 33.207C28.3859 33.207 28.3571 33.1951 28.3357 33.174C28.3144 33.1528 28.3022 33.1241 28.302 33.094C28.302 33.031 28.352 32.98 28.415 32.98ZM28.978 32.98C29.037 32.98 29.085 33.027 29.088 33.086V33.094C29.088 33.155 29.038 33.207 28.978 33.207C28.9479 33.207 28.9191 33.1951 28.8977 33.174C28.8764 33.1528 28.8642 33.1241 28.864 33.094C28.864 33.031 28.914 32.98 28.978 32.98ZM29.54 32.98C29.6 32.98 29.648 33.027 29.651 33.086V33.094C29.651 33.155 29.601 33.207 29.541 33.207C29.5109 33.207 29.4821 33.1951 29.4607 33.174C29.4394 33.1528 29.4272 33.1241 29.427 33.094C29.427 33.031 29.477 32.98 29.54 32.98ZM30.1 32.98C30.16 32.98 30.21 33.026 30.214 33.086V33.094C30.2137 33.1239 30.2017 33.1525 30.1806 33.1736C30.1595 33.1948 30.1309 33.2068 30.101 33.207C30.0713 33.2065 30.0429 33.1944 30.022 33.1733C30.0011 33.1522 29.9892 33.1237 29.989 33.094C29.989 33.031 30.039 32.981 30.101 32.98H30.1ZM30.663 32.98C30.723 32.98 30.773 33.026 30.776 33.086V33.094C30.7757 33.1239 30.7637 33.1525 30.7426 33.1736C30.7215 33.1948 30.6929 33.2068 30.663 33.207C30.6334 33.2062 30.6054 33.194 30.5846 33.1729C30.5639 33.1519 30.5522 33.1236 30.552 33.094C30.552 33.031 30.602 32.981 30.663 32.98ZM31.226 32.98C31.286 32.98 31.336 33.026 31.339 33.086V33.094C31.3387 33.1239 31.3267 33.1525 31.3056 33.1736C31.2845 33.1948 31.2559 33.2068 31.226 33.207C31.1963 33.2065 31.1679 33.1944 31.147 33.1733C31.1261 33.1522 31.1142 33.1237 31.114 33.094C31.114 33.031 31.164 32.981 31.226 32.98ZM31.788 32.98C31.8148 32.9795 31.8408 32.9887 31.8612 33.0061C31.8817 33.0234 31.8951 33.0475 31.899 33.074V33.094C31.899 33.155 31.849 33.207 31.789 33.207C31.7593 33.2065 31.7309 33.1944 31.71 33.1733C31.6891 33.1522 31.6772 33.1237 31.677 33.094C31.676 33.031 31.727 32.981 31.788 32.98ZM32.351 32.98C32.3776 32.9797 32.4034 32.9891 32.4236 33.0064C32.4438 33.0237 32.4571 33.0477 32.461 33.074C32.463 33.082 32.463 33.086 32.461 33.094C32.461 33.155 32.411 33.207 32.351 33.207C32.3209 33.207 32.2921 33.1951 32.2707 33.174C32.2494 33.1528 32.2372 33.1241 32.237 33.094C32.237 33.031 32.287 32.98 32.351 32.98ZM32.913 32.98C32.973 32.98 33.021 33.027 33.024 33.086V33.094C33.024 33.155 32.974 33.207 32.914 33.207C32.8839 33.207 32.8551 33.1951 32.8337 33.174C32.8124 33.1528 32.8002 33.1241 32.8 33.094C32.8 33.031 32.85 32.98 32.913 32.98ZM33.476 32.98C33.535 32.98 33.583 33.027 33.586 33.086V33.094C33.586 33.155 33.536 33.207 33.476 33.207C33.4459 33.207 33.4171 33.1951 33.3957 33.174C33.3744 33.1528 33.3622 33.1241 33.362 33.094C33.362 33.031 33.412 32.98 33.476 32.98ZM34.038 32.98C34.098 32.98 34.146 33.027 34.149 33.086V33.094C34.149 33.155 34.099 33.207 34.039 33.207C34.0089 33.207 33.9801 33.1951 33.9587 33.174C33.9374 33.1528 33.9252 33.1241 33.925 33.094C33.925 33.031 33.975 32.98 34.038 32.98ZM34.598 32.98C34.658 32.98 34.708 33.026 34.712 33.086V33.094C34.7117 33.1239 34.6997 33.1525 34.6786 33.1736C34.6575 33.1948 34.6289 33.2068 34.599 33.207C34.5693 33.2065 34.5409 33.1944 34.52 33.1733C34.4991 33.1522 34.4872 33.1237 34.487 33.094C34.487 33.031 34.537 32.981 34.599 32.98H34.598ZM15.158 35.44C15.3714 35.4347 15.5837 35.4721 15.7824 35.5501C15.9812 35.6281 16.1623 35.745 16.3151 35.8941C16.4679 36.0431 16.5894 36.2213 16.6723 36.418C16.7553 36.6147 16.798 36.826 16.798 37.0395C16.798 37.253 16.7553 37.4643 16.6723 37.661C16.5894 37.8578 16.4679 38.0359 16.3151 38.1849C16.1623 38.334 15.9812 38.451 15.7824 38.5289C15.5837 38.6069 15.3714 38.6444 15.158 38.639C14.7336 38.639 14.3267 38.4704 14.0266 38.1704C13.7265 37.8703 13.558 37.4634 13.558 37.039C13.558 36.6147 13.7265 36.2077 14.0266 35.9076C14.3267 35.6076 14.7336 35.439 15.158 35.439V35.44ZM18.78 35.44C18.9947 35.4324 19.2088 35.4682 19.4094 35.5451C19.6101 35.622 19.7931 35.7386 19.9477 35.8878C20.1023 36.0371 20.2253 36.2159 20.3093 36.4137C20.3933 36.6115 20.4365 36.8241 20.4365 37.039C20.4365 37.2539 20.3933 37.4666 20.3093 37.6644C20.2253 37.8621 20.1023 38.041 19.9477 38.1902C19.7931 38.3394 19.6101 38.456 19.4094 38.5329C19.2088 38.6099 18.9947 38.6456 18.78 38.638C18.3627 38.6276 17.966 38.4545 17.6745 38.1557C17.3831 37.8568 17.22 37.4559 17.22 37.0385C17.22 36.6211 17.3831 36.2202 17.6745 35.9214C17.966 35.6226 18.3627 35.4495 18.78 35.439V35.44ZM22.405 35.44C22.6197 35.4324 22.8338 35.4682 23.0344 35.5451C23.2351 35.622 23.4181 35.7386 23.5727 35.8878C23.7273 36.0371 23.8503 36.2159 23.9343 36.4137C24.0183 36.6115 24.0615 36.8241 24.0615 37.039C24.0615 37.2539 24.0183 37.4666 23.9343 37.6644C23.8503 37.8621 23.7273 38.041 23.5727 38.1902C23.4181 38.3394 23.2351 38.456 23.0344 38.5329C22.8338 38.6099 22.6197 38.6456 22.405 38.638C21.9877 38.6276 21.591 38.4545 21.2995 38.1557C21.0081 37.8568 20.845 37.4559 20.845 37.0385C20.845 36.6211 21.0081 36.2202 21.2995 35.9214C21.591 35.6226 21.9877 35.4495 22.405 35.439V35.44ZM26.028 35.44C26.2414 35.4347 26.4537 35.4721 26.6524 35.5501C26.8512 35.6281 27.0323 35.745 27.1851 35.8941C27.3379 36.0431 27.4594 36.2213 27.5423 36.418C27.6253 36.6147 27.668 36.826 27.668 37.0395C27.668 37.253 27.6253 37.4643 27.5423 37.661C27.4594 37.8578 27.3379 38.0359 27.1851 38.1849C27.0323 38.334 26.8512 38.451 26.6524 38.5289C26.4537 38.6069 26.2414 38.6444 26.028 38.639C25.6036 38.639 25.1967 38.4704 24.8966 38.1704C24.5965 37.8703 24.428 37.4634 24.428 37.039C24.428 36.6147 24.5965 36.2077 24.8966 35.9076C25.1967 35.6076 25.6036 35.439 26.028 35.439V35.44ZM29.651 35.44C29.8657 35.4324 30.0798 35.4682 30.2804 35.5451C30.4811 35.622 30.6641 35.7386 30.8187 35.8878C30.9733 36.0371 31.0963 36.2159 31.1803 36.4137C31.2643 36.6115 31.3075 36.8241 31.3075 37.039C31.3075 37.2539 31.2643 37.4666 31.1803 37.6644C31.0963 37.8621 30.9733 38.041 30.8187 38.1902C30.6641 38.3394 30.4811 38.456 30.2804 38.5329C30.0798 38.6099 29.8657 38.6456 29.651 38.638C29.2337 38.6276 28.837 38.4545 28.5455 38.1557C28.2541 37.8568 28.091 37.4559 28.091 37.0385C28.091 36.6211 28.2541 36.2202 28.5455 35.9214C28.837 35.6226 29.2337 35.4495 29.651 35.439V35.44ZM33.276 35.44C33.4907 35.4324 33.7048 35.4682 33.9054 35.5451C34.1061 35.622 34.2891 35.7386 34.4437 35.8878C34.5983 36.0371 34.7213 36.2159 34.8053 36.4137C34.8893 36.6115 34.9325 36.8241 34.9325 37.039C34.9325 37.2539 34.8893 37.4666 34.8053 37.6644C34.7213 37.8621 34.5983 38.041 34.4437 38.1902C34.2891 38.3394 34.1061 38.456 33.9054 38.5329C33.7048 38.6099 33.4907 38.6456 33.276 38.638C32.8587 38.6276 32.462 38.4545 32.1706 38.1557C31.8791 37.8568 31.716 37.4559 31.716 37.0385C31.716 36.6211 31.8791 36.2202 32.1706 35.9214C32.462 35.6226 32.8587 35.4495 33.276 35.439V35.44Z" fill="#333333"/>
</svg>
