<svg width="48" height="48" viewBox="0 0 48 48" fill="none" xmlns="http://www.w3.org/2000/svg">
<path d="M23.717 4.13692C20.426 4.14392 17.193 4.15892 14.037 4.15792C13.8312 4.15779 13.6273 4.19827 13.4371 4.27705C13.2469 4.35583 13.0741 4.47135 12.9287 4.61701C12.7832 4.76266 12.6679 4.93558 12.5894 5.12587C12.5108 5.31616 12.4706 5.52007 12.471 5.72592V42.5879C12.471 43.4579 13.168 44.1579 14.037 44.1579H33.742C34.612 44.1579 35.311 43.4579 35.311 42.5879V5.72692C35.311 4.85692 34.611 4.15792 33.742 4.15792C30.4004 4.13285 27.0587 4.12585 23.717 4.13692ZM19.883 5.19892H19.891C19.9204 5.19997 19.9481 5.2125 19.9683 5.2338C19.9885 5.25511 19.9995 5.2835 19.999 5.31285C19.9985 5.3422 19.9864 5.37018 19.9655 5.39075C19.9446 5.41132 19.9164 5.42285 19.887 5.42285C19.8577 5.42285 19.8295 5.41132 19.8085 5.39075C19.7876 5.37018 19.7756 5.3422 19.775 5.31285C19.7745 5.2835 19.7855 5.25511 19.8057 5.2338C19.8259 5.2125 19.8537 5.19997 19.883 5.19892ZM27.883 5.19892H27.891C27.9204 5.19997 27.9481 5.2125 27.9683 5.2338C27.9885 5.25511 27.9995 5.2835 27.999 5.31285C27.9985 5.3422 27.9864 5.37018 27.9655 5.39075C27.9446 5.41132 27.9164 5.42285 27.887 5.42285C27.8577 5.42285 27.8295 5.41132 27.8085 5.39075C27.7876 5.37018 27.7756 5.3422 27.775 5.31285C27.7745 5.2835 27.7855 5.25511 27.8057 5.2338C27.8259 5.2125 27.8537 5.19997 27.883 5.19892ZM19.883 5.76192H19.891C19.9204 5.76297 19.9481 5.7755 19.9683 5.7968C19.9885 5.81811 19.9995 5.8465 19.999 5.87585C19.9985 5.9052 19.9864 5.93318 19.9655 5.95375C19.9446 5.97432 19.9164 5.98585 19.887 5.98585C19.8577 5.98585 19.8295 5.97432 19.8085 5.95375C19.7876 5.93318 19.7756 5.9052 19.775 5.87585C19.7745 5.8465 19.7855 5.81811 19.8057 5.7968C19.8259 5.7755 19.8537 5.76297 19.883 5.76192ZM27.883 5.76192H27.891C27.9204 5.76297 27.9481 5.7755 27.9683 5.7968C27.9885 5.81811 27.9995 5.8465 27.999 5.87585C27.9985 5.9052 27.9864 5.93318 27.9655 5.95375C27.9446 5.97432 27.9164 5.98585 27.887 5.98585C27.8577 5.98585 27.8295 5.97432 27.8085 5.95375C27.7876 5.93318 27.7756 5.9052 27.775 5.87585C27.7745 5.8465 27.7855 5.81811 27.8057 5.7968C27.8259 5.7755 27.8537 5.76297 27.883 5.76192ZM19.873 6.32392H19.891C19.951 6.32492 20.001 6.37392 20.002 6.43592C20.002 6.46576 19.9902 6.49437 19.9691 6.51547C19.948 6.53657 19.9193 6.54842 19.8895 6.54842C19.8597 6.54842 19.8311 6.53657 19.81 6.51547C19.7889 6.49437 19.777 6.46576 19.777 6.43592C19.777 6.38092 19.819 6.33192 19.873 6.32392ZM27.873 6.32392H27.891C27.951 6.32492 28.001 6.37392 28.002 6.43592C28.002 6.46576 27.9902 6.49437 27.9691 6.51547C27.948 6.53657 27.9193 6.54842 27.8895 6.54842C27.8597 6.54842 27.8311 6.53657 27.81 6.51547C27.7889 6.49437 27.777 6.46576 27.777 6.43592C27.777 6.38092 27.819 6.33192 27.873 6.32392ZM24.109 6.61892C24.5334 6.61892 24.9403 6.78749 25.2404 7.08755C25.5404 7.38761 25.709 7.79458 25.709 8.21892C25.709 8.64327 25.5404 9.05023 25.2404 9.35029C24.9403 9.65035 24.5334 9.81892 24.109 9.81892C23.6847 9.81892 23.2777 9.65035 22.9776 9.35029C22.6776 9.05023 22.509 8.64327 22.509 8.21892C22.509 7.79458 22.6776 7.38761 22.9776 7.08755C23.2777 6.78749 23.6847 6.61892 24.109 6.61892ZM19.893 6.88492C19.9077 6.88505 19.9223 6.88808 19.9358 6.89383C19.9493 6.89958 19.9616 6.90794 19.9719 6.91843C19.9822 6.92893 19.9904 6.94135 19.9959 6.95499C20.0014 6.96862 20.0041 6.98321 20.004 6.99792C20.0039 7.01263 20.0009 7.02717 19.9951 7.04071C19.9894 7.05424 19.981 7.06652 19.9705 7.07682C19.96 7.08713 19.9476 7.09527 19.9339 7.10078C19.9203 7.10629 19.9057 7.10905 19.891 7.10892C19.8613 7.10866 19.8329 7.0966 19.8121 7.07541C19.7913 7.05422 19.7797 7.02563 19.78 6.99592C19.7803 6.96622 19.7923 6.93784 19.8135 6.91702C19.8347 6.8962 19.8633 6.88466 19.893 6.88492ZM27.893 6.88492C27.9077 6.88505 27.9223 6.88808 27.9358 6.89383C27.9493 6.89958 27.9616 6.90794 27.9719 6.91843C27.9822 6.92893 27.9904 6.94135 27.9959 6.95499C28.0014 6.96862 28.0041 6.98321 28.004 6.99792C28.0039 7.01263 28.0009 7.02717 27.9951 7.04071C27.9894 7.05424 27.981 7.06652 27.9705 7.07682C27.96 7.08713 27.9476 7.09527 27.9339 7.10078C27.9203 7.10629 27.9057 7.10905 27.891 7.10892C27.8613 7.10866 27.8329 7.0966 27.8121 7.07541C27.7913 7.05422 27.7797 7.02563 27.78 6.99592C27.7803 6.96622 27.7923 6.93784 27.8135 6.91702C27.8347 6.8962 27.8633 6.88466 27.893 6.88492ZM19.883 7.44792H19.891C19.9206 7.44897 19.9486 7.4616 19.969 7.4831C19.9894 7.50459 20.0005 7.53323 20 7.56285C19.9995 7.59247 19.9873 7.6207 19.9662 7.64146C19.9451 7.66222 19.9166 7.67385 19.887 7.67385C19.8574 7.67385 19.829 7.66222 19.8078 7.64146C19.7867 7.6207 19.7746 7.59247 19.774 7.56285C19.7735 7.53323 19.7846 7.50459 19.805 7.4831C19.8254 7.4616 19.8534 7.44897 19.883 7.44792ZM27.883 7.44792H27.891C27.9206 7.44897 27.9486 7.4616 27.969 7.4831C27.9894 7.50459 28.0005 7.53323 28 7.56285C27.9995 7.59247 27.9873 7.6207 27.9662 7.64146C27.9451 7.66222 27.9166 7.67385 27.887 7.67385C27.8574 7.67385 27.829 7.66222 27.8078 7.64146C27.7867 7.6207 27.7746 7.59247 27.774 7.56285C27.7735 7.53323 27.7846 7.50459 27.805 7.4831C27.8254 7.4616 27.8534 7.44897 27.883 7.44792ZM19.883 8.00792H19.891C19.9206 8.00897 19.9486 8.0216 19.969 8.0431C19.9894 8.06459 20.0005 8.09323 20 8.12285C19.9995 8.15247 19.9873 8.1807 19.9662 8.20146C19.9451 8.22222 19.9166 8.23385 19.887 8.23385C19.8574 8.23385 19.829 8.22222 19.8078 8.20146C19.7867 8.1807 19.7746 8.15247 19.774 8.12285C19.7735 8.09323 19.7846 8.06459 19.805 8.0431C19.8254 8.0216 19.8534 8.00897 19.883 8.00792ZM27.883 8.00792H27.891C27.9206 8.00897 27.9486 8.0216 27.969 8.0431C27.9894 8.06459 28.0005 8.09323 28 8.12285C27.9995 8.15247 27.9873 8.1807 27.9662 8.20146C27.9451 8.22222 27.9166 8.23385 27.887 8.23385C27.8574 8.23385 27.829 8.22222 27.8078 8.20146C27.7867 8.1807 27.7746 8.15247 27.774 8.12285C27.7735 8.09323 27.7846 8.06459 27.805 8.0431C27.8254 8.0216 27.8534 8.00897 27.883 8.00792ZM19.883 8.57092H19.891C19.9206 8.57197 19.9486 8.5846 19.969 8.6061C19.9894 8.62759 20.0005 8.65623 20 8.68585C19.9995 8.71547 19.9873 8.7437 19.9662 8.76446C19.9451 8.78522 19.9166 8.79685 19.887 8.79685C19.8574 8.79685 19.829 8.78522 19.8078 8.76446C19.7867 8.7437 19.7746 8.71547 19.774 8.68585C19.7735 8.65623 19.7846 8.62759 19.805 8.6061C19.8254 8.5846 19.8534 8.57197 19.883 8.57092ZM27.883 8.57092H27.891C27.9206 8.57197 27.9486 8.5846 27.969 8.6061C27.9894 8.62759 28.0005 8.65623 28 8.68585C27.9995 8.71547 27.9873 8.7437 27.9662 8.76446C27.9451 8.78522 27.9166 8.79685 27.887 8.79685C27.8574 8.79685 27.829 8.78522 27.8078 8.76446C27.7867 8.7437 27.7746 8.71547 27.774 8.68585C27.7735 8.65623 27.7846 8.62759 27.805 8.6061C27.8254 8.5846 27.8534 8.57197 27.883 8.57092ZM19.883 9.13292H19.891C19.9204 9.13397 19.9481 9.1465 19.9683 9.1678C19.9885 9.18911 19.9995 9.2175 19.999 9.24685C19.9985 9.2762 19.9864 9.30418 19.9655 9.32475C19.9446 9.34532 19.9164 9.35685 19.887 9.35685C19.8577 9.35685 19.8295 9.34532 19.8085 9.32475C19.7876 9.30418 19.7756 9.2762 19.775 9.24685C19.7745 9.2175 19.7855 9.18911 19.8057 9.1678C19.8259 9.1465 19.8537 9.13397 19.883 9.13292ZM27.883 9.13292H27.891C27.9204 9.13397 27.9481 9.1465 27.9683 9.1678C27.9885 9.18911 27.9995 9.2175 27.999 9.24685C27.9985 9.2762 27.9864 9.30418 27.9655 9.32475C27.9446 9.34532 27.9164 9.35685 27.887 9.35685C27.8577 9.35685 27.8295 9.34532 27.8085 9.32475C27.7876 9.30418 27.7756 9.2762 27.775 9.24685C27.7745 9.2175 27.7855 9.18911 27.8057 9.1678C27.8259 9.1465 27.8537 9.13397 27.883 9.13292ZM16.516 9.43192C16.7294 9.42659 16.9418 9.46401 17.1405 9.54199C17.3392 9.61998 17.5203 9.73694 17.6731 9.886C17.826 10.0351 17.9474 10.2132 18.0304 10.4099C18.1133 10.6066 18.156 10.8179 18.156 11.0314C18.156 11.2449 18.1133 11.4562 18.0304 11.6529C17.9474 11.8497 17.826 12.0278 17.6731 12.1768C17.5203 12.3259 17.3392 12.4429 17.1405 12.5208C16.9418 12.5988 16.7294 12.6363 16.516 12.6309C16.0917 12.6309 15.6847 12.4624 15.3846 12.1623C15.0846 11.8622 14.916 11.4553 14.916 11.0309C14.916 10.6066 15.0846 10.1996 15.3846 9.89955C15.6847 9.59949 16.0917 9.43092 16.516 9.43092V9.43192ZM31.266 9.43192C31.4794 9.42659 31.6917 9.46401 31.8905 9.54199C32.0892 9.61998 32.2703 9.73694 32.4231 9.886C32.576 10.0351 32.6974 10.2132 32.7804 10.4099C32.8633 10.6066 32.906 10.8179 32.906 11.0314C32.906 11.2449 32.8633 11.4562 32.7804 11.6529C32.6974 11.8497 32.576 12.0278 32.4231 12.1768C32.2703 12.3259 32.0892 12.4429 31.8905 12.5208C31.6917 12.5988 31.4794 12.6363 31.266 12.6309C30.8417 12.6309 30.4347 12.4624 30.1346 12.1623C29.8346 11.8622 29.666 11.4553 29.666 11.0309C29.666 10.6066 29.8346 10.1996 30.1346 9.89955C30.4347 9.59949 30.8417 9.43092 31.266 9.43092V9.43192ZM19.883 9.69592H19.891C19.9204 9.69697 19.9481 9.7095 19.9683 9.7308C19.9885 9.75211 19.9995 9.7805 19.999 9.80985C19.9985 9.8392 19.9864 9.86718 19.9655 9.88775C19.9446 9.90832 19.9164 9.91985 19.887 9.91985C19.8577 9.91985 19.8295 9.90832 19.8085 9.88775C19.7876 9.86718 19.7756 9.8392 19.775 9.80985C19.7745 9.7805 19.7855 9.75211 19.8057 9.7308C19.8259 9.7095 19.8537 9.69697 19.883 9.69592ZM27.883 9.69592H27.891C27.9204 9.69697 27.9481 9.7095 27.9683 9.7308C27.9885 9.75211 27.9995 9.7805 27.999 9.80985C27.9985 9.8392 27.9864 9.86718 27.9655 9.88775C27.9446 9.90832 27.9164 9.91985 27.887 9.91985C27.8577 9.91985 27.8295 9.90832 27.8085 9.88775C27.7876 9.86718 27.7756 9.8392 27.775 9.80985C27.7745 9.7805 27.7855 9.75211 27.8057 9.7308C27.8259 9.7095 27.8537 9.69697 27.883 9.69592ZM19.871 10.2579H19.891C19.951 10.2579 20.001 10.3099 20.002 10.3709C20.002 10.4008 19.9902 10.4294 19.9691 10.4505C19.948 10.4716 19.9193 10.4834 19.8895 10.4834C19.8597 10.4834 19.8311 10.4716 19.81 10.4505C19.7889 10.4294 19.777 10.4008 19.777 10.3709C19.777 10.3159 19.817 10.2659 19.871 10.2579ZM27.871 10.2579H27.891C27.951 10.2579 28.001 10.3099 28.002 10.3709C28.002 10.4008 27.9902 10.4294 27.9691 10.4505C27.948 10.4716 27.9193 10.4834 27.8895 10.4834C27.8597 10.4834 27.8311 10.4716 27.81 10.4505C27.7889 10.4294 27.777 10.4008 27.777 10.3709C27.777 10.3159 27.817 10.2659 27.871 10.2579ZM19.893 10.8179C19.955 10.8189 20.004 10.8719 20.003 10.9339C20.003 10.9631 19.9914 10.9911 19.9708 11.0117C19.9502 11.0323 19.9222 11.0439 19.893 11.0439C19.8782 11.0445 19.8635 11.042 19.8497 11.0367C19.8359 11.0314 19.8233 11.0234 19.8126 11.0132C19.802 11.0029 19.7935 10.9906 19.7878 10.977C19.782 10.9633 19.779 10.9487 19.779 10.9339C19.779 10.8709 19.829 10.8179 19.893 10.8189V10.8179ZM27.893 10.8179C27.955 10.8189 28.004 10.8719 28.003 10.9339C28.003 10.9631 27.9914 10.9911 27.9708 11.0117C27.9502 11.0323 27.9222 11.0439 27.893 11.0439C27.8782 11.0445 27.8635 11.042 27.8497 11.0367C27.8359 11.0314 27.8233 11.0234 27.8126 11.0132C27.802 11.0029 27.7935 10.9906 27.7878 10.977C27.782 10.9633 27.779 10.9487 27.779 10.9339C27.779 10.8709 27.829 10.8179 27.893 10.8189V10.8179ZM19.893 11.3809C19.9228 11.3812 19.9514 11.3933 19.9723 11.4146C19.9932 11.4359 20.0048 11.4646 20.0045 11.4944C20.0042 11.5243 19.9921 11.5528 19.9709 11.5737C19.9496 11.5946 19.9208 11.6062 19.891 11.6059C19.8762 11.6058 19.8616 11.6028 19.848 11.597C19.8344 11.5912 19.8221 11.5828 19.8118 11.5723C19.8014 11.5617 19.7932 11.5492 19.7877 11.5356C19.7822 11.5219 19.7794 11.5072 19.7795 11.4924C19.7796 11.4776 19.7827 11.463 19.7885 11.4494C19.7942 11.4358 19.8026 11.4235 19.8132 11.4132C19.8237 11.4028 19.8362 11.3946 19.8499 11.3891C19.8636 11.3836 19.8782 11.3808 19.893 11.3809ZM27.893 11.3809C27.9228 11.3812 27.9514 11.3933 27.9723 11.4146C27.9932 11.4359 28.0048 11.4646 28.0045 11.4944C28.0042 11.5243 27.9921 11.5528 27.9709 11.5737C27.9496 11.5946 27.9208 11.6062 27.891 11.6059C27.8762 11.6058 27.8616 11.6028 27.848 11.597C27.8344 11.5912 27.8221 11.5828 27.8118 11.5723C27.7908 11.551 27.7792 11.5223 27.7795 11.4924C27.7798 11.4626 27.7919 11.4341 27.8132 11.4132C27.8345 11.3923 27.8632 11.3807 27.893 11.3809ZM24.109 11.7909C24.5334 11.7909 24.9403 11.9595 25.2404 12.2596C25.5404 12.5596 25.709 12.9666 25.709 13.3909C25.709 13.8153 25.5404 14.2222 25.2404 14.5223C24.9403 14.8224 24.5334 14.9909 24.109 14.9909C23.6847 14.9909 23.2777 14.8224 22.9776 14.5223C22.6776 14.2222 22.509 13.8153 22.509 13.3909C22.509 12.9666 22.6776 12.5596 22.9776 12.2596C23.2777 11.9595 23.6847 11.7909 24.109 11.7909ZM19.883 11.9439C19.8984 11.943 19.9139 11.9452 19.9284 11.9504C19.9429 11.9557 19.9562 11.9638 19.9675 11.9744C19.9787 11.985 19.9877 11.9978 19.9938 12.012C19.9999 12.0262 20.003 12.0415 20.003 12.0569C20.002 12.1179 19.952 12.1699 19.891 12.1699C19.8634 12.1674 19.8377 12.1548 19.8187 12.1347C19.7996 12.1145 19.7886 12.0881 19.7876 12.0604C19.7866 12.0327 19.7958 12.0056 19.8133 11.9842C19.8309 11.9627 19.8557 11.9484 19.883 11.9439ZM27.883 11.9439C27.8984 11.943 27.9139 11.9452 27.9284 11.9504C27.9429 11.9557 27.9562 11.9638 27.9675 11.9744C27.9787 11.985 27.9877 11.9978 27.9938 12.012C27.9999 12.0262 28.003 12.0415 28.003 12.0569C28.002 12.1179 27.952 12.1699 27.891 12.1699C27.8634 12.1674 27.8377 12.1548 27.8187 12.1347C27.7996 12.1145 27.7886 12.0881 27.7876 12.0604C27.7866 12.0327 27.7958 12.0056 27.8133 11.9842C27.8309 11.9627 27.8557 11.9484 27.883 11.9439ZM19.883 12.5059C19.8985 12.5048 19.914 12.5069 19.9286 12.5121C19.9432 12.5173 19.9565 12.5255 19.9678 12.5361C19.9791 12.5467 19.988 12.5596 19.9941 12.5738C20.0002 12.5881 20.0032 12.6034 20.003 12.6189C20.002 12.6809 19.952 12.7319 19.891 12.7329C19.8625 12.7315 19.8356 12.7194 19.8156 12.699C19.7956 12.6787 19.784 12.6516 19.783 12.6231C19.782 12.5946 19.7917 12.5667 19.8102 12.545C19.8287 12.5234 19.8547 12.5094 19.883 12.5059ZM27.883 12.5059C27.8985 12.5048 27.914 12.5069 27.9286 12.5121C27.9432 12.5173 27.9565 12.5255 27.9678 12.5361C27.9791 12.5467 27.988 12.5596 27.9941 12.5738C28.0002 12.5881 28.0032 12.6034 28.003 12.6189C28.002 12.6809 27.952 12.7319 27.891 12.7329C27.8625 12.7315 27.8356 12.7194 27.8156 12.699C27.7956 12.6787 27.784 12.6516 27.783 12.6231C27.782 12.5946 27.7917 12.5667 27.8102 12.545C27.8287 12.5234 27.8547 12.5094 27.883 12.5059ZM16.516 14.7239C16.9404 14.7239 17.3473 14.8925 17.6474 15.1926C17.9474 15.4926 18.116 15.8996 18.116 16.3239C18.116 16.7483 17.9474 17.1552 17.6474 17.4553C17.3473 17.7554 16.9404 17.9239 16.516 17.9239C16.0917 17.9239 15.6847 17.7554 15.3846 17.4553C15.0846 17.1552 14.916 16.7483 14.916 16.3239C14.916 15.8996 15.0846 15.4926 15.3846 15.1926C15.6847 14.8925 16.0917 14.7239 16.516 14.7239ZM31.266 14.7239C31.6904 14.7239 32.0973 14.8925 32.3974 15.1926C32.6974 15.4926 32.866 15.8996 32.866 16.3239C32.866 16.7483 32.6974 17.1552 32.3974 17.4553C32.0973 17.7554 31.6904 17.9239 31.266 17.9239C30.8417 17.9239 30.4347 17.7554 30.1346 17.4553C29.8346 17.1552 29.666 16.7483 29.666 16.3239C29.666 15.8996 29.8346 15.4926 30.1346 15.1926C30.4347 14.8925 30.8417 14.7239 31.266 14.7239ZM19.871 14.7559H19.891C19.9132 14.7561 19.9348 14.7629 19.9531 14.7754C19.9714 14.7878 19.9856 14.8054 19.9939 14.826C20.0022 14.8465 20.0042 14.8691 19.9997 14.8907C19.9951 14.9124 19.9843 14.9323 19.9685 14.9478C19.9527 14.9633 19.9326 14.9738 19.9109 14.978C19.8891 14.9821 19.8666 14.9797 19.8462 14.971C19.8258 14.9623 19.8085 14.9478 19.7963 14.9293C19.7842 14.9108 19.7778 14.8891 19.778 14.8669C19.777 14.8129 19.817 14.7639 19.871 14.7569V14.7559ZM27.871 14.7559H27.891C27.9132 14.7561 27.9348 14.7629 27.9531 14.7754C27.9714 14.7878 27.9856 14.8054 27.9939 14.826C28.0022 14.8465 28.0042 14.8691 27.9997 14.8907C27.9951 14.9124 27.9843 14.9323 27.9685 14.9478C27.9527 14.9633 27.9326 14.9738 27.9109 14.978C27.8891 14.9821 27.8666 14.9797 27.8462 14.971C27.8258 14.9623 27.8085 14.9478 27.7963 14.9293C27.7842 14.9108 27.7778 14.8891 27.778 14.8669C27.777 14.8129 27.817 14.7639 27.871 14.7569V14.7559ZM19.871 15.3189H19.891C19.951 15.3189 20.001 15.3689 20.002 15.4289C20.0021 15.4503 19.9961 15.4713 19.9846 15.4894C19.9732 15.5075 19.9568 15.5219 19.9374 15.531C19.918 15.54 19.8964 15.5433 19.8752 15.5405C19.854 15.5376 19.834 15.5288 19.8177 15.515C19.8013 15.5011 19.7893 15.4829 19.783 15.4625C19.7767 15.442 19.7764 15.4202 19.7821 15.3995C19.7878 15.3789 19.7993 15.3604 19.8152 15.3461C19.8312 15.3318 19.8509 15.3224 19.872 15.3189H19.871ZM27.871 15.3189H27.891C27.951 15.3189 28.001 15.3689 28.002 15.4289C28.0021 15.4503 27.9961 15.4713 27.9846 15.4894C27.9732 15.5075 27.9568 15.5219 27.9374 15.531C27.918 15.54 27.8964 15.5433 27.8752 15.5405C27.854 15.5376 27.834 15.5288 27.8177 15.515C27.8013 15.5011 27.7893 15.4829 27.783 15.4625C27.7767 15.442 27.7764 15.4202 27.7821 15.3995C27.7878 15.3789 27.7993 15.3604 27.8152 15.3461C27.8312 15.3318 27.8509 15.3224 27.872 15.3189H27.871ZM19.893 15.8789C19.9228 15.8792 19.9514 15.8913 19.9723 15.9126C19.9932 15.9339 20.0048 15.9626 20.0045 15.9924C20.0042 16.0223 19.9921 16.0508 19.9709 16.0717C19.9496 16.0926 19.9208 16.1042 19.891 16.1039C19.8762 16.1038 19.8616 16.1008 19.848 16.095C19.8344 16.0892 19.8221 16.0808 19.8118 16.0703C19.8014 16.0597 19.7932 16.0472 19.7877 16.0336C19.7822 16.0199 19.7794 16.0052 19.7795 15.9904C19.7796 15.9756 19.7827 15.961 19.7885 15.9474C19.7942 15.9338 19.8026 15.9215 19.8132 15.9112C19.8237 15.9008 19.8362 15.8926 19.8499 15.8871C19.8636 15.8816 19.8782 15.8788 19.893 15.8789ZM27.893 15.8789C27.9228 15.8792 27.9514 15.8913 27.9723 15.9126C27.9932 15.9339 28.0048 15.9626 28.0045 15.9924C28.0042 16.0223 27.9921 16.0508 27.9709 16.0717C27.9496 16.0926 27.9208 16.1042 27.891 16.1039C27.8762 16.1038 27.8616 16.1008 27.848 16.095C27.8344 16.0892 27.8221 16.0808 27.8118 16.0703C27.7908 16.049 27.7792 16.0203 27.7795 15.9904C27.7798 15.9606 27.7919 15.9321 27.8132 15.9112C27.8345 15.8903 27.8632 15.8787 27.893 15.8789ZM24.109 17.0259C24.3224 17.0206 24.5348 17.058 24.7335 17.136C24.9322 17.214 25.1133 17.3309 25.2661 17.48C25.419 17.6291 25.5404 17.8072 25.6234 18.0039C25.7063 18.2006 25.749 18.4119 25.749 18.6254C25.749 18.8389 25.7063 19.0502 25.6234 19.2469C25.5404 19.4437 25.419 19.6218 25.2661 19.7708C25.1133 19.9199 24.9322 20.0369 24.7335 20.1148C24.5348 20.1928 24.3224 20.2303 24.109 20.2249C23.6847 20.2249 23.2777 20.0564 22.9776 19.7563C22.6776 19.4562 22.509 19.0493 22.509 18.6249C22.509 18.2006 22.6776 17.7936 22.9776 17.4936C23.2777 17.1935 23.6847 17.0249 24.109 17.0249V17.0259ZM19.883 17.5659C19.8983 17.5648 19.9136 17.5669 19.9281 17.572C19.9426 17.577 19.9558 17.585 19.9671 17.5954C19.9783 17.6058 19.9873 17.6184 19.9935 17.6324C19.9997 17.6465 20.0029 17.6616 20.003 17.6769C20.0033 17.6988 19.9973 17.7203 19.9855 17.7388C19.9738 17.7572 19.9569 17.7718 19.9369 17.7808C19.9169 17.7898 19.8948 17.7927 19.8732 17.7892C19.8516 17.7857 19.8315 17.776 19.8153 17.7612C19.7992 17.7464 19.7878 17.7272 19.7824 17.706C19.7771 17.6848 19.7781 17.6625 19.7853 17.6418C19.7925 17.6211 19.8055 17.603 19.8229 17.5897C19.8403 17.5764 19.8612 17.5685 19.883 17.5669V17.5659ZM27.883 17.5659C27.8983 17.5648 27.9136 17.5669 27.9281 17.572C27.9426 17.577 27.9558 17.585 27.9671 17.5954C27.9783 17.6058 27.9873 17.6184 27.9935 17.6324C27.9997 17.6465 28.0029 17.6616 28.003 17.6769C28.0033 17.6988 27.9973 17.7203 27.9855 17.7388C27.9738 17.7572 27.9569 17.7718 27.9369 17.7808C27.9169 17.7898 27.8948 17.7927 27.8732 17.7892C27.8516 17.7857 27.8315 17.776 27.8153 17.7612C27.7992 17.7464 27.7878 17.7272 27.7824 17.706C27.7771 17.6848 27.7781 17.6625 27.7853 17.6418C27.7925 17.6211 27.8055 17.603 27.8229 17.5897C27.8403 17.5764 27.8612 17.5685 27.883 17.5669V17.5659ZM19.883 18.6919C19.8983 18.6908 19.9136 18.6929 19.9281 18.698C19.9426 18.703 19.9558 18.711 19.9671 18.7214C19.9783 18.7318 19.9873 18.7444 19.9935 18.7584C19.9997 18.7725 20.0029 18.7876 20.003 18.8029C20.0032 18.8248 19.9969 18.8462 19.985 18.8645C19.9732 18.8828 19.9562 18.8973 19.9362 18.9061C19.9162 18.9149 19.8941 18.9177 19.8726 18.9141C19.851 18.9105 19.831 18.9007 19.815 18.8859C19.7989 18.871 19.7876 18.8518 19.7823 18.8306C19.7771 18.8094 19.7781 18.7872 19.7853 18.7666C19.7926 18.7459 19.8057 18.7279 19.823 18.7146C19.8404 18.7014 19.8612 18.6935 19.883 18.6919ZM27.883 18.6919C27.8983 18.6908 27.9136 18.6929 27.9281 18.698C27.9426 18.703 27.9558 18.711 27.9671 18.7214C27.9783 18.7318 27.9873 18.7444 27.9935 18.7584C27.9997 18.7725 28.0029 18.7876 28.003 18.8029C28.0032 18.8248 27.9969 18.8462 27.985 18.8645C27.9732 18.8828 27.9562 18.8973 27.9362 18.9061C27.9162 18.9149 27.8941 18.9177 27.8726 18.9141C27.851 18.9105 27.831 18.9007 27.815 18.8859C27.7989 18.871 27.7876 18.8518 27.7823 18.8306C27.7771 18.8094 27.7781 18.7872 27.7853 18.7666C27.7926 18.7459 27.8057 18.7279 27.823 18.7146C27.8404 18.7014 27.8612 18.6935 27.883 18.6919ZM19.871 19.2539H19.891C19.9131 19.2543 19.9346 19.2612 19.9528 19.2738C19.971 19.2864 19.985 19.3041 19.9931 19.3247C20.0013 19.3452 20.0032 19.3677 19.9985 19.3893C19.9939 19.411 19.983 19.4307 19.9671 19.4461C19.9513 19.4616 19.9313 19.472 19.9095 19.476C19.8878 19.4801 19.8653 19.4776 19.845 19.4689C19.8247 19.4602 19.8074 19.4457 19.7953 19.4272C19.7832 19.4087 19.7768 19.387 19.777 19.3649C19.777 19.3109 19.817 19.2619 19.871 19.2549V19.2539ZM27.871 19.2539H27.891C27.9131 19.2543 27.9346 19.2612 27.9528 19.2738C27.971 19.2864 27.985 19.3041 27.9931 19.3247C28.0013 19.3452 28.0032 19.3677 27.9985 19.3893C27.9939 19.411 27.983 19.4307 27.9671 19.4461C27.9513 19.4616 27.9313 19.472 27.9095 19.476C27.8878 19.4801 27.8653 19.4776 27.845 19.4689C27.8247 19.4602 27.8074 19.4457 27.7953 19.4272C27.7832 19.4087 27.7768 19.387 27.777 19.3649C27.777 19.3109 27.817 19.2619 27.871 19.2549V19.2539ZM19.893 19.8139C19.9228 19.8142 19.9514 19.8263 19.9723 19.8476C19.9932 19.8689 20.0048 19.8976 20.0045 19.9274C20.0042 19.9573 19.9921 19.9858 19.9709 20.0067C19.9496 20.0276 19.9208 20.0392 19.891 20.0389C19.8613 20.0387 19.8329 20.0266 19.8121 20.0054C19.7913 19.9842 19.7797 19.9556 19.78 19.9259C19.7803 19.8962 19.7923 19.8678 19.8135 19.847C19.8347 19.8262 19.8633 19.8147 19.893 19.8149V19.8139ZM27.893 19.8139C27.9228 19.8142 27.9514 19.8263 27.9723 19.8476C27.9932 19.8689 28.0048 19.8976 28.0045 19.9274C28.0042 19.9573 27.9921 19.9858 27.9709 20.0067C27.9496 20.0276 27.9208 20.0392 27.891 20.0389C27.8613 20.0387 27.8329 20.0266 27.8121 20.0054C27.7913 19.9842 27.7797 19.9556 27.78 19.9259C27.7803 19.8962 27.7923 19.8678 27.8135 19.847C27.8347 19.8262 27.8633 19.8147 27.893 19.8149V19.8139ZM16.516 19.9589C16.7294 19.9536 16.9418 19.991 17.1405 20.069C17.3392 20.147 17.5203 20.2639 17.6731 20.413C17.826 20.5621 17.9474 20.7402 18.0304 20.9369C18.1133 21.1336 18.156 21.3449 18.156 21.5584C18.156 21.7719 18.1133 21.9832 18.0304 22.1799C17.9474 22.3767 17.826 22.5548 17.6731 22.7038C17.5203 22.8529 17.3392 22.9699 17.1405 23.0478C16.9418 23.1258 16.7294 23.1633 16.516 23.1579C16.0987 23.1475 15.702 22.9744 15.4106 22.6756C15.1191 22.3767 14.956 21.9758 14.956 21.5584C14.956 21.141 15.1191 20.7401 15.4106 20.4413C15.702 20.1425 16.0987 19.9694 16.516 19.9589ZM31.266 19.9589C31.4794 19.9536 31.6917 19.991 31.8905 20.069C32.0892 20.147 32.2703 20.2639 32.4231 20.413C32.576 20.5621 32.6974 20.7402 32.7804 20.9369C32.8633 21.1336 32.906 21.3449 32.906 21.5584C32.906 21.7719 32.8633 21.9832 32.7804 22.1799C32.6974 22.3767 32.576 22.5548 32.4231 22.7038C32.2703 22.8529 32.0892 22.9699 31.8905 23.0478C31.6917 23.1258 31.4794 23.1633 31.266 23.1579C30.8487 23.1475 30.452 22.9744 30.1606 22.6756C29.8691 22.3767 29.706 21.9758 29.706 21.5584C29.706 21.141 29.8691 20.7401 30.1606 20.4413C30.452 20.1425 30.8487 19.9694 31.266 19.9589ZM24.109 22.2599C24.3224 22.2546 24.5348 22.292 24.7335 22.37C24.9322 22.448 25.1133 22.5649 25.2661 22.714C25.419 22.8631 25.5404 23.0412 25.6234 23.2379C25.7063 23.4346 25.749 23.6459 25.749 23.8594C25.749 24.0729 25.7063 24.2842 25.6234 24.4809C25.5404 24.6777 25.419 24.8558 25.2661 25.0048C25.1133 25.1539 24.9322 25.2709 24.7335 25.3489C24.5348 25.4268 24.3224 25.4643 24.109 25.4589C23.6917 25.4485 23.295 25.2754 23.0036 24.9766C22.7121 24.6777 22.549 24.2768 22.549 23.8594C22.549 23.442 22.7121 23.0411 23.0036 22.7423C23.295 22.4435 23.6917 22.2704 24.109 22.2599ZM19.871 23.7519H19.891C19.9134 23.7521 19.9352 23.759 19.9537 23.7716C19.9722 23.7842 19.9865 23.8021 19.9949 23.8228C20.0032 23.8436 20.0052 23.8664 20.0005 23.8883C19.9959 23.9102 19.9849 23.9303 19.9688 23.9459C19.9528 23.9615 19.9325 23.972 19.9104 23.9761C19.8884 23.9801 19.8657 23.9775 19.8451 23.9686C19.8246 23.9597 19.8071 23.945 19.795 23.9261C19.7829 23.9073 19.7766 23.8853 19.777 23.8629C19.777 23.8089 19.817 23.7599 19.871 23.7529V23.7519ZM27.871 23.7519H27.891C27.9134 23.7521 27.9352 23.759 27.9537 23.7716C27.9722 23.7842 27.9865 23.8021 27.9949 23.8228C28.0032 23.8436 28.0052 23.8664 28.0005 23.8883C27.9959 23.9102 27.9849 23.9303 27.9688 23.9459C27.9528 23.9615 27.9325 23.972 27.9104 23.9761C27.8884 23.9801 27.8657 23.9775 27.8451 23.9686C27.8246 23.9597 27.8071 23.945 27.795 23.9261C27.7829 23.9073 27.7766 23.8853 27.777 23.8629C27.777 23.8089 27.817 23.7599 27.871 23.7529V23.7519ZM19.871 24.3149H19.891C19.951 24.3149 20.001 24.3649 20.002 24.4259C19.9994 24.4539 19.9864 24.4799 19.9656 24.4989C19.9448 24.5178 19.9176 24.5283 19.8895 24.5283C19.8614 24.5283 19.8343 24.5178 19.8135 24.4989C19.7927 24.4799 19.7797 24.4539 19.777 24.4259C19.777 24.3709 19.817 24.3219 19.871 24.3149ZM27.871 24.3149H27.891C27.951 24.3149 28.001 24.3649 28.002 24.4259C27.9994 24.4539 27.9864 24.4799 27.9656 24.4989C27.9448 24.5178 27.9176 24.5283 27.8895 24.5283C27.8614 24.5283 27.8343 24.5178 27.8135 24.4989C27.7927 24.4799 27.7797 24.4539 27.777 24.4259C27.777 24.3709 27.817 24.3219 27.871 24.3149ZM16.516 25.1939C16.7294 25.1886 16.9418 25.226 17.1405 25.304C17.3392 25.382 17.5203 25.4989 17.6731 25.648C17.826 25.7971 17.9474 25.9752 18.0304 26.1719C18.1133 26.3686 18.156 26.5799 18.156 26.7934C18.156 27.0069 18.1133 27.2182 18.0304 27.4149C17.9474 27.6117 17.826 27.7898 17.6731 27.9388C17.5203 28.0879 17.3392 28.2049 17.1405 28.2829C16.9418 28.3608 16.7294 28.3983 16.516 28.3929C16.0917 28.3929 15.6847 28.2244 15.3846 27.9243C15.0846 27.6242 14.916 27.2173 14.916 26.7929C14.916 26.3686 15.0846 25.9616 15.3846 25.6616C15.6847 25.3615 16.0917 25.1929 16.516 25.1929V25.1939ZM31.266 25.1939C31.4794 25.1886 31.6917 25.226 31.8905 25.304C32.0892 25.382 32.2703 25.4989 32.4231 25.648C32.576 25.7971 32.6974 25.9752 32.7804 26.1719C32.8633 26.3686 32.906 26.5799 32.906 26.7934C32.906 27.0069 32.8633 27.2182 32.7804 27.4149C32.6974 27.6117 32.576 27.7898 32.4231 27.9388C32.2703 28.0879 32.0892 28.2049 31.8905 28.2829C31.6917 28.3608 31.4794 28.3983 31.266 28.3929C30.8417 28.3929 30.4347 28.2244 30.1346 27.9243C29.8346 27.6242 29.666 27.2173 29.666 26.7929C29.666 26.3686 29.8346 25.9616 30.1346 25.6616C30.4347 25.3615 30.8417 25.1929 31.266 25.1929V25.1939ZM24.109 27.4949C24.3238 27.4873 24.5378 27.5231 24.7385 27.6C24.9391 27.6769 25.1222 27.7935 25.2768 27.9427C25.4314 28.092 25.5543 28.2708 25.6383 28.4686C25.7223 28.6664 25.7656 28.879 25.7656 29.0939C25.7656 29.3088 25.7223 29.5215 25.6383 29.7193C25.5543 29.917 25.4314 30.0959 25.2768 30.2451C25.1222 30.3943 24.9391 30.5109 24.7385 30.5878C24.5378 30.6648 24.3238 30.7005 24.109 30.6929C23.6917 30.6825 23.295 30.5094 23.0036 30.2106C22.7121 29.9117 22.549 29.5108 22.549 29.0934C22.549 28.676 22.7121 28.2751 23.0036 27.9763C23.295 27.6775 23.6917 27.5044 24.109 27.4939V27.4949ZM19.871 28.2499H19.891C19.951 28.2509 20.001 28.2999 20.002 28.3619C20.0017 28.3832 19.9954 28.404 19.9837 28.4219C19.972 28.4397 19.9555 28.4538 19.936 28.4626C19.9166 28.4713 19.8951 28.4744 19.874 28.4713C19.8529 28.4682 19.8331 28.4592 19.8169 28.4453C19.8008 28.4314 19.7889 28.4132 19.7828 28.3927C19.7766 28.3723 19.7764 28.3506 19.7822 28.3301C19.788 28.3096 19.7995 28.2911 19.8154 28.2769C19.8313 28.2627 19.851 28.2533 19.872 28.2499H19.871ZM27.871 28.2499H27.891C27.951 28.2509 28.001 28.2999 28.002 28.3619C28.0017 28.3832 27.9954 28.404 27.9837 28.4219C27.972 28.4397 27.9555 28.4538 27.936 28.4626C27.9166 28.4713 27.8951 28.4744 27.874 28.4713C27.8529 28.4682 27.8331 28.4592 27.8169 28.4453C27.8008 28.4314 27.7889 28.4132 27.7828 28.3927C27.7766 28.3723 27.7764 28.3506 27.7822 28.3301C27.788 28.3096 27.7995 28.2911 27.8154 28.2769C27.8313 28.2627 27.851 28.2533 27.872 28.2499H27.871ZM19.893 28.8099C19.9228 28.8102 19.9514 28.8223 19.9723 28.8436C19.9932 28.8649 20.0048 28.8936 20.0045 28.9234C20.0042 28.9533 19.9921 28.9818 19.9709 29.0027C19.9496 29.0236 19.9208 29.0352 19.891 29.0349C19.8613 29.0347 19.8329 29.0226 19.8121 29.0014C19.7913 28.9802 19.7797 28.9516 19.78 28.9219C19.7803 28.8922 19.7923 28.8638 19.8135 28.843C19.8347 28.8222 19.8633 28.8107 19.893 28.8109V28.8099ZM27.893 28.8099C27.9228 28.8102 27.9514 28.8223 27.9723 28.8436C27.9932 28.8649 28.0048 28.8936 28.0045 28.9234C28.0042 28.9533 27.9921 28.9818 27.9709 29.0027C27.9496 29.0236 27.9208 29.0352 27.891 29.0349C27.8613 29.0347 27.8329 29.0226 27.8121 29.0014C27.7913 28.9802 27.7797 28.9516 27.78 28.9219C27.7803 28.8922 27.7923 28.8638 27.8135 28.843C27.8347 28.8222 27.8633 28.8107 27.893 28.8109V28.8099ZM16.516 30.4279C16.7294 30.4226 16.9418 30.46 17.1405 30.538C17.3392 30.616 17.5203 30.7329 17.6731 30.882C17.826 31.0311 17.9474 31.2092 18.0304 31.4059C18.1133 31.6026 18.156 31.8139 18.156 32.0274C18.156 32.2409 18.1133 32.4522 18.0304 32.6489C17.9474 32.8457 17.826 33.0238 17.6731 33.1728C17.5203 33.3219 17.3392 33.4389 17.1405 33.5168C16.9418 33.5948 16.7294 33.6323 16.516 33.6269C16.0987 33.6165 15.702 33.4434 15.4106 33.1446C15.1191 32.8457 14.956 32.4448 14.956 32.0274C14.956 31.61 15.1191 31.2091 15.4106 30.9103C15.702 30.6115 16.0987 30.4384 16.516 30.4279ZM31.266 30.4279C31.4794 30.4226 31.6917 30.46 31.8905 30.538C32.0892 30.616 32.2703 30.7329 32.4231 30.882C32.576 31.0311 32.6974 31.2092 32.7804 31.4059C32.8633 31.6026 32.906 31.8139 32.906 32.0274C32.906 32.2409 32.8633 32.4522 32.7804 32.6489C32.6974 32.8457 32.576 33.0238 32.4231 33.1728C32.2703 33.3219 32.0892 33.4389 31.8905 33.5168C31.6917 33.5948 31.4794 33.6323 31.266 33.6269C30.8487 33.6165 30.452 33.4434 30.1606 33.1446C29.8691 32.8457 29.706 32.4448 29.706 32.0274C29.706 31.61 29.8691 31.2091 30.1606 30.9103C30.452 30.6115 30.8487 30.4384 31.266 30.4279ZM19.883 31.0579C19.8984 31.0571 19.9138 31.0594 19.9282 31.0647C19.9427 31.07 19.956 31.0782 19.9672 31.0888C19.9784 31.0993 19.9873 31.1121 19.9935 31.1262C19.9997 31.1403 20.0029 31.1555 20.003 31.1709C20.0031 31.2009 19.9914 31.2297 19.9703 31.251C19.9492 31.2723 19.9205 31.2843 19.8905 31.2844C19.8757 31.2845 19.861 31.2816 19.8472 31.276C19.8335 31.2704 19.821 31.2621 19.8105 31.2517C19.7892 31.2306 19.7771 31.2019 19.777 31.1719C19.777 31.1119 19.824 31.0619 19.883 31.0589V31.0579ZM27.883 31.0579C27.8984 31.0571 27.9138 31.0594 27.9282 31.0647C27.9427 31.07 27.956 31.0782 27.9672 31.0888C27.9784 31.0993 27.9873 31.1121 27.9935 31.1262C27.9997 31.1403 28.0029 31.1555 28.003 31.1709C28.0031 31.1858 28.0002 31.2005 27.9946 31.2142C27.989 31.2279 27.9807 31.2404 27.9703 31.251C27.9598 31.2615 27.9474 31.2699 27.9337 31.2756C27.92 31.2814 27.9053 31.2844 27.8905 31.2844C27.8757 31.2845 27.861 31.2816 27.8472 31.276C27.8335 31.2704 27.821 31.2621 27.8105 31.2517C27.7999 31.2412 27.7915 31.2288 27.7858 31.2151C27.7801 31.2014 27.7771 31.1868 27.777 31.1719C27.777 31.1119 27.824 31.0619 27.883 31.0589V31.0579ZM19.871 32.1839H19.891C19.9131 32.1843 19.9346 32.1912 19.9528 32.2038C19.971 32.2164 19.985 32.2341 19.9931 32.2547C20.0013 32.2752 20.0032 32.2977 19.9985 32.3193C19.9939 32.341 19.983 32.3607 19.9671 32.3762C19.9513 32.3916 19.9313 32.402 19.9095 32.406C19.8878 32.4101 19.8653 32.4076 19.845 32.3989C19.8247 32.3902 19.8074 32.3757 19.7953 32.3572C19.7832 32.3387 19.7768 32.317 19.777 32.2949C19.777 32.2399 19.817 32.1909 19.871 32.1839ZM27.871 32.1839H27.891C27.9131 32.1843 27.9346 32.1912 27.9528 32.2038C27.971 32.2164 27.985 32.2341 27.9931 32.2547C28.0013 32.2752 28.0032 32.2977 27.9985 32.3193C27.9939 32.341 27.983 32.3607 27.9671 32.3762C27.9513 32.3916 27.9313 32.402 27.9095 32.406C27.8878 32.4101 27.8653 32.4076 27.845 32.3989C27.8247 32.3902 27.8074 32.3757 27.7953 32.3572C27.7832 32.3387 27.7768 32.317 27.777 32.2949C27.777 32.2399 27.817 32.1909 27.871 32.1839ZM24.109 32.7289C24.3224 32.7236 24.5348 32.761 24.7335 32.839C24.9322 32.917 25.1133 33.0339 25.2661 33.183C25.419 33.3321 25.5404 33.5102 25.6234 33.7069C25.7063 33.9036 25.749 34.1149 25.749 34.3284C25.749 34.5419 25.7063 34.7532 25.6234 34.9499C25.5404 35.1467 25.419 35.3248 25.2661 35.4738C25.1133 35.6229 24.9322 35.7399 24.7335 35.8179C24.5348 35.8958 24.3224 35.9333 24.109 35.9279C23.6847 35.9279 23.2777 35.7593 22.9776 35.4593C22.6776 35.1592 22.509 34.7523 22.509 34.3279C22.509 33.9036 22.6776 33.4966 22.9776 33.1966C23.2777 32.8965 23.6847 32.7279 24.109 32.7279V32.7289ZM19.871 32.7459H19.891C19.951 32.7459 20.001 32.7959 20.002 32.8579C20.0019 32.8793 19.9957 32.9002 19.9842 32.9181C19.9726 32.9361 19.9561 32.9504 19.9367 32.9593C19.9173 32.9682 19.8957 32.9713 19.8746 32.9684C19.8534 32.9655 19.8335 32.9565 19.8173 32.9426C19.801 32.9288 19.7891 32.9105 19.7829 32.8901C19.7766 32.8697 19.7764 32.8479 19.7822 32.8273C19.7879 32.8067 19.7994 32.7882 19.8153 32.774C19.8313 32.7597 19.8509 32.7504 19.872 32.7469L19.871 32.7459ZM27.871 32.7459H27.891C27.951 32.7459 28.001 32.7959 28.002 32.8579C28.0019 32.8793 27.9957 32.9002 27.9842 32.9181C27.9726 32.9361 27.9561 32.9504 27.9367 32.9593C27.9173 32.9682 27.8957 32.9713 27.8746 32.9684C27.8534 32.9655 27.8335 32.9565 27.8173 32.9426C27.801 32.9288 27.7891 32.9105 27.7829 32.8901C27.7766 32.8697 27.7764 32.8479 27.7822 32.8273C27.7879 32.8067 27.7994 32.7882 27.8153 32.774C27.8313 32.7597 27.8509 32.7504 27.872 32.7469L27.871 32.7459ZM19.893 33.3059C19.955 33.3079 20.004 33.3599 20.003 33.4219C20.003 33.4511 19.9914 33.4791 19.9708 33.4997C19.9502 33.5203 19.9222 33.5319 19.893 33.5319C19.8782 33.5325 19.8635 33.53 19.8497 33.5247C19.8359 33.5194 19.8233 33.5114 19.8126 33.5012C19.802 33.4909 19.7935 33.4786 19.7878 33.465C19.782 33.4513 19.779 33.4367 19.779 33.4219C19.779 33.3589 19.829 33.3059 19.893 33.3069V33.3059ZM27.893 33.3059C27.955 33.3079 28.004 33.3599 28.003 33.4219C28.003 33.4511 27.9914 33.4791 27.9708 33.4997C27.9502 33.5203 27.9222 33.5319 27.893 33.5319C27.8782 33.5325 27.8635 33.53 27.8497 33.5247C27.8359 33.5194 27.8233 33.5114 27.8126 33.5012C27.802 33.4909 27.7935 33.4786 27.7878 33.465C27.782 33.4513 27.779 33.4367 27.779 33.4219C27.779 33.3589 27.829 33.3059 27.893 33.3069V33.3059ZM19.883 33.8689H19.891C19.9206 33.87 19.9486 33.8826 19.969 33.9041C19.9894 33.9256 20.0005 33.9542 20 33.9839C19.9995 34.0135 19.9873 34.0417 19.9662 34.0625C19.9451 34.0832 19.9166 34.0949 19.887 34.0949C19.8574 34.0949 19.829 34.0832 19.8078 34.0625C19.7867 34.0417 19.7746 34.0135 19.774 33.9839C19.7735 33.9542 19.7846 33.9256 19.805 33.9041C19.8254 33.8826 19.8534 33.87 19.883 33.8689ZM27.883 33.8689H27.891C27.9206 33.87 27.9486 33.8826 27.969 33.9041C27.9894 33.9256 28.0005 33.9542 28 33.9839C27.9995 34.0135 27.9873 34.0417 27.9662 34.0625C27.9451 34.0832 27.9166 34.0949 27.887 34.0949C27.8574 34.0949 27.829 34.0832 27.8078 34.0625C27.7867 34.0417 27.7746 34.0135 27.774 33.9839C27.7735 33.9542 27.7846 33.9256 27.805 33.9041C27.8254 33.8826 27.8534 33.87 27.883 33.8689ZM16.516 35.6619C16.9404 35.6619 17.3473 35.8305 17.6474 36.1306C17.9474 36.4306 18.116 36.8376 18.116 37.2619C18.116 37.6863 17.9474 38.0932 17.6474 38.3933C17.3473 38.6933 16.9404 38.8619 16.516 38.8619C16.0917 38.8619 15.6847 38.6933 15.3846 38.3933C15.0846 38.0932 14.916 37.6863 14.916 37.2619C14.916 36.8376 15.0846 36.4306 15.3846 36.1306C15.6847 35.8305 16.0917 35.6619 16.516 35.6619ZM31.266 35.6619C31.6904 35.6619 32.0973 35.8305 32.3974 36.1306C32.6974 36.4306 32.866 36.8376 32.866 37.2619C32.866 37.6863 32.6974 38.0932 32.3974 38.3933C32.0973 38.6933 31.6904 38.8619 31.266 38.8619C30.8417 38.8619 30.4347 38.6933 30.1346 38.3933C29.8346 38.0932 29.666 37.6863 29.666 37.2619C29.666 36.8376 29.8346 36.4306 30.1346 36.1306C30.4347 35.8305 30.8417 35.6619 31.266 35.6619ZM19.871 37.2439H19.891C19.951 37.2449 20.001 37.2939 20.002 37.3559C20.0017 37.3772 19.9954 37.398 19.9837 37.4159C19.972 37.4337 19.9555 37.4478 19.936 37.4566C19.9166 37.4653 19.8951 37.4684 19.874 37.4653C19.8529 37.4622 19.8331 37.4532 19.8169 37.4393C19.8008 37.4254 19.7889 37.4072 19.7828 37.3867C19.7766 37.3663 19.7764 37.3446 19.7822 37.3241C19.788 37.3035 19.7995 37.2851 19.8154 37.2709C19.8313 37.2567 19.851 37.2473 19.872 37.2439H19.871ZM27.871 37.2439H27.891C27.951 37.2449 28.001 37.2939 28.002 37.3559C28.0017 37.3772 27.9954 37.398 27.9837 37.4159C27.972 37.4337 27.9555 37.4478 27.936 37.4566C27.9166 37.4653 27.8951 37.4684 27.874 37.4653C27.8529 37.4622 27.8331 37.4532 27.8169 37.4393C27.8008 37.4254 27.7889 37.4072 27.7828 37.3867C27.7766 37.3663 27.7764 37.3446 27.7822 37.3241C27.788 37.3035 27.7995 37.2851 27.8154 37.2709C27.8313 37.2567 27.851 37.2473 27.872 37.2439H27.871ZM19.883 37.8039H19.891C19.9206 37.805 19.9486 37.8176 19.969 37.8391C19.9894 37.8606 20.0005 37.8892 20 37.9188C19.9995 37.9485 19.9873 37.9767 19.9662 37.9975C19.9451 38.0182 19.9166 38.0299 19.887 38.0299C19.8574 38.0299 19.829 38.0182 19.8078 37.9975C19.7867 37.9767 19.7746 37.9485 19.774 37.9188C19.7735 37.8892 19.7846 37.8606 19.805 37.8391C19.8254 37.8176 19.8534 37.805 19.883 37.8039ZM27.883 37.8039H27.891C27.9206 37.805 27.9486 37.8176 27.969 37.8391C27.9894 37.8606 28.0005 37.8892 28 37.9188C27.9995 37.9485 27.9873 37.9767 27.9662 37.9975C27.9451 38.0182 27.9166 38.0299 27.887 38.0299C27.8574 38.0299 27.829 38.0182 27.8078 37.9975C27.7867 37.9767 27.7746 37.9485 27.774 37.9188C27.7735 37.8892 27.7846 37.8606 27.805 37.8391C27.8254 37.8176 27.8534 37.805 27.883 37.8039ZM24.109 37.9979C24.5334 37.9979 24.9403 38.1665 25.2404 38.4665C25.5404 38.7666 25.709 39.1736 25.709 39.5979C25.709 40.0223 25.5404 40.4292 25.2404 40.7293C24.9403 41.0293 24.5334 41.1979 24.109 41.1979C23.6847 41.1979 23.2777 41.0293 22.9776 40.7293C22.6776 40.4292 22.509 40.0223 22.509 39.5979C22.509 39.1736 22.6776 38.7666 22.9776 38.4665C23.2777 38.1665 23.6847 37.9979 24.109 37.9979ZM19.883 39.4919H19.891C19.9206 39.493 19.9486 39.5056 19.969 39.5271C19.9894 39.5486 20.0005 39.5772 20 39.6068C19.9995 39.6365 19.9873 39.6647 19.9662 39.6855C19.9451 39.7062 19.9166 39.7178 19.887 39.7178C19.8574 39.7178 19.829 39.7062 19.8078 39.6855C19.7867 39.6647 19.7746 39.6365 19.774 39.6068C19.7735 39.5772 19.7846 39.5486 19.805 39.5271C19.8254 39.5056 19.8534 39.493 19.883 39.4919ZM27.883 39.4919H27.891C27.9206 39.493 27.9486 39.5056 27.969 39.5271C27.9894 39.5486 28.0005 39.5772 28 39.6068C27.9995 39.6365 27.9873 39.6647 27.9662 39.6855C27.9451 39.7062 27.9166 39.7178 27.887 39.7178C27.8574 39.7178 27.829 39.7062 27.8078 39.6855C27.7867 39.6647 27.7746 39.6365 27.774 39.6068C27.7735 39.5772 27.7846 39.5486 27.805 39.5271C27.8254 39.5056 27.8534 39.493 27.883 39.4919ZM19.883 40.0549H19.891C19.9206 40.056 19.9486 40.0686 19.969 40.0901C19.9894 40.1116 20.0005 40.1402 20 40.1698C19.9995 40.1995 19.9873 40.2277 19.9662 40.2485C19.9451 40.2692 19.9166 40.2808 19.887 40.2808C19.8574 40.2808 19.829 40.2692 19.8078 40.2485C19.7867 40.2277 19.7746 40.1995 19.774 40.1698C19.7735 40.1402 19.7846 40.1116 19.805 40.0901C19.8254 40.0686 19.8534 40.056 19.883 40.0549ZM27.883 40.0549H27.891C27.9206 40.056 27.9486 40.0686 27.969 40.0901C27.9894 40.1116 28.0005 40.1402 28 40.1698C27.9995 40.1995 27.9873 40.2277 27.9662 40.2485C27.9451 40.2692 27.9166 40.2808 27.887 40.2808C27.8574 40.2808 27.829 40.2692 27.8078 40.2485C27.7867 40.2277 27.7746 40.1995 27.774 40.1698C27.7735 40.1402 27.7846 40.1116 27.805 40.0901C27.8254 40.0686 27.8534 40.056 27.883 40.0549ZM19.883 40.6169H19.891C19.9206 40.618 19.9486 40.6306 19.969 40.6521C19.9894 40.6736 20.0005 40.7022 20 40.7318C19.9995 40.7615 19.9873 40.7897 19.9662 40.8105C19.9451 40.8312 19.9166 40.8428 19.887 40.8428C19.8574 40.8428 19.829 40.8312 19.8078 40.8105C19.7867 40.7897 19.7746 40.7615 19.774 40.7318C19.7735 40.7022 19.7846 40.6736 19.805 40.6521C19.8254 40.6306 19.8534 40.618 19.883 40.6169ZM27.883 40.6169H27.891C27.9206 40.618 27.9486 40.6306 27.969 40.6521C27.9894 40.6736 28.0005 40.7022 28 40.7318C27.9995 40.7615 27.9873 40.7897 27.9662 40.8105C27.9451 40.8312 27.9166 40.8428 27.887 40.8428C27.8574 40.8428 27.829 40.8312 27.8078 40.8105C27.7867 40.7897 27.7746 40.7615 27.774 40.7318C27.7735 40.7022 27.7846 40.6736 27.805 40.6521C27.8254 40.6306 27.8534 40.618 27.883 40.6169ZM19.871 41.1799H19.891C19.9134 41.1801 19.9352 41.187 19.9537 41.1996C19.9722 41.2122 19.9865 41.2301 19.9949 41.2508C20.0032 41.2716 20.0052 41.2944 20.0005 41.3163C19.9959 41.3382 19.9849 41.3583 19.9688 41.3739C19.9528 41.3895 19.9325 41.4 19.9104 41.404C19.8884 41.4081 19.8657 41.4055 19.8451 41.3966C19.8246 41.3877 19.8071 41.373 19.795 41.3541C19.7829 41.3353 19.7766 41.3133 19.777 41.2909C19.777 41.2359 19.817 41.1879 19.871 41.1799ZM27.871 41.1799H27.891C27.9134 41.1801 27.9352 41.187 27.9537 41.1996C27.9722 41.2122 27.9865 41.2301 27.9949 41.2508C28.0032 41.2716 28.0052 41.2944 28.0005 41.3163C27.9959 41.3382 27.9849 41.3583 27.9688 41.3739C27.9528 41.3895 27.9325 41.4 27.9104 41.404C27.8884 41.4081 27.8657 41.4055 27.8451 41.3966C27.8246 41.3877 27.8071 41.373 27.795 41.3541C27.7829 41.3353 27.7766 41.3133 27.777 41.2909C27.777 41.2359 27.817 41.1879 27.871 41.1799ZM19.871 41.7419H19.891C19.951 41.7429 20.001 41.7919 20.002 41.8539C20.002 41.9149 19.952 41.9639 19.891 41.9649C19.8762 41.9652 19.8615 41.9625 19.8478 41.9571C19.834 41.9516 19.8215 41.9435 19.8109 41.9332C19.8003 41.9229 19.7918 41.9105 19.786 41.8969C19.7802 41.8833 19.7771 41.8687 19.777 41.8539C19.777 41.7989 19.817 41.7499 19.871 41.7419ZM27.871 41.7419H27.891C27.951 41.7429 28.001 41.7919 28.002 41.8539C28.002 41.9149 27.952 41.9639 27.891 41.9649C27.8762 41.9652 27.8615 41.9625 27.8478 41.9571C27.834 41.9516 27.8215 41.9435 27.8109 41.9332C27.8003 41.9229 27.7918 41.9105 27.786 41.8969C27.7802 41.8833 27.7771 41.8687 27.777 41.8539C27.777 41.7989 27.817 41.7499 27.871 41.7419ZM19.893 42.3029C19.9227 42.3032 19.9511 42.3152 19.9719 42.3364C19.9927 42.3576 20.0043 42.3862 20.004 42.4159C20.0037 42.4456 19.9917 42.474 19.9705 42.4948C19.9493 42.5156 19.9207 42.5272 19.891 42.5269C19.8763 42.5268 19.8618 42.5238 19.8482 42.518C19.8347 42.5123 19.8224 42.5039 19.8121 42.4934C19.8018 42.4829 19.7937 42.4705 19.7882 42.4569C19.7826 42.4432 19.7799 42.4286 19.78 42.4139C19.7801 42.3992 19.7832 42.3847 19.7889 42.3711C19.7947 42.3576 19.803 42.3453 19.8135 42.335C19.824 42.3247 19.8364 42.3166 19.8501 42.3111C19.8637 42.3056 19.8783 42.3028 19.893 42.3029ZM27.893 42.3029C27.9077 42.3031 27.9223 42.3061 27.9358 42.3118C27.9493 42.3176 27.9616 42.3259 27.9719 42.3364C27.9822 42.3469 27.9904 42.3593 27.9959 42.373C28.0014 42.3866 28.0041 42.4012 28.004 42.4159C28.0039 42.4306 28.0009 42.4452 27.9951 42.4587C27.9894 42.4722 27.981 42.4845 27.9705 42.4948C27.96 42.5051 27.9476 42.5133 27.9339 42.5188C27.9203 42.5243 27.9057 42.5271 27.891 42.5269C27.8613 42.5267 27.8329 42.5146 27.8121 42.4934C27.7913 42.4722 27.7797 42.4436 27.78 42.4139C27.7803 42.3842 27.7923 42.3558 27.8135 42.335C27.8347 42.3142 27.8633 42.3027 27.893 42.3029Z" fill="#333333"/>
</svg>
