<svg width="48" height="48" viewBox="0 0 48 48" fill="none" xmlns="http://www.w3.org/2000/svg">
<path d="M23.814 4.1029C20.502 4.1119 17.252 4.1269 14.146 4.1249C13.277 4.1249 12.58 4.8239 12.58 5.6929V42.5549C12.58 43.4239 13.277 44.1249 14.146 44.1249H33.852C34.721 44.1249 35.42 43.4239 35.42 42.5549V5.6929C35.42 4.8229 34.721 4.1249 33.852 4.1249C30.501 4.0929 27.127 4.0949 23.815 4.1029H23.814ZM14.58 4.6249H33.418C34.249 4.6249 34.92 5.3069 34.92 6.1549V42.0939C34.92 42.9409 34.25 43.6239 33.418 43.6239H14.58C13.749 43.6239 13.08 42.9409 13.08 42.0939V6.1539C13.08 5.3069 13.749 4.6239 14.58 4.6239V4.6249ZM19.992 5.1649C19.9627 5.16595 19.9349 5.17848 19.9147 5.19978C19.8945 5.22109 19.8835 5.24948 19.884 5.27883C19.8846 5.30818 19.8966 5.33616 19.9175 5.35673C19.9385 5.3773 19.9667 5.38883 19.996 5.38883C20.0254 5.38883 20.0536 5.3773 20.0745 5.35673C20.0954 5.33616 20.1075 5.30818 20.108 5.27883C20.1085 5.24948 20.0975 5.22109 20.0773 5.19978C20.0571 5.17848 20.0294 5.16595 20 5.1649H19.992ZM27.992 5.1649C27.9627 5.16595 27.9349 5.17848 27.9147 5.19978C27.8945 5.22109 27.8835 5.24948 27.884 5.27883C27.8846 5.30818 27.8966 5.33616 27.9175 5.35673C27.9385 5.3773 27.9667 5.38883 27.996 5.38883C28.0254 5.38883 28.0536 5.3773 28.0745 5.35673C28.0954 5.33616 28.1075 5.30818 28.108 5.27883C28.1085 5.24948 28.0975 5.22109 28.0773 5.19978C28.0571 5.17848 28.0294 5.16595 28 5.1649H27.992ZM19.992 5.7279C19.9772 5.72882 19.9628 5.73264 19.9495 5.73914C19.9362 5.74565 19.9243 5.7547 19.9145 5.7658C19.9047 5.7769 19.8972 5.78982 19.8924 5.80382C19.8876 5.81782 19.8856 5.83263 19.8865 5.8474C19.8874 5.86217 19.8913 5.87662 19.8978 5.88992C19.9043 5.90322 19.9133 5.9151 19.9244 5.9249C19.9355 5.9347 19.9484 5.94221 19.9624 5.94702C19.9764 5.95182 19.9912 5.95382 20.006 5.9529C20.0359 5.95104 20.0637 5.93741 20.0835 5.915C20.1033 5.89259 20.1134 5.86324 20.1115 5.8334C20.1097 5.80356 20.096 5.77569 20.0736 5.7559C20.0512 5.73612 20.0219 5.72604 19.992 5.7279ZM27.992 5.7279C27.9772 5.72882 27.9628 5.73264 27.9495 5.73914C27.9362 5.74565 27.9243 5.7547 27.9145 5.7658C27.9047 5.7769 27.8972 5.78982 27.8924 5.80382C27.8876 5.81782 27.8856 5.83263 27.8865 5.8474C27.8874 5.86217 27.8913 5.87662 27.8978 5.88992C27.9043 5.90322 27.9133 5.9151 27.9244 5.9249C27.9355 5.9347 27.9484 5.94221 27.9624 5.94702C27.9764 5.95182 27.9912 5.95382 28.006 5.9529C28.0359 5.95104 28.0637 5.93741 28.0835 5.915C28.1033 5.89259 28.1134 5.86324 28.1115 5.8334C28.1097 5.80356 28.096 5.77569 28.0736 5.7559C28.0512 5.73612 28.0219 5.72604 27.992 5.7279ZM19.982 6.2909C19.9609 6.29415 19.9411 6.3034 19.925 6.31755C19.9089 6.3317 19.8973 6.35017 19.8914 6.37075C19.8855 6.39134 19.8856 6.41318 19.8917 6.43369C19.8978 6.45421 19.9097 6.47253 19.926 6.4865C19.9422 6.50047 19.9621 6.50949 19.9833 6.51249C20.0045 6.5155 20.0261 6.51237 20.0456 6.50346C20.0651 6.49456 20.0816 6.48026 20.0932 6.46226C20.1048 6.44426 20.111 6.42331 20.111 6.4019C20.111 6.3409 20.061 6.2919 20 6.2909H19.982ZM27.982 6.2909C27.9609 6.29415 27.9411 6.3034 27.925 6.31755C27.9089 6.3317 27.8973 6.35017 27.8914 6.37075C27.8855 6.39134 27.8856 6.41318 27.8917 6.43369C27.8978 6.45421 27.9097 6.47253 27.926 6.4865C27.9422 6.50047 27.9621 6.50949 27.9833 6.51249C28.0045 6.5155 28.0261 6.51237 28.0456 6.50346C28.0651 6.49456 28.0816 6.48026 28.0932 6.46226C28.1048 6.44426 28.111 6.42331 28.111 6.4019C28.111 6.3409 28.061 6.2919 28 6.2909H27.982ZM20.002 6.8509C19.9872 6.85077 19.9726 6.85355 19.9589 6.85908C19.9452 6.86461 19.9327 6.87279 19.9222 6.88314C19.9116 6.8935 19.9032 6.90583 19.8975 6.91943C19.8917 6.93302 19.8886 6.94763 19.8885 6.9624C19.8884 6.97717 19.8912 6.99183 19.8967 7.00553C19.9022 7.01923 19.9104 7.0317 19.9208 7.04224C19.9311 7.05278 19.9434 7.06118 19.957 7.06696C19.9706 7.07273 19.9852 7.07577 20 7.0759C20.0299 7.07617 20.0586 7.06457 20.0799 7.04366C20.1011 7.02275 20.1133 6.99424 20.1135 6.9644C20.1138 6.93456 20.1022 6.90584 20.0813 6.88456C20.0604 6.86327 20.0319 6.85117 20.002 6.8509ZM28.002 6.8509C27.9872 6.85077 27.9726 6.85355 27.9589 6.85908C27.9452 6.86461 27.9327 6.87279 27.9222 6.88314C27.9116 6.8935 27.9032 6.90583 27.8975 6.91943C27.8917 6.93302 27.8886 6.94763 27.8885 6.9624C27.8884 6.97717 27.8912 6.99183 27.8967 7.00553C27.9022 7.01923 27.9104 7.0317 27.9208 7.04224C27.9311 7.05278 27.9434 7.06118 27.957 7.06696C27.9706 7.07273 27.9852 7.07577 28 7.0759C28.0299 7.07617 28.0586 7.06457 28.0799 7.04366C28.1011 7.02275 28.1133 6.99424 28.1135 6.9644C28.1138 6.93456 28.1022 6.90584 28.0813 6.88456C28.0604 6.86327 28.0319 6.85117 28.002 6.8509ZM19.992 7.4139C19.9634 7.41569 19.9365 7.42842 19.917 7.44944C19.8974 7.47047 19.8867 7.4982 19.887 7.5269C19.8873 7.5493 19.8942 7.57111 19.907 7.58951C19.9197 7.60792 19.9377 7.62207 19.9586 7.63015C19.9795 7.63822 20.0023 7.63985 20.0242 7.63482C20.046 7.62979 20.0658 7.61833 20.0811 7.60192C20.0963 7.58551 20.1063 7.56491 20.1097 7.54278C20.1131 7.52064 20.1098 7.49799 20.1002 7.47775C20.0906 7.4575 20.0752 7.4406 20.0559 7.42922C20.0366 7.41784 20.0144 7.4125 19.992 7.4139ZM27.992 7.4139C27.9634 7.41569 27.9365 7.42842 27.917 7.44944C27.8974 7.47047 27.8867 7.4982 27.887 7.5269C27.8873 7.5493 27.8942 7.57111 27.907 7.58951C27.9197 7.60792 27.9377 7.62207 27.9586 7.63015C27.9795 7.63822 28.0023 7.63985 28.0242 7.63482C28.046 7.62979 28.0658 7.61833 28.0811 7.60192C28.0963 7.58551 28.1063 7.56491 28.1097 7.54278C28.1131 7.52064 28.1098 7.49799 28.1002 7.47775C28.0906 7.4575 28.0752 7.4406 28.0559 7.42922C28.0366 7.41784 28.0144 7.4125 27.992 7.4139ZM19.992 7.9739C19.9627 7.97495 19.9349 7.98748 19.9147 8.00878C19.8945 8.03009 19.8835 8.05848 19.884 8.08783C19.8846 8.11718 19.8966 8.14516 19.9175 8.16573C19.9385 8.1863 19.9667 8.19783 19.996 8.19783C20.0254 8.19783 20.0536 8.1863 20.0745 8.16573C20.0954 8.14516 20.1075 8.11718 20.108 8.08783C20.1085 8.05848 20.0975 8.03009 20.0773 8.00878C20.0571 7.98748 20.0294 7.97495 20 7.9739H19.992ZM27.992 7.9739C27.9627 7.97495 27.9349 7.98748 27.9147 8.00878C27.8945 8.03009 27.8835 8.05848 27.884 8.08783C27.8846 8.11718 27.8966 8.14516 27.9175 8.16573C27.9385 8.1863 27.9667 8.19783 27.996 8.19783C28.0254 8.19783 28.0536 8.1863 28.0745 8.16573C28.0954 8.14516 28.1075 8.11718 28.108 8.08783C28.1085 8.05848 28.0975 8.03009 28.0773 8.00878C28.0571 7.98748 28.0294 7.97495 28 7.9739H27.992ZM19.992 8.5369C19.9627 8.53795 19.9349 8.55048 19.9147 8.57178C19.8945 8.59309 19.8835 8.62148 19.884 8.65083C19.8846 8.68018 19.8966 8.70816 19.9175 8.72873C19.9385 8.7493 19.9667 8.76083 19.996 8.76083C20.0254 8.76083 20.0536 8.7493 20.0745 8.72873C20.0954 8.70816 20.1075 8.68018 20.108 8.65083C20.1085 8.62148 20.0975 8.59309 20.0773 8.57178C20.0571 8.55048 20.0294 8.53795 20 8.5369H19.992ZM27.992 8.5369C27.9627 8.53795 27.9349 8.55048 27.9147 8.57178C27.8945 8.59309 27.8835 8.62148 27.884 8.65083C27.8846 8.68018 27.8966 8.70816 27.9175 8.72873C27.9385 8.7493 27.9667 8.76083 27.996 8.76083C28.0254 8.76083 28.0536 8.7493 28.0745 8.72873C28.0954 8.70816 28.1075 8.68018 28.108 8.65083C28.1085 8.62148 28.0975 8.59309 28.0773 8.57178C28.0571 8.55048 28.0294 8.53795 28 8.5369H27.992ZM19.992 9.0999C19.9773 9.10082 19.9629 9.10463 19.9497 9.11111C19.9365 9.11758 19.9246 9.1266 19.9149 9.13765C19.9051 9.14871 19.8976 9.16157 19.8929 9.17551C19.8881 9.18945 19.8861 9.20419 19.887 9.2189C19.8879 9.23361 19.8917 9.24799 19.8982 9.26123C19.9047 9.27447 19.9137 9.2863 19.9248 9.29605C19.9358 9.3058 19.9487 9.31328 19.9626 9.31805C19.9766 9.32283 19.9913 9.32482 20.006 9.3239C20.0357 9.32205 20.0635 9.30846 20.0832 9.28615C20.1029 9.26383 20.1129 9.23461 20.111 9.2049C20.1092 9.1752 20.0956 9.14745 20.0733 9.12776C20.0509 9.10806 20.0217 9.09805 19.992 9.0999ZM27.992 9.0999C27.9773 9.10082 27.9629 9.10463 27.9497 9.11111C27.9365 9.11758 27.9246 9.1266 27.9149 9.13765C27.9051 9.14871 27.8976 9.16157 27.8929 9.17551C27.8881 9.18945 27.8861 9.20419 27.887 9.2189C27.8879 9.23361 27.8917 9.24799 27.8982 9.26123C27.9047 9.27447 27.9137 9.2863 27.9248 9.29605C27.9358 9.3058 27.9487 9.31328 27.9626 9.31805C27.9766 9.32283 27.9913 9.32482 28.006 9.3239C28.0357 9.32205 28.0635 9.30846 28.0832 9.28615C28.1029 9.26383 28.1129 9.23461 28.111 9.2049C28.1092 9.1752 28.0956 9.14745 28.0733 9.12776C28.0509 9.10806 28.0217 9.09805 27.992 9.0999ZM19.992 9.6619C19.9627 9.66295 19.9349 9.67548 19.9147 9.69678C19.8945 9.71809 19.8835 9.74648 19.884 9.77583C19.8846 9.80518 19.8966 9.83316 19.9175 9.85373C19.9385 9.8743 19.9667 9.88583 19.996 9.88583C20.0254 9.88583 20.0536 9.8743 20.0745 9.85373C20.0954 9.83316 20.1075 9.80518 20.108 9.77583C20.1085 9.74648 20.0975 9.71809 20.0773 9.69678C20.0571 9.67548 20.0294 9.66295 20 9.6619H19.992ZM27.992 9.6619C27.9627 9.66295 27.9349 9.67548 27.9147 9.69678C27.8945 9.71809 27.8835 9.74648 27.884 9.77583C27.8846 9.80518 27.8966 9.83316 27.9175 9.85373C27.9385 9.8743 27.9667 9.88583 27.996 9.88583C28.0254 9.88583 28.0536 9.8743 28.0745 9.85373C28.0954 9.83316 28.1075 9.80518 28.108 9.77583C28.1085 9.74648 28.0975 9.71809 28.0773 9.69678C28.0571 9.67548 28.0294 9.66295 28 9.6619H27.992ZM19.98 10.2249C19.9536 10.2296 19.9298 10.2436 19.9128 10.2643C19.8957 10.285 19.8866 10.3111 19.887 10.3379C19.8849 10.3539 19.8862 10.3701 19.8908 10.3855C19.8955 10.4009 19.9034 10.4152 19.914 10.4273C19.9246 10.4394 19.9377 10.4491 19.9523 10.4558C19.967 10.4625 19.9829 10.4659 19.999 10.4659C20.0151 10.4659 20.031 10.4625 20.0457 10.4558C20.0604 10.4491 20.0735 10.4394 20.0841 10.4273C20.0947 10.4152 20.1026 10.4009 20.1072 10.3855C20.1119 10.3701 20.1132 10.3539 20.111 10.3379C20.1108 10.3084 20.0991 10.2801 20.0783 10.259C20.0576 10.2379 20.0296 10.2257 20 10.2249H19.98ZM27.98 10.2249C27.9536 10.2296 27.9298 10.2436 27.9128 10.2643C27.8957 10.285 27.8866 10.3111 27.887 10.3379C27.8849 10.3539 27.8862 10.3701 27.8908 10.3855C27.8955 10.4009 27.9034 10.4152 27.914 10.4273C27.9246 10.4394 27.9377 10.4491 27.9523 10.4558C27.967 10.4625 27.9829 10.4659 27.999 10.4659C28.0151 10.4659 28.031 10.4625 28.0457 10.4558C28.0604 10.4491 28.0735 10.4394 28.0841 10.4273C28.0947 10.4152 28.1026 10.4009 28.1072 10.3855C28.1119 10.3701 28.1132 10.3539 28.111 10.3379C28.1108 10.3084 28.0991 10.2801 28.0783 10.259C28.0576 10.2379 28.0296 10.2257 28 10.2249H27.98ZM20.002 10.7849C19.987 10.785 19.9722 10.7881 19.9585 10.794C19.9447 10.7998 19.9322 10.8083 19.9217 10.819C19.9112 10.8297 19.9029 10.8423 19.8973 10.8562C19.8917 10.8701 19.8889 10.8849 19.889 10.8999C19.889 10.9619 19.939 11.0099 20.002 11.0099C20.0165 11.01 20.031 11.0073 20.0444 11.0018C20.0579 10.9963 20.0701 10.9883 20.0804 10.978C20.0908 10.9678 20.099 10.9556 20.1045 10.9422C20.1101 10.9288 20.113 10.9144 20.113 10.8999C20.1133 10.87 20.1018 10.8412 20.081 10.8197C20.0603 10.7982 20.0319 10.7857 20.002 10.7849ZM28.002 10.7849C27.987 10.785 27.9722 10.7881 27.9585 10.794C27.9447 10.7998 27.9322 10.8083 27.9217 10.819C27.9112 10.8297 27.9029 10.8423 27.8973 10.8562C27.8917 10.8701 27.8889 10.8849 27.889 10.8999C27.889 10.9619 27.939 11.0099 28.002 11.0099C28.0165 11.01 28.031 11.0073 28.0444 11.0018C28.0579 10.9963 28.0701 10.9883 28.0804 10.978C28.0908 10.9678 28.099 10.9556 28.1045 10.9422C28.1101 10.9288 28.113 10.9144 28.113 10.8999C28.1133 10.87 28.1018 10.8412 28.081 10.8197C28.0603 10.7982 28.0319 10.7857 28.002 10.7849ZM20.002 11.3479C19.9873 11.3478 19.9727 11.3505 19.9591 11.356C19.9454 11.3616 19.933 11.3697 19.9225 11.38C19.912 11.3903 19.9037 11.4026 19.8979 11.4161C19.8922 11.4297 19.8891 11.4442 19.889 11.4589C19.8889 11.4736 19.8917 11.4882 19.8972 11.5018C19.9027 11.5155 19.9108 11.5279 19.9211 11.5384C19.9314 11.5489 19.9437 11.5572 19.9572 11.563C19.9708 11.5687 19.9853 11.5718 20 11.5719C20.0297 11.5722 20.0583 11.5606 20.0795 11.5398C20.1007 11.519 20.1128 11.4906 20.113 11.4609C20.1133 11.4312 20.1017 11.4026 20.0809 11.3814C20.0601 11.3602 20.0317 11.3482 20.002 11.3479ZM28.002 11.3479C27.9873 11.3478 27.9727 11.3505 27.9591 11.356C27.9454 11.3616 27.933 11.3697 27.9225 11.38C27.912 11.3903 27.9037 11.4026 27.8979 11.4161C27.8922 11.4297 27.8891 11.4442 27.889 11.4589C27.8889 11.4736 27.8917 11.4882 27.8972 11.5018C27.9027 11.5155 27.9108 11.5279 27.9211 11.5384C27.9314 11.5489 27.9437 11.5572 27.9572 11.563C27.9708 11.5687 27.9853 11.5718 28 11.5719C28.0297 11.5722 28.0583 11.5606 28.0795 11.5398C28.1007 11.519 28.1128 11.4906 28.113 11.4609C28.1133 11.4312 28.1017 11.4026 28.0809 11.3814C28.0601 11.3602 28.0317 11.3482 28.002 11.3479ZM17.532 11.5619V11.5639C17.4072 11.5658 17.284 11.5925 17.1695 11.6422C17.0551 11.692 16.9516 11.7639 16.865 11.8539L15.057 13.7109C14.886 13.8917 14.793 14.1327 14.7983 14.3815C14.8035 14.6304 14.9065 14.8672 15.085 15.0407C15.2635 15.2142 15.5031 15.3104 15.752 15.3086C16.0009 15.3068 16.2391 15.207 16.415 15.0309L18.223 13.1709C18.3101 13.0819 18.3788 12.9766 18.4251 12.8609C18.4713 12.7453 18.4943 12.6217 18.4926 12.4972C18.491 12.3726 18.4647 12.2497 18.4153 12.1353C18.366 12.021 18.2945 11.9175 18.205 11.8309C18.1159 11.7439 18.0105 11.6753 17.8949 11.6291C17.7792 11.583 17.6555 11.5601 17.531 11.5619H17.532ZM25.09 11.5619V11.5639C24.9654 11.566 24.8424 11.5927 24.7281 11.6424C24.6138 11.6922 24.5104 11.7641 24.424 11.8539L22.615 13.7109C22.4489 13.8925 22.36 14.1317 22.3672 14.3777C22.3744 14.6237 22.4771 14.8573 22.6535 15.0289C22.8299 15.2005 23.0662 15.2967 23.3123 15.297C23.5585 15.2974 23.7951 15.202 23.972 15.0309L25.782 13.1709C25.8691 13.0819 25.9378 12.9766 25.9841 12.8609C26.0303 12.7453 26.0533 12.6217 26.0516 12.4972C26.05 12.3726 26.0237 12.2497 25.9743 12.1353C25.925 12.021 25.8535 11.9175 25.764 11.8309C25.6749 11.7439 25.5695 11.6754 25.4538 11.6292C25.3382 11.583 25.2145 11.5602 25.09 11.5619ZM32.25 11.5619V11.5639C32.1254 11.566 32.0024 11.5927 31.8881 11.6424C31.7738 11.6922 31.6704 11.7641 31.584 11.8539L29.775 13.7109C29.6838 13.799 29.6113 13.9046 29.5617 14.0213C29.5121 14.138 29.4864 14.2635 29.4862 14.3903C29.486 14.5171 29.5113 14.6427 29.5606 14.7595C29.6098 14.8764 29.682 14.9822 29.7729 15.0706C29.8638 15.159 29.9715 15.2283 30.0897 15.2743C30.2079 15.3203 30.3341 15.3421 30.4609 15.3384C30.5876 15.3347 30.7123 15.3055 30.8276 15.2527C30.9429 15.1999 31.0464 15.1245 31.132 15.0309L32.942 13.1709C33.0291 13.0819 33.0978 12.9766 33.1441 12.8609C33.1903 12.7453 33.2133 12.6217 33.2116 12.4972C33.21 12.3726 33.1837 12.2497 33.1343 12.1353C33.085 12.021 33.0135 11.9175 32.924 11.8309C32.8349 11.7439 32.7295 11.6753 32.6139 11.6291C32.4982 11.583 32.3745 11.5601 32.25 11.5619ZM19.992 11.9099C19.9637 11.9134 19.9377 11.9273 19.9192 11.949C19.9007 11.9707 19.891 11.9986 19.892 12.0271C19.893 12.0556 19.9046 12.0827 19.9246 12.103C19.9446 12.1233 19.9715 12.1354 20 12.1369C20.061 12.1369 20.11 12.0849 20.111 12.0229C20.1112 12.0075 20.1082 11.9922 20.1022 11.978C20.0962 11.9639 20.0873 11.9511 20.0761 11.9405C20.065 11.9299 20.0517 11.9217 20.0373 11.9164C20.0228 11.9112 20.0074 11.9089 19.992 11.9099ZM27.992 11.9099C27.9637 11.9134 27.9377 11.9273 27.9192 11.949C27.9007 11.9707 27.891 11.9986 27.892 12.0271C27.893 12.0556 27.9046 12.0827 27.9246 12.103C27.9446 12.1233 27.9715 12.1354 28 12.1369C28.061 12.1369 28.11 12.0849 28.111 12.0229C28.1112 12.0075 28.1082 11.9922 28.1022 11.978C28.0962 11.9639 28.0873 11.9511 28.0761 11.9405C28.065 11.9299 28.0517 11.9217 28.0373 11.9164C28.0228 11.9112 28.0074 11.9089 27.992 11.9099ZM17.596 12.0469H17.598C17.6888 12.0551 17.7745 12.0927 17.842 12.1539C18.248 12.5159 17.765 12.9399 17.59 13.1229L16.725 14.0269C16.117 14.6589 15.853 15.0849 15.43 14.6769C15.07 14.3039 15.39 14.0819 16.078 13.3829L16.943 12.4799C17.148 12.2799 17.36 12.0369 17.596 12.0469ZM25.154 12.0469H25.156C25.2468 12.0551 25.3325 12.0927 25.4 12.1539C25.807 12.5159 25.324 12.9399 25.148 13.1229L24.283 14.0269C23.676 14.6589 23.412 15.0849 22.988 14.6769C22.628 14.3039 22.948 14.0819 23.637 13.3829L24.502 12.4799C24.707 12.2799 24.919 12.0369 25.154 12.0469ZM32.314 12.0469H32.316C32.4068 12.0551 32.4925 12.0927 32.56 12.1539C32.967 12.5159 32.484 12.9399 32.309 13.1229L31.443 14.0269C30.836 14.6589 30.573 15.0849 30.148 14.6769C29.788 14.3039 30.108 14.0819 30.797 13.3829L31.662 12.4799C31.867 12.2799 32.079 12.0369 32.315 12.0469H32.314ZM19.992 12.4719C19.9618 12.473 19.9332 12.486 19.9126 12.5081C19.8919 12.5302 19.881 12.5597 19.882 12.5899C19.8831 12.6201 19.8961 12.6487 19.9182 12.6693C19.9404 12.69 19.9698 12.701 20 12.6999C20.061 12.6999 20.11 12.6479 20.111 12.5869C20.1113 12.5721 20.1086 12.5574 20.1032 12.5437C20.0977 12.5299 20.0896 12.5174 20.0793 12.5068C20.069 12.4962 20.0566 12.4877 20.043 12.4819C20.0294 12.4761 20.0148 12.473 20 12.4729H19.992V12.4719ZM27.992 12.4719C27.9618 12.473 27.9332 12.486 27.9126 12.5081C27.8919 12.5302 27.881 12.5597 27.882 12.5899C27.8831 12.6201 27.8961 12.6487 27.9182 12.6693C27.9404 12.69 27.9698 12.701 28 12.6999C28.061 12.6999 28.11 12.6479 28.111 12.5869C28.1113 12.5721 28.1086 12.5574 28.1032 12.5437C28.0977 12.5299 28.0896 12.5174 28.0793 12.5068C28.069 12.4962 28.0566 12.4877 28.043 12.4819C28.0294 12.4761 28.0148 12.473 28 12.4729H27.992V12.4719ZM19.992 13.0349C19.9627 13.0359 19.9349 13.0485 19.9147 13.0698C19.8945 13.0911 19.8835 13.1195 19.884 13.1488C19.8846 13.1782 19.8966 13.2062 19.9175 13.2267C19.9385 13.2473 19.9667 13.2588 19.996 13.2588C20.0254 13.2588 20.0536 13.2473 20.0745 13.2267C20.0954 13.2062 20.1075 13.1782 20.108 13.1488C20.1085 13.1195 20.0975 13.0911 20.0773 13.0698C20.0571 13.0485 20.0294 13.0359 20 13.0349H19.992ZM27.992 13.0349C27.9627 13.0359 27.9349 13.0485 27.9147 13.0698C27.8945 13.0911 27.8835 13.1195 27.884 13.1488C27.8846 13.1782 27.8966 13.2062 27.9175 13.2267C27.9385 13.2473 27.9667 13.2588 27.996 13.2588C28.0254 13.2588 28.0536 13.2473 28.0745 13.2267C28.0954 13.2062 28.1075 13.1782 28.108 13.1488C28.1085 13.1195 28.0975 13.0911 28.0773 13.0698C28.0571 13.0485 28.0294 13.0359 28 13.0349H27.992ZM19.992 13.5979C19.9627 13.5989 19.9349 13.6115 19.9147 13.6328C19.8945 13.6541 19.8835 13.6825 19.884 13.7118C19.8846 13.7412 19.8966 13.7692 19.9175 13.7897C19.9385 13.8103 19.9667 13.8218 19.996 13.8218C20.0254 13.8218 20.0536 13.8103 20.0745 13.7897C20.0954 13.7692 20.1075 13.7412 20.108 13.7118C20.1085 13.6825 20.0975 13.6541 20.0773 13.6328C20.0571 13.6115 20.0294 13.5989 20 13.5979H19.992ZM27.992 13.5979C27.9627 13.5989 27.9349 13.6115 27.9147 13.6328C27.8945 13.6541 27.8835 13.6825 27.884 13.7118C27.8846 13.7412 27.8966 13.7692 27.9175 13.7897C27.9385 13.8103 27.9667 13.8218 27.996 13.8218C28.0254 13.8218 28.0536 13.8103 28.0745 13.7897C28.0954 13.7692 28.1075 13.7412 28.108 13.7118C28.1085 13.6825 28.0975 13.6541 28.0773 13.6328C28.0571 13.6115 28.0294 13.5989 28 13.5979H27.992ZM19.992 14.1599C19.9773 14.1608 19.9629 14.1646 19.9497 14.1711C19.9365 14.1776 19.9246 14.1866 19.9149 14.1977C19.9051 14.2087 19.8976 14.2216 19.8929 14.2355C19.8881 14.2494 19.8861 14.2642 19.887 14.2789C19.8879 14.2936 19.8917 14.308 19.8982 14.3212C19.9047 14.3345 19.9137 14.3463 19.9248 14.356C19.9358 14.3658 19.9487 14.3733 19.9626 14.3781C19.9766 14.3828 19.9913 14.3848 20.006 14.3839C20.0357 14.382 20.0635 14.3685 20.0832 14.3461C20.1029 14.3238 20.1129 14.2946 20.111 14.2649C20.1092 14.2352 20.0956 14.2074 20.0733 14.1878C20.0509 14.1681 20.0217 14.158 19.992 14.1599ZM27.992 14.1599C27.9773 14.1608 27.9629 14.1646 27.9497 14.1711C27.9365 14.1776 27.9246 14.1866 27.9149 14.1977C27.9051 14.2087 27.8976 14.2216 27.8929 14.2355C27.8881 14.2494 27.8861 14.2642 27.887 14.2789C27.8879 14.2936 27.8917 14.308 27.8982 14.3212C27.9047 14.3345 27.9137 14.3463 27.9248 14.356C27.9358 14.3658 27.9487 14.3733 27.9626 14.3781C27.9766 14.3828 27.9913 14.3848 28.006 14.3839C28.0357 14.382 28.0635 14.3685 28.0832 14.3461C28.1029 14.3238 28.1129 14.2946 28.111 14.2649C28.1092 14.2352 28.0956 14.2074 28.0733 14.1878C28.0509 14.1681 28.0217 14.158 27.992 14.1599ZM19.98 14.7229C19.954 14.7272 19.9303 14.7406 19.9133 14.7608C19.8962 14.7809 19.8869 14.8065 19.887 14.8329C19.8866 14.856 19.8933 14.8787 19.9063 14.8979C19.9192 14.917 19.9376 14.9318 19.9592 14.9401C19.9807 14.9485 20.0043 14.95 20.0268 14.9445C20.0492 14.9391 20.0695 14.9268 20.0848 14.9095C20.1 14.8922 20.1096 14.8706 20.1123 14.8476C20.1149 14.8246 20.1104 14.8014 20.0994 14.7811C20.0885 14.7607 20.0715 14.7443 20.0509 14.7339C20.0302 14.7235 20.0069 14.7196 19.984 14.7229H19.98ZM27.98 14.7229C27.954 14.7272 27.9303 14.7406 27.9133 14.7608C27.8962 14.7809 27.8869 14.8065 27.887 14.8329C27.8866 14.856 27.8933 14.8787 27.9063 14.8979C27.9192 14.917 27.9376 14.9318 27.9592 14.9401C27.9807 14.9485 28.0043 14.95 28.0268 14.9445C28.0492 14.9391 28.0695 14.9268 28.0848 14.9095C28.1 14.8922 28.1096 14.8706 28.1123 14.8476C28.1149 14.8246 28.1104 14.8014 28.0994 14.7811C28.0885 14.7607 28.0715 14.7443 28.0509 14.7339C28.0302 14.7235 28.0069 14.7196 27.984 14.7229H27.98ZM19.98 15.2849C19.9589 15.2883 19.9393 15.2977 19.9233 15.312C19.9074 15.3262 19.8959 15.3447 19.8902 15.3653C19.8844 15.3859 19.8847 15.4076 19.8909 15.4281C19.8971 15.4485 19.909 15.4667 19.9253 15.4806C19.9415 15.4945 19.9614 15.5034 19.9826 15.5064C20.0037 15.5093 20.0253 15.5062 20.0447 15.4972C20.0641 15.4883 20.0806 15.4741 20.0922 15.4561C20.1037 15.4382 20.1099 15.4173 20.11 15.3959C20.11 15.3359 20.061 15.2859 20 15.2849H19.98ZM27.98 15.2849C27.9589 15.2883 27.9393 15.2977 27.9233 15.312C27.9074 15.3262 27.8959 15.3447 27.8902 15.3653C27.8844 15.3859 27.8847 15.4076 27.8909 15.4281C27.8971 15.4485 27.909 15.4667 27.9253 15.4806C27.9415 15.4945 27.9614 15.5034 27.9826 15.5064C28.0037 15.5093 28.0253 15.5062 28.0447 15.4972C28.0641 15.4883 28.0806 15.4741 28.0922 15.4561C28.1037 15.4382 28.1099 15.4173 28.11 15.3959C28.11 15.3359 28.061 15.2859 28 15.2849H27.98ZM20.002 15.8449C19.9722 15.8446 19.9435 15.8562 19.9222 15.8771C19.9009 15.8981 19.8888 15.9266 19.8885 15.9564C19.8883 15.9862 19.8999 16.015 19.9208 16.0362C19.9417 16.0575 19.9702 16.0696 20 16.0699C20.0147 16.07 20.0293 16.0673 20.043 16.0618C20.0566 16.0563 20.069 16.0481 20.0795 16.0378C20.09 16.0275 20.0984 16.0152 20.1041 16.0017C20.1099 15.9881 20.1129 15.9736 20.113 15.9589C20.1131 15.9442 20.1104 15.9296 20.1049 15.916C20.0994 15.9023 20.0912 15.8899 20.0809 15.8794C20.0706 15.8689 20.0583 15.8606 20.0448 15.8548C20.0313 15.8491 20.0167 15.846 20.002 15.8459V15.8449ZM28.002 15.8449C27.9872 15.8448 27.9726 15.8475 27.9589 15.8531C27.9452 15.8586 27.9327 15.8668 27.9222 15.8771C27.9116 15.8875 27.9032 15.8998 27.8975 15.9134C27.8917 15.927 27.8886 15.9416 27.8885 15.9564C27.8884 15.9712 27.8912 15.9858 27.8967 15.9995C27.9022 16.0132 27.9104 16.0257 27.9208 16.0362C27.9311 16.0468 27.9434 16.0552 27.957 16.061C27.9706 16.0667 27.9852 16.0698 28 16.0699C28.0147 16.07 28.0293 16.0673 28.043 16.0618C28.0566 16.0563 28.069 16.0481 28.0795 16.0378C28.09 16.0275 28.0984 16.0152 28.1041 16.0017C28.1099 15.9881 28.1129 15.9736 28.113 15.9589C28.1131 15.9442 28.1104 15.9296 28.1049 15.916C28.0994 15.9023 28.0912 15.8899 28.0809 15.8794C28.0706 15.8689 28.0583 15.8606 28.0448 15.8548C28.0313 15.8491 28.0167 15.846 28.002 15.8459V15.8449ZM19.992 16.4079C19.9634 16.4097 19.9365 16.4224 19.917 16.4434C19.8974 16.4645 19.8867 16.4922 19.887 16.5209C19.887 16.5829 19.937 16.6339 20 16.6329C20.0148 16.6324 20.0293 16.6289 20.0428 16.6228C20.0562 16.6167 20.0683 16.6079 20.0784 16.5971C20.0885 16.5863 20.0963 16.5736 20.1015 16.5598C20.1067 16.5459 20.109 16.5312 20.1085 16.5164C20.108 16.5016 20.1046 16.4871 20.0984 16.4737C20.0923 16.4602 20.0836 16.4481 20.0727 16.438C20.0619 16.4279 20.0492 16.4201 20.0354 16.4149C20.0215 16.4098 20.0068 16.4074 19.992 16.4079ZM27.992 16.4079C27.9634 16.4097 27.9365 16.4224 27.917 16.4434C27.8974 16.4645 27.8867 16.4922 27.887 16.5209C27.887 16.5829 27.937 16.6339 28 16.6329C28.0148 16.6324 28.0293 16.6289 28.0428 16.6228C28.0562 16.6167 28.0683 16.6079 28.0784 16.5971C28.0885 16.5863 28.0963 16.5736 28.1015 16.5598C28.1067 16.5459 28.109 16.5312 28.1085 16.5164C28.108 16.5016 28.1046 16.4871 28.0984 16.4737C28.0923 16.4602 28.0836 16.4481 28.0727 16.438C28.0619 16.4279 28.0492 16.4201 28.0354 16.4149C28.0215 16.4098 28.0068 16.4074 27.992 16.4079ZM17.532 16.8219V16.8239C17.4072 16.8258 17.284 16.8525 17.1695 16.9022C17.0551 16.952 16.9516 17.0239 16.865 17.1139L15.057 18.9709C14.9684 19.0597 14.8982 19.1651 14.8507 19.2812C14.8031 19.3973 14.7791 19.5217 14.78 19.6472C14.7809 19.7726 14.8068 19.8966 14.856 20.012C14.9053 20.1274 14.977 20.2318 15.0669 20.3193C15.1569 20.4067 15.2633 20.4754 15.38 20.5214C15.4968 20.5673 15.6215 20.5896 15.7469 20.587C15.8723 20.5843 15.996 20.5568 16.1107 20.506C16.2254 20.4552 16.3288 20.382 16.415 20.2909L18.223 18.4309C18.3551 18.2972 18.4443 18.1272 18.4793 17.9425C18.5142 17.7579 18.4934 17.567 18.4193 17.3943C18.3452 17.2216 18.2213 17.0749 18.0635 16.9729C17.9056 16.8709 17.7209 16.8184 17.533 16.8219H17.531H17.532ZM25.09 16.8219V16.8239C24.9654 16.826 24.8424 16.8527 24.7281 16.9024C24.6138 16.9522 24.5104 17.0241 24.424 17.1139L22.615 18.9709C22.5238 19.059 22.4513 19.1646 22.4017 19.2813C22.3521 19.398 22.3264 19.5235 22.3262 19.6503C22.326 19.7771 22.3513 19.9027 22.4006 20.0195C22.4498 20.1364 22.522 20.2422 22.6129 20.3306C22.7038 20.419 22.8115 20.4883 22.9297 20.5343C23.0479 20.5803 23.1741 20.6021 23.3009 20.5984C23.4276 20.5947 23.5523 20.5655 23.6676 20.5127C23.7829 20.4599 23.8864 20.3845 23.972 20.2909L25.782 18.4309C25.9141 18.2972 26.0033 18.1272 26.0383 17.9425C26.0732 17.7579 26.0524 17.567 25.9783 17.3943C25.9042 17.2216 25.7803 17.0749 25.6225 16.9729C25.4646 16.8709 25.2799 16.8184 25.092 16.8219H25.09ZM32.25 16.8219V16.8239C32.1254 16.8259 32.0023 16.8526 31.888 16.9024C31.7737 16.9521 31.6704 17.024 31.584 17.1139L29.775 18.9709C29.6838 19.059 29.6113 19.1646 29.5617 19.2813C29.5121 19.398 29.4864 19.5235 29.4862 19.6503C29.486 19.7771 29.5113 19.9027 29.5606 20.0195C29.6098 20.1364 29.682 20.2422 29.7729 20.3306C29.8638 20.419 29.9715 20.4883 30.0897 20.5343C30.2079 20.5803 30.3341 20.6021 30.4609 20.5984C30.5876 20.5947 30.7123 20.5655 30.8276 20.5127C30.9429 20.4599 31.0464 20.3845 31.132 20.2909L32.942 18.4309C33.0741 18.2972 33.1633 18.1272 33.1983 17.9425C33.2332 17.7579 33.2124 17.567 33.1383 17.3943C33.0642 17.2216 32.9403 17.0749 32.7825 16.9729C32.6246 16.8709 32.4399 16.8184 32.252 16.8219H32.25ZM19.992 16.9709C19.9634 16.9727 19.9365 16.9854 19.917 17.0064C19.8974 17.0275 19.8867 17.0552 19.887 17.0839C19.887 17.1459 19.937 17.1959 20 17.1949C20.0148 17.1944 20.0293 17.1909 20.0428 17.1848C20.0562 17.1787 20.0683 17.1699 20.0784 17.1591C20.0885 17.1483 20.0963 17.1356 20.1015 17.1218C20.1067 17.1079 20.109 17.0932 20.1085 17.0784C20.108 17.0636 20.1046 17.0491 20.0984 17.0357C20.0923 17.0222 20.0836 17.0101 20.0727 17C20.0619 16.9899 20.0492 16.9821 20.0354 16.9769C20.0215 16.9718 20.0068 16.9694 19.992 16.9699V16.9709ZM27.992 16.9709C27.9634 16.9727 27.9365 16.9854 27.917 17.0064C27.8974 17.0275 27.8867 17.0552 27.887 17.0839C27.887 17.1459 27.937 17.1959 28 17.1949C28.0148 17.1944 28.0293 17.1909 28.0428 17.1848C28.0562 17.1787 28.0683 17.1699 28.0784 17.1591C28.0885 17.1483 28.0963 17.1356 28.1015 17.1218C28.1067 17.1079 28.109 17.0932 28.1085 17.0784C28.108 17.0636 28.1046 17.0491 28.0984 17.0357C28.0923 17.0222 28.0836 17.0101 28.0727 17C28.0619 16.9899 28.0492 16.9821 28.0354 16.9769C28.0215 16.9718 28.0068 16.9694 27.992 16.9699V16.9709ZM17.596 17.3049V17.3069C17.6871 17.315 17.7732 17.3518 17.842 17.4119C18.248 17.7739 17.765 18.1969 17.59 18.3809L16.725 19.2849C16.117 19.9159 15.853 20.3429 15.43 19.9349C15.07 19.5619 15.388 19.3399 16.076 18.6409L16.941 17.7359C17.147 17.5359 17.359 17.2929 17.596 17.3049ZM25.154 17.3049V17.3069C25.2451 17.315 25.3312 17.3518 25.4 17.4119C25.807 17.7739 25.324 18.1969 25.148 18.3809L24.283 19.2849C23.676 19.9159 23.412 20.3429 22.988 19.9349C22.628 19.5619 22.947 19.3389 23.635 18.6409L24.5 17.7359C24.705 17.5359 24.918 17.2929 25.154 17.3049ZM32.314 17.3049V17.3069C32.4051 17.3149 32.4912 17.3517 32.56 17.4119C32.967 17.7739 32.484 18.1969 32.309 18.3809L31.443 19.2849C30.836 19.9159 30.573 20.3429 30.148 19.9349C29.788 19.5619 30.107 19.3389 30.795 18.6409L31.66 17.7359C31.866 17.5359 32.078 17.2929 32.315 17.3049H32.314ZM19.992 17.5329C19.9773 17.5338 19.9629 17.5376 19.9497 17.5441C19.9365 17.5506 19.9246 17.5596 19.9149 17.5707C19.9051 17.5817 19.8976 17.5946 19.8929 17.6085C19.8881 17.6224 19.8861 17.6372 19.887 17.6519C19.8879 17.6666 19.8917 17.681 19.8982 17.6942C19.9047 17.7075 19.9137 17.7193 19.9248 17.729C19.9358 17.7388 19.9487 17.7463 19.9626 17.7511C19.9766 17.7558 19.9913 17.7578 20.006 17.7569C20.0357 17.755 20.0635 17.7415 20.0832 17.7191C20.1029 17.6968 20.1129 17.6676 20.111 17.6379C20.1092 17.6082 20.0956 17.5804 20.0733 17.5608C20.0509 17.5411 20.0217 17.531 19.992 17.5329ZM27.992 17.5329C27.9773 17.5338 27.9629 17.5376 27.9497 17.5441C27.9365 17.5506 27.9246 17.5596 27.9149 17.5707C27.9051 17.5817 27.8976 17.5946 27.8929 17.6085C27.8881 17.6224 27.8861 17.6372 27.887 17.6519C27.8879 17.6666 27.8917 17.681 27.8982 17.6942C27.9047 17.7075 27.9137 17.7193 27.9248 17.729C27.9358 17.7388 27.9487 17.7463 27.9626 17.7511C27.9766 17.7558 27.9913 17.7578 28.006 17.7569C28.0357 17.755 28.0635 17.7415 28.0832 17.7191C28.1029 17.6968 28.1129 17.6676 28.111 17.6379C28.1092 17.6082 28.0956 17.5804 28.0733 17.5608C28.0509 17.5411 28.0217 17.531 27.992 17.5329ZM19.992 18.0959C19.9773 18.0968 19.9629 18.1006 19.9497 18.1071C19.9365 18.1136 19.9246 18.1226 19.9149 18.1337C19.9051 18.1447 19.8976 18.1576 19.8929 18.1715C19.8881 18.1854 19.8861 18.2002 19.887 18.2149C19.8879 18.2296 19.8917 18.244 19.8982 18.2572C19.9047 18.2705 19.9137 18.2823 19.9248 18.292C19.9358 18.3018 19.9487 18.3093 19.9626 18.3141C19.9766 18.3188 19.9913 18.3208 20.006 18.3199C20.0357 18.318 20.0635 18.3045 20.0832 18.2821C20.1029 18.2598 20.1129 18.2306 20.111 18.2009C20.1092 18.1712 20.0956 18.1434 20.0733 18.1238C20.0509 18.1041 20.0217 18.094 19.992 18.0959ZM27.992 18.0959C27.9773 18.0968 27.9629 18.1006 27.9497 18.1071C27.9365 18.1136 27.9246 18.1226 27.9149 18.1337C27.9051 18.1447 27.8976 18.1576 27.8929 18.1715C27.8881 18.1854 27.8861 18.2002 27.887 18.2149C27.8879 18.2296 27.8917 18.244 27.8982 18.2572C27.9047 18.2705 27.9137 18.2823 27.9248 18.292C27.9358 18.3018 27.9487 18.3093 27.9626 18.3141C27.9766 18.3188 27.9913 18.3208 28.006 18.3199C28.0357 18.318 28.0635 18.3045 28.0832 18.2821C28.1029 18.2598 28.1129 18.2306 28.111 18.2009C28.1092 18.1712 28.0956 18.1434 28.0733 18.1238C28.0509 18.1041 28.0217 18.094 27.992 18.0959ZM19.992 18.6579C19.964 18.6614 19.9382 18.6752 19.9199 18.6967C19.9015 18.7182 19.8919 18.7458 19.8929 18.7741C19.8939 18.8023 19.9055 18.8292 19.9253 18.8493C19.9451 18.8695 19.9718 18.8814 20 18.8829C20.0148 18.8824 20.0293 18.8789 20.0428 18.8728C20.0562 18.8667 20.0683 18.8579 20.0784 18.8471C20.0885 18.8363 20.0963 18.8236 20.1015 18.8098C20.1067 18.7959 20.109 18.7812 20.1085 18.7664C20.108 18.7516 20.1046 18.7371 20.0984 18.7237C20.0923 18.7102 20.0836 18.6981 20.0727 18.688C20.0619 18.6779 20.0492 18.6701 20.0354 18.6649C20.0215 18.6598 20.0068 18.6574 19.992 18.6579ZM27.992 18.6579C27.964 18.6614 27.9382 18.6752 27.9199 18.6967C27.9015 18.7182 27.8919 18.7458 27.8929 18.7741C27.8939 18.8023 27.9055 18.8292 27.9253 18.8493C27.9451 18.8695 27.9718 18.8814 28 18.8829C28.0148 18.8824 28.0293 18.8789 28.0428 18.8728C28.0562 18.8667 28.0683 18.8579 28.0784 18.8471C28.0885 18.8363 28.0963 18.8236 28.1015 18.8098C28.1067 18.7959 28.109 18.7812 28.1085 18.7664C28.108 18.7516 28.1046 18.7371 28.0984 18.7237C28.0923 18.7102 28.0836 18.6981 28.0727 18.688C28.0619 18.6779 28.0492 18.6701 28.0354 18.6649C28.0215 18.6598 28.0068 18.6574 27.992 18.6579ZM19.98 19.2209C19.954 19.2252 19.9303 19.2386 19.9133 19.2588C19.8962 19.2789 19.8869 19.3045 19.887 19.3309C19.8866 19.3531 19.8928 19.3749 19.9048 19.3936C19.9169 19.4122 19.9342 19.4269 19.9545 19.4357C19.9749 19.4445 19.9974 19.4471 20.0192 19.4431C20.0411 19.439 20.0612 19.4286 20.0771 19.4132C20.093 19.3977 20.104 19.3778 20.1086 19.3561C20.1132 19.3344 20.1112 19.3118 20.103 19.2912C20.0947 19.2706 20.0805 19.2529 20.0622 19.2404C20.0438 19.2279 20.0222 19.2211 20 19.2209H19.98ZM27.98 19.2209C27.954 19.2252 27.9303 19.2386 27.9133 19.2588C27.8962 19.2789 27.8869 19.3045 27.887 19.3309C27.8866 19.3531 27.8928 19.3749 27.9048 19.3936C27.9169 19.4122 27.9342 19.4269 27.9545 19.4357C27.9749 19.4445 27.9974 19.4471 28.0192 19.4431C28.0411 19.439 28.0612 19.4286 28.0771 19.4132C28.093 19.3977 28.104 19.3778 28.1086 19.3561C28.1132 19.3344 28.1112 19.3118 28.103 19.2912C28.0947 19.2706 28.0805 19.2529 28.0622 19.2404C28.0438 19.2279 28.0222 19.2211 28 19.2209H27.98ZM20.002 19.7809C19.9872 19.7808 19.9726 19.7835 19.9589 19.7891C19.9452 19.7946 19.9327 19.8028 19.9222 19.8131C19.9116 19.8235 19.9032 19.8358 19.8975 19.8494C19.8917 19.863 19.8886 19.8776 19.8885 19.8924C19.8884 19.9072 19.8912 19.9218 19.8967 19.9355C19.9022 19.9492 19.9104 19.9617 19.9208 19.9722C19.9311 19.9828 19.9434 19.9912 19.957 19.997C19.9706 20.0027 19.9852 20.0058 20 20.0059C20.0299 20.0062 20.0586 19.9946 20.0799 19.9737C20.1011 19.9527 20.1133 19.9242 20.1135 19.8944C20.1138 19.8646 20.1022 19.8358 20.0813 19.8146C20.0604 19.7933 20.0319 19.7812 20.002 19.7809ZM28.002 19.7809C27.9872 19.7808 27.9726 19.7835 27.9589 19.7891C27.9452 19.7946 27.9327 19.8028 27.9222 19.8131C27.9116 19.8235 27.9032 19.8358 27.8975 19.8494C27.8917 19.863 27.8886 19.8776 27.8885 19.8924C27.8884 19.9072 27.8912 19.9218 27.8967 19.9355C27.9022 19.9492 27.9104 19.9617 27.9208 19.9722C27.9311 19.9828 27.9434 19.9912 27.957 19.997C27.9706 20.0027 27.9852 20.0058 28 20.0059C28.0299 20.0062 28.0586 19.9946 28.0799 19.9737C28.1011 19.9527 28.1133 19.9242 28.1135 19.8944C28.1138 19.8646 28.1022 19.8358 28.0813 19.8146C28.0604 19.7933 28.0319 19.7812 28.002 19.7809ZM19.992 20.3439C19.9634 20.3457 19.9365 20.3584 19.917 20.3794C19.8974 20.4005 19.8867 20.4282 19.887 20.4569C19.887 20.5189 19.937 20.5689 20 20.5679C20.0297 20.5679 20.0582 20.5561 20.0792 20.5351C20.1002 20.5141 20.112 20.4856 20.112 20.4559C20.112 20.4262 20.1002 20.3977 20.0792 20.3767C20.0582 20.3557 20.0297 20.3439 20 20.3439H19.992ZM27.992 20.3439C27.9634 20.3457 27.9365 20.3584 27.917 20.3794C27.8974 20.4005 27.8867 20.4282 27.887 20.4569C27.887 20.5189 27.937 20.5689 28 20.5679C28.0297 20.5679 28.0582 20.5561 28.0792 20.5351C28.1002 20.5141 28.112 20.4856 28.112 20.4559C28.112 20.4262 28.1002 20.3977 28.0792 20.3767C28.0582 20.3557 28.0297 20.3439 28 20.3439H27.992ZM19.992 20.9059C19.9772 20.9064 19.9627 20.9099 19.9493 20.916C19.9358 20.9221 19.9237 20.9309 19.9136 20.9417C19.8933 20.9635 19.8825 20.9926 19.8835 21.0224C19.8846 21.0522 19.8974 21.0804 19.9193 21.1008C19.9411 21.1211 19.9702 21.132 20 21.1309C20.061 21.1309 20.11 21.0809 20.111 21.0189C20.1111 21.0042 20.1084 20.9896 20.1029 20.976C20.0974 20.9623 20.0892 20.9499 20.0789 20.9394C20.0686 20.9289 20.0563 20.9206 20.0428 20.9148C20.0293 20.9091 20.0147 20.906 20 20.9059H19.992ZM27.992 20.9059C27.9772 20.9064 27.9627 20.9099 27.9493 20.916C27.9358 20.9221 27.9237 20.9309 27.9136 20.9417C27.8933 20.9635 27.8825 20.9926 27.8835 21.0224C27.8846 21.0522 27.8974 21.0804 27.9193 21.1008C27.9411 21.1211 27.9702 21.132 28 21.1309C28.061 21.1309 28.11 21.0809 28.111 21.0189C28.1111 21.0042 28.1084 20.9896 28.1029 20.976C28.0974 20.9623 28.0892 20.9499 28.0789 20.9394C28.0686 20.9289 28.0563 20.9206 28.0428 20.9148C28.0293 20.9091 28.0147 20.906 28 20.9059H27.992ZM19.992 21.4689C19.9634 21.4707 19.9365 21.4834 19.917 21.5044C19.8974 21.5255 19.8867 21.5532 19.887 21.5819C19.887 21.6439 19.937 21.6939 20 21.6929C20.061 21.6929 20.11 21.6429 20.111 21.5819C20.1111 21.5672 20.1084 21.5526 20.1029 21.539C20.0974 21.5253 20.0892 21.5129 20.0789 21.5024C20.0686 21.4919 20.0563 21.4836 20.0428 21.4778C20.0293 21.4721 20.0147 21.469 20 21.4689H19.992ZM27.992 21.4689C27.9634 21.4707 27.9365 21.4834 27.917 21.5044C27.8974 21.5255 27.8867 21.5532 27.887 21.5819C27.887 21.6439 27.937 21.6939 28 21.6929C28.061 21.6929 28.11 21.6429 28.111 21.5819C28.1111 21.5672 28.1084 21.5526 28.1029 21.539C28.0974 21.5253 28.0892 21.5129 28.0789 21.5024C28.0686 21.4919 28.0563 21.4836 28.0428 21.4778C28.0293 21.4721 28.0147 21.469 28 21.4689H27.992ZM19.992 22.0309C19.9622 22.0328 19.9343 22.0464 19.9145 22.0688C19.8947 22.0912 19.8847 22.1206 19.8865 22.1504C19.8884 22.1802 19.902 22.2081 19.9244 22.2279C19.9468 22.2477 19.9762 22.2578 20.006 22.2559C20.0208 22.255 20.0352 22.2512 20.0485 22.2447C20.0618 22.2382 20.0737 22.2291 20.0835 22.218C20.0933 22.2069 20.1008 22.194 20.1056 22.18C20.1104 22.166 20.1124 22.1512 20.1115 22.1364C20.1106 22.1216 20.1068 22.1072 20.1003 22.0939C20.0938 22.0806 20.0847 22.0687 20.0736 22.0589C20.0625 22.0491 20.0496 22.0416 20.0356 22.0368C20.0216 22.032 20.0068 22.03 19.992 22.0309ZM27.992 22.0309C27.9622 22.0328 27.9343 22.0464 27.9145 22.0688C27.8947 22.0912 27.8847 22.1206 27.8865 22.1504C27.8884 22.1802 27.902 22.2081 27.9244 22.2279C27.9468 22.2477 27.9762 22.2578 28.006 22.2559C28.0208 22.255 28.0352 22.2512 28.0485 22.2447C28.0618 22.2382 28.0737 22.2291 28.0835 22.218C28.0933 22.2069 28.1008 22.194 28.1056 22.18C28.1104 22.166 28.1124 22.1512 28.1115 22.1364C28.1106 22.1216 28.1068 22.1072 28.1003 22.0939C28.0938 22.0806 28.0847 22.0687 28.0736 22.0589C28.0625 22.0491 28.0496 22.0416 28.0356 22.0368C28.0216 22.032 28.0068 22.03 27.992 22.0309ZM17.533 22.0799V22.0819C17.4084 22.0838 17.2855 22.1103 17.1712 22.1599C17.0569 22.2095 16.9535 22.2812 16.867 22.3709L15.059 24.2279C14.9718 24.3168 14.9031 24.4221 14.8567 24.5377C14.8104 24.6533 14.7873 24.7769 14.7889 24.9014C14.7905 25.026 14.8167 25.1489 14.8659 25.2633C14.9152 25.3777 14.9866 25.4812 15.076 25.5679C15.1651 25.6549 15.2706 25.7234 15.3863 25.7695C15.502 25.8156 15.6256 25.8384 15.7502 25.8365C15.8747 25.8347 15.9976 25.8082 16.1119 25.7587C16.2262 25.7091 16.3295 25.6375 16.416 25.5479L18.225 23.6889C18.3121 23.5999 18.3808 23.4946 18.4271 23.3789C18.4733 23.2633 18.4963 23.1397 18.4946 23.0152C18.493 22.8906 18.4667 22.7677 18.4173 22.6533C18.368 22.539 18.2965 22.4355 18.207 22.3489C18.1179 22.2619 18.0125 22.1933 17.8969 22.1471C17.7812 22.101 17.6575 22.0781 17.533 22.0799ZM25.092 22.0799V22.0819C24.9674 22.0838 24.8445 22.1103 24.7302 22.1599C24.6159 22.2095 24.5125 22.2812 24.426 22.3709L22.617 24.2279C22.5299 24.3169 22.4612 24.4222 22.415 24.5379C22.3687 24.6535 22.3457 24.7771 22.3474 24.9016C22.3491 25.0262 22.3754 25.1491 22.4247 25.2635C22.4741 25.3778 22.5455 25.4813 22.635 25.5679C22.7241 25.6549 22.8296 25.7234 22.9453 25.7695C23.061 25.8156 23.1846 25.8384 23.3092 25.8365C23.4337 25.8347 23.5566 25.8082 23.6709 25.7587C23.7852 25.7091 23.8885 25.6375 23.975 25.5479L25.783 23.6889C25.8702 23.6 25.9389 23.4947 25.9853 23.3791C26.0317 23.2635 26.0547 23.1399 26.0531 23.0154C26.0515 22.8908 26.0254 22.7679 25.9761 22.6535C25.9268 22.5391 25.8554 22.4356 25.766 22.3489C25.6769 22.2619 25.5715 22.1933 25.4559 22.1471C25.3402 22.101 25.2165 22.0781 25.092 22.0799ZM32.252 22.0799V22.0819C32.1274 22.0838 32.0045 22.1104 31.8902 22.16C31.7759 22.2096 31.6725 22.2812 31.586 22.3709L29.777 24.2279C29.6899 24.3169 29.6212 24.4222 29.575 24.5379C29.5287 24.6535 29.5057 24.7771 29.5074 24.9016C29.5091 25.0262 29.5354 25.1491 29.5847 25.2635C29.6341 25.3778 29.7055 25.4813 29.795 25.5679C29.8841 25.6549 29.9896 25.7234 30.1053 25.7695C30.221 25.8156 30.3446 25.8384 30.4692 25.8365C30.5937 25.8347 30.7166 25.8082 30.8309 25.7587C30.9452 25.7091 31.0485 25.6375 31.135 25.5479L32.943 23.6889C33.0302 23.6 33.0989 23.4947 33.1453 23.3791C33.1917 23.2635 33.2147 23.1399 33.2131 23.0154C33.2115 22.8908 33.1854 22.7679 33.1361 22.6535C33.0868 22.5391 33.0154 22.4356 32.926 22.3489C32.8369 22.2619 32.7315 22.1933 32.6159 22.1471C32.5002 22.101 32.3765 22.0781 32.252 22.0799ZM17.598 22.5639V22.5659C17.676 22.5699 17.757 22.6039 17.842 22.6719C18.248 23.0329 17.767 23.4549 17.592 23.6389L16.727 24.5429C16.119 25.1739 15.855 25.6009 15.432 25.1929C15.072 24.8199 15.39 24.5989 16.078 23.8999L16.943 22.9959C17.149 22.7949 17.361 22.5529 17.598 22.5639ZM25.156 22.5639V22.5659C25.235 22.5699 25.316 22.6039 25.4 22.6719C25.807 23.0329 25.326 23.4549 25.15 23.6389L24.285 24.5429C23.678 25.1739 23.414 25.6009 22.99 25.1929C22.63 24.8199 22.949 24.5989 23.637 23.8999L24.502 22.9959C24.707 22.7949 24.92 22.5529 25.156 22.5639ZM32.316 22.5639V22.5659C32.396 22.5699 32.476 22.6039 32.56 22.6719C32.967 23.0329 32.486 23.4549 32.31 23.6389L31.445 24.5429C30.838 25.1739 30.574 25.6009 30.15 25.1929C29.79 24.8199 30.109 24.5989 30.797 23.8999L31.662 22.9959C31.868 22.7949 32.08 22.5529 32.316 22.5639ZM19.992 22.5939C19.9773 22.5948 19.9629 22.5986 19.9497 22.6051C19.9365 22.6116 19.9246 22.6206 19.9149 22.6317C19.9051 22.6427 19.8976 22.6556 19.8929 22.6695C19.8881 22.6834 19.8861 22.6982 19.887 22.7129C19.8879 22.7276 19.8917 22.742 19.8982 22.7552C19.9047 22.7685 19.9137 22.7803 19.9248 22.79C19.9358 22.7998 19.9487 22.8073 19.9626 22.8121C19.9766 22.8168 19.9913 22.8188 20.006 22.8179C20.0357 22.816 20.0635 22.8025 20.0832 22.7801C20.1029 22.7578 20.1129 22.7286 20.111 22.6989C20.1092 22.6692 20.0956 22.6414 20.0733 22.6218C20.0509 22.6021 20.0217 22.592 19.992 22.5939ZM27.992 22.5939C27.9773 22.5948 27.9629 22.5986 27.9497 22.6051C27.9365 22.6116 27.9246 22.6206 27.9149 22.6317C27.9051 22.6427 27.8976 22.6556 27.8929 22.6695C27.8881 22.6834 27.8861 22.6982 27.887 22.7129C27.8879 22.7276 27.8917 22.742 27.8982 22.7552C27.9047 22.7685 27.9137 22.7803 27.9248 22.79C27.9358 22.7998 27.9487 22.8073 27.9626 22.8121C27.9766 22.8168 27.9913 22.8188 28.006 22.8179C28.0357 22.816 28.0635 22.8025 28.0832 22.7801C28.1029 22.7578 28.1129 22.7286 28.111 22.6989C28.1092 22.6692 28.0956 22.6414 28.0733 22.6218C28.0509 22.6021 28.0217 22.592 27.992 22.5939ZM19.992 23.1559C19.9627 23.1569 19.9349 23.1695 19.9147 23.1908C19.8945 23.2121 19.8835 23.2405 19.884 23.2698C19.8846 23.2992 19.8966 23.3272 19.9175 23.3477C19.9385 23.3683 19.9667 23.3798 19.996 23.3798C20.0254 23.3798 20.0536 23.3683 20.0745 23.3477C20.0954 23.3272 20.1075 23.2992 20.108 23.2698C20.1085 23.2405 20.0975 23.2121 20.0773 23.1908C20.0571 23.1695 20.0294 23.1569 20 23.1559H19.992ZM27.992 23.1559C27.9627 23.1569 27.9349 23.1695 27.9147 23.1908C27.8945 23.2121 27.8835 23.2405 27.884 23.2698C27.8846 23.2992 27.8966 23.3272 27.9175 23.3477C27.9385 23.3683 27.9667 23.3798 27.996 23.3798C28.0254 23.3798 28.0536 23.3683 28.0745 23.3477C28.0954 23.3272 28.1075 23.2992 28.108 23.2698C28.1085 23.2405 28.0975 23.2121 28.0773 23.1908C28.0571 23.1695 28.0294 23.1569 28 23.1559H27.992ZM19.98 23.7189C19.9538 23.7232 19.93 23.7368 19.9129 23.7571C19.8959 23.7775 19.8867 23.8033 19.887 23.8299C19.8868 23.8521 19.8932 23.8738 19.9053 23.8923C19.9175 23.9108 19.9348 23.9253 19.9552 23.934C19.9756 23.9426 19.9981 23.9451 20.0199 23.9409C20.0416 23.9368 20.0617 23.9263 20.0775 23.9108C20.0933 23.8953 20.1041 23.8754 20.1087 23.8537C20.1132 23.832 20.1112 23.8095 20.1029 23.789C20.0946 23.7684 20.0804 23.7508 20.0621 23.7383C20.0438 23.7259 20.0222 23.7191 20 23.7189H19.98ZM27.98 23.7189C27.9538 23.7232 27.93 23.7368 27.9129 23.7571C27.8959 23.7775 27.8867 23.8033 27.887 23.8299C27.8868 23.8521 27.8932 23.8738 27.9053 23.8923C27.9175 23.9108 27.9348 23.9253 27.9552 23.934C27.9756 23.9426 27.9981 23.9451 28.0199 23.9409C28.0416 23.9368 28.0617 23.9263 28.0775 23.9108C28.0933 23.8953 28.1041 23.8754 28.1087 23.8537C28.1132 23.832 28.1112 23.8095 28.1029 23.789C28.0946 23.7684 28.0804 23.7508 28.0621 23.7383C28.0438 23.7259 28.0222 23.7191 28 23.7189H27.98ZM19.98 24.2809C19.9537 24.285 19.9298 24.2985 19.9127 24.3189C19.8956 24.3394 19.8865 24.3653 19.887 24.3919C19.887 24.4539 19.937 24.5049 20 24.5039C20.061 24.5039 20.11 24.4539 20.111 24.3919C20.111 24.3319 20.061 24.2819 20 24.2819H19.98V24.2809ZM27.98 24.2809C27.9537 24.285 27.9298 24.2985 27.9127 24.3189C27.8956 24.3394 27.8865 24.3653 27.887 24.3919C27.887 24.4539 27.937 24.5049 28 24.5039C28.061 24.5039 28.11 24.4539 28.111 24.3919C28.111 24.3319 28.061 24.2819 28 24.2819H27.98V24.2809ZM19.992 24.8409C19.9632 24.8427 19.9362 24.8556 19.9166 24.8768C19.897 24.898 19.8864 24.926 19.887 24.9549C19.887 25.0169 19.937 25.0669 20 25.0659C20.0148 25.0654 20.0293 25.0619 20.0428 25.0558C20.0562 25.0497 20.0683 25.0409 20.0784 25.0301C20.0885 25.0193 20.0963 25.0066 20.1015 24.9928C20.1067 24.9789 20.109 24.9642 20.1085 24.9494C20.108 24.9346 20.1046 24.9201 20.0984 24.9067C20.0923 24.8932 20.0836 24.8811 20.0727 24.871C20.0619 24.8609 20.0492 24.8531 20.0354 24.8479C20.0215 24.8428 20.0068 24.8404 19.992 24.8409ZM27.992 24.8409C27.9632 24.8427 27.9362 24.8556 27.9166 24.8768C27.897 24.898 27.8864 24.926 27.887 24.9549C27.887 25.0169 27.937 25.0669 28 25.0659C28.0148 25.0654 28.0293 25.0619 28.0428 25.0558C28.0562 25.0497 28.0683 25.0409 28.0784 25.0301C28.0885 25.0193 28.0963 25.0066 28.1015 24.9928C28.1067 24.9789 28.109 24.9642 28.1085 24.9494C28.108 24.9346 28.1046 24.9201 28.0984 24.9067C28.0923 24.8932 28.0836 24.8811 28.0727 24.871C28.0619 24.8609 28.0492 24.8531 28.0354 24.8479C28.0215 24.8428 28.0068 24.8404 27.992 24.8409ZM19.992 25.4039C19.9627 25.4049 19.9349 25.4175 19.9147 25.4388C19.8945 25.4601 19.8835 25.4885 19.884 25.5178C19.8846 25.5472 19.8966 25.5752 19.9175 25.5957C19.9385 25.6163 19.9667 25.6278 19.996 25.6278C20.0254 25.6278 20.0536 25.6163 20.0745 25.5957C20.0954 25.5752 20.1075 25.5472 20.108 25.5178C20.1085 25.4885 20.0975 25.4601 20.0773 25.4388C20.0571 25.4175 20.0294 25.4049 20 25.4039C19.9974 25.4038 19.9947 25.4038 19.992 25.4039ZM27.992 25.4039C27.9627 25.4049 27.9349 25.4175 27.9147 25.4388C27.8945 25.4601 27.8835 25.4885 27.884 25.5178C27.8846 25.5472 27.8966 25.5752 27.9175 25.5957C27.9385 25.6163 27.9667 25.6278 27.996 25.6278C28.0254 25.6278 28.0536 25.6163 28.0745 25.5957C28.0954 25.5752 28.1075 25.5472 28.108 25.5178C28.1085 25.4885 28.0975 25.4601 28.0773 25.4388C28.0571 25.4175 28.0294 25.4049 28 25.4039C27.9974 25.4038 27.9947 25.4038 27.992 25.4039ZM19.992 25.9669C19.9634 25.9687 19.9365 25.9814 19.917 26.0024C19.8974 26.0235 19.8867 26.0512 19.887 26.0799C19.887 26.1419 19.937 26.1919 20 26.1909C20.0299 26.1898 20.058 26.177 20.0784 26.1551C20.0987 26.1333 20.1096 26.1042 20.1085 26.0744C20.1075 26.0446 20.0946 26.0164 20.0727 25.996C20.0509 25.9757 20.0219 25.9648 19.992 25.9659V25.9669ZM27.992 25.9669C27.9634 25.9687 27.9365 25.9814 27.917 26.0024C27.8974 26.0235 27.8867 26.0512 27.887 26.0799C27.887 26.1419 27.937 26.1919 28 26.1909C28.0299 26.1898 28.058 26.177 28.0784 26.1551C28.0987 26.1333 28.1096 26.1042 28.1085 26.0744C28.1075 26.0446 28.0946 26.0164 28.0727 25.996C28.0509 25.9757 28.0219 25.9648 27.992 25.9659V25.9669ZM19.992 26.5289C19.9772 26.5298 19.9628 26.5336 19.9495 26.5401C19.9362 26.5466 19.9243 26.5557 19.9145 26.5668C19.9047 26.5779 19.8972 26.5908 19.8924 26.6048C19.8876 26.6188 19.8856 26.6336 19.8865 26.6484C19.8874 26.6632 19.8913 26.6776 19.8978 26.6909C19.9043 26.7042 19.9133 26.7161 19.9244 26.7259C19.9355 26.7357 19.9484 26.7432 19.9624 26.748C19.9764 26.7528 19.9912 26.7548 20.006 26.7539C20.0359 26.752 20.0637 26.7384 20.0835 26.716C20.1033 26.6936 20.1134 26.6642 20.1115 26.6344C20.1097 26.6046 20.096 26.5767 20.0736 26.5569C20.0512 26.5371 20.0219 26.527 19.992 26.5289ZM27.992 26.5289C27.9772 26.5298 27.9628 26.5336 27.9495 26.5401C27.9362 26.5466 27.9243 26.5557 27.9145 26.5668C27.9047 26.5779 27.8972 26.5908 27.8924 26.6048C27.8876 26.6188 27.8856 26.6336 27.8865 26.6484C27.8874 26.6632 27.8913 26.6776 27.8978 26.6909C27.9043 26.7042 27.9133 26.7161 27.9244 26.7259C27.9355 26.7357 27.9484 26.7432 27.9624 26.748C27.9764 26.7528 27.9912 26.7548 28.006 26.7539C28.0359 26.752 28.0637 26.7384 28.0835 26.716C28.1033 26.6936 28.1134 26.6642 28.1115 26.6344C28.1097 26.6046 28.096 26.5767 28.0736 26.5569C28.0512 26.5371 28.0219 26.527 27.992 26.5289ZM19.992 27.0919C19.9773 27.0928 19.9629 27.0966 19.9497 27.1031C19.9365 27.1096 19.9246 27.1186 19.9149 27.1297C19.9051 27.1407 19.8976 27.1536 19.8929 27.1675C19.8881 27.1814 19.8861 27.1962 19.887 27.2109C19.8879 27.2256 19.8917 27.24 19.8982 27.2532C19.9047 27.2665 19.9137 27.2783 19.9248 27.288C19.9358 27.2978 19.9487 27.3053 19.9626 27.3101C19.9766 27.3148 19.9913 27.3168 20.006 27.3159C20.0357 27.314 20.0635 27.3005 20.0832 27.2781C20.1029 27.2558 20.1129 27.2266 20.111 27.1969C20.1092 27.1672 20.0956 27.1394 20.0733 27.1198C20.0509 27.1001 20.0217 27.09 19.992 27.0919ZM27.992 27.0919C27.9773 27.0928 27.9629 27.0966 27.9497 27.1031C27.9365 27.1096 27.9246 27.1186 27.9149 27.1297C27.9051 27.1407 27.8976 27.1536 27.8929 27.1675C27.8881 27.1814 27.8861 27.1962 27.887 27.2109C27.8879 27.2256 27.8917 27.24 27.8982 27.2532C27.9047 27.2665 27.9137 27.2783 27.9248 27.288C27.9358 27.2978 27.9487 27.3053 27.9626 27.3101C27.9766 27.3148 27.9913 27.3168 28.006 27.3159C28.0357 27.314 28.0635 27.3005 28.0832 27.2781C28.1029 27.2558 28.1129 27.2266 28.111 27.1969C28.1092 27.1672 28.0956 27.1394 28.0733 27.1198C28.0509 27.1001 28.0217 27.09 27.992 27.0919ZM17.533 27.3399C17.4084 27.3421 17.2854 27.3688 17.1711 27.4186C17.0569 27.4683 16.9535 27.5402 16.867 27.6299L15.059 29.4879C14.8929 29.6695 14.804 29.9087 14.8112 30.1547C14.8184 30.4007 14.9211 30.6343 15.0975 30.8059C15.2739 30.9775 15.5102 31.0737 15.7563 31.074C16.0025 31.0744 16.2391 30.979 16.416 30.8079L18.225 28.9489C18.3121 28.8599 18.3808 28.7546 18.4271 28.6389C18.4733 28.5233 18.4963 28.3997 18.4946 28.2752C18.493 28.1506 18.4667 28.0277 18.4173 27.9133C18.368 27.799 18.2965 27.6955 18.207 27.6089C18.118 27.5217 18.0127 27.4529 17.897 27.4066C17.7813 27.3602 17.6576 27.3372 17.533 27.3389V27.3399ZM25.092 27.3399C24.9674 27.3421 24.8444 27.3688 24.7301 27.4186C24.6159 27.4683 24.5125 27.5402 24.426 27.6299L22.617 29.4879C22.4509 29.6695 22.362 29.9087 22.3692 30.1547C22.3764 30.4007 22.4791 30.6343 22.6555 30.8059C22.8319 30.9775 23.0682 31.0737 23.3143 31.074C23.5605 31.0744 23.7971 30.979 23.974 30.8079L25.784 28.9489C25.8711 28.8599 25.9398 28.7546 25.9861 28.6389C26.0323 28.5233 26.0553 28.3997 26.0536 28.2752C26.052 28.1506 26.0257 28.0277 25.9763 27.9133C25.927 27.799 25.8555 27.6955 25.766 27.6089C25.677 27.5217 25.5717 27.4529 25.456 27.4066C25.3403 27.3602 25.2166 27.3372 25.092 27.3389V27.3399ZM32.252 27.3399C32.1274 27.3421 32.0044 27.3688 31.8901 27.4186C31.7759 27.4683 31.6725 27.5402 31.586 27.6299L29.777 29.4879C29.6109 29.6695 29.522 29.9087 29.5292 30.1547C29.5364 30.4007 29.6391 30.6343 29.8155 30.8059C29.9919 30.9775 30.2282 31.0737 30.4743 31.074C30.7205 31.0744 30.9571 30.979 31.134 30.8079L32.944 28.9489C33.0311 28.8599 33.0998 28.7546 33.1461 28.6389C33.1923 28.5233 33.2153 28.3997 33.2136 28.2752C33.212 28.1506 33.1857 28.0277 33.1363 27.9133C33.087 27.799 33.0155 27.6955 32.926 27.6089C32.837 27.5217 32.7317 27.4529 32.616 27.4066C32.5003 27.3602 32.3766 27.3372 32.252 27.3389V27.3399ZM19.992 27.6539C19.9622 27.6558 19.9343 27.6694 19.9145 27.6918C19.8947 27.7142 19.8847 27.7436 19.8865 27.7734C19.8884 27.8032 19.902 27.8311 19.9244 27.8509C19.9468 27.8707 19.9762 27.8808 20.006 27.8789C20.0208 27.878 20.0352 27.8742 20.0485 27.8677C20.0618 27.8612 20.0737 27.8521 20.0835 27.841C20.0933 27.8299 20.1008 27.817 20.1056 27.803C20.1104 27.789 20.1124 27.7742 20.1115 27.7594C20.1106 27.7446 20.1068 27.7302 20.1003 27.7169C20.0938 27.7036 20.0847 27.6917 20.0736 27.6819C20.0625 27.6721 20.0496 27.6646 20.0356 27.6598C20.0216 27.655 20.0068 27.653 19.992 27.6539ZM27.992 27.6539C27.9622 27.6558 27.9343 27.6694 27.9145 27.6918C27.8947 27.7142 27.8847 27.7436 27.8865 27.7734C27.8884 27.8032 27.902 27.8311 27.9244 27.8509C27.9468 27.8707 27.9762 27.8808 28.006 27.8789C28.0208 27.878 28.0352 27.8742 28.0485 27.8677C28.0618 27.8612 28.0737 27.8521 28.0835 27.841C28.0933 27.8299 28.1008 27.817 28.1056 27.803C28.1104 27.789 28.1124 27.7742 28.1115 27.7594C28.1106 27.7446 28.1068 27.7302 28.1003 27.7169C28.0938 27.7036 28.0847 27.6917 28.0736 27.6819C28.0625 27.6721 28.0496 27.6646 28.0356 27.6598C28.0216 27.655 28.0068 27.653 27.992 27.6539ZM17.598 27.8219C17.676 27.8259 17.757 27.8599 17.842 27.9299C18.248 28.2909 17.767 28.7149 17.592 28.8979L16.727 29.8029C16.119 30.4339 15.855 30.8609 15.432 30.4529C15.072 30.0799 15.39 29.8569 16.078 29.1579L16.943 28.2559C17.149 28.0549 17.361 27.8109 17.598 27.8219ZM25.156 27.8219C25.235 27.8259 25.316 27.8599 25.4 27.9299C25.807 28.2909 25.326 28.7149 25.15 28.8979L24.285 29.8029C23.678 30.4339 23.414 30.8609 22.99 30.4529C22.63 30.0799 22.949 29.8569 23.637 29.1579L24.502 28.2559C24.707 28.0549 24.92 27.8109 25.156 27.8219ZM32.316 27.8219C32.396 27.8259 32.476 27.8599 32.56 27.9299C32.967 28.2909 32.486 28.7149 32.31 28.8979L31.445 29.8029C30.838 30.4339 30.574 30.8609 30.15 30.4529C29.79 30.0799 30.109 29.8569 30.797 29.1579L31.662 28.2559C31.868 28.0549 32.08 27.8109 32.316 27.8219ZM19.98 28.2169C19.9538 28.2212 19.93 28.2348 19.9129 28.2551C19.8959 28.2755 19.8867 28.3013 19.887 28.3279C19.887 28.3899 19.937 28.4409 20 28.4389C20.061 28.4389 20.11 28.3889 20.111 28.3279C20.111 28.2669 20.061 28.2179 20 28.2169H19.98ZM27.98 28.2169C27.9538 28.2212 27.93 28.2348 27.9129 28.2551C27.8959 28.2755 27.8867 28.3013 27.887 28.3279C27.887 28.3899 27.937 28.4409 28 28.4389C28.061 28.4389 28.11 28.3889 28.111 28.3279C28.111 28.2669 28.061 28.2179 28 28.2169H27.98ZM20.002 28.7769C19.9864 28.7753 19.9706 28.777 19.9556 28.7818C19.9406 28.7867 19.9268 28.7946 19.9151 28.8051C19.9034 28.8156 19.894 28.8284 19.8875 28.8427C19.881 28.857 19.8776 28.8726 19.8775 28.8883C19.8773 28.904 19.8805 28.9196 19.8867 28.9341C19.8929 28.9485 19.9021 28.9615 19.9136 28.9722C19.9252 28.9829 19.9388 28.991 19.9537 28.9962C19.9686 29.0013 19.9843 29.0032 20 29.0019C20.0281 28.9995 20.0542 28.9868 20.0733 28.9661C20.0925 28.9455 20.1032 28.9185 20.1034 28.8903C20.1037 28.8622 20.0934 28.835 20.0747 28.814C20.0559 28.793 20.03 28.7798 20.002 28.7769ZM28.002 28.7769C27.9864 28.7753 27.9706 28.777 27.9556 28.7818C27.9406 28.7867 27.9268 28.7946 27.9151 28.8051C27.9034 28.8156 27.894 28.8284 27.8875 28.8427C27.881 28.857 27.8776 28.8726 27.8775 28.8883C27.8773 28.904 27.8805 28.9196 27.8867 28.9341C27.8929 28.9485 27.9021 28.9615 27.9136 28.9722C27.9252 28.9829 27.9388 28.991 27.9537 28.9962C27.9686 29.0013 27.9843 29.0032 28 29.0019C28.0281 28.9995 28.0542 28.9868 28.0733 28.9661C28.0925 28.9455 28.1032 28.9185 28.1034 28.8903C28.1037 28.8622 28.0934 28.835 28.0747 28.814C28.0559 28.793 28.03 28.7798 28.002 28.7769ZM19.992 29.3399C19.9634 29.3417 19.9365 29.3544 19.917 29.3754C19.8974 29.3965 19.8867 29.4242 19.887 29.4529C19.887 29.5149 19.937 29.5659 20 29.5639C20.061 29.5639 20.11 29.5139 20.111 29.4529C20.1111 29.4382 20.1084 29.4236 20.1029 29.41C20.0974 29.3963 20.0892 29.3839 20.0789 29.3734C20.0686 29.3629 20.0563 29.3546 20.0428 29.3488C20.0293 29.3431 20.0147 29.34 20 29.3399H19.992ZM27.992 29.3399C27.9634 29.3417 27.9365 29.3544 27.917 29.3754C27.8974 29.3965 27.8867 29.4242 27.887 29.4529C27.887 29.5149 27.937 29.5659 28 29.5639C28.061 29.5639 28.11 29.5139 28.111 29.4529C28.1111 29.4382 28.1084 29.4236 28.1029 29.41C28.0974 29.3963 28.0892 29.3839 28.0789 29.3734C28.0686 29.3629 28.0563 29.3546 28.0428 29.3488C28.0293 29.3431 28.0147 29.34 28 29.3399H27.992ZM19.992 29.9019C19.9627 29.903 19.9349 29.9155 19.9147 29.9368C19.8945 29.9581 19.8835 29.9865 19.884 30.0158C19.8846 30.0452 19.8966 30.0732 19.9175 30.0937C19.9385 30.1143 19.9667 30.1258 19.996 30.1258C20.0254 30.1258 20.0536 30.1143 20.0745 30.0937C20.0954 30.0732 20.1075 30.0452 20.108 30.0158C20.1085 29.9865 20.0975 29.9581 20.0773 29.9368C20.0571 29.9155 20.0294 29.903 20 29.9019H19.992ZM27.992 29.9019C27.9627 29.903 27.9349 29.9155 27.9147 29.9368C27.8945 29.9581 27.8835 29.9865 27.884 30.0158C27.8846 30.0452 27.8966 30.0732 27.9175 30.0937C27.9385 30.1143 27.9667 30.1258 27.996 30.1258C28.0254 30.1258 28.0536 30.1143 28.0745 30.0937C28.0954 30.0732 28.1075 30.0452 28.108 30.0158C28.1085 29.9865 28.0975 29.9581 28.0773 29.9368C28.0571 29.9155 28.0294 29.903 28 29.9019H27.992ZM19.992 30.4649C19.9634 30.4667 19.9365 30.4794 19.917 30.5004C19.8974 30.5215 19.8867 30.5492 19.887 30.5779C19.887 30.6399 19.937 30.6909 20 30.6889C20.0147 30.6884 20.0292 30.685 20.0426 30.6788C20.056 30.6727 20.068 30.664 20.078 30.6533C20.0881 30.6425 20.0959 30.6299 20.101 30.6161C20.1062 30.6023 20.1085 30.5876 20.108 30.5729C20.1075 30.5582 20.1041 30.5437 20.098 30.5303C20.0918 30.517 20.0832 30.5049 20.0724 30.4949C20.0616 30.4848 20.049 30.477 20.0352 30.4719C20.0214 30.4668 20.0067 30.4644 19.992 30.4649ZM27.992 30.4649C27.9634 30.4667 27.9365 30.4794 27.917 30.5004C27.8974 30.5215 27.8867 30.5492 27.887 30.5779C27.887 30.6399 27.937 30.6909 28 30.6889C28.0297 30.6878 28.0578 30.675 28.078 30.6533C28.0983 30.6315 28.1091 30.6026 28.108 30.5729C28.107 30.5432 28.0941 30.5151 28.0724 30.4949C28.0506 30.4746 28.0217 30.4638 27.992 30.4649ZM19.992 31.0249C19.9634 31.0272 19.9366 31.0402 19.9172 31.0613C19.8977 31.0825 19.8869 31.1102 19.887 31.1389C19.887 31.1686 19.8988 31.1971 19.9198 31.2181C19.9408 31.2391 19.9693 31.2509 19.999 31.2509C20.0287 31.2509 20.0572 31.2391 20.0782 31.2181C20.0992 31.1971 20.111 31.1686 20.111 31.1389C20.111 31.1235 20.1079 31.1083 20.1019 31.0941C20.0958 31.0799 20.087 31.0671 20.0759 31.0565C20.0648 31.0458 20.0516 31.0375 20.0372 31.0321C20.0228 31.0267 20.0074 31.0242 19.992 31.0249ZM27.992 31.0249C27.9634 31.0272 27.9366 31.0402 27.9172 31.0613C27.8977 31.0825 27.8869 31.1102 27.887 31.1389C27.887 31.1686 27.8988 31.1971 27.9198 31.2181C27.9408 31.2391 27.9693 31.2509 27.999 31.2509C28.0287 31.2509 28.0572 31.2391 28.0782 31.2181C28.0992 31.1971 28.111 31.1686 28.111 31.1389C28.111 31.1235 28.1079 31.1083 28.1019 31.0941C28.0958 31.0799 28.087 31.0671 28.0759 31.0565C28.0648 31.0458 28.0516 31.0375 28.0372 31.0321C28.0228 31.0267 28.0074 31.0242 27.992 31.0249ZM19.992 31.5879C19.9649 31.5924 19.9404 31.6066 19.923 31.6278C19.9056 31.6491 19.8966 31.676 19.8975 31.7034C19.8985 31.7309 19.9095 31.757 19.9283 31.777C19.9472 31.7969 19.9727 31.8094 20 31.8119C20.0147 31.8114 20.0292 31.808 20.0426 31.8018C20.056 31.7957 20.068 31.787 20.078 31.7763C20.0881 31.7655 20.0959 31.7529 20.101 31.7391C20.1062 31.7253 20.1085 31.7106 20.108 31.6959C20.1075 31.6812 20.1041 31.6667 20.098 31.6533C20.0918 31.64 20.0832 31.6279 20.0724 31.6179C20.0616 31.6078 20.049 31.6 20.0352 31.5949C20.0214 31.5898 20.0067 31.5874 19.992 31.5879ZM27.992 31.5879C27.9649 31.5924 27.9404 31.6066 27.923 31.6278C27.9056 31.6491 27.8966 31.676 27.8975 31.7034C27.8985 31.7309 27.9095 31.757 27.9283 31.777C27.9472 31.7969 27.9727 31.8094 28 31.8119C28.0297 31.8108 28.0578 31.798 28.078 31.7763C28.0983 31.7545 28.1091 31.7256 28.108 31.6959C28.107 31.6662 28.0941 31.6381 28.0724 31.6179C28.0506 31.5976 28.0217 31.5868 27.992 31.5879ZM19.98 32.1499C19.9535 32.154 19.9295 32.1677 19.9123 32.1883C19.8952 32.2089 19.8862 32.2351 19.887 32.2619C19.8868 32.2843 19.8933 32.3062 19.9056 32.325C19.9179 32.3437 19.9354 32.3583 19.9561 32.367C19.9767 32.3757 19.9995 32.3781 20.0214 32.3739C20.0434 32.3696 20.0637 32.3589 20.0796 32.3432C20.0955 32.3274 20.1063 32.3073 20.1108 32.2853C20.1152 32.2634 20.113 32.2406 20.1045 32.2199C20.096 32.1992 20.0815 32.1815 20.0629 32.169C20.0443 32.1566 20.0224 32.1499 20 32.1499H19.98ZM27.98 32.1499C27.9535 32.154 27.9295 32.1677 27.9123 32.1883C27.8952 32.2089 27.8862 32.2351 27.887 32.2619C27.8868 32.2843 27.8933 32.3062 27.9056 32.325C27.9179 32.3437 27.9354 32.3583 27.9561 32.367C27.9767 32.3757 27.9995 32.3781 28.0214 32.3739C28.0434 32.3696 28.0637 32.3589 28.0796 32.3432C28.0955 32.3274 28.1063 32.3073 28.1108 32.2853C28.1152 32.2634 28.113 32.2406 28.1045 32.2199C28.096 32.1992 28.0815 32.1815 28.0629 32.169C28.0443 32.1566 28.0224 32.1499 28 32.1499H27.98ZM17.531 32.5969V32.5989C17.4064 32.6009 17.2833 32.6276 17.169 32.6774C17.0547 32.7271 16.9514 32.799 16.865 32.8889L15.057 34.7459C14.9698 34.8348 14.9011 34.9401 14.8547 35.0557C14.8084 35.1713 14.7853 35.2949 14.7869 35.4194C14.7885 35.544 14.8147 35.667 14.8639 35.7813C14.9132 35.8957 14.9846 35.9992 15.074 36.0859C15.1631 36.1729 15.2686 36.2414 15.3843 36.2875C15.5 36.3336 15.6236 36.3564 15.7482 36.3545C15.8727 36.3527 15.9956 36.3262 16.1099 36.2767C16.2242 36.2271 16.3275 36.1555 16.414 36.0659L18.223 34.2059C18.31 34.1169 18.3785 34.0117 18.4247 33.8961C18.4709 33.7806 18.4938 33.6571 18.4921 33.5327C18.4905 33.4083 18.4642 33.2854 18.415 33.1712C18.3657 33.0569 18.2943 32.9535 18.205 32.8669C18.116 32.7797 18.0107 32.7109 17.895 32.6646C17.7793 32.6182 17.6556 32.5952 17.531 32.5969ZM25.09 32.5969V32.5989C24.9654 32.6009 24.8423 32.6276 24.728 32.6774C24.6137 32.7271 24.5104 32.799 24.424 32.8889L22.615 34.7459C22.5279 34.8349 22.4592 34.9402 22.413 35.0559C22.3667 35.1715 22.3437 35.2951 22.3454 35.4196C22.3471 35.5442 22.3734 35.6671 22.4227 35.7815C22.4721 35.8958 22.5435 35.9993 22.633 36.0859C22.7221 36.1729 22.8276 36.2414 22.9433 36.2875C23.059 36.3336 23.1826 36.3564 23.3072 36.3545C23.4317 36.3527 23.5546 36.3262 23.6689 36.2767C23.7832 36.2271 23.8865 36.1555 23.973 36.0659L25.781 34.2059C25.868 34.117 25.9367 34.0118 25.9829 33.8963C26.0292 33.7808 26.0522 33.6573 26.0506 33.5329C26.049 33.4085 26.0229 33.2856 25.9737 33.1713C25.9245 33.057 25.8533 32.9536 25.764 32.8669C25.675 32.7797 25.5697 32.7109 25.454 32.6646C25.3383 32.6182 25.2146 32.5952 25.09 32.5969ZM32.25 32.5969V32.5989C32.1254 32.6009 32.0023 32.6276 31.888 32.6774C31.7737 32.7271 31.6704 32.799 31.584 32.8889L29.775 34.7459C29.6879 34.8349 29.6192 34.9402 29.573 35.0559C29.5267 35.1715 29.5037 35.2951 29.5054 35.4196C29.5071 35.5442 29.5334 35.6671 29.5827 35.7815C29.6321 35.8958 29.7035 35.9993 29.793 36.0859C29.8821 36.1729 29.9876 36.2414 30.1033 36.2875C30.219 36.3336 30.3426 36.3564 30.4672 36.3545C30.5917 36.3527 30.7146 36.3262 30.8289 36.2767C30.9432 36.2271 31.0465 36.1555 31.133 36.0659L32.941 34.2059C33.028 34.117 33.0967 34.0118 33.1429 33.8963C33.1892 33.7808 33.2122 33.6573 33.2106 33.5329C33.209 33.4085 33.1829 33.2856 33.1337 33.1713C33.0845 33.057 33.0133 32.9536 32.924 32.8669C32.835 32.7797 32.7297 32.7109 32.614 32.6646C32.4983 32.6182 32.3746 32.5952 32.25 32.5969ZM19.98 32.7129C19.9589 32.7163 19.9393 32.7257 19.9233 32.74C19.9074 32.7542 19.8959 32.7727 19.8902 32.7933C19.8844 32.8139 19.8847 32.8356 19.8909 32.8561C19.8971 32.8765 19.909 32.8947 19.9253 32.9086C19.9415 32.9225 19.9614 32.9314 19.9826 32.9344C20.0037 32.9373 20.0253 32.9342 20.0447 32.9252C20.0641 32.9163 20.0806 32.9021 20.0922 32.8841C20.1037 32.8662 20.1099 32.8453 20.11 32.8239C20.11 32.7629 20.061 32.7139 20 32.7129H19.98ZM27.98 32.7129C27.9589 32.7163 27.9393 32.7257 27.9233 32.74C27.9074 32.7542 27.8959 32.7727 27.8902 32.7933C27.8844 32.8139 27.8847 32.8356 27.8909 32.8561C27.8971 32.8765 27.909 32.8947 27.9253 32.9086C27.9415 32.9225 27.9614 32.9314 27.9826 32.9344C28.0037 32.9373 28.0253 32.9342 28.0447 32.9252C28.0641 32.9163 28.0806 32.9021 28.0922 32.8841C28.1037 32.8662 28.1099 32.8453 28.11 32.8239C28.11 32.7629 28.061 32.7139 28 32.7129H27.98ZM17.596 33.0819C17.674 33.0859 17.756 33.1199 17.84 33.1889C18.246 33.5509 17.765 33.9749 17.59 34.1589L16.725 35.0619C16.117 35.6939 15.853 36.1209 15.43 35.7119C15.07 35.3389 15.388 35.1169 16.076 34.4179L16.941 33.5139C17.147 33.3119 17.359 33.0699 17.596 33.0819ZM25.154 33.0819C25.234 33.0859 25.314 33.1199 25.398 33.1889C25.805 33.5509 25.324 33.9749 25.148 34.1589L24.283 35.0619C23.676 35.6939 23.412 36.1209 22.988 35.7119C22.628 35.3389 22.947 35.1169 23.635 34.4179L24.5 33.5139C24.705 33.3119 24.918 33.0699 25.154 33.0819ZM32.314 33.0819C32.394 33.0859 32.474 33.1199 32.559 33.1889C32.965 33.5509 32.484 33.9749 32.309 34.1589L31.443 35.0619C30.836 35.6939 30.573 36.1209 30.148 35.7119C29.788 35.3389 30.107 35.1169 30.795 34.4179L31.66 33.5139C31.866 33.3119 32.078 33.0699 32.315 33.0819H32.314ZM20.002 33.2729C19.987 33.273 19.9721 33.2761 19.9582 33.2821C19.9444 33.288 19.9318 33.2966 19.9213 33.3074C19.9108 33.3181 19.9026 33.3309 19.897 33.3449C19.8915 33.3589 19.8888 33.3738 19.889 33.3889C19.889 33.4499 19.939 33.4989 20.002 33.4979C20.0165 33.498 20.031 33.4953 20.0444 33.4898C20.0579 33.4843 20.0701 33.4763 20.0804 33.466C20.0908 33.4558 20.099 33.4436 20.1045 33.4302C20.1101 33.4168 20.113 33.4024 20.113 33.3879C20.1133 33.358 20.1018 33.3292 20.081 33.3077C20.0603 33.2862 20.0319 33.2737 20.002 33.2729ZM28.002 33.2729C27.987 33.273 27.9721 33.2761 27.9582 33.2821C27.9444 33.288 27.9318 33.2966 27.9213 33.3074C27.9108 33.3181 27.9026 33.3309 27.897 33.3449C27.8915 33.3589 27.8888 33.3738 27.889 33.3889C27.889 33.4499 27.939 33.4989 28.002 33.4979C28.0165 33.498 28.031 33.4953 28.0444 33.4898C28.0579 33.4843 28.0701 33.4763 28.0804 33.466C28.0908 33.4558 28.099 33.4436 28.1045 33.4302C28.1101 33.4168 28.113 33.4024 28.113 33.3879C28.1133 33.358 28.1018 33.3292 28.081 33.3077C28.0603 33.2862 28.0319 33.2737 28.002 33.2729ZM19.992 33.8359C19.9634 33.8377 19.9365 33.8504 19.917 33.8714C19.8974 33.8925 19.8867 33.9202 19.887 33.9489C19.887 34.0109 19.937 34.0619 20 34.0599C20.061 34.0599 20.11 34.0099 20.111 33.9499C20.1113 33.9351 20.1086 33.9204 20.1032 33.9067C20.0977 33.8929 20.0896 33.8804 20.0793 33.8698C20.069 33.8592 20.0566 33.8507 20.043 33.8449C20.0294 33.8391 20.0148 33.836 20 33.8359H19.992ZM27.992 33.8359C27.9634 33.8377 27.9365 33.8504 27.917 33.8714C27.8974 33.8925 27.8867 33.9202 27.887 33.9489C27.887 34.0109 27.937 34.0619 28 34.0599C28.061 34.0599 28.11 34.0099 28.111 33.9499C28.1113 33.9351 28.1086 33.9204 28.1032 33.9067C28.0977 33.8929 28.0896 33.8804 28.0793 33.8698C28.069 33.8592 28.0566 33.8507 28.043 33.8449C28.0294 33.8391 28.0148 33.836 28 33.8359H27.992ZM19.992 34.3979C19.9772 34.3984 19.9627 34.4019 19.9493 34.408C19.9358 34.4141 19.9237 34.4229 19.9136 34.4337C19.9036 34.4445 19.8957 34.4572 19.8906 34.471C19.8854 34.4849 19.883 34.4996 19.8835 34.5144C19.884 34.5292 19.8875 34.5437 19.8936 34.5571C19.8998 34.5706 19.9085 34.5827 19.9193 34.5928C19.9301 34.6029 19.9428 34.6107 19.9567 34.6159C19.9705 34.621 19.9852 34.6234 20 34.6229C20.061 34.6229 20.11 34.5729 20.111 34.5119C20.1113 34.4964 20.1084 34.481 20.1025 34.4667C20.0965 34.4524 20.0877 34.4395 20.0765 34.4288C20.0653 34.4181 20.0521 34.4098 20.0375 34.4045C20.023 34.3992 20.0075 34.3969 19.992 34.3979ZM27.992 34.3979C27.9772 34.3984 27.9627 34.4019 27.9493 34.408C27.9358 34.4141 27.9237 34.4229 27.9136 34.4337C27.9036 34.4445 27.8957 34.4572 27.8906 34.471C27.8854 34.4849 27.883 34.4996 27.8835 34.5144C27.884 34.5292 27.8875 34.5437 27.8936 34.5571C27.8998 34.5706 27.9085 34.5827 27.9193 34.5928C27.9301 34.6029 27.9428 34.6107 27.9567 34.6159C27.9705 34.621 27.9852 34.6234 28 34.6229C28.061 34.6229 28.11 34.5729 28.111 34.5119C28.1113 34.4964 28.1084 34.481 28.1025 34.4667C28.0965 34.4524 28.0877 34.4395 28.0765 34.4288C28.0653 34.4181 28.0521 34.4098 28.0375 34.4045C28.023 34.3992 28.0075 34.3969 27.992 34.3979ZM19.992 34.9609C19.9623 34.962 19.9342 34.9748 19.914 34.9965C19.8937 35.0183 19.883 35.0472 19.884 35.0769C19.8851 35.1066 19.8979 35.1347 19.9196 35.1549C19.9414 35.1752 19.9703 35.186 20 35.1849C20.0297 35.1849 20.0582 35.1731 20.0792 35.1521C20.1002 35.1311 20.112 35.1026 20.112 35.0729C20.112 35.0432 20.1002 35.0147 20.0792 34.9937C20.0582 34.9727 20.0297 34.9609 20 34.9609C19.9974 34.9608 19.9947 34.9608 19.992 34.9609ZM27.992 34.9609C27.9623 34.962 27.9342 34.9748 27.914 34.9965C27.8937 35.0183 27.883 35.0472 27.884 35.0769C27.8851 35.1066 27.8979 35.1347 27.9196 35.1549C27.9414 35.1752 27.9703 35.186 28 35.1849C28.0297 35.1849 28.0582 35.1731 28.0792 35.1521C28.1002 35.1311 28.112 35.1026 28.112 35.0729C28.112 35.0432 28.1002 35.0147 28.0792 34.9937C28.0582 34.9727 28.0297 34.9609 28 34.9609C27.9974 34.9608 27.9947 34.9608 27.992 34.9609ZM19.992 35.5229C19.9627 35.5239 19.9349 35.5365 19.9147 35.5578C19.8945 35.5791 19.8835 35.6075 19.884 35.6368C19.8846 35.6662 19.8966 35.6942 19.9175 35.7147C19.9385 35.7353 19.9667 35.7468 19.996 35.7468C20.0254 35.7468 20.0536 35.7353 20.0745 35.7147C20.0954 35.6942 20.1075 35.6662 20.108 35.6368C20.1085 35.6075 20.0975 35.5791 20.0773 35.5578C20.0571 35.5365 20.0294 35.5239 20 35.5229C19.9974 35.5228 19.9947 35.5228 19.992 35.5229ZM27.992 35.5229C27.9627 35.5239 27.9349 35.5365 27.9147 35.5578C27.8945 35.5791 27.8835 35.6075 27.884 35.6368C27.8846 35.6662 27.8966 35.6942 27.9175 35.7147C27.9385 35.7353 27.9667 35.7468 27.996 35.7468C28.0254 35.7468 28.0536 35.7353 28.0745 35.7147C28.0954 35.6942 28.1075 35.6662 28.108 35.6368C28.1085 35.6075 28.0975 35.5791 28.0773 35.5578C28.0571 35.5365 28.0294 35.5239 28 35.5229C27.9974 35.5228 27.9947 35.5228 27.992 35.5229ZM19.992 36.0859C19.9773 36.0868 19.9629 36.0906 19.9497 36.0971C19.9365 36.1036 19.9246 36.1126 19.9149 36.1237C19.9051 36.1347 19.8976 36.1476 19.8929 36.1615C19.8881 36.1754 19.8861 36.1902 19.887 36.2049C19.8879 36.2196 19.8917 36.234 19.8982 36.2472C19.9047 36.2605 19.9137 36.2723 19.9248 36.282C19.9358 36.2918 19.9487 36.2993 19.9626 36.3041C19.9766 36.3088 19.9913 36.3108 20.006 36.3099C20.0357 36.308 20.0635 36.2945 20.0832 36.2721C20.1029 36.2498 20.1129 36.2206 20.111 36.1909C20.1092 36.1612 20.0956 36.1334 20.0733 36.1138C20.0509 36.0941 20.0217 36.084 19.992 36.0859ZM27.992 36.0859C27.9773 36.0868 27.9629 36.0906 27.9497 36.0971C27.9365 36.1036 27.9246 36.1126 27.9149 36.1237C27.9051 36.1347 27.8976 36.1476 27.8929 36.1615C27.8881 36.1754 27.8861 36.1902 27.887 36.2049C27.8879 36.2196 27.8917 36.234 27.8982 36.2472C27.9047 36.2605 27.9137 36.2723 27.9248 36.282C27.9358 36.2918 27.9487 36.2993 27.9626 36.3041C27.9766 36.3088 27.9913 36.3108 28.006 36.3099C28.0357 36.308 28.0635 36.2945 28.0832 36.2721C28.1029 36.2498 28.1129 36.2206 28.111 36.1909C28.1092 36.1612 28.0956 36.1334 28.0733 36.1138C28.0509 36.0941 28.0217 36.084 27.992 36.0859ZM19.992 36.6479C19.9622 36.649 19.934 36.6618 19.9136 36.6837C19.8933 36.7055 19.8825 36.7346 19.8835 36.7644C19.8846 36.7942 19.8974 36.8224 19.9193 36.8428C19.9411 36.8631 19.9702 36.874 20 36.8729C20.0299 36.8729 20.0585 36.861 20.0796 36.84C20.1007 36.8189 20.1125 36.7902 20.1125 36.7604C20.1125 36.7306 20.1007 36.702 20.0796 36.6809C20.0585 36.6598 20.0299 36.6479 20 36.6479C19.9974 36.6478 19.9947 36.6478 19.992 36.6479ZM27.992 36.6479C27.9622 36.649 27.934 36.6618 27.9136 36.6837C27.8933 36.7055 27.8825 36.7346 27.8835 36.7644C27.8846 36.7942 27.8974 36.8224 27.9193 36.8428C27.9411 36.8631 27.9702 36.874 28 36.8729C28.0299 36.8729 28.0585 36.861 28.0796 36.84C28.1007 36.8189 28.1125 36.7902 28.1125 36.7604C28.1125 36.7306 28.1007 36.702 28.0796 36.6809C28.0585 36.6598 28.0299 36.6479 28 36.6479C27.9974 36.6478 27.9947 36.6478 27.992 36.6479ZM19.98 37.2109C19.9537 37.215 19.9298 37.2285 19.9127 37.2489C19.8956 37.2694 19.8865 37.2953 19.887 37.3219C19.887 37.3839 19.937 37.4349 20 37.4329C20.061 37.4329 20.11 37.3829 20.111 37.3229C20.111 37.2609 20.061 37.2119 20 37.2109H19.98ZM27.98 37.2109C27.9537 37.215 27.9298 37.2285 27.9127 37.2489C27.8956 37.2694 27.8865 37.2953 27.887 37.3219C27.887 37.3839 27.937 37.4349 28 37.4329C28.061 37.4329 28.11 37.3829 28.111 37.3229C28.111 37.2609 28.061 37.2119 28 37.2109H27.98ZM19.992 37.7709C19.9627 37.7719 19.9349 37.7845 19.9147 37.8058C19.8945 37.8271 19.8835 37.8555 19.884 37.8848C19.8846 37.9142 19.8966 37.9422 19.9175 37.9627C19.9385 37.9833 19.9667 37.9948 19.996 37.9948C20.0254 37.9948 20.0536 37.9833 20.0745 37.9627C20.0954 37.9422 20.1075 37.9142 20.108 37.8848C20.1085 37.8555 20.0975 37.8271 20.0773 37.8058C20.0571 37.7845 20.0294 37.7719 20 37.7709C19.9974 37.7708 19.9947 37.7708 19.992 37.7709ZM27.992 37.7709C27.9627 37.7719 27.9349 37.7845 27.9147 37.8058C27.8945 37.8271 27.8835 37.8555 27.884 37.8848C27.8846 37.9142 27.8966 37.9422 27.9175 37.9627C27.9385 37.9833 27.9667 37.9948 27.996 37.9948C28.0254 37.9948 28.0536 37.9833 28.0745 37.9627C28.0954 37.9422 28.1075 37.9142 28.108 37.8848C28.1085 37.8555 28.0975 37.8271 28.0773 37.8058C28.0571 37.7845 28.0294 37.7719 28 37.7709C27.9974 37.7708 27.9947 37.7708 27.992 37.7709ZM19.992 38.3339C19.9634 38.3357 19.9365 38.3484 19.917 38.3694C19.8974 38.3905 19.8867 38.4182 19.887 38.4469C19.887 38.5089 19.937 38.5599 20 38.5579C20.061 38.5579 20.11 38.5079 20.111 38.4479C20.1113 38.4324 20.1084 38.417 20.1025 38.4027C20.0965 38.3884 20.0877 38.3755 20.0765 38.3648C20.0653 38.3541 20.0521 38.3458 20.0375 38.3405C20.023 38.3352 20.0075 38.3329 19.992 38.3339ZM27.992 38.3339C27.9634 38.3357 27.9365 38.3484 27.917 38.3694C27.8974 38.3905 27.8867 38.4182 27.887 38.4469C27.887 38.5089 27.937 38.5599 28 38.5579C28.061 38.5579 28.11 38.5079 28.111 38.4479C28.1113 38.4324 28.1084 38.417 28.1025 38.4027C28.0965 38.3884 28.0877 38.3755 28.0765 38.3648C28.0653 38.3541 28.0521 38.3458 28.0375 38.3405C28.023 38.3352 28.0075 38.3329 27.992 38.3339ZM19.992 38.8959C19.9627 38.8969 19.9349 38.9095 19.9147 38.9308C19.8945 38.9521 19.8835 38.9805 19.884 39.0098C19.8846 39.0392 19.8966 39.0672 19.9175 39.0877C19.9385 39.1083 19.9667 39.1198 19.996 39.1198C20.0254 39.1198 20.0536 39.1083 20.0745 39.0877C20.0954 39.0672 20.1075 39.0392 20.108 39.0098C20.1085 38.9805 20.0975 38.9521 20.0773 38.9308C20.0571 38.9095 20.0294 38.8969 20 38.8959C19.9974 38.8958 19.9947 38.8958 19.992 38.8959ZM27.992 38.8959C27.9627 38.8969 27.9349 38.9095 27.9147 38.9308C27.8945 38.9521 27.8835 38.9805 27.884 39.0098C27.8846 39.0392 27.8966 39.0672 27.9175 39.0877C27.9385 39.1083 27.9667 39.1198 27.996 39.1198C28.0254 39.1198 28.0536 39.1083 28.0745 39.0877C28.0954 39.0672 28.1075 39.0392 28.108 39.0098C28.1085 38.9805 28.0975 38.9521 28.0773 38.9308C28.0571 38.9095 28.0294 38.8969 28 38.8959C27.9974 38.8958 27.9947 38.8958 27.992 38.8959ZM19.992 39.4589C19.9773 39.4598 19.9629 39.4636 19.9497 39.4701C19.9365 39.4766 19.9246 39.4856 19.9149 39.4967C19.9051 39.5077 19.8976 39.5206 19.8929 39.5345C19.8881 39.5484 19.8861 39.5632 19.887 39.5779C19.8879 39.5926 19.8917 39.607 19.8982 39.6202C19.9047 39.6335 19.9137 39.6453 19.9248 39.655C19.9358 39.6648 19.9487 39.6723 19.9626 39.6771C19.9766 39.6818 19.9913 39.6838 20.006 39.6829C20.0357 39.681 20.0635 39.6675 20.0832 39.6451C20.1029 39.6228 20.1129 39.5936 20.111 39.5639C20.1092 39.5342 20.0956 39.5064 20.0733 39.4868C20.0509 39.4671 20.0217 39.457 19.992 39.4589ZM27.992 39.4589C27.9773 39.4598 27.9629 39.4636 27.9497 39.4701C27.9365 39.4766 27.9246 39.4856 27.9149 39.4967C27.9051 39.5077 27.8976 39.5206 27.8929 39.5345C27.8881 39.5484 27.8861 39.5632 27.887 39.5779C27.8879 39.5926 27.8917 39.607 27.8982 39.6202C27.9047 39.6335 27.9137 39.6453 27.9248 39.655C27.9358 39.6648 27.9487 39.6723 27.9626 39.6771C27.9766 39.6818 27.9913 39.6838 28.006 39.6829C28.0357 39.681 28.0635 39.6675 28.0832 39.6451C28.1029 39.6228 28.1129 39.5936 28.111 39.5639C28.1092 39.5342 28.0956 39.5064 28.0733 39.4868C28.0509 39.4671 28.0217 39.457 27.992 39.4589ZM19.992 40.0209C19.9622 40.0228 19.9343 40.0364 19.9145 40.0588C19.8947 40.0812 19.8847 40.1106 19.8865 40.1404C19.8884 40.1702 19.902 40.1981 19.9244 40.2179C19.9468 40.2377 19.9762 40.2478 20.006 40.2459C20.0359 40.244 20.0637 40.2304 20.0835 40.208C20.1033 40.1856 20.1134 40.1562 20.1115 40.1264C20.1097 40.0966 20.096 40.0687 20.0736 40.0489C20.0512 40.0291 20.0219 40.019 19.992 40.0209ZM27.992 40.0209C27.9622 40.0228 27.9343 40.0364 27.9145 40.0588C27.8947 40.0812 27.8847 40.1106 27.8865 40.1404C27.8884 40.1702 27.902 40.1981 27.9244 40.2179C27.9468 40.2377 27.9762 40.2478 28.006 40.2459C28.0359 40.244 28.0637 40.2304 28.0835 40.208C28.1033 40.1856 28.1134 40.1562 28.1115 40.1264C28.1097 40.0966 28.096 40.0687 28.0736 40.0489C28.0512 40.0291 28.0219 40.019 27.992 40.0209ZM19.992 40.5839C19.9773 40.5848 19.9629 40.5886 19.9497 40.5951C19.9365 40.6016 19.9246 40.6106 19.9149 40.6217C19.9051 40.6327 19.8976 40.6456 19.8929 40.6595C19.8881 40.6734 19.8861 40.6882 19.887 40.7029C19.8879 40.7176 19.8917 40.732 19.8982 40.7452C19.9047 40.7585 19.9137 40.7703 19.9248 40.78C19.9358 40.7898 19.9487 40.7973 19.9626 40.8021C19.9766 40.8068 19.9913 40.8088 20.006 40.8079C20.0357 40.806 20.0635 40.7925 20.0832 40.7701C20.1029 40.7478 20.1129 40.7186 20.111 40.6889C20.1092 40.6592 20.0956 40.6314 20.0733 40.6118C20.0509 40.5921 20.0217 40.582 19.992 40.5839ZM27.992 40.5839C27.9773 40.5848 27.9629 40.5886 27.9497 40.5951C27.9365 40.6016 27.9246 40.6106 27.9149 40.6217C27.9051 40.6327 27.8976 40.6456 27.8929 40.6595C27.8881 40.6734 27.8861 40.6882 27.887 40.7029C27.8879 40.7176 27.8917 40.732 27.8982 40.7452C27.9047 40.7585 27.9137 40.7703 27.9248 40.78C27.9358 40.7898 27.9487 40.7973 27.9626 40.8021C27.9766 40.8068 27.9913 40.8088 28.006 40.8079C28.0357 40.806 28.0635 40.7925 28.0832 40.7701C28.1029 40.7478 28.1129 40.7186 28.111 40.6889C28.1092 40.6592 28.0956 40.6314 28.0733 40.6118C28.0509 40.5921 28.0217 40.582 27.992 40.5839ZM19.98 41.1459C19.9535 41.15 19.9295 41.1637 19.9123 41.1843C19.8952 41.2049 19.8862 41.2311 19.887 41.2579C19.8868 41.2803 19.8933 41.3022 19.9056 41.3209C19.9179 41.3397 19.9354 41.3543 19.9561 41.363C19.9767 41.3717 19.9995 41.3741 20.0214 41.3699C20.0434 41.3656 20.0637 41.3549 20.0796 41.3392C20.0955 41.3234 20.1063 41.3033 20.1108 41.2813C20.1152 41.2594 20.113 41.2366 20.1045 41.2159C20.096 41.1952 20.0815 41.1775 20.0629 41.165C20.0443 41.1526 20.0224 41.1459 20 41.1459H19.98ZM27.98 41.1459C27.9535 41.15 27.9295 41.1637 27.9123 41.1843C27.8952 41.2049 27.8862 41.2311 27.887 41.2579C27.8868 41.2803 27.8933 41.3022 27.9056 41.3209C27.9179 41.3397 27.9354 41.3543 27.9561 41.363C27.9767 41.3717 27.9995 41.3741 28.0214 41.3699C28.0434 41.3656 28.0637 41.3549 28.0796 41.3392C28.0955 41.3234 28.1063 41.3033 28.1108 41.2813C28.1152 41.2594 28.113 41.2366 28.1045 41.2159C28.096 41.1952 28.0815 41.1775 28.0629 41.165C28.0443 41.1526 28.0224 41.1459 28 41.1459H27.98ZM19.98 41.7089C19.9537 41.713 19.9298 41.7265 19.9127 41.7469C19.8956 41.7674 19.8865 41.7933 19.887 41.8199C19.887 41.8819 19.937 41.9329 20 41.9309C20.061 41.9309 20.11 41.8809 20.111 41.8209C20.111 41.7589 20.061 41.7099 20 41.7089H19.98ZM27.98 41.7089C27.9537 41.713 27.9298 41.7265 27.9127 41.7469C27.8956 41.7674 27.8865 41.7933 27.887 41.8199C27.887 41.8819 27.937 41.9329 28 41.9309C28.061 41.9309 28.11 41.8809 28.111 41.8209C28.111 41.7589 28.061 41.7099 28 41.7089H27.98ZM20.002 42.2689C19.9872 42.2688 19.9726 42.2715 19.9589 42.2771C19.9452 42.2826 19.9327 42.2908 19.9222 42.3011C19.9116 42.3115 19.9032 42.3238 19.8975 42.3374C19.8917 42.351 19.8886 42.3656 19.8885 42.3804C19.8884 42.3952 19.8912 42.4098 19.8967 42.4235C19.9022 42.4372 19.9104 42.4497 19.9208 42.4602C19.9311 42.4708 19.9434 42.4792 19.957 42.485C19.9706 42.4907 19.9852 42.4938 20 42.4939C20.0299 42.4942 20.0586 42.4826 20.0799 42.4617C20.1011 42.4407 20.1133 42.4122 20.1135 42.3824C20.1138 42.3526 20.1022 42.3238 20.0813 42.3026C20.0604 42.2813 20.0319 42.2692 20.002 42.2689ZM28.002 42.2689C27.9872 42.2688 27.9726 42.2715 27.9589 42.2771C27.9452 42.2826 27.9327 42.2908 27.9222 42.3011C27.9116 42.3115 27.9032 42.3238 27.8975 42.3374C27.8917 42.351 27.8886 42.3656 27.8885 42.3804C27.8884 42.3952 27.8912 42.4098 27.8967 42.4235C27.9022 42.4372 27.9104 42.4497 27.9208 42.4602C27.9311 42.4708 27.9434 42.4792 27.957 42.485C27.9706 42.4907 27.9852 42.4938 28 42.4939C28.0299 42.4942 28.0586 42.4826 28.0799 42.4617C28.1011 42.4407 28.1133 42.4122 28.1135 42.3824C28.1138 42.3526 28.1022 42.3238 28.0813 42.3026C28.0604 42.2813 28.0319 42.2692 28.002 42.2689ZM19.992 42.8319C19.9627 42.833 19.9349 42.8455 19.9147 42.8668C19.8945 42.8881 19.8835 42.9165 19.884 42.9458C19.8846 42.9752 19.8966 43.0032 19.9175 43.0237C19.9385 43.0443 19.9667 43.0558 19.996 43.0558C20.0254 43.0558 20.0536 43.0443 20.0745 43.0237C20.0954 43.0032 20.1075 42.9752 20.108 42.9458C20.1085 42.9165 20.0975 42.8881 20.0773 42.8668C20.0571 42.8455 20.0294 42.833 20 42.8319C19.9974 42.8318 19.9947 42.8318 19.992 42.8319ZM27.992 42.8319C27.9627 42.833 27.9349 42.8455 27.9147 42.8668C27.8945 42.8881 27.8835 42.9165 27.884 42.9458C27.8846 42.9752 27.8966 43.0032 27.9175 43.0237C27.9385 43.0443 27.9667 43.0558 27.996 43.0558C28.0254 43.0558 28.0536 43.0443 28.0745 43.0237C28.0954 43.0032 28.1075 42.9752 28.108 42.9458C28.1085 42.9165 28.0975 42.8881 28.0773 42.8668C28.0571 42.8455 28.0294 42.833 28 42.8319C27.9974 42.8318 27.9947 42.8318 27.992 42.8319Z" fill="#333333"/>
</svg>
