<svg width="48" height="48" viewBox="0 0 48 48" fill="none" xmlns="http://www.w3.org/2000/svg">
<path fill-rule="evenodd" clip-rule="evenodd" d="M0.00012207 0.00610352V48.0061H48.0001V0.00610352H0.00012207ZM23.8261 3.9961C27.1171 3.9891 30.4661 3.9891 33.8521 4.0201C34.7211 4.0201 35.4201 4.7181 35.4201 5.5881V42.4491C35.4201 43.3191 34.7201 44.0191 33.8511 44.0191H14.1471C13.2771 44.0191 12.5811 43.3191 12.5811 42.4491V5.5881C12.5807 5.38225 12.6209 5.17834 12.6995 4.98805C12.778 4.79777 12.8933 4.62484 13.0388 4.47919C13.1843 4.33353 13.357 4.21801 13.5472 4.13923C13.7374 4.06045 13.9413 4.01997 14.1471 4.0201C17.3031 4.0201 20.5361 4.0041 23.8271 3.9961H23.8261ZM19.9921 5.0601C19.9628 5.06115 19.935 5.07368 19.9148 5.09499C19.8946 5.11629 19.8836 5.14468 19.8841 5.17403C19.8847 5.20339 19.8967 5.23136 19.9176 5.25193C19.9386 5.2725 19.9668 5.28403 19.9961 5.28403C20.0255 5.28403 20.0537 5.2725 20.0746 5.25193C20.0956 5.23136 20.1076 5.20339 20.1081 5.17403C20.1086 5.14468 20.0976 5.11629 20.0774 5.09499C20.0572 5.07368 20.0295 5.06115 20.0001 5.0601H19.9921ZM27.9921 5.0601C27.9628 5.06115 27.935 5.07368 27.9148 5.09499C27.8946 5.11629 27.8836 5.14468 27.8841 5.17403C27.8847 5.20339 27.8967 5.23136 27.9176 5.25193C27.9386 5.2725 27.9668 5.28403 27.9961 5.28403C28.0255 5.28403 28.0537 5.2725 28.0746 5.25193C28.0956 5.23136 28.1076 5.20339 28.1081 5.17403C28.1086 5.14468 28.0976 5.11629 28.0774 5.09499C28.0572 5.07368 28.0295 5.06115 28.0001 5.0601H27.9921ZM19.9921 5.6221C19.9766 5.62197 19.9612 5.62503 19.947 5.6311C19.9327 5.63717 19.9198 5.64611 19.9091 5.65736C19.8985 5.66862 19.8902 5.68196 19.8849 5.69654C19.8796 5.71112 19.8774 5.72663 19.8784 5.74212C19.8793 5.7576 19.8835 5.77272 19.8905 5.78653C19.8976 5.80034 19.9074 5.81255 19.9194 5.8224C19.9314 5.83225 19.9453 5.83953 19.9602 5.84378C19.9751 5.84803 19.9907 5.84916 20.0061 5.8471C20.0345 5.84332 20.0603 5.82893 20.0785 5.80684C20.0966 5.78476 20.1057 5.75661 20.1039 5.72808C20.1022 5.69955 20.0896 5.67275 20.0689 5.65309C20.0481 5.63342 20.0207 5.62235 19.9921 5.6221ZM27.9921 5.6221C27.9641 5.62556 27.9383 5.63941 27.92 5.66092C27.9016 5.68242 27.892 5.71002 27.893 5.73827C27.894 5.76652 27.9056 5.79336 27.9254 5.81351C27.9452 5.83366 27.9719 5.84565 28.0001 5.8471C28.0149 5.84658 28.0294 5.84315 28.0429 5.83701C28.0563 5.83087 28.0684 5.82214 28.0785 5.81132C28.0886 5.80051 28.0964 5.78781 28.1016 5.77396C28.1068 5.76011 28.1091 5.74538 28.1086 5.7306C28.1081 5.71583 28.1047 5.7013 28.0985 5.68786C28.0924 5.67441 28.0837 5.6623 28.0728 5.65223C28.062 5.64215 28.0493 5.6343 28.0355 5.62914C28.0216 5.62397 28.0069 5.62158 27.9921 5.6221ZM19.9821 6.1851C19.961 6.18835 19.9412 6.1976 19.9251 6.21175C19.909 6.22591 19.8974 6.24437 19.8915 6.26495C19.8856 6.28554 19.8857 6.30738 19.8918 6.3279C19.898 6.34841 19.9098 6.36674 19.9261 6.3807C19.9423 6.39467 19.9622 6.40369 19.9834 6.4067C20.0046 6.4097 20.0262 6.40657 20.0457 6.39767C20.0652 6.38876 20.0817 6.37446 20.0933 6.35646C20.1049 6.33846 20.1111 6.31752 20.1111 6.2961C20.1111 6.2351 20.0611 6.1861 20.0001 6.1851H19.9821ZM27.9821 6.1851C27.961 6.18835 27.9412 6.1976 27.9251 6.21175C27.909 6.22591 27.8974 6.24437 27.8915 6.26495C27.8856 6.28554 27.8857 6.30738 27.8918 6.3279C27.898 6.34841 27.9098 6.36674 27.9261 6.3807C27.9423 6.39467 27.9622 6.40369 27.9834 6.4067C28.0046 6.4097 28.0262 6.40657 28.0457 6.39767C28.0652 6.38876 28.0817 6.37446 28.0933 6.35646C28.1049 6.33846 28.1111 6.31752 28.1111 6.2961C28.1111 6.2351 28.0611 6.1861 28.0001 6.1851H27.9821ZM24.2191 6.4801C24.0044 6.47251 23.7903 6.50824 23.5897 6.58518C23.389 6.66212 23.206 6.77868 23.0514 6.92791C22.8968 7.07714 22.7738 7.25598 22.6898 7.45377C22.6058 7.65155 22.5626 7.86423 22.5626 8.0791C22.5626 8.29398 22.6058 8.50665 22.6898 8.70444C22.7738 8.90223 22.8968 9.08107 23.0514 9.2303C23.206 9.37953 23.389 9.49609 23.5897 9.57303C23.7903 9.64996 24.0044 9.6857 24.2191 9.6781C24.6334 9.66345 25.0259 9.48857 25.3138 9.1903C25.6017 8.89203 25.7626 8.49366 25.7626 8.0791C25.7626 7.66455 25.6017 7.26618 25.3138 6.96791C25.0259 6.66964 24.6334 6.49476 24.2191 6.4801ZM20.0021 6.7451C19.9865 6.74349 19.9707 6.74517 19.9557 6.75002C19.9407 6.75487 19.927 6.76279 19.9152 6.77328C19.9035 6.78377 19.8941 6.79659 19.8876 6.81092C19.8811 6.82525 19.8777 6.84078 19.8776 6.8565C19.8774 6.87223 19.8806 6.88782 19.8868 6.90227C19.893 6.91671 19.9022 6.92969 19.9137 6.94039C19.9253 6.95108 19.9389 6.95925 19.9538 6.96436C19.9687 6.96948 19.9844 6.97144 20.0001 6.9701C20.0282 6.96772 20.0543 6.95496 20.0734 6.93432C20.0926 6.91368 20.1033 6.88665 20.1035 6.85851C20.1038 6.83038 20.0935 6.80316 20.0748 6.78218C20.056 6.76121 20.0301 6.74798 20.0021 6.7451ZM28.0021 6.7451C27.9865 6.74349 27.9707 6.74517 27.9557 6.75002C27.9407 6.75487 27.927 6.76279 27.9152 6.77328C27.9035 6.78377 27.8941 6.79659 27.8876 6.81092C27.8811 6.82525 27.8777 6.84078 27.8776 6.8565C27.8774 6.87223 27.8806 6.88782 27.8868 6.90227C27.893 6.91671 27.9022 6.92969 27.9137 6.94039C27.9253 6.95108 27.9389 6.95925 27.9538 6.96436C27.9687 6.96948 27.9844 6.97144 28.0001 6.9701C28.0282 6.96772 28.0543 6.95496 28.0734 6.93432C28.0926 6.91368 28.1033 6.88665 28.1035 6.85851C28.1038 6.83038 28.0935 6.80316 28.0748 6.78218C28.056 6.76121 28.0301 6.74798 28.0021 6.7451ZM19.9921 7.3081C19.9774 7.30902 19.963 7.31283 19.9498 7.31931C19.9366 7.32579 19.9247 7.33481 19.915 7.34586C19.9052 7.35691 19.8977 7.36977 19.893 7.38371C19.8882 7.39765 19.8862 7.4124 19.8871 7.4271C19.888 7.44181 19.8918 7.45619 19.8983 7.46943C19.9048 7.48267 19.9138 7.4945 19.9249 7.50425C19.9359 7.514 19.9488 7.52148 19.9627 7.52626C19.9767 7.53104 19.9914 7.53302 20.0061 7.5321C20.0358 7.53025 20.0636 7.51667 20.0833 7.49435C20.103 7.47203 20.113 7.44281 20.1111 7.4131C20.1093 7.3834 20.0957 7.35565 20.0734 7.33596C20.0511 7.31627 20.0218 7.30625 19.9921 7.3081ZM27.9921 7.3081C27.9774 7.30902 27.963 7.31283 27.9498 7.31931C27.9366 7.32579 27.9247 7.33481 27.915 7.34586C27.9052 7.35691 27.8977 7.36977 27.893 7.38371C27.8882 7.39765 27.8862 7.4124 27.8871 7.4271C27.888 7.44181 27.8918 7.45619 27.8983 7.46943C27.9048 7.48267 27.9138 7.4945 27.9249 7.50425C27.9359 7.514 27.9488 7.52148 27.9627 7.52626C27.9767 7.53104 27.9914 7.53302 28.0061 7.5321C28.0358 7.53025 28.0636 7.51667 28.0833 7.49435C28.103 7.47203 28.113 7.44281 28.1111 7.4131C28.1093 7.3834 28.0957 7.35565 28.0734 7.33596C28.0511 7.31627 28.0218 7.30625 27.9921 7.3081ZM19.9921 7.8681C19.9624 7.86983 19.9346 7.88328 19.9148 7.9055C19.895 7.92773 19.8849 7.9569 19.8866 7.9866C19.8883 8.01631 19.9018 8.04411 19.924 8.0639C19.9462 8.08368 19.9754 8.09383 20.0051 8.0921C20.0348 8.09038 20.0626 8.07693 20.0824 8.0547C20.1022 8.03248 20.1123 8.00331 20.1106 7.9736C20.1089 7.9439 20.0954 7.9161 20.0732 7.89631C20.051 7.87653 20.0218 7.86638 19.9921 7.8681ZM27.9921 7.8681C27.9624 7.86983 27.9346 7.88328 27.9148 7.9055C27.895 7.92773 27.8849 7.9569 27.8866 7.9866C27.8883 8.01631 27.9018 8.04411 27.924 8.0639C27.9462 8.08368 27.9754 8.09383 28.0051 8.0921C28.0348 8.09038 28.0626 8.07693 28.0824 8.0547C28.1022 8.03248 28.1123 8.00331 28.1106 7.9736C28.1089 7.9439 28.0954 7.9161 28.0732 7.89631C28.051 7.87653 28.0218 7.86638 27.9921 7.8681ZM19.9921 8.4311C19.9774 8.43196 19.963 8.4357 19.9498 8.44212C19.9365 8.44853 19.9246 8.4575 19.9148 8.4685C19.905 8.47951 19.8975 8.49233 19.8927 8.50625C19.8878 8.52016 19.8858 8.5349 19.8866 8.5496C19.8875 8.56431 19.8912 8.57871 19.8976 8.59197C19.9041 8.60523 19.913 8.6171 19.924 8.6269C19.935 8.63669 19.9479 8.64423 19.9618 8.64907C19.9757 8.65391 19.9904 8.65596 20.0051 8.6551C20.0348 8.65338 20.0626 8.63993 20.0824 8.6177C20.1022 8.59548 20.1123 8.56631 20.1106 8.5366C20.1089 8.5069 20.0954 8.4791 20.0732 8.45931C20.051 8.43953 20.0218 8.42938 19.9921 8.4311ZM27.9921 8.4311C27.9774 8.43196 27.963 8.4357 27.9498 8.44212C27.9365 8.44853 27.9246 8.4575 27.9148 8.4685C27.905 8.47951 27.8975 8.49233 27.8927 8.50625C27.8878 8.52016 27.8858 8.5349 27.8866 8.5496C27.8875 8.56431 27.8912 8.57871 27.8976 8.59197C27.9041 8.60523 27.913 8.6171 27.924 8.6269C27.935 8.63669 27.9479 8.64423 27.9618 8.64907C27.9757 8.65391 27.9904 8.65596 28.0051 8.6551C28.0348 8.65338 28.0626 8.63993 28.0824 8.6177C28.1022 8.59548 28.1123 8.56631 28.1106 8.5366C28.1089 8.5069 28.0954 8.4791 28.0732 8.45931C28.051 8.43953 28.0218 8.42938 27.9921 8.4311ZM19.9921 8.9931C19.9766 8.99297 19.9612 8.99603 19.947 9.0021C19.9327 9.00817 19.9198 9.01711 19.9091 9.02837C19.8985 9.03962 19.8902 9.05296 19.8849 9.06754C19.8796 9.08212 19.8774 9.09764 19.8784 9.11312C19.8793 9.1286 19.8835 9.14372 19.8905 9.15753C19.8976 9.17134 19.9074 9.18355 19.9194 9.1934C19.9314 9.20325 19.9453 9.21053 19.9602 9.21478C19.9751 9.21903 19.9907 9.22016 20.0061 9.2181C20.0345 9.21432 20.0603 9.19993 20.0785 9.17785C20.0966 9.15576 20.1057 9.12761 20.1039 9.09908C20.1022 9.07055 20.0896 9.04375 20.0689 9.02409C20.0481 9.00442 20.0207 8.99335 19.9921 8.9931ZM27.9921 8.9931C27.9766 8.99297 27.9612 8.99603 27.947 9.0021C27.9327 9.00817 27.9198 9.01711 27.9091 9.02837C27.8985 9.03962 27.8902 9.05296 27.8849 9.06754C27.8796 9.08212 27.8774 9.09764 27.8784 9.11312C27.8793 9.1286 27.8835 9.14372 27.8905 9.15753C27.8976 9.17134 27.9074 9.18355 27.9194 9.1934C27.9314 9.20325 27.9453 9.21053 27.9602 9.21478C27.9751 9.21903 27.9907 9.22016 28.0061 9.2181C28.0345 9.21432 28.0603 9.19993 28.0785 9.17785C28.0966 9.15576 28.1057 9.12761 28.1039 9.09908C28.1022 9.07055 28.0896 9.04375 28.0689 9.02409C28.0481 9.00442 28.0207 8.99335 27.9921 8.9931ZM16.6251 9.2921C16.4117 9.28677 16.1994 9.32419 16.0007 9.40218C15.8019 9.48016 15.6208 9.59712 15.468 9.74618C15.3152 9.89524 15.1937 10.0734 15.1108 10.2701C15.0278 10.4668 14.9851 10.6781 14.9851 10.8916C14.9851 11.1051 15.0278 11.3164 15.1108 11.5131C15.1937 11.7098 15.3152 11.888 15.468 12.037C15.6208 12.1861 15.8019 12.303 16.0007 12.381C16.1994 12.459 16.4117 12.4964 16.6251 12.4911C17.0424 12.4807 17.4391 12.3076 17.7306 12.0087C18.022 11.7099 18.1851 11.309 18.1851 10.8916C18.1851 10.4742 18.022 10.0733 17.7306 9.77446C17.4391 9.47564 17.0424 9.30254 16.6251 9.2921ZM31.3751 9.2921C31.1617 9.28677 30.9494 9.32419 30.7507 9.40218C30.5519 9.48016 30.3708 9.59712 30.218 9.74618C30.0652 9.89524 29.9437 10.0734 29.8608 10.2701C29.7778 10.4668 29.7351 10.6781 29.7351 10.8916C29.7351 11.1051 29.7778 11.3164 29.8608 11.5131C29.9437 11.7098 30.0652 11.888 30.218 12.037C30.3708 12.1861 30.5519 12.303 30.7507 12.381C30.9494 12.459 31.1617 12.4964 31.3751 12.4911C31.7924 12.4807 32.1891 12.3076 32.4805 12.0087C32.772 11.7099 32.9351 11.309 32.9351 10.8916C32.9351 10.4742 32.772 10.0733 32.4805 9.77446C32.1891 9.47564 31.7924 9.30254 31.3751 9.2921ZM19.9921 9.5561C19.9628 9.55715 19.935 9.56968 19.9148 9.59099C19.8946 9.61229 19.8836 9.64068 19.8841 9.67003C19.8847 9.69939 19.8967 9.72736 19.9176 9.74793C19.9386 9.76851 19.9668 9.78003 19.9961 9.78003C20.0255 9.78003 20.0537 9.76851 20.0746 9.74793C20.0956 9.72736 20.1076 9.69939 20.1081 9.67003C20.1086 9.64068 20.0976 9.61229 20.0774 9.59099C20.0572 9.56968 20.0295 9.55715 20.0001 9.5561H19.9921ZM27.9921 9.5561C27.9628 9.55715 27.935 9.56968 27.9148 9.59099C27.8946 9.61229 27.8836 9.64068 27.8841 9.67003C27.8847 9.69939 27.8967 9.72736 27.9176 9.74793C27.9386 9.76851 27.9668 9.78003 27.9961 9.78003C28.0255 9.78003 28.0537 9.76851 28.0746 9.74793C28.0956 9.72736 28.1076 9.69939 28.1081 9.67003C28.1086 9.64068 28.0976 9.61229 28.0774 9.59099C28.0572 9.56968 28.0295 9.55715 28.0001 9.5561H27.9921ZM19.9801 10.1181C19.9537 10.1228 19.9299 10.1368 19.9129 10.1575C19.8958 10.1782 19.8867 10.2043 19.8871 10.2311C19.8871 10.2608 19.8989 10.2893 19.9199 10.3103C19.9409 10.3313 19.9694 10.3431 19.9991 10.3431C20.0288 10.3431 20.0573 10.3313 20.0783 10.3103C20.0993 10.2893 20.1111 10.2608 20.1111 10.2311C20.1109 10.2016 20.0992 10.1733 20.0785 10.1522C20.0577 10.1311 20.0297 10.1189 20.0001 10.1181H19.9801ZM27.9801 10.1181C27.9537 10.1228 27.9299 10.1368 27.9129 10.1575C27.8958 10.1782 27.8867 10.2043 27.8871 10.2311C27.8871 10.2608 27.8989 10.2893 27.9199 10.3103C27.9409 10.3313 27.9694 10.3431 27.9991 10.3431C28.0288 10.3431 28.0573 10.3313 28.0783 10.3103C28.0993 10.2893 28.1111 10.2608 28.1111 10.2311C28.1109 10.2016 28.0992 10.1733 28.0785 10.1522C28.0577 10.1311 28.0297 10.1189 28.0001 10.1181H27.9801ZM20.0021 10.6781C19.9871 10.6782 19.9722 10.6813 19.9583 10.6873C19.9445 10.6932 19.932 10.7018 19.9214 10.7126C19.9109 10.7233 19.9027 10.7361 19.8971 10.7501C19.8916 10.7641 19.8889 10.779 19.8891 10.7941C19.8891 10.8561 19.9391 10.9041 20.0021 10.9041C20.0167 10.9042 20.0311 10.9015 20.0445 10.896C20.058 10.8906 20.0702 10.8825 20.0806 10.8722C20.0909 10.862 20.0991 10.8498 20.1047 10.8364C20.1102 10.823 20.1131 10.8086 20.1131 10.7941C20.1134 10.7642 20.1019 10.7354 20.0812 10.7139C20.0604 10.6924 20.032 10.6799 20.0021 10.6791V10.6781ZM28.0021 10.6781C27.9871 10.6782 27.9722 10.6813 27.9583 10.6873C27.9445 10.6932 27.932 10.7018 27.9214 10.7126C27.9109 10.7233 27.9027 10.7361 27.8971 10.7501C27.8916 10.7641 27.8889 10.779 27.8891 10.7941C27.8891 10.8561 27.9391 10.9041 28.0021 10.9041C28.0167 10.9042 28.0311 10.9015 28.0445 10.896C28.058 10.8906 28.0702 10.8825 28.0806 10.8722C28.0909 10.862 28.0991 10.8498 28.1047 10.8364C28.1102 10.823 28.1131 10.8086 28.1131 10.7941C28.1134 10.7642 28.1019 10.7354 28.0812 10.7139C28.0604 10.6924 28.032 10.6799 28.0021 10.6791V10.6781ZM20.0021 11.2411C19.9872 11.2411 19.9724 11.2441 19.9586 11.2498C19.9449 11.2555 19.9324 11.264 19.9219 11.2746C19.9114 11.2852 19.9031 11.2977 19.8974 11.3116C19.8918 11.3254 19.889 11.3402 19.8891 11.3551C19.8891 11.4161 19.9391 11.4671 20.0021 11.4651C20.0318 11.4651 20.0603 11.4533 20.0813 11.4323C20.1023 11.4113 20.1141 11.3828 20.1141 11.3531C20.1141 11.3234 20.1023 11.2949 20.0813 11.2739C20.0603 11.2529 20.0318 11.2411 20.0021 11.2411ZM28.0021 11.2411C27.9872 11.2411 27.9724 11.2441 27.9586 11.2498C27.9449 11.2555 27.9324 11.264 27.9219 11.2746C27.9114 11.2852 27.9031 11.2977 27.8974 11.3116C27.8918 11.3254 27.889 11.3402 27.8891 11.3551C27.8891 11.4161 27.9391 11.4671 28.0021 11.4651C28.0318 11.4651 28.0603 11.4533 28.0813 11.4323C28.1023 11.4113 28.1141 11.3828 28.1141 11.3531C28.1141 11.3234 28.1023 11.2949 28.0813 11.2739C28.0603 11.2529 28.0318 11.2411 28.0021 11.2411ZM24.2191 11.6511C23.7948 11.6511 23.3878 11.8197 23.0878 12.1197C22.7877 12.4198 22.6191 12.8268 22.6191 13.2511C22.6191 13.6755 22.7877 14.0824 23.0878 14.3825C23.3878 14.6825 23.7948 14.8511 24.2191 14.8511C24.6435 14.8511 25.0504 14.6825 25.3505 14.3825C25.6506 14.0824 25.8191 13.6755 25.8191 13.2511C25.8191 12.8268 25.6506 12.4198 25.3505 12.1197C25.0504 11.8197 24.6435 11.6511 24.2191 11.6511ZM19.9921 11.8041C19.9638 11.8076 19.9378 11.8215 19.9193 11.8432C19.9008 11.8649 19.8911 11.8928 19.8921 11.9213C19.8931 11.9498 19.9047 11.9769 19.9247 11.9972C19.9447 12.0175 19.9716 12.0296 20.0001 12.0311C20.0611 12.0291 20.1101 11.9781 20.1111 11.9171C20.1113 11.9017 20.1083 11.8864 20.1023 11.8723C20.0963 11.8581 20.0874 11.8453 20.0763 11.8347C20.0651 11.8241 20.0518 11.8159 20.0374 11.8106C20.0229 11.8054 20.0075 11.8031 19.9921 11.8041ZM27.9921 11.8041C27.9638 11.8076 27.9378 11.8215 27.9193 11.8432C27.9008 11.8649 27.8911 11.8928 27.8921 11.9213C27.8931 11.9498 27.9047 11.9769 27.9247 11.9972C27.9447 12.0175 27.9716 12.0296 28.0001 12.0311C28.0611 12.0291 28.1101 11.9781 28.1111 11.9171C28.1113 11.9017 28.1083 11.8864 28.1023 11.8723C28.0963 11.8581 28.0874 11.8453 28.0763 11.8347C28.0651 11.8241 28.0518 11.8159 28.0374 11.8106C28.0229 11.8054 28.0075 11.8031 27.9921 11.8041ZM19.9921 12.3661C19.9638 12.3696 19.9378 12.3835 19.9193 12.4052C19.9008 12.4269 19.8911 12.4548 19.8921 12.4833C19.8931 12.5118 19.9047 12.5389 19.9247 12.5592C19.9447 12.5795 19.9716 12.5916 20.0001 12.5931C20.0611 12.5931 20.1101 12.5411 20.1111 12.4801C20.1114 12.4653 20.1087 12.4506 20.1033 12.4369C20.0978 12.4231 20.0897 12.4106 20.0794 12.4C20.0691 12.3894 20.0567 12.3809 20.0431 12.3751C20.0295 12.3693 20.0149 12.3662 20.0001 12.3661H19.9921ZM27.9921 12.3661C27.9638 12.3696 27.9378 12.3835 27.9193 12.4052C27.9008 12.4269 27.8911 12.4548 27.8921 12.4833C27.8931 12.5118 27.9047 12.5389 27.9247 12.5592C27.9447 12.5795 27.9716 12.5916 28.0001 12.5931C28.0611 12.5931 28.1101 12.5411 28.1111 12.4801C28.1114 12.4653 28.1087 12.4506 28.1033 12.4369C28.0978 12.4231 28.0897 12.4106 28.0794 12.4C28.0691 12.3894 28.0567 12.3809 28.0431 12.3751C28.0295 12.3693 28.0149 12.3662 28.0001 12.3661H27.9921ZM19.9921 12.9291C19.9628 12.9302 19.935 12.9427 19.9148 12.964C19.8946 12.9853 19.8836 13.0137 19.8841 13.043C19.8847 13.0724 19.8967 13.1004 19.9176 13.1209C19.9386 13.1415 19.9668 13.153 19.9961 13.153C20.0255 13.153 20.0537 13.1415 20.0746 13.1209C20.0956 13.1004 20.1076 13.0724 20.1081 13.043C20.1086 13.0137 20.0976 12.9853 20.0774 12.964C20.0572 12.9427 20.0295 12.9302 20.0001 12.9291H19.9921ZM27.9921 12.9291C27.9628 12.9302 27.935 12.9427 27.9148 12.964C27.8946 12.9853 27.8836 13.0137 27.8841 13.043C27.8847 13.0724 27.8967 13.1004 27.9176 13.1209C27.9386 13.1415 27.9668 13.153 27.9961 13.153C28.0255 13.153 28.0537 13.1415 28.0746 13.1209C28.0956 13.1004 28.1076 13.0724 28.1081 13.043C28.1086 13.0137 28.0976 12.9853 28.0774 12.964C28.0572 12.9427 28.0295 12.9302 28.0001 12.9291H27.9921ZM19.9921 13.4911C19.9628 13.4922 19.935 13.5047 19.9148 13.526C19.8946 13.5473 19.8836 13.5757 19.8841 13.605C19.8847 13.6344 19.8967 13.6624 19.9176 13.6829C19.9386 13.7035 19.9668 13.715 19.9961 13.715C20.0255 13.715 20.0537 13.7035 20.0746 13.6829C20.0956 13.6624 20.1076 13.6344 20.1081 13.605C20.1086 13.5757 20.0976 13.5473 20.0774 13.526C20.0572 13.5047 20.0295 13.4922 20.0001 13.4911H19.9921ZM27.9921 13.4911C27.9628 13.4922 27.935 13.5047 27.9148 13.526C27.8946 13.5473 27.8836 13.5757 27.8841 13.605C27.8847 13.6344 27.8967 13.6624 27.9176 13.6829C27.9386 13.7035 27.9668 13.715 27.9961 13.715C28.0255 13.715 28.0537 13.7035 28.0746 13.6829C28.0956 13.6624 28.1076 13.6344 28.1081 13.605C28.1086 13.5757 28.0976 13.5473 28.0774 13.526C28.0572 13.5047 28.0295 13.4922 28.0001 13.4911H27.9921ZM19.9921 14.0541C19.9774 14.055 19.963 14.0588 19.9498 14.0653C19.9366 14.0718 19.9247 14.0808 19.915 14.0919C19.9052 14.1029 19.8977 14.1158 19.893 14.1297C19.8882 14.1437 19.8862 14.1584 19.8871 14.1731C19.888 14.1878 19.8918 14.2022 19.8983 14.2154C19.9048 14.2287 19.9138 14.2405 19.9249 14.2502C19.9359 14.26 19.9488 14.2675 19.9627 14.2723C19.9767 14.277 19.9914 14.279 20.0061 14.2781C20.0358 14.2762 20.0636 14.2627 20.0833 14.2403C20.103 14.218 20.113 14.1888 20.1111 14.1591C20.1093 14.1294 20.0957 14.1016 20.0734 14.082C20.0511 14.0623 20.0218 14.0522 19.9921 14.0541ZM27.9921 14.0541C27.9774 14.055 27.963 14.0588 27.9498 14.0653C27.9366 14.0718 27.9247 14.0808 27.915 14.0919C27.9052 14.1029 27.8977 14.1158 27.893 14.1297C27.8882 14.1437 27.8862 14.1584 27.8871 14.1731C27.888 14.1878 27.8918 14.2022 27.8983 14.2154C27.9048 14.2287 27.9138 14.2405 27.9249 14.2502C27.9359 14.26 27.9488 14.2675 27.9627 14.2723C27.9767 14.277 27.9914 14.279 28.0061 14.2781C28.0358 14.2762 28.0636 14.2627 28.0833 14.2403C28.103 14.218 28.113 14.1888 28.1111 14.1591C28.1093 14.1294 28.0957 14.1016 28.0734 14.082C28.0511 14.0623 28.0218 14.0522 27.9921 14.0541ZM16.6251 14.5851C16.4117 14.5798 16.1994 14.6172 16.0007 14.6952C15.8019 14.7732 15.6208 14.8901 15.468 15.0392C15.3152 15.1882 15.1937 15.3664 15.1108 15.5631C15.0278 15.7598 14.9851 15.9711 14.9851 16.1846C14.9851 16.3981 15.0278 16.6094 15.1108 16.8061C15.1937 17.0028 15.3152 17.181 15.468 17.33C15.6208 17.4791 15.8019 17.596 16.0007 17.674C16.1994 17.752 16.4117 17.7894 16.6251 17.7841C17.0424 17.7737 17.4391 17.6006 17.7306 17.3017C18.022 17.0029 18.1851 16.602 18.1851 16.1846C18.1851 15.7672 18.022 15.3663 17.7306 15.0675C17.4391 14.7686 17.0424 14.5955 16.6251 14.5851ZM31.3751 14.5851C31.1617 14.5798 30.9494 14.6172 30.7507 14.6952C30.5519 14.7732 30.3708 14.8901 30.218 15.0392C30.0652 15.1882 29.9437 15.3664 29.8608 15.5631C29.7778 15.7598 29.7351 15.9711 29.7351 16.1846C29.7351 16.3981 29.7778 16.6094 29.8608 16.8061C29.9437 17.0028 30.0652 17.181 30.218 17.33C30.3708 17.4791 30.5519 17.596 30.7507 17.674C30.9494 17.752 31.1617 17.7894 31.3751 17.7841C31.7924 17.7737 32.1891 17.6006 32.4805 17.3017C32.772 17.0029 32.9351 16.602 32.9351 16.1846C32.9351 15.7672 32.772 15.3663 32.4805 15.0675C32.1891 14.7686 31.7924 14.5955 31.3751 14.5851ZM19.9801 14.6161C19.9538 14.6206 19.93 14.6344 19.9129 14.6549C19.8959 14.6755 19.8867 14.7014 19.8871 14.7281C19.8871 14.7502 19.8937 14.7718 19.9059 14.7902C19.9182 14.8086 19.9356 14.823 19.956 14.8315C19.9764 14.84 19.9989 14.8423 20.0206 14.838C20.0423 14.8338 20.0623 14.8232 20.078 14.8076C20.0937 14.7921 20.1044 14.7722 20.1088 14.7506C20.1133 14.7289 20.1112 14.7064 20.1029 14.6859C20.0946 14.6655 20.0804 14.6479 20.0621 14.6355C20.0438 14.623 20.0222 14.6163 20.0001 14.6161H19.9801ZM27.9801 14.6161C27.9538 14.6206 27.93 14.6344 27.9129 14.6549C27.8959 14.6755 27.8867 14.7014 27.8871 14.7281C27.8871 14.7502 27.8937 14.7718 27.9059 14.7902C27.9182 14.8086 27.9356 14.823 27.956 14.8315C27.9764 14.84 27.9989 14.8423 28.0206 14.838C28.0423 14.8338 28.0623 14.8232 28.078 14.8076C28.0937 14.7921 28.1044 14.7722 28.1088 14.7506C28.1133 14.7289 28.1112 14.7064 28.1029 14.6859C28.0946 14.6655 28.0804 14.6479 28.0621 14.6355C28.0438 14.623 28.0222 14.6163 28.0001 14.6161H27.9801ZM19.9801 15.1791C19.959 15.1825 19.9394 15.1919 19.9235 15.2062C19.9075 15.2204 19.896 15.2389 19.8903 15.2595C19.8845 15.2801 19.8848 15.3019 19.891 15.3223C19.8972 15.3427 19.9092 15.361 19.9254 15.3748C19.9416 15.3887 19.9615 15.3976 19.9827 15.4006C20.0038 15.4035 20.0254 15.4004 20.0448 15.3915C20.0642 15.3825 20.0807 15.3683 20.0923 15.3503C20.1038 15.3324 20.11 15.3115 20.1101 15.2901C20.1101 15.2291 20.0611 15.1801 20.0001 15.1791H19.9801ZM27.9801 15.1791C27.959 15.1825 27.9394 15.1919 27.9235 15.2062C27.9075 15.2204 27.896 15.2389 27.8903 15.2595C27.8845 15.2801 27.8848 15.3019 27.891 15.3223C27.8972 15.3427 27.9092 15.361 27.9254 15.3748C27.9416 15.3887 27.9615 15.3976 27.9827 15.4006C28.0038 15.4035 28.0254 15.4004 28.0448 15.3915C28.0642 15.3825 28.0807 15.3683 28.0923 15.3503C28.1038 15.3324 28.11 15.3115 28.1101 15.2901C28.1101 15.2291 28.0611 15.1801 28.0001 15.1791H27.9801ZM20.0021 15.7391C19.9872 15.739 19.9723 15.7418 19.9585 15.7475C19.9447 15.7532 19.9321 15.7616 19.9216 15.7723C19.911 15.7829 19.9027 15.7955 19.8972 15.8094C19.8916 15.8233 19.8889 15.8381 19.8891 15.8531C19.8891 15.9141 19.9391 15.9631 20.0021 15.9621C20.0167 15.9622 20.0311 15.9595 20.0445 15.954C20.058 15.9486 20.0702 15.9405 20.0806 15.9302C20.0909 15.92 20.0991 15.9078 20.1047 15.8944C20.1102 15.881 20.1131 15.8666 20.1131 15.8521C20.1133 15.8374 20.1105 15.8228 20.105 15.8092C20.0995 15.7955 20.0913 15.7831 20.081 15.7726C20.0707 15.7621 20.0584 15.7538 20.0449 15.748C20.0314 15.7423 20.0168 15.7392 20.0021 15.7391ZM28.0021 15.7391C27.9872 15.739 27.9723 15.7418 27.9585 15.7475C27.9447 15.7532 27.9321 15.7616 27.9216 15.7723C27.911 15.7829 27.9027 15.7955 27.8972 15.8094C27.8916 15.8233 27.8889 15.8381 27.8891 15.8531C27.8891 15.9141 27.9391 15.9631 28.0021 15.9621C28.0167 15.9622 28.0311 15.9595 28.0445 15.954C28.058 15.9486 28.0702 15.9405 28.0806 15.9302C28.0909 15.92 28.0991 15.9078 28.1047 15.8944C28.1102 15.881 28.1131 15.8666 28.1131 15.8521C28.1133 15.8374 28.1105 15.8228 28.105 15.8092C28.0995 15.7955 28.0913 15.7831 28.081 15.7726C28.0707 15.7621 28.0584 15.7538 28.0449 15.748C28.0314 15.7423 28.0168 15.7392 28.0021 15.7391ZM19.9921 16.3021C19.9635 16.3039 19.9366 16.3166 19.9171 16.3376C19.8975 16.3587 19.8868 16.3864 19.8871 16.4151C19.8871 16.4771 19.9371 16.5271 20.0001 16.5261C20.0611 16.5261 20.1101 16.4761 20.1111 16.4161C20.1114 16.4006 20.1085 16.3852 20.1026 16.3709C20.0966 16.3566 20.0878 16.3437 20.0766 16.333C20.0654 16.3223 20.0522 16.314 20.0376 16.3087C20.0231 16.3034 20.0076 16.3011 19.9921 16.3021ZM27.9921 16.3021C27.9635 16.3039 27.9366 16.3166 27.9171 16.3376C27.8975 16.3587 27.8868 16.3864 27.8871 16.4151C27.8871 16.4771 27.9371 16.5271 28.0001 16.5261C28.0611 16.5261 28.1101 16.4761 28.1111 16.4161C28.1114 16.4006 28.1085 16.3852 28.1026 16.3709C28.0966 16.3566 28.0878 16.3437 28.0766 16.333C28.0654 16.3223 28.0522 16.314 28.0376 16.3087C28.0231 16.3034 28.0076 16.3011 27.9921 16.3021ZM19.9921 16.8641C19.9774 16.865 19.963 16.8688 19.9498 16.8753C19.9366 16.8818 19.9247 16.8908 19.915 16.9019C19.9052 16.9129 19.8977 16.9258 19.893 16.9397C19.8882 16.9536 19.8862 16.9684 19.8871 16.9831C19.888 16.9978 19.8918 17.0122 19.8983 17.0254C19.9048 17.0387 19.9138 17.0505 19.9249 17.0602C19.9359 17.07 19.9488 17.0775 19.9627 17.0823C19.9767 17.087 19.9914 17.089 20.0061 17.0881C20.0358 17.0862 20.0636 17.0727 20.0833 17.0503C20.103 17.028 20.113 16.9988 20.1111 16.9691C20.1093 16.9394 20.0957 16.9116 20.0734 16.892C20.0511 16.8723 20.0218 16.8622 19.9921 16.8641ZM27.9921 16.8641C27.9774 16.865 27.963 16.8688 27.9498 16.8753C27.9366 16.8818 27.9247 16.8908 27.915 16.9019C27.9052 16.9129 27.8977 16.9258 27.893 16.9397C27.8882 16.9536 27.8862 16.9684 27.8871 16.9831C27.888 16.9978 27.8918 17.0122 27.8983 17.0254C27.9048 17.0387 27.9138 17.0505 27.9249 17.0602C27.9359 17.07 27.9488 17.0775 27.9627 17.0823C27.9767 17.087 27.9914 17.089 28.0061 17.0881C28.0358 17.0862 28.0636 17.0727 28.0833 17.0503C28.103 17.028 28.113 16.9988 28.1111 16.9691C28.1093 16.9394 28.0957 16.9116 28.0734 16.892C28.0511 16.8723 28.0218 16.8622 27.9921 16.8641ZM24.2191 16.8861C24.0057 16.8808 23.7934 16.9182 23.5947 16.9962C23.3959 17.0742 23.2148 17.1911 23.062 17.3402C22.9092 17.4892 22.7877 17.6674 22.7048 17.8641C22.6218 18.0608 22.5791 18.2721 22.5791 18.4856C22.5791 18.6991 22.6218 18.9104 22.7048 19.1071C22.7877 19.3038 22.9092 19.482 23.062 19.631C23.2148 19.7801 23.3959 19.897 23.5947 19.975C23.7934 20.053 24.0057 20.0904 24.2191 20.0851C24.6435 20.0851 25.0504 19.9165 25.3505 19.6165C25.6506 19.3164 25.8191 18.9095 25.8191 18.4851C25.8191 18.0608 25.6506 17.6538 25.3505 17.3537C25.0504 17.0537 24.6435 16.8851 24.2191 16.8851V16.8861ZM19.9921 17.4261C19.9623 17.4278 19.9344 17.4413 19.9145 17.4636C19.9046 17.4747 19.8971 17.4876 19.8922 17.5016C19.8873 17.5155 19.8853 17.5303 19.8861 17.5451C19.887 17.5599 19.8907 17.5743 19.8972 17.5877C19.9036 17.601 19.9126 17.6129 19.9237 17.6227C19.946 17.6426 19.9753 17.6528 20.0051 17.6511C20.0348 17.6494 20.0626 17.6359 20.0824 17.6137C20.1022 17.5915 20.1123 17.5623 20.1106 17.5326C20.1089 17.5029 20.0954 17.4751 20.0732 17.4553C20.051 17.4355 20.0218 17.4254 19.9921 17.4271V17.4261ZM27.9921 17.4261C27.9773 17.427 27.9629 17.4308 27.9496 17.4373C27.9363 17.4438 27.9244 17.4529 27.9146 17.464C27.9048 17.4751 27.8973 17.488 27.8925 17.502C27.8877 17.516 27.8857 17.5308 27.8866 17.5456C27.8875 17.5604 27.8914 17.5748 27.8979 17.5881C27.9044 17.6014 27.9134 17.6133 27.9245 17.6231C27.9356 17.6329 27.9485 17.6404 27.9625 17.6452C27.9765 17.65 27.9913 17.652 28.0061 17.6511C28.0358 17.6492 28.0636 17.6357 28.0833 17.6133C28.103 17.591 28.113 17.5618 28.1111 17.5321C28.1093 17.5024 28.0957 17.4746 28.0734 17.455C28.0511 17.4353 28.0218 17.4252 27.9921 17.4271V17.4261ZM19.9921 17.9891C19.9774 17.99 19.963 17.9937 19.9498 18.0001C19.9365 18.0065 19.9246 18.0155 19.9148 18.0265C19.905 18.0375 19.8975 18.0503 19.8927 18.0642C19.8878 18.0782 19.8858 18.0929 19.8866 18.1076C19.8875 18.1223 19.8912 18.1367 19.8976 18.15C19.9041 18.1632 19.913 18.1751 19.924 18.1849C19.935 18.1947 19.9479 18.2022 19.9618 18.2071C19.9757 18.2119 19.9904 18.214 20.0051 18.2131C20.0348 18.2114 20.0626 18.1979 20.0824 18.1757C20.1022 18.1535 20.1123 18.1243 20.1106 18.0946C20.1089 18.0649 20.0954 18.0371 20.0732 18.0173C20.051 17.9975 20.0218 17.9874 19.9921 17.9891ZM27.9921 17.9891C27.9774 17.99 27.963 17.9938 27.9498 18.0003C27.9366 18.0068 27.9247 18.0158 27.915 18.0269C27.9052 18.0379 27.8977 18.0508 27.893 18.0647C27.8882 18.0786 27.8862 18.0934 27.8871 18.1081C27.888 18.1228 27.8918 18.1372 27.8983 18.1504C27.9048 18.1637 27.9138 18.1755 27.9249 18.1852C27.9359 18.195 27.9488 18.2025 27.9627 18.2073C27.9767 18.212 27.9914 18.214 28.0061 18.2131C28.0358 18.2112 28.0636 18.1977 28.0833 18.1753C28.103 18.153 28.113 18.1238 28.1111 18.0941C28.1093 18.0644 28.0957 18.0366 28.0734 18.017C28.0511 17.9973 28.0218 17.9872 27.9921 17.9891ZM19.9921 18.5521C19.9628 18.5532 19.935 18.5657 19.9148 18.587C19.8946 18.6083 19.8836 18.6367 19.8841 18.666C19.8847 18.6954 19.8967 18.7234 19.9176 18.7439C19.9386 18.7645 19.9668 18.776 19.9961 18.776C20.0255 18.776 20.0537 18.7645 20.0746 18.7439C20.0956 18.7234 20.1076 18.6954 20.1081 18.666C20.1086 18.6367 20.0976 18.6083 20.0774 18.587C20.0572 18.5657 20.0295 18.5532 20.0001 18.5521C19.9975 18.552 19.9948 18.552 19.9921 18.5521ZM27.9921 18.5521C27.9628 18.5532 27.935 18.5657 27.9148 18.587C27.8946 18.6083 27.8836 18.6367 27.8841 18.666C27.8847 18.6954 27.8967 18.7234 27.9176 18.7439C27.9386 18.7645 27.9668 18.776 27.9961 18.776C28.0255 18.776 28.0537 18.7645 28.0746 18.7439C28.0956 18.7234 28.1076 18.6954 28.1081 18.666C28.1086 18.6367 28.0976 18.6083 28.0774 18.587C28.0572 18.5657 28.0295 18.5532 28.0001 18.5521C27.9975 18.552 27.9948 18.552 27.9921 18.5521ZM19.9801 19.1141C19.9537 19.1184 19.9298 19.1321 19.9127 19.1527C19.8956 19.1733 19.8865 19.1994 19.8871 19.2261C19.8871 19.2482 19.8937 19.2698 19.9059 19.2882C19.9182 19.3066 19.9356 19.321 19.956 19.3295C19.9764 19.338 19.9989 19.3403 20.0206 19.336C20.0423 19.3318 20.0623 19.3212 20.078 19.3056C20.0937 19.2901 20.1044 19.2702 20.1088 19.2486C20.1133 19.2269 20.1112 19.2044 20.1029 19.1839C20.0946 19.1635 20.0804 19.1459 20.0621 19.1335C20.0438 19.121 20.0222 19.1143 20.0001 19.1141H19.9801ZM27.9801 19.1141C27.9537 19.1184 27.9298 19.1321 27.9127 19.1527C27.8956 19.1733 27.8865 19.1994 27.8871 19.2261C27.8871 19.2482 27.8937 19.2698 27.9059 19.2882C27.9182 19.3066 27.9356 19.321 27.956 19.3295C27.9764 19.338 27.9989 19.3403 28.0206 19.336C28.0423 19.3318 28.0623 19.3212 28.078 19.3056C28.0937 19.2901 28.1044 19.2702 28.1088 19.2486C28.1133 19.2269 28.1112 19.2044 28.1029 19.1839C28.0946 19.1635 28.0804 19.1459 28.0621 19.1335C28.0438 19.121 28.0222 19.1143 28.0001 19.1141H27.9801ZM20.0021 19.6741C19.9865 19.6726 19.9707 19.6744 19.9557 19.6794C19.9408 19.6844 19.9271 19.6924 19.9154 19.703C19.9038 19.7136 19.8945 19.7265 19.8882 19.7409C19.8818 19.7553 19.8785 19.7709 19.8785 19.7866C19.8785 19.8023 19.8818 19.8179 19.8882 19.8323C19.8945 19.8467 19.9038 19.8596 19.9154 19.8702C19.9271 19.8808 19.9408 19.8888 19.9557 19.8938C19.9707 19.8988 19.9865 19.9006 20.0021 19.8991C20.0318 19.8991 20.0603 19.8873 20.0813 19.8663C20.1023 19.8453 20.1141 19.8168 20.1141 19.7871C20.1141 19.7574 20.1023 19.7289 20.0813 19.7079C20.0603 19.6869 20.0318 19.6751 20.0021 19.6751V19.6741ZM28.0021 19.6741C27.9865 19.6726 27.9707 19.6744 27.9557 19.6794C27.9408 19.6844 27.9271 19.6924 27.9154 19.703C27.9038 19.7136 27.8945 19.7265 27.8882 19.7409C27.8818 19.7553 27.8785 19.7709 27.8785 19.7866C27.8785 19.8023 27.8818 19.8179 27.8882 19.8323C27.8945 19.8467 27.9038 19.8596 27.9154 19.8702C27.9271 19.8808 27.9408 19.8888 27.9557 19.8938C27.9707 19.8988 27.9865 19.9006 28.0021 19.8991C28.0318 19.8991 28.0603 19.8873 28.0813 19.8663C28.1023 19.8453 28.1141 19.8168 28.1141 19.7871C28.1141 19.7574 28.1023 19.7289 28.0813 19.7079C28.0603 19.6869 28.0318 19.6751 28.0021 19.6751V19.6741ZM16.6251 19.8191C16.4117 19.8138 16.1994 19.8512 16.0007 19.9292C15.8019 20.0072 15.6208 20.1241 15.468 20.2732C15.3152 20.4222 15.1937 20.6004 15.1108 20.7971C15.0278 20.9938 14.9851 21.2051 14.9851 21.4186C14.9851 21.6321 15.0278 21.8434 15.1108 22.0401C15.1937 22.2368 15.3152 22.415 15.468 22.564C15.6208 22.7131 15.8019 22.83 16.0007 22.908C16.1994 22.986 16.4117 23.0234 16.6251 23.0181C17.0424 23.0077 17.4391 22.8346 17.7306 22.5357C18.022 22.2369 18.1851 21.836 18.1851 21.4186C18.1851 21.0012 18.022 20.6003 17.7306 20.3015C17.4391 20.0026 17.0424 19.8295 16.6251 19.8191ZM31.3751 19.8191C31.1617 19.8138 30.9494 19.8512 30.7507 19.9292C30.5519 20.0072 30.3708 20.1241 30.218 20.2732C30.0652 20.4222 29.9437 20.6004 29.8608 20.7971C29.7778 20.9938 29.7351 21.2051 29.7351 21.4186C29.7351 21.6321 29.7778 21.8434 29.8608 22.0401C29.9437 22.2368 30.0652 22.415 30.218 22.564C30.3708 22.7131 30.5519 22.83 30.7507 22.908C30.9494 22.986 31.1617 23.0234 31.3751 23.0181C31.7924 23.0077 32.1891 22.8346 32.4805 22.5357C32.772 22.2369 32.9351 21.836 32.9351 21.4186C32.9351 21.0012 32.772 20.6003 32.4805 20.3015C32.1891 20.0026 31.7924 19.8295 31.3751 19.8191ZM19.9921 20.2371C19.9633 20.2389 19.9363 20.2518 19.9167 20.273C19.8972 20.2943 19.8866 20.3222 19.8871 20.3511C19.8871 20.4131 19.9371 20.4631 20.0001 20.4611C20.0298 20.4611 20.0583 20.4493 20.0793 20.4283C20.1003 20.4073 20.1121 20.3788 20.1121 20.3491C20.1121 20.3194 20.1003 20.2909 20.0793 20.2699C20.0583 20.2489 20.0298 20.2371 20.0001 20.2371H19.9921ZM27.9921 20.2371C27.9633 20.2389 27.9363 20.2518 27.9167 20.273C27.8972 20.2943 27.8866 20.3222 27.8871 20.3511C27.8871 20.4131 27.9371 20.4631 28.0001 20.4611C28.0298 20.4611 28.0583 20.4493 28.0793 20.4283C28.1003 20.4073 28.1121 20.3788 28.1121 20.3491C28.1121 20.3194 28.1003 20.2909 28.0793 20.2699C28.0583 20.2489 28.0298 20.2371 28.0001 20.2371H27.9921ZM19.9921 20.8001C19.9628 20.8012 19.935 20.8137 19.9148 20.835C19.8946 20.8563 19.8836 20.8847 19.8841 20.914C19.8847 20.9434 19.8967 20.9714 19.9176 20.9919C19.9386 21.0125 19.9668 21.024 19.9961 21.024C20.0255 21.024 20.0537 21.0125 20.0746 20.9919C20.0956 20.9714 20.1076 20.9434 20.1081 20.914C20.1086 20.8847 20.0976 20.8563 20.0774 20.835C20.0572 20.8137 20.0295 20.8012 20.0001 20.8001H19.9921ZM27.9921 20.8001C27.9628 20.8012 27.935 20.8137 27.9148 20.835C27.8946 20.8563 27.8836 20.8847 27.8841 20.914C27.8847 20.9434 27.8967 20.9714 27.9176 20.9919C27.9386 21.0125 27.9668 21.024 27.9961 21.024C28.0255 21.024 28.0537 21.0125 28.0746 20.9919C28.0956 20.9714 28.1076 20.9434 28.1081 20.914C28.1086 20.8847 28.0976 20.8563 28.0774 20.835C28.0572 20.8137 28.0295 20.8012 28.0001 20.8001H27.9921ZM19.9921 21.3621C19.9633 21.3639 19.9363 21.3768 19.9167 21.398C19.8972 21.4193 19.8866 21.4472 19.8871 21.4761C19.8871 21.5381 19.9371 21.5881 20.0001 21.5861C20.0298 21.5861 20.0583 21.5743 20.0793 21.5533C20.1003 21.5323 20.1121 21.5038 20.1121 21.4741C20.1121 21.4444 20.1003 21.4159 20.0793 21.3949C20.0583 21.3739 20.0298 21.3621 20.0001 21.3621H19.9921ZM27.9921 21.3621C27.9633 21.3639 27.9363 21.3768 27.9167 21.398C27.8972 21.4193 27.8866 21.4472 27.8871 21.4761C27.8871 21.5381 27.9371 21.5881 28.0001 21.5861C28.0298 21.5861 28.0583 21.5743 28.0793 21.5533C28.1003 21.5323 28.1121 21.5038 28.1121 21.4741C28.1121 21.4444 28.1003 21.4159 28.0793 21.3949C28.0583 21.3739 28.0298 21.3621 28.0001 21.3621H27.9921ZM19.9921 21.9251C19.9774 21.926 19.963 21.9298 19.9498 21.9363C19.9366 21.9428 19.9247 21.9518 19.915 21.9629C19.9052 21.9739 19.8977 21.9868 19.893 22.0007C19.8882 22.0147 19.8862 22.0294 19.8871 22.0441C19.888 22.0588 19.8918 22.0732 19.8983 22.0864C19.9048 22.0997 19.9138 22.1115 19.9249 22.1212C19.9359 22.131 19.9488 22.1385 19.9627 22.1433C19.9767 22.148 19.9914 22.15 20.0061 22.1491C20.0358 22.1472 20.0636 22.1337 20.0833 22.1113C20.103 22.089 20.113 22.0598 20.1111 22.0301C20.1093 22.0004 20.0957 21.9726 20.0734 21.953C20.0511 21.9333 20.0218 21.9232 19.9921 21.9251ZM27.9921 21.9251C27.9774 21.926 27.963 21.9298 27.9498 21.9363C27.9366 21.9428 27.9247 21.9518 27.915 21.9629C27.9052 21.9739 27.8977 21.9868 27.893 22.0007C27.8882 22.0147 27.8862 22.0294 27.8871 22.0441C27.888 22.0588 27.8918 22.0732 27.8983 22.0864C27.9048 22.0997 27.9138 22.1115 27.9249 22.1212C27.9359 22.131 27.9488 22.1385 27.9627 22.1433C27.9767 22.148 27.9914 22.15 28.0061 22.1491C28.0358 22.1472 28.0636 22.1337 28.0833 22.1113C28.103 22.089 28.113 22.0598 28.1111 22.0301C28.1093 22.0004 28.0957 21.9726 28.0734 21.953C28.0511 21.9333 28.0218 21.9232 27.9921 21.9251ZM24.2191 22.1201C23.7948 22.1201 23.3878 22.2887 23.0878 22.5887C22.7877 22.8888 22.6191 23.2958 22.6191 23.7201C22.6191 24.1444 22.7877 24.5514 23.0878 24.8515C23.3878 25.1515 23.7948 25.3201 24.2191 25.3201C24.6435 25.3201 25.0504 25.1515 25.3505 24.8515C25.6506 24.5514 25.8191 24.1444 25.8191 23.7201C25.8191 23.2958 25.6506 22.8888 25.3505 22.5887C25.0504 22.2887 24.6435 22.1201 24.2191 22.1201ZM19.9921 22.4871C19.9766 22.487 19.9612 22.49 19.947 22.4961C19.9327 22.5022 19.9198 22.5111 19.9091 22.5224C19.8985 22.5336 19.8902 22.547 19.8849 22.5615C19.8796 22.5761 19.8774 22.5916 19.8784 22.6071C19.8793 22.6226 19.8835 22.6377 19.8905 22.6515C19.8976 22.6653 19.9074 22.6776 19.9194 22.6874C19.9314 22.6973 19.9453 22.7045 19.9602 22.7088C19.9751 22.713 19.9907 22.7142 20.0061 22.7121C20.0345 22.7083 20.0603 22.6939 20.0785 22.6718C20.0966 22.6498 20.1057 22.6216 20.1039 22.5931C20.1022 22.5645 20.0896 22.5378 20.0689 22.5181C20.0481 22.4984 20.0207 22.4873 19.9921 22.4871ZM27.9921 22.4871C27.9641 22.4906 27.9383 22.5044 27.92 22.5259C27.9016 22.5474 27.892 22.575 27.893 22.6033C27.894 22.6315 27.9056 22.6584 27.9254 22.6785C27.9452 22.6987 27.9719 22.7106 28.0001 22.7121C28.0149 22.7116 28.0294 22.7081 28.0429 22.702C28.0563 22.6959 28.0684 22.6871 28.0785 22.6763C28.0886 22.6655 28.0964 22.6528 28.1016 22.639C28.1068 22.6251 28.1091 22.6104 28.1086 22.5956C28.1081 22.5808 28.1047 22.5663 28.0985 22.5529C28.0924 22.5394 28.0837 22.5273 28.0728 22.5172C28.062 22.5072 28.0493 22.4993 28.0355 22.4941C28.0216 22.489 28.0069 22.4866 27.9921 22.4871ZM19.9921 23.0501C19.9625 23.0512 19.9345 23.0638 19.9141 23.0853C19.8937 23.1068 19.8826 23.1354 19.8831 23.165C19.8837 23.1947 19.8958 23.2229 19.9169 23.2436C19.9381 23.2644 19.9665 23.276 19.9961 23.276C20.0257 23.276 20.0542 23.2644 20.0753 23.2436C20.0964 23.2229 20.1086 23.1947 20.1091 23.165C20.1096 23.1354 20.0985 23.1068 20.0781 23.0853C20.0577 23.0638 20.0297 23.0512 20.0001 23.0501H19.9921ZM27.9921 23.0501C27.965 23.0546 27.9405 23.0688 27.9231 23.09C27.9057 23.1113 27.8967 23.1382 27.8976 23.1656C27.8986 23.1931 27.9096 23.2192 27.9284 23.2392C27.9473 23.2592 27.9728 23.2716 28.0001 23.2741C28.0298 23.2741 28.0583 23.2623 28.0793 23.2413C28.1003 23.2203 28.1121 23.1918 28.1121 23.1621C28.1121 23.1324 28.1003 23.1039 28.0793 23.0829C28.0583 23.0619 28.0298 23.0501 28.0001 23.0501H27.9921ZM19.9801 23.6121C19.9537 23.6164 19.9298 23.6301 19.9127 23.6507C19.8956 23.6713 19.8865 23.6974 19.8871 23.7241C19.8871 23.7462 19.8937 23.7678 19.9059 23.7862C19.9182 23.8046 19.9356 23.819 19.956 23.8275C19.9764 23.836 19.9989 23.8383 20.0206 23.834C20.0423 23.8298 20.0623 23.8192 20.078 23.8036C20.0937 23.7881 20.1044 23.7682 20.1088 23.7466C20.1133 23.7249 20.1112 23.7024 20.1029 23.6819C20.0946 23.6614 20.0804 23.6439 20.0621 23.6315C20.0438 23.619 20.0222 23.6123 20.0001 23.6121H19.9801ZM27.9801 23.6121C27.9537 23.6164 27.9298 23.6301 27.9127 23.6507C27.8956 23.6713 27.8865 23.6974 27.8871 23.7241C27.8871 23.7462 27.8937 23.7678 27.9059 23.7862C27.9182 23.8046 27.9356 23.819 27.956 23.8275C27.9764 23.836 27.9989 23.8383 28.0206 23.834C28.0423 23.8298 28.0623 23.8192 28.078 23.8036C28.0937 23.7881 28.1044 23.7682 28.1088 23.7466C28.1133 23.7249 28.1112 23.7024 28.1029 23.6819C28.0946 23.6614 28.0804 23.6439 28.0621 23.6315C28.0438 23.619 28.0222 23.6123 28.0001 23.6121H27.9801ZM19.9801 24.1751C19.9538 24.1792 19.9299 24.1927 19.9128 24.2131C19.8957 24.2336 19.8866 24.2595 19.8871 24.2861C19.8871 24.3481 19.9371 24.3991 20.0001 24.3971C20.0611 24.3971 20.1101 24.3471 20.1111 24.2871C20.1111 24.2251 20.0611 24.1761 20.0001 24.1751H19.9801ZM27.9801 24.1751C27.9538 24.1792 27.9299 24.1927 27.9128 24.2131C27.8957 24.2336 27.8866 24.2595 27.8871 24.2861C27.8871 24.3481 27.9371 24.3991 28.0001 24.3971C28.0611 24.3971 28.1101 24.3471 28.1111 24.2871C28.1111 24.2251 28.0611 24.1761 28.0001 24.1751H27.9801ZM19.9921 24.7351C19.9774 24.736 19.963 24.7398 19.9498 24.7463C19.9366 24.7528 19.9247 24.7618 19.915 24.7729C19.9052 24.7839 19.8977 24.7968 19.893 24.8107C19.8882 24.8246 19.8862 24.8394 19.8871 24.8541C19.888 24.8688 19.8918 24.8832 19.8983 24.8964C19.9048 24.9097 19.9138 24.9215 19.9249 24.9312C19.9359 24.941 19.9488 24.9485 19.9627 24.9533C19.9767 24.958 19.9914 24.96 20.0061 24.9591C20.0358 24.9572 20.0636 24.9437 20.0833 24.9213C20.103 24.899 20.113 24.8698 20.1111 24.8401C20.1093 24.8104 20.0957 24.7826 20.0734 24.763C20.0511 24.7433 20.0218 24.7332 19.9921 24.7351ZM27.9921 24.7351C27.9774 24.736 27.963 24.7398 27.9498 24.7463C27.9366 24.7528 27.9247 24.7618 27.915 24.7729C27.9052 24.7839 27.8977 24.7968 27.893 24.8107C27.8882 24.8246 27.8862 24.8394 27.8871 24.8541C27.888 24.8688 27.8918 24.8832 27.8983 24.8964C27.9048 24.9097 27.9138 24.9215 27.9249 24.9312C27.9359 24.941 27.9488 24.9485 27.9627 24.9533C27.9767 24.958 27.9914 24.96 28.0061 24.9591C28.0358 24.9572 28.0636 24.9437 28.0833 24.9213C28.103 24.899 28.113 24.8698 28.1111 24.8401C28.1093 24.8104 28.0957 24.7826 28.0734 24.763C28.0511 24.7433 28.0218 24.7332 27.9921 24.7351ZM16.6251 25.0541C16.4104 25.0465 16.1963 25.0822 15.9957 25.1592C15.795 25.2361 15.612 25.3527 15.4574 25.5019C15.3028 25.6511 15.1798 25.83 15.0958 26.0278C15.0118 26.2256 14.9686 26.4382 14.9686 26.6531C14.9686 26.868 15.0118 27.0807 15.0958 27.2784C15.1798 27.4762 15.3028 27.6551 15.4574 27.8043C15.612 27.9535 15.795 28.0701 15.9957 28.147C16.1963 28.224 16.4104 28.2597 16.6251 28.2521C17.0394 28.2374 17.4319 28.0626 17.7198 27.7643C18.0077 27.466 18.1686 27.0677 18.1686 26.6531C18.1686 26.2386 18.0077 25.8402 17.7198 25.5419C17.4319 25.2436 17.0394 25.0688 16.6251 25.0541ZM31.3751 25.0541C31.1604 25.0465 30.9463 25.0822 30.7457 25.1592C30.545 25.2361 30.362 25.3527 30.2074 25.5019C30.0528 25.6511 29.9298 25.83 29.8458 26.0278C29.7618 26.2256 29.7186 26.4382 29.7186 26.6531C29.7186 26.868 29.7618 27.0807 29.8458 27.2784C29.9298 27.4762 30.0528 27.6551 30.2074 27.8043C30.362 27.9535 30.545 28.0701 30.7457 28.147C30.9463 28.224 31.1604 28.2597 31.3751 28.2521C31.7894 28.2374 32.1819 28.0626 32.4698 27.7643C32.7577 27.466 32.9186 27.0677 32.9186 26.6531C32.9186 26.2386 32.7577 25.8402 32.4698 25.5419C32.1819 25.2436 31.7894 25.0688 31.3751 25.0541ZM19.9921 25.2981C19.9624 25.3 19.9347 25.3135 19.915 25.3359C19.8953 25.3582 19.8853 25.3874 19.8871 25.4171C19.889 25.4468 19.9026 25.4746 19.9249 25.4942C19.9472 25.5139 19.9764 25.524 20.0061 25.5221C20.0208 25.5212 20.0352 25.5174 20.0485 25.5109C20.0617 25.5044 20.0735 25.4954 20.0833 25.4843C20.093 25.4733 20.1005 25.4604 20.1053 25.4465C20.1101 25.4326 20.112 25.4178 20.1111 25.4031C20.1102 25.3884 20.1064 25.374 20.0999 25.3608C20.0934 25.3475 20.0844 25.3357 20.0734 25.326C20.0623 25.3162 20.0495 25.3087 20.0355 25.3039C20.0216 25.2992 20.0068 25.2972 19.9921 25.2981ZM27.9921 25.2981C27.9624 25.3 27.9347 25.3135 27.915 25.3359C27.8953 25.3582 27.8853 25.3874 27.8871 25.4171C27.889 25.4468 27.9026 25.4746 27.9249 25.4942C27.9472 25.5139 27.9764 25.524 28.0061 25.5221C28.0208 25.5212 28.0352 25.5174 28.0485 25.5109C28.0617 25.5044 28.0735 25.4954 28.0833 25.4843C28.093 25.4733 28.1005 25.4604 28.1053 25.4465C28.1101 25.4326 28.112 25.4178 28.1111 25.4031C28.1102 25.3884 28.1064 25.374 28.0999 25.3608C28.0934 25.3475 28.0844 25.3357 28.0734 25.326C28.0623 25.3162 28.0495 25.3087 28.0355 25.3039C28.0216 25.2992 28.0068 25.2972 27.9921 25.2981ZM19.9921 25.8601C19.9774 25.861 19.963 25.8648 19.9498 25.8713C19.9366 25.8778 19.9247 25.8868 19.915 25.8979C19.9052 25.9089 19.8977 25.9218 19.893 25.9357C19.8882 25.9496 19.8862 25.9644 19.8871 25.9791C19.888 25.9938 19.8918 26.0082 19.8983 26.0214C19.9048 26.0347 19.9138 26.0465 19.9249 26.0562C19.9359 26.066 19.9488 26.0735 19.9627 26.0783C19.9767 26.083 19.9914 26.085 20.0061 26.0841C20.0358 26.0822 20.0636 26.0687 20.0833 26.0463C20.103 26.024 20.113 25.9948 20.1111 25.9651C20.1093 25.9354 20.0957 25.9076 20.0734 25.888C20.0511 25.8683 20.0218 25.8582 19.9921 25.8601ZM27.9921 25.8601C27.9774 25.861 27.963 25.8648 27.9498 25.8713C27.9366 25.8778 27.9247 25.8868 27.915 25.8979C27.9052 25.9089 27.8977 25.9218 27.893 25.9357C27.8882 25.9496 27.8862 25.9644 27.8871 25.9791C27.888 25.9938 27.8918 26.0082 27.8983 26.0214C27.9048 26.0347 27.9138 26.0465 27.9249 26.0562C27.9359 26.066 27.9488 26.0735 27.9627 26.0783C27.9767 26.083 27.9914 26.085 28.0061 26.0841C28.0358 26.0822 28.0636 26.0687 28.0833 26.0463C28.103 26.024 28.113 25.9948 28.1111 25.9651C28.1093 25.9354 28.0957 25.9076 28.0734 25.888C28.0511 25.8683 28.0218 25.8582 27.9921 25.8601ZM19.9921 26.4231C19.9624 26.425 19.9347 26.4385 19.915 26.4609C19.8953 26.4832 19.8853 26.5124 19.8871 26.5421C19.889 26.5718 19.9026 26.5996 19.9249 26.6192C19.9472 26.6389 19.9764 26.649 20.0061 26.6471C20.0208 26.6462 20.0352 26.6424 20.0485 26.6359C20.0617 26.6294 20.0735 26.6204 20.0833 26.6093C20.093 26.5983 20.1005 26.5854 20.1053 26.5715C20.1101 26.5576 20.112 26.5428 20.1111 26.5281C20.1102 26.5134 20.1064 26.499 20.0999 26.4858C20.0934 26.4725 20.0844 26.4607 20.0734 26.451C20.0623 26.4412 20.0495 26.4337 20.0355 26.4289C20.0216 26.4242 20.0068 26.4222 19.9921 26.4231ZM27.9921 26.4231C27.9766 26.423 27.9612 26.426 27.947 26.4321C27.9327 26.4382 27.9198 26.4471 27.9091 26.4584C27.8985 26.4696 27.8902 26.483 27.8849 26.4975C27.8796 26.5121 27.8774 26.5276 27.8784 26.5431C27.8793 26.5586 27.8835 26.5737 27.8905 26.5875C27.8976 26.6013 27.9074 26.6136 27.9194 26.6234C27.9314 26.6332 27.9453 26.6405 27.9602 26.6448C27.9751 26.649 27.9907 26.6502 28.0061 26.6481C28.0345 26.6443 28.0603 26.6299 28.0785 26.6078C28.0966 26.5858 28.1057 26.5576 28.1039 26.5291C28.1022 26.5005 28.0896 26.4737 28.0689 26.4541C28.0481 26.4344 28.0207 26.4233 27.9921 26.4231ZM19.9921 26.9851C19.9773 26.986 19.9629 26.9898 19.9496 26.9963C19.9363 27.0028 19.9244 27.0119 19.9146 27.023C19.9048 27.0341 19.8973 27.047 19.8925 27.061C19.8877 27.075 19.8857 27.0898 19.8866 27.1046C19.8875 27.1194 19.8914 27.1338 19.8979 27.1471C19.9044 27.1604 19.9134 27.1723 19.9245 27.1821C19.9356 27.1919 19.9485 27.1994 19.9625 27.2042C19.9765 27.209 19.9913 27.211 20.0061 27.2101C20.036 27.2082 20.0638 27.1946 20.0836 27.1722C20.1034 27.1498 20.1135 27.1204 20.1116 27.0906C20.1098 27.0608 20.0961 27.0329 20.0737 27.0131C20.0513 26.9933 20.022 26.9832 19.9921 26.9851ZM27.9921 26.9851C27.9766 26.985 27.9612 26.988 27.947 26.9941C27.9327 27.0002 27.9198 27.0091 27.9091 27.0204C27.8985 27.0316 27.8902 27.045 27.8849 27.0595C27.8796 27.0741 27.8774 27.0896 27.8784 27.1051C27.8793 27.1206 27.8835 27.1357 27.8905 27.1495C27.8976 27.1633 27.9074 27.1756 27.9194 27.1854C27.9314 27.1952 27.9453 27.2025 27.9602 27.2068C27.9751 27.211 27.9907 27.2122 28.0061 27.2101C28.0345 27.2063 28.0603 27.1919 28.0785 27.1698C28.0966 27.1478 28.1057 27.1196 28.1039 27.0911C28.1022 27.0625 28.0896 27.0357 28.0689 27.0161C28.0481 26.9964 28.0207 26.9853 27.9921 26.9851ZM24.2191 27.3551C24.0057 27.3498 23.7934 27.3872 23.5947 27.4652C23.3959 27.5432 23.2148 27.6601 23.062 27.8092C22.9092 27.9582 22.7877 28.1364 22.7048 28.3331C22.6218 28.5298 22.5791 28.7411 22.5791 28.9546C22.5791 29.1681 22.6218 29.3794 22.7048 29.5761C22.7877 29.7728 22.9092 29.951 23.062 30.1C23.2148 30.2491 23.3959 30.366 23.5947 30.444C23.7934 30.522 24.0057 30.5594 24.2191 30.5541C24.6435 30.5541 25.0504 30.3855 25.3505 30.0855C25.6506 29.7854 25.8191 29.3785 25.8191 28.9541C25.8191 28.5298 25.6506 28.1228 25.3505 27.8227C25.0504 27.5227 24.6435 27.3541 24.2191 27.3541V27.3551ZM19.9921 27.5481C19.9624 27.55 19.9347 27.5635 19.915 27.5859C19.8953 27.6082 19.8853 27.6374 19.8871 27.6671C19.889 27.6968 19.9026 27.7246 19.9249 27.7442C19.9472 27.7639 19.9764 27.774 20.0061 27.7721C20.0208 27.7712 20.0352 27.7674 20.0485 27.7609C20.0617 27.7544 20.0735 27.7454 20.0833 27.7343C20.093 27.7233 20.1005 27.7104 20.1053 27.6965C20.1101 27.6826 20.112 27.6678 20.1111 27.6531C20.1102 27.6384 20.1064 27.624 20.0999 27.6108C20.0934 27.5975 20.0844 27.5857 20.0734 27.576C20.0623 27.5662 20.0495 27.5587 20.0355 27.5539C20.0216 27.5492 20.0068 27.5472 19.9921 27.5481ZM27.9921 27.5481C27.9766 27.548 27.9612 27.551 27.947 27.5571C27.9327 27.5632 27.9198 27.5721 27.9091 27.5834C27.8985 27.5946 27.8902 27.608 27.8849 27.6225C27.8796 27.6371 27.8774 27.6526 27.8784 27.6681C27.8793 27.6836 27.8835 27.6987 27.8905 27.7125C27.8976 27.7263 27.9074 27.7386 27.9194 27.7484C27.9314 27.7582 27.9453 27.7655 27.9602 27.7698C27.9751 27.774 27.9907 27.7752 28.0061 27.7731C28.0345 27.7693 28.0603 27.7549 28.0785 27.7328C28.0966 27.7108 28.1057 27.6826 28.1039 27.6541C28.1022 27.6255 28.0896 27.5987 28.0689 27.5791C28.0481 27.5594 28.0207 27.5483 27.9921 27.5481ZM19.9801 28.1101C19.9537 28.1144 19.9298 28.1281 19.9127 28.1487C19.8956 28.1693 19.8865 28.1954 19.8871 28.2221C19.8871 28.2519 19.899 28.2806 19.9201 28.3017C19.9412 28.3228 19.9698 28.3346 19.9996 28.3346C20.0295 28.3346 20.0581 28.3228 20.0792 28.3017C20.1003 28.2806 20.1121 28.2519 20.1121 28.2221C20.1111 28.1611 20.0621 28.1121 20.0001 28.1101H19.9801ZM27.9801 28.1101C27.9537 28.1144 27.9298 28.1281 27.9127 28.1487C27.8956 28.1693 27.8865 28.1954 27.8871 28.2221C27.8871 28.2519 27.899 28.2806 27.9201 28.3017C27.9412 28.3228 27.9698 28.3346 27.9996 28.3346C28.0295 28.3346 28.0581 28.3228 28.0792 28.3017C28.1003 28.2806 28.1121 28.2519 28.1121 28.2221C28.1111 28.1611 28.0621 28.1121 28.0001 28.1101H27.9801ZM20.0021 28.6701C19.9722 28.6701 19.9434 28.682 19.9222 28.7032C19.901 28.7244 19.8891 28.7531 19.8891 28.7831C19.8891 28.8131 19.901 28.8418 19.9222 28.863C19.9434 28.8842 19.9722 28.8961 20.0021 28.8961C20.032 28.8961 20.0606 28.8843 20.0817 28.8632C20.1028 28.8421 20.1146 28.8134 20.1146 28.7836C20.1146 28.7538 20.1028 28.7252 20.0817 28.7041C20.0606 28.683 20.032 28.6711 20.0021 28.6711V28.6701ZM28.0021 28.6701C27.9722 28.6701 27.9434 28.682 27.9222 28.7032C27.901 28.7244 27.8891 28.7531 27.8891 28.7831C27.8891 28.8131 27.901 28.8418 27.9222 28.863C27.9434 28.8842 27.9722 28.8961 28.0021 28.8961C28.032 28.8961 28.0606 28.8843 28.0817 28.8632C28.1028 28.8421 28.1146 28.8134 28.1146 28.7836C28.1146 28.7538 28.1028 28.7252 28.0817 28.7041C28.0606 28.683 28.032 28.6711 28.0021 28.6711V28.6701ZM19.9921 29.2331C19.9633 29.2349 19.9363 29.2478 19.9167 29.269C19.8972 29.2903 19.8866 29.3182 19.8871 29.3471C19.8871 29.4091 19.9371 29.4591 20.0001 29.4581C20.03 29.4581 20.0586 29.4462 20.0797 29.4252C20.1008 29.4041 20.1126 29.3754 20.1126 29.3456C20.1126 29.3158 20.1008 29.2872 20.0797 29.2661C20.0586 29.245 20.03 29.2331 20.0001 29.2331C19.9975 29.233 19.9948 29.233 19.9921 29.2331ZM27.9921 29.2331C27.9633 29.2349 27.9363 29.2478 27.9167 29.269C27.8972 29.2903 27.8866 29.3182 27.8871 29.3471C27.8871 29.4091 27.9371 29.4591 28.0001 29.4581C28.03 29.4581 28.0586 29.4462 28.0797 29.4252C28.1008 29.4041 28.1126 29.3754 28.1126 29.3456C28.1126 29.3158 28.1008 29.2872 28.0797 29.2661C28.0586 29.245 28.03 29.2331 28.0001 29.2331C27.9975 29.233 27.9948 29.233 27.9921 29.2331ZM19.9921 29.7961C19.9774 29.797 19.963 29.8008 19.9498 29.8073C19.9366 29.8138 19.9247 29.8228 19.915 29.8339C19.9052 29.8449 19.8977 29.8578 19.893 29.8717C19.8882 29.8857 19.8862 29.9004 19.8871 29.9151C19.888 29.9298 19.8918 29.9442 19.8983 29.9574C19.9048 29.9707 19.9138 29.9825 19.9249 29.9922C19.9359 30.002 19.9488 30.0095 19.9627 30.0143C19.9767 30.019 19.9914 30.021 20.0061 30.0201C20.0358 30.0182 20.0636 30.0047 20.0833 29.9823C20.103 29.96 20.113 29.9308 20.1111 29.9011C20.1093 29.8714 20.0957 29.8436 20.0734 29.824C20.0511 29.8043 20.0218 29.7942 19.9921 29.7961ZM27.9921 29.7961C27.9774 29.797 27.963 29.8008 27.9498 29.8073C27.9366 29.8138 27.9247 29.8228 27.915 29.8339C27.9052 29.8449 27.8977 29.8578 27.893 29.8717C27.8882 29.8857 27.8862 29.9004 27.8871 29.9151C27.888 29.9298 27.8918 29.9442 27.8983 29.9574C27.9048 29.9707 27.9138 29.9825 27.9249 29.9922C27.9359 30.002 27.9488 30.0095 27.9627 30.0143C27.9767 30.019 27.9914 30.021 28.0061 30.0201C28.0358 30.0182 28.0636 30.0047 28.0833 29.9823C28.103 29.96 28.113 29.9308 28.1111 29.9011C28.1093 29.8714 28.0957 29.8436 28.0734 29.824C28.0511 29.8043 28.0218 29.7942 27.9921 29.7961ZM16.6251 30.2881C16.4117 30.2828 16.1994 30.3202 16.0007 30.3982C15.8019 30.4762 15.6208 30.5931 15.468 30.7422C15.3152 30.8912 15.1937 31.0694 15.1108 31.2661C15.0278 31.4628 14.9851 31.6741 14.9851 31.8876C14.9851 32.1011 15.0278 32.3124 15.1108 32.5091C15.1937 32.7058 15.3152 32.884 15.468 33.033C15.6208 33.1821 15.8019 33.299 16.0007 33.377C16.1994 33.455 16.4117 33.4924 16.6251 33.4871C17.0424 33.4767 17.4391 33.3036 17.7306 33.0047C18.022 32.7059 18.1851 32.305 18.1851 31.8876C18.1851 31.4702 18.022 31.0693 17.7306 30.7705C17.4391 30.4716 17.0424 30.2985 16.6251 30.2881ZM31.3751 30.2881C31.1617 30.2828 30.9494 30.3202 30.7507 30.3982C30.5519 30.4762 30.3708 30.5931 30.218 30.7422C30.0652 30.8912 29.9437 31.0694 29.8608 31.2661C29.7778 31.4628 29.7351 31.6741 29.7351 31.8876C29.7351 32.1011 29.7778 32.3124 29.8608 32.5091C29.9437 32.7058 30.0652 32.884 30.218 33.033C30.3708 33.1821 30.5519 33.299 30.7507 33.377C30.9494 33.455 31.1617 33.4924 31.3751 33.4871C31.7924 33.4767 32.1891 33.3036 32.4805 33.0047C32.772 32.7059 32.9351 32.305 32.9351 31.8876C32.9351 31.4702 32.772 31.0693 32.4805 30.7705C32.1891 30.4716 31.7924 30.2985 31.3751 30.2881ZM19.9921 30.3581C19.9633 30.3599 19.9363 30.3728 19.9167 30.394C19.8972 30.4153 19.8866 30.4432 19.8871 30.4721C19.8873 30.4942 19.894 30.5157 19.9064 30.5339C19.9188 30.5522 19.9363 30.5664 19.9567 30.5748C19.9771 30.5831 19.9996 30.5852 20.0212 30.5809C20.0428 30.5765 20.0627 30.5659 20.0783 30.5503C20.0939 30.5347 20.1046 30.5148 20.1089 30.4932C20.1133 30.4716 20.1111 30.4491 20.1028 30.4287C20.0944 30.4083 20.0802 30.3908 20.062 30.3784C20.0437 30.366 20.0222 30.3593 20.0001 30.3591C19.9975 30.359 19.9948 30.359 19.9921 30.3591V30.3581ZM27.9921 30.3581C27.9633 30.3599 27.9363 30.3728 27.9167 30.394C27.8972 30.4153 27.8866 30.4432 27.8871 30.4721C27.8873 30.4942 27.894 30.5157 27.9064 30.5339C27.9188 30.5522 27.9363 30.5664 27.9567 30.5748C27.9771 30.5831 27.9996 30.5852 28.0212 30.5809C28.0428 30.5765 28.0627 30.5659 28.0783 30.5503C28.0939 30.5347 28.1046 30.5148 28.1089 30.4932C28.1133 30.4716 28.1111 30.4491 28.1028 30.4287C28.0944 30.4083 28.0802 30.3908 28.062 30.3784C28.0437 30.366 28.0222 30.3593 28.0001 30.3591C27.9975 30.359 27.9948 30.359 27.9921 30.3591V30.3581ZM19.9921 30.9191C19.9636 30.9214 19.9371 30.9342 19.9176 30.9551C19.8982 30.9761 19.8873 31.0035 19.8871 31.0321C19.8871 31.0618 19.8989 31.0903 19.9199 31.1113C19.9409 31.1323 19.9694 31.1441 19.9991 31.1441C20.0288 31.1441 20.0573 31.1323 20.0783 31.1113C20.0993 31.0903 20.1111 31.0618 20.1111 31.0321C20.111 31.0168 20.1078 31.0016 20.1017 30.9876C20.0956 30.9736 20.0867 30.9609 20.0756 30.9503C20.0645 30.9398 20.0514 30.9316 20.0371 30.9262C20.0227 30.9208 20.0074 30.9184 19.9921 30.9191ZM27.9921 30.9191C27.9636 30.9214 27.9371 30.9342 27.9176 30.9551C27.8982 30.9761 27.8873 31.0035 27.8871 31.0321C27.8871 31.0618 27.8989 31.0903 27.9199 31.1113C27.9409 31.1323 27.9694 31.1441 27.9991 31.1441C28.0288 31.1441 28.0573 31.1323 28.0783 31.1113C28.0993 31.0903 28.1111 31.0618 28.1111 31.0321C28.111 31.0168 28.1078 31.0016 28.1017 30.9876C28.0956 30.9736 28.0867 30.9609 28.0756 30.9503C28.0645 30.9398 28.0514 30.9316 28.0371 30.9262C28.0227 30.9208 28.0074 30.9184 27.9921 30.9191ZM19.9921 31.4821C19.965 31.4866 19.9405 31.5008 19.9231 31.522C19.9057 31.5433 19.8967 31.5702 19.8976 31.5976C19.8986 31.6251 19.9096 31.6512 19.9284 31.6712C19.9473 31.6912 19.9728 31.7036 20.0001 31.7061C20.0148 31.7056 20.0293 31.7022 20.0427 31.696C20.0561 31.6899 20.0681 31.6812 20.0781 31.6705C20.0882 31.6597 20.096 31.6471 20.1011 31.6333C20.1063 31.6195 20.1086 31.6048 20.1081 31.5901C20.1076 31.5754 20.1042 31.5609 20.0981 31.5475C20.092 31.5342 20.0833 31.5221 20.0725 31.5121C20.0617 31.5021 20.0491 31.4942 20.0353 31.4891C20.0215 31.484 20.0068 31.4816 19.9921 31.4821ZM27.9921 31.4821C27.9628 31.4832 27.935 31.4957 27.9148 31.517C27.8946 31.5383 27.8836 31.5667 27.8841 31.596C27.8847 31.6254 27.8967 31.6534 27.9176 31.6739C27.9386 31.6945 27.9668 31.706 27.9961 31.706C28.0255 31.706 28.0537 31.6945 28.0746 31.6739C28.0956 31.6534 28.1076 31.6254 28.1081 31.596C28.1086 31.5667 28.0976 31.5383 28.0774 31.517C28.0572 31.4957 28.0295 31.4832 28.0001 31.4821C27.9975 31.482 27.9948 31.482 27.9921 31.4821ZM19.9801 32.0441C19.9539 32.0484 19.9301 32.062 19.913 32.0823C19.896 32.1027 19.8868 32.1285 19.8871 32.1551C19.8869 32.1773 19.8933 32.199 19.9054 32.2175C19.9176 32.236 19.9349 32.2505 19.9553 32.2592C19.9757 32.2678 19.9982 32.2703 20.02 32.2661C20.0417 32.262 20.0618 32.2515 20.0776 32.236C20.0934 32.2205 20.1043 32.2006 20.1088 32.1789C20.1133 32.1572 20.1113 32.1347 20.103 32.1142C20.0947 32.0936 20.0805 32.076 20.0622 32.0635C20.0439 32.0511 20.0223 32.0443 20.0001 32.0441H19.9801ZM27.9801 32.0441C27.9539 32.0484 27.9301 32.062 27.913 32.0823C27.896 32.1027 27.8868 32.1285 27.8871 32.1551C27.8869 32.1773 27.8933 32.199 27.9054 32.2175C27.9176 32.236 27.9349 32.2505 27.9553 32.2592C27.9757 32.2678 27.9982 32.2703 28.02 32.2661C28.0417 32.262 28.0618 32.2515 28.0776 32.236C28.0934 32.2205 28.1043 32.2006 28.1088 32.1789C28.1133 32.1572 28.1113 32.1347 28.103 32.1142C28.0947 32.0936 28.0805 32.076 28.0622 32.0635C28.0439 32.0511 28.0223 32.0443 28.0001 32.0441H27.9801ZM24.2191 32.5891C24.0057 32.5838 23.7934 32.6212 23.5947 32.6992C23.3959 32.7772 23.2148 32.8941 23.062 33.0432C22.9092 33.1922 22.7877 33.3704 22.7048 33.5671C22.6218 33.7638 22.5791 33.9751 22.5791 34.1886C22.5791 34.4021 22.6218 34.6134 22.7048 34.8101C22.7877 35.0068 22.9092 35.185 23.062 35.334C23.2148 35.4831 23.3959 35.6 23.5947 35.678C23.7934 35.756 24.0057 35.7934 24.2191 35.7881C24.6435 35.7881 25.0504 35.6195 25.3505 35.3195C25.6506 35.0194 25.8191 34.6124 25.8191 34.1881C25.8191 33.7638 25.6506 33.3568 25.3505 33.0567C25.0504 32.7567 24.6435 32.5881 24.2191 32.5881V32.5891ZM19.9801 32.6091C19.959 32.6125 19.9394 32.6219 19.9235 32.6362C19.9075 32.6504 19.896 32.6689 19.8903 32.6895C19.8845 32.7101 19.8848 32.7318 19.891 32.7523C19.8972 32.7727 19.9092 32.791 19.9254 32.8048C19.9416 32.8187 19.9615 32.8276 19.9827 32.8306C20.0038 32.8335 20.0254 32.8304 20.0448 32.8214C20.0642 32.8125 20.0807 32.7983 20.0923 32.7803C20.1038 32.7624 20.11 32.7415 20.1101 32.7201C20.1101 32.6581 20.0611 32.6091 20.0001 32.6081H19.9801V32.6091ZM27.9801 32.6091C27.959 32.6125 27.9394 32.6219 27.9235 32.6362C27.9075 32.6504 27.896 32.6689 27.8903 32.6895C27.8845 32.7101 27.8848 32.7318 27.891 32.7523C27.8972 32.7727 27.9092 32.791 27.9254 32.8048C27.9416 32.8187 27.9615 32.8276 27.9827 32.8306C28.0038 32.8335 28.0254 32.8304 28.0448 32.8214C28.0642 32.8125 28.0807 32.7983 28.0923 32.7803C28.1038 32.7624 28.11 32.7415 28.1101 32.7201C28.1101 32.6581 28.0611 32.6091 28.0001 32.6081H27.9801V32.6091ZM20.0021 33.1691C19.9872 33.1692 19.9724 33.1723 19.9586 33.1782C19.9448 33.184 19.9323 33.1925 19.9218 33.2032C19.9113 33.2139 19.903 33.2265 19.8974 33.2404C19.8918 33.2543 19.889 33.2691 19.8891 33.2841C19.8891 33.3461 19.9391 33.3941 20.0021 33.3941C20.0167 33.3942 20.0311 33.3915 20.0445 33.386C20.058 33.3805 20.0702 33.3725 20.0806 33.3622C20.0909 33.352 20.0991 33.3398 20.1047 33.3264C20.1102 33.313 20.1131 33.2986 20.1131 33.2841C20.1134 33.2542 20.1019 33.2254 20.0812 33.2039C20.0604 33.1824 20.032 33.1699 20.0021 33.1691ZM28.0021 33.1691C27.9872 33.1692 27.9724 33.1723 27.9586 33.1782C27.9448 33.184 27.9323 33.1925 27.9218 33.2032C27.9113 33.2139 27.903 33.2265 27.8974 33.2404C27.8918 33.2543 27.889 33.2691 27.8891 33.2841C27.8891 33.3461 27.9391 33.3941 28.0021 33.3941C28.0167 33.3942 28.0311 33.3915 28.0445 33.386C28.058 33.3805 28.0702 33.3725 28.0806 33.3622C28.0909 33.352 28.0991 33.3398 28.1047 33.3264C28.1102 33.313 28.1131 33.2986 28.1131 33.2841C28.1134 33.2542 28.1019 33.2254 28.0812 33.2039C28.0604 33.1824 28.032 33.1699 28.0021 33.1691ZM19.9921 33.7321C19.9635 33.7339 19.9366 33.7466 19.9171 33.7676C19.8975 33.7887 19.8868 33.8164 19.8871 33.8451C19.8871 33.9071 19.9371 33.9571 20.0001 33.9561C20.0148 33.9556 20.0293 33.9522 20.0427 33.946C20.0561 33.9399 20.0681 33.9312 20.0781 33.9205C20.0882 33.9097 20.096 33.8971 20.1011 33.8833C20.1063 33.8695 20.1086 33.8548 20.1081 33.8401C20.1076 33.8254 20.1042 33.8109 20.0981 33.7975C20.092 33.7842 20.0833 33.7721 20.0725 33.7621C20.0617 33.752 20.0491 33.7442 20.0353 33.7391C20.0215 33.734 20.0068 33.7316 19.9921 33.7321ZM27.9921 33.7321C27.9635 33.7339 27.9366 33.7466 27.9171 33.7676C27.8975 33.7887 27.8868 33.8164 27.8871 33.8451C27.8871 33.9071 27.9371 33.9571 28.0001 33.9561C28.0148 33.9556 28.0293 33.9522 28.0427 33.946C28.0561 33.9399 28.0681 33.9312 28.0781 33.9205C28.0882 33.9097 28.096 33.8971 28.1011 33.8833C28.1063 33.8695 28.1086 33.8548 28.1081 33.8401C28.1076 33.8254 28.1042 33.8109 28.0981 33.7975C28.092 33.7842 28.0833 33.7721 28.0725 33.7621C28.0617 33.752 28.0491 33.7442 28.0353 33.7391C28.0215 33.734 28.0068 33.7316 27.9921 33.7321ZM19.9921 34.2941C19.9623 34.2952 19.9341 34.308 19.9137 34.3299C19.8934 34.3517 19.8826 34.3808 19.8836 34.4106C19.8847 34.4404 19.8976 34.4686 19.9194 34.489C19.9412 34.5093 19.9703 34.5202 20.0001 34.5191C20.0149 34.5186 20.0294 34.5151 20.0429 34.509C20.0563 34.5029 20.0684 34.4941 20.0785 34.4833C20.0886 34.4725 20.0964 34.4598 20.1016 34.446C20.1068 34.4321 20.1091 34.4174 20.1086 34.4026C20.1081 34.3878 20.1047 34.3733 20.0985 34.3599C20.0924 34.3464 20.0837 34.3343 20.0728 34.3242C20.062 34.3142 20.0493 34.3063 20.0355 34.3011C20.0216 34.296 20.0069 34.2936 19.9921 34.2941ZM27.9921 34.2941C27.9623 34.2952 27.9341 34.308 27.9137 34.3299C27.8934 34.3517 27.8826 34.3808 27.8836 34.4106C27.8847 34.4404 27.8976 34.4686 27.9194 34.489C27.9412 34.5093 27.9703 34.5202 28.0001 34.5191C28.0149 34.5186 28.0294 34.5151 28.0429 34.509C28.0563 34.5029 28.0684 34.4941 28.0785 34.4833C28.0886 34.4725 28.0964 34.4598 28.1016 34.446C28.1068 34.4321 28.1091 34.4174 28.1086 34.4026C28.1081 34.3878 28.1047 34.3733 28.0985 34.3599C28.0924 34.3464 28.0837 34.3343 28.0728 34.3242C28.062 34.3142 28.0493 34.3063 28.0355 34.3011C28.0216 34.296 28.0069 34.2936 27.9921 34.2941ZM19.9921 34.8571C19.9628 34.8582 19.935 34.8707 19.9148 34.892C19.8946 34.9133 19.8836 34.9417 19.8841 34.971C19.8847 35.0004 19.8967 35.0284 19.9176 35.0489C19.9386 35.0695 19.9668 35.081 19.9961 35.081C20.0255 35.081 20.0537 35.0695 20.0746 35.0489C20.0956 35.0284 20.1076 35.0004 20.1081 34.971C20.1086 34.9417 20.0976 34.9133 20.0774 34.892C20.0572 34.8707 20.0295 34.8582 20.0001 34.8571C19.9975 34.857 19.9948 34.857 19.9921 34.8571ZM27.9921 34.8571C27.9628 34.8582 27.935 34.8707 27.9148 34.892C27.8946 34.9133 27.8836 34.9417 27.8841 34.971C27.8847 35.0004 27.8967 35.0284 27.9176 35.0489C27.9386 35.0695 27.9668 35.081 27.9961 35.081C28.0255 35.081 28.0537 35.0695 28.0746 35.0489C28.0956 35.0284 28.1076 35.0004 28.1081 34.971C28.1086 34.9417 28.0976 34.9133 28.0774 34.892C28.0572 34.8707 28.0295 34.8582 28.0001 34.8571C27.9975 34.857 27.9948 34.857 27.9921 34.8571ZM19.9921 35.4191C19.9641 35.4226 19.9383 35.4364 19.92 35.4579C19.9016 35.4794 19.892 35.507 19.893 35.5353C19.894 35.5635 19.9056 35.5904 19.9254 35.6105C19.9452 35.6307 19.9719 35.6426 20.0001 35.6441C20.03 35.643 20.0582 35.6302 20.0785 35.6083C20.0988 35.5865 20.1097 35.5574 20.1086 35.5276C20.1076 35.4978 20.0947 35.4696 20.0728 35.4492C20.051 35.4289 20.022 35.418 19.9921 35.4191ZM27.9921 35.4191C27.9628 35.4202 27.935 35.4327 27.9148 35.454C27.8946 35.4753 27.8836 35.5037 27.8841 35.533C27.8847 35.5624 27.8967 35.5904 27.9176 35.6109C27.9386 35.6315 27.9668 35.643 27.9961 35.643C28.0255 35.643 28.0537 35.6315 28.0746 35.6109C28.0956 35.5904 28.1076 35.5624 28.1081 35.533C28.1086 35.5037 28.0976 35.4753 28.0774 35.454C28.0572 35.4327 28.0295 35.4202 28.0001 35.4191C27.9975 35.419 27.9948 35.419 27.9921 35.4191ZM16.6251 35.5241C16.2008 35.5241 15.7938 35.6927 15.4938 35.9927C15.1937 36.2928 15.0251 36.6998 15.0251 37.1241C15.0251 37.5485 15.1937 37.9554 15.4938 38.2555C15.7938 38.5555 16.2008 38.7241 16.6251 38.7241C17.0495 38.7241 17.4564 38.5555 17.7565 38.2555C18.0566 37.9554 18.2251 37.5485 18.2251 37.1241C18.2251 36.6998 18.0566 36.2928 17.7565 35.9927C17.4564 35.6927 17.0495 35.5241 16.6251 35.5241ZM31.3751 35.5241C30.9508 35.5241 30.5438 35.6927 30.2438 35.9927C29.9437 36.2928 29.7751 36.6998 29.7751 37.1241C29.7751 37.5485 29.9437 37.9554 30.2438 38.2555C30.5438 38.5555 30.9508 38.7241 31.3751 38.7241C31.7995 38.7241 32.2064 38.5555 32.5065 38.2555C32.8065 37.9554 32.9751 37.5485 32.9751 37.1241C32.9751 36.6998 32.8065 36.2928 32.5065 35.9927C32.2064 35.6927 31.7995 35.5241 31.3751 35.5241ZM19.9921 35.9811C19.9773 35.982 19.9629 35.9858 19.9496 35.9923C19.9363 35.9988 19.9244 36.0079 19.9146 36.019C19.9048 36.0301 19.8973 36.043 19.8925 36.057C19.8877 36.071 19.8857 36.0858 19.8866 36.1006C19.8875 36.1154 19.8914 36.1298 19.8979 36.1431C19.9044 36.1564 19.9134 36.1683 19.9245 36.1781C19.9356 36.1879 19.9485 36.1954 19.9625 36.2002C19.9765 36.205 19.9913 36.207 20.0061 36.2061C20.0358 36.2042 20.0636 36.1907 20.0833 36.1684C20.103 36.146 20.113 36.1168 20.1111 36.0871C20.1093 36.0574 20.0957 36.0296 20.0734 36.01C20.0511 35.9903 20.0218 35.9802 19.9921 35.9821V35.9811ZM27.9921 35.9811C27.9773 35.982 27.9629 35.9858 27.9496 35.9923C27.9363 35.9988 27.9244 36.0079 27.9146 36.019C27.9048 36.0301 27.8973 36.043 27.8925 36.057C27.8877 36.071 27.8857 36.0858 27.8866 36.1006C27.8875 36.1154 27.8914 36.1298 27.8979 36.1431C27.9044 36.1564 27.9134 36.1683 27.9245 36.1781C27.9356 36.1879 27.9485 36.1954 27.9625 36.2002C27.9765 36.205 27.9913 36.207 28.0061 36.2061C28.0358 36.2042 28.0636 36.1907 28.0833 36.1684C28.103 36.146 28.113 36.1168 28.1111 36.0871C28.1093 36.0574 28.0957 36.0296 28.0734 36.01C28.0511 35.9903 28.0218 35.9802 27.9921 35.9821V35.9811ZM19.9921 36.5441C19.9774 36.545 19.963 36.5487 19.9498 36.5551C19.9365 36.5615 19.9246 36.5705 19.9148 36.5815C19.905 36.5925 19.8975 36.6053 19.8927 36.6192C19.8878 36.6332 19.8858 36.6479 19.8866 36.6626C19.8875 36.6773 19.8912 36.6917 19.8976 36.705C19.9041 36.7182 19.913 36.7301 19.924 36.7399C19.935 36.7497 19.9479 36.7572 19.9618 36.7621C19.9757 36.7669 19.9904 36.769 20.0051 36.7681C20.0348 36.7664 20.0626 36.7529 20.0824 36.7307C20.1022 36.7085 20.1123 36.6793 20.1106 36.6496C20.1089 36.6199 20.0954 36.5921 20.0732 36.5723C20.051 36.5525 20.0218 36.5424 19.9921 36.5441ZM27.9921 36.5441C27.9774 36.545 27.963 36.5488 27.9498 36.5553C27.9366 36.5618 27.9247 36.5708 27.915 36.5819C27.9052 36.5929 27.8977 36.6058 27.893 36.6197C27.8882 36.6336 27.8862 36.6484 27.8871 36.6631C27.888 36.6778 27.8918 36.6922 27.8983 36.7054C27.9048 36.7187 27.9138 36.7305 27.9249 36.7402C27.9359 36.75 27.9488 36.7575 27.9627 36.7623C27.9767 36.767 27.9914 36.769 28.0061 36.7681C28.0358 36.7662 28.0636 36.7527 28.0833 36.7304C28.103 36.708 28.113 36.6788 28.1111 36.6491C28.1093 36.6194 28.0957 36.5916 28.0734 36.572C28.0511 36.5523 28.0218 36.5422 27.9921 36.5441ZM19.9801 37.1071C19.954 37.1112 19.9302 37.1246 19.9131 37.1448C19.896 37.165 19.8868 37.1906 19.8871 37.2171C19.8871 37.2469 19.899 37.2756 19.9201 37.2967C19.9412 37.3178 19.9698 37.3296 19.9996 37.3296C20.0295 37.3296 20.0581 37.3178 20.0792 37.2967C20.1003 37.2756 20.1121 37.2469 20.1121 37.2171C20.1111 37.1571 20.0621 37.1071 20.0001 37.1071H19.9801ZM27.9801 37.1071C27.954 37.1112 27.9302 37.1246 27.9131 37.1448C27.896 37.165 27.8868 37.1906 27.8871 37.2171C27.8871 37.2469 27.899 37.2756 27.9201 37.2967C27.9412 37.3178 27.9698 37.3296 27.9996 37.3296C28.0295 37.3296 28.0581 37.3178 28.0792 37.2967C28.1003 37.2756 28.1121 37.2469 28.1121 37.2171C28.1111 37.1571 28.0621 37.1071 28.0001 37.1071H27.9801ZM19.9921 37.6671C19.9628 37.6682 19.935 37.6807 19.9148 37.702C19.8946 37.7233 19.8836 37.7517 19.8841 37.781C19.8847 37.8104 19.8967 37.8384 19.9176 37.8589C19.9386 37.8795 19.9668 37.891 19.9961 37.891C20.0255 37.891 20.0537 37.8795 20.0746 37.8589C20.0956 37.8384 20.1076 37.8104 20.1081 37.781C20.1086 37.7517 20.0976 37.7233 20.0774 37.702C20.0572 37.6807 20.0295 37.6682 20.0001 37.6671H19.9921ZM27.9921 37.6671C27.9628 37.6682 27.935 37.6807 27.9148 37.702C27.8946 37.7233 27.8836 37.7517 27.8841 37.781C27.8847 37.8104 27.8967 37.8384 27.9176 37.8589C27.9386 37.8795 27.9668 37.891 27.9961 37.891C28.0255 37.891 28.0537 37.8795 28.0746 37.8589C28.0956 37.8384 28.1076 37.8104 28.1081 37.781C28.1086 37.7517 28.0976 37.7233 28.0774 37.702C28.0572 37.6807 28.0295 37.6682 28.0001 37.6671H27.9921ZM24.2191 37.8601C23.7948 37.8601 23.3878 38.0287 23.0878 38.3287C22.7877 38.6288 22.6191 39.0358 22.6191 39.4601C22.6191 39.8844 22.7877 40.2914 23.0878 40.5915C23.3878 40.8915 23.7948 41.0601 24.2191 41.0601C24.6435 41.0601 25.0504 40.8915 25.3505 40.5915C25.6506 40.2914 25.8191 39.8844 25.8191 39.4601C25.8191 39.0358 25.6506 38.6288 25.3505 38.3287C25.0504 38.0287 24.6435 37.8601 24.2191 37.8601ZM19.9921 38.2301C19.9635 38.2319 19.9366 38.2446 19.9171 38.2656C19.8975 38.2867 19.8868 38.3144 19.8871 38.3431C19.8871 38.4051 19.9371 38.4551 20.0001 38.4541C20.03 38.4541 20.0586 38.4423 20.0797 38.4212C20.1008 38.4001 20.1126 38.3714 20.1126 38.3416C20.1126 38.3118 20.1008 38.2832 20.0797 38.2621C20.0586 38.241 20.03 38.2291 20.0001 38.2291C19.9975 38.229 19.9948 38.229 19.9921 38.2291V38.2301ZM27.9921 38.2301C27.9635 38.2319 27.9366 38.2446 27.9171 38.2656C27.8975 38.2867 27.8868 38.3144 27.8871 38.3431C27.8871 38.4051 27.9371 38.4551 28.0001 38.4541C28.03 38.4541 28.0586 38.4423 28.0797 38.4212C28.1008 38.4001 28.1126 38.3714 28.1126 38.3416C28.1126 38.3118 28.1008 38.2832 28.0797 38.2621C28.0586 38.241 28.03 38.2291 28.0001 38.2291C27.9975 38.229 27.9948 38.229 27.9921 38.2291V38.2301ZM19.9921 38.7921C19.9774 38.793 19.963 38.7968 19.9498 38.8033C19.9366 38.8098 19.9247 38.8188 19.915 38.8299C19.9052 38.8409 19.8977 38.8538 19.893 38.8677C19.8882 38.8816 19.8862 38.8964 19.8871 38.9111C19.888 38.9258 19.8918 38.9402 19.8983 38.9534C19.9048 38.9667 19.9138 38.9785 19.9249 38.9882C19.9359 38.998 19.9488 39.0055 19.9627 39.0103C19.9767 39.015 19.9914 39.017 20.0061 39.0161C20.0358 39.0142 20.0636 39.0007 20.0833 38.9783C20.103 38.956 20.113 38.9268 20.1111 38.8971C20.1093 38.8674 20.0957 38.8396 20.0734 38.82C20.0511 38.8003 20.0218 38.7902 19.9921 38.7921ZM27.9921 38.7921C27.9774 38.793 27.963 38.7968 27.9498 38.8033C27.9366 38.8098 27.9247 38.8188 27.915 38.8299C27.9052 38.8409 27.8977 38.8538 27.893 38.8677C27.8882 38.8816 27.8862 38.8964 27.8871 38.9111C27.888 38.9258 27.8918 38.9402 27.8983 38.9534C27.9048 38.9667 27.9138 38.9785 27.9249 38.9882C27.9359 38.998 27.9488 39.0055 27.9627 39.0103C27.9767 39.015 27.9914 39.017 28.0061 39.0161C28.0358 39.0142 28.0636 39.0007 28.0833 38.9783C28.103 38.956 28.113 38.9268 28.1111 38.8971C28.1093 38.8674 28.0957 38.8396 28.0734 38.82C28.0511 38.8003 28.0218 38.7902 27.9921 38.7921ZM19.9921 39.3551C19.9762 39.3542 19.9602 39.3567 19.9454 39.3624C19.9305 39.3682 19.9169 39.377 19.9057 39.3883C19.8944 39.3996 19.8857 39.4132 19.8801 39.4282C19.8745 39.4431 19.8721 39.4591 19.8731 39.475C19.8741 39.4909 19.8785 39.5064 19.8859 39.5206C19.8933 39.5347 19.9037 39.5471 19.9162 39.5569C19.9288 39.5667 19.9433 39.5738 19.9588 39.5776C19.9743 39.5815 19.9904 39.582 20.0061 39.5791C20.0345 39.5753 20.0603 39.5609 20.0785 39.5388C20.0966 39.5168 20.1057 39.4886 20.1039 39.4601C20.1022 39.4315 20.0896 39.4048 20.0689 39.3851C20.0481 39.3654 20.0207 39.3543 19.9921 39.3541V39.3551ZM27.9921 39.3551C27.965 39.3596 27.9405 39.3738 27.9231 39.395C27.9057 39.4163 27.8967 39.4432 27.8976 39.4706C27.8986 39.4981 27.9096 39.5242 27.9284 39.5442C27.9473 39.5642 27.9728 39.5766 28.0001 39.5791C28.0149 39.5786 28.0294 39.5751 28.0429 39.569C28.0563 39.5629 28.0684 39.5541 28.0785 39.5433C28.0886 39.5325 28.0964 39.5198 28.1016 39.506C28.1068 39.4921 28.1091 39.4774 28.1086 39.4626C28.1081 39.4478 28.1047 39.4333 28.0985 39.4199C28.0924 39.4064 28.0837 39.3943 28.0728 39.3842C28.062 39.3741 28.0493 39.3663 28.0355 39.3611C28.0216 39.356 28.0069 39.3536 27.9921 39.3541V39.3551ZM19.9921 39.9171C19.9766 39.917 19.9612 39.92 19.947 39.9261C19.9327 39.9322 19.9198 39.9411 19.9091 39.9524C19.8985 39.9636 19.8902 39.977 19.8849 39.9915C19.8796 40.0061 19.8774 40.0216 19.8784 40.0371C19.8793 40.0526 19.8835 40.0677 19.8905 40.0815C19.8976 40.0953 19.9074 40.1076 19.9194 40.1174C19.9314 40.1273 19.9453 40.1345 19.9602 40.1388C19.9751 40.143 19.9907 40.1442 20.0061 40.1421C20.0345 40.1383 20.0603 40.1239 20.0785 40.1018C20.0966 40.0798 20.1057 40.0516 20.1039 40.0231C20.1022 39.9945 20.0896 39.9678 20.0689 39.9481C20.0481 39.9284 20.0207 39.9173 19.9921 39.9171ZM27.9921 39.9171C27.9641 39.9206 27.9383 39.9344 27.92 39.9559C27.9016 39.9774 27.892 40.005 27.893 40.0333C27.894 40.0615 27.9056 40.0884 27.9254 40.1085C27.9452 40.1287 27.9719 40.1406 28.0001 40.1421C28.0149 40.1416 28.0294 40.1381 28.0429 40.132C28.0563 40.1259 28.0684 40.1171 28.0785 40.1063C28.0886 40.0955 28.0964 40.0828 28.1016 40.069C28.1068 40.0551 28.1091 40.0404 28.1086 40.0256C28.1081 40.0108 28.1047 39.9963 28.0985 39.9829C28.0924 39.9694 28.0837 39.9573 28.0728 39.9472C28.062 39.9371 28.0493 39.9293 28.0355 39.9241C28.0216 39.919 28.0069 39.9166 27.9921 39.9171ZM19.9921 40.4801C19.9762 40.4792 19.9602 40.4817 19.9454 40.4874C19.9305 40.4932 19.9169 40.502 19.9057 40.5133C19.8944 40.5246 19.8857 40.5382 19.8801 40.5532C19.8745 40.5681 19.8721 40.5841 19.8731 40.6C19.8741 40.6159 19.8785 40.6314 19.8859 40.6456C19.8933 40.6597 19.9037 40.6721 19.9162 40.6819C19.9288 40.6917 19.9433 40.6988 19.9588 40.7026C19.9743 40.7065 19.9904 40.707 20.0061 40.7041C20.0345 40.7003 20.0603 40.6859 20.0785 40.6638C20.0966 40.6418 20.1057 40.6136 20.1039 40.5851C20.1022 40.5565 20.0896 40.5298 20.0689 40.5101C20.0481 40.4904 20.0207 40.4793 19.9921 40.4791V40.4801ZM27.9921 40.4801C27.965 40.4846 27.9405 40.4988 27.9231 40.52C27.9057 40.5413 27.8967 40.5682 27.8976 40.5956C27.8986 40.6231 27.9096 40.6492 27.9284 40.6692C27.9473 40.6892 27.9728 40.7016 28.0001 40.7041C28.03 40.703 28.0582 40.6902 28.0785 40.6683C28.0988 40.6465 28.1097 40.6174 28.1086 40.5876C28.1076 40.5578 28.0947 40.5296 28.0728 40.5092C28.051 40.4889 28.022 40.478 27.9921 40.4791V40.4801ZM19.9801 41.0421C19.9538 41.0462 19.9299 41.0597 19.9128 41.0801C19.8957 41.1006 19.8866 41.1265 19.8871 41.1531C19.8869 41.1753 19.8933 41.197 19.9054 41.2155C19.9176 41.234 19.9349 41.2485 19.9553 41.2572C19.9757 41.2658 19.9982 41.2683 20.02 41.2641C20.0417 41.26 20.0618 41.2495 20.0776 41.234C20.0934 41.2185 20.1043 41.1986 20.1088 41.1769C20.1133 41.1552 20.1113 41.1327 20.103 41.1122C20.0947 41.0916 20.0805 41.074 20.0622 41.0615C20.0439 41.0491 20.0223 41.0423 20.0001 41.0421H19.9801ZM27.9801 41.0421C27.9538 41.0462 27.9299 41.0597 27.9128 41.0801C27.8957 41.1006 27.8866 41.1265 27.8871 41.1531C27.8869 41.1753 27.8933 41.197 27.9054 41.2155C27.9176 41.234 27.9349 41.2485 27.9553 41.2572C27.9757 41.2658 27.9982 41.2683 28.02 41.2641C28.0417 41.26 28.0618 41.2495 28.0776 41.234C28.0934 41.2185 28.1043 41.1986 28.1088 41.1769C28.1133 41.1552 28.1113 41.1327 28.103 41.1122C28.0947 41.0916 28.0805 41.074 28.0622 41.0615C28.0439 41.0491 28.0223 41.0423 28.0001 41.0421H27.9801ZM19.9801 41.6051C19.954 41.6092 19.9302 41.6226 19.9131 41.6428C19.896 41.663 19.8868 41.6886 19.8871 41.7151C19.8871 41.7449 19.899 41.7736 19.9201 41.7947C19.9412 41.8158 19.9698 41.8276 19.9996 41.8276C20.0295 41.8276 20.0581 41.8158 20.0792 41.7947C20.1003 41.7736 20.1121 41.7449 20.1121 41.7151C20.1111 41.6551 20.0621 41.6051 20.0001 41.6051H19.9801ZM27.9801 41.6051C27.954 41.6092 27.9302 41.6226 27.9131 41.6428C27.896 41.663 27.8868 41.6886 27.8871 41.7151C27.8871 41.7449 27.899 41.7736 27.9201 41.7947C27.9412 41.8158 27.9698 41.8276 27.9996 41.8276C28.0295 41.8276 28.0581 41.8158 28.0792 41.7947C28.1003 41.7736 28.1121 41.7449 28.1121 41.7151C28.1111 41.6551 28.0621 41.6051 28.0001 41.6051H27.9801ZM20.0021 42.1651C19.9873 42.165 19.9727 42.1678 19.959 42.1733C19.9453 42.1788 19.9328 42.187 19.9223 42.1973C19.901 42.2183 19.8889 42.2468 19.8886 42.2766C19.8884 42.3064 19.9 42.3352 19.9209 42.3564C19.9418 42.3777 19.9703 42.3898 20.0001 42.3901C20.03 42.3904 20.0587 42.3788 20.08 42.3579C20.1013 42.3369 20.1134 42.3084 20.1136 42.2786C20.1139 42.2488 20.1023 42.22 20.0814 42.1988C20.0605 42.1775 20.032 42.1654 20.0021 42.1651ZM28.0021 42.1651C27.9873 42.165 27.9727 42.1678 27.959 42.1733C27.9453 42.1788 27.9328 42.187 27.9223 42.1973C27.901 42.2183 27.8889 42.2468 27.8886 42.2766C27.8884 42.3064 27.9 42.3352 27.9209 42.3564C27.9418 42.3777 27.9703 42.3898 28.0001 42.3901C28.03 42.3904 28.0587 42.3788 28.08 42.3579C28.1013 42.3369 28.1134 42.3084 28.1136 42.2786C28.1139 42.2488 28.1023 42.22 28.0814 42.1988C28.0605 42.1775 28.032 42.1654 28.0021 42.1651ZM19.9921 42.7281C19.9701 42.7295 19.949 42.7372 19.9314 42.7505C19.9137 42.7637 19.9003 42.7818 19.8928 42.8025C19.8854 42.8232 19.8841 42.8457 19.8892 42.8671C19.8943 42.8886 19.9056 42.908 19.9217 42.9232C19.9377 42.9383 19.9578 42.9484 19.9795 42.9522C20.0012 42.956 20.0236 42.9534 20.0438 42.9447C20.0641 42.9359 20.0813 42.9215 20.0935 42.9031C20.1056 42.8847 20.1121 42.8631 20.1121 42.8411C20.1123 42.8256 20.1093 42.8103 20.1032 42.796C20.0971 42.7817 20.0882 42.7689 20.0769 42.7583C20.0656 42.7477 20.0523 42.7395 20.0377 42.7343C20.0231 42.7291 20.0076 42.727 19.9921 42.7281ZM27.9921 42.7281C27.9701 42.7295 27.949 42.7372 27.9314 42.7505C27.9137 42.7637 27.9003 42.7818 27.8928 42.8025C27.8854 42.8232 27.8841 42.8457 27.8892 42.8671C27.8943 42.8886 27.9056 42.908 27.9217 42.9232C27.9377 42.9383 27.9578 42.9484 27.9795 42.9522C28.0012 42.956 28.0236 42.9534 28.0438 42.9447C28.0641 42.9359 28.0813 42.9215 28.0935 42.9031C28.1056 42.8847 28.1121 42.8631 28.1121 42.8411C28.1123 42.8256 28.1093 42.8103 28.1032 42.796C28.0971 42.7817 28.0882 42.7689 28.0769 42.7583C28.0656 42.7477 28.0523 42.7395 28.0377 42.7343C28.0231 42.7291 28.0076 42.727 27.9921 42.7281Z" fill="#333333"/>
</svg>
