<svg width="48" height="48" viewBox="0 0 48 48" fill="none" xmlns="http://www.w3.org/2000/svg">
<path fill-rule="evenodd" clip-rule="evenodd" d="M0 0.00610352V48.0061H48V0.00610352H0ZM28.906 3.9841C30.546 3.9891 32.193 4.0011 33.852 4.0271C34.721 4.0271 35.42 4.7271 35.42 5.5961V42.4571C35.42 43.3271 34.721 44.0271 33.852 44.0271H14.147C13.277 44.0271 12.58 43.3271 12.58 42.4571V5.5961C12.58 4.7261 13.277 4.0271 14.146 4.0271C19.122 4.0271 23.986 3.9691 28.906 3.9841ZM20.367 4.9671C20.3523 4.96802 20.3379 4.97183 20.3247 4.97831C20.3114 4.98479 20.2996 4.99381 20.2899 5.00486C20.2801 5.01591 20.2726 5.02877 20.2678 5.04271C20.2631 5.05665 20.2611 5.0714 20.262 5.0861C20.2629 5.10081 20.2667 5.11519 20.2732 5.12843C20.2797 5.14167 20.2887 5.1535 20.2998 5.16325C20.3108 5.173 20.3237 5.18048 20.3376 5.18526C20.3515 5.19004 20.3663 5.19202 20.381 5.1911C20.4107 5.18925 20.4385 5.17567 20.4581 5.15335C20.4778 5.13103 20.4879 5.10181 20.486 5.0721C20.4841 5.0424 20.4706 5.01465 20.4482 4.99496C20.4259 4.97527 20.3967 4.96525 20.367 4.9671ZM27.617 4.9671C27.6023 4.96802 27.5879 4.97183 27.5747 4.97831C27.5614 4.98479 27.5496 4.99381 27.5399 5.00486C27.5301 5.01591 27.5226 5.02877 27.5178 5.04271C27.5131 5.05665 27.5111 5.0714 27.512 5.0861C27.5129 5.10081 27.5167 5.11519 27.5232 5.12843C27.5297 5.14167 27.5387 5.1535 27.5498 5.16325C27.5608 5.173 27.5737 5.18048 27.5876 5.18526C27.6015 5.19004 27.6163 5.19202 27.631 5.1911C27.6607 5.18925 27.6885 5.17567 27.7081 5.15335C27.7278 5.13103 27.7379 5.10181 27.736 5.0721C27.7341 5.0424 27.7206 5.01465 27.6982 4.99496C27.6759 4.97527 27.6467 4.96525 27.617 4.9671ZM16.619 5.1891C16.4089 5.1891 16.2008 5.23049 16.0067 5.3109C15.8126 5.3913 15.6362 5.50916 15.4876 5.65773C15.3391 5.80631 15.2212 5.98269 15.1408 6.17681C15.0604 6.37093 15.019 6.57899 15.019 6.7891C15.019 6.99922 15.0604 7.20728 15.1408 7.4014C15.2212 7.59552 15.3391 7.7719 15.4876 7.92047C15.6362 8.06905 15.8126 8.1869 16.0067 8.26731C16.2008 8.34772 16.4089 8.3891 16.619 8.3891C17.0433 8.3891 17.4503 8.22053 17.7504 7.92047C18.0504 7.62042 18.219 7.21345 18.219 6.7891C18.219 6.36476 18.0504 5.95779 17.7504 5.65773C17.4503 5.35767 17.0433 5.1891 16.619 5.1891ZM23.955 5.1891C23.7449 5.1891 23.5368 5.23049 23.3427 5.3109C23.1486 5.3913 22.9722 5.50916 22.8236 5.65773C22.6751 5.80631 22.5572 5.98269 22.4768 6.17681C22.3964 6.37093 22.355 6.57899 22.355 6.7891C22.355 6.99922 22.3964 7.20728 22.4768 7.4014C22.5572 7.59552 22.6751 7.7719 22.8236 7.92047C22.9722 8.06905 23.1486 8.1869 23.3427 8.26731C23.5368 8.34772 23.7449 8.3891 23.955 8.3891C24.3793 8.3891 24.7863 8.22053 25.0864 7.92047C25.3864 7.62042 25.555 7.21345 25.555 6.7891C25.555 6.36476 25.3864 5.95779 25.0864 5.65773C24.7863 5.35767 24.3793 5.1891 23.955 5.1891ZM31.293 5.1891C31.0829 5.1891 30.8748 5.23049 30.6807 5.3109C30.4866 5.3913 30.3102 5.50916 30.1616 5.65773C30.0131 5.80631 29.8952 5.98269 29.8148 6.17681C29.7344 6.37093 29.693 6.57899 29.693 6.7891C29.693 6.99922 29.7344 7.20728 29.8148 7.4014C29.8952 7.59552 30.0131 7.7719 30.1616 7.92047C30.3102 8.06905 30.4866 8.1869 30.6807 8.26731C30.8748 8.34772 31.0829 8.3891 31.293 8.3891C31.7173 8.3891 32.1243 8.22053 32.4244 7.92047C32.7244 7.62042 32.893 7.21345 32.893 6.7891C32.893 6.36476 32.7244 5.95779 32.4244 5.65773C32.1243 5.35767 31.7173 5.1891 31.293 5.1891ZM20.367 5.5291C20.3377 5.53015 20.3099 5.54268 20.2897 5.56399C20.2695 5.58529 20.2585 5.61368 20.259 5.64303C20.2595 5.67239 20.2716 5.70036 20.2925 5.72093C20.3135 5.7415 20.3416 5.75303 20.371 5.75303C20.4004 5.75303 20.4285 5.7415 20.4495 5.72093C20.4704 5.70036 20.4825 5.67239 20.483 5.64303C20.4835 5.61368 20.4725 5.58529 20.4523 5.56399C20.4321 5.54268 20.4043 5.53015 20.375 5.5291H20.367ZM27.617 5.5291C27.5877 5.53015 27.5599 5.54268 27.5397 5.56399C27.5195 5.58529 27.5085 5.61368 27.509 5.64303C27.5095 5.67239 27.5216 5.70036 27.5425 5.72093C27.5635 5.7415 27.5916 5.75303 27.621 5.75303C27.6504 5.75303 27.6785 5.7415 27.6995 5.72093C27.7204 5.70036 27.7325 5.67239 27.733 5.64303C27.7335 5.61368 27.7225 5.58529 27.7023 5.56399C27.6821 5.54268 27.6543 5.53015 27.625 5.5291H27.617ZM20.357 6.0921C20.3358 6.09535 20.316 6.1046 20.3 6.11875C20.2839 6.13291 20.2722 6.15137 20.2663 6.17195C20.2604 6.19254 20.2606 6.21438 20.2667 6.2349C20.2728 6.25541 20.2847 6.27374 20.3009 6.2877C20.3172 6.30167 20.3371 6.31069 20.3583 6.3137C20.3795 6.3167 20.4011 6.31357 20.4206 6.30467C20.44 6.29576 20.4566 6.28146 20.4682 6.26346C20.4797 6.24546 20.4859 6.22452 20.486 6.2031C20.486 6.1431 20.436 6.0931 20.375 6.0921H20.357ZM27.607 6.0921C27.5858 6.09535 27.566 6.1046 27.55 6.11875C27.5339 6.13291 27.5222 6.15137 27.5163 6.17195C27.5104 6.19254 27.5106 6.21438 27.5167 6.2349C27.5228 6.25541 27.5347 6.27374 27.5509 6.2877C27.5672 6.30167 27.5871 6.31069 27.6083 6.3137C27.6295 6.3167 27.6511 6.31357 27.6706 6.30467C27.69 6.29576 27.7066 6.28146 27.7182 6.26346C27.7297 6.24546 27.7359 6.22452 27.736 6.2031C27.736 6.1431 27.686 6.0931 27.625 6.0921H27.607ZM20.377 6.6521C20.3613 6.65062 20.3455 6.65243 20.3306 6.65742C20.3157 6.6624 20.302 6.67044 20.2903 6.68103C20.2787 6.69162 20.2694 6.70452 20.263 6.71892C20.2567 6.73331 20.2534 6.74887 20.2534 6.7646C20.2534 6.78034 20.2567 6.7959 20.263 6.81029C20.2694 6.82468 20.2787 6.83759 20.2903 6.84818C20.302 6.85877 20.3157 6.86681 20.3306 6.87179C20.3455 6.87677 20.3613 6.87858 20.377 6.8771C20.4068 6.8771 20.4355 6.86525 20.4565 6.84415C20.4776 6.82306 20.4895 6.79444 20.4895 6.7646C20.4895 6.73477 20.4776 6.70615 20.4565 6.68505C20.4355 6.66396 20.4068 6.6521 20.377 6.6521ZM27.627 6.6521C27.6113 6.65062 27.5955 6.65243 27.5806 6.65742C27.5657 6.6624 27.552 6.67044 27.5403 6.68103C27.5287 6.69162 27.5194 6.70452 27.513 6.71892C27.5067 6.73331 27.5034 6.74887 27.5034 6.7646C27.5034 6.78034 27.5067 6.7959 27.513 6.81029C27.5194 6.82468 27.5287 6.83759 27.5403 6.84818C27.552 6.85877 27.5657 6.86681 27.5806 6.87179C27.5955 6.87677 27.6113 6.87858 27.627 6.8771C27.6568 6.8771 27.6855 6.86525 27.7065 6.84415C27.7276 6.82306 27.7395 6.79444 27.7395 6.7646C27.7395 6.73477 27.7276 6.70615 27.7065 6.68505C27.6855 6.66396 27.6568 6.6521 27.627 6.6521ZM20.367 7.2151C20.3373 7.21696 20.3095 7.23054 20.2899 7.25286C20.2801 7.26391 20.2726 7.27677 20.2678 7.29071C20.2631 7.30465 20.2611 7.3194 20.262 7.3341C20.2629 7.34881 20.2667 7.36319 20.2732 7.37643C20.2797 7.38967 20.2887 7.4015 20.2998 7.41125C20.3221 7.43094 20.3513 7.44096 20.381 7.4391C20.4107 7.43725 20.4385 7.42367 20.4581 7.40135C20.4778 7.37903 20.4879 7.34981 20.486 7.3201C20.4841 7.2904 20.4706 7.26265 20.4482 7.24296C20.4259 7.22327 20.3967 7.21325 20.367 7.2151ZM27.617 7.2151C27.5873 7.21696 27.5595 7.23054 27.5399 7.25286C27.5202 7.27517 27.5101 7.3044 27.512 7.3341C27.5139 7.36381 27.5274 7.39156 27.5498 7.41125C27.5721 7.43094 27.6013 7.44096 27.631 7.4391C27.6457 7.43818 27.6601 7.43438 27.6733 7.4279C27.6866 7.42142 27.6984 7.4124 27.7081 7.40135C27.7179 7.3903 27.7254 7.37744 27.7302 7.3635C27.7349 7.34956 27.7369 7.33481 27.736 7.3201C27.7351 7.3054 27.7313 7.29101 27.7248 7.27778C27.7183 7.26454 27.7093 7.25271 27.6982 7.24296C27.6872 7.23321 27.6743 7.22573 27.6604 7.22095C27.6465 7.21617 27.6317 7.21418 27.617 7.2151ZM20.367 7.7751C20.3373 7.77696 20.3095 7.79054 20.2899 7.81286C20.2702 7.83517 20.2601 7.8644 20.262 7.8941C20.2639 7.92381 20.2774 7.95156 20.2998 7.97125C20.3221 7.99094 20.3513 8.00096 20.381 7.9991C20.3957 7.99818 20.4101 7.99438 20.4233 7.9879C20.4366 7.98142 20.4484 7.9724 20.4581 7.96135C20.4679 7.9503 20.4754 7.93744 20.4802 7.9235C20.4849 7.90956 20.4869 7.89481 20.486 7.8801C20.4851 7.8654 20.4813 7.85101 20.4748 7.83778C20.4683 7.82454 20.4593 7.81271 20.4482 7.80296C20.4372 7.79321 20.4243 7.78573 20.4104 7.78095C20.3965 7.77617 20.3817 7.77418 20.367 7.7751ZM27.617 7.7751C27.5873 7.77696 27.5595 7.79054 27.5399 7.81286C27.5202 7.83517 27.5101 7.8644 27.512 7.8941C27.5139 7.92381 27.5274 7.95156 27.5498 7.97125C27.5721 7.99094 27.6013 8.00096 27.631 7.9991C27.6457 7.99818 27.6601 7.99438 27.6733 7.9879C27.6866 7.98142 27.6984 7.9724 27.7081 7.96135C27.7179 7.9503 27.7254 7.93744 27.7302 7.9235C27.7349 7.90956 27.7369 7.89481 27.736 7.8801C27.7351 7.8654 27.7313 7.85101 27.7248 7.83778C27.7183 7.82454 27.7093 7.81271 27.6982 7.80296C27.6872 7.79321 27.6743 7.78573 27.6604 7.78095C27.6465 7.77617 27.6317 7.77418 27.617 7.7751ZM20.367 8.3381C20.3523 8.33902 20.3379 8.34283 20.3247 8.34931C20.3114 8.35579 20.2996 8.36481 20.2899 8.37586C20.2801 8.38691 20.2726 8.39977 20.2678 8.41371C20.2631 8.42765 20.2611 8.4424 20.262 8.4571C20.2629 8.47181 20.2667 8.48619 20.2732 8.49943C20.2797 8.51267 20.2887 8.5245 20.2998 8.53425C20.3108 8.544 20.3237 8.55148 20.3376 8.55626C20.3515 8.56104 20.3663 8.56302 20.381 8.5621C20.4107 8.56025 20.4385 8.54667 20.4581 8.52435C20.4778 8.50203 20.4879 8.47281 20.486 8.4431C20.4841 8.4134 20.4706 8.38565 20.4482 8.36596C20.4259 8.34627 20.3967 8.33625 20.367 8.3381ZM27.617 8.3381C27.6023 8.33902 27.5879 8.34283 27.5747 8.34931C27.5614 8.35579 27.5496 8.36481 27.5399 8.37586C27.5301 8.38691 27.5226 8.39977 27.5178 8.41371C27.5131 8.42765 27.5111 8.4424 27.512 8.4571C27.5129 8.47181 27.5167 8.48619 27.5232 8.49943C27.5297 8.51267 27.5387 8.5245 27.5498 8.53425C27.5608 8.544 27.5737 8.55148 27.5876 8.55626C27.6015 8.56104 27.6163 8.56302 27.631 8.5621C27.6607 8.56025 27.6885 8.54667 27.7081 8.52435C27.7278 8.50203 27.7379 8.47281 27.736 8.4431C27.7341 8.4134 27.7206 8.38565 27.6982 8.36596C27.6759 8.34627 27.6467 8.33625 27.617 8.3381ZM20.367 8.9001C20.3515 8.89997 20.3361 8.90303 20.3218 8.9091C20.3076 8.91517 20.2947 8.92411 20.284 8.93537C20.2733 8.94662 20.2651 8.95996 20.2598 8.97454C20.2545 8.98912 20.2523 9.00464 20.2532 9.02012C20.2542 9.0356 20.2584 9.05072 20.2654 9.06453C20.2725 9.07834 20.2823 9.09055 20.2943 9.1004C20.3063 9.11025 20.3202 9.11753 20.3351 9.12178C20.35 9.12603 20.3656 9.12716 20.381 9.1251C20.4093 9.12132 20.4352 9.10693 20.4533 9.08485C20.4715 9.06276 20.4806 9.03461 20.4788 9.00608C20.477 8.97755 20.4645 8.95075 20.4438 8.93109C20.423 8.91142 20.3956 8.90035 20.367 8.9001ZM27.617 8.9001C27.6015 8.89997 27.5861 8.90303 27.5718 8.9091C27.5576 8.91517 27.5447 8.92411 27.534 8.93537C27.5233 8.94662 27.5151 8.95996 27.5098 8.97454C27.5045 8.98912 27.5023 9.00464 27.5032 9.02012C27.5042 9.0356 27.5084 9.05072 27.5154 9.06453C27.5225 9.07834 27.5323 9.09055 27.5443 9.1004C27.5563 9.11025 27.5702 9.11753 27.5851 9.12178C27.6 9.12603 27.6156 9.12716 27.631 9.1251C27.6593 9.12132 27.6852 9.10693 27.7033 9.08485C27.7215 9.06276 27.7306 9.03461 27.7288 9.00608C27.727 8.97755 27.7145 8.95075 27.6938 8.93109C27.673 8.91142 27.6456 8.90035 27.617 8.9001ZM16.619 9.0251C16.4089 9.0251 16.2008 9.06649 16.0067 9.1469C15.8126 9.2273 15.6362 9.34516 15.4876 9.49373C15.3391 9.64231 15.2212 9.81869 15.1408 10.0128C15.0604 10.2069 15.019 10.415 15.019 10.6251C15.019 10.8352 15.0604 11.0433 15.1408 11.2374C15.2212 11.4315 15.3391 11.6079 15.4876 11.7565C15.6362 11.905 15.8126 12.0229 16.0067 12.1033C16.2008 12.1837 16.4089 12.2251 16.619 12.2251C17.0433 12.2251 17.4503 12.0565 17.7504 11.7565C18.0504 11.4564 18.219 11.0494 18.219 10.6251C18.219 10.2008 18.0504 9.79379 17.7504 9.49373C17.4503 9.19368 17.0433 9.0251 16.619 9.0251ZM23.955 9.0251C23.5374 9.03554 23.1405 9.20875 22.8489 9.50776C22.5572 9.80678 22.394 10.2079 22.394 10.6256C22.394 11.0433 22.5572 11.4444 22.8489 11.7434C23.1405 12.0425 23.5374 12.2157 23.955 12.2261C24.3696 12.2114 24.7622 12.0365 25.0503 11.738C25.3384 11.4395 25.4994 11.0409 25.4994 10.6261C25.4994 10.2113 25.3384 9.81266 25.0503 9.51421C24.7622 9.21575 24.3696 9.04076 23.955 9.0261V9.0251ZM31.293 9.0251C30.8754 9.03554 30.4785 9.20875 30.1869 9.50776C29.8952 9.80678 29.732 10.2079 29.732 10.6256C29.732 11.0433 29.8952 11.4444 30.1869 11.7434C30.4785 12.0425 30.8754 12.2157 31.293 12.2261C31.7076 12.2114 32.1002 12.0365 32.3883 11.738C32.6764 11.4395 32.8374 11.0409 32.8374 10.6261C32.8374 10.2113 32.6764 9.81266 32.3883 9.51421C32.1002 9.21575 31.7076 9.04076 31.293 9.0261V9.0251ZM20.367 9.4631C20.3523 9.46402 20.3379 9.46783 20.3247 9.47431C20.3114 9.48079 20.2996 9.48981 20.2899 9.50086C20.2801 9.51191 20.2726 9.52477 20.2678 9.53871C20.2631 9.55265 20.2611 9.5674 20.262 9.5821C20.2629 9.59681 20.2667 9.61119 20.2732 9.62443C20.2797 9.63767 20.2887 9.6495 20.2998 9.65925C20.3108 9.669 20.3237 9.67648 20.3376 9.68126C20.3515 9.68604 20.3663 9.68802 20.381 9.6871C20.4107 9.68525 20.4385 9.67167 20.4581 9.64935C20.4778 9.62703 20.4879 9.59781 20.486 9.5681C20.4841 9.5384 20.4706 9.51065 20.4482 9.49096C20.4259 9.47127 20.3967 9.46125 20.367 9.4631ZM27.617 9.4631C27.6023 9.46402 27.5879 9.46783 27.5747 9.47431C27.5614 9.48079 27.5496 9.48981 27.5399 9.50086C27.5301 9.51191 27.5226 9.52477 27.5178 9.53871C27.5131 9.55265 27.5111 9.5674 27.512 9.5821C27.5129 9.59681 27.5167 9.61119 27.5232 9.62443C27.5297 9.63767 27.5387 9.6495 27.5498 9.65925C27.5608 9.669 27.5737 9.67648 27.5876 9.68126C27.6015 9.68604 27.6163 9.68802 27.631 9.6871C27.6607 9.68525 27.6885 9.67167 27.7081 9.64935C27.7278 9.62703 27.7379 9.59781 27.736 9.5681C27.7341 9.5384 27.7206 9.51065 27.6982 9.49096C27.6759 9.47127 27.6467 9.46125 27.617 9.4631ZM20.355 10.0251C20.3284 10.0299 20.3045 10.044 20.2874 10.0649C20.2703 10.0858 20.2613 10.1121 20.262 10.1391C20.262 10.1689 20.2739 10.1976 20.295 10.2187C20.316 10.2398 20.3447 10.2516 20.3745 10.2516C20.4043 10.2516 20.433 10.2398 20.4541 10.2187C20.4751 10.1976 20.487 10.1689 20.487 10.1391C20.487 10.1092 20.4753 10.0805 20.4543 10.0592C20.4334 10.0379 20.4049 10.0256 20.375 10.0251H20.355ZM27.605 10.0251C27.5784 10.0299 27.5545 10.044 27.5374 10.0649C27.5203 10.0858 27.5113 10.1121 27.512 10.1391C27.512 10.1689 27.5239 10.1976 27.545 10.2187C27.566 10.2398 27.5947 10.2516 27.6245 10.2516C27.6543 10.2516 27.683 10.2398 27.7041 10.2187C27.7251 10.1976 27.737 10.1689 27.737 10.1391C27.737 10.1092 27.7253 10.0805 27.7043 10.0592C27.6834 10.0379 27.6549 10.0256 27.625 10.0251H27.605ZM20.377 10.5851C20.3619 10.5852 20.3471 10.5883 20.3332 10.5943C20.3194 10.6002 20.3068 10.6088 20.2963 10.6196C20.2858 10.6303 20.2776 10.6431 20.272 10.6571C20.2665 10.6711 20.2637 10.686 20.264 10.7011C20.264 10.7631 20.314 10.8111 20.377 10.8111C20.3915 10.8112 20.4059 10.8085 20.4194 10.803C20.4329 10.7976 20.4451 10.7895 20.4554 10.7792C20.4657 10.769 20.4739 10.7568 20.4795 10.7434C20.4851 10.73 20.488 10.7156 20.488 10.7011C20.4883 10.6712 20.4768 10.6424 20.456 10.6209C20.4353 10.5994 20.4069 10.5869 20.377 10.5861V10.5851ZM27.627 10.5851C27.6119 10.5852 27.5971 10.5883 27.5832 10.5943C27.5694 10.6002 27.5568 10.6088 27.5463 10.6196C27.5358 10.6303 27.5276 10.6431 27.522 10.6571C27.5165 10.6711 27.5137 10.686 27.514 10.7011C27.514 10.7631 27.564 10.8111 27.627 10.8111C27.6415 10.8112 27.6559 10.8085 27.6694 10.803C27.6829 10.7976 27.6951 10.7895 27.7054 10.7792C27.7157 10.769 27.7239 10.7568 27.7295 10.7434C27.7351 10.73 27.738 10.7156 27.738 10.7011C27.7383 10.6712 27.7268 10.6424 27.706 10.6209C27.6853 10.5994 27.6569 10.5869 27.627 10.5861V10.5851ZM20.377 11.1481C20.3621 11.1481 20.3473 11.1511 20.3335 11.1568C20.3197 11.1625 20.3072 11.171 20.2967 11.1816C20.2862 11.1922 20.2779 11.2047 20.2723 11.2186C20.2667 11.2324 20.2639 11.2472 20.264 11.2621C20.264 11.3241 20.314 11.3741 20.377 11.3731C20.4068 11.3731 20.4355 11.3613 20.4565 11.3402C20.4776 11.3191 20.4895 11.2904 20.4895 11.2606C20.4895 11.2308 20.4776 11.2022 20.4565 11.1811C20.4355 11.16 20.4068 11.1481 20.377 11.1481ZM27.627 11.1481C27.6121 11.1481 27.5973 11.1511 27.5835 11.1568C27.5697 11.1625 27.5572 11.171 27.5467 11.1816C27.5362 11.1922 27.5279 11.2047 27.5223 11.2186C27.5167 11.2324 27.5139 11.2472 27.514 11.2621C27.514 11.3241 27.564 11.3741 27.627 11.3731C27.6568 11.3731 27.6855 11.3613 27.7065 11.3402C27.7276 11.3191 27.7395 11.2904 27.7395 11.2606C27.7395 11.2308 27.7276 11.2022 27.7065 11.1811C27.6855 11.16 27.6568 11.1481 27.627 11.1481ZM20.367 11.7111C20.3387 11.7146 20.3127 11.7285 20.2942 11.7502C20.2757 11.7719 20.2659 11.7998 20.267 11.8283C20.268 11.8568 20.2796 11.8839 20.2996 11.9042C20.3196 11.9245 20.3465 11.9366 20.375 11.9381C20.436 11.9371 20.485 11.8851 20.486 11.8241C20.4862 11.8087 20.4832 11.7934 20.4772 11.7793C20.4712 11.7651 20.4623 11.7523 20.4511 11.7417C20.44 11.7311 20.4267 11.7229 20.4123 11.7176C20.3978 11.7124 20.3824 11.7101 20.367 11.7111ZM27.617 11.7111C27.5887 11.7146 27.5627 11.7285 27.5442 11.7502C27.5257 11.7719 27.5159 11.7998 27.517 11.8283C27.518 11.8568 27.5296 11.8839 27.5496 11.9042C27.5696 11.9245 27.5965 11.9366 27.625 11.9381C27.686 11.9371 27.735 11.8851 27.736 11.8241C27.7362 11.8087 27.7332 11.7934 27.7272 11.7793C27.7212 11.7651 27.7123 11.7523 27.7011 11.7417C27.69 11.7311 27.6767 11.7229 27.6623 11.7176C27.6478 11.7124 27.6324 11.7101 27.617 11.7111ZM20.367 12.2731C20.3387 12.2766 20.3127 12.2905 20.2942 12.3122C20.2757 12.3339 20.2659 12.3618 20.267 12.3903C20.268 12.4188 20.2796 12.4459 20.2996 12.4662C20.3196 12.4865 20.3465 12.4986 20.375 12.5001C20.436 12.5001 20.485 12.4481 20.486 12.3871C20.4863 12.3723 20.4836 12.3576 20.4781 12.3439C20.4727 12.3301 20.4646 12.3176 20.4543 12.307C20.4439 12.2964 20.4316 12.2879 20.418 12.2821C20.4044 12.2763 20.3898 12.2732 20.375 12.2731H20.367ZM27.617 12.2731C27.5887 12.2766 27.5627 12.2905 27.5442 12.3122C27.5257 12.3339 27.5159 12.3618 27.517 12.3903C27.518 12.4188 27.5296 12.4459 27.5496 12.4662C27.5696 12.4865 27.5965 12.4986 27.625 12.5001C27.686 12.5001 27.735 12.4481 27.736 12.3871C27.7363 12.3723 27.7336 12.3576 27.7281 12.3439C27.7227 12.3301 27.7146 12.3176 27.7043 12.307C27.6939 12.2964 27.6816 12.2879 27.668 12.2821C27.6544 12.2763 27.6398 12.2732 27.625 12.2731H27.617ZM20.367 12.8361C20.3374 12.8372 20.3094 12.8498 20.289 12.8713C20.2686 12.8928 20.2575 12.9214 20.258 12.951C20.2585 12.9807 20.2707 13.0089 20.2918 13.0296C20.3129 13.0504 20.3414 13.062 20.371 13.062C20.4006 13.062 20.4291 13.0504 20.4502 13.0296C20.4713 13.0089 20.4835 12.9807 20.484 12.951C20.4845 12.9214 20.4734 12.8928 20.453 12.8713C20.4326 12.8498 20.4046 12.8372 20.375 12.8361H20.367ZM27.617 12.8361C27.5874 12.8372 27.5594 12.8498 27.539 12.8713C27.5186 12.8928 27.5075 12.9214 27.508 12.951C27.5085 12.9807 27.5207 13.0089 27.5418 13.0296C27.5629 13.0504 27.5914 13.062 27.621 13.062C27.6506 13.062 27.6791 13.0504 27.7002 13.0296C27.7213 13.0089 27.7335 12.9807 27.734 12.951C27.7345 12.9214 27.7234 12.8928 27.703 12.8713C27.6826 12.8498 27.6546 12.8372 27.625 12.8361H27.617ZM16.619 12.8631C16.1947 12.8631 15.7877 13.0317 15.4876 13.3317C15.1876 13.6318 15.019 14.0388 15.019 14.4631C15.019 14.8875 15.1876 15.2944 15.4876 15.5945C15.7877 15.8945 16.1947 16.0631 16.619 16.0631C17.0433 16.0631 17.4503 15.8945 17.7504 15.5945C18.0504 15.2944 18.219 14.8875 18.219 14.4631C18.219 14.0388 18.0504 13.6318 17.7504 13.3317C17.4503 13.0317 17.0433 12.8631 16.619 12.8631ZM23.955 12.8631C23.7416 12.8578 23.5293 12.8952 23.3305 12.9732C23.1318 13.0512 22.9507 13.1681 22.7979 13.3172C22.645 13.4662 22.5236 13.6444 22.4407 13.8411C22.3577 14.0378 22.315 14.2491 22.315 14.4626C22.315 14.6761 22.3577 14.8874 22.4407 15.0841C22.5236 15.2808 22.645 15.459 22.7979 15.608C22.9507 15.7571 23.1318 15.874 23.3305 15.952C23.5293 16.03 23.7416 16.0674 23.955 16.0621C24.3723 16.0517 24.769 15.8786 25.0604 15.5797C25.3519 15.2809 25.515 14.88 25.515 14.4626C25.515 14.0452 25.3519 13.6443 25.0604 13.3455C24.769 13.0466 24.3723 12.8735 23.955 12.8631ZM31.293 12.8631C31.0796 12.8578 30.8673 12.8952 30.6685 12.9732C30.4698 13.0512 30.2887 13.1681 30.1359 13.3172C29.983 13.4662 29.8616 13.6444 29.7787 13.8411C29.6957 14.0378 29.653 14.2491 29.653 14.4626C29.653 14.6761 29.6957 14.8874 29.7787 15.0841C29.8616 15.2808 29.983 15.459 30.1359 15.608C30.2887 15.7571 30.4698 15.874 30.6685 15.952C30.8673 16.03 31.0796 16.0674 31.293 16.0621C31.7103 16.0517 32.107 15.8786 32.3984 15.5797C32.6899 15.2809 32.853 14.88 32.853 14.4626C32.853 14.0452 32.6899 13.6443 32.3984 13.3455C32.107 13.0466 31.7103 12.8735 31.293 12.8631ZM20.367 13.4001C20.3515 13.4 20.3361 13.403 20.3218 13.4091C20.3076 13.4152 20.2947 13.4241 20.284 13.4354C20.2733 13.4466 20.2651 13.46 20.2598 13.4745C20.2545 13.4891 20.2523 13.5046 20.2532 13.5201C20.2542 13.5356 20.2584 13.5507 20.2654 13.5645C20.2725 13.5783 20.2823 13.5906 20.2943 13.6004C20.3063 13.6103 20.3202 13.6175 20.3351 13.6218C20.35 13.626 20.3656 13.6272 20.381 13.6251C20.4093 13.6213 20.4352 13.6069 20.4533 13.5848C20.4715 13.5628 20.4806 13.5346 20.4788 13.5061C20.477 13.4776 20.4645 13.4508 20.4438 13.4311C20.423 13.4114 20.3956 13.4003 20.367 13.4001ZM27.617 13.4001C27.6015 13.4 27.5861 13.403 27.5718 13.4091C27.5576 13.4152 27.5447 13.4241 27.534 13.4354C27.5233 13.4466 27.5151 13.46 27.5098 13.4745C27.5045 13.4891 27.5023 13.5046 27.5032 13.5201C27.5042 13.5356 27.5084 13.5507 27.5154 13.5645C27.5225 13.5783 27.5323 13.5906 27.5443 13.6004C27.5563 13.6103 27.5702 13.6175 27.5851 13.6218C27.6 13.626 27.6156 13.6272 27.631 13.6251C27.6593 13.6213 27.6852 13.6069 27.7033 13.5848C27.7215 13.5628 27.7306 13.5346 27.7288 13.5061C27.727 13.4776 27.7145 13.4508 27.6938 13.4311C27.673 13.4114 27.6456 13.4003 27.617 13.4001ZM20.367 13.9631C20.3515 13.963 20.3361 13.966 20.3218 13.9721C20.3076 13.9782 20.2947 13.9871 20.284 13.9984C20.2733 14.0096 20.2651 14.023 20.2598 14.0375C20.2545 14.0521 20.2523 14.0676 20.2532 14.0831C20.2542 14.0986 20.2584 14.1137 20.2654 14.1275C20.2725 14.1413 20.2823 14.1536 20.2943 14.1634C20.3063 14.1733 20.3202 14.1805 20.3351 14.1848C20.35 14.189 20.3656 14.1902 20.381 14.1881C20.4093 14.1843 20.4352 14.1699 20.4533 14.1478C20.4715 14.1258 20.4806 14.0976 20.4788 14.0691C20.477 14.0406 20.4645 14.0138 20.4438 13.9941C20.423 13.9744 20.3956 13.9633 20.367 13.9631ZM27.617 13.9631C27.6015 13.963 27.5861 13.966 27.5718 13.9721C27.5576 13.9782 27.5447 13.9871 27.534 13.9984C27.5233 14.0096 27.5151 14.023 27.5098 14.0375C27.5045 14.0521 27.5023 14.0676 27.5032 14.0831C27.5042 14.0986 27.5084 14.1137 27.5154 14.1275C27.5225 14.1413 27.5323 14.1536 27.5443 14.1634C27.5563 14.1733 27.5702 14.1805 27.5851 14.1848C27.6 14.189 27.6156 14.1902 27.631 14.1881C27.6593 14.1843 27.6852 14.1699 27.7033 14.1478C27.7215 14.1258 27.7306 14.0976 27.7288 14.0691C27.727 14.0406 27.7145 14.0138 27.6938 13.9941C27.673 13.9744 27.6456 13.9633 27.617 13.9631ZM20.355 14.5251C20.3286 14.5294 20.3047 14.5432 20.2876 14.5637C20.2705 14.5843 20.2614 14.6104 20.262 14.6371C20.262 14.6592 20.2685 14.6808 20.2808 14.6992C20.2931 14.7176 20.3105 14.732 20.3309 14.7405C20.3513 14.749 20.3738 14.7513 20.3955 14.747C20.4172 14.7428 20.4371 14.7322 20.4528 14.7166C20.4685 14.7011 20.4793 14.6812 20.4837 14.6596C20.4882 14.6379 20.4861 14.6154 20.4778 14.5949C20.4694 14.5744 20.4552 14.5569 20.4369 14.5445C20.4187 14.532 20.3971 14.5253 20.375 14.5251H20.355ZM27.605 14.5251C27.5786 14.5294 27.5547 14.5432 27.5376 14.5637C27.5205 14.5843 27.5114 14.6104 27.512 14.6371C27.512 14.6592 27.5185 14.6808 27.5308 14.6992C27.5431 14.7176 27.5605 14.732 27.5809 14.7405C27.6013 14.749 27.6238 14.7513 27.6455 14.747C27.6672 14.7428 27.6871 14.7322 27.7028 14.7166C27.7185 14.7011 27.7293 14.6812 27.7337 14.6596C27.7382 14.6379 27.7361 14.6154 27.7278 14.5949C27.7194 14.5744 27.7052 14.5569 27.6869 14.5445C27.6687 14.532 27.6471 14.5253 27.625 14.5251H27.605ZM20.355 15.0881C20.3339 15.0915 20.3143 15.1009 20.2983 15.1152C20.2824 15.1294 20.2709 15.1479 20.2651 15.1685C20.2594 15.1891 20.2596 15.2109 20.2659 15.2313C20.2721 15.2517 20.284 15.27 20.3003 15.2838C20.3165 15.2977 20.3364 15.3066 20.3576 15.3096C20.3787 15.3125 20.4003 15.3094 20.4197 15.3005C20.4391 15.2915 20.4556 15.2773 20.4671 15.2593C20.4787 15.2414 20.4849 15.2205 20.485 15.1991C20.485 15.1391 20.436 15.0891 20.375 15.0881H20.355ZM27.605 15.0881C27.5839 15.0915 27.5643 15.1009 27.5483 15.1152C27.5324 15.1294 27.5209 15.1479 27.5151 15.1685C27.5094 15.1891 27.5096 15.2109 27.5159 15.2313C27.5221 15.2517 27.534 15.27 27.5503 15.2838C27.5665 15.2977 27.5864 15.3066 27.6076 15.3096C27.6287 15.3125 27.6503 15.3094 27.6697 15.3005C27.6891 15.2915 27.7056 15.2773 27.7171 15.2593C27.7287 15.2414 27.7349 15.2205 27.735 15.1991C27.735 15.1391 27.686 15.0891 27.625 15.0881H27.605ZM20.377 15.6481C20.3621 15.6481 20.3473 15.6511 20.3335 15.6568C20.3197 15.6625 20.3072 15.671 20.2967 15.6816C20.2862 15.6922 20.2779 15.7047 20.2723 15.7186C20.2667 15.7324 20.2639 15.7472 20.264 15.7621C20.264 15.8241 20.314 15.8741 20.377 15.8731C20.4068 15.8731 20.4355 15.8613 20.4565 15.8402C20.4776 15.8191 20.4895 15.7904 20.4895 15.7606C20.4895 15.7308 20.4776 15.7022 20.4565 15.6811C20.4355 15.66 20.4068 15.6481 20.377 15.6481ZM27.627 15.6481C27.6121 15.6481 27.5973 15.6511 27.5835 15.6568C27.5697 15.6625 27.5572 15.671 27.5467 15.6816C27.5362 15.6922 27.5279 15.7047 27.5223 15.7186C27.5167 15.7324 27.5139 15.7472 27.514 15.7621C27.514 15.8241 27.564 15.8741 27.627 15.8731C27.6568 15.8731 27.6855 15.8613 27.7065 15.8402C27.7276 15.8191 27.7395 15.7904 27.7395 15.7606C27.7395 15.7308 27.7276 15.7022 27.7065 15.6811C27.6855 15.66 27.6568 15.6481 27.627 15.6481ZM20.367 16.2111C20.3377 16.2122 20.3099 16.2247 20.2897 16.246C20.2695 16.2673 20.2585 16.2957 20.259 16.325C20.2595 16.3544 20.2716 16.3824 20.2925 16.4029C20.3135 16.4235 20.3416 16.435 20.371 16.435C20.4004 16.435 20.4285 16.4235 20.4495 16.4029C20.4704 16.3824 20.4825 16.3544 20.483 16.325C20.4835 16.2957 20.4725 16.2673 20.4523 16.246C20.4321 16.2247 20.4043 16.2122 20.375 16.2111H20.367ZM27.617 16.2111C27.5877 16.2122 27.5599 16.2247 27.5397 16.246C27.5195 16.2673 27.5085 16.2957 27.509 16.325C27.5095 16.3544 27.5216 16.3824 27.5425 16.4029C27.5635 16.4235 27.5916 16.435 27.621 16.435C27.6504 16.435 27.6785 16.4235 27.6995 16.4029C27.7204 16.3824 27.7325 16.3544 27.733 16.325C27.7335 16.2957 27.7225 16.2673 27.7023 16.246C27.6821 16.2247 27.6543 16.2122 27.625 16.2111H27.617ZM16.619 16.6991C16.1947 16.6991 15.7877 16.8677 15.4876 17.1677C15.1876 17.4678 15.019 17.8748 15.019 18.2991C15.019 18.7234 15.1876 19.1304 15.4876 19.4305C15.7877 19.7305 16.1947 19.8991 16.619 19.8991C17.0433 19.8991 17.4503 19.7305 17.7504 19.4305C18.0504 19.1304 18.219 18.7234 18.219 18.2991C18.219 17.8748 18.0504 17.4678 17.7504 17.1677C17.4503 16.8677 17.0433 16.6991 16.619 16.6991ZM23.955 16.6991C23.5305 16.6991 23.1234 16.8677 22.8233 17.1679C22.5231 17.468 22.3545 17.8751 22.3545 18.2996C22.3545 18.7241 22.5231 19.1312 22.8233 19.4313C23.1234 19.7315 23.5305 19.9001 23.955 19.9001C24.3696 19.8854 24.7622 19.7105 25.0503 19.412C25.3384 19.1135 25.4994 18.7149 25.4994 18.3001C25.4994 17.8853 25.3384 17.4867 25.0503 17.1882C24.7622 16.8898 24.3696 16.7148 23.955 16.7001V16.6991ZM31.293 16.6991C30.8685 16.6991 30.4614 16.8677 30.1613 17.1679C29.8611 17.468 29.6925 17.8751 29.6925 18.2996C29.6925 18.7241 29.8611 19.1312 30.1613 19.4313C30.4614 19.7315 30.8685 19.9001 31.293 19.9001C31.7076 19.8854 32.1002 19.7105 32.3883 19.412C32.6764 19.1135 32.8374 18.7149 32.8374 18.3001C32.8374 17.8853 32.6764 17.4867 32.3883 17.1882C32.1002 16.8898 31.7076 16.7148 31.293 16.7001V16.6991ZM20.367 16.7731C20.3377 16.7742 20.3099 16.7867 20.2897 16.808C20.2695 16.8293 20.2585 16.8577 20.259 16.887C20.2595 16.9164 20.2716 16.9444 20.2925 16.9649C20.3135 16.9855 20.3416 16.997 20.371 16.997C20.4004 16.997 20.4285 16.9855 20.4495 16.9649C20.4704 16.9444 20.4825 16.9164 20.483 16.887C20.4835 16.8577 20.4725 16.8293 20.4523 16.808C20.4321 16.7867 20.4043 16.7742 20.375 16.7731H20.367ZM27.617 16.7731C27.5877 16.7742 27.5599 16.7867 27.5397 16.808C27.5195 16.8293 27.5085 16.8577 27.509 16.887C27.5095 16.9164 27.5216 16.9444 27.5425 16.9649C27.5635 16.9855 27.5916 16.997 27.621 16.997C27.6504 16.997 27.6785 16.9855 27.6995 16.9649C27.7204 16.9444 27.7325 16.9164 27.733 16.887C27.7335 16.8577 27.7225 16.8293 27.7023 16.808C27.6821 16.7867 27.6543 16.7742 27.625 16.7731H27.617ZM20.367 17.3361C20.3374 17.3372 20.3094 17.3498 20.289 17.3713C20.2686 17.3928 20.2575 17.4214 20.258 17.451C20.2585 17.4807 20.2707 17.5089 20.2918 17.5296C20.3129 17.5504 20.3414 17.562 20.371 17.562C20.4006 17.562 20.4291 17.5504 20.4502 17.5296C20.4713 17.5089 20.4835 17.4807 20.484 17.451C20.4845 17.4214 20.4734 17.3928 20.453 17.3713C20.4326 17.3498 20.4046 17.3372 20.375 17.3361H20.367ZM27.617 17.3361C27.5874 17.3372 27.5594 17.3498 27.539 17.3713C27.5186 17.3928 27.5075 17.4214 27.508 17.451C27.5085 17.4807 27.5207 17.5089 27.5418 17.5296C27.5629 17.5504 27.5914 17.562 27.621 17.562C27.6506 17.562 27.6791 17.5504 27.7002 17.5296C27.7213 17.5089 27.7335 17.4807 27.734 17.451C27.7345 17.4214 27.7234 17.3928 27.703 17.3713C27.6826 17.3498 27.6546 17.3372 27.625 17.3361H27.617ZM20.367 17.8981C20.3515 17.898 20.3361 17.901 20.3218 17.9071C20.3076 17.9132 20.2947 17.9221 20.284 17.9334C20.2733 17.9446 20.2651 17.958 20.2598 17.9725C20.2545 17.9871 20.2523 18.0026 20.2532 18.0181C20.2542 18.0336 20.2584 18.0487 20.2654 18.0625C20.2725 18.0763 20.2823 18.0886 20.2943 18.0984C20.3063 18.1082 20.3202 18.1155 20.3351 18.1198C20.35 18.124 20.3656 18.1252 20.381 18.1231C20.4093 18.1193 20.4352 18.1049 20.4533 18.0828C20.4715 18.0608 20.4806 18.0326 20.4788 18.0041C20.477 17.9755 20.4645 17.9487 20.4438 17.9291C20.423 17.9094 20.3956 17.8983 20.367 17.8981ZM27.617 17.8981C27.6015 17.898 27.5861 17.901 27.5718 17.9071C27.5576 17.9132 27.5447 17.9221 27.534 17.9334C27.5233 17.9446 27.5151 17.958 27.5098 17.9725C27.5045 17.9871 27.5023 18.0026 27.5032 18.0181C27.5042 18.0336 27.5084 18.0487 27.5154 18.0625C27.5225 18.0763 27.5323 18.0886 27.5443 18.0984C27.5563 18.1082 27.5702 18.1155 27.5851 18.1198C27.6 18.124 27.6156 18.1252 27.631 18.1231C27.6593 18.1193 27.6852 18.1049 27.7033 18.0828C27.7215 18.0608 27.7306 18.0326 27.7288 18.0041C27.727 17.9755 27.7145 17.9487 27.6938 17.9291C27.673 17.9094 27.6456 17.8983 27.617 17.8981ZM20.367 18.4611C20.3523 18.462 20.3379 18.4658 20.3247 18.4723C20.3114 18.4788 20.2996 18.4878 20.2899 18.4989C20.2801 18.5099 20.2726 18.5228 20.2678 18.5367C20.2631 18.5506 20.2611 18.5654 20.262 18.5801C20.2629 18.5948 20.2667 18.6092 20.2732 18.6224C20.2797 18.6357 20.2887 18.6475 20.2998 18.6572C20.3108 18.667 20.3237 18.6745 20.3376 18.6793C20.3515 18.684 20.3663 18.686 20.381 18.6851C20.4107 18.6832 20.4385 18.6697 20.4581 18.6473C20.4778 18.625 20.4879 18.5958 20.486 18.5661C20.4841 18.5364 20.4706 18.5086 20.4482 18.489C20.4259 18.4693 20.3967 18.4592 20.367 18.4611ZM27.617 18.4611C27.5873 18.463 27.5595 18.4765 27.5399 18.4989C27.5202 18.5212 27.5101 18.5504 27.512 18.5801C27.5139 18.6098 27.5274 18.6376 27.5498 18.6572C27.5721 18.6769 27.6013 18.687 27.631 18.6851C27.6457 18.6842 27.6601 18.6804 27.6733 18.6739C27.6866 18.6674 27.6984 18.6584 27.7081 18.6473C27.7179 18.6363 27.7254 18.6234 27.7302 18.6095C27.7349 18.5956 27.7369 18.5808 27.736 18.5661C27.7351 18.5514 27.7313 18.537 27.7248 18.5238C27.7183 18.5105 27.7093 18.4987 27.6982 18.489C27.6872 18.4792 27.6743 18.4717 27.6604 18.4669C27.6465 18.4622 27.6317 18.4602 27.617 18.4611ZM20.355 19.0231C20.3285 19.0272 20.3044 19.0409 20.2873 19.0615C20.2702 19.0821 20.2612 19.1083 20.262 19.1351C20.262 19.1572 20.2685 19.1788 20.2808 19.1972C20.2931 19.2156 20.3105 19.23 20.3309 19.2385C20.3513 19.247 20.3738 19.2493 20.3955 19.245C20.4172 19.2408 20.4371 19.2302 20.4528 19.2146C20.4685 19.1991 20.4793 19.1792 20.4837 19.1576C20.4882 19.1359 20.4861 19.1134 20.4778 19.0929C20.4694 19.0725 20.4552 19.0549 20.4369 19.0425C20.4187 19.03 20.3971 19.0233 20.375 19.0231H20.355ZM27.605 19.0231C27.5785 19.0272 27.5544 19.0409 27.5373 19.0615C27.5202 19.0821 27.5112 19.1083 27.512 19.1351C27.512 19.1572 27.5185 19.1788 27.5308 19.1972C27.5431 19.2156 27.5605 19.23 27.5809 19.2385C27.6013 19.247 27.6238 19.2493 27.6455 19.245C27.6672 19.2408 27.6871 19.2302 27.7028 19.2146C27.7185 19.1991 27.7293 19.1792 27.7337 19.1576C27.7382 19.1359 27.7361 19.1134 27.7278 19.0929C27.7194 19.0725 27.7052 19.0549 27.6869 19.0425C27.6687 19.03 27.6471 19.0233 27.625 19.0231H27.605ZM20.377 19.5841C20.3613 19.5826 20.3455 19.5844 20.3306 19.5894C20.3157 19.5944 20.302 19.6024 20.2903 19.613C20.2787 19.6236 20.2694 19.6365 20.263 19.6509C20.2567 19.6653 20.2534 19.6809 20.2534 19.6966C20.2534 19.7123 20.2567 19.7279 20.263 19.7423C20.2694 19.7567 20.2787 19.7696 20.2903 19.7802C20.302 19.7908 20.3157 19.7988 20.3306 19.8038C20.3455 19.8088 20.3613 19.8106 20.377 19.8091C20.438 19.8081 20.487 19.7591 20.488 19.6971C20.4881 19.6824 20.4854 19.6678 20.4799 19.6542C20.4744 19.6405 20.4662 19.6281 20.4559 19.6176C20.4456 19.6071 20.4333 19.5988 20.4198 19.593C20.4062 19.5873 20.3917 19.5842 20.377 19.5841ZM27.627 19.5841C27.6113 19.5826 27.5955 19.5844 27.5806 19.5894C27.5657 19.5944 27.552 19.6024 27.5403 19.613C27.5287 19.6236 27.5194 19.6365 27.513 19.6509C27.5067 19.6653 27.5034 19.6809 27.5034 19.6966C27.5034 19.7123 27.5067 19.7279 27.513 19.7423C27.5194 19.7567 27.5287 19.7696 27.5403 19.7802C27.552 19.7908 27.5657 19.7988 27.5806 19.8038C27.5955 19.8088 27.6113 19.8106 27.627 19.8091C27.688 19.8081 27.737 19.7591 27.738 19.6971C27.7381 19.6824 27.7354 19.6678 27.7299 19.6542C27.7244 19.6405 27.7162 19.6281 27.7059 19.6176C27.6956 19.6071 27.6833 19.5988 27.6698 19.593C27.6562 19.5873 27.6417 19.5842 27.627 19.5841ZM20.367 20.1471C20.3523 20.148 20.3379 20.1518 20.3247 20.1583C20.3114 20.1648 20.2996 20.1738 20.2899 20.1849C20.2801 20.1959 20.2726 20.2088 20.2678 20.2227C20.2631 20.2367 20.2611 20.2514 20.262 20.2661C20.2629 20.2808 20.2667 20.2952 20.2732 20.3084C20.2797 20.3217 20.2887 20.3335 20.2998 20.3432C20.3108 20.353 20.3237 20.3605 20.3376 20.3653C20.3515 20.37 20.3663 20.372 20.381 20.3711C20.4107 20.3692 20.4385 20.3557 20.4581 20.3333C20.4778 20.311 20.4879 20.2818 20.486 20.2521C20.4841 20.2224 20.4706 20.1946 20.4482 20.175C20.4259 20.1553 20.3967 20.1452 20.367 20.1471ZM27.617 20.1471C27.5873 20.149 27.5595 20.1625 27.5399 20.1849C27.5202 20.2072 27.5101 20.2364 27.512 20.2661C27.5139 20.2958 27.5274 20.3236 27.5498 20.3432C27.5721 20.3629 27.6013 20.373 27.631 20.3711C27.6457 20.3702 27.6601 20.3664 27.6733 20.3599C27.6866 20.3534 27.6984 20.3444 27.7081 20.3333C27.7179 20.3223 27.7254 20.3094 27.7302 20.2955C27.7349 20.2816 27.7369 20.2668 27.736 20.2521C27.7351 20.2374 27.7313 20.223 27.7248 20.2098C27.7183 20.1965 27.7093 20.1847 27.6982 20.175C27.6872 20.1652 27.6743 20.1577 27.6604 20.153C27.6465 20.1482 27.6317 20.1462 27.617 20.1471ZM16.619 20.5351C16.4056 20.5298 16.1933 20.5672 15.9945 20.6452C15.7958 20.7232 15.6147 20.8401 15.4619 20.9892C15.309 21.1382 15.1876 21.3164 15.1047 21.5131C15.0217 21.7098 14.979 21.9211 14.979 22.1346C14.979 22.3481 15.0217 22.5594 15.1047 22.7561C15.1876 22.9528 15.309 23.131 15.4619 23.28C15.6147 23.4291 15.7958 23.546 15.9945 23.624C16.1933 23.702 16.4056 23.7394 16.619 23.7341C17.0363 23.7237 17.433 23.5506 17.7244 23.2517C18.0159 22.9529 18.179 22.552 18.179 22.1346C18.179 21.7172 18.0159 21.3163 17.7244 21.0175C17.433 20.7186 17.0363 20.5455 16.619 20.5351ZM23.955 20.5351C23.7416 20.5298 23.5293 20.5672 23.3305 20.6452C23.1318 20.7232 22.9507 20.8401 22.7979 20.9892C22.645 21.1382 22.5236 21.3164 22.4407 21.5131C22.3577 21.7098 22.315 21.9211 22.315 22.1346C22.315 22.3481 22.3577 22.5594 22.4407 22.7561C22.5236 22.9528 22.645 23.131 22.7979 23.28C22.9507 23.4291 23.1318 23.546 23.3305 23.624C23.5293 23.702 23.7416 23.7394 23.955 23.7341C24.3723 23.7237 24.769 23.5506 25.0604 23.2517C25.3519 22.9529 25.515 22.552 25.515 22.1346C25.515 21.7172 25.3519 21.3163 25.0604 21.0175C24.769 20.7186 24.3723 20.5455 23.955 20.5351ZM31.293 20.5351C31.0796 20.5298 30.8673 20.5672 30.6685 20.6452C30.4698 20.7232 30.2887 20.8401 30.1359 20.9892C29.983 21.1382 29.8616 21.3164 29.7787 21.5131C29.6957 21.7098 29.653 21.9211 29.653 22.1346C29.653 22.3481 29.6957 22.5594 29.7787 22.7561C29.8616 22.9528 29.983 23.131 30.1359 23.28C30.2887 23.4291 30.4698 23.546 30.6685 23.624C30.8673 23.702 31.0796 23.7394 31.293 23.7341C31.7103 23.7237 32.107 23.5506 32.3984 23.2517C32.6899 22.9529 32.853 22.552 32.853 22.1346C32.853 21.7172 32.6899 21.3163 32.3984 21.0175C32.107 20.7186 31.7103 20.5455 31.293 20.5351ZM20.367 20.7091C20.3523 20.71 20.3379 20.7138 20.3247 20.7203C20.3114 20.7268 20.2996 20.7358 20.2899 20.7469C20.2801 20.7579 20.2726 20.7708 20.2678 20.7847C20.2631 20.7987 20.2611 20.8134 20.262 20.8281C20.2629 20.8428 20.2667 20.8572 20.2732 20.8704C20.2797 20.8837 20.2887 20.8955 20.2998 20.9052C20.3108 20.915 20.3237 20.9225 20.3376 20.9273C20.3515 20.932 20.3663 20.934 20.381 20.9331C20.4107 20.9312 20.4385 20.9177 20.4581 20.8953C20.4778 20.873 20.4879 20.8438 20.486 20.8141C20.4841 20.7844 20.4706 20.7566 20.4482 20.737C20.4259 20.7173 20.3967 20.7072 20.367 20.7091ZM27.617 20.7091C27.6023 20.71 27.5879 20.7138 27.5747 20.7203C27.5614 20.7268 27.5496 20.7358 27.5399 20.7469C27.5301 20.7579 27.5226 20.7708 27.5178 20.7847C27.5131 20.7987 27.5111 20.8134 27.512 20.8281C27.5129 20.8428 27.5167 20.8572 27.5232 20.8704C27.5297 20.8837 27.5387 20.8955 27.5498 20.9052C27.5608 20.915 27.5737 20.9225 27.5876 20.9273C27.6015 20.932 27.6163 20.934 27.631 20.9331C27.6607 20.9312 27.6885 20.9177 27.7081 20.8953C27.7278 20.873 27.7379 20.8438 27.736 20.8141C27.7341 20.7844 27.7206 20.7566 27.6982 20.737C27.6759 20.7173 27.6467 20.7072 27.617 20.7091ZM20.367 21.2721C20.3384 21.2739 20.3115 21.2866 20.2919 21.3076C20.2724 21.3287 20.2617 21.3564 20.262 21.3851C20.262 21.4471 20.312 21.4971 20.375 21.4961C20.3897 21.4956 20.4042 21.4922 20.4176 21.486C20.4309 21.4799 20.443 21.4712 20.453 21.4605C20.4631 21.4497 20.4709 21.4371 20.476 21.4233C20.4811 21.4095 20.4835 21.3948 20.483 21.3801C20.4825 21.3654 20.4791 21.3509 20.4729 21.3375C20.4668 21.3242 20.4581 21.3121 20.4474 21.3021C20.4366 21.292 20.424 21.2842 20.4102 21.2791C20.3964 21.274 20.3817 21.2716 20.367 21.2721ZM27.617 21.2721C27.5884 21.2739 27.5615 21.2866 27.5419 21.3076C27.5224 21.3287 27.5117 21.3564 27.512 21.3851C27.512 21.4471 27.562 21.4971 27.625 21.4961C27.6397 21.4956 27.6542 21.4922 27.6676 21.486C27.6809 21.4799 27.693 21.4712 27.703 21.4605C27.7131 21.4497 27.7209 21.4371 27.726 21.4233C27.7311 21.4095 27.7335 21.3948 27.733 21.3801C27.7325 21.3654 27.7291 21.3509 27.7229 21.3375C27.7168 21.3242 27.7081 21.3121 27.6974 21.3021C27.6866 21.292 27.674 21.2842 27.6602 21.2791C27.6464 21.274 27.6317 21.2716 27.617 21.2721ZM20.367 21.8341C20.3515 21.834 20.3361 21.837 20.3218 21.8431C20.3076 21.8492 20.2947 21.8581 20.284 21.8694C20.2733 21.8806 20.2651 21.894 20.2598 21.9085C20.2545 21.9231 20.2523 21.9386 20.2532 21.9541C20.2542 21.9696 20.2584 21.9847 20.2654 21.9985C20.2725 22.0123 20.2823 22.0246 20.2943 22.0344C20.3063 22.0443 20.3202 22.0515 20.3351 22.0558C20.35 22.06 20.3656 22.0612 20.381 22.0591C20.4093 22.0553 20.4352 22.0409 20.4533 22.0188C20.4715 21.9968 20.4806 21.9686 20.4788 21.9401C20.477 21.9115 20.4645 21.8847 20.4438 21.8651C20.423 21.8454 20.3956 21.8343 20.367 21.8341ZM27.617 21.8341C27.6015 21.834 27.5861 21.837 27.5718 21.8431C27.5576 21.8492 27.5447 21.8581 27.534 21.8694C27.5233 21.8806 27.5151 21.894 27.5098 21.9085C27.5045 21.9231 27.5023 21.9386 27.5032 21.9541C27.5042 21.9696 27.5084 21.9847 27.5154 21.9985C27.5225 22.0123 27.5323 22.0246 27.5443 22.0344C27.5563 22.0443 27.5702 22.0515 27.5851 22.0558C27.6 22.06 27.6156 22.0612 27.631 22.0591C27.6593 22.0553 27.6852 22.0409 27.7033 22.0188C27.7215 21.9968 27.7306 21.9686 27.7288 21.9401C27.727 21.9115 27.7145 21.8847 27.6938 21.8651C27.673 21.8454 27.6456 21.8343 27.617 21.8341ZM20.367 22.3971C20.3523 22.398 20.3379 22.4018 20.3247 22.4083C20.3114 22.4148 20.2996 22.4238 20.2899 22.4349C20.2801 22.4459 20.2726 22.4588 20.2678 22.4727C20.2631 22.4867 20.2611 22.5014 20.262 22.5161C20.2629 22.5308 20.2667 22.5452 20.2732 22.5584C20.2797 22.5717 20.2887 22.5835 20.2998 22.5932C20.3108 22.603 20.3237 22.6105 20.3376 22.6153C20.3515 22.62 20.3663 22.622 20.381 22.6211C20.4107 22.6192 20.4385 22.6057 20.4581 22.5833C20.4778 22.561 20.4879 22.5318 20.486 22.5021C20.4841 22.4724 20.4706 22.4446 20.4482 22.425C20.4259 22.4053 20.3967 22.3952 20.367 22.3971ZM27.617 22.3971C27.5873 22.399 27.5595 22.4125 27.5399 22.4349C27.5202 22.4572 27.5101 22.4864 27.512 22.5161C27.5139 22.5458 27.5274 22.5736 27.5498 22.5932C27.5721 22.6129 27.6013 22.623 27.631 22.6211C27.6457 22.6202 27.6601 22.6164 27.6733 22.6099C27.6866 22.6034 27.6984 22.5944 27.7081 22.5833C27.7179 22.5723 27.7254 22.5594 27.7302 22.5455C27.7349 22.5316 27.7369 22.5168 27.736 22.5021C27.7351 22.4874 27.7313 22.473 27.7248 22.4598C27.7183 22.4465 27.7093 22.4347 27.6982 22.425C27.6872 22.4152 27.6743 22.4077 27.6604 22.403C27.6465 22.3982 27.6317 22.3962 27.617 22.3971ZM20.367 22.9591C20.3523 22.96 20.3379 22.9638 20.3247 22.9703C20.3114 22.9768 20.2996 22.9858 20.2899 22.9969C20.2801 23.0079 20.2726 23.0208 20.2678 23.0347C20.2631 23.0487 20.2611 23.0634 20.262 23.0781C20.2629 23.0928 20.2667 23.1072 20.2732 23.1204C20.2797 23.1337 20.2887 23.1455 20.2998 23.1552C20.3108 23.165 20.3237 23.1725 20.3376 23.1773C20.3515 23.182 20.3663 23.184 20.381 23.1831C20.4107 23.1812 20.4385 23.1677 20.4581 23.1453C20.4778 23.123 20.4879 23.0938 20.486 23.0641C20.4841 23.0344 20.4706 23.0066 20.4482 22.987C20.4259 22.9673 20.3967 22.9572 20.367 22.9591ZM27.617 22.9591C27.6023 22.96 27.5879 22.9638 27.5747 22.9703C27.5614 22.9768 27.5496 22.9858 27.5399 22.9969C27.5301 23.0079 27.5226 23.0208 27.5178 23.0347C27.5131 23.0487 27.5111 23.0634 27.512 23.0781C27.5129 23.0928 27.5167 23.1072 27.5232 23.1204C27.5297 23.1337 27.5387 23.1455 27.5498 23.1552C27.5608 23.165 27.5737 23.1725 27.5876 23.1773C27.6015 23.182 27.6163 23.184 27.631 23.1831C27.6607 23.1812 27.6885 23.1677 27.7081 23.1453C27.7278 23.123 27.7379 23.0938 27.736 23.0641C27.7341 23.0344 27.7206 23.0066 27.6982 22.987C27.6759 22.9673 27.6467 22.9572 27.617 22.9591ZM20.355 23.5221C20.3289 23.5264 20.3053 23.5398 20.2882 23.56C20.2712 23.5801 20.2619 23.6057 20.262 23.6321C20.2616 23.6543 20.2678 23.6761 20.2798 23.6948C20.2918 23.7134 20.3091 23.7281 20.3295 23.7369C20.3499 23.7457 20.3724 23.7483 20.3942 23.7443C20.4161 23.7402 20.4362 23.7298 20.4521 23.7144C20.468 23.6989 20.479 23.679 20.4836 23.6573C20.4881 23.6356 20.4862 23.613 20.4779 23.5924C20.4697 23.5718 20.4555 23.5541 20.4372 23.5416C20.4188 23.5291 20.3972 23.5223 20.375 23.5221H20.355ZM27.605 23.5221C27.5789 23.5264 27.5553 23.5398 27.5382 23.56C27.5212 23.5801 27.5119 23.6057 27.512 23.6321C27.5116 23.6543 27.5178 23.6761 27.5298 23.6948C27.5418 23.7134 27.5591 23.7281 27.5795 23.7369C27.5999 23.7457 27.6224 23.7483 27.6442 23.7443C27.6661 23.7402 27.6862 23.7298 27.7021 23.7144C27.718 23.6989 27.729 23.679 27.7336 23.6573C27.7381 23.6356 27.7362 23.613 27.7279 23.5924C27.7197 23.5718 27.7055 23.5541 27.6872 23.5416C27.6688 23.5291 27.6472 23.5223 27.625 23.5221H27.605ZM20.355 24.0841C20.3339 24.0875 20.3143 24.0969 20.2983 24.1112C20.2824 24.1254 20.2709 24.1439 20.2651 24.1645C20.2594 24.1851 20.2596 24.2069 20.2659 24.2273C20.2721 24.2477 20.284 24.2659 20.3003 24.2798C20.3165 24.2937 20.3364 24.3026 20.3576 24.3056C20.3787 24.3085 20.4003 24.3054 20.4197 24.2965C20.4391 24.2875 20.4556 24.2733 20.4671 24.2553C20.4787 24.2374 20.4849 24.2165 20.485 24.1951C20.485 24.1351 20.436 24.0851 20.375 24.0841H20.355ZM27.605 24.0841C27.5839 24.0875 27.5643 24.0969 27.5483 24.1112C27.5324 24.1254 27.5209 24.1439 27.5151 24.1645C27.5094 24.1851 27.5096 24.2069 27.5159 24.2273C27.5221 24.2477 27.534 24.2659 27.5503 24.2798C27.5665 24.2937 27.5864 24.3026 27.6076 24.3056C27.6287 24.3085 27.6503 24.3054 27.6697 24.2965C27.6891 24.2875 27.7056 24.2733 27.7171 24.2553C27.7287 24.2374 27.7349 24.2165 27.735 24.1951C27.735 24.1351 27.686 24.0851 27.625 24.0841H27.605ZM16.619 24.3711C16.4056 24.3658 16.1933 24.4032 15.9945 24.4812C15.7958 24.5592 15.6147 24.6761 15.4619 24.8252C15.309 24.9742 15.1876 25.1524 15.1047 25.3491C15.0217 25.5458 14.979 25.7571 14.979 25.9706C14.979 26.1841 15.0217 26.3954 15.1047 26.5921C15.1876 26.7888 15.309 26.967 15.4619 27.116C15.6147 27.2651 15.7958 27.382 15.9945 27.46C16.1933 27.538 16.4056 27.5754 16.619 27.5701C17.0363 27.5597 17.433 27.3866 17.7244 27.0877C18.0159 26.7889 18.179 26.388 18.179 25.9706C18.179 25.5532 18.0159 25.1523 17.7244 24.8535C17.433 24.5546 17.0363 24.3815 16.619 24.3711ZM23.955 24.3711C23.7416 24.3658 23.5293 24.4032 23.3305 24.4812C23.1318 24.5592 22.9507 24.6761 22.7979 24.8252C22.645 24.9742 22.5236 25.1524 22.4407 25.3491C22.3577 25.5458 22.315 25.7571 22.315 25.9706C22.315 26.1841 22.3577 26.3954 22.4407 26.5921C22.5236 26.7888 22.645 26.967 22.7979 27.116C22.9507 27.2651 23.1318 27.382 23.3305 27.46C23.5293 27.538 23.7416 27.5754 23.955 27.5701C24.3723 27.5597 24.769 27.3866 25.0604 27.0877C25.3519 26.7889 25.515 26.388 25.515 25.9706C25.515 25.5532 25.3519 25.1523 25.0604 24.8535C24.769 24.5546 24.3723 24.3815 23.955 24.3711ZM31.293 24.3711C31.0796 24.3658 30.8673 24.4032 30.6685 24.4812C30.4698 24.5592 30.2887 24.6761 30.1359 24.8252C29.983 24.9742 29.8616 25.1524 29.7787 25.3491C29.6957 25.5458 29.653 25.7571 29.653 25.9706C29.653 26.1841 29.6957 26.3954 29.7787 26.5921C29.8616 26.7888 29.983 26.967 30.1359 27.116C30.2887 27.2651 30.4698 27.382 30.6685 27.46C30.8673 27.538 31.0796 27.5754 31.293 27.5701C31.7103 27.5597 32.107 27.3866 32.3984 27.0877C32.6899 26.7889 32.853 26.388 32.853 25.9706C32.853 25.5532 32.6899 25.1523 32.3984 24.8535C32.107 24.5546 31.7103 24.3815 31.293 24.3711ZM20.367 24.6451C20.3377 24.6462 20.3099 24.6587 20.2897 24.68C20.2695 24.7013 20.2585 24.7297 20.259 24.759C20.2595 24.7884 20.2716 24.8164 20.2925 24.8369C20.3135 24.8575 20.3416 24.869 20.371 24.869C20.4004 24.869 20.4285 24.8575 20.4495 24.8369C20.4704 24.8164 20.4825 24.7884 20.483 24.759C20.4835 24.7297 20.4725 24.7013 20.4523 24.68C20.4321 24.6587 20.4043 24.6462 20.375 24.6451H20.367ZM27.617 24.6451C27.5877 24.6462 27.5599 24.6587 27.5397 24.68C27.5195 24.7013 27.5085 24.7297 27.509 24.759C27.5095 24.7884 27.5216 24.8164 27.5425 24.8369C27.5635 24.8575 27.5916 24.869 27.621 24.869C27.6504 24.869 27.6785 24.8575 27.6995 24.8369C27.7204 24.8164 27.7325 24.7884 27.733 24.759C27.7335 24.7297 27.7225 24.7013 27.7023 24.68C27.6821 24.6587 27.6543 24.6462 27.625 24.6451H27.617ZM20.367 25.2071C20.3377 25.2082 20.3099 25.2207 20.2897 25.242C20.2695 25.2633 20.2585 25.2917 20.259 25.321C20.2595 25.3504 20.2716 25.3784 20.2925 25.3989C20.3135 25.4195 20.3416 25.431 20.371 25.431C20.4004 25.431 20.4285 25.4195 20.4495 25.3989C20.4704 25.3784 20.4825 25.3504 20.483 25.321C20.4835 25.2917 20.4725 25.2633 20.4523 25.242C20.4321 25.2207 20.4043 25.2082 20.375 25.2071H20.367ZM27.617 25.2071C27.5877 25.2082 27.5599 25.2207 27.5397 25.242C27.5195 25.2633 27.5085 25.2917 27.509 25.321C27.5095 25.3504 27.5216 25.3784 27.5425 25.3989C27.5635 25.4195 27.5916 25.431 27.621 25.431C27.6504 25.431 27.6785 25.4195 27.6995 25.3989C27.7204 25.3784 27.7325 25.3504 27.733 25.321C27.7335 25.2917 27.7225 25.2633 27.7023 25.242C27.6821 25.2207 27.6543 25.2082 27.625 25.2071H27.617ZM20.367 25.7701C20.3523 25.771 20.3379 25.7748 20.3247 25.7813C20.3114 25.7878 20.2996 25.7968 20.2899 25.8079C20.2801 25.8189 20.2726 25.8318 20.2678 25.8457C20.2631 25.8596 20.2611 25.8744 20.262 25.8891C20.2629 25.9038 20.2667 25.9182 20.2732 25.9314C20.2797 25.9447 20.2887 25.9565 20.2998 25.9662C20.3108 25.976 20.3237 25.9835 20.3376 25.9883C20.3515 25.993 20.3663 25.995 20.381 25.9941C20.4107 25.9922 20.4385 25.9787 20.4581 25.9563C20.4778 25.934 20.4879 25.9048 20.486 25.8751C20.4841 25.8454 20.4706 25.8176 20.4482 25.798C20.4259 25.7783 20.3967 25.7682 20.367 25.7701ZM27.617 25.7701C27.6023 25.771 27.5879 25.7748 27.5747 25.7813C27.5614 25.7878 27.5496 25.7968 27.5399 25.8079C27.5301 25.8189 27.5226 25.8318 27.5178 25.8457C27.5131 25.8596 27.5111 25.8744 27.512 25.8891C27.5129 25.9038 27.5167 25.9182 27.5232 25.9314C27.5297 25.9447 27.5387 25.9565 27.5498 25.9662C27.5608 25.976 27.5737 25.9835 27.5876 25.9883C27.6015 25.993 27.6163 25.995 27.631 25.9941C27.6607 25.9922 27.6885 25.9787 27.7081 25.9563C27.7278 25.934 27.7379 25.9048 27.736 25.8751C27.7341 25.8454 27.7206 25.8176 27.6982 25.798C27.6759 25.7783 27.6467 25.7682 27.617 25.7701ZM20.367 26.3321C20.3377 26.3332 20.3099 26.3457 20.2897 26.367C20.2695 26.3883 20.2585 26.4167 20.259 26.446C20.2595 26.4754 20.2716 26.5034 20.2925 26.5239C20.3135 26.5445 20.3416 26.556 20.371 26.556C20.4004 26.556 20.4285 26.5445 20.4495 26.5239C20.4704 26.5034 20.4825 26.4754 20.483 26.446C20.4835 26.4167 20.4725 26.3883 20.4523 26.367C20.4321 26.3457 20.4043 26.3332 20.375 26.3321C20.3723 26.332 20.3697 26.332 20.367 26.3321ZM27.617 26.3321C27.5877 26.3332 27.5599 26.3457 27.5397 26.367C27.5195 26.3883 27.5085 26.4167 27.509 26.446C27.5095 26.4754 27.5216 26.5034 27.5425 26.5239C27.5635 26.5445 27.5916 26.556 27.621 26.556C27.6504 26.556 27.6785 26.5445 27.6995 26.5239C27.7204 26.5034 27.7325 26.4754 27.733 26.446C27.7335 26.4167 27.7225 26.3883 27.7023 26.367C27.6821 26.3457 27.6543 26.3332 27.625 26.3321C27.6223 26.332 27.6197 26.332 27.617 26.3321ZM20.367 26.8951C20.3377 26.8962 20.3099 26.9087 20.2897 26.93C20.2695 26.9513 20.2585 26.9797 20.259 27.009C20.2595 27.0384 20.2716 27.0664 20.2925 27.0869C20.3135 27.1075 20.3416 27.119 20.371 27.119C20.4004 27.119 20.4285 27.1075 20.4495 27.0869C20.4704 27.0664 20.4825 27.0384 20.483 27.009C20.4835 26.9797 20.4725 26.9513 20.4523 26.93C20.4321 26.9087 20.4043 26.8962 20.375 26.8951H20.367ZM27.617 26.8951C27.5877 26.8962 27.5599 26.9087 27.5397 26.93C27.5195 26.9513 27.5085 26.9797 27.509 27.009C27.5095 27.0384 27.5216 27.0664 27.5425 27.0869C27.5635 27.1075 27.5916 27.119 27.621 27.119C27.6504 27.119 27.6785 27.1075 27.6995 27.0869C27.7204 27.0664 27.7325 27.0384 27.733 27.009C27.7335 26.9797 27.7225 26.9513 27.7023 26.93C27.6821 26.9087 27.6543 26.8962 27.625 26.8951H27.617ZM20.367 27.4571C20.3374 27.4582 20.3094 27.4708 20.289 27.4923C20.2686 27.5138 20.2575 27.5424 20.258 27.572C20.2585 27.6017 20.2707 27.6299 20.2918 27.6506C20.3129 27.6714 20.3414 27.683 20.371 27.683C20.4006 27.683 20.4291 27.6714 20.4502 27.6506C20.4713 27.6299 20.4835 27.6017 20.484 27.572C20.4845 27.5424 20.4734 27.5138 20.453 27.4923C20.4326 27.4708 20.4046 27.4582 20.375 27.4571H20.367ZM27.617 27.4571C27.5874 27.4582 27.5594 27.4708 27.539 27.4923C27.5186 27.5138 27.5075 27.5424 27.508 27.572C27.5085 27.6017 27.5207 27.6299 27.5418 27.6506C27.5629 27.6714 27.5914 27.683 27.621 27.683C27.6506 27.683 27.6791 27.6714 27.7002 27.6506C27.7213 27.6299 27.7335 27.6017 27.734 27.572C27.7345 27.5424 27.7234 27.5138 27.703 27.4923C27.6826 27.4708 27.6546 27.4582 27.625 27.4571H27.617ZM20.355 28.0201C20.3261 28.0236 20.2997 28.0382 20.2814 28.0608C20.2631 28.0834 20.2543 28.1123 20.2569 28.1413C20.2595 28.1703 20.2732 28.1971 20.2953 28.2161C20.3174 28.2351 20.3459 28.2448 20.375 28.2431C20.436 28.2411 20.485 28.1931 20.486 28.1311C20.486 28.0701 20.436 28.0211 20.375 28.0201H20.355ZM27.605 28.0201C27.5761 28.0236 27.5497 28.0382 27.5314 28.0608C27.5131 28.0834 27.5043 28.1123 27.5069 28.1413C27.5095 28.1703 27.5232 28.1971 27.5453 28.2161C27.5674 28.2351 27.5959 28.2448 27.625 28.2431C27.686 28.2411 27.735 28.1931 27.736 28.1311C27.736 28.0701 27.686 28.0211 27.625 28.0201H27.605ZM16.619 28.2051C16.2014 28.2155 15.8045 28.3887 15.5129 28.6878C15.2212 28.9868 15.058 29.3879 15.058 29.8056C15.058 30.2233 15.2212 30.6244 15.5129 30.9234C15.8045 31.2225 16.2014 31.3957 16.619 31.4061C17.0435 31.4061 17.4506 31.2375 17.7507 30.9373C18.0509 30.6372 18.2195 30.2301 18.2195 29.8056C18.2195 29.3811 18.0509 28.974 17.7507 28.6739C17.4506 28.3737 17.0435 28.2051 16.619 28.2051ZM23.955 28.2051C23.5305 28.2051 23.1234 28.3737 22.8233 28.6739C22.5231 28.974 22.3545 29.3811 22.3545 29.8056C22.3545 30.2301 22.5231 30.6372 22.8233 30.9373C23.1234 31.2375 23.5305 31.4061 23.955 31.4061C24.1651 31.4061 24.3732 31.3647 24.5673 31.2843C24.7614 31.2039 24.9378 31.086 25.0864 30.9375C25.2349 30.7889 25.3528 30.6125 25.4332 30.4184C25.5136 30.2243 25.555 30.0162 25.555 29.8061C25.555 29.596 25.5136 29.3879 25.4332 29.1938C25.3528 28.9997 25.2349 28.8233 25.0864 28.6747C24.9378 28.5262 24.7614 28.4083 24.5673 28.3279C24.3732 28.2475 24.1651 28.2061 23.955 28.2061V28.2051ZM31.293 28.2051C30.8685 28.2051 30.4614 28.3737 30.1613 28.6739C29.8611 28.974 29.6925 29.3811 29.6925 29.8056C29.6925 30.2301 29.8611 30.6372 30.1613 30.9373C30.4614 31.2375 30.8685 31.4061 31.293 31.4061C31.5031 31.4061 31.7112 31.3647 31.9053 31.2843C32.0994 31.2039 32.2758 31.086 32.4244 30.9375C32.5729 30.7889 32.6908 30.6125 32.7712 30.4184C32.8516 30.2243 32.893 30.0162 32.893 29.8061C32.893 29.596 32.8516 29.3879 32.7712 29.1938C32.6908 28.9997 32.5729 28.8233 32.4244 28.6747C32.2758 28.5262 32.0994 28.4083 31.9053 28.3279C31.7112 28.2475 31.5031 28.2061 31.293 28.2061V28.2051ZM20.377 28.5801C20.3614 28.5785 20.3455 28.5802 20.3306 28.585C20.3156 28.5899 20.3018 28.5978 20.2901 28.6083C20.2784 28.6188 20.269 28.6316 20.2625 28.6459C20.256 28.6602 20.2526 28.6758 20.2524 28.6915C20.2523 28.7072 20.2554 28.7228 20.2617 28.7373C20.2679 28.7517 20.2771 28.7647 20.2886 28.7754C20.3002 28.7861 20.3138 28.7942 20.3287 28.7994C20.3435 28.8045 20.3593 28.8064 20.375 28.8051C20.403 28.8027 20.4292 28.79 20.4483 28.7693C20.4674 28.7487 20.4782 28.7217 20.4784 28.6935C20.4787 28.6654 20.4684 28.6382 20.4497 28.6172C20.4309 28.5962 20.405 28.583 20.377 28.5801ZM27.627 28.5801C27.6114 28.5785 27.5955 28.5802 27.5806 28.585C27.5656 28.5899 27.5518 28.5978 27.5401 28.6083C27.5284 28.6188 27.519 28.6316 27.5125 28.6459C27.506 28.6602 27.5026 28.6758 27.5024 28.6915C27.5023 28.7072 27.5054 28.7228 27.5117 28.7373C27.5179 28.7517 27.5271 28.7647 27.5386 28.7754C27.5502 28.7861 27.5638 28.7942 27.5787 28.7994C27.5935 28.8045 27.6093 28.8064 27.625 28.8051C27.653 28.8027 27.6792 28.79 27.6983 28.7693C27.7174 28.7487 27.7282 28.7217 27.7284 28.6935C27.7287 28.6654 27.7184 28.6382 27.6997 28.6172C27.6809 28.5962 27.655 28.583 27.627 28.5801ZM20.367 29.1431C20.3384 29.1449 20.3115 29.1576 20.2919 29.1786C20.2724 29.1997 20.2617 29.2274 20.262 29.2561C20.262 29.3181 20.312 29.3681 20.375 29.3671C20.3897 29.3666 20.4042 29.3632 20.4176 29.357C20.4309 29.3509 20.443 29.3422 20.453 29.3315C20.4631 29.3207 20.4709 29.3081 20.476 29.2943C20.4811 29.2805 20.4835 29.2658 20.483 29.2511C20.4825 29.2364 20.4791 29.2219 20.4729 29.2085C20.4668 29.1952 20.4581 29.1831 20.4474 29.1731C20.4366 29.163 20.424 29.1552 20.4102 29.1501C20.3964 29.145 20.3817 29.1426 20.367 29.1431ZM27.617 29.1431C27.5884 29.1449 27.5615 29.1576 27.5419 29.1786C27.5224 29.1997 27.5117 29.2274 27.512 29.2561C27.512 29.3181 27.562 29.3681 27.625 29.3671C27.6397 29.3666 27.6542 29.3632 27.6676 29.357C27.6809 29.3509 27.693 29.3422 27.703 29.3315C27.7131 29.3207 27.7209 29.3081 27.726 29.2943C27.7311 29.2805 27.7335 29.2658 27.733 29.2511C27.7325 29.2364 27.7291 29.2219 27.7229 29.2085C27.7168 29.1952 27.7081 29.1831 27.6974 29.1731C27.6866 29.163 27.674 29.1552 27.6602 29.1501C27.6464 29.145 27.6317 29.1426 27.617 29.1431ZM20.367 29.7051C20.3523 29.706 20.3379 29.7098 20.3247 29.7163C20.3114 29.7228 20.2996 29.7318 20.2899 29.7429C20.2801 29.7539 20.2726 29.7668 20.2678 29.7807C20.2631 29.7947 20.2611 29.8094 20.262 29.8241C20.2629 29.8388 20.2667 29.8532 20.2732 29.8664C20.2797 29.8797 20.2887 29.8915 20.2998 29.9012C20.3108 29.911 20.3237 29.9185 20.3376 29.9233C20.3515 29.928 20.3663 29.93 20.381 29.9291C20.4107 29.9272 20.4385 29.9137 20.4581 29.8913C20.4778 29.869 20.4879 29.8398 20.486 29.8101C20.4841 29.7804 20.4706 29.7526 20.4482 29.733C20.4259 29.7133 20.3967 29.7032 20.367 29.7051ZM27.617 29.7051C27.6023 29.706 27.5879 29.7098 27.5747 29.7163C27.5614 29.7228 27.5496 29.7318 27.5399 29.7429C27.5301 29.7539 27.5226 29.7668 27.5178 29.7807C27.5131 29.7947 27.5111 29.8094 27.512 29.8241C27.5129 29.8388 27.5167 29.8532 27.5232 29.8664C27.5297 29.8797 27.5387 29.8915 27.5498 29.9012C27.5608 29.911 27.5737 29.9185 27.5876 29.9233C27.6015 29.928 27.6163 29.93 27.631 29.9291C27.6607 29.9272 27.6885 29.9137 27.7081 29.8913C27.7278 29.869 27.7379 29.8398 27.736 29.8101C27.7341 29.7804 27.7206 29.7526 27.6982 29.733C27.6759 29.7133 27.6467 29.7032 27.617 29.7051ZM20.367 30.2681C20.3384 30.2699 20.3115 30.2826 20.2919 30.3036C20.2724 30.3247 20.2617 30.3524 20.262 30.3811C20.2622 30.4035 20.2692 30.4253 20.282 30.4437C20.2947 30.4621 20.3127 30.4763 20.3336 30.4843C20.3545 30.4924 20.3773 30.4941 20.3992 30.489C20.421 30.484 20.4408 30.4725 20.456 30.4561C20.4713 30.4397 20.4813 30.4191 20.4847 30.397C20.4881 30.3748 20.4848 30.3522 20.4752 30.3319C20.4656 30.3117 20.4502 30.2948 20.4309 30.2834C20.4116 30.272 20.3894 30.2667 20.367 30.2681ZM27.617 30.2681C27.5884 30.2699 27.5615 30.2826 27.5419 30.3036C27.5224 30.3247 27.5117 30.3524 27.512 30.3811C27.5122 30.4035 27.5192 30.4253 27.532 30.4437C27.5447 30.4621 27.5627 30.4763 27.5836 30.4843C27.6045 30.4924 27.6273 30.4941 27.6492 30.489C27.671 30.484 27.6908 30.4725 27.706 30.4561C27.7213 30.4397 27.7313 30.4191 27.7347 30.397C27.7381 30.3748 27.7348 30.3522 27.7252 30.3319C27.7156 30.3117 27.7002 30.2948 27.6809 30.2834C27.6616 30.272 27.6394 30.2667 27.617 30.2681ZM20.367 30.8281C20.3385 30.8304 20.3119 30.8432 20.2925 30.8641C20.273 30.8851 20.2622 30.9125 20.262 30.9411C20.2599 30.9571 20.2612 30.9733 20.2658 30.9887C20.2705 31.0041 20.2784 31.0184 20.289 31.0305C20.2996 31.0426 20.3126 31.0523 20.3273 31.059C20.342 31.0657 20.3579 31.0691 20.374 31.0691C20.3901 31.0691 20.406 31.0657 20.4207 31.059C20.4354 31.0523 20.4484 31.0426 20.459 31.0305C20.4696 31.0184 20.4775 31.0041 20.4822 30.9887C20.4868 30.9733 20.4881 30.9571 20.486 30.9411C20.4859 30.9258 20.4827 30.9107 20.4766 30.8966C20.4705 30.8826 20.4616 30.8699 20.4505 30.8593C20.4394 30.8488 20.4263 30.8406 20.4119 30.8352C20.3976 30.8298 20.3823 30.8274 20.367 30.8281ZM27.617 30.8281C27.5885 30.8304 27.5619 30.8432 27.5425 30.8641C27.523 30.8851 27.5122 30.9125 27.512 30.9411C27.5099 30.9571 27.5112 30.9733 27.5158 30.9887C27.5205 31.0041 27.5284 31.0184 27.539 31.0305C27.5496 31.0426 27.5626 31.0523 27.5773 31.059C27.592 31.0657 27.6079 31.0691 27.624 31.0691C27.6401 31.0691 27.656 31.0657 27.6707 31.059C27.6854 31.0523 27.6984 31.0426 27.709 31.0305C27.7196 31.0184 27.7275 31.0041 27.7322 30.9887C27.7368 30.9733 27.7381 30.9571 27.736 30.9411C27.7359 30.9258 27.7327 30.9107 27.7266 30.8966C27.7205 30.8826 27.7116 30.8699 27.7005 30.8593C27.6894 30.8488 27.6763 30.8406 27.6619 30.8352C27.6476 30.8298 27.6323 30.8274 27.617 30.8281ZM20.367 31.3911C20.3523 31.392 20.3379 31.3958 20.3247 31.4023C20.3114 31.4088 20.2996 31.4178 20.2899 31.4289C20.2801 31.4399 20.2726 31.4528 20.2678 31.4667C20.2631 31.4806 20.2611 31.4954 20.262 31.5101C20.2629 31.5248 20.2667 31.5392 20.2732 31.5524C20.2797 31.5657 20.2887 31.5775 20.2998 31.5872C20.3108 31.597 20.3237 31.6045 20.3376 31.6093C20.3515 31.614 20.3663 31.616 20.381 31.6151C20.4107 31.6132 20.4385 31.5997 20.4581 31.5773C20.4778 31.555 20.4879 31.5258 20.486 31.4961C20.4841 31.4664 20.4706 31.4386 20.4482 31.419C20.4259 31.3993 20.3967 31.3892 20.367 31.3911ZM27.617 31.3911C27.6023 31.392 27.5879 31.3958 27.5747 31.4023C27.5614 31.4088 27.5496 31.4178 27.5399 31.4289C27.5301 31.4399 27.5226 31.4528 27.5178 31.4667C27.5131 31.4806 27.5111 31.4954 27.512 31.5101C27.5129 31.5248 27.5167 31.5392 27.5232 31.5524C27.5297 31.5657 27.5387 31.5775 27.5498 31.5872C27.5608 31.597 27.5737 31.6045 27.5876 31.6093C27.6015 31.614 27.6163 31.616 27.631 31.6151C27.6607 31.6132 27.6885 31.5997 27.7081 31.5773C27.7278 31.555 27.7379 31.5258 27.736 31.4961C27.7341 31.4664 27.7206 31.4386 27.6982 31.419C27.6759 31.3993 27.6467 31.3892 27.617 31.3911ZM20.355 31.9531C20.3286 31.9574 20.3047 31.9711 20.2876 31.9917C20.2705 32.0123 20.2614 32.0384 20.262 32.0651C20.262 32.0872 20.2685 32.1088 20.2808 32.1272C20.2931 32.1456 20.3105 32.16 20.3309 32.1685C20.3513 32.177 20.3738 32.1793 20.3955 32.175C20.4172 32.1708 20.4371 32.1602 20.4528 32.1446C20.4685 32.1291 20.4793 32.1092 20.4837 32.0876C20.4882 32.0659 20.4861 32.0434 20.4778 32.0229C20.4694 32.0024 20.4552 31.9849 20.4369 31.9725C20.4187 31.96 20.3971 31.9533 20.375 31.9531H20.355ZM27.605 31.9531C27.5786 31.9574 27.5547 31.9711 27.5376 31.9917C27.5205 32.0123 27.5114 32.0384 27.512 32.0651C27.512 32.0872 27.5185 32.1088 27.5308 32.1272C27.5431 32.1456 27.5605 32.16 27.5809 32.1685C27.6013 32.177 27.6238 32.1793 27.6455 32.175C27.6672 32.1708 27.6871 32.1602 27.7028 32.1446C27.7185 32.1291 27.7293 32.1092 27.7337 32.0876C27.7382 32.0659 27.7361 32.0434 27.7278 32.0229C27.7194 32.0024 27.7052 31.9849 27.6869 31.9725C27.6687 31.96 27.6471 31.9533 27.625 31.9531H27.605ZM16.619 32.0431C16.4056 32.0378 16.1933 32.0752 15.9945 32.1532C15.7958 32.2312 15.6147 32.3481 15.4619 32.4972C15.309 32.6462 15.1876 32.8244 15.1047 33.0211C15.0217 33.2178 14.979 33.4291 14.979 33.6426C14.979 33.8561 15.0217 34.0674 15.1047 34.2641C15.1876 34.4608 15.309 34.639 15.4619 34.788C15.6147 34.9371 15.7958 35.054 15.9945 35.132C16.1933 35.21 16.4056 35.2474 16.619 35.2421C17.0363 35.2317 17.433 35.0586 17.7244 34.7597C18.0159 34.4609 18.179 34.06 18.179 33.6426C18.179 33.2252 18.0159 32.8243 17.7244 32.5255C17.433 32.2266 17.0363 32.0535 16.619 32.0431ZM23.955 32.0431C23.7416 32.0378 23.5293 32.0752 23.3305 32.1532C23.1318 32.2312 22.9507 32.3481 22.7979 32.4972C22.645 32.6462 22.5236 32.8244 22.4407 33.0211C22.3577 33.2178 22.315 33.4291 22.315 33.6426C22.315 33.8561 22.3577 34.0674 22.4407 34.2641C22.5236 34.4608 22.645 34.639 22.7979 34.788C22.9507 34.9371 23.1318 35.054 23.3305 35.132C23.5293 35.21 23.7416 35.2474 23.955 35.2421C24.3723 35.2317 24.769 35.0586 25.0604 34.7597C25.3519 34.4609 25.515 34.06 25.515 33.6426C25.515 33.2252 25.3519 32.8243 25.0604 32.5255C24.769 32.2266 24.3723 32.0535 23.955 32.0431ZM31.293 32.0431C31.0796 32.0378 30.8673 32.0752 30.6685 32.1532C30.4698 32.2312 30.2887 32.3481 30.1359 32.4972C29.983 32.6462 29.8616 32.8244 29.7787 33.0211C29.6957 33.2178 29.653 33.4291 29.653 33.6426C29.653 33.8561 29.6957 34.0674 29.7787 34.2641C29.8616 34.4608 29.983 34.639 30.1359 34.788C30.2887 34.9371 30.4698 35.054 30.6685 35.132C30.8673 35.21 31.0796 35.2474 31.293 35.2421C31.7103 35.2317 32.107 35.0586 32.3984 34.7597C32.6899 34.4609 32.853 34.06 32.853 33.6426C32.853 33.2252 32.6899 32.8243 32.3984 32.5255C32.107 32.2266 31.7103 32.0535 31.293 32.0431ZM20.355 32.5161C20.3339 32.5195 20.3143 32.5289 20.2983 32.5432C20.2824 32.5574 20.2709 32.5759 20.2651 32.5965C20.2594 32.6171 20.2596 32.6389 20.2659 32.6593C20.2721 32.6797 20.284 32.698 20.3003 32.7118C20.3165 32.7257 20.3364 32.7346 20.3576 32.7376C20.3787 32.7405 20.4003 32.7374 20.4197 32.7285C20.4391 32.7195 20.4556 32.7053 20.4671 32.6873C20.4787 32.6694 20.4849 32.6485 20.485 32.6271C20.4847 32.5979 20.4731 32.57 20.4526 32.5492C20.432 32.5285 20.4042 32.5166 20.375 32.5161H20.355ZM27.605 32.5161C27.5839 32.5195 27.5643 32.5289 27.5483 32.5432C27.5324 32.5574 27.5209 32.5759 27.5151 32.5965C27.5094 32.6171 27.5096 32.6389 27.5159 32.6593C27.5221 32.6797 27.534 32.698 27.5503 32.7118C27.5665 32.7257 27.5864 32.7346 27.6076 32.7376C27.6287 32.7405 27.6503 32.7374 27.6697 32.7285C27.6891 32.7195 27.7056 32.7053 27.7171 32.6873C27.7287 32.6694 27.7349 32.6485 27.735 32.6271C27.7347 32.5979 27.7231 32.57 27.7026 32.5492C27.682 32.5285 27.6542 32.5166 27.625 32.5161H27.605ZM20.377 33.0761C20.362 33.0762 20.3472 33.0793 20.3335 33.0852C20.3197 33.091 20.3072 33.0995 20.2967 33.1102C20.2862 33.1209 20.2779 33.1335 20.2723 33.1474C20.2667 33.1613 20.2639 33.1761 20.264 33.1911C20.264 33.2531 20.314 33.3011 20.377 33.3011C20.3915 33.3012 20.4059 33.2985 20.4194 33.293C20.4329 33.2875 20.4451 33.2795 20.4554 33.2692C20.4657 33.259 20.4739 33.2468 20.4795 33.2334C20.4851 33.22 20.488 33.2056 20.488 33.1911C20.4883 33.1612 20.4768 33.1324 20.456 33.1109C20.4353 33.0894 20.4069 33.0769 20.377 33.0761ZM27.627 33.0761C27.612 33.0762 27.5972 33.0793 27.5835 33.0852C27.5697 33.091 27.5572 33.0995 27.5467 33.1102C27.5362 33.1209 27.5279 33.1335 27.5223 33.1474C27.5167 33.1613 27.5139 33.1761 27.514 33.1911C27.514 33.2531 27.564 33.3011 27.627 33.3011C27.6415 33.3012 27.6559 33.2985 27.6694 33.293C27.6829 33.2875 27.6951 33.2795 27.7054 33.2692C27.7157 33.259 27.7239 33.2468 27.7295 33.2334C27.7351 33.22 27.738 33.2056 27.738 33.1911C27.7383 33.1612 27.7268 33.1324 27.706 33.1109C27.6853 33.0894 27.6569 33.0769 27.627 33.0761ZM20.367 33.6391C20.3373 33.6402 20.3092 33.653 20.289 33.6747C20.2687 33.6965 20.2579 33.7254 20.259 33.7551C20.2601 33.7848 20.2729 33.8129 20.2946 33.8331C20.3164 33.8534 20.3453 33.8642 20.375 33.8631C20.3898 33.8626 20.4043 33.8591 20.4177 33.853C20.4312 33.8469 20.4433 33.8381 20.4534 33.8273C20.4635 33.8165 20.4713 33.8038 20.4765 33.79C20.4816 33.7761 20.484 33.7614 20.4835 33.7466C20.483 33.7318 20.4795 33.7173 20.4734 33.7039C20.4673 33.6904 20.4585 33.6783 20.4477 33.6682C20.4369 33.6581 20.4242 33.6503 20.4104 33.6451C20.3965 33.64 20.3818 33.6376 20.367 33.6381V33.6391ZM27.617 33.6391C27.5873 33.6402 27.5592 33.653 27.539 33.6747C27.5187 33.6965 27.5079 33.7254 27.509 33.7551C27.5101 33.7848 27.5229 33.8129 27.5446 33.8331C27.5664 33.8534 27.5953 33.8642 27.625 33.8631C27.6398 33.8626 27.6543 33.8591 27.6677 33.853C27.6812 33.8469 27.6933 33.8381 27.7034 33.8273C27.7135 33.8165 27.7213 33.8038 27.7265 33.79C27.7316 33.7761 27.734 33.7614 27.7335 33.7466C27.733 33.7318 27.7295 33.7173 27.7234 33.7039C27.7173 33.6904 27.7085 33.6783 27.6977 33.6682C27.6869 33.6581 27.6742 33.6503 27.6604 33.6451C27.6465 33.64 27.6318 33.6376 27.617 33.6381V33.6391ZM20.367 34.2011C20.3523 34.202 20.3379 34.2058 20.3247 34.2123C20.3114 34.2188 20.2996 34.2278 20.2899 34.2389C20.2801 34.2499 20.2726 34.2628 20.2678 34.2767C20.2631 34.2906 20.2611 34.3054 20.262 34.3201C20.2629 34.3348 20.2667 34.3492 20.2732 34.3624C20.2797 34.3757 20.2887 34.3875 20.2998 34.3972C20.3108 34.407 20.3237 34.4145 20.3376 34.4193C20.3515 34.424 20.3663 34.426 20.381 34.4251C20.4107 34.4232 20.4385 34.4097 20.4581 34.3873C20.4778 34.365 20.4879 34.3358 20.486 34.3061C20.4841 34.2764 20.4706 34.2486 20.4482 34.229C20.4259 34.2093 20.3967 34.1992 20.367 34.2011ZM27.617 34.2011C27.6023 34.202 27.5879 34.2058 27.5747 34.2123C27.5614 34.2188 27.5496 34.2278 27.5399 34.2389C27.5301 34.2499 27.5226 34.2628 27.5178 34.2767C27.5131 34.2906 27.5111 34.3054 27.512 34.3201C27.5129 34.3348 27.5167 34.3492 27.5232 34.3624C27.5297 34.3757 27.5387 34.3875 27.5498 34.3972C27.5608 34.407 27.5737 34.4145 27.5876 34.4193C27.6015 34.424 27.6163 34.426 27.631 34.4251C27.6607 34.4232 27.6885 34.4097 27.7081 34.3873C27.7278 34.365 27.7379 34.3358 27.736 34.3061C27.7341 34.2764 27.7206 34.2486 27.6982 34.229C27.6759 34.2093 27.6467 34.1992 27.617 34.2011ZM20.367 34.7641C20.3373 34.766 20.3095 34.7795 20.2899 34.8019C20.2702 34.8242 20.2601 34.8534 20.262 34.8831C20.2639 34.9128 20.2774 34.9406 20.2998 34.9602C20.3221 34.9799 20.3513 34.99 20.381 34.9881C20.3957 34.9872 20.4101 34.9834 20.4233 34.9769C20.4366 34.9704 20.4484 34.9614 20.4581 34.9503C20.4679 34.9393 20.4754 34.9264 20.4802 34.9125C20.4849 34.8986 20.4869 34.8838 20.486 34.8691C20.4851 34.8544 20.4813 34.84 20.4748 34.8268C20.4683 34.8135 20.4593 34.8017 20.4482 34.792C20.4372 34.7822 20.4243 34.7747 20.4104 34.77C20.3965 34.7652 20.3817 34.7632 20.367 34.7641ZM27.617 34.7641C27.5873 34.766 27.5595 34.7795 27.5399 34.8019C27.5202 34.8242 27.5101 34.8534 27.512 34.8831C27.5139 34.9128 27.5274 34.9406 27.5498 34.9602C27.5721 34.9799 27.6013 34.99 27.631 34.9881C27.6457 34.9872 27.6601 34.9834 27.6733 34.9769C27.6866 34.9704 27.6984 34.9614 27.7081 34.9503C27.7179 34.9393 27.7254 34.9264 27.7302 34.9125C27.7349 34.8986 27.7369 34.8838 27.736 34.8691C27.7351 34.8544 27.7313 34.84 27.7248 34.8268C27.7183 34.8135 27.7093 34.8017 27.6982 34.792C27.6872 34.7822 27.6743 34.7747 27.6604 34.77C27.6465 34.7652 27.6317 34.7632 27.617 34.7641ZM20.367 35.3261C20.3523 35.327 20.3379 35.3308 20.3247 35.3373C20.3114 35.3438 20.2996 35.3528 20.2899 35.3639C20.2801 35.3749 20.2726 35.3878 20.2678 35.4017C20.2631 35.4156 20.2611 35.4304 20.262 35.4451C20.2629 35.4598 20.2667 35.4742 20.2732 35.4874C20.2797 35.5007 20.2887 35.5125 20.2998 35.5222C20.3108 35.532 20.3237 35.5395 20.3376 35.5443C20.3515 35.549 20.3663 35.551 20.381 35.5501C20.4107 35.5482 20.4385 35.5347 20.4581 35.5123C20.4778 35.49 20.4879 35.4608 20.486 35.4311C20.4841 35.4014 20.4706 35.3736 20.4482 35.354C20.4259 35.3343 20.3967 35.3242 20.367 35.3261ZM27.617 35.3261C27.6023 35.327 27.5879 35.3308 27.5747 35.3373C27.5614 35.3438 27.5496 35.3528 27.5399 35.3639C27.5301 35.3749 27.5226 35.3878 27.5178 35.4017C27.5131 35.4156 27.5111 35.4304 27.512 35.4451C27.5129 35.4598 27.5167 35.4742 27.5232 35.4874C27.5297 35.5007 27.5387 35.5125 27.5498 35.5222C27.5608 35.532 27.5737 35.5395 27.5876 35.5443C27.6015 35.549 27.6163 35.551 27.631 35.5501C27.6607 35.5482 27.6885 35.5347 27.7081 35.5123C27.7278 35.49 27.7379 35.4608 27.736 35.4311C27.7341 35.4014 27.7206 35.3736 27.6982 35.354C27.6759 35.3343 27.6467 35.3242 27.617 35.3261ZM16.699 35.8811C16.2748 35.8803 15.8677 36.048 15.5671 36.3473C15.2665 36.6465 15.0971 37.0529 15.096 37.4771C15.096 38.3571 15.813 39.0701 16.699 39.0701C17.1232 39.0717 17.5306 38.9048 17.8318 38.6061C18.1329 38.3074 18.3031 37.9013 18.305 37.4771C18.305 36.5971 17.585 35.8811 16.699 35.8811ZM24.035 35.8811C23.6108 35.8803 23.2037 36.048 22.9031 36.3473C22.6025 36.6465 22.4331 37.0529 22.432 37.4771C22.432 38.3571 23.149 39.0701 24.035 39.0701C24.4592 39.0717 24.8666 38.9048 25.1678 38.6061C25.4689 38.3074 25.6391 37.9013 25.641 37.4771C25.641 36.5971 24.921 35.8811 24.035 35.8811ZM31.373 35.8811C31.1629 35.8806 30.9547 35.9214 30.7604 36.0014C30.5661 36.0813 30.3894 36.1987 30.2405 36.3469C30.0915 36.4951 29.9732 36.6712 29.8923 36.8651C29.8114 37.059 29.7695 37.267 29.769 37.4771C29.769 38.3571 30.487 39.0701 31.373 39.0701C31.797 39.0714 32.2042 38.9044 32.5051 38.6057C32.8061 38.307 32.9761 37.9011 32.978 37.4771C32.978 36.5971 32.258 35.8811 31.373 35.8811ZM20.367 35.8891C20.3523 35.89 20.3379 35.8938 20.3247 35.9003C20.3114 35.9068 20.2996 35.9158 20.2899 35.9269C20.2801 35.9379 20.2726 35.9508 20.2678 35.9647C20.2631 35.9786 20.2611 35.9934 20.262 36.0081C20.2629 36.0228 20.2667 36.0372 20.2732 36.0504C20.2797 36.0637 20.2887 36.0755 20.2998 36.0852C20.3108 36.095 20.3237 36.1025 20.3376 36.1073C20.3515 36.112 20.3663 36.114 20.381 36.1131C20.4107 36.1112 20.4385 36.0977 20.4581 36.0753C20.4778 36.053 20.4879 36.0238 20.486 35.9941C20.4841 35.9644 20.4706 35.9366 20.4482 35.917C20.4259 35.8973 20.3967 35.8872 20.367 35.8891ZM27.617 35.8891C27.6023 35.89 27.5879 35.8938 27.5747 35.9003C27.5614 35.9068 27.5496 35.9158 27.5399 35.9269C27.5301 35.9379 27.5226 35.9508 27.5178 35.9647C27.5131 35.9786 27.5111 35.9934 27.512 36.0081C27.5129 36.0228 27.5167 36.0372 27.5232 36.0504C27.5297 36.0637 27.5387 36.0755 27.5498 36.0852C27.5608 36.095 27.5737 36.1025 27.5876 36.1073C27.6015 36.112 27.6163 36.114 27.631 36.1131C27.6607 36.1112 27.6885 36.0977 27.7081 36.0753C27.7278 36.053 27.7379 36.0238 27.736 35.9941C27.7341 35.9644 27.7206 35.9366 27.6982 35.917C27.6759 35.8973 27.6467 35.8872 27.617 35.8891ZM20.367 36.4511C20.3522 36.452 20.3378 36.4558 20.3245 36.4623C20.3112 36.4688 20.2993 36.4779 20.2895 36.489C20.2797 36.5001 20.2722 36.513 20.2674 36.527C20.2626 36.541 20.2606 36.5558 20.2615 36.5706C20.2624 36.5854 20.2662 36.5998 20.2727 36.6131C20.2792 36.6264 20.2883 36.6383 20.2994 36.6481C20.3105 36.6579 20.3234 36.6654 20.3374 36.6702C20.3514 36.675 20.3662 36.677 20.381 36.6761C20.4108 36.6742 20.4387 36.6606 20.4585 36.6382C20.4783 36.6158 20.4884 36.5864 20.4865 36.5566C20.4846 36.5268 20.471 36.4989 20.4486 36.4791C20.4262 36.4593 20.3968 36.4492 20.367 36.4511ZM27.617 36.4511C27.5872 36.453 27.5593 36.4666 27.5395 36.489C27.5197 36.5114 27.5096 36.5408 27.5115 36.5706C27.5134 36.6004 27.527 36.6283 27.5494 36.6481C27.5718 36.6679 27.6012 36.678 27.631 36.6761C27.6458 36.6752 27.6602 36.6714 27.6735 36.6649C27.6868 36.6584 27.6987 36.6493 27.7085 36.6382C27.7183 36.6271 27.7258 36.6142 27.7306 36.6002C27.7354 36.5862 27.7374 36.5714 27.7365 36.5566C27.7356 36.5418 27.7318 36.5274 27.7253 36.5141C27.7188 36.5008 27.7097 36.4889 27.6986 36.4791C27.6875 36.4693 27.6746 36.4618 27.6606 36.457C27.6466 36.4522 27.6318 36.4502 27.617 36.4511ZM20.355 37.0141C20.3288 37.0184 20.305 37.032 20.2879 37.0523C20.2708 37.0727 20.2616 37.0985 20.262 37.1251C20.262 37.1871 20.312 37.2371 20.375 37.2361C20.436 37.2361 20.485 37.1861 20.486 37.1251C20.486 37.0641 20.436 37.0151 20.375 37.0141H20.355ZM27.605 37.0141C27.5788 37.0184 27.555 37.032 27.5379 37.0523C27.5208 37.0727 27.5116 37.0985 27.512 37.1251C27.512 37.1871 27.562 37.2371 27.625 37.2361C27.686 37.2361 27.735 37.1861 27.736 37.1251C27.736 37.0641 27.686 37.0151 27.625 37.0141H27.605ZM20.367 37.5741C20.3377 37.5752 20.3099 37.5877 20.2897 37.609C20.2695 37.6303 20.2585 37.6587 20.259 37.688C20.2595 37.7174 20.2716 37.7454 20.2925 37.7659C20.3135 37.7865 20.3416 37.798 20.371 37.798C20.4004 37.798 20.4285 37.7865 20.4495 37.7659C20.4704 37.7454 20.4825 37.7174 20.483 37.688C20.4835 37.6587 20.4725 37.6303 20.4523 37.609C20.4321 37.5877 20.4043 37.5752 20.375 37.5741H20.367ZM27.617 37.5741C27.5877 37.5752 27.5599 37.5877 27.5397 37.609C27.5195 37.6303 27.5085 37.6587 27.509 37.688C27.5095 37.7174 27.5216 37.7454 27.5425 37.7659C27.5635 37.7865 27.5916 37.798 27.621 37.798C27.6504 37.798 27.6785 37.7865 27.6995 37.7659C27.7204 37.7454 27.7325 37.7174 27.733 37.688C27.7335 37.6587 27.7225 37.6303 27.7023 37.609C27.6821 37.5877 27.6543 37.5752 27.625 37.5741H27.617ZM20.367 38.1371C20.3384 38.1389 20.3115 38.1516 20.2919 38.1726C20.2724 38.1937 20.2617 38.2214 20.262 38.2501C20.262 38.3121 20.312 38.3621 20.375 38.3611C20.4047 38.3611 20.4332 38.3493 20.4542 38.3283C20.4752 38.3073 20.487 38.2788 20.487 38.2491C20.487 38.2194 20.4752 38.1909 20.4542 38.1699C20.4332 38.1489 20.4047 38.1371 20.375 38.1371C20.3723 38.137 20.3697 38.137 20.367 38.1371ZM27.617 38.1371C27.5884 38.1389 27.5615 38.1516 27.5419 38.1726C27.5224 38.1937 27.5117 38.2214 27.512 38.2501C27.512 38.3121 27.562 38.3621 27.625 38.3611C27.6547 38.3611 27.6832 38.3493 27.7042 38.3283C27.7252 38.3073 27.737 38.2788 27.737 38.2491C27.737 38.2194 27.7252 38.1909 27.7042 38.1699C27.6832 38.1489 27.6547 38.1371 27.625 38.1371C27.6223 38.137 27.6197 38.137 27.617 38.1371ZM20.367 38.6991C20.3523 38.7 20.3379 38.7038 20.3247 38.7103C20.3114 38.7168 20.2996 38.7258 20.2899 38.7369C20.2801 38.7479 20.2726 38.7608 20.2678 38.7747C20.2631 38.7886 20.2611 38.8034 20.262 38.8181C20.2629 38.8328 20.2667 38.8472 20.2732 38.8604C20.2797 38.8737 20.2887 38.8855 20.2998 38.8952C20.3108 38.905 20.3237 38.9125 20.3376 38.9173C20.3515 38.922 20.3663 38.924 20.381 38.9231C20.4107 38.9212 20.4385 38.9077 20.4581 38.8853C20.4778 38.863 20.4879 38.8338 20.486 38.8041C20.4841 38.7744 20.4706 38.7466 20.4482 38.727C20.4259 38.7073 20.3967 38.6972 20.367 38.6991ZM27.617 38.6991C27.6023 38.7 27.5879 38.7038 27.5747 38.7103C27.5614 38.7168 27.5496 38.7258 27.5399 38.7369C27.5301 38.7479 27.5226 38.7608 27.5178 38.7747C27.5131 38.7886 27.5111 38.8034 27.512 38.8181C27.5129 38.8328 27.5167 38.8472 27.5232 38.8604C27.5297 38.8737 27.5387 38.8855 27.5498 38.8952C27.5608 38.905 27.5737 38.9125 27.5876 38.9173C27.6015 38.922 27.6163 38.924 27.631 38.9231C27.6607 38.9212 27.6885 38.9077 27.7081 38.8853C27.7278 38.863 27.7379 38.8338 27.736 38.8041C27.7341 38.7744 27.7206 38.7466 27.6982 38.727C27.6759 38.7073 27.6467 38.6972 27.617 38.6991ZM20.367 39.2621C20.3377 39.2632 20.3099 39.2757 20.2897 39.297C20.2695 39.3183 20.2585 39.3467 20.259 39.376C20.2595 39.4054 20.2716 39.4334 20.2925 39.4539C20.3135 39.4745 20.3416 39.486 20.371 39.486C20.4004 39.486 20.4285 39.4745 20.4495 39.4539C20.4704 39.4334 20.4825 39.4054 20.483 39.376C20.4835 39.3467 20.4725 39.3183 20.4523 39.297C20.4321 39.2757 20.4043 39.2632 20.375 39.2621C20.3723 39.262 20.3697 39.262 20.367 39.2621ZM27.617 39.2621C27.5877 39.2632 27.5599 39.2757 27.5397 39.297C27.5195 39.3183 27.5085 39.3467 27.509 39.376C27.5095 39.4054 27.5216 39.4334 27.5425 39.4539C27.5635 39.4745 27.5916 39.486 27.621 39.486C27.6504 39.486 27.6785 39.4745 27.6995 39.4539C27.7204 39.4334 27.7325 39.4054 27.733 39.376C27.7335 39.3467 27.7225 39.3183 27.7023 39.297C27.6821 39.2757 27.6543 39.2632 27.625 39.2621C27.6223 39.262 27.6197 39.262 27.617 39.2621ZM16.7 39.6301C16.2758 39.6293 15.8687 39.797 15.5681 40.0963C15.2675 40.3955 15.0981 40.8019 15.097 41.2261C15.097 42.1061 15.814 42.8191 16.7 42.8191C17.1242 42.8207 17.5316 42.6538 17.8328 42.3551C18.1339 42.0564 18.3041 41.6503 18.306 41.2261C18.306 40.3461 17.586 39.6301 16.7 39.6301ZM24.036 39.6301C23.6118 39.6293 23.2047 39.797 22.9041 40.0963C22.6035 40.3955 22.4341 40.8019 22.433 41.2261C22.433 42.1061 23.15 42.8191 24.036 42.8191C24.4602 42.8207 24.8676 42.6538 25.1688 42.3551C25.4699 42.0564 25.6401 41.6503 25.642 41.2261C25.642 40.3461 24.922 39.6301 24.036 39.6301ZM31.374 39.6301C31.1639 39.6296 30.9557 39.6704 30.7614 39.7504C30.5671 39.8303 30.3904 39.9477 30.2415 40.0959C30.0925 40.2441 29.9742 40.4202 29.8933 40.6141C29.8124 40.808 29.7705 41.016 29.77 41.2261C29.77 42.1061 30.488 42.8191 31.374 42.8191C31.798 42.8204 32.2052 42.6534 32.5061 42.3547C32.8071 42.056 32.9771 41.6501 32.979 41.2261C32.979 40.3461 32.259 39.6301 31.374 39.6301ZM20.368 39.8231C20.3533 39.824 20.3389 39.8278 20.3257 39.8343C20.3124 39.8408 20.3006 39.8498 20.2909 39.8609C20.2811 39.8719 20.2736 39.8848 20.2688 39.8987C20.2641 39.9126 20.2621 39.9274 20.263 39.9421C20.2639 39.9568 20.2677 39.9712 20.2742 39.9844C20.2807 39.9977 20.2897 40.0095 20.3008 40.0192C20.3118 40.029 20.3247 40.0365 20.3386 40.0413C20.3525 40.046 20.3673 40.048 20.382 40.0471C20.4117 40.0452 20.4395 40.0317 20.4591 40.0093C20.4788 39.987 20.4889 39.9578 20.487 39.9281C20.4851 39.8984 20.4716 39.8706 20.4492 39.851C20.4269 39.8313 20.3977 39.8212 20.368 39.8231ZM27.618 39.8231C27.6033 39.824 27.5889 39.8278 27.5757 39.8343C27.5624 39.8408 27.5506 39.8498 27.5409 39.8609C27.5311 39.8719 27.5236 39.8848 27.5188 39.8987C27.5141 39.9126 27.5121 39.9274 27.513 39.9421C27.5139 39.9568 27.5177 39.9712 27.5242 39.9844C27.5307 39.9977 27.5397 40.0095 27.5508 40.0192C27.5618 40.029 27.5747 40.0365 27.5886 40.0413C27.6025 40.046 27.6173 40.048 27.632 40.0471C27.6617 40.0452 27.6895 40.0317 27.7091 40.0093C27.7288 39.987 27.7389 39.9578 27.737 39.9281C27.7351 39.8984 27.7216 39.8706 27.6992 39.851C27.6769 39.8313 27.6477 39.8212 27.618 39.8231ZM20.368 40.3861C20.3521 40.3852 20.3361 40.3877 20.3212 40.3935C20.3063 40.3992 20.2928 40.408 20.2816 40.4193C20.2703 40.4306 20.2616 40.4442 20.256 40.4592C20.2504 40.4741 20.248 40.4901 20.249 40.506C20.25 40.5219 20.2543 40.5374 20.2618 40.5516C20.2692 40.5657 20.2795 40.5781 20.2921 40.5879C20.3047 40.5978 20.3192 40.6048 20.3347 40.6086C20.3502 40.6125 20.3663 40.613 20.382 40.6101C20.4092 40.6051 20.4337 40.5904 20.4507 40.5686C20.4678 40.5468 20.4763 40.5195 20.4745 40.4919C20.4728 40.4643 20.461 40.4382 20.4414 40.4187C20.4217 40.3992 20.3956 40.3876 20.368 40.3861ZM27.618 40.3861C27.6021 40.3852 27.5861 40.3877 27.5712 40.3935C27.5563 40.3992 27.5428 40.408 27.5316 40.4193C27.5203 40.4306 27.5116 40.4442 27.506 40.4592C27.5004 40.4741 27.498 40.4901 27.499 40.506C27.5 40.5219 27.5043 40.5374 27.5118 40.5516C27.5192 40.5657 27.5295 40.5781 27.5421 40.5879C27.5547 40.5978 27.5692 40.6048 27.5847 40.6086C27.6002 40.6125 27.6163 40.613 27.632 40.6101C27.6592 40.6051 27.6837 40.5904 27.7007 40.5686C27.7178 40.5468 27.7263 40.5195 27.7245 40.4919C27.7228 40.4643 27.711 40.4382 27.6914 40.4187C27.6717 40.3992 27.6456 40.3876 27.618 40.3861ZM20.356 40.9481C20.3298 40.9524 20.306 40.966 20.2889 40.9863C20.2718 41.0067 20.2626 41.0325 20.263 41.0591C20.2626 41.0813 20.2688 41.1031 20.2808 41.1218C20.2929 41.1404 20.3101 41.1551 20.3305 41.1639C20.3509 41.1727 20.3734 41.1753 20.3952 41.1713C20.4171 41.1672 20.4372 41.1568 20.4531 41.1414C20.469 41.1259 20.48 41.106 20.4846 41.0843C20.4892 41.0626 20.4872 41.04 20.4789 41.0194C20.4707 40.9988 20.4565 40.9811 20.4382 40.9686C20.4198 40.9561 20.3982 40.9493 20.376 40.9491H20.355L20.356 40.9481ZM27.606 40.9481C27.5798 40.9524 27.556 40.966 27.5389 40.9863C27.5218 41.0067 27.5126 41.0325 27.513 41.0591C27.5126 41.0813 27.5188 41.1031 27.5308 41.1218C27.5429 41.1404 27.5601 41.1551 27.5805 41.1639C27.6009 41.1727 27.6234 41.1753 27.6452 41.1713C27.6671 41.1672 27.6872 41.1568 27.7031 41.1414C27.719 41.1259 27.73 41.106 27.7346 41.0843C27.7392 41.0626 27.7372 41.04 27.7289 41.0194C27.7207 40.9988 27.7065 40.9811 27.6882 40.9686C27.6698 40.9561 27.6482 40.9493 27.626 40.9491H27.605L27.606 40.9481ZM20.356 41.5111C20.3349 41.5145 20.3153 41.5239 20.2993 41.5382C20.2834 41.5524 20.2719 41.5709 20.2661 41.5915C20.2604 41.6121 20.2606 41.6339 20.2669 41.6543C20.2731 41.6747 20.285 41.693 20.3013 41.7068C20.3175 41.7207 20.3374 41.7296 20.3586 41.7326C20.3797 41.7355 20.4013 41.7324 20.4207 41.7234C20.4401 41.7145 20.4566 41.7003 20.4681 41.6823C20.4797 41.6644 20.4859 41.6435 20.486 41.6221C20.486 41.5611 20.437 41.5121 20.376 41.5111H20.355H20.356ZM27.606 41.5111C27.5849 41.5145 27.5653 41.5239 27.5493 41.5382C27.5334 41.5524 27.5219 41.5709 27.5161 41.5915C27.5104 41.6121 27.5106 41.6339 27.5169 41.6543C27.5231 41.6747 27.535 41.693 27.5513 41.7068C27.5675 41.7207 27.5874 41.7296 27.6086 41.7326C27.6297 41.7355 27.6513 41.7324 27.6707 41.7234C27.6901 41.7145 27.7066 41.7003 27.7181 41.6823C27.7297 41.6644 27.7359 41.6435 27.736 41.6221C27.736 41.5611 27.687 41.5121 27.626 41.5111H27.605H27.606ZM20.378 42.0711C20.3632 42.071 20.3486 42.0738 20.3349 42.0793C20.3212 42.0848 20.3087 42.093 20.2982 42.1033C20.2769 42.1243 20.2648 42.1528 20.2645 42.1826C20.2642 42.2124 20.2758 42.2412 20.2967 42.2624C20.3177 42.2837 20.3462 42.2958 20.376 42.2961C20.4058 42.2964 20.4346 42.2848 20.4558 42.2639C20.4771 42.2429 20.4892 42.2144 20.4895 42.1846C20.4898 42.1548 20.4782 42.126 20.4573 42.1048C20.4363 42.0835 20.4078 42.0714 20.378 42.0711ZM27.628 42.0711C27.6132 42.071 27.5986 42.0738 27.5849 42.0793C27.5712 42.0848 27.5587 42.093 27.5482 42.1033C27.5376 42.1137 27.5292 42.126 27.5234 42.1396C27.5177 42.1532 27.5146 42.1678 27.5145 42.1826C27.5144 42.1974 27.5171 42.212 27.5227 42.2257C27.5282 42.2394 27.5364 42.2519 27.5467 42.2624C27.5571 42.273 27.5694 42.2814 27.583 42.2872C27.5966 42.2929 27.6112 42.296 27.626 42.2961C27.6558 42.2964 27.6846 42.2848 27.7058 42.2639C27.7271 42.2429 27.7392 42.2144 27.7395 42.1846C27.7398 42.1548 27.7282 42.126 27.7073 42.1048C27.6863 42.0835 27.6578 42.0714 27.628 42.0711ZM20.368 42.6341C20.3387 42.6352 20.3109 42.6477 20.2907 42.669C20.2705 42.6903 20.2595 42.7187 20.26 42.748C20.2605 42.7774 20.2726 42.8054 20.2935 42.8259C20.3145 42.8465 20.3426 42.858 20.372 42.858C20.4014 42.858 20.4295 42.8465 20.4505 42.8259C20.4714 42.8054 20.4835 42.7774 20.484 42.748C20.4845 42.7187 20.4735 42.6903 20.4533 42.669C20.4331 42.6477 20.4053 42.6352 20.376 42.6341C20.3733 42.6339 20.3707 42.6339 20.368 42.6341ZM27.618 42.6341C27.5887 42.6352 27.5609 42.6477 27.5407 42.669C27.5205 42.6903 27.5095 42.7187 27.51 42.748C27.5105 42.7774 27.5226 42.8054 27.5435 42.8259C27.5645 42.8465 27.5926 42.858 27.622 42.858C27.6514 42.858 27.6795 42.8465 27.7005 42.8259C27.7214 42.8054 27.7335 42.7774 27.734 42.748C27.7345 42.7187 27.7235 42.6903 27.7033 42.669C27.6831 42.6477 27.6553 42.6352 27.626 42.6341C27.6233 42.6339 27.6207 42.6339 27.618 42.6341Z" fill="#333333"/>
</svg>
