<svg width="48" height="48" viewBox="0 0 48 48" fill="none" xmlns="http://www.w3.org/2000/svg">
<path fill-rule="evenodd" clip-rule="evenodd" d="M0 48V0H48V48H0ZM33.85 44C34.72 44 35.42 43.3 35.42 42.43V5.57C35.42 4.7 34.72 4 33.85 4H14.15C13.28 4 12.58 4.7 12.58 5.57V42.43C12.58 43.3 13.28 44 14.15 44H33.85ZM19.35 10.76L17.53 12.59C17.3523 12.7677 17.1113 12.8675 16.86 12.8675C16.6087 12.8675 16.3677 12.7677 16.19 12.59C16.0123 12.4123 15.9125 12.1713 15.9125 11.92C15.9125 11.6687 16.0123 11.4277 16.19 11.25L18.02 9.42C18.1977 9.24363 18.4382 9.14507 18.6885 9.14601C18.9389 9.14695 19.1786 9.24731 19.355 9.425C19.5314 9.6027 19.6299 9.84317 19.629 10.0935C19.6281 10.3439 19.5277 10.5836 19.35 10.76ZM13.62 14.15C13.6492 14.15 13.6772 14.1384 13.6978 14.1178C13.7184 14.0972 13.73 14.0692 13.73 14.04C13.73 14.0108 13.7184 13.9828 13.6978 13.9622C13.6772 13.9416 13.6492 13.93 13.62 13.93C13.5908 13.93 13.5628 13.9416 13.5422 13.9622C13.5216 13.9828 13.51 14.0108 13.51 14.04C13.51 14.0692 13.5216 14.0972 13.5422 14.1178C13.5628 14.1384 13.5908 14.15 13.62 14.15V14.15ZM14.29 14.04C14.29 14.0544 14.2872 14.0687 14.2816 14.0821C14.2761 14.0954 14.268 14.1076 14.2578 14.1178C14.2476 14.128 14.2354 14.1361 14.2221 14.1416C14.2087 14.1472 14.1944 14.15 14.18 14.15C14.1656 14.15 14.1513 14.1472 14.1379 14.1416C14.1246 14.1361 14.1124 14.128 14.1022 14.1178C14.092 14.1076 14.0839 14.0954 14.0784 14.0821C14.0728 14.0687 14.07 14.0544 14.07 14.04C14.07 14.0108 14.0816 13.9828 14.1022 13.9622C14.1228 13.9416 14.1508 13.93 14.18 13.93C14.2092 13.93 14.2372 13.9416 14.2578 13.9622C14.2784 13.9828 14.29 14.0108 14.29 14.04V14.04ZM14.85 14.04C14.85 14.0692 14.8384 14.0972 14.8178 14.1178C14.7972 14.1384 14.7692 14.15 14.74 14.15C14.7108 14.15 14.6828 14.1384 14.6622 14.1178C14.6416 14.0972 14.63 14.0692 14.63 14.04C14.63 14.0108 14.6416 13.9828 14.6622 13.9622C14.6828 13.9416 14.7108 13.93 14.74 13.93C14.7692 13.93 14.7972 13.9416 14.8178 13.9622C14.8384 13.9828 14.85 14.0108 14.85 14.04ZM15.41 14.04C15.41 14.0678 15.3989 14.0946 15.3792 14.1142C15.3596 14.1339 15.3328 14.145 15.305 14.145C15.2772 14.145 15.2504 14.1339 15.2308 14.1142C15.2111 14.0946 15.2 14.0678 15.2 14.04C15.2 14.0122 15.2111 13.9854 15.2308 13.9658C15.2504 13.9461 15.2772 13.935 15.305 13.935C15.3328 13.935 15.3596 13.9461 15.3792 13.9658C15.3989 13.9854 15.41 14.0122 15.41 14.04V14.04ZM15.97 14.04C15.97 14.0678 15.9589 14.0946 15.9392 14.1142C15.9196 14.1339 15.8928 14.145 15.865 14.145C15.8372 14.145 15.8104 14.1339 15.7908 14.1142C15.7711 14.0946 15.76 14.0678 15.76 14.04C15.76 14.0122 15.7711 13.9854 15.7908 13.9658C15.8104 13.9461 15.8372 13.935 15.865 13.935C15.8928 13.935 15.9196 13.9461 15.9392 13.9658C15.9589 13.9854 15.97 14.0122 15.97 14.04V14.04ZM16.54 14.04C16.54 14.0692 16.5284 14.0972 16.5078 14.1178C16.4872 14.1384 16.4592 14.15 16.43 14.15C16.4008 14.15 16.3728 14.1384 16.3522 14.1178C16.3316 14.0972 16.32 14.0692 16.32 14.04C16.32 14.0108 16.3316 13.9828 16.3522 13.9622C16.3728 13.9416 16.4008 13.93 16.43 13.93C16.4592 13.93 16.4872 13.9416 16.5078 13.9622C16.5284 13.9828 16.54 14.0108 16.54 14.04ZM16.99 13.93C17.0192 13.93 17.0472 13.9416 17.0678 13.9622C17.0884 13.9828 17.1 14.0108 17.1 14.04C17.1 14.0692 17.0884 14.0972 17.0678 14.1178C17.0472 14.1384 17.0192 14.15 16.99 14.15C16.9608 14.15 16.9328 14.1384 16.9122 14.1178C16.8916 14.0972 16.88 14.0692 16.88 14.04C16.88 14.0108 16.8916 13.9828 16.9122 13.9622C16.9328 13.9416 16.9608 13.93 16.99 13.93ZM17.55 13.93C17.5792 13.93 17.6072 13.9416 17.6278 13.9622C17.6484 13.9828 17.66 14.0108 17.66 14.04C17.66 14.0692 17.6484 14.0972 17.6278 14.1178C17.6072 14.1384 17.5792 14.15 17.55 14.15C17.5208 14.15 17.4928 14.1384 17.4722 14.1178C17.4516 14.0972 17.44 14.0692 17.44 14.04C17.44 14.0108 17.4516 13.9828 17.4722 13.9622C17.4928 13.9416 17.5208 13.93 17.55 13.93ZM18.22 14.03C18.22 14.0592 18.2084 14.0872 18.1878 14.1078C18.1672 14.1284 18.1392 14.14 18.11 14.14C18.0808 14.14 18.0528 14.1284 18.0322 14.1078C18.0116 14.0872 18 14.0592 18 14.03C18 14.0008 18.0116 13.9728 18.0322 13.9522C18.0528 13.9316 18.0808 13.92 18.11 13.92C18.1392 13.92 18.1672 13.9316 18.1878 13.9522C18.2084 13.9728 18.22 14.0008 18.22 14.03ZM18.78 14.03C18.78 14.0592 18.7684 14.0872 18.7478 14.1078C18.7272 14.1284 18.6992 14.14 18.67 14.14C18.6408 14.14 18.6128 14.1284 18.5922 14.1078C18.5716 14.0872 18.56 14.0592 18.56 14.03C18.56 14.0008 18.5716 13.9728 18.5922 13.9522C18.6128 13.9316 18.6408 13.92 18.67 13.92C18.6992 13.92 18.7272 13.9316 18.7478 13.9522C18.7684 13.9728 18.78 14.0008 18.78 14.03ZM19.23 13.93C19.2592 13.93 19.2872 13.9416 19.3078 13.9622C19.3284 13.9828 19.34 14.0108 19.34 14.04C19.34 14.0692 19.3284 14.0972 19.3078 14.1178C19.2872 14.1384 19.2592 14.15 19.23 14.15C19.2008 14.15 19.1728 14.1384 19.1522 14.1178C19.1316 14.0972 19.12 14.0692 19.12 14.04C19.12 14.0108 19.1316 13.9828 19.1522 13.9622C19.1728 13.9416 19.2008 13.93 19.23 13.93ZM19.79 13.93C19.8192 13.93 19.8472 13.9416 19.8678 13.9622C19.8884 13.9828 19.9 14.0108 19.9 14.04C19.9 14.0692 19.8884 14.0972 19.8678 14.1178C19.8472 14.1384 19.8192 14.15 19.79 14.15C19.7608 14.15 19.7328 14.1384 19.7122 14.1178C19.6916 14.0972 19.68 14.0692 19.68 14.04C19.68 14.0108 19.6916 13.9828 19.7122 13.9622C19.7328 13.9416 19.7608 13.93 19.79 13.93ZM20.46 14.03C20.46 14.0578 20.4489 14.0846 20.4292 14.1042C20.4096 14.1239 20.3828 14.135 20.355 14.135C20.3272 14.135 20.3004 14.1239 20.2808 14.1042C20.2611 14.0846 20.25 14.0578 20.25 14.03C20.25 14.0022 20.2611 13.9754 20.2808 13.9558C20.3004 13.9361 20.3272 13.925 20.355 13.925C20.3828 13.925 20.4096 13.9361 20.4292 13.9558C20.4489 13.9754 20.46 14.0022 20.46 14.03V14.03ZM21.02 14.03C21.02 14.0578 21.0089 14.0846 20.9892 14.1042C20.9696 14.1239 20.9428 14.135 20.915 14.135C20.8872 14.135 20.8604 14.1239 20.8408 14.1042C20.8211 14.0846 20.81 14.0578 20.81 14.03C20.81 14.0022 20.8211 13.9754 20.8408 13.9558C20.8604 13.9361 20.8872 13.925 20.915 13.925C20.9428 13.925 20.9696 13.9361 20.9892 13.9558C21.0089 13.9754 21.02 14.0022 21.02 14.03V14.03ZM21.48 13.93C21.5092 13.93 21.5372 13.9416 21.5578 13.9622C21.5784 13.9828 21.59 14.0108 21.59 14.04C21.59 14.0692 21.5784 14.0972 21.5578 14.1178C21.5372 14.1384 21.5092 14.15 21.48 14.15C21.4508 14.15 21.4228 14.1384 21.4022 14.1178C21.3816 14.0972 21.37 14.0692 21.37 14.04C21.37 14.0108 21.3816 13.9828 21.4022 13.9622C21.4228 13.9416 21.4508 13.93 21.48 13.93V13.93ZM22.04 13.93C22.0692 13.93 22.0972 13.9416 22.1178 13.9622C22.1384 13.9828 22.15 14.0108 22.15 14.04C22.15 14.0692 22.1384 14.0972 22.1178 14.1178C22.0972 14.1384 22.0692 14.15 22.04 14.15C22.0108 14.15 21.9828 14.1384 21.9622 14.1178C21.9416 14.0972 21.93 14.0692 21.93 14.04C21.93 14.0108 21.9416 13.9828 21.9622 13.9622C21.9828 13.9416 22.0108 13.93 22.04 13.93V13.93ZM22.71 14.03C22.71 14.0592 22.6984 14.0872 22.6778 14.1078C22.6572 14.1284 22.6292 14.14 22.6 14.14C22.5708 14.14 22.5428 14.1284 22.5222 14.1078C22.5016 14.0872 22.49 14.0592 22.49 14.03C22.49 14.0008 22.5016 13.9728 22.5222 13.9522C22.5428 13.9316 22.5708 13.92 22.6 13.92C22.6292 13.92 22.6572 13.9316 22.6778 13.9522C22.6984 13.9728 22.71 14.0008 22.71 14.03ZM23.27 14.03C23.27 14.0592 23.2584 14.0872 23.2378 14.1078C23.2172 14.1284 23.1892 14.14 23.16 14.14C23.1308 14.14 23.1028 14.1284 23.0822 14.1078C23.0616 14.0872 23.05 14.0592 23.05 14.03C23.05 14.0008 23.0616 13.9728 23.0822 13.9522C23.1028 13.9316 23.1308 13.92 23.16 13.92C23.1892 13.92 23.2172 13.9316 23.2378 13.9522C23.2584 13.9728 23.27 14.0008 23.27 14.03ZM23.72 13.93C23.7492 13.93 23.7772 13.9416 23.7978 13.9622C23.8184 13.9828 23.83 14.0108 23.83 14.04C23.83 14.0692 23.8184 14.0972 23.7978 14.1178C23.7772 14.1384 23.7492 14.15 23.72 14.15C23.6908 14.15 23.6628 14.1384 23.6422 14.1178C23.6216 14.0972 23.61 14.0692 23.61 14.04C23.61 14.0108 23.6216 13.9828 23.6422 13.9622C23.6628 13.9416 23.6908 13.93 23.72 13.93V13.93ZM24.28 13.93C24.3092 13.93 24.3372 13.9416 24.3578 13.9622C24.3784 13.9828 24.39 14.0108 24.39 14.04C24.39 14.0692 24.3784 14.0972 24.3578 14.1178C24.3372 14.1384 24.3092 14.15 24.28 14.15C24.2508 14.15 24.2228 14.1384 24.2022 14.1178C24.1816 14.0972 24.17 14.0692 24.17 14.04C24.17 14.0108 24.1816 13.9828 24.2022 13.9622C24.2228 13.9416 24.2508 13.93 24.28 13.93V13.93ZM24.95 14.03C24.95 14.0592 24.9384 14.0872 24.9178 14.1078C24.8972 14.1284 24.8692 14.14 24.84 14.14C24.8108 14.14 24.7828 14.1284 24.7622 14.1078C24.7416 14.0872 24.73 14.0592 24.73 14.03C24.73 14.0008 24.7416 13.9728 24.7622 13.9522C24.7828 13.9316 24.8108 13.92 24.84 13.92C24.8692 13.92 24.8972 13.9316 24.9178 13.9522C24.9384 13.9728 24.95 14.0008 24.95 14.03ZM25.51 14.03C25.51 14.0592 25.4984 14.0872 25.4778 14.1078C25.4572 14.1284 25.4292 14.14 25.4 14.14C25.3708 14.14 25.3428 14.1284 25.3222 14.1078C25.3016 14.0872 25.29 14.0592 25.29 14.03C25.29 14.0008 25.3016 13.9728 25.3222 13.9522C25.3428 13.9316 25.3708 13.92 25.4 13.92C25.4292 13.92 25.4572 13.9316 25.4778 13.9522C25.4984 13.9728 25.51 14.0008 25.51 14.03ZM25.85 14.03C25.85 14.0008 25.8616 13.9728 25.8822 13.9522C25.9028 13.9316 25.9308 13.92 25.96 13.92C25.9892 13.92 26.0172 13.9316 26.0378 13.9522C26.0584 13.9728 26.07 14.0008 26.07 14.03C26.07 14.0592 26.0584 14.0872 26.0378 14.1078C26.0172 14.1284 25.9892 14.14 25.96 14.14C25.9308 14.14 25.9028 14.1284 25.8822 14.1078C25.8616 14.0872 25.85 14.0592 25.85 14.03ZM26.52 13.93C26.5492 13.93 26.5772 13.9416 26.5978 13.9622C26.6184 13.9828 26.63 14.0108 26.63 14.04C26.63 14.0692 26.6184 14.0972 26.5978 14.1178C26.5772 14.1384 26.5492 14.15 26.52 14.15C26.4908 14.15 26.4628 14.1384 26.4422 14.1178C26.4216 14.0972 26.41 14.0692 26.41 14.04C26.41 14.0108 26.4216 13.9828 26.4422 13.9622C26.4628 13.9416 26.4908 13.93 26.52 13.93ZM27.19 14.03C27.19 14.0578 27.1789 14.0846 27.1592 14.1042C27.1396 14.1239 27.1128 14.135 27.085 14.135C27.0572 14.135 27.0304 14.1239 27.0108 14.1042C26.9911 14.0846 26.98 14.0578 26.98 14.03C26.98 14.0022 26.9911 13.9754 27.0108 13.9558C27.0304 13.9361 27.0572 13.925 27.085 13.925C27.1128 13.925 27.1396 13.9361 27.1592 13.9558C27.1789 13.9754 27.19 14.0022 27.19 14.03V14.03ZM27.76 14.03C27.76 14.0592 27.7484 14.0872 27.7278 14.1078C27.7072 14.1284 27.6792 14.14 27.65 14.14C27.6208 14.14 27.5928 14.1284 27.5722 14.1078C27.5516 14.0872 27.54 14.0592 27.54 14.03C27.54 14.0008 27.5516 13.9728 27.5722 13.9522C27.5928 13.9316 27.6208 13.92 27.65 13.92C27.6792 13.92 27.7072 13.9316 27.7278 13.9522C27.7484 13.9728 27.76 14.0008 27.76 14.03ZM28.21 13.93C28.2392 13.93 28.2672 13.9416 28.2878 13.9622C28.3084 13.9828 28.32 14.0108 28.32 14.04C28.32 14.0692 28.3084 14.0972 28.2878 14.1178C28.2672 14.1384 28.2392 14.15 28.21 14.15C28.1808 14.15 28.1528 14.1384 28.1322 14.1178C28.1116 14.0972 28.1 14.0692 28.1 14.04C28.1 14.0108 28.1116 13.9828 28.1322 13.9622C28.1528 13.9416 28.1808 13.93 28.21 13.93ZM28.77 13.93C28.7992 13.93 28.8272 13.9416 28.8478 13.9622C28.8684 13.9828 28.88 14.0108 28.88 14.04C28.88 14.0692 28.8684 14.0972 28.8478 14.1178C28.8272 14.1384 28.7992 14.15 28.77 14.15C28.7408 14.15 28.7128 14.1384 28.6922 14.1178C28.6716 14.0972 28.66 14.0692 28.66 14.04C28.66 14.0108 28.6716 13.9828 28.6922 13.9622C28.7128 13.9416 28.7408 13.93 28.77 13.93ZM29.44 14.03C29.44 14.0592 29.4284 14.0872 29.4078 14.1078C29.3872 14.1284 29.3592 14.14 29.33 14.14C29.3008 14.14 29.2728 14.1284 29.2522 14.1078C29.2316 14.0872 29.22 14.0592 29.22 14.03C29.22 14.0008 29.2316 13.9728 29.2522 13.9522C29.2728 13.9316 29.3008 13.92 29.33 13.92C29.3592 13.92 29.3872 13.9316 29.4078 13.9522C29.4284 13.9728 29.44 14.0008 29.44 14.03ZM30 14.03C30 14.0592 29.9884 14.0872 29.9678 14.1078C29.9472 14.1284 29.9192 14.14 29.89 14.14C29.8608 14.14 29.8328 14.1284 29.8122 14.1078C29.7916 14.0872 29.78 14.0592 29.78 14.03C29.78 14.0008 29.7916 13.9728 29.8122 13.9522C29.8328 13.9316 29.8608 13.92 29.89 13.92C29.9192 13.92 29.9472 13.9316 29.9678 13.9522C29.9884 13.9728 30 14.0008 30 14.03V14.03ZM30.45 13.93C30.4792 13.93 30.5072 13.9416 30.5278 13.9622C30.5484 13.9828 30.56 14.0108 30.56 14.04C30.56 14.0692 30.5484 14.0972 30.5278 14.1178C30.5072 14.1384 30.4792 14.15 30.45 14.15C30.4208 14.15 30.3928 14.1384 30.3722 14.1178C30.3516 14.0972 30.34 14.0692 30.34 14.04C30.34 14.0108 30.3516 13.9828 30.3722 13.9622C30.3928 13.9416 30.4208 13.93 30.45 13.93V13.93ZM31.01 13.93C31.0392 13.93 31.0672 13.9416 31.0878 13.9622C31.1084 13.9828 31.12 14.0108 31.12 14.04C31.12 14.0692 31.1084 14.0972 31.0878 14.1178C31.0672 14.1384 31.0392 14.15 31.01 14.15C30.9808 14.15 30.9528 14.1384 30.9322 14.1178C30.9116 14.0972 30.9 14.0692 30.9 14.04C30.9 14.0108 30.9116 13.9828 30.9322 13.9622C30.9528 13.9416 30.9808 13.93 31.01 13.93V13.93ZM31.68 14.03C31.68 14.0592 31.6684 14.0872 31.6478 14.1078C31.6272 14.1284 31.5992 14.14 31.57 14.14C31.5408 14.14 31.5128 14.1284 31.4922 14.1078C31.4716 14.0872 31.46 14.0592 31.46 14.03C31.46 14.0008 31.4716 13.9728 31.4922 13.9522C31.5128 13.9316 31.5408 13.92 31.57 13.92C31.5992 13.92 31.6272 13.9316 31.6478 13.9522C31.6684 13.9728 31.68 14.0008 31.68 14.03ZM32.24 14.03C32.24 14.0592 32.2284 14.0872 32.2078 14.1078C32.1872 14.1284 32.1592 14.14 32.13 14.14C32.1008 14.14 32.0728 14.1284 32.0522 14.1078C32.0316 14.0872 32.02 14.0592 32.02 14.03C32.02 14.0008 32.0316 13.9728 32.0522 13.9522C32.0728 13.9316 32.1008 13.92 32.13 13.92C32.1592 13.92 32.1872 13.9316 32.2078 13.9522C32.2284 13.9728 32.24 14.0008 32.24 14.03ZM32.8 14.03C32.8 14.0578 32.7889 14.0846 32.7692 14.1042C32.7496 14.1239 32.7228 14.135 32.695 14.135C32.6672 14.135 32.6404 14.1239 32.6208 14.1042C32.6011 14.0846 32.59 14.0578 32.59 14.03C32.59 14.0022 32.6011 13.9754 32.6208 13.9558C32.6404 13.9361 32.6672 13.925 32.695 13.925C32.7228 13.925 32.7496 13.9361 32.7692 13.9558C32.7889 13.9754 32.8 14.0022 32.8 14.03V14.03ZM33.37 14.03C33.37 14.0592 33.3584 14.0872 33.3378 14.1078C33.3172 14.1284 33.2892 14.14 33.26 14.14C33.2308 14.14 33.2028 14.1284 33.1822 14.1078C33.1616 14.0872 33.15 14.0592 33.15 14.03C33.15 14.0008 33.1616 13.9728 33.1822 13.9522C33.2028 13.9316 33.2308 13.92 33.26 13.92C33.2892 13.92 33.3172 13.9316 33.3378 13.9522C33.3584 13.9728 33.37 14.0008 33.37 14.03ZM33.93 14.03C33.93 14.0592 33.9184 14.0872 33.8978 14.1078C33.8772 14.1284 33.8492 14.14 33.82 14.14C33.7908 14.14 33.7628 14.1284 33.7422 14.1078C33.7216 14.0872 33.71 14.0592 33.71 14.03C33.71 14.0008 33.7216 13.9728 33.7422 13.9522C33.7628 13.9316 33.7908 13.92 33.82 13.92C33.8492 13.92 33.8772 13.9316 33.8978 13.9522C33.9184 13.9728 33.93 14.0008 33.93 14.03ZM34.49 14.03C34.49 14.0592 34.4784 14.0872 34.4578 14.1078C34.4372 14.1284 34.4092 14.14 34.38 14.14C34.3508 14.14 34.3228 14.1284 34.3022 14.1078C34.2816 14.0872 34.27 14.0592 34.27 14.03C34.27 14.0008 34.2816 13.9728 34.3022 13.9522C34.3228 13.9316 34.3508 13.92 34.38 13.92C34.4092 13.92 34.4372 13.9316 34.4578 13.9522C34.4784 13.9728 34.49 14.0008 34.49 14.03ZM13.5 20.67C13.5 20.6408 13.5116 20.6128 13.5322 20.5922C13.5528 20.5716 13.5808 20.56 13.61 20.56C13.6392 20.56 13.6672 20.5716 13.6878 20.5922C13.7084 20.6128 13.72 20.6408 13.72 20.67C13.72 20.6992 13.7084 20.7272 13.6878 20.7478C13.6672 20.7684 13.6392 20.78 13.61 20.78C13.5808 20.78 13.5528 20.7684 13.5322 20.7478C13.5116 20.7272 13.5 20.6992 13.5 20.67V20.67ZM14.06 20.67C14.06 20.6408 14.0716 20.6128 14.0922 20.5922C14.1128 20.5716 14.1408 20.56 14.17 20.56C14.1992 20.56 14.2272 20.5716 14.2478 20.5922C14.2684 20.6128 14.28 20.6408 14.28 20.67C14.28 20.6992 14.2684 20.7272 14.2478 20.7478C14.2272 20.7684 14.1992 20.78 14.17 20.78C14.1408 20.78 14.1128 20.7684 14.0922 20.7478C14.0716 20.7272 14.06 20.6992 14.06 20.67ZM14.84 20.67C14.84 20.6992 14.8284 20.7272 14.8078 20.7478C14.7872 20.7684 14.7592 20.78 14.73 20.78C14.7008 20.78 14.6728 20.7684 14.6522 20.7478C14.6316 20.7272 14.62 20.6992 14.62 20.67C14.62 20.6408 14.6316 20.6128 14.6522 20.5922C14.6728 20.5716 14.7008 20.56 14.73 20.56C14.7592 20.56 14.7872 20.5716 14.8078 20.5922C14.8284 20.6128 14.84 20.6408 14.84 20.67V20.67ZM15.4 20.67C15.4 20.6978 15.3889 20.7246 15.3692 20.7442C15.3496 20.7639 15.3228 20.775 15.295 20.775C15.2672 20.775 15.2404 20.7639 15.2208 20.7442C15.2011 20.7246 15.19 20.6978 15.19 20.67C15.19 20.6422 15.2011 20.6154 15.2208 20.5958C15.2404 20.5761 15.2672 20.565 15.295 20.565C15.3228 20.565 15.3496 20.5761 15.3692 20.5958C15.3889 20.6154 15.4 20.6422 15.4 20.67V20.67ZM15.96 20.67C15.96 20.6978 15.9489 20.7246 15.9292 20.7442C15.9096 20.7639 15.8828 20.775 15.855 20.775C15.8272 20.775 15.8004 20.7639 15.7808 20.7442C15.7611 20.7246 15.75 20.6978 15.75 20.67C15.75 20.6422 15.7611 20.6154 15.7808 20.5958C15.8004 20.5761 15.8272 20.565 15.855 20.565C15.8828 20.565 15.9096 20.5761 15.9292 20.5958C15.9489 20.6154 15.96 20.6422 15.96 20.67V20.67ZM16.42 20.77C16.3922 20.77 16.3654 20.7589 16.3458 20.7392C16.3261 20.7196 16.315 20.6928 16.315 20.665C16.315 20.6372 16.3261 20.6104 16.3458 20.5908C16.3654 20.5711 16.3922 20.56 16.42 20.56C16.4492 20.56 16.4772 20.5716 16.4978 20.5922C16.5184 20.6128 16.53 20.6408 16.53 20.67C16.53 20.6992 16.5184 20.7272 16.4978 20.7478C16.4772 20.7684 16.4492 20.78 16.42 20.78V20.77ZM16.98 20.77C16.9522 20.77 16.9254 20.7589 16.9058 20.7392C16.8861 20.7196 16.875 20.6928 16.875 20.665C16.875 20.6372 16.8861 20.6104 16.9058 20.5908C16.9254 20.5711 16.9522 20.56 16.98 20.56C17.0092 20.56 17.0372 20.5716 17.0578 20.5922C17.0784 20.6128 17.09 20.6408 17.09 20.67C17.09 20.6992 17.0784 20.7272 17.0578 20.7478C17.0372 20.7684 17.0092 20.78 16.98 20.78V20.77ZM17.54 20.77C17.5122 20.77 17.4854 20.7589 17.4658 20.7392C17.4461 20.7196 17.435 20.6928 17.435 20.665C17.435 20.6372 17.4461 20.6104 17.4658 20.5908C17.4854 20.5711 17.5122 20.56 17.54 20.56C17.5692 20.56 17.5972 20.5716 17.6178 20.5922C17.6384 20.6128 17.65 20.6408 17.65 20.67C17.65 20.6992 17.6384 20.7272 17.6178 20.7478C17.5972 20.7684 17.5692 20.78 17.54 20.78V20.77ZM18.21 20.67C18.21 20.6992 18.1984 20.7272 18.1778 20.7478C18.1572 20.7684 18.1292 20.78 18.1 20.78C18.0708 20.78 18.0428 20.7684 18.0222 20.7478C18.0016 20.7272 17.99 20.6992 17.99 20.67C17.99 20.6408 18.0016 20.6128 18.0222 20.5922C18.0428 20.5716 18.0708 20.56 18.1 20.56C18.1292 20.56 18.1572 20.5716 18.1778 20.5922C18.1984 20.6128 18.21 20.6408 18.21 20.67ZM18.66 20.77C18.6322 20.77 18.6054 20.7589 18.5858 20.7392C18.5661 20.7196 18.555 20.6928 18.555 20.665C18.555 20.6372 18.5661 20.6104 18.5858 20.5908C18.6054 20.5711 18.6322 20.56 18.66 20.56C18.6892 20.56 18.7172 20.5716 18.7378 20.5922C18.7584 20.6128 18.77 20.6408 18.77 20.67C18.77 20.6992 18.7584 20.7272 18.7378 20.7478C18.7172 20.7684 18.6892 20.78 18.66 20.78V20.77ZM19.22 20.77C19.1922 20.77 19.1654 20.7589 19.1458 20.7392C19.1261 20.7196 19.115 20.6928 19.115 20.665C19.115 20.6372 19.1261 20.6104 19.1458 20.5908C19.1654 20.5711 19.1922 20.56 19.22 20.56C19.2492 20.56 19.2772 20.5716 19.2978 20.5922C19.3184 20.6128 19.33 20.6408 19.33 20.67C19.33 20.6992 19.3184 20.7272 19.2978 20.7478C19.2772 20.7684 19.2492 20.78 19.22 20.78V20.77ZM19.78 20.77C19.7522 20.77 19.7254 20.7589 19.7058 20.7392C19.6861 20.7196 19.675 20.6928 19.675 20.665C19.675 20.6372 19.6861 20.6104 19.7058 20.5908C19.7254 20.5711 19.7522 20.56 19.78 20.56C19.8092 20.56 19.8372 20.5716 19.8578 20.5922C19.8784 20.6128 19.89 20.6408 19.89 20.67C19.89 20.6992 19.8784 20.7272 19.8578 20.7478C19.8372 20.7684 19.8092 20.78 19.78 20.78V20.77ZM20.34 20.77C20.3122 20.77 20.2854 20.7589 20.2658 20.7392C20.2461 20.7196 20.235 20.6928 20.235 20.665C20.235 20.6372 20.2461 20.6104 20.2658 20.5908C20.2854 20.5711 20.3122 20.56 20.34 20.56C20.3692 20.56 20.3972 20.5716 20.4178 20.5922C20.4384 20.6128 20.45 20.6408 20.45 20.67C20.45 20.6992 20.4384 20.7272 20.4178 20.7478C20.3972 20.7684 20.3692 20.78 20.34 20.78V20.77ZM20.91 20.77C20.8822 20.77 20.8554 20.7589 20.8358 20.7392C20.8161 20.7196 20.805 20.6928 20.805 20.665C20.805 20.6372 20.8161 20.6104 20.8358 20.5908C20.8554 20.5711 20.8822 20.56 20.91 20.56C20.9392 20.56 20.9672 20.5716 20.9878 20.5922C21.0084 20.6128 21.02 20.6408 21.02 20.67C21.02 20.6992 21.0084 20.7272 20.9878 20.7478C20.9672 20.7684 20.9392 20.78 20.91 20.78V20.77ZM21.47 20.56C21.4992 20.56 21.5272 20.5716 21.5478 20.5922C21.5684 20.6128 21.58 20.6408 21.58 20.67C21.58 20.6992 21.5684 20.7272 21.5478 20.7478C21.5272 20.7684 21.4992 20.78 21.47 20.78C21.4408 20.78 21.4128 20.7684 21.3922 20.7478C21.3716 20.7272 21.36 20.6992 21.36 20.67C21.36 20.6408 21.3716 20.6128 21.3922 20.5922C21.4128 20.5716 21.4408 20.56 21.47 20.56ZM22.03 20.56C22.0592 20.56 22.0872 20.5716 22.1078 20.5922C22.1284 20.6128 22.14 20.6408 22.14 20.67C22.14 20.6992 22.1284 20.7272 22.1078 20.7478C22.0872 20.7684 22.0592 20.78 22.03 20.78C22.0008 20.78 21.9728 20.7684 21.9522 20.7478C21.9316 20.7272 21.92 20.6992 21.92 20.67C21.92 20.6408 21.9316 20.6128 21.9522 20.5922C21.9728 20.5716 22.0008 20.56 22.03 20.56ZM22.59 20.56C22.6192 20.56 22.6472 20.5716 22.6678 20.5922C22.6884 20.6128 22.7 20.6408 22.7 20.67C22.7 20.6992 22.6884 20.7272 22.6678 20.7478C22.6472 20.7684 22.6192 20.78 22.59 20.78C22.5608 20.78 22.5328 20.7684 22.5122 20.7478C22.4916 20.7272 22.48 20.6992 22.48 20.67C22.48 20.6408 22.4916 20.6128 22.5122 20.5922C22.5328 20.5716 22.5608 20.56 22.59 20.56ZM23.15 20.56C23.1792 20.56 23.2072 20.5716 23.2278 20.5922C23.2484 20.6128 23.26 20.6408 23.26 20.67C23.26 20.6992 23.2484 20.7272 23.2278 20.7478C23.2072 20.7684 23.1792 20.78 23.15 20.78C23.1208 20.78 23.0928 20.7684 23.0722 20.7478C23.0516 20.7272 23.04 20.6992 23.04 20.67C23.04 20.6408 23.0516 20.6128 23.0722 20.5922C23.0928 20.5716 23.1208 20.56 23.15 20.56ZM23.71 20.56C23.7392 20.56 23.7672 20.5716 23.7878 20.5922C23.8084 20.6128 23.82 20.6408 23.82 20.67C23.82 20.6992 23.8084 20.7272 23.7878 20.7478C23.7672 20.7684 23.7392 20.78 23.71 20.78C23.6808 20.78 23.6528 20.7684 23.6322 20.7478C23.6116 20.7272 23.6 20.6992 23.6 20.67C23.6 20.6408 23.6116 20.6128 23.6322 20.5922C23.6528 20.5716 23.6808 20.56 23.71 20.56ZM24.27 20.56C24.2992 20.56 24.3272 20.5716 24.3478 20.5922C24.3684 20.6128 24.38 20.6408 24.38 20.67C24.38 20.6992 24.3684 20.7272 24.3478 20.7478C24.3272 20.7684 24.2992 20.78 24.27 20.78C24.2408 20.78 24.2128 20.7684 24.1922 20.7478C24.1716 20.7272 24.16 20.6992 24.16 20.67C24.16 20.6408 24.1716 20.6128 24.1922 20.5922C24.2128 20.5716 24.2408 20.56 24.27 20.56ZM24.83 20.56C24.8592 20.56 24.8872 20.5716 24.9078 20.5922C24.9284 20.6128 24.94 20.6408 24.94 20.67C24.94 20.6992 24.9284 20.7272 24.9078 20.7478C24.8872 20.7684 24.8592 20.78 24.83 20.78C24.8008 20.78 24.7728 20.7684 24.7522 20.7478C24.7316 20.7272 24.72 20.6992 24.72 20.67C24.72 20.6408 24.7316 20.6128 24.7522 20.5922C24.7728 20.5716 24.8008 20.56 24.83 20.56ZM25.39 20.56C25.4192 20.56 25.4472 20.5716 25.4678 20.5922C25.4884 20.6128 25.5 20.6408 25.5 20.67C25.5 20.6992 25.4884 20.7272 25.4678 20.7478C25.4472 20.7684 25.4192 20.78 25.39 20.78C25.3608 20.78 25.3328 20.7684 25.3122 20.7478C25.2916 20.7272 25.28 20.6992 25.28 20.67C25.28 20.6408 25.2916 20.6128 25.3122 20.5922C25.3328 20.5716 25.3608 20.56 25.39 20.56ZM25.95 20.56C25.9792 20.56 26.0072 20.5716 26.0278 20.5922C26.0484 20.6128 26.06 20.6408 26.06 20.67C26.06 20.6992 26.0484 20.7272 26.0278 20.7478C26.0072 20.7684 25.9792 20.78 25.95 20.78C25.9208 20.78 25.8928 20.7684 25.8722 20.7478C25.8516 20.7272 25.84 20.6992 25.84 20.67C25.84 20.6408 25.8516 20.6128 25.8722 20.5922C25.8928 20.5716 25.9208 20.56 25.95 20.56ZM26.51 20.56C26.5392 20.56 26.5672 20.5716 26.5878 20.5922C26.6084 20.6128 26.62 20.6408 26.62 20.67C26.62 20.6992 26.6084 20.7272 26.5878 20.7478C26.5672 20.7684 26.5392 20.78 26.51 20.78C26.4808 20.78 26.4528 20.7684 26.4322 20.7478C26.4116 20.7272 26.4 20.6992 26.4 20.67C26.4 20.6408 26.4116 20.6128 26.4322 20.5922C26.4528 20.5716 26.4808 20.56 26.51 20.56ZM27.08 20.56C27.1092 20.56 27.1372 20.5716 27.1578 20.5922C27.1784 20.6128 27.19 20.6408 27.19 20.67C27.19 20.6992 27.1784 20.7272 27.1578 20.7478C27.1372 20.7684 27.1092 20.78 27.08 20.78C27.0508 20.78 27.0228 20.7684 27.0022 20.7478C26.9816 20.7272 26.97 20.6992 26.97 20.67C26.97 20.6408 26.9816 20.6128 27.0022 20.5922C27.0228 20.5716 27.0508 20.56 27.08 20.56ZM27.64 20.78C27.6108 20.78 27.5828 20.7684 27.5622 20.7478C27.5416 20.7272 27.53 20.6992 27.53 20.67C27.53 20.6408 27.5416 20.6128 27.5622 20.5922C27.5828 20.5716 27.6108 20.56 27.64 20.56C27.6692 20.56 27.6972 20.5716 27.7178 20.5922C27.7384 20.6128 27.75 20.6408 27.75 20.67C27.75 20.6992 27.7384 20.7272 27.7178 20.7478C27.6972 20.7684 27.6692 20.78 27.64 20.78ZM28.2 20.78C28.1708 20.78 28.1428 20.7684 28.1222 20.7478C28.1016 20.7272 28.09 20.6992 28.09 20.67C28.09 20.6408 28.1016 20.6128 28.1222 20.5922C28.1428 20.5716 28.1708 20.56 28.2 20.56C28.2292 20.56 28.2572 20.5716 28.2778 20.5922C28.2984 20.6128 28.31 20.6408 28.31 20.67C28.31 20.6992 28.2984 20.7272 28.2778 20.7478C28.2572 20.7684 28.2292 20.78 28.2 20.78ZM28.76 20.56C28.7892 20.56 28.8172 20.5716 28.8378 20.5922C28.8584 20.6128 28.87 20.6408 28.87 20.67C28.87 20.6992 28.8584 20.7272 28.8378 20.7478C28.8172 20.7684 28.7892 20.78 28.76 20.78C28.7308 20.78 28.7028 20.7684 28.6822 20.7478C28.6616 20.7272 28.65 20.6992 28.65 20.67C28.65 20.6408 28.6616 20.6128 28.6822 20.5922C28.7028 20.5716 28.7308 20.56 28.76 20.56ZM29.32 20.56C29.3492 20.56 29.3772 20.5716 29.3978 20.5922C29.4184 20.6128 29.43 20.6408 29.43 20.67C29.43 20.6992 29.4184 20.7272 29.3978 20.7478C29.3772 20.7684 29.3492 20.78 29.32 20.78C29.2908 20.78 29.2628 20.7684 29.2422 20.7478C29.2216 20.7272 29.21 20.6992 29.21 20.67C29.21 20.6408 29.2216 20.6128 29.2422 20.5922C29.2628 20.5716 29.2908 20.56 29.32 20.56V20.56ZM29.88 20.56C29.9092 20.56 29.9372 20.5716 29.9578 20.5922C29.9784 20.6128 29.99 20.6408 29.99 20.67C29.99 20.6992 29.9784 20.7272 29.9578 20.7478C29.9372 20.7684 29.9092 20.78 29.88 20.78C29.8508 20.78 29.8228 20.7684 29.8022 20.7478C29.7816 20.7272 29.77 20.6992 29.77 20.67C29.77 20.6408 29.7816 20.6128 29.8022 20.5922C29.8228 20.5716 29.8508 20.56 29.88 20.56V20.56ZM30.44 20.56C30.4692 20.56 30.4972 20.5716 30.5178 20.5922C30.5384 20.6128 30.55 20.6408 30.55 20.67C30.55 20.6992 30.5384 20.7272 30.5178 20.7478C30.4972 20.7684 30.4692 20.78 30.44 20.78C30.4108 20.78 30.3828 20.7684 30.3622 20.7478C30.3416 20.7272 30.33 20.6992 30.33 20.67C30.33 20.6408 30.3416 20.6128 30.3622 20.5922C30.3828 20.5716 30.4108 20.56 30.44 20.56ZM31 20.78C30.9708 20.78 30.9428 20.7684 30.9222 20.7478C30.9016 20.7272 30.89 20.6992 30.89 20.67C30.89 20.6408 30.9016 20.6128 30.9222 20.5922C30.9428 20.5716 30.9708 20.56 31 20.56C31.0292 20.56 31.0572 20.5716 31.0778 20.5922C31.0984 20.6128 31.11 20.6408 31.11 20.67C31.11 20.6992 31.0984 20.7272 31.0778 20.7478C31.0572 20.7684 31.0292 20.78 31 20.78ZM31.56 20.78C31.5308 20.78 31.5028 20.7684 31.4822 20.7478C31.4616 20.7272 31.45 20.6992 31.45 20.67C31.45 20.6408 31.4616 20.6128 31.4822 20.5922C31.5028 20.5716 31.5308 20.56 31.56 20.56C31.5892 20.56 31.6172 20.5716 31.6378 20.5922C31.6584 20.6128 31.67 20.6408 31.67 20.67C31.67 20.6992 31.6584 20.7272 31.6378 20.7478C31.6172 20.7684 31.5892 20.78 31.56 20.78V20.78ZM32.23 20.67C32.23 20.6992 32.2184 20.7272 32.1978 20.7478C32.1772 20.7684 32.1492 20.78 32.12 20.78C32.0908 20.78 32.0628 20.7684 32.0422 20.7478C32.0216 20.7272 32.01 20.6992 32.01 20.67C32.01 20.6408 32.0216 20.6128 32.0422 20.5922C32.0628 20.5716 32.0908 20.56 32.12 20.56C32.1492 20.56 32.1772 20.5716 32.1978 20.5922C32.2184 20.6128 32.23 20.6408 32.23 20.67ZM32.79 20.67C32.79 20.6978 32.7789 20.7246 32.7592 20.7442C32.7396 20.7639 32.7128 20.775 32.685 20.775C32.6572 20.775 32.6304 20.7639 32.6108 20.7442C32.5911 20.7246 32.58 20.6978 32.58 20.67C32.58 20.6422 32.5911 20.6154 32.6108 20.5958C32.6304 20.5761 32.6572 20.565 32.685 20.565C32.7128 20.565 32.7396 20.5761 32.7592 20.5958C32.7789 20.6154 32.79 20.6422 32.79 20.67ZM33.36 20.67C33.36 20.6992 33.3484 20.7272 33.3278 20.7478C33.3072 20.7684 33.2792 20.78 33.25 20.78C33.2208 20.78 33.1928 20.7684 33.1722 20.7478C33.1516 20.7272 33.14 20.6992 33.14 20.67C33.14 20.6408 33.1516 20.6128 33.1722 20.5922C33.1928 20.5716 33.2208 20.56 33.25 20.56C33.2792 20.56 33.3072 20.5716 33.3278 20.5922C33.3484 20.6128 33.36 20.6408 33.36 20.67ZM33.7 20.67C33.7 20.6408 33.7116 20.6128 33.7322 20.5922C33.7528 20.5716 33.7808 20.56 33.81 20.56C33.8392 20.56 33.8672 20.5716 33.8878 20.5922C33.9084 20.6128 33.92 20.6408 33.92 20.67C33.92 20.6992 33.9084 20.7272 33.8878 20.7478C33.8672 20.7684 33.8392 20.78 33.81 20.78C33.7808 20.78 33.7528 20.7684 33.7322 20.7478C33.7116 20.7272 33.7 20.6992 33.7 20.67ZM34.26 20.67C34.26 20.6408 34.2716 20.6128 34.2922 20.5922C34.3128 20.5716 34.3408 20.56 34.37 20.56C34.3992 20.56 34.4272 20.5716 34.4478 20.5922C34.4684 20.6128 34.48 20.6408 34.48 20.67C34.48 20.6992 34.4684 20.7272 34.4478 20.7478C34.4272 20.7684 34.3992 20.78 34.37 20.78C34.3408 20.78 34.3128 20.7684 34.2922 20.7478C34.2716 20.7272 34.26 20.6992 34.26 20.67ZM13.5 27.28C13.5 27.2508 13.5116 27.2228 13.5322 27.2022C13.5528 27.1816 13.5808 27.17 13.61 27.17C13.6392 27.17 13.6672 27.1816 13.6878 27.2022C13.7084 27.2228 13.72 27.2508 13.72 27.28C13.72 27.3092 13.7084 27.3372 13.6878 27.3578C13.6672 27.3784 13.6392 27.39 13.61 27.39C13.5808 27.39 13.5528 27.3784 13.5322 27.3578C13.5116 27.3372 13.5 27.3092 13.5 27.28V27.28ZM14.28 27.28C14.28 27.3092 14.2684 27.3372 14.2478 27.3578C14.2272 27.3784 14.1992 27.39 14.17 27.39C14.1408 27.39 14.1128 27.3784 14.0922 27.3578C14.0716 27.3372 14.06 27.3092 14.06 27.28C14.06 27.2508 14.0716 27.2228 14.0922 27.2022C14.1128 27.1816 14.1408 27.17 14.17 27.17C14.1992 27.17 14.2272 27.1816 14.2478 27.2022C14.2684 27.2228 14.28 27.2508 14.28 27.28ZM14.84 27.28C14.84 27.3092 14.8284 27.3372 14.8078 27.3578C14.7872 27.3784 14.7592 27.39 14.73 27.39C14.7008 27.39 14.6728 27.3784 14.6522 27.3578C14.6316 27.3372 14.62 27.3092 14.62 27.28C14.62 27.2508 14.6316 27.2228 14.6522 27.2022C14.6728 27.1816 14.7008 27.17 14.73 27.17C14.7592 27.17 14.7872 27.1816 14.8078 27.2022C14.8284 27.2228 14.84 27.2508 14.84 27.28V27.28ZM15.18 27.28C15.18 27.2508 15.1916 27.2228 15.2122 27.2022C15.2328 27.1816 15.2608 27.17 15.29 27.17C15.3192 27.17 15.3472 27.1816 15.3678 27.2022C15.3884 27.2228 15.4 27.2508 15.4 27.28C15.4 27.3092 15.3884 27.3372 15.3678 27.3578C15.3472 27.3784 15.3192 27.39 15.29 27.39C15.2608 27.39 15.2328 27.3784 15.2122 27.3578C15.1916 27.3372 15.18 27.3092 15.18 27.28V27.28ZM15.74 27.28C15.74 27.2508 15.7516 27.2228 15.7722 27.2022C15.7928 27.1816 15.8208 27.17 15.85 27.17C15.8792 27.17 15.9072 27.1816 15.9278 27.2022C15.9484 27.2228 15.96 27.2508 15.96 27.28C15.96 27.3092 15.9484 27.3372 15.9278 27.3578C15.9072 27.3784 15.8792 27.39 15.85 27.39C15.8208 27.39 15.7928 27.3784 15.7722 27.3578C15.7516 27.3372 15.74 27.3092 15.74 27.28ZM16.52 27.28C16.52 27.3092 16.5084 27.3372 16.4878 27.3578C16.4672 27.3784 16.4392 27.39 16.41 27.39C16.3808 27.39 16.3528 27.3784 16.3322 27.3578C16.3116 27.3372 16.3 27.3092 16.3 27.28C16.3 27.2508 16.3116 27.2228 16.3322 27.2022C16.3528 27.1816 16.3808 27.17 16.41 27.17C16.4392 27.17 16.4672 27.1816 16.4878 27.2022C16.5084 27.2228 16.52 27.2508 16.52 27.28ZM17.08 27.28C17.08 27.3078 17.0689 27.3346 17.0492 27.3542C17.0296 27.3739 17.0028 27.385 16.975 27.385C16.9472 27.385 16.9204 27.3739 16.9008 27.3542C16.8811 27.3346 16.87 27.3078 16.87 27.28C16.87 27.2522 16.8811 27.2254 16.9008 27.2058C16.9204 27.1861 16.9472 27.175 16.975 27.175C17.0028 27.175 17.0296 27.1861 17.0492 27.2058C17.0689 27.2254 17.08 27.2522 17.08 27.28ZM17.64 27.28C17.64 27.3078 17.6289 27.3346 17.6092 27.3542C17.5896 27.3739 17.5628 27.385 17.535 27.385C17.5072 27.385 17.4804 27.3739 17.4608 27.3542C17.4411 27.3346 17.43 27.3078 17.43 27.28C17.43 27.2522 17.4411 27.2254 17.4608 27.2058C17.4804 27.1861 17.5072 27.175 17.535 27.175C17.5628 27.175 17.5896 27.1861 17.6092 27.2058C17.6289 27.2254 17.64 27.2522 17.64 27.28ZM18.1 27.38C18.0722 27.38 18.0454 27.3689 18.0258 27.3492C18.0061 27.3296 17.995 27.3028 17.995 27.275C17.995 27.2472 18.0061 27.2204 18.0258 27.2008C18.0454 27.1811 18.0722 27.17 18.1 27.17C18.1292 27.17 18.1572 27.1816 18.1778 27.2022C18.1984 27.2228 18.21 27.2508 18.21 27.28C18.21 27.3092 18.1984 27.3372 18.1778 27.3578C18.1572 27.3784 18.1292 27.39 18.1 27.39V27.38ZM18.77 27.28C18.77 27.3092 18.7584 27.3372 18.7378 27.3578C18.7172 27.3784 18.6892 27.39 18.66 27.39C18.6308 27.39 18.6028 27.3784 18.5822 27.3578C18.5616 27.3372 18.55 27.3092 18.55 27.28C18.55 27.2508 18.5616 27.2228 18.5822 27.2022C18.6028 27.1816 18.6308 27.17 18.66 27.17C18.6892 27.17 18.7172 27.1816 18.7378 27.2022C18.7584 27.2228 18.77 27.2508 18.77 27.28ZM19.33 27.28C19.33 27.3092 19.3184 27.3372 19.2978 27.3578C19.2772 27.3784 19.2492 27.39 19.22 27.39C19.1908 27.39 19.1628 27.3784 19.1422 27.3578C19.1216 27.3372 19.11 27.3092 19.11 27.28C19.11 27.2508 19.1216 27.2228 19.1422 27.2022C19.1628 27.1816 19.1908 27.17 19.22 27.17C19.2492 27.17 19.2772 27.1816 19.2978 27.2022C19.3184 27.2228 19.33 27.2508 19.33 27.28ZM19.78 27.38C19.7522 27.38 19.7254 27.3689 19.7058 27.3492C19.6861 27.3296 19.675 27.3028 19.675 27.275C19.675 27.2472 19.6861 27.2204 19.7058 27.2008C19.7254 27.1811 19.7522 27.17 19.78 27.17C19.8092 27.17 19.8372 27.1816 19.8578 27.2022C19.8784 27.2228 19.89 27.2508 19.89 27.28C19.89 27.3092 19.8784 27.3372 19.8578 27.3578C19.8372 27.3784 19.8092 27.39 19.78 27.39V27.38ZM20.34 27.38C20.3122 27.38 20.2854 27.3689 20.2658 27.3492C20.2461 27.3296 20.235 27.3028 20.235 27.275C20.235 27.2472 20.2461 27.2204 20.2658 27.2008C20.2854 27.1811 20.3122 27.17 20.34 27.17C20.3692 27.17 20.3972 27.1816 20.4178 27.2022C20.4384 27.2228 20.45 27.2508 20.45 27.28C20.45 27.3092 20.4384 27.3372 20.4178 27.3578C20.3972 27.3784 20.3692 27.39 20.34 27.39V27.38ZM21.01 27.28C21.01 27.3092 20.9984 27.3372 20.9778 27.3578C20.9572 27.3784 20.9292 27.39 20.9 27.39C20.8708 27.39 20.8428 27.3784 20.8222 27.3578C20.8016 27.3372 20.79 27.3092 20.79 27.28C20.79 27.2508 20.8016 27.2228 20.8222 27.2022C20.8428 27.1816 20.8708 27.17 20.9 27.17C20.9292 27.17 20.9572 27.1816 20.9778 27.2022C20.9984 27.2228 21.01 27.2508 21.01 27.28ZM21.57 27.28C21.57 27.3092 21.5584 27.3372 21.5378 27.3578C21.5172 27.3784 21.4892 27.39 21.46 27.39C21.4308 27.39 21.4028 27.3784 21.3822 27.3578C21.3616 27.3372 21.35 27.3092 21.35 27.28C21.35 27.2508 21.3616 27.2228 21.3822 27.2022C21.4028 27.1816 21.4308 27.17 21.46 27.17C21.4892 27.17 21.5172 27.1816 21.5378 27.2022C21.5584 27.2228 21.57 27.2508 21.57 27.28ZM22.02 27.38C21.9922 27.38 21.9654 27.3689 21.9458 27.3492C21.9261 27.3296 21.915 27.3028 21.915 27.275C21.915 27.2472 21.9261 27.2204 21.9458 27.2008C21.9654 27.1811 21.9922 27.17 22.02 27.17C22.0492 27.17 22.0772 27.1816 22.0978 27.2022C22.1184 27.2228 22.13 27.2508 22.13 27.28C22.13 27.3092 22.1184 27.3372 22.0978 27.3578C22.0772 27.3784 22.0492 27.39 22.02 27.39V27.38ZM22.58 27.38C22.5522 27.38 22.5254 27.3689 22.5058 27.3492C22.4861 27.3296 22.475 27.3028 22.475 27.275C22.475 27.2472 22.4861 27.2204 22.5058 27.2008C22.5254 27.1811 22.5522 27.17 22.58 27.17C22.6092 27.17 22.6372 27.1816 22.6578 27.2022C22.6784 27.2228 22.69 27.2508 22.69 27.28C22.69 27.3092 22.6784 27.3372 22.6578 27.3578C22.6372 27.3784 22.6092 27.39 22.58 27.39V27.38ZM23.25 27.28C23.25 27.3078 23.2389 27.3346 23.2192 27.3542C23.1996 27.3739 23.1728 27.385 23.145 27.385C23.1172 27.385 23.0904 27.3739 23.0708 27.3542C23.0511 27.3346 23.04 27.3078 23.04 27.28C23.04 27.2522 23.0511 27.2254 23.0708 27.2058C23.0904 27.1861 23.1172 27.175 23.145 27.175C23.1728 27.175 23.1996 27.1861 23.2192 27.2058C23.2389 27.2254 23.25 27.2522 23.25 27.28V27.28ZM23.81 27.28C23.81 27.3078 23.7989 27.3346 23.7792 27.3542C23.7596 27.3739 23.7328 27.385 23.705 27.385C23.6772 27.385 23.6504 27.3739 23.6308 27.3542C23.6111 27.3346 23.6 27.3078 23.6 27.28C23.6 27.2522 23.6111 27.2254 23.6308 27.2058C23.6504 27.1861 23.6772 27.175 23.705 27.175C23.7328 27.175 23.7596 27.1861 23.7792 27.2058C23.7989 27.2254 23.81 27.2522 23.81 27.28ZM24.27 27.38C24.2422 27.38 24.2154 27.3689 24.1958 27.3492C24.1761 27.3296 24.165 27.3028 24.165 27.275C24.165 27.2472 24.1761 27.2204 24.1958 27.2008C24.2154 27.1811 24.2422 27.17 24.27 27.17C24.2992 27.17 24.3272 27.1816 24.3478 27.2022C24.3684 27.2228 24.38 27.2508 24.38 27.28C24.38 27.3092 24.3684 27.3372 24.3478 27.3578C24.3272 27.3784 24.2992 27.39 24.27 27.39V27.38ZM24.83 27.38C24.8022 27.38 24.7754 27.3689 24.7558 27.3492C24.7361 27.3296 24.725 27.3028 24.725 27.275C24.725 27.2472 24.7361 27.2204 24.7558 27.2008C24.7754 27.1811 24.8022 27.17 24.83 27.17C24.8592 27.17 24.8872 27.1816 24.9078 27.2022C24.9284 27.2228 24.94 27.2508 24.94 27.28C24.94 27.3092 24.9284 27.3372 24.9078 27.3578C24.8872 27.3784 24.8592 27.39 24.83 27.39V27.38ZM25.5 27.28C25.5 27.3092 25.4884 27.3372 25.4678 27.3578C25.4472 27.3784 25.4192 27.39 25.39 27.39C25.3608 27.39 25.3328 27.3784 25.3122 27.3578C25.2916 27.3372 25.28 27.3092 25.28 27.28C25.28 27.2508 25.2916 27.2228 25.3122 27.2022C25.3328 27.1816 25.3608 27.17 25.39 27.17C25.4192 27.17 25.4472 27.1816 25.4678 27.2022C25.4884 27.2228 25.5 27.2508 25.5 27.28ZM26.06 27.28C26.06 27.3092 26.0484 27.3372 26.0278 27.3578C26.0072 27.3784 25.9792 27.39 25.95 27.39C25.9208 27.39 25.8928 27.3784 25.8722 27.3578C25.8516 27.3372 25.84 27.3092 25.84 27.28C25.84 27.2508 25.8516 27.2228 25.8722 27.2022C25.8928 27.1816 25.9208 27.17 25.95 27.17C25.9792 27.17 26.0072 27.1816 26.0278 27.2022C26.0484 27.2228 26.06 27.2508 26.06 27.28ZM26.51 27.38C26.4822 27.38 26.4554 27.3689 26.4358 27.3492C26.4161 27.3296 26.405 27.3028 26.405 27.275C26.405 27.2472 26.4161 27.2204 26.4358 27.2008C26.4554 27.1811 26.4822 27.17 26.51 27.17C26.5392 27.17 26.5672 27.1816 26.5878 27.2022C26.6084 27.2228 26.62 27.2508 26.62 27.28C26.62 27.3092 26.6084 27.3372 26.5878 27.3578C26.5672 27.3784 26.5392 27.39 26.51 27.39V27.38ZM27.07 27.17C27.0992 27.17 27.1272 27.1816 27.1478 27.2022C27.1684 27.2228 27.18 27.2508 27.18 27.28C27.18 27.3092 27.1684 27.3372 27.1478 27.3578C27.1272 27.3784 27.0992 27.39 27.07 27.39C27.0408 27.39 27.0128 27.3784 26.9922 27.3578C26.9716 27.3372 26.96 27.3092 26.96 27.28C26.96 27.2508 26.9716 27.2228 26.9922 27.2022C27.0128 27.1816 27.0408 27.17 27.07 27.17ZM27.74 27.27C27.74 27.2992 27.7284 27.3272 27.7078 27.3478C27.6872 27.3684 27.6592 27.38 27.63 27.38C27.6008 27.38 27.5728 27.3684 27.5522 27.3478C27.5316 27.3272 27.52 27.2992 27.52 27.27C27.52 27.2408 27.5316 27.2128 27.5522 27.1922C27.5728 27.1716 27.6008 27.16 27.63 27.16C27.6592 27.16 27.6872 27.1716 27.7078 27.1922C27.7284 27.2128 27.74 27.2408 27.74 27.27ZM28.3 27.27C28.3 27.2978 28.2889 27.3246 28.2692 27.3442C28.2496 27.3639 28.2228 27.375 28.195 27.375C28.1672 27.375 28.1404 27.3639 28.1208 27.3442C28.1011 27.3246 28.09 27.2978 28.09 27.27C28.09 27.2422 28.1011 27.2154 28.1208 27.1958C28.1404 27.1761 28.1672 27.165 28.195 27.165C28.2228 27.165 28.2496 27.1761 28.2692 27.1958C28.2889 27.2154 28.3 27.2422 28.3 27.27ZM28.75 27.17C28.7792 27.17 28.8072 27.1816 28.8278 27.2022C28.8484 27.2228 28.86 27.2508 28.86 27.28C28.86 27.3092 28.8484 27.3372 28.8278 27.3578C28.8072 27.3784 28.7792 27.39 28.75 27.39C28.7208 27.39 28.6928 27.3784 28.6722 27.3578C28.6516 27.3372 28.64 27.3092 28.64 27.28C28.64 27.2508 28.6516 27.2228 28.6722 27.2022C28.6928 27.1816 28.7208 27.17 28.75 27.17V27.17ZM29.31 27.17C29.3392 27.17 29.3672 27.1816 29.3878 27.2022C29.4084 27.2228 29.42 27.2508 29.42 27.28C29.42 27.3092 29.4084 27.3372 29.3878 27.3578C29.3672 27.3784 29.3392 27.39 29.31 27.39C29.2808 27.39 29.2528 27.3784 29.2322 27.3578C29.2116 27.3372 29.2 27.3092 29.2 27.28C29.2 27.2508 29.2116 27.2228 29.2322 27.2022C29.2528 27.1816 29.2808 27.17 29.31 27.17ZM29.98 27.27C29.98 27.2978 29.9689 27.3246 29.9492 27.3442C29.9296 27.3639 29.9028 27.375 29.875 27.375C29.8472 27.375 29.8204 27.3639 29.8008 27.3442C29.7811 27.3246 29.77 27.2978 29.77 27.27C29.77 27.2422 29.7811 27.2154 29.8008 27.1958C29.8204 27.1761 29.8472 27.165 29.875 27.165C29.9028 27.165 29.9296 27.1761 29.9492 27.1958C29.9689 27.2154 29.98 27.2422 29.98 27.27V27.27ZM30.55 27.27C30.55 27.2992 30.5384 27.3272 30.5178 27.3478C30.4972 27.3684 30.4692 27.38 30.44 27.38C30.4108 27.38 30.3828 27.3684 30.3622 27.3478C30.3416 27.3272 30.33 27.2992 30.33 27.27C30.33 27.2408 30.3416 27.2128 30.3622 27.1922C30.3828 27.1716 30.4108 27.16 30.44 27.16C30.4692 27.16 30.4972 27.1716 30.5178 27.1922C30.5384 27.2128 30.55 27.2408 30.55 27.27ZM31 27.17C31.0292 27.17 31.0572 27.1816 31.0778 27.2022C31.0984 27.2228 31.11 27.2508 31.11 27.28C31.11 27.3092 31.0984 27.3372 31.0778 27.3578C31.0572 27.3784 31.0292 27.39 31 27.39C30.9708 27.39 30.9428 27.3784 30.9222 27.3578C30.9016 27.3372 30.89 27.3092 30.89 27.28C30.89 27.2508 30.9016 27.2228 30.9222 27.2022C30.9428 27.1816 30.9708 27.17 31 27.17V27.17ZM31.56 27.17C31.5892 27.17 31.6172 27.1816 31.6378 27.2022C31.6584 27.2228 31.67 27.2508 31.67 27.28C31.67 27.3092 31.6584 27.3372 31.6378 27.3578C31.6172 27.3784 31.5892 27.39 31.56 27.39C31.5308 27.39 31.5028 27.3784 31.4822 27.3578C31.4616 27.3372 31.45 27.3092 31.45 27.28C31.45 27.2508 31.4616 27.2228 31.4822 27.2022C31.5028 27.1816 31.5308 27.17 31.56 27.17V27.17ZM32.23 27.27C32.23 27.2992 32.2184 27.3272 32.1978 27.3478C32.1772 27.3684 32.1492 27.38 32.12 27.38C32.0908 27.38 32.0628 27.3684 32.0422 27.3478C32.0216 27.3272 32.01 27.2992 32.01 27.27C32.01 27.2408 32.0216 27.2128 32.0422 27.1922C32.0628 27.1716 32.0908 27.16 32.12 27.16C32.1492 27.16 32.1772 27.1716 32.1978 27.1922C32.2184 27.2128 32.23 27.2408 32.23 27.27ZM32.79 27.27C32.79 27.2992 32.7784 27.3272 32.7578 27.3478C32.7372 27.3684 32.7092 27.38 32.68 27.38C32.6508 27.38 32.6228 27.3684 32.6022 27.3478C32.5816 27.3272 32.57 27.2992 32.57 27.27C32.57 27.2408 32.5816 27.2128 32.6022 27.1922C32.6228 27.1716 32.6508 27.16 32.68 27.16C32.7092 27.16 32.7372 27.1716 32.7578 27.1922C32.7784 27.2128 32.79 27.2408 32.79 27.27ZM33.13 27.27C33.13 27.2408 33.1416 27.2128 33.1622 27.1922C33.1828 27.1716 33.2108 27.16 33.24 27.16C33.2692 27.16 33.2972 27.1716 33.3178 27.1922C33.3384 27.2128 33.35 27.2408 33.35 27.27C33.35 27.2992 33.3384 27.3272 33.3178 27.3478C33.2972 27.3684 33.2692 27.38 33.24 27.38C33.2108 27.38 33.1828 27.3684 33.1622 27.3478C33.1416 27.3272 33.13 27.2992 33.13 27.27ZM33.69 27.27C33.69 27.2408 33.7016 27.2128 33.7222 27.1922C33.7428 27.1716 33.7708 27.16 33.8 27.16C33.8292 27.16 33.8572 27.1716 33.8778 27.1922C33.8984 27.2128 33.91 27.2408 33.91 27.27C33.91 27.2992 33.8984 27.3272 33.8778 27.3478C33.8572 27.3684 33.8292 27.38 33.8 27.38C33.7708 27.38 33.7428 27.3684 33.7222 27.3478C33.7016 27.3272 33.69 27.2992 33.69 27.27ZM34.47 27.27C34.47 27.2978 34.4589 27.3246 34.4392 27.3442C34.4196 27.3639 34.3928 27.375 34.365 27.375C34.3372 27.375 34.3104 27.3639 34.2908 27.3442C34.2711 27.3246 34.26 27.2978 34.26 27.27C34.26 27.2422 34.2711 27.2154 34.2908 27.1958C34.3104 27.1761 34.3372 27.165 34.365 27.165C34.3928 27.165 34.4196 27.1761 34.4392 27.1958C34.4589 27.2154 34.47 27.2422 34.47 27.27ZM13.51 33.9C13.51 33.8722 13.5211 33.8454 13.5408 33.8258C13.5604 33.8061 13.5872 33.795 13.615 33.795C13.6428 33.795 13.6696 33.8061 13.6892 33.8258C13.7089 33.8454 13.72 33.8722 13.72 33.9C13.72 33.9278 13.7089 33.9546 13.6892 33.9742C13.6696 33.9939 13.6428 34.005 13.615 34.005C13.5872 34.005 13.5604 33.9939 13.5408 33.9742C13.5211 33.9546 13.51 33.9278 13.51 33.9ZM14.07 33.9C14.07 33.8722 14.0811 33.8454 14.1008 33.8258C14.1204 33.8061 14.1472 33.795 14.175 33.795C14.2028 33.795 14.2296 33.8061 14.2492 33.8258C14.2689 33.8454 14.28 33.8722 14.28 33.9C14.28 33.9278 14.2689 33.9546 14.2492 33.9742C14.2296 33.9939 14.2028 34.005 14.175 34.005C14.1472 34.005 14.1204 33.9939 14.1008 33.9742C14.0811 33.9546 14.07 33.9278 14.07 33.9ZM14.63 33.9C14.63 33.8708 14.6416 33.8428 14.6622 33.8222C14.6828 33.8016 14.7108 33.79 14.74 33.79C14.7692 33.79 14.7972 33.8016 14.8178 33.8222C14.8384 33.8428 14.85 33.8708 14.85 33.9C14.85 33.9292 14.8384 33.9572 14.8178 33.9778C14.7972 33.9984 14.7692 34.01 14.74 34.01C14.7108 34.01 14.6828 33.9984 14.6622 33.9778C14.6416 33.9572 14.63 33.9292 14.63 33.9V33.9ZM15.19 33.9C15.19 33.8708 15.2016 33.8428 15.2222 33.8222C15.2428 33.8016 15.2708 33.79 15.3 33.79C15.3292 33.79 15.3572 33.8016 15.3778 33.8222C15.3984 33.8428 15.41 33.8708 15.41 33.9C15.41 33.9292 15.3984 33.9572 15.3778 33.9778C15.3572 33.9984 15.3292 34.01 15.3 34.01C15.2708 34.01 15.2428 33.9984 15.2222 33.9778C15.2016 33.9572 15.19 33.9292 15.19 33.9V33.9ZM15.86 33.79C15.8892 33.79 15.9172 33.8016 15.9378 33.8222C15.9584 33.8428 15.97 33.8708 15.97 33.9C15.97 33.9292 15.9584 33.9572 15.9378 33.9778C15.9172 33.9984 15.8892 34.01 15.86 34.01C15.8308 34.01 15.8028 33.9984 15.7822 33.9778C15.7616 33.9572 15.75 33.9292 15.75 33.9C15.75 33.8708 15.7616 33.8428 15.7822 33.8222C15.8028 33.8016 15.8308 33.79 15.86 33.79V33.79ZM16.42 34.01C16.3908 34.01 16.3628 33.9984 16.3422 33.9778C16.3216 33.9572 16.31 33.9292 16.31 33.9C16.31 33.8708 16.3216 33.8428 16.3422 33.8222C16.3628 33.8016 16.3908 33.79 16.42 33.79C16.4492 33.79 16.4772 33.8016 16.4978 33.8222C16.5184 33.8428 16.53 33.8708 16.53 33.9C16.53 33.9292 16.5184 33.9572 16.4978 33.9778C16.4772 33.9984 16.4492 34.01 16.42 34.01ZM16.98 34.01C16.9508 34.01 16.9228 33.9984 16.9022 33.9778C16.8816 33.9572 16.87 33.9292 16.87 33.9C16.87 33.8708 16.8816 33.8428 16.9022 33.8222C16.9228 33.8016 16.9508 33.79 16.98 33.79C17.0092 33.79 17.0372 33.8016 17.0578 33.8222C17.0784 33.8428 17.09 33.8708 17.09 33.9C17.09 33.9292 17.0784 33.9572 17.0578 33.9778C17.0372 33.9984 17.0092 34.01 16.98 34.01ZM17.54 34.01C17.5108 34.01 17.4828 33.9984 17.4622 33.9778C17.4416 33.9572 17.43 33.9292 17.43 33.9C17.43 33.8708 17.4416 33.8428 17.4622 33.8222C17.4828 33.8016 17.5108 33.79 17.54 33.79C17.5692 33.79 17.5972 33.8016 17.6178 33.8222C17.6384 33.8428 17.65 33.8708 17.65 33.9C17.65 33.9292 17.6384 33.9572 17.6178 33.9778C17.5972 33.9984 17.5692 34.01 17.54 34.01ZM18.1 34.01C18.0708 34.01 18.0428 33.9984 18.0222 33.9778C18.0016 33.9572 17.99 33.9292 17.99 33.9C17.99 33.8708 18.0016 33.8428 18.0222 33.8222C18.0428 33.8016 18.0708 33.79 18.1 33.79C18.1292 33.79 18.1572 33.8016 18.1778 33.8222C18.1984 33.8428 18.21 33.8708 18.21 33.9C18.21 33.9292 18.1984 33.9572 18.1778 33.9778C18.1572 33.9984 18.1292 34.01 18.1 34.01ZM18.66 34.01C18.6308 34.01 18.6028 33.9984 18.5822 33.9778C18.5616 33.9572 18.55 33.9292 18.55 33.9C18.55 33.8708 18.5616 33.8428 18.5822 33.8222C18.6028 33.8016 18.6308 33.79 18.66 33.79C18.6892 33.79 18.7172 33.8016 18.7378 33.8222C18.7584 33.8428 18.77 33.8708 18.77 33.9C18.77 33.9292 18.7584 33.9572 18.7378 33.9778C18.7172 33.9984 18.6892 34.01 18.66 34.01ZM19.12 33.9C19.12 33.84 19.17 33.79 19.22 33.79C19.29 33.79 19.33 33.84 19.33 33.89C19.33 33.9178 19.3189 33.9446 19.2992 33.9642C19.2796 33.9839 19.2528 33.995 19.225 33.995C19.1972 33.995 19.1704 33.9839 19.1508 33.9642C19.1311 33.9446 19.12 33.9178 19.12 33.89V33.9ZM19.79 34C19.7622 34 19.7354 33.9889 19.7158 33.9692C19.6961 33.9496 19.685 33.9228 19.685 33.895C19.685 33.8672 19.6961 33.8404 19.7158 33.8208C19.7354 33.8011 19.7622 33.79 19.79 33.79C19.8192 33.79 19.8472 33.8016 19.8678 33.8222C19.8884 33.8428 19.9 33.8708 19.9 33.9C19.9 33.9292 19.8884 33.9572 19.8678 33.9778C19.8472 33.9984 19.8192 34.01 19.79 34.01V34ZM20.35 34C20.3222 34 20.2954 33.9889 20.2758 33.9692C20.2561 33.9496 20.245 33.9228 20.245 33.895C20.245 33.8672 20.2561 33.8404 20.2758 33.8208C20.2954 33.8011 20.3222 33.79 20.35 33.79C20.3792 33.79 20.4072 33.8016 20.4278 33.8222C20.4484 33.8428 20.46 33.8708 20.46 33.9C20.46 33.9292 20.4484 33.9572 20.4278 33.9778C20.4072 33.9984 20.3792 34.01 20.35 34.01V34ZM20.91 34C20.8822 34 20.8554 33.9889 20.8358 33.9692C20.8161 33.9496 20.805 33.9228 20.805 33.895C20.805 33.8672 20.8161 33.8404 20.8358 33.8208C20.8554 33.8011 20.8822 33.79 20.91 33.79C20.9392 33.79 20.9672 33.8016 20.9878 33.8222C21.0084 33.8428 21.02 33.8708 21.02 33.9C21.02 33.9292 21.0084 33.9572 20.9878 33.9778C20.9672 33.9984 20.9392 34.01 20.91 34.01V34ZM21.47 34C21.4422 34 21.4154 33.9889 21.3958 33.9692C21.3761 33.9496 21.365 33.9228 21.365 33.895C21.365 33.8672 21.3761 33.8404 21.3958 33.8208C21.4154 33.8011 21.4422 33.79 21.47 33.79C21.4992 33.79 21.5272 33.8016 21.5478 33.8222C21.5684 33.8428 21.58 33.8708 21.58 33.9C21.58 33.9292 21.5684 33.9572 21.5478 33.9778C21.5272 33.9984 21.4992 34.01 21.47 34.01V34ZM22.03 34C22.0022 34 21.9754 33.9889 21.9558 33.9692C21.9361 33.9496 21.925 33.9228 21.925 33.895C21.925 33.8672 21.9361 33.8404 21.9558 33.8208C21.9754 33.8011 22.0022 33.79 22.03 33.79C22.0592 33.79 22.0872 33.8016 22.1078 33.8222C22.1284 33.8428 22.14 33.8708 22.14 33.9C22.14 33.9292 22.1284 33.9572 22.1078 33.9778C22.0872 33.9984 22.0592 34.01 22.03 34.01V34ZM22.59 34C22.5622 34 22.5354 33.9889 22.5158 33.9692C22.4961 33.9496 22.485 33.9228 22.485 33.895C22.485 33.8672 22.4961 33.8404 22.5158 33.8208C22.5354 33.8011 22.5622 33.79 22.59 33.79C22.6192 33.79 22.6472 33.8016 22.6678 33.8222C22.6884 33.8428 22.7 33.8708 22.7 33.9C22.7 33.9292 22.6884 33.9572 22.6678 33.9778C22.6472 33.9984 22.6192 34.01 22.59 34.01V34ZM23.15 34C23.1222 34 23.0954 33.9889 23.0758 33.9692C23.0561 33.9496 23.045 33.9228 23.045 33.895C23.045 33.8672 23.0561 33.8404 23.0758 33.8208C23.0954 33.8011 23.1222 33.79 23.15 33.79C23.1792 33.79 23.2072 33.8016 23.2278 33.8222C23.2484 33.8428 23.26 33.8708 23.26 33.9C23.26 33.9292 23.2484 33.9572 23.2278 33.9778C23.2072 33.9984 23.1792 34.01 23.15 34.01V34ZM23.71 34C23.6822 34 23.6554 33.9889 23.6358 33.9692C23.6161 33.9496 23.605 33.9228 23.605 33.895C23.605 33.8672 23.6161 33.8404 23.6358 33.8208C23.6554 33.8011 23.6822 33.79 23.71 33.79C23.7392 33.79 23.7672 33.8016 23.7878 33.8222C23.8084 33.8428 23.82 33.8708 23.82 33.9C23.82 33.9292 23.8084 33.9572 23.7878 33.9778C23.7672 33.9984 23.7392 34.01 23.71 34.01V34ZM24.27 34C24.2422 34 24.2154 33.9889 24.1958 33.9692C24.1761 33.9496 24.165 33.9228 24.165 33.895C24.165 33.8672 24.1761 33.8404 24.1958 33.8208C24.2154 33.8011 24.2422 33.79 24.27 33.79C24.2992 33.79 24.3272 33.8016 24.3478 33.8222C24.3684 33.8428 24.38 33.8708 24.38 33.9C24.38 33.9292 24.3684 33.9572 24.3478 33.9778C24.3272 33.9984 24.2992 34.01 24.27 34.01V34ZM24.83 34C24.8022 34 24.7754 33.9889 24.7558 33.9692C24.7361 33.9496 24.725 33.9228 24.725 33.895C24.725 33.8672 24.7361 33.8404 24.7558 33.8208C24.7754 33.8011 24.8022 33.79 24.83 33.79C24.8592 33.79 24.8872 33.8016 24.9078 33.8222C24.9284 33.8428 24.94 33.8708 24.94 33.9C24.94 33.9292 24.9284 33.9572 24.9078 33.9778C24.8872 33.9984 24.8592 34.01 24.83 34.01V34ZM25.4 34C25.3722 34 25.3454 33.9889 25.3258 33.9692C25.3061 33.9496 25.295 33.9228 25.295 33.895C25.295 33.8672 25.3061 33.8404 25.3258 33.8208C25.3454 33.8011 25.3722 33.79 25.4 33.79C25.4292 33.79 25.4572 33.8016 25.4778 33.8222C25.4984 33.8428 25.51 33.8708 25.51 33.9C25.51 33.9292 25.4984 33.9572 25.4778 33.9778C25.4572 33.9984 25.4292 34.01 25.4 34.01V34ZM25.96 34C25.9322 34 25.9054 33.9889 25.8858 33.9692C25.8661 33.9496 25.855 33.9228 25.855 33.895C25.855 33.8672 25.8661 33.8404 25.8858 33.8208C25.9054 33.8011 25.9322 33.79 25.96 33.79C25.9892 33.79 26.0172 33.8016 26.0378 33.8222C26.0584 33.8428 26.07 33.8708 26.07 33.9C26.07 33.9292 26.0584 33.9572 26.0378 33.9778C26.0172 33.9984 25.9892 34.01 25.96 34.01V34ZM26.52 34C26.4922 34 26.4654 33.9889 26.4458 33.9692C26.4261 33.9496 26.415 33.9228 26.415 33.895C26.415 33.8672 26.4261 33.8404 26.4458 33.8208C26.4654 33.8011 26.4922 33.79 26.52 33.79C26.5492 33.79 26.5772 33.8016 26.5978 33.8222C26.6184 33.8428 26.63 33.8708 26.63 33.9C26.63 33.9292 26.6184 33.9572 26.5978 33.9778C26.5772 33.9984 26.5492 34.01 26.52 34.01V34ZM27.08 34C27.0522 34 27.0254 33.9889 27.0058 33.9692C26.9861 33.9496 26.975 33.9228 26.975 33.895C26.975 33.8672 26.9861 33.8404 27.0058 33.8208C27.0254 33.8011 27.0522 33.79 27.08 33.79C27.1092 33.79 27.1372 33.8016 27.1578 33.8222C27.1784 33.8428 27.19 33.8708 27.19 33.9C27.19 33.9292 27.1784 33.9572 27.1578 33.9778C27.1372 33.9984 27.1092 34.01 27.08 34.01V34ZM27.64 34C27.6122 34 27.5854 33.9889 27.5658 33.9692C27.5461 33.9496 27.535 33.9228 27.535 33.895C27.535 33.8672 27.5461 33.8404 27.5658 33.8208C27.5854 33.8011 27.6122 33.79 27.64 33.79C27.6692 33.79 27.6972 33.8016 27.7178 33.8222C27.7384 33.8428 27.75 33.8708 27.75 33.9C27.75 33.9292 27.7384 33.9572 27.7178 33.9778C27.6972 33.9984 27.6692 34.01 27.64 34.01V34ZM28.2 34C28.1722 34 28.1454 33.9889 28.1258 33.9692C28.1061 33.9496 28.095 33.9228 28.095 33.895C28.095 33.8672 28.1061 33.8404 28.1258 33.8208C28.1454 33.8011 28.1722 33.79 28.2 33.79C28.2292 33.79 28.2572 33.8016 28.2778 33.8222C28.2984 33.8428 28.31 33.8708 28.31 33.9C28.31 33.9292 28.2984 33.9572 28.2778 33.9778C28.2572 33.9984 28.2292 34.01 28.2 34.01V34ZM28.76 34C28.7322 34 28.7054 33.9889 28.6858 33.9692C28.6661 33.9496 28.655 33.9228 28.655 33.895C28.655 33.8672 28.6661 33.8404 28.6858 33.8208C28.7054 33.8011 28.7322 33.79 28.76 33.79C28.7892 33.79 28.8172 33.8016 28.8378 33.8222C28.8584 33.8428 28.87 33.8708 28.87 33.9C28.87 33.9292 28.8584 33.9572 28.8378 33.9778C28.8172 33.9984 28.7892 34.01 28.76 34.01V34ZM29.32 34C29.2922 34 29.2654 33.9889 29.2458 33.9692C29.2261 33.9496 29.215 33.9228 29.215 33.895C29.215 33.8672 29.2261 33.8404 29.2458 33.8208C29.2654 33.8011 29.2922 33.79 29.32 33.79C29.3492 33.79 29.3772 33.8016 29.3978 33.8222C29.4184 33.8428 29.43 33.8708 29.43 33.9C29.43 33.9292 29.4184 33.9572 29.3978 33.9778C29.3772 33.9984 29.3492 34.01 29.32 34.01V34ZM29.77 33.9C29.77 33.8708 29.7816 33.8428 29.8022 33.8222C29.8228 33.8016 29.8508 33.79 29.88 33.79C29.9092 33.79 29.9372 33.8016 29.9578 33.8222C29.9784 33.8428 29.99 33.8708 29.99 33.9C29.99 33.9292 29.9784 33.9572 29.9578 33.9778C29.9372 33.9984 29.9092 34.01 29.88 34.01C29.8508 34.01 29.8228 33.9984 29.8022 33.9778C29.7816 33.9572 29.77 33.9292 29.77 33.9V33.9ZM30.44 34C30.4122 34 30.3854 33.9889 30.3658 33.9692C30.3461 33.9496 30.335 33.9228 30.335 33.895C30.335 33.8672 30.3461 33.8404 30.3658 33.8208C30.3854 33.8011 30.4122 33.79 30.44 33.79C30.4692 33.79 30.4972 33.8016 30.5178 33.8222C30.5384 33.8428 30.55 33.8708 30.55 33.9C30.55 33.9292 30.5384 33.9572 30.5178 33.9778C30.4972 33.9984 30.4692 34.01 30.44 34.01V34ZM31 34C30.9722 34 30.9454 33.9889 30.9258 33.9692C30.9061 33.9496 30.895 33.9228 30.895 33.895C30.895 33.8672 30.9061 33.8404 30.9258 33.8208C30.9454 33.8011 30.9722 33.79 31 33.79C31.0292 33.79 31.0572 33.8016 31.0778 33.8222C31.0984 33.8428 31.11 33.8708 31.11 33.9C31.11 33.9292 31.0984 33.9572 31.0778 33.9778C31.0572 33.9984 31.0292 34.01 31 34.01V34ZM31.57 34C31.5422 34 31.5154 33.9889 31.4958 33.9692C31.4761 33.9496 31.465 33.9228 31.465 33.895C31.465 33.8672 31.4761 33.8404 31.4958 33.8208C31.5154 33.8011 31.5422 33.79 31.57 33.79C31.5992 33.79 31.6272 33.8016 31.6478 33.8222C31.6684 33.8428 31.68 33.8708 31.68 33.9C31.68 33.9292 31.6684 33.9572 31.6478 33.9778C31.6272 33.9984 31.5992 34.01 31.57 34.01V34ZM32.02 33.9C32.02 33.8708 32.0316 33.8428 32.0522 33.8222C32.0728 33.8016 32.1008 33.79 32.13 33.79C32.1592 33.79 32.1872 33.8016 32.2078 33.8222C32.2284 33.8428 32.24 33.8708 32.24 33.9C32.24 33.9292 32.2284 33.9572 32.2078 33.9778C32.1872 33.9984 32.1592 34.01 32.13 34.01C32.1008 34.01 32.0728 33.9984 32.0522 33.9778C32.0316 33.9572 32.02 33.9292 32.02 33.9ZM32.58 33.9C32.58 33.8708 32.5916 33.8428 32.6122 33.8222C32.6328 33.8016 32.6608 33.79 32.69 33.79C32.7192 33.79 32.7472 33.8016 32.7678 33.8222C32.7884 33.8428 32.8 33.8708 32.8 33.9C32.8 33.9292 32.7884 33.9572 32.7678 33.9778C32.7472 33.9984 32.7192 34.01 32.69 34.01C32.6608 34.01 32.6328 33.9984 32.6122 33.9778C32.5916 33.9572 32.58 33.9292 32.58 33.9ZM33.14 33.9C33.14 33.84 33.19 33.79 33.24 33.79C33.31 33.79 33.36 33.84 33.36 33.89C33.36 33.9192 33.3484 33.9472 33.3278 33.9678C33.3072 33.9884 33.2792 34 33.25 34C33.2208 34 33.1928 33.9884 33.1722 33.9678C33.1516 33.9472 33.14 33.9192 33.14 33.89V33.9ZM33.7 33.9C33.7 33.84 33.75 33.79 33.81 33.79C33.87 33.79 33.91 33.84 33.91 33.89C33.91 33.9165 33.8995 33.942 33.8807 33.9607C33.862 33.9795 33.8365 33.99 33.81 33.99C33.7835 33.99 33.758 33.9795 33.7393 33.9607C33.7205 33.942 33.71 33.9165 33.71 33.89L33.7 33.9ZM34.26 33.9C34.26 33.84 34.31 33.79 34.37 33.79C34.43 33.79 34.47 33.84 34.48 33.89C34.48 33.9192 34.4684 33.9472 34.4478 33.9678C34.4272 33.9884 34.3992 34 34.37 34C34.3408 34 34.3128 33.9884 34.2922 33.9678C34.2716 33.9472 34.26 33.9192 34.26 33.89V33.9ZM20.64 12.59C20.552 12.678 20.4476 12.7478 20.3326 12.7954C20.2176 12.843 20.0944 12.8675 19.97 12.8675C19.8456 12.8675 19.7224 12.843 19.6074 12.7954C19.4924 12.7478 19.388 12.678 19.3 12.59C19.212 12.502 19.1422 12.3976 19.0946 12.2826C19.047 12.1676 19.0225 12.0444 19.0225 11.92C19.0225 11.7956 19.047 11.6724 19.0946 11.5574C19.1422 11.4424 19.212 11.338 19.3 11.25L21.13 9.42C21.218 9.33201 21.3224 9.26222 21.4374 9.2146C21.5524 9.16698 21.6756 9.14248 21.8 9.14248C21.9244 9.14248 22.0476 9.16698 22.1626 9.2146C22.2776 9.26222 22.382 9.33201 22.47 9.42C22.558 9.50799 22.6278 9.61244 22.6754 9.7274C22.723 9.84236 22.7475 9.96557 22.7475 10.09C22.7475 10.2144 22.723 10.3376 22.6754 10.4526C22.6278 10.5676 22.558 10.672 22.47 10.76L20.64 12.59ZM23.75 12.59C23.662 12.6773 23.5577 12.7465 23.443 12.7935C23.3283 12.8405 23.2054 12.8645 23.0815 12.864C22.8311 12.8631 22.5914 12.7627 22.415 12.585C22.2386 12.4073 22.1401 12.1668 22.141 11.9165C22.1419 11.6661 22.2423 11.4264 22.42 11.25L24.24 9.42C24.328 9.33201 24.4324 9.26222 24.5474 9.2146C24.6624 9.16698 24.7856 9.14248 24.91 9.14248C25.0344 9.14248 25.1576 9.16698 25.2726 9.2146C25.3876 9.26222 25.492 9.33201 25.58 9.42C25.668 9.50799 25.7378 9.61244 25.7854 9.7274C25.833 9.84236 25.8575 9.96557 25.8575 10.09C25.8575 10.2144 25.833 10.3376 25.7854 10.4526C25.7378 10.5676 25.668 10.672 25.58 10.76L23.75 12.59ZM26.86 12.59C26.772 12.6773 26.6677 12.7465 26.553 12.7935C26.4383 12.8405 26.3154 12.8645 26.1915 12.864C25.9411 12.8631 25.7014 12.7627 25.525 12.585C25.3486 12.4073 25.2501 12.1668 25.251 11.9165C25.252 11.6661 25.3523 11.4264 25.53 11.25L27.36 9.42C27.5377 9.24363 27.7782 9.14507 28.0285 9.14601C28.2789 9.14695 28.5186 9.24731 28.695 9.425C28.8714 9.6027 28.9699 9.84317 28.969 10.0935C28.9681 10.3439 28.8677 10.5836 28.69 10.76L26.86 12.59ZM29.98 12.59C29.8023 12.7677 29.5613 12.8675 29.31 12.8675C29.0587 12.8675 28.8177 12.7677 28.64 12.59C28.4623 12.4123 28.3625 12.1713 28.3625 11.92C28.3625 11.6687 28.4623 11.4277 28.64 11.25L30.47 9.42C30.6477 9.24363 30.8882 9.14507 31.1385 9.14601C31.3889 9.14695 31.6286 9.24731 31.805 9.425C31.9814 9.6027 32.0799 9.84317 32.079 10.0935C32.078 10.3439 31.9777 10.5836 31.8 10.76L29.98 12.59V12.59ZM18.02 15.9C18.108 15.8127 18.2123 15.7435 18.327 15.6965C18.4417 15.6495 18.5646 15.6255 18.6885 15.626C18.8125 15.6265 18.9352 15.6514 19.0495 15.6992C19.1639 15.7471 19.2677 15.817 19.355 15.905C19.4423 15.993 19.5115 16.0973 19.5585 16.212C19.6055 16.3267 19.6295 16.4496 19.629 16.5735C19.6285 16.6975 19.6036 16.8202 19.5558 16.9345C19.5079 17.0489 19.438 17.1527 19.35 17.24L17.53 19.07C17.3523 19.2477 17.1113 19.3475 16.86 19.3475C16.6087 19.3475 16.3677 19.2477 16.19 19.07C16.0123 18.8923 15.9125 18.6513 15.9125 18.4C15.9125 18.1487 16.0123 17.9077 16.19 17.73L18.02 15.9V15.9ZM20.64 19.07C20.552 19.158 20.4476 19.2278 20.3326 19.2754C20.2176 19.323 20.0944 19.3475 19.97 19.3475C19.8456 19.3475 19.7224 19.323 19.6074 19.2754C19.4924 19.2278 19.388 19.158 19.3 19.07C19.212 18.982 19.1422 18.8776 19.0946 18.7626C19.047 18.6476 19.0225 18.5244 19.0225 18.4C19.0225 18.2756 19.047 18.1524 19.0946 18.0374C19.1422 17.9224 19.212 17.818 19.3 17.73L21.13 15.9C21.3077 15.7223 21.5487 15.6225 21.8 15.6225C22.0513 15.6225 22.2923 15.7223 22.47 15.9C22.6477 16.0777 22.7475 16.3187 22.7475 16.57C22.7475 16.8213 22.6477 17.0623 22.47 17.24L20.64 19.07ZM23.75 19.07C23.5723 19.2464 23.3318 19.3449 23.0815 19.344C22.8311 19.3431 22.5914 19.2427 22.415 19.065C22.2386 18.8873 22.1401 18.6468 22.141 18.3965C22.1419 18.1461 22.2423 17.9064 22.42 17.73L24.24 15.9C24.4177 15.7223 24.6587 15.6225 24.91 15.6225C25.1613 15.6225 25.4023 15.7223 25.58 15.9C25.7577 16.0777 25.8575 16.3187 25.8575 16.57C25.8575 16.8213 25.7577 17.0623 25.58 17.24L23.75 19.07ZM26.86 19.07C26.6823 19.2464 26.4418 19.3449 26.1915 19.344C25.9411 19.3431 25.7014 19.2427 25.525 19.065C25.3486 18.8873 25.2501 18.6468 25.251 18.3965C25.252 18.1461 25.3523 17.9064 25.53 17.73L27.36 15.9C27.448 15.8127 27.5523 15.7435 27.667 15.6965C27.7817 15.6495 27.9046 15.6255 28.0285 15.626C28.1525 15.6265 28.2752 15.6514 28.3895 15.6992C28.5039 15.7471 28.6077 15.817 28.695 15.905C28.7823 15.993 28.8515 16.0973 28.8985 16.212C28.9455 16.3267 28.9695 16.4496 28.969 16.5735C28.9685 16.6975 28.9436 16.8202 28.8958 16.9345C28.8479 17.0489 28.778 17.1527 28.69 17.24L26.86 19.07ZM30.46 15.9C30.548 15.812 30.6524 15.7422 30.7674 15.6946C30.8824 15.647 31.0056 15.6225 31.13 15.6225C31.2544 15.6225 31.3776 15.647 31.4926 15.6946C31.6076 15.7422 31.712 15.812 31.8 15.9C31.888 15.988 31.9578 16.0924 32.0054 16.2074C32.053 16.3224 32.0775 16.4456 32.0775 16.57C32.0775 16.6944 32.053 16.8176 32.0054 16.9326C31.9578 17.0476 31.888 17.152 31.8 17.24L29.98 19.07C29.8023 19.2477 29.5613 19.3475 29.31 19.3475C29.0587 19.3475 28.8177 19.2477 28.64 19.07C28.4623 18.8923 28.3625 18.6513 28.3625 18.4C28.3625 18.1487 28.4623 17.9077 28.64 17.73L30.47 15.9H30.46ZM17.8 23.75L15.97 25.58C15.7871 25.7172 15.5608 25.7838 15.3327 25.7676C15.1046 25.7514 14.8899 25.6535 14.7282 25.4918C14.5665 25.33 14.4686 25.1154 14.4524 24.8873C14.4362 24.6592 14.5028 24.4329 14.64 24.25L16.47 22.42C16.6464 22.2436 16.8856 22.1445 17.135 22.1445C17.3844 22.1445 17.6236 22.2436 17.8 22.42C17.9764 22.5964 18.0755 22.8356 18.0755 23.085C18.0755 23.3344 17.9764 23.5736 17.8 23.75V23.75ZM19.09 25.58C19.0027 25.668 18.8989 25.7379 18.7845 25.7858C18.6702 25.8336 18.5475 25.8585 18.4235 25.859C18.2996 25.8595 18.1767 25.8355 18.062 25.7885C17.9473 25.7415 17.843 25.6723 17.755 25.585C17.667 25.4977 17.5971 25.3939 17.5492 25.2795C17.5014 25.1652 17.4765 25.0425 17.476 24.9185C17.4755 24.7946 17.4995 24.6717 17.5465 24.557C17.5935 24.4423 17.6627 24.338 17.75 24.25L19.58 22.42C19.6673 22.332 19.7711 22.2621 19.8855 22.2142C19.9998 22.1664 20.1225 22.1415 20.2465 22.141C20.3704 22.1405 20.4933 22.1645 20.608 22.2115C20.7227 22.2585 20.827 22.3277 20.915 22.415C21.003 22.5023 21.0729 22.6061 21.1208 22.7205C21.1686 22.8348 21.1935 22.9575 21.194 23.0815C21.1945 23.2054 21.1705 23.3283 21.1235 23.443C21.0765 23.5577 21.0073 23.662 20.92 23.75L19.09 25.58V25.58ZM22.69 22.42C22.7773 22.332 22.8811 22.2621 22.9955 22.2142C23.1098 22.1664 23.2325 22.1415 23.3565 22.141C23.4804 22.1405 23.6033 22.1645 23.718 22.2115C23.8327 22.2585 23.937 22.3277 24.025 22.415C24.113 22.5023 24.1829 22.6061 24.2308 22.7205C24.2786 22.8348 24.3035 22.9575 24.304 23.0815C24.3045 23.2054 24.2805 23.3283 24.2335 23.443C24.1865 23.5577 24.1173 23.662 24.03 23.75L22.2 25.58C22.1127 25.668 22.0089 25.7379 21.8945 25.7858C21.7802 25.8336 21.6575 25.8585 21.5335 25.859C21.4096 25.8595 21.2867 25.8355 21.172 25.7885C21.0573 25.7415 20.953 25.6723 20.865 25.585C20.777 25.4977 20.7071 25.3939 20.6592 25.2795C20.6114 25.1652 20.5865 25.0425 20.586 24.9185C20.5855 24.7946 20.6095 24.6717 20.6565 24.557C20.7035 24.4423 20.7727 24.338 20.86 24.25L22.69 22.42V22.42ZM25.81 22.42C25.9864 22.2436 26.2256 22.1445 26.475 22.1445C26.7244 22.1445 26.9636 22.2436 27.14 22.42C27.3164 22.5964 27.4155 22.8356 27.4155 23.085C27.4155 23.3344 27.3164 23.5736 27.14 23.75L25.31 25.58C25.2227 25.6673 25.119 25.7366 25.0049 25.7839C24.8908 25.8311 24.7685 25.8555 24.645 25.8555C24.5215 25.8555 24.3992 25.8311 24.2851 25.7839C24.171 25.7366 24.0673 25.6673 23.98 25.58C23.8927 25.4927 23.8234 25.389 23.7761 25.2749C23.7289 25.1608 23.7045 25.0385 23.7045 24.915C23.7045 24.7915 23.7289 24.6692 23.7761 24.5551C23.8234 24.441 23.8927 24.3373 23.98 24.25L25.81 22.42V22.42ZM28.91 22.42C28.9973 22.332 29.1011 22.2621 29.2155 22.2142C29.3298 22.1664 29.4525 22.1415 29.5765 22.141C29.7004 22.1405 29.8233 22.1645 29.938 22.2115C30.0527 22.2585 30.157 22.3277 30.245 22.415C30.333 22.5023 30.4029 22.6061 30.4508 22.7205C30.4986 22.8348 30.5235 22.9575 30.524 23.0815C30.5245 23.2054 30.5005 23.3283 30.4535 23.443C30.4065 23.5577 30.3373 23.662 30.25 23.75L28.43 25.58C28.3427 25.668 28.2389 25.7379 28.1245 25.7858C28.0102 25.8336 27.8875 25.8585 27.7635 25.859C27.6396 25.8595 27.5167 25.8355 27.402 25.7885C27.2873 25.7415 27.183 25.6723 27.095 25.585C27.007 25.4977 26.9371 25.3939 26.8892 25.2795C26.8414 25.1652 26.8165 25.0425 26.816 24.9185C26.8155 24.7946 26.8395 24.6717 26.8865 24.557C26.9335 24.4423 27.0027 24.338 27.09 24.25L28.92 22.42H28.91ZM30.21 24.25L32.03 22.42C32.212 22.2738 32.4416 22.1998 32.6747 22.212C32.9079 22.2243 33.1284 22.322 33.2941 22.4864C33.4598 22.6509 33.5592 22.8707 33.5732 23.1037C33.5872 23.3368 33.5148 23.5669 33.37 23.75L31.54 25.58C31.4527 25.6673 31.349 25.7366 31.2349 25.7839C31.1208 25.8311 30.9985 25.8555 30.875 25.8555C30.7515 25.8555 30.6292 25.8311 30.5151 25.7839C30.401 25.7366 30.2973 25.6673 30.21 25.58C30.1227 25.4927 30.0534 25.389 30.0061 25.2749C29.9589 25.1608 29.9345 25.0385 29.9345 24.915C29.9345 24.7915 29.9589 24.6692 30.0061 24.5551C30.0534 24.441 30.1227 24.3373 30.21 24.25V24.25ZM18.03 28.86C18.2077 28.6836 18.4482 28.5851 18.6985 28.586C18.9489 28.5869 19.1886 28.6873 19.365 28.865C19.5414 29.0427 19.6399 29.2832 19.639 29.5335C19.6381 29.7839 19.5377 30.0236 19.36 30.2L17.54 32.03C17.452 32.118 17.3476 32.1878 17.2326 32.2354C17.1176 32.283 16.9944 32.3075 16.87 32.3075C16.7456 32.3075 16.6224 32.283 16.5074 32.2354C16.3924 32.1878 16.288 32.118 16.2 32.03C16.112 31.942 16.0422 31.8376 15.9946 31.7226C15.947 31.6076 15.9225 31.4844 15.9225 31.36C15.9225 31.2356 15.947 31.1124 15.9946 30.9974C16.0422 30.8824 16.112 30.778 16.2 30.69L18.03 28.86V28.86ZM21.14 28.86C21.3177 28.6823 21.5587 28.5825 21.81 28.5825C22.0613 28.5825 22.3023 28.6823 22.48 28.86C22.6577 29.0377 22.7575 29.2787 22.7575 29.53C22.7575 29.7813 22.6577 30.0223 22.48 30.2L20.65 32.03C20.562 32.118 20.4576 32.1878 20.3426 32.2354C20.2276 32.283 20.1044 32.3075 19.98 32.3075C19.8556 32.3075 19.7324 32.283 19.6174 32.2354C19.5024 32.1878 19.398 32.118 19.31 32.03C19.222 31.942 19.1522 31.8376 19.1046 31.7226C19.057 31.6076 19.0325 31.4844 19.0325 31.36C19.0325 31.2356 19.057 31.1124 19.1046 30.9974C19.1522 30.8824 19.222 30.778 19.31 30.69L21.14 28.86V28.86ZM24.25 28.86C24.4277 28.6823 24.6687 28.5825 24.92 28.5825C25.1713 28.5825 25.4123 28.6823 25.59 28.86C25.7677 29.0377 25.8675 29.2787 25.8675 29.53C25.8675 29.7813 25.7677 30.0223 25.59 30.2L23.76 32.03C23.5823 32.2064 23.3418 32.3049 23.0915 32.304C22.8411 32.3031 22.6014 32.2027 22.425 32.025C22.2486 31.8473 22.1501 31.6068 22.151 31.3565C22.152 31.1061 22.2523 30.8664 22.43 30.69L24.25 28.86V28.86ZM27.37 28.86C27.458 28.7727 27.5623 28.7035 27.677 28.6565C27.7917 28.6095 27.9146 28.5855 28.0385 28.586C28.1625 28.5865 28.2852 28.6114 28.3995 28.6592C28.5139 28.7071 28.6177 28.777 28.705 28.865C28.7923 28.953 28.8615 29.0573 28.9085 29.172C28.9555 29.2867 28.9795 29.4096 28.979 29.5335C28.9785 29.6575 28.9536 29.7802 28.9058 29.8945C28.8579 30.0089 28.788 30.1127 28.7 30.2L26.87 32.03C26.6923 32.2064 26.4518 32.3049 26.2015 32.304C25.9511 32.3031 25.7114 32.2027 25.535 32.025C25.3586 31.8473 25.2601 31.6068 25.261 31.3565C25.262 31.1061 25.3623 30.8664 25.54 30.69L27.37 28.86ZM29.99 32.03C29.902 32.118 29.7976 32.1878 29.6826 32.2354C29.5676 32.283 29.4444 32.3075 29.32 32.3075C29.1956 32.3075 29.0724 32.283 28.9574 32.2354C28.8424 32.1878 28.738 32.118 28.65 32.03C28.562 31.942 28.4922 31.8376 28.4446 31.7226C28.397 31.6076 28.3725 31.4844 28.3725 31.36C28.3725 31.2356 28.397 31.1124 28.4446 30.9974C28.4922 30.8824 28.562 30.778 28.65 30.69L30.48 28.86C30.568 28.7727 30.6723 28.7035 30.787 28.6565C30.9017 28.6095 31.0246 28.5855 31.1485 28.586C31.2725 28.5865 31.3952 28.6114 31.5095 28.6592C31.6239 28.7071 31.7277 28.777 31.815 28.865C31.9023 28.953 31.9715 29.0573 32.0185 29.172C32.0655 29.2867 32.0895 29.4096 32.089 29.5335C32.0885 29.6575 32.0636 29.7802 32.0158 29.8945C31.9679 30.0089 31.898 30.1127 31.81 30.2L29.99 32.03V32.03ZM18.03 35.34C18.2077 35.1636 18.4482 35.0651 18.6985 35.066C18.9489 35.067 19.1886 35.1673 19.365 35.345C19.5414 35.5227 19.6399 35.7632 19.639 36.0135C19.6381 36.2639 19.5377 36.5036 19.36 36.68L17.54 38.51C17.452 38.598 17.3476 38.6678 17.2326 38.7154C17.1176 38.763 16.9944 38.7875 16.87 38.7875C16.7456 38.7875 16.6224 38.763 16.5074 38.7154C16.3924 38.6678 16.288 38.598 16.2 38.51C16.112 38.422 16.0422 38.3176 15.9946 38.2026C15.947 38.0876 15.9225 37.9644 15.9225 37.84C15.9225 37.7156 15.947 37.5924 15.9946 37.4774C16.0422 37.3624 16.112 37.258 16.2 37.17L18.03 35.34V35.34ZM21.14 35.34C21.228 35.252 21.3324 35.1822 21.4474 35.1346C21.5624 35.087 21.6856 35.0625 21.81 35.0625C21.9344 35.0625 22.0576 35.087 22.1726 35.1346C22.2876 35.1822 22.392 35.252 22.48 35.34C22.568 35.428 22.6378 35.5324 22.6854 35.6474C22.733 35.7624 22.7575 35.8856 22.7575 36.01C22.7575 36.1344 22.733 36.2576 22.6854 36.3726C22.6378 36.4876 22.568 36.592 22.48 36.68L20.65 38.51C20.562 38.598 20.4576 38.6678 20.3426 38.7154C20.2276 38.763 20.1044 38.7875 19.98 38.7875C19.8556 38.7875 19.7324 38.763 19.6174 38.7154C19.5024 38.6678 19.398 38.598 19.31 38.51C19.222 38.422 19.1522 38.3176 19.1046 38.2026C19.057 38.0876 19.0325 37.9644 19.0325 37.84C19.0325 37.7156 19.057 37.5924 19.1046 37.4774C19.1522 37.3624 19.222 37.258 19.31 37.17L21.14 35.34V35.34ZM24.25 35.34C24.338 35.252 24.4424 35.1822 24.5574 35.1346C24.6724 35.087 24.7956 35.0625 24.92 35.0625C25.0444 35.0625 25.1676 35.087 25.2826 35.1346C25.3976 35.1822 25.502 35.252 25.59 35.34C25.678 35.428 25.7478 35.5324 25.7954 35.6474C25.843 35.7624 25.8675 35.8856 25.8675 36.01C25.8675 36.1344 25.843 36.2576 25.7954 36.3726C25.7478 36.4876 25.678 36.592 25.59 36.68L23.76 38.51C23.672 38.5973 23.5677 38.6665 23.453 38.7135C23.3383 38.7605 23.2154 38.7845 23.0915 38.784C22.9675 38.7835 22.8448 38.7586 22.7305 38.7108C22.6161 38.6629 22.5123 38.593 22.425 38.505C22.3377 38.417 22.2685 38.3127 22.2215 38.198C22.1745 38.0833 22.1505 37.9604 22.151 37.8365C22.1515 37.7125 22.1764 37.5898 22.2242 37.4755C22.2721 37.3611 22.342 37.2573 22.43 37.17L24.25 35.34V35.34ZM27.37 35.34C27.458 35.2527 27.5623 35.1835 27.677 35.1365C27.7917 35.0895 27.9146 35.0655 28.0385 35.066C28.1625 35.0665 28.2852 35.0914 28.3995 35.1392C28.5139 35.1871 28.6177 35.257 28.705 35.345C28.7923 35.433 28.8615 35.5373 28.9085 35.652C28.9555 35.7667 28.9795 35.8896 28.979 36.0135C28.9785 36.1375 28.9536 36.2602 28.9058 36.3745C28.8579 36.4889 28.788 36.5927 28.7 36.68L26.87 38.51C26.782 38.5973 26.6777 38.6665 26.563 38.7135C26.4483 38.7605 26.3254 38.7845 26.2015 38.784C26.0775 38.7835 25.9548 38.7586 25.8405 38.7108C25.7261 38.6629 25.6223 38.593 25.535 38.505C25.4477 38.417 25.3785 38.3127 25.3315 38.198C25.2845 38.0833 25.2605 37.9604 25.261 37.8365C25.2615 37.7125 25.2864 37.5898 25.3342 37.4755C25.3821 37.3611 25.452 37.2573 25.54 37.17L27.37 35.34ZM28.65 37.17L30.48 35.34C30.568 35.2527 30.6723 35.1835 30.787 35.1365C30.9017 35.0895 31.0246 35.0655 31.1485 35.066C31.2725 35.0665 31.3952 35.0914 31.5095 35.1392C31.6239 35.1871 31.7277 35.257 31.815 35.345C31.9023 35.433 31.9715 35.5373 32.0185 35.652C32.0655 35.7667 32.0895 35.8896 32.089 36.0135C32.0885 36.1375 32.0636 36.2602 32.0158 36.3745C31.9679 36.4889 31.898 36.5927 31.81 36.68L29.99 38.51C29.902 38.598 29.7976 38.6678 29.6826 38.7154C29.5676 38.763 29.4444 38.7875 29.32 38.7875C29.1956 38.7875 29.0724 38.763 28.9574 38.7154C28.8424 38.6678 28.738 38.598 28.65 38.51C28.562 38.422 28.4922 38.3176 28.4446 38.2026C28.397 38.0876 28.3725 37.9644 28.3725 37.84C28.3725 37.7156 28.397 37.5924 28.4446 37.4774C28.4922 37.3624 28.562 37.258 28.65 37.17V37.17Z" fill="#333333"/>
</svg>
