<svg width="48" height="48" viewBox="0 0 48 48" fill="none" xmlns="http://www.w3.org/2000/svg">
<path d="M21.7539 3.96858C17.813 3.88814 16.3976 7.53219 17.9491 17.6407C18.8595 24.4192 12.5715 19.2266 14.4237 16.2226C12.7533 18.5964 14.0491 22.2328 17.3631 22.2362C21.0057 22.4901 18.5616 11.5822 21.0389 7.98825C22.9197 4.47171 26.7902 8.38613 27.6482 11.0371C24.8149 12.9822 23.1214 16.196 23.1207 19.6309C23.1204 25.3916 27.7944 30.0635 33.5601 30.0624C39.3258 30.0627 43.9995 25.3913 43.9995 19.6309C43.9995 13.8701 39.3258 9.20131 33.5601 9.20131C31.7743 9.20326 30.0179 9.66207 28.4604 10.5354C27.4296 7.69716 25.9767 4.8429 23.5992 4.22268C22.9349 4.06718 22.318 3.98063 21.7554 3.96882L21.7539 3.96858ZM33.5604 9.68137C38.1178 9.68439 42.0912 12.7768 43.2088 17.1913C40.4238 17.359 38.7096 17.3786 36.6717 16.1268C35.8203 13.3237 34.0737 12.2705 33.2323 15.9471C28.9519 16.7945 28.7471 17.3503 24.5896 15.4685C24.5813 15.4648 24.5765 15.4607 24.5681 15.4569C24.5581 15.4523 24.5494 15.4505 24.5408 15.4471C26.1696 11.9364 29.6874 9.68716 33.5603 9.68149L33.5604 9.68137ZM34.742 14.111C35.2523 14.0773 35.7883 15.0611 36.2518 16.3649C38.1907 18.0989 41.2344 17.7806 43.3161 17.6754C43.4485 18.3187 43.516 18.9735 43.5192 19.6304C43.5195 25.1259 39.0609 29.5816 33.5602 29.5816C28.0606 29.581 23.6011 25.1255 23.6011 19.6304C23.6032 18.3443 23.8561 17.0708 24.3433 15.8804L24.3902 15.9039C28.8296 18.1801 30.6778 16.738 33.6421 16.3649C33.9629 14.7787 34.3448 14.1371 34.7417 14.111H34.742ZM30.0547 18.4468C29.515 18.4472 29.0786 18.8837 29.0781 19.4234C29.0776 19.9638 29.5143 20.4014 30.0547 20.4018C30.5958 20.4024 31.0337 19.9645 31.0332 19.4234C31.0327 18.883 30.5951 18.4462 30.0547 18.4468ZM37.1893 18.4468C36.6496 18.4472 36.2112 18.8837 36.2108 19.4234C36.2102 19.9638 36.6489 20.4014 37.1893 20.4018C37.7304 20.4024 38.1684 19.9645 38.1678 19.4234C38.1673 18.883 37.7297 18.4462 37.1893 18.4468ZM30.453 23.7087C30.2917 23.7228 30.1467 23.8816 30.1679 24.1383C30.3003 25.4285 31.804 26.4281 33.6151 26.4294C35.4275 26.4292 36.9318 25.4293 37.0644 24.1383C36.3009 25.2167 35.1071 25.9219 33.6151 25.9528C32.1714 25.952 30.9662 25.1653 30.8358 24.1383C30.7924 23.8227 30.6143 23.6941 30.453 23.7087ZM14.0839 23.8005C14.0495 23.8005 14.0148 23.8058 13.9804 23.8063C13.7307 23.8098 13.4801 23.8232 13.2304 23.8454C8.09021 24.2807 4.1304 28.5214 4.01172 33.654C4.01022 33.7311 4 33.8075 4 33.8845C4 34.1881 4.01875 34.4861 4.04492 34.7829C4.50024 39.9299 8.81884 43.9664 14.0841 43.9664C19.5538 43.9664 23.9959 39.606 24.1505 34.1733C24.1535 34.0761 24.1642 33.9828 24.1642 33.8842C24.1642 33.5754 24.1457 33.2679 24.1173 32.9643C24.1106 32.8903 24.1021 32.8188 24.0939 32.7455C24.0595 32.4494 24.015 32.154 23.9552 31.8646C23.9544 31.8624 23.9559 31.8617 23.9552 31.8587V31.8569C23.8894 31.5377 23.8048 31.2231 23.7091 30.9135C23.7024 30.8911 23.6943 30.8695 23.6876 30.8471C23.5904 30.5428 23.4804 30.243 23.3556 29.9506C22.4367 27.7919 20.7795 25.9769 18.6074 24.8861C17.7648 24.4801 17.4345 24.3618 16.3691 24.0755C15.6252 23.8995 14.8637 23.808 14.0996 23.804C14.0951 23.8039 14.0884 23.8001 14.0839 23.8001V23.8005ZM14.0819 24.1833C18.165 24.1869 21.808 26.747 23.1951 30.5877C21.6467 28.6438 16.3137 32.4102 15.7831 30.408C15.1551 27.8482 12.6004 27.8085 12.246 27.8338C12.3387 28.1779 13.6532 30.0159 12.9355 30.4099C12.9803 28.33 10.6279 28.0888 10.6952 29.7479C10.7311 30.6316 10.5359 29.8591 9.75381 30.0662C8.5142 30.3944 7.09461 33.8323 5.83784 31.4158C5.45354 30.6727 4.9023 31.3703 4.55465 32.0895C5.41722 27.5069 9.41891 24.1858 14.0821 24.1832L14.0819 24.1833ZM12.8183 28.2089C13.1764 28.1773 14.9198 28.5252 15.3632 30.4101C15.9389 33.5465 22.3428 28.1524 23.5114 31.6581C23.6873 32.3868 23.779 33.135 23.7829 33.8846C23.7824 33.8958 23.7815 33.9066 23.781 33.9178L23.779 33.9334C23.7775 34.0142 23.7664 34.0949 23.7634 34.1756H23.7673C23.6106 39.4141 19.3222 43.5809 14.0819 43.5858C9.07666 43.5807 4.89688 39.7671 4.43351 34.783C4.40285 34.4982 4.38468 34.2093 4.38468 33.9177C4.43029 33.2433 5.21395 30.692 5.80461 32.1013C7.02706 34.2561 8.63854 30.8909 9.89822 30.5193C10.6765 30.2905 11.6241 31.4059 11.322 30.6911C10.2753 28.2173 12.9991 28.644 12.6365 31.074C13.9546 30.407 13.7714 29.8338 12.8181 28.2087L12.8183 28.2089ZM10.578 32.7439C10.0554 32.7431 9.63271 33.1666 9.63271 33.6892C9.63197 34.2119 10.0547 34.6334 10.578 34.6326C11.0999 34.6326 11.5221 34.2111 11.5214 33.6892C11.5214 33.1673 11.0991 32.7446 10.578 32.7439ZM17.4685 32.7439C16.9466 32.7431 16.5232 33.1666 16.5232 33.6892C16.5224 34.2119 16.9459 34.6334 17.4685 34.6326C17.9911 34.6326 18.4145 34.2111 18.4138 33.6892C18.413 33.1673 17.9903 32.7446 17.4685 32.7439ZM11.0799 37.8277C10.9244 37.8412 10.7844 37.9936 10.8045 38.2418C10.9324 39.4882 12.3851 40.4533 14.1346 40.4547C15.8864 40.454 17.3388 39.4889 17.4666 38.2418C16.7294 39.284 15.5761 39.9658 14.1346 39.9957C12.7402 39.9949 11.5766 39.2332 11.451 38.2418C11.4084 37.9367 11.2362 37.8127 11.0799 37.8277Z" fill="#333333"/>
</svg>
