<svg width="48" height="48" viewBox="0 0 48 48" fill="none" xmlns="http://www.w3.org/2000/svg">
<path fill-rule="evenodd" clip-rule="evenodd" d="M0.041626 0.046875V48.0469H48.0416V0.046875H0.041626ZM24.0436 4.04688C24.0496 4.04688 24.0591 4.05067 24.0651 4.05078C25.0871 4.05623 26.1052 4.17861 27.1002 4.41602C28.5251 4.80234 28.9674 4.96396 30.0944 5.51172C34.6454 7.81798 37.52 12.5138 37.526 17.6523C37.527 25.1671 31.4915 31.2598 24.0436 31.2598C16.5957 31.2598 10.5563 25.1671 10.5572 17.6523C10.5613 10.5871 15.925 4.70372 22.9029 4.10742C23.2369 4.07746 23.5709 4.06148 23.9049 4.05664C23.9509 4.05603 23.9976 4.04883 24.0436 4.04883V4.04688ZM22.3522 9.99805C23.6272 12.191 23.871 12.9613 22.108 13.8613C22.593 10.5822 18.9503 10.0093 20.3502 13.3477C20.7542 14.3122 19.4849 12.8045 18.444 13.1133C16.759 13.6147 14.6063 18.1558 12.9713 15.248C12.1813 13.3461 11.88 16.7424 11.819 17.6523C11.819 24.4629 17.2937 29.9883 24.0436 29.9883C30.7925 29.9873 36.2623 24.4619 36.2623 17.6523C36.2603 16.8745 36.1857 16.1026 36.0397 15.3418C34.8418 9.78368 26.5475 17.3164 25.7565 12.9668C25.1635 10.4232 22.8312 9.95547 22.3522 9.99805ZM19.3541 16.1152C20.0511 16.1162 20.6158 16.6865 20.6158 17.3906C20.6168 18.0949 20.0521 18.6641 19.3541 18.6641C18.6542 18.6651 18.0895 18.0959 18.0905 17.3906C18.0905 16.6855 18.6552 16.1142 19.3541 16.1152ZM28.5709 16.1152C29.2689 16.1162 29.8336 16.6865 29.8346 17.3906C29.8356 18.0949 29.2699 18.6641 28.5709 18.6641C27.8719 18.6651 27.3063 18.0959 27.3073 17.3906C27.3073 16.6855 27.8729 16.1142 28.5709 16.1152ZM20.026 22.9785C20.235 22.9583 20.4651 23.1235 20.5221 23.5352C20.6901 24.873 22.2469 25.8994 24.1119 25.9004C26.0399 25.86 27.583 24.9417 28.569 23.5352C28.398 25.218 26.4549 26.5205 24.1119 26.5215C21.7719 26.5195 19.8279 25.217 19.6569 23.5352C19.6299 23.2002 19.818 22.9967 20.026 22.9785ZM4.04163 33.957H44.0416V44.0469H4.04163V33.957ZM24.9576 35.123L24.5201 39.0117L25.7194 39.3105L25.8639 39.1738C26.0861 38.9846 26.3773 38.8906 26.735 38.8906C27.1238 38.8906 27.4235 39.007 27.6354 39.2383C27.8472 39.4694 27.9537 39.802 27.9537 40.2363C27.9537 40.6882 27.8604 41.0384 27.6764 41.2871C27.4923 41.5324 27.2315 41.6562 26.8912 41.6562C26.5857 41.6562 26.3361 41.5659 26.1451 41.3906C25.9576 41.212 25.8482 40.9652 25.817 40.6465H24.3287C24.3426 41.0808 24.4624 41.4668 24.6881 41.8066C24.9173 42.1466 25.2275 42.4124 25.6198 42.6016C26.0122 42.7872 26.4368 42.8789 26.8951 42.8789C27.4194 42.8789 27.8749 42.7723 28.2604 42.5586C28.6458 42.3414 28.9403 42.0392 29.1451 41.6504C29.3534 41.258 29.4576 40.8143 29.4576 40.3203C29.4576 39.5076 29.2542 38.8758 28.8444 38.4238C28.4347 37.9719 27.8673 37.7461 27.1451 37.7461C26.7423 37.7461 26.3621 37.8405 26.0045 38.0332L26.192 36.3906H29.2076V35.123H24.9576ZM23.11 36.9766L18.6256 38.8965V40.1367L23.11 42.0527V40.584L20.1412 39.5273L23.11 38.4492V36.9766Z" fill="#333333"/>
</svg>
