<svg width="48" height="48" viewBox="0 0 48 48" fill="none" xmlns="http://www.w3.org/2000/svg">
<path d="M21.7539 4.00618C17.813 3.92574 16.3976 7.56979 17.9491 17.6782C18.8595 24.4568 12.5716 19.2644 14.4237 16.2604C12.7533 18.6341 14.0492 22.2705 17.3631 22.2739C21.0057 22.5278 18.5617 11.6198 21.0389 8.02585C22.9198 4.5093 26.7902 8.42373 27.6482 11.0747C24.8149 13.0198 23.1214 16.2338 23.1207 19.6686C23.1204 25.4293 27.7944 30.1013 33.5601 30.1001C39.3258 30.1004 43.9995 25.429 43.9995 19.6686C43.9995 13.9078 39.3258 9.23902 33.5601 9.23902C31.7744 9.24098 30.0179 9.69965 28.4604 10.573C27.4296 7.73475 25.9767 4.88062 23.5992 4.2604C22.9349 4.10489 22.3181 4.01835 21.7554 4.00653L21.7539 4.00618ZM34.7423 14.149C35.2526 14.1154 35.7886 15.0992 36.252 16.4029C38.1909 18.137 41.2346 17.8187 43.3164 17.7134C43.4487 18.3568 43.5163 19.0116 43.5195 19.6685C43.5197 25.1639 39.0612 29.6196 33.5604 29.6196C28.0608 29.6191 23.6014 25.1635 23.6014 19.6685C23.6035 18.3824 23.8564 17.1089 24.3436 15.9185L24.3904 15.9419C28.8299 18.218 30.6781 16.7761 33.6423 16.4029C33.9632 14.8168 34.3451 14.1752 34.742 14.149H34.7423ZM30.0549 18.4848C29.5152 18.4853 29.0788 18.9218 29.0784 19.4614C29.0778 20.0018 29.5145 20.4394 30.0549 20.4399C30.596 20.4404 31.034 20.0026 31.0334 19.4614C31.033 18.921 30.5953 18.4843 30.0549 18.4848ZM37.1895 18.4848C36.6498 18.4853 36.2115 18.9218 36.211 19.4614C36.2105 20.0018 36.6492 20.4394 37.1895 20.4399C37.7306 20.4404 38.1686 20.0026 38.168 19.4614C38.1676 18.921 37.7299 18.4843 37.1895 18.4848ZM30.4533 23.7467C30.2919 23.7608 30.147 23.9197 30.1681 24.1764C30.3005 25.4666 31.8043 26.4661 33.6154 26.4674C35.4277 26.4673 36.9321 25.4674 37.0646 24.1764C36.3012 25.2548 35.1074 25.96 33.6154 25.9908C32.1717 25.9901 30.9665 25.2034 30.8361 24.1764C30.7926 23.8608 30.6146 23.7321 30.4532 23.7467H30.4533ZM14.0841 23.8386C14.0497 23.8386 14.015 23.8439 13.9806 23.8443C13.7309 23.8479 13.4803 23.8612 13.2306 23.8834C8.09045 24.3188 4.13064 28.5595 4.01196 33.6921C4.01047 33.7691 4.00024 33.8456 4.00024 33.9226C4.00024 34.2261 4.01899 34.5242 4.04517 34.821C4.50049 39.9679 8.81909 44.0045 14.0843 44.0045C19.5541 44.0045 23.9962 39.6441 24.1507 34.2114C24.1537 34.1142 24.1644 34.0209 24.1644 33.9222C24.1644 33.6134 24.146 33.3059 24.1175 33.0024C24.1108 32.9283 24.1023 32.8568 24.0941 32.7836C24.0597 32.4875 24.0152 32.1921 23.9554 31.9027C23.9547 31.9004 23.9562 31.8998 23.9554 31.8968V31.8948C23.8896 31.5756 23.805 31.2611 23.7093 30.9516C23.7026 30.9291 23.6946 30.9076 23.6879 30.8851C23.5907 30.5808 23.4807 30.281 23.3558 29.9887C22.4369 27.83 20.7797 26.0148 18.6076 24.924C17.765 24.518 17.4347 24.3998 16.3693 24.1135C15.6254 23.9376 14.8639 23.846 14.0998 23.842C14.0953 23.8419 14.0887 23.8382 14.0842 23.8382L14.0841 23.8386ZM12.8185 28.2466C13.1767 28.215 14.9201 28.5629 15.3634 30.4478C15.9391 33.5842 22.3431 28.1901 23.5117 31.6958C23.6876 32.4245 23.7793 33.1727 23.7832 33.9223C23.7827 33.9336 23.7818 33.9444 23.7812 33.9555L23.7793 33.9711C23.7778 34.0519 23.7667 34.1326 23.7637 34.2133H23.7676C23.6109 39.4518 19.3225 43.6187 14.0822 43.6236C9.07693 43.6185 4.89715 39.8048 4.43378 34.8207C4.40312 34.5359 4.38495 34.247 4.38495 33.9554C4.43056 33.2811 5.21422 30.7297 5.80488 32.139C7.02733 34.2938 8.63881 30.9286 9.89849 30.557C10.6768 30.3282 11.6244 31.4436 11.3223 30.7289C10.2756 28.255 12.9994 28.6817 12.6368 31.1117C13.9549 30.4447 13.7717 29.8715 12.8184 28.2465L12.8185 28.2466ZM10.5783 32.7816C10.0556 32.7808 9.63298 33.2043 9.63298 33.7269C9.63224 34.2496 10.0549 34.6711 10.5783 34.6703C11.1002 34.6703 11.5224 34.2488 11.5217 33.7269C11.5217 33.2051 11.0994 32.7823 10.5783 32.7816ZM17.4687 32.7816C16.9469 32.7808 16.5234 33.2043 16.5234 33.7269C16.5227 34.2496 16.9461 34.6711 17.4687 34.6703C17.9914 34.6703 18.4148 34.2488 18.414 33.7269C18.4133 33.2051 17.9906 32.7823 17.4687 32.7816ZM11.0802 37.8654C10.9247 37.8789 10.7846 38.0313 10.8048 38.2795C10.9327 39.5259 12.3854 40.491 14.1349 40.4924C15.8867 40.4917 17.339 39.5266 17.4669 38.2795C16.7297 39.3217 15.5764 40.0035 14.1349 40.0334C12.7405 40.0326 11.5769 39.2709 11.4513 38.2795C11.4087 37.9744 11.2365 37.8504 11.0802 37.8654Z" fill="#333333"/>
</svg>
