<svg width="48" height="48" viewBox="0 0 48 48" fill="none" xmlns="http://www.w3.org/2000/svg">
<path fill-rule="evenodd" clip-rule="evenodd" d="M0 0V48H48V0H0ZM21.7538 3.99995H21.7558C22.3184 4.01178 22.9353 4.09831 23.5995 4.25381C25.9771 4.87381 27.4301 7.72809 28.4608 10.5664C30.0182 9.69307 31.7746 9.2344 33.5605 9.23244C39.3262 9.23244 43.9999 13.9013 43.9999 19.662C43.9999 25.4224 39.3262 30.0939 33.5605 30.0935C27.7948 30.0945 23.1207 25.4228 23.1211 19.662C23.1218 16.2273 24.8151 13.0134 27.6486 11.0681C26.7905 8.41714 22.92 4.50268 21.0393 8.01927C18.562 11.6132 21.0061 22.5213 17.3635 22.2674C14.0495 22.2638 12.7536 18.6275 14.4241 16.2538C12.5718 19.2578 18.8597 24.45 17.9495 17.6717C16.3979 7.56332 17.8132 3.91956 21.7543 4.00006L21.7538 3.99995ZM33.5603 9.71272C29.6874 9.7185 26.1695 11.9676 24.5409 15.4783C24.5495 15.4818 24.5582 15.4836 24.5682 15.4881C24.5765 15.4919 24.5814 15.496 24.5897 15.4998C28.7472 17.3815 28.952 16.8257 33.2323 15.9783C34.0738 12.3019 35.8204 13.355 36.6718 16.158C38.7098 17.4099 40.4239 17.3902 43.2088 17.2225C42.0913 12.808 38.1178 9.71563 33.5605 9.71261L33.5603 9.71272ZM30.0545 18.4781C30.5949 18.4776 31.0325 18.9143 31.033 19.4547C31.0335 19.9959 30.5956 20.4337 30.0545 20.4332C29.5141 20.4327 29.0774 19.9951 29.0779 19.4547C29.0784 18.9151 29.5148 18.4786 30.0545 18.4781ZM37.1891 18.4781C37.7295 18.4776 38.1671 18.9143 38.1676 19.4547C38.1682 19.9959 37.7302 20.4337 37.1891 20.4332C36.6487 20.4327 36.21 19.9951 36.2106 19.4547C36.211 18.9151 36.6494 18.4786 37.1891 18.4781ZM30.4528 23.74C30.6142 23.7254 30.7922 23.8541 30.8357 24.1697C30.966 25.1967 32.1712 25.9834 33.615 25.9841C35.107 25.9533 36.3007 25.248 37.0642 24.1697C36.9317 25.4607 35.4273 26.4606 33.615 26.4607C31.8039 26.4594 30.3001 25.4599 30.1677 24.1697C30.1466 23.913 30.2915 23.7541 30.4529 23.74H30.4528ZM14.0837 23.8319C14.0882 23.8319 14.0948 23.8356 14.0993 23.8357C14.8634 23.8397 15.6249 23.9312 16.3688 24.1072C17.4343 24.3935 17.7645 24.5118 18.6071 24.9178C20.7791 26.0086 22.4362 27.8235 23.3553 29.9824C23.4802 30.2747 23.5902 30.5745 23.6874 30.8788C23.6941 30.9012 23.7021 30.9228 23.7089 30.9452C23.8046 31.2548 23.8892 31.5694 23.955 31.8886V31.8905C23.9557 31.8934 23.9542 31.8941 23.955 31.8963C24.0148 32.1857 24.0592 32.4811 24.0936 32.7772C24.1018 32.8505 24.1103 32.922 24.1171 32.996C24.1455 33.2996 24.1639 33.6071 24.1639 33.9159C24.1639 34.0146 24.1532 34.1078 24.1503 34.205C23.9955 39.6377 19.5536 43.9981 14.0839 43.9981C8.81898 43.9981 4.50012 39.9616 4.04469 34.8146C4.01852 34.5178 3.99976 34.2197 3.99976 33.9162C3.99976 33.8392 4.00998 33.7628 4.01148 33.6858C4.13036 28.5532 8.08997 24.3125 13.2301 23.8771C13.4798 23.8548 13.7304 23.8415 13.9801 23.838C14.0145 23.8376 14.0493 23.8322 14.0836 23.8322L14.0837 23.8319ZM14.0817 24.2147C9.41893 24.2172 5.41679 27.5381 4.55431 32.121C4.90197 31.4018 5.45319 30.704 5.83749 31.4472C7.0943 33.8636 8.51389 30.4258 9.75346 30.0976C10.5355 29.8905 10.7308 30.663 10.6949 29.7792C10.6276 28.1202 12.98 28.3614 12.9351 30.4414C13.6529 30.0474 12.3384 28.2094 12.2456 27.8652C12.6 27.84 15.1547 27.8797 15.7828 30.4395C16.3136 32.4417 21.6463 28.6752 23.1948 30.6192C21.8076 26.7784 18.1646 24.2185 14.0816 24.2147H14.0817ZM10.5778 32.7752C11.0989 32.776 11.5212 33.1987 11.5212 33.7206C11.5219 34.2425 11.0997 34.664 10.5778 34.664C10.0545 34.6647 9.63176 34.2432 9.63252 33.7206C9.63252 33.198 10.0552 32.7745 10.5778 32.7752ZM17.4683 32.7752C17.9901 32.776 18.4129 33.1987 18.4136 33.7206C18.4143 34.2425 17.9909 34.664 17.4683 34.664C16.9456 34.6647 16.5222 34.2432 16.523 33.7206C16.523 33.198 16.9464 32.7745 17.4683 32.7752ZM11.0797 37.8591C11.236 37.8441 11.4082 37.9681 11.4508 38.2731C11.5764 39.2645 12.74 40.0263 14.1344 40.027C15.5759 39.9971 16.7292 39.3154 17.4664 38.2731C17.3386 39.5202 15.8862 40.4854 14.1344 40.4861C12.3849 40.4846 10.9322 39.5195 10.8043 38.2731C10.7842 38.0249 10.9242 37.8725 11.0797 37.8591Z" fill="#323232" fill-opacity="0.99608"/>
</svg>
