<svg width="48" height="48" viewBox="0 0 48 48" fill="none" xmlns="http://www.w3.org/2000/svg">
<path fill-rule="evenodd" clip-rule="evenodd" d="M21.0043 7.49719C19.9081 7.49309 18.7988 7.59855 17.6821 7.81945C15.7256 8.20655 13.9195 8.91872 12.311 9.88976C6.57476 13.3526 3.3488 20.0906 4.74848 26.9718C6.32639 34.6897 13.277 40.1853 21.2582 40.0226C21.8991 40.6084 23.0692 40.834 24.2543 40.6007C25.4113 40.3719 26.3866 39.7463 26.77 38.9835C34.3164 36.1643 38.6831 28.3751 37.0981 20.5714C35.5299 12.862 28.6779 7.52636 21.0043 7.49719ZM20.9243 7.98547C26.4816 7.98515 31.3716 10.7819 34.2387 15.0206C32.9566 17.5287 29.8978 13.319 29.4282 11.4327C27.9883 16.5935 23.3516 17.184 17.9047 17.4855C14.5392 17.6718 8.40181 17.6001 6.00629 20.6495L5.08246 21.6866C6.1074 13.9586 12.8011 7.98598 20.9243 7.98547ZM29.518 12.9347C29.6929 13.7015 32.75 18.2078 34.5922 15.589C36.0589 17.9698 36.9183 20.7551 36.9184 23.7433C36.9112 30.4696 32.8335 36.372 26.3754 38.5538C26.0637 39.5251 25.0052 39.9254 24.2036 40.087C22.9974 40.2989 21.7095 39.9064 21.5512 39.4425C21.3155 39.4595 21.1604 39.4918 20.9243 39.4992C12.0921 39.4986 4.93031 32.445 4.93012 23.7433C4.93012 23.3268 4.96051 22.9172 4.99262 22.5089C5.34522 22.1104 6.23335 21.1267 6.23676 21.1085C11.6012 15.0736 25.5809 21.5343 29.518 12.9347ZM27.5356 20.0792L25.436 22.3566C26.6943 22.5354 28.6603 22.7671 29.4223 22.8507L29.1176 22.0343C28.3572 21.945 27.5742 21.8562 26.8618 21.755L28.1313 20.378L27.5356 20.0792ZM19.52 20.9737L18.9243 21.2726L20.1938 22.6495C19.4814 22.7508 18.6964 22.8395 17.936 22.9288L17.6313 23.7452C18.3933 23.6616 20.3593 23.4299 21.6176 23.2511L19.52 20.9737ZM40.186 27.7569C39.9091 27.7245 39.5721 27.7883 39.2465 28.0636C38.8266 28.3825 38.624 29.2313 38.3579 29.8937C38.9554 29.8397 39.7178 29.9021 40.354 29.5089C40.9922 28.9688 40.9662 28.2862 40.7661 28.0284C40.6807 27.9185 40.4629 27.7894 40.186 27.757V27.7569ZM39.9145 28.1749C40.2692 28.1615 40.6453 28.5218 40.2211 29.048C40.0037 29.3266 39.7343 29.383 38.9965 29.4972C39.1817 29.1109 39.2389 28.7042 39.5981 28.3194C39.6813 28.2243 39.7962 28.1794 39.9145 28.1749ZM24.1918 31.2394C22.1664 31.2394 20.5227 32.0205 20.52 32.9855C20.5194 33.9516 22.1641 34.7355 24.1918 34.7355C26.2196 34.7355 27.8623 33.9516 27.8618 32.9855C27.859 32.0205 26.2173 31.2394 24.1918 31.2394ZM41.3149 31.5558C40.4029 31.5402 39.2238 31.9906 38.1723 32.255C38.9957 32.8822 39.8761 33.8013 41.1918 34.1632C42.7025 34.3935 43.5619 33.7418 43.6469 33.2804C43.7194 32.8869 43.2284 31.8283 41.6879 31.5929C41.5696 31.5698 41.4452 31.558 41.3149 31.5558ZM24.2094 31.7316C25.0445 31.7315 25.8436 31.8622 26.4311 32.0948C27.0186 32.3274 27.3463 32.6428 27.3422 32.9718C27.3406 33.1348 27.2575 33.2963 27.0976 33.4469C26.9377 33.5976 26.7041 33.7345 26.4103 33.8499C26.1164 33.9652 25.768 34.0568 25.385 34.1193C25.002 34.1817 24.5919 34.2139 24.1782 34.214C23.7643 34.214 23.3549 34.1819 22.9733 34.1194C22.5918 34.057 22.2457 33.9655 21.9547 33.8501C21.6638 33.7347 21.4337 33.5978 21.2776 33.4471C21.1216 33.2963 21.0427 33.1348 21.0454 32.9718C21.0499 32.6429 21.3857 32.3275 21.9791 32.095C22.5724 31.8624 23.3746 31.7317 24.2094 31.7316ZM41.35 32.0343C41.6132 32.0303 41.8891 32.0598 42.184 32.1437C43.2699 32.4863 43.8241 33.7812 41.6723 33.6554C40.8683 33.6368 40.0212 33.0295 39.1684 32.4562C39.888 32.3639 40.5607 32.0462 41.35 32.0343ZM37.7582 33.8995C37.5535 34.6545 37.1323 35.5589 37.3246 36.5148C37.6958 37.5397 38.5439 37.8165 38.9497 37.6886C39.2957 37.5795 39.9722 36.863 39.5942 35.8175C39.3946 35.1596 38.4473 34.525 37.7582 33.8995ZM38.0219 34.755C38.3714 35.1822 38.9763 35.454 39.1547 36.1144C39.4316 36.7981 38.5196 37.6576 37.8989 36.4991C37.6688 36.1073 37.9801 35.3243 38.0219 34.755Z" fill="#333333"/>
</svg>
