<svg width="48" height="48" viewBox="0 0 48 48" fill="none" xmlns="http://www.w3.org/2000/svg">
<path fill-rule="evenodd" clip-rule="evenodd" d="M0.0390625 0.09375V48.0937H48.0391V0.09375H0.0390625ZM20.9258 7.51562C28.4851 7.5448 35.2345 12.8737 36.7793 20.5742C38.3407 28.3689 34.0376 36.1489 26.6035 38.9648C26.2258 39.7267 25.2648 40.3534 24.125 40.582C22.9575 40.815 21.8071 40.589 21.1758 40.0039C13.3134 40.1664 6.46458 34.6757 4.91016 26.9668C3.14465 18.1662 8.84978 9.6034 17.6504 7.83789C18.7505 7.6172 19.8459 7.51146 20.9258 7.51562ZM29.3105 12.9434C25.4321 21.5332 11.6615 15.0795 6.37695 21.1074C6.04684 22.8963 6.03441 24.7735 6.41406 26.666C7.81873 33.6373 14.0071 38.6078 21.1172 38.4746C22.4207 39.6525 24.9973 39.7373 26.0039 37.5488C32.7654 35.0178 36.6924 27.9543 35.2754 20.875C34.9568 19.287 34.3855 17.8164 33.625 16.4824C31.4633 16.3026 29.496 13.7778 29.3105 12.9434ZM27.3281 20.0879L27.9238 20.3867L26.6543 21.7637C27.3667 21.8649 28.1497 21.9536 28.9102 22.043L29.2148 22.8594C28.4529 22.7757 26.4868 22.544 25.2285 22.3652L27.3281 20.0879ZM19.3125 20.9824L21.4102 23.2598C20.1519 23.4386 18.1858 23.6703 17.4238 23.7539L17.7285 22.9375C18.489 22.8482 19.2739 22.7594 19.9863 22.6582L18.7168 21.2812L19.3125 20.9824ZM40.0195 27.7383C40.2965 27.7708 40.5143 27.8999 40.5996 28.0098C40.7997 28.2675 40.8257 28.9501 40.1875 29.4902C39.5513 29.8834 38.789 29.821 38.1914 29.875C38.4576 29.2127 38.6601 28.3639 39.0801 28.0449C39.4057 27.7696 39.7426 27.7058 40.0195 27.7383ZM23.9844 31.248C26.0098 31.248 27.6515 32.0291 27.6543 32.9941C27.6548 33.9602 26.0121 34.7442 23.9844 34.7441C21.9566 34.7442 20.312 33.9602 20.3125 32.9941C20.3153 32.0291 21.9589 31.248 23.9844 31.248ZM41.1484 31.5371C41.2787 31.5393 41.4032 31.5511 41.5215 31.5742C43.062 31.8096 43.553 32.8682 43.4805 33.2617C43.3954 33.7231 42.536 34.3748 41.0254 34.1445C39.7097 33.7826 38.8293 32.8636 38.0059 32.2363C39.0574 31.9719 40.2364 31.5216 41.1484 31.5371ZM37.5918 33.8809C38.2809 34.5063 39.2281 35.1409 39.4277 35.7988C39.8058 36.8443 39.1292 37.5609 38.7832 37.6699C38.3775 37.7978 37.5294 37.5211 37.1582 36.4961C36.9658 35.5403 37.387 34.6358 37.5918 33.8809Z" fill="#333333"/>
</svg>
