<svg width="48" height="48" viewBox="0 0 48 48" fill="none" xmlns="http://www.w3.org/2000/svg">
<path fill-rule="evenodd" clip-rule="evenodd" d="M20.4725 7.81775C19.3926 7.81358 18.2972 7.91932 17.1971 8.14001C8.39652 9.90552 2.69139 18.4683 4.4569 27.2689C6.01132 34.9778 12.8601 40.4685 20.7225 40.306C21.3539 40.8912 22.5043 41.1171 23.6717 40.8841C24.8115 40.6555 25.7726 40.0288 26.1503 39.267C33.5843 36.451 37.8875 28.671 36.326 20.8763C34.7812 13.1758 28.0319 7.84692 20.4725 7.81775ZM28.8573 13.2455C29.0427 14.08 31.01 16.6048 33.1717 16.7845C33.9323 18.1185 34.5036 19.5891 34.8221 21.1771C36.2392 28.2564 32.3122 35.32 25.5506 37.8509C24.544 40.0394 21.9675 39.9546 20.6639 38.7767C13.5538 38.9099 7.36547 33.9394 5.96081 26.9681C5.58115 25.0756 5.59359 23.1984 5.9237 21.4095C11.2083 15.3817 24.9789 21.8353 28.8573 13.2455ZM26.8749 20.39L24.7753 22.6674C26.0336 22.8462 27.9996 23.0779 28.7616 23.1615L28.4569 22.3451C27.6964 22.2557 26.9134 22.167 26.201 22.0658L27.4706 20.6888L26.8749 20.39ZM18.8592 21.2845L18.2635 21.5834L19.5331 22.9603C18.8207 23.0616 18.0357 23.1503 17.2753 23.2396L16.9706 24.056C17.7325 23.9724 19.6986 23.7407 20.9569 23.5619L18.8592 21.2845ZM39.5663 28.0404C39.2894 28.0079 38.9524 28.0718 38.6268 28.347C38.2069 28.666 38.0043 29.5148 37.7381 30.1771C38.3357 30.1232 39.0981 30.1855 39.7342 29.7924C40.3725 29.2522 40.3465 28.5696 40.1464 28.3119C40.061 28.202 39.8432 28.0729 39.5663 28.0404ZM23.5311 31.5502C21.5057 31.5502 19.862 32.3313 19.8592 33.2963C19.8587 34.2624 21.5034 35.0463 23.5311 35.0463C25.5589 35.0463 27.2016 34.2624 27.201 33.2963C27.1983 32.3313 25.5565 31.5501 23.5311 31.5502ZM40.6952 31.8392C39.7832 31.8237 38.6041 32.274 37.5526 32.5384C38.376 33.1657 39.2564 34.0847 40.5721 34.4467C42.0828 34.677 42.9422 34.0252 43.0272 33.5638C43.0997 33.1703 42.6087 32.1118 41.0682 31.8763C40.9499 31.8532 40.8255 31.8415 40.6952 31.8392ZM37.1385 34.183C36.9337 34.9379 36.5126 35.8424 36.7049 36.7982C37.0761 37.8232 37.9242 38.0999 38.3299 37.972C38.676 37.863 39.3525 37.1464 38.9745 36.1009C38.7749 35.4431 37.8276 34.8085 37.1385 34.183Z" fill="#333333"/>
</svg>
