<svg width="48" height="48" viewBox="0 0 48 48" fill="none" xmlns="http://www.w3.org/2000/svg">
<path fill-rule="evenodd" clip-rule="evenodd" d="M17.1311 6.79354C13.4884 6.88185 10.6058 9.02366 10.5325 11.6978C10.4562 14.4843 13.4476 16.838 17.246 16.9803L19.5212 21.1736L23.6056 14.3723V14.3663C24.1221 13.6655 24.4018 12.8841 24.4255 12.0821C24.5021 9.26836 21.4551 6.90149 17.6182 6.79662C17.4557 6.79145 17.2934 6.79037 17.1311 6.7935V6.79354ZM31.0149 8.23669C30.854 8.23357 30.6919 8.23465 30.5308 8.23981C28.0462 8.30773 25.9157 9.34096 24.7431 10.8205C24.8546 11.2174 24.921 11.6252 24.9095 12.0458C24.8841 12.9095 24.5823 13.7539 24.0261 14.5086V14.5146L23.9868 14.5811C24.1239 14.986 24.3234 15.3777 24.5949 15.7459V15.7519L28.643 22.4957L30.9 18.3356C34.6666 18.1945 37.6316 15.8618 37.556 13.0986C37.4833 10.4468 34.6271 8.32423 31.0149 8.23666V8.23669ZM13.6548 20.1479C10.11 20.1485 7.23762 22.9482 7.24082 26.3986C7.24226 29.8457 10.1133 32.6396 13.6548 32.6401C17.1996 32.6438 20.0734 29.8488 20.0748 26.3986C20.078 22.9451 17.2029 20.144 13.6548 20.1479ZM35.3413 20.1479C31.7965 20.1485 28.9242 22.9482 28.9273 26.3986C28.9287 29.8457 31.7998 32.6396 35.3413 32.6401C38.8861 32.6438 41.7599 29.8488 41.7614 26.3986C41.7646 22.9451 38.8894 20.144 35.3413 20.1479ZM13.1344 33.7414C11.6166 33.7761 8.50066 33.9884 7.18583 34.7307C4.38439 36.3112 4.29055 39.4254 4.28796 42.5878H13.3492H22.4044C22.4036 39.427 22.3911 36.3015 19.5928 34.7189C18.1524 33.9058 14.7972 33.7026 13.1344 33.7414ZM34.821 33.7414C33.3031 33.7761 30.107 34.1821 28.7922 34.9243C25.9907 36.5048 25.9771 39.4254 25.9745 42.5878H35.0358H44.091C44.0901 39.427 44.2146 36.233 41.4163 34.6505C39.9759 33.8373 36.4838 33.7026 34.821 33.7414Z" fill="#333333"/>
</svg>
