<svg width="48" height="48" viewBox="0 0 48 48" fill="none" xmlns="http://www.w3.org/2000/svg">
<path fill-rule="evenodd" clip-rule="evenodd" d="M23.9997 4C12.9539 4 4 12.9539 4 23.9997C4 35.0456 12.9539 43.9995 23.9997 43.9995C35.0456 43.9995 43.9995 35.0456 43.9995 23.9997C43.9995 12.9539 35.0456 4 23.9997 4ZM23.9997 4.51759C34.7596 4.51759 43.4815 13.2399 43.4815 23.9993C43.4815 34.7588 34.7596 43.4811 23.9997 43.4811C13.2399 43.4811 4.51799 34.7592 4.51799 23.9993C4.51759 13.2395 13.2399 4.51759 23.9997 4.51759ZM17.1458 13.8829C16.2085 13.8831 15.3095 14.3765 14.6466 15.2546C13.9838 16.1328 13.6112 17.3238 13.6109 18.5658C13.6107 19.1811 13.7021 19.7903 13.8796 20.3588C14.0572 20.9273 14.3176 21.4438 14.6458 21.879C14.9741 22.3141 15.3638 22.6593 15.7928 22.8948C16.2217 23.1304 16.6815 23.2517 17.1458 23.2518C17.6104 23.2522 18.0705 23.1313 18.4998 22.896C18.9291 22.6607 19.3192 22.3156 19.6478 21.8804C19.9763 21.4452 20.237 20.9284 20.4147 20.3597C20.5925 19.791 20.6839 19.1814 20.6838 18.5658C20.6836 17.9505 20.592 17.3412 20.4141 16.7728C20.2362 16.2045 19.9755 15.6881 19.647 15.2532C19.3184 14.8183 18.9284 14.4735 18.4993 14.2384C18.0701 14.0032 17.6102 13.8824 17.1458 13.8829ZM30.0507 13.8829C29.1133 13.8831 28.2144 14.3765 27.5515 15.2546C26.8886 16.1328 26.516 17.3238 26.5157 18.5658C26.5156 19.1811 26.6069 19.7903 26.7845 20.3588C26.9621 20.9273 27.2224 21.4438 27.5507 21.879C27.8789 22.3141 28.2687 22.6593 28.6976 22.8948C29.1266 23.1304 29.5863 23.2517 30.0507 23.2518C30.5152 23.252 30.9752 23.131 31.4043 22.8956C31.8335 22.6602 32.2235 22.3151 32.552 21.8799C32.8804 21.4447 33.141 20.928 33.3187 20.3594C33.4964 19.7908 33.5878 19.1813 33.5876 18.5658C33.5875 17.9506 33.4959 17.3415 33.318 16.7732C33.1402 16.2049 32.8796 15.6885 32.5512 15.2537C32.2227 14.8188 31.8329 14.4739 31.4038 14.2387C30.9748 14.0035 30.515 13.8826 30.0507 13.8829ZM17.1458 14.3949C17.5594 14.3946 17.969 14.5022 18.3512 14.7117C18.7334 14.9211 19.0807 15.2283 19.3733 15.6156C19.6659 16.0029 19.898 16.4628 20.0565 16.969C20.215 17.4752 20.2966 18.0178 20.2968 18.5658C20.2969 19.1141 20.2155 19.657 20.0571 20.1636C19.8988 20.6701 19.6667 21.1303 19.3741 21.518C19.0815 21.9056 18.7341 22.213 18.3517 22.4227C17.9694 22.6323 17.5596 22.7401 17.1458 22.7398C16.3107 22.7393 15.5099 22.2993 14.9195 21.5166C14.3292 20.7338 13.9977 19.6724 13.9979 18.5658C13.9983 17.4597 14.33 16.3991 14.9203 15.617C15.5106 14.8349 16.3111 14.3953 17.1458 14.3949ZM30.0507 14.3949C30.8858 14.3946 31.6868 14.8339 32.2775 15.6161C32.8682 16.3982 33.2003 17.4593 33.2006 18.5658C33.2007 19.114 33.1193 19.6568 32.9611 20.1632C32.8028 20.6697 32.5708 21.1299 32.2783 21.5175C31.9858 21.9051 31.6385 22.2126 31.2563 22.4223C30.874 22.632 30.4644 22.7399 30.0507 22.7398C29.6371 22.7397 29.2275 22.6317 28.8454 22.4219C28.4633 22.2121 28.1161 21.9046 27.8237 21.517C27.5313 21.1294 27.2994 20.6693 27.1412 20.1629C26.983 19.6566 26.9016 19.1139 26.9017 18.5658C26.9021 17.4595 27.234 16.3987 27.8245 15.6165C28.415 14.8344 29.2157 14.395 30.0507 14.3949ZM11.1369 28.3297V28.3727V28.8437H11.1639C11.2542 30.6229 11.8694 32.3541 12.9527 33.8777C14.0361 35.4013 15.5527 36.6682 17.3628 37.5616C19.2575 38.4931 21.4069 38.9838 23.5949 38.9841C25.783 38.9845 27.9326 38.4945 29.8277 37.5636C31.6418 36.6721 33.1627 35.4057 34.2496 33.8816C35.3366 32.3576 35.9546 30.6249 36.0466 28.8437H36.0616V28.3297H11.1369ZM11.6639 28.8437H35.4996C35.39 30.5316 34.7898 32.1698 33.7531 33.6106C32.7163 35.0515 31.2756 36.2498 29.5607 37.0976C27.7434 37.9923 25.6818 38.4631 23.5834 38.4628C21.485 38.4624 19.4237 37.9909 17.6068 37.0956C15.8915 36.2484 14.4502 35.0505 13.4127 33.61C12.3753 32.1695 11.7743 30.5316 11.6639 28.8437Z" fill="#333333"/>
</svg>
