<svg width="48" height="48" viewBox="0 0 48 48" fill="none" xmlns="http://www.w3.org/2000/svg">
<path d="M28.2695 5.23438L13.8867 17.2266L16.4453 28.3438L35.4199 28.6836C30.6016 20.9332 28.4527 12.0982 28.2695 5.23438ZM27.8125 6.26758C28.1395 14.06 30.5366 21.318 34.5156 28.168L16.8515 27.8438L14.4492 17.4258L27.8125 6.26758ZM36.2773 6.47852C35.8603 6.45471 35.4511 6.49238 35.0566 6.5918C34.4849 6.73783 33.9487 7.01146 33.4648 7.4043C33.5435 7.3768 33.6229 7.3525 33.7031 7.33008C35.2701 6.93776 37.0138 7.52208 38.5507 8.95703C40.0876 10.392 41.2918 12.5589 41.8984 14.9805C42.3892 16.9455 42.4574 18.9615 42.0917 20.7266C41.7259 22.4918 40.9466 23.9126 39.8691 24.7793C41.3681 24.3015 42.5569 22.9381 43.1875 20.9746C43.8181 19.0112 43.8408 16.5984 43.2519 14.2422C42.7246 12.1354 41.7419 10.2122 40.4707 8.79688C39.1995 7.38162 37.7182 6.56302 36.2773 6.47852ZM34.455 9.85546C34.1593 9.83858 33.8695 9.86518 33.5898 9.93554C33.1834 10.039 32.801 10.2347 32.457 10.5137C32.5129 10.4943 32.57 10.4767 32.6269 10.4609C33.7395 10.1828 34.9772 10.5984 36.0683 11.6172C37.1594 12.636 38.0145 14.1733 38.4453 15.8926C38.794 17.2876 38.8432 18.7192 38.5839 19.9727C38.3246 21.2262 37.7705 22.2355 37.0058 22.8516C38.0701 22.5119 38.9137 21.5428 39.3613 20.1484C39.8089 18.754 39.8265 17.0422 39.4082 15.3691C39.0336 13.8731 38.3344 12.5068 37.4316 11.502C36.5289 10.4972 35.4782 9.91535 34.455 9.85546ZM33.0742 13.248C32.9084 13.2383 32.7447 13.2518 32.5878 13.291C32.3587 13.3489 32.145 13.46 31.9511 13.6172C31.9832 13.6059 32.0141 13.595 32.0468 13.5859C32.6721 13.4295 33.3693 13.6637 33.9824 14.2363C34.5956 14.8089 35.0744 15.6725 35.3164 16.6387C35.5124 17.4228 35.5403 18.2272 35.3945 18.9316C35.2486 19.6361 34.9378 20.2028 34.5078 20.5488C35.1061 20.3583 35.5803 19.8148 35.832 19.0312C36.0837 18.2478 36.0924 17.2861 35.8574 16.3457C35.6468 15.5049 35.2555 14.7365 34.748 14.1719C34.2405 13.6073 33.6493 13.2813 33.0742 13.248ZM13.1132 17.4043C9.36574 18.2357 6.13135 20.085 4.64644 22.2441C3.1629 24.4019 3.6556 26.5376 5.9355 27.8359C8.21537 29.1358 11.9348 29.396 15.6718 28.5195L13.1132 17.4043ZM15.9335 29.3496C10.7032 30.2823 9.5458 29.8917 7.58979 29.4629L10.621 43.0273C12.1634 43.1208 17.72 42.4206 19.9414 39.4453C17.6394 37.9749 15.2572 34.777 15.9335 29.3496ZM15.3632 29.9492C15.0061 34.6278 16.5224 37.6129 19.2031 39.5449C17.5535 41.0758 13.4486 42.5659 11.0273 42.5234L8.25386 30.123C10.2332 30.5774 12.7218 30.3639 15.3632 29.9492Z" fill="#333333"/>
</svg>
