<svg width="48" height="48" viewBox="0 0 48 48" fill="none" xmlns="http://www.w3.org/2000/svg">
<g clip-path="url(#clip0)">
<path fill-rule="evenodd" clip-rule="evenodd" d="M4 11.5V27.4998H31.9996V11.5H4ZM4.51366 12.0136H31.4853V26.9855H4.51366V12.0136ZM16.4865 12.4863V16.9862H11.9866V21.0135H16.4865V25.5134H20.5138V21.0135H25.0137V16.9862H20.5138V12.4863H16.4865ZM16.9995 12.9993H19.9995V17.4992H24.4994V20.4992H19.9995V24.9991H16.9995V20.4992H12.4996V17.4992H16.9995V12.9993ZM32.9993 16.4992V32.499H35.1438C35.5878 30.9808 36.9799 29.9372 38.5617 29.9366C40.1436 29.9372 41.5356 30.9808 41.9797 32.499H43.9997V24.4991L40.1286 16.4992H32.9993ZM39.8 17.009L43.4328 24.4952H33.5169V17.0109L39.8 17.009ZM33.5169 25.0089L43.4856 25.0128V31.9854H42.4485C42.1425 31.1991 41.6062 30.5236 40.9098 30.0474C40.2133 29.5711 39.3892 29.3163 38.5455 29.3165C37.7026 29.3171 36.8795 29.5721 36.1839 30.0481C35.4882 30.5241 34.9524 31.199 34.6466 31.9844H33.5118L33.5169 25.0089ZM3.99927 28.4989V32.4988H5.58125C6.02534 30.9808 7.41733 29.9368 8.99921 29.9368C10.5811 29.9374 11.9731 30.981 12.4172 32.4993H14.5499C14.994 30.981 16.386 29.9374 17.9679 29.9368C19.5498 29.9374 20.9418 30.981 21.3859 32.4993H31.9987V28.4994L3.99927 28.4989ZM4.51293 29.0125H31.4846V31.9852H21.8949C21.5889 31.1992 21.0526 30.524 20.3563 30.0479C19.66 29.5718 18.8361 29.3172 17.9927 29.3172C17.1498 29.318 16.3269 29.573 15.6313 30.049C14.9358 30.525 14.4001 31.1998 14.0943 31.9852H12.9009C12.595 31.1991 12.0589 30.5236 11.3626 30.0474C10.6664 29.5712 9.84252 29.3163 8.99897 29.3162C8.15616 29.317 7.33318 29.572 6.63766 30.048C5.94213 30.524 5.40644 31.1988 5.10062 31.9842H4.51274L4.51293 29.0125ZM8.99917 30.4985C7.3423 30.4985 5.99921 31.8416 5.99921 33.4985C5.99921 35.1554 7.3423 36.4984 8.99917 36.4984C10.6561 36.4984 11.9991 35.1554 11.9991 33.4985C11.9991 31.8416 10.6561 30.4985 8.99917 30.4985ZM17.9679 30.4985C16.311 30.4985 14.9679 31.8416 14.9679 33.4985C14.9679 35.1554 16.311 36.4984 17.9679 36.4984C19.6247 36.4984 20.9678 35.1554 20.9678 33.4985C20.9678 31.8416 19.6247 30.4985 17.9679 30.4985ZM38.5616 30.4985C36.9047 30.4985 35.5616 31.8416 35.5616 33.4985C35.5616 35.1554 36.9047 36.4984 38.5616 36.4984C40.2185 36.4984 41.5616 35.1554 41.5616 33.4985C41.5616 31.8416 40.2185 30.4985 38.5616 30.4985ZM8.99897 31.0065C9.32544 31.0065 9.64871 31.0708 9.95033 31.1957C10.2519 31.3206 10.526 31.5038 10.7569 31.7346C10.9877 31.9654 11.1708 32.2395 11.2957 32.5411C11.4207 32.8427 11.485 33.166 11.4849 33.4925C11.485 33.8189 11.4207 34.1422 11.2957 34.4438C11.1708 34.7454 10.9877 35.0195 10.7569 35.2503C10.526 35.4812 10.2519 35.6643 9.95033 35.7892C9.64871 35.9142 9.32544 35.9785 8.99897 35.9784C8.67248 35.9785 8.34918 35.9142 8.04753 35.7893C7.74588 35.6644 7.47178 35.4813 7.24091 35.2505C7.01003 35.0196 6.82689 34.7455 6.70194 34.4439C6.577 34.1423 6.51269 33.819 6.51271 33.4925C6.51269 33.166 6.577 32.8427 6.70194 32.541C6.82689 32.2394 7.01003 31.9653 7.24091 31.7345C7.47178 31.5036 7.74588 31.3205 8.04753 31.1956C8.34918 31.0707 8.67248 31.0064 8.99897 31.0065ZM17.9579 31.0065C18.2844 31.0064 18.6077 31.0707 18.9094 31.1957C19.2111 31.3206 19.4852 31.5037 19.716 31.7346C19.9469 31.9655 20.1301 32.2396 20.255 32.5413C20.3799 32.8429 20.4442 33.1663 20.4441 33.4928C20.4442 33.8193 20.3799 34.1426 20.255 34.4443C20.1301 34.746 19.9469 35.0201 19.716 35.2509C19.4852 35.4818 19.2111 35.665 18.9094 35.7899C18.6077 35.9148 18.2844 35.9791 17.9579 35.979C17.2988 35.9786 16.6668 35.7165 16.2009 35.2503C15.735 34.784 15.4734 34.1519 15.4735 33.4928C15.4734 32.8337 15.735 32.2015 16.2009 31.7353C16.6668 31.269 17.2988 31.0069 17.9579 31.0065ZM38.5626 31.0065C38.8891 31.0064 39.2124 31.0707 39.5141 31.1957C39.8158 31.3206 40.0899 31.5037 40.3208 31.7346C40.5517 31.9655 40.7348 32.2396 40.8597 32.5413C40.9847 32.8429 41.0489 33.1663 41.0489 33.4928C41.0489 33.8193 40.9847 34.1426 40.8597 34.4443C40.7348 34.746 40.5517 35.0201 40.3208 35.2509C40.0899 35.4818 39.8158 35.665 39.5141 35.7899C39.2124 35.9148 38.8891 35.9791 38.5626 35.979C37.9035 35.9786 37.2715 35.7165 36.8057 35.2503C36.3398 34.784 36.0781 34.1519 36.0782 33.4928C36.0781 32.8337 36.3398 32.2015 36.8057 31.7353C37.2715 31.269 37.9035 31.0069 38.5626 31.0065Z" fill="#333333"/>
</g>
<defs>
<clipPath id="clip0">
<rect width="48" height="48" fill="white"/>
</clipPath>
</defs>
</svg>
