<svg width="48" height="48" viewBox="0 0 48 48" fill="none" xmlns="http://www.w3.org/2000/svg">
<path fill-rule="evenodd" clip-rule="evenodd" d="M24 4C18.6957 4 13.6086 6.10714 9.85786 9.85786C6.10714 13.6086 4 18.6957 4 24C4 29.3043 6.10714 34.3914 9.85786 38.1421C13.6086 41.8929 18.6957 44 24 44C29.3043 44 34.3914 41.8929 38.1421 38.1421C41.8929 34.3914 44 29.3043 44 24C44 18.6957 41.8929 13.6086 38.1421 9.85786C34.3914 6.10714 29.3043 4 24 4ZM24 4.52C26.5582 4.52 29.0913 5.02387 31.4547 6.00283C33.8181 6.98179 35.9656 8.41667 37.7744 10.2256C39.5833 12.0344 41.0182 14.1819 41.9972 16.5453C42.9761 18.9087 43.48 21.4418 43.48 24C43.48 26.5582 42.9761 29.0913 41.9972 31.4547C41.0182 33.8181 39.5833 35.9656 37.7744 37.7744C35.9656 39.5833 33.8181 41.0182 31.4547 41.9972C29.0913 42.9761 26.5582 43.48 24 43.48C18.8336 43.48 13.8788 41.4276 10.2256 37.7744C6.57235 34.1212 4.52 29.1664 4.52 24C4.52 18.8336 6.57235 13.8788 10.2256 10.2256C13.8788 6.57235 18.8336 4.52 24 4.52ZM17.15 13.88C15.19 13.88 13.61 15.98 13.61 18.57C13.61 21.15 15.19 23.25 17.15 23.25C19.1 23.25 20.68 21.15 20.68 18.57C20.68 15.97 19.1 13.88 17.15 13.88ZM30.05 13.88C28.1 13.88 26.51 15.98 26.51 18.57C26.51 21.15 28.1 23.25 30.05 23.25C32 23.25 33.59 21.15 33.59 18.57C33.59 15.97 32 13.88 30.05 13.88ZM16.19 32.36V32.87H31.8V32.37H16.2L16.19 32.36Z" fill="#333333"/>
</svg>
