<svg width="48" height="48" viewBox="0 0 48 48" fill="none" xmlns="http://www.w3.org/2000/svg">
<path fill-rule="evenodd" clip-rule="evenodd" d="M24 4C18.6957 4 13.6086 6.10714 9.85786 9.85786C6.10714 13.6086 4 18.6957 4 24C4 29.3043 6.10714 34.3914 9.85786 38.1421C13.6086 41.8929 18.6957 44 24 44C29.3043 44 34.3914 41.8929 38.1421 38.1421C41.8929 34.3914 44 29.3043 44 24C44 18.6957 41.8929 13.6086 38.1421 9.85786C34.3914 6.10714 29.3043 4 24 4ZM24 4.52C29.1677 4.52 34.1238 6.57288 37.778 10.227C41.4321 13.8812 43.485 18.8373 43.485 24.005C43.485 29.1727 41.4321 34.1288 37.778 37.783C34.1238 41.4371 29.1677 43.49 24 43.49C18.8323 43.49 13.8762 41.4371 10.222 37.783C6.56788 34.1288 4.515 29.1727 4.515 24.005C4.515 18.8373 6.56788 13.8812 10.222 10.227C13.8762 6.57288 18.8323 4.52 24 4.52ZM17.15 13.89C15.19 13.89 13.61 15.99 13.61 18.57C13.61 21.16 15.19 23.26 17.15 23.26C19.1 23.26 20.68 21.16 20.68 18.57C20.68 15.99 19.1 13.89 17.15 13.89ZM30.05 13.89C28.1 13.89 26.52 15.99 26.52 18.57C26.52 21.16 28.1 23.26 30.05 23.26C32 23.26 33.59 21.16 33.59 18.57C33.59 15.99 32 13.89 30.05 13.89ZM16.63 30.04L16.47 30.53L31.37 35.21L31.53 34.72L16.63 30.04Z" fill="#333333"/>
</svg>
