<svg width="48" height="48" viewBox="0 0 48 48" fill="none" xmlns="http://www.w3.org/2000/svg">
<path d="M23.4707 4.97266C16.431 4.99215 15.3373 9.0887 15.3966 17.4565C15.4054 17.9999 15.4192 19.2768 16.5372 19.5249C16.5682 22.3792 17.1303 24.0127 18.5293 24.9564C20.6193 26.2721 21.6564 27.1373 23.4961 27.1947C24.756 27.1985 26.367 26.0597 28.1054 24.972C29.6685 23.994 30.4648 21.9461 30.4648 19.8725C30.4642 19.7904 30.4634 19.7084 30.4628 19.6264C31.6404 19.6465 31.4302 18.2591 31.5331 17.4565C31.5721 8.08383 30.3861 4.98167 23.4992 4.97367H23.4973C23.4874 4.97361 23.4794 4.97367 23.4699 4.97367L23.4707 4.97266ZM23.3594 10.082C25.6193 12.3519 27.2518 14.1558 29.8105 12.8535C29.949 15.0914 29.9803 17.2941 29.9472 19.5702C29.9472 21.4454 29.3138 23.6019 27.9003 24.4861C26.3283 25.4698 24.6745 26.6832 23.5352 26.6795C21.8715 26.6319 20.5892 25.6566 18.6993 24.4666C17.3633 23.6266 17.0333 21.4796 17.0383 19.5947L17.0462 16.6064C17.771 9.98559 22.8827 14.8248 23.3586 10.0831L23.3594 10.082ZM20.4922 15.9393C20.0532 15.9394 19.6974 16.2953 19.6973 16.7342C19.6974 17.1732 20.0532 17.529 20.4922 17.5291C20.9312 17.529 21.287 17.1731 21.2871 16.7342C21.287 16.2953 20.9311 15.9394 20.4922 15.9393ZM26.4609 15.9393C26.0219 15.9394 25.6661 16.2953 25.666 16.7342C25.6661 17.1732 26.0219 17.529 26.4609 17.5291C26.8999 17.529 27.2557 17.1731 27.2558 16.7342C27.2557 16.2953 26.8999 15.9394 26.4609 15.9393ZM23.4257 19.6073C23.0476 19.6111 22.7557 19.6778 22.7597 19.7557C22.7617 19.8366 23.0821 19.9026 23.4765 19.9022C23.8709 19.9022 24.1913 19.8366 24.1933 19.7557C24.1965 19.6737 23.8747 19.6073 23.4765 19.6073C23.4595 19.6072 23.4425 19.6072 23.4257 19.6073ZM26.3808 21.8689C26.3807 21.8694 26.3695 21.8704 26.3691 21.8709C26.3692 21.8713 26.3808 21.8705 26.3808 21.8709V21.8689ZM26.3691 21.8709C26.3532 21.8172 25.1423 21.9421 23.6406 22.1541C23.5762 22.1617 23.5117 22.1739 23.4473 22.1814C22.0104 22.3889 20.9057 22.5914 20.9258 22.6424C20.9519 22.6945 22.1743 22.565 23.668 22.3533C25.15 22.1432 26.3412 21.9296 26.3691 21.8709ZM30.3124 27.4313C28.7473 28.9015 25.5947 30.2428 23.5098 30.2751C21.7684 30.2731 20.0801 29.7934 18.6037 28.9255C18.2776 28.7338 17.9629 28.522 17.6584 28.2947C17.6273 28.2711 17.5955 28.2483 17.5646 28.2243C17.2531 27.9858 16.9535 27.7289 16.6721 27.449L16.5627 27.4783C16.5137 27.4959 16.467 27.5188 16.4182 27.5369C15.5941 27.8393 14.7878 28.1752 13.9807 28.5251L13.0588 28.9255H13.0569C12.2669 29.2615 11.4769 29.5985 10.6879 29.9355V29.9375C10.229 30.1302 9.75782 30.3198 9.27582 30.5058C9.2747 30.5063 9.27304 30.5054 9.27192 30.5058C9.15021 30.5524 9.02432 30.5979 8.90278 30.6445C8.68914 30.7242 8.482 30.8057 8.26021 30.8828C8.23716 30.8896 8.2223 30.9012 8.19967 30.9082C7.95297 30.9846 7.73431 31.0749 7.53561 31.1758C7.44668 31.2204 7.36602 31.2696 7.28562 31.3183C7.17291 31.3876 7.06982 31.4606 6.97312 31.5371C6.75499 31.7071 6.56845 31.8887 6.4204 32.0859C5.91946 32.7532 5.78098 33.5124 5.74268 34.1797C5.72427 34.4418 5.71533 34.6911 5.71533 34.9023V41.5645H41.2869V34.9015C41.2869 34.6837 41.2756 34.4251 41.2556 34.1535C41.2457 33.9918 41.2344 33.843 41.2088 33.6711C41.2085 33.6692 41.209 33.6671 41.2088 33.6652C41.1291 33.1355 40.9542 32.5808 40.5818 32.0851C40.5778 32.0798 40.5722 32.0749 40.5681 32.0695C40.4239 31.8803 40.2442 31.7042 40.035 31.5402C39.9343 31.4601 39.825 31.384 39.7068 31.3117C39.633 31.2672 39.5593 31.2239 39.4783 31.1828C39.2583 31.0696 39.0218 30.9646 38.742 30.882C38.3944 30.7613 38.0728 30.6314 37.742 30.5051C36.92 30.1921 36.127 29.8701 35.368 29.5411L33.9501 28.9261L32.7181 28.3911H32.7161C31.9211 28.0501 31.1281 27.7221 30.3111 27.4321L30.3124 27.4313ZM14.3476 28.9254H17.6796C18.4758 29.4846 19.5973 30.1352 20.998 30.5055H10.6461L10.7379 30.4703C11.9912 29.9434 13.156 29.4385 14.3472 28.9255L14.3476 28.9254ZM29.1015 28.9254H32.6541L32.7166 28.9528L35.3689 30.1011L35.8786 30.3218L36.3493 30.5054H25.6185C26.9267 30.1841 28.0337 29.6155 29.1008 28.9253L29.1015 28.9254ZM7.11274 32.0854H39.9213C40.3388 32.4475 40.6361 32.9425 40.7319 33.6654H33.9519V35.2435H40.7664L40.7683 36.8236H33.9514V38.4037H40.7677L40.7697 39.9838H6.2301L6.23205 38.4037H13.0484V36.8237H6.23385L6.23581 35.2436H13.0482V33.6656H6.32551C6.44191 33.0976 6.6177 32.5466 7.1126 32.0856L7.11274 32.0854ZM17.6186 33.4819C17.0899 33.4819 16.684 33.6562 16.4018 34.0072C16.1219 34.3582 15.9819 34.8726 15.9819 35.5502V36.4428C15.9886 37.0937 16.1317 37.594 16.4116 37.9428C16.6915 38.2915 17.0977 38.4662 17.6264 38.4662C18.1618 38.4662 18.5674 38.2885 18.8452 37.933C19.1228 37.5776 19.2612 37.0649 19.2612 36.3939V35.4999C19.2545 34.849 19.1114 34.3505 18.8315 34.0039C18.5516 33.6551 18.1473 33.4824 17.6186 33.4824V33.4819ZM21.5385 33.4819C21.0097 33.4819 20.6038 33.6562 20.3217 34.0072C20.0418 34.3582 19.9018 34.8726 19.9018 35.5502V36.4428C19.9084 37.0937 20.0515 37.594 20.3314 37.9428C20.6114 38.2915 21.0156 38.4662 21.5443 38.4662C22.0797 38.4662 22.4854 38.2885 22.7631 37.933C23.0408 37.5776 23.1811 37.0649 23.1811 36.3939V35.4999C23.1744 34.849 23.0313 34.3505 22.7514 34.0039C22.4715 33.6551 22.0672 33.4824 21.5385 33.4824V33.4819ZM25.4564 33.4819C24.9277 33.4819 24.5218 33.6562 24.2396 34.0072C23.9597 34.3582 23.8197 34.8726 23.8197 35.5502V36.4428C23.8264 37.0937 23.9695 37.594 24.2494 37.9428C24.5293 38.2915 24.9335 38.4662 25.4623 38.4662C25.9977 38.4662 26.4053 38.2885 26.683 37.933C26.9607 37.5776 27.099 37.0649 27.099 36.3939V35.4999C27.0923 34.849 26.9492 34.3505 26.6693 34.0039C26.3894 33.6551 25.9851 33.4824 25.4564 33.4824V33.4819ZM29.3744 33.4819C28.8456 33.4819 28.4417 33.6562 28.1596 34.0072C27.8797 34.3582 27.7397 34.8726 27.7397 35.5502V36.4428C27.7463 37.0937 27.8894 37.594 28.1693 37.9428C28.4493 38.2915 28.8535 38.4662 29.3822 38.4662C29.9176 38.4662 30.3233 38.2885 30.601 37.933C30.8787 37.5776 31.019 37.0649 31.019 36.3939V35.4999C31.0123 34.849 30.8692 34.3505 30.5893 34.0039C30.3103 33.6549 29.9043 33.4819 29.3753 33.4819H29.3744ZM17.6185 34.2611C17.8518 34.2611 18.0233 34.3521 18.1322 34.5365C18.2432 34.7187 18.2982 35.0114 18.2982 35.4135V36.5658C18.2937 36.9456 18.2405 37.229 18.1361 37.4134C18.0317 37.5978 17.8618 37.6888 17.6263 37.6888C17.3886 37.6888 17.2137 37.5947 17.1048 37.4036C16.9982 37.2104 16.9447 36.9163 16.9447 36.5208V35.3411C16.9513 34.9702 17.008 34.698 17.1146 34.5247C17.2235 34.3492 17.3919 34.2611 17.6185 34.2611ZM21.5384 34.2611C21.7716 34.2611 21.9412 34.3521 22.0501 34.5365C22.1611 34.7187 22.218 35.0114 22.218 35.4135V36.5658C22.2136 36.9456 22.1584 37.229 22.054 37.4134C21.9496 37.5978 21.7797 37.6888 21.5442 37.6888C21.3065 37.6888 21.1335 37.5947 21.0247 37.4036C20.9181 37.2104 20.8645 36.9163 20.8645 36.5208V35.3411C20.8712 34.9702 20.9278 34.698 21.0345 34.5247C21.1433 34.3492 21.3118 34.2611 21.5384 34.2611ZM25.4563 34.2611C25.6896 34.2611 25.8611 34.3521 25.97 34.5365C26.081 34.7187 26.136 35.0114 26.136 35.4135V36.5658C26.1315 36.9456 26.0763 37.229 25.9719 37.4134C25.8675 37.5978 25.6977 37.6888 25.4622 37.6888C25.2245 37.6888 25.0515 37.5947 24.9426 37.4036C24.836 37.2104 24.7825 36.9163 24.7825 36.5208V35.3411C24.7891 34.9702 24.8458 34.698 24.9524 34.5247C25.0613 34.3492 25.2297 34.2611 25.4563 34.2611ZM29.3743 34.2611C29.6075 34.2611 29.7791 34.3521 29.8879 34.5365C29.999 34.7187 30.0559 35.0114 30.0559 35.4135V36.5658C30.0514 36.9456 29.9962 37.229 29.8918 37.4134C29.7874 37.5978 29.6176 37.6888 29.3821 37.6888C29.1444 37.6888 28.9714 37.5947 28.8625 37.4036C28.7555 37.2116 28.7015 36.9176 28.7015 36.5216V35.342C28.7082 34.971 28.7648 34.6988 28.8715 34.5256C28.9803 34.3501 29.1468 34.2619 29.3734 34.2619L29.3743 34.2611Z" fill="#333333"/>
</svg>
