<svg width="48" height="48" viewBox="0 0 48 48" fill="none" xmlns="http://www.w3.org/2000/svg">
<path fill-rule="evenodd" clip-rule="evenodd" d="M0 0V47.9994H47.9994V0H0ZM23.4707 4.97264C23.4797 4.97264 23.4877 4.97254 23.4977 4.97264H23.4997C30.3866 4.98074 31.5726 8.0831 31.5326 17.4565C31.4296 18.2585 31.6396 19.6445 30.4646 19.6265H30.4626V19.1105C30.4606 19.1105 30.4606 19.1125 30.4586 19.1125L30.4426 15.4935C30.4036 14.6065 30.3646 13.7355 30.3256 12.8215C30.2396 12.1725 29.9906 12.0615 29.6086 12.3845L29.3136 12.5115C27.3327 13.7375 25.3307 11.3456 22.9297 8.91559C22.8767 9.84028 22.8837 11.0006 22.2617 11.5546C21.6857 12.0315 20.7507 12.0815 19.8648 12.1905C18.7038 12.4665 17.5758 12.8205 17.0208 14.4545C16.6288 15.4835 16.6258 16.1575 16.5368 16.9095V19.5245H16.5388C16.5658 22.0224 16.9998 23.5854 18.0448 24.5694C16.9988 23.5854 16.5638 22.0234 16.5368 19.5245C15.4188 19.2765 15.4048 17.9995 15.3958 17.4565C15.3368 9.08839 16.4308 4.99164 23.4707 4.97264ZM23.3587 10.0819C25.6187 12.3518 27.2517 14.1558 29.8106 12.8538C29.9486 15.0908 29.9796 17.2938 29.9466 19.5698C29.9466 21.4457 29.3136 23.6017 27.8997 24.4857C26.3277 25.4697 24.6737 26.6827 23.5347 26.6797C21.8707 26.6317 20.5887 25.6567 18.6988 24.4667C17.3638 23.6257 17.0338 21.4787 17.0388 19.5938L17.0468 16.6048C17.7718 9.98437 22.8827 14.8238 23.3587 10.0819ZM20.4917 15.9388C20.0527 15.9398 19.6968 16.2948 19.6968 16.7338C19.6968 17.1728 20.0527 17.5288 20.4917 17.5288C20.9307 17.5288 21.2867 17.1728 21.2867 16.7338C21.2867 16.2948 20.9307 15.9398 20.4917 15.9388ZM26.4607 15.9388C26.0217 15.9398 25.6657 16.2948 25.6657 16.7338C25.6657 17.1728 26.0217 17.5288 26.4607 17.5288C26.8997 17.5288 27.2557 17.1728 27.2557 16.7338C27.2557 16.2948 26.8997 15.9398 26.4607 15.9388ZM23.4257 19.6068C23.0477 19.6108 22.7557 19.6778 22.7597 19.7558C22.7617 19.8368 23.0817 19.9028 23.4767 19.9018C23.8707 19.9018 24.1907 19.8368 24.1927 19.7558C24.1967 19.6738 23.8747 19.6068 23.4767 19.6068H23.4257ZM26.3807 21.8687C26.3807 21.8697 26.3697 21.8707 26.3687 21.8707H26.3807V21.8687ZM26.3687 21.8707C26.3527 21.8167 25.1417 21.9417 23.6407 22.1537C23.5757 22.1617 23.5117 22.1737 23.4467 22.1817C22.0097 22.3887 20.9057 22.5917 20.9257 22.6427C20.9517 22.6947 22.1737 22.5647 23.6677 22.3537C25.1497 22.1427 26.3407 21.9297 26.3687 21.8707ZM30.3116 27.4317C31.1286 27.7217 31.9216 28.0496 32.7166 28.3906H32.7186L33.9506 28.9256L35.3686 29.5406C36.1275 29.8696 36.9205 30.1916 37.7415 30.5056C38.0725 30.6316 38.3945 30.7616 38.7415 30.8826C39.0215 30.9646 39.2575 31.0696 39.4785 31.1836C39.5595 31.2246 39.6325 31.2676 39.7065 31.3116C39.8245 31.3846 39.9335 31.4606 40.0345 31.5406C40.2435 31.7046 40.4235 31.8806 40.5675 32.0696C40.5715 32.0756 40.5775 32.0806 40.5815 32.0856C40.9535 32.5816 41.1285 33.1356 41.2085 33.6656V33.6716C41.2345 33.8436 41.2455 33.9926 41.2555 34.1536C41.2755 34.4256 41.2865 34.6836 41.2865 34.9016V35.2436V36.8235V38.4035V39.9835V41.5635H5.71493L5.71473 41.0505V39.9835V38.4035V36.8235V35.2436V34.9016C5.71473 34.6906 5.72373 34.4416 5.74213 34.1796C5.78043 33.5116 5.91893 32.7526 6.41982 32.0856C6.56792 31.8886 6.75442 31.7066 6.97261 31.5366C7.06931 31.4606 7.17231 31.3876 7.28511 31.3176C7.36551 31.2696 7.44611 31.2196 7.53511 31.1756C7.7338 31.0746 7.9524 30.9846 8.1991 30.9076C8.2218 30.9006 8.2366 30.8896 8.2597 30.8826C8.48149 30.8056 8.68859 30.7236 8.90219 30.6446C9.02379 30.5976 9.14968 30.5516 9.27138 30.5056C9.27248 30.5046 9.27418 30.5056 9.27528 30.5056C9.75728 30.3196 10.2289 30.1296 10.6879 29.9376V29.9356C11.4769 29.5986 12.2668 29.2616 13.0568 28.9256H13.0588L13.9798 28.5246C14.7878 28.1746 15.5938 27.8397 16.4178 27.5367C16.4668 27.5187 16.5128 27.4957 16.5618 27.4787L16.6718 27.4487C16.9528 27.7287 17.2528 27.9857 17.5638 28.2246C17.5948 28.2486 17.6268 28.2706 17.6578 28.2946C17.9628 28.5216 18.2768 28.7336 18.6038 28.9256C20.0797 29.7936 21.7677 30.2726 23.5097 30.2746C25.5947 30.2426 28.7466 28.9016 30.3116 27.4317ZM14.3478 28.9256C13.1558 29.4386 11.9919 29.9436 10.7379 30.4706L10.6459 30.5056H20.9977C19.5968 30.1356 18.4758 29.4846 17.6798 28.9256H14.3478ZM29.1016 28.9256C28.0336 29.6156 26.9267 30.1846 25.6187 30.5056H36.3495L35.8786 30.3216L35.3686 30.1016L32.7166 28.9526L32.6536 28.9256H29.1016ZM7.11291 32.0856C6.61802 32.5466 6.44222 33.0976 6.32582 33.6656H13.0485V35.2436H6.23592L6.23402 36.8235H13.0485V38.4035H6.23202L6.23012 39.9835H40.7697V38.4035H33.9528V36.8235H40.7697L40.7677 35.2436H33.9528V33.6656H40.7317C40.6367 32.9426 40.3387 32.4476 39.9217 32.0856H7.11311H7.11291ZM17.6188 33.4816C18.1478 33.4816 18.5518 33.6546 18.8318 34.0036C19.1118 34.3496 19.2548 34.8486 19.2618 35.4996V36.3945C19.2618 37.0645 19.1228 37.5775 18.8458 37.9335C18.5678 38.2885 18.1618 38.4665 17.6268 38.4665C17.0978 38.4665 16.6918 38.2915 16.4118 37.9425C16.1318 37.5945 15.9888 37.0935 15.9818 36.4425V35.5506C15.9818 34.8726 16.1218 34.3586 16.4018 34.0076C16.6838 33.6566 17.0898 33.4816 17.6188 33.4816ZM21.5387 33.4816C22.0677 33.4816 22.4717 33.6546 22.7517 34.0036C23.0317 34.3496 23.1747 34.8486 23.1817 35.4996V36.3945C23.1817 37.0645 23.0407 37.5775 22.7637 37.9335C22.4857 38.2885 22.0797 38.4665 21.5447 38.4665C21.0157 38.4665 20.6117 38.2915 20.3317 37.9425C20.0518 37.5945 19.9088 37.0935 19.9018 36.4425V35.5506C19.9018 34.8726 20.0418 34.3586 20.3217 34.0076C20.6037 33.6566 21.0097 33.4816 21.5387 33.4816ZM25.4567 33.4816C25.9857 33.4816 26.3897 33.6546 26.6697 34.0036C26.9497 34.3496 27.0927 34.8486 27.0997 35.4996V36.3945C27.0997 37.0645 26.9607 37.5775 26.6837 37.9335C26.4057 38.2885 25.9977 38.4665 25.4627 38.4665C24.9337 38.4665 24.5297 38.2915 24.2497 37.9425C23.9697 37.5945 23.8267 37.0935 23.8197 36.4425V35.5506C23.8197 34.8726 23.9597 34.3586 24.2397 34.0076C24.5217 33.6566 24.9277 33.4816 25.4567 33.4816ZM29.3746 33.4816C29.9036 33.4816 30.3096 33.6546 30.5896 34.0036C30.8696 34.3496 31.0126 34.8486 31.0196 35.4996V36.3945C31.0196 37.0645 30.8786 37.5775 30.6016 37.9335C30.3236 38.2885 29.9176 38.4665 29.3826 38.4665C28.8536 38.4665 28.4496 38.2915 28.1696 37.9425C27.8897 37.5945 27.7467 37.0935 27.7397 36.4425V35.5506C27.7397 34.8726 27.8797 34.3586 28.1596 34.0076C28.4416 33.6566 28.8456 33.4816 29.3746 33.4816ZM17.6188 34.2616C17.3928 34.2616 17.2238 34.3496 17.1148 34.5246C17.0088 34.6986 16.9518 34.9706 16.9448 35.3416V36.5205C16.9448 36.9165 16.9988 37.2105 17.1048 37.4035C17.2138 37.5945 17.3888 37.6885 17.6268 37.6885C17.8618 37.6885 18.0318 37.5975 18.1368 37.4135C18.2408 37.2295 18.2938 36.9455 18.2988 36.5655V35.4136C18.2988 35.0116 18.2438 34.7186 18.1328 34.5366C18.0238 34.3526 17.8518 34.2616 17.6188 34.2616ZM21.5387 34.2616C21.3117 34.2616 21.1437 34.3496 21.0347 34.5246C20.9287 34.6986 20.8717 34.9706 20.8647 35.3416V36.5205C20.8647 36.9165 20.9187 37.2105 21.0247 37.4035C21.1337 37.5945 21.3067 37.6885 21.5447 37.6885C21.7797 37.6885 21.9497 37.5975 22.0547 37.4135C22.1587 37.2295 22.2137 36.9455 22.2187 36.5655V35.4136C22.2187 35.0116 22.1617 34.7186 22.0507 34.5366C21.9417 34.3526 21.7717 34.2616 21.5387 34.2616ZM25.4567 34.2616C25.2297 34.2616 25.0617 34.3496 24.9527 34.5246C24.8457 34.6986 24.7897 34.9706 24.7827 35.3416V36.5205C24.7827 36.9165 24.8367 37.2105 24.9427 37.4035C25.0517 37.5945 25.2247 37.6885 25.4627 37.6885C25.6977 37.6885 25.8677 37.5975 25.9727 37.4135C26.0767 37.2295 26.1317 36.9455 26.1367 36.5655V35.4136C26.1367 35.0116 26.0817 34.7186 25.9707 34.5366C25.8617 34.3526 25.6897 34.2616 25.4567 34.2616ZM29.3746 34.2616C29.1476 34.2616 28.9816 34.3496 28.8726 34.5246C28.7656 34.6986 28.7096 34.9706 28.7026 35.3416V36.5205C28.7026 36.9165 28.7566 37.2105 28.8626 37.4035C28.9716 37.5945 29.1446 37.6885 29.3826 37.6885C29.6176 37.6885 29.7876 37.5975 29.8926 37.4135C29.9966 37.2295 30.0516 36.9455 30.0566 36.5655V35.4136C30.0566 35.0116 29.9996 34.7186 29.8886 34.5366C29.7796 34.3526 29.6076 34.2616 29.3746 34.2616Z" fill="#333333"/>
</svg>
