<svg width="48" height="48" viewBox="0 0 48 48" fill="none" xmlns="http://www.w3.org/2000/svg">
<path d="M23.4707 4.97276C16.4308 4.99216 15.3368 9.0888 15.3958 17.4566C15.4048 17.9996 15.4188 19.2766 16.5368 19.5246C16.5678 22.3795 17.1298 24.0125 18.5288 24.9565C20.6187 26.2725 21.6557 27.1375 23.4957 27.1945C24.7557 27.1985 26.3667 26.0595 28.1046 24.9725C29.6686 23.9945 30.4646 21.9465 30.4646 19.8726C30.4636 19.7906 30.4626 19.7086 30.4626 19.6266C31.6396 19.6466 31.4296 18.2596 31.5326 17.4566C31.5726 8.08292 30.3866 4.98076 23.4997 4.97276L23.4977 4.97246C23.4877 4.97236 23.4797 4.97246 23.4707 4.97246V4.97276ZM23.2457 5.49025C25.2957 5.40995 26.7087 5.70505 27.7596 6.21294C29.8416 7.25503 30.2216 9.225 30.4506 9.95509C30.6466 10.888 30.7986 11.831 30.8766 12.793C30.9366 13.379 30.9606 13.9669 30.9796 14.5529L31.0196 17.4589C31.0666 18.7539 30.8246 19.1359 30.4566 19.1129L30.4406 15.4939C30.4016 14.6069 30.3626 13.7359 30.3236 12.822C30.2376 12.173 29.9886 12.062 29.6066 12.385L29.3116 12.512C27.3307 13.7379 25.3287 11.346 22.9277 8.91601C22.8757 9.8407 22.8817 11.001 22.2597 11.555C21.6837 12.032 20.7487 12.082 19.8627 12.191C18.7018 12.467 17.5738 12.821 17.0198 14.4549C16.6238 15.4919 16.6238 16.1679 16.5328 16.9279L16.5288 19.0119C16.2508 18.8559 15.9578 18.7629 15.9078 17.5779L15.9358 14.8339L16.1478 12.045C16.2538 11.078 16.6198 9.87219 17.1068 8.55271C17.8098 7.15953 18.7278 6.45264 19.7537 6.08794C20.7187 5.84075 21.3707 5.51705 23.2457 5.49025ZM23.3587 10.082C25.6187 12.352 27.2517 14.1559 29.8106 12.854C29.9486 15.0909 29.9796 17.2939 29.9466 19.5699C29.9466 21.4458 29.3136 23.6018 27.8996 24.4858C26.3277 25.4698 24.6737 26.6828 23.5347 26.6798C21.8707 26.6318 20.5887 25.6568 18.6988 24.4668C17.3638 23.6258 17.0338 21.4788 17.0388 19.5939L17.0468 16.6049C17.7718 9.98449 22.8827 14.8239 23.3587 10.082ZM20.4917 15.9389C20.0527 15.9399 19.6967 16.2949 19.6967 16.7339C19.6967 17.1729 20.0527 17.5289 20.4917 17.5289C20.9307 17.5289 21.2867 17.1729 21.2867 16.7339C21.2867 16.2949 20.9307 15.9399 20.4917 15.9389ZM26.4607 15.9389C26.0217 15.9399 25.6657 16.2949 25.6657 16.7339C25.6657 17.1729 26.0217 17.5289 26.4607 17.5289C26.8997 17.5289 27.2557 17.1729 27.2557 16.7339C27.2557 16.2949 26.8997 15.9399 26.4607 15.9389ZM23.4257 19.6069C23.0477 19.6109 22.7557 19.6779 22.7597 19.7559C22.7617 19.8369 23.0817 19.9029 23.4767 19.9019C23.8707 19.9019 24.1907 19.8369 24.1927 19.7559C24.1967 19.6739 23.8747 19.6069 23.4767 19.6069H23.4257ZM26.3807 21.8688C26.3807 21.8698 26.3697 21.8708 26.3687 21.8708H26.3807V21.8688ZM26.3687 21.8708C26.3527 21.8168 25.1417 21.9418 23.6407 22.1538C23.5757 22.1618 23.5117 22.1738 23.4467 22.1818C22.0097 22.3888 20.9057 22.5918 20.9257 22.6428C20.9517 22.6948 22.1737 22.5648 23.6677 22.3538C25.1497 22.1428 26.3407 21.9298 26.3687 21.8708ZM30.3116 27.4318C28.7466 28.9018 25.5947 30.2427 23.5097 30.2747C21.7677 30.2727 20.0797 29.7937 18.6038 28.9258C18.2768 28.7338 17.9628 28.5218 17.6578 28.2948C17.6268 28.2708 17.5948 28.2488 17.5638 28.2248C17.2528 27.9858 16.9528 27.7288 16.6718 27.4488L16.5618 27.4788C16.5128 27.4958 16.4668 27.5188 16.4178 27.5368C15.5938 27.8398 14.7878 28.1748 13.9798 28.5248L13.0588 28.9258H13.0568C12.2668 29.2618 11.4768 29.5987 10.6879 29.9357V29.9377C10.2289 30.1297 9.75727 30.3197 9.27528 30.5057C9.27418 30.5057 9.27248 30.5047 9.27138 30.5057C9.14968 30.5517 9.02378 30.5977 8.90218 30.6447C8.68858 30.7237 8.48149 30.8057 8.25969 30.8827C8.23659 30.8897 8.22179 30.9007 8.19909 30.9077C7.95239 30.9847 7.7338 31.0747 7.5351 31.1757C7.4461 31.2197 7.3655 31.2697 7.2851 31.3177C7.1723 31.3877 7.06931 31.4607 6.97261 31.5367C6.75441 31.7067 6.56791 31.8887 6.41981 32.0857C5.91892 32.7527 5.78042 33.5117 5.74212 34.1797C5.72372 34.4417 5.71472 34.6907 5.71472 34.9017V35.2437V36.8237V38.4036V39.9836V41.0506V41.5636H41.2863V39.9836V38.4036V36.8237V35.2437V34.9017C41.2863 34.6837 41.2753 34.4257 41.2553 34.1537C41.2453 33.9927 41.2343 33.8437 41.2083 33.6717V33.6657C41.1283 33.1357 40.9533 32.5817 40.5813 32.0857C40.5773 32.0807 40.5713 32.0757 40.5673 32.0697C40.4233 31.8807 40.2433 31.7047 40.0343 31.5407C39.9333 31.4607 39.8243 31.3847 39.7063 31.3117C39.6323 31.2677 39.5593 31.2247 39.4783 31.1837C39.2573 31.0697 39.0213 30.9647 38.7413 30.8827C38.3943 30.7617 38.0723 30.6317 37.7413 30.5057C36.9203 30.1917 36.1273 29.8697 35.3684 29.5407L33.9504 28.9258L32.7184 28.3908H32.7164C31.9214 28.0498 31.1284 27.7218 30.3114 27.4318H30.3116ZM14.3478 28.9258H17.6798C18.4758 29.4848 19.5967 30.1357 20.9977 30.5057H10.6459L10.7379 30.4707C11.9918 29.9437 13.1558 29.4388 14.3478 28.9258ZM29.1016 28.9258H32.6536L32.7166 28.9528L35.3686 30.1017L35.8785 30.3217L36.3495 30.5057H25.6187C26.9267 30.1847 28.0336 29.6157 29.1016 28.9258ZM7.1129 32.0857H39.9215C40.3385 32.4477 40.6365 32.9427 40.7315 33.6657H33.9526V35.2437H40.7675L40.7695 36.8237H33.9526V38.4036H40.7695L40.7705 39.9836H6.23092L6.23232 38.4036H13.0488V36.8237H6.23432L6.23622 35.2437H13.0488V33.6657H6.32611C6.44251 33.0977 6.61831 32.5467 7.1132 32.0857H7.1129ZM17.6188 33.4817C17.0898 33.4817 16.6838 33.6567 16.4018 34.0077C16.1218 34.3587 15.9818 34.8727 15.9818 35.5507V36.4427C15.9888 37.0937 16.1318 37.5946 16.4118 37.9426C16.6918 38.2916 17.0978 38.4666 17.6268 38.4666C18.1618 38.4666 18.5678 38.2886 18.8458 37.9336C19.1228 37.5776 19.2618 37.0647 19.2618 36.3947V35.4997C19.2548 34.8487 19.1118 34.3497 18.8318 34.0037C18.5518 33.6547 18.1478 33.4817 17.6188 33.4817ZM21.5387 33.4817C21.0097 33.4817 20.6037 33.6567 20.3217 34.0077C20.0417 34.3587 19.9017 34.8727 19.9017 35.5507V36.4427C19.9087 37.0937 20.0517 37.5946 20.3317 37.9426C20.6117 38.2916 21.0157 38.4666 21.5447 38.4666C22.0797 38.4666 22.4857 38.2886 22.7637 37.9336C23.0407 37.5776 23.1817 37.0647 23.1817 36.3947V35.4997C23.1747 34.8487 23.0317 34.3497 22.7517 34.0037C22.4717 33.6547 22.0677 33.4817 21.5387 33.4817ZM25.4567 33.4817C24.9277 33.4817 24.5217 33.6567 24.2397 34.0077C23.9597 34.3587 23.8197 34.8727 23.8197 35.5507V36.4427C23.8267 37.0937 23.9697 37.5946 24.2497 37.9426C24.5297 38.2916 24.9337 38.4666 25.4627 38.4666C25.9977 38.4666 26.4057 38.2886 26.6837 37.9336C26.9607 37.5776 27.0997 37.0647 27.0997 36.3947V35.4997C27.0927 34.8487 26.9497 34.3497 26.6697 34.0037C26.3897 33.6547 25.9857 33.4817 25.4567 33.4817ZM29.3746 33.4817C28.8456 33.4817 28.4416 33.6567 28.1596 34.0077C27.8796 34.3587 27.7396 34.8727 27.7396 35.5507V36.4427C27.7466 37.0937 27.8896 37.5946 28.1696 37.9426C28.4496 38.2916 28.8536 38.4666 29.3826 38.4666C29.9176 38.4666 30.3236 38.2886 30.6016 37.9336C30.8786 37.5776 31.0196 37.0647 31.0196 36.3947V35.4997C31.0126 34.8487 30.8696 34.3497 30.5896 34.0037C30.3096 33.6547 29.9036 33.4817 29.3746 33.4817ZM17.6188 34.2617C17.8518 34.2617 18.0238 34.3527 18.1328 34.5367C18.2438 34.7187 18.2988 35.0117 18.2988 35.4137V36.5657C18.2938 36.9457 18.2408 37.2297 18.1368 37.4137C18.0318 37.5976 17.8618 37.6886 17.6268 37.6886C17.3888 37.6886 17.2138 37.5946 17.1048 37.4036C16.9988 37.2107 16.9448 36.9167 16.9448 36.5207V35.3417C16.9518 34.9707 17.0088 34.6987 17.1148 34.5247C17.2238 34.3497 17.3928 34.2617 17.6188 34.2617ZM21.5387 34.2617C21.7717 34.2617 21.9417 34.3527 22.0507 34.5367C22.1617 34.7187 22.2187 35.0117 22.2187 35.4137V36.5657C22.2137 36.9457 22.1587 37.2297 22.0547 37.4137C21.9497 37.5976 21.7797 37.6886 21.5447 37.6886C21.3067 37.6886 21.1337 37.5946 21.0247 37.4036C20.9187 37.2107 20.8647 36.9167 20.8647 36.5207V35.3417C20.8717 34.9707 20.9287 34.6987 21.0347 34.5247C21.1437 34.3497 21.3117 34.2617 21.5387 34.2617ZM25.4567 34.2617C25.6897 34.2617 25.8617 34.3527 25.9707 34.5367C26.0817 34.7187 26.1367 35.0117 26.1367 35.4137V36.5657C26.1317 36.9457 26.0767 37.2297 25.9727 37.4137C25.8677 37.5976 25.6977 37.6886 25.4627 37.6886C25.2247 37.6886 25.0517 37.5946 24.9427 37.4036C24.8367 37.2107 24.7827 36.9167 24.7827 36.5207V35.3417C24.7897 34.9707 24.8457 34.6987 24.9527 34.5247C25.0617 34.3497 25.2297 34.2617 25.4567 34.2617ZM29.3746 34.2617C29.6076 34.2617 29.7796 34.3527 29.8886 34.5367C29.9996 34.7187 30.0566 35.0117 30.0566 35.4137V36.5657C30.0516 36.9457 29.9966 37.2297 29.8926 37.4137C29.7876 37.5976 29.6176 37.6886 29.3826 37.6886C29.1446 37.6886 28.9716 37.5946 28.8626 37.4036C28.7566 37.2107 28.7026 36.9167 28.7026 36.5207V35.3417C28.7096 34.9707 28.7656 34.6987 28.8726 34.5247C28.9816 34.3497 29.1476 34.2617 29.3746 34.2617Z" fill="#333333"/>
</svg>
