<svg width="48" height="48" viewBox="0 0 48 48" fill="none" xmlns="http://www.w3.org/2000/svg">
<path fill-rule="evenodd" clip-rule="evenodd" d="M24.0839 12.5481C22.2148 12.5481 20.696 13.0622 19.5254 14.0892C18.365 15.1058 17.7745 16.445 17.7539 18.1086H20.6035C20.6035 17.1741 20.9219 16.4308 21.5586 15.8763C22.1953 15.3218 23.0365 15.0442 24.084 15.0442C25.1623 15.0442 25.9841 15.3519 26.5489 15.9681C27.1137 16.574 27.3965 17.4171 27.3965 18.4954C27.3965 19.6147 26.9662 20.6624 26.1036 21.638L24.084 23.7161C23.2933 24.5787 22.7705 25.3649 22.5137 26.0734C22.257 26.782 22.1182 27.7478 22.0977 28.9699H24.9473C24.9473 27.409 25.3227 26.2119 26.0723 25.3801L27.7501 23.7161C29.4137 21.9703 30.2462 20.1988 30.2462 18.4017C30.2462 16.584 29.7019 15.1577 28.6134 14.1207C27.5351 13.0732 26.025 12.5483 24.084 12.5483L24.0839 12.5481ZM23.8612 13.0579H24.1816C27.2482 13.2645 29.4839 14.5225 29.7284 18.2982V18.6185C29.5443 21.8455 27.3633 23.0769 25.7969 24.9213L25.584 25.1596C24.5431 26.2584 24.5188 27.3576 24.4493 28.4564H22.6113C22.5705 26.2761 23.3815 25.1603 24.3281 24.2142L24.5429 23.976C27.5965 21.3612 27.9733 19.8729 27.8984 18.5754V18.2551C27.7982 16.0728 26.8554 14.5953 24.2207 14.5324H23.9003C22.0418 14.6897 20.5399 15.3704 20.0898 17.5989L18.289 17.597C18.7803 14.675 20.7037 13.23 23.8612 13.0577V13.0579ZM23.6542 32.2201C23.0997 32.2201 22.6781 32.3783 22.3905 32.6966C22.1133 33.0047 21.9745 33.3908 21.9745 33.8529C21.9745 34.315 22.1133 34.699 22.3905 35.0072C22.6781 35.305 23.0996 35.4544 23.6542 35.4544C24.2087 35.4544 24.6284 35.305 24.9159 35.0072C25.2035 34.6991 25.3476 34.315 25.3476 33.8529C25.3476 33.3908 25.2035 33.0047 24.9159 32.6966C24.6284 32.3783 24.2087 32.2201 23.6542 32.2201ZM23.6562 32.7279C24.0366 32.7279 24.3242 32.8357 24.5214 33.0541C24.7187 33.2654 24.8183 33.53 24.8183 33.847C24.8183 34.1641 24.7187 34.4287 24.5214 34.64C24.3242 34.8443 24.0366 34.9467 23.6562 34.9467C23.2758 34.9467 22.9862 34.8443 22.789 34.64C22.5988 34.4287 22.5038 34.1641 22.5038 33.847C22.5038 33.53 22.5988 33.2654 22.789 33.0541C22.9862 32.8357 23.2758 32.7279 23.6562 32.7279Z" fill="#333333"/>
</svg>
