<svg width="48" height="48" viewBox="0 0 48 48" fill="none" xmlns="http://www.w3.org/2000/svg">
<path fill-rule="evenodd" clip-rule="evenodd" d="M24.0839 12.5481C22.2148 12.5481 20.696 13.0622 19.5254 14.0892C18.365 15.1058 17.7745 16.445 17.7539 18.1086H20.6035C20.6035 17.1741 20.9219 16.4308 21.5586 15.8763C22.1953 15.3218 23.0365 15.0442 24.084 15.0442C25.1623 15.0442 25.9841 15.3519 26.5489 15.9681C27.1137 16.574 27.3965 17.4171 27.3965 18.4954C27.3965 19.6147 26.9662 20.6624 26.1036 21.638L24.084 23.7161C23.2933 24.5787 22.7705 25.3649 22.5137 26.0734C22.257 26.782 22.1182 27.7478 22.0977 28.9699H24.9473C24.9473 27.409 25.3227 26.2119 26.0723 25.3801L27.7501 23.7161C29.4137 21.9703 30.2462 20.1988 30.2462 18.4017C30.2462 16.584 29.7019 15.1577 28.6134 14.1207C27.5351 13.0732 26.025 12.5483 24.084 12.5483L24.0839 12.5481ZM23.6542 32.2201C23.0997 32.2201 22.6781 32.3784 22.3905 32.6967C22.1132 33.0048 21.9745 33.3908 21.9745 33.8529C21.9745 34.315 22.1132 34.6992 22.3905 35.0073C22.6781 35.3051 23.0996 35.4546 23.6542 35.4546C24.2087 35.4546 24.6284 35.3051 24.9159 35.0073C25.2035 34.6992 25.3475 34.315 25.3475 33.8529C25.3475 33.3908 25.2034 33.0048 24.9159 32.6967C24.6284 32.3784 24.2087 32.2201 23.6542 32.2201Z" fill="#333333"/>
</svg>
