<svg width="48" height="48" viewBox="0 0 48 48" fill="none" xmlns="http://www.w3.org/2000/svg">
<path d="M24.0976 5.02678C22.4358 5.01166 20.735 5.18621 18.985 5.58654C19.6473 8.38739 20.4533 9.65302 21.4892 11.5061C22.7996 11.0946 24.957 10.8349 26.2676 11.4497C27.6872 9.31107 28.3815 7.40188 28.9714 5.58204C27.3795 5.23848 25.7595 5.04084 24.0977 5.02655L24.0976 5.02678ZM18.3992 6.16821L17.3533 9.31462C16.5361 11.7771 16.2931 12.7842 16.2249 13.9237C16.124 15.6078 16.069 15.4708 17.9522 18.3591C18.7094 19.5205 19.3708 20.4705 19.4234 20.4725C19.5395 20.4762 23.0169 15.5084 23.0169 15.3384C23.0169 15.2711 22.3224 14.1337 21.4762 12.8082C19.7271 10.0684 18.7578 8.13032 18.5467 6.9666L18.3992 6.16821ZM29.6047 6.16821L29.4441 7.02312C29.2456 8.06718 28.1695 10.2201 26.6102 12.7042C20.5629 21.5513 15.7716 28.2569 9.31543 37.3984C10.6242 39.2426 12.0247 41.2608 13.4816 42.8625C19.8607 32.1597 26.377 26.0705 31.7571 15.3692C31.9926 14.1137 31.7232 12.647 30.6634 9.40609L29.6047 6.16821ZM28.6152 23.1719L26.8749 25.7412C25.917 27.1538 25.099 28.4311 25.0564 28.5795C25.0138 28.7284 25.7799 30.0212 26.7577 31.4568C29.5197 35.4575 31.806 39.0363 34.6259 42.9795C36.1097 41.0593 37.1651 39.5391 38.6836 37.4202C35.3281 32.6705 31.9708 27.9215 28.6149 23.1722L28.6152 23.1719Z" fill="#333333"/>
</svg>
