<svg width="48" height="48" viewBox="0 0 48 48" fill="none" xmlns="http://www.w3.org/2000/svg">
<path fill-rule="evenodd" clip-rule="evenodd" d="M24 4C18.6957 4 13.6086 6.10714 9.85786 9.85786C6.10714 13.6086 4 18.6957 4 24C4 29.3043 6.10714 34.3914 9.85786 38.1421C13.6086 41.8929 18.6957 44 24 44C29.3043 44 34.3914 41.8929 38.1421 38.1421C41.8929 34.3914 44 29.3043 44 24C44 18.6957 41.8929 13.6086 38.1421 9.85786C34.3914 6.10714 29.3043 4 24 4ZM24 4.52C29.1677 4.52 34.1238 6.57288 37.778 10.227C41.4321 13.8812 43.485 18.8373 43.485 24.005C43.485 29.1727 41.4321 34.1288 37.778 37.783C34.1238 41.4371 29.1677 43.49 24 43.49C18.8323 43.49 13.8762 41.4371 10.222 37.783C6.56788 34.1288 4.515 29.1727 4.515 24.005C4.515 18.8373 6.56788 13.8812 10.222 10.227C13.8762 6.57288 18.8323 4.52 24 4.52ZM18.2 13.98C16.5 13.91 14.79 15.38 14.11 17.5C13.33 19.97 14.21 22.45 16.06 23.04C17.92 23.64 20.07 22.11 20.86 19.64C21.64 17.18 20.76 14.7 18.9 14.11C18.6734 14.036 18.438 13.9922 18.2 13.98ZM29.8 13.98C29.562 13.9922 29.3266 14.036 29.1 14.11C27.23 14.7 26.36 17.18 27.14 19.64C27.93 22.11 30.07 23.63 31.94 23.04C33.79 22.44 34.67 19.97 33.88 17.5C33.21 15.38 31.5 13.9 29.79 13.98H29.8ZM24 27.03C21.8906 27.03 19.8675 27.8673 18.375 29.3579C16.8825 30.8485 16.0427 32.8706 16.04 34.98H16.56C16.56 33.0068 17.3439 31.1144 18.7391 29.7191C20.1344 28.3239 22.0268 27.54 24 27.54C25.9732 27.54 27.8656 28.3239 29.2609 29.7191C30.6561 31.1144 31.44 33.0068 31.44 34.98H31.95C31.95 30.58 28.39 27.03 24 27.03Z" fill="#333333"/>
</svg>
