<svg width="48" height="48" viewBox="0 0 48 48" fill="none" xmlns="http://www.w3.org/2000/svg">
<path d="M23.92 3.70384L23.9219 3.7058C23.3859 3.70626 22.9516 3.93336 22.9512 4.21366C22.9507 4.22877 22.9513 4.24372 22.9532 4.25656C21.6793 4.4342 20.5254 4.93722 19.5918 5.74101C18.4502 6.72396 17.7543 8.0919 17.5625 9.73104C17.5319 9.99259 17.5215 10.412 17.5215 11.319C17.5215 12.2317 17.5657 12.8892 17.5899 12.8892C17.6076 12.8892 17.7053 12.8531 17.8965 12.7935C18.6942 12.5962 20.8834 12.1965 22.6289 12.2095C23.4077 12.1623 25.7817 12.2069 26.6034 12.2545C28.0884 12.341 29.3228 12.6101 30.1327 12.8053C30.3264 12.843 30.4219 12.8912 30.4413 12.8912C30.4857 12.8914 30.4927 10.2863 30.4491 9.84235C30.3011 8.33821 29.6942 7.0012 28.7206 6.03375C27.7114 5.03093 26.3825 4.41655 24.8904 4.2388C24.8914 4.23124 24.8943 4.2228 24.8943 4.21146C24.8938 3.93102 24.4565 3.7035 23.9197 3.70361L23.92 3.70384ZM23.9746 12.7078C23.0133 12.7079 22.0606 12.7269 21.5176 12.7703C20.0158 12.8867 18.8069 13.075 17.9063 13.3309C17.2886 13.5066 16.9983 13.6612 16.8672 13.8855C16.7818 14.0318 15.9355 17.3548 15.9355 17.5437C15.9355 17.9134 16.2432 18.2662 16.6133 18.321C16.7581 18.3437 16.9097 18.3042 17.0957 18.2293V22.6513C17.0957 24.7358 17.6112 26.8057 19.0879 27.7351C21.1779 29.0508 22.215 29.9161 24.0546 29.9735C25.3145 29.9772 26.9256 28.8385 28.6641 27.7508C30.2271 26.7727 31.0254 24.7249 31.0254 22.6511C31.0152 21.1895 30.9978 19.7281 30.9844 18.2665C31.1019 18.3126 31.1728 18.3274 31.2696 18.327C31.5805 18.3254 31.8141 18.1925 31.9707 17.9247C32.1312 17.6511 32.1279 17.6287 31.6543 15.7391C31.4181 14.7964 31.2036 13.9843 31.1778 13.9345C31.1055 13.7946 30.9366 13.6407 30.7676 13.5613C30.0356 13.2174 28.3467 12.9052 26.4805 12.7683C25.9064 12.7264 24.938 12.7078 23.9766 12.7078H23.9746ZM23.9981 16.7451C24.5239 16.7451 25.0516 16.7517 25.3594 16.7744C27.2685 16.9097 29.0954 17.4502 30.4806 18.1026C30.4939 19.5683 30.4993 21.0923 30.508 22.5574C30.508 24.4327 29.9098 26.3196 28.4963 27.204C26.9685 28.2318 25.202 29.4519 24.0625 29.4482C22.3988 29.4006 21.4213 28.7027 19.5312 27.5126C18.1958 26.6721 17.6185 24.3487 17.6152 22.4639L17.6074 17.9677C18.9219 17.3518 20.7459 16.9123 22.6485 16.7744C22.9489 16.7517 23.4723 16.7451 23.9981 16.7451ZM21.0469 18.7178C20.6079 18.7179 20.2521 19.0738 20.252 19.5126C20.2521 19.9516 20.608 20.3074 21.0469 20.3076C21.4859 20.3074 21.8417 19.9515 21.8418 19.5126C21.8417 19.0736 21.4859 18.7179 21.0469 18.7178ZM27.0155 18.7178C26.5765 18.7179 26.2207 19.0738 26.2206 19.5126C26.2207 19.9516 26.5765 20.3074 27.0155 20.3076C27.4545 20.3074 27.8104 19.9515 27.8104 19.5126C27.8103 19.0736 27.4545 18.7179 27.0155 18.7178ZM23.9804 22.3876C23.6022 22.3914 23.3104 22.4582 23.3144 22.5361C23.3164 22.617 23.6368 22.6829 24.0311 22.6826C24.4255 22.6826 24.7459 22.617 24.7479 22.5361C24.7509 22.4541 24.4293 22.3876 24.0311 22.3876C24.0141 22.3875 23.9972 22.3875 23.9804 22.3876ZM24.0155 24.9365C22.5638 24.9402 21.4422 24.9848 21.455 25.0381C21.4735 25.0933 22.7023 25.1377 24.2108 25.1377C25.7187 25.1377 26.9461 25.0929 26.9647 25.0381C26.9745 24.9821 25.7387 24.9365 24.2108 24.9365C24.1458 24.9364 24.0806 24.9364 24.0155 24.9365ZM18.7597 29.6613C18.5306 29.7256 18.3099 29.8 18.0859 29.8703L22.0253 33.8134C21.7555 33.8442 21.4865 33.8821 21.2187 33.9268C21.1141 33.9418 21.0085 33.9486 20.9042 33.9658L17.2675 30.3232L17.2655 30.3251L17.1308 30.1884C14.3931 31.1674 11.9139 32.5241 8.75951 33.6201C6.21441 34.3714 6.2146 36.4871 6.2146 37.6395V44.3018H19.2457L16.5581 38.4836C16.7218 38.3816 16.8879 38.2832 17.0562 38.1887L19.8804 44.302H26.8453L29.9859 38.2317C30.1529 38.3269 30.3177 38.4259 30.4801 38.5286L27.4938 44.3022H41.7849V37.64C41.7849 36.4875 41.7851 34.3719 39.24 33.6206C36.0852 32.5243 33.604 31.1695 30.8649 30.1909L30.7282 30.3295L30.7263 30.3276L26.9158 34.14C26.5661 34.0589 26.2137 33.9898 25.8591 33.9329L29.9138 29.8722C29.6898 29.8019 29.4691 29.7274 29.24 29.6632L25.078 33.8252C25.0118 33.818 24.945 33.8198 24.8787 33.8135C24.4781 33.7759 24.0761 33.7537 23.6737 33.7471C23.6124 33.7462 23.5514 33.7374 23.4901 33.7373C23.279 33.74 23.068 33.7473 22.8573 33.7589L21.8866 32.7901L18.7597 29.6613ZM16.998 30.7805L20.2968 34.0773C17.4956 34.6702 14.9174 36.0195 12.8515 37.9737L10.2949 36.9561L9.666 37.4288C8.3584 38.4156 7.0921 41.9525 7.57811 43.261C7.65828 43.4768 7.77221 43.6261 7.98827 43.7883H6.73044L6.75974 36.7474C7.00617 35.2185 7.88634 34.4487 9.0781 34.0522L16.998 30.7805ZM30.9864 30.7863C33.7039 31.8983 36.3855 33.1538 39.1389 34.1222C40.8203 34.7375 41.0758 35.8996 41.2658 37.1125L41.2697 43.7883H39.5041C39.6343 43.662 39.7215 43.5324 39.7854 43.3605C40.2714 42.052 39.0051 38.5152 37.6975 37.5284L37.0706 37.0557L34.3127 38.1533C32.4245 36.3013 30.0808 34.9785 27.5103 34.2982L30.9864 30.7863ZM14.5292 33.3059C14.3624 33.3069 14.1731 33.3382 13.9589 33.3976C13.3567 33.5646 13.2692 33.6806 12.6991 35.0441C12.1434 36.3735 12.1188 36.5249 12.4452 36.6613C12.6721 36.7562 13.2016 36.5536 13.8749 36.1163C14.4626 35.7347 15.1497 35.2937 15.4023 35.1359C15.8315 34.8678 15.8439 34.8068 15.5878 34.1827C15.3386 33.5754 15.0297 33.303 14.5292 33.3058V33.3059ZM32.8339 33.4074C32.3333 33.4046 32.0245 33.6751 31.7753 34.2824C31.5192 34.9064 31.5316 34.9675 31.9608 35.2356C32.2134 35.3933 32.9004 35.8344 33.4881 36.216C34.1615 36.6532 34.691 36.8558 34.9178 36.761C35.2442 36.6245 35.2197 36.4731 34.6639 35.1438C34.0939 33.7803 34.0064 33.6642 33.4042 33.4973C33.19 33.4379 33.0007 33.4084 32.8338 33.4074H32.8339ZM23.4901 34.2102C27.3535 34.2163 31.0632 35.6987 33.8377 38.345C33.0877 38.6449 32.5159 38.8813 32.0701 39.0833C29.6862 37.0544 26.6416 35.9351 23.4902 35.929C20.4311 35.9311 17.4683 36.9821 15.1114 38.9016C14.648 38.6978 14.0897 38.4671 13.3321 38.1653C16.0876 35.6289 19.7176 34.2157 23.4903 34.2104L23.4901 34.2102ZM23.4901 36.4406C25.6061 36.4415 27.688 36.9654 29.5449 37.9641L26.533 43.7845H20.2091L17.506 37.9641C19.3446 36.9868 21.4008 36.4734 23.4905 36.47L23.4901 36.4406ZM16.1325 38.7844L18.443 43.7884H13.3297C13.1074 43.6864 12.9187 43.5947 12.6207 43.4701C12.4643 43.4047 12.3634 43.3478 12.2184 43.2827C12.272 43.1686 12.3273 43.0552 12.3844 42.9427C12.4511 42.97 12.4759 42.9738 12.5465 43.0033C14.5449 43.8388 15.1104 43.8258 15.4821 42.9369C15.818 42.1333 15.5706 41.8811 13.6598 41.0795C13.7497 40.9679 13.8415 40.8579 13.9352 40.7494C15.6448 41.4428 16.1212 41.407 16.486 40.5346C16.7356 39.9376 16.6873 39.6593 15.6285 39.14C15.7935 39.0175 15.9616 38.899 16.1325 38.7845V38.7844ZM30.904 38.8254C31.1329 38.984 31.3563 39.1502 31.574 39.3234C30.6845 39.7886 30.6426 40.074 30.8767 40.6339C31.2233 41.4629 31.6937 41.5223 33.2009 40.9348C33.2974 41.0477 33.3918 41.1622 33.4841 41.2785C31.8126 41.9946 31.5606 42.2708 31.8806 43.0363C32.2437 43.9047 32.8125 43.9238 34.701 43.1457C34.7615 43.2652 34.8201 43.3856 34.8767 43.507C34.8255 43.529 34.7943 43.5476 34.742 43.5695C34.5375 43.655 34.4239 43.7141 34.2557 43.7883H28.3381L30.904 38.8254ZM12.0389 40.0949C12.2744 40.1253 12.8028 40.3093 13.4256 40.5578C13.3382 40.6542 13.2522 40.7519 13.1678 40.8508C12.3913 40.5025 11.8424 40.2099 11.8807 40.1184C11.8922 40.0908 11.9473 40.0832 12.0389 40.0949ZM35.3242 40.1945C35.4158 40.1827 35.4709 40.1905 35.4824 40.218C35.5249 40.3197 34.8948 40.6578 33.9589 41.0617C33.8786 40.9537 33.7966 40.8469 33.7129 40.7414C34.4626 40.4305 35.0566 40.229 35.3242 40.1946V40.1945ZM10.8865 42.4348C11.037 42.4431 11.4514 42.5925 11.9041 42.7629C11.8481 42.8605 11.7934 42.9589 11.74 43.0579C11.2118 42.799 10.7965 42.5687 10.783 42.4836C10.7771 42.4463 10.8123 42.4307 10.8865 42.4348ZM36.4762 42.5344C36.5504 42.5303 36.5856 42.546 36.5797 42.5832C36.5639 42.6826 36.017 42.9754 35.3395 43.2903C35.2883 43.1815 35.2355 43.0734 35.1813 42.966C35.7974 42.7215 36.2946 42.5444 36.4762 42.5344Z" fill="#333333"/>
</svg>
