<svg width="48" height="48" viewBox="0 0 48 48" fill="none" xmlns="http://www.w3.org/2000/svg">
<path d="M23.9199 3.70384L23.9219 3.7058C23.3858 3.70626 22.9516 3.93336 22.9512 4.21366C22.9507 4.22877 22.9513 4.24372 22.9532 4.25656C21.6793 4.4342 20.5254 4.93722 19.5918 5.74101C18.4502 6.72396 17.7543 8.0919 17.5625 9.73104C17.5319 9.99259 17.5215 10.412 17.5215 11.319C17.5215 12.2317 17.5657 12.8892 17.5899 12.8892C17.6076 12.8892 17.7053 12.8531 17.8965 12.7935C18.6941 12.5963 20.8834 12.1965 22.6289 12.2095C23.4077 12.1623 25.7817 12.2069 26.6034 12.2545C28.0884 12.341 29.3228 12.6101 30.1327 12.8053C30.3264 12.843 30.4219 12.8912 30.4413 12.8912C30.4857 12.8914 30.4927 10.2863 30.4491 9.84235C30.3011 8.33821 29.6941 7.0012 28.7206 6.03375C27.7114 5.03093 26.3824 4.41655 24.8904 4.2388C24.8914 4.23124 24.8943 4.2228 24.8943 4.21146C24.8938 3.93102 24.4565 3.7035 23.9197 3.70361L23.9199 3.70384ZM22.7254 4.81643C23.5211 4.66752 24.3242 4.62844 25.1407 4.7914C26.3546 5.04151 27.2146 5.46856 27.8881 5.98889C28.718 6.65446 29.2493 7.47594 29.6007 8.39111C29.8255 9.26018 29.9563 10.4882 29.9521 12.2314C28.3604 11.8772 26.8216 11.6161 24.3803 11.6786C22.0341 11.6496 20.3014 11.6913 18.0553 12.2313L18.0502 10.3786C18.0783 9.02928 18.4802 7.96037 19.0905 7.04772C20.3149 5.52684 21.5216 5.08171 22.7254 4.8162V4.81643ZM23.9746 12.7077C23.0133 12.7077 22.0606 12.7267 21.5176 12.7702C20.0158 12.8866 18.8069 13.0748 17.9063 13.3308C17.2886 13.5065 16.9983 13.661 16.8672 13.8854C16.7818 14.0317 15.9355 17.3546 15.9355 17.5436C15.9355 17.9133 16.2432 18.2661 16.6133 18.3209C16.7581 18.3436 16.9097 18.3039 17.0957 18.2291V22.6512C17.0957 24.7356 17.6112 26.8056 19.0879 27.735C21.1779 29.0507 22.215 29.916 24.0546 29.9733C25.3145 29.9771 26.9256 28.8383 28.6641 27.7506C30.2271 26.7725 31.0254 24.7248 31.0254 22.651C31.0152 21.1893 30.9978 19.7279 30.9844 18.2662C31.1019 18.3123 31.1728 18.3272 31.2696 18.3268C31.5805 18.3252 31.8141 18.1922 31.9707 17.9245C32.1312 17.6508 32.1279 17.6286 31.6543 15.739C31.4181 14.7963 31.2036 13.9841 31.1778 13.9342C31.1055 13.7944 30.9366 13.6406 30.7676 13.5612C30.0356 13.2173 28.3467 12.905 26.4805 12.7682C25.9064 12.7263 24.938 12.7077 23.9766 12.7077H23.9746ZM23.9746 13.2213C25.5573 13.1802 27.1153 13.3044 28.6544 13.5436L30.4591 13.9772C30.6427 14.1076 30.773 14.3254 30.842 14.6432C31.0843 15.619 31.3734 16.5879 31.551 17.5729C31.4935 17.7418 31.4257 17.895 31.174 17.7878L28.7248 16.8932C28.0422 16.6661 27.3065 16.4753 26.4416 16.3737C25.6397 16.301 24.8404 16.2231 23.9982 16.2311C22.8629 16.1899 21.8111 16.3164 20.8225 16.4791C19.6901 16.5645 18.5533 16.9368 16.891 17.7585C16.5973 17.8867 16.3418 17.6629 16.5023 17.3346L17.1957 14.4674C17.2263 14.2251 17.3142 14.0078 17.7054 13.9303C18.4384 13.7198 19.0901 13.5544 19.9027 13.4596C21.1966 13.3556 22.3037 13.1778 23.9751 13.2213H23.9746ZM23.9981 16.7448C24.5239 16.7448 25.0516 16.7514 25.3594 16.7741C27.2685 16.9094 29.0954 17.4499 30.4806 18.1022C30.4939 19.568 30.4993 21.0919 30.508 22.5571C30.508 24.4324 29.9098 26.3193 28.4963 27.2036C26.9685 28.2315 25.202 29.4515 24.0625 29.4478C22.3988 29.4002 21.4213 28.7023 19.5312 27.5123C18.1958 26.6718 17.6185 24.3484 17.6152 22.4635L17.6074 17.9675C18.9219 17.3516 20.7459 16.912 22.6485 16.7741C22.9489 16.7514 23.4723 16.7448 23.9981 16.7448ZM21.0469 18.7175C20.6079 18.7176 20.2521 19.0734 20.252 19.5123C20.2521 19.9512 20.608 20.3071 21.0469 20.3072C21.4859 20.3071 21.8417 19.9512 21.8418 19.5123C21.8417 19.0733 21.4859 18.7176 21.0469 18.7175ZM27.0155 18.7175C26.5765 18.7176 26.2207 19.0734 26.2206 19.5123C26.2207 19.9512 26.5765 20.3071 27.0155 20.3072C27.4545 20.3071 27.8104 19.9512 27.8104 19.5123C27.8103 19.0733 27.4545 18.7176 27.0155 18.7175ZM23.9804 22.3873C23.6022 22.3911 23.3104 22.4579 23.3144 22.5357C23.3164 22.6166 23.6368 22.6826 24.0311 22.6822C24.4255 22.6823 24.7459 22.6166 24.7479 22.5357C24.7509 22.4537 24.4293 22.3873 24.0311 22.3873C24.0141 22.3872 23.9972 22.3872 23.9804 22.3873ZM24.0155 24.9361C22.5638 24.9398 21.4422 24.9844 21.455 25.0377C21.4735 25.0929 22.7023 25.1374 24.2108 25.1374C25.7187 25.1374 26.9461 25.0925 26.9647 25.0377C26.9745 24.9818 25.7387 24.9361 24.2108 24.9361C24.1458 24.936 24.0806 24.936 24.0155 24.9361ZM18.7597 29.661C18.5306 29.7252 18.3099 29.7997 18.0859 29.87L22.0253 33.8131C21.7555 33.8438 21.4865 33.8817 21.2187 33.9265C21.1141 33.9415 21.0085 33.9482 20.9042 33.9654L17.2675 30.3228L17.2655 30.3248L17.1308 30.1881C14.3931 31.1671 11.9139 32.5238 8.75951 33.6198C6.21441 34.3711 6.2146 36.4868 6.2146 37.6393V44.3015H19.2457L16.5581 38.4833C16.7218 38.3812 16.8879 38.2829 17.0562 38.1883L19.8804 44.3017H26.8453L29.9859 38.2314C30.1529 38.3266 30.3177 38.4256 30.4801 38.5283L27.4938 44.3019H41.7849V37.6397C41.7849 36.4872 41.7851 34.3715 39.24 33.6202C36.0852 32.524 33.604 31.1692 30.8649 30.1905L30.7282 30.3292L30.7263 30.3272L26.9158 34.1396C26.5661 34.0585 26.2137 33.9894 25.8591 33.9326L29.9138 29.8718C29.6898 29.8015 29.4691 29.7271 29.24 29.6628L25.078 33.8248C25.0118 33.8176 24.945 33.8195 24.8787 33.8132C24.4781 33.7756 24.0761 33.7534 23.6737 33.7468C23.6124 33.7459 23.5514 33.7372 23.4901 33.7371C23.279 33.7398 23.068 33.7469 22.8573 33.7585L21.8866 32.7898L18.7597 29.661ZM16.998 30.7802L20.2968 34.077C17.4956 34.6699 14.9174 36.0192 12.8515 37.9733L10.2949 36.9558L9.666 37.4285C8.3584 38.4153 7.0921 41.9522 7.57811 43.2606C7.65828 43.4765 7.77221 43.6258 7.98827 43.788H6.73044L6.75974 36.7471C7.00617 35.2183 7.88634 34.4484 9.0781 34.0518L16.998 30.7802ZM30.9864 30.7859C33.7039 31.8979 36.3855 33.1535 39.1389 34.122C40.8203 34.7372 41.0758 35.8993 41.2658 37.1122L41.2697 43.788H39.5041C39.6343 43.6617 39.7215 43.532 39.7854 43.3602C40.2714 42.0517 39.0051 38.5148 37.6975 37.528L37.0709 37.0745L34.3129 38.1706C32.4243 36.3195 30.0806 34.9817 27.5102 34.2878L30.9864 30.7859ZM14.5292 33.3056C14.3624 33.3065 14.1731 33.3379 13.9589 33.3973C13.3567 33.5643 13.2692 33.6803 12.6991 35.0438C12.1434 36.3731 12.1188 36.5245 12.4452 36.661C12.6721 36.7558 13.2016 36.5532 13.8749 36.116C14.4626 35.7344 15.1497 35.2934 15.4023 35.1356C15.8315 34.8675 15.8439 34.8064 15.5878 34.1824C15.3386 33.5751 15.0297 33.3027 14.5292 33.3055V33.3056ZM32.8339 33.4071C32.3333 33.4042 32.0245 33.6747 31.7753 34.2821C31.5192 34.9061 31.5316 34.9672 31.9608 35.2352C32.2134 35.393 32.9004 35.834 33.4881 36.2156C34.1615 36.6529 34.691 36.8555 34.9178 36.7606C35.2442 36.6242 35.2197 36.4728 34.6639 35.1434C34.0939 33.7799 34.0064 33.6639 33.4042 33.4969C33.19 33.4375 33.0007 33.408 32.8338 33.4071H32.8339ZM23.4901 34.2099C27.3535 34.2159 31.0632 35.6984 33.8377 38.3446C33.0877 38.6445 32.5159 38.881 32.0701 39.0829C29.6862 37.0541 26.6416 35.9348 23.4902 35.9287C20.4311 35.9307 17.4683 36.9818 15.1114 38.9013C14.648 38.6975 14.0897 38.4668 13.3321 38.1649C16.0876 35.6286 19.7176 34.2154 23.4903 34.2101L23.4901 34.2099ZM23.4901 36.4402C25.6061 36.4411 27.688 36.965 29.5449 37.9638L26.5332 43.788H20.2093L17.5062 37.9675C19.3448 36.9901 21.401 36.4768 23.4907 36.4734L23.4901 36.4402ZM16.1325 38.7841L18.443 43.7881H13.3297C13.1074 43.6861 12.9187 43.5943 12.6207 43.4697C12.4643 43.4043 12.3634 43.3474 12.2184 43.2823C12.272 43.1682 12.3273 43.0548 12.3844 42.9424C12.4511 42.9697 12.4759 42.9734 12.5465 43.003C14.5449 43.8385 15.1104 43.8254 15.4821 42.9365C15.818 42.1329 15.5706 41.8808 13.6598 41.0792C13.7497 40.9676 13.8415 40.8575 13.9352 40.7491C15.6448 41.4425 16.1212 41.4067 16.486 40.5343C16.7356 39.9373 16.6873 39.659 15.6285 39.1397C15.7935 39.0172 15.9616 38.8986 16.1325 38.7842V38.7841ZM30.904 38.825C31.1329 38.9837 31.3563 39.1498 31.574 39.3231C30.6845 39.7883 30.6426 40.0736 30.8767 40.6336C31.2233 41.4626 31.6937 41.522 33.2009 40.9344C33.2974 41.0473 33.3918 41.1619 33.4841 41.2781C31.8126 41.9942 31.5606 42.2704 31.8806 43.0359C32.2437 43.9044 32.8125 43.9235 34.701 43.1454C34.7615 43.2649 34.8201 43.3853 34.8767 43.5067C34.8255 43.5286 34.7943 43.5473 34.742 43.5692C34.5375 43.6546 34.4239 43.7137 34.2557 43.788H28.338L30.904 38.825ZM12.0389 40.0946C12.2744 40.1249 12.8028 40.309 13.4256 40.5575C13.3382 40.6539 13.2522 40.7515 13.1678 40.8504C12.3913 40.5021 11.8424 40.2095 11.8807 40.118C11.8922 40.0905 11.9472 40.0828 12.0389 40.0946ZM35.3242 40.1943C35.4158 40.1825 35.4709 40.1901 35.4824 40.2177C35.5249 40.3193 34.8948 40.6575 33.9589 41.0614C33.8786 40.9534 33.7966 40.8466 33.7129 40.7411C34.4626 40.4302 35.0566 40.2287 35.3242 40.1943ZM10.8865 42.4344C11.037 42.4427 11.4514 42.5921 11.9041 42.7626C11.8481 42.8602 11.7934 42.9585 11.74 43.0575C11.2118 42.7986 10.7965 42.5683 10.783 42.4832C10.7771 42.446 10.8123 42.4304 10.8865 42.4344ZM36.4762 42.5341C36.5504 42.53 36.5856 42.5456 36.5797 42.5829C36.5639 42.6822 36.017 42.9751 35.3395 43.2899C35.2882 43.1811 35.2355 43.073 35.1813 42.9657C35.7974 42.7212 36.2946 42.544 36.4762 42.5341Z" fill="#333333"/>
</svg>
