<svg width="24" height="24" viewBox="0 0 24 24" fill="none" xmlns="http://www.w3.org/2000/svg">
<path d="M16.385 11.676H6.942V12.679H16.385V11.676Z" fill="#333333"/>
<path d="M16.385 9.67H6.942V10.673H16.385V9.67Z" fill="#333333"/>
<path d="M16.385 7.664H6.942V8.667H16.385V7.664Z" fill="#333333"/>
<path d="M14.673 5.658H8.655V6.661H14.673V5.658Z" fill="#333333"/>
<path d="M13.628 18.431C14.4586 18.431 15.132 17.7576 15.132 16.927C15.132 16.0964 14.4586 15.423 13.628 15.423C12.7974 15.423 12.124 16.0964 12.124 16.927C12.124 17.7576 12.7974 18.431 13.628 18.431Z" fill="#333333"/>
<path d="M18.063 2.275C17.9758 2.18781 17.8723 2.11864 17.7584 2.07146C17.6444 2.02428 17.5223 1.99999 17.399 2H5.94C5.69078 2.00026 5.45184 2.09939 5.27561 2.27561C5.09939 2.45184 5.00026 2.69078 5 2.94V17.993C5.00026 18.2422 5.09939 18.4812 5.27561 18.6574C5.45184 18.8336 5.69078 18.9327 5.94 18.933H12.123V18.584C11.9324 18.4153 11.7718 18.2154 11.648 17.993H5.939V2.945H17.398V17.988H15.608C15.4881 18.2048 15.3334 18.4004 15.15 18.567V18.928H17.399C17.6482 18.9277 17.8872 18.8286 18.0634 18.6524C18.2396 18.4762 18.3387 18.2372 18.339 17.988V2.94C18.3386 2.69055 18.2393 2.45144 18.063 2.275Z" fill="#333333"/>
<path d="M12.625 18.938V22L13.625 21L14.63 22V18.938C14.32 19.0996 13.9756 19.184 13.626 19.184C13.2764 19.184 12.932 19.0996 12.622 18.938H12.625Z" fill="#333333"/>
</svg>
