<svg width="24" height="24" viewBox="0 0 24 24" fill="none" xmlns="http://www.w3.org/2000/svg">
<path d="M18.064 2.275C17.888 2.099 17.649 2 17.4 2L5.94 2.005C5.421 2.005 5 2.426 5 2.945V17.993C5 18.242 5.099 18.482 5.275 18.658C5.451 18.834 5.69 18.933 5.94 18.933L12.123 18.93V18.581H12.125C11.674 18.171 11.385 17.585 11.385 16.927C11.385 15.689 12.389 14.685 13.627 14.685C14.865 14.685 15.869 15.689 15.869 16.927C15.869 17.577 15.588 18.158 15.145 18.568H15.149V18.929L17.398 18.928C17.917 18.928 18.338 18.507 18.338 17.988V2.94C18.34 2.691 18.24 2.451 18.064 2.275ZM8.656 5.658H14.674V6.661H8.656V5.658ZM16.387 12.679H6.943V11.676H16.386L16.387 12.679ZM16.387 10.673H6.943V9.67H16.386L16.387 10.673ZM16.387 8.667H6.943V7.664H16.386L16.387 8.667Z" fill="#333333"/>
<path d="M13.628 15.423C12.797 15.423 12.123 16.097 12.123 16.927C12.123 17.758 12.797 18.432 13.628 18.432C14.459 18.432 15.132 17.758 15.132 16.927C15.133 16.096 14.459 15.423 13.628 15.423Z" fill="#333333"/>
<path d="M12.626 18.938C12.625 18.938 12.624 18.938 12.623 18.937V22L13.629 20.994L14.634 22V18.938C14.33 19.09 13.992 19.184 13.629 19.184C13.266 19.184 12.929 19.09 12.626 18.938Z" fill="#333333"/>
<path d="M14.634 18.938C14.639 18.935 14.644 18.932 14.65 18.929H14.634V18.938Z" fill="#333333"/>
<path d="M12.609 18.93C12.614 18.932 12.618 18.934 12.623 18.937V18.93H12.609Z" fill="#333333"/>
</svg>
