<svg width="24" height="24" viewBox="0 0 24 24" fill="none" xmlns="http://www.w3.org/2000/svg">
<path d="M4.905 21.093V3.984C4.379 4.171 4 4.668 4 5.257V20.647C4 20.805 4.04 20.952 4.09 21.093C4.226 21.476 4.522 21.773 4.905 21.91C5.047 21.96 5.194 22 5.353 22L16.861 21.995C17.447 21.995 17.935 21.615 18.122 21.093H4.905Z" fill="#333333"/>
<path d="M19.875 6.654L15.218 2L7.281 2.004C6.534 2.004 5.926 2.613 5.926 3.36V18.75C5.926 19.496 6.533 20.103 7.279 20.103L18.787 20.098C19.533 20.098 20.139 19.491 20.139 18.745V6.919L19.875 6.654ZM11.717 15.562L9.414 13.258L9.99 12.682L11.718 14.41L16.078 10.05L16.654 10.626L11.717 15.562ZM15.214 6.814V3.276L18.754 6.814H15.214Z" fill="#333333"/>
</svg>
