<svg width="24" height="24" viewBox="0 0 24 24" fill="none" xmlns="http://www.w3.org/2000/svg">
<path d="M19.875 6.65398L15.218 1.99998L7.281 2.00398C6.534 2.00398 5.926 2.61298 5.926 3.35998V18.75C5.926 19.496 6.533 20.103 7.279 20.103L18.787 20.098C19.533 20.098 20.139 19.491 20.139 18.745V6.91898L19.875 6.65398ZM15.798 15.026L15.241 15.583L13.033 13.375L10.825 15.583L10.268 15.026L12.476 12.818L10.268 10.61L10.825 10.053L13.033 12.261L15.241 10.053L15.798 10.61L13.59 12.818L15.798 15.026ZM15.214 6.81398V3.27598L18.754 6.81398H15.214Z" fill="#333333"/>
<path d="M5.341 21.094H4.905V3.98598C4.379 4.17298 4 4.66998 4 5.25898V20.649C4 20.807 4.04 20.954 4.09 21.095C4.226 21.478 4.522 21.775 4.905 21.912C5.047 21.963 5.194 22.003 5.353 22.003L16.861 21.998C17.447 21.998 17.935 21.618 18.122 21.096H5.341V21.094Z" fill="#333333"/>
</svg>
