<svg width="24" height="24" viewBox="0 0 24 24" fill="none" xmlns="http://www.w3.org/2000/svg">
<path d="M15.144 3.276L18.685 6.814H15.144V3.276Z" fill="#333333"/>
<path fill-rule="evenodd" clip-rule="evenodd" d="M19.165 19.2H6.76102V2.905H14.393V7.565H19.165V19.2ZM9.91902 12.683L9.34302 13.259L11.647 15.562L16.583 10.626L16.007 10.05L11.647 14.41L9.91902 12.683Z" fill="#333333"/>
<path fill-rule="evenodd" clip-rule="evenodd" d="M24 0H0V24H24V0ZM15.148 2H7.21102C7.03282 2.00026 6.85641 2.03562 6.69187 2.10406C6.52733 2.1725 6.37788 2.27268 6.25206 2.39887C6.12624 2.52506 6.0265 2.67481 5.95855 2.83955C5.8906 3.00429 5.85576 3.1808 5.85602 3.359V18.749C5.85708 19.1073 6.00003 19.4506 6.25359 19.7038C6.50716 19.957 6.85069 20.0995 7.20902 20.1H18.718C19.0764 20.0989 19.4199 19.956 19.6732 19.7025C19.9266 19.449 20.0692 19.1054 20.07 18.747V6.919L15.148 2ZM5.271 21.093H4.835V3.98401C4.572 4.07746 4.34434 4.24995 4.18322 4.47785C4.02209 4.70575 3.93539 4.9779 3.935 5.25701V20.647C3.94405 20.9226 4.03429 21.1894 4.19441 21.4139C4.35452 21.6384 4.57737 21.8107 4.835 21.909C4.97787 21.9653 5.1295 21.9961 5.283 22H16.791C17.0684 21.9985 17.3385 21.9111 17.5642 21.75C17.79 21.5888 17.9604 21.3618 18.052 21.1H5.271V21.093Z" fill="#333333"/>
</svg>
