<svg width="24" height="24" viewBox="0 0 24 24" fill="none" xmlns="http://www.w3.org/2000/svg">
<path d="M18.3 7.293L14.5 3.493V7.293H18.3Z" fill="#333333"/>
<path d="M9.04203 10.386L10.147 13.422H7.94003L9.04203 10.386Z" fill="#333333"/>
<path fill-rule="evenodd" clip-rule="evenodd" d="M18.7076 20.8486C18.8002 20.756 18.8527 20.6309 18.854 20.5L18.859 8.293H13.5V3H5.64204C5.50943 3 5.38226 3.05268 5.28849 3.14645C5.19472 3.24021 5.14204 3.36739 5.14204 3.5V20.505C5.14336 20.6367 5.19662 20.7626 5.29025 20.8553C5.38387 20.948 5.5103 21 5.64204 21L18.359 20.995C18.4899 20.9937 18.6151 20.9411 18.7076 20.8486ZM7.68303 14.122H10.4L11.02 15.822H11.9L9.41603 9.33002H8.66703L6.18903 15.82H7.07103L7.68303 14.122ZM15.7711 14.325H14.7711V13.075H13.5211V12.075H14.7711V10.825H15.7711V12.075H17.0211V13.075H15.7711V14.325ZM6.14606 18.935H13.5211V19.935H6.14606V18.935ZM6.14606 16.935H17.7981V17.935H6.14606V16.935Z" fill="#333333"/>
<path fill-rule="evenodd" clip-rule="evenodd" d="M24 0H0V24H24V0ZM14.414 2L14.707 2.291L19.854 7.434V20.5C19.854 20.897 19.6967 21.2777 19.4165 21.5589C19.1362 21.8401 18.756 21.9987 18.359 22H5.64204C5.24577 21.9995 4.86581 21.8422 4.58514 21.5624C4.30447 21.2827 4.14589 20.9033 4.14404 20.507V3.5C4.14404 3.10218 4.30208 2.72064 4.58338 2.43934C4.86469 2.15804 5.24622 2 5.64404 2H14.414Z" fill="#333333"/>
</svg>
