<svg width="24" height="24" viewBox="0 0 24 24" fill="none" xmlns="http://www.w3.org/2000/svg">
<path d="M21.165 13.87L20.317 13.022C20.176 12.881 19.947 12.881 19.806 13.022L19.143 13.685L20.502 15.044L21.165 14.381C21.306 14.24 21.306 14.011 21.165 13.87Z" fill="#333333"/>
<path d="M6.774 10.783H5.278V12.279H6.774V10.783Z" fill="#333333"/>
<path d="M16.581 20.273H13.996C13.859 20.273 13.749 20.162 13.749 20.026V17.978H8.906V16.978H14.418L14.412 16.986L15.422 15.978H8.906V14.978H15.646V15.754L17.718 13.686V3.035C17.718 2.76 17.609 2.497 17.415 2.303C17.221 2.109 16.958 2 16.683 2L2.799 2.006C2.358 2.006 2 2.364 2 2.805V20.964C2 21.239 2.109 21.502 2.303 21.696C2.497 21.89 2.76 21.999 3.035 21.999L16.92 21.993C17.361 21.993 17.719 21.635 17.719 21.194V19.238L16.757 20.2C16.71 20.246 16.647 20.273 16.581 20.273ZM8.907 4.538H15.647V5.538H8.907V4.538ZM8.907 6.533H15.647V7.533H8.907V6.533ZM8.906 10.031H15.646V11.031H8.906V10.031ZM8.906 12.031H15.646V13.031H8.906V12.031ZM4.678 5.863L5.364 6.549L7.374 4.538L8.018 5.181L5.364 7.836L4.034 6.506L4.678 5.863ZM7.526 10.031V13.031H4.526V10.031H7.526ZM5.367 18.276L4.037 16.946L4.681 16.302L5.367 16.988L7.377 14.977L8.021 15.621L5.367 18.276Z" fill="#333333"/>
<path d="M14.803 18.026C14.767 18.062 14.749 18.106 14.749 18.156V19.257C14.749 19.358 14.829 19.438 14.93 19.438H16.031C16.078 19.438 16.125 19.42 16.158 19.384L20.114 15.431L18.755 14.072L14.803 18.026Z" fill="#333333"/>
</svg>
