<svg width="24" height="24" viewBox="0 0 24 24" fill="none" xmlns="http://www.w3.org/2000/svg">
<path fill-rule="evenodd" clip-rule="evenodd" d="M7.68303 14.122H10.4L11.02 15.822H11.9L9.41603 9.33002H8.66703L6.18903 15.82H7.07103L7.68303 14.122ZM9.04203 10.386L10.147 13.422H7.94003L9.04203 10.386Z" fill="#333333"/>
<path d="M15.7711 14.325H14.7711V13.075H13.5211V12.075H14.7711V10.825H15.7711V12.075H17.0211V13.075H15.7711V14.325Z" fill="#333333"/>
<path d="M13.5211 18.935H6.14606V19.935H13.5211V18.935Z" fill="#333333"/>
<path d="M6.14606 16.935H17.7981V17.935H6.14606V16.935Z" fill="#333333"/>
<path fill-rule="evenodd" clip-rule="evenodd" d="M14.707 2.291L14.414 2H5.64404C5.24622 2 4.86469 2.15804 4.58338 2.43934C4.30208 2.72064 4.14404 3.10218 4.14404 3.5V20.507C4.14589 20.9033 4.30447 21.2827 4.58514 21.5624C4.86581 21.8422 5.24577 21.9995 5.64204 22H18.359C18.756 21.9987 19.1362 21.8401 19.4165 21.5589C19.6967 21.2777 19.854 20.897 19.854 20.5V7.434L14.707 2.291ZM14.5 3.493L18.3 7.293H14.5V3.493ZM18.854 20.5C18.8527 20.6309 18.8002 20.756 18.7076 20.8486C18.6151 20.9411 18.4899 20.9937 18.359 20.995L5.64204 21C5.5103 21 5.38387 20.948 5.29025 20.8553C5.19662 20.7626 5.14336 20.6367 5.14204 20.505V3.5C5.14204 3.36739 5.19472 3.24021 5.28849 3.14645C5.38226 3.05268 5.50943 3 5.64204 3H13.5V8.293H18.859L18.854 20.5Z" fill="#333333"/>
</svg>
