<svg width="24" height="24" viewBox="0 0 24 24" fill="none" xmlns="http://www.w3.org/2000/svg">
<path d="M15.647 10.031H8.907V11.031H15.647V10.031Z" fill="#333333"/>
<path d="M15.647 12.031H8.907V13.031H15.647V12.031Z" fill="#333333"/>
<path d="M14.804 18.026C14.768 18.062 14.75 18.106 14.75 18.156V19.257C14.75 19.358 14.83 19.438 14.931 19.438H16.032C16.079 19.438 16.126 19.42 16.159 19.384L20.115 15.431L18.756 14.072L14.804 18.026Z" fill="#333333"/>
<path d="M21.166 13.87L20.318 13.022C20.177 12.881 19.948 12.881 19.807 13.022L19.144 13.685L20.503 15.044L21.166 14.381C21.307 14.24 21.307 14.011 21.166 13.87Z" fill="#333333"/>
<path d="M16.685 20.959L3.035 20.965V3.041L16.684 3.035V14.72L17.719 13.685V3.035C17.719 2.76 17.61 2.497 17.416 2.303C17.222 2.109 16.959 2 16.685 2L3.035 2.006C2.464 2.006 2 2.47 2 3.041V20.965C2 21.24 2.109 21.503 2.303 21.697C2.498 21.891 2.761 22 3.035 22L16.684 21.994C17.255 21.994 17.719 21.53 17.719 20.959V19.238L16.684 20.273L16.685 20.959Z" fill="#333333"/>
<path d="M6.775 10.783V12.279H5.279V10.783H6.775ZM7.527 10.031H4.527V13.031H7.527V10.031Z" fill="#333333"/>
<path d="M5.365 7.836L4.035 6.507L4.679 5.863L5.365 6.548L7.375 4.538L8.019 5.181L5.365 7.836Z" fill="#333333"/>
<path d="M5.368 18.276L4.039 16.946L4.682 16.302L5.368 16.988L7.378 14.977L8.022 15.621L5.368 18.276Z" fill="#333333"/>
<path d="M15.647 4.538H8.907V5.538H15.647V4.538Z" fill="#333333"/>
<path d="M15.647 6.533H8.907V7.533H15.647V6.533Z" fill="#333333"/>
<path d="M15.647 14.977H8.907V15.977H15.419L15.647 15.749V14.977Z" fill="#333333"/>
<path d="M8.907 16.977V17.977H13.419L14.419 16.977H8.907Z" fill="#333333"/>
</svg>
