<svg width="24" height="24" viewBox="0 0 24 24" fill="none" xmlns="http://www.w3.org/2000/svg">
<path d="M8.907 4.538H15.647V5.538H8.907V4.538Z" fill="#333333"/>
<path d="M8.907 6.533H15.647V7.533H8.907V6.533Z" fill="#333333"/>
<path d="M8.906 10.031H15.646V11.031H8.906V10.031Z" fill="#333333"/>
<path d="M8.906 12.031H15.646V13.031H8.906V12.031Z" fill="#333333"/>
<path d="M4.678 5.863L5.364 6.549L7.374 4.538L8.018 5.181L5.364 7.836L4.034 6.506L4.678 5.863Z" fill="#333333"/>
<path fill-rule="evenodd" clip-rule="evenodd" d="M7.526 10.031V13.031H4.526V10.031H7.526ZM5.278 10.783H6.774V12.279H5.278V10.783Z" fill="#333333"/>
<path d="M5.367 18.276L4.037 16.946L4.681 16.302L5.367 16.988L7.377 14.977L8.021 15.621L5.367 18.276Z" fill="#333333"/>
<path fill-rule="evenodd" clip-rule="evenodd" d="M24 0H0V24H24V0ZM16.581 20.273H13.996C13.859 20.273 13.749 20.162 13.749 20.026V17.978H8.906V16.978H14.418L14.412 16.986L15.422 15.978H8.906V14.978H15.646V15.754L17.718 13.686V3.035C17.718 2.76 17.609 2.497 17.415 2.303C17.221 2.109 16.958 2 16.683 2L2.799 2.006C2.358 2.006 2 2.364 2 2.805V20.964C2 21.239 2.109 21.502 2.303 21.696C2.497 21.89 2.76 21.999 3.035 21.999L16.92 21.993C17.361 21.993 17.719 21.635 17.719 21.194V19.238L16.757 20.2C16.71 20.246 16.647 20.273 16.581 20.273ZM20.317 13.022L21.165 13.87C21.306 14.011 21.306 14.24 21.165 14.381L20.502 15.044L19.143 13.685L19.806 13.022C19.947 12.881 20.176 12.881 20.317 13.022ZM14.749 18.156C14.749 18.106 14.767 18.062 14.803 18.026L18.755 14.072L20.114 15.431L16.158 19.384C16.125 19.42 16.078 19.438 16.031 19.438H14.93C14.829 19.438 14.749 19.358 14.749 19.257V18.156Z" fill="#333333"/>
</svg>
