<svg width="24" height="24" viewBox="0 0 24 24" fill="none" xmlns="http://www.w3.org/2000/svg">
<path d="M12.258 17.685V16.686L6.654 16.687V17.685H12.258Z" fill="#333333"/>
<path d="M14.771 7.919H6.654V8.918H14.771V7.919Z" fill="#333333"/>
<path d="M6.654 10.843V11.842H14.771V10.843H6.654Z" fill="#333333"/>
<path fill-rule="evenodd" clip-rule="evenodd" d="M24 0H0V24H24V0ZM6.082 4.185H6.09C6.329 4.185 6.523 3.991 6.523 3.752V2.433C6.523 2.194 6.329 2 6.09 2H6.082C5.843 2 5.649 2.194 5.649 2.433V3.752C5.649 3.991 5.843 4.185 6.082 4.185ZM13.084 4.185H13.092C13.331 4.185 13.525 3.991 13.525 3.752V2.433C13.525 2.194 13.331 2 13.092 2H13.084C12.845 2 12.651 2.194 12.651 2.433V3.752C12.651 3.991 12.845 4.185 13.084 4.185ZM11.191 3.752C11.191 3.991 10.997 4.185 10.758 4.185H10.75C10.511 4.185 10.317 3.991 10.317 3.752V2.433C10.317 2.194 10.511 2 10.75 2H10.758C10.997 2 11.191 2.194 11.191 2.433V3.752ZM7.983 3.752C7.983 3.991 8.177 4.185 8.416 4.185H8.424C8.663 4.185 8.857 3.991 8.857 3.752V2.433C8.857 2.194 8.663 2 8.424 2H8.416C8.177 2 7.983 2.194 7.983 2.433V3.752ZM15.426 4.185H15.418C15.179 4.185 14.985 3.991 14.985 3.752V2.433C14.985 2.194 15.179 2 15.418 2H15.426C15.665 2 15.859 2.194 15.859 2.433V3.752C15.859 3.991 15.665 4.185 15.426 4.185ZM21.211 11.251L20.27 10.31C20.113 10.153 19.86 10.153 19.703 10.31L18.967 11.046L20.475 12.554L21.211 11.818C21.368 11.661 21.368 11.408 21.211 11.251ZM2.874 4.516V21.124L15.73 21.125C15.728 21.605 15.338 21.995 14.857 21.995L2.874 22C2.643 22 2.42 21.908 2.256 21.744C2.092 21.58 2 21.358 2 21.126V5.39C2 4.908 2.391 4.516 2.874 4.516ZM14.152 15.862C14.112 15.902 14.092 15.951 14.092 16.007V17.229C14.092 17.342 14.18 17.43 14.293 17.43H15.515C15.567 17.43 15.62 17.41 15.656 17.37L20.046 12.984L18.538 11.476L14.152 15.862ZM17.607 3.516V11.024L14.771 13.859V13.764H6.654V14.763H13.866L13.414 15.215C13.337 15.292 13.298 15.385 13.298 15.494V17.852C13.298 18.069 13.469 18.24 13.686 18.24H16.044C16.145 18.24 16.246 18.202 16.316 18.124L17.607 16.835V19.248C17.607 19.731 17.216 20.122 16.733 20.122L4.752 20.128C4.52 20.128 4.298 20.036 4.134 19.872C3.97 19.708 3.878 19.486 3.878 19.254V3.521C3.878 3.038 4.269 2.647 4.752 2.647H5.179V3.73C5.179 4.232 5.584 4.638 6.086 4.638C6.588 4.638 6.994 4.231 6.994 3.73V2.646H7.512V3.73C7.512 4.232 7.919 4.638 8.42 4.638C8.922 4.638 9.328 4.231 9.328 3.73V2.645H9.846V3.73C9.846 4.232 10.252 4.638 10.754 4.638C11.256 4.638 11.662 4.231 11.662 3.73V2.644H12.18V3.73C12.18 4.232 12.587 4.638 13.088 4.638C13.59 4.638 13.996 4.231 13.996 3.73V2.642H14.514V3.73C14.514 4.232 14.92 4.638 15.422 4.638C15.924 4.638 16.33 4.231 16.33 3.73V2.642H16.733C16.965 2.642 17.187 2.734 17.351 2.898C17.515 3.062 17.607 3.284 17.607 3.516Z" fill="#333333"/>
</svg>
