<svg width="24" height="24" viewBox="0 0 24 24" fill="none" xmlns="http://www.w3.org/2000/svg">
<path d="M8.723 10.253H6.723V12.253H8.723V10.253Z" fill="#333333"/>
<path d="M8.723 15.338H6.723V17.338H8.723V15.338Z" fill="#333333"/>
<path d="M15.995 12C13.235 12 11 14.24 11 17C11 19.76 13.235 22 15.995 22C18.76 22 21 19.76 21 17C21 14.24 18.76 12 15.995 12ZM16 21C13.79 21 12 19.21 12 17C12 14.79 13.79 13 16 13C18.21 13 20 14.79 20 17C20 19.21 18.21 21 16 21Z" fill="#333333"/>
<path d="M16.25 14.5H15.5V17.5L18.125 19.075L18.5 18.46L16.25 17.125V14.5Z" fill="#333333"/>
<path d="M18.111 4.9C18.601 4.9 19 5.304 19 5.8V7.65H4.008L4.009 5.8C4.009 5.304 4.404 4.9 4.888 4.9H18.111ZM17.167 2H15.278V3.9H7.722V2H5.833V3.9H4.889C3.841 3.9 3.01 4.755 3.01 5.8L3 19.1C3 20.145 3.841 21 4.889 21H11.535C11.041 20.449 10.649 19.807 10.385 19.1H4.889V8.65H18.111V11.391C18.813 11.656 19.451 12.047 20 12.539V5.8C20 4.755 19.15 3.9 18.111 3.9H17.167V2Z" fill="#333333"/>
<path d="M12.5 10.253H10.5V12.253H12.5V10.253Z" fill="#333333"/>
</svg>
