<svg width="24" height="24" viewBox="0 0 24 24" fill="none" xmlns="http://www.w3.org/2000/svg">
<path d="M20.508 17.521C20.508 16.697 19.84 16.029 19.016 16.029C18.192 16.029 17.524 16.696 17.524 17.521C17.524 18.345 18.192 19.013 19.016 19.013C19.84 19.013 20.508 18.346 20.508 17.521Z" fill="#333333"/>
<path d="M19.017 19.759C18.021 19.759 16.034 20.259 16.034 21.251V21.997H22V21.251C22 20.259 20.012 19.759 19.017 19.759Z" fill="#333333"/>
<path d="M12.03 19.759C11.034 19.759 9.047 20.259 9.047 21.251V21.997H15.013V21.251C15.013 20.259 13.026 19.759 12.03 19.759Z" fill="#333333"/>
<path d="M13.522 17.521C13.522 16.697 12.855 16.029 12.03 16.029C11.206 16.029 10.538 16.696 10.538 17.521C10.538 18.345 11.205 19.013 12.03 19.013C12.854 19.013 13.522 18.346 13.522 17.521Z" fill="#333333"/>
<path d="M6.475 17.521C6.475 16.697 5.808 16.029 4.983 16.029C4.158 16.029 3.491 16.696 3.491 17.521C3.491 18.345 4.159 19.013 4.983 19.013C5.807 19.013 6.475 18.346 6.475 17.521Z" fill="#333333"/>
<path d="M4.983 19.759C3.987 19.759 2 20.259 2 21.251V21.997H7.966V21.251C7.966 20.259 5.979 19.759 4.983 19.759Z" fill="#333333"/>
<path d="M9.666 10.002C9.66 9.984 9.646 9.972 9.638 9.955L12.703 6.89L12.526 6.713L9.486 9.753C9.333 9.62 9.12 9.562 8.913 9.633L8.538 9.761L7.999 8.185C7.995 8.174 7.987 8.168 7.983 8.157C7.799 7.696 7.411 7.339 6.923 7.212C6.796 7.179 6.665 7.156 6.528 7.156H4.156C4.019 7.156 3.888 7.18 3.761 7.213C3.197 7.362 2.773 7.82 2.641 8.391C2.626 8.43 2.605 8.466 2.6 8.51L2.079 12.383C2.035 12.708 2.263 13.006 2.588 13.05C2.913 13.094 3.211 12.866 3.255 12.541L3.762 8.77V13.11H6.924V8.703L7.611 10.712C7.717 11.022 8.054 11.187 8.364 11.081C8.377 11.077 8.385 11.066 8.398 11.061L9.298 10.753C9.607 10.649 9.772 10.312 9.666 10.002Z" fill="#333333"/>
<path d="M5.342 6.365C6.21516 6.365 6.923 5.65716 6.923 4.784C6.923 3.91084 6.21516 3.203 5.342 3.203C4.46884 3.203 3.761 3.91084 3.761 4.784C3.761 5.65716 4.46884 6.365 5.342 6.365Z" fill="#333333"/>
<path d="M9.047 2V8.536L10.047 8.202V3H21V12.111H10.047V11.554L9.047 11.889V13.111H22V2H9.047Z" fill="#333333"/>
</svg>
