<svg width="24" height="24" viewBox="0 0 24 24" fill="none" xmlns="http://www.w3.org/2000/svg">
<path d="M18.951 16.842C19.222 16.842 19.443 17.063 19.443 17.334C19.443 17.605 19.222 17.826 18.951 17.826C18.68 17.826 18.459 17.605 18.459 17.334C18.459 17.062 18.68 16.842 18.951 16.842ZM18.951 15.842C18.127 15.842 17.459 16.509 17.459 17.334C17.459 18.158 18.127 18.826 18.951 18.826C19.775 18.826 20.443 18.159 20.443 17.334C20.442 16.509 19.775 15.842 18.951 15.842Z" fill="#333333"/>
<path d="M18.951 20.571C19.377 20.571 19.876 20.674 20.274 20.808H17.628C18.025 20.673 18.525 20.571 18.951 20.571ZM18.951 19.571C17.955 19.571 15.968 20.071 15.968 21.063V21.809H21.934V21.063C21.934 20.07 19.946 19.571 18.951 19.571Z" fill="#333333"/>
<path d="M11.964 20.571C12.39 20.571 12.889 20.674 13.287 20.808H10.641C11.039 20.673 11.538 20.571 11.964 20.571ZM11.964 19.571C10.968 19.571 8.98102 20.071 8.98102 21.063V21.809H14.947V21.063C14.948 20.07 12.96 19.571 11.964 19.571Z" fill="#333333"/>
<path d="M11.964 16.842C12.235 16.842 12.456 17.063 12.456 17.334C12.456 17.605 12.235 17.826 11.964 17.826C11.693 17.826 11.472 17.605 11.472 17.334C11.473 17.062 11.693 16.842 11.964 16.842ZM11.964 15.842C11.14 15.842 10.472 16.509 10.472 17.334C10.472 18.158 11.139 18.826 11.964 18.826C12.788 18.826 13.456 18.159 13.456 17.334C13.456 16.509 12.788 15.842 11.964 15.842Z" fill="#333333"/>
<path d="M4.91702 16.842C5.18802 16.842 5.40902 17.063 5.40902 17.334C5.40902 17.605 5.18802 17.826 4.91702 17.826C4.64602 17.826 4.42502 17.605 4.42502 17.334C4.42602 17.062 4.64602 16.842 4.91702 16.842ZM4.91702 15.842C4.09302 15.842 3.42502 16.509 3.42502 17.334C3.42502 18.158 4.09302 18.826 4.91702 18.826C5.74102 18.826 6.40902 18.159 6.40902 17.334C6.40902 16.509 5.74102 15.842 4.91702 15.842Z" fill="#333333"/>
<path d="M4.91702 20.571C5.34302 20.571 5.84202 20.674 6.24002 20.808H3.59402C3.99202 20.673 4.49102 20.571 4.91702 20.571ZM4.91702 19.571C3.92102 19.571 1.93402 20.071 1.93402 21.063V21.809H7.90002V21.063C7.90102 20.07 5.91302 19.571 4.91702 19.571Z" fill="#333333"/>
<path d="M9.60002 9.814C9.59402 9.796 9.58002 9.784 9.57202 9.767L12.637 6.702L12.46 6.525L9.42002 9.565C9.26602 9.432 9.05302 9.374 8.84602 9.445L8.47202 9.573L7.93302 7.997C7.92902 7.987 7.92102 7.98 7.91702 7.97C7.73302 7.509 7.34502 7.152 6.85702 7.025C6.73002 6.991 6.59902 6.967 6.46202 6.967H4.09002C3.95302 6.967 3.82202 6.991 3.69502 7.024C3.13102 7.173 2.70702 7.631 2.57502 8.202C2.56002 8.242 2.53902 8.278 2.53402 8.322L2.01302 12.195C1.96902 12.52 2.19702 12.818 2.52202 12.862C2.84702 12.906 3.14502 12.678 3.18902 12.353L3.69602 8.582V12.922H6.85802V8.515L7.54502 10.524C7.65002 10.835 7.98702 11 8.29702 10.894C8.31002 10.89 8.31802 10.879 8.33102 10.874L9.23102 10.566C9.54102 10.461 9.70602 10.123 9.60002 9.814Z" fill="#333333"/>
<path d="M5.27602 6.177C6.14918 6.177 6.85702 5.46916 6.85702 4.596C6.85702 3.72284 6.14918 3.015 5.27602 3.015C4.40286 3.015 3.69502 3.72284 3.69502 4.596C3.69502 5.46916 4.40286 6.177 5.27602 6.177Z" fill="#333333"/>
<path d="M8.98102 1.811V8.348L9.98102 8.014V2.811H20.934V11.923H9.98102V11.366L8.98102 11.7V12.923H21.934V1.811H8.98102Z" fill="#333333"/>
</svg>
