<svg width="24" height="24" viewBox="0 0 24 24" fill="none" xmlns="http://www.w3.org/2000/svg">
<path d="M6.97462 3.114L6.88762 2.56L5.55462 2.767L5.64262 3.32L6.97462 3.114Z" fill="#333333"/>
<path d="M6.03065 12.023V19.417C6.03222 19.73 6.15723 20.0299 6.37853 20.2514C6.59983 20.4729 6.89956 20.5981 7.21265 20.6H15.8126C16.1269 20.5994 16.4282 20.4743 16.6503 20.2519C16.8725 20.0296 16.9974 19.7282 16.9977 19.4139V12.023H6.03065Z" fill="#333333"/>
<path d="M16.4106 4.51106L15.0216 4.36506L15.0956 3.66506C15.1097 3.48794 15.1892 3.3224 15.3186 3.2006C15.448 3.07881 15.618 3.00947 15.7956 3.00606H15.8666C15.9574 3.01611 16.0453 3.0443 16.125 3.08896C16.2047 3.13363 16.2747 3.19385 16.3306 3.26606C16.4511 3.4195 16.5065 3.61418 16.4846 3.80806L16.4106 4.51106Z" fill="#333333"/>
<path fill-rule="evenodd" clip-rule="evenodd" d="M24 0H0V24H24V0ZM7.41262 2.386L7.59662 3.56L5.19162 3.941L5.00562 2.767C4.99622 2.70764 4.99863 2.647 5.0127 2.58856C5.02677 2.53013 5.05223 2.47504 5.08762 2.42646C5.12301 2.37788 5.16764 2.33676 5.21895 2.30545C5.27025 2.27414 5.32723 2.25326 5.38662 2.244L6.88662 2.006C6.91041 2.00202 6.9345 2.00001 6.95862 2C7.0679 1.9996 7.17373 2.03828 7.25698 2.10907C7.34024 2.17986 7.39544 2.27808 7.41262 2.386ZM7.25362 4.86797L5.92062 5.07897L6.87362 11.087H6.32362L5.29962 4.62797L7.70462 4.24597L8.78962 11.087H8.23962L7.25362 4.86797ZM16.2336 6.20404L14.8436 6.05804L14.3126 11.087H13.7706L14.3606 5.46204L16.8296 5.72104L16.7446 6.53804L17.7826 6.64704C17.8183 6.65065 17.8529 6.6613 17.8844 6.67837C17.9159 6.69545 17.9438 6.71861 17.9663 6.74651C17.9888 6.77441 18.0055 6.8065 18.0155 6.84093C18.0256 6.87535 18.0286 6.91141 18.0246 6.94704L17.7406 9.64704C17.7339 9.71379 17.7027 9.77569 17.653 9.82076C17.6034 9.86584 17.5387 9.89087 17.4716 9.89104H17.4426C17.407 9.8873 17.3725 9.87656 17.341 9.85945C17.3096 9.84233 17.2818 9.81917 17.2593 9.7913C17.2368 9.76343 17.2201 9.73139 17.21 9.69702C17.1999 9.66265 17.1967 9.62664 17.2006 9.59104L17.4566 7.15804L16.6876 7.07804L16.2666 11.087H15.7206L16.2336 6.20404ZM15.8126 21.076H7.21265C6.77282 21.0754 6.35115 20.9005 6.04014 20.5895C5.72914 20.2784 5.55418 19.8568 5.55365 19.417V11.549H17.4636V19.417C17.4631 19.8554 17.2893 20.2759 16.98 20.5866C16.6707 20.8974 16.2511 21.0733 15.8126 21.076ZM10.0786 4.56104V11.087H11.2766V10.534H12.9406V9.99104H11.2766V9.44804H12.9406V8.90504H11.2766V8.36204H12.9406V7.81904H11.2766V7.27604H12.9406V6.73304H11.2766V6.19004H12.9406V5.64704H11.2766V5.10404H12.9406V4.56104H10.0786ZM17.0246 3.86706C17.0641 3.53559 16.9705 3.20199 16.7642 2.93951C16.558 2.67702 16.256 2.5071 15.9246 2.46706C15.9036 2.46706 15.8824 2.46556 15.8612 2.46406C15.8399 2.46256 15.8186 2.46106 15.7976 2.46106C15.486 2.4654 15.1869 2.58484 14.958 2.7964C14.7291 3.00796 14.5865 3.29669 14.5576 3.60706L14.4266 4.84806L16.8966 5.10706L17.0246 3.86706ZM7.64264 21.538C7.77434 21.6828 7.93471 21.7986 8.11358 21.8782C8.29244 21.9577 8.48589 21.9992 8.68164 22H14.3376C14.5334 21.9992 14.7269 21.9578 14.9057 21.8783C15.0846 21.7987 15.245 21.6828 15.3766 21.538H7.64264Z" fill="#333333"/>
</svg>
