<svg width="48" height="48" viewBox="0 0 48 48" fill="none" xmlns="http://www.w3.org/2000/svg">
<path d="M24.7425 9.44604C24.7425 9.44604 35.0548 14.9459 35.3986 23.8832C35.3986 23.8832 42.6172 1.19622 24.7425 4.2899C24.7425 4.2899 19.2427 7.03984 24.3988 10.821H26.805" stroke="black" stroke-width="0.25" stroke-miterlimit="10"/>
<path d="M23.1756 9.90182C23.1756 9.90182 14.9258 11.9643 12.5196 19.5266C12.5196 19.5266 11.8321 14.3705 12.8634 11.2768C13.8946 8.52684 18.707 3.71444 22.4882 5.43315" stroke="black" stroke-width="0.25" stroke-miterlimit="10"/>
<path d="M15.4615 12.1959C15.4615 12.1959 17.8677 8.75849 21.9926 7.38351" stroke="black" stroke-width="0.25" stroke-miterlimit="10"/>
<path d="M13.0553 23.8832C13.0553 23.8832 14.774 11.5084 29.2112 12.5397" stroke="black" stroke-width="0.25" stroke-miterlimit="10"/>
<path d="M30.9299 9.1022C30.9299 9.1022 35.7423 11.1647 36.7735 14.9458" stroke="black" stroke-width="0.25" stroke-miterlimit="10"/>
<path d="M12.8501 23.1402C12.8517 23.1554 12.8624 23.2425 12.8635 23.2544C13.0301 25.1837 12.7528 25.6963 12.7829 27.0073C12.8336 29.2062 13.4079 30.9083 14.3808 32.9087C15.3536 34.9091 16.725 37.2229 18.4359 40.7436C19.5096 42.9532 21.9985 44.0163 24.4446 43.9998C26.8908 43.9833 29.37 42.8907 30.4131 40.6765C32.0645 37.1714 33.3511 34.9721 34.2534 33.0295C35.1557 31.087 35.666 29.3895 35.7036 26.9805C35.7249 25.6162 35.485 25.3288 35.5492 23.1805C35.5493 23.1754 35.5489 23.1459 35.5492 23.1402H34.8576C34.8575 23.144 34.8578 23.1567 34.8576 23.1605C34.7919 25.3612 35.032 25.6877 35.0121 26.9672C34.9759 29.287 34.5156 30.8468 33.6357 32.741C32.7558 34.6352 31.4518 36.8514 29.7888 40.3812C28.8886 42.2918 26.6894 43.2932 24.4446 43.3084C22.1999 43.3235 19.9809 42.3567 19.0535 40.4484C17.3313 36.9041 15.951 34.5654 14.9984 32.6067C14.0459 30.6481 13.5226 29.0843 13.4744 26.994C13.4469 25.7889 13.7213 25.1985 13.5483 23.1941C13.5475 23.1855 13.5424 23.1495 13.5414 23.1404L12.8501 23.1402Z" fill="black"/>
<path d="M20.1657 31.0851C20.1825 31.5332 20.4967 31.7818 20.8638 31.8638C21.2308 31.9459 21.6538 31.7519 21.9715 32.0115C22.2893 32.2711 22.5464 33.0753 24.2006 33.0924C25.8549 33.1096 25.717 32.386 26.4632 32.0384C26.4664 32.0366 26.4683 32.0325 26.47 32.0315C26.4718 32.0305 27.3084 31.9506 27.6114 31.8972C27.9144 31.8438 28.1885 31.545 28.1953 31.0714C28.0385 31.4649 27.8772 31.647 27.5708 31.6958C27.2644 31.7447 26.7985 31.5762 26.3959 31.7092C25.9933 31.8422 25.6277 32.1994 25.3016 32.4076C25.0179 32.5857 24.7965 32.7041 24.2006 32.7097C23.6986 32.7074 23.2783 32.5716 22.9652 32.374C22.652 32.1764 22.3775 31.8281 22.0253 31.7027C21.673 31.5772 21.1783 31.7384 20.8705 31.669C20.5627 31.5995 20.3885 31.4983 20.1657 31.085V31.0851Z" fill="black"/>
<path d="M29.3266 36.6697C29.3266 37.0135 26.1993 35.0584 25.5118 35.0584C25.1681 35.0584 24.3597 35.7996 24.1503 35.7996C23.9408 35.7996 23.4762 35.0719 22.7887 35.0719C21.7575 35.0719 19.5755 36.6643 19.0344 36.6563C20.8163 35.5606 21.8703 34.669 22.7485 34.5536C23.2668 34.5536 23.8065 34.8839 24.1503 35.2276C24.5155 34.8973 25.0741 34.5455 25.5253 34.5401C26.296 34.6019 27.9516 35.9822 29.3266 36.6697Z" fill="black"/>
<path d="M29.3367 36.6695C29.3367 36.8414 26.9305 39.4195 24.1805 39.4195C21.4306 39.4195 19.0244 36.8522 19.0244 36.6695C19.0244 36.487 21.4306 38.9683 24.1805 38.9683C26.9305 38.9683 29.3367 36.4977 29.3367 36.6695Z" fill="black"/>
<path d="M29.007 36.6696C29.007 36.9041 27.1028 36.66 25.6855 36.6816C24.9594 36.6926 24.6559 36.9715 24.2147 36.9622C23.7735 36.9529 23.4683 36.7474 22.7036 36.7223C21.2721 36.6753 19.354 36.8691 19.354 36.6694C21.7843 36.5217 19.7846 36.6598 22.6906 36.5116C23.2856 36.5123 24.0364 36.7124 24.2147 36.7124C24.3889 36.7124 24.9706 36.5095 25.6717 36.5138C28.6245 36.66 26.684 36.514 29.007 36.6694V36.6696Z" fill="black"/>
<path d="M17.4708 24.9663C17.4708 24.9663 18.8728 24.2762 19.7099 24.4155C21.6828 24.8703 21.4862 25.8746 21.4862 25.8746C21.5565 25.6744 21.2568 26.9075 19.2767 26.4328C18.2639 26.1575 17.4708 24.9663 17.4708 24.9663V24.9663Z" fill="black"/>
<path d="M35.3984 23.8833C35.3984 23.8833 37.0193 22.8959 37.5008 23.7326C37.9823 24.5694 37.2211 26.1712 36.9649 27.3046C36.5898 28.9635 36.3152 30.6958 35.2189 30.2061" stroke="black" stroke-width="0.2"/>
<path d="M13.2587 23.9708C13.2587 23.9708 11.6378 22.9834 11.1563 23.8201C10.6748 24.6569 11.436 26.2587 11.6922 27.3921C12.0672 29.051 12.3419 30.7833 13.4382 30.2936" stroke="black" stroke-width="0.2"/>
<path d="M31.3779 24.9663C31.3779 24.9663 29.9759 24.2762 29.1388 24.4155C27.1659 24.8703 27.3625 25.8746 27.3625 25.8746C27.2922 25.6744 27.5919 26.9075 29.572 26.4328C30.5848 26.1575 31.3779 24.9663 31.3779 24.9663V24.9663Z" fill="black"/>
</svg>
