<svg width="48" height="48" viewBox="0 0 48 48" fill="none" xmlns="http://www.w3.org/2000/svg">
<path d="M19.8781 5.23865C20.104 5.23865 20.2872 5.05377 20.2872 4.82572C20.2872 4.59767 20.104 4.41281 19.8781 4.41281C19.6521 4.41281 19.4689 4.59767 19.4689 4.82572C19.4689 5.05377 19.6521 5.23865 19.8781 5.23865Z" fill="black"/>
<path d="M19.0597 7.30326C19.2857 7.30326 19.4689 7.11838 19.4689 6.89033C19.4689 6.66228 19.2857 6.47742 19.0597 6.47742C18.8337 6.47742 18.6506 6.66228 18.6506 6.89033C18.6506 7.11838 18.8337 7.30326 19.0597 7.30326Z" fill="black"/>
<path d="M19.469 6.0645C19.695 6.0645 19.8782 5.87964 19.8782 5.65159C19.8782 5.42354 19.695 5.23868 19.469 5.23868C19.2431 5.23868 19.0599 5.42354 19.0599 5.65159C19.0599 5.87964 19.2431 6.0645 19.469 6.0645Z" fill="black"/>
<path d="M21.5147 6.0645C21.7407 6.0645 21.9239 5.87964 21.9239 5.65159C21.9239 5.42354 21.7407 5.23868 21.5147 5.23868C21.2887 5.23868 21.1055 5.42354 21.1055 5.65159C21.1055 5.87964 21.2887 6.0645 21.5147 6.0645Z" fill="black"/>
<path d="M17.8323 5.65172C18.0583 5.65172 18.2415 5.46686 18.2415 5.23881C18.2415 5.01076 18.0583 4.8259 17.8323 4.8259C17.6064 4.8259 17.4232 5.01076 17.4232 5.23881C17.4232 5.46686 17.6064 5.65172 17.8323 5.65172Z" fill="black"/>
<path d="M18.6507 5.65172C18.8767 5.65172 19.0598 5.46686 19.0598 5.23881C19.0598 5.01076 18.8767 4.8259 18.6507 4.8259C18.4247 4.8259 18.2415 5.01076 18.2415 5.23881C18.2415 5.46686 18.4247 5.65172 18.6507 5.65172Z" fill="black"/>
<path d="M17.0141 5.65172C17.24 5.65172 17.4232 5.46686 17.4232 5.23881C17.4232 5.01076 17.24 4.8259 17.0141 4.8259C16.7881 4.8259 16.6049 5.01076 16.6049 5.23881C16.6049 5.46686 16.7881 5.65172 17.0141 5.65172Z" fill="black"/>
<path d="M20.2871 6.0645C20.513 6.0645 20.6962 5.87964 20.6962 5.65159C20.6962 5.42354 20.513 5.23868 20.2871 5.23868C20.0611 5.23868 19.8779 5.42354 19.8779 5.65159C19.8779 5.87964 20.0611 6.0645 20.2871 6.0645Z" fill="black"/>
<path d="M21.1054 6.8904C21.3314 6.8904 21.5146 6.70553 21.5146 6.47749C21.5146 6.24944 21.3314 6.06458 21.1054 6.06458C20.8795 6.06458 20.6963 6.24944 20.6963 6.47749C20.6963 6.70553 20.8795 6.8904 21.1054 6.8904Z" fill="black"/>
<path d="M22.333 6.8904C22.5589 6.8904 22.7421 6.70553 22.7421 6.47749C22.7421 6.24944 22.5589 6.06458 22.333 6.06458C22.107 6.06458 21.9238 6.24944 21.9238 6.47749C21.9238 6.70553 22.107 6.8904 22.333 6.8904Z" fill="black"/>
<path d="M21.5147 7.71629C21.7407 7.71629 21.9239 7.53143 21.9239 7.30338C21.9239 7.07534 21.7407 6.89047 21.5147 6.89047C21.2887 6.89047 21.1055 7.07534 21.1055 7.30338C21.1055 7.53143 21.2887 7.71629 21.5147 7.71629Z" fill="black"/>
<path d="M15.3774 8.54216C15.6034 8.54216 15.7866 8.3573 15.7866 8.12925C15.7866 7.9012 15.6034 7.71634 15.3774 7.71634C15.1514 7.71634 14.9683 7.9012 14.9683 8.12925C14.9683 8.3573 15.1514 8.54216 15.3774 8.54216Z" fill="black"/>
<path d="M18.2414 6.47759C18.4674 6.47759 18.6506 6.29272 18.6506 6.06468C18.6506 5.83663 18.4674 5.65176 18.2414 5.65176C18.0155 5.65176 17.8323 5.83663 17.8323 6.06468C17.8323 6.29272 18.0155 6.47759 18.2414 6.47759Z" fill="black"/>
<path d="M17.4231 7.30326C17.649 7.30326 17.8322 7.11838 17.8322 6.89033C17.8322 6.66228 17.649 6.47742 17.4231 6.47742C17.1971 6.47742 17.0139 6.66228 17.0139 6.89033C17.0139 7.11838 17.1971 7.30326 17.4231 7.30326Z" fill="black"/>
<path d="M15.3774 7.30326C15.6034 7.30326 15.7866 7.11838 15.7866 6.89033C15.7866 6.66228 15.6034 6.47742 15.3774 6.47742C15.1514 6.47742 14.9683 6.66228 14.9683 6.89033C14.9683 7.11838 15.1514 7.30326 15.3774 7.30326Z" fill="black"/>
<path d="M11.286 13.0842C11.512 13.0842 11.6952 12.8993 11.6952 12.6712C11.6952 12.4432 11.512 12.2583 11.286 12.2583C11.0601 12.2583 10.8769 12.4432 10.8769 12.6712C10.8769 12.8993 11.0601 13.0842 11.286 13.0842Z" fill="black"/>
<path d="M14.5591 8.955C14.785 8.955 14.9682 8.77014 14.9682 8.54209C14.9682 8.31404 14.785 8.12918 14.5591 8.12918C14.3331 8.12918 14.1499 8.31404 14.1499 8.54209C14.1499 8.77014 14.3331 8.955 14.5591 8.955Z" fill="black"/>
<path d="M10.8768 17.2134C11.1027 17.2134 11.2859 17.0285 11.2859 16.8005C11.2859 16.5724 11.1027 16.3875 10.8768 16.3875C10.6508 16.3875 10.4676 16.5724 10.4676 16.8005C10.4676 17.0285 10.6508 17.2134 10.8768 17.2134Z" fill="black"/>
<path d="M16.1957 6.0645C16.4217 6.0645 16.6048 5.87964 16.6048 5.65159C16.6048 5.42354 16.4217 5.23868 16.1957 5.23868C15.9697 5.23868 15.7865 5.42354 15.7865 5.65159C15.7865 5.87964 15.9697 6.0645 16.1957 6.0645Z" fill="black"/>
<path d="M17.0141 6.8904C17.24 6.8904 17.4232 6.70553 17.4232 6.47749C17.4232 6.24944 17.24 6.06458 17.0141 6.06458C16.7881 6.06458 16.6049 6.24944 16.6049 6.47749C16.6049 6.70553 16.7881 6.8904 17.0141 6.8904Z" fill="black"/>
<path d="M15.7864 6.47759C16.0124 6.47759 16.1956 6.29272 16.1956 6.06468C16.1956 5.83663 16.0124 5.65176 15.7864 5.65176C15.5605 5.65176 15.3773 5.83663 15.3773 6.06468C15.3773 6.29272 15.5605 6.47759 15.7864 6.47759Z" fill="black"/>
<path d="M11.286 15.1487C11.512 15.1487 11.6952 14.9639 11.6952 14.7358C11.6952 14.5078 11.512 14.3229 11.286 14.3229C11.0601 14.3229 10.8769 14.5078 10.8769 14.7358C10.8769 14.9639 11.0601 15.1487 11.286 15.1487Z" fill="black"/>
<path d="M14.5591 7.71629C14.785 7.71629 14.9682 7.53143 14.9682 7.30338C14.9682 7.07534 14.785 6.89047 14.5591 6.89047C14.3331 6.89047 14.1499 7.07534 14.1499 7.30338C14.1499 7.53143 14.3331 7.71629 14.5591 7.71629Z" fill="black"/>
<path d="M11.286 16.3875C11.512 16.3875 11.6952 16.2026 11.6952 15.9746C11.6952 15.7465 11.512 15.5616 11.286 15.5616C11.0601 15.5616 10.8769 15.7465 10.8769 15.9746C10.8769 16.2026 11.0601 16.3875 11.286 16.3875Z" fill="black"/>
<path d="M11.286 12.2583C11.512 12.2583 11.6952 12.0734 11.6952 11.8454C11.6952 11.6173 11.512 11.4325 11.286 11.4325C11.0601 11.4325 10.8769 11.6173 10.8769 11.8454C10.8769 12.0734 11.0601 12.2583 11.286 12.2583Z" fill="black"/>
<path d="M11.286 13.9101C11.512 13.9101 11.6952 13.7252 11.6952 13.4971C11.6952 13.2691 11.512 13.0842 11.286 13.0842C11.0601 13.0842 10.8769 13.2691 10.8769 13.4971C10.8769 13.7252 11.0601 13.9101 11.286 13.9101Z" fill="black"/>
<path d="M11.695 11.4324C11.921 11.4324 12.1042 11.2475 12.1042 11.0195C12.1042 10.7914 11.921 10.6066 11.695 10.6066C11.4691 10.6066 11.2859 10.7914 11.2859 11.0195C11.2859 11.2475 11.4691 11.4324 11.695 11.4324Z" fill="black"/>
<path d="M20.2871 6.8904C20.513 6.8904 20.6962 6.70553 20.6962 6.47749C20.6962 6.24944 20.513 6.06458 20.2871 6.06458C20.0611 6.06458 19.8779 6.24944 19.8779 6.47749C19.8779 6.70553 20.0611 6.8904 20.2871 6.8904Z" fill="black"/>
<path d="M16.1957 7.71629C16.4217 7.71629 16.6048 7.53143 16.6048 7.30338C16.6048 7.07534 16.4217 6.89047 16.1957 6.89047C15.9697 6.89047 15.7865 7.07534 15.7865 7.30338C15.7865 7.53143 15.9697 7.71629 16.1957 7.71629Z" fill="black"/>
<path d="M16.1957 8.955C16.4217 8.955 16.6048 8.77014 16.6048 8.54209C16.6048 8.31404 16.4217 8.12918 16.1957 8.12918C15.9697 8.12918 15.7865 8.31404 15.7865 8.54209C15.7865 8.77014 15.9697 8.955 16.1957 8.955Z" fill="black"/>
<path d="M20.6963 5.23865C20.9223 5.23865 21.1055 5.05377 21.1055 4.82572C21.1055 4.59767 20.9223 4.41281 20.6963 4.41281C20.4704 4.41281 20.2872 4.59767 20.2872 4.82572C20.2872 5.05377 20.4704 5.23865 20.6963 5.23865Z" fill="black"/>
<path d="M13.7408 9.36783C13.9667 9.36783 14.1499 9.18295 14.1499 8.9549C14.1499 8.72686 13.9667 8.54199 13.7408 8.54199C13.5148 8.54199 13.3316 8.72686 13.3316 8.9549C13.3316 9.18295 13.5148 9.36783 13.7408 9.36783Z" fill="black"/>
<path d="M18.2414 7.71629C18.4674 7.71629 18.6506 7.53143 18.6506 7.30338C18.6506 7.07534 18.4674 6.89047 18.2414 6.89047C18.0155 6.89047 17.8323 7.07534 17.8323 7.30338C17.8323 7.53143 18.0155 7.71629 18.2414 7.71629Z" fill="black"/>
<path d="M14.9683 9.36783C15.1943 9.36783 15.3775 9.18295 15.3775 8.9549C15.3775 8.72686 15.1943 8.54199 14.9683 8.54199C14.7423 8.54199 14.5592 8.72686 14.5592 8.9549C14.5592 9.18295 14.7423 9.36783 14.9683 9.36783Z" fill="black"/>
<path d="M17.4231 8.12914C17.649 8.12914 17.8322 7.94427 17.8322 7.71623C17.8322 7.48818 17.649 7.30331 17.4231 7.30331C17.1971 7.30331 17.0139 7.48818 17.0139 7.71623C17.0139 7.94427 17.1971 8.12914 17.4231 8.12914Z" fill="black"/>
<path d="M13.7408 10.1937C13.9667 10.1937 14.1499 10.0088 14.1499 9.7808C14.1499 9.55275 13.9667 9.36789 13.7408 9.36789C13.5148 9.36789 13.3316 9.55275 13.3316 9.7808C13.3316 10.0088 13.5148 10.1937 13.7408 10.1937Z" fill="black"/>
<path d="M19.469 7.71629C19.695 7.71629 19.8782 7.53143 19.8782 7.30338C19.8782 7.07534 19.695 6.89047 19.469 6.89047C19.2431 6.89047 19.0599 7.07534 19.0599 7.30338C19.0599 7.53143 19.2431 7.71629 19.469 7.71629Z" fill="black"/>
<path d="M12.5134 11.4324C12.7394 11.4324 12.9226 11.2475 12.9226 11.0195C12.9226 10.7914 12.7394 10.6066 12.5134 10.6066C12.2874 10.6066 12.1042 10.7914 12.1042 11.0195C12.1042 11.2475 12.2874 11.4324 12.5134 11.4324Z" fill="black"/>
<path d="M12.9224 10.6068C13.1484 10.6068 13.3316 10.4219 13.3316 10.1939C13.3316 9.96584 13.1484 9.78098 12.9224 9.78098C12.6965 9.78098 12.5133 9.96584 12.5133 10.1939C12.5133 10.4219 12.6965 10.6068 12.9224 10.6068Z" fill="black"/>
<path d="M12.1041 14.3229C12.33 14.3229 12.5132 14.138 12.5132 13.91C12.5132 13.6819 12.33 13.4971 12.1041 13.4971C11.8781 13.4971 11.6949 13.6819 11.6949 13.91C11.6949 14.138 11.8781 14.3229 12.1041 14.3229Z" fill="black"/>
<path d="M12.0837 9.09795C12.1399 8.87706 12.0081 8.65202 11.7892 8.5953C11.5703 8.53859 11.3473 8.67167 11.2911 8.89256C11.2349 9.11345 11.3668 9.33849 11.5857 9.3952C11.8045 9.45192 12.0275 9.31883 12.0837 9.09795Z" fill="black"/>
<path d="M11.3917 10.7495C11.4479 10.5286 11.316 10.3036 11.0971 10.2469C10.8783 10.1901 10.6553 10.3232 10.5991 10.5441C10.5429 10.765 10.6747 10.99 10.8936 11.0468C11.1125 11.1035 11.3355 10.9704 11.3917 10.7495Z" fill="black"/>
<path d="M10.7286 17.3553C10.7848 17.1344 10.6529 16.9093 10.434 16.8526C10.2152 16.7959 9.99218 16.929 9.93598 17.1499C9.87979 17.3708 10.0117 17.5958 10.2305 17.6525C10.4494 17.7092 10.6724 17.5762 10.7286 17.3553Z" fill="black"/>
<path d="M10.7656 16.3205C10.8218 16.0996 10.6899 15.8746 10.4711 15.8178C10.2522 15.7611 10.0292 15.8942 9.97301 16.1151C9.91681 16.336 10.0487 16.561 10.2676 16.6177C10.4864 16.6745 10.7094 16.5414 10.7656 16.3205Z" fill="black"/>
<path d="M11.7304 9.86964C11.7866 9.64876 11.6547 9.42372 11.4358 9.367C11.217 9.31029 10.994 9.44337 10.9378 9.66426C10.8816 9.88515 11.0135 10.1102 11.2323 10.1669C11.4512 10.2236 11.6742 10.0905 11.7304 9.86964Z" fill="black"/>
<path d="M10.6658 12.0361C10.722 11.8152 10.5902 11.5901 10.3713 11.5334C10.1524 11.4767 9.92944 11.6098 9.87324 11.8307C9.81704 12.0516 9.94892 12.2766 10.1678 12.3333C10.3867 12.39 10.6096 12.2569 10.6658 12.0361Z" fill="black"/>
<path d="M10.7148 15.5233C10.771 15.3024 10.6391 15.0774 10.4202 15.0207C10.2013 14.964 9.97835 15.0971 9.92215 15.3179C9.86595 15.5388 9.99783 15.7639 10.2167 15.8206C10.4356 15.8773 10.6586 15.7442 10.7148 15.5233Z" fill="black"/>
<path d="M11.0013 18.4297C11.0575 18.2088 10.9256 17.9837 10.7067 17.927C10.4879 17.8703 10.2649 18.0034 10.2087 18.2243C10.1525 18.4452 10.2844 18.6702 10.5032 18.7269C10.7221 18.7836 10.9451 18.6506 11.0013 18.4297Z" fill="black"/>
<path d="M10.8037 11.443C10.8599 11.2222 10.728 10.9971 10.5092 10.9404C10.2903 10.8837 10.0673 11.0168 10.0111 11.2377C9.9549 11.4585 10.0868 11.6836 10.3056 11.7403C10.5245 11.797 10.7475 11.6639 10.8037 11.443Z" fill="black"/>
<path d="M15.1468 6.69965C15.319 6.55201 15.3401 6.29142 15.1938 6.11761C15.0475 5.94379 14.7893 5.92256 14.617 6.0702C14.4448 6.21784 14.4238 6.47843 14.5701 6.65225C14.7164 6.82607 14.9746 6.84729 15.1468 6.69965Z" fill="black"/>
<path d="M13.9028 8.06839C14.075 7.92075 14.0961 7.66016 13.9498 7.48634C13.8035 7.31252 13.5453 7.29129 13.3731 7.43893C13.2008 7.58657 13.1798 7.84717 13.3261 8.02099C13.4724 8.19481 13.7306 8.21603 13.9028 8.06839Z" fill="black"/>
<path d="M12.869 9.71968C13.0412 9.57204 13.0622 9.31144 12.9159 9.13763C12.7696 8.96381 12.5114 8.94259 12.3392 9.09023C12.167 9.23786 12.1459 9.49845 12.2922 9.67227C12.4385 9.84609 12.6967 9.86731 12.869 9.71968Z" fill="black"/>
<path d="M13.2712 8.86002C13.4435 8.71238 13.4645 8.45178 13.3182 8.27796C13.1719 8.10414 12.9137 8.08292 12.7415 8.23056C12.5692 8.3782 12.5482 8.6388 12.6945 8.81262C12.8408 8.98644 13.099 9.00766 13.2712 8.86002Z" fill="black"/>
<path d="M14.1354 7.56387C14.3076 7.41623 14.3287 7.15564 14.1824 6.98182C14.0361 6.808 13.7779 6.78678 13.6056 6.93442C13.4334 7.08206 13.4124 7.34265 13.5587 7.51647C13.705 7.69029 13.9632 7.71151 14.1354 7.56387Z" fill="black"/>
<path d="M12.3258 8.58256C12.4981 8.43492 12.5191 8.17432 12.3728 8.0005C12.2265 7.82668 11.9683 7.80546 11.7961 7.9531C11.6238 8.10074 11.6028 8.36133 11.7491 8.53515C11.8954 8.70897 12.1536 8.7302 12.3258 8.58256Z" fill="black"/>
<path d="M10.7674 14.6564C10.8236 14.4355 10.6917 14.2104 10.4729 14.1537C10.254 14.097 10.031 14.2301 9.9748 14.451C9.9186 14.6719 10.0505 14.8969 10.2694 14.9536C10.4882 15.0103 10.7112 14.8772 10.7674 14.6564Z" fill="black"/>
<path d="M10.8402 13.7735C10.8964 13.5527 10.7646 13.3276 10.5457 13.2709C10.3268 13.2142 10.1038 13.3473 10.0476 13.5682C9.99144 13.789 10.1233 14.0141 10.3422 14.0708C10.5611 14.1275 10.784 13.9944 10.8402 13.7735Z" fill="black"/>
<path d="M10.7555 13.2737C10.9278 13.1261 10.9488 12.8655 10.8025 12.6917C10.6562 12.5178 10.398 12.4966 10.2258 12.6443C10.0535 12.7919 10.0325 13.0525 10.1788 13.2263C10.3251 13.4001 10.5833 13.4214 10.7555 13.2737Z" fill="black"/>
<path d="M12.401 10.3676C12.5732 10.22 12.5942 9.95939 12.4479 9.78558C12.3016 9.61176 12.0434 9.59054 11.8712 9.73817C11.6989 9.88581 11.6779 10.1464 11.8242 10.3202C11.9705 10.494 12.2287 10.5153 12.401 10.3676Z" fill="black"/>
<path d="M12.1041 13.0842C12.33 13.0842 12.5132 12.8993 12.5132 12.6712C12.5132 12.4432 12.33 12.2583 12.1041 12.2583C11.8781 12.2583 11.6949 12.4432 11.6949 12.6712C11.6949 12.8993 11.8781 13.0842 12.1041 13.0842Z" fill="black"/>
<path d="M12.7047 12.0607C12.8769 11.9131 12.8979 11.6525 12.7516 11.4787C12.6053 11.3049 12.3471 11.2836 12.1749 11.4313C12.0027 11.5789 11.9816 11.8395 12.1279 12.0133C12.2742 12.1872 12.5324 12.2084 12.7047 12.0607Z" fill="black"/>
<path d="M13.244 8.05808C13.4162 7.91044 13.4372 7.64985 13.2909 7.47604C13.1446 7.30222 12.8864 7.28099 12.7142 7.42863C12.542 7.57627 12.5209 7.83686 12.6672 8.01068C12.8135 8.1845 13.0717 8.20572 13.244 8.05808Z" fill="black"/>
<path d="M20.2871 8.12914C20.513 8.12914 20.6962 7.94427 20.6962 7.71623C20.6962 7.48818 20.513 7.30331 20.2871 7.30331C20.0611 7.30331 19.8779 7.48818 19.8779 7.71623C19.8779 7.94427 20.0611 8.12914 20.2871 8.12914Z" fill="black"/>
<path d="M23.5604 4.82582C23.7863 4.82582 23.9695 4.64096 23.9695 4.41291C23.9695 4.18486 23.7863 4 23.5604 4C23.3344 4 23.1512 4.18486 23.1512 4.41291C23.1512 4.64096 23.3344 4.82582 23.5604 4.82582Z" fill="black"/>
<path d="M22.7421 5.65172C22.968 5.65172 23.1512 5.46686 23.1512 5.23881C23.1512 5.01076 22.968 4.8259 22.7421 4.8259C22.5161 4.8259 22.3329 5.01076 22.3329 5.23881C22.3329 5.46686 22.5161 5.65172 22.7421 5.65172Z" fill="black"/>
<path d="M22.7421 7.30326C22.968 7.30326 23.1512 7.11838 23.1512 6.89033C23.1512 6.66228 22.968 6.47742 22.7421 6.47742C22.5161 6.47742 22.3329 6.66228 22.3329 6.89033C22.3329 7.11838 22.5161 7.30326 22.7421 7.30326Z" fill="black"/>
<path d="M23.9697 5.65172C24.1957 5.65172 24.3788 5.46686 24.3788 5.23881C24.3788 5.01076 24.1957 4.8259 23.9697 4.8259C23.7437 4.8259 23.5605 5.01076 23.5605 5.23881C23.5605 5.46686 23.7437 5.65172 23.9697 5.65172Z" fill="black"/>
<path d="M22.333 4.82582C22.5589 4.82582 22.7421 4.64096 22.7421 4.41291C22.7421 4.18486 22.5589 4 22.333 4C22.107 4 21.9238 4.18486 21.9238 4.41291C21.9238 4.64096 22.107 4.82582 22.333 4.82582Z" fill="black"/>
<path d="M21.5147 4.82582C21.7407 4.82582 21.9239 4.64096 21.9239 4.41291C21.9239 4.18486 21.7407 4 21.5147 4C21.2887 4 21.1055 4.18486 21.1055 4.41291C21.1055 4.64096 21.2887 4.82582 21.5147 4.82582Z" fill="black"/>
<path d="M27.652 5.23865C27.878 5.23865 28.0611 5.05377 28.0611 4.82572C28.0611 4.59767 27.878 4.41281 27.652 4.41281C27.426 4.41281 27.2428 4.59767 27.2428 4.82572C27.2428 5.05377 27.426 5.23865 27.652 5.23865Z" fill="black"/>
<path d="M28.8794 7.30326C29.1053 7.30326 29.2885 7.11838 29.2885 6.89033C29.2885 6.66228 29.1053 6.47742 28.8794 6.47742C28.6534 6.47742 28.4702 6.66228 28.4702 6.89033C28.4702 7.11838 28.6534 7.30326 28.8794 7.30326Z" fill="black"/>
<path d="M28.061 6.0645C28.287 6.0645 28.4702 5.87964 28.4702 5.65159C28.4702 5.42354 28.287 5.23868 28.061 5.23868C27.835 5.23868 27.6519 5.42354 27.6519 5.65159C27.6519 5.87964 27.835 6.0645 28.061 6.0645Z" fill="black"/>
<path d="M26.0154 6.0645C26.2413 6.0645 26.4245 5.87964 26.4245 5.65159C26.4245 5.42354 26.2413 5.23868 26.0154 5.23868C25.7894 5.23868 25.6062 5.42354 25.6062 5.65159C25.6062 5.87964 25.7894 6.0645 26.0154 6.0645Z" fill="black"/>
<path d="M29.6977 5.65172C29.9237 5.65172 30.1069 5.46686 30.1069 5.23881C30.1069 5.01076 29.9237 4.8259 29.6977 4.8259C29.4718 4.8259 29.2886 5.01076 29.2886 5.23881C29.2886 5.46686 29.4718 5.65172 29.6977 5.65172Z" fill="black"/>
<path d="M28.8794 5.65172C29.1053 5.65172 29.2885 5.46686 29.2885 5.23881C29.2885 5.01076 29.1053 4.8259 28.8794 4.8259C28.6534 4.8259 28.4702 5.01076 28.4702 5.23881C28.4702 5.46686 28.6534 5.65172 28.8794 5.65172Z" fill="black"/>
<path d="M30.516 6.0645C30.742 6.0645 30.9252 5.87964 30.9252 5.65159C30.9252 5.42354 30.742 5.23868 30.516 5.23868C30.29 5.23868 30.1068 5.42354 30.1068 5.65159C30.1068 5.87964 30.29 6.0645 30.516 6.0645Z" fill="black"/>
<path d="M27.2427 6.0645C27.4687 6.0645 27.6519 5.87964 27.6519 5.65159C27.6519 5.42354 27.4687 5.23868 27.2427 5.23868C27.0168 5.23868 26.8336 5.42354 26.8336 5.65159C26.8336 5.87964 27.0168 6.0645 27.2427 6.0645Z" fill="black"/>
<path d="M26.4244 6.8904C26.6503 6.8904 26.8335 6.70553 26.8335 6.47749C26.8335 6.24944 26.6503 6.06458 26.4244 6.06458C26.1984 6.06458 26.0152 6.24944 26.0152 6.47749C26.0152 6.70553 26.1984 6.8904 26.4244 6.8904Z" fill="black"/>
<path d="M25.197 6.8904C25.423 6.8904 25.6061 6.70553 25.6061 6.47749C25.6061 6.24944 25.423 6.06458 25.197 6.06458C24.971 6.06458 24.7878 6.24944 24.7878 6.47749C24.7878 6.70553 24.971 6.8904 25.197 6.8904Z" fill="black"/>
<path d="M26.0154 7.71629C26.2413 7.71629 26.4245 7.53143 26.4245 7.30338C26.4245 7.07534 26.2413 6.89047 26.0154 6.89047C25.7894 6.89047 25.6062 7.07534 25.6062 7.30338C25.6062 7.53143 25.7894 7.71629 26.0154 7.71629Z" fill="black"/>
<path d="M32.5617 8.54216C32.7876 8.54216 32.9708 8.3573 32.9708 8.12925C32.9708 7.9012 32.7876 7.71634 32.5617 7.71634C32.3357 7.71634 32.1525 7.9012 32.1525 8.12925C32.1525 8.3573 32.3357 8.54216 32.5617 8.54216Z" fill="black"/>
<path d="M29.2884 6.47759C29.5144 6.47759 29.6975 6.29272 29.6975 6.06468C29.6975 5.83663 29.5144 5.65176 29.2884 5.65176C29.0624 5.65176 28.8792 5.83663 28.8792 6.06468C28.8792 6.29272 29.0624 6.47759 29.2884 6.47759Z" fill="black"/>
<path d="M30.1067 7.30326C30.3327 7.30326 30.5159 7.11838 30.5159 6.89033C30.5159 6.66228 30.3327 6.47742 30.1067 6.47742C29.8808 6.47742 29.6976 6.66228 29.6976 6.89033C29.6976 7.11838 29.8808 7.30326 30.1067 7.30326Z" fill="black"/>
<path d="M32.1526 7.30326C32.3786 7.30326 32.5618 7.11838 32.5618 6.89033C32.5618 6.66228 32.3786 6.47742 32.1526 6.47742C31.9267 6.47742 31.7435 6.66228 31.7435 6.89033C31.7435 7.11838 31.9267 7.30326 32.1526 7.30326Z" fill="black"/>
<path d="M36.244 13.0842C36.47 13.0842 36.6532 12.8993 36.6532 12.6712C36.6532 12.4432 36.47 12.2583 36.244 12.2583C36.0181 12.2583 35.8349 12.4432 35.8349 12.6712C35.8349 12.8993 36.0181 13.0842 36.244 13.0842Z" fill="black"/>
<path d="M33.38 8.955C33.606 8.955 33.7892 8.77014 33.7892 8.54209C33.7892 8.31404 33.606 8.12918 33.38 8.12918C33.154 8.12918 32.9709 8.31404 32.9709 8.54209C32.9709 8.77014 33.154 8.955 33.38 8.955Z" fill="black"/>
<path d="M36.6533 17.2134C36.8793 17.2134 37.0624 17.0285 37.0624 16.8005C37.0624 16.5724 36.8793 16.3875 36.6533 16.3875C36.4273 16.3875 36.2441 16.5724 36.2441 16.8005C36.2441 17.0285 36.4273 17.2134 36.6533 17.2134Z" fill="black"/>
<path d="M31.3344 6.0645C31.5603 6.0645 31.7435 5.87964 31.7435 5.65159C31.7435 5.42354 31.5603 5.23868 31.3344 5.23868C31.1084 5.23868 30.9252 5.42354 30.9252 5.65159C30.9252 5.87964 31.1084 6.0645 31.3344 6.0645Z" fill="black"/>
<path d="M30.925 6.8904C31.151 6.8904 31.3342 6.70553 31.3342 6.47749C31.3342 6.24944 31.151 6.06458 30.925 6.06458C30.6991 6.06458 30.5159 6.24944 30.5159 6.47749C30.5159 6.70553 30.6991 6.8904 30.925 6.8904Z" fill="black"/>
<path d="M32.1526 6.47759C32.3786 6.47759 32.5618 6.29272 32.5618 6.06468C32.5618 5.83663 32.3786 5.65176 32.1526 5.65176C31.9267 5.65176 31.7435 5.83663 31.7435 6.06468C31.7435 6.29272 31.9267 6.47759 32.1526 6.47759Z" fill="black"/>
<path d="M36.6533 15.1487C36.8793 15.1487 37.0624 14.9639 37.0624 14.7358C37.0624 14.5078 36.8793 14.3229 36.6533 14.3229C36.4273 14.3229 36.2441 14.5078 36.2441 14.7358C36.2441 14.9639 36.4273 15.1487 36.6533 15.1487Z" fill="black"/>
<path d="M32.971 7.71629C33.197 7.71629 33.3802 7.53143 33.3802 7.30338C33.3802 7.07534 33.197 6.89047 32.971 6.89047C32.745 6.89047 32.5619 7.07534 32.5619 7.30338C32.5619 7.53143 32.745 7.71629 32.971 7.71629Z" fill="black"/>
<path d="M36.6533 16.3875C36.8793 16.3875 37.0624 16.2026 37.0624 15.9746C37.0624 15.7465 36.8793 15.5616 36.6533 15.5616C36.4273 15.5616 36.2441 15.7465 36.2441 15.9746C36.2441 16.2026 36.4273 16.3875 36.6533 16.3875Z" fill="black"/>
<path d="M36.244 12.2583C36.47 12.2583 36.6532 12.0734 36.6532 11.8454C36.6532 11.6173 36.47 11.4325 36.244 11.4325C36.0181 11.4325 35.8349 11.6173 35.8349 11.8454C35.8349 12.0734 36.0181 12.2583 36.244 12.2583Z" fill="black"/>
<path d="M36.6533 14.3229C36.8793 14.3229 37.0624 14.138 37.0624 13.91C37.0624 13.6819 36.8793 13.4971 36.6533 13.4971C36.4273 13.4971 36.2441 13.6819 36.2441 13.91C36.2441 14.138 36.4273 14.3229 36.6533 14.3229Z" fill="black"/>
<path d="M35.835 11.4324C36.061 11.4324 36.2442 11.2475 36.2442 11.0195C36.2442 10.7914 36.061 10.6066 35.835 10.6066C35.609 10.6066 35.4259 10.7914 35.4259 11.0195C35.4259 11.2475 35.609 11.4324 35.835 11.4324Z" fill="black"/>
<path d="M27.652 6.8904C27.878 6.8904 28.0611 6.70553 28.0611 6.47749C28.0611 6.24944 27.878 6.06458 27.652 6.06458C27.426 6.06458 27.2428 6.24944 27.2428 6.47749C27.2428 6.70553 27.426 6.8904 27.652 6.8904Z" fill="black"/>
<path d="M23.9697 7.71629C24.1957 7.71629 24.3788 7.53143 24.3788 7.30338C24.3788 7.07534 24.1957 6.89047 23.9697 6.89047C23.7437 6.89047 23.5605 7.07534 23.5605 7.30338C23.5605 7.53143 23.7437 7.71629 23.9697 7.71629Z" fill="black"/>
<path d="M31.3344 7.71629C31.5603 7.71629 31.7435 7.53143 31.7435 7.30338C31.7435 7.07534 31.5603 6.89047 31.3344 6.89047C31.1084 6.89047 30.9252 7.07534 30.9252 7.30338C30.9252 7.53143 31.1084 7.71629 31.3344 7.71629Z" fill="black"/>
<path d="M31.7434 8.955C31.9693 8.955 32.1525 8.77014 32.1525 8.54209C32.1525 8.31404 31.9693 8.12918 31.7434 8.12918C31.5174 8.12918 31.3342 8.31404 31.3342 8.54209C31.3342 8.77014 31.5174 8.955 31.7434 8.955Z" fill="black"/>
<path d="M26.8337 5.23865C27.0597 5.23865 27.2429 5.05377 27.2429 4.82572C27.2429 4.59767 27.0597 4.41281 26.8337 4.41281C26.6077 4.41281 26.4246 4.59767 26.4246 4.82572C26.4246 5.05377 26.6077 5.23865 26.8337 5.23865Z" fill="black"/>
<path d="M33.7893 9.36783C34.0152 9.36783 34.1984 9.18295 34.1984 8.9549C34.1984 8.72686 34.0152 8.54199 33.7893 8.54199C33.5633 8.54199 33.3801 8.72686 33.3801 8.9549C33.3801 9.18295 33.5633 9.36783 33.7893 9.36783Z" fill="black"/>
<path d="M29.2884 8.12914C29.5144 8.12914 29.6975 7.94427 29.6975 7.71623C29.6975 7.48818 29.5144 7.30331 29.2884 7.30331C29.0624 7.30331 28.8792 7.48818 28.8792 7.71623C28.8792 7.94427 29.0624 8.12914 29.2884 8.12914Z" fill="black"/>
<path d="M32.5617 9.36783C32.7876 9.36783 32.9708 9.18295 32.9708 8.9549C32.9708 8.72686 32.7876 8.54199 32.5617 8.54199C32.3357 8.54199 32.1525 8.72686 32.1525 8.9549C32.1525 9.18295 32.3357 9.36783 32.5617 9.36783Z" fill="black"/>
<path d="M30.516 8.12914C30.742 8.12914 30.9252 7.94427 30.9252 7.71623C30.9252 7.48818 30.742 7.30331 30.516 7.30331C30.29 7.30331 30.1068 7.48818 30.1068 7.71623C30.1068 7.94427 30.29 8.12914 30.516 8.12914Z" fill="black"/>
<path d="M33.7893 10.1937C34.0152 10.1937 34.1984 10.0088 34.1984 9.7808C34.1984 9.55275 34.0152 9.36789 33.7893 9.36789C33.5633 9.36789 33.3801 9.55275 33.3801 9.7808C33.3801 10.0088 33.5633 10.1937 33.7893 10.1937Z" fill="black"/>
<path d="M28.061 7.71629C28.287 7.71629 28.4702 7.53143 28.4702 7.30338C28.4702 7.07534 28.287 6.89047 28.061 6.89047C27.835 6.89047 27.6519 7.07534 27.6519 7.30338C27.6519 7.53143 27.835 7.71629 28.061 7.71629Z" fill="black"/>
<path d="M35.0167 11.8455C35.2426 11.8455 35.4258 11.6606 35.4258 11.4326C35.4258 11.2045 35.2426 11.0197 35.0167 11.0197C34.7907 11.0197 34.6075 11.2045 34.6075 11.4326C34.6075 11.6606 34.7907 11.8455 35.0167 11.8455Z" fill="black"/>
<path d="M35.0167 10.6068C35.2426 10.6068 35.4258 10.4219 35.4258 10.1939C35.4258 9.96584 35.2426 9.78098 35.0167 9.78098C34.7907 9.78098 34.6075 9.96584 34.6075 10.1939C34.6075 10.4219 34.7907 10.6068 35.0167 10.6068Z" fill="black"/>
<path d="M35.835 14.3229C36.061 14.3229 36.2442 14.138 36.2442 13.91C36.2442 13.6819 36.061 13.4971 35.835 13.4971C35.609 13.4971 35.4259 13.6819 35.4259 13.91C35.4259 14.138 35.609 14.3229 35.835 14.3229Z" fill="black"/>
<path d="M35.9301 9.37808C36.149 9.32137 36.2809 9.09633 36.2247 8.87544C36.1685 8.65456 35.9455 8.52147 35.7266 8.57819C35.5078 8.6349 35.3759 8.85994 35.4321 9.08083C35.4883 9.30171 35.7113 9.4348 35.9301 9.37808Z" fill="black"/>
<path d="M36.7669 11.0112C36.9858 10.9545 37.1176 10.7294 37.0614 10.5085C37.0052 10.2876 36.7823 10.1546 36.5634 10.2113C36.3445 10.268 36.2126 10.493 36.2688 10.7139C36.325 10.9348 36.548 11.0679 36.7669 11.0112Z" fill="black"/>
<path d="M37.1396 17.6548C37.3585 17.5981 37.4904 17.3731 37.4342 17.1522C37.378 16.9313 37.155 16.7982 36.9361 16.8549C36.7172 16.9116 36.5854 17.1367 36.6416 17.3576C36.6977 17.5784 36.9207 17.7115 37.1396 17.6548Z" fill="black"/>
<path d="M37.5708 16.7516C37.7897 16.6948 37.9216 16.4698 37.8654 16.2489C37.8092 16.028 37.5862 15.8949 37.3673 15.9517C37.1485 16.0084 37.0166 16.2334 37.0728 16.4543C37.129 16.6752 37.352 16.8083 37.5708 16.7516Z" fill="black"/>
<path d="M36.3553 10.2032C36.5742 10.1465 36.7061 9.92143 36.6499 9.70055C36.5937 9.47966 36.3707 9.34657 36.1518 9.40329C35.933 9.46 35.8011 9.68504 35.8573 9.90593C35.9135 10.1268 36.1365 10.2599 36.3553 10.2032Z" fill="black"/>
<path d="M37.3057 13.0647C37.5246 13.008 37.6565 12.7829 37.6003 12.562C37.5441 12.3411 37.3211 12.2081 37.1022 12.2648C36.8833 12.3215 36.7515 12.5465 36.8077 12.7674C36.8638 12.9883 37.0868 13.1214 37.3057 13.0647Z" fill="black"/>
<path d="M37.5594 15.9289C37.7783 15.8722 37.9102 15.6472 37.854 15.4263C37.7978 15.2054 37.5748 15.0723 37.3559 15.129C37.1371 15.1857 37.0052 15.4108 37.0614 15.6317C37.1176 15.8526 37.3406 15.9856 37.5594 15.9289Z" fill="black"/>
<path d="M37.2024 18.8779C37.4212 18.8212 37.5531 18.5961 37.4969 18.3752C37.4407 18.1543 37.2177 18.0213 36.9988 18.078C36.78 18.1347 36.6481 18.3597 36.7043 18.5806C36.7605 18.8015 36.9835 18.9346 37.2024 18.8779Z" fill="black"/>
<path d="M37.2115 11.8096C37.4303 11.7529 37.5622 11.5278 37.506 11.307C37.4498 11.0861 37.2268 10.953 37.008 11.0097C36.7891 11.0664 36.6572 11.2915 36.7134 11.5123C36.7696 11.7332 36.9926 11.8663 37.2115 11.8096Z" fill="black"/>
<path d="M33.1628 6.68371C33.3091 6.50989 33.2881 6.24929 33.1159 6.10165C32.9436 5.95401 32.6854 5.97523 32.5391 6.14905C32.3928 6.32287 32.4139 6.58347 32.5861 6.73111C32.7583 6.87875 33.0165 6.85753 33.1628 6.68371Z" fill="black"/>
<path d="M33.9998 8.13969C34.1461 7.96587 34.1251 7.70528 33.9529 7.55764C33.7806 7.41 33.5224 7.43123 33.3761 7.60504C33.2298 7.77886 33.2509 8.03945 33.4231 8.18709C33.5953 8.33473 33.8536 8.3135 33.9998 8.13969Z" fill="black"/>
<path d="M35.3945 9.62357C35.5408 9.44976 35.5198 9.18917 35.3476 9.04153C35.1753 8.89389 34.9171 8.91511 34.7708 9.08893C34.6245 9.26275 34.6456 9.52334 34.8178 9.67098C34.99 9.81862 35.2482 9.79739 35.3945 9.62357Z" fill="black"/>
<path d="M35.0085 8.833C35.1548 8.65918 35.1337 8.39859 34.9615 8.25095C34.7893 8.10331 34.531 8.12453 34.3848 8.29835C34.2385 8.47217 34.2595 8.73276 34.4317 8.8804C34.604 9.02804 34.8622 9.00682 35.0085 8.833Z" fill="black"/>
<path d="M34.2786 7.60387C34.4249 7.43005 34.4038 7.16946 34.2316 7.02182C34.0594 6.87418 33.8011 6.8954 33.6549 7.06922C33.5086 7.24304 33.5296 7.50364 33.7018 7.65128C33.8741 7.79892 34.1323 7.77769 34.2786 7.60387Z" fill="black"/>
<path d="M35.602 8.41413C35.7483 8.24031 35.7272 7.97973 35.555 7.83209C35.3828 7.68445 35.1246 7.70567 34.9783 7.87949C34.832 8.05331 34.853 8.3139 35.0252 8.46154C35.1975 8.60918 35.4557 8.58795 35.602 8.41413Z" fill="black"/>
<path d="M37.5729 15.1013C37.7917 15.0446 37.9236 14.8195 37.8674 14.5986C37.8112 14.3778 37.5882 14.2447 37.3694 14.3014C37.1505 14.3581 37.0186 14.5831 37.0748 14.804C37.131 15.0249 37.354 15.158 37.5729 15.1013Z" fill="black"/>
<path d="M37.5915 14.2729C37.8104 14.2162 37.9423 13.9911 37.8861 13.7702C37.8299 13.5494 37.6069 13.4163 37.388 13.473C37.1691 13.5297 37.0373 13.7547 37.0935 13.9756C37.1497 14.1965 37.3726 14.3296 37.5915 14.2729Z" fill="black"/>
<path d="M36.17 10.3388C36.3163 10.165 36.2953 9.9044 36.123 9.75676C35.9508 9.60913 35.6926 9.63035 35.5463 9.80417C35.4 9.97799 35.421 10.2386 35.5933 10.3862C35.7655 10.5339 36.0237 10.5126 36.17 10.3388Z" fill="black"/>
<path d="M35.4257 13.0842C35.6516 13.0842 35.8348 12.8993 35.8348 12.6712C35.8348 12.4432 35.6516 12.2583 35.4257 12.2583C35.1997 12.2583 35.0165 12.4432 35.0165 12.6712C35.0165 12.8993 35.1997 13.0842 35.4257 13.0842Z" fill="black"/>
<path d="M35.6344 12.0471C35.7807 11.8732 35.7597 11.6127 35.5875 11.465C35.4152 11.3174 35.157 11.3386 35.0107 11.5124C34.8644 11.6862 34.8855 11.9468 35.0577 12.0945C35.2299 12.2421 35.4882 12.2209 35.6344 12.0471Z" fill="black"/>
<path d="M34.9648 8.01012C35.1111 7.8363 35.0901 7.5757 34.9179 7.42806C34.7456 7.28042 34.4874 7.30165 34.3411 7.47547C34.1948 7.64929 34.2159 7.90988 34.3881 8.05752C34.5603 8.20516 34.8186 8.18394 34.9648 8.01012Z" fill="black"/>
<path d="M27.2427 8.12914C27.4687 8.12914 27.6519 7.94427 27.6519 7.71623C27.6519 7.48818 27.4687 7.30331 27.2427 7.30331C27.0168 7.30331 26.8336 7.48818 26.8336 7.71623C26.8336 7.94427 27.0168 8.12914 27.2427 8.12914Z" fill="black"/>
<path d="M24.3787 6.8904C24.6047 6.8904 24.7879 6.70553 24.7879 6.47749C24.7879 6.24944 24.6047 6.06458 24.3787 6.06458C24.1527 6.06458 23.9696 6.24944 23.9696 6.47749C23.9696 6.70553 24.1527 6.8904 24.3787 6.8904Z" fill="black"/>
<path d="M24.7877 6.0645C25.0137 6.0645 25.1969 5.87964 25.1969 5.65159C25.1969 5.42354 25.0137 5.23868 24.7877 5.23868C24.5618 5.23868 24.3786 5.42354 24.3786 5.65159C24.3786 5.87964 24.5618 6.0645 24.7877 6.0645Z" fill="black"/>
<path d="M24.7877 7.30326C25.0137 7.30326 25.1969 7.11838 25.1969 6.89033C25.1969 6.66228 25.0137 6.47742 24.7877 6.47742C24.5618 6.47742 24.3786 6.66228 24.3786 6.89033C24.3786 7.11838 24.5618 7.30326 24.7877 7.30326Z" fill="black"/>
<path d="M23.1513 6.47759C23.3773 6.47759 23.5605 6.29272 23.5605 6.06468C23.5605 5.83663 23.3773 5.65176 23.1513 5.65176C22.9254 5.65176 22.7422 5.83663 22.7422 6.06468C22.7422 6.29272 22.9254 6.47759 23.1513 6.47759Z" fill="black"/>
<path d="M24.7877 4.82582C25.0137 4.82582 25.1969 4.64096 25.1969 4.41291C25.1969 4.18486 25.0137 4 24.7877 4C24.5618 4 24.3786 4.18486 24.3786 4.41291C24.3786 4.64096 24.5618 4.82582 24.7877 4.82582Z" fill="black"/>
<path d="M26.0154 4.82582C26.2413 4.82582 26.4245 4.64096 26.4245 4.41291C26.4245 4.18486 26.2413 4 26.0154 4C25.7894 4 25.6062 4.18486 25.6062 4.41291C25.6062 4.64096 25.7894 4.82582 26.0154 4.82582Z" fill="black"/>
<path d="M10.2224 18.9426C10.2243 18.9607 10.2372 19.0654 10.2385 19.0797C10.4386 21.3973 10.1056 22.0131 10.1417 23.5879C10.2026 26.2292 10.8925 28.2738 12.0611 30.6768C13.2297 33.0798 14.8771 35.8592 16.9322 40.0884C18.222 42.7427 21.2118 44.0197 24.1502 43.9999C27.0886 43.98 30.0667 42.6676 31.3198 40.0078C33.3035 35.7973 34.849 33.1554 35.9329 30.822C37.0168 28.4885 37.6298 26.4495 37.6749 23.5556C37.7005 21.9167 37.4123 21.5716 37.4894 18.9909C37.4896 18.9847 37.4891 18.9493 37.4894 18.9425H36.6587C36.6586 18.9471 36.6589 18.9624 36.6587 18.9669C36.5797 21.6105 36.8682 22.0026 36.8442 23.5396C36.8008 26.3263 36.2479 28.2 35.1909 30.4754C34.134 32.7508 32.5675 35.4129 30.5698 39.6531C29.4885 41.9482 26.8468 43.1512 24.1502 43.1693C21.4537 43.1875 18.7882 42.0261 17.6742 39.7337C15.6053 35.4763 13.9473 32.6669 12.8031 30.3141C11.6588 27.9613 11.0303 26.0829 10.9724 23.5719C10.9393 22.1242 11.269 21.415 11.0611 19.0072C11.0602 18.9969 11.054 18.9536 11.0528 18.9427L10.2224 18.9426Z" fill="black"/>
<path d="M19.0102 28.4862C19.0304 29.0245 19.4078 29.3232 19.8487 29.4217C20.2897 29.5203 20.7977 29.2873 21.1794 29.5992C21.5611 29.911 21.8699 30.877 23.8571 30.8976C25.8443 30.9182 25.6786 30.049 26.575 29.6314C26.5788 29.6293 26.5811 29.6244 26.5832 29.6231C26.5853 29.6219 27.5903 29.5259 27.9542 29.4618C28.3182 29.3977 28.6475 29.0387 28.6557 28.4698C28.4674 28.9425 28.2735 29.1612 27.9055 29.2199C27.5374 29.2786 26.9777 29.0762 26.4941 29.236C26.0105 29.3958 25.5714 29.8249 25.1796 30.0749C24.8389 30.2888 24.5729 30.4311 23.8571 30.4378C23.254 30.4351 22.7492 30.272 22.373 30.0346C21.9969 29.7972 21.6671 29.3788 21.244 29.2281C20.8208 29.0774 20.2266 29.271 19.8568 29.1877C19.4871 29.1043 19.2778 28.9826 19.0102 28.4862V28.4862Z" fill="black"/>
<path d="M30.0146 35.1945C30.0146 35.6074 26.258 33.2589 25.4322 33.2589C25.0193 33.2589 24.0483 34.1493 23.7967 34.1493C23.545 34.1493 22.987 33.275 22.1611 33.275C20.9224 33.275 18.3013 35.188 17.6513 35.1783C19.7917 33.8622 21.0579 32.7912 22.1127 32.6525C22.7353 32.6525 23.3837 33.0492 23.7967 33.4622C24.2354 33.0654 24.9064 32.6428 25.4483 32.6363C26.3742 32.7105 28.3629 34.3686 30.0146 35.1945Z" fill="black"/>
<path d="M30.0267 35.1943C30.0267 35.4008 27.1363 38.4976 23.8329 38.4976C20.5296 38.4976 17.6392 35.4137 17.6392 35.1943C17.6392 34.975 20.5296 37.9557 23.8329 37.9557C27.1363 37.9557 30.0267 34.9878 30.0267 35.1943Z" fill="black"/>
<path d="M29.6307 35.1943C29.6307 35.476 27.3433 35.1828 25.6409 35.2088C24.7687 35.222 24.404 35.557 23.8741 35.5458C23.3441 35.5347 22.9774 35.2878 22.0589 35.2577C20.3392 35.2012 18.0352 35.434 18.0352 35.1942C20.9546 35.0167 18.5525 35.1826 22.0432 35.0046C22.758 35.0054 23.6599 35.2458 23.8741 35.2458C24.0834 35.2458 24.7821 35.0021 25.6243 35.0072C29.1713 35.1828 26.8403 35.0075 29.6307 35.1942V35.1943Z" fill="black"/>
<path d="M15.7729 21.1361C15.7729 21.1361 17.4571 20.3071 18.4627 20.4745C20.8326 21.0208 20.5964 22.2272 20.5964 22.2272C20.6809 21.9867 20.3208 23.4679 17.9423 22.8978C16.7257 22.567 15.7729 21.1361 15.7729 21.1361Z" fill="black"/>
<path d="M37.3084 19.835C37.3084 19.835 39.2555 18.6488 39.8339 19.6539C40.4123 20.6591 39.4979 22.5832 39.1901 23.9448C38.7396 25.9374 38.4096 28.0184 37.0928 27.4301" stroke="black" stroke-width="0.2"/>
<path d="M10.7132 19.9403C10.7132 19.9403 8.76613 18.7542 8.18774 19.7593C7.60934 20.7644 8.52373 22.6886 8.83152 24.0501C9.28201 26.0428 9.61195 28.1237 10.9288 27.5355" stroke="black" stroke-width="0.2"/>
<path d="M32.4787 21.1361C32.4787 21.1361 30.7945 20.3071 29.7889 20.4745C27.419 21.0208 27.6552 22.2272 27.6552 22.2272C27.5708 21.9867 27.9308 23.4679 30.3093 22.8978C31.5259 22.567 32.4787 21.1361 32.4787 21.1361Z" fill="black"/>
</svg>
