<svg width="48" height="48" viewBox="0 0 48 48" fill="none" xmlns="http://www.w3.org/2000/svg">
<path d="M12.4053 22.6698C12.4053 10.2233 35.4679 10.2233 35.4679 22.6698C35.4679 22.6698 41.6912 4 24.8518 4C8.01242 4 12.4053 22.6698 12.4053 22.6698Z" stroke="black" stroke-width="0.25" stroke-miterlimit="10"/>
<path d="M12.0169 16.1242C12.0169 3.67768 36.5438 3.67768 36.5438 16.1242" stroke="black" stroke-width="0.25" stroke-miterlimit="10"/>
<path d="M11.9703 21.7851C11.972 21.8012 11.9834 21.8941 11.9845 21.9067C12.1619 23.9614 11.8667 24.5073 11.8987 25.9034C11.9528 28.2451 12.5643 30.0578 13.6004 32.1882C14.6365 34.3185 16.0969 36.7826 17.9189 40.5321C19.0624 42.8852 21.713 44.0173 24.3181 43.9998C26.9231 43.9822 29.5633 42.8186 30.6743 40.4606C32.4329 36.7278 33.8031 34.3856 34.764 32.3169C35.725 30.2481 36.2684 28.4404 36.3084 25.8748C36.3311 24.4219 36.0756 24.1159 36.144 21.828C36.1441 21.8225 36.1437 21.7911 36.144 21.7851H35.4075C35.4074 21.7891 35.4076 21.8027 35.4075 21.8067C35.3375 24.1504 35.5932 24.498 35.572 25.8607C35.5334 28.3312 35.0433 29.9923 34.1062 32.0096C33.1692 34.0268 31.7804 36.387 30.0094 40.1461C29.0507 42.1809 26.7087 43.2473 24.3181 43.2635C21.9274 43.2796 19.5643 42.2499 18.5767 40.2176C16.7426 36.4432 15.2726 33.9525 14.2582 31.8666C13.2438 29.7807 12.6865 28.1154 12.6352 25.8893C12.6059 24.6059 12.8981 23.9771 12.7138 21.8424C12.713 21.8333 12.7076 21.7949 12.7065 21.7853L11.9703 21.7851Z" fill="black"/>
<path d="M19.7611 30.246C19.7791 30.7233 20.1136 30.988 20.5046 31.0754C20.8955 31.1628 21.3459 30.9562 21.6843 31.2327C22.0227 31.5092 22.2965 32.3656 24.0582 32.3838C25.82 32.4021 25.6731 31.6315 26.4677 31.2613C26.4712 31.2594 26.4732 31.2551 26.475 31.254C26.4769 31.2529 27.3678 31.1678 27.6905 31.1109C28.0132 31.0541 28.3052 30.7358 28.3124 30.2315C28.1454 30.6505 27.9736 30.8445 27.6473 30.8965C27.321 30.9485 26.8248 30.7691 26.3961 30.9107C25.9673 31.0524 25.578 31.4328 25.2307 31.6545C24.9286 31.8441 24.6928 31.9703 24.0582 31.9762C23.5236 31.9738 23.076 31.8292 22.7425 31.6187C22.409 31.4083 22.1167 31.0374 21.7415 30.9037C21.3664 30.7701 20.8396 30.9418 20.5118 30.8679C20.1839 30.7939 19.9984 30.6861 19.7611 30.246V30.246Z" fill="black"/>
<path d="M29.5171 36.1933C29.5171 36.5594 26.1867 34.4773 25.4546 34.4773C25.0885 34.4773 24.2277 35.2667 24.0046 35.2667C23.7815 35.2667 23.2867 34.4916 22.5546 34.4916C21.4564 34.4916 19.1327 36.1876 18.5564 36.179C20.454 35.0121 21.5765 34.0626 22.5117 33.9397C23.0637 33.9397 23.6385 34.2914 24.0046 34.6575C24.3936 34.3057 24.9884 33.9311 25.4689 33.9254C26.2897 33.9911 28.0529 35.4611 29.5171 36.1933Z" fill="black"/>
<path d="M29.5279 36.1933C29.5279 36.3764 26.9653 39.1219 24.0368 39.1219C21.1082 39.1219 18.5457 36.3878 18.5457 36.1933C18.5457 35.9989 21.1082 38.6415 24.0368 38.6415C26.9653 38.6415 29.5279 36.0103 29.5279 36.1933Z" fill="black"/>
<path d="M29.1768 36.1934C29.1768 36.4431 27.1489 36.1831 25.6396 36.2062C24.8663 36.2179 24.543 36.5149 24.0732 36.505C23.6034 36.4951 23.2783 36.2762 22.4639 36.2495C20.9394 36.1995 18.8967 36.4058 18.8967 36.1932C21.4849 36.0359 19.3553 36.183 22.4501 36.0251C23.0838 36.0258 23.8833 36.239 24.0732 36.239C24.2588 36.239 24.8782 36.0229 25.6248 36.0274C28.7695 36.1832 26.7029 36.0277 29.1768 36.1932V36.1934Z" fill="black"/>
<path d="M16.8912 23.73C16.8912 23.73 18.3843 22.9951 19.2758 23.1435C21.3768 23.6278 21.1674 24.6974 21.1674 24.6974C21.2423 24.4841 20.9231 25.7973 18.8144 25.2919C17.7358 24.9986 16.8912 23.73 16.8912 23.73Z" fill="black"/>
<path d="M35.9834 22.5762C35.9834 22.5762 37.7096 21.5247 38.2224 22.4158C38.7352 23.3069 37.9245 25.0127 37.6516 26.2198C37.2523 27.9864 36.9597 29.8313 35.7923 29.3098" stroke="black" stroke-width="0.2"/>
<path d="M12.4054 22.6697C12.4054 22.6697 10.6792 21.6181 10.1664 22.5092C9.65366 23.4003 10.4643 25.1062 10.7372 26.3133C11.1366 28.0799 11.4291 29.9247 12.5966 29.4032" stroke="black" stroke-width="0.2"/>
<path d="M31.7017 23.73C31.7017 23.73 30.2086 22.9951 29.3171 23.1435C27.216 23.6278 27.4254 24.6974 27.4254 24.6974C27.3505 24.4841 27.6698 25.7973 29.7784 25.2919C30.857 24.9986 31.7017 23.73 31.7017 23.73Z" fill="black"/>
</svg>
