<svg width="48" height="48" viewBox="0 0 48 48" fill="none" xmlns="http://www.w3.org/2000/svg">
<path d="M12.2942 22.2658C12.2942 10.0886 34.8579 10.0886 34.8579 22.2658C34.8579 22.2658 40.9465 4 24.4714 4C7.99641 4 12.2942 22.2658 12.2942 22.2658V22.2658Z" stroke="black" stroke-width="0.25" stroke-miterlimit="10"/>
<path d="M23.0389 4C23.0389 4 20.5319 10.4468 29.1275 14.0283" stroke="black" stroke-width="0.25" stroke-miterlimit="10"/>
<path d="M35.3293 22.2099C35.5192 22.1607 35.6335 21.9655 35.5848 21.7739C35.536 21.5823 35.3426 21.4669 35.1528 21.516C34.9629 21.5652 34.8486 21.7604 34.8973 21.952C34.946 22.1436 35.1395 22.259 35.3293 22.2099Z" fill="black"/>
<path d="M11.9277 22.2657C11.9294 22.2815 11.9405 22.3723 11.9416 22.3846C12.1152 24.3949 11.8263 24.929 11.8577 26.295C11.9105 28.586 12.5089 30.3594 13.5225 32.4437C14.5362 34.528 15.965 36.9388 17.7476 40.6071C18.8663 42.9093 21.4596 44.0169 24.0083 43.9997C26.557 43.9825 29.1401 42.8442 30.227 40.5371C31.9476 36.8851 33.2881 34.5936 34.2282 32.5696C35.1684 30.5457 35.7001 28.777 35.7392 26.267C35.7607 24.8454 35.5114 24.5461 35.5784 22.3077C35.5785 22.3023 35.5781 22.2716 35.5784 22.2657H34.8579C34.8577 22.2697 34.858 22.2829 34.8579 22.2869C34.7895 24.5798 35.0395 24.9199 35.0187 26.2531C34.9811 28.6702 34.5015 30.2954 33.5847 32.269C32.6679 34.2426 31.3092 36.5516 29.5765 40.2295C28.6386 42.2202 26.3472 43.2636 24.0083 43.2794C21.6694 43.2951 19.3574 42.2878 18.3912 40.2994C16.5967 36.6066 15.1586 34.1698 14.1661 32.1291C13.1736 30.0883 12.6284 28.459 12.5782 26.2811C12.5495 25.0254 12.8354 24.4103 12.6551 22.3218C12.6543 22.3129 12.649 22.2753 12.6479 22.2659L11.9277 22.2657Z" fill="black"/>
<path d="M19.5499 30.5436C19.5675 31.0105 19.8948 31.2696 20.2773 31.3551C20.6597 31.4405 21.1004 31.2385 21.4315 31.5089C21.7625 31.7794 22.0304 32.6173 23.754 32.6352C25.4777 32.6531 25.3339 31.8991 26.1114 31.5369C26.1148 31.5351 26.1168 31.5308 26.1186 31.5297C26.1204 31.5287 26.992 31.4454 27.3077 31.3898C27.6235 31.3342 27.9091 31.0228 27.9162 30.5294C27.7528 30.9394 27.5847 31.1291 27.2655 31.18C26.9462 31.2309 26.4608 31.0554 26.0413 31.194C25.6218 31.3325 25.2409 31.7047 24.9011 31.9216C24.6056 32.1071 24.3749 32.2306 23.754 32.2364C23.2309 32.234 22.7931 32.0925 22.4668 31.8866C22.1405 31.6807 21.8545 31.3178 21.4875 31.1871C21.1204 31.0564 20.605 31.2243 20.2843 31.152C19.9636 31.0797 19.782 30.9742 19.5499 30.5436V30.5436Z" fill="black"/>
<path d="M29.0949 36.3624C29.0949 36.7206 25.8365 34.6836 25.1202 34.6836C24.762 34.6836 23.9198 35.4558 23.7016 35.4558C23.4833 35.4558 22.9993 34.6976 22.283 34.6976C21.2085 34.6976 18.9351 36.3568 18.3713 36.3484C20.2278 35.2068 21.326 34.2778 22.241 34.1575C22.781 34.1575 23.3434 34.5017 23.7016 34.8598C24.0821 34.5157 24.6641 34.1491 25.1342 34.1435C25.9372 34.2079 27.6622 35.6461 29.0949 36.3624Z" fill="black"/>
<path d="M29.1053 36.3623C29.1053 36.5413 26.5983 39.2275 23.733 39.2275C20.8678 39.2275 18.3608 36.5525 18.3608 36.3623C18.3608 36.172 20.8678 38.7574 23.733 38.7574C26.5983 38.7574 29.1053 36.1832 29.1053 36.3623Z" fill="black"/>
<path d="M28.7619 36.3623C28.7619 36.6066 26.7778 36.3523 25.3012 36.3748C24.5447 36.3863 24.2284 36.6769 23.7687 36.6672C23.309 36.6575 22.991 36.4433 22.1943 36.4172C20.7027 36.3683 18.7042 36.5701 18.7042 36.3622C21.2364 36.2082 19.1529 36.3521 22.1807 36.1977C22.8007 36.1984 23.5829 36.4069 23.7687 36.4069C23.9502 36.4069 24.5563 36.1955 25.2868 36.2C28.3633 36.3523 26.3415 36.2002 28.7619 36.3622V36.3623Z" fill="black"/>
<path d="M16.742 24.1686C16.742 24.1686 18.2028 23.4495 19.0751 23.5947C21.1306 24.0685 20.9258 25.115 20.9258 25.115C20.999 24.9063 20.6867 26.1911 18.6237 25.6966C17.5684 25.4097 16.742 24.1686 16.742 24.1686Z" fill="black"/>
<path d="M35.4212 23.04C35.4212 23.04 37.1101 22.0111 37.6117 22.883C38.1134 23.7548 37.3202 25.4237 37.0533 26.6047C36.6626 28.3331 36.3764 30.1381 35.2342 29.6278" stroke="black" stroke-width="0.2"/>
<path d="M12.3533 23.1314C12.3533 23.1314 10.6645 22.1025 10.1628 22.9744C9.66115 23.8462 10.4543 25.5151 10.7212 26.6961C11.112 28.4245 11.3982 30.2294 12.5404 29.7192" stroke="black" stroke-width="0.2"/>
<path d="M31.2322 24.1686C31.2322 24.1686 29.7714 23.4495 28.8991 23.5947C26.8436 24.0685 27.0484 25.115 27.0484 25.115C26.9752 24.9063 27.2875 26.1911 29.3505 25.6966C30.4058 25.4097 31.2322 24.1686 31.2322 24.1686Z" fill="black"/>
</svg>
