<svg width="48" height="48" viewBox="0 0 48 48" fill="none" xmlns="http://www.w3.org/2000/svg">
<path d="M22.4521 4C21.7471 4 21.3946 4.39162 20.6896 4.78325C20.3371 4.78325 19.9846 4.39162 19.6321 4.39162C18.9272 4.39162 18.2222 4.78325 17.5172 5.56649H17.1647C16.1072 5.56649 15.4022 5.95812 15.0498 7.13299C13.9923 7.13299 12.9348 7.91625 12.5823 9.09112C11.5249 9.48273 10.8199 10.266 10.8199 11.4409C10.1149 11.8325 9.76241 12.6157 9.76241 13.7906C9.76241 14.1823 9.76241 14.5739 10.1149 14.9655C9.40995 15.3571 8.70498 16.1404 8.70498 17.3152C8.70498 17.7068 8.70498 17.7068 8.70498 18.0985C8.35245 18.4901 8 19.2734 8 19.665C8 20.4482 8.35252 21.2315 9.05747 22.0147C8.70494 22.4063 8.70495 22.798 8.70495 23.1896C8.70495 23.9729 9.05747 24.7561 10.1149 25.1477C9.76238 25.5393 9.76238 25.931 9.76238 26.3226C9.76238 27.1059 10.4674 27.8891 11.1723 27.8891C11.8773 27.8891 12.5823 27.1059 12.5823 26.3226C12.5823 25.5394 12.5823 25.1477 11.8773 24.7561C12.2298 24.3645 12.2298 23.9729 12.2298 23.1896C12.2298 22.4064 12.5824 22.0147 12.2298 21.6231C12.5824 21.2315 12.5824 20.4482 12.5824 19.665C12.5824 19.2734 12.5824 19.2734 12.5824 18.8817C12.9349 18.4901 13.2874 18.0985 13.2874 17.3152C13.6398 17.3152 13.6398 17.3152 13.9923 17.3152C14.3449 17.3152 15.0498 16.9236 15.0498 16.532C15.0498 17.3152 15.7548 17.7069 16.4598 17.7069C17.1647 17.7069 17.5172 17.3153 17.8697 16.532C17.8697 17.3152 18.5747 17.7069 19.2797 17.7069C19.6322 17.7069 20.3371 17.3153 20.3371 16.9236C20.6897 17.3152 21.0421 17.7069 21.7471 17.7069C22.4521 17.7069 22.8046 17.3153 23.1571 16.9236C23.1571 17.7069 23.862 18.0985 24.567 18.0985C25.272 18.0985 25.6245 17.7068 25.977 17.3152C26.3295 17.7068 26.682 18.0985 27.0344 18.0985C27.387 18.0985 28.0919 17.7068 28.0919 17.3152C28.4444 17.7068 28.7969 17.7068 29.1494 17.7068C29.5019 17.7068 29.8544 17.7068 30.2069 17.3152C30.5595 17.7068 30.9118 17.7068 31.2643 17.7068C31.9693 17.7068 32.6743 16.9236 32.6743 16.1403V15.7487C32.6743 16.532 33.3793 17.3152 34.0842 17.3152C34.4369 17.3152 34.4369 17.3152 34.7892 17.3152C34.7892 17.7068 35.1418 18.0985 35.1418 18.4901C35.1418 18.8817 35.1418 18.8817 35.1418 19.2734C35.1418 20.0566 35.4945 20.8399 35.8468 21.2315C35.4942 21.6231 35.1418 22.4064 35.1418 22.798C35.1418 23.1896 35.4945 23.9728 35.8468 24.3645C35.4942 24.7561 35.1418 25.1477 35.1418 25.931C35.1418 26.7142 35.8468 27.4975 36.5518 27.4975C37.2568 27.4975 37.9618 26.7142 37.9618 25.931C37.9618 25.5394 37.9618 25.1477 37.6091 24.7561C38.3141 24.3645 39.0191 23.5812 39.0191 22.798C39.0191 22.4064 39.0191 22.0147 38.6665 21.6231C39.3714 21.2315 39.7239 20.4482 39.7239 19.2734C39.7239 18.4901 39.3713 18.0985 39.0189 17.7069C39.0189 17.3153 39.0189 17.3153 39.0189 16.9236C39.0189 16.1404 38.6663 15.3571 38.314 14.9655V14.5739C38.314 13.399 37.609 12.6158 36.904 12.2241C36.904 12.2241 36.904 12.2241 36.904 11.8325C36.904 10.6576 36.199 9.87439 35.494 9.48277C35.494 8.30789 34.4366 7.13303 33.0266 7.13303C32.674 5.95816 31.9691 5.1749 30.5592 5.1749C30.2066 5.1749 30.2066 5.1749 29.8542 5.1749C29.5017 4.39165 28.7967 4.39165 28.0918 4.39165C27.7392 4.39165 27.3868 4.39166 27.0343 4.78329C26.6818 4.39166 25.9768 4.00003 25.2719 4.00003C24.9193 4.00003 24.2144 4.00003 23.8619 4.39165C23.5094 4.39165 22.8044 4.00003 22.4519 4.00003L22.4521 4ZM15.4023 16.1404C15.7548 16.1404 15.7548 16.1404 15.4023 16.1404C15.7548 16.1404 15.7548 16.1404 15.4023 16.1404C15.7548 16.1404 15.7548 16.1404 15.4023 16.1404Z" fill="black"/>
<path d="M11.9919 22.2072C11.8761 20.8661 9.37351 9.45596 23.6769 9.45596C37.9803 9.45596 35.5733 20.4112 35.5214 22.1487C35.4519 24.4748 35.7086 24.8018 35.6865 26.216C35.6075 31.2745 33.6068 33.191 30.0613 40.7166C27.9825 45.1291 18.9052 45.0362 17.1309 40.788C13.7785 32.7615 12.0128 30.833 11.907 26.2448C11.8761 24.899 12.1737 24.3113 11.992 22.2072H11.9919Z" stroke="black" stroke-width="0.2"/>
<path d="M19.4342 30.6136C19.4523 31.093 19.7883 31.3589 20.181 31.4467C20.5737 31.5345 21.0261 31.327 21.366 31.6047C21.7059 31.8824 21.9809 32.7427 23.7506 32.761C25.5202 32.7794 25.3726 32.0053 26.1709 31.6334C26.1743 31.6316 26.1764 31.6272 26.1782 31.6261C26.1801 31.625 27.075 31.5395 27.3991 31.4824C27.7233 31.4253 28.0166 31.1056 28.0238 30.599C27.8561 31.0199 27.6835 31.2147 27.3557 31.267C27.0279 31.3192 26.5296 31.1391 26.0989 31.2813C25.6682 31.4236 25.2772 31.8057 24.9283 32.0284C24.6249 32.2189 24.388 32.3456 23.7506 32.3516C23.2135 32.3491 22.764 32.2039 22.429 31.9925C22.094 31.7811 21.8003 31.4085 21.4235 31.2743C21.0466 31.1401 20.5175 31.3125 20.1882 31.2383C19.8589 31.164 19.6726 31.0557 19.4342 30.6136V30.6136Z" fill="black"/>
<path d="M29.234 36.5877C29.234 36.9554 25.8886 34.864 25.1532 34.864C24.7855 34.864 23.9208 35.6569 23.6967 35.6569C23.4726 35.6569 22.9757 34.8784 22.2402 34.8784C21.1371 34.8784 18.803 36.5819 18.2241 36.5733C20.1302 35.4012 21.2578 34.4475 22.1971 34.324C22.7516 34.324 23.329 34.6773 23.6967 35.045C24.0874 34.6917 24.6849 34.3153 25.1676 34.3096C25.9921 34.3757 27.7631 35.8523 29.234 36.5877Z" fill="black"/>
<path d="M29.2447 36.5875C29.2447 36.7714 26.6707 39.5293 23.729 39.5293C20.7873 39.5293 18.2133 36.7829 18.2133 36.5875C18.2133 36.3922 20.7873 39.0466 23.729 39.0466C26.6707 39.0466 29.2447 36.4037 29.2447 36.5875Z" fill="black"/>
<path d="M28.892 36.5876C28.892 36.8384 26.8551 36.5773 25.339 36.6004C24.5623 36.6122 24.2376 36.9105 23.7656 36.9006C23.2937 36.8906 22.9671 36.6708 22.1491 36.644C20.6178 36.5937 18.5659 36.801 18.5659 36.5874C21.1658 36.4294 19.0266 36.5771 22.1352 36.4186C22.7717 36.4193 23.5749 36.6334 23.7656 36.6334C23.952 36.6334 24.5743 36.4164 25.3242 36.4209C28.4829 36.5773 26.4071 36.4212 28.892 36.5874V36.5876Z" fill="black"/>
<path d="M16.3076 24.5869C16.3076 24.5869 17.6076 23.536 18.5139 23.4838C20.6797 23.4926 20.7116 24.5869 20.7116 24.5869C20.7377 24.3614 20.716 25.7187 18.538 25.6908C17.4163 25.6426 16.3076 24.5869 16.3076 24.5869Z" fill="black"/>
<path d="M31.4008 24.5869C31.4008 24.5869 30.1009 23.536 29.1945 23.4838C27.0288 23.4926 26.9969 24.5869 26.9969 24.5869C26.9708 24.3614 26.9925 25.7187 29.1704 25.6908C30.2921 25.6426 31.4008 24.5869 31.4008 24.5869Z" fill="black"/>
</svg>
