<svg width="48" height="48" viewBox="0 0 48 48" fill="none" xmlns="http://www.w3.org/2000/svg">
<path d="M10.5361 20.3312C10.968 20.3312 11.318 19.9831 11.318 19.5536C11.318 19.1241 10.968 18.7759 10.5361 18.7759C10.1043 18.7759 9.75423 19.1241 9.75423 19.5536C9.75423 19.9831 10.1043 20.3312 10.5361 20.3312Z" fill="black"/>
<path d="M10.5361 19.1647C10.968 19.1647 11.318 18.8165 11.318 18.387C11.318 17.9575 10.968 17.6093 10.5361 17.6093C10.1043 17.6093 9.75423 17.9575 9.75423 18.387C9.75423 18.8165 10.1043 19.1647 10.5361 19.1647Z" fill="black"/>
<path d="M10.5361 18.387C10.968 18.387 11.318 18.0388 11.318 17.6093C11.318 17.1798 10.968 16.8316 10.5361 16.8316C10.1043 16.8316 9.75423 17.1798 9.75423 17.6093C9.75423 18.0388 10.1043 18.387 10.5361 18.387Z" fill="black"/>
<path d="M10.1453 17.6093C10.5771 17.6093 10.9272 17.2611 10.9272 16.8316C10.9272 16.4021 10.5771 16.054 10.1453 16.054C9.71343 16.054 9.36337 16.4021 9.36337 16.8316C9.36337 17.2611 9.71343 17.6093 10.1453 17.6093Z" fill="black"/>
<path d="M10.5361 16.8315C10.968 16.8315 11.318 16.4834 11.318 16.0539C11.318 15.6244 10.968 15.2762 10.5361 15.2762C10.1043 15.2762 9.75423 15.6244 9.75423 16.0539C9.75423 16.4834 10.1043 16.8315 10.5361 16.8315Z" fill="black"/>
<path d="M10.1453 16.0539C10.5771 16.0539 10.9272 15.7057 10.9272 15.2762C10.9272 14.8467 10.5771 14.4985 10.1453 14.4985C9.71343 14.4985 9.36337 14.8467 9.36337 15.2762C9.36337 15.7057 9.71343 16.0539 10.1453 16.0539Z" fill="black"/>
<path d="M10.5361 15.2762C10.968 15.2762 11.318 14.9281 11.318 14.4986C11.318 14.0691 10.968 13.7209 10.5361 13.7209C10.1043 13.7209 9.75423 14.0691 9.75423 14.4986C9.75423 14.9281 10.1043 15.2762 10.5361 15.2762Z" fill="black"/>
<path d="M10.1453 14.1097C10.5771 14.1097 10.9272 13.7616 10.9272 13.3321C10.9272 12.9026 10.5771 12.5544 10.1453 12.5544C9.71343 12.5544 9.36337 12.9026 9.36337 13.3321C9.36337 13.7616 9.71343 14.1097 10.1453 14.1097Z" fill="black"/>
<path d="M10.5361 13.3322C10.968 13.3322 11.318 12.984 11.318 12.5545C11.318 12.125 10.968 11.7769 10.5361 11.7769C10.1043 11.7769 9.75423 12.125 9.75423 12.5545C9.75423 12.984 10.1043 13.3322 10.5361 13.3322Z" fill="black"/>
<path d="M10.5361 12.5546C10.968 12.5546 11.318 12.2064 11.318 11.7769C11.318 11.3474 10.968 10.9992 10.5361 10.9992C10.1043 10.9992 9.75423 11.3474 9.75423 11.7769C9.75423 12.2064 10.1043 12.5546 10.5361 12.5546Z" fill="black"/>
<path d="M10.9272 11.7768C11.3591 11.7768 11.7091 11.4287 11.7091 10.9992C11.7091 10.5697 11.3591 10.2215 10.9272 10.2215C10.4954 10.2215 10.1453 10.5697 10.1453 10.9992C10.1453 11.4287 10.4954 11.7768 10.9272 11.7768Z" fill="black"/>
<path d="M11.318 10.6103C11.7499 10.6103 12.0999 10.2622 12.0999 9.83267C12.0999 9.40317 11.7499 9.05499 11.318 9.05499C10.8862 9.05499 10.5361 9.40317 10.5361 9.83267C10.5361 10.2622 10.8862 10.6103 11.318 10.6103Z" fill="black"/>
<path d="M12.1 10.2214C12.5318 10.2214 12.8819 9.87325 12.8819 9.44375C12.8819 9.01425 12.5318 8.66608 12.1 8.66608C11.6682 8.66608 11.3181 9.01425 11.3181 9.44375C11.3181 9.87325 11.6682 10.2214 12.1 10.2214Z" fill="black"/>
<path d="M12.4909 9.44377C12.9227 9.44377 13.2728 9.0956 13.2728 8.6661C13.2728 8.2366 12.9227 7.88843 12.4909 7.88843C12.0591 7.88843 11.709 8.2366 11.709 8.6661C11.709 9.0956 12.0591 9.44377 12.4909 9.44377Z" fill="black"/>
<path d="M13.2729 9.05492C13.7047 9.05492 14.0548 8.70674 14.0548 8.27725C14.0548 7.84775 13.7047 7.49957 13.2729 7.49957C12.841 7.49957 12.491 7.84775 12.491 8.27725C12.491 8.70674 12.841 9.05492 13.2729 9.05492Z" fill="black"/>
<path d="M14.0548 8.27727C14.4866 8.27727 14.8367 7.9291 14.8367 7.4996C14.8367 7.0701 14.4866 6.72192 14.0548 6.72192C13.6229 6.72192 13.2729 7.0701 13.2729 7.4996C13.2729 7.9291 13.6229 8.27727 14.0548 8.27727Z" fill="black"/>
<path d="M14.4456 8.27727C14.8775 8.27727 15.2275 7.9291 15.2275 7.4996C15.2275 7.0701 14.8775 6.72192 14.4456 6.72192C14.0138 6.72192 13.6637 7.0701 13.6637 7.4996C13.6637 7.9291 14.0138 8.27727 14.4456 8.27727Z" fill="black"/>
<path d="M14.8367 7.49962C15.2686 7.49962 15.6186 7.15145 15.6186 6.72195C15.6186 6.29245 15.2686 5.94427 14.8367 5.94427C14.4049 5.94427 14.0548 6.29245 14.0548 6.72195C14.0548 7.15145 14.4049 7.49962 14.8367 7.49962Z" fill="black"/>
<path d="M16.0096 7.49962C16.4414 7.49962 16.7915 7.15145 16.7915 6.72195C16.7915 6.29245 16.4414 5.94427 16.0096 5.94427C15.5778 5.94427 15.2277 6.29245 15.2277 6.72195C15.2277 7.15145 15.5778 7.49962 16.0096 7.49962Z" fill="black"/>
<path d="M16.7913 6.72185C17.2231 6.72185 17.5732 6.37368 17.5732 5.94418C17.5732 5.51468 17.2231 5.1665 16.7913 5.1665C16.3594 5.1665 16.0094 5.51468 16.0094 5.94418C16.0094 6.37368 16.3594 6.72185 16.7913 6.72185Z" fill="black"/>
<path d="M17.5732 6.72185C18.0051 6.72185 18.3551 6.37368 18.3551 5.94418C18.3551 5.51468 18.0051 5.1665 17.5732 5.1665C17.1414 5.1665 16.7913 5.51468 16.7913 5.94418C16.7913 6.37368 17.1414 6.72185 17.5732 6.72185Z" fill="black"/>
<path d="M18.7461 6.333C19.1779 6.333 19.528 5.98482 19.528 5.55532C19.528 5.12582 19.1779 4.77765 18.7461 4.77765C18.3143 4.77765 17.9642 5.12582 17.9642 5.55532C17.9642 5.98482 18.3143 6.333 18.7461 6.333Z" fill="black"/>
<path d="M19.528 6.333C19.9598 6.333 20.3099 5.98482 20.3099 5.55532C20.3099 5.12582 19.9598 4.77765 19.528 4.77765C19.0962 4.77765 18.7461 5.12582 18.7461 5.55532C18.7461 5.98482 19.0962 6.333 19.528 6.333Z" fill="black"/>
<path d="M20.31 5.9442C20.7418 5.9442 21.0919 5.59603 21.0919 5.16653C21.0919 4.73703 20.7418 4.38885 20.31 4.38885C19.8781 4.38885 19.5281 4.73703 19.5281 5.16653C19.5281 5.59603 19.8781 5.9442 20.31 5.9442Z" fill="black"/>
<path d="M20.7008 5.9442C21.1327 5.9442 21.4827 5.59603 21.4827 5.16653C21.4827 4.73703 21.1327 4.38885 20.7008 4.38885C20.269 4.38885 19.9189 4.73703 19.9189 5.16653C19.9189 5.59603 20.269 5.9442 20.7008 5.9442Z" fill="black"/>
<path d="M21.8737 5.55535C22.3055 5.55535 22.6556 5.20717 22.6556 4.77767C22.6556 4.34818 22.3055 4 21.8737 4C21.4419 4 21.0918 4.34818 21.0918 4.77767C21.0918 5.20717 21.4419 5.55535 21.8737 5.55535Z" fill="black"/>
<path d="M22.6556 5.9442C23.0874 5.9442 23.4375 5.59603 23.4375 5.16653C23.4375 4.73703 23.0874 4.38885 22.6556 4.38885C22.2238 4.38885 21.8737 4.73703 21.8737 5.16653C21.8737 5.59603 22.2238 5.9442 22.6556 5.9442Z" fill="black"/>
<path d="M23.4376 5.55535C23.8694 5.55535 24.2195 5.20717 24.2195 4.77767C24.2195 4.34818 23.8694 4 23.4376 4C23.0058 4 22.6557 4.34818 22.6557 4.77767C22.6557 5.20717 23.0058 5.55535 23.4376 5.55535Z" fill="black"/>
<path d="M24.2193 5.9442C24.6511 5.9442 25.0012 5.59603 25.0012 5.16653C25.0012 4.73703 24.6511 4.38885 24.2193 4.38885C23.7875 4.38885 23.4374 4.73703 23.4374 5.16653C23.4374 5.59603 23.7875 5.9442 24.2193 5.9442Z" fill="black"/>
<path d="M25.3923 5.55535C25.8242 5.55535 26.1742 5.20717 26.1742 4.77767C26.1742 4.34818 25.8242 4 25.3923 4C24.9605 4 24.6104 4.34818 24.6104 4.77767C24.6104 5.20717 24.9605 5.55535 25.3923 5.55535Z" fill="black"/>
<path d="M25.7832 5.9442C26.215 5.9442 26.5651 5.59603 26.5651 5.16653C26.5651 4.73703 26.215 4.38885 25.7832 4.38885C25.3514 4.38885 25.0013 4.73703 25.0013 5.16653C25.0013 5.59603 25.3514 5.9442 25.7832 5.9442Z" fill="black"/>
<path d="M26.9561 5.9442C27.3879 5.9442 27.738 5.59603 27.738 5.16653C27.738 4.73703 27.3879 4.38885 26.9561 4.38885C26.5242 4.38885 26.1742 4.73703 26.1742 5.16653C26.1742 5.59603 26.5242 5.9442 26.9561 5.9442Z" fill="black"/>
<path d="M27.738 6.333C28.1699 6.333 28.5199 5.98482 28.5199 5.55532C28.5199 5.12582 28.1699 4.77765 27.738 4.77765C27.3062 4.77765 26.9561 5.12582 26.9561 5.55532C26.9561 5.98482 27.3062 6.333 27.738 6.333Z" fill="black"/>
<path d="M28.5199 5.9442C28.9518 5.9442 29.3018 5.59603 29.3018 5.16653C29.3018 4.73703 28.9518 4.38885 28.5199 4.38885C28.0881 4.38885 27.738 4.73703 27.738 5.16653C27.738 5.59603 28.0881 5.9442 28.5199 5.9442Z" fill="black"/>
<path d="M29.3017 6.72185C29.7335 6.72185 30.0836 6.37368 30.0836 5.94418C30.0836 5.51468 29.7335 5.1665 29.3017 5.1665C28.8698 5.1665 28.5198 5.51468 28.5198 5.94418C28.5198 6.37368 28.8698 6.72185 29.3017 6.72185Z" fill="black"/>
<path d="M30.4745 6.333C30.9064 6.333 31.2564 5.98482 31.2564 5.55532C31.2564 5.12582 30.9064 4.77765 30.4745 4.77765C30.0427 4.77765 29.6926 5.12582 29.6926 5.55532C29.6926 5.98482 30.0427 6.333 30.4745 6.333Z" fill="black"/>
<path d="M31.2564 7.11071C31.6883 7.11071 32.0383 6.76253 32.0383 6.33303C32.0383 5.90353 31.6883 5.55536 31.2564 5.55536C30.8246 5.55536 30.4745 5.90353 30.4745 6.33303C30.4745 6.76253 30.8246 7.11071 31.2564 7.11071Z" fill="black"/>
<path d="M32.0384 7.11071C32.4702 7.11071 32.8203 6.76253 32.8203 6.33303C32.8203 5.90353 32.4702 5.55536 32.0384 5.55536C31.6066 5.55536 31.2565 5.90353 31.2565 6.33303C31.2565 6.76253 31.6066 7.11071 32.0384 7.11071Z" fill="black"/>
<path d="M32.8204 7.88842C33.2522 7.88842 33.6023 7.54024 33.6023 7.11074C33.6023 6.68124 33.2522 6.33307 32.8204 6.33307C32.3886 6.33307 32.0385 6.68124 32.0385 7.11074C32.0385 7.54024 32.3886 7.88842 32.8204 7.88842Z" fill="black"/>
<path d="M33.9932 8.27727C34.425 8.27727 34.7751 7.9291 34.7751 7.4996C34.7751 7.0701 34.425 6.72192 33.9932 6.72192C33.5613 6.72192 33.2113 7.0701 33.2113 7.4996C33.2113 7.9291 33.5613 8.27727 33.9932 8.27727Z" fill="black"/>
<path d="M34.384 9.05492C34.8159 9.05492 35.1659 8.70674 35.1659 8.27725C35.1659 7.84775 34.8159 7.49957 34.384 7.49957C33.9522 7.49957 33.6021 7.84775 33.6021 8.27725C33.6021 8.70674 33.9522 9.05492 34.384 9.05492Z" fill="black"/>
<path d="M35.5569 9.44377C35.9887 9.44377 36.3388 9.0956 36.3388 8.6661C36.3388 8.2366 35.9887 7.88843 35.5569 7.88843C35.1251 7.88843 34.775 8.2366 34.775 8.6661C34.775 9.0956 35.1251 9.44377 35.5569 9.44377Z" fill="black"/>
<path d="M35.5569 10.2214C35.9887 10.2214 36.3388 9.87325 36.3388 9.44375C36.3388 9.01425 35.9887 8.66608 35.5569 8.66608C35.1251 8.66608 34.775 9.01425 34.775 9.44375C34.775 9.87325 35.1251 10.2214 35.5569 10.2214Z" fill="black"/>
<path d="M36.3389 10.9992C36.7707 10.9992 37.1208 10.651 37.1208 10.2215C37.1208 9.79202 36.7707 9.44385 36.3389 9.44385C35.907 9.44385 35.557 9.79202 35.557 10.2215C35.557 10.651 35.907 10.9992 36.3389 10.9992Z" fill="black"/>
<path d="M36.3389 12.1657C36.7707 12.1657 37.1208 11.8175 37.1208 11.388C37.1208 10.9585 36.7707 10.6104 36.3389 10.6104C35.907 10.6104 35.557 10.9585 35.557 11.388C35.557 11.8175 35.907 12.1657 36.3389 12.1657Z" fill="black"/>
<path d="M37.1208 12.9431C37.5526 12.9431 37.9027 12.5949 37.9027 12.1654C37.9027 11.7359 37.5526 11.3878 37.1208 11.3878C36.6889 11.3878 36.3389 11.7359 36.3389 12.1654C36.3389 12.5949 36.6889 12.9431 37.1208 12.9431Z" fill="black"/>
<path d="M36.7297 14.1097C37.1615 14.1097 37.5116 13.7616 37.5116 13.3321C37.5116 12.9026 37.1615 12.5544 36.7297 12.5544C36.2978 12.5544 35.9478 12.9026 35.9478 13.3321C35.9478 13.7616 36.2978 14.1097 36.7297 14.1097Z" fill="black"/>
<path d="M37.1208 14.8874C37.5526 14.8874 37.9027 14.5392 37.9027 14.1097C37.9027 13.6802 37.5526 13.332 37.1208 13.332C36.6889 13.332 36.3389 13.6802 36.3389 14.1097C36.3389 14.5392 36.6889 14.8874 37.1208 14.8874Z" fill="black"/>
<path d="M37.1208 16.0539C37.5526 16.0539 37.9027 15.7057 37.9027 15.2762C37.9027 14.8467 37.5526 14.4985 37.1208 14.4985C36.6889 14.4985 36.3389 14.8467 36.3389 15.2762C36.3389 15.7057 36.6889 16.0539 37.1208 16.0539Z" fill="black"/>
<path d="M37.5116 17.6093C37.9435 17.6093 38.2935 17.2611 38.2935 16.8316C38.2935 16.4021 37.9435 16.054 37.5116 16.054C37.0798 16.054 36.7297 16.4021 36.7297 16.8316C36.7297 17.2611 37.0798 17.6093 37.5116 17.6093Z" fill="black"/>
<path d="M37.1208 18.387C37.5526 18.387 37.9027 18.0388 37.9027 17.6093C37.9027 17.1798 37.5526 16.8316 37.1208 16.8316C36.6889 16.8316 36.3389 17.1798 36.3389 17.6093C36.3389 18.0388 36.6889 18.387 37.1208 18.387Z" fill="black"/>
<path d="M37.1208 19.5535C37.5526 19.5535 37.9027 19.2053 37.9027 18.7758C37.9027 18.3463 37.5526 17.9981 37.1208 17.9981C36.6889 17.9981 36.3389 18.3463 36.3389 18.7758C36.3389 19.2053 36.6889 19.5535 37.1208 19.5535Z" fill="black"/>
<path d="M37.3594 20.2909C37.8142 20.2909 38.183 19.9221 38.183 19.4673C38.183 19.0124 37.8142 18.6436 37.3594 18.6436C36.9045 18.6436 36.5357 19.0124 36.5357 19.4673C36.5357 19.9221 36.9045 20.2909 37.3594 20.2909Z" fill="black"/>
<path d="M10.6456 19.5272C10.516 18.0252 7.71316 5.24652 23.7322 5.24652C39.7512 5.24652 37.0555 17.5158 36.9974 19.4617C36.9196 22.0668 37.2069 22.4331 37.1822 24.0168C37.0939 29.6821 34.853 31.8285 30.8823 40.2567C28.5541 45.1985 19.677 45.2701 17.2796 40.3367C13.1666 31.8726 10.6689 29.1876 10.5504 24.0491C10.5158 22.5419 10.8491 21.8837 10.6456 19.5272Z" stroke="black" stroke-width="0.2"/>
<path d="M18.9809 28.9421C19.0011 29.479 19.3774 29.7768 19.8172 29.8751C20.257 29.9734 20.7636 29.7411 21.1443 30.0521C21.525 30.3631 21.833 31.3265 23.8149 31.3471C25.7968 31.3676 25.6315 30.5007 26.5255 30.0842C26.5294 30.0821 26.5317 30.0772 26.5338 30.076C26.5358 30.0748 27.5381 29.9791 27.9011 29.9151C28.2641 29.8512 28.5926 29.4931 28.6007 28.9258C28.4129 29.3972 28.2196 29.6153 27.8525 29.6738C27.4854 29.7324 26.9272 29.5306 26.4449 29.6899C25.9626 29.8492 25.5246 30.2772 25.1339 30.5266C24.7941 30.7399 24.5288 30.8818 23.8149 30.8885C23.2134 30.8858 22.71 30.7231 22.3348 30.4863C21.9596 30.2496 21.6308 29.8323 21.2087 29.682C20.7867 29.5317 20.1941 29.7248 19.8253 29.6417C19.4565 29.5585 19.2478 29.4372 18.9809 28.9421V28.9421Z" fill="black"/>
<path d="M29.956 35.6325C29.956 36.0443 26.2094 33.7021 25.3858 33.7021C24.974 33.7021 24.0055 34.59 23.7546 34.59C23.5036 34.59 22.947 33.7181 22.1234 33.7181C20.8879 33.7181 18.2738 35.626 17.6256 35.6164C19.7603 34.3037 21.0231 33.2355 22.0751 33.0972C22.6961 33.0972 23.3428 33.4929 23.7546 33.9048C24.1921 33.509 24.8613 33.0875 25.4019 33.0811C26.3252 33.1551 28.3087 34.8088 29.956 35.6325Z" fill="black"/>
<path d="M29.9681 35.6326C29.9681 35.8385 27.0853 38.9271 23.7908 38.9271C20.4963 38.9271 17.6135 35.8514 17.6135 35.6326C17.6135 35.4138 20.4963 38.3866 23.7908 38.3866C27.0853 38.3866 29.9681 35.4267 29.9681 35.6326Z" fill="black"/>
<path d="M29.5731 35.6326C29.5731 35.9135 27.2918 35.6211 25.5939 35.647C24.724 35.6602 24.3603 35.9943 23.8318 35.9831C23.3032 35.972 22.9375 35.7258 22.0214 35.6958C20.3063 35.6395 18.0084 35.8716 18.0084 35.6324C20.9201 35.4554 18.5243 35.6209 22.0058 35.4434C22.7187 35.4441 23.6182 35.6839 23.8318 35.6839C24.0405 35.6839 24.7374 35.4409 25.5773 35.4459C29.1149 35.6211 26.7901 35.4462 29.5731 35.6324V35.6326Z" fill="black"/>
<path d="M15.4792 22.1923C15.4792 22.1923 16.9351 21.0153 17.9502 20.9568C20.3757 20.9667 20.4114 22.1923 20.4114 22.1923C20.4407 21.9397 20.4164 23.4598 17.9772 23.4286C16.7209 23.3746 15.4792 22.1923 15.4792 22.1923Z" fill="black"/>
<path d="M32.3828 22.1923C32.3828 22.1923 30.9269 21.0153 29.9119 20.9568C27.4863 20.9667 27.4506 22.1923 27.4506 22.1923C27.4214 21.9397 27.4456 23.4598 29.8848 23.4286C31.1411 23.3746 32.3828 22.1923 32.3828 22.1923Z" fill="black"/>
<path d="M37.2303 20.3139C37.2303 20.3139 39.1722 19.1309 39.7491 20.1333C40.3259 21.1358 39.414 23.0548 39.107 24.4128C38.6577 26.4001 38.3287 28.4755 37.0153 27.8888" stroke="black" stroke-width="0.2"/>
<path d="M10.706 20.4189C10.706 20.4189 8.76409 19.2359 8.18724 20.2384C7.61038 21.2408 8.52234 23.1599 8.82931 24.5178C9.2786 26.5052 9.60766 28.5806 10.921 27.9939" stroke="black" stroke-width="0.2"/>
</svg>
