<svg width="48" height="48" viewBox="0 0 48 48" fill="none" xmlns="http://www.w3.org/2000/svg">
<path d="M12.3135 28.6626C12.3135 28.6626 11.5494 19.1002 14.2239 17.108C13.0777 15.1159 15.3701 11.53 17.2804 12.7253C20.3369 14.7174 29.5065 15.5143 34.0912 11.9284C34.0912 11.9284 36.0015 16.7096 36.0015 17.5065C36.0015 18.3033 36.3832 25.4751 37.1477 25.8735C37.9119 25.4751 38.2939 13.9206 37.9119 11.1315C37.5298 9.93624 36.0015 5.95191 33.3271 5.95191C29.5065 3.56132 13.8418 1.17072 9.25708 13.1237C8.49297 22.2876 9.63878 23.0845 10.0212 23.4829C10.4033 23.4829 12.3135 26.272 12.3135 28.6626Z" fill="black"/>
<path d="M21.6026 25.4003C21.6026 25.4003 21.2042 25.7988 19.6105 25.7988C18.0167 25.7988 16.0246 25.0019 16.0246 25.0019C16.0246 25.0019 18.0167 24.205 19.6105 24.6035C21.2042 25.0019 21.6026 25.4003 21.6026 25.4003Z" fill="black"/>
<path d="M11.6834 18.6269C11.6834 10.6583 17.8823 4.99219 24.6556 4.99219C31.429 4.99219 37.1413 10.6583 37.1413 18.6269C37.1413 20.4863 36.7891 22.4784 36.7891 24.205C36.7891 25.9315 37.4099 27.5419 37.4099 29.849C37.4099 32.156 34.2753 39.2328 33.1615 40.414C32.0476 41.5952 30.7624 43.9959 24.7899 43.9999C18.8134 44.0039 17.9405 41.5411 16.775 40.326C15.6094 39.1108 11.5999 32.6656 11.5999 29.849C11.5999 27.0323 12.0448 25.6242 12.04 23.8066C12.0361 21.9889 11.6834 20.5165 11.6834 18.6269V18.6269Z" stroke="black" stroke-width="0.25" stroke-miterlimit="10"/>
<path d="M27.0621 37.9168C27.0781 37.9408 26.0113 38.3197 24.8104 38.3197C23.6095 38.3197 22.5588 37.9436 22.5588 37.9168C22.5588 37.8902 23.6095 38.0562 24.8104 38.0562C26.0113 38.0562 27.0621 37.9168 27.0621 37.9168Z" fill="black"/>
<path d="M30.3471 35.8773C30.3471 36.1491 26.8366 35.7941 26.3727 35.7975C25.9087 35.8008 25.3193 36.2268 24.8079 36.2161C24.2965 36.2053 23.6755 35.7528 23.2743 35.7668C22.873 35.7808 19.1738 36.1087 19.1738 35.8774C21.8041 35.8774 22.6461 35.4629 23.2748 35.4629C23.9034 35.4629 24.6012 35.8021 24.8079 35.8021C25.0099 35.8021 25.677 35.4629 26.3722 35.4629C27.0675 35.463 28.388 35.8774 30.3471 35.8774V35.8773Z" fill="black"/>
<path d="M21.7314 31.3856C21.7433 31.6704 21.9756 31.8284 22.2462 31.8805C22.5167 31.9327 22.8288 31.8094 23.0632 31.9744C23.2975 32.1394 23.4872 32.6504 24.7072 32.6613C25.9273 32.6721 25.8255 32.2124 26.3759 31.9915C26.3783 31.9903 26.3796 31.9877 26.3799 31.9871C26.3811 31.9864 26.9981 31.9356 27.2216 31.9017C27.4451 31.8679 27.6472 31.6779 27.6522 31.3769C27.5367 31.627 27.4175 31.7427 27.1916 31.7738C26.9657 31.8048 26.622 31.6977 26.3251 31.7821C26.0283 31.8666 25.7586 32.0937 25.518 32.226C25.3088 32.3391 25.1455 32.4144 24.7061 32.418C24.3359 32.4165 24.0259 32.3302 23.7949 32.2046C23.5638 32.0791 23.3615 31.8577 23.1017 31.778C22.8419 31.6983 22.4771 31.8007 22.2501 31.7565C22.023 31.7124 21.8947 31.648 21.7302 31.3854L21.7314 31.3856Z" fill="black"/>
<path d="M27.8103 25.3344C27.8103 25.3344 28.2087 25.7329 29.8025 25.7329C31.3962 25.7329 33.3884 24.936 33.3884 24.936C33.3884 24.936 31.3962 24.1391 29.8025 24.5376C28.2087 24.936 27.8103 25.3344 27.8103 25.3344Z" fill="black"/>
</svg>
