<svg width="48" height="48" viewBox="0 0 48 48" fill="none" xmlns="http://www.w3.org/2000/svg">
<path d="M15.741 12.604C15.741 12.604 27.7078 10.6739 30.796 16.0782C30.41 14.1481 30.41 14.1481 30.41 14.1481C30.41 14.1481 34.2702 15.3062 35.8143 22.6406C36.2003 24.9568 36.5864 27.2729 36.5864 27.2729C36.5864 27.2729 37.7444 26.5009 37.7444 24.9568C37.7444 23.4127 40.4466 15.3062 34.6562 7.97168C28.8659 0.637207 17.6711 5.26951 16.5131 7.58566C15.355 7.19963 8.40652 12.99 10.3367 25.3428C10.7227 25.7288 11.4947 25.7288 11.4947 25.7288C11.4947 25.7288 11.1087 14.9201 15.741 12.604Z" fill="black"/>
<path d="M21.1867 25.7927C21.1867 25.7927 20.8007 26.1788 19.2566 26.1788C17.7125 26.1788 15.7824 25.4067 15.7824 25.4067C15.7824 25.4067 17.7125 24.6347 19.2566 25.0207C20.8007 25.4067 21.1867 25.7927 21.1867 25.7927Z" fill="black"/>
<path d="M11.5767 19.4171C11.5767 11.6966 17.5825 6.20694 24.1449 6.20694C30.7073 6.20694 36.2418 11.6966 36.2418 19.4171C36.2418 21.2186 35.9005 23.1487 35.9005 24.8214C35.9005 26.4942 36.502 28.0545 36.502 30.2897C36.502 32.5249 33.465 39.3813 32.3859 40.5257C31.3067 41.6701 30.0614 43.996 24.275 43.9999C18.4846 44.0038 17.6389 41.6177 16.5096 40.4404C15.3804 39.2631 11.4957 33.0186 11.4957 30.2897C11.4957 27.5607 11.9268 26.1965 11.9222 24.4354C11.9183 22.6744 11.5767 21.2478 11.5767 19.4171V19.4171Z" stroke="black" stroke-width="0.25" stroke-miterlimit="10"/>
<path d="M26.4762 37.9195C26.4916 37.9426 25.4581 38.3097 24.2946 38.3097C23.1311 38.3097 22.113 37.9454 22.113 37.9195C22.113 37.8936 23.1311 38.0545 24.2946 38.0545C25.4581 38.0545 26.4762 37.9195 26.4762 37.9195Z" fill="black"/>
<path d="M29.6588 35.9435C29.6588 36.2068 26.2577 35.8628 25.8082 35.8661C25.3586 35.8694 24.7876 36.2821 24.2921 36.2717C23.7967 36.2613 23.195 35.8229 22.8063 35.8364C22.4175 35.85 18.8335 36.1677 18.8335 35.9436C21.3818 35.9436 22.1977 35.542 22.8067 35.542C23.4158 35.542 24.0919 35.8706 24.2921 35.8706C24.4878 35.8706 25.1341 35.542 25.8077 35.542C26.4813 35.542 27.7608 35.9436 29.6588 35.9436V35.9435Z" fill="black"/>
<path d="M21.3114 31.5916C21.323 31.8676 21.5481 32.0206 21.8102 32.0711C22.0723 32.1217 22.3747 32.0022 22.6018 32.1621C22.8287 32.3219 23.0125 32.8171 24.1946 32.8276C25.3767 32.838 25.2781 32.3927 25.8113 32.1786C25.8136 32.1775 25.8149 32.175 25.8151 32.1744C25.8163 32.1737 26.4142 32.1245 26.6307 32.0917C26.8472 32.0589 27.043 31.8748 27.0479 31.5832C26.9359 31.8255 26.8205 31.9376 26.6016 31.9677C26.3828 31.9978 26.0498 31.8941 25.7621 31.9758C25.4745 32.0577 25.2132 32.2776 24.9801 32.4058C24.7775 32.5154 24.6192 32.5884 24.1935 32.5918C23.8349 32.5904 23.5345 32.5068 23.3107 32.3852C23.0868 32.2635 22.8908 32.049 22.6391 31.9718C22.3874 31.8945 22.0339 31.9938 21.814 31.9509C21.5939 31.9082 21.4696 31.8459 21.3103 31.5914L21.3114 31.5916Z" fill="black"/>
<path d="M27.201 25.7289C27.201 25.7289 27.587 26.1149 29.1311 26.1149C30.6752 26.1149 32.6054 25.3429 32.6054 25.3429C32.6054 25.3429 30.6752 24.5708 29.1311 24.9568C27.587 25.3429 27.201 25.7289 27.201 25.7289Z" fill="black"/>
</svg>
