<svg width="48" height="48" viewBox="0 0 48 48" fill="none" xmlns="http://www.w3.org/2000/svg">
<path d="M12.0135 27.139C12.0135 27.139 8.55616 5.51083 24.3062 10.7176C37.7514 5.51083 36.5989 26.3379 36.5989 26.3379C36.5989 26.3379 38.9038 17.927 35.8307 11.1181C32.7575 4.30927 20.4647 -0.897502 12.0135 11.5187C10.4769 14.7228 10.861 22.7333 12.0135 27.139Z" fill="black"/>
<path d="M21.4618 25.303C21.4618 25.303 21.0613 25.7035 19.4592 25.7035C17.8571 25.7035 15.8545 24.9025 15.8545 24.9025C15.8545 24.9025 17.8571 24.1015 19.4592 24.502C21.0613 24.9025 21.4618 25.303 21.4618 25.303Z" fill="black"/>
<path d="M11.4908 18.4941C11.4908 10.4837 17.7222 4.7879 24.531 4.7879C31.3399 4.7879 37.0822 10.4837 37.0822 18.4941C37.0822 20.3632 36.7281 22.3658 36.7281 24.1014C36.7281 25.837 37.3522 27.4559 37.3522 29.775C37.3522 32.0941 34.2012 39.208 33.0815 40.3954C31.9618 41.5828 30.6698 43.996 24.666 44.0001C18.6582 44.0041 17.7808 41.5284 16.6091 40.3069C15.4374 39.0854 11.4068 32.6064 11.4068 29.775C11.4068 26.9436 11.8541 25.5281 11.8493 23.7009C11.8453 21.8737 11.4908 20.3936 11.4908 18.4941V18.4941Z" stroke="black" stroke-width="0.25" stroke-miterlimit="10"/>
<path d="M26.9498 37.8849C26.9658 37.909 25.8935 38.2899 24.6863 38.2899C23.4791 38.2899 22.4229 37.9118 22.4229 37.8849C22.4229 37.8581 23.4791 38.025 24.6863 38.025C25.8935 38.025 26.9498 37.8849 26.9498 37.8849Z" fill="black"/>
<path d="M30.2523 35.8346C30.2523 36.1079 26.7234 35.751 26.257 35.7544C25.7906 35.7578 25.1981 36.186 24.684 36.1752C24.17 36.1643 23.5457 35.7095 23.1424 35.7236C22.739 35.7376 19.0204 36.0672 19.0204 35.8347C21.6645 35.8347 22.5109 35.418 23.1429 35.418C23.7748 35.418 24.4763 35.759 24.684 35.759C24.8871 35.759 25.5577 35.418 26.2565 35.4181C26.9554 35.4181 28.2829 35.8347 30.2523 35.8347V35.8346Z" fill="black"/>
<path d="M21.5911 31.3195C21.6031 31.6057 21.8366 31.7645 22.1086 31.817C22.3806 31.8694 22.6943 31.7455 22.9299 31.9113C23.1654 32.0772 23.3561 32.5909 24.5825 32.6019C25.809 32.6127 25.7067 32.1506 26.2599 31.9285C26.2623 31.9274 26.2636 31.9247 26.2639 31.9241C26.2652 31.9234 26.8855 31.8724 27.1101 31.8383C27.3348 31.8042 27.5379 31.6133 27.5429 31.3107C27.4268 31.5621 27.307 31.6785 27.0799 31.7097C26.8528 31.7409 26.5074 31.6332 26.2089 31.7181C25.9105 31.803 25.6394 32.0312 25.3976 32.1642C25.1873 32.278 25.0231 32.3536 24.5814 32.3572C24.2093 32.3558 23.8976 32.269 23.6654 32.1428C23.4331 32.0165 23.2297 31.794 22.9686 31.7139C22.7075 31.6337 22.3407 31.7367 22.1125 31.6923C21.8842 31.6479 21.7552 31.5832 21.5899 31.3192L21.5911 31.3195Z" fill="black"/>
<path d="M27.7019 25.2365C27.7019 25.2365 28.1024 25.637 29.7045 25.637C31.3066 25.637 33.3092 24.836 33.3092 24.836C33.3092 24.836 31.3066 24.0349 29.7045 24.4354C28.1024 24.836 27.7019 25.2365 27.7019 25.2365Z" fill="black"/>
</svg>
