<svg width="48" height="48" viewBox="0 0 48 48" fill="none" xmlns="http://www.w3.org/2000/svg">
<path d="M20.8062 25.5988C20.8062 25.5988 20.412 25.993 18.8353 25.993C17.2585 25.993 15.2876 25.2046 15.2876 25.2046C15.2876 25.2046 17.2585 24.4162 18.8353 24.8104C20.412 25.2046 20.8062 25.5988 20.8062 25.5988Z" fill="black"/>
<path d="M10.9928 18.8976C10.9928 11.0139 17.1255 5.4082 23.8267 5.4082C30.5278 5.4082 36.1793 11.0139 36.1793 18.8976C36.1793 20.7371 35.8308 22.7081 35.8308 24.4162C35.8308 26.1243 36.445 27.7176 36.445 30C36.445 32.2825 33.3438 39.2838 32.2419 40.4524C31.1399 41.621 29.8683 43.9961 23.9595 44.0001C18.0467 44.004 17.1832 41.5675 16.03 40.3653C14.8769 39.1632 10.9101 32.7866 10.9101 30C10.9101 27.2134 11.3503 25.8203 11.3456 24.022C11.3416 22.2238 10.9928 20.767 10.9928 18.8976V18.8976Z" stroke="black" stroke-width="0.25" stroke-miterlimit="10"/>
<path d="M30.8984 12.2752C30.8984 12.2752 34.9774 14.606 35.1925 23.3751C35.1369 26.4238 36.24 27.5791 36.24 27.5791C36.24 27.5791 36.1986 29.8657 34.9984 34.0456C33.7983 38.2256 32.2652 40.1149 32.2652 40.1149C32.2652 40.1149 35.6228 40.9133 38.8206 29.8939C42.0184 18.8744 35.2062 2.02995 28.0195 5.76442C24.7452 0.392937 3.65008 6.6462 10.2821 33.399C10.9757 36.4558 11.3226 37.9842 11.3226 37.9842L12.4533 37.6152L12.8069 38.7624L15.0684 38.0244L13.2508 34.9556C13.2508 34.9556 8.90816 26.5233 12.002 21.2202C15.0958 15.9171 25.2861 11.8337 30.8981 12.2751L30.8984 12.2752Z" fill="black"/>
<path d="M26.2075 37.9816C26.2232 38.0053 25.1679 38.3801 23.9798 38.3801C22.7917 38.3801 21.7521 38.0081 21.7521 37.9816C21.7521 37.9552 22.7917 38.1195 23.9798 38.1195C25.1679 38.1195 26.2075 37.9816 26.2075 37.9816Z" fill="black"/>
<path d="M29.4575 35.9639C29.4575 36.2328 25.9845 35.8815 25.5254 35.8849C25.0664 35.8882 24.4833 36.3096 23.9773 36.299C23.4714 36.2883 22.857 35.8407 22.4601 35.8545C22.0631 35.8683 18.4033 36.1928 18.4033 35.9639C21.0055 35.9639 21.8386 35.5538 22.4606 35.5538C23.0825 35.5538 23.7729 35.8894 23.9773 35.8894C24.1772 35.8894 24.8371 35.5538 25.5249 35.5539C26.2128 35.5539 27.5193 35.9639 29.4575 35.9639V35.9639Z" fill="black"/>
<path d="M20.9335 31.52C20.9453 31.8017 21.1752 31.958 21.4428 32.0096C21.7105 32.0612 22.0193 31.9393 22.2511 32.1025C22.4829 32.2657 22.6706 32.7713 23.8776 32.7821C25.0847 32.7927 24.984 32.3379 25.5285 32.1194C25.5309 32.1183 25.5322 32.1157 25.5324 32.115C25.5337 32.1144 26.1441 32.0641 26.3652 32.0306C26.5863 31.9971 26.7863 31.8091 26.7912 31.5114C26.6769 31.7588 26.5591 31.8733 26.3356 31.904C26.112 31.9347 25.772 31.8288 25.4783 31.9123C25.1846 31.9959 24.9178 32.2205 24.6798 32.3514C24.4728 32.4633 24.3112 32.5378 23.8765 32.5413C23.5103 32.5399 23.2036 32.4545 22.975 32.3303C22.7464 32.206 22.5462 31.9871 22.2892 31.9082C22.0322 31.8293 21.6713 31.9306 21.4467 31.8869C21.222 31.8432 21.0951 31.7796 20.9324 31.5197L20.9335 31.52Z" fill="black"/>
<path d="M26.9477 25.5334C26.9477 25.5334 27.3419 25.9275 28.9186 25.9275C30.4953 25.9275 32.4663 25.1392 32.4663 25.1392C32.4663 25.1392 30.4953 24.3508 28.9186 24.745C27.3419 25.1392 26.9477 25.5334 26.9477 25.5334Z" fill="black"/>
</svg>
