<svg width="48" height="48" viewBox="0 0 48 48" fill="none" xmlns="http://www.w3.org/2000/svg">
<path fill-rule="evenodd" clip-rule="evenodd" d="M24.3694 4.0002C10.974 4.03722 8.89135 11.8297 9.00421 27.753C9.02076 28.8184 9.06289 31.3539 11.3938 31.712C11.6285 35.0948 12.6819 38.2457 15.106 39.7701C19.0546 42.2575 21.0138 43.8916 24.4898 44C26.8703 44.0075 29.916 41.8557 33.2009 39.8002C35.7184 38.2247 37.175 35.1775 37.5542 31.8851C39.9378 32.028 39.5134 29.3089 39.7135 27.753C39.7903 9.91394 37.5331 4.01374 24.4251 4.0002C24.404 3.99975 24.389 4.0002 24.3694 4.0002ZM16.8922 14.5986C18.3308 16.0432 20.5202 17.2485 22.982 18.1228C23.4139 18.2747 22.3816 15.348 22.8255 15.4804C23.3687 15.6414 25.3927 18.8556 25.9479 18.9835C26.4415 19.0979 25.4829 16.3863 25.9795 16.4735C26.5423 16.5713 28.5572 19.4635 29.1124 19.5237C29.5639 19.5734 28.8205 18.0415 29.2629 18.0656C29.7294 18.0927 31.3801 19.6712 31.8316 19.6682C32.2905 19.6636 31.9294 18.511 32.3658 18.4749C32.8759 18.4327 34.176 19.5056 34.644 19.4184C35.0187 19.3476 34.4047 18.2868 34.7463 18.1875C35.0608 18.0942 35.7425 18.3711 36.3128 18.5396C36.379 22.2338 36.379 25.931 36.4015 29.6252C36.4015 33.169 35.0367 36.6751 32.3658 38.3454C29.3953 40.2037 26.6431 42.1434 24.4898 42.1374C21.3463 42.0471 19.5767 40.5649 16.0044 38.3168C13.4809 36.7277 12.6021 33.1885 12.6021 29.6252V20.3408C12.8504 19.76 13.1423 19.4259 13.4659 19.2589C13.66 19.1595 14.6486 16.9159 14.8563 16.8783C15.1045 16.8347 14.5764 19.0031 14.8262 18.9474C15.7095 18.7518 16.5371 18.1333 16.8922 14.5986ZM18.8138 22.7243C18.4156 22.7246 18.0337 22.8829 17.7521 23.1644C17.4705 23.446 17.3123 23.8279 17.312 24.2261C17.3123 24.6243 17.4705 25.0062 17.7521 25.2878C18.0337 25.5694 18.4156 25.7276 18.8138 25.7279C19.2123 25.728 19.5945 25.5699 19.8764 25.2883C20.1584 25.0067 20.3168 24.6246 20.3171 24.2261C20.3168 23.8276 20.1584 23.4455 19.8764 23.1639C19.5945 22.8823 19.2123 22.7242 18.8138 22.7243ZM30.0951 22.7243C29.8976 22.7241 29.7021 22.7627 29.5196 22.838C29.3371 22.9134 29.1712 23.0239 29.0315 23.1634C28.8917 23.3029 28.7808 23.4685 28.7051 23.6508C28.6294 23.8332 28.5904 24.0287 28.5903 24.2261C28.5904 24.4235 28.6294 24.619 28.7051 24.8014C28.7808 24.9837 28.8917 25.1494 29.0315 25.2888C29.1712 25.4283 29.3371 25.5389 29.5196 25.6142C29.7021 25.6895 29.8976 25.7282 30.0951 25.7279C30.4933 25.7276 30.8751 25.5694 31.1567 25.2878C31.4383 25.0062 31.5966 24.6243 31.5968 24.2261C31.5966 23.8279 31.4383 23.446 31.1567 23.1644C30.8751 22.8829 30.4933 22.7246 30.0951 22.7243ZM24.3198 29.6613C23.9842 29.6682 23.6731 29.7005 23.4474 29.752C23.2217 29.8035 23.0976 29.8704 23.0994 29.9397C23.0983 29.9764 23.1327 30.0128 23.2003 30.0468C23.268 30.0807 23.3678 30.1116 23.4938 30.1376C23.6198 30.1637 23.7696 30.1843 23.9346 30.1984C24.0996 30.2124 24.2765 30.2196 24.4552 30.2196C24.6337 30.2196 24.8104 30.2124 24.9753 30.1983C25.1401 30.1842 25.2897 30.1636 25.4156 30.1375C25.5415 30.1115 25.6411 30.0807 25.7087 30.0467C25.7763 30.0128 25.8105 29.9764 25.8095 29.9397C25.8096 29.9032 25.7746 29.867 25.7066 29.8332C25.6385 29.7994 25.5388 29.7687 25.413 29.7429C25.2872 29.717 25.1379 29.6965 24.9736 29.6825C24.8092 29.6685 24.6331 29.6613 24.4552 29.6613C24.4101 29.6609 24.3649 29.6609 24.3198 29.6613ZM24.4161 34.4751C23.0993 34.4785 21.8672 34.5002 20.969 34.5356C20.0708 34.5711 19.5737 34.6178 19.5782 34.6662C19.5776 34.6913 19.7118 34.7161 19.9733 34.7393C20.2348 34.7625 20.6183 34.7836 21.102 34.8014C21.5857 34.8191 22.1601 34.8332 22.7923 34.8428C23.4244 34.8524 24.102 34.8573 24.7862 34.8573C25.4702 34.8573 26.1475 34.8524 26.7793 34.8427C27.4111 34.8331 27.9851 34.8191 28.4685 34.8013C28.9519 34.7836 29.3352 34.7625 29.5964 34.7393C29.8577 34.7161 29.9919 34.6913 29.9912 34.6662C29.9919 34.6411 29.8577 34.6163 29.5964 34.5931C29.3352 34.5699 28.9519 34.5488 28.4685 34.5311C27.9851 34.5133 27.4111 34.4993 26.7793 34.4897C26.1475 34.48 25.4702 34.4751 24.7862 34.4751C24.6629 34.4749 24.5394 34.4749 24.4161 34.4751Z" fill="black"/>
</svg>
