<svg width="48" height="48" viewBox="0 0 48 48" fill="none" xmlns="http://www.w3.org/2000/svg">
<path fill-rule="evenodd" clip-rule="evenodd" d="M24.4272 4.00188C24.3281 4.00188 24.2304 4.01164 24.1313 4.01375C24.0877 4.0133 24.0457 4.00804 24.0021 4.00789C23.9826 4.00714 23.9676 4.00774 23.9466 4.00789V4.00489C18.2136 3.84177 7.54358 7.71715 7.16058 22.5151C7.54508 35.5867 3.09926 38.9166 4.16566 42.2825C4.98874 41.7959 5.7968 41.3843 6.60335 41.0359C7.00738 40.8616 7.4084 40.7039 7.81243 40.5597C9.83408 39.8418 11.8888 39.4843 14.1718 39.3101C14.1748 39.3101 14.1763 39.3116 14.1778 39.3101C14.3565 39.4483 14.5217 39.6 14.7155 39.7216C18.8774 42.3441 20.7188 43.8761 24.3836 43.9902C26.8934 43.9977 29.998 41.919 33.46 39.7502C33.6538 39.6285 33.825 39.4783 34.0082 39.3432H34.0142C37.5364 39.639 40.5313 40.3915 43.7275 42.2855C44.7939 38.9196 40.3465 35.5897 40.7295 22.5196C40.722 21.7912 40.6815 21.0928 40.6274 20.4094C40.6079 20.1856 40.5823 19.9693 40.5598 19.75C40.5102 19.2889 40.4532 18.8368 40.3826 18.3982C40.3465 18.1654 40.306 17.9371 40.2624 17.7118C40.1843 17.2988 40.0957 16.8963 39.9996 16.5027C39.947 16.2925 39.8944 16.0822 39.8374 15.8779C39.7097 15.4213 39.5685 14.9828 39.4153 14.5547C39.3748 14.4421 39.3432 14.3219 39.3012 14.2107C39.0969 13.67 38.8731 13.1519 38.6283 12.6562C38.5742 12.5436 38.5096 12.4414 38.4525 12.3303C38.2663 11.9724 38.0726 11.6241 37.8668 11.2896C37.7586 11.1138 37.6445 10.9453 37.5318 10.7762C37.3531 10.5093 37.1684 10.2493 36.9776 9.99878C36.8545 9.83897 36.7328 9.67977 36.6051 9.52657C36.3828 9.25907 36.15 9.00523 35.9127 8.75801C35.8106 8.65107 35.713 8.53842 35.6078 8.43524C35.2594 8.09399 34.9019 7.76776 34.5279 7.46722C34.4468 7.40263 34.3597 7.34811 34.2786 7.28533C33.9752 7.05223 33.6658 6.82978 33.3459 6.62236C33.1942 6.52428 33.0395 6.43597 32.8848 6.3436C32.6219 6.18619 32.3561 6.03299 32.0842 5.89196C31.9115 5.80214 31.7358 5.71698 31.5585 5.63377C31.3047 5.51436 31.0479 5.40232 30.788 5.29643C30.5792 5.21172 30.372 5.1261 30.1602 5.04995C29.9154 4.96239 29.6645 4.88864 29.4152 4.81234C29.2049 4.74806 28.9977 4.67506 28.7844 4.61874C28.2692 4.48326 27.7435 4.37122 27.2118 4.2814C26.3092 4.11828 25.3869 4.00383 24.4272 4.00263V4.00188ZM11.2655 15.3875C11.3255 15.5993 11.4021 15.8006 11.4938 15.9943C11.4938 15.9958 11.4968 15.9958 11.4968 15.9973C11.5884 16.1896 11.695 16.3728 11.8167 16.5486C11.8437 16.5876 11.8768 16.6222 11.9038 16.6597C12.0059 16.7964 12.1111 16.9301 12.2297 17.0562C12.3784 17.2139 12.5406 17.3626 12.7149 17.5053C12.7704 17.5504 12.835 17.5924 12.8936 17.6375C13.0183 17.7321 13.1429 17.8282 13.2796 17.9153C13.3292 17.9469 13.3832 17.9739 13.4328 18.004C13.5905 18.1001 13.7512 18.1947 13.9224 18.2818C13.996 18.3194 14.0846 18.3464 14.1597 18.3825C14.5458 18.5672 14.9468 18.7459 15.3869 18.8991C15.4695 18.9277 15.5656 18.9472 15.6512 18.9742C16.1078 19.1229 16.5779 19.2656 17.0826 19.3858H17.0856C17.1081 19.3903 17.1336 19.3948 17.1562 19.3993C18.3247 19.6757 19.6029 19.8829 20.9396 20.0511C26.3137 20.7285 32.6024 20.8021 36.2702 22.3101C36.7283 22.4978 37.1428 22.7096 37.5108 22.9469C37.5153 22.9484 37.5198 22.9499 37.5228 22.9529C37.5394 25.1518 37.5634 27.3522 37.5784 29.5676C37.5784 33.5418 35.9548 37.2622 32.9989 39.1366C29.7126 41.2214 26.7658 43.216 24.3836 43.2085C20.9051 43.0988 19.1568 41.6284 15.2051 39.1081C12.413 37.3268 11.2489 33.6319 11.2534 29.6382L11.2655 15.3875ZM18.6626 22.7201C17.8336 22.7216 17.1622 23.393 17.1607 24.2221C17.1622 25.0527 17.8336 25.7241 18.6626 25.7241C19.4932 25.7241 20.1646 25.0527 20.1646 24.2221C20.1646 23.393 19.4932 22.7216 18.6626 22.7201ZM29.9424 22.7201C29.1133 22.7216 28.4404 23.393 28.4404 24.2221C28.4404 25.0527 29.1133 25.7241 29.9424 25.7241C30.7715 25.7241 31.4444 25.0527 31.4444 24.2221C31.4444 23.393 30.7715 22.7216 29.9424 22.7201ZM24.2079 29.6562C23.499 29.6652 22.9493 29.7884 22.9493 29.9341C22.9432 30.0888 23.553 30.2134 24.304 30.2134C25.0565 30.2134 25.6633 30.0888 25.6573 29.9341C25.6543 29.7809 25.0505 29.6562 24.304 29.6562C24.2725 29.6547 24.2394 29.6547 24.2079 29.6562ZM23.8579 35.6716C21.3797 35.6791 19.4572 35.7542 19.4497 35.8458C19.4196 35.9419 21.5524 36.0216 24.1929 36.0216C26.8348 36.0216 28.9691 35.9419 28.9391 35.8458C28.9241 35.7497 26.8033 35.6716 24.1929 35.6716H23.8579ZM23.0874 43.8859C23.4855 43.9474 23.9 43.9865 24.3401 44C24.3536 44 24.3701 43.9955 24.3836 43.9955C23.9255 43.9805 23.496 43.9444 23.0874 43.8859Z" fill="black"/>
</svg>
