<svg fill="none" viewBox="0 0 48 48">
  <defs/>
  <path fill="#333" fill-rule="evenodd" d="M30.42 4.36c-1.67 0-3.31.32-4.82.94a11.6 11.6 0 00-3.95 2.64c-.92-.5-1.95-.8-3.07-.8H12.5A6.5 6.5 0 006 13.67v9.23a6.5 6.5 0 001.95 4.65 9.3 9.3 0 00-1.08 9.69c.58 1.25 1.44 2.4 2.52 3.36s2.36 1.72 3.77 2.24a12.88 12.88 0 009.38-.2c1.54-.66 2.9-1.6 3.99-2.77a5.18 5.18 0 005.87-4.05 5.08 5.08 0 00-5.07-6.09 5.18 5.18 0 00-4.75 3.15 5.07 5.07 0 001.91 6.2 9.56 9.56 0 01-3.13 1.97 10.36 10.36 0 01-10.45-1.77 8 8 0 01-2.79-5.97 7.8 7.8 0 011.53-4.57c.87.42 1.83.69 2.87.69h6.07a6.5 6.5 0 006.52-6.53v-9.23c0-1.77-.7-3.35-1.83-4.52A9.47 9.47 0 0126.5 7c1.23-.5 2.57-.77 3.93-.77 2.51 0 4.92.89 6.7 2.47a8 8 0 012.78 5.98 7.7 7.7 0 01-1.32 4.27 9.08 9.08 0 01-3.56 3.1 3.97 3.97 0 00-.54-1.4c-.25-.4-.56-.7-.9-.87 0-.48-.3-.87-.66-.87-.37 0-.66.37-.67.84-.51.27-.91.7-1.14 1.23a4.72 4.72 0 00-.44 2.02c0 .73.16 1.44.44 2.02.23.53.63.96 1.14 1.22v.15c0 .48.3.87.67.87.36 0 .66-.4.66-.87v-.18c.31-.15.6-.41.84-.76.23-.34.42-.76.54-1.23a11.5 11.5 0 005.14-3.8 9.38 9.38 0 001.05-9.67 10.36 10.36 0 00-2.51-3.36 11.81 11.81 0 00-3.77-2.25 12.87 12.87 0 00-4.45-.78h-.01zm-11.5 8.83c2.07.14 3.6 2.44.66 6.3h-2.94l-.86-1.35-.97 1.51-1.96-3.21-2.1 1.96c-1.88-3.19-.45-5.07 1.4-5.18 1.23-.08 2.62.6 3.37 2.15.02 0 .03-.03.05-.02a3.57 3.57 0 013.36-2.16h-.01zm-6.15 4.15l1.99 3.3 1.09-1.46.62.9 2.62.03c-.84.99-1.95 2.06-3.41 3.22-.12.06-.16.06-.27.02a20.56 20.56 0 01-4.31-4.4l1.67-1.61zm14.55 13.92a3.62 3.62 0 013.61 3.57 3.55 3.55 0 01-2.23 3.3A3.63 3.63 0 0124 36.2a3.55 3.55 0 013.33-4.94h-.01zm0 .38c-.22 0-.4.22-.4.5v2.04a.8.8 0 00-.28.13c-.07.06-.1.12-.1.18s.03.12.1.17c.07.06.17.1.29.13v.25c0 .28.17.5.4.5.21 0 .39-.22.39-.5v-.24c.1-.02.21-.07.3-.13.06-.06.1-.12.1-.18s-.04-.12-.11-.18a.82.82 0 00-.3-.13v-2.05c0-.27-.17-.5-.39-.5v.01z" clip-rule="evenodd"/>
</svg>
