<svg fill="none" viewBox="0 0 48 48">
  <defs/>
  <path fill="#333" fill-rule="evenodd" d="M30.42 4.36c-3.37 0-6.57 1.31-8.77 3.58-.92-.5-1.95-.8-3.07-.8H12.5A6.5 6.5 0 006 13.67v9.23a6.5 6.5 0 001.95 4.65 9.57 9.57 0 00-1.97 5.73c0 5.71 5.2 10.35 11.63 10.35a12.23 12.23 0 008.92-3.76 5.13 5.13 0 005.95-5.04c0-2.82-2.13-5.2-5.15-5.1a5.1 5.1 0 10-2.84 9.36 10.06 10.06 0 01-6.88 2.67c-5.24 0-9.49-3.79-9.49-8.45a7.8 7.8 0 011.53-4.58c.87.43 1.83.7 2.87.7h6.07a6.51 6.51 0 006.52-6.53v-9.23a6.5 6.5 0 00-1.82-4.52 10 10 0 017.14-2.92c5.23 0 9.48 3.78 9.48 8.45 0 3.06-1.88 5.88-4.88 7.36-.21-1.06-.75-1.91-1.44-2.26 0-.48-.3-.87-.66-.87-.37 0-.66.37-.67.84-.93.43-1.58 1.75-1.58 3.25s.64 2.81 1.58 3.24v.15c0 .48.3.87.67.87.36 0 .66-.4.66-.87v-.18c.63-.31 1.14-1.04 1.38-2 4.28-1.61 7.07-5.35 7.08-9.5 0-5.72-5.2-10.36-11.62-10.35h-.01zm.1.58c6.1.05 10.69 4.42 10.99 9.69-.01 3.93-3.34 8.19-7.12 9.03a2 2 0 01-1.24 2c-.02.56.13 1.05-.26.95-.24.04-.35-.36-.27-.86-.74-.4-1.46-1.43-1.46-2.8 0-1.38.7-2.4 1.5-2.74.01-.43.02-.8.3-.8.23-.02.29.35.26.82.71.16 1.47 1.51 1.2 2.8a10.02 10.02 0 006.25-8.09c0-4.42-3.54-9.35-10.4-9.35-2.6 0-5.79 1.4-7.49 3.16 0 0-.35-.2-.47-.5a11.34 11.34 0 018.22-3.31h-.01zm-17.71 2.7h5.45a6.3 6.3 0 016.32 6.32v8.66a6.3 6.3 0 01-6.32 6.32h-5.45a6.3 6.3 0 01-6.32-6.32v-8.66a6.3 6.3 0 016.32-6.31v-.01zm6.02 5.18a3.42 3.42 0 00-3.3 1.97c-.02-.01-.04.03-.05.02a3.48 3.48 0 00-3.5-1.97c-1.53.14-3.6 1.43-1.76 5.47l2.32-2.26 2.16 3.72 1.06-1.75.94 1.57h3.23c1.65-1.87 2.89-6.03-.65-6.73a3.9 3.9 0 00-.45-.04zm-6.83.39c1.23-.1 2.66.7 3.51 2.42.59-1.35 1.85-2.53 3.22-2.37 1.56-.06 3.97 1.78 1.04 5.86h-2.86l-1.13-1.94-1.09 1.74-2.16-3.53-2.14 2.18c-1.24-2.44.03-4.23 1.6-4.36H12zm.45 3.88l-1.84 1.87c.96 1.49 2.49 2.97 4.77 4.87.18.13.15.1.2.1 1.6-1.33 2.9-2.49 3.82-3.63l-2.88-.04-.69-1.04-1.2 1.69-2.18-3.82zm-.08.68l2.26 3.9 1.23-1.82.49.76h2.3a28.35 28.35 0 01-3.07 2.83c-2.32-1.87-3.57-3.17-4.45-4.4l1.24-1.27zM8.26 27.93l.82.53c-4.62 6.64 1.18 14.41 8.61 13.95 2.61 0 5.84-1.13 7.7-3.37-2.12-1.1-2.74-2.72-2.72-4.2-.16-2.23 1.84-4.65 4.68-4.65 2.68 0 4.61 1.9 4.61 4.71.15 1.6-1.33 5.06-5.7 4.43A11.3 11.3 0 0117.72 43c-8.06.1-14.19-7.93-9.46-15.07zm19.1 2.7a4.3 4.3 0 00-4.27 3.67c-.22 1.99 1.4 4.79 4.3 4.67 2.55.07 4.1-2 4.1-3.98.11-1.62-1-4.36-4.14-4.36h.01zm-.04.63c2 0 3.6 1.6 3.61 3.57a3.6 3.6 0 01-7.21 0 3.6 3.6 0 013.6-3.57zm0 .38c-.22 0-.4.22-.4.5v2.04c-.24.07-.39.18-.39.3 0 .13.15.25.4.31v.25c0 .27.17.5.4.5.21 0 .39-.23.39-.5v-.24c.25-.07.4-.18.4-.31s-.16-.24-.4-.3v-2.06c0-.27-.18-.5-.4-.5v.01z" clip-rule="evenodd"/>
</svg>
