<svg fill="none" viewBox="0 0 48 48">
  <defs/>
  <path fill="#333" fill-rule="evenodd" d="M0 0v48h48V0H0zm30.42 4.36c1.52 0 3.03.26 4.45.78 1.4.52 2.69 1.29 3.77 2.25s1.93 2.1 2.52 3.36a9.38 9.38 0 01-1.06 9.66 11.42 11.42 0 01-5.14 3.8c-.12.48-.3.9-.54 1.24-.24.35-.53.6-.84.76v.18c0 .48-.3.87-.66.87-.37 0-.67-.4-.67-.87v-.15a2.5 2.5 0 01-1.14-1.22 4.69 4.69 0 01-.44-2.02c0-.73.16-1.44.44-2.02a2.5 2.5 0 011.14-1.23c.01-.47.3-.84.67-.84.36 0 .66.39.66.87.34.17.65.47.9.86.25.4.43.88.54 1.4a9.08 9.08 0 003.56-3.09 7.76 7.76 0 001.32-4.27 8 8 0 00-2.78-5.98 10.1 10.1 0 00-6.7-2.47c-1.36 0-2.7.26-3.93.77a9.47 9.47 0 00-3.21 2.15 6.49 6.49 0 011.82 4.52v9.23a6.51 6.51 0 01-6.52 6.53H12.5c-1.04 0-2-.27-2.87-.7a7.8 7.8 0 00-1.53 4.58 8 8 0 002.78 5.97 10.1 10.1 0 006.71 2.48c1.3 0 2.57-.25 3.75-.7a9.56 9.56 0 003.13-1.97 5.12 5.12 0 115.7-8.5 5.18 5.18 0 012.3 4.25 5.07 5.07 0 01-3.19 4.71c-.88.36-1.83.47-2.77.32a11.55 11.55 0 01-3.99 2.76 12.83 12.83 0 01-9.38.21 11.81 11.81 0 01-3.77-2.24 10.36 10.36 0 01-2.52-3.36 9.38 9.38 0 01-.89-3.96c.01-2.04.7-4.03 1.97-5.73a6.5 6.5 0 01-1.95-4.65v-9.23a6.5 6.5 0 016.52-6.53h6.07c1.12 0 2.15.3 3.07.8A11.6 11.6 0 0125.6 5.3c1.5-.62 3.15-.94 4.82-.94zm-11.49 8.83a3.55 3.55 0 00-3.36 2.16c-.02 0-.03.03-.05.02a3.56 3.56 0 00-3.36-2.16c-1.86.12-3.3 2-1.42 5.19l2.11-1.96 1.96 3.21.97-1.51.86 1.36h2.94c2.94-3.87 1.41-6.18-.65-6.3v-.01zm-6.16 4.15l-1.67 1.61a20.55 20.55 0 004.31 4.4c.11.04.15.04.27-.02a24.37 24.37 0 003.41-3.22l-2.62-.03-.62-.9-1.1 1.45-1.98-3.29zm14.55 13.92a3.62 3.62 0 00-3.6 3.57 3.55 3.55 0 002.22 3.3 3.63 3.63 0 004.72-1.93 3.55 3.55 0 00-.79-3.9 3.62 3.62 0 00-2.55-1.04zm0 .38c.22 0 .4.22.4.5v2.04c.12.03.22.08.29.13.07.06.1.12.1.18s-.03.12-.1.18c-.09.06-.2.1-.3.13v.24c0 .27-.17.5-.39.5s-.4-.23-.4-.5v-.25a.81.81 0 01-.28-.13c-.07-.05-.1-.11-.1-.17 0-.06.03-.12.1-.18.07-.05.17-.1.29-.13v-2.05c0-.27.17-.5.4-.5l-.01.01z" clip-rule="evenodd"/>
</svg>
