<svg width="48" height="48" viewBox="0 0 48 48" fill="none" xmlns="http://www.w3.org/2000/svg">
<path d="M31.7287 24.1356C33.9753 24.1356 35.7965 22.3144 35.7965 20.0678C35.7965 17.8212 33.9753 16 31.7287 16C29.4821 16 27.6609 17.8212 27.6609 20.0678C27.6609 22.3144 29.4821 24.1356 31.7287 24.1356Z" fill="black"/>
<path d="M33.1548 28.3885L29.4938 24.7275C28.6802 23.9139 27.4599 23.9139 26.6463 24.7275C25.8327 25.541 25.8327 26.7614 26.6463 27.5749L30.3073 31.236C31.1209 32.0495 32.3412 32.0495 33.1548 31.236C33.9683 30.4224 33.9683 29.2021 33.1548 28.3885Z" fill="black"/>
<path d="M33.9662 27.7966H31.9323C30.712 27.7966 29.8984 28.6102 29.8984 29.8305C29.8984 31.0509 30.712 31.8644 31.9323 31.8644H33.9662C35.1866 31.8644 36.0001 31.0509 36.0001 29.8305C36.0001 28.6102 34.9832 27.7966 33.9662 27.7966Z" fill="black"/>
<path d="M15.7524 28.4068L18.1931 25.9661C19.0066 25.1526 20.227 25.1526 21.0405 25.9661C21.8541 26.7797 21.8541 28 21.0405 28.8136L18.5998 31.2542C17.7863 32.0678 16.5659 32.0678 15.7524 31.2542C14.9388 30.4407 14.9388 29.2204 15.7524 28.4068Z" fill="black"/>
<path d="M14.0339 27.7966H17.0847C18.3051 27.7966 19.1186 28.6102 19.1186 29.8305C19.1186 31.0509 18.3051 31.8644 17.0847 31.8644H14.0339C12.8136 31.8644 12 31.0509 12 29.8305C12 28.6102 13.0169 27.7966 14.0339 27.7966Z" fill="black"/>
<path d="M26.8475 25.3559C28.2712 25.3559 29.2881 26.5763 29.2881 27.7966C29.2881 29.017 28.0678 30.2373 26.8475 30.2373H21.9661C20.5424 30.2373 19.5254 29.017 19.5254 27.7966C19.5254 26.5763 20.7458 25.3559 21.9661 25.3559H26.8475ZM26.8475 23.7288H21.9661C19.7288 23.7288 17.8983 25.5593 17.8983 27.7966C17.8983 30.0339 19.7288 31.8644 21.9661 31.8644H26.8475C29.0848 31.8644 30.9153 30.0339 30.9153 27.7966C30.9153 25.5593 29.0848 23.7288 26.8475 23.7288Z" fill="black"/>
<path d="M26.8474 23.7288H23.1864C23.3898 24.9492 23.5932 26.3729 23.5932 27.7966C23.5932 29.2203 23.3898 30.6441 23.1864 31.8644H26.8474C29.0847 31.8644 30.9152 30.0339 30.9152 27.7966C30.9152 25.5593 29.0847 23.7288 26.8474 23.7288Z" fill="black"/>
</svg>
