<svg width="48" height="48" viewBox="0 0 48 48" fill="none" xmlns="http://www.w3.org/2000/svg">
<path d="M31.8621 24.2758C34.1474 24.2758 36 22.4232 36 20.1379C36 17.8526 34.1474 16 31.8621 16C29.5768 16 27.7242 17.8526 27.7242 20.1379C27.7242 22.4232 29.5768 24.2758 31.8621 24.2758Z" fill="black"/>
<path d="M33.1825 28.6206L29.4584 24.8965C28.6308 24.0689 27.3894 24.0689 26.5618 24.8965C25.7343 25.7241 25.7343 26.9654 26.5618 27.793L30.286 31.5171C31.1135 32.3447 32.3549 32.3447 33.1825 31.5171C33.8032 30.6895 33.8032 29.4482 33.1825 28.6206Z" fill="black"/>
<path d="M33.931 27.9999H31.862C30.6207 27.9999 29.7931 28.8275 29.7931 30.0688C29.7931 31.3102 30.6207 32.1378 31.862 32.1378H33.931C35.1724 32.1378 35.9999 31.3102 35.9999 30.0688C35.9999 28.8275 35.1724 27.9999 33.931 27.9999Z" fill="black"/>
<path d="M15.8521 28.6206L18.5418 25.9309C19.3693 25.1034 20.6107 25.1034 21.4383 25.9309C22.2659 26.7585 22.2659 27.9999 21.4383 28.8275L18.7487 31.5171C17.9211 32.3447 16.6797 32.3447 15.8521 31.5171C15.0246 30.6895 15.0246 29.4482 15.8521 28.6206Z" fill="black"/>
<path d="M14.0689 27.9999H17.1724C18.4137 27.9999 19.2413 28.8275 19.2413 30.0688C19.2413 31.3102 18.4137 32.1378 17.1724 32.1378H14.0689C12.8276 32.1378 12 31.3102 12 30.0688C12 28.8275 12.8276 27.9999 14.0689 27.9999Z" fill="black"/>
<path d="M26.8967 23.862H22.5519L22.9657 32.1378H26.6898C28.9656 32.1378 30.8277 30.2757 30.8277 27.9999C31.0346 25.7241 29.1725 23.862 26.8967 23.862Z" fill="black"/>
</svg>
