<svg width="48" height="48" viewBox="0 0 48 48" fill="none" xmlns="http://www.w3.org/2000/svg">
<path fill-rule="evenodd" clip-rule="evenodd" d="M24.248 4C21.8197 4 19.8511 5.96858 19.8511 8.39689C19.8511 10.8252 21.8196 12.7938 24.248 12.7938C26.6763 12.7938 28.6448 10.8252 28.6448 8.39689C28.6448 5.96858 26.6763 4 24.248 4ZM23.8112 13.8757L19.8068 13.8783V13.8897C19.0874 13.9048 18.4007 14.3004 18.0623 14.9938L13.2018 24.9505C12.7208 25.9361 13.1289 27.1169 14.1145 27.5979C15.1002 28.0789 16.2785 27.6733 16.7595 26.6877L19.8069 20.4432C19.8812 24.697 19.5912 28.1118 17.022 33.0866H19.8069V42.02C19.8069 43.1167 20.6877 44 21.7845 44C22.8812 44 23.7645 43.1167 23.7645 42.02V33.0862H24.719V42.0195C24.719 43.1163 25.6023 43.9997 26.699 43.9997C27.7957 43.9997 28.679 43.1163 28.679 42.0195V33.0862H31.469C29.1695 28.2799 28.679 25.1764 28.679 20.4458L31.7337 26.705C32.2147 27.6906 33.3955 28.0963 34.3812 27.6153C35.3668 27.1343 35.7724 25.9536 35.2915 24.968L30.4306 15.0146C30.0908 14.3183 29.4015 13.9175 28.6787 13.9081V13.8966H24.6747L23.8112 13.8757Z" fill="black"/>
</svg>
