<svg width="48" height="48" viewBox="0 0 48 48" fill="none" xmlns="http://www.w3.org/2000/svg">
<path fill-rule="evenodd" clip-rule="evenodd" d="M24.0007 11C22.4893 11 21.2641 12.2796 21.2641 13.858C21.2641 15.4364 22.4893 16.716 24.0007 16.716C25.512 16.716 26.7373 15.4364 26.7373 13.858C26.7373 12.2796 25.5121 11 24.0007 11ZM23.7289 17.4192L21.2365 17.4209V17.4283C20.7888 17.4381 20.3614 17.6953 20.1507 18.146L17.1256 24.6178C16.8262 25.2585 17.0802 26.026 17.6937 26.3386C18.3071 26.6513 19.0405 26.3876 19.3399 25.747L21.2366 21.6881C21.2828 24.4531 21.1023 26.6727 19.5033 29.9063H21.2366V35.713C21.2366 36.4258 21.7848 37 22.4674 37C23.15 37 23.6998 36.4258 23.6998 35.713V29.906H24.2938V35.7127C24.2938 36.4256 24.8436 36.9998 25.5262 36.9998C26.2088 36.9998 26.7585 36.4256 26.7585 35.7127V29.906H28.495C27.0638 26.7819 26.7585 24.7647 26.7585 21.6897L28.6598 25.7583C28.9592 26.3989 29.6941 26.6626 30.3075 26.35C30.921 26.0373 31.1735 25.2698 30.8741 24.6292L27.8487 18.1595C27.6372 17.7069 27.2082 17.4463 26.7584 17.4402V17.4328H24.2663L23.7289 17.4192Z" fill="black"/>
</svg>
