<svg width="48" height="48" viewBox="0 0 48 48" fill="none" xmlns="http://www.w3.org/2000/svg">
<path fill-rule="evenodd" clip-rule="evenodd" d="M24.2478 4C23.0817 4 21.9634 4.4633 21.1388 5.28787C20.3143 6.11243 19.851 7.23073 19.851 8.39684C19.851 9.56294 20.3143 10.6812 21.1388 11.5058C21.9634 12.3304 23.0817 12.7937 24.2478 12.7937C25.4139 12.7937 26.5323 12.3304 27.3569 11.5058C28.1814 10.6812 28.6447 9.56294 28.6447 8.39684C28.6447 7.23073 28.1814 6.11243 27.3569 5.28787C26.5323 4.4633 25.4139 4 24.2478 4ZM19.8067 13.8783V13.8896C19.0873 13.9047 18.4006 14.3004 18.0622 14.9938L13.2018 24.9504C12.7208 25.936 13.1289 27.1168 14.1146 27.5977C15.1002 28.0788 16.2785 27.673 16.7595 26.6874L19.8069 20.443V42.02C19.8069 43.1167 20.6878 44 21.7845 44C22.8813 44 23.7646 43.1167 23.7646 42.02V30.3777H24.719V42.02C24.719 43.1167 25.6023 44 26.699 44C27.7958 44 28.6791 43.1167 28.6791 42.02V20.4282L31.7338 26.6874C32.2148 27.673 33.3956 28.0787 34.3813 27.5977C35.3669 27.1167 35.7726 25.9359 35.2915 24.9503L30.4311 14.9937C30.0913 14.2974 29.402 13.8965 28.6792 13.8872V13.8758H23.8109L19.8067 13.8783Z" fill="black"/>
</svg>
