<svg width="48" height="48" viewBox="0 0 48 48" fill="none" xmlns="http://www.w3.org/2000/svg">
<path fill-rule="evenodd" clip-rule="evenodd" d="M24.0006 11C23.2748 11 22.5787 11.3011 22.0655 11.8371C21.5523 12.3731 21.264 13.1 21.264 13.8579C21.264 14.6159 21.5523 15.3428 22.0655 15.8788C22.5787 16.4147 23.2748 16.7159 24.0006 16.7159C24.7263 16.7159 25.4224 16.4147 25.9356 15.8788C26.4488 15.3428 26.7371 14.6159 26.7371 13.8579C26.7371 13.1 26.4488 12.3731 25.9356 11.8371C25.4224 11.3011 24.7263 11 24.0006 11ZM21.2365 17.4209V17.4282C20.7887 17.4381 20.3613 17.6953 20.1507 18.146L17.1256 24.6178C16.8262 25.2584 17.0802 26.0259 17.6937 26.3385C18.3071 26.6512 19.0405 26.3875 19.3399 25.7468L21.2366 21.688V35.713C21.2366 36.4259 21.7848 37 22.4674 37C23.15 37 23.6998 36.4259 23.6998 35.713V28.1455H24.2938V35.713C24.2938 36.4259 24.8436 37 25.5262 37C26.2088 37 26.7586 36.4259 26.7586 35.713V21.6784L28.6598 25.7468C28.9592 26.3875 29.6941 26.6512 30.3075 26.3385C30.921 26.0258 31.1735 25.2583 30.8741 24.6177L27.849 18.1459C27.6375 17.6933 27.2085 17.4328 26.7586 17.4267V17.4193H23.7286L21.2365 17.4209Z" fill="black"/>
</svg>
