<svg width="48" height="48" viewBox="0 0 48 48" fill="none" xmlns="http://www.w3.org/2000/svg">
<path d="M23.8779 6.24422C18.8614 6.24422 14.1089 8.22441 10.5446 11.7888C6.9802 15.3531 5 20.1056 5 25.1221C5 27.6304 5.52805 30.0066 6.45215 32.3828C7.37624 34.6271 8.82838 36.7393 10.5446 38.4554C12.2607 40.1716 14.3729 41.6238 16.6172 42.5479C18.8614 43.4719 21.3696 44 23.8779 44C26.3861 44 28.7624 43.4719 31.1386 42.5479C33.3828 41.6238 35.4951 40.1716 37.2112 38.4554C38.9274 36.7393 40.3795 34.6271 41.3036 32.3828C42.2277 30.1386 42.7558 27.6304 42.7558 25.1221C42.7558 20.1056 40.7756 15.3531 37.2112 11.7888C33.6469 8.22441 28.8944 6.24422 23.8779 6.24422ZM23.8779 8.75247C28.2343 8.75247 32.3267 10.6007 35.363 13.637C38.3993 16.6733 40.1155 20.7657 40.1155 25.1221C40.1155 29.4785 38.3993 33.571 35.363 36.6073C32.3267 39.6436 28.2343 41.3597 23.8779 41.3597C19.5215 41.3597 15.429 39.6436 12.3927 36.6073C9.35644 33.571 7.64026 29.4785 7.64026 25.1221C7.64026 20.7657 9.35644 16.6733 12.3927 13.637C15.429 10.6007 19.5215 8.75247 23.8779 8.75247Z" fill="black"/>
<path d="M23.8778 35.5512C26.138 35.5512 27.9702 35.433 27.9702 35.2871C27.9702 35.1413 26.138 35.0231 23.8778 35.0231C21.6176 35.0231 19.7854 35.1413 19.7854 35.2871C19.7854 35.433 21.6176 35.5512 23.8778 35.5512Z" fill="#040006"/>
<path d="M23.8779 31.0627C24.4612 31.0627 24.934 30.9445 24.934 30.7987C24.934 30.6529 24.4612 30.5347 23.8779 30.5347C23.2946 30.5347 22.8218 30.6529 22.8218 30.7987C22.8218 30.9445 23.2946 31.0627 23.8779 31.0627Z" fill="#040006"/>
<path d="M29.6865 22.8779C30.8746 22.6139 32.0627 23.1419 32.0627 23.1419C32.0627 23.1419 31.1386 24.066 29.9505 24.33C28.7624 24.5941 27.5742 24.462 27.5742 24.066C27.4422 23.5379 28.4983 23.0099 29.6865 22.8779Z" fill="black"/>
<path d="M20.1815 23.934C20.0495 24.33 18.9934 24.462 17.8053 24.198C16.6171 23.934 15.6931 23.0099 15.6931 23.0099C15.6931 23.0099 16.8812 22.4818 18.0693 22.7459C19.2574 23.0099 20.3135 23.5379 20.1815 23.934Z" fill="black"/>
<path d="M23.8779 8.75247C23.8779 8.75247 16.6171 25.6502 7.64023 25.6502C0.115475 20.2376 17.8052 5.18811 23.8779 8.75247Z" fill="black"/>
<path d="M23.8779 8.75247C23.8779 8.75247 30.8746 25.6502 40.1155 25.6502C40.1155 2.94389 23.8779 8.75247 23.8779 8.75247Z" fill="#040006"/>
<path d="M25.198 4.92409C25.198 5.71617 24.67 6.77228 23.8779 6.77228C23.0858 6.77228 22.5577 5.71617 22.5577 4.92409C22.5577 4.13201 23.0858 4 23.8779 4C24.67 4 25.198 4.13201 25.198 4.92409Z" fill="#080409"/>
</svg>
