<svg width="48" height="48" viewBox="0 0 48 48" fill="none" xmlns="http://www.w3.org/2000/svg">
<path d="M23.6221 13.9738C19.6326 13.9738 15.8531 15.5486 13.0185 18.3832C10.1838 21.2178 8.60901 24.9974 8.60901 28.9869C8.60901 30.9816 9.02896 32.8714 9.76386 34.7612C10.4988 36.5459 11.6536 38.2257 13.0185 39.5906C14.3833 40.9554 16.0631 42.1102 17.8479 42.8451C19.6326 43.5801 21.6274 44 23.6221 44C25.6169 44 27.5066 43.5801 29.3964 42.8451C31.1812 42.1102 32.861 40.9554 34.2258 39.5906C35.5906 38.2257 36.7455 36.5459 37.4804 34.7612C38.2153 32.9764 38.6353 30.9816 38.6353 28.9869C38.6353 24.9974 37.0605 21.2178 34.2258 18.3832C31.3912 15.5486 27.6116 13.9738 23.6221 13.9738ZM23.6221 16.0735C27.0867 16.0735 30.3413 17.4383 32.756 19.853C35.1707 22.2677 36.5355 25.5223 36.5355 28.9869C36.5355 32.4514 35.1707 35.706 32.756 38.1207C30.3413 40.5354 27.0867 41.9003 23.6221 41.9003C20.1576 41.9003 16.903 40.5354 14.4883 38.1207C12.0736 35.706 10.7087 32.4514 10.7087 28.9869C10.7087 25.5223 12.0736 22.2677 14.4883 19.853C16.903 17.4383 20.1576 16.0735 23.6221 16.0735Z" fill="black"/>
<path d="M18.8977 28.6719C19.4775 28.6719 19.9476 28.2019 19.9476 27.6221C19.9476 27.0422 19.4775 26.5722 18.8977 26.5722C18.3179 26.5722 17.8478 27.0422 17.8478 27.6221C17.8478 28.2019 18.3179 28.6719 18.8977 28.6719Z" fill="black"/>
<path d="M28.3466 28.6719C28.9264 28.6719 29.3964 28.2019 29.3964 27.6221C29.3964 27.0422 28.9264 26.5722 28.3466 26.5722C27.7667 26.5722 27.2967 27.0422 27.2967 27.6221C27.2967 28.2019 27.7667 28.6719 28.3466 28.6719Z" fill="black"/>
<path d="M23.7272 37.1759C26.3364 37.1759 28.4516 37.0818 28.4516 36.9659C28.4516 36.8499 26.3364 36.7559 23.7272 36.7559C21.1179 36.7559 19.0027 36.8499 19.0027 36.9659C19.0027 37.0818 21.1179 37.1759 23.7272 37.1759Z" fill="#040006"/>
<path d="M23.7271 38.0158C24.6548 38.0158 25.4069 37.9217 25.4069 37.8058C25.4069 37.6898 24.6548 37.5958 23.7271 37.5958C22.7994 37.5958 22.0473 37.6898 22.0473 37.8058C22.0473 37.9217 22.7994 38.0158 23.7271 38.0158Z" fill="#040006"/>
<path d="M23.7271 33.5013C24.191 33.5013 24.567 33.4073 24.567 33.2913C24.567 33.1754 24.191 33.0814 23.7271 33.0814C23.2632 33.0814 22.8872 33.1754 22.8872 33.2913C22.8872 33.4073 23.2632 33.5013 23.7271 33.5013Z" fill="#040006"/>
<path d="M17.5329 17.5433C18.4027 17.5433 19.1077 16.8382 19.1077 15.9685C19.1077 15.0988 18.4027 14.3937 17.5329 14.3937C16.6632 14.3937 15.9581 15.0988 15.9581 15.9685C15.9581 16.8382 16.6632 17.5433 17.5329 17.5433Z" fill="black"/>
<path d="M13.9634 18.8031C14.8331 18.8031 15.5382 18.0981 15.5382 17.2283C15.5382 16.3586 14.8331 15.6535 13.9634 15.6535C13.0936 15.6535 12.3885 16.3586 12.3885 17.2283C12.3885 18.0981 13.0936 18.8031 13.9634 18.8031Z" fill="black"/>
<path d="M33.176 19.0131C34.0457 19.0131 34.7508 18.3081 34.7508 17.4383C34.7508 16.5686 34.0457 15.8635 33.176 15.8635C32.3063 15.8635 31.6012 16.5686 31.6012 17.4383C31.6012 18.3081 32.3063 19.0131 33.176 19.0131Z" fill="black"/>
<path d="M15.9581 16.4934C16.8278 16.4934 17.5329 15.7884 17.5329 14.9186C17.5329 14.0489 16.8278 13.3438 15.9581 13.3438C15.0884 13.3438 14.3833 14.0489 14.3833 14.9186C14.3833 15.7884 15.0884 16.4934 15.9581 16.4934Z" fill="black"/>
<path d="M30.6563 16.5984C31.526 16.5984 32.2311 15.8934 32.2311 15.0236C32.2311 14.1539 31.526 13.4488 30.6563 13.4488C29.7865 13.4488 29.0815 14.1539 29.0815 15.0236C29.0815 15.8934 29.7865 16.5984 30.6563 16.5984Z" fill="black"/>
<path d="M15.8531 19.1181C16.7228 19.1181 17.4279 18.413 17.4279 17.5433C17.4279 16.6736 16.7228 15.9685 15.8531 15.9685C14.9833 15.9685 14.2783 16.6736 14.2783 17.5433C14.2783 18.413 14.9833 19.1181 15.8531 19.1181Z" fill="black"/>
<path d="M13.9634 20.6929C14.8331 20.6929 15.5382 19.9879 15.5382 19.1181C15.5382 18.2484 14.8331 17.5433 13.9634 17.5433C13.0936 17.5433 12.3885 18.2484 12.3885 19.1181C12.3885 19.9879 13.0936 20.6929 13.9634 20.6929Z" fill="black"/>
<path d="M12.3885 22.5827C13.2583 22.5827 13.9633 21.8776 13.9633 21.0079C13.9633 20.1381 13.2583 19.4331 12.3885 19.4331C11.5188 19.4331 10.8137 20.1381 10.8137 21.0079C10.8137 21.8776 11.5188 22.5827 12.3885 22.5827Z" fill="black"/>
<path d="M11.3387 24.6824C12.2084 24.6824 12.9135 23.9774 12.9135 23.1076C12.9135 22.2379 12.2084 21.5328 11.3387 21.5328C10.4689 21.5328 9.76385 22.2379 9.76385 23.1076C9.76385 23.9774 10.4689 24.6824 11.3387 24.6824Z" fill="black"/>
<path d="M20.3676 18.1732C21.2373 18.1732 21.9424 17.4682 21.9424 16.5984C21.9424 15.7287 21.2373 15.0236 20.3676 15.0236C19.4978 15.0236 18.7928 15.7287 18.7928 16.5984C18.7928 17.4682 19.4978 18.1732 20.3676 18.1732Z" fill="black"/>
<path d="M23.4121 18.1732C24.2819 18.1732 24.9869 17.4682 24.9869 16.5984C24.9869 15.7287 24.2819 15.0236 23.4121 15.0236C22.5424 15.0236 21.8373 15.7287 21.8373 16.5984C21.8373 17.4682 22.5424 18.1732 23.4121 18.1732Z" fill="black"/>
<path d="M26.2468 18.1732C27.1165 18.1732 27.8216 17.4682 27.8216 16.5984C27.8216 15.7287 27.1165 15.0236 26.2468 15.0236C25.3771 15.0236 24.672 15.7287 24.672 16.5984C24.672 17.4682 25.3771 18.1732 26.2468 18.1732Z" fill="black"/>
<path d="M29.0815 17.5433C29.9512 17.5433 30.6563 16.8382 30.6563 15.9685C30.6563 15.0988 29.9512 14.3937 29.0815 14.3937C28.2117 14.3937 27.5067 15.0988 27.5067 15.9685C27.5067 16.8382 28.2117 17.5433 29.0815 17.5433Z" fill="black"/>
<path d="M15.2232 15.0236C16.0929 15.0236 16.798 14.3186 16.798 13.4488C16.798 12.5791 16.0929 11.874 15.2232 11.874C14.3534 11.874 13.6484 12.5791 13.6484 13.4488C13.6484 14.3186 14.3534 15.0236 15.2232 15.0236Z" fill="black"/>
<path d="M15.2232 12.189C16.0929 12.189 16.798 11.4839 16.798 10.6142C16.798 9.74444 16.0929 9.03938 15.2232 9.03938C14.3534 9.03938 13.6484 9.74444 13.6484 10.6142C13.6484 11.4839 14.3534 12.189 15.2232 12.189Z" fill="black"/>
<path d="M16.273 9.66929C17.1428 9.66929 17.8478 8.96423 17.8478 8.09449C17.8478 7.22475 17.1428 6.51968 16.273 6.51968C15.4033 6.51968 14.6982 7.22475 14.6982 8.09449C14.6982 8.96423 15.4033 9.66929 16.273 9.66929Z" fill="black"/>
<path d="M18.4778 8.09449C19.3476 8.09449 20.0526 7.38943 20.0526 6.51969C20.0526 5.64995 19.3476 4.94489 18.4778 4.94489C17.6081 4.94489 16.903 5.64995 16.903 6.51969C16.903 7.38943 17.6081 8.09449 18.4778 8.09449Z" fill="black"/>
<path d="M21.1025 7.25459C21.9723 7.25459 22.6773 6.54953 22.6773 5.67979C22.6773 4.81005 21.9723 4.10498 21.1025 4.10498C20.2328 4.10498 19.5277 4.81005 19.5277 5.67979C19.5277 6.54953 20.2328 7.25459 21.1025 7.25459Z" fill="black"/>
<path d="M23.4121 7.14961C24.2819 7.14961 24.9869 6.44454 24.9869 5.5748C24.9869 4.70506 24.2819 4 23.4121 4C22.5424 4 21.8373 4.70506 21.8373 5.5748C21.8373 6.44454 22.5424 7.14961 23.4121 7.14961Z" fill="black"/>
<path d="M26.2468 7.46457C27.1165 7.46457 27.8216 6.7595 27.8216 5.88976C27.8216 5.02002 27.1165 4.31496 26.2468 4.31496C25.3771 4.31496 24.672 5.02002 24.672 5.88976C24.672 6.7595 25.3771 7.46457 26.2468 7.46457Z" fill="black"/>
<path d="M28.7665 8.09449C29.6363 8.09449 30.3413 7.38943 30.3413 6.51969C30.3413 5.64995 29.6363 4.94489 28.7665 4.94489C27.8968 4.94489 27.1917 5.64995 27.1917 6.51969C27.1917 7.38943 27.8968 8.09449 28.7665 8.09449Z" fill="black"/>
<path d="M31.0763 9.87927C31.946 9.87927 32.6511 9.1742 32.6511 8.30446C32.6511 7.43472 31.946 6.72966 31.0763 6.72966C30.2065 6.72966 29.5015 7.43472 29.5015 8.30446C29.5015 9.1742 30.2065 9.87927 31.0763 9.87927Z" fill="black"/>
<path d="M32.4411 12.189C33.3108 12.189 34.0159 11.4839 34.0159 10.6142C34.0159 9.74444 33.3108 9.03938 32.4411 9.03938C31.5713 9.03938 30.8663 9.74444 30.8663 10.6142C30.8663 11.4839 31.5713 12.189 32.4411 12.189Z" fill="black"/>
<path d="M32.4411 15.0236C33.3108 15.0236 34.0159 14.3186 34.0159 13.4488C34.0159 12.5791 33.3108 11.874 32.4411 11.874C31.5713 11.874 30.8663 12.5791 30.8663 13.4488C30.8663 14.3186 31.5713 15.0236 32.4411 15.0236Z" fill="black"/>
<path d="M23.5171 16.8084C28.4457 16.8084 32.441 14.4582 32.441 11.5591C32.441 8.65993 28.4457 6.30972 23.5171 6.30972C18.5886 6.30972 14.5933 8.65993 14.5933 11.5591C14.5933 14.4582 18.5886 16.8084 23.5171 16.8084Z" fill="black"/>
<path d="M9.02897 24.5774C9.89871 24.5774 10.6038 23.8724 10.6038 23.0026C10.6038 22.1329 9.89871 21.4278 9.02897 21.4278C8.15923 21.4278 7.45416 22.1329 7.45416 23.0026C7.45416 23.8724 8.15923 24.5774 9.02897 24.5774Z" fill="black"/>
<path d="M8.60904 21.8478C9.47878 21.8478 10.1838 21.1427 10.1838 20.273C10.1838 19.4032 9.47878 18.6982 8.60904 18.6982C7.7393 18.6982 7.03424 19.4032 7.03424 20.273C7.03424 21.1427 7.7393 21.8478 8.60904 21.8478Z" fill="black"/>
<path d="M9.86887 19.2231C10.7386 19.2231 11.4437 18.518 11.4437 17.6483C11.4437 16.7786 10.7386 16.0735 9.86887 16.0735C8.99913 16.0735 8.29407 16.7786 8.29407 17.6483C8.29407 18.518 8.99913 19.2231 9.86887 19.2231Z" fill="black"/>
<path d="M12.1786 17.6483C13.0484 17.6483 13.7534 16.9432 13.7534 16.0735C13.7534 15.2038 13.0484 14.4987 12.1786 14.4987C11.3089 14.4987 10.6038 15.2038 10.6038 16.0735C10.6038 16.9432 11.3089 17.6483 12.1786 17.6483Z" fill="black"/>
<path d="M14.4883 16.9134C15.3581 16.9134 16.0631 16.2083 16.0631 15.3386C16.0631 14.4688 15.3581 13.7638 14.4883 13.7638C13.6186 13.7638 12.9135 14.4688 12.9135 15.3386C12.9135 16.2083 13.6186 16.9134 14.4883 16.9134Z" fill="black"/>
<path d="M12.1385 20.5977C13.2691 18.6394 13.4937 16.6523 12.6401 16.1595C11.7865 15.6666 10.1779 16.8546 9.04724 18.8129C7.91658 20.7712 7.692 22.7583 8.54562 23.2511C9.39924 23.744 11.0078 22.556 12.1385 20.5977Z" fill="black"/>
<path d="M38.2153 24.9974C39.085 24.9974 39.7901 24.2923 39.7901 23.4226C39.7901 22.5528 39.085 21.8478 38.2153 21.8478C37.3456 21.8478 36.6405 22.5528 36.6405 23.4226C36.6405 24.2923 37.3456 24.9974 38.2153 24.9974Z" fill="black"/>
<path d="M38.6352 22.2677C39.505 22.2677 40.21 21.5626 40.21 20.6929C40.21 19.8232 39.505 19.1181 38.6352 19.1181C37.7655 19.1181 37.0604 19.8232 37.0604 20.6929C37.0604 21.5626 37.7655 22.2677 38.6352 22.2677Z" fill="black"/>
<path d="M37.3755 19.643C38.2452 19.643 38.9503 18.938 38.9503 18.0682C38.9503 17.1985 38.2452 16.4934 37.3755 16.4934C36.5057 16.4934 35.8007 17.1985 35.8007 18.0682C35.8007 18.938 36.5057 19.643 37.3755 19.643Z" fill="black"/>
<path d="M35.0657 18.0682C35.9354 18.0682 36.6405 17.3632 36.6405 16.4934C36.6405 15.6237 35.9354 14.9186 35.0657 14.9186C34.196 14.9186 33.4909 15.6237 33.4909 16.4934C33.4909 17.3632 34.196 18.0682 35.0657 18.0682Z" fill="black"/>
<path d="M32.756 17.3333C33.6258 17.3333 34.3308 16.6283 34.3308 15.7585C34.3308 14.8888 33.6258 14.1837 32.756 14.1837C31.8863 14.1837 31.1812 14.8888 31.1812 15.7585C31.1812 16.6283 31.8863 17.3333 32.756 17.3333Z" fill="black"/>
<path d="M38.6618 23.5891C39.5155 23.0962 39.2909 21.1092 38.1602 19.1509C37.0295 17.1926 35.421 16.0046 34.5673 16.4974C33.7137 16.9903 33.9383 18.9773 35.069 20.9356C36.1996 22.8939 37.8082 24.0819 38.6618 23.5891Z" fill="black"/>
<path d="M31.2862 19.1181C32.1559 19.1181 32.861 18.413 32.861 17.5433C32.861 16.6736 32.1559 15.9685 31.2862 15.9685C30.4164 15.9685 29.7114 16.6736 29.7114 17.5433C29.7114 18.413 30.4164 19.1181 31.2862 19.1181Z" fill="black"/>
<path d="M33.176 20.6929C34.0457 20.6929 34.7508 19.9879 34.7508 19.1181C34.7508 18.2484 34.0457 17.5433 33.176 17.5433C32.3063 17.5433 31.6012 18.2484 31.6012 19.1181C31.6012 19.9879 32.3063 20.6929 33.176 20.6929Z" fill="black"/>
<path d="M34.7508 22.5827C35.6205 22.5827 36.3256 21.8776 36.3256 21.0079C36.3256 20.1381 35.6205 19.4331 34.7508 19.4331C33.881 19.4331 33.176 20.1381 33.176 21.0079C33.176 21.8776 33.881 22.5827 34.7508 22.5827Z" fill="black"/>
<path d="M35.8006 24.6824C36.6704 24.6824 37.3754 23.9773 37.3754 23.1076C37.3754 22.2379 36.6704 21.5328 35.8006 21.5328C34.9309 21.5328 34.2258 22.2379 34.2258 23.1076C34.2258 23.9773 34.9309 24.6824 35.8006 24.6824Z" fill="black"/>
</svg>
