<svg width="48" height="48" viewBox="0 0 48 48" fill="none" xmlns="http://www.w3.org/2000/svg">
<path d="M23.0033 6.05917C17.9535 6.05917 13.1694 8.05252 9.58139 11.6406C5.99335 15.2286 4 20.0126 4 25.0625C4 27.5874 4.53156 29.9794 5.46179 32.3714C6.39203 34.6306 7.85382 36.7568 9.58139 38.4844C11.309 40.212 13.4352 41.6738 15.6943 42.604C17.9535 43.5342 20.4784 44.0658 23.0033 44.0658C25.5282 44.0658 27.9202 43.5342 30.3123 42.604C32.5714 41.6738 34.6977 40.212 36.4252 38.4844C38.1528 36.7568 39.6146 34.6306 40.5448 32.3714C41.4751 30.1123 42.0066 27.5874 42.0066 25.0625C42.0066 20.0126 40.0133 15.2286 36.4252 11.6406C32.8372 8.05252 28.0531 6.05917 23.0033 6.05917ZM23.0033 8.71697C27.3887 8.71697 31.5083 10.4445 34.5648 13.501C37.6212 16.5575 39.3488 20.6771 39.3488 25.0625C39.3488 29.4479 37.6212 33.5675 34.5648 36.6239C31.5083 39.6804 27.3887 41.408 23.0033 41.408C18.6179 41.408 14.4983 39.6804 11.4419 36.6239C8.38538 33.5675 6.65781 29.4479 6.65781 25.0625C6.65781 20.6771 8.38538 16.5575 11.4419 13.501C14.4983 10.4445 18.6179 8.71697 23.0033 8.71697Z" fill="black"/>
<path d="M17.0232 24.7967C17.7572 24.7967 18.3521 24.2017 18.3521 23.4678C18.3521 22.7339 17.7572 22.1389 17.0232 22.1389C16.2893 22.1389 15.6943 22.7339 15.6943 23.4678C15.6943 24.2017 16.2893 24.7967 17.0232 24.7967Z" fill="black"/>
<path d="M28.9834 24.7967C29.7173 24.7967 30.3123 24.2017 30.3123 23.4678C30.3123 22.7339 29.7173 22.1389 28.9834 22.1389C28.2494 22.1389 27.6545 22.7339 27.6545 23.4678C27.6545 24.2017 28.2494 24.7967 28.9834 24.7967Z" fill="black"/>
<path d="M23.0033 35.5608C25.2785 35.5608 27.1229 35.4418 27.1229 35.295C27.1229 35.1482 25.2785 35.0293 23.0033 35.0293C20.7281 35.0293 18.8837 35.1482 18.8837 35.295C18.8837 35.4418 20.7281 35.5608 23.0033 35.5608Z" fill="#040006"/>
<path d="M23.0033 31.0425C23.5905 31.0425 24.0664 30.9235 24.0664 30.7768C24.0664 30.63 23.5905 30.511 23.0033 30.511C22.4162 30.511 21.9402 30.63 21.9402 30.7768C21.9402 30.9235 22.4162 31.0425 23.0033 31.0425Z" fill="#040006"/>
<path d="M13.7009 11.6406C13.3023 12.8366 11.8405 18.1522 6.65775 23.202C4.66439 25.1954 8.11954 30.2452 6.65775 32.903C5.86041 34.3648 0.411904 14.1655 13.7009 11.6406Z" fill="black"/>
<path d="M7.1677 26.7849C7.82731 26.7502 8.31208 25.7715 8.25045 24.5989C8.18882 23.4262 7.60414 22.5037 6.94452 22.5384C6.28491 22.573 5.80014 23.5518 5.86177 24.7244C5.9234 25.8971 6.50808 26.8196 7.1677 26.7849Z" fill="white"/>
<path d="M13.701 11.6406C13.701 11.6406 23.0033 22.1389 39.3488 23.202C43.6013 23.4678 38.0199 35.5608 39.3488 32.903C43.4684 24.1322 35.6279 -3.64182 13.701 11.6406Z" fill="black"/>
<path d="M40.1721 24.7412C40.2337 23.5685 39.7489 22.5898 39.0893 22.5551C38.4297 22.5205 37.845 23.443 37.7834 24.6156C37.7218 25.7883 38.2065 26.767 38.8662 26.8017C39.5258 26.8363 40.1104 25.9138 40.1721 24.7412Z" fill="white"/>
<path d="M4.39868 29.0492C4.39868 29.0492 6.25914 38.6173 5.19602 44.0658C6.25914 44.0658 8.11961 42.8698 12.2392 44.0658C14.3655 37.8199 4.39868 29.0492 4.39868 29.0492Z" fill="black"/>
<path d="M41.6079 29.0492C41.6079 29.0492 39.7474 38.6173 40.8106 44.0658C39.7474 44.0658 37.887 42.8698 33.7674 44.0658C31.6411 37.8199 41.6079 29.0492 41.6079 29.0492Z" fill="black"/>
</svg>
