<svg width="48" height="48" viewBox="0 0 48 48" fill="none" xmlns="http://www.w3.org/2000/svg">
<path d="M24.3922 35.7685C26.5943 35.7685 28.3794 35.6533 28.3794 35.5113C28.3794 35.3692 26.5943 35.254 24.3922 35.254C22.1902 35.254 20.4051 35.3692 20.4051 35.5113C20.4051 35.6533 22.1902 35.7685 24.3922 35.7685Z" fill="#040006"/>
<path d="M24.3923 31.3955C24.9605 31.3955 25.4212 31.2803 25.4212 31.1383C25.4212 30.9962 24.9605 30.881 24.3923 30.881C23.824 30.881 23.3633 30.9962 23.3633 31.1383C23.3633 31.2803 23.824 31.3955 24.3923 31.3955Z" fill="#040006"/>
<path d="M30.0514 23.4212C31.2089 23.164 32.3665 23.6785 32.3665 23.6785C32.3665 23.6785 31.4662 24.5788 30.3086 24.836C29.1511 25.0933 27.9935 24.9646 27.9935 24.5788C27.8649 24.0643 28.8938 23.5499 30.0514 23.4212Z" fill="black"/>
<path d="M20.791 24.4502C20.6623 24.836 19.6334 24.9646 18.4758 24.7074C17.3183 24.4502 16.418 23.5498 16.418 23.5498C16.418 23.5498 17.5755 23.0354 18.7331 23.2926C19.8906 23.5498 20.9196 24.0643 20.791 24.4502Z" fill="black"/>
<path d="M26.3215 5.92926C26.3215 6.70096 25.4212 7.21543 24.3923 7.21543C23.3633 7.21543 22.463 6.70096 22.463 5.92926C22.463 5.15756 23.3633 4 24.3923 4C25.4212 4 26.3215 5.15756 26.3215 5.92926Z" fill="black"/>
<path d="M37.3826 12.6174C33.91 9.14469 29.2797 7.21543 24.3923 7.21543C24.3923 7.21543 24.5209 8.63022 25.4212 9.14469C26.3215 9.65916 28.6367 10.3022 28.6367 10.3022C31.209 11.074 33.6527 12.4887 35.582 14.418C38.5402 17.3762 40.2122 21.3633 40.2122 25.6077C40.2122 29.8521 38.5402 33.8392 35.582 36.7974C32.6238 39.7556 28.6367 41.4277 24.3923 41.4277C20.1479 41.4277 16.1608 39.7556 13.2026 36.7974C10.2444 33.8392 8.57235 29.8521 8.57235 25.6077C8.57235 21.3633 10.2444 17.3762 13.2026 14.418C15.1318 12.4887 17.5756 11.074 20.1479 10.3022C20.1479 10.3022 22.7203 9.65916 23.492 9.14469C24.2637 8.63022 24.3923 7.21543 24.3923 7.21543C19.5048 7.21543 14.8746 9.14469 11.4019 12.6174C7.92926 16.09 6 20.7203 6 25.6077C6 28.0514 6.51447 30.3666 7.41479 32.6817C8.31511 34.8682 9.7299 36.926 11.4019 38.5981C13.074 40.2701 15.1318 41.6849 17.3183 42.5852C19.5048 43.4855 21.9486 44 24.3923 44C26.836 44 29.1511 43.4855 31.4662 42.5852C33.6527 41.6849 35.7106 40.2701 37.3826 38.5981C39.0547 36.926 40.4695 34.8682 41.3698 32.6817C42.2701 30.4952 42.7846 28.0514 42.7846 25.6077C42.7846 20.7203 40.8553 16.09 37.3826 12.6174Z" fill="black"/>
</svg>
