<svg width="48" height="48" viewBox="0 0 48 48" fill="none" xmlns="http://www.w3.org/2000/svg">
<path d="M24.1897 12.3102C19.9791 12.3102 15.9902 13.9723 12.9985 16.964C10.0068 19.9557 8.34479 23.9446 8.34479 28.1551C8.34479 30.2604 8.788 32.2548 9.56362 34.2493C10.3392 36.133 11.5581 37.9058 12.9985 39.3463C14.439 40.7867 16.2118 42.0055 18.0955 42.7812C19.9791 43.5568 22.0844 44 24.1897 44C26.2949 44 28.2894 43.5568 30.2838 42.7812C32.1675 42.0055 33.9404 40.7867 35.3808 39.3463C36.8212 37.9058 38.0401 36.133 38.8157 34.2493C39.5913 32.3656 40.0345 30.2604 40.0345 28.1551C40.0345 23.9446 38.3725 19.9557 35.3808 16.964C32.3891 13.9723 28.4002 12.3102 24.1897 12.3102ZM24.1897 14.4155C27.8462 14.4155 31.2811 15.9668 33.8296 18.5152C36.378 21.0637 37.8185 24.4986 37.8185 28.1551C37.8185 31.8116 36.378 35.2465 33.8296 37.795C31.2811 40.3435 27.8462 41.7839 24.1897 41.7839C20.5332 41.7839 17.0983 40.3435 14.5498 37.795C12.0013 35.2465 10.5609 31.8116 10.5609 28.1551C10.5609 24.4986 12.0013 21.0637 14.5498 18.5152C17.0983 15.9668 20.5332 14.4155 24.1897 14.4155Z" fill="black"/>
<path d="M28.8434 26.2715C29.8407 26.0499 30.8379 26.4931 30.8379 26.4931C30.8379 26.4931 30.0623 27.2687 29.065 27.4903C28.0678 27.7119 27.0706 27.6011 27.0706 27.2687C26.9598 26.8255 27.7354 26.3823 28.8434 26.2715Z" fill="black"/>
<path d="M24.1897 36.9086C26.0867 36.9086 27.6246 36.8094 27.6246 36.687C27.6246 36.5646 26.0867 36.4654 24.1897 36.4654C22.2926 36.4654 20.7548 36.5646 20.7548 36.687C20.7548 36.8094 22.2926 36.9086 24.1897 36.9086Z" fill="#040006"/>
<path d="M24.1896 33.1413C24.6792 33.1413 25.0761 33.0421 25.0761 32.9197C25.0761 32.7973 24.6792 32.6981 24.1896 32.6981C23.7001 32.6981 23.3032 32.7973 23.3032 32.9197C23.3032 33.0421 23.7001 33.1413 24.1896 33.1413Z" fill="#040006"/>
<path d="M20.8656 27.1579C20.7548 27.4903 19.8684 27.6011 18.8711 27.3795C17.8739 27.1579 17.0983 26.3823 17.0983 26.3823C17.0983 26.3823 18.0955 25.939 19.0927 26.1607C20.09 26.3823 20.9764 26.8255 20.8656 27.1579Z" fill="black"/>
<path d="M15.3254 19.4017C15.3254 19.4017 16.2118 20.7313 18.0954 20.7313C18.9819 20.7313 19.9791 20.9529 20.7547 21.2853C22.6384 22.061 26.0733 22.1718 27.9569 21.2853C28.7326 20.9529 29.619 20.6205 30.5054 20.6205C31.9459 20.6205 33.0539 19.6233 33.0539 19.6233C33.3863 19.0693 36.8212 15.7452 24.1896 15.856C11.7797 15.9668 15.3254 19.4017 15.3254 19.4017Z" fill="#040006"/>
<path d="M33.7188 13.1967C33.8296 12.7535 33.9404 12.1994 33.9404 11.7562C33.9404 7.4349 29.619 4 24.3005 4C18.9819 4 14.6606 7.4349 14.6606 11.7562C14.6606 12.1994 14.7714 12.7535 14.8822 13.1967H33.7188Z" fill="black"/>
<path d="M15.3599 24.0011C16.323 20.0158 15.175 16.319 12.7957 15.744C10.4165 15.169 7.70696 17.9336 6.74386 21.9188C5.78075 25.9041 6.92877 29.6009 9.30803 30.1759C11.6873 30.7509 14.3968 27.9863 15.3599 24.0011Z" fill="black"/>
<path d="M39.2403 30.0445C41.6196 29.4695 42.7676 25.7727 41.8045 21.7874C40.8414 17.8021 38.1319 15.0376 35.7526 15.6125C33.3734 16.1875 32.2253 19.8843 33.1884 23.8696C34.1515 27.8549 36.8611 30.6194 39.2403 30.0445Z" fill="black"/>
<path d="M14.2174 18.8476C16.2368 18.8476 17.8739 17.2106 17.8739 15.1911C17.8739 13.1717 16.2368 11.5346 14.2174 11.5346C12.1979 11.5346 10.5609 13.1717 10.5609 15.1911C10.5609 17.2106 12.1979 18.8476 14.2174 18.8476Z" fill="black"/>
<path d="M33.9403 18.8476C35.9598 18.8476 37.5968 17.2106 37.5968 15.1911C37.5968 13.1717 35.9598 11.5346 33.9403 11.5346C31.9209 11.5346 30.2838 13.1717 30.2838 15.1911C30.2838 17.2106 31.9209 18.8476 33.9403 18.8476Z" fill="black"/>
<path d="M24.6328 18.4044C29.5896 18.4044 33.6079 16.6185 33.6079 14.4155C33.6079 12.2125 29.5896 10.4266 24.6328 10.4266C19.6761 10.4266 15.6578 12.2125 15.6578 14.4155C15.6578 16.6185 19.6761 18.4044 24.6328 18.4044Z" fill="black"/>
<path d="M10.6537 31.8085C11.2037 31.7796 11.6079 30.9635 11.5565 29.9858C11.5051 29.008 11.0176 28.2389 10.4676 28.2678C9.91765 28.2967 9.51346 29.1127 9.56485 30.0905C9.61623 31.0682 10.1037 31.8374 10.6537 31.8085Z" fill="white"/>
<path d="M38.629 30.1272C38.6804 29.1495 38.2762 28.3334 37.7262 28.3045C37.1762 28.2756 36.6887 29.0448 36.6374 30.0226C36.586 31.0003 36.9902 31.8164 37.5401 31.8453C38.0901 31.8742 38.5776 31.105 38.629 30.1272Z" fill="white"/>
</svg>
