<svg width="48" height="48" viewBox="0 0 48 48" fill="none" xmlns="http://www.w3.org/2000/svg">
<path d="M23.6319 6.73616C18.6808 6.73616 13.9902 8.69056 10.4723 12.2085C6.9544 15.7264 5 20.4169 5 25.3681C5 27.8436 5.52117 30.1889 6.43323 32.5342C7.34528 34.7492 8.7785 36.8339 10.4723 38.5277C12.1661 40.2215 14.2508 41.6547 16.4658 42.5668C18.6808 43.4788 21.1563 44 23.6319 44C26.1075 44 28.4528 43.4788 30.798 42.5668C33.013 41.6547 35.0977 40.2215 36.7915 38.5277C38.4853 36.8339 39.9186 34.7492 40.8306 32.5342C41.7427 30.3192 42.2638 27.8436 42.2638 25.3681C42.2638 20.4169 40.3094 15.7264 36.7915 12.2085C33.2736 8.69056 28.5831 6.73616 23.6319 6.73616ZM23.6319 9.34202C27.9316 9.34202 31.9707 11.0358 34.9674 14.0326C37.9642 17.0293 39.658 21.0684 39.658 25.3681C39.658 29.6678 37.9642 33.7068 34.9674 36.7036C31.9707 39.7003 27.9316 41.3941 23.6319 41.3941C19.3322 41.3941 15.2932 39.7003 12.2964 36.7036C9.29967 33.7068 7.60586 29.6678 7.60586 25.3681C7.60586 21.0684 9.29967 17.0293 12.2964 14.0326C15.2932 11.0358 19.3322 9.34202 23.6319 9.34202Z" fill="black"/>
<path d="M7.21499 19.7655C8.29437 19.7655 9.16938 18.8905 9.16938 17.8111C9.16938 16.7317 8.29437 15.8567 7.21499 15.8567C6.1356 15.8567 5.26059 16.7317 5.26059 17.8111C5.26059 18.8905 6.1356 19.7655 7.21499 19.7655Z" fill="black"/>
<path d="M7.60586 16.2476C8.68524 16.2476 9.56025 15.3726 9.56025 14.2932C9.56025 13.2138 8.68524 12.3388 7.60586 12.3388C6.52647 12.3388 5.65146 13.2138 5.65146 14.2932C5.65146 15.3726 6.52647 16.2476 7.60586 16.2476Z" fill="black"/>
<path d="M10.7329 14.5538C11.8123 14.5538 12.6873 13.6787 12.6873 12.5994C12.6873 11.52 11.8123 10.645 10.7329 10.645C9.65352 10.645 8.7785 11.52 8.7785 12.5994C8.7785 13.6787 9.65352 14.5538 10.7329 14.5538Z" fill="black"/>
<path d="M13.2085 12.5994C14.2878 12.5994 15.1629 11.7243 15.1629 10.645C15.1629 9.56558 14.2878 8.69057 13.2085 8.69057C12.1291 8.69057 11.2541 9.56558 11.2541 10.645C11.2541 11.7243 12.1291 12.5994 13.2085 12.5994Z" fill="black"/>
<path d="M15.2931 9.86319C16.3725 9.86319 17.2475 8.98817 17.2475 7.90879C17.2475 6.8294 16.3725 5.95439 15.2931 5.95439C14.2138 5.95439 13.3387 6.8294 13.3387 7.90879C13.3387 8.98817 14.2138 9.86319 15.2931 9.86319Z" fill="black"/>
<path d="M18.8111 9.86319C19.8905 9.86319 20.7655 8.98817 20.7655 7.90879C20.7655 6.8294 19.8905 5.95439 18.8111 5.95439C17.7317 5.95439 16.8567 6.8294 16.8567 7.90879C16.8567 8.98817 17.7317 9.86319 18.8111 9.86319Z" fill="black"/>
<path d="M21.9381 7.90879C23.0175 7.90879 23.8925 7.03378 23.8925 5.9544C23.8925 4.87501 23.0175 4 21.9381 4C20.8587 4 19.9837 4.87501 19.9837 5.9544C19.9837 7.03378 20.8587 7.90879 21.9381 7.90879Z" fill="black"/>
<path d="M25.0651 9.34202C26.1445 9.34202 27.0195 8.46701 27.0195 7.38762C27.0195 6.30824 26.1445 5.43323 25.0651 5.43323C23.9858 5.43323 23.1107 6.30824 23.1107 7.38762C23.1107 8.46701 23.9858 9.34202 25.0651 9.34202Z" fill="black"/>
<path d="M28.5831 8.69056C29.6624 8.69056 30.5375 7.81555 30.5375 6.73617C30.5375 5.65678 29.6624 4.78177 28.5831 4.78177C27.5037 4.78177 26.6287 5.65678 26.6287 6.73617C26.6287 7.81555 27.5037 8.69056 28.5831 8.69056Z" fill="black"/>
<path d="M31.1889 10.9055C32.2683 10.9055 33.1433 10.0305 33.1433 8.95115C33.1433 7.87176 32.2683 6.99675 31.1889 6.99675C30.1095 6.99675 29.2345 7.87176 29.2345 8.95115C29.2345 10.0305 30.1095 10.9055 31.1889 10.9055Z" fill="black"/>
<path d="M34.8371 11.2964C35.9165 11.2964 36.7915 10.4214 36.7915 9.34203C36.7915 8.26265 35.9165 7.38763 34.8371 7.38763C33.7577 7.38763 32.8827 8.26265 32.8827 9.34203C32.8827 10.4214 33.7577 11.2964 34.8371 11.2964Z" fill="black"/>
<path d="M36.2703 14.4235C37.3497 14.4235 38.2247 13.5484 38.2247 12.4691C38.2247 11.3897 37.3497 10.5147 36.2703 10.5147C35.191 10.5147 34.3159 11.3897 34.3159 12.4691C34.3159 13.5484 35.191 14.4235 36.2703 14.4235Z" fill="black"/>
<path d="M39.3974 16.1173C40.4768 16.1173 41.3518 15.2422 41.3518 14.1629C41.3518 13.0835 40.4768 12.2085 39.3974 12.2085C38.318 12.2085 37.443 13.0835 37.443 14.1629C37.443 15.2422 38.318 16.1173 39.3974 16.1173Z" fill="black"/>
<path d="M39.9185 19.6352C40.9979 19.6352 41.8729 18.7602 41.8729 17.6808C41.8729 16.6014 40.9979 15.7264 39.9185 15.7264C38.8392 15.7264 37.9641 16.6014 37.9641 17.6808C37.9641 18.7602 38.8392 19.6352 39.9185 19.6352Z" fill="black"/>
<path d="M17.5082 25.1075C18.2278 25.1075 18.8111 24.5242 18.8111 23.8046C18.8111 23.085 18.2278 22.5016 17.5082 22.5016C16.7886 22.5016 16.2052 23.085 16.2052 23.8046C16.2052 24.5242 16.7886 25.1075 17.5082 25.1075Z" fill="black"/>
<path d="M29.2345 25.1075C29.9541 25.1075 30.5375 24.5242 30.5375 23.8046C30.5375 23.085 29.9541 22.5016 29.2345 22.5016C28.515 22.5016 27.9316 23.085 27.9316 23.8046C27.9316 24.5242 28.515 25.1075 29.2345 25.1075Z" fill="black"/>
<path d="M23.3713 35.6613C25.6021 35.6613 27.4104 35.5446 27.4104 35.4007C27.4104 35.2567 25.6021 35.1401 23.3713 35.1401C21.1406 35.1401 19.3322 35.2567 19.3322 35.4007C19.3322 35.5446 21.1406 35.6613 23.3713 35.6613Z" fill="#040006"/>
<path d="M23.3713 31.2313C23.947 31.2313 24.4137 31.1146 24.4137 30.9707C24.4137 30.8268 23.947 30.7101 23.3713 30.7101C22.7957 30.7101 22.329 30.8268 22.329 30.9707C22.329 31.1146 22.7957 31.2313 23.3713 31.2313Z" fill="#040006"/>
</svg>
