<svg width="48" height="48" viewBox="0 0 48 48" fill="none" xmlns="http://www.w3.org/2000/svg">
<path d="M24.137 11.726C19.8488 11.726 15.7864 13.4187 12.7395 16.4656C9.69269 19.5124 8 23.5749 8 27.863C8 30.0071 8.45138 32.0383 9.24131 34.0696C10.0312 35.9879 11.2725 37.7935 12.7395 39.2605C14.2065 40.7275 16.0121 41.9688 17.9304 42.7587C19.8488 43.5486 21.9929 44 24.137 44C26.2811 44 28.3123 43.5486 30.3435 42.7587C32.2619 41.9688 34.0674 40.7275 35.5344 39.2605C37.0014 37.7935 38.2427 35.9879 39.0327 34.0696C39.8226 32.1512 40.274 30.0071 40.274 27.863C40.274 23.5749 38.5813 19.5124 35.5344 16.4656C32.4876 13.4187 28.4251 11.726 24.137 11.726ZM24.137 13.8701C27.8609 13.8701 31.3591 15.45 33.9546 18.0454C36.55 20.6409 38.017 24.1391 38.017 27.863C38.017 31.5869 36.55 35.0852 33.9546 37.6806C31.3591 40.2761 27.8609 41.7431 24.137 41.7431C20.4131 41.7431 16.9148 40.2761 14.3194 37.6806C11.7239 35.0852 10.2569 31.5869 10.2569 27.863C10.2569 24.1391 11.7239 20.6409 14.3194 18.0454C16.9148 15.45 20.4131 13.8701 24.137 13.8701Z" fill="black"/>
<path d="M28.8765 25.9446C29.8921 25.7189 30.9077 26.1703 30.9077 26.1703C30.9077 26.1703 30.1178 26.9602 29.1022 27.1859C28.0866 27.4116 27.071 27.2988 27.071 26.9602C26.9581 26.5089 27.748 26.0575 28.8765 25.9446Z" fill="black"/>
<path d="M24.137 36.7778C26.069 36.7778 27.6352 36.6768 27.6352 36.5521C27.6352 36.4275 26.069 36.3264 24.137 36.3264C22.205 36.3264 20.6388 36.4275 20.6388 36.5521C20.6388 36.6768 22.205 36.7778 24.137 36.7778Z" fill="#040006"/>
<path d="M24.137 32.9411C24.6355 32.9411 25.0397 32.84 25.0397 32.7154C25.0397 32.5907 24.6355 32.4897 24.137 32.4897C23.6384 32.4897 23.2342 32.5907 23.2342 32.7154C23.2342 32.84 23.6384 32.9411 24.137 32.9411Z" fill="#040006"/>
<path d="M20.7516 26.8474C20.6388 27.1859 19.736 27.2988 18.7204 27.0731C17.7048 26.8474 16.9149 26.0575 16.9149 26.0575C16.9149 26.0575 17.9305 25.6061 18.9461 25.8318C19.9617 26.0575 20.8645 26.5089 20.7516 26.8474Z" fill="black"/>
<path d="M24.137 13.8701C24.137 13.8701 10.2569 19.6253 13.5295 34.8595C13.7551 35.8751 12.401 36.3265 11.9496 35.5366C8.22569 29.7814 7.09723 14.4343 24.137 13.8701Z" fill="black"/>
<path d="M24.137 13.8701C24.137 13.8701 37.9042 19.5124 34.7445 34.7466C34.5188 35.7622 35.873 36.3265 36.4372 35.4237C40.0483 29.5557 41.0639 14.4343 24.137 13.8701Z" fill="black"/>
<path d="M24.1369 11.8389C24.7602 11.8389 25.2654 11.3337 25.2654 10.7104C25.2654 10.0872 24.7602 9.58197 24.1369 9.58197C23.5137 9.58197 23.0085 10.0872 23.0085 10.7104C23.0085 11.3337 23.5137 11.8389 24.1369 11.8389Z" fill="black"/>
<path d="M24.137 9.58196C20.1874 9.46911 21.4287 3.37542 25.2655 4.0525C29.1022 4.72958 28.1995 8.2278 30.9078 9.13057C27.5224 8.79203 27.4096 8.00211 27.4096 8.00211C27.4096 8.00211 27.7481 9.01772 28.3123 9.35626C27.8609 9.46911 27.4096 9.46911 26.9582 9.58196C26.5068 9.80765 25.3783 9.80765 24.137 9.58196Z" fill="black"/>
</svg>
