<svg width="48" height="48" viewBox="0 0 48 48" fill="none" xmlns="http://www.w3.org/2000/svg">
<path d="M23.6879 6.62415C18.7219 6.62415 14.0173 8.58442 10.4888 12.1129C6.96027 15.6414 5 20.3461 5 25.3121C5 27.7951 5.52274 30.1474 6.43753 32.4997C7.35233 34.7214 8.78986 36.8123 10.4888 38.5112C12.1877 40.2101 14.2786 41.6477 16.5003 42.5625C18.7219 43.4773 21.2049 44 23.6879 44C26.1709 44 28.5233 43.4773 30.8756 42.5625C33.0972 41.6477 35.1882 40.2101 36.8871 38.5112C38.586 36.8123 40.0235 34.7214 40.9383 32.4997C41.8531 30.2781 42.3759 27.7951 42.3759 25.3121C42.3759 20.3461 40.4156 15.6414 36.8871 12.1129C33.3586 8.58442 28.654 6.62415 23.6879 6.62415ZM23.6879 9.10716C28.0005 9.10716 32.0518 10.9367 35.0575 13.9425C38.0633 16.9482 39.7622 20.9995 39.7622 25.3121C39.7622 29.6247 38.0633 33.6759 35.0575 36.6817C32.0518 39.6874 28.0005 41.3863 23.6879 41.3863C19.3753 41.3863 15.3241 39.6874 12.3184 36.6817C9.3126 33.6759 7.6137 29.6247 7.6137 25.3121C7.6137 20.9995 9.3126 16.9482 12.3184 13.9425C15.3241 10.9367 19.3753 9.10716 23.6879 9.10716Z" fill="black"/>
<path d="M29.1767 23.0904C30.3528 22.8291 31.529 23.3518 31.529 23.3518C31.529 23.3518 30.6142 24.2666 29.438 24.528C28.2619 24.7893 27.0857 24.6587 27.0857 24.2666C26.955 23.7439 27.8698 23.2211 29.1767 23.0904Z" fill="black"/>
<path d="M23.6879 35.6362C25.9254 35.6362 27.7392 35.5192 27.7392 35.3748C27.7392 35.2305 25.9254 35.1134 23.6879 35.1134C21.4505 35.1134 19.6367 35.2305 19.6367 35.3748C19.6367 35.5192 21.4505 35.6362 23.6879 35.6362Z" fill="#040006"/>
<path d="M23.6879 31.1929C24.2653 31.1929 24.7334 31.0759 24.7334 30.9315C24.7334 30.7872 24.2653 30.6702 23.6879 30.6702C23.1105 30.6702 22.6425 30.7872 22.6425 30.9315C22.6425 31.0759 23.1105 31.1929 23.6879 31.1929Z" fill="#040006"/>
<path d="M19.7674 24.1359C19.6368 24.528 18.5913 24.6587 17.4151 24.3973C16.239 24.1359 15.3242 23.2211 15.3242 23.2211C15.3242 23.2211 16.5003 22.6984 17.6765 22.9597C18.8526 23.2211 19.8981 23.7439 19.7674 24.1359Z" fill="black"/>
<path d="M15.9775 18.3858C18.2149 18.3858 20.0287 16.572 20.0287 14.3346C20.0287 12.0971 18.2149 10.2833 15.9775 10.2833C13.7401 10.2833 11.9263 12.0971 11.9263 14.3346C11.9263 16.572 13.7401 18.3858 15.9775 18.3858Z" fill="white"/>
<path d="M14.0173 10.6754C14.0173 10.6754 15.3241 22.1756 40.2849 22.1756C41.3304 16.2948 28.7847 1.65811 14.0173 10.6754Z" fill="black"/>
<path d="M14.0172 10.6754C14.0172 10.6754 12.5797 22.1756 7.87503 22.1756C2.51695 22.1756 10.8808 11.1981 14.0172 10.6754Z" fill="black"/>
<path d="M12.9025 10.5829C14.6527 9.57241 15.457 7.68922 14.6992 6.37664C13.9414 5.06406 11.9083 4.81914 10.1582 5.82959C8.40806 6.84005 7.60367 8.72323 8.36151 10.0358C9.11935 11.3484 11.1524 11.5933 12.9025 10.5829Z" fill="black"/>
</svg>
