<svg width="48" height="48" viewBox="0 0 48 48" fill="none" xmlns="http://www.w3.org/2000/svg">
<path d="M24.3243 5.35135C19.1892 5.35135 14.3243 7.37838 10.6757 11.027C7.02703 14.6757 5 19.5405 5 24.6757C5 27.2432 5.54054 29.6757 6.48649 32.1081C7.43243 34.4054 8.91892 36.5676 10.6757 38.3243C12.4324 40.0811 14.5946 41.5676 16.8919 42.5135C19.1892 43.4595 21.7568 44 24.3243 44C26.8919 44 29.3243 43.4595 31.7568 42.5135C34.0541 41.5676 36.2162 40.0811 37.973 38.3243C39.7297 36.5676 41.2162 34.4054 42.1622 32.1081C43.1081 29.8108 43.6486 27.2432 43.6486 24.6757C43.6486 19.5405 41.6216 14.6757 37.973 11.027C34.3243 7.37838 29.4595 5.35135 24.3243 5.35135ZM24.3243 8.05405C28.7838 8.05405 32.973 9.81081 36.0811 12.9189C39.1892 16.027 40.9459 20.2162 40.9459 24.6757C40.9459 29.1351 39.1892 33.3243 36.0811 36.4324C32.973 39.5405 28.7838 41.2973 24.3243 41.2973C19.8649 41.2973 15.6757 39.5405 12.5676 36.4324C9.45946 33.3243 7.7027 29.1351 7.7027 24.6757C7.7027 20.2162 9.45946 16.027 12.5676 12.9189C15.6757 9.81081 19.8649 8.05405 24.3243 8.05405Z" fill="black"/>
<path d="M7.29732 18.8649C8.41682 18.8649 9.32435 17.9573 9.32435 16.8378C9.32435 15.7183 8.41682 14.8108 7.29732 14.8108C6.17783 14.8108 5.27029 15.7183 5.27029 16.8378C5.27029 17.9573 6.17783 18.8649 7.29732 18.8649Z" fill="black"/>
<path d="M8.9189 16.027C10.0384 16.027 10.9459 15.1195 10.9459 14C10.9459 12.8805 10.0384 11.973 8.9189 11.973C7.79941 11.973 6.89188 12.8805 6.89188 14C6.89188 15.1195 7.79941 16.027 8.9189 16.027Z" fill="black"/>
<path d="M10.9459 13.4595C12.0654 13.4595 12.973 12.5519 12.973 11.4324C12.973 10.3129 12.0654 9.4054 10.9459 9.4054C9.82645 9.4054 8.91891 10.3129 8.91891 11.4324C8.91891 12.5519 9.82645 13.4595 10.9459 13.4595Z" fill="black"/>
<path d="M13.5135 11.4324C14.633 11.4324 15.5405 10.5249 15.5405 9.40541C15.5405 8.28591 14.633 7.37838 13.5135 7.37838C12.394 7.37838 11.4865 8.28591 11.4865 9.40541C11.4865 10.5249 12.394 11.4324 13.5135 11.4324Z" fill="black"/>
<path d="M16.2162 9.81081C17.3357 9.81081 18.2432 8.90328 18.2432 7.78379C18.2432 6.66429 17.3357 5.75676 16.2162 5.75676C15.0967 5.75676 14.1892 6.66429 14.1892 7.78379C14.1892 8.90328 15.0967 9.81081 16.2162 9.81081Z" fill="black"/>
<path d="M19.3243 8.5946C20.4438 8.5946 21.3514 7.68707 21.3514 6.56757C21.3514 5.44807 20.4438 4.54054 19.3243 4.54054C18.2048 4.54054 17.2973 5.44807 17.2973 6.56757C17.2973 7.68707 18.2048 8.5946 19.3243 8.5946Z" fill="black"/>
<path d="M22.5676 8.05405C23.6871 8.05405 24.5946 7.14652 24.5946 6.02703C24.5946 4.90753 23.6871 4 22.5676 4C21.4481 4 20.5405 4.90753 20.5405 6.02703C20.5405 7.14652 21.4481 8.05405 22.5676 8.05405Z" fill="black"/>
<path d="M25.8108 8.05405C26.9303 8.05405 27.8378 7.14652 27.8378 6.02703C27.8378 4.90753 26.9303 4 25.8108 4C24.6913 4 23.7838 4.90753 23.7838 6.02703C23.7838 7.14652 24.6913 8.05405 25.8108 8.05405Z" fill="black"/>
<path d="M29.054 8.5946C30.1735 8.5946 31.0811 7.68707 31.0811 6.56757C31.0811 5.44807 30.1735 4.54054 29.054 4.54054C27.9345 4.54054 27.027 5.44807 27.027 6.56757C27.027 7.68707 27.9345 8.5946 29.054 8.5946Z" fill="black"/>
<path d="M32.1622 9.67567C33.2817 9.67567 34.1892 8.76814 34.1892 7.64865C34.1892 6.52915 33.2817 5.62162 32.1622 5.62162C31.0427 5.62162 30.1351 6.52915 30.1351 7.64865C30.1351 8.76814 31.0427 9.67567 32.1622 9.67567Z" fill="black"/>
<path d="M35 11.2973C36.1195 11.2973 37.027 10.3898 37.027 9.27028C37.027 8.15078 36.1195 7.24325 35 7.24325C33.8805 7.24325 32.973 8.15078 32.973 9.27028C32.973 10.3898 33.8805 11.2973 35 11.2973Z" fill="black"/>
<path d="M37.4324 13.3243C38.5519 13.3243 39.4594 12.4168 39.4594 11.2973C39.4594 10.1778 38.5519 9.27027 37.4324 9.27027C36.3129 9.27027 35.4054 10.1778 35.4054 11.2973C35.4054 12.4168 36.3129 13.3243 37.4324 13.3243Z" fill="black"/>
<path d="M39.5946 15.8919C40.7141 15.8919 41.6216 14.9844 41.6216 13.8649C41.6216 12.7454 40.7141 11.8378 39.5946 11.8378C38.4751 11.8378 37.5676 12.7454 37.5676 13.8649C37.5676 14.9844 38.4751 15.8919 39.5946 15.8919Z" fill="black"/>
<path d="M41.2162 18.7297C42.3357 18.7297 43.2432 17.8222 43.2432 16.7027C43.2432 15.5832 42.3357 14.6757 41.2162 14.6757C40.0967 14.6757 39.1892 15.5832 39.1892 16.7027C39.1892 17.8222 40.0967 18.7297 41.2162 18.7297Z" fill="black"/>
<path d="M17.973 24.4054C18.7193 24.4054 19.3243 23.8004 19.3243 23.0541C19.3243 22.3077 18.7193 21.7027 17.973 21.7027C17.2267 21.7027 16.6216 22.3077 16.6216 23.0541C16.6216 23.8004 17.2267 24.4054 17.973 24.4054Z" fill="black"/>
<path d="M30.1351 24.4054C30.8815 24.4054 31.4865 23.8004 31.4865 23.0541C31.4865 22.3077 30.8815 21.7027 30.1351 21.7027C29.3888 21.7027 28.7838 22.3077 28.7838 23.0541C28.7838 23.8004 29.3888 24.4054 30.1351 24.4054Z" fill="black"/>
<path d="M24.0541 35.3514C26.3677 35.3514 28.2432 35.2304 28.2432 35.0811C28.2432 34.9318 26.3677 34.8108 24.0541 34.8108C21.7404 34.8108 19.8649 34.9318 19.8649 35.0811C19.8649 35.2304 21.7404 35.3514 24.0541 35.3514Z" fill="#040006"/>
<path d="M24.054 30.7568C24.6511 30.7568 25.1351 30.6358 25.1351 30.4865C25.1351 30.3372 24.6511 30.2162 24.054 30.2162C23.457 30.2162 22.973 30.3372 22.973 30.4865C22.973 30.6358 23.457 30.7568 24.054 30.7568Z" fill="#040006"/>
</svg>
