<svg width="48" height="48" viewBox="0 0 48 48" fill="none" xmlns="http://www.w3.org/2000/svg">
<path d="M23.0445 6.97977C18.1257 6.97977 13.4658 8.92139 9.9709 12.4163C6.47598 15.9112 4.53436 20.5711 4.53436 25.4899C4.53436 27.9493 5.05213 30.2792 5.95822 32.6091C6.86431 34.8097 8.28816 36.8807 9.9709 38.5635C11.6536 40.2462 13.7247 41.67 15.9252 42.5761C18.1257 43.4822 20.5851 44 23.0445 44C25.5039 44 27.8338 43.4822 30.1637 42.5761C32.3642 41.67 34.4353 40.2462 36.118 38.5635C37.8008 36.8807 39.2246 34.8097 40.1307 32.6091C41.0368 30.4086 41.5546 27.9493 41.5546 25.4899C41.5546 20.5711 39.613 15.9112 36.118 12.4163C32.6231 8.92139 27.9632 6.97977 23.0445 6.97977ZM23.0445 9.56859C27.316 9.56859 31.3287 11.2513 34.3059 14.2285C37.283 17.2056 38.9658 21.2183 38.9658 25.4899C38.9658 29.7614 37.283 33.7741 34.3059 36.7513C31.3287 39.7284 27.316 41.4112 23.0445 41.4112C18.7729 41.4112 14.7602 39.7284 11.7831 36.7513C8.80593 33.7741 7.12319 29.7614 7.12319 25.4899C7.12319 21.2183 8.80593 17.2056 11.7831 14.2285C14.7602 11.2513 18.7729 9.56859 23.0445 9.56859Z" fill="black"/>
<path d="M17.2196 25.231C17.9345 25.231 18.5141 24.6515 18.5141 23.9366C18.5141 23.2217 17.9345 22.6422 17.2196 22.6422C16.5048 22.6422 15.9252 23.2217 15.9252 23.9366C15.9252 24.6515 16.5048 25.231 17.2196 25.231Z" fill="black"/>
<path d="M28.8694 25.231C29.5842 25.231 30.1638 24.6515 30.1638 23.9366C30.1638 23.2217 29.5842 22.6422 28.8694 22.6422C28.1545 22.6422 27.575 23.2217 27.575 23.9366C27.575 24.6515 28.1545 25.231 28.8694 25.231Z" fill="black"/>
<path d="M23.0445 35.7157C25.2607 35.7157 27.0572 35.5998 27.0572 35.4569C27.0572 35.3139 25.2607 35.198 23.0445 35.198C20.8284 35.198 19.0319 35.3139 19.0319 35.4569C19.0319 35.5998 20.8284 35.7157 23.0445 35.7157Z" fill="#040006"/>
<path d="M23.0445 31.3147C23.6164 31.3147 24.08 31.1988 24.08 31.0559C24.08 30.9129 23.6164 30.797 23.0445 30.797C22.4726 30.797 22.009 30.9129 22.009 31.0559C22.009 31.1988 22.4726 31.3147 23.0445 31.3147Z" fill="#040006"/>
<path d="M13.9836 9.30972C8.80596 8.79195 5.56993 13.7107 6.0877 18.1117C2.85166 23.9366 4.27552 25.1016 4.5344 28.5965C4.79328 32.868 5.18161 34.2919 7.89987 34.1625C8.80596 34.1625 9.71205 34.5508 9.84149 33.6447C10.4887 31.1853 9.97094 27.8198 9.19429 24.7132C8.41764 21.4772 17.2196 14.6168 13.9836 9.30972Z" fill="black"/>
<path d="M13.9836 9.30971C16.1841 -0.268947 38.9658 3.87318 39.7424 15.6523C39.7424 17.4645 43.4962 18.5 43.4962 22.2538C43.4962 26.0076 40.6485 26.0076 42.0724 28.9848C43.3668 31.4442 41.5546 31.5736 41.5546 34.033C41.5546 36.4924 35.8592 35.7157 35.8592 34.8097C34.8237 31.1853 35.9886 28.7259 37.1536 24.9721C38.3186 21.2183 31.976 20.1828 22.9151 17.0762C13.8542 13.9696 13.9836 9.30971 13.9836 9.30971Z" fill="black"/>
</svg>
