<svg width="48" height="48" viewBox="0 0 48 48" fill="none" xmlns="http://www.w3.org/2000/svg">
<path d="M23.7924 4.41522C18.5329 4.41522 13.5502 6.49135 9.81315 10.2284C6.07612 13.9654 4 18.9481 4 24.2076C4 26.8374 4.55363 29.3287 5.52249 31.8201C6.49135 34.173 8.01384 36.3875 9.81315 38.1868C11.6125 39.9862 13.827 41.5086 16.1799 42.4775C18.5329 43.4464 21.1626 44 23.7924 44C26.4221 44 28.9135 43.4464 31.4048 42.4775C33.7578 41.5086 35.9723 39.9862 37.7716 38.1868C39.5709 36.3875 41.0934 34.173 42.0623 31.8201C43.0311 29.4671 43.5848 26.8374 43.5848 24.2076C43.5848 18.9481 41.5086 13.9654 37.7716 10.2284C34.0346 6.49135 29.0519 4.41522 23.7924 4.41522ZM23.7924 7.18339C28.3599 7.18339 32.6505 8.9827 35.8339 12.1661C39.0173 15.3495 40.8166 19.6401 40.8166 24.2076C40.8166 28.7751 39.0173 33.0657 35.8339 36.2491C32.6505 39.4325 28.3599 41.2318 23.7924 41.2318C19.2249 41.2318 14.9343 39.4325 11.7509 36.2491C8.56747 33.0657 6.76817 28.7751 6.76817 24.2076C6.76817 19.6401 8.56747 15.3495 11.7509 12.1661C14.9343 8.9827 19.2249 7.18339 23.7924 7.18339Z" fill="black"/>
<path d="M17.2872 23.9308C18.0516 23.9308 18.6712 23.3111 18.6712 22.5467C18.6712 21.7823 18.0516 21.1626 17.2872 21.1626C16.5228 21.1626 15.9031 21.7823 15.9031 22.5467C15.9031 23.3111 16.5228 23.9308 17.2872 23.9308Z" fill="black"/>
<path d="M29.7439 23.9308C30.5083 23.9308 31.128 23.3111 31.128 22.5467C31.128 21.7823 30.5083 21.1626 29.7439 21.1626C28.9795 21.1626 28.3598 21.7823 28.3598 22.5467C28.3598 23.3111 28.9795 23.9308 29.7439 23.9308Z" fill="black"/>
<path d="M23.5156 35.1419C25.8852 35.1419 27.8062 35.0179 27.8062 34.8651C27.8062 34.7122 25.8852 34.5882 23.5156 34.5882C21.1459 34.5882 19.2249 34.7122 19.2249 34.8651C19.2249 35.0179 21.1459 35.1419 23.5156 35.1419Z" fill="#040006"/>
<path d="M23.5155 30.436C24.1271 30.436 24.6228 30.3121 24.6228 30.1592C24.6228 30.0063 24.1271 29.8824 23.5155 29.8824C22.904 29.8824 22.4083 30.0063 22.4083 30.1592C22.4083 30.3121 22.904 30.436 23.5155 30.436Z" fill="#040006"/>
<path d="M13.5502 7.3218C13.5502 7.3218 21.5779 2.06228 31.1281 5.79931C32.2354 6.35294 33.8963 6.21453 35.834 4C35.9724 4.41522 35.6956 6.21453 34.5883 7.59862C31.6817 10.782 20.0554 14.1038 13.5502 7.3218Z" fill="black"/>
</svg>
