<svg width="48" height="48" viewBox="0 0 48 48" fill="none" xmlns="http://www.w3.org/2000/svg">
<path d="M24 4C18.6853 4 13.6504 6.0979 9.87413 9.87413C6.0979 13.6504 4 18.6853 4 24C4 26.6573 4.55944 29.1748 5.53846 31.6923C6.51748 34.0699 8.05594 36.3077 9.87413 38.1259C11.6923 39.9441 13.9301 41.4825 16.3077 42.4615C18.6853 43.4406 21.3427 44 24 44C26.6573 44 29.1748 43.4406 31.6923 42.4615C34.0699 41.4825 36.3077 39.9441 38.1259 38.1259C39.9441 36.3077 41.4825 34.0699 42.4615 31.6923C43.4406 29.3147 44 26.6573 44 24C44 18.6853 41.9021 13.6504 38.1259 9.87413C34.3497 6.0979 29.3147 4 24 4ZM24 6.7972C28.6154 6.7972 32.9511 8.61539 36.1678 11.8322C39.3846 15.049 41.2028 19.3846 41.2028 24C41.2028 28.6154 39.3846 32.9511 36.1678 36.1678C32.9511 39.3846 28.6154 41.2028 24 41.2028C19.3846 41.2028 15.049 39.3846 11.8322 36.1678C8.61539 32.9511 6.7972 28.6154 6.7972 24C6.7972 19.3846 8.61539 15.049 11.8322 11.8322C15.049 8.61539 19.3846 6.7972 24 6.7972Z" fill="black"/>
<path d="M17.4266 23.7203C18.199 23.7203 18.8252 23.0941 18.8252 22.3217C18.8252 21.5493 18.199 20.9231 17.4266 20.9231C16.6541 20.9231 16.028 21.5493 16.028 22.3217C16.028 23.0941 16.6541 23.7203 17.4266 23.7203Z" fill="black"/>
<path d="M30.014 23.7203C30.7864 23.7203 31.4126 23.0941 31.4126 22.3217C31.4126 21.5493 30.7864 20.9231 30.014 20.9231C29.2415 20.9231 28.6154 21.5493 28.6154 22.3217C28.6154 23.0941 29.2415 23.7203 30.014 23.7203Z" fill="black"/>
<path d="M23.7203 35.049C26.1148 35.049 28.056 34.9237 28.056 34.7692C28.056 34.6148 26.1148 34.4895 23.7203 34.4895C21.3258 34.4895 19.3846 34.6148 19.3846 34.7692C19.3846 34.9237 21.3258 35.049 23.7203 35.049Z" fill="#040006"/>
<path d="M23.7203 30.2937C24.3382 30.2937 24.8391 30.1685 24.8391 30.014C24.8391 29.8595 24.3382 29.7343 23.7203 29.7343C23.1023 29.7343 22.6014 29.8595 22.6014 30.014C22.6014 30.1685 23.1023 30.2937 23.7203 30.2937Z" fill="#040006"/>
<path d="M16.028 7.63637C18.8252 13.7902 34.0699 0.643359 40.5035 19.2448C41.2028 15.049 35.7482 0.36364 16.028 7.63637Z" fill="black"/>
<path d="M16.4476 8.47553C16.4476 12.1119 10.4336 9.17483 7.35665 19.2448C4 17.7063 12.6713 7.49651 16.4476 8.47553Z" fill="black"/>
</svg>
