<svg width="48" height="48" viewBox="0 0 48 48" fill="none" xmlns="http://www.w3.org/2000/svg">
<path d="M23.5101 6.97977C18.5913 6.97977 13.9315 8.92139 10.4365 12.4163C6.94162 15.9112 5 20.5711 5 25.4899C5 27.9493 5.51777 30.2792 6.42386 32.6092C7.32995 34.8097 8.7538 36.8807 10.4365 38.5635C12.1193 40.2462 14.1903 41.6701 16.3908 42.5761C18.5913 43.4822 21.0507 44 23.5101 44C25.9695 44 28.2994 43.4822 30.6294 42.5761C32.8299 41.6701 34.901 40.2462 36.5837 38.5635C38.2664 36.8807 39.6903 34.8097 40.5964 32.6092C41.5025 30.4087 42.0202 27.9493 42.0202 25.4899C42.0202 20.5711 40.0786 15.9112 36.5837 12.4163C33.0888 8.92139 28.4289 6.97977 23.5101 6.97977ZM23.5101 9.56859C27.7817 9.56859 31.7944 11.2513 34.7715 14.2285C37.7487 17.2056 39.4314 21.2183 39.4314 25.4899C39.4314 29.7615 37.7487 33.7741 34.7715 36.7513C31.7944 39.7284 27.7817 41.4112 23.5101 41.4112C19.2386 41.4112 15.2259 39.7284 12.2487 36.7513C9.27157 33.7741 7.58883 29.7615 7.58883 25.4899C7.58883 21.2183 9.27157 17.2056 12.2487 14.2285C15.2259 11.2513 19.2386 9.56859 23.5101 9.56859Z" fill="black"/>
<path d="M17.6852 25.231C18.4001 25.231 18.9796 24.6515 18.9796 23.9366C18.9796 23.2217 18.4001 22.6422 17.6852 22.6422C16.9703 22.6422 16.3908 23.2217 16.3908 23.9366C16.3908 24.6515 16.9703 25.231 17.6852 25.231Z" fill="black"/>
<path d="M29.3349 25.231C30.0498 25.231 30.6294 24.6515 30.6294 23.9366C30.6294 23.2217 30.0498 22.6422 29.3349 22.6422C28.6201 22.6422 28.0405 23.2217 28.0405 23.9366C28.0405 24.6515 28.6201 25.231 29.3349 25.231Z" fill="black"/>
<path d="M23.5101 35.7158C25.7263 35.7158 27.5228 35.5999 27.5228 35.4569C27.5228 35.3139 25.7263 35.198 23.5101 35.198C21.294 35.198 19.4974 35.3139 19.4974 35.4569C19.4974 35.5999 21.294 35.7158 23.5101 35.7158Z" fill="#040006"/>
<path d="M23.5101 31.3147C24.082 31.3147 24.5457 31.1988 24.5457 31.0559C24.5457 30.9129 24.082 30.797 23.5101 30.797C22.9382 30.797 22.4746 30.9129 22.4746 31.0559C22.4746 31.1988 22.9382 31.3147 23.5101 31.3147Z" fill="#040006"/>
<path d="M14.4492 9.30971C16.6497 -0.268949 39.4314 3.87318 40.2081 15.6523C40.2081 17.4645 43.9619 18.5001 43.9619 22.2539C43.9619 26.0077 41.6319 26.2665 42.2791 29.5026C42.7969 32.0914 42.0202 33.3858 40.7258 36.1041C40.7258 32.0914 37.1015 31.3148 39.1725 24.7132C40.3375 20.9594 32.571 20.1828 23.5101 17.0762C14.4492 13.9696 14.4492 9.30971 14.4492 9.30971Z" fill="black"/>
<path d="M15.3554 11.7691C15.3554 11.7691 11.3427 21.8655 7.58889 23.6777C5.1295 24.8427 9.01274 30.5381 7.58889 33.1269C6.81224 34.5508 0.081284 16.429 15.3554 11.7691Z" fill="black"/>
<path d="M8.0855 27.1676C8.728 27.1338 9.20018 26.1805 9.14015 25.0383C9.08012 23.8961 8.51061 22.9975 7.86812 23.0313C7.22562 23.065 6.75344 24.0184 6.81347 25.1606C6.87349 26.3028 7.443 27.2014 8.0855 27.1676Z" fill="white"/>
</svg>
