<svg width="48" height="48" viewBox="0 0 48 48" fill="none" xmlns="http://www.w3.org/2000/svg">
<path d="M23.6879 6.62411C18.7219 6.62411 14.0172 8.58439 10.4888 12.1129C6.96027 15.6414 5 20.346 5 25.312C5 27.795 5.52274 30.1474 6.43753 32.4997C7.35233 34.7213 8.78986 36.8123 10.4888 38.5112C12.1877 40.2101 14.2786 41.6476 16.5003 42.5624C18.7219 43.4772 21.2049 44 23.6879 44C26.1709 44 28.5233 43.4772 30.8756 42.5624C33.0972 41.6476 35.1882 40.2101 36.8871 38.5112C38.586 36.8123 40.0235 34.7213 40.9383 32.4997C41.8531 30.2781 42.3758 27.795 42.3758 25.312C42.3758 20.346 40.4156 15.6414 36.8871 12.1129C33.3586 8.58439 28.6539 6.62411 23.6879 6.62411ZM23.6879 9.10712C28.0005 9.10712 32.0517 10.9367 35.0575 13.9425C38.0632 16.9482 39.7621 20.9994 39.7621 25.312C39.7621 29.6246 38.0632 33.6759 35.0575 36.6816C32.0517 39.6874 28.0005 41.3863 23.6879 41.3863C19.3753 41.3863 15.3241 39.6874 12.3183 36.6816C9.3126 33.6759 7.6137 29.6246 7.6137 25.312C7.6137 20.9994 9.3126 16.9482 12.3183 13.9425C15.3241 10.9367 19.3753 9.10712 23.6879 9.10712Z" fill="black"/>
<path d="M29.1767 23.0904C30.3528 22.8291 31.529 23.3518 31.529 23.3518C31.529 23.3518 30.6142 24.2666 29.438 24.528C28.2619 24.7893 27.0857 24.6586 27.0857 24.2666C26.955 23.7438 27.8698 23.2211 29.1767 23.0904Z" fill="black"/>
<path d="M23.6879 35.6361C25.9254 35.6361 27.7392 35.5191 27.7392 35.3748C27.7392 35.2304 25.9254 35.1134 23.6879 35.1134C21.4505 35.1134 19.6367 35.2304 19.6367 35.3748C19.6367 35.5191 21.4505 35.6361 23.6879 35.6361Z" fill="#040006"/>
<path d="M23.6879 31.1928C24.2653 31.1928 24.7334 31.0758 24.7334 30.9315C24.7334 30.7871 24.2653 30.6701 23.6879 30.6701C23.1105 30.6701 22.6425 30.7871 22.6425 30.9315C22.6425 31.0758 23.1105 31.1928 23.6879 31.1928Z" fill="#040006"/>
<path d="M19.7674 24.1359C19.6368 24.5279 18.5913 24.6586 17.4151 24.3973C16.239 24.1359 15.3242 23.2211 15.3242 23.2211C15.3242 23.2211 16.5003 22.6983 17.6765 22.9597C18.8526 23.2211 19.8981 23.7438 19.7674 24.1359Z" fill="black"/>
<path d="M15.9775 18.3857C18.2149 18.3857 20.0287 16.572 20.0287 14.3345C20.0287 12.0971 18.2149 10.2833 15.9775 10.2833C13.7401 10.2833 11.9263 12.0971 11.9263 14.3345C11.9263 16.572 13.7401 18.3857 15.9775 18.3857Z" fill="white"/>
<path d="M14.0173 10.6754C14.0173 10.6754 43.9441 15.7721 40.4156 39.8181C50.4783 8.19235 23.2959 2.05017 14.0173 10.6754Z" fill="black"/>
<path d="M14.0173 10.6754C14.0173 10.6754 11.1422 20.7381 7.61371 24.5279C5.65344 33.9372 8.13645 39.8181 8.13645 39.8181C8.13645 39.8181 -1.92628 17.863 14.0173 10.6754Z" fill="black"/>
<path d="M12.9025 10.5828C14.6526 9.57238 15.457 7.68919 14.6992 6.37661C13.9414 5.06403 11.9083 4.81911 10.1582 5.82956C8.40806 6.84002 7.60367 8.7232 8.36151 10.0358C9.11935 11.3484 11.1524 11.5933 12.9025 10.5828Z" fill="black"/>
</svg>
