<svg width="48" height="48" viewBox="0 0 48 48" fill="none" xmlns="http://www.w3.org/2000/svg">
<path d="M23.5965 10.5497C19.152 10.5497 14.9415 12.3041 11.7836 15.462C8.62572 18.6199 6.87134 22.8304 6.87134 27.2749C6.87134 29.4971 7.33917 31.6023 8.15789 33.7076C8.9766 35.6959 10.2632 37.5673 11.7836 39.0877C13.3041 40.6082 15.1754 41.8947 17.1637 42.7135C19.152 43.5322 21.3743 44 23.5965 44C25.8187 44 27.924 43.5322 30.0292 42.7135C32.0175 41.8947 33.8889 40.6082 35.4094 39.0877C36.9298 37.5673 38.2164 35.6959 39.0351 33.7076C39.8538 31.7193 40.3216 29.4971 40.3216 27.2749C40.3216 22.8304 38.5673 18.6199 35.4094 15.462C32.2515 12.3041 28.0409 10.5497 23.5965 10.5497ZM23.5965 12.8889C27.4561 12.8889 31.0819 14.4094 33.7719 17.0994C36.462 19.7895 37.9825 23.4152 37.9825 27.2749C37.9825 31.1345 36.462 34.7602 33.7719 37.4503C31.0819 40.1404 27.4561 41.6608 23.5965 41.6608C19.7368 41.6608 16.1111 40.1404 13.421 37.4503C10.731 34.7602 9.21052 31.1345 9.21052 27.2749C9.21052 23.4152 10.731 19.7895 13.421 17.0994C16.1111 14.4094 19.7368 12.8889 23.5965 12.8889Z" fill="black"/>
<path d="M7.45614 26.2222C8.42506 26.2222 9.21052 25.4368 9.21052 24.4678C9.21052 23.4989 8.42506 22.7135 7.45614 22.7135C6.48722 22.7135 5.70175 23.4989 5.70175 24.4678C5.70175 25.4368 6.48722 26.2222 7.45614 26.2222Z" fill="black"/>
<path d="M6.87136 23.5322C7.84028 23.5322 8.62575 22.7467 8.62575 21.7778C8.62575 20.8089 7.84028 20.0234 6.87136 20.0234C5.90244 20.0234 5.11697 20.8089 5.11697 21.7778C5.11697 22.7467 5.90244 23.5322 6.87136 23.5322Z" fill="black"/>
<path d="M6.75439 20.6082C7.72331 20.6082 8.50877 19.8227 8.50877 18.8538C8.50877 17.8849 7.72331 17.0994 6.75439 17.0994C5.78547 17.0994 5 17.8849 5 18.8538C5 19.8227 5.78547 20.6082 6.75439 20.6082Z" fill="black"/>
<path d="M7.22222 18.152C8.19114 18.152 8.97661 17.3666 8.97661 16.3977C8.97661 15.4287 8.19114 14.6433 7.22222 14.6433C6.2533 14.6433 5.46783 15.4287 5.46783 16.3977C5.46783 17.3666 6.2533 18.152 7.22222 18.152Z" fill="black"/>
<path d="M8.62572 15.5789C9.59464 15.5789 10.3801 14.7935 10.3801 13.8246C10.3801 12.8556 9.59464 12.0702 8.62572 12.0702C7.6568 12.0702 6.87134 12.8556 6.87134 13.8246C6.87134 14.7935 7.6568 15.5789 8.62572 15.5789Z" fill="black"/>
<path d="M39.7369 26.2222C40.7058 26.2222 41.4913 25.4368 41.4913 24.4678C41.4913 23.4989 40.7058 22.7135 39.7369 22.7135C38.7679 22.7135 37.9825 23.4989 37.9825 24.4678C37.9825 25.4368 38.7679 26.2222 39.7369 26.2222Z" fill="black"/>
<path d="M40.3216 23.5322C41.2906 23.5322 42.076 22.7467 42.076 21.7778C42.076 20.8089 41.2906 20.0234 40.3216 20.0234C39.3527 20.0234 38.5673 20.8089 38.5673 21.7778C38.5673 22.7467 39.3527 23.5322 40.3216 23.5322Z" fill="black"/>
<path d="M40.4386 20.6082C41.4075 20.6082 42.193 19.8227 42.193 18.8538C42.193 17.8849 41.4075 17.0994 40.4386 17.0994C39.4697 17.0994 38.6842 17.8849 38.6842 18.8538C38.6842 19.8227 39.4697 20.6082 40.4386 20.6082Z" fill="black"/>
<path d="M39.9708 18.152C40.9397 18.152 41.7252 17.3666 41.7252 16.3977C41.7252 15.4287 40.9397 14.6433 39.9708 14.6433C39.0019 14.6433 38.2164 15.4287 38.2164 16.3977C38.2164 17.3666 39.0019 18.152 39.9708 18.152Z" fill="black"/>
<path d="M38.6842 15.5789C39.6531 15.5789 40.4386 14.7935 40.4386 13.8246C40.4386 12.8556 39.6531 12.0702 38.6842 12.0702C37.7153 12.0702 36.9298 12.8556 36.9298 13.8246C36.9298 14.7935 37.7153 15.5789 38.6842 15.5789Z" fill="black"/>
<path d="M10.1462 12.7719C11.1151 12.7719 11.9006 11.9865 11.9006 11.0175C11.9006 10.0486 11.1151 9.26316 10.1462 9.26316C9.17728 9.26316 8.39182 10.0486 8.39182 11.0175C8.39182 11.9865 9.17728 12.7719 10.1462 12.7719Z" fill="black"/>
<path d="M12.0175 11.2515C12.9865 11.2515 13.7719 10.466 13.7719 9.49707C13.7719 8.52815 12.9865 7.74268 12.0175 7.74268C11.0486 7.74268 10.2632 8.52815 10.2632 9.49707C10.2632 10.466 11.0486 11.2515 12.0175 11.2515Z" fill="black"/>
<path d="M14.3567 9.73099C15.3256 9.73099 16.1111 8.94553 16.1111 7.97661C16.1111 7.00769 15.3256 6.22222 14.3567 6.22222C13.3878 6.22222 12.6023 7.00769 12.6023 7.97661C12.6023 8.94553 13.3878 9.73099 14.3567 9.73099Z" fill="black"/>
<path d="M16.9298 8.67837C17.8988 8.67837 18.6842 7.8929 18.6842 6.92398C18.6842 5.95506 17.8988 5.16959 16.9298 5.16959C15.9609 5.16959 15.1754 5.95506 15.1754 6.92398C15.1754 7.8929 15.9609 8.67837 16.9298 8.67837Z" fill="black"/>
<path d="M19.6199 7.85965C20.5888 7.85965 21.3743 7.07418 21.3743 6.10526C21.3743 5.13634 20.5888 4.35088 19.6199 4.35088C18.651 4.35088 17.8655 5.13634 17.8655 6.10526C17.8655 7.07418 18.651 7.85965 19.6199 7.85965Z" fill="black"/>
<path d="M22.31 7.50877C23.2789 7.50877 24.0643 6.72331 24.0643 5.75439C24.0643 4.78547 23.2789 4 22.31 4C21.341 4 20.5556 4.78547 20.5556 5.75439C20.5556 6.72331 21.341 7.50877 22.31 7.50877Z" fill="black"/>
<path d="M25.117 7.50877C26.0859 7.50877 26.8714 6.72331 26.8714 5.75439C26.8714 4.78547 26.0859 4 25.117 4C24.148 4 23.3626 4.78547 23.3626 5.75439C23.3626 6.72331 24.148 7.50877 25.117 7.50877Z" fill="black"/>
<path d="M27.807 7.85965C28.7759 7.85965 29.5614 7.07418 29.5614 6.10526C29.5614 5.13634 28.7759 4.35088 27.807 4.35088C26.8381 4.35088 26.0526 5.13634 26.0526 6.10526C26.0526 7.07418 26.8381 7.85965 27.807 7.85965Z" fill="black"/>
<path d="M30.4971 8.67837C31.466 8.67837 32.2515 7.8929 32.2515 6.92398C32.2515 5.95506 31.466 5.16959 30.4971 5.16959C29.5282 5.16959 28.7427 5.95506 28.7427 6.92398C28.7427 7.8929 29.5282 8.67837 30.4971 8.67837Z" fill="black"/>
<path d="M33.0702 9.84795C34.0391 9.84795 34.8246 9.06249 34.8246 8.09357C34.8246 7.12465 34.0391 6.33918 33.0702 6.33918C32.1013 6.33918 31.3158 7.12465 31.3158 8.09357C31.3158 9.06249 32.1013 9.84795 33.0702 9.84795Z" fill="black"/>
<path d="M35.4094 11.2515C36.3783 11.2515 37.1637 10.466 37.1637 9.49707C37.1637 8.52815 36.3783 7.74268 35.4094 7.74268C34.4404 7.74268 33.655 8.52815 33.655 9.49707C33.655 10.466 34.4404 11.2515 35.4094 11.2515Z" fill="black"/>
<path d="M37.5146 13.1228C38.4836 13.1228 39.269 12.3373 39.269 11.3684C39.269 10.3995 38.4836 9.61403 37.5146 9.61403C36.5457 9.61403 35.7603 10.3995 35.7603 11.3684C35.7603 12.3373 36.5457 13.1228 37.5146 13.1228Z" fill="black"/>
<path d="M14.2398 15.8129C15.2087 15.8129 15.9942 15.0274 15.9942 14.0585C15.9942 13.0896 15.2087 12.3041 14.2398 12.3041C13.2708 12.3041 12.4854 13.0896 12.4854 14.0585C12.4854 15.0274 13.2708 15.8129 14.2398 15.8129Z" fill="black"/>
<path d="M16.5789 14.4094C17.5479 14.4094 18.3333 13.6239 18.3333 12.655C18.3333 11.6861 17.5479 10.9006 16.5789 10.9006C15.61 10.9006 14.8246 11.6861 14.8246 12.655C14.8246 13.6239 15.61 14.4094 16.5789 14.4094Z" fill="black"/>
<path d="M19.269 13.3567C20.238 13.3567 21.0234 12.5713 21.0234 11.6023C21.0234 10.6334 20.238 9.84795 19.269 9.84795C18.3001 9.84795 17.5146 10.6334 17.5146 11.6023C17.5146 12.5713 18.3001 13.3567 19.269 13.3567Z" fill="black"/>
<path d="M22.076 12.8889C23.045 12.8889 23.8304 12.1034 23.8304 11.1345C23.8304 10.1656 23.045 9.38011 22.076 9.38011C21.1071 9.38011 20.3217 10.1656 20.3217 11.1345C20.3217 12.1034 21.1071 12.8889 22.076 12.8889Z" fill="black"/>
<path d="M24.883 12.8889C25.852 12.8889 26.6374 12.1034 26.6374 11.1345C26.6374 10.1656 25.852 9.38011 24.883 9.38011C23.9141 9.38011 23.1287 10.1656 23.1287 11.1345C23.1287 12.1034 23.9141 12.8889 24.883 12.8889Z" fill="black"/>
<path d="M27.6901 13.3567C28.659 13.3567 29.4444 12.5713 29.4444 11.6023C29.4444 10.6334 28.659 9.84795 27.6901 9.84795C26.7211 9.84795 25.9357 10.6334 25.9357 11.6023C25.9357 12.5713 26.7211 13.3567 27.6901 13.3567Z" fill="black"/>
<path d="M30.3801 14.2924C31.349 14.2924 32.1345 13.5069 32.1345 12.538C32.1345 11.5691 31.349 10.7836 30.3801 10.7836C29.4112 10.7836 28.6257 11.5691 28.6257 12.538C28.6257 13.5069 29.4112 14.2924 30.3801 14.2924Z" fill="black"/>
<path d="M32.8363 15.6959C33.8052 15.6959 34.5907 14.9104 34.5907 13.9415C34.5907 12.9726 33.8052 12.1871 32.8363 12.1871C31.8674 12.1871 31.0819 12.9726 31.0819 13.9415C31.0819 14.9104 31.8674 15.6959 32.8363 15.6959Z" fill="black"/>
<path d="M34.9415 17.4503C35.9104 17.4503 36.6959 16.6648 36.6959 15.6959C36.6959 14.727 35.9104 13.9415 34.9415 13.9415C33.9726 13.9415 33.1871 14.727 33.1871 15.6959C33.1871 16.6648 33.9726 17.4503 34.9415 17.4503Z" fill="black"/>
<path d="M36.8129 19.6725C37.7818 19.6725 38.5673 18.887 38.5673 17.9181C38.5673 16.9492 37.7818 16.1637 36.8129 16.1637C35.844 16.1637 35.0585 16.9492 35.0585 17.9181C35.0585 18.887 35.844 19.6725 36.8129 19.6725Z" fill="black"/>
<path d="M38.2164 22.1287C39.1853 22.1287 39.9707 21.3432 39.9707 20.3743C39.9707 19.4054 39.1853 18.6199 38.2164 18.6199C37.2474 18.6199 36.462 19.4054 36.462 20.3743C36.462 21.3432 37.2474 22.1287 38.2164 22.1287Z" fill="black"/>
<path d="M13.655 18.8538C14.6239 18.8538 15.4093 18.0683 15.4093 17.0994C15.4093 16.1305 14.6239 15.345 13.655 15.345C12.686 15.345 11.9006 16.1305 11.9006 17.0994C11.9006 18.0683 12.686 18.8538 13.655 18.8538Z" fill="black"/>
<path d="M16.8129 20.0234C17.7818 20.0234 18.5673 19.2379 18.5673 18.269C18.5673 17.3001 17.7818 16.5146 16.8129 16.5146C15.844 16.5146 15.0585 17.3001 15.0585 18.269C15.0585 19.2379 15.844 20.0234 16.8129 20.0234Z" fill="black"/>
<path d="M19.9708 20.0234C20.9397 20.0234 21.7252 19.2379 21.7252 18.269C21.7252 17.3001 20.9397 16.5146 19.9708 16.5146C19.0019 16.5146 18.2164 17.3001 18.2164 18.269C18.2164 19.2379 19.0019 20.0234 19.9708 20.0234Z" fill="black"/>
<path d="M23.1287 20.0234C24.0976 20.0234 24.883 19.2379 24.883 18.269C24.883 17.3001 24.0976 16.5146 23.1287 16.5146C22.1597 16.5146 21.3743 17.3001 21.3743 18.269C21.3743 19.2379 22.1597 20.0234 23.1287 20.0234Z" fill="black"/>
<path d="M26.2866 20.0234C27.2555 20.0234 28.0409 19.2379 28.0409 18.269C28.0409 17.3001 27.2555 16.5146 26.2866 16.5146C25.3176 16.5146 24.5322 17.3001 24.5322 18.269C24.5322 19.2379 25.3176 20.0234 26.2866 20.0234Z" fill="black"/>
<path d="M29.4444 20.0234C30.4134 20.0234 31.1988 19.2379 31.1988 18.269C31.1988 17.3001 30.4134 16.5146 29.4444 16.5146C28.4755 16.5146 27.6901 17.3001 27.6901 18.269C27.6901 19.2379 28.4755 20.0234 29.4444 20.0234Z" fill="black"/>
<path d="M32.6023 18.8538C33.5713 18.8538 34.3567 18.0683 34.3567 17.0994C34.3567 16.1305 33.5713 15.345 32.6023 15.345C31.6334 15.345 30.848 16.1305 30.848 17.0994C30.848 18.0683 31.6334 18.8538 32.6023 18.8538Z" fill="black"/>
<path d="M23.5965 18.6199C29.2163 18.6199 33.772 17.2584 33.772 15.5789C33.772 13.8995 29.2163 12.538 23.5965 12.538C17.9768 12.538 13.4211 13.8995 13.4211 15.5789C13.4211 17.2584 17.9768 18.6199 23.5965 18.6199Z" fill="black"/>
<path d="M23.7135 18.269C31.594 18.269 37.9825 15.6508 37.9825 12.4211C37.9825 9.19132 31.594 6.5731 23.7135 6.5731C15.8329 6.5731 9.44446 9.19132 9.44446 12.4211C9.44446 15.6508 15.8329 18.269 23.7135 18.269Z" fill="black"/>
<path d="M12.2979 17.2496C14.098 14.7251 14.7473 12.101 13.748 11.3884C12.7488 10.6758 10.4794 12.1447 8.67919 14.6691C6.87901 17.1936 6.22974 19.8177 7.22901 20.5303C8.22828 21.2429 10.4977 19.774 12.2979 17.2496Z" fill="black"/>
<path d="M39.8601 22.5443C40.9751 22.0314 40.8286 19.3321 39.5328 16.5153C38.2371 13.6984 36.2828 11.8307 35.1678 12.3436C34.0528 12.8565 34.1993 15.5558 35.4951 18.3726C36.7908 21.1895 38.7451 23.0572 39.8601 22.5443Z" fill="black"/>
<path d="M18.4503 26.924C19.0962 26.924 19.6199 26.4003 19.6199 25.7544C19.6199 25.1084 19.0962 24.5848 18.4503 24.5848C17.8043 24.5848 17.2807 25.1084 17.2807 25.7544C17.2807 26.4003 17.8043 26.924 18.4503 26.924Z" fill="black"/>
<path d="M28.9766 26.924C29.6225 26.924 30.1462 26.4003 30.1462 25.7544C30.1462 25.1084 29.6225 24.5848 28.9766 24.5848C28.3307 24.5848 27.807 25.1084 27.807 25.7544C27.807 26.4003 28.3307 26.924 28.9766 26.924Z" fill="black"/>
<path d="M23.7134 36.3977C26.6202 36.3977 28.9766 36.2929 28.9766 36.1637C28.9766 36.0346 26.6202 35.9298 23.7134 35.9298C20.8067 35.9298 18.4503 36.0346 18.4503 36.1637C18.4503 36.2929 20.8067 36.3977 23.7134 36.3977Z" fill="#040006"/>
<path d="M23.7134 37.3333C24.747 37.3333 25.5848 37.2286 25.5848 37.0994C25.5848 36.9702 24.747 36.8655 23.7134 36.8655C22.6799 36.8655 21.8421 36.9702 21.8421 37.0994C21.8421 37.2286 22.6799 37.3333 23.7134 37.3333Z" fill="#040006"/>
<path d="M23.7135 32.3041C24.2302 32.3041 24.6491 32.1994 24.6491 32.0702C24.6491 31.941 24.2302 31.8363 23.7135 31.8363C23.1967 31.8363 22.7778 31.941 22.7778 32.0702C22.7778 32.1994 23.1967 32.3041 23.7135 32.3041Z" fill="#040006"/>
</svg>
