<svg width="48" height="48" viewBox="0 0 48 48" fill="none" xmlns="http://www.w3.org/2000/svg">
<path d="M24.2578 4C19.0172 4 14.0523 6.06867 10.3287 9.79229C6.60511 13.5159 4.53644 18.4807 4.53644 23.7214C4.53644 26.3417 5.08808 28.8241 6.05347 31.3065C7.01885 33.651 8.53587 35.8576 10.3287 37.6504C12.1216 39.4433 14.3282 40.9603 16.6727 41.9257C19.0172 42.8911 21.6375 43.4427 24.2578 43.4427C26.8781 43.4427 29.3605 42.8911 31.8429 41.9257C34.1874 40.9603 36.394 39.4433 38.1869 37.6504C39.9797 35.8576 41.4967 33.651 42.4621 31.3065C43.4275 28.962 43.9792 26.3417 43.9792 23.7214C43.9792 18.4807 41.9105 13.5159 38.1869 9.79229C34.4633 6.06867 29.4984 4 24.2578 4ZM24.2578 6.75823C28.8089 6.75823 33.0841 8.55108 36.2561 11.7231C39.4281 14.895 41.2209 19.1703 41.2209 23.7214C41.2209 28.2724 39.4281 32.5477 36.2561 35.7197C33.0841 38.8916 28.8089 40.6845 24.2578 40.6845C19.7067 40.6845 15.4315 38.8916 12.2595 35.7197C9.08752 32.5477 7.29467 28.2724 7.29467 23.7214C7.29467 19.1703 9.08752 14.895 12.2595 11.7231C15.4315 8.55108 19.7067 6.75823 24.2578 6.75823Z" fill="black"/>
<path d="M18.0518 23.4455C18.8134 23.4455 19.4309 22.8281 19.4309 22.0664C19.4309 21.3048 18.8134 20.6873 18.0518 20.6873C17.2901 20.6873 16.6727 21.3048 16.6727 22.0664C16.6727 22.8281 17.2901 23.4455 18.0518 23.4455Z" fill="black"/>
<path d="M30.4638 23.4455C31.2255 23.4455 31.8429 22.8281 31.8429 22.0664C31.8429 21.3048 31.2255 20.6873 30.4638 20.6873C29.7022 20.6873 29.0847 21.3048 29.0847 22.0664C29.0847 22.8281 29.7022 23.4455 30.4638 23.4455Z" fill="black"/>
<path d="M24.2578 34.6164C26.619 34.6164 28.5331 34.4929 28.5331 34.3406C28.5331 34.1882 26.619 34.0647 24.2578 34.0647C21.8966 34.0647 19.9825 34.1882 19.9825 34.3406C19.9825 34.4929 21.8966 34.6164 24.2578 34.6164Z" fill="#040006"/>
<path d="M24.2578 29.9274C24.8672 29.9274 25.3611 29.8039 25.3611 29.6516C25.3611 29.4992 24.8672 29.3757 24.2578 29.3757C23.6485 29.3757 23.1545 29.4992 23.1545 29.6516C23.1545 29.8039 23.6485 29.9274 24.2578 29.9274Z" fill="#040006"/>
<path d="M16.3968 7.5857C24.3957 22.4802 48.2544 13.2401 36.8077 39.3054C50.7368 24.1351 35.8423 0.414292 16.3968 7.5857Z" fill="black"/>
<path d="M16.8106 8.41317C10.7425 23.7214 6.4672 19.7219 10.7425 34.0647C-0.842116 20.2736 13.087 7.44779 16.8106 8.41317Z" fill="black"/>
<path d="M15.5694 6.06867C15.5694 6.06867 33.7737 0.414296 42.3243 16.1362C45.3583 21.9285 43.4275 27.0312 43.0138 29.5136C42.6001 31.8581 44.5308 33.651 42.8759 37.2367C41.9105 39.4433 43.8413 43.5806 43.8413 43.5806C43.8413 43.5806 41.7726 42.6152 39.9798 42.8911C38.1869 43.1669 37.2215 43.3048 36.2561 42.3394C35.1528 41.374 32.5325 41.7878 32.5325 41.7878L35.7045 38.6158L42.4622 29.6516C42.3243 29.3757 45.772 8.55108 15.5694 6.06867Z" fill="black"/>
<path d="M15.5694 6.06867C15.5694 6.06867 7.43259 9.10273 4.53644 23.7214C4.53644 25.3763 4.95018 26.2038 4.53644 29.3757C4.12271 32.5477 3.57106 34.7543 4.53644 36.6851C5.50182 38.6158 4.81227 43.4427 4.81227 43.4427C4.81227 43.4427 6.32929 42.3394 7.70841 42.3394C9.22544 42.3394 9.63917 42.3394 10.6046 41.2361C11.5699 40.2708 13.5007 40.1328 13.5007 40.1328C13.5007 40.1328 7.98423 31.0307 7.15676 28.6862C6.32929 26.3417 7.15676 23.5834 7.15676 23.5834C7.15676 23.5834 6.60512 10.8956 15.5694 6.06867Z" fill="black"/>
</svg>
