<svg width="48" height="48" viewBox="0 0 48 48" fill="none" xmlns="http://www.w3.org/2000/svg">
<path d="M23.5025 4.99504C18.32 4.99504 13.4103 7.04076 9.728 10.723C6.04571 14.4053 4 19.315 4 24.4975C4 27.0888 4.54552 29.5436 5.50019 31.9985C6.45486 34.317 7.95505 36.4991 9.728 38.272C11.501 40.045 13.6831 41.5452 16.0015 42.4998C18.32 43.4545 20.9112 44 23.5025 44C26.0937 44 28.5486 43.4545 31.0034 42.4998C33.3219 41.5452 35.504 40.045 37.277 38.272C39.0499 36.4991 40.5501 34.317 41.5048 31.9985C42.4594 29.68 43.005 27.0888 43.005 24.4975C43.005 19.315 40.9593 14.4053 37.277 10.723C33.5947 7.04076 28.685 4.99504 23.5025 4.99504ZM23.5025 7.58628C28.0031 7.58628 32.2309 9.49562 35.3676 12.6324C38.5044 15.7691 40.2773 19.997 40.2773 24.4975C40.2773 28.9981 38.5044 33.2259 35.3676 36.3627C32.2309 39.4994 28.0031 41.2724 23.5025 41.2724C19.0019 41.2724 14.7741 39.4994 11.6373 36.3627C8.50057 33.2259 6.72762 28.9981 6.72762 24.4975C6.72762 19.997 8.50057 15.7691 11.6373 12.6324C14.7741 9.49562 19.0019 7.58628 23.5025 7.58628Z" fill="black"/>
<path d="M29.2305 22.179C30.4579 21.9063 31.6854 22.4518 31.6854 22.4518C31.6854 22.4518 30.7307 23.4065 29.5033 23.6792C28.2758 23.952 27.0484 23.8156 27.0484 23.4065C26.912 22.861 27.8667 22.3154 29.2305 22.179Z" fill="black"/>
<path d="M23.5025 35.2716C25.8375 35.2716 27.7303 35.1495 27.7303 34.9989C27.7303 34.8482 25.8375 34.7261 23.5025 34.7261C21.1676 34.7261 19.2747 34.8482 19.2747 34.9989C19.2747 35.1495 21.1676 35.2716 23.5025 35.2716Z" fill="#040006"/>
<path d="M23.5025 30.6347C24.1051 30.6347 24.5935 30.5125 24.5935 30.3619C24.5935 30.2113 24.1051 30.0891 23.5025 30.0891C22.8999 30.0891 22.4114 30.2113 22.4114 30.3619C22.4114 30.5125 22.8999 30.6347 23.5025 30.6347Z" fill="#040006"/>
<path d="M19.4111 23.2701C19.2747 23.6792 18.1836 23.8156 16.9562 23.5429C15.7288 23.2701 14.7741 22.3154 14.7741 22.3154C14.7741 22.3154 16.0015 21.7699 17.229 22.0427C18.4564 22.3154 19.5474 22.861 19.4111 23.2701Z" fill="black"/>
<path d="M14.0922 10.5867C14.0922 10.5867 25.821 20.2697 40.2774 23.6792C45.1871 18.9059 29.6397 -3.59697 14.0922 10.5867Z" fill="black"/>
<path d="M6.72766 26.6796C6.72766 26.6796 6.31852 18.0876 14.0922 10.5867C14.0922 8.40457 3.72728 11.8141 5.90938 24.9067C7.27319 25.1794 6.72766 26.6796 6.72766 26.6796Z" fill="black"/>
<path d="M13.9983 10.0587C15.7991 9.11367 16.7483 7.37432 16.1182 6.17378C15.4882 4.97323 13.5176 4.76611 11.7168 5.71116C9.91597 6.65621 8.96686 8.39555 9.59689 9.59609C10.2269 10.7966 12.1975 11.0038 13.9983 10.0587Z" fill="black"/>
</svg>
