<svg width="48" height="48" viewBox="0 0 48 48" fill="none" xmlns="http://www.w3.org/2000/svg">
<path d="M23.784 22.926C24.6394 22.9262 25.4757 22.6728 26.187 22.1977C26.8984 21.7226 27.4529 21.0473 27.7804 20.257C28.1079 19.4668 28.1938 18.5972 28.0271 17.7582C27.8604 16.9192 27.4487 16.1485 26.8439 15.5435C26.2392 14.9385 25.4687 14.5264 24.6297 14.3593C23.7908 14.1922 22.9212 14.2777 22.1308 14.6049C21.3405 14.932 20.6649 15.4862 20.1894 16.1973C19.714 16.9085 19.4602 17.7446 19.46 18.6C19.4597 19.168 19.5714 19.7305 19.7886 20.2554C20.0058 20.7802 20.3242 21.2571 20.7258 21.6588C21.1273 22.0606 21.6041 22.3793 22.1288 22.5967C22.6536 22.8141 23.216 22.926 23.784 22.926Z" fill="#333333"/>
<path d="M25.513 25.737L30.486 30.494V20.764L25.513 25.737Z" fill="#333333"/>
<path d="M17.514 31.791C17.4983 32.6471 17.6553 33.4976 17.9757 34.2916C18.296 35.0856 18.7732 35.8069 19.3787 36.4124C19.9841 37.0178 20.7054 37.495 21.4994 37.8154C22.2934 38.1357 23.1439 38.2928 24 38.277C25.4219 38.281 26.8057 37.8177 27.9386 36.9584C29.0714 36.0991 29.8906 34.8914 30.27 33.521L17.514 20.764V31.791Z" fill="#333333"/>
<path d="M24 13.277C24.1203 12.882 24.1203 12.4601 24 12.065C23.837 11.516 23.546 11.5 23.447 10.865C23.4688 10.6492 23.571 10.4494 23.7333 10.3055C23.8956 10.1615 24.1061 10.0839 24.323 10.088C24.902 10.102 25.057 10.611 25.255 10.937C25.2642 10.7441 25.2244 10.5521 25.1392 10.3787C25.0541 10.2054 24.9263 10.0566 24.768 9.94602C24.5704 9.82331 24.347 9.74799 24.1154 9.72596C23.8838 9.70392 23.6502 9.73577 23.433 9.81902C23.2498 9.91486 23.0929 10.0542 22.9762 10.2248C22.8594 10.3954 22.7863 10.5921 22.7633 10.7976C22.7403 11.003 22.7681 11.211 22.8442 11.4032C22.9204 11.5954 23.0425 11.766 23.2 11.9C24.114 12.629 24 13.277 24 13.277Z" fill="#333333"/>
</svg>
