<svg width="48" height="48" viewBox="0 0 48 48" fill="none" xmlns="http://www.w3.org/2000/svg">
<path d="M24 19.916C24.8552 19.916 25.6912 19.6624 26.4023 19.1873C27.1134 18.7121 27.6676 18.0368 27.9949 17.2467C28.3221 16.4566 28.4078 15.5872 28.2409 14.7484C28.0741 13.9096 27.6622 13.1392 27.0575 12.5345C26.4528 11.9297 25.6823 11.5179 24.8436 11.3511C24.0048 11.1842 23.1354 11.2699 22.3453 11.5971C21.5552 11.9244 20.8799 12.4786 20.4047 13.1897C19.9296 13.9008 19.676 14.7368 19.676 15.592C19.676 16.7388 20.1316 17.8386 20.9425 18.6495C21.7534 19.4604 22.8532 19.916 24 19.916Z" fill="#333333"/>
<path d="M33.27 26.391L30.25 22.485C30.1009 22.1992 29.8843 21.954 29.6191 21.7707C29.3539 21.5874 29.0481 21.4715 28.728 21.433C28.694 21.433 28.659 21.426 28.628 21.423C28.597 21.42 28.537 21.409 28.489 21.409H19.514C19.466 21.409 19.422 21.419 19.375 21.423C19.328 21.427 19.306 21.428 19.275 21.433C18.9551 21.4716 18.6494 21.5875 18.3843 21.7706C18.1191 21.9537 17.9025 22.1985 17.753 22.484L14.733 26.391C14.5622 26.6012 14.4359 26.8439 14.3617 27.1044C14.2875 27.3648 14.267 27.6377 14.3014 27.9063C14.3358 28.175 14.4244 28.4338 14.5619 28.6672C14.6993 28.9006 14.8827 29.1036 15.101 29.264C15.4774 29.4656 15.8993 29.5671 16.3263 29.5587C16.7532 29.5503 17.1708 29.4323 17.539 29.216C17.5741 29.7164 17.6674 30.2111 17.817 30.69C17.7762 30.7547 17.7388 30.8214 17.705 30.89L16.18 34.379C16.0642 34.6339 16.0024 34.9101 15.9984 35.1901C15.9945 35.4701 16.0485 35.7479 16.157 36.006C16.166 36.029 16.168 36.05 16.177 36.073L17.31 38.962C17.3953 39.2251 17.5354 39.4672 17.7212 39.6721C17.9069 39.8771 18.134 40.0403 18.3875 40.151C18.641 40.2616 18.9151 40.3173 19.1917 40.3142C19.4683 40.3111 19.741 40.2493 19.992 40.133C20.255 40.0477 20.4969 39.9076 20.7018 39.7219C20.9066 39.5362 21.0698 39.3092 21.1805 39.0558C21.2911 38.8025 21.3468 38.5285 21.3438 38.252C21.3408 37.9756 21.2792 37.7029 21.163 37.452L20.285 35.214L20.667 34.338C21.6722 34.9465 22.8249 35.2682 24 35.268C25.1751 35.2682 26.3278 34.9465 27.333 34.338L27.715 35.214L26.837 37.452C26.6368 37.9629 26.6477 38.5325 26.8674 39.0354C27.0871 39.5382 27.4976 39.9332 28.0085 40.1335C28.5194 40.3337 29.089 40.3228 29.5919 40.1031C30.0948 39.8834 30.4898 39.4729 30.69 38.962L31.823 36.073C31.832 36.05 31.834 36.029 31.843 36.006C31.9515 35.7479 32.0055 35.4701 32.0016 35.1901C31.9976 34.9101 31.9358 34.6339 31.82 34.379L30.3 30.893C30.2662 30.8244 30.2288 30.7577 30.188 30.693C30.3381 30.2142 30.4314 29.7195 30.466 29.219C30.8342 29.4353 31.2518 29.5533 31.6787 29.5617C32.1057 29.5701 32.5276 29.4686 32.904 29.267C33.1226 29.1065 33.3062 28.9032 33.4437 28.6695C33.5813 28.4358 33.6699 28.1765 33.7041 27.9075C33.7383 27.6385 33.7175 27.3654 33.6429 27.1046C33.5683 26.8439 33.4414 26.6011 33.27 26.391ZM29.815 30.2C29.4677 29.8829 29.0221 29.6945 28.5526 29.6664C28.0832 29.6382 27.6183 29.7718 27.2355 30.0451C26.8527 30.3183 26.5753 30.7146 26.4494 31.1677C26.3236 31.6209 26.357 32.1035 26.544 32.535L27.131 33.879C26.1907 34.4621 25.1064 34.771 24 34.771C22.8936 34.771 21.8092 34.4621 20.869 33.879L21.456 32.535C21.643 32.1035 21.6764 31.6209 21.5506 31.1677C21.4247 30.7146 21.1473 30.3183 20.7645 30.0451C20.3817 29.7718 19.9168 29.6382 19.4473 29.6664C18.9779 29.6945 18.5323 29.8829 18.185 30.2C18.097 29.8411 18.0424 29.4749 18.022 29.106H29.978C29.9576 29.4749 29.903 29.8411 29.815 30.2Z" fill="#333333"/>
<path d="M26.7 7.69598L24 8.98198L26.7 10.268V7.69598Z" fill="#333333"/>
<path d="M21.3 7.69598V10.268L24 8.98198L21.3 7.69598Z" fill="#333333"/>
</svg>
