<svg width="48" height="48" viewBox="0 0 48 48" fill="none" xmlns="http://www.w3.org/2000/svg">
<path d="M24 18.467C24.8702 18.467 25.7209 18.2089 26.4445 17.7255C27.1681 17.242 27.732 16.5548 28.0651 15.7508C28.3981 14.9468 28.4852 14.0621 28.3155 13.2086C28.1457 12.3551 27.7266 11.5711 27.1113 10.9557C26.4959 10.3404 25.7119 9.92132 24.8584 9.75155C24.0049 9.58177 23.1202 9.66891 22.3162 10.0019C21.5122 10.335 20.825 10.8989 20.3415 11.6225C19.8581 12.3461 19.6 13.1968 19.6 14.067C19.6 15.234 20.0636 16.3531 20.8887 17.1783C21.7139 18.0034 22.833 18.467 24 18.467Z" fill="#333333"/>
<path d="M33.453 27.443L30.262 20.822C30.1303 20.4498 29.8866 20.1275 29.5642 19.8996C29.2419 19.6716 28.8568 19.5491 28.462 19.549H19.57C19.2113 19.5498 18.8601 19.6516 18.5565 19.8425C18.2529 20.0335 18.0091 20.3061 17.853 20.629C17.818 20.687 17.778 20.74 17.748 20.802L14.548 27.443C14.3199 27.9164 14.2892 28.461 14.4627 28.9571C14.6362 29.4531 14.9996 29.8599 15.473 30.088C15.9464 30.3161 16.491 30.3468 16.9871 30.1733C17.4831 29.9998 17.8899 29.6364 18.118 29.163L19.591 26.106V39.918C19.591 40.4434 19.7997 40.9473 20.1712 41.3188C20.5427 41.6903 21.0466 41.899 21.572 41.899C22.0974 41.899 22.6013 41.6903 22.9728 41.3188C23.3443 40.9473 23.553 40.4434 23.553 39.918V33.8H24.453V39.917C24.453 40.4424 24.6617 40.9463 25.0332 41.3178C25.4047 41.6893 25.9086 41.898 26.434 41.898C26.9594 41.898 27.4633 41.6893 27.8348 41.3178C28.2063 40.9463 28.415 40.4424 28.415 39.917V26.106L29.888 29.163C30.0009 29.3974 30.1589 29.6073 30.353 29.7806C30.547 29.954 30.7733 30.0874 31.0189 30.1733C31.2645 30.2592 31.5247 30.2959 31.7844 30.2812C32.0442 30.2666 32.2986 30.2009 32.533 30.088C32.7674 29.9751 32.9773 29.8171 33.1506 29.623C33.324 29.429 33.4574 29.2027 33.5433 28.9571C33.6292 28.7115 33.6659 28.4513 33.6512 28.1916C33.6366 27.9318 33.5709 27.6774 33.458 27.443H33.453Z" fill="#333333"/>
<path d="M25.189 9.316C25.224 9.09735 25.3228 8.8939 25.4729 8.73113C25.6231 8.56836 25.8179 8.45352 26.033 8.401C25.1079 8.40343 24.205 8.68543 23.443 9.21C23.6274 9.18066 23.8134 9.16196 24 9.154C24.4015 9.15866 24.8009 9.21307 25.189 9.316Z" fill="#333333"/>
</svg>
