<svg width="48" height="48" viewBox="0 0 48 48" fill="none" xmlns="http://www.w3.org/2000/svg">
<path d="M28.345 8.93202C28.3743 8.75599 28.3927 8.57832 28.4 8.40002C28.3932 8.23587 28.3769 8.07226 28.351 7.91002L28.209 8.93502L28.345 8.93202Z" fill="#333333"/>
<path d="M24 12.794C24.983 12.7977 25.9384 12.4688 26.7109 11.8608C27.4834 11.2528 28.0276 10.4014 28.255 9.44502H27.618L28.005 6.65102H28.03C27.8289 6.19055 27.5502 5.76807 27.206 5.40202C26.9176 5.35692 26.6237 5.35928 26.336 5.40902C26.3469 5.42394 26.3535 5.44159 26.355 5.46002C26.384 5.55224 26.3914 5.64988 26.3767 5.74542C26.3619 5.84095 26.3254 5.93182 26.27 6.01102C26.083 6.25002 25.67 6.36502 24.904 6.39602C24.782 6.39602 24.663 6.40302 24.546 6.40302C23.2228 6.43131 21.9174 6.09356 20.774 5.42702C20.4407 5.78699 20.1703 6.20041 19.974 6.65002H19.991L20.379 9.44402H19.749C19.9761 10.3999 20.5196 11.251 21.2913 11.8591C22.0629 12.4673 23.0175 12.7967 24 12.794Z" fill="#333333"/>
<path d="M19.65 7.93802C19.6247 8.09097 19.608 8.24521 19.6 8.40002C19.6066 8.57928 19.6243 8.75796 19.653 8.93502H19.783L19.65 7.93802Z" fill="#333333"/>
<path d="M35.045 24.95L30.184 14.994C30.0238 14.6648 29.775 14.3868 29.4655 14.1912C29.156 13.9957 28.7981 13.8903 28.432 13.887V13.876H19.564V13.888C19.2 13.8925 18.8443 13.9977 18.5363 14.1918C18.2283 14.386 17.9801 14.6615 17.819 14.988L12.959 24.944C12.7397 25.4144 12.7139 25.952 12.8871 26.4413C13.0603 26.9305 13.4186 27.3322 13.885 27.5598C14.3513 27.7875 14.8884 27.823 15.3807 27.6586C15.8729 27.4943 16.281 27.1432 16.517 26.681L19.564 20.437V42.02C19.564 42.5449 19.7725 43.0483 20.1436 43.4194C20.5148 43.7905 21.0181 43.999 21.543 43.999C22.0679 43.999 22.5712 43.7905 22.9424 43.4194C23.3135 43.0483 23.522 42.5449 23.522 42.02V30.378H24.476V42.02C24.476 42.5452 24.6846 43.0488 25.0559 43.4201C25.4273 43.7914 25.9309 44 26.456 44C26.9811 44 27.4847 43.7914 27.8561 43.4201C28.2274 43.0488 28.436 42.5452 28.436 42.02V20.428L31.491 26.687C31.6021 26.9254 31.7596 27.1393 31.9543 27.3161C32.149 27.493 32.3769 27.6292 32.6249 27.717C32.8728 27.8048 33.1358 27.8423 33.3983 27.8273C33.6609 27.8123 33.9179 27.7452 34.1543 27.6298C34.3906 27.5144 34.6016 27.3531 34.7749 27.1553C34.9482 26.9574 35.0804 26.727 35.1637 26.4776C35.247 26.2281 35.2797 25.9645 35.2601 25.7023C35.2404 25.44 35.1686 25.1843 35.049 24.95H35.045Z" fill="#333333"/>
<path d="M24.885 5.88802C25.705 5.85502 25.847 5.72502 25.867 5.69902C25.8714 5.65426 25.867 5.60908 25.854 5.56602C25.8254 5.48201 25.8184 5.39213 25.8338 5.30473C25.8492 5.21732 25.8864 5.13521 25.942 5.06602C26.049 4.95002 26.222 4.87802 26.6 4.86602C25.8085 4.27012 24.8361 3.96473 23.846 4.00115C22.8559 4.03757 21.9086 4.41358 21.163 5.06602C22.2994 5.69068 23.5912 5.97598 24.885 5.88802Z" fill="#333333"/>
</svg>
