<svg width="48" height="48" viewBox="0 0 48 48" fill="none" xmlns="http://www.w3.org/2000/svg">
<path d="M24 4C23.1298 4 22.2791 4.25806 21.5555 4.74153C20.8319 5.22501 20.268 5.9122 19.9349 6.71619C19.6019 7.52019 19.5148 8.40488 19.6845 9.2584C19.8543 10.1119 20.2734 10.8959 20.8887 11.5113C21.5041 12.1266 22.2881 12.5457 23.1416 12.7155C23.9951 12.8852 24.8798 12.7981 25.6838 12.4651C26.4878 12.132 27.175 11.5681 27.6585 10.8445C28.1419 10.1209 28.4 9.27024 28.4 8.4C28.4 7.23305 27.9364 6.11389 27.1113 5.28873C26.2861 4.46357 25.167 4 24 4ZM23.563 13.876H19.563V13.888C19.199 13.8927 18.8434 13.998 18.5355 14.1921C18.2275 14.3862 17.9792 14.6616 17.818 14.988L12.958 24.945C12.7387 25.4154 12.7129 25.953 12.8861 26.4422C13.0593 26.9315 13.4176 27.3331 13.884 27.5608C14.3503 27.7885 14.8874 27.824 15.3797 27.6596C15.8719 27.4952 16.28 27.1442 16.516 26.682L19.563 20.437C19.8442 24.8299 18.8788 29.2128 16.778 33.081H19.56V42.02C19.56 42.5449 19.7685 43.0482 20.1396 43.4194C20.5108 43.7905 21.0141 43.999 21.539 43.999C22.0639 43.999 22.5672 43.7905 22.9384 43.4194C23.3095 43.0482 23.518 42.5449 23.518 42.02V33.086H24.472V42.02C24.472 42.5451 24.6806 43.0487 25.0519 43.4201C25.4233 43.7914 25.9269 44 26.452 44C26.9771 44 27.4808 43.7914 27.8521 43.4201C28.2234 43.0487 28.432 42.5451 28.432 42.02V33.086H31.222C29.2183 29.1835 28.2572 24.8294 28.432 20.446L31.487 26.705C31.723 27.1672 32.1311 27.5182 32.6233 27.6826C33.1156 27.847 33.6527 27.8115 34.119 27.5838C34.5854 27.3561 34.9437 26.9545 35.1169 26.4652C35.2901 25.976 35.2643 25.4384 35.045 24.968L30.184 15.015C30.0238 14.6858 29.775 14.4078 29.4655 14.2122C29.156 14.0166 28.7981 13.9113 28.432 13.908V13.9H24.432L23.563 13.876Z" fill="#333333"/>
<path d="M24.233 13.3H23.767C23.846 13.3 23.92 13.322 24 13.322C24.08 13.322 24.154 13.3 24.233 13.3Z" fill="#333333"/>
<path d="M19.141 9.02H19.032L18.424 13.3H23.767C22.6157 13.2446 21.5207 12.7852 20.6746 12.0024C19.8286 11.2196 19.2855 10.1636 19.141 9.02Z" fill="#333333"/>
<path d="M28.968 9.02H28.859C28.7145 10.1636 28.1714 11.2196 27.3254 12.0024C26.4793 12.7852 25.3843 13.2446 24.233 13.3H29.576L28.968 9.02Z" fill="#333333"/>
</svg>
