<svg width="24" height="24" viewBox="0 0 24 24" fill="none" xmlns="http://www.w3.org/2000/svg">
<path d="M4.23401 8.039L5.21201 5.836L9.66701 10.452L4.23401 8.039Z" fill="#333333"/>
<path d="M13.667 9.59201L12.077 10.204L11.465 8.61401L10.487 10.816L12.689 11.795L13.667 9.59201Z" fill="#333333"/>
<path d="M19.748 15.524C19.3687 15.4732 18.9845 15.5722 18.677 15.8C18.4892 15.9355 18.3364 16.1137 18.2313 16.3199C18.1261 16.5262 18.0715 16.7545 18.0721 16.986C18.0727 17.2176 18.1284 17.4456 18.2346 17.6513C18.3409 17.857 18.4946 18.0345 18.683 18.169C18.4599 18.1401 18.2463 18.0606 18.0587 17.9363C17.8711 17.8121 17.7145 17.6466 17.6008 17.4524C17.4871 17.2583 17.4194 17.0407 17.4029 16.8163C17.3864 16.5919 17.4215 16.3667 17.5055 16.158C17.5896 15.9493 17.7203 15.7626 17.8877 15.6123C18.0551 15.4619 18.2547 15.3519 18.4712 15.2907C18.6877 15.2295 18.9153 15.2187 19.1367 15.2592C19.358 15.2996 19.5671 15.3902 19.748 15.524Z" fill="#333333"/>
<path d="M19.7579 16.2227C19.907 16.2761 20.0368 16.3727 20.131 16.5C20.2568 16.6701 20.3101 16.8832 20.2792 17.0926C20.2482 17.3019 20.1356 17.4905 19.966 17.617C19.839 17.7117 19.6868 17.7665 19.5287 17.7746C19.3705 17.7827 19.2135 17.7437 19.0776 17.6625C18.9416 17.5813 18.8328 17.4616 18.7649 17.3185C18.6971 17.1754 18.6732 17.0154 18.6963 16.8588C18.7195 16.7021 18.7886 16.5558 18.8949 16.4385C19.0013 16.3211 19.14 16.238 19.2937 16.1996C19.4473 16.1611 19.6089 16.1692 19.7579 16.2227Z" fill="#333333"/>
<path d="M16.753 16.611C16.7559 16.5017 16.7669 16.3927 16.786 16.285C16.7925 16.2502 16.8013 16.2179 16.8105 16.184C16.8153 16.1663 16.8202 16.1481 16.825 16.129C16.8468 16.0444 16.8739 15.9613 16.906 15.88C16.9187 15.8485 16.9338 15.8175 16.9489 15.7862L16.964 15.755C17.0131 15.6528 17.0707 15.5548 17.136 15.462L17.149 15.444C17.3709 15.112 17.6897 14.8565 18.062 14.712L13.298 12.569C12.9159 12.529 12.5328 12.6336 12.224 12.862C12.1992 12.8803 12.1782 12.9011 12.1575 12.9217C12.1465 12.9326 12.1355 12.9436 12.124 12.954C11.8343 13.2105 11.6511 13.5661 11.6103 13.9508C11.5696 14.3356 11.6744 14.7216 11.904 15.033C11.9781 15.1315 12.0641 15.2205 12.16 15.298L16.892 17.425C16.7994 17.1787 16.7536 16.9172 16.757 16.654C16.7522 16.6428 16.7525 16.6309 16.7528 16.6194L16.753 16.611Z" fill="#333333"/>
<path d="M9.472 10.903C9.26688 10.9666 9.07363 11.0636 8.9 11.19C8.53837 11.46 8.27824 11.8439 8.16159 12.2799C8.04493 12.7159 8.07854 13.1784 8.257 13.593L2.872 11.171C2.51482 11.0104 2.23601 10.7146 2.09687 10.3486C1.95773 9.98255 1.96964 9.57623 2.13 9.21897C2.29074 8.86172 2.58672 8.5829 2.95293 8.44377C3.31913 8.30464 3.72559 8.31658 4.083 8.47697L9.472 10.903Z" fill="#333333"/>
<path d="M11.137 13.941C11.1775 13.5002 11.3616 13.085 11.661 12.759C11.7451 12.666 11.8378 12.5813 11.938 12.506C11.9675 12.4834 11.9994 12.4659 12.0314 12.4483C12.0504 12.4379 12.0694 12.4275 12.088 12.416C12.2138 12.3374 12.348 12.273 12.488 12.224L10.304 11.242C9.90797 11.1919 9.50796 11.2973 9.188 11.536C8.85716 11.7827 8.63725 12.1502 8.57618 12.5583C8.51512 12.9665 8.61785 13.3822 8.862 13.715C8.92298 13.7973 8.99198 13.8733 9.068 13.942L10.739 14.693L11.289 14.941C11.1554 14.6256 11.1021 14.282 11.134 13.941H11.137Z" fill="#333333"/>
<path d="M18.89 14.549L13.461 12.138L22 13.296L21.022 15.496L20.451 15.243C20.2529 15.0257 20.012 14.8518 19.7433 14.7323C19.4746 14.6129 19.184 14.5504 18.89 14.549Z" fill="#333333"/>
</svg>
