<svg width="24" height="24" viewBox="0 0 24 24" fill="none" xmlns="http://www.w3.org/2000/svg">
<path d="M16.716 13.682H7.27299V14.685H16.716V13.682Z" fill="#333333"/>
<path d="M16.716 11.676H7.27299V12.679H16.716V11.676Z" fill="#333333"/>
<path d="M16.716 9.67H7.27299V10.673H16.716V9.67Z" fill="#333333"/>
<path d="M16.716 7.664H7.27299V8.667H16.716V7.664Z" fill="#333333"/>
<path d="M15.004 5.658H8.98599V6.661H15.004V5.658Z" fill="#333333"/>
<path d="M13.959 18.431C14.7896 18.431 15.463 17.7576 15.463 16.927C15.463 16.0964 14.7896 15.423 13.959 15.423C13.1284 15.423 12.455 16.0964 12.455 16.927C12.455 17.7576 13.1284 18.431 13.959 18.431Z" fill="#333333"/>
<path d="M18.394 2.275C18.3068 2.18781 18.2033 2.11864 18.0893 2.07146C17.9754 2.02428 17.8533 1.99999 17.73 2H6.27099C6.02177 2.00026 5.78283 2.09939 5.60661 2.27561C5.43038 2.45184 5.33126 2.69078 5.33099 2.94V17.993C5.33126 18.2422 5.43038 18.4812 5.60661 18.6574C5.78283 18.8336 6.02177 18.9327 6.27099 18.933H12.454V18.584C12.2634 18.4153 12.1028 18.2154 11.979 17.993H6.26999V2.945H17.729V17.988H15.939C15.8191 18.2048 15.6644 18.4004 15.481 18.567V18.928H17.73C17.9792 18.9277 18.2182 18.8286 18.3944 18.6524C18.5706 18.4762 18.6697 18.2372 18.67 17.988V2.94C18.6696 2.69055 18.5703 2.45144 18.394 2.275Z" fill="#333333"/>
<path d="M12.956 18.938V22L13.956 21L14.961 22V18.938C14.651 19.0996 14.3066 19.184 13.957 19.184C13.6074 19.184 13.263 19.0996 12.953 18.938H12.956Z" fill="#333333"/>
</svg>
