<svg width="24" height="24" viewBox="0 0 24 24" fill="none" xmlns="http://www.w3.org/2000/svg">
<path d="M13.397 6.88301V6.49701H16.732V6.88301H13.397Z" fill="#333333"/>
<path d="M13.397 8.815V9.201H19.835V8.815H13.397Z" fill="#333333"/>
<path d="M13.397 13.45V13.837H19.835V13.45H13.397Z" fill="#333333"/>
<path d="M13.397 11.132V11.519H19.835V11.132H13.397Z" fill="#333333"/>
<path fill-rule="evenodd" clip-rule="evenodd" d="M18.5 2.4L21.79 5.693L22 5.9V14.78C22.0003 14.9187 21.9732 15.056 21.9203 15.1842C21.8674 15.3124 21.7897 15.4288 21.6917 15.5269C21.5937 15.625 21.4773 15.7028 21.3491 15.7559C21.221 15.8089 21.0837 15.8361 20.945 15.836H18.045L17.339 16.118C17.3985 16.3395 17.3837 16.5744 17.297 16.7868C17.2103 16.9992 17.0565 17.1773 16.859 17.294L9.42503 21.664C9.18387 21.805 8.89662 21.8446 8.62629 21.7741C8.35596 21.7037 8.12463 21.5288 7.98303 21.288L2.14503 11.343C2.00388 11.1018 1.96409 10.8145 2.03438 10.544C2.10467 10.2735 2.27931 10.042 2.52003 9.9L5.90403 7.909L5.63503 7.232C5.53161 6.97221 5.53556 6.68199 5.646 6.4251C5.75644 6.16822 5.96434 5.96568 6.22403 5.862L11.27 3.852V3.252C11.2692 3.11307 11.2959 2.97536 11.3484 2.84674C11.4009 2.71812 11.4783 2.60113 11.5761 2.50248C11.674 2.40382 11.7903 2.32544 11.9185 2.27182C12.0466 2.2182 12.1841 2.19039 12.323 2.19H18.289L18.5 2.4ZM21.179 6.1L18.09 3.014L18.094 6.1H21.179ZM11.27 4.623L6.49003 6.529C6.44875 6.54522 6.41107 6.56943 6.37916 6.60024C6.34726 6.63105 6.32174 6.66786 6.30409 6.70855C6.28644 6.74925 6.277 6.79302 6.2763 6.83737C6.2756 6.88172 6.28367 6.92578 6.30003 6.967L6.80003 8.216L8.13703 11.585L9.00503 13.764L9.14903 14.127L9.87203 15.942L10.016 16.306L10.564 17.681C10.5802 17.722 10.6044 17.7595 10.6351 17.7911C10.6658 17.8228 10.7025 17.8481 10.743 17.8656C10.7835 17.883 10.827 17.8923 10.8712 17.8929C10.9153 17.8935 10.9591 17.8854 11 17.869L11.527 17.674L16.105 15.848H14.715L14.694 15.813L14.634 15.848H12.64L11.525 16.291L11.382 15.932L11.867 15.739C11.7266 15.6669 11.6039 15.5644 11.508 15.439C11.354 15.2587 11.2696 15.0292 11.27 14.792V13.892L10.67 14.132L10.527 13.773L11.272 13.473V11.394L9.81303 11.976L9.67003 11.616L11.27 10.978V8.9L9.12503 9.752L8.95303 9.82L8.81003 9.461L8.92703 9.415L11.159 8.526L11.27 8.482V4.623ZM9.06103 21.043L16.5 16.674C16.5494 16.6446 16.5903 16.6028 16.6187 16.5529C16.6471 16.5029 16.662 16.4465 16.662 16.389L11.274 18.537C11.0942 18.6077 10.8982 18.6271 10.708 18.593L9.34303 19.393L9.14303 19.06L10.259 18.405C10.0984 18.2894 9.97387 18.1306 9.90003 17.947L9.40503 16.673L8.17703 17.394L7.97703 17.061L9.25703 16.31L8.53403 14.495L7.00003 15.395L6.80003 15.062L8.38603 14.131L7.66303 12.316L5.82203 13.397L5.62203 13.063L7.51303 11.953L6.17203 8.584L2.88403 10.516C2.84577 10.5384 2.8123 10.5681 2.78555 10.6035C2.7588 10.6389 2.73929 10.6792 2.72814 10.7221C2.71699 10.765 2.71442 10.8097 2.72058 10.8536C2.72674 10.8975 2.74151 10.9398 2.76403 10.978L8.60203 20.923C8.62425 20.9611 8.65375 20.9944 8.68886 21.021C8.72397 21.0477 8.76399 21.0671 8.80663 21.0783C8.84927 21.0894 8.89369 21.092 8.93734 21.086C8.981 21.0799 9.02303 21.0653 9.06103 21.043ZM21.1883 15.0169C21.2513 14.9541 21.2868 14.8689 21.287 14.78L21.283 6.693H17.499V2.914H12.325C12.2807 2.914 12.2368 2.92275 12.1958 2.93975C12.1549 2.95675 12.1177 2.98166 12.0864 3.01306C12.0551 3.04446 12.0303 3.08173 12.0134 3.12273C11.9965 3.16373 11.9879 3.20766 11.988 3.252V14.78C11.992 14.8678 12.0287 14.9509 12.0909 15.0129C12.1531 15.0749 12.2363 15.1113 12.324 15.115H20.951C21.04 15.115 21.1253 15.0797 21.1883 15.0169Z" fill="#333333"/>
</svg>
