<svg width="24" height="24" viewBox="0 0 24 24" fill="none" xmlns="http://www.w3.org/2000/svg">
<path d="M10.82 10.05L10.263 10.607L12.471 12.816L10.263 15.024L10.82 15.581L13.028 13.373L15.236 15.581L15.793 15.024L13.585 12.816L15.793 10.607L15.236 10.05L13.028 12.259L10.82 10.05Z" fill="#333333"/>
<path fill-rule="evenodd" clip-rule="evenodd" d="M15.213 2H7.27602C7.09782 2.00026 6.92141 2.03562 6.75687 2.10406C6.59233 2.1725 6.44289 2.27268 6.31706 2.39887C6.19124 2.52506 6.0915 2.67481 6.02355 2.83955C5.9556 3.00429 5.92076 3.1808 5.92102 3.359V18.749C5.92208 19.1073 6.06503 19.4506 6.3186 19.7038C6.57216 19.957 6.91569 20.0995 7.27402 20.1H18.783C19.1414 20.0989 19.4849 19.956 19.7382 19.7025C19.9916 19.449 20.1342 19.1054 20.135 18.747V6.919L15.213 2ZM15.209 3.276L18.75 6.814H15.209V3.276ZM19.23 19.2H6.82602V2.905H14.458V7.565H19.23V19.2Z" fill="#333333"/>
<path d="M4.9 21.093H5.336V21.1H18.117C18.0254 21.3618 17.855 21.5888 17.6292 21.75C17.4035 21.9111 17.1334 21.9985 16.856 22H5.348C5.1945 21.9961 5.04288 21.9653 4.9 21.909C4.64237 21.8107 4.41952 21.6384 4.25941 21.4139C4.0993 21.1894 4.00905 20.9226 4 20.647V5.25701C4.00039 4.9779 4.08709 4.70575 4.24822 4.47785C4.40934 4.24995 4.637 4.07746 4.9 3.98401V21.093Z" fill="#333333"/>
</svg>
