<svg width="24" height="24" viewBox="0 0 24 24" fill="none" xmlns="http://www.w3.org/2000/svg">
<path d="M9.51306 11.115H16.4861V12.115H9.51306V11.115Z" fill="#333333"/>
<path d="M9.51306 13.115H16.4861V14.115H9.51306V13.115Z" fill="#333333"/>
<path d="M9.51306 15.115H16.4861V16.115H9.51306V15.115Z" fill="#333333"/>
<path d="M8.51306 17.152H7.51306V18.152H8.51306V17.152Z" fill="#333333"/>
<path d="M16.4861 17.152H9.51306V18.152H16.4861V17.152Z" fill="#333333"/>
<path d="M8.51306 15.115H7.51306V16.115H8.51306V15.115Z" fill="#333333"/>
<path d="M8.51306 13.115H7.51306V14.115H8.51306V13.115Z" fill="#333333"/>
<path d="M8.51306 11.115H7.51306V12.115H8.51306V11.115Z" fill="#333333"/>
<path fill-rule="evenodd" clip-rule="evenodd" d="M14.707 2.291L19.854 7.434V20.5C19.854 20.897 19.6967 21.2777 19.4165 21.5589C19.1362 21.8401 18.756 21.9987 18.359 22H5.64204C5.24577 21.9995 4.86581 21.8422 4.58514 21.5624C4.30447 21.2827 4.14589 20.9033 4.14404 20.507V3.5C4.14404 3.10218 4.30208 2.72064 4.58338 2.43934C4.86469 2.15804 5.24622 2 5.64404 2H14.414L14.707 2.291ZM18.3 7.293L14.5 3.493V7.293H18.3ZM18.7076 20.8486C18.8002 20.756 18.8527 20.6309 18.854 20.5L18.859 8.293H13.5V3H5.64204C5.50943 3 5.38226 3.05268 5.28849 3.14645C5.19472 3.24021 5.14204 3.36739 5.14204 3.5V20.505C5.14336 20.6367 5.19662 20.7626 5.29025 20.8553C5.38387 20.948 5.5103 21 5.64204 21L18.359 20.995C18.4899 20.9937 18.6151 20.9411 18.7076 20.8486Z" fill="#333333"/>
</svg>
