<svg width="24" height="24" viewBox="0 0 24 24" fill="none" xmlns="http://www.w3.org/2000/svg">
<path d="M3.40001 20.965L17.049 20.959V20.273L18.084 19.238V20.959C18.0837 21.2334 17.9746 21.4965 17.7806 21.6906C17.5865 21.8846 17.3234 21.9937 17.049 21.994L3.40001 22C3.12542 22 2.86206 21.891 2.6678 21.6969C2.47355 21.5028 2.36428 21.2396 2.36401 20.965V3.041C2.36428 2.76641 2.47355 2.50316 2.6678 2.30908C2.86206 2.11501 3.12542 2.006 3.40001 2.006L17.049 2C17.3236 2 17.587 2.10901 17.7812 2.30308C17.9755 2.49716 18.0847 2.76041 18.085 3.035V13.685L17.05 14.72V3.035L3.40001 3.041V20.965Z" fill="#333333"/>
<path d="M9.271 5.03802H16.011V5.53702H9.271V5.03802Z" fill="#333333"/>
<path d="M9.271 6.534H16.011V7.033H9.271V6.534Z" fill="#333333"/>
<path d="M16.011 10.032H9.271V10.531H16.011V10.032Z" fill="#333333"/>
<path d="M9.271 11.528H16.011V12.027H9.271V11.528Z" fill="#333333"/>
<path d="M16.011 14.978H9.271V15.477H16.011V14.978Z" fill="#333333"/>
<path d="M15.1267 18.0852C15.1362 18.0628 15.1503 18.0426 15.168 18.026L19.12 14.073L20.477 15.43L16.521 19.382C16.5049 19.3996 16.4853 19.4136 16.4634 19.4231C16.4415 19.4326 16.4179 19.4373 16.394 19.437H15.294C15.2702 19.4371 15.2466 19.4325 15.2246 19.4235C15.2026 19.4144 15.1826 19.4011 15.1657 19.3843C15.1489 19.3674 15.1356 19.3474 15.1265 19.3254C15.1175 19.3034 15.1129 19.2798 15.113 19.256V18.156C15.1126 18.1317 15.1173 18.1076 15.1267 18.0852Z" fill="#333333"/>
<path d="M21.53 13.87L20.682 13.022C20.6141 12.9544 20.5223 12.9164 20.4265 12.9164C20.3307 12.9164 20.2388 12.9544 20.171 13.022L19.508 13.685L20.867 15.044L21.53 14.381C21.5976 14.3131 21.6356 14.2213 21.6356 14.1255C21.6356 14.0297 21.5976 13.9378 21.53 13.87Z" fill="#333333"/>
<path fill-rule="evenodd" clip-rule="evenodd" d="M8.38902 10.032H4.40002V14.022H8.39002L8.38902 10.032ZM7.88902 13.523H4.90002V10.531H7.89102L7.88902 13.523Z" fill="#333333"/>
<path fill-rule="evenodd" clip-rule="evenodd" d="M4.40002 5.03802H8.38902L8.39002 9.02802H4.40002V5.03802ZM4.90002 5.90802V8.52903H7.51902L4.90002 5.90802ZM5.23202 5.53702L7.89102 8.20002V5.53702H5.23202Z" fill="#333333"/>
<path fill-rule="evenodd" clip-rule="evenodd" d="M4.40002 19.017H8.39002V15.026H4.40002V19.017ZM7.89202 15.525V18.184L5.23202 15.525H7.89202ZM4.90002 15.9L7.52102 18.521H4.90002V15.9Z" fill="#333333"/>
<path d="M14.849 16.973H9.271V16.475H15.348L14.849 16.973Z" fill="#333333"/>
</svg>
