<svg width="24" height="24" viewBox="0 0 24 24" fill="none" xmlns="http://www.w3.org/2000/svg">
<path d="M17.5391 19.08L5.23907 19.086V2.938L17.5391 2.932V13.46L18.4711 12.527V2.932C18.4711 2.68482 18.3729 2.44776 18.1981 2.27298C18.0233 2.09819 17.7862 2 17.5391 2L5.23907 2.006C4.99189 2.006 4.75483 2.10419 4.58004 2.27898C4.40526 2.45376 4.30707 2.69082 4.30707 2.938V19.086C4.30707 19.3332 4.40526 19.5702 4.58004 19.745C4.75483 19.9198 4.99189 20.018 5.23907 20.018H17.5391C17.7863 20.0177 18.0234 19.9193 18.1982 19.7444C18.3729 19.5694 18.4711 19.3323 18.4711 19.085V17.53L17.5391 18.462V19.08Z" fill="#333333"/>
<path d="M16.604 4.737H10.532V5.186H16.604V4.737Z" fill="#333333"/>
<path d="M16.604 6.08502H10.532V6.53402H16.604V6.08502Z" fill="#333333"/>
<path d="M10.532 9.23602H16.604V9.68502H10.532V9.23602Z" fill="#333333"/>
<path d="M16.604 10.584H10.532V11.033H16.604V10.584Z" fill="#333333"/>
<path d="M10.532 13.692H16.604V14.141H10.532V13.692Z" fill="#333333"/>
<path d="M15.844 16.438C15.8285 16.4532 15.8161 16.4714 15.8077 16.4915C15.7993 16.5116 15.795 16.5332 15.795 16.555V17.548C15.7949 17.5695 15.7991 17.5908 15.8073 17.6107C15.8155 17.6306 15.8276 17.6487 15.8428 17.6639C15.8581 17.6791 15.8763 17.691 15.8962 17.6991C15.9162 17.7072 15.9375 17.7112 15.959 17.711H16.951C16.9724 17.7114 16.9937 17.7072 17.0133 17.6987C17.033 17.6903 17.0506 17.6778 17.065 17.662L20.63 14.1L19.406 12.876L15.844 16.438Z" fill="#333333"/>
<path d="M20.812 11.93L21.576 12.694C21.6062 12.7242 21.6302 12.76 21.6466 12.7995C21.663 12.8389 21.6714 12.8813 21.6714 12.924C21.6714 12.9667 21.663 13.009 21.6466 13.0485C21.6302 13.0879 21.6062 13.1238 21.576 13.154L20.976 13.754L19.752 12.53L20.352 11.93C20.3822 11.8997 20.4181 11.8758 20.4575 11.8594C20.497 11.843 20.5393 11.8346 20.582 11.8346C20.6247 11.8346 20.667 11.843 20.7065 11.8594C20.746 11.8758 20.7818 11.8997 20.812 11.93Z" fill="#333333"/>
<path fill-rule="evenodd" clip-rule="evenodd" d="M6.14307 9.23602H9.73807L9.74307 12.831H6.14307V9.23602ZM6.58807 12.382H9.28807V9.68202H6.58807V12.382Z" fill="#333333"/>
<path fill-rule="evenodd" clip-rule="evenodd" d="M9.73807 4.737H6.14307V8.337H9.74307L9.73807 4.737ZM6.59207 7.882V5.521L8.95407 7.882H6.59207ZM9.29207 7.582L6.89207 5.182H9.29207V7.582Z" fill="#333333"/>
<path fill-rule="evenodd" clip-rule="evenodd" d="M9.74307 17.331H6.14307V13.736H9.74307V17.331ZM9.28807 16.58V14.185H6.88807L9.28807 16.58ZM8.95007 16.881L6.58807 14.52L6.59207 16.881H8.95007Z" fill="#333333"/>
<path d="M10.532 15.49H15.557L16.007 15.04H10.532V15.49Z" fill="#333333"/>
<path d="M3.26104 3.987V21.062H16.493C16.493 21.3092 16.3948 21.5462 16.2201 21.721C16.0453 21.8958 15.8082 21.994 15.561 21.994L3.26104 22C3.01402 21.9995 2.77727 21.9011 2.6026 21.7264C2.42793 21.5518 2.32957 21.315 2.32904 21.068V4.92C2.32904 4.67273 2.4272 4.43556 2.60196 4.26062C2.77671 4.08568 3.01377 3.98726 3.26104 3.987Z" fill="#333333"/>
</svg>
