<svg width="24" height="24" viewBox="0 0 24 24" fill="none" xmlns="http://www.w3.org/2000/svg">
<path d="M12.355 6.75097L11.323 6.13897V4.93497H10.979V6.31097L12.183 7.03297L12.355 6.75097Z" fill="#333333"/>
<path fill-rule="evenodd" clip-rule="evenodd" d="M12.4808 7.89203C12.1033 8.14362 11.6597 8.2776 11.206 8.27701C10.5985 8.27595 10.0162 8.03393 9.58685 7.60405C9.15754 7.17418 8.91628 6.59155 8.91602 5.98401C8.91602 5.53037 9.05057 5.08692 9.30266 4.70977C9.55476 4.33263 9.91305 4.03873 10.3322 3.86527C10.7514 3.6918 11.2126 3.64657 11.6575 3.73529C12.1023 3.82401 12.5109 4.04269 12.8315 4.36368C13.152 4.68466 13.3702 5.09351 13.4583 5.53851C13.5465 5.9835 13.5006 6.44464 13.3266 6.86358C13.1526 7.28252 12.8582 7.64043 12.4808 7.89203ZM12.2255 4.45812C11.9236 4.25684 11.5688 4.14961 11.206 4.15001C10.9661 4.15027 10.7286 4.1976 10.5069 4.28933C10.2842 4.38143 10.0819 4.51651 9.91154 4.68682C9.74113 4.85714 9.60595 5.05936 9.51372 5.28194C9.42149 5.50451 9.37401 5.74308 9.37401 5.98401C9.37401 6.34682 9.48163 6.70149 9.68324 7.00313C9.88485 7.30477 10.1714 7.53984 10.5066 7.67859C10.8419 7.81735 11.2107 7.85355 11.5665 7.78262C11.9224 7.71169 12.2491 7.53682 12.5056 7.28013C12.762 7.02344 12.9365 6.69647 13.007 6.34058C13.0776 5.98468 13.041 5.61586 12.9018 5.28078C12.7627 4.9457 12.5273 4.6594 12.2255 4.45812Z" fill="#333333"/>
<path fill-rule="evenodd" clip-rule="evenodd" d="M5.29999 2.00998H17.114V10.048H5.29999V2.00998ZM5.79999 9.55098H16.614L16.616 2.50698H5.79999V9.55098Z" fill="#333333"/>
<path d="M5.34501 14.787C5.51811 14.7872 5.68738 14.736 5.8314 14.64C5.97543 14.544 6.08774 14.4074 6.15412 14.2475C6.2205 14.0876 6.23797 13.9117 6.20432 13.7419C6.17067 13.5721 6.08741 13.4161 5.96508 13.2936C5.84275 13.1711 5.68684 13.0877 5.51708 13.0538C5.34732 13.02 5.17134 13.0373 5.01139 13.1035C4.85145 13.1697 4.71473 13.2818 4.61854 13.4257C4.52235 13.5696 4.47101 13.7389 4.47101 13.912C4.47101 14.1438 4.56306 14.3663 4.72694 14.5303C4.89081 14.6944 5.11312 14.7867 5.34501 14.787Z" fill="#333333"/>
<path d="M5.34501 15.224C4.76101 15.224 3.59601 15.517 3.59601 16.099V16.536H7.10001V16.1C7.10001 15.517 5.92901 15.224 5.34501 15.224Z" fill="#333333"/>
<path d="M11.208 15.225C11.792 15.225 12.958 15.518 12.958 16.1L12.959 16.537H9.45898V16.1C9.45898 15.518 10.624 15.225 11.208 15.225Z" fill="#333333"/>
<path d="M12.083 13.912C12.083 13.7389 12.0317 13.5697 11.9355 13.4258C11.8394 13.2819 11.7027 13.1698 11.5429 13.1036C11.383 13.0373 11.207 13.02 11.0373 13.0538C10.8676 13.0875 10.7117 13.1709 10.5893 13.2932C10.4669 13.4156 10.3836 13.5715 10.3498 13.7413C10.3161 13.911 10.3334 14.0869 10.3996 14.2468C10.4658 14.4067 10.578 14.5433 10.7219 14.6395C10.8658 14.7356 11.035 14.787 11.208 14.787C11.4401 14.787 11.6626 14.6948 11.8267 14.5307C11.9908 14.3666 12.083 14.144 12.083 13.912Z" fill="#333333"/>
<path d="M16.3475 14.3982C16.2514 14.2543 16.2 14.0851 16.2 13.912C16.1999 13.7971 16.2224 13.6833 16.2663 13.5772C16.3101 13.471 16.3745 13.3746 16.4556 13.2933C16.5368 13.212 16.6332 13.1476 16.7393 13.1036C16.8454 13.0596 16.9592 13.037 17.074 13.037C17.2471 13.0368 17.4164 13.0879 17.5604 13.1839C17.7044 13.28 17.8167 13.4165 17.8831 13.5764C17.9495 13.7363 17.967 13.9122 17.9333 14.082C17.8997 14.2518 17.8164 14.4079 17.6941 14.5303C17.5718 14.6528 17.4158 14.7362 17.2461 14.7701C17.0763 14.8039 16.9003 14.7866 16.7404 14.7204C16.5805 14.6543 16.4437 14.5421 16.3475 14.3982Z" fill="#333333"/>
<path d="M18.821 16.1C18.821 15.518 17.655 15.225 17.071 15.225C16.487 15.225 15.322 15.518 15.322 16.1V16.537H18.822L18.821 16.1Z" fill="#333333"/>
<path d="M10.3152 19.3643C10.197 19.1875 10.134 18.9796 10.134 18.767C10.1338 18.6259 10.1615 18.4861 10.2154 18.3557C10.2694 18.2253 10.3484 18.1067 10.4482 18.0069C10.5479 17.9071 10.6664 17.8279 10.7967 17.7738C10.9271 17.7198 11.0668 17.692 11.208 17.692C11.4206 17.6918 11.6286 17.7547 11.8055 17.8727C11.9824 17.9907 12.1203 18.1585 12.2019 18.3549C12.2834 18.5513 12.3048 18.7675 12.2634 18.9761C12.2221 19.1847 12.1198 19.3763 11.9695 19.5268C11.8192 19.6772 11.6276 19.7797 11.4191 19.8213C11.2105 19.8628 10.9943 19.8416 10.7978 19.7603C10.6013 19.6789 10.4334 19.5411 10.3152 19.3643Z" fill="#333333"/>
<path d="M11.208 20.378C10.491 20.378 9.05902 20.738 9.05902 21.453V21.99H13.359V21.453C13.357 20.738 11.926 20.378 11.208 20.378Z" fill="#333333"/>
<path d="M2 21.453C2 20.738 3.432 20.378 4.149 20.378C4.866 20.378 6.3 20.738 6.3 21.453V21.99H2V21.453Z" fill="#333333"/>
<path d="M4.14901 19.841C4.74217 19.841 5.22301 19.3601 5.22301 18.767C5.22301 18.1738 4.74217 17.693 4.14901 17.693C3.55586 17.693 3.07501 18.1738 3.07501 18.767C3.07501 19.3601 3.55586 19.841 4.14901 19.841Z" fill="#333333"/>
<path d="M19.342 18.767C19.342 19.3601 18.8611 19.841 18.268 19.841C17.6748 19.841 17.194 19.3601 17.194 18.767C17.194 18.1738 17.6748 17.693 18.268 17.693C18.8611 17.693 19.342 18.1738 19.342 18.767Z" fill="#333333"/>
<path d="M18.268 20.378C17.551 20.378 16.119 20.738 16.119 21.453V21.99H20.419V21.453C20.417 20.738 18.985 20.378 18.268 20.378Z" fill="#333333"/>
<path d="M21.572 7.90999C21.572 7.40999 20.572 7.15799 20.072 7.15799C19.572 7.15799 18.572 7.40999 18.572 7.90999V8.28599H21.58L21.572 7.90999Z" fill="#333333"/>
<path d="M20.4858 6.65525C20.3621 6.73788 20.2167 6.78198 20.068 6.78198C19.8685 6.78198 19.6773 6.70276 19.5362 6.56173C19.3952 6.4207 19.316 6.22943 19.316 6.02998C19.316 5.88125 19.3601 5.73586 19.4427 5.6122C19.5253 5.48853 19.6428 5.39214 19.7802 5.33523C19.9176 5.27831 20.0688 5.26342 20.2147 5.29243C20.3606 5.32145 20.4946 5.39307 20.5997 5.49824C20.7049 5.60341 20.7765 5.7374 20.8055 5.88328C20.8345 6.02915 20.8197 6.18035 20.7627 6.31776C20.7058 6.45517 20.6094 6.57262 20.4858 6.65525Z" fill="#333333"/>
<path d="M22 8.535H18.135V9.033H22V8.535Z" fill="#333333"/>
<path d="M18.302 9.28098H21.834V12.051H18.302V9.28098Z" fill="#333333"/>
</svg>
