<svg width="24" height="24" viewBox="0 0 24 24" fill="none" xmlns="http://www.w3.org/2000/svg">
<path d="M11.167 10.327H12.833C13.1272 10.3259 13.4091 10.2085 13.6171 10.0004C13.825 9.79222 13.9422 9.51024 13.943 9.216V6.163H13.11V2H10.89V6.163H10.057V9.216C10.0578 9.51024 10.175 9.79222 10.3829 10.0004C10.5909 10.2085 10.8728 10.3259 11.167 10.327Z" fill="#333333"/>
<path d="M17.837 10.89V10.057H14.784C14.4897 10.0578 14.2078 10.175 13.9996 10.3829C13.7915 10.5909 13.674 10.8728 13.673 11.167V12.833C13.674 13.1272 13.7915 13.4091 13.9996 13.6171C14.2078 13.825 14.4897 13.9422 14.784 13.943H17.837V13.11H22V10.89H17.837Z" fill="#333333"/>
<path d="M12.833 13.673H11.167C10.8728 13.674 10.5909 13.7915 10.3829 13.9996C10.175 14.2078 10.0578 14.4897 10.057 14.784V17.837H10.89V22H13.11V17.837H13.943V14.784C13.9422 14.4897 13.825 14.2078 13.6171 13.9996C13.4091 13.7915 13.1272 13.674 12.833 13.673Z" fill="#333333"/>
<path d="M12.1115 10.8941C12.3671 10.9182 12.6066 11.0302 12.789 11.211C12.8937 11.3139 12.9768 11.4367 13.0333 11.5722C13.0898 11.7077 13.1186 11.8532 13.118 12C13.118 12.2568 13.0291 12.5057 12.8663 12.7044C12.7035 12.903 12.4769 13.0391 12.2251 13.0895C11.9733 13.14 11.7118 13.1016 11.485 12.9809C11.2583 12.8603 11.0804 12.6648 10.9816 12.4277C10.8827 12.1907 10.8691 11.9267 10.9429 11.6808C11.0167 11.4348 11.1735 11.222 11.3866 11.0785C11.5996 10.9351 11.8558 10.8699 12.1115 10.8941Z" fill="#333333"/>
<path d="M10.0004 10.3829C10.2085 10.5909 10.3259 10.8728 10.327 11.167V12.833C10.3259 13.1272 10.2085 13.4091 10.0004 13.6171C9.79222 13.825 9.51024 13.9422 9.216 13.943H6.163V13.11H2V10.89H6.163V10.057H9.216C9.51024 10.0578 9.79222 10.175 10.0004 10.3829Z" fill="#333333"/>
</svg>
