<svg width="24" height="24" viewBox="0 0 24 24" fill="none" xmlns="http://www.w3.org/2000/svg">
<path d="M13.739 5.04302C13.739 6.00344 12.9604 6.78202 12 6.78202C11.0396 6.78202 10.261 6.00344 10.261 5.04302C10.261 4.08259 11.0396 3.30402 12 3.30402C12.9604 3.30402 13.739 4.08259 13.739 5.04302Z" fill="#333333"/>
<path d="M10.7 7.65201H13.3C13.76 7.65464 14.2004 7.83883 14.5253 8.1645C14.8502 8.49017 15.0334 8.93097 15.035 9.39101V14.174H13.735V20.7H10.257V14.174H8.95697V9.39101C8.95829 8.92951 9.14248 8.48735 9.46919 8.1614C9.79589 7.83544 10.2385 7.65227 10.7 7.65201Z" fill="#333333"/>
<path d="M20.261 7.65201H17.652C17.1913 7.65359 16.7499 7.83731 16.4241 8.1631C16.0983 8.48888 15.9146 8.93028 15.913 9.39101V14.174H17.213V20.7H20.7V14.174H22V9.39101C21.9984 8.93028 21.8147 8.48888 21.4889 8.1631C21.1632 7.83731 20.7217 7.65359 20.261 7.65201Z" fill="#333333"/>
<path d="M20.696 5.04302C20.696 6.00344 19.9174 6.78202 18.957 6.78202C17.9966 6.78202 17.218 6.00344 17.218 5.04302C17.218 4.08259 17.9966 3.30402 18.957 3.30402C19.9174 3.30402 20.696 4.08259 20.696 5.04302Z" fill="#333333"/>
<path d="M6.348 7.65201H3.739C3.27828 7.65359 2.83687 7.83731 2.51109 8.1631C2.1853 8.48888 2.00158 8.93028 2 9.39101V14.174H3.3V20.7H6.783V14.174H8.083V9.39101C8.08143 8.93097 7.89825 8.49017 7.57333 8.1645C7.24841 7.83883 6.80803 7.65464 6.348 7.65201Z" fill="#333333"/>
<path d="M6.78299 5.04302C6.78299 6.00344 6.00442 6.78202 5.04399 6.78202C4.08357 6.78202 3.30499 6.00344 3.30499 5.04302C3.30499 4.08259 4.08357 3.30402 5.04399 3.30402C6.00442 3.30402 6.78299 4.08259 6.78299 5.04302Z" fill="#333333"/>
</svg>
