<svg width="24" height="24" viewBox="0 0 24 24" fill="none" xmlns="http://www.w3.org/2000/svg">
<path d="M12.767 7.62985C12.54 7.78141 12.273 7.86221 12 7.86201C11.8187 7.86267 11.6391 7.82745 11.4715 7.75839C11.3039 7.68932 11.1516 7.58777 11.0234 7.45958C10.8952 7.3314 10.7937 7.17912 10.7246 7.01151C10.6555 6.8439 10.6203 6.66429 10.621 6.48301C10.6208 6.20999 10.7016 5.94304 10.8531 5.71595C11.0047 5.48885 11.2202 5.31182 11.4724 5.20725C11.7246 5.10267 12.0022 5.07526 12.27 5.12848C12.5377 5.18169 12.7837 5.31315 12.9768 5.5062C13.1698 5.69926 13.3013 5.94524 13.3545 6.21303C13.4077 6.48082 13.3803 6.75837 13.2757 7.01057C13.1712 7.26278 12.9941 7.47829 12.767 7.62985Z" fill="#333333"/>
<path d="M10.965 8.55202H13.034C13.3996 8.55281 13.75 8.69832 14.0086 8.95673C14.2672 9.21515 14.4129 9.56544 14.414 9.93102V13.724H13.379V18.9H10.621V13.724H9.586V9.93102C9.58705 9.56561 9.73268 9.21547 9.99106 8.95709C10.2494 8.6987 10.5996 8.55308 10.965 8.55202Z" fill="#333333"/>
<path d="M17.911 9.53701H16.433C16.172 9.5378 15.9219 9.64183 15.7374 9.82638C15.5528 10.0109 15.4488 10.261 15.448 10.522V13.232H16.187V16.926H18.158V13.232H18.9V10.522C18.8992 10.2603 18.7946 10.0096 18.6092 9.82497C18.4238 9.6403 18.1727 9.53674 17.911 9.53701Z" fill="#333333"/>
<path d="M18.157 8.05899C18.157 8.60299 17.716 9.04399 17.172 9.04399C16.628 9.04399 16.187 8.60299 16.187 8.05899C16.187 7.51499 16.628 7.07399 17.172 7.07399C17.716 7.07399 18.157 7.51499 18.157 8.05899Z" fill="#333333"/>
<path d="M21.409 10.522H20.522C20.3654 10.5225 20.2154 10.585 20.1047 10.6957C19.994 10.8064 19.9316 10.9564 19.931 11.113V12.739H20.374V14.956H21.557V12.739H22V11.113C21.9995 10.9564 21.9371 10.8064 21.8263 10.6957C21.7156 10.585 21.5656 10.5225 21.409 10.522Z" fill="#333333"/>
<path d="M21.557 9.63503C21.557 9.96143 21.2924 10.226 20.966 10.226C20.6396 10.226 20.375 9.96143 20.375 9.63503C20.375 9.30863 20.6396 9.04403 20.966 9.04403C21.2924 9.04403 21.557 9.30863 21.557 9.63503Z" fill="#333333"/>
<path d="M7.56703 9.53701H6.08903C5.82786 9.53753 5.57752 9.64145 5.39276 9.82603C5.20799 10.0106 5.10382 10.2608 5.10303 10.522V13.232H5.84203V16.926H7.81303V13.232H8.55203V10.522C8.55124 10.261 8.44721 10.0109 8.26265 9.82638C8.0781 9.64183 7.82802 9.5378 7.56703 9.53701Z" fill="#333333"/>
<path d="M7.81302 8.05899C7.81302 8.60299 7.37202 9.04399 6.82802 9.04399C6.28402 9.04399 5.84302 8.60299 5.84302 8.05899C5.84302 7.51499 6.28402 7.07399 6.82802 7.07399C7.37202 7.07399 7.81302 7.51499 7.81302 8.05899Z" fill="#333333"/>
<path d="M3.478 10.522H2.591C2.43442 10.5225 2.2844 10.585 2.17368 10.6957C2.06296 10.8064 2.00053 10.9564 2 11.113V12.739H2.443V14.956H3.626V12.739H4.069V11.113C4.06847 10.9564 4.00604 10.8064 3.89532 10.6957C3.7846 10.585 3.63458 10.5225 3.478 10.522Z" fill="#333333"/>
<path d="M3.62499 9.63503C3.62499 9.96143 3.36039 10.226 3.03399 10.226C2.70759 10.226 2.44299 9.96143 2.44299 9.63503C2.44299 9.30863 2.70759 9.04403 3.03399 9.04403C3.36039 9.04403 3.62499 9.30863 3.62499 9.63503Z" fill="#333333"/>
</svg>
