<svg width="24" height="24" viewBox="0 0 24 24" fill="none" xmlns="http://www.w3.org/2000/svg">
<path d="M14 4C14 5.10457 13.1046 6 12 6C10.8954 6 10 5.10457 10 4C10 2.89543 10.8954 2 12 2C13.1046 2 14 2.89543 14 4Z" fill="#333333"/>
<path d="M10 14.5V22H14V14.5H15.5V9C15.4984 8.47005 15.2872 7.96227 14.9125 7.58753C14.5377 7.2128 14.0299 7.00158 13.5 7H10.5C9.97005 7.00158 9.46227 7.2128 9.08753 7.58753C8.7128 7.96227 8.50158 8.47005 8.5 9V14.5H10Z" fill="#333333"/>
<path d="M7.08901 8.61197C6.82318 8.38581 6.48602 8.26079 6.13701 8.25897H3.89301C3.49518 8.25897 3.11365 8.41701 2.83235 8.69831C2.55104 8.97962 2.39301 9.36115 2.39301 9.75897V13.87H3.51901V19.481H6.51101V13.87H7.08501V8.64497C7.08501 8.63884 7.08605 8.63323 7.08707 8.62775C7.08805 8.6225 7.08901 8.61735 7.08901 8.61197Z" fill="#333333"/>
<path d="M6.51098 6.01498C6.51098 6.8412 5.8412 7.51098 5.01498 7.51098C4.18876 7.51098 3.51898 6.8412 3.51898 6.01498C3.51898 5.18876 4.18876 4.51898 5.01498 4.51898C5.8412 4.51898 6.51098 5.18876 6.51098 6.01498Z" fill="#333333"/>
<path d="M20.107 8.25897H17.863C17.514 8.26079 17.1768 8.38581 16.911 8.61197V13.87H17.485V19.481H20.477V13.87H21.6V9.75597C21.5992 9.35988 21.4418 8.98017 21.1621 8.69972C20.8824 8.41926 20.5031 8.26082 20.107 8.25897Z" fill="#333333"/>
<path d="M20.481 6.01498C20.481 6.8412 19.8112 7.51098 18.985 7.51098C18.1588 7.51098 17.489 6.8412 17.489 6.01498C17.489 5.18876 18.1588 4.51898 18.985 4.51898C19.8112 4.51898 20.481 5.18876 20.481 6.01498Z" fill="#333333"/>
</svg>
