<svg width="24" height="24" viewBox="0 0 24 24" fill="none" xmlns="http://www.w3.org/2000/svg">
<path d="M12.909 12.381H11.1C10.7816 12.3789 10.4768 12.2511 10.2521 12.0254C10.0273 11.7998 9.90081 11.4945 9.90002 11.176V7.86001H10.8V3.33901H13.214V7.86001H14.114V11.181C14.1119 11.4995 13.9841 11.8042 13.7585 12.029C13.5328 12.2537 13.2275 12.3802 12.909 12.381Z" fill="#333333"/>
<path d="M13 14.845C12.9715 14.889 12.9398 14.9308 12.905 14.97C12.8653 15.0131 12.8225 15.0532 12.777 15.09C12.7373 15.1266 12.6948 15.16 12.65 15.19C12.6405 15.1962 12.6333 15.2041 12.6261 15.2121C12.6181 15.2209 12.6101 15.2297 12.599 15.236C12.5881 15.2423 12.5764 15.245 12.5647 15.2477C12.5539 15.2502 12.5431 15.2527 12.533 15.258C12.4331 15.3062 12.3276 15.3418 12.219 15.364C12.1658 15.3739 12.112 15.3802 12.058 15.383C12.048 15.3835 12.039 15.3865 12.0299 15.3894C12.0198 15.3927 12.0096 15.396 11.998 15.396C11.987 15.396 11.977 15.3928 11.967 15.3895C11.957 15.3863 11.947 15.383 11.936 15.383C11.8813 15.3802 11.8269 15.3738 11.773 15.364C11.6669 15.3437 11.5637 15.3101 11.466 15.264C11.4544 15.2582 11.4417 15.2552 11.4293 15.2523C11.4161 15.2492 11.4034 15.2462 11.393 15.24C11.3827 15.2339 11.3748 15.2253 11.3669 15.2167C11.3593 15.2086 11.3517 15.2004 11.342 15.194C11.2958 15.1641 11.252 15.1307 11.211 15.094C11.1712 15.0592 11.1338 15.0218 11.099 14.982C11.0626 14.9405 11.0292 14.8964 10.999 14.85C10.9932 14.8416 10.9863 14.8352 10.9792 14.8286C10.9703 14.8203 10.9612 14.8118 10.954 14.799C10.9473 14.7871 10.944 14.7744 10.9408 14.7616C10.9378 14.7499 10.9348 14.7381 10.929 14.727C10.9082 14.6844 10.8898 14.6407 10.874 14.596C10.8531 14.5388 10.8371 14.4799 10.826 14.42C10.8154 14.3659 10.8087 14.3111 10.806 14.256C10.8055 14.2461 10.8028 14.2369 10.8001 14.2276C10.7971 14.2172 10.794 14.2066 10.794 14.195C10.794 14.1839 10.7971 14.1738 10.8001 14.1638C10.8031 14.1541 10.806 14.1444 10.806 14.134C10.8087 14.0799 10.8154 14.0261 10.826 13.973C10.8372 13.9139 10.8529 13.8557 10.873 13.799C10.8894 13.7514 10.9091 13.7049 10.932 13.66C10.9365 13.6501 10.939 13.64 10.9414 13.63C10.9444 13.6177 10.9474 13.6056 10.954 13.594C10.9604 13.5829 10.969 13.5746 10.9776 13.5663C10.9852 13.5589 10.9929 13.5514 10.999 13.542C11.0291 13.4976 11.0625 13.4554 11.099 13.416C11.1362 13.3708 11.1778 13.3293 11.223 13.292C11.2619 13.2558 11.3034 13.2224 11.347 13.192C11.356 13.1864 11.3634 13.1785 11.3708 13.1706C11.3791 13.1617 11.3874 13.1528 11.398 13.147C11.4085 13.1413 11.4197 13.1385 11.4309 13.1358C11.4412 13.1333 11.4515 13.1308 11.461 13.126C11.5103 13.1016 11.5611 13.0803 11.613 13.062C11.6669 13.0436 11.722 13.0292 11.778 13.019C11.8278 13.0089 11.8783 13.0022 11.929 12.999C11.9411 12.9981 11.9526 12.9948 11.9639 12.9915C11.9769 12.9877 11.9897 12.984 12.003 12.984C12.0155 12.984 12.0273 12.9878 12.039 12.9915C12.0508 12.9953 12.0625 12.999 12.075 12.999C12.1251 13.0022 12.1749 13.0089 12.224 13.019C12.2792 13.0294 12.3337 13.0434 12.387 13.061C12.442 13.0792 12.4955 13.1016 12.547 13.128C12.5555 13.1327 12.5642 13.1346 12.5731 13.1364C12.5832 13.1385 12.5934 13.1407 12.604 13.147C12.6143 13.1532 12.6225 13.1618 12.6306 13.1703C12.6382 13.1783 12.6458 13.1862 12.655 13.192C12.6967 13.2193 12.7368 13.2491 12.775 13.281C12.824 13.3225 12.8695 13.368 12.911 13.417C12.943 13.4553 12.9727 13.4953 13 13.537C13.0065 13.547 13.015 13.5555 13.0233 13.5638C13.0315 13.572 13.0395 13.58 13.045 13.589C13.051 13.5988 13.0534 13.6092 13.0558 13.6195C13.0579 13.6282 13.0599 13.6368 13.064 13.645C13.0904 13.6966 13.1128 13.7501 13.131 13.805C13.1494 13.8581 13.1635 13.9126 13.173 13.968C13.1834 14.0175 13.1905 14.0676 13.194 14.118C13.1945 14.1299 13.1977 14.141 13.2009 14.152C13.2044 14.1642 13.208 14.1764 13.208 14.19C13.208 14.203 13.2045 14.2148 13.201 14.2265C13.1975 14.2383 13.194 14.25 13.194 14.263C13.19 14.3141 13.1829 14.3648 13.173 14.415C13.1632 14.4711 13.1488 14.5263 13.13 14.58C13.1127 14.6318 13.0917 14.6823 13.067 14.731C13.0617 14.7411 13.0592 14.7512 13.0567 14.7613C13.054 14.7722 13.0512 14.7831 13.045 14.794C13.0385 14.8055 13.0295 14.814 13.0207 14.8224C13.0133 14.8294 13.0059 14.8364 13 14.845Z" fill="#333333"/>
<path d="M18.084 16.312L18.537 15.529L15.665 13.871C15.3878 13.7121 15.0589 13.6693 14.7503 13.7522C14.4417 13.835 14.1784 14.0366 14.018 14.313L13.118 15.879C12.9592 16.1561 12.9165 16.4848 12.9991 16.7934C13.0817 17.1019 13.283 17.3652 13.559 17.526L16.431 19.184L16.883 18.4L20.798 20.661L22 18.573L18.084 16.312Z" fill="#333333"/>
<path d="M9.2497 13.7522C9.55832 13.835 9.82161 14.0366 9.982 14.313L10.886 15.879C11.0448 16.1561 11.0875 16.4848 11.0049 16.7934C10.9223 17.1019 10.721 17.3652 10.445 17.526L7.573 19.184L7.121 18.4L3.206 20.661L2 18.573L5.915 16.312L5.463 15.529L8.335 13.871C8.61222 13.7121 8.94108 13.6693 9.2497 13.7522Z" fill="#333333"/>
</svg>
