<svg width="24" height="24" viewBox="0 0 24 24" fill="none" xmlns="http://www.w3.org/2000/svg">
<path d="M7.26397 3.22599C7.59037 3.22599 7.85497 2.96139 7.85497 2.63499C7.85497 2.30859 7.59037 2.04399 7.26397 2.04399C6.93757 2.04399 6.67297 2.30859 6.67297 2.63499C6.67297 2.96139 6.93757 3.22599 7.26397 3.22599Z" fill="#333333"/>
<path d="M6.82098 3.52202H7.70798C7.86473 3.52228 8.01501 3.5846 8.12594 3.69535C8.23688 3.8061 8.29945 3.95627 8.29998 4.11302V5.73902H7.85498V7.95602H6.67298V5.73902H6.22998V4.11302C6.23051 3.95644 6.29294 3.80642 6.40366 3.6957C6.51438 3.58498 6.6644 3.52255 6.82098 3.52202Z" fill="#333333"/>
<path d="M12 7.59999C12.4418 7.59999 12.8 7.24181 12.8 6.79999C12.8 6.35816 12.4418 5.99999 12 5.99999C11.5582 5.99999 11.2 6.35816 11.2 6.79999C11.2 7.24181 11.5582 7.59999 12 7.59999Z" fill="#333333"/>
<path d="M12.6 7.99999H11.4C11.1878 7.99999 10.9843 8.08427 10.8343 8.2343C10.6843 8.38433 10.6 8.58781 10.6 8.79999V11H11.2V14H12.8V11H13.4V8.79999C13.4 8.58781 13.3157 8.38433 13.1657 8.2343C13.0156 8.08427 12.8121 7.99999 12.6 7.99999Z" fill="#333333"/>
<path d="M6.82098 17.566H7.70798C7.86491 17.5662 8.01533 17.6287 8.1263 17.7397C8.23726 17.8506 8.29972 18.001 8.29998 18.158V19.783H7.85498V22H6.67298V19.783H6.22998V18.158C6.23024 18.0012 6.29256 17.8509 6.40331 17.74C6.51406 17.6291 6.66423 17.5665 6.82098 17.566Z" fill="#333333"/>
<path d="M7.26397 17.271C7.59037 17.271 7.85497 17.0064 7.85497 16.68C7.85497 16.3536 7.59037 16.089 7.26397 16.089C6.93757 16.089 6.67297 16.3536 6.67297 16.68C6.67297 17.0064 6.93757 17.271 7.26397 17.271Z" fill="#333333"/>
<path d="M2.591 10.522H3.478C3.63458 10.5225 3.7846 10.585 3.89532 10.6957C4.00604 10.8064 4.06847 10.9564 4.069 11.113V12.739H3.626V14.956H2.443V12.739H2V11.113C2.00053 10.9564 2.06296 10.8064 2.17368 10.6957C2.2844 10.585 2.43442 10.5225 2.591 10.522Z" fill="#333333"/>
<path d="M3.03399 10.226C3.36039 10.226 3.62499 9.96139 3.62499 9.63499C3.62499 9.30859 3.36039 9.04399 3.03399 9.04399C2.70759 9.04399 2.44299 9.30859 2.44299 9.63499C2.44299 9.96139 2.70759 10.226 3.03399 10.226Z" fill="#333333"/>
<path d="M17.129 3.52202H16.243C16.0871 3.5236 15.9381 3.58649 15.8283 3.6971C15.7184 3.80771 15.6565 3.95713 15.656 4.11302V5.73902H16.1V7.95602H17.277V5.73902H17.72V4.11302C17.7195 3.95644 17.657 3.80642 17.5463 3.6957C17.4356 3.58498 17.2856 3.52255 17.129 3.52202Z" fill="#333333"/>
<path d="M16.686 3.22599C17.0124 3.22599 17.277 2.96139 17.277 2.63499C17.277 2.30859 17.0124 2.04399 16.686 2.04399C16.3596 2.04399 16.095 2.30859 16.095 2.63499C16.095 2.96139 16.3596 3.22599 16.686 3.22599Z" fill="#333333"/>
<path d="M17.129 17.566H16.243C16.0869 17.5675 15.9378 17.6306 15.8279 17.7414C15.718 17.8522 15.6563 18.0019 15.656 18.158V19.783H16.1V22H17.277V19.783H17.72V18.158C17.7197 18.0012 17.6574 17.8509 17.5467 17.74C17.4359 17.6291 17.2858 17.5665 17.129 17.566Z" fill="#333333"/>
<path d="M16.686 17.271C17.0124 17.271 17.277 17.0064 17.277 16.68C17.277 16.3536 17.0124 16.089 16.686 16.089C16.3596 16.089 16.095 16.3536 16.095 16.68C16.095 17.0064 16.3596 17.271 16.686 17.271Z" fill="#333333"/>
<path d="M21.359 10.522H20.472C20.3154 10.5225 20.1654 10.585 20.0547 10.6957C19.9439 10.8064 19.8815 10.9564 19.881 11.113V12.739H20.325V14.956H21.507V12.739H21.95V11.113C21.9495 10.9564 21.887 10.8064 21.7763 10.6957C21.6656 10.585 21.5156 10.5225 21.359 10.522Z" fill="#333333"/>
<path d="M20.916 10.226C21.2424 10.226 21.507 9.96139 21.507 9.63499C21.507 9.30859 21.2424 9.04399 20.916 9.04399C20.5896 9.04399 20.325 9.30859 20.325 9.63499C20.325 9.96139 20.5896 10.226 20.916 10.226Z" fill="#333333"/>
<path d="M16.344 12.759L16.781 13.197L16.344 13.635V13.307H15.027V13.635L14.59 13.197L15.027 12.759V13.087H16.343L16.344 12.759Z" fill="#333333"/>
<path d="M15.363 9.82897H14.744L14.976 10.061L14.045 10.992L13.813 10.76V11.379L14.432 11.38L14.2 11.147L15.131 10.216L15.364 10.448L15.363 9.82897Z" fill="#333333"/>
<path d="M8.60999 10.489L8.61099 9.87L9.22999 9.86901L8.99699 10.102H8.99799L9.92899 11.033L10.161 10.8L10.16 11.419L9.54099 11.42L9.77399 11.188L8.84299 10.257L8.60999 10.489Z" fill="#333333"/>
<path d="M7.23297 13.254L7.66997 13.693V13.364H8.98697V13.693L9.42397 13.254L8.98697 12.816V13.145H7.67097L7.66997 12.816L7.23297 13.254Z" fill="#333333"/>
<path d="M9.27 16.623L8.651 16.622V16.003L8.883 16.235L9.814 15.304L9.582 15.072L10.201 15.073L10.202 15.692L9.969 15.459L9.039 16.39L9.27 16.623Z" fill="#333333"/>
<path d="M12.036 18L12.474 17.563H12.145V16.247L12.474 16.246L12.036 15.809L11.598 16.246H11.926V17.562L11.598 17.563L12.036 18Z" fill="#333333"/>
<path d="M15.404 15.962L15.403 16.581L14.784 16.582L15.017 16.35L14.086 15.419L13.853 15.651L13.854 15.032L14.473 15.031L14.241 15.264L15.172 16.195L15.404 15.962Z" fill="#333333"/>
</svg>
