<svg width="24" height="24" viewBox="0 0 24 24" fill="none" xmlns="http://www.w3.org/2000/svg">
<path d="M3.591 4.5V3.5H22V4.5H3.591Z" fill="#333333"/>
<path d="M18.3 12.872C18.3109 10.9815 17.5949 9.15905 16.3001 7.78146C15.0053 6.40387 13.2307 5.57646 11.3431 5.47026C9.45557 5.36407 7.59935 5.98722 6.15822 7.21089C4.71709 8.43457 3.80124 10.1652 3.6 12.045H2L4.134 14.509L6.268 12.045H4.619C4.80635 10.6038 5.48037 9.26983 6.52943 8.26402C7.57848 7.2582 8.93963 6.64089 10.3874 6.51433C11.8353 6.38776 13.2829 6.75954 14.4905 7.56808C15.6982 8.37662 16.5934 9.57341 17.028 10.9603C17.4626 12.3471 17.4104 13.8408 16.8801 15.1939C16.3499 16.547 15.3733 17.6785 14.1121 18.4008C12.851 19.1231 11.381 19.3929 9.94553 19.1656C8.51007 18.9384 7.19532 18.2276 6.219 17.151L5.361 17.696C6.34388 18.8332 7.65115 19.6426 9.10731 20.0153C10.5635 20.3881 12.0988 20.3064 13.5072 19.7813C14.9156 19.2563 16.1297 18.3128 16.9864 17.0778C17.8431 15.8427 18.3015 14.3751 18.3 12.872Z" fill="#333333"/>
<path d="M10.394 8.98499V13.238L13.761 15.259L14.293 14.387L11.457 12.707V8.98499H10.394Z" fill="#333333"/>
<path d="M22 6.5H16.349C15.9025 6.11663 15.4169 5.78144 14.9 5.5H22V6.5Z" fill="#333333"/>
<path d="M18.057 8.5H22V7.5H17.345C17.6063 7.81556 17.8443 8.14979 18.057 8.5Z" fill="#333333"/>
<path d="M22 10.5H18.953C18.8521 10.1592 18.7295 9.82518 18.586 9.5H22V10.5Z" fill="#333333"/>
<path d="M19.28 12.5H22V11.5H19.177C19.2312 11.831 19.2656 12.1649 19.28 12.5Z" fill="#333333"/>
<path d="M22 14.5H19.138C19.201 14.1695 19.244 13.8356 19.267 13.5H22V14.5Z" fill="#333333"/>
<path d="M18.463 16.5H22V15.5H18.872C18.7577 15.8419 18.621 16.176 18.463 16.5Z" fill="#333333"/>
<path d="M22 18.5H17.112C17.3997 18.1871 17.6631 17.8528 17.9 17.5H22V18.5Z" fill="#333333"/>
<path d="M14.364 20.5H22V19.5H16.028C15.5138 19.8965 14.9554 20.232 14.364 20.5Z" fill="#333333"/>
</svg>
