<svg width="24" height="24" viewBox="0 0 24 24" fill="none" xmlns="http://www.w3.org/2000/svg">
<path d="M17.071 19.228H5.08801V3.49999H6.00001V3.72699C6.00001 3.8413 6.04542 3.95092 6.12625 4.03175C6.20708 4.11258 6.3167 4.15799 6.43101 4.15799H6.43901C6.55341 4.15799 6.66314 4.11261 6.74413 4.03181C6.82512 3.95101 6.87075 3.84139 6.87101 3.72699V3.49999H8.32001V3.72799C8.32001 3.8423 8.36542 3.95192 8.44625 4.03275C8.52708 4.11358 8.6367 4.15899 8.75101 4.15899H8.75901C8.87332 4.15899 8.98295 4.11358 9.06378 4.03275C9.1446 3.95192 9.19001 3.8423 9.19001 3.72799V3.49999H10.644V3.72899C10.644 3.8433 10.6894 3.95292 10.7703 4.03375C10.8511 4.11458 10.9607 4.15999 11.075 4.15999H11.083C11.1973 4.15999 11.3069 4.11458 11.3878 4.03375C11.4686 3.95292 11.514 3.8433 11.514 3.72899V3.49999H12.968V3.72999C12.968 3.8443 13.0134 3.95392 13.0942 4.03475C13.1751 4.11558 13.2847 4.16099 13.399 4.16099H13.407C13.5213 4.16099 13.6309 4.11558 13.7118 4.03475C13.7926 3.95392 13.838 3.8443 13.838 3.72999V3.49299H15.292V3.72399C15.292 3.8383 15.3374 3.94792 15.4182 4.02875C15.4991 4.10958 15.6087 4.15499 15.723 4.15499H15.731C15.8453 4.15499 15.9549 4.10958 16.0358 4.02875C16.1166 3.94792 16.162 3.8383 16.162 3.72399V3.49199H17.071V11.863L17.945 10.989V3.48899C17.945 3.25719 17.8529 3.03488 17.689 2.87098C17.5251 2.70707 17.3028 2.61499 17.071 2.61499H16.162V2.40999C16.162 2.29568 16.1166 2.18605 16.0358 2.10523C15.9549 2.0244 15.8453 1.97899 15.731 1.97899H15.723C15.6087 1.97899 15.4991 2.0244 15.4182 2.10523C15.3374 2.18605 15.292 2.29568 15.292 2.40999V2.61899H13.838V2.40999C13.838 2.29568 13.7926 2.18605 13.7118 2.10523C13.6309 2.0244 13.5213 1.97899 13.407 1.97899H13.4C13.2857 1.97899 13.1761 2.0244 13.0952 2.10523C13.0144 2.18605 12.969 2.29568 12.969 2.40999V2.61999H11.514V2.40999C11.514 2.29568 11.4686 2.18605 11.3878 2.10523C11.3069 2.0244 11.1973 1.97899 11.083 1.97899H11.075C10.9607 1.97899 10.8511 2.0244 10.7703 2.10523C10.6894 2.18605 10.644 2.29568 10.644 2.40999V2.62099H9.19001V2.40999C9.19001 2.29568 9.1446 2.18605 9.06378 2.10523C8.98295 2.0244 8.87332 1.97899 8.75901 1.97899H8.75101C8.6367 1.97899 8.52708 2.0244 8.44625 2.10523C8.36542 2.18605 8.32001 2.29568 8.32001 2.40999V2.62199H6.86701V2.40999C6.86675 2.29559 6.82112 2.18596 6.74013 2.10516C6.65914 2.02437 6.54941 1.97899 6.43501 1.97899H6.42701C6.3134 1.98004 6.2048 2.02592 6.12483 2.10663C6.04487 2.18735 6.00001 2.29637 6.00001 2.40999V2.62299H5.08701C4.8552 2.62352 4.63305 2.71591 4.46923 2.87992C4.30541 3.04392 4.21328 3.26618 4.21301 3.49799V19.233C4.21328 19.465 4.30555 19.6874 4.46959 19.8514C4.63362 20.0155 4.85603 20.1077 5.08801 20.108L17.071 20.1C17.3028 20.1 17.5251 20.0079 17.689 19.844C17.8529 19.6801 17.945 19.4578 17.945 19.226V16.9L17.071 17.774V19.228Z" fill="#333333"/>
<path d="M6.98999 8.15501H15.107V8.64201H6.98999V8.15501Z" fill="#333333"/>
<path d="M20.606 10.29L21.547 11.23C21.5843 11.2671 21.614 11.3113 21.6342 11.36C21.6544 11.4086 21.6648 11.4608 21.6648 11.5135C21.6648 11.5662 21.6544 11.6183 21.6342 11.667C21.614 11.7156 21.5843 11.7598 21.547 11.797L20.811 12.533L19.303 11.025L20.039 10.29C20.0761 10.2526 20.1203 10.223 20.169 10.2028C20.2176 10.1826 20.2698 10.1722 20.3225 10.1722C20.3752 10.1722 20.4273 10.1826 20.476 10.2028C20.5246 10.223 20.5688 10.2526 20.606 10.29Z" fill="#333333"/>
<path d="M14.4422 15.9073C14.4525 15.8824 14.4678 15.8598 14.487 15.841L18.873 11.454L20.381 12.962L15.991 17.348C15.973 17.3673 15.9512 17.3826 15.9269 17.393C15.9026 17.4033 15.8764 17.4084 15.85 17.408H14.627C14.574 17.408 14.5231 17.3869 14.4856 17.3494C14.4481 17.3119 14.427 17.261 14.427 17.208V15.986C14.4267 15.959 14.4319 15.9323 14.4422 15.9073Z" fill="#333333"/>
<path d="M12.594 16.922H6.98999V17.409H12.594V16.922Z" fill="#333333"/>
<path d="M15.107 11.077H6.98999V11.564H15.107V11.077Z" fill="#333333"/>
<path d="M6.98999 13.999H15.107V14.486H6.98999V13.999Z" fill="#333333"/>
<path d="M3.21 4.49998V21.108H16.067C16.0659 21.339 15.9736 21.5602 15.81 21.7234C15.6465 21.8866 15.425 21.9785 15.194 21.979H3.21C2.9782 21.979 2.75589 21.8869 2.59199 21.723C2.42808 21.5591 2.336 21.3368 2.336 21.105V5.37398C2.336 5.14219 2.42808 4.91988 2.59199 4.75597C2.75589 4.59207 2.9782 4.49998 3.21 4.49998Z" fill="#333333"/>
</svg>
