<svg width="24" height="24" viewBox="0 0 24 24" fill="none" xmlns="http://www.w3.org/2000/svg">
<path fill-rule="evenodd" clip-rule="evenodd" d="M21.105 5.261C21.3423 5.26147 21.5698 5.35563 21.738 5.52299C21.905 5.69137 21.9988 5.91885 21.999 6.156V18.339C21.999 18.5768 21.9049 18.805 21.7372 18.9736C21.5695 19.1423 21.3418 19.2377 21.104 19.239H4.86802C4.75006 19.2397 4.63314 19.217 4.52398 19.1723C4.41482 19.1276 4.31556 19.0618 4.23192 18.9786C4.14828 18.8955 4.08191 18.7966 4.03662 18.6877C3.99133 18.5787 3.96802 18.462 3.96802 18.344V6.161C3.96802 5.9223 4.06284 5.69338 4.23162 5.5246C4.4004 5.35582 4.62932 5.261 4.86802 5.261H14.983C14.9232 4.95752 14.9314 4.64457 15.007 4.34464C15.0825 4.0447 15.2236 3.76523 15.42 3.52631C15.6165 3.28739 15.8634 3.09495 16.1431 2.96283C16.4227 2.83071 16.7282 2.76219 17.0375 2.76219C17.3468 2.76219 17.6523 2.83071 17.932 2.96283C18.2116 3.09495 18.4586 3.28739 18.655 3.52631C18.8514 3.76523 18.9925 4.0447 19.0681 4.34464C19.1436 4.64457 19.1518 4.95752 19.092 5.261H21.105ZM18.0846 3.82371C17.8069 3.54624 17.4305 3.39026 17.038 3.39L17.037 3.395C16.7093 3.39379 16.3905 3.50175 16.131 3.70184C15.8715 3.90194 15.686 4.18276 15.6037 4.5C15.5215 4.81723 15.5473 5.15281 15.677 5.45376C15.8067 5.75471 16.033 6.0039 16.32 6.162H16.349L16.344 6.173C16.5605 6.29483 16.8051 6.35791 17.0535 6.35598C17.3019 6.35405 17.5455 6.28718 17.76 6.162C17.9306 6.06594 18.0803 5.93688 18.2005 5.78237C18.3207 5.62785 18.4089 5.45096 18.46 5.262C18.4975 5.13464 18.5174 5.00274 18.519 4.87C18.5185 4.47746 18.3623 4.10118 18.0846 3.82371ZM4.86902 18.344L21.106 18.339L21.105 6.157H18.679C18.4847 6.40762 18.2359 6.61066 17.9514 6.75067C17.6668 6.89068 17.3541 6.96398 17.037 6.965C16.6679 6.96314 16.306 6.8623 15.989 6.673L13.297 9.364C13.2612 9.4014 13.2183 9.43128 13.1707 9.45188C13.1232 9.47247 13.0721 9.48337 13.0203 9.48393C12.9685 9.48449 12.9171 9.4747 12.8691 9.45514C12.8212 9.43558 12.7776 9.40664 12.741 9.37002C12.7044 9.33339 12.6754 9.28983 12.6559 9.24187C12.6363 9.19391 12.6265 9.14253 12.6271 9.09074C12.6276 9.03895 12.6385 8.98779 12.6591 8.94027C12.6797 8.89275 12.7096 8.84982 12.747 8.814L15.398 6.161H4.86902V18.344Z" fill="#333333"/>
<path d="M2.90001 7.24998V20.328H20.031C20.031 20.5658 19.9369 20.794 19.7692 20.9626C19.6015 21.1313 19.3738 21.2267 19.136 21.228H2.90001C2.78164 21.2286 2.66431 21.2058 2.55482 21.1608C2.44532 21.1158 2.34584 21.0496 2.26214 20.9659C2.17843 20.8822 2.11217 20.7827 2.06717 20.6732C2.02218 20.5637 1.99935 20.4464 2.00001 20.328V8.14499C2.00134 7.90716 2.09674 7.67952 2.26538 7.51182C2.43402 7.34412 2.66218 7.24998 2.90001 7.24998Z" fill="#333333"/>
</svg>
