<svg width="24" height="24" viewBox="0 0 24 24" fill="none" xmlns="http://www.w3.org/2000/svg">
<path fill-rule="evenodd" clip-rule="evenodd" d="M17.707 12.176V15.6L20.019 17.913C20.1281 18.0221 20.1894 18.1702 20.1894 18.3245C20.1894 18.4788 20.1281 18.6269 20.019 18.736L18.802 19.953C18.7479 20.0072 18.6837 20.0502 18.613 20.0795C18.5423 20.1088 18.4665 20.1239 18.39 20.1239C18.3135 20.1239 18.2377 20.1088 18.167 20.0795C18.0963 20.0502 18.0321 20.0072 17.978 19.953L17.708 19.683V21C17.708 21.2652 17.6026 21.5196 17.4151 21.7071C17.2276 21.8946 16.9732 22 16.708 22H3C2.73478 22 2.48043 21.8946 2.29289 21.7071C2.10536 21.5196 2 21.2652 2 21V3C2 2.73478 2.10536 2.48043 2.29289 2.29289C2.48043 2.10536 2.73478 2 3 2H16.707C16.9722 2 17.2266 2.10536 17.4141 2.29289C17.6016 2.48043 17.707 2.73478 17.707 3V8.873L18.943 7.638L20.594 9.289L17.707 12.176ZM18.943 8.829L14.916 12.855V13.313H15.374L19.4 9.286L18.943 8.829ZM3 21L16.707 20.994V18.684L15.581 17.558C15.4719 17.4489 15.4106 17.3008 15.4106 17.1465C15.4106 16.9922 15.4719 16.8441 15.581 16.735L16.707 15.609V13.177L15.723 14.161H10.938V17.634C10.938 17.7003 10.9117 17.7639 10.8648 17.8108C10.8179 17.8577 10.7543 17.884 10.688 17.884H5.477C5.4107 17.884 5.34711 17.8577 5.30022 17.8108C5.25334 17.7639 5.227 17.7003 5.227 17.634V5.376C5.22726 5.30978 5.25369 5.24634 5.30051 5.19951C5.34734 5.15269 5.41078 5.12626 5.477 5.126H7.841C7.90722 5.12626 7.97066 5.15269 8.01749 5.19951C8.06431 5.24634 8.09074 5.30978 8.091 5.376V9.9H9.983V7.778C9.98326 7.71178 10.0097 7.64834 10.0565 7.60151C10.1033 7.55469 10.1668 7.52826 10.233 7.528H13.733C13.7992 7.52826 13.8627 7.55469 13.9095 7.60151C13.9563 7.64834 13.9827 7.71178 13.983 7.778V9.342H13.483V8.028H10.483V10.145C10.483 10.2113 10.4567 10.2749 10.4098 10.3218C10.3629 10.3687 10.2993 10.395 10.233 10.395H7.841C7.7747 10.395 7.71111 10.3687 7.66422 10.3218C7.61734 10.2749 7.591 10.2113 7.591 10.145V5.626H5.727V17.384H10.438V13.911C10.4383 13.8448 10.4647 13.7813 10.5115 13.7345C10.5583 13.6877 10.6218 13.6613 10.688 13.661H14.072V12.509L16.707 9.873V3H3V21ZM17.191 18.341L17.707 17.824L18.407 17.128L17.207 15.928L15.993 17.143L17.191 18.341Z" fill="#333333"/>
<path d="M20.841 6.36101L21.871 7.39101C21.9119 7.43171 21.9444 7.48009 21.9665 7.53338C21.9887 7.58667 22.0001 7.6438 22.0001 7.70151C22.0001 7.75922 21.9887 7.81635 21.9665 7.86964C21.9444 7.92293 21.9119 7.97131 21.871 8.01201L21.065 8.81801L19.414 7.16701L20.22 6.36101C20.2607 6.3201 20.3091 6.28764 20.3624 6.26549C20.4157 6.24334 20.4728 6.23193 20.5305 6.23193C20.5882 6.23193 20.6453 6.24334 20.6986 6.26549C20.7519 6.28764 20.8003 6.3201 20.841 6.36101Z" fill="#333333"/>
</svg>
