<svg width="24" height="24" viewBox="0 0 24 24" fill="none" xmlns="http://www.w3.org/2000/svg">
<path d="M3.33704 21H17.044L17.045 18.95L18.045 19.95V21C18.045 21.2652 17.9397 21.5196 17.7521 21.7071C17.5646 21.8946 17.3103 22 17.045 22H3.33704C3.07182 22 2.81747 21.8946 2.62993 21.7071C2.44239 21.5196 2.33704 21.2652 2.33704 21V3C2.33704 2.73478 2.44239 2.48043 2.62993 2.29289C2.81747 2.10536 3.07182 2 3.33704 2H17.044C17.3093 2 17.5636 2.10536 17.7511 2.29289C17.9387 2.48043 18.044 2.73478 18.044 3V6.954L17.044 7.954V3H3.33704V21Z" fill="#333333"/>
<path d="M5.81403 4.992H8.17803C8.24433 4.992 8.30792 5.01834 8.3548 5.06523C8.40169 5.11211 8.42803 5.1757 8.42803 5.242V9.76H10.321V7.643C10.321 7.5767 10.3474 7.51311 10.3942 7.46623C10.4411 7.41934 10.5047 7.393 10.571 7.393H14.071C14.1372 7.39327 14.2007 7.41969 14.2475 7.46652C14.2943 7.51335 14.3208 7.57678 14.321 7.643V9.207H13.821V7.893H10.821V10.01C10.8208 10.0762 10.7943 10.1397 10.7475 10.1865C10.7007 10.2333 10.6372 10.2597 10.571 10.26H8.17803C8.11172 10.26 8.04813 10.2337 8.00125 10.1868C7.95437 10.1399 7.92803 10.0763 7.92803 10.01V5.492H6.06403V17.249H10.779L10.825 13.859C10.8256 13.7931 10.8522 13.7302 10.899 13.6839C10.9459 13.6376 11.0092 13.6117 11.075 13.612H14.426V12.688C14.4257 12.661 14.4309 12.6343 14.4412 12.6094C14.4515 12.5845 14.4668 12.5619 14.486 12.543L18.872 8.157L20.38 9.665L15.99 14.051C15.9721 14.0705 15.9503 14.086 15.926 14.0965C15.9017 14.107 15.8755 14.1123 15.849 14.112H14.627C14.6184 14.112 14.6113 14.1074 14.6043 14.1028C14.5976 14.0984 14.5909 14.094 14.583 14.094V14.113H11.322L11.276 17.503C11.275 17.5687 11.2482 17.6314 11.2015 17.6776C11.1547 17.7237 11.0917 17.7498 11.026 17.75H5.81403C5.74772 17.75 5.68413 17.7237 5.63725 17.6768C5.59036 17.6299 5.56403 17.5663 5.56403 17.5V5.242C5.56403 5.1757 5.59036 5.11211 5.63725 5.06523C5.68413 5.01834 5.74772 4.992 5.81403 4.992Z" fill="#333333"/>
<path fill-rule="evenodd" clip-rule="evenodd" d="M17.7465 14.13C17.9008 14.13 18.0487 14.1911 18.158 14.3L20.558 16.7C20.667 16.8095 20.7281 16.9576 20.7281 17.112C20.7281 17.2664 20.667 17.4146 20.558 17.524L19.341 18.741C19.2317 18.8499 19.0838 18.911 18.9295 18.911C18.7753 18.911 18.6273 18.8499 18.518 18.741L16.118 16.341C16.0638 16.287 16.0208 16.2227 15.9915 16.152C15.9622 16.0813 15.9471 16.0056 15.9471 15.929C15.9471 15.8525 15.9622 15.7767 15.9915 15.706C16.0208 15.6353 16.0638 15.5711 16.118 15.517L17.335 14.3C17.4443 14.1911 17.5923 14.13 17.7465 14.13ZM16.527 15.927L17.727 17.127L18.944 15.91L17.744 14.71L16.527 15.927Z" fill="#333333"/>
<path d="M21.5451 7.93199L20.6051 6.99099C20.5679 6.95364 20.5237 6.92401 20.4751 6.9038C20.4264 6.88358 20.3742 6.87317 20.3216 6.87317C20.2689 6.87317 20.2167 6.88358 20.1681 6.9038C20.1194 6.92401 20.0752 6.95364 20.0381 6.99099L19.3021 7.72699L20.8101 9.23399L21.5451 8.49898C21.5824 8.46182 21.612 8.41764 21.6323 8.36899C21.6525 8.32034 21.6629 8.26817 21.6629 8.21549C21.6629 8.1628 21.6525 8.11063 21.6323 8.06198C21.612 8.01333 21.5824 7.96915 21.5451 7.93199Z" fill="#333333"/>
</svg>
