<svg width="24" height="24" viewBox="0 0 24 24" fill="none" xmlns="http://www.w3.org/2000/svg">
<path fill-rule="evenodd" clip-rule="evenodd" d="M17.7 12.179V15.6L20.014 17.913C20.1229 18.0224 20.1841 18.1706 20.1841 18.325C20.1841 18.4794 20.1229 18.6276 20.014 18.737L18.797 19.953C18.7429 20.0072 18.6787 20.0502 18.608 20.0795C18.5373 20.1088 18.4615 20.1239 18.385 20.1239C18.3085 20.1239 18.2327 20.1088 18.162 20.0795C18.0913 20.0502 18.0271 20.0072 17.973 19.953L17.7 19.68V20.5C17.6984 20.8942 17.5418 21.2719 17.2639 21.5515C16.986 21.8311 16.6092 21.9901 16.215 21.994L3.5 22C3.10218 22 2.72064 21.842 2.43934 21.5607C2.15804 21.2794 2 20.8978 2 20.5V3.5C2 3.10218 2.15804 2.72064 2.43934 2.43934C2.72064 2.15804 3.10218 2 3.5 2H12.265L17.7 7.435V8.876L18.943 7.638L20.59 9.289L17.7 12.179ZM18.939 8.832L14.908 12.862V13.32H15.366L19.396 9.289L18.939 8.832ZM16.173 7.318L12.262 3.41V7.318H16.173ZM16.6636 20.6923C16.6884 20.6313 16.7008 20.5659 16.7 20.5V18.681L15.581 17.558C15.4721 17.4487 15.411 17.3008 15.411 17.1465C15.411 16.9922 15.4721 16.8443 15.581 16.735L16.704 15.612V13.18L15.723 14.161H11.542C11.4758 14.1607 11.4123 14.1343 11.3655 14.0875C11.3187 14.0407 11.2923 13.9772 11.292 13.911V11.543H9.5V15.929C9.5 15.9953 9.47366 16.0589 9.42678 16.1058C9.37989 16.1527 9.3163 16.179 9.25 16.179H7.5C7.4337 16.179 7.37011 16.1527 7.32322 16.1058C7.27634 16.0589 7.25 15.9953 7.25 15.929V6.793H5.375V18.335H4.875V6.543C4.875 6.4767 4.90134 6.41311 4.94822 6.36622C4.99511 6.31934 5.0587 6.293 5.125 6.293H7.5C7.5663 6.293 7.62989 6.31934 7.67678 6.36622C7.72366 6.41311 7.75 6.4767 7.75 6.543V15.679H9V11.293C9 11.2267 9.02634 11.1631 9.07322 11.1162C9.12011 11.0693 9.1837 11.043 9.25 11.043H11.538C11.6043 11.043 11.6679 11.0693 11.7148 11.1162C11.7617 11.1631 11.788 11.2267 11.788 11.293V13.661H14.068V12.509L16.7 9.876V8.148H11.435V3H3.5C3.36739 3 3.24021 3.05268 3.14645 3.14645C3.05268 3.24021 3 3.36739 3 3.5V20.5C2.99919 20.5659 3.01158 20.6313 3.03642 20.6923C3.06126 20.7533 3.09806 20.8088 3.14465 20.8553C3.19124 20.9019 3.24668 20.9387 3.30771 20.9636C3.36874 20.9884 3.43412 21.0008 3.5 21H16.2C16.2659 21.0008 16.3313 20.9884 16.3923 20.9636C16.4533 20.9387 16.5088 20.9019 16.5553 20.8553C16.6019 20.8088 16.6387 20.7533 16.6636 20.6923ZM17.187 18.345L17.7 17.831L18.4 17.124L17.206 15.93L16.7 16.435L15.989 17.147L17.187 18.345Z" fill="#333333"/>
<path d="M20.841 6.36101L21.871 7.39101C21.9119 7.43171 21.9444 7.48009 21.9665 7.53338C21.9887 7.58667 22.0001 7.6438 22.0001 7.70151C22.0001 7.75922 21.9887 7.81635 21.9665 7.86964C21.9444 7.92293 21.9119 7.97131 21.871 8.01201L21.065 8.81801L19.414 7.16701L20.22 6.36101C20.2607 6.3201 20.3091 6.28764 20.3624 6.26549C20.4157 6.24334 20.4728 6.23193 20.5305 6.23193C20.5882 6.23193 20.6453 6.24334 20.6986 6.26549C20.7519 6.28764 20.8003 6.3201 20.841 6.36101Z" fill="#333333"/>
</svg>
