<svg width="24" height="24" viewBox="0 0 24 24" fill="none" xmlns="http://www.w3.org/2000/svg">
<path fill-rule="evenodd" clip-rule="evenodd" d="M10.2 4.30801H13.8C13.9364 4.30801 14.0671 4.36216 14.1635 4.45855C14.2599 4.55495 14.314 4.68568 14.314 4.82201V6.36401C14.314 6.50033 14.2599 6.63107 14.1635 6.72746C14.0671 6.82385 13.9364 6.87801 13.8 6.87801H10.2C10.0637 6.87801 9.93298 6.82385 9.83658 6.72746C9.74019 6.63107 9.68604 6.50033 9.68604 6.36401V4.82201C9.68604 4.68568 9.74019 4.55495 9.83658 4.45855C9.93298 4.36216 10.0637 4.30801 10.2 4.30801ZM13.8 6.36401V4.82201H10.2V6.36401H13.8Z" fill="#333333"/>
<path fill-rule="evenodd" clip-rule="evenodd" d="M13.8 7.71499H10.2C10.0637 7.71499 9.93298 7.76914 9.83658 7.86554C9.74019 7.96193 9.68604 8.09267 9.68604 8.22899V9.77099C9.68604 9.90731 9.74019 10.038 9.83658 10.1344C9.93298 10.2308 10.0637 10.285 10.2 10.285H13.8C13.9364 10.285 14.0671 10.2308 14.1635 10.1344C14.2599 10.038 14.314 9.90731 14.314 9.77099V8.22899C14.314 8.09267 14.2599 7.96193 14.1635 7.86554C14.0671 7.76914 13.9364 7.71499 13.8 7.71499ZM13.8 8.22899V9.77099H10.2V8.22899H13.8Z" fill="#333333"/>
<path fill-rule="evenodd" clip-rule="evenodd" d="M10.2 11.122H13.8C13.9364 11.122 14.0671 11.1762 14.1635 11.2726C14.2599 11.369 14.314 11.4997 14.314 11.636V13.178C14.314 13.3144 14.2599 13.4451 14.1635 13.5415C14.0671 13.6379 13.9364 13.692 13.8 13.692H10.2C10.0637 13.692 9.93298 13.6379 9.83658 13.5415C9.74019 13.4451 9.68604 13.3144 9.68604 13.178V11.636C9.68604 11.4997 9.74019 11.369 9.83658 11.2726C9.93298 11.1762 10.0637 11.122 10.2 11.122ZM13.8 13.178V11.636H10.2V13.178H13.8Z" fill="#333333"/>
<path d="M15.342 5.34304V5.84304H16.996V8.75004H15.842V8.14604L14.842 9.01204L15.842 9.87804V9.25004H17.496V5.34304H15.342Z" fill="#333333"/>
<path d="M8.65803 12.183V12.683H6.50403V8.77603H8.15803V8.14803L9.15803 9.01403L8.15803 9.88003V9.27603H7.00403V12.183H8.65803Z" fill="#333333"/>
<path fill-rule="evenodd" clip-rule="evenodd" d="M10.442 22H16.083C16.3053 22.007 16.5226 21.9335 16.695 21.7932C16.8675 21.6529 16.9836 21.455 17.022 21.236C17.0339 21.172 17.0399 21.1071 17.04 21.042V16.706C17.17 15.9716 17.5133 15.2917 18.027 14.751C18.8056 14.0393 19.4319 13.1772 19.8681 12.2168C20.3043 11.2564 20.5414 10.2176 20.565 9.16301C20.513 6.96901 19.485 4.00701 16.765 2.88001C14.3422 1.87897 11.6512 1.73053 9.13301 2.45901C7.07201 3.04701 6.28801 3.46401 5.40001 4.92201C4.85864 5.9042 4.58289 7.01064 4.60001 8.13201C4.71663 9.15562 4.76174 10.1861 4.73501 11.216C4.42141 11.8932 4.06295 12.5486 3.66201 13.178C3.58759 13.2525 3.52909 13.3414 3.49006 13.4392C3.45104 13.537 3.43231 13.6417 3.43501 13.747C3.43311 13.858 3.45457 13.9681 3.49798 14.0703C3.54139 14.1725 3.60579 14.2643 3.68701 14.34L3.83101 14.48C3.95001 14.571 4.10001 14.68 4.25001 14.78C4.36201 14.858 4.47301 14.936 4.57301 15.009C4.62301 15.301 4.76601 16.161 4.81601 16.647L4.82801 16.788V16.98L4.82867 17.0033C4.83251 17.1399 4.83737 17.3129 4.86101 17.502C4.88009 17.7357 4.94392 17.9635 5.04901 18.173C5.16597 18.4111 5.35054 18.6094 5.57963 18.7432C5.80872 18.877 6.07216 18.9402 6.33701 18.925C6.57863 18.9479 6.82133 18.9576 7.06401 18.954H7.41401C8.02941 18.9307 8.64331 19.0299 9.22001 19.246C9.25096 19.2683 9.28006 19.293 9.30701 19.32L9.31501 19.331C9.37912 19.4174 9.42721 19.5146 9.45701 19.618C9.47219 19.6974 9.47923 19.7782 9.47801 19.859V20.744C9.45106 20.9191 9.45958 21.0979 9.50304 21.2697C9.5465 21.4415 9.62402 21.6028 9.73101 21.744C9.82567 21.8331 9.93762 21.9018 10.0599 21.9458C10.1822 21.9899 10.3123 22.0083 10.442 22ZM16.083 21.487H10.442C10.382 21.4905 10.3218 21.4813 10.2656 21.4598C10.2094 21.4384 10.1584 21.4052 10.116 21.3626C10.0735 21.32 10.0406 21.2688 10.0194 21.2125C9.99823 21.1562 9.98923 21.096 9.99301 21.036V20.613C9.99301 20.5319 9.99874 20.4442 10.0046 20.3544L10.005 20.348C10.0397 20.0541 10.0211 19.7563 9.95001 19.469C9.78001 18.779 9.15301 18.59 8.48001 18.49C8.14061 18.4494 7.79872 18.4334 7.45701 18.442C7.16901 18.431 6.86401 18.425 6.55201 18.419H6.37001C6.25067 18.4086 6.13346 18.3809 6.02201 18.337C5.79932 18.2688 5.61024 18.1197 5.49201 17.919C5.42354 17.7574 5.38101 17.5859 5.36601 17.411C5.35101 17.3 5.35101 17.174 5.35101 17.029C5.34601 16.949 5.34101 16.869 5.33501 16.79C5.33101 16.728 5.32501 16.654 5.31601 16.573C5.25825 15.9832 5.17013 15.3968 5.05201 14.816L5.03201 14.722L4.95501 14.664C4.84272 14.5791 4.69749 14.4773 4.56049 14.3812L4.42559 14.2867C4.32164 14.214 4.22552 14.1467 4.16101 14.1L4.04201 13.982C4.01012 13.9528 3.98466 13.9172 3.96724 13.8776C3.94982 13.8381 3.94083 13.7953 3.94083 13.752C3.94083 13.7088 3.94982 13.666 3.96724 13.6264C3.98466 13.5868 4.01012 13.5512 4.04201 13.522L4.08201 13.47C4.51289 12.7966 4.89358 12.0924 5.22101 11.363C5.27122 10.2743 5.23611 9.18327 5.11601 8.10001C5.10925 7.08361 5.35932 6.08197 5.84301 5.18801C6.60001 3.94001 7.21401 3.54301 9.28201 2.95301C11.6873 2.25765 14.2573 2.39866 16.572 3.35301C19.065 4.38701 20.007 7.13501 20.057 9.17501C20.0294 10.1643 19.8021 11.1377 19.3886 12.0369C18.9751 12.936 18.3841 13.7422 17.651 14.407C17.0542 15.0367 16.6638 15.8335 16.532 16.691V21.041C16.53 21.425 16.139 21.481 16.083 21.487Z" fill="#333333"/>
</svg>
