<svg width="24" height="24" viewBox="0 0 24 24" fill="none" xmlns="http://www.w3.org/2000/svg">
<path d="M21.75 2.88696H2.25C2.1837 2.88696 2.12011 2.86062 2.07322 2.81374C2.02634 2.76686 2 2.70327 2 2.63696C2 2.57066 2.02634 2.50707 2.07322 2.46019C2.12011 2.4133 2.1837 2.38696 2.25 2.38696H21.75C21.8163 2.38696 21.8799 2.4133 21.9268 2.46019C21.9737 2.50707 22 2.57066 22 2.63696C22 2.70327 21.9737 2.76686 21.9268 2.81374C21.8799 2.86062 21.8163 2.88696 21.75 2.88696Z" fill="#333333"/>
<path fill-rule="evenodd" clip-rule="evenodd" d="M9.77802 5.44702V8.86502H13.2C13.114 7.98705 12.7257 7.16621 12.1015 6.54278C11.4774 5.91935 10.6561 5.53203 9.77802 5.44702ZM10.278 8.36502V6.04602C10.8333 6.19717 11.3396 6.49059 11.7469 6.89728C12.1541 7.30398 12.4481 7.80989 12.6 8.36502H10.278Z" fill="#333333"/>
<path fill-rule="evenodd" clip-rule="evenodd" d="M6.42182 6.68826C7.07781 6.24994 7.84904 6.01599 8.63799 6.01599V10.005H12.627C12.627 10.7939 12.393 11.5652 11.9547 12.2212C11.5164 12.8771 10.8934 13.3884 10.1645 13.6903C9.43562 13.9923 8.63356 14.0713 7.85977 13.9173C7.08598 13.7634 6.37521 13.3835 5.81734 12.8256C5.25947 12.2678 4.87955 11.557 4.72564 10.7832C4.57172 10.0094 4.65072 9.20736 4.95263 8.47847C5.25455 7.74957 5.76583 7.12658 6.42182 6.68826ZM10.9216 12.6428C11.5558 12.094 11.971 11.335 12.091 10.505V10.501H8.13799V6.54799C7.62348 6.6224 7.13214 6.81101 6.69999 7.09999C6.0763 7.51533 5.6029 8.12043 5.34984 8.82573C5.09679 9.53104 5.07753 10.2991 5.29492 11.0162C5.5123 11.7333 5.95478 12.3613 6.55687 12.8074C7.15896 13.2535 7.88866 13.4939 8.63799 13.493C9.47667 13.4934 10.2874 13.1916 10.9216 12.6428Z" fill="#333333"/>
<path d="M19.316 4.38696H13.696V4.88696H19.316V4.38696Z" fill="#333333"/>
<path d="M13.696 5.38696H19.316V5.88696H13.696V5.38696Z" fill="#333333"/>
<path d="M18.709 14.553H18.209V12.406H17.709V14.553H17.209V11.166H16.709V14.553H16.209V9.05298H15.709V14.553H15.209V11.247H14.709V14.553H14.209V12.406H13.709V15.053H19.209V10.68H18.709V14.553Z" fill="#333333"/>
<path fill-rule="evenodd" clip-rule="evenodd" d="M20.317 16.053V3.38696H3.65002V16.053H20.317ZM4.15002 3.88696H19.817V15.553H4.15002V3.88696Z" fill="#333333"/>
<path d="M12.333 17.614V19.014C12.617 19.0843 12.8696 19.2472 13.0507 19.477C13.2318 19.7068 13.3311 19.9904 13.333 20.283C13.3335 20.4581 13.2996 20.6315 13.2331 20.7934C13.1665 20.9554 13.0688 21.1026 12.9454 21.2268C12.822 21.3509 12.6753 21.4495 12.5138 21.517C12.3523 21.5845 12.179 21.6195 12.004 21.62C11.8289 21.6205 11.6555 21.5866 11.4936 21.5201C11.3316 21.4536 11.1844 21.3558 11.0602 21.2324C10.9361 21.109 10.8375 20.9624 10.77 20.8008C10.7025 20.6393 10.6675 20.4661 10.667 20.291H11.167C11.1672 20.4651 11.2224 20.6347 11.3247 20.7757C11.427 20.9166 11.5711 21.0216 11.7366 21.0758C11.9021 21.13 12.0804 21.1306 12.2463 21.0775C12.4121 21.0244 12.5569 20.9203 12.6601 20.78C12.7633 20.6398 12.8196 20.4705 12.821 20.2964C12.8223 20.1223 12.7687 19.9522 12.6677 19.8103C12.5668 19.6685 12.4236 19.5621 12.2586 19.5064C12.0936 19.4507 11.9153 19.4484 11.749 19.5V17.614H12.333Z" fill="#333333"/>
<path d="M21.75 16.6129H2.25C2.1837 16.6129 2.12011 16.6393 2.07322 16.6861C2.02634 16.733 2 16.7966 2 16.8629C2 16.9292 2.02634 16.9928 2.07322 17.0397C2.12011 17.0866 2.1837 17.1129 2.25 17.1129H21.75C21.8163 17.1129 21.8799 17.0866 21.9268 17.0397C21.9737 16.9928 22 16.9292 22 16.8629C22 16.7966 21.9737 16.733 21.9268 16.6861C21.8799 16.6393 21.8163 16.6129 21.75 16.6129Z" fill="#333333"/>
</svg>
