<svg width="24" height="24" viewBox="0 0 24 24" fill="none" xmlns="http://www.w3.org/2000/svg">
<path fill-rule="evenodd" clip-rule="evenodd" d="M16.711 3.92701V7.26001C16.711 7.38997 16.6594 7.5146 16.5675 7.6065C16.4756 7.69839 16.351 7.75001 16.221 7.75001H14.653C14.5886 7.75014 14.5248 7.73757 14.4652 7.713C14.4057 7.68844 14.3515 7.65236 14.3059 7.60685C14.2603 7.56134 14.2241 7.50727 14.1994 7.44776C14.1748 7.38824 14.162 7.32444 14.162 7.26001V3.92701C14.162 3.86258 14.1748 3.79878 14.1994 3.73927C14.2241 3.67975 14.2603 3.62569 14.3059 3.58018C14.3515 3.53466 14.4057 3.49859 14.4652 3.47402C14.5248 3.44946 14.5886 3.43688 14.653 3.43701H16.221C16.351 3.43701 16.4756 3.48864 16.5675 3.58053C16.6594 3.67242 16.711 3.79706 16.711 3.92701ZM14.555 4.02501V6.77001H16.319V4.02501H14.555ZM15.2737 7.50447C15.3221 7.53677 15.3789 7.55401 15.437 7.55401C15.4757 7.55414 15.514 7.54663 15.5497 7.5319C15.5854 7.51717 15.6179 7.49552 15.6452 7.4682C15.6726 7.44087 15.6942 7.40841 15.7089 7.37268C15.7237 7.33695 15.7312 7.29866 15.731 7.26001C15.731 7.20187 15.7138 7.14502 15.6815 7.09667C15.6492 7.04833 15.6033 7.01064 15.5496 6.98839C15.4958 6.96614 15.4367 6.96032 15.3797 6.97166C15.3227 6.98301 15.2703 7.01101 15.2292 7.05212C15.188 7.09324 15.16 7.14563 15.1487 7.20266C15.1374 7.25969 15.1432 7.3188 15.1654 7.37252C15.1877 7.42624 15.2254 7.47216 15.2737 7.50447Z" fill="#333333"/>
<path fill-rule="evenodd" clip-rule="evenodd" d="M19.0624 9.95769C19.4047 9.9354 19.7459 10.0151 20.0429 10.1868C20.4409 10.4166 20.7314 10.7952 20.8503 11.2391C20.9693 11.6831 20.907 12.1561 20.6772 12.5542C20.5059 12.8513 20.2502 13.091 19.9426 13.2429C19.635 13.3947 19.2893 13.4519 18.9492 13.4073C18.6091 13.3626 18.2899 13.218 18.0319 12.9919C17.774 12.7657 17.5889 12.4682 17.5001 12.1368C17.4113 11.8055 17.4228 11.4552 17.5331 11.1304C17.6434 10.8056 17.8476 10.5208 18.1198 10.312C18.392 10.1033 18.7201 9.97998 19.0624 9.95769ZM17.9751 10.9946C17.8254 11.2538 17.7648 11.5547 17.8023 11.8516C17.962 11.8325 18.1151 11.7764 18.2493 11.6879C18.3835 11.5993 18.4953 11.4807 18.5757 11.3414C18.6561 11.2022 18.703 11.0461 18.7125 10.8855C18.7221 10.725 18.6941 10.5644 18.6308 10.4166C18.355 10.5325 18.1247 10.7355 17.9751 10.9946ZM17.8821 12.1955C17.9974 12.4884 18.2094 12.733 18.4829 12.8888C18.7546 13.0478 19.0724 13.1091 19.3837 13.0625C19.3082 12.8691 19.2771 12.6611 19.2927 12.454C19.3084 12.2468 19.3705 12.0459 19.4743 11.866C19.5782 11.6861 19.7212 11.5319 19.8927 11.4148C20.0642 11.2976 20.2599 11.2206 20.4652 11.1893C20.351 10.8955 20.1399 10.6494 19.8669 10.4917C19.5938 10.3341 19.2752 10.2743 18.9636 10.3223C19.0391 10.5158 19.0702 10.7238 19.0546 10.9309C19.0389 11.138 18.9768 11.3389 18.873 11.5188C18.7691 11.6987 18.6261 11.8529 18.4546 11.9701C18.2831 12.0872 18.0874 12.1643 17.8821 12.1955ZM19.6398 12.4907C19.6302 12.6512 19.6582 12.8118 19.7215 12.9596C19.9973 12.8437 20.2276 12.6407 20.3772 12.3815C20.5268 12.1224 20.5875 11.8214 20.55 11.5246C20.3903 11.5437 20.2372 11.5998 20.103 11.6883C19.9688 11.7769 19.857 11.8955 19.7766 12.0348C19.6962 12.174 19.6493 12.3301 19.6398 12.4907Z" fill="#333333"/>
<path fill-rule="evenodd" clip-rule="evenodd" d="M9.52803 6.70899H10.167V7.02799H6.33203V6.70899H6.97103C6.88624 6.70873 6.805 6.67493 6.74505 6.61498C6.68509 6.55502 6.6513 6.47378 6.65103 6.38899V4.78899C6.6513 4.70421 6.68509 4.62297 6.74505 4.56301C6.805 4.50306 6.88624 4.46926 6.97103 4.46899H9.52603C9.61082 4.46926 9.69206 4.50306 9.75201 4.56301C9.81197 4.62297 9.84577 4.70421 9.84603 4.78899V6.38899C9.84616 6.43089 9.83804 6.47239 9.82213 6.51115C9.80622 6.5499 9.78284 6.58514 9.75331 6.61485C9.72378 6.64457 9.68868 6.66818 9.65003 6.68433C9.61138 6.70048 9.56992 6.70886 9.52803 6.70899ZM9.52803 4.79099H6.96703L6.97103 6.39099H9.52803V4.79099Z" fill="#333333"/>
<path d="M4.96802 11.47V11.232C5.1734 11.1488 5.39347 11.108 5.61502 11.112C5.73552 11.1123 5.85572 11.124 5.97402 11.147V11.365C5.85599 11.34 5.73565 11.3276 5.61502 11.328C5.39084 11.3201 5.1683 11.3689 4.96802 11.47Z" fill="#333333"/>
<path d="M4.96802 11.6139V11.8529C5.16821 11.7516 5.39075 11.7024 5.61502 11.7099C5.73571 11.7094 5.8561 11.7222 5.97402 11.7479V11.5289C5.85562 11.5068 5.73546 11.4954 5.61502 11.4949C5.39362 11.4916 5.17375 11.5321 4.96802 11.6139Z" fill="#333333"/>
<path d="M4.96802 12.238V12C5.1734 11.9169 5.39347 11.876 5.61502 11.88C5.73554 11.8798 5.8558 11.8916 5.97402 11.915V12.133C5.85599 12.1081 5.73565 12.0957 5.61502 12.096C5.39084 12.0882 5.1683 12.137 4.96802 12.238Z" fill="#333333"/>
<path fill-rule="evenodd" clip-rule="evenodd" d="M5.61504 10.465C5.33526 10.4524 5.05858 10.5279 4.82404 10.681C4.58951 10.5279 4.31282 10.4524 4.03304 10.465C3.75359 10.4525 3.47727 10.5281 3.24304 10.681V12.787C3.24422 12.8057 3.25219 12.8233 3.26544 12.8366C3.2787 12.8498 3.29633 12.8578 3.31504 12.859C3.32192 12.859 3.32711 12.8573 3.33239 12.8556C3.33785 12.8538 3.34341 12.852 3.35104 12.852C3.56534 12.7537 3.79736 12.7 4.03304 12.694C4.31272 12.681 4.58942 12.7562 4.82404 12.909C5.06671 12.7751 5.33797 12.7013 5.61504 12.694C5.85113 12.6884 6.08507 12.7399 6.29704 12.844C6.30793 12.8503 6.3205 12.8531 6.33304 12.852C6.35175 12.8508 6.36939 12.8428 6.38264 12.8296C6.3959 12.8163 6.40386 12.7987 6.40504 12.78V10.68C6.31795 10.6165 6.22098 10.5679 6.11804 10.536C5.95485 10.4874 5.78531 10.4635 5.61504 10.465ZM6.11504 12.478C5.95295 12.4289 5.78438 12.4047 5.61504 12.406C5.33782 12.4132 5.06646 12.4873 4.82404 12.622V10.969C5.06646 10.8343 5.33782 10.7602 5.61504 10.753C5.78442 10.7512 5.95306 10.7755 6.11504 10.825V12.478Z" fill="#333333"/>
<path fill-rule="evenodd" clip-rule="evenodd" d="M17.2599 9.62422C17.7794 9.13737 18.4641 8.86537 19.176 8.86298C19.7204 8.86178 20.2534 9.0183 20.7106 9.31362C21.1679 9.60894 21.5298 10.0304 21.7525 10.5271C21.9753 11.0237 22.0494 11.5743 21.9659 12.1121C21.8824 12.65 21.6449 13.1522 21.282 13.5579C20.9191 13.9636 20.4465 14.2555 19.9212 14.3983C19.396 14.5411 18.8406 14.5287 18.3222 14.3625C17.8039 14.1963 17.3448 13.8835 17.0005 13.4619C16.6562 13.0404 16.4414 12.5281 16.382 11.987H14.32L13.164 13.143V14.297H15.023V14.797H8.97601V14.297H11.167V12.713L9.96703 11.513H7.63003C7.63171 11.5377 7.63514 11.5619 7.63857 11.5861C7.64331 11.6195 7.64803 11.6527 7.64803 11.687C7.65568 12.3985 7.3916 13.0861 6.90965 13.6095C6.4277 14.133 5.76419 14.4528 5.05449 14.5038C4.34479 14.5548 3.64236 14.3332 3.09051 13.884C2.53865 13.4349 2.17895 12.7921 2.08477 12.0868C1.99059 11.3816 2.16904 10.6669 2.58372 10.0887C2.99839 9.51051 3.61804 9.11229 4.31626 8.9753C5.01448 8.83831 5.73866 8.97286 6.34107 9.35152C6.94348 9.73017 7.37873 10.3244 7.55803 11.013H10.174L10.623 11.463V10.189H8.00003V8.84997C7.19547 8.7854 6.44711 8.41203 5.91166 7.80806C5.37621 7.2041 5.09522 6.41638 5.12753 5.60988C5.15984 4.80339 5.50295 4.04068 6.085 3.48148C6.66705 2.92229 7.44289 2.60999 8.25003 2.60999C9.05717 2.60999 9.83301 2.92229 10.4151 3.48148C10.9971 4.04068 11.3402 4.80339 11.3725 5.60988C11.4048 6.41638 11.1238 7.2041 10.5884 7.80806C10.0529 8.41203 9.30458 8.7854 8.50003 8.84997V9.68897H11.121V11.963L11.667 12.509V14.297H12.664V12.935L13.287 12.312H13.267V9.68798H15.187V9.16198C14.2596 9.09719 13.3936 8.67485 12.7715 7.984C12.1494 7.29314 11.8198 6.38774 11.8522 5.45863C11.8846 4.52952 12.2765 3.64929 12.9453 3.00347C13.614 2.35765 14.5074 1.9967 15.437 1.9967C16.3667 1.9967 17.2601 2.35765 17.9288 3.00347C18.5976 3.64929 18.9894 4.52952 19.0219 5.45863C19.0543 6.38774 18.7247 7.29314 18.1026 7.984C17.4805 8.67485 16.6145 9.09719 15.687 9.16198V10.189H13.767V11.832L14.113 11.487H16.376C16.4246 10.7767 16.7404 10.1111 17.2599 9.62422ZM12.8645 3.87505C12.5245 4.38385 12.343 4.98205 12.343 5.59398C12.3446 6.41407 12.6711 7.20012 13.251 7.78002C13.8309 8.35991 14.6169 8.6864 15.437 8.68798C16.049 8.68798 16.6472 8.50652 17.156 8.16655C17.6648 7.82658 18.0613 7.34336 18.2955 6.778C18.5297 6.21265 18.591 5.59055 18.4716 4.99037C18.3522 4.39019 18.0575 3.8389 17.6248 3.40619C17.1921 2.97349 16.6408 2.67881 16.0406 2.55943C15.4405 2.44005 14.8184 2.50132 14.253 2.7355C13.6877 2.96968 13.2044 3.36624 12.8645 3.87505ZM17.8849 13.6193C18.2671 13.8747 18.7164 14.011 19.176 14.011C19.7922 14.0102 20.3828 13.7651 20.8185 13.3294C21.2541 12.8938 21.4992 12.3031 21.5 11.687C21.5 11.2273 21.3637 10.778 21.1084 10.3958C20.853 10.0137 20.4901 9.71578 20.0654 9.53989C19.6407 9.36399 19.1735 9.31796 18.7226 9.40764C18.2718 9.49731 17.8577 9.71865 17.5327 10.0437C17.2077 10.3687 16.9864 10.7828 16.8967 11.2336C16.807 11.6844 16.853 12.1517 17.0289 12.5763C17.2048 13.001 17.5027 13.364 17.8849 13.6193ZM5.62503 5.74997C5.62503 5.23075 5.77901 4.72319 6.06749 4.29149C6.35597 3.85979 6.766 3.52334 7.24571 3.32469C7.72543 3.12604 8.25328 3.07411 8.76251 3.17548C9.27173 3.27685 9.73946 3.52696 10.1065 3.89417C10.4736 4.26138 10.7235 4.7292 10.8247 5.23847C10.9259 5.74774 10.8738 6.27557 10.6749 6.75521C10.4761 7.23484 10.1395 7.64474 9.70767 7.93306C9.27586 8.22138 8.76825 8.37517 8.24903 8.37497C7.55325 8.37391 6.88629 8.09698 6.3944 7.60489C5.9025 7.11281 5.62582 6.44575 5.62503 5.74997ZM4.8242 14.011C4.36484 14.0108 3.91583 13.8745 3.53388 13.6193C3.1517 13.3639 2.85383 13.001 2.67793 12.5763C2.50203 12.1517 2.45601 11.6844 2.54568 11.2336C2.63535 10.7828 2.85669 10.3687 3.18171 10.0437C3.50673 9.71864 3.92083 9.4973 4.37164 9.40762C4.82245 9.31795 5.28973 9.36398 5.71438 9.53987C6.13904 9.71577 6.502 10.0136 6.75736 10.3958C7.01273 10.778 7.14903 11.2273 7.14903 11.687C7.14823 12.3033 6.90299 12.8941 6.46711 13.3298C6.03127 13.7654 5.44043 14.0104 4.8242 14.011Z" fill="#333333"/>
<path fill-rule="evenodd" clip-rule="evenodd" d="M14.284 22H9.71901L8.97601 15.281H15.024L14.284 22ZM10.167 21.5H13.836L14.466 15.781H9.53501L10.167 21.5Z" fill="#333333"/>
</svg>
