<svg width="24" height="24" viewBox="0 0 24 24" fill="none" xmlns="http://www.w3.org/2000/svg">
<path d="M11.001 6.61501H12.011V10.151L14.706 11.748L14.201 12.576L11.001 10.657V6.61501Z" fill="#333333"/>
<path fill-rule="evenodd" clip-rule="evenodd" d="M12.0421 2.97099C10.7319 2.97099 9.45121 3.35944 8.36182 4.08723C7.27243 4.81502 6.42328 5.84947 5.92174 7.05979C5.42019 8.27012 5.28876 9.60198 5.54406 10.887C5.79936 12.172 6.42994 13.3525 7.35606 14.2792C8.28218 15.2058 9.46227 15.8371 10.7471 16.0932C12.032 16.3493 13.3639 16.2187 14.5746 15.7178C15.7852 15.217 16.8202 14.3685 17.5486 13.2796C18.277 12.1906 18.6663 10.9101 18.6671 9.59999C18.6676 8.72965 18.4966 7.86773 18.1639 7.06349C17.8312 6.25924 17.3433 5.52844 16.7281 4.91282C16.1128 4.29721 15.3823 3.80886 14.5783 3.47567C13.7742 3.14249 12.9124 2.97099 12.0421 2.97099ZM12.0421 14.971C10.9788 14.971 9.93945 14.6557 9.05545 14.0649C8.17145 13.4741 7.48252 12.6344 7.07582 11.652C6.66912 10.6696 6.56291 9.58867 6.77063 8.54591C6.97835 7.50315 7.49067 6.54543 8.24277 5.79388C8.99488 5.04233 9.95299 4.53073 10.9959 4.32379C12.0388 4.11684 13.1197 4.22386 14.1018 4.63129C15.0838 5.03872 15.923 5.72827 16.5131 6.61271C17.1033 7.49715 17.4178 8.53675 17.4171 9.59999C17.4144 11.0243 16.8471 12.3894 15.8395 13.396C14.832 14.4026 13.4663 14.9697 12.0421 14.971Z" fill="#333333"/>
<path d="M2 9.5535C2 8.21211 2.26934 6.88437 2.79204 5.649L3.56204 5.975C3.08098 7.10653 2.83303 8.32346 2.83303 9.553C2.83303 10.7825 3.08098 11.9995 3.56204 13.131L2.79204 13.458C2.26934 12.2226 2 10.8949 2 9.5535Z" fill="#333333"/>
<path d="M21.208 5.649L20.438 5.975C20.9191 7.10653 21.1671 8.32346 21.1671 9.553C21.1671 10.7825 20.9191 11.9995 20.438 13.131L21.208 13.458C21.7308 12.2226 22.0001 10.8949 22.0001 9.5535C22.0001 8.21211 21.7308 6.88437 21.208 5.649Z" fill="#333333"/>
<path d="M17.0001 15.5L14.7441 17.695H8.66705V21.029H15.3331V18.285L17.5001 16L17.0001 15.5Z" fill="#333333"/>
</svg>
