<svg width="24" height="24" viewBox="0 0 24 24" fill="none" xmlns="http://www.w3.org/2000/svg">
<path d="M4.88901 8.65V19.1H10.385C10.6463 19.7996 11.0363 20.4441 11.535 21H4.88901C4.6402 20.9993 4.39396 20.9497 4.16436 20.8538C3.93475 20.758 3.72628 20.6178 3.55086 20.4414C3.37543 20.2649 3.2365 20.0556 3.14198 19.8255C3.04746 19.5953 2.99922 19.3488 3.00001 19.1L3.00901 5.8C3.0073 5.55169 3.05461 5.30549 3.14824 5.0755C3.24186 4.84551 3.37996 4.63627 3.55461 4.45975C3.72927 4.28324 3.93704 4.14294 4.16602 4.04689C4.39501 3.95083 4.6407 3.90092 4.88901 3.9H5.83301V2H7.72201V3.9H15.278V2H17.167V3.9H18.111C18.613 3.90291 19.0935 4.10437 19.4474 4.46037C19.8013 4.81638 20 5.29799 20 5.8V12.539C19.4469 12.0426 18.8063 11.6534 18.111 11.391V8.65H4.88901Z" fill="#333333"/>
<path d="M16.25 14.5H15.5V17.5L18.125 19.075L18.5 18.46L16.25 17.125V14.5Z" fill="#333333"/>
<path fill-rule="evenodd" clip-rule="evenodd" d="M16 12C15.0111 12 14.0444 12.2932 13.2222 12.8427C12.3999 13.3921 11.759 14.173 11.3806 15.0866C11.0022 16.0002 10.9031 17.0055 11.0961 17.9755C11.289 18.9454 11.7652 19.8363 12.4645 20.5355C13.1637 21.2348 14.0546 21.711 15.0246 21.9039C15.9945 22.0969 16.9998 21.9978 17.9134 21.6194C18.8271 21.241 19.6079 20.6001 20.1574 19.7779C20.7068 18.9556 21 17.9889 21 17C21 15.6739 20.4732 14.4021 19.5355 13.4645C18.5979 12.5268 17.3261 12 16 12ZM16 21C15.2089 21 14.4355 20.7654 13.7777 20.3259C13.1199 19.8864 12.6072 19.2616 12.3045 18.5307C12.0017 17.7998 11.9225 16.9956 12.0769 16.2196C12.2312 15.4437 12.6122 14.731 13.1716 14.1716C13.731 13.6122 14.4437 13.2312 15.2196 13.0769C15.9956 12.9225 16.7998 13.0017 17.5307 13.3045C18.2616 13.6072 18.8864 14.1199 19.3259 14.7777C19.7654 15.4355 20 16.2089 20 17C20 18.0609 19.5786 19.0783 18.8284 19.8284C18.0783 20.5786 17.0609 21 16 21Z" fill="#333333"/>
<path d="M7.46902 13.776V9.504H7.37802L5.61102 10.137V10.826L6.62202 10.512V13.776H7.46902Z" fill="#333333"/>
<path fill-rule="evenodd" clip-rule="evenodd" d="M11.359 12.853V13.776H10.513V12.853H8.76401L8.72601 12.32L10.5 9.51001H11.359V12.17H11.843V12.853H11.359ZM10.457 10.761L9.56901 12.17H10.513V10.661L10.457 10.761Z" fill="#333333"/>
</svg>
