<svg width="24" height="24" viewBox="0 0 24 24" fill="none" xmlns="http://www.w3.org/2000/svg">
<path fill-rule="evenodd" clip-rule="evenodd" d="M8.38001 8.18896C8.76301 8.18896 9.01701 8.67896 9.15601 9.33396L9.16809 9.3302C9.27298 9.29747 9.37679 9.26508 9.47501 9.24196C10.03 9.11096 10.387 9.17496 10.536 9.43396C10.736 9.76496 10.436 10.23 9.93601 10.678C10.43 11.122 10.727 11.591 10.536 11.922C10.4738 12.0131 10.3877 12.0852 10.2871 12.1306C10.1866 12.1759 10.0755 12.1927 9.96601 12.179C9.80003 12.1758 9.63496 12.1537 9.47401 12.113C9.37301 12.089 9.26501 12.057 9.15601 12.021C9.01701 12.677 8.76201 13.166 8.38001 13.166C7.99801 13.166 7.74401 12.677 7.60501 12.021C7.49601 12.057 7.38701 12.089 7.28701 12.113C7.12607 12.1537 6.96099 12.1758 6.79501 12.179C6.68572 12.1925 6.57481 12.1756 6.47445 12.1303C6.37409 12.085 6.28814 12.0129 6.22601 11.922C6.03101 11.591 6.32601 11.126 6.82601 10.678C6.33101 10.234 6.03401 9.76496 6.22601 9.43396C6.37501 9.17496 6.73201 9.11096 7.28701 9.24196C7.38801 9.26596 7.49601 9.29796 7.60501 9.33396C7.74401 8.67896 7.99701 8.18896 8.38001 8.18896ZM7.18201 10.972C6.76901 11.334 6.60201 11.615 6.61801 11.7C6.68401 11.751 7.01001 11.748 7.52901 11.575C7.51401 11.45 7.50201 11.322 7.49301 11.194C7.38201 11.122 7.28201 11.048 7.18201 10.972ZM7.18201 10.391C7.28201 10.315 7.38601 10.242 7.49301 10.17V10.166C7.50001 10.037 7.51401 9.90896 7.52901 9.78896C7.01001 9.61196 6.68301 9.60796 6.61801 9.66396C6.60201 9.74896 6.76901 10.03 7.18201 10.391ZM8.72801 9.49296C8.62201 8.95596 8.46201 8.67096 8.38001 8.64196C8.30001 8.67096 8.13901 8.95596 8.03301 9.49296C8.14701 9.54196 8.26301 9.59596 8.38001 9.65396C8.49701 9.59297 8.61401 9.54196 8.72801 9.49296ZM8.02901 11.862C8.13701 12.407 8.30001 12.692 8.38001 12.714H8.38401C8.46001 12.692 8.62101 12.407 8.72401 11.862C8.61001 11.814 8.49401 11.759 8.37601 11.702C8.25901 11.762 8.14301 11.814 8.02901 11.862ZM8.60301 11.07C8.68001 11.025 8.75401 10.98 8.82401 10.936H8.82801C8.83014 10.877 8.82975 10.8171 8.82935 10.755C8.82918 10.7298 8.82901 10.7039 8.82901 10.678C8.82901 10.6322 8.82772 10.5877 8.82645 10.544C8.82522 10.5018 8.82401 10.4602 8.82401 10.419C8.75401 10.375 8.68101 10.331 8.60301 10.286C8.52501 10.241 8.45001 10.2 8.37601 10.161C8.30301 10.2 8.22701 10.241 8.15001 10.286C8.07301 10.331 7.99901 10.375 7.92901 10.419V10.936L7.97038 10.9617C8.0281 10.9977 8.08711 11.0345 8.15001 11.07C8.22801 11.114 8.30301 11.156 8.37601 11.195C8.45001 11.156 8.52601 11.115 8.60301 11.07ZM9.22801 11.57C9.75401 11.75 10.082 11.751 10.142 11.693H10.146C10.164 11.616 10 11.334 9.57501 10.968C9.47501 11.044 9.37001 11.118 9.26301 11.19C9.25401 11.318 9.24301 11.446 9.22801 11.57ZM9.57801 10.387C9.99701 10.021 10.163 9.73696 10.142 9.65696C10.085 9.59996 9.75801 9.60496 9.23101 9.78496C9.24601 9.90896 9.25801 10.037 9.26701 10.166C9.37301 10.238 9.47801 10.311 9.57801 10.387Z" fill="#333333"/>
<path fill-rule="evenodd" clip-rule="evenodd" d="M8.38 16.786C8.15635 16.7862 7.93778 16.8527 7.75192 16.9771C7.56606 17.1015 7.42126 17.2782 7.33581 17.4849C7.25036 17.6916 7.2281 17.9189 7.27185 18.1383C7.31561 18.3576 7.4234 18.559 7.58162 18.7171C7.73983 18.8752 7.94136 18.9828 8.16072 19.0264C8.38009 19.0699 8.60744 19.0475 8.81405 18.9618C9.02065 18.8762 9.19723 18.7312 9.32146 18.5453C9.44569 18.3593 9.512 18.1407 9.512 17.917C9.51174 17.617 9.39235 17.3293 9.18009 17.1172C8.96783 16.9051 8.68005 16.786 8.38 16.786ZM8.38 18.595C8.24566 18.595 8.11435 18.5552 8.00266 18.4805C7.89098 18.4059 7.80395 18.2998 7.75259 18.1756C7.70123 18.0515 7.68784 17.9149 7.71412 17.7832C7.7404 17.6514 7.80517 17.5305 7.90023 17.4355C7.99529 17.3406 8.11637 17.276 8.24815 17.2499C8.37993 17.2239 8.51648 17.2374 8.64054 17.289C8.76459 17.3405 8.87057 17.4277 8.94505 17.5395C9.01954 17.6513 9.0592 17.7827 9.059 17.917C9.05953 18.0065 9.04235 18.0952 9.00847 18.1781C8.97458 18.2609 8.92465 18.3363 8.86155 18.3997C8.79844 18.4632 8.72341 18.5136 8.64077 18.5479C8.55813 18.5823 8.46951 18.6 8.38 18.6V18.595Z" fill="#333333"/>
<path fill-rule="evenodd" clip-rule="evenodd" d="M10.3 16.317L9.96997 16.647C10.2096 16.9482 10.3587 17.3113 10.4 17.694H10.869V18.146H10.403C10.3601 18.5276 10.21 18.8893 9.96997 19.189L10.3 19.519L9.97997 19.839L9.64997 19.509C9.35045 19.7494 8.98869 19.8996 8.60697 19.942V20.408H8.15397V19.942C7.77225 19.8996 7.41048 19.7494 7.11097 19.509L6.78097 19.839L6.46097 19.519L6.79097 19.189C6.55094 18.8893 6.4008 18.5276 6.35797 18.146H5.89197V17.694H6.35797C6.40061 17.3121 6.55076 16.9501 6.79097 16.65L6.46097 16.32L6.78097 16L7.11097 16.331C7.4104 16.0903 7.77216 15.9398 8.15397 15.897V15.431H8.60697V15.897C8.98878 15.9398 9.35054 16.0903 9.64997 16.331L9.97997 16L10.3 16.317ZM7.49984 19.233C7.76035 19.4071 8.06664 19.5 8.37997 19.5C8.79982 19.4998 9.20241 19.3329 9.49938 19.0361C9.79635 18.7394 9.96344 18.3369 9.96397 17.917C9.96417 17.6037 9.87143 17.2974 9.6975 17.0367C9.52357 16.7761 9.27625 16.5729 8.98683 16.4529C8.69741 16.3328 8.37889 16.3013 8.07156 16.3623C7.76423 16.4234 7.48189 16.5741 7.26026 16.7956C7.03864 17.0171 6.88768 17.2993 6.82648 17.6066C6.76528 17.9139 6.79659 18.2325 6.91645 18.522C7.03631 18.8115 7.23933 19.0589 7.49984 19.233Z" fill="#333333"/>
<path fill-rule="evenodd" clip-rule="evenodd" d="M14.036 12.714H14.488V12.261H13.131V8.18896H18.105V12.261H16.748V12.714H17.2V13.166H14.036V12.714ZM14.941 12.714H16.298L16.3 12.261H14.941V12.714ZM13.584 8.64196V11.809H17.655V8.64196H13.584Z" fill="#333333"/>
<path fill-rule="evenodd" clip-rule="evenodd" d="M16.524 16.786C16.5242 16.5858 16.4576 16.3912 16.3348 16.2331C16.212 16.075 16.04 15.9624 15.846 15.913V15.428H15.393V15.913C15.2495 15.9493 15.1172 16.0206 15.0077 16.1203C14.8983 16.22 14.8152 16.3452 14.7658 16.4848C14.7163 16.6244 14.7021 16.7739 14.7242 16.9203C14.7464 17.0667 14.8044 17.2054 14.893 17.324L13.82 20.324L14.246 20.476L14.677 19.269H15.39V19.5H15.843V19.274H16.556L16.987 20.481L17.413 20.329L16.34 17.329C16.4589 17.1729 16.5235 16.9822 16.524 16.786ZM15.393 16.4V17.012H15.846V16.4C15.9324 16.4498 15.9999 16.5268 16.038 16.6189C16.0762 16.7111 16.0829 16.8132 16.0571 16.9095C16.0313 17.0059 15.9744 17.091 15.8953 17.1517C15.8162 17.2124 15.7192 17.2453 15.6195 17.2453C15.5198 17.2453 15.4229 17.2124 15.3437 17.1517C15.2646 17.091 15.2078 17.0059 15.1819 16.9095C15.1561 16.8132 15.1628 16.7111 15.201 16.6189C15.2392 16.5268 15.3066 16.4498 15.393 16.4ZM16.393 18.822H15.842V18.6H15.389V18.827H14.838L15.267 17.627C15.3776 17.6742 15.4967 17.6986 15.617 17.6986C15.7373 17.6986 15.8564 17.6742 15.967 17.627L16.393 18.822Z" fill="#333333"/>
<path fill-rule="evenodd" clip-rule="evenodd" d="M4.87999 2H19.12C19.2543 2 19.3831 2.05328 19.4781 2.14814C19.5732 2.24301 19.6267 2.37171 19.627 2.506V21.494C19.6267 21.6283 19.5732 21.757 19.4781 21.8519C19.3831 21.9467 19.2543 22 19.12 22H4.87999C4.74569 22 4.61689 21.9467 4.52184 21.8519C4.42678 21.757 4.37325 21.6283 4.37299 21.494V2.506C4.37325 2.37171 4.42678 2.24301 4.52184 2.14814C4.61689 2.05328 4.74569 2 4.87999 2ZM4.87999 21.494H19.12L19.117 2.506H9.81699V7.257L8.38099 6.18L6.94499 7.257V2.506H4.87999V21.494Z" fill="#333333"/>
</svg>
