<svg width="24" height="24" viewBox="0 0 24 24" fill="none" xmlns="http://www.w3.org/2000/svg">
<path d="M3.32996 22V2H14.256V3.492H13.756V2.5H3.82996V21L8.79296 17.278L13.756 21V16.253H14.256V22L8.79296 17.903L3.32996 22Z" fill="#333333"/>
<path fill-rule="evenodd" clip-rule="evenodd" d="M8.59295 7.5837C8.48873 7.53645 8.39949 7.46148 8.33495 7.36699C8.13595 7.02299 8.44495 6.54099 8.96595 6.07599C8.44895 5.61099 8.13895 5.12799 8.33895 4.78399C8.49195 4.51399 8.86295 4.44799 9.43895 4.58399C9.54395 4.60799 9.65495 4.64199 9.76895 4.67899C9.90795 3.99799 10.172 3.48999 10.569 3.48999C10.966 3.48999 11.23 3.99799 11.374 4.67899C11.488 4.64199 11.599 4.60799 11.704 4.58399C12.279 4.44899 12.649 4.51599 12.804 4.78399C13.003 5.12799 12.695 5.61099 12.178 6.07599C12.695 6.54099 13.004 7.02299 12.804 7.36699C12.7396 7.46165 12.6504 7.53674 12.5461 7.58401C12.4418 7.63129 12.3266 7.64893 12.213 7.63499C12.0405 7.63165 11.8691 7.6085 11.702 7.56599C11.597 7.54099 11.486 7.50799 11.372 7.47099C11.228 8.15099 10.959 8.65899 10.567 8.65899C10.175 8.65899 9.91095 8.15099 9.76695 7.47099C9.65395 7.50799 9.54195 7.54099 9.43695 7.56599C9.26984 7.60857 9.09837 7.63172 8.92595 7.63499C8.81235 7.6487 8.69716 7.63096 8.59295 7.5837ZM11.815 5.77399C12.25 5.39399 12.422 5.09899 12.4 5.01599C12.342 4.95899 12 4.96199 11.455 5.14899C11.471 5.27799 11.483 5.40999 11.492 5.54399C11.603 5.61899 11.715 5.69499 11.815 5.77399ZM11.815 6.37799C11.712 6.45599 11.603 6.53299 11.492 6.60699H11.493C11.483 6.74099 11.472 6.87299 11.455 7.00299C12.004 7.18899 12.342 7.18999 12.404 7.12999C12.423 7.04999 12.251 6.75699 11.815 6.37799ZM10.211 7.30499C10.323 7.87099 10.492 8.16699 10.576 8.18999C10.654 8.16699 10.822 7.87099 10.933 7.30499C10.815 7.25499 10.694 7.19799 10.572 7.13899C10.45 7.19799 10.33 7.25499 10.211 7.30499ZM10.937 4.84599C10.826 4.28799 10.66 3.99299 10.576 3.96299H10.572C10.488 3.99299 10.322 4.28799 10.215 4.84599C10.334 4.89599 10.455 4.95299 10.576 5.01299C10.697 4.95299 10.818 4.89599 10.937 4.84599ZM10.1522 5.78185L10.111 5.80699H10.107C10.1026 5.86054 10.1052 5.91485 10.1077 5.97039C10.1093 6.00507 10.111 6.04024 10.111 6.07599V6.34399L10.1274 6.35424C10.1961 6.39696 10.266 6.4404 10.341 6.48299C10.422 6.52899 10.499 6.57199 10.576 6.61299C10.653 6.57199 10.731 6.52999 10.811 6.48299C10.891 6.43599 10.968 6.38999 11.041 6.34399V5.80699C10.968 5.76199 10.891 5.71499 10.811 5.66899C10.731 5.62299 10.653 5.57999 10.576 5.53899C10.499 5.57999 10.421 5.62299 10.341 5.66899C10.2757 5.70648 10.2132 5.74466 10.1522 5.78185ZM9.68795 5.14899C9.14895 4.96499 8.80995 4.96099 8.74195 5.01899C8.72595 5.10699 8.89995 5.39999 9.32795 5.77399C9.43095 5.69499 9.53995 5.61899 9.65095 5.54399C9.65995 5.40999 9.67195 5.27799 9.68795 5.14899ZM9.65095 6.60699C9.53995 6.53299 9.42795 6.45599 9.32795 6.37799C8.89995 6.75299 8.72595 7.04399 8.74195 7.13599C8.80995 7.19399 9.14895 7.18999 9.68795 7.00699C9.67195 6.87399 9.65995 6.74099 9.65095 6.60699Z" fill="#333333"/>
<path fill-rule="evenodd" clip-rule="evenodd" d="M10.5719 12.417C10.3398 12.417 10.1128 12.4858 9.91971 12.6148C9.72665 12.7438 9.57617 12.9272 9.48732 13.1417C9.39846 13.3562 9.37521 13.5923 9.42051 13.82C9.46581 14.0478 9.57762 14.2569 9.74181 14.4211C9.90599 14.5853 10.1152 14.6971 10.3429 14.7424C10.5706 14.7877 10.8067 14.7645 11.0212 14.6756C11.2357 14.5868 11.4191 14.4363 11.5481 14.2432C11.6771 14.0502 11.7459 13.8232 11.7459 13.591C11.7457 13.2797 11.6219 12.9813 11.4018 12.7611C11.1817 12.541 10.8832 12.4173 10.5719 12.417ZM10.5719 14.295C10.4337 14.294 10.2989 14.2521 10.1844 14.1746C10.07 14.0971 9.98103 13.9874 9.92881 13.8594C9.8766 13.7314 9.86344 13.5908 9.89102 13.4554C9.91859 13.3199 9.98565 13.1957 10.0837 13.0983C10.1818 13.0009 10.3066 12.9347 10.4422 12.9081C10.5779 12.8815 10.7184 12.8956 10.846 12.9488C10.9736 13.0019 11.0826 13.0916 11.1593 13.2066C11.236 13.3216 11.2769 13.4568 11.2769 13.595C11.277 13.782 11.2027 13.9613 11.0705 14.0935C10.9382 14.2257 10.7589 14.3 10.5719 14.3V14.295Z" fill="#333333"/>
<path fill-rule="evenodd" clip-rule="evenodd" d="M13.155 13.3561V13.8261L12.672 13.8281C12.6275 14.2244 12.4714 14.5999 12.222 14.9111L12.565 15.2531L12.233 15.5851L11.89 15.2431C11.5787 15.4923 11.2032 15.6483 10.807 15.6931V16.1761H10.337V15.6931C9.94071 15.6483 9.56523 15.4923 9.25395 15.2431L8.91095 15.5851L8.57895 15.2531L8.92195 14.9111C8.67286 14.5997 8.51687 14.2243 8.47195 13.8281H7.98895V13.3581H8.47195C8.51671 12.9618 8.67272 12.5863 8.92195 12.2751L8.57895 11.9321L8.91095 11.6001L9.25395 11.9411C9.56489 11.6913 9.94054 11.5352 10.337 11.4911V11.0081H10.807V11.4911C11.2034 11.5352 11.579 11.6913 11.89 11.9411L12.233 11.5981L12.565 11.9301L12.222 12.2731C12.4718 12.584 12.6278 12.9596 12.672 13.3561H13.155ZM9.6586 14.958C9.92895 15.1386 10.2468 15.2351 10.572 15.2351C11.0077 15.2343 11.4254 15.0608 11.7336 14.7527C12.0417 14.4445 12.2152 14.0268 12.216 13.5911C12.216 13.2659 12.1195 12.9481 11.9389 12.6777C11.7582 12.4073 11.5015 12.1966 11.2011 12.0722C10.9007 11.9478 10.5701 11.9152 10.2512 11.9786C9.93232 12.0421 9.63939 12.1987 9.40947 12.4286C9.17955 12.6585 9.02298 12.9514 8.95954 13.2703C8.89611 13.5892 8.92866 13.9198 9.05309 14.2202C9.17753 14.5206 9.38824 14.7773 9.6586 14.958Z" fill="#333333"/>
<path fill-rule="evenodd" clip-rule="evenodd" d="M15.4999 7.71994V3.49194H20.6699V7.71994H19.2569V8.18894H19.7269V8.65894H16.4389V8.18894H16.9089V7.71994H15.4999ZM17.3829 8.19194H18.7879L18.7919 7.71994H17.3829V8.19194ZM15.9739 7.24994H20.1999V3.96194H15.9739V7.24994Z" fill="#333333"/>
<path fill-rule="evenodd" clip-rule="evenodd" d="M19.026 12.417C19.0259 12.2098 18.9571 12.0086 18.8305 11.8446C18.7038 11.6807 18.5264 11.5634 18.326 11.511V11.011H17.856V11.511C17.6556 11.5634 17.4782 11.6807 17.3515 11.8446C17.2249 12.0086 17.1561 12.2098 17.156 12.417C17.1563 12.6185 17.2223 12.8144 17.344 12.975L16.222 16.1L16.664 16.258L17.112 15H17.852V15.235H18.322V15H19.062L19.51 16.253L19.952 16.095L18.838 12.975C18.9597 12.8144 19.0257 12.6185 19.026 12.417ZM17.852 12.017V12.656H18.322V12.017C18.4116 12.0687 18.4816 12.1486 18.5212 12.2442C18.5608 12.3397 18.5677 12.4457 18.541 12.5457C18.5142 12.6456 18.4552 12.7339 18.3731 12.7969C18.291 12.8599 18.1904 12.894 18.087 12.894C17.9835 12.894 17.8829 12.8599 17.8009 12.7969C17.7188 12.7339 17.6598 12.6456 17.633 12.5457C17.6062 12.4457 17.6132 12.3397 17.6528 12.2442C17.6924 12.1486 17.7624 12.0687 17.852 12.017ZM18.894 14.535H18.322V14.3H17.852V14.535H17.28L17.725 13.288C17.8396 13.3362 17.9627 13.361 18.087 13.361C18.2113 13.361 18.3344 13.3362 18.449 13.288L18.894 14.535Z" fill="#333333"/>
</svg>
