<svg width="24" height="24" viewBox="0 0 24 24" fill="none" xmlns="http://www.w3.org/2000/svg">
<path fill-rule="evenodd" clip-rule="evenodd" d="M21.351 17.9051L21.136 18.1201L21.778 18.7671C21.9203 18.9096 22.0002 19.1027 22.0002 19.3041C22.0002 19.5054 21.9203 19.6986 21.778 19.8411L19.836 21.7831C19.6935 21.9254 19.5004 22.0053 19.299 22.0053C19.0976 22.0053 18.9045 21.9254 18.762 21.7831L18.12 21.1411L17.866 21.3951C17.7235 21.5374 17.5304 21.6173 17.329 21.6173C17.1276 21.6173 16.9345 21.5374 16.792 21.3951L16.151 20.7541L15.795 21.1101C15.6525 21.2524 15.4594 21.3323 15.258 21.3323C15.0566 21.3323 14.8635 21.2524 14.721 21.1101L13.727 20.1101L15.946 17.8821L14.657 16.5921C14.5064 16.7791 14.3161 16.9304 14.1 17.035C13.8838 17.1396 13.6472 17.195 13.407 17.1971C13.1176 17.1945 12.8339 17.1156 12.5848 16.9683C12.3356 16.821 12.1297 16.6105 11.988 16.3581C11.8586 16.5939 11.6723 16.7937 11.446 16.9392C11.2197 17.0847 10.9606 17.1713 10.6923 17.1912C10.424 17.211 10.155 17.1635 9.90977 17.053C9.66451 16.9424 9.45078 16.7723 9.28801 16.5581L8.00501 17.8421L10.273 20.1051L9.27902 21.1051C9.13652 21.2474 8.94338 21.3273 8.74201 21.3273C8.54065 21.3273 8.34751 21.2474 8.20501 21.1051L7.84901 20.7491L7.20801 21.3901C7.06552 21.5324 6.87238 21.6123 6.67101 21.6123C6.46965 21.6123 6.27651 21.5324 6.13401 21.3901L5.88001 21.1361L5.23801 21.7781C5.09552 21.9204 4.90238 22.0003 4.70101 22.0003C4.49965 22.0003 4.30651 21.9204 4.16401 21.7781L2.22201 19.8361C2.07973 19.6936 1.99982 19.5004 1.99982 19.2991C1.99982 19.0977 2.07973 18.9046 2.22201 18.7621L2.86401 18.1201L2.64901 17.9051C2.57844 17.8346 2.52246 17.7509 2.48426 17.6587C2.44606 17.5666 2.4264 17.4678 2.4264 17.3681C2.4264 17.2683 2.44606 17.1696 2.48426 17.0774C2.52246 16.9853 2.57844 16.9016 2.64901 16.8311L3.29001 16.1901L2.93401 15.8341C2.86344 15.7636 2.80746 15.6799 2.76926 15.5877C2.73106 15.4956 2.7114 15.3968 2.7114 15.2971C2.7114 15.1973 2.73106 15.0986 2.76926 15.0064C2.80746 14.9143 2.86344 14.8306 2.93401 14.7601L3.92801 13.7651L6.11601 15.9531L7.64501 14.4121V14.3921C7.64583 14.2821 7.6562 14.1723 7.67601 14.0641C7.34857 13.7588 7.14664 13.3424 7.10966 12.8962C7.07268 12.4501 7.2033 12.0061 7.47601 11.6511C7.21472 11.4931 6.99898 11.27 6.84997 11.0035C6.70095 10.737 6.62377 10.4364 6.62601 10.1311C6.62511 9.68748 6.78987 9.25953 7.08801 8.93108L6.15801 8.00008L3.92801 10.2401L2.93401 9.24508C2.86344 9.17458 2.80746 9.09087 2.76926 8.99873C2.73106 8.90659 2.7114 8.80782 2.7114 8.70808C2.7114 8.60833 2.73106 8.50956 2.76926 8.41742C2.80746 8.32528 2.86344 8.24157 2.93401 8.17108L3.29001 7.81508L2.64901 7.17408C2.57844 7.10358 2.52246 7.01988 2.48426 6.92773C2.44606 6.83559 2.4264 6.73682 2.4264 6.63708C2.4264 6.53733 2.44606 6.43856 2.48426 6.34642C2.52246 6.25428 2.57844 6.17057 2.64901 6.10008L2.86401 5.88008L2.22201 5.23808C2.07973 5.09558 1.99982 4.90244 1.99982 4.70108C1.99982 4.49971 2.07973 4.30657 2.22201 4.16408L4.16401 2.22208C4.30651 2.07979 4.49965 1.99988 4.70101 1.99988C4.90238 1.99988 5.09552 2.07979 5.23801 2.22208L5.88001 2.86408L6.13401 2.61008C6.27651 2.46779 6.46965 2.38788 6.67101 2.38788C6.87238 2.38788 7.06552 2.46779 7.20801 2.61008L7.84901 3.24608L8.20501 2.89008C8.34751 2.74779 8.54065 2.66788 8.74201 2.66788C8.94338 2.66788 9.13652 2.74779 9.27902 2.89008L10.273 3.89008L8.04601 6.11508L8.94601 7.02008C9.19835 6.75054 9.52886 6.56693 9.89101 6.49508C9.90901 6.48608 9.92801 6.48608 9.94601 6.48608C10.0299 6.4713 10.1149 6.4636 10.2 6.46308H10.224C10.6919 6.46308 11.1405 6.64893 11.4714 6.97974C11.8022 7.31055 11.988 7.75923 11.988 8.22708C11.9549 8.63163 11.8087 9.01871 11.566 9.34408C11.422 9.49408 11.208 9.16908 11.466 8.83908C11.5086 8.75347 11.5421 8.66365 11.566 8.57108C11.577 8.53008 11.585 8.48808 11.592 8.44608C11.5928 8.44015 11.5942 8.43407 11.5956 8.42795C11.5978 8.41859 11.6 8.40915 11.6 8.40008C11.6088 8.34312 11.6142 8.28568 11.616 8.22808C11.616 7.86022 11.4699 7.50743 11.2098 7.24732C10.9497 6.98721 10.5969 6.84108 10.229 6.84108C9.86116 6.84108 9.50837 6.98721 9.24826 7.24732C8.98815 7.50743 8.84201 7.86022 8.84201 8.22808C8.84233 8.28697 8.84667 8.34577 8.85501 8.40408C8.85588 8.41317 8.85787 8.42188 8.85985 8.43055C8.86244 8.4419 8.86501 8.45317 8.86501 8.46508C8.8668 8.47476 8.86852 8.48541 8.87027 8.49628C8.87539 8.52806 8.88082 8.56168 8.88901 8.57808C8.89491 8.58987 8.8965 8.59994 8.89839 8.61198C8.90004 8.6224 8.90191 8.6343 8.90701 8.65008C8.91801 8.68408 8.93301 8.72708 8.94301 8.75008L8.94997 8.76619C8.95769 8.78412 8.96557 8.80242 8.97401 8.82008C8.99562 8.86945 9.02068 8.91723 9.04901 8.96308C8.79858 8.89936 8.54342 8.85589 8.28602 8.83308C8.11277 8.83483 7.94205 8.87478 7.78601 8.95008C7.63744 9.02028 7.50421 9.11918 7.39401 9.24108C7.16905 9.48684 7.0442 9.80789 7.04401 10.1411C7.04167 10.3925 7.11169 10.6394 7.24573 10.8521C7.37978 11.0649 7.57218 11.2346 7.80001 11.3411C7.99104 11.46 8.08154 11.5164 8.08988 11.583C8.09738 11.643 8.0383 11.7113 7.92601 11.8411C7.70246 12.0719 7.57102 12.3766 7.55647 12.6976C7.54192 13.0187 7.64526 13.3339 7.84701 13.5841C7.98168 13.3088 8.19015 13.0764 8.44918 12.9127C8.70821 12.7491 9.00762 12.6605 9.31401 12.6571C9.33549 12.6577 9.34944 12.6647 9.36371 12.6719C9.37269 12.6764 9.38181 12.681 9.39301 12.6841C9.68101 12.7561 9.67402 13.0941 9.31401 13.0941C9.17222 13.0964 9.03198 13.1241 8.90001 13.1761C8.73856 13.2361 8.59112 13.3285 8.46677 13.4477C8.34242 13.5669 8.24381 13.7103 8.17701 13.8691C8.16802 13.8821 8.16802 13.8961 8.16802 13.9091C8.11978 14.0482 8.08627 14.192 8.06801 14.3381V14.4021C8.07303 14.4871 8.08575 14.5714 8.10601 14.6541C8.14316 14.8766 8.23847 15.0854 8.3823 15.2593C8.52613 15.4331 8.71336 15.5659 8.92501 15.6441C9.08566 15.6892 9.25221 15.7098 9.41901 15.7051L9.47401 15.6971C9.57815 15.6823 9.57561 15.6893 9.55751 15.7395C9.53649 15.7978 9.49451 15.9142 9.57402 16.1221C9.59501 16.152 9.61771 16.1807 9.64201 16.2081C9.74744 16.3577 9.88673 16.4802 10.0485 16.5657C10.2103 16.6512 10.39 16.6972 10.573 16.7001C10.8802 16.6908 11.1722 16.5644 11.3893 16.347C11.6064 16.1295 11.7322 15.8373 11.741 15.5301V10.4371C11.7484 10.3595 11.7783 10.2859 11.827 10.2251L11.852 10.1991C11.8876 10.1632 11.9355 10.1421 11.986 10.1401C12.094 10.1401 12.204 10.2261 12.232 10.4401V15.5401C12.2426 15.8472 12.3702 16.1387 12.5886 16.3549C12.807 16.571 13.0998 16.6956 13.407 16.7031C13.5814 16.7006 13.753 16.6586 13.9089 16.5803C14.0647 16.5021 14.2009 16.3895 14.307 16.2511C14.3434 16.2116 14.3768 16.1695 14.407 16.1251C14.4883 15.9172 14.4455 15.8009 14.424 15.7426C14.412 15.7097 14.4066 15.6952 14.434 15.6931C14.4787 15.6948 14.5231 15.6998 14.567 15.7081C14.7335 15.7128 14.8997 15.6922 15.06 15.6471C15.2623 15.5732 15.4427 15.4494 15.5843 15.2872C15.7259 15.1249 15.8242 14.9295 15.87 14.7191C15.8981 14.6166 15.9142 14.5112 15.918 14.4051V14.3411C15.9029 14.2264 15.8775 14.1132 15.842 14.0031C15.8358 13.983 15.8319 13.962 15.8279 13.941C15.8236 13.918 15.8193 13.895 15.812 13.8731C15.7381 13.6967 15.6251 13.5394 15.4815 13.4131C15.3378 13.2868 15.1674 13.1948 14.983 13.1441C14.8829 13.1148 14.7793 13.099 14.675 13.0971C14.343 13.0931 14.313 12.8051 14.543 12.7051C14.5832 12.6808 14.6283 12.6658 14.675 12.6611C14.9815 12.6643 15.281 12.7527 15.54 12.9164C15.7991 13.0801 16.0075 13.3127 16.142 13.5881C16.3432 13.3377 16.4461 13.0225 16.4316 12.7017C16.417 12.3808 16.286 12.0763 16.063 11.8451C15.9505 11.714 15.8914 11.6452 15.8992 11.5851C15.9079 11.5186 15.9984 11.4627 16.189 11.3451C16.3716 11.2587 16.532 11.1315 16.6576 10.9734C16.7833 10.8152 16.871 10.6303 16.9139 10.4329C16.9568 10.2355 16.9538 10.0308 16.9051 9.83477C16.8564 9.63872 16.7633 9.45646 16.633 9.30208C16.5304 9.17509 16.4036 9.06972 16.26 8.99208C16.0891 8.89273 15.8957 8.83837 15.698 8.83408C15.4406 8.85741 15.1855 8.90121 14.935 8.96508C14.9626 8.9188 14.9876 8.87106 15.01 8.82208C15.021 8.79908 15.027 8.78508 15.04 8.75108L15.0477 8.73109C15.0591 8.70158 15.0713 8.66974 15.077 8.65108C15.0819 8.63511 15.0843 8.62589 15.0887 8.60936L15.096 8.58208C15.106 8.54508 15.114 8.50708 15.121 8.46908C15.1221 8.46123 15.1238 8.45367 15.1255 8.44618C15.1283 8.43361 15.131 8.42123 15.131 8.40808C15.1389 8.34972 15.1432 8.29095 15.144 8.23208C15.1378 7.90676 15.0211 7.59324 14.813 7.34308C14.6312 7.1243 14.3862 6.96703 14.1116 6.89275C13.8369 6.81847 13.5461 6.83082 13.2788 6.9281C13.0114 7.02538 12.7807 7.20286 12.618 7.43625C12.4553 7.66965 12.3687 7.94759 12.37 8.23208C12.37 8.28995 12.374 8.34776 12.382 8.40508C12.3828 8.411 12.3842 8.41709 12.3856 8.4232C12.3878 8.43256 12.39 8.442 12.39 8.45108C12.397 8.49308 12.405 8.53508 12.416 8.57608C12.4403 8.66852 12.4738 8.7583 12.516 8.84408C12.773 9.17408 12.56 9.49908 12.416 9.34908C12.1726 9.02403 12.026 8.63683 11.993 8.23208C11.9933 7.76414 12.1794 7.31546 12.5103 6.98468C12.8413 6.65389 13.2901 6.46808 13.758 6.46808H13.781C13.8662 6.46856 13.9511 6.47626 14.035 6.49108C14.0416 6.49212 14.0482 6.49354 14.0546 6.49493C14.0666 6.49753 14.0783 6.50008 14.09 6.50008C14.4772 6.57342 14.8289 6.77404 15.089 7.07008L16 6.15808L13.732 3.90008L14.726 2.90008C14.8685 2.75779 15.0616 2.67788 15.263 2.67788C15.4644 2.67788 15.6575 2.75779 15.8 2.90008L16.151 3.25108L16.792 2.61008C16.9345 2.46779 17.1276 2.38788 17.329 2.38788C17.5304 2.38788 17.7235 2.46779 17.866 2.61008L18.12 2.86408L18.762 2.22208C18.9045 2.07979 19.0976 1.99988 19.299 1.99988C19.5004 1.99988 19.6935 2.07979 19.836 2.22208L21.778 4.16408C21.9203 4.30657 22.0002 4.49971 22.0002 4.70108C22.0002 4.90244 21.9203 5.09558 21.778 5.23808L21.136 5.88008L21.351 6.09508C21.4216 6.16557 21.4776 6.24928 21.5158 6.34142C21.554 6.43356 21.5736 6.53233 21.5736 6.63208C21.5736 6.73182 21.554 6.83059 21.5158 6.92273C21.4776 7.01487 21.4216 7.09859 21.351 7.16908L20.71 7.81008L21.066 8.16808C21.1366 8.23857 21.1926 8.32228 21.2308 8.41442C21.269 8.50656 21.2886 8.60533 21.2886 8.70508C21.2886 8.80482 21.269 8.90359 21.2308 8.99573C21.1926 9.08788 21.1366 9.17158 21.066 9.24208L20.072 10.2371L17.884 8.04908L16.941 8.99208C17.2122 9.31312 17.361 9.71981 17.361 10.1401C17.3631 10.4452 17.2858 10.7457 17.1368 11.0119C16.9878 11.2782 16.7722 11.5012 16.511 11.6591C16.7524 11.9748 16.8825 12.3616 16.881 12.7591C16.882 13.0063 16.8316 13.2511 16.733 13.4778C16.6343 13.7045 16.4896 13.9083 16.308 14.0761C16.328 14.1839 16.338 14.2934 16.338 14.4031C16.338 14.4171 16.3345 14.4301 16.331 14.4431C16.3275 14.4561 16.324 14.4691 16.324 14.4831L17.842 16.0001L20.072 13.7651L21.066 14.7601C21.1366 14.8306 21.1926 14.9143 21.2308 15.0064C21.269 15.0986 21.2886 15.1973 21.2886 15.2971C21.2886 15.3968 21.269 15.4956 21.2308 15.5877C21.1926 15.6799 21.1366 15.7636 21.066 15.8341L20.71 16.1901L21.351 16.8311C21.4216 16.9016 21.4776 16.9853 21.5158 17.0774C21.554 17.1696 21.5736 17.2683 21.5736 17.3681C21.5736 17.4678 21.554 17.5666 21.5158 17.6587C21.4776 17.7509 21.4216 17.8346 21.351 17.9051ZM19.1999 2.51973C19.1685 2.5328 19.14 2.55195 19.116 2.57608L18.475 3.21708L20.783 5.52508L21.424 4.88408C21.4725 4.83552 21.4997 4.7697 21.4997 4.70108C21.4997 4.63245 21.4725 4.56664 21.424 4.51808L19.482 2.57608C19.458 2.55195 19.4295 2.5328 19.3981 2.51973C19.3667 2.50667 19.333 2.49994 19.299 2.49994C19.265 2.49994 19.2313 2.50667 19.1999 2.51973ZM17.3295 2.88827C17.2607 2.88827 17.1947 2.91553 17.146 2.96408L16.505 3.60008L20.359 7.45608L21 6.81508C21.0486 6.76635 21.0758 6.70036 21.0758 6.63158C21.0758 6.56279 21.0486 6.49681 21 6.44808L17.513 2.96408C17.4643 2.91553 17.3983 2.88827 17.3295 2.88827ZM15.075 3.24908L14.434 3.89008L20.073 9.52708L20.713 8.88708C20.7372 8.86301 20.7563 8.83441 20.7694 8.80293C20.7825 8.77144 20.7892 8.73767 20.7892 8.70358C20.7892 8.66948 20.7825 8.63572 20.7694 8.60423C20.7563 8.57274 20.7372 8.54414 20.713 8.52008L15.441 3.24908C15.417 3.22495 15.3885 3.2058 15.3571 3.19273C15.3257 3.17967 15.292 3.17294 15.258 3.17294C15.224 3.17294 15.1903 3.17967 15.1589 3.19273C15.1275 3.2058 15.099 3.22495 15.075 3.24908ZM15.699 8.39308C16.0138 8.3944 16.3211 8.48906 16.582 8.66508L17.542 7.70508L16.337 6.50008L15.351 7.48608C15.462 7.71777 15.5204 7.97116 15.522 8.22808C15.5219 8.28758 15.5182 8.34701 15.511 8.40608C15.5734 8.39823 15.6362 8.39389 15.699 8.39308ZM2.5003 4.70108C2.5003 4.7697 2.52753 4.83552 2.57601 4.88408L3.21701 5.52508L5.52501 3.21708L4.88401 2.57608C4.86004 2.55195 4.83152 2.5328 4.80012 2.51973C4.76871 2.50667 4.73503 2.49994 4.70101 2.49994C4.667 2.49994 4.63332 2.50667 4.60191 2.51973C4.57051 2.5328 4.54199 2.55195 4.51801 2.57608L2.57601 4.51808C2.52753 4.56664 2.5003 4.63245 2.5003 4.70108ZM2.92421 6.63158C2.92421 6.70036 2.95147 6.76635 3.00001 6.81508L3.64301 7.45608L7.50001 3.60008L6.85401 2.96408C6.80528 2.91553 6.7393 2.88827 6.67051 2.88827C6.60173 2.88827 6.53575 2.91553 6.48701 2.96408L3.00001 6.44808C2.95147 6.49681 2.92421 6.56279 2.92421 6.63158ZM3.28601 8.88708L3.92602 9.52708L9.56601 3.89008L8.92501 3.24908C8.90104 3.22495 8.87252 3.2058 8.84112 3.19273C8.80971 3.17967 8.77603 3.17294 8.74201 3.17294C8.708 3.17294 8.67432 3.17967 8.64291 3.19273C8.61151 3.2058 8.58299 3.22495 8.55901 3.24908L3.28601 8.52008C3.26186 8.54414 3.24269 8.57274 3.22961 8.60423C3.21653 8.63572 3.2098 8.66948 3.2098 8.70358C3.2098 8.73767 3.21653 8.77144 3.22961 8.80293C3.24269 8.83441 3.26186 8.86301 3.28601 8.88708ZM7.70501 6.46308L6.50001 7.66308L7.46601 8.63508C7.71301 8.48199 7.99743 8.39998 8.28801 8.39808C8.35056 8.39839 8.41303 8.40273 8.47502 8.41108C8.43803 8.07024 8.50496 7.72619 8.66701 7.42408L7.70501 6.46308ZM4.80012 21.4804C4.83152 21.4674 4.86004 21.4482 4.88401 21.4241L5.52501 20.7831L3.21701 18.4751L2.57601 19.1161C2.52753 19.1646 2.5003 19.2305 2.5003 19.2991C2.5003 19.3677 2.52753 19.4335 2.57601 19.4821L4.51801 21.4241C4.54199 21.4482 4.57051 21.4674 4.60191 21.4804C4.63332 21.4935 4.667 21.5002 4.70101 21.5002C4.73503 21.5002 4.76871 21.4935 4.80012 21.4804ZM6.67051 21.1119C6.7393 21.1119 6.80528 21.0846 6.85401 21.0361L7.50001 20.4001L3.64101 16.5441L3.00001 17.1851C2.95147 17.2338 2.92421 17.2998 2.92421 17.3686C2.92421 17.4374 2.95147 17.5033 3.00001 17.5521L6.48701 21.0361C6.53575 21.0846 6.60173 21.1119 6.67051 21.1119ZM8.92501 20.7511L9.56601 20.1101L7.65101 18.2001L5.76201 16.3071L3.92701 14.4731L3.28701 15.1131C3.26286 15.1371 3.24369 15.1657 3.23061 15.1972C3.21753 15.2287 3.2108 15.2625 3.2108 15.2966C3.2108 15.3307 3.21753 15.3644 3.23061 15.3959C3.24369 15.4274 3.26286 15.456 3.28701 15.4801L8.55901 20.7511C8.58299 20.7752 8.61151 20.7944 8.64291 20.8074C8.67432 20.8205 8.708 20.8272 8.74201 20.8272C8.77603 20.8272 8.80971 20.8205 8.84112 20.8074C8.87252 20.7944 8.90104 20.7752 8.92501 20.7511ZM6.46601 16.3001L7.66601 17.5001L9.03701 16.1221V16.1171C8.74282 16.0621 8.46863 15.9295 8.24274 15.7332C8.01685 15.5368 7.84745 15.2838 7.75201 15.0001L6.46601 16.3001ZM14.938 16.1454C14.9329 16.153 14.9278 16.1606 14.924 16.1691L16.3 17.5421L17.5 16.3371L16.214 15.0481C16.1144 15.3204 15.9458 15.5622 15.7248 15.7499C15.5038 15.9376 15.2379 16.0648 14.953 16.1191C14.9493 16.1286 14.9437 16.1369 14.938 16.1454ZM15.3601 20.8074C15.3915 20.7944 15.42 20.7752 15.444 20.7511L20.717 15.4801C20.7412 15.456 20.7603 15.4274 20.7734 15.3959C20.7865 15.3644 20.7932 15.3307 20.7932 15.2966C20.7932 15.2625 20.7865 15.2287 20.7734 15.1972C20.7603 15.1657 20.7412 15.1371 20.717 15.1131L20.077 14.4731L14.437 20.1101L15.078 20.7511C15.102 20.7752 15.1305 20.7944 15.1619 20.8074C15.1933 20.8205 15.227 20.8272 15.261 20.8272C15.295 20.8272 15.3287 20.8205 15.3601 20.8074ZM17.3325 21.1119C17.4013 21.1119 17.4673 21.0846 17.516 21.0361L21.001 17.5521C21.0496 17.5033 21.0768 17.4374 21.0768 17.3686C21.0768 17.2998 21.0496 17.2338 21.001 17.1851L20.36 16.5441L16.508 20.3961L17.149 21.0361C17.1977 21.0846 17.2637 21.1119 17.3325 21.1119ZM19.485 21.4241L21.427 19.4821H21.424C21.4729 19.4339 21.5007 19.3683 21.5012 19.2997C21.5018 19.2311 21.4751 19.165 21.427 19.1161L20.786 18.4751L18.478 20.7831L19.119 21.4241C19.143 21.4482 19.1715 21.4674 19.2029 21.4804C19.2343 21.4935 19.268 21.5002 19.302 21.5002C19.336 21.5002 19.3697 21.4935 19.4011 21.4804C19.4325 21.4674 19.461 21.4482 19.485 21.4241Z" fill="#333333"/>
<path d="M10.837 12.365C10.8712 12.3627 10.9049 12.3553 10.937 12.343C11.187 12.225 11.348 12.5 11.204 12.614C11.1017 12.6814 10.9841 12.722 10.862 12.732C10.8348 12.7307 10.8077 12.7273 10.781 12.722C10.5939 12.7133 10.4165 12.636 10.2828 12.5049C10.1491 12.3737 10.0683 12.1979 10.056 12.011V12.003C10.0549 11.9865 10.0581 11.9708 10.0614 11.955C10.0642 11.9413 10.067 11.9275 10.067 11.913C10.0683 11.725 10.1385 11.5439 10.2644 11.4042C10.3903 11.2645 10.5631 11.1758 10.75 11.155C10.795 11.1582 10.8395 11.1659 10.883 11.178C10.959 11.1796 11.0342 11.1931 11.106 11.218C11.255 11.294 11.128 11.621 10.877 11.528C10.844 11.5219 10.8104 11.5202 10.777 11.523C10.6679 11.5344 10.5678 11.5884 10.4983 11.6732C10.4288 11.758 10.3957 11.8669 10.406 11.976C10.4084 12.03 10.4215 12.0829 10.4446 12.1318C10.4676 12.1806 10.5001 12.2244 10.5402 12.2606C10.5803 12.2968 10.6272 12.3246 10.6781 12.3426C10.7291 12.3605 10.7831 12.3681 10.837 12.365Z" fill="#333333"/>
<path d="M10.612 9.5611C10.609 9.53649 10.601 9.51274 10.5886 9.49124C10.5763 9.46975 10.5597 9.45095 10.54 9.43595C10.5202 9.42094 10.4977 9.41004 10.4736 9.40389C10.4496 9.39773 10.4246 9.39645 10.4 9.4001C10.3502 9.40939 10.3057 9.43729 10.2756 9.47813C10.2455 9.51898 10.2321 9.56973 10.238 9.6201C10.2413 9.81785 10.1717 10.0099 10.0427 10.1598C9.91366 10.3096 9.73407 10.4069 9.53804 10.4331C9.43175 10.4413 9.32495 10.4263 9.22504 10.3891C9.12259 10.3555 9.02812 10.3012 8.94745 10.2297C8.86679 10.1581 8.80164 10.0708 8.75604 9.9731C8.59104 9.7501 8.33204 9.9041 8.44204 10.1891C8.536 10.379 8.68059 10.5393 8.85988 10.6522C9.03917 10.7652 9.24617 10.8264 9.45804 10.8291C9.49679 10.8291 9.53551 10.8271 9.57404 10.8231C9.58757 10.8231 9.59919 10.8177 9.61087 10.8123C9.61992 10.8081 9.62901 10.8039 9.63904 10.8021C9.92435 10.7488 10.1805 10.5935 10.3596 10.3651C10.5386 10.1367 10.6284 9.85088 10.612 9.5611Z" fill="#333333"/>
<path d="M14.417 10.8191H14.428C14.4612 10.8229 14.4946 10.8249 14.528 10.8251C14.74 10.8224 14.9472 10.7613 15.1266 10.6483C15.3061 10.5354 15.4509 10.3751 15.545 10.1851C15.625 9.9771 15.508 9.8431 15.375 9.8701C15.3157 9.88375 15.2638 9.91952 15.23 9.9701C15.2051 10.0175 15.1757 10.0624 15.142 10.1041L14.958 10.2871C14.8116 10.3956 14.6305 10.4465 14.449 10.4301C14.2531 10.4037 14.0736 10.3064 13.9446 10.1565C13.8156 10.0067 13.746 9.81479 13.749 9.6171C13.7565 9.56662 13.7438 9.51523 13.7137 9.47405C13.6835 9.43287 13.6384 9.40522 13.588 9.3971C13.563 9.39346 13.5376 9.39491 13.5132 9.40136C13.4888 9.40781 13.466 9.41914 13.4461 9.43464C13.4262 9.45015 13.4096 9.46953 13.3974 9.4916C13.3852 9.51368 13.3776 9.538 13.375 9.5631C13.3583 9.86527 13.4564 10.1626 13.6496 10.3955C13.8428 10.6284 14.1169 10.7797 14.417 10.8191Z" fill="#333333"/>
<path d="M13.946 13.488C13.9076 13.488 13.8692 13.49 13.831 13.494C13.634 13.5187 13.4468 13.5942 13.2878 13.7131C13.1288 13.8319 13.0034 13.9901 12.924 14.172C12.8392 14.3453 12.796 14.5361 12.798 14.729C12.798 14.7428 12.7958 14.7562 12.7935 14.77C12.7904 14.7883 12.7873 14.8074 12.789 14.829C12.8049 15.0047 12.8577 15.175 12.9438 15.3288C13.03 15.4827 13.1476 15.6167 13.289 15.722C13.522 15.841 13.633 15.687 13.617 15.55C13.6155 15.5217 13.6071 15.4942 13.5924 15.47C13.5778 15.4457 13.5574 15.4255 13.533 15.411C13.4289 15.342 13.3417 15.2504 13.2778 15.1431C13.2139 15.0358 13.175 14.9155 13.164 14.791C13.1536 14.677 13.1665 14.562 13.202 14.453C13.246 14.3043 13.3327 14.1717 13.4512 14.0717C13.5697 13.9716 13.715 13.9085 13.869 13.89C14.0311 13.8754 14.1936 13.9119 14.3339 13.9944C14.4741 14.0769 14.585 14.2013 14.651 14.35C14.772 14.631 15.119 14.494 14.965 14.133C14.8705 13.9433 14.7257 13.7833 14.5463 13.6704C14.3669 13.5575 14.1599 13.4961 13.948 13.493L13.946 13.488Z" fill="#333333"/>
<path d="M13.123 12.7321C13.1566 12.7308 13.19 12.7268 13.223 12.7201C13.3962 12.708 13.56 12.6363 13.6864 12.5173C13.8129 12.3983 13.8944 12.2393 13.917 12.0671C13.923 12.0451 13.9273 12.0227 13.93 12.0001V11.9871C13.9457 11.7851 13.8822 11.585 13.7528 11.4291C13.6234 11.2732 13.4384 11.1739 13.237 11.1521C13.1961 11.156 13.1557 11.1634 13.116 11.1741C13.0358 11.1745 12.9564 11.1887 12.881 11.2161C12.733 11.2921 12.859 11.6161 13.11 11.5251C13.143 11.519 13.1766 11.5173 13.21 11.5201C13.319 11.5317 13.419 11.5858 13.4884 11.6705C13.5578 11.7553 13.5911 11.864 13.581 11.9731C13.5785 12.027 13.5652 12.0799 13.5422 12.1287C13.5191 12.1774 13.4866 12.2212 13.4465 12.2573C13.4064 12.2935 13.3596 12.3214 13.3087 12.3394C13.2578 12.3573 13.2039 12.3651 13.15 12.3621C13.1158 12.3598 13.0821 12.3524 13.05 12.3401C12.799 12.2221 12.639 12.4951 12.781 12.6111C12.8829 12.6797 13.0006 12.7214 13.123 12.7321Z" fill="#333333"/>
<path d="M10.6768 13.6979C10.8308 13.8081 10.955 13.9549 11.038 14.125C11.127 14.2912 11.1767 14.4756 11.183 14.664C11.1919 14.717 11.1973 14.7704 11.199 14.824C11.183 14.9996 11.1302 15.1699 11.0441 15.3238C10.9579 15.4776 10.8404 15.6116 10.699 15.717C10.37 15.886 10.271 15.506 10.456 15.406C10.561 15.3368 10.6483 15.244 10.711 15.135C10.7778 15.0258 10.8174 14.9021 10.8264 14.7744C10.8355 14.6466 10.8137 14.5186 10.763 14.401C10.714 14.2638 10.6278 14.143 10.5141 14.0519C10.4004 13.9608 10.2636 13.903 10.119 13.885C9.95709 13.8705 9.79468 13.9071 9.6546 13.9896C9.51453 14.0721 9.40381 14.1964 9.33801 14.345C9.21701 14.628 8.86901 14.489 9.02301 14.128C9.11758 13.9384 9.26246 13.7784 9.44182 13.6655C9.62118 13.5526 9.82812 13.4912 10.04 13.488C10.0788 13.488 10.1175 13.49 10.156 13.494C10.3439 13.5177 10.5229 13.5878 10.6768 13.6979Z" fill="#333333"/>
</svg>
