<svg width="24" height="24" viewBox="0 0 24 24" fill="none" xmlns="http://www.w3.org/2000/svg">
<path d="M9.047 8.56798V2.00198H22V13.113H9.047V11.959L9.547 11.788V12.613H21.5V2.50198H9.547V8.39698L9.047 8.56798Z" fill="#333333"/>
<path d="M5.34199 6.36699C6.21515 6.36699 6.92299 5.65915 6.92299 4.78599C6.92299 3.91282 6.21515 3.20499 5.34199 3.20499C4.46882 3.20499 3.76099 3.91282 3.76099 4.78599C3.76099 5.65915 4.46882 6.36699 5.34199 6.36699Z" fill="#333333"/>
<path d="M9.63803 9.953C9.64831 9.96808 9.65766 9.98377 9.66603 10C9.69182 10.074 9.7027 10.1523 9.69804 10.2305C9.69337 10.3087 9.67326 10.3853 9.63885 10.4556C9.60445 10.526 9.55644 10.5889 9.4976 10.6406C9.43875 10.6924 9.37024 10.7319 9.29603 10.757L8.39603 11.064C8.38562 11.0716 8.37458 11.0783 8.36303 11.084C8.21424 11.1349 8.05132 11.1246 7.91011 11.0554C7.7689 10.9862 7.66096 10.8638 7.61003 10.715L6.92303 8.705V13.114H3.76103V8.773L3.25403 12.544C3.24557 12.6228 3.22143 12.699 3.18302 12.7683C3.14461 12.8376 3.09271 12.8984 3.03038 12.9473C2.96805 12.9962 2.89657 13.0321 2.82014 13.0529C2.74371 13.0737 2.66389 13.079 2.58538 13.0684C2.50688 13.0579 2.43129 13.0317 2.36307 12.9914C2.29485 12.9512 2.23538 12.8977 2.18819 12.8341C2.14099 12.7705 2.10701 12.698 2.08826 12.6211C2.06951 12.5441 2.06637 12.4642 2.07903 12.386L2.60003 8.513C2.60854 8.47142 2.62232 8.43109 2.64103 8.393C2.70261 8.11332 2.83952 7.85581 3.03694 7.64835C3.23435 7.44089 3.48475 7.29138 3.76103 7.216C3.88961 7.17972 4.02243 7.16055 4.15603 7.159H6.52903C6.8431 7.16378 7.14875 7.26124 7.40762 7.43916C7.66648 7.61707 7.86701 7.8675 7.98403 8.159C7.98574 8.16372 7.98894 8.16752 7.99202 8.1712C7.99612 8.17607 8.00003 8.18072 8.00003 8.187L8.53503 9.763L8.91003 9.635C9.00779 9.60261 9.11237 9.59665 9.21318 9.61773C9.31399 9.6388 9.40743 9.68616 9.48403 9.755L12.524 6.715L12.7 6.892L9.63803 9.953Z" fill="#333333"/>
<path d="M6.22358 16.6941C6.38752 16.9394 6.47503 17.2279 6.47503 17.523C6.47516 17.7189 6.43666 17.913 6.36172 18.0941C6.28679 18.2752 6.1769 18.4397 6.03833 18.5783C5.89975 18.7168 5.73522 18.8267 5.55415 18.9017C5.37307 18.9766 5.179 19.0151 4.98303 19.015C4.68794 19.015 4.39948 18.9275 4.15412 18.7635C3.90876 18.5996 3.71753 18.3666 3.6046 18.0939C3.49167 17.8213 3.46213 17.5213 3.5197 17.2319C3.57727 16.9425 3.71937 16.6766 3.92803 16.468C4.13669 16.2593 4.40253 16.1172 4.69195 16.0596C4.98137 16.0021 5.28136 16.0316 5.55399 16.1445C5.82662 16.2575 6.05964 16.4487 6.22358 16.6941Z" fill="#333333"/>
<path d="M20.508 17.523C20.508 17.2278 20.4205 16.9393 20.2565 16.694C20.0925 16.4486 19.8594 16.2573 19.5867 16.1445C19.314 16.0316 19.014 16.0021 18.7245 16.0597C18.4351 16.1174 18.1693 16.2596 17.9606 16.4683C17.752 16.6771 17.61 16.943 17.5525 17.2325C17.4951 17.522 17.5248 17.822 17.6378 18.0946C17.7509 18.3672 17.9423 18.6002 18.1878 18.764C18.4333 18.9278 18.7219 19.0152 19.017 19.015C19.2129 19.0151 19.4069 18.9766 19.588 18.9017C19.769 18.8267 19.9334 18.7168 20.0719 18.5782C20.2104 18.4396 20.3202 18.2751 20.395 18.094C20.4699 17.9129 20.5082 17.7189 20.508 17.523Z" fill="#333333"/>
<path d="M19.017 19.761C18.017 19.761 16.034 20.261 16.034 21.252V22H22V21.254C22 20.261 20.012 19.761 19.017 19.761Z" fill="#333333"/>
<path d="M9.047 21.252C9.047 20.261 11.035 19.761 12.03 19.761C13.026 19.761 15.013 20.261 15.013 21.254V22H9.047V21.252Z" fill="#333333"/>
<path d="M13.522 17.523C13.522 17.2279 13.4345 16.9394 13.2706 16.6941C13.1066 16.4487 12.8736 16.2575 12.601 16.1445C12.3284 16.0316 12.0284 16.0021 11.739 16.0596C11.4495 16.1172 11.1837 16.2593 10.975 16.468C10.7664 16.6766 10.6243 16.9425 10.5667 17.2319C10.5091 17.5213 10.5387 17.8213 10.6516 18.0939C10.7645 18.3666 10.9558 18.5996 11.2011 18.7635C11.4465 18.9275 11.7349 19.015 12.03 19.015C12.226 19.0151 12.4201 18.9766 12.6011 18.9017C12.7822 18.8267 12.9468 18.7168 13.0853 18.5783C13.2239 18.4397 13.3338 18.2752 13.4087 18.0941C13.4837 17.913 13.5222 17.7189 13.522 17.523Z" fill="#333333"/>
<path d="M4.983 19.761C3.988 19.761 2 20.261 2 21.252V22H7.966V21.254C7.966 20.261 5.979 19.761 4.983 19.761Z" fill="#333333"/>
</svg>
