<svg width="24" height="24" viewBox="0 0 24 24" fill="none" xmlns="http://www.w3.org/2000/svg">
<path d="M14.2 5.16203L14.89 6.22703C14.9359 6.29666 14.9676 6.37466 14.9832 6.45656C14.9989 6.53845 14.9983 6.62263 14.9814 6.70428C14.9645 6.78593 14.9316 6.86344 14.8847 6.93238C14.8378 7.00132 14.7778 7.06033 14.708 7.10603L11.408 9.25103C11.3383 9.29652 11.2602 9.3278 11.1783 9.34307C11.0965 9.35835 11.0124 9.35731 10.9309 9.34003C10.8495 9.32276 10.7722 9.28957 10.7036 9.24238C10.6349 9.19519 10.5763 9.13492 10.531 9.06503L9.83803 8.00003C9.79219 7.93007 9.76071 7.85169 9.74543 7.76946C9.73015 7.68723 9.73138 7.60278 9.74903 7.52103L10.021 6.23603V6.22003L3.53403 10.529C3.52397 10.3482 3.46596 10.1734 3.36596 10.0224C3.26597 9.87143 3.12758 9.74981 2.96503 9.67003L9.61003 5.25803L9.24303 4.69403C9.15132 4.55318 9.11929 4.38168 9.15398 4.21723C9.18867 4.05278 9.28724 3.90883 9.42803 3.81703L10.545 3.09003C10.6148 3.04453 10.6928 3.01325 10.7747 2.99798C10.8566 2.98271 10.9407 2.98374 11.0221 3.00102C11.1036 3.0183 11.1809 3.05148 11.2495 3.09867C11.3181 3.14586 11.3767 3.20613 11.422 3.27603L12.115 4.34103C12.207 4.48159 12.3507 4.58009 12.515 4.61503L13.8 4.88703C13.9645 4.9222 14.1083 5.02108 14.2 5.16203Z" fill="#333333"/>
<path d="M2.94321 10.301C2.9998 10.3857 3.03 10.4852 3.03 10.5871C3.03 10.6547 3.01668 10.7217 2.9908 10.7842C2.96492 10.8466 2.92698 10.9034 2.87916 10.9512C2.83134 10.9991 2.77456 11.037 2.71208 11.0629C2.6496 11.0888 2.58263 11.1021 2.515 11.1021C2.41314 11.1021 2.31357 11.0719 2.22888 11.0153C2.14419 10.9587 2.07818 10.8783 2.0392 10.7842C2.00022 10.6901 1.99002 10.5865 2.0099 10.4866C2.02977 10.3867 2.07882 10.2949 2.15084 10.2229C2.22286 10.1509 2.31463 10.1018 2.41453 10.082C2.51443 10.0621 2.61798 10.0723 2.71208 10.1113C2.80619 10.1503 2.88662 10.2163 2.94321 10.301Z" fill="#333333"/>
<path d="M7.36998 16.5001L3.44998 11.0101C3.37415 11.1745 3.25589 11.3157 3.10738 11.4192C2.95886 11.5227 2.78545 11.5848 2.60498 11.5991L6.10498 16.4991L7.36998 16.5001Z" fill="#333333"/>
<path d="M4.64598 17.012H9.39998C9.80267 17.014 10.1886 17.1734 10.4754 17.4561C10.7622 17.7388 10.9272 18.1224 10.935 18.525H3.09998C3.1081 18.1206 3.27462 17.7355 3.56373 17.4525C3.85284 17.1696 4.24145 17.0114 4.64598 17.012Z" fill="#333333"/>
<path fill-rule="evenodd" clip-rule="evenodd" d="M19.68 15.716H20.326C20.4251 15.7211 20.5185 15.764 20.5869 15.8359C20.6552 15.9078 20.6934 16.0033 20.6934 16.1025C20.6934 16.2018 20.6552 16.2972 20.5869 16.3691C20.5185 16.4411 20.4251 16.484 20.326 16.489H12.315C11.9461 16.4792 11.5956 16.3258 11.3382 16.0614C11.0807 15.797 10.9366 15.4426 10.9366 15.0735C10.9366 14.7045 11.0807 14.35 11.3382 14.0856C11.5956 13.8213 11.9461 13.6678 12.315 13.658H20.326C20.4251 13.6631 20.5185 13.706 20.5869 13.7779C20.6552 13.8498 20.6934 13.9453 20.6934 14.0445C20.6934 14.1438 20.6552 14.2392 20.5869 14.3111C20.5185 14.3831 20.4251 14.426 20.326 14.431H19.68C19.6102 14.638 19.5731 14.8546 19.57 15.073C19.5726 15.2918 19.6097 15.5088 19.68 15.716ZM11.8768 15.5191C11.992 15.6389 12.149 15.7095 12.315 15.716H19.545C19.4826 15.5281 19.4482 15.3334 19.4421 15.138H12.252C12.2363 15.136 12.2218 15.1284 12.2113 15.1165C12.2009 15.1046 12.1951 15.0893 12.1951 15.0735C12.1951 15.0576 12.2009 15.0423 12.2113 15.0304C12.2218 15.0186 12.2363 15.0109 12.252 15.009H19.4421C19.4483 14.8136 19.4826 14.6189 19.545 14.431H12.315C12.149 14.4376 11.992 14.5081 11.8768 14.6279C11.7617 14.7477 11.6974 14.9074 11.6974 15.0735C11.6974 15.2397 11.7617 15.3994 11.8768 15.5191Z" fill="#333333"/>
<path fill-rule="evenodd" clip-rule="evenodd" d="M21.611 19.07H20.968C20.8213 18.6543 20.8213 18.2008 20.968 17.785H21.614C21.7131 17.78 21.8065 17.7371 21.8748 17.6651C21.9432 17.5932 21.9813 17.4978 21.9813 17.3985C21.9813 17.2993 21.9432 17.2038 21.8748 17.1319C21.8065 17.06 21.7131 17.0171 21.614 17.012H13.6C13.2311 17.0218 12.8806 17.1753 12.6231 17.4397C12.3657 17.704 12.2216 18.0585 12.2216 18.4275C12.2216 18.7966 12.3657 19.151 12.6231 19.4154C12.8806 19.6798 13.2311 19.8332 13.6 19.843H14.474V21.013L15.504 20.571L16.535 21.013V19.843H21.611C21.7101 19.838 21.8035 19.7951 21.8718 19.7231C21.9402 19.6512 21.9783 19.5558 21.9783 19.4565C21.9783 19.3573 21.9402 19.2618 21.8718 19.1899C21.8035 19.118 21.7101 19.0751 21.611 19.07ZM16.406 18.492V20.8157L15.558 20.453L15.507 20.431L15.457 20.453L14.606 20.817V18.492H16.406ZM20.831 19.07H16.534V18.492H20.727C20.7333 18.6874 20.7679 18.8822 20.831 19.07ZM13.54 18.363H20.727C20.7333 18.1676 20.7679 17.9728 20.831 17.785H13.6C13.434 17.7916 13.2769 17.8621 13.1618 17.9819C13.0467 18.1017 12.9823 18.2614 12.9823 18.4275C12.9823 18.5937 13.0467 18.7534 13.1618 18.8731C13.2769 18.9929 13.434 19.0635 13.6 19.07H14.477V18.492H13.54C13.5243 18.49 13.5098 18.4824 13.4993 18.4705C13.4888 18.4586 13.483 18.4433 13.483 18.4275C13.483 18.4116 13.4888 18.3963 13.4993 18.3845C13.5098 18.3726 13.5243 18.3649 13.54 18.363Z" fill="#333333"/>
</svg>
