<svg width="24" height="24" viewBox="0 0 24 24" fill="none" xmlns="http://www.w3.org/2000/svg">
<path fill-rule="evenodd" clip-rule="evenodd" d="M7.89999 2.386L8.08399 3.56L5.67899 3.941L5.49299 2.767C5.48359 2.70764 5.48599 2.647 5.50007 2.58856C5.51414 2.53013 5.5396 2.47504 5.57499 2.42646C5.61038 2.37788 5.655 2.33676 5.70631 2.30545C5.75762 2.27414 5.8146 2.25326 5.87399 2.244L7.37399 2.006C7.39778 2.00202 7.42186 2.00001 7.44599 2C7.55527 1.9996 7.66109 2.03828 7.74435 2.10907C7.8276 2.17986 7.88281 2.27808 7.89999 2.386ZM7.46199 3.114L7.37499 2.56L6.04199 2.767L6.12999 3.32L7.46199 3.114Z" fill="#333333"/>
<path d="M7.74099 4.86797L6.40799 5.07897L7.36099 11.087H6.81099L5.78699 4.62797L8.19199 4.24597L9.27699 11.087H8.72699L7.74099 4.86797Z" fill="#333333"/>
<path d="M15.331 6.05804L16.721 6.20404L16.208 11.087H16.754L17.175 7.07804L17.944 7.15804L17.688 9.59104C17.6841 9.62664 17.6873 9.66265 17.6974 9.69702C17.7074 9.73139 17.7242 9.76343 17.7467 9.7913C17.7692 9.81917 17.7969 9.84233 17.8284 9.85945C17.8599 9.87656 17.8944 9.8873 17.93 9.89104H17.959C18.0261 9.89087 18.0907 9.86584 18.1404 9.82076C18.1901 9.77569 18.2213 9.71379 18.228 9.64704L18.512 6.94704C18.516 6.91141 18.5129 6.87535 18.5029 6.84093C18.4929 6.8065 18.4761 6.77441 18.4536 6.74651C18.4311 6.71861 18.4033 6.69545 18.3718 6.67837C18.3403 6.6613 18.3057 6.65065 18.27 6.64704L17.232 6.53804L17.317 5.72104L14.848 5.46204L14.258 11.087H14.8L15.331 6.05804Z" fill="#333333"/>
<path fill-rule="evenodd" clip-rule="evenodd" d="M16.3 21.076H7.70002C7.26018 21.0754 6.83852 20.9005 6.52751 20.5895C6.2165 20.2784 6.04154 19.8568 6.04102 19.417V11.549H17.951V19.417C17.9505 19.8554 17.7766 20.2759 17.4674 20.5866C17.1581 20.8974 16.7385 21.0733 16.3 21.076ZM6.51802 12.023V19.417C6.51959 19.73 6.6446 20.0299 6.8659 20.2514C7.08719 20.4729 7.38692 20.5981 7.70002 20.6H16.3C16.6143 20.5994 16.9156 20.4743 17.1377 20.2519C17.3598 20.0296 17.4848 19.7282 17.485 19.4139V12.023H6.51802Z" fill="#333333"/>
<path d="M10.566 11.087V4.56104H13.428V5.10404H11.764V5.64704H13.428V6.19004H11.764V6.73304H13.428V7.27604H11.764V7.81904H13.428V8.36204H11.764V8.90504H13.428V9.44804H11.764V9.99104H13.428V10.534H11.764V11.087H10.566Z" fill="#333333"/>
<path fill-rule="evenodd" clip-rule="evenodd" d="M17.512 3.86706C17.5515 3.53559 17.4579 3.20199 17.2516 2.93951C17.0454 2.67702 16.7434 2.5071 16.412 2.46706C16.391 2.46706 16.3698 2.46556 16.3485 2.46406C16.3273 2.46256 16.306 2.46106 16.285 2.46106C15.9733 2.4654 15.6743 2.58484 15.4454 2.7964C15.2164 3.00796 15.0738 3.29669 15.045 3.60706L14.914 4.84806L17.384 5.10706L17.512 3.86706ZM16.898 4.51106L15.509 4.36506L15.583 3.66506C15.5971 3.48794 15.6766 3.3224 15.8059 3.2006C15.9353 3.07881 16.1054 3.00947 16.283 3.00606H16.354C16.4448 3.01611 16.5327 3.0443 16.6124 3.08896C16.6921 3.13363 16.762 3.19385 16.818 3.26606C16.9385 3.4195 16.9938 3.61418 16.972 3.80806L16.898 4.51106Z" fill="#333333"/>
<path d="M8.60094 21.8782C8.42208 21.7986 8.2617 21.6828 8.13 21.538H15.864C15.7323 21.6828 15.572 21.7987 15.3931 21.8783C15.2142 21.9578 15.0208 21.9992 14.825 22H9.169C8.97326 21.9992 8.77981 21.9577 8.60094 21.8782Z" fill="#333333"/>
</svg>
